<?xml version="1.0" encoding="UTF-8" standalone="no"?>
<!DOCTYPE svg PUBLIC "-//W3C//DTD SVG 1.1//EN"
 "http://www.w3.org/Graphics/SVG/1.1/DTD/svg11.dtd">
<!-- Generated by graphviz version 2.40.1 (20161225.0304)
 -->
<!-- Title: AttitudeMahonyFilter.h Pages: 1 -->
<svg width="830pt" height="431pt"
 viewBox="0.00 0.00 829.50 431.00" xmlns="http://www.w3.org/2000/svg" xmlns:xlink="http://www.w3.org/1999/xlink">
<g id="graph0" class="graph" transform="scale(1 1) rotate(0) translate(4 427)">
<title>AttitudeMahonyFilter.h</title>
<!-- Node0 -->
<g id="node1" class="node">
<title>Node0</title>
<polygon fill="#bfbfbf" stroke="#000000" points="85.5,-403.5 85.5,-422.5 211.5,-422.5 211.5,-403.5 85.5,-403.5"/>
<text text-anchor="middle" x="148.5" y="-410.5" font-family="FreeSans.ttf" font-size="10.00" fill="#000000">AttitudeMahonyFilter.h</text>
</g>
<!-- Node1 -->
<g id="node2" class="node">
<title>Node1</title>
<g id="a_node2"><a xlink:href="AttitudeEstimator_8h.html" target="_top" xlink:title="iDynTree/Estimation\l/AttitudeEstimator.h">
<polygon fill="none" stroke="#000000" points="220,-336.5 220,-366.5 335,-366.5 335,-336.5 220,-336.5"/>
<text text-anchor="start" x="228" y="-354.5" font-family="FreeSans.ttf" font-size="10.00" fill="#000000">iDynTree/Estimation</text>
<text text-anchor="middle" x="277.5" y="-343.5" font-family="FreeSans.ttf" font-size="10.00" fill="#000000">/AttitudeEstimator.h</text>
</a>
</g>
</g>
<!-- Node0&#45;&gt;Node1 -->
<g id="edge1" class="edge">
<title>Node0&#45;&gt;Node1</title>
<path fill="none" stroke="#191970" d="M168.6563,-403.3906C186.8423,-394.7205 214.1441,-381.7046 236.8537,-370.8779"/>
<polygon fill="#191970" stroke="#191970" points="238.4226,-374.0074 245.943,-366.5446 235.4102,-367.6887 238.4226,-374.0074"/>
</g>
<!-- Node24 -->
<g id="node25" class="node">
<title>Node24</title>
<g id="a_node25"><a xlink:href="Direction_8h.html" target="_top" xlink:title="iDynTree/Core/Direction.h">
<polygon fill="none" stroke="#000000" points="4,-224.5 4,-243.5 145,-243.5 145,-224.5 4,-224.5"/>
<text text-anchor="middle" x="74.5" y="-231.5" font-family="FreeSans.ttf" font-size="10.00" fill="#000000">iDynTree/Core/Direction.h</text>
</a>
</g>
</g>
<!-- Node0&#45;&gt;Node24 -->
<g id="edge41" class="edge">
<title>Node0&#45;&gt;Node24</title>
<path fill="none" stroke="#191970" d="M144.5214,-403.3762C132.7768,-374.9669 98.0985,-291.0828 82.3907,-253.0871"/>
<polygon fill="#191970" stroke="#191970" points="85.5533,-251.5756 78.4982,-243.6714 79.0843,-254.25 85.5533,-251.5756"/>
</g>
<!-- Node2 -->
<g id="node3" class="node">
<title>Node2</title>
<g id="a_node3"><a xlink:href="VectorFixSize_8h.html" target="_top" xlink:title="iDynTree/Core/VectorFixSize.h">
<polygon fill="none" stroke="#000000" points="203,-168.5 203,-187.5 364,-187.5 364,-168.5 203,-168.5"/>
<text text-anchor="middle" x="283.5" y="-175.5" font-family="FreeSans.ttf" font-size="10.00" fill="#000000">iDynTree/Core/VectorFixSize.h</text>
</a>
</g>
</g>
<!-- Node1&#45;&gt;Node2 -->
<g id="edge2" class="edge">
<title>Node1&#45;&gt;Node2</title>
<path fill="none" stroke="#191970" d="M254.4852,-336.4262C221.3899,-312.8032 166.996,-265.4694 192.5,-224 201.8801,-208.7479 218.0542,-198.3672 234.189,-191.3894"/>
<polygon fill="#191970" stroke="#191970" points="235.6154,-194.5893 243.6328,-187.6631 233.0461,-188.0778 235.6154,-194.5893"/>
</g>
<!-- Node18 -->
<g id="node19" class="node">
<title>Node18</title>
<g id="a_node19"><a xlink:href="Rotation_8h.html" target="_top" xlink:title="iDynTree/Core/Rotation.h">
<polygon fill="none" stroke="#000000" points="325,-280.5 325,-299.5 462,-299.5 462,-280.5 325,-280.5"/>
<text text-anchor="middle" x="393.5" y="-287.5" font-family="FreeSans.ttf" font-size="10.00" fill="#000000">iDynTree/Core/Rotation.h</text>
</a>
</g>
</g>
<!-- Node1&#45;&gt;Node18 -->
<g id="edge21" class="edge">
<title>Node1&#45;&gt;Node18</title>
<path fill="none" stroke="#191970" d="M305.8768,-336.4554C324.3828,-326.644 348.3888,-313.9167 366.5931,-304.2653"/>
<polygon fill="#191970" stroke="#191970" points="368.3285,-307.3068 375.5241,-299.5303 365.0495,-301.1222 368.3285,-307.3068"/>
</g>
<!-- Node23 -->
<g id="node24" class="node">
<title>Node23</title>
<polygon fill="none" stroke="#bfbfbf" points="761.5,-112.5 761.5,-131.5 821.5,-131.5 821.5,-112.5 761.5,-112.5"/>
<text text-anchor="middle" x="791.5" y="-119.5" font-family="FreeSans.ttf" font-size="10.00" fill="#000000">iostream</text>
</g>
<!-- Node1&#45;&gt;Node23 -->
<g id="edge40" class="edge">
<title>Node1&#45;&gt;Node23</title>
<path fill="none" stroke="#191970" d="M335.1415,-340.8735C406.5947,-326.1334 530.6503,-295.3331 626.5,-244 683.9537,-213.2302 743.5541,-164.1352 772.893,-138.6193"/>
<polygon fill="#191970" stroke="#191970" points="775.4617,-141.0215 780.6655,-131.7927 770.8424,-135.7621 775.4617,-141.0215"/>
</g>
<!-- Node3 -->
<g id="node4" class="node">
<title>Node3</title>
<g id="a_node4"><a xlink:href="Utils_8h.html" target="_top" xlink:title="iDynTree/Core/Utils.h">
<polygon fill="none" stroke="#000000" points="147,-56.5 147,-75.5 266,-75.5 266,-56.5 147,-56.5"/>
<text text-anchor="middle" x="206.5" y="-63.5" font-family="FreeSans.ttf" font-size="10.00" fill="#000000">iDynTree/Core/Utils.h</text>
</a>
</g>
</g>
<!-- Node2&#45;&gt;Node3 -->
<g id="edge3" class="edge">
<title>Node2&#45;&gt;Node3</title>
<path fill="none" stroke="#191970" d="M268.9561,-168.1845C257.4321,-159.7602 241.6359,-146.6793 231.5,-132 221.7216,-117.8385 215.1476,-99.3495 211.2054,-85.5443"/>
<polygon fill="#191970" stroke="#191970" points="214.5304,-84.4267 208.597,-75.6492 207.7616,-86.211 214.5304,-84.4267"/>
</g>
<!-- Node4 -->
<g id="node5" class="node">
<title>Node4</title>
<polygon fill="none" stroke="#bfbfbf" points="0,-.5 0,-19.5 53,-19.5 53,-.5 0,-.5"/>
<text text-anchor="middle" x="26.5" y="-7.5" font-family="FreeSans.ttf" font-size="10.00" fill="#000000">cstddef</text>
</g>
<!-- Node2&#45;&gt;Node4 -->
<g id="edge19" class="edge">
<title>Node2&#45;&gt;Node4</title>
<path fill="none" stroke="#191970" d="M268.9462,-168.4862C226.3737,-140.6567 101.8104,-59.2301 49.7689,-25.2108"/>
<polygon fill="#191970" stroke="#191970" points="51.4981,-22.1597 41.2127,-19.6177 47.6679,-28.0189 51.4981,-22.1597"/>
</g>
<!-- Node6 -->
<g id="node7" class="node">
<title>Node6</title>
<g id="a_node7"><a xlink:href="Span_8h.html" target="_top" xlink:title="iDynTree/Core/Span.h">
<polygon fill="none" stroke="#000000" points="312,-56.5 312,-75.5 433,-75.5 433,-56.5 312,-56.5"/>
<text text-anchor="middle" x="372.5" y="-63.5" font-family="FreeSans.ttf" font-size="10.00" fill="#000000">iDynTree/Core/Span.h</text>
</a>
</g>
</g>
<!-- Node2&#45;&gt;Node6 -->
<g id="edge6" class="edge">
<title>Node2&#45;&gt;Node6</title>
<path fill="none" stroke="#191970" d="M277.2332,-168.2242C269.3548,-154.5678 258.1545,-129.4925 269.5,-112 279.7057,-96.2649 296.6895,-85.8651 313.9521,-79.0109"/>
<polygon fill="#191970" stroke="#191970" points="315.3106,-82.2417 323.5299,-75.5564 312.9355,-75.6569 315.3106,-82.2417"/>
</g>
<!-- Node7 -->
<g id="node8" class="node">
<title>Node7</title>
<polygon fill="none" stroke="#bfbfbf" points="680.5,-.5 680.5,-19.5 732.5,-19.5 732.5,-.5 680.5,-.5"/>
<text text-anchor="middle" x="706.5" y="-7.5" font-family="FreeSans.ttf" font-size="10.00" fill="#000000">cassert</text>
</g>
<!-- Node2&#45;&gt;Node7 -->
<g id="edge18" class="edge">
<title>Node2&#45;&gt;Node7</title>
<path fill="none" stroke="#191970" d="M283.4298,-168.4207C283.8674,-154.0689 286.8816,-127.0666 302.5,-112 304.2411,-110.3204 610.2739,-35.0946 670.2776,-20.1258"/>
<polygon fill="#191970" stroke="#191970" points="671.315,-23.4738 680.1533,-17.6313 669.6006,-16.6869 671.315,-23.4738"/>
</g>
<!-- Node15 -->
<g id="node16" class="node">
<title>Node15</title>
<polygon fill="none" stroke="#bfbfbf" points="311.5,-112.5 311.5,-131.5 355.5,-131.5 355.5,-112.5 311.5,-112.5"/>
<text text-anchor="middle" x="333.5" y="-119.5" font-family="FreeSans.ttf" font-size="10.00" fill="#000000">string</text>
</g>
<!-- Node2&#45;&gt;Node15 -->
<g id="edge16" class="edge">
<title>Node2&#45;&gt;Node15</title>
<path fill="none" stroke="#191970" d="M292.2093,-168.2455C299.3073,-160.2958 309.5084,-148.8706 317.995,-139.3656"/>
<polygon fill="#191970" stroke="#191970" points="320.8411,-141.4331 324.8905,-131.6427 315.6195,-136.771 320.8411,-141.4331"/>
</g>
<!-- Node16 -->
<g id="node17" class="node">
<title>Node16</title>
<polygon fill="none" stroke="#bfbfbf" points="441.5,-112.5 441.5,-131.5 497.5,-131.5 497.5,-112.5 441.5,-112.5"/>
<text text-anchor="middle" x="469.5" y="-119.5" font-family="FreeSans.ttf" font-size="10.00" fill="#000000">sstream</text>
</g>
<!-- Node2&#45;&gt;Node16 -->
<g id="edge17" class="edge">
<title>Node2&#45;&gt;Node16</title>
<path fill="none" stroke="#191970" d="M315.4745,-168.3733C347.7112,-158.6676 397.4625,-143.6887 431.649,-133.396"/>
<polygon fill="#191970" stroke="#191970" points="432.7198,-136.7289 441.2861,-130.4945 430.7017,-130.0261 432.7198,-136.7289"/>
</g>
<!-- Node17 -->
<g id="node18" class="node">
<title>Node17</title>
<polygon fill="none" stroke="#bfbfbf" points="373.5,-112.5 373.5,-131.5 423.5,-131.5 423.5,-112.5 373.5,-112.5"/>
<text text-anchor="middle" x="398.5" y="-119.5" font-family="FreeSans.ttf" font-size="10.00" fill="#000000">cstring</text>
</g>
<!-- Node2&#45;&gt;Node17 -->
<g id="edge20" class="edge">
<title>Node2&#45;&gt;Node17</title>
<path fill="none" stroke="#191970" d="M303.2692,-168.3733C321.6469,-159.4241 349.2312,-145.9917 369.9893,-135.8835"/>
<polygon fill="#191970" stroke="#191970" points="371.5304,-139.026 378.9888,-131.5011 368.4657,-132.7325 371.5304,-139.026"/>
</g>
<!-- Node3&#45;&gt;Node4 -->
<g id="edge4" class="edge">
<title>Node3&#45;&gt;Node4</title>
<path fill="none" stroke="#191970" d="M175.5569,-56.3733C144.3118,-46.6526 96.0646,-31.6423 62.9764,-21.3482"/>
<polygon fill="#191970" stroke="#191970" points="63.8183,-17.9447 53.23,-18.316 61.7388,-24.6287 63.8183,-17.9447"/>
</g>
<!-- Node5 -->
<g id="node6" class="node">
<title>Node5</title>
<polygon fill="none" stroke="#bfbfbf" points="71.5,-.5 71.5,-19.5 151.5,-19.5 151.5,-.5 71.5,-.5"/>
<text text-anchor="middle" x="111.5" y="-7.5" font-family="FreeSans.ttf" font-size="10.00" fill="#000000">CoreExport.h</text>
</g>
<!-- Node3&#45;&gt;Node5 -->
<g id="edge5" class="edge">
<title>Node3&#45;&gt;Node5</title>
<path fill="none" stroke="#191970" d="M189.9523,-56.2455C175.2401,-47.5731 153.5112,-34.7645 136.6495,-24.825"/>
<polygon fill="#191970" stroke="#191970" points="138.2502,-21.7057 127.8581,-19.6427 134.6954,-27.736 138.2502,-21.7057"/>
</g>
<!-- Node6&#45;&gt;Node4 -->
<g id="edge10" class="edge">
<title>Node6&#45;&gt;Node4</title>
<path fill="none" stroke="#191970" d="M311.8067,-59.2457C251.2293,-51.9976 155.3561,-39.1575 63.2025,-19.9248"/>
<polygon fill="#191970" stroke="#191970" points="63.6537,-16.4429 53.1457,-17.797 62.2046,-23.2912 63.6537,-16.4429"/>
</g>
<!-- Node6&#45;&gt;Node7 -->
<g id="edge7" class="edge">
<title>Node6&#45;&gt;Node7</title>
<path fill="none" stroke="#191970" d="M433.0437,-58.9539C491.5446,-51.6342 582.7807,-38.8752 670.3822,-20.0369"/>
<polygon fill="#191970" stroke="#191970" points="671.192,-23.4427 680.2168,-17.8927 669.7007,-16.6034 671.192,-23.4427"/>
</g>
<!-- Node8 -->
<g id="node9" class="node">
<title>Node8</title>
<polygon fill="none" stroke="#bfbfbf" points="450.5,-.5 450.5,-19.5 514.5,-19.5 514.5,-.5 450.5,-.5"/>
<text text-anchor="middle" x="482.5" y="-7.5" font-family="FreeSans.ttf" font-size="10.00" fill="#000000">algorithm</text>
</g>
<!-- Node6&#45;&gt;Node8 -->
<g id="edge8" class="edge">
<title>Node6&#45;&gt;Node8</title>
<path fill="none" stroke="#191970" d="M391.6605,-56.2455C409.0111,-47.4125 434.7901,-34.2887 454.4583,-24.2758"/>
<polygon fill="#191970" stroke="#191970" points="456.2353,-27.2986 463.559,-19.6427 453.0595,-21.0605 456.2353,-27.2986"/>
</g>
<!-- Node9 -->
<g id="node10" class="node">
<title>Node9</title>
<polygon fill="none" stroke="#bfbfbf" points="532.5,-.5 532.5,-19.5 574.5,-19.5 574.5,-.5 532.5,-.5"/>
<text text-anchor="middle" x="553.5" y="-7.5" font-family="FreeSans.ttf" font-size="10.00" fill="#000000">array</text>
</g>
<!-- Node6&#45;&gt;Node9 -->
<g id="edge9" class="edge">
<title>Node6&#45;&gt;Node9</title>
<path fill="none" stroke="#191970" d="M404.6829,-56.4605C433.3315,-47.9102 476.6071,-34.8521 522.6626,-20.2167"/>
<polygon fill="#191970" stroke="#191970" points="523.7529,-23.5427 532.2171,-17.1703 521.6264,-16.8735 523.7529,-23.5427"/>
</g>
<!-- Node10 -->
<g id="node11" class="node">
<title>Node10</title>
<polygon fill="none" stroke="#bfbfbf" points="170,-.5 170,-19.5 223,-19.5 223,-.5 170,-.5"/>
<text text-anchor="middle" x="196.5" y="-7.5" font-family="FreeSans.ttf" font-size="10.00" fill="#000000">iterator</text>
</g>
<!-- Node6&#45;&gt;Node10 -->
<g id="edge11" class="edge">
<title>Node6&#45;&gt;Node10</title>
<path fill="none" stroke="#191970" d="M342.2445,-56.3733C311.8719,-46.7093 265.0683,-31.8172 232.7333,-21.5288"/>
<polygon fill="#191970" stroke="#191970" points="233.7875,-18.1914 223.197,-18.4945 231.665,-24.8618 233.7875,-18.1914"/>
</g>
<!-- Node11 -->
<g id="node12" class="node">
<title>Node11</title>
<polygon fill="none" stroke="#bfbfbf" points="241.5,-.5 241.5,-19.5 285.5,-19.5 285.5,-.5 241.5,-.5"/>
<text text-anchor="middle" x="263.5" y="-7.5" font-family="FreeSans.ttf" font-size="10.00" fill="#000000">limits</text>
</g>
<!-- Node6&#45;&gt;Node11 -->
<g id="edge12" class="edge">
<title>Node6&#45;&gt;Node11</title>
<path fill="none" stroke="#191970" d="M353.5136,-56.2455C336.3208,-47.4125 310.7762,-34.2887 291.2868,-24.2758"/>
<polygon fill="#191970" stroke="#191970" points="292.763,-21.0993 282.2688,-19.6427 289.5641,-27.3257 292.763,-21.0993"/>
</g>
<!-- Node12 -->
<g id="node13" class="node">
<title>Node12</title>
<polygon fill="none" stroke="#bfbfbf" points="304,-.5 304,-19.5 369,-19.5 369,-.5 304,-.5"/>
<text text-anchor="middle" x="336.5" y="-7.5" font-family="FreeSans.ttf" font-size="10.00" fill="#000000">stdexcept</text>
</g>
<!-- Node6&#45;&gt;Node12 -->
<g id="edge13" class="edge">
<title>Node6&#45;&gt;Node12</title>
<path fill="none" stroke="#191970" d="M366.2293,-56.2455C361.2736,-48.5367 354.217,-37.5598 348.2224,-28.2348"/>
<polygon fill="#191970" stroke="#191970" points="351.0506,-26.1618 342.6989,-19.6427 345.1624,-29.9471 351.0506,-26.1618"/>
</g>
<!-- Node13 -->
<g id="node14" class="node">
<title>Node13</title>
<polygon fill="none" stroke="#bfbfbf" points="593,-.5 593,-19.5 662,-19.5 662,-.5 593,-.5"/>
<text text-anchor="middle" x="627.5" y="-7.5" font-family="FreeSans.ttf" font-size="10.00" fill="#000000">type_traits</text>
</g>
<!-- Node6&#45;&gt;Node13 -->
<g id="edge14" class="edge">
<title>Node6&#45;&gt;Node13</title>
<path fill="none" stroke="#191970" d="M416.982,-56.4218C457.6152,-47.6455 519.6213,-34.1861 583.1296,-20.0684"/>
<polygon fill="#191970" stroke="#191970" points="583.9186,-23.4785 592.9193,-17.8895 582.3978,-16.6457 583.9186,-23.4785"/>
</g>
<!-- Node14 -->
<g id="node15" class="node">
<title>Node14</title>
<polygon fill="none" stroke="#bfbfbf" points="387,-.5 387,-19.5 432,-19.5 432,-.5 387,-.5"/>
<text text-anchor="middle" x="409.5" y="-7.5" font-family="FreeSans.ttf" font-size="10.00" fill="#000000">utility</text>
</g>
<!-- Node6&#45;&gt;Node14 -->
<g id="edge15" class="edge">
<title>Node6&#45;&gt;Node14</title>
<path fill="none" stroke="#191970" d="M378.9449,-56.2455C384.0382,-48.5367 391.2908,-37.5598 397.452,-28.2348"/>
<polygon fill="#191970" stroke="#191970" points="400.5365,-29.9155 403.1289,-19.6427 394.6962,-26.0566 400.5365,-29.9155"/>
</g>
<!-- Node18&#45;&gt;Node2 -->
<g id="edge39" class="edge">
<title>Node18&#45;&gt;Node2</title>
<path fill="none" stroke="#191970" d="M393.0895,-280.3742C392.02,-266.4453 388.1871,-240.532 374.5,-224 362.2319,-209.1819 343.9812,-198.6552 327.0379,-191.4467"/>
<polygon fill="#191970" stroke="#191970" points="327.8543,-188.0056 317.2681,-187.5785 325.2774,-194.514 327.8543,-188.0056"/>
</g>
<!-- Node18&#45;&gt;Node15 -->
<g id="edge22" class="edge">
<title>Node18&#45;&gt;Node15</title>
<path fill="none" stroke="#191970" d="M394.5474,-280.07C395.6799,-267.0754 396.9028,-243.645 393.5,-224 388.9894,-197.9592 386.8465,-190.811 373.5,-168 367.3438,-157.4782 358.6293,-147.112 350.9051,-138.8916"/>
<polygon fill="#191970" stroke="#191970" points="353.408,-136.4449 343.9188,-131.7326 348.3982,-141.334 353.408,-136.4449"/>
</g>
<!-- Node19 -->
<g id="node20" class="node">
<title>Node19</title>
<g id="a_node20"><a xlink:href="GeomVector3_8h.html" target="_top" xlink:title="iDynTree/Core/GeomVector3.h">
<polygon fill="none" stroke="#000000" points="202,-224.5 202,-243.5 365,-243.5 365,-224.5 202,-224.5"/>
<text text-anchor="middle" x="283.5" y="-231.5" font-family="FreeSans.ttf" font-size="10.00" fill="#000000">iDynTree/Core/GeomVector3.h</text>
</a>
</g>
</g>
<!-- Node18&#45;&gt;Node19 -->
<g id="edge23" class="edge">
<title>Node18&#45;&gt;Node19</title>
<path fill="none" stroke="#191970" d="M374.3395,-280.2455C356.9889,-271.4125 331.2099,-258.2887 311.5417,-248.2758"/>
<polygon fill="#191970" stroke="#191970" points="312.9405,-245.0605 302.441,-243.6427 309.7647,-251.2986 312.9405,-245.0605"/>
</g>
<!-- Node20 -->
<g id="node21" class="node">
<title>Node20</title>
<g id="a_node21"><a xlink:href="RotationRaw_8h.html" target="_top" xlink:title="iDynTree/Core/RotationRaw.h">
<polygon fill="none" stroke="#000000" points="459.5,-224.5 459.5,-243.5 617.5,-243.5 617.5,-224.5 459.5,-224.5"/>
<text text-anchor="middle" x="538.5" y="-231.5" font-family="FreeSans.ttf" font-size="10.00" fill="#000000">iDynTree/Core/RotationRaw.h</text>
</a>
</g>
</g>
<!-- Node18&#45;&gt;Node20 -->
<g id="edge25" class="edge">
<title>Node18&#45;&gt;Node20</title>
<path fill="none" stroke="#191970" d="M418.4264,-280.3733C442.1202,-271.2226 477.9511,-257.3844 504.3068,-247.2057"/>
<polygon fill="#191970" stroke="#191970" points="505.8314,-250.3689 513.8989,-243.5011 503.3094,-243.8389 505.8314,-250.3689"/>
</g>
<!-- Node19&#45;&gt;Node2 -->
<g id="edge24" class="edge">
<title>Node19&#45;&gt;Node2</title>
<path fill="none" stroke="#191970" d="M283.5,-224.2455C283.5,-216.9382 283.5,-206.6944 283.5,-197.7046"/>
<polygon fill="#191970" stroke="#191970" points="287.0001,-197.6426 283.5,-187.6427 280.0001,-197.6427 287.0001,-197.6426"/>
</g>
<!-- Node20&#45;&gt;Node15 -->
<g id="edge38" class="edge">
<title>Node20&#45;&gt;Node15</title>
<path fill="none" stroke="#191970" d="M526.7455,-224.3194C509.6421,-210.5532 476.5422,-185.0977 445.5,-168 419.5169,-153.6888 388.1468,-141.1776 365.2241,-132.8306"/>
<polygon fill="#191970" stroke="#191970" points="366.242,-129.4776 355.6474,-129.4062 363.8851,-136.0689 366.242,-129.4776"/>
</g>
<!-- Node21 -->
<g id="node22" class="node">
<title>Node21</title>
<g id="a_node22"><a xlink:href="MatrixFixSize_8h.html" target="_top" xlink:title="iDynTree/Core/MatrixFixSize.h">
<polygon fill="none" stroke="#000000" points="498,-168.5 498,-187.5 659,-187.5 659,-168.5 498,-168.5"/>
<text text-anchor="middle" x="578.5" y="-175.5" font-family="FreeSans.ttf" font-size="10.00" fill="#000000">iDynTree/Core/MatrixFixSize.h</text>
</a>
</g>
</g>
<!-- Node20&#45;&gt;Node21 -->
<g id="edge26" class="edge">
<title>Node20&#45;&gt;Node21</title>
<path fill="none" stroke="#191970" d="M545.4675,-224.2455C551.0311,-216.4564 558.978,-205.3308 565.6829,-195.9439"/>
<polygon fill="#191970" stroke="#191970" points="568.648,-197.8144 571.6124,-187.6427 562.9519,-193.7457 568.648,-197.8144"/>
</g>
<!-- Node21&#45;&gt;Node3 -->
<g id="edge27" class="edge">
<title>Node21&#45;&gt;Node3</title>
<path fill="none" stroke="#191970" d="M571.2942,-168.4754C559.5212,-153.6829 534.6349,-125.4884 506.5,-112 486.1174,-102.2282 358.2744,-84.8892 276.1868,-74.5177"/>
<polygon fill="#191970" stroke="#191970" points="276.5239,-71.0326 266.1653,-73.2573 275.6504,-77.9779 276.5239,-71.0326"/>
</g>
<!-- Node21&#45;&gt;Node7 -->
<g id="edge33" class="edge">
<title>Node21&#45;&gt;Node7</title>
<path fill="none" stroke="#191970" d="M624.5968,-168.433C659.677,-160.1076 703.7119,-147.0374 714.5,-132 736.3584,-101.5319 724.2391,-55.0171 714.6275,-29.1118"/>
<polygon fill="#191970" stroke="#191970" points="717.8269,-27.6845 710.893,-19.6738 711.3179,-30.2601 717.8269,-27.6845"/>
</g>
<!-- Node21&#45;&gt;Node15 -->
<g id="edge35" class="edge">
<title>Node21&#45;&gt;Node15</title>
<path fill="none" stroke="#191970" d="M527.1333,-168.462C485.7788,-160.4433 426.0066,-148.092 365.4881,-132.0805"/>
<polygon fill="#191970" stroke="#191970" points="366.3365,-128.6845 355.7715,-129.4795 364.5263,-135.4464 366.3365,-128.6845"/>
</g>
<!-- Node21&#45;&gt;Node16 -->
<g id="edge37" class="edge">
<title>Node21&#45;&gt;Node16</title>
<path fill="none" stroke="#191970" d="M559.5136,-168.2455C542.3208,-159.4125 516.7762,-146.2887 497.2868,-136.2758"/>
<polygon fill="#191970" stroke="#191970" points="498.763,-133.0993 488.2688,-131.6427 495.5641,-139.3257 498.763,-133.0993"/>
</g>
<!-- Node21&#45;&gt;Node17 -->
<g id="edge34" class="edge">
<title>Node21&#45;&gt;Node17</title>
<path fill="none" stroke="#191970" d="M547.5569,-168.3733C515.7653,-158.4825 466.3714,-143.1156 433.2541,-132.8124"/>
<polygon fill="#191970" stroke="#191970" points="434.1247,-129.4178 423.5364,-129.7891 432.0452,-136.1018 434.1247,-129.4178"/>
</g>
<!-- Node22 -->
<g id="node23" class="node">
<title>Node22</title>
<g id="a_node23"><a xlink:href="MatrixView_8h.html" target="_top" xlink:title="iDynTree/Core/MatrixView.h">
<polygon fill="none" stroke="#000000" points="554,-112.5 554,-131.5 705,-131.5 705,-112.5 554,-112.5"/>
<text text-anchor="middle" x="629.5" y="-119.5" font-family="FreeSans.ttf" font-size="10.00" fill="#000000">iDynTree/Core/MatrixView.h</text>
</a>
</g>
</g>
<!-- Node21&#45;&gt;Node22 -->
<g id="edge28" class="edge">
<title>Node21&#45;&gt;Node22</title>
<path fill="none" stroke="#191970" d="M587.3835,-168.2455C594.6966,-160.2155 605.2391,-148.6394 613.9467,-139.0781"/>
<polygon fill="#191970" stroke="#191970" points="616.5727,-141.3928 620.7183,-131.6427 611.3972,-136.6795 616.5727,-141.3928"/>
</g>
<!-- Node21&#45;&gt;Node23 -->
<g id="edge36" class="edge">
<title>Node21&#45;&gt;Node23</title>
<path fill="none" stroke="#191970" d="M615.116,-168.3733C653.0848,-158.3909 712.2708,-142.8302 751.4591,-132.5272"/>
<polygon fill="#191970" stroke="#191970" points="752.4298,-135.891 761.2111,-129.9633 750.6498,-129.1211 752.4298,-135.891"/>
</g>
<!-- Node22&#45;&gt;Node3 -->
<g id="edge32" class="edge">
<title>Node22&#45;&gt;Node3</title>
<path fill="none" stroke="#191970" d="M557.2643,-112.4369C478.6771,-102.0329 353.9112,-85.5154 276.2958,-75.2401"/>
<polygon fill="#191970" stroke="#191970" points="276.5079,-71.7377 266.135,-73.8949 275.5892,-78.6772 276.5079,-71.7377"/>
</g>
<!-- Node22&#45;&gt;Node6 -->
<g id="edge31" class="edge">
<title>Node22&#45;&gt;Node6</title>
<path fill="none" stroke="#191970" d="M585.6121,-112.4369C541.5362,-102.8328 473.5519,-88.0191 426.2642,-77.7152"/>
<polygon fill="#191970" stroke="#191970" points="426.7228,-74.233 416.2068,-75.5237 425.2324,-81.0725 426.7228,-74.233"/>
</g>
<!-- Node22&#45;&gt;Node7 -->
<g id="edge29" class="edge">
<title>Node22&#45;&gt;Node7</title>
<path fill="none" stroke="#191970" d="M636.065,-112.4509C648.9077,-93.7707 677.5399,-52.1238 694.0726,-28.0761"/>
<polygon fill="#191970" stroke="#191970" points="697.1705,-29.7482 699.9516,-19.5249 691.4022,-25.7825 697.1705,-29.7482"/>
</g>
<!-- Node22&#45;&gt;Node13 -->
<g id="edge30" class="edge">
<title>Node22&#45;&gt;Node13</title>
<path fill="none" stroke="#191970" d="M629.3295,-112.4509C629.0033,-94.184 628.2849,-53.9553 627.8517,-29.6976"/>
<polygon fill="#191970" stroke="#191970" points="631.3482,-29.4608 627.6701,-19.5249 624.3493,-29.5858 631.3482,-29.4608"/>
</g>
<!-- Node24&#45;&gt;Node2 -->
<g id="edge43" class="edge">
<title>Node24&#45;&gt;Node2</title>
<path fill="none" stroke="#191970" d="M110.4284,-224.3733C145.7837,-214.9001 199.888,-200.4032 238.1788,-190.1435"/>
<polygon fill="#191970" stroke="#191970" points="239.287,-193.4701 248.0405,-187.5011 237.4753,-186.7086 239.287,-193.4701"/>
</g>
<!-- Node24&#45;&gt;Node3 -->
<g id="edge44" class="edge">
<title>Node24&#45;&gt;Node3</title>
<path fill="none" stroke="#191970" d="M81.9751,-224.4862C103.2929,-197.3545 164.6373,-119.2798 192.469,-83.8576"/>
<polygon fill="#191970" stroke="#191970" points="195.352,-85.8535 198.7781,-75.8279 189.8477,-81.5287 195.352,-85.8535"/>
</g>
<!-- Node24&#45;&gt;Node15 -->
<g id="edge42" class="edge">
<title>Node24&#45;&gt;Node15</title>
<path fill="none" stroke="#191970" d="M89.804,-224.2742C112.0092,-210.4528 154.7494,-184.9308 193.5,-168 229.4132,-152.3089 272.4759,-138.9254 301.2724,-130.7063"/>
<polygon fill="#191970" stroke="#191970" points="302.5165,-133.9923 311.1965,-127.9171 300.6225,-127.2534 302.5165,-133.9923"/>
</g>
</g>
</svg>
