<?xml version="1.0" encoding="UTF-8" standalone="no"?>
<!DOCTYPE svg PUBLIC "-//W3C//DTD SVG 1.1//EN"
 "http://www.w3.org/Graphics/SVG/1.1/DTD/svg11.dtd">
<!-- Generated by graphviz version 2.40.1 (20161225.0304)
 -->
<!-- Title: AttitudeMahonyFilter.cpp Pages: 1 -->
<svg width="1656pt" height="688pt"
 viewBox="0.00 0.00 1655.81 688.00" xmlns="http://www.w3.org/2000/svg" xmlns:xlink="http://www.w3.org/1999/xlink">
<g id="graph0" class="graph" transform="scale(1 1) rotate(0) translate(4 684)">
<title>AttitudeMahonyFilter.cpp</title>
<!-- Node0 -->
<g id="node1" class="node">
<title>Node0</title>
<polygon fill="#bfbfbf" stroke="#000000" points="171.3055,-660.5 171.3055,-679.5 308.3055,-679.5 308.3055,-660.5 171.3055,-660.5"/>
<text text-anchor="middle" x="239.8055" y="-667.5" font-family="FreeSans.ttf" font-size="10.00" fill="#000000">AttitudeMahonyFilter.cpp</text>
</g>
<!-- Node1 -->
<g id="node2" class="node">
<title>Node1</title>
<g id="a_node2"><a xlink:href="AttitudeMahonyFilter_8h.html" target="_top" xlink:title="iDynTree/Estimation\l/AttitudeMahonyFilter.h">
<polygon fill="none" stroke="#000000" points="30.3055,-403.5 30.3055,-433.5 159.3055,-433.5 159.3055,-403.5 30.3055,-403.5"/>
<text text-anchor="start" x="38.3055" y="-421.5" font-family="FreeSans.ttf" font-size="10.00" fill="#000000">iDynTree/Estimation</text>
<text text-anchor="middle" x="94.8055" y="-410.5" font-family="FreeSans.ttf" font-size="10.00" fill="#000000">/AttitudeMahonyFilter.h</text>
</a>
</g>
</g>
<!-- Node0&#45;&gt;Node1 -->
<g id="edge1" class="edge">
<title>Node0&#45;&gt;Node1</title>
<path fill="none" stroke="#191970" d="M214.0246,-660.4722C196.9938,-652.9619 175.3891,-640.9164 161.8055,-624 118.0227,-569.4752 102.4795,-485.4419 97.2627,-443.7508"/>
<polygon fill="#191970" stroke="#191970" points="100.7194,-443.1737 96.0987,-433.6396 93.7654,-443.9743 100.7194,-443.1737"/>
</g>
<!-- Node26 -->
<g id="node27" class="node">
<title>Node26</title>
<g id="a_node27"><a xlink:href="AttitudeEstimatorUtils_8h.html" target="_top" xlink:title="iDynTree/Estimation\l/AttitudeEstimatorUtils.h">
<polygon fill="none" stroke="#000000" points="171.3055,-593.5 171.3055,-623.5 308.3055,-623.5 308.3055,-593.5 171.3055,-593.5"/>
<text text-anchor="start" x="179.3055" y="-611.5" font-family="FreeSans.ttf" font-size="10.00" fill="#000000">iDynTree/Estimation</text>
<text text-anchor="middle" x="239.8055" y="-600.5" font-family="FreeSans.ttf" font-size="10.00" fill="#000000">/AttitudeEstimatorUtils.h</text>
</a>
</g>
</g>
<!-- Node0&#45;&gt;Node26 -->
<g id="edge46" class="edge">
<title>Node0&#45;&gt;Node26</title>
<path fill="none" stroke="#191970" d="M239.8055,-660.3906C239.8055,-653.2234 239.8055,-643.0862 239.8055,-633.671"/>
<polygon fill="#191970" stroke="#191970" points="243.3056,-633.5446 239.8055,-623.5446 236.3056,-633.5446 243.3056,-633.5446"/>
</g>
<!-- Node39 -->
<g id="node40" class="node">
<title>Node39</title>
<polygon fill="none" stroke="#bfbfbf" points="326.8055,-599 326.8055,-618 370.8055,-618 370.8055,-599 326.8055,-599"/>
<text text-anchor="middle" x="348.8055" y="-606" font-family="FreeSans.ttf" font-size="10.00" fill="#000000">ctime</text>
</g>
<!-- Node0&#45;&gt;Node39 -->
<g id="edge86" class="edge">
<title>Node0&#45;&gt;Node39</title>
<path fill="none" stroke="#191970" d="M256.8367,-660.3906C274.5945,-650.3713 302.6385,-634.5483 323.0937,-623.0071"/>
<polygon fill="#191970" stroke="#191970" points="324.9044,-626.0042 331.8938,-618.0419 321.4645,-619.9077 324.9044,-626.0042"/>
</g>
<!-- Node2 -->
<g id="node3" class="node">
<title>Node2</title>
<g id="a_node3"><a xlink:href="AttitudeEstimator_8h.html" target="_top" xlink:title="iDynTree/Estimation\l/AttitudeEstimator.h">
<polygon fill="none" stroke="#000000" points="130.3055,-336.5 130.3055,-366.5 245.3055,-366.5 245.3055,-336.5 130.3055,-336.5"/>
<text text-anchor="start" x="138.3055" y="-354.5" font-family="FreeSans.ttf" font-size="10.00" fill="#000000">iDynTree/Estimation</text>
<text text-anchor="middle" x="187.8055" y="-343.5" font-family="FreeSans.ttf" font-size="10.00" fill="#000000">/AttitudeEstimator.h</text>
</a>
</g>
</g>
<!-- Node1&#45;&gt;Node2 -->
<g id="edge2" class="edge">
<title>Node1&#45;&gt;Node2</title>
<path fill="none" stroke="#191970" d="M115.9086,-403.2967C128.5127,-394.2163 144.7078,-382.5488 158.5354,-372.587"/>
<polygon fill="#191970" stroke="#191970" points="160.718,-375.3284 166.7858,-366.6432 156.6262,-369.6488 160.718,-375.3284"/>
</g>
<!-- Node25 -->
<g id="node26" class="node">
<title>Node25</title>
<g id="a_node26"><a xlink:href="Direction_8h.html" target="_top" xlink:title="iDynTree/Core/Direction.h">
<polygon fill="none" stroke="#000000" points="106.3055,-224.5 106.3055,-243.5 247.3055,-243.5 247.3055,-224.5 106.3055,-224.5"/>
<text text-anchor="middle" x="176.8055" y="-231.5" font-family="FreeSans.ttf" font-size="10.00" fill="#000000">iDynTree/Core/Direction.h</text>
</a>
</g>
</g>
<!-- Node1&#45;&gt;Node25 -->
<g id="edge42" class="edge">
<title>Node1&#45;&gt;Node25</title>
<path fill="none" stroke="#191970" d="M98.636,-403.2755C103.0846,-386.4722 111.072,-358.7868 120.8055,-336 133.831,-305.5063 153.1751,-272.1835 165.3803,-252.1956"/>
<polygon fill="#191970" stroke="#191970" points="168.4588,-253.8718 170.7395,-243.5254 162.5045,-250.1913 168.4588,-253.8718"/>
</g>
<!-- Node3 -->
<g id="node4" class="node">
<title>Node3</title>
<g id="a_node4"><a xlink:href="VectorFixSize_8h.html" target="_top" xlink:title="iDynTree/Core/VectorFixSize.h">
<polygon fill="none" stroke="#000000" points="545.3055,-168.5 545.3055,-187.5 706.3055,-187.5 706.3055,-168.5 545.3055,-168.5"/>
<text text-anchor="middle" x="625.8055" y="-175.5" font-family="FreeSans.ttf" font-size="10.00" fill="#000000">iDynTree/Core/VectorFixSize.h</text>
</a>
</g>
</g>
<!-- Node2&#45;&gt;Node3 -->
<g id="edge3" class="edge">
<title>Node2&#45;&gt;Node3</title>
<path fill="none" stroke="#191970" d="M205.0246,-336.112C236.497,-308.8838 306.472,-252.4149 375.8055,-224 426.3189,-203.2981 486.3878,-191.8623 534.9833,-185.5714"/>
<polygon fill="#191970" stroke="#191970" points="535.6792,-189.0119 545.1713,-184.3056 534.816,-182.0653 535.6792,-189.0119"/>
</g>
<!-- Node19 -->
<g id="node20" class="node">
<title>Node19</title>
<g id="a_node20"><a xlink:href="Rotation_8h.html" target="_top" xlink:title="iDynTree/Core/Rotation.h">
<polygon fill="none" stroke="#000000" points="676.3055,-280.5 676.3055,-299.5 813.3055,-299.5 813.3055,-280.5 676.3055,-280.5"/>
<text text-anchor="middle" x="744.8055" y="-287.5" font-family="FreeSans.ttf" font-size="10.00" fill="#000000">iDynTree/Core/Rotation.h</text>
</a>
</g>
</g>
<!-- Node2&#45;&gt;Node19 -->
<g id="edge22" class="edge">
<title>Node2&#45;&gt;Node19</title>
<path fill="none" stroke="#191970" d="M245.3163,-345.1501C345.5511,-334.0828 552.3754,-311.2468 665.9168,-298.7103"/>
<polygon fill="#191970" stroke="#191970" points="666.3813,-302.1804 675.9368,-297.604 665.613,-295.2227 666.3813,-302.1804"/>
</g>
<!-- Node24 -->
<g id="node25" class="node">
<title>Node24</title>
<polygon fill="none" stroke="#bfbfbf" points="283.8055,-112.5 283.8055,-131.5 343.8055,-131.5 343.8055,-112.5 283.8055,-112.5"/>
<text text-anchor="middle" x="313.8055" y="-119.5" font-family="FreeSans.ttf" font-size="10.00" fill="#000000">iostream</text>
</g>
<!-- Node2&#45;&gt;Node24 -->
<g id="edge41" class="edge">
<title>Node2&#45;&gt;Node24</title>
<path fill="none" stroke="#191970" d="M163.0303,-336.3664C127.7772,-312.8565 70.2029,-265.8992 96.8055,-224 135.7368,-162.6828 222.4019,-137.5669 273.6493,-127.7888"/>
<polygon fill="#191970" stroke="#191970" points="274.4871,-131.1944 283.7096,-125.9795 273.2479,-124.3049 274.4871,-131.1944"/>
</g>
<!-- Node4 -->
<g id="node5" class="node">
<title>Node4</title>
<g id="a_node5"><a xlink:href="Utils_8h.html" target="_top" xlink:title="iDynTree/Core/Utils.h">
<polygon fill="none" stroke="#000000" points="500.3055,-56.5 500.3055,-75.5 619.3055,-75.5 619.3055,-56.5 500.3055,-56.5"/>
<text text-anchor="middle" x="559.8055" y="-63.5" font-family="FreeSans.ttf" font-size="10.00" fill="#000000">iDynTree/Core/Utils.h</text>
</a>
</g>
</g>
<!-- Node3&#45;&gt;Node4 -->
<g id="edge4" class="edge">
<title>Node3&#45;&gt;Node4</title>
<path fill="none" stroke="#191970" d="M620.1783,-168.4509C609.219,-149.8533 584.8453,-108.4919 570.6462,-84.3964"/>
<polygon fill="#191970" stroke="#191970" points="573.5107,-82.3633 565.4183,-75.5249 567.4799,-85.9172 573.5107,-82.3633"/>
</g>
<!-- Node5 -->
<g id="node6" class="node">
<title>Node5</title>
<polygon fill="none" stroke="#bfbfbf" points="823.3055,-.5 823.3055,-19.5 876.3055,-19.5 876.3055,-.5 823.3055,-.5"/>
<text text-anchor="middle" x="849.8055" y="-7.5" font-family="FreeSans.ttf" font-size="10.00" fill="#000000">cstddef</text>
</g>
<!-- Node3&#45;&gt;Node5 -->
<g id="edge20" class="edge">
<title>Node3&#45;&gt;Node5</title>
<path fill="none" stroke="#191970" d="M626.5072,-168.4249C628.7223,-145.424 637.6116,-86.697 671.8055,-56 692.4631,-37.4549 767.2318,-22.8737 813.0375,-15.4319"/>
<polygon fill="#191970" stroke="#191970" points="813.8467,-18.8474 823.1751,-13.8243 812.7504,-11.9338 813.8467,-18.8474"/>
</g>
<!-- Node7 -->
<g id="node8" class="node">
<title>Node7</title>
<g id="a_node8"><a xlink:href="Span_8h.html" target="_top" xlink:title="iDynTree/Core/Span.h">
<polygon fill="none" stroke="#000000" points="1254.3055,-56.5 1254.3055,-75.5 1375.3055,-75.5 1375.3055,-56.5 1254.3055,-56.5"/>
<text text-anchor="middle" x="1314.8055" y="-63.5" font-family="FreeSans.ttf" font-size="10.00" fill="#000000">iDynTree/Core/Span.h</text>
</a>
</g>
</g>
<!-- Node3&#45;&gt;Node7 -->
<g id="edge7" class="edge">
<title>Node3&#45;&gt;Node7</title>
<path fill="none" stroke="#191970" d="M657.7772,-168.4973C688.7517,-159.265 737.0382,-144.8045 778.8055,-132 807.2976,-123.2652 813.5986,-117.9211 842.8055,-112 983.3849,-83.5005 1151.2251,-72.4869 1244.1141,-68.3586"/>
<polygon fill="#191970" stroke="#191970" points="1244.399,-71.8497 1254.2392,-67.9228 1244.0979,-64.8561 1244.399,-71.8497"/>
</g>
<!-- Node8 -->
<g id="node9" class="node">
<title>Node8</title>
<polygon fill="none" stroke="#bfbfbf" points="1085.8055,-.5 1085.8055,-19.5 1137.8055,-19.5 1137.8055,-.5 1085.8055,-.5"/>
<text text-anchor="middle" x="1111.8055" y="-7.5" font-family="FreeSans.ttf" font-size="10.00" fill="#000000">cassert</text>
</g>
<!-- Node3&#45;&gt;Node8 -->
<g id="edge19" class="edge">
<title>Node3&#45;&gt;Node8</title>
<path fill="none" stroke="#191970" d="M634.5257,-168.3421C648.1174,-153.8877 675.817,-126.7532 704.8055,-112 831.6546,-47.4421 1001.9647,-22.0118 1075.498,-13.589"/>
<polygon fill="#191970" stroke="#191970" points="1076.0743,-17.0466 1085.6283,-12.467 1075.3037,-10.0892 1076.0743,-17.0466"/>
</g>
<!-- Node16 -->
<g id="node17" class="node">
<title>Node16</title>
<polygon fill="none" stroke="#bfbfbf" points="962.8055,-112.5 962.8055,-131.5 1006.8055,-131.5 1006.8055,-112.5 962.8055,-112.5"/>
<text text-anchor="middle" x="984.8055" y="-119.5" font-family="FreeSans.ttf" font-size="10.00" fill="#000000">string</text>
</g>
<!-- Node3&#45;&gt;Node16 -->
<g id="edge17" class="edge">
<title>Node3&#45;&gt;Node16</title>
<path fill="none" stroke="#191970" d="M687.1119,-168.4369C764.0023,-156.4428 892.9796,-136.3238 952.6852,-127.0104"/>
<polygon fill="#191970" stroke="#191970" points="953.3231,-130.4533 962.6642,-125.4538 952.2442,-123.5369 953.3231,-130.4533"/>
</g>
<!-- Node17 -->
<g id="node18" class="node">
<title>Node17</title>
<polygon fill="none" stroke="#bfbfbf" points="713.8055,-112.5 713.8055,-131.5 769.8055,-131.5 769.8055,-112.5 713.8055,-112.5"/>
<text text-anchor="middle" x="741.8055" y="-119.5" font-family="FreeSans.ttf" font-size="10.00" fill="#000000">sstream</text>
</g>
<!-- Node3&#45;&gt;Node17 -->
<g id="edge18" class="edge">
<title>Node3&#45;&gt;Node17</title>
<path fill="none" stroke="#191970" d="M645.7466,-168.3733C664.2841,-159.4241 692.1083,-145.9917 713.0468,-135.8835"/>
<polygon fill="#191970" stroke="#191970" points="714.6407,-139.0006 722.1246,-131.5011 711.5974,-132.6967 714.6407,-139.0006"/>
</g>
<!-- Node18 -->
<g id="node19" class="node">
<title>Node18</title>
<polygon fill="none" stroke="#bfbfbf" points="851.8055,-112.5 851.8055,-131.5 901.8055,-131.5 901.8055,-112.5 851.8055,-112.5"/>
<text text-anchor="middle" x="876.8055" y="-119.5" font-family="FreeSans.ttf" font-size="10.00" fill="#000000">cstring</text>
</g>
<!-- Node3&#45;&gt;Node18 -->
<g id="edge21" class="edge">
<title>Node3&#45;&gt;Node18</title>
<path fill="none" stroke="#191970" d="M668.6687,-168.4369C717.5105,-157.5399 796.4122,-139.9364 841.7426,-129.8228"/>
<polygon fill="#191970" stroke="#191970" points="842.6966,-133.1961 851.6944,-127.6025 841.1722,-126.3641 842.6966,-133.1961"/>
</g>
<!-- Node4&#45;&gt;Node5 -->
<g id="edge5" class="edge">
<title>Node4&#45;&gt;Node5</title>
<path fill="none" stroke="#191970" d="M609.3287,-56.4369C667.1428,-45.2728 761.4109,-27.0693 813.0751,-17.0928"/>
<polygon fill="#191970" stroke="#191970" points="813.9656,-20.4855 823.1206,-15.1529 812.6383,-13.6125 813.9656,-20.4855"/>
</g>
<!-- Node6 -->
<g id="node7" class="node">
<title>Node6</title>
<polygon fill="none" stroke="#bfbfbf" points="519.8055,-.5 519.8055,-19.5 599.8055,-19.5 599.8055,-.5 519.8055,-.5"/>
<text text-anchor="middle" x="559.8055" y="-7.5" font-family="FreeSans.ttf" font-size="10.00" fill="#000000">CoreExport.h</text>
</g>
<!-- Node4&#45;&gt;Node6 -->
<g id="edge6" class="edge">
<title>Node4&#45;&gt;Node6</title>
<path fill="none" stroke="#191970" d="M559.8055,-56.2455C559.8055,-48.9382 559.8055,-38.6944 559.8055,-29.7046"/>
<polygon fill="#191970" stroke="#191970" points="563.3056,-29.6426 559.8055,-19.6427 556.3056,-29.6427 563.3056,-29.6426"/>
</g>
<!-- Node7&#45;&gt;Node5 -->
<g id="edge11" class="edge">
<title>Node7&#45;&gt;Node5</title>
<path fill="none" stroke="#191970" d="M1254.0148,-58.679C1156.0047,-46.8756 966.0152,-23.9952 886.3516,-14.4013"/>
<polygon fill="#191970" stroke="#191970" points="886.6537,-10.9124 876.3069,-13.1916 885.8166,-17.8622 886.6537,-10.9124"/>
</g>
<!-- Node7&#45;&gt;Node8 -->
<g id="edge8" class="edge">
<title>Node7&#45;&gt;Node8</title>
<path fill="none" stroke="#191970" d="M1279.9355,-56.4187C1246.1466,-47.1289 1193.4559,-32.6275 1147.8055,-20 1147.7078,-19.973 1147.6099,-19.9459 1147.512,-19.9188"/>
<polygon fill="#191970" stroke="#191970" points="1148.7212,-16.6221 1138.1497,-17.3249 1146.8521,-23.3679 1148.7212,-16.6221"/>
</g>
<!-- Node9 -->
<g id="node10" class="node">
<title>Node9</title>
<polygon fill="none" stroke="#bfbfbf" points="1389.8055,-.5 1389.8055,-19.5 1453.8055,-19.5 1453.8055,-.5 1389.8055,-.5"/>
<text text-anchor="middle" x="1421.8055" y="-7.5" font-family="FreeSans.ttf" font-size="10.00" fill="#000000">algorithm</text>
</g>
<!-- Node7&#45;&gt;Node9 -->
<g id="edge9" class="edge">
<title>Node7&#45;&gt;Node9</title>
<path fill="none" stroke="#191970" d="M1333.4434,-56.2455C1350.2441,-47.4527 1375.1689,-34.4079 1394.2673,-24.4125"/>
<polygon fill="#191970" stroke="#191970" points="1396.1441,-27.3807 1403.3811,-19.6427 1392.8982,-21.1787 1396.1441,-27.3807"/>
</g>
<!-- Node10 -->
<g id="node11" class="node">
<title>Node10</title>
<polygon fill="none" stroke="#bfbfbf" points="1471.8055,-.5 1471.8055,-19.5 1513.8055,-19.5 1513.8055,-.5 1471.8055,-.5"/>
<text text-anchor="middle" x="1492.8055" y="-7.5" font-family="FreeSans.ttf" font-size="10.00" fill="#000000">array</text>
</g>
<!-- Node7&#45;&gt;Node10 -->
<g id="edge10" class="edge">
<title>Node7&#45;&gt;Node10</title>
<path fill="none" stroke="#191970" d="M1346.0468,-56.4923C1374.0487,-47.9259 1416.4852,-34.8344 1461.807,-20.2819"/>
<polygon fill="#191970" stroke="#191970" points="1463.0716,-23.5517 1471.5178,-17.1554 1460.9263,-16.8885 1463.0716,-23.5517"/>
</g>
<!-- Node11 -->
<g id="node12" class="node">
<title>Node11</title>
<polygon fill="none" stroke="#bfbfbf" points="1532.3055,-.5 1532.3055,-19.5 1585.3055,-19.5 1585.3055,-.5 1532.3055,-.5"/>
<text text-anchor="middle" x="1558.8055" y="-7.5" font-family="FreeSans.ttf" font-size="10.00" fill="#000000">iterator</text>
</g>
<!-- Node7&#45;&gt;Node11 -->
<g id="edge12" class="edge">
<title>Node7&#45;&gt;Node11</title>
<path fill="none" stroke="#191970" d="M1361.234,-56.4724C1401.3506,-48.0734 1461.0934,-35.1696 1522.2811,-20.0337"/>
<polygon fill="#191970" stroke="#191970" points="1523.2532,-23.3986 1532.111,-17.5857 1521.5616,-16.606 1523.2532,-23.3986"/>
</g>
<!-- Node12 -->
<g id="node13" class="node">
<title>Node12</title>
<polygon fill="none" stroke="#bfbfbf" points="1603.8055,-.5 1603.8055,-19.5 1647.8055,-19.5 1647.8055,-.5 1603.8055,-.5"/>
<text text-anchor="middle" x="1625.8055" y="-7.5" font-family="FreeSans.ttf" font-size="10.00" fill="#000000">limits</text>
</g>
<!-- Node7&#45;&gt;Node12 -->
<g id="edge13" class="edge">
<title>Node7&#45;&gt;Node12</title>
<path fill="none" stroke="#191970" d="M1375.4086,-58.701C1430.2471,-51.4963 1513.3118,-39.093 1593.7707,-19.9768"/>
<polygon fill="#191970" stroke="#191970" points="1594.6681,-23.3608 1603.5678,-17.6122 1593.0257,-16.5562 1594.6681,-23.3608"/>
</g>
<!-- Node13 -->
<g id="node14" class="node">
<title>Node13</title>
<polygon fill="none" stroke="#bfbfbf" points="1243.3055,-.5 1243.3055,-19.5 1308.3055,-19.5 1308.3055,-.5 1243.3055,-.5"/>
<text text-anchor="middle" x="1275.8055" y="-7.5" font-family="FreeSans.ttf" font-size="10.00" fill="#000000">stdexcept</text>
</g>
<!-- Node7&#45;&gt;Node13 -->
<g id="edge14" class="edge">
<title>Node7&#45;&gt;Node13</title>
<path fill="none" stroke="#191970" d="M1308.0122,-56.2455C1302.5876,-48.4564 1294.8394,-37.3308 1288.3021,-27.9439"/>
<polygon fill="#191970" stroke="#191970" points="1291.108,-25.8485 1282.5209,-19.6427 1285.3638,-29.849 1291.108,-25.8485"/>
</g>
<!-- Node14 -->
<g id="node15" class="node">
<title>Node14</title>
<polygon fill="none" stroke="#bfbfbf" points="1156.3055,-.5 1156.3055,-19.5 1225.3055,-19.5 1225.3055,-.5 1156.3055,-.5"/>
<text text-anchor="middle" x="1190.8055" y="-7.5" font-family="FreeSans.ttf" font-size="10.00" fill="#000000">type_traits</text>
</g>
<!-- Node7&#45;&gt;Node14 -->
<g id="edge15" class="edge">
<title>Node7&#45;&gt;Node14</title>
<path fill="none" stroke="#191970" d="M1293.4891,-56.3733C1273.5839,-47.3838 1243.6619,-33.8706 1221.2455,-23.7471"/>
<polygon fill="#191970" stroke="#191970" points="1222.398,-20.4272 1211.8437,-19.5011 1219.5168,-26.8068 1222.398,-20.4272"/>
</g>
<!-- Node15 -->
<g id="node16" class="node">
<title>Node15</title>
<polygon fill="none" stroke="#bfbfbf" points="1326.3055,-.5 1326.3055,-19.5 1371.3055,-19.5 1371.3055,-.5 1326.3055,-.5"/>
<text text-anchor="middle" x="1348.8055" y="-7.5" font-family="FreeSans.ttf" font-size="10.00" fill="#000000">utility</text>
</g>
<!-- Node7&#45;&gt;Node15 -->
<g id="edge16" class="edge">
<title>Node7&#45;&gt;Node15</title>
<path fill="none" stroke="#191970" d="M1320.7278,-56.2455C1325.4082,-48.5367 1332.0727,-37.5598 1337.7343,-28.2348"/>
<polygon fill="#191970" stroke="#191970" points="1340.7529,-30.007 1342.951,-19.6427 1334.7694,-26.3741 1340.7529,-30.007"/>
</g>
<!-- Node19&#45;&gt;Node3 -->
<g id="edge40" class="edge">
<title>Node19&#45;&gt;Node3</title>
<path fill="none" stroke="#191970" d="M734.6596,-280.4509C714.3727,-261.3574 668.5921,-218.2697 643.3435,-194.5063"/>
<polygon fill="#191970" stroke="#191970" points="645.6065,-191.8299 635.9257,-187.5249 640.8089,-196.9273 645.6065,-191.8299"/>
</g>
<!-- Node19&#45;&gt;Node16 -->
<g id="edge23" class="edge">
<title>Node19&#45;&gt;Node16</title>
<path fill="none" stroke="#191970" d="M741.219,-280.0874C736.8962,-266.2685 731.5215,-241.0013 742.8055,-224 767.1757,-187.2818 892.738,-147.854 952.7666,-130.7471"/>
<polygon fill="#191970" stroke="#191970" points="953.818,-134.0873 962.4946,-128.0071 951.9202,-127.3494 953.818,-134.0873"/>
</g>
<!-- Node20 -->
<g id="node21" class="node">
<title>Node20</title>
<g id="a_node21"><a xlink:href="GeomVector3_8h.html" target="_top" xlink:title="iDynTree/Core/GeomVector3.h">
<polygon fill="none" stroke="#000000" points="418.3055,-224.5 418.3055,-243.5 581.3055,-243.5 581.3055,-224.5 418.3055,-224.5"/>
<text text-anchor="middle" x="499.8055" y="-231.5" font-family="FreeSans.ttf" font-size="10.00" fill="#000000">iDynTree/Core/GeomVector3.h</text>
</a>
</g>
</g>
<!-- Node19&#45;&gt;Node20 -->
<g id="edge24" class="edge">
<title>Node19&#45;&gt;Node20</title>
<path fill="none" stroke="#191970" d="M702.9668,-280.4369C661.037,-270.8529 596.4107,-256.0812 551.343,-245.78"/>
<polygon fill="#191970" stroke="#191970" points="552,-242.34 541.4715,-243.5237 550.4402,-249.164 552,-242.34"/>
</g>
<!-- Node21 -->
<g id="node22" class="node">
<title>Node21</title>
<g id="a_node22"><a xlink:href="RotationRaw_8h.html" target="_top" xlink:title="iDynTree/Core/RotationRaw.h">
<polygon fill="none" stroke="#000000" points="925.8055,-224.5 925.8055,-243.5 1083.8055,-243.5 1083.8055,-224.5 925.8055,-224.5"/>
<text text-anchor="middle" x="1004.8055" y="-231.5" font-family="FreeSans.ttf" font-size="10.00" fill="#000000">iDynTree/Core/RotationRaw.h</text>
</a>
</g>
</g>
<!-- Node19&#45;&gt;Node21 -->
<g id="edge26" class="edge">
<title>Node19&#45;&gt;Node21</title>
<path fill="none" stroke="#191970" d="M789.2056,-280.4369C833.8896,-270.8127 902.8624,-255.957 950.7143,-245.6504"/>
<polygon fill="#191970" stroke="#191970" points="951.5496,-249.0508 960.5884,-243.5237 950.0756,-242.2078 951.5496,-249.0508"/>
</g>
<!-- Node20&#45;&gt;Node3 -->
<g id="edge25" class="edge">
<title>Node20&#45;&gt;Node3</title>
<path fill="none" stroke="#191970" d="M521.4656,-224.3733C541.7826,-215.3435 572.3694,-201.7494 595.1805,-191.6111"/>
<polygon fill="#191970" stroke="#191970" points="596.7113,-194.7609 604.4279,-187.5011 593.8683,-188.3642 596.7113,-194.7609"/>
</g>
<!-- Node21&#45;&gt;Node16 -->
<g id="edge39" class="edge">
<title>Node21&#45;&gt;Node16</title>
<path fill="none" stroke="#191970" d="M1002.1607,-224.1901C999.7323,-214.918 996.1633,-200.5907 993.8055,-188 990.9408,-172.7028 988.6008,-155.2494 987.0255,-142.1344"/>
<polygon fill="#191970" stroke="#191970" points="990.4667,-141.4222 985.8441,-131.889 983.5128,-142.2242 990.4667,-141.4222"/>
</g>
<!-- Node22 -->
<g id="node23" class="node">
<title>Node22</title>
<g id="a_node23"><a xlink:href="MatrixFixSize_8h.html" target="_top" xlink:title="iDynTree/Core/MatrixFixSize.h">
<polygon fill="none" stroke="#000000" points="1036.3055,-168.5 1036.3055,-187.5 1197.3055,-187.5 1197.3055,-168.5 1036.3055,-168.5"/>
<text text-anchor="middle" x="1116.8055" y="-175.5" font-family="FreeSans.ttf" font-size="10.00" fill="#000000">iDynTree/Core/MatrixFixSize.h</text>
</a>
</g>
</g>
<!-- Node21&#45;&gt;Node22 -->
<g id="edge27" class="edge">
<title>Node21&#45;&gt;Node22</title>
<path fill="none" stroke="#191970" d="M1024.059,-224.3733C1041.8766,-215.4644 1068.5801,-202.1127 1088.7649,-192.0203"/>
<polygon fill="#191970" stroke="#191970" points="1090.4242,-195.1038 1097.8032,-187.5011 1087.2937,-188.8428 1090.4242,-195.1038"/>
</g>
<!-- Node22&#45;&gt;Node4 -->
<g id="edge28" class="edge">
<title>Node22&#45;&gt;Node4</title>
<path fill="none" stroke="#191970" d="M1105.9552,-168.3218C1088.4233,-153.3189 1052.1451,-124.8413 1015.8055,-112 946.489,-87.5058 739.6472,-74.4051 629.9373,-69.012"/>
<polygon fill="#191970" stroke="#191970" points="629.7886,-65.5008 619.6313,-68.514 629.4507,-72.4926 629.7886,-65.5008"/>
</g>
<!-- Node22&#45;&gt;Node8 -->
<g id="edge34" class="edge">
<title>Node22&#45;&gt;Node8</title>
<path fill="none" stroke="#191970" d="M1116.5223,-168.4862C1115.7319,-141.9293 1113.489,-66.5651 1112.4056,-30.1655"/>
<polygon fill="#191970" stroke="#191970" points="1115.894,-29.7193 1112.098,-19.8279 1108.8971,-29.9276 1115.894,-29.7193"/>
</g>
<!-- Node22&#45;&gt;Node16 -->
<g id="edge36" class="edge">
<title>Node22&#45;&gt;Node16</title>
<path fill="none" stroke="#191970" d="M1094.1139,-168.3733C1072.7344,-159.3032 1040.4998,-145.6279 1016.5692,-135.4755"/>
<polygon fill="#191970" stroke="#191970" points="1017.7737,-132.1846 1007.201,-131.5011 1015.0398,-138.6287 1017.7737,-132.1846"/>
</g>
<!-- Node22&#45;&gt;Node17 -->
<g id="edge38" class="edge">
<title>Node22&#45;&gt;Node17</title>
<path fill="none" stroke="#191970" d="M1052.7668,-168.4369C974.4947,-156.7483 844.5502,-137.3432 780.2605,-127.7426"/>
<polygon fill="#191970" stroke="#191970" points="780.5614,-124.2488 770.1541,-126.2334 779.5275,-131.1721 780.5614,-124.2488"/>
</g>
<!-- Node22&#45;&gt;Node18 -->
<g id="edge35" class="edge">
<title>Node22&#45;&gt;Node18</title>
<path fill="none" stroke="#191970" d="M1075.8207,-168.4369C1029.7135,-157.6785 955.5904,-140.3831 912.0013,-130.2124"/>
<polygon fill="#191970" stroke="#191970" points="912.6705,-126.7746 902.1368,-127.9106 911.0799,-133.5915 912.6705,-126.7746"/>
</g>
<!-- Node23 -->
<g id="node24" class="node">
<title>Node23</title>
<g id="a_node24"><a xlink:href="MatrixView_8h.html" target="_top" xlink:title="iDynTree/Core/MatrixView.h">
<polygon fill="none" stroke="#000000" points="1183.3055,-112.5 1183.3055,-131.5 1334.3055,-131.5 1334.3055,-112.5 1183.3055,-112.5"/>
<text text-anchor="middle" x="1258.8055" y="-119.5" font-family="FreeSans.ttf" font-size="10.00" fill="#000000">iDynTree/Core/MatrixView.h</text>
</a>
</g>
</g>
<!-- Node22&#45;&gt;Node23 -->
<g id="edge29" class="edge">
<title>Node22&#45;&gt;Node23</title>
<path fill="none" stroke="#191970" d="M1141.2161,-168.3733C1164.4197,-159.2226 1199.5093,-145.3844 1225.3197,-135.2057"/>
<polygon fill="#191970" stroke="#191970" points="1226.6947,-138.4258 1234.7133,-131.5011 1224.1265,-131.9139 1226.6947,-138.4258"/>
</g>
<!-- Node22&#45;&gt;Node24 -->
<g id="edge37" class="edge">
<title>Node22&#45;&gt;Node24</title>
<path fill="none" stroke="#191970" d="M1036.1342,-172.3741C866.8919,-160.5714 480.0086,-133.5908 354.1669,-124.8147"/>
<polygon fill="#191970" stroke="#191970" points="354.4026,-121.3228 344.1833,-124.1185 353.9156,-128.3058 354.4026,-121.3228"/>
</g>
<!-- Node23&#45;&gt;Node4 -->
<g id="edge33" class="edge">
<title>Node23&#45;&gt;Node4</title>
<path fill="none" stroke="#191970" d="M1183.0031,-115.9271C1046.5984,-104.9992 761.7279,-82.1769 629.7255,-71.6016"/>
<polygon fill="#191970" stroke="#191970" points="629.9729,-68.1103 619.7253,-70.8004 629.4138,-75.0879 629.9729,-68.1103"/>
</g>
<!-- Node23&#45;&gt;Node7 -->
<g id="edge32" class="edge">
<title>Node23&#45;&gt;Node7</title>
<path fill="none" stroke="#191970" d="M1268.5599,-112.2455C1276.6702,-104.1352 1288.398,-92.4075 1298.0136,-82.7919"/>
<polygon fill="#191970" stroke="#191970" points="1300.5666,-85.1887 1305.1628,-75.6427 1295.6168,-80.2389 1300.5666,-85.1887"/>
</g>
<!-- Node23&#45;&gt;Node8 -->
<g id="edge30" class="edge">
<title>Node23&#45;&gt;Node8</title>
<path fill="none" stroke="#191970" d="M1246.2723,-112.4509C1220.8866,-93.1094 1163.1853,-49.1465 1132.2678,-25.5904"/>
<polygon fill="#191970" stroke="#191970" points="1134.3824,-22.8013 1124.3069,-19.5249 1130.1401,-28.3694 1134.3824,-22.8013"/>
</g>
<!-- Node23&#45;&gt;Node14 -->
<g id="edge31" class="edge">
<title>Node23&#45;&gt;Node14</title>
<path fill="none" stroke="#191970" d="M1253.0078,-112.4509C1241.6662,-93.7707 1216.3806,-52.1238 1201.7803,-28.0761"/>
<polygon fill="#191970" stroke="#191970" points="1204.77,-26.2563 1196.5884,-19.5249 1198.7865,-29.8892 1204.77,-26.2563"/>
</g>
<!-- Node25&#45;&gt;Node3 -->
<g id="edge44" class="edge">
<title>Node25&#45;&gt;Node3</title>
<path fill="none" stroke="#191970" d="M247.4556,-225.1884C326.4816,-215.3322 454.5132,-199.3638 539.4269,-188.7733"/>
<polygon fill="#191970" stroke="#191970" points="540.0724,-192.22 549.5623,-187.5092 539.206,-185.2738 540.0724,-192.22"/>
</g>
<!-- Node25&#45;&gt;Node4 -->
<g id="edge45" class="edge">
<title>Node25&#45;&gt;Node4</title>
<path fill="none" stroke="#191970" d="M181.364,-224.3944C193.1146,-200.7959 226.9041,-139.8762 274.8055,-112 310.3645,-91.3064 417.5297,-78.236 489.8325,-71.522"/>
<polygon fill="#191970" stroke="#191970" points="490.5921,-74.9675 500.2345,-70.5773 489.9589,-67.9962 490.5921,-74.9675"/>
</g>
<!-- Node25&#45;&gt;Node16 -->
<g id="edge43" class="edge">
<title>Node25&#45;&gt;Node16</title>
<path fill="none" stroke="#191970" d="M221.786,-224.4758C289.7347,-210.3789 422.7413,-183.916 536.8055,-168 702.1937,-144.9225 744.9207,-151.185 910.8055,-132 924.3879,-130.4292 939.339,-128.4553 952.2257,-126.6772"/>
<polygon fill="#191970" stroke="#191970" points="953.0703,-130.0932 962.4896,-125.2427 952.1013,-123.1606 953.0703,-130.0932"/>
</g>
<!-- Node26&#45;&gt;Node2 -->
<g id="edge47" class="edge">
<title>Node26&#45;&gt;Node2</title>
<path fill="none" stroke="#191970" d="M227.2853,-593.2871C219.9926,-583.5341 211.3613,-570.2561 206.8055,-557 185.4635,-494.9009 184.9412,-416.3945 186.367,-376.7989"/>
<polygon fill="#191970" stroke="#191970" points="189.8679,-376.8512 186.8051,-366.7087 182.8745,-376.5475 189.8679,-376.8512"/>
</g>
<!-- Node27 -->
<g id="node28" class="node">
<title>Node27</title>
<g id="a_node28"><a xlink:href="EigenHelpers_8h.html" target="_top" xlink:title="iDynTree/Core/EigenHelpers.h">
<polygon fill="none" stroke="#000000" points="981.3055,-537.5 981.3055,-556.5 1142.3055,-556.5 1142.3055,-537.5 981.3055,-537.5"/>
<text text-anchor="middle" x="1061.8055" y="-544.5" font-family="FreeSans.ttf" font-size="10.00" fill="#000000">iDynTree/Core/EigenHelpers.h</text>
</a>
</g>
</g>
<!-- Node26&#45;&gt;Node27 -->
<g id="edge48" class="edge">
<title>Node26&#45;&gt;Node27</title>
<path fill="none" stroke="#191970" d="M308.6262,-594.3028C311.7227,-593.8286 314.7933,-593.3906 317.8055,-593 551.9397,-562.6385 830.2089,-552.1893 970.804,-548.691"/>
<polygon fill="#191970" stroke="#191970" points="971.1855,-552.1829 981.0977,-548.4413 971.0157,-545.185 971.1855,-552.1829"/>
</g>
<!-- Node37 -->
<g id="node38" class="node">
<title>Node37</title>
<polygon fill="none" stroke="#bfbfbf" points="216.3055,-537.5 216.3055,-556.5 263.3055,-556.5 263.3055,-537.5 216.3055,-537.5"/>
<text text-anchor="middle" x="239.8055" y="-544.5" font-family="FreeSans.ttf" font-size="10.00" fill="#000000">cmath</text>
</g>
<!-- Node26&#45;&gt;Node37 -->
<g id="edge84" class="edge">
<title>Node26&#45;&gt;Node37</title>
<path fill="none" stroke="#191970" d="M239.8055,-593.2977C239.8055,-585.3834 239.8055,-575.6043 239.8055,-567.0759"/>
<polygon fill="#191970" stroke="#191970" points="243.3056,-566.8469 239.8055,-556.8469 236.3056,-566.847 243.3056,-566.8469"/>
</g>
<!-- Node38 -->
<g id="node39" class="node">
<title>Node38</title>
<polygon fill="none" stroke="#bfbfbf" points="281.3055,-537.5 281.3055,-556.5 328.3055,-556.5 328.3055,-537.5 281.3055,-537.5"/>
<text text-anchor="middle" x="304.8055" y="-544.5" font-family="FreeSans.ttf" font-size="10.00" fill="#000000">vector</text>
</g>
<!-- Node26&#45;&gt;Node38 -->
<g id="edge85" class="edge">
<title>Node26&#45;&gt;Node38</title>
<path fill="none" stroke="#191970" d="M255.8729,-593.2977C265.2715,-584.4052 277.1582,-573.1586 286.8624,-563.9769"/>
<polygon fill="#191970" stroke="#191970" points="289.5397,-566.2621 294.3981,-556.8469 284.7287,-561.1774 289.5397,-566.2621"/>
</g>
<!-- Node27&#45;&gt;Node3 -->
<g id="edge54" class="edge">
<title>Node27&#45;&gt;Node3</title>
<path fill="none" stroke="#191970" d="M980.9993,-538.5328C860.5177,-523.6327 647.8055,-487.5489 647.8055,-418.5 647.8055,-418.5 647.8055,-418.5 647.8055,-290 647.8055,-257.1132 638.5595,-219.7958 632.0555,-197.6138"/>
<polygon fill="#191970" stroke="#191970" points="635.3159,-196.3059 629.0516,-187.7614 628.6202,-198.3474 635.3159,-196.3059"/>
</g>
<!-- Node27&#45;&gt;Node4 -->
<g id="edge83" class="edge">
<title>Node27&#45;&gt;Node4</title>
<path fill="none" stroke="#191970" d="M981.1457,-544.279C809.2138,-538.1503 411.4676,-522.1338 277.8055,-501 161.2139,-482.5653 103.0674,-518.6546 20.8055,-434 -5.4164,-407.0154 1.8055,-389.1265 1.8055,-351.5 1.8055,-351.5 1.8055,-351.5 1.8055,-178 1.8055,-111.6124 72.0561,-130.5292 135.8055,-112 200.4209,-93.219 387.0168,-77.9187 489.8111,-70.6238"/>
<polygon fill="#191970" stroke="#191970" points="490.3673,-74.0934 500.0972,-69.9007 489.8763,-67.1106 490.3673,-74.0934"/>
</g>
<!-- Node27&#45;&gt;Node5 -->
<g id="edge49" class="edge">
<title>Node27&#45;&gt;Node5</title>
<path fill="none" stroke="#191970" d="M1090.2608,-537.4785C1131.0813,-522.2986 1205.6446,-488.6243 1244.8055,-434 1266.7286,-403.4201 1263.8055,-389.1265 1263.8055,-351.5 1263.8055,-351.5 1263.8055,-351.5 1263.8055,-234 1263.8055,-200.5868 1252.6219,-190.3738 1227.8055,-168 1174.4403,-119.8874 969.8708,-49.3064 885.9986,-21.6883"/>
<polygon fill="#191970" stroke="#191970" points="886.9796,-18.3267 876.3868,-18.5376 884.7991,-24.9785 886.9796,-18.3267"/>
</g>
<!-- Node27&#45;&gt;Node22 -->
<g id="edge58" class="edge">
<title>Node27&#45;&gt;Node22</title>
<path fill="none" stroke="#191970" d="M1062.9504,-537.2016C1065.7059,-513.8964 1073.055,-453.3446 1080.8055,-403 1091.7233,-332.0814 1098.2623,-314.9752 1108.8055,-244 1111.0878,-228.6353 1113.1814,-211.1854 1114.6539,-198.0888"/>
<polygon fill="#191970" stroke="#191970" points="1118.1644,-198.1846 1115.7772,-187.8622 1111.2062,-197.4202 1118.1644,-198.1846"/>
</g>
<!-- Node28 -->
<g id="node29" class="node">
<title>Node28</title>
<polygon fill="none" stroke="#bfbfbf" points="1280.3055,-476 1280.3055,-495 1357.3055,-495 1357.3055,-476 1280.3055,-476"/>
<text text-anchor="middle" x="1318.8055" y="-483" font-family="FreeSans.ttf" font-size="10.00" fill="#000000">Eigen/Dense</text>
</g>
<!-- Node27&#45;&gt;Node28 -->
<g id="edge50" class="edge">
<title>Node27&#45;&gt;Node28</title>
<path fill="none" stroke="#191970" d="M1107.78,-537.4949C1149.2562,-528.7155 1211.8521,-514.9577 1265.8055,-501 1269.663,-500.0021 1273.665,-498.9196 1277.6628,-497.8064"/>
<polygon fill="#191970" stroke="#191970" points="1278.8462,-501.1087 1287.5072,-495.0064 1276.9312,-494.3757 1278.8462,-501.1087"/>
</g>
<!-- Node29 -->
<g id="node30" class="node">
<title>Node29</title>
<g id="a_node30"><a xlink:href="VectorDynSize_8h.html" target="_top" xlink:title="iDynTree/Core/VectorDynSize.h">
<polygon fill="none" stroke="#000000" points="1476.3055,-168.5 1476.3055,-187.5 1643.3055,-187.5 1643.3055,-168.5 1476.3055,-168.5"/>
<text text-anchor="middle" x="1559.8055" y="-175.5" font-family="FreeSans.ttf" font-size="10.00" fill="#000000">iDynTree/Core/VectorDynSize.h</text>
</a>
</g>
</g>
<!-- Node27&#45;&gt;Node29 -->
<g id="edge51" class="edge">
<title>Node27&#45;&gt;Node29</title>
<path fill="none" stroke="#191970" d="M1142.4404,-540.6573C1224.8549,-533.2956 1346.6885,-519.7255 1389.8055,-501 1443.2854,-477.774 1491.8055,-476.8057 1491.8055,-418.5 1491.8055,-418.5 1491.8055,-418.5 1491.8055,-290 1491.8055,-251.6435 1521.3062,-215.2254 1541.4457,-194.8326"/>
<polygon fill="#191970" stroke="#191970" points="1544.1585,-197.0762 1548.8801,-187.5917 1539.2744,-192.0616 1544.1585,-197.0762"/>
</g>
<!-- Node30 -->
<g id="node31" class="node">
<title>Node30</title>
<g id="a_node31"><a xlink:href="MatrixDynSize_8h.html" target="_top" xlink:title="iDynTree/Core/MatrixDynSize.h">
<polygon fill="none" stroke="#000000" points="1291.3055,-168.5 1291.3055,-187.5 1458.3055,-187.5 1458.3055,-168.5 1291.3055,-168.5"/>
<text text-anchor="middle" x="1374.8055" y="-175.5" font-family="FreeSans.ttf" font-size="10.00" fill="#000000">iDynTree/Core/MatrixDynSize.h</text>
</a>
</g>
</g>
<!-- Node27&#45;&gt;Node30 -->
<g id="edge55" class="edge">
<title>Node27&#45;&gt;Node30</title>
<path fill="none" stroke="#191970" d="M1142.3447,-539.5404C1227.0973,-530.9592 1350.5005,-516.1005 1366.8055,-501 1394.4115,-475.4332 1385.8055,-456.1265 1385.8055,-418.5 1385.8055,-418.5 1385.8055,-418.5 1385.8055,-290 1385.8055,-257.5562 1381.1772,-220.078 1377.925,-197.7472"/>
<polygon fill="#191970" stroke="#191970" points="1381.3397,-196.9203 1376.3815,-187.5573 1374.4187,-197.9687 1381.3397,-196.9203"/>
</g>
<!-- Node31 -->
<g id="node32" class="node">
<title>Node31</title>
<g id="a_node32"><a xlink:href="SpatialMotionVector_8h.html" target="_top" xlink:title="iDynTree/Core/SpatialMotion\lVector.h">
<polygon fill="none" stroke="#000000" points="287.3055,-470.5 287.3055,-500.5 442.3055,-500.5 442.3055,-470.5 287.3055,-470.5"/>
<text text-anchor="start" x="295.3055" y="-488.5" font-family="FreeSans.ttf" font-size="10.00" fill="#000000">iDynTree/Core/SpatialMotion</text>
<text text-anchor="middle" x="364.8055" y="-477.5" font-family="FreeSans.ttf" font-size="10.00" fill="#000000">Vector.h</text>
</a>
</g>
</g>
<!-- Node27&#45;&gt;Node31 -->
<g id="edge59" class="edge">
<title>Node27&#45;&gt;Node31</title>
<path fill="none" stroke="#191970" d="M981.1914,-542.8679C865.9821,-536.4952 647.7122,-522.6872 462.8055,-501 459.5122,-500.6137 456.16,-500.1979 452.7765,-499.7592"/>
<polygon fill="#191970" stroke="#191970" points="452.9375,-496.2493 442.5593,-498.3808 452.0015,-503.1864 452.9375,-496.2493"/>
</g>
<!-- Node35 -->
<g id="node36" class="node">
<title>Node35</title>
<g id="a_node36"><a xlink:href="SpatialForceVector_8h.html" target="_top" xlink:title="iDynTree/Core/SpatialForce\lVector.h">
<polygon fill="none" stroke="#000000" points="471.8055,-470.5 471.8055,-500.5 619.8055,-500.5 619.8055,-470.5 471.8055,-470.5"/>
<text text-anchor="start" x="479.8055" y="-488.5" font-family="FreeSans.ttf" font-size="10.00" fill="#000000">iDynTree/Core/SpatialForce</text>
<text text-anchor="middle" x="545.8055" y="-477.5" font-family="FreeSans.ttf" font-size="10.00" fill="#000000">Vector.h</text>
</a>
</g>
</g>
<!-- Node27&#45;&gt;Node35 -->
<g id="edge74" class="edge">
<title>Node27&#45;&gt;Node35</title>
<path fill="none" stroke="#191970" d="M981.1439,-539.9623C894.9532,-532.0613 754.4172,-518.0838 633.8055,-501 632.6919,-500.8423 631.5708,-500.681 630.4435,-500.5166"/>
<polygon fill="#191970" stroke="#191970" points="630.5781,-496.9972 620.1667,-498.9601 629.5297,-503.9182 630.5781,-496.9972"/>
</g>
<!-- Node36 -->
<g id="node37" class="node">
<title>Node36</title>
<g id="a_node37"><a xlink:href="Transform_8h.html" target="_top" xlink:title="iDynTree/Core/Transform.h">
<polygon fill="none" stroke="#000000" points="1089.8055,-409 1089.8055,-428 1235.8055,-428 1235.8055,-409 1089.8055,-409"/>
<text text-anchor="middle" x="1162.8055" y="-416" font-family="FreeSans.ttf" font-size="10.00" fill="#000000">iDynTree/Core/Transform.h</text>
</a>
</g>
</g>
<!-- Node27&#45;&gt;Node36 -->
<g id="edge78" class="edge">
<title>Node27&#45;&gt;Node36</title>
<path fill="none" stroke="#191970" d="M1069.3969,-537.3416C1086.2866,-515.8533 1127.183,-463.8216 1148.8292,-436.2817"/>
<polygon fill="#191970" stroke="#191970" points="1151.6981,-438.2955 1155.126,-428.2705 1146.1946,-433.9697 1151.6981,-438.2955"/>
</g>
<!-- Node29&#45;&gt;Node7 -->
<g id="edge52" class="edge">
<title>Node29&#45;&gt;Node7</title>
<path fill="none" stroke="#191970" d="M1538.9169,-168.4509C1495.5225,-148.6135 1395.4714,-102.8758 1345.0353,-79.8194"/>
<polygon fill="#191970" stroke="#191970" points="1346.1911,-76.4994 1335.6412,-75.5249 1343.2807,-82.8657 1346.1911,-76.4994"/>
</g>
<!-- Node29&#45;&gt;Node16 -->
<g id="edge53" class="edge">
<title>Node29&#45;&gt;Node16</title>
<path fill="none" stroke="#191970" d="M1476.0736,-168.8509C1473.2847,-168.5614 1470.5226,-168.2771 1467.8055,-168 1298.1319,-150.6997 1094.7102,-131.99 1017.066,-124.9228"/>
<polygon fill="#191970" stroke="#191970" points="1017.2373,-121.424 1006.9614,-124.0042 1016.6034,-128.3953 1017.2373,-121.424"/>
</g>
<!-- Node30&#45;&gt;Node16 -->
<g id="edge56" class="edge">
<title>Node30&#45;&gt;Node16</title>
<path fill="none" stroke="#191970" d="M1308.2052,-168.4369C1223.6796,-156.2999 1081.2126,-135.8431 1017.4125,-126.682"/>
<polygon fill="#191970" stroke="#191970" points="1017.552,-123.1662 1007.156,-125.2093 1016.557,-130.0952 1017.552,-123.1662"/>
</g>
<!-- Node30&#45;&gt;Node23 -->
<g id="edge57" class="edge">
<title>Node30&#45;&gt;Node23</title>
<path fill="none" stroke="#191970" d="M1354.8644,-168.3733C1336.3268,-159.4241 1308.5026,-145.9917 1287.5641,-135.8835"/>
<polygon fill="#191970" stroke="#191970" points="1289.0135,-132.6967 1278.4864,-131.5011 1285.9702,-139.0006 1289.0135,-132.6967"/>
</g>
<!-- Node31&#45;&gt;Node3 -->
<g id="edge60" class="edge">
<title>Node31&#45;&gt;Node3</title>
<path fill="none" stroke="#191970" d="M361.8884,-470.3133C354.1955,-425.2095 338.4931,-291.0236 408.8055,-224 427.164,-206.5002 484.0786,-194.8307 535.0129,-187.6246"/>
<polygon fill="#191970" stroke="#191970" points="535.6741,-191.0669 545.1069,-186.2425 534.7245,-184.1316 535.6741,-191.0669"/>
</g>
<!-- Node31&#45;&gt;Node20 -->
<g id="edge61" class="edge">
<title>Node31&#45;&gt;Node20</title>
<path fill="none" stroke="#191970" d="M363.869,-470.3355C363.3593,-453.3448 364.1549,-425.2662 372.8055,-403 397.4673,-339.5211 453.1,-279.2769 481.8502,-250.928"/>
<polygon fill="#191970" stroke="#191970" points="484.4563,-253.2762 489.1983,-243.8018 479.583,-248.2511 484.4563,-253.2762"/>
</g>
<!-- Node32 -->
<g id="node33" class="node">
<title>Node32</title>
<g id="a_node33"><a xlink:href="SpatialVector_8h.html" target="_top" xlink:title="iDynTree/Core/SpatialVector.h">
<polygon fill="none" stroke="#000000" points="382.3055,-409 382.3055,-428 543.3055,-428 543.3055,-409 382.3055,-409"/>
<text text-anchor="middle" x="462.8055" y="-416" font-family="FreeSans.ttf" font-size="10.00" fill="#000000">iDynTree/Core/SpatialVector.h</text>
</a>
</g>
</g>
<!-- Node31&#45;&gt;Node32 -->
<g id="edge62" class="edge">
<title>Node31&#45;&gt;Node32</title>
<path fill="none" stroke="#191970" d="M387.0432,-470.2967C403.0532,-459.351 424.5618,-444.6462 440.5711,-433.701"/>
<polygon fill="#191970" stroke="#191970" points="442.5497,-436.5881 448.8295,-428.055 438.599,-430.8095 442.5497,-436.5881"/>
</g>
<!-- Node32&#45;&gt;Node4 -->
<g id="edge70" class="edge">
<title>Node32&#45;&gt;Node4</title>
<path fill="none" stroke="#191970" d="M381.9276,-411.961C295.6936,-404.0009 165.5095,-388.8584 120.8055,-367 76.1835,-345.1817 39.8055,-339.6705 39.8055,-290 39.8055,-290 39.8055,-290 39.8055,-178 39.8055,-132.5028 347.9519,-90.6829 489.8236,-73.8399"/>
<polygon fill="#191970" stroke="#191970" points="490.6331,-77.2689 500.1549,-72.6227 489.814,-70.3169 490.6331,-77.2689"/>
</g>
<!-- Node32&#45;&gt;Node17 -->
<g id="edge73" class="edge">
<title>Node32&#45;&gt;Node17</title>
<path fill="none" stroke="#191970" d="M454.9643,-408.7483C431.8596,-378.7599 368.1404,-286.1775 408.8055,-224 441.5867,-173.8769 623.0472,-140.2473 703.4454,-127.6001"/>
<polygon fill="#191970" stroke="#191970" points="704.2929,-131.0107 713.6408,-126.0239 703.2234,-124.0929 704.2929,-131.0107"/>
</g>
<!-- Node32&#45;&gt;Node19 -->
<g id="edge69" class="edge">
<title>Node32&#45;&gt;Node19</title>
<path fill="none" stroke="#191970" d="M484.0013,-408.8416C533.5253,-386.2748 656.9749,-330.0221 714.4608,-303.8273"/>
<polygon fill="#191970" stroke="#191970" points="716.0999,-306.9267 723.7484,-299.5952 713.1972,-300.5568 716.0999,-306.9267"/>
</g>
<!-- Node32&#45;&gt;Node20 -->
<g id="edge71" class="edge">
<title>Node32&#45;&gt;Node20</title>
<path fill="none" stroke="#191970" d="M464.7427,-408.8402C470.5745,-379.76 488.0465,-292.636 495.9031,-253.459"/>
<polygon fill="#191970" stroke="#191970" points="499.3528,-254.0571 497.8875,-243.5641 492.4894,-252.6807 499.3528,-254.0571"/>
</g>
<!-- Node32&#45;&gt;Node24 -->
<g id="edge72" class="edge">
<title>Node32&#45;&gt;Node24</title>
<path fill="none" stroke="#191970" d="M434.7797,-408.9128C391.618,-392.16 313.8055,-353.1945 313.8055,-290 313.8055,-290 313.8055,-290 313.8055,-234 313.8055,-201.7116 313.8055,-164.1872 313.8055,-141.8048"/>
<polygon fill="#191970" stroke="#191970" points="317.3056,-141.5883 313.8055,-131.5884 310.3056,-141.5884 317.3056,-141.5883"/>
</g>
<!-- Node33 -->
<g id="node34" class="node">
<title>Node33</title>
<g id="a_node34"><a xlink:href="Position_8h.html" target="_top" xlink:title="Position.h">
<polygon fill="none" stroke="#000000" points="809.3055,-342 809.3055,-361 874.3055,-361 874.3055,-342 809.3055,-342"/>
<text text-anchor="middle" x="841.8055" y="-349" font-family="FreeSans.ttf" font-size="10.00" fill="#000000">Position.h</text>
</a>
</g>
</g>
<!-- Node32&#45;&gt;Node33 -->
<g id="edge63" class="edge">
<title>Node32&#45;&gt;Node33</title>
<path fill="none" stroke="#191970" d="M516.7044,-408.9717C592.7097,-395.5354 729.8309,-371.295 799.1781,-359.0357"/>
<polygon fill="#191970" stroke="#191970" points="800.0666,-362.433 809.3046,-357.2455 798.848,-355.5399 800.0666,-362.433"/>
</g>
<!-- Node33&#45;&gt;Node16 -->
<g id="edge68" class="edge">
<title>Node33&#45;&gt;Node16</title>
<path fill="none" stroke="#191970" d="M874.6924,-348.578C930.7733,-341.6209 1043.6057,-318.5939 1092.8055,-244 1121.1154,-201.078 1038.5393,-197.9911 1027.8055,-188 1013.3062,-174.504 1001.4488,-155.1517 993.8853,-140.8905"/>
<polygon fill="#191970" stroke="#191970" points="996.8014,-138.9018 989.1605,-131.5624 990.5568,-142.0648 996.8014,-138.9018"/>
</g>
<!-- Node33&#45;&gt;Node19 -->
<g id="edge67" class="edge">
<title>Node33&#45;&gt;Node19</title>
<path fill="none" stroke="#191970" d="M826.6492,-341.8906C811.1312,-332.0519 786.7862,-316.6167 768.677,-305.1351"/>
<polygon fill="#191970" stroke="#191970" points="770.175,-301.9407 759.8553,-299.5419 766.4267,-307.8526 770.175,-301.9407"/>
</g>
<!-- Node34 -->
<g id="node35" class="node">
<title>Node34</title>
<g id="a_node35"><a xlink:href="PositionRaw_8h.html" target="_top" xlink:title="iDynTree/Core/PositionRaw.h">
<polygon fill="none" stroke="#000000" points="751.8055,-224.5 751.8055,-243.5 907.8055,-243.5 907.8055,-224.5 751.8055,-224.5"/>
<text text-anchor="middle" x="829.8055" y="-231.5" font-family="FreeSans.ttf" font-size="10.00" fill="#000000">iDynTree/Core/PositionRaw.h</text>
</a>
</g>
</g>
<!-- Node33&#45;&gt;Node34 -->
<g id="edge64" class="edge">
<title>Node33&#45;&gt;Node34</title>
<path fill="none" stroke="#191970" d="M840.8235,-341.8845C838.8633,-322.6913 834.4304,-279.286 831.8242,-253.7663"/>
<polygon fill="#191970" stroke="#191970" points="835.299,-253.341 830.801,-243.7484 828.3352,-254.0523 835.299,-253.341"/>
</g>
<!-- Node34&#45;&gt;Node3 -->
<g id="edge65" class="edge">
<title>Node34&#45;&gt;Node3</title>
<path fill="none" stroke="#191970" d="M794.7366,-224.3733C760.374,-214.9404 707.8663,-200.5265 670.5204,-190.2747"/>
<polygon fill="#191970" stroke="#191970" points="670.9865,-186.7732 660.4167,-187.5011 669.1334,-193.5235 670.9865,-186.7732"/>
</g>
<!-- Node34&#45;&gt;Node16 -->
<g id="edge66" class="edge">
<title>Node34&#45;&gt;Node16</title>
<path fill="none" stroke="#191970" d="M843.0207,-224.4509C869.788,-205.1094 930.6295,-161.1465 963.2295,-137.5904"/>
<polygon fill="#191970" stroke="#191970" points="965.5682,-140.2186 971.6237,-131.5249 961.4684,-134.5448 965.5682,-140.2186"/>
</g>
<!-- Node35&#45;&gt;Node3 -->
<g id="edge75" class="edge">
<title>Node35&#45;&gt;Node3</title>
<path fill="none" stroke="#191970" d="M558.7568,-470.145C577.4578,-446.3545 609.8055,-398.4216 609.8055,-351.5 609.8055,-351.5 609.8055,-351.5 609.8055,-290 609.8055,-257.2342 616.5993,-219.6134 621.333,-197.3778"/>
<polygon fill="#191970" stroke="#191970" points="624.7704,-198.0428 623.5131,-187.5228 617.9356,-196.5307 624.7704,-198.0428"/>
</g>
<!-- Node35&#45;&gt;Node20 -->
<g id="edge76" class="edge">
<title>Node35&#45;&gt;Node20</title>
<path fill="none" stroke="#191970" d="M549.2504,-470.222C552.4973,-453.6066 556.3737,-426.3024 552.8055,-403 544.2288,-346.9901 520.5381,-284.0488 507.936,-253.1756"/>
<polygon fill="#191970" stroke="#191970" points="511.0509,-251.5502 503.9838,-243.6567 504.5859,-254.2344 511.0509,-251.5502"/>
</g>
<!-- Node35&#45;&gt;Node32 -->
<g id="edge77" class="edge">
<title>Node35&#45;&gt;Node32</title>
<path fill="none" stroke="#191970" d="M526.9715,-470.2967C513.7886,-459.6551 496.2039,-445.4602 482.7771,-434.6217"/>
<polygon fill="#191970" stroke="#191970" points="484.6218,-431.6128 474.6422,-428.055 480.225,-437.0596 484.6218,-431.6128"/>
</g>
<!-- Node36&#45;&gt;Node16 -->
<g id="edge82" class="edge">
<title>Node36&#45;&gt;Node16</title>
<path fill="none" stroke="#191970" d="M1171.3019,-408.9694C1188.4982,-388.6562 1225.8055,-338.9465 1225.8055,-290 1225.8055,-290 1225.8055,-290 1225.8055,-234 1225.8055,-203.4754 1229.1939,-188.7488 1206.8055,-168 1179.6054,-142.792 1072.1645,-129.7707 1017.3482,-124.6534"/>
<polygon fill="#191970" stroke="#191970" points="1017.3993,-121.144 1007.126,-123.7341 1016.7722,-128.1158 1017.3993,-121.144"/>
</g>
<!-- Node36&#45;&gt;Node19 -->
<g id="edge80" class="edge">
<title>Node36&#45;&gt;Node19</title>
<path fill="none" stroke="#191970" d="M1089.7411,-414.7973C998.3561,-409.0323 848.1275,-395.473 800.8055,-367 778.3238,-353.4731 762.192,-327.1179 753.1788,-309.0431"/>
<polygon fill="#191970" stroke="#191970" points="756.2308,-307.3087 748.8044,-299.7523 749.8977,-310.2906 756.2308,-307.3087"/>
</g>
<!-- Node36&#45;&gt;Node22 -->
<g id="edge81" class="edge">
<title>Node36&#45;&gt;Node22</title>
<path fill="none" stroke="#191970" d="M1165.4476,-408.6715C1172.8362,-379.2212 1191.4252,-289.6789 1163.8055,-224 1158.8076,-212.1153 1149.0741,-201.765 1139.7551,-193.908"/>
<polygon fill="#191970" stroke="#191970" points="1141.8302,-191.0874 1131.8019,-187.6692 1137.5098,-196.5951 1141.8302,-191.0874"/>
</g>
<!-- Node36&#45;&gt;Node33 -->
<g id="edge79" class="edge">
<title>Node36&#45;&gt;Node33</title>
<path fill="none" stroke="#191970" d="M1117.1549,-408.9717C1055.1411,-396.028 945.09,-373.0578 884.5954,-360.4312"/>
<polygon fill="#191970" stroke="#191970" points="885.117,-356.9647 874.6128,-358.3476 883.6867,-363.8171 885.117,-356.9647"/>
</g>
</g>
</svg>
