<?xml version="1.0" encoding="UTF-8" standalone="no"?>
<!DOCTYPE svg PUBLIC "-//W3C//DTD SVG 1.1//EN"
 "http://www.w3.org/Graphics/SVG/1.1/DTD/svg11.dtd">
<!-- Generated by graphviz version 2.40.1 (20161225.0304)
 -->
<!-- Title: BerdyHelper.cpp Pages: 1 -->
<svg width="3406pt" height="766pt"
 viewBox="0.00 0.00 3405.50 766.00" xmlns="http://www.w3.org/2000/svg" xmlns:xlink="http://www.w3.org/1999/xlink">
<g id="graph0" class="graph" transform="scale(1 1) rotate(0) translate(4 762)">
<title>BerdyHelper.cpp</title>
<!-- Node0 -->
<g id="node1" class="node">
<title>Node0</title>
<polygon fill="#bfbfbf" stroke="#000000" points="1220.5,-738.5 1220.5,-757.5 1317.5,-757.5 1317.5,-738.5 1220.5,-738.5"/>
<text text-anchor="middle" x="1269" y="-745.5" font-family="FreeSans.ttf" font-size="10.00" fill="#000000">BerdyHelper.cpp</text>
</g>
<!-- Node1 -->
<g id="node2" class="node">
<title>Node1</title>
<g id="a_node2"><a xlink:href="BerdyHelper_8h.html" target="_top" xlink:title="iDynTree/Estimation\l/BerdyHelper.h">
<polygon fill="none" stroke="#000000" points="1854.5,-604.5 1854.5,-634.5 1969.5,-634.5 1969.5,-604.5 1854.5,-604.5"/>
<text text-anchor="start" x="1862.5" y="-622.5" font-family="FreeSans.ttf" font-size="10.00" fill="#000000">iDynTree/Estimation</text>
<text text-anchor="middle" x="1912" y="-611.5" font-family="FreeSans.ttf" font-size="10.00" fill="#000000">/BerdyHelper.h</text>
</a>
</g>
</g>
<!-- Node0&#45;&gt;Node1 -->
<g id="edge1" class="edge">
<title>Node0&#45;&gt;Node1</title>
<path fill="none" stroke="#191970" d="M1317.5433,-740.8923C1373.3272,-732.517 1467.5417,-717.7362 1548,-702 1651.858,-681.6873 1771.3476,-653.7149 1844.2542,-636.1232"/>
<polygon fill="#191970" stroke="#191970" points="1845.3289,-639.4643 1854.226,-633.7117 1843.6834,-632.6604 1845.3289,-639.4643"/>
</g>
<!-- Node10 -->
<g id="node10" class="node">
<title>Node10</title>
<polygon fill="none" stroke="#bfbfbf" points="344,-.5 344,-19.5 408,-19.5 408,-.5 344,-.5"/>
<text text-anchor="middle" x="376" y="-7.5" font-family="FreeSans.ttf" font-size="10.00" fill="#000000">algorithm</text>
</g>
<!-- Node0&#45;&gt;Node10 -->
<g id="edge160" class="edge">
<title>Node0&#45;&gt;Node10</title>
<path fill="none" stroke="#191970" d="M1220.2224,-747.5211C998.5413,-745.1732 94.6269,-733.6832 44,-702 8.7739,-679.9549 0,-661.0556 0,-619.5 0,-619.5 0,-619.5 0,-122 0,-52.9965 235.5377,-23.0617 333.7695,-13.5778"/>
<polygon fill="#191970" stroke="#191970" points="334.3139,-17.0421 343.9425,-12.6216 333.6588,-10.0729 334.3139,-17.0421"/>
</g>
<!-- Node17 -->
<g id="node12" class="node">
<title>Node17</title>
<polygon fill="none" stroke="#bfbfbf" points="664,-56.5 664,-75.5 720,-75.5 720,-56.5 664,-56.5"/>
<text text-anchor="middle" x="692" y="-63.5" font-family="FreeSans.ttf" font-size="10.00" fill="#000000">sstream</text>
</g>
<!-- Node0&#45;&gt;Node17 -->
<g id="edge159" class="edge">
<title>Node0&#45;&gt;Node17</title>
<path fill="none" stroke="#191970" d="M1220.1457,-747.4972C1002.2461,-745.0786 127.6093,-733.4394 79,-702 44.6194,-679.7634 38,-660.445 38,-619.5 38,-619.5 38,-619.5 38,-368 38,-284.4054 91.7486,-273.6518 159,-224 316.9396,-107.3931 560.3976,-76.3389 653.7582,-68.501"/>
<polygon fill="#191970" stroke="#191970" points="654.1801,-71.9785 663.8702,-67.6946 653.6236,-65.0007 654.1801,-71.9785"/>
</g>
<!-- Node42 -->
<g id="node26" class="node">
<title>Node42</title>
<g id="a_node26"><a xlink:href="Traversal_8h.html" target="_top" xlink:title="iDynTree/Model/Traversal.h">
<polygon fill="none" stroke="#000000" points="2466,-548.5 2466,-567.5 2614,-567.5 2614,-548.5 2466,-548.5"/>
<text text-anchor="middle" x="2540" y="-555.5" font-family="FreeSans.ttf" font-size="10.00" fill="#000000">iDynTree/Model/Traversal.h</text>
</a>
</g>
</g>
<!-- Node0&#45;&gt;Node42 -->
<g id="edge130" class="edge">
<title>Node0&#45;&gt;Node42</title>
<path fill="none" stroke="#191970" d="M1317.5051,-742.3416C1387.1791,-734.1028 1519.5869,-718.0324 1632,-702 1947.8727,-656.9501 2324.1069,-594.4492 2473.8182,-569.2224"/>
<polygon fill="#191970" stroke="#191970" points="2474.4969,-572.6574 2483.7757,-567.5432 2473.3328,-565.7549 2474.4969,-572.6574"/>
</g>
<!-- Node45 -->
<g id="node30" class="node">
<title>Node45</title>
<g id="a_node30"><a xlink:href="Sensors_8h.html" target="_top" xlink:title="iDynTree/Sensors/Sensors.h">
<polygon fill="none" stroke="#000000" points="943.5,-548.5 943.5,-567.5 1094.5,-567.5 1094.5,-548.5 943.5,-548.5"/>
<text text-anchor="middle" x="1019" y="-555.5" font-family="FreeSans.ttf" font-size="10.00" fill="#000000">iDynTree/Sensors/Sensors.h</text>
</a>
</g>
</g>
<!-- Node0&#45;&gt;Node45 -->
<g id="edge131" class="edge">
<title>Node0&#45;&gt;Node45</title>
<path fill="none" stroke="#191970" d="M1250.9476,-738.4185C1217.7973,-720.4141 1145.6993,-679.3312 1092,-635 1069.7418,-616.6248 1047.3832,-591.8975 1033.3854,-575.4775"/>
<polygon fill="#191970" stroke="#191970" points="1035.985,-573.1306 1026.8724,-567.7258 1030.6256,-577.6336 1035.985,-573.1306"/>
</g>
<!-- Node46 -->
<g id="node31" class="node">
<title>Node46</title>
<g id="a_node31"><a xlink:href="Model_8h.html" target="_top" xlink:title="iDynTree/Model/Model.h">
<polygon fill="none" stroke="#000000" points="2238.5,-487 2238.5,-506 2371.5,-506 2371.5,-487 2238.5,-487"/>
<text text-anchor="middle" x="2305" y="-494" font-family="FreeSans.ttf" font-size="10.00" fill="#000000">iDynTree/Model/Model.h</text>
</a>
</g>
</g>
<!-- Node0&#45;&gt;Node46 -->
<g id="edge129" class="edge">
<title>Node0&#45;&gt;Node46</title>
<path fill="none" stroke="#191970" d="M1317.5952,-745.3061C1549.4698,-731.9636 2535.7782,-669.5087 2623,-568 2628.793,-561.2581 2628.7611,-554.7692 2623,-548 2607.5118,-529.8017 2470.9626,-512.9478 2381.9036,-503.7547"/>
<polygon fill="#191970" stroke="#191970" points="2382.1318,-500.2599 2371.828,-502.7263 2381.4209,-507.2237 2382.1318,-500.2599"/>
</g>
<!-- Node56 -->
<g id="node37" class="node">
<title>Node56</title>
<g id="a_node37"><a xlink:href="ClassicalAcc_8h.html" target="_top" xlink:title="iDynTree/Core/ClassicalAcc.h">
<polygon fill="none" stroke="#000000" points="88,-677 88,-696 246,-696 246,-677 88,-677"/>
<text text-anchor="middle" x="167" y="-684" font-family="FreeSans.ttf" font-size="10.00" fill="#000000">iDynTree/Core/ClassicalAcc.h</text>
</a>
</g>
</g>
<!-- Node0&#45;&gt;Node56 -->
<g id="edge102" class="edge">
<title>Node0&#45;&gt;Node56</title>
<path fill="none" stroke="#191970" d="M1220.4251,-746.9089C1078.3295,-743.4568 651.2004,-731.2251 298,-702 282.4603,-700.7142 265.9202,-699.0159 250.011,-697.2156"/>
<polygon fill="#191970" stroke="#191970" points="249.9998,-693.6911 239.6644,-696.021 249.1969,-700.6449 249.9998,-693.6911"/>
</g>
<!-- Node57 -->
<g id="node38" class="node">
<title>Node57</title>
<g id="a_node38"><a xlink:href="EigenHelpers_8h.html" target="_top" xlink:title="iDynTree/Core/EigenHelpers.h">
<polygon fill="none" stroke="#000000" points="231.5,-420 231.5,-439 392.5,-439 392.5,-420 231.5,-420"/>
<text text-anchor="middle" x="312" y="-427" font-family="FreeSans.ttf" font-size="10.00" fill="#000000">iDynTree/Core/EigenHelpers.h</text>
</a>
</g>
</g>
<!-- Node0&#45;&gt;Node57 -->
<g id="edge104" class="edge">
<title>Node0&#45;&gt;Node57</title>
<path fill="none" stroke="#191970" d="M1220.2265,-746.6447C1025.2086,-740.5908 312,-712.1194 312,-619.5 312,-619.5 312,-619.5 312,-558 312,-519.5012 312,-474.5145 312,-449.2812"/>
<polygon fill="#191970" stroke="#191970" points="315.5001,-449.1718 312,-439.1719 308.5001,-449.1719 315.5001,-449.1718"/>
</g>
<!-- Node59 -->
<g id="node41" class="node">
<title>Node59</title>
<g id="a_node41"><a xlink:href="SparseMatrix_8h.html" target="_top" xlink:title="iDynTree/Core/SparseMatrix.h">
<polygon fill="none" stroke="#000000" points="1062.5,-487 1062.5,-506 1223.5,-506 1223.5,-487 1062.5,-487"/>
<text text-anchor="middle" x="1143" y="-494" font-family="FreeSans.ttf" font-size="10.00" fill="#000000">iDynTree/Core/SparseMatrix.h</text>
</a>
</g>
</g>
<!-- Node0&#45;&gt;Node59 -->
<g id="edge117" class="edge">
<title>Node0&#45;&gt;Node59</title>
<path fill="none" stroke="#191970" d="M1269.7771,-738.3032C1271.2891,-714.194 1272.7051,-650.1602 1250,-604 1230.5584,-564.4745 1190.8386,-530.7041 1165.6423,-512.0438"/>
<polygon fill="#191970" stroke="#191970" points="1167.5495,-509.104 1157.3927,-506.089 1163.4525,-514.7798 1167.5495,-509.104"/>
</g>
<!-- Node60 -->
<g id="node42" class="node">
<title>Node60</title>
<g id="a_node42"><a xlink:href="ForwardKinematics_8h.html" target="_top" xlink:title="iDynTree/Model/ForwardKinematics.h">
<polygon fill="none" stroke="#000000" points="3200.5,-548.5 3200.5,-567.5 3397.5,-567.5 3397.5,-548.5 3200.5,-548.5"/>
<text text-anchor="middle" x="3299" y="-555.5" font-family="FreeSans.ttf" font-size="10.00" fill="#000000">iDynTree/Model/ForwardKinematics.h</text>
</a>
</g>
</g>
<!-- Node0&#45;&gt;Node60 -->
<g id="edge122" class="edge">
<title>Node0&#45;&gt;Node60</title>
<path fill="none" stroke="#191970" d="M1317.8325,-747.6063C1531.9595,-745.6915 2389.0683,-736.0116 2656,-702 2886.0782,-672.6841 3155.0357,-599.4809 3256.9739,-570.2948"/>
<polygon fill="#191970" stroke="#191970" points="3257.9508,-573.6559 3266.5943,-567.5288 3256.0165,-566.9284 3257.9508,-573.6559"/>
</g>
<!-- Node61 -->
<g id="node43" class="node">
<title>Node61</title>
<g id="a_node43"><a xlink:href="Dynamics_8h.html" target="_top" xlink:title="iDynTree/Model/Dynamics.h">
<polygon fill="none" stroke="#000000" points="1618,-487 1618,-506 1770,-506 1770,-487 1618,-487"/>
<text text-anchor="middle" x="1694" y="-494" font-family="FreeSans.ttf" font-size="10.00" fill="#000000">iDynTree/Model/Dynamics.h</text>
</a>
</g>
</g>
<!-- Node0&#45;&gt;Node61 -->
<g id="edge124" class="edge">
<title>Node0&#45;&gt;Node61</title>
<path fill="none" stroke="#191970" d="M1285.1415,-738.448C1349.8327,-700.166 1590.6235,-557.6745 1669.0995,-511.2352"/>
<polygon fill="#191970" stroke="#191970" points="1671.0188,-514.1664 1677.8424,-506.0615 1667.4538,-508.1422 1671.0188,-514.1664"/>
</g>
<!-- Node62 -->
<g id="node44" class="node">
<title>Node62</title>
<g id="a_node44"><a xlink:href="AllSensorsTypes_8h.html" target="_top" xlink:title="iDynTree/Sensors/AllSensors\lTypes.h">
<polygon fill="none" stroke="#000000" points="794.5,-671.5 794.5,-701.5 949.5,-701.5 949.5,-671.5 794.5,-671.5"/>
<text text-anchor="start" x="802.5" y="-689.5" font-family="FreeSans.ttf" font-size="10.00" fill="#000000">iDynTree/Sensors/AllSensors</text>
<text text-anchor="middle" x="872" y="-678.5" font-family="FreeSans.ttf" font-size="10.00" fill="#000000">Types.h</text>
</a>
</g>
</g>
<!-- Node0&#45;&gt;Node62 -->
<g id="edge132" class="edge">
<title>Node0&#45;&gt;Node62</title>
<path fill="none" stroke="#191970" d="M1220.32,-740.4589C1155.5897,-730.4314 1040.0421,-712.5317 959.8694,-700.112"/>
<polygon fill="#191970" stroke="#191970" points="960.2013,-696.6218 949.7834,-698.5496 959.1297,-703.5393 960.2013,-696.6218"/>
</g>
<!-- Node68 -->
<g id="node50" class="node">
<title>Node68</title>
<g id="a_node50"><a xlink:href="ExternalWrenchesEstimation_8h.html" target="_top" xlink:title="iDynTree/Estimation\l/ExternalWrenchesEstimation.h">
<polygon fill="none" stroke="#000000" points="1279.5,-481.5 1279.5,-511.5 1448.5,-511.5 1448.5,-481.5 1279.5,-481.5"/>
<text text-anchor="start" x="1287.5" y="-499.5" font-family="FreeSans.ttf" font-size="10.00" fill="#000000">iDynTree/Estimation</text>
<text text-anchor="middle" x="1364" y="-488.5" font-family="FreeSans.ttf" font-size="10.00" fill="#000000">/ExternalWrenchesEstimation.h</text>
</a>
</g>
</g>
<!-- Node0&#45;&gt;Node68 -->
<g id="edge150" class="edge">
<title>Node0&#45;&gt;Node68</title>
<path fill="none" stroke="#191970" d="M1272.6081,-738.448C1286.1402,-702.6235 1334.1442,-575.5392 1354.6273,-521.313"/>
<polygon fill="#191970" stroke="#191970" points="1357.9686,-522.372 1358.2281,-511.7804 1351.4202,-519.8985 1357.9686,-522.372"/>
</g>
<!-- Node2 -->
<g id="node3" class="node">
<title>Node2</title>
<g id="a_node3"><a xlink:href="Direction_8h.html" target="_top" xlink:title="iDynTree/Core/Direction.h">
<polygon fill="none" stroke="#000000" points="1458.5,-168.5 1458.5,-187.5 1599.5,-187.5 1599.5,-168.5 1458.5,-168.5"/>
<text text-anchor="middle" x="1529" y="-175.5" font-family="FreeSans.ttf" font-size="10.00" fill="#000000">iDynTree/Core/Direction.h</text>
</a>
</g>
</g>
<!-- Node1&#45;&gt;Node2 -->
<g id="edge2" class="edge">
<title>Node1&#45;&gt;Node2</title>
<path fill="none" stroke="#191970" d="M1969.6888,-618.7303C2112.0534,-616.2759 2491.3167,-606.3585 2805,-568 2953.5291,-549.8372 3134,-646.1354 3134,-496.5 3134,-496.5 3134,-496.5 3134,-429.5 3134,-410.8475 3114.9258,-407.2296 2791,-358 2666.9556,-339.148 2635.2977,-339.1027 2511,-322 2170.4601,-275.1436 1764.3284,-213.8682 1601.6338,-189.1012"/>
<polygon fill="#191970" stroke="#191970" points="1601.6857,-185.5688 1591.2727,-187.5231 1600.6317,-192.489 1601.6857,-185.5688"/>
</g>
<!-- Node4 -->
<g id="node5" class="node">
<title>Node4</title>
<g id="a_node5"><a xlink:href="VectorFixSize_8h.html" target="_top" xlink:title="iDynTree/Core/VectorFixSize.h">
<polygon fill="none" stroke="#ff0000" points="736.5,-112.5 736.5,-131.5 897.5,-131.5 897.5,-112.5 736.5,-112.5"/>
<text text-anchor="middle" x="817" y="-119.5" font-family="FreeSans.ttf" font-size="10.00" fill="#000000">iDynTree/Core/VectorFixSize.h</text>
</a>
</g>
</g>
<!-- Node1&#45;&gt;Node4 -->
<g id="edge36" class="edge">
<title>Node1&#45;&gt;Node4</title>
<path fill="none" stroke="#191970" d="M1854.4285,-617.5611C1736.9349,-613.0716 1461.2627,-599.814 1232,-568 1170.0109,-559.398 1014.8363,-533.3292 956,-512 869.1172,-480.5035 819.0301,-467.7514 797,-378 794.8811,-369.3674 795.1547,-366.6952 797,-358 800.6347,-340.8723 809.1942,-339.0905 813,-322 827.3725,-257.4585 822.579,-178.2933 819.1783,-141.9565"/>
<polygon fill="#191970" stroke="#191970" points="822.6335,-141.3355 818.1491,-131.7365 815.6688,-142.0369 822.6335,-141.3355"/>
</g>
<!-- Node5 -->
<g id="node6" class="node">
<title>Node5</title>
<g id="a_node6"><a xlink:href="Utils_8h.html" target="_top" xlink:title="iDynTree/Core/Utils.h">
<polygon fill="none" stroke="#ff0000" points="996.5,-56.5 996.5,-75.5 1115.5,-75.5 1115.5,-56.5 996.5,-56.5"/>
<text text-anchor="middle" x="1056" y="-63.5" font-family="FreeSans.ttf" font-size="10.00" fill="#000000">iDynTree/Core/Utils.h</text>
</a>
</g>
</g>
<!-- Node1&#45;&gt;Node5 -->
<g id="edge37" class="edge">
<title>Node1&#45;&gt;Node5</title>
<path fill="none" stroke="#191970" d="M1969.8093,-618.7557C2162.4233,-615.9548 2781.2235,-604.2868 2977,-568 3067.7631,-551.1773 3172,-588.8089 3172,-496.5 3172,-496.5 3172,-496.5 3172,-429.5 3172,-216.9255 1491.8004,-94.5625 1125.8265,-70.4312"/>
<polygon fill="#191970" stroke="#191970" points="1125.8469,-66.9251 1115.6391,-69.7626 1125.3884,-73.9101 1125.8469,-66.9251"/>
</g>
<!-- Node19 -->
<g id="node13" class="node">
<title>Node19</title>
<g id="a_node13"><a xlink:href="Position_8h.html" target="_top" xlink:title="iDynTree/Core/Position.h">
<polygon fill="none" stroke="#000000" points="1732,-297 1732,-316 1868,-316 1868,-297 1732,-297"/>
<text text-anchor="middle" x="1800" y="-304" font-family="FreeSans.ttf" font-size="10.00" fill="#000000">iDynTree/Core/Position.h</text>
</a>
</g>
</g>
<!-- Node1&#45;&gt;Node19 -->
<g id="edge17" class="edge">
<title>Node1&#45;&gt;Node19</title>
<path fill="none" stroke="#191970" d="M1969.5069,-616.5813C2206.6176,-604.1742 3096,-553.8164 3096,-496.5 3096,-496.5 3096,-496.5 3096,-429.5 3096,-368.001 2158.9094,-322.1542 1878.4036,-309.8082"/>
<polygon fill="#191970" stroke="#191970" points="1878.4517,-306.3071 1868.308,-309.3659 1878.1452,-313.3004 1878.4517,-306.3071"/>
</g>
<!-- Node27 -->
<g id="node17" class="node">
<title>Node27</title>
<g id="a_node17"><a xlink:href="MatrixDynSize_8h.html" target="_top" xlink:title="iDynTree/Core/MatrixDynSize.h">
<polygon fill="none" stroke="#000000" points="813.5,-358.5 813.5,-377.5 980.5,-377.5 980.5,-358.5 813.5,-358.5"/>
<text text-anchor="middle" x="897" y="-365.5" font-family="FreeSans.ttf" font-size="10.00" fill="#000000">iDynTree/Core/MatrixDynSize.h</text>
</a>
</g>
</g>
<!-- Node1&#45;&gt;Node27 -->
<g id="edge27" class="edge">
<title>Node1&#45;&gt;Node27</title>
<path fill="none" stroke="#191970" d="M1854.2828,-615.0719C1687.0166,-601.7979 1204.3561,-560.2576 1054,-512 990.2215,-491.53 961.8541,-496.4805 919,-445 905.5577,-428.8519 900.3194,-404.9354 898.2835,-388.0498"/>
<polygon fill="#191970" stroke="#191970" points="901.7293,-387.3006 897.3242,-377.665 894.759,-387.9446 901.7293,-387.3006"/>
</g>
<!-- Node28 -->
<g id="node19" class="node">
<title>Node28</title>
<g id="a_node19"><a xlink:href="VectorDynSize_8h.html" target="_top" xlink:title="iDynTree/Core/VectorDynSize.h">
<polygon fill="none" stroke="#000000" points="998.5,-358.5 998.5,-377.5 1165.5,-377.5 1165.5,-358.5 998.5,-358.5"/>
<text text-anchor="middle" x="1082" y="-365.5" font-family="FreeSans.ttf" font-size="10.00" fill="#000000">iDynTree/Core/VectorDynSize.h</text>
</a>
</g>
</g>
<!-- Node1&#45;&gt;Node28 -->
<g id="edge33" class="edge">
<title>Node1&#45;&gt;Node28</title>
<path fill="none" stroke="#191970" d="M1854.3682,-613.6602C1717.2603,-599.1593 1375.3318,-559.2474 1271,-512 1251.1451,-503.0086 1252.707,-490.311 1233,-481 1159.6286,-446.3342 1105.4136,-507.7832 1054,-445 1039.7255,-427.5688 1053.8332,-402.2313 1066.6666,-385.4438"/>
<polygon fill="#191970" stroke="#191970" points="1069.508,-387.4973 1073.1044,-377.5315 1064.0782,-383.0794 1069.508,-387.4973"/>
</g>
<!-- Node29 -->
<g id="node20" class="node">
<title>Node29</title>
<g id="a_node20"><a xlink:href="Triplets_8h.html" target="_top" xlink:title="iDynTree/Core/Triplets.h">
<polygon fill="none" stroke="#000000" points="1244,-420 1244,-439 1376,-439 1376,-420 1244,-420"/>
<text text-anchor="middle" x="1310" y="-427" font-family="FreeSans.ttf" font-size="10.00" fill="#000000">iDynTree/Core/Triplets.h</text>
</a>
</g>
</g>
<!-- Node1&#45;&gt;Node29 -->
<g id="edge38" class="edge">
<title>Node1&#45;&gt;Node29</title>
<path fill="none" stroke="#191970" d="M1902.5851,-604.0907C1883.4835,-574.375 1837.0217,-509.5672 1779,-481 1711.7661,-447.8972 1501.043,-435.8051 1386.2984,-431.6001"/>
<polygon fill="#191970" stroke="#191970" points="1386.2959,-428.0979 1376.1779,-431.2406 1386.0473,-435.0935 1386.2959,-428.0979"/>
</g>
<!-- Node30 -->
<g id="node22" class="node">
<title>Node30</title>
<polygon fill="none" stroke="#bfbfbf" points="1658.5,-358.5 1658.5,-377.5 1705.5,-377.5 1705.5,-358.5 1658.5,-358.5"/>
<text text-anchor="middle" x="1682" y="-365.5" font-family="FreeSans.ttf" font-size="10.00" fill="#000000">vector</text>
</g>
<!-- Node1&#45;&gt;Node30 -->
<g id="edge101" class="edge">
<title>Node1&#45;&gt;Node30</title>
<path fill="none" stroke="#191970" d="M1916.0523,-604.293C1925.0524,-566.7634 1942.3009,-468.8158 1894,-414 1844.0907,-357.3588 1801.7738,-394.0185 1728,-378 1724.0691,-377.1465 1719.9494,-376.2515 1715.8587,-375.3626"/>
<polygon fill="#191970" stroke="#191970" points="1716.3896,-371.8964 1705.8744,-373.1925 1714.9028,-378.7366 1716.3896,-371.8964"/>
</g>
<!-- Node31 -->
<g id="node23" class="node">
<title>Node31</title>
<g id="a_node23"><a xlink:href="Indices_8h.html" target="_top" xlink:title="iDynTree/Model/Indices.h">
<polygon fill="none" stroke="#ff0000" points="2511,-358.5 2511,-377.5 2649,-377.5 2649,-358.5 2511,-358.5"/>
<text text-anchor="middle" x="2580" y="-365.5" font-family="FreeSans.ttf" font-size="10.00" fill="#000000">iDynTree/Model/Indices.h</text>
</a>
</g>
</g>
<!-- Node1&#45;&gt;Node31 -->
<g id="edge49" class="edge">
<title>Node1&#45;&gt;Node31</title>
<path fill="none" stroke="#191970" d="M1969.8517,-612.0049C2185.3168,-583.8211 2930.5525,-483.833 2963,-445 2971.8342,-434.4272 2972.1431,-424.3069 2963,-414 2943.2222,-391.7047 2765.7679,-378.1741 2659.4782,-371.999"/>
<polygon fill="#191970" stroke="#191970" points="2659.6054,-368.5007 2649.4219,-371.4244 2659.2059,-375.4893 2659.6054,-368.5007"/>
</g>
<!-- Node33 -->
<g id="node24" class="node">
<title>Node33</title>
<g id="a_node24"><a xlink:href="LinkState_8h.html" target="_top" xlink:title="iDynTree/Model/LinkState.h">
<polygon fill="none" stroke="#ff0000" points="1735.5,-420 1735.5,-439 1884.5,-439 1884.5,-420 1735.5,-420"/>
<text text-anchor="middle" x="1810" y="-427" font-family="FreeSans.ttf" font-size="10.00" fill="#000000">iDynTree/Model/LinkState.h</text>
</a>
</g>
</g>
<!-- Node1&#45;&gt;Node33 -->
<g id="edge52" class="edge">
<title>Node1&#45;&gt;Node33</title>
<path fill="none" stroke="#191970" d="M1906.5961,-604.3635C1896.9791,-578.253 1875.4909,-523.464 1850,-481 1842.7894,-468.9882 1833.203,-456.5552 1825.2227,-446.915"/>
<polygon fill="#191970" stroke="#191970" points="1827.8577,-444.6107 1818.7232,-439.2431 1822.5167,-449.1355 1827.8577,-444.6107"/>
</g>
<!-- Node1&#45;&gt;Node42 -->
<g id="edge60" class="edge">
<title>Node1&#45;&gt;Node42</title>
<path fill="none" stroke="#191970" d="M1969.5754,-614.3532C2068.3359,-605.4477 2276.3774,-586.3516 2452,-568 2453.1087,-567.8841 2454.2252,-567.7668 2455.3482,-567.6482"/>
<polygon fill="#191970" stroke="#191970" points="2456.0227,-571.0961 2465.5931,-566.551 2455.2772,-564.1359 2456.0227,-571.0961"/>
</g>
<!-- Node43 -->
<g id="node27" class="node">
<title>Node43</title>
<g id="a_node27"><a xlink:href="FreeFloatingState_8h.html" target="_top" xlink:title="iDynTree/Model/FreeFloating\lState.h">
<polygon fill="none" stroke="#ff0000" points="1940,-481.5 1940,-511.5 2094,-511.5 2094,-481.5 1940,-481.5"/>
<text text-anchor="start" x="1948" y="-499.5" font-family="FreeSans.ttf" font-size="10.00" fill="#000000">iDynTree/Model/FreeFloating</text>
<text text-anchor="middle" x="2017" y="-488.5" font-family="FreeSans.ttf" font-size="10.00" fill="#000000">State.h</text>
</a>
</g>
</g>
<!-- Node1&#45;&gt;Node43 -->
<g id="edge63" class="edge">
<title>Node1&#45;&gt;Node43</title>
<path fill="none" stroke="#191970" d="M1924.8751,-604.4178C1942.9807,-583.2084 1976.1185,-544.3897 1997.3244,-519.5485"/>
<polygon fill="#191970" stroke="#191970" points="2000.189,-521.5837 2004.0196,-511.7056 1994.865,-517.0388 2000.189,-521.5837"/>
</g>
<!-- Node1&#45;&gt;Node45 -->
<g id="edge76" class="edge">
<title>Node1&#45;&gt;Node45</title>
<path fill="none" stroke="#191970" d="M1854.4056,-615.8349C1726.9119,-607.6752 1411.1974,-587.2126 1147,-568 1133.4042,-567.0113 1118.9994,-565.9243 1104.948,-564.8424"/>
<polygon fill="#191970" stroke="#191970" points="1105.0357,-561.3388 1094.7955,-564.057 1104.4957,-568.3179 1105.0357,-561.3388"/>
</g>
<!-- Node55 -->
<g id="node36" class="node">
<title>Node55</title>
<g id="a_node36"><a xlink:href="LinkTraversalsCache_8h.html" target="_top" xlink:title="iDynTree/Model/LinkTraversals\lCache.h">
<polygon fill="none" stroke="#000000" points="2388,-414.5 2388,-444.5 2552,-444.5 2552,-414.5 2388,-414.5"/>
<text text-anchor="start" x="2396" y="-432.5" font-family="FreeSans.ttf" font-size="10.00" fill="#000000">iDynTree/Model/LinkTraversals</text>
<text text-anchor="middle" x="2470" y="-421.5" font-family="FreeSans.ttf" font-size="10.00" fill="#000000">Cache.h</text>
</a>
</g>
</g>
<!-- Node1&#45;&gt;Node55 -->
<g id="edge98" class="edge">
<title>Node1&#45;&gt;Node55</title>
<path fill="none" stroke="#191970" d="M1969.8088,-615.8555C2061.7861,-608.0163 2244.9384,-583.9487 2381,-512 2409.0678,-497.1579 2434.9316,-471.2012 2451.4598,-452.3587"/>
<polygon fill="#191970" stroke="#191970" points="2454.3233,-454.3955 2458.1611,-444.5201 2449.0026,-449.8468 2454.3233,-454.3955"/>
</g>
<!-- Node3 -->
<g id="node4" class="node">
<title>Node3</title>
<polygon fill="none" stroke="#bfbfbf" points="1606,-56.5 1606,-75.5 1650,-75.5 1650,-56.5 1606,-56.5"/>
<text text-anchor="middle" x="1628" y="-63.5" font-family="FreeSans.ttf" font-size="10.00" fill="#000000">string</text>
</g>
<!-- Node2&#45;&gt;Node3 -->
<g id="edge3" class="edge">
<title>Node2&#45;&gt;Node3</title>
<path fill="none" stroke="#191970" d="M1537.4407,-168.4509C1554.1719,-149.5227 1591.7465,-107.014 1612.8602,-83.1279"/>
<polygon fill="#191970" stroke="#191970" points="1615.5802,-85.3354 1619.5807,-75.5249 1610.3354,-80.6994 1615.5802,-85.3354"/>
</g>
<!-- Node2&#45;&gt;Node4 -->
<g id="edge4" class="edge">
<title>Node2&#45;&gt;Node4</title>
<path fill="none" stroke="#191970" d="M1458.4552,-172.4515C1328.5229,-162.2321 1051.5603,-140.4486 907.8075,-129.1422"/>
<polygon fill="#191970" stroke="#191970" points="907.935,-125.6415 897.6914,-128.3465 907.3861,-132.6199 907.935,-125.6415"/>
</g>
<!-- Node2&#45;&gt;Node5 -->
<g id="edge16" class="edge">
<title>Node2&#45;&gt;Node5</title>
<path fill="none" stroke="#191970" d="M1499.2301,-168.4444C1455.7688,-154.7176 1372.2535,-129.1825 1300,-112 1241.344,-98.0511 1173.9486,-85.6134 1124.8717,-77.1992"/>
<polygon fill="#191970" stroke="#191970" points="1125.4437,-73.7463 1114.9981,-75.5183 1124.2688,-80.647 1125.4437,-73.7463"/>
</g>
<!-- Node4&#45;&gt;Node3 -->
<g id="edge12" class="edge">
<title>Node4&#45;&gt;Node3</title>
<path fill="none" stroke="#191970" d="M897.7267,-116.4258C1072.1728,-104.3802 1478.0444,-76.3545 1595.5734,-68.2391"/>
<polygon fill="#191970" stroke="#191970" points="1595.9867,-71.719 1605.7218,-67.5383 1595.5044,-64.7356 1595.9867,-71.719"/>
</g>
<!-- Node4&#45;&gt;Node5 -->
<g id="edge5" class="edge">
<title>Node4&#45;&gt;Node5</title>
<path fill="none" stroke="#191970" d="M857.814,-112.4369C898.6311,-102.8731 961.4959,-88.1432 1005.4472,-77.845"/>
<polygon fill="#191970" stroke="#191970" points="1006.4165,-81.2128 1015.3543,-75.5237 1004.8195,-74.3973 1006.4165,-81.2128"/>
</g>
<!-- Node6 -->
<g id="node7" class="node">
<title>Node6</title>
<polygon fill="none" stroke="#bfbfbf" points="850.5,-.5 850.5,-19.5 903.5,-19.5 903.5,-.5 850.5,-.5"/>
<text text-anchor="middle" x="877" y="-7.5" font-family="FreeSans.ttf" font-size="10.00" fill="#000000">cstddef</text>
</g>
<!-- Node4&#45;&gt;Node6 -->
<g id="edge15" class="edge">
<title>Node4&#45;&gt;Node6</title>
<path fill="none" stroke="#191970" d="M800.9133,-112.3924C781.8429,-99.7464 754.273,-76.6924 768,-56 776.5064,-43.1772 812.3948,-29.6066 840.6984,-20.5562"/>
<polygon fill="#191970" stroke="#191970" points="841.8307,-23.8694 850.3361,-17.552 839.7476,-17.1865 841.8307,-23.8694"/>
</g>
<!-- Node8 -->
<g id="node8" class="node">
<title>Node8</title>
<g id="a_node8"><a xlink:href="Span_8h.html" target="_top" xlink:title="iDynTree/Core/Span.h">
<polygon fill="none" stroke="#ff0000" points="776.5,-56.5 776.5,-75.5 897.5,-75.5 897.5,-56.5 776.5,-56.5"/>
<text text-anchor="middle" x="837" y="-63.5" font-family="FreeSans.ttf" font-size="10.00" fill="#000000">iDynTree/Core/Span.h</text>
</a>
</g>
</g>
<!-- Node4&#45;&gt;Node8 -->
<g id="edge7" class="edge">
<title>Node4&#45;&gt;Node8</title>
<path fill="none" stroke="#191970" d="M820.4837,-112.2455C823.1508,-104.7776 826.9133,-94.2427 830.1737,-85.1137"/>
<polygon fill="#191970" stroke="#191970" points="833.4889,-86.2373 833.5562,-75.6427 826.8967,-83.8829 833.4889,-86.2373"/>
</g>
<!-- Node9 -->
<g id="node9" class="node">
<title>Node9</title>
<polygon fill="none" stroke="#bfbfbf" points="931,-.5 931,-19.5 983,-19.5 983,-.5 931,-.5"/>
<text text-anchor="middle" x="957" y="-7.5" font-family="FreeSans.ttf" font-size="10.00" fill="#000000">cassert</text>
</g>
<!-- Node4&#45;&gt;Node9 -->
<g id="edge14" class="edge">
<title>Node4&#45;&gt;Node9</title>
<path fill="none" stroke="#191970" d="M842.8841,-112.4451C861.9385,-104.5815 887.7671,-92.117 907,-76 923.1139,-62.4967 937.1349,-42.8815 946.1953,-28.5448"/>
<polygon fill="#191970" stroke="#191970" points="949.4288,-29.9642 951.6401,-19.6027 943.4499,-26.3237 949.4288,-29.9642"/>
</g>
<!-- Node4&#45;&gt;Node17 -->
<g id="edge13" class="edge">
<title>Node4&#45;&gt;Node17</title>
<path fill="none" stroke="#191970" d="M795.5117,-112.3733C775.356,-103.3435 745.012,-89.7494 722.382,-79.6111"/>
<polygon fill="#191970" stroke="#191970" points="723.7649,-76.3955 713.2079,-75.5011 720.9029,-82.7838 723.7649,-76.3955"/>
</g>
<!-- Node5&#45;&gt;Node6 -->
<g id="edge6" class="edge">
<title>Node5&#45;&gt;Node6</title>
<path fill="none" stroke="#191970" d="M1025.2288,-56.3733C994.1573,-46.6526 946.1781,-31.6423 913.2738,-21.3482"/>
<polygon fill="#191970" stroke="#191970" points="914.1704,-17.9615 903.5815,-18.316 912.0803,-24.6422 914.1704,-17.9615"/>
</g>
<!-- Node8&#45;&gt;Node6 -->
<g id="edge10" class="edge">
<title>Node8&#45;&gt;Node6</title>
<path fill="none" stroke="#191970" d="M843.9675,-56.2455C849.5311,-48.4564 857.478,-37.3308 864.1829,-27.9439"/>
<polygon fill="#191970" stroke="#191970" points="867.148,-29.8144 870.1124,-19.6427 861.4519,-25.7457 867.148,-29.8144"/>
</g>
<!-- Node8&#45;&gt;Node9 -->
<g id="edge8" class="edge">
<title>Node8&#45;&gt;Node9</title>
<path fill="none" stroke="#191970" d="M857.6287,-56.3733C876.8919,-47.3838 905.8486,-33.8706 927.5419,-23.7471"/>
<polygon fill="#191970" stroke="#191970" points="929.0587,-26.9017 936.6405,-19.5011 926.0985,-20.5584 929.0587,-26.9017"/>
</g>
<!-- Node8&#45;&gt;Node10 -->
<g id="edge9" class="edge">
<title>Node8&#45;&gt;Node10</title>
<path fill="none" stroke="#191970" d="M776.2582,-58.6214C681.2992,-47.0862 500.0856,-25.0733 418.1204,-15.1166"/>
<polygon fill="#191970" stroke="#191970" points="418.5118,-11.6385 408.1627,-13.907 417.6676,-18.5874 418.5118,-11.6385"/>
</g>
<!-- Node12 -->
<g id="node11" class="node">
<title>Node12</title>
<polygon fill="none" stroke="#bfbfbf" points="779.5,-.5 779.5,-19.5 832.5,-19.5 832.5,-.5 779.5,-.5"/>
<text text-anchor="middle" x="806" y="-7.5" font-family="FreeSans.ttf" font-size="10.00" fill="#000000">iterator</text>
</g>
<!-- Node8&#45;&gt;Node12 -->
<g id="edge11" class="edge">
<title>Node8&#45;&gt;Node12</title>
<path fill="none" stroke="#191970" d="M831.6002,-56.2455C827.3773,-48.617 821.3827,-37.7881 816.2559,-28.5267"/>
<polygon fill="#191970" stroke="#191970" points="819.2432,-26.6965 811.3379,-19.6427 813.119,-30.0867 819.2432,-26.6965"/>
</g>
<!-- Node19&#45;&gt;Node3 -->
<g id="edge26" class="edge">
<title>Node19&#45;&gt;Node3</title>
<path fill="none" stroke="#191970" d="M1810.2639,-296.8648C1833.894,-273.4947 1887.9646,-212.4522 1859,-168 1814.4426,-99.6174 1712.5218,-76.7504 1660.2373,-69.3635"/>
<polygon fill="#191970" stroke="#191970" points="1660.5423,-65.8736 1650.1728,-68.0473 1659.6346,-72.8145 1660.5423,-65.8736"/>
</g>
<!-- Node20 -->
<g id="node14" class="node">
<title>Node20</title>
<g id="a_node14"><a xlink:href="PositionRaw_8h.html" target="_top" xlink:title="iDynTree/Core/PositionRaw.h">
<polygon fill="none" stroke="#000000" points="1694,-168.5 1694,-187.5 1850,-187.5 1850,-168.5 1694,-168.5"/>
<text text-anchor="middle" x="1772" y="-175.5" font-family="FreeSans.ttf" font-size="10.00" fill="#000000">iDynTree/Core/PositionRaw.h</text>
</a>
</g>
</g>
<!-- Node19&#45;&gt;Node20 -->
<g id="edge18" class="edge">
<title>Node19&#45;&gt;Node20</title>
<path fill="none" stroke="#191970" d="M1797.8954,-296.8416C1793.3145,-275.8184 1782.3632,-225.5598 1776.2717,-197.6038"/>
<polygon fill="#191970" stroke="#191970" points="1779.6778,-196.796 1774.129,-187.7705 1772.8383,-198.2864 1779.6778,-196.796"/>
</g>
<!-- Node21 -->
<g id="node15" class="node">
<title>Node21</title>
<g id="a_node15"><a xlink:href="Rotation_8h.html" target="_top" xlink:title="iDynTree/Core/Rotation.h">
<polygon fill="none" stroke="#ff0000" points="1597.5,-230 1597.5,-249 1734.5,-249 1734.5,-230 1597.5,-230"/>
<text text-anchor="middle" x="1666" y="-237" font-family="FreeSans.ttf" font-size="10.00" fill="#000000">iDynTree/Core/Rotation.h</text>
</a>
</g>
</g>
<!-- Node19&#45;&gt;Node21 -->
<g id="edge21" class="edge">
<title>Node19&#45;&gt;Node21</title>
<path fill="none" stroke="#191970" d="M1780.8011,-296.9005C1758.1138,-285.5569 1720.1687,-266.5844 1694.1565,-253.5783"/>
<polygon fill="#191970" stroke="#191970" points="1695.6729,-250.4234 1685.1633,-249.0817 1692.5423,-256.6843 1695.6729,-250.4234"/>
</g>
<!-- Node20&#45;&gt;Node3 -->
<g id="edge20" class="edge">
<title>Node20&#45;&gt;Node3</title>
<path fill="none" stroke="#191970" d="M1759.7226,-168.4509C1734.9613,-149.1921 1678.8138,-105.5218 1648.4345,-81.8935"/>
<polygon fill="#191970" stroke="#191970" points="1650.2886,-78.9016 1640.2463,-75.5249 1645.991,-84.4271 1650.2886,-78.9016"/>
</g>
<!-- Node20&#45;&gt;Node4 -->
<g id="edge19" class="edge">
<title>Node20&#45;&gt;Node4</title>
<path fill="none" stroke="#191970" d="M1693.6545,-173.1417C1666.8127,-171.4909 1636.5939,-169.6478 1609,-168 1355.0723,-152.8367 1055.3058,-135.6098 908.0103,-127.1894"/>
<polygon fill="#191970" stroke="#191970" points="907.8546,-123.6748 897.6712,-126.5985 907.4552,-130.6634 907.8546,-123.6748"/>
</g>
<!-- Node21&#45;&gt;Node3 -->
<g id="edge22" class="edge">
<title>Node21&#45;&gt;Node3</title>
<path fill="none" stroke="#191970" d="M1664.5499,-229.8262C1661.2615,-208.4282 1652.6872,-155.5304 1642,-112 1639.8411,-103.2064 1636.9983,-93.6064 1634.4387,-85.462"/>
<polygon fill="#191970" stroke="#191970" points="1637.7182,-84.2277 1631.3184,-75.7842 1631.056,-86.3758 1637.7182,-84.2277"/>
</g>
<!-- Node21&#45;&gt;Node4 -->
<g id="edge25" class="edge">
<title>Node21&#45;&gt;Node4</title>
<path fill="none" stroke="#191970" d="M1597.3203,-235.7471C1493.1966,-229.4489 1289.3646,-214.7373 1118,-188 1027.0579,-173.8107 922.4023,-148.8838 863.5408,-134.0606"/>
<polygon fill="#191970" stroke="#191970" points="864.3496,-130.655 853.7965,-131.5935 862.6315,-137.4409 864.3496,-130.655"/>
</g>
<!-- Node22 -->
<g id="node16" class="node">
<title>Node22</title>
<g id="a_node16"><a xlink:href="GeomVector3_8h.html" target="_top" xlink:title="iDynTree/Core/GeomVector3.h">
<polygon fill="none" stroke="#000000" points="470.5,-168.5 470.5,-187.5 633.5,-187.5 633.5,-168.5 470.5,-168.5"/>
<text text-anchor="middle" x="552" y="-175.5" font-family="FreeSans.ttf" font-size="10.00" fill="#000000">iDynTree/Core/GeomVector3.h</text>
</a>
</g>
</g>
<!-- Node21&#45;&gt;Node22 -->
<g id="edge23" class="edge">
<title>Node21&#45;&gt;Node22</title>
<path fill="none" stroke="#191970" d="M1597.155,-235.6993C1404.7686,-225.0783 861.3889,-195.0803 643.7814,-183.0669"/>
<polygon fill="#191970" stroke="#191970" points="643.8459,-179.5652 633.6681,-182.5086 643.46,-186.5546 643.8459,-179.5652"/>
</g>
<!-- Node22&#45;&gt;Node4 -->
<g id="edge24" class="edge">
<title>Node22&#45;&gt;Node4</title>
<path fill="none" stroke="#191970" d="M597.254,-168.4369C642.7973,-158.8127 713.0965,-143.957 761.8686,-133.6504"/>
<polygon fill="#191970" stroke="#191970" points="762.8724,-137.0157 771.9326,-131.5237 761.425,-130.1669 762.8724,-137.0157"/>
</g>
<!-- Node27&#45;&gt;Node3 -->
<g id="edge28" class="edge">
<title>Node27&#45;&gt;Node3</title>
<path fill="none" stroke="#191970" d="M980.8206,-358.6175C1095.7562,-345.6991 1288.5779,-323.813 1292,-322 1331.9573,-300.8315 1389.7887,-196.37 1425,-168 1430.0719,-163.9136 1522.177,-114.9182 1528,-112 1550.7571,-100.5954 1576.9059,-88.6051 1596.7555,-79.7262"/>
<polygon fill="#191970" stroke="#191970" points="1598.2384,-82.8972 1605.9514,-75.6336 1595.3922,-76.502 1598.2384,-82.8972"/>
</g>
<!-- Node25 -->
<g id="node18" class="node">
<title>Node25</title>
<g id="a_node18"><a xlink:href="MatrixView_8h.html" target="_top" xlink:title="iDynTree/Core/MatrixView.h">
<polygon fill="none" stroke="#ff0000" points="1068.5,-112.5 1068.5,-131.5 1219.5,-131.5 1219.5,-112.5 1068.5,-112.5"/>
<text text-anchor="middle" x="1144" y="-119.5" font-family="FreeSans.ttf" font-size="10.00" fill="#000000">iDynTree/Core/MatrixView.h</text>
</a>
</g>
</g>
<!-- Node27&#45;&gt;Node25 -->
<g id="edge29" class="edge">
<title>Node27&#45;&gt;Node25</title>
<path fill="none" stroke="#191970" d="M906.6827,-358.3565C944.1115,-321.0793 1079.6056,-186.1337 1127.2721,-138.6602"/>
<polygon fill="#191970" stroke="#191970" points="1129.7687,-141.1135 1134.3842,-131.5768 1124.829,-136.1537 1129.7687,-141.1135"/>
</g>
<!-- Node25&#45;&gt;Node5 -->
<g id="edge32" class="edge">
<title>Node25&#45;&gt;Node5</title>
<path fill="none" stroke="#191970" d="M1128.6716,-112.2455C1115.1697,-103.6534 1095.2878,-91.0014 1079.7314,-81.1018"/>
<polygon fill="#191970" stroke="#191970" points="1081.4685,-78.0587 1071.1528,-75.6427 1077.7103,-83.9643 1081.4685,-78.0587"/>
</g>
<!-- Node25&#45;&gt;Node8 -->
<g id="edge31" class="edge">
<title>Node25&#45;&gt;Node8</title>
<path fill="none" stroke="#191970" d="M1091.5736,-112.4369C1038.2603,-102.712 955.6643,-87.6456 899.1044,-77.3285"/>
<polygon fill="#191970" stroke="#191970" points="899.6759,-73.8751 889.2101,-75.5237 898.4197,-80.7614 899.6759,-73.8751"/>
</g>
<!-- Node25&#45;&gt;Node9 -->
<g id="edge30" class="edge">
<title>Node25&#45;&gt;Node9</title>
<path fill="none" stroke="#191970" d="M1144.0266,-112.4653C1143.5322,-98.1718 1140.4447,-71.2446 1125,-56 1106.47,-37.7101 1036.8578,-23.2128 993.2667,-15.6812"/>
<polygon fill="#191970" stroke="#191970" points="993.7668,-12.2162 983.3242,-14.0057 992.6036,-19.1189 993.7668,-12.2162"/>
</g>
<!-- Node28&#45;&gt;Node3 -->
<g id="edge35" class="edge">
<title>Node28&#45;&gt;Node3</title>
<path fill="none" stroke="#191970" d="M1165.5125,-358.9357C1226.3866,-351.1434 1302.7767,-338.546 1330,-322 1404.1489,-276.9331 1382.0216,-221.9261 1450,-168 1479.912,-144.2713 1494.6386,-150.5687 1528,-132 1556.056,-116.3843 1586.6352,-95.6045 1606.4945,-81.5656"/>
<polygon fill="#191970" stroke="#191970" points="1608.7062,-84.2873 1614.8171,-75.6324 1604.6427,-78.5874 1608.7062,-84.2873"/>
</g>
<!-- Node28&#45;&gt;Node8 -->
<g id="edge34" class="edge">
<title>Node28&#45;&gt;Node8</title>
<path fill="none" stroke="#191970" d="M1077.1125,-358.188C1058.7638,-322.052 990.7424,-194.2279 907,-112 894.5227,-99.7484 878.3223,-88.857 864.6494,-80.7512"/>
<polygon fill="#191970" stroke="#191970" points="866.0807,-77.5375 855.6642,-75.6021 862.6002,-83.611 866.0807,-77.5375"/>
</g>
<!-- Node29&#45;&gt;Node3 -->
<g id="edge47" class="edge">
<title>Node29&#45;&gt;Node3</title>
<path fill="none" stroke="#191970" d="M1330.2825,-419.8951C1385.6194,-392.519 1539.6831,-308.2434 1609,-188 1627.5677,-155.7908 1629.6974,-111.2273 1629.1398,-85.8331"/>
<polygon fill="#191970" stroke="#191970" points="1632.629,-85.4844 1628.7439,-75.6277 1625.6343,-85.7559 1632.629,-85.4844"/>
</g>
<!-- Node29&#45;&gt;Node5 -->
<g id="edge45" class="edge">
<title>Node29&#45;&gt;Node5</title>
<path fill="none" stroke="#191970" d="M1311.7706,-419.9607C1317.8566,-384.7361 1335.4995,-259.308 1297,-168 1283.8041,-136.7038 1274.2947,-129.1872 1245,-112 1208.791,-90.7563 1163.1811,-79.2973 1125.8385,-73.1296"/>
<polygon fill="#191970" stroke="#191970" points="1125.9593,-69.6063 1115.5399,-71.5266 1124.8826,-76.523 1125.9593,-69.6063"/>
</g>
<!-- Node29&#45;&gt;Node12 -->
<g id="edge46" class="edge">
<title>Node29&#45;&gt;Node12</title>
<path fill="none" stroke="#191970" d="M1301.8591,-419.8859C1262.54,-373.9359 1086.8167,-174.0632 907,-56 886.7916,-42.7317 862.1308,-31.4196 842.2361,-23.3334"/>
<polygon fill="#191970" stroke="#191970" points="843.4789,-20.0612 832.8929,-19.6286 840.8986,-26.5683 843.4789,-20.0612"/>
</g>
<!-- Node24 -->
<g id="node21" class="node">
<title>Node24</title>
<g id="a_node21"><a xlink:href="MatrixFixSize_8h.html" target="_top" xlink:title="iDynTree/Core/MatrixFixSize.h">
<polygon fill="none" stroke="#ff0000" points="1126.5,-168.5 1126.5,-187.5 1287.5,-187.5 1287.5,-168.5 1126.5,-168.5"/>
<text text-anchor="middle" x="1207" y="-175.5" font-family="FreeSans.ttf" font-size="10.00" fill="#000000">iDynTree/Core/MatrixFixSize.h</text>
</a>
</g>
</g>
<!-- Node29&#45;&gt;Node24 -->
<g id="edge39" class="edge">
<title>Node29&#45;&gt;Node24</title>
<path fill="none" stroke="#191970" d="M1306.4494,-419.7397C1301.3958,-405.9316 1291.7669,-379.931 1283,-358 1259.3677,-298.8825 1229.5365,-229.6967 1215.2986,-196.9825"/>
<polygon fill="#191970" stroke="#191970" points="1218.4569,-195.4688 1211.2515,-187.7015 1212.0405,-198.2669 1218.4569,-195.4688"/>
</g>
<!-- Node29&#45;&gt;Node30 -->
<g id="edge48" class="edge">
<title>Node29&#45;&gt;Node30</title>
<path fill="none" stroke="#191970" d="M1367.7168,-419.9581C1446.3964,-406.9506 1584.7866,-384.0716 1648.3507,-373.563"/>
<polygon fill="#191970" stroke="#191970" points="1648.9525,-377.0111 1658.2477,-371.9268 1647.8107,-370.1048 1648.9525,-377.0111"/>
</g>
<!-- Node24&#45;&gt;Node3 -->
<g id="edge43" class="edge">
<title>Node24&#45;&gt;Node3</title>
<path fill="none" stroke="#191970" d="M1242.8942,-168.4509C1323.6078,-146.9785 1518.3884,-95.1603 1595.6441,-74.6077"/>
<polygon fill="#191970" stroke="#191970" points="1596.9771,-77.8749 1605.7411,-71.9216 1595.1774,-71.1102 1596.9771,-77.8749"/>
</g>
<!-- Node24&#45;&gt;Node5 -->
<g id="edge40" class="edge">
<title>Node24&#45;&gt;Node5</title>
<path fill="none" stroke="#191970" d="M1215.5321,-168.0992C1226.3492,-154.2944 1242.1042,-129.0438 1229,-112 1216.1103,-95.2351 1168.0352,-83.2951 1125.8266,-75.7879"/>
<polygon fill="#191970" stroke="#191970" points="1126.2575,-72.3108 1115.8094,-74.0677 1125.0727,-79.2098 1126.2575,-72.3108"/>
</g>
<!-- Node24&#45;&gt;Node9 -->
<g id="edge42" class="edge">
<title>Node24&#45;&gt;Node9</title>
<path fill="none" stroke="#191970" d="M1219.5322,-168.3468C1234.6733,-155.4583 1256.7424,-131.9372 1245,-112 1218.7015,-67.3483 1064.7752,-31.4376 993.3635,-16.9364"/>
<polygon fill="#191970" stroke="#191970" points="993.9434,-13.4831 983.4511,-14.9537 992.5704,-20.3472 993.9434,-13.4831"/>
</g>
<!-- Node24&#45;&gt;Node17 -->
<g id="edge44" class="edge">
<title>Node24&#45;&gt;Node17</title>
<path fill="none" stroke="#191970" d="M1163.7954,-168.4129C1105.5146,-155.4992 998.4639,-131.8454 907,-112 845.1412,-98.5782 773.2089,-83.2433 730.2092,-74.1054"/>
<polygon fill="#191970" stroke="#191970" points="730.6939,-70.6304 720.1849,-71.9761 729.2394,-77.4776 730.6939,-70.6304"/>
</g>
<!-- Node24&#45;&gt;Node25 -->
<g id="edge41" class="edge">
<title>Node24&#45;&gt;Node25</title>
<path fill="none" stroke="#191970" d="M1196.0262,-168.2455C1186.8118,-160.0549 1173.4468,-148.1749 1162.5703,-138.5069"/>
<polygon fill="#191970" stroke="#191970" points="1164.6474,-135.6704 1154.848,-131.6427 1159.9968,-140.9023 1164.6474,-135.6704"/>
</g>
<!-- Node31&#45;&gt;Node3 -->
<g id="edge51" class="edge">
<title>Node31&#45;&gt;Node3</title>
<path fill="none" stroke="#191970" d="M2535.9224,-358.4545C2480.3552,-343.5273 2392,-308.8833 2392,-239.5 2392,-239.5 2392,-239.5 2392,-178 2392,-113.9938 2325.6162,-129.3274 2264,-112 2148.4992,-79.5194 1772.6298,-69.0639 1660.11,-66.6216"/>
<polygon fill="#191970" stroke="#191970" points="1660.1322,-63.1214 1650.0607,-66.4098 1659.9847,-70.1199 1660.1322,-63.1214"/>
</g>
<!-- Node31&#45;&gt;Node6 -->
<g id="edge50" class="edge">
<title>Node31&#45;&gt;Node6</title>
<path fill="none" stroke="#191970" d="M2579.2401,-358.3353C2577.6256,-336.939 2574,-283.9433 2574,-239.5 2574,-239.5 2574,-239.5 2574,-122 2574,-20.0692 1760.7449,-62.1536 1659,-56 1331.6521,-36.2018 1247.0176,-63.7284 922,-20 919.1744,-19.6198 916.2637,-19.1518 913.3464,-18.6278"/>
<polygon fill="#191970" stroke="#191970" points="914.0063,-15.1905 903.5162,-16.6764 912.6433,-22.0566 914.0063,-15.1905"/>
</g>
<!-- Node33&#45;&gt;Node30 -->
<g id="edge59" class="edge">
<title>Node33&#45;&gt;Node30</title>
<path fill="none" stroke="#191970" d="M1790,-419.8906C1768.7711,-409.6908 1735.0238,-393.4763 1710.904,-381.8875"/>
<polygon fill="#191970" stroke="#191970" points="1712.3889,-378.7179 1701.8596,-377.5419 1709.3574,-385.0275 1712.3889,-378.7179"/>
</g>
<!-- Node33&#45;&gt;Node31 -->
<g id="edge58" class="edge">
<title>Node33&#45;&gt;Node31</title>
<path fill="none" stroke="#191970" d="M1884.5305,-423.5472C2030.1717,-411.9149 2351.3283,-386.264 2500.707,-374.3331"/>
<polygon fill="#191970" stroke="#191970" points="2501.038,-377.8179 2510.7275,-373.5328 2500.4806,-370.8402 2501.038,-377.8179"/>
</g>
<!-- Node34 -->
<g id="node25" class="node">
<title>Node34</title>
<g id="a_node25"><a xlink:href="Transform_8h.html" target="_top" xlink:title="iDynTree/Core/Transform.h">
<polygon fill="none" stroke="#000000" points="1737,-358.5 1737,-377.5 1883,-377.5 1883,-358.5 1737,-358.5"/>
<text text-anchor="middle" x="1810" y="-365.5" font-family="FreeSans.ttf" font-size="10.00" fill="#000000">iDynTree/Core/Transform.h</text>
</a>
</g>
</g>
<!-- Node33&#45;&gt;Node34 -->
<g id="edge53" class="edge">
<title>Node33&#45;&gt;Node34</title>
<path fill="none" stroke="#191970" d="M1810,-419.8906C1810,-411.3657 1810,-398.6392 1810,-387.9235"/>
<polygon fill="#191970" stroke="#191970" points="1813.5001,-387.7448 1810,-377.7449 1806.5001,-387.7449 1813.5001,-387.7448"/>
</g>
<!-- Node34&#45;&gt;Node3 -->
<g id="edge57" class="edge">
<title>Node34&#45;&gt;Node3</title>
<path fill="none" stroke="#191970" d="M1883.2656,-359.7764C1999.2161,-344.6985 2212,-307.7332 2212,-239.5 2212,-239.5 2212,-239.5 2212,-178 2212,-121.3802 1783.133,-79.5525 1660.4331,-68.7441"/>
<polygon fill="#191970" stroke="#191970" points="1660.4465,-65.2321 1650.1804,-67.8507 1659.8388,-72.2057 1660.4465,-65.2321"/>
</g>
<!-- Node34&#45;&gt;Node19 -->
<g id="edge54" class="edge">
<title>Node34&#45;&gt;Node19</title>
<path fill="none" stroke="#191970" d="M1808.4375,-358.3906C1807.0513,-349.8657 1804.982,-337.1392 1803.2396,-326.4235"/>
<polygon fill="#191970" stroke="#191970" points="1806.6442,-325.5535 1801.5845,-316.2449 1799.7349,-326.677 1806.6442,-325.5535"/>
</g>
<!-- Node34&#45;&gt;Node21 -->
<g id="edge55" class="edge">
<title>Node34&#45;&gt;Node21</title>
<path fill="none" stroke="#191970" d="M1784.3993,-358.3435C1765.923,-350.5029 1741.139,-338.1119 1723,-322 1702.2439,-303.5634 1685.2288,-276.0831 1675.348,-257.9803"/>
<polygon fill="#191970" stroke="#191970" points="1678.3752,-256.2173 1670.6142,-249.0049 1672.1836,-259.4829 1678.3752,-256.2173"/>
</g>
<!-- Node34&#45;&gt;Node24 -->
<g id="edge56" class="edge">
<title>Node34&#45;&gt;Node24</title>
<path fill="none" stroke="#191970" d="M1779.6839,-358.4477C1679.6503,-326.9279 1360.0141,-226.2134 1247.03,-190.6131"/>
<polygon fill="#191970" stroke="#191970" points="1247.9661,-187.2385 1237.3764,-187.5714 1245.8623,-193.9149 1247.9661,-187.2385"/>
</g>
<!-- Node42&#45;&gt;Node30 -->
<g id="edge62" class="edge">
<title>Node42&#45;&gt;Node30</title>
<path fill="none" stroke="#191970" d="M2465.985,-552.1195C2402.5155,-545.8728 2309.0723,-533.7954 2230,-512 2119.7185,-481.6022 2102.4586,-443.7475 1992,-414 1877.6548,-383.2058 1844.6148,-398.5938 1728,-378 1724.0388,-377.3005 1719.9004,-376.5003 1715.7994,-375.664"/>
<polygon fill="#191970" stroke="#191970" points="1716.3126,-372.1951 1705.8045,-373.5476 1714.8625,-379.0433 1716.3126,-372.1951"/>
</g>
<!-- Node42&#45;&gt;Node31 -->
<g id="edge61" class="edge">
<title>Node42&#45;&gt;Node31</title>
<path fill="none" stroke="#191970" d="M2614.0953,-550.5656C2730.8979,-537.1461 2949.3837,-504.5781 2996,-445 3004.4902,-434.149 3005.1914,-424.2638 2996,-414 2974.0021,-389.4356 2774.0447,-376.5791 2659.5587,-371.1775"/>
<polygon fill="#191970" stroke="#191970" points="2659.5847,-367.6751 2649.4335,-370.7087 2659.2609,-374.6676 2659.5847,-367.6751"/>
</g>
<!-- Node43&#45;&gt;Node28 -->
<g id="edge65" class="edge">
<title>Node43&#45;&gt;Node28</title>
<path fill="none" stroke="#191970" d="M2000.6633,-481.2473C1978.474,-461.6095 1936.6604,-428.3126 1894,-414 1827.5123,-391.6933 1375.1818,-376.305 1175.9241,-370.5314"/>
<polygon fill="#191970" stroke="#191970" points="1175.8601,-367.0282 1165.7635,-370.239 1175.6587,-374.0253 1175.8601,-367.0282"/>
</g>
<!-- Node43&#45;&gt;Node30 -->
<g id="edge75" class="edge">
<title>Node43&#45;&gt;Node30</title>
<path fill="none" stroke="#191970" d="M2011.8187,-481.4918C2004.4035,-462.442 1988.8489,-430.1234 1964,-414 1874.9928,-356.2472 1832.336,-397.2791 1728,-378 1724.0445,-377.2691 1719.9096,-376.4496 1715.8105,-375.6026"/>
<polygon fill="#191970" stroke="#191970" points="1716.3272,-372.1342 1705.8176,-373.4753 1714.8696,-378.9808 1716.3272,-372.1342"/>
</g>
<!-- Node43&#45;&gt;Node31 -->
<g id="edge66" class="edge">
<title>Node43&#45;&gt;Node31</title>
<path fill="none" stroke="#191970" d="M2094.0759,-490.9673C2249.3159,-479.6439 2585.6528,-454.1254 2594,-445 2608.3355,-429.328 2599.9437,-404.0849 2591.2351,-386.803"/>
<polygon fill="#191970" stroke="#191970" points="2594.1127,-384.7708 2586.2404,-377.6801 2587.9727,-388.1324 2594.1127,-384.7708"/>
</g>
<!-- Node43&#45;&gt;Node33 -->
<g id="edge67" class="edge">
<title>Node43&#45;&gt;Node33</title>
<path fill="none" stroke="#191970" d="M1970.5452,-481.4639C1933.9838,-469.63 1883.6111,-453.3258 1849.0961,-442.1543"/>
<polygon fill="#191970" stroke="#191970" points="1849.959,-438.7549 1839.3671,-439.0053 1847.8033,-445.4147 1849.959,-438.7549"/>
</g>
<!-- Node43&#45;&gt;Node34 -->
<g id="edge64" class="edge">
<title>Node43&#45;&gt;Node34</title>
<path fill="none" stroke="#191970" d="M2018.7957,-481.2347C2020.0543,-462.8179 2019.1092,-432.0824 2002,-414 1986.7511,-397.8836 1937.8244,-386.3037 1893.1812,-378.7935"/>
<polygon fill="#191970" stroke="#191970" points="1893.5745,-375.3115 1883.142,-377.1591 1892.4497,-382.2205 1893.5745,-375.3115"/>
</g>
<!-- Node44 -->
<g id="node28" class="node">
<title>Node44</title>
<g id="a_node28"><a xlink:href="JointState_8h.html" target="_top" xlink:title="iDynTree/Model/JointState.h">
<polygon fill="none" stroke="#000000" points="1074.5,-420 1074.5,-439 1225.5,-439 1225.5,-420 1074.5,-420"/>
<text text-anchor="middle" x="1150" y="-427" font-family="FreeSans.ttf" font-size="10.00" fill="#000000">iDynTree/Model/JointState.h</text>
</a>
</g>
</g>
<!-- Node43&#45;&gt;Node44 -->
<g id="edge68" class="edge">
<title>Node43&#45;&gt;Node44</title>
<path fill="none" stroke="#191970" d="M1939.7987,-491.4736C1744.1498,-478.7277 1243.6872,-446.0745 1235,-445 1225.926,-443.8776 1216.3543,-442.411 1207.0363,-440.8277"/>
<polygon fill="#191970" stroke="#191970" points="1207.5153,-437.3583 1197.0604,-439.0746 1206.3037,-444.2527 1207.5153,-437.3583"/>
</g>
<!-- Node44&#45;&gt;Node4 -->
<g id="edge69" class="edge">
<title>Node44&#45;&gt;Node4</title>
<path fill="none" stroke="#191970" d="M1162.5246,-419.8436C1178.673,-406.1589 1203.2992,-380.3041 1191,-358 1119.6591,-228.626 944.2546,-160.4032 861.5379,-134.4979"/>
<polygon fill="#191970" stroke="#191970" points="862.51,-131.1352 851.9232,-131.5473 860.4562,-137.8272 862.51,-131.1352"/>
</g>
<!-- Node44&#45;&gt;Node28 -->
<g id="edge70" class="edge">
<title>Node44&#45;&gt;Node28</title>
<path fill="none" stroke="#191970" d="M1139.375,-419.8906C1128.9569,-410.4683 1112.8636,-395.9134 1100.3696,-384.6137"/>
<polygon fill="#191970" stroke="#191970" points="1102.5392,-381.8568 1092.7748,-377.7449 1097.8438,-387.0484 1102.5392,-381.8568"/>
</g>
<!-- Node44&#45;&gt;Node30 -->
<g id="edge74" class="edge">
<title>Node44&#45;&gt;Node30</title>
<path fill="none" stroke="#191970" d="M1198.4397,-419.994C1210.3637,-417.84 1223.1196,-415.6919 1235,-414 1388.486,-392.142 1573.041,-376.4999 1647.9376,-370.5949"/>
<polygon fill="#191970" stroke="#191970" points="1648.4786,-374.0634 1658.1755,-369.7947 1647.9331,-367.0847 1648.4786,-374.0634"/>
</g>
<!-- Node40 -->
<g id="node29" class="node">
<title>Node40</title>
<g id="a_node29"><a xlink:href="SpatialForceVector_8h.html" target="_top" xlink:title="iDynTree/Core/SpatialForce\lVector.h">
<polygon fill="none" stroke="#ff0000" points="656,-291.5 656,-321.5 804,-321.5 804,-291.5 656,-291.5"/>
<text text-anchor="start" x="664" y="-309.5" font-family="FreeSans.ttf" font-size="10.00" fill="#000000">iDynTree/Core/SpatialForce</text>
<text text-anchor="middle" x="730" y="-298.5" font-family="FreeSans.ttf" font-size="10.00" fill="#000000">Vector.h</text>
</a>
</g>
</g>
<!-- Node44&#45;&gt;Node40 -->
<g id="edge71" class="edge">
<title>Node44&#45;&gt;Node40</title>
<path fill="none" stroke="#191970" d="M1158.8443,-419.757C1171.3547,-404.7839 1191.0083,-375.9678 1175,-358 1151.4748,-331.5952 936.7413,-316.714 814.3801,-310.3107"/>
<polygon fill="#191970" stroke="#191970" points="814.4527,-306.8099 804.2858,-309.7907 814.0925,-313.8006 814.4527,-306.8099"/>
</g>
<!-- Node40&#45;&gt;Node4 -->
<g id="edge72" class="edge">
<title>Node40&#45;&gt;Node4</title>
<path fill="none" stroke="#191970" d="M737.1196,-291.4016C752.9219,-257.8897 790.8911,-177.3688 808.17,-140.7257"/>
<polygon fill="#191970" stroke="#191970" points="811.3598,-142.1672 812.4593,-131.6295 805.0284,-139.1816 811.3598,-142.1672"/>
</g>
<!-- Node40&#45;&gt;Node22 -->
<g id="edge73" class="edge">
<title>Node40&#45;&gt;Node22</title>
<path fill="none" stroke="#191970" d="M708.8821,-291.2548C674.8985,-266.7217 608.4052,-218.7195 573.9187,-193.8233"/>
<polygon fill="#191970" stroke="#191970" points="575.6428,-190.7513 565.4862,-187.7358 571.5455,-196.4269 575.6428,-190.7513"/>
</g>
<!-- Node45&#45;&gt;Node3 -->
<g id="edge78" class="edge">
<title>Node45&#45;&gt;Node3</title>
<path fill="none" stroke="#191970" d="M992.2744,-548.438C922.3951,-521.9594 743.7711,-443.9372 805,-358 821.7807,-334.4476 1269.8733,-198.0224 1297,-188 1383.4753,-156.0503 1403.3513,-143.4764 1490,-112 1526.1502,-98.8679 1568.1288,-85.0804 1596.2069,-76.065"/>
<polygon fill="#191970" stroke="#191970" points="1597.4274,-79.3494 1605.886,-72.9695 1595.295,-72.6821 1597.4274,-79.3494"/>
</g>
<!-- Node45&#45;&gt;Node12 -->
<g id="edge80" class="edge">
<title>Node45&#45;&gt;Node12</title>
<path fill="none" stroke="#191970" d="M943.1477,-548.7585C829.4427,-532.7584 628,-495.1482 628,-429.5 628,-429.5 628,-429.5 628,-368 628,-365.8252 653.6313,-57.6901 655,-56 669.4379,-38.1717 729.5773,-23.9877 769.4646,-16.3068"/>
<polygon fill="#191970" stroke="#191970" points="770.1922,-19.7315 779.3771,-14.4507 768.9037,-12.8511 770.1922,-19.7315"/>
</g>
<!-- Node45&#45;&gt;Node22 -->
<g id="edge77" class="edge">
<title>Node45&#45;&gt;Node22</title>
<path fill="none" stroke="#191970" d="M943.2132,-553.8932C832.9323,-547.2473 638.618,-532.7522 614,-512 584.803,-487.3878 590,-467.6867 590,-429.5 590,-429.5 590,-429.5 590,-306.5 590,-266.195 572.596,-221.5903 561.3445,-196.9654"/>
<polygon fill="#191970" stroke="#191970" points="564.4056,-195.2511 556.9678,-187.7058 558.0769,-198.2425 564.4056,-195.2511"/>
</g>
<!-- Node45&#45;&gt;Node28 -->
<g id="edge81" class="edge">
<title>Node45&#45;&gt;Node28</title>
<path fill="none" stroke="#191970" d="M1012.0188,-548.4323C995.1751,-524.0777 955.7179,-458.518 984,-414 993.9494,-398.339 1010.7982,-387.9161 1027.746,-381.0202"/>
<polygon fill="#191970" stroke="#191970" points="1028.9691,-384.2996 1037.1284,-377.5412 1026.5353,-377.7363 1028.9691,-384.2996"/>
</g>
<!-- Node45&#45;&gt;Node30 -->
<g id="edge79" class="edge">
<title>Node45&#45;&gt;Node30</title>
<path fill="none" stroke="#191970" d="M1094.6124,-549.5074C1099.4804,-548.9888 1104.3084,-548.4823 1109,-548 1278.196,-530.6079 1329.3019,-567.7307 1490,-512 1513.9937,-503.6789 1516.0147,-493.7116 1538,-481 1568.2863,-463.4889 1579.9421,-465.8963 1608,-445 1631.5525,-427.4591 1654.2882,-402.1477 1668.2017,-385.396"/>
<polygon fill="#191970" stroke="#191970" points="1671.0293,-387.4665 1674.6311,-377.5027 1665.6019,-383.0457 1671.0293,-387.4665"/>
</g>
<!-- Node45&#45;&gt;Node31 -->
<g id="edge97" class="edge">
<title>Node45&#45;&gt;Node31</title>
<path fill="none" stroke="#191970" d="M1094.5393,-554.5687C1215.8576,-548.4877 1448.5579,-534.3171 1528,-512 1622.9135,-485.3367 1631.6188,-438.9386 1727,-414 1745.5745,-409.1435 2292.4952,-382.0325 2500.6382,-371.8583"/>
<polygon fill="#191970" stroke="#191970" points="2501.0686,-375.3415 2510.8859,-371.3577 2500.727,-368.3499 2501.0686,-375.3415"/>
</g>
<!-- Node45&#45;&gt;Node46 -->
<g id="edge82" class="edge">
<title>Node45&#45;&gt;Node46</title>
<path fill="none" stroke="#191970" d="M1094.6115,-555.6809C1271.2232,-550.0696 1724.5886,-534.5407 2103,-512 2144.2395,-509.5435 2190.1598,-506.0782 2227.7843,-503.047"/>
<polygon fill="#191970" stroke="#191970" points="2228.4813,-506.502 2238.1655,-502.2047 2227.9152,-499.5249 2228.4813,-506.502"/>
</g>
<!-- Node46&#45;&gt;Node30 -->
<g id="edge96" class="edge">
<title>Node46&#45;&gt;Node30</title>
<path fill="none" stroke="#191970" d="M2245.6061,-486.9373C2207.1524,-479.1769 2156.8258,-466.0039 2116,-445 2096.6187,-435.0288 2098.131,-422.355 2078,-414 1933.5689,-354.0568 1882.4216,-402.6478 1728,-378 1724.0278,-377.366 1719.8827,-376.6061 1715.7779,-375.7922"/>
<polygon fill="#191970" stroke="#191970" points="1716.2841,-372.3224 1705.7791,-373.6987 1714.8496,-379.1738 1716.2841,-372.3224"/>
</g>
<!-- Node46&#45;&gt;Node31 -->
<g id="edge88" class="edge">
<title>Node46&#45;&gt;Node31</title>
<path fill="none" stroke="#191970" d="M2371.7988,-490.5945C2462.5024,-481.89 2615.3123,-464.5216 2632,-445 2648.8584,-425.2787 2624.0069,-399.9437 2603.2019,-383.8337"/>
<polygon fill="#191970" stroke="#191970" points="2605.0754,-380.8663 2594.9526,-377.739 2600.9158,-386.4964 2605.0754,-380.8663"/>
</g>
<!-- Node46&#45;&gt;Node34 -->
<g id="edge87" class="edge">
<title>Node46&#45;&gt;Node34</title>
<path fill="none" stroke="#191970" d="M2269.9116,-486.972C2239.8364,-478.1253 2195.8261,-463.5388 2160,-445 2138.7543,-434.0061 2138.202,-422.9061 2116,-414 2076.6927,-398.2322 1969.7277,-384.4378 1893.3567,-376.1673"/>
<polygon fill="#191970" stroke="#191970" points="1893.5796,-372.6712 1883.2639,-375.087 1892.8346,-379.6315 1893.5796,-372.6712"/>
</g>
<!-- Node47 -->
<g id="node32" class="node">
<title>Node47</title>
<g id="a_node32"><a xlink:href="IJoint_8h.html" target="_top" xlink:title="iDynTree/Model/IJoint.h">
<polygon fill="none" stroke="#000000" points="2684,-420 2684,-439 2812,-439 2812,-420 2684,-420"/>
<text text-anchor="middle" x="2748" y="-427" font-family="FreeSans.ttf" font-size="10.00" fill="#000000">iDynTree/Model/IJoint.h</text>
</a>
</g>
</g>
<!-- Node46&#45;&gt;Node47 -->
<g id="edge83" class="edge">
<title>Node46&#45;&gt;Node47</title>
<path fill="none" stroke="#191970" d="M2371.7775,-488.2185C2445.0969,-478.8603 2566.2121,-462.6201 2670,-445 2677.2057,-443.7767 2684.7666,-442.3965 2692.2278,-440.9767"/>
<polygon fill="#191970" stroke="#191970" points="2693.1452,-444.3641 2702.2975,-439.0269 2691.8145,-437.4918 2693.1452,-444.3641"/>
</g>
<!-- Node48 -->
<g id="node33" class="node">
<title>Node48</title>
<g id="a_node33"><a xlink:href="Link_8h.html" target="_top" xlink:title="iDynTree/Model/Link.h">
<polygon fill="none" stroke="#ff0000" points="2830,-420 2830,-439 2954,-439 2954,-420 2830,-420"/>
<text text-anchor="middle" x="2892" y="-427" font-family="FreeSans.ttf" font-size="10.00" fill="#000000">iDynTree/Model/Link.h</text>
</a>
</g>
</g>
<!-- Node46&#45;&gt;Node48 -->
<g id="edge85" class="edge">
<title>Node46&#45;&gt;Node48</title>
<path fill="none" stroke="#191970" d="M2371.7007,-492.3144C2470.3381,-485.5668 2660.7249,-470.406 2821,-445 2827.8653,-443.9117 2835.064,-442.574 2842.1347,-441.1446"/>
<polygon fill="#191970" stroke="#191970" points="2843.2797,-444.4807 2852.3487,-439.0031 2841.8432,-437.6297 2843.2797,-444.4807"/>
</g>
<!-- Node53 -->
<g id="node34" class="node">
<title>Node53</title>
<g id="a_node34"><a xlink:href="SolidShapes_8h.html" target="_top" xlink:title="iDynTree/Model/SolidShapes.h">
<polygon fill="none" stroke="#000000" points="2168.5,-420 2168.5,-439 2331.5,-439 2331.5,-420 2168.5,-420"/>
<text text-anchor="middle" x="2250" y="-427" font-family="FreeSans.ttf" font-size="10.00" fill="#000000">iDynTree/Model/SolidShapes.h</text>
</a>
</g>
</g>
<!-- Node46&#45;&gt;Node53 -->
<g id="edge89" class="edge">
<title>Node46&#45;&gt;Node53</title>
<path fill="none" stroke="#191970" d="M2297.1198,-486.9005C2288.6248,-476.552 2274.9176,-459.8542 2264.472,-447.1295"/>
<polygon fill="#191970" stroke="#191970" points="2266.9158,-444.5902 2257.8655,-439.0817 2261.5053,-449.0317 2266.9158,-444.5902"/>
</g>
<!-- Node54 -->
<g id="node35" class="node">
<title>Node54</title>
<polygon fill="none" stroke="#bfbfbf" points="2306.5,-358.5 2306.5,-377.5 2355.5,-377.5 2355.5,-358.5 2306.5,-358.5"/>
<text text-anchor="middle" x="2331" y="-365.5" font-family="FreeSans.ttf" font-size="10.00" fill="#000000">cstdlib</text>
</g>
<!-- Node46&#45;&gt;Node54 -->
<g id="edge95" class="edge">
<title>Node46&#45;&gt;Node54</title>
<path fill="none" stroke="#191970" d="M2314.512,-486.8647C2323.3236,-477.2045 2335.8235,-461.4403 2341,-445 2346.9868,-425.9862 2342.7205,-403.2464 2338.0488,-387.4294"/>
<polygon fill="#191970" stroke="#191970" points="2341.3069,-386.1318 2334.8707,-377.716 2334.6539,-388.3086 2341.3069,-386.1318"/>
</g>
<!-- Node47&#45;&gt;Node31 -->
<g id="edge84" class="edge">
<title>Node47&#45;&gt;Node31</title>
<path fill="none" stroke="#191970" d="M2721.75,-419.8906C2693.2707,-409.4652 2647.6257,-392.7559 2615.8543,-381.1252"/>
<polygon fill="#191970" stroke="#191970" points="2616.6594,-377.6929 2606.0657,-377.5419 2614.2531,-384.2663 2616.6594,-377.6929"/>
</g>
<!-- Node48&#45;&gt;Node31 -->
<g id="edge86" class="edge">
<title>Node48&#45;&gt;Node31</title>
<path fill="none" stroke="#191970" d="M2849.2374,-419.9737C2839.9384,-417.9555 2830.147,-415.871 2821,-414 2760.4168,-401.6075 2691.0431,-388.4773 2642.3316,-379.4313"/>
<polygon fill="#191970" stroke="#191970" points="2642.7317,-375.9459 2632.2613,-377.5647 2641.4559,-382.8286 2642.7317,-375.9459"/>
</g>
<!-- Node53&#45;&gt;Node3 -->
<g id="edge91" class="edge">
<title>Node53&#45;&gt;Node3</title>
<path fill="none" stroke="#191970" d="M2250,-419.9309C2250,-399.238 2250,-348.7813 2250,-306.5 2250,-306.5 2250,-306.5 2250,-178 2250,-166.2539 2446.0695,-199.5265 2082,-112 2001.504,-92.6478 1749.8343,-74.2337 1660.1448,-68.125"/>
<polygon fill="#191970" stroke="#191970" points="1660.2457,-64.6239 1650.0325,-67.4418 1659.7738,-71.608 1660.2457,-64.6239"/>
</g>
<!-- Node53&#45;&gt;Node30 -->
<g id="edge92" class="edge">
<title>Node53&#45;&gt;Node30</title>
<path fill="none" stroke="#191970" d="M2170.3188,-419.9826C2152.4543,-417.9326 2133.5861,-415.8327 2116,-414 1943.7477,-396.0489 1899.1544,-404.4436 1728,-378 1724.0247,-377.3858 1719.8776,-376.6381 1715.7718,-375.831"/>
<polygon fill="#191970" stroke="#191970" points="1716.276,-372.3609 1705.7719,-373.7445 1714.8461,-379.2134 1716.276,-372.3609"/>
</g>
<!-- Node53&#45;&gt;Node31 -->
<g id="edge94" class="edge">
<title>Node53&#45;&gt;Node31</title>
<path fill="none" stroke="#191970" d="M2301.2004,-419.9581C2359.9357,-409.012 2456.1817,-391.0752 2518.8153,-379.4026"/>
<polygon fill="#191970" stroke="#191970" points="2519.7615,-382.7866 2528.951,-377.5137 2518.479,-375.9051 2519.7615,-382.7866"/>
</g>
<!-- Node53&#45;&gt;Node34 -->
<g id="edge93" class="edge">
<title>Node53&#45;&gt;Node34</title>
<path fill="none" stroke="#191970" d="M2192.6766,-419.9836C2179.9526,-417.9441 2166.5262,-415.8484 2154,-414 2065.0858,-400.8797 1962.9969,-387.4317 1893.2734,-378.4924"/>
<polygon fill="#191970" stroke="#191970" points="1893.5899,-375.0044 1883.2265,-377.2068 1892.7014,-381.9478 1893.5899,-375.0044"/>
</g>
<!-- Node53&#45;&gt;Node54 -->
<g id="edge90" class="edge">
<title>Node53&#45;&gt;Node54</title>
<path fill="none" stroke="#191970" d="M2262.6563,-419.8906C2275.3768,-410.2324 2295.2004,-395.1812 2310.2284,-383.771"/>
<polygon fill="#191970" stroke="#191970" points="2312.5846,-386.3766 2318.4326,-377.5419 2308.3516,-380.8015 2312.5846,-386.3766"/>
</g>
<!-- Node55&#45;&gt;Node30 -->
<g id="edge99" class="edge">
<title>Node55&#45;&gt;Node30</title>
<path fill="none" stroke="#191970" d="M2387.8431,-418.8688C2372.302,-417.0733 2356.1655,-415.3552 2341,-414 2069.1692,-389.7098 1998.3805,-415.0994 1728,-378 1724.0149,-377.4532 1719.8618,-376.747 1715.7526,-375.9629"/>
<polygon fill="#191970" stroke="#191970" points="1716.2501,-372.492 1705.7492,-373.8999 1714.8362,-379.3477 1716.2501,-372.492"/>
</g>
<!-- Node55&#45;&gt;Node31 -->
<g id="edge100" class="edge">
<title>Node55&#45;&gt;Node31</title>
<path fill="none" stroke="#191970" d="M2496.909,-414.4554C2514.2968,-404.734 2536.8049,-392.15 2554.0084,-382.5317"/>
<polygon fill="#191970" stroke="#191970" points="2555.9335,-385.4653 2562.9539,-377.5303 2552.5174,-379.3554 2555.9335,-385.4653"/>
</g>
<!-- Node56&#45;&gt;Node4 -->
<g id="edge103" class="edge">
<title>Node56&#45;&gt;Node4</title>
<path fill="none" stroke="#191970" d="M153.5726,-676.8713C128.2595,-657.4828 76,-611.033 76,-558 76,-558 76,-558 76,-429.5 76,-320.9479 116.7275,-282.7613 208,-224 264.3477,-187.7233 282.8917,-183.8736 348,-168 417.4417,-151.0699 610.5714,-135.8216 726.1999,-127.846"/>
<polygon fill="#191970" stroke="#191970" points="726.7145,-131.3191 736.452,-127.1439 726.2362,-124.3354 726.7145,-131.3191"/>
</g>
<!-- Node57&#45;&gt;Node4 -->
<g id="edge108" class="edge">
<title>Node57&#45;&gt;Node4</title>
<path fill="none" stroke="#191970" d="M269.1689,-419.9095C231.4244,-409.2042 185.0231,-389.1721 203,-358 248.662,-278.822 309.519,-311.9618 381,-255 422.3169,-222.0754 415.0173,-192.1606 462,-168 506.702,-145.0122 636.6592,-132.7087 726.2773,-126.7657"/>
<polygon fill="#191970" stroke="#191970" points="726.6991,-130.2458 736.4519,-126.1067 726.2466,-123.2604 726.6991,-130.2458"/>
</g>
<!-- Node57&#45;&gt;Node5 -->
<g id="edge116" class="edge">
<title>Node57&#45;&gt;Node5</title>
<path fill="none" stroke="#191970" d="M331.8515,-419.9771C355.5057,-407.2347 390.1614,-383.2933 376,-358 329.3412,-274.6638 154.4549,-303.0879 208,-224 273.7272,-126.9188 589.1226,-131.9712 728,-112 817.1909,-99.174 920.0918,-84.8139 986.4979,-75.6039"/>
<polygon fill="#191970" stroke="#191970" points="987.0047,-79.0672 996.4294,-74.2272 986.0435,-72.1335 987.0047,-79.0672"/>
</g>
<!-- Node57&#45;&gt;Node6 -->
<g id="edge105" class="edge">
<title>Node57&#45;&gt;Node6</title>
<path fill="none" stroke="#191970" d="M322.1527,-419.69C335.7097,-405.37 356.5337,-378.2467 343,-358 319.7452,-323.2103 290.4365,-345.7747 256,-322 167.5378,-260.9263 65.0692,-192.7736 136,-112 238.358,4.5619 669.7461,-49.8093 840.4614,-19.9438"/>
<polygon fill="#191970" stroke="#191970" points="841.1821,-23.3695 850.3486,-18.0567 839.8697,-16.4936 841.1821,-23.3695"/>
</g>
<!-- Node57&#45;&gt;Node27 -->
<g id="edge109" class="edge">
<title>Node57&#45;&gt;Node27</title>
<path fill="none" stroke="#191970" d="M392.7275,-421.0133C500.13,-409.7222 689.6377,-389.7996 803.2463,-377.8562"/>
<polygon fill="#191970" stroke="#191970" points="803.7418,-381.3234 813.321,-376.797 803.0099,-374.3618 803.7418,-381.3234"/>
</g>
<!-- Node57&#45;&gt;Node28 -->
<g id="edge107" class="edge">
<title>Node57&#45;&gt;Node28</title>
<path fill="none" stroke="#191970" d="M392.6945,-424.2212C517.8942,-415.8421 766.7676,-398.4334 988.09,-378.1542"/>
<polygon fill="#191970" stroke="#191970" points="988.6374,-381.6187 998.2747,-377.2172 987.9961,-374.6481 988.6374,-381.6187"/>
</g>
<!-- Node57&#45;&gt;Node24 -->
<g id="edge110" class="edge">
<title>Node57&#45;&gt;Node24</title>
<path fill="none" stroke="#191970" d="M292.5749,-419.8878C267.0151,-406.0388 227.595,-379.7466 248,-358 291.0432,-312.127 751.438,-334.9295 813,-322 954.6875,-292.2422 1113.9115,-221.8661 1177.9961,-191.8999"/>
<polygon fill="#191970" stroke="#191970" points="1179.541,-195.0412 1187.0981,-187.6155 1176.5597,-188.7078 1179.541,-195.0412"/>
</g>
<!-- Node57&#45;&gt;Node34 -->
<g id="edge115" class="edge">
<title>Node57&#45;&gt;Node34</title>
<path fill="none" stroke="#191970" d="M392.7668,-428.4609C607.9538,-425.2756 1212.9364,-413.5974 1715,-378 1718.8901,-377.7242 1722.8671,-377.4147 1726.8823,-377.0799"/>
<polygon fill="#191970" stroke="#191970" points="1727.2574,-380.5606 1736.9136,-376.2009 1726.6462,-373.5873 1727.2574,-380.5606"/>
</g>
<!-- Node57&#45;&gt;Node40 -->
<g id="edge114" class="edge">
<title>Node57&#45;&gt;Node40</title>
<path fill="none" stroke="#191970" d="M278.7693,-419.9177C241.6767,-407.6328 189.8318,-384.7004 214,-358 242.3653,-326.6627 506.8047,-313.5879 645.6875,-308.8455"/>
<polygon fill="#191970" stroke="#191970" points="645.9951,-312.3373 655.8726,-308.505 645.7612,-305.3412 645.9951,-312.3373"/>
</g>
<!-- Node58 -->
<g id="node39" class="node">
<title>Node58</title>
<polygon fill="none" stroke="#bfbfbf" points="256.5,-358.5 256.5,-377.5 333.5,-377.5 333.5,-358.5 256.5,-358.5"/>
<text text-anchor="middle" x="295" y="-365.5" font-family="FreeSans.ttf" font-size="10.00" fill="#000000">Eigen/Dense</text>
</g>
<!-- Node57&#45;&gt;Node58 -->
<g id="edge106" class="edge">
<title>Node57&#45;&gt;Node58</title>
<path fill="none" stroke="#191970" d="M309.3438,-419.8906C306.9625,-411.276 303.3952,-398.3708 300.414,-387.5858"/>
<polygon fill="#191970" stroke="#191970" points="303.7316,-386.4509 297.6937,-377.7449 296.9846,-388.3159 303.7316,-386.4509"/>
</g>
<!-- Node36 -->
<g id="node40" class="node">
<title>Node36</title>
<g id="a_node40"><a xlink:href="SpatialMotionVector_8h.html" target="_top" xlink:title="iDynTree/Core/SpatialMotion\lVector.h">
<polygon fill="none" stroke="#ff0000" points="216.5,-224.5 216.5,-254.5 371.5,-254.5 371.5,-224.5 216.5,-224.5"/>
<text text-anchor="start" x="224.5" y="-242.5" font-family="FreeSans.ttf" font-size="10.00" fill="#000000">iDynTree/Core/SpatialMotion</text>
<text text-anchor="middle" x="294" y="-231.5" font-family="FreeSans.ttf" font-size="10.00" fill="#000000">Vector.h</text>
</a>
</g>
</g>
<!-- Node57&#45;&gt;Node36 -->
<g id="edge111" class="edge">
<title>Node57&#45;&gt;Node36</title>
<path fill="none" stroke="#191970" d="M254.0304,-419.9728C209.0656,-411.2616 152.092,-396.8672 138,-378 100.841,-328.2494 183.4316,-283.0138 242.0362,-258.5615"/>
<polygon fill="#191970" stroke="#191970" points="243.6363,-261.6889 251.5759,-254.6737 240.9945,-255.2066 243.6363,-261.6889"/>
</g>
<!-- Node36&#45;&gt;Node4 -->
<g id="edge112" class="edge">
<title>Node36&#45;&gt;Node4</title>
<path fill="none" stroke="#191970" d="M307.9674,-224.4699C324.7119,-207.5345 354.4844,-180.7157 386,-168 445.7454,-143.8943 618.3834,-131.4562 726.1687,-125.8619"/>
<polygon fill="#191970" stroke="#191970" points="726.5819,-129.3455 736.3911,-125.3417 726.2261,-122.3545 726.5819,-129.3455"/>
</g>
<!-- Node36&#45;&gt;Node22 -->
<g id="edge113" class="edge">
<title>Node36&#45;&gt;Node22</title>
<path fill="none" stroke="#191970" d="M357.1139,-224.4554C401.7667,-213.8114 460.8166,-199.7356 502.1692,-189.8783"/>
<polygon fill="#191970" stroke="#191970" points="503.1033,-193.2538 512.0192,-187.5303 501.4801,-186.4445 503.1033,-193.2538"/>
</g>
<!-- Node59&#45;&gt;Node5 -->
<g id="edge120" class="edge">
<title>Node59&#45;&gt;Node5</title>
<path fill="none" stroke="#191970" d="M1078.1874,-486.9959C1032.5896,-479.0218 970.722,-465.5782 919,-445 864.3939,-423.2743 834.1874,-429.009 805,-378 789.6803,-351.2267 824.5572,-344.1746 846,-322 926.9558,-238.2816 1011.295,-126.7442 1042.9631,-83.8475"/>
<polygon fill="#191970" stroke="#191970" points="1045.7978,-85.9005 1048.9011,-75.7704 1040.1579,-81.7543 1045.7978,-85.9005"/>
</g>
<!-- Node59&#45;&gt;Node28 -->
<g id="edge118" class="edge">
<title>Node59&#45;&gt;Node28</title>
<path fill="none" stroke="#191970" d="M1097.8481,-486.9339C1058.6697,-477.6095 1006.3472,-462.3315 994,-445 986.0058,-433.7786 986.8625,-425.7849 994,-414 1003.1826,-398.8386 1019.1848,-388.4355 1035.0472,-381.4143"/>
<polygon fill="#191970" stroke="#191970" points="1036.3624,-384.6579 1044.318,-377.6607 1033.7353,-378.1695 1036.3624,-384.6579"/>
</g>
<!-- Node59&#45;&gt;Node29 -->
<g id="edge119" class="edge">
<title>Node59&#45;&gt;Node29</title>
<path fill="none" stroke="#191970" d="M1166.927,-486.9005C1195.6975,-475.3579 1244.1564,-455.9163 1276.6017,-442.8993"/>
<polygon fill="#191970" stroke="#191970" points="1278.1397,-446.0535 1286.1174,-439.0817 1275.5332,-439.5569 1278.1397,-446.0535"/>
</g>
<!-- Node59&#45;&gt;Node30 -->
<g id="edge121" class="edge">
<title>Node59&#45;&gt;Node30</title>
<path fill="none" stroke="#191970" d="M1193.3181,-486.9721C1242.4501,-477.3915 1319.2143,-461.6845 1385,-445 1432.1648,-433.0381 1442.9914,-426.5615 1490,-414 1545.0895,-399.2791 1609.6605,-384.2652 1648.1262,-375.5556"/>
<polygon fill="#191970" stroke="#191970" points="1649.2686,-378.886 1658.2536,-373.2717 1647.7286,-372.0575 1649.2686,-378.886"/>
</g>
<!-- Node60&#45;&gt;Node31 -->
<g id="edge123" class="edge">
<title>Node60&#45;&gt;Node31</title>
<path fill="none" stroke="#191970" d="M3284.5996,-548.3459C3243.9773,-521.6605 3124.1952,-446.7151 3013,-414 2948.7152,-395.0865 2765.8147,-380.3085 2659.411,-373.0085"/>
<polygon fill="#191970" stroke="#191970" points="2659.5735,-369.5116 2649.3592,-372.3255 2659.0989,-376.4955 2659.5735,-369.5116"/>
</g>
<!-- Node61&#45;&gt;Node27 -->
<g id="edge125" class="edge">
<title>Node61&#45;&gt;Node27</title>
<path fill="none" stroke="#191970" d="M1617.7715,-490.9524C1456.288,-479.1037 1092.3009,-451.8468 1066,-445 1012.0421,-430.9535 953.8658,-400.7482 921.7917,-382.6244"/>
<polygon fill="#191970" stroke="#191970" points="923.5025,-379.5709 913.0855,-377.6376 920.0233,-385.645 923.5025,-379.5709"/>
</g>
<!-- Node61&#45;&gt;Node31 -->
<g id="edge126" class="edge">
<title>Node61&#45;&gt;Node31</title>
<path fill="none" stroke="#191970" d="M1770.0381,-491.3674C1816.5207,-488.2696 1877.1878,-484.2971 1931,-481 2000.983,-476.7121 2507.0579,-489.7911 2561,-445 2577.5017,-431.2977 2580.956,-405.7598 2581.1314,-387.864"/>
<polygon fill="#191970" stroke="#191970" points="2584.6254,-387.5607 2580.891,-377.6458 2577.6273,-387.7254 2584.6254,-387.5607"/>
</g>
<!-- Node61&#45;&gt;Node33 -->
<g id="edge127" class="edge">
<title>Node61&#45;&gt;Node33</title>
<path fill="none" stroke="#191970" d="M1710.62,-486.9005C1730.0012,-475.7062 1762.2455,-457.0823 1784.7315,-444.0947"/>
<polygon fill="#191970" stroke="#191970" points="1786.502,-447.114 1793.4109,-439.0817 1783.0009,-441.0525 1786.502,-447.114"/>
</g>
<!-- Node61&#45;&gt;Node44 -->
<g id="edge128" class="edge">
<title>Node61&#45;&gt;Node44</title>
<path fill="none" stroke="#191970" d="M1617.8553,-489.5708C1526.6284,-480.8967 1369.2724,-464.7514 1235,-445 1226.5733,-443.7604 1217.7031,-442.3082 1209.0006,-440.7986"/>
<polygon fill="#191970" stroke="#191970" points="1209.3555,-437.3071 1198.8984,-439.0095 1208.1348,-444.1998 1209.3555,-437.3071"/>
</g>
<!-- Node63 -->
<g id="node45" class="node">
<title>Node63</title>
<g id="a_node45"><a xlink:href="SixAxisForceTorqueSensor_8h.html" target="_top" xlink:title="iDynTree/Sensors/SixAxis\lForceTorqueSensor.h">
<polygon fill="none" stroke="#000000" points="1101,-604.5 1101,-634.5 1241,-634.5 1241,-604.5 1101,-604.5"/>
<text text-anchor="start" x="1109" y="-622.5" font-family="FreeSans.ttf" font-size="10.00" fill="#000000">iDynTree/Sensors/SixAxis</text>
<text text-anchor="middle" x="1171" y="-611.5" font-family="FreeSans.ttf" font-size="10.00" fill="#000000">ForceTorqueSensor.h</text>
</a>
</g>
</g>
<!-- Node62&#45;&gt;Node63 -->
<g id="edge133" class="edge">
<title>Node62&#45;&gt;Node63</title>
<path fill="none" stroke="#191970" d="M939.1014,-671.4639C984.9939,-661.1803 1045.9515,-647.5209 1093.8514,-636.7875"/>
<polygon fill="#191970" stroke="#191970" points="1094.8717,-640.1457 1103.8644,-634.5438 1093.341,-633.3151 1094.8717,-640.1457"/>
</g>
<!-- Node64 -->
<g id="node46" class="node">
<title>Node64</title>
<g id="a_node46"><a xlink:href="AccelerometerSensor_8h.html" target="_top" xlink:title="iDynTree/Sensors/Accelerometer\lSensor.h">
<polygon fill="none" stroke="#000000" points="512.5,-604.5 512.5,-634.5 687.5,-634.5 687.5,-604.5 512.5,-604.5"/>
<text text-anchor="start" x="520.5" y="-622.5" font-family="FreeSans.ttf" font-size="10.00" fill="#000000">iDynTree/Sensors/Accelerometer</text>
<text text-anchor="middle" x="600" y="-611.5" font-family="FreeSans.ttf" font-size="10.00" fill="#000000">Sensor.h</text>
</a>
</g>
</g>
<!-- Node62&#45;&gt;Node64 -->
<g id="edge137" class="edge">
<title>Node62&#45;&gt;Node64</title>
<path fill="none" stroke="#191970" d="M810.9579,-671.4639C769.5442,-661.2627 714.6447,-647.7397 671.2322,-637.0462"/>
<polygon fill="#191970" stroke="#191970" points="671.8553,-633.5951 661.3083,-634.6017 670.181,-640.3919 671.8553,-633.5951"/>
</g>
<!-- Node65 -->
<g id="node47" class="node">
<title>Node65</title>
<g id="a_node47"><a xlink:href="GyroscopeSensor_8h.html" target="_top" xlink:title="iDynTree/Sensors/Gyroscope\lSensor.h">
<polygon fill="none" stroke="#000000" points="705.5,-604.5 705.5,-634.5 860.5,-634.5 860.5,-604.5 705.5,-604.5"/>
<text text-anchor="start" x="713.5" y="-622.5" font-family="FreeSans.ttf" font-size="10.00" fill="#000000">iDynTree/Sensors/Gyroscope</text>
<text text-anchor="middle" x="783" y="-611.5" font-family="FreeSans.ttf" font-size="10.00" fill="#000000">Sensor.h</text>
</a>
</g>
</g>
<!-- Node62&#45;&gt;Node65 -->
<g id="edge140" class="edge">
<title>Node62&#45;&gt;Node65</title>
<path fill="none" stroke="#191970" d="M851.8045,-671.2967C839.8564,-662.302 824.5361,-650.7687 811.3862,-640.8694"/>
<polygon fill="#191970" stroke="#191970" points="813.2098,-637.8613 803.1156,-634.6432 808.9998,-643.4538 813.2098,-637.8613"/>
</g>
<!-- Node66 -->
<g id="node48" class="node">
<title>Node66</title>
<g id="a_node48"><a xlink:href="ThreeAxisAngularAccelerometerSensor_8h.html" target="_top" xlink:title="iDynTree/Sensors/ThreeAxis\lAngularAccelerometerSensor.h">
<polygon fill="none" stroke="#000000" points="878.5,-604.5 878.5,-634.5 1045.5,-634.5 1045.5,-604.5 878.5,-604.5"/>
<text text-anchor="start" x="886.5" y="-622.5" font-family="FreeSans.ttf" font-size="10.00" fill="#000000">iDynTree/Sensors/ThreeAxis</text>
<text text-anchor="middle" x="962" y="-611.5" font-family="FreeSans.ttf" font-size="10.00" fill="#000000">AngularAccelerometerSensor.h</text>
</a>
</g>
</g>
<!-- Node62&#45;&gt;Node66 -->
<g id="edge144" class="edge">
<title>Node62&#45;&gt;Node66</title>
<path fill="none" stroke="#191970" d="M892.4224,-671.2967C904.5048,-662.302 919.9972,-650.7687 933.2948,-640.8694"/>
<polygon fill="#191970" stroke="#191970" points="935.7271,-643.4221 941.6584,-634.6432 931.5471,-637.8072 935.7271,-643.4221"/>
</g>
<!-- Node67 -->
<g id="node49" class="node">
<title>Node67</title>
<g id="a_node49"><a xlink:href="ThreeAxisForceTorqueContactSensor_8h.html" target="_top" xlink:title="iDynTree/Sensors/ThreeAxis\lForceTorqueContactSensor.h">
<polygon fill="none" stroke="#000000" points="340,-604.5 340,-634.5 494,-634.5 494,-604.5 340,-604.5"/>
<text text-anchor="start" x="348" y="-622.5" font-family="FreeSans.ttf" font-size="10.00" fill="#000000">iDynTree/Sensors/ThreeAxis</text>
<text text-anchor="middle" x="417" y="-611.5" font-family="FreeSans.ttf" font-size="10.00" fill="#000000">ForceTorqueContactSensor.h</text>
</a>
</g>
</g>
<!-- Node62&#45;&gt;Node67 -->
<g id="edge147" class="edge">
<title>Node62&#45;&gt;Node67</title>
<path fill="none" stroke="#191970" d="M794.3387,-676.4866C722.0315,-666.9677 610.997,-651.8531 504.277,-635.0079"/>
<polygon fill="#191970" stroke="#191970" points="504.7208,-631.5346 494.296,-633.4253 503.6245,-638.4482 504.7208,-631.5346"/>
</g>
<!-- Node63&#45;&gt;Node30 -->
<g id="edge136" class="edge">
<title>Node63&#45;&gt;Node30</title>
<path fill="none" stroke="#191970" d="M1238.9236,-604.4354C1312.1143,-586.9768 1431.1236,-555.004 1528,-512 1580.6677,-488.6205 1598.9475,-486.4282 1639,-445 1655.3926,-428.0443 1667.6259,-403.6167 1674.7706,-386.847"/>
<polygon fill="#191970" stroke="#191970" points="1678.0342,-388.1125 1678.5532,-377.5304 1671.5484,-385.4792 1678.0342,-388.1125"/>
</g>
<!-- Node63&#45;&gt;Node33 -->
<g id="edge135" class="edge">
<title>Node63&#45;&gt;Node33</title>
<path fill="none" stroke="#191970" d="M1241.1362,-615.684C1383.1232,-606.6186 1697.9884,-579.2962 1779,-512 1797.7918,-496.3897 1805.2017,-468.1599 1808.1175,-449.1241"/>
<polygon fill="#191970" stroke="#191970" points="1811.5976,-449.5008 1809.367,-439.1434 1804.6518,-448.6311 1811.5976,-449.5008"/>
</g>
<!-- Node63&#45;&gt;Node45 -->
<g id="edge134" class="edge">
<title>Node63&#45;&gt;Node45</title>
<path fill="none" stroke="#191970" d="M1133.8166,-604.4554C1108.7887,-594.329 1076.0837,-581.0964 1051.9834,-571.3453"/>
<polygon fill="#191970" stroke="#191970" points="1053.1373,-568.0366 1042.5546,-567.5303 1050.5118,-574.5256 1053.1373,-568.0366"/>
</g>
<!-- Node64&#45;&gt;Node22 -->
<g id="edge138" class="edge">
<title>Node64&#45;&gt;Node22</title>
<path fill="none" stroke="#191970" d="M553.689,-604.4778C534.7975,-596.3113 514.1217,-584.445 500,-568 478.1622,-542.5694 476,-530.0202 476,-496.5 476,-496.5 476,-496.5 476,-306.5 476,-268.3133 479.56,-256.2557 500,-224 507.4597,-212.2281 518.7887,-201.7061 528.9701,-193.7064"/>
<polygon fill="#191970" stroke="#191970" points="531.2212,-196.3937 537.1424,-187.6079 527.0347,-190.7836 531.2212,-196.3937"/>
</g>
<!-- Node64&#45;&gt;Node45 -->
<g id="edge139" class="edge">
<title>Node64&#45;&gt;Node45</title>
<path fill="none" stroke="#191970" d="M687.7587,-605.41C690.877,-604.9306 693.9648,-604.4593 697,-604 779.679,-591.4894 874.4452,-578.0611 939.6525,-568.9625"/>
<polygon fill="#191970" stroke="#191970" points="940.4366,-572.3872 949.8577,-567.5402 939.4703,-565.4542 940.4366,-572.3872"/>
</g>
<!-- Node65&#45;&gt;Node22 -->
<g id="edge141" class="edge">
<title>Node65&#45;&gt;Node22</title>
<path fill="none" stroke="#191970" d="M705.268,-605.0829C635.9455,-591.9281 544.4033,-573.6967 538,-568 512.9562,-545.7197 514,-530.0202 514,-496.5 514,-496.5 514,-496.5 514,-306.5 514,-266.195 531.404,-221.5903 542.6555,-196.9654"/>
<polygon fill="#191970" stroke="#191970" points="545.9231,-198.2425 547.0322,-187.7058 539.5944,-195.2511 545.9231,-198.2425"/>
</g>
<!-- Node65&#45;&gt;Node30 -->
<g id="edge143" class="edge">
<title>Node65&#45;&gt;Node30</title>
<path fill="none" stroke="#191970" d="M807.4648,-604.482C836.6372,-587.4234 887.4401,-560.3573 935,-548 1047.7534,-518.7038 1351.5862,-559.41 1458,-512 1476.0876,-503.9415 1474.2452,-492.9952 1490,-481 1544.1855,-439.7447 1614.6634,-401.7831 1653.3879,-382.1012"/>
<polygon fill="#191970" stroke="#191970" points="1655.164,-385.1255 1662.5197,-377.5002 1652.0143,-378.8741 1655.164,-385.1255"/>
</g>
<!-- Node65&#45;&gt;Node45 -->
<g id="edge142" class="edge">
<title>Node65&#45;&gt;Node45</title>
<path fill="none" stroke="#191970" d="M840.7321,-604.4554C881.3183,-593.8789 934.9073,-579.914 972.6967,-570.0663"/>
<polygon fill="#191970" stroke="#191970" points="973.6342,-573.439 982.4284,-567.5303 971.8689,-566.6652 973.6342,-573.439"/>
</g>
<!-- Node66&#45;&gt;Node22 -->
<g id="edge145" class="edge">
<title>Node66&#45;&gt;Node22</title>
<path fill="none" stroke="#191970" d="M885.843,-604.494C767.2741,-580.064 552,-530.9634 552,-496.5 552,-496.5 552,-496.5 552,-306.5 552,-268.0012 552,-223.0145 552,-197.7812"/>
<polygon fill="#191970" stroke="#191970" points="555.5001,-197.6718 552,-187.6719 548.5001,-197.6719 555.5001,-197.6718"/>
</g>
<!-- Node66&#45;&gt;Node45 -->
<g id="edge146" class="edge">
<title>Node66&#45;&gt;Node45</title>
<path fill="none" stroke="#191970" d="M976.0899,-604.2977C984.2493,-595.4941 994.5472,-584.3833 1003.0095,-575.2529"/>
<polygon fill="#191970" stroke="#191970" points="1005.6429,-577.5604 1009.8736,-567.8469 1000.5089,-572.8021 1005.6429,-577.5604"/>
</g>
<!-- Node67&#45;&gt;Node22 -->
<g id="edge148" class="edge">
<title>Node67&#45;&gt;Node22</title>
<path fill="none" stroke="#191970" d="M421.2497,-604.4923C427.3859,-581.4619 438,-535.927 438,-496.5 438,-496.5 438,-496.5 438,-306.5 438,-265.555 451.5469,-254.3779 479,-224 490.8643,-210.8717 507.3223,-200.0648 521.6087,-192.2323"/>
<polygon fill="#191970" stroke="#191970" points="523.3758,-195.2578 530.6131,-187.5201 520.1302,-189.0557 523.3758,-195.2578"/>
</g>
<!-- Node67&#45;&gt;Node45 -->
<g id="edge149" class="edge">
<title>Node67&#45;&gt;Node45</title>
<path fill="none" stroke="#191970" d="M494.2666,-605.3734C497.5515,-604.8869 500.8065,-604.4263 504,-604 654.4757,-583.9142 830.8921,-570.2913 933.3052,-563.3581"/>
<polygon fill="#191970" stroke="#191970" points="933.5433,-566.8501 943.2863,-562.6877 933.0742,-559.8658 933.5433,-566.8501"/>
</g>
<!-- Node68&#45;&gt;Node2 -->
<g id="edge151" class="edge">
<title>Node68&#45;&gt;Node2</title>
<path fill="none" stroke="#191970" d="M1371.9583,-481.1381C1399.2857,-428.3879 1489.2554,-254.7192 1519.2047,-196.9079"/>
<polygon fill="#191970" stroke="#191970" points="1522.4314,-198.2882 1523.9236,-187.799 1516.2159,-195.0682 1522.4314,-198.2882"/>
</g>
<!-- Node68&#45;&gt;Node4 -->
<g id="edge155" class="edge">
<title>Node68&#45;&gt;Node4</title>
<path fill="none" stroke="#191970" d="M1279.4424,-486.4495C1263.993,-484.6262 1248.0136,-482.7489 1233,-481 1093.4736,-464.7473 1052.217,-489.5531 919,-445 863.2651,-426.36 834.1874,-429.009 805,-378 800.5854,-370.2849 801.3339,-366.0977 805,-358 815.0013,-335.9088 835.9987,-344.0912 846,-322 874.2286,-259.6479 864.9971,-233.7552 846,-168 843.1062,-157.9836 837.3122,-148.0485 831.6587,-139.9887"/>
<polygon fill="#191970" stroke="#191970" points="834.3003,-137.6776 825.4977,-131.7814 828.7021,-141.88 834.3003,-137.6776"/>
</g>
<!-- Node68&#45;&gt;Node19 -->
<g id="edge152" class="edge">
<title>Node68&#45;&gt;Node19</title>
<path fill="none" stroke="#191970" d="M1384.7783,-481.271C1409.7652,-463.4494 1453.4226,-433.8553 1494,-414 1582.8738,-370.5124 1693.9114,-336.0767 1754.8143,-318.7552"/>
<polygon fill="#191970" stroke="#191970" points="1755.8319,-322.1049 1764.5071,-316.0229 1753.9326,-315.3674 1755.8319,-322.1049"/>
</g>
<!-- Node68&#45;&gt;Node27 -->
<g id="edge153" class="edge">
<title>Node68&#45;&gt;Node27</title>
<path fill="none" stroke="#191970" d="M1279.3811,-486.2272C1160.891,-471.7854 959.4923,-447.0055 956,-445 932.5873,-431.5551 915.3606,-404.7534 905.7537,-386.596"/>
<polygon fill="#191970" stroke="#191970" points="908.822,-384.9066 901.2096,-377.5376 902.5651,-388.0454 908.822,-384.9066"/>
</g>
<!-- Node68&#45;&gt;Node28 -->
<g id="edge154" class="edge">
<title>Node68&#45;&gt;Node28</title>
<path fill="none" stroke="#191970" d="M1279.2609,-482.5209C1191.7833,-467.9926 1067.749,-447.0771 1066,-445 1052.2529,-428.6734 1061.2603,-403.5752 1070.3591,-386.5053"/>
<polygon fill="#191970" stroke="#191970" points="1073.5842,-387.9193 1075.5555,-377.5095 1067.5228,-384.4179 1073.5842,-387.9193"/>
</g>
<!-- Node68&#45;&gt;Node30 -->
<g id="edge158" class="edge">
<title>Node68&#45;&gt;Node30</title>
<path fill="none" stroke="#191970" d="M1408.2785,-481.4147C1433.8713,-472.0946 1466.3713,-459.2196 1494,-445 1516.5805,-433.3785 1519.0825,-424.9421 1542,-414 1576.8529,-397.3593 1619.2839,-384.3485 1648.2359,-376.4731"/>
<polygon fill="#191970" stroke="#191970" points="1649.4903,-379.7612 1658.2536,-373.8068 1647.6898,-372.9967 1649.4903,-379.7612"/>
</g>
<!-- Node68&#45;&gt;Node31 -->
<g id="edge156" class="edge">
<title>Node68&#45;&gt;Node31</title>
<path fill="none" stroke="#191970" d="M1411.7807,-481.4558C1475.4446,-462.1294 1591.9362,-429.2611 1694,-414 1733.507,-408.0927 2290.9379,-381.5459 2500.8323,-371.6947"/>
<polygon fill="#191970" stroke="#191970" points="2501.0363,-375.1891 2510.8613,-371.2243 2500.7083,-368.1967 2501.0363,-375.1891"/>
</g>
<!-- Node68&#45;&gt;Node33 -->
<g id="edge157" class="edge">
<title>Node68&#45;&gt;Node33</title>
<path fill="none" stroke="#191970" d="M1448.6761,-483.7796C1531.729,-471.303 1657.0878,-452.4711 1736.1867,-440.5885"/>
<polygon fill="#191970" stroke="#191970" points="1737.184,-443.9781 1746.5531,-439.0313 1736.1441,-437.0558 1737.184,-443.9781"/>
</g>
</g>
</svg>
