<?xml version="1.0" encoding="UTF-8" standalone="no"?>
<!DOCTYPE svg PUBLIC "-//W3C//DTD SVG 1.1//EN"
 "http://www.w3.org/Graphics/SVG/1.1/DTD/svg11.dtd">
<!-- Generated by graphviz version 2.40.1 (20161225.0304)
 -->
<!-- Title: ContactWrench.h Pages: 1 -->
<svg width="1242pt" height="666pt"
 viewBox="0.00 0.00 1241.50 666.00" xmlns="http://www.w3.org/2000/svg" xmlns:xlink="http://www.w3.org/1999/xlink">
<g id="graph0" class="graph" transform="scale(1 1) rotate(0) translate(4 662)">
<title>ContactWrench.h</title>
<!-- Node0 -->
<g id="node1" class="node">
<title>Node0</title>
<polygon fill="#bfbfbf" stroke="#000000" points="844,-638.5 844,-657.5 943,-657.5 943,-638.5 844,-638.5"/>
<text text-anchor="middle" x="893.5" y="-645.5" font-family="FreeSans.ttf" font-size="10.00" fill="#000000">ContactWrench.h</text>
</g>
<!-- Node1 -->
<g id="node2" class="node">
<title>Node1</title>
<g id="a_node2"><a xlink:href="Position_8h.html" target="_top" xlink:title="iDynTree/Core/Position.h">
<polygon fill="none" stroke="#000000" points="281.5,-347.5 281.5,-366.5 417.5,-366.5 417.5,-347.5 281.5,-347.5"/>
<text text-anchor="middle" x="349.5" y="-354.5" font-family="FreeSans.ttf" font-size="10.00" fill="#000000">iDynTree/Core/Position.h</text>
</a>
</g>
</g>
<!-- Node0&#45;&gt;Node1 -->
<g id="edge1" class="edge">
<title>Node0&#45;&gt;Node1</title>
<path fill="none" stroke="#191970" d="M843.7365,-645.5624C680.1644,-636.8958 169.5,-604.3644 169.5,-536 169.5,-536 169.5,-536 169.5,-474.5 169.5,-415.0745 239.1438,-384.1149 291.7916,-369.2007"/>
<polygon fill="#191970" stroke="#191970" points="292.9951,-372.5011 301.7359,-366.5137 291.1691,-365.7435 292.9951,-372.5011"/>
</g>
<!-- Node25 -->
<g id="node26" class="node">
<title>Node25</title>
<g id="a_node26"><a xlink:href="Wrench_8h.html" target="_top" xlink:title="iDynTree/Core/Wrench.h">
<polygon fill="none" stroke="#000000" points="827,-526.5 827,-545.5 960,-545.5 960,-526.5 827,-526.5"/>
<text text-anchor="middle" x="893.5" y="-533.5" font-family="FreeSans.ttf" font-size="10.00" fill="#000000">iDynTree/Core/Wrench.h</text>
</a>
</g>
</g>
<!-- Node0&#45;&gt;Node25 -->
<g id="edge43" class="edge">
<title>Node0&#45;&gt;Node25</title>
<path fill="none" stroke="#191970" d="M893.5,-638.4509C893.5,-620.184 893.5,-579.9553 893.5,-555.6976"/>
<polygon fill="#191970" stroke="#191970" points="897.0001,-555.5249 893.5,-545.5249 890.0001,-555.5249 897.0001,-555.5249"/>
</g>
<!-- Node28 -->
<g id="node29" class="node">
<title>Node28</title>
<g id="a_node29"><a xlink:href="Indices_8h.html" target="_top" xlink:title="iDynTree/Model/Indices.h">
<polygon fill="none" stroke="#000000" points="978.5,-526.5 978.5,-545.5 1116.5,-545.5 1116.5,-526.5 978.5,-526.5"/>
<text text-anchor="middle" x="1047.5" y="-533.5" font-family="FreeSans.ttf" font-size="10.00" fill="#000000">iDynTree/Model/Indices.h</text>
</a>
</g>
</g>
<!-- Node0&#45;&gt;Node28 -->
<g id="edge54" class="edge">
<title>Node0&#45;&gt;Node28</title>
<path fill="none" stroke="#191970" d="M906.63,-638.4509C933.2245,-619.1094 993.6735,-575.1465 1026.0632,-551.5904"/>
<polygon fill="#191970" stroke="#191970" points="1028.3745,-554.2372 1034.4033,-545.5249 1024.2573,-548.5761 1028.3745,-554.2372"/>
</g>
<!-- Node30 -->
<g id="node31" class="node">
<title>Node30</title>
<g id="a_node31"><a xlink:href="LinkState_8h.html" target="_top" xlink:title="iDynTree/Model/LinkState.h">
<polygon fill="none" stroke="#000000" points="695,-582.5 695,-601.5 844,-601.5 844,-582.5 695,-582.5"/>
<text text-anchor="middle" x="769.5" y="-589.5" font-family="FreeSans.ttf" font-size="10.00" fill="#000000">iDynTree/Model/LinkState.h</text>
</a>
</g>
</g>
<!-- Node0&#45;&gt;Node30 -->
<g id="edge58" class="edge">
<title>Node0&#45;&gt;Node30</title>
<path fill="none" stroke="#191970" d="M872.1836,-638.3733C852.2784,-629.3838 822.3564,-615.8706 799.94,-605.7471"/>
<polygon fill="#191970" stroke="#191970" points="801.0925,-602.4272 790.5382,-601.5011 798.2113,-608.8068 801.0925,-602.4272"/>
</g>
<!-- Node36 -->
<g id="node37" class="node">
<title>Node36</title>
<polygon fill="none" stroke="#bfbfbf" points="1135,-526.5 1135,-545.5 1182,-545.5 1182,-526.5 1135,-526.5"/>
<text text-anchor="middle" x="1158.5" y="-533.5" font-family="FreeSans.ttf" font-size="10.00" fill="#000000">vector</text>
</g>
<!-- Node0&#45;&gt;Node36 -->
<g id="edge77" class="edge">
<title>Node0&#45;&gt;Node36</title>
<path fill="none" stroke="#191970" d="M916.0938,-638.4509C963.2261,-618.5308 1072.152,-572.4942 1126.4815,-549.5323"/>
<polygon fill="#191970" stroke="#191970" points="1128.1149,-552.6418 1135.9634,-545.5249 1125.3897,-546.1941 1128.1149,-552.6418"/>
</g>
<!-- Node2 -->
<g id="node3" class="node">
<title>Node2</title>
<g id="a_node3"><a xlink:href="PositionRaw_8h.html" target="_top" xlink:title="iDynTree/Core/PositionRaw.h">
<polygon fill="none" stroke="#000000" points="235.5,-230 235.5,-249 391.5,-249 391.5,-230 235.5,-230"/>
<text text-anchor="middle" x="313.5" y="-237" font-family="FreeSans.ttf" font-size="10.00" fill="#000000">iDynTree/Core/PositionRaw.h</text>
</a>
</g>
</g>
<!-- Node1&#45;&gt;Node2 -->
<g id="edge2" class="edge">
<title>Node1&#45;&gt;Node2</title>
<path fill="none" stroke="#191970" d="M346.554,-347.3845C340.6471,-328.1053 327.2555,-284.3963 319.4512,-258.9241"/>
<polygon fill="#191970" stroke="#191970" points="322.7627,-257.7844 316.4867,-249.2484 316.0698,-259.835 322.7627,-257.7844"/>
</g>
<!-- Node16 -->
<g id="node17" class="node">
<title>Node16</title>
<polygon fill="none" stroke="#bfbfbf" points="335.5,-112.5 335.5,-131.5 379.5,-131.5 379.5,-112.5 335.5,-112.5"/>
<text text-anchor="middle" x="357.5" y="-119.5" font-family="FreeSans.ttf" font-size="10.00" fill="#000000">string</text>
</g>
<!-- Node1&#45;&gt;Node16 -->
<g id="edge42" class="edge">
<title>Node1&#45;&gt;Node16</title>
<path fill="none" stroke="#191970" d="M327.6141,-347.4823C285.4714,-327.6751 199.5004,-279.2415 226.5,-224 247.0895,-181.8736 294.4076,-152.099 326.1719,-135.9884"/>
<polygon fill="#191970" stroke="#191970" points="328.0418,-138.9699 335.4836,-131.4287 324.9633,-132.6831 328.0418,-138.9699"/>
</g>
<!-- Node19 -->
<g id="node20" class="node">
<title>Node19</title>
<g id="a_node20"><a xlink:href="Rotation_8h.html" target="_top" xlink:title="iDynTree/Core/Rotation.h">
<polygon fill="none" stroke="#000000" points="496,-291.5 496,-310.5 633,-310.5 633,-291.5 496,-291.5"/>
<text text-anchor="middle" x="564.5" y="-298.5" font-family="FreeSans.ttf" font-size="10.00" fill="#000000">iDynTree/Core/Rotation.h</text>
</a>
</g>
</g>
<!-- Node1&#45;&gt;Node19 -->
<g id="edge23" class="edge">
<title>Node1&#45;&gt;Node19</title>
<path fill="none" stroke="#191970" d="M386.4598,-347.3733C422.9075,-337.8799 478.7246,-323.3415 518.1289,-313.0781"/>
<polygon fill="#191970" stroke="#191970" points="519.2276,-316.4087 528.0225,-310.5011 517.4631,-309.6348 519.2276,-316.4087"/>
</g>
<!-- Node3 -->
<g id="node4" class="node">
<title>Node3</title>
<g id="a_node4"><a xlink:href="VectorFixSize_8h.html" target="_top" xlink:title="iDynTree/Core/VectorFixSize.h">
<polygon fill="none" stroke="#000000" points="775,-168.5 775,-187.5 936,-187.5 936,-168.5 775,-168.5"/>
<text text-anchor="middle" x="855.5" y="-175.5" font-family="FreeSans.ttf" font-size="10.00" fill="#000000">iDynTree/Core/VectorFixSize.h</text>
</a>
</g>
</g>
<!-- Node2&#45;&gt;Node3 -->
<g id="edge3" class="edge">
<title>Node2&#45;&gt;Node3</title>
<path fill="none" stroke="#191970" d="M391.7326,-230.6231C490.4636,-219.4202 659.9698,-200.1865 764.4229,-188.3344"/>
<polygon fill="#191970" stroke="#191970" points="765.0946,-191.7807 774.6362,-187.1755 764.3054,-184.8254 765.0946,-191.7807"/>
</g>
<!-- Node2&#45;&gt;Node16 -->
<g id="edge22" class="edge">
<title>Node2&#45;&gt;Node16</title>
<path fill="none" stroke="#191970" d="M317.1007,-229.8845C324.3202,-210.6053 340.6878,-166.8963 350.2263,-141.4241"/>
<polygon fill="#191970" stroke="#191970" points="353.6203,-142.3407 353.8495,-131.7484 347.0649,-139.8859 353.6203,-142.3407"/>
</g>
<!-- Node4 -->
<g id="node5" class="node">
<title>Node4</title>
<g id="a_node5"><a xlink:href="Utils_8h.html" target="_top" xlink:title="iDynTree/Core/Utils.h">
<polygon fill="none" stroke="#000000" points="879,-56.5 879,-75.5 998,-75.5 998,-56.5 879,-56.5"/>
<text text-anchor="middle" x="938.5" y="-63.5" font-family="FreeSans.ttf" font-size="10.00" fill="#000000">iDynTree/Core/Utils.h</text>
</a>
</g>
</g>
<!-- Node3&#45;&gt;Node4 -->
<g id="edge4" class="edge">
<title>Node3&#45;&gt;Node4</title>
<path fill="none" stroke="#191970" d="M869.2884,-168.3144C880.6719,-159.7767 896.6619,-146.4711 907.5,-132 918.2642,-117.6276 926.6171,-98.9199 931.9261,-85.0935"/>
<polygon fill="#191970" stroke="#191970" points="935.2413,-86.2184 935.3821,-75.6245 928.6656,-83.8183 935.2413,-86.2184"/>
</g>
<!-- Node5 -->
<g id="node6" class="node">
<title>Node5</title>
<polygon fill="none" stroke="#bfbfbf" points="1090,-.5 1090,-19.5 1143,-19.5 1143,-.5 1090,-.5"/>
<text text-anchor="middle" x="1116.5" y="-7.5" font-family="FreeSans.ttf" font-size="10.00" fill="#000000">cstddef</text>
</g>
<!-- Node3&#45;&gt;Node5 -->
<g id="edge20" class="edge">
<title>Node3&#45;&gt;Node5</title>
<path fill="none" stroke="#191970" d="M870.2803,-168.4862C913.5154,-140.6567 1040.0175,-59.2301 1092.8689,-25.2108"/>
<polygon fill="#191970" stroke="#191970" points="1095.044,-27.9732 1101.5583,-19.6177 1091.2553,-22.0871 1095.044,-27.9732"/>
</g>
<!-- Node7 -->
<g id="node8" class="node">
<title>Node7</title>
<g id="a_node8"><a xlink:href="Span_8h.html" target="_top" xlink:title="iDynTree/Core/Span.h">
<polygon fill="none" stroke="#000000" points="740,-56.5 740,-75.5 861,-75.5 861,-56.5 740,-56.5"/>
<text text-anchor="middle" x="800.5" y="-63.5" font-family="FreeSans.ttf" font-size="10.00" fill="#000000">iDynTree/Core/Span.h</text>
</a>
</g>
</g>
<!-- Node3&#45;&gt;Node7 -->
<g id="edge7" class="edge">
<title>Node3&#45;&gt;Node7</title>
<path fill="none" stroke="#191970" d="M867.6425,-168.4541C882.6084,-155.4869 904.6546,-131.6666 892.5,-112 883.0039,-96.6351 866.6495,-86.2306 850.3388,-79.2655"/>
<polygon fill="#191970" stroke="#191970" points="851.3811,-75.9155 840.7925,-75.5505 848.8424,-82.4389 851.3811,-75.9155"/>
</g>
<!-- Node8 -->
<g id="node9" class="node">
<title>Node8</title>
<polygon fill="none" stroke="#bfbfbf" points="410.5,-.5 410.5,-19.5 462.5,-19.5 462.5,-.5 410.5,-.5"/>
<text text-anchor="middle" x="436.5" y="-7.5" font-family="FreeSans.ttf" font-size="10.00" fill="#000000">cassert</text>
</g>
<!-- Node3&#45;&gt;Node8 -->
<g id="edge19" class="edge">
<title>Node3&#45;&gt;Node8</title>
<path fill="none" stroke="#191970" d="M847.2481,-168.472C834.3796,-154.1872 808.1275,-127.2712 780.5,-112 773.5433,-108.1547 558.8833,-45.5662 472.2417,-20.3786"/>
<polygon fill="#191970" stroke="#191970" points="473.1527,-16.9986 462.5732,-17.5686 471.199,-23.7205 473.1527,-16.9986"/>
</g>
<!-- Node3&#45;&gt;Node16 -->
<g id="edge17" class="edge">
<title>Node3&#45;&gt;Node16</title>
<path fill="none" stroke="#191970" d="M774.747,-170.2432C688.436,-161.7416 547.6386,-147.2674 426.5,-132 414.455,-130.4819 401.257,-128.6184 389.6582,-126.9132"/>
<polygon fill="#191970" stroke="#191970" points="389.9412,-123.4168 379.5348,-125.4061 388.9104,-130.3405 389.9412,-123.4168"/>
</g>
<!-- Node17 -->
<g id="node18" class="node">
<title>Node17</title>
<polygon fill="none" stroke="#bfbfbf" points="827.5,-112.5 827.5,-131.5 883.5,-131.5 883.5,-112.5 827.5,-112.5"/>
<text text-anchor="middle" x="855.5" y="-119.5" font-family="FreeSans.ttf" font-size="10.00" fill="#000000">sstream</text>
</g>
<!-- Node3&#45;&gt;Node17 -->
<g id="edge18" class="edge">
<title>Node3&#45;&gt;Node17</title>
<path fill="none" stroke="#191970" d="M855.5,-168.2455C855.5,-160.9382 855.5,-150.6944 855.5,-141.7046"/>
<polygon fill="#191970" stroke="#191970" points="859.0001,-141.6426 855.5,-131.6427 852.0001,-141.6427 859.0001,-141.6426"/>
</g>
<!-- Node18 -->
<g id="node19" class="node">
<title>Node18</title>
<polygon fill="none" stroke="#bfbfbf" points="721.5,-112.5 721.5,-131.5 771.5,-131.5 771.5,-112.5 721.5,-112.5"/>
<text text-anchor="middle" x="746.5" y="-119.5" font-family="FreeSans.ttf" font-size="10.00" fill="#000000">cstring</text>
</g>
<!-- Node3&#45;&gt;Node18 -->
<g id="edge21" class="edge">
<title>Node3&#45;&gt;Node18</title>
<path fill="none" stroke="#191970" d="M836.5136,-168.2455C819.3208,-159.4125 793.7762,-146.2887 774.2868,-136.2758"/>
<polygon fill="#191970" stroke="#191970" points="775.763,-133.0993 765.2688,-131.6427 772.5641,-139.3257 775.763,-133.0993"/>
</g>
<!-- Node4&#45;&gt;Node5 -->
<g id="edge5" class="edge">
<title>Node4&#45;&gt;Node5</title>
<path fill="none" stroke="#191970" d="M969.0993,-56.3733C999.9071,-46.6809 1047.4303,-31.7298 1080.1423,-21.4384"/>
<polygon fill="#191970" stroke="#191970" points="1081.2952,-24.7449 1089.7839,-18.4051 1079.1944,-18.0675 1081.2952,-24.7449"/>
</g>
<!-- Node6 -->
<g id="node7" class="node">
<title>Node6</title>
<polygon fill="none" stroke="#bfbfbf" points="991.5,-.5 991.5,-19.5 1071.5,-19.5 1071.5,-.5 991.5,-.5"/>
<text text-anchor="middle" x="1031.5" y="-7.5" font-family="FreeSans.ttf" font-size="10.00" fill="#000000">CoreExport.h</text>
</g>
<!-- Node4&#45;&gt;Node6 -->
<g id="edge6" class="edge">
<title>Node4&#45;&gt;Node6</title>
<path fill="none" stroke="#191970" d="M954.6994,-56.2455C969.1018,-47.5731 990.3732,-34.7645 1006.8799,-24.825"/>
<polygon fill="#191970" stroke="#191970" points="1008.725,-27.7996 1015.4863,-19.6427 1005.114,-21.8028 1008.725,-27.7996"/>
</g>
<!-- Node7&#45;&gt;Node5 -->
<g id="edge11" class="edge">
<title>Node7&#45;&gt;Node5</title>
<path fill="none" stroke="#191970" d="M861.1421,-56.8237C926.1849,-46.8513 1026.2855,-31.0973 1079.789,-19.9213"/>
<polygon fill="#191970" stroke="#191970" points="1080.8081,-23.282 1089.8442,-17.7502 1079.3307,-16.4396 1080.8081,-23.282"/>
</g>
<!-- Node7&#45;&gt;Node8 -->
<g id="edge8" class="edge">
<title>Node7&#45;&gt;Node8</title>
<path fill="none" stroke="#191970" d="M739.7722,-57.7317C657.0682,-46.4424 515.1596,-26.9591 472.7191,-19.7753"/>
<polygon fill="#191970" stroke="#191970" points="473.2451,-16.3133 462.7747,-17.9321 471.9693,-23.196 473.2451,-16.3133"/>
</g>
<!-- Node9 -->
<g id="node10" class="node">
<title>Node9</title>
<polygon fill="none" stroke="#bfbfbf" points="631.5,-.5 631.5,-19.5 695.5,-19.5 695.5,-.5 631.5,-.5"/>
<text text-anchor="middle" x="663.5" y="-7.5" font-family="FreeSans.ttf" font-size="10.00" fill="#000000">algorithm</text>
</g>
<!-- Node7&#45;&gt;Node9 -->
<g id="edge9" class="edge">
<title>Node7&#45;&gt;Node9</title>
<path fill="none" stroke="#191970" d="M776.9489,-56.3733C754.6609,-47.2629 721.0063,-33.5062 696.1363,-23.3404"/>
<polygon fill="#191970" stroke="#191970" points="697.3247,-20.0451 686.7438,-19.5011 694.6761,-26.5247 697.3247,-20.0451"/>
</g>
<!-- Node10 -->
<g id="node11" class="node">
<title>Node10</title>
<polygon fill="none" stroke="#bfbfbf" points="713.5,-.5 713.5,-19.5 755.5,-19.5 755.5,-.5 713.5,-.5"/>
<text text-anchor="middle" x="734.5" y="-7.5" font-family="FreeSans.ttf" font-size="10.00" fill="#000000">array</text>
</g>
<!-- Node7&#45;&gt;Node10 -->
<g id="edge10" class="edge">
<title>Node7&#45;&gt;Node10</title>
<path fill="none" stroke="#191970" d="M789.0037,-56.2455C779.2558,-47.9746 765.0741,-35.9416 753.6202,-26.2232"/>
<polygon fill="#191970" stroke="#191970" points="755.7541,-23.4437 745.8646,-19.6427 751.2253,-28.7813 755.7541,-23.4437"/>
</g>
<!-- Node11 -->
<g id="node12" class="node">
<title>Node11</title>
<polygon fill="none" stroke="#bfbfbf" points="774,-.5 774,-19.5 827,-19.5 827,-.5 774,-.5"/>
<text text-anchor="middle" x="800.5" y="-7.5" font-family="FreeSans.ttf" font-size="10.00" fill="#000000">iterator</text>
</g>
<!-- Node7&#45;&gt;Node11 -->
<g id="edge12" class="edge">
<title>Node7&#45;&gt;Node11</title>
<path fill="none" stroke="#191970" d="M800.5,-56.2455C800.5,-48.9382 800.5,-38.6944 800.5,-29.7046"/>
<polygon fill="#191970" stroke="#191970" points="804.0001,-29.6426 800.5,-19.6427 797.0001,-29.6427 804.0001,-29.6426"/>
</g>
<!-- Node12 -->
<g id="node13" class="node">
<title>Node12</title>
<polygon fill="none" stroke="#bfbfbf" points="845.5,-.5 845.5,-19.5 889.5,-19.5 889.5,-.5 845.5,-.5"/>
<text text-anchor="middle" x="867.5" y="-7.5" font-family="FreeSans.ttf" font-size="10.00" fill="#000000">limits</text>
</g>
<!-- Node7&#45;&gt;Node12 -->
<g id="edge13" class="edge">
<title>Node7&#45;&gt;Node12</title>
<path fill="none" stroke="#191970" d="M812.1705,-56.2455C822.0661,-47.9746 836.4627,-35.9416 848.0901,-26.2232"/>
<polygon fill="#191970" stroke="#191970" points="850.535,-28.7413 855.9632,-19.6427 846.0458,-23.3703 850.535,-28.7413"/>
</g>
<!-- Node13 -->
<g id="node14" class="node">
<title>Node13</title>
<polygon fill="none" stroke="#bfbfbf" points="908,-.5 908,-19.5 973,-19.5 973,-.5 908,-.5"/>
<text text-anchor="middle" x="940.5" y="-7.5" font-family="FreeSans.ttf" font-size="10.00" fill="#000000">stdexcept</text>
</g>
<!-- Node7&#45;&gt;Node13 -->
<g id="edge14" class="edge">
<title>Node7&#45;&gt;Node13</title>
<path fill="none" stroke="#191970" d="M824.5669,-56.3733C847.3428,-47.2629 881.7344,-33.5062 907.149,-23.3404"/>
<polygon fill="#191970" stroke="#191970" points="908.7623,-26.4648 916.7472,-19.5011 906.1625,-19.9654 908.7623,-26.4648"/>
</g>
<!-- Node14 -->
<g id="node15" class="node">
<title>Node14</title>
<polygon fill="none" stroke="#bfbfbf" points="481,-.5 481,-19.5 550,-19.5 550,-.5 481,-.5"/>
<text text-anchor="middle" x="515.5" y="-7.5" font-family="FreeSans.ttf" font-size="10.00" fill="#000000">type_traits</text>
</g>
<!-- Node7&#45;&gt;Node14 -->
<g id="edge15" class="edge">
<title>Node7&#45;&gt;Node14</title>
<path fill="none" stroke="#191970" d="M747.0269,-56.4804C700.1137,-47.9826 629.8122,-34.8965 560.0452,-20.2724"/>
<polygon fill="#191970" stroke="#191970" points="560.7137,-16.8364 550.2069,-18.1989 559.2701,-23.686 560.7137,-16.8364"/>
</g>
<!-- Node15 -->
<g id="node16" class="node">
<title>Node15</title>
<polygon fill="none" stroke="#bfbfbf" points="568,-.5 568,-19.5 613,-19.5 613,-.5 568,-.5"/>
<text text-anchor="middle" x="590.5" y="-7.5" font-family="FreeSans.ttf" font-size="10.00" fill="#000000">utility</text>
</g>
<!-- Node7&#45;&gt;Node15 -->
<g id="edge16" class="edge">
<title>Node7&#45;&gt;Node15</title>
<path fill="none" stroke="#191970" d="M761.1078,-56.4203C726.9856,-47.9882 676.0933,-35.0926 622.8049,-19.9867"/>
<polygon fill="#191970" stroke="#191970" points="623.7601,-16.6196 613.1836,-17.2424 621.84,-23.3511 623.7601,-16.6196"/>
</g>
<!-- Node19&#45;&gt;Node3 -->
<g id="edge41" class="edge">
<title>Node19&#45;&gt;Node3</title>
<path fill="none" stroke="#191970" d="M584.8742,-291.3822C603.0078,-282.5815 630.0574,-268.8571 652.5,-255 672.5464,-242.6224 674.3092,-234.2963 695.5,-224 727.4029,-208.4989 765.4865,-197.2887 796.494,-189.8176"/>
<polygon fill="#191970" stroke="#191970" points="797.3571,-193.2103 806.2959,-187.5227 795.7613,-186.3946 797.3571,-193.2103"/>
</g>
<!-- Node19&#45;&gt;Node16 -->
<g id="edge24" class="edge">
<title>Node19&#45;&gt;Node16</title>
<path fill="none" stroke="#191970" d="M540.7224,-291.3812C522.1929,-283.2452 496.3637,-270.4571 476.5,-255 431.9029,-220.2964 390.451,-167.5352 370.2985,-140.0602"/>
<polygon fill="#191970" stroke="#191970" points="373.0029,-137.8271 364.3069,-131.7747 367.3305,-141.9289 373.0029,-137.8271"/>
</g>
<!-- Node20 -->
<g id="node21" class="node">
<title>Node20</title>
<g id="a_node21"><a xlink:href="GeomVector3_8h.html" target="_top" xlink:title="iDynTree/Core/GeomVector3.h">
<polygon fill="none" stroke="#000000" points="738,-230 738,-249 901,-249 901,-230 738,-230"/>
<text text-anchor="middle" x="819.5" y="-237" font-family="FreeSans.ttf" font-size="10.00" fill="#000000">iDynTree/Core/GeomVector3.h</text>
</a>
</g>
</g>
<!-- Node19&#45;&gt;Node20 -->
<g id="edge25" class="edge">
<title>Node19&#45;&gt;Node20</title>
<path fill="none" stroke="#191970" d="M604.064,-291.4581C648.73,-280.6857 721.4687,-263.1428 769.897,-251.4631"/>
<polygon fill="#191970" stroke="#191970" points="770.9426,-254.8113 779.8432,-249.0643 769.3013,-248.0065 770.9426,-254.8113"/>
</g>
<!-- Node21 -->
<g id="node22" class="node">
<title>Node21</title>
<g id="a_node22"><a xlink:href="RotationRaw_8h.html" target="_top" xlink:title="iDynTree/Core/RotationRaw.h">
<polygon fill="none" stroke="#000000" points="485.5,-230 485.5,-249 643.5,-249 643.5,-230 485.5,-230"/>
<text text-anchor="middle" x="564.5" y="-237" font-family="FreeSans.ttf" font-size="10.00" fill="#000000">iDynTree/Core/RotationRaw.h</text>
</a>
</g>
</g>
<!-- Node19&#45;&gt;Node21 -->
<g id="edge27" class="edge">
<title>Node19&#45;&gt;Node21</title>
<path fill="none" stroke="#191970" d="M564.5,-291.3906C564.5,-282.8657 564.5,-270.1392 564.5,-259.4235"/>
<polygon fill="#191970" stroke="#191970" points="568.0001,-259.2448 564.5,-249.2449 561.0001,-259.2449 568.0001,-259.2448"/>
</g>
<!-- Node20&#45;&gt;Node3 -->
<g id="edge26" class="edge">
<title>Node20&#45;&gt;Node3</title>
<path fill="none" stroke="#191970" d="M825.125,-229.8906C830.3253,-221.0068 838.1966,-207.5601 844.6233,-196.5811"/>
<polygon fill="#191970" stroke="#191970" points="847.7644,-198.1432 849.7957,-187.7449 841.7233,-194.6069 847.7644,-198.1432"/>
</g>
<!-- Node21&#45;&gt;Node16 -->
<g id="edge40" class="edge">
<title>Node21&#45;&gt;Node16</title>
<path fill="none" stroke="#191970" d="M547.5603,-229.8845C511.3075,-209.3062 426.0215,-160.8951 383.1091,-136.5365"/>
<polygon fill="#191970" stroke="#191970" points="384.8078,-133.4763 374.3834,-131.5836 381.3523,-139.5639 384.8078,-133.4763"/>
</g>
<!-- Node22 -->
<g id="node23" class="node">
<title>Node22</title>
<g id="a_node23"><a xlink:href="MatrixFixSize_8h.html" target="_top" xlink:title="iDynTree/Core/MatrixFixSize.h">
<polygon fill="none" stroke="#000000" points="535,-168.5 535,-187.5 696,-187.5 696,-168.5 535,-168.5"/>
<text text-anchor="middle" x="615.5" y="-175.5" font-family="FreeSans.ttf" font-size="10.00" fill="#000000">iDynTree/Core/MatrixFixSize.h</text>
</a>
</g>
</g>
<!-- Node21&#45;&gt;Node22 -->
<g id="edge28" class="edge">
<title>Node21&#45;&gt;Node22</title>
<path fill="none" stroke="#191970" d="M572.4688,-229.8906C580.0591,-220.7376 591.6661,-206.7409 600.9132,-195.59"/>
<polygon fill="#191970" stroke="#191970" points="603.7297,-197.6766 607.4189,-187.7449 598.3413,-193.2083 603.7297,-197.6766"/>
</g>
<!-- Node22&#45;&gt;Node4 -->
<g id="edge29" class="edge">
<title>Node22&#45;&gt;Node4</title>
<path fill="none" stroke="#191970" d="M615.2564,-168.2322C615.4675,-153.6343 618.1898,-126.3149 634.5,-112 635.6046,-111.0306 779.2175,-89.6018 868.6338,-76.338"/>
<polygon fill="#191970" stroke="#191970" points="869.3408,-79.7716 878.7192,-74.8425 868.314,-72.8473 869.3408,-79.7716"/>
</g>
<!-- Node22&#45;&gt;Node8 -->
<g id="edge35" class="edge">
<title>Node22&#45;&gt;Node8</title>
<path fill="none" stroke="#191970" d="M535.6328,-168.4946C490.4681,-161.2958 440.3234,-149.5914 426.5,-132 403.2003,-102.3493 417.0053,-55.1881 427.6714,-29.0367"/>
<polygon fill="#191970" stroke="#191970" points="430.8991,-30.3908 431.6589,-19.8232 424.4749,-27.6104 430.8991,-30.3908"/>
</g>
<!-- Node22&#45;&gt;Node16 -->
<g id="edge37" class="edge">
<title>Node22&#45;&gt;Node16</title>
<path fill="none" stroke="#191970" d="M564.5869,-168.4517C519.451,-159.749 451.8378,-146.1299 393.5,-132 392.2234,-131.6908 390.9234,-131.3679 389.6119,-131.0355"/>
<polygon fill="#191970" stroke="#191970" points="390.0865,-127.5408 379.5241,-128.368 388.297,-134.3082 390.0865,-127.5408"/>
</g>
<!-- Node22&#45;&gt;Node17 -->
<g id="edge39" class="edge">
<title>Node22&#45;&gt;Node17</title>
<path fill="none" stroke="#191970" d="M656.4848,-168.4369C701.6004,-157.9099 773.54,-141.124 817.4502,-130.8783"/>
<polygon fill="#191970" stroke="#191970" points="818.4991,-134.2276 827.4422,-128.5468 816.9084,-127.4108 818.4991,-134.2276"/>
</g>
<!-- Node22&#45;&gt;Node18 -->
<g id="edge36" class="edge">
<title>Node22&#45;&gt;Node18</title>
<path fill="none" stroke="#191970" d="M638.0197,-168.3733C659.2372,-159.3032 691.2276,-145.6279 714.9769,-135.4755"/>
<polygon fill="#191970" stroke="#191970" points="716.4548,-138.6502 724.2742,-131.5011 713.7033,-132.2136 716.4548,-138.6502"/>
</g>
<!-- Node23 -->
<g id="node24" class="node">
<title>Node23</title>
<g id="a_node24"><a xlink:href="MatrixView_8h.html" target="_top" xlink:title="iDynTree/Core/MatrixView.h">
<polygon fill="none" stroke="#000000" points="436,-112.5 436,-131.5 587,-131.5 587,-112.5 436,-112.5"/>
<text text-anchor="middle" x="511.5" y="-119.5" font-family="FreeSans.ttf" font-size="10.00" fill="#000000">iDynTree/Core/MatrixView.h</text>
</a>
</g>
</g>
<!-- Node22&#45;&gt;Node23 -->
<g id="edge30" class="edge">
<title>Node22&#45;&gt;Node23</title>
<path fill="none" stroke="#191970" d="M597.3846,-168.2455C581.055,-159.4527 556.829,-146.4079 538.2661,-136.4125"/>
<polygon fill="#191970" stroke="#191970" points="539.8719,-133.3021 529.4078,-131.6427 536.5532,-139.4654 539.8719,-133.3021"/>
</g>
<!-- Node24 -->
<g id="node25" class="node">
<title>Node24</title>
<polygon fill="none" stroke="#bfbfbf" points="643.5,-112.5 643.5,-131.5 703.5,-131.5 703.5,-112.5 643.5,-112.5"/>
<text text-anchor="middle" x="673.5" y="-119.5" font-family="FreeSans.ttf" font-size="10.00" fill="#000000">iostream</text>
</g>
<!-- Node22&#45;&gt;Node24 -->
<g id="edge38" class="edge">
<title>Node22&#45;&gt;Node24</title>
<path fill="none" stroke="#191970" d="M625.6028,-168.2455C634.0028,-160.1352 646.1494,-148.4075 656.1084,-138.7919"/>
<polygon fill="#191970" stroke="#191970" points="658.75,-141.1066 663.5129,-131.6427 653.8878,-136.0707 658.75,-141.1066"/>
</g>
<!-- Node23&#45;&gt;Node4 -->
<g id="edge34" class="edge">
<title>Node23&#45;&gt;Node4</title>
<path fill="none" stroke="#191970" d="M587.194,-112.7154C657.6141,-103.9828 765.7523,-90.3322 868.8453,-76.2106"/>
<polygon fill="#191970" stroke="#191970" points="869.3741,-79.671 878.8048,-74.8427 868.4216,-72.7361 869.3741,-79.671"/>
</g>
<!-- Node23&#45;&gt;Node7 -->
<g id="edge33" class="edge">
<title>Node23&#45;&gt;Node7</title>
<path fill="none" stroke="#191970" d="M560.8525,-112.4369C610.8322,-102.7522 688.1498,-87.7703 741.3742,-77.4569"/>
<polygon fill="#191970" stroke="#191970" points="742.1995,-80.8622 751.3511,-75.5237 740.8678,-73.99 742.1995,-80.8622"/>
</g>
<!-- Node23&#45;&gt;Node8 -->
<g id="edge31" class="edge">
<title>Node23&#45;&gt;Node8</title>
<path fill="none" stroke="#191970" d="M505.1055,-112.4509C492.5964,-93.7707 464.7079,-52.1238 448.6046,-28.0761"/>
<polygon fill="#191970" stroke="#191970" points="451.3506,-25.8865 442.8783,-19.5249 445.5342,-29.7814 451.3506,-25.8865"/>
</g>
<!-- Node23&#45;&gt;Node14 -->
<g id="edge32" class="edge">
<title>Node23&#45;&gt;Node14</title>
<path fill="none" stroke="#191970" d="M511.841,-112.4509C512.4934,-94.184 513.9302,-53.9553 514.7965,-29.6976"/>
<polygon fill="#191970" stroke="#191970" points="518.3006,-29.6435 515.1598,-19.5249 511.305,-29.3936 518.3006,-29.6435"/>
</g>
<!-- Node26 -->
<g id="node27" class="node">
<title>Node26</title>
<g id="a_node27"><a xlink:href="SpatialForceVector_8h.html" target="_top" xlink:title="iDynTree/Core/SpatialForce\lVector.h">
<polygon fill="none" stroke="#000000" points="856.5,-459.5 856.5,-489.5 1004.5,-489.5 1004.5,-459.5 856.5,-459.5"/>
<text text-anchor="start" x="864.5" y="-477.5" font-family="FreeSans.ttf" font-size="10.00" fill="#000000">iDynTree/Core/SpatialForce</text>
<text text-anchor="middle" x="930.5" y="-466.5" font-family="FreeSans.ttf" font-size="10.00" fill="#000000">Vector.h</text>
</a>
</g>
</g>
<!-- Node25&#45;&gt;Node26 -->
<g id="edge44" class="edge">
<title>Node25&#45;&gt;Node26</title>
<path fill="none" stroke="#191970" d="M899.2813,-526.3906C903.8251,-518.838 910.353,-507.9876 916.2659,-498.1593"/>
<polygon fill="#191970" stroke="#191970" points="919.2926,-499.9177 921.4488,-489.5446 913.2945,-496.309 919.2926,-499.9177"/>
</g>
<!-- Node26&#45;&gt;Node3 -->
<g id="edge45" class="edge">
<title>Node26&#45;&gt;Node3</title>
<path fill="none" stroke="#191970" d="M949.1574,-459.3756C970.8736,-440.4418 1005.5401,-405.7521 1019.5,-367 1041.0399,-307.2059 1057.8955,-274.6467 1019.5,-224 1007.9796,-208.8037 966.4406,-197.2436 928.0543,-189.513"/>
<polygon fill="#191970" stroke="#191970" points="928.3467,-186.0044 917.8627,-187.5324 927.0113,-192.8759 928.3467,-186.0044"/>
</g>
<!-- Node26&#45;&gt;Node20 -->
<g id="edge46" class="edge">
<title>Node26&#45;&gt;Node20</title>
<path fill="none" stroke="#191970" d="M939.3087,-459.4884C946.7196,-444.8647 955.1301,-422.1072 948.5,-403 926.6147,-339.9292 869.1926,-282.7848 838.8805,-255.8277"/>
<polygon fill="#191970" stroke="#191970" points="840.9393,-252.9792 831.102,-249.0451 836.3388,-258.2552 840.9393,-252.9792"/>
</g>
<!-- Node27 -->
<g id="node28" class="node">
<title>Node27</title>
<g id="a_node28"><a xlink:href="SpatialVector_8h.html" target="_top" xlink:title="iDynTree/Core/SpatialVector.h">
<polygon fill="none" stroke="#000000" points="778,-403.5 778,-422.5 939,-422.5 939,-403.5 778,-403.5"/>
<text text-anchor="middle" x="858.5" y="-410.5" font-family="FreeSans.ttf" font-size="10.00" fill="#000000">iDynTree/Core/SpatialVector.h</text>
</a>
</g>
</g>
<!-- Node26&#45;&gt;Node27 -->
<g id="edge47" class="edge">
<title>Node26&#45;&gt;Node27</title>
<path fill="none" stroke="#191970" d="M912.7022,-459.2977C902.0833,-450.2274 888.5969,-438.7077 877.7333,-429.4285"/>
<polygon fill="#191970" stroke="#191970" points="879.9051,-426.6805 870.0281,-422.8469 875.3587,-432.0031 879.9051,-426.6805"/>
</g>
<!-- Node27&#45;&gt;Node1 -->
<g id="edge48" class="edge">
<title>Node27&#45;&gt;Node1</title>
<path fill="none" stroke="#191970" d="M777.8474,-404.1266C681.8321,-393.5631 522.58,-376.0422 427.6704,-365.6003"/>
<polygon fill="#191970" stroke="#191970" points="427.8809,-362.1024 417.5581,-364.4877 427.1154,-369.0604 427.8809,-362.1024"/>
</g>
<!-- Node27&#45;&gt;Node4 -->
<g id="edge50" class="edge">
<title>Node27&#45;&gt;Node4</title>
<path fill="none" stroke="#191970" d="M883.4499,-403.4235C933.947,-382.2267 1043.5,-326.2444 1043.5,-239.5 1043.5,-239.5 1043.5,-239.5 1043.5,-178 1043.5,-133.1218 998.0761,-98.8269 966.9816,-80.6081"/>
<polygon fill="#191970" stroke="#191970" points="968.68,-77.5478 958.2497,-75.688 965.2438,-83.6463 968.68,-77.5478"/>
</g>
<!-- Node27&#45;&gt;Node17 -->
<g id="edge53" class="edge">
<title>Node27&#45;&gt;Node17</title>
<path fill="none" stroke="#191970" d="M871.3099,-403.327C881.8107,-394.7969 896.3792,-381.4955 905.5,-367 953.5442,-290.6441 992.588,-244.9493 945.5,-168 934.1126,-149.3911 912.5583,-138.0076 893.3982,-131.2205"/>
<polygon fill="#191970" stroke="#191970" points="894.2552,-127.8194 883.6635,-128.0764 892.1037,-134.4805 894.2552,-127.8194"/>
</g>
<!-- Node27&#45;&gt;Node19 -->
<g id="edge49" class="edge">
<title>Node27&#45;&gt;Node19</title>
<path fill="none" stroke="#191970" d="M833.4337,-403.4509C780.818,-383.4069 658.7904,-336.9202 598.904,-314.1063"/>
<polygon fill="#191970" stroke="#191970" points="600.0937,-310.8142 589.5028,-310.5249 597.6017,-317.3556 600.0937,-310.8142"/>
</g>
<!-- Node27&#45;&gt;Node20 -->
<g id="edge51" class="edge">
<title>Node27&#45;&gt;Node20</title>
<path fill="none" stroke="#191970" d="M856.3476,-403.4248C850.1828,-375.999 832.3648,-296.732 823.9724,-259.3964"/>
<polygon fill="#191970" stroke="#191970" points="827.3018,-258.2485 821.6938,-249.2595 820.4722,-259.7837 827.3018,-258.2485"/>
</g>
<!-- Node27&#45;&gt;Node24 -->
<g id="edge52" class="edge">
<title>Node27&#45;&gt;Node24</title>
<path fill="none" stroke="#191970" d="M866.5152,-403.2092C890.1015,-373.1625 954.9004,-280.8669 910.5,-224 869.9014,-172.0023 826.4343,-215.5659 766.5,-188 738.3669,-175.0606 709.8958,-153.296 692.001,-138.32"/>
<polygon fill="#191970" stroke="#191970" points="693.9904,-135.4162 684.1138,-131.5818 689.4436,-140.7384 693.9904,-135.4162"/>
</g>
<!-- Node28&#45;&gt;Node5 -->
<g id="edge55" class="edge">
<title>Node28&#45;&gt;Node5</title>
<path fill="none" stroke="#191970" d="M1058.1238,-526.2977C1078.1519,-506.8878 1119.5,-461.0028 1119.5,-413 1119.5,-413 1119.5,-413 1119.5,-122 1119.5,-89.7 1118.2378,-52.1791 1117.3508,-29.8005"/>
<polygon fill="#191970" stroke="#191970" points="1120.8387,-29.4334 1116.9298,-19.5861 1113.8447,-29.7217 1120.8387,-29.4334"/>
</g>
<!-- Node28&#45;&gt;Node16 -->
<g id="edge56" class="edge">
<title>Node28&#45;&gt;Node16</title>
<path fill="none" stroke="#191970" d="M1046.6502,-526.2289C1042.2542,-482.2623 1017.9543,-301.5492 910.5,-224 840.8219,-173.7137 609.0912,-207.9063 525.5,-188 518.5273,-186.3395 435.6889,-153.3325 389.0023,-134.6392"/>
<polygon fill="#191970" stroke="#191970" points="390.2133,-131.354 379.6289,-130.8839 387.61,-137.8519 390.2133,-131.354"/>
</g>
<!-- Node29 -->
<g id="node30" class="node">
<title>Node29</title>
<polygon fill="none" stroke="#bfbfbf" points="1147.5,-465 1147.5,-484 1233.5,-484 1233.5,-465 1147.5,-465"/>
<text text-anchor="middle" x="1190.5" y="-472" font-family="FreeSans.ttf" font-size="10.00" fill="#000000">ModelExport.h</text>
</g>
<!-- Node28&#45;&gt;Node29 -->
<g id="edge57" class="edge">
<title>Node28&#45;&gt;Node29</title>
<path fill="none" stroke="#191970" d="M1069.8438,-526.3906C1093.7703,-516.1005 1131.9309,-499.6888 1158.9216,-488.0809"/>
<polygon fill="#191970" stroke="#191970" points="1160.5095,-491.208 1168.3131,-484.0419 1157.7439,-484.7775 1160.5095,-491.208"/>
</g>
<!-- Node30&#45;&gt;Node25 -->
<g id="edge71" class="edge">
<title>Node30&#45;&gt;Node25</title>
<path fill="none" stroke="#191970" d="M790.8164,-582.3733C810.7216,-573.3838 840.6436,-559.8706 863.06,-549.7471"/>
<polygon fill="#191970" stroke="#191970" points="864.7887,-552.8068 872.4618,-545.5011 861.9075,-546.4272 864.7887,-552.8068"/>
</g>
<!-- Node30&#45;&gt;Node28 -->
<g id="edge75" class="edge">
<title>Node30&#45;&gt;Node28</title>
<path fill="none" stroke="#191970" d="M816.974,-582.4369C864.9514,-572.7724 939.117,-557.8326 990.3051,-547.5213"/>
<polygon fill="#191970" stroke="#191970" points="991.1099,-550.9296 1000.2218,-545.5237 989.7275,-544.0674 991.1099,-550.9296"/>
</g>
<!-- Node31 -->
<g id="node32" class="node">
<title>Node31</title>
<g id="a_node32"><a xlink:href="Transform_8h.html" target="_top" xlink:title="iDynTree/Core/Transform.h">
<polygon fill="none" stroke="#000000" points="384.5,-403.5 384.5,-422.5 530.5,-422.5 530.5,-403.5 384.5,-403.5"/>
<text text-anchor="middle" x="457.5" y="-410.5" font-family="FreeSans.ttf" font-size="10.00" fill="#000000">iDynTree/Core/Transform.h</text>
</a>
</g>
</g>
<!-- Node30&#45;&gt;Node31 -->
<g id="edge59" class="edge">
<title>Node30&#45;&gt;Node31</title>
<path fill="none" stroke="#191970" d="M694.7769,-586.6513C628.8501,-580.5318 539.0775,-568.3364 511.5,-546 476.2818,-517.4751 463.8496,-462.359 459.6025,-432.8271"/>
<polygon fill="#191970" stroke="#191970" points="463.0295,-432.0265 458.3097,-422.541 456.0842,-432.8995 463.0295,-432.0265"/>
</g>
<!-- Node32 -->
<g id="node33" class="node">
<title>Node32</title>
<g id="a_node33"><a xlink:href="Twist_8h.html" target="_top" xlink:title="iDynTree/Core/Twist.h">
<polygon fill="none" stroke="#000000" points="686.5,-526.5 686.5,-545.5 808.5,-545.5 808.5,-526.5 686.5,-526.5"/>
<text text-anchor="middle" x="747.5" y="-533.5" font-family="FreeSans.ttf" font-size="10.00" fill="#000000">iDynTree/Core/Twist.h</text>
</a>
</g>
</g>
<!-- Node30&#45;&gt;Node32 -->
<g id="edge64" class="edge">
<title>Node30&#45;&gt;Node32</title>
<path fill="none" stroke="#191970" d="M765.6679,-582.2455C762.7341,-574.7776 758.5953,-564.2427 755.009,-555.1137"/>
<polygon fill="#191970" stroke="#191970" points="758.2024,-553.6704 751.2882,-545.6427 751.6871,-556.23 758.2024,-553.6704"/>
</g>
<!-- Node34 -->
<g id="node35" class="node">
<title>Node34</title>
<g id="a_node35"><a xlink:href="SpatialAcc_8h.html" target="_top" xlink:title="iDynTree/Core/SpatialAcc.h">
<polygon fill="none" stroke="#000000" points="520.5,-526.5 520.5,-545.5 668.5,-545.5 668.5,-526.5 520.5,-526.5"/>
<text text-anchor="middle" x="594.5" y="-533.5" font-family="FreeSans.ttf" font-size="10.00" fill="#000000">iDynTree/Core/SpatialAcc.h</text>
</a>
</g>
</g>
<!-- Node30&#45;&gt;Node34 -->
<g id="edge69" class="edge">
<title>Node30&#45;&gt;Node34</title>
<path fill="none" stroke="#191970" d="M739.4164,-582.3733C710.3166,-573.0613 666.0477,-558.8953 634.097,-548.671"/>
<polygon fill="#191970" stroke="#191970" points="634.782,-545.2155 624.191,-545.5011 632.6485,-551.8824 634.782,-545.2155"/>
</g>
<!-- Node35 -->
<g id="node36" class="node">
<title>Node35</title>
<g id="a_node36"><a xlink:href="ArticulatedBodyInertia_8h.html" target="_top" xlink:title="iDynTree/Core/Articulated\lBodyInertia.h">
<polygon fill="none" stroke="#000000" points="0,-224.5 0,-254.5 141,-254.5 141,-224.5 0,-224.5"/>
<text text-anchor="start" x="8" y="-242.5" font-family="FreeSans.ttf" font-size="10.00" fill="#000000">iDynTree/Core/Articulated</text>
<text text-anchor="middle" x="70.5" y="-231.5" font-family="FreeSans.ttf" font-size="10.00" fill="#000000">BodyInertia.h</text>
</a>
</g>
</g>
<!-- Node30&#45;&gt;Node35 -->
<g id="edge72" class="edge">
<title>Node30&#45;&gt;Node35</title>
<path fill="none" stroke="#191970" d="M694.7512,-586.8498C526.277,-573.1924 131.5,-528.8317 131.5,-413 131.5,-413 131.5,-413 131.5,-357 131.5,-320.9261 108.5719,-284.92 90.8293,-262.4576"/>
<polygon fill="#191970" stroke="#191970" points="93.387,-260.0568 84.3418,-254.54 87.9725,-264.4933 93.387,-260.0568"/>
</g>
<!-- Node30&#45;&gt;Node36 -->
<g id="edge76" class="edge">
<title>Node30&#45;&gt;Node36</title>
<path fill="none" stroke="#191970" d="M844.0867,-585.988C914.2766,-579.5073 1022.3661,-567.4112 1124.9237,-545.8063"/>
<polygon fill="#191970" stroke="#191970" points="1125.7841,-549.2015 1134.8299,-543.6857 1124.3187,-542.3566 1125.7841,-549.2015"/>
</g>
<!-- Node31&#45;&gt;Node1 -->
<g id="edge60" class="edge">
<title>Node31&#45;&gt;Node1</title>
<path fill="none" stroke="#191970" d="M438.6878,-403.2455C421.6527,-394.4125 396.3425,-381.2887 377.0319,-371.2758"/>
<polygon fill="#191970" stroke="#191970" points="378.5853,-368.1388 368.0966,-366.6427 375.363,-374.353 378.5853,-368.1388"/>
</g>
<!-- Node31&#45;&gt;Node16 -->
<g id="edge63" class="edge">
<title>Node31&#45;&gt;Node16</title>
<path fill="none" stroke="#191970" d="M403.6673,-403.4511C320.3096,-387.1143 169.5,-350.6913 169.5,-301 169.5,-301 169.5,-301 169.5,-239.5 169.5,-166.9717 271.3621,-137.5534 325.1282,-127.0772"/>
<polygon fill="#191970" stroke="#191970" points="325.9929,-130.477 335.1957,-125.2274 324.7278,-123.5923 325.9929,-130.477"/>
</g>
<!-- Node31&#45;&gt;Node19 -->
<g id="edge61" class="edge">
<title>Node31&#45;&gt;Node19</title>
<path fill="none" stroke="#191970" d="M466.6228,-403.4509C484.7849,-384.4401 525.672,-341.6423 548.4347,-317.816"/>
<polygon fill="#191970" stroke="#191970" points="551.0232,-320.1733 555.4003,-310.5249 545.9617,-315.3378 551.0232,-320.1733"/>
</g>
<!-- Node31&#45;&gt;Node22 -->
<g id="edge62" class="edge">
<title>Node31&#45;&gt;Node22</title>
<path fill="none" stroke="#191970" d="M455.2096,-403.4333C448.588,-373.2524 432.5671,-278.8084 476.5,-224 487.3162,-210.5063 525.9033,-198.3614 559.6843,-189.9436"/>
<polygon fill="#191970" stroke="#191970" points="560.6213,-193.3179 569.5163,-187.562 558.9733,-186.5146 560.6213,-193.3179"/>
</g>
<!-- Node33 -->
<g id="node34" class="node">
<title>Node33</title>
<g id="a_node34"><a xlink:href="SpatialMotionVector_8h.html" target="_top" xlink:title="iDynTree/Core/SpatialMotion\lVector.h">
<polygon fill="none" stroke="#000000" points="670,-459.5 670,-489.5 825,-489.5 825,-459.5 670,-459.5"/>
<text text-anchor="start" x="678" y="-477.5" font-family="FreeSans.ttf" font-size="10.00" fill="#000000">iDynTree/Core/SpatialMotion</text>
<text text-anchor="middle" x="747.5" y="-466.5" font-family="FreeSans.ttf" font-size="10.00" fill="#000000">Vector.h</text>
</a>
</g>
</g>
<!-- Node32&#45;&gt;Node33 -->
<g id="edge65" class="edge">
<title>Node32&#45;&gt;Node33</title>
<path fill="none" stroke="#191970" d="M747.5,-526.3906C747.5,-519.2234 747.5,-509.0862 747.5,-499.671"/>
<polygon fill="#191970" stroke="#191970" points="751.0001,-499.5446 747.5,-489.5446 744.0001,-499.5446 751.0001,-499.5446"/>
</g>
<!-- Node33&#45;&gt;Node3 -->
<g id="edge66" class="edge">
<title>Node33&#45;&gt;Node3</title>
<path fill="none" stroke="#191970" d="M739.2546,-459.42C728.0785,-437.5326 709.5,-395.3768 709.5,-357 709.5,-357 709.5,-357 709.5,-301 709.5,-265.6422 705.7256,-250.1716 729.5,-224 744.1664,-207.8548 764.9681,-197.366 785.452,-190.5559"/>
<polygon fill="#191970" stroke="#191970" points="786.5988,-193.8652 795.1347,-187.5893 784.5481,-187.1723 786.5988,-193.8652"/>
</g>
<!-- Node33&#45;&gt;Node20 -->
<g id="edge67" class="edge">
<title>Node33&#45;&gt;Node20</title>
<path fill="none" stroke="#191970" d="M752.1135,-459.4422C764.6989,-418.3648 799.6163,-304.3983 813.5989,-258.7606"/>
<polygon fill="#191970" stroke="#191970" points="816.9528,-259.7612 816.5359,-249.1746 810.2599,-257.7106 816.9528,-259.7612"/>
</g>
<!-- Node33&#45;&gt;Node27 -->
<g id="edge68" class="edge">
<title>Node33&#45;&gt;Node27</title>
<path fill="none" stroke="#191970" d="M774.6537,-459.4554C792.1995,-449.734 814.9122,-437.15 832.2721,-427.5317"/>
<polygon fill="#191970" stroke="#191970" points="834.248,-430.4383 841.2989,-422.5303 830.8555,-424.3153 834.248,-430.4383"/>
</g>
<!-- Node34&#45;&gt;Node33 -->
<g id="edge70" class="edge">
<title>Node34&#45;&gt;Node33</title>
<path fill="none" stroke="#191970" d="M618.4063,-526.3906C640.3592,-517.5664 673.5117,-504.2404 700.7229,-493.3026"/>
<polygon fill="#191970" stroke="#191970" points="702.0989,-496.5217 710.072,-489.5446 699.4881,-490.0268 702.0989,-496.5217"/>
</g>
<!-- Node35&#45;&gt;Node16 -->
<g id="edge74" class="edge">
<title>Node35&#45;&gt;Node16</title>
<path fill="none" stroke="#191970" d="M84.0034,-224.4888C99.6083,-208.0887 126.8399,-182.2577 155.5,-168 211.3409,-140.2205 284.2147,-128.9688 325.4253,-124.6001"/>
<polygon fill="#191970" stroke="#191970" points="325.8288,-128.0774 335.4354,-123.6094 325.1393,-121.1114 325.8288,-128.0774"/>
</g>
<!-- Node35&#45;&gt;Node22 -->
<g id="edge73" class="edge">
<title>Node35&#45;&gt;Node22</title>
<path fill="none" stroke="#191970" d="M141.1905,-231.523C239.2641,-220.456 416.6816,-200.4355 524.5249,-188.266"/>
<polygon fill="#191970" stroke="#191970" points="525.1947,-191.7127 534.7391,-187.1134 524.4097,-184.7569 525.1947,-191.7127"/>
</g>
</g>
</svg>
