<?xml version="1.0" encoding="UTF-8" standalone="no"?>
<!DOCTYPE svg PUBLIC "-//W3C//DTD SVG 1.1//EN"
 "http://www.w3.org/Graphics/SVG/1.1/DTD/svg11.dtd">
<!-- Generated by graphviz version 2.40.1 (20161225.0304)
 -->
<!-- Title: ConvexHullHelpers.cpp Pages: 1 -->
<svg width="1708pt" height="599pt"
 viewBox="0.00 0.00 1708.01 599.00" xmlns="http://www.w3.org/2000/svg" xmlns:xlink="http://www.w3.org/1999/xlink">
<g id="graph0" class="graph" transform="scale(1 1) rotate(0) translate(4 595)">
<title>ConvexHullHelpers.cpp</title>
<!-- Node0 -->
<g id="node1" class="node">
<title>Node0</title>
<polygon fill="#bfbfbf" stroke="#000000" points="407.5,-571.5 407.5,-590.5 538.5,-590.5 538.5,-571.5 407.5,-571.5"/>
<text text-anchor="middle" x="473" y="-578.5" font-family="FreeSans.ttf" font-size="10.00" fill="#000000">ConvexHullHelpers.cpp</text>
</g>
<!-- Node1 -->
<g id="node2" class="node">
<title>Node1</title>
<g id="a_node2"><a xlink:href="ConvexHullHelpers_8h.html" target="_top" xlink:title="iDynTree/ConvexHullHelpers.h">
<polygon fill="none" stroke="#000000" points="177.5,-454 177.5,-473 342.5,-473 342.5,-454 177.5,-454"/>
<text text-anchor="middle" x="260" y="-461" font-family="FreeSans.ttf" font-size="10.00" fill="#000000">iDynTree/ConvexHullHelpers.h</text>
</a>
</g>
</g>
<!-- Node0&#45;&gt;Node1 -->
<g id="edge1" class="edge">
<title>Node0&#45;&gt;Node1</title>
<path fill="none" stroke="#191970" d="M455.5693,-571.3845C418.2657,-550.8062 330.5077,-502.3951 286.3513,-478.0365"/>
<polygon fill="#191970" stroke="#191970" points="287.8195,-474.8492 277.3728,-473.0836 284.4383,-480.9785 287.8195,-474.8492"/>
</g>
<!-- Node9 -->
<g id="node10" class="node">
<title>Node9</title>
<polygon fill="none" stroke="#bfbfbf" points="108,-.5 108,-19.5 172,-19.5 172,-.5 108,-.5"/>
<text text-anchor="middle" x="140" y="-7.5" font-family="FreeSans.ttf" font-size="10.00" fill="#000000">algorithm</text>
</g>
<!-- Node0&#45;&gt;Node9 -->
<g id="edge89" class="edge">
<title>Node0&#45;&gt;Node9</title>
<path fill="none" stroke="#191970" d="M407.2314,-578.3272C277.2639,-571.2458 0,-546.4216 0,-463.5 0,-463.5 0,-463.5 0,-122 0,-70.8513 57.6848,-39.2194 98.9988,-23.1236"/>
<polygon fill="#191970" stroke="#191970" points="100.4346,-26.3237 108.5813,-19.55 97.9886,-19.7649 100.4346,-26.3237"/>
</g>
<!-- Node30 -->
<g id="node31" class="node">
<title>Node30</title>
<g id="a_node31"><a xlink:href="Axis_8h.html" target="_top" xlink:title="iDynTree/Core/Axis.h">
<polygon fill="none" stroke="#000000" points="414,-392.5 414,-411.5 532,-411.5 532,-392.5 414,-392.5"/>
<text text-anchor="middle" x="473" y="-399.5" font-family="FreeSans.ttf" font-size="10.00" fill="#000000">iDynTree/Core/Axis.h</text>
</a>
</g>
</g>
<!-- Node0&#45;&gt;Node30 -->
<g id="edge57" class="edge">
<title>Node0&#45;&gt;Node30</title>
<path fill="none" stroke="#191970" d="M473,-571.3762C473,-543.2097 473,-460.5126 473,-422.0713"/>
<polygon fill="#191970" stroke="#191970" points="476.5001,-421.6714 473,-411.6714 469.5001,-421.6714 476.5001,-421.6714"/>
</g>
<!-- Node32 -->
<g id="node33" class="node">
<title>Node32</title>
<g id="a_node33"><a xlink:href="EigenHelpers_8h.html" target="_top" xlink:title="iDynTree/Core/EigenHelpers.h">
<polygon fill="none" stroke="#000000" points="936.5,-515.5 936.5,-534.5 1097.5,-534.5 1097.5,-515.5 936.5,-515.5"/>
<text text-anchor="middle" x="1017" y="-522.5" font-family="FreeSans.ttf" font-size="10.00" fill="#000000">iDynTree/Core/EigenHelpers.h</text>
</a>
</g>
</g>
<!-- Node0&#45;&gt;Node32 -->
<g id="edge65" class="edge">
<title>Node0&#45;&gt;Node32</title>
<path fill="none" stroke="#191970" d="M538.6191,-574.2451C635.3544,-564.2871 816.5754,-545.6319 926.0704,-534.3604"/>
<polygon fill="#191970" stroke="#191970" points="926.5217,-537.8325 936.1107,-533.3268 925.8049,-530.8693 926.5217,-537.8325"/>
</g>
<!-- Node37 -->
<g id="node38" class="node">
<title>Node37</title>
<polygon fill="none" stroke="#bfbfbf" points="1115.5,-515.5 1115.5,-534.5 1184.5,-534.5 1184.5,-515.5 1115.5,-515.5"/>
<text text-anchor="middle" x="1150" y="-522.5" font-family="FreeSans.ttf" font-size="10.00" fill="#000000">Eigen/Core</text>
</g>
<!-- Node0&#45;&gt;Node37 -->
<g id="edge88" class="edge">
<title>Node0&#45;&gt;Node37</title>
<path fill="none" stroke="#191970" d="M538.6313,-579.6087C652.3376,-576.461 893.3674,-566.5402 1105.2873,-535.0614"/>
<polygon fill="#191970" stroke="#191970" points="1105.9883,-538.4953 1115.3561,-533.546 1104.9465,-531.5733 1105.9883,-538.4953"/>
</g>
<!-- Node2 -->
<g id="node3" class="node">
<title>Node2</title>
<polygon fill="none" stroke="#bfbfbf" points="459,-112.5 459,-131.5 503,-131.5 503,-112.5 459,-112.5"/>
<text text-anchor="middle" x="481" y="-119.5" font-family="FreeSans.ttf" font-size="10.00" fill="#000000">string</text>
</g>
<!-- Node1&#45;&gt;Node2 -->
<g id="edge2" class="edge">
<title>Node1&#45;&gt;Node2</title>
<path fill="none" stroke="#191970" d="M251.3278,-453.8501C228.6589,-428.5767 169.2291,-361.9837 167,-356 163.897,-347.6703 163.5265,-344.1821 167,-336 168.3127,-332.9078 338.1233,-169.7348 341,-168 375.1003,-147.4359 419.4878,-134.8732 449.0474,-128.184"/>
<polygon fill="#191970" stroke="#191970" points="449.8126,-131.5995 458.8435,-126.0594 448.3288,-124.7585 449.8126,-131.5995"/>
</g>
<!-- Node3 -->
<g id="node4" class="node">
<title>Node3</title>
<polygon fill="none" stroke="#bfbfbf" points="139.5,-392.5 139.5,-411.5 186.5,-411.5 186.5,-392.5 139.5,-392.5"/>
<text text-anchor="middle" x="163" y="-399.5" font-family="FreeSans.ttf" font-size="10.00" fill="#000000">vector</text>
</g>
<!-- Node1&#45;&gt;Node3 -->
<g id="edge3" class="edge">
<title>Node1&#45;&gt;Node3</title>
<path fill="none" stroke="#191970" d="M244.8438,-453.8906C229.3257,-444.0519 204.9807,-428.6167 186.8716,-417.1351"/>
<polygon fill="#191970" stroke="#191970" points="188.3696,-413.9407 178.0498,-411.5419 184.6213,-419.8526 188.3696,-413.9407"/>
</g>
<!-- Node4 -->
<g id="node5" class="node">
<title>Node4</title>
<g id="a_node5"><a xlink:href="MatrixDynSize_8h.html" target="_top" xlink:title="iDynTree/Core/MatrixDynSize.h">
<polygon fill="none" stroke="#000000" points="176.5,-336.5 176.5,-355.5 343.5,-355.5 343.5,-336.5 176.5,-336.5"/>
<text text-anchor="middle" x="260" y="-343.5" font-family="FreeSans.ttf" font-size="10.00" fill="#000000">iDynTree/Core/MatrixDynSize.h</text>
</a>
</g>
</g>
<!-- Node1&#45;&gt;Node4 -->
<g id="edge4" class="edge">
<title>Node1&#45;&gt;Node4</title>
<path fill="none" stroke="#191970" d="M260,-453.8845C260,-434.6913 260,-391.286 260,-365.7663"/>
<polygon fill="#191970" stroke="#191970" points="263.5001,-365.7483 260,-355.7484 256.5001,-365.7484 263.5001,-365.7483"/>
</g>
<!-- Node18 -->
<g id="node19" class="node">
<title>Node18</title>
<g id="a_node19"><a xlink:href="Position_8h.html" target="_top" xlink:title="iDynTree/Core/Position.h">
<polygon fill="none" stroke="#000000" points="513,-336.5 513,-355.5 649,-355.5 649,-336.5 513,-336.5"/>
<text text-anchor="middle" x="581" y="-343.5" font-family="FreeSans.ttf" font-size="10.00" fill="#000000">iDynTree/Core/Position.h</text>
</a>
</g>
</g>
<!-- Node1&#45;&gt;Node18 -->
<g id="edge22" class="edge">
<title>Node1&#45;&gt;Node18</title>
<path fill="none" stroke="#191970" d="M342.6155,-455.8883C413.6378,-448.0028 509.4562,-433.7473 541,-412 557.312,-400.754 568.1257,-380.4784 574.3505,-365.3572"/>
<polygon fill="#191970" stroke="#191970" points="577.6686,-366.4779 577.938,-355.8865 571.1225,-363.9982 577.6686,-366.4779"/>
</g>
<!-- Node28 -->
<g id="node29" class="node">
<title>Node28</title>
<g id="a_node29"><a xlink:href="Transform_8h.html" target="_top" xlink:title="iDynTree/Core/Transform.h">
<polygon fill="none" stroke="#000000" points="595,-392.5 595,-411.5 741,-411.5 741,-392.5 595,-392.5"/>
<text text-anchor="middle" x="668" y="-399.5" font-family="FreeSans.ttf" font-size="10.00" fill="#000000">iDynTree/Core/Transform.h</text>
</a>
</g>
</g>
<!-- Node1&#45;&gt;Node28 -->
<g id="edge49" class="edge">
<title>Node1&#45;&gt;Node28</title>
<path fill="none" stroke="#191970" d="M323.3023,-453.9581C396.6692,-442.8991 517.374,-424.7047 594.7351,-413.0436"/>
<polygon fill="#191970" stroke="#191970" points="595.5183,-416.4652 604.8849,-411.5137 594.4748,-409.5434 595.5183,-416.4652"/>
</g>
<!-- Node29 -->
<g id="node30" class="node">
<title>Node29</title>
<g id="a_node30"><a xlink:href="VectorDynSize_8h.html" target="_top" xlink:title="iDynTree/Core/VectorDynSize.h">
<polygon fill="none" stroke="#000000" points="27.5,-280.5 27.5,-299.5 194.5,-299.5 194.5,-280.5 27.5,-280.5"/>
<text text-anchor="middle" x="111" y="-287.5" font-family="FreeSans.ttf" font-size="10.00" fill="#000000">iDynTree/Core/VectorDynSize.h</text>
</a>
</g>
</g>
<!-- Node1&#45;&gt;Node29 -->
<g id="edge54" class="edge">
<title>Node1&#45;&gt;Node29</title>
<path fill="none" stroke="#191970" d="M201.9886,-453.9729C176.1605,-446.7469 147.6521,-434.0963 130,-412 106.5741,-382.6763 106.3044,-336.395 108.474,-310.0692"/>
<polygon fill="#191970" stroke="#191970" points="111.9873,-310.1186 109.5303,-299.8126 105.0241,-309.4014 111.9873,-310.1186"/>
</g>
<!-- Node4&#45;&gt;Node2 -->
<g id="edge5" class="edge">
<title>Node4&#45;&gt;Node2</title>
<path fill="none" stroke="#191970" d="M263.0538,-336.4072C272.869,-307.0389 306.3746,-217.3617 364,-168 388.4756,-147.0343 423.6403,-134.9507 449.021,-128.478"/>
<polygon fill="#191970" stroke="#191970" points="449.9903,-131.8449 458.901,-126.1136 448.361,-125.0372 449.9903,-131.8449"/>
</g>
<!-- Node5 -->
<g id="node6" class="node">
<title>Node5</title>
<g id="a_node6"><a xlink:href="MatrixView_8h.html" target="_top" xlink:title="iDynTree/Core/MatrixView.h">
<polygon fill="none" stroke="#000000" points="214.5,-112.5 214.5,-131.5 365.5,-131.5 365.5,-112.5 214.5,-112.5"/>
<text text-anchor="middle" x="290" y="-119.5" font-family="FreeSans.ttf" font-size="10.00" fill="#000000">iDynTree/Core/MatrixView.h</text>
</a>
</g>
</g>
<!-- Node4&#45;&gt;Node5 -->
<g id="edge6" class="edge">
<title>Node4&#45;&gt;Node5</title>
<path fill="none" stroke="#191970" d="M256.8213,-336.3306C248.345,-308.8884 227.3408,-228.5903 250,-168 254.1149,-156.9969 262.1815,-146.8874 269.9994,-138.9652"/>
<polygon fill="#191970" stroke="#191970" points="272.7032,-141.2264 277.5788,-131.82 267.9015,-136.1329 272.7032,-141.2264"/>
</g>
<!-- Node6 -->
<g id="node7" class="node">
<title>Node6</title>
<polygon fill="none" stroke="#bfbfbf" points="816,-.5 816,-19.5 868,-19.5 868,-.5 816,-.5"/>
<text text-anchor="middle" x="842" y="-7.5" font-family="FreeSans.ttf" font-size="10.00" fill="#000000">cassert</text>
</g>
<!-- Node5&#45;&gt;Node6 -->
<g id="edge7" class="edge">
<title>Node5&#45;&gt;Node6</title>
<path fill="none" stroke="#191970" d="M345.8878,-112.4568C397.2295,-103.5432 475.3806,-89.6053 543,-76 638.1789,-56.8496 749.7317,-31.4325 805.8542,-18.4367"/>
<polygon fill="#191970" stroke="#191970" points="806.7218,-21.8285 815.672,-16.159 805.1397,-15.0096 806.7218,-21.8285"/>
</g>
<!-- Node7 -->
<g id="node8" class="node">
<title>Node7</title>
<polygon fill="none" stroke="#bfbfbf" points="255.5,-.5 255.5,-19.5 324.5,-19.5 324.5,-.5 255.5,-.5"/>
<text text-anchor="middle" x="290" y="-7.5" font-family="FreeSans.ttf" font-size="10.00" fill="#000000">type_traits</text>
</g>
<!-- Node5&#45;&gt;Node7 -->
<g id="edge8" class="edge">
<title>Node5&#45;&gt;Node7</title>
<path fill="none" stroke="#191970" d="M290,-112.4509C290,-94.184 290,-53.9553 290,-29.6976"/>
<polygon fill="#191970" stroke="#191970" points="293.5001,-29.5249 290,-19.5249 286.5001,-29.5249 293.5001,-29.5249"/>
</g>
<!-- Node8 -->
<g id="node9" class="node">
<title>Node8</title>
<g id="a_node9"><a xlink:href="Span_8h.html" target="_top" xlink:title="iDynTree/Core/Span.h">
<polygon fill="none" stroke="#000000" points="413.5,-56.5 413.5,-75.5 534.5,-75.5 534.5,-56.5 413.5,-56.5"/>
<text text-anchor="middle" x="474" y="-63.5" font-family="FreeSans.ttf" font-size="10.00" fill="#000000">iDynTree/Core/Span.h</text>
</a>
</g>
</g>
<!-- Node5&#45;&gt;Node8 -->
<g id="edge9" class="edge">
<title>Node5&#45;&gt;Node8</title>
<path fill="none" stroke="#191970" d="M321.6307,-112.3733C352.3596,-103.021 399.176,-88.7725 432.8022,-78.5385"/>
<polygon fill="#191970" stroke="#191970" points="434.2344,-81.7612 442.782,-75.5011 432.1962,-75.0644 434.2344,-81.7612"/>
</g>
<!-- Node16 -->
<g id="node17" class="node">
<title>Node16</title>
<g id="a_node17"><a xlink:href="Utils_8h.html" target="_top" xlink:title="iDynTree/Core/Utils.h">
<polygon fill="none" stroke="#000000" points="1222.5,-56.5 1222.5,-75.5 1341.5,-75.5 1341.5,-56.5 1222.5,-56.5"/>
<text text-anchor="middle" x="1282" y="-63.5" font-family="FreeSans.ttf" font-size="10.00" fill="#000000">iDynTree/Core/Utils.h</text>
</a>
</g>
</g>
<!-- Node5&#45;&gt;Node16 -->
<g id="edge19" class="edge">
<title>Node5&#45;&gt;Node16</title>
<path fill="none" stroke="#191970" d="M365.5906,-113.2699C370.4639,-112.8095 375.299,-112.3807 380,-112 689.7588,-86.9152 1060.5355,-73.0999 1212.183,-68.1399"/>
<polygon fill="#191970" stroke="#191970" points="1212.4046,-71.6347 1222.2858,-67.812 1212.1775,-64.6384 1212.4046,-71.6347"/>
</g>
<!-- Node8&#45;&gt;Node6 -->
<g id="edge10" class="edge">
<title>Node8&#45;&gt;Node6</title>
<path fill="none" stroke="#191970" d="M534.7677,-56.7527C611.9262,-45.0112 742.5912,-25.1274 805.7187,-15.5211"/>
<polygon fill="#191970" stroke="#191970" points="806.2532,-18.9801 815.6128,-14.0154 805.2001,-12.0598 806.2532,-18.9801"/>
</g>
<!-- Node8&#45;&gt;Node7 -->
<g id="edge17" class="edge">
<title>Node8&#45;&gt;Node7</title>
<path fill="none" stroke="#191970" d="M442.3693,-56.3733C411.6404,-47.021 364.824,-32.7725 331.1978,-22.5385"/>
<polygon fill="#191970" stroke="#191970" points="331.8038,-19.0644 321.218,-19.5011 329.7656,-25.7612 331.8038,-19.0644"/>
</g>
<!-- Node8&#45;&gt;Node9 -->
<g id="edge11" class="edge">
<title>Node8&#45;&gt;Node9</title>
<path fill="none" stroke="#191970" d="M416.9629,-56.4369C350.3483,-45.268 241.7124,-27.0536 182.2262,-17.0798"/>
<polygon fill="#191970" stroke="#191970" points="182.5037,-13.5776 172.0626,-15.3758 181.3462,-20.4812 182.5037,-13.5776"/>
</g>
<!-- Node10 -->
<g id="node11" class="node">
<title>Node10</title>
<polygon fill="none" stroke="#bfbfbf" points="552,-.5 552,-19.5 594,-19.5 594,-.5 552,-.5"/>
<text text-anchor="middle" x="573" y="-7.5" font-family="FreeSans.ttf" font-size="10.00" fill="#000000">array</text>
</g>
<!-- Node8&#45;&gt;Node10 -->
<g id="edge12" class="edge">
<title>Node8&#45;&gt;Node10</title>
<path fill="none" stroke="#191970" d="M491.2445,-56.2455C506.5761,-47.5731 529.2199,-34.7645 546.7916,-24.825"/>
<polygon fill="#191970" stroke="#191970" points="548.9724,-27.6126 555.9531,-19.6427 545.5259,-21.5198 548.9724,-27.6126"/>
</g>
<!-- Node11 -->
<g id="node12" class="node">
<title>Node11</title>
<polygon fill="none" stroke="#bfbfbf" points="1342.5,-.5 1342.5,-19.5 1395.5,-19.5 1395.5,-.5 1342.5,-.5"/>
<text text-anchor="middle" x="1369" y="-7.5" font-family="FreeSans.ttf" font-size="10.00" fill="#000000">cstddef</text>
</g>
<!-- Node8&#45;&gt;Node11 -->
<g id="edge13" class="edge">
<title>Node8&#45;&gt;Node11</title>
<path fill="none" stroke="#191970" d="M534.8014,-64.3472C703.8769,-59.4945 1177.2662,-44.0961 1331,-20 1331.3412,-19.9465 1331.6837,-19.8912 1332.0275,-19.8343"/>
<polygon fill="#191970" stroke="#191970" points="1333.0483,-23.1988 1342.1569,-17.7874 1331.6617,-16.3375 1333.0483,-23.1988"/>
</g>
<!-- Node12 -->
<g id="node13" class="node">
<title>Node12</title>
<polygon fill="none" stroke="#bfbfbf" points="612.5,-.5 612.5,-19.5 665.5,-19.5 665.5,-.5 612.5,-.5"/>
<text text-anchor="middle" x="639" y="-7.5" font-family="FreeSans.ttf" font-size="10.00" fill="#000000">iterator</text>
</g>
<!-- Node8&#45;&gt;Node12 -->
<g id="edge14" class="edge">
<title>Node8&#45;&gt;Node12</title>
<path fill="none" stroke="#191970" d="M502.3645,-56.3733C530.0966,-46.9611 572.4404,-32.5899 602.6338,-22.3425"/>
<polygon fill="#191970" stroke="#191970" points="604.0243,-25.5667 612.3689,-19.0384 601.7745,-18.9381 604.0243,-25.5667"/>
</g>
<!-- Node13 -->
<g id="node14" class="node">
<title>Node13</title>
<polygon fill="none" stroke="#bfbfbf" points="343,-.5 343,-19.5 387,-19.5 387,-.5 343,-.5"/>
<text text-anchor="middle" x="365" y="-7.5" font-family="FreeSans.ttf" font-size="10.00" fill="#000000">limits</text>
</g>
<!-- Node8&#45;&gt;Node13 -->
<g id="edge15" class="edge">
<title>Node8&#45;&gt;Node13</title>
<path fill="none" stroke="#191970" d="M455.0136,-56.2455C437.8208,-47.4125 412.2762,-34.2887 392.7868,-24.2758"/>
<polygon fill="#191970" stroke="#191970" points="394.263,-21.0993 383.7688,-19.6427 391.0641,-27.3257 394.263,-21.0993"/>
</g>
<!-- Node14 -->
<g id="node15" class="node">
<title>Node14</title>
<polygon fill="none" stroke="#bfbfbf" points="405.5,-.5 405.5,-19.5 470.5,-19.5 470.5,-.5 405.5,-.5"/>
<text text-anchor="middle" x="438" y="-7.5" font-family="FreeSans.ttf" font-size="10.00" fill="#000000">stdexcept</text>
</g>
<!-- Node8&#45;&gt;Node14 -->
<g id="edge16" class="edge">
<title>Node8&#45;&gt;Node14</title>
<path fill="none" stroke="#191970" d="M467.7293,-56.2455C462.7736,-48.5367 455.717,-37.5598 449.7224,-28.2348"/>
<polygon fill="#191970" stroke="#191970" points="452.5506,-26.1618 444.1989,-19.6427 446.6624,-29.9471 452.5506,-26.1618"/>
</g>
<!-- Node15 -->
<g id="node16" class="node">
<title>Node15</title>
<polygon fill="none" stroke="#bfbfbf" points="488.5,-.5 488.5,-19.5 533.5,-19.5 533.5,-.5 488.5,-.5"/>
<text text-anchor="middle" x="511" y="-7.5" font-family="FreeSans.ttf" font-size="10.00" fill="#000000">utility</text>
</g>
<!-- Node8&#45;&gt;Node15 -->
<g id="edge18" class="edge">
<title>Node8&#45;&gt;Node15</title>
<path fill="none" stroke="#191970" d="M480.4449,-56.2455C485.5382,-48.5367 492.7908,-37.5598 498.952,-28.2348"/>
<polygon fill="#191970" stroke="#191970" points="502.0365,-29.9155 504.6289,-19.6427 496.1962,-26.0566 502.0365,-29.9155"/>
</g>
<!-- Node16&#45;&gt;Node11 -->
<g id="edge20" class="edge">
<title>Node16&#45;&gt;Node11</title>
<path fill="none" stroke="#191970" d="M1297.1542,-56.2455C1310.5027,-47.6534 1330.1586,-35.0014 1345.5383,-25.1018"/>
<polygon fill="#191970" stroke="#191970" points="1347.5051,-27.9982 1354.0194,-19.6427 1343.7164,-22.1121 1347.5051,-27.9982"/>
</g>
<!-- Node17 -->
<g id="node18" class="node">
<title>Node17</title>
<polygon fill="none" stroke="#bfbfbf" points="1242,-.5 1242,-19.5 1322,-19.5 1322,-.5 1242,-.5"/>
<text text-anchor="middle" x="1282" y="-7.5" font-family="FreeSans.ttf" font-size="10.00" fill="#000000">CoreExport.h</text>
</g>
<!-- Node16&#45;&gt;Node17 -->
<g id="edge21" class="edge">
<title>Node16&#45;&gt;Node17</title>
<path fill="none" stroke="#191970" d="M1282,-56.2455C1282,-48.9382 1282,-38.6944 1282,-29.7046"/>
<polygon fill="#191970" stroke="#191970" points="1285.5001,-29.6426 1282,-19.6427 1278.5001,-29.6427 1285.5001,-29.6426"/>
</g>
<!-- Node18&#45;&gt;Node2 -->
<g id="edge48" class="edge">
<title>Node18&#45;&gt;Node2</title>
<path fill="none" stroke="#191970" d="M564.2201,-336.4209C538.8429,-320.8404 491.6822,-287.3415 473,-244 458.4352,-210.2106 467.2633,-166.2423 474.4821,-141.3732"/>
<polygon fill="#191970" stroke="#191970" points="477.8683,-142.2707 477.5,-131.6823 471.1849,-140.1893 477.8683,-142.2707"/>
</g>
<!-- Node19 -->
<g id="node20" class="node">
<title>Node19</title>
<g id="a_node20"><a xlink:href="PositionRaw_8h.html" target="_top" xlink:title="iDynTree/Core/PositionRaw.h">
<polygon fill="none" stroke="#000000" points="482,-224.5 482,-243.5 638,-243.5 638,-224.5 482,-224.5"/>
<text text-anchor="middle" x="560" y="-231.5" font-family="FreeSans.ttf" font-size="10.00" fill="#000000">iDynTree/Core/PositionRaw.h</text>
</a>
</g>
</g>
<!-- Node18&#45;&gt;Node19 -->
<g id="edge23" class="edge">
<title>Node18&#45;&gt;Node19</title>
<path fill="none" stroke="#191970" d="M579.2096,-336.4509C575.769,-318.1013 568.1733,-277.5908 563.6317,-253.3693"/>
<polygon fill="#191970" stroke="#191970" points="567.0689,-252.7086 561.7859,-243.5249 560.1888,-253.9986 567.0689,-252.7086"/>
</g>
<!-- Node23 -->
<g id="node24" class="node">
<title>Node23</title>
<g id="a_node24"><a xlink:href="Rotation_8h.html" target="_top" xlink:title="iDynTree/Core/Rotation.h">
<polygon fill="none" stroke="#000000" points="742.5,-280.5 742.5,-299.5 879.5,-299.5 879.5,-280.5 742.5,-280.5"/>
<text text-anchor="middle" x="811" y="-287.5" font-family="FreeSans.ttf" font-size="10.00" fill="#000000">iDynTree/Core/Rotation.h</text>
</a>
</g>
</g>
<!-- Node18&#45;&gt;Node23 -->
<g id="edge33" class="edge">
<title>Node18&#45;&gt;Node23</title>
<path fill="none" stroke="#191970" d="M620.2771,-336.4369C659.4744,-326.8932 719.8,-312.2052 762.0835,-301.9101"/>
<polygon fill="#191970" stroke="#191970" points="762.9968,-305.2901 771.8849,-299.5237 761.3408,-298.4888 762.9968,-305.2901"/>
</g>
<!-- Node19&#45;&gt;Node2 -->
<g id="edge32" class="edge">
<title>Node19&#45;&gt;Node2</title>
<path fill="none" stroke="#191970" d="M553.2645,-224.4509C540.0299,-205.688 510.452,-163.7548 493.5257,-139.758"/>
<polygon fill="#191970" stroke="#191970" points="496.3426,-137.6792 487.7184,-131.5249 490.6224,-141.714 496.3426,-137.6792"/>
</g>
<!-- Node20 -->
<g id="node21" class="node">
<title>Node20</title>
<g id="a_node21"><a xlink:href="VectorFixSize_8h.html" target="_top" xlink:title="iDynTree/Core/VectorFixSize.h">
<polygon fill="none" stroke="#000000" points="1177.5,-168.5 1177.5,-187.5 1338.5,-187.5 1338.5,-168.5 1177.5,-168.5"/>
<text text-anchor="middle" x="1258" y="-175.5" font-family="FreeSans.ttf" font-size="10.00" fill="#000000">iDynTree/Core/VectorFixSize.h</text>
</a>
</g>
</g>
<!-- Node19&#45;&gt;Node20 -->
<g id="edge24" class="edge">
<title>Node19&#45;&gt;Node20</title>
<path fill="none" stroke="#191970" d="M638.0377,-227.7391C768.1846,-217.2975 1028.874,-196.3826 1167.1013,-185.2927"/>
<polygon fill="#191970" stroke="#191970" points="1167.5566,-188.7675 1177.2446,-184.4789 1166.9967,-181.79 1167.5566,-188.7675"/>
</g>
<!-- Node20&#45;&gt;Node2 -->
<g id="edge27" class="edge">
<title>Node20&#45;&gt;Node2</title>
<path fill="none" stroke="#191970" d="M1177.4104,-172.1917C1009.1131,-160.0622 626.5446,-132.4897 513.2115,-124.3216"/>
<polygon fill="#191970" stroke="#191970" points="513.3263,-120.8208 503.1005,-123.5928 512.823,-127.8027 513.3263,-120.8208"/>
</g>
<!-- Node20&#45;&gt;Node6 -->
<g id="edge29" class="edge">
<title>Node20&#45;&gt;Node6</title>
<path fill="none" stroke="#191970" d="M1251.431,-168.3902C1241.0951,-153.9987 1219.6536,-126.9451 1195,-112 1090.6613,-48.7493 945.1832,-23.0746 878.2829,-14.1345"/>
<polygon fill="#191970" stroke="#191970" points="878.6042,-10.6471 868.2388,-12.8402 877.7095,-17.5897 878.6042,-10.6471"/>
</g>
<!-- Node20&#45;&gt;Node8 -->
<g id="edge26" class="edge">
<title>Node20&#45;&gt;Node8</title>
<path fill="none" stroke="#191970" d="M1248.2226,-168.4201C1232.0616,-153.2801 1198.0641,-124.2823 1163,-112 1105.7873,-91.9595 708.8701,-74.8712 544.7635,-68.5804"/>
<polygon fill="#191970" stroke="#191970" points="544.8932,-65.0829 534.7672,-68.1996 544.6266,-72.0778 544.8932,-65.0829"/>
</g>
<!-- Node20&#45;&gt;Node11 -->
<g id="edge30" class="edge">
<title>Node20&#45;&gt;Node11</title>
<path fill="none" stroke="#191970" d="M1295.7284,-168.4946C1315.27,-161.6013 1337.7534,-150.2073 1351,-132 1373.0538,-101.6872 1373.3605,-55.7698 1371.3514,-29.7728"/>
<polygon fill="#191970" stroke="#191970" points="1374.8192,-29.2709 1370.3703,-19.6554 1367.8519,-29.9466 1374.8192,-29.2709"/>
</g>
<!-- Node20&#45;&gt;Node16 -->
<g id="edge25" class="edge">
<title>Node20&#45;&gt;Node16</title>
<path fill="none" stroke="#191970" d="M1260.0462,-168.4509C1263.9783,-150.1013 1272.6591,-109.5908 1277.8494,-85.3693"/>
<polygon fill="#191970" stroke="#191970" points="1281.2859,-86.0363 1279.959,-75.5249 1274.4413,-84.5695 1281.2859,-86.0363"/>
</g>
<!-- Node21 -->
<g id="node22" class="node">
<title>Node21</title>
<polygon fill="none" stroke="#bfbfbf" points="1286,-112.5 1286,-131.5 1342,-131.5 1342,-112.5 1286,-112.5"/>
<text text-anchor="middle" x="1314" y="-119.5" font-family="FreeSans.ttf" font-size="10.00" fill="#000000">sstream</text>
</g>
<!-- Node20&#45;&gt;Node21 -->
<g id="edge28" class="edge">
<title>Node20&#45;&gt;Node21</title>
<path fill="none" stroke="#191970" d="M1267.7545,-168.2455C1275.8648,-160.1352 1287.5925,-148.4075 1297.2081,-138.7919"/>
<polygon fill="#191970" stroke="#191970" points="1299.7611,-141.1887 1304.3573,-131.6427 1294.8113,-136.2389 1299.7611,-141.1887"/>
</g>
<!-- Node22 -->
<g id="node23" class="node">
<title>Node22</title>
<polygon fill="none" stroke="#bfbfbf" points="1104,-112.5 1104,-131.5 1154,-131.5 1154,-112.5 1104,-112.5"/>
<text text-anchor="middle" x="1129" y="-119.5" font-family="FreeSans.ttf" font-size="10.00" fill="#000000">cstring</text>
</g>
<!-- Node20&#45;&gt;Node22 -->
<g id="edge31" class="edge">
<title>Node20&#45;&gt;Node22</title>
<path fill="none" stroke="#191970" d="M1235.8241,-168.3733C1215.0234,-159.3435 1183.7083,-145.7494 1160.3542,-135.6111"/>
<polygon fill="#191970" stroke="#191970" points="1161.4532,-132.2727 1150.8865,-131.5011 1158.6657,-138.6938 1161.4532,-132.2727"/>
</g>
<!-- Node23&#45;&gt;Node2 -->
<g id="edge34" class="edge">
<title>Node23&#45;&gt;Node2</title>
<path fill="none" stroke="#191970" d="M792.3123,-280.4862C737.0813,-252.3686 574.3793,-169.5385 508.8332,-136.1696"/>
<polygon fill="#191970" stroke="#191970" points="510.3914,-133.0355 499.8918,-131.6177 507.2156,-139.2736 510.3914,-133.0355"/>
</g>
<!-- Node23&#45;&gt;Node20 -->
<g id="edge47" class="edge">
<title>Node23&#45;&gt;Node20</title>
<path fill="none" stroke="#191970" d="M879.5614,-283.4462C938.1022,-276.7938 1024.1409,-264.4988 1097,-244 1144.9635,-230.5055 1197.9545,-207.0027 1229.5848,-191.9897"/>
<polygon fill="#191970" stroke="#191970" points="1231.1838,-195.1045 1238.6861,-187.6235 1228.156,-188.7932 1231.1838,-195.1045"/>
</g>
<!-- Node24 -->
<g id="node25" class="node">
<title>Node24</title>
<g id="a_node25"><a xlink:href="GeomVector3_8h.html" target="_top" xlink:title="iDynTree/Core/GeomVector3.h">
<polygon fill="none" stroke="#000000" points="1220.5,-224.5 1220.5,-243.5 1383.5,-243.5 1383.5,-224.5 1220.5,-224.5"/>
<text text-anchor="middle" x="1302" y="-231.5" font-family="FreeSans.ttf" font-size="10.00" fill="#000000">iDynTree/Core/GeomVector3.h</text>
</a>
</g>
</g>
<!-- Node23&#45;&gt;Node24 -->
<g id="edge35" class="edge">
<title>Node23&#45;&gt;Node24</title>
<path fill="none" stroke="#191970" d="M879.5298,-282.184C965.7461,-272.3507 1114.1108,-255.4293 1210.1033,-244.4811"/>
<polygon fill="#191970" stroke="#191970" points="1210.5538,-247.9525 1220.0927,-243.3418 1209.7605,-240.9976 1210.5538,-247.9525"/>
</g>
<!-- Node25 -->
<g id="node26" class="node">
<title>Node25</title>
<g id="a_node26"><a xlink:href="RotationRaw_8h.html" target="_top" xlink:title="iDynTree/Core/RotationRaw.h">
<polygon fill="none" stroke="#000000" points="732,-224.5 732,-243.5 890,-243.5 890,-224.5 732,-224.5"/>
<text text-anchor="middle" x="811" y="-231.5" font-family="FreeSans.ttf" font-size="10.00" fill="#000000">iDynTree/Core/RotationRaw.h</text>
</a>
</g>
</g>
<!-- Node23&#45;&gt;Node25 -->
<g id="edge37" class="edge">
<title>Node23&#45;&gt;Node25</title>
<path fill="none" stroke="#191970" d="M811,-280.2455C811,-272.9382 811,-262.6944 811,-253.7046"/>
<polygon fill="#191970" stroke="#191970" points="814.5001,-253.6426 811,-243.6427 807.5001,-253.6427 814.5001,-253.6426"/>
</g>
<!-- Node24&#45;&gt;Node20 -->
<g id="edge36" class="edge">
<title>Node24&#45;&gt;Node20</title>
<path fill="none" stroke="#191970" d="M1294.3358,-224.2455C1288.1527,-216.3761 1279.2937,-205.101 1271.8711,-195.6542"/>
<polygon fill="#191970" stroke="#191970" points="1274.5068,-193.3435 1265.5764,-187.6427 1269.0025,-197.6683 1274.5068,-193.3435"/>
</g>
<!-- Node25&#45;&gt;Node2 -->
<g id="edge46" class="edge">
<title>Node25&#45;&gt;Node2</title>
<path fill="none" stroke="#191970" d="M800.7514,-224.4385C784.5192,-209.8573 751.3081,-182.2575 718,-168 648.8286,-138.3912 560.1275,-127.6883 513.3005,-123.9358"/>
<polygon fill="#191970" stroke="#191970" points="513.3814,-120.4322 503.149,-123.1798 512.8614,-127.4129 513.3814,-120.4322"/>
</g>
<!-- Node26 -->
<g id="node27" class="node">
<title>Node26</title>
<g id="a_node27"><a xlink:href="MatrixFixSize_8h.html" target="_top" xlink:title="iDynTree/Core/MatrixFixSize.h">
<polygon fill="none" stroke="#000000" points="808.5,-168.5 808.5,-187.5 969.5,-187.5 969.5,-168.5 808.5,-168.5"/>
<text text-anchor="middle" x="889" y="-175.5" font-family="FreeSans.ttf" font-size="10.00" fill="#000000">iDynTree/Core/MatrixFixSize.h</text>
</a>
</g>
</g>
<!-- Node25&#45;&gt;Node26 -->
<g id="edge38" class="edge">
<title>Node25&#45;&gt;Node26</title>
<path fill="none" stroke="#191970" d="M824.5866,-224.2455C836.3305,-215.814 853.5199,-203.4729 867.1882,-193.6598"/>
<polygon fill="#191970" stroke="#191970" points="869.4871,-196.3179 875.5691,-187.6427 865.4046,-190.6316 869.4871,-196.3179"/>
</g>
<!-- Node26&#45;&gt;Node2 -->
<g id="edge43" class="edge">
<title>Node26&#45;&gt;Node2</title>
<path fill="none" stroke="#191970" d="M819.3259,-168.4369C730.0696,-156.186 579.0552,-135.4586 513.2555,-126.4272"/>
<polygon fill="#191970" stroke="#191970" points="513.467,-122.9235 503.0839,-125.0311 512.5151,-129.8585 513.467,-122.9235"/>
</g>
<!-- Node26&#45;&gt;Node5 -->
<g id="edge40" class="edge">
<title>Node26&#45;&gt;Node5</title>
<path fill="none" stroke="#191970" d="M808.2162,-170.4476C695.3824,-159.8989 491.483,-140.8365 375.9457,-130.035"/>
<polygon fill="#191970" stroke="#191970" points="376.0133,-126.5261 365.7309,-129.08 375.3617,-133.4957 376.0133,-126.5261"/>
</g>
<!-- Node26&#45;&gt;Node6 -->
<g id="edge41" class="edge">
<title>Node26&#45;&gt;Node6</title>
<path fill="none" stroke="#191970" d="M886.3384,-168.4862C878.8766,-141.8144 857.642,-65.9117 847.5099,-29.695"/>
<polygon fill="#191970" stroke="#191970" points="850.8143,-28.5151 844.7495,-19.8279 844.0731,-30.4011 850.8143,-28.5151"/>
</g>
<!-- Node26&#45;&gt;Node16 -->
<g id="edge39" class="edge">
<title>Node26&#45;&gt;Node16</title>
<path fill="none" stroke="#191970" d="M899.4438,-168.2873C915.9916,-153.5038 949.8727,-125.6376 984,-112 1024.2759,-95.9054 1137.2685,-81.3733 1211.9654,-73.1243"/>
<polygon fill="#191970" stroke="#191970" points="1212.6788,-76.5673 1222.2398,-72.0025 1211.919,-69.6086 1212.6788,-76.5673"/>
</g>
<!-- Node26&#45;&gt;Node21 -->
<g id="edge45" class="edge">
<title>Node26&#45;&gt;Node21</title>
<path fill="none" stroke="#191970" d="M961.5772,-168.4369C1052.4553,-156.4624 1204.7955,-136.3893 1275.6288,-127.056"/>
<polygon fill="#191970" stroke="#191970" points="1276.4166,-130.4825 1285.8737,-125.7061 1275.5021,-123.5425 1276.4166,-130.4825"/>
</g>
<!-- Node26&#45;&gt;Node22 -->
<g id="edge42" class="edge">
<title>Node26&#45;&gt;Node22</title>
<path fill="none" stroke="#191970" d="M935.8457,-168.4647C975.528,-160.1796 1034.1329,-147.4574 1093.8245,-132.1874"/>
<polygon fill="#191970" stroke="#191970" points="1094.992,-135.5009 1103.8007,-129.6138 1093.2434,-128.7228 1094.992,-135.5009"/>
</g>
<!-- Node27 -->
<g id="node28" class="node">
<title>Node27</title>
<polygon fill="none" stroke="#bfbfbf" points="1026,-112.5 1026,-131.5 1086,-131.5 1086,-112.5 1026,-112.5"/>
<text text-anchor="middle" x="1056" y="-119.5" font-family="FreeSans.ttf" font-size="10.00" fill="#000000">iostream</text>
</g>
<!-- Node26&#45;&gt;Node27 -->
<g id="edge44" class="edge">
<title>Node26&#45;&gt;Node27</title>
<path fill="none" stroke="#191970" d="M917.7083,-168.3733C945.3577,-159.1016 987.3576,-145.0178 1017.8166,-134.804"/>
<polygon fill="#191970" stroke="#191970" points="1019.2979,-137.9989 1027.6663,-131.5011 1017.0724,-131.3621 1019.2979,-137.9989"/>
</g>
<!-- Node28&#45;&gt;Node2 -->
<g id="edge53" class="edge">
<title>Node28&#45;&gt;Node2</title>
<path fill="none" stroke="#191970" d="M614.4419,-392.4848C573.0238,-384.1444 520.1101,-371.0267 504,-356 447.7182,-303.5032 463.3737,-264.9524 462,-188 461.8413,-179.1125 460.2702,-176.719 462,-168 463.8648,-158.6003 467.6799,-148.7115 471.4054,-140.5215"/>
<polygon fill="#191970" stroke="#191970" points="474.5557,-142.0464 475.7682,-131.5212 468.2567,-138.993 474.5557,-142.0464"/>
</g>
<!-- Node28&#45;&gt;Node18 -->
<g id="edge50" class="edge">
<title>Node28&#45;&gt;Node18</title>
<path fill="none" stroke="#191970" d="M652.8458,-392.2455C639.4973,-383.6534 619.8414,-371.0014 604.4617,-361.1018"/>
<polygon fill="#191970" stroke="#191970" points="606.2836,-358.1121 595.9806,-355.6427 602.4949,-363.9982 606.2836,-358.1121"/>
</g>
<!-- Node28&#45;&gt;Node23 -->
<g id="edge51" class="edge">
<title>Node28&#45;&gt;Node23</title>
<path fill="none" stroke="#191970" d="M680.1921,-392.4509C704.7815,-373.1921 760.5391,-329.5218 790.7074,-305.8935"/>
<polygon fill="#191970" stroke="#191970" points="793.1241,-308.4464 798.8388,-299.5249 788.8079,-302.9355 793.1241,-308.4464"/>
</g>
<!-- Node28&#45;&gt;Node26 -->
<g id="edge52" class="edge">
<title>Node28&#45;&gt;Node26</title>
<path fill="none" stroke="#191970" d="M667.9561,-392.2661C668.3715,-362.4915 673.8072,-271.7694 723,-224 737.5865,-209.8355 783.511,-197.7403 823.3673,-189.5123"/>
<polygon fill="#191970" stroke="#191970" points="824.2334,-192.9082 833.3468,-187.5048 822.8529,-186.0457 824.2334,-192.9082"/>
</g>
<!-- Node29&#45;&gt;Node2 -->
<g id="edge56" class="edge">
<title>Node29&#45;&gt;Node2</title>
<path fill="none" stroke="#191970" d="M118.8907,-280.187C138.395,-256.6579 191.5503,-196.8468 250,-168 284.621,-150.9135 393.8503,-134.0059 448.7865,-126.3098"/>
<polygon fill="#191970" stroke="#191970" points="449.2711,-129.7761 458.6972,-124.9389 448.3119,-122.8422 449.2711,-129.7761"/>
</g>
<!-- Node29&#45;&gt;Node8 -->
<g id="edge55" class="edge">
<title>Node29&#45;&gt;Node8</title>
<path fill="none" stroke="#191970" d="M112.9638,-280.3184C119.6783,-249.8998 144.7276,-155.6827 205,-112 235.8797,-89.6198 334.2989,-77.1963 403.1016,-71.0574"/>
<polygon fill="#191970" stroke="#191970" points="403.7895,-74.511 413.4502,-70.1611 403.1855,-67.5371 403.7895,-74.511"/>
</g>
<!-- Node30&#45;&gt;Node2 -->
<g id="edge58" class="edge">
<title>Node30&#45;&gt;Node2</title>
<path fill="none" stroke="#191970" d="M462.3277,-392.4096C453.286,-383.7313 440.6116,-370.1717 433,-356 392.9302,-281.3959 359.7934,-241.4163 402,-168 412.1169,-150.4021 431.8436,-138.9064 449.0527,-131.808"/>
<polygon fill="#191970" stroke="#191970" points="450.6853,-134.9327 458.8026,-128.1238 448.2109,-128.3846 450.6853,-134.9327"/>
</g>
<!-- Node30&#45;&gt;Node16 -->
<g id="edge64" class="edge">
<title>Node30&#45;&gt;Node16</title>
<path fill="none" stroke="#191970" d="M467.8127,-392.3224C446.8266,-351.7169 372.9373,-193.441 450,-112 476.0384,-84.4822 1016.6672,-71.1964 1212.2023,-67.278"/>
<polygon fill="#191970" stroke="#191970" points="1212.4332,-70.7742 1222.3618,-67.0766 1212.2944,-63.7755 1212.4332,-70.7742"/>
</g>
<!-- Node30&#45;&gt;Node18 -->
<g id="edge63" class="edge">
<title>Node30&#45;&gt;Node18</title>
<path fill="none" stroke="#191970" d="M491.8122,-392.2455C508.8473,-383.4125 534.1575,-370.2887 553.4681,-360.2758"/>
<polygon fill="#191970" stroke="#191970" points="555.137,-363.353 562.4034,-355.6427 551.9147,-357.1388 555.137,-363.353"/>
</g>
<!-- Node31 -->
<g id="node32" class="node">
<title>Node31</title>
<g id="a_node32"><a xlink:href="Direction_8h.html" target="_top" xlink:title="iDynTree/Core/Direction.h">
<polygon fill="none" stroke="#000000" points="946.5,-224.5 946.5,-243.5 1087.5,-243.5 1087.5,-224.5 946.5,-224.5"/>
<text text-anchor="middle" x="1017" y="-231.5" font-family="FreeSans.ttf" font-size="10.00" fill="#000000">iDynTree/Core/Direction.h</text>
</a>
</g>
</g>
<!-- Node30&#45;&gt;Node31 -->
<g id="edge59" class="edge">
<title>Node30&#45;&gt;Node31</title>
<path fill="none" stroke="#191970" d="M474.8035,-392.3013C478.0227,-377.7935 486.1685,-350.5903 504,-336 569.0894,-282.7418 808.5676,-253.1532 935.9923,-240.8645"/>
<polygon fill="#191970" stroke="#191970" points="936.4688,-244.3351 946.0926,-239.9041 935.8061,-237.3665 936.4688,-244.3351"/>
</g>
<!-- Node31&#45;&gt;Node2 -->
<g id="edge60" class="edge">
<title>Node31&#45;&gt;Node2</title>
<path fill="none" stroke="#191970" d="M958.7484,-224.4567C914.6612,-216.5613 852.8806,-204.0512 800,-188 777.0977,-181.0483 773.0352,-174.4977 750,-168 666.3465,-144.4031 564.4482,-131.0034 513.4118,-125.3038"/>
<polygon fill="#191970" stroke="#191970" points="513.6385,-121.8079 503.3181,-124.2035 512.8799,-128.7666 513.6385,-121.8079"/>
</g>
<!-- Node31&#45;&gt;Node16 -->
<g id="edge62" class="edge">
<title>Node31&#45;&gt;Node16</title>
<path fill="none" stroke="#191970" d="M1013.3232,-224.3751C1005.3794,-201.7711 989.4549,-144.7384 1017,-112 1041.4986,-82.8825 1142.216,-72.1954 1212.1715,-68.2733"/>
<polygon fill="#191970" stroke="#191970" points="1212.4548,-71.7634 1222.2569,-67.7424 1212.0867,-64.7731 1212.4548,-71.7634"/>
</g>
<!-- Node31&#45;&gt;Node20 -->
<g id="edge61" class="edge">
<title>Node31&#45;&gt;Node20</title>
<path fill="none" stroke="#191970" d="M1058.1555,-224.4369C1099.3142,-214.8731 1162.705,-200.1432 1207.0242,-189.845"/>
<polygon fill="#191970" stroke="#191970" points="1208.0659,-193.1963 1217.0142,-187.5237 1206.4815,-186.3779 1208.0659,-193.1963"/>
</g>
<!-- Node32&#45;&gt;Node4 -->
<g id="edge70" class="edge">
<title>Node32&#45;&gt;Node4</title>
<path fill="none" stroke="#191970" d="M936.2614,-516.4707C817.7128,-502.5268 590.5146,-470.3769 405,-412 361.8592,-398.4246 314.6722,-375.2647 286.2085,-360.3026"/>
<polygon fill="#191970" stroke="#191970" points="287.7788,-357.1736 277.3063,-355.5685 284.4921,-363.354 287.7788,-357.1736"/>
</g>
<!-- Node32&#45;&gt;Node11 -->
<g id="edge66" class="edge">
<title>Node32&#45;&gt;Node11</title>
<path fill="none" stroke="#191970" d="M1097.9349,-515.8225C1100.9944,-515.5343 1104.0242,-515.2588 1107,-515 1170.4418,-509.4822 1630.1246,-519.8229 1679,-479 1706.0533,-456.4039 1698,-437.2487 1698,-402 1698,-402 1698,-402 1698,-122 1698,-60.8207 1491.5492,-26.2873 1405.7298,-14.575"/>
<polygon fill="#191970" stroke="#191970" points="1406.0201,-11.0828 1395.6448,-13.2283 1405.0935,-18.0212 1406.0201,-11.0828"/>
</g>
<!-- Node32&#45;&gt;Node16 -->
<g id="edge87" class="edge">
<title>Node32&#45;&gt;Node16</title>
<path fill="none" stroke="#191970" d="M1097.9477,-515.9561C1101.0036,-515.6304 1104.0292,-515.3107 1107,-515 1270.0047,-497.9501 1323.2194,-543.2375 1474,-479 1522.4299,-458.3673 1564,-454.6418 1564,-402 1564,-402 1564,-402 1564,-178 1564,-128.7548 1519.6375,-132.7985 1475,-112 1436.1638,-93.9046 1389.504,-82.534 1351.7915,-75.6252"/>
<polygon fill="#191970" stroke="#191970" points="1352.3643,-72.1722 1341.9077,-73.8783 1351.1459,-79.0654 1352.3643,-72.1722"/>
</g>
<!-- Node32&#45;&gt;Node20 -->
<g id="edge69" class="edge">
<title>Node32&#45;&gt;Node20</title>
<path fill="none" stroke="#191970" d="M1097.9701,-515.9396C1213.7807,-502.9455 1413.2961,-480.4143 1417,-479 1472.4107,-457.8416 1526,-461.3129 1526,-402 1526,-402 1526,-402 1526,-290 1526,-244.6029 1393.4323,-207.6615 1314.7713,-189.7377"/>
<polygon fill="#191970" stroke="#191970" points="1315.5124,-186.317 1304.9887,-187.5431 1313.98,-193.1473 1315.5124,-186.317"/>
</g>
<!-- Node32&#45;&gt;Node26 -->
<g id="edge71" class="edge">
<title>Node32&#45;&gt;Node26</title>
<path fill="none" stroke="#191970" d="M1001.0939,-515.364C973.1089,-497.056 918,-454.3567 918,-402 918,-402 918,-402 918,-290 918,-256.5134 905.7005,-219.1413 897.1215,-197.1469"/>
<polygon fill="#191970" stroke="#191970" points="900.2799,-195.6216 893.279,-187.6693 893.7928,-198.2517 900.2799,-195.6216"/>
</g>
<!-- Node32&#45;&gt;Node28 -->
<g id="edge86" class="edge">
<title>Node32&#45;&gt;Node28</title>
<path fill="none" stroke="#191970" d="M989.905,-515.4507C927.9302,-493.6086 775.7541,-439.9764 705.1267,-415.0848"/>
<polygon fill="#191970" stroke="#191970" points="705.9132,-411.651 695.3184,-411.628 703.5864,-418.253 705.9132,-411.651"/>
</g>
<!-- Node32&#45;&gt;Node29 -->
<g id="edge68" class="edge">
<title>Node32&#45;&gt;Node29</title>
<path fill="none" stroke="#191970" d="M936.2283,-524.4187C737.2807,-522.4515 234.8935,-514.0347 168,-479 113.4098,-450.409 110.4921,-417.2812 104,-356 102.3498,-340.4236 104.4259,-322.7797 106.7363,-309.656"/>
<polygon fill="#191970" stroke="#191970" points="110.1715,-310.3257 108.6554,-299.8399 103.3016,-308.9825 110.1715,-310.3257"/>
</g>
<!-- Node33 -->
<g id="node34" class="node">
<title>Node33</title>
<polygon fill="none" stroke="#bfbfbf" points="1592.5,-454 1592.5,-473 1669.5,-473 1669.5,-454 1592.5,-454"/>
<text text-anchor="middle" x="1631" y="-461" font-family="FreeSans.ttf" font-size="10.00" fill="#000000">Eigen/Dense</text>
</g>
<!-- Node32&#45;&gt;Node33 -->
<g id="edge67" class="edge">
<title>Node32&#45;&gt;Node33</title>
<path fill="none" stroke="#191970" d="M1097.9396,-515.8739C1100.9977,-515.5713 1104.026,-515.2788 1107,-515 1316.0275,-495.4049 1371.4631,-516.6691 1578,-479 1582.7598,-478.1319 1587.7028,-477.0036 1592.5717,-475.7516"/>
<polygon fill="#191970" stroke="#191970" points="1593.6672,-479.0803 1602.3793,-473.0513 1591.809,-472.3314 1593.6672,-479.0803"/>
</g>
<!-- Node34 -->
<g id="node35" class="node">
<title>Node34</title>
<g id="a_node35"><a xlink:href="SpatialMotionVector_8h.html" target="_top" xlink:title="iDynTree/Core/SpatialMotion\lVector.h">
<polygon fill="none" stroke="#000000" points="1252.5,-448.5 1252.5,-478.5 1407.5,-478.5 1407.5,-448.5 1252.5,-448.5"/>
<text text-anchor="start" x="1260.5" y="-466.5" font-family="FreeSans.ttf" font-size="10.00" fill="#000000">iDynTree/Core/SpatialMotion</text>
<text text-anchor="middle" x="1330" y="-455.5" font-family="FreeSans.ttf" font-size="10.00" fill="#000000">Vector.h</text>
</a>
</g>
</g>
<!-- Node32&#45;&gt;Node34 -->
<g id="edge72" class="edge">
<title>Node32&#45;&gt;Node34</title>
<path fill="none" stroke="#191970" d="M1065.5628,-515.4581C1112.9434,-506.1485 1186.0591,-491.7823 1243.4095,-480.5138"/>
<polygon fill="#191970" stroke="#191970" points="1244.4227,-483.8817 1253.5602,-478.5193 1243.073,-477.013 1244.4227,-483.8817"/>
</g>
<!-- Node36 -->
<g id="node37" class="node">
<title>Node36</title>
<g id="a_node37"><a xlink:href="SpatialForceVector_8h.html" target="_top" xlink:title="iDynTree/Core/SpatialForce\lVector.h">
<polygon fill="none" stroke="#000000" points="1062,-448.5 1062,-478.5 1210,-478.5 1210,-448.5 1062,-448.5"/>
<text text-anchor="start" x="1070" y="-466.5" font-family="FreeSans.ttf" font-size="10.00" fill="#000000">iDynTree/Core/SpatialForce</text>
<text text-anchor="middle" x="1136" y="-455.5" font-family="FreeSans.ttf" font-size="10.00" fill="#000000">Vector.h</text>
</a>
</g>
</g>
<!-- Node32&#45;&gt;Node36 -->
<g id="edge82" class="edge">
<title>Node32&#45;&gt;Node36</title>
<path fill="none" stroke="#191970" d="M1035.5938,-515.3906C1052.2209,-506.7976 1077.1083,-493.9356 1097.945,-483.1671"/>
<polygon fill="#191970" stroke="#191970" points="1099.6125,-486.2451 1106.8893,-478.5446 1096.3986,-480.0265 1099.6125,-486.2451"/>
</g>
<!-- Node34&#45;&gt;Node20 -->
<g id="edge73" class="edge">
<title>Node34&#45;&gt;Node20</title>
<path fill="none" stroke="#191970" d="M1363.4267,-448.4255C1398.9337,-429.8593 1450,-394.693 1450,-346 1450,-346 1450,-346 1450,-290 1450,-232.0553 1383.9463,-203.5531 1329.3253,-189.8896"/>
<polygon fill="#191970" stroke="#191970" points="1329.8156,-186.4089 1319.2779,-187.5073 1328.2006,-193.2201 1329.8156,-186.4089"/>
</g>
<!-- Node34&#45;&gt;Node24 -->
<g id="edge74" class="edge">
<title>Node34&#45;&gt;Node24</title>
<path fill="none" stroke="#191970" d="M1339.5887,-448.4025C1345.3064,-438.4813 1352.0162,-424.9794 1355,-412 1356.9915,-403.3371 1356.4322,-400.7728 1355,-392 1346.5305,-340.1197 1323.3869,-282.2958 1310.6642,-253.0968"/>
<polygon fill="#191970" stroke="#191970" points="1313.7493,-251.42 1306.4948,-243.6984 1307.3507,-254.2586 1313.7493,-251.42"/>
</g>
<!-- Node35 -->
<g id="node36" class="node">
<title>Node35</title>
<g id="a_node36"><a xlink:href="SpatialVector_8h.html" target="_top" xlink:title="iDynTree/Core/SpatialVector.h">
<polygon fill="none" stroke="#000000" points="1184.5,-392.5 1184.5,-411.5 1345.5,-411.5 1345.5,-392.5 1184.5,-392.5"/>
<text text-anchor="middle" x="1265" y="-399.5" font-family="FreeSans.ttf" font-size="10.00" fill="#000000">iDynTree/Core/SpatialVector.h</text>
</a>
</g>
</g>
<!-- Node34&#45;&gt;Node35 -->
<g id="edge75" class="edge">
<title>Node34&#45;&gt;Node35</title>
<path fill="none" stroke="#191970" d="M1313.9326,-448.2977C1304.534,-439.4052 1292.6473,-428.1586 1282.943,-418.9769"/>
<polygon fill="#191970" stroke="#191970" points="1285.0768,-416.1774 1275.4073,-411.8469 1280.2658,-421.2621 1285.0768,-416.1774"/>
</g>
<!-- Node35&#45;&gt;Node16 -->
<g id="edge78" class="edge">
<title>Node35&#45;&gt;Node16</title>
<path fill="none" stroke="#191970" d="M1345.5081,-394.17C1409.3838,-382.9894 1488,-355.8523 1488,-290 1488,-290 1488,-290 1488,-178 1488,-114.505 1411.5274,-86.8056 1351.7691,-74.8534"/>
<polygon fill="#191970" stroke="#191970" points="1352.0591,-71.3465 1341.5837,-72.9333 1350.7622,-78.2253 1352.0591,-71.3465"/>
</g>
<!-- Node35&#45;&gt;Node18 -->
<g id="edge76" class="edge">
<title>Node35&#45;&gt;Node18</title>
<path fill="none" stroke="#191970" d="M1184.1879,-395.3838C1051.8469,-384.5489 790.5601,-363.157 659.6433,-352.4386"/>
<polygon fill="#191970" stroke="#191970" points="659.5514,-348.9195 649.2991,-351.5917 658.9801,-355.8961 659.5514,-348.9195"/>
</g>
<!-- Node35&#45;&gt;Node21 -->
<g id="edge81" class="edge">
<title>Node35&#45;&gt;Node21</title>
<path fill="none" stroke="#191970" d="M1299.465,-392.4443C1342.9137,-378.0495 1412,-346.3079 1412,-290 1412,-290 1412,-290 1412,-234 1412,-190.4482 1369.5118,-155.6916 1340.4879,-137.0299"/>
<polygon fill="#191970" stroke="#191970" points="1342.3203,-134.0479 1331.9747,-131.7631 1338.6374,-140.0008 1342.3203,-134.0479"/>
</g>
<!-- Node35&#45;&gt;Node23 -->
<g id="edge77" class="edge">
<title>Node35&#45;&gt;Node23</title>
<path fill="none" stroke="#191970" d="M1226.2922,-392.4509C1143.6181,-372.0556 949.967,-324.2826 859.3546,-301.9289"/>
<polygon fill="#191970" stroke="#191970" points="860.1571,-298.522 849.6098,-299.5249 858.4804,-305.3182 860.1571,-298.522"/>
</g>
<!-- Node35&#45;&gt;Node24 -->
<g id="edge79" class="edge">
<title>Node35&#45;&gt;Node24</title>
<path fill="none" stroke="#191970" d="M1267.0953,-392.4862C1272.9695,-365.8144 1289.6861,-289.9117 1297.6624,-253.695"/>
<polygon fill="#191970" stroke="#191970" points="1301.1027,-254.3467 1299.8355,-243.8279 1294.2665,-252.841 1301.1027,-254.3467"/>
</g>
<!-- Node35&#45;&gt;Node27 -->
<g id="edge80" class="edge">
<title>Node35&#45;&gt;Node27</title>
<path fill="none" stroke="#191970" d="M1257.8057,-392.3618C1227.4076,-351.6369 1109.2266,-193.3084 1069.2794,-139.7905"/>
<polygon fill="#191970" stroke="#191970" points="1071.9505,-137.5178 1063.164,-131.5977 1066.3409,-141.705 1071.9505,-137.5178"/>
</g>
<!-- Node36&#45;&gt;Node20 -->
<g id="edge83" class="edge">
<title>Node36&#45;&gt;Node20</title>
<path fill="none" stroke="#191970" d="M1138.2218,-448.4473C1144.5502,-409.0747 1165.3103,-300.7825 1212,-224 1218.739,-212.9176 1228.6891,-202.521 1237.6131,-194.4253"/>
<polygon fill="#191970" stroke="#191970" points="1240.13,-196.8756 1245.3985,-187.6836 1235.5477,-191.5839 1240.13,-196.8756"/>
</g>
<!-- Node36&#45;&gt;Node24 -->
<g id="edge84" class="edge">
<title>Node36&#45;&gt;Node24</title>
<path fill="none" stroke="#191970" d="M1143.5872,-448.2891C1151.1671,-433.5175 1163.4663,-410.6537 1176,-392 1212.1751,-338.1614 1261.8136,-279.6826 1286.6035,-251.3439"/>
<polygon fill="#191970" stroke="#191970" points="1289.4785,-253.3748 1293.4567,-243.5553 1284.2232,-248.7507 1289.4785,-253.3748"/>
</g>
<!-- Node36&#45;&gt;Node35 -->
<g id="edge85" class="edge">
<title>Node36&#45;&gt;Node35</title>
<path fill="none" stroke="#191970" d="M1167.557,-448.4554C1188.4201,-438.509 1215.5691,-425.5659 1235.9098,-415.8686"/>
<polygon fill="#191970" stroke="#191970" points="1237.4891,-418.9931 1245.0096,-411.5303 1234.4767,-412.6744 1237.4891,-418.9931"/>
</g>
</g>
</svg>
