<?xml version="1.0" encoding="UTF-8" standalone="no"?>
<!DOCTYPE svg PUBLIC "-//W3C//DTD SVG 1.1//EN"
 "http://www.w3.org/Graphics/SVG/1.1/DTD/svg11.dtd">
<!-- Generated by graphviz version 2.40.1 (20161225.0304)
 -->
<!-- Title: CubicSpline.cpp Pages: 1 -->
<svg width="1615pt" height="599pt"
 viewBox="0.00 0.00 1615.00 599.00" xmlns="http://www.w3.org/2000/svg" xmlns:xlink="http://www.w3.org/1999/xlink">
<g id="graph0" class="graph" transform="scale(1 1) rotate(0) translate(4 595)">
<title>CubicSpline.cpp</title>
<!-- Node0 -->
<g id="node1" class="node">
<title>Node0</title>
<polygon fill="#bfbfbf" stroke="#000000" points="1276.5,-571.5 1276.5,-590.5 1370.5,-590.5 1370.5,-571.5 1276.5,-571.5"/>
<text text-anchor="middle" x="1323.5" y="-578.5" font-family="FreeSans.ttf" font-size="10.00" fill="#000000">CubicSpline.cpp</text>
</g>
<!-- Node1 -->
<g id="node2" class="node">
<title>Node1</title>
<g id="a_node2"><a xlink:href="CubicSpline_8h.html" target="_top" xlink:title="iDynTree/Core/CubicSpline.h">
<polygon fill="none" stroke="#000000" points="39.5,-224.5 39.5,-243.5 193.5,-243.5 193.5,-224.5 39.5,-224.5"/>
<text text-anchor="middle" x="116.5" y="-231.5" font-family="FreeSans.ttf" font-size="10.00" fill="#000000">iDynTree/Core/CubicSpline.h</text>
</a>
</g>
</g>
<!-- Node0&#45;&gt;Node1 -->
<g id="edge1" class="edge">
<title>Node0&#45;&gt;Node1</title>
<path fill="none" stroke="#191970" d="M1276.0757,-580.3245C1146.3894,-578.0725 775.0829,-568.9164 468.5,-535 309.8287,-517.4466 116.5,-623.1393 116.5,-463.5 116.5,-463.5 116.5,-463.5 116.5,-346 116.5,-313.7116 116.5,-276.1872 116.5,-253.8048"/>
<polygon fill="#191970" stroke="#191970" points="120.0001,-253.5883 116.5,-243.5884 113.0001,-253.5884 120.0001,-253.5883"/>
</g>
<!-- Node20 -->
<g id="node21" class="node">
<title>Node20</title>
<g id="a_node21"><a xlink:href="EigenHelpers_8h.html" target="_top" xlink:title="iDynTree/Core/EigenHelpers.h">
<polygon fill="none" stroke="#000000" points="789,-515.5 789,-534.5 950,-534.5 950,-515.5 789,-515.5"/>
<text text-anchor="middle" x="869.5" y="-522.5" font-family="FreeSans.ttf" font-size="10.00" fill="#000000">iDynTree/Core/EigenHelpers.h</text>
</a>
</g>
</g>
<!-- Node0&#45;&gt;Node20 -->
<g id="edge25" class="edge">
<title>Node0&#45;&gt;Node20</title>
<path fill="none" stroke="#191970" d="M1276.1988,-575.1655C1200.8194,-565.8676 1052.2615,-547.5433 957.0786,-535.8026"/>
<polygon fill="#191970" stroke="#191970" points="957.246,-532.2969 946.8927,-534.5462 956.389,-539.2442 957.246,-532.2969"/>
</g>
<!-- Node21 -->
<g id="node22" class="node">
<title>Node21</title>
<polygon fill="none" stroke="#bfbfbf" points="145,-454 145,-473 222,-473 222,-454 145,-454"/>
<text text-anchor="middle" x="183.5" y="-461" font-family="FreeSans.ttf" font-size="10.00" fill="#000000">Eigen/Dense</text>
</g>
<!-- Node0&#45;&gt;Node21 -->
<g id="edge77" class="edge">
<title>Node0&#45;&gt;Node21</title>
<path fill="none" stroke="#191970" d="M1276.4051,-579.9386C1124.3951,-575.8007 633.6135,-556.874 236.5,-479 231.9858,-478.1148 227.3018,-477.0168 222.6703,-475.817"/>
<polygon fill="#191970" stroke="#191970" points="223.2716,-472.3523 212.7011,-473.0707 221.4124,-479.1009 223.2716,-472.3523"/>
</g>
<!-- Node25 -->
<g id="node26" class="node">
<title>Node25</title>
<polygon fill="none" stroke="#bfbfbf" points="1179.5,-112.5 1179.5,-131.5 1239.5,-131.5 1239.5,-112.5 1179.5,-112.5"/>
<text text-anchor="middle" x="1209.5" y="-119.5" font-family="FreeSans.ttf" font-size="10.00" fill="#000000">iostream</text>
</g>
<!-- Node0&#45;&gt;Node25 -->
<g id="edge80" class="edge">
<title>Node0&#45;&gt;Node25</title>
<path fill="none" stroke="#191970" d="M1321.3791,-571.3427C1311.3347,-525.8142 1267.2145,-328.1302 1223.5,-168 1221.1154,-159.2649 1218.2381,-149.6738 1215.7138,-141.5203"/>
<polygon fill="#191970" stroke="#191970" points="1219.0041,-140.3155 1212.6698,-131.8227 1212.3254,-142.4119 1219.0041,-140.3155"/>
</g>
<!-- Node35 -->
<g id="node36" class="node">
<title>Node35</title>
<polygon fill="none" stroke="#bfbfbf" points="1351.5,-515.5 1351.5,-534.5 1431.5,-534.5 1431.5,-515.5 1351.5,-515.5"/>
<text text-anchor="middle" x="1391.5" y="-522.5" font-family="FreeSans.ttf" font-size="10.00" fill="#000000">Eigen/Sparse</text>
</g>
<!-- Node0&#45;&gt;Node35 -->
<g id="edge78" class="edge">
<title>Node0&#45;&gt;Node35</title>
<path fill="none" stroke="#191970" d="M1335.3447,-571.2455C1345.388,-562.9746 1359.9995,-550.9416 1371.8004,-541.2232"/>
<polygon fill="#191970" stroke="#191970" points="1374.2967,-543.7015 1379.791,-534.6427 1369.8467,-538.298 1374.2967,-543.7015"/>
</g>
<!-- Node36 -->
<g id="node37" class="node">
<title>Node36</title>
<polygon fill="none" stroke="#bfbfbf" points="1449.5,-515.5 1449.5,-534.5 1541.5,-534.5 1541.5,-515.5 1449.5,-515.5"/>
<text text-anchor="middle" x="1495.5" y="-522.5" font-family="FreeSans.ttf" font-size="10.00" fill="#000000">Eigen/SparseLU</text>
</g>
<!-- Node0&#45;&gt;Node36 -->
<g id="edge79" class="edge">
<title>Node0&#45;&gt;Node36</title>
<path fill="none" stroke="#191970" d="M1353.0679,-571.3733C1381.6688,-562.0613 1425.1788,-547.8953 1456.5819,-537.671"/>
<polygon fill="#191970" stroke="#191970" points="1457.8928,-540.9251 1466.318,-534.5011 1455.7257,-534.269 1457.8928,-540.9251"/>
</g>
<!-- Node37 -->
<g id="node38" class="node">
<title>Node37</title>
<polygon fill="none" stroke="#bfbfbf" points="1560,-515.5 1560,-534.5 1607,-534.5 1607,-515.5 1560,-515.5"/>
<text text-anchor="middle" x="1583.5" y="-522.5" font-family="FreeSans.ttf" font-size="10.00" fill="#000000">cmath</text>
</g>
<!-- Node0&#45;&gt;Node37 -->
<g id="edge81" class="edge">
<title>Node0&#45;&gt;Node37</title>
<path fill="none" stroke="#191970" d="M1370.7452,-572.7693C1414.704,-564.8107 1482.2006,-551.828 1549.8087,-534.9913"/>
<polygon fill="#191970" stroke="#191970" points="1550.9395,-538.3159 1559.7817,-532.4794 1549.2297,-531.5279 1550.9395,-538.3159"/>
</g>
<!-- Node2 -->
<g id="node3" class="node">
<title>Node2</title>
<polygon fill="none" stroke="#bfbfbf" points="0,-168.5 0,-187.5 47,-187.5 47,-168.5 0,-168.5"/>
<text text-anchor="middle" x="23.5" y="-175.5" font-family="FreeSans.ttf" font-size="10.00" fill="#000000">vector</text>
</g>
<!-- Node1&#45;&gt;Node2 -->
<g id="edge2" class="edge">
<title>Node1&#45;&gt;Node2</title>
<path fill="none" stroke="#191970" d="M100.3006,-224.2455C85.8982,-215.5731 64.6268,-202.7645 48.1201,-192.825"/>
<polygon fill="#191970" stroke="#191970" points="49.886,-189.8028 39.5137,-187.6427 46.275,-195.7996 49.886,-189.8028"/>
</g>
<!-- Node3 -->
<g id="node4" class="node">
<title>Node3</title>
<g id="a_node4"><a xlink:href="VectorFixSize_8h.html" target="_top" xlink:title="iDynTree/Core/VectorFixSize.h">
<polygon fill="none" stroke="#000000" points="841,-168.5 841,-187.5 1002,-187.5 1002,-168.5 841,-168.5"/>
<text text-anchor="middle" x="921.5" y="-175.5" font-family="FreeSans.ttf" font-size="10.00" fill="#000000">iDynTree/Core/VectorFixSize.h</text>
</a>
</g>
</g>
<!-- Node1&#45;&gt;Node3 -->
<g id="edge3" class="edge">
<title>Node1&#45;&gt;Node3</title>
<path fill="none" stroke="#191970" d="M193.5638,-230.2173C322.8524,-223.6117 591.8704,-208.758 830.3095,-188.0673"/>
<polygon fill="#191970" stroke="#191970" points="830.9069,-191.5286 840.5646,-187.1721 830.2981,-184.5551 830.9069,-191.5286"/>
</g>
<!-- Node19 -->
<g id="node20" class="node">
<title>Node19</title>
<g id="a_node20"><a xlink:href="VectorDynSize_8h.html" target="_top" xlink:title="iDynTree/Core/VectorDynSize.h">
<polygon fill="none" stroke="#000000" points="65,-168.5 65,-187.5 232,-187.5 232,-168.5 65,-168.5"/>
<text text-anchor="middle" x="148.5" y="-175.5" font-family="FreeSans.ttf" font-size="10.00" fill="#000000">iDynTree/Core/VectorDynSize.h</text>
</a>
</g>
</g>
<!-- Node1&#45;&gt;Node19 -->
<g id="edge22" class="edge">
<title>Node1&#45;&gt;Node19</title>
<path fill="none" stroke="#191970" d="M122.074,-224.2455C126.4331,-216.617 132.6211,-205.7881 137.9133,-196.5267"/>
<polygon fill="#191970" stroke="#191970" points="141.0673,-198.0616 142.9899,-187.6427 134.9896,-194.5886 141.0673,-198.0616"/>
</g>
<!-- Node4 -->
<g id="node5" class="node">
<title>Node4</title>
<g id="a_node5"><a xlink:href="Utils_8h.html" target="_top" xlink:title="iDynTree/Core/Utils.h">
<polygon fill="none" stroke="#000000" points="1027,-56.5 1027,-75.5 1146,-75.5 1146,-56.5 1027,-56.5"/>
<text text-anchor="middle" x="1086.5" y="-63.5" font-family="FreeSans.ttf" font-size="10.00" fill="#000000">iDynTree/Core/Utils.h</text>
</a>
</g>
</g>
<!-- Node3&#45;&gt;Node4 -->
<g id="edge4" class="edge">
<title>Node3&#45;&gt;Node4</title>
<path fill="none" stroke="#191970" d="M944.4797,-168.394C963.4522,-159.9996 990.7034,-146.8536 1012.5,-132 1033.865,-117.4405 1055.6311,-97.2483 1069.9741,-83.0435"/>
<polygon fill="#191970" stroke="#191970" points="1072.564,-85.4027 1077.1291,-75.8418 1067.5982,-80.469 1072.564,-85.4027"/>
</g>
<!-- Node5 -->
<g id="node6" class="node">
<title>Node5</title>
<polygon fill="none" stroke="#bfbfbf" points="974,-.5 974,-19.5 1027,-19.5 1027,-.5 974,-.5"/>
<text text-anchor="middle" x="1000.5" y="-7.5" font-family="FreeSans.ttf" font-size="10.00" fill="#000000">cstddef</text>
</g>
<!-- Node3&#45;&gt;Node5 -->
<g id="edge20" class="edge">
<title>Node3&#45;&gt;Node5</title>
<path fill="none" stroke="#191970" d="M939.6694,-168.4301C952.8872,-160.4823 970.0586,-147.9173 979.5,-132 998.5163,-99.9402 1001.4047,-55.3237 1001.2899,-29.8797"/>
<polygon fill="#191970" stroke="#191970" points="1004.7843,-29.5759 1001.0729,-19.6524 997.7859,-29.7244 1004.7843,-29.5759"/>
</g>
<!-- Node7 -->
<g id="node8" class="node">
<title>Node7</title>
<g id="a_node8"><a xlink:href="Span_8h.html" target="_top" xlink:title="iDynTree/Core/Span.h">
<polygon fill="none" stroke="#000000" points="467,-56.5 467,-75.5 588,-75.5 588,-56.5 467,-56.5"/>
<text text-anchor="middle" x="527.5" y="-63.5" font-family="FreeSans.ttf" font-size="10.00" fill="#000000">iDynTree/Core/Span.h</text>
</a>
</g>
</g>
<!-- Node3&#45;&gt;Node7 -->
<g id="edge7" class="edge">
<title>Node3&#45;&gt;Node7</title>
<path fill="none" stroke="#191970" d="M840.9556,-168.9631C734.3683,-156.8575 559.151,-136.3852 553.5,-132 539.2508,-120.9425 532.7958,-100.9362 529.8806,-85.8389"/>
<polygon fill="#191970" stroke="#191970" points="533.3308,-85.248 528.3227,-75.9115 526.4154,-86.3333 533.3308,-85.248"/>
</g>
<!-- Node8 -->
<g id="node9" class="node">
<title>Node8</title>
<polygon fill="none" stroke="#bfbfbf" points="724.5,-.5 724.5,-19.5 776.5,-19.5 776.5,-.5 724.5,-.5"/>
<text text-anchor="middle" x="750.5" y="-7.5" font-family="FreeSans.ttf" font-size="10.00" fill="#000000">cassert</text>
</g>
<!-- Node3&#45;&gt;Node8 -->
<g id="edge19" class="edge">
<title>Node3&#45;&gt;Node8</title>
<path fill="none" stroke="#191970" d="M914.2884,-168.174C904.3574,-154.8895 885.6343,-130.7107 867.5,-112 835.7637,-79.2551 794.8621,-45.2322 770.7786,-25.9283"/>
<polygon fill="#191970" stroke="#191970" points="772.7191,-22.9996 762.7147,-19.512 768.3606,-28.4772 772.7191,-22.9996"/>
</g>
<!-- Node16 -->
<g id="node17" class="node">
<title>Node16</title>
<polygon fill="none" stroke="#bfbfbf" points="462.5,-112.5 462.5,-131.5 506.5,-131.5 506.5,-112.5 462.5,-112.5"/>
<text text-anchor="middle" x="484.5" y="-119.5" font-family="FreeSans.ttf" font-size="10.00" fill="#000000">string</text>
</g>
<!-- Node3&#45;&gt;Node16 -->
<g id="edge17" class="edge">
<title>Node3&#45;&gt;Node16</title>
<path fill="none" stroke="#191970" d="M840.8916,-168.9131C726.0614,-155.9459 528.2914,-133.5193 520.5,-132 519.2465,-131.7556 517.973,-131.4896 516.6898,-131.2069"/>
<polygon fill="#191970" stroke="#191970" points="517.3851,-127.7737 506.839,-128.7896 515.7168,-134.572 517.3851,-127.7737"/>
</g>
<!-- Node17 -->
<g id="node18" class="node">
<title>Node17</title>
<polygon fill="none" stroke="#bfbfbf" points="914.5,-112.5 914.5,-131.5 970.5,-131.5 970.5,-112.5 914.5,-112.5"/>
<text text-anchor="middle" x="942.5" y="-119.5" font-family="FreeSans.ttf" font-size="10.00" fill="#000000">sstream</text>
</g>
<!-- Node3&#45;&gt;Node17 -->
<g id="edge18" class="edge">
<title>Node3&#45;&gt;Node17</title>
<path fill="none" stroke="#191970" d="M925.1579,-168.2455C927.9584,-160.7776 931.909,-150.2427 935.3324,-141.1137"/>
<polygon fill="#191970" stroke="#191970" points="938.6499,-142.2349 938.884,-131.6427 932.0955,-139.777 938.6499,-142.2349"/>
</g>
<!-- Node18 -->
<g id="node19" class="node">
<title>Node18</title>
<polygon fill="none" stroke="#bfbfbf" points="808.5,-112.5 808.5,-131.5 858.5,-131.5 858.5,-112.5 808.5,-112.5"/>
<text text-anchor="middle" x="833.5" y="-119.5" font-family="FreeSans.ttf" font-size="10.00" fill="#000000">cstring</text>
</g>
<!-- Node3&#45;&gt;Node18 -->
<g id="edge21" class="edge">
<title>Node3&#45;&gt;Node18</title>
<path fill="none" stroke="#191970" d="M906.1716,-168.2455C892.6697,-159.6534 872.7878,-147.0014 857.2314,-137.1018"/>
<polygon fill="#191970" stroke="#191970" points="858.9685,-134.0587 848.6528,-131.6427 855.2103,-139.9643 858.9685,-134.0587"/>
</g>
<!-- Node4&#45;&gt;Node5 -->
<g id="edge5" class="edge">
<title>Node4&#45;&gt;Node5</title>
<path fill="none" stroke="#191970" d="M1071.5199,-56.2455C1058.3249,-47.6534 1038.8949,-35.0014 1023.6921,-25.1018"/>
<polygon fill="#191970" stroke="#191970" points="1025.5983,-22.1665 1015.3084,-19.6427 1021.7785,-28.0325 1025.5983,-22.1665"/>
</g>
<!-- Node6 -->
<g id="node7" class="node">
<title>Node6</title>
<polygon fill="none" stroke="#bfbfbf" points="1046.5,-.5 1046.5,-19.5 1126.5,-19.5 1126.5,-.5 1046.5,-.5"/>
<text text-anchor="middle" x="1086.5" y="-7.5" font-family="FreeSans.ttf" font-size="10.00" fill="#000000">CoreExport.h</text>
</g>
<!-- Node4&#45;&gt;Node6 -->
<g id="edge6" class="edge">
<title>Node4&#45;&gt;Node6</title>
<path fill="none" stroke="#191970" d="M1086.5,-56.2455C1086.5,-48.9382 1086.5,-38.6944 1086.5,-29.7046"/>
<polygon fill="#191970" stroke="#191970" points="1090.0001,-29.6426 1086.5,-19.6427 1083.0001,-29.6427 1090.0001,-29.6426"/>
</g>
<!-- Node7&#45;&gt;Node5 -->
<g id="edge11" class="edge">
<title>Node7&#45;&gt;Node5</title>
<path fill="none" stroke="#191970" d="M588.3682,-58.7936C687.9436,-47.0046 882.6816,-23.9489 963.7344,-14.3528"/>
<polygon fill="#191970" stroke="#191970" points="964.4262,-17.7954 973.9454,-13.1439 963.6032,-10.844 964.4262,-17.7954"/>
</g>
<!-- Node7&#45;&gt;Node8 -->
<g id="edge8" class="edge">
<title>Node7&#45;&gt;Node8</title>
<path fill="none" stroke="#191970" d="M567.7132,-56.4736C605.6419,-47.402 664.0451,-33.2102 714.5,-20 714.598,-19.9743 714.6962,-19.9486 714.7946,-19.9228"/>
<polygon fill="#191970" stroke="#191970" points="715.4248,-23.3775 724.1784,-17.4088 713.6132,-16.6159 715.4248,-23.3775"/>
</g>
<!-- Node9 -->
<g id="node10" class="node">
<title>Node9</title>
<polygon fill="none" stroke="#bfbfbf" points="554.5,-.5 554.5,-19.5 618.5,-19.5 618.5,-.5 554.5,-.5"/>
<text text-anchor="middle" x="586.5" y="-7.5" font-family="FreeSans.ttf" font-size="10.00" fill="#000000">algorithm</text>
</g>
<!-- Node7&#45;&gt;Node9 -->
<g id="edge9" class="edge">
<title>Node7&#45;&gt;Node9</title>
<path fill="none" stroke="#191970" d="M537.777,-56.2455C546.3218,-48.1352 558.6778,-36.4075 568.8085,-26.7919"/>
<polygon fill="#191970" stroke="#191970" points="571.4972,-29.0655 576.3408,-19.6427 566.6782,-23.9884 571.4972,-29.0655"/>
</g>
<!-- Node10 -->
<g id="node11" class="node">
<title>Node10</title>
<polygon fill="none" stroke="#bfbfbf" points="213.5,-.5 213.5,-19.5 255.5,-19.5 255.5,-.5 213.5,-.5"/>
<text text-anchor="middle" x="234.5" y="-7.5" font-family="FreeSans.ttf" font-size="10.00" fill="#000000">array</text>
</g>
<!-- Node7&#45;&gt;Node10 -->
<g id="edge10" class="edge">
<title>Node7&#45;&gt;Node10</title>
<path fill="none" stroke="#191970" d="M466.9011,-58.0131C415.5512,-50.654 339.879,-38.4221 265.6736,-20.0135"/>
<polygon fill="#191970" stroke="#191970" points="266.242,-16.5474 255.6898,-17.4965 264.5307,-23.335 266.242,-16.5474"/>
</g>
<!-- Node11 -->
<g id="node12" class="node">
<title>Node11</title>
<polygon fill="none" stroke="#bfbfbf" points="274,-.5 274,-19.5 327,-19.5 327,-.5 274,-.5"/>
<text text-anchor="middle" x="300.5" y="-7.5" font-family="FreeSans.ttf" font-size="10.00" fill="#000000">iterator</text>
</g>
<!-- Node7&#45;&gt;Node11 -->
<g id="edge12" class="edge">
<title>Node7&#45;&gt;Node11</title>
<path fill="none" stroke="#191970" d="M486.0404,-56.4514C449.4017,-47.9155 394.2803,-34.8372 337.1422,-20.103"/>
<polygon fill="#191970" stroke="#191970" points="337.7668,-16.6494 327.2087,-17.5298 336.0114,-23.4257 337.7668,-16.6494"/>
</g>
<!-- Node12 -->
<g id="node13" class="node">
<title>Node12</title>
<polygon fill="none" stroke="#bfbfbf" points="345.5,-.5 345.5,-19.5 389.5,-19.5 389.5,-.5 345.5,-.5"/>
<text text-anchor="middle" x="367.5" y="-7.5" font-family="FreeSans.ttf" font-size="10.00" fill="#000000">limits</text>
</g>
<!-- Node7&#45;&gt;Node12 -->
<g id="edge13" class="edge">
<title>Node7&#45;&gt;Node12</title>
<path fill="none" stroke="#191970" d="M499.995,-56.3733C472.0213,-46.5825 428.7157,-31.4255 399.2891,-21.1262"/>
<polygon fill="#191970" stroke="#191970" points="400.1021,-17.7026 389.5073,-17.7026 397.7896,-24.3096 400.1021,-17.7026"/>
</g>
<!-- Node13 -->
<g id="node14" class="node">
<title>Node13</title>
<polygon fill="none" stroke="#bfbfbf" points="408,-.5 408,-19.5 473,-19.5 473,-.5 408,-.5"/>
<text text-anchor="middle" x="440.5" y="-7.5" font-family="FreeSans.ttf" font-size="10.00" fill="#000000">stdexcept</text>
</g>
<!-- Node7&#45;&gt;Node13 -->
<g id="edge14" class="edge">
<title>Node7&#45;&gt;Node13</title>
<path fill="none" stroke="#191970" d="M512.3458,-56.2455C498.9973,-47.6534 479.3414,-35.0014 463.9617,-25.1018"/>
<polygon fill="#191970" stroke="#191970" points="465.7836,-22.1121 455.4806,-19.6427 461.9949,-27.9982 465.7836,-22.1121"/>
</g>
<!-- Node14 -->
<g id="node15" class="node">
<title>Node14</title>
<polygon fill="none" stroke="#bfbfbf" points="637,-.5 637,-19.5 706,-19.5 706,-.5 637,-.5"/>
<text text-anchor="middle" x="671.5" y="-7.5" font-family="FreeSans.ttf" font-size="10.00" fill="#000000">type_traits</text>
</g>
<!-- Node7&#45;&gt;Node14 -->
<g id="edge15" class="edge">
<title>Node7&#45;&gt;Node14</title>
<path fill="none" stroke="#191970" d="M552.2545,-56.3733C575.7849,-47.2226 611.3687,-33.3844 637.5426,-23.2057"/>
<polygon fill="#191970" stroke="#191970" points="639.0171,-26.3877 647.0685,-19.5011 636.4799,-19.8636 639.0171,-26.3877"/>
</g>
<!-- Node15 -->
<g id="node16" class="node">
<title>Node15</title>
<polygon fill="none" stroke="#bfbfbf" points="491,-.5 491,-19.5 536,-19.5 536,-.5 491,-.5"/>
<text text-anchor="middle" x="513.5" y="-7.5" font-family="FreeSans.ttf" font-size="10.00" fill="#000000">utility</text>
</g>
<!-- Node7&#45;&gt;Node15 -->
<g id="edge16" class="edge">
<title>Node7&#45;&gt;Node15</title>
<path fill="none" stroke="#191970" d="M525.0614,-56.2455C523.2145,-48.8579 520.6172,-38.4689 518.3522,-29.4087"/>
<polygon fill="#191970" stroke="#191970" points="521.7316,-28.4952 515.9107,-19.6427 514.9406,-30.193 521.7316,-28.4952"/>
</g>
<!-- Node19&#45;&gt;Node7 -->
<g id="edge23" class="edge">
<title>Node19&#45;&gt;Node7</title>
<path fill="none" stroke="#191970" d="M180.8133,-168.4509C249.3404,-148.2002 409.2017,-100.9589 485.5112,-78.4083"/>
<polygon fill="#191970" stroke="#191970" points="486.6704,-81.7155 495.2685,-75.5249 484.6865,-75.0024 486.6704,-81.7155"/>
</g>
<!-- Node19&#45;&gt;Node16 -->
<g id="edge24" class="edge">
<title>Node19&#45;&gt;Node16</title>
<path fill="none" stroke="#191970" d="M205.8787,-168.4369C276.8407,-156.6099 395.2039,-136.8827 452.0652,-127.4058"/>
<polygon fill="#191970" stroke="#191970" points="452.9751,-130.8025 462.2636,-125.7061 451.8243,-123.8978 452.9751,-130.8025"/>
</g>
<!-- Node20&#45;&gt;Node3 -->
<g id="edge29" class="edge">
<title>Node20&#45;&gt;Node3</title>
<path fill="none" stroke="#191970" d="M870.0537,-515.3022C871.5391,-488.4212 875.5,-410.6752 875.5,-346 875.5,-346 875.5,-346 875.5,-290 875.5,-254.66 895.3391,-217.4332 908.9597,-196.0395"/>
<polygon fill="#191970" stroke="#191970" points="911.9179,-197.9114 914.5136,-187.6394 906.0788,-194.0507 911.9179,-197.9114"/>
</g>
<!-- Node20&#45;&gt;Node4 -->
<g id="edge76" class="edge">
<title>Node20&#45;&gt;Node4</title>
<path fill="none" stroke="#191970" d="M950.3216,-522.0952C1041.4926,-517.537 1182.9987,-506.2126 1228.5,-479 1290.8431,-441.715 1323.5,-418.6419 1323.5,-346 1323.5,-346 1323.5,-346 1323.5,-178 1323.5,-141.1996 1304.2452,-132.2239 1273.5,-112 1253.5928,-98.9052 1197.8792,-86.1316 1152.405,-77.3812"/>
<polygon fill="#191970" stroke="#191970" points="1153.055,-73.9421 1142.5786,-75.5214 1151.7533,-80.82 1153.055,-73.9421"/>
</g>
<!-- Node20&#45;&gt;Node5 -->
<g id="edge26" class="edge">
<title>Node20&#45;&gt;Node5</title>
<path fill="none" stroke="#191970" d="M950.3551,-522.151C1041.5581,-517.6461 1183.0948,-506.3726 1228.5,-479 1316.4655,-425.9698 1361.5,-392.7138 1361.5,-290 1361.5,-290 1361.5,-290 1361.5,-122 1361.5,-113.5601 1128.2308,-46.3174 1036.7194,-20.2629"/>
<polygon fill="#191970" stroke="#191970" points="1037.6212,-16.8806 1027.0452,-17.5116 1035.7064,-23.6136 1037.6212,-16.8806"/>
</g>
<!-- Node20&#45;&gt;Node19 -->
<g id="edge28" class="edge">
<title>Node20&#45;&gt;Node19</title>
<path fill="none" stroke="#191970" d="M788.8805,-521.4363C656.3573,-515.011 403.5847,-500.1572 368.5,-479 252.695,-409.1659 291.7862,-325.5657 202.5,-224 192.7477,-212.9064 180.2805,-202.1108 169.783,-193.7689"/>
<polygon fill="#191970" stroke="#191970" points="171.9255,-191.0013 161.8759,-187.6461 167.6397,-196.536 171.9255,-191.0013"/>
</g>
<!-- Node20&#45;&gt;Node21 -->
<g id="edge27" class="edge">
<title>Node20&#45;&gt;Node21</title>
<path fill="none" stroke="#191970" d="M788.972,-521.2792C643.0289,-514.1814 340.3258,-497.7355 236.5,-479 231.7386,-478.1408 226.7946,-477.0179 221.9252,-475.7688"/>
<polygon fill="#191970" stroke="#191970" points="222.6872,-472.3485 212.117,-473.0714 220.8309,-479.0979 222.6872,-472.3485"/>
</g>
<!-- Node22 -->
<g id="node23" class="node">
<title>Node22</title>
<g id="a_node23"><a xlink:href="MatrixDynSize_8h.html" target="_top" xlink:title="iDynTree/Core/MatrixDynSize.h">
<polygon fill="none" stroke="#000000" points="401,-168.5 401,-187.5 568,-187.5 568,-168.5 401,-168.5"/>
<text text-anchor="middle" x="484.5" y="-175.5" font-family="FreeSans.ttf" font-size="10.00" fill="#000000">iDynTree/Core/MatrixDynSize.h</text>
</a>
</g>
</g>
<!-- Node20&#45;&gt;Node22 -->
<g id="edge30" class="edge">
<title>Node20&#45;&gt;Node22</title>
<path fill="none" stroke="#191970" d="M788.9766,-523.0217C639.7989,-517.1561 335.5,-493.925 335.5,-402 335.5,-402 335.5,-402 335.5,-290 335.5,-237.35 395.6806,-206.3847 439.5488,-190.8068"/>
<polygon fill="#191970" stroke="#191970" points="440.8453,-194.0629 449.1891,-187.5337 438.5947,-187.4346 440.8453,-194.0629"/>
</g>
<!-- Node24 -->
<g id="node25" class="node">
<title>Node24</title>
<g id="a_node25"><a xlink:href="MatrixFixSize_8h.html" target="_top" xlink:title="iDynTree/Core/MatrixFixSize.h">
<polygon fill="none" stroke="#000000" points="662,-168.5 662,-187.5 823,-187.5 823,-168.5 662,-168.5"/>
<text text-anchor="middle" x="742.5" y="-175.5" font-family="FreeSans.ttf" font-size="10.00" fill="#000000">iDynTree/Core/MatrixFixSize.h</text>
</a>
</g>
</g>
<!-- Node20&#45;&gt;Node24 -->
<g id="edge37" class="edge">
<title>Node20&#45;&gt;Node24</title>
<path fill="none" stroke="#191970" d="M868.7282,-515.4657C865.2319,-476.6337 848.3539,-327.5413 788.5,-224 782.0087,-212.7707 772.084,-202.359 763.1128,-194.2913"/>
<polygon fill="#191970" stroke="#191970" points="765.1433,-191.4225 755.2679,-187.5849 760.5947,-196.7433 765.1433,-191.4225"/>
</g>
<!-- Node26 -->
<g id="node27" class="node">
<title>Node26</title>
<g id="a_node27"><a xlink:href="SpatialMotionVector_8h.html" target="_top" xlink:title="iDynTree/Core/SpatialMotion\lVector.h">
<polygon fill="none" stroke="#000000" points="898,-448.5 898,-478.5 1053,-478.5 1053,-448.5 898,-448.5"/>
<text text-anchor="start" x="906" y="-466.5" font-family="FreeSans.ttf" font-size="10.00" fill="#000000">iDynTree/Core/SpatialMotion</text>
<text text-anchor="middle" x="975.5" y="-455.5" font-family="FreeSans.ttf" font-size="10.00" fill="#000000">Vector.h</text>
</a>
</g>
</g>
<!-- Node20&#45;&gt;Node26 -->
<g id="edge45" class="edge">
<title>Node20&#45;&gt;Node26</title>
<path fill="none" stroke="#191970" d="M886.0625,-515.3906C900.674,-506.9132 922.4467,-494.2809 940.8512,-483.6028"/>
<polygon fill="#191970" stroke="#191970" points="942.6763,-486.5904 949.5695,-478.5446 939.1634,-480.5357 942.6763,-486.5904"/>
</g>
<!-- Node33 -->
<g id="node34" class="node">
<title>Node33</title>
<g id="a_node34"><a xlink:href="SpatialForceVector_8h.html" target="_top" xlink:title="iDynTree/Core/SpatialForce\lVector.h">
<polygon fill="none" stroke="#000000" points="1071.5,-448.5 1071.5,-478.5 1219.5,-478.5 1219.5,-448.5 1071.5,-448.5"/>
<text text-anchor="start" x="1079.5" y="-466.5" font-family="FreeSans.ttf" font-size="10.00" fill="#000000">iDynTree/Core/SpatialForce</text>
<text text-anchor="middle" x="1145.5" y="-455.5" font-family="FreeSans.ttf" font-size="10.00" fill="#000000">Vector.h</text>
</a>
</g>
</g>
<!-- Node20&#45;&gt;Node33 -->
<g id="edge67" class="edge">
<title>Node20&#45;&gt;Node33</title>
<path fill="none" stroke="#191970" d="M912.3222,-515.4581C953.8424,-506.2063 1017.7745,-491.9606 1068.2016,-480.7241"/>
<polygon fill="#191970" stroke="#191970" points="1069.0969,-484.1105 1078.0963,-478.5193 1067.5744,-477.2781 1069.0969,-484.1105"/>
</g>
<!-- Node34 -->
<g id="node35" class="node">
<title>Node34</title>
<g id="a_node35"><a xlink:href="Transform_8h.html" target="_top" xlink:title="iDynTree/Core/Transform.h">
<polygon fill="none" stroke="#000000" points="635.5,-392.5 635.5,-411.5 781.5,-411.5 781.5,-392.5 635.5,-392.5"/>
<text text-anchor="middle" x="708.5" y="-399.5" font-family="FreeSans.ttf" font-size="10.00" fill="#000000">iDynTree/Core/Transform.h</text>
</a>
</g>
</g>
<!-- Node20&#45;&gt;Node34 -->
<g id="edge71" class="edge">
<title>Node20&#45;&gt;Node34</title>
<path fill="none" stroke="#191970" d="M856.8666,-515.3484C829.2389,-494.2415 763.218,-443.8032 729.3373,-417.9192"/>
<polygon fill="#191970" stroke="#191970" points="731.1459,-414.8964 721.0747,-411.6068 726.8963,-420.4589 731.1459,-414.8964"/>
</g>
<!-- Node22&#45;&gt;Node16 -->
<g id="edge31" class="edge">
<title>Node22&#45;&gt;Node16</title>
<path fill="none" stroke="#191970" d="M484.5,-168.2455C484.5,-160.9382 484.5,-150.6944 484.5,-141.7046"/>
<polygon fill="#191970" stroke="#191970" points="488.0001,-141.6426 484.5,-131.6427 481.0001,-141.6427 488.0001,-141.6426"/>
</g>
<!-- Node23 -->
<g id="node24" class="node">
<title>Node23</title>
<g id="a_node24"><a xlink:href="MatrixView_8h.html" target="_top" xlink:title="iDynTree/Core/MatrixView.h">
<polygon fill="none" stroke="#000000" points="563,-112.5 563,-131.5 714,-131.5 714,-112.5 563,-112.5"/>
<text text-anchor="middle" x="638.5" y="-119.5" font-family="FreeSans.ttf" font-size="10.00" fill="#000000">iDynTree/Core/MatrixView.h</text>
</a>
</g>
</g>
<!-- Node22&#45;&gt;Node23 -->
<g id="edge32" class="edge">
<title>Node22&#45;&gt;Node23</title>
<path fill="none" stroke="#191970" d="M510.9735,-168.3733C536.3597,-159.1419 574.8645,-145.1402 602.922,-134.9375"/>
<polygon fill="#191970" stroke="#191970" points="604.1701,-138.2079 612.3719,-131.5011 601.7778,-131.6293 604.1701,-138.2079"/>
</g>
<!-- Node23&#45;&gt;Node4 -->
<g id="edge36" class="edge">
<title>Node23&#45;&gt;Node4</title>
<path fill="none" stroke="#191970" d="M714.2436,-112.532C798.9123,-101.9485 934.8732,-84.9534 1016.9411,-74.6949"/>
<polygon fill="#191970" stroke="#191970" points="1017.4325,-78.1608 1026.9211,-73.4474 1016.5642,-71.2148 1017.4325,-78.1608"/>
</g>
<!-- Node23&#45;&gt;Node7 -->
<g id="edge35" class="edge">
<title>Node23&#45;&gt;Node7</title>
<path fill="none" stroke="#191970" d="M619.4184,-112.3733C601.7598,-103.4644 575.2947,-90.1127 555.2902,-80.0203"/>
<polygon fill="#191970" stroke="#191970" points="556.8372,-76.8806 546.3326,-75.5011 553.6842,-83.1303 556.8372,-76.8806"/>
</g>
<!-- Node23&#45;&gt;Node8 -->
<g id="edge33" class="edge">
<title>Node23&#45;&gt;Node8</title>
<path fill="none" stroke="#191970" d="M648.0491,-112.4509C667.0599,-93.4401 709.8577,-50.6423 733.684,-26.816"/>
<polygon fill="#191970" stroke="#191970" points="736.3789,-29.0709 740.9751,-19.5249 731.4291,-24.1211 736.3789,-29.0709"/>
</g>
<!-- Node23&#45;&gt;Node14 -->
<g id="edge34" class="edge">
<title>Node23&#45;&gt;Node14</title>
<path fill="none" stroke="#191970" d="M641.3136,-112.4509C646.7202,-94.1013 658.6563,-53.5908 665.793,-29.3693"/>
<polygon fill="#191970" stroke="#191970" points="669.2245,-30.1064 668.6936,-19.5249 662.5099,-28.128 669.2245,-30.1064"/>
</g>
<!-- Node24&#45;&gt;Node4 -->
<g id="edge38" class="edge">
<title>Node24&#45;&gt;Node4</title>
<path fill="none" stroke="#191970" d="M747.7164,-168.4942C756.3678,-153.7274 775.1695,-125.5675 799.5,-112 835.8055,-91.755 944.2476,-78.5159 1016.9416,-71.6502"/>
<polygon fill="#191970" stroke="#191970" points="1017.3158,-75.1306 1026.9505,-70.7237 1016.6704,-68.1604 1017.3158,-75.1306"/>
</g>
<!-- Node24&#45;&gt;Node8 -->
<g id="edge40" class="edge">
<title>Node24&#45;&gt;Node8</title>
<path fill="none" stroke="#191970" d="M742.953,-168.4862C744.2177,-141.9293 747.8064,-66.5651 749.5397,-30.1655"/>
<polygon fill="#191970" stroke="#191970" points="753.0523,-29.9831 750.032,-19.8279 746.0602,-29.6501 753.0523,-29.9831"/>
</g>
<!-- Node24&#45;&gt;Node16 -->
<g id="edge42" class="edge">
<title>Node24&#45;&gt;Node16</title>
<path fill="none" stroke="#191970" d="M691.5869,-168.4517C646.451,-159.749 578.8378,-146.1299 520.5,-132 519.2234,-131.6908 517.9234,-131.3679 516.6119,-131.0355"/>
<polygon fill="#191970" stroke="#191970" points="517.0865,-127.5408 506.5241,-128.368 515.297,-134.3082 517.0865,-127.5408"/>
</g>
<!-- Node24&#45;&gt;Node17 -->
<g id="edge44" class="edge">
<title>Node24&#45;&gt;Node17</title>
<path fill="none" stroke="#191970" d="M776.8812,-168.3733C812.4077,-158.4259 867.717,-142.9393 904.5152,-132.6358"/>
<polygon fill="#191970" stroke="#191970" points="905.6855,-135.9427 914.3714,-129.876 903.7981,-129.202 905.6855,-135.9427"/>
</g>
<!-- Node24&#45;&gt;Node18 -->
<g id="edge41" class="edge">
<title>Node24&#45;&gt;Node18</title>
<path fill="none" stroke="#191970" d="M758.351,-168.2455C772.3132,-159.6534 792.8728,-147.0014 808.9596,-137.1018"/>
<polygon fill="#191970" stroke="#191970" points="811.1484,-139.8645 817.8307,-131.6427 807.4797,-133.9029 811.1484,-139.8645"/>
</g>
<!-- Node24&#45;&gt;Node23 -->
<g id="edge39" class="edge">
<title>Node24&#45;&gt;Node23</title>
<path fill="none" stroke="#191970" d="M724.3846,-168.2455C708.055,-159.4527 683.829,-146.4079 665.2661,-136.4125"/>
<polygon fill="#191970" stroke="#191970" points="666.8719,-133.3021 656.4078,-131.6427 663.5532,-139.4654 666.8719,-133.3021"/>
</g>
<!-- Node24&#45;&gt;Node25 -->
<g id="edge43" class="edge">
<title>Node24&#45;&gt;Node25</title>
<path fill="none" stroke="#191970" d="M821.9847,-168.4686C922.5731,-156.4067 1091.9933,-136.0907 1169.102,-126.8443"/>
<polygon fill="#191970" stroke="#191970" points="1169.8408,-130.2809 1179.3529,-125.6151 1169.0073,-123.3307 1169.8408,-130.2809"/>
</g>
<!-- Node26&#45;&gt;Node3 -->
<g id="edge46" class="edge">
<title>Node26&#45;&gt;Node3</title>
<path fill="none" stroke="#191970" d="M961.1201,-448.1407C942.8047,-426.9086 913.5,-386.5944 913.5,-346 913.5,-346 913.5,-346 913.5,-290 913.5,-257.6293 916.866,-220.1294 919.2313,-197.7743"/>
<polygon fill="#191970" stroke="#191970" points="922.739,-197.8948 920.3538,-187.5719 915.781,-197.1291 922.739,-197.8948"/>
</g>
<!-- Node27 -->
<g id="node28" class="node">
<title>Node27</title>
<g id="a_node28"><a xlink:href="GeomVector3_8h.html" target="_top" xlink:title="iDynTree/Core/GeomVector3.h">
<polygon fill="none" stroke="#000000" points="942,-224.5 942,-243.5 1105,-243.5 1105,-224.5 942,-224.5"/>
<text text-anchor="middle" x="1023.5" y="-231.5" font-family="FreeSans.ttf" font-size="10.00" fill="#000000">iDynTree/Core/GeomVector3.h</text>
</a>
</g>
</g>
<!-- Node26&#45;&gt;Node27 -->
<g id="edge47" class="edge">
<title>Node26&#45;&gt;Node27</title>
<path fill="none" stroke="#191970" d="M971.6876,-448.4446C964.2818,-416.0595 950.7426,-338.0165 975.5,-280 980.6156,-268.0122 990.5575,-257.6498 1000.0727,-249.8114"/>
<polygon fill="#191970" stroke="#191970" points="1002.3797,-252.4532 1008.1926,-243.5954 998.1246,-246.8949 1002.3797,-252.4532"/>
</g>
<!-- Node28 -->
<g id="node29" class="node">
<title>Node28</title>
<g id="a_node29"><a xlink:href="SpatialVector_8h.html" target="_top" xlink:title="iDynTree/Core/SpatialVector.h">
<polygon fill="none" stroke="#000000" points="1018,-392.5 1018,-411.5 1179,-411.5 1179,-392.5 1018,-392.5"/>
<text text-anchor="middle" x="1098.5" y="-399.5" font-family="FreeSans.ttf" font-size="10.00" fill="#000000">iDynTree/Core/SpatialVector.h</text>
</a>
</g>
</g>
<!-- Node26&#45;&gt;Node28 -->
<g id="edge49" class="edge">
<title>Node26&#45;&gt;Node28</title>
<path fill="none" stroke="#191970" d="M1005.5892,-448.4554C1025.3019,-438.599 1050.9002,-425.7999 1070.2347,-416.1327"/>
<polygon fill="#191970" stroke="#191970" points="1072.0603,-419.133 1079.4394,-411.5303 1068.9298,-412.872 1072.0603,-419.133"/>
</g>
<!-- Node27&#45;&gt;Node3 -->
<g id="edge48" class="edge">
<title>Node27&#45;&gt;Node3</title>
<path fill="none" stroke="#191970" d="M1005.733,-224.2455C989.7905,-215.4928 966.1741,-202.527 948.0011,-192.5496"/>
<polygon fill="#191970" stroke="#191970" points="949.5137,-189.3873 939.0634,-187.6427 946.1448,-195.5233 949.5137,-189.3873"/>
</g>
<!-- Node28&#45;&gt;Node4 -->
<g id="edge63" class="edge">
<title>Node28&#45;&gt;Node4</title>
<path fill="none" stroke="#191970" d="M1129.7019,-392.4053C1150.7102,-384.8652 1178.1817,-372.8115 1198.5,-356 1249.8105,-313.5454 1285.5,-300.597 1285.5,-234 1285.5,-234 1285.5,-234 1285.5,-178 1285.5,-144.3717 1274.895,-132.8368 1248.5,-112 1232.2633,-99.1824 1184.4778,-86.4798 1144.9828,-77.6815"/>
<polygon fill="#191970" stroke="#191970" points="1145.6613,-74.2472 1135.1445,-75.531 1144.1665,-81.0857 1145.6613,-74.2472"/>
</g>
<!-- Node28&#45;&gt;Node17 -->
<g id="edge66" class="edge">
<title>Node28&#45;&gt;Node17</title>
<path fill="none" stroke="#191970" d="M1102.8941,-392.3093C1114.964,-364.1302 1145.6606,-280.631 1113.5,-224 1085.1139,-174.0154 1021.4539,-145.9299 980.3227,-132.384"/>
<polygon fill="#191970" stroke="#191970" points="981.2303,-129.0003 970.6404,-129.3257 979.1219,-135.6752 981.2303,-129.0003"/>
</g>
<!-- Node28&#45;&gt;Node25 -->
<g id="edge65" class="edge">
<title>Node28&#45;&gt;Node25</title>
<path fill="none" stroke="#191970" d="M1119.6395,-392.4901C1151.8452,-376.3882 1209.5,-340.5089 1209.5,-290 1209.5,-290 1209.5,-290 1209.5,-234 1209.5,-201.7116 1209.5,-164.1872 1209.5,-141.8048"/>
<polygon fill="#191970" stroke="#191970" points="1213.0001,-141.5883 1209.5,-131.5884 1206.0001,-141.5884 1213.0001,-141.5883"/>
</g>
<!-- Node28&#45;&gt;Node27 -->
<g id="edge64" class="edge">
<title>Node28&#45;&gt;Node27</title>
<path fill="none" stroke="#191970" d="M1094.2528,-392.4862C1082.2944,-365.6994 1048.1681,-289.2565 1032.0843,-253.2289"/>
<polygon fill="#191970" stroke="#191970" points="1035.16,-251.5325 1027.8874,-243.8279 1028.768,-254.3861 1035.16,-251.5325"/>
</g>
<!-- Node29 -->
<g id="node30" class="node">
<title>Node29</title>
<g id="a_node30"><a xlink:href="Position_8h.html" target="_top" xlink:title="Position.h">
<polygon fill="none" stroke="#000000" points="615,-336.5 615,-355.5 680,-355.5 680,-336.5 615,-336.5"/>
<text text-anchor="middle" x="647.5" y="-343.5" font-family="FreeSans.ttf" font-size="10.00" fill="#000000">Position.h</text>
</a>
</g>
</g>
<!-- Node28&#45;&gt;Node29 -->
<g id="edge50" class="edge">
<title>Node28&#45;&gt;Node29</title>
<path fill="none" stroke="#191970" d="M1021.7385,-392.4686C926.1575,-380.6005 766.2219,-360.7415 690.1722,-351.2985"/>
<polygon fill="#191970" stroke="#191970" points="690.3685,-347.7961 680.0134,-350.0371 689.5059,-354.7428 690.3685,-347.7961"/>
</g>
<!-- Node31 -->
<g id="node32" class="node">
<title>Node31</title>
<g id="a_node32"><a xlink:href="Rotation_8h.html" target="_top" xlink:title="iDynTree/Core/Rotation.h">
<polygon fill="none" stroke="#000000" points="634,-280.5 634,-299.5 771,-299.5 771,-280.5 634,-280.5"/>
<text text-anchor="middle" x="702.5" y="-287.5" font-family="FreeSans.ttf" font-size="10.00" fill="#000000">iDynTree/Core/Rotation.h</text>
</a>
</g>
</g>
<!-- Node28&#45;&gt;Node31 -->
<g id="edge62" class="edge">
<title>Node28&#45;&gt;Node31</title>
<path fill="none" stroke="#191970" d="M1064.7373,-392.4509C992.9903,-372.1589 825.4224,-324.7659 745.8852,-302.2706"/>
<polygon fill="#191970" stroke="#191970" points="746.7524,-298.8786 736.1773,-299.5249 744.8473,-305.6144 746.7524,-298.8786"/>
</g>
<!-- Node29&#45;&gt;Node16 -->
<g id="edge61" class="edge">
<title>Node29&#45;&gt;Node16</title>
<path fill="none" stroke="#191970" d="M614.9421,-338.6129C549.2327,-322.9746 404.6083,-284.6129 376.5,-244 368.8259,-232.9119 357.5011,-197.784 377.5,-168 394.1683,-143.1762 427.2822,-131.6821 452.281,-126.4011"/>
<polygon fill="#191970" stroke="#191970" points="453.2433,-129.7817 462.4263,-124.4974 451.9523,-122.9018 453.2433,-129.7817"/>
</g>
<!-- Node30 -->
<g id="node31" class="node">
<title>Node30</title>
<g id="a_node31"><a xlink:href="PositionRaw_8h.html" target="_top" xlink:title="iDynTree/Core/PositionRaw.h">
<polygon fill="none" stroke="#000000" points="577.5,-224.5 577.5,-243.5 733.5,-243.5 733.5,-224.5 577.5,-224.5"/>
<text text-anchor="middle" x="655.5" y="-231.5" font-family="FreeSans.ttf" font-size="10.00" fill="#000000">iDynTree/Core/PositionRaw.h</text>
</a>
</g>
</g>
<!-- Node29&#45;&gt;Node30 -->
<g id="edge51" class="edge">
<title>Node29&#45;&gt;Node30</title>
<path fill="none" stroke="#191970" d="M640.0336,-336.2384C631.1735,-323.426 618.3312,-300.1921 624.5,-280 627.6409,-269.7192 633.9366,-259.6582 640.0388,-251.5799"/>
<polygon fill="#191970" stroke="#191970" points="642.863,-253.6535 646.4259,-243.6757 637.4184,-249.2539 642.863,-253.6535"/>
</g>
<!-- Node29&#45;&gt;Node31 -->
<g id="edge54" class="edge">
<title>Node29&#45;&gt;Node31</title>
<path fill="none" stroke="#191970" d="M657.0803,-336.2455C665.0458,-328.1352 676.5641,-316.4075 686.0079,-306.7919"/>
<polygon fill="#191970" stroke="#191970" points="688.5195,-309.2297 693.0295,-299.6427 683.5253,-304.3247 688.5195,-309.2297"/>
</g>
<!-- Node30&#45;&gt;Node3 -->
<g id="edge52" class="edge">
<title>Node30&#45;&gt;Node3</title>
<path fill="none" stroke="#191970" d="M700.9248,-224.4369C746.7355,-214.7925 817.4998,-199.8948 866.4675,-189.5858"/>
<polygon fill="#191970" stroke="#191970" points="867.1981,-193.0088 876.2626,-187.5237 865.756,-186.1589 867.1981,-193.0088"/>
</g>
<!-- Node30&#45;&gt;Node16 -->
<g id="edge53" class="edge">
<title>Node30&#45;&gt;Node16</title>
<path fill="none" stroke="#191970" d="M648.3373,-224.295C637.5646,-210.2674 615.9414,-184.2324 592.5,-168 568.9619,-151.7007 538.734,-139.4377 516.2469,-131.6896"/>
<polygon fill="#191970" stroke="#191970" points="517.1052,-128.2865 506.5116,-128.449 514.8943,-134.9282 517.1052,-128.2865"/>
</g>
<!-- Node31&#45;&gt;Node3 -->
<g id="edge60" class="edge">
<title>Node31&#45;&gt;Node3</title>
<path fill="none" stroke="#191970" d="M721.1718,-280.4509C759.7995,-260.6961 848.6502,-215.2565 893.9123,-192.1088"/>
<polygon fill="#191970" stroke="#191970" points="895.5658,-195.1943 902.8754,-187.5249 892.3785,-188.9621 895.5658,-195.1943"/>
</g>
<!-- Node31&#45;&gt;Node16 -->
<g id="edge55" class="edge">
<title>Node31&#45;&gt;Node16</title>
<path fill="none" stroke="#191970" d="M633.752,-284.4703C547.3033,-276.8139 408.2079,-261.8853 392.5,-244 370.2085,-218.6184 373.6785,-196.6972 391.5,-168 404.79,-146.5995 431.3143,-134.8528 452.6469,-128.599"/>
<polygon fill="#191970" stroke="#191970" points="453.5553,-131.9792 462.3185,-126.0245 451.7546,-125.2147 453.5553,-131.9792"/>
</g>
<!-- Node31&#45;&gt;Node27 -->
<g id="edge56" class="edge">
<title>Node31&#45;&gt;Node27</title>
<path fill="none" stroke="#191970" d="M757.3171,-280.4369C813.1771,-270.6918 899.7821,-255.5832 958.9305,-245.2645"/>
<polygon fill="#191970" stroke="#191970" points="959.6593,-248.6903 968.909,-243.5237 958.4562,-241.7944 959.6593,-248.6903"/>
</g>
<!-- Node32 -->
<g id="node33" class="node">
<title>Node32</title>
<g id="a_node33"><a xlink:href="RotationRaw_8h.html" target="_top" xlink:title="iDynTree/Core/RotationRaw.h">
<polygon fill="none" stroke="#000000" points="401.5,-224.5 401.5,-243.5 559.5,-243.5 559.5,-224.5 401.5,-224.5"/>
<text text-anchor="middle" x="480.5" y="-231.5" font-family="FreeSans.ttf" font-size="10.00" fill="#000000">iDynTree/Core/RotationRaw.h</text>
</a>
</g>
</g>
<!-- Node31&#45;&gt;Node32 -->
<g id="edge57" class="edge">
<title>Node31&#45;&gt;Node32</title>
<path fill="none" stroke="#191970" d="M664.5891,-280.4369C626.835,-270.9133 568.7735,-256.2672 527.9736,-245.9753"/>
<polygon fill="#191970" stroke="#191970" points="528.8069,-242.576 518.2546,-243.5237 527.0947,-249.3633 528.8069,-242.576"/>
</g>
<!-- Node32&#45;&gt;Node16 -->
<g id="edge59" class="edge">
<title>Node32&#45;&gt;Node16</title>
<path fill="none" stroke="#191970" d="M523.9832,-224.3976C543.5751,-217.6689 564.8795,-206.4539 576.5,-188 581.2365,-180.4782 581.1732,-175.5613 576.5,-168 569.5688,-156.7851 540.0269,-143.2042 516.263,-133.7175"/>
<polygon fill="#191970" stroke="#191970" points="517.4322,-130.4168 506.8438,-130.0464 514.8902,-136.9389 517.4322,-130.4168"/>
</g>
<!-- Node32&#45;&gt;Node24 -->
<g id="edge58" class="edge">
<title>Node32&#45;&gt;Node24</title>
<path fill="none" stroke="#191970" d="M525.2417,-224.4369C570.2694,-214.8127 639.7728,-199.957 687.9927,-189.6504"/>
<polygon fill="#191970" stroke="#191970" points="688.8953,-193.0366 697.9428,-187.5237 687.4321,-186.1912 688.8953,-193.0366"/>
</g>
<!-- Node33&#45;&gt;Node3 -->
<g id="edge68" class="edge">
<title>Node33&#45;&gt;Node3</title>
<path fill="none" stroke="#191970" d="M1162.7847,-448.1841C1172.0463,-438.7871 1182.5463,-425.9121 1187.5,-412 1190.4817,-403.6261 1189.3308,-400.6983 1187.5,-392 1170.6952,-312.1602 1176.1376,-276.2811 1113.5,-224 1095.7872,-209.2158 1043.6085,-197.26 998.1112,-189.2462"/>
<polygon fill="#191970" stroke="#191970" points="998.6686,-185.7908 988.2202,-187.5463 997.4829,-192.6896 998.6686,-185.7908"/>
</g>
<!-- Node33&#45;&gt;Node27 -->
<g id="edge69" class="edge">
<title>Node33&#45;&gt;Node27</title>
<path fill="none" stroke="#191970" d="M1086.1845,-448.4422C1053.6267,-438.8483 1017.9745,-425.6834 1008.5,-412 974.7417,-363.2452 999.7838,-288.0132 1014.6194,-253.06"/>
<polygon fill="#191970" stroke="#191970" points="1017.9689,-254.1402 1018.8195,-243.5795 1011.5689,-251.3048 1017.9689,-254.1402"/>
</g>
<!-- Node33&#45;&gt;Node28 -->
<g id="edge70" class="edge">
<title>Node33&#45;&gt;Node28</title>
<path fill="none" stroke="#191970" d="M1133.882,-448.2977C1127.29,-439.672 1119.0052,-428.8312 1112.1099,-419.8087"/>
<polygon fill="#191970" stroke="#191970" points="1114.8783,-417.6671 1106.0253,-411.8469 1109.3165,-421.9176 1114.8783,-417.6671"/>
</g>
<!-- Node34&#45;&gt;Node16 -->
<g id="edge75" class="edge">
<title>Node34&#45;&gt;Node16</title>
<path fill="none" stroke="#191970" d="M635.3588,-395.1364C549.0392,-382.4127 411.4275,-346.2733 365.5,-244 351.6627,-213.1866 346.4007,-195.8595 365.5,-168 375.6711,-153.1638 420.8381,-138.6367 452.4998,-129.9987"/>
<polygon fill="#191970" stroke="#191970" points="453.4785,-133.3601 462.2435,-127.4081 451.6799,-126.5951 453.4785,-133.3601"/>
</g>
<!-- Node34&#45;&gt;Node24 -->
<g id="edge74" class="edge">
<title>Node34&#45;&gt;Node24</title>
<path fill="none" stroke="#191970" d="M718.2968,-392.4251C734.7578,-375.57 767.3562,-338.7024 779.5,-300 791.0313,-263.2497 769.7874,-220.0874 754.9995,-196.2129"/>
<polygon fill="#191970" stroke="#191970" points="757.7343,-193.9973 749.3575,-187.5104 751.8607,-197.8053 757.7343,-193.9973"/>
</g>
<!-- Node34&#45;&gt;Node29 -->
<g id="edge72" class="edge">
<title>Node34&#45;&gt;Node29</title>
<path fill="none" stroke="#191970" d="M697.8746,-392.2455C688.9527,-384.0549 676.012,-372.1749 665.4808,-362.5069"/>
<polygon fill="#191970" stroke="#191970" points="667.7371,-359.8271 658.0036,-355.6427 663.0032,-364.9837 667.7371,-359.8271"/>
</g>
<!-- Node34&#45;&gt;Node31 -->
<g id="edge73" class="edge">
<title>Node34&#45;&gt;Node31</title>
<path fill="none" stroke="#191970" d="M707.9884,-392.4509C707.0099,-374.184 704.8547,-333.9553 703.5552,-309.6976"/>
<polygon fill="#191970" stroke="#191970" points="707.0403,-309.3233 703.0103,-299.5249 700.0503,-309.6978 707.0403,-309.3233"/>
</g>
</g>
</svg>
