<?xml version="1.0" encoding="UTF-8" standalone="no"?>
<!DOCTYPE svg PUBLIC "-//W3C//DTD SVG 1.1//EN"
 "http://www.w3.org/Graphics/SVG/1.1/DTD/svg11.dtd">
<!-- Generated by graphviz version 2.40.1 (20161225.0304)
 -->
<!-- Title: Direction.h Pages: 1 -->
<svg width="816pt" height="196pt"
 viewBox="0.00 0.00 815.50 196.00" xmlns="http://www.w3.org/2000/svg" xmlns:xlink="http://www.w3.org/1999/xlink">
<g id="graph0" class="graph" transform="scale(1 1) rotate(0) translate(4 192)">
<title>Direction.h</title>
<!-- Node0 -->
<g id="node1" class="node">
<title>Node0</title>
<polygon fill="#bfbfbf" stroke="#000000" points="87,-168.5 87,-187.5 157,-187.5 157,-168.5 87,-168.5"/>
<text text-anchor="middle" x="122" y="-175.5" font-family="FreeSans.ttf" font-size="10.00" fill="#000000">Direction.h</text>
</g>
<!-- Node1 -->
<g id="node2" class="node">
<title>Node1</title>
<polygon fill="none" stroke="#bfbfbf" points="0,-56.5 0,-75.5 44,-75.5 44,-56.5 0,-56.5"/>
<text text-anchor="middle" x="22" y="-63.5" font-family="FreeSans.ttf" font-size="10.00" fill="#000000">string</text>
</g>
<!-- Node0&#45;&gt;Node1 -->
<g id="edge1" class="edge">
<title>Node0&#45;&gt;Node1</title>
<path fill="none" stroke="#191970" d="M113.4741,-168.4509C96.5738,-149.5227 58.6197,-107.014 37.2928,-83.1279"/>
<polygon fill="#191970" stroke="#191970" points="39.7753,-80.6532 30.5044,-75.5249 34.5538,-85.3154 39.7753,-80.6532"/>
</g>
<!-- Node2 -->
<g id="node3" class="node">
<title>Node2</title>
<g id="a_node3"><a xlink:href="VectorFixSize_8h.html" target="_top" xlink:title="iDynTree/Core/VectorFixSize.h">
<polygon fill="none" stroke="#000000" points="173.5,-112.5 173.5,-131.5 334.5,-131.5 334.5,-112.5 173.5,-112.5"/>
<text text-anchor="middle" x="254" y="-119.5" font-family="FreeSans.ttf" font-size="10.00" fill="#000000">iDynTree/Core/VectorFixSize.h</text>
</a>
</g>
</g>
<!-- Node0&#45;&gt;Node2 -->
<g id="edge2" class="edge">
<title>Node0&#45;&gt;Node2</title>
<path fill="none" stroke="#191970" d="M144.6916,-168.3733C166.0711,-159.3032 198.3057,-145.6279 222.2362,-135.4755"/>
<polygon fill="#191970" stroke="#191970" points="223.7656,-138.6287 231.6045,-131.5011 221.0317,-132.1846 223.7656,-138.6287"/>
</g>
<!-- Node3 -->
<g id="node4" class="node">
<title>Node3</title>
<g id="a_node4"><a xlink:href="Utils_8h.html" target="_top" xlink:title="iDynTree/Core/Utils.h">
<polygon fill="none" stroke="#000000" points="62.5,-56.5 62.5,-75.5 181.5,-75.5 181.5,-56.5 62.5,-56.5"/>
<text text-anchor="middle" x="122" y="-63.5" font-family="FreeSans.ttf" font-size="10.00" fill="#000000">iDynTree/Core/Utils.h</text>
</a>
</g>
</g>
<!-- Node0&#45;&gt;Node3 -->
<g id="edge21" class="edge">
<title>Node0&#45;&gt;Node3</title>
<path fill="none" stroke="#191970" d="M122,-168.4509C122,-150.184 122,-109.9553 122,-85.6976"/>
<polygon fill="#191970" stroke="#191970" points="125.5001,-85.5249 122,-75.5249 118.5001,-85.5249 125.5001,-85.5249"/>
</g>
<!-- Node2&#45;&gt;Node1 -->
<g id="edge16" class="edge">
<title>Node2&#45;&gt;Node1</title>
<path fill="none" stroke="#191970" d="M207.0053,-112.4553C168.2432,-104.3103 111.6473,-91.7951 53.9284,-76.0951"/>
<polygon fill="#191970" stroke="#191970" points="54.8513,-72.719 44.2812,-73.4436 52.9961,-79.4687 54.8513,-72.719"/>
</g>
<!-- Node2&#45;&gt;Node3 -->
<g id="edge3" class="edge">
<title>Node2&#45;&gt;Node3</title>
<path fill="none" stroke="#191970" d="M231.3084,-112.3733C209.9289,-103.3032 177.6943,-89.6279 153.7638,-79.4755"/>
<polygon fill="#191970" stroke="#191970" points="154.9683,-76.1846 144.3955,-75.5011 152.2344,-82.6287 154.9683,-76.1846"/>
</g>
<!-- Node4 -->
<g id="node5" class="node">
<title>Node4</title>
<polygon fill="none" stroke="#bfbfbf" points="174.5,-.5 174.5,-19.5 227.5,-19.5 227.5,-.5 174.5,-.5"/>
<text text-anchor="middle" x="201" y="-7.5" font-family="FreeSans.ttf" font-size="10.00" fill="#000000">cstddef</text>
</g>
<!-- Node2&#45;&gt;Node4 -->
<g id="edge19" class="edge">
<title>Node2&#45;&gt;Node4</title>
<path fill="none" stroke="#191970" d="M257.5882,-112.4816C262.0058,-99.131 267.8994,-74.4168 259,-56 252.7172,-42.9981 240.7765,-32.5481 229.3549,-24.9145"/>
<polygon fill="#191970" stroke="#191970" points="231.1684,-21.9209 220.8241,-19.6305 227.4823,-27.8718 231.1684,-21.9209"/>
</g>
<!-- Node6 -->
<g id="node7" class="node">
<title>Node6</title>
<g id="a_node7"><a xlink:href="Span_8h.html" target="_top" xlink:title="iDynTree/Core/Span.h">
<polygon fill="none" stroke="#000000" points="350.5,-56.5 350.5,-75.5 471.5,-75.5 471.5,-56.5 350.5,-56.5"/>
<text text-anchor="middle" x="411" y="-63.5" font-family="FreeSans.ttf" font-size="10.00" fill="#000000">iDynTree/Core/Span.h</text>
</a>
</g>
</g>
<!-- Node2&#45;&gt;Node6 -->
<g id="edge6" class="edge">
<title>Node2&#45;&gt;Node6</title>
<path fill="none" stroke="#191970" d="M280.9893,-112.3733C306.8699,-103.1419 346.1248,-89.1402 374.7289,-78.9375"/>
<polygon fill="#191970" stroke="#191970" points="376.12,-82.1573 384.3629,-75.5011 373.7683,-75.5642 376.12,-82.1573"/>
</g>
<!-- Node7 -->
<g id="node8" class="node">
<title>Node7</title>
<polygon fill="none" stroke="#bfbfbf" points="246,-.5 246,-19.5 298,-19.5 298,-.5 246,-.5"/>
<text text-anchor="middle" x="272" y="-7.5" font-family="FreeSans.ttf" font-size="10.00" fill="#000000">cassert</text>
</g>
<!-- Node2&#45;&gt;Node7 -->
<g id="edge18" class="edge">
<title>Node2&#45;&gt;Node7</title>
<path fill="none" stroke="#191970" d="M265.4453,-112.3916C274.5993,-103.901 286.7419,-90.6212 292,-76 297.673,-60.2252 291.1577,-41.9628 284.0895,-28.6528"/>
<polygon fill="#191970" stroke="#191970" points="287.0718,-26.8189 279.0114,-19.9427 281.0245,-30.3446 287.0718,-26.8189"/>
</g>
<!-- Node15 -->
<g id="node16" class="node">
<title>Node15</title>
<polygon fill="none" stroke="#bfbfbf" points="490,-56.5 490,-75.5 546,-75.5 546,-56.5 490,-56.5"/>
<text text-anchor="middle" x="518" y="-63.5" font-family="FreeSans.ttf" font-size="10.00" fill="#000000">sstream</text>
</g>
<!-- Node2&#45;&gt;Node15 -->
<g id="edge17" class="edge">
<title>Node2&#45;&gt;Node15</title>
<path fill="none" stroke="#191970" d="M306.0463,-112.4352C349.9369,-104.1473 414.6246,-91.4152 479.7373,-76.1942"/>
<polygon fill="#191970" stroke="#191970" points="480.8352,-79.5314 489.7656,-73.8306 479.2293,-72.7181 480.8352,-79.5314"/>
</g>
<!-- Node16 -->
<g id="node17" class="node">
<title>Node16</title>
<polygon fill="none" stroke="#bfbfbf" points="200,-56.5 200,-75.5 250,-75.5 250,-56.5 200,-56.5"/>
<text text-anchor="middle" x="225" y="-63.5" font-family="FreeSans.ttf" font-size="10.00" fill="#000000">cstring</text>
</g>
<!-- Node2&#45;&gt;Node16 -->
<g id="edge20" class="edge">
<title>Node2&#45;&gt;Node16</title>
<path fill="none" stroke="#191970" d="M248.9486,-112.2455C244.9981,-104.617 239.3903,-93.7881 234.5942,-84.5267"/>
<polygon fill="#191970" stroke="#191970" points="237.7001,-82.9131 229.9935,-75.6427 231.4841,-86.1321 237.7001,-82.9131"/>
</g>
<!-- Node3&#45;&gt;Node4 -->
<g id="edge4" class="edge">
<title>Node3&#45;&gt;Node4</title>
<path fill="none" stroke="#191970" d="M135.7607,-56.2455C147.6552,-47.814 165.065,-35.4729 178.9085,-25.6598"/>
<polygon fill="#191970" stroke="#191970" points="181.2628,-28.2811 187.3969,-19.6427 177.2146,-22.5704 181.2628,-28.2811"/>
</g>
<!-- Node5 -->
<g id="node6" class="node">
<title>Node5</title>
<polygon fill="none" stroke="#bfbfbf" points="76,-.5 76,-19.5 156,-19.5 156,-.5 76,-.5"/>
<text text-anchor="middle" x="116" y="-7.5" font-family="FreeSans.ttf" font-size="10.00" fill="#000000">CoreExport.h</text>
</g>
<!-- Node3&#45;&gt;Node5 -->
<g id="edge5" class="edge">
<title>Node3&#45;&gt;Node5</title>
<path fill="none" stroke="#191970" d="M120.9549,-56.2455C120.172,-48.9382 119.0744,-38.6944 118.1112,-29.7046"/>
<polygon fill="#191970" stroke="#191970" points="121.5786,-29.2129 117.0331,-19.6427 114.6185,-29.9587 121.5786,-29.2129"/>
</g>
<!-- Node6&#45;&gt;Node4 -->
<g id="edge10" class="edge">
<title>Node6&#45;&gt;Node4</title>
<path fill="none" stroke="#191970" d="M374.3033,-56.4408C341.1292,-47.7675 290.6931,-34.5031 237.656,-20.1548"/>
<polygon fill="#191970" stroke="#191970" points="238.2935,-16.7014 227.7261,-17.4639 236.4625,-23.4577 238.2935,-16.7014"/>
</g>
<!-- Node6&#45;&gt;Node7 -->
<g id="edge7" class="edge">
<title>Node6&#45;&gt;Node7</title>
<path fill="none" stroke="#191970" d="M387.105,-56.3733C364.4918,-47.2629 330.3458,-33.5062 305.1127,-23.3404"/>
<polygon fill="#191970" stroke="#191970" points="306.1666,-19.9917 295.5831,-19.5011 303.5507,-26.4845 306.1666,-19.9917"/>
</g>
<!-- Node8 -->
<g id="node9" class="node">
<title>Node8</title>
<polygon fill="none" stroke="#bfbfbf" points="612,-.5 612,-19.5 676,-19.5 676,-.5 612,-.5"/>
<text text-anchor="middle" x="644" y="-7.5" font-family="FreeSans.ttf" font-size="10.00" fill="#000000">algorithm</text>
</g>
<!-- Node6&#45;&gt;Node8 -->
<g id="edge8" class="edge">
<title>Node6&#45;&gt;Node8</title>
<path fill="none" stroke="#191970" d="M451.0945,-56.4443C487.8203,-47.6803 543.9647,-34.2542 601.735,-20.2995"/>
<polygon fill="#191970" stroke="#191970" points="602.8762,-23.6245 611.7741,-17.8731 601.2317,-16.8205 602.8762,-23.6245"/>
</g>
<!-- Node9 -->
<g id="node10" class="node">
<title>Node9</title>
<polygon fill="none" stroke="#bfbfbf" points="694,-.5 694,-19.5 736,-19.5 736,-.5 694,-.5"/>
<text text-anchor="middle" x="715" y="-7.5" font-family="FreeSans.ttf" font-size="10.00" fill="#000000">array</text>
</g>
<!-- Node6&#45;&gt;Node9 -->
<g id="edge9" class="edge">
<title>Node6&#45;&gt;Node9</title>
<path fill="none" stroke="#191970" d="M471.6307,-56.947C535.2686,-47.2586 632.1218,-31.9418 683.8023,-19.9443"/>
<polygon fill="#191970" stroke="#191970" points="684.9221,-23.2742 693.8148,-17.5149 683.2715,-16.4716 684.9221,-23.2742"/>
</g>
<!-- Node10 -->
<g id="node11" class="node">
<title>Node10</title>
<polygon fill="none" stroke="#bfbfbf" points="754.5,-.5 754.5,-19.5 807.5,-19.5 807.5,-.5 754.5,-.5"/>
<text text-anchor="middle" x="781" y="-7.5" font-family="FreeSans.ttf" font-size="10.00" fill="#000000">iterator</text>
</g>
<!-- Node6&#45;&gt;Node10 -->
<g id="edge11" class="edge">
<title>Node6&#45;&gt;Node10</title>
<path fill="none" stroke="#191970" d="M471.703,-57.304C474.847,-56.8612 477.9604,-56.4243 481,-56 595.0749,-40.0741 627.2725,-43.6835 744.2881,-19.904"/>
<polygon fill="#191970" stroke="#191970" points="745.2717,-23.2751 754.3617,-17.8325 743.8617,-16.4185 745.2717,-23.2751"/>
</g>
<!-- Node11 -->
<g id="node12" class="node">
<title>Node11</title>
<polygon fill="none" stroke="#bfbfbf" points="316,-.5 316,-19.5 360,-19.5 360,-.5 316,-.5"/>
<text text-anchor="middle" x="338" y="-7.5" font-family="FreeSans.ttf" font-size="10.00" fill="#000000">limits</text>
</g>
<!-- Node6&#45;&gt;Node11 -->
<g id="edge12" class="edge">
<title>Node6&#45;&gt;Node11</title>
<path fill="none" stroke="#191970" d="M398.2844,-56.2455C387.398,-47.8943 371.5117,-35.7076 358.78,-25.9408"/>
<polygon fill="#191970" stroke="#191970" points="360.6346,-22.9523 350.5699,-19.6427 356.3739,-28.5063 360.6346,-22.9523"/>
</g>
<!-- Node12 -->
<g id="node13" class="node">
<title>Node12</title>
<polygon fill="none" stroke="#bfbfbf" points="378.5,-.5 378.5,-19.5 443.5,-19.5 443.5,-.5 378.5,-.5"/>
<text text-anchor="middle" x="411" y="-7.5" font-family="FreeSans.ttf" font-size="10.00" fill="#000000">stdexcept</text>
</g>
<!-- Node6&#45;&gt;Node12 -->
<g id="edge13" class="edge">
<title>Node6&#45;&gt;Node12</title>
<path fill="none" stroke="#191970" d="M411,-56.2455C411,-48.9382 411,-38.6944 411,-29.7046"/>
<polygon fill="#191970" stroke="#191970" points="414.5001,-29.6426 411,-19.6427 407.5001,-29.6427 414.5001,-29.6426"/>
</g>
<!-- Node13 -->
<g id="node14" class="node">
<title>Node13</title>
<polygon fill="none" stroke="#bfbfbf" points="461.5,-.5 461.5,-19.5 530.5,-19.5 530.5,-.5 461.5,-.5"/>
<text text-anchor="middle" x="496" y="-7.5" font-family="FreeSans.ttf" font-size="10.00" fill="#000000">type_traits</text>
</g>
<!-- Node6&#45;&gt;Node13 -->
<g id="edge14" class="edge">
<title>Node6&#45;&gt;Node13</title>
<path fill="none" stroke="#191970" d="M425.8059,-56.2455C438.7256,-47.7337 457.6931,-35.2375 472.6552,-25.3801"/>
<polygon fill="#191970" stroke="#191970" points="474.9387,-28.067 481.3638,-19.6427 471.0876,-22.2216 474.9387,-28.067"/>
</g>
<!-- Node14 -->
<g id="node15" class="node">
<title>Node14</title>
<polygon fill="none" stroke="#bfbfbf" points="548.5,-.5 548.5,-19.5 593.5,-19.5 593.5,-.5 548.5,-.5"/>
<text text-anchor="middle" x="571" y="-7.5" font-family="FreeSans.ttf" font-size="10.00" fill="#000000">utility</text>
</g>
<!-- Node6&#45;&gt;Node14 -->
<g id="edge15" class="edge">
<title>Node6&#45;&gt;Node14</title>
<path fill="none" stroke="#191970" d="M438.505,-56.3733C466.3188,-46.6384 509.2899,-31.5985 538.7051,-21.3032"/>
<polygon fill="#191970" stroke="#191970" points="540.2148,-24.4831 548.4972,-17.876 537.9023,-17.8761 540.2148,-24.4831"/>
</g>
</g>
</svg>
