<?xml version="1.0" encoding="UTF-8" standalone="no"?>
<!DOCTYPE svg PUBLIC "-//W3C//DTD SVG 1.1//EN"
 "http://www.w3.org/Graphics/SVG/1.1/DTD/svg11.dtd">
<!-- Generated by graphviz version 2.40.1 (20161225.0304)
 -->
<!-- Title: Dynamics.h Pages: 1 -->
<svg width="1496pt" height="666pt"
 viewBox="0.00 0.00 1495.50 666.00" xmlns="http://www.w3.org/2000/svg" xmlns:xlink="http://www.w3.org/1999/xlink">
<g id="graph0" class="graph" transform="scale(1 1) rotate(0) translate(4 662)">
<title>Dynamics.h</title>
<!-- Node0 -->
<g id="node1" class="node">
<title>Node0</title>
<polygon fill="#bfbfbf" stroke="#000000" points="611,-638.5 611,-657.5 685,-657.5 685,-638.5 611,-638.5"/>
<text text-anchor="middle" x="648" y="-645.5" font-family="FreeSans.ttf" font-size="10.00" fill="#000000">Dynamics.h</text>
</g>
<!-- Node1 -->
<g id="node2" class="node">
<title>Node1</title>
<g id="a_node2"><a xlink:href="MatrixDynSize_8h.html" target="_top" xlink:title="iDynTree/Core/MatrixDynSize.h">
<polygon fill="none" stroke="#000000" points="1098.5,-168.5 1098.5,-187.5 1265.5,-187.5 1265.5,-168.5 1098.5,-168.5"/>
<text text-anchor="middle" x="1182" y="-175.5" font-family="FreeSans.ttf" font-size="10.00" fill="#000000">iDynTree/Core/MatrixDynSize.h</text>
</a>
</g>
</g>
<!-- Node0&#45;&gt;Node1 -->
<g id="edge1" class="edge">
<title>Node0&#45;&gt;Node1</title>
<path fill="none" stroke="#191970" d="M685.149,-645.6216C823.9216,-636.2497 1304,-599.2564 1304,-536 1304,-536 1304,-536 1304,-301 1304,-265.7513 1307.6092,-251.0425 1285,-224 1271.9496,-208.3906 1252.5282,-197.8747 1234.0561,-190.8888"/>
<polygon fill="#191970" stroke="#191970" points="1235.1165,-187.5518 1224.5217,-187.5492 1232.8024,-194.1583 1235.1165,-187.5518"/>
</g>
<!-- Node16 -->
<g id="node17" class="node">
<title>Node16</title>
<g id="a_node17"><a xlink:href="Indices_8h.html" target="_top" xlink:title="iDynTree/Model/Indices.h">
<polygon fill="none" stroke="#000000" points="0,-526.5 0,-545.5 138,-545.5 138,-526.5 0,-526.5"/>
<text text-anchor="middle" x="69" y="-533.5" font-family="FreeSans.ttf" font-size="10.00" fill="#000000">iDynTree/Model/Indices.h</text>
</a>
</g>
</g>
<!-- Node0&#45;&gt;Node16 -->
<g id="edge19" class="edge">
<title>Node0&#45;&gt;Node16</title>
<path fill="none" stroke="#191970" d="M610.9002,-640.8235C513.0417,-621.8941 247.287,-570.4873 128.159,-547.4435"/>
<polygon fill="#191970" stroke="#191970" points="128.607,-543.9654 118.1242,-545.5024 127.2775,-550.838 128.607,-543.9654"/>
</g>
<!-- Node18 -->
<g id="node19" class="node">
<title>Node18</title>
<g id="a_node19"><a xlink:href="LinkState_8h.html" target="_top" xlink:title="iDynTree/Model/LinkState.h">
<polygon fill="none" stroke="#000000" points="502.5,-582.5 502.5,-601.5 651.5,-601.5 651.5,-582.5 502.5,-582.5"/>
<text text-anchor="middle" x="577" y="-589.5" font-family="FreeSans.ttf" font-size="10.00" fill="#000000">iDynTree/Model/LinkState.h</text>
</a>
</g>
</g>
<!-- Node0&#45;&gt;Node18 -->
<g id="edge23" class="edge">
<title>Node0&#45;&gt;Node18</title>
<path fill="none" stroke="#191970" d="M635.6327,-638.2455C625.0446,-629.8943 609.5936,-617.7076 597.2107,-607.9408"/>
<polygon fill="#191970" stroke="#191970" points="599.2447,-605.0875 589.2255,-601.6427 594.9097,-610.5837 599.2447,-605.0875"/>
</g>
<!-- Node38 -->
<g id="node39" class="node">
<title>Node38</title>
<g id="a_node39"><a xlink:href="JointState_8h.html" target="_top" xlink:title="iDynTree/Model/JointState.h">
<polygon fill="none" stroke="#000000" points="690.5,-526.5 690.5,-545.5 841.5,-545.5 841.5,-526.5 690.5,-526.5"/>
<text text-anchor="middle" x="766" y="-533.5" font-family="FreeSans.ttf" font-size="10.00" fill="#000000">iDynTree/Model/JointState.h</text>
</a>
</g>
</g>
<!-- Node0&#45;&gt;Node38 -->
<g id="edge78" class="edge">
<title>Node0&#45;&gt;Node38</title>
<path fill="none" stroke="#191970" d="M658.0606,-638.4509C678.177,-619.3574 723.573,-576.2697 748.6094,-552.5063"/>
<polygon fill="#191970" stroke="#191970" points="751.1213,-554.9478 755.9649,-545.5249 746.3023,-549.8706 751.1213,-554.9478"/>
</g>
<!-- Node2 -->
<g id="node3" class="node">
<title>Node2</title>
<polygon fill="none" stroke="#bfbfbf" points="939,-112.5 939,-131.5 983,-131.5 983,-112.5 939,-112.5"/>
<text text-anchor="middle" x="961" y="-119.5" font-family="FreeSans.ttf" font-size="10.00" fill="#000000">string</text>
</g>
<!-- Node1&#45;&gt;Node2 -->
<g id="edge2" class="edge">
<title>Node1&#45;&gt;Node2</title>
<path fill="none" stroke="#191970" d="M1144.2599,-168.4369C1101.6179,-157.6317 1032.9527,-140.2324 992.8867,-130.0799"/>
<polygon fill="#191970" stroke="#191970" points="993.6631,-126.6661 983.1097,-127.6025 991.9436,-133.4516 993.6631,-126.6661"/>
</g>
<!-- Node3 -->
<g id="node4" class="node">
<title>Node3</title>
<g id="a_node4"><a xlink:href="MatrixView_8h.html" target="_top" xlink:title="iDynTree/Core/MatrixView.h">
<polygon fill="none" stroke="#000000" points="594.5,-112.5 594.5,-131.5 745.5,-131.5 745.5,-112.5 594.5,-112.5"/>
<text text-anchor="middle" x="670" y="-119.5" font-family="FreeSans.ttf" font-size="10.00" fill="#000000">iDynTree/Core/MatrixView.h</text>
</a>
</g>
</g>
<!-- Node1&#45;&gt;Node3 -->
<g id="edge3" class="edge">
<title>Node1&#45;&gt;Node3</title>
<path fill="none" stroke="#191970" d="M1098.3131,-168.8467C1003.9341,-158.524 851.2344,-141.8225 755.9393,-131.3996"/>
<polygon fill="#191970" stroke="#191970" points="756.0779,-127.894 745.7566,-130.2859 755.3168,-134.8525 756.0779,-127.894"/>
</g>
<!-- Node4 -->
<g id="node5" class="node">
<title>Node4</title>
<polygon fill="none" stroke="#bfbfbf" points="537,-.5 537,-19.5 589,-19.5 589,-.5 537,-.5"/>
<text text-anchor="middle" x="563" y="-7.5" font-family="FreeSans.ttf" font-size="10.00" fill="#000000">cassert</text>
</g>
<!-- Node3&#45;&gt;Node4 -->
<g id="edge4" class="edge">
<title>Node3&#45;&gt;Node4</title>
<path fill="none" stroke="#191970" d="M660.8772,-112.4509C642.7151,-93.4401 601.828,-50.6423 579.0653,-26.816"/>
<polygon fill="#191970" stroke="#191970" points="581.5383,-24.3378 572.0997,-19.5249 576.4768,-29.1733 581.5383,-24.3378"/>
</g>
<!-- Node5 -->
<g id="node6" class="node">
<title>Node5</title>
<polygon fill="none" stroke="#bfbfbf" points="607.5,-.5 607.5,-19.5 676.5,-19.5 676.5,-.5 607.5,-.5"/>
<text text-anchor="middle" x="642" y="-7.5" font-family="FreeSans.ttf" font-size="10.00" fill="#000000">type_traits</text>
</g>
<!-- Node3&#45;&gt;Node5 -->
<g id="edge5" class="edge">
<title>Node3&#45;&gt;Node5</title>
<path fill="none" stroke="#191970" d="M667.6127,-112.4509C663.0253,-94.1013 652.8977,-53.5908 646.8423,-29.3693"/>
<polygon fill="#191970" stroke="#191970" points="650.2022,-28.3774 644.3812,-19.5249 643.4112,-30.0752 650.2022,-28.3774"/>
</g>
<!-- Node6 -->
<g id="node7" class="node">
<title>Node6</title>
<g id="a_node7"><a xlink:href="Span_8h.html" target="_top" xlink:title="iDynTree/Core/Span.h">
<polygon fill="none" stroke="#000000" points="723.5,-56.5 723.5,-75.5 844.5,-75.5 844.5,-56.5 723.5,-56.5"/>
<text text-anchor="middle" x="784" y="-63.5" font-family="FreeSans.ttf" font-size="10.00" fill="#000000">iDynTree/Core/Span.h</text>
</a>
</g>
</g>
<!-- Node3&#45;&gt;Node6 -->
<g id="edge6" class="edge">
<title>Node3&#45;&gt;Node6</title>
<path fill="none" stroke="#191970" d="M689.5973,-112.3733C707.7331,-103.4644 734.9135,-90.1127 755.4587,-80.0203"/>
<polygon fill="#191970" stroke="#191970" points="757.2261,-83.0517 764.6584,-75.5011 754.1397,-76.7688 757.2261,-83.0517"/>
</g>
<!-- Node14 -->
<g id="node15" class="node">
<title>Node14</title>
<g id="a_node15"><a xlink:href="Utils_8h.html" target="_top" xlink:title="iDynTree/Core/Utils.h">
<polygon fill="none" stroke="#000000" points="246.5,-56.5 246.5,-75.5 365.5,-75.5 365.5,-56.5 246.5,-56.5"/>
<text text-anchor="middle" x="306" y="-63.5" font-family="FreeSans.ttf" font-size="10.00" fill="#000000">iDynTree/Core/Utils.h</text>
</a>
</g>
</g>
<!-- Node3&#45;&gt;Node14 -->
<g id="edge16" class="edge">
<title>Node3&#45;&gt;Node14</title>
<path fill="none" stroke="#191970" d="M607.8398,-112.4369C543.4284,-102.5274 442.9673,-87.0719 375.8514,-76.7464"/>
<polygon fill="#191970" stroke="#191970" points="376.2042,-73.2596 365.7883,-75.1982 375.1398,-80.1782 376.2042,-73.2596"/>
</g>
<!-- Node6&#45;&gt;Node4 -->
<g id="edge7" class="edge">
<title>Node6&#45;&gt;Node4</title>
<path fill="none" stroke="#191970" d="M744.2235,-56.4413C706.7052,-47.3468 648.9298,-33.1396 599,-20 598.902,-19.9742 598.8038,-19.9484 598.7055,-19.9224"/>
<polygon fill="#191970" stroke="#191970" points="599.8894,-16.6165 589.3236,-17.4012 598.0726,-23.3766 599.8894,-16.6165"/>
</g>
<!-- Node6&#45;&gt;Node5 -->
<g id="edge14" class="edge">
<title>Node6&#45;&gt;Node5</title>
<path fill="none" stroke="#191970" d="M759.5893,-56.3733C736.3858,-47.2226 701.2962,-33.3844 675.4858,-23.2057"/>
<polygon fill="#191970" stroke="#191970" points="676.6789,-19.9139 666.0921,-19.5011 674.1108,-26.4258 676.6789,-19.9139"/>
</g>
<!-- Node7 -->
<g id="node8" class="node">
<title>Node7</title>
<polygon fill="none" stroke="#bfbfbf" points="975,-.5 975,-19.5 1039,-19.5 1039,-.5 975,-.5"/>
<text text-anchor="middle" x="1007" y="-7.5" font-family="FreeSans.ttf" font-size="10.00" fill="#000000">algorithm</text>
</g>
<!-- Node6&#45;&gt;Node7 -->
<g id="edge8" class="edge">
<title>Node6&#45;&gt;Node7</title>
<path fill="none" stroke="#191970" d="M822.0817,-56.4369C861.8446,-46.4516 924.0324,-30.8349 965.1472,-20.5101"/>
<polygon fill="#191970" stroke="#191970" points="966.0167,-23.9005 974.8631,-18.0702 964.3118,-17.1113 966.0167,-23.9005"/>
</g>
<!-- Node8 -->
<g id="node9" class="node">
<title>Node8</title>
<polygon fill="none" stroke="#bfbfbf" points="1057,-.5 1057,-19.5 1099,-19.5 1099,-.5 1057,-.5"/>
<text text-anchor="middle" x="1078" y="-7.5" font-family="FreeSans.ttf" font-size="10.00" fill="#000000">array</text>
</g>
<!-- Node6&#45;&gt;Node8 -->
<g id="edge9" class="edge">
<title>Node6&#45;&gt;Node8</title>
<path fill="none" stroke="#191970" d="M844.5656,-58.0713C896.1121,-50.7296 972.211,-38.4929 1046.7785,-20.0238"/>
<polygon fill="#191970" stroke="#191970" points="1047.9677,-23.3337 1056.8107,-17.4983 1046.2588,-16.5455 1047.9677,-23.3337"/>
</g>
<!-- Node9 -->
<g id="node10" class="node">
<title>Node9</title>
<polygon fill="none" stroke="#bfbfbf" points="162.5,-.5 162.5,-19.5 215.5,-19.5 215.5,-.5 162.5,-.5"/>
<text text-anchor="middle" x="189" y="-7.5" font-family="FreeSans.ttf" font-size="10.00" fill="#000000">cstddef</text>
</g>
<!-- Node6&#45;&gt;Node9 -->
<g id="edge10" class="edge">
<title>Node6&#45;&gt;Node9</title>
<path fill="none" stroke="#191970" d="M723.4188,-61.8785C625.2809,-54.9398 425.5252,-39.7292 257,-20 246.8845,-18.8158 235.9553,-17.3096 225.8794,-15.8278"/>
<polygon fill="#191970" stroke="#191970" points="226.1672,-12.3319 215.7581,-14.307 225.127,-19.2542 226.1672,-12.3319"/>
</g>
<!-- Node10 -->
<g id="node11" class="node">
<title>Node10</title>
<polygon fill="none" stroke="#bfbfbf" points="694.5,-.5 694.5,-19.5 747.5,-19.5 747.5,-.5 694.5,-.5"/>
<text text-anchor="middle" x="721" y="-7.5" font-family="FreeSans.ttf" font-size="10.00" fill="#000000">iterator</text>
</g>
<!-- Node6&#45;&gt;Node10 -->
<g id="edge11" class="edge">
<title>Node6&#45;&gt;Node10</title>
<path fill="none" stroke="#191970" d="M773.0262,-56.2455C763.8118,-48.0549 750.4468,-36.1749 739.5703,-26.5069"/>
<polygon fill="#191970" stroke="#191970" points="741.6474,-23.6704 731.848,-19.6427 736.9968,-28.9023 741.6474,-23.6704"/>
</g>
<!-- Node11 -->
<g id="node12" class="node">
<title>Node11</title>
<polygon fill="none" stroke="#bfbfbf" points="766,-.5 766,-19.5 810,-19.5 810,-.5 766,-.5"/>
<text text-anchor="middle" x="788" y="-7.5" font-family="FreeSans.ttf" font-size="10.00" fill="#000000">limits</text>
</g>
<!-- Node6&#45;&gt;Node11 -->
<g id="edge12" class="edge">
<title>Node6&#45;&gt;Node11</title>
<path fill="none" stroke="#191970" d="M784.6967,-56.2455C785.2187,-48.9382 785.9504,-38.6944 786.5925,-29.7046"/>
<polygon fill="#191970" stroke="#191970" points="790.0898,-29.8667 787.3112,-19.6427 783.1076,-29.3679 790.0898,-29.8667"/>
</g>
<!-- Node12 -->
<g id="node13" class="node">
<title>Node12</title>
<polygon fill="none" stroke="#bfbfbf" points="828.5,-.5 828.5,-19.5 893.5,-19.5 893.5,-.5 828.5,-.5"/>
<text text-anchor="middle" x="861" y="-7.5" font-family="FreeSans.ttf" font-size="10.00" fill="#000000">stdexcept</text>
</g>
<!-- Node6&#45;&gt;Node12 -->
<g id="edge13" class="edge">
<title>Node6&#45;&gt;Node12</title>
<path fill="none" stroke="#191970" d="M797.4124,-56.2455C809.0057,-47.814 825.9748,-35.4729 839.4678,-25.6598"/>
<polygon fill="#191970" stroke="#191970" points="841.7126,-28.355 847.7413,-19.6427 837.5953,-22.6938 841.7126,-28.355"/>
</g>
<!-- Node13 -->
<g id="node14" class="node">
<title>Node13</title>
<polygon fill="none" stroke="#bfbfbf" points="911.5,-.5 911.5,-19.5 956.5,-19.5 956.5,-.5 911.5,-.5"/>
<text text-anchor="middle" x="934" y="-7.5" font-family="FreeSans.ttf" font-size="10.00" fill="#000000">utility</text>
</g>
<!-- Node6&#45;&gt;Node13 -->
<g id="edge15" class="edge">
<title>Node6&#45;&gt;Node13</title>
<path fill="none" stroke="#191970" d="M809.7859,-56.3733C835.2999,-46.848 874.4184,-32.2438 901.9247,-21.9748"/>
<polygon fill="#191970" stroke="#191970" points="903.3422,-25.1816 911.4864,-18.4051 900.8939,-18.6237 903.3422,-25.1816"/>
</g>
<!-- Node14&#45;&gt;Node9 -->
<g id="edge17" class="edge">
<title>Node14&#45;&gt;Node9</title>
<path fill="none" stroke="#191970" d="M285.887,-56.3733C267.1897,-47.4241 239.1256,-33.9917 218.0066,-23.8835"/>
<polygon fill="#191970" stroke="#191970" points="219.3817,-20.6614 208.8506,-19.5011 216.3595,-26.9755 219.3817,-20.6614"/>
</g>
<!-- Node15 -->
<g id="node16" class="node">
<title>Node15</title>
<polygon fill="none" stroke="#bfbfbf" points="266,-.5 266,-19.5 346,-19.5 346,-.5 266,-.5"/>
<text text-anchor="middle" x="306" y="-7.5" font-family="FreeSans.ttf" font-size="10.00" fill="#000000">CoreExport.h</text>
</g>
<!-- Node14&#45;&gt;Node15 -->
<g id="edge18" class="edge">
<title>Node14&#45;&gt;Node15</title>
<path fill="none" stroke="#191970" d="M306,-56.2455C306,-48.9382 306,-38.6944 306,-29.7046"/>
<polygon fill="#191970" stroke="#191970" points="309.5001,-29.6426 306,-19.6427 302.5001,-29.6427 309.5001,-29.6426"/>
</g>
<!-- Node16&#45;&gt;Node2 -->
<g id="edge21" class="edge">
<title>Node16&#45;&gt;Node2</title>
<path fill="none" stroke="#191970" d="M138.3047,-526.9613C141.2413,-526.6269 144.1492,-526.3048 147,-526 240.1447,-516.0417 490.3044,-543.7857 567,-490 701.4127,-395.738 603.1679,-245.3031 748,-168 806.7368,-136.6497 885.3789,-126.6639 928.7993,-123.4843"/>
<polygon fill="#191970" stroke="#191970" points="929.0411,-126.976 938.7904,-122.8285 928.5826,-119.9911 929.0411,-126.976"/>
</g>
<!-- Node16&#45;&gt;Node9 -->
<g id="edge20" class="edge">
<title>Node16&#45;&gt;Node9</title>
<path fill="none" stroke="#191970" d="M68.4771,-526.4343C67.3928,-505.7481 65,-455.3036 65,-413 65,-413 65,-413 65,-122 65,-73.6674 117.5232,-40.8067 154.2026,-23.7513"/>
<polygon fill="#191970" stroke="#191970" points="155.8996,-26.8269 163.6075,-19.5579 153.0489,-20.4336 155.8996,-26.8269"/>
</g>
<!-- Node17 -->
<g id="node18" class="node">
<title>Node17</title>
<polygon fill="none" stroke="#bfbfbf" points="93,-465 93,-484 179,-484 179,-465 93,-465"/>
<text text-anchor="middle" x="136" y="-472" font-family="FreeSans.ttf" font-size="10.00" fill="#000000">ModelExport.h</text>
</g>
<!-- Node16&#45;&gt;Node17 -->
<g id="edge22" class="edge">
<title>Node16&#45;&gt;Node17</title>
<path fill="none" stroke="#191970" d="M79.4688,-526.3906C89.7337,-516.9683 105.5903,-502.4134 117.9006,-491.1137"/>
<polygon fill="#191970" stroke="#191970" points="120.3834,-493.5856 125.3837,-484.2449 115.6499,-488.4287 120.3834,-493.5856"/>
</g>
<!-- Node18&#45;&gt;Node16 -->
<g id="edge76" class="edge">
<title>Node18&#45;&gt;Node16</title>
<path fill="none" stroke="#191970" d="M502.3726,-584.4953C418.749,-575.9775 278.8511,-561.4046 148.4819,-546.1559"/>
<polygon fill="#191970" stroke="#191970" points="148.653,-542.652 138.3132,-544.9628 147.8372,-549.6043 148.653,-542.652"/>
</g>
<!-- Node19 -->
<g id="node20" class="node">
<title>Node19</title>
<g id="a_node20"><a xlink:href="Transform_8h.html" target="_top" xlink:title="iDynTree/Core/Transform.h">
<polygon fill="none" stroke="#000000" points="662,-403.5 662,-422.5 808,-422.5 808,-403.5 662,-403.5"/>
<text text-anchor="middle" x="735" y="-410.5" font-family="FreeSans.ttf" font-size="10.00" fill="#000000">iDynTree/Core/Transform.h</text>
</a>
</g>
</g>
<!-- Node18&#45;&gt;Node19 -->
<g id="edge24" class="edge">
<title>Node18&#45;&gt;Node19</title>
<path fill="none" stroke="#191970" d="M583.3722,-582.3357C589.2994,-573.1666 598.212,-558.9089 605,-546 624.7215,-508.4951 614.7435,-489.6531 644,-459 657.922,-444.4134 677.4709,-433.7004 694.883,-426.3016"/>
<polygon fill="#191970" stroke="#191970" points="696.3096,-429.5005 704.2873,-422.5287 693.7031,-423.0039 696.3096,-429.5005"/>
</g>
<!-- Node30 -->
<g id="node31" class="node">
<title>Node30</title>
<g id="a_node31"><a xlink:href="Twist_8h.html" target="_top" xlink:title="iDynTree/Core/Twist.h">
<polygon fill="none" stroke="#000000" points="322,-526.5 322,-545.5 444,-545.5 444,-526.5 322,-526.5"/>
<text text-anchor="middle" x="383" y="-533.5" font-family="FreeSans.ttf" font-size="10.00" fill="#000000">iDynTree/Core/Twist.h</text>
</a>
</g>
</g>
<!-- Node18&#45;&gt;Node30 -->
<g id="edge55" class="edge">
<title>Node18&#45;&gt;Node30</title>
<path fill="none" stroke="#191970" d="M543.6502,-582.3733C510.972,-572.9404 461.0382,-558.5265 425.523,-548.2747"/>
<polygon fill="#191970" stroke="#191970" points="426.493,-544.9119 415.9146,-545.5011 424.5516,-551.6373 426.493,-544.9119"/>
</g>
<!-- Node33 -->
<g id="node34" class="node">
<title>Node33</title>
<g id="a_node34"><a xlink:href="SpatialAcc_8h.html" target="_top" xlink:title="iDynTree/Core/SpatialAcc.h">
<polygon fill="none" stroke="#000000" points="156,-526.5 156,-545.5 304,-545.5 304,-526.5 156,-526.5"/>
<text text-anchor="middle" x="230" y="-533.5" font-family="FreeSans.ttf" font-size="10.00" fill="#000000">iDynTree/Core/SpatialAcc.h</text>
</a>
</g>
</g>
<!-- Node18&#45;&gt;Node33 -->
<g id="edge66" class="edge">
<title>Node18&#45;&gt;Node33</title>
<path fill="none" stroke="#191970" d="M517.7428,-582.4369C457.1089,-572.6516 362.9644,-557.4582 299.0083,-547.1368"/>
<polygon fill="#191970" stroke="#191970" points="299.4427,-543.6617 289.0127,-545.5237 298.3274,-550.5723 299.4427,-543.6617"/>
</g>
<!-- Node34 -->
<g id="node35" class="node">
<title>Node34</title>
<g id="a_node35"><a xlink:href="Wrench_8h.html" target="_top" xlink:title="iDynTree/Core/Wrench.h">
<polygon fill="none" stroke="#000000" points="462.5,-526.5 462.5,-545.5 595.5,-545.5 595.5,-526.5 462.5,-526.5"/>
<text text-anchor="middle" x="529" y="-533.5" font-family="FreeSans.ttf" font-size="10.00" fill="#000000">iDynTree/Core/Wrench.h</text>
</a>
</g>
</g>
<!-- Node18&#45;&gt;Node34 -->
<g id="edge68" class="edge">
<title>Node18&#45;&gt;Node34</title>
<path fill="none" stroke="#191970" d="M568.639,-582.2455C561.825,-574.2958 552.0319,-562.8706 543.8848,-553.3656"/>
<polygon fill="#191970" stroke="#191970" points="546.4305,-550.9575 537.2651,-545.6427 541.1157,-555.513 546.4305,-550.9575"/>
</g>
<!-- Node36 -->
<g id="node37" class="node">
<title>Node36</title>
<g id="a_node37"><a xlink:href="ArticulatedBodyInertia_8h.html" target="_top" xlink:title="iDynTree/Core/Articulated\lBodyInertia.h">
<polygon fill="none" stroke="#000000" points="1134.5,-224.5 1134.5,-254.5 1275.5,-254.5 1275.5,-224.5 1134.5,-224.5"/>
<text text-anchor="start" x="1142.5" y="-242.5" font-family="FreeSans.ttf" font-size="10.00" fill="#000000">iDynTree/Core/Articulated</text>
<text text-anchor="middle" x="1205" y="-231.5" font-family="FreeSans.ttf" font-size="10.00" fill="#000000">BodyInertia.h</text>
</a>
</g>
</g>
<!-- Node18&#45;&gt;Node36 -->
<g id="edge73" class="edge">
<title>Node18&#45;&gt;Node36</title>
<path fill="none" stroke="#191970" d="M651.678,-586.263C822.6746,-572.1256 1228,-532.4978 1228,-474.5 1228,-474.5 1228,-474.5 1228,-357 1228,-324.5537 1219.449,-287.9904 1212.7747,-264.3938"/>
<polygon fill="#191970" stroke="#191970" points="1216.053,-263.135 1209.8777,-254.5259 1209.3364,-265.1069 1216.053,-263.135"/>
</g>
<!-- Node37 -->
<g id="node38" class="node">
<title>Node37</title>
<polygon fill="none" stroke="#bfbfbf" points="652.5,-465 652.5,-484 699.5,-484 699.5,-465 652.5,-465"/>
<text text-anchor="middle" x="676" y="-472" font-family="FreeSans.ttf" font-size="10.00" fill="#000000">vector</text>
</g>
<!-- Node18&#45;&gt;Node37 -->
<g id="edge77" class="edge">
<title>Node18&#45;&gt;Node37</title>
<path fill="none" stroke="#191970" d="M593.3367,-582.4873C606.6095,-574.1484 625.1688,-561.0315 638,-546 651.4961,-530.1895 662.0798,-508.7875 668.6125,-493.5291"/>
<polygon fill="#191970" stroke="#191970" points="671.9264,-494.672 672.4739,-484.0913 665.4477,-492.0212 671.9264,-494.672"/>
</g>
<!-- Node19&#45;&gt;Node2 -->
<g id="edge54" class="edge">
<title>Node19&#45;&gt;Node2</title>
<path fill="none" stroke="#191970" d="M808.1534,-405.8449C893.3288,-392.8429 1027.3047,-356.4385 1066,-255 1080.2152,-217.7355 1070.2846,-197.9973 1044,-168 1030.2951,-152.3593 1009.9262,-140.9591 992.797,-133.4202"/>
<polygon fill="#191970" stroke="#191970" points="993.7387,-130.0218 983.1607,-129.4247 991.0576,-136.488 993.7387,-130.0218"/>
</g>
<!-- Node20 -->
<g id="node21" class="node">
<title>Node20</title>
<g id="a_node21"><a xlink:href="Position_8h.html" target="_top" xlink:title="iDynTree/Core/Position.h">
<polygon fill="none" stroke="#000000" points="763,-347.5 763,-366.5 899,-366.5 899,-347.5 763,-347.5"/>
<text text-anchor="middle" x="831" y="-354.5" font-family="FreeSans.ttf" font-size="10.00" fill="#000000">iDynTree/Core/Position.h</text>
</a>
</g>
</g>
<!-- Node19&#45;&gt;Node20 -->
<g id="edge25" class="edge">
<title>Node19&#45;&gt;Node20</title>
<path fill="none" stroke="#191970" d="M751.7219,-403.2455C766.5889,-394.5731 788.5466,-381.7645 805.5858,-371.825"/>
<polygon fill="#191970" stroke="#191970" points="807.5955,-374.7047 814.4697,-366.6427 804.0683,-368.6582 807.5955,-374.7047"/>
</g>
<!-- Node25 -->
<g id="node26" class="node">
<title>Node25</title>
<g id="a_node26"><a xlink:href="Rotation_8h.html" target="_top" xlink:title="iDynTree/Core/Rotation.h">
<polygon fill="none" stroke="#000000" points="670.5,-291.5 670.5,-310.5 807.5,-310.5 807.5,-291.5 670.5,-291.5"/>
<text text-anchor="middle" x="739" y="-298.5" font-family="FreeSans.ttf" font-size="10.00" fill="#000000">iDynTree/Core/Rotation.h</text>
</a>
</g>
</g>
<!-- Node19&#45;&gt;Node25 -->
<g id="edge52" class="edge">
<title>Node19&#45;&gt;Node25</title>
<path fill="none" stroke="#191970" d="M735.341,-403.4509C735.9934,-385.184 737.4302,-344.9553 738.2965,-320.6976"/>
<polygon fill="#191970" stroke="#191970" points="741.8006,-320.6435 738.6598,-310.5249 734.805,-320.3936 741.8006,-320.6435"/>
</g>
<!-- Node28 -->
<g id="node29" class="node">
<title>Node28</title>
<g id="a_node29"><a xlink:href="MatrixFixSize_8h.html" target="_top" xlink:title="iDynTree/Core/MatrixFixSize.h">
<polygon fill="none" stroke="#000000" points="478.5,-168.5 478.5,-187.5 639.5,-187.5 639.5,-168.5 478.5,-168.5"/>
<text text-anchor="middle" x="559" y="-175.5" font-family="FreeSans.ttf" font-size="10.00" fill="#000000">iDynTree/Core/MatrixFixSize.h</text>
</a>
</g>
</g>
<!-- Node19&#45;&gt;Node28 -->
<g id="edge53" class="edge">
<title>Node19&#45;&gt;Node28</title>
<path fill="none" stroke="#191970" d="M727.8826,-403.4967C701.2944,-367.9953 607.5263,-242.7936 572.4099,-195.9053"/>
<polygon fill="#191970" stroke="#191970" points="575.002,-193.5276 566.206,-187.6216 569.3991,-197.7238 575.002,-193.5276"/>
</g>
<!-- Node20&#45;&gt;Node2 -->
<g id="edge51" class="edge">
<title>Node20&#45;&gt;Node2</title>
<path fill="none" stroke="#191970" d="M889.539,-347.4729C941.4178,-335.5953 1014.1802,-309.7346 1049,-255 1076.284,-212.1113 1019.1734,-162.334 984.6848,-137.6073"/>
<polygon fill="#191970" stroke="#191970" points="986.2642,-134.4422 976.0573,-131.6013 982.2648,-140.1872 986.2642,-134.4422"/>
</g>
<!-- Node21 -->
<g id="node22" class="node">
<title>Node21</title>
<g id="a_node22"><a xlink:href="PositionRaw_8h.html" target="_top" xlink:title="iDynTree/Core/PositionRaw.h">
<polygon fill="none" stroke="#000000" points="708,-230 708,-249 864,-249 864,-230 708,-230"/>
<text text-anchor="middle" x="786" y="-237" font-family="FreeSans.ttf" font-size="10.00" fill="#000000">iDynTree/Core/PositionRaw.h</text>
</a>
</g>
</g>
<!-- Node20&#45;&gt;Node21 -->
<g id="edge26" class="edge">
<title>Node20&#45;&gt;Node21</title>
<path fill="none" stroke="#191970" d="M829.9675,-347.3114C828.3417,-334.1825 824.5592,-310.1795 817,-291 812.3603,-279.2279 805.1614,-267.0542 798.8685,-257.5002"/>
<polygon fill="#191970" stroke="#191970" points="801.757,-255.5237 793.2257,-249.2414 795.9773,-259.4727 801.757,-255.5237"/>
</g>
<!-- Node20&#45;&gt;Node25 -->
<g id="edge36" class="edge">
<title>Node20&#45;&gt;Node25</title>
<path fill="none" stroke="#191970" d="M814.9748,-347.2455C800.8592,-338.6534 780.0737,-326.0014 763.8101,-316.1018"/>
<polygon fill="#191970" stroke="#191970" points="765.2034,-312.8525 754.8415,-310.6427 761.5637,-318.8319 765.2034,-312.8525"/>
</g>
<!-- Node21&#45;&gt;Node2 -->
<g id="edge35" class="edge">
<title>Node21&#45;&gt;Node2</title>
<path fill="none" stroke="#191970" d="M800.321,-229.8845C830.573,-209.5724 901.2125,-162.1431 937.9239,-137.4939"/>
<polygon fill="#191970" stroke="#191970" points="940.1299,-140.2285 946.4811,-131.7484 936.2279,-134.417 940.1299,-140.2285"/>
</g>
<!-- Node22 -->
<g id="node23" class="node">
<title>Node22</title>
<g id="a_node23"><a xlink:href="VectorFixSize_8h.html" target="_top" xlink:title="iDynTree/Core/VectorFixSize.h">
<polygon fill="none" stroke="#000000" points="299.5,-168.5 299.5,-187.5 460.5,-187.5 460.5,-168.5 299.5,-168.5"/>
<text text-anchor="middle" x="380" y="-175.5" font-family="FreeSans.ttf" font-size="10.00" fill="#000000">iDynTree/Core/VectorFixSize.h</text>
</a>
</g>
</g>
<!-- Node21&#45;&gt;Node22 -->
<g id="edge27" class="edge">
<title>Node21&#45;&gt;Node22</title>
<path fill="none" stroke="#191970" d="M723.008,-229.9581C650.0008,-218.8991 529.8876,-200.7047 452.9057,-189.0436"/>
<polygon fill="#191970" stroke="#191970" points="453.2172,-185.5509 442.8058,-187.5137 452.1687,-192.472 453.2172,-185.5509"/>
</g>
<!-- Node22&#45;&gt;Node2 -->
<g id="edge30" class="edge">
<title>Node22&#45;&gt;Node2</title>
<path fill="none" stroke="#191970" d="M460.946,-168.9394C464.0024,-168.6184 467.0285,-168.3043 470,-168 642.8581,-150.3009 850.237,-131.7534 928.7573,-124.8269"/>
<polygon fill="#191970" stroke="#191970" points="929.3102,-128.2918 938.9646,-123.9279 928.6961,-121.3188 929.3102,-128.2918"/>
</g>
<!-- Node22&#45;&gt;Node4 -->
<g id="edge32" class="edge">
<title>Node22&#45;&gt;Node4</title>
<path fill="none" stroke="#191970" d="M388.3195,-168.2381C399.734,-155.0261 421.1057,-130.9293 441,-112 474.9936,-79.6552 517.6245,-45.2993 542.4404,-25.8595"/>
<polygon fill="#191970" stroke="#191970" points="544.6945,-28.5402 550.4318,-19.6332 540.3923,-23.0183 544.6945,-28.5402"/>
</g>
<!-- Node22&#45;&gt;Node6 -->
<g id="edge29" class="edge">
<title>Node22&#45;&gt;Node6</title>
<path fill="none" stroke="#191970" d="M460.5703,-168.6129C569.8888,-155.8068 752.0558,-134.1895 755,-132 769.7083,-121.0621 777.079,-101.0386 780.6938,-85.9046"/>
<polygon fill="#191970" stroke="#191970" points="784.1553,-86.445 782.7133,-75.9488 777.2951,-85.0534 784.1553,-86.445"/>
</g>
<!-- Node22&#45;&gt;Node9 -->
<g id="edge33" class="edge">
<title>Node22&#45;&gt;Node9</title>
<path fill="none" stroke="#191970" d="M320.9678,-168.4859C279.0827,-160.5286 227.7806,-147.9256 213,-132 187.045,-104.0344 185.4896,-56.5288 187.0139,-29.7962"/>
<polygon fill="#191970" stroke="#191970" points="190.5109,-29.9691 187.7936,-19.7287 183.5318,-29.4286 190.5109,-29.9691"/>
</g>
<!-- Node22&#45;&gt;Node14 -->
<g id="edge28" class="edge">
<title>Node22&#45;&gt;Node14</title>
<path fill="none" stroke="#191970" d="M364.0094,-168.4228C351.6391,-160.2247 334.9865,-147.3333 325,-132 315.8602,-117.9667 311.0302,-99.4653 308.5321,-85.6227"/>
<polygon fill="#191970" stroke="#191970" points="311.9835,-85.0391 306.9908,-75.6944 305.0663,-86.113 311.9835,-85.0391"/>
</g>
<!-- Node23 -->
<g id="node24" class="node">
<title>Node23</title>
<polygon fill="none" stroke="#bfbfbf" points="222,-112.5 222,-131.5 278,-131.5 278,-112.5 222,-112.5"/>
<text text-anchor="middle" x="250" y="-119.5" font-family="FreeSans.ttf" font-size="10.00" fill="#000000">sstream</text>
</g>
<!-- Node22&#45;&gt;Node23 -->
<g id="edge31" class="edge">
<title>Node22&#45;&gt;Node23</title>
<path fill="none" stroke="#191970" d="M357.6522,-168.3733C336.5967,-159.3032 304.8505,-145.6279 281.2825,-135.4755"/>
<polygon fill="#191970" stroke="#191970" points="282.625,-132.243 272.0562,-131.5011 279.8556,-138.6719 282.625,-132.243"/>
</g>
<!-- Node24 -->
<g id="node25" class="node">
<title>Node24</title>
<polygon fill="none" stroke="#bfbfbf" points="450,-112.5 450,-131.5 500,-131.5 500,-112.5 450,-112.5"/>
<text text-anchor="middle" x="475" y="-119.5" font-family="FreeSans.ttf" font-size="10.00" fill="#000000">cstring</text>
</g>
<!-- Node22&#45;&gt;Node24 -->
<g id="edge34" class="edge">
<title>Node22&#45;&gt;Node24</title>
<path fill="none" stroke="#191970" d="M396.5477,-168.2455C411.2599,-159.5731 432.9888,-146.7645 449.8505,-136.825"/>
<polygon fill="#191970" stroke="#191970" points="451.8046,-139.736 458.6419,-131.6427 448.2498,-133.7057 451.8046,-139.736"/>
</g>
<!-- Node25&#45;&gt;Node2 -->
<g id="edge37" class="edge">
<title>Node25&#45;&gt;Node2</title>
<path fill="none" stroke="#191970" d="M727.3014,-291.3384C710.5657,-276.3252 683.4395,-246.756 699,-224 725.9471,-184.592 864.683,-145.8545 928.6383,-129.7713"/>
<polygon fill="#191970" stroke="#191970" points="929.7303,-133.1066 938.592,-127.2997 928.0433,-126.3129 929.7303,-133.1066"/>
</g>
<!-- Node25&#45;&gt;Node22 -->
<g id="edge50" class="edge">
<title>Node25&#45;&gt;Node22</title>
<path fill="none" stroke="#191970" d="M716.5089,-291.3928C680.1926,-276.066 606.2116,-245.61 542,-224 503.7043,-211.1118 459.5429,-198.7327 427.0102,-190.0692"/>
<polygon fill="#191970" stroke="#191970" points="427.869,-186.6761 417.3065,-187.5034 426.0795,-193.4435 427.869,-186.6761"/>
</g>
<!-- Node26 -->
<g id="node27" class="node">
<title>Node26</title>
<g id="a_node27"><a xlink:href="GeomVector3_8h.html" target="_top" xlink:title="iDynTree/Core/GeomVector3.h">
<polygon fill="none" stroke="#000000" points="298.5,-230 298.5,-249 461.5,-249 461.5,-230 298.5,-230"/>
<text text-anchor="middle" x="380" y="-237" font-family="FreeSans.ttf" font-size="10.00" fill="#000000">iDynTree/Core/GeomVector3.h</text>
</a>
</g>
</g>
<!-- Node25&#45;&gt;Node26 -->
<g id="edge38" class="edge">
<title>Node25&#45;&gt;Node26</title>
<path fill="none" stroke="#191970" d="M683.3001,-291.4581C619.1397,-280.4668 513.8351,-262.4272 445.7205,-250.7585"/>
<polygon fill="#191970" stroke="#191970" points="445.9826,-247.2525 435.5351,-249.0137 444.8006,-254.152 445.9826,-247.2525"/>
</g>
<!-- Node27 -->
<g id="node28" class="node">
<title>Node27</title>
<g id="a_node28"><a xlink:href="RotationRaw_8h.html" target="_top" xlink:title="iDynTree/Core/RotationRaw.h">
<polygon fill="none" stroke="#000000" points="882,-230 882,-249 1040,-249 1040,-230 882,-230"/>
<text text-anchor="middle" x="961" y="-237" font-family="FreeSans.ttf" font-size="10.00" fill="#000000">iDynTree/Core/RotationRaw.h</text>
</a>
</g>
</g>
<!-- Node25&#45;&gt;Node27 -->
<g id="edge40" class="edge">
<title>Node25&#45;&gt;Node27</title>
<path fill="none" stroke="#191970" d="M773.6875,-291.3906C812.2984,-280.6944 874.786,-263.3836 916.8548,-251.7294"/>
<polygon fill="#191970" stroke="#191970" points="917.8535,-255.0847 926.5561,-249.0419 915.9846,-248.3387 917.8535,-255.0847"/>
</g>
<!-- Node26&#45;&gt;Node22 -->
<g id="edge39" class="edge">
<title>Node26&#45;&gt;Node22</title>
<path fill="none" stroke="#191970" d="M380,-229.8906C380,-221.3657 380,-208.6392 380,-197.9235"/>
<polygon fill="#191970" stroke="#191970" points="383.5001,-197.7448 380,-187.7449 376.5001,-197.7449 383.5001,-197.7448"/>
</g>
<!-- Node27&#45;&gt;Node2 -->
<g id="edge49" class="edge">
<title>Node27&#45;&gt;Node2</title>
<path fill="none" stroke="#191970" d="M961,-229.8845C961,-210.6913 961,-167.286 961,-141.7663"/>
<polygon fill="#191970" stroke="#191970" points="964.5001,-141.7483 961,-131.7484 957.5001,-141.7484 964.5001,-141.7483"/>
</g>
<!-- Node27&#45;&gt;Node28 -->
<g id="edge41" class="edge">
<title>Node27&#45;&gt;Node28</title>
<path fill="none" stroke="#191970" d="M908.4594,-229.9898C896.7954,-227.95 884.4863,-225.8525 873,-224 793.1015,-211.1138 701.512,-197.8706 637.954,-188.9227"/>
<polygon fill="#191970" stroke="#191970" points="638.3898,-185.4497 628,-187.5243 637.4158,-192.3816 638.3898,-185.4497"/>
</g>
<!-- Node28&#45;&gt;Node2 -->
<g id="edge46" class="edge">
<title>Node28&#45;&gt;Node2</title>
<path fill="none" stroke="#191970" d="M627.6495,-168.4369C715.3807,-156.2156 863.6684,-135.5586 928.7476,-126.4929"/>
<polygon fill="#191970" stroke="#191970" points="929.3966,-129.9363 938.8181,-125.09 928.4308,-123.0033 929.3966,-129.9363"/>
</g>
<!-- Node28&#45;&gt;Node3 -->
<g id="edge43" class="edge">
<title>Node28&#45;&gt;Node3</title>
<path fill="none" stroke="#191970" d="M578.0816,-168.3733C595.7402,-159.4644 622.2053,-146.1127 642.2098,-136.0203"/>
<polygon fill="#191970" stroke="#191970" points="643.8158,-139.1303 651.1674,-131.5011 640.6628,-132.8806 643.8158,-139.1303"/>
</g>
<!-- Node28&#45;&gt;Node4 -->
<g id="edge44" class="edge">
<title>Node28&#45;&gt;Node4</title>
<path fill="none" stroke="#191970" d="M559.2265,-168.4862C559.8588,-141.9293 561.6532,-66.5651 562.5199,-30.1655"/>
<polygon fill="#191970" stroke="#191970" points="566.0269,-29.9084 562.766,-19.8279 559.0289,-29.7417 566.0269,-29.9084"/>
</g>
<!-- Node28&#45;&gt;Node14 -->
<g id="edge42" class="edge">
<title>Node28&#45;&gt;Node14</title>
<path fill="none" stroke="#191970" d="M554.3938,-168.1976C546.984,-153.5544 530.989,-126.1766 509,-112 487.1212,-97.8944 425.572,-85.0961 375.9344,-76.6013"/>
<polygon fill="#191970" stroke="#191970" points="376.3036,-73.1143 365.8617,-74.9078 375.143,-80.0175 376.3036,-73.1143"/>
</g>
<!-- Node28&#45;&gt;Node23 -->
<g id="edge48" class="edge">
<title>Node28&#45;&gt;Node23</title>
<path fill="none" stroke="#191970" d="M506.2321,-168.4369C444.2111,-157.1968 342.8173,-138.8213 288.0195,-128.8903"/>
<polygon fill="#191970" stroke="#191970" points="288.492,-125.419 278.0282,-127.0795 287.2437,-132.3068 288.492,-125.419"/>
</g>
<!-- Node28&#45;&gt;Node24 -->
<g id="edge45" class="edge">
<title>Node28&#45;&gt;Node24</title>
<path fill="none" stroke="#191970" d="M544.3683,-168.2455C531.6006,-159.7337 512.8562,-147.2375 498.0701,-137.3801"/>
<polygon fill="#191970" stroke="#191970" points="499.726,-134.2775 489.464,-131.6427 495.8431,-140.1019 499.726,-134.2775"/>
</g>
<!-- Node29 -->
<g id="node30" class="node">
<title>Node29</title>
<polygon fill="none" stroke="#bfbfbf" points="334,-112.5 334,-131.5 394,-131.5 394,-112.5 334,-112.5"/>
<text text-anchor="middle" x="364" y="-119.5" font-family="FreeSans.ttf" font-size="10.00" fill="#000000">iostream</text>
</g>
<!-- Node28&#45;&gt;Node29 -->
<g id="edge47" class="edge">
<title>Node28&#45;&gt;Node29</title>
<path fill="none" stroke="#191970" d="M525.4783,-168.3733C491.7358,-158.6831 439.6899,-143.7366 403.8544,-133.4454"/>
<polygon fill="#191970" stroke="#191970" points="404.7832,-130.0707 394.2056,-130.6744 402.851,-136.7987 404.7832,-130.0707"/>
</g>
<!-- Node31 -->
<g id="node32" class="node">
<title>Node31</title>
<g id="a_node32"><a xlink:href="SpatialMotionVector_8h.html" target="_top" xlink:title="iDynTree/Core/SpatialMotion\lVector.h">
<polygon fill="none" stroke="#000000" points="197.5,-459.5 197.5,-489.5 352.5,-489.5 352.5,-459.5 197.5,-459.5"/>
<text text-anchor="start" x="205.5" y="-477.5" font-family="FreeSans.ttf" font-size="10.00" fill="#000000">iDynTree/Core/SpatialMotion</text>
<text text-anchor="middle" x="275" y="-466.5" font-family="FreeSans.ttf" font-size="10.00" fill="#000000">Vector.h</text>
</a>
</g>
</g>
<!-- Node30&#45;&gt;Node31 -->
<g id="edge56" class="edge">
<title>Node30&#45;&gt;Node31</title>
<path fill="none" stroke="#191970" d="M366.125,-526.3906C351.2378,-517.9132 329.0543,-505.2809 310.3025,-494.6028"/>
<polygon fill="#191970" stroke="#191970" points="311.8416,-491.4516 301.4198,-489.5446 308.3777,-497.5345 311.8416,-491.4516"/>
</g>
<!-- Node31&#45;&gt;Node22 -->
<g id="edge57" class="edge">
<title>Node31&#45;&gt;Node22</title>
<path fill="none" stroke="#191970" d="M222.7213,-459.3552C177.0499,-442.5343 118,-410.4509 118,-357 118,-357 118,-357 118,-301 118,-254.3526 255.8088,-210.6708 331.5347,-190.1889"/>
<polygon fill="#191970" stroke="#191970" points="332.5814,-193.5322 341.341,-187.5723 330.7767,-186.7688 332.5814,-193.5322"/>
</g>
<!-- Node31&#45;&gt;Node26 -->
<g id="edge58" class="edge">
<title>Node31&#45;&gt;Node26</title>
<path fill="none" stroke="#191970" d="M238.9721,-459.2835C214.9056,-446.6234 189.4422,-426.853 200,-403 231.4537,-331.9372 310.7408,-278.5344 352.8087,-254.137"/>
<polygon fill="#191970" stroke="#191970" points="354.7081,-257.0834 361.6781,-249.1041 351.2534,-250.9953 354.7081,-257.0834"/>
</g>
<!-- Node32 -->
<g id="node33" class="node">
<title>Node32</title>
<g id="a_node33"><a xlink:href="SpatialVector_8h.html" target="_top" xlink:title="iDynTree/Core/SpatialVector.h">
<polygon fill="none" stroke="#000000" points="208.5,-403.5 208.5,-422.5 369.5,-422.5 369.5,-403.5 208.5,-403.5"/>
<text text-anchor="middle" x="289" y="-410.5" font-family="FreeSans.ttf" font-size="10.00" fill="#000000">iDynTree/Core/SpatialVector.h</text>
</a>
</g>
</g>
<!-- Node31&#45;&gt;Node32 -->
<g id="edge59" class="edge">
<title>Node31&#45;&gt;Node32</title>
<path fill="none" stroke="#191970" d="M278.4607,-459.2977C280.2826,-451.2945 282.5385,-441.3843 284.4952,-432.7889"/>
<polygon fill="#191970" stroke="#191970" points="287.9514,-433.3744 286.7584,-422.8469 281.126,-431.8206 287.9514,-433.3744"/>
</g>
<!-- Node32&#45;&gt;Node14 -->
<g id="edge62" class="edge">
<title>Node32&#45;&gt;Node14</title>
<path fill="none" stroke="#191970" d="M272.0159,-403.368C244.6905,-386.4638 194,-348.6798 194,-301 194,-301 194,-301 194,-178 194,-147.4754 193.4319,-135.4274 213,-112 225.5686,-96.9526 244.2612,-86.3852 261.5984,-79.2084"/>
<polygon fill="#191970" stroke="#191970" points="262.9741,-82.4291 271.0431,-75.5632 260.4536,-75.8986 262.9741,-82.4291"/>
</g>
<!-- Node32&#45;&gt;Node20 -->
<g id="edge60" class="edge">
<title>Node32&#45;&gt;Node20</title>
<path fill="none" stroke="#191970" d="M369.5576,-404.6767C472.7639,-394.0133 650.4839,-375.6511 752.6261,-365.0977"/>
<polygon fill="#191970" stroke="#191970" points="753.289,-368.5479 762.8763,-364.0386 752.5695,-361.585 753.289,-368.5479"/>
</g>
<!-- Node32&#45;&gt;Node23 -->
<g id="edge65" class="edge">
<title>Node32&#45;&gt;Node23</title>
<path fill="none" stroke="#191970" d="M280.0938,-403.3544C264.0625,-384.945 232,-342.8901 232,-301 232,-301 232,-301 232,-239.5 232,-204.7391 239.7924,-164.8538 245.123,-141.6357"/>
<polygon fill="#191970" stroke="#191970" points="248.5838,-142.211 247.4972,-131.6721 241.7745,-140.5884 248.5838,-142.211"/>
</g>
<!-- Node32&#45;&gt;Node25 -->
<g id="edge61" class="edge">
<title>Node32&#45;&gt;Node25</title>
<path fill="none" stroke="#191970" d="M327.3667,-403.4509C409.2294,-383.0762 600.8685,-335.3794 690.7981,-312.9969"/>
<polygon fill="#191970" stroke="#191970" points="691.8718,-316.3366 700.7304,-310.5249 690.1811,-309.5438 691.8718,-316.3366"/>
</g>
<!-- Node32&#45;&gt;Node26 -->
<g id="edge63" class="edge">
<title>Node32&#45;&gt;Node26</title>
<path fill="none" stroke="#191970" d="M294.0222,-403.4248C308.5309,-375.7625 350.7009,-295.3614 370.0659,-258.4403"/>
<polygon fill="#191970" stroke="#191970" points="373.3358,-259.7411 374.8812,-249.2595 367.1367,-256.4896 373.3358,-259.7411"/>
</g>
<!-- Node32&#45;&gt;Node29 -->
<g id="edge64" class="edge">
<title>Node32&#45;&gt;Node29</title>
<path fill="none" stroke="#191970" d="M286.1965,-403.2066C280.9113,-383.8521 270,-339.2612 270,-301 270,-301 270,-301 270,-239.5 270,-206.3799 271.0329,-194.4245 291,-168 301.2974,-154.3724 316.9039,-143.7587 331.0472,-136.1775"/>
<polygon fill="#191970" stroke="#191970" points="332.7069,-139.2605 340.0596,-131.6324 329.5548,-133.0103 332.7069,-139.2605"/>
</g>
<!-- Node33&#45;&gt;Node31 -->
<g id="edge67" class="edge">
<title>Node33&#45;&gt;Node31</title>
<path fill="none" stroke="#191970" d="M237.0313,-526.3906C242.6139,-518.761 250.6591,-507.7658 257.9082,-497.8588"/>
<polygon fill="#191970" stroke="#191970" points="260.9112,-499.6817 263.9918,-489.5446 255.262,-495.5481 260.9112,-499.6817"/>
</g>
<!-- Node35 -->
<g id="node36" class="node">
<title>Node35</title>
<g id="a_node36"><a xlink:href="SpatialForceVector_8h.html" target="_top" xlink:title="iDynTree/Core/SpatialForce\lVector.h">
<polygon fill="none" stroke="#000000" points="410,-459.5 410,-489.5 558,-489.5 558,-459.5 410,-459.5"/>
<text text-anchor="start" x="418" y="-477.5" font-family="FreeSans.ttf" font-size="10.00" fill="#000000">iDynTree/Core/SpatialForce</text>
<text text-anchor="middle" x="484" y="-466.5" font-family="FreeSans.ttf" font-size="10.00" fill="#000000">Vector.h</text>
</a>
</g>
</g>
<!-- Node34&#45;&gt;Node35 -->
<g id="edge69" class="edge">
<title>Node34&#45;&gt;Node35</title>
<path fill="none" stroke="#191970" d="M521.9688,-526.3906C516.3861,-518.761 508.3409,-507.7658 501.0918,-497.8588"/>
<polygon fill="#191970" stroke="#191970" points="503.738,-495.5481 495.0082,-489.5446 498.0888,-499.6817 503.738,-495.5481"/>
</g>
<!-- Node35&#45;&gt;Node22 -->
<g id="edge70" class="edge">
<title>Node35&#45;&gt;Node22</title>
<path fill="none" stroke="#191970" d="M485.2724,-459.3025C487.0337,-436.9204 490,-393.7666 490,-357 490,-357 490,-357 490,-301 490,-265.7513 492.9536,-251.5773 471,-224 459.1107,-209.065 441.0908,-198.5501 424.2149,-191.3816"/>
<polygon fill="#191970" stroke="#191970" points="425.0527,-187.9498 414.4658,-187.5394 422.486,-194.4623 425.0527,-187.9498"/>
</g>
<!-- Node35&#45;&gt;Node26 -->
<g id="edge71" class="edge">
<title>Node35&#45;&gt;Node26</title>
<path fill="none" stroke="#191970" d="M477.3361,-459.4422C459.1188,-418.2781 408.508,-303.9171 388.3964,-258.4726"/>
<polygon fill="#191970" stroke="#191970" points="391.5291,-256.9027 384.2815,-249.1746 385.1279,-259.7356 391.5291,-256.9027"/>
</g>
<!-- Node35&#45;&gt;Node32 -->
<g id="edge72" class="edge">
<title>Node35&#45;&gt;Node32</title>
<path fill="none" stroke="#191970" d="M436.2976,-459.4554C403.3333,-449.059 359.9877,-435.3884 328.8648,-425.5727"/>
<polygon fill="#191970" stroke="#191970" points="329.8078,-422.2003 319.2181,-422.5303 327.7023,-428.8761 329.8078,-422.2003"/>
</g>
<!-- Node36&#45;&gt;Node2 -->
<g id="edge75" class="edge">
<title>Node36&#45;&gt;Node2</title>
<path fill="none" stroke="#191970" d="M1237.3113,-224.4072C1263.2306,-210.2869 1292.6058,-188.3729 1275,-168 1256.7217,-146.8488 1070.0713,-130.3228 993.5043,-124.3822"/>
<polygon fill="#191970" stroke="#191970" points="993.6975,-120.8869 983.4599,-123.6149 993.1642,-127.8665 993.6975,-120.8869"/>
</g>
<!-- Node36&#45;&gt;Node28 -->
<g id="edge74" class="edge">
<title>Node36&#45;&gt;Node28</title>
<path fill="none" stroke="#191970" d="M1134.3396,-232.3973C1107.6065,-229.7316 1076.9033,-226.6959 1049,-224 909.7718,-210.5481 748.2333,-195.4897 649.8535,-186.3804"/>
<polygon fill="#191970" stroke="#191970" points="649.9299,-182.8725 639.6498,-185.4359 649.2847,-189.8428 649.9299,-182.8725"/>
</g>
<!-- Node38&#45;&gt;Node22 -->
<g id="edge79" class="edge">
<title>Node38&#45;&gt;Node22</title>
<path fill="none" stroke="#191970" d="M760.3115,-526.1169C751.0131,-510.5431 731.341,-479.9152 709,-459 687.4001,-438.7787 674.9994,-442.7859 653,-423 568.6201,-347.1103 584.0202,-291.7829 493,-224 472.9646,-209.0796 447.4067,-198.1437 425.6668,-190.6877"/>
<polygon fill="#191970" stroke="#191970" points="426.5733,-187.3016 415.9804,-187.5051 424.3882,-193.9518 426.5733,-187.3016"/>
</g>
<!-- Node38&#45;&gt;Node35 -->
<g id="edge83" class="edge">
<title>Node38&#45;&gt;Node35</title>
<path fill="none" stroke="#191970" d="M722.2469,-526.4581C679.7357,-517.187 614.2299,-502.9012 562.657,-491.6539"/>
<polygon fill="#191970" stroke="#191970" points="563.3852,-488.2305 552.869,-489.5193 561.8936,-495.0698 563.3852,-488.2305"/>
</g>
<!-- Node38&#45;&gt;Node37 -->
<g id="edge84" class="edge">
<title>Node38&#45;&gt;Node37</title>
<path fill="none" stroke="#191970" d="M751.9375,-526.3906C737.6714,-516.6421 715.365,-501.3994 698.6128,-489.9521"/>
<polygon fill="#191970" stroke="#191970" points="700.1949,-486.7941 689.9638,-484.0419 696.2455,-492.5736 700.1949,-486.7941"/>
</g>
<!-- Node39 -->
<g id="node40" class="node">
<title>Node39</title>
<g id="a_node40"><a xlink:href="VectorDynSize_8h.html" target="_top" xlink:title="iDynTree/Core/VectorDynSize.h">
<polygon fill="none" stroke="#000000" points="1320.5,-168.5 1320.5,-187.5 1487.5,-187.5 1487.5,-168.5 1320.5,-168.5"/>
<text text-anchor="middle" x="1404" y="-175.5" font-family="FreeSans.ttf" font-size="10.00" fill="#000000">iDynTree/Core/VectorDynSize.h</text>
</a>
</g>
</g>
<!-- Node38&#45;&gt;Node39 -->
<g id="edge80" class="edge">
<title>Node38&#45;&gt;Node39</title>
<path fill="none" stroke="#191970" d="M785.1501,-526.3186C853.8173,-491.4598 1093.7541,-368.4125 1285,-255 1319.3454,-234.6325 1357.9625,-209.148 1381.6365,-193.2169"/>
<polygon fill="#191970" stroke="#191970" points="1383.6105,-196.1073 1389.9381,-187.6095 1379.6923,-190.3066 1383.6105,-196.1073"/>
</g>
<!-- Node39&#45;&gt;Node2 -->
<g id="edge82" class="edge">
<title>Node39&#45;&gt;Node2</title>
<path fill="none" stroke="#191970" d="M1328.6002,-168.4686C1230.4,-156.0551 1063.0433,-134.8994 993.1527,-126.0644"/>
<polygon fill="#191970" stroke="#191970" points="993.5423,-122.5859 983.1823,-124.8041 992.6644,-129.5307 993.5423,-122.5859"/>
</g>
<!-- Node39&#45;&gt;Node6 -->
<g id="edge81" class="edge">
<title>Node39&#45;&gt;Node6</title>
<path fill="none" stroke="#191970" d="M1351.4066,-168.4993C1237.6484,-147.9494 969.1399,-99.4446 846.7541,-77.3362"/>
<polygon fill="#191970" stroke="#191970" points="847.2485,-73.869 836.7856,-75.5355 846.0041,-80.7575 847.2485,-73.869"/>
</g>
</g>
</svg>
