<?xml version="1.0" encoding="UTF-8" standalone="no"?>
<!DOCTYPE svg PUBLIC "-//W3C//DTD SVG 1.1//EN"
 "http://www.w3.org/Graphics/SVG/1.1/DTD/svg11.dtd">
<!-- Generated by graphviz version 2.40.1 (20161225.0304)
 -->
<!-- Title: Dynamics.cpp Pages: 1 -->
<svg width="1985pt" height="822pt"
 viewBox="0.00 0.00 1984.96 822.00" xmlns="http://www.w3.org/2000/svg" xmlns:xlink="http://www.w3.org/1999/xlink">
<g id="graph0" class="graph" transform="scale(1 1) rotate(0) translate(4 818)">
<title>Dynamics.cpp</title>
<!-- Node0 -->
<g id="node1" class="node">
<title>Node0</title>
<polygon fill="#bfbfbf" stroke="#000000" points="1026.4591,-794.5 1026.4591,-813.5 1112.4591,-813.5 1112.4591,-794.5 1026.4591,-794.5"/>
<text text-anchor="middle" x="1069.4591" y="-801.5" font-family="FreeSans.ttf" font-size="10.00" fill="#000000">Dynamics.cpp</text>
</g>
<!-- Node1 -->
<g id="node2" class="node">
<title>Node1</title>
<g id="a_node2"><a xlink:href="Model_8h.html" target="_top" xlink:title="iDynTree/Model/Model.h">
<polygon fill="none" stroke="#000000" points="262.9591,-733 262.9591,-752 395.9591,-752 395.9591,-733 262.9591,-733"/>
<text text-anchor="middle" x="329.4591" y="-740" font-family="FreeSans.ttf" font-size="10.00" fill="#000000">iDynTree/Model/Model.h</text>
</a>
</g>
</g>
<!-- Node0&#45;&gt;Node1 -->
<g id="edge1" class="edge">
<title>Node0&#45;&gt;Node1</title>
<path fill="none" stroke="#191970" d="M1026.2036,-800.4051C905.0231,-790.334 560.9924,-761.7423 406.3762,-748.8924"/>
<polygon fill="#191970" stroke="#191970" points="406.2789,-745.3724 396.0234,-748.032 405.6991,-752.3483 406.2789,-745.3724"/>
</g>
<!-- Node8 -->
<g id="node9" class="node">
<title>Node8</title>
<g id="a_node9"><a xlink:href="SpatialInertia_8h.html" target="_top" xlink:title="iDynTree/Core/SpatialInertia.h">
<polygon fill="none" stroke="#000000" points="909.4591,-604.5 909.4591,-623.5 1071.4591,-623.5 1071.4591,-604.5 909.4591,-604.5"/>
<text text-anchor="middle" x="990.4591" y="-611.5" font-family="FreeSans.ttf" font-size="10.00" fill="#000000">iDynTree/Core/SpatialInertia.h</text>
</a>
</g>
</g>
<!-- Node0&#45;&gt;Node8 -->
<g id="edge115" class="edge">
<title>Node0&#45;&gt;Node8</title>
<path fill="none" stroke="#191970" d="M1065.4329,-794.3167C1053.0216,-764.4668 1015.1855,-673.4686 998.504,-633.3485"/>
<polygon fill="#191970" stroke="#191970" points="1001.643,-631.7816 994.5719,-623.8917 995.1795,-634.4691 1001.643,-631.7816"/>
</g>
<!-- Node36 -->
<g id="node31" class="node">
<title>Node36</title>
<g id="a_node31"><a xlink:href="SpatialMomentum_8h.html" target="_top" xlink:title="iDynTree/Core/SpatialMomentum.h">
<polygon fill="none" stroke="#000000" points="1339.4591,-543 1339.4591,-562 1525.4591,-562 1525.4591,-543 1339.4591,-543"/>
<text text-anchor="middle" x="1432.4591" y="-550" font-family="FreeSans.ttf" font-size="10.00" fill="#000000">iDynTree/Core/SpatialMomentum.h</text>
</a>
</g>
</g>
<!-- Node0&#45;&gt;Node36 -->
<g id="edge116" class="edge">
<title>Node0&#45;&gt;Node36</title>
<path fill="none" stroke="#191970" d="M1095.0714,-794.4208C1152.5561,-771.9351 1293.9577,-711.0214 1385.4591,-624 1401.5297,-608.7162 1414.8411,-586.9412 1423.1458,-571.4443"/>
<polygon fill="#191970" stroke="#191970" points="1426.3891,-572.7911 1427.8588,-562.2987 1420.1668,-569.5845 1426.3891,-572.7911"/>
</g>
<!-- Node44 -->
<g id="node39" class="node">
<title>Node44</title>
<g id="a_node39"><a xlink:href="Traversal_8h.html" target="_top" xlink:title="iDynTree/Model/Traversal.h">
<polygon fill="none" stroke="#000000" points="491.4591,-604.5 491.4591,-623.5 639.4591,-623.5 639.4591,-604.5 491.4591,-604.5"/>
<text text-anchor="middle" x="565.4591" y="-611.5" font-family="FreeSans.ttf" font-size="10.00" fill="#000000">iDynTree/Model/Traversal.h</text>
</a>
</g>
</g>
<!-- Node0&#45;&gt;Node44 -->
<g id="edge82" class="edge">
<title>Node0&#45;&gt;Node44</title>
<path fill="none" stroke="#191970" d="M1026.4474,-797.3727C984.21,-790.1753 918.3138,-777.0909 863.4591,-758 757.9274,-721.2722 640.7671,-657.2492 590.5419,-628.5935"/>
<polygon fill="#191970" stroke="#191970" points="592.1014,-625.453 581.6862,-623.5104 588.6167,-631.524 592.1014,-625.453"/>
</g>
<!-- Node45 -->
<g id="node40" class="node">
<title>Node45</title>
<g id="a_node40"><a xlink:href="FreeFloatingState_8h.html" target="_top" xlink:title="iDynTree/Model/FreeFloating\lState.h">
<polygon fill="none" stroke="#000000" points="835.4591,-660.5 835.4591,-690.5 989.4591,-690.5 989.4591,-660.5 835.4591,-660.5"/>
<text text-anchor="start" x="843.4591" y="-678.5" font-family="FreeSans.ttf" font-size="10.00" fill="#000000">iDynTree/Model/FreeFloating</text>
<text text-anchor="middle" x="912.4591" y="-667.5" font-family="FreeSans.ttf" font-size="10.00" fill="#000000">State.h</text>
</a>
</g>
</g>
<!-- Node0&#45;&gt;Node45 -->
<g id="edge85" class="edge">
<title>Node0&#45;&gt;Node45</title>
<path fill="none" stroke="#191970" d="M1054.6532,-794.4673C1041.0162,-785.5053 1020.3931,-771.487 1003.4591,-758 979.4467,-738.8755 953.6652,-715.1726 935.697,-698.0874"/>
<polygon fill="#191970" stroke="#191970" points="937.6694,-695.1304 928.0255,-690.7434 932.8287,-700.1869 937.6694,-695.1304"/>
</g>
<!-- Node47 -->
<g id="node42" class="node">
<title>Node47</title>
<g id="a_node42"><a xlink:href="LinkState_8h.html" target="_top" xlink:title="iDynTree/Model/LinkState.h">
<polygon fill="none" stroke="#000000" points="732.9591,-604.5 732.9591,-623.5 881.9591,-623.5 881.9591,-604.5 732.9591,-604.5"/>
<text text-anchor="middle" x="807.4591" y="-611.5" font-family="FreeSans.ttf" font-size="10.00" fill="#000000">iDynTree/Model/LinkState.h</text>
</a>
</g>
</g>
<!-- Node0&#45;&gt;Node47 -->
<g id="edge112" class="edge">
<title>Node0&#45;&gt;Node47</title>
<path fill="none" stroke="#191970" d="M1026.255,-796.0607C971.2278,-783.6114 877.2045,-754.0762 826.4591,-691 813.4156,-674.7871 809.1508,-650.8823 807.8455,-634.0172"/>
<polygon fill="#191970" stroke="#191970" points="811.323,-633.466 807.3431,-623.6471 804.3312,-633.8048 811.323,-633.466"/>
</g>
<!-- Node48 -->
<g id="node43" class="node">
<title>Node48</title>
<g id="a_node43"><a xlink:href="ArticulatedBodyInertia_8h.html" target="_top" xlink:title="iDynTree/Core/Articulated\lBodyInertia.h">
<polygon fill="none" stroke="#000000" points="300.9591,-336.5 300.9591,-366.5 441.9591,-366.5 441.9591,-336.5 300.9591,-336.5"/>
<text text-anchor="start" x="308.9591" y="-354.5" font-family="FreeSans.ttf" font-size="10.00" fill="#000000">iDynTree/Core/Articulated</text>
<text text-anchor="middle" x="371.4591" y="-343.5" font-family="FreeSans.ttf" font-size="10.00" fill="#000000">BodyInertia.h</text>
</a>
</g>
</g>
<!-- Node0&#45;&gt;Node48 -->
<g id="edge114" class="edge">
<title>Node0&#45;&gt;Node48</title>
<path fill="none" stroke="#191970" d="M1026.225,-803.1226C879.9497,-799.9099 404.3927,-787.4058 254.4591,-758 164.5326,-740.3631 127.8635,-751.9809 59.4591,-691 6.5028,-643.7907 -19.2628,-597.7008 17.4591,-537 76.5344,-439.3493 205.8409,-390.603 290.7388,-368.2305"/>
<polygon fill="#191970" stroke="#191970" points="291.7923,-371.5736 300.6071,-365.6957 290.0507,-364.7937 291.7923,-371.5736"/>
</g>
<!-- Node49 -->
<g id="node44" class="node">
<title>Node49</title>
<g id="a_node44"><a xlink:href="JointState_8h.html" target="_top" xlink:title="iDynTree/Model/JointState.h">
<polygon fill="none" stroke="#000000" points="1224.9591,-604.5 1224.9591,-623.5 1375.9591,-623.5 1375.9591,-604.5 1224.9591,-604.5"/>
<text text-anchor="middle" x="1300.4591" y="-611.5" font-family="FreeSans.ttf" font-size="10.00" fill="#000000">iDynTree/Model/JointState.h</text>
</a>
</g>
</g>
<!-- Node0&#45;&gt;Node49 -->
<g id="edge113" class="edge">
<title>Node0&#45;&gt;Node49</title>
<path fill="none" stroke="#191970" d="M1081.232,-794.3167C1118.5363,-763.6335 1234.3928,-668.3402 1280.873,-630.1098"/>
<polygon fill="#191970" stroke="#191970" points="1283.21,-632.7194 1288.7099,-623.6638 1278.7634,-627.3132 1283.21,-632.7194"/>
</g>
<!-- Node50 -->
<g id="node45" class="node">
<title>Node50</title>
<g id="a_node45"><a xlink:href="FreeFloatingMatrices_8h.html" target="_top" xlink:title="iDynTree/Model/FreeFloating\lMatrices.h">
<polygon fill="none" stroke="#000000" points="1732.4591,-727.5 1732.4591,-757.5 1886.4591,-757.5 1886.4591,-727.5 1732.4591,-727.5"/>
<text text-anchor="start" x="1740.4591" y="-745.5" font-family="FreeSans.ttf" font-size="10.00" fill="#000000">iDynTree/Model/FreeFloating</text>
<text text-anchor="middle" x="1809.4591" y="-734.5" font-family="FreeSans.ttf" font-size="10.00" fill="#000000">Matrices.h</text>
</a>
</g>
</g>
<!-- Node0&#45;&gt;Node50 -->
<g id="edge108" class="edge">
<title>Node0&#45;&gt;Node50</title>
<path fill="none" stroke="#191970" d="M1112.5043,-802.408C1216.7795,-798.2342 1491.0799,-785.3562 1718.4591,-758 1719.5729,-757.866 1720.6938,-757.7277 1721.8206,-757.5855"/>
<polygon fill="#191970" stroke="#191970" points="1722.6424,-761.0068 1732.0886,-756.2088 1721.7121,-754.0689 1722.6424,-761.0068"/>
</g>
<!-- Node52 -->
<g id="node47" class="node">
<title>Node52</title>
<g id="a_node47"><a xlink:href="EigenHelpers_8h.html" target="_top" xlink:title="iDynTree/Core/EigenHelpers.h">
<polygon fill="none" stroke="#000000" points="1581.9591,-543 1581.9591,-562 1742.9591,-562 1742.9591,-543 1581.9591,-543"/>
<text text-anchor="middle" x="1662.4591" y="-550" font-family="FreeSans.ttf" font-size="10.00" fill="#000000">iDynTree/Core/EigenHelpers.h</text>
</a>
</g>
</g>
<!-- Node0&#45;&gt;Node52 -->
<g id="edge117" class="edge">
<title>Node0&#45;&gt;Node52</title>
<path fill="none" stroke="#191970" d="M1106.188,-794.4635C1137.2816,-786.0167 1182.8268,-772.7609 1221.4591,-758 1382.3977,-696.5076 1566.8332,-602.5492 1635.1569,-566.8958"/>
<polygon fill="#191970" stroke="#191970" points="1637.1415,-569.8076 1644.3783,-562.0694 1633.8954,-563.6057 1637.1415,-569.8076"/>
</g>
<!-- Node54 -->
<g id="node49" class="node">
<title>Node54</title>
<g id="a_node49"><a xlink:href="Dynamics_8h.html" target="_top" xlink:title="iDynTree/Model/Dynamics.h">
<polygon fill="none" stroke="#000000" points="1045.4591,-666 1045.4591,-685 1197.4591,-685 1197.4591,-666 1045.4591,-666"/>
<text text-anchor="middle" x="1121.4591" y="-673" font-family="FreeSans.ttf" font-size="10.00" fill="#000000">iDynTree/Model/Dynamics.h</text>
</a>
</g>
</g>
<!-- Node0&#45;&gt;Node54 -->
<g id="edge128" class="edge">
<title>Node0&#45;&gt;Node54</title>
<path fill="none" stroke="#191970" d="M1073.3675,-794.3416C1081.9126,-773.2254 1102.3933,-722.6144 1113.6757,-694.7341"/>
<polygon fill="#191970" stroke="#191970" points="1116.9984,-695.8532 1117.5053,-685.2705 1110.5096,-693.2273 1116.9984,-695.8532"/>
</g>
<!-- Node55 -->
<g id="node50" class="node">
<title>Node55</title>
<polygon fill="none" stroke="#bfbfbf" points="1904.9591,-733 1904.9591,-752 1973.9591,-752 1973.9591,-733 1904.9591,-733"/>
<text text-anchor="middle" x="1939.4591" y="-740" font-family="FreeSans.ttf" font-size="10.00" fill="#000000">Eigen/Core</text>
</g>
<!-- Node0&#45;&gt;Node55 -->
<g id="edge133" class="edge">
<title>Node0&#45;&gt;Node55</title>
<path fill="none" stroke="#191970" d="M1112.5144,-803.2073C1259.8838,-800.2435 1743.3493,-788.3855 1895.4591,-758 1899.0876,-757.2752 1902.8224,-756.3154 1906.51,-755.2275"/>
<polygon fill="#191970" stroke="#191970" points="1907.6286,-758.5443 1916.0555,-752.1225 1905.4633,-751.8876 1907.6286,-758.5443"/>
</g>
<!-- Node2 -->
<g id="node3" class="node">
<title>Node2</title>
<g id="a_node3"><a xlink:href="IJoint_8h.html" target="_top" xlink:title="iDynTree/Model/IJoint.h">
<polygon fill="none" stroke="#000000" points="153.4591,-666 153.4591,-685 281.4591,-685 281.4591,-666 153.4591,-666"/>
<text text-anchor="middle" x="217.4591" y="-673" font-family="FreeSans.ttf" font-size="10.00" fill="#000000">iDynTree/Model/IJoint.h</text>
</a>
</g>
</g>
<!-- Node1&#45;&gt;Node2 -->
<g id="edge2" class="edge">
<title>Node1&#45;&gt;Node2</title>
<path fill="none" stroke="#191970" d="M313.4122,-732.9005C294.7824,-721.7559 263.8433,-703.2477 242.1463,-690.2682"/>
<polygon fill="#191970" stroke="#191970" points="243.8547,-687.2118 233.4762,-685.0817 240.2611,-693.219 243.8547,-687.2118"/>
</g>
<!-- Node3 -->
<g id="node4" class="node">
<title>Node3</title>
<g id="a_node4"><a xlink:href="Indices_8h.html" target="_top" xlink:title="iDynTree/Model/Indices.h">
<polygon fill="none" stroke="#000000" points="183.4591,-543 183.4591,-562 321.4591,-562 321.4591,-543 183.4591,-543"/>
<text text-anchor="middle" x="252.4591" y="-550" font-family="FreeSans.ttf" font-size="10.00" fill="#000000">iDynTree/Model/Indices.h</text>
</a>
</g>
</g>
<!-- Node1&#45;&gt;Node3 -->
<g id="edge73" class="edge">
<title>Node1&#45;&gt;Node3</title>
<path fill="none" stroke="#191970" d="M325.5348,-732.8167C313.4377,-702.9668 276.5595,-611.9686 260.3003,-571.8485"/>
<polygon fill="#191970" stroke="#191970" points="263.4675,-570.3449 256.4678,-562.3917 256.98,-572.9741 263.4675,-570.3449"/>
</g>
<!-- Node7 -->
<g id="node8" class="node">
<title>Node7</title>
<g id="a_node8"><a xlink:href="Link_8h.html" target="_top" xlink:title="iDynTree/Model/Link.h">
<polygon fill="none" stroke="#000000" points="453.4591,-666 453.4591,-685 577.4591,-685 577.4591,-666 453.4591,-666"/>
<text text-anchor="middle" x="515.4591" y="-673" font-family="FreeSans.ttf" font-size="10.00" fill="#000000">iDynTree/Model/Link.h</text>
</a>
</g>
</g>
<!-- Node1&#45;&gt;Node7 -->
<g id="edge7" class="edge">
<title>Node1&#45;&gt;Node7</title>
<path fill="none" stroke="#191970" d="M356.1083,-732.9005C388.4283,-721.2584 443.0564,-701.5805 479.1916,-688.5641"/>
<polygon fill="#191970" stroke="#191970" points="480.6372,-691.7636 488.8593,-685.0817 478.2649,-685.1778 480.6372,-691.7636"/>
</g>
<!-- Node40 -->
<g id="node35" class="node">
<title>Node40</title>
<g id="a_node35"><a xlink:href="Transform_8h.html" target="_top" xlink:title="iDynTree/Core/Transform.h">
<polygon fill="none" stroke="#000000" points="590.4591,-476 590.4591,-495 736.4591,-495 736.4591,-476 590.4591,-476"/>
<text text-anchor="middle" x="663.4591" y="-483" font-family="FreeSans.ttf" font-size="10.00" fill="#000000">iDynTree/Core/Transform.h</text>
</a>
</g>
</g>
<!-- Node1&#45;&gt;Node40 -->
<g id="edge68" class="edge">
<title>Node1&#45;&gt;Node40</title>
<path fill="none" stroke="#191970" d="M327.9166,-732.587C323.3802,-699.4789 313.6841,-591.7343 369.4591,-537 398.7048,-508.3 504.0187,-495.4055 580.2539,-489.7413"/>
<polygon fill="#191970" stroke="#191970" points="580.6117,-493.2248 590.337,-489.0213 580.1131,-486.2425 580.6117,-493.2248"/>
</g>
<!-- Node41 -->
<g id="node36" class="node">
<title>Node41</title>
<g id="a_node36"><a xlink:href="SolidShapes_8h.html" target="_top" xlink:title="iDynTree/Model/SolidShapes.h">
<polygon fill="none" stroke="#000000" points="43.9591,-604.5 43.9591,-623.5 206.9591,-623.5 206.9591,-604.5 43.9591,-604.5"/>
<text text-anchor="middle" x="125.4591" y="-611.5" font-family="FreeSans.ttf" font-size="10.00" fill="#000000">iDynTree/Model/SolidShapes.h</text>
</a>
</g>
</g>
<!-- Node1&#45;&gt;Node41 -->
<g id="edge74" class="edge">
<title>Node1&#45;&gt;Node41</title>
<path fill="none" stroke="#191970" d="M271.8757,-732.9968C224.4269,-724.0237 162.1668,-709.2394 144.4591,-691 129.7465,-675.8456 125.8438,-651.2053 125.0788,-633.8886"/>
<polygon fill="#191970" stroke="#191970" points="128.5766,-633.6935 124.9471,-623.7398 121.5772,-633.7844 128.5766,-633.6935"/>
</g>
<!-- Node42 -->
<g id="node37" class="node">
<title>Node42</title>
<polygon fill="none" stroke="#bfbfbf" points="26.9591,-543 26.9591,-562 75.9591,-562 75.9591,-543 26.9591,-543"/>
<text text-anchor="middle" x="51.4591" y="-550" font-family="FreeSans.ttf" font-size="10.00" fill="#000000">cstdlib</text>
</g>
<!-- Node1&#45;&gt;Node42 -->
<g id="edge80" class="edge">
<title>Node1&#45;&gt;Node42</title>
<path fill="none" stroke="#191970" d="M265.7062,-732.9664C224.3462,-725.218 170.0543,-712.0473 125.4591,-691 80.0394,-669.5636 57.1186,-668.8221 34.4591,-624 25.9592,-607.1866 32.92,-585.9821 40.3343,-571.0453"/>
<polygon fill="#191970" stroke="#191970" points="43.4174,-572.7021 45.1141,-562.244 37.2659,-569.3614 43.4174,-572.7021"/>
</g>
<!-- Node43 -->
<g id="node38" class="node">
<title>Node43</title>
<polygon fill="none" stroke="#bfbfbf" points="377.9591,-543 377.9591,-562 424.9591,-562 424.9591,-543 377.9591,-543"/>
<text text-anchor="middle" x="401.4591" y="-550" font-family="FreeSans.ttf" font-size="10.00" fill="#000000">vector</text>
</g>
<!-- Node1&#45;&gt;Node43 -->
<g id="edge81" class="edge">
<title>Node1&#45;&gt;Node43</title>
<path fill="none" stroke="#191970" d="M337.2309,-732.7916C344.8693,-722.8265 356.3811,-706.6124 363.4591,-691 381.7373,-650.6827 392.9396,-599.6736 398.0894,-572.1935"/>
<polygon fill="#191970" stroke="#191970" points="401.5497,-572.7263 399.876,-562.2645 394.6603,-571.4866 401.5497,-572.7263"/>
</g>
<!-- Node2&#45;&gt;Node3 -->
<g id="edge3" class="edge">
<title>Node2&#45;&gt;Node3</title>
<path fill="none" stroke="#191970" d="M220.2055,-665.8484C225.9559,-645.6397 239.3575,-598.5427 246.9522,-571.8528"/>
<polygon fill="#191970" stroke="#191970" points="250.3549,-572.6829 249.7255,-562.1068 243.6221,-570.767 250.3549,-572.6829"/>
</g>
<!-- Node4 -->
<g id="node5" class="node">
<title>Node4</title>
<polygon fill="none" stroke="#bfbfbf" points="1275.9591,-.5 1275.9591,-19.5 1328.9591,-19.5 1328.9591,-.5 1275.9591,-.5"/>
<text text-anchor="middle" x="1302.4591" y="-7.5" font-family="FreeSans.ttf" font-size="10.00" fill="#000000">cstddef</text>
</g>
<!-- Node3&#45;&gt;Node4 -->
<g id="edge4" class="edge">
<title>Node3&#45;&gt;Node4</title>
<path fill="none" stroke="#191970" d="M270.0882,-542.8731C284.2149,-534.0568 303.0206,-519.5669 311.4591,-501 342.0022,-433.7973 264.9372,-404.4955 292.4591,-336 331.017,-240.0386 362.8716,-217.892 453.4591,-168 598.0742,-88.3518 1122.231,-28.8072 1265.8513,-13.7255"/>
<polygon fill="#191970" stroke="#191970" points="1266.3236,-17.1953 1275.9068,-12.6772 1265.5977,-10.2331 1266.3236,-17.1953"/>
</g>
<!-- Node5 -->
<g id="node6" class="node">
<title>Node5</title>
<polygon fill="none" stroke="#bfbfbf" points="738.4591,-112.5 738.4591,-131.5 782.4591,-131.5 782.4591,-112.5 738.4591,-112.5"/>
<text text-anchor="middle" x="760.4591" y="-119.5" font-family="FreeSans.ttf" font-size="10.00" fill="#000000">string</text>
</g>
<!-- Node3&#45;&gt;Node5 -->
<g id="edge5" class="edge">
<title>Node3&#45;&gt;Node5</title>
<path fill="none" stroke="#191970" d="M241.4761,-542.9818C231.1341,-533.4084 215.9928,-517.7066 207.4591,-501 190.3432,-467.4918 188.4591,-456.1265 188.4591,-418.5 188.4591,-418.5 188.4591,-418.5 188.4591,-234 188.4591,-178.5633 607.585,-135.9677 728.2925,-124.8498"/>
<polygon fill="#191970" stroke="#191970" points="728.7455,-128.3231 738.3865,-123.9297 728.11,-121.352 728.7455,-128.3231"/>
</g>
<!-- Node6 -->
<g id="node7" class="node">
<title>Node6</title>
<polygon fill="none" stroke="#bfbfbf" points="216.4591,-476 216.4591,-495 302.4591,-495 302.4591,-476 216.4591,-476"/>
<text text-anchor="middle" x="259.4591" y="-483" font-family="FreeSans.ttf" font-size="10.00" fill="#000000">ModelExport.h</text>
</g>
<!-- Node3&#45;&gt;Node6 -->
<g id="edge6" class="edge">
<title>Node3&#45;&gt;Node6</title>
<path fill="none" stroke="#191970" d="M253.462,-542.9005C254.4808,-533.149 256.0887,-517.7597 257.3832,-505.3695"/>
<polygon fill="#191970" stroke="#191970" points="260.8999,-505.3912 258.458,-495.0817 253.9378,-504.6638 260.8999,-505.3912"/>
</g>
<!-- Node7&#45;&gt;Node3 -->
<g id="edge67" class="edge">
<title>Node7&#45;&gt;Node3</title>
<path fill="none" stroke="#191970" d="M484.0395,-665.9652C454.8083,-656.6626 410.3392,-641.3992 373.4591,-624 338.0023,-607.2723 299.3892,-583.3773 275.5486,-567.901"/>
<polygon fill="#191970" stroke="#191970" points="277.16,-564.7724 266.8774,-562.2193 273.3236,-570.6275 277.16,-564.7724"/>
</g>
<!-- Node7&#45;&gt;Node8 -->
<g id="edge8" class="edge">
<title>Node7&#45;&gt;Node8</title>
<path fill="none" stroke="#191970" d="M577.557,-667.4599C661.8719,-656.5434 812.8237,-636.9991 906.9815,-624.8081"/>
<polygon fill="#191970" stroke="#191970" points="907.5741,-628.2607 917.0419,-623.5056 906.6752,-621.3187 907.5741,-628.2607"/>
</g>
<!-- Node9 -->
<g id="node10" class="node">
<title>Node9</title>
<g id="a_node10"><a xlink:href="SpatialInertiaRaw_8h.html" target="_top" xlink:title="iDynTree/Core/SpatialInertia\lRaw.h">
<polygon fill="none" stroke="#000000" points="481.9591,-537.5 481.9591,-567.5 634.9591,-567.5 634.9591,-537.5 481.9591,-537.5"/>
<text text-anchor="start" x="489.9591" y="-555.5" font-family="FreeSans.ttf" font-size="10.00" fill="#000000">iDynTree/Core/SpatialInertia</text>
<text text-anchor="middle" x="558.4591" y="-544.5" font-family="FreeSans.ttf" font-size="10.00" fill="#000000">Raw.h</text>
</a>
</g>
</g>
<!-- Node8&#45;&gt;Node9 -->
<g id="edge9" class="edge">
<title>Node8&#45;&gt;Node9</title>
<path fill="none" stroke="#191970" d="M923.4331,-604.4581C848.584,-593.8025 727.2023,-576.5225 645.1755,-564.845"/>
<polygon fill="#191970" stroke="#191970" points="645.5169,-561.3584 635.1234,-563.414 644.5302,-568.2886 645.5169,-561.3584"/>
</g>
<!-- Node27 -->
<g id="node22" class="node">
<title>Node27</title>
<g id="a_node22"><a xlink:href="VectorFixSize_8h.html" target="_top" xlink:title="iDynTree/Core/VectorFixSize.h">
<polygon fill="none" stroke="#000000" points="1230.9591,-168.5 1230.9591,-187.5 1391.9591,-187.5 1391.9591,-168.5 1230.9591,-168.5"/>
<text text-anchor="middle" x="1311.4591" y="-175.5" font-family="FreeSans.ttf" font-size="10.00" fill="#000000">iDynTree/Core/VectorFixSize.h</text>
</a>
</g>
</g>
<!-- Node8&#45;&gt;Node27 -->
<g id="edge27" class="edge">
<title>Node8&#45;&gt;Node27</title>
<path fill="none" stroke="#191970" d="M967.3479,-604.4901C952.4293,-596.9878 934.226,-584.9445 925.4591,-568 919.1278,-555.7631 921.5947,-550.2247 925.4591,-537 971.7621,-378.5413 991.3234,-320.2328 1125.4591,-224 1144.3678,-210.4344 1198.1695,-197.9562 1243.0739,-189.4292"/>
<polygon fill="#191970" stroke="#191970" points="1243.9006,-192.8355 1253.0906,-187.5636 1242.6188,-185.9539 1243.9006,-192.8355"/>
</g>
<!-- Node28 -->
<g id="node23" class="node">
<title>Node28</title>
<g id="a_node23"><a xlink:href="Twist_8h.html" target="_top" xlink:title="iDynTree/Core/Twist.h">
<polygon fill="none" stroke="#000000" points="1085.4591,-543 1085.4591,-562 1207.4591,-562 1207.4591,-543 1085.4591,-543"/>
<text text-anchor="middle" x="1146.4591" y="-550" font-family="FreeSans.ttf" font-size="10.00" fill="#000000">iDynTree/Core/Twist.h</text>
</a>
</g>
</g>
<!-- Node8&#45;&gt;Node28 -->
<g id="edge35" class="edge">
<title>Node8&#45;&gt;Node28</title>
<path fill="none" stroke="#191970" d="M1014.8341,-604.3906C1041.1647,-594.0103 1083.2971,-577.4004 1112.782,-565.7766"/>
<polygon fill="#191970" stroke="#191970" points="1114.2358,-568.9657 1122.2552,-562.0419 1111.6684,-562.4534 1114.2358,-568.9657"/>
</g>
<!-- Node8&#45;&gt;Node36 -->
<g id="edge58" class="edge">
<title>Node8&#45;&gt;Node36</title>
<path fill="none" stroke="#191970" d="M1059.0366,-604.4581C1138.8418,-593.354 1270.3492,-575.056 1354.1127,-563.4011"/>
<polygon fill="#191970" stroke="#191970" points="1354.6621,-566.8585 1364.0843,-562.0137 1353.6974,-559.9253 1354.6621,-566.8585"/>
</g>
<!-- Node38 -->
<g id="node33" class="node">
<title>Node38</title>
<g id="a_node33"><a xlink:href="SpatialAcc_8h.html" target="_top" xlink:title="iDynTree/Core/SpatialAcc.h">
<polygon fill="none" stroke="#000000" points="729.4591,-543 729.4591,-562 877.4591,-562 877.4591,-543 729.4591,-543"/>
<text text-anchor="middle" x="803.4591" y="-550" font-family="FreeSans.ttf" font-size="10.00" fill="#000000">iDynTree/Core/SpatialAcc.h</text>
</a>
</g>
</g>
<!-- Node8&#45;&gt;Node38 -->
<g id="edge63" class="edge">
<title>Node8&#45;&gt;Node38</title>
<path fill="none" stroke="#191970" d="M961.2403,-604.3906C929.1284,-593.8298 877.4101,-576.8208 841.9983,-565.1747"/>
<polygon fill="#191970" stroke="#191970" points="843.0656,-561.8413 832.4727,-562.0419 840.8786,-568.4909 843.0656,-561.8413"/>
</g>
<!-- Node39 -->
<g id="node34" class="node">
<title>Node39</title>
<g id="a_node34"><a xlink:href="Wrench_8h.html" target="_top" xlink:title="iDynTree/Core/Wrench.h">
<polygon fill="none" stroke="#000000" points="933.9591,-543 933.9591,-562 1066.9591,-562 1066.9591,-543 933.9591,-543"/>
<text text-anchor="middle" x="1000.4591" y="-550" font-family="FreeSans.ttf" font-size="10.00" fill="#000000">iDynTree/Core/Wrench.h</text>
</a>
</g>
</g>
<!-- Node8&#45;&gt;Node39 -->
<g id="edge65" class="edge">
<title>Node8&#45;&gt;Node39</title>
<path fill="none" stroke="#191970" d="M992.0216,-604.3906C993.4077,-595.8657 995.4771,-583.1392 997.2195,-572.4235"/>
<polygon fill="#191970" stroke="#191970" points="1000.7242,-572.677 998.8746,-562.2449 993.8149,-571.5535 1000.7242,-572.677"/>
</g>
<!-- Node10 -->
<g id="node11" class="node">
<title>Node10</title>
<g id="a_node11"><a xlink:href="RotationalInertiaRaw_8h.html" target="_top" xlink:title="iDynTree/Core/Rotational\lInertiaRaw.h">
<polygon fill="none" stroke="#000000" points="399.9591,-403.5 399.9591,-433.5 536.9591,-433.5 536.9591,-403.5 399.9591,-403.5"/>
<text text-anchor="start" x="407.9591" y="-421.5" font-family="FreeSans.ttf" font-size="10.00" fill="#000000">iDynTree/Core/Rotational</text>
<text text-anchor="middle" x="468.4591" y="-410.5" font-family="FreeSans.ttf" font-size="10.00" fill="#000000">InertiaRaw.h</text>
</a>
</g>
</g>
<!-- Node9&#45;&gt;Node10 -->
<g id="edge10" class="edge">
<title>Node9&#45;&gt;Node10</title>
<path fill="none" stroke="#191970" d="M548.3099,-537.389C532.7802,-514.267 502.9823,-469.9012 484.5047,-442.3901"/>
<polygon fill="#191970" stroke="#191970" points="487.1904,-440.1113 478.7093,-433.7614 481.3794,-444.0143 487.1904,-440.1113"/>
</g>
<!-- Node11 -->
<g id="node12" class="node">
<title>Node11</title>
<g id="a_node12"><a xlink:href="MatrixFixSize_8h.html" target="_top" xlink:title="iDynTree/Core/MatrixFixSize.h">
<polygon fill="none" stroke="#000000" points="1012.9591,-168.5 1012.9591,-187.5 1173.9591,-187.5 1173.9591,-168.5 1012.9591,-168.5"/>
<text text-anchor="middle" x="1093.4591" y="-175.5" font-family="FreeSans.ttf" font-size="10.00" fill="#000000">iDynTree/Core/MatrixFixSize.h</text>
</a>
</g>
</g>
<!-- Node10&#45;&gt;Node11 -->
<g id="edge11" class="edge">
<title>Node10&#45;&gt;Node11</title>
<path fill="none" stroke="#191970" d="M468.2577,-403.2407C468.6783,-365.7431 475.4986,-268.883 532.4591,-224 568.475,-195.6207 853.2265,-184.1285 1002.6314,-180.016"/>
<polygon fill="#191970" stroke="#191970" points="1002.809,-183.5126 1012.711,-179.7441 1002.6202,-176.5151 1002.809,-183.5126"/>
</g>
<!-- Node11&#45;&gt;Node5 -->
<g id="edge24" class="edge">
<title>Node11&#45;&gt;Node5</title>
<path fill="none" stroke="#191970" d="M1036.5927,-168.4369C966.2643,-156.6099 848.9579,-136.8827 792.6043,-127.4058"/>
<polygon fill="#191970" stroke="#191970" points="792.9389,-123.913 782.4969,-125.7061 791.778,-130.8161 792.9389,-123.913"/>
</g>
<!-- Node12 -->
<g id="node13" class="node">
<title>Node12</title>
<g id="a_node13"><a xlink:href="Utils_8h.html" target="_top" xlink:title="iDynTree/Core/Utils.h">
<polygon fill="none" stroke="#000000" points="1325.9591,-56.5 1325.9591,-75.5 1444.9591,-75.5 1444.9591,-56.5 1325.9591,-56.5"/>
<text text-anchor="middle" x="1385.4591" y="-63.5" font-family="FreeSans.ttf" font-size="10.00" fill="#000000">iDynTree/Core/Utils.h</text>
</a>
</g>
</g>
<!-- Node11&#45;&gt;Node12 -->
<g id="edge12" class="edge">
<title>Node11&#45;&gt;Node12</title>
<path fill="none" stroke="#191970" d="M1092.4294,-168.3365C1091.4742,-153.8749 1092.0492,-126.731 1107.4591,-112 1115.0044,-104.7871 1236.0901,-86.741 1315.9453,-75.5157"/>
<polygon fill="#191970" stroke="#191970" points="1316.5352,-78.9673 1325.9531,-74.1142 1315.5643,-72.0349 1316.5352,-78.9673"/>
</g>
<!-- Node14 -->
<g id="node15" class="node">
<title>Node14</title>
<g id="a_node15"><a xlink:href="MatrixView_8h.html" target="_top" xlink:title="iDynTree/Core/MatrixView.h">
<polygon fill="none" stroke="#ff0000" points="1526.9591,-112.5 1526.9591,-131.5 1677.9591,-131.5 1677.9591,-112.5 1526.9591,-112.5"/>
<text text-anchor="middle" x="1602.4591" y="-119.5" font-family="FreeSans.ttf" font-size="10.00" fill="#000000">iDynTree/Core/MatrixView.h</text>
</a>
</g>
</g>
<!-- Node11&#45;&gt;Node14 -->
<g id="edge15" class="edge">
<title>Node11&#45;&gt;Node14</title>
<path fill="none" stroke="#191970" d="M1174.1116,-169.1266C1267.5575,-158.8457 1420.901,-141.975 1516.5334,-131.4535"/>
<polygon fill="#191970" stroke="#191970" points="1517.1943,-134.902 1526.7516,-130.3293 1516.4288,-127.944 1517.1943,-134.902"/>
</g>
<!-- Node15 -->
<g id="node16" class="node">
<title>Node15</title>
<polygon fill="none" stroke="#bfbfbf" points="1466.4591,-.5 1466.4591,-19.5 1518.4591,-19.5 1518.4591,-.5 1466.4591,-.5"/>
<text text-anchor="middle" x="1492.4591" y="-7.5" font-family="FreeSans.ttf" font-size="10.00" fill="#000000">cassert</text>
</g>
<!-- Node11&#45;&gt;Node15 -->
<g id="edge22" class="edge">
<title>Node11&#45;&gt;Node15</title>
<path fill="none" stroke="#191970" d="M1089.6862,-168.3103C1084.9278,-154.3017 1078.7938,-128.2902 1091.4591,-112 1114.2756,-82.6533 1362.3545,-34.0796 1456.5044,-16.557"/>
<polygon fill="#191970" stroke="#191970" points="1457.2283,-19.9825 1466.4237,-14.7199 1455.9536,-13.0996 1457.2283,-19.9825"/>
</g>
<!-- Node24 -->
<g id="node19" class="node">
<title>Node24</title>
<polygon fill="none" stroke="#bfbfbf" points="1194.4591,-112.5 1194.4591,-131.5 1244.4591,-131.5 1244.4591,-112.5 1194.4591,-112.5"/>
<text text-anchor="middle" x="1219.4591" y="-119.5" font-family="FreeSans.ttf" font-size="10.00" fill="#000000">cstring</text>
</g>
<!-- Node11&#45;&gt;Node24 -->
<g id="edge23" class="edge">
<title>Node11&#45;&gt;Node24</title>
<path fill="none" stroke="#191970" d="M1115.1193,-168.3733C1135.4362,-159.3435 1166.023,-145.7494 1188.8341,-135.6111"/>
<polygon fill="#191970" stroke="#191970" points="1190.3649,-138.7609 1198.0816,-131.5011 1187.5219,-132.3642 1190.3649,-138.7609"/>
</g>
<!-- Node25 -->
<g id="node20" class="node">
<title>Node25</title>
<polygon fill="none" stroke="#bfbfbf" points="1116.4591,-112.5 1116.4591,-131.5 1176.4591,-131.5 1176.4591,-112.5 1116.4591,-112.5"/>
<text text-anchor="middle" x="1146.4591" y="-119.5" font-family="FreeSans.ttf" font-size="10.00" fill="#000000">iostream</text>
</g>
<!-- Node11&#45;&gt;Node25 -->
<g id="edge25" class="edge">
<title>Node11&#45;&gt;Node25</title>
<path fill="none" stroke="#191970" d="M1102.691,-168.2455C1110.2908,-160.2155 1121.2468,-148.6394 1130.2958,-139.0781"/>
<polygon fill="#191970" stroke="#191970" points="1133.0011,-141.3115 1137.333,-131.6427 1127.9171,-136.4998 1133.0011,-141.3115"/>
</g>
<!-- Node26 -->
<g id="node21" class="node">
<title>Node26</title>
<polygon fill="none" stroke="#bfbfbf" points="1300.4591,-112.5 1300.4591,-131.5 1356.4591,-131.5 1356.4591,-112.5 1300.4591,-112.5"/>
<text text-anchor="middle" x="1328.4591" y="-119.5" font-family="FreeSans.ttf" font-size="10.00" fill="#000000">sstream</text>
</g>
<!-- Node11&#45;&gt;Node26 -->
<g id="edge26" class="edge">
<title>Node11&#45;&gt;Node26</title>
<path fill="none" stroke="#191970" d="M1133.59,-168.4369C1177.523,-157.9677 1247.4333,-141.3083 1290.4908,-131.0478"/>
<polygon fill="#191970" stroke="#191970" points="1291.3851,-134.4327 1300.3014,-128.7099 1289.7624,-127.6234 1291.3851,-134.4327"/>
</g>
<!-- Node12&#45;&gt;Node4 -->
<g id="edge13" class="edge">
<title>Node12&#45;&gt;Node4</title>
<path fill="none" stroke="#191970" d="M1371.0016,-56.2455C1358.3859,-47.7337 1339.8646,-35.2375 1325.2546,-25.3801"/>
<polygon fill="#191970" stroke="#191970" points="1326.9981,-22.3343 1316.7509,-19.6427 1323.083,-28.1371 1326.9981,-22.3343"/>
</g>
<!-- Node13 -->
<g id="node14" class="node">
<title>Node13</title>
<polygon fill="none" stroke="#bfbfbf" points="1347.4591,-.5 1347.4591,-19.5 1427.4591,-19.5 1427.4591,-.5 1347.4591,-.5"/>
<text text-anchor="middle" x="1387.4591" y="-7.5" font-family="FreeSans.ttf" font-size="10.00" fill="#000000">CoreExport.h</text>
</g>
<!-- Node12&#45;&gt;Node13 -->
<g id="edge14" class="edge">
<title>Node12&#45;&gt;Node13</title>
<path fill="none" stroke="#191970" d="M1385.8075,-56.2455C1386.0684,-48.9382 1386.4343,-38.6944 1386.7553,-29.7046"/>
<polygon fill="#191970" stroke="#191970" points="1390.2555,-29.7613 1387.1147,-19.6427 1383.2599,-29.5113 1390.2555,-29.7613"/>
</g>
<!-- Node14&#45;&gt;Node12 -->
<g id="edge21" class="edge">
<title>Node14&#45;&gt;Node12</title>
<path fill="none" stroke="#191970" d="M1565.1555,-112.3733C1528.2906,-102.8598 1471.7931,-88.2797 1432.0085,-78.0127"/>
<polygon fill="#191970" stroke="#191970" points="1432.8333,-74.611 1422.2759,-75.5011 1431.0841,-81.3889 1432.8333,-74.611"/>
</g>
<!-- Node14&#45;&gt;Node15 -->
<g id="edge16" class="edge">
<title>Node14&#45;&gt;Node15</title>
<path fill="none" stroke="#191970" d="M1583.5915,-112.3522C1568.7476,-104.1142 1548.1818,-91.2036 1533.4591,-76 1520.0181,-62.1201 1508.7828,-43.1107 1501.4926,-29.057"/>
<polygon fill="#191970" stroke="#191970" points="1504.496,-27.2362 1496.9064,-19.8437 1498.2294,-30.3556 1504.496,-27.2362"/>
</g>
<!-- Node17 -->
<g id="node17" class="node">
<title>Node17</title>
<g id="a_node17"><a xlink:href="Span_8h.html" target="_top" xlink:title="iDynTree/Core/Span.h">
<polygon fill="none" stroke="#ff0000" points="1541.9591,-56.5 1541.9591,-75.5 1662.9591,-75.5 1662.9591,-56.5 1541.9591,-56.5"/>
<text text-anchor="middle" x="1602.4591" y="-63.5" font-family="FreeSans.ttf" font-size="10.00" fill="#000000">iDynTree/Core/Span.h</text>
</a>
</g>
</g>
<!-- Node14&#45;&gt;Node17 -->
<g id="edge17" class="edge">
<title>Node14&#45;&gt;Node17</title>
<path fill="none" stroke="#191970" d="M1602.4591,-112.2455C1602.4591,-104.9382 1602.4591,-94.6944 1602.4591,-85.7046"/>
<polygon fill="#191970" stroke="#191970" points="1605.9592,-85.6426 1602.4591,-75.6427 1598.9592,-85.6427 1605.9592,-85.6426"/>
</g>
<!-- Node17&#45;&gt;Node4 -->
<g id="edge20" class="edge">
<title>Node17&#45;&gt;Node4</title>
<path fill="none" stroke="#191970" d="M1541.8341,-57.174C1490.4157,-49.2938 1414.5343,-36.7396 1339.2551,-20.0009"/>
<polygon fill="#191970" stroke="#191970" points="1339.6458,-16.5014 1329.1214,-17.7211 1338.1093,-23.3307 1339.6458,-16.5014"/>
</g>
<!-- Node17&#45;&gt;Node15 -->
<g id="edge18" class="edge">
<title>Node17&#45;&gt;Node15</title>
<path fill="none" stroke="#191970" d="M1583.2985,-56.2455C1565.948,-47.4125 1540.169,-34.2887 1520.5008,-24.2758"/>
<polygon fill="#191970" stroke="#191970" points="1521.8996,-21.0605 1511.4001,-19.6427 1518.7238,-27.2986 1521.8996,-21.0605"/>
</g>
<!-- Node18 -->
<g id="node18" class="node">
<title>Node18</title>
<polygon fill="none" stroke="#bfbfbf" points="1570.4591,-.5 1570.4591,-19.5 1634.4591,-19.5 1634.4591,-.5 1570.4591,-.5"/>
<text text-anchor="middle" x="1602.4591" y="-7.5" font-family="FreeSans.ttf" font-size="10.00" fill="#000000">algorithm</text>
</g>
<!-- Node17&#45;&gt;Node18 -->
<g id="edge19" class="edge">
<title>Node17&#45;&gt;Node18</title>
<path fill="none" stroke="#191970" d="M1602.4591,-56.2455C1602.4591,-48.9382 1602.4591,-38.6944 1602.4591,-29.7046"/>
<polygon fill="#191970" stroke="#191970" points="1605.9592,-29.6426 1602.4591,-19.6427 1598.9592,-29.6427 1605.9592,-29.6426"/>
</g>
<!-- Node27&#45;&gt;Node4 -->
<g id="edge33" class="edge">
<title>Node27&#45;&gt;Node4</title>
<path fill="none" stroke="#191970" d="M1305.7646,-168.1646C1300.8728,-159.1092 1294.1899,-145.1298 1291.4591,-132 1284.0235,-96.2499 1291.5107,-53.5733 1297.2477,-29.3441"/>
<polygon fill="#191970" stroke="#191970" points="1300.6533,-30.1529 1299.7006,-19.601 1293.8651,-28.4439 1300.6533,-30.1529"/>
</g>
<!-- Node27&#45;&gt;Node5 -->
<g id="edge30" class="edge">
<title>Node27&#45;&gt;Node5</title>
<path fill="none" stroke="#191970" d="M1230.7489,-169.7971C1107.3431,-157.255 877.1797,-133.8627 792.6583,-125.2725"/>
<polygon fill="#191970" stroke="#191970" points="792.9351,-121.7827 782.6324,-124.2536 792.2273,-128.7468 792.9351,-121.7827"/>
</g>
<!-- Node27&#45;&gt;Node12 -->
<g id="edge28" class="edge">
<title>Node27&#45;&gt;Node12</title>
<path fill="none" stroke="#191970" d="M1326.8513,-168.4886C1338.9862,-160.2406 1355.4745,-147.2487 1365.4591,-132 1374.671,-117.9313 1379.795,-99.4333 1382.5438,-85.6011"/>
<polygon fill="#191970" stroke="#191970" points="1386.0036,-86.1343 1384.2718,-75.6819 1379.1074,-84.9329 1386.0036,-86.1343"/>
</g>
<!-- Node27&#45;&gt;Node15 -->
<g id="edge32" class="edge">
<title>Node27&#45;&gt;Node15</title>
<path fill="none" stroke="#191970" d="M1330.3245,-168.4078C1359.9476,-152.5736 1417.7703,-118.4537 1454.4591,-76 1466.8421,-61.6712 1477.2643,-42.7152 1484.0432,-28.7956"/>
<polygon fill="#191970" stroke="#191970" points="1487.237,-30.2285 1488.3114,-19.6883 1480.8985,-27.2579 1487.237,-30.2285"/>
</g>
<!-- Node27&#45;&gt;Node17 -->
<g id="edge29" class="edge">
<title>Node27&#45;&gt;Node17</title>
<path fill="none" stroke="#191970" d="M1392.1566,-173.7334C1496.7836,-167.3619 1668.226,-153.7294 1687.4591,-132 1706.2867,-110.7287 1672.7663,-91.4432 1642.4383,-79.2881"/>
<polygon fill="#191970" stroke="#191970" points="1643.3647,-75.8954 1632.774,-75.5987 1640.8681,-82.4351 1643.3647,-75.8954"/>
</g>
<!-- Node27&#45;&gt;Node24 -->
<g id="edge34" class="edge">
<title>Node27&#45;&gt;Node24</title>
<path fill="none" stroke="#191970" d="M1295.4339,-168.2455C1281.3183,-159.6534 1260.5327,-147.0014 1244.2692,-137.1018"/>
<polygon fill="#191970" stroke="#191970" points="1245.6624,-133.8525 1235.3006,-131.6427 1242.0228,-139.8319 1245.6624,-133.8525"/>
</g>
<!-- Node27&#45;&gt;Node26 -->
<g id="edge31" class="edge">
<title>Node27&#45;&gt;Node26</title>
<path fill="none" stroke="#191970" d="M1314.4203,-168.2455C1316.6629,-160.8579 1319.8167,-150.4689 1322.5672,-141.4087"/>
<polygon fill="#191970" stroke="#191970" points="1325.976,-142.2282 1325.5318,-131.6427 1319.2779,-140.1948 1325.976,-142.2282"/>
</g>
<!-- Node29 -->
<g id="node24" class="node">
<title>Node29</title>
<g id="a_node24"><a xlink:href="SpatialMotionVector_8h.html" target="_top" xlink:title="iDynTree/Core/SpatialMotion\lVector.h">
<polygon fill="none" stroke="#000000" points="999.9591,-470.5 999.9591,-500.5 1154.9591,-500.5 1154.9591,-470.5 999.9591,-470.5"/>
<text text-anchor="start" x="1007.9591" y="-488.5" font-family="FreeSans.ttf" font-size="10.00" fill="#000000">iDynTree/Core/SpatialMotion</text>
<text text-anchor="middle" x="1077.4591" y="-477.5" font-family="FreeSans.ttf" font-size="10.00" fill="#000000">Vector.h</text>
</a>
</g>
</g>
<!-- Node28&#45;&gt;Node29 -->
<g id="edge36" class="edge">
<title>Node28&#45;&gt;Node29</title>
<path fill="none" stroke="#191970" d="M1136.5731,-542.9005C1127.1302,-533.7313 1112.5539,-519.5776 1100.2388,-507.6195"/>
<polygon fill="#191970" stroke="#191970" points="1102.5418,-504.9771 1092.9293,-500.5218 1097.6653,-509.9991 1102.5418,-504.9771"/>
</g>
<!-- Node29&#45;&gt;Node27 -->
<g id="edge37" class="edge">
<title>Node29&#45;&gt;Node27</title>
<path fill="none" stroke="#191970" d="M1076.505,-470.3244C1074.586,-425.824 1075.3307,-294.3816 1144.4591,-224 1158.6404,-209.5616 1204.0721,-197.59 1243.9739,-189.4824"/>
<polygon fill="#191970" stroke="#191970" points="1244.8454,-192.878 1253.9769,-187.5053 1243.488,-186.0108 1244.8454,-192.878"/>
</g>
<!-- Node30 -->
<g id="node25" class="node">
<title>Node30</title>
<g id="a_node25"><a xlink:href="GeomVector3_8h.html" target="_top" xlink:title="iDynTree/Core/GeomVector3.h">
<polygon fill="none" stroke="#000000" points="1152.9591,-224.5 1152.9591,-243.5 1315.9591,-243.5 1315.9591,-224.5 1152.9591,-224.5"/>
<text text-anchor="middle" x="1234.4591" y="-231.5" font-family="FreeSans.ttf" font-size="10.00" fill="#000000">iDynTree/Core/GeomVector3.h</text>
</a>
</g>
</g>
<!-- Node29&#45;&gt;Node30 -->
<g id="edge38" class="edge">
<title>Node29&#45;&gt;Node30</title>
<path fill="none" stroke="#191970" d="M1087.0438,-470.1461C1114.5116,-426.1452 1193.4334,-299.7195 1223.0488,-252.2782"/>
<polygon fill="#191970" stroke="#191970" points="1226.1082,-253.9867 1228.4347,-243.6505 1220.1702,-250.2799 1226.1082,-253.9867"/>
</g>
<!-- Node31 -->
<g id="node26" class="node">
<title>Node31</title>
<g id="a_node26"><a xlink:href="SpatialVector_8h.html" target="_top" xlink:title="iDynTree/Core/SpatialVector.h">
<polygon fill="none" stroke="#000000" points="1184.9591,-409 1184.9591,-428 1345.9591,-428 1345.9591,-409 1184.9591,-409"/>
<text text-anchor="middle" x="1265.4591" y="-416" font-family="FreeSans.ttf" font-size="10.00" fill="#000000">iDynTree/Core/SpatialVector.h</text>
</a>
</g>
</g>
<!-- Node29&#45;&gt;Node31 -->
<g id="edge40" class="edge">
<title>Node29&#45;&gt;Node31</title>
<path fill="none" stroke="#191970" d="M1119.65,-470.4639C1152.5704,-458.7316 1197.8201,-442.6054 1229.1411,-431.4431"/>
<polygon fill="#191970" stroke="#191970" points="1230.5428,-434.6593 1238.7875,-428.0053 1228.1929,-428.0655 1230.5428,-434.6593"/>
</g>
<!-- Node30&#45;&gt;Node27 -->
<g id="edge39" class="edge">
<title>Node30&#45;&gt;Node27</title>
<path fill="none" stroke="#191970" d="M1247.8715,-224.2455C1259.4648,-215.814 1276.4338,-203.4729 1289.9269,-193.6598"/>
<polygon fill="#191970" stroke="#191970" points="1292.1716,-196.355 1298.2004,-187.6427 1288.0544,-190.6938 1292.1716,-196.355"/>
</g>
<!-- Node31&#45;&gt;Node12 -->
<g id="edge54" class="edge">
<title>Node31&#45;&gt;Node12</title>
<path fill="none" stroke="#191970" d="M1337.9151,-408.9451C1405.6599,-395.4638 1496.4591,-363.656 1496.4591,-290 1496.4591,-290 1496.4591,-290 1496.4591,-234 1496.4591,-169.1776 1438.2217,-110.1184 1406.1137,-82.4832"/>
<polygon fill="#191970" stroke="#191970" points="1408.1051,-79.5855 1398.1922,-75.8458 1403.6093,-84.951 1408.1051,-79.5855"/>
</g>
<!-- Node31&#45;&gt;Node25 -->
<g id="edge56" class="edge">
<title>Node31&#45;&gt;Node25</title>
<path fill="none" stroke="#191970" d="M1274.0101,-408.6519C1299.2174,-378.3862 1368.8215,-285.0905 1325.4591,-224 1297.3903,-184.4557 1264.4053,-212.3335 1222.4591,-188 1199.5017,-174.6822 1177.0349,-153.9369 1162.5566,-139.2644"/>
<polygon fill="#191970" stroke="#191970" points="1164.8431,-136.5933 1155.3826,-131.8235 1159.8038,-141.4518 1164.8431,-136.5933"/>
</g>
<!-- Node31&#45;&gt;Node26 -->
<g id="edge57" class="edge">
<title>Node31&#45;&gt;Node26</title>
<path fill="none" stroke="#191970" d="M1312.179,-408.9528C1369.2979,-394.2348 1458.4591,-360.0425 1458.4591,-290 1458.4591,-290 1458.4591,-290 1458.4591,-234 1458.4591,-184.5666 1403.839,-152.1607 1365.4076,-135.4777"/>
<polygon fill="#191970" stroke="#191970" points="1366.6059,-132.1855 1356.0287,-131.5743 1363.9162,-138.6481 1366.6059,-132.1855"/>
</g>
<!-- Node31&#45;&gt;Node30 -->
<g id="edge55" class="edge">
<title>Node31&#45;&gt;Node30</title>
<path fill="none" stroke="#191970" d="M1263.836,-408.8402C1258.9499,-379.76 1244.3112,-292.636 1237.7286,-253.459"/>
<polygon fill="#191970" stroke="#191970" points="1241.1748,-252.8459 1236.0661,-243.5641 1234.2715,-254.0059 1241.1748,-252.8459"/>
</g>
<!-- Node32 -->
<g id="node27" class="node">
<title>Node32</title>
<g id="a_node27"><a xlink:href="Position_8h.html" target="_top" xlink:title="Position.h">
<polygon fill="none" stroke="#000000" points="657.9591,-342 657.9591,-361 722.9591,-361 722.9591,-342 657.9591,-342"/>
<text text-anchor="middle" x="690.4591" y="-349" font-family="FreeSans.ttf" font-size="10.00" fill="#000000">Position.h</text>
</a>
</g>
</g>
<!-- Node31&#45;&gt;Node32 -->
<g id="edge41" class="edge">
<title>Node31&#45;&gt;Node32</title>
<path fill="none" stroke="#191970" d="M1184.9024,-409.1134C1061.2695,-394.7075 829.0238,-367.6458 733.3362,-356.4961"/>
<polygon fill="#191970" stroke="#191970" points="733.5015,-352.9918 723.1636,-355.3108 732.6913,-359.9447 733.5015,-352.9918"/>
</g>
<!-- Node34 -->
<g id="node29" class="node">
<title>Node34</title>
<g id="a_node29"><a xlink:href="Rotation_8h.html" target="_top" xlink:title="iDynTree/Core/Rotation.h">
<polygon fill="none" stroke="#000000" points="834.9591,-280.5 834.9591,-299.5 971.9591,-299.5 971.9591,-280.5 834.9591,-280.5"/>
<text text-anchor="middle" x="903.4591" y="-287.5" font-family="FreeSans.ttf" font-size="10.00" fill="#000000">iDynTree/Core/Rotation.h</text>
</a>
</g>
</g>
<!-- Node31&#45;&gt;Node34 -->
<g id="edge53" class="edge">
<title>Node31&#45;&gt;Node34</title>
<path fill="none" stroke="#191970" d="M1238.546,-408.9466C1174.5393,-386.226 1013.1514,-328.9377 940.2321,-303.0534"/>
<polygon fill="#191970" stroke="#191970" points="941.1441,-299.6632 930.5493,-299.6163 938.8024,-306.2599 941.1441,-299.6632"/>
</g>
<!-- Node32&#45;&gt;Node5 -->
<g id="edge52" class="edge">
<title>Node32&#45;&gt;Node5</title>
<path fill="none" stroke="#191970" d="M674.7127,-341.6979C643.3697,-320.8886 578.2737,-270.3963 603.4591,-224 630.0071,-175.0933 691.2625,-145.982 728.9306,-132.0623"/>
<polygon fill="#191970" stroke="#191970" points="730.1703,-135.3363 738.4222,-128.6913 727.8275,-128.7399 730.1703,-135.3363"/>
</g>
<!-- Node33 -->
<g id="node28" class="node">
<title>Node33</title>
<g id="a_node28"><a xlink:href="PositionRaw_8h.html" target="_top" xlink:title="iDynTree/Core/PositionRaw.h">
<polygon fill="none" stroke="#000000" points="612.4591,-224.5 612.4591,-243.5 768.4591,-243.5 768.4591,-224.5 612.4591,-224.5"/>
<text text-anchor="middle" x="690.4591" y="-231.5" font-family="FreeSans.ttf" font-size="10.00" fill="#000000">iDynTree/Core/PositionRaw.h</text>
</a>
</g>
</g>
<!-- Node32&#45;&gt;Node33 -->
<g id="edge42" class="edge">
<title>Node32&#45;&gt;Node33</title>
<path fill="none" stroke="#191970" d="M690.4591,-341.8845C690.4591,-322.6913 690.4591,-279.286 690.4591,-253.7663"/>
<polygon fill="#191970" stroke="#191970" points="693.9592,-253.7483 690.4591,-243.7484 686.9592,-253.7484 693.9592,-253.7483"/>
</g>
<!-- Node32&#45;&gt;Node34 -->
<g id="edge45" class="edge">
<title>Node32&#45;&gt;Node34</title>
<path fill="none" stroke="#191970" d="M723.2735,-342.0254C760.0655,-331.4024 819.8702,-314.1348 860.3947,-302.4341"/>
<polygon fill="#191970" stroke="#191970" points="861.6198,-305.7234 870.2564,-299.5867 859.6779,-298.9981 861.6198,-305.7234"/>
</g>
<!-- Node33&#45;&gt;Node5 -->
<g id="edge44" class="edge">
<title>Node33&#45;&gt;Node5</title>
<path fill="none" stroke="#191970" d="M696.4272,-224.4509C708.1024,-205.7707 734.1317,-164.1238 749.1615,-140.0761"/>
<polygon fill="#191970" stroke="#191970" points="752.174,-141.8599 754.506,-131.5249 746.238,-138.1499 752.174,-141.8599"/>
</g>
<!-- Node33&#45;&gt;Node27 -->
<g id="edge43" class="edge">
<title>Node33&#45;&gt;Node27</title>
<path fill="none" stroke="#191970" d="M768.4804,-226.9643C883.6553,-216.5781 1098.6855,-197.1873 1220.7394,-186.1808"/>
<polygon fill="#191970" stroke="#191970" points="1221.1632,-189.6569 1230.8084,-185.2729 1220.5344,-182.6852 1221.1632,-189.6569"/>
</g>
<!-- Node34&#45;&gt;Node5 -->
<g id="edge46" class="edge">
<title>Node34&#45;&gt;Node5</title>
<path fill="none" stroke="#191970" d="M874.1846,-280.3945C855.379,-272.9697 831.5486,-261.0531 815.4591,-244 787.4173,-214.2789 771.9464,-167.8131 765.009,-141.6381"/>
<polygon fill="#191970" stroke="#191970" points="768.3637,-140.6255 762.5465,-131.7706 761.572,-142.3205 768.3637,-140.6255"/>
</g>
<!-- Node34&#45;&gt;Node27 -->
<g id="edge51" class="edge">
<title>Node34&#45;&gt;Node27</title>
<path fill="none" stroke="#191970" d="M921.7491,-280.399C954.9616,-263.0222 1022.839,-227.7945 1034.4591,-224 1094.9894,-204.2341 1165.8644,-192.663 1220.7693,-186.0701"/>
<polygon fill="#191970" stroke="#191970" points="1221.3024,-189.5318 1230.8293,-184.8962 1220.491,-182.5789 1221.3024,-189.5318"/>
</g>
<!-- Node34&#45;&gt;Node30 -->
<g id="edge47" class="edge">
<title>Node34&#45;&gt;Node30</title>
<path fill="none" stroke="#191970" d="M959.9839,-280.4369C1017.7031,-270.6717 1107.2562,-255.5207 1168.2557,-245.2006"/>
<polygon fill="#191970" stroke="#191970" points="1168.8914,-248.6429 1178.1674,-243.5237 1167.7236,-241.7409 1168.8914,-248.6429"/>
</g>
<!-- Node35 -->
<g id="node30" class="node">
<title>Node35</title>
<g id="a_node30"><a xlink:href="RotationRaw_8h.html" target="_top" xlink:title="iDynTree/Core/RotationRaw.h">
<polygon fill="none" stroke="#000000" points="824.4591,-224.5 824.4591,-243.5 982.4591,-243.5 982.4591,-224.5 824.4591,-224.5"/>
<text text-anchor="middle" x="903.4591" y="-231.5" font-family="FreeSans.ttf" font-size="10.00" fill="#000000">iDynTree/Core/RotationRaw.h</text>
</a>
</g>
</g>
<!-- Node34&#45;&gt;Node35 -->
<g id="edge48" class="edge">
<title>Node34&#45;&gt;Node35</title>
<path fill="none" stroke="#191970" d="M903.4591,-280.2455C903.4591,-272.9382 903.4591,-262.6944 903.4591,-253.7046"/>
<polygon fill="#191970" stroke="#191970" points="906.9592,-253.6426 903.4591,-243.6427 899.9592,-253.6427 906.9592,-253.6426"/>
</g>
<!-- Node35&#45;&gt;Node5 -->
<g id="edge50" class="edge">
<title>Node35&#45;&gt;Node5</title>
<path fill="none" stroke="#191970" d="M891.267,-224.4509C866.6775,-205.1921 810.92,-161.5218 780.7517,-137.8935"/>
<polygon fill="#191970" stroke="#191970" points="782.6512,-134.9355 772.6203,-131.5249 778.3349,-140.4464 782.6512,-134.9355"/>
</g>
<!-- Node35&#45;&gt;Node11 -->
<g id="edge49" class="edge">
<title>Node35&#45;&gt;Node11</title>
<path fill="none" stroke="#191970" d="M936.1212,-224.3733C967.9889,-214.9807 1016.6122,-200.6496 1051.3661,-190.4064"/>
<polygon fill="#191970" stroke="#191970" points="1052.6206,-193.6855 1061.2231,-187.5011 1050.6416,-186.9711 1052.6206,-193.6855"/>
</g>
<!-- Node37 -->
<g id="node32" class="node">
<title>Node37</title>
<g id="a_node32"><a xlink:href="SpatialForceVector_8h.html" target="_top" xlink:title="iDynTree/Core/SpatialForce\lVector.h">
<polygon fill="none" stroke="#000000" points="1358.4591,-470.5 1358.4591,-500.5 1506.4591,-500.5 1506.4591,-470.5 1358.4591,-470.5"/>
<text text-anchor="start" x="1366.4591" y="-488.5" font-family="FreeSans.ttf" font-size="10.00" fill="#000000">iDynTree/Core/SpatialForce</text>
<text text-anchor="middle" x="1432.4591" y="-477.5" font-family="FreeSans.ttf" font-size="10.00" fill="#000000">Vector.h</text>
</a>
</g>
</g>
<!-- Node36&#45;&gt;Node37 -->
<g id="edge59" class="edge">
<title>Node36&#45;&gt;Node37</title>
<path fill="none" stroke="#191970" d="M1432.4591,-542.9005C1432.4591,-534.5099 1432.4591,-521.9451 1432.4591,-510.7085"/>
<polygon fill="#191970" stroke="#191970" points="1435.9592,-510.5217 1432.4591,-500.5218 1428.9592,-510.5218 1435.9592,-510.5217"/>
</g>
<!-- Node37&#45;&gt;Node27 -->
<g id="edge60" class="edge">
<title>Node37&#45;&gt;Node27</title>
<path fill="none" stroke="#191970" d="M1430.202,-470.2668C1426.7259,-445.4474 1420.4591,-394.7104 1420.4591,-351.5 1420.4591,-351.5 1420.4591,-351.5 1420.4591,-290 1420.4591,-244.4375 1373.5593,-210.4581 1341.2877,-192.4701"/>
<polygon fill="#191970" stroke="#191970" points="1342.6858,-189.2486 1332.2177,-187.6149 1339.3822,-195.4201 1342.6858,-189.2486"/>
</g>
<!-- Node37&#45;&gt;Node30 -->
<g id="edge61" class="edge">
<title>Node37&#45;&gt;Node30</title>
<path fill="none" stroke="#191970" d="M1420.3714,-470.1461C1385.5858,-425.9615 1285.3662,-298.6623 1248.3845,-251.6881"/>
<polygon fill="#191970" stroke="#191970" points="1250.9926,-249.3427 1242.0567,-243.6505 1245.4925,-253.6728 1250.9926,-249.3427"/>
</g>
<!-- Node37&#45;&gt;Node31 -->
<g id="edge62" class="edge">
<title>Node37&#45;&gt;Node31</title>
<path fill="none" stroke="#191970" d="M1394.981,-470.4639C1366.077,-458.8677 1326.4737,-442.9789 1298.6934,-431.8335"/>
<polygon fill="#191970" stroke="#191970" points="1299.9814,-428.5791 1289.3972,-428.1039 1297.3749,-435.0758 1299.9814,-428.5791"/>
</g>
<!-- Node38&#45;&gt;Node29 -->
<g id="edge64" class="edge">
<title>Node38&#45;&gt;Node29</title>
<path fill="none" stroke="#191970" d="M842.4256,-542.9717C884.8989,-532.5859 953.7712,-515.7449 1006.0084,-502.9715"/>
<polygon fill="#191970" stroke="#191970" points="1007.007,-506.3305 1015.8895,-500.5553 1005.3443,-499.5309 1007.007,-506.3305"/>
</g>
<!-- Node39&#45;&gt;Node37 -->
<g id="edge66" class="edge">
<title>Node39&#45;&gt;Node37</title>
<path fill="none" stroke="#191970" d="M1044.5679,-542.9595C1054.9983,-540.8546 1066.1002,-538.7371 1076.4591,-537 1193.975,-517.2931 1226.8772,-520.073 1348.2247,-501.1425"/>
<polygon fill="#191970" stroke="#191970" points="1348.9491,-504.5716 1358.2815,-499.5559 1347.8582,-497.6571 1348.9491,-504.5716"/>
</g>
<!-- Node40&#45;&gt;Node5 -->
<g id="edge72" class="edge">
<title>Node40&#45;&gt;Node5</title>
<path fill="none" stroke="#191970" d="M649.866,-475.8217C637.4119,-466.3629 619.1811,-450.946 607.4591,-434 554.0979,-356.8586 547.5877,-309.3653 586.4591,-224 599.3519,-195.6861 603.3445,-186.3619 628.4591,-168 658.4696,-146.0586 699.8293,-133.905 728.21,-127.6819"/>
<polygon fill="#191970" stroke="#191970" points="728.9497,-131.1031 738.0337,-125.6504 727.532,-124.2481 728.9497,-131.1031"/>
</g>
<!-- Node40&#45;&gt;Node11 -->
<g id="edge71" class="edge">
<title>Node40&#45;&gt;Node11</title>
<path fill="none" stroke="#191970" d="M656.1403,-475.9358C628.367,-438.4349 534.4685,-299.7706 603.4591,-224 629.7392,-195.1372 868.1783,-184.0412 1002.4965,-180.0542"/>
<polygon fill="#191970" stroke="#191970" points="1002.8821,-183.5446 1012.7767,-179.7569 1002.6797,-176.5476 1002.8821,-183.5446"/>
</g>
<!-- Node40&#45;&gt;Node32 -->
<g id="edge69" class="edge">
<title>Node40&#45;&gt;Node32</title>
<path fill="none" stroke="#191970" d="M665.4009,-475.8631C669.8182,-453.9398 680.6896,-399.9858 686.5556,-370.8727"/>
<polygon fill="#191970" stroke="#191970" points="689.9906,-371.544 688.5349,-361.0496 683.1286,-370.1613 689.9906,-371.544"/>
</g>
<!-- Node40&#45;&gt;Node34 -->
<g id="edge70" class="edge">
<title>Node40&#45;&gt;Node34</title>
<path fill="none" stroke="#191970" d="M675.3607,-475.8051C713.9959,-444.3335 836.1665,-344.8154 883.9923,-305.8574"/>
<polygon fill="#191970" stroke="#191970" points="886.2259,-308.5522 891.7686,-299.5229 881.8049,-303.1249 886.2259,-308.5522"/>
</g>
<!-- Node41&#45;&gt;Node3 -->
<g id="edge79" class="edge">
<title>Node41&#45;&gt;Node3</title>
<path fill="none" stroke="#191970" d="M145.3028,-604.3906C166.2727,-594.2359 199.5535,-578.1196 223.4626,-566.5416"/>
<polygon fill="#191970" stroke="#191970" points="225.2799,-569.5504 232.7547,-562.0419 222.229,-563.2502 225.2799,-569.5504"/>
</g>
<!-- Node41&#45;&gt;Node5 -->
<g id="edge76" class="edge">
<title>Node41&#45;&gt;Node5</title>
<path fill="none" stroke="#191970" d="M123.7172,-604.4213C115.7741,-557.7228 87.0074,-351.0323 174.4591,-224 204.4494,-180.4361 228.8189,-183.258 279.4591,-168 363.9645,-142.5383 634.5147,-127.8555 728.1797,-123.434"/>
<polygon fill="#191970" stroke="#191970" points="728.6241,-126.9173 738.4509,-122.9571 728.2993,-119.9248 728.6241,-126.9173"/>
</g>
<!-- Node41&#45;&gt;Node40 -->
<g id="edge78" class="edge">
<title>Node41&#45;&gt;Node40</title>
<path fill="none" stroke="#191970" d="M128.4467,-604.4458C134.2703,-587.5882 148.864,-552.8513 174.4591,-537 208.0893,-516.1724 449.3734,-498.5066 579.9799,-490.3428"/>
<polygon fill="#191970" stroke="#191970" points="580.5767,-493.8126 590.341,-489.7005 580.1436,-486.826 580.5767,-493.8126"/>
</g>
<!-- Node41&#45;&gt;Node42 -->
<g id="edge75" class="edge">
<title>Node41&#45;&gt;Node42</title>
<path fill="none" stroke="#191970" d="M113.8966,-604.3906C102.4512,-594.8786 84.7118,-580.1357 71.0621,-568.7917"/>
<polygon fill="#191970" stroke="#191970" points="73.1124,-565.9447 63.1846,-562.2449 68.6383,-571.3283 73.1124,-565.9447"/>
</g>
<!-- Node41&#45;&gt;Node43 -->
<g id="edge77" class="edge">
<title>Node41&#45;&gt;Node43</title>
<path fill="none" stroke="#191970" d="M168.2813,-604.4581C223.2695,-592.2053 317.5674,-571.1932 367.7435,-560.0127"/>
<polygon fill="#191970" stroke="#191970" points="368.7514,-563.3741 377.7508,-557.7828 367.2289,-556.5416 368.7514,-563.3741"/>
</g>
<!-- Node44&#45;&gt;Node3 -->
<g id="edge83" class="edge">
<title>Node44&#45;&gt;Node3</title>
<path fill="none" stroke="#191970" d="M516.8963,-604.4581C461.3016,-593.5345 370.2751,-575.6492 310.8597,-563.9749"/>
<polygon fill="#191970" stroke="#191970" points="311.3655,-560.5074 300.8783,-562.0137 310.0159,-567.3761 311.3655,-560.5074"/>
</g>
<!-- Node44&#45;&gt;Node43 -->
<g id="edge84" class="edge">
<title>Node44&#45;&gt;Node43</title>
<path fill="none" stroke="#191970" d="M538.3135,-604.4194C512.7219,-595.3094 473.3462,-581.0917 439.4591,-568 437.8142,-567.3645 436.1321,-566.707 434.4355,-566.0377"/>
<polygon fill="#191970" stroke="#191970" points="435.3006,-562.614 424.7161,-562.1463 432.6987,-569.1125 435.3006,-562.614"/>
</g>
<!-- Node45&#45;&gt;Node3 -->
<g id="edge91" class="edge">
<title>Node45&#45;&gt;Node3</title>
<path fill="none" stroke="#191970" d="M835.3223,-672.5143C742.646,-667.6491 582.9533,-655.1818 449.4591,-624 388.8014,-609.8315 321.1691,-582.6363 283.0189,-566.1744"/>
<polygon fill="#191970" stroke="#191970" points="284.0892,-562.823 273.5237,-562.0353 281.292,-569.2398 284.0892,-562.823"/>
</g>
<!-- Node45&#45;&gt;Node28 -->
<g id="edge87" class="edge">
<title>Node45&#45;&gt;Node28</title>
<path fill="none" stroke="#191970" d="M989.7087,-660.9082C1019.578,-653.004 1053.086,-641.2156 1080.4591,-624 1102.6601,-610.0373 1122.2069,-586.7139 1134.1538,-570.5184"/>
<polygon fill="#191970" stroke="#191970" points="1137.0169,-572.5317 1139.9776,-562.3589 1131.3193,-568.465 1137.0169,-572.5317"/>
</g>
<!-- Node45&#45;&gt;Node40 -->
<g id="edge86" class="edge">
<title>Node45&#45;&gt;Node40</title>
<path fill="none" stroke="#191970" d="M835.0614,-667.2556C798.7433,-660.3162 756.5089,-647.5362 724.4591,-624 685.4172,-595.3291 670.9717,-536.124 665.9442,-505.2327"/>
<polygon fill="#191970" stroke="#191970" points="669.3939,-504.6333 664.49,-495.2418 662.4669,-505.6417 669.3939,-504.6333"/>
</g>
<!-- Node45&#45;&gt;Node43 -->
<g id="edge107" class="edge">
<title>Node45&#45;&gt;Node43</title>
<path fill="none" stroke="#191970" d="M835.4161,-661.6163C792.4398,-652.8643 738.2919,-640.154 691.4591,-624 671.5339,-617.1272 668.5763,-610.2884 648.4591,-604 558.4951,-575.8784 530.0728,-593.9518 439.4591,-568 437.0018,-567.2962 434.487,-566.4853 431.979,-565.6111"/>
<polygon fill="#191970" stroke="#191970" points="433.0677,-562.281 422.4761,-562.0185 430.5922,-568.8287 433.0677,-562.281"/>
</g>
<!-- Node46 -->
<g id="node41" class="node">
<title>Node46</title>
<g id="a_node41"><a xlink:href="VectorDynSize_8h.html" target="_top" xlink:title="iDynTree/Core/VectorDynSize.h">
<polygon fill="none" stroke="#000000" points="1172.9591,-476 1172.9591,-495 1339.9591,-495 1339.9591,-476 1172.9591,-476"/>
<text text-anchor="middle" x="1256.4591" y="-483" font-family="FreeSans.ttf" font-size="10.00" fill="#000000">iDynTree/Core/VectorDynSize.h</text>
</a>
</g>
</g>
<!-- Node45&#45;&gt;Node46 -->
<g id="edge88" class="edge">
<title>Node45&#45;&gt;Node46</title>
<path fill="none" stroke="#191970" d="M989.7022,-667.2697C1058.0282,-656.0345 1155.9969,-629.6492 1216.4591,-568 1233.9859,-550.1291 1245.0734,-523.0836 1251.0193,-504.8782"/>
<polygon fill="#191970" stroke="#191970" points="1254.4376,-505.6672 1254.0023,-495.0814 1247.7411,-503.6282 1254.4376,-505.6672"/>
</g>
<!-- Node45&#45;&gt;Node47 -->
<g id="edge92" class="edge">
<title>Node45&#45;&gt;Node47</title>
<path fill="none" stroke="#191970" d="M886.7732,-660.4554C870.3294,-650.8241 849.0883,-638.3828 832.7267,-628.7996"/>
<polygon fill="#191970" stroke="#191970" points="834.1281,-625.5643 823.7304,-623.5303 830.5903,-631.6045 834.1281,-625.5643"/>
</g>
<!-- Node45&#45;&gt;Node49 -->
<g id="edge102" class="edge">
<title>Node45&#45;&gt;Node49</title>
<path fill="none" stroke="#191970" d="M989.5793,-663.276C1059.6843,-652.164 1162.254,-635.9062 1230.1502,-625.1443"/>
<polygon fill="#191970" stroke="#191970" points="1230.9946,-628.5543 1240.3233,-623.5318 1229.8987,-621.6406 1230.9946,-628.5543"/>
</g>
<!-- Node46&#45;&gt;Node5 -->
<g id="edge90" class="edge">
<title>Node46&#45;&gt;Node5</title>
<path fill="none" stroke="#191970" d="M1238.6416,-475.9379C1221.7554,-466.4485 1196.121,-450.9098 1176.4591,-434 1082.1536,-352.8946 1091.8034,-297.5025 991.4591,-224 927.538,-177.1776 838.733,-145.6275 792.042,-131.1235"/>
<polygon fill="#191970" stroke="#191970" points="793.0568,-127.7739 782.4708,-128.2068 791.0162,-134.4699 793.0568,-127.7739"/>
</g>
<!-- Node46&#45;&gt;Node17 -->
<g id="edge89" class="edge">
<title>Node46&#45;&gt;Node17</title>
<path fill="none" stroke="#191970" d="M1291.9378,-475.9943C1388.4322,-449.1027 1648.4591,-369.2818 1648.4591,-290 1648.4591,-290 1648.4591,-290 1648.4591,-234 1648.4591,-174.5224 1735.6407,-162.0192 1703.4591,-112 1693.3434,-96.2774 1676.386,-85.8649 1659.2266,-78.996"/>
<polygon fill="#191970" stroke="#191970" points="1660.3091,-75.6653 1649.715,-75.5332 1657.9144,-82.243 1660.3091,-75.6653"/>
</g>
<!-- Node47&#45;&gt;Node3 -->
<g id="edge100" class="edge">
<title>Node47&#45;&gt;Node3</title>
<path fill="none" stroke="#191970" d="M732.6018,-606.7606C645.3424,-598.1776 496.826,-583.1221 369.4591,-568 357.2572,-566.5513 344.3517,-564.9308 331.7417,-563.2984"/>
<polygon fill="#191970" stroke="#191970" points="332.08,-559.8129 321.7112,-561.9898 331.1744,-566.7541 332.08,-559.8129"/>
</g>
<!-- Node47&#45;&gt;Node28 -->
<g id="edge94" class="edge">
<title>Node47&#45;&gt;Node28</title>
<path fill="none" stroke="#191970" d="M868.2419,-604.47C922.8637,-595.7006 1005.2073,-581.9722 1076.4591,-568 1082.5511,-566.8054 1088.9263,-565.4879 1095.2431,-564.1408"/>
<polygon fill="#191970" stroke="#191970" points="1096.0394,-567.5496 1105.0724,-562.013 1094.5583,-560.7081 1096.0394,-567.5496"/>
</g>
<!-- Node47&#45;&gt;Node38 -->
<g id="edge95" class="edge">
<title>Node47&#45;&gt;Node38</title>
<path fill="none" stroke="#191970" d="M806.8341,-604.3906C806.2796,-595.8657 805.4519,-583.1392 804.7549,-572.4235"/>
<polygon fill="#191970" stroke="#191970" points="808.2346,-571.9966 804.0929,-562.2449 801.2494,-572.451 808.2346,-571.9966"/>
</g>
<!-- Node47&#45;&gt;Node39 -->
<g id="edge96" class="edge">
<title>Node47&#45;&gt;Node39</title>
<path fill="none" stroke="#191970" d="M837.6153,-604.3906C870.7576,-593.8298 924.1353,-576.8208 960.6833,-565.1747"/>
<polygon fill="#191970" stroke="#191970" points="962.0493,-568.4129 970.5146,-562.0419 959.924,-561.7433 962.0493,-568.4129"/>
</g>
<!-- Node47&#45;&gt;Node40 -->
<g id="edge93" class="edge">
<title>Node47&#45;&gt;Node40</title>
<path fill="none" stroke="#191970" d="M781.8584,-604.3435C763.3821,-596.5029 738.598,-584.1119 720.4591,-568 699.703,-549.5634 682.6878,-522.0831 672.8071,-503.9803"/>
<polygon fill="#191970" stroke="#191970" points="675.8343,-502.2173 668.0733,-495.0049 669.6426,-505.4829 675.8343,-502.2173"/>
</g>
<!-- Node47&#45;&gt;Node43 -->
<g id="edge101" class="edge">
<title>Node47&#45;&gt;Node43</title>
<path fill="none" stroke="#191970" d="M732.6937,-606.9959C641.595,-598.0529 493.1848,-582.0522 439.4591,-568 436.8354,-567.3138 434.1519,-566.4889 431.4843,-565.5819"/>
<polygon fill="#191970" stroke="#191970" points="432.621,-562.2703 422.0288,-562.0378 430.1642,-568.825 432.621,-562.2703"/>
</g>
<!-- Node47&#45;&gt;Node48 -->
<g id="edge97" class="edge">
<title>Node47&#45;&gt;Node48</title>
<path fill="none" stroke="#191970" d="M732.7699,-607.116C640.9884,-598.1332 494.7369,-581.9179 473.4591,-568 406.5222,-524.2165 382.5775,-423.8584 374.8174,-376.7686"/>
<polygon fill="#191970" stroke="#191970" points="378.262,-376.1396 373.286,-366.7861 371.3429,-377.2012 378.262,-376.1396"/>
</g>
<!-- Node48&#45;&gt;Node5 -->
<g id="edge99" class="edge">
<title>Node48&#45;&gt;Node5</title>
<path fill="none" stroke="#191970" d="M374.3923,-336.2793C377.5443,-321.5005 383.2353,-298.6314 391.4591,-280 418.7674,-218.1317 432.9906,-196.1968 494.4591,-168 535.6489,-149.1054 666.4043,-132.507 727.8996,-125.5182"/>
<polygon fill="#191970" stroke="#191970" points="728.6449,-128.9566 738.193,-124.3648 727.8654,-122.0002 728.6449,-128.9566"/>
</g>
<!-- Node48&#45;&gt;Node11 -->
<g id="edge98" class="edge">
<title>Node48&#45;&gt;Node11</title>
<path fill="none" stroke="#191970" d="M376.4647,-336.3986C386.5781,-308.5733 412.3221,-249.7091 456.4591,-224 502.4724,-197.198 838.1254,-184.7178 1002.8155,-180.1575"/>
<polygon fill="#191970" stroke="#191970" points="1003.0301,-183.653 1012.9309,-179.8814 1002.8391,-176.6556 1003.0301,-183.653"/>
</g>
<!-- Node49&#45;&gt;Node27 -->
<g id="edge103" class="edge">
<title>Node49&#45;&gt;Node27</title>
<path fill="none" stroke="#191970" d="M1376.2415,-609.3162C1436.7574,-603.8074 1514.6016,-592.1412 1534.4591,-568 1576.6686,-516.6851 1534.4591,-484.9444 1534.4591,-418.5 1534.4591,-418.5 1534.4591,-418.5 1534.4591,-290 1534.4591,-250.3369 1420.3804,-210.1157 1355.4096,-190.4249"/>
<polygon fill="#191970" stroke="#191970" points="1356.3976,-187.0673 1345.8141,-187.5576 1354.3934,-193.7743 1356.3976,-187.0673"/>
</g>
<!-- Node49&#45;&gt;Node37 -->
<g id="edge105" class="edge">
<title>Node49&#45;&gt;Node37</title>
<path fill="none" stroke="#191970" d="M1301.9372,-604.3078C1304.8104,-588.4503 1312.5174,-556.7533 1330.4591,-537 1343.0069,-523.1852 1360.1075,-512.5689 1376.72,-504.6661"/>
<polygon fill="#191970" stroke="#191970" points="1378.1829,-507.8459 1385.8669,-500.5516 1375.3113,-501.462 1378.1829,-507.8459"/>
</g>
<!-- Node49&#45;&gt;Node43 -->
<g id="edge106" class="edge">
<title>Node49&#45;&gt;Node43</title>
<path fill="none" stroke="#191970" d="M1224.8112,-610.4703C1034.6552,-601.5011 546.6306,-577.8495 473.4591,-568 460.8157,-566.2981 447.091,-563.5684 435.0483,-560.8705"/>
<polygon fill="#191970" stroke="#191970" points="435.4998,-557.3825 424.9678,-558.5345 433.9195,-564.2018 435.4998,-557.3825"/>
</g>
<!-- Node49&#45;&gt;Node46 -->
<g id="edge104" class="edge">
<title>Node49&#45;&gt;Node46</title>
<path fill="none" stroke="#191970" d="M1297.1519,-604.3416C1289.9215,-583.2254 1272.5917,-532.6144 1263.0451,-504.7341"/>
<polygon fill="#191970" stroke="#191970" points="1266.3554,-503.5974 1259.8046,-495.2705 1259.7329,-505.8651 1266.3554,-503.5974"/>
</g>
<!-- Node51 -->
<g id="node46" class="node">
<title>Node51</title>
<g id="a_node46"><a xlink:href="MatrixDynSize_8h.html" target="_top" xlink:title="iDynTree/Core/MatrixDynSize.h">
<polygon fill="none" stroke="#000000" points="1809.9591,-476 1809.9591,-495 1976.9591,-495 1976.9591,-476 1809.9591,-476"/>
<text text-anchor="middle" x="1893.4591" y="-483" font-family="FreeSans.ttf" font-size="10.00" fill="#000000">iDynTree/Core/MatrixDynSize.h</text>
</a>
</g>
</g>
<!-- Node50&#45;&gt;Node51 -->
<g id="edge109" class="edge">
<title>Node50&#45;&gt;Node51</title>
<path fill="none" stroke="#191970" d="M1814.4621,-727.1931C1828.9757,-682.7884 1871.0775,-553.9769 1887.1352,-504.8481"/>
<polygon fill="#191970" stroke="#191970" points="1890.5284,-505.7321 1890.3084,-495.1395 1883.8748,-503.5573 1890.5284,-505.7321"/>
</g>
<!-- Node51&#45;&gt;Node5 -->
<g id="edge110" class="edge">
<title>Node51&#45;&gt;Node5</title>
<path fill="none" stroke="#191970" d="M1855.2924,-475.9606C1778.0456,-455.5332 1610.4591,-405.0459 1610.4591,-351.5 1610.4591,-351.5 1610.4591,-351.5 1610.4591,-290 1610.4591,-182.4435 1506.9603,-188.926 1401.4591,-168 1282.8504,-144.4741 905.5515,-127.8092 792.6664,-123.2529"/>
<polygon fill="#191970" stroke="#191970" points="792.7169,-119.7522 782.5851,-122.8499 792.4373,-126.7466 792.7169,-119.7522"/>
</g>
<!-- Node51&#45;&gt;Node14 -->
<g id="edge111" class="edge">
<title>Node51&#45;&gt;Node14</title>
<path fill="none" stroke="#191970" d="M1888.9222,-475.9982C1879.0421,-454.4047 1856.4591,-399.7689 1856.4591,-351.5 1856.4591,-351.5 1856.4591,-351.5 1856.4591,-234 1856.4591,-190.3876 1729.504,-152.4613 1655.1037,-133.9797"/>
<polygon fill="#191970" stroke="#191970" points="1655.5182,-130.478 1644.973,-131.5024 1653.8553,-137.2777 1655.5182,-130.478"/>
</g>
<!-- Node52&#45;&gt;Node4 -->
<g id="edge118" class="edge">
<title>Node52&#45;&gt;Node4</title>
<path fill="none" stroke="#191970" d="M1697.8624,-542.8981C1719.9156,-535.1218 1747.1087,-521.9455 1763.4591,-501 1786.6119,-471.3403 1782.4591,-456.1265 1782.4591,-418.5 1782.4591,-418.5 1782.4591,-418.5 1782.4591,-122 1782.4591,-64.9862 1726.5083,-74.1453 1672.4591,-56 1533.9591,-9.5032 1487.1131,-46.413 1338.9858,-19.7663"/>
<polygon fill="#191970" stroke="#191970" points="1339.5529,-16.3118 1329.0804,-17.9177 1338.2686,-23.193 1339.5529,-16.3118"/>
</g>
<!-- Node52&#45;&gt;Node11 -->
<g id="edge123" class="edge">
<title>Node52&#45;&gt;Node11</title>
<path fill="none" stroke="#191970" d="M1650.9515,-542.8453C1638.9144,-532.6563 1619.5661,-516.0237 1603.4591,-501 1475.9108,-382.0304 1479.3829,-306.0353 1325.4591,-224 1299.65,-210.2448 1230.7313,-197.5548 1174.6694,-189.0035"/>
<polygon fill="#191970" stroke="#191970" points="1175.1316,-185.5338 1164.7225,-187.5086 1174.0912,-192.456 1175.1316,-185.5338"/>
</g>
<!-- Node52&#45;&gt;Node12 -->
<g id="edge127" class="edge">
<title>Node52&#45;&gt;Node12</title>
<path fill="none" stroke="#191970" d="M1663.0765,-542.8404C1664.0808,-527.4279 1666.1859,-496.3258 1668.4591,-470 1675.3756,-389.8991 1686.4591,-370.399 1686.4591,-290 1686.4591,-290 1686.4591,-290 1686.4591,-234 1686.4591,-218.5002 1489.2828,-118.0385 1414.1052,-80.2986"/>
<polygon fill="#191970" stroke="#191970" points="1415.2542,-76.9596 1404.7459,-75.608 1412.1177,-83.2176 1415.2542,-76.9596"/>
</g>
<!-- Node52&#45;&gt;Node27 -->
<g id="edge121" class="edge">
<title>Node52&#45;&gt;Node27</title>
<path fill="none" stroke="#191970" d="M1654.4722,-542.7431C1632.4458,-514.8122 1572.4591,-431.4096 1572.4591,-351.5 1572.4591,-351.5 1572.4591,-351.5 1572.4591,-290 1572.4591,-258.7875 1572.1931,-244.2711 1548.4591,-224 1536.1689,-213.503 1452.6477,-198.9555 1388.1952,-189.0495"/>
<polygon fill="#191970" stroke="#191970" points="1388.4416,-185.5468 1378.0286,-187.5008 1387.3874,-192.4669 1388.4416,-185.5468"/>
</g>
<!-- Node52&#45;&gt;Node29 -->
<g id="edge124" class="edge">
<title>Node52&#45;&gt;Node29</title>
<path fill="none" stroke="#191970" d="M1586.3484,-542.985C1569.2837,-540.9348 1551.2596,-538.8343 1534.4591,-537 1373.422,-519.4179 1329.83,-523.3426 1165.1843,-501.0303"/>
<polygon fill="#191970" stroke="#191970" points="1165.5808,-497.552 1155.1989,-499.6653 1164.6327,-504.4875 1165.5808,-497.552"/>
</g>
<!-- Node52&#45;&gt;Node37 -->
<g id="edge125" class="edge">
<title>Node52&#45;&gt;Node37</title>
<path fill="none" stroke="#191970" d="M1629.5057,-542.9005C1594.169,-532.6068 1537.2669,-516.031 1493.6738,-503.3321"/>
<polygon fill="#191970" stroke="#191970" points="1494.6062,-499.9583 1484.0263,-500.5218 1492.6484,-506.679 1494.6062,-499.9583"/>
</g>
<!-- Node52&#45;&gt;Node40 -->
<g id="edge126" class="edge">
<title>Node52&#45;&gt;Node40</title>
<path fill="none" stroke="#191970" d="M1590.4454,-542.9927C1572.203,-540.8009 1552.629,-538.6357 1534.4591,-537 1383.0749,-523.3717 933.7842,-499.4622 746.6843,-489.7657"/>
<polygon fill="#191970" stroke="#191970" points="746.7944,-486.2668 736.6268,-489.2451 746.4325,-493.2575 746.7944,-486.2668"/>
</g>
<!-- Node52&#45;&gt;Node46 -->
<g id="edge120" class="edge">
<title>Node52&#45;&gt;Node46</title>
<path fill="none" stroke="#191970" d="M1604.4771,-542.9967C1541.6419,-532.6894 1438.4261,-515.7331 1349.4591,-501 1341.1022,-499.6161 1332.3236,-498.1583 1323.6353,-496.713"/>
<polygon fill="#191970" stroke="#191970" points="1323.9472,-493.2169 1313.5082,-495.0274 1322.7978,-500.1219 1323.9472,-493.2169"/>
</g>
<!-- Node52&#45;&gt;Node51 -->
<g id="edge122" class="edge">
<title>Node52&#45;&gt;Node51</title>
<path fill="none" stroke="#191970" d="M1695.5558,-542.9005C1736.3812,-531.0594 1805.8672,-510.9054 1850.6982,-497.9025"/>
<polygon fill="#191970" stroke="#191970" points="1851.7946,-501.2288 1860.4238,-495.0817 1849.8446,-494.5059 1851.7946,-501.2288"/>
</g>
<!-- Node53 -->
<g id="node48" class="node">
<title>Node53</title>
<polygon fill="none" stroke="#bfbfbf" points="1676.9591,-476 1676.9591,-495 1753.9591,-495 1753.9591,-476 1676.9591,-476"/>
<text text-anchor="middle" x="1715.4591" y="-483" font-family="FreeSans.ttf" font-size="10.00" fill="#000000">Eigen/Dense</text>
</g>
<!-- Node52&#45;&gt;Node53 -->
<g id="edge119" class="edge">
<title>Node52&#45;&gt;Node53</title>
<path fill="none" stroke="#191970" d="M1670.0527,-542.9005C1678.2389,-532.552 1691.4476,-515.8542 1701.5134,-503.1295"/>
<polygon fill="#191970" stroke="#191970" points="1704.4205,-505.0959 1707.8796,-495.0817 1698.9305,-500.7531 1704.4205,-505.0959"/>
</g>
<!-- Node54&#45;&gt;Node3 -->
<g id="edge130" class="edge">
<title>Node54&#45;&gt;Node3</title>
<path fill="none" stroke="#191970" d="M1051.2862,-665.9718C1034.0337,-663.8185 1015.5957,-661.6762 998.4591,-660 769.6602,-637.62 707.0449,-673.1018 482.4591,-624 457.8632,-618.6225 453.3421,-611.9674 429.4591,-604 385.1982,-589.2346 333.9436,-574.5839 298.0165,-564.7061"/>
<polygon fill="#191970" stroke="#191970" points="298.8773,-561.3131 288.3082,-562.0505 297.0303,-568.065 298.8773,-561.3131"/>
</g>
<!-- Node54&#45;&gt;Node47 -->
<g id="edge131" class="edge">
<title>Node54&#45;&gt;Node47</title>
<path fill="none" stroke="#191970" d="M1072.7411,-665.9581C1016.9688,-655.0345 925.6516,-637.1492 866.0463,-625.4749"/>
<polygon fill="#191970" stroke="#191970" points="866.5193,-622.0011 856.033,-623.5137 865.1738,-628.8706 866.5193,-622.0011"/>
</g>
<!-- Node54&#45;&gt;Node49 -->
<g id="edge132" class="edge">
<title>Node54&#45;&gt;Node49</title>
<path fill="none" stroke="#191970" d="M1149.4278,-665.8906C1180.0346,-655.3749 1229.249,-638.466 1263.1331,-626.8243"/>
<polygon fill="#191970" stroke="#191970" points="1264.3666,-630.1014 1272.6867,-623.5419 1262.0921,-623.4812 1264.3666,-630.1014"/>
</g>
<!-- Node54&#45;&gt;Node51 -->
<g id="edge129" class="edge">
<title>Node54&#45;&gt;Node51</title>
<path fill="none" stroke="#191970" d="M1197.526,-671.3688C1318.4036,-662.8731 1560.317,-637.935 1752.4591,-568 1798.1927,-551.3541 1845.9693,-519.9548 1872.5005,-501.0606"/>
<polygon fill="#191970" stroke="#191970" points="1874.5946,-503.8656 1880.65,-495.1717 1870.4947,-498.1918 1874.5946,-503.8656"/>
</g>
</g>
</svg>
