<?xml version="1.0" encoding="UTF-8" standalone="no"?>
<!DOCTYPE svg PUBLIC "-//W3C//DTD SVG 1.1//EN"
 "http://www.w3.org/Graphics/SVG/1.1/DTD/svg11.dtd">
<!-- Generated by graphviz version 2.40.1 (20161225.0304)
 -->
<!-- Title: DynamicsLinearization.cpp Pages: 1 -->
<svg width="2038pt" height="811pt"
 viewBox="0.00 0.00 2038.00 811.00" xmlns="http://www.w3.org/2000/svg" xmlns:xlink="http://www.w3.org/1999/xlink">
<g id="graph0" class="graph" transform="scale(1 1) rotate(0) translate(4 807)">
<title>DynamicsLinearization.cpp</title>
<!-- Node0 -->
<g id="node1" class="node">
<title>Node0</title>
<polygon fill="#bfbfbf" stroke="#000000" points="769,-783.5 769,-802.5 918,-802.5 918,-783.5 769,-783.5"/>
<text text-anchor="middle" x="843.5" y="-790.5" font-family="FreeSans.ttf" font-size="10.00" fill="#000000">DynamicsLinearization.cpp</text>
</g>
<!-- Node1 -->
<g id="node2" class="node">
<title>Node1</title>
<g id="a_node2"><a xlink:href="DynamicsLinearization_8h.html" target="_top" xlink:title="iDynTree/Model/DynamicsLinearization.h">
<polygon fill="none" stroke="#000000" points="217,-727.5 217,-746.5 432,-746.5 432,-727.5 217,-727.5"/>
<text text-anchor="middle" x="324.5" y="-734.5" font-family="FreeSans.ttf" font-size="10.00" fill="#000000">iDynTree/Model/DynamicsLinearization.h</text>
</a>
</g>
</g>
<!-- Node0&#45;&gt;Node1 -->
<g id="edge1" class="edge">
<title>Node0&#45;&gt;Node1</title>
<path fill="none" stroke="#191970" d="M768.8638,-784.9468C677.8795,-775.1296 523.833,-758.508 423.1421,-747.6435"/>
<polygon fill="#191970" stroke="#191970" points="423.2792,-744.138 412.9614,-746.545 422.5282,-751.0976 423.2792,-744.138"/>
</g>
<!-- Node43 -->
<g id="node37" class="node">
<title>Node43</title>
<g id="a_node37"><a xlink:href="Model_8h.html" target="_top" xlink:title="iDynTree/Model/Model.h">
<polygon fill="none" stroke="#000000" points="1656,-666 1656,-685 1789,-685 1789,-666 1656,-666"/>
<text text-anchor="middle" x="1722.5" y="-673" font-family="FreeSans.ttf" font-size="10.00" fill="#000000">iDynTree/Model/Model.h</text>
</a>
</g>
</g>
<!-- Node0&#45;&gt;Node43 -->
<g id="edge83" class="edge">
<title>Node0&#45;&gt;Node43</title>
<path fill="none" stroke="#191970" d="M869.6728,-783.3791C893.9003,-774.3563 930.8483,-760.2981 962.5,-747 982.3041,-738.6796 985.6827,-732.2981 1006.5,-727 1125.6419,-696.6776 1486.4068,-682.5047 1645.6049,-677.599"/>
<polygon fill="#191970" stroke="#191970" points="1645.9058,-681.0915 1655.7948,-677.2892 1645.6931,-674.0948 1645.9058,-681.0915"/>
</g>
<!-- Node52 -->
<g id="node45" class="node">
<title>Node52</title>
<g id="a_node45"><a xlink:href="Traversal_8h.html" target="_top" xlink:title="iDynTree/Model/Traversal.h">
<polygon fill="none" stroke="#000000" points="1526.5,-537.5 1526.5,-556.5 1674.5,-556.5 1674.5,-537.5 1526.5,-537.5"/>
<text text-anchor="middle" x="1600.5" y="-544.5" font-family="FreeSans.ttf" font-size="10.00" fill="#000000">iDynTree/Model/Traversal.h</text>
</a>
</g>
</g>
<!-- Node0&#45;&gt;Node52 -->
<g id="edge106" class="edge">
<title>Node0&#45;&gt;Node52</title>
<path fill="none" stroke="#191970" d="M858.864,-783.4091C881.1421,-769.7519 923.9704,-744.428 962.5,-727 1123.758,-654.0584 1166.378,-638.1876 1337.5,-593 1396.4269,-577.4394 1464.2012,-565.7284 1516.1899,-558.0174"/>
<polygon fill="#191970" stroke="#191970" points="1516.9817,-561.4389 1526.3699,-556.5285 1515.9686,-554.5126 1516.9817,-561.4389"/>
</g>
<!-- Node53 -->
<g id="node46" class="node">
<title>Node53</title>
<g id="a_node46"><a xlink:href="FreeFloatingState_8h.html" target="_top" xlink:title="iDynTree/Model/FreeFloating\lState.h">
<polygon fill="none" stroke="#000000" points="766.5,-593.5 766.5,-623.5 920.5,-623.5 920.5,-593.5 766.5,-593.5"/>
<text text-anchor="start" x="774.5" y="-611.5" font-family="FreeSans.ttf" font-size="10.00" fill="#000000">iDynTree/Model/FreeFloating</text>
<text text-anchor="middle" x="843.5" y="-600.5" font-family="FreeSans.ttf" font-size="10.00" fill="#000000">State.h</text>
</a>
</g>
</g>
<!-- Node0&#45;&gt;Node53 -->
<g id="edge109" class="edge">
<title>Node0&#45;&gt;Node53</title>
<path fill="none" stroke="#191970" d="M843.5,-783.3402C843.5,-755.6387 843.5,-675.2663 843.5,-633.8429"/>
<polygon fill="#191970" stroke="#191970" points="847.0001,-633.7363 843.5,-623.7363 840.0001,-633.7364 847.0001,-633.7363"/>
</g>
<!-- Node54 -->
<g id="node47" class="node">
<title>Node54</title>
<g id="a_node47"><a xlink:href="EigenHelpers_8h.html" target="_top" xlink:title="iDynTree/Core/EigenHelpers.h">
<polygon fill="none" stroke="#000000" points="333,-476 333,-495 494,-495 494,-476 333,-476"/>
<text text-anchor="middle" x="413.5" y="-483" font-family="FreeSans.ttf" font-size="10.00" fill="#000000">iDynTree/Core/EigenHelpers.h</text>
</a>
</g>
</g>
<!-- Node0&#45;&gt;Node54 -->
<g id="edge117" class="edge">
<title>Node0&#45;&gt;Node54</title>
<path fill="none" stroke="#191970" d="M786.1009,-783.4438C701.8129,-766.4193 544.9979,-722.8797 456.5,-624 426.1124,-590.0475 417.1993,-534.8825 414.5851,-505.4651"/>
<polygon fill="#191970" stroke="#191970" points="418.0563,-504.9415 413.8414,-495.2211 411.0747,-505.4483 418.0563,-504.9415"/>
</g>
<!-- Node56 -->
<g id="node49" class="node">
<title>Node56</title>
<g id="a_node49"><a xlink:href="TransformDerivative_8h.html" target="_top" xlink:title="iDynTree/Core/TransformDerivative.h">
<polygon fill="none" stroke="#000000" points="233,-230 233,-249 430,-249 430,-230 233,-230"/>
<text text-anchor="middle" x="331.5" y="-237" font-family="FreeSans.ttf" font-size="10.00" fill="#000000">iDynTree/Core/TransformDerivative.h</text>
</a>
</g>
</g>
<!-- Node0&#45;&gt;Node56 -->
<g id="edge128" class="edge">
<title>Node0&#45;&gt;Node56</title>
<path fill="none" stroke="#191970" d="M768.8249,-790.8246C624.407,-786.0868 311.8768,-773.1042 207.5,-747 131.5449,-728.004 46.5,-753.7945 46.5,-675.5 46.5,-675.5 46.5,-675.5 46.5,-418.5 46.5,-316.3134 179.5142,-270.2055 263.8009,-251.2463"/>
<polygon fill="#191970" stroke="#191970" points="264.7978,-254.6114 273.826,-249.0668 263.3107,-247.7711 264.7978,-254.6114"/>
</g>
<!-- Node57 -->
<g id="node50" class="node">
<title>Node57</title>
<polygon fill="none" stroke="#bfbfbf" points="1015,-727.5 1015,-746.5 1084,-746.5 1084,-727.5 1015,-727.5"/>
<text text-anchor="middle" x="1049.5" y="-734.5" font-family="FreeSans.ttf" font-size="10.00" fill="#000000">Eigen/Core</text>
</g>
<!-- Node0&#45;&gt;Node57 -->
<g id="edge131" class="edge">
<title>Node0&#45;&gt;Node57</title>
<path fill="none" stroke="#191970" d="M878.9127,-783.3733C913.8661,-773.8714 967.4116,-759.3153 1005.172,-749.0503"/>
<polygon fill="#191970" stroke="#191970" points="1006.1607,-752.4087 1014.8923,-746.4079 1004.3243,-745.6538 1006.1607,-752.4087"/>
</g>
<!-- Node2 -->
<g id="node3" class="node">
<title>Node2</title>
<g id="a_node3"><a xlink:href="MatrixFixSize_8h.html" target="_top" xlink:title="iDynTree/Core/MatrixFixSize.h">
<polygon fill="none" stroke="#000000" points="251,-168.5 251,-187.5 412,-187.5 412,-168.5 251,-168.5"/>
<text text-anchor="middle" x="331.5" y="-175.5" font-family="FreeSans.ttf" font-size="10.00" fill="#000000">iDynTree/Core/MatrixFixSize.h</text>
</a>
</g>
</g>
<!-- Node1&#45;&gt;Node2 -->
<g id="edge2" class="edge">
<title>Node1&#45;&gt;Node2</title>
<path fill="none" stroke="#191970" d="M244.2498,-727.4393C174.4801,-714.1216 84.5,-682.585 84.5,-608.5 84.5,-608.5 84.5,-608.5 84.5,-418.5 84.5,-320.6826 112.4643,-286.7526 187.5,-224 207.1407,-207.5744 232.7246,-196.9875 256.8695,-190.1747"/>
<polygon fill="#191970" stroke="#191970" points="257.972,-193.5036 266.7482,-187.5682 256.1861,-186.7353 257.972,-193.5036"/>
</g>
<!-- Node20 -->
<g id="node15" class="node">
<title>Node20</title>
<g id="a_node15"><a xlink:href="MatrixDynSize_8h.html" target="_top" xlink:title="iDynTree/Core/MatrixDynSize.h">
<polygon fill="none" stroke="#000000" points="188,-409 188,-428 355,-428 355,-409 188,-409"/>
<text text-anchor="middle" x="271.5" y="-416" font-family="FreeSans.ttf" font-size="10.00" fill="#000000">iDynTree/Core/MatrixDynSize.h</text>
</a>
</g>
</g>
<!-- Node1&#45;&gt;Node20 -->
<g id="edge19" class="edge">
<title>Node1&#45;&gt;Node20</title>
<path fill="none" stroke="#191970" d="M278.6148,-727.4492C257.1242,-720.7108 232.9195,-709.4723 217.5,-691 193.3882,-662.1145 198.5,-646.1265 198.5,-608.5 198.5,-608.5 198.5,-608.5 198.5,-547 198.5,-502.015 232.741,-458.3747 254.3213,-435.3377"/>
<polygon fill="#191970" stroke="#191970" points="256.9073,-437.6985 261.3497,-428.08 251.8787,-432.8289 256.9073,-437.6985"/>
</g>
<!-- Node21 -->
<g id="node16" class="node">
<title>Node21</title>
<g id="a_node16"><a xlink:href="Dynamics_8h.html" target="_top" xlink:title="iDynTree/Model/Dynamics.h">
<polygon fill="none" stroke="#000000" points="465.5,-599 465.5,-618 617.5,-618 617.5,-599 465.5,-599"/>
<text text-anchor="middle" x="541.5" y="-606" font-family="FreeSans.ttf" font-size="10.00" fill="#000000">iDynTree/Model/Dynamics.h</text>
</a>
</g>
</g>
<!-- Node1&#45;&gt;Node21 -->
<g id="edge22" class="edge">
<title>Node1&#45;&gt;Node21</title>
<path fill="none" stroke="#191970" d="M356.5371,-727.4478C380.7832,-719.5094 414.4174,-706.9482 441.5,-691 473.5727,-672.1132 505.9388,-643.1998 524.835,-625.0958"/>
<polygon fill="#191970" stroke="#191970" points="527.3408,-627.5411 532.0685,-618.0595 522.4599,-622.5234 527.3408,-627.5411"/>
</g>
<!-- Node42 -->
<g id="node36" class="node">
<title>Node42</title>
<g id="a_node36"><a xlink:href="DynamicsLinearizationHelpers_8h.html" target="_top" xlink:title="iDynTree/Model/DynamicsLinearization\lHelpers.h">
<polygon fill="none" stroke="#000000" points="226.5,-660.5 226.5,-690.5 432.5,-690.5 432.5,-660.5 226.5,-660.5"/>
<text text-anchor="start" x="234.5" y="-678.5" font-family="FreeSans.ttf" font-size="10.00" fill="#000000">iDynTree/Model/DynamicsLinearization</text>
<text text-anchor="middle" x="329.5" y="-667.5" font-family="FreeSans.ttf" font-size="10.00" fill="#000000">Helpers.h</text>
</a>
</g>
</g>
<!-- Node1&#45;&gt;Node42 -->
<g id="edge80" class="edge">
<title>Node1&#45;&gt;Node42</title>
<path fill="none" stroke="#191970" d="M325.2813,-727.3906C325.864,-720.2234 326.6881,-710.0862 327.4536,-700.671"/>
<polygon fill="#191970" stroke="#191970" points="330.9549,-700.7954 328.2769,-690.5446 323.9779,-700.2281 330.9549,-700.7954"/>
</g>
<!-- Node3 -->
<g id="node4" class="node">
<title>Node3</title>
<g id="a_node4"><a xlink:href="Utils_8h.html" target="_top" xlink:title="iDynTree/Core/Utils.h">
<polygon fill="none" stroke="#000000" points="427,-56.5 427,-75.5 546,-75.5 546,-56.5 427,-56.5"/>
<text text-anchor="middle" x="486.5" y="-63.5" font-family="FreeSans.ttf" font-size="10.00" fill="#000000">iDynTree/Core/Utils.h</text>
</a>
</g>
</g>
<!-- Node2&#45;&gt;Node3 -->
<g id="edge3" class="edge">
<title>Node2&#45;&gt;Node3</title>
<path fill="none" stroke="#191970" d="M338.3217,-168.416C348.5815,-154.539 369.1751,-128.6899 391.5,-112 409.4974,-98.5453 432.0504,-87.4258 450.6653,-79.4915"/>
<polygon fill="#191970" stroke="#191970" points="452.0896,-82.6901 459.9957,-75.6373 449.417,-76.2204 452.0896,-82.6901"/>
</g>
<!-- Node6 -->
<g id="node7" class="node">
<title>Node6</title>
<g id="a_node7"><a xlink:href="MatrixView_8h.html" target="_top" xlink:title="iDynTree/Core/MatrixView.h">
<polygon fill="none" stroke="#000000" points="0,-112.5 0,-131.5 151,-131.5 151,-112.5 0,-112.5"/>
<text text-anchor="middle" x="75.5" y="-119.5" font-family="FreeSans.ttf" font-size="10.00" fill="#000000">iDynTree/Core/MatrixView.h</text>
</a>
</g>
</g>
<!-- Node2&#45;&gt;Node6 -->
<g id="edge6" class="edge">
<title>Node2&#45;&gt;Node6</title>
<path fill="none" stroke="#191970" d="M287.7829,-168.4369C243.8784,-158.8328 176.1587,-144.0191 129.055,-133.7152"/>
<polygon fill="#191970" stroke="#191970" points="129.5537,-130.2416 119.0368,-131.5237 128.0578,-137.0799 129.5537,-130.2416"/>
</g>
<!-- Node7 -->
<g id="node8" class="node">
<title>Node7</title>
<polygon fill="none" stroke="#bfbfbf" points="220.5,-.5 220.5,-19.5 272.5,-19.5 272.5,-.5 220.5,-.5"/>
<text text-anchor="middle" x="246.5" y="-7.5" font-family="FreeSans.ttf" font-size="10.00" fill="#000000">cassert</text>
</g>
<!-- Node2&#45;&gt;Node7 -->
<g id="edge14" class="edge">
<title>Node2&#45;&gt;Node7</title>
<path fill="none" stroke="#191970" d="M326.9631,-168.4426C317.1233,-147.7896 292.9752,-97.5086 271.5,-56 266.8169,-46.9483 261.4403,-37.0013 256.876,-28.6797"/>
<polygon fill="#191970" stroke="#191970" points="259.8768,-26.8734 251.9813,-19.8086 253.7478,-30.2551 259.8768,-26.8734"/>
</g>
<!-- Node16 -->
<g id="node11" class="node">
<title>Node16</title>
<polygon fill="none" stroke="#bfbfbf" points="341.5,-56.5 341.5,-75.5 391.5,-75.5 391.5,-56.5 341.5,-56.5"/>
<text text-anchor="middle" x="366.5" y="-63.5" font-family="FreeSans.ttf" font-size="10.00" fill="#000000">cstring</text>
</g>
<!-- Node2&#45;&gt;Node16 -->
<g id="edge15" class="edge">
<title>Node2&#45;&gt;Node16</title>
<path fill="none" stroke="#191970" d="M334.4841,-168.4509C340.2183,-150.1013 352.8779,-109.5908 360.4471,-85.3693"/>
<polygon fill="#191970" stroke="#191970" points="363.8813,-86.1137 363.5235,-75.5249 357.2,-84.0257 363.8813,-86.1137"/>
</g>
<!-- Node17 -->
<g id="node12" class="node">
<title>Node17</title>
<polygon fill="none" stroke="#bfbfbf" points="1398.5,-56.5 1398.5,-75.5 1442.5,-75.5 1442.5,-56.5 1398.5,-56.5"/>
<text text-anchor="middle" x="1420.5" y="-63.5" font-family="FreeSans.ttf" font-size="10.00" fill="#000000">string</text>
</g>
<!-- Node2&#45;&gt;Node17 -->
<g id="edge16" class="edge">
<title>Node2&#45;&gt;Node17</title>
<path fill="none" stroke="#191970" d="M350.1395,-168.404C380.6379,-153.2413 443.5221,-124.2122 500.5,-112 675.1885,-74.5585 1245.7409,-67.4332 1388.0956,-66.2261"/>
<polygon fill="#191970" stroke="#191970" points="1388.3637,-69.7242 1398.335,-66.1434 1388.3071,-62.7244 1388.3637,-69.7242"/>
</g>
<!-- Node18 -->
<g id="node13" class="node">
<title>Node18</title>
<polygon fill="none" stroke="#bfbfbf" points="509.5,-112.5 509.5,-131.5 569.5,-131.5 569.5,-112.5 509.5,-112.5"/>
<text text-anchor="middle" x="539.5" y="-119.5" font-family="FreeSans.ttf" font-size="10.00" fill="#000000">iostream</text>
</g>
<!-- Node2&#45;&gt;Node18 -->
<g id="edge17" class="edge">
<title>Node2&#45;&gt;Node18</title>
<path fill="none" stroke="#191970" d="M367.2565,-168.3733C404.042,-158.4695 461.2217,-143.0749 499.4913,-132.7716"/>
<polygon fill="#191970" stroke="#191970" points="500.5236,-136.1184 509.2698,-130.1389 498.7037,-129.3591 500.5236,-136.1184"/>
</g>
<!-- Node19 -->
<g id="node14" class="node">
<title>Node19</title>
<polygon fill="none" stroke="#bfbfbf" points="634.5,-56.5 634.5,-75.5 690.5,-75.5 690.5,-56.5 634.5,-56.5"/>
<text text-anchor="middle" x="662.5" y="-63.5" font-family="FreeSans.ttf" font-size="10.00" fill="#000000">sstream</text>
</g>
<!-- Node2&#45;&gt;Node19 -->
<g id="edge18" class="edge">
<title>Node2&#45;&gt;Node19</title>
<path fill="none" stroke="#191970" d="M342.4055,-168.4742C359.6522,-153.9407 394.8353,-126.4036 429.5,-112 494.6338,-84.936 576.7576,-73.5017 624.0827,-68.8934"/>
<polygon fill="#191970" stroke="#191970" points="624.5641,-72.3639 634.2008,-67.9611 623.9218,-65.3935 624.5641,-72.3639"/>
</g>
<!-- Node4 -->
<g id="node5" class="node">
<title>Node4</title>
<polygon fill="none" stroke="#bfbfbf" points="692,-.5 692,-19.5 745,-19.5 745,-.5 692,-.5"/>
<text text-anchor="middle" x="718.5" y="-7.5" font-family="FreeSans.ttf" font-size="10.00" fill="#000000">cstddef</text>
</g>
<!-- Node3&#45;&gt;Node4 -->
<g id="edge4" class="edge">
<title>Node3&#45;&gt;Node4</title>
<path fill="none" stroke="#191970" d="M526.1186,-56.4369C569.758,-45.9032 639.3598,-29.1028 681.7989,-18.8589"/>
<polygon fill="#191970" stroke="#191970" points="682.8132,-22.2147 691.7128,-16.4659 681.1707,-15.4101 682.8132,-22.2147"/>
</g>
<!-- Node5 -->
<g id="node6" class="node">
<title>Node5</title>
<polygon fill="none" stroke="#bfbfbf" points="446.5,-.5 446.5,-19.5 526.5,-19.5 526.5,-.5 446.5,-.5"/>
<text text-anchor="middle" x="486.5" y="-7.5" font-family="FreeSans.ttf" font-size="10.00" fill="#000000">CoreExport.h</text>
</g>
<!-- Node3&#45;&gt;Node5 -->
<g id="edge5" class="edge">
<title>Node3&#45;&gt;Node5</title>
<path fill="none" stroke="#191970" d="M486.5,-56.2455C486.5,-48.9382 486.5,-38.6944 486.5,-29.7046"/>
<polygon fill="#191970" stroke="#191970" points="490.0001,-29.6426 486.5,-19.6427 483.0001,-29.6427 490.0001,-29.6426"/>
</g>
<!-- Node6&#45;&gt;Node3 -->
<g id="edge13" class="edge">
<title>Node6&#45;&gt;Node3</title>
<path fill="none" stroke="#191970" d="M145.6864,-112.4369C221.341,-102.1287 341.0415,-85.8192 416.589,-75.5256"/>
<polygon fill="#191970" stroke="#191970" points="417.5109,-78.9324 426.9468,-74.1143 416.5658,-71.9965 417.5109,-78.9324"/>
</g>
<!-- Node6&#45;&gt;Node7 -->
<g id="edge7" class="edge">
<title>Node6&#45;&gt;Node7</title>
<path fill="none" stroke="#191970" d="M81.7279,-112.1955C91.16,-98.044 110.3357,-71.8562 132.5,-56 156.1933,-39.0499 187.0308,-27.0975 210.6577,-19.6321"/>
<polygon fill="#191970" stroke="#191970" points="211.7475,-22.9591 220.3002,-16.7059 209.7147,-16.2607 211.7475,-22.9591"/>
</g>
<!-- Node8 -->
<g id="node9" class="node">
<title>Node8</title>
<polygon fill="none" stroke="#bfbfbf" points="109,-.5 109,-19.5 178,-19.5 178,-.5 109,-.5"/>
<text text-anchor="middle" x="143.5" y="-7.5" font-family="FreeSans.ttf" font-size="10.00" fill="#000000">type_traits</text>
</g>
<!-- Node6&#45;&gt;Node8 -->
<g id="edge8" class="edge">
<title>Node6&#45;&gt;Node8</title>
<path fill="none" stroke="#191970" d="M77.6364,-112.4863C80.9172,-99.1414 88.046,-74.4338 99.5,-56 106.2876,-45.0761 115.9968,-34.578 124.5686,-26.376"/>
<polygon fill="#191970" stroke="#191970" points="127.0095,-28.8863 132.0044,-19.5428 122.273,-23.7321 127.0095,-28.8863"/>
</g>
<!-- Node9 -->
<g id="node10" class="node">
<title>Node9</title>
<g id="a_node10"><a xlink:href="Span_8h.html" target="_top" xlink:title="iDynTree/Core/Span.h">
<polygon fill="none" stroke="#ff0000" points="142,-56.5 142,-75.5 263,-75.5 263,-56.5 142,-56.5"/>
<text text-anchor="middle" x="202.5" y="-63.5" font-family="FreeSans.ttf" font-size="10.00" fill="#000000">iDynTree/Core/Span.h</text>
</a>
</g>
</g>
<!-- Node6&#45;&gt;Node9 -->
<g id="edge9" class="edge">
<title>Node6&#45;&gt;Node9</title>
<path fill="none" stroke="#191970" d="M97.3321,-112.3733C117.8103,-103.3435 148.6399,-89.7494 171.6319,-79.6111"/>
<polygon fill="#191970" stroke="#191970" points="173.215,-82.7383 180.9528,-75.5011 170.3907,-76.3333 173.215,-82.7383"/>
</g>
<!-- Node9&#45;&gt;Node4 -->
<g id="edge11" class="edge">
<title>Node9&#45;&gt;Node4</title>
<path fill="none" stroke="#191970" d="M263.2091,-59.4114C371.3693,-47.6731 594.277,-23.4816 681.9418,-13.9676"/>
<polygon fill="#191970" stroke="#191970" points="682.3814,-17.4405 691.9454,-12.8819 681.6261,-10.4814 682.3814,-17.4405"/>
</g>
<!-- Node9&#45;&gt;Node7 -->
<g id="edge10" class="edge">
<title>Node9&#45;&gt;Node7</title>
<path fill="none" stroke="#191970" d="M210.1642,-56.2455C216.3473,-48.3761 225.2063,-37.101 232.6289,-27.6542"/>
<polygon fill="#191970" stroke="#191970" points="235.4975,-29.6683 238.9236,-19.6427 229.9932,-25.3435 235.4975,-29.6683"/>
</g>
<!-- Node9&#45;&gt;Node8 -->
<g id="edge12" class="edge">
<title>Node9&#45;&gt;Node8</title>
<path fill="none" stroke="#191970" d="M192.223,-56.2455C183.6782,-48.1352 171.3222,-36.4075 161.1915,-26.7919"/>
<polygon fill="#191970" stroke="#191970" points="163.3218,-23.9884 153.6592,-19.6427 158.5028,-29.0655 163.3218,-23.9884"/>
</g>
<!-- Node20&#45;&gt;Node6 -->
<g id="edge21" class="edge">
<title>Node20&#45;&gt;Node6</title>
<path fill="none" stroke="#191970" d="M229.9756,-408.9174C183.2871,-395.6813 109.6747,-366.8327 76.5,-311 44.2974,-256.8034 59.8669,-177.5036 69.6413,-141.3053"/>
<polygon fill="#191970" stroke="#191970" points="73.0521,-142.1071 72.4293,-131.5306 66.3206,-140.187 73.0521,-142.1071"/>
</g>
<!-- Node20&#45;&gt;Node17 -->
<g id="edge20" class="edge">
<title>Node20&#45;&gt;Node17</title>
<path fill="none" stroke="#191970" d="M355.0654,-411.7907C392.7629,-408.8805 437.8575,-405.5604 478.5,-403 587.7605,-396.1167 1458.5,-410.4771 1458.5,-301 1458.5,-301 1458.5,-301 1458.5,-178 1458.5,-143.6118 1442.2366,-106.2832 1430.989,-84.5791"/>
<polygon fill="#191970" stroke="#191970" points="1433.931,-82.6605 1426.107,-75.5166 1427.7683,-85.9804 1433.931,-82.6605"/>
</g>
<!-- Node21&#45;&gt;Node20 -->
<g id="edge23" class="edge">
<title>Node21&#45;&gt;Node20</title>
<path fill="none" stroke="#191970" d="M510.0153,-598.9187C464.8005,-583.9249 380.7433,-551.3189 324.5,-501 304.3613,-482.9826 288.8204,-455.5911 279.9179,-437.3769"/>
<polygon fill="#191970" stroke="#191970" points="282.9766,-435.6558 275.5633,-428.0866 276.6384,-438.6267 282.9766,-435.6558"/>
</g>
<!-- Node22 -->
<g id="node17" class="node">
<title>Node22</title>
<g id="a_node17"><a xlink:href="Indices_8h.html" target="_top" xlink:title="iDynTree/Model/Indices.h">
<polygon fill="none" stroke="#000000" points="1716.5,-476 1716.5,-495 1854.5,-495 1854.5,-476 1716.5,-476"/>
<text text-anchor="middle" x="1785.5" y="-483" font-family="FreeSans.ttf" font-size="10.00" fill="#000000">iDynTree/Model/Indices.h</text>
</a>
</g>
</g>
<!-- Node21&#45;&gt;Node22 -->
<g id="edge24" class="edge">
<title>Node21&#45;&gt;Node22</title>
<path fill="none" stroke="#191970" d="M617.7114,-602.8692C659.0649,-599.8547 711.0797,-596.1288 757.5,-593 1011.206,-575.8997 1077.0114,-594.5854 1328.5,-557 1366.4554,-551.3275 1374.7812,-544.0771 1412.5,-537 1426.7768,-534.3213 1601.0819,-510.5301 1706.2848,-496.239"/>
<polygon fill="#191970" stroke="#191970" points="1706.8044,-499.7006 1716.2424,-494.8866 1705.8623,-492.7643 1706.8044,-499.7006"/>
</g>
<!-- Node24 -->
<g id="node19" class="node">
<title>Node24</title>
<g id="a_node19"><a xlink:href="LinkState_8h.html" target="_top" xlink:title="iDynTree/Model/LinkState.h">
<polygon fill="none" stroke="#000000" points="1170,-537.5 1170,-556.5 1319,-556.5 1319,-537.5 1170,-537.5"/>
<text text-anchor="middle" x="1244.5" y="-544.5" font-family="FreeSans.ttf" font-size="10.00" fill="#000000">iDynTree/Model/LinkState.h</text>
</a>
</g>
</g>
<!-- Node21&#45;&gt;Node24 -->
<g id="edge28" class="edge">
<title>Node21&#45;&gt;Node24</title>
<path fill="none" stroke="#191970" d="M617.816,-603.0264C732.8073,-594.5843 957.6112,-577.325 1159.648,-557.0542"/>
<polygon fill="#191970" stroke="#191970" points="1160.2615,-560.5102 1169.8601,-556.025 1159.5596,-553.5454 1160.2615,-560.5102"/>
</g>
<!-- Node40 -->
<g id="node34" class="node">
<title>Node40</title>
<g id="a_node34"><a xlink:href="JointState_8h.html" target="_top" xlink:title="iDynTree/Model/JointState.h">
<polygon fill="none" stroke="#000000" points="466,-537.5 466,-556.5 617,-556.5 617,-537.5 466,-537.5"/>
<text text-anchor="middle" x="541.5" y="-544.5" font-family="FreeSans.ttf" font-size="10.00" fill="#000000">iDynTree/Model/JointState.h</text>
</a>
</g>
</g>
<!-- Node21&#45;&gt;Node40 -->
<g id="edge73" class="edge">
<title>Node21&#45;&gt;Node40</title>
<path fill="none" stroke="#191970" d="M541.5,-598.8906C541.5,-590.3657 541.5,-577.6392 541.5,-566.9235"/>
<polygon fill="#191970" stroke="#191970" points="545.0001,-566.7448 541.5,-556.7449 538.0001,-566.7449 545.0001,-566.7448"/>
</g>
<!-- Node22&#45;&gt;Node4 -->
<g id="edge25" class="edge">
<title>Node22&#45;&gt;Node4</title>
<path fill="none" stroke="#191970" d="M1800.2322,-475.785C1827.3677,-456.5879 1882.5,-410.9464 1882.5,-357 1882.5,-357 1882.5,-357 1882.5,-122 1882.5,-63.9708 953.7838,-20.2478 755.4723,-11.573"/>
<polygon fill="#191970" stroke="#191970" points="755.4209,-8.0676 745.2783,-11.1299 755.1169,-15.061 755.4209,-8.0676"/>
</g>
<!-- Node22&#45;&gt;Node17 -->
<g id="edge26" class="edge">
<title>Node22&#45;&gt;Node17</title>
<path fill="none" stroke="#191970" d="M1769.25,-475.7539C1740,-456.8333 1681.5,-412.1042 1681.5,-357 1681.5,-357 1681.5,-357 1681.5,-178 1681.5,-128.7543 1522.6025,-88.1714 1452.7696,-72.7138"/>
<polygon fill="#191970" stroke="#191970" points="1453.2683,-69.2405 1442.7527,-70.5341 1451.7798,-76.0804 1453.2683,-69.2405"/>
</g>
<!-- Node23 -->
<g id="node18" class="node">
<title>Node23</title>
<polygon fill="none" stroke="#bfbfbf" points="1742.5,-409 1742.5,-428 1828.5,-428 1828.5,-409 1742.5,-409"/>
<text text-anchor="middle" x="1785.5" y="-416" font-family="FreeSans.ttf" font-size="10.00" fill="#000000">ModelExport.h</text>
</g>
<!-- Node22&#45;&gt;Node23 -->
<g id="edge27" class="edge">
<title>Node22&#45;&gt;Node23</title>
<path fill="none" stroke="#191970" d="M1785.5,-475.9005C1785.5,-466.149 1785.5,-450.7597 1785.5,-438.3695"/>
<polygon fill="#191970" stroke="#191970" points="1789.0001,-438.0816 1785.5,-428.0817 1782.0001,-438.0817 1789.0001,-438.0816"/>
</g>
<!-- Node24&#45;&gt;Node22 -->
<g id="edge71" class="edge">
<title>Node24&#45;&gt;Node22</title>
<path fill="none" stroke="#191970" d="M1319.0345,-539.5028C1403.9445,-530.8296 1546.8244,-515.8326 1669.5,-501 1681.3977,-499.5615 1693.971,-497.963 1706.2768,-496.3546"/>
<polygon fill="#191970" stroke="#191970" points="1707.0727,-499.7801 1716.5301,-495.0045 1706.1588,-492.84 1707.0727,-499.7801"/>
</g>
<!-- Node25 -->
<g id="node20" class="node">
<title>Node25</title>
<g id="a_node20"><a xlink:href="Transform_8h.html" target="_top" xlink:title="iDynTree/Core/Transform.h">
<polygon fill="none" stroke="#000000" points="1473.5,-409 1473.5,-428 1619.5,-428 1619.5,-409 1473.5,-409"/>
<text text-anchor="middle" x="1546.5" y="-416" font-family="FreeSans.ttf" font-size="10.00" fill="#000000">iDynTree/Core/Transform.h</text>
</a>
</g>
</g>
<!-- Node24&#45;&gt;Node25 -->
<g id="edge29" class="edge">
<title>Node24&#45;&gt;Node25</title>
<path fill="none" stroke="#191970" d="M1313.1557,-537.499C1392.9125,-526.1867 1514.6676,-507.9509 1522.5,-501 1540.2302,-485.2653 1545.1961,-457.2738 1546.4128,-438.3064"/>
<polygon fill="#191970" stroke="#191970" points="1549.918,-438.2124 1546.7653,-428.0975 1542.9222,-437.9707 1549.918,-438.2124"/>
</g>
<!-- Node32 -->
<g id="node26" class="node">
<title>Node32</title>
<g id="a_node26"><a xlink:href="Twist_8h.html" target="_top" xlink:title="iDynTree/Core/Twist.h">
<polygon fill="none" stroke="#000000" points="626.5,-476 626.5,-495 748.5,-495 748.5,-476 626.5,-476"/>
<text text-anchor="middle" x="687.5" y="-483" font-family="FreeSans.ttf" font-size="10.00" fill="#000000">iDynTree/Core/Twist.h</text>
</a>
</g>
</g>
<!-- Node24&#45;&gt;Node32 -->
<g id="edge50" class="edge">
<title>Node24&#45;&gt;Node32</title>
<path fill="none" stroke="#191970" d="M1169.8577,-537.9986C1166.697,-537.6539 1163.5675,-537.3195 1160.5,-537 981.6434,-518.3692 935.2099,-528.4953 757.5,-501 750.6404,-499.9387 743.4477,-498.6042 736.3925,-497.166"/>
<polygon fill="#191970" stroke="#191970" points="736.7178,-493.6572 726.209,-495.0044 735.2642,-500.5046 736.7178,-493.6572"/>
</g>
<!-- Node35 -->
<g id="node29" class="node">
<title>Node35</title>
<g id="a_node29"><a xlink:href="SpatialAcc_8h.html" target="_top" xlink:title="iDynTree/Core/SpatialAcc.h">
<polygon fill="none" stroke="#000000" points="1180.5,-476 1180.5,-495 1328.5,-495 1328.5,-476 1180.5,-476"/>
<text text-anchor="middle" x="1254.5" y="-483" font-family="FreeSans.ttf" font-size="10.00" fill="#000000">iDynTree/Core/SpatialAcc.h</text>
</a>
</g>
</g>
<!-- Node24&#45;&gt;Node35 -->
<g id="edge61" class="edge">
<title>Node24&#45;&gt;Node35</title>
<path fill="none" stroke="#191970" d="M1246.0625,-537.3906C1247.4487,-528.8657 1249.518,-516.1392 1251.2604,-505.4235"/>
<polygon fill="#191970" stroke="#191970" points="1254.7651,-505.677 1252.9155,-495.2449 1247.8558,-504.5535 1254.7651,-505.677"/>
</g>
<!-- Node36 -->
<g id="node30" class="node">
<title>Node36</title>
<g id="a_node30"><a xlink:href="Wrench_8h.html" target="_top" xlink:title="iDynTree/Core/Wrench.h">
<polygon fill="none" stroke="#000000" points="1347,-476 1347,-495 1480,-495 1480,-476 1347,-476"/>
<text text-anchor="middle" x="1413.5" y="-483" font-family="FreeSans.ttf" font-size="10.00" fill="#000000">iDynTree/Core/Wrench.h</text>
</a>
</g>
</g>
<!-- Node24&#45;&gt;Node36 -->
<g id="edge63" class="edge">
<title>Node24&#45;&gt;Node36</title>
<path fill="none" stroke="#191970" d="M1270.9063,-537.3906C1299.6791,-526.92 1345.8696,-510.1111 1377.8466,-498.4745"/>
<polygon fill="#191970" stroke="#191970" points="1379.079,-501.7506 1387.2792,-495.0419 1376.6851,-495.1726 1379.079,-501.7506"/>
</g>
<!-- Node38 -->
<g id="node32" class="node">
<title>Node38</title>
<g id="a_node32"><a xlink:href="ArticulatedBodyInertia_8h.html" target="_top" xlink:title="iDynTree/Core/Articulated\lBodyInertia.h">
<polygon fill="none" stroke="#000000" points="849,-224.5 849,-254.5 990,-254.5 990,-224.5 849,-224.5"/>
<text text-anchor="start" x="857" y="-242.5" font-family="FreeSans.ttf" font-size="10.00" fill="#000000">iDynTree/Core/Articulated</text>
<text text-anchor="middle" x="919.5" y="-231.5" font-family="FreeSans.ttf" font-size="10.00" fill="#000000">BodyInertia.h</text>
</a>
</g>
</g>
<!-- Node24&#45;&gt;Node38 -->
<g id="edge68" class="edge">
<title>Node24&#45;&gt;Node38</title>
<path fill="none" stroke="#191970" d="M1305.9499,-537.459C1376.5764,-526.199 1483.6017,-508.1088 1489.5,-501 1498.2977,-490.3968 1498.1738,-480.7048 1489.5,-470 1454.7491,-427.1123 1049.1034,-398.1015 1003.5,-367 966.2796,-341.6156 941.456,-293.7381 928.9743,-264.4232"/>
<polygon fill="#191970" stroke="#191970" points="932.1017,-262.8241 925.074,-254.8955 925.6235,-265.4761 932.1017,-262.8241"/>
</g>
<!-- Node39 -->
<g id="node33" class="node">
<title>Node39</title>
<polygon fill="none" stroke="#bfbfbf" points="1613,-476 1613,-495 1660,-495 1660,-476 1613,-476"/>
<text text-anchor="middle" x="1636.5" y="-483" font-family="FreeSans.ttf" font-size="10.00" fill="#000000">vector</text>
</g>
<!-- Node24&#45;&gt;Node39 -->
<g id="edge72" class="edge">
<title>Node24&#45;&gt;Node39</title>
<path fill="none" stroke="#191970" d="M1318.117,-537.4849C1382.281,-528.9052 1477.7613,-515.4473 1560.5,-501 1574.4214,-498.5691 1589.7008,-495.5265 1602.8854,-492.7821"/>
<polygon fill="#191970" stroke="#191970" points="1603.8806,-496.1494 1612.944,-490.6626 1602.4372,-489.2998 1603.8806,-496.1494"/>
</g>
<!-- Node25&#45;&gt;Node2 -->
<g id="edge48" class="edge">
<title>Node25&#45;&gt;Node2</title>
<path fill="none" stroke="#191970" d="M1473.1354,-415.0864C1368.3519,-409.4093 1170.0759,-395.6903 1003.5,-367 802.5136,-332.3829 754.1156,-312.6923 558.5,-255 490.034,-234.8075 411.4073,-207.1059 366.9729,-191.0229"/>
<polygon fill="#191970" stroke="#191970" points="368.0912,-187.7055 357.4971,-187.5815 365.7016,-194.285 368.0912,-187.7055"/>
</g>
<!-- Node25&#45;&gt;Node17 -->
<g id="edge49" class="edge">
<title>Node25&#45;&gt;Node17</title>
<path fill="none" stroke="#191970" d="M1550.1152,-408.9104C1557.2593,-389.0716 1572.5,-341.9498 1572.5,-301 1572.5,-301 1572.5,-301 1572.5,-178 1572.5,-118.8522 1496.9821,-87.4415 1452.4054,-74.0527"/>
<polygon fill="#191970" stroke="#191970" points="1453.1792,-70.6337 1442.6021,-71.2474 1451.2533,-77.3635 1453.1792,-70.6337"/>
</g>
<!-- Node26 -->
<g id="node21" class="node">
<title>Node26</title>
<g id="a_node21"><a xlink:href="Position_8h.html" target="_top" xlink:title="iDynTree/Core/Position.h">
<polygon fill="none" stroke="#000000" points="1258.5,-291.5 1258.5,-310.5 1394.5,-310.5 1394.5,-291.5 1258.5,-291.5"/>
<text text-anchor="middle" x="1326.5" y="-298.5" font-family="FreeSans.ttf" font-size="10.00" fill="#000000">iDynTree/Core/Position.h</text>
</a>
</g>
</g>
<!-- Node25&#45;&gt;Node26 -->
<g id="edge30" class="edge">
<title>Node25&#45;&gt;Node26</title>
<path fill="none" stroke="#191970" d="M1528.4965,-408.8845C1489.8862,-388.2631 1398.9445,-339.692 1353.4311,-315.3837"/>
<polygon fill="#191970" stroke="#191970" points="1354.9134,-312.2075 1344.4437,-310.5836 1351.6156,-318.382 1354.9134,-312.2075"/>
</g>
<!-- Node29 -->
<g id="node24" class="node">
<title>Node29</title>
<g id="a_node24"><a xlink:href="Rotation_8h.html" target="_top" xlink:title="iDynTree/Core/Rotation.h">
<polygon fill="none" stroke="#ff0000" points="1161,-230 1161,-249 1298,-249 1298,-230 1161,-230"/>
<text text-anchor="middle" x="1229.5" y="-237" font-family="FreeSans.ttf" font-size="10.00" fill="#000000">iDynTree/Core/Rotation.h</text>
</a>
</g>
</g>
<!-- Node25&#45;&gt;Node29 -->
<g id="edge47" class="edge">
<title>Node25&#45;&gt;Node29</title>
<path fill="none" stroke="#191970" d="M1473.2347,-410.9119C1405.8767,-400.0714 1307.8798,-373.9017 1249.5,-311 1236.5172,-297.0116 1231.8619,-275.2866 1230.2442,-259.4535"/>
<polygon fill="#191970" stroke="#191970" points="1233.7138,-258.8934 1229.5275,-249.1607 1226.7307,-259.3797 1233.7138,-258.8934"/>
</g>
<!-- Node26&#45;&gt;Node17 -->
<g id="edge46" class="edge">
<title>Node26&#45;&gt;Node17</title>
<path fill="none" stroke="#191970" d="M1335.1517,-291.246C1351.1337,-272.635 1385.1425,-230.1451 1401.5,-188 1414.8244,-153.6698 1418.822,-110.475 1420.0102,-85.773"/>
<polygon fill="#191970" stroke="#191970" points="1423.5167,-85.6596 1420.3892,-75.5369 1416.5215,-85.4005 1423.5167,-85.6596"/>
</g>
<!-- Node27 -->
<g id="node22" class="node">
<title>Node27</title>
<g id="a_node22"><a xlink:href="PositionRaw_8h.html" target="_top" xlink:title="iDynTree/Core/PositionRaw.h">
<polygon fill="none" stroke="#000000" points="1236.5,-168.5 1236.5,-187.5 1392.5,-187.5 1392.5,-168.5 1236.5,-168.5"/>
<text text-anchor="middle" x="1314.5" y="-175.5" font-family="FreeSans.ttf" font-size="10.00" fill="#000000">iDynTree/Core/PositionRaw.h</text>
</a>
</g>
</g>
<!-- Node26&#45;&gt;Node27 -->
<g id="edge31" class="edge">
<title>Node26&#45;&gt;Node27</title>
<path fill="none" stroke="#191970" d="M1325.5584,-291.3484C1323.5956,-271.2295 1319.0328,-224.4608 1316.4229,-197.7098"/>
<polygon fill="#191970" stroke="#191970" points="1319.8918,-197.2196 1315.4372,-187.6068 1312.9249,-197.8994 1319.8918,-197.2196"/>
</g>
<!-- Node26&#45;&gt;Node29 -->
<g id="edge41" class="edge">
<title>Node26&#45;&gt;Node29</title>
<path fill="none" stroke="#191970" d="M1311.3438,-291.3906C1295.8257,-281.5519 1271.4807,-266.1167 1253.3716,-254.6351"/>
<polygon fill="#191970" stroke="#191970" points="1254.8696,-251.4407 1244.5498,-249.0419 1251.1213,-257.3526 1254.8696,-251.4407"/>
</g>
<!-- Node27&#45;&gt;Node17 -->
<g id="edge40" class="edge">
<title>Node27&#45;&gt;Node17</title>
<path fill="none" stroke="#191970" d="M1323.5375,-168.4509C1341.5299,-149.4401 1382.0349,-106.6423 1404.5848,-82.816"/>
<polygon fill="#191970" stroke="#191970" points="1407.1535,-85.1937 1411.4854,-75.5249 1402.0695,-80.382 1407.1535,-85.1937"/>
</g>
<!-- Node28 -->
<g id="node23" class="node">
<title>Node28</title>
<g id="a_node23"><a xlink:href="VectorFixSize_8h.html" target="_top" xlink:title="iDynTree/Core/VectorFixSize.h">
<polygon fill="none" stroke="#000000" points="588,-112.5 588,-131.5 749,-131.5 749,-112.5 588,-112.5"/>
<text text-anchor="middle" x="668.5" y="-119.5" font-family="FreeSans.ttf" font-size="10.00" fill="#000000">iDynTree/Core/VectorFixSize.h</text>
</a>
</g>
</g>
<!-- Node27&#45;&gt;Node28 -->
<g id="edge32" class="edge">
<title>Node27&#45;&gt;Node28</title>
<path fill="none" stroke="#191970" d="M1236.2557,-171.2172C1116.0618,-160.7979 886.5772,-140.9045 759.2583,-129.8676"/>
<polygon fill="#191970" stroke="#191970" points="759.4084,-126.3676 749.1434,-128.9908 758.8038,-133.3414 759.4084,-126.3676"/>
</g>
<!-- Node28&#45;&gt;Node3 -->
<g id="edge33" class="edge">
<title>Node28&#45;&gt;Node3</title>
<path fill="none" stroke="#191970" d="M637.2131,-112.3733C606.8182,-103.021 560.5107,-88.7725 527.25,-78.5385"/>
<polygon fill="#191970" stroke="#191970" points="527.9658,-75.0968 517.3786,-75.5011 525.9071,-81.7873 527.9658,-75.0968"/>
</g>
<!-- Node28&#45;&gt;Node4 -->
<g id="edge38" class="edge">
<title>Node28&#45;&gt;Node4</title>
<path fill="none" stroke="#191970" d="M676.3552,-112.3119C683.2838,-103.3557 693.228,-89.4392 699.5,-76 706.4336,-61.1432 711.4002,-43.2058 714.5126,-29.7829"/>
<polygon fill="#191970" stroke="#191970" points="717.9924,-30.2512 716.6934,-19.7363 711.1517,-28.7663 717.9924,-30.2512"/>
</g>
<!-- Node28&#45;&gt;Node7 -->
<g id="edge37" class="edge">
<title>Node28&#45;&gt;Node7</title>
<path fill="none" stroke="#191970" d="M655.7425,-112.3256C635.6114,-97.5934 594.7209,-69.7946 555.5,-56 505.7387,-38.4981 353.2017,-21.0357 282.8004,-13.6571"/>
<polygon fill="#191970" stroke="#191970" points="282.9406,-10.153 272.6327,-12.6019 282.2179,-17.1156 282.9406,-10.153"/>
</g>
<!-- Node28&#45;&gt;Node9 -->
<g id="edge34" class="edge">
<title>Node28&#45;&gt;Node9</title>
<path fill="none" stroke="#191970" d="M589.1855,-112.4686C500.5551,-101.8178 358.3708,-84.7313 273.3408,-74.5131"/>
<polygon fill="#191970" stroke="#191970" points="273.6083,-71.0201 263.2621,-73.3019 272.7731,-77.9701 273.6083,-71.0201"/>
</g>
<!-- Node28&#45;&gt;Node16 -->
<g id="edge39" class="edge">
<title>Node28&#45;&gt;Node16</title>
<path fill="none" stroke="#191970" d="M615.8032,-112.4306C565.193,-103.2101 486.5915,-88.8115 418.5,-76 413.0227,-74.9694 407.2234,-73.8662 401.5618,-72.7824"/>
<polygon fill="#191970" stroke="#191970" points="402.0994,-69.3218 391.6187,-70.8727 400.779,-76.1962 402.0994,-69.3218"/>
</g>
<!-- Node28&#45;&gt;Node17 -->
<g id="edge35" class="edge">
<title>Node28&#45;&gt;Node17</title>
<path fill="none" stroke="#191970" d="M749.3341,-115.9804C913.0687,-103.7874 1277.7274,-76.632 1388.1798,-68.4068"/>
<polygon fill="#191970" stroke="#191970" points="1388.639,-71.8824 1398.3514,-67.6494 1388.1191,-64.9017 1388.639,-71.8824"/>
</g>
<!-- Node28&#45;&gt;Node19 -->
<g id="edge36" class="edge">
<title>Node28&#45;&gt;Node19</title>
<path fill="none" stroke="#191970" d="M667.4549,-112.2455C666.672,-104.9382 665.5744,-94.6944 664.6112,-85.7046"/>
<polygon fill="#191970" stroke="#191970" points="668.0786,-85.2129 663.5331,-75.6427 661.1185,-85.9587 668.0786,-85.2129"/>
</g>
<!-- Node29&#45;&gt;Node17 -->
<g id="edge42" class="edge">
<title>Node29&#45;&gt;Node17</title>
<path fill="none" stroke="#191970" d="M1226.1713,-229.8834C1221.7673,-215.3298 1215.8354,-187.3581 1227.5,-168 1262.6133,-109.7273 1343.3856,-83.0237 1388.515,-72.2691"/>
<polygon fill="#191970" stroke="#191970" points="1389.3925,-75.6591 1398.3738,-70.0388 1387.8479,-68.8316 1389.3925,-75.6591"/>
</g>
<!-- Node29&#45;&gt;Node28 -->
<g id="edge45" class="edge">
<title>Node29&#45;&gt;Node28</title>
<path fill="none" stroke="#191970" d="M1208.1228,-229.9488C1172.4707,-214.4314 1098.2843,-183.8848 1032.5,-168 940.9869,-145.9024 833.8138,-133.9877 759.5659,-127.8635"/>
<polygon fill="#191970" stroke="#191970" points="759.5616,-124.3519 749.3127,-127.0373 758.9993,-131.3293 759.5616,-124.3519"/>
</g>
<!-- Node30 -->
<g id="node25" class="node">
<title>Node30</title>
<g id="a_node25"><a xlink:href="GeomVector3_8h.html" target="_top" xlink:title="iDynTree/Core/GeomVector3.h">
<polygon fill="none" stroke="#000000" points="773,-168.5 773,-187.5 936,-187.5 936,-168.5 773,-168.5"/>
<text text-anchor="middle" x="854.5" y="-175.5" font-family="FreeSans.ttf" font-size="10.00" fill="#000000">iDynTree/Core/GeomVector3.h</text>
</a>
</g>
</g>
<!-- Node29&#45;&gt;Node30 -->
<g id="edge43" class="edge">
<title>Node29&#45;&gt;Node30</title>
<path fill="none" stroke="#191970" d="M1171.3177,-229.9581C1104.1602,-218.9443 993.8479,-200.8531 922.7117,-189.1867"/>
<polygon fill="#191970" stroke="#191970" points="922.9449,-185.6783 912.5102,-187.5137 921.812,-192.586 922.9449,-185.6783"/>
</g>
<!-- Node30&#45;&gt;Node28 -->
<g id="edge44" class="edge">
<title>Node30&#45;&gt;Node28</title>
<path fill="none" stroke="#191970" d="M822.5255,-168.3733C791.3287,-158.9807 743.729,-144.6496 709.7068,-134.4064"/>
<polygon fill="#191970" stroke="#191970" points="710.6418,-131.0327 700.0573,-131.5011 708.6237,-137.7355 710.6418,-131.0327"/>
</g>
<!-- Node33 -->
<g id="node27" class="node">
<title>Node33</title>
<g id="a_node27"><a xlink:href="SpatialMotionVector_8h.html" target="_top" xlink:title="iDynTree/Core/SpatialMotion\lVector.h">
<polygon fill="none" stroke="#000000" points="805,-403.5 805,-433.5 960,-433.5 960,-403.5 805,-403.5"/>
<text text-anchor="start" x="813" y="-421.5" font-family="FreeSans.ttf" font-size="10.00" fill="#000000">iDynTree/Core/SpatialMotion</text>
<text text-anchor="middle" x="882.5" y="-410.5" font-family="FreeSans.ttf" font-size="10.00" fill="#000000">Vector.h</text>
</a>
</g>
</g>
<!-- Node32&#45;&gt;Node33 -->
<g id="edge51" class="edge">
<title>Node32&#45;&gt;Node33</title>
<path fill="none" stroke="#191970" d="M715.4387,-475.9005C745.0204,-465.7366 792.4279,-449.4479 829.1977,-436.8141"/>
<polygon fill="#191970" stroke="#191970" points="830.4599,-440.0813 838.7799,-433.5218 828.1853,-433.4612 830.4599,-440.0813"/>
</g>
<!-- Node33&#45;&gt;Node28 -->
<g id="edge52" class="edge">
<title>Node33&#45;&gt;Node28</title>
<path fill="none" stroke="#191970" d="M804.8487,-404.2511C754.7885,-394.1585 694.9885,-380.1331 672.5,-367 637.7462,-346.7041 610.5,-341.2462 610.5,-301 610.5,-301 610.5,-301 610.5,-239.5 610.5,-200.7109 636.2298,-161.4674 653.415,-139.5823"/>
<polygon fill="#191970" stroke="#191970" points="656.3387,-141.5349 659.9419,-131.5716 650.9119,-137.1133 656.3387,-141.5349"/>
</g>
<!-- Node33&#45;&gt;Node30 -->
<g id="edge53" class="edge">
<title>Node33&#45;&gt;Node30</title>
<path fill="none" stroke="#191970" d="M846.1483,-403.3589C831.0152,-395.0205 815.013,-383.0521 806.5,-367 776.7226,-310.8518 781.5552,-282.4557 806.5,-224 811.6156,-212.0122 821.5575,-201.6498 831.0727,-193.8114"/>
<polygon fill="#191970" stroke="#191970" points="833.3797,-196.4532 839.1926,-187.5954 829.1246,-190.8949 833.3797,-196.4532"/>
</g>
<!-- Node34 -->
<g id="node28" class="node">
<title>Node34</title>
<g id="a_node28"><a xlink:href="SpatialVector_8h.html" target="_top" xlink:title="iDynTree/Core/SpatialVector.h">
<polygon fill="none" stroke="#000000" points="1012,-347.5 1012,-366.5 1173,-366.5 1173,-347.5 1012,-347.5"/>
<text text-anchor="middle" x="1092.5" y="-354.5" font-family="FreeSans.ttf" font-size="10.00" fill="#000000">iDynTree/Core/SpatialVector.h</text>
</a>
</g>
</g>
<!-- Node33&#45;&gt;Node34 -->
<g id="edge54" class="edge">
<title>Node33&#45;&gt;Node34</title>
<path fill="none" stroke="#191970" d="M933.8718,-403.4554C969.5255,-393.0139 1016.4561,-379.27 1050.0032,-369.4455"/>
<polygon fill="#191970" stroke="#191970" points="1051.3442,-372.6998 1059.9575,-366.5303 1049.3768,-365.982 1051.3442,-372.6998"/>
</g>
<!-- Node34&#45;&gt;Node3 -->
<g id="edge57" class="edge">
<title>Node34&#45;&gt;Node3</title>
<path fill="none" stroke="#191970" d="M1091.5987,-347.3949C1090.1866,-334.3608 1086.9236,-310.4648 1080.5,-291 1058.3326,-223.8281 1042.6117,-199.9433 979.5,-168 906.0933,-130.846 674.0311,-93.175 556.3641,-75.8409"/>
<polygon fill="#191970" stroke="#191970" points="556.7756,-72.3639 546.3739,-74.3776 555.761,-79.29 556.7756,-72.3639"/>
</g>
<!-- Node34&#45;&gt;Node18 -->
<g id="edge59" class="edge">
<title>Node34&#45;&gt;Node18</title>
<path fill="none" stroke="#191970" d="M1089.2954,-347.393C1081.1949,-324.164 1058.0545,-263.9304 1023.5,-224 995.5742,-191.7295 985.4349,-183.0479 945.5,-168 792.5467,-110.3654 740.5535,-159.8967 579.5,-132 579.3986,-131.9824 579.2971,-131.9648 579.1955,-131.947"/>
<polygon fill="#191970" stroke="#191970" points="580.0326,-128.5452 569.5399,-130.0129 578.6577,-135.4089 580.0326,-128.5452"/>
</g>
<!-- Node34&#45;&gt;Node19 -->
<g id="edge60" class="edge">
<title>Node34&#45;&gt;Node19</title>
<path fill="none" stroke="#191970" d="M1096.911,-347.3802C1100.8419,-338.2426 1106.3026,-324.0061 1108.5,-311 1119.455,-246.1577 1124.4091,-205.6611 1070.5,-168 1009.9028,-125.6666 789.9193,-86.4891 700.592,-71.959"/>
<polygon fill="#191970" stroke="#191970" points="701.0436,-68.4867 690.614,-70.3503 699.9294,-75.3974 701.0436,-68.4867"/>
</g>
<!-- Node34&#45;&gt;Node26 -->
<g id="edge55" class="edge">
<title>Node34&#45;&gt;Node26</title>
<path fill="none" stroke="#191970" d="M1132.4602,-347.4369C1172.3392,-337.8932 1233.7139,-323.2052 1276.7328,-312.9101"/>
<polygon fill="#191970" stroke="#191970" points="1277.7939,-316.2551 1286.7047,-310.5237 1276.1646,-309.4473 1277.7939,-316.2551"/>
</g>
<!-- Node34&#45;&gt;Node29 -->
<g id="edge56" class="edge">
<title>Node34&#45;&gt;Node29</title>
<path fill="none" stroke="#191970" d="M1104.1029,-347.148C1115.0489,-337.8462 1131.9095,-323.4987 1146.5,-311 1168.517,-292.1394 1193.7413,-270.3899 1210.5477,-255.8784"/>
<polygon fill="#191970" stroke="#191970" points="1213.2274,-258.1887 1218.5074,-249.0032 1208.6517,-252.8912 1213.2274,-258.1887"/>
</g>
<!-- Node34&#45;&gt;Node30 -->
<g id="edge58" class="edge">
<title>Node34&#45;&gt;Node30</title>
<path fill="none" stroke="#191970" d="M1079.7717,-347.4969C1068.8619,-338.8746 1053.2507,-325.3481 1042.5,-311 1016.6369,-276.4827 1032.2241,-252.0976 999.5,-224 980.3041,-207.518 955.1691,-196.9299 931.2284,-190.1326"/>
<polygon fill="#191970" stroke="#191970" points="931.9825,-186.7117 921.4196,-187.5335 930.1895,-193.4782 931.9825,-186.7117"/>
</g>
<!-- Node35&#45;&gt;Node33 -->
<g id="edge62" class="edge">
<title>Node35&#45;&gt;Node33</title>
<path fill="none" stroke="#191970" d="M1203.5947,-475.9248C1192.9909,-473.9495 1181.8829,-471.8946 1171.5,-470 1166.4564,-469.0797 1053.5098,-448.9581 970.3396,-434.1442"/>
<polygon fill="#191970" stroke="#191970" points="970.8126,-430.6734 960.3537,-432.3656 969.585,-437.5649 970.8126,-430.6734"/>
</g>
<!-- Node37 -->
<g id="node31" class="node">
<title>Node37</title>
<g id="a_node31"><a xlink:href="SpatialForceVector_8h.html" target="_top" xlink:title="iDynTree/Core/SpatialForce\lVector.h">
<polygon fill="none" stroke="#000000" points="978.5,-403.5 978.5,-433.5 1126.5,-433.5 1126.5,-403.5 978.5,-403.5"/>
<text text-anchor="start" x="986.5" y="-421.5" font-family="FreeSans.ttf" font-size="10.00" fill="#000000">iDynTree/Core/SpatialForce</text>
<text text-anchor="middle" x="1052.5" y="-410.5" font-family="FreeSans.ttf" font-size="10.00" fill="#000000">Vector.h</text>
</a>
</g>
</g>
<!-- Node36&#45;&gt;Node37 -->
<g id="edge64" class="edge">
<title>Node36&#45;&gt;Node37</title>
<path fill="none" stroke="#191970" d="M1367.7176,-475.99C1357.7642,-473.9708 1347.2856,-471.8818 1337.5,-470 1270.0766,-457.0345 1193.493,-443.248 1136.7046,-433.2052"/>
<polygon fill="#191970" stroke="#191970" points="1137.1523,-429.7302 1126.696,-431.4377 1135.9349,-436.6235 1137.1523,-429.7302"/>
</g>
<!-- Node37&#45;&gt;Node28 -->
<g id="edge65" class="edge">
<title>Node37&#45;&gt;Node28</title>
<path fill="none" stroke="#191970" d="M978.3113,-404.512C975.3368,-403.9935 972.3909,-403.4875 969.5,-403 916.5375,-394.0687 770.2999,-403.066 730.5,-367 664.5715,-307.2567 664.1871,-188.4374 666.8766,-141.6169"/>
<polygon fill="#191970" stroke="#191970" points="670.3725,-141.7946 667.5695,-131.5774 663.3891,-141.3126 670.3725,-141.7946"/>
</g>
<!-- Node37&#45;&gt;Node30 -->
<g id="edge66" class="edge">
<title>Node37&#45;&gt;Node30</title>
<path fill="none" stroke="#191970" d="M1015.3613,-403.4101C964.2384,-380.2751 874.6362,-330.6186 840.5,-255 832.1079,-236.4097 838.372,-213.1447 844.9893,-197.08"/>
<polygon fill="#191970" stroke="#191970" points="848.3068,-198.2382 849.2384,-187.6844 841.9287,-195.3537 848.3068,-198.2382"/>
</g>
<!-- Node37&#45;&gt;Node34 -->
<g id="edge67" class="edge">
<title>Node37&#45;&gt;Node34</title>
<path fill="none" stroke="#191970" d="M1062.3876,-403.2977C1067.8822,-394.8498 1074.7586,-384.2773 1080.5527,-375.369"/>
<polygon fill="#191970" stroke="#191970" points="1083.5772,-377.1381 1086.0955,-366.8469 1077.7092,-373.3215 1083.5772,-377.1381"/>
</g>
<!-- Node38&#45;&gt;Node2 -->
<g id="edge69" class="edge">
<title>Node38&#45;&gt;Node2</title>
<path fill="none" stroke="#191970" d="M848.8657,-232.1122C742.1258,-220.9481 539.7425,-199.7805 422.2292,-187.4895"/>
<polygon fill="#191970" stroke="#191970" points="422.4848,-183.9973 412.1749,-186.4379 421.7565,-190.9593 422.4848,-183.9973"/>
</g>
<!-- Node38&#45;&gt;Node17 -->
<g id="edge70" class="edge">
<title>Node38&#45;&gt;Node17</title>
<path fill="none" stroke="#191970" d="M955.9025,-224.4377C1017.1462,-199.38 1144.9469,-148.3029 1255.5,-112 1301.1356,-97.0144 1354.8681,-82.627 1388.3137,-74.0485"/>
<polygon fill="#191970" stroke="#191970" points="1389.5968,-77.3335 1398.4238,-71.4739 1387.8693,-70.55 1389.5968,-77.3335"/>
</g>
<!-- Node40&#45;&gt;Node28 -->
<g id="edge74" class="edge">
<title>Node40&#45;&gt;Node28</title>
<path fill="none" stroke="#191970" d="M480.2162,-537.4537C385.8061,-521.2752 212.2225,-485.1669 179.5,-434 172.077,-422.3929 172.5747,-414.9108 179.5,-403 246.3342,-288.0522 324.2311,-321.2789 439.5,-255 513.7941,-212.2814 601.3071,-161.2587 643.3996,-136.6734"/>
<polygon fill="#191970" stroke="#191970" points="645.2764,-139.6305 652.1452,-131.5639 641.7452,-133.5864 645.2764,-139.6305"/>
</g>
<!-- Node40&#45;&gt;Node37 -->
<g id="edge78" class="edge">
<title>Node40&#45;&gt;Node37</title>
<path fill="none" stroke="#191970" d="M547.6326,-537.3606C559.042,-520.3679 585.3177,-485.424 617.5,-470 756.406,-403.4266 811.5772,-454.273 968.3559,-434.0304"/>
<polygon fill="#191970" stroke="#191970" points="968.9059,-437.4879 978.3388,-432.6637 967.9564,-430.5525 968.9059,-437.4879"/>
</g>
<!-- Node40&#45;&gt;Node39 -->
<g id="edge79" class="edge">
<title>Node40&#45;&gt;Node39</title>
<path fill="none" stroke="#191970" d="M617.1655,-544.7825C777.9483,-539.7506 1165.4347,-525.9273 1489.5,-501 1528.3538,-498.0113 1572.8359,-493.1146 1602.5984,-489.6249"/>
<polygon fill="#191970" stroke="#191970" points="1603.3412,-493.0615 1612.8599,-488.409 1602.5175,-486.1101 1603.3412,-493.0615"/>
</g>
<!-- Node41 -->
<g id="node35" class="node">
<title>Node41</title>
<g id="a_node35"><a xlink:href="VectorDynSize_8h.html" target="_top" xlink:title="iDynTree/Core/VectorDynSize.h">
<polygon fill="none" stroke="#000000" points="620,-409 620,-428 787,-428 787,-409 620,-409"/>
<text text-anchor="middle" x="703.5" y="-416" font-family="FreeSans.ttf" font-size="10.00" fill="#000000">iDynTree/Core/VectorDynSize.h</text>
</a>
</g>
</g>
<!-- Node40&#45;&gt;Node41 -->
<g id="edge75" class="edge">
<title>Node40&#45;&gt;Node41</title>
<path fill="none" stroke="#191970" d="M538.9933,-537.2945C535.5131,-521.4181 531.236,-489.6943 546.5,-470 559.0549,-453.801 606.5077,-439.6406 645.9892,-430.2899"/>
<polygon fill="#191970" stroke="#191970" points="646.8729,-433.6781 655.8291,-428.018 645.298,-426.8575 646.8729,-433.6781"/>
</g>
<!-- Node41&#45;&gt;Node9 -->
<g id="edge76" class="edge">
<title>Node41&#45;&gt;Node9</title>
<path fill="none" stroke="#191970" d="M655.8693,-408.9988C545.8442,-386.0466 279.1725,-324.3292 223.5,-255 183.598,-205.3099 191.9307,-123.0977 198.4441,-85.6603"/>
<polygon fill="#191970" stroke="#191970" points="201.9341,-86.0408 200.3517,-75.5648 195.0558,-84.7411 201.9341,-86.0408"/>
</g>
<!-- Node41&#45;&gt;Node17 -->
<g id="edge77" class="edge">
<title>Node41&#45;&gt;Node17</title>
<path fill="none" stroke="#191970" d="M754.5227,-408.9402C768.1211,-406.682 782.8323,-404.4981 796.5,-403 871.2697,-394.8043 1412.0614,-411.7755 1472.5,-367 1497.5798,-348.4198 1496.5,-332.2125 1496.5,-301 1496.5,-301 1496.5,-301 1496.5,-178 1496.5,-146.7875 1490.0636,-137.802 1472.5,-112 1464.6578,-100.4793 1453.2918,-89.9817 1443.1849,-81.9331"/>
<polygon fill="#191970" stroke="#191970" points="1445.1741,-79.0487 1435.0962,-75.7796 1440.9358,-84.6198 1445.1741,-79.0487"/>
</g>
<!-- Node42&#45;&gt;Node2 -->
<g id="edge81" class="edge">
<title>Node42&#45;&gt;Node2</title>
<path fill="none" stroke="#191970" d="M253.009,-660.4513C194.0424,-643.8812 122.5,-610.6598 122.5,-547 122.5,-547 122.5,-547 122.5,-418.5 122.5,-370.591 180.4833,-256.6971 215.5,-224 232.3821,-208.2362 255.3221,-197.6241 276.346,-190.6069"/>
<polygon fill="#191970" stroke="#191970" points="277.6599,-193.8632 286.1589,-187.5372 275.57,-187.1825 277.6599,-193.8632"/>
</g>
<!-- Node42&#45;&gt;Node21 -->
<g id="edge82" class="edge">
<title>Node42&#45;&gt;Node21</title>
<path fill="none" stroke="#191970" d="M377.0769,-660.4639C414.5215,-648.63 466.1109,-632.3258 501.4595,-621.1543"/>
<polygon fill="#191970" stroke="#191970" points="502.9432,-624.3561 511.4236,-618.0053 500.8337,-617.6815 502.9432,-624.3561"/>
</g>
<!-- Node43&#45;&gt;Node22 -->
<g id="edge97" class="edge">
<title>Node43&#45;&gt;Node22</title>
<path fill="none" stroke="#191970" d="M1725.7108,-665.8167C1735.5873,-636.0303 1765.6531,-545.3556 1778.9993,-505.1053"/>
<polygon fill="#191970" stroke="#191970" points="1782.3949,-505.9851 1782.2201,-495.3917 1775.7506,-503.7819 1782.3949,-505.9851"/>
</g>
<!-- Node43&#45;&gt;Node25 -->
<g id="edge96" class="edge">
<title>Node43&#45;&gt;Node25</title>
<path fill="none" stroke="#191970" d="M1722.8459,-665.9846C1723.4866,-634.134 1721.3359,-529.9014 1669.5,-470 1652.9973,-450.9295 1628.2665,-438.7637 1605.2988,-431.0795"/>
<polygon fill="#191970" stroke="#191970" points="1606.1811,-427.6885 1595.5925,-428.0536 1604.0977,-434.3713 1606.1811,-427.6885"/>
</g>
<!-- Node43&#45;&gt;Node39 -->
<g id="edge105" class="edge">
<title>Node43&#45;&gt;Node39</title>
<path fill="none" stroke="#191970" d="M1683.8785,-665.8843C1635.1061,-651.4341 1553.2482,-618.9552 1517.5,-557 1513.0576,-549.3008 1512.6199,-544.4295 1517.5,-537 1518.7956,-535.0276 1569.4782,-513.5317 1604.2751,-498.9425"/>
<polygon fill="#191970" stroke="#191970" points="1605.7415,-502.123 1613.6142,-495.0328 1603.0383,-495.6661 1605.7415,-502.123"/>
</g>
<!-- Node44 -->
<g id="node38" class="node">
<title>Node44</title>
<g id="a_node38"><a xlink:href="IJoint_8h.html" target="_top" xlink:title="iDynTree/Model/IJoint.h">
<polygon fill="none" stroke="#000000" points="1770.5,-599 1770.5,-618 1898.5,-618 1898.5,-599 1770.5,-599"/>
<text text-anchor="middle" x="1834.5" y="-606" font-family="FreeSans.ttf" font-size="10.00" fill="#000000">iDynTree/Model/IJoint.h</text>
</a>
</g>
</g>
<!-- Node43&#45;&gt;Node44 -->
<g id="edge84" class="edge">
<title>Node43&#45;&gt;Node44</title>
<path fill="none" stroke="#191970" d="M1738.5469,-665.9005C1757.1767,-654.7559 1788.1158,-636.2477 1809.8128,-623.2682"/>
<polygon fill="#191970" stroke="#191970" points="1811.698,-626.219 1818.4829,-618.0817 1808.1044,-620.2118 1811.698,-626.219"/>
</g>
<!-- Node45 -->
<g id="node39" class="node">
<title>Node45</title>
<g id="a_node39"><a xlink:href="Link_8h.html" target="_top" xlink:title="iDynTree/Model/Link.h">
<polygon fill="none" stroke="#000000" points="1346.5,-599 1346.5,-618 1470.5,-618 1470.5,-599 1346.5,-599"/>
<text text-anchor="middle" x="1408.5" y="-606" font-family="FreeSans.ttf" font-size="10.00" fill="#000000">iDynTree/Model/Link.h</text>
</a>
</g>
</g>
<!-- Node43&#45;&gt;Node45 -->
<g id="edge86" class="edge">
<title>Node43&#45;&gt;Node45</title>
<path fill="none" stroke="#191970" d="M1677.8449,-665.9717C1621.3084,-653.9082 1523.9554,-633.1354 1463.0709,-620.1441"/>
<polygon fill="#191970" stroke="#191970" points="1463.7652,-616.7135 1453.255,-618.0496 1462.3044,-623.5594 1463.7652,-616.7135"/>
</g>
<!-- Node50 -->
<g id="node43" class="node">
<title>Node50</title>
<g id="a_node43"><a xlink:href="SolidShapes_8h.html" target="_top" xlink:title="iDynTree/Model/SolidShapes.h">
<polygon fill="none" stroke="#000000" points="1845,-537.5 1845,-556.5 2008,-556.5 2008,-537.5 1845,-537.5"/>
<text text-anchor="middle" x="1926.5" y="-544.5" font-family="FreeSans.ttf" font-size="10.00" fill="#000000">iDynTree/Model/SolidShapes.h</text>
</a>
</g>
</g>
<!-- Node43&#45;&gt;Node50 -->
<g id="edge98" class="edge">
<title>Node43&#45;&gt;Node50</title>
<path fill="none" stroke="#191970" d="M1780.0834,-665.9968C1827.5322,-657.0237 1889.7923,-642.2394 1907.5,-624 1922.2126,-608.8456 1926.1153,-584.2053 1926.8803,-566.8886"/>
<polygon fill="#191970" stroke="#191970" points="1930.3819,-566.7844 1927.012,-556.7398 1923.3825,-566.6935 1930.3819,-566.7844"/>
</g>
<!-- Node51 -->
<g id="node44" class="node">
<title>Node51</title>
<polygon fill="none" stroke="#bfbfbf" points="1981,-476 1981,-495 2030,-495 2030,-476 1981,-476"/>
<text text-anchor="middle" x="2005.5" y="-483" font-family="FreeSans.ttf" font-size="10.00" fill="#000000">cstdlib</text>
</g>
<!-- Node43&#45;&gt;Node51 -->
<g id="edge104" class="edge">
<title>Node43&#45;&gt;Node51</title>
<path fill="none" stroke="#191970" d="M1788.353,-665.9652C1829.9694,-658.2854 1884.0816,-645.1908 1928.5,-624 1973.1864,-602.6814 1995.3977,-601.304 2017.5,-557 2025.7176,-540.5278 2020.6295,-519.5409 2014.7565,-504.5736"/>
<polygon fill="#191970" stroke="#191970" points="2017.9209,-503.0737 2010.7191,-495.3029 2011.5031,-505.8687 2017.9209,-503.0737"/>
</g>
<!-- Node44&#45;&gt;Node22 -->
<g id="edge85" class="edge">
<title>Node44&#45;&gt;Node22</title>
<path fill="none" stroke="#191970" d="M1830.6551,-598.8484C1822.5687,-578.5499 1803.6752,-531.1235 1793.0684,-504.4981"/>
<polygon fill="#191970" stroke="#191970" points="1796.2795,-503.1014 1789.3271,-495.1068 1789.7765,-505.6921 1796.2795,-503.1014"/>
</g>
<!-- Node45&#45;&gt;Node22 -->
<g id="edge95" class="edge">
<title>Node45&#45;&gt;Node22</title>
<path fill="none" stroke="#191970" d="M1470.7339,-604.4109C1527.9293,-598.9183 1614.1039,-586.1976 1683.5,-557 1715.7966,-543.4116 1748.0698,-518.3829 1767.4122,-501.8382"/>
<polygon fill="#191970" stroke="#191970" points="1769.8796,-504.3302 1775.1079,-495.1152 1765.2742,-499.0585 1769.8796,-504.3302"/>
</g>
<!-- Node46 -->
<g id="node40" class="node">
<title>Node46</title>
<g id="a_node40"><a xlink:href="SpatialInertia_8h.html" target="_top" xlink:title="iDynTree/Core/SpatialInertia.h">
<polygon fill="none" stroke="#000000" points="989.5,-537.5 989.5,-556.5 1151.5,-556.5 1151.5,-537.5 989.5,-537.5"/>
<text text-anchor="middle" x="1070.5" y="-544.5" font-family="FreeSans.ttf" font-size="10.00" fill="#000000">iDynTree/Core/SpatialInertia.h</text>
</a>
</g>
</g>
<!-- Node45&#45;&gt;Node46 -->
<g id="edge87" class="edge">
<title>Node45&#45;&gt;Node46</title>
<path fill="none" stroke="#191970" d="M1356.0584,-598.9581C1295.7751,-587.9894 1196.9133,-570.0012 1132.7716,-558.3305"/>
<polygon fill="#191970" stroke="#191970" points="1133.2516,-554.8604 1122.7866,-556.5137 1131.9985,-561.7474 1133.2516,-554.8604"/>
</g>
<!-- Node46&#45;&gt;Node28 -->
<g id="edge89" class="edge">
<title>Node46&#45;&gt;Node28</title>
<path fill="none" stroke="#191970" d="M1044.615,-537.4647C1028.7773,-530.1252 1009.8206,-518.2779 1000.5,-501 993.9587,-488.8741 992.1061,-480.9256 1000.5,-470 1038.3316,-420.758 1097.6684,-483.242 1135.5,-434 1143.8939,-423.0744 1144.0997,-413.7644 1135.5,-403 1090.2756,-346.3914 1046.7045,-384.9195 976.5,-367 872.6279,-340.487 744.5,-408.2024 744.5,-301 744.5,-301 744.5,-301 744.5,-239.5 744.5,-197.9563 710.5901,-159.486 688.0719,-138.5193"/>
<polygon fill="#191970" stroke="#191970" points="690.1556,-135.6865 680.375,-131.6133 685.4808,-140.8968 690.1556,-135.6865"/>
</g>
<!-- Node46&#45;&gt;Node32 -->
<g id="edge90" class="edge">
<title>Node46&#45;&gt;Node32</title>
<path fill="none" stroke="#191970" d="M995.3077,-537.4954C931.7484,-529.0918 838.3915,-515.88 757.5,-501 751.2338,-499.8473 744.6748,-498.5359 738.1906,-497.1753"/>
<polygon fill="#191970" stroke="#191970" points="738.6276,-493.6895 728.1157,-495.0125 737.1583,-500.5335 738.6276,-493.6895"/>
</g>
<!-- Node46&#45;&gt;Node35 -->
<g id="edge93" class="edge">
<title>Node46&#45;&gt;Node35</title>
<path fill="none" stroke="#191970" d="M1099.25,-537.3906C1130.7117,-526.8749 1181.3008,-509.966 1216.1314,-498.3243"/>
<polygon fill="#191970" stroke="#191970" points="1217.5772,-501.5315 1225.9519,-495.0419 1215.3581,-494.8925 1217.5772,-501.5315"/>
</g>
<!-- Node46&#45;&gt;Node36 -->
<g id="edge94" class="edge">
<title>Node46&#45;&gt;Node36</title>
<path fill="none" stroke="#191970" d="M1128.9276,-537.462C1183.0825,-528.4963 1265.8487,-514.4755 1337.5,-501 1344.0798,-499.7625 1350.9705,-498.4211 1357.8031,-497.0627"/>
<polygon fill="#191970" stroke="#191970" points="1358.6134,-500.47 1367.7291,-495.0706 1357.2359,-493.6068 1358.6134,-500.47"/>
</g>
<!-- Node47 -->
<g id="node41" class="node">
<title>Node47</title>
<g id="a_node41"><a xlink:href="SpatialInertiaRaw_8h.html" target="_top" xlink:title="iDynTree/Core/SpatialInertia\lRaw.h">
<polygon fill="none" stroke="#ff0000" points="1009,-470.5 1009,-500.5 1162,-500.5 1162,-470.5 1009,-470.5"/>
<text text-anchor="start" x="1017" y="-488.5" font-family="FreeSans.ttf" font-size="10.00" fill="#000000">iDynTree/Core/SpatialInertia</text>
<text text-anchor="middle" x="1085.5" y="-477.5" font-family="FreeSans.ttf" font-size="10.00" fill="#000000">Raw.h</text>
</a>
</g>
</g>
<!-- Node46&#45;&gt;Node47 -->
<g id="edge88" class="edge">
<title>Node46&#45;&gt;Node47</title>
<path fill="none" stroke="#191970" d="M1072.8438,-537.3906C1074.6107,-530.1463 1077.1176,-519.8679 1079.4347,-510.3676"/>
<polygon fill="#191970" stroke="#191970" points="1082.8613,-511.0892 1081.8306,-500.5446 1076.0606,-509.4304 1082.8613,-511.0892"/>
</g>
<!-- Node49 -->
<g id="node42" class="node">
<title>Node49</title>
<g id="a_node42"><a xlink:href="SpatialMomentum_8h.html" target="_top" xlink:title="iDynTree/Core/SpatialMomentum.h">
<polygon fill="none" stroke="#000000" points="766.5,-476 766.5,-495 952.5,-495 952.5,-476 766.5,-476"/>
<text text-anchor="middle" x="859.5" y="-483" font-family="FreeSans.ttf" font-size="10.00" fill="#000000">iDynTree/Core/SpatialMomentum.h</text>
</a>
</g>
</g>
<!-- Node46&#45;&gt;Node49 -->
<g id="edge91" class="edge">
<title>Node46&#45;&gt;Node49</title>
<path fill="none" stroke="#191970" d="M1037.5313,-537.3906C1000.9883,-526.7395 941.9429,-509.5296 901.965,-497.8772"/>
<polygon fill="#191970" stroke="#191970" points="902.8172,-494.48 892.2372,-495.0419 900.8583,-501.2004 902.8172,-494.48"/>
</g>
<!-- Node49&#45;&gt;Node37 -->
<g id="edge92" class="edge">
<title>Node49&#45;&gt;Node37</title>
<path fill="none" stroke="#191970" d="M887.1522,-475.9005C916.4305,-465.7366 963.3517,-449.4479 999.7444,-436.8141"/>
<polygon fill="#191970" stroke="#191970" points="1000.9293,-440.1078 1009.2284,-433.5218 998.6335,-433.4949 1000.9293,-440.1078"/>
</g>
<!-- Node50&#45;&gt;Node17 -->
<g id="edge100" class="edge">
<title>Node50&#45;&gt;Node17</title>
<path fill="none" stroke="#191970" d="M1925.7401,-537.3353C1924.1256,-515.939 1920.5,-462.9433 1920.5,-418.5 1920.5,-418.5 1920.5,-418.5 1920.5,-239.5 1920.5,-140.1296 1563.5622,-84.8202 1452.8484,-70.0546"/>
<polygon fill="#191970" stroke="#191970" points="1452.9998,-66.5446 1442.6295,-68.7143 1452.0894,-73.4851 1452.9998,-66.5446"/>
</g>
<!-- Node50&#45;&gt;Node22 -->
<g id="edge103" class="edge">
<title>Node50&#45;&gt;Node22</title>
<path fill="none" stroke="#191970" d="M1904.4688,-537.3906C1880.8769,-527.1005 1843.2499,-510.6888 1816.6367,-499.0809"/>
<polygon fill="#191970" stroke="#191970" points="1817.9419,-495.8318 1807.3765,-495.0419 1815.1433,-502.248 1817.9419,-495.8318"/>
</g>
<!-- Node50&#45;&gt;Node25 -->
<g id="edge102" class="edge">
<title>Node50&#45;&gt;Node25</title>
<path fill="none" stroke="#191970" d="M1921.6242,-537.289C1912.6415,-520.5053 1891.78,-486.3071 1863.5,-470 1824.7647,-447.664 1710.1338,-433.1006 1629.9131,-425.3381"/>
<polygon fill="#191970" stroke="#191970" points="1630.1036,-421.8405 1619.8174,-424.3793 1629.4417,-428.8091 1630.1036,-421.8405"/>
</g>
<!-- Node50&#45;&gt;Node39 -->
<g id="edge101" class="edge">
<title>Node50&#45;&gt;Node39</title>
<path fill="none" stroke="#191970" d="M1880.3351,-537.4137C1835.9988,-528.1811 1767.1427,-513.7739 1707.5,-501 1695.2864,-498.3842 1681.9012,-495.4735 1670.077,-492.8872"/>
<polygon fill="#191970" stroke="#191970" points="1670.674,-489.435 1660.1566,-490.7134 1669.1756,-496.2728 1670.674,-489.435"/>
</g>
<!-- Node50&#45;&gt;Node51 -->
<g id="edge99" class="edge">
<title>Node50&#45;&gt;Node51</title>
<path fill="none" stroke="#191970" d="M1938.8438,-537.3906C1951.2503,-527.7324 1970.5843,-512.6812 1985.2413,-501.271"/>
<polygon fill="#191970" stroke="#191970" points="1987.5021,-503.9466 1993.2429,-495.0419 1983.2021,-498.423 1987.5021,-503.9466"/>
</g>
<!-- Node52&#45;&gt;Node22 -->
<g id="edge107" class="edge">
<title>Node52&#45;&gt;Node22</title>
<path fill="none" stroke="#191970" d="M1629.4063,-537.3906C1661.039,-526.8749 1711.903,-509.966 1746.9229,-498.3243"/>
<polygon fill="#191970" stroke="#191970" points="1748.4115,-501.5178 1756.7967,-495.0419 1746.2032,-494.8753 1748.4115,-501.5178"/>
</g>
<!-- Node52&#45;&gt;Node39 -->
<g id="edge108" class="edge">
<title>Node52&#45;&gt;Node39</title>
<path fill="none" stroke="#191970" d="M1606.125,-537.3906C1611.3253,-528.5068 1619.1966,-515.0601 1625.6233,-504.0811"/>
<polygon fill="#191970" stroke="#191970" points="1628.7644,-505.6432 1630.7957,-495.2449 1622.7233,-502.1069 1628.7644,-505.6432"/>
</g>
<!-- Node53&#45;&gt;Node22 -->
<g id="edge113" class="edge">
<title>Node53&#45;&gt;Node22</title>
<path fill="none" stroke="#191970" d="M920.873,-594.8113C925.4774,-594.1552 930.0458,-593.5445 934.5,-593 1147.7318,-566.9359 1203.6363,-585.9169 1416.5,-557 1461.844,-550.8401 1472.5862,-545.7622 1517.5,-537 1588.9279,-523.0651 1671.1227,-507.312 1725.4499,-496.9392"/>
<polygon fill="#191970" stroke="#191970" points="1726.4298,-500.3154 1735.5963,-495.0026 1725.1174,-493.4395 1726.4298,-500.3154"/>
</g>
<!-- Node53&#45;&gt;Node24 -->
<g id="edge114" class="edge">
<title>Node53&#45;&gt;Node24</title>
<path fill="none" stroke="#191970" d="M920.9271,-595.196C925.5179,-594.4432 930.0686,-593.7061 934.5,-593 1013.7728,-580.3687 1104.6364,-567.0182 1167.4014,-557.9729"/>
<polygon fill="#191970" stroke="#191970" points="1168.2162,-561.3918 1177.6157,-556.5031 1167.2191,-554.4631 1168.2162,-561.3918"/>
</g>
<!-- Node53&#45;&gt;Node25 -->
<g id="edge110" class="edge">
<title>Node53&#45;&gt;Node25</title>
<path fill="none" stroke="#191970" d="M920.884,-594.8991C925.4857,-594.2209 930.0505,-593.5813 934.5,-593 1108.8588,-570.22 1161.8566,-613.1238 1328.5,-557 1344.3943,-551.647 1344.8995,-543.1571 1360.5,-537 1438.0099,-506.4089 1490.7604,-564.6841 1544.5,-501 1559.0299,-483.7814 1556.4638,-456.5868 1552.3224,-438.1693"/>
<polygon fill="#191970" stroke="#191970" points="1555.6465,-437.0443 1549.7492,-428.2424 1548.8704,-438.8008 1555.6465,-437.0443"/>
</g>
<!-- Node53&#45;&gt;Node32 -->
<g id="edge111" class="edge">
<title>Node53&#45;&gt;Node32</title>
<path fill="none" stroke="#191970" d="M824.3713,-593.4178C794.7511,-570.0634 738.0514,-525.3579 707.7587,-501.4732"/>
<polygon fill="#191970" stroke="#191970" points="709.631,-498.4924 699.6112,-495.0493 705.2969,-503.9893 709.631,-498.4924"/>
</g>
<!-- Node53&#45;&gt;Node39 -->
<g id="edge116" class="edge">
<title>Node53&#45;&gt;Node39</title>
<path fill="none" stroke="#191970" d="M920.8794,-594.863C925.4822,-594.1939 930.0485,-593.5662 934.5,-593 1122.9897,-569.0264 1172.8496,-586.84 1360.5,-557 1363.8537,-556.4667 1595.2652,-502.0333 1598.5,-501 1600.6507,-500.313 1602.8511,-499.5586 1605.0561,-498.764"/>
<polygon fill="#191970" stroke="#191970" points="1606.523,-501.9502 1614.6116,-495.1074 1604.0212,-495.4126 1606.523,-501.9502"/>
</g>
<!-- Node53&#45;&gt;Node40 -->
<g id="edge115" class="edge">
<title>Node53&#45;&gt;Node40</title>
<path fill="none" stroke="#191970" d="M769.6225,-593.4554C716.8019,-582.6989 646.7709,-568.4376 598.301,-558.5671"/>
<polygon fill="#191970" stroke="#191970" points="598.7966,-555.0963 588.2993,-556.5303 597.3997,-561.9555 598.7966,-555.0963"/>
</g>
<!-- Node53&#45;&gt;Node41 -->
<g id="edge112" class="edge">
<title>Node53&#45;&gt;Node41</title>
<path fill="none" stroke="#191970" d="M766.3545,-593.9636C714.531,-579.7557 649.9863,-552.4267 617.5,-501 610.1417,-489.3517 610.7066,-481.9865 617.5,-470 627.419,-452.4987 645.9146,-440.3022 663.2192,-432.1882"/>
<polygon fill="#191970" stroke="#191970" points="664.8705,-435.2869 672.6483,-428.0927 662.0817,-428.8664 664.8705,-435.2869"/>
</g>
<!-- Node54&#45;&gt;Node2 -->
<g id="edge123" class="edge">
<title>Node54&#45;&gt;Node2</title>
<path fill="none" stroke="#191970" d="M408.7108,-475.9071C400.6023,-460.0556 383.2165,-427.6937 364.5,-403 309.6222,-330.5966 257.2482,-339.3498 223.5,-255 218.382,-242.2081 215.9026,-235.4938 223.5,-224 233.9302,-208.2206 250.9932,-197.8364 268.5086,-191.0096"/>
<polygon fill="#191970" stroke="#191970" points="269.9826,-194.201 278.2467,-187.5712 267.6519,-187.6004 269.9826,-194.201"/>
</g>
<!-- Node54&#45;&gt;Node3 -->
<g id="edge127" class="edge">
<title>Node54&#45;&gt;Node3</title>
<path fill="none" stroke="#191970" d="M415.1619,-475.95C424.4679,-422.4724 470.1581,-159.9097 483.0862,-85.6178"/>
<polygon fill="#191970" stroke="#191970" points="486.5425,-86.1708 484.8088,-75.7187 479.6461,-84.9706 486.5425,-86.1708"/>
</g>
<!-- Node54&#45;&gt;Node4 -->
<g id="edge118" class="edge">
<title>Node54&#45;&gt;Node4</title>
<path fill="none" stroke="#191970" d="M476.5075,-475.9373C508.1719,-468.6273 545.6279,-455.9139 573.5,-434 697.2387,-336.7126 715.7861,-283.4979 758.5,-132 769.0195,-94.6893 746.7854,-51.7675 731.4451,-28.078"/>
<polygon fill="#191970" stroke="#191970" points="734.294,-26.0427 725.7934,-19.7189 728.4951,-29.9635 734.294,-26.0427"/>
</g>
<!-- Node54&#45;&gt;Node20 -->
<g id="edge122" class="edge">
<title>Node54&#45;&gt;Node20</title>
<path fill="none" stroke="#191970" d="M393.1549,-475.9005C369.0077,-464.5072 328.5496,-445.4178 300.9755,-432.4075"/>
<polygon fill="#191970" stroke="#191970" points="302.3448,-429.1835 291.8074,-428.0817 299.3577,-435.5142 302.3448,-429.1835"/>
</g>
<!-- Node54&#45;&gt;Node25 -->
<g id="edge126" class="edge">
<title>Node54&#45;&gt;Node25</title>
<path fill="none" stroke="#191970" d="M494.3821,-478.9722C531.829,-476.0482 576.9185,-472.6663 617.5,-470 929.1979,-449.5211 1300.0872,-430.5948 1462.8851,-422.5609"/>
<polygon fill="#191970" stroke="#191970" points="1463.4889,-426.0355 1473.3045,-422.0476 1463.1444,-419.044 1463.4889,-426.0355"/>
</g>
<!-- Node54&#45;&gt;Node28 -->
<g id="edge121" class="edge">
<title>Node54&#45;&gt;Node28</title>
<path fill="none" stroke="#191970" d="M421.1733,-475.8081C448.1235,-441.7378 537.4192,-328.5783 548.5,-311 586.4452,-250.8047 578.2022,-225.2207 620.5,-168 628.566,-157.0883 639.3465,-146.4975 648.6473,-138.2341"/>
<polygon fill="#191970" stroke="#191970" points="651.0355,-140.7965 656.3344,-131.6219 646.4707,-135.4897 651.0355,-140.7965"/>
</g>
<!-- Node54&#45;&gt;Node33 -->
<g id="edge124" class="edge">
<title>Node54&#45;&gt;Node33</title>
<path fill="none" stroke="#191970" d="M492.1359,-475.9687C567.3936,-466.6085 684.3532,-451.4416 794.7355,-434.2434"/>
<polygon fill="#191970" stroke="#191970" points="795.3728,-437.6864 804.7106,-432.6808 794.2894,-430.7707 795.3728,-437.6864"/>
</g>
<!-- Node54&#45;&gt;Node37 -->
<g id="edge125" class="edge">
<title>Node54&#45;&gt;Node37</title>
<path fill="none" stroke="#191970" d="M491.5193,-475.9963C509.562,-473.9127 528.6904,-471.7952 546.5,-470 731.0201,-451.4005 780.8394,-459.075 968.436,-434.0614"/>
<polygon fill="#191970" stroke="#191970" points="968.9041,-437.53 978.3476,-432.7267 967.9699,-430.5927 968.9041,-437.53"/>
</g>
<!-- Node54&#45;&gt;Node41 -->
<g id="edge120" class="edge">
<title>Node54&#45;&gt;Node41</title>
<path fill="none" stroke="#191970" d="M454.742,-475.9717C506.6681,-463.975 595.8748,-443.3651 652.1631,-430.3606"/>
<polygon fill="#191970" stroke="#191970" points="652.9753,-433.7652 661.9308,-428.1039 651.3996,-426.9449 652.9753,-433.7652"/>
</g>
<!-- Node55 -->
<g id="node48" class="node">
<title>Node55</title>
<polygon fill="none" stroke="#bfbfbf" points="487,-409 487,-428 564,-428 564,-409 487,-409"/>
<text text-anchor="middle" x="525.5" y="-416" font-family="FreeSans.ttf" font-size="10.00" fill="#000000">Eigen/Dense</text>
</g>
<!-- Node54&#45;&gt;Node55 -->
<g id="edge119" class="edge">
<title>Node54&#45;&gt;Node55</title>
<path fill="none" stroke="#191970" d="M429.5469,-475.9005C448.1767,-464.7559 479.1158,-446.2477 500.8128,-433.2682"/>
<polygon fill="#191970" stroke="#191970" points="502.698,-436.219 509.4829,-428.0817 499.1044,-430.2118 502.698,-436.219"/>
</g>
<!-- Node56&#45;&gt;Node2 -->
<g id="edge130" class="edge">
<title>Node56&#45;&gt;Node2</title>
<path fill="none" stroke="#191970" d="M331.5,-229.8906C331.5,-221.3657 331.5,-208.6392 331.5,-197.9235"/>
<polygon fill="#191970" stroke="#191970" points="335.0001,-197.7448 331.5,-187.7449 328.0001,-197.7449 335.0001,-197.7448"/>
</g>
<!-- Node56&#45;&gt;Node28 -->
<g id="edge129" class="edge">
<title>Node56&#45;&gt;Node28</title>
<path fill="none" stroke="#191970" d="M352.6275,-229.8939C385.0729,-215.354 449.315,-187.3999 505.5,-168 543.534,-154.8674 587.4816,-142.6307 620.1529,-134.0847"/>
<polygon fill="#191970" stroke="#191970" points="621.1101,-137.4523 629.9112,-131.554 619.3528,-130.6765 621.1101,-137.4523"/>
</g>
</g>
</svg>
