<?xml version="1.0" encoding="UTF-8" standalone="no"?>
<!DOCTYPE svg PUBLIC "-//W3C//DTD SVG 1.1//EN"
 "http://www.w3.org/Graphics/SVG/1.1/DTD/svg11.dtd">
<!-- Generated by graphviz version 2.40.1 (20161225.0304)
 -->
<!-- Title: ExternalWrenchesEstimation.h Pages: 1 -->
<svg width="1568pt" height="666pt"
 viewBox="0.00 0.00 1567.50 666.00" xmlns="http://www.w3.org/2000/svg" xmlns:xlink="http://www.w3.org/1999/xlink">
<g id="graph0" class="graph" transform="scale(1 1) rotate(0) translate(4 662)">
<title>ExternalWrenchesEstimation.h</title>
<!-- Node0 -->
<g id="node1" class="node">
<title>Node0</title>
<polygon fill="#bfbfbf" stroke="#000000" points="869.5,-638.5 869.5,-657.5 1035.5,-657.5 1035.5,-638.5 869.5,-638.5"/>
<text text-anchor="middle" x="952.5" y="-645.5" font-family="FreeSans.ttf" font-size="10.00" fill="#000000">ExternalWrenchesEstimation.h</text>
</g>
<!-- Node1 -->
<g id="node2" class="node">
<title>Node1</title>
<g id="a_node2"><a xlink:href="Direction_8h.html" target="_top" xlink:title="iDynTree/Core/Direction.h">
<polygon fill="none" stroke="#000000" points="1257,-230 1257,-249 1398,-249 1398,-230 1257,-230"/>
<text text-anchor="middle" x="1327.5" y="-237" font-family="FreeSans.ttf" font-size="10.00" fill="#000000">iDynTree/Core/Direction.h</text>
</a>
</g>
</g>
<!-- Node0&#45;&gt;Node1 -->
<g id="edge1" class="edge">
<title>Node0&#45;&gt;Node1</title>
<path fill="none" stroke="#191970" d="M1035.5575,-641.3506C1108.4443,-634.3451 1208.0394,-621.5794 1242.5,-602 1275.6991,-583.1374 1297.5,-574.1834 1297.5,-536 1297.5,-536 1297.5,-536 1297.5,-357 1297.5,-321.3765 1310.6056,-281.5133 1319.4926,-258.5771"/>
<polygon fill="#191970" stroke="#191970" points="1322.845,-259.6214 1323.3286,-249.0376 1316.3504,-257.0097 1322.845,-259.6214"/>
</g>
<!-- Node3 -->
<g id="node4" class="node">
<title>Node3</title>
<g id="a_node4"><a xlink:href="VectorFixSize_8h.html" target="_top" xlink:title="iDynTree/Core/VectorFixSize.h">
<polygon fill="none" stroke="#000000" points="1033,-168.5 1033,-187.5 1194,-187.5 1194,-168.5 1033,-168.5"/>
<text text-anchor="middle" x="1113.5" y="-175.5" font-family="FreeSans.ttf" font-size="10.00" fill="#000000">iDynTree/Core/VectorFixSize.h</text>
</a>
</g>
</g>
<!-- Node0&#45;&gt;Node3 -->
<g id="edge53" class="edge">
<title>Node0&#45;&gt;Node3</title>
<path fill="none" stroke="#191970" d="M1002.162,-638.4471C1081.6242,-621.7251 1228.5,-584.2857 1228.5,-536 1228.5,-536 1228.5,-536 1228.5,-301 1228.5,-263.2222 1217.9849,-251.8869 1192.5,-224 1179.9984,-210.3201 1162.4659,-199.5496 1147.0927,-191.8803"/>
<polygon fill="#191970" stroke="#191970" points="1148.3996,-188.6266 1137.864,-187.5076 1145.4022,-194.9524 1148.3996,-188.6266"/>
</g>
<!-- Node18 -->
<g id="node19" class="node">
<title>Node18</title>
<g id="a_node19"><a xlink:href="Position_8h.html" target="_top" xlink:title="iDynTree/Core/Position.h">
<polygon fill="none" stroke="#000000" points="506.5,-347.5 506.5,-366.5 642.5,-366.5 642.5,-347.5 506.5,-347.5"/>
<text text-anchor="middle" x="574.5" y="-354.5" font-family="FreeSans.ttf" font-size="10.00" fill="#000000">iDynTree/Core/Position.h</text>
</a>
</g>
</g>
<!-- Node0&#45;&gt;Node18 -->
<g id="edge23" class="edge">
<title>Node0&#45;&gt;Node18</title>
<path fill="none" stroke="#191970" d="M869.4015,-638.553C722.7827,-620.7502 433.5,-580.044 433.5,-536 433.5,-536 433.5,-536 433.5,-474.5 433.5,-421.1406 493.8311,-387.3128 535.565,-370.2957"/>
<polygon fill="#191970" stroke="#191970" points="536.9065,-373.5293 544.9418,-366.6239 534.354,-367.0112 536.9065,-373.5293"/>
</g>
<!-- Node26 -->
<g id="node27" class="node">
<title>Node26</title>
<g id="a_node27"><a xlink:href="MatrixDynSize_8h.html" target="_top" xlink:title="iDynTree/Core/MatrixDynSize.h">
<polygon fill="none" stroke="#000000" points="593,-168.5 593,-187.5 760,-187.5 760,-168.5 593,-168.5"/>
<text text-anchor="middle" x="676.5" y="-175.5" font-family="FreeSans.ttf" font-size="10.00" fill="#000000">iDynTree/Core/MatrixDynSize.h</text>
</a>
</g>
</g>
<!-- Node0&#45;&gt;Node26 -->
<g id="edge47" class="edge">
<title>Node0&#45;&gt;Node26</title>
<path fill="none" stroke="#191970" d="M869.0982,-642.3882C764.4491,-634.747 591.211,-619.9453 529.5,-602 465.753,-583.4627 395.5,-602.3876 395.5,-536 395.5,-536 395.5,-536 395.5,-413 395.5,-319.5768 414.7549,-282.6178 487.5,-224 505.4073,-209.5704 557.7574,-197.4742 602.8325,-189.3129"/>
<polygon fill="#191970" stroke="#191970" points="603.6792,-192.7176 612.9168,-187.5294 602.46,-185.8246 603.6792,-192.7176"/>
</g>
<!-- Node27 -->
<g id="node28" class="node">
<title>Node27</title>
<g id="a_node28"><a xlink:href="VectorDynSize_8h.html" target="_top" xlink:title="iDynTree/Core/VectorDynSize.h">
<polygon fill="none" stroke="#000000" points="0,-168.5 0,-187.5 167,-187.5 167,-168.5 0,-168.5"/>
<text text-anchor="middle" x="83.5" y="-175.5" font-family="FreeSans.ttf" font-size="10.00" fill="#000000">iDynTree/Core/VectorDynSize.h</text>
</a>
</g>
</g>
<!-- Node0&#45;&gt;Node27 -->
<g id="edge50" class="edge">
<title>Node0&#45;&gt;Node27</title>
<path fill="none" stroke="#191970" d="M869.1995,-645.4378C658.2314,-637.8449 119.5,-611.1029 119.5,-536 119.5,-536 119.5,-536 119.5,-301 119.5,-262.8178 103.3235,-220.5555 92.6578,-196.8402"/>
<polygon fill="#191970" stroke="#191970" points="95.7505,-195.1905 88.3551,-187.6037 89.4052,-198.1464 95.7505,-195.1905"/>
</g>
<!-- Node28 -->
<g id="node29" class="node">
<title>Node28</title>
<g id="a_node29"><a xlink:href="Indices_8h.html" target="_top" xlink:title="iDynTree/Model/Indices.h">
<polygon fill="none" stroke="#000000" points="996.5,-526.5 996.5,-545.5 1134.5,-545.5 1134.5,-526.5 996.5,-526.5"/>
<text text-anchor="middle" x="1065.5" y="-533.5" font-family="FreeSans.ttf" font-size="10.00" fill="#000000">iDynTree/Model/Indices.h</text>
</a>
</g>
</g>
<!-- Node0&#45;&gt;Node28 -->
<g id="edge54" class="edge">
<title>Node0&#45;&gt;Node28</title>
<path fill="none" stroke="#191970" d="M962.1343,-638.4509C981.3149,-619.4401 1024.4948,-576.6423 1048.5338,-552.816"/>
<polygon fill="#191970" stroke="#191970" points="1051.2515,-555.0503 1055.8901,-545.5249 1046.3238,-550.0786 1051.2515,-555.0503"/>
</g>
<!-- Node30 -->
<g id="node31" class="node">
<title>Node30</title>
<g id="a_node31"><a xlink:href="LinkState_8h.html" target="_top" xlink:title="iDynTree/Model/LinkState.h">
<polygon fill="none" stroke="#000000" points="728,-582.5 728,-601.5 877,-601.5 877,-582.5 728,-582.5"/>
<text text-anchor="middle" x="802.5" y="-589.5" font-family="FreeSans.ttf" font-size="10.00" fill="#000000">iDynTree/Model/LinkState.h</text>
</a>
</g>
</g>
<!-- Node0&#45;&gt;Node30 -->
<g id="edge58" class="edge">
<title>Node0&#45;&gt;Node30</title>
<path fill="none" stroke="#191970" d="M926.7141,-638.3733C902.0953,-629.1822 864.81,-615.2624 837.5125,-605.0713"/>
<polygon fill="#191970" stroke="#191970" points="838.542,-601.7198 827.9494,-601.5011 836.0937,-608.2777 838.542,-601.7198"/>
</g>
<!-- Node39 -->
<g id="node40" class="node">
<title>Node39</title>
<polygon fill="none" stroke="#bfbfbf" points="1153,-526.5 1153,-545.5 1200,-545.5 1200,-526.5 1153,-526.5"/>
<text text-anchor="middle" x="1176.5" y="-533.5" font-family="FreeSans.ttf" font-size="10.00" fill="#000000">vector</text>
</g>
<!-- Node0&#45;&gt;Node39 -->
<g id="edge87" class="edge">
<title>Node0&#45;&gt;Node39</title>
<path fill="none" stroke="#191970" d="M971.5981,-638.4509C1011.1077,-618.6961 1101.9869,-573.2565 1148.2825,-550.1088"/>
<polygon fill="#191970" stroke="#191970" points="1150.0712,-553.1276 1157.4502,-545.5249 1146.9407,-546.8666 1150.0712,-553.1276"/>
</g>
<!-- Node2 -->
<g id="node3" class="node">
<title>Node2</title>
<polygon fill="none" stroke="#bfbfbf" points="524.5,-112.5 524.5,-131.5 568.5,-131.5 568.5,-112.5 524.5,-112.5"/>
<text text-anchor="middle" x="546.5" y="-119.5" font-family="FreeSans.ttf" font-size="10.00" fill="#000000">string</text>
</g>
<!-- Node1&#45;&gt;Node2 -->
<g id="edge2" class="edge">
<title>Node1&#45;&gt;Node2</title>
<path fill="none" stroke="#191970" d="M1256.9905,-232.4361C1127.7535,-219.4251 864.2818,-192.5796 844.5,-188 819.1597,-182.1336 814.5824,-174.8859 789.5,-168 715.1715,-147.5946 625.5956,-133.1875 578.7062,-126.4003"/>
<polygon fill="#191970" stroke="#191970" points="578.947,-122.8993 568.5533,-124.9537 577.9596,-129.8293 578.947,-122.8993"/>
</g>
<!-- Node1&#45;&gt;Node3 -->
<g id="edge3" class="edge">
<title>Node1&#45;&gt;Node3</title>
<path fill="none" stroke="#191970" d="M1294.0625,-229.8906C1257,-219.2395 1197.1151,-202.0296 1156.5688,-190.3772"/>
<polygon fill="#191970" stroke="#191970" points="1157.2804,-186.9402 1146.7027,-187.5419 1155.347,-193.6679 1157.2804,-186.9402"/>
</g>
<!-- Node4 -->
<g id="node5" class="node">
<title>Node4</title>
<g id="a_node5"><a xlink:href="Utils_8h.html" target="_top" xlink:title="iDynTree/Core/Utils.h">
<polygon fill="none" stroke="#000000" points="1145,-56.5 1145,-75.5 1264,-75.5 1264,-56.5 1145,-56.5"/>
<text text-anchor="middle" x="1204.5" y="-63.5" font-family="FreeSans.ttf" font-size="10.00" fill="#000000">iDynTree/Core/Utils.h</text>
</a>
</g>
</g>
<!-- Node1&#45;&gt;Node4 -->
<g id="edge22" class="edge">
<title>Node1&#45;&gt;Node4</title>
<path fill="none" stroke="#191970" d="M1341.5659,-229.6744C1371.5956,-207.5217 1436.7117,-152.4615 1404.5,-112 1388.2469,-91.5843 1325.1104,-79.4713 1274.0658,-72.8438"/>
<polygon fill="#191970" stroke="#191970" points="1274.3924,-69.3574 1264.0356,-71.5905 1273.5245,-76.3034 1274.3924,-69.3574"/>
</g>
<!-- Node3&#45;&gt;Node2 -->
<g id="edge17" class="edge">
<title>Node3&#45;&gt;Node2</title>
<path fill="none" stroke="#191970" d="M1032.5529,-168.9498C1029.4969,-168.6259 1026.4711,-168.3083 1023.5,-168 856.3411,-150.6542 655.9919,-132.0419 578.906,-124.9615"/>
<polygon fill="#191970" stroke="#191970" points="579.1411,-121.4685 568.8632,-124.0403 578.5016,-128.4392 579.1411,-121.4685"/>
</g>
<!-- Node3&#45;&gt;Node4 -->
<g id="edge4" class="edge">
<title>Node3&#45;&gt;Node4</title>
<path fill="none" stroke="#191970" d="M1121.2586,-168.4509C1136.5706,-149.6054 1170.8748,-107.3849 1190.3285,-83.4419"/>
<polygon fill="#191970" stroke="#191970" points="1193.1715,-85.4931 1196.761,-75.5249 1187.7387,-81.079 1193.1715,-85.4931"/>
</g>
<!-- Node5 -->
<g id="node6" class="node">
<title>Node5</title>
<polygon fill="none" stroke="#bfbfbf" points="1092,-.5 1092,-19.5 1145,-19.5 1145,-.5 1092,-.5"/>
<text text-anchor="middle" x="1118.5" y="-7.5" font-family="FreeSans.ttf" font-size="10.00" fill="#000000">cstddef</text>
</g>
<!-- Node3&#45;&gt;Node5 -->
<g id="edge20" class="edge">
<title>Node3&#45;&gt;Node5</title>
<path fill="none" stroke="#191970" d="M1113.7831,-168.4862C1114.5735,-141.9293 1116.8165,-66.5651 1117.8998,-30.1655"/>
<polygon fill="#191970" stroke="#191970" points="1121.4084,-29.9276 1118.2075,-19.8279 1114.4115,-29.7193 1121.4084,-29.9276"/>
</g>
<!-- Node7 -->
<g id="node8" class="node">
<title>Node7</title>
<g id="a_node8"><a xlink:href="Span_8h.html" target="_top" xlink:title="iDynTree/Core/Span.h">
<polygon fill="none" stroke="#000000" points="655,-56.5 655,-75.5 776,-75.5 776,-56.5 655,-56.5"/>
<text text-anchor="middle" x="715.5" y="-63.5" font-family="FreeSans.ttf" font-size="10.00" fill="#000000">iDynTree/Core/Span.h</text>
</a>
</g>
</g>
<!-- Node3&#45;&gt;Node7 -->
<g id="edge7" class="edge">
<title>Node3&#45;&gt;Node7</title>
<path fill="none" stroke="#191970" d="M1032.9866,-168.922C926.436,-156.7679 751.2617,-136.2387 745.5,-132 730.6518,-121.0767 722.974,-101.0511 719.122,-85.9127"/>
<polygon fill="#191970" stroke="#191970" points="722.4999,-84.9755 716.9455,-75.9533 715.6613,-86.47 722.4999,-84.9755"/>
</g>
<!-- Node8 -->
<g id="node9" class="node">
<title>Node8</title>
<polygon fill="none" stroke="#bfbfbf" points="912.5,-.5 912.5,-19.5 964.5,-19.5 964.5,-.5 912.5,-.5"/>
<text text-anchor="middle" x="938.5" y="-7.5" font-family="FreeSans.ttf" font-size="10.00" fill="#000000">cassert</text>
</g>
<!-- Node3&#45;&gt;Node8 -->
<g id="edge19" class="edge">
<title>Node3&#45;&gt;Node8</title>
<path fill="none" stroke="#191970" d="M1106.3337,-168.1297C1096.4541,-154.795 1077.7891,-130.5594 1059.5,-112 1026.896,-78.9141 984.5824,-45.0419 959.6041,-25.8524"/>
<polygon fill="#191970" stroke="#191970" points="961.611,-22.9813 951.5363,-19.7025 957.3674,-28.5483 961.611,-22.9813"/>
</g>
<!-- Node16 -->
<g id="node17" class="node">
<title>Node16</title>
<polygon fill="none" stroke="#bfbfbf" points="1182.5,-112.5 1182.5,-131.5 1238.5,-131.5 1238.5,-112.5 1182.5,-112.5"/>
<text text-anchor="middle" x="1210.5" y="-119.5" font-family="FreeSans.ttf" font-size="10.00" fill="#000000">sstream</text>
</g>
<!-- Node3&#45;&gt;Node16 -->
<g id="edge18" class="edge">
<title>Node3&#45;&gt;Node16</title>
<path fill="none" stroke="#191970" d="M1130.3961,-168.2455C1145.418,-159.5731 1167.6043,-146.7645 1184.821,-136.825"/>
<polygon fill="#191970" stroke="#191970" points="1186.8871,-139.6737 1193.7975,-131.6427 1183.3872,-133.6114 1186.8871,-139.6737"/>
</g>
<!-- Node17 -->
<g id="node18" class="node">
<title>Node17</title>
<polygon fill="none" stroke="#bfbfbf" points="1000.5,-112.5 1000.5,-131.5 1050.5,-131.5 1050.5,-112.5 1000.5,-112.5"/>
<text text-anchor="middle" x="1025.5" y="-119.5" font-family="FreeSans.ttf" font-size="10.00" fill="#000000">cstring</text>
</g>
<!-- Node3&#45;&gt;Node17 -->
<g id="edge21" class="edge">
<title>Node3&#45;&gt;Node17</title>
<path fill="none" stroke="#191970" d="M1098.1716,-168.2455C1084.6697,-159.6534 1064.7878,-147.0014 1049.2314,-137.1018"/>
<polygon fill="#191970" stroke="#191970" points="1050.9685,-134.0587 1040.6528,-131.6427 1047.2103,-139.9643 1050.9685,-134.0587"/>
</g>
<!-- Node4&#45;&gt;Node5 -->
<g id="edge5" class="edge">
<title>Node4&#45;&gt;Node5</title>
<path fill="none" stroke="#191970" d="M1189.5199,-56.2455C1176.3249,-47.6534 1156.8949,-35.0014 1141.6921,-25.1018"/>
<polygon fill="#191970" stroke="#191970" points="1143.5983,-22.1665 1133.3084,-19.6427 1139.7785,-28.0325 1143.5983,-22.1665"/>
</g>
<!-- Node6 -->
<g id="node7" class="node">
<title>Node6</title>
<polygon fill="none" stroke="#bfbfbf" points="1164.5,-.5 1164.5,-19.5 1244.5,-19.5 1244.5,-.5 1164.5,-.5"/>
<text text-anchor="middle" x="1204.5" y="-7.5" font-family="FreeSans.ttf" font-size="10.00" fill="#000000">CoreExport.h</text>
</g>
<!-- Node4&#45;&gt;Node6 -->
<g id="edge6" class="edge">
<title>Node4&#45;&gt;Node6</title>
<path fill="none" stroke="#191970" d="M1204.5,-56.2455C1204.5,-48.9382 1204.5,-38.6944 1204.5,-29.7046"/>
<polygon fill="#191970" stroke="#191970" points="1208.0001,-29.6426 1204.5,-19.6427 1201.0001,-29.6427 1208.0001,-29.6426"/>
</g>
<!-- Node7&#45;&gt;Node5 -->
<g id="edge11" class="edge">
<title>Node7&#45;&gt;Node5</title>
<path fill="none" stroke="#191970" d="M776.2695,-57.5556C860.9751,-45.7851 1011.9515,-24.8057 1081.5243,-15.1381"/>
<polygon fill="#191970" stroke="#191970" points="1082.1521,-18.5845 1091.5752,-13.7414 1081.1886,-11.6512 1082.1521,-18.5845"/>
</g>
<!-- Node7&#45;&gt;Node8 -->
<g id="edge8" class="edge">
<title>Node7&#45;&gt;Node8</title>
<path fill="none" stroke="#191970" d="M755.7132,-56.4736C793.6419,-47.402 852.0451,-33.2102 902.5,-20 902.598,-19.9743 902.6962,-19.9486 902.7946,-19.9228"/>
<polygon fill="#191970" stroke="#191970" points="903.4248,-23.3775 912.1784,-17.4088 901.6132,-16.6159 903.4248,-23.3775"/>
</g>
<!-- Node9 -->
<g id="node10" class="node">
<title>Node9</title>
<polygon fill="none" stroke="#bfbfbf" points="742.5,-.5 742.5,-19.5 806.5,-19.5 806.5,-.5 742.5,-.5"/>
<text text-anchor="middle" x="774.5" y="-7.5" font-family="FreeSans.ttf" font-size="10.00" fill="#000000">algorithm</text>
</g>
<!-- Node7&#45;&gt;Node9 -->
<g id="edge9" class="edge">
<title>Node7&#45;&gt;Node9</title>
<path fill="none" stroke="#191970" d="M725.777,-56.2455C734.3218,-48.1352 746.6778,-36.4075 756.8085,-26.7919"/>
<polygon fill="#191970" stroke="#191970" points="759.4972,-29.0655 764.3408,-19.6427 754.6782,-23.9884 759.4972,-29.0655"/>
</g>
<!-- Node10 -->
<g id="node11" class="node">
<title>Node10</title>
<polygon fill="none" stroke="#bfbfbf" points="401.5,-.5 401.5,-19.5 443.5,-19.5 443.5,-.5 401.5,-.5"/>
<text text-anchor="middle" x="422.5" y="-7.5" font-family="FreeSans.ttf" font-size="10.00" fill="#000000">array</text>
</g>
<!-- Node7&#45;&gt;Node10 -->
<g id="edge10" class="edge">
<title>Node7&#45;&gt;Node10</title>
<path fill="none" stroke="#191970" d="M654.9011,-58.0131C603.5512,-50.654 527.879,-38.4221 453.6736,-20.0135"/>
<polygon fill="#191970" stroke="#191970" points="454.242,-16.5474 443.6898,-17.4965 452.5307,-23.335 454.242,-16.5474"/>
</g>
<!-- Node11 -->
<g id="node12" class="node">
<title>Node11</title>
<polygon fill="none" stroke="#bfbfbf" points="462,-.5 462,-19.5 515,-19.5 515,-.5 462,-.5"/>
<text text-anchor="middle" x="488.5" y="-7.5" font-family="FreeSans.ttf" font-size="10.00" fill="#000000">iterator</text>
</g>
<!-- Node7&#45;&gt;Node11 -->
<g id="edge12" class="edge">
<title>Node7&#45;&gt;Node11</title>
<path fill="none" stroke="#191970" d="M674.0404,-56.4514C637.4017,-47.9155 582.2803,-34.8372 525.1422,-20.103"/>
<polygon fill="#191970" stroke="#191970" points="525.7668,-16.6494 515.2087,-17.5298 524.0114,-23.4257 525.7668,-16.6494"/>
</g>
<!-- Node12 -->
<g id="node13" class="node">
<title>Node12</title>
<polygon fill="none" stroke="#bfbfbf" points="533.5,-.5 533.5,-19.5 577.5,-19.5 577.5,-.5 533.5,-.5"/>
<text text-anchor="middle" x="555.5" y="-7.5" font-family="FreeSans.ttf" font-size="10.00" fill="#000000">limits</text>
</g>
<!-- Node7&#45;&gt;Node12 -->
<g id="edge13" class="edge">
<title>Node7&#45;&gt;Node12</title>
<path fill="none" stroke="#191970" d="M687.995,-56.3733C660.0213,-46.5825 616.7157,-31.4255 587.2891,-21.1262"/>
<polygon fill="#191970" stroke="#191970" points="588.1021,-17.7026 577.5073,-17.7026 585.7896,-24.3096 588.1021,-17.7026"/>
</g>
<!-- Node13 -->
<g id="node14" class="node">
<title>Node13</title>
<polygon fill="none" stroke="#bfbfbf" points="596,-.5 596,-19.5 661,-19.5 661,-.5 596,-.5"/>
<text text-anchor="middle" x="628.5" y="-7.5" font-family="FreeSans.ttf" font-size="10.00" fill="#000000">stdexcept</text>
</g>
<!-- Node7&#45;&gt;Node13 -->
<g id="edge14" class="edge">
<title>Node7&#45;&gt;Node13</title>
<path fill="none" stroke="#191970" d="M700.3458,-56.2455C686.9973,-47.6534 667.3414,-35.0014 651.9617,-25.1018"/>
<polygon fill="#191970" stroke="#191970" points="653.7836,-22.1121 643.4806,-19.6427 649.9949,-27.9982 653.7836,-22.1121"/>
</g>
<!-- Node14 -->
<g id="node15" class="node">
<title>Node14</title>
<polygon fill="none" stroke="#bfbfbf" points="825,-.5 825,-19.5 894,-19.5 894,-.5 825,-.5"/>
<text text-anchor="middle" x="859.5" y="-7.5" font-family="FreeSans.ttf" font-size="10.00" fill="#000000">type_traits</text>
</g>
<!-- Node7&#45;&gt;Node14 -->
<g id="edge15" class="edge">
<title>Node7&#45;&gt;Node14</title>
<path fill="none" stroke="#191970" d="M740.2545,-56.3733C763.7849,-47.2226 799.3687,-33.3844 825.5426,-23.2057"/>
<polygon fill="#191970" stroke="#191970" points="827.0171,-26.3877 835.0685,-19.5011 824.4799,-19.8636 827.0171,-26.3877"/>
</g>
<!-- Node15 -->
<g id="node16" class="node">
<title>Node15</title>
<polygon fill="none" stroke="#bfbfbf" points="679,-.5 679,-19.5 724,-19.5 724,-.5 679,-.5"/>
<text text-anchor="middle" x="701.5" y="-7.5" font-family="FreeSans.ttf" font-size="10.00" fill="#000000">utility</text>
</g>
<!-- Node7&#45;&gt;Node15 -->
<g id="edge16" class="edge">
<title>Node7&#45;&gt;Node15</title>
<path fill="none" stroke="#191970" d="M713.0614,-56.2455C711.2145,-48.8579 708.6172,-38.4689 706.3522,-29.4087"/>
<polygon fill="#191970" stroke="#191970" points="709.7316,-28.4952 703.9107,-19.6427 702.9406,-30.193 709.7316,-28.4952"/>
</g>
<!-- Node18&#45;&gt;Node2 -->
<g id="edge46" class="edge">
<title>Node18&#45;&gt;Node2</title>
<path fill="none" stroke="#191970" d="M553.1138,-347.4286C521.5393,-333.5674 460.3655,-307.7377 406.5,-291 338.9628,-270.0141 295.4893,-310.3771 251.5,-255 178.0559,-162.543 424.0546,-132.2527 514.4708,-124.3714"/>
<polygon fill="#191970" stroke="#191970" points="514.7754,-127.8582 524.4494,-123.5381 514.1929,-120.8825 514.7754,-127.8582"/>
</g>
<!-- Node19 -->
<g id="node20" class="node">
<title>Node19</title>
<g id="a_node20"><a xlink:href="PositionRaw_8h.html" target="_top" xlink:title="iDynTree/Core/PositionRaw.h">
<polygon fill="none" stroke="#000000" points="496.5,-230 496.5,-249 652.5,-249 652.5,-230 496.5,-230"/>
<text text-anchor="middle" x="574.5" y="-237" font-family="FreeSans.ttf" font-size="10.00" fill="#000000">iDynTree/Core/PositionRaw.h</text>
</a>
</g>
</g>
<!-- Node18&#45;&gt;Node19 -->
<g id="edge24" class="edge">
<title>Node18&#45;&gt;Node19</title>
<path fill="none" stroke="#191970" d="M574.5,-347.3845C574.5,-328.1913 574.5,-284.786 574.5,-259.2663"/>
<polygon fill="#191970" stroke="#191970" points="578.0001,-259.2483 574.5,-249.2484 571.0001,-259.2484 578.0001,-259.2483"/>
</g>
<!-- Node20 -->
<g id="node21" class="node">
<title>Node20</title>
<g id="a_node21"><a xlink:href="Rotation_8h.html" target="_top" xlink:title="iDynTree/Core/Rotation.h">
<polygon fill="none" stroke="#000000" points="719,-291.5 719,-310.5 856,-310.5 856,-291.5 719,-291.5"/>
<text text-anchor="middle" x="787.5" y="-298.5" font-family="FreeSans.ttf" font-size="10.00" fill="#000000">iDynTree/Core/Rotation.h</text>
</a>
</g>
</g>
<!-- Node18&#45;&gt;Node20 -->
<g id="edge27" class="edge">
<title>Node18&#45;&gt;Node20</title>
<path fill="none" stroke="#191970" d="M611.116,-347.3733C647.148,-337.9001 702.2878,-323.4032 741.3114,-313.1435"/>
<polygon fill="#191970" stroke="#191970" points="742.5804,-316.4289 751.3618,-310.5011 740.8005,-309.6589 742.5804,-316.4289"/>
</g>
<!-- Node19&#45;&gt;Node2 -->
<g id="edge26" class="edge">
<title>Node19&#45;&gt;Node2</title>
<path fill="none" stroke="#191970" d="M569.0481,-229.9888C563.5679,-219.9169 555.3911,-203.3786 551.5,-188 547.6631,-172.8355 546.4929,-155.1369 546.2383,-141.8868"/>
<polygon fill="#191970" stroke="#191970" points="549.7374,-141.5526 546.2063,-131.5635 542.7374,-141.5743 549.7374,-141.5526"/>
</g>
<!-- Node19&#45;&gt;Node3 -->
<g id="edge25" class="edge">
<title>Node19&#45;&gt;Node3</title>
<path fill="none" stroke="#191970" d="M650.1673,-229.9603C666.4366,-227.9531 683.5372,-225.8764 699.5,-224 700.5015,-223.8823 901.3451,-201.5689 1022.8854,-188.0665"/>
<polygon fill="#191970" stroke="#191970" points="1023.3892,-191.5322 1032.9416,-186.9493 1022.6162,-184.575 1023.3892,-191.5322"/>
</g>
<!-- Node20&#45;&gt;Node2 -->
<g id="edge28" class="edge">
<title>Node20&#45;&gt;Node2</title>
<path fill="none" stroke="#191970" d="M766.1993,-291.3649C747.9432,-282.7596 721.2315,-269.3305 699.5,-255 681.3042,-243.0011 679.9858,-235.5472 661.5,-224 629.1177,-203.7722 611.5371,-213.9172 583.5,-188 569.5282,-175.0846 559.5222,-155.6559 553.467,-141.2189"/>
<polygon fill="#191970" stroke="#191970" points="556.6645,-139.7857 549.7559,-131.7532 550.1475,-142.3408 556.6645,-139.7857"/>
</g>
<!-- Node20&#45;&gt;Node3 -->
<g id="edge45" class="edge">
<title>Node20&#45;&gt;Node3</title>
<path fill="none" stroke="#191970" d="M806.3876,-291.3176C837.2344,-275.7516 900.5976,-244.804 956.5,-224 992.4095,-210.6364 1034.0696,-198.5835 1065.4483,-190.1707"/>
<polygon fill="#191970" stroke="#191970" points="1066.4859,-193.5166 1075.2546,-187.5702 1064.6915,-186.7505 1066.4859,-193.5166"/>
</g>
<!-- Node21 -->
<g id="node22" class="node">
<title>Node21</title>
<g id="a_node22"><a xlink:href="GeomVector3_8h.html" target="_top" xlink:title="iDynTree/Core/GeomVector3.h">
<polygon fill="none" stroke="#000000" points="999,-230 999,-249 1162,-249 1162,-230 999,-230"/>
<text text-anchor="middle" x="1080.5" y="-237" font-family="FreeSans.ttf" font-size="10.00" fill="#000000">iDynTree/Core/GeomVector3.h</text>
</a>
</g>
</g>
<!-- Node20&#45;&gt;Node21 -->
<g id="edge29" class="edge">
<title>Node20&#45;&gt;Node21</title>
<path fill="none" stroke="#191970" d="M832.9598,-291.4581C884.7114,-280.5956 969.2612,-262.8488 1024.8962,-251.1711"/>
<polygon fill="#191970" stroke="#191970" points="1025.8658,-254.5439 1034.9336,-249.0643 1024.4278,-247.6932 1025.8658,-254.5439"/>
</g>
<!-- Node22 -->
<g id="node23" class="node">
<title>Node22</title>
<g id="a_node23"><a xlink:href="RotationRaw_8h.html" target="_top" xlink:title="iDynTree/Core/RotationRaw.h">
<polygon fill="none" stroke="#000000" points="708.5,-230 708.5,-249 866.5,-249 866.5,-230 708.5,-230"/>
<text text-anchor="middle" x="787.5" y="-237" font-family="FreeSans.ttf" font-size="10.00" fill="#000000">iDynTree/Core/RotationRaw.h</text>
</a>
</g>
</g>
<!-- Node20&#45;&gt;Node22 -->
<g id="edge31" class="edge">
<title>Node20&#45;&gt;Node22</title>
<path fill="none" stroke="#191970" d="M787.5,-291.3906C787.5,-282.8657 787.5,-270.1392 787.5,-259.4235"/>
<polygon fill="#191970" stroke="#191970" points="791.0001,-259.2448 787.5,-249.2449 784.0001,-259.2449 791.0001,-259.2448"/>
</g>
<!-- Node21&#45;&gt;Node3 -->
<g id="edge30" class="edge">
<title>Node21&#45;&gt;Node3</title>
<path fill="none" stroke="#191970" d="M1085.6563,-229.8906C1090.4232,-221.0068 1097.6385,-207.5601 1103.5297,-196.5811"/>
<polygon fill="#191970" stroke="#191970" points="1106.6269,-198.2114 1108.2711,-187.7449 1100.4588,-194.9016 1106.6269,-198.2114"/>
</g>
<!-- Node22&#45;&gt;Node2 -->
<g id="edge44" class="edge">
<title>Node22&#45;&gt;Node2</title>
<path fill="none" stroke="#191970" d="M787.9106,-229.5683C787.9722,-214.0729 785.6676,-184.2416 768.5,-168 741.5606,-142.5136 633.9966,-129.6238 579.0972,-124.5953"/>
<polygon fill="#191970" stroke="#191970" points="579.1277,-121.0845 568.859,-123.693 578.5131,-128.0574 579.1277,-121.0845"/>
</g>
<!-- Node23 -->
<g id="node24" class="node">
<title>Node23</title>
<g id="a_node24"><a xlink:href="MatrixFixSize_8h.html" target="_top" xlink:title="iDynTree/Core/MatrixFixSize.h">
<polygon fill="none" stroke="#000000" points="854,-168.5 854,-187.5 1015,-187.5 1015,-168.5 854,-168.5"/>
<text text-anchor="middle" x="934.5" y="-175.5" font-family="FreeSans.ttf" font-size="10.00" fill="#000000">iDynTree/Core/MatrixFixSize.h</text>
</a>
</g>
</g>
<!-- Node22&#45;&gt;Node23 -->
<g id="edge32" class="edge">
<title>Node22&#45;&gt;Node23</title>
<path fill="none" stroke="#191970" d="M810.4688,-229.8906C835.1724,-219.5554 874.637,-203.0447 902.4027,-191.4284"/>
<polygon fill="#191970" stroke="#191970" points="903.8182,-194.6303 911.6925,-187.5419 901.1165,-188.1727 903.8182,-194.6303"/>
</g>
<!-- Node23&#45;&gt;Node2 -->
<g id="edge41" class="edge">
<title>Node23&#45;&gt;Node2</title>
<path fill="none" stroke="#191970" d="M868.2413,-168.4369C784.1492,-156.2999 642.4127,-135.8431 578.9398,-126.682"/>
<polygon fill="#191970" stroke="#191970" points="579.1334,-123.1738 568.7359,-125.2093 578.1334,-130.102 579.1334,-123.1738"/>
</g>
<!-- Node23&#45;&gt;Node4 -->
<g id="edge33" class="edge">
<title>Node23&#45;&gt;Node4</title>
<path fill="none" stroke="#191970" d="M940.0947,-168.1689C948.9908,-153.4881 967.8034,-126.0621 991.5,-112 1015.455,-97.7846 1082.3305,-84.7025 1134.8216,-76.1536"/>
<polygon fill="#191970" stroke="#191970" points="1135.456,-79.5967 1144.776,-74.5581 1134.3481,-72.6849 1135.456,-79.5967"/>
</g>
<!-- Node23&#45;&gt;Node8 -->
<g id="edge39" class="edge">
<title>Node23&#45;&gt;Node8</title>
<path fill="none" stroke="#191970" d="M934.7265,-168.4862C935.3588,-141.9293 937.1532,-66.5651 938.0199,-30.1655"/>
<polygon fill="#191970" stroke="#191970" points="941.5269,-29.9084 938.266,-19.8279 934.5289,-29.7417 941.5269,-29.9084"/>
</g>
<!-- Node23&#45;&gt;Node16 -->
<g id="edge43" class="edge">
<title>Node23&#45;&gt;Node16</title>
<path fill="none" stroke="#191970" d="M981.6325,-168.4369C1035.3907,-157.5294 1122.2665,-139.9024 1172.0887,-129.7936"/>
<polygon fill="#191970" stroke="#191970" points="1173.0283,-133.1744 1182.1326,-127.7557 1171.6363,-126.3141 1173.0283,-133.1744"/>
</g>
<!-- Node23&#45;&gt;Node17 -->
<g id="edge40" class="edge">
<title>Node23&#45;&gt;Node17</title>
<path fill="none" stroke="#191970" d="M950.351,-168.2455C964.3132,-159.6534 984.8728,-147.0014 1000.9596,-137.1018"/>
<polygon fill="#191970" stroke="#191970" points="1003.1484,-139.8645 1009.8307,-131.6427 999.4797,-133.9029 1003.1484,-139.8645"/>
</g>
<!-- Node24 -->
<g id="node25" class="node">
<title>Node24</title>
<g id="a_node25"><a xlink:href="MatrixView_8h.html" target="_top" xlink:title="iDynTree/Core/MatrixView.h">
<polygon fill="none" stroke="#000000" points="755,-112.5 755,-131.5 906,-131.5 906,-112.5 755,-112.5"/>
<text text-anchor="middle" x="830.5" y="-119.5" font-family="FreeSans.ttf" font-size="10.00" fill="#000000">iDynTree/Core/MatrixView.h</text>
</a>
</g>
</g>
<!-- Node23&#45;&gt;Node24 -->
<g id="edge34" class="edge">
<title>Node23&#45;&gt;Node24</title>
<path fill="none" stroke="#191970" d="M916.3846,-168.2455C900.055,-159.4527 875.829,-146.4079 857.2661,-136.4125"/>
<polygon fill="#191970" stroke="#191970" points="858.8719,-133.3021 848.4078,-131.6427 855.5532,-139.4654 858.8719,-133.3021"/>
</g>
<!-- Node25 -->
<g id="node26" class="node">
<title>Node25</title>
<polygon fill="none" stroke="#bfbfbf" points="1335.5,-112.5 1335.5,-131.5 1395.5,-131.5 1395.5,-112.5 1335.5,-112.5"/>
<text text-anchor="middle" x="1365.5" y="-119.5" font-family="FreeSans.ttf" font-size="10.00" fill="#000000">iostream</text>
</g>
<!-- Node23&#45;&gt;Node25 -->
<g id="edge42" class="edge">
<title>Node23&#45;&gt;Node25</title>
<path fill="none" stroke="#191970" d="M1008.1018,-168.4369C1099.7647,-156.5271 1253.0853,-136.6061 1325.4148,-127.2083"/>
<polygon fill="#191970" stroke="#191970" points="1326.0161,-130.6597 1335.4817,-125.9003 1325.1141,-123.718 1326.0161,-130.6597"/>
</g>
<!-- Node24&#45;&gt;Node4 -->
<g id="edge38" class="edge">
<title>Node24&#45;&gt;Node4</title>
<path fill="none" stroke="#191970" d="M894.3679,-112.4369C961.2813,-102.4178 1066.0591,-86.7291 1135.0065,-76.4054"/>
<polygon fill="#191970" stroke="#191970" points="1135.5389,-79.8648 1144.9103,-74.9225 1134.5023,-72.942 1135.5389,-79.8648"/>
</g>
<!-- Node24&#45;&gt;Node7 -->
<g id="edge37" class="edge">
<title>Node24&#45;&gt;Node7</title>
<path fill="none" stroke="#191970" d="M810.7308,-112.3733C792.3531,-103.4241 764.7688,-89.9917 744.0107,-79.8835"/>
<polygon fill="#191970" stroke="#191970" points="745.5343,-76.7325 735.0112,-75.5011 742.4696,-83.026 745.5343,-76.7325"/>
</g>
<!-- Node24&#45;&gt;Node8 -->
<g id="edge35" class="edge">
<title>Node24&#45;&gt;Node8</title>
<path fill="none" stroke="#191970" d="M839.708,-112.4509C858.0399,-93.4401 899.3092,-50.6423 922.2845,-26.816"/>
<polygon fill="#191970" stroke="#191970" points="924.8934,-29.1528 929.3153,-19.5249 919.8544,-24.2939 924.8934,-29.1528"/>
</g>
<!-- Node24&#45;&gt;Node14 -->
<g id="edge36" class="edge">
<title>Node24&#45;&gt;Node14</title>
<path fill="none" stroke="#191970" d="M832.9725,-112.4509C837.7238,-94.1013 848.2131,-53.5908 854.4847,-29.3693"/>
<polygon fill="#191970" stroke="#191970" points="857.9153,-30.083 857.0337,-19.5249 851.1388,-28.3283 857.9153,-30.083"/>
</g>
<!-- Node26&#45;&gt;Node2 -->
<g id="edge48" class="edge">
<title>Node26&#45;&gt;Node2</title>
<path fill="none" stroke="#191970" d="M654.1522,-168.3733C633.0967,-159.3032 601.3505,-145.6279 577.7825,-135.4755"/>
<polygon fill="#191970" stroke="#191970" points="579.125,-132.243 568.5562,-131.5011 576.3556,-138.6719 579.125,-132.243"/>
</g>
<!-- Node26&#45;&gt;Node24 -->
<g id="edge49" class="edge">
<title>Node26&#45;&gt;Node24</title>
<path fill="none" stroke="#191970" d="M702.9735,-168.3733C728.3597,-159.1419 766.8645,-145.1402 794.922,-134.9375"/>
<polygon fill="#191970" stroke="#191970" points="796.1701,-138.2079 804.3719,-131.5011 793.7778,-131.6293 796.1701,-138.2079"/>
</g>
<!-- Node27&#45;&gt;Node2 -->
<g id="edge52" class="edge">
<title>Node27&#45;&gt;Node2</title>
<path fill="none" stroke="#191970" d="M162.3039,-168.4686C265.4286,-155.9957 441.5252,-134.6967 513.9372,-125.9385"/>
<polygon fill="#191970" stroke="#191970" points="514.738,-129.3672 524.2454,-124.6917 513.8974,-122.4179 514.738,-129.3672"/>
</g>
<!-- Node27&#45;&gt;Node7 -->
<g id="edge51" class="edge">
<title>Node27&#45;&gt;Node7</title>
<path fill="none" stroke="#191970" d="M137.1113,-168.4993C253.0713,-147.9494 526.7767,-99.4446 651.5313,-77.3362"/>
<polygon fill="#191970" stroke="#191970" points="652.457,-80.7268 661.6928,-75.5355 651.2354,-73.8342 652.457,-80.7268"/>
</g>
<!-- Node28&#45;&gt;Node2 -->
<g id="edge56" class="edge">
<title>Node28&#45;&gt;Node2</title>
<path fill="none" stroke="#191970" d="M996.1752,-527.208C915.6993,-516.8218 787.9509,-499.7292 740.5,-490 628.653,-467.0673 563.252,-512.6092 492.5,-423 437.6748,-353.5625 464.567,-309.4484 487.5,-224 496.152,-191.7625 517.7417,-159.1846 532.263,-139.7953"/>
<polygon fill="#191970" stroke="#191970" points="535.223,-141.6879 538.5509,-131.6293 529.6767,-137.4172 535.223,-141.6879"/>
</g>
<!-- Node28&#45;&gt;Node5 -->
<g id="edge55" class="edge">
<title>Node28&#45;&gt;Node5</title>
<path fill="none" stroke="#191970" d="M1131.3547,-526.4642C1265.8491,-506.0898 1559.5,-456.6112 1559.5,-413 1559.5,-413 1559.5,-413 1559.5,-122 1559.5,-29.405 1245.0859,-43.4136 1155.5,-20 1155.2908,-19.9453 1155.0809,-19.8904 1154.8704,-19.8353"/>
<polygon fill="#191970" stroke="#191970" points="1155.7258,-16.4412 1145.1629,-17.2631 1153.9328,-23.2077 1155.7258,-16.4412"/>
</g>
<!-- Node29 -->
<g id="node30" class="node">
<title>Node29</title>
<polygon fill="none" stroke="#bfbfbf" points="1089.5,-465 1089.5,-484 1175.5,-484 1175.5,-465 1089.5,-465"/>
<text text-anchor="middle" x="1132.5" y="-472" font-family="FreeSans.ttf" font-size="10.00" fill="#000000">ModelExport.h</text>
</g>
<!-- Node28&#45;&gt;Node29 -->
<g id="edge57" class="edge">
<title>Node28&#45;&gt;Node29</title>
<path fill="none" stroke="#191970" d="M1075.9688,-526.3906C1086.2337,-516.9683 1102.0903,-502.4134 1114.4006,-491.1137"/>
<polygon fill="#191970" stroke="#191970" points="1116.8834,-493.5856 1121.8837,-484.2449 1112.1499,-488.4287 1116.8834,-493.5856"/>
</g>
<!-- Node30&#45;&gt;Node28 -->
<g id="edge85" class="edge">
<title>Node30&#45;&gt;Node28</title>
<path fill="none" stroke="#191970" d="M847.4125,-582.4369C892.612,-572.8127 962.3807,-557.957 1010.7847,-547.6504"/>
<polygon fill="#191970" stroke="#191970" points="1011.721,-551.0296 1020.7728,-545.5237 1010.2631,-544.1831 1011.721,-551.0296"/>
</g>
<!-- Node31 -->
<g id="node32" class="node">
<title>Node31</title>
<g id="a_node32"><a xlink:href="Transform_8h.html" target="_top" xlink:title="iDynTree/Core/Transform.h">
<polygon fill="none" stroke="#000000" points="501.5,-403.5 501.5,-422.5 647.5,-422.5 647.5,-403.5 501.5,-403.5"/>
<text text-anchor="middle" x="574.5" y="-410.5" font-family="FreeSans.ttf" font-size="10.00" fill="#000000">iDynTree/Core/Transform.h</text>
</a>
</g>
</g>
<!-- Node30&#45;&gt;Node31 -->
<g id="edge59" class="edge">
<title>Node30&#45;&gt;Node31</title>
<path fill="none" stroke="#191970" d="M727.6946,-584.3558C651.3471,-575.7832 542.263,-561.0935 529.5,-546 500.5269,-511.7366 536.4871,-457.9814 558.9797,-430.4813"/>
<polygon fill="#191970" stroke="#191970" points="561.9187,-432.4266 565.7098,-422.5332 556.5766,-427.903 561.9187,-432.4266"/>
</g>
<!-- Node32 -->
<g id="node33" class="node">
<title>Node32</title>
<g id="a_node33"><a xlink:href="Twist_8h.html" target="_top" xlink:title="iDynTree/Core/Twist.h">
<polygon fill="none" stroke="#000000" points="704.5,-526.5 704.5,-545.5 826.5,-545.5 826.5,-526.5 704.5,-526.5"/>
<text text-anchor="middle" x="765.5" y="-533.5" font-family="FreeSans.ttf" font-size="10.00" fill="#000000">iDynTree/Core/Twist.h</text>
</a>
</g>
</g>
<!-- Node30&#45;&gt;Node32 -->
<g id="edge64" class="edge">
<title>Node30&#45;&gt;Node32</title>
<path fill="none" stroke="#191970" d="M796.0551,-582.2455C790.9618,-574.5367 783.7092,-563.5598 777.548,-554.2348"/>
<polygon fill="#191970" stroke="#191970" points="780.3038,-552.0566 771.8711,-545.6427 774.4635,-555.9155 780.3038,-552.0566"/>
</g>
<!-- Node35 -->
<g id="node36" class="node">
<title>Node35</title>
<g id="a_node36"><a xlink:href="SpatialAcc_8h.html" target="_top" xlink:title="iDynTree/Core/SpatialAcc.h">
<polygon fill="none" stroke="#000000" points="538.5,-526.5 538.5,-545.5 686.5,-545.5 686.5,-526.5 538.5,-526.5"/>
<text text-anchor="middle" x="612.5" y="-533.5" font-family="FreeSans.ttf" font-size="10.00" fill="#000000">iDynTree/Core/SpatialAcc.h</text>
</a>
</g>
</g>
<!-- Node30&#45;&gt;Node35 -->
<g id="edge75" class="edge">
<title>Node30&#45;&gt;Node35</title>
<path fill="none" stroke="#191970" d="M769.8378,-582.3733C737.9702,-572.9807 689.3469,-558.6496 654.593,-548.4064"/>
<polygon fill="#191970" stroke="#191970" points="655.3175,-544.9711 644.736,-545.5011 653.3385,-551.6855 655.3175,-544.9711"/>
</g>
<!-- Node36 -->
<g id="node37" class="node">
<title>Node36</title>
<g id="a_node37"><a xlink:href="Wrench_8h.html" target="_top" xlink:title="iDynTree/Core/Wrench.h">
<polygon fill="none" stroke="#000000" points="845,-526.5 845,-545.5 978,-545.5 978,-526.5 845,-526.5"/>
<text text-anchor="middle" x="911.5" y="-533.5" font-family="FreeSans.ttf" font-size="10.00" fill="#000000">iDynTree/Core/Wrench.h</text>
</a>
</g>
</g>
<!-- Node30&#45;&gt;Node36 -->
<g id="edge77" class="edge">
<title>Node30&#45;&gt;Node36</title>
<path fill="none" stroke="#191970" d="M821.4864,-582.2455C838.6792,-573.4125 864.2238,-560.2887 883.7132,-550.2758"/>
<polygon fill="#191970" stroke="#191970" points="885.4359,-553.3257 892.7312,-545.6427 882.237,-547.0993 885.4359,-553.3257"/>
</g>
<!-- Node38 -->
<g id="node39" class="node">
<title>Node38</title>
<g id="a_node39"><a xlink:href="ArticulatedBodyInertia_8h.html" target="_top" xlink:title="iDynTree/Core/Articulated\lBodyInertia.h">
<polygon fill="none" stroke="#000000" points="261,-224.5 261,-254.5 402,-254.5 402,-224.5 261,-224.5"/>
<text text-anchor="start" x="269" y="-242.5" font-family="FreeSans.ttf" font-size="10.00" fill="#000000">iDynTree/Core/Articulated</text>
<text text-anchor="middle" x="331.5" y="-231.5" font-family="FreeSans.ttf" font-size="10.00" fill="#000000">BodyInertia.h</text>
</a>
</g>
</g>
<!-- Node30&#45;&gt;Node38 -->
<g id="edge82" class="edge">
<title>Node30&#45;&gt;Node38</title>
<path fill="none" stroke="#191970" d="M727.7791,-587.081C654.8509,-581.0393 550.1106,-568.6802 516.5,-546 412.0043,-475.487 356.9629,-324.3156 338.6048,-264.5539"/>
<polygon fill="#191970" stroke="#191970" points="341.9109,-263.3929 335.6921,-254.8152 335.2044,-265.3988 341.9109,-263.3929"/>
</g>
<!-- Node30&#45;&gt;Node39 -->
<g id="edge86" class="edge">
<title>Node30&#45;&gt;Node39</title>
<path fill="none" stroke="#191970" d="M877.2668,-585.3923C944.4502,-578.663 1045.8695,-566.5488 1142.8515,-545.8343"/>
<polygon fill="#191970" stroke="#191970" points="1143.7962,-549.2108 1152.8264,-543.6695 1142.3115,-542.3701 1143.7962,-549.2108"/>
</g>
<!-- Node31&#45;&gt;Node2 -->
<g id="edge63" class="edge">
<title>Node31&#45;&gt;Node2</title>
<path fill="none" stroke="#191970" d="M507.4484,-403.4807C426.7265,-388.0355 294.5404,-349.1078 234.5,-255 213.1605,-221.5523 223.9515,-193.3162 254.5,-168 274.279,-151.6087 441.737,-132.7187 513.7709,-125.2653"/>
<polygon fill="#191970" stroke="#191970" points="514.4858,-128.7104 524.0771,-124.2097 513.7725,-121.7469 514.4858,-128.7104"/>
</g>
<!-- Node31&#45;&gt;Node18 -->
<g id="edge60" class="edge">
<title>Node31&#45;&gt;Node18</title>
<path fill="none" stroke="#191970" d="M574.5,-403.2455C574.5,-395.9382 574.5,-385.6944 574.5,-376.7046"/>
<polygon fill="#191970" stroke="#191970" points="578.0001,-376.6426 574.5,-366.6427 571.0001,-376.6427 578.0001,-376.6426"/>
</g>
<!-- Node31&#45;&gt;Node20 -->
<g id="edge61" class="edge">
<title>Node31&#45;&gt;Node20</title>
<path fill="none" stroke="#191970" d="M592.6603,-403.4509C630.151,-383.7375 716.2847,-338.4465 760.3913,-315.2543"/>
<polygon fill="#191970" stroke="#191970" points="762.1636,-318.2768 769.3857,-310.5249 758.9058,-312.0811 762.1636,-318.2768"/>
</g>
<!-- Node31&#45;&gt;Node23 -->
<g id="edge62" class="edge">
<title>Node31&#45;&gt;Node23</title>
<path fill="none" stroke="#191970" d="M643.2219,-403.4908C706.9779,-391.5531 801.2812,-365.5878 864.5,-311 900.4001,-280.0013 920.6109,-225.9668 929.3127,-197.24"/>
<polygon fill="#191970" stroke="#191970" points="932.6934,-198.1478 932.0929,-187.57 925.9659,-196.2136 932.6934,-198.1478"/>
</g>
<!-- Node33 -->
<g id="node34" class="node">
<title>Node33</title>
<g id="a_node34"><a xlink:href="SpatialMotionVector_8h.html" target="_top" xlink:title="iDynTree/Core/SpatialMotion\lVector.h">
<polygon fill="none" stroke="#000000" points="750,-459.5 750,-489.5 905,-489.5 905,-459.5 750,-459.5"/>
<text text-anchor="start" x="758" y="-477.5" font-family="FreeSans.ttf" font-size="10.00" fill="#000000">iDynTree/Core/SpatialMotion</text>
<text text-anchor="middle" x="827.5" y="-466.5" font-family="FreeSans.ttf" font-size="10.00" fill="#000000">Vector.h</text>
</a>
</g>
</g>
<!-- Node32&#45;&gt;Node33 -->
<g id="edge65" class="edge">
<title>Node32&#45;&gt;Node33</title>
<path fill="none" stroke="#191970" d="M775.1875,-526.3906C783.19,-518.4527 794.865,-506.8718 805.1563,-496.6635"/>
<polygon fill="#191970" stroke="#191970" points="807.6983,-499.0719 812.3331,-489.5446 802.7686,-494.1021 807.6983,-499.0719"/>
</g>
<!-- Node33&#45;&gt;Node3 -->
<g id="edge66" class="edge">
<title>Node33&#45;&gt;Node3</title>
<path fill="none" stroke="#191970" d="M833.2151,-459.4274C850.2577,-416.4249 904.8577,-291.8868 989.5,-224 1009.2479,-208.1613 1034.9849,-197.4333 1057.8896,-190.3515"/>
<polygon fill="#191970" stroke="#191970" points="1058.8934,-193.7046 1067.5069,-187.5355 1056.9262,-186.9867 1058.8934,-193.7046"/>
</g>
<!-- Node33&#45;&gt;Node21 -->
<g id="edge67" class="edge">
<title>Node33&#45;&gt;Node21</title>
<path fill="none" stroke="#191970" d="M855.0058,-459.4918C871.2973,-450.0128 891.9261,-436.9503 908.5,-423 969.1586,-371.9436 973.6477,-348.249 1028.5,-291 1039.8478,-279.1563 1052.974,-266.1616 1063.1993,-256.1884"/>
<polygon fill="#191970" stroke="#191970" points="1065.6397,-258.6973 1070.3757,-249.2199 1060.7632,-253.6753 1065.6397,-258.6973"/>
</g>
<!-- Node34 -->
<g id="node35" class="node">
<title>Node34</title>
<g id="a_node35"><a xlink:href="SpatialVector_8h.html" target="_top" xlink:title="iDynTree/Core/SpatialVector.h">
<polygon fill="none" stroke="#000000" points="1001,-403.5 1001,-422.5 1162,-422.5 1162,-403.5 1001,-403.5"/>
<text text-anchor="middle" x="1081.5" y="-410.5" font-family="FreeSans.ttf" font-size="10.00" fill="#000000">iDynTree/Core/SpatialVector.h</text>
</a>
</g>
</g>
<!-- Node33&#45;&gt;Node34 -->
<g id="edge68" class="edge">
<title>Node33&#45;&gt;Node34</title>
<path fill="none" stroke="#191970" d="M889.6354,-459.4554C933.503,-448.8339 991.4845,-434.7951 1032.1833,-424.9408"/>
<polygon fill="#191970" stroke="#191970" points="1033.2435,-428.2854 1042.139,-422.5303 1031.5962,-421.4819 1033.2435,-428.2854"/>
</g>
<!-- Node34&#45;&gt;Node4 -->
<g id="edge71" class="edge">
<title>Node34&#45;&gt;Node4</title>
<path fill="none" stroke="#191970" d="M1162.2028,-408.9006C1289.2271,-400.2138 1521.5,-374.3071 1521.5,-301 1521.5,-301 1521.5,-301 1521.5,-178 1521.5,-125.9071 1367.3879,-92.0081 1274.0731,-76.2569"/>
<polygon fill="#191970" stroke="#191970" points="1274.5631,-72.7905 1264.1253,-74.6074 1273.418,-79.6962 1274.5631,-72.7905"/>
</g>
<!-- Node34&#45;&gt;Node16 -->
<g id="edge74" class="edge">
<title>Node34&#45;&gt;Node16</title>
<path fill="none" stroke="#191970" d="M1141.358,-403.4414C1218.145,-387.6168 1348.3432,-347.9384 1406.5,-255 1448.4123,-188.0214 1317.0043,-146.6632 1248.8323,-130.1965"/>
<polygon fill="#191970" stroke="#191970" points="1249.4007,-126.7349 1238.8655,-127.8573 1247.8012,-133.5497 1249.4007,-126.7349"/>
</g>
<!-- Node34&#45;&gt;Node18 -->
<g id="edge69" class="edge">
<title>Node34&#45;&gt;Node18</title>
<path fill="none" stroke="#191970" d="M1000.8842,-404.0957C905.3207,-393.5403 747.1515,-376.07 652.6711,-365.6343"/>
<polygon fill="#191970" stroke="#191970" points="652.9269,-362.1413 642.603,-364.5222 652.1583,-369.099 652.9269,-362.1413"/>
</g>
<!-- Node34&#45;&gt;Node20 -->
<g id="edge70" class="edge">
<title>Node34&#45;&gt;Node20</title>
<path fill="none" stroke="#191970" d="M1056.4337,-403.4509C1003.818,-383.4069 881.7904,-336.9202 821.904,-314.1063"/>
<polygon fill="#191970" stroke="#191970" points="823.0937,-310.8142 812.5028,-310.5249 820.6017,-317.3556 823.0937,-310.8142"/>
</g>
<!-- Node34&#45;&gt;Node21 -->
<g id="edge72" class="edge">
<title>Node34&#45;&gt;Node21</title>
<path fill="none" stroke="#191970" d="M1081.4448,-403.4248C1081.2867,-375.999 1080.8299,-296.732 1080.6147,-259.3964"/>
<polygon fill="#191970" stroke="#191970" points="1084.1139,-259.2392 1080.5563,-249.2595 1077.114,-259.2796 1084.1139,-259.2392"/>
</g>
<!-- Node34&#45;&gt;Node25 -->
<g id="edge73" class="edge">
<title>Node34&#45;&gt;Node25</title>
<path fill="none" stroke="#191970" d="M1160.6365,-403.4855C1202.4823,-396.6522 1254.0435,-385.3176 1297.5,-367 1338.8461,-349.572 1348.5604,-341.4666 1381.5,-311 1413.3101,-281.5781 1436.8847,-265.8081 1425.5,-224 1416.6528,-191.5103 1394.5405,-158.8132 1379.7749,-139.4916"/>
<polygon fill="#191970" stroke="#191970" points="1382.5103,-137.3078 1373.5817,-131.6041 1377.0046,-141.6308 1382.5103,-137.3078"/>
</g>
<!-- Node35&#45;&gt;Node33 -->
<g id="edge76" class="edge">
<title>Node35&#45;&gt;Node33</title>
<path fill="none" stroke="#191970" d="M646.0938,-526.3906C677.8856,-517.2967 726.3923,-503.4215 765.2499,-492.3064"/>
<polygon fill="#191970" stroke="#191970" points="766.2533,-495.6599 774.9051,-489.5446 764.3281,-488.9298 766.2533,-495.6599"/>
</g>
<!-- Node37 -->
<g id="node38" class="node">
<title>Node37</title>
<g id="a_node38"><a xlink:href="SpatialForceVector_8h.html" target="_top" xlink:title="iDynTree/Core/SpatialForce\lVector.h">
<polygon fill="none" stroke="#000000" points="923.5,-459.5 923.5,-489.5 1071.5,-489.5 1071.5,-459.5 923.5,-459.5"/>
<text text-anchor="start" x="931.5" y="-477.5" font-family="FreeSans.ttf" font-size="10.00" fill="#000000">iDynTree/Core/SpatialForce</text>
<text text-anchor="middle" x="997.5" y="-466.5" font-family="FreeSans.ttf" font-size="10.00" fill="#000000">Vector.h</text>
</a>
</g>
</g>
<!-- Node36&#45;&gt;Node37 -->
<g id="edge78" class="edge">
<title>Node36&#45;&gt;Node37</title>
<path fill="none" stroke="#191970" d="M924.9375,-526.3906C936.4688,-518.1444 953.4976,-505.9669 968.1611,-495.4807"/>
<polygon fill="#191970" stroke="#191970" points="970.3638,-498.2084 976.462,-489.5446 966.292,-492.5145 970.3638,-498.2084"/>
</g>
<!-- Node37&#45;&gt;Node3 -->
<g id="edge79" class="edge">
<title>Node37&#45;&gt;Node3</title>
<path fill="none" stroke="#191970" d="M1071.9437,-459.687C1112.016,-450.3234 1156.1171,-437.3126 1170.5,-423 1192.2263,-401.3799 1190.5,-387.6506 1190.5,-357 1190.5,-357 1190.5,-357 1190.5,-301 1190.5,-265.6422 1189.6682,-253.7112 1170.5,-224 1162.5581,-211.6899 1150.221,-201.1437 1139.0528,-193.2667"/>
<polygon fill="#191970" stroke="#191970" points="1140.7162,-190.1694 1130.453,-187.5392 1136.8359,-195.9955 1140.7162,-190.1694"/>
</g>
<!-- Node37&#45;&gt;Node21 -->
<g id="edge80" class="edge">
<title>Node37&#45;&gt;Node21</title>
<path fill="none" stroke="#191970" d="M993.401,-459.4737C990.0685,-444.839 986.6451,-422.0736 991.5,-403 1006.1748,-345.3473 1045.7622,-286.0694 1066.8477,-257.3124"/>
<polygon fill="#191970" stroke="#191970" points="1069.8096,-259.1955 1072.9885,-249.0888 1064.2008,-255.0073 1069.8096,-259.1955"/>
</g>
<!-- Node37&#45;&gt;Node34 -->
<g id="edge81" class="edge">
<title>Node37&#45;&gt;Node34</title>
<path fill="none" stroke="#191970" d="M1018.2641,-459.2977C1030.8958,-450.0495 1047.0053,-438.2551 1059.8031,-428.8853"/>
<polygon fill="#191970" stroke="#191970" points="1062.0495,-431.5784 1068.0505,-422.8469 1057.9143,-425.9303 1062.0495,-431.5784"/>
</g>
<!-- Node38&#45;&gt;Node2 -->
<g id="edge84" class="edge">
<title>Node38&#45;&gt;Node2</title>
<path fill="none" stroke="#191970" d="M346.2014,-224.2281C362.2182,-208.3288 389.2182,-183.6105 416.5,-168 447.8235,-150.0769 487.3329,-137.3118 514.5271,-129.8448"/>
<polygon fill="#191970" stroke="#191970" points="515.5404,-133.197 524.3038,-127.2427 513.74,-126.4325 515.5404,-133.197"/>
</g>
<!-- Node38&#45;&gt;Node23 -->
<g id="edge83" class="edge">
<title>Node38&#45;&gt;Node23</title>
<path fill="none" stroke="#191970" d="M402.1482,-232.2946C511.8029,-221.1109 722.8912,-199.582 843.7067,-187.26"/>
<polygon fill="#191970" stroke="#191970" points="844.0844,-190.7397 853.6776,-186.2431 843.3741,-183.7759 844.0844,-190.7397"/>
</g>
</g>
</svg>
