<?xml version="1.0" encoding="UTF-8" standalone="no"?>
<!DOCTYPE svg PUBLIC "-//W3C//DTD SVG 1.1//EN"
 "http://www.w3.org/Graphics/SVG/1.1/DTD/svg11.dtd">
<!-- Generated by graphviz version 2.40.1 (20161225.0304)
 -->
<!-- Title: FixedJoint.cpp Pages: 1 -->
<svg width="1523pt" height="666pt"
 viewBox="0.00 0.00 1523.00 666.00" xmlns="http://www.w3.org/2000/svg" xmlns:xlink="http://www.w3.org/1999/xlink">
<g id="graph0" class="graph" transform="scale(1 1) rotate(0) translate(4 662)">
<title>FixedJoint.cpp</title>
<!-- Node0 -->
<g id="node1" class="node">
<title>Node0</title>
<polygon fill="#bfbfbf" stroke="#000000" points="1196,-638.5 1196,-657.5 1280,-657.5 1280,-638.5 1196,-638.5"/>
<text text-anchor="middle" x="1238" y="-645.5" font-family="FreeSans.ttf" font-size="10.00" fill="#000000">FixedJoint.cpp</text>
</g>
<!-- Node1 -->
<g id="node2" class="node">
<title>Node1</title>
<g id="a_node2"><a xlink:href="SpatialMotionVector_8h.html" target="_top" xlink:title="iDynTree/Core/SpatialMotion\lVector.h">
<polygon fill="none" stroke="#000000" points="1260.5,-459.5 1260.5,-489.5 1415.5,-489.5 1415.5,-459.5 1260.5,-459.5"/>
<text text-anchor="start" x="1268.5" y="-477.5" font-family="FreeSans.ttf" font-size="10.00" fill="#000000">iDynTree/Core/SpatialMotion</text>
<text text-anchor="middle" x="1338" y="-466.5" font-family="FreeSans.ttf" font-size="10.00" fill="#000000">Vector.h</text>
</a>
</g>
</g>
<!-- Node0&#45;&gt;Node1 -->
<g id="edge1" class="edge">
<title>Node0&#45;&gt;Node1</title>
<path fill="none" stroke="#191970" d="M1278.0025,-638.396C1321.6954,-625.5305 1389.5129,-598.0347 1420,-546 1432.3613,-524.902 1411.2496,-506.8575 1387.3586,-494.1736"/>
<polygon fill="#191970" stroke="#191970" points="1388.642,-490.9029 1378.1301,-489.5797 1385.5225,-497.1694 1388.642,-490.9029"/>
</g>
<!-- Node3 -->
<g id="node4" class="node">
<title>Node3</title>
<g id="a_node4"><a xlink:href="Utils_8h.html" target="_top" xlink:title="iDynTree/Core/Utils.h">
<polygon fill="none" stroke="#000000" points="1248.5,-56.5 1248.5,-75.5 1367.5,-75.5 1367.5,-56.5 1248.5,-56.5"/>
<text text-anchor="middle" x="1308" y="-63.5" font-family="FreeSans.ttf" font-size="10.00" fill="#000000">iDynTree/Core/Utils.h</text>
</a>
</g>
</g>
<!-- Node0&#45;&gt;Node3 -->
<g id="edge55" class="edge">
<title>Node0&#45;&gt;Node3</title>
<path fill="none" stroke="#191970" d="M1280.1476,-639.6689C1311.7885,-632.4003 1355.5731,-620.1436 1391,-602 1433.8839,-580.0374 1477,-584.1807 1477,-536 1477,-536 1477,-536 1477,-178 1477,-122.3973 1412.6499,-92.7694 1363.3662,-78.2318"/>
<polygon fill="#191970" stroke="#191970" points="1364.308,-74.861 1353.7338,-75.5223 1362.4125,-81.5995 1364.308,-74.861"/>
</g>
<!-- Node7 -->
<g id="node8" class="node">
<title>Node7</title>
<polygon fill="none" stroke="#bfbfbf" points="1156,-.5 1156,-19.5 1208,-19.5 1208,-.5 1156,-.5"/>
<text text-anchor="middle" x="1182" y="-7.5" font-family="FreeSans.ttf" font-size="10.00" fill="#000000">cassert</text>
</g>
<!-- Node0&#45;&gt;Node7 -->
<g id="edge84" class="edge">
<title>Node0&#45;&gt;Node7</title>
<path fill="none" stroke="#191970" d="M1280.0337,-643.2903C1320.3542,-637.5697 1382.1486,-625.5963 1431,-602 1473.7526,-581.3496 1515,-583.4787 1515,-536 1515,-536 1515,-536 1515,-122 1515,-59.9342 1304.5528,-25.768 1218.2558,-14.3667"/>
<polygon fill="#191970" stroke="#191970" points="1218.496,-10.8688 1208.13,-13.0586 1217.5991,-17.8111 1218.496,-10.8688"/>
</g>
<!-- Node27 -->
<g id="node28" class="node">
<title>Node27</title>
<g id="a_node28"><a xlink:href="TransformDerivative_8h.html" target="_top" xlink:title="iDynTree/Core/TransformDerivative.h">
<polygon fill="none" stroke="#000000" points="918.5,-230 918.5,-249 1115.5,-249 1115.5,-230 918.5,-230"/>
<text text-anchor="middle" x="1017" y="-237" font-family="FreeSans.ttf" font-size="10.00" fill="#000000">iDynTree/Core/TransformDerivative.h</text>
</a>
</g>
</g>
<!-- Node0&#45;&gt;Node27 -->
<g id="edge52" class="edge">
<title>Node0&#45;&gt;Node27</title>
<path fill="none" stroke="#191970" d="M1195.844,-644.9404C1111.1037,-638.3957 926.4309,-621.9928 906,-602 804.8923,-503.0603 951.7997,-314.7364 1001.5389,-256.8569"/>
<polygon fill="#191970" stroke="#191970" points="1004.2014,-259.129 1008.1314,-249.29 998.9235,-254.5308 1004.2014,-259.129"/>
</g>
<!-- Node28 -->
<g id="node29" class="node">
<title>Node28</title>
<g id="a_node29"><a xlink:href="FixedJoint_8h.html" target="_top" xlink:title="iDynTree/Model/FixedJoint.h">
<polygon fill="none" stroke="#000000" points="71.5,-465 71.5,-484 222.5,-484 222.5,-465 71.5,-465"/>
<text text-anchor="middle" x="147" y="-472" font-family="FreeSans.ttf" font-size="10.00" fill="#000000">iDynTree/Model/FixedJoint.h</text>
</a>
</g>
</g>
<!-- Node0&#45;&gt;Node28 -->
<g id="edge56" class="edge">
<title>Node0&#45;&gt;Node28</title>
<path fill="none" stroke="#191970" d="M1195.8824,-646.8472C1029.1026,-641.8039 415.3871,-618.5869 237,-546 207.2956,-533.9131 179.419,-508.8255 162.7808,-491.8226"/>
<polygon fill="#191970" stroke="#191970" points="164.9817,-489.0575 155.557,-484.2175 159.9064,-493.8784 164.9817,-489.0575"/>
</g>
<!-- Node33 -->
<g id="node34" class="node">
<title>Node33</title>
<g id="a_node34"><a xlink:href="LinkState_8h.html" target="_top" xlink:title="iDynTree/Model/LinkState.h">
<polygon fill="none" stroke="#000000" points="915.5,-582.5 915.5,-601.5 1064.5,-601.5 1064.5,-582.5 915.5,-582.5"/>
<text text-anchor="middle" x="990" y="-589.5" font-family="FreeSans.ttf" font-size="10.00" fill="#000000">iDynTree/Model/LinkState.h</text>
</a>
</g>
</g>
<!-- Node0&#45;&gt;Node33 -->
<g id="edge68" class="edge">
<title>Node0&#45;&gt;Node33</title>
<path fill="none" stroke="#191970" d="M1195.9302,-638.5004C1153.5326,-628.9267 1088.0049,-614.1301 1042.2899,-603.8074"/>
<polygon fill="#191970" stroke="#191970" points="1042.8015,-600.3349 1032.2762,-601.5462 1041.2597,-607.163 1042.8015,-600.3349"/>
</g>
<!-- Node2 -->
<g id="node3" class="node">
<title>Node2</title>
<g id="a_node3"><a xlink:href="VectorFixSize_8h.html" target="_top" xlink:title="iDynTree/Core/VectorFixSize.h">
<polygon fill="none" stroke="#000000" points="1063.5,-168.5 1063.5,-187.5 1224.5,-187.5 1224.5,-168.5 1063.5,-168.5"/>
<text text-anchor="middle" x="1144" y="-175.5" font-family="FreeSans.ttf" font-size="10.00" fill="#000000">iDynTree/Core/VectorFixSize.h</text>
</a>
</g>
</g>
<!-- Node1&#45;&gt;Node2 -->
<g id="edge2" class="edge">
<title>Node1&#45;&gt;Node2</title>
<path fill="none" stroke="#191970" d="M1343.2921,-459.3023C1357.3134,-415.9658 1390.2555,-290.6231 1328,-224 1313.5046,-208.4876 1266.9237,-196.9311 1224.2604,-189.2813"/>
<polygon fill="#191970" stroke="#191970" points="1224.8305,-185.828 1214.379,-187.5647 1223.6324,-192.7247 1224.8305,-185.828"/>
</g>
<!-- Node18 -->
<g id="node19" class="node">
<title>Node18</title>
<g id="a_node19"><a xlink:href="GeomVector3_8h.html" target="_top" xlink:title="iDynTree/Core/GeomVector3.h">
<polygon fill="none" stroke="#000000" points="1133.5,-230 1133.5,-249 1296.5,-249 1296.5,-230 1133.5,-230"/>
<text text-anchor="middle" x="1215" y="-237" font-family="FreeSans.ttf" font-size="10.00" fill="#000000">iDynTree/Core/GeomVector3.h</text>
</a>
</g>
</g>
<!-- Node1&#45;&gt;Node18 -->
<g id="edge21" class="edge">
<title>Node1&#45;&gt;Node18</title>
<path fill="none" stroke="#191970" d="M1330.1187,-459.4422C1308.5279,-418.1914 1248.464,-303.4353 1224.7806,-258.1865"/>
<polygon fill="#191970" stroke="#191970" points="1227.802,-256.4114 1220.0637,-249.1746 1221.6001,-259.6575 1227.802,-256.4114"/>
</g>
<!-- Node19 -->
<g id="node20" class="node">
<title>Node19</title>
<g id="a_node20"><a xlink:href="SpatialVector_8h.html" target="_top" xlink:title="iDynTree/Core/SpatialVector.h">
<polygon fill="none" stroke="#000000" points="1057.5,-403.5 1057.5,-422.5 1218.5,-422.5 1218.5,-403.5 1057.5,-403.5"/>
<text text-anchor="middle" x="1138" y="-410.5" font-family="FreeSans.ttf" font-size="10.00" fill="#000000">iDynTree/Core/SpatialVector.h</text>
</a>
</g>
</g>
<!-- Node1&#45;&gt;Node19 -->
<g id="edge23" class="edge">
<title>Node1&#45;&gt;Node19</title>
<path fill="none" stroke="#191970" d="M1289.0745,-459.4554C1255.2649,-449.059 1210.8079,-435.3884 1178.887,-425.5727"/>
<polygon fill="#191970" stroke="#191970" points="1179.5799,-422.1242 1168.9929,-422.5303 1177.5225,-428.815 1179.5799,-422.1242"/>
</g>
<!-- Node2&#45;&gt;Node3 -->
<g id="edge3" class="edge">
<title>Node2&#45;&gt;Node3</title>
<path fill="none" stroke="#191970" d="M1166.7188,-168.3512C1185.4778,-159.9314 1212.4268,-146.7719 1234,-132 1255.3325,-117.3929 1277.1042,-97.2089 1291.4575,-83.0191"/>
<polygon fill="#191970" stroke="#191970" points="1294.0435,-85.3823 1298.6184,-75.8261 1289.0827,-80.4436 1294.0435,-85.3823"/>
</g>
<!-- Node4 -->
<g id="node5" class="node">
<title>Node4</title>
<polygon fill="none" stroke="#bfbfbf" points="1082.5,-.5 1082.5,-19.5 1135.5,-19.5 1135.5,-.5 1082.5,-.5"/>
<text text-anchor="middle" x="1109" y="-7.5" font-family="FreeSans.ttf" font-size="10.00" fill="#000000">cstddef</text>
</g>
<!-- Node2&#45;&gt;Node4 -->
<g id="edge19" class="edge">
<title>Node2&#45;&gt;Node4</title>
<path fill="none" stroke="#191970" d="M1144.5343,-168.4892C1145.0281,-159.1899 1145.7256,-144.627 1146,-132 1146.1931,-123.1132 1147.5388,-120.7547 1146,-112 1140.696,-81.8239 1127.1962,-48.8185 1118.0559,-28.7601"/>
<polygon fill="#191970" stroke="#191970" points="1121.1478,-27.1093 1113.74,-19.5345 1114.8073,-30.0755 1121.1478,-27.1093"/>
</g>
<!-- Node6 -->
<g id="node7" class="node">
<title>Node6</title>
<g id="a_node7"><a xlink:href="Span_8h.html" target="_top" xlink:title="iDynTree/Core/Span.h">
<polygon fill="none" stroke="#000000" points="756.5,-56.5 756.5,-75.5 877.5,-75.5 877.5,-56.5 756.5,-56.5"/>
<text text-anchor="middle" x="817" y="-63.5" font-family="FreeSans.ttf" font-size="10.00" fill="#000000">iDynTree/Core/Span.h</text>
</a>
</g>
</g>
<!-- Node2&#45;&gt;Node6 -->
<g id="edge6" class="edge">
<title>Node2&#45;&gt;Node6</title>
<path fill="none" stroke="#191970" d="M1144.247,-168.2283C1144.0405,-153.6252 1141.3239,-126.2992 1125,-112 1090.7006,-81.9549 967.8851,-71.5324 888.0897,-67.9179"/>
<polygon fill="#191970" stroke="#191970" points="887.7539,-64.4004 877.6138,-67.471 887.4556,-71.3941 887.7539,-64.4004"/>
</g>
<!-- Node2&#45;&gt;Node7 -->
<g id="edge18" class="edge">
<title>Node2&#45;&gt;Node7</title>
<path fill="none" stroke="#191970" d="M1150.828,-168.4791C1162.8082,-151.1204 1187.1797,-112.7214 1196,-76 1199.756,-60.3628 1195.4563,-42.5147 1190.6614,-29.3249"/>
<polygon fill="#191970" stroke="#191970" points="1193.8382,-27.844 1186.8542,-19.8769 1187.3455,-30.4604 1193.8382,-27.844"/>
</g>
<!-- Node15 -->
<g id="node16" class="node">
<title>Node15</title>
<polygon fill="none" stroke="#bfbfbf" points="404,-112.5 404,-131.5 448,-131.5 448,-112.5 404,-112.5"/>
<text text-anchor="middle" x="426" y="-119.5" font-family="FreeSans.ttf" font-size="10.00" fill="#000000">string</text>
</g>
<!-- Node2&#45;&gt;Node15 -->
<g id="edge16" class="edge">
<title>Node2&#45;&gt;Node15</title>
<path fill="none" stroke="#191970" d="M1063.2123,-170.5148C1053.3733,-169.6448 1043.4594,-168.7878 1034,-168 814.0243,-149.6807 549.011,-130.685 458.2805,-124.2693"/>
<polygon fill="#191970" stroke="#191970" points="458.3162,-120.7632 448.0945,-123.5502 457.8232,-127.7458 458.3162,-120.7632"/>
</g>
<!-- Node16 -->
<g id="node17" class="node">
<title>Node16</title>
<polygon fill="none" stroke="#bfbfbf" points="1060,-112.5 1060,-131.5 1116,-131.5 1116,-112.5 1060,-112.5"/>
<text text-anchor="middle" x="1088" y="-119.5" font-family="FreeSans.ttf" font-size="10.00" fill="#000000">sstream</text>
</g>
<!-- Node2&#45;&gt;Node16 -->
<g id="edge17" class="edge">
<title>Node2&#45;&gt;Node16</title>
<path fill="none" stroke="#191970" d="M1134.2455,-168.2455C1126.1352,-160.1352 1114.4075,-148.4075 1104.7919,-138.7919"/>
<polygon fill="#191970" stroke="#191970" points="1107.1887,-136.2389 1097.6427,-131.6427 1102.2389,-141.1887 1107.1887,-136.2389"/>
</g>
<!-- Node17 -->
<g id="node18" class="node">
<title>Node17</title>
<polygon fill="none" stroke="#bfbfbf" points="992,-112.5 992,-131.5 1042,-131.5 1042,-112.5 992,-112.5"/>
<text text-anchor="middle" x="1017" y="-119.5" font-family="FreeSans.ttf" font-size="10.00" fill="#000000">cstring</text>
</g>
<!-- Node2&#45;&gt;Node17 -->
<g id="edge20" class="edge">
<title>Node2&#45;&gt;Node17</title>
<path fill="none" stroke="#191970" d="M1122.1679,-168.3733C1101.6897,-159.3435 1070.8601,-145.7494 1047.8681,-135.6111"/>
<polygon fill="#191970" stroke="#191970" points="1049.1093,-132.3333 1038.5472,-131.5011 1046.285,-138.7383 1049.1093,-132.3333"/>
</g>
<!-- Node3&#45;&gt;Node4 -->
<g id="edge4" class="edge">
<title>Node3&#45;&gt;Node4</title>
<path fill="none" stroke="#191970" d="M1273.7907,-56.3733C1238.0356,-46.3115 1182.1414,-30.5825 1145.5397,-20.2825"/>
<polygon fill="#191970" stroke="#191970" points="1146.3348,-16.8704 1135.7605,-17.5306 1144.4385,-23.6087 1146.3348,-16.8704"/>
</g>
<!-- Node5 -->
<g id="node6" class="node">
<title>Node5</title>
<polygon fill="none" stroke="#bfbfbf" points="1268,-.5 1268,-19.5 1348,-19.5 1348,-.5 1268,-.5"/>
<text text-anchor="middle" x="1308" y="-7.5" font-family="FreeSans.ttf" font-size="10.00" fill="#000000">CoreExport.h</text>
</g>
<!-- Node3&#45;&gt;Node5 -->
<g id="edge5" class="edge">
<title>Node3&#45;&gt;Node5</title>
<path fill="none" stroke="#191970" d="M1308,-56.2455C1308,-48.9382 1308,-38.6944 1308,-29.7046"/>
<polygon fill="#191970" stroke="#191970" points="1311.5001,-29.6426 1308,-19.6427 1304.5001,-29.6427 1311.5001,-29.6426"/>
</g>
<!-- Node6&#45;&gt;Node4 -->
<g id="edge10" class="edge">
<title>Node6&#45;&gt;Node4</title>
<path fill="none" stroke="#191970" d="M877.5804,-56.7475C927.4195,-48.7634 1000.0641,-36.276 1072.5708,-19.9302"/>
<polygon fill="#191970" stroke="#191970" points="1073.3618,-23.3397 1082.3341,-17.7052 1071.8063,-16.5147 1073.3618,-23.3397"/>
</g>
<!-- Node6&#45;&gt;Node7 -->
<g id="edge7" class="edge">
<title>Node6&#45;&gt;Node7</title>
<path fill="none" stroke="#191970" d="M877.6293,-59.6324C943.5491,-52.2073 1051.8261,-38.5445 1144,-20 1144.6061,-19.8781 1145.2169,-19.7522 1145.8313,-19.6229"/>
<polygon fill="#191970" stroke="#191970" points="1146.9724,-22.9516 1155.929,-17.2921 1145.398,-16.131 1146.9724,-22.9516"/>
</g>
<!-- Node8 -->
<g id="node9" class="node">
<title>Node8</title>
<polygon fill="none" stroke="#bfbfbf" points="1000,-.5 1000,-19.5 1064,-19.5 1064,-.5 1000,-.5"/>
<text text-anchor="middle" x="1032" y="-7.5" font-family="FreeSans.ttf" font-size="10.00" fill="#000000">algorithm</text>
</g>
<!-- Node6&#45;&gt;Node8 -->
<g id="edge8" class="edge">
<title>Node6&#45;&gt;Node8</title>
<path fill="none" stroke="#191970" d="M853.9598,-56.3733C891.7329,-46.5347 950.3096,-31.2775 989.8607,-20.9758"/>
<polygon fill="#191970" stroke="#191970" points="990.9356,-24.3127 999.7306,-18.4051 989.1712,-17.5387 990.9356,-24.3127"/>
</g>
<!-- Node9 -->
<g id="node10" class="node">
<title>Node9</title>
<polygon fill="none" stroke="#bfbfbf" points="659,-.5 659,-19.5 701,-19.5 701,-.5 659,-.5"/>
<text text-anchor="middle" x="680" y="-7.5" font-family="FreeSans.ttf" font-size="10.00" fill="#000000">array</text>
</g>
<!-- Node6&#45;&gt;Node9 -->
<g id="edge9" class="edge">
<title>Node6&#45;&gt;Node9</title>
<path fill="none" stroke="#191970" d="M793.4489,-56.3733C770.4855,-46.9868 735.4562,-32.6682 710.4002,-22.4263"/>
<polygon fill="#191970" stroke="#191970" points="711.5817,-19.1282 701.0008,-18.5843 708.9331,-25.6078 711.5817,-19.1282"/>
</g>
<!-- Node10 -->
<g id="node11" class="node">
<title>Node10</title>
<polygon fill="none" stroke="#bfbfbf" points="719.5,-.5 719.5,-19.5 772.5,-19.5 772.5,-.5 719.5,-.5"/>
<text text-anchor="middle" x="746" y="-7.5" font-family="FreeSans.ttf" font-size="10.00" fill="#000000">iterator</text>
</g>
<!-- Node6&#45;&gt;Node10 -->
<g id="edge11" class="edge">
<title>Node6&#45;&gt;Node10</title>
<path fill="none" stroke="#191970" d="M804.6327,-56.2455C794.0446,-47.8943 778.5936,-35.7076 766.2107,-25.9408"/>
<polygon fill="#191970" stroke="#191970" points="768.2447,-23.0875 758.2255,-19.6427 763.9097,-28.5837 768.2447,-23.0875"/>
</g>
<!-- Node11 -->
<g id="node12" class="node">
<title>Node11</title>
<polygon fill="none" stroke="#bfbfbf" points="791,-.5 791,-19.5 835,-19.5 835,-.5 791,-.5"/>
<text text-anchor="middle" x="813" y="-7.5" font-family="FreeSans.ttf" font-size="10.00" fill="#000000">limits</text>
</g>
<!-- Node6&#45;&gt;Node11 -->
<g id="edge12" class="edge">
<title>Node6&#45;&gt;Node11</title>
<path fill="none" stroke="#191970" d="M816.3033,-56.2455C815.7813,-48.9382 815.0496,-38.6944 814.4075,-29.7046"/>
<polygon fill="#191970" stroke="#191970" points="817.8924,-29.3679 813.6888,-19.6427 810.9102,-29.8667 817.8924,-29.3679"/>
</g>
<!-- Node12 -->
<g id="node13" class="node">
<title>Node12</title>
<polygon fill="none" stroke="#bfbfbf" points="853.5,-.5 853.5,-19.5 918.5,-19.5 918.5,-.5 853.5,-.5"/>
<text text-anchor="middle" x="886" y="-7.5" font-family="FreeSans.ttf" font-size="10.00" fill="#000000">stdexcept</text>
</g>
<!-- Node6&#45;&gt;Node12 -->
<g id="edge13" class="edge">
<title>Node6&#45;&gt;Node12</title>
<path fill="none" stroke="#191970" d="M829.0189,-56.2455C839.2098,-47.9746 854.0362,-35.9416 866.0107,-26.2232"/>
<polygon fill="#191970" stroke="#191970" points="868.5598,-28.662 874.1188,-19.6427 864.1486,-23.2268 868.5598,-28.662"/>
</g>
<!-- Node13 -->
<g id="node14" class="node">
<title>Node13</title>
<polygon fill="none" stroke="#bfbfbf" points="571.5,-.5 571.5,-19.5 640.5,-19.5 640.5,-.5 571.5,-.5"/>
<text text-anchor="middle" x="606" y="-7.5" font-family="FreeSans.ttf" font-size="10.00" fill="#000000">type_traits</text>
</g>
<!-- Node6&#45;&gt;Node13 -->
<g id="edge14" class="edge">
<title>Node6&#45;&gt;Node13</title>
<path fill="none" stroke="#191970" d="M780.7278,-56.3733C744.7097,-46.8139 689.4174,-32.1392 650.7046,-21.8647"/>
<polygon fill="#191970" stroke="#191970" points="651.3123,-18.4049 640.7491,-19.2225 649.5166,-25.1707 651.3123,-18.4049"/>
</g>
<!-- Node14 -->
<g id="node15" class="node">
<title>Node14</title>
<polygon fill="none" stroke="#bfbfbf" points="936.5,-.5 936.5,-19.5 981.5,-19.5 981.5,-.5 936.5,-.5"/>
<text text-anchor="middle" x="959" y="-7.5" font-family="FreeSans.ttf" font-size="10.00" fill="#000000">utility</text>
</g>
<!-- Node6&#45;&gt;Node14 -->
<g id="edge15" class="edge">
<title>Node6&#45;&gt;Node14</title>
<path fill="none" stroke="#191970" d="M841.4107,-56.3733C865.0361,-47.0562 900.9837,-32.8797 926.9127,-22.6541"/>
<polygon fill="#191970" stroke="#191970" points="928.2945,-25.8716 936.3132,-18.9469 925.7264,-19.3597 928.2945,-25.8716"/>
</g>
<!-- Node18&#45;&gt;Node2 -->
<g id="edge22" class="edge">
<title>Node18&#45;&gt;Node2</title>
<path fill="none" stroke="#191970" d="M1203.9063,-229.8906C1193.0285,-220.4683 1176.2252,-205.9134 1163.18,-194.6137"/>
<polygon fill="#191970" stroke="#191970" points="1165.1004,-191.6466 1155.2502,-187.7449 1160.5173,-196.9377 1165.1004,-191.6466"/>
</g>
<!-- Node19&#45;&gt;Node3 -->
<g id="edge48" class="edge">
<title>Node19&#45;&gt;Node3</title>
<path fill="none" stroke="#191970" d="M1160.3263,-403.4934C1203.516,-383.5791 1296.5802,-332.7877 1323,-255 1343.0589,-195.9408 1325.2039,-120.7599 1314.5728,-85.6826"/>
<polygon fill="#191970" stroke="#191970" points="1317.7901,-84.2493 1311.4321,-75.7743 1311.1173,-86.3644 1317.7901,-84.2493"/>
</g>
<!-- Node19&#45;&gt;Node16 -->
<g id="edge51" class="edge">
<title>Node19&#45;&gt;Node16</title>
<path fill="none" stroke="#191970" d="M1146.0139,-403.2287C1157.0169,-390.0061 1177.6458,-365.8973 1197,-347 1249.0522,-296.1766 1336.9625,-289.3517 1305,-224 1272.2507,-157.0395 1179.1484,-133.8485 1126.1449,-125.9569"/>
<polygon fill="#191970" stroke="#191970" points="1126.4928,-122.4719 1116.1087,-124.5742 1125.5374,-129.4064 1126.4928,-122.4719"/>
</g>
<!-- Node19&#45;&gt;Node18 -->
<g id="edge49" class="edge">
<title>Node19&#45;&gt;Node18</title>
<path fill="none" stroke="#191970" d="M1140.4896,-403.417C1143.9948,-390.4079 1150.8729,-366.5402 1159,-347 1172.4645,-314.6269 1192.1234,-278.8575 1204.2103,-257.8254"/>
<polygon fill="#191970" stroke="#191970" points="1207.3324,-259.4188 1209.3286,-249.0137 1201.2794,-255.9029 1207.3324,-259.4188"/>
</g>
<!-- Node20 -->
<g id="node21" class="node">
<title>Node20</title>
<g id="a_node21"><a xlink:href="Position_8h.html" target="_top" xlink:title="Position.h">
<polygon fill="none" stroke="#000000" points="623.5,-347.5 623.5,-366.5 688.5,-366.5 688.5,-347.5 623.5,-347.5"/>
<text text-anchor="middle" x="656" y="-354.5" font-family="FreeSans.ttf" font-size="10.00" fill="#000000">Position.h</text>
</a>
</g>
</g>
<!-- Node19&#45;&gt;Node20 -->
<g id="edge24" class="edge">
<title>Node19&#45;&gt;Node20</title>
<path fill="none" stroke="#191970" d="M1057.324,-403.6269C954.2191,-391.6479 779.4644,-371.3444 698.9541,-361.9905"/>
<polygon fill="#191970" stroke="#191970" points="699.0319,-358.4761 688.6948,-360.7986 698.224,-365.4293 699.0319,-358.4761"/>
</g>
<!-- Node22 -->
<g id="node23" class="node">
<title>Node22</title>
<g id="a_node23"><a xlink:href="Rotation_8h.html" target="_top" xlink:title="iDynTree/Core/Rotation.h">
<polygon fill="none" stroke="#000000" points="648.5,-291.5 648.5,-310.5 785.5,-310.5 785.5,-291.5 648.5,-291.5"/>
<text text-anchor="middle" x="717" y="-298.5" font-family="FreeSans.ttf" font-size="10.00" fill="#000000">iDynTree/Core/Rotation.h</text>
</a>
</g>
</g>
<!-- Node19&#45;&gt;Node22 -->
<g id="edge47" class="edge">
<title>Node19&#45;&gt;Node22</title>
<path fill="none" stroke="#191970" d="M1057.2676,-403.4966C1004.926,-396.197 935.6329,-384.3821 876,-367 828.8773,-353.2645 776.7799,-329.9906 745.483,-315.0689"/>
<polygon fill="#191970" stroke="#191970" points="746.6133,-311.7284 736.0853,-310.5403 743.5746,-318.0345 746.6133,-311.7284"/>
</g>
<!-- Node26 -->
<g id="node27" class="node">
<title>Node26</title>
<polygon fill="none" stroke="#bfbfbf" points="668,-112.5 668,-131.5 728,-131.5 728,-112.5 668,-112.5"/>
<text text-anchor="middle" x="698" y="-119.5" font-family="FreeSans.ttf" font-size="10.00" fill="#000000">iostream</text>
</g>
<!-- Node19&#45;&gt;Node26 -->
<g id="edge50" class="edge">
<title>Node19&#45;&gt;Node26</title>
<path fill="none" stroke="#191970" d="M1123.3604,-403.3179C1059.0232,-360.7676 801.0548,-190.1567 721.4884,-137.5344"/>
<polygon fill="#191970" stroke="#191970" points="722.9662,-134.3155 712.6946,-131.7185 719.1047,-140.1541 722.9662,-134.3155"/>
</g>
<!-- Node20&#45;&gt;Node15 -->
<g id="edge46" class="edge">
<title>Node20&#45;&gt;Node15</title>
<path fill="none" stroke="#191970" d="M623.1266,-352.838C571.5004,-344.4133 472.3296,-320.2231 424,-255 399.2398,-221.585 410.3066,-169.3626 419.0462,-141.3316"/>
<polygon fill="#191970" stroke="#191970" points="422.4656,-142.142 422.3143,-131.5482 415.8262,-139.924 422.4656,-142.142"/>
</g>
<!-- Node21 -->
<g id="node22" class="node">
<title>Node21</title>
<g id="a_node22"><a xlink:href="PositionRaw_8h.html" target="_top" xlink:title="iDynTree/Core/PositionRaw.h">
<polygon fill="none" stroke="#000000" points="630,-230 630,-249 786,-249 786,-230 630,-230"/>
<text text-anchor="middle" x="708" y="-237" font-family="FreeSans.ttf" font-size="10.00" fill="#000000">iDynTree/Core/PositionRaw.h</text>
</a>
</g>
</g>
<!-- Node20&#45;&gt;Node21 -->
<g id="edge25" class="edge">
<title>Node20&#45;&gt;Node21</title>
<path fill="none" stroke="#191970" d="M649.3223,-347.1462C641.2009,-333.83 629.6652,-309.6155 639,-291 647.0248,-274.9968 662.6431,-262.6956 676.9934,-254.135"/>
<polygon fill="#191970" stroke="#191970" points="679.1066,-256.9649 686.1479,-249.0484 675.7067,-250.846 679.1066,-256.9649"/>
</g>
<!-- Node20&#45;&gt;Node22 -->
<g id="edge28" class="edge">
<title>Node20&#45;&gt;Node22</title>
<path fill="none" stroke="#191970" d="M666.6254,-347.2455C675.5473,-339.0549 688.488,-327.1749 699.0192,-317.5069"/>
<polygon fill="#191970" stroke="#191970" points="701.4968,-319.9837 706.4964,-310.6427 696.7629,-314.8271 701.4968,-319.9837"/>
</g>
<!-- Node21&#45;&gt;Node2 -->
<g id="edge26" class="edge">
<title>Node21&#45;&gt;Node2</title>
<path fill="none" stroke="#191970" d="M775.6466,-229.9581C854.2885,-218.8653 983.8271,-200.5932 1066.465,-188.9367"/>
<polygon fill="#191970" stroke="#191970" points="1067.1403,-192.3762 1076.5534,-187.5137 1066.1626,-185.4448 1067.1403,-192.3762"/>
</g>
<!-- Node21&#45;&gt;Node15 -->
<g id="edge27" class="edge">
<title>Node21&#45;&gt;Node15</title>
<path fill="none" stroke="#191970" d="M684.9228,-229.8845C634.5614,-208.9006 514.742,-158.9758 457.499,-135.1246"/>
<polygon fill="#191970" stroke="#191970" points="458.7951,-131.873 448.2182,-131.2576 456.1028,-138.3346 458.7951,-131.873"/>
</g>
<!-- Node22&#45;&gt;Node2 -->
<g id="edge45" class="edge">
<title>Node22&#45;&gt;Node2</title>
<path fill="none" stroke="#191970" d="M737.2891,-291.3822C771.8332,-275.3465 844.5945,-243.0339 909,-224 961.1858,-208.5774 1021.4434,-196.9001 1067.8749,-189.1702"/>
<polygon fill="#191970" stroke="#191970" points="1068.5618,-192.6044 1077.8638,-187.5325 1067.4292,-185.6966 1068.5618,-192.6044"/>
</g>
<!-- Node22&#45;&gt;Node15 -->
<g id="edge29" class="edge">
<title>Node22&#45;&gt;Node15</title>
<path fill="none" stroke="#191970" d="M648.4568,-298.4016C577.2829,-294.1919 472.5367,-283.2518 445,-255 415.5365,-224.7713 418.2353,-170.8138 422.3476,-141.7843"/>
<polygon fill="#191970" stroke="#191970" points="425.8442,-142.0864 423.988,-131.6555 418.9342,-140.9673 425.8442,-142.0864"/>
</g>
<!-- Node22&#45;&gt;Node18 -->
<g id="edge30" class="edge">
<title>Node22&#45;&gt;Node18</title>
<path fill="none" stroke="#191970" d="M785.5608,-294.4378C866.5754,-286.4092 1005.3632,-271.7945 1124,-255 1133.0894,-253.7133 1142.6672,-252.2264 1152.0598,-250.6933"/>
<polygon fill="#191970" stroke="#191970" points="1152.8553,-254.1092 1162.1472,-249.0188 1151.709,-247.2037 1152.8553,-254.1092"/>
</g>
<!-- Node23 -->
<g id="node24" class="node">
<title>Node23</title>
<g id="a_node24"><a xlink:href="RotationRaw_8h.html" target="_top" xlink:title="iDynTree/Core/RotationRaw.h">
<polygon fill="none" stroke="#000000" points="454,-230 454,-249 612,-249 612,-230 454,-230"/>
<text text-anchor="middle" x="533" y="-237" font-family="FreeSans.ttf" font-size="10.00" fill="#000000">iDynTree/Core/RotationRaw.h</text>
</a>
</g>
</g>
<!-- Node22&#45;&gt;Node23 -->
<g id="edge31" class="edge">
<title>Node22&#45;&gt;Node23</title>
<path fill="none" stroke="#191970" d="M688.25,-291.3906C656.7883,-280.8749 606.1992,-263.966 571.3686,-252.3243"/>
<polygon fill="#191970" stroke="#191970" points="572.1419,-248.8925 561.5481,-249.0419 569.9228,-255.5315 572.1419,-248.8925"/>
</g>
<!-- Node23&#45;&gt;Node15 -->
<g id="edge44" class="edge">
<title>Node23&#45;&gt;Node15</title>
<path fill="none" stroke="#191970" d="M524.2437,-229.8845C506.2171,-210.0889 464.736,-164.5372 441.8609,-139.4173"/>
<polygon fill="#191970" stroke="#191970" points="444.1981,-136.7856 434.8772,-131.7484 439.0225,-141.4987 444.1981,-136.7856"/>
</g>
<!-- Node24 -->
<g id="node25" class="node">
<title>Node24</title>
<g id="a_node25"><a xlink:href="MatrixFixSize_8h.html" target="_top" xlink:title="iDynTree/Core/MatrixFixSize.h">
<polygon fill="none" stroke="#000000" points="864.5,-168.5 864.5,-187.5 1025.5,-187.5 1025.5,-168.5 864.5,-168.5"/>
<text text-anchor="middle" x="945" y="-175.5" font-family="FreeSans.ttf" font-size="10.00" fill="#000000">iDynTree/Core/MatrixFixSize.h</text>
</a>
</g>
</g>
<!-- Node23&#45;&gt;Node24 -->
<g id="edge32" class="edge">
<title>Node23&#45;&gt;Node24</title>
<path fill="none" stroke="#191970" d="M585.5345,-229.9517C597.1988,-227.914 609.5096,-225.8271 621,-224 703.1534,-210.9367 797.3188,-197.7689 862.8821,-188.8894"/>
<polygon fill="#191970" stroke="#191970" points="863.7115,-192.3092 873.1529,-187.5018 862.7743,-185.3723 863.7115,-192.3092"/>
</g>
<!-- Node24&#45;&gt;Node3 -->
<g id="edge33" class="edge">
<title>Node24&#45;&gt;Node3</title>
<path fill="none" stroke="#191970" d="M947.6927,-168.0224C952.2686,-153.1505 963.0649,-125.4779 983,-112 1003.7397,-97.9781 1149.1445,-81.5315 1238.2928,-72.5961"/>
<polygon fill="#191970" stroke="#191970" points="1238.7345,-76.0695 1248.339,-71.597 1238.0417,-69.1039 1238.7345,-76.0695"/>
</g>
<!-- Node24&#45;&gt;Node7 -->
<g id="edge39" class="edge">
<title>Node24&#45;&gt;Node7</title>
<path fill="none" stroke="#191970" d="M944.8296,-168.3375C945.0873,-154.3628 947.5221,-128.3932 961,-112 973.8115,-96.4175 1090.4711,-47.3302 1148.9279,-23.3912"/>
<polygon fill="#191970" stroke="#191970" points="1150.5225,-26.5207 1158.4575,-19.5003 1147.8765,-20.0401 1150.5225,-26.5207"/>
</g>
<!-- Node24&#45;&gt;Node15 -->
<g id="edge41" class="edge">
<title>Node24&#45;&gt;Node15</title>
<path fill="none" stroke="#191970" d="M864.4757,-169.3114C748.1236,-156.7571 538.1767,-134.1038 458.1614,-125.4702"/>
<polygon fill="#191970" stroke="#191970" points="458.5076,-121.9873 448.1898,-124.3943 457.7566,-128.9469 458.5076,-121.9873"/>
</g>
<!-- Node24&#45;&gt;Node16 -->
<g id="edge43" class="edge">
<title>Node24&#45;&gt;Node16</title>
<path fill="none" stroke="#191970" d="M969.5826,-168.3733C992.9496,-159.2226 1028.2862,-145.3844 1054.2784,-135.2057"/>
<polygon fill="#191970" stroke="#191970" points="1055.703,-138.4066 1063.7382,-131.5011 1053.1505,-131.8886 1055.703,-138.4066"/>
</g>
<!-- Node24&#45;&gt;Node17 -->
<g id="edge40" class="edge">
<title>Node24&#45;&gt;Node17</title>
<path fill="none" stroke="#191970" d="M957.5414,-168.2455C968.2787,-159.8943 983.9473,-147.7076 996.5047,-137.9408"/>
<polygon fill="#191970" stroke="#191970" points="998.8575,-140.5449 1004.6023,-131.6427 994.5599,-135.0194 998.8575,-140.5449"/>
</g>
<!-- Node25 -->
<g id="node26" class="node">
<title>Node25</title>
<g id="a_node26"><a xlink:href="MatrixView_8h.html" target="_top" xlink:title="iDynTree/Core/MatrixView.h">
<polygon fill="none" stroke="#000000" points="746.5,-112.5 746.5,-131.5 897.5,-131.5 897.5,-112.5 746.5,-112.5"/>
<text text-anchor="middle" x="822" y="-119.5" font-family="FreeSans.ttf" font-size="10.00" fill="#000000">iDynTree/Core/MatrixView.h</text>
</a>
</g>
</g>
<!-- Node24&#45;&gt;Node25 -->
<g id="edge34" class="edge">
<title>Node24&#45;&gt;Node25</title>
<path fill="none" stroke="#191970" d="M923.8555,-168.3733C904.1108,-159.3838 874.4302,-145.8706 852.1945,-135.7471"/>
<polygon fill="#191970" stroke="#191970" points="853.42,-132.4594 842.8685,-131.5011 850.5194,-138.8302 853.42,-132.4594"/>
</g>
<!-- Node24&#45;&gt;Node26 -->
<g id="edge42" class="edge">
<title>Node24&#45;&gt;Node26</title>
<path fill="none" stroke="#191970" d="M899.863,-168.4719C859.8069,-159.9143 799.4535,-146.7723 738.0671,-132.2021"/>
<polygon fill="#191970" stroke="#191970" points="738.7481,-128.7664 728.209,-129.8518 737.1247,-135.5756 738.7481,-128.7664"/>
</g>
<!-- Node25&#45;&gt;Node3 -->
<g id="edge38" class="edge">
<title>Node25&#45;&gt;Node3</title>
<path fill="none" stroke="#191970" d="M897.6707,-113.2807C990.7944,-102.5504 1147.6521,-84.4763 1238.0642,-74.0584"/>
<polygon fill="#191970" stroke="#191970" points="1238.6804,-77.5107 1248.214,-72.8889 1237.8791,-70.5567 1238.6804,-77.5107"/>
</g>
<!-- Node25&#45;&gt;Node6 -->
<g id="edge37" class="edge">
<title>Node25&#45;&gt;Node6</title>
<path fill="none" stroke="#191970" d="M821.1291,-112.2455C820.4766,-104.9382 819.562,-94.6944 818.7593,-85.7046"/>
<polygon fill="#191970" stroke="#191970" points="822.2365,-85.2918 817.861,-75.6427 815.2642,-85.9143 822.2365,-85.2918"/>
</g>
<!-- Node25&#45;&gt;Node7 -->
<g id="edge35" class="edge">
<title>Node25&#45;&gt;Node7</title>
<path fill="none" stroke="#191970" d="M852.6934,-112.4509C918.9779,-91.8291 1075.227,-43.2183 1146.0203,-21.1937"/>
<polygon fill="#191970" stroke="#191970" points="1147.3154,-24.4563 1155.8242,-18.1436 1145.2359,-17.7723 1147.3154,-24.4563"/>
</g>
<!-- Node25&#45;&gt;Node13 -->
<g id="edge36" class="edge">
<title>Node25&#45;&gt;Node13</title>
<path fill="none" stroke="#191970" d="M803.584,-112.4509C765.5651,-92.7375 678.2183,-47.4465 633.4905,-24.2543"/>
<polygon fill="#191970" stroke="#191970" points="634.8581,-21.021 624.3694,-19.5249 631.6359,-27.2353 634.8581,-21.021"/>
</g>
<!-- Node27&#45;&gt;Node2 -->
<g id="edge53" class="edge">
<title>Node27&#45;&gt;Node2</title>
<path fill="none" stroke="#191970" d="M1036.8438,-229.8906C1057.8136,-219.7359 1091.0944,-203.6196 1115.0036,-192.0416"/>
<polygon fill="#191970" stroke="#191970" points="1116.8208,-195.0504 1124.2956,-187.5419 1113.7699,-188.7502 1116.8208,-195.0504"/>
</g>
<!-- Node27&#45;&gt;Node24 -->
<g id="edge54" class="edge">
<title>Node27&#45;&gt;Node24</title>
<path fill="none" stroke="#191970" d="M1005.75,-229.8906C994.614,-220.3786 977.354,-205.6357 964.0732,-194.2917"/>
<polygon fill="#191970" stroke="#191970" points="966.2856,-191.5784 956.4086,-187.7449 961.7392,-196.9011 966.2856,-191.5784"/>
</g>
<!-- Node29 -->
<g id="node30" class="node">
<title>Node29</title>
<g id="a_node30"><a xlink:href="Transform_8h.html" target="_top" xlink:title="iDynTree/Core/Transform.h">
<polygon fill="none" stroke="#000000" points="613,-403.5 613,-422.5 759,-422.5 759,-403.5 613,-403.5"/>
<text text-anchor="middle" x="686" y="-410.5" font-family="FreeSans.ttf" font-size="10.00" fill="#000000">iDynTree/Core/Transform.h</text>
</a>
</g>
</g>
<!-- Node28&#45;&gt;Node29 -->
<g id="edge57" class="edge">
<title>Node28&#45;&gt;Node29</title>
<path fill="none" stroke="#191970" d="M222.5132,-465.8839C322.6126,-454.4626 498.6668,-434.3748 602.5879,-422.5173"/>
<polygon fill="#191970" stroke="#191970" points="603.1853,-425.972 612.7241,-421.3608 602.3917,-419.0171 603.1853,-425.972"/>
</g>
<!-- Node30 -->
<g id="node31" class="node">
<title>Node30</title>
<g id="a_node31"><a xlink:href="Indices_8h.html" target="_top" xlink:title="iDynTree/Model/Indices.h">
<polygon fill="none" stroke="#000000" points="64,-347.5 64,-366.5 202,-366.5 202,-347.5 64,-347.5"/>
<text text-anchor="middle" x="133" y="-354.5" font-family="FreeSans.ttf" font-size="10.00" fill="#000000">iDynTree/Model/Indices.h</text>
</a>
</g>
</g>
<!-- Node28&#45;&gt;Node30 -->
<g id="edge62" class="edge">
<title>Node28&#45;&gt;Node30</title>
<path fill="none" stroke="#191970" d="M126.0876,-464.9632C110.2076,-456.4557 89.5306,-442.3465 80,-423 70.4566,-403.6275 89.3341,-384.7479 107.148,-372.1789"/>
<polygon fill="#191970" stroke="#191970" points="109.2656,-374.9747 115.6784,-366.5411 105.4059,-369.1349 109.2656,-374.9747"/>
</g>
<!-- Node32 -->
<g id="node33" class="node">
<title>Node32</title>
<g id="a_node33"><a xlink:href="IJoint_8h.html" target="_top" xlink:title="iDynTree/Model/IJoint.h">
<polygon fill="none" stroke="#000000" points="89,-403.5 89,-422.5 217,-422.5 217,-403.5 89,-403.5"/>
<text text-anchor="middle" x="153" y="-410.5" font-family="FreeSans.ttf" font-size="10.00" fill="#000000">iDynTree/Model/IJoint.h</text>
</a>
</g>
</g>
<!-- Node28&#45;&gt;Node32 -->
<g id="edge66" class="edge">
<title>Node28&#45;&gt;Node32</title>
<path fill="none" stroke="#191970" d="M147.9375,-464.8906C148.7692,-456.3657 150.0108,-443.6392 151.0562,-432.9235"/>
<polygon fill="#191970" stroke="#191970" points="154.5617,-433.0375 152.0493,-422.7449 147.5947,-432.3577 154.5617,-433.0375"/>
</g>
<!-- Node29&#45;&gt;Node15 -->
<g id="edge61" class="edge">
<title>Node29&#45;&gt;Node15</title>
<path fill="none" stroke="#191970" d="M633.1459,-403.455C519.8644,-381.8097 259.82,-325.3688 209,-255 156.8493,-182.7885 321.3853,-141.8329 393.6874,-127.6848"/>
<polygon fill="#191970" stroke="#191970" points="394.4784,-131.0972 403.6489,-125.7913 393.1712,-124.2203 394.4784,-131.0972"/>
</g>
<!-- Node29&#45;&gt;Node20 -->
<g id="edge58" class="edge">
<title>Node29&#45;&gt;Node20</title>
<path fill="none" stroke="#191970" d="M680.7744,-403.2455C676.6877,-395.617 670.8865,-384.7881 665.925,-375.5267"/>
<polygon fill="#191970" stroke="#191970" points="668.9732,-373.8047 661.1657,-366.6427 662.8028,-377.1103 668.9732,-373.8047"/>
</g>
<!-- Node29&#45;&gt;Node22 -->
<g id="edge59" class="edge">
<title>Node29&#45;&gt;Node22</title>
<path fill="none" stroke="#191970" d="M688.643,-403.4509C693.722,-385.1013 704.9347,-344.5908 711.6388,-320.3693"/>
<polygon fill="#191970" stroke="#191970" points="715.0692,-321.0962 714.3636,-310.5249 708.3228,-319.2289 715.0692,-321.0962"/>
</g>
<!-- Node29&#45;&gt;Node24 -->
<g id="edge60" class="edge">
<title>Node29&#45;&gt;Node24</title>
<path fill="none" stroke="#191970" d="M696.4739,-403.4967C736.0085,-367.6255 876.4747,-240.1755 926.8527,-194.4657"/>
<polygon fill="#191970" stroke="#191970" points="929.3418,-196.9333 934.3958,-187.6216 924.638,-191.7492 929.3418,-196.9333"/>
</g>
<!-- Node30&#45;&gt;Node4 -->
<g id="edge63" class="edge">
<title>Node30&#45;&gt;Node4</title>
<path fill="none" stroke="#191970" d="M130.3651,-347.4925C122.2286,-315.8082 101.2139,-213.2664 156,-168 263.3593,-79.2955 798.411,-91.981 886,-76 953.8026,-63.6291 1030.3359,-38.4104 1073.8091,-22.9785"/>
<polygon fill="#191970" stroke="#191970" points="1075.1132,-26.2292 1083.3465,-19.5611 1072.752,-19.6394 1075.1132,-26.2292"/>
</g>
<!-- Node30&#45;&gt;Node15 -->
<g id="edge64" class="edge">
<title>Node30&#45;&gt;Node15</title>
<path fill="none" stroke="#191970" d="M131.8957,-347.4327C128.8985,-316.4277 124.0274,-217.8472 176,-168 206.7221,-138.5343 333.1124,-127.3555 393.5366,-123.6354"/>
<polygon fill="#191970" stroke="#191970" points="393.8931,-127.1206 403.6721,-123.0436 393.485,-120.1325 393.8931,-127.1206"/>
</g>
<!-- Node31 -->
<g id="node32" class="node">
<title>Node31</title>
<polygon fill="none" stroke="#bfbfbf" points="0,-291.5 0,-310.5 86,-310.5 86,-291.5 0,-291.5"/>
<text text-anchor="middle" x="43" y="-298.5" font-family="FreeSans.ttf" font-size="10.00" fill="#000000">ModelExport.h</text>
</g>
<!-- Node30&#45;&gt;Node31 -->
<g id="edge65" class="edge">
<title>Node30&#45;&gt;Node31</title>
<path fill="none" stroke="#191970" d="M117.3232,-347.2455C103.5144,-338.6534 83.1807,-326.0014 67.2708,-316.1018"/>
<polygon fill="#191970" stroke="#191970" points="68.8368,-312.954 58.4972,-310.6427 65.1387,-318.8974 68.8368,-312.954"/>
</g>
<!-- Node32&#45;&gt;Node30 -->
<g id="edge67" class="edge">
<title>Node32&#45;&gt;Node30</title>
<path fill="none" stroke="#191970" d="M149.5163,-403.2455C146.8492,-395.7776 143.0867,-385.2427 139.8263,-376.1137"/>
<polygon fill="#191970" stroke="#191970" points="143.1033,-374.8829 136.4438,-366.6427 136.5111,-377.2373 143.1033,-374.8829"/>
</g>
<!-- Node33&#45;&gt;Node29 -->
<g id="edge69" class="edge">
<title>Node33&#45;&gt;Node29</title>
<path fill="none" stroke="#191970" d="M968.9976,-582.3711C949.9373,-573.4546 921.1979,-559.5633 897,-546 826.3617,-506.4061 746.3301,-453.6862 708.3234,-428.1458"/>
<polygon fill="#191970" stroke="#191970" points="710.2677,-425.2354 700.0194,-422.5479 706.3549,-431.0398 710.2677,-425.2354"/>
</g>
<!-- Node33&#45;&gt;Node30 -->
<g id="edge82" class="edge">
<title>Node33&#45;&gt;Node30</title>
<path fill="none" stroke="#191970" d="M915.2936,-589.4135C737.1212,-582.9469 300.1419,-565.2109 275,-546 221.6168,-505.2101 270.3394,-453.4737 226,-403 212.8599,-388.042 193.7296,-377.4253 176.2314,-370.1896"/>
<polygon fill="#191970" stroke="#191970" points="177.3158,-366.8563 166.7265,-366.5115 174.7895,-373.3846 177.3158,-366.8563"/>
</g>
<!-- Node34 -->
<g id="node35" class="node">
<title>Node34</title>
<g id="a_node35"><a xlink:href="Twist_8h.html" target="_top" xlink:title="iDynTree/Core/Twist.h">
<polygon fill="none" stroke="#000000" points="1289,-526.5 1289,-545.5 1411,-545.5 1411,-526.5 1289,-526.5"/>
<text text-anchor="middle" x="1350" y="-533.5" font-family="FreeSans.ttf" font-size="10.00" fill="#000000">iDynTree/Core/Twist.h</text>
</a>
</g>
</g>
<!-- Node33&#45;&gt;Node34 -->
<g id="edge70" class="edge">
<title>Node33&#45;&gt;Node34</title>
<path fill="none" stroke="#191970" d="M1051.4772,-582.4369C1114.5122,-572.6314 1212.4563,-557.3957 1278.8155,-547.0731"/>
<polygon fill="#191970" stroke="#191970" points="1279.4332,-550.5192 1288.7764,-545.5237 1278.3572,-543.6024 1279.4332,-550.5192"/>
</g>
<!-- Node35 -->
<g id="node36" class="node">
<title>Node35</title>
<g id="a_node36"><a xlink:href="SpatialAcc_8h.html" target="_top" xlink:title="iDynTree/Core/SpatialAcc.h">
<polygon fill="none" stroke="#000000" points="1123,-526.5 1123,-545.5 1271,-545.5 1271,-526.5 1123,-526.5"/>
<text text-anchor="middle" x="1197" y="-533.5" font-family="FreeSans.ttf" font-size="10.00" fill="#000000">iDynTree/Core/SpatialAcc.h</text>
</a>
</g>
</g>
<!-- Node33&#45;&gt;Node35 -->
<g id="edge72" class="edge">
<title>Node33&#45;&gt;Node35</title>
<path fill="none" stroke="#191970" d="M1025.5846,-582.3733C1060.6016,-572.9001 1114.1881,-558.4032 1152.1125,-548.1435"/>
<polygon fill="#191970" stroke="#191970" points="1153.1408,-551.4912 1161.8798,-545.5011 1151.3127,-544.7341 1153.1408,-551.4912"/>
</g>
<!-- Node36 -->
<g id="node37" class="node">
<title>Node36</title>
<g id="a_node37"><a xlink:href="Wrench_8h.html" target="_top" xlink:title="iDynTree/Core/Wrench.h">
<polygon fill="none" stroke="#000000" points="971.5,-526.5 971.5,-545.5 1104.5,-545.5 1104.5,-526.5 971.5,-526.5"/>
<text text-anchor="middle" x="1038" y="-533.5" font-family="FreeSans.ttf" font-size="10.00" fill="#000000">iDynTree/Core/Wrench.h</text>
</a>
</g>
</g>
<!-- Node33&#45;&gt;Node36 -->
<g id="edge74" class="edge">
<title>Node33&#45;&gt;Node36</title>
<path fill="none" stroke="#191970" d="M998.361,-582.2455C1005.175,-574.2958 1014.9681,-562.8706 1023.1152,-553.3656"/>
<polygon fill="#191970" stroke="#191970" points="1025.8843,-555.513 1029.7349,-545.6427 1020.5695,-550.9575 1025.8843,-555.513"/>
</g>
<!-- Node38 -->
<g id="node39" class="node">
<title>Node38</title>
<g id="a_node39"><a xlink:href="ArticulatedBodyInertia_8h.html" target="_top" xlink:title="iDynTree/Core/Articulated\lBodyInertia.h">
<polygon fill="none" stroke="#000000" points="218.5,-224.5 218.5,-254.5 359.5,-254.5 359.5,-224.5 218.5,-224.5"/>
<text text-anchor="start" x="226.5" y="-242.5" font-family="FreeSans.ttf" font-size="10.00" fill="#000000">iDynTree/Core/Articulated</text>
<text text-anchor="middle" x="289" y="-231.5" font-family="FreeSans.ttf" font-size="10.00" fill="#000000">BodyInertia.h</text>
</a>
</g>
</g>
<!-- Node33&#45;&gt;Node38 -->
<g id="edge79" class="edge">
<title>Node33&#45;&gt;Node38</title>
<path fill="none" stroke="#191970" d="M915.3128,-587.2383C734.6875,-574.7261 289,-537.4721 289,-474.5 289,-474.5 289,-474.5 289,-357 289,-325.3014 289,-288.7926 289,-264.9922"/>
<polygon fill="#191970" stroke="#191970" points="292.5001,-264.7101 289,-254.7101 285.5001,-264.7102 292.5001,-264.7101"/>
</g>
<!-- Node39 -->
<g id="node40" class="node">
<title>Node39</title>
<polygon fill="none" stroke="#bfbfbf" points="906.5,-526.5 906.5,-545.5 953.5,-545.5 953.5,-526.5 906.5,-526.5"/>
<text text-anchor="middle" x="930" y="-533.5" font-family="FreeSans.ttf" font-size="10.00" fill="#000000">vector</text>
</g>
<!-- Node33&#45;&gt;Node39 -->
<g id="edge83" class="edge">
<title>Node33&#45;&gt;Node39</title>
<path fill="none" stroke="#191970" d="M979.5488,-582.2455C970.7731,-574.0549 958.0446,-562.1749 947.686,-552.5069"/>
<polygon fill="#191970" stroke="#191970" points="950.0301,-549.9072 940.3314,-545.6427 945.2539,-555.0246 950.0301,-549.9072"/>
</g>
<!-- Node34&#45;&gt;Node1 -->
<g id="edge71" class="edge">
<title>Node34&#45;&gt;Node1</title>
<path fill="none" stroke="#191970" d="M1348.125,-526.3906C1346.7115,-519.1463 1344.7059,-508.8679 1342.8522,-499.3676"/>
<polygon fill="#191970" stroke="#191970" points="1346.2859,-498.6892 1340.9355,-489.5446 1339.4155,-500.0298 1346.2859,-498.6892"/>
</g>
<!-- Node35&#45;&gt;Node1 -->
<g id="edge73" class="edge">
<title>Node35&#45;&gt;Node1</title>
<path fill="none" stroke="#191970" d="M1219.0313,-526.3906C1239.0857,-517.6435 1269.2818,-504.4728 1294.2334,-493.5897"/>
<polygon fill="#191970" stroke="#191970" points="1295.7408,-496.7507 1303.5075,-489.5446 1292.9422,-490.3345 1295.7408,-496.7507"/>
</g>
<!-- Node37 -->
<g id="node38" class="node">
<title>Node37</title>
<g id="a_node38"><a xlink:href="SpatialForceVector_8h.html" target="_top" xlink:title="iDynTree/Core/SpatialForce\lVector.h">
<polygon fill="none" stroke="#000000" points="1079,-459.5 1079,-489.5 1227,-489.5 1227,-459.5 1079,-459.5"/>
<text text-anchor="start" x="1087" y="-477.5" font-family="FreeSans.ttf" font-size="10.00" fill="#000000">iDynTree/Core/SpatialForce</text>
<text text-anchor="middle" x="1153" y="-466.5" font-family="FreeSans.ttf" font-size="10.00" fill="#000000">Vector.h</text>
</a>
</g>
</g>
<!-- Node36&#45;&gt;Node37 -->
<g id="edge75" class="edge">
<title>Node36&#45;&gt;Node37</title>
<path fill="none" stroke="#191970" d="M1055.9688,-526.3906C1071.9649,-517.8361 1095.8723,-505.0509 1115.953,-494.3121"/>
<polygon fill="#191970" stroke="#191970" points="1117.7002,-497.3469 1124.8678,-489.5446 1114.399,-491.1741 1117.7002,-497.3469"/>
</g>
<!-- Node37&#45;&gt;Node2 -->
<g id="edge76" class="edge">
<title>Node37&#45;&gt;Node2</title>
<path fill="none" stroke="#191970" d="M1193.1386,-459.3467C1210.7858,-450.9508 1230.5186,-438.9394 1244,-423 1303.739,-352.3694 1360.7069,-297.8524 1305,-224 1293.6307,-208.9273 1252.3497,-197.3076 1214.438,-189.5172"/>
<polygon fill="#191970" stroke="#191970" points="1214.869,-186.0346 1204.3789,-187.5208 1213.5062,-192.9007 1214.869,-186.0346"/>
</g>
<!-- Node37&#45;&gt;Node18 -->
<g id="edge77" class="edge">
<title>Node37&#45;&gt;Node18</title>
<path fill="none" stroke="#191970" d="M1188.0324,-459.3603C1202.8862,-450.9673 1218.6656,-438.9543 1227,-423 1241.624,-395.0056 1226.4743,-300.6694 1218.8386,-259.2637"/>
<polygon fill="#191970" stroke="#191970" points="1222.2522,-258.478 1216.9566,-249.3016 1215.3739,-259.7775 1222.2522,-258.478"/>
</g>
<!-- Node37&#45;&gt;Node19 -->
<g id="edge78" class="edge">
<title>Node37&#45;&gt;Node19</title>
<path fill="none" stroke="#191970" d="M1149.2921,-459.2977C1147.3401,-451.2945 1144.923,-441.3843 1142.8266,-432.7889"/>
<polygon fill="#191970" stroke="#191970" points="1146.1716,-431.7328 1140.4017,-422.8469 1139.371,-433.3915 1146.1716,-431.7328"/>
</g>
<!-- Node38&#45;&gt;Node15 -->
<g id="edge81" class="edge">
<title>Node38&#45;&gt;Node15</title>
<path fill="none" stroke="#191970" d="M306.6299,-224.3795C332.4535,-202.2315 380.3742,-161.1316 406.9706,-138.3209"/>
<polygon fill="#191970" stroke="#191970" points="409.4894,-140.7716 414.8014,-131.6046 404.9322,-135.4581 409.4894,-140.7716"/>
</g>
<!-- Node38&#45;&gt;Node24 -->
<g id="edge80" class="edge">
<title>Node38&#45;&gt;Node24</title>
<path fill="none" stroke="#191970" d="M359.6578,-232.3694C386.3905,-229.7006 417.0942,-226.67 445,-224 588.0403,-210.3142 754.1776,-195.181 854.3616,-186.1386"/>
<polygon fill="#191970" stroke="#191970" points="854.8015,-189.6132 864.4466,-185.2288 854.1725,-182.6415 854.8015,-189.6132"/>
</g>
</g>
</svg>
