<?xml version="1.0" encoding="UTF-8" standalone="no"?>
<!DOCTYPE svg PUBLIC "-//W3C//DTD SVG 1.1//EN"
 "http://www.w3.org/Graphics/SVG/1.1/DTD/svg11.dtd">
<!-- Generated by graphviz version 2.40.1 (20161225.0304)
 -->
<!-- Title: FreeFloatingState.h Pages: 1 -->
<svg width="1254pt" height="666pt"
 viewBox="0.00 0.00 1253.50 666.00" xmlns="http://www.w3.org/2000/svg" xmlns:xlink="http://www.w3.org/1999/xlink">
<g id="graph0" class="graph" transform="scale(1 1) rotate(0) translate(4 662)">
<title>FreeFloatingState.h</title>
<!-- Node0 -->
<g id="node1" class="node">
<title>Node0</title>
<polygon fill="#bfbfbf" stroke="#000000" points="481.5,-638.5 481.5,-657.5 591.5,-657.5 591.5,-638.5 481.5,-638.5"/>
<text text-anchor="middle" x="536.5" y="-645.5" font-family="FreeSans.ttf" font-size="10.00" fill="#000000">FreeFloatingState.h</text>
</g>
<!-- Node1 -->
<g id="node2" class="node">
<title>Node1</title>
<g id="a_node2"><a xlink:href="Transform_8h.html" target="_top" xlink:title="iDynTree/Core/Transform.h">
<polygon fill="none" stroke="#000000" points="493.5,-403.5 493.5,-422.5 639.5,-422.5 639.5,-403.5 493.5,-403.5"/>
<text text-anchor="middle" x="566.5" y="-410.5" font-family="FreeSans.ttf" font-size="10.00" fill="#000000">iDynTree/Core/Transform.h</text>
</a>
</g>
</g>
<!-- Node0&#45;&gt;Node1 -->
<g id="edge1" class="edge">
<title>Node0&#45;&gt;Node1</title>
<path fill="none" stroke="#191970" d="M481.3884,-642.0975C431.6837,-635.5029 363.9316,-622.9106 347.5,-602 342.0079,-595.0108 346.6103,-590.8443 347.5,-582 353.0836,-526.4957 333.6965,-499.0773 372.5,-459 388.2022,-442.7823 438.2629,-431.1494 483.5954,-423.6393"/>
<polygon fill="#191970" stroke="#191970" points="484.1634,-427.093 493.4824,-422.0526 483.0541,-420.1815 484.1634,-427.093"/>
</g>
<!-- Node26 -->
<g id="node27" class="node">
<title>Node26</title>
<g id="a_node27"><a xlink:href="Twist_8h.html" target="_top" xlink:title="iDynTree/Core/Twist.h">
<polygon fill="none" stroke="#000000" points="912.5,-526.5 912.5,-545.5 1034.5,-545.5 1034.5,-526.5 912.5,-526.5"/>
<text text-anchor="middle" x="973.5" y="-533.5" font-family="FreeSans.ttf" font-size="10.00" fill="#000000">iDynTree/Core/Twist.h</text>
</a>
</g>
</g>
<!-- Node0&#45;&gt;Node26 -->
<g id="edge47" class="edge">
<title>Node0&#45;&gt;Node26</title>
<path fill="none" stroke="#191970" d="M580.7287,-638.4338C621.3481,-629.5045 683.1489,-615.5565 736.5,-602 804.955,-584.6056 883.8636,-562.1438 931.1565,-548.4194"/>
<polygon fill="#191970" stroke="#191970" points="932.415,-551.6985 941.0396,-545.5449 930.46,-544.977 932.415,-551.6985"/>
</g>
<!-- Node29 -->
<g id="node30" class="node">
<title>Node29</title>
<g id="a_node30"><a xlink:href="VectorDynSize_8h.html" target="_top" xlink:title="iDynTree/Core/VectorDynSize.h">
<polygon fill="none" stroke="#000000" points="0,-347.5 0,-366.5 167,-366.5 167,-347.5 0,-347.5"/>
<text text-anchor="middle" x="83.5" y="-354.5" font-family="FreeSans.ttf" font-size="10.00" fill="#000000">iDynTree/Core/VectorDynSize.h</text>
</a>
</g>
</g>
<!-- Node0&#45;&gt;Node29 -->
<g id="edge58" class="edge">
<title>Node0&#45;&gt;Node29</title>
<path fill="none" stroke="#191970" d="M481.1604,-644.8323C367.1123,-636.7859 116.5,-610.6158 116.5,-536 116.5,-536 116.5,-536 116.5,-474.5 116.5,-438.6698 102.1011,-398.9063 92.3258,-376.0396"/>
<polygon fill="#191970" stroke="#191970" points="95.4808,-374.5203 88.2281,-366.7971 89.0816,-377.3575 95.4808,-374.5203"/>
</g>
<!-- Node30 -->
<g id="node31" class="node">
<title>Node30</title>
<g id="a_node31"><a xlink:href="Indices_8h.html" target="_top" xlink:title="iDynTree/Model/Indices.h">
<polygon fill="none" stroke="#000000" points="1052.5,-526.5 1052.5,-545.5 1190.5,-545.5 1190.5,-526.5 1052.5,-526.5"/>
<text text-anchor="middle" x="1121.5" y="-533.5" font-family="FreeSans.ttf" font-size="10.00" fill="#000000">iDynTree/Model/Indices.h</text>
</a>
</g>
</g>
<!-- Node0&#45;&gt;Node30 -->
<g id="edge61" class="edge">
<title>Node0&#45;&gt;Node30</title>
<path fill="none" stroke="#191970" d="M589.21,-638.4998C639.8296,-629.3295 718.4377,-614.9658 786.5,-602 884.12,-583.4034 997.547,-560.8596 1064.2148,-547.5133"/>
<polygon fill="#191970" stroke="#191970" points="1064.986,-550.9285 1074.1037,-545.5324 1063.6111,-544.0648 1064.986,-550.9285"/>
</g>
<!-- Node32 -->
<g id="node33" class="node">
<title>Node32</title>
<g id="a_node33"><a xlink:href="LinkState_8h.html" target="_top" xlink:title="iDynTree/Model/LinkState.h">
<polygon fill="none" stroke="#000000" points="579,-582.5 579,-601.5 728,-601.5 728,-582.5 579,-582.5"/>
<text text-anchor="middle" x="653.5" y="-589.5" font-family="FreeSans.ttf" font-size="10.00" fill="#000000">iDynTree/Model/LinkState.h</text>
</a>
</g>
</g>
<!-- Node0&#45;&gt;Node32 -->
<g id="edge65" class="edge">
<title>Node0&#45;&gt;Node32</title>
<path fill="none" stroke="#191970" d="M556.613,-638.3733C575.3103,-629.4241 603.3744,-615.9917 624.4934,-605.8835"/>
<polygon fill="#191970" stroke="#191970" points="626.1405,-608.9755 633.6494,-601.5011 623.1183,-602.6614 626.1405,-608.9755"/>
</g>
<!-- Node37 -->
<g id="node38" class="node">
<title>Node37</title>
<polygon fill="none" stroke="#bfbfbf" points="453,-526.5 453,-545.5 500,-545.5 500,-526.5 453,-526.5"/>
<text text-anchor="middle" x="476.5" y="-533.5" font-family="FreeSans.ttf" font-size="10.00" fill="#000000">vector</text>
</g>
<!-- Node0&#45;&gt;Node37 -->
<g id="edge85" class="edge">
<title>Node0&#45;&gt;Node37</title>
<path fill="none" stroke="#191970" d="M534.8481,-638.0953C532.3248,-624.7216 526.6947,-600.442 516.5,-582 510.6023,-571.3311 501.9137,-560.9502 494.1398,-552.7581"/>
<polygon fill="#191970" stroke="#191970" points="496.611,-550.2795 487.0876,-545.6366 491.637,-555.2049 496.611,-550.2795"/>
</g>
<!-- Node38 -->
<g id="node39" class="node">
<title>Node38</title>
<g id="a_node39"><a xlink:href="JointState_8h.html" target="_top" xlink:title="iDynTree/Model/JointState.h">
<polygon fill="none" stroke="#000000" points="357,-582.5 357,-601.5 508,-601.5 508,-582.5 357,-582.5"/>
<text text-anchor="middle" x="432.5" y="-589.5" font-family="FreeSans.ttf" font-size="10.00" fill="#000000">iDynTree/Model/JointState.h</text>
</a>
</g>
</g>
<!-- Node0&#45;&gt;Node38 -->
<g id="edge80" class="edge">
<title>Node0&#45;&gt;Node38</title>
<path fill="none" stroke="#191970" d="M518.3846,-638.2455C502.055,-629.4527 477.829,-616.4079 459.2661,-606.4125"/>
<polygon fill="#191970" stroke="#191970" points="460.8719,-603.3021 450.4078,-601.6427 457.5532,-609.4654 460.8719,-603.3021"/>
</g>
<!-- Node2 -->
<g id="node3" class="node">
<title>Node2</title>
<g id="a_node3"><a xlink:href="Position_8h.html" target="_top" xlink:title="iDynTree/Core/Position.h">
<polygon fill="none" stroke="#000000" points="498.5,-347.5 498.5,-366.5 634.5,-366.5 634.5,-347.5 498.5,-347.5"/>
<text text-anchor="middle" x="566.5" y="-354.5" font-family="FreeSans.ttf" font-size="10.00" fill="#000000">iDynTree/Core/Position.h</text>
</a>
</g>
</g>
<!-- Node1&#45;&gt;Node2 -->
<g id="edge2" class="edge">
<title>Node1&#45;&gt;Node2</title>
<path fill="none" stroke="#191970" d="M566.5,-403.2455C566.5,-395.9382 566.5,-385.6944 566.5,-376.7046"/>
<polygon fill="#191970" stroke="#191970" points="570.0001,-376.6426 566.5,-366.6427 563.0001,-376.6427 570.0001,-376.6426"/>
</g>
<!-- Node17 -->
<g id="node18" class="node">
<title>Node17</title>
<polygon fill="none" stroke="#bfbfbf" points="330.5,-112.5 330.5,-131.5 374.5,-131.5 374.5,-112.5 330.5,-112.5"/>
<text text-anchor="middle" x="352.5" y="-119.5" font-family="FreeSans.ttf" font-size="10.00" fill="#000000">string</text>
</g>
<!-- Node1&#45;&gt;Node17 -->
<g id="edge46" class="edge">
<title>Node1&#45;&gt;Node17</title>
<path fill="none" stroke="#191970" d="M518.9873,-403.4907C413.3449,-381.2828 164.4981,-322.7234 116.5,-255 61.0472,-176.7583 243.6618,-138.7777 320.2746,-126.5606"/>
<polygon fill="#191970" stroke="#191970" points="320.9966,-129.9907 330.3457,-125.0062 319.9288,-123.0726 320.9966,-129.9907"/>
</g>
<!-- Node20 -->
<g id="node21" class="node">
<title>Node20</title>
<g id="a_node21"><a xlink:href="Rotation_8h.html" target="_top" xlink:title="iDynTree/Core/Rotation.h">
<polygon fill="none" stroke="#000000" points="594,-291.5 594,-310.5 731,-310.5 731,-291.5 594,-291.5"/>
<text text-anchor="middle" x="662.5" y="-298.5" font-family="FreeSans.ttf" font-size="10.00" fill="#000000">iDynTree/Core/Rotation.h</text>
</a>
</g>
</g>
<!-- Node1&#45;&gt;Node20 -->
<g id="edge44" class="edge">
<title>Node1&#45;&gt;Node20</title>
<path fill="none" stroke="#191970" d="M592.5078,-403.3781C609.3457,-395.8873 630.4826,-383.9016 643.5,-367 653.8337,-353.5828 658.5494,-334.7379 660.7001,-320.6179"/>
<polygon fill="#191970" stroke="#191970" points="664.1975,-320.851 661.9333,-310.501 657.2489,-320.004 664.1975,-320.851"/>
</g>
<!-- Node23 -->
<g id="node24" class="node">
<title>Node23</title>
<g id="a_node24"><a xlink:href="MatrixFixSize_8h.html" target="_top" xlink:title="iDynTree/Core/MatrixFixSize.h">
<polygon fill="none" stroke="#000000" points="594,-168.5 594,-187.5 755,-187.5 755,-168.5 594,-168.5"/>
<text text-anchor="middle" x="674.5" y="-175.5" font-family="FreeSans.ttf" font-size="10.00" fill="#000000">iDynTree/Core/MatrixFixSize.h</text>
</a>
</g>
</g>
<!-- Node1&#45;&gt;Node23 -->
<g id="edge45" class="edge">
<title>Node1&#45;&gt;Node23</title>
<path fill="none" stroke="#191970" d="M604.6211,-403.4613C646.906,-390.5419 712.6967,-362.8874 739.5,-311 757.2472,-276.6439 758.3928,-258.2806 740.5,-224 733.3755,-210.3502 720.1477,-199.926 707.3944,-192.4806"/>
<polygon fill="#191970" stroke="#191970" points="708.7508,-189.2362 698.2859,-187.5822 705.4353,-195.4012 708.7508,-189.2362"/>
</g>
<!-- Node3 -->
<g id="node4" class="node">
<title>Node3</title>
<g id="a_node4"><a xlink:href="PositionRaw_8h.html" target="_top" xlink:title="iDynTree/Core/PositionRaw.h">
<polygon fill="none" stroke="#000000" points="575.5,-230 575.5,-249 731.5,-249 731.5,-230 575.5,-230"/>
<text text-anchor="middle" x="653.5" y="-237" font-family="FreeSans.ttf" font-size="10.00" fill="#000000">iDynTree/Core/PositionRaw.h</text>
</a>
</g>
</g>
<!-- Node2&#45;&gt;Node3 -->
<g id="edge3" class="edge">
<title>Node2&#45;&gt;Node3</title>
<path fill="none" stroke="#191970" d="M567.1803,-347.2187C568.5456,-333.5558 572.5991,-308.4728 584.5,-291 594.8541,-275.7982 611.1956,-263.3121 625.3767,-254.4431"/>
<polygon fill="#191970" stroke="#191970" points="627.4877,-257.2602 634.2991,-249.145 623.9137,-251.2413 627.4877,-257.2602"/>
</g>
<!-- Node2&#45;&gt;Node17 -->
<g id="edge43" class="edge">
<title>Node2&#45;&gt;Node17</title>
<path fill="none" stroke="#191970" d="M537.1865,-347.3941C495.4666,-332.6331 418.1901,-301.1542 365.5,-255 338.3294,-231.1998 330.2029,-222.4984 319.5,-188 314.1441,-170.7365 324.7162,-152.4541 335.2858,-139.5199"/>
<polygon fill="#191970" stroke="#191970" points="338.06,-141.6663 342.0638,-131.8571 332.8168,-137.0285 338.06,-141.6663"/>
</g>
<!-- Node2&#45;&gt;Node20 -->
<g id="edge24" class="edge">
<title>Node2&#45;&gt;Node20</title>
<path fill="none" stroke="#191970" d="M583.2219,-347.2455C598.0889,-338.5731 620.0466,-325.7645 637.0858,-315.825"/>
<polygon fill="#191970" stroke="#191970" points="639.0955,-318.7047 645.9697,-310.6427 635.5683,-312.6582 639.0955,-318.7047"/>
</g>
<!-- Node4 -->
<g id="node5" class="node">
<title>Node4</title>
<g id="a_node5"><a xlink:href="VectorFixSize_8h.html" target="_top" xlink:title="iDynTree/Core/VectorFixSize.h">
<polygon fill="none" stroke="#000000" points="774,-168.5 774,-187.5 935,-187.5 935,-168.5 774,-168.5"/>
<text text-anchor="middle" x="854.5" y="-175.5" font-family="FreeSans.ttf" font-size="10.00" fill="#000000">iDynTree/Core/VectorFixSize.h</text>
</a>
</g>
</g>
<!-- Node3&#45;&gt;Node4 -->
<g id="edge4" class="edge">
<title>Node3&#45;&gt;Node4</title>
<path fill="none" stroke="#191970" d="M684.9063,-229.8906C719.5698,-219.2846 775.4881,-202.1753 813.5625,-190.5257"/>
<polygon fill="#191970" stroke="#191970" points="814.7759,-193.8146 823.3143,-187.5419 812.7278,-187.1209 814.7759,-193.8146"/>
</g>
<!-- Node3&#45;&gt;Node17 -->
<g id="edge23" class="edge">
<title>Node3&#45;&gt;Node17</title>
<path fill="none" stroke="#191970" d="M629.1229,-229.984C574.8993,-208.817 444.3441,-157.8528 384.0262,-134.3068"/>
<polygon fill="#191970" stroke="#191970" points="385.219,-131.0152 374.6309,-130.6391 382.6735,-137.536 385.219,-131.0152"/>
</g>
<!-- Node5 -->
<g id="node6" class="node">
<title>Node5</title>
<g id="a_node6"><a xlink:href="Utils_8h.html" target="_top" xlink:title="iDynTree/Core/Utils.h">
<polygon fill="none" stroke="#000000" points="911,-56.5 911,-75.5 1030,-75.5 1030,-56.5 911,-56.5"/>
<text text-anchor="middle" x="970.5" y="-63.5" font-family="FreeSans.ttf" font-size="10.00" fill="#000000">iDynTree/Core/Utils.h</text>
</a>
</g>
</g>
<!-- Node4&#45;&gt;Node5 -->
<g id="edge5" class="edge">
<title>Node4&#45;&gt;Node5</title>
<path fill="none" stroke="#191970" d="M891.8954,-168.4732C912.1841,-161.5026 936.1764,-150.0407 951.5,-132 962.4636,-119.0924 967.1102,-100.1916 969.0746,-85.9209"/>
<polygon fill="#191970" stroke="#191970" points="972.5872,-85.9811 970.1443,-75.6717 965.6251,-85.2543 972.5872,-85.9811"/>
</g>
<!-- Node6 -->
<g id="node7" class="node">
<title>Node6</title>
<polygon fill="none" stroke="#bfbfbf" points="1043,-.5 1043,-19.5 1096,-19.5 1096,-.5 1043,-.5"/>
<text text-anchor="middle" x="1069.5" y="-7.5" font-family="FreeSans.ttf" font-size="10.00" fill="#000000">cstddef</text>
</g>
<!-- Node4&#45;&gt;Node6 -->
<g id="edge21" class="edge">
<title>Node4&#45;&gt;Node6</title>
<path fill="none" stroke="#191970" d="M935.1183,-170.3159C986.6488,-163.5885 1046.8328,-151.7219 1063.5,-132 1087.6937,-103.3721 1081.3395,-56.1187 1075.0867,-29.6058"/>
<polygon fill="#191970" stroke="#191970" points="1078.398,-28.4308 1072.5025,-19.6277 1071.6215,-30.1858 1078.398,-28.4308"/>
</g>
<!-- Node8 -->
<g id="node9" class="node">
<title>Node8</title>
<g id="a_node9"><a xlink:href="Span_8h.html" target="_top" xlink:title="iDynTree/Core/Span.h">
<polygon fill="none" stroke="#000000" points="485,-56.5 485,-75.5 606,-75.5 606,-56.5 485,-56.5"/>
<text text-anchor="middle" x="545.5" y="-63.5" font-family="FreeSans.ttf" font-size="10.00" fill="#000000">iDynTree/Core/Span.h</text>
</a>
</g>
</g>
<!-- Node4&#45;&gt;Node8 -->
<g id="edge8" class="edge">
<title>Node4&#45;&gt;Node8</title>
<path fill="none" stroke="#191970" d="M848.9611,-168.0729C840.1381,-153.2669 821.4196,-125.6794 797.5,-112 767.2219,-94.6842 679.4385,-81.3181 615.9875,-73.5625"/>
<polygon fill="#191970" stroke="#191970" points="616.3714,-70.0836 606.0254,-72.3662 615.5368,-77.0336 616.3714,-70.0836"/>
</g>
<!-- Node9 -->
<g id="node10" class="node">
<title>Node9</title>
<polygon fill="none" stroke="#bfbfbf" points="764.5,-.5 764.5,-19.5 816.5,-19.5 816.5,-.5 764.5,-.5"/>
<text text-anchor="middle" x="790.5" y="-7.5" font-family="FreeSans.ttf" font-size="10.00" fill="#000000">cassert</text>
</g>
<!-- Node4&#45;&gt;Node9 -->
<g id="edge20" class="edge">
<title>Node4&#45;&gt;Node9</title>
<path fill="none" stroke="#191970" d="M850.8757,-168.4862C840.6712,-141.6994 811.5501,-65.2565 797.8253,-29.2289"/>
<polygon fill="#191970" stroke="#191970" points="801.0747,-27.9268 794.244,-19.8279 794.5333,-30.4188 801.0747,-27.9268"/>
</g>
<!-- Node4&#45;&gt;Node17 -->
<g id="edge18" class="edge">
<title>Node4&#45;&gt;Node17</title>
<path fill="none" stroke="#191970" d="M773.845,-169.0026C661.3452,-156.4529 462.401,-134.2599 384.7847,-125.6015"/>
<polygon fill="#191970" stroke="#191970" points="384.9859,-122.1023 374.6595,-124.472 384.2098,-129.0591 384.9859,-122.1023"/>
</g>
<!-- Node18 -->
<g id="node19" class="node">
<title>Node18</title>
<polygon fill="none" stroke="#bfbfbf" points="998.5,-112.5 998.5,-131.5 1054.5,-131.5 1054.5,-112.5 998.5,-112.5"/>
<text text-anchor="middle" x="1026.5" y="-119.5" font-family="FreeSans.ttf" font-size="10.00" fill="#000000">sstream</text>
</g>
<!-- Node4&#45;&gt;Node18 -->
<g id="edge19" class="edge">
<title>Node4&#45;&gt;Node18</title>
<path fill="none" stroke="#191970" d="M884.0679,-168.3733C913.0155,-158.9484 957.2358,-144.5511 988.7184,-134.301"/>
<polygon fill="#191970" stroke="#191970" points="990.0318,-137.5543 998.4569,-131.1303 987.8646,-130.8982 990.0318,-137.5543"/>
</g>
<!-- Node19 -->
<g id="node20" class="node">
<title>Node19</title>
<polygon fill="none" stroke="#bfbfbf" points="738.5,-112.5 738.5,-131.5 788.5,-131.5 788.5,-112.5 738.5,-112.5"/>
<text text-anchor="middle" x="763.5" y="-119.5" font-family="FreeSans.ttf" font-size="10.00" fill="#000000">cstring</text>
</g>
<!-- Node4&#45;&gt;Node19 -->
<g id="edge22" class="edge">
<title>Node4&#45;&gt;Node19</title>
<path fill="none" stroke="#191970" d="M838.649,-168.2455C824.6868,-159.6534 804.1272,-147.0014 788.0404,-137.1018"/>
<polygon fill="#191970" stroke="#191970" points="789.5203,-133.9029 779.1693,-131.6427 785.8516,-139.8645 789.5203,-133.9029"/>
</g>
<!-- Node5&#45;&gt;Node6 -->
<g id="edge6" class="edge">
<title>Node5&#45;&gt;Node6</title>
<path fill="none" stroke="#191970" d="M987.7445,-56.2455C1003.0761,-47.5731 1025.7199,-34.7645 1043.2916,-24.825"/>
<polygon fill="#191970" stroke="#191970" points="1045.4724,-27.6126 1052.4531,-19.6427 1042.0259,-21.5198 1045.4724,-27.6126"/>
</g>
<!-- Node7 -->
<g id="node8" class="node">
<title>Node7</title>
<polygon fill="none" stroke="#bfbfbf" points="930.5,-.5 930.5,-19.5 1010.5,-19.5 1010.5,-.5 930.5,-.5"/>
<text text-anchor="middle" x="970.5" y="-7.5" font-family="FreeSans.ttf" font-size="10.00" fill="#000000">CoreExport.h</text>
</g>
<!-- Node5&#45;&gt;Node7 -->
<g id="edge7" class="edge">
<title>Node5&#45;&gt;Node7</title>
<path fill="none" stroke="#191970" d="M970.5,-56.2455C970.5,-48.9382 970.5,-38.6944 970.5,-29.7046"/>
<polygon fill="#191970" stroke="#191970" points="974.0001,-29.6426 970.5,-19.6427 967.0001,-29.6427 974.0001,-29.6426"/>
</g>
<!-- Node8&#45;&gt;Node6 -->
<g id="edge12" class="edge">
<title>Node8&#45;&gt;Node6</title>
<path fill="none" stroke="#191970" d="M606.3456,-62.0633C696.7833,-55.7674 871.8767,-41.8688 1019.5,-20 1023.7854,-19.3652 1028.2595,-18.6076 1032.6937,-17.7975"/>
<polygon fill="#191970" stroke="#191970" points="1033.6995,-21.1683 1042.8597,-15.8446 1032.3789,-14.294 1033.6995,-21.1683"/>
</g>
<!-- Node8&#45;&gt;Node9 -->
<g id="edge9" class="edge">
<title>Node8&#45;&gt;Node9</title>
<path fill="none" stroke="#191970" d="M592.1544,-56.4891C634.6219,-47.6521 698.976,-33.8111 754.5,-20 754.5984,-19.9755 754.6969,-19.951 754.7955,-19.9264"/>
<polygon fill="#191970" stroke="#191970" points="755.3989,-23.3859 764.1975,-17.4838 753.6387,-16.6108 755.3989,-23.3859"/>
</g>
<!-- Node10 -->
<g id="node11" class="node">
<title>Node10</title>
<polygon fill="none" stroke="#bfbfbf" points="550.5,-.5 550.5,-19.5 614.5,-19.5 614.5,-.5 550.5,-.5"/>
<text text-anchor="middle" x="582.5" y="-7.5" font-family="FreeSans.ttf" font-size="10.00" fill="#000000">algorithm</text>
</g>
<!-- Node8&#45;&gt;Node10 -->
<g id="edge10" class="edge">
<title>Node8&#45;&gt;Node10</title>
<path fill="none" stroke="#191970" d="M551.9449,-56.2455C557.0382,-48.5367 564.2908,-37.5598 570.452,-28.2348"/>
<polygon fill="#191970" stroke="#191970" points="573.5365,-29.9155 576.1289,-19.6427 567.6962,-26.0566 573.5365,-29.9155"/>
</g>
<!-- Node11 -->
<g id="node12" class="node">
<title>Node11</title>
<polygon fill="none" stroke="#bfbfbf" points="632.5,-.5 632.5,-19.5 674.5,-19.5 674.5,-.5 632.5,-.5"/>
<text text-anchor="middle" x="653.5" y="-7.5" font-family="FreeSans.ttf" font-size="10.00" fill="#000000">array</text>
</g>
<!-- Node8&#45;&gt;Node11 -->
<g id="edge11" class="edge">
<title>Node8&#45;&gt;Node11</title>
<path fill="none" stroke="#191970" d="M564.3122,-56.2455C581.3473,-47.4125 606.6575,-34.2887 625.9681,-24.2758"/>
<polygon fill="#191970" stroke="#191970" points="627.637,-27.353 634.9034,-19.6427 624.4147,-21.1388 627.637,-27.353"/>
</g>
<!-- Node12 -->
<g id="node13" class="node">
<title>Node12</title>
<polygon fill="none" stroke="#bfbfbf" points="693,-.5 693,-19.5 746,-19.5 746,-.5 693,-.5"/>
<text text-anchor="middle" x="719.5" y="-7.5" font-family="FreeSans.ttf" font-size="10.00" fill="#000000">iterator</text>
</g>
<!-- Node8&#45;&gt;Node12 -->
<g id="edge13" class="edge">
<title>Node8&#45;&gt;Node12</title>
<path fill="none" stroke="#191970" d="M575.4117,-56.3733C605.222,-46.7791 651.0426,-32.0323 682.9828,-21.7527"/>
<polygon fill="#191970" stroke="#191970" points="684.3806,-24.9797 692.8274,-18.5843 682.236,-18.3163 684.3806,-24.9797"/>
</g>
<!-- Node13 -->
<g id="node14" class="node">
<title>Node13</title>
<polygon fill="none" stroke="#bfbfbf" points="341.5,-.5 341.5,-19.5 385.5,-19.5 385.5,-.5 341.5,-.5"/>
<text text-anchor="middle" x="363.5" y="-7.5" font-family="FreeSans.ttf" font-size="10.00" fill="#000000">limits</text>
</g>
<!-- Node8&#45;&gt;Node13 -->
<g id="edge14" class="edge">
<title>Node8&#45;&gt;Node13</title>
<path fill="none" stroke="#191970" d="M513.6383,-56.4586C485.0178,-47.8514 441.606,-34.7067 395.1438,-20.1695"/>
<polygon fill="#191970" stroke="#191970" points="396.0904,-16.7984 385.5013,-17.1462 393.9961,-23.4778 396.0904,-16.7984"/>
</g>
<!-- Node14 -->
<g id="node15" class="node">
<title>Node14</title>
<polygon fill="none" stroke="#bfbfbf" points="404,-.5 404,-19.5 469,-19.5 469,-.5 404,-.5"/>
<text text-anchor="middle" x="436.5" y="-7.5" font-family="FreeSans.ttf" font-size="10.00" fill="#000000">stdexcept</text>
</g>
<!-- Node8&#45;&gt;Node14 -->
<g id="edge15" class="edge">
<title>Node8&#45;&gt;Node14</title>
<path fill="none" stroke="#191970" d="M526.5136,-56.2455C509.3208,-47.4125 483.7762,-34.2887 464.2868,-24.2758"/>
<polygon fill="#191970" stroke="#191970" points="465.763,-21.0993 455.2688,-19.6427 462.5641,-27.3257 465.763,-21.0993"/>
</g>
<!-- Node15 -->
<g id="node16" class="node">
<title>Node15</title>
<polygon fill="none" stroke="#bfbfbf" points="254,-.5 254,-19.5 323,-19.5 323,-.5 254,-.5"/>
<text text-anchor="middle" x="288.5" y="-7.5" font-family="FreeSans.ttf" font-size="10.00" fill="#000000">type_traits</text>
</g>
<!-- Node8&#45;&gt;Node15 -->
<g id="edge16" class="edge">
<title>Node8&#45;&gt;Node15</title>
<path fill="none" stroke="#191970" d="M500.591,-56.4483C459.5689,-47.6902 396.9725,-34.2438 332.9479,-20.082"/>
<polygon fill="#191970" stroke="#191970" points="333.5996,-16.6416 323.0793,-17.8959 332.0856,-23.4759 333.5996,-16.6416"/>
</g>
<!-- Node16 -->
<g id="node17" class="node">
<title>Node16</title>
<polygon fill="none" stroke="#bfbfbf" points="487,-.5 487,-19.5 532,-19.5 532,-.5 487,-.5"/>
<text text-anchor="middle" x="509.5" y="-7.5" font-family="FreeSans.ttf" font-size="10.00" fill="#000000">utility</text>
</g>
<!-- Node8&#45;&gt;Node16 -->
<g id="edge17" class="edge">
<title>Node8&#45;&gt;Node16</title>
<path fill="none" stroke="#191970" d="M539.2293,-56.2455C534.2736,-48.5367 527.217,-37.5598 521.2224,-28.2348"/>
<polygon fill="#191970" stroke="#191970" points="524.0506,-26.1618 515.6989,-19.6427 518.1624,-29.9471 524.0506,-26.1618"/>
</g>
<!-- Node20&#45;&gt;Node4 -->
<g id="edge42" class="edge">
<title>Node20&#45;&gt;Node4</title>
<path fill="none" stroke="#191970" d="M679.416,-291.4227C695.3373,-282.3151 719.7661,-268.0989 740.5,-255 773.1202,-234.3918 809.9698,-209.1286 832.7196,-193.2931"/>
<polygon fill="#191970" stroke="#191970" points="834.7953,-196.1126 840.991,-187.5182 830.788,-190.373 834.7953,-196.1126"/>
</g>
<!-- Node20&#45;&gt;Node17 -->
<g id="edge25" class="edge">
<title>Node20&#45;&gt;Node17</title>
<path fill="none" stroke="#191970" d="M593.7006,-297.5945C523.1625,-292.7023 419.7642,-281.1898 390.5,-255 358.115,-226.0173 352.5275,-171.544 352.0339,-142.1053"/>
<polygon fill="#191970" stroke="#191970" points="355.5344,-141.831 352.0558,-131.8235 348.5344,-141.816 355.5344,-141.831"/>
</g>
<!-- Node21 -->
<g id="node22" class="node">
<title>Node21</title>
<g id="a_node22"><a xlink:href="GeomVector3_8h.html" target="_top" xlink:title="iDynTree/Core/GeomVector3.h">
<polygon fill="none" stroke="#000000" points="902,-230 902,-249 1065,-249 1065,-230 902,-230"/>
<text text-anchor="middle" x="983.5" y="-237" font-family="FreeSans.ttf" font-size="10.00" fill="#000000">iDynTree/Core/GeomVector3.h</text>
</a>
</g>
</g>
<!-- Node20&#45;&gt;Node21 -->
<g id="edge26" class="edge">
<title>Node20&#45;&gt;Node21</title>
<path fill="none" stroke="#191970" d="M712.304,-291.4581C769.4375,-280.512 863.0586,-262.5752 923.984,-250.9026"/>
<polygon fill="#191970" stroke="#191970" points="924.6805,-254.3329 933.8432,-249.0137 923.3632,-247.4579 924.6805,-254.3329"/>
</g>
<!-- Node22 -->
<g id="node23" class="node">
<title>Node22</title>
<g id="a_node23"><a xlink:href="RotationRaw_8h.html" target="_top" xlink:title="iDynTree/Core/RotationRaw.h">
<polygon fill="none" stroke="#000000" points="399.5,-230 399.5,-249 557.5,-249 557.5,-230 399.5,-230"/>
<text text-anchor="middle" x="478.5" y="-237" font-family="FreeSans.ttf" font-size="10.00" fill="#000000">iDynTree/Core/RotationRaw.h</text>
</a>
</g>
</g>
<!-- Node20&#45;&gt;Node22 -->
<g id="edge28" class="edge">
<title>Node20&#45;&gt;Node22</title>
<path fill="none" stroke="#191970" d="M633.75,-291.3906C602.2883,-280.8749 551.6992,-263.966 516.8686,-252.3243"/>
<polygon fill="#191970" stroke="#191970" points="517.6419,-248.8925 507.0481,-249.0419 515.4228,-255.5315 517.6419,-248.8925"/>
</g>
<!-- Node21&#45;&gt;Node4 -->
<g id="edge27" class="edge">
<title>Node21&#45;&gt;Node4</title>
<path fill="none" stroke="#191970" d="M963.3438,-229.8906C941.949,-219.6908 907.938,-203.4763 883.6298,-191.8875"/>
<polygon fill="#191970" stroke="#191970" points="885.0476,-188.686 874.5147,-187.5419 882.0352,-195.0047 885.0476,-188.686"/>
</g>
<!-- Node22&#45;&gt;Node17 -->
<g id="edge41" class="edge">
<title>Node22&#45;&gt;Node17</title>
<path fill="none" stroke="#191970" d="M468.1889,-229.8845C446.7766,-209.9167 397.2628,-163.743 370.4796,-138.7667"/>
<polygon fill="#191970" stroke="#191970" points="372.6541,-136.0088 362.9536,-131.7484 367.88,-141.1282 372.6541,-136.0088"/>
</g>
<!-- Node22&#45;&gt;Node23 -->
<g id="edge29" class="edge">
<title>Node22&#45;&gt;Node23</title>
<path fill="none" stroke="#191970" d="M509.125,-229.8906C542.7824,-219.3298 596.9899,-202.3208 634.1059,-190.6747"/>
<polygon fill="#191970" stroke="#191970" points="635.5966,-193.8753 644.0901,-187.5419 633.5009,-187.1963 635.5966,-193.8753"/>
</g>
<!-- Node23&#45;&gt;Node5 -->
<g id="edge30" class="edge">
<title>Node23&#45;&gt;Node5</title>
<path fill="none" stroke="#191970" d="M679.7669,-168.0976C688.179,-153.3238 706.1102,-125.7778 729.5,-112 757.906,-95.2674 840.0748,-81.9514 900.6032,-74.0381"/>
<polygon fill="#191970" stroke="#191970" points="901.4033,-77.4642 910.8763,-72.7194 900.512,-70.5212 901.4033,-77.4642"/>
</g>
<!-- Node23&#45;&gt;Node9 -->
<g id="edge36" class="edge">
<title>Node23&#45;&gt;Node9</title>
<path fill="none" stroke="#191970" d="M677.6039,-168.1418C682.0331,-154.8206 690.9279,-130.6005 702.5,-112 723.0227,-79.0125 753.9639,-45.8882 773.1618,-26.6939"/>
<polygon fill="#191970" stroke="#191970" points="775.7042,-29.1024 780.3703,-19.5904 770.7909,-24.1165 775.7042,-29.1024"/>
</g>
<!-- Node23&#45;&gt;Node17 -->
<g id="edge38" class="edge">
<title>Node23&#45;&gt;Node17</title>
<path fill="none" stroke="#191970" d="M619.5121,-168.4369C551.985,-156.693 439.6683,-137.1597 384.7415,-127.6072"/>
<polygon fill="#191970" stroke="#191970" points="385.0035,-124.1003 374.5516,-125.8351 383.804,-130.9968 385.0035,-124.1003"/>
</g>
<!-- Node23&#45;&gt;Node18 -->
<g id="edge40" class="edge">
<title>Node23&#45;&gt;Node18</title>
<path fill="none" stroke="#191970" d="M734.611,-168.4369C807.1884,-156.8905 927.0958,-137.8143 988.1735,-128.0974"/>
<polygon fill="#191970" stroke="#191970" points="988.8367,-131.536 998.1626,-126.5082 987.7368,-124.6229 988.8367,-131.536"/>
</g>
<!-- Node23&#45;&gt;Node19 -->
<g id="edge37" class="edge">
<title>Node23&#45;&gt;Node19</title>
<path fill="none" stroke="#191970" d="M690.0026,-168.2455C703.658,-159.6534 723.7657,-147.0014 739.4989,-137.1018"/>
<polygon fill="#191970" stroke="#191970" points="741.5751,-139.9307 748.175,-131.6427 737.8471,-134.006 741.5751,-139.9307"/>
</g>
<!-- Node24 -->
<g id="node25" class="node">
<title>Node24</title>
<g id="a_node25"><a xlink:href="MatrixView_8h.html" target="_top" xlink:title="iDynTree/Core/MatrixView.h">
<polygon fill="none" stroke="#000000" points="493,-112.5 493,-131.5 644,-131.5 644,-112.5 493,-112.5"/>
<text text-anchor="middle" x="568.5" y="-119.5" font-family="FreeSans.ttf" font-size="10.00" fill="#000000">iDynTree/Core/MatrixView.h</text>
</a>
</g>
</g>
<!-- Node23&#45;&gt;Node24 -->
<g id="edge31" class="edge">
<title>Node23&#45;&gt;Node24</title>
<path fill="none" stroke="#191970" d="M656.0362,-168.2455C639.3926,-159.4527 614.7007,-146.4079 595.7808,-136.4125"/>
<polygon fill="#191970" stroke="#191970" points="597.2291,-133.2193 586.7522,-131.6427 593.9592,-139.4086 597.2291,-133.2193"/>
</g>
<!-- Node25 -->
<g id="node26" class="node">
<title>Node25</title>
<polygon fill="none" stroke="#bfbfbf" points="882.5,-112.5 882.5,-131.5 942.5,-131.5 942.5,-112.5 882.5,-112.5"/>
<text text-anchor="middle" x="912.5" y="-119.5" font-family="FreeSans.ttf" font-size="10.00" fill="#000000">iostream</text>
</g>
<!-- Node23&#45;&gt;Node25 -->
<g id="edge39" class="edge">
<title>Node23&#45;&gt;Node25</title>
<path fill="none" stroke="#191970" d="M715.1432,-168.4369C759.0226,-158.1123 828.4889,-141.7673 872.2246,-131.4766"/>
<polygon fill="#191970" stroke="#191970" points="873.2883,-134.822 882.2208,-129.1245 871.6849,-128.008 873.2883,-134.822"/>
</g>
<!-- Node24&#45;&gt;Node5 -->
<g id="edge35" class="edge">
<title>Node24&#45;&gt;Node5</title>
<path fill="none" stroke="#191970" d="M637.1495,-112.4369C710.719,-102.1884 826.8727,-86.0078 900.8323,-75.705"/>
<polygon fill="#191970" stroke="#191970" points="901.558,-79.1377 910.9795,-74.2914 900.5922,-72.2047 901.558,-79.1377"/>
</g>
<!-- Node24&#45;&gt;Node8 -->
<g id="edge34" class="edge">
<title>Node24&#45;&gt;Node8</title>
<path fill="none" stroke="#191970" d="M564.4937,-112.2455C561.4265,-104.7776 557.0997,-94.2427 553.3503,-85.1137"/>
<polygon fill="#191970" stroke="#191970" points="556.4972,-83.5631 549.4604,-75.6427 550.0221,-86.2226 556.4972,-83.5631"/>
</g>
<!-- Node24&#45;&gt;Node9 -->
<g id="edge32" class="edge">
<title>Node24&#45;&gt;Node9</title>
<path fill="none" stroke="#191970" d="M579.4244,-112.2944C595.676,-98.2661 627.6295,-72.2302 658.5,-56 675.436,-47.0959 721.5908,-31.7079 754.5429,-21.2022"/>
<polygon fill="#191970" stroke="#191970" points="755.8229,-24.4682 764.2987,-18.1111 753.7085,-17.7951 755.8229,-24.4682"/>
</g>
<!-- Node24&#45;&gt;Node15 -->
<g id="edge33" class="edge">
<title>Node24&#45;&gt;Node15</title>
<path fill="none" stroke="#191970" d="M544.6274,-112.4509C494.6205,-92.4482 378.7794,-46.1117 321.6193,-23.2477"/>
<polygon fill="#191970" stroke="#191970" points="322.8969,-19.9892 312.3122,-19.5249 320.2971,-26.4885 322.8969,-19.9892"/>
</g>
<!-- Node27 -->
<g id="node28" class="node">
<title>Node27</title>
<g id="a_node28"><a xlink:href="SpatialMotionVector_8h.html" target="_top" xlink:title="iDynTree/Core/SpatialMotion\lVector.h">
<polygon fill="none" stroke="#000000" points="901,-459.5 901,-489.5 1056,-489.5 1056,-459.5 901,-459.5"/>
<text text-anchor="start" x="909" y="-477.5" font-family="FreeSans.ttf" font-size="10.00" fill="#000000">iDynTree/Core/SpatialMotion</text>
<text text-anchor="middle" x="978.5" y="-466.5" font-family="FreeSans.ttf" font-size="10.00" fill="#000000">Vector.h</text>
</a>
</g>
</g>
<!-- Node26&#45;&gt;Node27 -->
<g id="edge48" class="edge">
<title>Node26&#45;&gt;Node27</title>
<path fill="none" stroke="#191970" d="M974.2813,-526.3906C974.864,-519.2234 975.6881,-509.0862 976.4536,-499.671"/>
<polygon fill="#191970" stroke="#191970" points="979.9549,-499.7954 977.2769,-489.5446 972.9779,-499.2281 979.9549,-499.7954"/>
</g>
<!-- Node27&#45;&gt;Node4 -->
<g id="edge49" class="edge">
<title>Node27&#45;&gt;Node4</title>
<path fill="none" stroke="#191970" d="M1035.8046,-459.4995C1067.8505,-449.8266 1103.1859,-436.558 1112.5,-423 1147.8429,-371.5535 1345.3556,-494.0271 1074.5,-224 1056.1004,-205.6566 997.3127,-193.9499 945.1344,-186.9388"/>
<polygon fill="#191970" stroke="#191970" points="945.5083,-183.4581 935.1408,-185.6412 944.6069,-190.3998 945.5083,-183.4581"/>
</g>
<!-- Node27&#45;&gt;Node21 -->
<g id="edge50" class="edge">
<title>Node27&#45;&gt;Node21</title>
<path fill="none" stroke="#191970" d="M960.0055,-459.4215C950.0906,-450.1036 938.8406,-437.2286 933.5,-423 911.4283,-364.196 949.7644,-291.4649 970.9219,-257.9716"/>
<polygon fill="#191970" stroke="#191970" points="974.0783,-259.5389 976.6106,-249.2512 968.2155,-255.7143 974.0783,-259.5389"/>
</g>
<!-- Node28 -->
<g id="node29" class="node">
<title>Node28</title>
<g id="a_node29"><a xlink:href="SpatialVector_8h.html" target="_top" xlink:title="iDynTree/Core/SpatialVector.h">
<polygon fill="none" stroke="#000000" points="942,-403.5 942,-422.5 1103,-422.5 1103,-403.5 942,-403.5"/>
<text text-anchor="middle" x="1022.5" y="-410.5" font-family="FreeSans.ttf" font-size="10.00" fill="#000000">iDynTree/Core/SpatialVector.h</text>
</a>
</g>
</g>
<!-- Node27&#45;&gt;Node28 -->
<g id="edge51" class="edge">
<title>Node27&#45;&gt;Node28</title>
<path fill="none" stroke="#191970" d="M989.3764,-459.2977C995.4841,-450.7609 1003.1439,-440.0545 1009.5588,-431.0883"/>
<polygon fill="#191970" stroke="#191970" points="1012.4829,-433.0163 1015.455,-422.8469 1006.7899,-428.9433 1012.4829,-433.0163"/>
</g>
<!-- Node28&#45;&gt;Node2 -->
<g id="edge52" class="edge">
<title>Node28&#45;&gt;Node2</title>
<path fill="none" stroke="#191970" d="M944.8875,-403.4686C861.2129,-393.1928 728.759,-376.9265 644.8132,-366.6174"/>
<polygon fill="#191970" stroke="#191970" points="645.175,-363.1356 634.8229,-365.3905 644.3217,-370.0834 645.175,-363.1356"/>
</g>
<!-- Node28&#45;&gt;Node5 -->
<g id="edge54" class="edge">
<title>Node28&#45;&gt;Node5</title>
<path fill="none" stroke="#191970" d="M1078.7596,-403.4491C1133.1876,-390.6063 1207.5,-361.9174 1207.5,-301 1207.5,-301 1207.5,-301 1207.5,-178 1207.5,-136.522 1087.3369,-97.327 1018.1353,-78.1938"/>
<polygon fill="#191970" stroke="#191970" points="1018.8838,-74.7702 1008.3154,-75.5186 1017.0438,-81.5241 1018.8838,-74.7702"/>
</g>
<!-- Node28&#45;&gt;Node18 -->
<g id="edge57" class="edge">
<title>Node28&#45;&gt;Node18</title>
<path fill="none" stroke="#191970" d="M1056.965,-403.4443C1100.4137,-389.0495 1169.5,-357.3079 1169.5,-301 1169.5,-301 1169.5,-301 1169.5,-239.5 1169.5,-205.9798 1168.6629,-192.2298 1145.5,-168 1124.0835,-145.597 1090.527,-133.9416 1064.4999,-127.9778"/>
<polygon fill="#191970" stroke="#191970" points="1065.0853,-124.5244 1054.5791,-125.8919 1063.645,-131.3746 1065.0853,-124.5244"/>
</g>
<!-- Node28&#45;&gt;Node20 -->
<g id="edge53" class="edge">
<title>Node28&#45;&gt;Node20</title>
<path fill="none" stroke="#191970" d="M991.8066,-403.4509C926.8478,-383.2415 775.4872,-336.1516 702.8286,-313.5467"/>
<polygon fill="#191970" stroke="#191970" points="703.704,-310.1536 693.1157,-310.5249 701.6245,-316.8376 703.704,-310.1536"/>
</g>
<!-- Node28&#45;&gt;Node21 -->
<g id="edge55" class="edge">
<title>Node28&#45;&gt;Node21</title>
<path fill="none" stroke="#191970" d="M1020.3476,-403.4248C1014.1828,-375.999 996.3648,-296.732 987.9724,-259.3964"/>
<polygon fill="#191970" stroke="#191970" points="991.3018,-258.2485 985.6938,-249.2595 984.4722,-259.7837 991.3018,-258.2485"/>
</g>
<!-- Node28&#45;&gt;Node25 -->
<g id="edge56" class="edge">
<title>Node28&#45;&gt;Node25</title>
<path fill="none" stroke="#191970" d="M1029.9725,-403.3606C1051.3756,-374.495 1109.2054,-286.8632 1074.5,-224 1048.6595,-177.1942 991.3256,-148.9359 952.2821,-134.3974"/>
<polygon fill="#191970" stroke="#191970" points="953.3747,-131.071 942.7802,-130.9938 951.0142,-137.661 953.3747,-131.071"/>
</g>
<!-- Node29&#45;&gt;Node8 -->
<g id="edge59" class="edge">
<title>Node29&#45;&gt;Node8</title>
<path fill="none" stroke="#191970" d="M74.0835,-347.2421C56.7392,-328.1939 21.5,-284.0154 21.5,-239.5 21.5,-239.5 21.5,-239.5 21.5,-178 21.5,-132.1792 331.8691,-90.5487 474.8778,-73.7987"/>
<polygon fill="#191970" stroke="#191970" points="475.3498,-77.2675 484.8786,-72.636 474.5413,-70.3143 475.3498,-77.2675"/>
</g>
<!-- Node29&#45;&gt;Node17 -->
<g id="edge60" class="edge">
<title>Node29&#45;&gt;Node17</title>
<path fill="none" stroke="#191970" d="M79.6858,-347.316C68.3616,-316.787 38.437,-221.4231 83.5,-168 98.651,-150.0381 251.866,-132.2903 320.0613,-125.2116"/>
<polygon fill="#191970" stroke="#191970" points="320.6508,-128.6696 330.2421,-124.1687 319.9374,-121.7061 320.6508,-128.6696"/>
</g>
<!-- Node30&#45;&gt;Node6 -->
<g id="edge62" class="edge">
<title>Node30&#45;&gt;Node6</title>
<path fill="none" stroke="#191970" d="M1143.6687,-526.3679C1179.3355,-509.1973 1245.5,-469.7028 1245.5,-413 1245.5,-413 1245.5,-413 1245.5,-122 1245.5,-56.605 1157.9455,-27.7416 1106.3434,-16.4092"/>
<polygon fill="#191970" stroke="#191970" points="1106.7332,-12.9156 1096.2306,-14.3104 1105.3107,-19.7696 1106.7332,-12.9156"/>
</g>
<!-- Node30&#45;&gt;Node17 -->
<g id="edge63" class="edge">
<title>Node30&#45;&gt;Node17</title>
<path fill="none" stroke="#191970" d="M1052.1841,-527.0593C1049.2506,-526.698 1046.3464,-526.3436 1043.5,-526 792.6936,-495.7278 691.1546,-568.3071 484.5,-423 409.6504,-370.3703 402.6659,-338.6124 365.5,-255 349.5625,-219.1454 349.6476,-207.2279 350.5,-168 350.6886,-159.3189 351.0773,-149.7229 351.4622,-141.5513"/>
<polygon fill="#191970" stroke="#191970" points="354.9604,-141.6736 351.9657,-131.5108 347.9692,-141.3229 354.9604,-141.6736"/>
</g>
<!-- Node31 -->
<g id="node32" class="node">
<title>Node31</title>
<polygon fill="none" stroke="#bfbfbf" points="1078.5,-465 1078.5,-484 1164.5,-484 1164.5,-465 1078.5,-465"/>
<text text-anchor="middle" x="1121.5" y="-472" font-family="FreeSans.ttf" font-size="10.00" fill="#000000">ModelExport.h</text>
</g>
<!-- Node30&#45;&gt;Node31 -->
<g id="edge64" class="edge">
<title>Node30&#45;&gt;Node31</title>
<path fill="none" stroke="#191970" d="M1121.5,-526.3906C1121.5,-517.8657 1121.5,-505.1392 1121.5,-494.4235"/>
<polygon fill="#191970" stroke="#191970" points="1125.0001,-494.2448 1121.5,-484.2449 1118.0001,-494.2449 1125.0001,-494.2448"/>
</g>
<!-- Node32&#45;&gt;Node1 -->
<g id="edge66" class="edge">
<title>Node32&#45;&gt;Node1</title>
<path fill="none" stroke="#191970" d="M630.4557,-582.4827C615.1509,-574.9145 596.0064,-562.7964 585.5,-546 563.529,-510.8751 562.9,-460.4634 564.5742,-432.8883"/>
<polygon fill="#191970" stroke="#191970" points="568.0899,-432.8214 565.3772,-422.5797 561.111,-432.2777 568.0899,-432.8214"/>
</g>
<!-- Node32&#45;&gt;Node26 -->
<g id="edge67" class="edge">
<title>Node32&#45;&gt;Node26</title>
<path fill="none" stroke="#191970" d="M708.1464,-582.4369C763.8323,-572.6918 850.1675,-557.5832 909.1316,-547.2645"/>
<polygon fill="#191970" stroke="#191970" points="909.8321,-550.6952 919.079,-545.5237 908.6254,-543.7999 909.8321,-550.6952"/>
</g>
<!-- Node32&#45;&gt;Node30 -->
<g id="edge78" class="edge">
<title>Node32&#45;&gt;Node30</title>
<path fill="none" stroke="#191970" d="M728.2926,-583.4055C804.5972,-574.5856 926.7215,-560.3272 1042.1112,-546.162"/>
<polygon fill="#191970" stroke="#191970" points="1042.6839,-549.618 1052.1821,-544.9238 1041.8297,-542.6704 1042.6839,-549.618"/>
</g>
<!-- Node33 -->
<g id="node34" class="node">
<title>Node33</title>
<g id="a_node34"><a xlink:href="SpatialAcc_8h.html" target="_top" xlink:title="iDynTree/Core/SpatialAcc.h">
<polygon fill="none" stroke="#000000" points="746.5,-526.5 746.5,-545.5 894.5,-545.5 894.5,-526.5 746.5,-526.5"/>
<text text-anchor="middle" x="820.5" y="-533.5" font-family="FreeSans.ttf" font-size="10.00" fill="#000000">iDynTree/Core/SpatialAcc.h</text>
</a>
</g>
</g>
<!-- Node32&#45;&gt;Node33 -->
<g id="edge68" class="edge">
<title>Node32&#45;&gt;Node33</title>
<path fill="none" stroke="#191970" d="M682.2083,-582.3733C709.8577,-573.1016 751.8576,-559.0178 782.3166,-548.804"/>
<polygon fill="#191970" stroke="#191970" points="783.7979,-551.9989 792.1663,-545.5011 781.5724,-545.3621 783.7979,-551.9989"/>
</g>
<!-- Node34 -->
<g id="node35" class="node">
<title>Node34</title>
<g id="a_node35"><a xlink:href="Wrench_8h.html" target="_top" xlink:title="iDynTree/Core/Wrench.h">
<polygon fill="none" stroke="#000000" points="595,-526.5 595,-545.5 728,-545.5 728,-526.5 595,-526.5"/>
<text text-anchor="middle" x="661.5" y="-533.5" font-family="FreeSans.ttf" font-size="10.00" fill="#000000">iDynTree/Core/Wrench.h</text>
</a>
</g>
</g>
<!-- Node32&#45;&gt;Node34 -->
<g id="edge70" class="edge">
<title>Node32&#45;&gt;Node34</title>
<path fill="none" stroke="#191970" d="M654.8935,-582.2455C655.9374,-574.9382 657.4008,-564.6944 658.6851,-555.7046"/>
<polygon fill="#191970" stroke="#191970" points="662.173,-556.0372 660.1225,-545.6427 655.2434,-555.0472 662.173,-556.0372"/>
</g>
<!-- Node36 -->
<g id="node37" class="node">
<title>Node36</title>
<g id="a_node37"><a xlink:href="ArticulatedBodyInertia_8h.html" target="_top" xlink:title="iDynTree/Core/Articulated\lBodyInertia.h">
<polygon fill="none" stroke="#000000" points="126,-224.5 126,-254.5 267,-254.5 267,-224.5 126,-224.5"/>
<text text-anchor="start" x="134" y="-242.5" font-family="FreeSans.ttf" font-size="10.00" fill="#000000">iDynTree/Core/Articulated</text>
<text text-anchor="middle" x="196.5" y="-231.5" font-family="FreeSans.ttf" font-size="10.00" fill="#000000">BodyInertia.h</text>
</a>
</g>
</g>
<!-- Node32&#45;&gt;Node36 -->
<g id="edge75" class="edge">
<title>Node32&#45;&gt;Node36</title>
<path fill="none" stroke="#191970" d="M633.5354,-582.3357C605.7669,-569.0269 553.7873,-544.5942 508.5,-526 465.5758,-508.3761 448.5877,-516.5031 410.5,-490 318.0944,-425.7003 241.2847,-312.2063 210.7085,-263.1657"/>
<polygon fill="#191970" stroke="#191970" points="213.6059,-261.1959 205.381,-254.5175 207.6459,-264.8674 213.6059,-261.1959"/>
</g>
<!-- Node32&#45;&gt;Node37 -->
<g id="edge79" class="edge">
<title>Node32&#45;&gt;Node37</title>
<path fill="none" stroke="#191970" d="M623.0726,-582.3733C591.5889,-572.4123 542.5495,-556.897 509.9835,-546.5937"/>
<polygon fill="#191970" stroke="#191970" points="510.6221,-543.1247 500.0321,-543.4452 508.5105,-549.7987 510.6221,-543.1247"/>
</g>
<!-- Node33&#45;&gt;Node27 -->
<g id="edge69" class="edge">
<title>Node33&#45;&gt;Node27</title>
<path fill="none" stroke="#191970" d="M845.1875,-526.3906C867.8578,-517.5664 902.0937,-504.2404 930.1942,-493.3026"/>
<polygon fill="#191970" stroke="#191970" points="931.7995,-496.4336 939.8489,-489.5446 929.2603,-489.9103 931.7995,-496.4336"/>
</g>
<!-- Node35 -->
<g id="node36" class="node">
<title>Node35</title>
<g id="a_node36"><a xlink:href="SpatialForceVector_8h.html" target="_top" xlink:title="iDynTree/Core/SpatialForce\lVector.h">
<polygon fill="none" stroke="#000000" points="734.5,-459.5 734.5,-489.5 882.5,-489.5 882.5,-459.5 734.5,-459.5"/>
<text text-anchor="start" x="742.5" y="-477.5" font-family="FreeSans.ttf" font-size="10.00" fill="#000000">iDynTree/Core/SpatialForce</text>
<text text-anchor="middle" x="808.5" y="-466.5" font-family="FreeSans.ttf" font-size="10.00" fill="#000000">Vector.h</text>
</a>
</g>
</g>
<!-- Node34&#45;&gt;Node35 -->
<g id="edge71" class="edge">
<title>Node34&#45;&gt;Node35</title>
<path fill="none" stroke="#191970" d="M684.4688,-526.3906C705.4687,-517.6049 737.1352,-504.3567 763.2145,-493.446"/>
<polygon fill="#191970" stroke="#191970" points="764.6654,-496.633 772.5398,-489.5446 761.9637,-490.1754 764.6654,-496.633"/>
</g>
<!-- Node35&#45;&gt;Node4 -->
<g id="edge72" class="edge">
<title>Node35&#45;&gt;Node4</title>
<path fill="none" stroke="#191970" d="M811.9619,-459.4295C819.9603,-423.9907 839.7803,-332.5079 849.5,-255 851.9412,-235.5333 853.2256,-213.1393 853.8779,-197.5383"/>
<polygon fill="#191970" stroke="#191970" points="857.3764,-197.6405 854.2486,-187.518 850.3812,-197.3817 857.3764,-197.6405"/>
</g>
<!-- Node35&#45;&gt;Node21 -->
<g id="edge73" class="edge">
<title>Node35&#45;&gt;Node21</title>
<path fill="none" stroke="#191970" d="M822.1229,-459.0772C830.8124,-449.0262 842.1558,-435.5019 851.5,-423 893.7118,-366.5233 896.9689,-347.2366 939.5,-291 948.4778,-279.1291 959.333,-266.4083 968.0149,-256.5795"/>
<polygon fill="#191970" stroke="#191970" points="970.6569,-258.8755 974.7076,-249.0856 965.436,-254.2127 970.6569,-258.8755"/>
</g>
<!-- Node35&#45;&gt;Node28 -->
<g id="edge74" class="edge">
<title>Node35&#45;&gt;Node28</title>
<path fill="none" stroke="#191970" d="M860.8503,-459.4554C897.3398,-448.9689 945.4201,-435.1515 979.6351,-425.3187"/>
<polygon fill="#191970" stroke="#191970" points="980.6933,-428.6563 989.3376,-422.5303 978.7599,-421.9286 980.6933,-428.6563"/>
</g>
<!-- Node36&#45;&gt;Node17 -->
<g id="edge77" class="edge">
<title>Node36&#45;&gt;Node17</title>
<path fill="none" stroke="#191970" d="M213.2473,-224.3393C230.0339,-209.4038 256.8544,-186.2396 281.5,-168 296.511,-156.8907 314.1255,-145.4693 328.0543,-136.7863"/>
<polygon fill="#191970" stroke="#191970" points="329.9385,-139.7364 336.6109,-131.5066 326.2626,-133.7792 329.9385,-139.7364"/>
</g>
<!-- Node36&#45;&gt;Node23 -->
<g id="edge76" class="edge">
<title>Node36&#45;&gt;Node23</title>
<path fill="none" stroke="#191970" d="M267.0305,-230.4255C353.1376,-219.3468 498.6051,-200.6308 590.4377,-188.8156"/>
<polygon fill="#191970" stroke="#191970" points="591.0617,-192.2642 600.5333,-187.5166 590.1684,-185.3214 591.0617,-192.2642"/>
</g>
<!-- Node38&#45;&gt;Node4 -->
<g id="edge81" class="edge">
<title>Node38&#45;&gt;Node4</title>
<path fill="none" stroke="#191970" d="M428.7869,-582.1532C424.2828,-568.4124 418.5584,-543.2375 429.5,-526 487.1432,-435.189 558.4836,-481.8764 648.5,-423 706.8901,-384.8091 715.9189,-366.2702 758.5,-311 789.6121,-270.6166 824.1553,-221.6758 842.1175,-195.8928"/>
<polygon fill="#191970" stroke="#191970" points="845.1168,-197.71 847.9478,-187.5004 839.3679,-193.7161 845.1168,-197.71"/>
</g>
<!-- Node38&#45;&gt;Node29 -->
<g id="edge82" class="edge">
<title>Node38&#45;&gt;Node29</title>
<path fill="none" stroke="#191970" d="M409.3727,-582.4308C371.1537,-566.1272 293.1169,-530.7444 233.5,-490 205.8184,-471.0813 134.8379,-405.303 101.4143,-373.9168"/>
<polygon fill="#191970" stroke="#191970" points="103.4561,-371.0322 93.7751,-366.7277 98.6588,-376.1298 103.4561,-371.0322"/>
</g>
<!-- Node38&#45;&gt;Node35 -->
<g id="edge83" class="edge">
<title>Node38&#45;&gt;Node35</title>
<path fill="none" stroke="#191970" d="M430.9321,-582.3442C429.1903,-567.8926 428.3649,-540.7617 443.5,-526 463.2931,-506.6952 622.6951,-489.9854 724.1979,-481.1643"/>
<polygon fill="#191970" stroke="#191970" points="724.7794,-484.6273 734.4429,-480.2836 724.1798,-477.653 724.7794,-484.6273"/>
</g>
<!-- Node38&#45;&gt;Node37 -->
<g id="edge84" class="edge">
<title>Node38&#45;&gt;Node37</title>
<path fill="none" stroke="#191970" d="M440.1642,-582.2455C446.3473,-574.3761 455.2063,-563.101 462.6289,-553.6542"/>
<polygon fill="#191970" stroke="#191970" points="465.4975,-555.6683 468.9236,-545.6427 459.9932,-551.3435 465.4975,-555.6683"/>
</g>
</g>
</svg>
