<?xml version="1.0" encoding="UTF-8" standalone="no"?>
<!DOCTYPE svg PUBLIC "-//W3C//DTD SVG 1.1//EN"
 "http://www.w3.org/Graphics/SVG/1.1/DTD/svg11.dtd">
<!-- Generated by graphviz version 2.40.1 (20161225.0304)
 -->
<!-- Title: GeomVector3.cpp Pages: 1 -->
<svg width="838pt" height="364pt"
 viewBox="0.00 0.00 838.00 364.00" xmlns="http://www.w3.org/2000/svg" xmlns:xlink="http://www.w3.org/1999/xlink">
<g id="graph0" class="graph" transform="scale(1 1) rotate(0) translate(4 360)">
<title>GeomVector3.cpp</title>
<!-- Node0 -->
<g id="node1" class="node">
<title>Node0</title>
<polygon fill="#bfbfbf" stroke="#000000" points="140,-336.5 140,-355.5 243,-355.5 243,-336.5 140,-336.5"/>
<text text-anchor="middle" x="191.5" y="-343.5" font-family="FreeSans.ttf" font-size="10.00" fill="#000000">GeomVector3.cpp</text>
</g>
<!-- Node1 -->
<g id="node2" class="node">
<title>Node1</title>
<g id="a_node2"><a xlink:href="GeomVector3_8h.html" target="_top" xlink:title="iDynTree/Core/GeomVector3.h">
<polygon fill="none" stroke="#000000" points="0,-224.5 0,-243.5 163,-243.5 163,-224.5 0,-224.5"/>
<text text-anchor="middle" x="81.5" y="-231.5" font-family="FreeSans.ttf" font-size="10.00" fill="#000000">iDynTree/Core/GeomVector3.h</text>
</a>
</g>
</g>
<!-- Node0&#45;&gt;Node1 -->
<g id="edge1" class="edge">
<title>Node0&#45;&gt;Node1</title>
<path fill="none" stroke="#191970" d="M167.5162,-336.3592C150.6599,-328.5982 128.5236,-316.299 113.5,-300 101.1205,-286.5696 92.5675,-267.4694 87.4394,-253.2693"/>
<polygon fill="#191970" stroke="#191970" points="90.6753,-251.9101 84.1788,-243.5407 84.0381,-254.1346 90.6753,-251.9101"/>
</g>
<!-- Node18 -->
<g id="node19" class="node">
<title>Node18</title>
<g id="a_node19"><a xlink:href="Rotation_8h.html" target="_top" xlink:title="iDynTree/Core/Rotation.h">
<polygon fill="none" stroke="#000000" points="123,-280.5 123,-299.5 260,-299.5 260,-280.5 123,-280.5"/>
<text text-anchor="middle" x="191.5" y="-287.5" font-family="FreeSans.ttf" font-size="10.00" fill="#000000">iDynTree/Core/Rotation.h</text>
</a>
</g>
</g>
<!-- Node0&#45;&gt;Node18 -->
<g id="edge21" class="edge">
<title>Node0&#45;&gt;Node18</title>
<path fill="none" stroke="#191970" d="M191.5,-336.2455C191.5,-328.9382 191.5,-318.6944 191.5,-309.7046"/>
<polygon fill="#191970" stroke="#191970" points="195.0001,-309.6426 191.5,-299.6427 188.0001,-309.6427 195.0001,-309.6426"/>
</g>
<!-- Node23 -->
<g id="node24" class="node">
<title>Node23</title>
<polygon fill="none" stroke="#bfbfbf" points="278,-280.5 278,-299.5 355,-299.5 355,-280.5 278,-280.5"/>
<text text-anchor="middle" x="316.5" y="-287.5" font-family="FreeSans.ttf" font-size="10.00" fill="#000000">Eigen/Dense</text>
</g>
<!-- Node0&#45;&gt;Node23 -->
<g id="edge39" class="edge">
<title>Node0&#45;&gt;Node23</title>
<path fill="none" stroke="#191970" d="M212.9883,-336.3733C233.144,-327.3435 263.488,-313.7494 286.118,-303.6111"/>
<polygon fill="#191970" stroke="#191970" points="287.5971,-306.7838 295.2921,-299.5011 284.7351,-300.3955 287.5971,-306.7838"/>
</g>
<!-- Node2 -->
<g id="node3" class="node">
<title>Node2</title>
<g id="a_node3"><a xlink:href="VectorFixSize_8h.html" target="_top" xlink:title="iDynTree/Core/VectorFixSize.h">
<polygon fill="none" stroke="#000000" points="40,-168.5 40,-187.5 201,-187.5 201,-168.5 40,-168.5"/>
<text text-anchor="middle" x="120.5" y="-175.5" font-family="FreeSans.ttf" font-size="10.00" fill="#000000">iDynTree/Core/VectorFixSize.h</text>
</a>
</g>
</g>
<!-- Node1&#45;&gt;Node2 -->
<g id="edge2" class="edge">
<title>Node1&#45;&gt;Node2</title>
<path fill="none" stroke="#191970" d="M88.2933,-224.2455C93.7178,-216.4564 101.4661,-205.3308 108.0033,-195.9439"/>
<polygon fill="#191970" stroke="#191970" points="110.9417,-197.849 113.7846,-187.6427 105.1975,-193.8485 110.9417,-197.849"/>
</g>
<!-- Node3 -->
<g id="node4" class="node">
<title>Node3</title>
<g id="a_node4"><a xlink:href="Utils_8h.html" target="_top" xlink:title="iDynTree/Core/Utils.h">
<polygon fill="none" stroke="#000000" points="36,-56.5 36,-75.5 155,-75.5 155,-56.5 36,-56.5"/>
<text text-anchor="middle" x="95.5" y="-63.5" font-family="FreeSans.ttf" font-size="10.00" fill="#000000">iDynTree/Core/Utils.h</text>
</a>
</g>
</g>
<!-- Node2&#45;&gt;Node3 -->
<g id="edge3" class="edge">
<title>Node2&#45;&gt;Node3</title>
<path fill="none" stroke="#191970" d="M113.1181,-168.4183C106.7727,-159.5336 98.0939,-145.6624 94.5,-132 90.4914,-116.7614 91.0774,-98.8523 92.4788,-85.5375"/>
<polygon fill="#191970" stroke="#191970" points="95.9533,-85.9595 93.7649,-75.5931 89.0111,-85.0616 95.9533,-85.9595"/>
</g>
<!-- Node4 -->
<g id="node5" class="node">
<title>Node4</title>
<polygon fill="none" stroke="#bfbfbf" points="19,-.5 19,-19.5 72,-19.5 72,-.5 19,-.5"/>
<text text-anchor="middle" x="45.5" y="-7.5" font-family="FreeSans.ttf" font-size="10.00" fill="#000000">cstddef</text>
</g>
<!-- Node2&#45;&gt;Node4 -->
<g id="edge19" class="edge">
<title>Node2&#45;&gt;Node4</title>
<path fill="none" stroke="#191970" d="M106.5589,-168.3907C84.5789,-152.2863 42.7057,-117.4984 26.5,-76 20.3572,-60.27 26.8261,-41.7447 33.8326,-28.3312"/>
<polygon fill="#191970" stroke="#191970" points="36.9128,-29.9956 38.8568,-19.5807 30.8423,-26.5102 36.9128,-29.9956"/>
</g>
<!-- Node6 -->
<g id="node7" class="node">
<title>Node6</title>
<g id="a_node7"><a xlink:href="Span_8h.html" target="_top" xlink:title="iDynTree/Core/Span.h">
<polygon fill="none" stroke="#000000" points="481,-56.5 481,-75.5 602,-75.5 602,-56.5 481,-56.5"/>
<text text-anchor="middle" x="541.5" y="-63.5" font-family="FreeSans.ttf" font-size="10.00" fill="#000000">iDynTree/Core/Span.h</text>
</a>
</g>
</g>
<!-- Node2&#45;&gt;Node6 -->
<g id="edge6" class="edge">
<title>Node2&#45;&gt;Node6</title>
<path fill="none" stroke="#191970" d="M124.0047,-168.4244C129.9941,-153.5621 143.7065,-125.2736 165.5,-112 215.289,-81.6754 376.4499,-71.2906 470.8446,-67.7715"/>
<polygon fill="#191970" stroke="#191970" points="471.0195,-71.2676 480.8885,-67.4135 470.7701,-64.272 471.0195,-71.2676"/>
</g>
<!-- Node7 -->
<g id="node8" class="node">
<title>Node7</title>
<polygon fill="none" stroke="#bfbfbf" points="268.5,-.5 268.5,-19.5 320.5,-19.5 320.5,-.5 268.5,-.5"/>
<text text-anchor="middle" x="294.5" y="-7.5" font-family="FreeSans.ttf" font-size="10.00" fill="#000000">cassert</text>
</g>
<!-- Node2&#45;&gt;Node7 -->
<g id="edge18" class="edge">
<title>Node2&#45;&gt;Node7</title>
<path fill="none" stroke="#191970" d="M121.5749,-168.1143C123.5017,-154.3274 128.6251,-129.098 141.5,-112 173.0081,-70.157 226.9763,-40.0509 261.6719,-23.8249"/>
<polygon fill="#191970" stroke="#191970" points="263.2611,-26.9471 270.9121,-19.6182 260.3607,-20.5762 263.2611,-26.9471"/>
</g>
<!-- Node15 -->
<g id="node16" class="node">
<title>Node15</title>
<polygon fill="none" stroke="#bfbfbf" points="174.5,-112.5 174.5,-131.5 218.5,-131.5 218.5,-112.5 174.5,-112.5"/>
<text text-anchor="middle" x="196.5" y="-119.5" font-family="FreeSans.ttf" font-size="10.00" fill="#000000">string</text>
</g>
<!-- Node2&#45;&gt;Node15 -->
<g id="edge16" class="edge">
<title>Node2&#45;&gt;Node15</title>
<path fill="none" stroke="#191970" d="M133.7382,-168.2455C145.181,-159.814 161.9296,-147.4729 175.2475,-137.6598"/>
<polygon fill="#191970" stroke="#191970" points="177.4391,-140.3924 183.4135,-131.6427 173.2867,-134.757 177.4391,-140.3924"/>
</g>
<!-- Node16 -->
<g id="node17" class="node">
<title>Node16</title>
<polygon fill="none" stroke="#bfbfbf" points="236.5,-112.5 236.5,-131.5 292.5,-131.5 292.5,-112.5 236.5,-112.5"/>
<text text-anchor="middle" x="264.5" y="-119.5" font-family="FreeSans.ttf" font-size="10.00" fill="#000000">sstream</text>
</g>
<!-- Node2&#45;&gt;Node16 -->
<g id="edge17" class="edge">
<title>Node2&#45;&gt;Node16</title>
<path fill="none" stroke="#191970" d="M145.2545,-168.3733C168.7849,-159.2226 204.3687,-145.3844 230.5426,-135.2057"/>
<polygon fill="#191970" stroke="#191970" points="232.0171,-138.3877 240.0685,-131.5011 229.4799,-131.8636 232.0171,-138.3877"/>
</g>
<!-- Node17 -->
<g id="node18" class="node">
<title>Node17</title>
<polygon fill="none" stroke="#bfbfbf" points="310.5,-112.5 310.5,-131.5 360.5,-131.5 360.5,-112.5 310.5,-112.5"/>
<text text-anchor="middle" x="335.5" y="-119.5" font-family="FreeSans.ttf" font-size="10.00" fill="#000000">cstring</text>
</g>
<!-- Node2&#45;&gt;Node17 -->
<g id="edge20" class="edge">
<title>Node2&#45;&gt;Node17</title>
<path fill="none" stroke="#191970" d="M159.802,-168.4587C194.4593,-159.9452 246.5567,-146.9065 300.5383,-132.1981"/>
<polygon fill="#191970" stroke="#191970" points="301.5579,-135.5479 310.2787,-129.5313 299.7094,-128.7963 301.5579,-135.5479"/>
</g>
<!-- Node3&#45;&gt;Node4 -->
<g id="edge4" class="edge">
<title>Node3&#45;&gt;Node4</title>
<path fill="none" stroke="#191970" d="M86.7907,-56.2455C79.6927,-48.2958 69.4916,-36.8706 61.005,-27.3656"/>
<polygon fill="#191970" stroke="#191970" points="63.3805,-24.771 54.1095,-19.6427 58.1589,-29.4331 63.3805,-24.771"/>
</g>
<!-- Node5 -->
<g id="node6" class="node">
<title>Node5</title>
<polygon fill="none" stroke="#bfbfbf" points="90.5,-.5 90.5,-19.5 170.5,-19.5 170.5,-.5 90.5,-.5"/>
<text text-anchor="middle" x="130.5" y="-7.5" font-family="FreeSans.ttf" font-size="10.00" fill="#000000">CoreExport.h</text>
</g>
<!-- Node3&#45;&gt;Node5 -->
<g id="edge5" class="edge">
<title>Node3&#45;&gt;Node5</title>
<path fill="none" stroke="#191970" d="M101.5965,-56.2455C106.4145,-48.5367 113.2751,-37.5598 119.1032,-28.2348"/>
<polygon fill="#191970" stroke="#191970" points="122.1413,-29.9777 124.4733,-19.6427 116.2053,-26.2677 122.1413,-29.9777"/>
</g>
<!-- Node6&#45;&gt;Node4 -->
<g id="edge10" class="edge">
<title>Node6&#45;&gt;Node4</title>
<path fill="none" stroke="#191970" d="M480.7521,-63.2428C394.2701,-58.5867 230.6585,-47.0765 82.317,-19.8432"/>
<polygon fill="#191970" stroke="#191970" points="82.5891,-16.3337 72.1169,-17.941 81.3058,-23.2151 82.5891,-16.3337"/>
</g>
<!-- Node6&#45;&gt;Node7 -->
<g id="edge7" class="edge">
<title>Node6&#45;&gt;Node7</title>
<path fill="none" stroke="#191970" d="M493.3015,-56.467C452.3864,-48.1662 391.9145,-35.4095 330.6591,-20.183"/>
<polygon fill="#191970" stroke="#191970" points="331.375,-16.7543 320.8241,-17.7184 329.6734,-23.5443 331.375,-16.7543"/>
</g>
<!-- Node8 -->
<g id="node9" class="node">
<title>Node8</title>
<polygon fill="none" stroke="#bfbfbf" points="338.5,-.5 338.5,-19.5 402.5,-19.5 402.5,-.5 338.5,-.5"/>
<text text-anchor="middle" x="370.5" y="-7.5" font-family="FreeSans.ttf" font-size="10.00" fill="#000000">algorithm</text>
</g>
<!-- Node6&#45;&gt;Node8 -->
<g id="edge8" class="edge">
<title>Node6&#45;&gt;Node8</title>
<path fill="none" stroke="#191970" d="M512.1041,-56.3733C483.6693,-47.0613 440.4123,-32.8953 409.1919,-22.671"/>
<polygon fill="#191970" stroke="#191970" points="410.105,-19.2872 399.5124,-19.5011 407.9264,-25.9396 410.105,-19.2872"/>
</g>
<!-- Node9 -->
<g id="node10" class="node">
<title>Node9</title>
<polygon fill="none" stroke="#bfbfbf" points="420.5,-.5 420.5,-19.5 462.5,-19.5 462.5,-.5 420.5,-.5"/>
<text text-anchor="middle" x="441.5" y="-7.5" font-family="FreeSans.ttf" font-size="10.00" fill="#000000">array</text>
</g>
<!-- Node6&#45;&gt;Node9 -->
<g id="edge9" class="edge">
<title>Node6&#45;&gt;Node9</title>
<path fill="none" stroke="#191970" d="M524.0813,-56.2455C508.4515,-47.4928 485.2981,-34.527 467.4815,-24.5496"/>
<polygon fill="#191970" stroke="#191970" points="469.1543,-21.475 458.7191,-19.6427 465.734,-27.5825 469.1543,-21.475"/>
</g>
<!-- Node10 -->
<g id="node11" class="node">
<title>Node10</title>
<polygon fill="none" stroke="#bfbfbf" points="481,-.5 481,-19.5 534,-19.5 534,-.5 481,-.5"/>
<text text-anchor="middle" x="507.5" y="-7.5" font-family="FreeSans.ttf" font-size="10.00" fill="#000000">iterator</text>
</g>
<!-- Node6&#45;&gt;Node10 -->
<g id="edge11" class="edge">
<title>Node6&#45;&gt;Node10</title>
<path fill="none" stroke="#191970" d="M535.5777,-56.2455C530.8973,-48.5367 524.2327,-37.5598 518.5711,-28.2348"/>
<polygon fill="#191970" stroke="#191970" points="521.5361,-26.3741 513.3545,-19.6427 515.5525,-30.007 521.5361,-26.3741"/>
</g>
<!-- Node11 -->
<g id="node12" class="node">
<title>Node11</title>
<polygon fill="none" stroke="#bfbfbf" points="552.5,-.5 552.5,-19.5 596.5,-19.5 596.5,-.5 552.5,-.5"/>
<text text-anchor="middle" x="574.5" y="-7.5" font-family="FreeSans.ttf" font-size="10.00" fill="#000000">limits</text>
</g>
<!-- Node6&#45;&gt;Node11 -->
<g id="edge12" class="edge">
<title>Node6&#45;&gt;Node11</title>
<path fill="none" stroke="#191970" d="M547.2482,-56.2455C551.7435,-48.617 558.1248,-37.7881 563.5825,-28.5267"/>
<polygon fill="#191970" stroke="#191970" points="566.7561,-30.035 568.8177,-19.6427 560.7253,-26.4811 566.7561,-30.035"/>
</g>
<!-- Node12 -->
<g id="node13" class="node">
<title>Node12</title>
<polygon fill="none" stroke="#bfbfbf" points="615,-.5 615,-19.5 680,-19.5 680,-.5 615,-.5"/>
<text text-anchor="middle" x="647.5" y="-7.5" font-family="FreeSans.ttf" font-size="10.00" fill="#000000">stdexcept</text>
</g>
<!-- Node6&#45;&gt;Node12 -->
<g id="edge13" class="edge">
<title>Node6&#45;&gt;Node12</title>
<path fill="none" stroke="#191970" d="M559.9638,-56.2455C576.6074,-47.4527 601.2993,-34.4079 620.2192,-24.4125"/>
<polygon fill="#191970" stroke="#191970" points="622.0408,-27.4086 629.2478,-19.6427 618.7709,-21.2193 622.0408,-27.4086"/>
</g>
<!-- Node13 -->
<g id="node14" class="node">
<title>Node13</title>
<polygon fill="none" stroke="#bfbfbf" points="761,-.5 761,-19.5 830,-19.5 830,-.5 761,-.5"/>
<text text-anchor="middle" x="795.5" y="-7.5" font-family="FreeSans.ttf" font-size="10.00" fill="#000000">type_traits</text>
</g>
<!-- Node6&#45;&gt;Node13 -->
<g id="edge14" class="edge">
<title>Node6&#45;&gt;Node13</title>
<path fill="none" stroke="#191970" d="M585.9964,-56.4865C626.5562,-47.7726 688.3983,-34.3822 750.7649,-20.3721"/>
<polygon fill="#191970" stroke="#191970" points="751.7883,-23.7294 760.7757,-18.1189 750.2512,-16.9002 751.7883,-23.7294"/>
</g>
<!-- Node14 -->
<g id="node15" class="node">
<title>Node14</title>
<polygon fill="none" stroke="#bfbfbf" points="698,-.5 698,-19.5 743,-19.5 743,-.5 698,-.5"/>
<text text-anchor="middle" x="720.5" y="-7.5" font-family="FreeSans.ttf" font-size="10.00" fill="#000000">utility</text>
</g>
<!-- Node6&#45;&gt;Node14 -->
<g id="edge15" class="edge">
<title>Node6&#45;&gt;Node14</title>
<path fill="none" stroke="#191970" d="M572.4275,-56.4928C600.4006,-47.8706 642.9694,-34.6922 688.1465,-20.4096"/>
<polygon fill="#191970" stroke="#191970" points="689.3449,-23.7015 697.8221,-17.3463 687.232,-17.028 689.3449,-23.7015"/>
</g>
<!-- Node18&#45;&gt;Node1 -->
<g id="edge23" class="edge">
<title>Node18&#45;&gt;Node1</title>
<path fill="none" stroke="#191970" d="M172.3395,-280.2455C154.9889,-271.4125 129.2099,-258.2887 109.5417,-248.2758"/>
<polygon fill="#191970" stroke="#191970" points="110.9405,-245.0605 100.441,-243.6427 107.7647,-251.2986 110.9405,-245.0605"/>
</g>
<!-- Node18&#45;&gt;Node2 -->
<g id="edge38" class="edge">
<title>Node18&#45;&gt;Node2</title>
<path fill="none" stroke="#191970" d="M190.2421,-280.3636C188.1288,-266.8729 182.9208,-241.9932 171.5,-224 164.1118,-212.36 152.9936,-201.8508 143.0221,-193.8255"/>
<polygon fill="#191970" stroke="#191970" points="145.0897,-191.0005 135.0227,-187.6981 140.833,-196.5576 145.0897,-191.0005"/>
</g>
<!-- Node18&#45;&gt;Node15 -->
<g id="edge22" class="edge">
<title>Node18&#45;&gt;Node15</title>
<path fill="none" stroke="#191970" d="M194.8502,-280.2038C201.5096,-259.5028 215.29,-209.7781 209.5,-168 208.2643,-159.0835 205.7419,-149.4647 203.245,-141.3395"/>
<polygon fill="#191970" stroke="#191970" points="206.5274,-140.1164 200.0876,-131.7033 199.8753,-142.296 206.5274,-140.1164"/>
</g>
<!-- Node19 -->
<g id="node20" class="node">
<title>Node19</title>
<g id="a_node20"><a xlink:href="RotationRaw_8h.html" target="_top" xlink:title="iDynTree/Core/RotationRaw.h">
<polygon fill="none" stroke="#000000" points="257.5,-224.5 257.5,-243.5 415.5,-243.5 415.5,-224.5 257.5,-224.5"/>
<text text-anchor="middle" x="336.5" y="-231.5" font-family="FreeSans.ttf" font-size="10.00" fill="#000000">iDynTree/Core/RotationRaw.h</text>
</a>
</g>
</g>
<!-- Node18&#45;&gt;Node19 -->
<g id="edge24" class="edge">
<title>Node18&#45;&gt;Node19</title>
<path fill="none" stroke="#191970" d="M216.4264,-280.3733C240.1202,-271.2226 275.9511,-257.3844 302.3068,-247.2057"/>
<polygon fill="#191970" stroke="#191970" points="303.8314,-250.3689 311.8989,-243.5011 301.3094,-243.8389 303.8314,-250.3689"/>
</g>
<!-- Node19&#45;&gt;Node15 -->
<g id="edge37" class="edge">
<title>Node19&#45;&gt;Node15</title>
<path fill="none" stroke="#191970" d="M324.5637,-224.4509C300.4901,-205.1921 245.9023,-161.5218 216.3669,-137.8935"/>
<polygon fill="#191970" stroke="#191970" points="218.4013,-135.0388 208.4061,-131.5249 214.0284,-140.5049 218.4013,-135.0388"/>
</g>
<!-- Node20 -->
<g id="node21" class="node">
<title>Node20</title>
<g id="a_node21"><a xlink:href="MatrixFixSize_8h.html" target="_top" xlink:title="iDynTree/Core/MatrixFixSize.h">
<polygon fill="none" stroke="#000000" points="305,-168.5 305,-187.5 466,-187.5 466,-168.5 305,-168.5"/>
<text text-anchor="middle" x="385.5" y="-175.5" font-family="FreeSans.ttf" font-size="10.00" fill="#000000">iDynTree/Core/MatrixFixSize.h</text>
</a>
</g>
</g>
<!-- Node19&#45;&gt;Node20 -->
<g id="edge25" class="edge">
<title>Node19&#45;&gt;Node20</title>
<path fill="none" stroke="#191970" d="M345.0351,-224.2455C351.9912,-216.2958 361.9883,-204.8706 370.3051,-195.3656"/>
<polygon fill="#191970" stroke="#191970" points="373.1116,-197.4732 377.0627,-187.6427 367.8436,-192.8637 373.1116,-197.4732"/>
</g>
<!-- Node20&#45;&gt;Node3 -->
<g id="edge26" class="edge">
<title>Node20&#45;&gt;Node3</title>
<path fill="none" stroke="#191970" d="M386.1992,-168.309C386.6669,-153.8114 385.2059,-126.6212 369.5,-112 340.6032,-85.0989 236.6249,-73.7924 165.4027,-69.1363"/>
<polygon fill="#191970" stroke="#191970" points="165.3435,-65.6259 155.145,-68.4965 164.9077,-72.6123 165.3435,-65.6259"/>
</g>
<!-- Node20&#45;&gt;Node7 -->
<g id="edge32" class="edge">
<title>Node20&#45;&gt;Node7</title>
<path fill="none" stroke="#191970" d="M388.8439,-168.2002C392.7965,-154.9453 397.9557,-130.8 390.5,-112 375.794,-74.9177 340.5159,-43.4768 317.0691,-25.6739"/>
<polygon fill="#191970" stroke="#191970" points="318.8581,-22.6447 308.7298,-19.5352 314.7083,-28.2821 318.8581,-22.6447"/>
</g>
<!-- Node20&#45;&gt;Node15 -->
<g id="edge34" class="edge">
<title>Node20&#45;&gt;Node15</title>
<path fill="none" stroke="#191970" d="M351.8206,-168.4978C321.7783,-159.9546 276.3679,-146.8775 228.4418,-132.2352"/>
<polygon fill="#191970" stroke="#191970" points="229.4136,-128.8724 218.8269,-129.2868 227.3613,-135.5648 229.4136,-128.8724"/>
</g>
<!-- Node20&#45;&gt;Node16 -->
<g id="edge36" class="edge">
<title>Node20&#45;&gt;Node16</title>
<path fill="none" stroke="#191970" d="M364.6994,-168.3733C345.2757,-159.3838 316.0776,-145.8706 294.2036,-135.7471"/>
<polygon fill="#191970" stroke="#191970" points="295.5745,-132.5249 285.0292,-131.5011 292.6344,-138.8776 295.5745,-132.5249"/>
</g>
<!-- Node20&#45;&gt;Node17 -->
<g id="edge33" class="edge">
<title>Node20&#45;&gt;Node17</title>
<path fill="none" stroke="#191970" d="M376.7907,-168.2455C369.6927,-160.2958 359.4916,-148.8706 351.005,-139.3656"/>
<polygon fill="#191970" stroke="#191970" points="353.3805,-136.771 344.1095,-131.6427 348.1589,-141.4331 353.3805,-136.771"/>
</g>
<!-- Node21 -->
<g id="node22" class="node">
<title>Node21</title>
<g id="a_node22"><a xlink:href="MatrixView_8h.html" target="_top" xlink:title="iDynTree/Core/MatrixView.h">
<polygon fill="none" stroke="#000000" points="455,-112.5 455,-131.5 606,-131.5 606,-112.5 455,-112.5"/>
<text text-anchor="middle" x="530.5" y="-119.5" font-family="FreeSans.ttf" font-size="10.00" fill="#000000">iDynTree/Core/MatrixView.h</text>
</a>
</g>
</g>
<!-- Node20&#45;&gt;Node21 -->
<g id="edge27" class="edge">
<title>Node20&#45;&gt;Node21</title>
<path fill="none" stroke="#191970" d="M410.4264,-168.3733C434.1202,-159.2226 469.9511,-145.3844 496.3068,-135.2057"/>
<polygon fill="#191970" stroke="#191970" points="497.8314,-138.3689 505.8989,-131.5011 495.3094,-131.8389 497.8314,-138.3689"/>
</g>
<!-- Node22 -->
<g id="node23" class="node">
<title>Node22</title>
<polygon fill="none" stroke="#bfbfbf" points="624.5,-112.5 624.5,-131.5 684.5,-131.5 684.5,-112.5 624.5,-112.5"/>
<text text-anchor="middle" x="654.5" y="-119.5" font-family="FreeSans.ttf" font-size="10.00" fill="#000000">iostream</text>
</g>
<!-- Node20&#45;&gt;Node22 -->
<g id="edge35" class="edge">
<title>Node20&#45;&gt;Node22</title>
<path fill="none" stroke="#191970" d="M437.2797,-168.4657C481.8156,-160.0793 547.9953,-147.177 614.4941,-132.1455"/>
<polygon fill="#191970" stroke="#191970" points="615.3313,-135.5445 624.3052,-129.9125 613.7778,-128.7191 615.3313,-135.5445"/>
</g>
<!-- Node21&#45;&gt;Node3 -->
<g id="edge31" class="edge">
<title>Node21&#45;&gt;Node3</title>
<path fill="none" stroke="#191970" d="M456.2151,-112.4369C374.6517,-101.9368 244.7181,-85.2097 165.0759,-74.9569"/>
<polygon fill="#191970" stroke="#191970" points="165.5058,-71.4834 155.1408,-73.6779 164.612,-78.4261 165.5058,-71.4834"/>
</g>
<!-- Node21&#45;&gt;Node6 -->
<g id="edge30" class="edge">
<title>Node21&#45;&gt;Node6</title>
<path fill="none" stroke="#191970" d="M532.4161,-112.2455C533.8514,-104.9382 535.8636,-94.6944 537.6295,-85.7046"/>
<polygon fill="#191970" stroke="#191970" points="541.1127,-86.1298 539.6059,-75.6427 534.244,-84.7805 541.1127,-86.1298"/>
</g>
<!-- Node21&#45;&gt;Node7 -->
<g id="edge28" class="edge">
<title>Node21&#45;&gt;Node7</title>
<path fill="none" stroke="#191970" d="M517.8965,-112.3919C499.2008,-98.485 462.645,-72.599 428.5,-56 411.0088,-47.497 363.9933,-31.9457 330.6046,-21.2988"/>
<polygon fill="#191970" stroke="#191970" points="331.3181,-17.8533 320.7278,-18.1653 329.2012,-24.5255 331.3181,-17.8533"/>
</g>
<!-- Node21&#45;&gt;Node13 -->
<g id="edge29" class="edge">
<title>Node21&#45;&gt;Node13</title>
<path fill="none" stroke="#191970" d="M553.0938,-112.4509C600.2261,-92.5308 709.152,-46.4942 763.4815,-23.5323"/>
<polygon fill="#191970" stroke="#191970" points="765.1149,-26.6418 772.9634,-19.5249 762.3897,-20.1941 765.1149,-26.6418"/>
</g>
</g>
</svg>
