<?xml version="1.0" encoding="UTF-8" standalone="no"?>
<!DOCTYPE svg PUBLIC "-//W3C//DTD SVG 1.1//EN"
 "http://www.w3.org/Graphics/SVG/1.1/DTD/svg11.dtd">
<!-- Generated by graphviz version 2.40.1 (20161225.0304)
 -->
<!-- Title: GravityCompensationHelpers.cpp Pages: 1 -->
<svg width="2077pt" height="856pt"
 viewBox="0.00 0.00 2077.31 856.00" xmlns="http://www.w3.org/2000/svg" xmlns:xlink="http://www.w3.org/1999/xlink">
<g id="graph0" class="graph" transform="scale(1 1) rotate(0) translate(4 852)">
<title>GravityCompensationHelpers.cpp</title>
<!-- Node0 -->
<g id="node1" class="node">
<title>Node0</title>
<polygon fill="#bfbfbf" stroke="#000000" points="986.8074,-828.5 986.8074,-847.5 1167.8074,-847.5 1167.8074,-828.5 986.8074,-828.5"/>
<text text-anchor="middle" x="1077.3074" y="-835.5" font-family="FreeSans.ttf" font-size="10.00" fill="#000000">GravityCompensationHelpers.cpp</text>
</g>
<!-- Node1 -->
<g id="node2" class="node">
<title>Node1</title>
<g id="a_node2"><a xlink:href="GravityCompensationHelpers_8h.html" target="_top" xlink:title="iDynTree/Estimation\l/GravityCompensationHelpers.h">
<polygon fill="none" stroke="#000000" points="990.8074,-761.5 990.8074,-791.5 1163.8074,-791.5 1163.8074,-761.5 990.8074,-761.5"/>
<text text-anchor="start" x="998.8074" y="-779.5" font-family="FreeSans.ttf" font-size="10.00" fill="#000000">iDynTree/Estimation</text>
<text text-anchor="middle" x="1077.3074" y="-768.5" font-family="FreeSans.ttf" font-size="10.00" fill="#000000">/GravityCompensationHelpers.h</text>
</a>
</g>
</g>
<!-- Node0&#45;&gt;Node1 -->
<g id="edge1" class="edge">
<title>Node0&#45;&gt;Node1</title>
<path fill="none" stroke="#191970" d="M1077.3074,-828.3906C1077.3074,-821.2234 1077.3074,-811.0862 1077.3074,-801.671"/>
<polygon fill="#191970" stroke="#191970" points="1080.8075,-801.5446 1077.3074,-791.5446 1073.8075,-801.5446 1080.8075,-801.5446"/>
</g>
<!-- Node2 -->
<g id="node3" class="node">
<title>Node2</title>
<g id="a_node3"><a xlink:href="FreeFloatingState_8h.html" target="_top" xlink:title="iDynTree/Model/FreeFloating\lState.h">
<polygon fill="none" stroke="#000000" points="1068.3074,-638.5 1068.3074,-668.5 1222.3074,-668.5 1222.3074,-638.5 1068.3074,-638.5"/>
<text text-anchor="start" x="1076.3074" y="-656.5" font-family="FreeSans.ttf" font-size="10.00" fill="#000000">iDynTree/Model/FreeFloating</text>
<text text-anchor="middle" x="1145.3074" y="-645.5" font-family="FreeSans.ttf" font-size="10.00" fill="#000000">State.h</text>
</a>
</g>
</g>
<!-- Node1&#45;&gt;Node2 -->
<g id="edge2" class="edge">
<title>Node1&#45;&gt;Node2</title>
<path fill="none" stroke="#191970" d="M1085.6455,-761.4178C1097.2181,-740.485 1118.2736,-702.3994 1132.0238,-677.5276"/>
<polygon fill="#191970" stroke="#191970" points="1135.1258,-679.1506 1136.9011,-668.7056 1128.9996,-675.7638 1135.1258,-679.1506"/>
</g>
<!-- Node7 -->
<g id="node8" class="node">
<title>Node7</title>
<g id="a_node8"><a xlink:href="Utils_8h.html" target="_top" xlink:title="iDynTree/Core/Utils.h">
<polygon fill="none" stroke="#000000" points="1720.8074,-56.5 1720.8074,-75.5 1839.8074,-75.5 1839.8074,-56.5 1720.8074,-56.5"/>
<text text-anchor="middle" x="1780.3074" y="-63.5" font-family="FreeSans.ttf" font-size="10.00" fill="#000000">iDynTree/Core/Utils.h</text>
</a>
</g>
</g>
<!-- Node1&#45;&gt;Node7 -->
<g id="edge123" class="edge">
<title>Node1&#45;&gt;Node7</title>
<path fill="none" stroke="#191970" d="M1164.07,-774.6117C1346.2195,-770.0705 1763.0372,-756.4948 1901.3074,-725 1978.8365,-707.3406 2065.3074,-733.0149 2065.3074,-653.5 2065.3074,-653.5 2065.3074,-653.5 2065.3074,-413 2065.3074,-334.4222 2031.3074,-318.0778 2031.3074,-239.5 2031.3074,-239.5 2031.3074,-239.5 2031.3074,-178 2031.3074,-134.7615 1905.5206,-96.6133 1832.0395,-78.0171"/>
<polygon fill="#191970" stroke="#191970" points="1832.5863,-74.5464 1822.0367,-75.5244 1830.8936,-81.3386 1832.5863,-74.5464"/>
</g>
<!-- Node41 -->
<g id="node37" class="node">
<title>Node41</title>
<g id="a_node37"><a xlink:href="Model_8h.html" target="_top" xlink:title="iDynTree/Model/Model.h">
<polygon fill="none" stroke="#000000" points="219.8074,-705.5 219.8074,-724.5 352.8074,-724.5 352.8074,-705.5 219.8074,-705.5"/>
<text text-anchor="middle" x="286.3074" y="-712.5" font-family="FreeSans.ttf" font-size="10.00" fill="#000000">iDynTree/Model/Model.h</text>
</a>
</g>
</g>
<!-- Node1&#45;&gt;Node41 -->
<g id="edge82" class="edge">
<title>Node1&#45;&gt;Node41</title>
<path fill="none" stroke="#191970" d="M990.7727,-769.772C835.3571,-757.6884 511.3833,-732.4996 363.2336,-720.981"/>
<polygon fill="#191970" stroke="#191970" points="363.1166,-717.4614 352.8754,-720.1756 362.5739,-724.4404 363.1166,-717.4614"/>
</g>
<!-- Node50 -->
<g id="node43" class="node">
<title>Node50</title>
<g id="a_node43"><a xlink:href="Traversal_8h.html" target="_top" xlink:title="iDynTree/Model/Traversal.h">
<polygon fill="none" stroke="#000000" points="497.3074,-582.5 497.3074,-601.5 645.3074,-601.5 645.3074,-582.5 497.3074,-582.5"/>
<text text-anchor="middle" x="571.3074" y="-589.5" font-family="FreeSans.ttf" font-size="10.00" fill="#000000">iDynTree/Model/Traversal.h</text>
</a>
</g>
</g>
<!-- Node1&#45;&gt;Node50 -->
<g id="edge102" class="edge">
<title>Node1&#45;&gt;Node50</title>
<path fill="none" stroke="#191970" d="M1043.2255,-761.4939C1001.3062,-742.4196 928.6593,-707.3322 871.3074,-669 853.4712,-657.0788 853.7604,-647.046 834.3074,-638 817.3722,-630.1249 717.5191,-613.9332 645.8654,-603.018"/>
<polygon fill="#191970" stroke="#191970" points="646.3654,-599.5539 635.9535,-601.5143 645.3153,-606.4747 646.3654,-599.5539"/>
</g>
<!-- Node51 -->
<g id="node44" class="node">
<title>Node51</title>
<g id="a_node44"><a xlink:href="Dynamics_8h.html" target="_top" xlink:title="iDynTree/Model/Dynamics.h">
<polygon fill="none" stroke="#000000" points="673.3074,-644 673.3074,-663 825.3074,-663 825.3074,-644 673.3074,-644"/>
<text text-anchor="middle" x="749.3074" y="-651" font-family="FreeSans.ttf" font-size="10.00" fill="#000000">iDynTree/Model/Dynamics.h</text>
</a>
</g>
</g>
<!-- Node1&#45;&gt;Node51 -->
<g id="edge105" class="edge">
<title>Node1&#45;&gt;Node51</title>
<path fill="none" stroke="#191970" d="M990.8022,-767.4804C944.2376,-760.2694 886.782,-747.4792 839.3074,-725 810.478,-711.3493 782.5626,-686.8702 765.6592,-670.4068"/>
<polygon fill="#191970" stroke="#191970" points="767.8403,-667.6386 758.2901,-663.0513 762.8951,-672.593 767.8403,-667.6386"/>
</g>
<!-- Node53 -->
<g id="node46" class="node">
<title>Node53</title>
<g id="a_node46"><a xlink:href="EigenHelpers_8h.html" target="_top" xlink:title="iDynTree/Core/EigenHelpers.h">
<polygon fill="none" stroke="#000000" points="1508.8074,-526.5 1508.8074,-545.5 1669.8074,-545.5 1669.8074,-526.5 1508.8074,-526.5"/>
<text text-anchor="middle" x="1589.3074" y="-533.5" font-family="FreeSans.ttf" font-size="10.00" fill="#000000">iDynTree/Core/EigenHelpers.h</text>
</a>
</g>
</g>
<!-- Node1&#45;&gt;Node53 -->
<g id="edge112" class="edge">
<title>Node1&#45;&gt;Node53</title>
<path fill="none" stroke="#191970" d="M1164.0441,-761.8483C1305.2357,-736.0344 1574.6564,-677.9167 1630.3074,-602 1642.2601,-585.6947 1626.1646,-565.8597 1610.7657,-552.2166"/>
<polygon fill="#191970" stroke="#191970" points="1612.8551,-549.402 1602.9288,-545.698 1608.3787,-554.7837 1612.8551,-549.402"/>
</g>
<!-- Node55 -->
<g id="node48" class="node">
<title>Node55</title>
<g id="a_node48"><a xlink:href="ClassicalAcc_8h.html" target="_top" xlink:title="iDynTree/Core/ClassicalAcc.h">
<polygon fill="none" stroke="#000000" points="1803.3074,-403.5 1803.3074,-422.5 1961.3074,-422.5 1961.3074,-403.5 1803.3074,-403.5"/>
<text text-anchor="middle" x="1882.3074" y="-410.5" font-family="FreeSans.ttf" font-size="10.00" fill="#000000">iDynTree/Core/ClassicalAcc.h</text>
</a>
</g>
</g>
<!-- Node1&#45;&gt;Node55 -->
<g id="edge124" class="edge">
<title>Node1&#45;&gt;Node55</title>
<path fill="none" stroke="#191970" d="M1164.132,-774.2955C1398.6505,-767.1943 2027.3074,-740.0837 2027.3074,-653.5 2027.3074,-653.5 2027.3074,-653.5 2027.3074,-536 2027.3074,-479.8378 1963.2655,-443.9991 1920.3038,-426.2757"/>
<polygon fill="#191970" stroke="#191970" points="1921.5406,-423.0011 1910.9547,-422.5644 1918.9578,-429.5072 1921.5406,-423.0011"/>
</g>
<!-- Node56 -->
<g id="node49" class="node">
<title>Node56</title>
<g id="a_node49"><a xlink:href="ExternalWrenchesEstimation_8h.html" target="_top" xlink:title="iDynTree/Estimation\l/ExternalWrenchesEstimation.h">
<polygon fill="none" stroke="#000000" points="880.8074,-638.5 880.8074,-668.5 1049.8074,-668.5 1049.8074,-638.5 880.8074,-638.5"/>
<text text-anchor="start" x="888.8074" y="-656.5" font-family="FreeSans.ttf" font-size="10.00" fill="#000000">iDynTree/Estimation</text>
<text text-anchor="middle" x="965.3074" y="-645.5" font-family="FreeSans.ttf" font-size="10.00" fill="#000000">/ExternalWrenchesEstimation.h</text>
</a>
</g>
</g>
<!-- Node1&#45;&gt;Node56 -->
<g id="edge126" class="edge">
<title>Node1&#45;&gt;Node56</title>
<path fill="none" stroke="#191970" d="M1063.574,-761.4178C1044.1774,-740.1161 1008.6067,-701.0519 986.0004,-676.2253"/>
<polygon fill="#191970" stroke="#191970" points="988.4738,-673.7431 979.1531,-668.7056 983.298,-678.456 988.4738,-673.7431"/>
</g>
<!-- Node3 -->
<g id="node4" class="node">
<title>Node3</title>
<g id="a_node4"><a xlink:href="Transform_8h.html" target="_top" xlink:title="iDynTree/Core/Transform.h">
<polygon fill="none" stroke="#000000" points="759.3074,-465 759.3074,-484 905.3074,-484 905.3074,-465 759.3074,-465"/>
<text text-anchor="middle" x="832.3074" y="-472" font-family="FreeSans.ttf" font-size="10.00" fill="#000000">iDynTree/Core/Transform.h</text>
</a>
</g>
</g>
<!-- Node2&#45;&gt;Node3 -->
<g id="edge3" class="edge">
<title>Node2&#45;&gt;Node3</title>
<path fill="none" stroke="#191970" d="M1129.151,-638.2615C1110.9212,-621.9092 1079.6997,-596.3566 1048.3074,-582 982.4157,-551.8659 950.6874,-584.5003 889.3074,-546 868.3973,-532.8842 851.8606,-509.325 842.0983,-492.8465"/>
<polygon fill="#191970" stroke="#191970" points="845.1192,-491.0781 837.1513,-484.0949 839.0253,-494.5227 845.1192,-491.0781"/>
</g>
<!-- Node28 -->
<g id="node24" class="node">
<title>Node28</title>
<g id="a_node24"><a xlink:href="Twist_8h.html" target="_top" xlink:title="iDynTree/Core/Twist.h">
<polygon fill="none" stroke="#000000" points="1254.3074,-526.5 1254.3074,-545.5 1376.3074,-545.5 1376.3074,-526.5 1254.3074,-526.5"/>
<text text-anchor="middle" x="1315.3074" y="-533.5" font-family="FreeSans.ttf" font-size="10.00" fill="#000000">iDynTree/Core/Twist.h</text>
</a>
</g>
</g>
<!-- Node2&#45;&gt;Node28 -->
<g id="edge43" class="edge">
<title>Node2&#45;&gt;Node28</title>
<path fill="none" stroke="#191970" d="M1196.8228,-638.4093C1219.6323,-630.081 1245.8631,-618.1067 1266.3074,-602 1282.702,-589.0838 1296.3567,-569.3848 1305.0513,-554.8685"/>
<polygon fill="#191970" stroke="#191970" points="1308.3162,-556.2104 1310.2509,-545.7937 1302.2425,-552.7303 1308.3162,-556.2104"/>
</g>
<!-- Node31 -->
<g id="node27" class="node">
<title>Node31</title>
<g id="a_node27"><a xlink:href="VectorDynSize_8h.html" target="_top" xlink:title="iDynTree/Core/VectorDynSize.h">
<polygon fill="none" stroke="#000000" points="1320.8074,-465 1320.8074,-484 1487.8074,-484 1487.8074,-465 1320.8074,-465"/>
<text text-anchor="middle" x="1404.3074" y="-472" font-family="FreeSans.ttf" font-size="10.00" fill="#000000">iDynTree/Core/VectorDynSize.h</text>
</a>
</g>
</g>
<!-- Node2&#45;&gt;Node31 -->
<g id="edge54" class="edge">
<title>Node2&#45;&gt;Node31</title>
<path fill="none" stroke="#191970" d="M1222.3103,-649.6615C1294.1379,-644.2769 1393.7972,-631.5662 1418.3074,-602 1443.8895,-571.1408 1426.5743,-520.6415 1414.0395,-493.3786"/>
<polygon fill="#191970" stroke="#191970" points="1417.0807,-491.6284 1409.5689,-484.1569 1410.7819,-494.6821 1417.0807,-491.6284"/>
</g>
<!-- Node32 -->
<g id="node28" class="node">
<title>Node32</title>
<g id="a_node28"><a xlink:href="Indices_8h.html" target="_top" xlink:title="iDynTree/Model/Indices.h">
<polygon fill="none" stroke="#000000" points="291.3074,-526.5 291.3074,-545.5 429.3074,-545.5 429.3074,-526.5 291.3074,-526.5"/>
<text text-anchor="middle" x="360.3074" y="-533.5" font-family="FreeSans.ttf" font-size="10.00" fill="#000000">iDynTree/Model/Indices.h</text>
</a>
</g>
</g>
<!-- Node2&#45;&gt;Node32 -->
<g id="edge57" class="edge">
<title>Node2&#45;&gt;Node32</title>
<path fill="none" stroke="#191970" d="M1068.0541,-639.2683C1064.7656,-638.8106 1061.5062,-638.3847 1058.3074,-638 806.2854,-607.69 732.9781,-669.6018 488.3074,-602 448.7739,-591.077 407.3472,-567.0522 382.6867,-551.2017"/>
<polygon fill="#191970" stroke="#191970" points="384.3776,-548.1253 374.0951,-545.5715 380.5407,-553.9801 384.3776,-548.1253"/>
</g>
<!-- Node34 -->
<g id="node30" class="node">
<title>Node34</title>
<g id="a_node30"><a xlink:href="LinkState_8h.html" target="_top" xlink:title="iDynTree/Model/LinkState.h">
<polygon fill="none" stroke="#000000" points="890.8074,-582.5 890.8074,-601.5 1039.8074,-601.5 1039.8074,-582.5 890.8074,-582.5"/>
<text text-anchor="middle" x="965.3074" y="-589.5" font-family="FreeSans.ttf" font-size="10.00" fill="#000000">iDynTree/Model/LinkState.h</text>
</a>
</g>
</g>
<!-- Node2&#45;&gt;Node34 -->
<g id="edge61" class="edge">
<title>Node2&#45;&gt;Node34</title>
<path fill="none" stroke="#191970" d="M1101.2744,-638.4554C1071.1093,-628.149 1031.5266,-614.6249 1002.8544,-604.8286"/>
<polygon fill="#191970" stroke="#191970" points="1003.7956,-601.4515 993.201,-601.5303 1001.5323,-608.0756 1003.7956,-601.4515"/>
</g>
<!-- Node39 -->
<g id="node35" class="node">
<title>Node39</title>
<polygon fill="none" stroke="#bfbfbf" points="718.8074,-526.5 718.8074,-545.5 765.8074,-545.5 765.8074,-526.5 718.8074,-526.5"/>
<text text-anchor="middle" x="742.3074" y="-533.5" font-family="FreeSans.ttf" font-size="10.00" fill="#000000">vector</text>
</g>
<!-- Node2&#45;&gt;Node39 -->
<g id="edge81" class="edge">
<title>Node2&#45;&gt;Node39</title>
<path fill="none" stroke="#191970" d="M1068.2409,-639.1237C993.5205,-625.0838 890.1501,-605.3505 881.3074,-602 864.9132,-595.7881 862.9196,-589.976 847.3074,-582 823.7457,-569.9627 796.3385,-558.022 775.4342,-549.3239"/>
<polygon fill="#191970" stroke="#191970" points="776.6119,-546.0237 766.0327,-545.4478 773.9437,-552.4953 776.6119,-546.0237"/>
</g>
<!-- Node40 -->
<g id="node36" class="node">
<title>Node40</title>
<g id="a_node36"><a xlink:href="JointState_8h.html" target="_top" xlink:title="iDynTree/Model/JointState.h">
<polygon fill="none" stroke="#000000" points="1470.8074,-582.5 1470.8074,-601.5 1621.8074,-601.5 1621.8074,-582.5 1470.8074,-582.5"/>
<text text-anchor="middle" x="1546.3074" y="-589.5" font-family="FreeSans.ttf" font-size="10.00" fill="#000000">iDynTree/Model/JointState.h</text>
</a>
</g>
</g>
<!-- Node2&#45;&gt;Node40 -->
<g id="edge76" class="edge">
<title>Node2&#45;&gt;Node40</title>
<path fill="none" stroke="#191970" d="M1222.6242,-641.6422C1295.2929,-630.4972 1403.209,-613.9465 1474.1485,-603.0668"/>
<polygon fill="#191970" stroke="#191970" points="1474.9843,-606.4796 1484.3381,-601.504 1473.9231,-599.5605 1474.9843,-606.4796"/>
</g>
<!-- Node4 -->
<g id="node5" class="node">
<title>Node4</title>
<g id="a_node5"><a xlink:href="Position_8h.html" target="_top" xlink:title="iDynTree/Core/Position.h">
<polygon fill="none" stroke="#000000" points="670.3074,-347.5 670.3074,-366.5 806.3074,-366.5 806.3074,-347.5 670.3074,-347.5"/>
<text text-anchor="middle" x="738.3074" y="-354.5" font-family="FreeSans.ttf" font-size="10.00" fill="#000000">iDynTree/Core/Position.h</text>
</a>
</g>
</g>
<!-- Node3&#45;&gt;Node4 -->
<g id="edge4" class="edge">
<title>Node3&#45;&gt;Node4</title>
<path fill="none" stroke="#191970" d="M824.615,-464.8845C808.8473,-445.1749 772.6536,-399.9328 752.5043,-374.7461"/>
<polygon fill="#191970" stroke="#191970" points="755.0861,-372.3706 746.1061,-366.7484 749.62,-376.7435 755.0861,-372.3706"/>
</g>
<!-- Node19 -->
<g id="node15" class="node">
<title>Node19</title>
<polygon fill="none" stroke="#bfbfbf" points="701.3074,-112.5 701.3074,-131.5 745.3074,-131.5 745.3074,-112.5 701.3074,-112.5"/>
<text text-anchor="middle" x="723.3074" y="-119.5" font-family="FreeSans.ttf" font-size="10.00" fill="#000000">string</text>
</g>
<!-- Node3&#45;&gt;Node19 -->
<g id="edge42" class="edge">
<title>Node3&#45;&gt;Node19</title>
<path fill="none" stroke="#191970" d="M787.026,-464.9705C702.171,-444.2536 522.3759,-386.0382 462.3074,-255 445.5928,-218.5375 455.0881,-193.1843 486.3074,-168 517.4143,-142.9064 633.7003,-129.6719 690.9928,-124.5534"/>
<polygon fill="#191970" stroke="#191970" points="691.6345,-128.0111 701.2964,-123.6639 691.0324,-121.0371 691.6345,-128.0111"/>
</g>
<!-- Node22 -->
<g id="node18" class="node">
<title>Node22</title>
<g id="a_node18"><a xlink:href="Rotation_8h.html" target="_top" xlink:title="iDynTree/Core/Rotation.h">
<polygon fill="none" stroke="#000000" points="877.8074,-291.5 877.8074,-310.5 1014.8074,-310.5 1014.8074,-291.5 877.8074,-291.5"/>
<text text-anchor="middle" x="946.3074" y="-298.5" font-family="FreeSans.ttf" font-size="10.00" fill="#000000">iDynTree/Core/Rotation.h</text>
</a>
</g>
</g>
<!-- Node3&#45;&gt;Node22 -->
<g id="edge40" class="edge">
<title>Node3&#45;&gt;Node22</title>
<path fill="none" stroke="#191970" d="M838.5989,-464.9248C856.8523,-437.1443 910.0552,-356.1733 934.172,-319.4693"/>
<polygon fill="#191970" stroke="#191970" points="937.3285,-321.0389 939.8948,-310.7595 931.4784,-317.1949 937.3285,-321.0389"/>
</g>
<!-- Node25 -->
<g id="node21" class="node">
<title>Node25</title>
<g id="a_node21"><a xlink:href="MatrixFixSize_8h.html" target="_top" xlink:title="iDynTree/Core/MatrixFixSize.h">
<polygon fill="none" stroke="#000000" points="1043.8074,-168.5 1043.8074,-187.5 1204.8074,-187.5 1204.8074,-168.5 1043.8074,-168.5"/>
<text text-anchor="middle" x="1124.3074" y="-175.5" font-family="FreeSans.ttf" font-size="10.00" fill="#000000">iDynTree/Core/MatrixFixSize.h</text>
</a>
</g>
</g>
<!-- Node3&#45;&gt;Node25 -->
<g id="edge41" class="edge">
<title>Node3&#45;&gt;Node25</title>
<path fill="none" stroke="#191970" d="M830.9436,-464.9142C827.2331,-434.7282 820.226,-340.6985 868.3074,-291 917.7831,-239.8603 959.9745,-285.4038 1024.3074,-255 1056.7502,-239.6675 1088.6079,-212.4411 1107.3526,-194.8126"/>
<polygon fill="#191970" stroke="#191970" points="1109.9842,-197.138 1114.7721,-187.6867 1105.1353,-192.0893 1109.9842,-197.138"/>
</g>
<!-- Node5 -->
<g id="node6" class="node">
<title>Node5</title>
<g id="a_node6"><a xlink:href="PositionRaw_8h.html" target="_top" xlink:title="iDynTree/Core/PositionRaw.h">
<polygon fill="none" stroke="#000000" points="645.3074,-230 645.3074,-249 801.3074,-249 801.3074,-230 645.3074,-230"/>
<text text-anchor="middle" x="723.3074" y="-237" font-family="FreeSans.ttf" font-size="10.00" fill="#000000">iDynTree/Core/PositionRaw.h</text>
</a>
</g>
</g>
<!-- Node4&#45;&gt;Node5 -->
<g id="edge5" class="edge">
<title>Node4&#45;&gt;Node5</title>
<path fill="none" stroke="#191970" d="M737.0799,-347.3845C734.6297,-328.1913 729.0886,-284.786 725.8308,-259.2663"/>
<polygon fill="#191970" stroke="#191970" points="729.2901,-258.7246 724.5519,-249.2484 722.3465,-259.6111 729.2901,-258.7246"/>
</g>
<!-- Node4&#45;&gt;Node19 -->
<g id="edge39" class="edge">
<title>Node4&#45;&gt;Node19</title>
<path fill="none" stroke="#191970" d="M698.9488,-347.4538C632.3966,-330.4275 502.3094,-293.0259 476.3074,-255 419.9888,-172.6384 611.9874,-136.9233 690.9376,-125.9414"/>
<polygon fill="#191970" stroke="#191970" points="691.8436,-129.3513 701.2899,-124.5536 690.9135,-122.4134 691.8436,-129.3513"/>
</g>
<!-- Node4&#45;&gt;Node22 -->
<g id="edge21" class="edge">
<title>Node4&#45;&gt;Node22</title>
<path fill="none" stroke="#191970" d="M774.0639,-347.3733C809.25,-337.9001 863.0955,-323.4032 901.203,-313.1435"/>
<polygon fill="#191970" stroke="#191970" points="902.2713,-316.4806 911.0175,-310.5011 900.4514,-309.7213 902.2713,-316.4806"/>
</g>
<!-- Node6 -->
<g id="node7" class="node">
<title>Node6</title>
<g id="a_node7"><a xlink:href="VectorFixSize_8h.html" target="_top" xlink:title="iDynTree/Core/VectorFixSize.h">
<polygon fill="none" stroke="#000000" points="1363.8074,-168.5 1363.8074,-187.5 1524.8074,-187.5 1524.8074,-168.5 1363.8074,-168.5"/>
<text text-anchor="middle" x="1444.3074" y="-175.5" font-family="FreeSans.ttf" font-size="10.00" fill="#000000">iDynTree/Core/VectorFixSize.h</text>
</a>
</g>
</g>
<!-- Node5&#45;&gt;Node6 -->
<g id="edge6" class="edge">
<title>Node5&#45;&gt;Node6</title>
<path fill="none" stroke="#191970" d="M795.2921,-229.9955C812.6348,-227.8657 831.1187,-225.7281 848.3074,-224 1027.1547,-206.0194 1236.8137,-191.3127 1353.7251,-183.6804"/>
<polygon fill="#191970" stroke="#191970" points="1353.9563,-187.1729 1363.7081,-183.0312 1353.502,-180.1876 1353.9563,-187.1729"/>
</g>
<!-- Node5&#45;&gt;Node19 -->
<g id="edge20" class="edge">
<title>Node5&#45;&gt;Node19</title>
<path fill="none" stroke="#191970" d="M723.3074,-229.8845C723.3074,-210.6913 723.3074,-167.286 723.3074,-141.7663"/>
<polygon fill="#191970" stroke="#191970" points="726.8075,-141.7483 723.3074,-131.7484 719.8075,-141.7484 726.8075,-141.7483"/>
</g>
<!-- Node6&#45;&gt;Node7 -->
<g id="edge7" class="edge">
<title>Node6&#45;&gt;Node7</title>
<path fill="none" stroke="#191970" d="M1521.1456,-168.4592C1564.9633,-161.4747 1620.3372,-150.0035 1667.3074,-132 1701.2419,-118.993 1736.8877,-96.4721 1758.857,-81.4052"/>
<polygon fill="#191970" stroke="#191970" points="1760.9164,-84.2361 1767.1186,-75.6464 1756.9134,-78.4936 1760.9164,-84.2361"/>
</g>
<!-- Node8 -->
<g id="node9" class="node">
<title>Node8</title>
<polygon fill="none" stroke="#bfbfbf" points="1795.8074,-.5 1795.8074,-19.5 1848.8074,-19.5 1848.8074,-.5 1795.8074,-.5"/>
<text text-anchor="middle" x="1822.3074" y="-7.5" font-family="FreeSans.ttf" font-size="10.00" fill="#000000">cstddef</text>
</g>
<!-- Node6&#45;&gt;Node8 -->
<g id="edge18" class="edge">
<title>Node6&#45;&gt;Node8</title>
<path fill="none" stroke="#191970" d="M1464.6289,-168.4138C1509.114,-147.4954 1618.558,-96.3929 1711.3074,-56 1737.2966,-44.6815 1766.9713,-32.4177 1789.0957,-23.4014"/>
<polygon fill="#191970" stroke="#191970" points="1790.4392,-26.6335 1798.3853,-19.6256 1787.8034,-20.1487 1790.4392,-26.6335"/>
</g>
<!-- Node10 -->
<g id="node11" class="node">
<title>Node10</title>
<g id="a_node11"><a xlink:href="Span_8h.html" target="_top" xlink:title="iDynTree/Core/Span.h">
<polygon fill="none" stroke="#ff0000" points="1463.8074,-56.5 1463.8074,-75.5 1584.8074,-75.5 1584.8074,-56.5 1463.8074,-56.5"/>
<text text-anchor="middle" x="1524.3074" y="-63.5" font-family="FreeSans.ttf" font-size="10.00" fill="#000000">iDynTree/Core/Span.h</text>
</a>
</g>
</g>
<!-- Node6&#45;&gt;Node10 -->
<g id="edge10" class="edge">
<title>Node6&#45;&gt;Node10</title>
<path fill="none" stroke="#191970" d="M1462.6198,-168.4926C1476.2861,-160.4993 1494.4083,-147.8464 1505.3074,-132 1514.7979,-118.2015 1519.5938,-99.6772 1521.9897,-85.7662"/>
<polygon fill="#191970" stroke="#191970" points="1525.4667,-86.1765 1523.4404,-75.7773 1518.5394,-85.1704 1525.4667,-86.1765"/>
</g>
<!-- Node11 -->
<g id="node12" class="node">
<title>Node11</title>
<polygon fill="none" stroke="#bfbfbf" points="1322.3074,-.5 1322.3074,-19.5 1374.3074,-19.5 1374.3074,-.5 1322.3074,-.5"/>
<text text-anchor="middle" x="1348.3074" y="-7.5" font-family="FreeSans.ttf" font-size="10.00" fill="#000000">cassert</text>
</g>
<!-- Node6&#45;&gt;Node11 -->
<g id="edge17" class="edge">
<title>Node6&#45;&gt;Node11</title>
<path fill="none" stroke="#191970" d="M1438.871,-168.4862C1423.4985,-141.5845 1379.5071,-64.5994 1359.0316,-28.7673"/>
<polygon fill="#191970" stroke="#191970" points="1361.9236,-26.7738 1353.9233,-19.8279 1355.8459,-30.2468 1361.9236,-26.7738"/>
</g>
<!-- Node6&#45;&gt;Node19 -->
<g id="edge15" class="edge">
<title>Node6&#45;&gt;Node19</title>
<path fill="none" stroke="#191970" d="M1363.6982,-171.7391C1205.9607,-159.4876 862.5819,-132.8174 755.7173,-124.5173"/>
<polygon fill="#191970" stroke="#191970" points="755.8021,-121.0134 745.561,-123.7284 755.26,-127.9924 755.8021,-121.0134"/>
</g>
<!-- Node20 -->
<g id="node16" class="node">
<title>Node20</title>
<polygon fill="none" stroke="#bfbfbf" points="1440.3074,-112.5 1440.3074,-131.5 1496.3074,-131.5 1496.3074,-112.5 1440.3074,-112.5"/>
<text text-anchor="middle" x="1468.3074" y="-119.5" font-family="FreeSans.ttf" font-size="10.00" fill="#000000">sstream</text>
</g>
<!-- Node6&#45;&gt;Node20 -->
<g id="edge16" class="edge">
<title>Node6&#45;&gt;Node20</title>
<path fill="none" stroke="#191970" d="M1448.4879,-168.2455C1451.6884,-160.7776 1456.2034,-150.2427 1460.1158,-141.1137"/>
<polygon fill="#191970" stroke="#191970" points="1463.4526,-142.2129 1464.1748,-131.6427 1457.0186,-139.4554 1463.4526,-142.2129"/>
</g>
<!-- Node21 -->
<g id="node17" class="node">
<title>Node21</title>
<polygon fill="none" stroke="#bfbfbf" points="1334.3074,-112.5 1334.3074,-131.5 1384.3074,-131.5 1384.3074,-112.5 1334.3074,-112.5"/>
<text text-anchor="middle" x="1359.3074" y="-119.5" font-family="FreeSans.ttf" font-size="10.00" fill="#000000">cstring</text>
</g>
<!-- Node6&#45;&gt;Node21 -->
<g id="edge19" class="edge">
<title>Node6&#45;&gt;Node21</title>
<path fill="none" stroke="#191970" d="M1429.5015,-168.2455C1416.5818,-159.7337 1397.6143,-147.2375 1382.6522,-137.3801"/>
<polygon fill="#191970" stroke="#191970" points="1384.2198,-134.2216 1373.9436,-131.6427 1380.3687,-140.067 1384.2198,-134.2216"/>
</g>
<!-- Node7&#45;&gt;Node8 -->
<g id="edge8" class="edge">
<title>Node7&#45;&gt;Node8</title>
<path fill="none" stroke="#191970" d="M1787.6232,-56.2455C1793.5253,-48.3761 1801.9816,-37.101 1809.0668,-27.6542"/>
<polygon fill="#191970" stroke="#191970" points="1811.8754,-29.7427 1815.0754,-19.6427 1806.2753,-25.5427 1811.8754,-29.7427"/>
</g>
<!-- Node9 -->
<g id="node10" class="node">
<title>Node9</title>
<polygon fill="none" stroke="#bfbfbf" points="1697.3074,-.5 1697.3074,-19.5 1777.3074,-19.5 1777.3074,-.5 1697.3074,-.5"/>
<text text-anchor="middle" x="1737.3074" y="-7.5" font-family="FreeSans.ttf" font-size="10.00" fill="#000000">CoreExport.h</text>
</g>
<!-- Node7&#45;&gt;Node9 -->
<g id="edge9" class="edge">
<title>Node7&#45;&gt;Node9</title>
<path fill="none" stroke="#191970" d="M1772.8174,-56.2455C1766.7748,-48.3761 1758.1171,-37.101 1750.8633,-27.6542"/>
<polygon fill="#191970" stroke="#191970" points="1753.5779,-25.4426 1744.7116,-19.6427 1748.0259,-29.7058 1753.5779,-25.4426"/>
</g>
<!-- Node10&#45;&gt;Node8 -->
<g id="edge14" class="edge">
<title>Node10&#45;&gt;Node8</title>
<path fill="none" stroke="#191970" d="M1584.9958,-57.0581C1636.021,-49.1506 1711.0534,-36.6164 1785.6074,-19.9824"/>
<polygon fill="#191970" stroke="#191970" points="1786.6601,-23.3329 1795.6442,-17.7172 1785.119,-16.5047 1786.6601,-23.3329"/>
</g>
<!-- Node10&#45;&gt;Node11 -->
<g id="edge11" class="edge">
<title>Node10&#45;&gt;Node11</title>
<path fill="none" stroke="#191970" d="M1494.0519,-56.3733C1463.5012,-46.6526 1416.3261,-31.6423 1383.9732,-21.3482"/>
<polygon fill="#191970" stroke="#191970" points="1385.0339,-18.0129 1374.4434,-18.316 1382.9114,-24.6833 1385.0339,-18.0129"/>
</g>
<!-- Node12 -->
<g id="node13" class="node">
<title>Node12</title>
<polygon fill="none" stroke="#bfbfbf" points="1456.3074,-.5 1456.3074,-19.5 1520.3074,-19.5 1520.3074,-.5 1456.3074,-.5"/>
<text text-anchor="middle" x="1488.3074" y="-7.5" font-family="FreeSans.ttf" font-size="10.00" fill="#000000">algorithm</text>
</g>
<!-- Node10&#45;&gt;Node12 -->
<g id="edge12" class="edge">
<title>Node10&#45;&gt;Node12</title>
<path fill="none" stroke="#191970" d="M1518.0367,-56.2455C1513.081,-48.5367 1506.0244,-37.5598 1500.0298,-28.2348"/>
<polygon fill="#191970" stroke="#191970" points="1502.858,-26.1618 1494.5063,-19.6427 1496.9698,-29.9471 1502.858,-26.1618"/>
</g>
<!-- Node13 -->
<g id="node14" class="node">
<title>Node13</title>
<polygon fill="none" stroke="#bfbfbf" points="1538.3074,-.5 1538.3074,-19.5 1580.3074,-19.5 1580.3074,-.5 1538.3074,-.5"/>
<text text-anchor="middle" x="1559.3074" y="-7.5" font-family="FreeSans.ttf" font-size="10.00" fill="#000000">array</text>
</g>
<!-- Node10&#45;&gt;Node13 -->
<g id="edge13" class="edge">
<title>Node10&#45;&gt;Node13</title>
<path fill="none" stroke="#191970" d="M1530.4039,-56.2455C1535.2219,-48.5367 1542.0825,-37.5598 1547.9106,-28.2348"/>
<polygon fill="#191970" stroke="#191970" points="1550.9487,-29.9777 1553.2807,-19.6427 1545.0127,-26.2677 1550.9487,-29.9777"/>
</g>
<!-- Node22&#45;&gt;Node6 -->
<g id="edge38" class="edge">
<title>Node22&#45;&gt;Node6</title>
<path fill="none" stroke="#191970" d="M978.7085,-291.4708C1008.9847,-282.4546 1055.3823,-268.3507 1095.3074,-255 1133.8398,-242.115 1142.0388,-234.4278 1181.3074,-224 1240.1076,-208.3855 1307.7459,-196.6906 1359.7038,-189.0005"/>
<polygon fill="#191970" stroke="#191970" points="1360.4891,-192.4231 1369.879,-187.5159 1359.4784,-185.4964 1360.4891,-192.4231"/>
</g>
<!-- Node22&#45;&gt;Node19 -->
<g id="edge22" class="edge">
<title>Node22&#45;&gt;Node19</title>
<path fill="none" stroke="#191970" d="M919.0264,-291.4162C898.4837,-283.4612 870.2142,-270.8931 848.3074,-255 801.298,-220.8953 757.529,-167.4523 736.4562,-139.8424"/>
<polygon fill="#191970" stroke="#191970" points="739.016,-137.4229 730.208,-131.5347 733.4216,-141.6304 739.016,-137.4229"/>
</g>
<!-- Node23 -->
<g id="node19" class="node">
<title>Node23</title>
<g id="a_node19"><a xlink:href="GeomVector3_8h.html" target="_top" xlink:title="iDynTree/Core/GeomVector3.h">
<polygon fill="none" stroke="#000000" points="1337.8074,-230 1337.8074,-249 1500.8074,-249 1500.8074,-230 1337.8074,-230"/>
<text text-anchor="middle" x="1419.3074" y="-237" font-family="FreeSans.ttf" font-size="10.00" fill="#000000">iDynTree/Core/GeomVector3.h</text>
</a>
</g>
</g>
<!-- Node22&#45;&gt;Node23 -->
<g id="edge23" class="edge">
<title>Node22&#45;&gt;Node23</title>
<path fill="none" stroke="#191970" d="M1014.8329,-292.0902C1099.8481,-281.0365 1244.7153,-262.2007 1336.044,-250.326"/>
<polygon fill="#191970" stroke="#191970" points="1336.6181,-253.7809 1346.0833,-249.0207 1335.7155,-246.8393 1336.6181,-253.7809"/>
</g>
<!-- Node24 -->
<g id="node20" class="node">
<title>Node24</title>
<g id="a_node20"><a xlink:href="RotationRaw_8h.html" target="_top" xlink:title="iDynTree/Core/RotationRaw.h">
<polygon fill="none" stroke="#000000" points="857.3074,-230 857.3074,-249 1015.3074,-249 1015.3074,-230 857.3074,-230"/>
<text text-anchor="middle" x="936.3074" y="-237" font-family="FreeSans.ttf" font-size="10.00" fill="#000000">iDynTree/Core/RotationRaw.h</text>
</a>
</g>
</g>
<!-- Node22&#45;&gt;Node24 -->
<g id="edge25" class="edge">
<title>Node22&#45;&gt;Node24</title>
<path fill="none" stroke="#191970" d="M944.7449,-291.3906C943.3587,-282.8657 941.2894,-270.1392 939.547,-259.4235"/>
<polygon fill="#191970" stroke="#191970" points="942.9516,-258.5535 937.8919,-249.2449 936.0423,-259.677 942.9516,-258.5535"/>
</g>
<!-- Node23&#45;&gt;Node6 -->
<g id="edge24" class="edge">
<title>Node23&#45;&gt;Node6</title>
<path fill="none" stroke="#191970" d="M1423.2137,-229.8906C1426.752,-221.1862 1432.071,-208.1015 1436.4824,-197.2494"/>
<polygon fill="#191970" stroke="#191970" points="1439.8226,-198.3268 1440.3461,-187.7449 1433.3379,-195.6907 1439.8226,-198.3268"/>
</g>
<!-- Node24&#45;&gt;Node19 -->
<g id="edge37" class="edge">
<title>Node24&#45;&gt;Node19</title>
<path fill="none" stroke="#191970" d="M919.5265,-229.9001C895.2834,-216.0661 849.0121,-189.7921 809.3074,-168 789.8265,-157.3078 767.717,-145.4887 750.7941,-136.5083"/>
<polygon fill="#191970" stroke="#191970" points="751.9637,-133.1671 741.4886,-131.5788 748.6869,-139.3528 751.9637,-133.1671"/>
</g>
<!-- Node24&#45;&gt;Node25 -->
<g id="edge26" class="edge">
<title>Node24&#45;&gt;Node25</title>
<path fill="none" stroke="#191970" d="M965.6824,-229.8906C997.966,-219.3298 1049.9609,-202.3208 1085.5621,-190.6747"/>
<polygon fill="#191970" stroke="#191970" points="1086.7225,-193.9776 1095.1387,-187.5419 1084.5461,-187.3246 1086.7225,-193.9776"/>
</g>
<!-- Node25&#45;&gt;Node7 -->
<g id="edge27" class="edge">
<title>Node25&#45;&gt;Node7</title>
<path fill="none" stroke="#191970" d="M1141.7172,-168.4181C1174.2914,-150.5238 1241.6893,-113.6721 1247.3074,-112 1290.5785,-99.1209 1575.5839,-79.2701 1710.1632,-70.4671"/>
<polygon fill="#191970" stroke="#191970" points="1710.6171,-73.945 1720.3682,-69.8019 1710.1617,-66.9598 1710.6171,-73.945"/>
</g>
<!-- Node25&#45;&gt;Node11 -->
<g id="edge32" class="edge">
<title>Node25&#45;&gt;Node11</title>
<path fill="none" stroke="#191970" d="M1093.1577,-168.4817C1062.0238,-157.3008 1021.1912,-137.0577 1039.3074,-112 1071.9467,-66.8542 1237.6939,-30.7301 1312.0828,-16.522"/>
<polygon fill="#191970" stroke="#191970" points="1312.7701,-19.9542 1321.9497,-14.664 1311.4747,-13.0751 1312.7701,-19.9542"/>
</g>
<!-- Node25&#45;&gt;Node19 -->
<g id="edge34" class="edge">
<title>Node25&#45;&gt;Node19</title>
<path fill="none" stroke="#191970" d="M1055.8287,-168.4369C968.3157,-156.2156 820.3969,-135.5586 755.4796,-126.4929"/>
<polygon fill="#191970" stroke="#191970" points="755.8222,-123.0068 745.4342,-125.09 754.8539,-129.9396 755.8222,-123.0068"/>
</g>
<!-- Node25&#45;&gt;Node20 -->
<g id="edge36" class="edge">
<title>Node25&#45;&gt;Node20</title>
<path fill="none" stroke="#191970" d="M1183.0522,-168.4369C1253.6525,-156.9438 1370.081,-137.9903 1430.0213,-128.2326"/>
<polygon fill="#191970" stroke="#191970" points="1430.8773,-131.6394 1440.1849,-126.5781 1429.7525,-124.7304 1430.8773,-131.6394"/>
</g>
<!-- Node25&#45;&gt;Node21 -->
<g id="edge33" class="edge">
<title>Node25&#45;&gt;Node21</title>
<path fill="none" stroke="#191970" d="M1169.603,-168.4615C1208.3124,-160.1241 1265.6947,-147.327 1324.3069,-132.1545"/>
<polygon fill="#191970" stroke="#191970" points="1325.3114,-135.5097 1334.1042,-129.5988 1323.5445,-128.7363 1325.3114,-135.5097"/>
</g>
<!-- Node26 -->
<g id="node22" class="node">
<title>Node26</title>
<g id="a_node22"><a xlink:href="MatrixView_8h.html" target="_top" xlink:title="iDynTree/Core/MatrixView.h">
<polygon fill="none" stroke="#ff0000" points="1048.8074,-112.5 1048.8074,-131.5 1199.8074,-131.5 1199.8074,-112.5 1048.8074,-112.5"/>
<text text-anchor="middle" x="1124.3074" y="-119.5" font-family="FreeSans.ttf" font-size="10.00" fill="#000000">iDynTree/Core/MatrixView.h</text>
</a>
</g>
</g>
<!-- Node25&#45;&gt;Node26 -->
<g id="edge28" class="edge">
<title>Node25&#45;&gt;Node26</title>
<path fill="none" stroke="#191970" d="M1124.3074,-168.2455C1124.3074,-160.9382 1124.3074,-150.6944 1124.3074,-141.7046"/>
<polygon fill="#191970" stroke="#191970" points="1127.8075,-141.6426 1124.3074,-131.6427 1120.8075,-141.6427 1127.8075,-141.6426"/>
</g>
<!-- Node27 -->
<g id="node23" class="node">
<title>Node27</title>
<polygon fill="none" stroke="#bfbfbf" points="1256.3074,-112.5 1256.3074,-131.5 1316.3074,-131.5 1316.3074,-112.5 1256.3074,-112.5"/>
<text text-anchor="middle" x="1286.3074" y="-119.5" font-family="FreeSans.ttf" font-size="10.00" fill="#000000">iostream</text>
</g>
<!-- Node25&#45;&gt;Node27 -->
<g id="edge35" class="edge">
<title>Node25&#45;&gt;Node27</title>
<path fill="none" stroke="#191970" d="M1152.1562,-168.3733C1178.9777,-159.1016 1219.7201,-145.0178 1249.2672,-134.804"/>
<polygon fill="#191970" stroke="#191970" points="1250.5143,-138.0762 1258.822,-131.5011 1248.2273,-131.4603 1250.5143,-138.0762"/>
</g>
<!-- Node26&#45;&gt;Node7 -->
<g id="edge31" class="edge">
<title>Node26&#45;&gt;Node7</title>
<path fill="none" stroke="#191970" d="M1199.9127,-113.4354C1204.7824,-112.9345 1209.6127,-112.4515 1214.3074,-112 1393.036,-94.8116 1603.928,-78.7979 1710.7604,-70.987"/>
<polygon fill="#191970" stroke="#191970" points="1711.0507,-74.4752 1720.7696,-70.257 1710.5414,-67.4938 1711.0507,-74.4752"/>
</g>
<!-- Node26&#45;&gt;Node10 -->
<g id="edge30" class="edge">
<title>Node26&#45;&gt;Node10</title>
<path fill="none" stroke="#191970" d="M1192.6154,-112.4369C1265.2861,-102.263 1379.7146,-86.243 1453.3729,-75.9308"/>
<polygon fill="#191970" stroke="#191970" points="1454.0691,-79.3676 1463.4872,-74.5148 1453.0985,-72.4352 1454.0691,-79.3676"/>
</g>
<!-- Node26&#45;&gt;Node11 -->
<g id="edge29" class="edge">
<title>Node26&#45;&gt;Node11</title>
<path fill="none" stroke="#191970" d="M1143.4055,-112.4509C1182.9151,-92.6961 1273.7943,-47.2565 1320.0899,-24.1088"/>
<polygon fill="#191970" stroke="#191970" points="1321.8786,-27.1276 1329.2576,-19.5249 1318.7481,-20.8666 1321.8786,-27.1276"/>
</g>
<!-- Node29 -->
<g id="node25" class="node">
<title>Node29</title>
<g id="a_node25"><a xlink:href="SpatialMotionVector_8h.html" target="_top" xlink:title="iDynTree/Core/SpatialMotion\lVector.h">
<polygon fill="none" stroke="#000000" points="1147.8074,-459.5 1147.8074,-489.5 1302.8074,-489.5 1302.8074,-459.5 1147.8074,-459.5"/>
<text text-anchor="start" x="1155.8074" y="-477.5" font-family="FreeSans.ttf" font-size="10.00" fill="#000000">iDynTree/Core/SpatialMotion</text>
<text text-anchor="middle" x="1225.3074" y="-466.5" font-family="FreeSans.ttf" font-size="10.00" fill="#000000">Vector.h</text>
</a>
</g>
</g>
<!-- Node28&#45;&gt;Node29 -->
<g id="edge44" class="edge">
<title>Node28&#45;&gt;Node29</title>
<path fill="none" stroke="#191970" d="M1301.2449,-526.3906C1289.0645,-518.0673 1271.0229,-505.7389 1255.5813,-495.1872"/>
<polygon fill="#191970" stroke="#191970" points="1257.555,-492.2968 1247.3239,-489.5446 1253.6057,-498.0763 1257.555,-492.2968"/>
</g>
<!-- Node29&#45;&gt;Node6 -->
<g id="edge45" class="edge">
<title>Node29&#45;&gt;Node6</title>
<path fill="none" stroke="#191970" d="M1227.3769,-459.2525C1233.9793,-416.3188 1258.3796,-293.0539 1328.3074,-224 1344.4096,-208.099 1366.6845,-197.5157 1387.4137,-190.5578"/>
<polygon fill="#191970" stroke="#191970" points="1388.6194,-193.8479 1397.1155,-187.5181 1386.5265,-187.1681 1388.6194,-193.8479"/>
</g>
<!-- Node29&#45;&gt;Node23 -->
<g id="edge46" class="edge">
<title>Node29&#45;&gt;Node23</title>
<path fill="none" stroke="#191970" d="M1237.7381,-459.4422C1272.0781,-417.8448 1368.1233,-301.5014 1404.8105,-257.0606"/>
<polygon fill="#191970" stroke="#191970" points="1407.6535,-259.1146 1411.3207,-249.1746 1402.2553,-254.6582 1407.6535,-259.1146"/>
</g>
<!-- Node30 -->
<g id="node26" class="node">
<title>Node30</title>
<g id="a_node26"><a xlink:href="SpatialVector_8h.html" target="_top" xlink:title="iDynTree/Core/SpatialVector.h">
<polygon fill="none" stroke="#000000" points="1337.8074,-403.5 1337.8074,-422.5 1498.8074,-422.5 1498.8074,-403.5 1337.8074,-403.5"/>
<text text-anchor="middle" x="1418.3074" y="-410.5" font-family="FreeSans.ttf" font-size="10.00" fill="#000000">iDynTree/Core/SpatialVector.h</text>
</a>
</g>
</g>
<!-- Node29&#45;&gt;Node30 -->
<g id="edge47" class="edge">
<title>Node29&#45;&gt;Node30</title>
<path fill="none" stroke="#191970" d="M1272.5205,-459.4554C1305.1468,-449.059 1348.0478,-435.3884 1378.8515,-425.5727"/>
<polygon fill="#191970" stroke="#191970" points="1379.9339,-428.9013 1388.3993,-422.5303 1377.8086,-422.2317 1379.9339,-428.9013"/>
</g>
<!-- Node30&#45;&gt;Node4 -->
<g id="edge48" class="edge">
<title>Node30&#45;&gt;Node4</title>
<path fill="none" stroke="#191970" d="M1337.6322,-406.3562C1206.1005,-395.5241 947.0874,-374.1936 816.9094,-363.4731"/>
<polygon fill="#191970" stroke="#191970" points="816.8754,-359.9585 806.6218,-362.6259 816.3008,-366.9349 816.8754,-359.9585"/>
</g>
<!-- Node30&#45;&gt;Node7 -->
<g id="edge50" class="edge">
<title>Node30&#45;&gt;Node7</title>
<path fill="none" stroke="#191970" d="M1464.498,-403.426C1567.8366,-380.9729 1812.3164,-321.7517 1859.3074,-255 1899.2969,-198.1941 1832.2618,-118.036 1798.2481,-83.2379"/>
<polygon fill="#191970" stroke="#191970" points="1800.3262,-80.367 1790.7764,-75.7788 1795.3806,-85.3209 1800.3262,-80.367"/>
</g>
<!-- Node30&#45;&gt;Node20 -->
<g id="edge53" class="edge">
<title>Node30&#45;&gt;Node20</title>
<path fill="none" stroke="#191970" d="M1425.9207,-403.4652C1448.9702,-373.8009 1517.3912,-279.6303 1533.3074,-188 1534.8286,-179.2422 1537.3921,-175.8948 1533.3074,-168 1526.2528,-154.365 1513.0879,-143.9036 1500.4411,-136.4282"/>
<polygon fill="#191970" stroke="#191970" points="1501.874,-133.2231 1491.4186,-131.5099 1498.5237,-139.3692 1501.874,-133.2231"/>
</g>
<!-- Node30&#45;&gt;Node22 -->
<g id="edge49" class="edge">
<title>Node30&#45;&gt;Node22</title>
<path fill="none" stroke="#191970" d="M1378.0649,-403.4509C1292.0259,-383.0349 1090.376,-335.1858 996.2931,-312.861"/>
<polygon fill="#191970" stroke="#191970" points="996.9859,-309.4283 986.448,-310.5249 995.3697,-316.2392 996.9859,-309.4283"/>
</g>
<!-- Node30&#45;&gt;Node23 -->
<g id="edge51" class="edge">
<title>Node30&#45;&gt;Node23</title>
<path fill="none" stroke="#191970" d="M1418.3626,-403.4248C1418.5207,-375.999 1418.9775,-296.732 1419.1927,-259.3964"/>
<polygon fill="#191970" stroke="#191970" points="1422.6934,-259.2796 1419.2512,-249.2595 1415.6935,-259.2392 1422.6934,-259.2796"/>
</g>
<!-- Node30&#45;&gt;Node27 -->
<g id="edge52" class="edge">
<title>Node30&#45;&gt;Node27</title>
<path fill="none" stroke="#191970" d="M1411.8667,-403.3961C1395.9308,-379.3066 1354.0859,-314.0154 1328.3074,-255 1311.2604,-215.9739 1297.813,-167.7966 1291.0652,-141.4617"/>
<polygon fill="#191970" stroke="#191970" points="1294.4202,-140.4511 1288.5925,-131.603 1287.6305,-142.1541 1294.4202,-140.4511"/>
</g>
<!-- Node31&#45;&gt;Node10 -->
<g id="edge55" class="edge">
<title>Node31&#45;&gt;Node10</title>
<path fill="none" stroke="#191970" d="M1437.9377,-464.9939C1539.4294,-435.4665 1838.21,-342.0847 1879.3074,-255 1935.7702,-135.3563 1714.1764,-89.2829 1595.2001,-73.4171"/>
<polygon fill="#191970" stroke="#191970" points="1595.4346,-69.9183 1585.0681,-72.1057 1594.5361,-76.8604 1595.4346,-69.9183"/>
</g>
<!-- Node31&#45;&gt;Node19 -->
<g id="edge56" class="edge">
<title>Node31&#45;&gt;Node19</title>
<path fill="none" stroke="#191970" d="M1360.7624,-464.9851C1264.7474,-443.4001 1043.3074,-390.0373 1043.3074,-357 1043.3074,-357 1043.3074,-357 1043.3074,-301 1043.3074,-265.7513 1048.153,-249.9587 1024.3074,-224 987.1173,-183.5142 825.4467,-144.2542 755.6207,-128.8423"/>
<polygon fill="#191970" stroke="#191970" points="756.1389,-125.3731 745.6226,-126.6604 754.6464,-132.2121 756.1389,-125.3731"/>
</g>
<!-- Node32&#45;&gt;Node8 -->
<g id="edge58" class="edge">
<title>Node32&#45;&gt;Node8</title>
<path fill="none" stroke="#191970" d="M429.5192,-531.4739C534.4991,-524.3329 740.2011,-509.2612 914.3074,-490 1014.2024,-478.9487 1038.4947,-470.7708 1138.3074,-459 1301.9521,-439.7016 1346.6094,-459.4438 1507.3074,-423 1578.3331,-406.8925 1592.9698,-392.1808 1661.3074,-367 1809.6216,-312.3496 1993.3074,-397.5625 1993.3074,-239.5 1993.3074,-239.5 1993.3074,-239.5 1993.3074,-122 1993.3074,-58.2538 1909.1195,-28.8233 1858.8863,-16.9366"/>
<polygon fill="#191970" stroke="#191970" points="1859.5499,-13.4985 1849.0262,-14.7241 1858.0172,-20.3287 1859.5499,-13.4985"/>
</g>
<!-- Node32&#45;&gt;Node19 -->
<g id="edge59" class="edge">
<title>Node32&#45;&gt;Node19</title>
<path fill="none" stroke="#191970" d="M348.6017,-526.2291C339.0602,-517.6394 325.9551,-504.3053 318.3074,-490 301.689,-458.9147 299.3074,-448.2487 299.3074,-413 299.3074,-413 299.3074,-413 299.3074,-239.5 299.3074,-186.2997 346.0969,-188.2137 395.3074,-168 448.5557,-146.1277 619.1507,-130.3303 690.9626,-124.4847"/>
<polygon fill="#191970" stroke="#191970" points="691.5232,-127.9511 701.2118,-123.6636 690.9642,-120.9734 691.5232,-127.9511"/>
</g>
<!-- Node33 -->
<g id="node29" class="node">
<title>Node33</title>
<polygon fill="none" stroke="#bfbfbf" points="327.3074,-465 327.3074,-484 413.3074,-484 413.3074,-465 327.3074,-465"/>
<text text-anchor="middle" x="370.3074" y="-472" font-family="FreeSans.ttf" font-size="10.00" fill="#000000">ModelExport.h</text>
</g>
<!-- Node32&#45;&gt;Node33 -->
<g id="edge60" class="edge">
<title>Node32&#45;&gt;Node33</title>
<path fill="none" stroke="#191970" d="M361.8699,-526.3906C363.2561,-517.8657 365.3254,-505.1392 367.0678,-494.4235"/>
<polygon fill="#191970" stroke="#191970" points="370.5725,-494.677 368.7229,-484.2449 363.6632,-493.5535 370.5725,-494.677"/>
</g>
<!-- Node34&#45;&gt;Node3 -->
<g id="edge62" class="edge">
<title>Node34&#45;&gt;Node3</title>
<path fill="none" stroke="#191970" d="M920.9825,-582.4876C898.8989,-575.6836 873.3451,-564.3751 856.3074,-546 843.1258,-531.7837 837.1636,-510.0944 834.4792,-494.3319"/>
<polygon fill="#191970" stroke="#191970" points="837.8988,-493.5124 833.0475,-484.0935 830.9662,-494.4819 837.8988,-493.5124"/>
</g>
<!-- Node34&#45;&gt;Node28 -->
<g id="edge63" class="edge">
<title>Node34&#45;&gt;Node28</title>
<path fill="none" stroke="#191970" d="M1025.0769,-582.4369C1086.2351,-572.6516 1181.1934,-557.4582 1245.7024,-547.1368"/>
<polygon fill="#191970" stroke="#191970" points="1246.463,-550.5597 1255.7845,-545.5237 1245.3571,-543.6476 1246.463,-550.5597"/>
</g>
<!-- Node34&#45;&gt;Node32 -->
<g id="edge74" class="edge">
<title>Node34&#45;&gt;Node32</title>
<path fill="none" stroke="#191970" d="M890.5157,-585.0771C775.6246,-574.4426 556.7151,-554.1799 439.3288,-543.3144"/>
<polygon fill="#191970" stroke="#191970" points="439.6088,-539.8254 429.3287,-542.3888 438.9635,-546.7956 439.6088,-539.8254"/>
</g>
<!-- Node35 -->
<g id="node31" class="node">
<title>Node35</title>
<g id="a_node31"><a xlink:href="SpatialAcc_8h.html" target="_top" xlink:title="iDynTree/Core/SpatialAcc.h">
<polygon fill="none" stroke="#000000" points="898.3074,-526.5 898.3074,-545.5 1046.3074,-545.5 1046.3074,-526.5 898.3074,-526.5"/>
<text text-anchor="middle" x="972.3074" y="-533.5" font-family="FreeSans.ttf" font-size="10.00" fill="#000000">iDynTree/Core/SpatialAcc.h</text>
</a>
</g>
</g>
<!-- Node34&#45;&gt;Node35 -->
<g id="edge64" class="edge">
<title>Node34&#45;&gt;Node35</title>
<path fill="none" stroke="#191970" d="M966.5267,-582.2455C967.4401,-574.9382 968.7206,-564.6944 969.8443,-555.7046"/>
<polygon fill="#191970" stroke="#191970" points="973.3346,-555.9996 971.1021,-545.6427 966.3887,-555.1313 973.3346,-555.9996"/>
</g>
<!-- Node36 -->
<g id="node32" class="node">
<title>Node36</title>
<g id="a_node32"><a xlink:href="Wrench_8h.html" target="_top" xlink:title="iDynTree/Core/Wrench.h">
<polygon fill="none" stroke="#000000" points="1064.8074,-526.5 1064.8074,-545.5 1197.8074,-545.5 1197.8074,-526.5 1064.8074,-526.5"/>
<text text-anchor="middle" x="1131.3074" y="-533.5" font-family="FreeSans.ttf" font-size="10.00" fill="#000000">iDynTree/Core/Wrench.h</text>
</a>
</g>
</g>
<!-- Node34&#45;&gt;Node36 -->
<g id="edge66" class="edge">
<title>Node34&#45;&gt;Node36</title>
<path fill="none" stroke="#191970" d="M993.8438,-582.3733C1021.3276,-573.1016 1063.076,-559.0178 1093.3526,-548.804"/>
<polygon fill="#191970" stroke="#191970" points="1094.7868,-552.0141 1103.1434,-545.5011 1092.5492,-545.3813 1094.7868,-552.0141"/>
</g>
<!-- Node38 -->
<g id="node34" class="node">
<title>Node38</title>
<g id="a_node34"><a xlink:href="ArticulatedBodyInertia_8h.html" target="_top" xlink:title="iDynTree/Core/Articulated\lBodyInertia.h">
<polygon fill="none" stroke="#000000" points="485.8074,-224.5 485.8074,-254.5 626.8074,-254.5 626.8074,-224.5 485.8074,-224.5"/>
<text text-anchor="start" x="493.8074" y="-242.5" font-family="FreeSans.ttf" font-size="10.00" fill="#000000">iDynTree/Core/Articulated</text>
<text text-anchor="middle" x="556.3074" y="-231.5" font-family="FreeSans.ttf" font-size="10.00" fill="#000000">BodyInertia.h</text>
</a>
</g>
</g>
<!-- Node34&#45;&gt;Node38 -->
<g id="edge71" class="edge">
<title>Node34&#45;&gt;Node38</title>
<path fill="none" stroke="#191970" d="M934.0143,-582.4549C908.2793,-574.1424 871.1591,-561.0788 840.3074,-546 797.9812,-525.313 785.2807,-521.5646 750.3074,-490 670.68,-418.1335 599.7982,-310.4071 570.5396,-263.1492"/>
<polygon fill="#191970" stroke="#191970" points="573.4657,-261.2255 565.2526,-254.5324 567.4992,-264.8864 573.4657,-261.2255"/>
</g>
<!-- Node34&#45;&gt;Node39 -->
<g id="edge75" class="edge">
<title>Node34&#45;&gt;Node39</title>
<path fill="none" stroke="#191970" d="M926.2898,-582.4619C888.8224,-573.2641 830.6462,-558.8812 780.3074,-546 778.8617,-545.6301 777.3856,-545.2503 775.8949,-544.8652"/>
<polygon fill="#191970" stroke="#191970" points="776.5705,-541.4244 766.0112,-542.2911 774.8062,-548.1985 776.5705,-541.4244"/>
</g>
<!-- Node35&#45;&gt;Node29 -->
<g id="edge65" class="edge">
<title>Node35&#45;&gt;Node29</title>
<path fill="none" stroke="#191970" d="M1011.5611,-526.4581C1049.3187,-517.2799 1107.2953,-503.1867 1153.3459,-491.9926"/>
<polygon fill="#191970" stroke="#191970" points="1154.3872,-495.3415 1163.2775,-489.5784 1152.7337,-488.5396 1154.3872,-495.3415"/>
</g>
<!-- Node37 -->
<g id="node33" class="node">
<title>Node37</title>
<g id="a_node33"><a xlink:href="SpatialForceVector_8h.html" target="_top" xlink:title="iDynTree/Core/SpatialForce\lVector.h">
<polygon fill="none" stroke="#000000" points="1506.3074,-459.5 1506.3074,-489.5 1654.3074,-489.5 1654.3074,-459.5 1506.3074,-459.5"/>
<text text-anchor="start" x="1514.3074" y="-477.5" font-family="FreeSans.ttf" font-size="10.00" fill="#000000">iDynTree/Core/SpatialForce</text>
<text text-anchor="middle" x="1580.3074" y="-466.5" font-family="FreeSans.ttf" font-size="10.00" fill="#000000">Vector.h</text>
</a>
</g>
</g>
<!-- Node36&#45;&gt;Node37 -->
<g id="edge67" class="edge">
<title>Node36&#45;&gt;Node37</title>
<path fill="none" stroke="#191970" d="M1198.0715,-528.7445C1269.2316,-520.7495 1385.4295,-506.9462 1496.1355,-489.9684"/>
<polygon fill="#191970" stroke="#191970" points="1496.7943,-493.4082 1506.1427,-488.4225 1495.7256,-486.4903 1496.7943,-493.4082"/>
</g>
<!-- Node37&#45;&gt;Node6 -->
<g id="edge68" class="edge">
<title>Node37&#45;&gt;Node6</title>
<path fill="none" stroke="#191970" d="M1579.481,-459.4788C1576.537,-418.1557 1563.5968,-300.7641 1509.3074,-224 1500.1218,-211.0118 1486.0611,-200.4057 1473.3638,-192.6646"/>
<polygon fill="#191970" stroke="#191970" points="1474.8625,-189.4891 1464.4483,-187.541 1471.3746,-195.5583 1474.8625,-189.4891"/>
</g>
<!-- Node37&#45;&gt;Node23 -->
<g id="edge69" class="edge">
<title>Node37&#45;&gt;Node23</title>
<path fill="none" stroke="#191970" d="M1569.9912,-459.4422C1541.6113,-418.0181 1462.4483,-302.4696 1431.7214,-257.6199"/>
<polygon fill="#191970" stroke="#191970" points="1434.4748,-255.4461 1425.9355,-249.1746 1428.7001,-259.4024 1434.4748,-255.4461"/>
</g>
<!-- Node37&#45;&gt;Node30 -->
<g id="edge70" class="edge">
<title>Node37&#45;&gt;Node30</title>
<path fill="none" stroke="#191970" d="M1540.6777,-459.4554C1513.7662,-449.239 1478.5263,-435.8609 1452.778,-426.0861"/>
<polygon fill="#191970" stroke="#191970" points="1454.0029,-422.8074 1443.4117,-422.5303 1451.5184,-429.3517 1454.0029,-422.8074"/>
</g>
<!-- Node38&#45;&gt;Node19 -->
<g id="edge73" class="edge">
<title>Node38&#45;&gt;Node19</title>
<path fill="none" stroke="#191970" d="M577.7978,-224.3795C609.6851,-201.9439 669.2123,-160.0609 701.3608,-137.4415"/>
<polygon fill="#191970" stroke="#191970" points="703.4921,-140.2215 709.6566,-131.6046 699.4641,-134.4965 703.4921,-140.2215"/>
</g>
<!-- Node38&#45;&gt;Node25 -->
<g id="edge72" class="edge">
<title>Node38&#45;&gt;Node25</title>
<path fill="none" stroke="#191970" d="M626.9145,-225.4331C630.0846,-224.9236 633.2266,-224.4426 636.3074,-224 774.2024,-204.1903 935.2949,-190.9054 1033.5264,-183.9013"/>
<polygon fill="#191970" stroke="#191970" points="1033.9871,-187.3775 1043.7155,-183.1812 1033.4936,-180.395 1033.9871,-187.3775"/>
</g>
<!-- Node40&#45;&gt;Node6 -->
<g id="edge77" class="edge">
<title>Node40&#45;&gt;Node6</title>
<path fill="none" stroke="#191970" d="M1622.0182,-583.3407C1706.7293,-569.77 1828.2192,-536.51 1796.3074,-459 1740.313,-322.9963 1686.393,-304.5129 1563.3074,-224 1540.8439,-209.3061 1512.9808,-198.2156 1489.8643,-190.6098"/>
<polygon fill="#191970" stroke="#191970" points="1490.8679,-187.2563 1480.2775,-187.5631 1488.7477,-193.9275 1490.8679,-187.2563"/>
</g>
<!-- Node40&#45;&gt;Node31 -->
<g id="edge78" class="edge">
<title>Node40&#45;&gt;Node31</title>
<path fill="none" stroke="#191970" d="M1534.6869,-582.3845C1510.3477,-562.2446 1453.7899,-515.445 1423.7952,-490.6255"/>
<polygon fill="#191970" stroke="#191970" points="1426.0242,-487.927 1416.0884,-484.2484 1421.5615,-493.3201 1426.0242,-487.927"/>
</g>
<!-- Node40&#45;&gt;Node37 -->
<g id="edge79" class="edge">
<title>Node40&#45;&gt;Node37</title>
<path fill="none" stroke="#191970" d="M1590.3796,-582.4185C1624.5484,-573.9919 1667.8005,-560.788 1678.3074,-546 1694.1025,-523.769 1668.8468,-505.7346 1640.0268,-493.339"/>
<polygon fill="#191970" stroke="#191970" points="1641.1743,-490.0276 1630.5919,-489.5145 1638.5445,-496.5149 1641.1743,-490.0276"/>
</g>
<!-- Node40&#45;&gt;Node39 -->
<g id="edge80" class="edge">
<title>Node40&#45;&gt;Node39</title>
<path fill="none" stroke="#191970" d="M1470.669,-586.7317C1301.0525,-574.9176 895.8132,-546.6919 776.1365,-538.3563"/>
<polygon fill="#191970" stroke="#191970" points="776.3144,-534.8603 766.0953,-537.6569 775.8279,-541.8433 776.3144,-534.8603"/>
</g>
<!-- Node41&#45;&gt;Node3 -->
<g id="edge92" class="edge">
<title>Node41&#45;&gt;Node3</title>
<path fill="none" stroke="#191970" d="M320.8511,-705.4496C344.9198,-697.8337 377.1001,-685.6723 402.3074,-669 447.6553,-639.0064 441.8719,-610.2806 488.3074,-582 575.0738,-529.1568 690.1541,-500.1014 762.7314,-485.916"/>
<polygon fill="#191970" stroke="#191970" points="763.5188,-489.329 772.6829,-484.0122 762.2034,-482.4536 763.5188,-489.329"/>
</g>
<!-- Node41&#45;&gt;Node32 -->
<g id="edge93" class="edge">
<title>Node41&#45;&gt;Node32</title>
<path fill="none" stroke="#191970" d="M278.9255,-705.4183C272.5801,-696.5336 263.9013,-682.6624 260.3074,-669 256.8024,-655.6755 256.4248,-651.2194 260.3074,-638 268.6453,-609.611 275.9349,-603.4574 296.3074,-582 307.6036,-570.1022 322.3573,-559.2588 334.8519,-551.092"/>
<polygon fill="#191970" stroke="#191970" points="336.8886,-553.9452 343.469,-545.6416 333.1467,-548.0293 336.8886,-553.9452"/>
</g>
<!-- Node41&#45;&gt;Node39 -->
<g id="edge101" class="edge">
<title>Node41&#45;&gt;Node39</title>
<path fill="none" stroke="#191970" d="M336.0023,-705.4611C408.7141,-690.2596 547.0911,-656.5585 654.3074,-602 680.7819,-588.5281 707.5725,-567.0612 724.5211,-552.2886"/>
<polygon fill="#191970" stroke="#191970" points="726.855,-554.8969 732.0062,-545.6387 722.2058,-549.6638 726.855,-554.8969"/>
</g>
<!-- Node42 -->
<g id="node38" class="node">
<title>Node42</title>
<g id="a_node38"><a xlink:href="IJoint_8h.html" target="_top" xlink:title="iDynTree/Model/IJoint.h">
<polygon fill="none" stroke="#000000" points="85.3074,-644 85.3074,-663 213.3074,-663 213.3074,-644 85.3074,-644"/>
<text text-anchor="middle" x="149.3074" y="-651" font-family="FreeSans.ttf" font-size="10.00" fill="#000000">iDynTree/Model/IJoint.h</text>
</a>
</g>
</g>
<!-- Node41&#45;&gt;Node42 -->
<g id="edge83" class="edge">
<title>Node41&#45;&gt;Node42</title>
<path fill="none" stroke="#191970" d="M264.9012,-705.3906C242.0791,-695.1457 205.7395,-678.8326 179.9017,-667.2339"/>
<polygon fill="#191970" stroke="#191970" points="181.1197,-663.9443 170.5633,-663.0419 178.2529,-670.3303 181.1197,-663.9443"/>
</g>
<!-- Node43 -->
<g id="node39" class="node">
<title>Node43</title>
<g id="a_node39"><a xlink:href="Link_8h.html" target="_top" xlink:title="iDynTree/Model/Link.h">
<polygon fill="none" stroke="#000000" points="269.3074,-644 269.3074,-663 393.3074,-663 393.3074,-644 269.3074,-644"/>
<text text-anchor="middle" x="331.3074" y="-651" font-family="FreeSans.ttf" font-size="10.00" fill="#000000">iDynTree/Model/Link.h</text>
</a>
</g>
</g>
<!-- Node41&#45;&gt;Node43 -->
<g id="edge85" class="edge">
<title>Node41&#45;&gt;Node43</title>
<path fill="none" stroke="#191970" d="M293.3387,-705.3906C299.9704,-696.3273 310.077,-682.5149 318.1961,-671.4188"/>
<polygon fill="#191970" stroke="#191970" points="321.0965,-673.382 324.177,-663.2449 315.4473,-669.2484 321.0965,-673.382"/>
</g>
<!-- Node48 -->
<g id="node41" class="node">
<title>Node48</title>
<g id="a_node41"><a xlink:href="SolidShapes_8h.html" target="_top" xlink:title="iDynTree/Model/SolidShapes.h">
<polygon fill="none" stroke="#000000" points="11.8074,-582.5 11.8074,-601.5 174.8074,-601.5 174.8074,-582.5 11.8074,-582.5"/>
<text text-anchor="middle" x="93.3074" y="-589.5" font-family="FreeSans.ttf" font-size="10.00" fill="#000000">iDynTree/Model/SolidShapes.h</text>
</a>
</g>
</g>
<!-- Node41&#45;&gt;Node48 -->
<g id="edge94" class="edge">
<title>Node41&#45;&gt;Node48</title>
<path fill="none" stroke="#191970" d="M219.5658,-709.365C165.0215,-703.2121 94.1191,-691.1356 76.3074,-669 62.9632,-652.4164 72.0996,-627.5729 81.3314,-610.6205"/>
<polygon fill="#191970" stroke="#191970" points="84.543,-612.0647 86.6087,-601.6732 78.5136,-608.5084 84.543,-612.0647"/>
</g>
<!-- Node49 -->
<g id="node42" class="node">
<title>Node49</title>
<polygon fill="none" stroke="#bfbfbf" points="21.8074,-526.5 21.8074,-545.5 70.8074,-545.5 70.8074,-526.5 21.8074,-526.5"/>
<text text-anchor="middle" x="46.3074" y="-533.5" font-family="FreeSans.ttf" font-size="10.00" fill="#000000">cstdlib</text>
</g>
<!-- Node41&#45;&gt;Node49 -->
<g id="edge100" class="edge">
<title>Node41&#45;&gt;Node49</title>
<path fill="none" stroke="#191970" d="M219.7168,-705.525C164.9276,-696.9207 92.2294,-683.4048 66.3074,-669 30.3117,-648.9972 17.6298,-640.2234 2.3074,-602 -5.1288,-583.4495 10.0063,-564.721 24.5114,-551.9778"/>
<polygon fill="#191970" stroke="#191970" points="26.8378,-554.5966 32.3577,-545.5532 22.4031,-549.1805 26.8378,-554.5966"/>
</g>
<!-- Node42&#45;&gt;Node32 -->
<g id="edge84" class="edge">
<title>Node42&#45;&gt;Node32</title>
<path fill="none" stroke="#191970" d="M157.4563,-643.8206C170.68,-628.671 198.2719,-599.3049 227.3074,-582 252.5983,-566.9269 283.5489,-555.8517 309.2273,-548.3504"/>
<polygon fill="#191970" stroke="#191970" points="310.475,-551.6351 319.1489,-545.5511 308.5742,-544.8981 310.475,-551.6351"/>
</g>
<!-- Node43&#45;&gt;Node32 -->
<g id="edge91" class="edge">
<title>Node43&#45;&gt;Node32</title>
<path fill="none" stroke="#191970" d="M322.2432,-643.5944C310.6081,-629.6136 293.0737,-603.4092 303.3074,-582 309.4522,-569.1449 321.1373,-558.7306 332.3359,-551.0832"/>
<polygon fill="#191970" stroke="#191970" points="334.5115,-553.8488 341.0974,-545.5495 330.7735,-547.9304 334.5115,-553.8488"/>
</g>
<!-- Node44 -->
<g id="node40" class="node">
<title>Node44</title>
<g id="a_node40"><a xlink:href="SpatialInertia_8h.html" target="_top" xlink:title="iDynTree/Core/SpatialInertia.h">
<polygon fill="none" stroke="#ff0000" points="1095.3074,-582.5 1095.3074,-601.5 1257.3074,-601.5 1257.3074,-582.5 1095.3074,-582.5"/>
<text text-anchor="middle" x="1176.3074" y="-589.5" font-family="FreeSans.ttf" font-size="10.00" fill="#000000">iDynTree/Core/SpatialInertia.h</text>
</a>
</g>
</g>
<!-- Node43&#45;&gt;Node44 -->
<g id="edge86" class="edge">
<title>Node43&#45;&gt;Node44</title>
<path fill="none" stroke="#191970" d="M393.6563,-649.1536C518.1231,-640.4477 806.2511,-620.1482 1048.3074,-602 1060.1158,-601.1147 1072.5355,-600.1661 1084.8042,-599.2188"/>
<polygon fill="#191970" stroke="#191970" points="1085.3579,-602.6865 1095.0577,-598.4247 1084.8173,-595.7074 1085.3579,-602.6865"/>
</g>
<!-- Node44&#45;&gt;Node6 -->
<g id="edge87" class="edge">
<title>Node44&#45;&gt;Node6</title>
<path fill="none" stroke="#191970" d="M1186.6129,-582.2523C1199.2691,-569.0565 1217.7337,-544.9779 1206.3074,-526 1188.6688,-496.7039 1155.946,-519.2961 1138.3074,-490 1131.2007,-478.1965 1133.3126,-471.8405 1138.3074,-459 1146.176,-438.7714 1158.0551,-440.1898 1171.3074,-423 1235.5145,-339.716 1215.7949,-287.9095 1299.3074,-224 1320.7854,-207.5636 1348.2827,-196.9162 1373.5468,-190.0565"/>
<polygon fill="#191970" stroke="#191970" points="1374.6485,-193.3875 1383.4704,-187.5203 1372.9151,-186.6055 1374.6485,-193.3875"/>
</g>
<!-- Node44&#45;&gt;Node28 -->
<g id="edge88" class="edge">
<title>Node44&#45;&gt;Node28</title>
<path fill="none" stroke="#191970" d="M1200.2024,-582.3733C1222.8156,-573.2629 1256.9616,-559.5062 1282.1947,-549.3404"/>
<polygon fill="#191970" stroke="#191970" points="1283.7567,-552.4845 1291.7243,-545.5011 1281.1408,-545.9917 1283.7567,-552.4845"/>
</g>
<!-- Node44&#45;&gt;Node35 -->
<g id="edge89" class="edge">
<title>Node44&#45;&gt;Node35</title>
<path fill="none" stroke="#191970" d="M1141.2386,-582.3733C1106.8759,-572.9404 1054.3682,-558.5265 1017.0223,-548.2747"/>
<polygon fill="#191970" stroke="#191970" points="1017.4884,-544.7732 1006.9186,-545.5011 1015.6354,-551.5235 1017.4884,-544.7732"/>
</g>
<!-- Node44&#45;&gt;Node36 -->
<g id="edge90" class="edge">
<title>Node44&#45;&gt;Node36</title>
<path fill="none" stroke="#191970" d="M1168.469,-582.2455C1162.1454,-574.3761 1153.085,-563.101 1145.4938,-553.6542"/>
<polygon fill="#191970" stroke="#191970" points="1148.0482,-551.2454 1139.056,-545.6427 1142.5916,-555.6302 1148.0482,-551.2454"/>
</g>
<!-- Node48&#45;&gt;Node3 -->
<g id="edge98" class="edge">
<title>Node48&#45;&gt;Node3</title>
<path fill="none" stroke="#191970" d="M115.204,-582.3868C149.9053,-567.6057 219.9947,-539.5857 282.3074,-526 369.0646,-507.0847 618.0851,-488.5878 749.2314,-479.801"/>
<polygon fill="#191970" stroke="#191970" points="749.4913,-483.2915 759.2363,-479.1342 749.0257,-476.307 749.4913,-483.2915"/>
</g>
<!-- Node48&#45;&gt;Node19 -->
<g id="edge96" class="edge">
<title>Node48&#45;&gt;Node19</title>
<path fill="none" stroke="#191970" d="M98.1788,-582.2187C107.5801,-562.41 127.3074,-515.9105 127.3074,-474.5 127.3074,-474.5 127.3074,-474.5 127.3074,-239.5 127.3074,-142.1664 239.4303,-189.7293 334.3074,-168 464.2894,-138.2308 623.3713,-127.0777 690.7164,-123.4878"/>
<polygon fill="#191970" stroke="#191970" points="691.2821,-126.9635 701.09,-122.9566 690.924,-119.9726 691.2821,-126.9635"/>
</g>
<!-- Node48&#45;&gt;Node32 -->
<g id="edge99" class="edge">
<title>Node48&#45;&gt;Node32</title>
<path fill="none" stroke="#191970" d="M138.903,-582.4369C184.8859,-572.7925 255.9162,-557.8948 305.068,-547.5858"/>
<polygon fill="#191970" stroke="#191970" points="305.8313,-551.0019 314.8999,-545.5237 304.3944,-544.151 305.8313,-551.0019"/>
</g>
<!-- Node48&#45;&gt;Node39 -->
<g id="edge97" class="edge">
<title>Node48&#45;&gt;Node39</title>
<path fill="none" stroke="#191970" d="M174.8466,-584.9643C318.2266,-572.5925 609.6806,-547.4439 708.5938,-538.909"/>
<polygon fill="#191970" stroke="#191970" points="708.9607,-542.3905 718.6228,-538.0437 708.3589,-535.4164 708.9607,-542.3905"/>
</g>
<!-- Node48&#45;&gt;Node49 -->
<g id="edge95" class="edge">
<title>Node48&#45;&gt;Node49</title>
<path fill="none" stroke="#191970" d="M85.1206,-582.2455C78.4485,-574.2958 68.8595,-562.8706 60.8821,-553.3656"/>
<polygon fill="#191970" stroke="#191970" points="63.51,-551.0524 54.4004,-545.6427 58.1482,-555.5525 63.51,-551.0524"/>
</g>
<!-- Node50&#45;&gt;Node32 -->
<g id="edge103" class="edge">
<title>Node50&#45;&gt;Node32</title>
<path fill="none" stroke="#191970" d="M535.0352,-582.3733C499.3416,-572.9001 444.7195,-558.4032 406.0623,-548.1435"/>
<polygon fill="#191970" stroke="#191970" points="406.6695,-544.6835 396.1063,-545.5011 404.8738,-551.4493 406.6695,-544.6835"/>
</g>
<!-- Node50&#45;&gt;Node39 -->
<g id="edge104" class="edge">
<title>Node50&#45;&gt;Node39</title>
<path fill="none" stroke="#191970" d="M600.7033,-582.3733C630.8614,-572.4969 677.6928,-557.1603 709.1534,-546.8575"/>
<polygon fill="#191970" stroke="#191970" points="710.373,-550.141 718.7871,-543.7026 708.1944,-543.4887 710.373,-550.141"/>
</g>
<!-- Node51&#45;&gt;Node32 -->
<g id="edge109" class="edge">
<title>Node51&#45;&gt;Node32</title>
<path fill="none" stroke="#191970" d="M673.2649,-647.3365C571.4741,-638.4205 401.1112,-620.9084 379.3074,-602 366.2427,-590.6702 361.8829,-570.9947 360.5581,-556.066"/>
<polygon fill="#191970" stroke="#191970" points="364.0394,-555.6041 360.0426,-545.7921 357.0482,-555.9549 364.0394,-555.6041"/>
</g>
<!-- Node51&#45;&gt;Node34 -->
<g id="edge110" class="edge">
<title>Node51&#45;&gt;Node34</title>
<path fill="none" stroke="#191970" d="M783.0574,-643.8906C820.5455,-633.2169 881.1671,-615.9566 922.096,-604.3033"/>
<polygon fill="#191970" stroke="#191970" points="923.1351,-607.6466 931.7944,-601.5419 921.2182,-600.9141 923.1351,-607.6466"/>
</g>
<!-- Node51&#45;&gt;Node40 -->
<g id="edge111" class="edge">
<title>Node51&#45;&gt;Node40</title>
<path fill="none" stroke="#191970" d="M818.5853,-643.986C835.7897,-641.8198 854.2011,-639.6681 871.3074,-638 1082.7324,-617.3829 1332.3106,-602.9383 1460.6176,-596.2346"/>
<polygon fill="#191970" stroke="#191970" points="1460.9668,-599.7212 1470.7717,-595.707 1460.6035,-592.7307 1460.9668,-599.7212"/>
</g>
<!-- Node52 -->
<g id="node45" class="node">
<title>Node52</title>
<g id="a_node45"><a xlink:href="MatrixDynSize_8h.html" target="_top" xlink:title="iDynTree/Core/MatrixDynSize.h">
<polygon fill="none" stroke="#000000" points="431.8074,-465 431.8074,-484 598.8074,-484 598.8074,-465 431.8074,-465"/>
<text text-anchor="middle" x="515.3074" y="-472" font-family="FreeSans.ttf" font-size="10.00" fill="#000000">iDynTree/Core/MatrixDynSize.h</text>
</a>
</g>
</g>
<!-- Node51&#45;&gt;Node52 -->
<g id="edge106" class="edge">
<title>Node51&#45;&gt;Node52</title>
<path fill="none" stroke="#191970" d="M673.054,-648.9455C604.5755,-643.0743 511.3662,-630.0533 488.3074,-602 462.2177,-570.2593 486.7259,-519.3957 503.1775,-492.5089"/>
<polygon fill="#191970" stroke="#191970" points="506.1343,-494.3816 508.5645,-484.0693 500.2338,-490.6154 506.1343,-494.3816"/>
</g>
<!-- Node52&#45;&gt;Node19 -->
<g id="edge107" class="edge">
<title>Node52&#45;&gt;Node19</title>
<path fill="none" stroke="#191970" d="M471.9045,-464.9408C420.951,-450.8612 343.3074,-419.2017 343.3074,-357 343.3074,-357 343.3074,-357 343.3074,-239.5 343.3074,-166.9317 599.4484,-134.3203 691.1424,-124.9709"/>
<polygon fill="#191970" stroke="#191970" points="691.6293,-128.4399 701.2345,-123.9688 690.9376,-121.4742 691.6293,-128.4399"/>
</g>
<!-- Node52&#45;&gt;Node26 -->
<g id="edge108" class="edge">
<title>Node52&#45;&gt;Node26</title>
<path fill="none" stroke="#191970" d="M506.7493,-464.9284C490.6156,-445.855 457.3074,-401.1334 457.3074,-357 457.3074,-357 457.3074,-357 457.3074,-301 457.3074,-265.7513 450.3369,-247.8328 476.3074,-224 556.9248,-150.0185 881.6104,-129.6311 1038.5435,-124.0636"/>
<polygon fill="#191970" stroke="#191970" points="1038.7591,-127.5584 1048.6334,-123.7179 1038.5194,-120.5625 1038.7591,-127.5584"/>
</g>
<!-- Node53&#45;&gt;Node3 -->
<g id="edge121" class="edge">
<title>Node53&#45;&gt;Node3</title>
<path fill="none" stroke="#191970" d="M1508.6538,-529.4476C1364.1173,-517.7052 1062.4114,-493.1941 915.826,-481.2852"/>
<polygon fill="#191970" stroke="#191970" points="915.7948,-477.7712 905.5442,-480.4499 915.228,-484.7482 915.7948,-477.7712"/>
</g>
<!-- Node53&#45;&gt;Node6 -->
<g id="edge116" class="edge">
<title>Node53&#45;&gt;Node6</title>
<path fill="none" stroke="#191970" d="M1617.7455,-526.3621C1634.2353,-519.1374 1653.6064,-507.4529 1663.3074,-490 1670.0011,-477.9575 1666.7514,-472.3404 1663.3074,-459 1633.4714,-343.4287 1618.8917,-307.2 1533.3074,-224 1518.7861,-209.8832 1499.0626,-199.0918 1481.8732,-191.5212"/>
<polygon fill="#191970" stroke="#191970" points="1483.2089,-188.2861 1472.6334,-187.646 1480.5015,-194.7413 1483.2089,-188.2861"/>
</g>
<!-- Node53&#45;&gt;Node7 -->
<g id="edge122" class="edge">
<title>Node53&#45;&gt;Node7</title>
<path fill="none" stroke="#191970" d="M1670.0188,-528.3918C1721.0753,-521.719 1780.3552,-509.8862 1796.3074,-490 1820.5086,-459.8304 1775.6616,-436.8856 1794.3074,-403 1835.144,-328.7862 1955.3074,-385.7072 1955.3074,-301 1955.3074,-301 1955.3074,-301 1955.3074,-178 1955.3074,-121.8638 1890.6353,-92.589 1839.9208,-78.2624"/>
<polygon fill="#191970" stroke="#191970" points="1840.553,-74.8082 1829.9873,-75.5928 1838.7362,-81.5683 1840.553,-74.8082"/>
</g>
<!-- Node53&#45;&gt;Node8 -->
<g id="edge113" class="edge">
<title>Node53&#45;&gt;Node8</title>
<path fill="none" stroke="#191970" d="M1653.7124,-526.4241C1699.1898,-518.7963 1761.2328,-506.6313 1814.3074,-490 1886.3124,-467.4367 1914.6279,-473.9276 1970.3074,-423 2038.6862,-360.4568 2069.3074,-332.1677 2069.3074,-239.5 2069.3074,-239.5 2069.3074,-239.5 2069.3074,-122 2069.3074,-81.7538 2042.0286,-76.3518 2007.3074,-56 1960.7209,-28.6934 1898.3692,-17.5087 1859.2719,-12.9876"/>
<polygon fill="#191970" stroke="#191970" points="1859.2082,-9.461 1848.8935,-11.8812 1858.4661,-16.4216 1859.2082,-9.461"/>
</g>
<!-- Node53&#45;&gt;Node25 -->
<g id="edge118" class="edge">
<title>Node53&#45;&gt;Node25</title>
<path fill="none" stroke="#191970" d="M1508.3374,-532.7421C1386.0683,-527.0829 1165.6017,-513.711 1138.3074,-490 1111.6974,-466.8834 1119.3074,-448.2487 1119.3074,-413 1119.3074,-413 1119.3074,-413 1119.3074,-301 1119.3074,-264.4692 1121.5365,-221.8859 1123.0179,-197.6186"/>
<polygon fill="#191970" stroke="#191970" points="1126.5156,-197.7647 1123.6537,-187.5638 1119.5296,-197.3229 1126.5156,-197.7647"/>
</g>
<!-- Node53&#45;&gt;Node29 -->
<g id="edge119" class="edge">
<title>Node53&#45;&gt;Node29</title>
<path fill="none" stroke="#191970" d="M1530.1539,-526.4641C1476.1556,-517.702 1393.8418,-504.2028 1313.4204,-490.3535"/>
<polygon fill="#191970" stroke="#191970" points="1313.5639,-486.8266 1303.1143,-488.5749 1312.3734,-493.7246 1313.5639,-486.8266"/>
</g>
<!-- Node53&#45;&gt;Node31 -->
<g id="edge115" class="edge">
<title>Node53&#45;&gt;Node31</title>
<path fill="none" stroke="#191970" d="M1560.4012,-526.3906C1528.7684,-515.8749 1477.9044,-498.966 1442.8845,-487.3243"/>
<polygon fill="#191970" stroke="#191970" points="1443.6042,-483.8753 1433.0107,-484.0419 1441.3959,-490.5178 1443.6042,-483.8753"/>
</g>
<!-- Node53&#45;&gt;Node37 -->
<g id="edge120" class="edge">
<title>Node53&#45;&gt;Node37</title>
<path fill="none" stroke="#191970" d="M1587.9012,-526.3906C1586.8523,-519.2234 1585.3688,-509.0862 1583.991,-499.671"/>
<polygon fill="#191970" stroke="#191970" points="1587.4202,-498.9324 1582.509,-489.5446 1580.494,-499.946 1587.4202,-498.9324"/>
</g>
<!-- Node53&#45;&gt;Node52 -->
<g id="edge117" class="edge">
<title>Node53&#45;&gt;Node52</title>
<path fill="none" stroke="#191970" d="M1508.5913,-531.8729C1359.0073,-524.158 1028.6106,-506.8069 750.3074,-490 703.8333,-487.1934 652.2075,-483.8169 609.2081,-480.9327"/>
<polygon fill="#191970" stroke="#191970" points="609.2522,-477.4278 599.0399,-480.2491 608.7826,-484.4121 609.2522,-477.4278"/>
</g>
<!-- Node54 -->
<g id="node47" class="node">
<title>Node54</title>
<polygon fill="none" stroke="#bfbfbf" points="1710.8074,-465 1710.8074,-484 1787.8074,-484 1787.8074,-465 1710.8074,-465"/>
<text text-anchor="middle" x="1749.3074" y="-472" font-family="FreeSans.ttf" font-size="10.00" fill="#000000">Eigen/Dense</text>
</g>
<!-- Node53&#45;&gt;Node54 -->
<g id="edge114" class="edge">
<title>Node53&#45;&gt;Node54</title>
<path fill="none" stroke="#191970" d="M1614.3074,-526.3906C1641.3132,-516.0103 1684.5259,-499.4004 1714.7668,-487.7766"/>
<polygon fill="#191970" stroke="#191970" points="1716.4045,-490.8968 1724.483,-484.0419 1713.893,-484.3628 1716.4045,-490.8968"/>
</g>
<!-- Node55&#45;&gt;Node6 -->
<g id="edge125" class="edge">
<title>Node55&#45;&gt;Node6</title>
<path fill="none" stroke="#191970" d="M1871.719,-403.0949C1837.8087,-371.9093 1727.7581,-274.8106 1619.3074,-224 1585.278,-208.0568 1544.8393,-196.9693 1511.4117,-189.6808"/>
<polygon fill="#191970" stroke="#191970" points="1511.7851,-186.1825 1501.2776,-187.5396 1510.3381,-193.0313 1511.7851,-186.1825"/>
</g>
<!-- Node56&#45;&gt;Node4 -->
<g id="edge131" class="edge">
<title>Node56&#45;&gt;Node4</title>
<path fill="none" stroke="#191970" d="M896.3892,-638.4315C818.3317,-619.6783 698.9922,-585.2901 676.3074,-546 642.7208,-487.8278 695.969,-408.9406 723.4841,-374.4029"/>
<polygon fill="#191970" stroke="#191970" points="726.2311,-376.5726 729.8565,-366.6173 720.8142,-372.1389 726.2311,-376.5726"/>
</g>
<!-- Node56&#45;&gt;Node6 -->
<g id="edge134" class="edge">
<title>Node56&#45;&gt;Node6</title>
<path fill="none" stroke="#191970" d="M913.1167,-638.3989C883.1407,-629.1183 845.061,-616.2878 812.3074,-602 788.4274,-591.583 722.6218,-568.394 709.3074,-546 704.7647,-538.3595 703.5914,-532.8073 709.3074,-526 768.7933,-455.1575 829.5629,-527.0891 914.3074,-490 1092.9734,-411.8053 1087.7002,-308.8414 1263.3074,-224 1297.1855,-207.6324 1337.5417,-196.6516 1371.5418,-189.5371"/>
<polygon fill="#191970" stroke="#191970" points="1372.3041,-192.9539 1381.4123,-187.5418 1370.9171,-186.0926 1372.3041,-192.9539"/>
</g>
<!-- Node56&#45;&gt;Node31 -->
<g id="edge133" class="edge">
<title>Node56&#45;&gt;Node31</title>
<path fill="none" stroke="#191970" d="M1049.996,-639.2924C1137.1833,-624.6235 1261.0839,-603.6424 1266.3074,-602 1322.0683,-584.4667 1347.8599,-590.8818 1385.3074,-546 1397.3583,-531.5567 1401.8393,-510.2385 1403.4676,-494.6384"/>
<polygon fill="#191970" stroke="#191970" points="1406.9724,-494.6999 1404.2165,-484.4698 1399.9913,-494.1857 1406.9724,-494.6999"/>
</g>
<!-- Node56&#45;&gt;Node32 -->
<g id="edge135" class="edge">
<title>Node56&#45;&gt;Node32</title>
<path fill="none" stroke="#191970" d="M880.7878,-643.1015C865.3346,-641.3136 849.344,-639.5382 834.3074,-638 741.779,-628.5344 500.1372,-644.3124 417.3074,-602 396.7631,-591.5052 380.4813,-570.1212 370.6663,-554.5289"/>
<polygon fill="#191970" stroke="#191970" points="373.5393,-552.5132 365.4105,-545.7181 367.5277,-556.0993 373.5393,-552.5132"/>
</g>
<!-- Node56&#45;&gt;Node34 -->
<g id="edge136" class="edge">
<title>Node56&#45;&gt;Node34</title>
<path fill="none" stroke="#191970" d="M965.3074,-638.2977C965.3074,-630.3834 965.3074,-620.6043 965.3074,-612.0759"/>
<polygon fill="#191970" stroke="#191970" points="968.8075,-611.8469 965.3074,-601.8469 961.8075,-611.847 968.8075,-611.8469"/>
</g>
<!-- Node56&#45;&gt;Node39 -->
<g id="edge137" class="edge">
<title>Node56&#45;&gt;Node39</title>
<path fill="none" stroke="#191970" d="M927.8715,-638.3955C904.8444,-628.7344 874.9376,-615.5152 849.3074,-602 819.2379,-586.1439 786.1509,-565.1516 764.8484,-551.142"/>
<polygon fill="#191970" stroke="#191970" points="766.753,-548.2054 756.4833,-545.6007 762.8872,-554.0412 766.753,-548.2054"/>
</g>
<!-- Node56&#45;&gt;Node52 -->
<g id="edge132" class="edge">
<title>Node56&#45;&gt;Node52</title>
<path fill="none" stroke="#191970" d="M880.6229,-639.0579C808.5894,-626.4712 714.1869,-609.1459 697.3074,-602 631.0611,-573.9546 564.7601,-519.1193 533.6316,-491.401"/>
<polygon fill="#191970" stroke="#191970" points="535.5829,-488.4475 525.8137,-484.3469 530.8935,-493.6446 535.5829,-488.4475"/>
</g>
<!-- Node57 -->
<g id="node50" class="node">
<title>Node57</title>
<g id="a_node50"><a xlink:href="Direction_8h.html" target="_top" xlink:title="iDynTree/Core/Direction.h">
<polygon fill="none" stroke="#000000" points="1709.8074,-230 1709.8074,-249 1850.8074,-249 1850.8074,-230 1709.8074,-230"/>
<text text-anchor="middle" x="1780.3074" y="-237" font-family="FreeSans.ttf" font-size="10.00" fill="#000000">iDynTree/Core/Direction.h</text>
</a>
</g>
</g>
<!-- Node56&#45;&gt;Node57 -->
<g id="edge127" class="edge">
<title>Node56&#45;&gt;Node57</title>
<path fill="none" stroke="#191970" d="M1050.0554,-639.1235C1053.1753,-638.7222 1056.2671,-638.3456 1059.3074,-638 1380.7208,-601.4619 1492.3211,-691.3565 1781.3074,-546 1875.4085,-498.6683 2014.2289,-498.7404 1970.3074,-403 1937.0039,-330.4047 1853.7958,-277.864 1809.3565,-253.9354"/>
<polygon fill="#191970" stroke="#191970" points="1810.7146,-250.6951 1800.2354,-249.1337 1807.4537,-256.8892 1810.7146,-250.6951"/>
</g>
<!-- Node57&#45;&gt;Node6 -->
<g id="edge129" class="edge">
<title>Node57&#45;&gt;Node6</title>
<path fill="none" stroke="#191970" d="M1728.1761,-229.9581C1668.2495,-218.9894 1569.9727,-201.0012 1506.2105,-189.3305"/>
<polygon fill="#191970" stroke="#191970" points="1506.7514,-185.8714 1496.2846,-187.5137 1505.491,-192.757 1506.7514,-185.8714"/>
</g>
<!-- Node57&#45;&gt;Node7 -->
<g id="edge130" class="edge">
<title>Node57&#45;&gt;Node7</title>
<path fill="none" stroke="#191970" d="M1780.3074,-229.9248C1780.3074,-202.499 1780.3074,-123.232 1780.3074,-85.8964"/>
<polygon fill="#191970" stroke="#191970" points="1783.8075,-85.7595 1780.3074,-75.7595 1776.8075,-85.7596 1783.8075,-85.7595"/>
</g>
<!-- Node57&#45;&gt;Node19 -->
<g id="edge128" class="edge">
<title>Node57&#45;&gt;Node19</title>
<path fill="none" stroke="#191970" d="M1754.4397,-229.9103C1709.9635,-213.901 1615.816,-182.0995 1533.3074,-168 1379.6964,-141.7501 886.4567,-126.5112 755.4883,-122.8604"/>
<polygon fill="#191970" stroke="#191970" points="755.41,-119.357 745.3173,-122.58 755.217,-126.3543 755.41,-119.357"/>
</g>
</g>
</svg>
