<?xml version="1.0" encoding="UTF-8" standalone="no"?>
<!DOCTYPE svg PUBLIC "-//W3C//DTD SVG 1.1//EN"
 "http://www.w3.org/Graphics/SVG/1.1/DTD/svg11.dtd">
<!-- Generated by graphviz version 2.40.1 (20161225.0304)
 -->
<!-- Title: idyntree&#45;model&#45;view.cpp Pages: 1 -->
<svg width="2137pt" height="901pt"
 viewBox="0.00 0.00 2137.04 901.00" xmlns="http://www.w3.org/2000/svg" xmlns:xlink="http://www.w3.org/1999/xlink">
<g id="graph0" class="graph" transform="scale(1 1) rotate(0) translate(4 897)">
<title>idyntree&#45;model&#45;view.cpp</title>
<!-- Node0 -->
<g id="node1" class="node">
<title>Node0</title>
<polygon fill="#bfbfbf" stroke="#000000" points="1513.0434,-873.5 1513.0434,-892.5 1651.0434,-892.5 1651.0434,-873.5 1513.0434,-873.5"/>
<text text-anchor="middle" x="1582.0434" y="-880.5" font-family="FreeSans.ttf" font-size="10.00" fill="#000000">idyntree&#45;model&#45;view.cpp</text>
</g>
<!-- Node1 -->
<g id="node2" class="node">
<title>Node1</title>
<g id="a_node2"><a xlink:href="Model_8h.html" target="_top" xlink:title="iDynTree/Model/Model.h">
<polygon fill="none" stroke="#000000" points="772.5434,-705.5 772.5434,-724.5 905.5434,-724.5 905.5434,-705.5 772.5434,-705.5"/>
<text text-anchor="middle" x="839.0434" y="-712.5" font-family="FreeSans.ttf" font-size="10.00" fill="#000000">iDynTree/Model/Model.h</text>
</a>
</g>
</g>
<!-- Node0&#45;&gt;Node1 -->
<g id="edge1" class="edge">
<title>Node0&#45;&gt;Node1</title>
<path fill="none" stroke="#191970" d="M1517.4871,-873.4855C1462.2128,-865.0044 1380.6096,-851.6879 1310.0434,-837 1208.7326,-815.9128 1184.2308,-806.9044 1084.0434,-781 1013.6204,-762.7915 932.1142,-740.6135 883.1216,-727.1624"/>
<polygon fill="#191970" stroke="#191970" points="884.043,-723.7859 873.473,-724.5107 882.188,-730.5357 884.043,-723.7859"/>
</g>
<!-- Node25 -->
<g id="node32" class="node">
<title>Node25</title>
<polygon fill="none" stroke="#bfbfbf" points="1748.0434,-112.5 1748.0434,-131.5 1808.0434,-131.5 1808.0434,-112.5 1748.0434,-112.5"/>
<text text-anchor="middle" x="1778.0434" y="-119.5" font-family="FreeSans.ttf" font-size="10.00" fill="#000000">iostream</text>
</g>
<!-- Node0&#45;&gt;Node25 -->
<g id="edge125" class="edge">
<title>Node0&#45;&gt;Node25</title>
<path fill="none" stroke="#191970" d="M1651.0442,-876.0174C1798.096,-860.2043 2129.0434,-819.2557 2129.0434,-771 2129.0434,-771 2129.0434,-771 2129.0434,-239.5 2129.0434,-174.6069 1910.5768,-138.9728 1818.3537,-126.8212"/>
<polygon fill="#191970" stroke="#191970" points="1818.639,-123.3291 1808.2733,-125.5206 1817.7431,-130.2715 1818.639,-123.3291"/>
</g>
<!-- Node42 -->
<g id="node37" class="node">
<title>Node42</title>
<polygon fill="none" stroke="#bfbfbf" points="1653.5434,-532 1653.5434,-551 1702.5434,-551 1702.5434,-532 1653.5434,-532"/>
<text text-anchor="middle" x="1678.0434" y="-539" font-family="FreeSans.ttf" font-size="10.00" fill="#000000">cstdlib</text>
</g>
<!-- Node0&#45;&gt;Node42 -->
<g id="edge126" class="edge">
<title>Node0&#45;&gt;Node42</title>
<path fill="none" stroke="#191970" d="M1604.4896,-873.4443C1637.9567,-857.5115 1697.0434,-822.1402 1697.0434,-771 1697.0434,-771 1697.0434,-771 1697.0434,-715 1697.0434,-658.8911 1687.103,-593.1789 1681.6022,-561.1108"/>
<polygon fill="#191970" stroke="#191970" points="1685.0457,-560.4838 1679.8652,-551.2419 1678.1517,-561.6973 1685.0457,-560.4838"/>
</g>
<!-- Node44 -->
<g id="node39" class="node">
<title>Node44</title>
<g id="a_node39"><a xlink:href="ModelLoader_8h.html" target="_top" xlink:title="iDynTree/ModelIO/ModelLoader.h">
<polygon fill="none" stroke="#000000" points="1319.0434,-817.5 1319.0434,-836.5 1495.0434,-836.5 1495.0434,-817.5 1319.0434,-817.5"/>
<text text-anchor="middle" x="1407.0434" y="-824.5" font-family="FreeSans.ttf" font-size="10.00" fill="#000000">iDynTree/ModelIO/ModelLoader.h</text>
</a>
</g>
</g>
<!-- Node0&#45;&gt;Node44 -->
<g id="edge77" class="edge">
<title>Node0&#45;&gt;Node44</title>
<path fill="none" stroke="#191970" d="M1551.9598,-873.3733C1522.86,-864.0613 1478.5911,-849.8953 1446.6404,-839.671"/>
<polygon fill="#191970" stroke="#191970" points="1447.3254,-836.2155 1436.7344,-836.5011 1445.1919,-842.8824 1447.3254,-836.2155"/>
</g>
<!-- Node48 -->
<g id="node43" class="node">
<title>Node48</title>
<g id="a_node43"><a xlink:href="Visualizer_8h.html" target="_top" xlink:title="iDynTree/Visualizer.h">
<polygon fill="none" stroke="#000000" points="28.5434,-649.5 28.5434,-668.5 147.5434,-668.5 147.5434,-649.5 28.5434,-649.5"/>
<text text-anchor="middle" x="88.0434" y="-656.5" font-family="FreeSans.ttf" font-size="10.00" fill="#000000">iDynTree/Visualizer.h</text>
</a>
</g>
</g>
<!-- Node0&#45;&gt;Node48 -->
<g id="edge92" class="edge">
<title>Node0&#45;&gt;Node48</title>
<path fill="none" stroke="#191970" d="M1512.8939,-878.3745C1270.6486,-861.6494 461.6682,-801.2604 214.0434,-725 175.5378,-713.1415 134.9339,-689.5901 110.5469,-674.067"/>
<polygon fill="#191970" stroke="#191970" points="112.3284,-671.0509 102.0325,-668.5519 108.5228,-676.9261 112.3284,-671.0509"/>
</g>
<!-- Node53 -->
<g id="node48" class="node">
<title>Node53</title>
<g id="a_node48"><a xlink:href="cmdline_8h.html" target="_top" xlink:title="cmdline.h">
<polygon fill="none" stroke="#000000" points="1812.5434,-593.5 1812.5434,-612.5 1877.5434,-612.5 1877.5434,-593.5 1812.5434,-593.5"/>
<text text-anchor="middle" x="1845.0434" y="-600.5" font-family="FreeSans.ttf" font-size="10.00" fill="#000000">cmdline.h</text>
</a>
</g>
</g>
<!-- Node0&#45;&gt;Node53 -->
<g id="edge114" class="edge">
<title>Node0&#45;&gt;Node53</title>
<path fill="none" stroke="#191970" d="M1651.0961,-874.9744C1712.3031,-863.56 1792.0434,-836.1814 1792.0434,-771 1792.0434,-771 1792.0434,-771 1792.0434,-715 1792.0434,-678.8604 1814.8686,-641.9196 1830.5609,-620.7933"/>
<polygon fill="#191970" stroke="#191970" points="1833.4246,-622.8112 1836.7622,-612.7558 1827.8824,-618.5352 1833.4246,-622.8112"/>
</g>
<!-- Node2 -->
<g id="node3" class="node">
<title>Node2</title>
<g id="a_node3"><a xlink:href="IJoint_8h.html" target="_top" xlink:title="iDynTree/Model/IJoint.h">
<polygon fill="none" stroke="#000000" points="577.0434,-649.5 577.0434,-668.5 705.0434,-668.5 705.0434,-649.5 577.0434,-649.5"/>
<text text-anchor="middle" x="641.0434" y="-656.5" font-family="FreeSans.ttf" font-size="10.00" fill="#000000">iDynTree/Model/IJoint.h</text>
</a>
</g>
</g>
<!-- Node1&#45;&gt;Node2 -->
<g id="edge2" class="edge">
<title>Node1&#45;&gt;Node2</title>
<path fill="none" stroke="#191970" d="M805.006,-705.3733C771.654,-695.9404 720.6907,-681.5265 684.4432,-671.2747"/>
<polygon fill="#191970" stroke="#191970" points="685.2118,-667.8548 674.6367,-668.5011 683.3066,-674.5906 685.2118,-667.8548"/>
</g>
<!-- Node3 -->
<g id="node4" class="node">
<title>Node3</title>
<g id="a_node4"><a xlink:href="Indices_8h.html" target="_top" xlink:title="iDynTree/Model/Indices.h">
<polygon fill="none" stroke="#000000" points="600.0434,-532 600.0434,-551 738.0434,-551 738.0434,-532 600.0434,-532"/>
<text text-anchor="middle" x="669.0434" y="-539" font-family="FreeSans.ttf" font-size="10.00" fill="#000000">iDynTree/Model/Indices.h</text>
</a>
</g>
</g>
<!-- Node1&#45;&gt;Node3 -->
<g id="edge68" class="edge">
<title>Node1&#45;&gt;Node3</title>
<path fill="none" stroke="#191970" d="M813.3097,-705.4912C794.7673,-697.7239 769.9588,-685.3601 752.0434,-669 717.1087,-637.0982 690.4276,-587.421 677.5525,-560.4599"/>
<polygon fill="#191970" stroke="#191970" points="680.6947,-558.9163 673.3056,-551.3235 674.347,-561.867 680.6947,-558.9163"/>
</g>
<!-- Node7 -->
<g id="node8" class="node">
<title>Node7</title>
<g id="a_node8"><a xlink:href="Link_8h.html" target="_top" xlink:title="iDynTree/Model/Link.h">
<polygon fill="none" stroke="#000000" points="761.0434,-649.5 761.0434,-668.5 885.0434,-668.5 885.0434,-649.5 761.0434,-649.5"/>
<text text-anchor="middle" x="823.0434" y="-656.5" font-family="FreeSans.ttf" font-size="10.00" fill="#000000">iDynTree/Model/Link.h</text>
</a>
</g>
</g>
<!-- Node1&#45;&gt;Node7 -->
<g id="edge7" class="edge">
<title>Node1&#45;&gt;Node7</title>
<path fill="none" stroke="#191970" d="M836.2564,-705.2455C834.1457,-697.8579 831.1774,-687.4689 828.5887,-678.4087"/>
<polygon fill="#191970" stroke="#191970" points="831.9111,-677.2964 825.7985,-668.6427 825.1804,-679.2195 831.9111,-677.2964"/>
</g>
<!-- Node40 -->
<g id="node35" class="node">
<title>Node40</title>
<g id="a_node35"><a xlink:href="Transform_8h.html" target="_top" xlink:title="iDynTree/Core/Transform.h">
<polygon fill="none" stroke="#000000" points="689.0434,-403.5 689.0434,-422.5 835.0434,-422.5 835.0434,-403.5 689.0434,-403.5"/>
<text text-anchor="middle" x="762.0434" y="-410.5" font-family="FreeSans.ttf" font-size="10.00" fill="#000000">iDynTree/Core/Transform.h</text>
</a>
</g>
</g>
<!-- Node1&#45;&gt;Node40 -->
<g id="edge63" class="edge">
<title>Node1&#45;&gt;Node40</title>
<path fill="none" stroke="#191970" d="M772.4225,-709.1096C624.3872,-694.4113 276.2315,-650.3892 214.0434,-557 162.2557,-479.2292 278.2648,-477.183 336.0434,-459 397.9329,-439.5233 573.2787,-425.2311 678.7235,-418.1013"/>
<polygon fill="#191970" stroke="#191970" points="679.2738,-421.5724 689.018,-417.4129 678.8067,-414.588 679.2738,-421.5724"/>
</g>
<!-- Node41 -->
<g id="node36" class="node">
<title>Node41</title>
<g id="a_node36"><a xlink:href="SolidShapes_8h.html" target="_top" xlink:title="iDynTree/Model/SolidShapes.h">
<polygon fill="none" stroke="#000000" points="1070.5434,-593.5 1070.5434,-612.5 1233.5434,-612.5 1233.5434,-593.5 1070.5434,-593.5"/>
<text text-anchor="middle" x="1152.0434" y="-600.5" font-family="FreeSans.ttf" font-size="10.00" fill="#000000">iDynTree/Model/SolidShapes.h</text>
</a>
</g>
</g>
<!-- Node1&#45;&gt;Node41 -->
<g id="edge69" class="edge">
<title>Node1&#45;&gt;Node41</title>
<path fill="none" stroke="#191970" d="M865.7296,-705.4509C921.8612,-685.3655 1052.1954,-638.7284 1115.8095,-615.9655"/>
<polygon fill="#191970" stroke="#191970" points="1117.1886,-619.1894 1125.4247,-612.5249 1114.8302,-612.5986 1117.1886,-619.1894"/>
</g>
<!-- Node1&#45;&gt;Node42 -->
<g id="edge75" class="edge">
<title>Node1&#45;&gt;Node42</title>
<path fill="none" stroke="#191970" d="M905.6493,-711.8438C990.3581,-706.9178 1140.7996,-695.1085 1267.0434,-669 1409.9923,-639.4367 1574.1561,-580.7273 1643.8768,-554.5849"/>
<polygon fill="#191970" stroke="#191970" points="1645.3412,-557.7733 1653.4644,-550.9715 1642.8725,-551.2231 1645.3412,-557.7733"/>
</g>
<!-- Node43 -->
<g id="node38" class="node">
<title>Node43</title>
<polygon fill="none" stroke="#bfbfbf" points="1511.5434,-532 1511.5434,-551 1558.5434,-551 1558.5434,-532 1511.5434,-532"/>
<text text-anchor="middle" x="1535.0434" y="-539" font-family="FreeSans.ttf" font-size="10.00" fill="#000000">vector</text>
</g>
<!-- Node1&#45;&gt;Node43 -->
<g id="edge76" class="edge">
<title>Node1&#45;&gt;Node43</title>
<path fill="none" stroke="#191970" d="M905.8783,-710.696C1014.8541,-702.0209 1236.2971,-677.4236 1412.0434,-613 1432.2195,-605.604 1481.7917,-575.2307 1511.4787,-556.5317"/>
<polygon fill="#191970" stroke="#191970" points="1513.4192,-559.4457 1519.999,-551.1417 1509.6769,-553.53 1513.4192,-559.4457"/>
</g>
<!-- Node2&#45;&gt;Node3 -->
<g id="edge3" class="edge">
<title>Node2&#45;&gt;Node3</title>
<path fill="none" stroke="#191970" d="M643.3348,-649.3845C647.9084,-630.1913 658.2518,-586.786 664.3331,-561.2663"/>
<polygon fill="#191970" stroke="#191970" points="667.8069,-561.7874 666.7204,-551.2484 660.9976,-560.1646 667.8069,-561.7874"/>
</g>
<!-- Node4 -->
<g id="node5" class="node">
<title>Node4</title>
<polygon fill="none" stroke="#bfbfbf" points="1350.5434,-.5 1350.5434,-19.5 1403.5434,-19.5 1403.5434,-.5 1350.5434,-.5"/>
<text text-anchor="middle" x="1377.0434" y="-7.5" font-family="FreeSans.ttf" font-size="10.00" fill="#000000">cstddef</text>
</g>
<!-- Node3&#45;&gt;Node4 -->
<g id="edge4" class="edge">
<title>Node3&#45;&gt;Node4</title>
<path fill="none" stroke="#191970" d="M714.3218,-531.982C725.0263,-529.8762 736.418,-527.7527 747.0434,-526 833.623,-511.7187 1451.476,-462.0786 1530.0434,-423 1692.6876,-342.1026 1748.1092,-300.0643 1817.0434,-132 1848.9903,-54.1121 1525.0424,-21.4872 1413.7669,-12.6333"/>
<polygon fill="#191970" stroke="#191970" points="1413.9224,-9.135 1403.6813,-11.85 1413.3802,-16.1139 1413.9224,-9.135"/>
</g>
<!-- Node5 -->
<g id="node6" class="node">
<title>Node5</title>
<polygon fill="none" stroke="#bfbfbf" points="822.0434,-112.5 822.0434,-131.5 866.0434,-131.5 866.0434,-112.5 822.0434,-112.5"/>
<text text-anchor="middle" x="844.0434" y="-119.5" font-family="FreeSans.ttf" font-size="10.00" fill="#000000">string</text>
</g>
<!-- Node3&#45;&gt;Node5 -->
<g id="edge5" class="edge">
<title>Node3&#45;&gt;Node5</title>
<path fill="none" stroke="#191970" d="M660.4509,-531.9522C652.0334,-522.112 639.4259,-505.9931 632.0434,-490 617.2705,-457.9964 613.0434,-448.2487 613.0434,-413 613.0434,-413 613.0434,-413 613.0434,-239.5 613.0434,-151.4555 748.0091,-129.3574 811.6121,-123.8318"/>
<polygon fill="#191970" stroke="#191970" points="812.1967,-127.297 821.8942,-123.0297 811.6522,-120.3182 812.1967,-127.297"/>
</g>
<!-- Node6 -->
<g id="node7" class="node">
<title>Node6</title>
<polygon fill="none" stroke="#bfbfbf" points="641.0434,-465 641.0434,-484 727.0434,-484 727.0434,-465 641.0434,-465"/>
<text text-anchor="middle" x="684.0434" y="-472" font-family="FreeSans.ttf" font-size="10.00" fill="#000000">ModelExport.h</text>
</g>
<!-- Node3&#45;&gt;Node6 -->
<g id="edge6" class="edge">
<title>Node3&#45;&gt;Node6</title>
<path fill="none" stroke="#191970" d="M671.1925,-531.9005C673.398,-522.0495 676.8915,-506.4451 679.6797,-493.9912"/>
<polygon fill="#191970" stroke="#191970" points="683.1289,-494.6048 681.8983,-484.0817 676.298,-493.0754 683.1289,-494.6048"/>
</g>
<!-- Node7&#45;&gt;Node3 -->
<g id="edge62" class="edge">
<title>Node7&#45;&gt;Node3</title>
<path fill="none" stroke="#191970" d="M812.5934,-649.1407C798.2762,-635.8183 771.5408,-611.5968 747.0434,-593 729.7565,-579.8769 709.2418,-566.4087 693.5908,-556.5382"/>
<polygon fill="#191970" stroke="#191970" points="695.3346,-553.5008 684.9989,-551.1721 691.6265,-559.438 695.3346,-553.5008"/>
</g>
<!-- Node8 -->
<g id="node9" class="node">
<title>Node8</title>
<g id="a_node9"><a xlink:href="SpatialInertia_8h.html" target="_top" xlink:title="iDynTree/Core/SpatialInertia.h">
<polygon fill="none" stroke="#000000" points="890.0434,-593.5 890.0434,-612.5 1052.0434,-612.5 1052.0434,-593.5 890.0434,-593.5"/>
<text text-anchor="middle" x="971.0434" y="-600.5" font-family="FreeSans.ttf" font-size="10.00" fill="#000000">iDynTree/Core/SpatialInertia.h</text>
</a>
</g>
</g>
<!-- Node7&#45;&gt;Node8 -->
<g id="edge8" class="edge">
<title>Node7&#45;&gt;Node8</title>
<path fill="none" stroke="#191970" d="M848.4855,-649.3733C872.7761,-640.1822 909.5642,-626.2624 936.4977,-616.0713"/>
<polygon fill="#191970" stroke="#191970" points="937.8191,-619.3136 945.9333,-612.5011 935.3418,-612.7666 937.8191,-619.3136"/>
</g>
<!-- Node9 -->
<g id="node10" class="node">
<title>Node9</title>
<g id="a_node10"><a xlink:href="SpatialInertiaRaw_8h.html" target="_top" xlink:title="iDynTree/Core/SpatialInertia\lRaw.h">
<polygon fill="none" stroke="#ff0000" points="907.5434,-526.5 907.5434,-556.5 1060.5434,-556.5 1060.5434,-526.5 907.5434,-526.5"/>
<text text-anchor="start" x="915.5434" y="-544.5" font-family="FreeSans.ttf" font-size="10.00" fill="#000000">iDynTree/Core/SpatialInertia</text>
<text text-anchor="middle" x="984.0434" y="-533.5" font-family="FreeSans.ttf" font-size="10.00" fill="#000000">Raw.h</text>
</a>
</g>
</g>
<!-- Node8&#45;&gt;Node9 -->
<g id="edge9" class="edge">
<title>Node8&#45;&gt;Node9</title>
<path fill="none" stroke="#191970" d="M973.0747,-593.3906C974.606,-586.1463 976.7787,-575.8679 978.7868,-566.3676"/>
<polygon fill="#191970" stroke="#191970" points="982.2194,-567.0523 980.8632,-556.5446 975.3707,-565.6045 982.2194,-567.0523"/>
</g>
<!-- Node27 -->
<g id="node11" class="node">
<title>Node27</title>
<g id="a_node11"><a xlink:href="VectorFixSize_8h.html" target="_top" xlink:title="iDynTree/Core/VectorFixSize.h">
<polygon fill="none" stroke="#000000" points="1298.5434,-168.5 1298.5434,-187.5 1459.5434,-187.5 1459.5434,-168.5 1298.5434,-168.5"/>
<text text-anchor="middle" x="1379.0434" y="-175.5" font-family="FreeSans.ttf" font-size="10.00" fill="#000000">iDynTree/Core/VectorFixSize.h</text>
</a>
</g>
</g>
<!-- Node8&#45;&gt;Node27 -->
<g id="edge10" class="edge">
<title>Node8&#45;&gt;Node27</title>
<path fill="none" stroke="#191970" d="M1052.2122,-593.67C1136.9611,-583.6388 1264.0873,-567.6948 1312.0434,-557 1408.9036,-535.399 1446.5116,-550.6733 1525.0434,-490 1620.795,-416.0228 1673.6676,-304.1763 1583.0434,-224 1565.3684,-208.3627 1513.0364,-196.7447 1465.8048,-189.0964"/>
<polygon fill="#191970" stroke="#191970" points="1466.2405,-185.622 1455.8179,-187.5246 1465.1521,-192.5368 1466.2405,-185.622"/>
</g>
<!-- Node28 -->
<g id="node21" class="node">
<title>Node28</title>
<g id="a_node21"><a xlink:href="Twist_8h.html" target="_top" xlink:title="iDynTree/Core/Twist.h">
<polygon fill="none" stroke="#ff0000" points="294.0434,-532 294.0434,-551 416.0434,-551 416.0434,-532 294.0434,-532"/>
<text text-anchor="middle" x="355.0434" y="-539" font-family="FreeSans.ttf" font-size="10.00" fill="#000000">iDynTree/Core/Twist.h</text>
</a>
</g>
</g>
<!-- Node8&#45;&gt;Node28 -->
<g id="edge25" class="edge">
<title>Node8&#45;&gt;Node28</title>
<path fill="none" stroke="#191970" d="M889.7013,-599.5506C782.6688,-594.2351 588.9173,-581.9317 425.0434,-557 418.1811,-555.956 410.9869,-554.6313 403.931,-553.1978"/>
<polygon fill="#191970" stroke="#191970" points="404.2553,-549.6889 393.747,-551.0396 402.8041,-556.5368 404.2553,-549.6889"/>
</g>
<!-- Node36 -->
<g id="node22" class="node">
<title>Node36</title>
<g id="a_node22"><a xlink:href="SpatialMomentum_8h.html" target="_top" xlink:title="iDynTree/Core/SpatialMomentum.h">
<polygon fill="none" stroke="#000000" points="1117.0434,-532 1117.0434,-551 1303.0434,-551 1303.0434,-532 1117.0434,-532"/>
<text text-anchor="middle" x="1210.0434" y="-539" font-family="FreeSans.ttf" font-size="10.00" fill="#000000">iDynTree/Core/SpatialMomentum.h</text>
</a>
</g>
</g>
<!-- Node8&#45;&gt;Node36 -->
<g id="edge26" class="edge">
<title>Node8&#45;&gt;Node36</title>
<path fill="none" stroke="#191970" d="M1008.1249,-593.4581C1049.8132,-582.7308 1117.5931,-565.2895 1162.9818,-553.61"/>
<polygon fill="#191970" stroke="#191970" points="1164.0626,-556.946 1172.8749,-551.0643 1162.3181,-550.1668 1164.0626,-556.946"/>
</g>
<!-- Node38 -->
<g id="node33" class="node">
<title>Node38</title>
<g id="a_node33"><a xlink:href="SpatialAcc_8h.html" target="_top" xlink:title="iDynTree/Core/SpatialAcc.h">
<polygon fill="none" stroke="#ff0000" points="434.0434,-532 434.0434,-551 582.0434,-551 582.0434,-532 434.0434,-532"/>
<text text-anchor="middle" x="508.0434" y="-539" font-family="FreeSans.ttf" font-size="10.00" fill="#000000">iDynTree/Core/SpatialAcc.h</text>
</a>
</g>
</g>
<!-- Node8&#45;&gt;Node38 -->
<g id="edge59" class="edge">
<title>Node8&#45;&gt;Node38</title>
<path fill="none" stroke="#191970" d="M890.0371,-594.7166C812.963,-586.4757 693.836,-572.8031 591.0434,-557 583.009,-555.7648 574.5609,-554.3375 566.2552,-552.8591"/>
<polygon fill="#191970" stroke="#191970" points="566.6964,-549.3821 556.2321,-551.0401 565.4464,-556.2696 566.6964,-549.3821"/>
</g>
<!-- Node39 -->
<g id="node34" class="node">
<title>Node39</title>
<g id="a_node34"><a xlink:href="Wrench_8h.html" target="_top" xlink:title="iDynTree/Core/Wrench.h">
<polygon fill="none" stroke="#000000" points="756.5434,-532 756.5434,-551 889.5434,-551 889.5434,-532 756.5434,-532"/>
<text text-anchor="middle" x="823.0434" y="-539" font-family="FreeSans.ttf" font-size="10.00" fill="#000000">iDynTree/Core/Wrench.h</text>
</a>
</g>
</g>
<!-- Node8&#45;&gt;Node39 -->
<g id="edge60" class="edge">
<title>Node8&#45;&gt;Node39</title>
<path fill="none" stroke="#191970" d="M947.9184,-593.3906C923.0467,-583.0554 883.3136,-566.5447 855.359,-554.9284"/>
<polygon fill="#191970" stroke="#191970" points="856.5836,-551.6472 846.006,-551.0419 853.8974,-558.1113 856.5836,-551.6472"/>
</g>
<!-- Node27&#45;&gt;Node4 -->
<g id="edge23" class="edge">
<title>Node27&#45;&gt;Node4</title>
<path fill="none" stroke="#191970" d="M1378.9301,-168.4862C1378.614,-141.9293 1377.7168,-66.5651 1377.2835,-30.1655"/>
<polygon fill="#191970" stroke="#191970" points="1380.7793,-29.7855 1377.1604,-19.8279 1373.7798,-29.8689 1380.7793,-29.7855"/>
</g>
<!-- Node27&#45;&gt;Node5 -->
<g id="edge20" class="edge">
<title>Node27&#45;&gt;Node5</title>
<path fill="none" stroke="#191970" d="M1298.5168,-168.9188C1295.6574,-168.6069 1292.826,-168.2998 1290.0434,-168 1135.1358,-151.3092 949.8181,-132.5981 876.3391,-125.229"/>
<polygon fill="#191970" stroke="#191970" points="876.6256,-121.7403 866.3264,-124.2257 875.9275,-128.7054 876.6256,-121.7403"/>
</g>
<!-- Node12 -->
<g id="node12" class="node">
<title>Node12</title>
<g id="a_node12"><a xlink:href="Utils_8h.html" target="_top" xlink:title="iDynTree/Core/Utils.h">
<polygon fill="none" stroke="#000000" points="966.5434,-56.5 966.5434,-75.5 1085.5434,-75.5 1085.5434,-56.5 966.5434,-56.5"/>
<text text-anchor="middle" x="1026.0434" y="-63.5" font-family="FreeSans.ttf" font-size="10.00" fill="#000000">iDynTree/Core/Utils.h</text>
</a>
</g>
</g>
<!-- Node27&#45;&gt;Node12 -->
<g id="edge11" class="edge">
<title>Node27&#45;&gt;Node12</title>
<path fill="none" stroke="#191970" d="M1313.7186,-168.466C1252.6177,-159.0557 1166.1068,-144.3283 1134.0434,-132 1101.2016,-119.3724 1067.1907,-96.7201 1046.322,-81.5241"/>
<polygon fill="#191970" stroke="#191970" points="1048.3418,-78.6646 1038.2247,-75.519 1044.1721,-84.2871 1048.3418,-78.6646"/>
</g>
<!-- Node17 -->
<g id="node14" class="node">
<title>Node17</title>
<g id="a_node14"><a xlink:href="Span_8h.html" target="_top" xlink:title="iDynTree/Core/Span.h">
<polygon fill="none" stroke="#ff0000" points="1428.5434,-56.5 1428.5434,-75.5 1549.5434,-75.5 1549.5434,-56.5 1428.5434,-56.5"/>
<text text-anchor="middle" x="1489.0434" y="-63.5" font-family="FreeSans.ttf" font-size="10.00" fill="#000000">iDynTree/Core/Span.h</text>
</a>
</g>
</g>
<!-- Node27&#45;&gt;Node17 -->
<g id="edge14" class="edge">
<title>Node27&#45;&gt;Node17</title>
<path fill="none" stroke="#191970" d="M1397.2877,-168.4218C1411.9081,-160.1351 1432.3378,-147.1236 1447.0434,-132 1460.6051,-118.0528 1472.1391,-99.0514 1479.669,-85.0178"/>
<polygon fill="#191970" stroke="#191970" points="1482.9397,-86.3119 1484.416,-75.8204 1476.7193,-83.1014 1482.9397,-86.3119"/>
</g>
<!-- Node15 -->
<g id="node15" class="node">
<title>Node15</title>
<polygon fill="none" stroke="#bfbfbf" points="1258.0434,-.5 1258.0434,-19.5 1310.0434,-19.5 1310.0434,-.5 1258.0434,-.5"/>
<text text-anchor="middle" x="1284.0434" y="-7.5" font-family="FreeSans.ttf" font-size="10.00" fill="#000000">cassert</text>
</g>
<!-- Node27&#45;&gt;Node15 -->
<g id="edge22" class="edge">
<title>Node27&#45;&gt;Node15</title>
<path fill="none" stroke="#191970" d="M1373.6636,-168.4862C1358.4513,-141.5845 1314.9181,-64.5994 1294.6559,-28.7673"/>
<polygon fill="#191970" stroke="#191970" points="1297.5698,-26.8097 1289.6008,-19.8279 1291.4765,-30.2554 1297.5698,-26.8097"/>
</g>
<!-- Node26 -->
<g id="node19" class="node">
<title>Node26</title>
<polygon fill="none" stroke="#bfbfbf" points="1494.0434,-112.5 1494.0434,-131.5 1550.0434,-131.5 1550.0434,-112.5 1494.0434,-112.5"/>
<text text-anchor="middle" x="1522.0434" y="-119.5" font-family="FreeSans.ttf" font-size="10.00" fill="#000000">sstream</text>
</g>
<!-- Node27&#45;&gt;Node26 -->
<g id="edge21" class="edge">
<title>Node27&#45;&gt;Node26</title>
<path fill="none" stroke="#191970" d="M1403.626,-168.3733C1426.993,-159.2226 1462.3296,-145.3844 1488.3218,-135.2057"/>
<polygon fill="#191970" stroke="#191970" points="1489.7464,-138.4066 1497.7816,-131.5011 1487.1939,-131.8886 1489.7464,-138.4066"/>
</g>
<!-- Node24 -->
<g id="node20" class="node">
<title>Node24</title>
<polygon fill="none" stroke="#bfbfbf" points="1388.0434,-112.5 1388.0434,-131.5 1438.0434,-131.5 1438.0434,-112.5 1388.0434,-112.5"/>
<text text-anchor="middle" x="1413.0434" y="-119.5" font-family="FreeSans.ttf" font-size="10.00" fill="#000000">cstring</text>
</g>
<!-- Node27&#45;&gt;Node24 -->
<g id="edge24" class="edge">
<title>Node27&#45;&gt;Node24</title>
<path fill="none" stroke="#191970" d="M1384.9658,-168.2455C1389.6461,-160.5367 1396.3107,-149.5598 1401.9723,-140.2348"/>
<polygon fill="#191970" stroke="#191970" points="1404.9909,-142.007 1407.1889,-131.6427 1399.0073,-138.3741 1404.9909,-142.007"/>
</g>
<!-- Node12&#45;&gt;Node4 -->
<g id="edge12" class="edge">
<title>Node12&#45;&gt;Node4</title>
<path fill="none" stroke="#191970" d="M1085.5694,-56.9225C1144.7984,-47.8272 1238.2608,-33.3045 1319.0434,-20 1325.9529,-18.862 1333.3195,-17.6167 1340.4033,-16.4031"/>
<polygon fill="#191970" stroke="#191970" points="1341.2334,-19.8117 1350.4935,-14.6637 1340.0442,-12.9134 1341.2334,-19.8117"/>
</g>
<!-- Node13 -->
<g id="node13" class="node">
<title>Node13</title>
<polygon fill="none" stroke="#bfbfbf" points="986.0434,-.5 986.0434,-19.5 1066.0434,-19.5 1066.0434,-.5 986.0434,-.5"/>
<text text-anchor="middle" x="1026.0434" y="-7.5" font-family="FreeSans.ttf" font-size="10.00" fill="#000000">CoreExport.h</text>
</g>
<!-- Node12&#45;&gt;Node13 -->
<g id="edge13" class="edge">
<title>Node12&#45;&gt;Node13</title>
<path fill="none" stroke="#191970" d="M1026.0434,-56.2455C1026.0434,-48.9382 1026.0434,-38.6944 1026.0434,-29.7046"/>
<polygon fill="#191970" stroke="#191970" points="1029.5435,-29.6426 1026.0434,-19.6427 1022.5435,-29.6427 1029.5435,-29.6426"/>
</g>
<!-- Node17&#45;&gt;Node4 -->
<g id="edge17" class="edge">
<title>Node17&#45;&gt;Node4</title>
<path fill="none" stroke="#191970" d="M1469.7899,-56.3733C1451.9722,-47.4644 1425.2687,-34.1127 1405.084,-24.0203"/>
<polygon fill="#191970" stroke="#191970" points="1406.5552,-20.8428 1396.0456,-19.5011 1403.4247,-27.1038 1406.5552,-20.8428"/>
</g>
<!-- Node17&#45;&gt;Node15 -->
<g id="edge15" class="edge">
<title>Node17&#45;&gt;Node15</title>
<path fill="none" stroke="#191970" d="M1453.8026,-56.3733C1416.4463,-46.1686 1357.7501,-30.1345 1320.0902,-19.8469"/>
<polygon fill="#191970" stroke="#191970" points="1320.6301,-16.3662 1310.0612,-17.1073 1318.7855,-23.1188 1320.6301,-16.3662"/>
</g>
<!-- Node18 -->
<g id="node16" class="node">
<title>Node18</title>
<polygon fill="none" stroke="#bfbfbf" points="2036.0434,-.5 2036.0434,-19.5 2100.0434,-19.5 2100.0434,-.5 2036.0434,-.5"/>
<text text-anchor="middle" x="2068.0434" y="-7.5" font-family="FreeSans.ttf" font-size="10.00" fill="#000000">algorithm</text>
</g>
<!-- Node17&#45;&gt;Node18 -->
<g id="edge16" class="edge">
<title>Node17&#45;&gt;Node18</title>
<path fill="none" stroke="#191970" d="M1549.6399,-60.1392C1667.4141,-48.7483 1924.5237,-23.881 2025.8192,-14.0839"/>
<polygon fill="#191970" stroke="#191970" points="2026.3584,-17.5481 2035.975,-13.1016 2025.6845,-10.5806 2026.3584,-17.5481"/>
</g>
<!-- Node20 -->
<g id="node17" class="node">
<title>Node20</title>
<polygon fill="none" stroke="#bfbfbf" points="1508.5434,-.5 1508.5434,-19.5 1561.5434,-19.5 1561.5434,-.5 1508.5434,-.5"/>
<text text-anchor="middle" x="1535.0434" y="-7.5" font-family="FreeSans.ttf" font-size="10.00" fill="#000000">iterator</text>
</g>
<!-- Node17&#45;&gt;Node20 -->
<g id="edge18" class="edge">
<title>Node17&#45;&gt;Node20</title>
<path fill="none" stroke="#191970" d="M1497.056,-56.2455C1503.5202,-48.3761 1512.7819,-37.101 1520.5417,-27.6542"/>
<polygon fill="#191970" stroke="#191970" points="1523.4798,-29.5916 1527.1226,-19.6427 1518.0707,-25.1484 1523.4798,-29.5916"/>
</g>
<!-- Node22 -->
<g id="node18" class="node">
<title>Node22</title>
<polygon fill="none" stroke="#bfbfbf" points="1828.5434,-.5 1828.5434,-19.5 1893.5434,-19.5 1893.5434,-.5 1828.5434,-.5"/>
<text text-anchor="middle" x="1861.0434" y="-7.5" font-family="FreeSans.ttf" font-size="10.00" fill="#000000">stdexcept</text>
</g>
<!-- Node17&#45;&gt;Node22 -->
<g id="edge19" class="edge">
<title>Node17&#45;&gt;Node22</title>
<path fill="none" stroke="#191970" d="M1549.6396,-56.878C1625.0737,-45.5223 1752.0177,-26.4125 1818.1174,-16.462"/>
<polygon fill="#191970" stroke="#191970" points="1818.8189,-19.8959 1828.1864,-14.9462 1817.7768,-12.9739 1818.8189,-19.8959"/>
</g>
<!-- Node37 -->
<g id="node23" class="node">
<title>Node37</title>
<g id="a_node23"><a xlink:href="SpatialForceVector_8h.html" target="_top" xlink:title="iDynTree/Core/SpatialForce\lVector.h">
<polygon fill="none" stroke="#000000" points="1368.0434,-459.5 1368.0434,-489.5 1516.0434,-489.5 1516.0434,-459.5 1368.0434,-459.5"/>
<text text-anchor="start" x="1376.0434" y="-477.5" font-family="FreeSans.ttf" font-size="10.00" fill="#000000">iDynTree/Core/SpatialForce</text>
<text text-anchor="middle" x="1442.0434" y="-466.5" font-family="FreeSans.ttf" font-size="10.00" fill="#000000">Vector.h</text>
</a>
</g>
</g>
<!-- Node36&#45;&gt;Node37 -->
<g id="edge27" class="edge">
<title>Node36&#45;&gt;Node37</title>
<path fill="none" stroke="#191970" d="M1243.2833,-531.9005C1278.9273,-521.6068 1336.3242,-505.031 1380.2964,-492.3321"/>
<polygon fill="#191970" stroke="#191970" points="1381.3915,-495.659 1390.0277,-489.5218 1379.4492,-488.9338 1381.3915,-495.659"/>
</g>
<!-- Node37&#45;&gt;Node27 -->
<g id="edge28" class="edge">
<title>Node37&#45;&gt;Node27</title>
<path fill="none" stroke="#191970" d="M1496.556,-459.4315C1515.3523,-451.5598 1534.7506,-439.9185 1547.0434,-423 1599.1426,-351.2959 1614.453,-293.9671 1560.0434,-224 1547.632,-208.0397 1504.3552,-196.7127 1463.2324,-189.2926"/>
<polygon fill="#191970" stroke="#191970" points="1463.5743,-185.7996 1453.1228,-187.5364 1462.3762,-192.6963 1463.5743,-185.7996"/>
</g>
<!-- Node30 -->
<g id="node24" class="node">
<title>Node30</title>
<g id="a_node24"><a xlink:href="GeomVector3_8h.html" target="_top" xlink:title="iDynTree/Core/GeomVector3.h">
<polygon fill="none" stroke="#000000" points="1387.5434,-230 1387.5434,-249 1550.5434,-249 1550.5434,-230 1387.5434,-230"/>
<text text-anchor="middle" x="1469.0434" y="-237" font-family="FreeSans.ttf" font-size="10.00" fill="#000000">iDynTree/Core/GeomVector3.h</text>
</a>
</g>
</g>
<!-- Node37&#45;&gt;Node30 -->
<g id="edge29" class="edge">
<title>Node37&#45;&gt;Node30</title>
<path fill="none" stroke="#191970" d="M1486.7363,-459.3931C1503.3852,-451.3419 1520.5332,-439.5846 1530.0434,-423 1562.237,-366.858 1511.3562,-291.2162 1484.2594,-257.277"/>
<polygon fill="#191970" stroke="#191970" points="1486.6936,-254.7262 1477.6413,-249.2211 1481.2848,-259.1697 1486.6936,-254.7262"/>
</g>
<!-- Node31 -->
<g id="node25" class="node">
<title>Node31</title>
<g id="a_node25"><a xlink:href="SpatialVector_8h.html" target="_top" xlink:title="iDynTree/Core/SpatialVector.h">
<polygon fill="none" stroke="#000000" points="1359.5434,-403.5 1359.5434,-422.5 1520.5434,-422.5 1520.5434,-403.5 1359.5434,-403.5"/>
<text text-anchor="middle" x="1440.0434" y="-410.5" font-family="FreeSans.ttf" font-size="10.00" fill="#000000">iDynTree/Core/SpatialVector.h</text>
</a>
</g>
</g>
<!-- Node37&#45;&gt;Node31 -->
<g id="edge31" class="edge">
<title>Node37&#45;&gt;Node31</title>
<path fill="none" stroke="#191970" d="M1441.549,-459.2977C1441.2916,-451.3834 1440.9736,-441.6043 1440.6963,-433.0759"/>
<polygon fill="#191970" stroke="#191970" points="1444.1869,-432.7279 1440.3636,-422.8469 1437.1906,-432.9554 1444.1869,-432.7279"/>
</g>
<!-- Node30&#45;&gt;Node27 -->
<g id="edge30" class="edge">
<title>Node30&#45;&gt;Node27</title>
<path fill="none" stroke="#191970" d="M1454.9809,-229.8906C1440.7148,-220.1421 1418.4084,-204.8994 1401.6562,-193.4521"/>
<polygon fill="#191970" stroke="#191970" points="1403.2383,-190.2941 1393.0072,-187.5419 1399.2889,-196.0736 1403.2383,-190.2941"/>
</g>
<!-- Node31&#45;&gt;Node12 -->
<g id="edge55" class="edge">
<title>Node31&#45;&gt;Node12</title>
<path fill="none" stroke="#191970" d="M1359.3082,-410.6249C1066.2945,-401.4804 76.0434,-365.7838 76.0434,-301 76.0434,-301 76.0434,-301 76.0434,-178 76.0434,-89.3643 736.7122,-70.6713 956.1455,-66.9072"/>
<polygon fill="#191970" stroke="#191970" points="956.3164,-70.4049 966.2568,-66.739 956.1999,-63.4059 956.3164,-70.4049"/>
</g>
<!-- Node31&#45;&gt;Node26 -->
<g id="edge58" class="edge">
<title>Node31&#45;&gt;Node26</title>
<path fill="none" stroke="#191970" d="M1451.221,-403.3408C1476.5741,-380.5963 1537.951,-320.6152 1560.0434,-255 1573.633,-214.6386 1550.158,-166.371 1534.4496,-140.5207"/>
<polygon fill="#191970" stroke="#191970" points="1537.2143,-138.3448 1528.903,-131.7741 1531.3027,-142.0936 1537.2143,-138.3448"/>
</g>
<!-- Node31&#45;&gt;Node30 -->
<g id="edge56" class="edge">
<title>Node31&#45;&gt;Node30</title>
<path fill="none" stroke="#191970" d="M1441.6439,-403.4248C1446.228,-375.999 1459.4773,-296.732 1465.7178,-259.3964"/>
<polygon fill="#191970" stroke="#191970" points="1469.2156,-259.6997 1467.4121,-249.2595 1462.3113,-258.5457 1469.2156,-259.6997"/>
</g>
<!-- Node32 -->
<g id="node26" class="node">
<title>Node32</title>
<g id="a_node26"><a xlink:href="Position_8h.html" target="_top" xlink:title="Position.h">
<polygon fill="none" stroke="#000000" points="690.5434,-347.5 690.5434,-366.5 755.5434,-366.5 755.5434,-347.5 690.5434,-347.5"/>
<text text-anchor="middle" x="723.0434" y="-354.5" font-family="FreeSans.ttf" font-size="10.00" fill="#000000">Position.h</text>
</a>
</g>
</g>
<!-- Node31&#45;&gt;Node32 -->
<g id="edge32" class="edge">
<title>Node31&#45;&gt;Node32</title>
<path fill="none" stroke="#191970" d="M1359.5351,-406.712C1207.3681,-394.8273 882.3651,-369.4435 765.7764,-360.3376"/>
<polygon fill="#191970" stroke="#191970" points="766.0423,-356.8478 755.8,-359.5584 765.4971,-363.8265 766.0423,-356.8478"/>
</g>
<!-- Node34 -->
<g id="node28" class="node">
<title>Node34</title>
<g id="a_node28"><a xlink:href="Rotation_8h.html" target="_top" xlink:title="iDynTree/Core/Rotation.h">
<polygon fill="none" stroke="#000000" points="1091.5434,-291.5 1091.5434,-310.5 1228.5434,-310.5 1228.5434,-291.5 1091.5434,-291.5"/>
<text text-anchor="middle" x="1160.0434" y="-298.5" font-family="FreeSans.ttf" font-size="10.00" fill="#000000">iDynTree/Core/Rotation.h</text>
</a>
</g>
</g>
<!-- Node31&#45;&gt;Node34 -->
<g id="edge54" class="edge">
<title>Node31&#45;&gt;Node34</title>
<path fill="none" stroke="#191970" d="M1434.4649,-403.1413C1425.5902,-388.4246 1406.805,-360.9521 1383.0434,-347 1358.7745,-332.7501 1292.515,-320.1212 1238.4833,-311.7185"/>
<polygon fill="#191970" stroke="#191970" points="1238.9638,-308.2514 1228.5495,-310.1993 1237.9055,-315.1709 1238.9638,-308.2514"/>
</g>
<!-- Node31&#45;&gt;Node25 -->
<g id="edge57" class="edge">
<title>Node31&#45;&gt;Node25</title>
<path fill="none" stroke="#191970" d="M1456.0968,-403.4462C1470.6082,-394.5804 1492.3446,-380.7211 1510.0434,-367 1611.1421,-288.6224 1720.3549,-180.5616 1761.2964,-139.1211"/>
<polygon fill="#191970" stroke="#191970" points="1763.8201,-141.5465 1768.3411,-131.9646 1758.8316,-136.6358 1763.8201,-141.5465"/>
</g>
<!-- Node32&#45;&gt;Node5 -->
<g id="edge53" class="edge">
<title>Node32&#45;&gt;Node5</title>
<path fill="none" stroke="#191970" d="M690.3348,-354.8891C602.2055,-347.8891 370.6055,-320.1097 434.0434,-224 476.2694,-160.0269 722.83,-132.5243 811.9334,-124.5825"/>
<polygon fill="#191970" stroke="#191970" points="812.3347,-128.061 821.9948,-123.7099 811.7298,-121.0871 812.3347,-128.061"/>
</g>
<!-- Node33 -->
<g id="node27" class="node">
<title>Node33</title>
<g id="a_node27"><a xlink:href="PositionRaw_8h.html" target="_top" xlink:title="iDynTree/Core/PositionRaw.h">
<polygon fill="none" stroke="#000000" points="641.0434,-230 641.0434,-249 797.0434,-249 797.0434,-230 641.0434,-230"/>
<text text-anchor="middle" x="719.0434" y="-237" font-family="FreeSans.ttf" font-size="10.00" fill="#000000">iDynTree/Core/PositionRaw.h</text>
</a>
</g>
</g>
<!-- Node32&#45;&gt;Node33 -->
<g id="edge33" class="edge">
<title>Node32&#45;&gt;Node33</title>
<path fill="none" stroke="#191970" d="M722.7161,-347.3845C722.0627,-328.1913 720.5851,-284.786 719.7163,-259.2663"/>
<polygon fill="#191970" stroke="#191970" points="723.2136,-259.1235 719.3753,-249.2484 716.2176,-259.3617 723.2136,-259.1235"/>
</g>
<!-- Node32&#45;&gt;Node34 -->
<g id="edge36" class="edge">
<title>Node32&#45;&gt;Node34</title>
<path fill="none" stroke="#191970" d="M755.8894,-352.7909C824.4259,-344.0082 984.3262,-323.5175 1081.1939,-311.1043"/>
<polygon fill="#191970" stroke="#191970" points="1081.7604,-314.5604 1091.2344,-309.8176 1080.8706,-307.6172 1081.7604,-314.5604"/>
</g>
<!-- Node33&#45;&gt;Node5 -->
<g id="edge35" class="edge">
<title>Node33&#45;&gt;Node5</title>
<path fill="none" stroke="#191970" d="M729.2727,-229.8845C750.515,-209.9167 799.6359,-163.743 826.2065,-138.7667"/>
<polygon fill="#191970" stroke="#191970" points="828.7837,-141.1477 833.6728,-131.7484 823.9893,-136.0473 828.7837,-141.1477"/>
</g>
<!-- Node33&#45;&gt;Node27 -->
<g id="edge34" class="edge">
<title>Node33&#45;&gt;Node27</title>
<path fill="none" stroke="#191970" d="M797.1387,-233.0026C905.1681,-223.8926 1106.5783,-206.4686 1288.5007,-188.14"/>
<polygon fill="#191970" stroke="#191970" points="1288.9242,-191.6152 1298.5217,-187.1275 1288.2204,-184.6506 1288.9242,-191.6152"/>
</g>
<!-- Node34&#45;&gt;Node5 -->
<g id="edge37" class="edge">
<title>Node34&#45;&gt;Node5</title>
<path fill="none" stroke="#191970" d="M1131.3789,-291.3693C1112.5953,-283.8746 1088.5536,-271.888 1072.0434,-255 1041.8916,-224.1582 1062.6429,-195.0448 1029.0434,-168 1005.7228,-149.2288 922.9758,-134.016 876.4384,-126.7065"/>
<polygon fill="#191970" stroke="#191970" points="876.6832,-123.2031 866.2677,-125.1443 875.6204,-130.122 876.6832,-123.2031"/>
</g>
<!-- Node34&#45;&gt;Node27 -->
<g id="edge52" class="edge">
<title>Node34&#45;&gt;Node27</title>
<path fill="none" stroke="#191970" d="M1180.4176,-291.3822C1198.5512,-282.5815 1225.6008,-268.8571 1248.0434,-255 1268.0898,-242.6224 1270.997,-236.3776 1291.0434,-224 1309.9793,-212.3081 1332.1951,-200.7106 1349.5676,-192.0855"/>
<polygon fill="#191970" stroke="#191970" points="1351.2346,-195.1662 1358.6692,-187.6178 1348.1501,-188.8824 1351.2346,-195.1662"/>
</g>
<!-- Node34&#45;&gt;Node30 -->
<g id="edge38" class="edge">
<title>Node34&#45;&gt;Node30</title>
<path fill="none" stroke="#191970" d="M1207.9856,-291.4581C1262.8698,-280.5345 1352.733,-262.6492 1411.3891,-250.9749"/>
<polygon fill="#191970" stroke="#191970" points="1412.1186,-254.3984 1421.243,-249.0137 1410.7521,-247.5331 1412.1186,-254.3984"/>
</g>
<!-- Node35 -->
<g id="node29" class="node">
<title>Node35</title>
<g id="a_node29"><a xlink:href="RotationRaw_8h.html" target="_top" xlink:title="iDynTree/Core/RotationRaw.h">
<polygon fill="none" stroke="#000000" points="1081.0434,-230 1081.0434,-249 1239.0434,-249 1239.0434,-230 1081.0434,-230"/>
<text text-anchor="middle" x="1160.0434" y="-237" font-family="FreeSans.ttf" font-size="10.00" fill="#000000">iDynTree/Core/RotationRaw.h</text>
</a>
</g>
</g>
<!-- Node34&#45;&gt;Node35 -->
<g id="edge39" class="edge">
<title>Node34&#45;&gt;Node35</title>
<path fill="none" stroke="#191970" d="M1160.0434,-291.3906C1160.0434,-282.8657 1160.0434,-270.1392 1160.0434,-259.4235"/>
<polygon fill="#191970" stroke="#191970" points="1163.5435,-259.2448 1160.0434,-249.2449 1156.5435,-259.2449 1163.5435,-259.2448"/>
</g>
<!-- Node35&#45;&gt;Node5 -->
<g id="edge51" class="edge">
<title>Node35&#45;&gt;Node5</title>
<path fill="none" stroke="#191970" d="M1150.7111,-229.9235C1134.9726,-214.3696 1101.4848,-183.7718 1067.0434,-168 1003.3244,-138.821 920.9101,-127.9952 876.2539,-124.0965"/>
<polygon fill="#191970" stroke="#191970" points="876.5212,-120.6067 866.2709,-123.2865 875.955,-127.5838 876.5212,-120.6067"/>
</g>
<!-- Node11 -->
<g id="node30" class="node">
<title>Node11</title>
<g id="a_node30"><a xlink:href="MatrixFixSize_8h.html" target="_top" xlink:title="iDynTree/Core/MatrixFixSize.h">
<polygon fill="none" stroke="#000000" points="1119.5434,-168.5 1119.5434,-187.5 1280.5434,-187.5 1280.5434,-168.5 1119.5434,-168.5"/>
<text text-anchor="middle" x="1200.0434" y="-175.5" font-family="FreeSans.ttf" font-size="10.00" fill="#000000">iDynTree/Core/MatrixFixSize.h</text>
</a>
</g>
</g>
<!-- Node35&#45;&gt;Node11 -->
<g id="edge40" class="edge">
<title>Node35&#45;&gt;Node11</title>
<path fill="none" stroke="#191970" d="M1166.2934,-229.8906C1172.1299,-220.917 1180.9943,-207.2879 1188.174,-196.2491"/>
<polygon fill="#191970" stroke="#191970" points="1191.187,-198.0361 1193.7053,-187.7449 1185.3189,-194.2194 1191.187,-198.0361"/>
</g>
<!-- Node11&#45;&gt;Node5 -->
<g id="edge48" class="edge">
<title>Node11&#45;&gt;Node5</title>
<path fill="none" stroke="#191970" d="M1139.2493,-168.4369C1063.1888,-156.4723 935.7301,-136.4226 876.3329,-127.0793"/>
<polygon fill="#191970" stroke="#191970" points="876.8184,-123.6127 866.396,-125.5161 875.7306,-130.5276 876.8184,-123.6127"/>
</g>
<!-- Node11&#45;&gt;Node12 -->
<g id="edge41" class="edge">
<title>Node11&#45;&gt;Node12</title>
<path fill="none" stroke="#191970" d="M1136.7754,-168.4908C1110.344,-161.8836 1080.7926,-150.7414 1059.0434,-132 1044.8305,-119.7526 1036.0793,-99.9179 1031.1923,-85.1853"/>
<polygon fill="#191970" stroke="#191970" points="1034.524,-84.1104 1028.2939,-75.5409 1027.8202,-86.1251 1034.524,-84.1104"/>
</g>
<!-- Node11&#45;&gt;Node15 -->
<g id="edge46" class="edge">
<title>Node11&#45;&gt;Node15</title>
<path fill="none" stroke="#191970" d="M1177.494,-168.4947C1153.7116,-156.9658 1121.308,-136.061 1134.0434,-112 1157.946,-66.841 1211.8013,-37.9529 1248.0419,-22.8506"/>
<polygon fill="#191970" stroke="#191970" points="1249.7783,-25.9252 1257.757,-18.9544 1247.1727,-19.4282 1249.7783,-25.9252"/>
</g>
<!-- Node11&#45;&gt;Node26 -->
<g id="edge50" class="edge">
<title>Node11&#45;&gt;Node26</title>
<path fill="none" stroke="#191970" d="M1255.0313,-168.4369C1320.1342,-157.1147 1426.8685,-138.5522 1483.6691,-128.6738"/>
<polygon fill="#191970" stroke="#191970" points="1484.4203,-132.0958 1493.6727,-126.934 1483.2208,-125.1993 1484.4203,-132.0958"/>
</g>
<!-- Node11&#45;&gt;Node24 -->
<g id="edge47" class="edge">
<title>Node11&#45;&gt;Node24</title>
<path fill="none" stroke="#191970" d="M1236.6594,-168.3733C1276.2946,-157.9527 1339.0502,-141.4536 1378.0432,-131.2019"/>
<polygon fill="#191970" stroke="#191970" points="1379.1125,-134.5398 1387.8938,-128.6121 1377.3325,-127.7699 1379.1125,-134.5398"/>
</g>
<!-- Node14 -->
<g id="node31" class="node">
<title>Node14</title>
<g id="a_node31"><a xlink:href="MatrixView_8h.html" target="_top" xlink:title="iDynTree/Core/MatrixView.h">
<polygon fill="none" stroke="#ff0000" points="1142.5434,-112.5 1142.5434,-131.5 1293.5434,-131.5 1293.5434,-112.5 1142.5434,-112.5"/>
<text text-anchor="middle" x="1218.0434" y="-119.5" font-family="FreeSans.ttf" font-size="10.00" fill="#000000">iDynTree/Core/MatrixView.h</text>
</a>
</g>
</g>
<!-- Node11&#45;&gt;Node14 -->
<g id="edge42" class="edge">
<title>Node11&#45;&gt;Node14</title>
<path fill="none" stroke="#191970" d="M1203.1788,-168.2455C1205.5534,-160.8579 1208.8927,-150.4689 1211.8049,-141.4087"/>
<polygon fill="#191970" stroke="#191970" points="1215.2159,-142.234 1214.944,-131.6427 1208.5517,-140.0919 1215.2159,-142.234"/>
</g>
<!-- Node11&#45;&gt;Node25 -->
<g id="edge49" class="edge">
<title>Node11&#45;&gt;Node25</title>
<path fill="none" stroke="#191970" d="M1280.9896,-168.9416C1284.0459,-168.62 1287.072,-168.3051 1290.0434,-168 1456.2607,-150.9329 1654.5858,-132.9854 1737.9814,-125.5485"/>
<polygon fill="#191970" stroke="#191970" points="1738.3896,-129.0261 1748.0397,-124.6528 1737.7686,-122.0537 1738.3896,-129.0261"/>
</g>
<!-- Node14&#45;&gt;Node12 -->
<g id="edge45" class="edge">
<title>Node14&#45;&gt;Node12</title>
<path fill="none" stroke="#191970" d="M1185.0374,-112.3733C1152.8343,-102.9807 1103.6992,-88.6496 1068.5795,-78.4064"/>
<polygon fill="#191970" stroke="#191970" points="1069.1987,-74.9412 1058.6187,-75.5011 1067.2387,-81.6612 1069.1987,-74.9412"/>
</g>
<!-- Node14&#45;&gt;Node17 -->
<g id="edge44" class="edge">
<title>Node14&#45;&gt;Node17</title>
<path fill="none" stroke="#191970" d="M1264.322,-112.4369C1310.9939,-102.7925 1383.0883,-87.8948 1432.9765,-77.5858"/>
<polygon fill="#191970" stroke="#191970" points="1433.8709,-80.975 1442.9556,-75.5237 1432.4542,-74.1198 1433.8709,-80.975"/>
</g>
<!-- Node14&#45;&gt;Node15 -->
<g id="edge43" class="edge">
<title>Node14&#45;&gt;Node15</title>
<path fill="none" stroke="#191970" d="M1223.6705,-112.4509C1234.6298,-93.8533 1259.0036,-52.4919 1273.2027,-28.3964"/>
<polygon fill="#191970" stroke="#191970" points="1276.3689,-29.9172 1278.4305,-19.5249 1270.3382,-26.3633 1276.3689,-29.9172"/>
</g>
<!-- Node39&#45;&gt;Node37 -->
<g id="edge61" class="edge">
<title>Node39&#45;&gt;Node37</title>
<path fill="none" stroke="#191970" d="M865.9081,-531.9262C876.685,-529.7489 888.2549,-527.6071 899.0434,-526 1060.5491,-501.9418 1250.847,-486.9277 1357.8715,-479.6894"/>
<polygon fill="#191970" stroke="#191970" points="1358.2213,-483.1739 1367.965,-479.0131 1357.7533,-476.1895 1358.2213,-483.1739"/>
</g>
<!-- Node40&#45;&gt;Node5 -->
<g id="edge67" class="edge">
<title>Node40&#45;&gt;Node5</title>
<path fill="none" stroke="#191970" d="M764.7717,-403.3179C776.4694,-361.8054 822.514,-198.403 838.5227,-141.5918"/>
<polygon fill="#191970" stroke="#191970" points="841.9614,-142.2929 841.3049,-131.7185 835.2237,-140.3943 841.9614,-142.2929"/>
</g>
<!-- Node40&#45;&gt;Node32 -->
<g id="edge64" class="edge">
<title>Node40&#45;&gt;Node32</title>
<path fill="none" stroke="#191970" d="M755.2501,-403.2455C749.8256,-395.4564 742.0773,-384.3308 735.5401,-374.9439"/>
<polygon fill="#191970" stroke="#191970" points="738.3459,-372.8485 729.7588,-366.6427 732.6017,-376.849 738.3459,-372.8485"/>
</g>
<!-- Node40&#45;&gt;Node34 -->
<g id="edge65" class="edge">
<title>Node40&#45;&gt;Node34</title>
<path fill="none" stroke="#191970" d="M795.9767,-403.4509C868.0859,-383.1589 1036.5002,-335.7659 1116.4391,-313.2706"/>
<polygon fill="#191970" stroke="#191970" points="1117.518,-316.603 1126.196,-310.5249 1115.6218,-309.8647 1117.518,-316.603"/>
</g>
<!-- Node40&#45;&gt;Node11 -->
<g id="edge66" class="edge">
<title>Node40&#45;&gt;Node11</title>
<path fill="none" stroke="#191970" d="M775.3876,-403.4908C817.3814,-373.8728 951.215,-281.8095 1072.0434,-224 1099.9688,-210.6393 1132.8605,-198.8993 1158.3088,-190.6239"/>
<polygon fill="#191970" stroke="#191970" points="1159.5632,-193.8974 1168.0205,-187.5158 1157.4295,-187.2304 1159.5632,-193.8974"/>
</g>
<!-- Node41&#45;&gt;Node3 -->
<g id="edge74" class="edge">
<title>Node41&#45;&gt;Node3</title>
<path fill="none" stroke="#191970" d="M1070.3129,-593.893C956.6101,-581.1977 762.7755,-559.4522 747.0434,-557 739.55,-555.832 731.6813,-554.4516 723.9432,-553.0037"/>
<polygon fill="#191970" stroke="#191970" points="724.369,-549.5217 713.8885,-551.0737 723.0494,-556.3961 724.369,-549.5217"/>
</g>
<!-- Node41&#45;&gt;Node5 -->
<g id="edge71" class="edge">
<title>Node41&#45;&gt;Node5</title>
<path fill="none" stroke="#191970" d="M1229.988,-593.4678C1281.4662,-583.5406 1335.4622,-563.8924 1312.0434,-526 1293.2343,-495.5662 1270.4835,-508.7989 1240.0434,-490 1127.1292,-420.2674 1097.2165,-402.4493 1001.0434,-311 941.1685,-254.066 882.0218,-175.0915 856.7771,-140.0206"/>
<polygon fill="#191970" stroke="#191970" points="859.5062,-137.8197 850.8452,-131.7174 853.8104,-141.8889 859.5062,-137.8197"/>
</g>
<!-- Node41&#45;&gt;Node40 -->
<g id="edge73" class="edge">
<title>Node41&#45;&gt;Node40</title>
<path fill="none" stroke="#191970" d="M1142.7808,-593.3886C1124.9432,-575.0373 1086.1649,-535.9464 1070.0434,-526 986.8758,-474.6887 876.8422,-441.3991 813.3101,-425.0223"/>
<polygon fill="#191970" stroke="#191970" points="814.0778,-421.6062 803.5241,-422.5389 812.356,-428.3911 814.0778,-421.6062"/>
</g>
<!-- Node41&#45;&gt;Node42 -->
<g id="edge70" class="edge">
<title>Node41&#45;&gt;Node42</title>
<path fill="none" stroke="#191970" d="M1233.6822,-594.0036C1352.474,-580.9086 1559.8313,-558.0324 1568.0434,-557 1593.2033,-553.837 1621.536,-549.8343 1643.1452,-546.6888"/>
<polygon fill="#191970" stroke="#191970" points="1643.7825,-550.1329 1653.1699,-545.2209 1642.7683,-543.2067 1643.7825,-550.1329"/>
</g>
<!-- Node41&#45;&gt;Node43 -->
<g id="edge72" class="edge">
<title>Node41&#45;&gt;Node43</title>
<path fill="none" stroke="#191970" d="M1231.4004,-593.4994C1325.2536,-582.0938 1471.9695,-563.6681 1497.0434,-557 1499.6642,-556.303 1502.3458,-555.4706 1505.012,-554.5586"/>
<polygon fill="#191970" stroke="#191970" points="1506.3359,-557.8001 1514.4653,-551.0056 1503.8732,-551.2476 1506.3359,-557.8001"/>
</g>
<!-- Node44&#45;&gt;Node1 -->
<g id="edge78" class="edge">
<title>Node44&#45;&gt;Node1</title>
<path fill="none" stroke="#191970" d="M1358.616,-817.4509C1254.5536,-796.9316 1009.9545,-748.7008 897.4868,-726.524"/>
<polygon fill="#191970" stroke="#191970" points="897.8364,-723.0257 887.3482,-724.5249 896.4821,-729.8934 897.8364,-723.0257"/>
</g>
<!-- Node44&#45;&gt;Node5 -->
<g id="edge90" class="edge">
<title>Node44&#45;&gt;Node5</title>
<path fill="none" stroke="#191970" d="M1319.0134,-823.9429C1026.6383,-812.8619 101.6806,-770.0154 19.0434,-669 13.4151,-662.12 18.5616,-657.8758 19.0434,-649 23.2718,-571.1007 38.0434,-552.5139 38.0434,-474.5 38.0434,-474.5 38.0434,-474.5 38.0434,-301 38.0434,-199.7349 124.7577,-192.3831 223.0434,-168 336.3938,-139.8796 700.7419,-126.4597 811.6832,-122.9564"/>
<polygon fill="#191970" stroke="#191970" points="812.0179,-126.4478 821.9045,-122.6393 811.8007,-119.4512 812.0179,-126.4478"/>
</g>
<!-- Node44&#45;&gt;Node43 -->
<g id="edge91" class="edge">
<title>Node44&#45;&gt;Node43</title>
<path fill="none" stroke="#191970" d="M1457.2089,-817.4905C1494.7539,-809.2876 1541.6689,-796.3562 1554.0434,-781 1606.8632,-715.4531 1564.5921,-604.4032 1544.3339,-560.334"/>
<polygon fill="#191970" stroke="#191970" points="1547.3945,-558.6195 1539.9464,-551.0845 1541.0699,-561.6196 1547.3945,-558.6195"/>
</g>
<!-- Node45 -->
<g id="node40" class="node">
<title>Node45</title>
<g id="a_node40"><a xlink:href="Sensors_8h.html" target="_top" xlink:title="iDynTree/Sensors/Sensors.h">
<polygon fill="none" stroke="#000000" points="1393.5434,-761.5 1393.5434,-780.5 1544.5434,-780.5 1544.5434,-761.5 1393.5434,-761.5"/>
<text text-anchor="middle" x="1469.0434" y="-768.5" font-family="FreeSans.ttf" font-size="10.00" fill="#000000">iDynTree/Sensors/Sensors.h</text>
</a>
</g>
</g>
<!-- Node44&#45;&gt;Node45 -->
<g id="edge79" class="edge">
<title>Node44&#45;&gt;Node45</title>
<path fill="none" stroke="#191970" d="M1417.843,-817.2455C1426.9112,-809.0549 1440.064,-797.1749 1450.7679,-787.5069"/>
<polygon fill="#191970" stroke="#191970" points="1453.2925,-789.9429 1458.3676,-780.6427 1448.6005,-784.7482 1453.2925,-789.9429"/>
</g>
<!-- Node47 -->
<g id="node42" class="node">
<title>Node47</title>
<polygon fill="none" stroke="#bfbfbf" points="1317.0434,-761.5 1317.0434,-780.5 1375.0434,-780.5 1375.0434,-761.5 1317.0434,-761.5"/>
<text text-anchor="middle" x="1346.0434" y="-768.5" font-family="FreeSans.ttf" font-size="10.00" fill="#000000">memory</text>
</g>
<!-- Node44&#45;&gt;Node47 -->
<g id="edge89" class="edge">
<title>Node44&#45;&gt;Node47</title>
<path fill="none" stroke="#191970" d="M1396.418,-817.2455C1387.4961,-809.0549 1374.5554,-797.1749 1364.0242,-787.5069"/>
<polygon fill="#191970" stroke="#191970" points="1366.2805,-784.8271 1356.547,-780.6427 1361.5466,-789.9837 1366.2805,-784.8271"/>
</g>
<!-- Node45&#45;&gt;Node1 -->
<g id="edge87" class="edge">
<title>Node45&#45;&gt;Node1</title>
<path fill="none" stroke="#191970" d="M1393.5153,-761.9684C1390.3162,-761.632 1387.1485,-761.3076 1384.0434,-761 1185.7042,-741.3529 1135.5282,-743.1174 937.0434,-725 930.2348,-724.3785 923.1629,-723.7073 916.0759,-723.017"/>
<polygon fill="#191970" stroke="#191970" points="916.0059,-719.4932 905.7108,-721.9956 915.3193,-726.4595 916.0059,-719.4932"/>
</g>
<!-- Node45&#45;&gt;Node3 -->
<g id="edge88" class="edge">
<title>Node45&#45;&gt;Node3</title>
<path fill="none" stroke="#191970" d="M1430.2794,-761.4805C1335.8174,-738.0885 1086.4229,-675.1602 881.0434,-613 818.7472,-594.1454 747.1737,-569.3399 705.1583,-554.452"/>
<polygon fill="#191970" stroke="#191970" points="706.2379,-551.1213 695.6432,-551.0707 703.894,-557.7172 706.2379,-551.1213"/>
</g>
<!-- Node45&#45;&gt;Node5 -->
<g id="edge81" class="edge">
<title>Node45&#45;&gt;Node5</title>
<path fill="none" stroke="#191970" d="M1393.5235,-761.8802C1390.3222,-761.568 1387.1518,-761.2727 1384.0434,-761 1255.5933,-749.7309 228.0434,-787.9435 228.0434,-659 228.0434,-659 228.0434,-659 228.0434,-603 228.0434,-560.4214 249.0171,-548.6946 285.0434,-526 417.9429,-442.2806 477.4955,-487.0386 632.0434,-459 726.0794,-441.9396 772.785,-486.6873 844.0434,-423 866.8028,-402.6588 863.0434,-387.5246 863.0434,-357 863.0434,-357 863.0434,-357 863.0434,-239.5 863.0434,-204.6936 854.8181,-164.8226 849.1913,-141.6197"/>
<polygon fill="#191970" stroke="#191970" points="852.5204,-140.5065 846.6853,-131.6633 845.7321,-142.2152 852.5204,-140.5065"/>
</g>
<!-- Node45&#45;&gt;Node20 -->
<g id="edge83" class="edge">
<title>Node45&#45;&gt;Node20</title>
<path fill="none" stroke="#191970" d="M1493.0463,-761.3648C1511.7616,-753.2199 1537.8729,-740.4276 1558.0434,-725 1638.4982,-663.4632 1656.2888,-641.5647 1712.0434,-557 1813.7629,-402.7189 1883.0434,-362.7959 1883.0434,-178 1883.0434,-178 1883.0434,-178 1883.0434,-122 1883.0434,-57.133 1661.1779,-24.4489 1571.7501,-13.9096"/>
<polygon fill="#191970" stroke="#191970" points="1572.1072,-10.4276 1561.7725,-12.7612 1571.3067,-17.3817 1572.1072,-10.4276"/>
</g>
<!-- Node45&#45;&gt;Node30 -->
<g id="edge80" class="edge">
<title>Node45&#45;&gt;Node30</title>
<path fill="none" stroke="#191970" d="M1487.1489,-761.4986C1501.6295,-753.2565 1521.7967,-740.2675 1536.0434,-725 1574.7141,-683.5583 1584.0206,-668.1656 1597.0434,-613 1630.6916,-470.4641 1611.804,-410.4334 1527.0434,-291 1517.2601,-277.2147 1503.1253,-264.5656 1491.259,-255.2532"/>
<polygon fill="#191970" stroke="#191970" points="1493.2013,-252.3339 1483.1141,-249.0935 1488.9789,-257.917 1493.2013,-252.3339"/>
</g>
<!-- Node45&#45;&gt;Node43 -->
<g id="edge82" class="edge">
<title>Node45&#45;&gt;Node43</title>
<path fill="none" stroke="#191970" d="M1470.7614,-761.1745C1475.6558,-733.9791 1490.7076,-655.5902 1512.0434,-593 1515.8421,-581.8562 1521.1461,-569.8199 1525.7034,-560.1877"/>
<polygon fill="#191970" stroke="#191970" points="1528.8682,-561.6827 1530.0879,-551.1583 1522.5713,-558.625 1528.8682,-561.6827"/>
</g>
<!-- Node46 -->
<g id="node41" class="node">
<title>Node46</title>
<g id="a_node41"><a xlink:href="VectorDynSize_8h.html" target="_top" xlink:title="iDynTree/Core/VectorDynSize.h">
<polygon fill="none" stroke="#000000" points="1174.5434,-347.5 1174.5434,-366.5 1341.5434,-366.5 1341.5434,-347.5 1174.5434,-347.5"/>
<text text-anchor="middle" x="1258.0434" y="-354.5" font-family="FreeSans.ttf" font-size="10.00" fill="#000000">iDynTree/Core/VectorDynSize.h</text>
</a>
</g>
</g>
<!-- Node45&#45;&gt;Node46 -->
<g id="edge84" class="edge">
<title>Node45&#45;&gt;Node46</title>
<path fill="none" stroke="#191970" d="M1479.1992,-761.4636C1515.3823,-726.3702 1632.48,-602.4846 1568.0434,-526 1507.3135,-453.9151 1439.5989,-538.9403 1359.0434,-490 1313.3822,-462.2593 1281.1246,-405.5427 1266.6331,-375.9385"/>
<polygon fill="#191970" stroke="#191970" points="1269.6972,-374.231 1262.2553,-366.6898 1263.3701,-377.2258 1269.6972,-374.231"/>
</g>
<!-- Node46&#45;&gt;Node5 -->
<g id="edge86" class="edge">
<title>Node46&#45;&gt;Node5</title>
<path fill="none" stroke="#191970" d="M1174.4488,-348.2932C1117.4944,-340.9246 1048.3551,-328.7083 1025.0434,-311 968.3809,-267.9574 1005.0184,-216.5995 953.0434,-168 931.4798,-147.8368 899.7706,-135.8145 876.1055,-129.1476"/>
<polygon fill="#191970" stroke="#191970" points="876.7489,-125.6977 866.1869,-126.5307 874.9631,-132.4661 876.7489,-125.6977"/>
</g>
<!-- Node46&#45;&gt;Node17 -->
<g id="edge85" class="edge">
<title>Node46&#45;&gt;Node17</title>
<path fill="none" stroke="#191970" d="M1265.7513,-347.4703C1287.943,-320.212 1352.1133,-242.6843 1379.0434,-224 1452.8604,-172.7853 1515.4114,-210.5376 1559.0434,-132 1571.0023,-110.474 1545.971,-91.8521 1522.5883,-79.9287"/>
<polygon fill="#191970" stroke="#191970" points="1523.9839,-76.7163 1513.4541,-75.5434 1520.9542,-83.0267 1523.9839,-76.7163"/>
</g>
<!-- Node48&#45;&gt;Node5 -->
<g id="edge93" class="edge">
<title>Node48&#45;&gt;Node5</title>
<path fill="none" stroke="#191970" d="M79.6056,-649.3833C57.5799,-623.2521 .0434,-547.9605 .0434,-474.5 .0434,-474.5 .0434,-474.5 .0434,-301 .0434,-265.154 -.6511,-249.9831 24.0434,-224 73.6407,-171.8146 105.6437,-183.0694 176.0434,-168 299.7773,-141.5142 696.1531,-126.8091 811.976,-123.0021"/>
<polygon fill="#191970" stroke="#191970" points="812.1051,-126.4999 821.9864,-122.6774 811.8781,-119.5035 812.1051,-126.4999"/>
</g>
<!-- Node48&#45;&gt;Node32 -->
<g id="edge98" class="edge">
<title>Node48&#45;&gt;Node32</title>
<path fill="none" stroke="#191970" d="M91.6586,-649.4104C98.8027,-629.5716 114.0434,-582.4498 114.0434,-541.5 114.0434,-541.5 114.0434,-541.5 114.0434,-474.5 114.0434,-416.7802 541.2558,-373.3214 680.053,-360.7251"/>
<polygon fill="#191970" stroke="#191970" points="680.6545,-364.1853 690.3009,-359.8038 680.0277,-357.2134 680.6545,-364.1853"/>
</g>
<!-- Node49 -->
<g id="node44" class="node">
<title>Node49</title>
<g id="a_node44"><a xlink:href="Direction_8h.html" target="_top" xlink:title="iDynTree/Core/Direction.h">
<polygon fill="none" stroke="#000000" points="104.5434,-230 104.5434,-249 245.5434,-249 245.5434,-230 104.5434,-230"/>
<text text-anchor="middle" x="175.0434" y="-237" font-family="FreeSans.ttf" font-size="10.00" fill="#000000">iDynTree/Core/Direction.h</text>
</a>
</g>
</g>
<!-- Node48&#45;&gt;Node49 -->
<g id="edge94" class="edge">
<title>Node48&#45;&gt;Node49</title>
<path fill="none" stroke="#191970" d="M86.3749,-649.2853C83.0776,-629.2157 76.0434,-581.6906 76.0434,-541.5 76.0434,-541.5 76.0434,-541.5 76.0434,-474.5 76.0434,-387.5694 134.2884,-295.737 161.4272,-257.6667"/>
<polygon fill="#191970" stroke="#191970" points="164.5478,-259.3268 167.6023,-249.1818 158.888,-255.2077 164.5478,-259.3268"/>
</g>
<!-- Node50 -->
<g id="node45" class="node">
<title>Node50</title>
<g id="a_node45"><a xlink:href="JointState_8h.html" target="_top" xlink:title="iDynTree/Model/JointState.h">
<polygon fill="none" stroke="#000000" points="1251.5434,-593.5 1251.5434,-612.5 1402.5434,-612.5 1402.5434,-593.5 1251.5434,-593.5"/>
<text text-anchor="middle" x="1327.0434" y="-600.5" font-family="FreeSans.ttf" font-size="10.00" fill="#000000">iDynTree/Model/JointState.h</text>
</a>
</g>
</g>
<!-- Node48&#45;&gt;Node50 -->
<g id="edge99" class="edge">
<title>Node48&#45;&gt;Node50</title>
<path fill="none" stroke="#191970" d="M147.6492,-658.2798C317.1464,-655.8784 816.5504,-646.3518 1241.4912,-613.0664"/>
<polygon fill="#191970" stroke="#191970" points="1241.8213,-616.5513 1251.5151,-612.2757 1241.2708,-609.573 1241.8213,-616.5513"/>
</g>
<!-- Node51 -->
<g id="node46" class="node">
<title>Node51</title>
<g id="a_node46"><a xlink:href="LinkState_8h.html" target="_top" xlink:title="iDynTree/Model/LinkState.h">
<polygon fill="none" stroke="#000000" points="357.5434,-593.5 357.5434,-612.5 506.5434,-612.5 506.5434,-593.5 357.5434,-593.5"/>
<text text-anchor="middle" x="432.0434" y="-600.5" font-family="FreeSans.ttf" font-size="10.00" fill="#000000">iDynTree/Model/LinkState.h</text>
</a>
</g>
</g>
<!-- Node48&#45;&gt;Node51 -->
<g id="edge104" class="edge">
<title>Node48&#45;&gt;Node51</title>
<path fill="none" stroke="#191970" d="M146.7882,-649.4369C206.898,-639.6516 300.2285,-624.4582 363.6317,-614.1368"/>
<polygon fill="#191970" stroke="#191970" points="364.2332,-617.585 373.5409,-612.5237 363.1084,-610.676 364.2332,-617.585"/>
</g>
<!-- Node49&#45;&gt;Node5 -->
<g id="edge95" class="edge">
<title>Node49&#45;&gt;Node5</title>
<path fill="none" stroke="#191970" d="M182.7488,-229.9558C196.3816,-213.8644 226.4985,-181.7487 260.0434,-168 311.1526,-147.0524 696.0725,-128.5314 811.453,-123.4034"/>
<polygon fill="#191970" stroke="#191970" points="811.921,-126.8863 821.7572,-122.9494 811.6128,-119.8931 811.921,-126.8863"/>
</g>
<!-- Node49&#45;&gt;Node27 -->
<g id="edge96" class="edge">
<title>Node49&#45;&gt;Node27</title>
<path fill="none" stroke="#191970" d="M245.6532,-234.9352C297.7157,-231.6521 370.2738,-227.2489 434.0434,-224 810.9886,-204.7959 908.6793,-217.0564 1288.37,-188.0812"/>
<polygon fill="#191970" stroke="#191970" points="1288.8344,-191.556 1298.5371,-187.3007 1288.2985,-184.5765 1288.8344,-191.556"/>
</g>
<!-- Node49&#45;&gt;Node12 -->
<g id="edge97" class="edge">
<title>Node49&#45;&gt;Node12</title>
<path fill="none" stroke="#191970" d="M178.4396,-229.9175C184.6061,-214.0669 199.2516,-182.684 223.0434,-168 345.2905,-92.5509 784.4351,-72.557 956.3418,-67.5642"/>
<polygon fill="#191970" stroke="#191970" points="956.6403,-71.0572 966.5376,-67.2766 956.4429,-64.06 956.6403,-71.0572"/>
</g>
<!-- Node50&#45;&gt;Node27 -->
<g id="edge100" class="edge">
<title>Node50&#45;&gt;Node27</title>
<path fill="none" stroke="#191970" d="M1333.3425,-593.4387C1342.4492,-578.306 1356.9627,-548.2714 1345.0434,-526 1331.4329,-500.5686 1313.4236,-508.1969 1291.0434,-490 1225.5472,-436.7461 1121.6643,-418.8069 1166.0434,-347 1184.8525,-316.5662 1208.7173,-331.4934 1238.0434,-311 1288.7882,-275.5389 1339.4158,-222.3598 1363.8887,-195.241"/>
<polygon fill="#191970" stroke="#191970" points="1366.5641,-197.4998 1370.6153,-187.71 1361.3434,-192.8367 1366.5641,-197.4998"/>
</g>
<!-- Node50&#45;&gt;Node37 -->
<g id="edge102" class="edge">
<title>Node50&#45;&gt;Node37</title>
<path fill="none" stroke="#191970" d="M1363.508,-593.3706C1383.2422,-586.3669 1406.4901,-574.906 1421.0434,-557 1434.1667,-540.8535 1439.2071,-517.5162 1441.0858,-499.7799"/>
<polygon fill="#191970" stroke="#191970" points="1444.5935,-499.8191 1441.8911,-489.5747 1437.6152,-499.2684 1444.5935,-499.8191"/>
</g>
<!-- Node50&#45;&gt;Node43 -->
<g id="edge103" class="edge">
<title>Node50&#45;&gt;Node43</title>
<path fill="none" stroke="#191970" d="M1367.9966,-593.4209C1402.696,-584.9482 1453.5928,-571.6782 1497.0434,-557 1498.9672,-556.3501 1500.9336,-555.6528 1502.9093,-554.9267"/>
<polygon fill="#191970" stroke="#191970" points="1504.6428,-558.0094 1512.711,-551.1425 1502.1215,-551.4792 1504.6428,-558.0094"/>
</g>
<!-- Node50&#45;&gt;Node46 -->
<g id="edge101" class="edge">
<title>Node50&#45;&gt;Node46</title>
<path fill="none" stroke="#191970" d="M1345.9258,-593.3676C1359.0134,-585.5389 1375.4083,-573.1524 1383.0434,-557 1388.9314,-544.5437 1389.9588,-537.9165 1383.0434,-526 1366.8568,-498.1075 1343.1865,-512.4588 1320.0434,-490 1294.9901,-465.6875 1293.5524,-454.753 1279.0434,-423 1272.1721,-407.962 1266.6238,-390.038 1262.9597,-376.6664"/>
<polygon fill="#191970" stroke="#191970" points="1266.2599,-375.4532 1260.3373,-366.6684 1259.489,-377.2292 1266.2599,-375.4532"/>
</g>
<!-- Node51&#45;&gt;Node3 -->
<g id="edge112" class="edge">
<title>Node51&#45;&gt;Node3</title>
<path fill="none" stroke="#191970" d="M468.8146,-593.4581C510.154,-582.7308 577.3667,-565.2895 622.3756,-553.61"/>
<polygon fill="#191970" stroke="#191970" points="623.3856,-556.9639 632.1859,-551.0643 621.6274,-550.1883 623.3856,-556.9639"/>
</g>
<!-- Node51&#45;&gt;Node28 -->
<g id="edge106" class="edge">
<title>Node51&#45;&gt;Node28</title>
<path fill="none" stroke="#191970" d="M420.0122,-593.3906C408.0327,-583.8227 389.4268,-568.9621 375.1909,-557.5919"/>
<polygon fill="#191970" stroke="#191970" points="376.9881,-554.5479 366.9902,-551.0419 372.6195,-560.0175 376.9881,-554.5479"/>
</g>
<!-- Node51&#45;&gt;Node38 -->
<g id="edge107" class="edge">
<title>Node51&#45;&gt;Node38</title>
<path fill="none" stroke="#191970" d="M443.9184,-593.3906C455.6731,-583.8786 473.892,-569.1357 487.9106,-557.7917"/>
<polygon fill="#191970" stroke="#191970" points="490.429,-560.2562 496.001,-551.2449 486.0256,-554.8146 490.429,-560.2562"/>
</g>
<!-- Node51&#45;&gt;Node39 -->
<g id="edge108" class="edge">
<title>Node51&#45;&gt;Node39</title>
<path fill="none" stroke="#191970" d="M505.4263,-593.4718C569.3866,-584.8839 664.5644,-571.4212 747.0434,-557 754.0655,-555.7722 761.4332,-554.3894 768.7034,-552.9682"/>
<polygon fill="#191970" stroke="#191970" points="769.3898,-556.4003 778.5152,-551.0174 768.0246,-549.5347 769.3898,-556.4003"/>
</g>
<!-- Node51&#45;&gt;Node40 -->
<g id="edge105" class="edge">
<title>Node51&#45;&gt;Node40</title>
<path fill="none" stroke="#191970" d="M371.497,-593.4846C319.4214,-582.6676 256.8086,-561.7051 285.0434,-526 333.2433,-465.0476 555.4034,-433.5541 678.8095,-420.5071"/>
<polygon fill="#191970" stroke="#191970" points="679.3925,-423.9654 688.9771,-419.4502 678.6688,-417.0029 679.3925,-423.9654"/>
</g>
<!-- Node51&#45;&gt;Node43 -->
<g id="edge113" class="edge">
<title>Node51&#45;&gt;Node43</title>
<path fill="none" stroke="#191970" d="M506.8211,-599.525C658.6372,-592.374 1013.8896,-575.1532 1312.0434,-557 1379.1427,-552.9146 1457.5352,-547.2615 1501.2181,-544.0326"/>
<polygon fill="#191970" stroke="#191970" points="1501.576,-547.5157 1511.2897,-543.2855 1501.0582,-540.5349 1501.576,-547.5157"/>
</g>
<!-- Node52 -->
<g id="node47" class="node">
<title>Node52</title>
<g id="a_node47"><a xlink:href="ArticulatedBodyInertia_8h.html" target="_top" xlink:title="iDynTree/Core/Articulated\lBodyInertia.h">
<polygon fill="none" stroke="#000000" points="443.5434,-224.5 443.5434,-254.5 584.5434,-254.5 584.5434,-224.5 443.5434,-224.5"/>
<text text-anchor="start" x="451.5434" y="-242.5" font-family="FreeSans.ttf" font-size="10.00" fill="#000000">iDynTree/Core/Articulated</text>
<text text-anchor="middle" x="514.0434" y="-231.5" font-family="FreeSans.ttf" font-size="10.00" fill="#000000">BodyInertia.h</text>
</a>
</g>
</g>
<!-- Node51&#45;&gt;Node52 -->
<g id="edge109" class="edge">
<title>Node51&#45;&gt;Node52</title>
<path fill="none" stroke="#191970" d="M373.6144,-593.4928C333.8329,-585.6903 286.2608,-573.2816 274.0434,-557 265.7741,-545.9798 269.3365,-538.9488 274.0434,-526 316.9678,-407.9148 432.2724,-304.5488 485.8998,-261.1975"/>
<polygon fill="#191970" stroke="#191970" points="488.3275,-263.7378 493.9566,-254.7621 483.9588,-258.2684 488.3275,-263.7378"/>
</g>
<!-- Node52&#45;&gt;Node5 -->
<g id="edge111" class="edge">
<title>Node52&#45;&gt;Node5</title>
<path fill="none" stroke="#191970" d="M527.4475,-224.2843C542.9634,-207.7008 570.1155,-181.7062 599.0434,-168 636.4142,-150.2936 754.5213,-133.3886 811.9988,-125.9558"/>
<polygon fill="#191970" stroke="#191970" points="812.5162,-129.4182 821.9925,-124.6801 811.6297,-122.4746 812.5162,-129.4182"/>
</g>
<!-- Node52&#45;&gt;Node11 -->
<g id="edge110" class="edge">
<title>Node52&#45;&gt;Node11</title>
<path fill="none" stroke="#191970" d="M584.7965,-229.6233C600.3447,-227.6157 616.7361,-225.6242 632.0434,-224 800.1918,-206.1587 996.9946,-191.6365 1109.2408,-183.954"/>
<polygon fill="#191970" stroke="#191970" points="1109.7638,-187.4266 1119.5027,-183.2546 1109.2878,-180.4428 1109.7638,-187.4266"/>
</g>
<!-- Node53&#45;&gt;Node5 -->
<g id="edge119" class="edge">
<title>Node53&#45;&gt;Node5</title>
<path fill="none" stroke="#191970" d="M1830.3593,-593.3108C1806.3363,-577.7352 1756.8182,-546.7745 1712.0434,-526 1631.9591,-488.8426 1610.034,-482.8909 1525.0434,-459 1449.0188,-437.6294 1400.9077,-484.2372 1351.0434,-423 1329.7153,-396.8075 1373.2812,-372.4247 1351.0434,-347 1311.4824,-301.7695 1134.9282,-341.3123 1083.0434,-311 1014.2745,-270.8236 1039.3601,-214.9752 975.0434,-168 945.3556,-146.3169 904.5452,-134.1428 876.4023,-127.8436"/>
<polygon fill="#191970" stroke="#191970" points="876.7932,-124.3491 866.2861,-125.7094 875.3482,-131.1983 876.7932,-124.3491"/>
</g>
<!-- Node53&#45;&gt;Node18 -->
<g id="edge123" class="edge">
<title>Node53&#45;&gt;Node18</title>
<path fill="none" stroke="#191970" d="M1877.9023,-599.6047C1930.4401,-593.5756 2030.1817,-579.4777 2057.0434,-557 2087.458,-531.5492 2091.0434,-514.1584 2091.0434,-474.5 2091.0434,-474.5 2091.0434,-474.5 2091.0434,-122 2091.0434,-88.906 2081.2886,-51.4151 2074.4846,-29.2901"/>
<polygon fill="#191970" stroke="#191970" points="2077.814,-28.2105 2071.4371,-19.7497 2071.146,-30.3405 2077.814,-28.2105"/>
</g>
<!-- Node53&#45;&gt;Node22 -->
<g id="edge120" class="edge">
<title>Node53&#45;&gt;Node22</title>
<path fill="none" stroke="#191970" d="M1877.8771,-599.172C1926.0321,-592.8902 2012.4483,-578.8643 2034.0434,-557 2060.484,-530.2298 2053.0434,-512.1265 2053.0434,-474.5 2053.0434,-474.5 2053.0434,-474.5 2053.0434,-122 2053.0434,-53.3382 1960.2966,-26.0171 1903.7252,-15.7388"/>
<polygon fill="#191970" stroke="#191970" points="1904.0601,-12.2454 1893.6136,-14.0118 1902.8816,-19.1455 1904.0601,-12.2454"/>
</g>
<!-- Node53&#45;&gt;Node26 -->
<g id="edge116" class="edge">
<title>Node53&#45;&gt;Node26</title>
<path fill="none" stroke="#191970" d="M1842.4315,-593.241C1833.8462,-560.2739 1807.0434,-449.912 1807.0434,-357 1807.0434,-357 1807.0434,-357 1807.0434,-301 1807.0434,-227.0444 1768.7052,-208.8321 1707.0434,-168 1683.185,-152.2011 1607.1486,-136.7575 1560.31,-128.3976"/>
<polygon fill="#191970" stroke="#191970" points="1560.6737,-124.908 1550.219,-126.6253 1559.4628,-131.8025 1560.6737,-124.908"/>
</g>
<!-- Node53&#45;&gt;Node24 -->
<g id="edge122" class="edge">
<title>Node53&#45;&gt;Node24</title>
<path fill="none" stroke="#191970" d="M1839.9237,-593.2511C1811.8102,-539.9721 1675.1007,-284.2147 1610.0434,-224 1561.7648,-179.315 1490.2112,-148.8512 1447.9338,-133.5239"/>
<polygon fill="#191970" stroke="#191970" points="1448.9521,-130.1716 1438.3574,-130.13 1446.6137,-136.7695 1448.9521,-130.1716"/>
</g>
<!-- Node53&#45;&gt;Node25 -->
<g id="edge115" class="edge">
<title>Node53&#45;&gt;Node25</title>
<path fill="none" stroke="#191970" d="M1850.0112,-593.2942C1860.3116,-572.2416 1883.0434,-520.5628 1883.0434,-474.5 1883.0434,-474.5 1883.0434,-474.5 1883.0434,-357 1883.0434,-268.8833 1820.7438,-177.083 1792.1207,-139.5562"/>
<polygon fill="#191970" stroke="#191970" points="1794.8388,-137.35 1785.9355,-131.607 1789.3142,-141.6487 1794.8388,-137.35"/>
</g>
<!-- Node53&#45;&gt;Node42 -->
<g id="edge124" class="edge">
<title>Node53&#45;&gt;Node42</title>
<path fill="none" stroke="#191970" d="M1818.9497,-593.3906C1790.2259,-582.8127 1743.9363,-565.7659 1712.308,-554.1184"/>
<polygon fill="#191970" stroke="#191970" points="1713.1885,-550.7129 1702.5951,-550.5415 1710.7695,-557.2817 1713.1885,-550.7129"/>
</g>
<!-- Node53&#45;&gt;Node43 -->
<g id="edge117" class="edge">
<title>Node53&#45;&gt;Node43</title>
<path fill="none" stroke="#191970" d="M1812.4539,-596.5347C1753.3552,-584.8102 1629.072,-560.1541 1568.9906,-548.2347"/>
<polygon fill="#191970" stroke="#191970" points="1569.3808,-544.744 1558.8909,-546.231 1568.0186,-551.6102 1569.3808,-544.744"/>
</g>
<!-- Node54 -->
<g id="node49" class="node">
<title>Node54</title>
<polygon fill="none" stroke="#bfbfbf" points="1911.0434,-532 1911.0434,-551 1949.0434,-551 1949.0434,-532 1911.0434,-532"/>
<text text-anchor="middle" x="1930.0434" y="-539" font-family="FreeSans.ttf" font-size="10.00" fill="#000000">map</text>
</g>
<!-- Node53&#45;&gt;Node54 -->
<g id="edge118" class="edge">
<title>Node53&#45;&gt;Node54</title>
<path fill="none" stroke="#191970" d="M1858.3247,-593.3906C1871.7982,-583.6421 1892.8654,-568.3994 1908.6869,-556.9521"/>
<polygon fill="#191970" stroke="#191970" points="1910.8053,-559.7394 1916.8554,-551.0419 1906.702,-554.0682 1910.8053,-559.7394"/>
</g>
<!-- Node55 -->
<g id="node50" class="node">
<title>Node55</title>
<polygon fill="none" stroke="#bfbfbf" points="1967.5434,-532 1967.5434,-551 2024.5434,-551 2024.5434,-532 1967.5434,-532"/>
<text text-anchor="middle" x="1996.0434" y="-539" font-family="FreeSans.ttf" font-size="10.00" fill="#000000">typeinfo</text>
</g>
<!-- Node53&#45;&gt;Node55 -->
<g id="edge121" class="edge">
<title>Node53&#45;&gt;Node55</title>
<path fill="none" stroke="#191970" d="M1868.4186,-593.49C1891.2711,-584.1913 1927.0513,-569.6289 1958.0434,-557 1959.6764,-556.3346 1961.3489,-555.6529 1963.0379,-554.9644"/>
<polygon fill="#191970" stroke="#191970" points="1964.7945,-558.028 1972.7328,-551.0113 1962.1515,-551.5461 1964.7945,-558.028"/>
</g>
</g>
</svg>
