<?xml version="1.0" encoding="UTF-8" standalone="no"?>
<!DOCTYPE svg PUBLIC "-//W3C//DTD SVG 1.1//EN"
 "http://www.w3.org/Graphics/SVG/1.1/DTD/svg11.dtd">
<!-- Generated by graphviz version 2.40.1 (20161225.0304)
 -->
<!-- Title: Indices.h Pages: 1 -->
<svg width="3672pt" height="330pt"
 viewBox="0.00 0.00 3671.50 330.00" xmlns="http://www.w3.org/2000/svg" xmlns:xlink="http://www.w3.org/1999/xlink">
<g id="graph0" class="graph" transform="scale(1 1) rotate(0) translate(4 326)">
<title>Indices.h</title>
<!-- Node4 -->
<g id="node1" class="node">
<title>Node4</title>
<polygon fill="#bfbfbf" stroke="#000000" points="1760.5,-302.5 1760.5,-321.5 1820.5,-321.5 1820.5,-302.5 1760.5,-302.5"/>
<text text-anchor="middle" x="1790.5" y="-309.5" font-family="FreeSans.ttf" font-size="10.00" fill="#000000">Indices.h</text>
</g>
<!-- Node5 -->
<g id="node2" class="node">
<title>Node5</title>
<g id="a_node2"><a xlink:href="BerdyHelper_8h.html" target="_top" xlink:title="BerdyHelper.h">
<polygon fill="none" stroke="#000000" points="1849.5,-73 1849.5,-92 1935.5,-92 1935.5,-73 1849.5,-73"/>
<text text-anchor="middle" x="1892.5" y="-80" font-family="FreeSans.ttf" font-size="10.00" fill="#000000">BerdyHelper.h</text>
</a>
</g>
</g>
<!-- Node4&#45;&gt;Node5 -->
<g id="edge1" class="edge">
<title>Node4&#45;&gt;Node5</title>
<path fill="none" stroke="#191970" d="M1760.7647,-297.6307C1722.8334,-277.0847 1664.199,-236.6042 1682.5,-190 1694.9146,-158.3858 1705.8825,-152.2926 1734.5,-134 1745.3175,-127.0853 1817.4785,-104.8882 1860.4474,-92.0038"/>
<polygon fill="#191970" stroke="#191970" points="1759.4203,-300.8775 1769.9028,-302.4163 1762.6678,-294.6764 1759.4203,-300.8775"/>
</g>
<!-- Node8 -->
<g id="node5" class="node">
<title>Node8</title>
<g id="a_node5"><a xlink:href="BerdySparseMAPSolver_8h.html" target="_top" xlink:title="BerdySparseMAPSolver.h">
<polygon fill="none" stroke="#000000" points="608.5,-190.5 608.5,-209.5 746.5,-209.5 746.5,-190.5 608.5,-190.5"/>
<text text-anchor="middle" x="677.5" y="-197.5" font-family="FreeSans.ttf" font-size="10.00" fill="#000000">BerdySparseMAPSolver.h</text>
</a>
</g>
</g>
<!-- Node4&#45;&gt;Node8 -->
<g id="edge4" class="edge">
<title>Node4&#45;&gt;Node8</title>
<path fill="none" stroke="#191970" d="M1750.3792,-310.918C1580.1104,-306.2115 921.8883,-286.8219 831.5,-266 779.0606,-253.92 721.9888,-224.8321 694.3654,-209.6265"/>
<polygon fill="#191970" stroke="#191970" points="1750.3302,-314.4178 1760.4226,-311.1941 1750.5226,-307.4205 1750.3302,-314.4178"/>
</g>
<!-- Node9 -->
<g id="node6" class="node">
<title>Node9</title>
<g id="a_node6"><a xlink:href="ExternalWrenchesEstimation_8h.html" target="_top" xlink:title="ExternalWrenchesEstimation.h">
<polygon fill="none" stroke="#000000" points="2792.5,-134.5 2792.5,-153.5 2958.5,-153.5 2958.5,-134.5 2792.5,-134.5"/>
<text text-anchor="middle" x="2875.5" y="-141.5" font-family="FreeSans.ttf" font-size="10.00" fill="#000000">ExternalWrenchesEstimation.h</text>
</a>
</g>
</g>
<!-- Node4&#45;&gt;Node9 -->
<g id="edge6" class="edge">
<title>Node4&#45;&gt;Node9</title>
<path fill="none" stroke="#191970" d="M1830.7994,-309.6889C1914.6552,-304.5551 2113.896,-290.6647 2279.5,-266 2491.3038,-234.4544 2741.4556,-176.3518 2836.3586,-153.5452"/>
<polygon fill="#191970" stroke="#191970" points="1830.4556,-306.2032 1820.6848,-310.2998 1830.8776,-313.1905 1830.4556,-306.2032"/>
</g>
<!-- Node15 -->
<g id="node11" class="node">
<title>Node15</title>
<g id="a_node11"><a xlink:href="skinDynLibConversions_8h.html" target="_top" xlink:title="skinDynLibConversions.h">
<polygon fill="none" stroke="#000000" points="3523.5,-73 3523.5,-92 3663.5,-92 3663.5,-73 3523.5,-73"/>
<text text-anchor="middle" x="3593.5" y="-80" font-family="FreeSans.ttf" font-size="10.00" fill="#000000">skinDynLibConversions.h</text>
</a>
</g>
</g>
<!-- Node4&#45;&gt;Node15 -->
<g id="edge27" class="edge">
<title>Node4&#45;&gt;Node15</title>
<path fill="none" stroke="#191970" d="M1830.7898,-310.3475C1940.5309,-305.6497 2253.9056,-290.9225 2513.5,-266 2902.012,-228.7007 3004.3691,-242.5062 3384.5,-154 3453.7848,-137.8684 3532.398,-107.5733 3570.4422,-92.1108"/>
<polygon fill="#191970" stroke="#191970" points="1830.3563,-306.8627 1820.5137,-310.7835 1830.6531,-313.8564 1830.3563,-306.8627"/>
</g>
<!-- Node17 -->
<g id="node13" class="node">
<title>Node17</title>
<g id="a_node13"><a xlink:href="SimpleLeggedOdometry_8h.html" target="_top" xlink:title="SimpleLeggedOdometry.h">
<polygon fill="none" stroke="#000000" points="511.5,-73 511.5,-92 653.5,-92 653.5,-73 511.5,-73"/>
<text text-anchor="middle" x="582.5" y="-80" font-family="FreeSans.ttf" font-size="10.00" fill="#000000">SimpleLeggedOdometry.h</text>
</a>
</g>
</g>
<!-- Node4&#45;&gt;Node17 -->
<g id="edge15" class="edge">
<title>Node4&#45;&gt;Node17</title>
<path fill="none" stroke="#191970" d="M1750.0095,-308.8705C1675.8184,-302.8301 1513.2268,-288.1725 1377.5,-266 1145.0393,-228.025 1088.6896,-208.3342 859.5,-154 772.2697,-133.3202 670.3413,-106.257 617.8067,-92.0926"/>
<polygon fill="#191970" stroke="#191970" points="1750.0519,-312.3851 1760.3006,-309.699 1750.6137,-305.4077 1750.0519,-312.3851"/>
</g>
<!-- Node18 -->
<g id="node14" class="node">
<title>Node18</title>
<g id="a_node14"><a xlink:href="SimpleLeggedOdometry_8cpp.html" target="_top" xlink:title="SimpleLeggedOdometry.cpp">
<polygon fill="none" stroke="#000000" points="506,-6 506,-25 659,-25 659,-6 506,-6"/>
<text text-anchor="middle" x="582.5" y="-13" font-family="FreeSans.ttf" font-size="10.00" fill="#000000">SimpleLeggedOdometry.cpp</text>
</a>
</g>
</g>
<!-- Node4&#45;&gt;Node18 -->
<g id="edge17" class="edge">
<title>Node4&#45;&gt;Node18</title>
<path fill="none" stroke="#191970" d="M1750.2289,-311.8083C1577.0813,-310.7561 895.1829,-304.2195 684.5,-266 527.5409,-237.5264 494.617,-205.0938 343.5,-154 307.6154,-141.8671 204.449,-128.8732 182.5,-98 174.5167,-86.7708 173.4009,-77.3457 182.5,-67 203.4818,-43.1436 395.7756,-27.2279 505.9197,-19.9849"/>
<polygon fill="#191970" stroke="#191970" points="1750.4064,-315.3093 1760.4266,-311.8674 1750.4471,-308.3094 1750.4064,-315.3093"/>
</g>
<!-- Node19 -->
<g id="node15" class="node">
<title>Node19</title>
<g id="a_node15"><a xlink:href="KinDynComputations_8h.html" target="_top" xlink:title="KinDynComputations.h">
<polygon fill="none" stroke="#000000" points="1013,-134.5 1013,-153.5 1142,-153.5 1142,-134.5 1013,-134.5"/>
<text text-anchor="middle" x="1077.5" y="-141.5" font-family="FreeSans.ttf" font-size="10.00" fill="#000000">KinDynComputations.h</text>
</a>
</g>
</g>
<!-- Node4&#45;&gt;Node19 -->
<g id="edge18" class="edge">
<title>Node4&#45;&gt;Node19</title>
<path fill="none" stroke="#191970" d="M1750.4526,-303.5652C1707.9642,-294.5472 1638.9028,-279.6914 1579.5,-266 1405.7961,-225.964 1199.2297,-174.5582 1115.5269,-153.5685"/>
<polygon fill="#191970" stroke="#191970" points="1749.8918,-307.0241 1760.4001,-305.6729 1751.3428,-300.1761 1749.8918,-307.0241"/>
</g>
<!-- Node34 -->
<g id="node23" class="node">
<title>Node34</title>
<g id="a_node23"><a xlink:href="Centroidal_8h.html" target="_top" xlink:title="Centroidal.h">
<polygon fill="none" stroke="#000000" points="1386.5,-246.5 1386.5,-265.5 1462.5,-265.5 1462.5,-246.5 1386.5,-246.5"/>
<text text-anchor="middle" x="1424.5" y="-253.5" font-family="FreeSans.ttf" font-size="10.00" fill="#000000">Centroidal.h</text>
</a>
</g>
</g>
<!-- Node4&#45;&gt;Node34 -->
<g id="edge28" class="edge">
<title>Node4&#45;&gt;Node34</title>
<path fill="none" stroke="#191970" d="M1749.9437,-306.6464C1690.0272,-298.604 1574.3793,-282.5725 1476.5,-266 1471.9679,-265.2326 1467.2225,-264.3836 1462.52,-263.514"/>
<polygon fill="#191970" stroke="#191970" points="1749.7417,-310.1504 1760.1174,-308.007 1750.6697,-303.2122 1749.7417,-310.1504"/>
</g>
<!-- Node35 -->
<g id="node24" class="node">
<title>Node35</title>
<g id="a_node24"><a xlink:href="ContactWrench_8h.html" target="_top" xlink:title="ContactWrench.h">
<polygon fill="none" stroke="#000000" points="3068,-134.5 3068,-153.5 3167,-153.5 3167,-134.5 3068,-134.5"/>
<text text-anchor="middle" x="3117.5" y="-141.5" font-family="FreeSans.ttf" font-size="10.00" fill="#000000">ContactWrench.h</text>
</a>
</g>
</g>
<!-- Node4&#45;&gt;Node35 -->
<g id="edge29" class="edge">
<title>Node4&#45;&gt;Node35</title>
<path fill="none" stroke="#191970" d="M1830.791,-310.5016C1932.1676,-306.4302 2205.9104,-293.5704 2432.5,-266 2577.9999,-248.2962 2613.1906,-235.6604 2757.5,-210 2868.3882,-190.2824 2998.3041,-166.229 3067.7396,-153.2964"/>
<polygon fill="#191970" stroke="#191970" points="1830.5393,-307.0087 1820.6854,-310.9011 1830.8159,-314.0032 1830.5393,-307.0087"/>
</g>
<!-- Node37 -->
<g id="node26" class="node">
<title>Node37</title>
<g id="a_node26"><a xlink:href="DenavitHartenberg_8h.html" target="_top" xlink:title="DenavitHartenberg.h">
<polygon fill="none" stroke="#000000" points="353,-134.5 353,-153.5 472,-153.5 472,-134.5 353,-134.5"/>
<text text-anchor="middle" x="412.5" y="-141.5" font-family="FreeSans.ttf" font-size="10.00" fill="#000000">DenavitHartenberg.h</text>
</a>
</g>
</g>
<!-- Node4&#45;&gt;Node37 -->
<g id="edge35" class="edge">
<title>Node4&#45;&gt;Node37</title>
<path fill="none" stroke="#191970" d="M1750.0284,-311.6836C1584.6946,-310.1596 960.1557,-302.0841 766.5,-266 635.1736,-241.5298 486.5762,-177.7311 433.0603,-153.5127"/>
<polygon fill="#191970" stroke="#191970" points="1750.2142,-315.1853 1760.2451,-311.7747 1750.2767,-308.1856 1750.2142,-315.1853"/>
</g>
<!-- Node40 -->
<g id="node29" class="node">
<title>Node40</title>
<g id="a_node29"><a xlink:href="Dynamics_8h.html" target="_top" xlink:title="Dynamics.h">
<polygon fill="none" stroke="#000000" points="1926.5,-134.5 1926.5,-153.5 2000.5,-153.5 2000.5,-134.5 1926.5,-134.5"/>
<text text-anchor="middle" x="1963.5" y="-141.5" font-family="FreeSans.ttf" font-size="10.00" fill="#000000">Dynamics.h</text>
</a>
</g>
</g>
<!-- Node4&#45;&gt;Node40 -->
<g id="edge39" class="edge">
<title>Node4&#45;&gt;Node40</title>
<path fill="none" stroke="#191970" d="M1799.6006,-293.258C1815.7989,-260.0199 1848.3322,-193.8574 1852.5,-190 1873.1676,-170.8715 1902.9055,-159.1254 1926.3999,-152.295"/>
<polygon fill="#191970" stroke="#191970" points="1796.3752,-291.8873 1795.1474,-302.4108 1802.6697,-294.9499 1796.3752,-291.8873"/>
</g>
<!-- Node47 -->
<g id="node34" class="node">
<title>Node47</title>
<g id="a_node34"><a xlink:href="FixedJoint_8h.html" target="_top" xlink:title="FixedJoint.h">
<polygon fill="none" stroke="#ff0000" points="134,-190.5 134,-209.5 207,-209.5 207,-190.5 134,-190.5"/>
<text text-anchor="middle" x="170.5" y="-197.5" font-family="FreeSans.ttf" font-size="10.00" fill="#000000">FixedJoint.h</text>
</a>
</g>
</g>
<!-- Node4&#45;&gt;Node47 -->
<g id="edge49" class="edge">
<title>Node4&#45;&gt;Node47</title>
<path fill="none" stroke="#191970" d="M1750.0142,-311.6621C1512.2843,-309.5708 305.8159,-297.4353 234.5,-266 207.6268,-254.1546 186.3213,-225.2413 176.4627,-209.9145"/>
<polygon fill="#191970" stroke="#191970" points="1750.2512,-315.1642 1760.2813,-311.7515 1750.3122,-308.1645 1750.2512,-315.1642"/>
</g>
<!-- Node53 -->
<g id="node36" class="node">
<title>Node53</title>
<g id="a_node36"><a xlink:href="ForwardKinematics_8h.html" target="_top" xlink:title="ForwardKinematics.h">
<polygon fill="none" stroke="#ff0000" points="1325,-134.5 1325,-153.5 1444,-153.5 1444,-134.5 1325,-134.5"/>
<text text-anchor="middle" x="1384.5" y="-141.5" font-family="FreeSans.ttf" font-size="10.00" fill="#000000">ForwardKinematics.h</text>
</a>
</g>
</g>
<!-- Node4&#45;&gt;Node53 -->
<g id="edge53" class="edge">
<title>Node4&#45;&gt;Node53</title>
<path fill="none" stroke="#191970" d="M1750.2368,-305.1027C1714.5482,-298.0951 1661.5661,-285.4736 1618.5,-266 1563.015,-240.9109 1558.5957,-217.9589 1504.5,-190 1475.1653,-174.8386 1439.6414,-161.8331 1414.8891,-153.558"/>
<polygon fill="#191970" stroke="#191970" points="1749.7955,-308.5815 1760.2738,-307.015 1751.1056,-301.7052 1749.7955,-308.5815"/>
</g>
<!-- Node56 -->
<g id="node37" class="node">
<title>Node56</title>
<g id="a_node37"><a xlink:href="FreeFloatingState_8h.html" target="_top" xlink:title="FreeFloatingState.h">
<polygon fill="none" stroke="#ff0000" points="1760.5,-134.5 1760.5,-153.5 1870.5,-153.5 1870.5,-134.5 1760.5,-134.5"/>
<text text-anchor="middle" x="1815.5" y="-141.5" font-family="FreeSans.ttf" font-size="10.00" fill="#000000">FreeFloatingState.h</text>
</a>
</g>
</g>
<!-- Node4&#45;&gt;Node56 -->
<g id="edge59" class="edge">
<title>Node4&#45;&gt;Node56</title>
<path fill="none" stroke="#191970" d="M1793.4375,-292.2601C1798.8085,-256.1669 1810.0289,-180.7656 1814.0375,-153.8279"/>
<polygon fill="#191970" stroke="#191970" points="1789.9258,-292.08 1791.9157,-302.4862 1796.8496,-293.1103 1789.9258,-292.08"/>
</g>
<!-- Node58 -->
<g id="node38" class="node">
<title>Node58</title>
<g id="a_node38"><a xlink:href="IJoint_8h.html" target="_top" xlink:title="IJoint.h">
<polygon fill="none" stroke="#ff0000" points="132.5,-246.5 132.5,-265.5 182.5,-265.5 182.5,-246.5 132.5,-246.5"/>
<text text-anchor="middle" x="157.5" y="-253.5" font-family="FreeSans.ttf" font-size="10.00" fill="#000000">IJoint.h</text>
</a>
</g>
</g>
<!-- Node4&#45;&gt;Node58 -->
<g id="edge68" class="edge">
<title>Node4&#45;&gt;Node58</title>
<path fill="none" stroke="#191970" d="M1750.4089,-311.3761C1518.5634,-307.6972 354.3632,-288.2345 196.5,-266 191.9318,-265.3566 187.1268,-264.3803 182.5108,-263.2854"/>
<polygon fill="#191970" stroke="#191970" points="1750.377,-314.8759 1760.4311,-311.5345 1750.4877,-307.8768 1750.377,-314.8759"/>
</g>
<!-- Node59 -->
<g id="node39" class="node">
<title>Node59</title>
<g id="a_node39"><a xlink:href="Model_8h.html" target="_top" xlink:title="Model.h">
<polygon fill="none" stroke="#ff0000" points="2042,-190.5 2042,-209.5 2097,-209.5 2097,-190.5 2042,-190.5"/>
<text text-anchor="middle" x="2069.5" y="-197.5" font-family="FreeSans.ttf" font-size="10.00" fill="#000000">Model.h</text>
</a>
</g>
</g>
<!-- Node4&#45;&gt;Node59 -->
<g id="edge117" class="edge">
<title>Node4&#45;&gt;Node59</title>
<path fill="none" stroke="#191970" d="M1830.9506,-308.0303C1889.9588,-301.5991 1996.0449,-287.4222 2027.5,-266 2047.9306,-252.0859 2060.5396,-224.5974 2066.122,-209.8682"/>
<polygon fill="#191970" stroke="#191970" points="1830.4305,-304.5658 1820.8572,-309.1049 1831.1716,-311.5265 1830.4305,-304.5658"/>
</g>
<!-- Node84 -->
<g id="node40" class="node">
<title>Node84</title>
<g id="a_node40"><a xlink:href="Sensors_8h.html" target="_top" xlink:title="Sensors.h">
<polygon fill="none" stroke="#ff0000" points="2596.5,-134.5 2596.5,-153.5 2660.5,-153.5 2660.5,-134.5 2596.5,-134.5"/>
<text text-anchor="middle" x="2628.5" y="-141.5" font-family="FreeSans.ttf" font-size="10.00" fill="#000000">Sensors.h</text>
</a>
</g>
</g>
<!-- Node4&#45;&gt;Node84 -->
<g id="edge143" class="edge">
<title>Node4&#45;&gt;Node84</title>
<path fill="none" stroke="#191970" d="M1830.8651,-310.9133C1895.3828,-308.2108 2025.101,-298.7939 2129.5,-266 2148.0843,-260.1623 2150.175,-252.6068 2168.5,-246 2323.9436,-189.957 2520.4828,-158.8497 2596.4814,-148.2199"/>
<polygon fill="#191970" stroke="#191970" points="1830.5694,-307.4221 1820.7118,-311.3051 1830.8394,-314.4168 1830.5694,-307.4221"/>
</g>
<!-- Node115 -->
<g id="node41" class="node">
<title>Node115</title>
<g id="a_node41"><a xlink:href="Jacobians_8h.html" target="_top" xlink:title="Jacobians.h">
<polygon fill="none" stroke="#ff0000" points="1556.5,-190.5 1556.5,-209.5 1628.5,-209.5 1628.5,-190.5 1556.5,-190.5"/>
<text text-anchor="middle" x="1592.5" y="-197.5" font-family="FreeSans.ttf" font-size="10.00" fill="#000000">Jacobians.h</text>
</a>
</g>
</g>
<!-- Node4&#45;&gt;Node115 -->
<g id="edge94" class="edge">
<title>Node4&#45;&gt;Node115</title>
<path fill="none" stroke="#191970" d="M1750.1059,-306.3731C1718.5384,-300.4262 1674.7543,-288.6347 1642.5,-266 1621.0843,-250.9714 1604.8474,-223.953 1597.2499,-209.5888"/>
<polygon fill="#191970" stroke="#191970" points="1749.8528,-309.8824 1760.3088,-308.1731 1751.069,-302.9889 1749.8528,-309.8824"/>
</g>
<!-- Node116 -->
<g id="node42" class="node">
<title>Node116</title>
<g id="a_node42"><a xlink:href="Link_8h.html" target="_top" xlink:title="Link.h">
<polygon fill="none" stroke="#ff0000" points="2074.5,-246.5 2074.5,-265.5 2120.5,-265.5 2120.5,-246.5 2074.5,-246.5"/>
<text text-anchor="middle" x="2097.5" y="-253.5" font-family="FreeSans.ttf" font-size="10.00" fill="#000000">Link.h</text>
</a>
</g>
</g>
<!-- Node4&#45;&gt;Node116 -->
<g id="edge96" class="edge">
<title>Node4&#45;&gt;Node116</title>
<path fill="none" stroke="#191970" d="M1830.6443,-306.3814C1883.586,-298.6934 1979.517,-283.7998 2060.5,-266 2065.0493,-265.0001 2069.8771,-263.7993 2074.4909,-262.5823"/>
<polygon fill="#191970" stroke="#191970" points="1830.0451,-302.9315 1820.6464,-307.8216 1831.0433,-309.86 1830.0451,-302.9315"/>
</g>
<!-- Node119 -->
<g id="node43" class="node">
<title>Node119</title>
<g id="a_node43"><a xlink:href="LinkState_8h.html" target="_top" xlink:title="LinkState.h">
<polygon fill="none" stroke="#ff0000" points="1691,-190.5 1691,-209.5 1762,-209.5 1762,-190.5 1691,-190.5"/>
<text text-anchor="middle" x="1726.5" y="-197.5" font-family="FreeSans.ttf" font-size="10.00" fill="#000000">LinkState.h</text>
</a>
</g>
</g>
<!-- Node4&#45;&gt;Node119 -->
<g id="edge98" class="edge">
<title>Node4&#45;&gt;Node119</title>
<path fill="none" stroke="#191970" d="M1779.9699,-293.5723C1766.1925,-269.4618 1742.5587,-228.1028 1731.9428,-209.5249"/>
<polygon fill="#191970" stroke="#191970" points="1777.0431,-295.505 1785.0434,-302.4509 1783.1208,-292.032 1777.0431,-295.505"/>
</g>
<!-- Node133 -->
<g id="node44" class="node">
<title>Node133</title>
<g id="a_node44"><a xlink:href="LinkTraversalsCache_8h.html" target="_top" xlink:title="LinkTraversalsCache.h">
<polygon fill="none" stroke="#ff0000" points="2243,-134.5 2243,-153.5 2368,-153.5 2368,-134.5 2243,-134.5"/>
<text text-anchor="middle" x="2305.5" y="-141.5" font-family="FreeSans.ttf" font-size="10.00" fill="#000000">LinkTraversalsCache.h</text>
</a>
</g>
</g>
<!-- Node4&#45;&gt;Node133 -->
<g id="edge112" class="edge">
<title>Node4&#45;&gt;Node133</title>
<path fill="none" stroke="#191970" d="M1814.1695,-297.0879C1856.4818,-271.1365 1948.6239,-217.7895 2033.5,-190 2071.3915,-177.5939 2175.0526,-161.867 2242.903,-152.3869"/>
<polygon fill="#191970" stroke="#191970" points="1812.1117,-294.2453 1805.449,-302.483 1815.7946,-300.1982 1812.1117,-294.2453"/>
</g>
<!-- Node110 -->
<g id="node45" class="node">
<title>Node110</title>
<g id="a_node45"><a xlink:href="PrismaticJoint_8h.html" target="_top" xlink:title="PrismaticJoint.h">
<polygon fill="none" stroke="#ff0000" points="2177,-246.5 2177,-265.5 2270,-265.5 2270,-246.5 2177,-246.5"/>
<text text-anchor="middle" x="2223.5" y="-253.5" font-family="FreeSans.ttf" font-size="10.00" fill="#000000">PrismaticJoint.h</text>
</a>
</g>
</g>
<!-- Node4&#45;&gt;Node110 -->
<g id="edge118" class="edge">
<title>Node4&#45;&gt;Node110</title>
<path fill="none" stroke="#191970" d="M1831.2805,-307.4904C1899.8065,-299.7932 2042.3555,-283.2693 2162.5,-266 2167.1739,-265.3282 2172.0431,-264.5919 2176.9025,-263.8331"/>
<polygon fill="#191970" stroke="#191970" points="1830.4813,-304.0579 1820.9328,-308.6487 1831.2601,-311.0145 1830.4813,-304.0579"/>
</g>
<!-- Node112 -->
<g id="node46" class="node">
<title>Node112</title>
<g id="a_node46"><a xlink:href="RevoluteJoint_8h.html" target="_top" xlink:title="RevoluteJoint.h">
<polygon fill="none" stroke="#ff0000" points="130.5,-134.5 130.5,-153.5 220.5,-153.5 220.5,-134.5 130.5,-134.5"/>
<text text-anchor="middle" x="175.5" y="-141.5" font-family="FreeSans.ttf" font-size="10.00" fill="#000000">RevoluteJoint.h</text>
</a>
</g>
</g>
<!-- Node4&#45;&gt;Node112 -->
<g id="edge119" class="edge">
<title>Node4&#45;&gt;Node112</title>
<path fill="none" stroke="#191970" d="M1750.1948,-311.7627C1516.1513,-310.2614 339.913,-300.9927 272.5,-266 235.0256,-246.5478 242.0366,-222.8409 215.5,-190 205.1236,-177.1586 192.54,-162.8861 184.2923,-153.6952"/>
<polygon fill="#191970" stroke="#191970" points="1750.2891,-315.2632 1760.311,-311.8264 1750.3333,-308.2634 1750.2891,-315.2632"/>
</g>
<!-- Node134 -->
<g id="node47" class="node">
<title>Node134</title>
<g id="a_node47"><a xlink:href="SolidShapes_8h.html" target="_top" xlink:title="SolidShapes.h">
<polygon fill="none" stroke="#ff0000" points="1933,-246.5 1933,-265.5 2018,-265.5 2018,-246.5 1933,-246.5"/>
<text text-anchor="middle" x="1975.5" y="-253.5" font-family="FreeSans.ttf" font-size="10.00" fill="#000000">SolidShapes.h</text>
</a>
</g>
</g>
<!-- Node4&#45;&gt;Node134 -->
<g id="edge122" class="edge">
<title>Node4&#45;&gt;Node134</title>
<path fill="none" stroke="#191970" d="M1830.246,-299.9688C1864.2075,-289.6885 1912.4212,-275.0941 1943.828,-265.5872"/>
<polygon fill="#191970" stroke="#191970" points="1829.1923,-296.6308 1820.6352,-302.878 1831.2203,-303.3306 1829.1923,-296.6308"/>
</g>
<!-- Node139 -->
<g id="node48" class="node">
<title>Node139</title>
<g id="a_node48"><a xlink:href="SubModel_8h.html" target="_top" xlink:title="SubModel.h">
<polygon fill="none" stroke="#ff0000" points="2977,-134.5 2977,-153.5 3050,-153.5 3050,-134.5 2977,-134.5"/>
<text text-anchor="middle" x="3013.5" y="-141.5" font-family="FreeSans.ttf" font-size="10.00" fill="#000000">SubModel.h</text>
</a>
</g>
</g>
<!-- Node4&#45;&gt;Node139 -->
<g id="edge124" class="edge">
<title>Node4&#45;&gt;Node139</title>
<path fill="none" stroke="#191970" d="M1830.7482,-310.0571C1923.0976,-305.3031 2157.2192,-291.5645 2351.5,-266 2627.388,-229.6972 2694.6136,-208.4529 2967.5,-154 2970.5456,-153.3923 2973.7005,-152.7446 2976.8653,-152.0823"/>
<polygon fill="#191970" stroke="#191970" points="1830.5226,-306.564 1820.7131,-310.5669 1830.8778,-313.555 1830.5226,-306.564"/>
</g>
<!-- Node140 -->
<g id="node49" class="node">
<title>Node140</title>
<g id="a_node49"><a xlink:href="Traversal_8h.html" target="_top" xlink:title="Traversal.h">
<polygon fill="none" stroke="#ff0000" points="2116.5,-134.5 2116.5,-153.5 2186.5,-153.5 2186.5,-134.5 2116.5,-134.5"/>
<text text-anchor="middle" x="2151.5" y="-141.5" font-family="FreeSans.ttf" font-size="10.00" fill="#000000">Traversal.h</text>
</a>
</g>
</g>
<!-- Node4&#45;&gt;Node140 -->
<g id="edge128" class="edge">
<title>Node4&#45;&gt;Node140</title>
<path fill="none" stroke="#191970" d="M1806.3152,-294.8165C1814.0487,-286.2735 1823.4102,-275.7211 1831.5,-266 1858.853,-233.1312 1853.8795,-212.079 1890.5,-190 1928.0316,-167.3717 2054.2331,-152.9484 2116.3559,-147.0491"/>
<polygon fill="#191970" stroke="#191970" points="1803.6447,-292.5506 1799.494,-302.2986 1808.8177,-297.2666 1803.6447,-292.5506"/>
</g>
<!-- Node141 -->
<g id="node50" class="node">
<title>Node141</title>
<g id="a_node50"><a xlink:href="Indices_8cpp.html" target="_top" xlink:title="Indices.cpp">
<polygon fill="none" stroke="#000000" points="3562,-246.5 3562,-265.5 3633,-265.5 3633,-246.5 3562,-246.5"/>
<text text-anchor="middle" x="3597.5" y="-253.5" font-family="FreeSans.ttf" font-size="10.00" fill="#000000">Indices.cpp</text>
</a>
</g>
</g>
<!-- Node4&#45;&gt;Node141 -->
<g id="edge142" class="edge">
<title>Node4&#45;&gt;Node141</title>
<path fill="none" stroke="#191970" d="M1830.8403,-311.8827C2059.9051,-311.0744 3199.0051,-305.1197 3547.5,-266 3552.1625,-265.4766 3557.0376,-264.7413 3561.8373,-263.9043"/>
<polygon fill="#191970" stroke="#191970" points="1830.6151,-308.3833 1820.6271,-311.9174 1830.639,-315.3833 1830.6151,-308.3833"/>
</g>
<!-- Node6 -->
<g id="node3" class="node">
<title>Node6</title>
<g id="a_node3"><a xlink:href="BerdyHelper_8cpp.html" target="_top" xlink:title="BerdyHelper.cpp">
<polygon fill="none" stroke="#000000" points="2267,-6 2267,-25 2364,-25 2364,-6 2267,-6"/>
<text text-anchor="middle" x="2315.5" y="-13" font-family="FreeSans.ttf" font-size="10.00" fill="#000000">BerdyHelper.cpp</text>
</a>
</g>
</g>
<!-- Node5&#45;&gt;Node6 -->
<g id="edge2" class="edge">
<title>Node5&#45;&gt;Node6</title>
<path fill="none" stroke="#191970" d="M1945.7115,-73.7605C1959.3316,-71.5393 1973.9563,-69.1681 1987.5,-67 2086.6786,-51.1231 2202.8061,-32.9998 2266.8598,-23.0439"/>
<polygon fill="#191970" stroke="#191970" points="1944.8315,-70.3577 1935.5264,-75.4239 1945.9598,-77.2662 1944.8315,-70.3577"/>
</g>
<!-- Node7 -->
<g id="node4" class="node">
<title>Node7</title>
<g id="a_node4"><a xlink:href="BerdySparseMAPSolver_8cpp.html" target="_top" xlink:title="BerdySparseMAPSolver.cpp">
<polygon fill="none" stroke="#000000" points="687,-6 687,-25 836,-25 836,-6 687,-6"/>
<text text-anchor="middle" x="761.5" y="-13" font-family="FreeSans.ttf" font-size="10.00" fill="#000000">BerdySparseMAPSolver.cpp</text>
</a>
</g>
</g>
<!-- Node5&#45;&gt;Node7 -->
<g id="edge3" class="edge">
<title>Node5&#45;&gt;Node7</title>
<path fill="none" stroke="#191970" d="M1855.344,-70.1925C1850.3972,-68.918 1845.3568,-67.7993 1840.5,-67 1408.2446,4.138 1291.3825,-74.7242 855.5,-31 841.3468,-29.5803 826.0945,-27.3652 812.0788,-25.0493"/>
<polygon fill="#191970" stroke="#191970" points="1854.7041,-73.6479 1865.2775,-72.9747 1856.5921,-66.9073 1854.7041,-73.6479"/>
</g>
<!-- Node8&#45;&gt;Node7 -->
<g id="edge5" class="edge">
<title>Node8&#45;&gt;Node7</title>
<path fill="none" stroke="#191970" d="M640.7508,-187.1376C601.3015,-173.4594 536.7133,-151.4373 480.5,-134 424.8739,-116.7449 389.5724,-144.4965 354.5,-98 346.2031,-87.0005 345.3311,-77.2839 354.5,-67 401.0933,-14.7406 598.1609,-40.6984 667.5,-31 680.1129,-29.2358 693.6424,-27.1307 706.3962,-25.0492"/>
<polygon fill="#191970" stroke="#191970" points="639.6234,-190.451 650.2182,-190.4274 641.9211,-183.8389 639.6234,-190.451"/>
</g>
<!-- Node9&#45;&gt;Node6 -->
<g id="edge10" class="edge">
<title>Node9&#45;&gt;Node6</title>
<path fill="none" stroke="#191970" d="M2963.2728,-133.1091C3029.6772,-123.9661 3111.1707,-110.4398 3121.5,-98 3130.3016,-87.4 3130.9266,-77.0482 3121.5,-67 3108.4664,-53.107 2536.4357,-25.6758 2364.1176,-17.7145"/>
<polygon fill="#191970" stroke="#191970" points="2962.6145,-129.6663 2953.1773,-134.4818 2963.5577,-136.6025 2962.6145,-129.6663"/>
</g>
<!-- Node10 -->
<g id="node7" class="node">
<title>Node10</title>
<g id="a_node7"><a xlink:href="ExtWrenchesAndJointTorquesEstimator_8h.html" target="_top" xlink:title="ExtWrenchesAndJointTorques\lEstimator.h">
<polygon fill="none" stroke="#000000" points="2759.5,-67.5 2759.5,-97.5 2917.5,-97.5 2917.5,-67.5 2759.5,-67.5"/>
<text text-anchor="start" x="2767.5" y="-85.5" font-family="FreeSans.ttf" font-size="10.00" fill="#000000">ExtWrenchesAndJointTorques</text>
<text text-anchor="middle" x="2838.5" y="-74.5" font-family="FreeSans.ttf" font-size="10.00" fill="#000000">Estimator.h</text>
</a>
</g>
</g>
<!-- Node9&#45;&gt;Node10 -->
<g id="edge7" class="edge">
<title>Node9&#45;&gt;Node10</title>
<path fill="none" stroke="#191970" d="M2864.5529,-125.8041C2859.1385,-116.8045 2852.6821,-106.073 2847.5512,-97.5446"/>
<polygon fill="#191970" stroke="#191970" points="2861.5644,-127.6262 2869.7188,-134.3906 2867.5626,-124.0175 2861.5644,-127.6262"/>
</g>
<!-- Node11 -->
<g id="node8" class="node">
<title>Node11</title>
<g id="a_node8"><a xlink:href="ExtWrenchesAndJointTorquesEstimator_8cpp.html" target="_top" xlink:title="ExtWrenchesAndJointTorques\lEstimator.cpp">
<polygon fill="none" stroke="#000000" points="2759.5,-.5 2759.5,-30.5 2917.5,-30.5 2917.5,-.5 2759.5,-.5"/>
<text text-anchor="start" x="2767.5" y="-18.5" font-family="FreeSans.ttf" font-size="10.00" fill="#000000">ExtWrenchesAndJointTorques</text>
<text text-anchor="middle" x="2838.5" y="-7.5" font-family="FreeSans.ttf" font-size="10.00" fill="#000000">Estimator.cpp</text>
</a>
</g>
</g>
<!-- Node9&#45;&gt;Node11 -->
<g id="edge12" class="edge">
<title>Node9&#45;&gt;Node11</title>
<path fill="none" stroke="#191970" d="M2957.3739,-133.0673C3037.0515,-122.0314 3147.0802,-105.5694 3153.5,-98 3162.4117,-87.4925 3162.4218,-77.4989 3153.5,-67 3138.3393,-49.1594 3005.9165,-32.4299 2917.6613,-23.1196"/>
<polygon fill="#191970" stroke="#191970" points="2956.7558,-129.6193 2947.3275,-134.4524 2957.7119,-136.5537 2956.7558,-129.6193"/>
</g>
<!-- Node12 -->
<g id="node9" class="node">
<title>Node12</title>
<g id="a_node9"><a xlink:href="GravityCompensationHelpers_8h.html" target="_top" xlink:title="GravityCompensationHelpers.h">
<polygon fill="none" stroke="#ff0000" points="2343.5,-73 2343.5,-92 2513.5,-92 2513.5,-73 2343.5,-73"/>
<text text-anchor="middle" x="2428.5" y="-80" font-family="FreeSans.ttf" font-size="10.00" fill="#000000">GravityCompensationHelpers.h</text>
</a>
</g>
</g>
<!-- Node9&#45;&gt;Node12 -->
<g id="edge9" class="edge">
<title>Node9&#45;&gt;Node12</title>
<path fill="none" stroke="#191970" d="M2796.0518,-133.0692C2711.2591,-121.4031 2578.2675,-103.1056 2497.6482,-92.0137"/>
<polygon fill="#191970" stroke="#191970" points="2795.7629,-136.5624 2806.1467,-134.4581 2796.7171,-129.6277 2795.7629,-136.5624"/>
</g>
<!-- Node14 -->
<g id="node10" class="node">
<title>Node14</title>
<g id="a_node10"><a xlink:href="ExternalWrenchesEstimation_8cpp.html" target="_top" xlink:title="ExternalWrenchesEstimation.cpp">
<polygon fill="none" stroke="#000000" points="2935,-73 2935,-92 3112,-92 3112,-73 2935,-73"/>
<text text-anchor="middle" x="3023.5" y="-80" font-family="FreeSans.ttf" font-size="10.00" fill="#000000">ExternalWrenchesEstimation.cpp</text>
</a>
</g>
</g>
<!-- Node9&#45;&gt;Node14 -->
<g id="edge11" class="edge">
<title>Node9&#45;&gt;Node14</title>
<path fill="none" stroke="#191970" d="M2907.9985,-130.4955C2936.0044,-118.858 2975.7306,-102.3501 3000.5374,-92.0419"/>
<polygon fill="#191970" stroke="#191970" points="2906.5164,-127.3212 2898.625,-134.3906 2909.2025,-133.7853 2906.5164,-127.3212"/>
</g>
<!-- Node9&#45;&gt;Node15 -->
<g id="edge13" class="edge">
<title>Node9&#45;&gt;Node15</title>
<path fill="none" stroke="#191970" d="M2968.7612,-134.0045C3178.8037,-114.8447 3233.0717,-116.1364 3438.5,-98 3466.2473,-95.5503 3496.7582,-92.5627 3523.3171,-89.8666"/>
<polygon fill="#191970" stroke="#191970" points="2968.2789,-130.534 2958.6402,-134.9325 2968.9181,-137.5047 2968.2789,-130.534"/>
</g>
<!-- Node10&#45;&gt;Node11 -->
<g id="edge8" class="edge">
<title>Node10&#45;&gt;Node11</title>
<path fill="none" stroke="#191970" d="M2838.5,-57.0249C2838.5,-48.128 2838.5,-38.4287 2838.5,-30.6432"/>
<polygon fill="#191970" stroke="#191970" points="2835.0001,-57.2966 2838.5,-67.2967 2842.0001,-57.2967 2835.0001,-57.2966"/>
</g>
<!-- Node16 -->
<g id="node12" class="node">
<title>Node16</title>
<g id="a_node12"><a xlink:href="skinDynLibConversions_8cpp.html" target="_top" xlink:title="skinDynLibConversions.cpp">
<polygon fill="none" stroke="#000000" points="3318,-6 3318,-25 3469,-25 3469,-6 3318,-6"/>
<text text-anchor="middle" x="3393.5" y="-13" font-family="FreeSans.ttf" font-size="10.00" fill="#000000">skinDynLibConversions.cpp</text>
</a>
</g>
</g>
<!-- Node15&#45;&gt;Node16 -->
<g id="edge14" class="edge">
<title>Node15&#45;&gt;Node16</title>
<path fill="none" stroke="#191970" d="M3554.9405,-69.5826C3516.0704,-56.5611 3456.9785,-36.7653 3422.102,-25.0817"/>
<polygon fill="#191970" stroke="#191970" points="3554.251,-73.0427 3564.8449,-72.9005 3556.4746,-66.4052 3554.251,-73.0427"/>
</g>
<!-- Node17&#45;&gt;Node18 -->
<g id="edge16" class="edge">
<title>Node17&#45;&gt;Node18</title>
<path fill="none" stroke="#191970" d="M582.5,-62.6079C582.5,-50.214 582.5,-34.8263 582.5,-25.0817"/>
<polygon fill="#191970" stroke="#191970" points="579.0001,-62.9005 582.5,-72.9005 586.0001,-62.9006 579.0001,-62.9005"/>
</g>
<!-- Node20 -->
<g id="node16" class="node">
<title>Node20</title>
<g id="a_node16"><a xlink:href="KinDynComputations_8cpp.html" target="_top" xlink:title="KinDynComputations.cpp">
<polygon fill="none" stroke="#000000" points="1393.5,-73 1393.5,-92 1533.5,-92 1533.5,-73 1393.5,-73"/>
<text text-anchor="middle" x="1463.5" y="-80" font-family="FreeSans.ttf" font-size="10.00" fill="#000000">KinDynComputations.cpp</text>
</a>
</g>
</g>
<!-- Node19&#45;&gt;Node20 -->
<g id="edge19" class="edge">
<title>Node19&#45;&gt;Node20</title>
<path fill="none" stroke="#191970" d="M1147.4503,-132.8551C1220.7266,-121.1802 1334.5951,-103.038 1403.7881,-92.0137"/>
<polygon fill="#191970" stroke="#191970" points="1146.7137,-129.4282 1137.389,-134.4581 1147.8151,-136.341 1146.7137,-129.4282"/>
</g>
<!-- Node21 -->
<g id="node17" class="node">
<title>Node21</title>
<g id="a_node17"><a xlink:href="InverseKinematicsData_8h.html" target="_top" xlink:title="InverseKinematicsData.h">
<polygon fill="none" stroke="#ff0000" points="1007.5,-73 1007.5,-92 1147.5,-92 1147.5,-73 1007.5,-73"/>
<text text-anchor="middle" x="1077.5" y="-80" font-family="FreeSans.ttf" font-size="10.00" fill="#000000">InverseKinematicsData.h</text>
</a>
</g>
</g>
<!-- Node19&#45;&gt;Node21 -->
<g id="edge20" class="edge">
<title>Node19&#45;&gt;Node21</title>
<path fill="none" stroke="#191970" d="M1077.5,-124.2462C1077.5,-113.5519 1077.5,-100.814 1077.5,-92.2449"/>
<polygon fill="#191970" stroke="#191970" points="1074.0001,-124.3906 1077.5,-134.3906 1081.0001,-124.3907 1074.0001,-124.3906"/>
</g>
<!-- Node24 -->
<g id="node18" class="node">
<title>Node24</title>
<g id="a_node18"><a xlink:href="idyntree-model-info_8cpp.html" target="_top" xlink:title="idyntree&#45;model&#45;info.cpp">
<polygon fill="none" stroke="#000000" points="1165.5,-73 1165.5,-92 1299.5,-92 1299.5,-73 1165.5,-73"/>
<text text-anchor="middle" x="1232.5" y="-80" font-family="FreeSans.ttf" font-size="10.00" fill="#000000">idyntree&#45;model&#45;info.cpp</text>
</a>
</g>
</g>
<!-- Node19&#45;&gt;Node24 -->
<g id="edge21" class="edge">
<title>Node19&#45;&gt;Node24</title>
<path fill="none" stroke="#191970" d="M1111.1521,-130.6477C1140.5024,-119.0023 1182.3577,-102.3952 1208.4513,-92.0419"/>
<polygon fill="#191970" stroke="#191970" points="1109.723,-127.4492 1101.7188,-134.3906 1112.3047,-133.9558 1109.723,-127.4492"/>
</g>
<!-- Node25 -->
<g id="node19" class="node">
<title>Node25</title>
<g id="a_node19"><a xlink:href="ObserverThread_8h.html" target="_top" xlink:title="ObserverThread.h">
<polygon fill="none" stroke="#ff0000" points="709.5,-73 709.5,-92 813.5,-92 813.5,-73 709.5,-73"/>
<text text-anchor="middle" x="761.5" y="-80" font-family="FreeSans.ttf" font-size="10.00" fill="#000000">ObserverThread.h</text>
</a>
</g>
</g>
<!-- Node19&#45;&gt;Node25 -->
<g id="edge22" class="edge">
<title>Node19&#45;&gt;Node25</title>
<path fill="none" stroke="#191970" d="M1011.1181,-132.6931C960.638,-123.8752 889.5315,-110.9829 827.5,-98 818.8597,-96.1916 809.6172,-94.1125 800.867,-92.0764"/>
<polygon fill="#191970" stroke="#191970" points="1010.7959,-136.1895 1021.248,-134.4562 1011.9963,-129.2932 1010.7959,-136.1895"/>
</g>
<!-- Node30 -->
<g id="node20" class="node">
<title>Node30</title>
<g id="a_node20"><a xlink:href="urdf2dh_8cpp.html" target="_top" xlink:title="urdf2dh.cpp">
<polygon fill="none" stroke="#000000" points="126.5,-6 126.5,-25 200.5,-25 200.5,-6 126.5,-6"/>
<text text-anchor="middle" x="163.5" y="-13" font-family="FreeSans.ttf" font-size="10.00" fill="#000000">urdf2dh.cpp</text>
</a>
</g>
</g>
<!-- Node19&#45;&gt;Node30 -->
<g id="edge23" class="edge">
<title>Node19&#45;&gt;Node30</title>
<path fill="none" stroke="#191970" d="M1002.7295,-135.4042C894.7953,-122.9215 707.3954,-100.9386 700.5,-98 680.449,-89.455 682.6295,-75.3584 662.5,-67 578.8491,-32.2654 301.7129,-19.9765 200.7277,-16.5893"/>
<polygon fill="#191970" stroke="#191970" points="1002.5822,-138.9104 1012.9179,-136.5816 1003.3859,-131.9567 1002.5822,-138.9104"/>
</g>
<!-- Node31 -->
<g id="node21" class="node">
<title>Node31</title>
<g id="a_node21"><a xlink:href="robotstatepublisher_8h.html" target="_top" xlink:title="robotstatepublisher.h">
<polygon fill="none" stroke="#ff0000" points="869.5,-73 869.5,-92 989.5,-92 989.5,-73 869.5,-73"/>
<text text-anchor="middle" x="929.5" y="-80" font-family="FreeSans.ttf" font-size="10.00" fill="#000000">robotstatepublisher.h</text>
</a>
</g>
</g>
<!-- Node19&#45;&gt;Node31 -->
<g id="edge24" class="edge">
<title>Node19&#45;&gt;Node31</title>
<path fill="none" stroke="#191970" d="M1045.0015,-130.4955C1016.9956,-118.858 977.2694,-102.3501 952.4626,-92.0419"/>
<polygon fill="#191970" stroke="#191970" points="1043.7975,-133.7853 1054.375,-134.3906 1046.4836,-127.3212 1043.7975,-133.7853"/>
</g>
<!-- Node33 -->
<g id="node22" class="node">
<title>Node33</title>
<g id="a_node22"><a xlink:href="robotstatepublisher_8cpp.html" target="_top" xlink:title="robotstatepublisher.cpp">
<polygon fill="none" stroke="#000000" points="864,-6 864,-25 995,-25 995,-6 864,-6"/>
<text text-anchor="middle" x="929.5" y="-13" font-family="FreeSans.ttf" font-size="10.00" fill="#000000">robotstatepublisher.cpp</text>
</a>
</g>
</g>
<!-- Node19&#45;&gt;Node33 -->
<g id="edge26" class="edge">
<title>Node19&#45;&gt;Node33</title>
<path fill="none" stroke="#191970" d="M1002.8414,-132.8806C943.75,-123.3162 869.6672,-109.3142 860.5,-98 838.8713,-71.3058 883.9794,-40.3649 911.0635,-25.0722"/>
<polygon fill="#191970" stroke="#191970" points="1002.5036,-136.371 1012.931,-134.4946 1003.6094,-129.4589 1002.5036,-136.371"/>
</g>
<!-- Node31&#45;&gt;Node33 -->
<g id="edge25" class="edge">
<title>Node31&#45;&gt;Node33</title>
<path fill="none" stroke="#191970" d="M929.5,-62.6079C929.5,-50.214 929.5,-34.8263 929.5,-25.0817"/>
<polygon fill="#191970" stroke="#191970" points="926.0001,-62.9005 929.5,-72.9005 933.0001,-62.9006 926.0001,-62.9005"/>
</g>
<!-- Node35&#45;&gt;Node10 -->
<g id="edge30" class="edge">
<title>Node35&#45;&gt;Node10</title>
<path fill="none" stroke="#191970" d="M3064.4018,-132.2956C3019.6126,-122.4227 2955.2217,-108.229 2906.6364,-97.5193"/>
<polygon fill="#191970" stroke="#191970" points="3063.6934,-135.7233 3074.2124,-134.4581 3065.2002,-128.8875 3063.6934,-135.7233"/>
</g>
<!-- Node35&#45;&gt;Node11 -->
<g id="edge32" class="edge">
<title>Node35&#45;&gt;Node11</title>
<path fill="none" stroke="#191970" d="M3152.5386,-129.8547C3165.9927,-122.4916 3179.927,-112.0383 3187.5,-98 3194.0413,-85.8741 3196.5032,-77.4293 3187.5,-67 3170.0904,-46.8329 3015.1177,-30.2887 2917.6245,-21.7593"/>
<polygon fill="#191970" stroke="#191970" points="3150.742,-126.8407 3143.385,-134.4647 3153.8906,-133.0926 3150.742,-126.8407"/>
</g>
<!-- Node35&#45;&gt;Node14 -->
<g id="edge31" class="edge">
<title>Node35&#45;&gt;Node14</title>
<path fill="none" stroke="#191970" d="M3094.2461,-128.786C3076.6694,-117.2864 3053.0832,-101.855 3038.0844,-92.0419"/>
<polygon fill="#191970" stroke="#191970" points="3092.5281,-131.8445 3102.8125,-134.3906 3096.3606,-125.9868 3092.5281,-131.8445"/>
</g>
<!-- Node35&#45;&gt;Node16 -->
<g id="edge33" class="edge">
<title>Node35&#45;&gt;Node16</title>
<path fill="none" stroke="#191970" d="M3171.964,-131.8889C3201.1759,-124.2706 3237.2776,-113.015 3267.5,-98 3288.5993,-87.5175 3290.9231,-80.1075 3310.5,-67 3333.328,-51.7157 3360.5018,-35.1523 3377.3797,-25.0493"/>
<polygon fill="#191970" stroke="#191970" points="3170.7719,-128.5804 3161.9396,-134.4321 3172.4933,-135.3654 3170.7719,-128.5804"/>
</g>
<!-- Node36 -->
<g id="node25" class="node">
<title>Node36</title>
<g id="a_node25"><a xlink:href="ContactWrench_8cpp.html" target="_top" xlink:title="ContactWrench.cpp">
<polygon fill="none" stroke="#000000" points="3319.5,-73 3319.5,-92 3429.5,-92 3429.5,-73 3319.5,-73"/>
<text text-anchor="middle" x="3374.5" y="-80" font-family="FreeSans.ttf" font-size="10.00" fill="#000000">ContactWrench.cpp</text>
</a>
</g>
</g>
<!-- Node35&#45;&gt;Node36 -->
<g id="edge34" class="edge">
<title>Node35&#45;&gt;Node36</title>
<path fill="none" stroke="#191970" d="M3167.3907,-132.0612C3216.1649,-120.3895 3289.4767,-102.846 3334.5322,-92.0643"/>
<polygon fill="#191970" stroke="#191970" points="3166.2851,-128.7268 3157.3743,-134.4581 3167.9143,-135.5346 3166.2851,-128.7268"/>
</g>
<!-- Node37&#45;&gt;Node30 -->
<g id="edge38" class="edge">
<title>Node37&#45;&gt;Node30</title>
<path fill="none" stroke="#191970" d="M342.8855,-133.9614C279.5041,-124.2014 194.0752,-109.2447 182.5,-98 162.4695,-78.5414 161.7058,-42.5222 162.6434,-25.2431"/>
<polygon fill="#191970" stroke="#191970" points="342.4404,-137.4339 352.8538,-135.4818 343.4959,-130.5139 342.4404,-137.4339"/>
</g>
<!-- Node38 -->
<g id="node27" class="node">
<title>Node38</title>
<g id="a_node27"><a xlink:href="iKinConversions_8cpp.html" target="_top" xlink:title="iKinConversions.cpp">
<polygon fill="none" stroke="#000000" points="191.5,-73 191.5,-92 307.5,-92 307.5,-73 191.5,-73"/>
<text text-anchor="middle" x="249.5" y="-80" font-family="FreeSans.ttf" font-size="10.00" fill="#000000">iKinConversions.cpp</text>
</a>
</g>
</g>
<!-- Node37&#45;&gt;Node38 -->
<g id="edge36" class="edge">
<title>Node37&#45;&gt;Node38</title>
<path fill="none" stroke="#191970" d="M377.5129,-130.7993C346.6289,-119.1468 302.3496,-102.4402 274.7899,-92.0419"/>
<polygon fill="#191970" stroke="#191970" points="376.4395,-134.1351 387.0313,-134.3906 378.9106,-127.5858 376.4395,-134.1351"/>
</g>
<!-- Node39 -->
<g id="node28" class="node">
<title>Node39</title>
<g id="a_node28"><a xlink:href="DenavitHartenberg_8cpp.html" target="_top" xlink:title="DenavitHartenberg.cpp">
<polygon fill="none" stroke="#000000" points="363.5,-73 363.5,-92 493.5,-92 493.5,-73 363.5,-73"/>
<text text-anchor="middle" x="428.5" y="-80" font-family="FreeSans.ttf" font-size="10.00" fill="#000000">DenavitHartenberg.cpp</text>
</a>
</g>
</g>
<!-- Node37&#45;&gt;Node39 -->
<g id="edge37" class="edge">
<title>Node37&#45;&gt;Node39</title>
<path fill="none" stroke="#191970" d="M417.5515,-124.5832C420.3516,-113.8205 423.7119,-100.9042 425.9648,-92.2449"/>
<polygon fill="#191970" stroke="#191970" points="414.1306,-123.8315 415,-134.3906 420.9051,-125.594 414.1306,-123.8315"/>
</g>
<!-- Node40&#45;&gt;Node6 -->
<g id="edge41" class="edge">
<title>Node40&#45;&gt;Node6</title>
<path fill="none" stroke="#191970" d="M1973.251,-125.3572C1983.6781,-107.3902 2001.9455,-80.9382 2025.5,-67 2065.5467,-43.3027 2195.2273,-27.2702 2266.8527,-19.9816"/>
<polygon fill="#191970" stroke="#191970" points="1970.0634,-123.8887 1968.2809,-134.3326 1976.1872,-127.2798 1970.0634,-123.8887"/>
</g>
<!-- Node40&#45;&gt;Node11 -->
<g id="edge42" class="edge">
<title>Node40&#45;&gt;Node11</title>
<path fill="none" stroke="#191970" d="M1984.3064,-128.0639C1995.669,-119.2895 2009.9432,-108.1501 2022.5,-98 2039.1842,-84.5136 2039.5906,-74.9914 2059.5,-67 2123.2174,-41.4246 2574.0963,-24.0716 2759.3395,-17.9473"/>
<polygon fill="#191970" stroke="#191970" points="1982.0503,-125.3837 1976.2615,-134.2572 1986.3204,-130.9304 1982.0503,-125.3837"/>
</g>
<!-- Node40&#45;&gt;Node12 -->
<g id="edge40" class="edge">
<title>Node40&#45;&gt;Node12</title>
<path fill="none" stroke="#191970" d="M2010.7589,-137.7496C2092.4221,-126.949 2260.4163,-104.7304 2356.6284,-92.0056"/>
<polygon fill="#191970" stroke="#191970" points="2010.2216,-134.2901 2000.7669,-139.0712 2011.1395,-141.2297 2010.2216,-134.2901"/>
</g>
<!-- Node40&#45;&gt;Node20 -->
<g id="edge43" class="edge">
<title>Node40&#45;&gt;Node20</title>
<path fill="none" stroke="#191970" d="M1916.0714,-138.2524C1904.1371,-136.834 1891.3516,-135.3384 1879.5,-134 1729.8215,-117.0965 1691.4367,-120.522 1542.5,-98 1531.4443,-96.3282 1519.5835,-94.1876 1508.5006,-92.0344"/>
<polygon fill="#191970" stroke="#191970" points="1915.9506,-141.7627 1926.2951,-139.473 1916.7806,-134.8121 1915.9506,-141.7627"/>
</g>
<!-- Node41 -->
<g id="node30" class="node">
<title>Node41</title>
<g id="a_node30"><a xlink:href="DynamicsLinearization_8h.html" target="_top" xlink:title="DynamicsLinearization.h">
<polygon fill="none" stroke="#ff0000" points="1785,-6 1785,-25 1922,-25 1922,-6 1785,-6"/>
<text text-anchor="middle" x="1853.5" y="-13" font-family="FreeSans.ttf" font-size="10.00" fill="#000000">DynamicsLinearization.h</text>
</a>
</g>
</g>
<!-- Node40&#45;&gt;Node41 -->
<g id="edge44" class="edge">
<title>Node40&#45;&gt;Node41</title>
<path fill="none" stroke="#191970" d="M1962.8773,-124.1674C1961.4238,-107.4181 1957.0741,-83.5796 1944.5,-67 1929.1426,-46.7505 1903.3668,-33.2467 1883.1607,-25.1665"/>
<polygon fill="#191970" stroke="#191970" points="1959.4013,-124.6785 1963.4864,-134.4541 1966.3891,-124.2647 1959.4013,-124.6785"/>
</g>
<!-- Node43 -->
<g id="node31" class="node">
<title>Node43</title>
<g id="a_node31"><a xlink:href="DynamicsLinearizationHelpers_8h.html" target="_top" xlink:title="DynamicsLinearizationHelpers.h">
<polygon fill="none" stroke="#ff0000" points="1656,-73 1656,-92 1831,-92 1831,-73 1656,-73"/>
<text text-anchor="middle" x="1743.5" y="-80" font-family="FreeSans.ttf" font-size="10.00" fill="#000000">DynamicsLinearizationHelpers.h</text>
</a>
</g>
</g>
<!-- Node40&#45;&gt;Node43 -->
<g id="edge45" class="edge">
<title>Node40&#45;&gt;Node43</title>
<path fill="none" stroke="#191970" d="M1919.4889,-131.6969C1877.7141,-120.0189 1815.7968,-102.7103 1777.6336,-92.0419"/>
<polygon fill="#191970" stroke="#191970" points="1918.5519,-135.0691 1929.125,-134.3906 1920.4365,-128.3275 1918.5519,-135.0691"/>
</g>
<!-- Node45 -->
<g id="node32" class="node">
<title>Node45</title>
<g id="a_node32"><a xlink:href="Dynamics_8cpp.html" target="_top" xlink:title="Dynamics.cpp">
<polygon fill="none" stroke="#000000" points="1551.5,-73 1551.5,-92 1637.5,-92 1637.5,-73 1551.5,-73"/>
<text text-anchor="middle" x="1594.5" y="-80" font-family="FreeSans.ttf" font-size="10.00" fill="#000000">Dynamics.cpp</text>
</a>
</g>
</g>
<!-- Node40&#45;&gt;Node45 -->
<g id="edge47" class="edge">
<title>Node40&#45;&gt;Node45</title>
<path fill="none" stroke="#191970" d="M1916.3755,-134.6566C1915.0706,-134.4311 1913.7768,-134.2117 1912.5,-134 1795.2415,-114.5565 1763.754,-122.7508 1647.5,-98 1639.9049,-96.383 1631.8101,-94.2375 1624.2922,-92.0598"/>
<polygon fill="#191970" stroke="#191970" points="1916.0367,-138.1519 1926.4989,-136.4806 1917.278,-131.2628 1916.0367,-138.1519"/>
</g>
<!-- Node46 -->
<g id="node33" class="node">
<title>Node46</title>
<g id="a_node33"><a xlink:href="PredictSensorsMeasurements_8cpp.html" target="_top" xlink:title="PredictSensorsMeasurements.cpp">
<polygon fill="none" stroke="#000000" points="2068,-73 2068,-92 2249,-92 2249,-73 2068,-73"/>
<text text-anchor="middle" x="2158.5" y="-80" font-family="FreeSans.ttf" font-size="10.00" fill="#000000">PredictSensorsMeasurements.cpp</text>
</a>
</g>
</g>
<!-- Node40&#45;&gt;Node46 -->
<g id="edge48" class="edge">
<title>Node40&#45;&gt;Node46</title>
<path fill="none" stroke="#191970" d="M2003.9245,-131.2507C2040.9235,-119.5818 2094.8469,-102.5752 2128.2452,-92.0419"/>
<polygon fill="#191970" stroke="#191970" points="2002.4529,-128.0448 1993.9688,-134.3906 2004.5584,-134.7207 2002.4529,-128.0448"/>
</g>
<!-- Node43&#45;&gt;Node41 -->
<g id="edge46" class="edge">
<title>Node43&#45;&gt;Node41</title>
<path fill="none" stroke="#191970" d="M1768.0665,-67.5368C1789.3707,-54.5605 1819.5663,-36.1687 1837.7689,-25.0817"/>
<polygon fill="#191970" stroke="#191970" points="1765.9801,-64.7094 1759.2603,-72.9005 1769.6215,-70.6877 1765.9801,-64.7094"/>
</g>
<!-- Node47&#45;&gt;Node39 -->
<g id="edge52" class="edge">
<title>Node47&#45;&gt;Node39</title>
<path fill="none" stroke="#191970" d="M200.8355,-186.1844C253.8063,-162.0601 361.8626,-112.8484 407.4569,-92.0836"/>
<polygon fill="#191970" stroke="#191970" points="199.2632,-183.0545 191.6132,-190.3845 202.1645,-189.425 199.2632,-183.0545"/>
</g>
<!-- Node48 -->
<g id="node35" class="node">
<title>Node48</title>
<g id="a_node35"><a xlink:href="ModelTestUtils_8h.html" target="_top" xlink:title="ModelTestUtils.h">
<polygon fill="none" stroke="#000000" points="0,-73 0,-92 97,-92 97,-73 0,-73"/>
<text text-anchor="middle" x="48.5" y="-80" font-family="FreeSans.ttf" font-size="10.00" fill="#000000">ModelTestUtils.h</text>
</a>
</g>
</g>
<!-- Node47&#45;&gt;Node48 -->
<g id="edge50" class="edge">
<title>Node47&#45;&gt;Node48</title>
<path fill="none" stroke="#191970" d="M136.0693,-185.9469C120.211,-178.2387 101.9694,-167.4852 88.5,-154 70.2058,-135.6844 57.7064,-107.2729 52.0088,-92.3779"/>
<polygon fill="#191970" stroke="#191970" points="135.0266,-189.3212 145.5713,-190.3501 137.9697,-182.97 135.0266,-189.3212"/>
</g>
<!-- Node48&#45;&gt;Node30 -->
<g id="edge51" class="edge">
<title>Node48&#45;&gt;Node30</title>
<path fill="none" stroke="#191970" d="M73.8841,-67.711C96.1724,-54.7256 127.9385,-36.2184 147.0539,-25.0817"/>
<polygon fill="#191970" stroke="#191970" points="71.8553,-64.8423 64.9767,-72.9005 75.3792,-70.8906 71.8553,-64.8423"/>
</g>
<!-- Node53&#45;&gt;Node6 -->
<g id="edge54" class="edge">
<title>Node53&#45;&gt;Node6</title>
<path fill="none" stroke="#191970" d="M1377.911,-124.7606C1373.2898,-107.3261 1370.1956,-82.1175 1384.5,-67 1392.1621,-58.9023 2076.5456,-26.5824 2266.8751,-17.744"/>
<polygon fill="#191970" stroke="#191970" points="1374.5972,-125.8942 1380.8438,-134.4517 1381.2971,-123.8666 1374.5972,-125.8942"/>
</g>
<!-- Node53&#45;&gt;Node18 -->
<g id="edge55" class="edge">
<title>Node53&#45;&gt;Node18</title>
<path fill="none" stroke="#191970" d="M1372.8385,-126.0242C1359.6936,-107.5131 1336.4663,-79.6405 1308.5,-67 1180.718,-9.2439 817.9026,-46.1959 678.5,-31 664.4022,-29.4632 649.2201,-27.2661 635.1832,-25.0075"/>
<polygon fill="#191970" stroke="#191970" points="1370.0848,-128.1984 1378.6119,-134.4864 1375.8672,-124.2532 1370.0848,-128.1984"/>
</g>
<!-- Node53&#45;&gt;Node20 -->
<g id="edge56" class="edge">
<title>Node53&#45;&gt;Node20</title>
<path fill="none" stroke="#191970" d="M1404.8613,-128.1491C1419.54,-116.722 1438.8688,-101.6749 1451.2429,-92.0419"/>
<polygon fill="#191970" stroke="#191970" points="1402.5846,-125.4859 1396.8438,-134.3906 1406.8846,-131.0095 1402.5846,-125.4859"/>
</g>
<!-- Node53&#45;&gt;Node39 -->
<g id="edge57" class="edge">
<title>Node53&#45;&gt;Node39</title>
<path fill="none" stroke="#191970" d="M1314.6336,-140.9786C1120.2269,-132.4835 581.9984,-108.3361 502.5,-98 491.3058,-96.5446 479.2816,-94.3178 468.2482,-92.0021"/>
<polygon fill="#191970" stroke="#191970" points="1314.591,-144.4799 1324.7342,-141.4194 1314.8963,-137.4866 1314.591,-144.4799"/>
</g>
<!-- Node53&#45;&gt;Node46 -->
<g id="edge58" class="edge">
<title>Node53&#45;&gt;Node46</title>
<path fill="none" stroke="#191970" d="M1454.4859,-138.4391C1595.0413,-127.2709 1911.5163,-102.1247 2067.7435,-89.7113"/>
<polygon fill="#191970" stroke="#191970" points="1453.9608,-134.9697 1444.2695,-139.2509 1454.5153,-141.9477 1453.9608,-134.9697"/>
</g>
<!-- Node56&#45;&gt;Node5 -->
<g id="edge60" class="edge">
<title>Node56&#45;&gt;Node5</title>
<path fill="none" stroke="#191970" d="M1835.3458,-128.1491C1849.653,-116.722 1868.4924,-101.6749 1880.5532,-92.0419"/>
<polygon fill="#191970" stroke="#191970" points="1833.1606,-125.415 1827.5313,-134.3906 1837.5292,-130.8846 1833.1606,-125.415"/>
</g>
<!-- Node56&#45;&gt;Node10 -->
<g id="edge61" class="edge">
<title>Node56&#45;&gt;Node10</title>
<path fill="none" stroke="#191970" d="M1880.6584,-137.2016C1892.8916,-136.0417 1905.5804,-134.9171 1917.5,-134 2080.1675,-121.4836 2567.3128,-96.2679 2759.3907,-86.4961"/>
<polygon fill="#191970" stroke="#191970" points="1880.134,-133.7358 1870.5165,-138.1804 1880.8066,-140.7035 1880.134,-133.7358"/>
</g>
<!-- Node56&#45;&gt;Node12 -->
<g id="edge62" class="edge">
<title>Node56&#45;&gt;Node12</title>
<path fill="none" stroke="#191970" d="M1880.8099,-137.4477C1992.3323,-126.2591 2219.4082,-103.4774 2343.2648,-91.0513"/>
<polygon fill="#191970" stroke="#191970" points="1880.3103,-133.9802 1870.7097,-138.461 1881.0092,-140.9452 1880.3103,-133.9802"/>
</g>
<!-- Node56&#45;&gt;Node20 -->
<g id="edge63" class="edge">
<title>Node56&#45;&gt;Node20</title>
<path fill="none" stroke="#191970" d="M1750.2358,-133.5077C1694.8752,-124.4868 1613.3885,-110.9241 1542.5,-98 1532.3249,-96.1449 1521.4313,-94.0672 1511.0847,-92.0505"/>
<polygon fill="#191970" stroke="#191970" points="1749.8282,-136.9873 1760.2604,-135.1381 1750.9519,-130.0781 1749.8282,-136.9873"/>
</g>
<!-- Node56&#45;&gt;Node39 -->
<g id="edge65" class="edge">
<title>Node56&#45;&gt;Node39</title>
<path fill="none" stroke="#191970" d="M1750.1621,-142.0226C1493.4365,-134.2125 564.8941,-105.5707 502.5,-98 491.1635,-96.6245 478.9857,-94.3937 467.8478,-92.0479"/>
<polygon fill="#191970" stroke="#191970" points="1750.3447,-145.5296 1760.4465,-142.3352 1750.5575,-138.5329 1750.3447,-145.5296"/>
</g>
<!-- Node56&#45;&gt;Node45 -->
<g id="edge66" class="edge">
<title>Node56&#45;&gt;Node45</title>
<path fill="none" stroke="#191970" d="M1770.0071,-131.7715C1736.175,-122.6221 1688.8991,-109.7204 1647.5,-98 1640.7663,-96.0936 1633.5632,-94.0141 1626.7061,-92.0152"/>
<polygon fill="#191970" stroke="#191970" points="1769.487,-135.2564 1780.0537,-134.4851 1771.3123,-128.4985 1769.487,-135.2564"/>
</g>
<!-- Node56&#45;&gt;Node46 -->
<g id="edge67" class="edge">
<title>Node56&#45;&gt;Node46</title>
<path fill="none" stroke="#191970" d="M1878.8604,-132.6395C1944.0113,-120.9579 2044.3322,-102.9703 2105.44,-92.0137"/>
<polygon fill="#191970" stroke="#191970" points="1877.9427,-129.2481 1868.7174,-134.4581 1879.1782,-136.1382 1877.9427,-129.2481"/>
</g>
<!-- Node56&#45;&gt;Node48 -->
<g id="edge64" class="edge">
<title>Node56&#45;&gt;Node48</title>
<path fill="none" stroke="#191970" d="M1749.6679,-142.1841C1446.9323,-133.8289 202.3761,-99.4268 182.5,-98 154.1189,-95.9627 122.4937,-92.3678 97.0966,-89.1527"/>
<polygon fill="#191970" stroke="#191970" points="1749.9435,-145.693 1760.0362,-142.4703 1750.1366,-138.6956 1749.9435,-145.693"/>
</g>
<!-- Node58&#45;&gt;Node47 -->
<g id="edge69" class="edge">
<title>Node58&#45;&gt;Node47</title>
<path fill="none" stroke="#191970" d="M162.0375,-236.4538C164.1439,-227.3803 166.5536,-216.9998 168.2615,-209.6427"/>
<polygon fill="#191970" stroke="#191970" points="158.6165,-235.7131 159.7644,-246.2455 165.4351,-237.2961 158.6165,-235.7131"/>
</g>
<!-- Node58&#45;&gt;Node48 -->
<g id="edge93" class="edge">
<title>Node58&#45;&gt;Node48</title>
<path fill="none" stroke="#191970" d="M139.1287,-239.4241C119.269,-220.5583 87.9853,-187.9371 69.5,-154 58.3607,-133.5494 52.504,-106.509 50.0083,-92.2561"/>
<polygon fill="#191970" stroke="#191970" points="136.9207,-242.1507 146.6234,-246.4061 141.6922,-237.0288 136.9207,-242.1507"/>
</g>
<!-- Node58&#45;&gt;Node59 -->
<g id="edge70" class="edge">
<title>Node58&#45;&gt;Node59</title>
<path fill="none" stroke="#191970" d="M192.6711,-255.0635C365.0827,-250.4588 1138.2268,-229.6496 1771.5,-210 1871.1001,-206.9095 1989.4102,-202.8125 2041.9749,-200.9701"/>
<polygon fill="#191970" stroke="#191970" points="192.5415,-251.5656 182.6384,-255.3312 192.7283,-258.5631 192.5415,-251.5656"/>
</g>
<!-- Node59&#45;&gt;Node6 -->
<g id="edge74" class="edge">
<title>Node59&#45;&gt;Node6</title>
<path fill="none" stroke="#191970" d="M2107.4129,-194.0025C2116.2937,-192.6433 2125.7239,-191.237 2134.5,-190 2222.2455,-177.6316 2476.6133,-173.8067 2522.5,-98 2529.6346,-86.2134 2530.9852,-77.8549 2522.5,-67 2503.2279,-42.3457 2419.1891,-27.7988 2364.2948,-20.7588"/>
<polygon fill="#191970" stroke="#191970" points="2106.6604,-190.5772 2097.3122,-195.5634 2107.7295,-197.495 2106.6604,-190.5772"/>
</g>
<!-- Node59&#45;&gt;Node10 -->
<g id="edge71" class="edge">
<title>Node59&#45;&gt;Node10</title>
<path fill="none" stroke="#191970" d="M2107.2296,-198.7011C2221.4036,-194.5195 2561.9491,-180.1348 2669.5,-154 2721.5081,-141.3621 2778.0378,-114.5189 2810.7565,-97.5576"/>
<polygon fill="#191970" stroke="#191970" points="2107.0795,-195.2041 2097.2124,-199.0629 2107.3323,-202.1996 2107.0795,-195.2041"/>
</g>
<!-- Node59&#45;&gt;Node11 -->
<g id="edge76" class="edge">
<title>Node59&#45;&gt;Node11</title>
<path fill="none" stroke="#191970" d="M2107.2087,-199.608C2280.6968,-197.6349 3003.1775,-187.5223 3226.5,-154 3322.8743,-139.5335 3379.0367,-175.2101 3438.5,-98 3446.9068,-87.0842 3447.8165,-77.1504 3438.5,-67 3403.9694,-29.3786 3072.6757,-19.1851 2917.7006,-16.4671"/>
<polygon fill="#191970" stroke="#191970" points="2107.0036,-196.11 2097.0433,-199.7214 2107.0817,-203.1095 2107.0036,-196.11"/>
</g>
<!-- Node59&#45;&gt;Node12 -->
<g id="edge72" class="edge">
<title>Node59&#45;&gt;Node12</title>
<path fill="none" stroke="#191970" d="M2107.1762,-194.1086C2116.1285,-192.7351 2125.6495,-191.2958 2134.5,-190 2191.9959,-181.5818 2346.4386,-188.0862 2393.5,-154 2414.3192,-138.9209 2423.3617,-108.0092 2426.7503,-92.2319"/>
<polygon fill="#191970" stroke="#191970" points="2106.352,-190.6943 2097.0026,-195.6783 2107.4194,-197.6124 2106.352,-190.6943"/>
</g>
<!-- Node59&#45;&gt;Node14 -->
<g id="edge75" class="edge">
<title>Node59&#45;&gt;Node14</title>
<path fill="none" stroke="#191970" d="M2107.1249,-199.2261C2230.1023,-196.4146 2619.2212,-185.2132 2740.5,-154 2760.912,-148.7466 2763.5152,-140.6975 2783.5,-134 2842.1904,-114.3312 2911.5425,-100.4028 2960.564,-92.0327"/>
<polygon fill="#191970" stroke="#191970" points="2106.9828,-195.7283 2097.0635,-199.4509 2107.1392,-202.7266 2106.9828,-195.7283"/>
</g>
<!-- Node59&#45;&gt;Node16 -->
<g id="edge78" class="edge">
<title>Node59&#45;&gt;Node16</title>
<path fill="none" stroke="#191970" d="M2107.112,-199.4482C2303.2262,-196.4606 3204.205,-181.3376 3325.5,-154 3386.8711,-140.1681 3420.9171,-150.5524 3455.5,-98 3463.0739,-86.4907 3461.3538,-79.4724 3455.5,-67 3446.6416,-48.126 3427.0918,-33.7763 3412.2969,-25.0782"/>
<polygon fill="#191970" stroke="#191970" points="2106.9582,-195.95 2097.0123,-199.6008 2107.064,-202.9492 2106.9582,-195.95"/>
</g>
<!-- Node59&#45;&gt;Node17 -->
<g id="edge73" class="edge">
<title>Node59&#45;&gt;Node17</title>
<path fill="none" stroke="#191970" d="M2031.4778,-198.5733C1847.4866,-191.6419 1056.2677,-161.5103 1004.5,-154 968.2299,-148.738 960.492,-140.9126 924.5,-134 807.3412,-111.4984 776.1233,-117.9312 658.5,-98 648.1441,-96.2452 637.0434,-94.1208 626.6132,-92.0149"/>
<polygon fill="#191970" stroke="#191970" points="2031.6151,-202.0808 2041.7397,-198.9595 2031.8785,-195.0858 2031.6151,-202.0808"/>
</g>
<!-- Node59&#45;&gt;Node20 -->
<g id="edge77" class="edge">
<title>Node59&#45;&gt;Node20</title>
<path fill="none" stroke="#191970" d="M2031.5851,-195.7558C1971.7623,-188.7809 1851.9423,-173.6819 1751.5,-154 1658.7291,-135.8213 1550.9802,-106.9669 1497.3912,-92.0816"/>
<polygon fill="#191970" stroke="#191970" points="2031.359,-199.2529 2041.6945,-196.9235 2032.1622,-192.2991 2031.359,-199.2529"/>
</g>
<!-- Node59&#45;&gt;Node21 -->
<g id="edge79" class="edge">
<title>Node59&#45;&gt;Node21</title>
<path fill="none" stroke="#191970" d="M2031.3606,-198.4178C1883.5024,-192.1969 1352.6483,-169.0249 1278.5,-154 1210.2557,-140.1715 1133.8446,-108.0932 1098.0663,-92.0273"/>
<polygon fill="#191970" stroke="#191970" points="2031.5905,-201.9304 2041.7284,-198.8526 2031.8838,-194.9365 2031.5905,-201.9304"/>
</g>
<!-- Node59&#45;&gt;Node24 -->
<g id="edge92" class="edge">
<title>Node59&#45;&gt;Node24</title>
<path fill="none" stroke="#191970" d="M2031.4806,-198.3469C1883.1596,-191.8114 1349.9429,-167.4778 1316.5,-154 1283.106,-140.5419 1253.4577,-108.2899 1240.0632,-92.1057"/>
<polygon fill="#191970" stroke="#191970" points="2031.7348,-201.8613 2041.8788,-198.8036 2032.0421,-194.8681 2031.7348,-201.8613"/>
</g>
<!-- Node59&#45;&gt;Node36 -->
<g id="edge82" class="edge">
<title>Node59&#45;&gt;Node36</title>
<path fill="none" stroke="#191970" d="M2107.1552,-199.1161C2288.7705,-194.7616 3069.8607,-174.9553 3176.5,-154 3244.0994,-140.7163 3319.4996,-108.2291 3354.5617,-92.0207"/>
<polygon fill="#191970" stroke="#191970" points="2106.9391,-195.6202 2097.0254,-199.3579 2107.1061,-202.6182 2106.9391,-195.6202"/>
</g>
<!-- Node59&#45;&gt;Node37 -->
<g id="edge80" class="edge">
<title>Node59&#45;&gt;Node37</title>
<path fill="none" stroke="#191970" d="M2031.5731,-198.7182C1815.3627,-191.4112 738.7799,-155.027 472.2585,-146.0196"/>
<polygon fill="#191970" stroke="#191970" points="2031.667,-202.2233 2041.7795,-199.0632 2031.9035,-195.2273 2031.667,-202.2233"/>
</g>
<!-- Node59&#45;&gt;Node45 -->
<g id="edge83" class="edge">
<title>Node59&#45;&gt;Node45</title>
<path fill="none" stroke="#191970" d="M2031.7614,-190.7276C2000.577,-182.5587 1955.43,-169.5547 1917.5,-154 1899.8419,-146.7586 1897.6211,-139.9893 1879.5,-134 1780.4261,-101.2546 1749.3476,-120.6929 1647.5,-98 1640.0141,-96.3321 1632.0311,-94.1929 1624.5928,-92.0399"/>
<polygon fill="#191970" stroke="#191970" points="2031.2139,-194.2008 2041.7712,-193.3092 2032.9621,-187.4227 2031.2139,-194.2008"/>
</g>
<!-- Node59&#45;&gt;Node46 -->
<g id="edge91" class="edge">
<title>Node59&#45;&gt;Node46</title>
<path fill="none" stroke="#191970" d="M2107.1848,-194.1659C2116.1366,-192.7901 2125.6554,-191.3355 2134.5,-190 2188.4775,-181.8496 2341.8399,-195.3323 2377.5,-154 2383.3066,-147.2698 2383.0193,-140.9678 2377.5,-134 2360.9481,-113.1042 2299.7843,-99.8501 2246.2889,-92.0293"/>
<polygon fill="#191970" stroke="#191970" points="2106.3614,-190.7514 2097.0107,-195.7329 2107.427,-197.6698 2106.3614,-190.7514"/>
</g>
<!-- Node59&#45;&gt;Node48 -->
<g id="edge81" class="edge">
<title>Node59&#45;&gt;Node48</title>
<path fill="none" stroke="#191970" d="M2031.7239,-198.6314C1975.1549,-196.6047 1865.0743,-192.7495 1771.5,-190 1454.2028,-180.6768 658.1937,-195.6212 343.5,-154 245.0216,-140.9753 131.6252,-108.3657 78.6728,-92.0747"/>
<polygon fill="#191970" stroke="#191970" points="2031.8566,-202.1383 2041.9759,-198.9996 2032.108,-195.1428 2031.8566,-202.1383"/>
</g>
<!-- Node59&#45;&gt;Node84 -->
<g id="edge84" class="edge">
<title>Node59&#45;&gt;Node84</title>
<path fill="none" stroke="#191970" d="M2107.374,-193.7001C2116.2564,-192.354 2125.6972,-191.0295 2134.5,-190 2332.9008,-166.7978 2384.905,-183.2823 2582.5,-154 2587.0272,-153.3291 2591.775,-152.4732 2596.4301,-151.5453"/>
<polygon fill="#191970" stroke="#191970" points="2106.6167,-190.2758 2097.2749,-195.2738 2107.6946,-197.1923 2106.6167,-190.2758"/>
</g>
<!-- Node84&#45;&gt;Node5 -->
<g id="edge85" class="edge">
<title>Node84&#45;&gt;Node5</title>
<path fill="none" stroke="#191970" d="M2586.3996,-140.7685C2492.0512,-133.489 2256.4976,-115.1045 2059.5,-98 2017.4376,-94.3479 1969.4478,-89.8603 1935.7394,-86.6553"/>
<polygon fill="#191970" stroke="#191970" points="2586.166,-144.2608 2596.4054,-141.5397 2586.704,-137.2815 2586.166,-144.2608"/>
</g>
<!-- Node84&#45;&gt;Node6 -->
<g id="edge87" class="edge">
<title>Node84&#45;&gt;Node6</title>
<path fill="none" stroke="#191970" d="M2624.9536,-124.5669C2620.6542,-106.7862 2611.6046,-81.1579 2593.5,-67 2558.5072,-39.6355 2434.0261,-25.2216 2364.0914,-19.1247"/>
<polygon fill="#191970" stroke="#191970" points="2621.5519,-125.3977 2627.0552,-134.4511 2628.3989,-123.9419 2621.5519,-125.3977"/>
</g>
<!-- Node84&#45;&gt;Node10 -->
<g id="edge86" class="edge">
<title>Node84&#45;&gt;Node10</title>
<path fill="none" stroke="#191970" d="M2670.7868,-131.616C2704.2755,-121.8086 2751.1973,-108.0672 2786.8971,-97.6123"/>
<polygon fill="#191970" stroke="#191970" points="2669.4655,-128.3559 2660.8523,-134.5254 2671.4329,-135.0737 2669.4655,-128.3559"/>
</g>
<!-- Node84&#45;&gt;Node11 -->
<g id="edge89" class="edge">
<title>Node84&#45;&gt;Node11</title>
<path fill="none" stroke="#191970" d="M2655.0916,-129.3717C2670.6017,-120.6289 2690.4148,-109.0953 2707.5,-98 2727.2588,-85.1684 2730.7553,-79.8533 2750.5,-67 2770.3793,-54.0591 2793.5583,-40.5553 2811.1359,-30.6237"/>
<polygon fill="#191970" stroke="#191970" points="2653.0731,-126.4903 2646.0533,-134.4259 2656.4896,-132.6 2653.0731,-126.4903"/>
</g>
<!-- Node84&#45;&gt;Node14 -->
<g id="edge88" class="edge">
<title>Node84&#45;&gt;Node14</title>
<path fill="none" stroke="#191970" d="M2670.9085,-137.5261C2728.7101,-128.6857 2835.4598,-112.3003 2926.5,-98 2938.7143,-96.0814 2951.7902,-94.0064 2964.2599,-92.0173"/>
<polygon fill="#191970" stroke="#191970" points="2670.0562,-134.1156 2660.7001,-139.0867 2671.1142,-141.0352 2670.0562,-134.1156"/>
</g>
<!-- Node84&#45;&gt;Node46 -->
<g id="edge90" class="edge">
<title>Node84&#45;&gt;Node46</title>
<path fill="none" stroke="#191970" d="M2585.9539,-138.4328C2505.5567,-127.9127 2330.497,-105.006 2231.1504,-92.0064"/>
<polygon fill="#191970" stroke="#191970" points="2585.8254,-141.9457 2596.195,-139.7729 2586.7337,-135.0049 2585.8254,-141.9457"/>
</g>
<!-- Node115&#45;&gt;Node20 -->
<g id="edge95" class="edge">
<title>Node115&#45;&gt;Node20</title>
<path fill="none" stroke="#191970" d="M1562.7247,-185.8635C1547.592,-177.8131 1529.4954,-166.7856 1515.5,-154 1494.8757,-135.1586 1477.2941,-106.9689 1468.8531,-92.2461"/>
<polygon fill="#191970" stroke="#191970" points="1561.2072,-189.0188 1571.7007,-190.4804 1564.409,-182.7939 1561.2072,-189.0188"/>
</g>
<!-- Node116&#45;&gt;Node59 -->
<g id="edge97" class="edge">
<title>Node116&#45;&gt;Node59</title>
<path fill="none" stroke="#191970" d="M2088.0219,-237.0437C2083.4165,-227.8331 2078.0799,-217.1598 2074.3213,-209.6427"/>
<polygon fill="#191970" stroke="#191970" points="2085.0201,-238.8665 2092.6228,-246.2455 2091.2811,-235.736 2085.0201,-238.8665"/>
</g>
<!-- Node119&#45;&gt;Node5 -->
<g id="edge99" class="edge">
<title>Node119&#45;&gt;Node5</title>
<path fill="none" stroke="#191970" d="M1729.4989,-180.106C1732.6581,-165.5835 1738.9988,-146.3534 1751.5,-134 1759.6563,-125.9401 1823.2422,-104.6208 1862.1869,-92.0833"/>
<polygon fill="#191970" stroke="#191970" points="1726.0272,-179.6328 1727.6539,-190.102 1732.9109,-180.9034 1726.0272,-179.6328"/>
</g>
<!-- Node119&#45;&gt;Node9 -->
<g id="edge100" class="edge">
<title>Node119&#45;&gt;Node9</title>
<path fill="none" stroke="#191970" d="M1772.6308,-198.3776C1916.1063,-193.2308 2367.2379,-176.2864 2740.5,-154 2757.2739,-152.9985 2775.2088,-151.7763 2792.3479,-150.5349"/>
<polygon fill="#191970" stroke="#191970" points="1772.312,-194.8867 1762.4434,-198.7418 1772.5621,-201.8822 1772.312,-194.8867"/>
</g>
<!-- Node119&#45;&gt;Node11 -->
<g id="edge103" class="edge">
<title>Node119&#45;&gt;Node11</title>
<path fill="none" stroke="#191970" d="M1772.4857,-197.6845C1874.5007,-192.1928 2116.9393,-177.0855 2195.5,-154 2214.1894,-148.508 2215.8173,-139.5149 2234.5,-134 2387.871,-88.7267 2436.1632,-131.6327 2592.5,-98 2668.9068,-81.5626 2754.7403,-49.5114 2802.1274,-30.5604"/>
<polygon fill="#191970" stroke="#191970" points="1771.9962,-194.2055 1762.1961,-198.2313 1772.3678,-201.1956 1771.9962,-194.2055"/>
</g>
<!-- Node119&#45;&gt;Node14 -->
<g id="edge102" class="edge">
<title>Node119&#45;&gt;Node14</title>
<path fill="none" stroke="#191970" d="M1772.2336,-198.3764C1948.7929,-192.0254 2580.5775,-168.5016 2669.5,-154 2701.8562,-148.7233 2708.5596,-141.3875 2740.5,-134 2782.7685,-124.2238 2898.0244,-103.9946 2967.722,-92.005"/>
<polygon fill="#191970" stroke="#191970" points="1772.1001,-194.8789 1762.2321,-198.7353 1772.3512,-201.8744 1772.1001,-194.8789"/>
</g>
<!-- Node119&#45;&gt;Node17 -->
<g id="edge101" class="edge">
<title>Node119&#45;&gt;Node17</title>
<path fill="none" stroke="#191970" d="M1680.3791,-194.2968C1666.6022,-192.734 1651.4534,-191.1544 1637.5,-190 1337.6543,-165.1922 1260.0818,-191.0371 961.5,-154 915.6548,-148.3132 904.9047,-142.5169 859.5,-134 770.3008,-117.2682 747.6352,-115.0692 658.5,-98 648.713,-96.1258 638.2337,-94.04 628.2802,-92.0215"/>
<polygon fill="#191970" stroke="#191970" points="1680.2681,-197.8072 1690.6044,-195.4812 1681.0736,-190.8537 1680.2681,-197.8072"/>
</g>
<!-- Node119&#45;&gt;Node19 -->
<g id="edge104" class="edge">
<title>Node119&#45;&gt;Node19</title>
<path fill="none" stroke="#191970" d="M1680.3609,-194.5025C1666.5834,-192.9456 1651.4389,-191.3176 1637.5,-190 1429.3702,-170.3256 1376.6536,-173.4206 1168.5,-154 1159.9545,-153.2027 1150.9651,-152.2968 1142.0994,-151.3637"/>
<polygon fill="#191970" stroke="#191970" points="1680.2543,-198.0131 1690.5874,-195.6729 1681.0503,-191.0585 1680.2543,-198.0131"/>
</g>
<!-- Node119&#45;&gt;Node20 -->
<g id="edge105" class="edge">
<title>Node119&#45;&gt;Node20</title>
<path fill="none" stroke="#191970" d="M1695.5766,-186.1844C1641.5793,-162.0601 1531.4289,-112.8484 1484.9509,-92.0836"/>
<polygon fill="#191970" stroke="#191970" points="1694.4197,-189.5009 1704.9776,-190.3845 1697.2751,-183.1097 1694.4197,-189.5009"/>
</g>
<!-- Node119&#45;&gt;Node35 -->
<g id="edge106" class="edge">
<title>Node119&#45;&gt;Node35</title>
<path fill="none" stroke="#191970" d="M1772.275,-198.5058C2002.7891,-190.9705 3026.8007,-157.3673 3059.5,-154 3062.2444,-153.7174 3065.055,-153.3832 3067.8874,-153.0113"/>
<polygon fill="#191970" stroke="#191970" points="1772.0955,-195.0097 1762.2152,-198.8345 1772.3242,-202.0059 1772.0955,-195.0097"/>
</g>
<!-- Node119&#45;&gt;Node39 -->
<g id="edge110" class="edge">
<title>Node119&#45;&gt;Node39</title>
<path fill="none" stroke="#191970" d="M1680.3842,-194.2334C1666.6075,-192.6688 1651.4574,-191.1042 1637.5,-190 1290.66,-162.5611 1201.6271,-189.3112 855.5,-154 697.4694,-137.878 658.73,-126.7362 502.5,-98 492.6888,-96.1954 482.181,-94.0962 472.255,-92.0363"/>
<polygon fill="#191970" stroke="#191970" points="1680.2719,-197.7438 1690.6092,-195.4222 1681.0803,-190.7907 1680.2719,-197.7438"/>
</g>
<!-- Node119&#45;&gt;Node40 -->
<g id="edge107" class="edge">
<title>Node119&#45;&gt;Node40</title>
<path fill="none" stroke="#191970" d="M1772.0011,-189.2487C1816.8531,-178.6507 1884.562,-162.652 1926.2967,-152.7906"/>
<polygon fill="#191970" stroke="#191970" points="1771.165,-185.8498 1762.2379,-191.5556 1772.7748,-192.6622 1771.165,-185.8498"/>
</g>
<!-- Node119&#45;&gt;Node45 -->
<g id="edge111" class="edge">
<title>Node119&#45;&gt;Node45</title>
<path fill="none" stroke="#191970" d="M1708.2102,-183.7193C1680.3449,-158.915 1628.1104,-112.4184 1605.4514,-92.2484"/>
<polygon fill="#191970" stroke="#191970" points="1705.9013,-186.3498 1715.6979,-190.3845 1710.5556,-181.1212 1705.9013,-186.3498"/>
</g>
<!-- Node119&#45;&gt;Node48 -->
<g id="edge109" class="edge">
<title>Node119&#45;&gt;Node48</title>
<path fill="none" stroke="#191970" d="M1680.3986,-194.0375C1666.6223,-192.4673 1651.4689,-190.9488 1637.5,-190 1553.4477,-184.2911 199.116,-186.7588 121.5,-154 90.7735,-141.0315 65.8071,-108.55 54.7117,-92.2093"/>
<polygon fill="#191970" stroke="#191970" points="1680.2823,-197.5478 1690.6226,-195.2396 1681.0998,-190.5957 1680.2823,-197.5478"/>
</g>
<!-- Node119&#45;&gt;Node56 -->
<g id="edge108" class="edge">
<title>Node119&#45;&gt;Node56</title>
<path fill="none" stroke="#191970" d="M1750.7064,-184.769C1766.4775,-174.8456 1786.576,-162.1994 1800.175,-153.6427"/>
<polygon fill="#191970" stroke="#191970" points="1748.6026,-181.9575 1742.0026,-190.2455 1752.3305,-187.8823 1748.6026,-181.9575"/>
</g>
<!-- Node133&#45;&gt;Node5 -->
<g id="edge113" class="edge">
<title>Node133&#45;&gt;Node5</title>
<path fill="none" stroke="#191970" d="M2232.8078,-133.1754C2146.6781,-120.3498 2006.0049,-99.4021 1935.5537,-88.9111"/>
<polygon fill="#191970" stroke="#191970" points="2232.3677,-136.6484 2242.7742,-134.6595 2233.3988,-129.7247 2232.3677,-136.6484"/>
</g>
<!-- Node133&#45;&gt;Node10 -->
<g id="edge114" class="edge">
<title>Node133&#45;&gt;Node10</title>
<path fill="none" stroke="#191970" d="M2378.2121,-135.7647C2458.7388,-126.6245 2592.4074,-111.3938 2707.5,-98 2724.2199,-96.0542 2742.1375,-93.9481 2759.1868,-91.934"/>
<polygon fill="#191970" stroke="#191970" points="2377.7185,-132.2982 2368.1769,-136.9034 2378.5078,-139.2535 2377.7185,-132.2982"/>
</g>
<!-- Node133&#45;&gt;Node14 -->
<g id="edge115" class="edge">
<title>Node133&#45;&gt;Node14</title>
<path fill="none" stroke="#191970" d="M2378.4472,-140.5984C2494.6851,-134.7282 2728.9784,-121.0552 2926.5,-98 2940.3899,-96.3787 2955.3338,-94.2058 2969.2314,-92.0009"/>
<polygon fill="#191970" stroke="#191970" points="2378.062,-137.1132 2368.2495,-141.1087 2378.4119,-144.1045 2378.062,-137.1132"/>
</g>
<!-- Node133&#45;&gt;Node20 -->
<g id="edge116" class="edge">
<title>Node133&#45;&gt;Node20</title>
<path fill="none" stroke="#191970" d="M2232.6866,-137.0128C2220.2848,-135.9281 2207.5279,-134.878 2195.5,-134 1905.6084,-112.839 1830.9165,-134.0676 1542.5,-98 1530.7116,-96.5258 1518.042,-94.3218 1506.3762,-92.0351"/>
<polygon fill="#191970" stroke="#191970" points="2232.7263,-140.53 2242.9969,-137.9291 2233.346,-133.5575 2232.7263,-140.53"/>
</g>
<!-- Node112&#45;&gt;Node39 -->
<g id="edge121" class="edge">
<title>Node112&#45;&gt;Node39</title>
<path fill="none" stroke="#191970" d="M224.6142,-132.0612C272.6292,-120.3895 344.8,-102.846 389.1543,-92.0643"/>
<polygon fill="#191970" stroke="#191970" points="223.644,-128.695 214.7537,-134.4581 225.2974,-135.4969 223.644,-128.695"/>
</g>
<!-- Node112&#45;&gt;Node48 -->
<g id="edge120" class="edge">
<title>Node112&#45;&gt;Node48</title>
<path fill="none" stroke="#191970" d="M146.3443,-129.8813C122.3937,-118.2832 89.1195,-102.1701 68.2044,-92.0419"/>
<polygon fill="#191970" stroke="#191970" points="145.1305,-133.1823 155.6563,-134.3906 148.1814,-126.8821 145.1305,-133.1823"/>
</g>
<!-- Node134&#45;&gt;Node59 -->
<g id="edge123" class="edge">
<title>Node134&#45;&gt;Node59</title>
<path fill="none" stroke="#191970" d="M2000.6005,-241.0465C2017.326,-231.0824 2038.8168,-218.2794 2053.3141,-209.6427"/>
<polygon fill="#191970" stroke="#191970" points="1998.6732,-238.1206 1991.8736,-246.2455 2002.2559,-244.1343 1998.6732,-238.1206"/>
</g>
<!-- Node139&#45;&gt;Node10 -->
<g id="edge125" class="edge">
<title>Node139&#45;&gt;Node10</title>
<path fill="none" stroke="#191970" d="M2976.4071,-130.9645C2948.5801,-121.1853 2910.4311,-107.7786 2881.3098,-97.5446"/>
<polygon fill="#191970" stroke="#191970" points="2975.5614,-134.3771 2986.1563,-134.3906 2977.8823,-127.773 2975.5614,-134.3771"/>
</g>
<!-- Node139&#45;&gt;Node11 -->
<g id="edge127" class="edge">
<title>Node139&#45;&gt;Node11</title>
<path fill="none" stroke="#191970" d="M3060.2743,-133.2882C3104.0381,-122.7953 3163.6874,-107.095 3170.5,-98 3178.7599,-86.9727 3179.4646,-77.4624 3170.5,-67 3154.2282,-48.0095 3010.758,-31.3503 2917.8181,-22.4217"/>
<polygon fill="#191970" stroke="#191970" points="3059.2901,-129.9245 3050.369,-135.6398 3060.9071,-136.7352 3059.2901,-129.9245"/>
</g>
<!-- Node139&#45;&gt;Node14 -->
<g id="edge126" class="edge">
<title>Node139&#45;&gt;Node14</title>
<path fill="none" stroke="#191970" d="M3016.712,-124.2462C3018.4509,-113.5519 3020.5221,-100.814 3021.9155,-92.2449"/>
<polygon fill="#191970" stroke="#191970" points="3013.2129,-123.9585 3015.0625,-134.3906 3020.1221,-125.082 3013.2129,-123.9585"/>
</g>
<!-- Node140&#45;&gt;Node5 -->
<g id="edge129" class="edge">
<title>Node140&#45;&gt;Node5</title>
<path fill="none" stroke="#191970" d="M2106.2916,-133.2652C2057.2597,-121.6225 1979.7213,-103.2109 1932.73,-92.0527"/>
<polygon fill="#191970" stroke="#191970" points="2105.7625,-136.7368 2116.3006,-135.6418 2107.3797,-129.9262 2105.7625,-136.7368"/>
</g>
<!-- Node140&#45;&gt;Node6 -->
<g id="edge133" class="edge">
<title>Node140&#45;&gt;Node6</title>
<path fill="none" stroke="#191970" d="M2196.5146,-134.0322C2232.1717,-125.2852 2278.1349,-111.8325 2291.5,-98 2311.1933,-77.6181 2314.8746,-42.0461 2315.4638,-25.059"/>
<polygon fill="#191970" stroke="#191970" points="2195.6739,-130.6345 2186.7664,-136.371 2197.307,-137.4414 2195.6739,-130.6345"/>
</g>
<!-- Node140&#45;&gt;Node10 -->
<g id="edge130" class="edge">
<title>Node140&#45;&gt;Node10</title>
<path fill="none" stroke="#191970" d="M2196.629,-138.2523C2208.904,-136.7737 2222.2038,-135.2491 2234.5,-134 2427.501,-114.3941 2476.2397,-114.8592 2669.5,-98 2698.8519,-95.4395 2731.06,-92.5142 2759.4142,-89.8999"/>
<polygon fill="#191970" stroke="#191970" points="2196.1055,-134.7901 2186.6035,-139.4765 2196.954,-141.7385 2196.1055,-134.7901"/>
</g>
<!-- Node140&#45;&gt;Node11 -->
<g id="edge135" class="edge">
<title>Node140&#45;&gt;Node11</title>
<path fill="none" stroke="#191970" d="M2196.6933,-134.6214C2197.9748,-134.4054 2199.2457,-134.1977 2200.5,-134 2342.7467,-111.5799 2380.9112,-124.2562 2522.5,-98 2524.1202,-97.6995 2690.2003,-54.2845 2780.9042,-30.5644"/>
<polygon fill="#191970" stroke="#191970" points="2195.9821,-131.1931 2186.7602,-136.4093 2197.2221,-138.0824 2195.9821,-131.1931"/>
</g>
<!-- Node140&#45;&gt;Node12 -->
<g id="edge131" class="edge">
<title>Node140&#45;&gt;Node12</title>
<path fill="none" stroke="#191970" d="M2196.564,-133.9948C2248.7865,-122.4003 2334.2183,-103.4326 2385.5322,-92.0398"/>
<polygon fill="#191970" stroke="#191970" points="2195.5859,-130.6267 2186.5822,-136.211 2197.1032,-137.4603 2195.5859,-130.6267"/>
</g>
<!-- Node140&#45;&gt;Node14 -->
<g id="edge134" class="edge">
<title>Node140&#45;&gt;Node14</title>
<path fill="none" stroke="#191970" d="M2196.6054,-138.0008C2208.8804,-136.5225 2222.1861,-135.0609 2234.5,-134 2541.3349,-107.5655 2620.2316,-130.3435 2926.5,-98 2940.8309,-96.4866 2956.2694,-94.2835 2970.5231,-92.0109"/>
<polygon fill="#191970" stroke="#191970" points="2196.077,-134.5394 2186.5811,-139.2381 2196.9346,-141.4867 2196.077,-134.5394"/>
</g>
<!-- Node140&#45;&gt;Node16 -->
<g id="edge137" class="edge">
<title>Node140&#45;&gt;Node16</title>
<path fill="none" stroke="#191970" d="M2196.6443,-138.3972C2208.9194,-136.9185 2222.2153,-135.3576 2234.5,-134 2393.446,-116.435 2434.3107,-121.4198 2592.5,-98 2663.2895,-87.5197 2679.6078,-76.7613 2750.5,-67 2954.6345,-38.8922 3197.5005,-24.5844 3317.9652,-18.7596"/>
<polygon fill="#191970" stroke="#191970" points="2196.1236,-134.9347 2186.618,-139.6138 2196.9668,-141.8837 2196.1236,-134.9347"/>
</g>
<!-- Node140&#45;&gt;Node17 -->
<g id="edge132" class="edge">
<title>Node140&#45;&gt;Node17</title>
<path fill="none" stroke="#191970" d="M2105.991,-140.2974C2078.1459,-138.1558 2041.7848,-135.58 2009.5,-134 1428.198,-105.5512 1280.6802,-143.9599 700.5,-98 682.6831,-96.5886 663.4345,-94.3614 645.7558,-92.0308"/>
<polygon fill="#191970" stroke="#191970" points="2105.9782,-143.8069 2116.2197,-141.094 2106.5217,-136.828 2105.9782,-143.8069"/>
</g>
<!-- Node140&#45;&gt;Node20 -->
<g id="edge136" class="edge">
<title>Node140&#45;&gt;Node20</title>
<path fill="none" stroke="#191970" d="M2106.137,-140.7214C1969.6335,-130.836 1570.3411,-101.7692 1542.5,-98 1531.0042,-96.4436 1518.6583,-94.2672 1507.2221,-92.0363"/>
<polygon fill="#191970" stroke="#191970" points="2106.0327,-144.2229 2116.2594,-141.4542 2106.5382,-137.2412 2106.0327,-144.2229"/>
</g>
<!-- Node140&#45;&gt;Node33 -->
<g id="edge141" class="edge">
<title>Node140&#45;&gt;Node33</title>
<path fill="none" stroke="#191970" d="M2193.3128,-131.2998C2219.9173,-122.2781 2250.774,-109.7312 2258.5,-98 2266.0781,-86.4935 2268.0519,-76.9292 2258.5,-67 2236.3639,-43.9895 1259.8051,-22.2855 995.0925,-16.8172"/>
<polygon fill="#191970" stroke="#191970" points="2192.1526,-127.997 2183.7543,-134.4561 2194.3475,-134.644 2192.1526,-127.997"/>
</g>
<!-- Node140&#45;&gt;Node39 -->
<g id="edge138" class="edge">
<title>Node140&#45;&gt;Node39</title>
<path fill="none" stroke="#191970" d="M2105.993,-140.2556C2078.1486,-138.0988 2041.7876,-135.5217 2009.5,-134 1674.887,-118.2297 835.2649,-136.498 502.5,-98 491.0256,-96.6725 478.6958,-94.4261 467.4544,-92.0495"/>
<polygon fill="#191970" stroke="#191970" points="2105.9782,-143.7651 2116.2214,-141.0585 2106.5261,-136.7866 2105.9782,-143.7651"/>
</g>
<!-- Node140&#45;&gt;Node45 -->
<g id="edge139" class="edge">
<title>Node140&#45;&gt;Node45</title>
<path fill="none" stroke="#191970" d="M2106.1245,-140.364C1990.7063,-131.0435 1691.9166,-106.4394 1647.5,-98 1639.5886,-96.4968 1631.1628,-94.3112 1623.4119,-92.053"/>
<polygon fill="#191970" stroke="#191970" points="2106.1356,-143.8762 2116.3846,-141.1913 2106.6982,-136.8988 2106.1356,-143.8762"/>
</g>
<!-- Node140&#45;&gt;Node46 -->
<g id="edge140" class="edge">
<title>Node140&#45;&gt;Node46</title>
<path fill="none" stroke="#191970" d="M2153.7484,-124.2462C2154.9656,-113.5519 2156.4155,-100.814 2157.3908,-92.2449"/>
<polygon fill="#191970" stroke="#191970" points="2150.2472,-124.0589 2152.5938,-134.3906 2157.2023,-124.8506 2150.2472,-124.0589"/>
</g>
</g>
</svg>
