<?xml version="1.0" encoding="UTF-8" standalone="no"?>
<!DOCTYPE svg PUBLIC "-//W3C//DTD SVG 1.1//EN"
 "http://www.w3.org/Graphics/SVG/1.1/DTD/svg11.dtd">
<!-- Generated by graphviz version 2.40.1 (20161225.0304)
 -->
<!-- Title: InertiaNonLinearParametrization.h Pages: 1 -->
<svg width="906pt" height="476pt"
 viewBox="0.00 0.00 906.00 476.00" xmlns="http://www.w3.org/2000/svg" xmlns:xlink="http://www.w3.org/1999/xlink">
<g id="graph0" class="graph" transform="scale(1 1) rotate(0) translate(4 472)">
<title>InertiaNonLinearParametrization.h</title>
<!-- Node0 -->
<g id="node1" class="node">
<title>Node0</title>
<polygon fill="#bfbfbf" stroke="#000000" points="182,-448.5 182,-467.5 366,-467.5 366,-448.5 182,-448.5"/>
<text text-anchor="middle" x="274" y="-455.5" font-family="FreeSans.ttf" font-size="10.00" fill="#000000">InertiaNonLinearParametrization.h</text>
</g>
<!-- Node1 -->
<g id="node2" class="node">
<title>Node1</title>
<g id="a_node2"><a xlink:href="VectorFixSize_8h.html" target="_top" xlink:title="iDynTree/Core/VectorFixSize.h">
<polygon fill="none" stroke="#000000" points="103.5,-168.5 103.5,-187.5 264.5,-187.5 264.5,-168.5 103.5,-168.5"/>
<text text-anchor="middle" x="184" y="-175.5" font-family="FreeSans.ttf" font-size="10.00" fill="#000000">iDynTree/Core/VectorFixSize.h</text>
</a>
</g>
</g>
<!-- Node0&#45;&gt;Node1 -->
<g id="edge1" class="edge">
<title>Node0&#45;&gt;Node1</title>
<path fill="none" stroke="#191970" d="M232.2707,-448.4756C160.8978,-430.964 23,-391.2723 23,-346 23,-346 23,-346 23,-290 23,-235.6419 85.6115,-205.5246 132.744,-190.5539"/>
<polygon fill="#191970" stroke="#191970" points="133.9833,-193.8356 142.5385,-187.5859 131.9532,-187.1364 133.9833,-193.8356"/>
</g>
<!-- Node17 -->
<g id="node18" class="node">
<title>Node17</title>
<g id="a_node18"><a xlink:href="Rotation_8h.html" target="_top" xlink:title="iDynTree/Core/Rotation.h">
<polygon fill="none" stroke="#000000" points="212.5,-280.5 212.5,-299.5 349.5,-299.5 349.5,-280.5 212.5,-280.5"/>
<text text-anchor="middle" x="281" y="-287.5" font-family="FreeSans.ttf" font-size="10.00" fill="#000000">iDynTree/Core/Rotation.h</text>
</a>
</g>
</g>
<!-- Node0&#45;&gt;Node17 -->
<g id="edge20" class="edge">
<title>Node0&#45;&gt;Node17</title>
<path fill="none" stroke="#191970" d="M274.3964,-448.4862C275.5029,-421.9293 278.6431,-346.5651 280.1598,-310.1655"/>
<polygon fill="#191970" stroke="#191970" points="283.6711,-309.965 280.5905,-299.8279 276.6771,-309.6735 283.6711,-309.965"/>
</g>
<!-- Node23 -->
<g id="node24" class="node">
<title>Node23</title>
<g id="a_node24"><a xlink:href="Transform_8h.html" target="_top" xlink:title="iDynTree/Core/Transform.h">
<polygon fill="none" stroke="#000000" points="335,-392.5 335,-411.5 481,-411.5 481,-392.5 335,-392.5"/>
<text text-anchor="middle" x="408" y="-399.5" font-family="FreeSans.ttf" font-size="10.00" fill="#000000">iDynTree/Core/Transform.h</text>
</a>
</g>
</g>
<!-- Node0&#45;&gt;Node23 -->
<g id="edge39" class="edge">
<title>Node0&#45;&gt;Node23</title>
<path fill="none" stroke="#191970" d="M297.0354,-448.3733C318.7388,-439.3032 351.4618,-425.6279 375.755,-415.4755"/>
<polygon fill="#191970" stroke="#191970" points="377.3881,-418.5865 385.2652,-411.5011 374.6889,-412.1278 377.3881,-418.5865"/>
</g>
<!-- Node2 -->
<g id="node3" class="node">
<title>Node2</title>
<g id="a_node3"><a xlink:href="Utils_8h.html" target="_top" xlink:title="iDynTree/Core/Utils.h">
<polygon fill="none" stroke="#000000" points="153.5,-56.5 153.5,-75.5 272.5,-75.5 272.5,-56.5 153.5,-56.5"/>
<text text-anchor="middle" x="213" y="-63.5" font-family="FreeSans.ttf" font-size="10.00" fill="#000000">iDynTree/Core/Utils.h</text>
</a>
</g>
</g>
<!-- Node1&#45;&gt;Node2 -->
<g id="edge2" class="edge">
<title>Node1&#45;&gt;Node2</title>
<path fill="none" stroke="#191970" d="M186.4725,-168.4509C191.2238,-150.1013 201.7131,-109.5908 207.9847,-85.3693"/>
<polygon fill="#191970" stroke="#191970" points="211.4153,-86.083 210.5337,-75.5249 204.6388,-84.3283 211.4153,-86.083"/>
</g>
<!-- Node3 -->
<g id="node4" class="node">
<title>Node3</title>
<polygon fill="none" stroke="#bfbfbf" points="98.5,-.5 98.5,-19.5 151.5,-19.5 151.5,-.5 98.5,-.5"/>
<text text-anchor="middle" x="125" y="-7.5" font-family="FreeSans.ttf" font-size="10.00" fill="#000000">cstddef</text>
</g>
<!-- Node1&#45;&gt;Node3 -->
<g id="edge18" class="edge">
<title>Node1&#45;&gt;Node3</title>
<path fill="none" stroke="#191970" d="M179.8303,-168.2661C172.1924,-150.2504 155.67,-110.4054 144,-76 138.7935,-60.6502 133.759,-42.9922 130.1819,-29.8055"/>
<polygon fill="#191970" stroke="#191970" points="133.5067,-28.6896 127.5481,-19.9292 126.743,-30.4934 133.5067,-28.6896"/>
</g>
<!-- Node5 -->
<g id="node6" class="node">
<title>Node5</title>
<g id="a_node6"><a xlink:href="Span_8h.html" target="_top" xlink:title="iDynTree/Core/Span.h">
<polygon fill="none" stroke="#000000" points="320.5,-56.5 320.5,-75.5 441.5,-75.5 441.5,-56.5 320.5,-56.5"/>
<text text-anchor="middle" x="381" y="-63.5" font-family="FreeSans.ttf" font-size="10.00" fill="#000000">iDynTree/Core/Span.h</text>
</a>
</g>
</g>
<!-- Node1&#45;&gt;Node5 -->
<g id="edge5" class="edge">
<title>Node1&#45;&gt;Node5</title>
<path fill="none" stroke="#191970" d="M200.7961,-168.4509C235.3253,-148.8201 314.467,-103.8259 355.4125,-80.5472"/>
<polygon fill="#191970" stroke="#191970" points="357.283,-83.51 364.2464,-75.5249 353.8233,-77.4247 357.283,-83.51"/>
</g>
<!-- Node6 -->
<g id="node7" class="node">
<title>Node6</title>
<polygon fill="none" stroke="#bfbfbf" points="680,-.5 680,-19.5 732,-19.5 732,-.5 680,-.5"/>
<text text-anchor="middle" x="706" y="-7.5" font-family="FreeSans.ttf" font-size="10.00" fill="#000000">cassert</text>
</g>
<!-- Node1&#45;&gt;Node6 -->
<g id="edge17" class="edge">
<title>Node1&#45;&gt;Node6</title>
<path fill="none" stroke="#191970" d="M211.7014,-168.3907C249.4439,-155.3518 319.179,-131.4503 379,-112 484.3191,-77.7563 609.4518,-39.3572 669.8386,-20.9695"/>
<polygon fill="#191970" stroke="#191970" points="671.1042,-24.243 679.6525,-17.9839 669.0668,-17.546 671.1042,-24.243"/>
</g>
<!-- Node14 -->
<g id="node15" class="node">
<title>Node14</title>
<polygon fill="none" stroke="#bfbfbf" points="456,-112.5 456,-131.5 500,-131.5 500,-112.5 456,-112.5"/>
<text text-anchor="middle" x="478" y="-119.5" font-family="FreeSans.ttf" font-size="10.00" fill="#000000">string</text>
</g>
<!-- Node1&#45;&gt;Node14 -->
<g id="edge15" class="edge">
<title>Node1&#45;&gt;Node14</title>
<path fill="none" stroke="#191970" d="M253.7665,-168.4974C304.6954,-160.9404 375.5017,-149.1528 445.8362,-132.035"/>
<polygon fill="#191970" stroke="#191970" points="446.887,-135.3807 455.7555,-129.5841 445.2078,-128.5851 446.887,-135.3807"/>
</g>
<!-- Node15 -->
<g id="node16" class="node">
<title>Node15</title>
<polygon fill="none" stroke="#bfbfbf" points="518,-112.5 518,-131.5 574,-131.5 574,-112.5 518,-112.5"/>
<text text-anchor="middle" x="546" y="-119.5" font-family="FreeSans.ttf" font-size="10.00" fill="#000000">sstream</text>
</g>
<!-- Node1&#45;&gt;Node15 -->
<g id="edge16" class="edge">
<title>Node1&#45;&gt;Node15</title>
<path fill="none" stroke="#191970" d="M264.6105,-169.394C328.2787,-161.9504 419.5022,-149.8576 507.8787,-132.0338"/>
<polygon fill="#191970" stroke="#191970" points="508.7076,-135.4369 517.8041,-130.0051 507.3057,-128.5787 508.7076,-135.4369"/>
</g>
<!-- Node16 -->
<g id="node17" class="node">
<title>Node16</title>
<polygon fill="none" stroke="#bfbfbf" points="388,-112.5 388,-131.5 438,-131.5 438,-112.5 388,-112.5"/>
<text text-anchor="middle" x="413" y="-119.5" font-family="FreeSans.ttf" font-size="10.00" fill="#000000">cstring</text>
</g>
<!-- Node1&#45;&gt;Node16 -->
<g id="edge19" class="edge">
<title>Node1&#45;&gt;Node16</title>
<path fill="none" stroke="#191970" d="M224.0707,-168.4643C262.5496,-159.2683 322.2974,-144.8867 374,-132 375.259,-131.6862 376.5404,-131.3653 377.8345,-131.0401"/>
<polygon fill="#191970" stroke="#191970" points="379.0037,-134.3545 387.8374,-128.505 377.284,-127.569 379.0037,-134.3545"/>
</g>
<!-- Node2&#45;&gt;Node3 -->
<g id="edge3" class="edge">
<title>Node2&#45;&gt;Node3</title>
<path fill="none" stroke="#191970" d="M197.6716,-56.2455C184.1697,-47.6534 164.2878,-35.0014 148.7314,-25.1018"/>
<polygon fill="#191970" stroke="#191970" points="150.4685,-22.0587 140.1528,-19.6427 146.7103,-27.9643 150.4685,-22.0587"/>
</g>
<!-- Node4 -->
<g id="node5" class="node">
<title>Node4</title>
<polygon fill="none" stroke="#bfbfbf" points="0,-.5 0,-19.5 80,-19.5 80,-.5 0,-.5"/>
<text text-anchor="middle" x="40" y="-7.5" font-family="FreeSans.ttf" font-size="10.00" fill="#000000">CoreExport.h</text>
</g>
<!-- Node2&#45;&gt;Node4 -->
<g id="edge4" class="edge">
<title>Node2&#45;&gt;Node4</title>
<path fill="none" stroke="#191970" d="M183.2602,-56.3733C154.493,-47.0613 110.73,-32.8953 79.1444,-22.671"/>
<polygon fill="#191970" stroke="#191970" points="79.9436,-19.251 69.3517,-19.5011 77.7878,-25.9107 79.9436,-19.251"/>
</g>
<!-- Node5&#45;&gt;Node3 -->
<g id="edge9" class="edge">
<title>Node5&#45;&gt;Node3</title>
<path fill="none" stroke="#191970" d="M330.55,-56.4175C288.0075,-48.1185 225.3113,-35.3796 161.5167,-20.008"/>
<polygon fill="#191970" stroke="#191970" points="162.2296,-16.5795 151.686,-17.6202 160.5773,-23.3817 162.2296,-16.5795"/>
</g>
<!-- Node5&#45;&gt;Node6 -->
<g id="edge6" class="edge">
<title>Node5&#45;&gt;Node6</title>
<path fill="none" stroke="#191970" d="M441.6638,-58.5527C498.3701,-51.1 585.5341,-38.3914 669.7291,-20.0807"/>
<polygon fill="#191970" stroke="#191970" points="670.702,-23.4503 679.7139,-17.8793 669.1948,-16.6145 670.702,-23.4503"/>
</g>
<!-- Node7 -->
<g id="node8" class="node">
<title>Node7</title>
<polygon fill="none" stroke="#bfbfbf" points="379,-.5 379,-19.5 443,-19.5 443,-.5 379,-.5"/>
<text text-anchor="middle" x="411" y="-7.5" font-family="FreeSans.ttf" font-size="10.00" fill="#000000">algorithm</text>
</g>
<!-- Node5&#45;&gt;Node7 -->
<g id="edge7" class="edge">
<title>Node5&#45;&gt;Node7</title>
<path fill="none" stroke="#191970" d="M386.2256,-56.2455C390.3123,-48.617 396.1135,-37.7881 401.075,-28.5267"/>
<polygon fill="#191970" stroke="#191970" points="404.1972,-30.1103 405.8343,-19.6427 398.0268,-26.8047 404.1972,-30.1103"/>
</g>
<!-- Node8 -->
<g id="node9" class="node">
<title>Node8</title>
<polygon fill="none" stroke="#bfbfbf" points="461,-.5 461,-19.5 503,-19.5 503,-.5 461,-.5"/>
<text text-anchor="middle" x="482" y="-7.5" font-family="FreeSans.ttf" font-size="10.00" fill="#000000">array</text>
</g>
<!-- Node5&#45;&gt;Node8 -->
<g id="edge8" class="edge">
<title>Node5&#45;&gt;Node8</title>
<path fill="none" stroke="#191970" d="M398.5929,-56.2455C414.379,-47.4928 437.7639,-34.527 455.7587,-24.5496"/>
<polygon fill="#191970" stroke="#191970" points="457.5603,-27.5528 464.6087,-19.6427 454.1659,-21.4308 457.5603,-27.5528"/>
</g>
<!-- Node9 -->
<g id="node10" class="node">
<title>Node9</title>
<polygon fill="none" stroke="#bfbfbf" points="521.5,-.5 521.5,-19.5 574.5,-19.5 574.5,-.5 521.5,-.5"/>
<text text-anchor="middle" x="548" y="-7.5" font-family="FreeSans.ttf" font-size="10.00" fill="#000000">iterator</text>
</g>
<!-- Node5&#45;&gt;Node9 -->
<g id="edge10" class="edge">
<title>Node5&#45;&gt;Node9</title>
<path fill="none" stroke="#191970" d="M409.7083,-56.3733C437.8604,-46.933 480.8896,-32.5041 511.4664,-22.2508"/>
<polygon fill="#191970" stroke="#191970" points="512.9507,-25.4447 521.319,-18.9469 510.7251,-18.8079 512.9507,-25.4447"/>
</g>
<!-- Node10 -->
<g id="node11" class="node">
<title>Node10</title>
<polygon fill="none" stroke="#bfbfbf" points="170,-.5 170,-19.5 214,-19.5 214,-.5 170,-.5"/>
<text text-anchor="middle" x="192" y="-7.5" font-family="FreeSans.ttf" font-size="10.00" fill="#000000">limits</text>
</g>
<!-- Node5&#45;&gt;Node10 -->
<g id="edge11" class="edge">
<title>Node5&#45;&gt;Node10</title>
<path fill="none" stroke="#191970" d="M347.3206,-56.4978C317.2783,-47.9546 271.8679,-34.8775 223.9418,-20.2352"/>
<polygon fill="#191970" stroke="#191970" points="224.9136,-16.8724 214.3269,-17.2868 222.8613,-23.5648 224.9136,-16.8724"/>
</g>
<!-- Node11 -->
<g id="node12" class="node">
<title>Node11</title>
<polygon fill="none" stroke="#bfbfbf" points="232.5,-.5 232.5,-19.5 297.5,-19.5 297.5,-.5 232.5,-.5"/>
<text text-anchor="middle" x="265" y="-7.5" font-family="FreeSans.ttf" font-size="10.00" fill="#000000">stdexcept</text>
</g>
<!-- Node5&#45;&gt;Node11 -->
<g id="edge12" class="edge">
<title>Node5&#45;&gt;Node11</title>
<path fill="none" stroke="#191970" d="M361.0589,-56.3733C342.5214,-47.4241 314.6972,-33.9917 293.7587,-23.8835"/>
<polygon fill="#191970" stroke="#191970" points="295.2081,-20.6967 284.6809,-19.5011 292.1648,-27.0006 295.2081,-20.6967"/>
</g>
<!-- Node12 -->
<g id="node13" class="node">
<title>Node12</title>
<polygon fill="none" stroke="#bfbfbf" points="592.5,-.5 592.5,-19.5 661.5,-19.5 661.5,-.5 592.5,-.5"/>
<text text-anchor="middle" x="627" y="-7.5" font-family="FreeSans.ttf" font-size="10.00" fill="#000000">type_traits</text>
</g>
<!-- Node5&#45;&gt;Node12 -->
<g id="edge13" class="edge">
<title>Node5&#45;&gt;Node12</title>
<path fill="none" stroke="#191970" d="M423.3954,-56.4665C462.3081,-47.6997 521.8362,-34.2474 582.1867,-20.4086"/>
<polygon fill="#191970" stroke="#191970" points="583.3064,-23.7427 592.2701,-18.0945 581.7406,-16.92 583.3064,-23.7427"/>
</g>
<!-- Node13 -->
<g id="node14" class="node">
<title>Node13</title>
<polygon fill="none" stroke="#bfbfbf" points="315.5,-.5 315.5,-19.5 360.5,-19.5 360.5,-.5 315.5,-.5"/>
<text text-anchor="middle" x="338" y="-7.5" font-family="FreeSans.ttf" font-size="10.00" fill="#000000">utility</text>
</g>
<!-- Node5&#45;&gt;Node13 -->
<g id="edge14" class="edge">
<title>Node5&#45;&gt;Node13</title>
<path fill="none" stroke="#191970" d="M373.51,-56.2455C367.4674,-48.3761 358.8097,-37.101 351.5559,-27.6542"/>
<polygon fill="#191970" stroke="#191970" points="354.2705,-25.4426 345.4042,-19.6427 348.7185,-29.7058 354.2705,-25.4426"/>
</g>
<!-- Node17&#45;&gt;Node1 -->
<g id="edge38" class="edge">
<title>Node17&#45;&gt;Node1</title>
<path fill="none" stroke="#191970" d="M212.4171,-283.3745C160.8926,-276.8125 96.4827,-264.6809 80,-244 60.5076,-219.5427 97.2294,-201.4893 132.298,-190.505"/>
<polygon fill="#191970" stroke="#191970" points="133.5075,-193.7969 142.0973,-187.5948 131.5146,-187.0866 133.5075,-193.7969"/>
</g>
<!-- Node17&#45;&gt;Node14 -->
<g id="edge21" class="edge">
<title>Node17&#45;&gt;Node14</title>
<path fill="none" stroke="#191970" d="M281.5261,-280.4674C282.7395,-266.6545 286.75,-240.8844 300,-224 320.1266,-198.3528 402.4931,-157.226 447.7909,-135.8742"/>
<polygon fill="#191970" stroke="#191970" points="449.5497,-138.9155 457.1241,-131.5074 446.5832,-132.5751 449.5497,-138.9155"/>
</g>
<!-- Node18 -->
<g id="node19" class="node">
<title>Node18</title>
<g id="a_node19"><a xlink:href="GeomVector3_8h.html" target="_top" xlink:title="iDynTree/Core/GeomVector3.h">
<polygon fill="none" stroke="#000000" points="89.5,-224.5 89.5,-243.5 252.5,-243.5 252.5,-224.5 89.5,-224.5"/>
<text text-anchor="middle" x="171" y="-231.5" font-family="FreeSans.ttf" font-size="10.00" fill="#000000">iDynTree/Core/GeomVector3.h</text>
</a>
</g>
</g>
<!-- Node17&#45;&gt;Node18 -->
<g id="edge22" class="edge">
<title>Node17&#45;&gt;Node18</title>
<path fill="none" stroke="#191970" d="M261.8395,-280.2455C244.4889,-271.4125 218.7099,-258.2887 199.0417,-248.2758"/>
<polygon fill="#191970" stroke="#191970" points="200.4405,-245.0605 189.941,-243.6427 197.2647,-251.2986 200.4405,-245.0605"/>
</g>
<!-- Node19 -->
<g id="node20" class="node">
<title>Node19</title>
<g id="a_node20"><a xlink:href="RotationRaw_8h.html" target="_top" xlink:title="iDynTree/Core/RotationRaw.h">
<polygon fill="none" stroke="#000000" points="483,-224.5 483,-243.5 641,-243.5 641,-224.5 483,-224.5"/>
<text text-anchor="middle" x="562" y="-231.5" font-family="FreeSans.ttf" font-size="10.00" fill="#000000">iDynTree/Core/RotationRaw.h</text>
</a>
</g>
</g>
<!-- Node17&#45;&gt;Node19 -->
<g id="edge24" class="edge">
<title>Node17&#45;&gt;Node19</title>
<path fill="none" stroke="#191970" d="M328.9863,-280.4369C377.4814,-270.7724 452.4473,-255.8326 504.1879,-245.5213"/>
<polygon fill="#191970" stroke="#191970" points="505.0885,-248.9107 514.2116,-243.5237 503.7203,-242.0457 505.0885,-248.9107"/>
</g>
<!-- Node18&#45;&gt;Node1 -->
<g id="edge23" class="edge">
<title>Node18&#45;&gt;Node1</title>
<path fill="none" stroke="#191970" d="M173.2644,-224.2455C174.9794,-216.8579 177.3912,-206.4689 179.4944,-197.4087"/>
<polygon fill="#191970" stroke="#191970" points="182.9095,-198.1751 181.7615,-187.6427 176.0908,-196.5922 182.9095,-198.1751"/>
</g>
<!-- Node19&#45;&gt;Node14 -->
<g id="edge37" class="edge">
<title>Node19&#45;&gt;Node14</title>
<path fill="none" stroke="#191970" d="M554.8382,-224.4509C540.766,-205.688 509.3161,-163.7548 491.3185,-139.758"/>
<polygon fill="#191970" stroke="#191970" points="493.9437,-137.4249 485.1437,-131.5249 488.3437,-141.6249 493.9437,-137.4249"/>
</g>
<!-- Node20 -->
<g id="node21" class="node">
<title>Node20</title>
<g id="a_node21"><a xlink:href="MatrixFixSize_8h.html" target="_top" xlink:title="iDynTree/Core/MatrixFixSize.h">
<polygon fill="none" stroke="#000000" points="729.5,-168.5 729.5,-187.5 890.5,-187.5 890.5,-168.5 729.5,-168.5"/>
<text text-anchor="middle" x="810" y="-175.5" font-family="FreeSans.ttf" font-size="10.00" fill="#000000">iDynTree/Core/MatrixFixSize.h</text>
</a>
</g>
</g>
<!-- Node19&#45;&gt;Node20 -->
<g id="edge25" class="edge">
<title>Node19&#45;&gt;Node20</title>
<path fill="none" stroke="#191970" d="M604.3509,-224.4369C646.7942,-214.8529 712.2119,-200.0812 757.8313,-189.78"/>
<polygon fill="#191970" stroke="#191970" points="758.8403,-193.1404 767.8237,-187.5237 757.2984,-186.3123 758.8403,-193.1404"/>
</g>
<!-- Node20&#45;&gt;Node2 -->
<g id="edge26" class="edge">
<title>Node20&#45;&gt;Node2</title>
<path fill="none" stroke="#191970" d="M756.7388,-168.431C718.5433,-160.7393 666.2353,-148.4943 622,-132 603.7479,-125.1942 601.6167,-117.7337 583,-112 555.0393,-103.3884 382.0375,-83.9981 282.8001,-73.3481"/>
<polygon fill="#191970" stroke="#191970" points="283.1613,-69.8669 272.8455,-72.2826 282.4162,-76.8271 283.1613,-69.8669"/>
</g>
<!-- Node20&#45;&gt;Node6 -->
<g id="edge32" class="edge">
<title>Node20&#45;&gt;Node6</title>
<path fill="none" stroke="#191970" d="M808.4733,-168.1243C806.1245,-154.7833 800.8304,-130.5408 791,-112 773.1581,-78.3491 742.9371,-45.6445 723.75,-26.6838"/>
<polygon fill="#191970" stroke="#191970" points="726.1247,-24.1112 716.5089,-19.6628 721.2519,-29.1367 726.1247,-24.1112"/>
</g>
<!-- Node20&#45;&gt;Node14 -->
<g id="edge34" class="edge">
<title>Node20&#45;&gt;Node14</title>
<path fill="none" stroke="#191970" d="M729.477,-169.2558C670.9697,-162.0805 589.8132,-150.4349 510.4074,-132.0401"/>
<polygon fill="#191970" stroke="#191970" points="510.7665,-128.5289 500.2304,-129.6426 509.1614,-135.3424 510.7665,-128.5289"/>
</g>
<!-- Node20&#45;&gt;Node15 -->
<g id="edge36" class="edge">
<title>Node20&#45;&gt;Node15</title>
<path fill="none" stroke="#191970" d="M761.8435,-168.4468C716.8171,-159.4139 647.7431,-145.2988 588,-132 586.7654,-131.7252 585.511,-131.4431 584.2448,-131.156"/>
<polygon fill="#191970" stroke="#191970" points="584.9715,-127.7318 574.4403,-128.8911 583.396,-134.5521 584.9715,-127.7318"/>
</g>
<!-- Node20&#45;&gt;Node16 -->
<g id="edge33" class="edge">
<title>Node20&#45;&gt;Node16</title>
<path fill="none" stroke="#191970" d="M729.3654,-171.5104C657.7077,-164.8911 550.0527,-152.8619 447.9947,-131.9337"/>
<polygon fill="#191970" stroke="#191970" points="448.6406,-128.4932 438.137,-129.8805 447.2132,-135.3461 448.6406,-128.4932"/>
</g>
<!-- Node21 -->
<g id="node22" class="node">
<title>Node21</title>
<g id="a_node22"><a xlink:href="MatrixView_8h.html" target="_top" xlink:title="iDynTree/Core/MatrixView.h">
<polygon fill="none" stroke="#000000" points="630.5,-112.5 630.5,-131.5 781.5,-131.5 781.5,-112.5 630.5,-112.5"/>
<text text-anchor="middle" x="706" y="-119.5" font-family="FreeSans.ttf" font-size="10.00" fill="#000000">iDynTree/Core/MatrixView.h</text>
</a>
</g>
</g>
<!-- Node20&#45;&gt;Node21 -->
<g id="edge27" class="edge">
<title>Node20&#45;&gt;Node21</title>
<path fill="none" stroke="#191970" d="M791.8846,-168.2455C775.555,-159.4527 751.329,-146.4079 732.7661,-136.4125"/>
<polygon fill="#191970" stroke="#191970" points="734.3719,-133.3021 723.9078,-131.6427 731.0532,-139.4654 734.3719,-133.3021"/>
</g>
<!-- Node22 -->
<g id="node23" class="node">
<title>Node22</title>
<polygon fill="none" stroke="#bfbfbf" points="838,-112.5 838,-131.5 898,-131.5 898,-112.5 838,-112.5"/>
<text text-anchor="middle" x="868" y="-119.5" font-family="FreeSans.ttf" font-size="10.00" fill="#000000">iostream</text>
</g>
<!-- Node20&#45;&gt;Node22 -->
<g id="edge35" class="edge">
<title>Node20&#45;&gt;Node22</title>
<path fill="none" stroke="#191970" d="M820.1028,-168.2455C828.5028,-160.1352 840.6494,-148.4075 850.6084,-138.7919"/>
<polygon fill="#191970" stroke="#191970" points="853.25,-141.1066 858.0129,-131.6427 848.3878,-136.0707 853.25,-141.1066"/>
</g>
<!-- Node21&#45;&gt;Node2 -->
<g id="edge31" class="edge">
<title>Node21&#45;&gt;Node2</title>
<path fill="none" stroke="#191970" d="M630.3184,-113.4033C535.6186,-102.6463 374.746,-84.3728 282.8581,-73.9352"/>
<polygon fill="#191970" stroke="#191970" points="283.1533,-70.4463 272.8222,-72.7952 282.3632,-77.4016 283.1533,-70.4463"/>
</g>
<!-- Node21&#45;&gt;Node5 -->
<g id="edge30" class="edge">
<title>Node21&#45;&gt;Node5</title>
<path fill="none" stroke="#191970" d="M650.4998,-112.4369C593.9437,-102.6918 506.2596,-87.5832 446.3741,-77.2645"/>
<polygon fill="#191970" stroke="#191970" points="446.7204,-73.7726 436.2713,-75.5237 445.5317,-80.671 446.7204,-73.7726"/>
</g>
<!-- Node21&#45;&gt;Node6 -->
<g id="edge28" class="edge">
<title>Node21&#45;&gt;Node6</title>
<path fill="none" stroke="#191970" d="M706,-112.4509C706,-94.184 706,-53.9553 706,-29.6976"/>
<polygon fill="#191970" stroke="#191970" points="709.5001,-29.5249 706,-19.5249 702.5001,-29.5249 709.5001,-29.5249"/>
</g>
<!-- Node21&#45;&gt;Node12 -->
<g id="edge29" class="edge">
<title>Node21&#45;&gt;Node12</title>
<path fill="none" stroke="#191970" d="M699.2645,-112.4509C686.0299,-93.688 656.452,-51.7548 639.5257,-27.758"/>
<polygon fill="#191970" stroke="#191970" points="642.3426,-25.6792 633.7184,-19.5249 636.6224,-29.714 642.3426,-25.6792"/>
</g>
<!-- Node23&#45;&gt;Node14 -->
<g id="edge48" class="edge">
<title>Node23&#45;&gt;Node14</title>
<path fill="none" stroke="#191970" d="M451.3394,-392.4641C515.4025,-375.5618 631.4261,-333.3553 665,-244 680.1367,-203.7144 641.7064,-190.4654 605,-168 596.6031,-162.8609 544.5774,-144.6712 509.7727,-132.7633"/>
<polygon fill="#191970" stroke="#191970" points="510.6222,-129.3551 500.0277,-129.4391 508.3622,-135.9803 510.6222,-129.3551"/>
</g>
<!-- Node23&#45;&gt;Node17 -->
<g id="edge46" class="edge">
<title>Node23&#45;&gt;Node17</title>
<path fill="none" stroke="#191970" d="M387.2823,-392.3902C370.9082,-384.1737 348.0501,-371.2734 331,-356 315.5145,-342.1282 301.5679,-322.8654 292.3637,-308.7302"/>
<polygon fill="#191970" stroke="#191970" points="295.0843,-306.4829 286.7886,-299.8927 289.1639,-310.2178 295.0843,-306.4829"/>
</g>
<!-- Node23&#45;&gt;Node20 -->
<g id="edge47" class="edge">
<title>Node23&#45;&gt;Node20</title>
<path fill="none" stroke="#191970" d="M481.3571,-398.9577C561.6056,-394.3067 683.7936,-382.9307 721,-356 775.0256,-316.8952 798.1793,-235.5592 806.3009,-197.9124"/>
<polygon fill="#191970" stroke="#191970" points="809.809,-198.2214 808.3563,-187.7267 802.9473,-196.8367 809.809,-198.2214"/>
</g>
<!-- Node24 -->
<g id="node25" class="node">
<title>Node24</title>
<g id="a_node25"><a xlink:href="Position_8h.html" target="_top" xlink:title="iDynTree/Core/Position.h">
<polygon fill="none" stroke="#000000" points="340,-336.5 340,-355.5 476,-355.5 476,-336.5 340,-336.5"/>
<text text-anchor="middle" x="408" y="-343.5" font-family="FreeSans.ttf" font-size="10.00" fill="#000000">iDynTree/Core/Position.h</text>
</a>
</g>
</g>
<!-- Node23&#45;&gt;Node24 -->
<g id="edge40" class="edge">
<title>Node23&#45;&gt;Node24</title>
<path fill="none" stroke="#191970" d="M408,-392.2455C408,-384.9382 408,-374.6944 408,-365.7046"/>
<polygon fill="#191970" stroke="#191970" points="411.5001,-365.6426 408,-355.6427 404.5001,-365.6427 411.5001,-365.6426"/>
</g>
<!-- Node24&#45;&gt;Node14 -->
<g id="edge45" class="edge">
<title>Node24&#45;&gt;Node14</title>
<path fill="none" stroke="#191970" d="M476.1111,-337.818C533.2906,-326.9564 611.6135,-301.8363 650,-244 654.9155,-236.5939 654.3994,-231.7238 650,-224 634.3921,-196.5982 554.3172,-156.7204 509.1331,-135.8733"/>
<polygon fill="#191970" stroke="#191970" points="510.3399,-132.5767 499.7898,-131.6042 507.4307,-138.9436 510.3399,-132.5767"/>
</g>
<!-- Node24&#45;&gt;Node17 -->
<g id="edge44" class="edge">
<title>Node24&#45;&gt;Node17</title>
<path fill="none" stroke="#191970" d="M386.1679,-336.3733C365.6897,-327.3435 334.8601,-313.7494 311.8681,-303.6111"/>
<polygon fill="#191970" stroke="#191970" points="313.1093,-300.3333 302.5472,-299.5011 310.285,-306.7383 313.1093,-300.3333"/>
</g>
<!-- Node25 -->
<g id="node26" class="node">
<title>Node25</title>
<g id="a_node26"><a xlink:href="PositionRaw_8h.html" target="_top" xlink:title="iDynTree/Core/PositionRaw.h">
<polygon fill="none" stroke="#000000" points="309,-224.5 309,-243.5 465,-243.5 465,-224.5 309,-224.5"/>
<text text-anchor="middle" x="387" y="-231.5" font-family="FreeSans.ttf" font-size="10.00" fill="#000000">iDynTree/Core/PositionRaw.h</text>
</a>
</g>
</g>
<!-- Node24&#45;&gt;Node25 -->
<g id="edge41" class="edge">
<title>Node24&#45;&gt;Node25</title>
<path fill="none" stroke="#191970" d="M406.2096,-336.4509C402.769,-318.1013 395.1733,-277.5908 390.6317,-253.3693"/>
<polygon fill="#191970" stroke="#191970" points="394.0689,-252.7086 388.7859,-243.5249 387.1888,-253.9986 394.0689,-252.7086"/>
</g>
<!-- Node25&#45;&gt;Node1 -->
<g id="edge42" class="edge">
<title>Node25&#45;&gt;Node1</title>
<path fill="none" stroke="#191970" d="M352.1031,-224.3733C317.9089,-214.9404 265.6585,-200.5265 228.4958,-190.2747"/>
<polygon fill="#191970" stroke="#191970" points="229.0123,-186.7865 218.4416,-187.5011 227.1507,-193.5345 229.0123,-186.7865"/>
</g>
<!-- Node25&#45;&gt;Node14 -->
<g id="edge43" class="edge">
<title>Node25&#45;&gt;Node14</title>
<path fill="none" stroke="#191970" d="M394.7586,-224.4509C410.0706,-205.6054 444.3748,-163.3849 463.8285,-139.4419"/>
<polygon fill="#191970" stroke="#191970" points="466.6715,-141.4931 470.261,-131.5249 461.2387,-137.079 466.6715,-141.4931"/>
</g>
</g>
</svg>
