<?xml version="1.0" encoding="UTF-8" standalone="no"?>
<!DOCTYPE svg PUBLIC "-//W3C//DTD SVG 1.1//EN"
 "http://www.w3.org/Graphics/SVG/1.1/DTD/svg11.dtd">
<!-- Generated by graphviz version 2.40.1 (20161225.0304)
 -->
<!-- Title: InverseKinematicsData.cpp Pages: 1 -->
<svg width="2903pt" height="677pt"
 viewBox="0.00 0.00 2903.00 677.00" xmlns="http://www.w3.org/2000/svg" xmlns:xlink="http://www.w3.org/1999/xlink">
<g id="graph0" class="graph" transform="scale(1 1) rotate(0) translate(4 673)">
<title>InverseKinematicsData.cpp</title>
<!-- Node0 -->
<g id="node1" class="node">
<title>Node0</title>
<polygon fill="#bfbfbf" stroke="#000000" points="554.5,-649.5 554.5,-668.5 705.5,-668.5 705.5,-649.5 554.5,-649.5"/>
<text text-anchor="middle" x="630" y="-656.5" font-family="FreeSans.ttf" font-size="10.00" fill="#000000">InverseKinematicsData.cpp</text>
</g>
<!-- Node1 -->
<g id="node2" class="node">
<title>Node1</title>
<g id="a_node2"><a xlink:href="InverseKinematicsData_8h.html" target="_top" xlink:title="InverseKinematicsData.h">
<polygon fill="none" stroke="#000000" points="1234,-537.5 1234,-556.5 1374,-556.5 1374,-537.5 1234,-537.5"/>
<text text-anchor="middle" x="1304" y="-544.5" font-family="FreeSans.ttf" font-size="10.00" fill="#000000">InverseKinematicsData.h</text>
</a>
</g>
</g>
<!-- Node0&#45;&gt;Node1 -->
<g id="edge1" class="edge">
<title>Node0&#45;&gt;Node1</title>
<path fill="none" stroke="#191970" d="M687.1741,-649.4993C811.0886,-628.9081 1103.9079,-580.2497 1236.5797,-558.2034"/>
<polygon fill="#191970" stroke="#191970" points="1237.326,-561.6274 1246.617,-556.5355 1236.1785,-554.7221 1237.326,-561.6274"/>
</g>
<!-- Node2 -->
<g id="node3" class="node">
<title>Node2</title>
<g id="a_node3"><a xlink:href="InverseKinematicsNLP_8h.html" target="_top" xlink:title="InverseKinematicsNLP.h">
<polygon fill="none" stroke="#000000" points="639,-420 639,-439 773,-439 773,-420 639,-420"/>
<text text-anchor="middle" x="706" y="-427" font-family="FreeSans.ttf" font-size="10.00" fill="#000000">InverseKinematicsNLP.h</text>
</a>
</g>
</g>
<!-- Node0&#45;&gt;Node2 -->
<g id="edge108" class="edge">
<title>Node0&#45;&gt;Node2</title>
<path fill="none" stroke="#191970" d="M633.1689,-649.4309C644.6365,-614.8017 684.113,-495.5929 699.6477,-448.6821"/>
<polygon fill="#191970" stroke="#191970" points="702.9964,-449.7033 702.8176,-439.11 696.3513,-447.5027 702.9964,-449.7033"/>
</g>
<!-- Node9 -->
<g id="node10" class="node">
<title>Node9</title>
<polygon fill="none" stroke="#bfbfbf" points="999,-.5 999,-19.5 1051,-19.5 1051,-.5 999,-.5"/>
<text text-anchor="middle" x="1025" y="-7.5" font-family="FreeSans.ttf" font-size="10.00" fill="#000000">cassert</text>
</g>
<!-- Node0&#45;&gt;Node9 -->
<g id="edge146" class="edge">
<title>Node0&#45;&gt;Node9</title>
<path fill="none" stroke="#191970" d="M705.7615,-658.5019C932.0333,-656.6424 1622.595,-648.2654 2194,-613 2350.1696,-603.3617 2895,-703.4667 2895,-547 2895,-547 2895,-547 2895,-122 2895,-26.5155 1320.9646,-11.9634 1061.1182,-10.2116"/>
<polygon fill="#191970" stroke="#191970" points="1061.1006,-6.7115 1051.0779,-10.1459 1061.0548,-13.7114 1061.1006,-6.7115"/>
</g>
<!-- Node23 -->
<g id="node17" class="node">
<title>Node23</title>
<g id="a_node17"><a xlink:href="Twist_8h.html" target="_top" xlink:title="iDynTree/Core/Twist.h">
<polygon fill="none" stroke="#000000" points="381,-358.5 381,-377.5 503,-377.5 503,-358.5 381,-358.5"/>
<text text-anchor="middle" x="442" y="-365.5" font-family="FreeSans.ttf" font-size="10.00" fill="#000000">iDynTree/Core/Twist.h</text>
</a>
</g>
</g>
<!-- Node0&#45;&gt;Node23 -->
<g id="edge117" class="edge">
<title>Node0&#45;&gt;Node23</title>
<path fill="none" stroke="#191970" d="M598.5813,-649.45C557.3046,-634.727 490,-602.2492 490,-547 490,-547 490,-547 490,-491 490,-451.5123 468.2651,-409.4723 454.0466,-386.1955"/>
<polygon fill="#191970" stroke="#191970" points="456.9767,-384.2804 448.6742,-377.6987 451.0602,-388.0214 456.9767,-384.2804"/>
</g>
<!-- Node44 -->
<g id="node34" class="node">
<title>Node44</title>
<g id="a_node34"><a xlink:href="SpatialAcc_8h.html" target="_top" xlink:title="iDynTree/Core/SpatialAcc.h">
<polygon fill="none" stroke="#000000" points="521,-358.5 521,-377.5 669,-377.5 669,-358.5 521,-358.5"/>
<text text-anchor="middle" x="595" y="-365.5" font-family="FreeSans.ttf" font-size="10.00" fill="#000000">iDynTree/Core/SpatialAcc.h</text>
</a>
</g>
</g>
<!-- Node0&#45;&gt;Node44 -->
<g id="edge120" class="edge">
<title>Node0&#45;&gt;Node44</title>
<path fill="none" stroke="#191970" d="M621.0938,-649.3544C605.0625,-630.945 573,-588.8901 573,-547 573,-547 573,-547 573,-491 573,-453.9405 582.7972,-411.5675 589.3157,-387.4763"/>
<polygon fill="#191970" stroke="#191970" points="592.705,-388.3521 592.033,-377.7786 585.9646,-386.4634 592.705,-388.3521"/>
</g>
<!-- Node59 -->
<g id="node42" class="node">
<title>Node59</title>
<g id="a_node42"><a xlink:href="TransformConstraint_8h.html" target="_top" xlink:title="TransformConstraint.h">
<polygon fill="none" stroke="#000000" points="1456.5,-537.5 1456.5,-556.5 1581.5,-556.5 1581.5,-537.5 1456.5,-537.5"/>
<text text-anchor="middle" x="1519" y="-544.5" font-family="FreeSans.ttf" font-size="10.00" fill="#000000">TransformConstraint.h</text>
</a>
</g>
</g>
<!-- Node0&#45;&gt;Node59 -->
<g id="edge109" class="edge">
<title>Node0&#45;&gt;Node59</title>
<path fill="none" stroke="#191970" d="M705.4121,-649.4993C874.0876,-628.2488 1280.0424,-577.1049 1446.219,-556.1693"/>
<polygon fill="#191970" stroke="#191970" points="1446.853,-559.6171 1456.3371,-554.8945 1445.978,-552.672 1446.853,-559.6171"/>
</g>
<!-- Node60 -->
<g id="node43" class="node">
<title>Node60</title>
<g id="a_node43"><a xlink:href="Axis_8h.html" target="_top" xlink:title="iDynTree/Core/Axis.h">
<polygon fill="none" stroke="#000000" points="1898,-358.5 1898,-377.5 2016,-377.5 2016,-358.5 1898,-358.5"/>
<text text-anchor="middle" x="1957" y="-365.5" font-family="FreeSans.ttf" font-size="10.00" fill="#000000">iDynTree/Core/Axis.h</text>
</a>
</g>
</g>
<!-- Node0&#45;&gt;Node60 -->
<g id="edge112" class="edge">
<title>Node0&#45;&gt;Node60</title>
<path fill="none" stroke="#191970" d="M705.6923,-653.4201C868.3559,-640.8911 1263.1018,-607.6025 1591,-557 1717.7166,-537.4446 1768.477,-573.8314 1874,-501 1915.0975,-472.6347 1939.9186,-416.615 1950.6845,-387.1483"/>
<polygon fill="#191970" stroke="#191970" points="1954.0283,-388.1888 1954.019,-377.594 1947.4193,-385.8822 1954.0283,-388.1888"/>
</g>
<!-- Node61 -->
<g id="node44" class="node">
<title>Node61</title>
<g id="a_node44"><a xlink:href="ClassicalAcc_8h.html" target="_top" xlink:title="iDynTree/Core/ClassicalAcc.h">
<polygon fill="none" stroke="#000000" points="0,-593.5 0,-612.5 158,-612.5 158,-593.5 0,-593.5"/>
<text text-anchor="middle" x="79" y="-600.5" font-family="FreeSans.ttf" font-size="10.00" fill="#000000">iDynTree/Core/ClassicalAcc.h</text>
</a>
</g>
</g>
<!-- Node0&#45;&gt;Node61 -->
<g id="edge118" class="edge">
<title>Node0&#45;&gt;Node61</title>
<path fill="none" stroke="#191970" d="M554.2529,-651.3016C453.5219,-641.0639 275.7478,-622.9961 168.5092,-612.0971"/>
<polygon fill="#191970" stroke="#191970" points="168.6591,-608.5944 158.3564,-611.0653 167.9513,-615.5585 168.6591,-608.5944"/>
</g>
<!-- Node62 -->
<g id="node45" class="node">
<title>Node62</title>
<g id="a_node45"><a xlink:href="ModelLoader_8h.html" target="_top" xlink:title="iDynTree/ModelIO/ModelLoader.h">
<polygon fill="none" stroke="#000000" points="2009,-593.5 2009,-612.5 2185,-612.5 2185,-593.5 2009,-593.5"/>
<text text-anchor="middle" x="2097" y="-600.5" font-family="FreeSans.ttf" font-size="10.00" fill="#000000">iDynTree/ModelIO/ModelLoader.h</text>
</a>
</g>
</g>
<!-- Node0&#45;&gt;Node62 -->
<g id="edge121" class="edge">
<title>Node0&#45;&gt;Node62</title>
<path fill="none" stroke="#191970" d="M705.5824,-656.7149C903.1051,-650.6484 1451.0012,-633.2116 1907,-613 1936.6666,-611.6851 1968.9282,-610.0604 1998.3038,-608.5058"/>
<polygon fill="#191970" stroke="#191970" points="1998.7652,-611.9863 2008.5649,-607.9595 1998.3929,-604.9962 1998.7652,-611.9863"/>
</g>
<!-- Node65 -->
<g id="node48" class="node">
<title>Node65</title>
<g id="a_node48"><a xlink:href="EigenHelpers_8h.html" target="_top" xlink:title="iDynTree/Core/EigenHelpers.h">
<polygon fill="none" stroke="#000000" points="234.5,-420 234.5,-439 395.5,-439 395.5,-420 234.5,-420"/>
<text text-anchor="middle" x="315" y="-427" font-family="FreeSans.ttf" font-size="10.00" fill="#000000">iDynTree/Core/EigenHelpers.h</text>
</a>
</g>
</g>
<!-- Node0&#45;&gt;Node65 -->
<g id="edge133" class="edge">
<title>Node0&#45;&gt;Node65</title>
<path fill="none" stroke="#191970" d="M571.1407,-649.494C540.9703,-642.6917 504.652,-631.3829 476,-613 406.2536,-568.2513 349.1282,-484.8127 326.0316,-447.8897"/>
<polygon fill="#191970" stroke="#191970" points="328.8883,-445.8532 320.6703,-439.1663 322.9246,-449.5186 328.8883,-445.8532"/>
</g>
<!-- Node1&#45;&gt;Node2 -->
<g id="edge2" class="edge">
<title>Node1&#45;&gt;Node2</title>
<path fill="none" stroke="#191970" d="M1233.8284,-546.1356C1111.6895,-543.7464 865.5447,-534.7616 787,-501 759.4112,-489.1413 734.6509,-464.1522 719.9709,-447.0931"/>
<polygon fill="#191970" stroke="#191970" points="722.3345,-444.461 713.2515,-439.0067 716.9506,-448.9348 722.3345,-444.461"/>
</g>
<!-- Node20 -->
<g id="node14" class="node">
<title>Node20</title>
<g id="a_node14"><a xlink:href="VectorDynSize_8h.html" target="_top" xlink:title="iDynTree/Core/VectorDynSize.h">
<polygon fill="none" stroke="#000000" points="1429.5,-358.5 1429.5,-377.5 1596.5,-377.5 1596.5,-358.5 1429.5,-358.5"/>
<text text-anchor="middle" x="1513" y="-365.5" font-family="FreeSans.ttf" font-size="10.00" fill="#000000">iDynTree/Core/VectorDynSize.h</text>
</a>
</g>
</g>
<!-- Node1&#45;&gt;Node20 -->
<g id="edge100" class="edge">
<title>Node1&#45;&gt;Node20</title>
<path fill="none" stroke="#191970" d="M1361.6515,-537.4371C1387.8379,-530.7566 1417.8393,-519.5708 1440,-501 1476.6978,-470.2472 1498.0861,-416.1094 1507.4035,-387.302"/>
<polygon fill="#191970" stroke="#191970" points="1510.7921,-388.1903 1510.3903,-377.6031 1504.1021,-386.1301 1510.7921,-388.1903"/>
</g>
<!-- Node21 -->
<g id="node15" class="node">
<title>Node21</title>
<g id="a_node15"><a xlink:href="MatrixDynSize_8h.html" target="_top" xlink:title="iDynTree/Core/MatrixDynSize.h">
<polygon fill="none" stroke="#000000" points="1022.5,-358.5 1022.5,-377.5 1189.5,-377.5 1189.5,-358.5 1022.5,-358.5"/>
<text text-anchor="middle" x="1106" y="-365.5" font-family="FreeSans.ttf" font-size="10.00" fill="#000000">iDynTree/Core/MatrixDynSize.h</text>
</a>
</g>
</g>
<!-- Node1&#45;&gt;Node21 -->
<g id="edge101" class="edge">
<title>Node1&#45;&gt;Node21</title>
<path fill="none" stroke="#191970" d="M1356.9167,-537.4913C1398.8904,-527.5974 1446.9844,-509.5032 1424,-481 1376.6118,-422.2333 1329.1402,-470.2633 1258,-445 1210.9622,-428.296 1159.8953,-400.1591 1130.5466,-382.9181"/>
<polygon fill="#191970" stroke="#191970" points="1132.1988,-379.8287 1121.8136,-377.7316 1128.6244,-385.8473 1132.1988,-379.8287"/>
</g>
<!-- Node1&#45;&gt;Node23 -->
<g id="edge103" class="edge">
<title>Node1&#45;&gt;Node23</title>
<path fill="none" stroke="#191970" d="M1233.5492,-543.9511C1105.9071,-537.9592 841.3464,-523.2637 752,-501 641.2627,-473.406 519.4862,-410.7553 467.6434,-382.4086"/>
<polygon fill="#191970" stroke="#191970" points="469.2427,-379.2936 458.7955,-377.531 465.8633,-385.4239 469.2427,-379.2936"/>
</g>
<!-- Node33 -->
<g id="node20" class="node">
<title>Node33</title>
<g id="a_node20"><a xlink:href="Transform_8h.html" target="_top" xlink:title="iDynTree/Core/Transform.h">
<polygon fill="none" stroke="#000000" points="1265,-358.5 1265,-377.5 1411,-377.5 1411,-358.5 1265,-358.5"/>
<text text-anchor="middle" x="1338" y="-365.5" font-family="FreeSans.ttf" font-size="10.00" fill="#000000">iDynTree/Core/Transform.h</text>
</a>
</g>
</g>
<!-- Node1&#45;&gt;Node33 -->
<g id="edge102" class="edge">
<title>Node1&#45;&gt;Node33</title>
<path fill="none" stroke="#191970" d="M1238.6668,-537.4167C1192.2834,-527.9062 1142.4246,-510.4076 1168,-481 1243.6879,-393.9709 1349.3121,-532.0291 1425,-445 1434.0414,-434.6038 1432.1098,-425.8016 1425,-414 1415.9464,-398.9718 1400.1577,-388.5985 1384.4939,-381.5638"/>
<polygon fill="#191970" stroke="#191970" points="1385.399,-378.1525 1374.8184,-377.6034 1382.7472,-384.6308 1385.399,-378.1525"/>
</g>
<!-- Node34 -->
<g id="node25" class="node">
<title>Node34</title>
<polygon fill="none" stroke="#bfbfbf" points="813,-358.5 813,-377.5 851,-377.5 851,-358.5 813,-358.5"/>
<text text-anchor="middle" x="832" y="-365.5" font-family="FreeSans.ttf" font-size="10.00" fill="#000000">map</text>
</g>
<!-- Node1&#45;&gt;Node34 -->
<g id="edge106" class="edge">
<title>Node1&#45;&gt;Node34</title>
<path fill="none" stroke="#191970" d="M1233.9519,-541.0615C1143.3958,-532.8937 990.9271,-517.3377 937,-501 883.7374,-484.8636 854.2586,-492.3415 825,-445 814.3484,-427.7653 818.6905,-404.0864 824.0486,-387.5536"/>
<polygon fill="#191970" stroke="#191970" points="827.445,-388.4547 827.569,-377.8606 820.8654,-386.0651 827.445,-388.4547"/>
</g>
<!-- Node35 -->
<g id="node26" class="node">
<title>Node35</title>
<g id="a_node26"><a xlink:href="ConvexHullHelpers_8h.html" target="_top" xlink:title="iDynTree/ConvexHullHelpers.h">
<polygon fill="none" stroke="#000000" points="1585.5,-420 1585.5,-439 1750.5,-439 1750.5,-420 1585.5,-420"/>
<text text-anchor="middle" x="1668" y="-427" font-family="FreeSans.ttf" font-size="10.00" fill="#000000">iDynTree/ConvexHullHelpers.h</text>
</a>
</g>
</g>
<!-- Node1&#45;&gt;Node35 -->
<g id="edge50" class="edge">
<title>Node1&#45;&gt;Node35</title>
<path fill="none" stroke="#191970" d="M1352.8562,-537.4258C1391.7954,-529.2723 1447.4771,-516.4394 1495,-501 1546.6215,-484.2291 1604.5202,-458.9088 1638.5343,-443.3324"/>
<polygon fill="#191970" stroke="#191970" points="1640.2651,-446.3885 1647.88,-439.022 1637.3334,-440.032 1640.2651,-446.3885"/>
</g>
<!-- Node36 -->
<g id="node27" class="node">
<title>Node36</title>
<polygon fill="none" stroke="#bfbfbf" points="1832.5,-358.5 1832.5,-377.5 1879.5,-377.5 1879.5,-358.5 1832.5,-358.5"/>
<text text-anchor="middle" x="1856" y="-365.5" font-family="FreeSans.ttf" font-size="10.00" fill="#000000">vector</text>
</g>
<!-- Node1&#45;&gt;Node36 -->
<g id="edge105" class="edge">
<title>Node1&#45;&gt;Node36</title>
<path fill="none" stroke="#191970" d="M1361.5621,-537.4873C1483.8324,-516.9414 1761.3081,-468.3895 1798,-445 1820.5053,-430.6538 1837.4784,-404.3021 1847.0788,-386.4688"/>
<polygon fill="#191970" stroke="#191970" points="1850.1943,-388.0635 1851.6421,-377.5681 1843.9653,-384.8699 1850.1943,-388.0635"/>
</g>
<!-- Node37 -->
<g id="node28" class="node">
<title>Node37</title>
<g id="a_node28"><a xlink:href="InverseKinematics_8h.html" target="_top" xlink:title="iDynTree/InverseKinematics.h">
<polygon fill="none" stroke="#000000" points="1703,-481.5 1703,-500.5 1865,-500.5 1865,-481.5 1703,-481.5"/>
<text text-anchor="middle" x="1784" y="-488.5" font-family="FreeSans.ttf" font-size="10.00" fill="#000000">iDynTree/InverseKinematics.h</text>
</a>
</g>
</g>
<!-- Node1&#45;&gt;Node37 -->
<g id="edge57" class="edge">
<title>Node1&#45;&gt;Node37</title>
<path fill="none" stroke="#191970" d="M1374.053,-538.8272C1458.4089,-528.9856 1600.2941,-512.4324 1693.0364,-501.6124"/>
<polygon fill="#191970" stroke="#191970" points="1693.4463,-505.0884 1702.9733,-500.4531 1692.635,-498.1356 1693.4463,-505.0884"/>
</g>
<!-- Node39 -->
<g id="node30" class="node">
<title>Node39</title>
<g id="a_node30"><a xlink:href="KinDynComputations_8h.html" target="_top" xlink:title="iDynTree/KinDynComputations.h">
<polygon fill="none" stroke="#000000" points="945.5,-481.5 945.5,-500.5 1120.5,-500.5 1120.5,-481.5 945.5,-481.5"/>
<text text-anchor="middle" x="1033" y="-488.5" font-family="FreeSans.ttf" font-size="10.00" fill="#000000">iDynTree/KinDynComputations.h</text>
</a>
</g>
</g>
<!-- Node1&#45;&gt;Node39 -->
<g id="edge65" class="edge">
<title>Node1&#45;&gt;Node39</title>
<path fill="none" stroke="#191970" d="M1257.7214,-537.4369C1211.0495,-527.7925 1138.9551,-512.8948 1089.0669,-502.5858"/>
<polygon fill="#191970" stroke="#191970" points="1089.5892,-499.1198 1079.0878,-500.5237 1088.1726,-505.975 1089.5892,-499.1198"/>
</g>
<!-- Node48 -->
<g id="node35" class="node">
<title>Node48</title>
<g id="a_node35"><a xlink:href="Model_8h.html" target="_top" xlink:title="iDynTree/Model/Model.h">
<polygon fill="none" stroke="#000000" points="2011.5,-481.5 2011.5,-500.5 2144.5,-500.5 2144.5,-481.5 2011.5,-481.5"/>
<text text-anchor="middle" x="2078" y="-488.5" font-family="FreeSans.ttf" font-size="10.00" fill="#000000">iDynTree/Model/Model.h</text>
</a>
</g>
</g>
<!-- Node1&#45;&gt;Node48 -->
<g id="edge85" class="edge">
<title>Node1&#45;&gt;Node48</title>
<path fill="none" stroke="#191970" d="M1374.0525,-541.9316C1519.0128,-531.4435 1850.8881,-507.4319 2001.3402,-496.5464"/>
<polygon fill="#191970" stroke="#191970" points="2001.6979,-500.0298 2011.4193,-495.8172 2001.1927,-493.0481 2001.6979,-500.0298"/>
</g>
<!-- Node57 -->
<g id="node40" class="node">
<title>Node57</title>
<polygon fill="none" stroke="#bfbfbf" points="1177,-481.5 1177,-500.5 1303,-500.5 1303,-481.5 1177,-481.5"/>
<text text-anchor="middle" x="1240" y="-488.5" font-family="FreeSans.ttf" font-size="10.00" fill="#000000">IpIpoptApplication.hpp</text>
</g>
<!-- Node1&#45;&gt;Node57 -->
<g id="edge104" class="edge">
<title>Node1&#45;&gt;Node57</title>
<path fill="none" stroke="#191970" d="M1292.8521,-537.2455C1283.4913,-529.0549 1269.9142,-517.1749 1258.8651,-507.5069"/>
<polygon fill="#191970" stroke="#191970" points="1260.8508,-504.5937 1251.0202,-500.6427 1256.2412,-509.8618 1260.8508,-504.5937"/>
</g>
<!-- Node58 -->
<g id="node41" class="node">
<title>Node58</title>
<polygon fill="none" stroke="#bfbfbf" points="1321.5,-481.5 1321.5,-500.5 1414.5,-500.5 1414.5,-481.5 1321.5,-481.5"/>
<text text-anchor="middle" x="1368" y="-488.5" font-family="FreeSans.ttf" font-size="10.00" fill="#000000">unordered_map</text>
</g>
<!-- Node1&#45;&gt;Node58 -->
<g id="edge107" class="edge">
<title>Node1&#45;&gt;Node58</title>
<path fill="none" stroke="#191970" d="M1315.1479,-537.2455C1324.5087,-529.0549 1338.0858,-517.1749 1349.1349,-507.5069"/>
<polygon fill="#191970" stroke="#191970" points="1351.7588,-509.8618 1356.9798,-500.6427 1347.1492,-504.5937 1351.7588,-509.8618"/>
</g>
<!-- Node3 -->
<g id="node4" class="node">
<title>Node3</title>
<polygon fill="none" stroke="#bfbfbf" points="725,-358.5 725,-377.5 795,-377.5 795,-358.5 725,-358.5"/>
<text text-anchor="middle" x="760" y="-365.5" font-family="FreeSans.ttf" font-size="10.00" fill="#000000">IpTNLP.hpp</text>
</g>
<!-- Node2&#45;&gt;Node3 -->
<g id="edge3" class="edge">
<title>Node2&#45;&gt;Node3</title>
<path fill="none" stroke="#191970" d="M714.4375,-419.8906C722.5531,-410.6478 735.0055,-396.466 744.8424,-385.2628"/>
<polygon fill="#191970" stroke="#191970" points="747.4755,-387.5686 751.4435,-377.7449 742.2154,-382.95 747.4755,-387.5686"/>
</g>
<!-- Node4 -->
<g id="node5" class="node">
<title>Node4</title>
<g id="a_node5"><a xlink:href="VectorFixSize_8h.html" target="_top" xlink:title="iDynTree/Core/VectorFixSize.h">
<polygon fill="none" stroke="#000000" points="583.5,-112.5 583.5,-131.5 744.5,-131.5 744.5,-112.5 583.5,-112.5"/>
<text text-anchor="middle" x="664" y="-119.5" font-family="FreeSans.ttf" font-size="10.00" fill="#000000">iDynTree/Core/VectorFixSize.h</text>
</a>
</g>
</g>
<!-- Node2&#45;&gt;Node4 -->
<g id="edge4" class="edge">
<title>Node2&#45;&gt;Node4</title>
<path fill="none" stroke="#191970" d="M704.7739,-419.7727C702.3554,-404.5574 695.5833,-375.1029 678,-358 644.1393,-325.0643 614.1222,-352.4384 578,-322 551.8213,-299.9404 548.7334,-288.101 540,-255 530.1357,-217.6127 517.9195,-199.7421 540,-168 548.992,-155.0735 583.9425,-142.794 614.4549,-134.1788"/>
<polygon fill="#191970" stroke="#191970" points="615.4495,-137.5354 624.1671,-131.5143 613.5974,-130.7848 615.4495,-137.5354"/>
</g>
<!-- Node2&#45;&gt;Node20 -->
<g id="edge16" class="edge">
<title>Node2&#45;&gt;Node20</title>
<path fill="none" stroke="#191970" d="M773.0009,-425.4548C897.8139,-417.7466 1174.6346,-399.8404 1419.2108,-378.0421"/>
<polygon fill="#191970" stroke="#191970" points="1419.7141,-381.5111 1429.3622,-377.1334 1419.09,-374.539 1419.7141,-381.5111"/>
</g>
<!-- Node2&#45;&gt;Node21 -->
<g id="edge19" class="edge">
<title>Node2&#45;&gt;Node21</title>
<path fill="none" stroke="#191970" d="M768.0611,-419.9581C839.9894,-408.8991 958.3275,-390.7047 1034.1717,-379.0436"/>
<polygon fill="#191970" stroke="#191970" points="1034.7704,-382.4928 1044.1224,-377.5137 1033.7066,-375.5741 1034.7704,-382.4928"/>
</g>
<!-- Node2&#45;&gt;Node23 -->
<g id="edge25" class="edge">
<title>Node2&#45;&gt;Node23</title>
<path fill="none" stroke="#191970" d="M665.0397,-419.9581C618.7005,-409.1632 543.176,-391.5694 493.0394,-379.8899"/>
<polygon fill="#191970" stroke="#191970" points="493.5898,-376.4244 483.0564,-377.5643 492.0016,-383.2419 493.5898,-376.4244"/>
</g>
<!-- Node2&#45;&gt;Node33 -->
<g id="edge30" class="edge">
<title>Node2&#45;&gt;Node33</title>
<path fill="none" stroke="#191970" d="M773.0367,-422.9766C889.3354,-411.6596 1128.157,-388.4198 1254.8342,-376.0929"/>
<polygon fill="#191970" stroke="#191970" points="1255.2605,-379.568 1264.8745,-375.1159 1254.5825,-372.6009 1255.2605,-379.568"/>
</g>
<!-- Node2&#45;&gt;Node34 -->
<g id="edge49" class="edge">
<title>Node2&#45;&gt;Node34</title>
<path fill="none" stroke="#191970" d="M725.6875,-419.8906C746.6139,-409.6766 779.8976,-393.4309 803.6471,-381.8389"/>
<polygon fill="#191970" stroke="#191970" points="805.4119,-384.8723 812.8633,-377.3405 802.3414,-378.5816 805.4119,-384.8723"/>
</g>
<!-- Node5 -->
<g id="node6" class="node">
<title>Node5</title>
<g id="a_node6"><a xlink:href="Utils_8h.html" target="_top" xlink:title="iDynTree/Core/Utils.h">
<polygon fill="none" stroke="#000000" points="877.5,-56.5 877.5,-75.5 996.5,-75.5 996.5,-56.5 877.5,-56.5"/>
<text text-anchor="middle" x="937" y="-63.5" font-family="FreeSans.ttf" font-size="10.00" fill="#000000">iDynTree/Core/Utils.h</text>
</a>
</g>
</g>
<!-- Node4&#45;&gt;Node5 -->
<g id="edge5" class="edge">
<title>Node4&#45;&gt;Node5</title>
<path fill="none" stroke="#191970" d="M710.6202,-112.4369C757.6365,-102.7925 830.2629,-87.8948 880.5193,-77.5858"/>
<polygon fill="#191970" stroke="#191970" points="881.4794,-80.9618 890.5721,-75.5237 880.0727,-74.1046 881.4794,-80.9618"/>
</g>
<!-- Node6 -->
<g id="node7" class="node">
<title>Node6</title>
<polygon fill="none" stroke="#bfbfbf" points="919.5,-.5 919.5,-19.5 972.5,-19.5 972.5,-.5 919.5,-.5"/>
<text text-anchor="middle" x="946" y="-7.5" font-family="FreeSans.ttf" font-size="10.00" fill="#000000">cstddef</text>
</g>
<!-- Node4&#45;&gt;Node6 -->
<g id="edge14" class="edge">
<title>Node4&#45;&gt;Node6</title>
<path fill="none" stroke="#191970" d="M658.4818,-112.158C651.3439,-97.9597 641.3485,-71.7142 655,-56 690.6993,-14.9068 838.506,-29.9871 909.1198,-19.6261"/>
<polygon fill="#191970" stroke="#191970" points="910.1197,-23.0038 919.3588,-17.8183 908.9025,-16.1104 910.1197,-23.0038"/>
</g>
<!-- Node8 -->
<g id="node9" class="node">
<title>Node8</title>
<g id="a_node9"><a xlink:href="Span_8h.html" target="_top" xlink:title="iDynTree/Core/Span.h">
<polygon fill="none" stroke="#ff0000" points="1053.5,-56.5 1053.5,-75.5 1174.5,-75.5 1174.5,-56.5 1053.5,-56.5"/>
<text text-anchor="middle" x="1114" y="-63.5" font-family="FreeSans.ttf" font-size="10.00" fill="#000000">iDynTree/Core/Span.h</text>
</a>
</g>
</g>
<!-- Node4&#45;&gt;Node8 -->
<g id="edge8" class="edge">
<title>Node4&#45;&gt;Node8</title>
<path fill="none" stroke="#191970" d="M740.5913,-112.4686C825.3691,-101.9185 960.8883,-85.0539 1043.2468,-74.8048"/>
<polygon fill="#191970" stroke="#191970" points="1043.7759,-78.2661 1053.2672,-73.5579 1042.9114,-71.3197 1043.7759,-78.2661"/>
</g>
<!-- Node4&#45;&gt;Node9 -->
<g id="edge13" class="edge">
<title>Node4&#45;&gt;Node9</title>
<path fill="none" stroke="#191970" d="M664.5035,-112.1065C665.8297,-97.3444 670.6336,-69.8134 688,-56 739.513,-15.0262 917.186,-31.471 982,-20 984.2076,-19.6093 986.472,-19.1773 988.7515,-18.7186"/>
<polygon fill="#191970" stroke="#191970" points="989.6693,-22.1015 998.7125,-16.5814 988.2007,-15.2572 989.6693,-22.1015"/>
</g>
<!-- Node17 -->
<g id="node11" class="node">
<title>Node17</title>
<polygon fill="none" stroke="#bfbfbf" points="1665,-56.5 1665,-75.5 1709,-75.5 1709,-56.5 1665,-56.5"/>
<text text-anchor="middle" x="1687" y="-63.5" font-family="FreeSans.ttf" font-size="10.00" fill="#000000">string</text>
</g>
<!-- Node4&#45;&gt;Node17 -->
<g id="edge11" class="edge">
<title>Node4&#45;&gt;Node17</title>
<path fill="none" stroke="#191970" d="M744.7002,-117.5824C955.299,-106.054 1514.9014,-75.4208 1654.9025,-67.757"/>
<polygon fill="#191970" stroke="#191970" points="1655.1828,-71.247 1664.9765,-67.2056 1654.8001,-64.2575 1655.1828,-71.247"/>
</g>
<!-- Node18 -->
<g id="node12" class="node">
<title>Node18</title>
<polygon fill="none" stroke="#bfbfbf" points="697,-56.5 697,-75.5 753,-75.5 753,-56.5 697,-56.5"/>
<text text-anchor="middle" x="725" y="-63.5" font-family="FreeSans.ttf" font-size="10.00" fill="#000000">sstream</text>
</g>
<!-- Node4&#45;&gt;Node18 -->
<g id="edge12" class="edge">
<title>Node4&#45;&gt;Node18</title>
<path fill="none" stroke="#191970" d="M674.6254,-112.2455C683.5473,-104.0549 696.488,-92.1749 707.0192,-82.5069"/>
<polygon fill="#191970" stroke="#191970" points="709.4968,-84.9837 714.4964,-75.6427 704.7629,-79.8271 709.4968,-84.9837"/>
</g>
<!-- Node19 -->
<g id="node13" class="node">
<title>Node19</title>
<polygon fill="none" stroke="#bfbfbf" points="771,-56.5 771,-75.5 821,-75.5 821,-56.5 771,-56.5"/>
<text text-anchor="middle" x="796" y="-63.5" font-family="FreeSans.ttf" font-size="10.00" fill="#000000">cstring</text>
</g>
<!-- Node4&#45;&gt;Node19 -->
<g id="edge15" class="edge">
<title>Node4&#45;&gt;Node19</title>
<path fill="none" stroke="#191970" d="M686.6916,-112.3733C708.0711,-103.3032 740.3057,-89.6279 764.2362,-79.4755"/>
<polygon fill="#191970" stroke="#191970" points="765.7656,-82.6287 773.6045,-75.5011 763.0317,-76.1846 765.7656,-82.6287"/>
</g>
<!-- Node5&#45;&gt;Node6 -->
<g id="edge6" class="edge">
<title>Node5&#45;&gt;Node6</title>
<path fill="none" stroke="#191970" d="M938.5677,-56.2455C939.7421,-48.9382 941.3884,-38.6944 942.8332,-29.7046"/>
<polygon fill="#191970" stroke="#191970" points="946.3191,-30.0714 944.4503,-19.6427 939.4078,-28.9606 946.3191,-30.0714"/>
</g>
<!-- Node7 -->
<g id="node8" class="node">
<title>Node7</title>
<polygon fill="none" stroke="#bfbfbf" points="821,-.5 821,-19.5 901,-19.5 901,-.5 821,-.5"/>
<text text-anchor="middle" x="861" y="-7.5" font-family="FreeSans.ttf" font-size="10.00" fill="#000000">CoreExport.h</text>
</g>
<!-- Node5&#45;&gt;Node7 -->
<g id="edge7" class="edge">
<title>Node5&#45;&gt;Node7</title>
<path fill="none" stroke="#191970" d="M923.7618,-56.2455C912.319,-47.814 895.5704,-35.4729 882.2525,-25.6598"/>
<polygon fill="#191970" stroke="#191970" points="884.2133,-22.757 874.0865,-19.6427 880.0609,-28.3924 884.2133,-22.757"/>
</g>
<!-- Node8&#45;&gt;Node6 -->
<g id="edge10" class="edge">
<title>Node8&#45;&gt;Node6</title>
<path fill="none" stroke="#191970" d="M1085.1198,-56.3733C1056.5913,-46.8638 1012.8763,-32.2921 982.0774,-22.0258"/>
<polygon fill="#191970" stroke="#191970" points="983.1609,-18.6977 972.5672,-18.8557 980.9472,-25.3385 983.1609,-18.6977"/>
</g>
<!-- Node8&#45;&gt;Node9 -->
<g id="edge9" class="edge">
<title>Node8&#45;&gt;Node9</title>
<path fill="none" stroke="#191970" d="M1098.4974,-56.2455C1084.842,-47.6534 1064.7343,-35.0014 1049.0011,-25.1018"/>
<polygon fill="#191970" stroke="#191970" points="1050.6529,-22.006 1040.325,-19.6427 1046.9249,-27.9307 1050.6529,-22.006"/>
</g>
<!-- Node20&#45;&gt;Node8 -->
<g id="edge17" class="edge">
<title>Node20&#45;&gt;Node8</title>
<path fill="none" stroke="#191970" d="M1506.4333,-358.4206C1480.2076,-320.8991 1378.6862,-182.5303 1261,-112 1234.545,-96.1453 1202.0898,-85.2397 1174.4107,-78.0418"/>
<polygon fill="#191970" stroke="#191970" points="1174.9992,-74.5814 1164.4492,-75.5555 1173.3039,-81.3731 1174.9992,-74.5814"/>
</g>
<!-- Node20&#45;&gt;Node17 -->
<g id="edge18" class="edge">
<title>Node20&#45;&gt;Node17</title>
<path fill="none" stroke="#191970" d="M1508.3266,-358.3533C1494.2725,-327.8316 1455.6573,-231.6321 1494,-168 1529.1133,-109.7273 1609.8856,-83.0237 1655.015,-72.2691"/>
<polygon fill="#191970" stroke="#191970" points="1655.8925,-75.6591 1664.8738,-70.0388 1654.3479,-68.8316 1655.8925,-75.6591"/>
</g>
<!-- Node21&#45;&gt;Node17 -->
<g id="edge20" class="edge">
<title>Node21&#45;&gt;Node17</title>
<path fill="none" stroke="#191970" d="M1189.8497,-360.3029C1264.1724,-348.3206 1361,-317.7033 1361,-239.5 1361,-239.5 1361,-239.5 1361,-178 1361,-137.7538 1387.5765,-131.1031 1423,-112 1462.5953,-90.6471 1593.024,-75.3046 1654.4548,-69.077"/>
<polygon fill="#191970" stroke="#191970" points="1655.1345,-72.5268 1664.7392,-68.0545 1654.4419,-65.5611 1655.1345,-72.5268"/>
</g>
<!-- Node22 -->
<g id="node16" class="node">
<title>Node22</title>
<g id="a_node16"><a xlink:href="MatrixView_8h.html" target="_top" xlink:title="iDynTree/Core/MatrixView.h">
<polygon fill="none" stroke="#ff0000" points="953.5,-112.5 953.5,-131.5 1104.5,-131.5 1104.5,-112.5 953.5,-112.5"/>
<text text-anchor="middle" x="1029" y="-119.5" font-family="FreeSans.ttf" font-size="10.00" fill="#000000">iDynTree/Core/MatrixView.h</text>
</a>
</g>
</g>
<!-- Node21&#45;&gt;Node22 -->
<g id="edge21" class="edge">
<title>Node21&#45;&gt;Node22</title>
<path fill="none" stroke="#191970" d="M1103.0812,-358.409C1094.2914,-329.5651 1067.2464,-241.096 1044,-168 1041.2032,-159.2058 1038.0445,-149.4882 1035.3495,-141.2591"/>
<polygon fill="#191970" stroke="#191970" points="1038.5901,-139.9093 1032.1432,-131.5017 1031.9399,-142.0946 1038.5901,-139.9093"/>
</g>
<!-- Node22&#45;&gt;Node5 -->
<g id="edge24" class="edge">
<title>Node22&#45;&gt;Node5</title>
<path fill="none" stroke="#191970" d="M1012.9748,-112.2455C998.8592,-103.6534 978.0737,-91.0014 961.8101,-81.1018"/>
<polygon fill="#191970" stroke="#191970" points="963.2034,-77.8525 952.8415,-75.6427 959.5637,-83.8319 963.2034,-77.8525"/>
</g>
<!-- Node22&#45;&gt;Node8 -->
<g id="edge23" class="edge">
<title>Node22&#45;&gt;Node8</title>
<path fill="none" stroke="#191970" d="M1043.8059,-112.2455C1056.7256,-103.7337 1075.6931,-91.2375 1090.6552,-81.3801"/>
<polygon fill="#191970" stroke="#191970" points="1092.9387,-84.067 1099.3638,-75.6427 1089.0876,-78.2216 1092.9387,-84.067"/>
</g>
<!-- Node22&#45;&gt;Node9 -->
<g id="edge22" class="edge">
<title>Node22&#45;&gt;Node9</title>
<path fill="none" stroke="#191970" d="M1028.659,-112.4509C1028.0066,-94.184 1026.5698,-53.9553 1025.7035,-29.6976"/>
<polygon fill="#191970" stroke="#191970" points="1029.195,-29.3936 1025.3402,-19.5249 1022.1994,-29.6435 1029.195,-29.3936"/>
</g>
<!-- Node24 -->
<g id="node18" class="node">
<title>Node24</title>
<g id="a_node18"><a xlink:href="SpatialMotionVector_8h.html" target="_top" xlink:title="iDynTree/Core/SpatialMotion\lVector.h">
<polygon fill="none" stroke="#ff0000" points="370.5,-291.5 370.5,-321.5 525.5,-321.5 525.5,-291.5 370.5,-291.5"/>
<text text-anchor="start" x="378.5" y="-309.5" font-family="FreeSans.ttf" font-size="10.00" fill="#000000">iDynTree/Core/SpatialMotion</text>
<text text-anchor="middle" x="448" y="-298.5" font-family="FreeSans.ttf" font-size="10.00" fill="#000000">Vector.h</text>
</a>
</g>
</g>
<!-- Node23&#45;&gt;Node24 -->
<g id="edge26" class="edge">
<title>Node23&#45;&gt;Node24</title>
<path fill="none" stroke="#191970" d="M442.9375,-358.3906C443.6367,-351.2234 444.6257,-341.0862 445.5443,-331.671"/>
<polygon fill="#191970" stroke="#191970" points="449.0446,-331.8372 446.5322,-321.5446 442.0777,-331.1575 449.0446,-331.8372"/>
</g>
<!-- Node24&#45;&gt;Node4 -->
<g id="edge27" class="edge">
<title>Node24&#45;&gt;Node4</title>
<path fill="none" stroke="#191970" d="M452.1484,-291.0403C461.1306,-258.6396 483.0951,-185.1875 502,-168 516.9571,-154.4017 563.0231,-142.0723 602.2263,-133.6087"/>
<polygon fill="#191970" stroke="#191970" points="602.9602,-137.031 612.0222,-131.5418 601.515,-130.1818 602.9602,-137.031"/>
</g>
<!-- Node25 -->
<g id="node19" class="node">
<title>Node25</title>
<g id="a_node19"><a xlink:href="GeomVector3_8h.html" target="_top" xlink:title="iDynTree/Core/GeomVector3.h">
<polygon fill="none" stroke="#000000" points="582.5,-168.5 582.5,-187.5 745.5,-187.5 745.5,-168.5 582.5,-168.5"/>
<text text-anchor="middle" x="664" y="-175.5" font-family="FreeSans.ttf" font-size="10.00" fill="#000000">iDynTree/Core/GeomVector3.h</text>
</a>
</g>
</g>
<!-- Node24&#45;&gt;Node25 -->
<g id="edge28" class="edge">
<title>Node24&#45;&gt;Node25</title>
<path fill="none" stroke="#191970" d="M473.6263,-291.2548C515.4951,-266.3467 598.0291,-217.2466 639.2936,-192.698"/>
<polygon fill="#191970" stroke="#191970" points="641.1077,-195.6913 647.9125,-187.5706 637.5288,-189.6754 641.1077,-195.6913"/>
</g>
<!-- Node25&#45;&gt;Node4 -->
<g id="edge29" class="edge">
<title>Node25&#45;&gt;Node4</title>
<path fill="none" stroke="#191970" d="M664,-168.2455C664,-160.9382 664,-150.6944 664,-141.7046"/>
<polygon fill="#191970" stroke="#191970" points="667.5001,-141.6426 664,-131.6427 660.5001,-141.6427 667.5001,-141.6426"/>
</g>
<!-- Node33&#45;&gt;Node17 -->
<g id="edge48" class="edge">
<title>Node33&#45;&gt;Node17</title>
<path fill="none" stroke="#191970" d="M1311.6803,-358.4324C1260.9427,-338.3296 1157.1269,-288.2107 1187,-224 1219.5976,-153.9333 1249.1971,-142.9662 1320,-112 1379.8425,-85.8274 1576.3285,-72.2032 1654.5001,-67.7116"/>
<polygon fill="#191970" stroke="#191970" points="1654.9306,-71.193 1664.7187,-67.138 1654.5382,-64.204 1654.9306,-71.193"/>
</g>
<!-- Node27 -->
<g id="node21" class="node">
<title>Node27</title>
<g id="a_node21"><a xlink:href="Position_8h.html" target="_top" xlink:title="Position.h">
<polygon fill="none" stroke="#000000" points="1595.5,-297 1595.5,-316 1660.5,-316 1660.5,-297 1595.5,-297"/>
<text text-anchor="middle" x="1628" y="-304" font-family="FreeSans.ttf" font-size="10.00" fill="#000000">Position.h</text>
</a>
</g>
</g>
<!-- Node33&#45;&gt;Node27 -->
<g id="edge31" class="edge">
<title>Node33&#45;&gt;Node27</title>
<path fill="none" stroke="#191970" d="M1382.9943,-358.4581C1438.2947,-346.7306 1531.433,-326.9789 1585.5444,-315.5035"/>
<polygon fill="#191970" stroke="#191970" points="1586.4434,-318.8908 1595.4998,-313.3923 1584.9912,-312.0431 1586.4434,-318.8908"/>
</g>
<!-- Node29 -->
<g id="node23" class="node">
<title>Node29</title>
<g id="a_node23"><a xlink:href="Rotation_8h.html" target="_top" xlink:title="iDynTree/Core/Rotation.h">
<polygon fill="none" stroke="#ff0000" points="1195.5,-230 1195.5,-249 1332.5,-249 1332.5,-230 1195.5,-230"/>
<text text-anchor="middle" x="1264" y="-237" font-family="FreeSans.ttf" font-size="10.00" fill="#000000">iDynTree/Core/Rotation.h</text>
</a>
</g>
</g>
<!-- Node33&#45;&gt;Node29 -->
<g id="edge40" class="edge">
<title>Node33&#45;&gt;Node29</title>
<path fill="none" stroke="#191970" d="M1332.438,-358.3416C1320.1705,-337.0393 1290.6171,-285.7203 1274.6551,-258.0025"/>
<polygon fill="#191970" stroke="#191970" points="1277.6501,-256.1896 1269.6266,-249.2705 1271.584,-259.6829 1277.6501,-256.1896"/>
</g>
<!-- Node31 -->
<g id="node24" class="node">
<title>Node31</title>
<g id="a_node24"><a xlink:href="MatrixFixSize_8h.html" target="_top" xlink:title="iDynTree/Core/MatrixFixSize.h">
<polygon fill="none" stroke="#ff0000" points="802.5,-168.5 802.5,-187.5 963.5,-187.5 963.5,-168.5 802.5,-168.5"/>
<text text-anchor="middle" x="883" y="-175.5" font-family="FreeSans.ttf" font-size="10.00" fill="#000000">iDynTree/Core/MatrixFixSize.h</text>
</a>
</g>
</g>
<!-- Node33&#45;&gt;Node31 -->
<g id="edge41" class="edge">
<title>Node33&#45;&gt;Node31</title>
<path fill="none" stroke="#191970" d="M1285.1113,-358.4612C1247.5253,-350.8177 1196.2517,-338.6183 1153,-322 1057.1959,-285.1899 952.2248,-221.9297 906.4826,-193.1039"/>
<polygon fill="#191970" stroke="#191970" points="908.2136,-190.0571 897.8943,-187.6563 904.4641,-195.9683 908.2136,-190.0571"/>
</g>
<!-- Node27&#45;&gt;Node17 -->
<g id="edge39" class="edge">
<title>Node27&#45;&gt;Node17</title>
<path fill="none" stroke="#191970" d="M1631.8946,-296.8354C1639.8104,-276.8398 1657.883,-229.3382 1668,-188 1676.7102,-152.4101 1682.2594,-109.957 1684.9856,-85.6723"/>
<polygon fill="#191970" stroke="#191970" points="1688.4793,-85.9181 1686.0698,-75.6009 1681.5195,-85.1688 1688.4793,-85.9181"/>
</g>
<!-- Node28 -->
<g id="node22" class="node">
<title>Node28</title>
<g id="a_node22"><a xlink:href="PositionRaw_8h.html" target="_top" xlink:title="iDynTree/Core/PositionRaw.h">
<polygon fill="none" stroke="#000000" points="1503,-168.5 1503,-187.5 1659,-187.5 1659,-168.5 1503,-168.5"/>
<text text-anchor="middle" x="1581" y="-175.5" font-family="FreeSans.ttf" font-size="10.00" fill="#000000">iDynTree/Core/PositionRaw.h</text>
</a>
</g>
</g>
<!-- Node27&#45;&gt;Node28 -->
<g id="edge32" class="edge">
<title>Node27&#45;&gt;Node28</title>
<path fill="none" stroke="#191970" d="M1624.4674,-296.8416C1616.7439,-275.7254 1598.2325,-225.1144 1588.035,-197.2341"/>
<polygon fill="#191970" stroke="#191970" points="1591.2958,-195.9597 1584.5736,-187.7705 1584.7217,-198.3643 1591.2958,-195.9597"/>
</g>
<!-- Node27&#45;&gt;Node29 -->
<g id="edge35" class="edge">
<title>Node27&#45;&gt;Node29</title>
<path fill="none" stroke="#191970" d="M1595.3771,-300.4952C1534.7553,-289.3368 1403.8371,-265.2392 1325.9273,-250.8987"/>
<polygon fill="#191970" stroke="#191970" points="1326.2334,-247.3963 1315.765,-249.0282 1324.9662,-254.2807 1326.2334,-247.3963"/>
</g>
<!-- Node28&#45;&gt;Node4 -->
<g id="edge33" class="edge">
<title>Node28&#45;&gt;Node4</title>
<path fill="none" stroke="#191970" d="M1502.8171,-173.2255C1333.7189,-162.8989 934.7635,-138.5352 754.8272,-127.5467"/>
<polygon fill="#191970" stroke="#191970" points="754.7938,-124.0382 744.599,-126.9221 754.367,-131.0252 754.7938,-124.0382"/>
</g>
<!-- Node28&#45;&gt;Node17 -->
<g id="edge34" class="edge">
<title>Node28&#45;&gt;Node17</title>
<path fill="none" stroke="#191970" d="M1590.0375,-168.4509C1608.0299,-149.4401 1648.5349,-106.6423 1671.0848,-82.816"/>
<polygon fill="#191970" stroke="#191970" points="1673.6535,-85.1937 1677.9854,-75.5249 1668.5695,-80.382 1673.6535,-85.1937"/>
</g>
<!-- Node29&#45;&gt;Node4 -->
<g id="edge38" class="edge">
<title>Node29&#45;&gt;Node4</title>
<path fill="none" stroke="#191970" d="M1195.0975,-235.0377C1083.2537,-227.277 867.3158,-209.9978 794,-188 775.3421,-182.4018 772.3591,-176.8384 755,-168 734.1026,-157.3601 710.466,-145.4145 692.5204,-136.3635"/>
<polygon fill="#191970" stroke="#191970" points="693.6948,-133.036 683.1898,-131.6597 690.5437,-139.2866 693.6948,-133.036"/>
</g>
<!-- Node29&#45;&gt;Node17 -->
<g id="edge36" class="edge">
<title>Node29&#45;&gt;Node17</title>
<path fill="none" stroke="#191970" d="M1267.1219,-229.7823C1275.5451,-205.294 1301.2434,-140.9494 1347,-112 1397.7361,-79.9002 1579.3921,-69.8308 1654.3237,-67.0005"/>
<polygon fill="#191970" stroke="#191970" points="1654.708,-70.4891 1664.5765,-66.6337 1654.4577,-63.4936 1654.708,-70.4891"/>
</g>
<!-- Node29&#45;&gt;Node25 -->
<g id="edge37" class="edge">
<title>Node29&#45;&gt;Node25</title>
<path fill="none" stroke="#191970" d="M1195.1096,-232.5038C1098.0507,-222.6372 915.5156,-204.0452 760,-188 758.6874,-187.8646 757.3646,-187.728 756.0337,-187.5905"/>
<polygon fill="#191970" stroke="#191970" points="756.0069,-184.0691 745.6998,-186.5214 755.2865,-191.032 756.0069,-184.0691"/>
</g>
<!-- Node31&#45;&gt;Node5 -->
<g id="edge42" class="edge">
<title>Node31&#45;&gt;Node5</title>
<path fill="none" stroke="#191970" d="M886.6574,-168.4493C891.7138,-155.4767 901.3171,-131.6503 911,-112 915.5464,-102.7736 921.098,-92.8049 925.902,-84.5141"/>
<polygon fill="#191970" stroke="#191970" points="929.0355,-86.0904 931.0932,-75.6973 923.0034,-82.5388 929.0355,-86.0904"/>
</g>
<!-- Node31&#45;&gt;Node9 -->
<g id="edge44" class="edge">
<title>Node31&#45;&gt;Node9</title>
<path fill="none" stroke="#191970" d="M877.7857,-168.2783C866.6045,-145.9561 843.3392,-90.3198 869,-56 872.6941,-51.0594 944.0607,-31.423 988.9725,-19.4605"/>
<polygon fill="#191970" stroke="#191970" points="989.9002,-22.8356 998.6679,-16.8877 988.1047,-16.0697 989.9002,-22.8356"/>
</g>
<!-- Node31&#45;&gt;Node17 -->
<g id="edge46" class="edge">
<title>Node31&#45;&gt;Node17</title>
<path fill="none" stroke="#191970" d="M933.3882,-168.4614C1007.2552,-154.6985 1149.369,-129.0549 1271,-112 1413.4145,-92.0309 1584.262,-75.4448 1654.4622,-68.9459"/>
<polygon fill="#191970" stroke="#191970" points="1655.2078,-72.3922 1664.845,-67.9905 1654.5663,-65.4216 1655.2078,-72.3922"/>
</g>
<!-- Node31&#45;&gt;Node18 -->
<g id="edge47" class="edge">
<title>Node31&#45;&gt;Node18</title>
<path fill="none" stroke="#191970" d="M869.0556,-168.3628C855.671,-159.0932 834.9038,-144.6604 817,-132 792.7528,-114.8541 765.0841,-94.9599 746.4764,-81.5324"/>
<polygon fill="#191970" stroke="#191970" points="748.5232,-78.6932 738.367,-75.6759 744.4249,-84.3681 748.5232,-78.6932"/>
</g>
<!-- Node31&#45;&gt;Node19 -->
<g id="edge45" class="edge">
<title>Node31&#45;&gt;Node19</title>
<path fill="none" stroke="#191970" d="M871.0663,-168.2005C860.7759,-159.3882 845.8973,-145.7494 835,-132 823.292,-117.2277 812.6021,-98.6005 805.3872,-84.9048"/>
<polygon fill="#191970" stroke="#191970" points="808.4614,-83.2294 800.7828,-75.9294 802.2331,-86.4245 808.4614,-83.2294"/>
</g>
<!-- Node31&#45;&gt;Node22 -->
<g id="edge43" class="edge">
<title>Node31&#45;&gt;Node22</title>
<path fill="none" stroke="#191970" d="M908.0983,-168.3733C931.9555,-159.2226 968.0335,-145.3844 994.571,-135.2057"/>
<polygon fill="#191970" stroke="#191970" points="996.1459,-138.3503 1004.2292,-131.5011 993.639,-131.8145 996.1459,-138.3503"/>
</g>
<!-- Node35&#45;&gt;Node17 -->
<g id="edge51" class="edge">
<title>Node35&#45;&gt;Node17</title>
<path fill="none" stroke="#191970" d="M1675.9256,-419.9994C1691.5876,-400.2237 1725,-352.6299 1725,-306.5 1725,-306.5 1725,-306.5 1725,-178 1725,-143.6118 1708.7366,-106.2832 1697.489,-84.5791"/>
<polygon fill="#191970" stroke="#191970" points="1700.431,-82.6605 1692.607,-75.5166 1694.2683,-85.9804 1700.431,-82.6605"/>
</g>
<!-- Node35&#45;&gt;Node20 -->
<g id="edge56" class="edge">
<title>Node35&#45;&gt;Node20</title>
<path fill="none" stroke="#191970" d="M1643.7813,-419.8906C1617.6194,-409.5103 1575.7571,-392.9004 1546.4612,-381.2766"/>
<polygon fill="#191970" stroke="#191970" points="1547.6346,-377.9767 1537.0487,-377.5419 1545.0529,-384.4833 1547.6346,-377.9767"/>
</g>
<!-- Node35&#45;&gt;Node21 -->
<g id="edge53" class="edge">
<title>Node35&#45;&gt;Node21</title>
<path fill="none" stroke="#191970" d="M1585.3769,-420.4585C1482.665,-409.2187 1307.7811,-390.081 1200.0347,-378.2903"/>
<polygon fill="#191970" stroke="#191970" points="1200.1433,-374.7813 1189.8219,-377.1727 1199.3818,-381.7398 1200.1433,-374.7813"/>
</g>
<!-- Node35&#45;&gt;Node33 -->
<g id="edge55" class="edge">
<title>Node35&#45;&gt;Node33</title>
<path fill="none" stroke="#191970" d="M1616.7996,-419.9581C1558.0643,-409.012 1461.8183,-391.0752 1399.1847,-379.4026"/>
<polygon fill="#191970" stroke="#191970" points="1399.521,-375.9051 1389.049,-377.5137 1398.2385,-382.7866 1399.521,-375.9051"/>
</g>
<!-- Node35&#45;&gt;Node27 -->
<g id="edge54" class="edge">
<title>Node35&#45;&gt;Node27</title>
<path fill="none" stroke="#191970" d="M1664.8613,-419.8484C1658.2893,-399.6397 1642.9732,-352.5427 1634.2936,-325.8528"/>
<polygon fill="#191970" stroke="#191970" points="1637.5453,-324.5341 1631.1242,-316.1068 1630.8884,-326.699 1637.5453,-324.5341"/>
</g>
<!-- Node35&#45;&gt;Node36 -->
<g id="edge52" class="edge">
<title>Node35&#45;&gt;Node36</title>
<path fill="none" stroke="#191970" d="M1697.375,-419.8906C1731.3065,-408.7907 1787.013,-390.5676 1822.5735,-378.9347"/>
<polygon fill="#191970" stroke="#191970" points="1824.0588,-382.1314 1832.475,-375.6957 1821.8824,-375.4784 1824.0588,-382.1314"/>
</g>
<!-- Node37&#45;&gt;Node17 -->
<g id="edge58" class="edge">
<title>Node37&#45;&gt;Node17</title>
<path fill="none" stroke="#191970" d="M1822.2312,-481.4751C1894.7264,-462.2894 2045,-416.652 2045,-368 2045,-368 2045,-368 2045,-178 2045,-108.4794 1777.0449,-83.6724 1719.1494,-76.1258"/>
<polygon fill="#191970" stroke="#191970" points="1719.4304,-72.6262 1709.0019,-74.4966 1718.3206,-79.5377 1719.4304,-72.6262"/>
</g>
<!-- Node37&#45;&gt;Node35 -->
<g id="edge60" class="edge">
<title>Node37&#45;&gt;Node35</title>
<path fill="none" stroke="#191970" d="M1765.875,-481.3906C1746.8917,-471.3262 1716.8627,-455.4057 1695.0693,-443.8514"/>
<polygon fill="#191970" stroke="#191970" points="1696.4723,-440.6338 1685.9977,-439.0419 1693.1934,-446.8184 1696.4723,-440.6338"/>
</g>
<!-- Node37&#45;&gt;Node36 -->
<g id="edge59" class="edge">
<title>Node37&#45;&gt;Node36</title>
<path fill="none" stroke="#191970" d="M1819.5598,-481.3459C1837.7465,-474.4075 1858.2637,-463.0179 1869,-445 1879.5744,-427.2538 1872.9551,-403.3536 1865.8636,-386.9124"/>
<polygon fill="#191970" stroke="#191970" points="1868.9754,-385.3054 1861.5367,-377.7611 1862.6471,-388.2976 1868.9754,-385.3054"/>
</g>
<!-- Node38 -->
<g id="node29" class="node">
<title>Node38</title>
<g id="a_node29"><a xlink:href="Direction_8h.html" target="_top" xlink:title="iDynTree/Core/Direction.h">
<polygon fill="none" stroke="#000000" points="1753.5,-168.5 1753.5,-187.5 1894.5,-187.5 1894.5,-168.5 1753.5,-168.5"/>
<text text-anchor="middle" x="1824" y="-175.5" font-family="FreeSans.ttf" font-size="10.00" fill="#000000">iDynTree/Core/Direction.h</text>
</a>
</g>
</g>
<!-- Node37&#45;&gt;Node38 -->
<g id="edge61" class="edge">
<title>Node37&#45;&gt;Node38</title>
<path fill="none" stroke="#191970" d="M1783.3463,-481.4362C1781.991,-460.7538 1779,-410.3162 1779,-368 1779,-368 1779,-368 1779,-306.5 1779,-265.3653 1799.7945,-220.7758 1813.1121,-196.4369"/>
<polygon fill="#191970" stroke="#191970" points="1816.2384,-198.019 1818.117,-187.592 1810.1461,-194.5716 1816.2384,-198.019"/>
</g>
<!-- Node38&#45;&gt;Node4 -->
<g id="edge63" class="edge">
<title>Node38&#45;&gt;Node4</title>
<path fill="none" stroke="#191970" d="M1753.3478,-173.1974C1726.6157,-171.4522 1695.911,-169.5338 1668,-168 1331.3117,-149.4973 930.8212,-132.7165 754.7124,-125.6015"/>
<polygon fill="#191970" stroke="#191970" points="754.8449,-122.1041 744.712,-125.1982 754.5627,-129.0984 754.8449,-122.1041"/>
</g>
<!-- Node38&#45;&gt;Node5 -->
<g id="edge64" class="edge">
<title>Node38&#45;&gt;Node5</title>
<path fill="none" stroke="#191970" d="M1753.431,-173.1763C1594.8895,-162.2931 1222.168,-136.4324 1195,-132 1184.4804,-130.2838 1055.2116,-96.7852 983.7541,-78.1889"/>
<polygon fill="#191970" stroke="#191970" points="984.2109,-74.6912 973.6516,-75.5589 982.4473,-81.4655 984.2109,-74.6912"/>
</g>
<!-- Node38&#45;&gt;Node17 -->
<g id="edge62" class="edge">
<title>Node38&#45;&gt;Node17</title>
<path fill="none" stroke="#191970" d="M1812.3195,-168.4509C1788.7617,-149.1921 1735.3437,-105.5218 1706.4411,-81.8935"/>
<polygon fill="#191970" stroke="#191970" points="1708.6084,-79.1445 1698.651,-75.5249 1704.1778,-84.564 1708.6084,-79.1445"/>
</g>
<!-- Node39&#45;&gt;Node4 -->
<g id="edge68" class="edge">
<title>Node39&#45;&gt;Node4</title>
<path fill="none" stroke="#191970" d="M967.6574,-481.4726C925.5409,-473.8673 876.2517,-461.7093 863,-445 838.959,-414.6863 879.7339,-391.2785 860,-358 784.3824,-230.4812 646.4088,-316.803 573,-188 559.1519,-163.7021 589.3213,-145.9261 618.5681,-134.984"/>
<polygon fill="#191970" stroke="#191970" points="620.1112,-138.1517 628.3863,-131.5356 617.7915,-131.5472 620.1112,-138.1517"/>
</g>
<!-- Node39&#45;&gt;Node5 -->
<g id="edge71" class="edge">
<title>Node39&#45;&gt;Node5</title>
<path fill="none" stroke="#191970" d="M985.0238,-481.4988C964.7472,-474.8558 943.0695,-463.6832 931,-445 863.4328,-340.4081 1013.4107,-285.7785 973,-168 966.4217,-148.8274 952.722,-150.7413 945,-132 938.954,-117.3262 937.0948,-99.3752 936.6691,-85.9006"/>
<polygon fill="#191970" stroke="#191970" points="940.1683,-85.7766 936.5882,-75.805 933.1685,-85.8327 940.1683,-85.7766"/>
</g>
<!-- Node39&#45;&gt;Node8 -->
<g id="edge72" class="edge">
<title>Node39&#45;&gt;Node8</title>
<path fill="none" stroke="#191970" d="M1023.6382,-481.3788C1015.8766,-472.6808 1005.425,-459.1096 1001,-445 996.8771,-431.8536 999.432,-427.6883 1001,-414 1016.366,-279.856 1086.0793,-264.1028 1114,-132 1117.2254,-116.7395 1117.0207,-99.0469 1116.1217,-85.8236"/>
<polygon fill="#191970" stroke="#191970" points="1119.5793,-85.1844 1115.2217,-75.5271 1112.6058,-85.7939 1119.5793,-85.1844"/>
</g>
<!-- Node39&#45;&gt;Node17 -->
<g id="edge66" class="edge">
<title>Node39&#45;&gt;Node17</title>
<path fill="none" stroke="#191970" d="M1089.3488,-481.4908C1118.7129,-474.6591 1154.1957,-463.3242 1182,-445 1224.3852,-417.0664 1215.0816,-388.0413 1256,-358 1289.0706,-333.7204 1307.8174,-346.1262 1341,-322 1440.8946,-249.3694 1418.6924,-178.1366 1523,-112 1564.0784,-85.9541 1620.0735,-74.388 1654.8585,-69.4471"/>
<polygon fill="#191970" stroke="#191970" points="1655.4767,-72.896 1664.9329,-68.1177 1654.5609,-65.9561 1655.4767,-72.896"/>
</g>
<!-- Node39&#45;&gt;Node21 -->
<g id="edge69" class="edge">
<title>Node39&#45;&gt;Node21</title>
<path fill="none" stroke="#191970" d="M1025.3193,-481.3086C1014.1873,-465.9975 996.3209,-435.723 1010,-414 1019.714,-398.5737 1036.195,-388.2059 1052.786,-381.2886"/>
<polygon fill="#191970" stroke="#191970" points="1054.4052,-384.418 1062.5168,-377.6024 1051.9254,-377.8719 1054.4052,-384.418"/>
</g>
<!-- Node39&#45;&gt;Node22 -->
<g id="edge70" class="edge">
<title>Node39&#45;&gt;Node22</title>
<path fill="none" stroke="#191970" d="M990.8846,-481.3381C971.5614,-474.5724 950.4452,-463.343 939,-445 931.7066,-433.311 936.948,-427.6241 939,-414 947.3142,-358.7981 1002.7903,-196.9953 1022.2608,-141.1862"/>
<polygon fill="#191970" stroke="#191970" points="1025.6507,-142.0954 1025.6502,-131.5006 1019.0436,-139.7833 1025.6507,-142.0954"/>
</g>
<!-- Node39&#45;&gt;Node36 -->
<g id="edge67" class="edge">
<title>Node39&#45;&gt;Node36</title>
<path fill="none" stroke="#191970" d="M1120.8571,-484.3232C1136.5536,-483.1785 1152.7585,-482.0279 1168,-481 1299.4999,-472.1317 1637.0432,-492.4604 1760,-445 1793.1629,-432.1994 1823.7692,-403.5132 1841.1343,-384.997"/>
<polygon fill="#191970" stroke="#191970" points="1843.7906,-387.2783 1847.9389,-377.5293 1838.6165,-382.5635 1843.7906,-387.2783"/>
</g>
<!-- Node40 -->
<g id="node31" class="node">
<title>Node40</title>
<g id="a_node31"><a xlink:href="Indices_8h.html" target="_top" xlink:title="iDynTree/Model/Indices.h">
<polygon fill="none" stroke="#ff0000" points="2272,-358.5 2272,-377.5 2410,-377.5 2410,-358.5 2272,-358.5"/>
<text text-anchor="middle" x="2341" y="-365.5" font-family="FreeSans.ttf" font-size="10.00" fill="#000000">iDynTree/Model/Indices.h</text>
</a>
</g>
</g>
<!-- Node39&#45;&gt;Node40 -->
<g id="edge73" class="edge">
<title>Node39&#45;&gt;Node40</title>
<path fill="none" stroke="#191970" d="M1120.8345,-483.947C1136.5334,-482.8423 1152.745,-481.8026 1168,-481 1232.0537,-477.6301 2272.1259,-485.3338 2322,-445 2338.7568,-431.4486 2342.1259,-405.6852 2342.2138,-387.7079"/>
<polygon fill="#191970" stroke="#191970" points="2345.7122,-387.598 2341.9349,-377.6994 2338.7149,-387.793 2345.7122,-387.598"/>
</g>
<!-- Node42 -->
<g id="node32" class="node">
<title>Node42</title>
<g id="a_node32"><a xlink:href="FreeFloatingMatrices_8h.html" target="_top" xlink:title="iDynTree/Model/FreeFloating\lMatrices.h">
<polygon fill="none" stroke="#000000" points="1019,-414.5 1019,-444.5 1173,-444.5 1173,-414.5 1019,-414.5"/>
<text text-anchor="start" x="1027" y="-432.5" font-family="FreeSans.ttf" font-size="10.00" fill="#000000">iDynTree/Model/FreeFloating</text>
<text text-anchor="middle" x="1096" y="-421.5" font-family="FreeSans.ttf" font-size="10.00" fill="#000000">Matrices.h</text>
</a>
</g>
</g>
<!-- Node39&#45;&gt;Node42 -->
<g id="edge76" class="edge">
<title>Node39&#45;&gt;Node42</title>
<path fill="none" stroke="#191970" d="M1042.8438,-481.3906C1050.9753,-473.4527 1062.8386,-461.8718 1073.2959,-451.6635"/>
<polygon fill="#191970" stroke="#191970" points="1075.8776,-454.0345 1080.5885,-444.5446 1070.9878,-449.0255 1075.8776,-454.0345"/>
</g>
<!-- Node43 -->
<g id="node33" class="node">
<title>Node43</title>
<g id="a_node33"><a xlink:href="LinkState_8h.html" target="_top" xlink:title="iDynTree/Model/LinkState.h">
<polygon fill="none" stroke="#ff0000" points="1266.5,-420 1266.5,-439 1415.5,-439 1415.5,-420 1266.5,-420"/>
<text text-anchor="middle" x="1341" y="-427" font-family="FreeSans.ttf" font-size="10.00" fill="#000000">iDynTree/Model/LinkState.h</text>
</a>
</g>
</g>
<!-- Node39&#45;&gt;Node43 -->
<g id="edge78" class="edge">
<title>Node39&#45;&gt;Node43</title>
<path fill="none" stroke="#191970" d="M1080.7871,-481.4581C1135.4937,-470.5345 1225.066,-452.6492 1283.5323,-440.9749"/>
<polygon fill="#191970" stroke="#191970" points="1284.2332,-444.4041 1293.3543,-439.0137 1282.8625,-437.5396 1284.2332,-444.4041"/>
</g>
<!-- Node40&#45;&gt;Node6 -->
<g id="edge74" class="edge">
<title>Node40&#45;&gt;Node6</title>
<path fill="none" stroke="#191970" d="M2339.8601,-358.3443C2337.4384,-336.9659 2332,-284.0037 2332,-239.5 2332,-239.5 2332,-239.5 2332,-122 2332,15.2305 1854.8106,-66.7267 1718,-56 1395.0402,-30.6782 1310.9401,-64.064 990,-20 987.6426,-19.6763 985.2252,-19.2887 982.7952,-18.8568"/>
<polygon fill="#191970" stroke="#191970" points="983.3466,-15.398 972.8563,-16.8829 981.9829,-22.2639 983.3466,-15.398"/>
</g>
<!-- Node40&#45;&gt;Node17 -->
<g id="edge75" class="edge">
<title>Node40&#45;&gt;Node17</title>
<path fill="none" stroke="#191970" d="M2331.962,-358.2078C2314.1018,-337.7938 2276,-288.5015 2276,-239.5 2276,-239.5 2276,-239.5 2276,-178 2276,-96.9501 2184.73,-131.2528 2106,-112 1964.6856,-77.4427 1790.1798,-68.817 1719.2468,-66.6876"/>
<polygon fill="#191970" stroke="#191970" points="1719.2532,-63.1865 1709.1602,-66.4084 1719.0595,-70.1838 1719.2532,-63.1865"/>
</g>
<!-- Node42&#45;&gt;Node21 -->
<g id="edge77" class="edge">
<title>Node42&#45;&gt;Node21</title>
<path fill="none" stroke="#191970" d="M1098.4719,-414.2977C1099.7733,-406.2945 1101.3847,-396.3843 1102.7823,-387.7889"/>
<polygon fill="#191970" stroke="#191970" points="1106.2485,-388.2791 1104.3989,-377.8469 1099.3392,-387.1555 1106.2485,-388.2791"/>
</g>
<!-- Node43&#45;&gt;Node23 -->
<g id="edge80" class="edge">
<title>Node43&#45;&gt;Node23</title>
<path fill="none" stroke="#191970" d="M1266.2391,-421.5359C1239.6644,-418.8841 1209.5179,-416.0796 1182,-414 887.9801,-391.7804 810.5144,-406.7695 513.2595,-378.04"/>
<polygon fill="#191970" stroke="#191970" points="513.3376,-374.5311 503.0451,-377.0441 512.6582,-381.4981 513.3376,-374.5311"/>
</g>
<!-- Node43&#45;&gt;Node33 -->
<g id="edge79" class="edge">
<title>Node43&#45;&gt;Node33</title>
<path fill="none" stroke="#191970" d="M1340.5313,-419.8906C1340.1154,-411.3657 1339.4946,-398.6392 1338.9719,-387.9235"/>
<polygon fill="#191970" stroke="#191970" points="1342.4585,-387.5624 1338.4754,-377.7449 1335.4668,-387.9035 1342.4585,-387.5624"/>
</g>
<!-- Node43&#45;&gt;Node36 -->
<g id="edge84" class="edge">
<title>Node43&#45;&gt;Node36</title>
<path fill="none" stroke="#191970" d="M1415.6102,-420.5902C1529.1098,-407.0364 1740.5871,-381.7823 1822.4397,-372.0077"/>
<polygon fill="#191970" stroke="#191970" points="1822.9225,-375.475 1832.4369,-370.8138 1822.0924,-368.5244 1822.9225,-375.475"/>
</g>
<!-- Node43&#45;&gt;Node40 -->
<g id="edge83" class="edge">
<title>Node43&#45;&gt;Node40</title>
<path fill="none" stroke="#191970" d="M1415.661,-424.4921C1462.0837,-421.4041 1523.0096,-417.3983 1577,-414 1827.0248,-398.2626 2123.152,-380.7562 2261.8728,-372.6218"/>
<polygon fill="#191970" stroke="#191970" points="2262.2103,-376.1081 2271.9884,-372.0289 2261.8007,-369.1201 2262.2103,-376.1081"/>
</g>
<!-- Node43&#45;&gt;Node44 -->
<g id="edge81" class="edge">
<title>Node43&#45;&gt;Node44</title>
<path fill="none" stroke="#191970" d="M1266.2097,-421.8971C1239.6323,-419.2779 1209.4916,-416.4017 1182,-414 975.0599,-395.9217 923.0675,-394.5547 716,-378 704.181,-377.0551 691.7141,-376.0426 679.4545,-375.0379"/>
<polygon fill="#191970" stroke="#191970" points="679.4771,-371.5281 669.2241,-374.1974 678.9039,-378.5046 679.4771,-371.5281"/>
</g>
<!-- Node44&#45;&gt;Node24 -->
<g id="edge82" class="edge">
<title>Node44&#45;&gt;Node24</title>
<path fill="none" stroke="#191970" d="M572.0313,-358.3906C551.0313,-349.6049 519.3648,-336.3567 493.2855,-325.446"/>
<polygon fill="#191970" stroke="#191970" points="494.5363,-322.1754 483.9602,-321.5446 491.8346,-328.633 494.5363,-322.1754"/>
</g>
<!-- Node48&#45;&gt;Node33 -->
<g id="edge90" class="edge">
<title>Node48&#45;&gt;Node33</title>
<path fill="none" stroke="#191970" d="M2011.0712,-486.7872C1883.9706,-478.5042 1616.7552,-459.6319 1577,-445 1554.5506,-436.7375 1554.816,-423.8136 1533,-414 1496.3206,-397.5003 1452.9935,-386.5212 1416.5068,-379.4417"/>
<polygon fill="#191970" stroke="#191970" points="1416.8823,-375.9511 1406.4084,-377.5469 1415.5914,-382.8311 1416.8823,-375.9511"/>
</g>
<!-- Node48&#45;&gt;Node36 -->
<g id="edge99" class="edge">
<title>Node48&#45;&gt;Node36</title>
<path fill="none" stroke="#191970" d="M2068.5489,-481.4904C2052.323,-465.6141 2017.5646,-433.5303 1983,-414 1966.6959,-404.7875 1921.3029,-389.1654 1889.4634,-378.7171"/>
<polygon fill="#191970" stroke="#191970" points="1890.2486,-375.2919 1879.6562,-375.5214 1888.0797,-381.9475 1890.2486,-375.2919"/>
</g>
<!-- Node48&#45;&gt;Node40 -->
<g id="edge91" class="edge">
<title>Node48&#45;&gt;Node40</title>
<path fill="none" stroke="#191970" d="M2144.6743,-488.5665C2258.0819,-483.7356 2478.6029,-471.0728 2502,-445 2532.4391,-411.08 2474.7437,-390.7183 2420.1465,-379.5329"/>
<polygon fill="#191970" stroke="#191970" points="2420.496,-376.035 2410.01,-377.5499 2419.152,-382.9048 2420.496,-376.035"/>
</g>
<!-- Node49 -->
<g id="node36" class="node">
<title>Node49</title>
<g id="a_node36"><a xlink:href="IJoint_8h.html" target="_top" xlink:title="iDynTree/Model/IJoint.h">
<polygon fill="none" stroke="#000000" points="2549,-420 2549,-439 2677,-439 2677,-420 2549,-420"/>
<text text-anchor="middle" x="2613" y="-427" font-family="FreeSans.ttf" font-size="10.00" fill="#000000">iDynTree/Model/IJoint.h</text>
</a>
</g>
</g>
<!-- Node48&#45;&gt;Node49 -->
<g id="edge86" class="edge">
<title>Node48&#45;&gt;Node49</title>
<path fill="none" stroke="#191970" d="M2144.8509,-486.2889C2234.1051,-479.5386 2396.9834,-465.6109 2535,-445 2542.777,-443.8386 2550.9542,-442.4268 2558.9686,-440.9335"/>
<polygon fill="#191970" stroke="#191970" points="2559.8291,-444.3324 2568.9907,-439.0111 2558.5104,-437.4577 2559.8291,-444.3324"/>
</g>
<!-- Node50 -->
<g id="node37" class="node">
<title>Node50</title>
<g id="a_node37"><a xlink:href="Link_8h.html" target="_top" xlink:title="iDynTree/Model/Link.h">
<polygon fill="none" stroke="#ff0000" points="2369,-420 2369,-439 2493,-439 2493,-420 2369,-420"/>
<text text-anchor="middle" x="2431" y="-427" font-family="FreeSans.ttf" font-size="10.00" fill="#000000">iDynTree/Model/Link.h</text>
</a>
</g>
</g>
<!-- Node48&#45;&gt;Node50 -->
<g id="edge88" class="edge">
<title>Node48&#45;&gt;Node50</title>
<path fill="none" stroke="#191970" d="M2139.4497,-481.4569C2195.6567,-472.5709 2281.0588,-458.6748 2355,-445 2361.6725,-443.766 2368.6628,-442.4172 2375.5873,-441.0467"/>
<polygon fill="#191970" stroke="#191970" points="2376.5224,-444.429 2385.6408,-439.034 2375.1482,-437.5652 2376.5224,-444.429"/>
</g>
<!-- Node55 -->
<g id="node38" class="node">
<title>Node55</title>
<g id="a_node38"><a xlink:href="SolidShapes_8h.html" target="_top" xlink:title="iDynTree/Model/SolidShapes.h">
<polygon fill="none" stroke="#000000" points="2149.5,-420 2149.5,-439 2312.5,-439 2312.5,-420 2149.5,-420"/>
<text text-anchor="middle" x="2231" y="-427" font-family="FreeSans.ttf" font-size="10.00" fill="#000000">iDynTree/Model/SolidShapes.h</text>
</a>
</g>
</g>
<!-- Node48&#45;&gt;Node55 -->
<g id="edge92" class="edge">
<title>Node48&#45;&gt;Node55</title>
<path fill="none" stroke="#191970" d="M2101.9063,-481.3906C2127.7305,-471.0103 2169.0527,-454.4004 2197.9705,-442.7766"/>
<polygon fill="#191970" stroke="#191970" points="2199.2885,-446.019 2207.2616,-439.0419 2196.6778,-439.5241 2199.2885,-446.019"/>
</g>
<!-- Node56 -->
<g id="node39" class="node">
<title>Node56</title>
<polygon fill="none" stroke="#bfbfbf" points="2497.5,-358.5 2497.5,-377.5 2546.5,-377.5 2546.5,-358.5 2497.5,-358.5"/>
<text text-anchor="middle" x="2522" y="-365.5" font-family="FreeSans.ttf" font-size="10.00" fill="#000000">cstdlib</text>
</g>
<!-- Node48&#45;&gt;Node56 -->
<g id="edge98" class="edge">
<title>Node48&#45;&gt;Node56</title>
<path fill="none" stroke="#191970" d="M2144.747,-488.3634C2298.8689,-481.9522 2667.8042,-464.6245 2686,-445 2726.7531,-401.0472 2615.9654,-379.864 2556.6608,-371.9061"/>
<polygon fill="#191970" stroke="#191970" points="2556.9433,-368.4137 2546.5794,-370.6136 2556.0531,-375.3569 2556.9433,-368.4137"/>
</g>
<!-- Node49&#45;&gt;Node40 -->
<g id="edge87" class="edge">
<title>Node49&#45;&gt;Node40</title>
<path fill="none" stroke="#191970" d="M2570.7984,-419.9581C2522.9553,-409.1406 2444.9169,-391.4959 2393.2628,-379.8168"/>
<polygon fill="#191970" stroke="#191970" points="2393.8263,-376.3559 2383.3006,-377.5643 2392.2825,-383.1835 2393.8263,-376.3559"/>
</g>
<!-- Node50&#45;&gt;Node40 -->
<g id="edge89" class="edge">
<title>Node50&#45;&gt;Node40</title>
<path fill="none" stroke="#191970" d="M2416.9375,-419.8906C2402.6714,-410.1421 2380.365,-394.8994 2363.6128,-383.4521"/>
<polygon fill="#191970" stroke="#191970" points="2365.1949,-380.2941 2354.9638,-377.5419 2361.2455,-386.0736 2365.1949,-380.2941"/>
</g>
<!-- Node55&#45;&gt;Node17 -->
<g id="edge94" class="edge">
<title>Node55&#45;&gt;Node17</title>
<path fill="none" stroke="#191970" d="M2204.528,-419.9882C2164.1984,-403.5975 2092,-365.9523 2092,-306.5 2092,-306.5 2092,-306.5 2092,-178 2092,-145.2043 2085.7849,-130.9241 2059,-112 2031.4452,-92.5319 1804.4164,-74.4187 1719.1755,-68.2408"/>
<polygon fill="#191970" stroke="#191970" points="1719.2678,-64.7385 1709.0431,-67.5144 1718.7672,-71.7206 1719.2678,-64.7385"/>
</g>
<!-- Node55&#45;&gt;Node33 -->
<g id="edge96" class="edge">
<title>Node55&#45;&gt;Node33</title>
<path fill="none" stroke="#191970" d="M2149.2517,-425.8299C2004.7662,-419.0069 1694.5921,-402.8522 1421.4072,-377.9842"/>
<polygon fill="#191970" stroke="#191970" points="1421.5741,-374.4849 1411.2965,-377.0582 1420.9356,-381.4557 1421.5741,-374.4849"/>
</g>
<!-- Node55&#45;&gt;Node36 -->
<g id="edge95" class="edge">
<title>Node55&#45;&gt;Node36</title>
<path fill="none" stroke="#191970" d="M2149.1897,-420.5584C2081.8974,-412.4279 1983.9749,-398.8206 1889.6795,-377.8762"/>
<polygon fill="#191970" stroke="#191970" points="1890.2082,-374.4077 1879.6835,-375.625 1888.6701,-381.2367 1890.2082,-374.4077"/>
</g>
<!-- Node55&#45;&gt;Node40 -->
<g id="edge97" class="edge">
<title>Node55&#45;&gt;Node40</title>
<path fill="none" stroke="#191970" d="M2248.1875,-419.8906C2266.1082,-409.8713 2294.4095,-394.0483 2315.0523,-382.5071"/>
<polygon fill="#191970" stroke="#191970" points="2316.9128,-385.4769 2323.9332,-377.5419 2313.4967,-379.367 2316.9128,-385.4769"/>
</g>
<!-- Node55&#45;&gt;Node56 -->
<g id="edge93" class="edge">
<title>Node55&#45;&gt;Node56</title>
<path fill="none" stroke="#191970" d="M2276.1495,-419.9581C2334.5184,-407.6224 2434.8962,-386.4085 2487.5193,-375.2872"/>
<polygon fill="#191970" stroke="#191970" points="2488.3205,-378.6952 2497.3806,-373.2031 2486.873,-371.8465 2488.3205,-378.6952"/>
</g>
<!-- Node59&#45;&gt;Node33 -->
<g id="edge110" class="edge">
<title>Node59&#45;&gt;Node33</title>
<path fill="none" stroke="#191970" d="M1515.7745,-537.2656C1507.3548,-513.222 1482.5147,-450.3464 1442,-414 1425.2031,-398.9313 1402.6739,-388.1486 1382.8791,-380.8284"/>
<polygon fill="#191970" stroke="#191970" points="1384.0133,-377.5173 1373.4185,-377.5095 1381.696,-384.1226 1384.0133,-377.5173"/>
</g>
<!-- Node59&#45;&gt;Node37 -->
<g id="edge111" class="edge">
<title>Node59&#45;&gt;Node37</title>
<path fill="none" stroke="#191970" d="M1564.254,-537.4369C1609.7973,-527.8127 1680.0965,-512.957 1728.8686,-502.6504"/>
<polygon fill="#191970" stroke="#191970" points="1729.8724,-506.0157 1738.9326,-500.5237 1728.425,-499.1669 1729.8724,-506.0157"/>
</g>
<!-- Node60&#45;&gt;Node5 -->
<g id="edge116" class="edge">
<title>Node60&#45;&gt;Node5</title>
<path fill="none" stroke="#191970" d="M1955.8705,-358.2779C1951.4209,-321.7629 1933.8692,-193.5916 1904,-168 1895.4377,-160.6639 1227.13,-94.4789 1006.6778,-72.8236"/>
<polygon fill="#191970" stroke="#191970" points="1006.8173,-69.3205 996.5231,-71.8264 1006.1331,-76.287 1006.8173,-69.3205"/>
</g>
<!-- Node60&#45;&gt;Node17 -->
<g id="edge113" class="edge">
<title>Node60&#45;&gt;Node17</title>
<path fill="none" stroke="#191970" d="M1957.5066,-358.3313C1958.5829,-336.927 1961,-283.9165 1961,-239.5 1961,-239.5 1961,-239.5 1961,-178 1961,-126.3249 1791.9032,-86.7202 1719.389,-72.1121"/>
<polygon fill="#191970" stroke="#191970" points="1719.9118,-68.6478 1709.4226,-70.1397 1718.5528,-75.5146 1719.9118,-68.6478"/>
</g>
<!-- Node60&#45;&gt;Node27 -->
<g id="edge115" class="edge">
<title>Node60&#45;&gt;Node27</title>
<path fill="none" stroke="#191970" d="M1905.9547,-358.4581C1841.2906,-346.3704 1731.0226,-325.758 1670.6367,-314.4701"/>
<polygon fill="#191970" stroke="#191970" points="1671.1487,-311.0052 1660.6758,-312.6081 1669.8624,-317.8861 1671.1487,-311.0052"/>
</g>
<!-- Node60&#45;&gt;Node38 -->
<g id="edge114" class="edge">
<title>Node60&#45;&gt;Node38</title>
<path fill="none" stroke="#191970" d="M1945.0647,-358.2018C1934.7733,-349.3903 1919.8941,-335.752 1909,-322 1876.2481,-280.6561 1847.171,-225.4646 1833.0497,-196.9061"/>
<polygon fill="#191970" stroke="#191970" points="1836.0726,-195.1197 1828.5446,-187.6645 1829.7804,-198.1871 1836.0726,-195.1197"/>
</g>
<!-- Node61&#45;&gt;Node4 -->
<g id="edge119" class="edge">
<title>Node61&#45;&gt;Node4</title>
<path fill="none" stroke="#191970" d="M71.4061,-593.4565C57.4187,-574.8857 29,-532.0976 29,-491 29,-491 29,-491 29,-368 29,-202.5401 187.842,-225.4715 343,-168 384.0086,-152.8102 493.461,-139.1158 573.1835,-130.6958"/>
<polygon fill="#191970" stroke="#191970" points="573.6597,-134.1652 583.2418,-129.6447 572.9321,-127.2031 573.6597,-134.1652"/>
</g>
<!-- Node62&#45;&gt;Node17 -->
<g id="edge131" class="edge">
<title>Node62&#45;&gt;Node17</title>
<path fill="none" stroke="#191970" d="M2185.2963,-599.0866C2385.5643,-589.0329 2857,-558.2266 2857,-491 2857,-491 2857,-491 2857,-178 2857,-167.2756 2881.0309,-153.5687 2541,-112 2377.4151,-92.0018 1855.3805,-72.0971 1719.5547,-67.1611"/>
<polygon fill="#191970" stroke="#191970" points="1719.5043,-63.6571 1709.3843,-66.7934 1719.2512,-70.6526 1719.5043,-63.6571"/>
</g>
<!-- Node62&#45;&gt;Node36 -->
<g id="edge132" class="edge">
<title>Node62&#45;&gt;Node36</title>
<path fill="none" stroke="#191970" d="M2142.5736,-593.49C2162.5546,-586.8122 2184.124,-575.6135 2196,-557 2216.4222,-524.9918 2164.1444,-489.4157 2154,-481 2059.2167,-402.3693 2012.7183,-412.7088 1889.5584,-378.0737"/>
<polygon fill="#191970" stroke="#191970" points="1890.3515,-374.6602 1879.7744,-375.2728 1888.4249,-381.3899 1890.3515,-374.6602"/>
</g>
<!-- Node62&#45;&gt;Node48 -->
<g id="edge122" class="edge">
<title>Node62&#45;&gt;Node48</title>
<path fill="none" stroke="#191970" d="M2045.6518,-593.4847C2008.3472,-585.4058 1962.4731,-572.6439 1951,-557 1931.0181,-529.7541 1968.0937,-512.8315 2007.2512,-502.9524"/>
<polygon fill="#191970" stroke="#191970" points="2008.2945,-506.3022 2017.2179,-500.5905 2006.6803,-499.4908 2008.2945,-506.3022"/>
</g>
<!-- Node63 -->
<g id="node46" class="node">
<title>Node63</title>
<g id="a_node46"><a xlink:href="Sensors_8h.html" target="_top" xlink:title="iDynTree/Sensors/Sensors.h">
<polygon fill="none" stroke="#ff0000" points="1959.5,-537.5 1959.5,-556.5 2110.5,-556.5 2110.5,-537.5 1959.5,-537.5"/>
<text text-anchor="middle" x="2035" y="-544.5" font-family="FreeSans.ttf" font-size="10.00" fill="#000000">iDynTree/Sensors/Sensors.h</text>
</a>
</g>
</g>
<!-- Node62&#45;&gt;Node63 -->
<g id="edge123" class="edge">
<title>Node62&#45;&gt;Node63</title>
<path fill="none" stroke="#191970" d="M2086.2004,-593.2455C2077.1322,-585.0549 2063.9794,-573.1749 2053.2755,-563.5069"/>
<polygon fill="#191970" stroke="#191970" points="2055.4429,-560.7482 2045.6758,-556.6427 2050.7509,-565.9429 2055.4429,-560.7482"/>
</g>
<!-- Node64 -->
<g id="node47" class="node">
<title>Node64</title>
<polygon fill="none" stroke="#bfbfbf" points="2129,-537.5 2129,-556.5 2187,-556.5 2187,-537.5 2129,-537.5"/>
<text text-anchor="middle" x="2158" y="-544.5" font-family="FreeSans.ttf" font-size="10.00" fill="#000000">memory</text>
</g>
<!-- Node62&#45;&gt;Node64 -->
<g id="edge130" class="edge">
<title>Node62&#45;&gt;Node64</title>
<path fill="none" stroke="#191970" d="M2107.6254,-593.2455C2116.5473,-585.0549 2129.488,-573.1749 2140.0192,-563.5069"/>
<polygon fill="#191970" stroke="#191970" points="2142.4968,-565.9837 2147.4964,-556.6427 2137.7629,-560.8271 2142.4968,-565.9837"/>
</g>
<!-- Node63&#45;&gt;Node17 -->
<g id="edge125" class="edge">
<title>Node63&#45;&gt;Node17</title>
<path fill="none" stroke="#191970" d="M2110.5247,-537.9334C2113.7247,-537.6066 2116.8935,-537.2937 2120,-537 2343.1321,-515.9008 2403.8256,-547.8579 2623,-501 2713.6772,-481.6139 2819,-522.2263 2819,-429.5 2819,-429.5 2819,-429.5 2819,-178 2819,-121.1816 1903.9492,-75.997 1719.2593,-67.4558"/>
<polygon fill="#191970" stroke="#191970" points="1719.2547,-63.9519 1709.1046,-66.9891 1718.9333,-70.9446 1719.2547,-63.9519"/>
</g>
<!-- Node63&#45;&gt;Node20 -->
<g id="edge127" class="edge">
<title>Node63&#45;&gt;Node20</title>
<path fill="none" stroke="#191970" d="M2019.206,-537.4849C1978.0564,-513.1182 1863.5437,-448.0031 1760,-414 1709.5097,-397.4193 1651.1335,-386.2019 1603.8131,-378.9982"/>
<polygon fill="#191970" stroke="#191970" points="1604.2963,-375.5316 1593.89,-377.5214 1603.2659,-382.4554 1604.2963,-375.5316"/>
</g>
<!-- Node63&#45;&gt;Node25 -->
<g id="edge124" class="edge">
<title>Node63&#45;&gt;Node25</title>
<path fill="none" stroke="#191970" d="M2110.5371,-538.0541C2113.7337,-537.6942 2116.8984,-537.3415 2120,-537 2251.8284,-522.4858 2779.3812,-523.1195 2704,-414 2630.5083,-307.6156 2651.3743,-339.2152 1342,-224 1098.8589,-202.6054 1037.4624,-205.3603 794,-188 781.7069,-187.1234 768.7626,-186.1674 756.0002,-185.2053"/>
<polygon fill="#191970" stroke="#191970" points="756.0558,-181.6996 745.8199,-184.4339 755.5268,-188.6796 756.0558,-181.6996"/>
</g>
<!-- Node63&#45;&gt;Node36 -->
<g id="edge126" class="edge">
<title>Node63&#45;&gt;Node36</title>
<path fill="none" stroke="#191970" d="M2028.0769,-537.1685C2021.557,-527.8812 2011.5429,-513.5435 2003,-501 1976.8407,-462.5904 1979.632,-444.9876 1945,-414 1928.7044,-399.4192 1906.95,-388.0656 1889.0283,-380.286"/>
<polygon fill="#191970" stroke="#191970" points="1890.1025,-376.9421 1879.5251,-376.3338 1887.4145,-383.4055 1890.1025,-376.9421"/>
</g>
<!-- Node63&#45;&gt;Node40 -->
<g id="edge129" class="edge">
<title>Node63&#45;&gt;Node40</title>
<path fill="none" stroke="#191970" d="M2110.5843,-537.8071C2278.1054,-517.0766 2667.3497,-466.8 2686,-445 2694.9566,-434.5307 2695.0758,-424.3662 2686,-414 2668.7485,-394.2956 2516.6428,-380.1831 2420.2428,-373.1254"/>
<polygon fill="#191970" stroke="#191970" points="2420.452,-369.6315 2410.226,-372.4026 2419.9482,-376.6133 2420.452,-369.6315"/>
</g>
<!-- Node63&#45;&gt;Node48 -->
<g id="edge128" class="edge">
<title>Node63&#45;&gt;Node48</title>
<path fill="none" stroke="#191970" d="M2042.49,-537.2455C2048.5326,-529.3761 2057.1903,-518.101 2064.4441,-508.6542"/>
<polygon fill="#191970" stroke="#191970" points="2067.2815,-510.7058 2070.5958,-500.6427 2061.7295,-506.4426 2067.2815,-510.7058"/>
</g>
<!-- Node65&#45;&gt;Node4 -->
<g id="edge137" class="edge">
<title>Node65&#45;&gt;Node4</title>
<path fill="none" stroke="#191970" d="M309.9677,-419.8728C294.3538,-388.536 250.2737,-287.7999 293,-224 324.4888,-176.9803 476.8066,-147.5203 576.2213,-132.9728"/>
<polygon fill="#191970" stroke="#191970" points="576.8704,-136.4155 586.2698,-131.5266 575.8731,-129.4869 576.8704,-136.4155"/>
</g>
<!-- Node65&#45;&gt;Node5 -->
<g id="edge145" class="edge">
<title>Node65&#45;&gt;Node5</title>
<path fill="none" stroke="#191970" d="M240.6232,-419.9669C189.6723,-411.7741 128.4474,-398.0741 112,-378 72.938,-330.3248 105,-301.1341 105,-239.5 105,-239.5 105,-239.5 105,-178 105,-158.8282 667.3488,-95.4791 867.3972,-73.55"/>
<polygon fill="#191970" stroke="#191970" points="867.9388,-77.0117 877.4985,-72.4442 867.177,-70.0533 867.9388,-77.0117"/>
</g>
<!-- Node65&#45;&gt;Node6 -->
<g id="edge134" class="edge">
<title>Node65&#45;&gt;Node6</title>
<path fill="none" stroke="#191970" d="M301.968,-419.8776C246.018,-378.3428 29,-214.862 29,-178 29,-178 29,-178 29,-122 29,-26.1518 770.9844,-38.1512 909.1804,-19.5391"/>
<polygon fill="#191970" stroke="#191970" points="910.0595,-22.9426 919.374,-17.8938 908.944,-16.032 910.0595,-22.9426"/>
</g>
<!-- Node65&#45;&gt;Node20 -->
<g id="edge136" class="edge">
<title>Node65&#45;&gt;Node20</title>
<path fill="none" stroke="#191970" d="M395.5947,-425.4536C459.2349,-422.2779 550.286,-417.7775 630,-414 977.7387,-397.5214 1067.8394,-404.6615 1419.1661,-378.0158"/>
<polygon fill="#191970" stroke="#191970" points="1419.6659,-381.488 1429.3709,-377.238 1419.1338,-374.5082 1419.6659,-381.488"/>
</g>
<!-- Node65&#45;&gt;Node21 -->
<g id="edge138" class="edge">
<title>Node65&#45;&gt;Node21</title>
<path fill="none" stroke="#191970" d="M395.5656,-423.236C543.0434,-411.7697 855.6195,-387.467 1012.3202,-375.2836"/>
<polygon fill="#191970" stroke="#191970" points="1012.7144,-378.7636 1022.4129,-374.4989 1012.1717,-371.7846 1012.7144,-378.7636"/>
</g>
<!-- Node65&#45;&gt;Node24 -->
<g id="edge140" class="edge">
<title>Node65&#45;&gt;Node24</title>
<path fill="none" stroke="#191970" d="M234.2425,-424.5587C167.1622,-417.4272 88.0819,-400.0782 124,-358 139.2592,-340.1238 269.5388,-323.8895 360.1705,-314.6116"/>
<polygon fill="#191970" stroke="#191970" points="360.5911,-318.087 370.1879,-313.5978 359.8862,-311.1225 360.5911,-318.087"/>
</g>
<!-- Node65&#45;&gt;Node33 -->
<g id="edge144" class="edge">
<title>Node65&#45;&gt;Node33</title>
<path fill="none" stroke="#191970" d="M395.7695,-425.1637C551.2875,-416.7324 903.1148,-397.2613 1199,-378 1217.0282,-376.8264 1236.3655,-375.4867 1254.7144,-374.1775"/>
<polygon fill="#191970" stroke="#191970" points="1255.068,-377.6612 1264.7919,-373.4546 1254.5671,-370.6792 1255.068,-377.6612"/>
</g>
<!-- Node65&#45;&gt;Node31 -->
<g id="edge139" class="edge">
<title>Node65&#45;&gt;Node31</title>
<path fill="none" stroke="#191970" d="M319.8369,-419.8939C328.2135,-404.2974 346.9548,-373.6399 372,-358 434.5602,-318.9332 463.6477,-344.1484 534,-322 656.296,-283.4986 795.4633,-219.7604 854.3162,-191.8316"/>
<polygon fill="#191970" stroke="#191970" points="855.8606,-194.9728 863.3818,-187.5107 852.8488,-188.6538 855.8606,-194.9728"/>
</g>
<!-- Node66 -->
<g id="node49" class="node">
<title>Node66</title>
<polygon fill="none" stroke="#bfbfbf" points="133.5,-358.5 133.5,-377.5 210.5,-377.5 210.5,-358.5 133.5,-358.5"/>
<text text-anchor="middle" x="172" y="-365.5" font-family="FreeSans.ttf" font-size="10.00" fill="#000000">Eigen/Dense</text>
</g>
<!-- Node65&#45;&gt;Node66 -->
<g id="edge135" class="edge">
<title>Node65&#45;&gt;Node66</title>
<path fill="none" stroke="#191970" d="M292.6563,-419.8906C268.7297,-409.6005 230.5691,-393.1888 203.5784,-381.5809"/>
<polygon fill="#191970" stroke="#191970" points="204.7561,-378.2775 194.1869,-377.5419 201.9905,-384.708 204.7561,-378.2775"/>
</g>
<!-- Node46 -->
<g id="node50" class="node">
<title>Node46</title>
<g id="a_node50"><a xlink:href="SpatialForceVector_8h.html" target="_top" xlink:title="iDynTree/Core/SpatialForce\lVector.h">
<polygon fill="none" stroke="#ff0000" points="302,-224.5 302,-254.5 450,-254.5 450,-224.5 302,-224.5"/>
<text text-anchor="start" x="310" y="-242.5" font-family="FreeSans.ttf" font-size="10.00" fill="#000000">iDynTree/Core/SpatialForce</text>
<text text-anchor="middle" x="376" y="-231.5" font-family="FreeSans.ttf" font-size="10.00" fill="#000000">Vector.h</text>
</a>
</g>
</g>
<!-- Node65&#45;&gt;Node46 -->
<g id="edge141" class="edge">
<title>Node65&#45;&gt;Node46</title>
<path fill="none" stroke="#191970" d="M318.1089,-419.8167C327.2824,-391.2433 354.4445,-306.6401 368.0487,-264.2662"/>
<polygon fill="#191970" stroke="#191970" points="371.3952,-265.2924 371.1196,-254.7011 364.7303,-263.1525 371.3952,-265.2924"/>
</g>
<!-- Node46&#45;&gt;Node4 -->
<g id="edge142" class="edge">
<title>Node46&#45;&gt;Node4</title>
<path fill="none" stroke="#191970" d="M390.3891,-224.2211C406.6927,-207.8336 434.8128,-182.2503 464,-168 498.6792,-151.0683 539.8167,-140.2296 575.7389,-133.3589"/>
<polygon fill="#191970" stroke="#191970" points="576.52,-136.7741 585.7229,-131.5245 575.255,-129.8893 576.52,-136.7741"/>
</g>
<!-- Node46&#45;&gt;Node25 -->
<g id="edge143" class="edge">
<title>Node46&#45;&gt;Node25</title>
<path fill="none" stroke="#191970" d="M446.4527,-224.4554C496.7193,-213.7214 563.3299,-199.4973 609.5418,-189.6291"/>
<polygon fill="#191970" stroke="#191970" points="610.3217,-193.0416 619.3702,-187.5303 608.8598,-186.1959 610.3217,-193.0416"/>
</g>
</g>
</svg>
