<?xml version="1.0" encoding="UTF-8" standalone="no"?>
<!DOCTYPE svg PUBLIC "-//W3C//DTD SVG 1.1//EN"
 "http://www.w3.org/Graphics/SVG/1.1/DTD/svg11.dtd">
<!-- Generated by graphviz version 2.40.1 (20161225.0304)
 -->
<!-- Title: KinDynComputations.cpp Pages: 1 -->
<svg width="3430pt" height="755pt"
 viewBox="0.00 0.00 3429.62 755.00" xmlns="http://www.w3.org/2000/svg" xmlns:xlink="http://www.w3.org/1999/xlink">
<g id="graph0" class="graph" transform="scale(1 1) rotate(0) translate(4 751)">
<title>KinDynComputations.cpp</title>
<!-- Node0 -->
<g id="node1" class="node">
<title>Node0</title>
<polygon fill="#bfbfbf" stroke="#000000" points="1254,-727.5 1254,-746.5 1394,-746.5 1394,-727.5 1254,-727.5"/>
<text text-anchor="middle" x="1324" y="-734.5" font-family="FreeSans.ttf" font-size="10.00" fill="#000000">KinDynComputations.cpp</text>
</g>
<!-- Node1 -->
<g id="node2" class="node">
<title>Node1</title>
<g id="a_node2"><a xlink:href="KinDynComputations_8h.html" target="_top" xlink:title="iDynTree/KinDynComputations.h">
<polygon fill="none" stroke="#000000" points="1009.5,-554 1009.5,-573 1184.5,-573 1184.5,-554 1009.5,-554"/>
<text text-anchor="middle" x="1097" y="-561" font-family="FreeSans.ttf" font-size="10.00" fill="#000000">iDynTree/KinDynComputations.h</text>
</a>
</g>
</g>
<!-- Node0&#45;&gt;Node1 -->
<g id="edge1" class="edge">
<title>Node0&#45;&gt;Node1</title>
<path fill="none" stroke="#191970" d="M1253.8193,-730.7596C1198.9829,-724.335 1128.982,-712.1965 1110,-691 1083.5164,-661.4268 1087.6335,-611.1445 1092.5613,-583.384"/>
<polygon fill="#191970" stroke="#191970" points="1096.0478,-583.796 1094.5663,-573.3053 1089.1823,-582.4301 1096.0478,-583.796"/>
</g>
<!-- Node5 -->
<g id="node6" class="node">
<title>Node5</title>
<g id="a_node6"><a xlink:href="Utils_8h.html" target="_top" xlink:title="iDynTree/Core/Utils.h">
<polygon fill="none" stroke="#000000" points="170.5,-56.5 170.5,-75.5 289.5,-75.5 289.5,-56.5 170.5,-56.5"/>
<text text-anchor="middle" x="230" y="-63.5" font-family="FreeSans.ttf" font-size="10.00" fill="#000000">iDynTree/Core/Utils.h</text>
</a>
</g>
</g>
<!-- Node0&#45;&gt;Node5 -->
<g id="edge72" class="edge">
<title>Node0&#45;&gt;Node5</title>
<path fill="none" stroke="#191970" d="M1253.6384,-736.7135C1013.1691,-735.4018 232.9996,-728.2872 127,-691 80.5452,-674.6587 38,-674.2452 38,-625 38,-625 38,-625 38,-178 38,-119.389 105.5814,-90.9015 160.5542,-77.4242"/>
<polygon fill="#191970" stroke="#191970" points="161.356,-80.8312 170.3025,-75.1556 159.7694,-74.0134 161.356,-80.8312"/>
</g>
<!-- Node9 -->
<g id="node10" class="node">
<title>Node9</title>
<polygon fill="none" stroke="#bfbfbf" points="628,-.5 628,-19.5 680,-19.5 680,-.5 628,-.5"/>
<text text-anchor="middle" x="654" y="-7.5" font-family="FreeSans.ttf" font-size="10.00" fill="#000000">cassert</text>
</g>
<!-- Node0&#45;&gt;Node9 -->
<g id="edge149" class="edge">
<title>Node0&#45;&gt;Node9</title>
<path fill="none" stroke="#191970" d="M1253.8864,-735.8852C996.8931,-731.6121 118.5918,-715.29 64,-691 26.6686,-674.3898 0,-665.8599 0,-625 0,-625 0,-625 0,-122 0,-44.6654 85.9011,-74.4608 161,-56 247.8849,-34.642 519.4435,-17.6029 617.8943,-11.9809"/>
<polygon fill="#191970" stroke="#191970" points="618.1629,-15.4714 627.9493,-11.4122 617.7676,-8.4826 618.1629,-15.4714"/>
</g>
<!-- Node19 -->
<g id="node11" class="node">
<title>Node19</title>
<g id="a_node11"><a xlink:href="MatrixDynSize_8h.html" target="_top" xlink:title="iDynTree/Core/MatrixDynSize.h">
<polygon fill="none" stroke="#000000" points="1107.5,-425.5 1107.5,-444.5 1274.5,-444.5 1274.5,-425.5 1107.5,-425.5"/>
<text text-anchor="middle" x="1191" y="-432.5" font-family="FreeSans.ttf" font-size="10.00" fill="#000000">iDynTree/Core/MatrixDynSize.h</text>
</a>
</g>
</g>
<!-- Node0&#45;&gt;Node19 -->
<g id="edge65" class="edge">
<title>Node0&#45;&gt;Node19</title>
<path fill="none" stroke="#191970" d="M1253.7611,-728.5083C1153.412,-714.3853 981,-681.8484 981,-625 981,-625 981,-625 981,-563.5 981,-525.8735 973.5272,-507.7384 1000,-481 1015.4775,-465.3672 1063.8519,-453.8093 1108.0411,-446.1889"/>
<polygon fill="#191970" stroke="#191970" points="1108.6934,-449.6285 1117.9793,-444.5274 1107.5391,-442.7243 1108.6934,-449.6285"/>
</g>
<!-- Node24 -->
<g id="node15" class="node">
<title>Node24</title>
<g id="a_node15"><a xlink:href="LinkState_8h.html" target="_top" xlink:title="iDynTree/Model/LinkState.h">
<polygon fill="none" stroke="#000000" points="1370.5,-487 1370.5,-506 1519.5,-506 1519.5,-487 1370.5,-487"/>
<text text-anchor="middle" x="1445" y="-494" font-family="FreeSans.ttf" font-size="10.00" fill="#000000">iDynTree/Model/LinkState.h</text>
</a>
</g>
</g>
<!-- Node0&#45;&gt;Node24 -->
<g id="edge125" class="edge">
<title>Node0&#45;&gt;Node24</title>
<path fill="none" stroke="#191970" d="M1326.6024,-727.4296C1334.6528,-698.7568 1360.9809,-611.6081 1400,-548 1407.6635,-535.5071 1418.399,-523.0883 1427.4622,-513.5766"/>
<polygon fill="#191970" stroke="#191970" points="1430.067,-515.9194 1434.5778,-506.3328 1425.0733,-511.0141 1430.067,-515.9194"/>
</g>
<!-- Node25 -->
<g id="node16" class="node">
<title>Node25</title>
<g id="a_node16"><a xlink:href="Transform_8h.html" target="_top" xlink:title="iDynTree/Core/Transform.h">
<polygon fill="none" stroke="#000000" points="1829,-425.5 1829,-444.5 1975,-444.5 1975,-425.5 1829,-425.5"/>
<text text-anchor="middle" x="1902" y="-432.5" font-family="FreeSans.ttf" font-size="10.00" fill="#000000">iDynTree/Core/Transform.h</text>
</a>
</g>
</g>
<!-- Node0&#45;&gt;Node25 -->
<g id="edge70" class="edge">
<title>Node0&#45;&gt;Node25</title>
<path fill="none" stroke="#191970" d="M1394.2123,-732.3623C1564.0156,-720.2093 1983,-684.2219 1983,-625 1983,-625 1983,-625 1983,-563.5 1983,-517.2987 1945.0641,-474.1515 1921.1157,-451.5163"/>
<polygon fill="#191970" stroke="#191970" points="1923.3479,-448.8149 1913.6053,-444.6517 1918.6253,-453.9818 1923.3479,-448.8149"/>
</g>
<!-- Node28 -->
<g id="node18" class="node">
<title>Node28</title>
<g id="a_node18"><a xlink:href="Rotation_8h.html" target="_top" xlink:title="iDynTree/Core/Rotation.h">
<polygon fill="none" stroke="#000000" points="1708.5,-297 1708.5,-316 1845.5,-316 1845.5,-297 1708.5,-297"/>
<text text-anchor="middle" x="1777" y="-304" font-family="FreeSans.ttf" font-size="10.00" fill="#000000">iDynTree/Core/Rotation.h</text>
</a>
</g>
</g>
<!-- Node0&#45;&gt;Node28 -->
<g id="edge71" class="edge">
<title>Node0&#45;&gt;Node28</title>
<path fill="none" stroke="#191970" d="M1321.1965,-727.2066C1315.9113,-707.8521 1305,-663.2612 1305,-625 1305,-625 1305,-625 1305,-563.5 1305,-386.6312 1563.7989,-330.7824 1698.1286,-313.7067"/>
<polygon fill="#191970" stroke="#191970" points="1698.8682,-317.1422 1708.3671,-312.4496 1698.0151,-310.1944 1698.8682,-317.1422"/>
</g>
<!-- Node32 -->
<g id="node22" class="node">
<title>Node32</title>
<polygon fill="none" stroke="#bfbfbf" points="104,-112.5 104,-131.5 164,-131.5 164,-112.5 104,-112.5"/>
<text text-anchor="middle" x="134" y="-119.5" font-family="FreeSans.ttf" font-size="10.00" fill="#000000">iostream</text>
</g>
<!-- Node0&#45;&gt;Node32 -->
<g id="edge150" class="edge">
<title>Node0&#45;&gt;Node32</title>
<path fill="none" stroke="#191970" d="M1253.6232,-735.9618C1008.8595,-732.1254 206.9716,-717.577 159,-691 127.9447,-673.7949 114,-660.5027 114,-625 114,-625 114,-625 114,-239.5 114,-204.6457 122.6582,-164.7899 128.5811,-141.6029"/>
<polygon fill="#191970" stroke="#191970" points="132.0391,-142.2172 131.2191,-131.6542 125.2729,-140.4231 132.0391,-142.2172"/>
</g>
<!-- Node33 -->
<g id="node23" class="node">
<title>Node33</title>
<g id="a_node23"><a xlink:href="Twist_8h.html" target="_top" xlink:title="iDynTree/Core/Twist.h">
<polygon fill="none" stroke="#000000" points="625,-364 625,-383 747,-383 747,-364 625,-364"/>
<text text-anchor="middle" x="686" y="-371" font-family="FreeSans.ttf" font-size="10.00" fill="#000000">iDynTree/Core/Twist.h</text>
</a>
</g>
</g>
<!-- Node0&#45;&gt;Node33 -->
<g id="edge69" class="edge">
<title>Node0&#45;&gt;Node33</title>
<path fill="none" stroke="#191970" d="M1253.6616,-735.6733C1040.7929,-730.7344 418,-709.0982 418,-625 418,-625 418,-625 418,-496.5 418,-463.6194 413.0487,-447.5271 437,-425 496.1111,-369.4036 536.6037,-405.7726 616,-389 621.6953,-387.7969 627.6458,-386.516 633.5681,-385.2261"/>
<polygon fill="#191970" stroke="#191970" points="634.4396,-388.6182 643.4585,-383.0586 632.941,-381.7805 634.4396,-388.6182"/>
</g>
<!-- Node36 -->
<g id="node25" class="node">
<title>Node36</title>
<g id="a_node25"><a xlink:href="SpatialAcc_8h.html" target="_top" xlink:title="iDynTree/Core/SpatialAcc.h">
<polygon fill="none" stroke="#000000" points="459,-364 459,-383 607,-383 607,-364 459,-364"/>
<text text-anchor="middle" x="533" y="-371" font-family="FreeSans.ttf" font-size="10.00" fill="#000000">iDynTree/Core/SpatialAcc.h</text>
</a>
</g>
</g>
<!-- Node0&#45;&gt;Node36 -->
<g id="edge73" class="edge">
<title>Node0&#45;&gt;Node36</title>
<path fill="none" stroke="#191970" d="M1253.8613,-736.3475C1110.3081,-734.3026 772.8461,-725.857 492,-691 339.2402,-672.0404 152,-778.9318 152,-625 152,-625 152,-625 152,-563.5 152,-431.8405 336.4548,-391.4122 448.6783,-378.9991"/>
<polygon fill="#191970" stroke="#191970" points="449.0567,-382.4787 458.6349,-377.95 448.3232,-375.5172 449.0567,-382.4787"/>
</g>
<!-- Node37 -->
<g id="node26" class="node">
<title>Node37</title>
<g id="a_node26"><a xlink:href="Wrench_8h.html" target="_top" xlink:title="iDynTree/Core/Wrench.h">
<polygon fill="none" stroke="#000000" points="1178.5,-364 1178.5,-383 1311.5,-383 1311.5,-364 1178.5,-364"/>
<text text-anchor="middle" x="1245" y="-371" font-family="FreeSans.ttf" font-size="10.00" fill="#000000">iDynTree/Core/Wrench.h</text>
</a>
</g>
</g>
<!-- Node0&#45;&gt;Node37 -->
<g id="edge82" class="edge">
<title>Node0&#45;&gt;Node37</title>
<path fill="none" stroke="#191970" d="M1253.6694,-730.8813C1177.1951,-723.436 1060.4641,-709.5284 1020,-691 979.0186,-672.2348 943,-670.0733 943,-625 943,-625 943,-625 943,-563.5 943,-523.6701 950.2935,-509.6141 978,-481 1010.1539,-447.7929 1135.275,-406.4395 1202.2022,-386.0562"/>
<polygon fill="#191970" stroke="#191970" points="1203.4687,-389.3299 1212.0287,-383.0869 1201.4438,-382.6292 1203.4687,-389.3299"/>
</g>
<!-- Node40 -->
<g id="node29" class="node">
<title>Node40</title>
<g id="a_node29"><a xlink:href="ClassicalAcc_8h.html" target="_top" xlink:title="iDynTree/Core/ClassicalAcc.h">
<polygon fill="none" stroke="#000000" points="1119,-671.5 1119,-690.5 1277,-690.5 1277,-671.5 1119,-671.5"/>
<text text-anchor="middle" x="1198" y="-678.5" font-family="FreeSans.ttf" font-size="10.00" fill="#000000">iDynTree/Core/ClassicalAcc.h</text>
</a>
</g>
</g>
<!-- Node0&#45;&gt;Node40 -->
<g id="edge63" class="edge">
<title>Node0&#45;&gt;Node40</title>
<path fill="none" stroke="#191970" d="M1302.3398,-727.3733C1282.0228,-718.3435 1251.436,-704.7494 1228.625,-694.6111"/>
<polygon fill="#191970" stroke="#191970" points="1229.9372,-691.3642 1219.3775,-690.5011 1227.0941,-697.7609 1229.9372,-691.3642"/>
</g>
<!-- Node41 -->
<g id="node30" class="node">
<title>Node41</title>
<g id="a_node30"><a xlink:href="VectorDynSize_8h.html" target="_top" xlink:title="iDynTree/Core/VectorDynSize.h">
<polygon fill="none" stroke="#000000" points="1643.5,-425.5 1643.5,-444.5 1810.5,-444.5 1810.5,-425.5 1643.5,-425.5"/>
<text text-anchor="middle" x="1727" y="-432.5" font-family="FreeSans.ttf" font-size="10.00" fill="#000000">iDynTree/Core/VectorDynSize.h</text>
</a>
</g>
</g>
<!-- Node0&#45;&gt;Node41 -->
<g id="edge66" class="edge">
<title>Node0&#45;&gt;Node41</title>
<path fill="none" stroke="#191970" d="M1394.214,-734.7151C1525.0493,-728.5353 1793,-705.9925 1793,-625 1793,-625 1793,-625 1793,-563.5 1793,-519.7204 1762.3122,-475.8979 1742.7877,-452.447"/>
<polygon fill="#191970" stroke="#191970" points="1745.3533,-450.0626 1736.177,-444.7667 1740.0479,-454.6291 1745.3533,-450.0626"/>
</g>
<!-- Node42 -->
<g id="node31" class="node">
<title>Node42</title>
<g id="a_node31"><a xlink:href="SpatialInertia_8h.html" target="_top" xlink:title="iDynTree/Core/SpatialInertia.h">
<polygon fill="none" stroke="#000000" points="818,-425.5 818,-444.5 980,-444.5 980,-425.5 818,-425.5"/>
<text text-anchor="middle" x="899" y="-432.5" font-family="FreeSans.ttf" font-size="10.00" fill="#000000">iDynTree/Core/SpatialInertia.h</text>
</a>
</g>
</g>
<!-- Node0&#45;&gt;Node42 -->
<g id="edge74" class="edge">
<title>Node0&#45;&gt;Node42</title>
<path fill="none" stroke="#191970" d="M1253.9013,-732.6094C1147.425,-725.3799 954.542,-709.8732 929,-691 903.2314,-671.9593 900,-657.0401 900,-625 900,-625 900,-625 900,-563.5 900,-525.0001 899.5456,-480.0137 899.2494,-454.7809"/>
<polygon fill="#191970" stroke="#191970" points="902.7479,-454.6284 899.1267,-444.6717 895.7484,-454.7135 902.7479,-454.6284"/>
</g>
<!-- Node46 -->
<g id="node34" class="node">
<title>Node46</title>
<g id="a_node34"><a xlink:href="EigenHelpers_8h.html" target="_top" xlink:title="iDynTree/Core/EigenHelpers.h">
<polygon fill="none" stroke="#000000" points="509.5,-487 509.5,-506 670.5,-506 670.5,-487 509.5,-487"/>
<text text-anchor="middle" x="590" y="-494" font-family="FreeSans.ttf" font-size="10.00" fill="#000000">iDynTree/Core/EigenHelpers.h</text>
</a>
</g>
</g>
<!-- Node0&#45;&gt;Node46 -->
<g id="edge83" class="edge">
<title>Node0&#45;&gt;Node46</title>
<path fill="none" stroke="#191970" d="M1253.9721,-733.6749C1147.9286,-727.9611 951.9757,-714.5605 886,-691 768.7628,-649.1337 651.8333,-551.8433 608.0462,-512.9743"/>
<polygon fill="#191970" stroke="#191970" points="610.2928,-510.2878 600.511,-506.2176 605.6196,-515.4995 610.2928,-510.2878"/>
</g>
<!-- Node48 -->
<g id="node36" class="node">
<title>Node48</title>
<g id="a_node36"><a xlink:href="Model_8h.html" target="_top" xlink:title="iDynTree/Model/Model.h">
<polygon fill="none" stroke="#000000" points="2871.5,-554 2871.5,-573 3004.5,-573 3004.5,-554 2871.5,-554"/>
<text text-anchor="middle" x="2938" y="-561" font-family="FreeSans.ttf" font-size="10.00" fill="#000000">iDynTree/Model/Model.h</text>
</a>
</g>
</g>
<!-- Node0&#45;&gt;Node48 -->
<g id="edge94" class="edge">
<title>Node0&#45;&gt;Node48</title>
<path fill="none" stroke="#191970" d="M1394.3649,-736.079C1607.2784,-732.982 2242.5301,-721.3801 2447,-691 2619.4784,-665.3732 2818.8602,-603.1212 2900.3617,-576.2252"/>
<polygon fill="#191970" stroke="#191970" points="2901.5448,-579.5204 2909.934,-573.0495 2899.3406,-572.8764 2901.5448,-579.5204"/>
</g>
<!-- Node53 -->
<g id="node41" class="node">
<title>Node53</title>
<g id="a_node41"><a xlink:href="Traversal_8h.html" target="_top" xlink:title="iDynTree/Model/Traversal.h">
<polygon fill="none" stroke="#000000" points="2487,-487 2487,-506 2635,-506 2635,-487 2487,-487"/>
<text text-anchor="middle" x="2561" y="-494" font-family="FreeSans.ttf" font-size="10.00" fill="#000000">iDynTree/Model/Traversal.h</text>
</a>
</g>
</g>
<!-- Node0&#45;&gt;Node53 -->
<g id="edge110" class="edge">
<title>Node0&#45;&gt;Node53</title>
<path fill="none" stroke="#191970" d="M1394.236,-734.8701C1546.6574,-729.8412 1903.5715,-715.7546 2022,-691 2125.1926,-669.4301 2426.9594,-550.2618 2527.7711,-509.8829"/>
<polygon fill="#191970" stroke="#191970" points="2529.1805,-513.0887 2537.1589,-506.1177 2526.5747,-506.5918 2529.1805,-513.0887"/>
</g>
<!-- Node54 -->
<g id="node42" class="node">
<title>Node54</title>
<g id="a_node42"><a xlink:href="FreeFloatingState_8h.html" target="_top" xlink:title="iDynTree/Model/FreeFloating\lState.h">
<polygon fill="none" stroke="#000000" points="1595,-548.5 1595,-578.5 1749,-578.5 1749,-548.5 1595,-548.5"/>
<text text-anchor="start" x="1603" y="-566.5" font-family="FreeSans.ttf" font-size="10.00" fill="#000000">iDynTree/Model/FreeFloating</text>
<text text-anchor="middle" x="1672" y="-555.5" font-family="FreeSans.ttf" font-size="10.00" fill="#000000">State.h</text>
</a>
</g>
</g>
<!-- Node0&#45;&gt;Node54 -->
<g id="edge113" class="edge">
<title>Node0&#45;&gt;Node54</title>
<path fill="none" stroke="#191970" d="M1343.2057,-727.4248C1398.3418,-699.9359 1557.9379,-620.3672 1632.6077,-583.1395"/>
<polygon fill="#191970" stroke="#191970" points="1634.3199,-586.1968 1641.7077,-578.6026 1631.1966,-579.9322 1634.3199,-586.1968"/>
</g>
<!-- Node56 -->
<g id="node44" class="node">
<title>Node56</title>
<g id="a_node44"><a xlink:href="LinkTraversalsCache_8h.html" target="_top" xlink:title="iDynTree/Model/LinkTraversals\lCache.h">
<polygon fill="none" stroke="#000000" points="2305,-481.5 2305,-511.5 2469,-511.5 2469,-481.5 2305,-481.5"/>
<text text-anchor="start" x="2313" y="-499.5" font-family="FreeSans.ttf" font-size="10.00" fill="#000000">iDynTree/Model/LinkTraversals</text>
<text text-anchor="middle" x="2387" y="-488.5" font-family="FreeSans.ttf" font-size="10.00" fill="#000000">Cache.h</text>
</a>
</g>
</g>
<!-- Node0&#45;&gt;Node56 -->
<g id="edge126" class="edge">
<title>Node0&#45;&gt;Node56</title>
<path fill="none" stroke="#191970" d="M1394.1655,-735.8474C1556.2078,-732.6696 1946.5116,-721.8712 1997,-691 2060.2729,-652.3117 2021.7228,-589.7774 2083,-548 2159.6931,-495.7124 2198.7082,-525.8904 2294.5784,-512.1101"/>
<polygon fill="#191970" stroke="#191970" points="2295.3236,-515.5361 2304.6609,-510.5296 2294.2395,-508.6206 2295.3236,-515.5361"/>
</g>
<!-- Node57 -->
<g id="node45" class="node">
<title>Node57</title>
<g id="a_node45"><a xlink:href="ForwardKinematics_8h.html" target="_top" xlink:title="iDynTree/Model/ForwardKinematics.h">
<polygon fill="none" stroke="#000000" points="2966.5,-615.5 2966.5,-634.5 3163.5,-634.5 3163.5,-615.5 2966.5,-615.5"/>
<text text-anchor="middle" x="3065" y="-622.5" font-family="FreeSans.ttf" font-size="10.00" fill="#000000">iDynTree/Model/ForwardKinematics.h</text>
</a>
</g>
</g>
<!-- Node0&#45;&gt;Node57 -->
<g id="edge129" class="edge">
<title>Node0&#45;&gt;Node57</title>
<path fill="none" stroke="#191970" d="M1394.1501,-735.9876C1696.4681,-731.5006 2876.1973,-712.6691 2952,-691 2987.7101,-680.7918 3023.8924,-656.7073 3045.3817,-640.6315"/>
<polygon fill="#191970" stroke="#191970" points="3047.5765,-643.3592 3053.3876,-634.5002 3043.3203,-637.8018 3047.5765,-643.3592"/>
</g>
<!-- Node58 -->
<g id="node46" class="node">
<title>Node58</title>
<g id="a_node46"><a xlink:href="Dynamics_8h.html" target="_top" xlink:title="iDynTree/Model/Dynamics.h">
<polygon fill="none" stroke="#000000" points="1409,-554 1409,-573 1561,-573 1561,-554 1409,-554"/>
<text text-anchor="middle" x="1485" y="-561" font-family="FreeSans.ttf" font-size="10.00" fill="#000000">iDynTree/Model/Dynamics.h</text>
</a>
</g>
</g>
<!-- Node0&#45;&gt;Node58 -->
<g id="edge131" class="edge">
<title>Node0&#45;&gt;Node58</title>
<path fill="none" stroke="#191970" d="M1332.8854,-727.4248C1358.8837,-699.4079 1435.0842,-617.2912 1468.722,-581.0418"/>
<polygon fill="#191970" stroke="#191970" points="1471.7071,-582.9705 1475.9436,-573.2595 1466.5759,-578.209 1471.7071,-582.9705"/>
</g>
<!-- Node59 -->
<g id="node47" class="node">
<title>Node59</title>
<g id="a_node47"><a xlink:href="Jacobians_8h.html" target="_top" xlink:title="iDynTree/Model/Jacobians.h">
<polygon fill="none" stroke="#000000" points="3182,-615.5 3182,-634.5 3332,-634.5 3332,-615.5 3182,-615.5"/>
<text text-anchor="middle" x="3257" y="-622.5" font-family="FreeSans.ttf" font-size="10.00" fill="#000000">iDynTree/Model/Jacobians.h</text>
</a>
</g>
</g>
<!-- Node0&#45;&gt;Node59 -->
<g id="edge136" class="edge">
<title>Node0&#45;&gt;Node59</title>
<path fill="none" stroke="#191970" d="M1394.2145,-736.6348C1690.5774,-734.8792 2831.1238,-725.8965 2988,-691 3009.7613,-686.1593 3012.7476,-677.7323 3034,-671 3082.7713,-655.5504 3139.2235,-643.9653 3183.1259,-636.2859"/>
<polygon fill="#191970" stroke="#191970" points="3183.8852,-639.7068 3193.1472,-634.5624 3182.6987,-632.808 3183.8852,-639.7068"/>
</g>
<!-- Node60 -->
<g id="node48" class="node">
<title>Node60</title>
<g id="a_node48"><a xlink:href="ModelLoader_8h.html" target="_top" xlink:title="iDynTree/ModelIO/ModelLoader.h">
<polygon fill="none" stroke="#ff0000" points="2262,-671.5 2262,-690.5 2438,-690.5 2438,-671.5 2262,-671.5"/>
<text text-anchor="middle" x="2350" y="-678.5" font-family="FreeSans.ttf" font-size="10.00" fill="#000000">iDynTree/ModelIO/ModelLoader.h</text>
</a>
</g>
</g>
<!-- Node0&#45;&gt;Node60 -->
<g id="edge138" class="edge">
<title>Node0&#45;&gt;Node60</title>
<path fill="none" stroke="#191970" d="M1394.1173,-733.1729C1572.7589,-723.4225 2045.4045,-697.6251 2251.5395,-686.3741"/>
<polygon fill="#191970" stroke="#191970" points="2251.9544,-689.8567 2261.7488,-685.8168 2251.5728,-682.8671 2251.9544,-689.8567"/>
</g>
<!-- Node63 -->
<g id="node50" class="node">
<title>Node63</title>
<polygon fill="none" stroke="#bfbfbf" points="3042.5,-671.5 3042.5,-690.5 3097.5,-690.5 3097.5,-671.5 3042.5,-671.5"/>
<text text-anchor="middle" x="3070" y="-678.5" font-family="FreeSans.ttf" font-size="10.00" fill="#000000">fstream</text>
</g>
<!-- Node0&#45;&gt;Node63 -->
<g id="edge151" class="edge">
<title>Node0&#45;&gt;Node63</title>
<path fill="none" stroke="#191970" d="M1394.2472,-735.9616C1694.7921,-731.4026 2864.5504,-712.4298 3028,-691 3029.2959,-690.8301 3030.6102,-690.6369 3031.9343,-690.4245"/>
<polygon fill="#191970" stroke="#191970" points="3032.9661,-693.791 3042.1357,-688.4837 3031.6577,-686.9144 3032.9661,-693.791"/>
</g>
<!-- Node2 -->
<g id="node3" class="node">
<title>Node2</title>
<polygon fill="none" stroke="#bfbfbf" points="1909,-112.5 1909,-131.5 1953,-131.5 1953,-112.5 1909,-112.5"/>
<text text-anchor="middle" x="1931" y="-119.5" font-family="FreeSans.ttf" font-size="10.00" fill="#000000">string</text>
</g>
<!-- Node1&#45;&gt;Node2 -->
<g id="edge2" class="edge">
<title>Node1&#45;&gt;Node2</title>
<path fill="none" stroke="#191970" d="M1184.5678,-559.9689C1302.0086,-554.3289 1516.7538,-540.8402 1698,-512 1706.0582,-510.7178 1978.0478,-450.5812 1984,-445 2030.9226,-401.0023 2026,-370.8236 2026,-306.5 2026,-306.5 2026,-306.5 2026,-239.5 2026,-194.762 1983.839,-157.4849 1955.6909,-137.5828"/>
<polygon fill="#191970" stroke="#191970" points="1957.3512,-134.479 1947.1155,-131.7441 1953.4116,-140.2652 1957.3512,-134.479"/>
</g>
<!-- Node3 -->
<g id="node4" class="node">
<title>Node3</title>
<polygon fill="none" stroke="#bfbfbf" points="2032.5,-425.5 2032.5,-444.5 2079.5,-444.5 2079.5,-425.5 2032.5,-425.5"/>
<text text-anchor="middle" x="2056" y="-432.5" font-family="FreeSans.ttf" font-size="10.00" fill="#000000">vector</text>
</g>
<!-- Node1&#45;&gt;Node3 -->
<g id="edge3" class="edge">
<title>Node1&#45;&gt;Node3</title>
<path fill="none" stroke="#191970" d="M1184.7744,-559.0283C1368.5798,-549.4362 1782.1947,-526.5742 1845,-512 1880.5354,-503.7539 1886.8312,-493.7773 1921,-481 1955.4948,-468.1007 1995.4768,-454.6628 2022.9261,-445.6663"/>
<polygon fill="#191970" stroke="#191970" points="2024.0179,-448.9917 2032.4386,-442.562 2021.8462,-442.3371 2024.0179,-448.9917"/>
</g>
<!-- Node4 -->
<g id="node5" class="node">
<title>Node4</title>
<g id="a_node5"><a xlink:href="VectorFixSize_8h.html" target="_top" xlink:title="iDynTree/Core/VectorFixSize.h">
<polygon fill="none" stroke="#ff0000" points="874.5,-168.5 874.5,-187.5 1035.5,-187.5 1035.5,-168.5 874.5,-168.5"/>
<text text-anchor="middle" x="955" y="-175.5" font-family="FreeSans.ttf" font-size="10.00" fill="#000000">iDynTree/Core/VectorFixSize.h</text>
</a>
</g>
</g>
<!-- Node1&#45;&gt;Node4 -->
<g id="edge4" class="edge">
<title>Node1&#45;&gt;Node4</title>
<path fill="none" stroke="#191970" d="M1009.4511,-561.9674C866.6741,-558.4668 590.5246,-547.2311 500,-512 432.7479,-485.8263 405.7501,-460.2028 394,-389 376.9081,-285.4272 462.6022,-254.6552 563,-224 617.4342,-207.3792 766.2879,-192.9593 864.0999,-184.8827"/>
<polygon fill="#191970" stroke="#191970" points="864.605,-188.3532 874.2862,-184.0493 864.0341,-181.3765 864.605,-188.3532"/>
</g>
<!-- Node1&#45;&gt;Node5 -->
<g id="edge21" class="edge">
<title>Node1&#45;&gt;Node5</title>
<path fill="none" stroke="#191970" d="M1009.3913,-561.5768C794.2342,-556.4318 251.7545,-540.7523 175,-512 122.8004,-492.446 76,-490.7419 76,-435 76,-435 76,-435 76,-178 76,-147.4754 73.9411,-134.097 95,-112 112.2639,-93.8851 136.9365,-82.9038 160.4777,-76.247"/>
<polygon fill="#191970" stroke="#191970" points="161.6738,-79.5525 170.4726,-73.6506 159.9138,-72.7774 161.6738,-79.5525"/>
</g>
<!-- Node8 -->
<g id="node9" class="node">
<title>Node8</title>
<g id="a_node9"><a xlink:href="Span_8h.html" target="_top" xlink:title="iDynTree/Core/Span.h">
<polygon fill="none" stroke="#ff0000" points="759.5,-56.5 759.5,-75.5 880.5,-75.5 880.5,-56.5 759.5,-56.5"/>
<text text-anchor="middle" x="820" y="-63.5" font-family="FreeSans.ttf" font-size="10.00" fill="#000000">iDynTree/Core/Span.h</text>
</a>
</g>
</g>
<!-- Node1&#45;&gt;Node8 -->
<g id="edge22" class="edge">
<title>Node1&#45;&gt;Node8</title>
<path fill="none" stroke="#191970" d="M1009.3454,-561.1178C855.3621,-556.1917 542.6914,-542.6732 438,-512 377.51,-494.2772 352.5626,-494.0707 313,-445 251.3198,-368.4962 238.261,-295.1949 306,-224 368.67,-158.1327 633.5178,-101.032 756.6164,-77.4868"/>
<polygon fill="#191970" stroke="#191970" points="757.4827,-80.8849 766.6545,-75.5812 756.1771,-74.0077 757.4827,-80.8849"/>
</g>
<!-- Node1&#45;&gt;Node19 -->
<g id="edge14" class="edge">
<title>Node1&#45;&gt;Node19</title>
<path fill="none" stroke="#191970" d="M1118.6783,-553.9987C1135.7065,-545.4303 1158.6947,-531.2207 1172,-512 1183.7162,-495.0749 1188.228,-471.6579 1189.9542,-455.1034"/>
<polygon fill="#191970" stroke="#191970" points="1193.4615,-455.1473 1190.7585,-444.9031 1186.4832,-454.597 1193.4615,-455.1473"/>
</g>
<!-- Node20 -->
<g id="node12" class="node">
<title>Node20</title>
<g id="a_node12"><a xlink:href="MatrixView_8h.html" target="_top" xlink:title="iDynTree/Core/MatrixView.h">
<polygon fill="none" stroke="#ff0000" points="258.5,-112.5 258.5,-131.5 409.5,-131.5 409.5,-112.5 258.5,-112.5"/>
<text text-anchor="middle" x="334" y="-119.5" font-family="FreeSans.ttf" font-size="10.00" fill="#000000">iDynTree/Core/MatrixView.h</text>
</a>
</g>
</g>
<!-- Node1&#45;&gt;Node20 -->
<g id="edge20" class="edge">
<title>Node1&#45;&gt;Node20</title>
<path fill="none" stroke="#191970" d="M1009.2888,-560.8311C792.4614,-553.9059 246.366,-534.337 214,-512 158.4936,-473.6929 152,-440.9418 152,-373.5 152,-373.5 152,-373.5 152,-239.5 152,-179.8403 221.8788,-149.0012 275.0375,-134.1724"/>
<polygon fill="#191970" stroke="#191970" points="275.9856,-137.542 284.7482,-131.5865 274.1843,-130.7777 275.9856,-137.542"/>
</g>
<!-- Node21 -->
<g id="node13" class="node">
<title>Node21</title>
<g id="a_node13"><a xlink:href="Indices_8h.html" target="_top" xlink:title="iDynTree/Model/Indices.h">
<polygon fill="none" stroke="#ff0000" points="2814,-425.5 2814,-444.5 2952,-444.5 2952,-425.5 2814,-425.5"/>
<text text-anchor="middle" x="2883" y="-432.5" font-family="FreeSans.ttf" font-size="10.00" fill="#000000">iDynTree/Model/Indices.h</text>
</a>
</g>
</g>
<!-- Node1&#45;&gt;Node21 -->
<g id="edge23" class="edge">
<title>Node1&#45;&gt;Node21</title>
<path fill="none" stroke="#191970" d="M1184.814,-558.4063C1245.2891,-555.0461 1327.4959,-550.7692 1400,-548 1479.1897,-544.9754 2755.6859,-548.5526 2826,-512 2838.4775,-505.5136 2859.3417,-473.999 2872.0686,-453.3513"/>
<polygon fill="#191970" stroke="#191970" points="2875.0876,-455.1228 2877.2841,-444.7582 2869.1035,-451.4908 2875.0876,-455.1228"/>
</g>
<!-- Node23 -->
<g id="node14" class="node">
<title>Node23</title>
<g id="a_node14"><a xlink:href="FreeFloatingMatrices_8h.html" target="_top" xlink:title="iDynTree/Model/FreeFloating\lMatrices.h">
<polygon fill="none" stroke="#000000" points="1009,-481.5 1009,-511.5 1163,-511.5 1163,-481.5 1009,-481.5"/>
<text text-anchor="start" x="1017" y="-499.5" font-family="FreeSans.ttf" font-size="10.00" fill="#000000">iDynTree/Model/FreeFloating</text>
<text text-anchor="middle" x="1086" y="-488.5" font-family="FreeSans.ttf" font-size="10.00" fill="#000000">Matrices.h</text>
</a>
</g>
</g>
<!-- Node1&#45;&gt;Node23 -->
<g id="edge26" class="edge">
<title>Node1&#45;&gt;Node23</title>
<path fill="none" stroke="#191970" d="M1095.424,-553.9005C1094.0464,-545.5099 1091.9835,-532.9451 1090.1387,-521.7085"/>
<polygon fill="#191970" stroke="#191970" points="1093.5402,-520.8226 1088.4663,-511.5218 1086.6327,-521.9567 1093.5402,-520.8226"/>
</g>
<!-- Node1&#45;&gt;Node24 -->
<g id="edge28" class="edge">
<title>Node1&#45;&gt;Node24</title>
<path fill="none" stroke="#191970" d="M1146.4903,-553.9717C1209.407,-541.8584 1317.9337,-520.9639 1385.3529,-507.9838"/>
<polygon fill="#191970" stroke="#191970" points="1386.241,-511.3772 1395.399,-506.0496 1384.9176,-504.5034 1386.241,-511.3772"/>
</g>
<!-- Node4&#45;&gt;Node2 -->
<g id="edge11" class="edge">
<title>Node4&#45;&gt;Node2</title>
<path fill="none" stroke="#191970" d="M1035.7005,-173.3696C1238.4706,-161.7353 1762.7867,-131.6516 1898.527,-123.8632"/>
<polygon fill="#191970" stroke="#191970" points="1898.9029,-127.3475 1908.686,-123.2803 1898.5019,-120.359 1898.9029,-127.3475"/>
</g>
<!-- Node4&#45;&gt;Node5 -->
<g id="edge5" class="edge">
<title>Node4&#45;&gt;Node5</title>
<path fill="none" stroke="#191970" d="M893.4997,-168.4993C759.4082,-147.7844 441.4419,-98.6641 299.9687,-76.809"/>
<polygon fill="#191970" stroke="#191970" points="300.102,-73.2881 289.6849,-75.2203 299.0332,-80.206 300.102,-73.2881"/>
</g>
<!-- Node6 -->
<g id="node7" class="node">
<title>Node6</title>
<polygon fill="none" stroke="#bfbfbf" points="1443.5,-.5 1443.5,-19.5 1496.5,-19.5 1496.5,-.5 1443.5,-.5"/>
<text text-anchor="middle" x="1470" y="-7.5" font-family="FreeSans.ttf" font-size="10.00" fill="#000000">cstddef</text>
</g>
<!-- Node4&#45;&gt;Node6 -->
<g id="edge13" class="edge">
<title>Node4&#45;&gt;Node6</title>
<path fill="none" stroke="#191970" d="M984.1642,-168.4862C1072.4309,-139.6924 1336.5815,-53.5229 1433.6758,-21.8495"/>
<polygon fill="#191970" stroke="#191970" points="1434.9197,-25.1253 1443.3412,-18.6965 1432.7488,-18.4704 1434.9197,-25.1253"/>
</g>
<!-- Node4&#45;&gt;Node8 -->
<g id="edge8" class="edge">
<title>Node4&#45;&gt;Node8</title>
<path fill="none" stroke="#191970" d="M943.49,-168.4509C920.3758,-149.2747 868.0892,-105.8962 839.5254,-82.1988"/>
<polygon fill="#191970" stroke="#191970" points="841.4119,-79.2162 831.4809,-75.5249 836.9424,-84.6036 841.4119,-79.2162"/>
</g>
<!-- Node4&#45;&gt;Node9 -->
<g id="edge12" class="edge">
<title>Node4&#45;&gt;Node9</title>
<path fill="none" stroke="#191970" d="M933.2281,-168.3932C895.2012,-151.3466 814.5774,-114.0099 750,-76 723.2159,-60.235 693.9973,-39.6161 674.9171,-25.6505"/>
<polygon fill="#191970" stroke="#191970" points="676.7895,-22.6824 666.6647,-19.5616 672.6334,-28.3151 676.7895,-22.6824"/>
</g>
<!-- Node5&#45;&gt;Node6 -->
<g id="edge6" class="edge">
<title>Node5&#45;&gt;Node6</title>
<path fill="none" stroke="#191970" d="M289.8078,-63.299C508.0191,-53.4443 1257.7104,-19.5873 1433.0916,-11.6668"/>
<polygon fill="#191970" stroke="#191970" points="1433.5103,-15.1516 1443.3422,-11.2039 1433.1944,-8.1587 1433.5103,-15.1516"/>
</g>
<!-- Node7 -->
<g id="node8" class="node">
<title>Node7</title>
<polygon fill="none" stroke="#bfbfbf" points="190,-.5 190,-19.5 270,-19.5 270,-.5 190,-.5"/>
<text text-anchor="middle" x="230" y="-7.5" font-family="FreeSans.ttf" font-size="10.00" fill="#000000">CoreExport.h</text>
</g>
<!-- Node5&#45;&gt;Node7 -->
<g id="edge7" class="edge">
<title>Node5&#45;&gt;Node7</title>
<path fill="none" stroke="#191970" d="M230,-56.2455C230,-48.9382 230,-38.6944 230,-29.7046"/>
<polygon fill="#191970" stroke="#191970" points="233.5001,-29.6426 230,-19.6427 226.5001,-29.6427 233.5001,-29.6426"/>
</g>
<!-- Node8&#45;&gt;Node6 -->
<g id="edge10" class="edge">
<title>Node8&#45;&gt;Node6</title>
<path fill="none" stroke="#191970" d="M880.5667,-60.7819C1013.2438,-49.3513 1326.2318,-22.3862 1433.3191,-13.1602"/>
<polygon fill="#191970" stroke="#191970" points="1433.6551,-16.6443 1443.3178,-12.2988 1433.0542,-9.6701 1433.6551,-16.6443"/>
</g>
<!-- Node8&#45;&gt;Node9 -->
<g id="edge9" class="edge">
<title>Node8&#45;&gt;Node9</title>
<path fill="none" stroke="#191970" d="M791.4636,-56.3733C763.3968,-46.9049 720.4538,-32.4182 690.0438,-22.1594"/>
<polygon fill="#191970" stroke="#191970" points="690.8451,-18.7359 680.2509,-18.8557 688.6075,-25.3687 690.8451,-18.7359"/>
</g>
<!-- Node19&#45;&gt;Node2 -->
<g id="edge15" class="edge">
<title>Node19&#45;&gt;Node2</title>
<path fill="none" stroke="#191970" d="M1274.4219,-425.4749C1442.6929,-405.595 1810.5989,-358.5048 1855,-322 1869.6737,-309.9359 1909.425,-189.4453 1924.806,-141.5152"/>
<polygon fill="#191970" stroke="#191970" points="1928.2257,-142.3119 1927.9334,-131.7211 1921.5574,-140.1826 1928.2257,-142.3119"/>
</g>
<!-- Node19&#45;&gt;Node20 -->
<g id="edge16" class="edge">
<title>Node19&#45;&gt;Node20</title>
<path fill="none" stroke="#191970" d="M1237.3999,-425.4697C1285.6581,-413.5539 1350.3773,-390.6724 1321,-358 1270.4956,-301.8308 1056.9922,-337.1932 983,-322 742.6199,-272.6415 464.1149,-171.3406 368.3713,-135.1845"/>
<polygon fill="#191970" stroke="#191970" points="369.4942,-131.8672 358.9029,-131.5959 367.0133,-138.4129 369.4942,-131.8672"/>
</g>
<!-- Node20&#45;&gt;Node5 -->
<g id="edge19" class="edge">
<title>Node20&#45;&gt;Node5</title>
<path fill="none" stroke="#191970" d="M315.8846,-112.2455C299.555,-103.4527 275.329,-90.4079 256.7661,-80.4125"/>
<polygon fill="#191970" stroke="#191970" points="258.3719,-77.3021 247.9078,-75.6427 255.0532,-83.4654 258.3719,-77.3021"/>
</g>
<!-- Node20&#45;&gt;Node8 -->
<g id="edge18" class="edge">
<title>Node20&#45;&gt;Node8</title>
<path fill="none" stroke="#191970" d="M409.6707,-113.2807C502.5375,-102.58 658.7871,-84.576 749.3145,-74.1448"/>
<polygon fill="#191970" stroke="#191970" points="749.9473,-77.5952 759.4809,-72.9734 749.1459,-70.6412 749.9473,-77.5952"/>
</g>
<!-- Node20&#45;&gt;Node9 -->
<g id="edge17" class="edge">
<title>Node20&#45;&gt;Node9</title>
<path fill="none" stroke="#191970" d="M361.283,-112.4509C418.9569,-92.2651 553.2534,-45.2613 617.9262,-22.6258"/>
<polygon fill="#191970" stroke="#191970" points="619.4032,-25.8171 627.6856,-19.21 617.0908,-19.2101 619.4032,-25.8171"/>
</g>
<!-- Node21&#45;&gt;Node2 -->
<g id="edge25" class="edge">
<title>Node21&#45;&gt;Node2</title>
<path fill="none" stroke="#191970" d="M2875.5825,-425.2876C2860.5698,-404.6301 2828,-354.3052 2828,-306.5 2828,-306.5 2828,-306.5 2828,-239.5 2828,-150.4515 2124.0258,-126.9631 1963.3716,-122.7622"/>
<polygon fill="#191970" stroke="#191970" points="1963.259,-119.2583 1953.1732,-122.5026 1963.0808,-126.256 1963.259,-119.2583"/>
</g>
<!-- Node21&#45;&gt;Node6 -->
<g id="edge24" class="edge">
<title>Node21&#45;&gt;Node6</title>
<path fill="none" stroke="#191970" d="M2884.1871,-425.1955C2887.5909,-392.3836 2894.0494,-285.0573 2842,-224 2795.0238,-168.8938 2759.3383,-185.2042 2689,-168 2231.4527,-56.0877 1656.6945,-19.7009 1506.9919,-11.7983"/>
<polygon fill="#191970" stroke="#191970" points="1506.7278,-8.2801 1496.5601,-11.2578 1506.3655,-15.2707 1506.7278,-8.2801"/>
</g>
<!-- Node23&#45;&gt;Node19 -->
<g id="edge27" class="edge">
<title>Node23&#45;&gt;Node19</title>
<path fill="none" stroke="#191970" d="M1111.6859,-481.4554C1128.1297,-471.8241 1149.3708,-459.3828 1165.7323,-449.7996"/>
<polygon fill="#191970" stroke="#191970" points="1167.8688,-452.6045 1174.7287,-444.5303 1164.331,-446.5643 1167.8688,-452.6045"/>
</g>
<!-- Node24&#45;&gt;Node3 -->
<g id="edge62" class="edge">
<title>Node24&#45;&gt;Node3</title>
<path fill="none" stroke="#191970" d="M1491.9566,-486.9488C1503.9923,-484.7449 1516.9435,-482.585 1529,-481 1730.1237,-454.5596 1782.3382,-466.9627 1984,-445 1996.5174,-443.6367 2010.2143,-441.8172 2022.27,-440.104"/>
<polygon fill="#191970" stroke="#191970" points="2022.9765,-443.5383 2032.371,-438.64 2021.9724,-436.6106 2022.9765,-443.5383"/>
</g>
<!-- Node24&#45;&gt;Node21 -->
<g id="edge61" class="edge">
<title>Node24&#45;&gt;Node21</title>
<path fill="none" stroke="#191970" d="M1489.7203,-486.9755C1502.3639,-484.6299 1516.1738,-482.3934 1529,-481 1778.5153,-453.8926 2553.0224,-440.0124 2803.7828,-436.1448"/>
<polygon fill="#191970" stroke="#191970" points="2803.9606,-439.6426 2813.9058,-435.9897 2803.8533,-432.6434 2803.9606,-439.6426"/>
</g>
<!-- Node24&#45;&gt;Node25 -->
<g id="edge29" class="edge">
<title>Node24&#45;&gt;Node25</title>
<path fill="none" stroke="#191970" d="M1493.776,-486.9899C1505.3034,-484.8839 1517.5674,-482.7582 1529,-481 1536.1162,-479.9056 1710.8306,-458.4413 1818.5846,-445.2245"/>
<polygon fill="#191970" stroke="#191970" points="1819.296,-448.6636 1828.7955,-443.9722 1818.4438,-441.7157 1819.296,-448.6636"/>
</g>
<!-- Node24&#45;&gt;Node33 -->
<g id="edge48" class="edge">
<title>Node24&#45;&gt;Node33</title>
<path fill="none" stroke="#191970" d="M1370.2085,-492.3095C1213.6134,-483.2653 861.3591,-461.4078 809,-445 769.7085,-432.6872 729.432,-406.0913 706.1145,-389.0353"/>
<polygon fill="#191970" stroke="#191970" points="708.1536,-386.1899 698.0456,-383.0151 703.9677,-391.8004 708.1536,-386.1899"/>
</g>
<!-- Node24&#45;&gt;Node36 -->
<g id="edge52" class="edge">
<title>Node24&#45;&gt;Node36</title>
<path fill="none" stroke="#191970" d="M1370.3631,-491.8204C1205.7337,-481.3603 821.3925,-456.1322 763,-445 691.5892,-431.3859 611.0966,-403.2878 566.791,-386.6567"/>
<polygon fill="#191970" stroke="#191970" points="567.9704,-383.3608 557.379,-383.0913 565.4906,-389.9069 567.9704,-383.3608"/>
</g>
<!-- Node24&#45;&gt;Node37 -->
<g id="edge54" class="edge">
<title>Node24&#45;&gt;Node37</title>
<path fill="none" stroke="#191970" d="M1429.3063,-486.8484C1394.5481,-465.4721 1310.8709,-414.0106 1269.2927,-388.44"/>
<polygon fill="#191970" stroke="#191970" points="1270.9723,-385.3641 1260.6208,-383.1068 1267.3053,-391.3267 1270.9723,-385.3641"/>
</g>
<!-- Node39 -->
<g id="node28" class="node">
<title>Node39</title>
<g id="a_node28"><a xlink:href="ArticulatedBodyInertia_8h.html" target="_top" xlink:title="iDynTree/Core/Articulated\lBodyInertia.h">
<polygon fill="none" stroke="#000000" points="1300.5,-224.5 1300.5,-254.5 1441.5,-254.5 1441.5,-224.5 1300.5,-224.5"/>
<text text-anchor="start" x="1308.5" y="-242.5" font-family="FreeSans.ttf" font-size="10.00" fill="#000000">iDynTree/Core/Articulated</text>
<text text-anchor="middle" x="1371" y="-231.5" font-family="FreeSans.ttf" font-size="10.00" fill="#000000">BodyInertia.h</text>
</a>
</g>
</g>
<!-- Node24&#45;&gt;Node39 -->
<g id="edge58" class="edge">
<title>Node24&#45;&gt;Node39</title>
<path fill="none" stroke="#191970" d="M1453.3909,-486.5795C1478.8771,-455.1932 1550.9666,-356.2813 1506,-291 1497.5941,-278.7966 1468.1941,-266.8883 1438.9678,-257.6019"/>
<polygon fill="#191970" stroke="#191970" points="1439.681,-254.1592 1429.0936,-254.5564 1437.6179,-260.8483 1439.681,-254.1592"/>
</g>
<!-- Node25&#45;&gt;Node2 -->
<g id="edge47" class="edge">
<title>Node25&#45;&gt;Node2</title>
<path fill="none" stroke="#191970" d="M1920.8891,-425.3879C1934.7391,-417.4181 1952.9786,-404.8439 1964,-389 1985.8066,-357.652 1988,-344.6867 1988,-306.5 1988,-306.5 1988,-306.5 1988,-239.5 1988,-200.841 1962.7138,-161.5543 1945.825,-139.6259"/>
<polygon fill="#191970" stroke="#191970" points="1948.3871,-137.2255 1939.4105,-131.5977 1942.9183,-141.595 1948.3871,-137.2255"/>
</g>
<!-- Node26 -->
<g id="node17" class="node">
<title>Node26</title>
<g id="a_node17"><a xlink:href="Position_8h.html" target="_top" xlink:title="iDynTree/Core/Position.h">
<polygon fill="none" stroke="#ff0000" points="1786,-364 1786,-383 1922,-383 1922,-364 1786,-364"/>
<text text-anchor="middle" x="1854" y="-371" font-family="FreeSans.ttf" font-size="10.00" fill="#000000">iDynTree/Core/Position.h</text>
</a>
</g>
</g>
<!-- Node25&#45;&gt;Node26 -->
<g id="edge30" class="edge">
<title>Node25&#45;&gt;Node26</title>
<path fill="none" stroke="#191970" d="M1894.5,-425.3906C1887.4262,-416.3273 1876.6458,-402.5149 1867.9854,-391.4188"/>
<polygon fill="#191970" stroke="#191970" points="1870.5176,-388.9746 1861.6057,-383.2449 1864.9994,-393.2815 1870.5176,-388.9746"/>
</g>
<!-- Node25&#45;&gt;Node28 -->
<g id="edge45" class="edge">
<title>Node25&#45;&gt;Node28</title>
<path fill="none" stroke="#191970" d="M1861.5282,-425.4445C1828.9596,-416.8392 1787.0216,-403.3666 1777,-389 1764.1821,-370.6248 1767.0283,-343.9036 1771.1818,-325.896"/>
<polygon fill="#191970" stroke="#191970" points="1774.5742,-326.7576 1773.7391,-316.1957 1767.8055,-324.9731 1774.5742,-326.7576"/>
</g>
<!-- Node31 -->
<g id="node21" class="node">
<title>Node31</title>
<g id="a_node21"><a xlink:href="MatrixFixSize_8h.html" target="_top" xlink:title="iDynTree/Core/MatrixFixSize.h">
<polygon fill="none" stroke="#ff0000" points="573.5,-168.5 573.5,-187.5 734.5,-187.5 734.5,-168.5 573.5,-168.5"/>
<text text-anchor="middle" x="654" y="-175.5" font-family="FreeSans.ttf" font-size="10.00" fill="#000000">iDynTree/Core/MatrixFixSize.h</text>
</a>
</g>
</g>
<!-- Node25&#45;&gt;Node31 -->
<g id="edge46" class="edge">
<title>Node25&#45;&gt;Node31</title>
<path fill="none" stroke="#191970" d="M1867.9959,-425.4788C1839.4894,-417.0885 1797.9568,-403.9043 1763,-389 1618.7043,-327.4778 1602.0944,-266.1511 1451,-224 1434.1894,-219.3103 950.1932,-193.5108 744.7801,-182.7333"/>
<polygon fill="#191970" stroke="#191970" points="744.7882,-179.229 734.6186,-182.2005 744.4216,-186.2194 744.7882,-179.229"/>
</g>
<!-- Node26&#45;&gt;Node2 -->
<g id="edge44" class="edge">
<title>Node26&#45;&gt;Node2</title>
<path fill="none" stroke="#191970" d="M1861.9573,-363.8726C1869.7401,-353.9705 1881.3619,-337.8045 1888,-322 1914.3096,-259.3606 1925.31,-178.6587 1929.1899,-141.8659"/>
<polygon fill="#191970" stroke="#191970" points="1932.7097,-141.8372 1930.2098,-131.5416 1925.7436,-141.149 1932.7097,-141.8372"/>
</g>
<!-- Node26&#45;&gt;Node28 -->
<g id="edge31" class="edge">
<title>Node26&#45;&gt;Node28</title>
<path fill="none" stroke="#191970" d="M1842.9678,-363.9005C1830.6172,-353.1539 1810.3977,-335.5603 1795.5943,-322.6794"/>
<polygon fill="#191970" stroke="#191970" points="1797.8532,-320.0055 1788.0118,-316.0817 1793.2582,-325.2863 1797.8532,-320.0055"/>
</g>
<!-- Node28&#45;&gt;Node2 -->
<g id="edge32" class="edge">
<title>Node28&#45;&gt;Node2</title>
<path fill="none" stroke="#191970" d="M1780.9656,-296.7701C1791.1568,-272.6611 1820.2773,-209.1379 1860,-168 1872.1023,-155.4665 1888.2339,-144.6714 1902.0619,-136.6948"/>
<polygon fill="#191970" stroke="#191970" points="1904.1394,-139.545 1911.1893,-131.6361 1900.7461,-133.4225 1904.1394,-139.545"/>
</g>
<!-- Node28&#45;&gt;Node4 -->
<g id="edge43" class="edge">
<title>Node28&#45;&gt;Node4</title>
<path fill="none" stroke="#191970" d="M1781.06,-296.8205C1787.5428,-279.6424 1797.7044,-243.7777 1779,-224 1754.1184,-197.6906 1254.5421,-184.2455 1045.6193,-179.7556"/>
<polygon fill="#191970" stroke="#191970" points="1045.6641,-176.2558 1035.5918,-179.5422 1045.5151,-183.2543 1045.6641,-176.2558"/>
</g>
<!-- Node29 -->
<g id="node19" class="node">
<title>Node29</title>
<g id="a_node19"><a xlink:href="GeomVector3_8h.html" target="_top" xlink:title="iDynTree/Core/GeomVector3.h">
<polygon fill="none" stroke="#000000" points="1119.5,-230 1119.5,-249 1282.5,-249 1282.5,-230 1119.5,-230"/>
<text text-anchor="middle" x="1201" y="-237" font-family="FreeSans.ttf" font-size="10.00" fill="#000000">iDynTree/Core/GeomVector3.h</text>
</a>
</g>
</g>
<!-- Node28&#45;&gt;Node29 -->
<g id="edge33" class="edge">
<title>Node28&#45;&gt;Node29</title>
<path fill="none" stroke="#191970" d="M1708.1632,-300.5649C1613.9986,-292.1329 1439.8358,-275.4188 1292,-255 1282.9064,-253.744 1273.3262,-252.274 1263.9325,-250.7488"/>
<polygon fill="#191970" stroke="#191970" points="1264.2816,-247.259 1253.8443,-249.0795 1263.1388,-254.1651 1264.2816,-247.259"/>
</g>
<!-- Node30 -->
<g id="node20" class="node">
<title>Node30</title>
<g id="a_node20"><a xlink:href="RotationRaw_8h.html" target="_top" xlink:title="iDynTree/Core/RotationRaw.h">
<polygon fill="none" stroke="#000000" points="1612,-230 1612,-249 1770,-249 1770,-230 1612,-230"/>
<text text-anchor="middle" x="1691" y="-237" font-family="FreeSans.ttf" font-size="10.00" fill="#000000">iDynTree/Core/RotationRaw.h</text>
</a>
</g>
</g>
<!-- Node28&#45;&gt;Node30 -->
<g id="edge35" class="edge">
<title>Node28&#45;&gt;Node30</title>
<path fill="none" stroke="#191970" d="M1764.6783,-296.9005C1750.7565,-286.0544 1727.8824,-268.2339 1711.31,-255.3229"/>
<polygon fill="#191970" stroke="#191970" points="1713.3385,-252.4664 1703.2988,-249.0817 1709.0364,-257.9885 1713.3385,-252.4664"/>
</g>
<!-- Node29&#45;&gt;Node4 -->
<g id="edge34" class="edge">
<title>Node29&#45;&gt;Node4</title>
<path fill="none" stroke="#191970" d="M1162.8324,-229.9581C1119.833,-219.2082 1049.8649,-201.7162 1003.1458,-190.0365"/>
<polygon fill="#191970" stroke="#191970" points="1003.8075,-186.5942 993.2571,-187.5643 1002.1097,-193.3852 1003.8075,-186.5942"/>
</g>
<!-- Node30&#45;&gt;Node2 -->
<g id="edge42" class="edge">
<title>Node30&#45;&gt;Node2</title>
<path fill="none" stroke="#191970" d="M1707.267,-229.932C1731.7645,-215.6818 1779.7608,-188.3767 1822,-168 1847.6682,-155.6174 1877.5318,-143.1445 1899.5029,-134.3168"/>
<polygon fill="#191970" stroke="#191970" points="1901.0063,-137.4854 1908.999,-130.5307 1898.4138,-130.9831 1901.0063,-137.4854"/>
</g>
<!-- Node30&#45;&gt;Node31 -->
<g id="edge36" class="edge">
<title>Node30&#45;&gt;Node31</title>
<path fill="none" stroke="#191970" d="M1611.8972,-233.2156C1573.3295,-230.2438 1526.2552,-226.7527 1484,-224 1215.4651,-206.5065 897.7743,-190.0921 745.0043,-182.4657"/>
<polygon fill="#191970" stroke="#191970" points="744.8993,-178.9563 734.7375,-181.9541 744.5508,-185.9476 744.8993,-178.9563"/>
</g>
<!-- Node31&#45;&gt;Node2 -->
<g id="edge40" class="edge">
<title>Node31&#45;&gt;Node2</title>
<path fill="none" stroke="#191970" d="M734.6532,-174.0974C773.9714,-172.2154 821.9532,-169.9488 865,-168 1273.1321,-149.5229 1769.242,-128.7405 1898.8156,-123.339"/>
<polygon fill="#191970" stroke="#191970" points="1899.0188,-126.8337 1908.8644,-122.9203 1898.7273,-119.8398 1899.0188,-126.8337"/>
</g>
<!-- Node31&#45;&gt;Node5 -->
<g id="edge37" class="edge">
<title>Node31&#45;&gt;Node5</title>
<path fill="none" stroke="#191970" d="M573.1499,-173.5957C462.0818,-166.8281 273.2175,-152.4726 249,-132 235.7936,-120.8358 231.4526,-101.1383 230.1708,-86.1594"/>
<polygon fill="#191970" stroke="#191970" points="233.6519,-85.6706 229.6906,-75.8442 226.6595,-85.9961 233.6519,-85.6706"/>
</g>
<!-- Node31&#45;&gt;Node9 -->
<g id="edge39" class="edge">
<title>Node31&#45;&gt;Node9</title>
<path fill="none" stroke="#191970" d="M654,-168.4862C654,-141.9293 654,-66.5651 654,-30.1655"/>
<polygon fill="#191970" stroke="#191970" points="657.5001,-29.8278 654,-19.8279 650.5001,-29.8279 657.5001,-29.8278"/>
</g>
<!-- Node31&#45;&gt;Node20 -->
<g id="edge38" class="edge">
<title>Node31&#45;&gt;Node20</title>
<path fill="none" stroke="#191970" d="M599.3536,-168.4369C543.6677,-158.6918 457.3325,-143.5832 398.3684,-133.2645"/>
<polygon fill="#191970" stroke="#191970" points="398.8746,-129.7999 388.421,-131.5237 397.6679,-136.6952 398.8746,-129.7999"/>
</g>
<!-- Node31&#45;&gt;Node32 -->
<g id="edge41" class="edge">
<title>Node31&#45;&gt;Node32</title>
<path fill="none" stroke="#191970" d="M573.2288,-169.9254C485.3077,-161.0407 340.5945,-146.1389 216,-132 202.5069,-130.4688 187.7772,-128.7023 174.5716,-127.0839"/>
<polygon fill="#191970" stroke="#191970" points="174.7135,-123.575 164.3604,-125.8252 173.857,-130.5224 174.7135,-123.575"/>
</g>
<!-- Node34 -->
<g id="node24" class="node">
<title>Node34</title>
<g id="a_node24"><a xlink:href="SpatialMotionVector_8h.html" target="_top" xlink:title="iDynTree/Core/SpatialMotion\lVector.h">
<polygon fill="none" stroke="#ff0000" points="591.5,-291.5 591.5,-321.5 746.5,-321.5 746.5,-291.5 591.5,-291.5"/>
<text text-anchor="start" x="599.5" y="-309.5" font-family="FreeSans.ttf" font-size="10.00" fill="#000000">iDynTree/Core/SpatialMotion</text>
<text text-anchor="middle" x="669" y="-298.5" font-family="FreeSans.ttf" font-size="10.00" fill="#000000">Vector.h</text>
</a>
</g>
</g>
<!-- Node33&#45;&gt;Node34 -->
<g id="edge49" class="edge">
<title>Node33&#45;&gt;Node34</title>
<path fill="none" stroke="#191970" d="M683.5643,-363.9005C681.4134,-355.4234 678.1814,-342.6856 675.3081,-331.3614"/>
<polygon fill="#191970" stroke="#191970" points="678.6634,-330.3538 672.8115,-321.5218 671.8784,-332.0754 678.6634,-330.3538"/>
</g>
<!-- Node34&#45;&gt;Node4 -->
<g id="edge50" class="edge">
<title>Node34&#45;&gt;Node4</title>
<path fill="none" stroke="#191970" d="M681.6542,-291.2058C698.0119,-272.4652 728.3023,-241.1023 761,-224 793.3831,-207.0622 832.0523,-196.2713 866.3148,-189.4379"/>
<polygon fill="#191970" stroke="#191970" points="867.1556,-192.8407 876.3221,-187.5279 865.8432,-185.9648 867.1556,-192.8407"/>
</g>
<!-- Node34&#45;&gt;Node29 -->
<g id="edge51" class="edge">
<title>Node34&#45;&gt;Node29</title>
<path fill="none" stroke="#191970" d="M746.642,-296.7218C844.886,-284.3489 1013.5344,-263.1094 1115.4099,-250.2792"/>
<polygon fill="#191970" stroke="#191970" points="1115.8757,-253.7483 1125.36,-249.0261 1115.001,-246.8031 1115.8757,-253.7483"/>
</g>
<!-- Node36&#45;&gt;Node34 -->
<g id="edge53" class="edge">
<title>Node36&#45;&gt;Node34</title>
<path fill="none" stroke="#191970" d="M552.4855,-363.9005C572.5023,-354.0393 604.2218,-338.4128 629.5142,-325.9526"/>
<polygon fill="#191970" stroke="#191970" points="631.0843,-329.0808 638.5081,-321.5218 627.9908,-322.8014 631.0843,-329.0808"/>
</g>
<!-- Node38 -->
<g id="node27" class="node">
<title>Node38</title>
<g id="a_node27"><a xlink:href="SpatialForceVector_8h.html" target="_top" xlink:title="iDynTree/Core/SpatialForce\lVector.h">
<polygon fill="none" stroke="#ff0000" points="992,-291.5 992,-321.5 1140,-321.5 1140,-291.5 992,-291.5"/>
<text text-anchor="start" x="1000" y="-309.5" font-family="FreeSans.ttf" font-size="10.00" fill="#000000">iDynTree/Core/SpatialForce</text>
<text text-anchor="middle" x="1066" y="-298.5" font-family="FreeSans.ttf" font-size="10.00" fill="#000000">Vector.h</text>
</a>
</g>
</g>
<!-- Node37&#45;&gt;Node38 -->
<g id="edge55" class="edge">
<title>Node37&#45;&gt;Node38</title>
<path fill="none" stroke="#191970" d="M1219.3537,-363.9005C1192.4303,-353.8231 1149.4211,-337.7247 1115.7927,-325.1375"/>
<polygon fill="#191970" stroke="#191970" points="1116.7252,-321.7494 1106.1328,-321.5218 1114.2713,-328.3052 1116.7252,-321.7494"/>
</g>
<!-- Node38&#45;&gt;Node4 -->
<g id="edge56" class="edge">
<title>Node38&#45;&gt;Node4</title>
<path fill="none" stroke="#191970" d="M1052.831,-291.2548C1032.0898,-267.2437 991.9293,-220.7515 970.0678,-195.4434"/>
<polygon fill="#191970" stroke="#191970" points="972.5956,-193.0154 963.4099,-187.7358 967.2982,-197.5913 972.5956,-193.0154"/>
</g>
<!-- Node38&#45;&gt;Node29 -->
<g id="edge57" class="edge">
<title>Node38&#45;&gt;Node29</title>
<path fill="none" stroke="#191970" d="M1096.2966,-291.4639C1119.152,-280.1209 1150.2829,-264.6707 1172.6494,-253.5703"/>
<polygon fill="#191970" stroke="#191970" points="1174.2473,-256.6847 1181.6488,-249.1039 1171.1353,-250.4144 1174.2473,-256.6847"/>
</g>
<!-- Node39&#45;&gt;Node2 -->
<g id="edge60" class="edge">
<title>Node39&#45;&gt;Node2</title>
<path fill="none" stroke="#191970" d="M1441.6406,-224.6781C1563.9851,-199.0076 1810.6659,-147.2487 1898.7949,-128.7573"/>
<polygon fill="#191970" stroke="#191970" points="1899.6692,-132.1502 1908.7373,-126.6712 1898.2317,-125.2994 1899.6692,-132.1502"/>
</g>
<!-- Node39&#45;&gt;Node31 -->
<g id="edge59" class="edge">
<title>Node39&#45;&gt;Node31</title>
<path fill="none" stroke="#191970" d="M1300.4353,-225.2131C1297.5907,-224.7773 1294.7707,-224.3703 1292,-224 1188.9054,-210.2218 895.0876,-191.978 744.8581,-183.1809"/>
<polygon fill="#191970" stroke="#191970" points="744.9212,-179.6787 734.7341,-182.5896 744.513,-186.6668 744.9212,-179.6787"/>
</g>
<!-- Node40&#45;&gt;Node4 -->
<g id="edge64" class="edge">
<title>Node40&#45;&gt;Node4</title>
<path fill="none" stroke="#191970" d="M1204.8746,-671.0169C1229.167,-635.0544 1310.9556,-507.962 1338,-389 1341.0543,-375.565 1345.4725,-369.5754 1338,-358 1277.6931,-264.5809 1210.4751,-302.632 1110,-255 1065.4112,-233.8618 1014.2427,-208.1562 983.2864,-192.4423"/>
<polygon fill="#191970" stroke="#191970" points="984.48,-189.1228 973.9798,-187.7099 981.3071,-195.3624 984.48,-189.1228"/>
</g>
<!-- Node41&#45;&gt;Node2 -->
<g id="edge68" class="edge">
<title>Node41&#45;&gt;Node2</title>
<path fill="none" stroke="#191970" d="M1809.0007,-425.4721C1857.8509,-418.1357 1913.6317,-406.289 1931,-389 1957.6667,-362.455 1950,-344.1265 1950,-306.5 1950,-306.5 1950,-306.5 1950,-239.5 1950,-204.6936 1941.7747,-164.8226 1936.1479,-141.6197"/>
<polygon fill="#191970" stroke="#191970" points="1939.477,-140.5065 1933.6419,-131.6633 1932.6887,-142.2152 1939.477,-140.5065"/>
</g>
<!-- Node41&#45;&gt;Node8 -->
<g id="edge67" class="edge">
<title>Node41&#45;&gt;Node8</title>
<path fill="none" stroke="#191970" d="M1719.0945,-425.1818C1691.325,-391.392 1594.1683,-278.9701 1488,-224 1287.2778,-120.0733 1017.3042,-83.4141 890.8748,-71.3939"/>
<polygon fill="#191970" stroke="#191970" points="890.8375,-67.8756 880.5572,-70.4377 890.1915,-74.8457 890.8375,-67.8756"/>
</g>
<!-- Node42&#45;&gt;Node4 -->
<g id="edge76" class="edge">
<title>Node42&#45;&gt;Node4</title>
<path fill="none" stroke="#191970" d="M848.2839,-425.4201C827.8179,-418.7945 806.1957,-407.6576 794,-389 786.4616,-377.4674 789.0837,-370.8708 794,-358 822.1159,-284.3927 895.7182,-221.8513 932.87,-193.7974"/>
<polygon fill="#191970" stroke="#191970" points="935.1102,-196.4936 941.0602,-187.7273 930.9421,-190.8698 935.1102,-196.4936"/>
</g>
<!-- Node42&#45;&gt;Node33 -->
<g id="edge77" class="edge">
<title>Node42&#45;&gt;Node33</title>
<path fill="none" stroke="#191970" d="M865.7188,-425.3906C828.8295,-414.7395 769.2243,-397.5296 728.8675,-385.8772"/>
<polygon fill="#191970" stroke="#191970" points="729.626,-382.4533 719.0475,-383.0419 727.6842,-389.1786 729.626,-382.4533"/>
</g>
<!-- Node42&#45;&gt;Node36 -->
<g id="edge80" class="edge">
<title>Node42&#45;&gt;Node36</title>
<path fill="none" stroke="#191970" d="M837.9294,-425.4976C780.5666,-416.4717 692.3717,-402.3361 616,-389 608.57,-387.7026 600.7738,-386.3005 593.0587,-384.8883"/>
<polygon fill="#191970" stroke="#191970" points="593.4697,-381.4052 583.0008,-383.034 592.2004,-388.2892 593.4697,-381.4052"/>
</g>
<!-- Node42&#45;&gt;Node37 -->
<g id="edge81" class="edge">
<title>Node42&#45;&gt;Node37</title>
<path fill="none" stroke="#191970" d="M958.089,-425.4992C1012.8557,-416.5592 1096.5541,-402.5552 1169,-389 1175.6699,-387.752 1182.6586,-386.3948 1189.5823,-385.0197"/>
<polygon fill="#191970" stroke="#191970" points="1190.5189,-388.4016 1199.635,-383.0028 1189.1418,-381.5383 1190.5189,-388.4016"/>
</g>
<!-- Node43 -->
<g id="node32" class="node">
<title>Node43</title>
<g id="a_node32"><a xlink:href="SpatialInertiaRaw_8h.html" target="_top" xlink:title="iDynTree/Core/SpatialInertia\lRaw.h">
<polygon fill="none" stroke="#ff0000" points="1007.5,-358.5 1007.5,-388.5 1160.5,-388.5 1160.5,-358.5 1007.5,-358.5"/>
<text text-anchor="start" x="1015.5" y="-376.5" font-family="FreeSans.ttf" font-size="10.00" fill="#000000">iDynTree/Core/SpatialInertia</text>
<text text-anchor="middle" x="1084" y="-365.5" font-family="FreeSans.ttf" font-size="10.00" fill="#000000">Raw.h</text>
</a>
</g>
</g>
<!-- Node42&#45;&gt;Node43 -->
<g id="edge75" class="edge">
<title>Node42&#45;&gt;Node43</title>
<path fill="none" stroke="#191970" d="M927.9063,-425.3906C954.9143,-416.4123 995.9415,-402.7735 1029.1569,-391.7316"/>
<polygon fill="#191970" stroke="#191970" points="1030.3586,-395.0205 1038.7439,-388.5446 1028.1504,-388.378 1030.3586,-395.0205"/>
</g>
<!-- Node45 -->
<g id="node33" class="node">
<title>Node45</title>
<g id="a_node33"><a xlink:href="SpatialMomentum_8h.html" target="_top" xlink:title="iDynTree/Core/SpatialMomentum.h">
<polygon fill="none" stroke="#000000" points="803,-364 803,-383 989,-383 989,-364 803,-364"/>
<text text-anchor="middle" x="896" y="-371" font-family="FreeSans.ttf" font-size="10.00" fill="#000000">iDynTree/Core/SpatialMomentum.h</text>
</a>
</g>
</g>
<!-- Node42&#45;&gt;Node45 -->
<g id="edge78" class="edge">
<title>Node42&#45;&gt;Node45</title>
<path fill="none" stroke="#191970" d="M898.5313,-425.3906C898.1154,-416.8657 897.4946,-404.1392 896.9719,-393.4235"/>
<polygon fill="#191970" stroke="#191970" points="900.4585,-393.0624 896.4754,-383.2449 893.4668,-393.4035 900.4585,-393.0624"/>
</g>
<!-- Node45&#45;&gt;Node38 -->
<g id="edge79" class="edge">
<title>Node45&#45;&gt;Node38</title>
<path fill="none" stroke="#191970" d="M920.3569,-363.9005C945.8168,-353.8663 986.4229,-337.8627 1018.2991,-325.2997"/>
<polygon fill="#191970" stroke="#191970" points="1019.8649,-328.4447 1027.8851,-321.5218 1017.2982,-321.9323 1019.8649,-328.4447"/>
</g>
<!-- Node46&#45;&gt;Node4 -->
<g id="edge87" class="edge">
<title>Node46&#45;&gt;Node4</title>
<path fill="none" stroke="#191970" d="M529.2124,-486.9963C498.789,-479.7022 463.0046,-466.9852 437,-445 405.7657,-418.5934 384.5577,-392.194 407,-358 489.1352,-232.8556 572.9801,-268.1883 716,-224 767.5282,-208.0796 827.0847,-196.5997 873.8555,-189.0899"/>
<polygon fill="#191970" stroke="#191970" points="874.6033,-192.5153 883.9363,-187.5007 873.5132,-185.6007 874.6033,-192.5153"/>
</g>
<!-- Node46&#45;&gt;Node5 -->
<g id="edge93" class="edge">
<title>Node46&#45;&gt;Node5</title>
<path fill="none" stroke="#191970" d="M516.3709,-486.9654C453.8637,-477.847 369.8529,-462.8646 341,-445 215.6191,-367.3691 222.5681,-152.6493 227.9918,-85.9989"/>
<polygon fill="#191970" stroke="#191970" points="231.512,-85.9303 228.9232,-75.6567 224.5402,-85.3024 231.512,-85.9303"/>
</g>
<!-- Node46&#45;&gt;Node6 -->
<g id="edge84" class="edge">
<title>Node46&#45;&gt;Node6</title>
<path fill="none" stroke="#191970" d="M670.7966,-487.3085C751.5213,-477.8342 879.0893,-462.0735 989,-445 1038.1015,-437.3726 1050.0285,-433.4218 1099,-425 1197.5094,-408.0589 1232.3702,-435.2155 1321,-389 1394.5748,-350.6348 1416.8761,-330.6353 1451,-255 1485.7881,-177.8927 1478.0851,-73.2532 1472.8432,-29.988"/>
<polygon fill="#191970" stroke="#191970" points="1476.2944,-29.3856 1471.529,-19.923 1469.3533,-30.292 1476.2944,-29.3856"/>
</g>
<!-- Node46&#45;&gt;Node19 -->
<g id="edge88" class="edge">
<title>Node46&#45;&gt;Node19</title>
<path fill="none" stroke="#191970" d="M670.7415,-488.2378C781.4809,-476.9059 980.0637,-456.585 1097.2437,-444.594"/>
<polygon fill="#191970" stroke="#191970" points="1097.6862,-448.0671 1107.278,-443.5672 1096.9736,-441.1035 1097.6862,-448.0671"/>
</g>
<!-- Node46&#45;&gt;Node25 -->
<g id="edge92" class="edge">
<title>Node46&#45;&gt;Node25</title>
<path fill="none" stroke="#191970" d="M670.5953,-493.4987C919.6024,-484.1751 1668.4428,-455.7389 1818.5822,-445.0026"/>
<polygon fill="#191970" stroke="#191970" points="1819.0069,-448.4804 1828.7119,-444.2304 1818.4747,-441.5007 1819.0069,-448.4804"/>
</g>
<!-- Node46&#45;&gt;Node31 -->
<g id="edge89" class="edge">
<title>Node46&#45;&gt;Node31</title>
<path fill="none" stroke="#191970" d="M517.6299,-486.9726C461.3151,-478.283 388.9955,-463.9192 366,-445 289.1499,-381.7729 264.7639,-299.1522 330,-224 345.2116,-206.4762 472.9665,-192.5844 563.4223,-184.8259"/>
<polygon fill="#191970" stroke="#191970" points="563.7606,-188.3098 573.43,-183.9793 563.1706,-181.3347 563.7606,-188.3098"/>
</g>
<!-- Node46&#45;&gt;Node34 -->
<g id="edge90" class="edge">
<title>Node46&#45;&gt;Node34</title>
<path fill="none" stroke="#191970" d="M584.5916,-486.6336C575.6508,-471.2278 556.3341,-441.5169 532,-425 487.6867,-394.9221 448.713,-432.1582 417,-389 408.8417,-377.8974 408.2874,-368.6732 417,-358 437.639,-332.7165 516.8741,-319.5156 581.0574,-312.8424"/>
<polygon fill="#191970" stroke="#191970" points="581.6158,-316.3041 591.218,-311.8266 580.9193,-309.3388 581.6158,-316.3041"/>
</g>
<!-- Node46&#45;&gt;Node38 -->
<g id="edge91" class="edge">
<title>Node46&#45;&gt;Node38</title>
<path fill="none" stroke="#191970" d="M588.0798,-486.7015C584.5782,-471.3887 575.7206,-441.8031 557,-425 519.6601,-391.4849 479.2808,-429.7451 450,-389 441.9597,-377.8116 440.6723,-368.1401 450,-358 467.7468,-338.7076 817.3133,-318.8611 981.7932,-310.5471"/>
<polygon fill="#191970" stroke="#191970" points="982.0647,-314.038 991.8763,-310.0402 981.7131,-307.0468 982.0647,-314.038"/>
</g>
<!-- Node46&#45;&gt;Node41 -->
<g id="edge86" class="edge">
<title>Node46&#45;&gt;Node41</title>
<path fill="none" stroke="#191970" d="M670.8587,-492.1264C875.8675,-481.0375 1415.1321,-451.8688 1633.346,-440.0657"/>
<polygon fill="#191970" stroke="#191970" points="1633.6955,-443.552 1643.4918,-439.5169 1633.3174,-436.5622 1633.6955,-443.552"/>
</g>
<!-- Node47 -->
<g id="node35" class="node">
<title>Node47</title>
<polygon fill="none" stroke="#bfbfbf" points="446.5,-425.5 446.5,-444.5 523.5,-444.5 523.5,-425.5 446.5,-425.5"/>
<text text-anchor="middle" x="485" y="-432.5" font-family="FreeSans.ttf" font-size="10.00" fill="#000000">Eigen/Dense</text>
</g>
<!-- Node46&#45;&gt;Node47 -->
<g id="edge85" class="edge">
<title>Node46&#45;&gt;Node47</title>
<path fill="none" stroke="#191970" d="M573.5938,-486.8906C556.5647,-476.9165 529.7159,-461.1908 510.0349,-449.6633"/>
<polygon fill="#191970" stroke="#191970" points="511.6888,-446.5759 501.291,-444.5419 508.151,-452.6161 511.6888,-446.5759"/>
</g>
<!-- Node48&#45;&gt;Node3 -->
<g id="edge109" class="edge">
<title>Node48&#45;&gt;Node3</title>
<path fill="none" stroke="#191970" d="M2871.3584,-561.3803C2694.1148,-555.4247 2220.0787,-537.3093 2154,-512 2145.0204,-508.5606 2101.2591,-472.771 2075.3493,-451.2162"/>
<polygon fill="#191970" stroke="#191970" points="2077.5518,-448.4957 2067.631,-444.7772 2073.0676,-453.8708 2077.5518,-448.4957"/>
</g>
<!-- Node48&#45;&gt;Node21 -->
<g id="edge101" class="edge">
<title>Node48&#45;&gt;Node21</title>
<path fill="none" stroke="#191970" d="M2947.8077,-553.9049C2962.7843,-538.0502 2988.105,-505.684 2973,-481 2963.6591,-465.7354 2947.4772,-455.3326 2931.3874,-448.3404"/>
<polygon fill="#191970" stroke="#191970" points="2932.5629,-445.0414 2921.977,-444.6067 2929.9813,-451.548 2932.5629,-445.0414"/>
</g>
<!-- Node48&#45;&gt;Node25 -->
<g id="edge100" class="edge">
<title>Node48&#45;&gt;Node25</title>
<path fill="none" stroke="#191970" d="M2871.3468,-561.8434C2701.51,-557.2228 2255.725,-542.4829 2111,-512 2044.5487,-498.0036 1970.9133,-466.974 1931.2226,-448.8677"/>
<polygon fill="#191970" stroke="#191970" points="1932.4346,-445.5723 1921.8881,-444.561 1929.502,-451.9285 1932.4346,-445.5723"/>
</g>
<!-- Node49 -->
<g id="node37" class="node">
<title>Node49</title>
<g id="a_node37"><a xlink:href="IJoint_8h.html" target="_top" xlink:title="iDynTree/Model/IJoint.h">
<polygon fill="none" stroke="#000000" points="3025,-487 3025,-506 3153,-506 3153,-487 3025,-487"/>
<text text-anchor="middle" x="3089" y="-494" font-family="FreeSans.ttf" font-size="10.00" fill="#000000">iDynTree/Model/IJoint.h</text>
</a>
</g>
</g>
<!-- Node48&#45;&gt;Node49 -->
<g id="edge95" class="edge">
<title>Node48&#45;&gt;Node49</title>
<path fill="none" stroke="#191970" d="M2959.6346,-553.9005C2985.4243,-542.4574 3028.7106,-523.2509 3058.0397,-510.2374"/>
<polygon fill="#191970" stroke="#191970" points="3059.6844,-513.3367 3067.4055,-506.0817 3056.8454,-506.9383 3059.6844,-513.3367"/>
</g>
<!-- Node50 -->
<g id="node38" class="node">
<title>Node50</title>
<g id="a_node38"><a xlink:href="Link_8h.html" target="_top" xlink:title="iDynTree/Model/Link.h">
<polygon fill="none" stroke="#000000" points="2163,-487 2163,-506 2287,-506 2287,-487 2163,-487"/>
<text text-anchor="middle" x="2225" y="-494" font-family="FreeSans.ttf" font-size="10.00" fill="#000000">iDynTree/Model/Link.h</text>
</a>
</g>
</g>
<!-- Node48&#45;&gt;Node50 -->
<g id="edge97" class="edge">
<title>Node48&#45;&gt;Node50</title>
<path fill="none" stroke="#191970" d="M2871.1198,-561.1072C2754.0225,-556.2566 2504.4854,-542.9749 2296,-512 2288.8788,-510.942 2281.4046,-509.5855 2274.0886,-508.1162"/>
<polygon fill="#191970" stroke="#191970" points="2274.7631,-504.6816 2264.2583,-506.0601 2273.3299,-511.5334 2274.7631,-504.6816"/>
</g>
<!-- Node51 -->
<g id="node39" class="node">
<title>Node51</title>
<g id="a_node39"><a xlink:href="SolidShapes_8h.html" target="_top" xlink:title="iDynTree/Model/SolidShapes.h">
<polygon fill="none" stroke="#000000" points="2653.5,-487 2653.5,-506 2816.5,-506 2816.5,-487 2653.5,-487"/>
<text text-anchor="middle" x="2735" y="-494" font-family="FreeSans.ttf" font-size="10.00" fill="#000000">iDynTree/Model/SolidShapes.h</text>
</a>
</g>
</g>
<!-- Node48&#45;&gt;Node51 -->
<g id="edge102" class="edge">
<title>Node48&#45;&gt;Node51</title>
<path fill="none" stroke="#191970" d="M2908.915,-553.9005C2873.3396,-542.1589 2812.9992,-522.2436 2773.5755,-509.2318"/>
<polygon fill="#191970" stroke="#191970" points="2774.6241,-505.8923 2764.031,-506.0817 2772.4302,-512.5396 2774.6241,-505.8923"/>
</g>
<!-- Node52 -->
<g id="node40" class="node">
<title>Node52</title>
<polygon fill="none" stroke="#bfbfbf" points="3082.5,-425.5 3082.5,-444.5 3131.5,-444.5 3131.5,-425.5 3082.5,-425.5"/>
<text text-anchor="middle" x="3107" y="-432.5" font-family="FreeSans.ttf" font-size="10.00" fill="#000000">cstdlib</text>
</g>
<!-- Node48&#45;&gt;Node52 -->
<g id="edge108" class="edge">
<title>Node48&#45;&gt;Node52</title>
<path fill="none" stroke="#191970" d="M3004.6796,-557.2447C3063.4213,-550.1913 3142.5823,-536.3887 3162,-512 3170.5818,-501.2213 3167.8328,-493.4822 3162,-481 3156.0537,-468.2749 3144.6642,-457.8307 3133.785,-450.129"/>
<polygon fill="#191970" stroke="#191970" points="3135.564,-447.1101 3125.2833,-444.5491 3131.723,-452.9622 3135.564,-447.1101"/>
</g>
<!-- Node49&#45;&gt;Node21 -->
<g id="edge96" class="edge">
<title>Node49&#45;&gt;Node21</title>
<path fill="none" stroke="#191970" d="M3056.8125,-486.8906C3021.2867,-476.2846 2963.9774,-459.1753 2924.9559,-447.5257"/>
<polygon fill="#191970" stroke="#191970" points="2925.5448,-444.0489 2914.9615,-444.5419 2923.5423,-450.7564 2925.5448,-444.0489"/>
</g>
<!-- Node50&#45;&gt;Node21 -->
<g id="edge99" class="edge">
<title>Node50&#45;&gt;Node21</title>
<path fill="none" stroke="#191970" d="M2264.2564,-486.9268C2274.535,-484.6964 2285.6404,-482.5294 2296,-481 2476.439,-454.3618 2690.5118,-442.5101 2803.6768,-437.7736"/>
<polygon fill="#191970" stroke="#191970" points="2804.1284,-441.2581 2813.9763,-437.3506 2803.841,-434.264 2804.1284,-441.2581"/>
</g>
<!-- Node50&#45;&gt;Node42 -->
<g id="edge98" class="edge">
<title>Node50&#45;&gt;Node42</title>
<path fill="none" stroke="#191970" d="M2162.7419,-493.7456C1992.4483,-486.1913 1504.5933,-464.4151 1099,-445 1063.5959,-443.3053 1024.6702,-441.3743 990.6432,-439.6641"/>
<polygon fill="#191970" stroke="#191970" points="990.413,-436.1482 980.2496,-439.141 990.061,-443.1394 990.413,-436.1482"/>
</g>
<!-- Node51&#45;&gt;Node2 -->
<g id="edge104" class="edge">
<title>Node51&#45;&gt;Node2</title>
<path fill="none" stroke="#191970" d="M2681.9038,-486.9725C2592.6035,-469.4226 2422,-428.6743 2422,-373.5 2422,-373.5 2422,-373.5 2422,-239.5 2422,-144.8138 2072.2708,-126.2587 1963.1318,-122.7736"/>
<polygon fill="#191970" stroke="#191970" points="1963.1509,-119.2727 1953.0511,-122.4733 1962.9424,-126.2696 1963.1509,-119.2727"/>
</g>
<!-- Node51&#45;&gt;Node3 -->
<g id="edge105" class="edge">
<title>Node51&#45;&gt;Node3</title>
<path fill="none" stroke="#191970" d="M2684.1031,-486.9938C2671.0649,-484.789 2657.0415,-482.6174 2644,-481 2434.0583,-454.9627 2180.0083,-440.9913 2089.7811,-436.5689"/>
<polygon fill="#191970" stroke="#191970" points="2089.7613,-433.0639 2079.6039,-436.0767 2089.4231,-440.0558 2089.7613,-433.0639"/>
</g>
<!-- Node51&#45;&gt;Node21 -->
<g id="edge107" class="edge">
<title>Node51&#45;&gt;Node21</title>
<path fill="none" stroke="#191970" d="M2758.125,-486.8906C2782.9967,-476.5554 2822.7298,-460.0447 2850.6844,-448.4284"/>
<polygon fill="#191970" stroke="#191970" points="2852.146,-451.6113 2860.0374,-444.5419 2849.4598,-445.1472 2852.146,-451.6113"/>
</g>
<!-- Node51&#45;&gt;Node25 -->
<g id="edge106" class="edge">
<title>Node51&#45;&gt;Node25</title>
<path fill="none" stroke="#191970" d="M2685.077,-486.9734C2671.771,-484.715 2657.3756,-482.5227 2644,-481 2369.7518,-449.7788 2299.3458,-464.2758 2024,-445 2011.5377,-444.1276 1998.3658,-443.1285 1985.4674,-442.107"/>
<polygon fill="#191970" stroke="#191970" points="1985.4479,-438.5943 1975.2004,-441.2849 1984.8892,-445.572 1985.4479,-438.5943"/>
</g>
<!-- Node51&#45;&gt;Node52 -->
<g id="edge103" class="edge">
<title>Node51&#45;&gt;Node52</title>
<path fill="none" stroke="#191970" d="M2792.7168,-486.9581C2871.0098,-474.0145 3008.428,-451.2962 3072.4082,-440.7188"/>
<polygon fill="#191970" stroke="#191970" points="3073.0928,-444.1532 3082.3879,-439.0689 3071.9509,-437.247 3073.0928,-444.1532"/>
</g>
<!-- Node53&#45;&gt;Node3 -->
<g id="edge112" class="edge">
<title>Node53&#45;&gt;Node3</title>
<path fill="none" stroke="#191970" d="M2513.2637,-486.9432C2501.746,-484.8152 2489.4563,-482.6916 2478,-481 2334.4508,-459.8039 2162.0855,-444.0016 2090.1438,-437.8345"/>
<polygon fill="#191970" stroke="#191970" points="2090.1364,-434.3213 2079.8759,-436.9614 2089.5434,-441.2961 2090.1364,-434.3213"/>
</g>
<!-- Node53&#45;&gt;Node21 -->
<g id="edge111" class="edge">
<title>Node53&#45;&gt;Node21</title>
<path fill="none" stroke="#191970" d="M2610.9592,-486.9581C2668.2706,-476.012 2762.1834,-458.0752 2823.2986,-446.4026"/>
<polygon fill="#191970" stroke="#191970" points="2824.0227,-449.8276 2833.1885,-444.5137 2822.7094,-442.9519 2824.0227,-449.8276"/>
</g>
<!-- Node54&#45;&gt;Node3 -->
<g id="edge124" class="edge">
<title>Node54&#45;&gt;Node3</title>
<path fill="none" stroke="#191970" d="M1749.2115,-553.9303C1799.299,-546.179 1865.3531,-533.0187 1921,-512 1963.4488,-495.9664 2008.3852,-467.7694 2034.2223,-450.309"/>
<polygon fill="#191970" stroke="#191970" points="2036.2575,-453.1574 2042.5293,-444.6184 2032.3014,-447.3825 2036.2575,-453.1574"/>
</g>
<!-- Node54&#45;&gt;Node21 -->
<g id="edge117" class="edge">
<title>Node54&#45;&gt;Node21</title>
<path fill="none" stroke="#191970" d="M1749.0063,-563.162C2011.4971,-561.6367 2857.2004,-553.508 2897,-512 2911.7785,-496.5872 2903.1361,-471.0795 2894.2591,-453.6798"/>
<polygon fill="#191970" stroke="#191970" points="2897.0873,-451.5621 2889.1807,-444.5097 2890.9636,-454.9534 2897.0873,-451.5621"/>
</g>
<!-- Node54&#45;&gt;Node24 -->
<g id="edge118" class="edge">
<title>Node54&#45;&gt;Node24</title>
<path fill="none" stroke="#191970" d="M1621.0568,-548.4639C1580.6187,-536.5284 1524.7738,-520.0456 1486.9027,-508.8678"/>
<polygon fill="#191970" stroke="#191970" points="1487.7863,-505.4793 1477.2045,-506.0053 1485.8046,-512.193 1487.7863,-505.4793"/>
</g>
<!-- Node54&#45;&gt;Node25 -->
<g id="edge114" class="edge">
<title>Node54&#45;&gt;Node25</title>
<path fill="none" stroke="#191970" d="M1699.2872,-548.2548C1743.9634,-523.2944 1832.1227,-474.0402 1875.9686,-449.5437"/>
<polygon fill="#191970" stroke="#191970" points="1877.8469,-452.5035 1884.8698,-444.5706 1874.4327,-446.3925 1877.8469,-452.5035"/>
</g>
<!-- Node54&#45;&gt;Node33 -->
<g id="edge115" class="edge">
<title>Node54&#45;&gt;Node33</title>
<path fill="none" stroke="#191970" d="M1594.9573,-551.0593C1586.5482,-549.9202 1578.1032,-548.8699 1570,-548 1317.612,-520.9061 1250.2093,-554.7679 1000,-512 892.1033,-493.5574 858.4279,-498.6223 763,-445 738.0808,-430.9975 714.8201,-407.3506 700.5229,-391.1107"/>
<polygon fill="#191970" stroke="#191970" points="703.0666,-388.7002 693.9021,-383.3839 697.751,-393.2549 703.0666,-388.7002"/>
</g>
<!-- Node54&#45;&gt;Node41 -->
<g id="edge116" class="edge">
<title>Node54&#45;&gt;Node41</title>
<path fill="none" stroke="#191970" d="M1680.172,-548.3819C1685.5267,-538.2267 1692.5222,-524.4715 1698,-512 1706.4947,-492.6598 1714.852,-469.9707 1720.3962,-454.2547"/>
<polygon fill="#191970" stroke="#191970" points="1723.7696,-455.2101 1723.7522,-444.6153 1717.1588,-452.9085 1723.7696,-455.2101"/>
</g>
<!-- Node55 -->
<g id="node43" class="node">
<title>Node55</title>
<g id="a_node43"><a xlink:href="JointState_8h.html" target="_top" xlink:title="iDynTree/Model/JointState.h">
<polygon fill="none" stroke="#000000" points="1537.5,-487 1537.5,-506 1688.5,-506 1688.5,-487 1537.5,-487"/>
<text text-anchor="middle" x="1613" y="-494" font-family="FreeSans.ttf" font-size="10.00" fill="#000000">iDynTree/Model/JointState.h</text>
</a>
</g>
</g>
<!-- Node54&#45;&gt;Node55 -->
<g id="edge119" class="edge">
<title>Node54&#45;&gt;Node55</title>
<path fill="none" stroke="#191970" d="M1658.612,-548.2967C1649.598,-538.0605 1637.6889,-524.5366 1628.3,-513.8746"/>
<polygon fill="#191970" stroke="#191970" points="1630.6496,-511.2468 1621.4141,-506.055 1625.3962,-515.873 1630.6496,-511.2468"/>
</g>
<!-- Node55&#45;&gt;Node3 -->
<g id="edge123" class="edge">
<title>Node55&#45;&gt;Node3</title>
<path fill="none" stroke="#191970" d="M1681.7194,-486.9623C1756.1925,-476.6257 1878.5296,-459.6447 1984,-445 1996.4717,-443.2683 2010.1586,-441.3674 2022.219,-439.6923"/>
<polygon fill="#191970" stroke="#191970" points="2022.9041,-443.1309 2032.3275,-438.2883 2021.941,-436.1974 2022.9041,-443.1309"/>
</g>
<!-- Node55&#45;&gt;Node4 -->
<g id="edge120" class="edge">
<title>Node55&#45;&gt;Node4</title>
<path fill="none" stroke="#191970" d="M1611.2829,-486.8146C1603.1125,-444.175 1563.7754,-273.1228 1451,-224 1380.5337,-193.3062 1168.7929,-183.0593 1045.9379,-179.6628"/>
<polygon fill="#191970" stroke="#191970" points="1045.8822,-176.1602 1035.7925,-179.3923 1045.6956,-183.1577 1045.8822,-176.1602"/>
</g>
<!-- Node55&#45;&gt;Node38 -->
<g id="edge122" class="edge">
<title>Node55&#45;&gt;Node38</title>
<path fill="none" stroke="#191970" d="M1598.8521,-486.8396C1560.9928,-461.4668 1453.4767,-392.5189 1354,-358 1287.5689,-334.9481 1208.7646,-321.7675 1150.3962,-314.5231"/>
<polygon fill="#191970" stroke="#191970" points="1150.4581,-311.0052 1140.1107,-313.2815 1149.6192,-317.9548 1150.4581,-311.0052"/>
</g>
<!-- Node55&#45;&gt;Node41 -->
<g id="edge121" class="edge">
<title>Node55&#45;&gt;Node41</title>
<path fill="none" stroke="#191970" d="M1630.8125,-486.8906C1649.4685,-476.8262 1678.9797,-460.9057 1700.3974,-449.3514"/>
<polygon fill="#191970" stroke="#191970" points="1702.1734,-452.3702 1709.3126,-444.5419 1698.8498,-446.2095 1702.1734,-452.3702"/>
</g>
<!-- Node56&#45;&gt;Node3 -->
<g id="edge127" class="edge">
<title>Node56&#45;&gt;Node3</title>
<path fill="none" stroke="#191970" d="M2306.0283,-481.4554C2236.7,-468.5742 2140.3204,-450.6668 2089.8681,-441.2927"/>
<polygon fill="#191970" stroke="#191970" points="2090.2966,-437.8125 2079.8255,-439.4268 2089.0178,-444.6947 2090.2966,-437.8125"/>
</g>
<!-- Node56&#45;&gt;Node21 -->
<g id="edge128" class="edge">
<title>Node56&#45;&gt;Node21</title>
<path fill="none" stroke="#191970" d="M2469.3078,-482.2696C2472.2395,-481.8299 2475.1439,-481.4051 2478,-481 2590.8253,-464.9965 2721.9615,-450.925 2803.7285,-442.6872"/>
<polygon fill="#191970" stroke="#191970" points="2804.0965,-446.168 2813.6972,-441.6872 2803.3978,-439.2029 2804.0965,-446.168"/>
</g>
<!-- Node57&#45;&gt;Node21 -->
<g id="edge130" class="edge">
<title>Node57&#45;&gt;Node21</title>
<path fill="none" stroke="#191970" d="M3080.3056,-615.3928C3116.5677,-591.4883 3201.7875,-527.8846 3162,-481 3149.0993,-465.7981 3040.2161,-451.3657 2962.3654,-442.848"/>
<polygon fill="#191970" stroke="#191970" points="2962.3966,-439.3311 2952.0786,-441.737 2961.6449,-446.2906 2962.3966,-439.3311"/>
</g>
<!-- Node58&#45;&gt;Node19 -->
<g id="edge132" class="edge">
<title>Node58&#45;&gt;Node19</title>
<path fill="none" stroke="#191970" d="M1461.341,-553.8125C1436.5168,-543.5968 1396.3982,-526.9428 1362,-512 1312.3973,-490.4524 1255.173,-464.4501 1221.1,-448.8453"/>
<polygon fill="#191970" stroke="#191970" points="1222.2648,-445.5291 1211.716,-444.5424 1219.3471,-451.8921 1222.2648,-445.5291"/>
</g>
<!-- Node58&#45;&gt;Node21 -->
<g id="edge133" class="edge">
<title>Node58&#45;&gt;Node21</title>
<path fill="none" stroke="#191970" d="M1538.8376,-553.9728C1554.0407,-551.6272 1570.629,-549.3914 1586,-548 1656.4624,-541.6217 2802.6109,-554.7305 2859,-512 2876.5597,-498.6936 2881.6005,-472.6564 2882.8778,-454.5643"/>
<polygon fill="#191970" stroke="#191970" points="2886.3774,-454.6383 2883.265,-444.511 2879.3826,-454.3688 2886.3774,-454.6383"/>
</g>
<!-- Node58&#45;&gt;Node24 -->
<g id="edge134" class="edge">
<title>Node58&#45;&gt;Node24</title>
<path fill="none" stroke="#191970" d="M1479.269,-553.9005C1473.2095,-543.751 1463.5039,-527.4941 1455.9659,-514.8679"/>
<polygon fill="#191970" stroke="#191970" points="1458.8517,-512.8737 1450.7204,-506.0817 1452.8414,-516.462 1458.8517,-512.8737"/>
</g>
<!-- Node58&#45;&gt;Node55 -->
<g id="edge135" class="edge">
<title>Node58&#45;&gt;Node55</title>
<path fill="none" stroke="#191970" d="M1503.3393,-553.9005C1524.9156,-542.6067 1560.9391,-523.7506 1585.7766,-510.7497"/>
<polygon fill="#191970" stroke="#191970" points="1587.4582,-513.8201 1594.6947,-506.0817 1584.2119,-507.6183 1587.4582,-513.8201"/>
</g>
<!-- Node59&#45;&gt;Node21 -->
<g id="edge137" class="edge">
<title>Node59&#45;&gt;Node21</title>
<path fill="none" stroke="#191970" d="M3255.0365,-615.3099C3249.128,-588.8589 3228.8829,-515.1236 3181,-481 3146.7797,-456.613 3038.2834,-444.7223 2962.1287,-439.2454"/>
<polygon fill="#191970" stroke="#191970" points="2962.2952,-435.7487 2952.0764,-438.546 2961.8092,-442.7318 2962.2952,-435.7487"/>
</g>
<!-- Node60&#45;&gt;Node2 -->
<g id="edge147" class="edge">
<title>Node60&#45;&gt;Node2</title>
<path fill="none" stroke="#191970" d="M2438.2064,-675.7824C2576.1552,-666.0256 2850.4184,-640.1804 3075,-579 3201.7009,-544.4842 3333,-566.3181 3333,-435 3333,-435 3333,-435 3333,-239.5 3333,-197.7706 3688.3792,-243.1811 2974,-168 2770.9029,-146.6261 2117.2124,-127.2386 1963.5551,-122.9016"/>
<polygon fill="#191970" stroke="#191970" points="1963.4633,-119.3977 1953.3689,-122.6155 1963.2667,-126.3949 1963.4633,-119.3977"/>
</g>
<!-- Node60&#45;&gt;Node3 -->
<g id="edge148" class="edge">
<title>Node60&#45;&gt;Node3</title>
<path fill="none" stroke="#191970" d="M2318.955,-671.4657C2260.9831,-651.909 2136.8299,-601.4 2078,-512 2066.5743,-494.6371 2060.9906,-471.2937 2058.3223,-454.8761"/>
<polygon fill="#191970" stroke="#191970" points="2061.7606,-454.1918 2056.9048,-444.7753 2054.8286,-455.1647 2061.7606,-454.1918"/>
</g>
<!-- Node60&#45;&gt;Node48 -->
<g id="edge139" class="edge">
<title>Node60&#45;&gt;Node48</title>
<path fill="none" stroke="#191970" d="M2397.6204,-671.484C2504.7067,-650.085 2764.1931,-598.2318 2880.239,-575.0424"/>
<polygon fill="#191970" stroke="#191970" points="2881.2258,-578.4145 2890.3461,-573.0227 2879.8541,-571.5502 2881.2258,-578.4145"/>
</g>
<!-- Node61 -->
<g id="node49" class="node">
<title>Node61</title>
<g id="a_node49"><a xlink:href="Sensors_8h.html" target="_top" xlink:title="iDynTree/Sensors/Sensors.h">
<polygon fill="none" stroke="#ff0000" points="2274.5,-615.5 2274.5,-634.5 2425.5,-634.5 2425.5,-615.5 2274.5,-615.5"/>
<text text-anchor="middle" x="2350" y="-622.5" font-family="FreeSans.ttf" font-size="10.00" fill="#000000">iDynTree/Sensors/Sensors.h</text>
</a>
</g>
</g>
<!-- Node60&#45;&gt;Node61 -->
<g id="edge140" class="edge">
<title>Node60&#45;&gt;Node61</title>
<path fill="none" stroke="#191970" d="M2350,-671.2455C2350,-663.9382 2350,-653.6944 2350,-644.7046"/>
<polygon fill="#191970" stroke="#191970" points="2353.5001,-644.6426 2350,-634.6427 2346.5001,-644.6427 2353.5001,-644.6426"/>
</g>
<!-- Node61&#45;&gt;Node2 -->
<g id="edge142" class="edge">
<title>Node61&#45;&gt;Node2</title>
<path fill="none" stroke="#191970" d="M2425.5798,-622.7846C2575.1789,-617.9036 2904.0524,-604.5702 3014,-579 3090.6903,-561.1644 3108.3417,-548.7045 3178,-512 3233.0731,-482.9808 3295,-497.2508 3295,-435 3295,-435 3295,-435 3295,-239.5 3295,-170.4337 2170.261,-129.9121 1963.4635,-123.0454"/>
<polygon fill="#191970" stroke="#191970" points="1963.3662,-119.5404 1953.2564,-122.7092 1963.1357,-126.5366 1963.3662,-119.5404"/>
</g>
<!-- Node61&#45;&gt;Node3 -->
<g id="edge143" class="edge">
<title>Node61&#45;&gt;Node3</title>
<path fill="none" stroke="#191970" d="M2316.0804,-615.3861C2266.3379,-599.9918 2172.6241,-565.9389 2109,-512 2089.7528,-495.6827 2074.3346,-470.7821 2065.1942,-453.7437"/>
<polygon fill="#191970" stroke="#191970" points="2068.2487,-452.0303 2060.5565,-444.7446 2062.0264,-455.237 2068.2487,-452.0303"/>
</g>
<!-- Node61&#45;&gt;Node21 -->
<g id="edge146" class="edge">
<title>Node61&#45;&gt;Node21</title>
<path fill="none" stroke="#191970" d="M2425.6433,-621.3136C2564.871,-612.7747 2853.0751,-586.3423 2914,-512 2928.3124,-494.5356 2913.4915,-469.6041 2899.8384,-452.8887"/>
<polygon fill="#191970" stroke="#191970" points="2902.1667,-450.2321 2892.9655,-444.9796 2896.8829,-454.8236 2902.1667,-450.2321"/>
</g>
<!-- Node61&#45;&gt;Node29 -->
<g id="edge141" class="edge">
<title>Node61&#45;&gt;Node29</title>
<path fill="none" stroke="#191970" d="M2274.1443,-623.3151C2055.4684,-618.1956 1437.0037,-601.7701 1400,-579 1360.2138,-554.5177 1347.3824,-525.3694 1362,-481 1377.9101,-432.7076 1414.0899,-437.2924 1430,-389 1443.6289,-347.6317 1457.2107,-325.0098 1430,-291 1424.6198,-284.2754 1326.4628,-263.9703 1260.4214,-250.9557"/>
<polygon fill="#191970" stroke="#191970" points="1261.0086,-247.5043 1250.5216,-249.0119 1259.6599,-254.3731 1261.0086,-247.5043"/>
</g>
<!-- Node61&#45;&gt;Node41 -->
<g id="edge144" class="edge">
<title>Node61&#45;&gt;Node41</title>
<path fill="none" stroke="#191970" d="M2305.9577,-615.4343C2267.273,-606.7718 2209.5884,-593.2216 2160,-579 2010.9016,-536.2397 1836.591,-474.6561 1762.8457,-448.0535"/>
<polygon fill="#191970" stroke="#191970" points="1763.7147,-444.646 1753.1205,-444.5375 1761.3347,-451.229 1763.7147,-444.646"/>
</g>
<!-- Node61&#45;&gt;Node48 -->
<g id="edge145" class="edge">
<title>Node61&#45;&gt;Node48</title>
<path fill="none" stroke="#191970" d="M2425.857,-620.4595C2525.2207,-613.9767 2704.7145,-600.4258 2857,-579 2865.2543,-577.8387 2873.9434,-576.4039 2882.4427,-574.8802"/>
<polygon fill="#191970" stroke="#191970" points="2883.097,-578.3186 2892.2956,-573.0616 2881.8264,-571.4349 2883.097,-578.3186"/>
</g>
</g>
</svg>
