<?xml version="1.0" encoding="UTF-8" standalone="no"?>
<!DOCTYPE svg PUBLIC "-//W3C//DTD SVG 1.1//EN"
 "http://www.w3.org/Graphics/SVG/1.1/DTD/svg11.dtd">
<!-- Generated by graphviz version 2.40.1 (20161225.0304)
 -->
<!-- Title: L2NormCost.h Pages: 1 -->
<svg width="1230pt" height="532pt"
 viewBox="0.00 0.00 1230.00 532.00" xmlns="http://www.w3.org/2000/svg" xmlns:xlink="http://www.w3.org/1999/xlink">
<g id="graph0" class="graph" transform="scale(1 1) rotate(0) translate(4 528)">
<title>L2NormCost.h</title>
<!-- Node0 -->
<g id="node1" class="node">
<title>Node0</title>
<polygon fill="#bfbfbf" stroke="#000000" points="372,-504.5 372,-523.5 458,-523.5 458,-504.5 372,-504.5"/>
<text text-anchor="middle" x="415" y="-511.5" font-family="FreeSans.ttf" font-size="10.00" fill="#000000">L2NormCost.h</text>
</g>
<!-- Node1 -->
<g id="node2" class="node">
<title>Node1</title>
<g id="a_node2"><a xlink:href="Cost_8h.html" target="_top" xlink:title="iDynTree/Cost.h">
<polygon fill="none" stroke="#000000" points="165.5,-224.5 165.5,-243.5 258.5,-243.5 258.5,-224.5 165.5,-224.5"/>
<text text-anchor="middle" x="212" y="-231.5" font-family="FreeSans.ttf" font-size="10.00" fill="#000000">iDynTree/Cost.h</text>
</a>
</g>
</g>
<!-- Node0&#45;&gt;Node1 -->
<g id="edge1" class="edge">
<title>Node0&#45;&gt;Node1</title>
<path fill="none" stroke="#191970" d="M384.3733,-504.44C343.7174,-489.6165 277,-456.9235 277,-402 277,-402 277,-402 277,-346 277,-308.0918 248.8008,-271.5315 229.5498,-250.9893"/>
<polygon fill="#191970" stroke="#191970" points="231.9269,-248.4136 222.4434,-243.6899 226.9113,-253.2966 231.9269,-248.4136"/>
</g>
<!-- Node2 -->
<g id="node3" class="node">
<title>Node2</title>
<polygon fill="none" stroke="#bfbfbf" points="520,-112.5 520,-131.5 564,-131.5 564,-112.5 520,-112.5"/>
<text text-anchor="middle" x="542" y="-119.5" font-family="FreeSans.ttf" font-size="10.00" fill="#000000">string</text>
</g>
<!-- Node0&#45;&gt;Node2 -->
<g id="edge64" class="edge">
<title>Node0&#45;&gt;Node2</title>
<path fill="none" stroke="#191970" d="M415,-504.4116C415,-485.0538 415,-439.9167 415,-402 415,-402 415,-402 415,-290 415,-221.9633 482.1016,-164.0717 518.7547,-137.5245"/>
<polygon fill="#191970" stroke="#191970" points="520.7792,-140.3796 526.9327,-131.755 516.7439,-134.6598 520.7792,-140.3796"/>
</g>
<!-- Node4 -->
<g id="node5" class="node">
<title>Node4</title>
<g id="a_node5"><a xlink:href="Utils_8h.html" target="_top" xlink:title="iDynTree/Core/Utils.h">
<polygon fill="none" stroke="#000000" points="339.5,-56.5 339.5,-75.5 458.5,-75.5 458.5,-56.5 339.5,-56.5"/>
<text text-anchor="middle" x="399" y="-63.5" font-family="FreeSans.ttf" font-size="10.00" fill="#000000">iDynTree/Core/Utils.h</text>
</a>
</g>
</g>
<!-- Node0&#45;&gt;Node4 -->
<g id="edge62" class="edge">
<title>Node0&#45;&gt;Node4</title>
<path fill="none" stroke="#191970" d="M371.7622,-511.5168C265.4703,-504.2343 0,-478.3987 0,-402 0,-402 0,-402 0,-178 0,-144.3717 9.1154,-130.7966 37,-112 83.33,-80.7697 237.6721,-70.7375 329.1878,-67.5182"/>
<polygon fill="#191970" stroke="#191970" points="329.3282,-71.0156 339.206,-67.1841 329.0948,-64.0195 329.3282,-71.0156"/>
</g>
<!-- Node9 -->
<g id="node10" class="node">
<title>Node9</title>
<g id="a_node10"><a xlink:href="TimeVaryingObject_8h.html" target="_top" xlink:title="iDynTree/TimeVaryingObject.h">
<polygon fill="none" stroke="#000000" points="443,-448.5 443,-467.5 607,-467.5 607,-448.5 443,-448.5"/>
<text text-anchor="middle" x="525" y="-455.5" font-family="FreeSans.ttf" font-size="10.00" fill="#000000">iDynTree/TimeVaryingObject.h</text>
</a>
</g>
</g>
<!-- Node0&#45;&gt;Node9 -->
<g id="edge11" class="edge">
<title>Node0&#45;&gt;Node9</title>
<path fill="none" stroke="#191970" d="M434.1605,-504.2455C451.5111,-495.4125 477.2901,-482.2887 496.9583,-472.2758"/>
<polygon fill="#191970" stroke="#191970" points="498.7353,-475.2986 506.059,-467.6427 495.5595,-469.0605 498.7353,-475.2986"/>
</g>
<!-- Node33 -->
<g id="node34" class="node">
<title>Node33</title>
<polygon fill="none" stroke="#bfbfbf" points="625,-448.5 625,-467.5 683,-467.5 683,-448.5 625,-448.5"/>
<text text-anchor="middle" x="654" y="-455.5" font-family="FreeSans.ttf" font-size="10.00" fill="#000000">memory</text>
</g>
<!-- Node0&#45;&gt;Node33 -->
<g id="edge63" class="edge">
<title>Node0&#45;&gt;Node33</title>
<path fill="none" stroke="#191970" d="M458.2254,-504.5317C496.8448,-495.9773 555.2113,-482.8166 614.9857,-468.1954"/>
<polygon fill="#191970" stroke="#191970" points="616.1023,-471.5252 624.9785,-465.7405 614.4322,-464.7274 616.1023,-471.5252"/>
</g>
<!-- Node1&#45;&gt;Node2 -->
<g id="edge2" class="edge">
<title>Node1&#45;&gt;Node2</title>
<path fill="none" stroke="#191970" d="M211.5885,-224.239C211.5523,-209.6498 213.8272,-182.3417 230,-168 250.7426,-149.6059 433.9589,-131.5239 509.5771,-124.7739"/>
<polygon fill="#191970" stroke="#191970" points="510.2673,-128.2267 519.921,-123.8615 509.6522,-121.2537 510.2673,-128.2267"/>
</g>
<!-- Node3 -->
<g id="node4" class="node">
<title>Node3</title>
<g id="a_node4"><a xlink:href="SparsityStructure_8h.html" target="_top" xlink:title="iDynTree/SparsityStructure.h">
<polygon fill="none" stroke="#000000" points="28.5,-168.5 28.5,-187.5 183.5,-187.5 183.5,-168.5 28.5,-168.5"/>
<text text-anchor="middle" x="106" y="-175.5" font-family="FreeSans.ttf" font-size="10.00" fill="#000000">iDynTree/SparsityStructure.h</text>
</a>
</g>
</g>
<!-- Node1&#45;&gt;Node3 -->
<g id="edge3" class="edge">
<title>Node1&#45;&gt;Node3</title>
<path fill="none" stroke="#191970" d="M193.5362,-224.2455C176.8926,-215.4527 152.2007,-202.4079 133.2808,-192.4125"/>
<polygon fill="#191970" stroke="#191970" points="134.7291,-189.2193 124.2522,-187.6427 131.4592,-195.4086 134.7291,-189.2193"/>
</g>
<!-- Node3&#45;&gt;Node2 -->
<g id="edge10" class="edge">
<title>Node3&#45;&gt;Node2</title>
<path fill="none" stroke="#191970" d="M180.4557,-168.4369C276.7266,-156.0718 440.2304,-135.0713 509.4737,-126.1777"/>
<polygon fill="#191970" stroke="#191970" points="510.2802,-129.6029 519.7528,-124.8574 509.3883,-122.66 510.2802,-129.6029"/>
</g>
<!-- Node3&#45;&gt;Node4 -->
<g id="edge4" class="edge">
<title>Node3&#45;&gt;Node4</title>
<path fill="none" stroke="#191970" d="M168.3381,-168.4919C206.5123,-161.3396 255.7823,-149.6857 297,-132 327.7299,-118.8144 359.5176,-96.6477 379.2673,-81.6808"/>
<polygon fill="#191970" stroke="#191970" points="381.4205,-84.4402 387.2018,-75.5617 377.1457,-78.8971 381.4205,-84.4402"/>
</g>
<!-- Node5 -->
<g id="node6" class="node">
<title>Node5</title>
<polygon fill="none" stroke="#bfbfbf" points="372.5,-.5 372.5,-19.5 425.5,-19.5 425.5,-.5 372.5,-.5"/>
<text text-anchor="middle" x="399" y="-7.5" font-family="FreeSans.ttf" font-size="10.00" fill="#000000">cstddef</text>
</g>
<!-- Node3&#45;&gt;Node5 -->
<g id="edge8" class="edge">
<title>Node3&#45;&gt;Node5</title>
<path fill="none" stroke="#191970" d="M129.0593,-168.4279C149.6044,-159.6573 180.3051,-145.9513 206,-132 239.6612,-113.7233 332.486,-53.5164 375.9668,-25.1007"/>
<polygon fill="#191970" stroke="#191970" points="378.005,-27.9498 384.4572,-19.5462 374.1727,-22.092 378.005,-27.9498"/>
</g>
<!-- Node7 -->
<g id="node8" class="node">
<title>Node7</title>
<polygon fill="none" stroke="#bfbfbf" points="150.5,-112.5 150.5,-131.5 197.5,-131.5 197.5,-112.5 150.5,-112.5"/>
<text text-anchor="middle" x="174" y="-119.5" font-family="FreeSans.ttf" font-size="10.00" fill="#000000">vector</text>
</g>
<!-- Node3&#45;&gt;Node7 -->
<g id="edge7" class="edge">
<title>Node3&#45;&gt;Node7</title>
<path fill="none" stroke="#191970" d="M117.8447,-168.2455C127.888,-159.9746 142.4995,-147.9416 154.3004,-138.2232"/>
<polygon fill="#191970" stroke="#191970" points="156.7967,-140.7015 162.291,-131.6427 152.3467,-135.298 156.7967,-140.7015"/>
</g>
<!-- Node8 -->
<g id="node9" class="node">
<title>Node8</title>
<polygon fill="none" stroke="#bfbfbf" points="46,-112.5 46,-131.5 132,-131.5 132,-112.5 46,-112.5"/>
<text text-anchor="middle" x="89" y="-119.5" font-family="FreeSans.ttf" font-size="10.00" fill="#000000">unordered_set</text>
</g>
<!-- Node3&#45;&gt;Node8 -->
<g id="edge9" class="edge">
<title>Node3&#45;&gt;Node8</title>
<path fill="none" stroke="#191970" d="M103.0388,-168.2455C100.7962,-160.8579 97.6423,-150.4689 94.8919,-141.4087"/>
<polygon fill="#191970" stroke="#191970" points="98.1812,-140.1948 91.9272,-131.6427 91.483,-142.2282 98.1812,-140.1948"/>
</g>
<!-- Node4&#45;&gt;Node5 -->
<g id="edge5" class="edge">
<title>Node4&#45;&gt;Node5</title>
<path fill="none" stroke="#191970" d="M399,-56.2455C399,-48.9382 399,-38.6944 399,-29.7046"/>
<polygon fill="#191970" stroke="#191970" points="402.5001,-29.6426 399,-19.6427 395.5001,-29.6427 402.5001,-29.6426"/>
</g>
<!-- Node6 -->
<g id="node7" class="node">
<title>Node6</title>
<polygon fill="none" stroke="#bfbfbf" points="274,-.5 274,-19.5 354,-19.5 354,-.5 274,-.5"/>
<text text-anchor="middle" x="314" y="-7.5" font-family="FreeSans.ttf" font-size="10.00" fill="#000000">CoreExport.h</text>
</g>
<!-- Node4&#45;&gt;Node6 -->
<g id="edge6" class="edge">
<title>Node4&#45;&gt;Node6</title>
<path fill="none" stroke="#191970" d="M384.1941,-56.2455C371.2744,-47.7337 352.3069,-35.2375 337.3448,-25.3801"/>
<polygon fill="#191970" stroke="#191970" points="338.9124,-22.2216 328.6362,-19.6427 335.0613,-28.067 338.9124,-22.2216"/>
</g>
<!-- Node10 -->
<g id="node11" class="node">
<title>Node10</title>
<g id="a_node11"><a xlink:href="VectorDynSize_8h.html" target="_top" xlink:title="iDynTree/Core/VectorDynSize.h">
<polygon fill="none" stroke="#000000" points="239.5,-168.5 239.5,-187.5 406.5,-187.5 406.5,-168.5 239.5,-168.5"/>
<text text-anchor="middle" x="323" y="-175.5" font-family="FreeSans.ttf" font-size="10.00" fill="#000000">iDynTree/Core/VectorDynSize.h</text>
</a>
</g>
</g>
<!-- Node9&#45;&gt;Node10 -->
<g id="edge12" class="edge">
<title>Node9&#45;&gt;Node10</title>
<path fill="none" stroke="#191970" d="M481.2162,-448.38C432.3342,-434.7571 360,-404.684 360,-346 360,-346 360,-346 360,-290 360,-255.7041 344.1646,-218.3471 333.213,-196.6122"/>
<polygon fill="#191970" stroke="#191970" points="336.1994,-194.7704 328.4595,-187.5354 329.9982,-198.0179 336.1994,-194.7704"/>
</g>
<!-- Node20 -->
<g id="node21" class="node">
<title>Node20</title>
<g id="a_node21"><a xlink:href="MatrixDynSize_8h.html" target="_top" xlink:title="iDynTree/Core/MatrixDynSize.h">
<polygon fill="none" stroke="#000000" points="499.5,-168.5 499.5,-187.5 666.5,-187.5 666.5,-168.5 499.5,-168.5"/>
<text text-anchor="middle" x="583" y="-175.5" font-family="FreeSans.ttf" font-size="10.00" fill="#000000">iDynTree/Core/MatrixDynSize.h</text>
</a>
</g>
</g>
<!-- Node9&#45;&gt;Node20 -->
<g id="edge24" class="edge">
<title>Node9&#45;&gt;Node20</title>
<path fill="none" stroke="#191970" d="M513.1107,-448.2632C492.6606,-430.3405 453,-389.9199 453,-346 453,-346 453,-346 453,-290 453,-240.5666 507.6201,-208.1607 546.0515,-191.4777"/>
<polygon fill="#191970" stroke="#191970" points="547.5429,-194.6481 555.4303,-187.5743 544.8531,-188.1855 547.5429,-194.6481"/>
</g>
<!-- Node22 -->
<g id="node23" class="node">
<title>Node22</title>
<g id="a_node23"><a xlink:href="Transform_8h.html" target="_top" xlink:title="iDynTree/Core/Transform.h">
<polygon fill="none" stroke="#000000" points="591,-392.5 591,-411.5 737,-411.5 737,-392.5 591,-392.5"/>
<text text-anchor="middle" x="664" y="-399.5" font-family="FreeSans.ttf" font-size="10.00" fill="#000000">iDynTree/Core/Transform.h</text>
</a>
</g>
</g>
<!-- Node9&#45;&gt;Node22 -->
<g id="edge31" class="edge">
<title>Node9&#45;&gt;Node22</title>
<path fill="none" stroke="#191970" d="M548.895,-448.3733C571.5082,-439.2629 605.6542,-425.5062 630.8873,-415.3404"/>
<polygon fill="#191970" stroke="#191970" points="632.4493,-418.4845 640.4169,-411.5011 629.8334,-411.9917 632.4493,-418.4845"/>
</g>
<!-- Node10&#45;&gt;Node2 -->
<g id="edge23" class="edge">
<title>Node10&#45;&gt;Node2</title>
<path fill="none" stroke="#191970" d="M360.6474,-168.3733C402.7463,-157.6083 470.2145,-140.3561 509.908,-130.2062"/>
<polygon fill="#191970" stroke="#191970" points="511.0247,-133.5333 519.8459,-127.665 509.2905,-126.7515 511.0247,-133.5333"/>
</g>
<!-- Node11 -->
<g id="node12" class="node">
<title>Node11</title>
<g id="a_node12"><a xlink:href="Span_8h.html" target="_top" xlink:title="iDynTree/Core/Span.h">
<polygon fill="none" stroke="#000000" points="658.5,-56.5 658.5,-75.5 779.5,-75.5 779.5,-56.5 658.5,-56.5"/>
<text text-anchor="middle" x="719" y="-63.5" font-family="FreeSans.ttf" font-size="10.00" fill="#000000">iDynTree/Core/Span.h</text>
</a>
</g>
</g>
<!-- Node10&#45;&gt;Node11 -->
<g id="edge13" class="edge">
<title>Node10&#45;&gt;Node11</title>
<path fill="none" stroke="#191970" d="M347.3335,-168.4005C382.8826,-154.6196 451.2855,-129.0184 511,-112 559.7944,-98.0937 616.0253,-85.8817 657.7095,-77.5416"/>
<polygon fill="#191970" stroke="#191970" points="658.5829,-80.9367 667.7114,-75.5588 657.2217,-74.0703 658.5829,-80.9367"/>
</g>
<!-- Node11&#45;&gt;Node5 -->
<g id="edge17" class="edge">
<title>Node11&#45;&gt;Node5</title>
<path fill="none" stroke="#191970" d="M658.423,-56.9914C592.3594,-47.0338 489.8378,-31.1601 435.5309,-19.8783"/>
<polygon fill="#191970" stroke="#191970" points="436.1664,-16.435 425.6543,-17.757 434.6964,-23.2789 436.1664,-16.435"/>
</g>
<!-- Node12 -->
<g id="node13" class="node">
<title>Node12</title>
<polygon fill="none" stroke="#bfbfbf" points="954,-.5 954,-19.5 1006,-19.5 1006,-.5 954,-.5"/>
<text text-anchor="middle" x="980" y="-7.5" font-family="FreeSans.ttf" font-size="10.00" fill="#000000">cassert</text>
</g>
<!-- Node11&#45;&gt;Node12 -->
<g id="edge14" class="edge">
<title>Node11&#45;&gt;Node12</title>
<path fill="none" stroke="#191970" d="M771.7723,-56.4576C815.4947,-48.2804 879.451,-35.6964 943.7781,-20.1693"/>
<polygon fill="#191970" stroke="#191970" points="944.798,-23.5233 953.685,-17.755 943.1406,-16.7223 944.798,-23.5233"/>
</g>
<!-- Node13 -->
<g id="node14" class="node">
<title>Node13</title>
<polygon fill="none" stroke="#bfbfbf" points="724,-.5 724,-19.5 788,-19.5 788,-.5 724,-.5"/>
<text text-anchor="middle" x="756" y="-7.5" font-family="FreeSans.ttf" font-size="10.00" fill="#000000">algorithm</text>
</g>
<!-- Node11&#45;&gt;Node13 -->
<g id="edge15" class="edge">
<title>Node11&#45;&gt;Node13</title>
<path fill="none" stroke="#191970" d="M725.4449,-56.2455C730.5382,-48.5367 737.7908,-37.5598 743.952,-28.2348"/>
<polygon fill="#191970" stroke="#191970" points="747.0365,-29.9155 749.6289,-19.6427 741.1962,-26.0566 747.0365,-29.9155"/>
</g>
<!-- Node14 -->
<g id="node15" class="node">
<title>Node14</title>
<polygon fill="none" stroke="#bfbfbf" points="806,-.5 806,-19.5 848,-19.5 848,-.5 806,-.5"/>
<text text-anchor="middle" x="827" y="-7.5" font-family="FreeSans.ttf" font-size="10.00" fill="#000000">array</text>
</g>
<!-- Node11&#45;&gt;Node14 -->
<g id="edge16" class="edge">
<title>Node11&#45;&gt;Node14</title>
<path fill="none" stroke="#191970" d="M737.8122,-56.2455C754.8473,-47.4125 780.1575,-34.2887 799.4681,-24.2758"/>
<polygon fill="#191970" stroke="#191970" points="801.137,-27.353 808.4034,-19.6427 797.9147,-21.1388 801.137,-27.353"/>
</g>
<!-- Node15 -->
<g id="node16" class="node">
<title>Node15</title>
<polygon fill="none" stroke="#bfbfbf" points="443.5,-.5 443.5,-19.5 496.5,-19.5 496.5,-.5 443.5,-.5"/>
<text text-anchor="middle" x="470" y="-7.5" font-family="FreeSans.ttf" font-size="10.00" fill="#000000">iterator</text>
</g>
<!-- Node11&#45;&gt;Node15 -->
<g id="edge18" class="edge">
<title>Node11&#45;&gt;Node15</title>
<path fill="none" stroke="#191970" d="M671.0204,-56.4703C629.9282,-48.1212 568.962,-35.292 506.6929,-20.0646"/>
<polygon fill="#191970" stroke="#191970" points="507.2377,-16.5943 496.6908,-17.6005 505.5632,-23.3911 507.2377,-16.5943"/>
</g>
<!-- Node16 -->
<g id="node17" class="node">
<title>Node16</title>
<polygon fill="none" stroke="#bfbfbf" points="515,-.5 515,-19.5 559,-19.5 559,-.5 515,-.5"/>
<text text-anchor="middle" x="537" y="-7.5" font-family="FreeSans.ttf" font-size="10.00" fill="#000000">limits</text>
</g>
<!-- Node11&#45;&gt;Node16 -->
<g id="edge19" class="edge">
<title>Node11&#45;&gt;Node16</title>
<path fill="none" stroke="#191970" d="M687.6702,-56.4452C657.3139,-47.1748 609.982,-32.6872 569,-20 568.8992,-19.9688 568.7983,-19.9375 568.6971,-19.9062"/>
<polygon fill="#191970" stroke="#191970" points="569.6174,-16.5271 559.0291,-16.901 567.5395,-23.2116 569.6174,-16.5271"/>
</g>
<!-- Node17 -->
<g id="node18" class="node">
<title>Node17</title>
<polygon fill="none" stroke="#bfbfbf" points="577.5,-.5 577.5,-19.5 642.5,-19.5 642.5,-.5 577.5,-.5"/>
<text text-anchor="middle" x="610" y="-7.5" font-family="FreeSans.ttf" font-size="10.00" fill="#000000">stdexcept</text>
</g>
<!-- Node11&#45;&gt;Node17 -->
<g id="edge20" class="edge">
<title>Node11&#45;&gt;Node17</title>
<path fill="none" stroke="#191970" d="M700.0136,-56.2455C682.8208,-47.4125 657.2762,-34.2887 637.7868,-24.2758"/>
<polygon fill="#191970" stroke="#191970" points="639.263,-21.0993 628.7688,-19.6427 636.0641,-27.3257 639.263,-21.0993"/>
</g>
<!-- Node18 -->
<g id="node19" class="node">
<title>Node18</title>
<polygon fill="none" stroke="#bfbfbf" points="866.5,-.5 866.5,-19.5 935.5,-19.5 935.5,-.5 866.5,-.5"/>
<text text-anchor="middle" x="901" y="-7.5" font-family="FreeSans.ttf" font-size="10.00" fill="#000000">type_traits</text>
</g>
<!-- Node11&#45;&gt;Node18 -->
<g id="edge21" class="edge">
<title>Node11&#45;&gt;Node18</title>
<path fill="none" stroke="#191970" d="M750.2869,-56.3733C780.6818,-47.021 826.9893,-32.7725 860.25,-22.5385"/>
<polygon fill="#191970" stroke="#191970" points="861.5929,-25.7873 870.1214,-19.5011 859.5342,-19.0968 861.5929,-25.7873"/>
</g>
<!-- Node19 -->
<g id="node20" class="node">
<title>Node19</title>
<polygon fill="none" stroke="#bfbfbf" points="660.5,-.5 660.5,-19.5 705.5,-19.5 705.5,-.5 660.5,-.5"/>
<text text-anchor="middle" x="683" y="-7.5" font-family="FreeSans.ttf" font-size="10.00" fill="#000000">utility</text>
</g>
<!-- Node11&#45;&gt;Node19 -->
<g id="edge22" class="edge">
<title>Node11&#45;&gt;Node19</title>
<path fill="none" stroke="#191970" d="M712.7293,-56.2455C707.7736,-48.5367 700.717,-37.5598 694.7224,-28.2348"/>
<polygon fill="#191970" stroke="#191970" points="697.5506,-26.1618 689.1989,-19.6427 691.6624,-29.9471 697.5506,-26.1618"/>
</g>
<!-- Node20&#45;&gt;Node2 -->
<g id="edge25" class="edge">
<title>Node20&#45;&gt;Node2</title>
<path fill="none" stroke="#191970" d="M575.8583,-168.2455C570.1556,-160.4564 562.01,-149.3308 555.1375,-139.9439"/>
<polygon fill="#191970" stroke="#191970" points="557.7913,-137.6437 549.0598,-131.6427 552.1432,-141.7789 557.7913,-137.6437"/>
</g>
<!-- Node21 -->
<g id="node22" class="node">
<title>Node21</title>
<g id="a_node22"><a xlink:href="MatrixView_8h.html" target="_top" xlink:title="iDynTree/Core/MatrixView.h">
<polygon fill="none" stroke="#000000" points="736.5,-112.5 736.5,-131.5 887.5,-131.5 887.5,-112.5 736.5,-112.5"/>
<text text-anchor="middle" x="812" y="-119.5" font-family="FreeSans.ttf" font-size="10.00" fill="#000000">iDynTree/Core/MatrixView.h</text>
</a>
</g>
</g>
<!-- Node20&#45;&gt;Node21 -->
<g id="edge26" class="edge">
<title>Node20&#45;&gt;Node21</title>
<path fill="none" stroke="#191970" d="M622.1063,-168.4369C661.1332,-158.8932 721.1965,-144.2052 763.2962,-133.9101"/>
<polygon fill="#191970" stroke="#191970" points="764.1726,-137.299 773.055,-131.5237 762.5098,-130.4993 764.1726,-137.299"/>
</g>
<!-- Node21&#45;&gt;Node4 -->
<g id="edge30" class="edge">
<title>Node21&#45;&gt;Node4</title>
<path fill="none" stroke="#191970" d="M741.472,-112.4369C665.1836,-102.0927 544.325,-85.7051 468.4569,-75.4179"/>
<polygon fill="#191970" stroke="#191970" points="468.8977,-71.9457 458.5181,-74.0702 467.9571,-78.8822 468.8977,-71.9457"/>
</g>
<!-- Node21&#45;&gt;Node11 -->
<g id="edge29" class="edge">
<title>Node21&#45;&gt;Node11</title>
<path fill="none" stroke="#191970" d="M795.8006,-112.2455C781.3982,-103.5731 760.1268,-90.7645 743.6201,-80.825"/>
<polygon fill="#191970" stroke="#191970" points="745.386,-77.8028 735.0137,-75.6427 741.775,-83.7996 745.386,-77.8028"/>
</g>
<!-- Node21&#45;&gt;Node12 -->
<g id="edge27" class="edge">
<title>Node21&#45;&gt;Node12</title>
<path fill="none" stroke="#191970" d="M824.2418,-112.416C841.3034,-99.2002 873.3656,-74.875 902,-56 918.8485,-44.894 938.4108,-33.3605 953.7297,-24.6203"/>
<polygon fill="#191970" stroke="#191970" points="955.6781,-27.5393 962.6574,-19.5681 952.2305,-21.4472 955.6781,-27.5393"/>
</g>
<!-- Node21&#45;&gt;Node18 -->
<g id="edge28" class="edge">
<title>Node21&#45;&gt;Node18</title>
<path fill="none" stroke="#191970" d="M816.3138,-112.4505C822.6146,-99.0631 835.2078,-74.3052 850,-56 858.8995,-44.987 870.5164,-34.2931 880.4148,-25.9921"/>
<polygon fill="#191970" stroke="#191970" points="882.6852,-28.6569 888.2279,-19.6275 878.2642,-23.2297 882.6852,-28.6569"/>
</g>
<!-- Node22&#45;&gt;Node2 -->
<g id="edge61" class="edge">
<title>Node22&#45;&gt;Node2</title>
<path fill="none" stroke="#191970" d="M641.6973,-392.4824C625.1021,-384.5622 602.7016,-372.0085 587,-356 526.7822,-294.6048 513.0728,-271.1165 491,-188 488.7185,-179.4089 487.3881,-176.122 491,-168 496.4508,-155.7432 506.9599,-145.3755 517.0289,-137.6036"/>
<polygon fill="#191970" stroke="#191970" points="519.1744,-140.3721 525.2627,-131.7012 515.096,-134.6828 519.1744,-140.3721"/>
</g>
<!-- Node23 -->
<g id="node24" class="node">
<title>Node23</title>
<g id="a_node24"><a xlink:href="Position_8h.html" target="_top" xlink:title="iDynTree/Core/Position.h">
<polygon fill="none" stroke="#000000" points="596,-336.5 596,-355.5 732,-355.5 732,-336.5 596,-336.5"/>
<text text-anchor="middle" x="664" y="-343.5" font-family="FreeSans.ttf" font-size="10.00" fill="#000000">iDynTree/Core/Position.h</text>
</a>
</g>
</g>
<!-- Node22&#45;&gt;Node23 -->
<g id="edge32" class="edge">
<title>Node22&#45;&gt;Node23</title>
<path fill="none" stroke="#191970" d="M664,-392.2455C664,-384.9382 664,-374.6944 664,-365.7046"/>
<polygon fill="#191970" stroke="#191970" points="667.5001,-365.6426 664,-355.6427 660.5001,-365.6427 667.5001,-365.6426"/>
</g>
<!-- Node28 -->
<g id="node29" class="node">
<title>Node28</title>
<g id="a_node29"><a xlink:href="Rotation_8h.html" target="_top" xlink:title="iDynTree/Core/Rotation.h">
<polygon fill="none" stroke="#000000" points="720.5,-280.5 720.5,-299.5 857.5,-299.5 857.5,-280.5 720.5,-280.5"/>
<text text-anchor="middle" x="789" y="-287.5" font-family="FreeSans.ttf" font-size="10.00" fill="#000000">iDynTree/Core/Rotation.h</text>
</a>
</g>
</g>
<!-- Node22&#45;&gt;Node28 -->
<g id="edge59" class="edge">
<title>Node22&#45;&gt;Node28</title>
<path fill="none" stroke="#191970" d="M684.7993,-392.4804C701.2195,-384.3149 724.0999,-371.4392 741,-356 756.1283,-342.1795 769.483,-322.9101 778.2397,-308.7593"/>
<polygon fill="#191970" stroke="#191970" points="781.4032,-310.2888 783.5328,-299.9102 775.3958,-306.6955 781.4032,-310.2888"/>
</g>
<!-- Node31 -->
<g id="node32" class="node">
<title>Node31</title>
<g id="a_node32"><a xlink:href="MatrixFixSize_8h.html" target="_top" xlink:title="iDynTree/Core/MatrixFixSize.h">
<polygon fill="none" stroke="#000000" points="1015.5,-168.5 1015.5,-187.5 1176.5,-187.5 1176.5,-168.5 1015.5,-168.5"/>
<text text-anchor="middle" x="1096" y="-175.5" font-family="FreeSans.ttf" font-size="10.00" fill="#000000">iDynTree/Core/MatrixFixSize.h</text>
</a>
</g>
</g>
<!-- Node22&#45;&gt;Node31 -->
<g id="edge60" class="edge">
<title>Node22&#45;&gt;Node31</title>
<path fill="none" stroke="#191970" d="M726.3848,-392.4498C852.3229,-371.7615 1129.6774,-318.5879 1185,-244 1202.0103,-221.0661 1169.3729,-202.5385 1138.943,-191.0177"/>
<polygon fill="#191970" stroke="#191970" points="1139.801,-187.6072 1129.2065,-187.5267 1137.4384,-194.1965 1139.801,-187.6072"/>
</g>
<!-- Node23&#45;&gt;Node2 -->
<g id="edge58" class="edge">
<title>Node23&#45;&gt;Node2</title>
<path fill="none" stroke="#191970" d="M647.5818,-336.2353C614.9674,-315.5941 547.5989,-265.976 577,-224 606.0013,-182.5949 705.5005,-209.0509 676,-168 648.5492,-129.8014 620.1058,-146.2756 573.6243,-133.2613"/>
<polygon fill="#191970" stroke="#191970" points="574.6726,-129.922 564.0825,-130.2403 572.5596,-136.5955 574.6726,-129.922"/>
</g>
<!-- Node24 -->
<g id="node25" class="node">
<title>Node24</title>
<g id="a_node25"><a xlink:href="PositionRaw_8h.html" target="_top" xlink:title="iDynTree/Core/PositionRaw.h">
<polygon fill="none" stroke="#000000" points="586,-224.5 586,-243.5 742,-243.5 742,-224.5 586,-224.5"/>
<text text-anchor="middle" x="664" y="-231.5" font-family="FreeSans.ttf" font-size="10.00" fill="#000000">iDynTree/Core/PositionRaw.h</text>
</a>
</g>
</g>
<!-- Node23&#45;&gt;Node24 -->
<g id="edge33" class="edge">
<title>Node23&#45;&gt;Node24</title>
<path fill="none" stroke="#191970" d="M664,-336.4509C664,-318.184 664,-277.9553 664,-253.6976"/>
<polygon fill="#191970" stroke="#191970" points="667.5001,-253.5249 664,-243.5249 660.5001,-253.5249 667.5001,-253.5249"/>
</g>
<!-- Node23&#45;&gt;Node28 -->
<g id="edge43" class="edge">
<title>Node23&#45;&gt;Node28</title>
<path fill="none" stroke="#191970" d="M685.4883,-336.3733C705.644,-327.3435 735.988,-313.7494 758.618,-303.6111"/>
<polygon fill="#191970" stroke="#191970" points="760.0971,-306.7838 767.7921,-299.5011 757.2351,-300.3955 760.0971,-306.7838"/>
</g>
<!-- Node24&#45;&gt;Node2 -->
<g id="edge42" class="edge">
<title>Node24&#45;&gt;Node2</title>
<path fill="none" stroke="#191970" d="M678.5042,-224.3438C696.3746,-211.2517 722.6743,-187.2902 708,-168 671.7024,-120.2847 635.7714,-148.0229 578,-132 576.7342,-131.6489 575.4435,-131.2908 574.1396,-130.929"/>
<polygon fill="#191970" stroke="#191970" points="574.6558,-127.44 564.0839,-128.1374 572.7832,-134.1849 574.6558,-127.44"/>
</g>
<!-- Node25 -->
<g id="node26" class="node">
<title>Node25</title>
<g id="a_node26"><a xlink:href="VectorFixSize_8h.html" target="_top" xlink:title="iDynTree/Core/VectorFixSize.h">
<polygon fill="none" stroke="#000000" points="836.5,-168.5 836.5,-187.5 997.5,-187.5 997.5,-168.5 836.5,-168.5"/>
<text text-anchor="middle" x="917" y="-175.5" font-family="FreeSans.ttf" font-size="10.00" fill="#000000">iDynTree/Core/VectorFixSize.h</text>
</a>
</g>
</g>
<!-- Node24&#45;&gt;Node25 -->
<g id="edge34" class="edge">
<title>Node24&#45;&gt;Node25</title>
<path fill="none" stroke="#191970" d="M707.2048,-224.4369C750.5947,-214.8328 817.5209,-200.0191 864.0726,-189.7152"/>
<polygon fill="#191970" stroke="#191970" points="864.9662,-193.1022 873.9734,-187.5237 863.4533,-186.2676 864.9662,-193.1022"/>
</g>
<!-- Node25&#45;&gt;Node2 -->
<g id="edge37" class="edge">
<title>Node25&#45;&gt;Node2</title>
<path fill="none" stroke="#191970" d="M837.523,-168.4848C753.3335,-158.1787 626.0671,-141.8893 578,-132 576.7491,-131.7426 575.4778,-131.4657 574.1964,-131.1738"/>
<polygon fill="#191970" stroke="#191970" points="574.9036,-127.743 564.3536,-128.7167 573.2082,-134.5346 574.9036,-127.743"/>
</g>
<!-- Node25&#45;&gt;Node4 -->
<g id="edge35" class="edge">
<title>Node25&#45;&gt;Node4</title>
<path fill="none" stroke="#191970" d="M837.7848,-168.4735C762.934,-159.0053 656.2927,-144.1777 616,-132 595.8242,-125.9022 592.8216,-119.166 573,-112 533.8189,-97.8351 488.2491,-85.9467 453.575,-77.806"/>
<polygon fill="#191970" stroke="#191970" points="454.1736,-74.3521 443.6418,-75.5062 452.5947,-81.1717 454.1736,-74.3521"/>
</g>
<!-- Node25&#45;&gt;Node5 -->
<g id="edge40" class="edge">
<title>Node25&#45;&gt;Node5</title>
<path fill="none" stroke="#191970" d="M865.1437,-168.4324C823.7968,-160.2825 764.635,-147.4513 714,-132 607.3756,-99.4636 485.4201,-47.9812 429.688,-23.6275"/>
<polygon fill="#191970" stroke="#191970" points="430.9467,-20.3578 420.3831,-19.5442 428.1337,-26.7677 430.9467,-20.3578"/>
</g>
<!-- Node25&#45;&gt;Node11 -->
<g id="edge36" class="edge">
<title>Node25&#45;&gt;Node11</title>
<path fill="none" stroke="#191970" d="M841.9892,-168.4767C796.1439,-161.058 743.4352,-149.1166 728,-132 716.8914,-119.6813 715.4057,-100.447 716.2469,-85.9141"/>
<polygon fill="#191970" stroke="#191970" points="719.7353,-86.2021 717.2228,-75.9095 712.7684,-85.5225 719.7353,-86.2021"/>
</g>
<!-- Node25&#45;&gt;Node12 -->
<g id="edge39" class="edge">
<title>Node25&#45;&gt;Node12</title>
<path fill="none" stroke="#191970" d="M919.1275,-168.464C922.1246,-155.5081 928.0119,-131.7005 935,-112 945.5726,-82.1944 960.981,-48.8839 970.7451,-28.6847"/>
<polygon fill="#191970" stroke="#191970" points="973.9144,-30.1709 975.1602,-19.6496 967.6251,-27.0976 973.9144,-30.1709"/>
</g>
<!-- Node26 -->
<g id="node27" class="node">
<title>Node26</title>
<polygon fill="none" stroke="#bfbfbf" points="944,-112.5 944,-131.5 1000,-131.5 1000,-112.5 944,-112.5"/>
<text text-anchor="middle" x="972" y="-119.5" font-family="FreeSans.ttf" font-size="10.00" fill="#000000">sstream</text>
</g>
<!-- Node25&#45;&gt;Node26 -->
<g id="edge38" class="edge">
<title>Node25&#45;&gt;Node26</title>
<path fill="none" stroke="#191970" d="M926.5803,-168.2455C934.5458,-160.1352 946.0641,-148.4075 955.5079,-138.7919"/>
<polygon fill="#191970" stroke="#191970" points="958.0195,-141.2297 962.5295,-131.6427 953.0253,-136.3247 958.0195,-141.2297"/>
</g>
<!-- Node27 -->
<g id="node28" class="node">
<title>Node27</title>
<polygon fill="none" stroke="#bfbfbf" points="1018,-112.5 1018,-131.5 1068,-131.5 1068,-112.5 1018,-112.5"/>
<text text-anchor="middle" x="1043" y="-119.5" font-family="FreeSans.ttf" font-size="10.00" fill="#000000">cstring</text>
</g>
<!-- Node25&#45;&gt;Node27 -->
<g id="edge41" class="edge">
<title>Node25&#45;&gt;Node27</title>
<path fill="none" stroke="#191970" d="M938.6602,-168.3733C958.9772,-159.3435 989.564,-145.7494 1012.375,-135.6111"/>
<polygon fill="#191970" stroke="#191970" points="1013.9059,-138.7609 1021.6225,-131.5011 1011.0628,-132.3642 1013.9059,-138.7609"/>
</g>
<!-- Node28&#45;&gt;Node2 -->
<g id="edge44" class="edge">
<title>Node28&#45;&gt;Node2</title>
<path fill="none" stroke="#191970" d="M786.7645,-280.2925C780.8729,-256.9976 762.6438,-197.6671 724,-168 670.5319,-126.9521 639.7161,-149.9092 573.9836,-133.1839"/>
<polygon fill="#191970" stroke="#191970" points="574.5973,-129.7218 564.0252,-130.4159 572.7226,-136.4661 574.5973,-129.7218"/>
</g>
<!-- Node28&#45;&gt;Node25 -->
<g id="edge57" class="edge">
<title>Node28&#45;&gt;Node25</title>
<path fill="none" stroke="#191970" d="M792.4996,-280.3403C797.9752,-266.369 809.7567,-240.4035 827,-224 841.9109,-209.8153 862.049,-198.9729 879.4953,-191.3874"/>
<polygon fill="#191970" stroke="#191970" points="880.9613,-194.5686 888.8604,-187.5078 878.2822,-188.1016 880.9613,-194.5686"/>
</g>
<!-- Node29 -->
<g id="node30" class="node">
<title>Node29</title>
<g id="a_node30"><a xlink:href="GeomVector3_8h.html" target="_top" xlink:title="iDynTree/Core/GeomVector3.h">
<polygon fill="none" stroke="#000000" points="1012.5,-224.5 1012.5,-243.5 1175.5,-243.5 1175.5,-224.5 1012.5,-224.5"/>
<text text-anchor="middle" x="1094" y="-231.5" font-family="FreeSans.ttf" font-size="10.00" fill="#000000">iDynTree/Core/GeomVector3.h</text>
</a>
</g>
</g>
<!-- Node28&#45;&gt;Node29 -->
<g id="edge45" class="edge">
<title>Node28&#45;&gt;Node29</title>
<path fill="none" stroke="#191970" d="M841.0848,-280.4369C893.9412,-270.7321 975.7691,-255.708 1031.9509,-245.3926"/>
<polygon fill="#191970" stroke="#191970" points="1032.9265,-248.7721 1042.13,-243.5237 1031.6623,-241.8872 1032.9265,-248.7721"/>
</g>
<!-- Node30 -->
<g id="node31" class="node">
<title>Node30</title>
<g id="a_node31"><a xlink:href="RotationRaw_8h.html" target="_top" xlink:title="iDynTree/Core/RotationRaw.h">
<polygon fill="none" stroke="#000000" points="836,-224.5 836,-243.5 994,-243.5 994,-224.5 836,-224.5"/>
<text text-anchor="middle" x="915" y="-231.5" font-family="FreeSans.ttf" font-size="10.00" fill="#000000">iDynTree/Core/RotationRaw.h</text>
</a>
</g>
</g>
<!-- Node28&#45;&gt;Node30 -->
<g id="edge47" class="edge">
<title>Node28&#45;&gt;Node30</title>
<path fill="none" stroke="#191970" d="M810.6602,-280.3733C830.9772,-271.3435 861.564,-257.7494 884.375,-247.6111"/>
<polygon fill="#191970" stroke="#191970" points="885.9059,-250.7609 893.6225,-243.5011 883.0628,-244.3642 885.9059,-250.7609"/>
</g>
<!-- Node29&#45;&gt;Node25 -->
<g id="edge46" class="edge">
<title>Node29&#45;&gt;Node25</title>
<path fill="none" stroke="#191970" d="M1063.5726,-224.3733C1034.0128,-215.021 988.9774,-200.7725 956.6305,-190.5385"/>
<polygon fill="#191970" stroke="#191970" points="957.6203,-187.1807 947.0303,-187.5011 955.5087,-193.8546 957.6203,-187.1807"/>
</g>
<!-- Node30&#45;&gt;Node2 -->
<g id="edge56" class="edge">
<title>Node30&#45;&gt;Node2</title>
<path fill="none" stroke="#191970" d="M896.707,-224.4082C863.4895,-207.0468 795.6039,-171.8435 784,-168 695.7708,-138.7762 668.6626,-152.4624 578,-132 576.7543,-131.7188 575.4872,-131.4218 574.2095,-131.1129"/>
<polygon fill="#191970" stroke="#191970" points="574.9394,-127.6868 564.3825,-128.5827 573.194,-134.4657 574.9394,-127.6868"/>
</g>
<!-- Node30&#45;&gt;Node31 -->
<g id="edge48" class="edge">
<title>Node30&#45;&gt;Node31</title>
<path fill="none" stroke="#191970" d="M946.115,-224.3733C976.3429,-215.021 1022.396,-200.7725 1055.4739,-190.5385"/>
<polygon fill="#191970" stroke="#191970" points="1056.7723,-193.8005 1065.291,-187.5011 1054.7033,-187.1133 1056.7723,-193.8005"/>
</g>
<!-- Node31&#45;&gt;Node2 -->
<g id="edge53" class="edge">
<title>Node31&#45;&gt;Node2</title>
<path fill="none" stroke="#191970" d="M1015.475,-168.9037C1012.6151,-168.5961 1009.7833,-168.294 1007,-168 844.7564,-150.861 650.4538,-132.2617 574.5895,-125.0737"/>
<polygon fill="#191970" stroke="#191970" points="574.559,-121.5553 564.2737,-124.0975 573.8995,-128.5241 574.559,-121.5553"/>
</g>
<!-- Node31&#45;&gt;Node4 -->
<g id="edge49" class="edge">
<title>Node31&#45;&gt;Node4</title>
<path fill="none" stroke="#191970" d="M1096.388,-168.0607C1096.3655,-153.2387 1093.8862,-125.6306 1077,-112 1053.5951,-93.1074 637.123,-75.1202 468.7631,-68.5878"/>
<polygon fill="#191970" stroke="#191970" points="468.8888,-65.0902 458.7612,-68.2019 468.6188,-72.0849 468.8888,-65.0902"/>
</g>
<!-- Node31&#45;&gt;Node12 -->
<g id="edge51" class="edge">
<title>Node31&#45;&gt;Node12</title>
<path fill="none" stroke="#191970" d="M1098.6785,-168.071C1101.7466,-154.6697 1105.3508,-130.359 1097,-112 1078.777,-71.9375 1036.1841,-41.477 1007.7337,-24.6731"/>
<polygon fill="#191970" stroke="#191970" points="1009.4606,-21.6288 999.0424,-19.7023 1005.9853,-27.7052 1009.4606,-21.6288"/>
</g>
<!-- Node31&#45;&gt;Node21 -->
<g id="edge50" class="edge">
<title>Node31&#45;&gt;Node21</title>
<path fill="none" stroke="#191970" d="M1047.5014,-168.4369C998.4885,-158.7724 922.7223,-143.8326 870.4293,-133.5213"/>
<polygon fill="#191970" stroke="#191970" points="870.7868,-130.0244 860.2986,-131.5237 869.4326,-136.8922 870.7868,-130.0244"/>
</g>
<!-- Node31&#45;&gt;Node26 -->
<g id="edge55" class="edge">
<title>Node31&#45;&gt;Node26</title>
<path fill="none" stroke="#191970" d="M1074.6836,-168.3733C1054.7784,-159.3838 1024.8564,-145.8706 1002.44,-135.7471"/>
<polygon fill="#191970" stroke="#191970" points="1003.5925,-132.4272 993.0382,-131.5011 1000.7113,-138.8068 1003.5925,-132.4272"/>
</g>
<!-- Node31&#45;&gt;Node27 -->
<g id="edge52" class="edge">
<title>Node31&#45;&gt;Node27</title>
<path fill="none" stroke="#191970" d="M1086.7681,-168.2455C1079.1683,-160.2155 1068.2123,-148.6394 1059.1632,-139.0781"/>
<polygon fill="#191970" stroke="#191970" points="1061.542,-136.4998 1052.1261,-131.6427 1056.4579,-141.3115 1061.542,-136.4998"/>
</g>
<!-- Node32 -->
<g id="node33" class="node">
<title>Node32</title>
<polygon fill="none" stroke="#bfbfbf" points="1162,-112.5 1162,-131.5 1222,-131.5 1222,-112.5 1162,-112.5"/>
<text text-anchor="middle" x="1192" y="-119.5" font-family="FreeSans.ttf" font-size="10.00" fill="#000000">iostream</text>
</g>
<!-- Node31&#45;&gt;Node32 -->
<g id="edge54" class="edge">
<title>Node31&#45;&gt;Node32</title>
<path fill="none" stroke="#191970" d="M1112.7219,-168.2455C1127.5889,-159.5731 1149.5466,-146.7645 1166.5858,-136.825"/>
<polygon fill="#191970" stroke="#191970" points="1168.5955,-139.7047 1175.4697,-131.6427 1165.0683,-133.6582 1168.5955,-139.7047"/>
</g>
</g>
</svg>
