<?xml version="1.0" encoding="UTF-8" standalone="no"?>
<!DOCTYPE svg PUBLIC "-//W3C//DTD SVG 1.1//EN"
 "http://www.w3.org/Graphics/SVG/1.1/DTD/svg11.dtd">
<!-- Generated by graphviz version 2.40.1 (20161225.0304)
 -->
<!-- Title: L2NormCost.cpp Pages: 1 -->
<svg width="1869pt" height="599pt"
 viewBox="0.00 0.00 1869.49 599.00" xmlns="http://www.w3.org/2000/svg" xmlns:xlink="http://www.w3.org/1999/xlink">
<g id="graph0" class="graph" transform="scale(1 1) rotate(0) translate(4 595)">
<title>L2NormCost.cpp</title>
<!-- Node0 -->
<g id="node1" class="node">
<title>Node0</title>
<polygon fill="#bfbfbf" stroke="#000000" points="326.5,-571.5 326.5,-590.5 423.5,-590.5 423.5,-571.5 326.5,-571.5"/>
<text text-anchor="middle" x="375" y="-578.5" font-family="FreeSans.ttf" font-size="10.00" fill="#000000">L2NormCost.cpp</text>
</g>
<!-- Node1 -->
<g id="node2" class="node">
<title>Node1</title>
<g id="a_node2"><a xlink:href="L2NormCost_8h.html" target="_top" xlink:title="iDynTree/L2NormCost.h">
<polygon fill="none" stroke="#000000" points="495.5,-515.5 495.5,-534.5 626.5,-534.5 626.5,-515.5 495.5,-515.5"/>
<text text-anchor="middle" x="561" y="-522.5" font-family="FreeSans.ttf" font-size="10.00" fill="#000000">iDynTree/L2NormCost.h</text>
</a>
</g>
</g>
<!-- Node0&#45;&gt;Node1 -->
<g id="edge1" class="edge">
<title>Node0&#45;&gt;Node1</title>
<path fill="none" stroke="#191970" d="M406.9745,-571.3733C438.1713,-561.9807 485.771,-547.6496 519.7932,-537.4064"/>
<polygon fill="#191970" stroke="#191970" points="520.8763,-540.7355 529.4427,-534.5011 518.8582,-534.0327 520.8763,-540.7355"/>
</g>
<!-- Node5 -->
<g id="node6" class="node">
<title>Node5</title>
<g id="a_node6"><a xlink:href="Utils_8h.html" target="_top" xlink:title="iDynTree/Core/Utils.h">
<polygon fill="none" stroke="#000000" points="1154.5,-56.5 1154.5,-75.5 1273.5,-75.5 1273.5,-56.5 1154.5,-56.5"/>
<text text-anchor="middle" x="1214" y="-63.5" font-family="FreeSans.ttf" font-size="10.00" fill="#000000">iDynTree/Core/Utils.h</text>
</a>
</g>
</g>
<!-- Node0&#45;&gt;Node5 -->
<g id="edge68" class="edge">
<title>Node0&#45;&gt;Node5</title>
<path fill="none" stroke="#191970" d="M423.5573,-580.2414C616.7815,-577.0474 1331.4535,-563.5199 1556,-535 1672.4016,-520.2157 1740.3538,-570.3463 1814,-479 1922.1518,-344.8551 1830.0916,-210.9183 1689,-112 1656.5852,-89.2742 1407.8083,-74.8419 1283.8047,-68.9866"/>
<polygon fill="#191970" stroke="#191970" points="1283.8021,-65.4828 1273.6499,-68.5132 1283.476,-72.4752 1283.8021,-65.4828"/>
</g>
<!-- Node11 -->
<g id="node12" class="node">
<title>Node11</title>
<g id="a_node12"><a xlink:href="VectorDynSize_8h.html" target="_top" xlink:title="iDynTree/Core/VectorDynSize.h">
<polygon fill="none" stroke="#000000" points="216.5,-392.5 216.5,-411.5 383.5,-411.5 383.5,-392.5 216.5,-392.5"/>
<text text-anchor="middle" x="300" y="-399.5" font-family="FreeSans.ttf" font-size="10.00" fill="#000000">iDynTree/Core/VectorDynSize.h</text>
</a>
</g>
</g>
<!-- Node0&#45;&gt;Node11 -->
<g id="edge67" class="edge">
<title>Node0&#45;&gt;Node11</title>
<path fill="none" stroke="#191970" d="M334.209,-571.4886C301.3827,-562.9113 259.1108,-549.4548 249,-535 226.8372,-503.3153 233.288,-483.3305 249,-448 254.4508,-435.7432 264.9599,-425.3755 275.0289,-417.6036"/>
<polygon fill="#191970" stroke="#191970" points="277.1744,-420.3721 283.2627,-411.7012 273.096,-414.6828 277.1744,-420.3721"/>
</g>
<!-- Node12 -->
<g id="node13" class="node">
<title>Node12</title>
<g id="a_node13"><a xlink:href="Span_8h.html" target="_top" xlink:title="iDynTree/Core/Span.h">
<polygon fill="none" stroke="#000000" points="172.5,-56.5 172.5,-75.5 293.5,-75.5 293.5,-56.5 172.5,-56.5"/>
<text text-anchor="middle" x="233" y="-63.5" font-family="FreeSans.ttf" font-size="10.00" fill="#000000">iDynTree/Core/Span.h</text>
</a>
</g>
</g>
<!-- Node0&#45;&gt;Node12 -->
<g id="edge69" class="edge">
<title>Node0&#45;&gt;Node12</title>
<path fill="none" stroke="#191970" d="M326.3359,-575.4301C273.973,-568.5048 195.2039,-555.0887 173,-535 148.1433,-512.5112 149,-497.0202 149,-463.5 149,-463.5 149,-463.5 149,-178 149,-136.9075 185.6365,-101.2426 210.5189,-81.7588"/>
<polygon fill="#191970" stroke="#191970" points="212.8679,-84.3713 218.7505,-75.5596 208.6569,-78.7795 212.8679,-84.3713"/>
</g>
<!-- Node13 -->
<g id="node14" class="node">
<title>Node13</title>
<polygon fill="none" stroke="#bfbfbf" points="556,-.5 556,-19.5 608,-19.5 608,-.5 556,-.5"/>
<text text-anchor="middle" x="582" y="-7.5" font-family="FreeSans.ttf" font-size="10.00" fill="#000000">cassert</text>
</g>
<!-- Node0&#45;&gt;Node13 -->
<g id="edge70" class="edge">
<title>Node0&#45;&gt;Node13</title>
<path fill="none" stroke="#191970" d="M326.096,-572.3953C270.3924,-559.4553 187,-529.1243 187,-463.5 187,-463.5 187,-463.5 187,-290 187,-198.8206 218.8365,-170.2302 289,-112 329.2123,-78.627 476.7973,-37.245 545.8831,-19.1683"/>
<polygon fill="#191970" stroke="#191970" points="547.0777,-22.4742 555.8768,-16.5728 545.3181,-15.6989 547.0777,-22.4742"/>
</g>
<!-- Node21 -->
<g id="node22" class="node">
<title>Node21</title>
<g id="a_node22"><a xlink:href="MatrixDynSize_8h.html" target="_top" xlink:title="iDynTree/Core/MatrixDynSize.h">
<polygon fill="none" stroke="#000000" points="401.5,-392.5 401.5,-411.5 568.5,-411.5 568.5,-392.5 401.5,-392.5"/>
<text text-anchor="middle" x="485" y="-399.5" font-family="FreeSans.ttf" font-size="10.00" fill="#000000">iDynTree/Core/MatrixDynSize.h</text>
</a>
</g>
</g>
<!-- Node0&#45;&gt;Node21 -->
<g id="edge66" class="edge">
<title>Node0&#45;&gt;Node21</title>
<path fill="none" stroke="#191970" d="M359.0722,-571.3482C324.1447,-549.004 246.6557,-492.2494 282,-448 290.5722,-437.268 360.5628,-423.0587 415.9961,-413.2876"/>
<polygon fill="#191970" stroke="#191970" points="416.9086,-416.6814 426.1593,-411.5166 415.7068,-409.7854 416.9086,-416.6814"/>
</g>
<!-- Node35 -->
<g id="node36" class="node">
<title>Node35</title>
<polygon fill="none" stroke="#bfbfbf" points="1727.5,-454 1727.5,-473 1804.5,-473 1804.5,-454 1727.5,-454"/>
<text text-anchor="middle" x="1766" y="-461" font-family="FreeSans.ttf" font-size="10.00" fill="#000000">Eigen/Dense</text>
</g>
<!-- Node0&#45;&gt;Node35 -->
<g id="edge71" class="edge">
<title>Node0&#45;&gt;Node35</title>
<path fill="none" stroke="#191970" d="M423.7909,-580.334C610.7055,-577.5744 1281.2135,-565.7078 1492,-535 1578.1507,-522.4494 1676.225,-493.0488 1728.5025,-476.1157"/>
<polygon fill="#191970" stroke="#191970" points="1729.6055,-479.4375 1738.0241,-473.0049 1727.4316,-472.7836 1729.6055,-479.4375"/>
</g>
<!-- Node36 -->
<g id="node37" class="node">
<title>Node36</title>
<g id="a_node37"><a xlink:href="EigenHelpers_8h.html" target="_top" xlink:title="iDynTree/Core/EigenHelpers.h">
<polygon fill="none" stroke="#000000" points="1322.5,-515.5 1322.5,-534.5 1483.5,-534.5 1483.5,-515.5 1322.5,-515.5"/>
<text text-anchor="middle" x="1403" y="-522.5" font-family="FreeSans.ttf" font-size="10.00" fill="#000000">iDynTree/Core/EigenHelpers.h</text>
</a>
</g>
</g>
<!-- Node0&#45;&gt;Node36 -->
<g id="edge72" class="edge">
<title>Node0&#45;&gt;Node36</title>
<path fill="none" stroke="#191970" d="M423.5468,-578.3554C584.3854,-569.5938 1101.5417,-541.4219 1312.3124,-529.9402"/>
<polygon fill="#191970" stroke="#191970" points="1312.6237,-533.4285 1322.4185,-529.3897 1312.2429,-526.4389 1312.6237,-533.4285"/>
</g>
<!-- Node2 -->
<g id="node3" class="node">
<title>Node2</title>
<g id="a_node3"><a xlink:href="Cost_8h.html" target="_top" xlink:title="iDynTree/Cost.h">
<polygon fill="none" stroke="#000000" points="505.5,-224.5 505.5,-243.5 598.5,-243.5 598.5,-224.5 505.5,-224.5"/>
<text text-anchor="middle" x="552" y="-231.5" font-family="FreeSans.ttf" font-size="10.00" fill="#000000">iDynTree/Cost.h</text>
</a>
</g>
</g>
<!-- Node1&#45;&gt;Node2 -->
<g id="edge2" class="edge">
<title>Node1&#45;&gt;Node2</title>
<path fill="none" stroke="#191970" d="M565.6849,-515.4115C569.8602,-506.2959 575.6614,-492.0744 578,-479 580.4259,-465.4375 578.123,-461.7772 578,-448 577.7778,-423.1081 579.1726,-416.7979 577,-392 572.5939,-341.7098 561.8401,-283.1755 555.9748,-253.461"/>
<polygon fill="#191970" stroke="#191970" points="559.3875,-252.6776 553.9896,-243.5609 552.5241,-254.0539 559.3875,-252.6776"/>
</g>
<!-- Node3 -->
<g id="node4" class="node">
<title>Node3</title>
<polygon fill="none" stroke="#bfbfbf" points="764,-112.5 764,-131.5 808,-131.5 808,-112.5 764,-112.5"/>
<text text-anchor="middle" x="786" y="-119.5" font-family="FreeSans.ttf" font-size="10.00" fill="#000000">string</text>
</g>
<!-- Node1&#45;&gt;Node3 -->
<g id="edge65" class="edge">
<title>Node1&#45;&gt;Node3</title>
<path fill="none" stroke="#191970" d="M569.7496,-515.1565C577.1188,-506.3159 587.3385,-492.6605 593,-479 625.677,-400.1548 627,-375.3484 627,-290 627,-290 627,-290 627,-234 627,-196.6561 649.3789,-190.7411 679,-168 701.5318,-150.7015 731.5568,-138.536 754.0655,-131.0793"/>
<polygon fill="#191970" stroke="#191970" points="755.3513,-134.3433 763.8245,-127.983 753.2343,-127.6711 755.3513,-134.3433"/>
</g>
<!-- Node1&#45;&gt;Node5 -->
<g id="edge63" class="edge">
<title>Node1&#45;&gt;Node5</title>
<path fill="none" stroke="#191970" d="M626.855,-523.3395C832.5328,-517.9432 1451.4948,-500.0301 1489,-479 1603.2915,-414.9139 1653,-365.0327 1653,-234 1653,-234 1653,-234 1653,-178 1653,-102.7374 1407.6801,-77.411 1283.8129,-69.4202"/>
<polygon fill="#191970" stroke="#191970" points="1283.861,-65.9164 1273.6624,-68.7866 1283.4249,-72.9028 1283.861,-65.9164"/>
</g>
<!-- Node10 -->
<g id="node11" class="node">
<title>Node10</title>
<g id="a_node11"><a xlink:href="TimeVaryingObject_8h.html" target="_top" xlink:title="iDynTree/TimeVaryingObject.h">
<polygon fill="none" stroke="#000000" points="405,-454 405,-473 569,-473 569,-454 405,-454"/>
<text text-anchor="middle" x="487" y="-461" font-family="FreeSans.ttf" font-size="10.00" fill="#000000">iDynTree/TimeVaryingObject.h</text>
</a>
</g>
</g>
<!-- Node1&#45;&gt;Node10 -->
<g id="edge12" class="edge">
<title>Node1&#45;&gt;Node10</title>
<path fill="none" stroke="#191970" d="M549.4375,-515.3906C537.9921,-505.8786 520.2527,-491.1357 506.603,-479.7917"/>
<polygon fill="#191970" stroke="#191970" points="508.6533,-476.9447 498.7255,-473.2449 504.1792,-482.3283 508.6533,-476.9447"/>
</g>
<!-- Node34 -->
<g id="node35" class="node">
<title>Node34</title>
<polygon fill="none" stroke="#bfbfbf" points="291,-454 291,-473 349,-473 349,-454 291,-454"/>
<text text-anchor="middle" x="320" y="-461" font-family="FreeSans.ttf" font-size="10.00" fill="#000000">memory</text>
</g>
<!-- Node1&#45;&gt;Node34 -->
<g id="edge64" class="edge">
<title>Node1&#45;&gt;Node34</title>
<path fill="none" stroke="#191970" d="M512.9804,-515.4979C472.6258,-507.1191 413.5995,-493.941 363,-479 360.2174,-478.1783 357.3525,-477.2752 354.4855,-476.3307"/>
<polygon fill="#191970" stroke="#191970" points="355.4417,-472.9584 344.847,-473.0177 353.1663,-479.5783 355.4417,-472.9584"/>
</g>
<!-- Node2&#45;&gt;Node3 -->
<g id="edge3" class="edge">
<title>Node2&#45;&gt;Node3</title>
<path fill="none" stroke="#191970" d="M558.2419,-224.3089C568.0948,-209.8112 588.6561,-182.6208 613,-168 666.9702,-135.5858 689.2245,-148.4253 750,-132 751.2681,-131.6573 752.5607,-131.3062 753.8663,-130.9503"/>
<polygon fill="#191970" stroke="#191970" points="755.2145,-134.2095 763.9287,-128.1834 753.3585,-127.4601 755.2145,-134.2095"/>
</g>
<!-- Node4 -->
<g id="node5" class="node">
<title>Node4</title>
<g id="a_node5"><a xlink:href="SparsityStructure_8h.html" target="_top" xlink:title="iDynTree/SparsityStructure.h">
<polygon fill="none" stroke="#000000" points="329.5,-168.5 329.5,-187.5 484.5,-187.5 484.5,-168.5 329.5,-168.5"/>
<text text-anchor="middle" x="407" y="-175.5" font-family="FreeSans.ttf" font-size="10.00" fill="#000000">iDynTree/SparsityStructure.h</text>
</a>
</g>
</g>
<!-- Node2&#45;&gt;Node4 -->
<g id="edge4" class="edge">
<title>Node2&#45;&gt;Node4</title>
<path fill="none" stroke="#191970" d="M527.0736,-224.3733C503.3798,-215.2226 467.5489,-201.3844 441.1932,-191.2057"/>
<polygon fill="#191970" stroke="#191970" points="442.1906,-187.8389 431.6011,-187.5011 439.6686,-194.3689 442.1906,-187.8389"/>
</g>
<!-- Node4&#45;&gt;Node3 -->
<g id="edge11" class="edge">
<title>Node4&#45;&gt;Node3</title>
<path fill="none" stroke="#191970" d="M484.7242,-168.8384C569.8631,-158.5784 700.8531,-142.0717 750,-132 751.2511,-131.7436 752.5226,-131.4675 753.8041,-131.1763"/>
<polygon fill="#191970" stroke="#191970" points="754.7912,-134.5374 763.6475,-128.7222 753.0978,-127.7453 754.7912,-134.5374"/>
</g>
<!-- Node4&#45;&gt;Node5 -->
<g id="edge5" class="edge">
<title>Node4&#45;&gt;Node5</title>
<path fill="none" stroke="#191970" d="M484.7793,-168.8331C560.7304,-159.4202 670.7233,-144.431 712,-132 732.1818,-125.922 734.6731,-117.5736 755,-112 826.4336,-92.4132 1034.2777,-77.1154 1144.1078,-70.1346"/>
<polygon fill="#191970" stroke="#191970" points="1144.3401,-73.627 1154.1003,-69.5053 1143.9001,-66.6408 1144.3401,-73.627"/>
</g>
<!-- Node6 -->
<g id="node7" class="node">
<title>Node6</title>
<polygon fill="none" stroke="#bfbfbf" points="923.5,-.5 923.5,-19.5 976.5,-19.5 976.5,-.5 923.5,-.5"/>
<text text-anchor="middle" x="950" y="-7.5" font-family="FreeSans.ttf" font-size="10.00" fill="#000000">cstddef</text>
</g>
<!-- Node4&#45;&gt;Node6 -->
<g id="edge9" class="edge">
<title>Node4&#45;&gt;Node6</title>
<path fill="none" stroke="#191970" d="M484.6054,-169.0554C536.6458,-161.8845 606.3177,-150.0019 666,-132 687.3434,-125.5622 691.5324,-120.8353 712,-112 785.827,-80.1308 872.681,-42.9987 918.3132,-23.5177"/>
<polygon fill="#191970" stroke="#191970" points="919.8475,-26.6684 927.6708,-19.5236 917.0995,-20.2303 919.8475,-26.6684"/>
</g>
<!-- Node8 -->
<g id="node9" class="node">
<title>Node8</title>
<polygon fill="none" stroke="#bfbfbf" points="298.5,-112.5 298.5,-131.5 345.5,-131.5 345.5,-112.5 298.5,-112.5"/>
<text text-anchor="middle" x="322" y="-119.5" font-family="FreeSans.ttf" font-size="10.00" fill="#000000">vector</text>
</g>
<!-- Node4&#45;&gt;Node8 -->
<g id="edge8" class="edge">
<title>Node4&#45;&gt;Node8</title>
<path fill="none" stroke="#191970" d="M392.1941,-168.2455C379.2744,-159.7337 360.3069,-147.2375 345.3448,-137.3801"/>
<polygon fill="#191970" stroke="#191970" points="346.9124,-134.2216 336.6362,-131.6427 343.0613,-140.067 346.9124,-134.2216"/>
</g>
<!-- Node9 -->
<g id="node10" class="node">
<title>Node9</title>
<polygon fill="none" stroke="#bfbfbf" points="364,-112.5 364,-131.5 450,-131.5 450,-112.5 364,-112.5"/>
<text text-anchor="middle" x="407" y="-119.5" font-family="FreeSans.ttf" font-size="10.00" fill="#000000">unordered_set</text>
</g>
<!-- Node4&#45;&gt;Node9 -->
<g id="edge10" class="edge">
<title>Node4&#45;&gt;Node9</title>
<path fill="none" stroke="#191970" d="M407,-168.2455C407,-160.9382 407,-150.6944 407,-141.7046"/>
<polygon fill="#191970" stroke="#191970" points="410.5001,-141.6426 407,-131.6427 403.5001,-141.6427 410.5001,-141.6426"/>
</g>
<!-- Node5&#45;&gt;Node6 -->
<g id="edge6" class="edge">
<title>Node5&#45;&gt;Node6</title>
<path fill="none" stroke="#191970" d="M1168.9167,-56.4369C1117.4662,-45.5231 1034.3015,-27.8821 986.6589,-17.7761"/>
<polygon fill="#191970" stroke="#191970" points="987.2805,-14.3302 976.7718,-15.6789 985.8279,-21.1778 987.2805,-14.3302"/>
</g>
<!-- Node7 -->
<g id="node8" class="node">
<title>Node7</title>
<polygon fill="none" stroke="#bfbfbf" points="1174,-.5 1174,-19.5 1254,-19.5 1254,-.5 1174,-.5"/>
<text text-anchor="middle" x="1214" y="-7.5" font-family="FreeSans.ttf" font-size="10.00" fill="#000000">CoreExport.h</text>
</g>
<!-- Node5&#45;&gt;Node7 -->
<g id="edge7" class="edge">
<title>Node5&#45;&gt;Node7</title>
<path fill="none" stroke="#191970" d="M1214,-56.2455C1214,-48.9382 1214,-38.6944 1214,-29.7046"/>
<polygon fill="#191970" stroke="#191970" points="1217.5001,-29.6426 1214,-19.6427 1210.5001,-29.6427 1217.5001,-29.6426"/>
</g>
<!-- Node10&#45;&gt;Node11 -->
<g id="edge13" class="edge">
<title>Node10&#45;&gt;Node11</title>
<path fill="none" stroke="#191970" d="M457.7813,-453.8906C425.6693,-443.3298 373.951,-426.3208 338.5392,-414.6747"/>
<polygon fill="#191970" stroke="#191970" points="339.6065,-411.3413 329.0136,-411.5419 337.4196,-417.9909 339.6065,-411.3413"/>
</g>
<!-- Node10&#45;&gt;Node21 -->
<g id="edge25" class="edge">
<title>Node10&#45;&gt;Node21</title>
<path fill="none" stroke="#191970" d="M486.6875,-453.8906C486.4103,-445.3657 485.9964,-432.6392 485.6479,-421.9235"/>
<polygon fill="#191970" stroke="#191970" points="489.1402,-421.6258 485.3169,-411.7449 482.1439,-421.8534 489.1402,-421.6258"/>
</g>
<!-- Node23 -->
<g id="node24" class="node">
<title>Node23</title>
<g id="a_node24"><a xlink:href="Transform_8h.html" target="_top" xlink:title="iDynTree/Core/Transform.h">
<polygon fill="none" stroke="#000000" points="901,-392.5 901,-411.5 1047,-411.5 1047,-392.5 901,-392.5"/>
<text text-anchor="middle" x="974" y="-399.5" font-family="FreeSans.ttf" font-size="10.00" fill="#000000">iDynTree/Core/Transform.h</text>
</a>
</g>
</g>
<!-- Node10&#45;&gt;Node23 -->
<g id="edge32" class="edge">
<title>Node10&#45;&gt;Node23</title>
<path fill="none" stroke="#191970" d="M562.2928,-453.9918C651.2046,-442.7637 798.6283,-424.1465 890.835,-412.5024"/>
<polygon fill="#191970" stroke="#191970" points="891.4833,-415.9484 900.9659,-411.223 890.6062,-409.0035 891.4833,-415.9484"/>
</g>
<!-- Node11&#45;&gt;Node3 -->
<g id="edge24" class="edge">
<title>Node11&#45;&gt;Node3</title>
<path fill="none" stroke="#191970" d="M306.047,-392.3481C329.4871,-355.85 418.5583,-225.4356 529,-168 616.5128,-122.4886 651.53,-152.5745 748,-132 750.0328,-131.5665 752.12,-131.0945 754.2199,-130.5993"/>
<polygon fill="#191970" stroke="#191970" points="755.122,-133.9817 763.9812,-128.1709 753.432,-127.1887 755.122,-133.9817"/>
</g>
<!-- Node11&#45;&gt;Node12 -->
<g id="edge14" class="edge">
<title>Node11&#45;&gt;Node12</title>
<path fill="none" stroke="#191970" d="M287.6153,-392.3714C266.3132,-374.6205 225,-334.4628 225,-290 225,-290 225,-290 225,-178 225,-145.6293 228.366,-108.1294 230.7313,-85.7743"/>
<polygon fill="#191970" stroke="#191970" points="234.239,-85.8948 231.8538,-75.5719 227.281,-85.1291 234.239,-85.8948"/>
</g>
<!-- Node12&#45;&gt;Node6 -->
<g id="edge18" class="edge">
<title>Node12&#45;&gt;Node6</title>
<path fill="none" stroke="#191970" d="M293.5131,-61.2737C437.4031,-50.0355 796.6275,-21.9789 912.9899,-12.8906"/>
<polygon fill="#191970" stroke="#191970" points="913.4668,-16.3641 923.1638,-12.096 912.9216,-9.3854 913.4668,-16.3641"/>
</g>
<!-- Node12&#45;&gt;Node13 -->
<g id="edge15" class="edge">
<title>Node12&#45;&gt;Node13</title>
<path fill="none" stroke="#191970" d="M293.6169,-57.377C353.9138,-48.6268 449.0133,-34.3597 531,-20 535.802,-19.1589 540.8489,-18.2275 545.8233,-17.2812"/>
<polygon fill="#191970" stroke="#191970" points="546.6789,-20.6806 555.8306,-15.3422 545.3474,-13.8084 546.6789,-20.6806"/>
</g>
<!-- Node14 -->
<g id="node15" class="node">
<title>Node14</title>
<polygon fill="none" stroke="#bfbfbf" points="209,-.5 209,-19.5 273,-19.5 273,-.5 209,-.5"/>
<text text-anchor="middle" x="241" y="-7.5" font-family="FreeSans.ttf" font-size="10.00" fill="#000000">algorithm</text>
</g>
<!-- Node12&#45;&gt;Node14 -->
<g id="edge16" class="edge">
<title>Node12&#45;&gt;Node14</title>
<path fill="none" stroke="#191970" d="M234.3935,-56.2455C235.4374,-48.9382 236.9008,-38.6944 238.1851,-29.7046"/>
<polygon fill="#191970" stroke="#191970" points="241.673,-30.0372 239.6225,-19.6427 234.7434,-29.0472 241.673,-30.0372"/>
</g>
<!-- Node15 -->
<g id="node16" class="node">
<title>Node15</title>
<polygon fill="none" stroke="#bfbfbf" points="291,-.5 291,-19.5 333,-19.5 333,-.5 291,-.5"/>
<text text-anchor="middle" x="312" y="-7.5" font-family="FreeSans.ttf" font-size="10.00" fill="#000000">array</text>
</g>
<!-- Node12&#45;&gt;Node15 -->
<g id="edge17" class="edge">
<title>Node12&#45;&gt;Node15</title>
<path fill="none" stroke="#191970" d="M246.7607,-56.2455C258.6552,-47.814 276.065,-35.4729 289.9085,-25.6598"/>
<polygon fill="#191970" stroke="#191970" points="292.2628,-28.2811 298.3969,-19.6427 288.2146,-22.5704 292.2628,-28.2811"/>
</g>
<!-- Node16 -->
<g id="node17" class="node">
<title>Node16</title>
<polygon fill="none" stroke="#bfbfbf" points="351.5,-.5 351.5,-19.5 404.5,-19.5 404.5,-.5 351.5,-.5"/>
<text text-anchor="middle" x="378" y="-7.5" font-family="FreeSans.ttf" font-size="10.00" fill="#000000">iterator</text>
</g>
<!-- Node12&#45;&gt;Node16 -->
<g id="edge19" class="edge">
<title>Node12&#45;&gt;Node16</title>
<path fill="none" stroke="#191970" d="M257.9264,-56.3733C281.6202,-47.2226 317.4511,-33.3844 343.8068,-23.2057"/>
<polygon fill="#191970" stroke="#191970" points="345.3314,-26.3689 353.3989,-19.5011 342.8094,-19.8389 345.3314,-26.3689"/>
</g>
<!-- Node17 -->
<g id="node18" class="node">
<title>Node17</title>
<polygon fill="none" stroke="#bfbfbf" points="0,-.5 0,-19.5 44,-19.5 44,-.5 0,-.5"/>
<text text-anchor="middle" x="22" y="-7.5" font-family="FreeSans.ttf" font-size="10.00" fill="#000000">limits</text>
</g>
<!-- Node12&#45;&gt;Node17 -->
<g id="edge20" class="edge">
<title>Node12&#45;&gt;Node17</title>
<path fill="none" stroke="#191970" d="M192.7726,-56.4745C158.3111,-48.1461 107.1545,-35.3861 54.2046,-20.2325"/>
<polygon fill="#191970" stroke="#191970" points="54.8787,-16.7843 44.3004,-17.3757 52.9386,-23.5101 54.8787,-16.7843"/>
</g>
<!-- Node18 -->
<g id="node19" class="node">
<title>Node18</title>
<polygon fill="none" stroke="#bfbfbf" points="62.5,-.5 62.5,-19.5 127.5,-19.5 127.5,-.5 62.5,-.5"/>
<text text-anchor="middle" x="95" y="-7.5" font-family="FreeSans.ttf" font-size="10.00" fill="#000000">stdexcept</text>
</g>
<!-- Node12&#45;&gt;Node18 -->
<g id="edge21" class="edge">
<title>Node12&#45;&gt;Node18</title>
<path fill="none" stroke="#191970" d="M209.277,-56.3733C186.8263,-47.2629 152.9261,-33.5062 127.8745,-23.3404"/>
<polygon fill="#191970" stroke="#191970" points="128.9957,-20.0182 118.4135,-19.5011 126.3635,-26.5045 128.9957,-20.0182"/>
</g>
<!-- Node19 -->
<g id="node20" class="node">
<title>Node19</title>
<polygon fill="none" stroke="#bfbfbf" points="453.5,-.5 453.5,-19.5 522.5,-19.5 522.5,-.5 453.5,-.5"/>
<text text-anchor="middle" x="488" y="-7.5" font-family="FreeSans.ttf" font-size="10.00" fill="#000000">type_traits</text>
</g>
<!-- Node12&#45;&gt;Node19 -->
<g id="edge22" class="edge">
<title>Node12&#45;&gt;Node19</title>
<path fill="none" stroke="#191970" d="M276.5463,-56.4369C323.0623,-46.2216 396.4157,-30.1126 443.3507,-19.8053"/>
<polygon fill="#191970" stroke="#191970" points="444.2181,-23.1983 453.2346,-17.6348 442.7166,-16.3613 444.2181,-23.1983"/>
</g>
<!-- Node20 -->
<g id="node21" class="node">
<title>Node20</title>
<polygon fill="none" stroke="#bfbfbf" points="145.5,-.5 145.5,-19.5 190.5,-19.5 190.5,-.5 145.5,-.5"/>
<text text-anchor="middle" x="168" y="-7.5" font-family="FreeSans.ttf" font-size="10.00" fill="#000000">utility</text>
</g>
<!-- Node12&#45;&gt;Node20 -->
<g id="edge23" class="edge">
<title>Node12&#45;&gt;Node20</title>
<path fill="none" stroke="#191970" d="M221.6779,-56.2455C212.0777,-47.9746 198.1108,-35.9416 186.8305,-26.2232"/>
<polygon fill="#191970" stroke="#191970" points="189.053,-23.5182 179.1924,-19.6427 184.484,-28.8214 189.053,-23.5182"/>
</g>
<!-- Node21&#45;&gt;Node3 -->
<g id="edge26" class="edge">
<title>Node21&#45;&gt;Node3</title>
<path fill="none" stroke="#191970" d="M482.7245,-392.2403C476.6758,-363.8745 462.8254,-279.9196 496,-224 519.845,-183.8065 541.766,-185.7461 585,-168 653.6335,-139.8283 675.8896,-149.4439 748,-132 750.0203,-131.5113 752.0979,-130.9973 754.1907,-130.4708"/>
<polygon fill="#191970" stroke="#191970" points="755.1208,-133.8456 763.9346,-127.9661 753.3781,-127.066 755.1208,-133.8456"/>
</g>
<!-- Node22 -->
<g id="node23" class="node">
<title>Node22</title>
<g id="a_node23"><a xlink:href="MatrixView_8h.html" target="_top" xlink:title="iDynTree/Core/MatrixView.h">
<polygon fill="none" stroke="#000000" points="506.5,-112.5 506.5,-131.5 657.5,-131.5 657.5,-112.5 506.5,-112.5"/>
<text text-anchor="middle" x="582" y="-119.5" font-family="FreeSans.ttf" font-size="10.00" fill="#000000">iDynTree/Core/MatrixView.h</text>
</a>
</g>
</g>
<!-- Node21&#45;&gt;Node22 -->
<g id="edge27" class="edge">
<title>Node21&#45;&gt;Node22</title>
<path fill="none" stroke="#191970" d="M429.2946,-392.4119C375.1386,-379.5185 301,-350.7701 301,-290 301,-290 301,-290 301,-234 301,-203.4754 297.2976,-188.4048 320,-168 333.1767,-156.1568 424.6962,-141.9835 495.9025,-132.529"/>
<polygon fill="#191970" stroke="#191970" points="496.7906,-135.9424 506.2492,-131.1691 495.8784,-129.0021 496.7906,-135.9424"/>
</g>
<!-- Node22&#45;&gt;Node5 -->
<g id="edge31" class="edge">
<title>Node22&#45;&gt;Node5</title>
<path fill="none" stroke="#191970" d="M657.6062,-115.3007C781.1314,-104.3554 1024.4246,-82.7978 1144.1263,-72.1913"/>
<polygon fill="#191970" stroke="#191970" points="1144.6197,-75.6614 1154.2717,-71.2924 1144.0018,-68.6887 1144.6197,-75.6614"/>
</g>
<!-- Node22&#45;&gt;Node12 -->
<g id="edge30" class="edge">
<title>Node22&#45;&gt;Node12</title>
<path fill="none" stroke="#191970" d="M522.4013,-112.4369C461.4179,-102.6516 366.7308,-87.4582 302.4061,-77.1368"/>
<polygon fill="#191970" stroke="#191970" points="302.7811,-73.6523 292.3529,-75.5237 301.672,-80.5639 302.7811,-73.6523"/>
</g>
<!-- Node22&#45;&gt;Node13 -->
<g id="edge28" class="edge">
<title>Node22&#45;&gt;Node13</title>
<path fill="none" stroke="#191970" d="M582,-112.4509C582,-94.184 582,-53.9553 582,-29.6976"/>
<polygon fill="#191970" stroke="#191970" points="585.5001,-29.5249 582,-19.5249 578.5001,-29.5249 585.5001,-29.5249"/>
</g>
<!-- Node22&#45;&gt;Node19 -->
<g id="edge29" class="edge">
<title>Node22&#45;&gt;Node19</title>
<path fill="none" stroke="#191970" d="M573.9856,-112.4509C558.1688,-93.6054 522.7337,-51.3849 502.6387,-27.4419"/>
<polygon fill="#191970" stroke="#191970" points="505.1038,-24.9346 495.9941,-19.5249 499.7419,-29.4347 505.1038,-24.9346"/>
</g>
<!-- Node23&#45;&gt;Node3 -->
<g id="edge62" class="edge">
<title>Node23&#45;&gt;Node3</title>
<path fill="none" stroke="#191970" d="M912.2119,-392.4805C822.0378,-376.8184 665,-342.0682 665,-290 665,-290 665,-290 665,-234 665,-185.1254 718.8254,-151.6239 754.6772,-134.7303"/>
<polygon fill="#191970" stroke="#191970" points="756.1384,-137.9108 763.8067,-130.6001 753.2531,-131.5331 756.1384,-137.9108"/>
</g>
<!-- Node24 -->
<g id="node25" class="node">
<title>Node24</title>
<g id="a_node25"><a xlink:href="Position_8h.html" target="_top" xlink:title="iDynTree/Core/Position.h">
<polygon fill="none" stroke="#000000" points="858,-336.5 858,-355.5 994,-355.5 994,-336.5 858,-336.5"/>
<text text-anchor="middle" x="926" y="-343.5" font-family="FreeSans.ttf" font-size="10.00" fill="#000000">iDynTree/Core/Position.h</text>
</a>
</g>
</g>
<!-- Node23&#45;&gt;Node24 -->
<g id="edge33" class="edge">
<title>Node23&#45;&gt;Node24</title>
<path fill="none" stroke="#191970" d="M965.639,-392.2455C958.825,-384.2958 949.0319,-372.8706 940.8848,-363.3656"/>
<polygon fill="#191970" stroke="#191970" points="943.4305,-360.9575 934.2651,-355.6427 938.1157,-365.513 943.4305,-360.9575"/>
</g>
<!-- Node29 -->
<g id="node30" class="node">
<title>Node29</title>
<g id="a_node30"><a xlink:href="Rotation_8h.html" target="_top" xlink:title="iDynTree/Core/Rotation.h">
<polygon fill="none" stroke="#000000" points="953.5,-280.5 953.5,-299.5 1090.5,-299.5 1090.5,-280.5 953.5,-280.5"/>
<text text-anchor="middle" x="1022" y="-287.5" font-family="FreeSans.ttf" font-size="10.00" fill="#000000">iDynTree/Core/Rotation.h</text>
</a>
</g>
</g>
<!-- Node23&#45;&gt;Node29 -->
<g id="edge60" class="edge">
<title>Node23&#45;&gt;Node29</title>
<path fill="none" stroke="#191970" d="M981.3106,-392.2298C987.7667,-383.2183 997.0532,-369.2668 1003,-356 1009.7062,-341.0392 1014.6897,-323.1095 1017.8664,-309.7161"/>
<polygon fill="#191970" stroke="#191970" points="1021.3401,-310.2203 1020.1081,-299.6973 1014.509,-308.6918 1021.3401,-310.2203"/>
</g>
<!-- Node32 -->
<g id="node33" class="node">
<title>Node32</title>
<g id="a_node33"><a xlink:href="MatrixFixSize_8h.html" target="_top" xlink:title="iDynTree/Core/MatrixFixSize.h">
<polygon fill="none" stroke="#000000" points="1086.5,-168.5 1086.5,-187.5 1247.5,-187.5 1247.5,-168.5 1086.5,-168.5"/>
<text text-anchor="middle" x="1167" y="-175.5" font-family="FreeSans.ttf" font-size="10.00" fill="#000000">iDynTree/Core/MatrixFixSize.h</text>
</a>
</g>
</g>
<!-- Node23&#45;&gt;Node32 -->
<g id="edge61" class="edge">
<title>Node23&#45;&gt;Node32</title>
<path fill="none" stroke="#191970" d="M990.5188,-392.4282C1025.9559,-370.9329 1109.1993,-315.0978 1148,-244 1155.854,-229.6086 1160.7523,-211.6366 1163.6042,-198.0821"/>
<polygon fill="#191970" stroke="#191970" points="1167.1086,-198.3887 1165.5385,-187.9108 1160.2318,-197.0809 1167.1086,-198.3887"/>
</g>
<!-- Node24&#45;&gt;Node3 -->
<g id="edge59" class="edge">
<title>Node24&#45;&gt;Node3</title>
<path fill="none" stroke="#191970" d="M875.5049,-336.4628C826.6684,-324.2637 755.3078,-297.8932 722,-244 699.4367,-207.4918 739.9471,-162.2243 766.1963,-138.4132"/>
<polygon fill="#191970" stroke="#191970" points="768.5883,-140.9707 773.7991,-131.7458 763.9729,-135.7078 768.5883,-140.9707"/>
</g>
<!-- Node25 -->
<g id="node26" class="node">
<title>Node25</title>
<g id="a_node26"><a xlink:href="PositionRaw_8h.html" target="_top" xlink:title="iDynTree/Core/PositionRaw.h">
<polygon fill="none" stroke="#000000" points="731,-224.5 731,-243.5 887,-243.5 887,-224.5 731,-224.5"/>
<text text-anchor="middle" x="809" y="-231.5" font-family="FreeSans.ttf" font-size="10.00" fill="#000000">iDynTree/Core/PositionRaw.h</text>
</a>
</g>
</g>
<!-- Node24&#45;&gt;Node25 -->
<g id="edge34" class="edge">
<title>Node24&#45;&gt;Node25</title>
<path fill="none" stroke="#191970" d="M916.0246,-336.4509C896.0787,-317.3574 851.0675,-274.2697 826.2432,-250.5063"/>
<polygon fill="#191970" stroke="#191970" points="828.5941,-247.9116 818.9501,-243.5249 823.7536,-252.9683 828.5941,-247.9116"/>
</g>
<!-- Node24&#45;&gt;Node29 -->
<g id="edge44" class="edge">
<title>Node24&#45;&gt;Node29</title>
<path fill="none" stroke="#191970" d="M942.7219,-336.2455C957.5889,-327.5731 979.5466,-314.7645 996.5858,-304.825"/>
<polygon fill="#191970" stroke="#191970" points="998.5955,-307.7047 1005.4697,-299.6427 995.0683,-301.6582 998.5955,-307.7047"/>
</g>
<!-- Node25&#45;&gt;Node3 -->
<g id="edge43" class="edge">
<title>Node25&#45;&gt;Node3</title>
<path fill="none" stroke="#191970" d="M807.039,-224.4509C803.2708,-206.1013 794.9517,-165.5908 789.9776,-141.3693"/>
<polygon fill="#191970" stroke="#191970" points="793.3961,-140.6164 787.956,-131.5249 786.5392,-142.0246 793.3961,-140.6164"/>
</g>
<!-- Node26 -->
<g id="node27" class="node">
<title>Node26</title>
<g id="a_node27"><a xlink:href="VectorFixSize_8h.html" target="_top" xlink:title="iDynTree/Core/VectorFixSize.h">
<polygon fill="none" stroke="#000000" points="907.5,-168.5 907.5,-187.5 1068.5,-187.5 1068.5,-168.5 907.5,-168.5"/>
<text text-anchor="middle" x="988" y="-175.5" font-family="FreeSans.ttf" font-size="10.00" fill="#000000">iDynTree/Core/VectorFixSize.h</text>
</a>
</g>
</g>
<!-- Node25&#45;&gt;Node26 -->
<g id="edge35" class="edge">
<title>Node25&#45;&gt;Node26</title>
<path fill="none" stroke="#191970" d="M839.7712,-224.3733C869.665,-215.021 915.2093,-200.7725 947.9217,-190.5385"/>
<polygon fill="#191970" stroke="#191970" points="949.1315,-193.8273 957.6303,-187.5011 947.0414,-187.1466 949.1315,-193.8273"/>
</g>
<!-- Node26&#45;&gt;Node3 -->
<g id="edge38" class="edge">
<title>Node26&#45;&gt;Node3</title>
<path fill="none" stroke="#191970" d="M953.6624,-168.4915C920.0923,-159.1939 867.5308,-144.6322 822,-132 820.7343,-131.6488 819.4435,-131.2906 818.1396,-130.9288"/>
<polygon fill="#191970" stroke="#191970" points="818.656,-127.4398 808.0841,-128.1368 816.7832,-134.1846 818.656,-127.4398"/>
</g>
<!-- Node26&#45;&gt;Node5 -->
<g id="edge36" class="edge">
<title>Node26&#45;&gt;Node5</title>
<path fill="none" stroke="#191970" d="M987.8817,-168.3701C988.2563,-153.9523 991.1895,-126.8649 1007,-112 1026.7073,-93.4713 1091.9992,-81.0571 1144.0475,-73.843"/>
<polygon fill="#191970" stroke="#191970" points="1144.8188,-77.2709 1154.2631,-72.4693 1143.8858,-70.3333 1144.8188,-77.2709"/>
</g>
<!-- Node26&#45;&gt;Node6 -->
<g id="edge41" class="edge">
<title>Node26&#45;&gt;Node6</title>
<path fill="none" stroke="#191970" d="M985.8481,-168.4862C979.8152,-141.8144 962.6467,-65.9117 954.4548,-29.695"/>
<polygon fill="#191970" stroke="#191970" points="957.843,-28.8093 952.223,-19.8279 951.0155,-30.3537 957.843,-28.8093"/>
</g>
<!-- Node26&#45;&gt;Node12 -->
<g id="edge37" class="edge">
<title>Node26&#45;&gt;Node12</title>
<path fill="none" stroke="#191970" d="M907.3592,-174.2561C788.3422,-168.0843 571.6811,-154.2001 497,-132 478.7059,-126.5618 476.9759,-118.4121 459,-112 408.5116,-93.9904 349.0233,-82.2371 303.7556,-75.1219"/>
<polygon fill="#191970" stroke="#191970" points="304.1537,-71.6421 293.7388,-73.5864 303.093,-78.5613 304.1537,-71.6421"/>
</g>
<!-- Node26&#45;&gt;Node13 -->
<g id="edge40" class="edge">
<title>Node26&#45;&gt;Node13</title>
<path fill="none" stroke="#191970" d="M965.0084,-168.4862C896.5594,-140.1625 693.9427,-56.3211 614.4891,-23.4438"/>
<polygon fill="#191970" stroke="#191970" points="615.5689,-20.1028 604.9904,-19.5133 612.8924,-26.5709 615.5689,-20.1028"/>
</g>
<!-- Node27 -->
<g id="node28" class="node">
<title>Node27</title>
<polygon fill="none" stroke="#bfbfbf" points="1130,-112.5 1130,-131.5 1186,-131.5 1186,-112.5 1130,-112.5"/>
<text text-anchor="middle" x="1158" y="-119.5" font-family="FreeSans.ttf" font-size="10.00" fill="#000000">sstream</text>
</g>
<!-- Node26&#45;&gt;Node27 -->
<g id="edge39" class="edge">
<title>Node26&#45;&gt;Node27</title>
<path fill="none" stroke="#191970" d="M1017.224,-168.3733C1045.6638,-159.0049 1089.0183,-144.7234 1120.0974,-134.4856"/>
<polygon fill="#191970" stroke="#191970" points="1121.3193,-137.7681 1129.7222,-131.315 1119.1292,-131.1196 1121.3193,-137.7681"/>
</g>
<!-- Node28 -->
<g id="node29" class="node">
<title>Node28</title>
<polygon fill="none" stroke="#bfbfbf" points="1016,-112.5 1016,-131.5 1066,-131.5 1066,-112.5 1016,-112.5"/>
<text text-anchor="middle" x="1041" y="-119.5" font-family="FreeSans.ttf" font-size="10.00" fill="#000000">cstring</text>
</g>
<!-- Node26&#45;&gt;Node28 -->
<g id="edge42" class="edge">
<title>Node26&#45;&gt;Node28</title>
<path fill="none" stroke="#191970" d="M997.2319,-168.2455C1004.8317,-160.2155 1015.7877,-148.6394 1024.8368,-139.0781"/>
<polygon fill="#191970" stroke="#191970" points="1027.5421,-141.3115 1031.8739,-131.6427 1022.458,-136.4998 1027.5421,-141.3115"/>
</g>
<!-- Node29&#45;&gt;Node3 -->
<g id="edge45" class="edge">
<title>Node29&#45;&gt;Node3</title>
<path fill="none" stroke="#191970" d="M1003.7721,-280.4163C972.3475,-263.548 906.4895,-226.661 856,-188 836.2673,-172.8902 815.8248,-153.0479 802.164,-139.0792"/>
<polygon fill="#191970" stroke="#191970" points="804.4232,-136.3799 794.9611,-131.6135 799.3856,-141.2403 804.4232,-136.3799"/>
</g>
<!-- Node29&#45;&gt;Node26 -->
<g id="edge58" class="edge">
<title>Node29&#45;&gt;Node26</title>
<path fill="none" stroke="#191970" d="M1005.5823,-280.2212C993.7924,-272.1641 978.8253,-259.5536 972,-244 965.3553,-228.858 970.7935,-210.4978 977.0697,-196.9903"/>
<polygon fill="#191970" stroke="#191970" points="980.3676,-198.2319 981.8462,-187.7407 974.148,-195.02 980.3676,-198.2319"/>
</g>
<!-- Node30 -->
<g id="node31" class="node">
<title>Node30</title>
<g id="a_node31"><a xlink:href="GeomVector3_8h.html" target="_top" xlink:title="iDynTree/Core/GeomVector3.h">
<polygon fill="none" stroke="#000000" points="1233.5,-224.5 1233.5,-243.5 1396.5,-243.5 1396.5,-224.5 1233.5,-224.5"/>
<text text-anchor="middle" x="1315" y="-231.5" font-family="FreeSans.ttf" font-size="10.00" fill="#000000">iDynTree/Core/GeomVector3.h</text>
</a>
</g>
</g>
<!-- Node29&#45;&gt;Node30 -->
<g id="edge46" class="edge">
<title>Node29&#45;&gt;Node30</title>
<path fill="none" stroke="#191970" d="M1072.0356,-280.4369C1122.707,-270.7522 1201.0948,-255.7703 1255.0559,-245.4569"/>
<polygon fill="#191970" stroke="#191970" points="1256.0057,-248.8388 1265.1708,-243.5237 1254.6915,-241.9633 1256.0057,-248.8388"/>
</g>
<!-- Node31 -->
<g id="node32" class="node">
<title>Node31</title>
<g id="a_node32"><a xlink:href="RotationRaw_8h.html" target="_top" xlink:title="iDynTree/Core/RotationRaw.h">
<polygon fill="none" stroke="#000000" points="981,-224.5 981,-243.5 1139,-243.5 1139,-224.5 981,-224.5"/>
<text text-anchor="middle" x="1060" y="-231.5" font-family="FreeSans.ttf" font-size="10.00" fill="#000000">iDynTree/Core/RotationRaw.h</text>
</a>
</g>
</g>
<!-- Node29&#45;&gt;Node31 -->
<g id="edge48" class="edge">
<title>Node29&#45;&gt;Node31</title>
<path fill="none" stroke="#191970" d="M1028.6191,-280.2455C1033.9046,-272.4564 1041.4541,-261.3308 1047.8238,-251.9439"/>
<polygon fill="#191970" stroke="#191970" points="1050.7379,-253.8827 1053.4568,-243.6427 1044.9455,-249.9522 1050.7379,-253.8827"/>
</g>
<!-- Node30&#45;&gt;Node26 -->
<g id="edge47" class="edge">
<title>Node30&#45;&gt;Node26</title>
<path fill="none" stroke="#191970" d="M1259.1582,-224.4369C1202.2542,-214.6918 1114.0304,-199.5832 1053.7764,-189.2645"/>
<polygon fill="#191970" stroke="#191970" points="1054.0588,-185.7619 1043.6114,-187.5237 1052.8771,-192.6615 1054.0588,-185.7619"/>
</g>
<!-- Node31&#45;&gt;Node3 -->
<g id="edge57" class="edge">
<title>Node31&#45;&gt;Node3</title>
<path fill="none" stroke="#191970" d="M1014.9405,-224.4807C981.8342,-216.7082 936.1645,-204.3424 898,-188 865.1415,-173.9296 830.0731,-152.0084 808.1051,-137.3353"/>
<polygon fill="#191970" stroke="#191970" points="809.7799,-134.2425 799.537,-131.5347 805.8556,-140.0391 809.7799,-134.2425"/>
</g>
<!-- Node31&#45;&gt;Node32 -->
<g id="edge49" class="edge">
<title>Node31&#45;&gt;Node32</title>
<path fill="none" stroke="#191970" d="M1078.638,-224.2455C1095.4386,-215.4527 1120.3634,-202.4079 1139.4618,-192.4125"/>
<polygon fill="#191970" stroke="#191970" points="1141.3386,-195.3807 1148.5756,-187.6427 1138.0927,-189.1787 1141.3386,-195.3807"/>
</g>
<!-- Node32&#45;&gt;Node3 -->
<g id="edge54" class="edge">
<title>Node32&#45;&gt;Node3</title>
<path fill="none" stroke="#191970" d="M1101.9367,-168.4369C1019.5626,-156.3294 880.8593,-135.9426 818.3108,-126.7491"/>
<polygon fill="#191970" stroke="#191970" points="818.6483,-123.2612 808.2456,-125.2697 817.6303,-130.1868 818.6483,-123.2612"/>
</g>
<!-- Node32&#45;&gt;Node5 -->
<g id="edge50" class="edge">
<title>Node32&#45;&gt;Node5</title>
<path fill="none" stroke="#191970" d="M1174.0375,-168.1905C1180.2568,-159.1525 1189.2141,-145.1841 1195,-132 1201.5885,-116.987 1206.5807,-99.0611 1209.7908,-85.6825"/>
<polygon fill="#191970" stroke="#191970" points="1213.2613,-86.2047 1212.0639,-75.6777 1206.4352,-84.6537 1213.2613,-86.2047"/>
</g>
<!-- Node32&#45;&gt;Node13 -->
<g id="edge52" class="edge">
<title>Node32&#45;&gt;Node13</title>
<path fill="none" stroke="#191970" d="M1156.8606,-168.4838C1140.8015,-153.9633 1107.9458,-126.4432 1075,-112 913.9847,-41.4119 701.6341,-18.7783 618.026,-12.3197"/>
<polygon fill="#191970" stroke="#191970" points="618.2505,-8.8268 608.0189,-11.5772 617.7325,-15.8076 618.2505,-8.8268"/>
</g>
<!-- Node32&#45;&gt;Node22 -->
<g id="edge51" class="edge">
<title>Node32&#45;&gt;Node22</title>
<path fill="none" stroke="#191970" d="M1086.0543,-168.9365C1082.9979,-168.6164 1079.9716,-168.3031 1077,-168 933.5355,-153.3649 766.477,-138.2382 667.7386,-129.4961"/>
<polygon fill="#191970" stroke="#191970" points="667.7859,-125.9867 657.5165,-128.5922 667.1693,-132.9595 667.7859,-125.9867"/>
</g>
<!-- Node32&#45;&gt;Node27 -->
<g id="edge56" class="edge">
<title>Node32&#45;&gt;Node27</title>
<path fill="none" stroke="#191970" d="M1165.4323,-168.2455C1164.2579,-160.9382 1162.6116,-150.6944 1161.1668,-141.7046"/>
<polygon fill="#191970" stroke="#191970" points="1164.5922,-140.9606 1159.5497,-131.6427 1157.6809,-142.0714 1164.5922,-140.9606"/>
</g>
<!-- Node32&#45;&gt;Node28 -->
<g id="edge53" class="edge">
<title>Node32&#45;&gt;Node28</title>
<path fill="none" stroke="#191970" d="M1145.3398,-168.3733C1125.0228,-159.3435 1094.436,-145.7494 1071.625,-135.6111"/>
<polygon fill="#191970" stroke="#191970" points="1072.9372,-132.3642 1062.3775,-131.5011 1070.0941,-138.7609 1072.9372,-132.3642"/>
</g>
<!-- Node33 -->
<g id="node34" class="node">
<title>Node33</title>
<polygon fill="none" stroke="#bfbfbf" points="1376,-112.5 1376,-131.5 1436,-131.5 1436,-112.5 1376,-112.5"/>
<text text-anchor="middle" x="1406" y="-119.5" font-family="FreeSans.ttf" font-size="10.00" fill="#000000">iostream</text>
</g>
<!-- Node32&#45;&gt;Node33 -->
<g id="edge55" class="edge">
<title>Node32&#45;&gt;Node33</title>
<path fill="none" stroke="#191970" d="M1207.814,-168.4369C1252.0943,-158.0616 1322.3225,-141.6064 1366.2013,-131.3252"/>
<polygon fill="#191970" stroke="#191970" points="1367.013,-134.7299 1375.9508,-129.0408 1365.416,-127.9145 1367.013,-134.7299"/>
</g>
<!-- Node36&#45;&gt;Node5 -->
<g id="edge94" class="edge">
<title>Node36&#45;&gt;Node5</title>
<path fill="none" stroke="#191970" d="M1460.4264,-515.4214C1505.8041,-506.9489 1564.6135,-493.679 1584,-479 1678.7291,-407.2733 1691,-352.8205 1691,-234 1691,-234 1691,-234 1691,-178 1691,-146.7875 1691.6268,-131.1766 1667,-112 1637.4553,-88.9938 1403.4843,-74.8439 1283.883,-69.0436"/>
<polygon fill="#191970" stroke="#191970" points="1283.8806,-65.5396 1273.7247,-68.5577 1283.546,-72.5316 1283.8806,-65.5396"/>
</g>
<!-- Node36&#45;&gt;Node6 -->
<g id="edge73" class="edge">
<title>Node36&#45;&gt;Node6</title>
<path fill="none" stroke="#191970" d="M1469.5589,-515.4624C1522.5328,-506.9911 1591.6764,-493.701 1616,-479 1758.3301,-392.9766 1814.5958,-221.0118 1689,-112 1635.2594,-65.3554 1129.1392,-23.6238 986.977,-12.7473"/>
<polygon fill="#191970" stroke="#191970" points="986.858,-9.2282 976.6216,-11.9605 986.3277,-16.2081 986.858,-9.2282"/>
</g>
<!-- Node36&#45;&gt;Node11 -->
<g id="edge75" class="edge">
<title>Node36&#45;&gt;Node11</title>
<path fill="none" stroke="#191970" d="M1322.273,-524.2181C1098.5496,-521.6441 481.4191,-511.6378 396,-479 375.6397,-471.2205 374.9834,-461.6611 358,-448 345.5511,-437.9863 331.5159,-426.8509 320.3704,-418.0444"/>
<polygon fill="#191970" stroke="#191970" points="322.5031,-415.2688 312.4849,-411.8211 318.1665,-420.7638 322.5031,-415.2688"/>
</g>
<!-- Node36&#45;&gt;Node21 -->
<g id="edge77" class="edge">
<title>Node36&#45;&gt;Node21</title>
<path fill="none" stroke="#191970" d="M1331.73,-515.4507C1163.6431,-492.9293 743.305,-436.6095 565.959,-412.8474"/>
<polygon fill="#191970" stroke="#191970" points="566.2853,-409.36 555.9091,-411.5009 565.3557,-416.298 566.2853,-409.36"/>
</g>
<!-- Node36&#45;&gt;Node23 -->
<g id="edge93" class="edge">
<title>Node36&#45;&gt;Node23</title>
<path fill="none" stroke="#191970" d="M1324.0902,-515.4698C1273.6066,-508.1987 1207.1119,-496.425 1150,-479 1095.4159,-462.3462 1035.1708,-433.5551 1001.2179,-416.2918"/>
<polygon fill="#191970" stroke="#191970" points="1002.4571,-412.9937 991.9625,-411.5393 999.2595,-419.2207 1002.4571,-412.9937"/>
</g>
<!-- Node36&#45;&gt;Node26 -->
<g id="edge76" class="edge">
<title>Node36&#45;&gt;Node26</title>
<path fill="none" stroke="#191970" d="M1435.588,-515.4798C1454.0849,-508.3905 1476.0598,-496.8065 1489,-479 1557.27,-385.0562 1536.4516,-274.7551 1432,-224 1363.3273,-190.6305 1170.8632,-195.9588 1078.7196,-188.0623"/>
<polygon fill="#191970" stroke="#191970" points="1078.8137,-184.5554 1068.5259,-187.0874 1078.1473,-191.5236 1078.8137,-184.5554"/>
</g>
<!-- Node36&#45;&gt;Node32 -->
<g id="edge78" class="edge">
<title>Node36&#45;&gt;Node32</title>
<path fill="none" stroke="#191970" d="M1461.429,-515.4928C1501.2105,-507.6903 1548.7826,-495.2816 1561,-479 1614.1267,-408.2002 1598.4206,-355.9739 1553,-280 1531.4704,-243.9879 1515.7878,-239.997 1477,-224 1438.4297,-208.0927 1334.815,-194.7357 1257.9322,-186.5823"/>
<polygon fill="#191970" stroke="#191970" points="1258.0566,-183.0763 1247.7465,-185.5158 1257.3276,-190.0383 1258.0566,-183.0763"/>
</g>
<!-- Node36&#45;&gt;Node35 -->
<g id="edge74" class="edge">
<title>Node36&#45;&gt;Node35</title>
<path fill="none" stroke="#191970" d="M1483.5145,-516.1277C1546.4131,-508.458 1635.8063,-495.9312 1713,-479 1717.2139,-478.0757 1721.584,-476.9975 1725.9252,-475.8479"/>
<polygon fill="#191970" stroke="#191970" points="1727.2154,-479.1222 1735.915,-473.0751 1725.3432,-472.3772 1727.2154,-479.1222"/>
</g>
<!-- Node37 -->
<g id="node38" class="node">
<title>Node37</title>
<g id="a_node38"><a xlink:href="SpatialMotionVector_8h.html" target="_top" xlink:title="iDynTree/Core/SpatialMotion\lVector.h">
<polygon fill="none" stroke="#000000" points="1325.5,-448.5 1325.5,-478.5 1480.5,-478.5 1480.5,-448.5 1325.5,-448.5"/>
<text text-anchor="start" x="1333.5" y="-466.5" font-family="FreeSans.ttf" font-size="10.00" fill="#000000">iDynTree/Core/SpatialMotion</text>
<text text-anchor="middle" x="1403" y="-455.5" font-family="FreeSans.ttf" font-size="10.00" fill="#000000">Vector.h</text>
</a>
</g>
</g>
<!-- Node36&#45;&gt;Node37 -->
<g id="edge79" class="edge">
<title>Node36&#45;&gt;Node37</title>
<path fill="none" stroke="#191970" d="M1403,-515.3906C1403,-508.2234 1403,-498.0862 1403,-488.671"/>
<polygon fill="#191970" stroke="#191970" points="1406.5001,-488.5446 1403,-478.5446 1399.5001,-488.5446 1406.5001,-488.5446"/>
</g>
<!-- Node39 -->
<g id="node40" class="node">
<title>Node39</title>
<g id="a_node40"><a xlink:href="SpatialForceVector_8h.html" target="_top" xlink:title="iDynTree/Core/SpatialForce\lVector.h">
<polygon fill="none" stroke="#000000" points="1159,-448.5 1159,-478.5 1307,-478.5 1307,-448.5 1159,-448.5"/>
<text text-anchor="start" x="1167" y="-466.5" font-family="FreeSans.ttf" font-size="10.00" fill="#000000">iDynTree/Core/SpatialForce</text>
<text text-anchor="middle" x="1233" y="-455.5" font-family="FreeSans.ttf" font-size="10.00" fill="#000000">Vector.h</text>
</a>
</g>
</g>
<!-- Node36&#45;&gt;Node39 -->
<g id="edge89" class="edge">
<title>Node36&#45;&gt;Node39</title>
<path fill="none" stroke="#191970" d="M1376.4375,-515.3906C1351.8323,-506.4893 1314.5649,-493.0073 1284.1839,-482.0165"/>
<polygon fill="#191970" stroke="#191970" points="1285.1809,-478.6553 1274.5867,-478.5446 1282.7996,-485.2378 1285.1809,-478.6553"/>
</g>
<!-- Node37&#45;&gt;Node26 -->
<g id="edge80" class="edge">
<title>Node37&#45;&gt;Node26</title>
<path fill="none" stroke="#191970" d="M1441.1614,-448.471C1456.7613,-440.2068 1473.1865,-428.2664 1482,-412 1499.9161,-378.9337 1517.3644,-305.0993 1405,-224 1347.865,-182.7626 1164.9569,-195.0096 1078.5707,-188.0114"/>
<polygon fill="#191970" stroke="#191970" points="1078.8153,-184.5189 1068.5292,-187.0576 1078.1534,-191.4876 1078.8153,-184.5189"/>
</g>
<!-- Node37&#45;&gt;Node30 -->
<g id="edge81" class="edge">
<title>Node37&#45;&gt;Node30</title>
<path fill="none" stroke="#191970" d="M1349.2339,-448.4745C1331.3524,-440.6361 1313.3707,-429.006 1303,-412 1272.3102,-361.6742 1293.8824,-287.8009 1306.9734,-253.2037"/>
<polygon fill="#191970" stroke="#191970" points="1310.2706,-254.3835 1310.6967,-243.7972 1303.7619,-251.8072 1310.2706,-254.3835"/>
</g>
<!-- Node38 -->
<g id="node39" class="node">
<title>Node38</title>
<g id="a_node39"><a xlink:href="SpatialVector_8h.html" target="_top" xlink:title="iDynTree/Core/SpatialVector.h">
<polygon fill="none" stroke="#000000" points="1312.5,-392.5 1312.5,-411.5 1473.5,-411.5 1473.5,-392.5 1312.5,-392.5"/>
<text text-anchor="middle" x="1393" y="-399.5" font-family="FreeSans.ttf" font-size="10.00" fill="#000000">iDynTree/Core/SpatialVector.h</text>
</a>
</g>
</g>
<!-- Node37&#45;&gt;Node38 -->
<g id="edge82" class="edge">
<title>Node37&#45;&gt;Node38</title>
<path fill="none" stroke="#191970" d="M1400.5281,-448.2977C1399.2267,-440.2945 1397.6153,-430.3843 1396.2177,-421.7889"/>
<polygon fill="#191970" stroke="#191970" points="1399.6608,-421.1555 1394.6011,-411.8469 1392.7515,-422.2791 1399.6608,-421.1555"/>
</g>
<!-- Node38&#45;&gt;Node5 -->
<g id="edge85" class="edge">
<title>Node38&#45;&gt;Node5</title>
<path fill="none" stroke="#191970" d="M1429.908,-392.4962C1493.0346,-373.767 1615,-325.7134 1615,-234 1615,-234 1615,-234 1615,-178 1615,-110.0278 1398.5684,-81.4792 1283.7137,-71.1147"/>
<polygon fill="#191970" stroke="#191970" points="1283.8689,-67.6149 1273.6008,-70.2254 1283.2557,-74.588 1283.8689,-67.6149"/>
</g>
<!-- Node38&#45;&gt;Node24 -->
<g id="edge83" class="edge">
<title>Node38&#45;&gt;Node24</title>
<path fill="none" stroke="#191970" d="M1313.5153,-392.4686C1227.109,-382.1073 1089.9117,-365.6554 1004.0662,-355.3613"/>
<polygon fill="#191970" stroke="#191970" points="1004.4627,-351.8838 994.1171,-354.1682 1003.6292,-358.834 1004.4627,-351.8838"/>
</g>
<!-- Node38&#45;&gt;Node27 -->
<g id="edge88" class="edge">
<title>Node38&#45;&gt;Node27</title>
<path fill="none" stroke="#191970" d="M1397.3504,-392.4688C1409.6228,-364.0186 1441.3373,-278.3194 1405,-224 1358.0093,-153.7551 1252.8288,-131.8327 1196.0637,-125.0303"/>
<polygon fill="#191970" stroke="#191970" points="1196.3759,-121.5436 1186.0528,-123.9279 1195.6096,-128.5016 1196.3759,-121.5436"/>
</g>
<!-- Node38&#45;&gt;Node29 -->
<g id="edge84" class="edge">
<title>Node38&#45;&gt;Node29</title>
<path fill="none" stroke="#191970" d="M1361.3687,-392.4509C1294.4251,-372.2415 1138.4396,-325.1516 1063.5609,-302.5467"/>
<polygon fill="#191970" stroke="#191970" points="1064.136,-299.0644 1053.5512,-299.5249 1062.1129,-305.7656 1064.136,-299.0644"/>
</g>
<!-- Node38&#45;&gt;Node30 -->
<g id="edge86" class="edge">
<title>Node38&#45;&gt;Node30</title>
<path fill="none" stroke="#191970" d="M1388.5829,-392.4862C1376.1462,-365.6994 1340.6548,-289.2565 1323.9277,-253.2289"/>
<polygon fill="#191970" stroke="#191970" points="1326.9486,-251.4241 1319.5629,-243.8279 1320.5996,-254.3719 1326.9486,-251.4241"/>
</g>
<!-- Node38&#45;&gt;Node33 -->
<g id="edge87" class="edge">
<title>Node38&#45;&gt;Node33</title>
<path fill="none" stroke="#191970" d="M1401.9883,-392.3099C1428.3457,-363.6222 1504.2615,-278.9497 1515,-244 1524.9207,-211.7119 1533.6725,-196.1474 1515,-168 1499.7495,-145.0111 1470.4976,-133.4826 1446.1341,-127.7169"/>
<polygon fill="#191970" stroke="#191970" points="1446.555,-124.2286 1436.047,-125.5822 1445.1056,-131.0769 1446.555,-124.2286"/>
</g>
<!-- Node39&#45;&gt;Node26 -->
<g id="edge90" class="edge">
<title>Node39&#45;&gt;Node26</title>
<path fill="none" stroke="#191970" d="M1226.9244,-448.1922C1218.6894,-426.0275 1205,-383.5372 1205,-346 1205,-346 1205,-346 1205,-290 1205,-229.7601 1138.1493,-201.8876 1078.6573,-189.0101"/>
<polygon fill="#191970" stroke="#191970" points="1079.3012,-185.5694 1068.8028,-186.9958 1077.8993,-192.4276 1079.3012,-185.5694"/>
</g>
<!-- Node39&#45;&gt;Node30 -->
<g id="edge91" class="edge">
<title>Node39&#45;&gt;Node30</title>
<path fill="none" stroke="#191970" d="M1232.7527,-448.2039C1232.854,-415.3512 1236.5293,-336.4534 1267,-280 1273.2755,-268.3733 1283.5359,-257.9471 1292.9629,-249.9724"/>
<polygon fill="#191970" stroke="#191970" points="1295.28,-252.6011 1300.9115,-243.6268 1290.9127,-247.1305 1295.28,-252.6011"/>
</g>
<!-- Node39&#45;&gt;Node38 -->
<g id="edge92" class="edge">
<title>Node39&#45;&gt;Node38</title>
<path fill="none" stroke="#191970" d="M1272.1404,-448.4554C1298.6026,-438.284 1333.2181,-424.9787 1358.6183,-415.2155"/>
<polygon fill="#191970" stroke="#191970" points="1360.1272,-418.3852 1368.2057,-411.5303 1357.6157,-411.8512 1360.1272,-418.3852"/>
</g>
</g>
</svg>
