<?xml version="1.0" encoding="UTF-8" standalone="no"?>
<!DOCTYPE svg PUBLIC "-//W3C//DTD SVG 1.1//EN"
 "http://www.w3.org/Graphics/SVG/1.1/DTD/svg11.dtd">
<!-- Generated by graphviz version 2.40.1 (20161225.0304)
 -->
<!-- Title: LinearCost.cpp Pages: 1 -->
<svg width="1148pt" height="644pt"
 viewBox="0.00 0.00 1147.50 644.00" xmlns="http://www.w3.org/2000/svg" xmlns:xlink="http://www.w3.org/1999/xlink">
<g id="graph0" class="graph" transform="scale(1 1) rotate(0) translate(4 640)">
<title>LinearCost.cpp</title>
<!-- Node0 -->
<g id="node1" class="node">
<title>Node0</title>
<polygon fill="#bfbfbf" stroke="#000000" points="1003,-616.5 1003,-635.5 1092,-635.5 1092,-616.5 1003,-616.5"/>
<text text-anchor="middle" x="1047.5" y="-623.5" font-family="FreeSans.ttf" font-size="10.00" fill="#000000">LinearCost.cpp</text>
</g>
<!-- Node1 -->
<g id="node2" class="node">
<title>Node1</title>
<g id="a_node2"><a xlink:href="LinearCost_8h.html" target="_top" xlink:title="iDynTree/LinearCost.h">
<polygon fill="none" stroke="#000000" points="911,-560.5 911,-579.5 1034,-579.5 1034,-560.5 911,-560.5"/>
<text text-anchor="middle" x="972.5" y="-567.5" font-family="FreeSans.ttf" font-size="10.00" fill="#000000">iDynTree/LinearCost.h</text>
</a>
</g>
</g>
<!-- Node0&#45;&gt;Node1 -->
<g id="edge1" class="edge">
<title>Node0&#45;&gt;Node1</title>
<path fill="none" stroke="#191970" d="M1034.436,-616.2455C1023.1438,-607.814 1006.6155,-595.4729 993.4729,-585.6598"/>
<polygon fill="#191970" stroke="#191970" points="995.5211,-582.8211 985.4143,-579.6427 991.3331,-588.4301 995.5211,-582.8211"/>
</g>
<!-- Node6 -->
<g id="node7" class="node">
<title>Node6</title>
<g id="a_node7"><a xlink:href="Utils_8h.html" target="_top" xlink:title="iDynTree/Core/Utils.h">
<polygon fill="none" stroke="#000000" points="538,-56.5 538,-75.5 657,-75.5 657,-56.5 538,-56.5"/>
<text text-anchor="middle" x="597.5" y="-63.5" font-family="FreeSans.ttf" font-size="10.00" fill="#000000">iDynTree/Core/Utils.h</text>
</a>
</g>
</g>
<!-- Node0&#45;&gt;Node6 -->
<g id="edge66" class="edge">
<title>Node0&#45;&gt;Node6</title>
<path fill="none" stroke="#191970" d="M1063.9478,-616.232C1090.4102,-599.1274 1139.5,-561.0556 1139.5,-514 1139.5,-514 1139.5,-514 1139.5,-178 1139.5,-144.3717 1130.7144,-130.2979 1102.5,-112 1066.8568,-88.8842 797.8665,-74.4754 667.6776,-68.7851"/>
<polygon fill="#191970" stroke="#191970" points="667.555,-65.2766 657.4133,-68.342 667.253,-72.2701 667.555,-65.2766"/>
</g>
<!-- Node2 -->
<g id="node3" class="node">
<title>Node2</title>
<g id="a_node3"><a xlink:href="QuadraticLikeCost_8h.html" target="_top" xlink:title="iDynTree/QuadraticLikeCost.h">
<polygon fill="none" stroke="#000000" points="892,-504.5 892,-523.5 1053,-523.5 1053,-504.5 892,-504.5"/>
<text text-anchor="middle" x="972.5" y="-511.5" font-family="FreeSans.ttf" font-size="10.00" fill="#000000">iDynTree/QuadraticLikeCost.h</text>
</a>
</g>
</g>
<!-- Node1&#45;&gt;Node2 -->
<g id="edge2" class="edge">
<title>Node1&#45;&gt;Node2</title>
<path fill="none" stroke="#191970" d="M972.5,-560.2455C972.5,-552.9382 972.5,-542.6944 972.5,-533.7046"/>
<polygon fill="#191970" stroke="#191970" points="976.0001,-533.6426 972.5,-523.6427 969.0001,-533.6427 976.0001,-533.6426"/>
</g>
<!-- Node11 -->
<g id="node12" class="node">
<title>Node11</title>
<g id="a_node12"><a xlink:href="TimeVaryingObject_8h.html" target="_top" xlink:title="iDynTree/TimeVaryingObject.h">
<polygon fill="none" stroke="#000000" points="780.5,-448.5 780.5,-467.5 944.5,-467.5 944.5,-448.5 780.5,-448.5"/>
<text text-anchor="middle" x="862.5" y="-455.5" font-family="FreeSans.ttf" font-size="10.00" fill="#000000">iDynTree/TimeVaryingObject.h</text>
</a>
</g>
</g>
<!-- Node1&#45;&gt;Node11 -->
<g id="edge65" class="edge">
<title>Node1&#45;&gt;Node11</title>
<path fill="none" stroke="#191970" d="M939.6269,-560.4233C920.4646,-553.2689 897.2431,-541.6369 882.5,-524 871.5936,-510.9529 866.6328,-492.0674 864.3775,-477.838"/>
<polygon fill="#191970" stroke="#191970" points="867.8131,-477.1072 863.0869,-467.625 860.8683,-477.9849 867.8131,-477.1072"/>
</g>
<!-- Node3 -->
<g id="node4" class="node">
<title>Node3</title>
<g id="a_node4"><a xlink:href="Cost_8h.html" target="_top" xlink:title="iDynTree/Cost.h">
<polygon fill="none" stroke="#000000" points="926,-224.5 926,-243.5 1019,-243.5 1019,-224.5 926,-224.5"/>
<text text-anchor="middle" x="972.5" y="-231.5" font-family="FreeSans.ttf" font-size="10.00" fill="#000000">iDynTree/Cost.h</text>
</a>
</g>
</g>
<!-- Node2&#45;&gt;Node3 -->
<g id="edge3" class="edge">
<title>Node2&#45;&gt;Node3</title>
<path fill="none" stroke="#191970" d="M972.5,-504.4116C972.5,-485.0538 972.5,-439.9167 972.5,-402 972.5,-402 972.5,-402 972.5,-346 972.5,-313.7116 972.5,-276.1872 972.5,-253.8048"/>
<polygon fill="#191970" stroke="#191970" points="976.0001,-253.5883 972.5,-243.5884 969.0001,-253.5884 976.0001,-253.5883"/>
</g>
<!-- Node2&#45;&gt;Node11 -->
<g id="edge13" class="edge">
<title>Node2&#45;&gt;Node11</title>
<path fill="none" stroke="#191970" d="M953.3395,-504.2455C935.9889,-495.4125 910.2099,-482.2887 890.5417,-472.2758"/>
<polygon fill="#191970" stroke="#191970" points="891.9405,-469.0605 881.441,-467.6427 888.7647,-475.2986 891.9405,-469.0605"/>
</g>
<!-- Node35 -->
<g id="node36" class="node">
<title>Node35</title>
<polygon fill="none" stroke="#bfbfbf" points="1000.5,-448.5 1000.5,-467.5 1058.5,-467.5 1058.5,-448.5 1000.5,-448.5"/>
<text text-anchor="middle" x="1029.5" y="-455.5" font-family="FreeSans.ttf" font-size="10.00" fill="#000000">memory</text>
</g>
<!-- Node2&#45;&gt;Node35 -->
<g id="edge64" class="edge">
<title>Node2&#45;&gt;Node35</title>
<path fill="none" stroke="#191970" d="M982.4286,-504.2455C990.6838,-496.1352 1002.6209,-484.4075 1012.4082,-474.7919"/>
<polygon fill="#191970" stroke="#191970" points="1015.0046,-477.1476 1019.6851,-467.6427 1010.0989,-472.1542 1015.0046,-477.1476"/>
</g>
<!-- Node4 -->
<g id="node5" class="node">
<title>Node4</title>
<polygon fill="none" stroke="#bfbfbf" points="664.5,-112.5 664.5,-131.5 708.5,-131.5 708.5,-112.5 664.5,-112.5"/>
<text text-anchor="middle" x="686.5" y="-119.5" font-family="FreeSans.ttf" font-size="10.00" fill="#000000">string</text>
</g>
<!-- Node3&#45;&gt;Node4 -->
<g id="edge4" class="edge">
<title>Node3&#45;&gt;Node4</title>
<path fill="none" stroke="#191970" d="M965.93,-224.1512C955.5651,-209.4475 933.9572,-181.9917 908.5,-168 876.1621,-150.2266 772.1041,-133.8121 718.7321,-126.3004"/>
<polygon fill="#191970" stroke="#191970" points="719.1558,-122.8257 708.7698,-124.9189 718.1943,-129.7594 719.1558,-122.8257"/>
</g>
<!-- Node5 -->
<g id="node6" class="node">
<title>Node5</title>
<g id="a_node6"><a xlink:href="SparsityStructure_8h.html" target="_top" xlink:title="iDynTree/SparsityStructure.h">
<polygon fill="none" stroke="#000000" points="956,-168.5 956,-187.5 1111,-187.5 1111,-168.5 956,-168.5"/>
<text text-anchor="middle" x="1033.5" y="-175.5" font-family="FreeSans.ttf" font-size="10.00" fill="#000000">iDynTree/SparsityStructure.h</text>
</a>
</g>
</g>
<!-- Node3&#45;&gt;Node5 -->
<g id="edge5" class="edge">
<title>Node3&#45;&gt;Node5</title>
<path fill="none" stroke="#191970" d="M983.1254,-224.2455C992.0473,-216.0549 1004.988,-204.1749 1015.5192,-194.5069"/>
<polygon fill="#191970" stroke="#191970" points="1017.9968,-196.9837 1022.9964,-187.6427 1013.2629,-191.8271 1017.9968,-196.9837"/>
</g>
<!-- Node5&#45;&gt;Node4 -->
<g id="edge12" class="edge">
<title>Node5&#45;&gt;Node4</title>
<path fill="none" stroke="#191970" d="M974.2428,-168.4369C900.4409,-156.5265 776.9929,-136.604 718.7638,-127.2068"/>
<polygon fill="#191970" stroke="#191970" points="719.1067,-123.717 708.6768,-125.579 717.9914,-130.6276 719.1067,-123.717"/>
</g>
<!-- Node5&#45;&gt;Node6 -->
<g id="edge6" class="edge">
<title>Node5&#45;&gt;Node6</title>
<path fill="none" stroke="#191970" d="M996.3269,-168.4509C917.0915,-148.0969 731.7106,-100.4761 644.4677,-78.0651"/>
<polygon fill="#191970" stroke="#191970" points="645.1354,-74.623 634.579,-75.5249 643.3937,-81.4029 645.1354,-74.623"/>
</g>
<!-- Node7 -->
<g id="node8" class="node">
<title>Node7</title>
<polygon fill="none" stroke="#bfbfbf" points="741,-.5 741,-19.5 794,-19.5 794,-.5 741,-.5"/>
<text text-anchor="middle" x="767.5" y="-7.5" font-family="FreeSans.ttf" font-size="10.00" fill="#000000">cstddef</text>
</g>
<!-- Node5&#45;&gt;Node7 -->
<g id="edge10" class="edge">
<title>Node5&#45;&gt;Node7</title>
<path fill="none" stroke="#191970" d="M1008.702,-168.4122C987.8016,-159.9341 957.4068,-146.6612 932.5,-132 876.6134,-99.1028 816.7792,-51.3054 786.868,-26.4307"/>
<polygon fill="#191970" stroke="#191970" points="788.8309,-23.5093 778.9175,-19.7709 784.3359,-28.8754 788.8309,-23.5093"/>
</g>
<!-- Node9 -->
<g id="node10" class="node">
<title>Node9</title>
<polygon fill="none" stroke="#bfbfbf" points="942,-112.5 942,-131.5 989,-131.5 989,-112.5 942,-112.5"/>
<text text-anchor="middle" x="965.5" y="-119.5" font-family="FreeSans.ttf" font-size="10.00" fill="#000000">vector</text>
</g>
<!-- Node5&#45;&gt;Node9 -->
<g id="edge9" class="edge">
<title>Node5&#45;&gt;Node9</title>
<path fill="none" stroke="#191970" d="M1021.6553,-168.2455C1011.612,-159.9746 997.0005,-147.9416 985.1996,-138.2232"/>
<polygon fill="#191970" stroke="#191970" points="987.1533,-135.298 977.209,-131.6427 982.7033,-140.7015 987.1533,-135.298"/>
</g>
<!-- Node10 -->
<g id="node11" class="node">
<title>Node10</title>
<polygon fill="none" stroke="#bfbfbf" points="1007.5,-112.5 1007.5,-131.5 1093.5,-131.5 1093.5,-112.5 1007.5,-112.5"/>
<text text-anchor="middle" x="1050.5" y="-119.5" font-family="FreeSans.ttf" font-size="10.00" fill="#000000">unordered_set</text>
</g>
<!-- Node5&#45;&gt;Node10 -->
<g id="edge11" class="edge">
<title>Node5&#45;&gt;Node10</title>
<path fill="none" stroke="#191970" d="M1036.4612,-168.2455C1038.7038,-160.8579 1041.8577,-150.4689 1044.6081,-141.4087"/>
<polygon fill="#191970" stroke="#191970" points="1048.017,-142.2282 1047.5728,-131.6427 1041.3188,-140.1948 1048.017,-142.2282"/>
</g>
<!-- Node6&#45;&gt;Node7 -->
<g id="edge7" class="edge">
<title>Node6&#45;&gt;Node7</title>
<path fill="none" stroke="#191970" d="M626.724,-56.3733C655.6778,-46.8356 700.0902,-32.2056 731.2702,-21.9345"/>
<polygon fill="#191970" stroke="#191970" points="732.4894,-25.218 740.8923,-18.7649 730.2992,-18.5694 732.4894,-25.218"/>
</g>
<!-- Node8 -->
<g id="node9" class="node">
<title>Node8</title>
<polygon fill="none" stroke="#bfbfbf" points="642.5,-.5 642.5,-19.5 722.5,-19.5 722.5,-.5 642.5,-.5"/>
<text text-anchor="middle" x="682.5" y="-7.5" font-family="FreeSans.ttf" font-size="10.00" fill="#000000">CoreExport.h</text>
</g>
<!-- Node6&#45;&gt;Node8 -->
<g id="edge8" class="edge">
<title>Node6&#45;&gt;Node8</title>
<path fill="none" stroke="#191970" d="M612.3059,-56.2455C625.2256,-47.7337 644.1931,-35.2375 659.1552,-25.3801"/>
<polygon fill="#191970" stroke="#191970" points="661.4387,-28.067 667.8638,-19.6427 657.5876,-22.2216 661.4387,-28.067"/>
</g>
<!-- Node12 -->
<g id="node13" class="node">
<title>Node12</title>
<g id="a_node13"><a xlink:href="VectorDynSize_8h.html" target="_top" xlink:title="iDynTree/Core/VectorDynSize.h">
<polygon fill="none" stroke="#000000" points="733,-168.5 733,-187.5 900,-187.5 900,-168.5 733,-168.5"/>
<text text-anchor="middle" x="816.5" y="-175.5" font-family="FreeSans.ttf" font-size="10.00" fill="#000000">iDynTree/Core/VectorDynSize.h</text>
</a>
</g>
</g>
<!-- Node11&#45;&gt;Node12 -->
<g id="edge14" class="edge">
<title>Node11&#45;&gt;Node12</title>
<path fill="none" stroke="#191970" d="M864.9357,-448.4856C869.6363,-429.2608 879.5,-384.351 879.5,-346 879.5,-346 879.5,-346 879.5,-290 879.5,-252.3823 852.1684,-215.7298 833.5098,-195.0908"/>
<polygon fill="#191970" stroke="#191970" points="836.0181,-192.649 826.622,-187.7535 830.9144,-197.4399 836.0181,-192.649"/>
</g>
<!-- Node22 -->
<g id="node23" class="node">
<title>Node22</title>
<g id="a_node23"><a xlink:href="MatrixDynSize_8h.html" target="_top" xlink:title="iDynTree/Core/MatrixDynSize.h">
<polygon fill="none" stroke="#000000" points="0,-168.5 0,-187.5 167,-187.5 167,-168.5 0,-168.5"/>
<text text-anchor="middle" x="83.5" y="-175.5" font-family="FreeSans.ttf" font-size="10.00" fill="#000000">iDynTree/Core/MatrixDynSize.h</text>
</a>
</g>
</g>
<!-- Node11&#45;&gt;Node22 -->
<g id="edge26" class="edge">
<title>Node11&#45;&gt;Node22</title>
<path fill="none" stroke="#191970" d="M780.3366,-454.4086C583.5587,-444.7139 101.5,-414.0226 101.5,-346 101.5,-346 101.5,-346 101.5,-290 101.5,-257.1472 93.8569,-219.5528 88.5316,-197.3462"/>
<polygon fill="#191970" stroke="#191970" points="91.8935,-196.3622 86.079,-187.5055 85.1013,-198.0551 91.8935,-196.3622"/>
</g>
<!-- Node24 -->
<g id="node25" class="node">
<title>Node24</title>
<g id="a_node25"><a xlink:href="Transform_8h.html" target="_top" xlink:title="iDynTree/Core/Transform.h">
<polygon fill="none" stroke="#000000" points="556.5,-392.5 556.5,-411.5 702.5,-411.5 702.5,-392.5 556.5,-392.5"/>
<text text-anchor="middle" x="629.5" y="-399.5" font-family="FreeSans.ttf" font-size="10.00" fill="#000000">iDynTree/Core/Transform.h</text>
</a>
</g>
</g>
<!-- Node11&#45;&gt;Node24 -->
<g id="edge33" class="edge">
<title>Node11&#45;&gt;Node24</title>
<path fill="none" stroke="#191970" d="M822.7106,-448.4369C783.002,-438.8932 721.8896,-424.2052 679.0545,-413.9101"/>
<polygon fill="#191970" stroke="#191970" points="679.6663,-410.4575 669.1253,-411.5237 678.0305,-417.2637 679.6663,-410.4575"/>
</g>
<!-- Node12&#45;&gt;Node4 -->
<g id="edge25" class="edge">
<title>Node12&#45;&gt;Node4</title>
<path fill="none" stroke="#191970" d="M794.1522,-168.3733C773.0967,-159.3032 741.3505,-145.6279 717.7825,-135.4755"/>
<polygon fill="#191970" stroke="#191970" points="719.125,-132.243 708.5562,-131.5011 716.3556,-138.6719 719.125,-132.243"/>
</g>
<!-- Node13 -->
<g id="node14" class="node">
<title>Node13</title>
<g id="a_node14"><a xlink:href="Span_8h.html" target="_top" xlink:title="iDynTree/Core/Span.h">
<polygon fill="none" stroke="#000000" points="399,-56.5 399,-75.5 520,-75.5 520,-56.5 399,-56.5"/>
<text text-anchor="middle" x="459.5" y="-63.5" font-family="FreeSans.ttf" font-size="10.00" fill="#000000">iDynTree/Core/Span.h</text>
</a>
</g>
</g>
<!-- Node12&#45;&gt;Node13 -->
<g id="edge15" class="edge">
<title>Node12&#45;&gt;Node13</title>
<path fill="none" stroke="#191970" d="M805.4968,-168.4C788.0924,-153.7672 752.5741,-126.0995 717.5,-112 700.3243,-105.0955 600.7163,-88.3789 530.4265,-77.1163"/>
<polygon fill="#191970" stroke="#191970" points="530.7087,-73.6171 520.2818,-75.496 529.6046,-80.5295 530.7087,-73.6171"/>
</g>
<!-- Node13&#45;&gt;Node7 -->
<g id="edge19" class="edge">
<title>Node13&#45;&gt;Node7</title>
<path fill="none" stroke="#191970" d="M520.2068,-56.4841C583.3268,-46.4653 678.9601,-30.9066 730.7797,-19.935"/>
<polygon fill="#191970" stroke="#191970" points="731.819,-23.2906 740.841,-17.736 730.3243,-16.452 731.819,-23.2906"/>
</g>
<!-- Node14 -->
<g id="node15" class="node">
<title>Node14</title>
<polygon fill="none" stroke="#bfbfbf" points="149.5,-.5 149.5,-19.5 201.5,-19.5 201.5,-.5 149.5,-.5"/>
<text text-anchor="middle" x="175.5" y="-7.5" font-family="FreeSans.ttf" font-size="10.00" fill="#000000">cassert</text>
</g>
<!-- Node13&#45;&gt;Node14 -->
<g id="edge16" class="edge">
<title>Node13&#45;&gt;Node14</title>
<path fill="none" stroke="#191970" d="M399.0394,-56.494C350.6809,-48.5115 280.9801,-36.1607 211.5896,-20.0978"/>
<polygon fill="#191970" stroke="#191970" points="212.3372,-16.6783 201.8027,-17.8067 210.7416,-23.494 212.3372,-16.6783"/>
</g>
<!-- Node15 -->
<g id="node16" class="node">
<title>Node15</title>
<polygon fill="none" stroke="#bfbfbf" points="500.5,-.5 500.5,-19.5 564.5,-19.5 564.5,-.5 500.5,-.5"/>
<text text-anchor="middle" x="532.5" y="-7.5" font-family="FreeSans.ttf" font-size="10.00" fill="#000000">algorithm</text>
</g>
<!-- Node13&#45;&gt;Node15 -->
<g id="edge17" class="edge">
<title>Node13&#45;&gt;Node15</title>
<path fill="none" stroke="#191970" d="M472.2156,-56.2455C483.102,-47.8943 498.9883,-35.7076 511.72,-25.9408"/>
<polygon fill="#191970" stroke="#191970" points="514.1261,-28.5063 519.9301,-19.6427 509.8654,-22.9523 514.1261,-28.5063"/>
</g>
<!-- Node16 -->
<g id="node17" class="node">
<title>Node16</title>
<polygon fill="none" stroke="#bfbfbf" points="582.5,-.5 582.5,-19.5 624.5,-19.5 624.5,-.5 582.5,-.5"/>
<text text-anchor="middle" x="603.5" y="-7.5" font-family="FreeSans.ttf" font-size="10.00" fill="#000000">array</text>
</g>
<!-- Node13&#45;&gt;Node16 -->
<g id="edge18" class="edge">
<title>Node13&#45;&gt;Node16</title>
<path fill="none" stroke="#191970" d="M484.2545,-56.3733C508.7831,-46.8343 546.4096,-32.2018 572.8214,-21.9306"/>
<polygon fill="#191970" stroke="#191970" points="574.2927,-25.1138 582.3442,-18.2273 571.7555,-18.5898 574.2927,-25.1138"/>
</g>
<!-- Node17 -->
<g id="node18" class="node">
<title>Node17</title>
<polygon fill="none" stroke="#bfbfbf" points="220,-.5 220,-19.5 273,-19.5 273,-.5 220,-.5"/>
<text text-anchor="middle" x="246.5" y="-7.5" font-family="FreeSans.ttf" font-size="10.00" fill="#000000">iterator</text>
</g>
<!-- Node13&#45;&gt;Node17 -->
<g id="edge20" class="edge">
<title>Node13&#45;&gt;Node17</title>
<path fill="none" stroke="#191970" d="M422.1591,-56.4884C388.3351,-47.8296 336.8808,-34.5514 282.9588,-20.0927"/>
<polygon fill="#191970" stroke="#191970" points="283.7885,-16.6916 273.2228,-17.4764 281.9718,-23.4518 283.7885,-16.6916"/>
</g>
<!-- Node18 -->
<g id="node19" class="node">
<title>Node18</title>
<polygon fill="none" stroke="#bfbfbf" points="291.5,-.5 291.5,-19.5 335.5,-19.5 335.5,-.5 291.5,-.5"/>
<text text-anchor="middle" x="313.5" y="-7.5" font-family="FreeSans.ttf" font-size="10.00" fill="#000000">limits</text>
</g>
<!-- Node13&#45;&gt;Node18 -->
<g id="edge21" class="edge">
<title>Node13&#45;&gt;Node18</title>
<path fill="none" stroke="#191970" d="M434.4017,-56.3733C409.8216,-46.9453 372.2687,-32.5414 345.5434,-22.2906"/>
<polygon fill="#191970" stroke="#191970" points="346.4707,-18.8977 335.8804,-18.5843 343.9638,-25.4334 346.4707,-18.8977"/>
</g>
<!-- Node19 -->
<g id="node20" class="node">
<title>Node19</title>
<polygon fill="none" stroke="#bfbfbf" points="354,-.5 354,-19.5 419,-19.5 419,-.5 354,-.5"/>
<text text-anchor="middle" x="386.5" y="-7.5" font-family="FreeSans.ttf" font-size="10.00" fill="#000000">stdexcept</text>
</g>
<!-- Node13&#45;&gt;Node19 -->
<g id="edge22" class="edge">
<title>Node13&#45;&gt;Node19</title>
<path fill="none" stroke="#191970" d="M446.7844,-56.2455C435.898,-47.8943 420.0117,-35.7076 407.28,-25.9408"/>
<polygon fill="#191970" stroke="#191970" points="409.1346,-22.9523 399.0699,-19.6427 404.8739,-28.5063 409.1346,-22.9523"/>
</g>
<!-- Node20 -->
<g id="node21" class="node">
<title>Node20</title>
<polygon fill="none" stroke="#bfbfbf" points="59,-.5 59,-19.5 128,-19.5 128,-.5 59,-.5"/>
<text text-anchor="middle" x="93.5" y="-7.5" font-family="FreeSans.ttf" font-size="10.00" fill="#000000">type_traits</text>
</g>
<!-- Node13&#45;&gt;Node20 -->
<g id="edge23" class="edge">
<title>Node13&#45;&gt;Node20</title>
<path fill="none" stroke="#191970" d="M398.7467,-58.4602C334.4218,-50.192 230.0151,-35.9588 140.5,-20 139.7454,-19.8655 138.9845,-19.7277 138.2186,-19.5872"/>
<polygon fill="#191970" stroke="#191970" points="138.582,-16.0928 128.0999,-17.6339 137.2552,-22.9659 138.582,-16.0928"/>
</g>
<!-- Node21 -->
<g id="node22" class="node">
<title>Node21</title>
<polygon fill="none" stroke="#bfbfbf" points="437,-.5 437,-19.5 482,-19.5 482,-.5 437,-.5"/>
<text text-anchor="middle" x="459.5" y="-7.5" font-family="FreeSans.ttf" font-size="10.00" fill="#000000">utility</text>
</g>
<!-- Node13&#45;&gt;Node21 -->
<g id="edge24" class="edge">
<title>Node13&#45;&gt;Node21</title>
<path fill="none" stroke="#191970" d="M459.5,-56.2455C459.5,-48.9382 459.5,-38.6944 459.5,-29.7046"/>
<polygon fill="#191970" stroke="#191970" points="463.0001,-29.6426 459.5,-19.6427 456.0001,-29.6427 463.0001,-29.6426"/>
</g>
<!-- Node22&#45;&gt;Node4 -->
<g id="edge27" class="edge">
<title>Node22&#45;&gt;Node4</title>
<path fill="none" stroke="#191970" d="M167.2301,-168.8325C170.0195,-168.5483 172.7821,-168.27 175.5,-168 356.3978,-150.028 573.6335,-131.4757 654.2991,-124.6905"/>
<polygon fill="#191970" stroke="#191970" points="654.6506,-128.1734 664.3227,-123.8489 654.0648,-121.198 654.6506,-128.1734"/>
</g>
<!-- Node23 -->
<g id="node24" class="node">
<title>Node23</title>
<g id="a_node24"><a xlink:href="MatrixView_8h.html" target="_top" xlink:title="iDynTree/Core/MatrixView.h">
<polygon fill="none" stroke="#000000" points="0,-112.5 0,-131.5 151,-131.5 151,-112.5 0,-112.5"/>
<text text-anchor="middle" x="75.5" y="-119.5" font-family="FreeSans.ttf" font-size="10.00" fill="#000000">iDynTree/Core/MatrixView.h</text>
</a>
</g>
</g>
<!-- Node22&#45;&gt;Node23 -->
<g id="edge28" class="edge">
<title>Node22&#45;&gt;Node23</title>
<path fill="none" stroke="#191970" d="M82.1065,-168.2455C81.0626,-160.9382 79.5992,-150.6944 78.3149,-141.7046"/>
<polygon fill="#191970" stroke="#191970" points="81.7566,-141.0472 76.8775,-131.6427 74.827,-142.0372 81.7566,-141.0472"/>
</g>
<!-- Node23&#45;&gt;Node6 -->
<g id="edge32" class="edge">
<title>Node23&#45;&gt;Node6</title>
<path fill="none" stroke="#191970" d="M151.3546,-115.2955C239.3056,-107.2964 388.8879,-92.9985 527.7065,-76.0534"/>
<polygon fill="#191970" stroke="#191970" points="528.1829,-79.5213 537.6819,-74.8288 527.3299,-72.5735 528.1829,-79.5213"/>
</g>
<!-- Node23&#45;&gt;Node13 -->
<g id="edge31" class="edge">
<title>Node23&#45;&gt;Node13</title>
<path fill="none" stroke="#191970" d="M141.0756,-112.4369C209.9823,-102.388 317.9973,-86.6358 388.7786,-76.3135"/>
<polygon fill="#191970" stroke="#191970" points="389.5522,-79.7378 398.9425,-74.8313 388.542,-72.8111 389.5522,-79.7378"/>
</g>
<!-- Node23&#45;&gt;Node14 -->
<g id="edge29" class="edge">
<title>Node23&#45;&gt;Node14</title>
<path fill="none" stroke="#191970" d="M84.0259,-112.4509C100.9262,-93.5227 138.8803,-51.014 160.2072,-27.1279"/>
<polygon fill="#191970" stroke="#191970" points="162.9462,-29.3154 166.9956,-19.5249 157.7247,-24.6532 162.9462,-29.3154"/>
</g>
<!-- Node23&#45;&gt;Node20 -->
<g id="edge30" class="edge">
<title>Node23&#45;&gt;Node20</title>
<path fill="none" stroke="#191970" d="M77.0347,-112.4509C79.9704,-94.184 86.4358,-53.9553 90.3343,-29.6976"/>
<polygon fill="#191970" stroke="#191970" points="93.838,-29.9536 91.9692,-19.5249 86.9267,-28.8428 93.838,-29.9536"/>
</g>
<!-- Node24&#45;&gt;Node4 -->
<g id="edge63" class="edge">
<title>Node24&#45;&gt;Node4</title>
<path fill="none" stroke="#191970" d="M629.5,-392.4116C629.5,-373.0538 629.5,-327.9167 629.5,-290 629.5,-290 629.5,-290 629.5,-234 629.5,-197.1826 654.2675,-160.2377 671.1501,-139.3313"/>
<polygon fill="#191970" stroke="#191970" points="673.8511,-141.5574 677.5938,-131.6456 668.4869,-137.06 673.8511,-141.5574"/>
</g>
<!-- Node25 -->
<g id="node26" class="node">
<title>Node25</title>
<g id="a_node26"><a xlink:href="Position_8h.html" target="_top" xlink:title="iDynTree/Core/Position.h">
<polygon fill="none" stroke="#000000" points="662.5,-336.5 662.5,-355.5 798.5,-355.5 798.5,-336.5 662.5,-336.5"/>
<text text-anchor="middle" x="730.5" y="-343.5" font-family="FreeSans.ttf" font-size="10.00" fill="#000000">iDynTree/Core/Position.h</text>
</a>
</g>
</g>
<!-- Node24&#45;&gt;Node25 -->
<g id="edge34" class="edge">
<title>Node24&#45;&gt;Node25</title>
<path fill="none" stroke="#191970" d="M647.0929,-392.2455C662.879,-383.4928 686.2639,-370.527 704.2587,-360.5496"/>
<polygon fill="#191970" stroke="#191970" points="706.0603,-363.5528 713.1087,-355.6427 702.6659,-357.4308 706.0603,-363.5528"/>
</g>
<!-- Node30 -->
<g id="node31" class="node">
<title>Node30</title>
<g id="a_node31"><a xlink:href="Rotation_8h.html" target="_top" xlink:title="iDynTree/Core/Rotation.h">
<polygon fill="none" stroke="#000000" points="438,-280.5 438,-299.5 575,-299.5 575,-280.5 438,-280.5"/>
<text text-anchor="middle" x="506.5" y="-287.5" font-family="FreeSans.ttf" font-size="10.00" fill="#000000">iDynTree/Core/Rotation.h</text>
</a>
</g>
</g>
<!-- Node24&#45;&gt;Node30 -->
<g id="edge61" class="edge">
<title>Node24&#45;&gt;Node30</title>
<path fill="none" stroke="#191970" d="M619.0131,-392.4509C598.0443,-373.3574 550.7248,-330.2697 524.6275,-306.5063"/>
<polygon fill="#191970" stroke="#191970" points="526.7108,-303.6697 516.9604,-299.5249 521.9979,-308.8455 526.7108,-303.6697"/>
</g>
<!-- Node33 -->
<g id="node34" class="node">
<title>Node33</title>
<g id="a_node34"><a xlink:href="MatrixFixSize_8h.html" target="_top" xlink:title="iDynTree/Core/MatrixFixSize.h">
<polygon fill="none" stroke="#000000" points="185,-168.5 185,-187.5 346,-187.5 346,-168.5 185,-168.5"/>
<text text-anchor="middle" x="265.5" y="-175.5" font-family="FreeSans.ttf" font-size="10.00" fill="#000000">iDynTree/Core/MatrixFixSize.h</text>
</a>
</g>
</g>
<!-- Node24&#45;&gt;Node33 -->
<g id="edge62" class="edge">
<title>Node24&#45;&gt;Node33</title>
<path fill="none" stroke="#191970" d="M581.2772,-392.4575C474.7149,-370.2899 224.7933,-311.9905 176.5,-244 160.0656,-220.8626 192.1326,-202.4733 222.2563,-191.0439"/>
<polygon fill="#191970" stroke="#191970" points="223.6751,-194.2533 231.9045,-187.5804 221.31,-187.6649 223.6751,-194.2533"/>
</g>
<!-- Node25&#45;&gt;Node4 -->
<g id="edge60" class="edge">
<title>Node25&#45;&gt;Node4</title>
<path fill="none" stroke="#191970" d="M747.685,-336.3673C781.8391,-315.9759 852.4814,-266.8044 822.5,-224 795.6402,-185.6522 759.1787,-218.3155 723.5,-188 709.0005,-175.68 699.0639,-156.173 693.1685,-141.5556"/>
<polygon fill="#191970" stroke="#191970" points="696.3586,-140.0934 689.5825,-131.9488 689.8006,-142.5414 696.3586,-140.0934"/>
</g>
<!-- Node26 -->
<g id="node27" class="node">
<title>Node26</title>
<g id="a_node27"><a xlink:href="PositionRaw_8h.html" target="_top" xlink:title="iDynTree/Core/PositionRaw.h">
<polygon fill="none" stroke="#000000" points="657.5,-224.5 657.5,-243.5 813.5,-243.5 813.5,-224.5 657.5,-224.5"/>
<text text-anchor="middle" x="735.5" y="-231.5" font-family="FreeSans.ttf" font-size="10.00" fill="#000000">iDynTree/Core/PositionRaw.h</text>
</a>
</g>
</g>
<!-- Node25&#45;&gt;Node26 -->
<g id="edge35" class="edge">
<title>Node25&#45;&gt;Node26</title>
<path fill="none" stroke="#191970" d="M730.9263,-336.4509C731.7418,-318.184 733.5377,-277.9553 734.6206,-253.6976"/>
<polygon fill="#191970" stroke="#191970" points="738.1252,-253.6711 735.0748,-243.5249 731.1322,-253.3588 738.1252,-253.6711"/>
</g>
<!-- Node25&#45;&gt;Node30 -->
<g id="edge45" class="edge">
<title>Node25&#45;&gt;Node30</title>
<path fill="none" stroke="#191970" d="M692.2475,-336.4369C654.1533,-326.9133 595.5687,-312.2672 554.4013,-301.9753"/>
<polygon fill="#191970" stroke="#191970" points="555.145,-298.5536 544.5947,-299.5237 553.4472,-305.3446 555.145,-298.5536"/>
</g>
<!-- Node26&#45;&gt;Node4 -->
<g id="edge44" class="edge">
<title>Node26&#45;&gt;Node4</title>
<path fill="none" stroke="#191970" d="M722.1704,-224.3229C711.8257,-215.9788 698.1603,-202.9384 691.5,-188 685.0659,-173.569 684.101,-155.5999 684.5864,-142.0566"/>
<polygon fill="#191970" stroke="#191970" points="688.0907,-142.102 685.2469,-131.896 681.1055,-141.6478 688.0907,-142.102"/>
</g>
<!-- Node27 -->
<g id="node28" class="node">
<title>Node27</title>
<g id="a_node28"><a xlink:href="VectorFixSize_8h.html" target="_top" xlink:title="iDynTree/Core/VectorFixSize.h">
<polygon fill="none" stroke="#000000" points="364,-168.5 364,-187.5 525,-187.5 525,-168.5 364,-168.5"/>
<text text-anchor="middle" x="444.5" y="-175.5" font-family="FreeSans.ttf" font-size="10.00" fill="#000000">iDynTree/Core/VectorFixSize.h</text>
</a>
</g>
</g>
<!-- Node26&#45;&gt;Node27 -->
<g id="edge36" class="edge">
<title>Node26&#45;&gt;Node27</title>
<path fill="none" stroke="#191970" d="M685.806,-224.4369C635.4804,-214.7522 557.6277,-199.7703 504.0349,-189.4569"/>
<polygon fill="#191970" stroke="#191970" points="504.4703,-185.9765 493.9891,-187.5237 503.1475,-192.8504 504.4703,-185.9765"/>
</g>
<!-- Node27&#45;&gt;Node4 -->
<g id="edge39" class="edge">
<title>Node27&#45;&gt;Node4</title>
<path fill="none" stroke="#191970" d="M490.477,-168.4389C532.3298,-159.5681 595.7568,-145.7058 650.5,-132 651.7742,-131.681 653.0721,-131.3499 654.3819,-131.0106"/>
<polygon fill="#191970" stroke="#191970" points="655.7068,-134.2793 664.4626,-128.314 653.8978,-127.5171 655.7068,-134.2793"/>
</g>
<!-- Node27&#45;&gt;Node6 -->
<g id="edge37" class="edge">
<title>Node27&#45;&gt;Node6</title>
<path fill="none" stroke="#191970" d="M457.5447,-168.4509C483.9666,-149.1094 544.023,-105.1465 576.2024,-81.5904"/>
<polygon fill="#191970" stroke="#191970" points="578.4866,-84.2559 584.4883,-75.5249 574.3518,-78.6075 578.4866,-84.2559"/>
</g>
<!-- Node27&#45;&gt;Node7 -->
<g id="edge42" class="edge">
<title>Node27&#45;&gt;Node7</title>
<path fill="none" stroke="#191970" d="M467.9383,-168.4794C508.8827,-151.5645 595.7245,-114.4232 665.5,-76 694.148,-60.2245 725.5116,-39.3467 745.7917,-25.3346"/>
<polygon fill="#191970" stroke="#191970" points="747.8155,-28.1904 754.0221,-19.6038 743.8156,-22.4457 747.8155,-28.1904"/>
</g>
<!-- Node27&#45;&gt;Node13 -->
<g id="edge38" class="edge">
<title>Node27&#45;&gt;Node13</title>
<path fill="none" stroke="#191970" d="M458.8737,-168.1853C469.5705,-159.9414 483.3409,-147.1035 489.5,-132 496.2837,-115.3647 486.1768,-96.7623 475.9053,-83.5577"/>
<polygon fill="#191970" stroke="#191970" points="478.4302,-81.1226 469.3076,-75.7348 473.0792,-85.6356 478.4302,-81.1226"/>
</g>
<!-- Node27&#45;&gt;Node14 -->
<g id="edge41" class="edge">
<title>Node27&#45;&gt;Node14</title>
<path fill="none" stroke="#191970" d="M450.4767,-168.0803C457.9487,-154.2531 468.3977,-128.976 456.5,-112 441.849,-91.0955 283.7443,-42.0763 211.3392,-20.5042"/>
<polygon fill="#191970" stroke="#191970" points="212.2977,-17.1378 201.7151,-17.6482 210.3062,-23.8486 212.2977,-17.1378"/>
</g>
<!-- Node28 -->
<g id="node29" class="node">
<title>Node28</title>
<polygon fill="none" stroke="#bfbfbf" points="323.5,-112.5 323.5,-131.5 379.5,-131.5 379.5,-112.5 323.5,-112.5"/>
<text text-anchor="middle" x="351.5" y="-119.5" font-family="FreeSans.ttf" font-size="10.00" fill="#000000">sstream</text>
</g>
<!-- Node27&#45;&gt;Node28 -->
<g id="edge40" class="edge">
<title>Node27&#45;&gt;Node28</title>
<path fill="none" stroke="#191970" d="M428.3006,-168.2455C413.8982,-159.5731 392.6268,-146.7645 376.1201,-136.825"/>
<polygon fill="#191970" stroke="#191970" points="377.886,-133.8028 367.5137,-131.6427 374.275,-139.7996 377.886,-133.8028"/>
</g>
<!-- Node29 -->
<g id="node30" class="node">
<title>Node29</title>
<polygon fill="none" stroke="#bfbfbf" points="397.5,-112.5 397.5,-131.5 447.5,-131.5 447.5,-112.5 397.5,-112.5"/>
<text text-anchor="middle" x="422.5" y="-119.5" font-family="FreeSans.ttf" font-size="10.00" fill="#000000">cstring</text>
</g>
<!-- Node27&#45;&gt;Node29 -->
<g id="edge43" class="edge">
<title>Node27&#45;&gt;Node29</title>
<path fill="none" stroke="#191970" d="M440.6679,-168.2455C437.7341,-160.7776 433.5953,-150.2427 430.009,-141.1137"/>
<polygon fill="#191970" stroke="#191970" points="433.2024,-139.6704 426.2882,-131.6427 426.6871,-142.23 433.2024,-139.6704"/>
</g>
<!-- Node30&#45;&gt;Node4 -->
<g id="edge46" class="edge">
<title>Node30&#45;&gt;Node4</title>
<path fill="none" stroke="#191970" d="M524.0796,-280.4153C538.1363,-272.1248 557.7058,-259.1114 571.5,-244 597.8136,-215.1738 588.6013,-196.281 615.5,-168 627.5074,-155.3755 643.632,-144.5737 657.4799,-136.6162"/>
<polygon fill="#191970" stroke="#191970" points="659.5574,-139.4675 666.6246,-131.5741 656.1775,-133.3376 659.5574,-139.4675"/>
</g>
<!-- Node30&#45;&gt;Node27 -->
<g id="edge59" class="edge">
<title>Node30&#45;&gt;Node27</title>
<path fill="none" stroke="#191970" d="M446.0716,-280.4142C424.8846,-273.8314 403.2202,-262.7281 390.5,-244 378.0206,-225.6265 398.713,-206.1215 417.9838,-193.1211"/>
<polygon fill="#191970" stroke="#191970" points="420.0535,-195.9527 426.6136,-187.6331 416.2971,-190.0459 420.0535,-195.9527"/>
</g>
<!-- Node31 -->
<g id="node32" class="node">
<title>Node31</title>
<g id="a_node32"><a xlink:href="GeomVector3_8h.html" target="_top" xlink:title="iDynTree/Core/GeomVector3.h">
<polygon fill="none" stroke="#000000" points="400,-224.5 400,-243.5 563,-243.5 563,-224.5 400,-224.5"/>
<text text-anchor="middle" x="481.5" y="-231.5" font-family="FreeSans.ttf" font-size="10.00" fill="#000000">iDynTree/Core/GeomVector3.h</text>
</a>
</g>
</g>
<!-- Node30&#45;&gt;Node31 -->
<g id="edge47" class="edge">
<title>Node30&#45;&gt;Node31</title>
<path fill="none" stroke="#191970" d="M502.1453,-280.2455C498.7756,-272.6973 494.007,-262.0158 489.9017,-252.8197"/>
<polygon fill="#191970" stroke="#191970" points="493.0773,-251.3473 485.8048,-243.6427 486.6853,-254.2009 493.0773,-251.3473"/>
</g>
<!-- Node32 -->
<g id="node33" class="node">
<title>Node32</title>
<g id="a_node33"><a xlink:href="RotationRaw_8h.html" target="_top" xlink:title="iDynTree/Core/RotationRaw.h">
<polygon fill="none" stroke="#000000" points="185.5,-224.5 185.5,-243.5 343.5,-243.5 343.5,-224.5 185.5,-224.5"/>
<text text-anchor="middle" x="264.5" y="-231.5" font-family="FreeSans.ttf" font-size="10.00" fill="#000000">iDynTree/Core/RotationRaw.h</text>
</a>
</g>
</g>
<!-- Node30&#45;&gt;Node32 -->
<g id="edge49" class="edge">
<title>Node30&#45;&gt;Node32</title>
<path fill="none" stroke="#191970" d="M465.1737,-280.4369C423.7573,-270.8529 359.9223,-256.0812 315.4065,-245.78"/>
<polygon fill="#191970" stroke="#191970" points="316.1875,-242.3683 305.6559,-243.5237 314.6093,-249.1881 316.1875,-242.3683"/>
</g>
<!-- Node31&#45;&gt;Node27 -->
<g id="edge48" class="edge">
<title>Node31&#45;&gt;Node27</title>
<path fill="none" stroke="#191970" d="M475.0551,-224.2455C469.9618,-216.5367 462.7092,-205.5598 456.548,-196.2348"/>
<polygon fill="#191970" stroke="#191970" points="459.3038,-194.0566 450.8711,-187.6427 453.4635,-197.9155 459.3038,-194.0566"/>
</g>
<!-- Node32&#45;&gt;Node4 -->
<g id="edge58" class="edge">
<title>Node32&#45;&gt;Node4</title>
<path fill="none" stroke="#191970" d="M343.7275,-225.8884C397.9784,-219.0212 471.1115,-207.1622 533.5,-188 554.0342,-181.6931 557.825,-176.6213 577.5,-168 603.4398,-156.6336 633.0573,-144.1668 654.8659,-135.0823"/>
<polygon fill="#191970" stroke="#191970" points="656.4049,-138.233 664.2953,-131.1625 653.7179,-131.7693 656.4049,-138.233"/>
</g>
<!-- Node32&#45;&gt;Node33 -->
<g id="edge50" class="edge">
<title>Node32&#45;&gt;Node33</title>
<path fill="none" stroke="#191970" d="M264.6742,-224.2455C264.8047,-216.9382 264.9876,-206.6944 265.1481,-197.7046"/>
<polygon fill="#191970" stroke="#191970" points="268.6486,-197.7036 265.3278,-187.6427 261.6497,-197.5786 268.6486,-197.7036"/>
</g>
<!-- Node33&#45;&gt;Node4 -->
<g id="edge55" class="edge">
<title>Node33&#45;&gt;Node4</title>
<path fill="none" stroke="#191970" d="M337.3941,-168.4369C429.9071,-156.1311 586.7187,-135.2726 654.1244,-126.3065"/>
<polygon fill="#191970" stroke="#191970" points="654.7003,-129.7608 664.1515,-124.9727 653.7772,-122.8219 654.7003,-129.7608"/>
</g>
<!-- Node33&#45;&gt;Node6 -->
<g id="edge51" class="edge">
<title>Node33&#45;&gt;Node6</title>
<path fill="none" stroke="#191970" d="M269.8539,-168.0284C276.9063,-153.1641 292.3118,-125.5016 314.5,-112 319.0731,-109.2172 445.3577,-89.3926 527.6684,-76.6931"/>
<polygon fill="#191970" stroke="#191970" points="528.3761,-80.1255 537.7262,-75.143 527.3097,-73.2072 528.3761,-80.1255"/>
</g>
<!-- Node33&#45;&gt;Node14 -->
<g id="edge53" class="edge">
<title>Node33&#45;&gt;Node14</title>
<path fill="none" stroke="#191970" d="M243.3422,-168.4176C228.3144,-160.7534 209.288,-148.5474 198.5,-132 178.0844,-100.685 174.7747,-55.8041 174.7634,-30.1121"/>
<polygon fill="#191970" stroke="#191970" points="178.2685,-29.8343 174.9406,-19.7757 171.2696,-29.7142 178.2685,-29.8343"/>
</g>
<!-- Node33&#45;&gt;Node23 -->
<g id="edge52" class="edge">
<title>Node33&#45;&gt;Node23</title>
<path fill="none" stroke="#191970" d="M232.8378,-168.3733C200.9702,-158.9807 152.3469,-144.6496 117.593,-134.4064"/>
<polygon fill="#191970" stroke="#191970" points="118.3175,-130.9711 107.736,-131.5011 116.3385,-137.6855 118.3175,-130.9711"/>
</g>
<!-- Node33&#45;&gt;Node28 -->
<g id="edge57" class="edge">
<title>Node33&#45;&gt;Node28</title>
<path fill="none" stroke="#191970" d="M280.4801,-168.2455C293.6751,-159.6534 313.1051,-147.0014 328.3079,-137.1018"/>
<polygon fill="#191970" stroke="#191970" points="330.2215,-140.0325 336.6916,-131.6427 326.4017,-134.1665 330.2215,-140.0325"/>
</g>
<!-- Node33&#45;&gt;Node29 -->
<g id="edge54" class="edge">
<title>Node33&#45;&gt;Node29</title>
<path fill="none" stroke="#191970" d="M292.4893,-168.3733C318.8405,-158.9741 359.0567,-144.6295 387.7784,-134.3848"/>
<polygon fill="#191970" stroke="#191970" points="389.1738,-137.6031 397.4167,-130.9469 386.822,-131.01 389.1738,-137.6031"/>
</g>
<!-- Node34 -->
<g id="node35" class="node">
<title>Node34</title>
<polygon fill="none" stroke="#bfbfbf" points="207.5,-112.5 207.5,-131.5 267.5,-131.5 267.5,-112.5 207.5,-112.5"/>
<text text-anchor="middle" x="237.5" y="-119.5" font-family="FreeSans.ttf" font-size="10.00" fill="#000000">iostream</text>
</g>
<!-- Node33&#45;&gt;Node34 -->
<g id="edge56" class="edge">
<title>Node33&#45;&gt;Node34</title>
<path fill="none" stroke="#191970" d="M260.6228,-168.2455C256.8487,-160.6973 251.5079,-150.0158 246.9099,-140.8197"/>
<polygon fill="#191970" stroke="#191970" points="249.924,-139.0217 242.3213,-131.6427 243.663,-142.1522 249.924,-139.0217"/>
</g>
</g>
</svg>
