<?xml version="1.0" encoding="UTF-8" standalone="no"?>
<!DOCTYPE svg PUBLIC "-//W3C//DTD SVG 1.1//EN"
 "http://www.w3.org/Graphics/SVG/1.1/DTD/svg11.dtd">
<!-- Generated by graphviz version 2.40.1 (20161225.0304)
 -->
<!-- Title: Link.cpp Pages: 1 -->
<svg width="1053pt" height="733pt"
 viewBox="0.00 0.00 1052.50 733.00" xmlns="http://www.w3.org/2000/svg" xmlns:xlink="http://www.w3.org/1999/xlink">
<g id="graph0" class="graph" transform="scale(1 1) rotate(0) translate(4 729)">
<title>Link.cpp</title>
<!-- Node0 -->
<g id="node1" class="node">
<title>Node0</title>
<polygon fill="#bfbfbf" stroke="#000000" points="777,-705.5 777,-724.5 834,-724.5 834,-705.5 777,-705.5"/>
<text text-anchor="middle" x="805.5" y="-712.5" font-family="FreeSans.ttf" font-size="10.00" fill="#000000">Link.cpp</text>
</g>
<!-- Node1 -->
<g id="node2" class="node">
<title>Node1</title>
<g id="a_node2"><a xlink:href="Link_8h.html" target="_top" xlink:title="iDynTree/Model/Link.h">
<polygon fill="none" stroke="#000000" points="743.5,-649.5 743.5,-668.5 867.5,-668.5 867.5,-649.5 743.5,-649.5"/>
<text text-anchor="middle" x="805.5" y="-656.5" font-family="FreeSans.ttf" font-size="10.00" fill="#000000">iDynTree/Model/Link.h</text>
</a>
</g>
</g>
<!-- Node0&#45;&gt;Node1 -->
<g id="edge1" class="edge">
<title>Node0&#45;&gt;Node1</title>
<path fill="none" stroke="#191970" d="M805.5,-705.2455C805.5,-697.9382 805.5,-687.6944 805.5,-678.7046"/>
<polygon fill="#191970" stroke="#191970" points="809.0001,-678.6426 805.5,-668.6427 802.0001,-678.6427 809.0001,-678.6426"/>
</g>
<!-- Node2 -->
<g id="node3" class="node">
<title>Node2</title>
<g id="a_node3"><a xlink:href="SpatialInertia_8h.html" target="_top" xlink:title="iDynTree/Core/SpatialInertia.h">
<polygon fill="none" stroke="#000000" points="559.5,-593.5 559.5,-612.5 721.5,-612.5 721.5,-593.5 559.5,-593.5"/>
<text text-anchor="middle" x="640.5" y="-600.5" font-family="FreeSans.ttf" font-size="10.00" fill="#000000">iDynTree/Core/SpatialInertia.h</text>
</a>
</g>
</g>
<!-- Node1&#45;&gt;Node2 -->
<g id="edge2" class="edge">
<title>Node1&#45;&gt;Node2</title>
<path fill="none" stroke="#191970" d="M777.1355,-649.3733C749.8173,-640.1016 708.3204,-626.0178 678.2262,-615.804"/>
<polygon fill="#191970" stroke="#191970" points="679.0887,-612.4008 668.4944,-612.5011 676.839,-619.0294 679.0887,-612.4008"/>
</g>
<!-- Node36 -->
<g id="node37" class="node">
<title>Node36</title>
<g id="a_node37"><a xlink:href="Indices_8h.html" target="_top" xlink:title="iDynTree/Model/Indices.h">
<polygon fill="none" stroke="#000000" points="901.5,-168.5 901.5,-187.5 1039.5,-187.5 1039.5,-168.5 901.5,-168.5"/>
<text text-anchor="middle" x="970.5" y="-175.5" font-family="FreeSans.ttf" font-size="10.00" fill="#000000">iDynTree/Model/Indices.h</text>
</a>
</g>
</g>
<!-- Node1&#45;&gt;Node36 -->
<g id="edge68" class="edge">
<title>Node1&#45;&gt;Node36</title>
<path fill="none" stroke="#191970" d="M845.684,-649.4668C894.8121,-635.14 971.5,-602.9368 971.5,-541.5 971.5,-541.5 971.5,-541.5 971.5,-290 971.5,-257.7103 971.0793,-220.1863 970.7836,-197.8043"/>
<polygon fill="#191970" stroke="#191970" points="974.2804,-197.5391 970.6433,-187.5881 967.281,-197.6353 974.2804,-197.5391"/>
</g>
<!-- Node3 -->
<g id="node4" class="node">
<title>Node3</title>
<g id="a_node4"><a xlink:href="SpatialInertiaRaw_8h.html" target="_top" xlink:title="iDynTree/Core/SpatialInertia\lRaw.h">
<polygon fill="none" stroke="#000000" points="44,-526.5 44,-556.5 197,-556.5 197,-526.5 44,-526.5"/>
<text text-anchor="start" x="52" y="-544.5" font-family="FreeSans.ttf" font-size="10.00" fill="#000000">iDynTree/Core/SpatialInertia</text>
<text text-anchor="middle" x="120.5" y="-533.5" font-family="FreeSans.ttf" font-size="10.00" fill="#000000">Raw.h</text>
</a>
</g>
</g>
<!-- Node2&#45;&gt;Node3 -->
<g id="edge3" class="edge">
<title>Node2&#45;&gt;Node3</title>
<path fill="none" stroke="#191970" d="M559.4617,-595.6081C473.6375,-587.4621 334.273,-573.3285 214.5,-557 212.1147,-556.6748 209.6969,-556.3365 207.2578,-555.9876"/>
<polygon fill="#191970" stroke="#191970" points="207.5432,-552.492 197.1404,-554.5002 206.5249,-559.4176 207.5432,-552.492"/>
</g>
<!-- Node23 -->
<g id="node24" class="node">
<title>Node23</title>
<g id="a_node24"><a xlink:href="VectorFixSize_8h.html" target="_top" xlink:title="iDynTree/Core/VectorFixSize.h">
<polygon fill="none" stroke="#000000" points="628,-168.5 628,-187.5 789,-187.5 789,-168.5 628,-168.5"/>
<text text-anchor="middle" x="708.5" y="-175.5" font-family="FreeSans.ttf" font-size="10.00" fill="#000000">iDynTree/Core/VectorFixSize.h</text>
</a>
</g>
</g>
<!-- Node2&#45;&gt;Node23 -->
<g id="edge28" class="edge">
<title>Node2&#45;&gt;Node23</title>
<path fill="none" stroke="#191970" d="M721.6382,-596.5508C780.9114,-590.163 854.591,-578.1796 876.5,-557 903.5525,-530.8482 895.5,-512.1265 895.5,-474.5 895.5,-474.5 895.5,-474.5 895.5,-290 895.5,-232.4648 829.543,-203.7657 775.9721,-189.9448"/>
<polygon fill="#191970" stroke="#191970" points="776.6777,-186.5142 766.132,-187.5336 775.0117,-193.3131 776.6777,-186.5142"/>
</g>
<!-- Node24 -->
<g id="node25" class="node">
<title>Node24</title>
<g id="a_node25"><a xlink:href="Twist_8h.html" target="_top" xlink:title="iDynTree/Core/Twist.h">
<polygon fill="none" stroke="#000000" points="579.5,-532 579.5,-551 701.5,-551 701.5,-532 579.5,-532"/>
<text text-anchor="middle" x="640.5" y="-539" font-family="FreeSans.ttf" font-size="10.00" fill="#000000">iDynTree/Core/Twist.h</text>
</a>
</g>
</g>
<!-- Node2&#45;&gt;Node24 -->
<g id="edge36" class="edge">
<title>Node2&#45;&gt;Node24</title>
<path fill="none" stroke="#191970" d="M640.5,-593.3906C640.5,-584.8657 640.5,-572.1392 640.5,-561.4235"/>
<polygon fill="#191970" stroke="#191970" points="644.0001,-561.2448 640.5,-551.2449 637.0001,-561.2449 644.0001,-561.2448"/>
</g>
<!-- Node32 -->
<g id="node33" class="node">
<title>Node32</title>
<g id="a_node33"><a xlink:href="SpatialMomentum_8h.html" target="_top" xlink:title="iDynTree/Core/SpatialMomentum.h">
<polygon fill="none" stroke="#000000" points="375.5,-532 375.5,-551 561.5,-551 561.5,-532 375.5,-532"/>
<text text-anchor="middle" x="468.5" y="-539" font-family="FreeSans.ttf" font-size="10.00" fill="#000000">iDynTree/Core/SpatialMomentum.h</text>
</a>
</g>
</g>
<!-- Node2&#45;&gt;Node32 -->
<g id="edge59" class="edge">
<title>Node2&#45;&gt;Node32</title>
<path fill="none" stroke="#191970" d="M613.625,-593.3906C584.3414,-582.92 537.331,-566.1111 504.7863,-554.4745"/>
<polygon fill="#191970" stroke="#191970" points="505.7809,-551.1131 495.1863,-551.0419 503.4241,-557.7045 505.7809,-551.1131"/>
</g>
<!-- Node34 -->
<g id="node35" class="node">
<title>Node34</title>
<g id="a_node35"><a xlink:href="SpatialAcc_8h.html" target="_top" xlink:title="iDynTree/Core/SpatialAcc.h">
<polygon fill="none" stroke="#000000" points="719.5,-532 719.5,-551 867.5,-551 867.5,-532 719.5,-532"/>
<text text-anchor="middle" x="793.5" y="-539" font-family="FreeSans.ttf" font-size="10.00" fill="#000000">iDynTree/Core/SpatialAcc.h</text>
</a>
</g>
</g>
<!-- Node2&#45;&gt;Node34 -->
<g id="edge64" class="edge">
<title>Node2&#45;&gt;Node34</title>
<path fill="none" stroke="#191970" d="M664.4063,-593.3906C690.2305,-583.0103 731.5527,-566.4004 760.4705,-554.7766"/>
<polygon fill="#191970" stroke="#191970" points="761.7885,-558.019 769.7616,-551.0419 759.1778,-551.5241 761.7885,-558.019"/>
</g>
<!-- Node35 -->
<g id="node36" class="node">
<title>Node35</title>
<g id="a_node36"><a xlink:href="Wrench_8h.html" target="_top" xlink:title="iDynTree/Core/Wrench.h">
<polygon fill="none" stroke="#000000" points="224,-532 224,-551 357,-551 357,-532 224,-532"/>
<text text-anchor="middle" x="290.5" y="-539" font-family="FreeSans.ttf" font-size="10.00" fill="#000000">iDynTree/Core/Wrench.h</text>
</a>
</g>
</g>
<!-- Node2&#45;&gt;Node35 -->
<g id="edge66" class="edge">
<title>Node2&#45;&gt;Node35</title>
<path fill="none" stroke="#191970" d="M579.9905,-593.4625C524.399,-584.5529 439.7686,-570.6175 366.5,-557 359.8286,-555.7601 352.839,-554.4077 345.9148,-553.0353"/>
<polygon fill="#191970" stroke="#191970" points="346.3545,-549.5539 335.8617,-551.0208 344.9791,-556.4174 346.3545,-549.5539"/>
</g>
<!-- Node4 -->
<g id="node5" class="node">
<title>Node4</title>
<g id="a_node5"><a xlink:href="RotationalInertiaRaw_8h.html" target="_top" xlink:title="iDynTree/Core/Rotational\lInertiaRaw.h">
<polygon fill="none" stroke="#000000" points="0,-392.5 0,-422.5 137,-422.5 137,-392.5 0,-392.5"/>
<text text-anchor="start" x="8" y="-410.5" font-family="FreeSans.ttf" font-size="10.00" fill="#000000">iDynTree/Core/Rotational</text>
<text text-anchor="middle" x="68.5" y="-399.5" font-family="FreeSans.ttf" font-size="10.00" fill="#000000">InertiaRaw.h</text>
</a>
</g>
</g>
<!-- Node3&#45;&gt;Node4 -->
<g id="edge4" class="edge">
<title>Node3&#45;&gt;Node4</title>
<path fill="none" stroke="#191970" d="M114.636,-526.389C105.7413,-503.4681 88.7455,-459.6712 78.0508,-432.1116"/>
<polygon fill="#191970" stroke="#191970" points="81.3031,-430.8178 74.4223,-422.7614 74.7772,-433.3503 81.3031,-430.8178"/>
</g>
<!-- Node5 -->
<g id="node6" class="node">
<title>Node5</title>
<g id="a_node6"><a xlink:href="MatrixFixSize_8h.html" target="_top" xlink:title="iDynTree/Core/MatrixFixSize.h">
<polygon fill="none" stroke="#000000" points="125,-168.5 125,-187.5 286,-187.5 286,-168.5 125,-168.5"/>
<text text-anchor="middle" x="205.5" y="-175.5" font-family="FreeSans.ttf" font-size="10.00" fill="#000000">iDynTree/Core/MatrixFixSize.h</text>
</a>
</g>
</g>
<!-- Node4&#45;&gt;Node5 -->
<g id="edge5" class="edge">
<title>Node4&#45;&gt;Node5</title>
<path fill="none" stroke="#191970" d="M71.3216,-392.4851C78.1921,-359.1657 98.4026,-277.7499 140.5,-224 150.4462,-211.3007 164.8286,-200.6218 177.5372,-192.7596"/>
<polygon fill="#191970" stroke="#191970" points="179.5615,-195.6296 186.4079,-187.5439 176.0135,-189.5954 179.5615,-195.6296"/>
</g>
<!-- Node6 -->
<g id="node7" class="node">
<title>Node6</title>
<g id="a_node7"><a xlink:href="Utils_8h.html" target="_top" xlink:title="iDynTree/Core/Utils.h">
<polygon fill="none" stroke="#000000" points="718,-56.5 718,-75.5 837,-75.5 837,-56.5 718,-56.5"/>
<text text-anchor="middle" x="777.5" y="-63.5" font-family="FreeSans.ttf" font-size="10.00" fill="#000000">iDynTree/Core/Utils.h</text>
</a>
</g>
</g>
<!-- Node5&#45;&gt;Node6 -->
<g id="edge6" class="edge">
<title>Node5&#45;&gt;Node6</title>
<path fill="none" stroke="#191970" d="M256.824,-168.4602C294.2699,-160.7131 345.8846,-148.3878 389.5,-132 407.735,-125.1485 409.9045,-117.8022 428.5,-112 479.0767,-96.2189 621.2353,-80.7135 707.7214,-72.3494"/>
<polygon fill="#191970" stroke="#191970" points="708.1033,-75.8289 717.7234,-71.3899 707.4348,-68.8609 708.1033,-75.8289"/>
</g>
<!-- Node9 -->
<g id="node10" class="node">
<title>Node9</title>
<g id="a_node10"><a xlink:href="MatrixView_8h.html" target="_top" xlink:title="iDynTree/Core/MatrixView.h">
<polygon fill="none" stroke="#000000" points="230,-112.5 230,-131.5 381,-131.5 381,-112.5 230,-112.5"/>
<text text-anchor="middle" x="305.5" y="-119.5" font-family="FreeSans.ttf" font-size="10.00" fill="#000000">iDynTree/Core/MatrixView.h</text>
</a>
</g>
</g>
<!-- Node5&#45;&gt;Node9 -->
<g id="edge9" class="edge">
<title>Node5&#45;&gt;Node9</title>
<path fill="none" stroke="#191970" d="M222.9187,-168.2455C238.5485,-159.4928 261.7019,-146.527 279.5185,-136.5496"/>
<polygon fill="#191970" stroke="#191970" points="281.266,-139.5825 288.2809,-131.6427 277.8457,-133.475 281.266,-139.5825"/>
</g>
<!-- Node10 -->
<g id="node11" class="node">
<title>Node10</title>
<polygon fill="none" stroke="#bfbfbf" points="183.5,-.5 183.5,-19.5 235.5,-19.5 235.5,-.5 183.5,-.5"/>
<text text-anchor="middle" x="209.5" y="-7.5" font-family="FreeSans.ttf" font-size="10.00" fill="#000000">cassert</text>
</g>
<!-- Node5&#45;&gt;Node10 -->
<g id="edge23" class="edge">
<title>Node5&#45;&gt;Node10</title>
<path fill="none" stroke="#191970" d="M200.5415,-168.4444C196.122,-159.352 189.9805,-145.1462 187.5,-132 181.2371,-98.8079 180.0281,-88.941 187.5,-56 189.644,-46.548 193.978,-36.7672 198.2367,-28.6675"/>
<polygon fill="#191970" stroke="#191970" points="201.3961,-30.1895 203.2417,-19.7567 195.2929,-26.7615 201.3961,-30.1895"/>
</g>
<!-- Node19 -->
<g id="node20" class="node">
<title>Node19</title>
<polygon fill="none" stroke="#bfbfbf" points="437.5,-112.5 437.5,-131.5 487.5,-131.5 487.5,-112.5 437.5,-112.5"/>
<text text-anchor="middle" x="462.5" y="-119.5" font-family="FreeSans.ttf" font-size="10.00" fill="#000000">cstring</text>
</g>
<!-- Node5&#45;&gt;Node19 -->
<g id="edge24" class="edge">
<title>Node5&#45;&gt;Node19</title>
<path fill="none" stroke="#191970" d="M253.6893,-168.4515C297.9509,-159.5343 365.3051,-145.5941 423.5,-132 424.7635,-131.7049 426.0488,-131.3999 427.3461,-131.0882"/>
<polygon fill="#191970" stroke="#191970" points="428.4945,-134.4098 437.3638,-128.6145 426.8163,-127.614 428.4945,-134.4098"/>
</g>
<!-- Node20 -->
<g id="node21" class="node">
<title>Node20</title>
<polygon fill="none" stroke="#bfbfbf" points="505.5,-112.5 505.5,-131.5 549.5,-131.5 549.5,-112.5 505.5,-112.5"/>
<text text-anchor="middle" x="527.5" y="-119.5" font-family="FreeSans.ttf" font-size="10.00" fill="#000000">string</text>
</g>
<!-- Node5&#45;&gt;Node20 -->
<g id="edge25" class="edge">
<title>Node5&#45;&gt;Node20</title>
<path fill="none" stroke="#191970" d="M286.1317,-168.6733C342.5012,-161.3605 419.5965,-149.7792 495.5312,-131.9507"/>
<polygon fill="#191970" stroke="#191970" points="496.3512,-135.3533 505.2663,-129.6287 494.7271,-128.5444 496.3512,-135.3533"/>
</g>
<!-- Node21 -->
<g id="node22" class="node">
<title>Node21</title>
<polygon fill="none" stroke="#bfbfbf" points="52.5,-112.5 52.5,-131.5 112.5,-131.5 112.5,-112.5 52.5,-112.5"/>
<text text-anchor="middle" x="82.5" y="-119.5" font-family="FreeSans.ttf" font-size="10.00" fill="#000000">iostream</text>
</g>
<!-- Node5&#45;&gt;Node21 -->
<g id="edge26" class="edge">
<title>Node5&#45;&gt;Node21</title>
<path fill="none" stroke="#191970" d="M184.3555,-168.3733C164.6108,-159.3838 134.9302,-145.8706 112.6945,-135.7471"/>
<polygon fill="#191970" stroke="#191970" points="113.92,-132.4594 103.3685,-131.5011 111.0194,-138.8302 113.92,-132.4594"/>
</g>
<!-- Node22 -->
<g id="node23" class="node">
<title>Node22</title>
<polygon fill="none" stroke="#bfbfbf" points="571.5,-112.5 571.5,-131.5 627.5,-131.5 627.5,-112.5 571.5,-112.5"/>
<text text-anchor="middle" x="599.5" y="-119.5" font-family="FreeSans.ttf" font-size="10.00" fill="#000000">sstream</text>
</g>
<!-- Node5&#45;&gt;Node22 -->
<g id="edge27" class="edge">
<title>Node5&#45;&gt;Node22</title>
<path fill="none" stroke="#191970" d="M286.1579,-170.0352C357.9637,-162.3403 465.6967,-149.3102 558.5,-132 559.4138,-131.8295 560.3378,-131.6514 561.2686,-131.4668"/>
<polygon fill="#191970" stroke="#191970" points="562.3179,-134.8212 571.357,-129.2943 560.8442,-127.978 562.3179,-134.8212"/>
</g>
<!-- Node7 -->
<g id="node8" class="node">
<title>Node7</title>
<polygon fill="none" stroke="#bfbfbf" points="866,-.5 866,-19.5 919,-19.5 919,-.5 866,-.5"/>
<text text-anchor="middle" x="892.5" y="-7.5" font-family="FreeSans.ttf" font-size="10.00" fill="#000000">cstddef</text>
</g>
<!-- Node6&#45;&gt;Node7 -->
<g id="edge7" class="edge">
<title>Node6&#45;&gt;Node7</title>
<path fill="none" stroke="#191970" d="M797.2692,-56.3733C815.6469,-47.4241 843.2312,-33.9917 863.9893,-23.8835"/>
<polygon fill="#191970" stroke="#191970" points="865.5304,-27.026 872.9888,-19.5011 862.4657,-20.7325 865.5304,-27.026"/>
</g>
<!-- Node8 -->
<g id="node9" class="node">
<title>Node8</title>
<polygon fill="none" stroke="#bfbfbf" points="766.5,-.5 766.5,-19.5 846.5,-19.5 846.5,-.5 766.5,-.5"/>
<text text-anchor="middle" x="806.5" y="-7.5" font-family="FreeSans.ttf" font-size="10.00" fill="#000000">CoreExport.h</text>
</g>
<!-- Node6&#45;&gt;Node8 -->
<g id="edge8" class="edge">
<title>Node6&#45;&gt;Node8</title>
<path fill="none" stroke="#191970" d="M782.5514,-56.2455C786.5019,-48.617 792.1097,-37.7881 796.9058,-28.5267"/>
<polygon fill="#191970" stroke="#191970" points="800.0159,-30.1321 801.5065,-19.6427 793.7999,-26.9131 800.0159,-30.1321"/>
</g>
<!-- Node9&#45;&gt;Node6 -->
<g id="edge22" class="edge">
<title>Node9&#45;&gt;Node6</title>
<path fill="none" stroke="#191970" d="M381.0732,-113.0337C471.1327,-102.3487 620.3782,-84.6416 707.7777,-74.2721"/>
<polygon fill="#191970" stroke="#191970" points="708.3429,-77.7297 717.8608,-73.0758 707.5181,-70.7785 708.3429,-77.7297"/>
</g>
<!-- Node9&#45;&gt;Node10 -->
<g id="edge10" class="edge">
<title>Node9&#45;&gt;Node10</title>
<path fill="none" stroke="#191970" d="M297.3151,-112.4509C281.0909,-93.5227 244.6549,-51.014 224.1811,-27.1279"/>
<polygon fill="#191970" stroke="#191970" points="226.8295,-24.8397 217.6642,-19.5249 221.5147,-29.3953 226.8295,-24.8397"/>
</g>
<!-- Node11 -->
<g id="node12" class="node">
<title>Node11</title>
<polygon fill="none" stroke="#bfbfbf" points="256,-.5 256,-19.5 325,-19.5 325,-.5 256,-.5"/>
<text text-anchor="middle" x="290.5" y="-7.5" font-family="FreeSans.ttf" font-size="10.00" fill="#000000">type_traits</text>
</g>
<!-- Node9&#45;&gt;Node11 -->
<g id="edge11" class="edge">
<title>Node9&#45;&gt;Node11</title>
<path fill="none" stroke="#191970" d="M304.2211,-112.4509C301.7746,-94.184 296.3869,-53.9553 293.1381,-29.6976"/>
<polygon fill="#191970" stroke="#191970" points="296.5722,-28.9718 291.7757,-19.5249 289.6341,-29.901 296.5722,-28.9718"/>
</g>
<!-- Node12 -->
<g id="node13" class="node">
<title>Node12</title>
<g id="a_node13"><a xlink:href="Span_8h.html" target="_top" xlink:title="iDynTree/Core/Span.h">
<polygon fill="none" stroke="#000000" points="449,-56.5 449,-75.5 570,-75.5 570,-56.5 449,-56.5"/>
<text text-anchor="middle" x="509.5" y="-63.5" font-family="FreeSans.ttf" font-size="10.00" fill="#000000">iDynTree/Core/Span.h</text>
</a>
</g>
</g>
<!-- Node9&#45;&gt;Node12 -->
<g id="edge12" class="edge">
<title>Node9&#45;&gt;Node12</title>
<path fill="none" stroke="#191970" d="M340.5689,-112.3733C374.9315,-102.9404 427.4392,-88.5265 464.7851,-78.2747"/>
<polygon fill="#191970" stroke="#191970" points="466.172,-81.5235 474.8888,-75.5011 464.319,-74.7732 466.172,-81.5235"/>
</g>
<!-- Node12&#45;&gt;Node7 -->
<g id="edge16" class="edge">
<title>Node12&#45;&gt;Node7</title>
<path fill="none" stroke="#191970" d="M570.2155,-60.3755C639.6202,-53.381 756.4285,-39.8836 855.5,-20 855.712,-19.9574 855.9246,-19.9144 856.1378,-19.8708"/>
<polygon fill="#191970" stroke="#191970" points="856.9546,-23.2744 865.9224,-17.6327 855.3937,-16.4506 856.9546,-23.2744"/>
</g>
<!-- Node12&#45;&gt;Node10 -->
<g id="edge13" class="edge">
<title>Node12&#45;&gt;Node10</title>
<path fill="none" stroke="#191970" d="M448.869,-56.9977C395.3643,-48.6729 315.3934,-35.3017 246.5,-20 246.1712,-19.927 245.8408,-19.8529 245.5092,-19.7779"/>
<polygon fill="#191970" stroke="#191970" points="246.2471,-16.3554 235.7037,-17.3976 244.5958,-23.1579 246.2471,-16.3554"/>
</g>
<!-- Node12&#45;&gt;Node11 -->
<g id="edge20" class="edge">
<title>Node12&#45;&gt;Node11</title>
<path fill="none" stroke="#191970" d="M471.8526,-56.3733C433.8588,-46.6579 375.2018,-31.6589 334.9464,-21.3653"/>
<polygon fill="#191970" stroke="#191970" points="335.6876,-17.9423 325.1323,-18.8557 333.9534,-24.7241 335.6876,-17.9423"/>
</g>
<!-- Node13 -->
<g id="node14" class="node">
<title>Node13</title>
<polygon fill="none" stroke="#bfbfbf" points="406.5,-.5 406.5,-19.5 470.5,-19.5 470.5,-.5 406.5,-.5"/>
<text text-anchor="middle" x="438.5" y="-7.5" font-family="FreeSans.ttf" font-size="10.00" fill="#000000">algorithm</text>
</g>
<!-- Node12&#45;&gt;Node13 -->
<g id="edge14" class="edge">
<title>Node12&#45;&gt;Node13</title>
<path fill="none" stroke="#191970" d="M497.1327,-56.2455C486.5446,-47.8943 471.0936,-35.7076 458.7107,-25.9408"/>
<polygon fill="#191970" stroke="#191970" points="460.7447,-23.0875 450.7255,-19.6427 456.4097,-28.5837 460.7447,-23.0875"/>
</g>
<!-- Node14 -->
<g id="node15" class="node">
<title>Node14</title>
<polygon fill="none" stroke="#bfbfbf" points="488.5,-.5 488.5,-19.5 530.5,-19.5 530.5,-.5 488.5,-.5"/>
<text text-anchor="middle" x="509.5" y="-7.5" font-family="FreeSans.ttf" font-size="10.00" fill="#000000">array</text>
</g>
<!-- Node12&#45;&gt;Node14 -->
<g id="edge15" class="edge">
<title>Node12&#45;&gt;Node14</title>
<path fill="none" stroke="#191970" d="M509.5,-56.2455C509.5,-48.9382 509.5,-38.6944 509.5,-29.7046"/>
<polygon fill="#191970" stroke="#191970" points="513.0001,-29.6426 509.5,-19.6427 506.0001,-29.6427 513.0001,-29.6426"/>
</g>
<!-- Node15 -->
<g id="node16" class="node">
<title>Node15</title>
<polygon fill="none" stroke="#bfbfbf" points="549,-.5 549,-19.5 602,-19.5 602,-.5 549,-.5"/>
<text text-anchor="middle" x="575.5" y="-7.5" font-family="FreeSans.ttf" font-size="10.00" fill="#000000">iterator</text>
</g>
<!-- Node12&#45;&gt;Node15 -->
<g id="edge17" class="edge">
<title>Node12&#45;&gt;Node15</title>
<path fill="none" stroke="#191970" d="M520.9963,-56.2455C530.7442,-47.9746 544.9259,-35.9416 556.3798,-26.2232"/>
<polygon fill="#191970" stroke="#191970" points="558.7747,-28.7813 564.1354,-19.6427 554.2459,-23.4437 558.7747,-28.7813"/>
</g>
<!-- Node16 -->
<g id="node17" class="node">
<title>Node16</title>
<polygon fill="none" stroke="#bfbfbf" points="620.5,-.5 620.5,-19.5 664.5,-19.5 664.5,-.5 620.5,-.5"/>
<text text-anchor="middle" x="642.5" y="-7.5" font-family="FreeSans.ttf" font-size="10.00" fill="#000000">limits</text>
</g>
<!-- Node12&#45;&gt;Node16 -->
<g id="edge18" class="edge">
<title>Node12&#45;&gt;Node16</title>
<path fill="none" stroke="#191970" d="M532.3635,-56.3733C554.0355,-47.2482 586.7779,-33.462 610.9331,-23.2913"/>
<polygon fill="#191970" stroke="#191970" points="612.5186,-26.4214 620.3768,-19.315 609.8022,-19.9699 612.5186,-26.4214"/>
</g>
<!-- Node17 -->
<g id="node18" class="node">
<title>Node17</title>
<polygon fill="none" stroke="#bfbfbf" points="683,-.5 683,-19.5 748,-19.5 748,-.5 683,-.5"/>
<text text-anchor="middle" x="715.5" y="-7.5" font-family="FreeSans.ttf" font-size="10.00" fill="#000000">stdexcept</text>
</g>
<!-- Node12&#45;&gt;Node17 -->
<g id="edge19" class="edge">
<title>Node12&#45;&gt;Node17</title>
<path fill="none" stroke="#191970" d="M544.9127,-56.3733C580.4997,-46.6991 635.3589,-31.7859 673.2097,-21.4964"/>
<polygon fill="#191970" stroke="#191970" points="674.1919,-24.8565 682.9235,-18.8557 672.3556,-18.1016 674.1919,-24.8565"/>
</g>
<!-- Node18 -->
<g id="node19" class="node">
<title>Node18</title>
<polygon fill="none" stroke="#bfbfbf" points="343,-.5 343,-19.5 388,-19.5 388,-.5 343,-.5"/>
<text text-anchor="middle" x="365.5" y="-7.5" font-family="FreeSans.ttf" font-size="10.00" fill="#000000">utility</text>
</g>
<!-- Node12&#45;&gt;Node18 -->
<g id="edge21" class="edge">
<title>Node12&#45;&gt;Node18</title>
<path fill="none" stroke="#191970" d="M484.7455,-56.3733C460.6447,-47.0007 423.899,-32.7107 397.5707,-22.472"/>
<polygon fill="#191970" stroke="#191970" points="398.627,-19.1274 388.0383,-18.7649 396.0898,-25.6514 398.627,-19.1274"/>
</g>
<!-- Node23&#45;&gt;Node6 -->
<g id="edge29" class="edge">
<title>Node23&#45;&gt;Node6</title>
<path fill="none" stroke="#191970" d="M714.3829,-168.4509C725.8913,-149.7707 751.5488,-108.1238 766.3638,-84.0761"/>
<polygon fill="#191970" stroke="#191970" points="769.3666,-85.8747 771.632,-75.5249 763.4068,-82.203 769.3666,-85.8747"/>
</g>
<!-- Node23&#45;&gt;Node7 -->
<g id="edge34" class="edge">
<title>Node23&#45;&gt;Node7</title>
<path fill="none" stroke="#191970" d="M724.5384,-168.3999C751.4873,-151.7847 806.7075,-115.6227 845.5,-76 859.7323,-61.4631 872.8843,-42.2867 881.6341,-28.3525"/>
<polygon fill="#191970" stroke="#191970" points="884.7159,-30.0218 886.9476,-19.6647 878.7442,-26.3695 884.7159,-30.0218"/>
</g>
<!-- Node23&#45;&gt;Node10 -->
<g id="edge33" class="edge">
<title>Node23&#45;&gt;Node10</title>
<path fill="none" stroke="#191970" d="M627.9,-175.9362C496.6848,-171.7709 248.6113,-160.2258 220.5,-132 193.7247,-105.1156 198.9282,-56.4458 204.5411,-29.4156"/>
<polygon fill="#191970" stroke="#191970" points="207.9706,-30.1192 206.8019,-19.589 201.1488,-28.5497 207.9706,-30.1192"/>
</g>
<!-- Node23&#45;&gt;Node12 -->
<g id="edge30" class="edge">
<title>Node23&#45;&gt;Node12</title>
<path fill="none" stroke="#191970" d="M700.133,-168.185C687.5957,-154.0204 662.6052,-127.8164 636.5,-112 612.0857,-97.208 582.1745,-86.0826 557.5141,-78.4813"/>
<polygon fill="#191970" stroke="#191970" points="558.2315,-75.043 547.6483,-75.5397 556.2314,-81.7511 558.2315,-75.043"/>
</g>
<!-- Node23&#45;&gt;Node19 -->
<g id="edge35" class="edge">
<title>Node23&#45;&gt;Node19</title>
<path fill="none" stroke="#191970" d="M659.8514,-168.487C618.9196,-160.2479 558.6545,-147.5709 497.5125,-132.1321"/>
<polygon fill="#191970" stroke="#191970" points="498.2495,-128.7082 487.6949,-129.6309 496.5212,-135.4915 498.2495,-128.7082"/>
</g>
<!-- Node23&#45;&gt;Node20 -->
<g id="edge31" class="edge">
<title>Node23&#45;&gt;Node20</title>
<path fill="none" stroke="#191970" d="M677.385,-168.3733C644.4092,-158.1708 592.6,-142.1414 559.3482,-131.8536"/>
<polygon fill="#191970" stroke="#191970" points="560.2536,-128.4701 549.6658,-128.8579 558.1845,-135.1573 560.2536,-128.4701"/>
</g>
<!-- Node23&#45;&gt;Node22 -->
<g id="edge32" class="edge">
<title>Node23&#45;&gt;Node22</title>
<path fill="none" stroke="#191970" d="M689.5136,-168.2455C672.3208,-159.4125 646.7762,-146.2887 627.2868,-136.2758"/>
<polygon fill="#191970" stroke="#191970" points="628.763,-133.0993 618.2688,-131.6427 625.5641,-139.3257 628.763,-133.0993"/>
</g>
<!-- Node25 -->
<g id="node26" class="node">
<title>Node25</title>
<g id="a_node26"><a xlink:href="SpatialMotionVector_8h.html" target="_top" xlink:title="iDynTree/Core/SpatialMotion\lVector.h">
<polygon fill="none" stroke="#000000" points="712,-459.5 712,-489.5 867,-489.5 867,-459.5 712,-459.5"/>
<text text-anchor="start" x="720" y="-477.5" font-family="FreeSans.ttf" font-size="10.00" fill="#000000">iDynTree/Core/SpatialMotion</text>
<text text-anchor="middle" x="789.5" y="-466.5" font-family="FreeSans.ttf" font-size="10.00" fill="#000000">Vector.h</text>
</a>
</g>
</g>
<!-- Node24&#45;&gt;Node25 -->
<g id="edge37" class="edge">
<title>Node24&#45;&gt;Node25</title>
<path fill="none" stroke="#191970" d="M661.8481,-531.9005C683.9706,-521.9528 719.1404,-506.1382 746.9674,-493.6254"/>
<polygon fill="#191970" stroke="#191970" points="748.4084,-496.8151 756.0934,-489.5218 745.5376,-490.4308 748.4084,-496.8151"/>
</g>
<!-- Node25&#45;&gt;Node23 -->
<g id="edge38" class="edge">
<title>Node25&#45;&gt;Node23</title>
<path fill="none" stroke="#191970" d="M803.9211,-459.2609C823.8818,-436.5038 857.5,-391.4322 857.5,-346 857.5,-346 857.5,-346 857.5,-290 857.5,-258.7875 855.5281,-246.113 833.5,-224 817.3664,-207.8042 795.0525,-197.2572 773.7376,-190.4114"/>
<polygon fill="#191970" stroke="#191970" points="774.6236,-187.0234 764.0404,-187.5195 772.6231,-193.7314 774.6236,-187.0234"/>
</g>
<!-- Node26 -->
<g id="node27" class="node">
<title>Node26</title>
<g id="a_node27"><a xlink:href="GeomVector3_8h.html" target="_top" xlink:title="iDynTree/Core/GeomVector3.h">
<polygon fill="none" stroke="#000000" points="628,-224.5 628,-243.5 791,-243.5 791,-224.5 628,-224.5"/>
<text text-anchor="middle" x="709.5" y="-231.5" font-family="FreeSans.ttf" font-size="10.00" fill="#000000">iDynTree/Core/GeomVector3.h</text>
</a>
</g>
</g>
<!-- Node25&#45;&gt;Node26 -->
<g id="edge39" class="edge">
<title>Node25&#45;&gt;Node26</title>
<path fill="none" stroke="#191970" d="M784.4956,-459.4556C770.564,-417.5736 731.3425,-299.6641 715.8806,-253.1818"/>
<polygon fill="#191970" stroke="#191970" points="719.2006,-252.0735 712.7231,-243.6895 712.5584,-254.283 719.2006,-252.0735"/>
</g>
<!-- Node27 -->
<g id="node28" class="node">
<title>Node27</title>
<g id="a_node28"><a xlink:href="SpatialVector_8h.html" target="_top" xlink:title="iDynTree/Core/SpatialVector.h">
<polygon fill="none" stroke="#000000" points="516,-398 516,-417 677,-417 677,-398 516,-398"/>
<text text-anchor="middle" x="596.5" y="-405" font-family="FreeSans.ttf" font-size="10.00" fill="#000000">iDynTree/Core/SpatialVector.h</text>
</a>
</g>
</g>
<!-- Node25&#45;&gt;Node27 -->
<g id="edge41" class="edge">
<title>Node25&#45;&gt;Node27</title>
<path fill="none" stroke="#191970" d="M746.187,-459.4639C712.2447,-447.6808 665.5355,-431.4657 633.3671,-420.2984"/>
<polygon fill="#191970" stroke="#191970" points="634.4757,-416.9784 623.8809,-417.0053 632.18,-423.5913 634.4757,-416.9784"/>
</g>
<!-- Node26&#45;&gt;Node23 -->
<g id="edge40" class="edge">
<title>Node26&#45;&gt;Node23</title>
<path fill="none" stroke="#191970" d="M709.3258,-224.2455C709.1953,-216.9382 709.0124,-206.6944 708.8519,-197.7046"/>
<polygon fill="#191970" stroke="#191970" points="712.3503,-197.5786 708.6722,-187.6427 705.3514,-197.7036 712.3503,-197.5786"/>
</g>
<!-- Node27&#45;&gt;Node6 -->
<g id="edge55" class="edge">
<title>Node27&#45;&gt;Node6</title>
<path fill="none" stroke="#191970" d="M618.4163,-397.9504C662.5567,-377.3428 761.21,-324.0045 799.5,-244 824.9606,-190.8017 800.7033,-118.8848 786.3603,-85.0689"/>
<polygon fill="#191970" stroke="#191970" points="789.5351,-83.5939 782.2933,-75.8604 783.1318,-86.422 789.5351,-83.5939"/>
</g>
<!-- Node27&#45;&gt;Node21 -->
<g id="edge57" class="edge">
<title>Node27&#45;&gt;Node21</title>
<path fill="none" stroke="#191970" d="M520.4198,-397.9816C407.5323,-382.4444 203.1009,-348.4337 148.5,-300 101.1294,-257.9799 87.6876,-178.7756 83.9289,-141.8668"/>
<polygon fill="#191970" stroke="#191970" points="87.4113,-141.5121 83.0465,-131.8582 80.4384,-142.127 87.4113,-141.5121"/>
</g>
<!-- Node27&#45;&gt;Node22 -->
<g id="edge58" class="edge">
<title>Node27&#45;&gt;Node22</title>
<path fill="none" stroke="#191970" d="M596.9171,-397.7532C597.7415,-377.6243 599.5,-329.9957 599.5,-290 599.5,-290 599.5,-290 599.5,-234 599.5,-201.7116 599.5,-164.1872 599.5,-141.8048"/>
<polygon fill="#191970" stroke="#191970" points="603.0001,-141.5883 599.5,-131.5884 596.0001,-141.5884 603.0001,-141.5883"/>
</g>
<!-- Node27&#45;&gt;Node26 -->
<g id="edge56" class="edge">
<title>Node27&#45;&gt;Node26</title>
<path fill="none" stroke="#191970" d="M602.7363,-397.9248C620.8296,-370.1443 673.5658,-289.1733 697.471,-252.4693"/>
<polygon fill="#191970" stroke="#191970" points="700.6189,-254.0492 703.1437,-243.7595 694.7533,-250.2289 700.6189,-254.0492"/>
</g>
<!-- Node28 -->
<g id="node29" class="node">
<title>Node28</title>
<g id="a_node29"><a xlink:href="Position_8h.html" target="_top" xlink:title="Position.h">
<polygon fill="none" stroke="#000000" points="420,-336.5 420,-355.5 485,-355.5 485,-336.5 420,-336.5"/>
<text text-anchor="middle" x="452.5" y="-343.5" font-family="FreeSans.ttf" font-size="10.00" fill="#000000">Position.h</text>
</a>
</g>
</g>
<!-- Node27&#45;&gt;Node28 -->
<g id="edge42" class="edge">
<title>Node27&#45;&gt;Node28</title>
<path fill="none" stroke="#191970" d="M574,-397.8906C549.9062,-387.6005 511.4787,-371.1888 484.2992,-359.5809"/>
<polygon fill="#191970" stroke="#191970" points="485.4131,-356.2508 474.842,-355.5419 482.6637,-362.6883 485.4131,-356.2508"/>
</g>
<!-- Node30 -->
<g id="node31" class="node">
<title>Node30</title>
<g id="a_node31"><a xlink:href="Rotation_8h.html" target="_top" xlink:title="iDynTree/Core/Rotation.h">
<polygon fill="none" stroke="#000000" points="434,-280.5 434,-299.5 571,-299.5 571,-280.5 434,-280.5"/>
<text text-anchor="middle" x="502.5" y="-287.5" font-family="FreeSans.ttf" font-size="10.00" fill="#000000">iDynTree/Core/Rotation.h</text>
</a>
</g>
</g>
<!-- Node27&#45;&gt;Node30 -->
<g id="edge54" class="edge">
<title>Node27&#45;&gt;Node30</title>
<path fill="none" stroke="#191970" d="M588.8076,-397.8845C573.0399,-378.1749 536.8462,-332.9328 516.6969,-307.7461"/>
<polygon fill="#191970" stroke="#191970" points="519.2787,-305.3706 510.2987,-299.7484 513.8126,-309.7435 519.2787,-305.3706"/>
</g>
<!-- Node28&#45;&gt;Node20 -->
<g id="edge53" class="edge">
<title>Node28&#45;&gt;Node20</title>
<path fill="none" stroke="#191970" d="M419.7992,-344.5664C328.5888,-339.3826 82.6483,-316.6653 154.5,-224 193.8679,-173.2282 232.4962,-204.8264 294.5,-188 325.7266,-179.5258 333.3359,-176.7013 364.5,-168 420.095,-152.4773 436.5648,-149.6095 495.3727,-132.2476"/>
<polygon fill="#191970" stroke="#191970" points="496.5974,-135.535 505.187,-129.3325 494.6043,-128.8247 496.5974,-135.535"/>
</g>
<!-- Node29 -->
<g id="node30" class="node">
<title>Node29</title>
<g id="a_node30"><a xlink:href="PositionRaw_8h.html" target="_top" xlink:title="iDynTree/Core/PositionRaw.h">
<polygon fill="none" stroke="#000000" points="339.5,-224.5 339.5,-243.5 495.5,-243.5 495.5,-224.5 339.5,-224.5"/>
<text text-anchor="middle" x="417.5" y="-231.5" font-family="FreeSans.ttf" font-size="10.00" fill="#000000">iDynTree/Core/PositionRaw.h</text>
</a>
</g>
</g>
<!-- Node28&#45;&gt;Node29 -->
<g id="edge43" class="edge">
<title>Node28&#45;&gt;Node29</title>
<path fill="none" stroke="#191970" d="M444.9045,-336.4069C438.3094,-327.5145 429.1141,-313.6385 424.5,-300 419.4226,-284.992 417.78,-267.0658 417.3473,-253.6858"/>
<polygon fill="#191970" stroke="#191970" points="420.847,-253.6341 417.2195,-243.6796 413.8476,-253.7235 420.847,-253.6341"/>
</g>
<!-- Node28&#45;&gt;Node30 -->
<g id="edge46" class="edge">
<title>Node28&#45;&gt;Node30</title>
<path fill="none" stroke="#191970" d="M461.2093,-336.2455C468.3073,-328.2958 478.5084,-316.8706 486.995,-307.3656"/>
<polygon fill="#191970" stroke="#191970" points="489.8411,-309.4331 493.8905,-299.6427 484.6195,-304.771 489.8411,-309.4331"/>
</g>
<!-- Node29&#45;&gt;Node20 -->
<g id="edge45" class="edge">
<title>Node29&#45;&gt;Node20</title>
<path fill="none" stroke="#191970" d="M426.8785,-224.4509C445.5499,-205.4401 487.5834,-162.6423 510.9842,-138.816"/>
<polygon fill="#191970" stroke="#191970" points="513.6352,-141.1119 518.1452,-131.5249 508.641,-136.2069 513.6352,-141.1119"/>
</g>
<!-- Node29&#45;&gt;Node23 -->
<g id="edge44" class="edge">
<title>Node29&#45;&gt;Node23</title>
<path fill="none" stroke="#191970" d="M467.194,-224.4369C517.5196,-214.7522 595.3723,-199.7703 648.9651,-189.4569"/>
<polygon fill="#191970" stroke="#191970" points="649.8525,-192.8504 659.0109,-187.5237 648.5297,-185.9765 649.8525,-192.8504"/>
</g>
<!-- Node30&#45;&gt;Node20 -->
<g id="edge47" class="edge">
<title>Node30&#45;&gt;Node20</title>
<path fill="none" stroke="#191970" d="M503.9157,-280.4862C507.8677,-253.9293 519.0826,-178.5651 524.4992,-142.1655"/>
<polygon fill="#191970" stroke="#191970" points="528.0274,-142.2342 526.0375,-131.8279 521.1037,-141.2038 528.0274,-142.2342"/>
</g>
<!-- Node30&#45;&gt;Node23 -->
<g id="edge52" class="edge">
<title>Node30&#45;&gt;Node23</title>
<path fill="none" stroke="#191970" d="M518.8905,-280.3666C541.2424,-267.3002 582.6128,-243.3679 618.5,-224 638.8259,-213.0304 662.0427,-201.1804 679.8043,-192.2554"/>
<polygon fill="#191970" stroke="#191970" points="681.6829,-195.229 689.0576,-187.6221 678.5488,-188.9698 681.6829,-195.229"/>
</g>
<!-- Node30&#45;&gt;Node26 -->
<g id="edge48" class="edge">
<title>Node30&#45;&gt;Node26</title>
<path fill="none" stroke="#191970" d="M538.0846,-280.3733C573.1016,-270.9001 626.6881,-256.4032 664.6125,-246.1435"/>
<polygon fill="#191970" stroke="#191970" points="665.6408,-249.4912 674.3798,-243.5011 663.8127,-242.7341 665.6408,-249.4912"/>
</g>
<!-- Node31 -->
<g id="node32" class="node">
<title>Node31</title>
<g id="a_node32"><a xlink:href="RotationRaw_8h.html" target="_top" xlink:title="iDynTree/Core/RotationRaw.h">
<polygon fill="none" stroke="#000000" points="163.5,-224.5 163.5,-243.5 321.5,-243.5 321.5,-224.5 163.5,-224.5"/>
<text text-anchor="middle" x="242.5" y="-231.5" font-family="FreeSans.ttf" font-size="10.00" fill="#000000">iDynTree/Core/RotationRaw.h</text>
</a>
</g>
</g>
<!-- Node30&#45;&gt;Node31 -->
<g id="edge49" class="edge">
<title>Node30&#45;&gt;Node31</title>
<path fill="none" stroke="#191970" d="M458.0998,-280.4369C413.4159,-270.8127 344.443,-255.957 296.5912,-245.6504"/>
<polygon fill="#191970" stroke="#191970" points="297.2298,-242.2078 286.717,-243.5237 295.7559,-249.0508 297.2298,-242.2078"/>
</g>
<!-- Node31&#45;&gt;Node5 -->
<g id="edge50" class="edge">
<title>Node31&#45;&gt;Node5</title>
<path fill="none" stroke="#191970" d="M236.0551,-224.2455C230.9618,-216.5367 223.7092,-205.5598 217.548,-196.2348"/>
<polygon fill="#191970" stroke="#191970" points="220.3038,-194.0566 211.8711,-187.6427 214.4635,-197.9155 220.3038,-194.0566"/>
</g>
<!-- Node31&#45;&gt;Node20 -->
<g id="edge51" class="edge">
<title>Node31&#45;&gt;Node20</title>
<path fill="none" stroke="#191970" d="M266.7989,-224.4509C318.2286,-204.24 438.0702,-157.1443 495.5864,-134.5415"/>
<polygon fill="#191970" stroke="#191970" points="497.2172,-137.6613 505.2441,-130.7462 494.6568,-131.1463 497.2172,-137.6613"/>
</g>
<!-- Node33 -->
<g id="node34" class="node">
<title>Node33</title>
<g id="a_node34"><a xlink:href="SpatialForceVector_8h.html" target="_top" xlink:title="iDynTree/Core/SpatialForce\lVector.h">
<polygon fill="none" stroke="#000000" points="522.5,-459.5 522.5,-489.5 670.5,-489.5 670.5,-459.5 522.5,-459.5"/>
<text text-anchor="start" x="530.5" y="-477.5" font-family="FreeSans.ttf" font-size="10.00" fill="#000000">iDynTree/Core/SpatialForce</text>
<text text-anchor="middle" x="596.5" y="-466.5" font-family="FreeSans.ttf" font-size="10.00" fill="#000000">Vector.h</text>
</a>
</g>
</g>
<!-- Node32&#45;&gt;Node33 -->
<g id="edge60" class="edge">
<title>Node32&#45;&gt;Node33</title>
<path fill="none" stroke="#191970" d="M486.8393,-531.9005C505.5134,-522.1258 535.0093,-506.6865 558.709,-494.2812"/>
<polygon fill="#191970" stroke="#191970" points="560.5652,-497.2602 567.8017,-489.5218 557.3189,-491.0584 560.5652,-497.2602"/>
</g>
<!-- Node33&#45;&gt;Node23 -->
<g id="edge61" class="edge">
<title>Node33&#45;&gt;Node23</title>
<path fill="none" stroke="#191970" d="M646.343,-459.4816C667.1572,-451.2926 690.4162,-439.4079 707.5,-423 772.0126,-361.0395 778.4657,-330.9399 799.5,-244 801.5903,-235.3604 804.1566,-231.5716 799.5,-224 790.1199,-208.7479 773.9458,-198.3672 757.811,-191.3894"/>
<polygon fill="#191970" stroke="#191970" points="758.9539,-188.0778 748.3672,-187.6631 756.3846,-194.5893 758.9539,-188.0778"/>
</g>
<!-- Node33&#45;&gt;Node26 -->
<g id="edge62" class="edge">
<title>Node33&#45;&gt;Node26</title>
<path fill="none" stroke="#191970" d="M639.7239,-459.3156C656.6758,-451.1667 674.6358,-439.3578 685.5,-423 720.5062,-370.2925 716.5967,-290.8214 712.3842,-254.0164"/>
<polygon fill="#191970" stroke="#191970" points="715.799,-253.1272 711.0549,-243.6539 708.8559,-254.018 715.799,-253.1272"/>
</g>
<!-- Node33&#45;&gt;Node27 -->
<g id="edge63" class="edge">
<title>Node33&#45;&gt;Node27</title>
<path fill="none" stroke="#191970" d="M596.5,-459.2967C596.5,-449.7699 596.5,-437.3954 596.5,-427.1306"/>
<polygon fill="#191970" stroke="#191970" points="600.0001,-427.0549 596.5,-417.055 593.0001,-427.055 600.0001,-427.0549"/>
</g>
<!-- Node34&#45;&gt;Node25 -->
<g id="edge65" class="edge">
<title>Node34&#45;&gt;Node25</title>
<path fill="none" stroke="#191970" d="M792.9269,-531.9005C792.426,-523.5099 791.6758,-510.9451 791.005,-499.7085"/>
<polygon fill="#191970" stroke="#191970" points="794.4866,-499.2954 790.3968,-489.5218 787.4991,-499.7126 794.4866,-499.2954"/>
</g>
<!-- Node35&#45;&gt;Node33 -->
<g id="edge67" class="edge">
<title>Node35&#45;&gt;Node33</title>
<path fill="none" stroke="#191970" d="M334.0174,-531.9717C381.7469,-521.5211 459.3274,-504.5345 517.794,-491.733"/>
<polygon fill="#191970" stroke="#191970" points="518.7198,-495.1133 527.7398,-489.5553 517.2225,-488.2753 518.7198,-495.1133"/>
</g>
<!-- Node36&#45;&gt;Node7 -->
<g id="edge69" class="edge">
<title>Node36&#45;&gt;Node7</title>
<path fill="none" stroke="#191970" d="M966.0829,-168.4862C953.6462,-141.6994 918.1548,-65.2565 901.4277,-29.2289"/>
<polygon fill="#191970" stroke="#191970" points="904.4486,-27.4241 897.0629,-19.8279 898.0996,-30.3719 904.4486,-27.4241"/>
</g>
<!-- Node36&#45;&gt;Node20 -->
<g id="edge70" class="edge">
<title>Node36&#45;&gt;Node20</title>
<path fill="none" stroke="#191970" d="M901.3849,-173.7203C819.8044,-167.8612 680.3273,-155.307 562.5,-132 561.4461,-131.7915 560.3778,-131.5667 559.3017,-131.3285"/>
<polygon fill="#191970" stroke="#191970" points="560.1323,-127.9285 549.583,-128.909 558.4412,-134.7212 560.1323,-127.9285"/>
</g>
<!-- Node37 -->
<g id="node38" class="node">
<title>Node37</title>
<polygon fill="none" stroke="#bfbfbf" points="958.5,-112.5 958.5,-131.5 1044.5,-131.5 1044.5,-112.5 958.5,-112.5"/>
<text text-anchor="middle" x="1001.5" y="-119.5" font-family="FreeSans.ttf" font-size="10.00" fill="#000000">ModelExport.h</text>
</g>
<!-- Node36&#45;&gt;Node37 -->
<g id="edge71" class="edge">
<title>Node36&#45;&gt;Node37</title>
<path fill="none" stroke="#191970" d="M975.8998,-168.2455C980.1227,-160.617 986.1173,-149.7881 991.2441,-140.5267"/>
<polygon fill="#191970" stroke="#191970" points="994.381,-142.0867 996.1621,-131.6427 988.2568,-138.6965 994.381,-142.0867"/>
</g>
</g>
</svg>
