<?xml version="1.0" encoding="UTF-8" standalone="no"?>
<!DOCTYPE svg PUBLIC "-//W3C//DTD SVG 1.1//EN"
 "http://www.w3.org/Graphics/SVG/1.1/DTD/svg11.dtd">
<!-- Generated by graphviz version 2.40.1 (20161225.0304)
 -->
<!-- Title: LinkTraversalsCache.h Pages: 1 -->
<svg width="269pt" height="140pt"
 viewBox="0.00 0.00 268.50 140.00" xmlns="http://www.w3.org/2000/svg" xmlns:xlink="http://www.w3.org/1999/xlink">
<g id="graph0" class="graph" transform="scale(1 1) rotate(0) translate(4 136)">
<title>LinkTraversalsCache.h</title>
<!-- Node0 -->
<g id="node1" class="node">
<title>Node0</title>
<polygon fill="#bfbfbf" stroke="#000000" points="16,-112.5 16,-131.5 141,-131.5 141,-112.5 16,-112.5"/>
<text text-anchor="middle" x="78.5" y="-119.5" font-family="FreeSans.ttf" font-size="10.00" fill="#000000">LinkTraversalsCache.h</text>
</g>
<!-- Node1 -->
<g id="node2" class="node">
<title>Node1</title>
<polygon fill="none" stroke="#bfbfbf" points="0,-56.5 0,-75.5 47,-75.5 47,-56.5 0,-56.5"/>
<text text-anchor="middle" x="23.5" y="-63.5" font-family="FreeSans.ttf" font-size="10.00" fill="#000000">vector</text>
</g>
<!-- Node0&#45;&gt;Node1 -->
<g id="edge1" class="edge">
<title>Node0&#45;&gt;Node1</title>
<path fill="none" stroke="#191970" d="M68.9197,-112.2455C60.9542,-104.1352 49.4359,-92.4075 39.9921,-82.7919"/>
<polygon fill="#191970" stroke="#191970" points="42.4747,-80.3247 32.9705,-75.6427 37.4805,-85.2297 42.4747,-80.3247"/>
</g>
<!-- Node2 -->
<g id="node3" class="node">
<title>Node2</title>
<g id="a_node3"><a xlink:href="Indices_8h.html" target="_top" xlink:title="iDynTree/Model/Indices.h">
<polygon fill="none" stroke="#000000" points="65.5,-56.5 65.5,-75.5 203.5,-75.5 203.5,-56.5 65.5,-56.5"/>
<text text-anchor="middle" x="134.5" y="-63.5" font-family="FreeSans.ttf" font-size="10.00" fill="#000000">iDynTree/Model/Indices.h</text>
</a>
</g>
</g>
<!-- Node0&#45;&gt;Node2 -->
<g id="edge2" class="edge">
<title>Node0&#45;&gt;Node2</title>
<path fill="none" stroke="#191970" d="M88.2545,-112.2455C96.3648,-104.1352 108.0925,-92.4075 117.7081,-82.7919"/>
<polygon fill="#191970" stroke="#191970" points="120.2611,-85.1887 124.8573,-75.6427 115.3113,-80.2389 120.2611,-85.1887"/>
</g>
<!-- Node3 -->
<g id="node4" class="node">
<title>Node3</title>
<polygon fill="none" stroke="#bfbfbf" points="41,-.5 41,-19.5 94,-19.5 94,-.5 41,-.5"/>
<text text-anchor="middle" x="67.5" y="-7.5" font-family="FreeSans.ttf" font-size="10.00" fill="#000000">cstddef</text>
</g>
<!-- Node2&#45;&gt;Node3 -->
<g id="edge3" class="edge">
<title>Node2&#45;&gt;Node3</title>
<path fill="none" stroke="#191970" d="M122.8295,-56.2455C112.9339,-47.9746 98.5373,-35.9416 86.9099,-26.2232"/>
<polygon fill="#191970" stroke="#191970" points="88.9542,-23.3703 79.0368,-19.6427 84.465,-28.7413 88.9542,-23.3703"/>
</g>
<!-- Node4 -->
<g id="node5" class="node">
<title>Node4</title>
<polygon fill="none" stroke="#bfbfbf" points="112.5,-.5 112.5,-19.5 156.5,-19.5 156.5,-.5 112.5,-.5"/>
<text text-anchor="middle" x="134.5" y="-7.5" font-family="FreeSans.ttf" font-size="10.00" fill="#000000">string</text>
</g>
<!-- Node2&#45;&gt;Node4 -->
<g id="edge4" class="edge">
<title>Node2&#45;&gt;Node4</title>
<path fill="none" stroke="#191970" d="M134.5,-56.2455C134.5,-48.9382 134.5,-38.6944 134.5,-29.7046"/>
<polygon fill="#191970" stroke="#191970" points="138.0001,-29.6426 134.5,-19.6427 131.0001,-29.6427 138.0001,-29.6426"/>
</g>
<!-- Node5 -->
<g id="node6" class="node">
<title>Node5</title>
<polygon fill="none" stroke="#bfbfbf" points="174.5,-.5 174.5,-19.5 260.5,-19.5 260.5,-.5 174.5,-.5"/>
<text text-anchor="middle" x="217.5" y="-7.5" font-family="FreeSans.ttf" font-size="10.00" fill="#000000">ModelExport.h</text>
</g>
<!-- Node2&#45;&gt;Node5 -->
<g id="edge5" class="edge">
<title>Node2&#45;&gt;Node5</title>
<path fill="none" stroke="#191970" d="M148.9575,-56.2455C161.5732,-47.7337 180.0944,-35.2375 194.7045,-25.3801"/>
<polygon fill="#191970" stroke="#191970" points="196.8761,-28.1371 203.2082,-19.6427 192.9609,-22.3343 196.8761,-28.1371"/>
</g>
</g>
</svg>
