<?xml version="1.0" encoding="UTF-8" standalone="no"?>
<!DOCTYPE svg PUBLIC "-//W3C//DTD SVG 1.1//EN"
 "http://www.w3.org/Graphics/SVG/1.1/DTD/svg11.dtd">
<!-- Generated by graphviz version 2.40.1 (20161225.0304)
 -->
<!-- Title: MaterialElement.cpp Pages: 1 -->
<svg width="1349pt" height="532pt"
 viewBox="0.00 0.00 1348.84 532.00" xmlns="http://www.w3.org/2000/svg" xmlns:xlink="http://www.w3.org/1999/xlink">
<g id="graph0" class="graph" transform="scale(1 1) rotate(0) translate(4 528)">
<title>MaterialElement.cpp</title>
<!-- Node0 -->
<g id="node1" class="node">
<title>Node0</title>
<polygon fill="#bfbfbf" stroke="#000000" points="237.5,-504.5 237.5,-523.5 354.5,-523.5 354.5,-504.5 237.5,-504.5"/>
<text text-anchor="middle" x="296" y="-511.5" font-family="FreeSans.ttf" font-size="10.00" fill="#000000">MaterialElement.cpp</text>
</g>
<!-- Node1 -->
<g id="node2" class="node">
<title>Node1</title>
<g id="a_node2"><a xlink:href="MaterialElement_8h.html" target="_top" xlink:title="MaterialElement.h">
<polygon fill="none" stroke="#000000" points="158,-224.5 158,-243.5 264,-243.5 264,-224.5 158,-224.5"/>
<text text-anchor="middle" x="211" y="-231.5" font-family="FreeSans.ttf" font-size="10.00" fill="#000000">MaterialElement.h</text>
</a>
</g>
</g>
<!-- Node0&#45;&gt;Node1 -->
<g id="edge1" class="edge">
<title>Node0&#45;&gt;Node1</title>
<path fill="none" stroke="#191970" d="M278.2687,-504.4441C264.7354,-496.3428 246.514,-483.5707 235,-468 216.4421,-442.9036 211,-433.2125 211,-402 211,-402 211,-402 211,-346 211,-313.7116 211,-276.1872 211,-253.8048"/>
<polygon fill="#191970" stroke="#191970" points="214.5001,-253.5883 211,-243.5884 207.5001,-253.5884 214.5001,-253.5883"/>
</g>
<!-- Node9 -->
<g id="node10" class="node">
<title>Node9</title>
<g id="a_node10"><a xlink:href="Utils_8h.html" target="_top" xlink:title="iDynTree/Core/Utils.h">
<polygon fill="none" stroke="#000000" points="657.5,-56.5 657.5,-75.5 776.5,-75.5 776.5,-56.5 657.5,-56.5"/>
<text text-anchor="middle" x="717" y="-63.5" font-family="FreeSans.ttf" font-size="10.00" fill="#000000">iDynTree/Core/Utils.h</text>
</a>
</g>
</g>
<!-- Node0&#45;&gt;Node9 -->
<g id="edge67" class="edge">
<title>Node0&#45;&gt;Node9</title>
<path fill="none" stroke="#191970" d="M291.1691,-504.3847C278.1433,-477.0851 244.7988,-397.1259 268,-336 303.416,-242.693 342.4966,-234.4058 417,-168 449.3994,-139.122 457.1687,-129.2373 497,-112 544.8411,-91.2963 602.6626,-79.674 647.0194,-73.293"/>
<polygon fill="#191970" stroke="#191970" points="647.7023,-76.732 657.1287,-71.8955 646.7436,-69.798 647.7023,-76.732"/>
</g>
<!-- Node23 -->
<g id="node24" class="node">
<title>Node23</title>
<g id="a_node24"><a xlink:href="URDFParsingUtils_8h.html" target="_top" xlink:title="URDFParsingUtils.h">
<polygon fill="none" stroke="#000000" points="566,-448.5 566,-467.5 676,-467.5 676,-448.5 566,-448.5"/>
<text text-anchor="middle" x="621" y="-455.5" font-family="FreeSans.ttf" font-size="10.00" fill="#000000">URDFParsingUtils.h</text>
</a>
</g>
</g>
<!-- Node0&#45;&gt;Node23 -->
<g id="edge29" class="edge">
<title>Node0&#45;&gt;Node23</title>
<path fill="none" stroke="#191970" d="M351.5002,-504.4369C408.142,-494.6771 496.0062,-479.5374 555.8979,-469.2176"/>
<polygon fill="#191970" stroke="#191970" points="556.7396,-472.6242 566,-467.4769 555.5509,-465.7259 556.7396,-472.6242"/>
</g>
<!-- Node36 -->
<g id="node37" class="node">
<title>Node36</title>
<g id="a_node37"><a xlink:href="XMLAttribute_8h.html" target="_top" xlink:title="iDynTree/XMLAttribute.h">
<polygon fill="none" stroke="#000000" points="277,-336.5 277,-355.5 411,-355.5 411,-336.5 277,-336.5"/>
<text text-anchor="middle" x="344" y="-343.5" font-family="FreeSans.ttf" font-size="10.00" fill="#000000">iDynTree/XMLAttribute.h</text>
</a>
</g>
</g>
<!-- Node0&#45;&gt;Node36 -->
<g id="edge65" class="edge">
<title>Node0&#45;&gt;Node36</title>
<path fill="none" stroke="#191970" d="M298.7182,-504.4862C306.3387,-477.8144 328.0252,-401.9117 338.3729,-365.695"/>
<polygon fill="#191970" stroke="#191970" points="341.8101,-366.4047 341.192,-355.8279 335.0794,-364.4816 341.8101,-366.4047"/>
</g>
<!-- Node2 -->
<g id="node3" class="node">
<title>Node2</title>
<g id="a_node3"><a xlink:href="XMLElement_8h.html" target="_top" xlink:title="iDynTree/XMLElement.h">
<polygon fill="none" stroke="#000000" points="140,-168.5 140,-187.5 272,-187.5 272,-168.5 140,-168.5"/>
<text text-anchor="middle" x="206" y="-175.5" font-family="FreeSans.ttf" font-size="10.00" fill="#000000">iDynTree/XMLElement.h</text>
</a>
</g>
</g>
<!-- Node1&#45;&gt;Node2 -->
<g id="edge2" class="edge">
<title>Node1&#45;&gt;Node2</title>
<path fill="none" stroke="#191970" d="M210.1291,-224.2455C209.4766,-216.9382 208.562,-206.6944 207.7593,-197.7046"/>
<polygon fill="#191970" stroke="#191970" points="211.2365,-197.2918 206.861,-187.6427 204.2642,-197.9143 211.2365,-197.2918"/>
</g>
<!-- Node4 -->
<g id="node5" class="node">
<title>Node4</title>
<polygon fill="none" stroke="#bfbfbf" points="0,-112.5 0,-131.5 58,-131.5 58,-112.5 0,-112.5"/>
<text text-anchor="middle" x="29" y="-119.5" font-family="FreeSans.ttf" font-size="10.00" fill="#000000">memory</text>
</g>
<!-- Node1&#45;&gt;Node4 -->
<g id="edge27" class="edge">
<title>Node1&#45;&gt;Node4</title>
<path fill="none" stroke="#191970" d="M193.6808,-224.3877C177.373,-215.2553 152.3324,-201.0224 131,-188 103.3994,-171.1512 72.2749,-150.812 51.7463,-137.2059"/>
<polygon fill="#191970" stroke="#191970" points="53.64,-134.262 43.3745,-131.641 49.765,-140.0916 53.64,-134.262"/>
</g>
<!-- Node5 -->
<g id="node6" class="node">
<title>Node5</title>
<polygon fill="none" stroke="#bfbfbf" points="506,-112.5 506,-131.5 550,-131.5 550,-112.5 506,-112.5"/>
<text text-anchor="middle" x="528" y="-119.5" font-family="FreeSans.ttf" font-size="10.00" fill="#000000">string</text>
</g>
<!-- Node1&#45;&gt;Node5 -->
<g id="edge28" class="edge">
<title>Node1&#45;&gt;Node5</title>
<path fill="none" stroke="#191970" d="M238.0272,-224.4509C296.3193,-203.8556 433.6263,-155.3434 496.0767,-133.2789"/>
<polygon fill="#191970" stroke="#191970" points="497.5212,-136.4806 505.784,-129.8492 495.1892,-129.8805 497.5212,-136.4806"/>
</g>
<!-- Node8 -->
<g id="node9" class="node">
<title>Node8</title>
<g id="a_node9"><a xlink:href="VectorFixSize_8h.html" target="_top" xlink:title="iDynTree/Core/VectorFixSize.h">
<polygon fill="none" stroke="#000000" points="806.5,-168.5 806.5,-187.5 967.5,-187.5 967.5,-168.5 806.5,-168.5"/>
<text text-anchor="middle" x="887" y="-175.5" font-family="FreeSans.ttf" font-size="10.00" fill="#000000">iDynTree/Core/VectorFixSize.h</text>
</a>
</g>
</g>
<!-- Node1&#45;&gt;Node8 -->
<g id="edge8" class="edge">
<title>Node1&#45;&gt;Node8</title>
<path fill="none" stroke="#191970" d="M264.0446,-229.6058C379.1681,-220.0689 653.0633,-197.3794 796.2543,-185.5174"/>
<polygon fill="#191970" stroke="#191970" points="796.6573,-188.9961 806.3342,-184.6824 796.0794,-182.02 796.6573,-188.9961"/>
</g>
<!-- Node3 -->
<g id="node4" class="node">
<title>Node3</title>
<polygon fill="none" stroke="#bfbfbf" points="76.5,-112.5 76.5,-131.5 141.5,-131.5 141.5,-112.5 76.5,-112.5"/>
<text text-anchor="middle" x="109" y="-119.5" font-family="FreeSans.ttf" font-size="10.00" fill="#000000">functional</text>
</g>
<!-- Node2&#45;&gt;Node3 -->
<g id="edge3" class="edge">
<title>Node2&#45;&gt;Node3</title>
<path fill="none" stroke="#191970" d="M189.1039,-168.2455C174.082,-159.5731 151.8957,-146.7645 134.679,-136.825"/>
<polygon fill="#191970" stroke="#191970" points="136.1128,-133.6114 125.7025,-131.6427 132.6129,-139.6737 136.1128,-133.6114"/>
</g>
<!-- Node2&#45;&gt;Node4 -->
<g id="edge4" class="edge">
<title>Node2&#45;&gt;Node4</title>
<path fill="none" stroke="#191970" d="M175.5726,-168.3733C145.7441,-158.936 100.1573,-144.5131 67.7515,-134.2604"/>
<polygon fill="#191970" stroke="#191970" points="68.7397,-130.9021 58.1497,-131.2225 66.6281,-137.576 68.7397,-130.9021"/>
</g>
<!-- Node2&#45;&gt;Node5 -->
<g id="edge5" class="edge">
<title>Node2&#45;&gt;Node5</title>
<path fill="none" stroke="#191970" d="M260.9879,-168.4369C328.515,-156.693 440.8317,-137.1597 495.7585,-127.6072"/>
<polygon fill="#191970" stroke="#191970" points="496.696,-130.9968 505.9484,-125.8351 495.4965,-124.1003 496.696,-130.9968"/>
</g>
<!-- Node6 -->
<g id="node7" class="node">
<title>Node6</title>
<polygon fill="none" stroke="#bfbfbf" points="159.5,-112.5 159.5,-131.5 252.5,-131.5 252.5,-112.5 159.5,-112.5"/>
<text text-anchor="middle" x="206" y="-119.5" font-family="FreeSans.ttf" font-size="10.00" fill="#000000">unordered_map</text>
</g>
<!-- Node2&#45;&gt;Node6 -->
<g id="edge6" class="edge">
<title>Node2&#45;&gt;Node6</title>
<path fill="none" stroke="#191970" d="M206,-168.2455C206,-160.9382 206,-150.6944 206,-141.7046"/>
<polygon fill="#191970" stroke="#191970" points="209.5001,-141.6426 206,-131.6427 202.5001,-141.6427 209.5001,-141.6426"/>
</g>
<!-- Node7 -->
<g id="node8" class="node">
<title>Node7</title>
<polygon fill="none" stroke="#bfbfbf" points="270.5,-112.5 270.5,-131.5 317.5,-131.5 317.5,-112.5 270.5,-112.5"/>
<text text-anchor="middle" x="294" y="-119.5" font-family="FreeSans.ttf" font-size="10.00" fill="#000000">vector</text>
</g>
<!-- Node2&#45;&gt;Node7 -->
<g id="edge7" class="edge">
<title>Node2&#45;&gt;Node7</title>
<path fill="none" stroke="#191970" d="M221.3284,-168.2455C234.8303,-159.6534 254.7122,-147.0014 270.2686,-137.1018"/>
<polygon fill="#191970" stroke="#191970" points="272.2897,-139.9643 278.8472,-131.6427 268.5315,-134.0587 272.2897,-139.9643"/>
</g>
<!-- Node8&#45;&gt;Node5 -->
<g id="edge22" class="edge">
<title>Node8&#45;&gt;Node5</title>
<path fill="none" stroke="#191970" d="M825.6936,-168.4369C748.8032,-156.4428 619.8259,-136.3238 560.1203,-127.0104"/>
<polygon fill="#191970" stroke="#191970" points="560.5613,-123.5369 550.1413,-125.4538 559.4823,-130.4533 560.5613,-123.5369"/>
</g>
<!-- Node8&#45;&gt;Node9 -->
<g id="edge9" class="edge">
<title>Node8&#45;&gt;Node9</title>
<path fill="none" stroke="#191970" d="M862.6046,-168.3586C842.8132,-160.0353 814.5915,-147.0053 792,-132 770.3009,-117.5874 748.2486,-97.3697 733.726,-83.1188"/>
<polygon fill="#191970" stroke="#191970" points="736.0332,-80.4766 726.4825,-75.8903 731.0886,-85.4315 736.0332,-80.4766"/>
</g>
<!-- Node10 -->
<g id="node11" class="node">
<title>Node10</title>
<polygon fill="none" stroke="#bfbfbf" points="687.5,-.5 687.5,-19.5 740.5,-19.5 740.5,-.5 687.5,-.5"/>
<text text-anchor="middle" x="714" y="-7.5" font-family="FreeSans.ttf" font-size="10.00" fill="#000000">cstddef</text>
</g>
<!-- Node8&#45;&gt;Node10 -->
<g id="edge25" class="edge">
<title>Node8&#45;&gt;Node10</title>
<path fill="none" stroke="#191970" d="M880.5303,-168.2692C865.6717,-146.3981 827.2027,-92.4234 786,-56 772.3252,-43.9114 755.1622,-32.8164 741.0234,-24.5527"/>
<polygon fill="#191970" stroke="#191970" points="742.6578,-21.4557 732.2359,-19.549 739.1941,-27.5387 742.6578,-21.4557"/>
</g>
<!-- Node12 -->
<g id="node13" class="node">
<title>Node12</title>
<g id="a_node13"><a xlink:href="Span_8h.html" target="_top" xlink:title="iDynTree/Core/Span.h">
<polygon fill="none" stroke="#000000" points="933.5,-56.5 933.5,-75.5 1054.5,-75.5 1054.5,-56.5 933.5,-56.5"/>
<text text-anchor="middle" x="994" y="-63.5" font-family="FreeSans.ttf" font-size="10.00" fill="#000000">iDynTree/Core/Span.h</text>
</a>
</g>
</g>
<!-- Node8&#45;&gt;Node12 -->
<g id="edge12" class="edge">
<title>Node8&#45;&gt;Node12</title>
<path fill="none" stroke="#191970" d="M878.4232,-168.2644C867.522,-154.6559 851.5322,-129.637 864,-112 873.4243,-98.6683 909.7071,-86.4851 941.5541,-78.0108"/>
<polygon fill="#191970" stroke="#191970" points="942.4542,-81.3933 951.2606,-75.5028 940.703,-74.6159 942.4542,-81.3933"/>
</g>
<!-- Node13 -->
<g id="node14" class="node">
<title>Node13</title>
<polygon fill="none" stroke="#bfbfbf" points="1269,-.5 1269,-19.5 1321,-19.5 1321,-.5 1269,-.5"/>
<text text-anchor="middle" x="1295" y="-7.5" font-family="FreeSans.ttf" font-size="10.00" fill="#000000">cassert</text>
</g>
<!-- Node8&#45;&gt;Node13 -->
<g id="edge24" class="edge">
<title>Node8&#45;&gt;Node13</title>
<path fill="none" stroke="#191970" d="M961.789,-168.4662C1024.5742,-159.7207 1108.8624,-146.03 1140,-132 1197.7223,-105.9913 1252.9108,-53.9217 1279.1215,-26.9961"/>
<polygon fill="#191970" stroke="#191970" points="1281.9077,-29.147 1286.2962,-19.5038 1276.852,-24.3055 1281.9077,-29.147"/>
</g>
<!-- Node21 -->
<g id="node22" class="node">
<title>Node21</title>
<polygon fill="none" stroke="#bfbfbf" points="1187,-112.5 1187,-131.5 1243,-131.5 1243,-112.5 1187,-112.5"/>
<text text-anchor="middle" x="1215" y="-119.5" font-family="FreeSans.ttf" font-size="10.00" fill="#000000">sstream</text>
</g>
<!-- Node8&#45;&gt;Node21 -->
<g id="edge23" class="edge">
<title>Node8&#45;&gt;Node21</title>
<path fill="none" stroke="#191970" d="M955.1529,-168.4929C1013.2575,-160.0403 1098.8936,-146.7606 1173,-132 1174.2405,-131.7529 1175.4999,-131.495 1176.7705,-131.2286"/>
<polygon fill="#191970" stroke="#191970" points="1177.5831,-134.6336 1186.5963,-129.0646 1176.0775,-127.7974 1177.5831,-134.6336"/>
</g>
<!-- Node22 -->
<g id="node23" class="node">
<title>Node22</title>
<polygon fill="none" stroke="#bfbfbf" points="873,-112.5 873,-131.5 923,-131.5 923,-112.5 873,-112.5"/>
<text text-anchor="middle" x="898" y="-119.5" font-family="FreeSans.ttf" font-size="10.00" fill="#000000">cstring</text>
</g>
<!-- Node8&#45;&gt;Node22 -->
<g id="edge26" class="edge">
<title>Node8&#45;&gt;Node22</title>
<path fill="none" stroke="#191970" d="M888.9161,-168.2455C890.3514,-160.9382 892.3636,-150.6944 894.1295,-141.7046"/>
<polygon fill="#191970" stroke="#191970" points="897.6127,-142.1298 896.1059,-131.6427 890.744,-140.7805 897.6127,-142.1298"/>
</g>
<!-- Node9&#45;&gt;Node10 -->
<g id="edge10" class="edge">
<title>Node9&#45;&gt;Node10</title>
<path fill="none" stroke="#191970" d="M716.4774,-56.2455C716.086,-48.9382 715.5372,-38.6944 715.0556,-29.7046"/>
<polygon fill="#191970" stroke="#191970" points="718.5466,-29.4411 714.5166,-19.6427 711.5566,-29.8156 718.5466,-29.4411"/>
</g>
<!-- Node11 -->
<g id="node12" class="node">
<title>Node11</title>
<polygon fill="none" stroke="#bfbfbf" points="589,-.5 589,-19.5 669,-19.5 669,-.5 589,-.5"/>
<text text-anchor="middle" x="629" y="-7.5" font-family="FreeSans.ttf" font-size="10.00" fill="#000000">CoreExport.h</text>
</g>
<!-- Node9&#45;&gt;Node11 -->
<g id="edge11" class="edge">
<title>Node9&#45;&gt;Node11</title>
<path fill="none" stroke="#191970" d="M701.6716,-56.2455C688.1697,-47.6534 668.2878,-35.0014 652.7314,-25.1018"/>
<polygon fill="#191970" stroke="#191970" points="654.4685,-22.0587 644.1528,-19.6427 650.7103,-27.9643 654.4685,-22.0587"/>
</g>
<!-- Node12&#45;&gt;Node10 -->
<g id="edge16" class="edge">
<title>Node12&#45;&gt;Node10</title>
<path fill="none" stroke="#191970" d="M936.0311,-56.494C888.64,-48.3989 819.7191,-35.891 750.4466,-19.9513"/>
<polygon fill="#191970" stroke="#191970" points="751.2046,-16.5343 740.6718,-17.6795 749.6199,-23.3526 751.2046,-16.5343"/>
</g>
<!-- Node12&#45;&gt;Node13 -->
<g id="edge13" class="edge">
<title>Node12&#45;&gt;Node13</title>
<path fill="none" stroke="#191970" d="M1054.5837,-57.414C1106.411,-49.6402 1183.157,-37.1159 1258.5592,-20.1513"/>
<polygon fill="#191970" stroke="#191970" points="1259.7325,-23.4737 1268.7049,-17.8394 1258.1772,-16.6487 1259.7325,-23.4737"/>
</g>
<!-- Node14 -->
<g id="node15" class="node">
<title>Node14</title>
<polygon fill="none" stroke="#bfbfbf" points="759,-.5 759,-19.5 823,-19.5 823,-.5 759,-.5"/>
<text text-anchor="middle" x="791" y="-7.5" font-family="FreeSans.ttf" font-size="10.00" fill="#000000">algorithm</text>
</g>
<!-- Node12&#45;&gt;Node14 -->
<g id="edge14" class="edge">
<title>Node12&#45;&gt;Node14</title>
<path fill="none" stroke="#191970" d="M959.1031,-56.3733C924.1835,-46.7403 870.4337,-31.9128 833.1515,-21.628"/>
<polygon fill="#191970" stroke="#191970" points="833.6728,-18.1411 823.1021,-18.8557 831.8112,-24.8891 833.6728,-18.1411"/>
</g>
<!-- Node15 -->
<g id="node16" class="node">
<title>Node15</title>
<polygon fill="none" stroke="#bfbfbf" points="841,-.5 841,-19.5 883,-19.5 883,-.5 841,-.5"/>
<text text-anchor="middle" x="862" y="-7.5" font-family="FreeSans.ttf" font-size="10.00" fill="#000000">array</text>
</g>
<!-- Node12&#45;&gt;Node15 -->
<g id="edge15" class="edge">
<title>Node12&#45;&gt;Node15</title>
<path fill="none" stroke="#191970" d="M971.3084,-56.3733C949.5402,-47.1383 916.5186,-33.1291 892.4668,-22.9253"/>
<polygon fill="#191970" stroke="#191970" points="893.6619,-19.6304 883.0892,-18.9469 890.928,-26.0745 893.6619,-19.6304"/>
</g>
<!-- Node16 -->
<g id="node17" class="node">
<title>Node16</title>
<polygon fill="none" stroke="#bfbfbf" points="901.5,-.5 901.5,-19.5 954.5,-19.5 954.5,-.5 901.5,-.5"/>
<text text-anchor="middle" x="928" y="-7.5" font-family="FreeSans.ttf" font-size="10.00" fill="#000000">iterator</text>
</g>
<!-- Node12&#45;&gt;Node16 -->
<g id="edge17" class="edge">
<title>Node12&#45;&gt;Node16</title>
<path fill="none" stroke="#191970" d="M982.5037,-56.2455C972.7558,-47.9746 958.5741,-35.9416 947.1202,-26.2232"/>
<polygon fill="#191970" stroke="#191970" points="949.2541,-23.4437 939.3646,-19.6427 944.7253,-28.7813 949.2541,-23.4437"/>
</g>
<!-- Node17 -->
<g id="node18" class="node">
<title>Node17</title>
<polygon fill="none" stroke="#bfbfbf" points="973,-.5 973,-19.5 1017,-19.5 1017,-.5 973,-.5"/>
<text text-anchor="middle" x="995" y="-7.5" font-family="FreeSans.ttf" font-size="10.00" fill="#000000">limits</text>
</g>
<!-- Node12&#45;&gt;Node17 -->
<g id="edge18" class="edge">
<title>Node12&#45;&gt;Node17</title>
<path fill="none" stroke="#191970" d="M994.1742,-56.2455C994.3047,-48.9382 994.4876,-38.6944 994.6481,-29.7046"/>
<polygon fill="#191970" stroke="#191970" points="998.1486,-29.7036 994.8278,-19.6427 991.1497,-29.5786 998.1486,-29.7036"/>
</g>
<!-- Node18 -->
<g id="node19" class="node">
<title>Node18</title>
<polygon fill="none" stroke="#bfbfbf" points="1035.5,-.5 1035.5,-19.5 1100.5,-19.5 1100.5,-.5 1035.5,-.5"/>
<text text-anchor="middle" x="1068" y="-7.5" font-family="FreeSans.ttf" font-size="10.00" fill="#000000">stdexcept</text>
</g>
<!-- Node12&#45;&gt;Node18 -->
<g id="edge19" class="edge">
<title>Node12&#45;&gt;Node18</title>
<path fill="none" stroke="#191970" d="M1006.8898,-56.2455C1017.9254,-47.8943 1034.0292,-35.7076 1046.9353,-25.9408"/>
<polygon fill="#191970" stroke="#191970" points="1049.3959,-28.4681 1055.2579,-19.6427 1045.1717,-22.8862 1049.3959,-28.4681"/>
</g>
<!-- Node19 -->
<g id="node20" class="node">
<title>Node19</title>
<polygon fill="none" stroke="#bfbfbf" points="1181.5,-.5 1181.5,-19.5 1250.5,-19.5 1250.5,-.5 1181.5,-.5"/>
<text text-anchor="middle" x="1216" y="-7.5" font-family="FreeSans.ttf" font-size="10.00" fill="#000000">type_traits</text>
</g>
<!-- Node12&#45;&gt;Node19 -->
<g id="edge20" class="edge">
<title>Node12&#45;&gt;Node19</title>
<path fill="none" stroke="#191970" d="M1031.9109,-56.4369C1070.5803,-46.6824 1130.5536,-31.5541 1171.4627,-21.2346"/>
<polygon fill="#191970" stroke="#191970" points="1172.3303,-24.6255 1181.1704,-18.7858 1170.6181,-17.8381 1172.3303,-24.6255"/>
</g>
<!-- Node20 -->
<g id="node21" class="node">
<title>Node20</title>
<polygon fill="none" stroke="#bfbfbf" points="1118.5,-.5 1118.5,-19.5 1163.5,-19.5 1163.5,-.5 1118.5,-.5"/>
<text text-anchor="middle" x="1141" y="-7.5" font-family="FreeSans.ttf" font-size="10.00" fill="#000000">utility</text>
</g>
<!-- Node12&#45;&gt;Node20 -->
<g id="edge21" class="edge">
<title>Node12&#45;&gt;Node20</title>
<path fill="none" stroke="#191970" d="M1019.2702,-56.3733C1044.1277,-46.9037 1082.1621,-32.4144 1109.0921,-22.1554"/>
<polygon fill="#191970" stroke="#191970" points="1110.3674,-25.415 1118.4663,-18.5843 1107.8754,-18.8736 1110.3674,-25.415"/>
</g>
<!-- Node23&#45;&gt;Node5 -->
<g id="edge33" class="edge">
<title>Node23&#45;&gt;Node5</title>
<path fill="none" stroke="#191970" d="M620.3502,-448.066C618.9902,-434.2216 614.8074,-408.9244 602,-392 583.692,-367.8068 563.0576,-379.6072 544,-356 527.3991,-335.436 528.6268,-326.0204 524,-300 513.9312,-243.3752 520.6116,-175.0329 525.0131,-141.9177"/>
<polygon fill="#191970" stroke="#191970" points="528.5161,-142.1406 526.4437,-131.7505 521.5844,-141.1652 528.5161,-142.1406"/>
</g>
<!-- Node23&#45;&gt;Node7 -->
<g id="edge34" class="edge">
<title>Node23&#45;&gt;Node7</title>
<path fill="none" stroke="#191970" d="M571.4261,-448.4533C530.4283,-439.7516 476.2406,-426.1331 459,-412 429.639,-387.9311 438.3057,-369.2609 420,-336 379.5441,-262.4929 327.7822,-177.0758 305.283,-140.3358"/>
<polygon fill="#191970" stroke="#191970" points="308.1945,-138.3884 299.9813,-131.6957 302.2282,-142.0495 308.1945,-138.3884"/>
</g>
<!-- Node23&#45;&gt;Node8 -->
<g id="edge63" class="edge">
<title>Node23&#45;&gt;Node8</title>
<path fill="none" stroke="#191970" d="M669.9538,-448.4851C707.272,-440.5662 759.6278,-428.0131 804,-412 966.6791,-353.2921 1062.811,-390.3294 1155,-244 1159.7382,-236.4792 1160.7291,-230.7963 1155,-224 1148.8212,-216.6703 1042.5583,-200.1187 965.7251,-189.0013"/>
<polygon fill="#191970" stroke="#191970" points="965.9627,-185.4995 955.5658,-187.5381 964.9647,-192.428 965.9627,-185.4995"/>
</g>
<!-- Node23&#45;&gt;Node21 -->
<g id="edge32" class="edge">
<title>Node23&#45;&gt;Node21</title>
<path fill="none" stroke="#191970" d="M676.0355,-457.4841C820.3085,-455.6414 1201.3613,-447.4365 1245,-412 1268.6959,-392.7579 1264,-376.5246 1264,-346 1264,-346 1264,-346 1264,-234 1264,-198.3181 1242.867,-161.1985 1228.3581,-139.9186"/>
<polygon fill="#191970" stroke="#191970" points="1231.0789,-137.7046 1222.442,-131.5681 1225.3671,-141.7512 1231.0789,-137.7046"/>
</g>
<!-- Node24 -->
<g id="node25" class="node">
<title>Node24</title>
<polygon fill="none" stroke="#bfbfbf" points="1188.5,-392.5 1188.5,-411.5 1235.5,-411.5 1235.5,-392.5 1188.5,-392.5"/>
<text text-anchor="middle" x="1212" y="-399.5" font-family="FreeSans.ttf" font-size="10.00" fill="#000000">cmath</text>
</g>
<!-- Node23&#45;&gt;Node24 -->
<g id="edge30" class="edge">
<title>Node23&#45;&gt;Node24</title>
<path fill="none" stroke="#191970" d="M676.3447,-456.5847C776.3656,-453.3211 993.6003,-442.9961 1174,-412 1175.4707,-411.7473 1176.9676,-411.4648 1178.4753,-411.1594"/>
<polygon fill="#191970" stroke="#191970" points="1179.4546,-414.5259 1188.4231,-408.8852 1177.8945,-407.7019 1179.4546,-414.5259"/>
</g>
<!-- Node25 -->
<g id="node26" class="node">
<title>Node25</title>
<polygon fill="none" stroke="#bfbfbf" points="467.5,-392.5 467.5,-411.5 516.5,-411.5 516.5,-392.5 467.5,-392.5"/>
<text text-anchor="middle" x="492" y="-399.5" font-family="FreeSans.ttf" font-size="10.00" fill="#000000">cstdlib</text>
</g>
<!-- Node23&#45;&gt;Node25 -->
<g id="edge31" class="edge">
<title>Node23&#45;&gt;Node25</title>
<path fill="none" stroke="#191970" d="M598.8241,-448.3733C578.0234,-439.3435 546.7083,-425.7494 523.3542,-415.6111"/>
<polygon fill="#191970" stroke="#191970" points="524.4532,-412.2727 513.8865,-411.5011 521.6657,-418.6938 524.4532,-412.2727"/>
</g>
<!-- Node26 -->
<g id="node27" class="node">
<title>Node26</title>
<g id="a_node27"><a xlink:href="Transform_8h.html" target="_top" xlink:title="iDynTree/Core/Transform.h">
<polygon fill="none" stroke="#000000" points="649,-392.5 649,-411.5 795,-411.5 795,-392.5 649,-392.5"/>
<text text-anchor="middle" x="722" y="-399.5" font-family="FreeSans.ttf" font-size="10.00" fill="#000000">iDynTree/Core/Transform.h</text>
</a>
</g>
</g>
<!-- Node23&#45;&gt;Node26 -->
<g id="edge35" class="edge">
<title>Node23&#45;&gt;Node26</title>
<path fill="none" stroke="#191970" d="M638.5929,-448.2455C654.379,-439.4928 677.7639,-426.527 695.7587,-416.5496"/>
<polygon fill="#191970" stroke="#191970" points="697.5603,-419.5528 704.6087,-411.6427 694.1659,-413.4308 697.5603,-419.5528"/>
</g>
<!-- Node35 -->
<g id="node36" class="node">
<title>Node35</title>
<polygon fill="none" stroke="#bfbfbf" points="535,-392.5 535,-411.5 593,-411.5 593,-392.5 535,-392.5"/>
<text text-anchor="middle" x="564" y="-399.5" font-family="FreeSans.ttf" font-size="10.00" fill="#000000">fpconv.h</text>
</g>
<!-- Node23&#45;&gt;Node35 -->
<g id="edge64" class="edge">
<title>Node23&#45;&gt;Node35</title>
<path fill="none" stroke="#191970" d="M611.0714,-448.2455C602.8162,-440.1352 590.8791,-428.4075 581.0918,-418.7919"/>
<polygon fill="#191970" stroke="#191970" points="583.4011,-416.1542 573.8149,-411.6427 578.4954,-421.1476 583.4011,-416.1542"/>
</g>
<!-- Node26&#45;&gt;Node5 -->
<g id="edge62" class="edge">
<title>Node26&#45;&gt;Node5</title>
<path fill="none" stroke="#191970" d="M659.0138,-392.4608C602.367,-379.8869 528,-351.6413 528,-290 528,-290 528,-290 528,-234 528,-201.7116 528,-164.1872 528,-141.8048"/>
<polygon fill="#191970" stroke="#191970" points="531.5001,-141.5883 528,-131.5884 524.5001,-141.5884 531.5001,-141.5883"/>
</g>
<!-- Node27 -->
<g id="node28" class="node">
<title>Node27</title>
<g id="a_node28"><a xlink:href="Position_8h.html" target="_top" xlink:title="iDynTree/Core/Position.h">
<polygon fill="none" stroke="#000000" points="610,-336.5 610,-355.5 746,-355.5 746,-336.5 610,-336.5"/>
<text text-anchor="middle" x="678" y="-343.5" font-family="FreeSans.ttf" font-size="10.00" fill="#000000">iDynTree/Core/Position.h</text>
</a>
</g>
</g>
<!-- Node26&#45;&gt;Node27 -->
<g id="edge36" class="edge">
<title>Node26&#45;&gt;Node27</title>
<path fill="none" stroke="#191970" d="M714.3358,-392.2455C708.1527,-384.3761 699.2937,-373.101 691.8711,-363.6542"/>
<polygon fill="#191970" stroke="#191970" points="694.5068,-361.3435 685.5764,-355.6427 689.0025,-365.6683 694.5068,-361.3435"/>
</g>
<!-- Node29 -->
<g id="node30" class="node">
<title>Node29</title>
<g id="a_node30"><a xlink:href="Rotation_8h.html" target="_top" xlink:title="iDynTree/Core/Rotation.h">
<polygon fill="none" stroke="#000000" points="772.5,-280.5 772.5,-299.5 909.5,-299.5 909.5,-280.5 772.5,-280.5"/>
<text text-anchor="middle" x="841" y="-287.5" font-family="FreeSans.ttf" font-size="10.00" fill="#000000">iDynTree/Core/Rotation.h</text>
</a>
</g>
</g>
<!-- Node26&#45;&gt;Node29 -->
<g id="edge60" class="edge">
<title>Node26&#45;&gt;Node29</title>
<path fill="none" stroke="#191970" d="M732.1459,-392.4509C752.4328,-373.3574 798.2134,-330.2697 823.462,-306.5063"/>
<polygon fill="#191970" stroke="#191970" points="825.9966,-308.9273 830.8798,-299.5249 821.199,-303.8299 825.9966,-308.9273"/>
</g>
<!-- Node32 -->
<g id="node33" class="node">
<title>Node32</title>
<g id="a_node33"><a xlink:href="MatrixFixSize_8h.html" target="_top" xlink:title="iDynTree/Core/MatrixFixSize.h">
<polygon fill="none" stroke="#000000" points="986.5,-168.5 986.5,-187.5 1147.5,-187.5 1147.5,-168.5 986.5,-168.5"/>
<text text-anchor="middle" x="1067" y="-175.5" font-family="FreeSans.ttf" font-size="10.00" fill="#000000">iDynTree/Core/MatrixFixSize.h</text>
</a>
</g>
</g>
<!-- Node26&#45;&gt;Node32 -->
<g id="edge61" class="edge">
<title>Node26&#45;&gt;Node32</title>
<path fill="none" stroke="#191970" d="M766.6101,-392.4642C867.6603,-369.8661 1108.8414,-309.9787 1155,-244 1171.2003,-220.8434 1139.2651,-202.4044 1109.4317,-190.9668"/>
<polygon fill="#191970" stroke="#191970" points="1110.4772,-187.6229 1099.8831,-187.5022 1108.0896,-194.2031 1110.4772,-187.6229"/>
</g>
<!-- Node27&#45;&gt;Node5 -->
<g id="edge59" class="edge">
<title>Node27&#45;&gt;Node5</title>
<path fill="none" stroke="#191970" d="M657.6695,-336.4437C627.9889,-321.3358 573.4583,-288.965 547,-244 528.1457,-211.9577 526.1177,-167.335 526.7708,-141.8852"/>
<polygon fill="#191970" stroke="#191970" points="530.2777,-141.7959 527.2086,-131.6553 523.2841,-141.4964 530.2777,-141.7959"/>
</g>
<!-- Node28 -->
<g id="node29" class="node">
<title>Node28</title>
<g id="a_node29"><a xlink:href="PositionRaw_8h.html" target="_top" xlink:title="iDynTree/Core/PositionRaw.h">
<polygon fill="none" stroke="#000000" points="556,-224.5 556,-243.5 712,-243.5 712,-224.5 556,-224.5"/>
<text text-anchor="middle" x="634" y="-231.5" font-family="FreeSans.ttf" font-size="10.00" fill="#000000">iDynTree/Core/PositionRaw.h</text>
</a>
</g>
</g>
<!-- Node27&#45;&gt;Node28 -->
<g id="edge37" class="edge">
<title>Node27&#45;&gt;Node28</title>
<path fill="none" stroke="#191970" d="M674.2486,-336.4509C667.0073,-318.0186 650.9814,-277.2254 641.4812,-253.043"/>
<polygon fill="#191970" stroke="#191970" points="644.6561,-251.5526 637.7419,-243.5249 638.1409,-254.1122 644.6561,-251.5526"/>
</g>
<!-- Node27&#45;&gt;Node29 -->
<g id="edge40" class="edge">
<title>Node27&#45;&gt;Node29</title>
<path fill="none" stroke="#191970" d="M706.0207,-336.3733C733.0078,-327.1016 774.0017,-313.0178 803.7311,-302.804"/>
<polygon fill="#191970" stroke="#191970" points="805.0248,-306.0605 813.3449,-299.5011 802.7503,-299.4403 805.0248,-306.0605"/>
</g>
<!-- Node28&#45;&gt;Node5 -->
<g id="edge39" class="edge">
<title>Node28&#45;&gt;Node5</title>
<path fill="none" stroke="#191970" d="M624.9625,-224.4509C606.9701,-205.4401 566.4651,-162.6423 543.9152,-138.816"/>
<polygon fill="#191970" stroke="#191970" points="546.4305,-136.382 537.0146,-131.5249 541.3465,-141.1937 546.4305,-136.382"/>
</g>
<!-- Node28&#45;&gt;Node8 -->
<g id="edge38" class="edge">
<title>Node28&#45;&gt;Node8</title>
<path fill="none" stroke="#191970" d="M677.2048,-224.4369C720.5947,-214.8328 787.5209,-200.0191 834.0726,-189.7152"/>
<polygon fill="#191970" stroke="#191970" points="834.9662,-193.1022 843.9734,-187.5237 833.4533,-186.2676 834.9662,-193.1022"/>
</g>
<!-- Node29&#45;&gt;Node5 -->
<g id="edge41" class="edge">
<title>Node29&#45;&gt;Node5</title>
<path fill="none" stroke="#191970" d="M823.5613,-280.2899C800.2522,-267.3384 757.6241,-243.7477 721,-224 662.3591,-192.3808 593.2476,-156.0899 555.6966,-136.4527"/>
<polygon fill="#191970" stroke="#191970" points="556.8996,-133.1324 546.4158,-131.6025 553.6574,-139.3362 556.8996,-133.1324"/>
</g>
<!-- Node29&#45;&gt;Node8 -->
<g id="edge58" class="edge">
<title>Node29&#45;&gt;Node8</title>
<path fill="none" stroke="#191970" d="M887.5409,-280.4351C907.574,-273.7628 929.0925,-262.5844 941,-244 952.9824,-225.2987 932.3755,-205.85 913.2608,-192.9525"/>
<polygon fill="#191970" stroke="#191970" points="915.0225,-189.9252 904.7057,-187.5139 911.2671,-195.8325 915.0225,-189.9252"/>
</g>
<!-- Node30 -->
<g id="node31" class="node">
<title>Node30</title>
<g id="a_node31"><a xlink:href="GeomVector3_8h.html" target="_top" xlink:title="iDynTree/Core/GeomVector3.h">
<polygon fill="none" stroke="#000000" points="768.5,-224.5 768.5,-243.5 931.5,-243.5 931.5,-224.5 768.5,-224.5"/>
<text text-anchor="middle" x="850" y="-231.5" font-family="FreeSans.ttf" font-size="10.00" fill="#000000">iDynTree/Core/GeomVector3.h</text>
</a>
</g>
</g>
<!-- Node29&#45;&gt;Node30 -->
<g id="edge42" class="edge">
<title>Node29&#45;&gt;Node30</title>
<path fill="none" stroke="#191970" d="M842.5677,-280.2455C843.7421,-272.9382 845.3884,-262.6944 846.8332,-253.7046"/>
<polygon fill="#191970" stroke="#191970" points="850.3191,-254.0714 848.4503,-243.6427 843.4078,-252.9606 850.3191,-254.0714"/>
</g>
<!-- Node31 -->
<g id="node32" class="node">
<title>Node31</title>
<g id="a_node32"><a xlink:href="RotationRaw_8h.html" target="_top" xlink:title="iDynTree/Core/RotationRaw.h">
<polygon fill="none" stroke="#000000" points="988,-224.5 988,-243.5 1146,-243.5 1146,-224.5 988,-224.5"/>
<text text-anchor="middle" x="1067" y="-231.5" font-family="FreeSans.ttf" font-size="10.00" fill="#000000">iDynTree/Core/RotationRaw.h</text>
</a>
</g>
</g>
<!-- Node29&#45;&gt;Node31 -->
<g id="edge44" class="edge">
<title>Node29&#45;&gt;Node31</title>
<path fill="none" stroke="#191970" d="M879.594,-280.4369C918.0284,-270.9133 977.136,-256.2672 1018.671,-245.9753"/>
<polygon fill="#191970" stroke="#191970" points="1019.7006,-249.3261 1028.5652,-243.5237 1018.0169,-242.5316 1019.7006,-249.3261"/>
</g>
<!-- Node30&#45;&gt;Node8 -->
<g id="edge43" class="edge">
<title>Node30&#45;&gt;Node8</title>
<path fill="none" stroke="#191970" d="M856.4449,-224.2455C861.5382,-216.5367 868.7908,-205.5598 874.952,-196.2348"/>
<polygon fill="#191970" stroke="#191970" points="878.0365,-197.9155 880.6289,-187.6427 872.1962,-194.0566 878.0365,-197.9155"/>
</g>
<!-- Node31&#45;&gt;Node5 -->
<g id="edge57" class="edge">
<title>Node31&#45;&gt;Node5</title>
<path fill="none" stroke="#191970" d="M987.7725,-225.8884C933.5216,-219.0212 860.3885,-207.1622 798,-188 777.4658,-181.6931 774.4326,-174.6289 754,-168 686.654,-146.1512 604.5193,-132.5389 560.1559,-126.2088"/>
<polygon fill="#191970" stroke="#191970" points="560.6291,-122.741 550.2415,-124.8263 559.6623,-129.6739 560.6291,-122.741"/>
</g>
<!-- Node31&#45;&gt;Node32 -->
<g id="edge45" class="edge">
<title>Node31&#45;&gt;Node32</title>
<path fill="none" stroke="#191970" d="M1067,-224.2455C1067,-216.9382 1067,-206.6944 1067,-197.7046"/>
<polygon fill="#191970" stroke="#191970" points="1070.5001,-197.6426 1067,-187.6427 1063.5001,-197.6427 1070.5001,-197.6426"/>
</g>
<!-- Node32&#45;&gt;Node5 -->
<g id="edge54" class="edge">
<title>Node32&#45;&gt;Node5</title>
<path fill="none" stroke="#191970" d="M986.0505,-168.9725C982.9951,-168.6423 979.9701,-168.3171 977,-168 821.0453,-151.3474 634.484,-132.6148 560.5122,-125.2345"/>
<polygon fill="#191970" stroke="#191970" points="560.7303,-121.739 550.4324,-124.2296 560.0358,-128.7044 560.7303,-121.739"/>
</g>
<!-- Node32&#45;&gt;Node9 -->
<g id="edge46" class="edge">
<title>Node32&#45;&gt;Node9</title>
<path fill="none" stroke="#191970" d="M1046.6961,-168.466C1027.2124,-159.2712 996.995,-144.8904 971,-132 953.5482,-123.346 950.3495,-118.5387 932,-112 884.7313,-95.1562 829.3134,-83.4813 786.5807,-76.1084"/>
<polygon fill="#191970" stroke="#191970" points="787.0015,-72.63 776.5586,-74.4177 785.837,-79.5325 787.0015,-72.63"/>
</g>
<!-- Node32&#45;&gt;Node13 -->
<g id="edge52" class="edge">
<title>Node32&#45;&gt;Node13</title>
<path fill="none" stroke="#191970" d="M1147.7159,-174.9473C1216.2351,-170.4574 1307.0017,-159.37 1330,-132 1355.4875,-101.6677 1327.9077,-53.7615 1309.2311,-27.93"/>
<polygon fill="#191970" stroke="#191970" points="1311.9071,-25.665 1303.0979,-19.7786 1306.3136,-29.8737 1311.9071,-25.665"/>
</g>
<!-- Node32&#45;&gt;Node21 -->
<g id="edge56" class="edge">
<title>Node32&#45;&gt;Node21</title>
<path fill="none" stroke="#191970" d="M1092.4421,-168.3733C1116.7326,-159.1822 1153.5208,-145.2624 1180.4543,-135.0713"/>
<polygon fill="#191970" stroke="#191970" points="1181.7757,-138.3136 1189.8899,-131.5011 1179.2984,-131.7666 1181.7757,-138.3136"/>
</g>
<!-- Node32&#45;&gt;Node22 -->
<g id="edge53" class="edge">
<title>Node32&#45;&gt;Node22</title>
<path fill="none" stroke="#191970" d="M1037.9479,-168.3733C1008.7387,-158.6945 963.7036,-143.7716 932.6498,-133.4816"/>
<polygon fill="#191970" stroke="#191970" points="933.6898,-130.1391 923.0965,-130.316 931.488,-136.7838 933.6898,-130.1391"/>
</g>
<!-- Node33 -->
<g id="node34" class="node">
<title>Node33</title>
<g id="a_node34"><a xlink:href="MatrixView_8h.html" target="_top" xlink:title="iDynTree/Core/MatrixView.h">
<polygon fill="none" stroke="#000000" points="979.5,-112.5 979.5,-131.5 1130.5,-131.5 1130.5,-112.5 979.5,-112.5"/>
<text text-anchor="middle" x="1055" y="-119.5" font-family="FreeSans.ttf" font-size="10.00" fill="#000000">iDynTree/Core/MatrixView.h</text>
</a>
</g>
</g>
<!-- Node32&#45;&gt;Node33 -->
<g id="edge47" class="edge">
<title>Node32&#45;&gt;Node33</title>
<path fill="none" stroke="#191970" d="M1064.9098,-168.2455C1063.3439,-160.9382 1061.1488,-150.6944 1059.2224,-141.7046"/>
<polygon fill="#191970" stroke="#191970" points="1062.584,-140.6873 1057.0663,-131.6427 1055.7393,-142.1541 1062.584,-140.6873"/>
</g>
<!-- Node34 -->
<g id="node35" class="node">
<title>Node34</title>
<polygon fill="none" stroke="#bfbfbf" points="1261,-112.5 1261,-131.5 1321,-131.5 1321,-112.5 1261,-112.5"/>
<text text-anchor="middle" x="1291" y="-119.5" font-family="FreeSans.ttf" font-size="10.00" fill="#000000">iostream</text>
</g>
<!-- Node32&#45;&gt;Node34 -->
<g id="edge55" class="edge">
<title>Node32&#45;&gt;Node34</title>
<path fill="none" stroke="#191970" d="M1105.6422,-168.4787C1141.0356,-159.7385 1195.1379,-146.3296 1251.0527,-132.2276"/>
<polygon fill="#191970" stroke="#191970" points="1251.9328,-135.6153 1260.7719,-129.774 1250.2193,-128.8283 1251.9328,-135.6153"/>
</g>
<!-- Node33&#45;&gt;Node9 -->
<g id="edge51" class="edge">
<title>Node33&#45;&gt;Node9</title>
<path fill="none" stroke="#191970" d="M997.2798,-112.4369C938.34,-102.6717 846.893,-87.5207 784.6034,-77.2006"/>
<polygon fill="#191970" stroke="#191970" points="784.9198,-73.7053 774.4822,-75.5237 783.7756,-80.6112 784.9198,-73.7053"/>
</g>
<!-- Node33&#45;&gt;Node12 -->
<g id="edge50" class="edge">
<title>Node33&#45;&gt;Node12</title>
<path fill="none" stroke="#191970" d="M1044.3746,-112.2455C1035.4527,-104.0549 1022.512,-92.1749 1011.9808,-82.5069"/>
<polygon fill="#191970" stroke="#191970" points="1014.2371,-79.8271 1004.5036,-75.6427 1009.5032,-84.9837 1014.2371,-79.8271"/>
</g>
<!-- Node33&#45;&gt;Node13 -->
<g id="edge48" class="edge">
<title>Node33&#45;&gt;Node13</title>
<path fill="none" stroke="#191970" d="M1065.5771,-112.3755C1081.6437,-98.2106 1113.6554,-71.7314 1145,-56 1155.3455,-50.8077 1218.0868,-32.2295 1259.0809,-20.3312"/>
<polygon fill="#191970" stroke="#191970" points="1260.104,-23.6788 1268.736,-17.5355 1258.157,-16.955 1260.104,-23.6788"/>
</g>
<!-- Node33&#45;&gt;Node19 -->
<g id="edge49" class="edge">
<title>Node33&#45;&gt;Node19</title>
<path fill="none" stroke="#191970" d="M1060.5069,-112.2125C1068.8941,-98.082 1086.1194,-71.9202 1107,-56 1126.3178,-41.2713 1151.0508,-30.3336 1172.0723,-22.8277"/>
<polygon fill="#191970" stroke="#191970" points="1173.4159,-26.0673 1181.7444,-19.5184 1171.1498,-19.4442 1173.4159,-26.0673"/>
</g>
<!-- Node36&#45;&gt;Node5 -->
<g id="edge66" class="edge">
<title>Node36&#45;&gt;Node5</title>
<path fill="none" stroke="#191970" d="M346.8269,-336.2344C355.6894,-307.1298 385.5116,-219.7913 438,-168 454.3052,-151.9113 477.3833,-140.2697 496.0874,-132.7232"/>
<polygon fill="#191970" stroke="#191970" points="497.5961,-135.8934 505.6835,-129.0491 495.0931,-129.3561 497.5961,-135.8934"/>
</g>
</g>
</svg>
