<?xml version="1.0" encoding="UTF-8" standalone="no"?>
<!DOCTYPE svg PUBLIC "-//W3C//DTD SVG 1.1//EN"
 "http://www.w3.org/Graphics/SVG/1.1/DTD/svg11.dtd">
<!-- Generated by graphviz version 2.40.1 (20161225.0304)
 -->
<!-- Title: ModelTransformers.cpp Pages: 1 -->
<svg width="2136pt" height="811pt"
 viewBox="0.00 0.00 2136.00 811.00" xmlns="http://www.w3.org/2000/svg" xmlns:xlink="http://www.w3.org/1999/xlink">
<g id="graph0" class="graph" transform="scale(1 1) rotate(0) translate(4 807)">
<title>ModelTransformers.cpp</title>
<!-- Node0 -->
<g id="node1" class="node">
<title>Node0</title>
<polygon fill="#bfbfbf" stroke="#000000" points="975,-783.5 975,-802.5 1105,-802.5 1105,-783.5 975,-783.5"/>
<text text-anchor="middle" x="1040" y="-790.5" font-family="FreeSans.ttf" font-size="10.00" fill="#000000">ModelTransformers.cpp</text>
</g>
<!-- Node1 -->
<g id="node2" class="node">
<title>Node1</title>
<g id="a_node2"><a xlink:href="Model_8h.html" target="_top" xlink:title="iDynTree/Model/Model.h">
<polygon fill="none" stroke="#000000" points="769.5,-722 769.5,-741 902.5,-741 902.5,-722 769.5,-722"/>
<text text-anchor="middle" x="836" y="-729" font-family="FreeSans.ttf" font-size="10.00" fill="#000000">iDynTree/Model/Model.h</text>
</a>
</g>
</g>
<!-- Node0&#45;&gt;Node1 -->
<g id="edge1" class="edge">
<title>Node0&#45;&gt;Node1</title>
<path fill="none" stroke="#191970" d="M1008.125,-783.3906C972.9441,-772.7846 916.1912,-755.6753 877.5485,-744.0257"/>
<polygon fill="#191970" stroke="#191970" points="878.2358,-740.5773 867.6512,-741.0419 876.2153,-747.2794 878.2358,-740.5773"/>
</g>
<!-- Node15 -->
<g id="node14" class="node">
<title>Node15</title>
<polygon fill="none" stroke="#bfbfbf" points="1718,-.5 1718,-19.5 1770,-19.5 1770,-.5 1718,-.5"/>
<text text-anchor="middle" x="1744" y="-7.5" font-family="FreeSans.ttf" font-size="10.00" fill="#000000">cassert</text>
</g>
<!-- Node0&#45;&gt;Node15 -->
<g id="edge134" class="edge">
<title>Node0&#45;&gt;Node15</title>
<path fill="none" stroke="#191970" d="M1105.0859,-791.7374C1331.0612,-786.5032 2068,-761.9623 2068,-664.5 2068,-664.5 2068,-664.5 2068,-122 2068,-91.8266 1864.6868,-39.1761 1780.1716,-18.5933"/>
<polygon fill="#191970" stroke="#191970" points="1780.7826,-15.1402 1770.2398,-16.1892 1779.1357,-21.9437 1780.7826,-15.1402"/>
</g>
<!-- Node44 -->
<g id="node37" class="node">
<title>Node44</title>
<g id="a_node37"><a xlink:href="SubModel_8h.html" target="_top" xlink:title="iDynTree/Model/SubModel.h">
<polygon fill="none" stroke="#000000" points="1092.5,-593.5 1092.5,-612.5 1243.5,-612.5 1243.5,-593.5 1092.5,-593.5"/>
<text text-anchor="middle" x="1168" y="-600.5" font-family="FreeSans.ttf" font-size="10.00" fill="#000000">iDynTree/Model/SubModel.h</text>
</a>
</g>
</g>
<!-- Node0&#45;&gt;Node44 -->
<g id="edge79" class="edge">
<title>Node0&#45;&gt;Node44</title>
<path fill="none" stroke="#191970" d="M1046.5235,-783.3167C1066.8041,-753.2127 1128.9834,-660.9153 1155.6478,-621.3353"/>
<polygon fill="#191970" stroke="#191970" points="1158.6516,-623.1408 1161.3361,-612.8917 1152.8461,-619.2297 1158.6516,-623.1408"/>
</g>
<!-- Node45 -->
<g id="node38" class="node">
<title>Node45</title>
<g id="a_node38"><a xlink:href="Traversal_8h.html" target="_top" xlink:title="iDynTree/Model/Traversal.h">
<polygon fill="none" stroke="#000000" points="888,-593.5 888,-612.5 1036,-612.5 1036,-593.5 888,-593.5"/>
<text text-anchor="middle" x="962" y="-600.5" font-family="FreeSans.ttf" font-size="10.00" fill="#000000">iDynTree/Model/Traversal.h</text>
</a>
</g>
</g>
<!-- Node0&#45;&gt;Node45 -->
<g id="edge84" class="edge">
<title>Node0&#45;&gt;Node45</title>
<path fill="none" stroke="#191970" d="M1041.0959,-783.4736C1043.4159,-759.2157 1046.6806,-693.8642 1021,-649 1013.6473,-636.1548 1001.1502,-625.6307 989.5453,-617.9065"/>
<polygon fill="#191970" stroke="#191970" points="991.2842,-614.8663 980.9449,-612.5534 987.5852,-620.8092 991.2842,-614.8663"/>
</g>
<!-- Node46 -->
<g id="node39" class="node">
<title>Node46</title>
<g id="a_node39"><a xlink:href="FreeFloatingState_8h.html" target="_top" xlink:title="iDynTree/Model/FreeFloating\lState.h">
<polygon fill="none" stroke="#000000" points="1335,-649.5 1335,-679.5 1489,-679.5 1489,-649.5 1335,-649.5"/>
<text text-anchor="start" x="1343" y="-667.5" font-family="FreeSans.ttf" font-size="10.00" fill="#000000">iDynTree/Model/FreeFloating</text>
<text text-anchor="middle" x="1412" y="-656.5" font-family="FreeSans.ttf" font-size="10.00" fill="#000000">State.h</text>
</a>
</g>
</g>
<!-- Node0&#45;&gt;Node46 -->
<g id="edge87" class="edge">
<title>Node0&#45;&gt;Node46</title>
<path fill="none" stroke="#191970" d="M1105.1111,-786.6535C1175.8922,-779.0003 1283.8759,-764.9034 1321,-747 1350.2438,-732.8969 1376.8901,-706.3886 1393.685,-687.2187"/>
<polygon fill="#191970" stroke="#191970" points="1396.4332,-689.39 1400.2586,-679.5099 1391.1068,-684.8481 1396.4332,-689.39"/>
</g>
<!-- Node51 -->
<g id="node44" class="node">
<title>Node51</title>
<g id="a_node44"><a xlink:href="FixedJoint_8h.html" target="_top" xlink:title="iDynTree/Model/FixedJoint.h">
<polygon fill="none" stroke="#000000" points="393.5,-655 393.5,-674 544.5,-674 544.5,-655 393.5,-655"/>
<text text-anchor="middle" x="469" y="-662" font-family="FreeSans.ttf" font-size="10.00" fill="#000000">iDynTree/Model/FixedJoint.h</text>
</a>
</g>
</g>
<!-- Node0&#45;&gt;Node51 -->
<g id="edge110" class="edge">
<title>Node0&#45;&gt;Node51</title>
<path fill="none" stroke="#191970" d="M974.7728,-784.3538C917.9761,-776.3243 833.591,-763.1856 761,-747 669.517,-726.6021 564.1471,-694.706 508.3851,-677.1481"/>
<polygon fill="#191970" stroke="#191970" points="509.1549,-673.7208 498.5649,-674.0425 507.0441,-680.395 509.1549,-673.7208"/>
</g>
<!-- Node52 -->
<g id="node45" class="node">
<title>Node52</title>
<g id="a_node45"><a xlink:href="RevoluteJoint_8h.html" target="_top" xlink:title="iDynTree/Model/RevoluteJoint.h">
<polygon fill="none" stroke="#000000" points="135,-722 135,-741 303,-741 303,-722 135,-722"/>
<text text-anchor="middle" x="219" y="-729" font-family="FreeSans.ttf" font-size="10.00" fill="#000000">iDynTree/Model/RevoluteJoint.h</text>
</a>
</g>
</g>
<!-- Node0&#45;&gt;Node52 -->
<g id="edge114" class="edge">
<title>Node0&#45;&gt;Node52</title>
<path fill="none" stroke="#191970" d="M974.8913,-788.1228C830.2176,-777.2855 481.5407,-751.1666 313.1441,-738.5522"/>
<polygon fill="#191970" stroke="#191970" points="313.2863,-735.0531 303.0528,-737.7963 312.7634,-742.0336 313.2863,-735.0531"/>
</g>
<!-- Node56 -->
<g id="node49" class="node">
<title>Node56</title>
<g id="a_node49"><a xlink:href="PrismaticJoint_8h.html" target="_top" xlink:title="iDynTree/Model/Prismatic\lJoint.h">
<polygon fill="none" stroke="#000000" points="465,-716.5 465,-746.5 605,-746.5 605,-716.5 465,-716.5"/>
<text text-anchor="start" x="473" y="-734.5" font-family="FreeSans.ttf" font-size="10.00" fill="#000000">iDynTree/Model/Prismatic</text>
<text text-anchor="middle" x="535" y="-723.5" font-family="FreeSans.ttf" font-size="10.00" fill="#000000">Joint.h</text>
</a>
</g>
</g>
<!-- Node0&#45;&gt;Node56 -->
<g id="edge128" class="edge">
<title>Node0&#45;&gt;Node56</title>
<path fill="none" stroke="#191970" d="M974.7561,-785.0544C882.7281,-773.8471 714.9365,-753.4131 615.3482,-741.285"/>
<polygon fill="#191970" stroke="#191970" points="615.6846,-737.8002 605.3348,-740.0655 614.8383,-744.7488 615.6846,-737.8002"/>
</g>
<!-- Node57 -->
<g id="node50" class="node">
<title>Node57</title>
<polygon fill="none" stroke="#bfbfbf" points="2096,-722 2096,-741 2128,-741 2128,-722 2096,-722"/>
<text text-anchor="middle" x="2112" y="-729" font-family="FreeSans.ttf" font-size="10.00" fill="#000000">set</text>
</g>
<!-- Node0&#45;&gt;Node57 -->
<g id="edge135" class="edge">
<title>Node0&#45;&gt;Node57</title>
<path fill="none" stroke="#191970" d="M1105.1273,-791.7523C1318.474,-787.4396 1988.0633,-772.0399 2082,-747 2083.7136,-746.5432 2085.441,-745.978 2087.1552,-745.3363"/>
<polygon fill="#191970" stroke="#191970" points="2088.9687,-748.3575 2096.6381,-741.0478 2086.0842,-741.9794 2088.9687,-748.3575"/>
</g>
<!-- Node2 -->
<g id="node3" class="node">
<title>Node2</title>
<g id="a_node3"><a xlink:href="IJoint_8h.html" target="_top" xlink:title="iDynTree/Model/IJoint.h">
<polygon fill="none" stroke="#000000" points="142,-593.5 142,-612.5 270,-612.5 270,-593.5 142,-593.5"/>
<text text-anchor="middle" x="206" y="-600.5" font-family="FreeSans.ttf" font-size="10.00" fill="#000000">iDynTree/Model/IJoint.h</text>
</a>
</g>
</g>
<!-- Node1&#45;&gt;Node2 -->
<g id="edge2" class="edge">
<title>Node1&#45;&gt;Node2</title>
<path fill="none" stroke="#191970" d="M769.1324,-726.4069C661.7302,-717.7991 455.6751,-699.4059 385,-680 352.5804,-671.0983 346.8443,-662.3753 316,-649 290.1439,-637.7878 260.6772,-625.4908 238.7535,-616.4341"/>
<polygon fill="#191970" stroke="#191970" points="239.8305,-613.0924 229.2513,-612.5165 237.1623,-619.5639 239.8305,-613.0924"/>
</g>
<!-- Node3 -->
<g id="node4" class="node">
<title>Node3</title>
<g id="a_node4"><a xlink:href="Indices_8h.html" target="_top" xlink:title="iDynTree/Model/Indices.h">
<polygon fill="none" stroke="#000000" points="305,-532 305,-551 443,-551 443,-532 305,-532"/>
<text text-anchor="middle" x="374" y="-539" font-family="FreeSans.ttf" font-size="10.00" fill="#000000">iDynTree/Model/Indices.h</text>
</a>
</g>
</g>
<!-- Node1&#45;&gt;Node3 -->
<g id="edge70" class="edge">
<title>Node1&#45;&gt;Node3</title>
<path fill="none" stroke="#191970" d="M793.4798,-721.9771C752.7291,-712.5161 689.6648,-696.9972 636,-680 598.8567,-668.2356 591.4211,-659.8483 554,-649 477.7336,-626.8906 431.2916,-672.7576 379,-613 366.7493,-599.0002 367.1019,-576.9675 369.5154,-561.0586"/>
<polygon fill="#191970" stroke="#191970" points="372.961,-561.6741 371.386,-551.197 366.0836,-560.3695 372.961,-561.6741"/>
</g>
<!-- Node7 -->
<g id="node8" class="node">
<title>Node7</title>
<g id="a_node8"><a xlink:href="Link_8h.html" target="_top" xlink:title="iDynTree/Model/Link.h">
<polygon fill="none" stroke="#000000" points="888,-655 888,-674 1012,-674 1012,-655 888,-655"/>
<text text-anchor="middle" x="950" y="-662" font-family="FreeSans.ttf" font-size="10.00" fill="#000000">iDynTree/Model/Link.h</text>
</a>
</g>
</g>
<!-- Node1&#45;&gt;Node7 -->
<g id="edge7" class="edge">
<title>Node1&#45;&gt;Node7</title>
<path fill="none" stroke="#191970" d="M852.3334,-721.9005C871.2959,-710.7559 902.7875,-692.2477 924.872,-679.2682"/>
<polygon fill="#191970" stroke="#191970" points="926.849,-682.1661 933.6969,-674.0817 923.3021,-676.1311 926.849,-682.1661"/>
</g>
<!-- Node40 -->
<g id="node33" class="node">
<title>Node40</title>
<g id="a_node33"><a xlink:href="Transform_8h.html" target="_top" xlink:title="iDynTree/Core/Transform.h">
<polygon fill="none" stroke="#000000" points="610,-532 610,-551 756,-551 756,-532 610,-532"/>
<text text-anchor="middle" x="683" y="-539" font-family="FreeSans.ttf" font-size="10.00" fill="#000000">iDynTree/Core/Transform.h</text>
</a>
</g>
</g>
<!-- Node1&#45;&gt;Node40 -->
<g id="edge65" class="edge">
<title>Node1&#45;&gt;Node40</title>
<path fill="none" stroke="#191970" d="M830.0842,-721.9753C815.536,-698.8505 776.3294,-638.3114 737,-593 726.1728,-580.5259 712.7357,-567.7026 701.9742,-557.9721"/>
<polygon fill="#191970" stroke="#191970" points="704.1511,-555.2241 694.3539,-551.191 699.4976,-560.4534 704.1511,-555.2241"/>
</g>
<!-- Node41 -->
<g id="node34" class="node">
<title>Node41</title>
<g id="a_node34"><a xlink:href="SolidShapes_8h.html" target="_top" xlink:title="iDynTree/Model/SolidShapes.h">
<polygon fill="none" stroke="#000000" points="478.5,-593.5 478.5,-612.5 641.5,-612.5 641.5,-593.5 478.5,-593.5"/>
<text text-anchor="middle" x="560" y="-600.5" font-family="FreeSans.ttf" font-size="10.00" fill="#000000">iDynTree/Model/SolidShapes.h</text>
</a>
</g>
</g>
<!-- Node1&#45;&gt;Node41 -->
<g id="edge71" class="edge">
<title>Node1&#45;&gt;Node41</title>
<path fill="none" stroke="#191970" d="M825.0556,-721.9682C805.0849,-705.0242 760.8326,-669.5182 718,-649 686.1702,-633.7525 648.2676,-622.509 617.565,-614.9556"/>
<polygon fill="#191970" stroke="#191970" points="617.988,-611.4581 607.4481,-612.5351 616.3591,-618.266 617.988,-611.4581"/>
</g>
<!-- Node42 -->
<g id="node35" class="node">
<title>Node42</title>
<polygon fill="none" stroke="#bfbfbf" points="474.5,-532 474.5,-551 523.5,-551 523.5,-532 474.5,-532"/>
<text text-anchor="middle" x="499" y="-539" font-family="FreeSans.ttf" font-size="10.00" fill="#000000">cstdlib</text>
</g>
<!-- Node1&#45;&gt;Node42 -->
<g id="edge77" class="edge">
<title>Node1&#45;&gt;Node42</title>
<path fill="none" stroke="#191970" d="M814.3193,-721.9828C770.211,-702.7157 671.2286,-659.9901 636,-649 563.9327,-626.5175 517.3882,-671.7667 470,-613 457.0877,-596.9873 470.1013,-574.4577 482.5834,-558.9913"/>
<polygon fill="#191970" stroke="#191970" points="485.4129,-561.0697 489.2953,-551.2118 480.1128,-556.497 485.4129,-561.0697"/>
</g>
<!-- Node43 -->
<g id="node36" class="node">
<title>Node43</title>
<polygon fill="none" stroke="#bfbfbf" points="931.5,-532 931.5,-551 978.5,-551 978.5,-532 931.5,-532"/>
<text text-anchor="middle" x="955" y="-539" font-family="FreeSans.ttf" font-size="10.00" fill="#000000">vector</text>
</g>
<!-- Node1&#45;&gt;Node43 -->
<g id="edge78" class="edge">
<title>Node1&#45;&gt;Node43</title>
<path fill="none" stroke="#191970" d="M902.6175,-722.3778C1009.3205,-706.2472 1210.873,-669.0146 1253,-613 1258.3428,-605.896 1258.8385,-599.7026 1253,-593 1214.6879,-549.0176 1049.3318,-572.1328 993,-557 990.5315,-556.3369 988.0085,-555.5552 985.4949,-554.7012"/>
<polygon fill="#191970" stroke="#191970" points="986.5739,-551.3681 975.9813,-551.1472 984.1241,-557.9255 986.5739,-551.3681"/>
</g>
<!-- Node2&#45;&gt;Node3 -->
<g id="edge3" class="edge">
<title>Node2&#45;&gt;Node3</title>
<path fill="none" stroke="#191970" d="M232.25,-593.3906C260.7293,-582.9652 306.3743,-566.2559 338.1457,-554.6252"/>
<polygon fill="#191970" stroke="#191970" points="339.7469,-557.7663 347.9343,-551.0419 337.3406,-551.1929 339.7469,-557.7663"/>
</g>
<!-- Node4 -->
<g id="node5" class="node">
<title>Node4</title>
<polygon fill="none" stroke="#bfbfbf" points="1601.5,-.5 1601.5,-19.5 1654.5,-19.5 1654.5,-.5 1601.5,-.5"/>
<text text-anchor="middle" x="1628" y="-7.5" font-family="FreeSans.ttf" font-size="10.00" fill="#000000">cstddef</text>
</g>
<!-- Node3&#45;&gt;Node4 -->
<g id="edge4" class="edge">
<title>Node3&#45;&gt;Node4</title>
<path fill="none" stroke="#191970" d="M317.7612,-531.971C222.1102,-514.1544 38,-472.1749 38,-413 38,-413 38,-413 38,-122 38,-41.4739 1352.8378,-14.7853 1591.1823,-10.6089"/>
<polygon fill="#191970" stroke="#191970" points="1591.4625,-14.1047 1601.4004,-10.4322 1591.3413,-7.1057 1591.4625,-14.1047"/>
</g>
<!-- Node5 -->
<g id="node6" class="node">
<title>Node5</title>
<polygon fill="none" stroke="#bfbfbf" points="707,-112.5 707,-131.5 751,-131.5 751,-112.5 707,-112.5"/>
<text text-anchor="middle" x="729" y="-119.5" font-family="FreeSans.ttf" font-size="10.00" fill="#000000">string</text>
</g>
<!-- Node3&#45;&gt;Node5 -->
<g id="edge5" class="edge">
<title>Node3&#45;&gt;Node5</title>
<path fill="none" stroke="#191970" d="M402.2139,-531.969C445.6652,-515.2951 524,-476.438 524,-413 524,-413 524,-413 524,-239.5 524,-205.9798 523.426,-190.7974 548,-168 569.4452,-148.1052 650.5846,-133.4024 696.6114,-126.4567"/>
<polygon fill="#191970" stroke="#191970" points="697.2987,-129.8933 706.6832,-124.9759 696.2805,-122.9678 697.2987,-129.8933"/>
</g>
<!-- Node6 -->
<g id="node7" class="node">
<title>Node6</title>
<polygon fill="none" stroke="#bfbfbf" points="331,-465 331,-484 417,-484 417,-465 331,-465"/>
<text text-anchor="middle" x="374" y="-472" font-family="FreeSans.ttf" font-size="10.00" fill="#000000">ModelExport.h</text>
</g>
<!-- Node3&#45;&gt;Node6 -->
<g id="edge6" class="edge">
<title>Node3&#45;&gt;Node6</title>
<path fill="none" stroke="#191970" d="M374,-531.9005C374,-522.149 374,-506.7597 374,-494.3695"/>
<polygon fill="#191970" stroke="#191970" points="377.5001,-494.0816 374,-484.0817 370.5001,-494.0817 377.5001,-494.0816"/>
</g>
<!-- Node7&#45;&gt;Node3 -->
<g id="edge64" class="edge">
<title>Node7&#45;&gt;Node3</title>
<path fill="none" stroke="#191970" d="M887.921,-660.5212C747.6669,-651.2873 416.9905,-628.0449 398,-613 382.4896,-600.7121 376.9279,-578.0149 374.9742,-561.4805"/>
<polygon fill="#191970" stroke="#191970" points="378.4378,-560.897 374.1201,-551.2219 371.4619,-561.4779 378.4378,-560.897"/>
</g>
<!-- Node8 -->
<g id="node9" class="node">
<title>Node8</title>
<g id="a_node9"><a xlink:href="SpatialInertia_8h.html" target="_top" xlink:title="iDynTree/Core/SpatialInertia.h">
<polygon fill="none" stroke="#000000" points="1542,-593.5 1542,-612.5 1704,-612.5 1704,-593.5 1542,-593.5"/>
<text text-anchor="middle" x="1623" y="-600.5" font-family="FreeSans.ttf" font-size="10.00" fill="#000000">iDynTree/Core/SpatialInertia.h</text>
</a>
</g>
</g>
<!-- Node7&#45;&gt;Node8 -->
<g id="edge8" class="edge">
<title>Node7&#45;&gt;Node8</title>
<path fill="none" stroke="#191970" d="M1012.1079,-658.8245C1131.314,-647.9312 1392.6721,-624.0478 1531.7394,-611.3396"/>
<polygon fill="#191970" stroke="#191970" points="1532.306,-614.8025 1541.946,-610.4069 1531.6689,-607.8315 1532.306,-614.8025"/>
</g>
<!-- Node9 -->
<g id="node10" class="node">
<title>Node9</title>
<g id="a_node10"><a xlink:href="SpatialInertiaRaw_8h.html" target="_top" xlink:title="iDynTree/Core/SpatialInertia\lRaw.h">
<polygon fill="none" stroke="#ff0000" points="1492.5,-526.5 1492.5,-556.5 1645.5,-556.5 1645.5,-526.5 1492.5,-526.5"/>
<text text-anchor="start" x="1500.5" y="-544.5" font-family="FreeSans.ttf" font-size="10.00" fill="#000000">iDynTree/Core/SpatialInertia</text>
<text text-anchor="middle" x="1569" y="-533.5" font-family="FreeSans.ttf" font-size="10.00" fill="#000000">Raw.h</text>
</a>
</g>
</g>
<!-- Node8&#45;&gt;Node9 -->
<g id="edge9" class="edge">
<title>Node8&#45;&gt;Node9</title>
<path fill="none" stroke="#191970" d="M1614.5625,-593.3906C1607.7279,-585.6068 1597.8177,-574.3202 1588.9841,-564.2597"/>
<polygon fill="#191970" stroke="#191970" points="1591.438,-561.7497 1582.2099,-556.5446 1586.1779,-566.3683 1591.438,-561.7497"/>
</g>
<!-- Node27 -->
<g id="node11" class="node">
<title>Node27</title>
<g id="a_node11"><a xlink:href="VectorFixSize_8h.html" target="_top" xlink:title="iDynTree/Core/VectorFixSize.h">
<polygon fill="none" stroke="#000000" points="1408.5,-168.5 1408.5,-187.5 1569.5,-187.5 1569.5,-168.5 1408.5,-168.5"/>
<text text-anchor="middle" x="1489" y="-175.5" font-family="FreeSans.ttf" font-size="10.00" fill="#000000">iDynTree/Core/VectorFixSize.h</text>
</a>
</g>
</g>
<!-- Node8&#45;&gt;Node27 -->
<g id="edge10" class="edge">
<title>Node8&#45;&gt;Node27</title>
<path fill="none" stroke="#191970" d="M1704.0015,-597.9907C1764.3157,-592.3716 1839.4572,-580.7198 1859,-557 1867.761,-546.3665 1863.3776,-539.0638 1859,-526 1832.2822,-446.2681 1699.5019,-272.7698 1631,-224 1608.1628,-207.7411 1579.2694,-197.0092 1553.5164,-190.0365"/>
<polygon fill="#191970" stroke="#191970" points="1554.3756,-186.6436 1543.8192,-187.5445 1552.6333,-193.4234 1554.3756,-186.6436"/>
</g>
<!-- Node28 -->
<g id="node18" class="node">
<title>Node28</title>
<g id="a_node18"><a xlink:href="Twist_8h.html" target="_top" xlink:title="iDynTree/Core/Twist.h">
<polygon fill="none" stroke="#000000" points="1035,-532 1035,-551 1157,-551 1157,-532 1035,-532"/>
<text text-anchor="middle" x="1096" y="-539" font-family="FreeSans.ttf" font-size="10.00" fill="#000000">iDynTree/Core/Twist.h</text>
</a>
</g>
</g>
<!-- Node8&#45;&gt;Node28 -->
<g id="edge22" class="edge">
<title>Node8&#45;&gt;Node28</title>
<path fill="none" stroke="#191970" d="M1541.8969,-594.4313C1537.1954,-593.9444 1532.5369,-593.4644 1528,-593 1367.1578,-576.5371 1325.6554,-582.5222 1166,-557 1159.2284,-555.9175 1152.1293,-554.583 1145.1574,-553.1552"/>
<polygon fill="#191970" stroke="#191970" points="1145.5958,-549.6703 1135.0866,-551.0149 1144.1406,-556.5174 1145.5958,-549.6703"/>
</g>
<!-- Node36 -->
<g id="node29" class="node">
<title>Node36</title>
<g id="a_node29"><a xlink:href="SpatialMomentum_8h.html" target="_top" xlink:title="iDynTree/Core/SpatialMomentum.h">
<polygon fill="none" stroke="#000000" points="1664,-532 1664,-551 1850,-551 1850,-532 1664,-532"/>
<text text-anchor="middle" x="1757" y="-539" font-family="FreeSans.ttf" font-size="10.00" fill="#000000">iDynTree/Core/SpatialMomentum.h</text>
</a>
</g>
</g>
<!-- Node8&#45;&gt;Node36 -->
<g id="edge55" class="edge">
<title>Node8&#45;&gt;Node36</title>
<path fill="none" stroke="#191970" d="M1643.9375,-593.3906C1666.2598,-583.1457 1701.8037,-566.8326 1727.0757,-555.2339"/>
<polygon fill="#191970" stroke="#191970" points="1728.581,-558.3942 1736.2095,-551.0419 1725.6611,-552.0322 1728.581,-558.3942"/>
</g>
<!-- Node38 -->
<g id="node31" class="node">
<title>Node38</title>
<g id="a_node31"><a xlink:href="SpatialAcc_8h.html" target="_top" xlink:title="iDynTree/Core/SpatialAcc.h">
<polygon fill="none" stroke="#000000" points="1175,-532 1175,-551 1323,-551 1323,-532 1175,-532"/>
<text text-anchor="middle" x="1249" y="-539" font-family="FreeSans.ttf" font-size="10.00" fill="#000000">iDynTree/Core/SpatialAcc.h</text>
</a>
</g>
</g>
<!-- Node8&#45;&gt;Node38 -->
<g id="edge60" class="edge">
<title>Node8&#45;&gt;Node38</title>
<path fill="none" stroke="#191970" d="M1560.132,-593.4947C1501.3411,-584.4951 1411.1275,-570.4023 1333,-557 1325.3951,-555.6954 1317.4116,-554.2809 1309.5174,-552.8549"/>
<polygon fill="#191970" stroke="#191970" points="1310.0664,-549.3974 1299.6013,-551.05 1308.8129,-556.2842 1310.0664,-549.3974"/>
</g>
<!-- Node39 -->
<g id="node32" class="node">
<title>Node39</title>
<g id="a_node32"><a xlink:href="Wrench_8h.html" target="_top" xlink:title="iDynTree/Core/Wrench.h">
<polygon fill="none" stroke="#000000" points="1341.5,-532 1341.5,-551 1474.5,-551 1474.5,-532 1341.5,-532"/>
<text text-anchor="middle" x="1408" y="-539" font-family="FreeSans.ttf" font-size="10.00" fill="#000000">iDynTree/Core/Wrench.h</text>
</a>
</g>
</g>
<!-- Node8&#45;&gt;Node39 -->
<g id="edge62" class="edge">
<title>Node8&#45;&gt;Node39</title>
<path fill="none" stroke="#191970" d="M1589.4063,-593.3906C1552.0917,-582.7169 1491.7508,-565.4566 1451.0114,-553.8033"/>
<polygon fill="#191970" stroke="#191970" points="1451.9348,-550.4271 1441.3579,-551.0419 1450.0097,-557.1572 1451.9348,-550.4271"/>
</g>
<!-- Node27&#45;&gt;Node4 -->
<g id="edge20" class="edge">
<title>Node27&#45;&gt;Node4</title>
<path fill="none" stroke="#191970" d="M1547.7628,-168.4461C1570.1317,-161.8581 1593.8555,-150.7426 1609,-132 1632.5887,-102.8071 1632.7985,-56.4777 1630.5748,-30.1084"/>
<polygon fill="#191970" stroke="#191970" points="1634.0211,-29.4131 1629.4956,-19.8334 1627.0594,-30.1444 1634.0211,-29.4131"/>
</g>
<!-- Node27&#45;&gt;Node5 -->
<g id="edge17" class="edge">
<title>Node27&#45;&gt;Node5</title>
<path fill="none" stroke="#191970" d="M1408.4337,-171.6402C1392.7044,-170.4171 1376.3365,-169.1572 1361,-168 1131.2246,-150.6624 854.3659,-130.9017 761.29,-124.2894"/>
<polygon fill="#191970" stroke="#191970" points="761.3358,-120.7839 751.113,-123.5668 760.8399,-127.7663 761.3358,-120.7839"/>
</g>
<!-- Node12 -->
<g id="node12" class="node">
<title>Node12</title>
<g id="a_node12"><a xlink:href="Utils_8h.html" target="_top" xlink:title="iDynTree/Core/Utils.h">
<polygon fill="none" stroke="#ff0000" points="1092.5,-56.5 1092.5,-75.5 1211.5,-75.5 1211.5,-56.5 1092.5,-56.5"/>
<text text-anchor="middle" x="1152" y="-63.5" font-family="FreeSans.ttf" font-size="10.00" fill="#000000">iDynTree/Core/Utils.h</text>
</a>
</g>
</g>
<!-- Node27&#45;&gt;Node12 -->
<g id="edge11" class="edge">
<title>Node27&#45;&gt;Node12</title>
<path fill="none" stroke="#191970" d="M1479.4222,-168.3829C1464.2229,-153.7273 1433.0083,-126.0295 1401,-112 1343.6254,-86.8521 1272.9725,-75.4479 1221.6013,-70.2787"/>
<polygon fill="#191970" stroke="#191970" points="1221.8805,-66.7896 1211.5937,-69.3258 1221.2169,-73.7581 1221.8805,-66.7896"/>
</g>
<!-- Node17 -->
<g id="node13" class="node">
<title>Node17</title>
<g id="a_node13"><a xlink:href="Span_8h.html" target="_top" xlink:title="iDynTree/Core/Span.h">
<polygon fill="none" stroke="#ff0000" points="1772.5,-56.5 1772.5,-75.5 1893.5,-75.5 1893.5,-56.5 1772.5,-56.5"/>
<text text-anchor="middle" x="1833" y="-63.5" font-family="FreeSans.ttf" font-size="10.00" fill="#000000">iDynTree/Core/Span.h</text>
</a>
</g>
</g>
<!-- Node27&#45;&gt;Node17 -->
<g id="edge13" class="edge">
<title>Node27&#45;&gt;Node17</title>
<path fill="none" stroke="#191970" d="M1569.6979,-169.1162C1636.4739,-160.8678 1725.453,-147.5421 1758,-132 1782.035,-120.5226 1804.2219,-99.0663 1818.1294,-83.7327"/>
<polygon fill="#191970" stroke="#191970" points="1820.9975,-85.7709 1824.9632,-75.9462 1815.7363,-81.1534 1820.9975,-85.7709"/>
</g>
<!-- Node27&#45;&gt;Node15 -->
<g id="edge19" class="edge">
<title>Node27&#45;&gt;Node15</title>
<path fill="none" stroke="#191970" d="M1569.6515,-172.0735C1629.3179,-165.9493 1703.7574,-154.0657 1725,-132 1751.2769,-104.705 1750.3263,-56.944 1747.2195,-29.989"/>
<polygon fill="#191970" stroke="#191970" points="1750.653,-29.264 1745.8291,-19.831 1743.7176,-30.2133 1750.653,-29.264"/>
</g>
<!-- Node26 -->
<g id="node16" class="node">
<title>Node26</title>
<polygon fill="none" stroke="#bfbfbf" points="1268,-112.5 1268,-131.5 1324,-131.5 1324,-112.5 1268,-112.5"/>
<text text-anchor="middle" x="1296" y="-119.5" font-family="FreeSans.ttf" font-size="10.00" fill="#000000">sstream</text>
</g>
<!-- Node27&#45;&gt;Node26 -->
<g id="edge18" class="edge">
<title>Node27&#45;&gt;Node26</title>
<path fill="none" stroke="#191970" d="M1455.8221,-168.3733C1421.9799,-158.5537 1369.535,-143.3366 1334.0339,-133.0357"/>
<polygon fill="#191970" stroke="#191970" points="1334.6294,-129.5642 1324.0502,-130.1389 1332.6787,-136.287 1334.6294,-129.5642"/>
</g>
<!-- Node24 -->
<g id="node17" class="node">
<title>Node24</title>
<polygon fill="none" stroke="#bfbfbf" points="1342,-112.5 1342,-131.5 1392,-131.5 1392,-112.5 1342,-112.5"/>
<text text-anchor="middle" x="1367" y="-119.5" font-family="FreeSans.ttf" font-size="10.00" fill="#000000">cstring</text>
</g>
<!-- Node27&#45;&gt;Node24 -->
<g id="edge21" class="edge">
<title>Node27&#45;&gt;Node24</title>
<path fill="none" stroke="#191970" d="M1468.0275,-168.3733C1448.4433,-159.3838 1419.0039,-145.8706 1396.949,-135.7471"/>
<polygon fill="#191970" stroke="#191970" points="1398.2473,-132.4919 1387.6989,-131.5011 1395.3271,-138.8538 1398.2473,-132.4919"/>
</g>
<!-- Node12&#45;&gt;Node4 -->
<g id="edge12" class="edge">
<title>Node12&#45;&gt;Node4</title>
<path fill="none" stroke="#191970" d="M1211.7608,-57.8178C1216.5769,-57.1909 1221.3689,-56.5778 1226,-56 1360.2635,-39.2482 1520.0591,-21.6639 1590.9608,-13.983"/>
<polygon fill="#191970" stroke="#191970" points="1591.596,-17.4348 1601.1617,-12.8798 1590.8433,-10.4753 1591.596,-17.4348"/>
</g>
<!-- Node17&#45;&gt;Node4 -->
<g id="edge16" class="edge">
<title>Node17&#45;&gt;Node4</title>
<path fill="none" stroke="#191970" d="M1797.7592,-56.3733C1760.6122,-46.2258 1702.3637,-30.314 1664.6817,-20.0204"/>
<polygon fill="#191970" stroke="#191970" points="1665.2023,-16.5344 1654.6335,-17.2755 1663.3577,-23.287 1665.2023,-16.5344"/>
</g>
<!-- Node17&#45;&gt;Node15 -->
<g id="edge14" class="edge">
<title>Node17&#45;&gt;Node15</title>
<path fill="none" stroke="#191970" d="M1817.4974,-56.2455C1803.842,-47.6534 1783.7343,-35.0014 1768.0011,-25.1018"/>
<polygon fill="#191970" stroke="#191970" points="1769.6529,-22.006 1759.325,-19.6427 1765.9249,-27.9307 1769.6529,-22.006"/>
</g>
<!-- Node18 -->
<g id="node15" class="node">
<title>Node18</title>
<polygon fill="none" stroke="#bfbfbf" points="1801,-.5 1801,-19.5 1865,-19.5 1865,-.5 1801,-.5"/>
<text text-anchor="middle" x="1833" y="-7.5" font-family="FreeSans.ttf" font-size="10.00" fill="#000000">algorithm</text>
</g>
<!-- Node17&#45;&gt;Node18 -->
<g id="edge15" class="edge">
<title>Node17&#45;&gt;Node18</title>
<path fill="none" stroke="#191970" d="M1833,-56.2455C1833,-48.9382 1833,-38.6944 1833,-29.7046"/>
<polygon fill="#191970" stroke="#191970" points="1836.5001,-29.6426 1833,-19.6427 1829.5001,-29.6427 1836.5001,-29.6426"/>
</g>
<!-- Node29 -->
<g id="node19" class="node">
<title>Node29</title>
<g id="a_node19"><a xlink:href="SpatialMotionVector_8h.html" target="_top" xlink:title="iDynTree/Core/SpatialMotion\lVector.h">
<polygon fill="none" stroke="#000000" points="1171.5,-459.5 1171.5,-489.5 1326.5,-489.5 1326.5,-459.5 1171.5,-459.5"/>
<text text-anchor="start" x="1179.5" y="-477.5" font-family="FreeSans.ttf" font-size="10.00" fill="#000000">iDynTree/Core/SpatialMotion</text>
<text text-anchor="middle" x="1249" y="-466.5" font-family="FreeSans.ttf" font-size="10.00" fill="#000000">Vector.h</text>
</a>
</g>
</g>
<!-- Node28&#45;&gt;Node29 -->
<g id="edge23" class="edge">
<title>Node28&#45;&gt;Node29</title>
<path fill="none" stroke="#191970" d="M1117.9212,-531.9005C1140.6376,-521.9528 1176.7515,-506.1382 1205.3255,-493.6254"/>
<polygon fill="#191970" stroke="#191970" points="1206.9403,-496.7392 1214.6966,-489.5218 1204.1324,-490.3271 1206.9403,-496.7392"/>
</g>
<!-- Node29&#45;&gt;Node27 -->
<g id="edge24" class="edge">
<title>Node29&#45;&gt;Node27</title>
<path fill="none" stroke="#191970" d="M1326.8736,-464.0538C1429.1807,-448.1062 1596,-413.4478 1596,-357 1596,-357 1596,-357 1596,-301 1596,-265.7513 1598.7651,-251.7263 1577,-224 1565.4322,-209.2639 1547.8278,-198.7495 1531.3965,-191.5281"/>
<polygon fill="#191970" stroke="#191970" points="1532.4928,-188.1951 1521.912,-187.6497 1529.8433,-194.6744 1532.4928,-188.1951"/>
</g>
<!-- Node30 -->
<g id="node20" class="node">
<title>Node30</title>
<g id="a_node20"><a xlink:href="GeomVector3_8h.html" target="_top" xlink:title="iDynTree/Core/GeomVector3.h">
<polygon fill="none" stroke="#000000" points="1404.5,-230 1404.5,-249 1567.5,-249 1567.5,-230 1404.5,-230"/>
<text text-anchor="middle" x="1486" y="-237" font-family="FreeSans.ttf" font-size="10.00" fill="#000000">iDynTree/Core/GeomVector3.h</text>
</a>
</g>
</g>
<!-- Node29&#45;&gt;Node30 -->
<g id="edge25" class="edge">
<title>Node29&#45;&gt;Node30</title>
<path fill="none" stroke="#191970" d="M1326.714,-461.9646C1354.2206,-454.3907 1383.8103,-442.2914 1406,-423 1456.6274,-378.9853 1476.3905,-297.0167 1483.0498,-259.3558"/>
<polygon fill="#191970" stroke="#191970" points="1486.5538,-259.6156 1484.7154,-249.1815 1479.6457,-258.4846 1486.5538,-259.6156"/>
</g>
<!-- Node31 -->
<g id="node21" class="node">
<title>Node31</title>
<g id="a_node21"><a xlink:href="SpatialVector_8h.html" target="_top" xlink:title="iDynTree/Core/SpatialVector.h">
<polygon fill="none" stroke="#000000" points="1235.5,-403.5 1235.5,-422.5 1396.5,-422.5 1396.5,-403.5 1235.5,-403.5"/>
<text text-anchor="middle" x="1316" y="-410.5" font-family="FreeSans.ttf" font-size="10.00" fill="#000000">iDynTree/Core/SpatialVector.h</text>
</a>
</g>
</g>
<!-- Node29&#45;&gt;Node31 -->
<g id="edge27" class="edge">
<title>Node29&#45;&gt;Node31</title>
<path fill="none" stroke="#191970" d="M1265.5618,-459.2977C1275.3465,-450.3163 1287.7474,-438.9334 1297.8043,-429.702"/>
<polygon fill="#191970" stroke="#191970" points="1300.2722,-432.1876 1305.2725,-422.8469 1295.5387,-427.0307 1300.2722,-432.1876"/>
</g>
<!-- Node30&#45;&gt;Node27 -->
<g id="edge26" class="edge">
<title>Node30&#45;&gt;Node27</title>
<path fill="none" stroke="#191970" d="M1486.4688,-229.8906C1486.8846,-221.3657 1487.5054,-208.6392 1488.0281,-197.9235"/>
<polygon fill="#191970" stroke="#191970" points="1491.5332,-197.9035 1488.5246,-187.7449 1484.5415,-197.5624 1491.5332,-197.9035"/>
</g>
<!-- Node31&#45;&gt;Node12 -->
<g id="edge51" class="edge">
<title>Node31&#45;&gt;Node12</title>
<path fill="none" stroke="#191970" d="M1280.0625,-403.4944C1215.375,-385.3184 1086,-343.6367 1086,-301 1086,-301 1086,-301 1086,-178 1086,-139.944 1114.6331,-103.4306 1134.1802,-82.9377"/>
<polygon fill="#191970" stroke="#191970" points="1136.8422,-85.2238 1141.396,-75.6575 1131.8705,-80.2961 1136.8422,-85.2238"/>
</g>
<!-- Node31&#45;&gt;Node26 -->
<g id="edge54" class="edge">
<title>Node31&#45;&gt;Node26</title>
<path fill="none" stroke="#191970" d="M1321.8175,-403.4774C1341.8059,-369.4331 1404.1241,-251.3491 1361,-168 1353.9454,-154.365 1340.7805,-143.9036 1328.1337,-136.4282"/>
<polygon fill="#191970" stroke="#191970" points="1329.5666,-133.2231 1319.1112,-131.5099 1326.2163,-139.3692 1329.5666,-133.2231"/>
</g>
<!-- Node31&#45;&gt;Node30 -->
<g id="edge52" class="edge">
<title>Node31&#45;&gt;Node30</title>
<path fill="none" stroke="#191970" d="M1335.5776,-403.414C1351.3275,-395.1228 1373.479,-382.1091 1390,-367 1426.7854,-333.3582 1459.2798,-284.0322 1475.3471,-257.681"/>
<polygon fill="#191970" stroke="#191970" points="1478.3611,-259.4603 1480.5009,-249.0838 1472.3572,-255.8611 1478.3611,-259.4603"/>
</g>
<!-- Node32 -->
<g id="node22" class="node">
<title>Node32</title>
<g id="a_node22"><a xlink:href="Position_8h.html" target="_top" xlink:title="Position.h">
<polygon fill="none" stroke="#000000" points="687.5,-347.5 687.5,-366.5 752.5,-366.5 752.5,-347.5 687.5,-347.5"/>
<text text-anchor="middle" x="720" y="-354.5" font-family="FreeSans.ttf" font-size="10.00" fill="#000000">Position.h</text>
</a>
</g>
</g>
<!-- Node31&#45;&gt;Node32 -->
<g id="edge28" class="edge">
<title>Node31&#45;&gt;Node32</title>
<path fill="none" stroke="#191970" d="M1235.3109,-405.4185C1107.21,-393.3821 861.7042,-370.3145 762.8268,-361.024"/>
<polygon fill="#191970" stroke="#191970" points="762.8987,-357.5154 752.6151,-360.0645 762.2438,-364.4847 762.8987,-357.5154"/>
</g>
<!-- Node34 -->
<g id="node24" class="node">
<title>Node34</title>
<g id="a_node24"><a xlink:href="Rotation_8h.html" target="_top" xlink:title="iDynTree/Core/Rotation.h">
<polygon fill="none" stroke="#000000" points="1124.5,-291.5 1124.5,-310.5 1261.5,-310.5 1261.5,-291.5 1124.5,-291.5"/>
<text text-anchor="middle" x="1193" y="-298.5" font-family="FreeSans.ttf" font-size="10.00" fill="#000000">iDynTree/Core/Rotation.h</text>
</a>
</g>
</g>
<!-- Node31&#45;&gt;Node34 -->
<g id="edge50" class="edge">
<title>Node31&#45;&gt;Node34</title>
<path fill="none" stroke="#191970" d="M1305.5131,-403.4509C1284.5443,-384.3574 1237.2248,-341.2697 1211.1275,-317.5063"/>
<polygon fill="#191970" stroke="#191970" points="1213.2108,-314.6697 1203.4604,-310.5249 1208.4979,-319.8455 1213.2108,-314.6697"/>
</g>
<!-- Node25 -->
<g id="node28" class="node">
<title>Node25</title>
<polygon fill="none" stroke="#bfbfbf" points="1656,-112.5 1656,-131.5 1716,-131.5 1716,-112.5 1656,-112.5"/>
<text text-anchor="middle" x="1686" y="-119.5" font-family="FreeSans.ttf" font-size="10.00" fill="#000000">iostream</text>
</g>
<!-- Node31&#45;&gt;Node25 -->
<g id="edge53" class="edge">
<title>Node31&#45;&gt;Node25</title>
<path fill="none" stroke="#191970" d="M1342.6725,-403.486C1396.51,-383.2202 1519.7756,-331.3249 1599,-255 1634.7676,-220.5415 1663.2493,-168.7853 1677.0073,-141.0933"/>
<polygon fill="#191970" stroke="#191970" points="1680.327,-142.2693 1681.5438,-131.7446 1674.0292,-139.2133 1680.327,-142.2693"/>
</g>
<!-- Node32&#45;&gt;Node5 -->
<g id="edge49" class="edge">
<title>Node32&#45;&gt;Node5</title>
<path fill="none" stroke="#191970" d="M715.854,-347.35C706.9658,-325.4691 687.4731,-270.3826 695,-224 699.8632,-194.0317 712.2713,-160.9701 720.674,-140.843"/>
<polygon fill="#191970" stroke="#191970" points="723.9209,-142.152 724.6418,-131.5817 717.4865,-139.3953 723.9209,-142.152"/>
</g>
<!-- Node33 -->
<g id="node23" class="node">
<title>Node33</title>
<g id="a_node23"><a xlink:href="PositionRaw_8h.html" target="_top" xlink:title="iDynTree/Core/PositionRaw.h">
<polygon fill="none" stroke="#000000" points="704,-230 704,-249 860,-249 860,-230 704,-230"/>
<text text-anchor="middle" x="782" y="-237" font-family="FreeSans.ttf" font-size="10.00" fill="#000000">iDynTree/Core/PositionRaw.h</text>
</a>
</g>
</g>
<!-- Node32&#45;&gt;Node33 -->
<g id="edge29" class="edge">
<title>Node32&#45;&gt;Node33</title>
<path fill="none" stroke="#191970" d="M725.0737,-347.3845C735.3374,-327.9331 758.7229,-283.6138 772.1084,-258.2462"/>
<polygon fill="#191970" stroke="#191970" points="775.2849,-259.7261 776.8562,-249.2484 769.0939,-256.4593 775.2849,-259.7261"/>
</g>
<!-- Node32&#45;&gt;Node34 -->
<g id="edge32" class="edge">
<title>Node32&#45;&gt;Node34</title>
<path fill="none" stroke="#191970" d="M752.5761,-350.1843C758.6822,-349.0286 765.0236,-347.91 771,-347 890.1957,-328.8513 1029.3891,-315.1125 1114.3413,-307.5591"/>
<polygon fill="#191970" stroke="#191970" points="1114.774,-311.0346 1124.4275,-306.6688 1114.1584,-304.0618 1114.774,-311.0346"/>
</g>
<!-- Node33&#45;&gt;Node5 -->
<g id="edge31" class="edge">
<title>Node33&#45;&gt;Node5</title>
<path fill="none" stroke="#191970" d="M777.6628,-229.8845C768.9278,-210.5192 749.0748,-166.5055 737.6081,-141.084"/>
<polygon fill="#191970" stroke="#191970" points="740.6994,-139.4249 733.3971,-131.7484 734.3185,-142.3031 740.6994,-139.4249"/>
</g>
<!-- Node33&#45;&gt;Node27 -->
<g id="edge30" class="edge">
<title>Node33&#45;&gt;Node27</title>
<path fill="none" stroke="#191970" d="M854.8969,-229.9871C872.2819,-227.8695 890.7863,-225.7394 908,-224 920.0211,-222.7853 1237.7032,-197.7627 1398.1156,-185.1449"/>
<polygon fill="#191970" stroke="#191970" points="1398.7546,-188.6055 1408.4493,-184.3321 1398.2056,-181.6271 1398.7546,-188.6055"/>
</g>
<!-- Node34&#45;&gt;Node5 -->
<g id="edge33" class="edge">
<title>Node34&#45;&gt;Node5</title>
<path fill="none" stroke="#191970" d="M1124.2527,-293.953C1052.6356,-285.897 945.7106,-271.6516 908,-255 887.7447,-246.056 886.6186,-237.4111 869,-224 827.7594,-192.608 778.5939,-157.2535 750.8661,-137.5001"/>
<polygon fill="#191970" stroke="#191970" points="752.8318,-134.6032 742.6541,-131.6596 748.7747,-140.3076 752.8318,-134.6032"/>
</g>
<!-- Node34&#45;&gt;Node27 -->
<g id="edge48" class="edge">
<title>Node34&#45;&gt;Node27</title>
<path fill="none" stroke="#191970" d="M1216.2266,-291.3484C1268.6414,-269.5679 1396.22,-216.5538 1456.4696,-191.5177"/>
<polygon fill="#191970" stroke="#191970" points="1457.9899,-194.6762 1465.8813,-187.6068 1455.3037,-188.2121 1457.9899,-194.6762"/>
</g>
<!-- Node34&#45;&gt;Node30 -->
<g id="edge34" class="edge">
<title>Node34&#45;&gt;Node30</title>
<path fill="none" stroke="#191970" d="M1238.4598,-291.4581C1290.2114,-280.5956 1374.7612,-262.8488 1430.3962,-251.1711"/>
<polygon fill="#191970" stroke="#191970" points="1431.3658,-254.5439 1440.4336,-249.0643 1429.9278,-247.6932 1431.3658,-254.5439"/>
</g>
<!-- Node35 -->
<g id="node25" class="node">
<title>Node35</title>
<g id="a_node25"><a xlink:href="RotationRaw_8h.html" target="_top" xlink:title="iDynTree/Core/RotationRaw.h">
<polygon fill="none" stroke="#000000" points="1114,-230 1114,-249 1272,-249 1272,-230 1114,-230"/>
<text text-anchor="middle" x="1193" y="-237" font-family="FreeSans.ttf" font-size="10.00" fill="#000000">iDynTree/Core/RotationRaw.h</text>
</a>
</g>
</g>
<!-- Node34&#45;&gt;Node35 -->
<g id="edge35" class="edge">
<title>Node34&#45;&gt;Node35</title>
<path fill="none" stroke="#191970" d="M1193,-291.3906C1193,-282.8657 1193,-270.1392 1193,-259.4235"/>
<polygon fill="#191970" stroke="#191970" points="1196.5001,-259.2448 1193,-249.2449 1189.5001,-259.2449 1196.5001,-259.2448"/>
</g>
<!-- Node35&#45;&gt;Node5 -->
<g id="edge47" class="edge">
<title>Node35&#45;&gt;Node5</title>
<path fill="none" stroke="#191970" d="M1159.6192,-229.9011C1109.947,-215.7289 1013.5601,-188.6558 931,-168 871.2648,-153.0548 801.085,-137.5262 761.1459,-128.8785"/>
<polygon fill="#191970" stroke="#191970" points="761.7056,-125.4188 751.1923,-126.7304 760.2288,-132.2613 761.7056,-125.4188"/>
</g>
<!-- Node11 -->
<g id="node26" class="node">
<title>Node11</title>
<g id="a_node26"><a xlink:href="MatrixFixSize_8h.html" target="_top" xlink:title="iDynTree/Core/MatrixFixSize.h">
<polygon fill="none" stroke="#000000" points="1190.5,-168.5 1190.5,-187.5 1351.5,-187.5 1351.5,-168.5 1190.5,-168.5"/>
<text text-anchor="middle" x="1271" y="-175.5" font-family="FreeSans.ttf" font-size="10.00" fill="#000000">iDynTree/Core/MatrixFixSize.h</text>
</a>
</g>
</g>
<!-- Node35&#45;&gt;Node11 -->
<g id="edge36" class="edge">
<title>Node35&#45;&gt;Node11</title>
<path fill="none" stroke="#191970" d="M1205.1875,-229.8906C1217.437,-220.2324 1236.5263,-205.1812 1250.9977,-193.771"/>
<polygon fill="#191970" stroke="#191970" points="1253.2124,-196.4819 1258.8981,-187.5419 1248.8783,-190.985 1253.2124,-196.4819"/>
</g>
<!-- Node11&#45;&gt;Node5 -->
<g id="edge44" class="edge">
<title>Node11&#45;&gt;Node5</title>
<path fill="none" stroke="#191970" d="M1190.408,-169.5035C1185.5329,-168.9936 1180.7011,-168.4893 1176,-168 1020.6891,-151.8344 834.9875,-132.8272 761.3601,-125.304"/>
<polygon fill="#191970" stroke="#191970" points="761.6312,-121.8136 751.3273,-124.2791 760.9198,-128.7773 761.6312,-121.8136"/>
</g>
<!-- Node11&#45;&gt;Node12 -->
<g id="edge37" class="edge">
<title>Node11&#45;&gt;Node12</title>
<path fill="none" stroke="#191970" d="M1260.8541,-168.4509C1240.5672,-149.3574 1194.7866,-106.2697 1169.538,-82.5063"/>
<polygon fill="#191970" stroke="#191970" points="1171.801,-79.8299 1162.1202,-75.5249 1167.0034,-84.9273 1171.801,-79.8299"/>
</g>
<!-- Node11&#45;&gt;Node15 -->
<g id="edge42" class="edge">
<title>Node11&#45;&gt;Node15</title>
<path fill="none" stroke="#191970" d="M1264.9623,-168.3069C1257.0892,-154.294 1245.79,-128.2772 1259,-112 1287.6636,-76.6812 1599.886,-30.1159 1707.6656,-14.9813"/>
<polygon fill="#191970" stroke="#191970" points="1708.3147,-18.4248 1717.7346,-13.5755 1707.3467,-11.492 1708.3147,-18.4248"/>
</g>
<!-- Node11&#45;&gt;Node26 -->
<g id="edge46" class="edge">
<title>Node11&#45;&gt;Node26</title>
<path fill="none" stroke="#191970" d="M1275.3547,-168.2455C1278.7244,-160.6973 1283.493,-150.0158 1287.5983,-140.8197"/>
<polygon fill="#191970" stroke="#191970" points="1290.8147,-142.2009 1291.6952,-131.6427 1284.4227,-139.3473 1290.8147,-142.2009"/>
</g>
<!-- Node11&#45;&gt;Node24 -->
<g id="edge43" class="edge">
<title>Node11&#45;&gt;Node24</title>
<path fill="none" stroke="#191970" d="M1287.7219,-168.2455C1302.5889,-159.5731 1324.5466,-146.7645 1341.5858,-136.825"/>
<polygon fill="#191970" stroke="#191970" points="1343.5955,-139.7047 1350.4697,-131.6427 1340.0683,-133.6582 1343.5955,-139.7047"/>
</g>
<!-- Node14 -->
<g id="node27" class="node">
<title>Node14</title>
<g id="a_node27"><a xlink:href="MatrixView_8h.html" target="_top" xlink:title="iDynTree/Core/MatrixView.h">
<polygon fill="none" stroke="#ff0000" points="1448.5,-112.5 1448.5,-131.5 1599.5,-131.5 1599.5,-112.5 1448.5,-112.5"/>
<text text-anchor="middle" x="1524" y="-119.5" font-family="FreeSans.ttf" font-size="10.00" fill="#000000">iDynTree/Core/MatrixView.h</text>
</a>
</g>
</g>
<!-- Node11&#45;&gt;Node14 -->
<g id="edge38" class="edge">
<title>Node11&#45;&gt;Node14</title>
<path fill="none" stroke="#191970" d="M1314.2048,-168.4369C1357.5947,-158.8328 1424.5209,-144.0191 1471.0726,-133.7152"/>
<polygon fill="#191970" stroke="#191970" points="1471.9662,-137.1022 1480.9734,-131.5237 1470.4533,-130.2676 1471.9662,-137.1022"/>
</g>
<!-- Node11&#45;&gt;Node25 -->
<g id="edge45" class="edge">
<title>Node11&#45;&gt;Node25</title>
<path fill="none" stroke="#191970" d="M1341.8695,-168.4369C1429.2881,-156.6406 1574.9489,-136.9852 1645.3898,-127.4799"/>
<polygon fill="#191970" stroke="#191970" points="1646.1832,-130.9047 1655.6253,-126.0988 1645.247,-123.9676 1646.1832,-130.9047"/>
</g>
<!-- Node14&#45;&gt;Node12 -->
<g id="edge41" class="edge">
<title>Node14&#45;&gt;Node12</title>
<path fill="none" stroke="#191970" d="M1460.4736,-112.4369C1394.1531,-102.4532 1290.4363,-86.8399 1221.8498,-76.515"/>
<polygon fill="#191970" stroke="#191970" points="1221.9844,-72.9959 1211.5748,-74.9682 1220.9423,-79.9179 1221.9844,-72.9959"/>
</g>
<!-- Node14&#45;&gt;Node17 -->
<g id="edge40" class="edge">
<title>Node14&#45;&gt;Node17</title>
<path fill="none" stroke="#191970" d="M1576.7679,-112.4369C1630.4285,-102.712 1713.5627,-87.6456 1770.491,-77.3285"/>
<polygon fill="#191970" stroke="#191970" points="1771.2342,-80.7509 1780.4497,-75.5237 1769.9859,-73.8631 1771.2342,-80.7509"/>
</g>
<!-- Node14&#45;&gt;Node15 -->
<g id="edge39" class="edge">
<title>Node14&#45;&gt;Node15</title>
<path fill="none" stroke="#191970" d="M1542.7571,-112.4509C1581.5611,-92.6961 1670.8175,-47.2565 1716.2864,-24.1088"/>
<polygon fill="#191970" stroke="#191970" points="1717.9667,-27.1808 1725.2904,-19.5249 1714.7908,-20.9427 1717.9667,-27.1808"/>
</g>
<!-- Node37 -->
<g id="node30" class="node">
<title>Node37</title>
<g id="a_node30"><a xlink:href="SpatialForceVector_8h.html" target="_top" xlink:title="iDynTree/Core/SpatialForce\lVector.h">
<polygon fill="none" stroke="#000000" points="1526,-459.5 1526,-489.5 1674,-489.5 1674,-459.5 1526,-459.5"/>
<text text-anchor="start" x="1534" y="-477.5" font-family="FreeSans.ttf" font-size="10.00" fill="#000000">iDynTree/Core/SpatialForce</text>
<text text-anchor="middle" x="1600" y="-466.5" font-family="FreeSans.ttf" font-size="10.00" fill="#000000">Vector.h</text>
</a>
</g>
</g>
<!-- Node36&#45;&gt;Node37 -->
<g id="edge56" class="edge">
<title>Node36&#45;&gt;Node37</title>
<path fill="none" stroke="#191970" d="M1734.5057,-531.9005C1711.0941,-521.9096 1673.8148,-506.0006 1644.4343,-493.4624"/>
<polygon fill="#191970" stroke="#191970" points="1645.7715,-490.2277 1635.2003,-489.5218 1643.024,-496.666 1645.7715,-490.2277"/>
</g>
<!-- Node37&#45;&gt;Node27 -->
<g id="edge57" class="edge">
<title>Node37&#45;&gt;Node27</title>
<path fill="none" stroke="#191970" d="M1606.3437,-459.2427C1622.6724,-417.3162 1661.3973,-298.5256 1610,-224 1601.2592,-211.326 1567.2152,-199.042 1537.4564,-190.3609"/>
<polygon fill="#191970" stroke="#191970" points="1538.1467,-186.9188 1527.5713,-187.5596 1536.2382,-193.6536 1538.1467,-186.9188"/>
</g>
<!-- Node37&#45;&gt;Node30 -->
<g id="edge58" class="edge">
<title>Node37&#45;&gt;Node30</title>
<path fill="none" stroke="#191970" d="M1592.6954,-459.4422C1572.6844,-418.1914 1517.0154,-303.4353 1495.065,-258.1865"/>
<polygon fill="#191970" stroke="#191970" points="1498.2069,-256.6442 1490.6932,-249.1746 1491.9089,-259.6995 1498.2069,-256.6442"/>
</g>
<!-- Node37&#45;&gt;Node31 -->
<g id="edge59" class="edge">
<title>Node37&#45;&gt;Node31</title>
<path fill="none" stroke="#191970" d="M1530.5258,-459.4554C1481.0613,-448.7439 1415.5473,-434.5569 1369.9887,-424.6912"/>
<polygon fill="#191970" stroke="#191970" points="1370.5242,-421.2261 1360.0099,-422.5303 1369.0426,-428.0675 1370.5242,-421.2261"/>
</g>
<!-- Node38&#45;&gt;Node29 -->
<g id="edge61" class="edge">
<title>Node38&#45;&gt;Node29</title>
<path fill="none" stroke="#191970" d="M1249,-531.9005C1249,-523.5099 1249,-510.9451 1249,-499.7085"/>
<polygon fill="#191970" stroke="#191970" points="1252.5001,-499.5217 1249,-489.5218 1245.5001,-499.5218 1252.5001,-499.5217"/>
</g>
<!-- Node39&#45;&gt;Node37 -->
<g id="edge63" class="edge">
<title>Node39&#45;&gt;Node37</title>
<path fill="none" stroke="#191970" d="M1435.5089,-531.9005C1464.5116,-521.7798 1510.9167,-505.5864 1547.055,-492.9756"/>
<polygon fill="#191970" stroke="#191970" points="1548.6641,-496.1211 1556.9526,-489.5218 1546.3577,-489.512 1548.6641,-496.1211"/>
</g>
<!-- Node40&#45;&gt;Node5 -->
<g id="edge69" class="edge">
<title>Node40&#45;&gt;Node5</title>
<path fill="none" stroke="#191970" d="M671.1081,-531.9104C648.1579,-512.238 600,-464.7883 600,-413 600,-413 600,-413 600,-239.5 600,-205.9798 601.3763,-192.734 624,-168 643.1892,-147.0208 673.66,-135.1312 696.8453,-128.7197"/>
<polygon fill="#191970" stroke="#191970" points="697.7806,-132.0932 706.5996,-126.2215 696.0438,-125.312 697.7806,-132.0932"/>
</g>
<!-- Node40&#45;&gt;Node32 -->
<g id="edge66" class="edge">
<title>Node40&#45;&gt;Node32</title>
<path fill="none" stroke="#191970" d="M684.9372,-531.8402C690.769,-502.76 708.241,-415.636 716.0977,-376.459"/>
<polygon fill="#191970" stroke="#191970" points="719.5473,-377.0571 718.082,-366.5641 712.684,-375.6807 719.5473,-377.0571"/>
</g>
<!-- Node40&#45;&gt;Node34 -->
<g id="edge67" class="edge">
<title>Node40&#45;&gt;Node34</title>
<path fill="none" stroke="#191970" d="M689.132,-531.7011C705.5583,-506.2919 753.2491,-437.8419 811,-403 905.9734,-345.7012 1033.2482,-320.0981 1114.2073,-309.0068"/>
<polygon fill="#191970" stroke="#191970" points="1114.8825,-312.4479 1124.3348,-307.662 1113.961,-305.5088 1114.8825,-312.4479"/>
</g>
<!-- Node40&#45;&gt;Node11 -->
<g id="edge68" class="edge">
<title>Node40&#45;&gt;Node11</title>
<path fill="none" stroke="#191970" d="M720.5124,-531.9256C838.223,-501.1343 1196.8569,-401.3932 1271,-311 1297.4887,-278.7057 1286.5434,-225.6445 1277.8405,-197.2885"/>
<polygon fill="#191970" stroke="#191970" points="1281.1449,-196.1326 1274.6976,-187.7253 1274.4948,-198.3182 1281.1449,-196.1326"/>
</g>
<!-- Node41&#45;&gt;Node3 -->
<g id="edge76" class="edge">
<title>Node41&#45;&gt;Node3</title>
<path fill="none" stroke="#191970" d="M530.9375,-593.3906C499.1338,-582.8749 447.9949,-565.966 412.7856,-554.3243"/>
<polygon fill="#191970" stroke="#191970" points="413.4517,-550.8582 402.8584,-551.0419 411.2541,-557.5043 413.4517,-550.8582"/>
</g>
<!-- Node41&#45;&gt;Node5 -->
<g id="edge73" class="edge">
<title>Node41&#45;&gt;Node5</title>
<path fill="none" stroke="#191970" d="M560.2533,-593.3289C560.7915,-571.9199 562,-518.9003 562,-474.5 562,-474.5 562,-474.5 562,-239.5 562,-202.4182 576.4549,-191.6694 605,-168 631.5268,-146.0042 669.5677,-133.9888 696.5058,-127.8115"/>
<polygon fill="#191970" stroke="#191970" points="697.5486,-131.1676 706.5936,-125.6505 696.0823,-124.3229 697.5486,-131.1676"/>
</g>
<!-- Node41&#45;&gt;Node40 -->
<g id="edge75" class="edge">
<title>Node41&#45;&gt;Node40</title>
<path fill="none" stroke="#191970" d="M579.2188,-593.3906C599.5281,-583.2359 631.7607,-567.1196 654.9168,-555.5416"/>
<polygon fill="#191970" stroke="#191970" points="656.5372,-558.6446 663.9162,-551.0419 653.4067,-552.3836 656.5372,-558.6446"/>
</g>
<!-- Node41&#45;&gt;Node42 -->
<g id="edge72" class="edge">
<title>Node41&#45;&gt;Node42</title>
<path fill="none" stroke="#191970" d="M550.4688,-593.3906C541.2121,-584.0581 526.961,-569.6902 515.7997,-558.4374"/>
<polygon fill="#191970" stroke="#191970" points="518.1928,-555.88 508.6656,-551.2449 513.2228,-560.8095 518.1928,-555.88"/>
</g>
<!-- Node41&#45;&gt;Node43 -->
<g id="edge74" class="edge">
<title>Node41&#45;&gt;Node43</title>
<path fill="none" stroke="#191970" d="M621.2854,-593.4581C705.6189,-580.3277 854.5585,-557.1384 921.1619,-546.7685"/>
<polygon fill="#191970" stroke="#191970" points="921.7794,-550.2146 931.1219,-545.2177 920.7025,-543.2979 921.7794,-550.2146"/>
</g>
<!-- Node44&#45;&gt;Node3 -->
<g id="edge80" class="edge">
<title>Node44&#45;&gt;Node3</title>
<path fill="none" stroke="#191970" d="M1092.2338,-596.6123C1076.6186,-595.3599 1060.2793,-594.096 1045,-593 787.8305,-574.5527 722.1419,-586.458 466,-557 455.9832,-555.848 445.398,-554.3398 435.1131,-552.7166"/>
<polygon fill="#191970" stroke="#191970" points="435.3929,-549.2162 424.9605,-551.0642 434.2683,-556.1253 435.3929,-549.2162"/>
</g>
<!-- Node44&#45;&gt;Node4 -->
<g id="edge83" class="edge">
<title>Node44&#45;&gt;Node4</title>
<path fill="none" stroke="#191970" d="M1092.2543,-593.6783C1024.3958,-584.5492 933.8985,-570.1351 923,-557 914.2023,-546.3968 913.4909,-535.9702 923,-526 981.3468,-464.8239 1618.1497,-544.2338 1683,-490 1812.6666,-381.5609 1787.7199,-268.9671 1725,-112 1710.1407,-74.8122 1674.5572,-43.4379 1650.8711,-25.6729"/>
<polygon fill="#191970" stroke="#191970" points="1652.8884,-22.8123 1642.7434,-19.758 1648.7695,-28.4722 1652.8884,-22.8123"/>
</g>
<!-- Node44&#45;&gt;Node5 -->
<g id="edge82" class="edge">
<title>Node44&#45;&gt;Node5</title>
<path fill="none" stroke="#191970" d="M1097.3195,-593.4628C1020.9037,-582.8171 907.4881,-565.9176 889,-557 775.6337,-502.3186 730.0558,-482.0447 679,-367 642.9427,-285.7516 666.2514,-250.6375 699,-168 702.9726,-157.9756 709.2901,-147.8308 715.1054,-139.6282"/>
<polygon fill="#191970" stroke="#191970" points="717.9258,-141.7008 721.0837,-131.5876 712.3083,-137.5241 717.9258,-141.7008"/>
</g>
<!-- Node44&#45;&gt;Node43 -->
<g id="edge81" class="edge">
<title>Node44&#45;&gt;Node43</title>
<path fill="none" stroke="#191970" d="M1125.4681,-593.461C1089.7467,-585.06 1037.5477,-571.8699 993,-557 990.8584,-556.2852 988.6648,-555.5098 986.4649,-554.6999"/>
<polygon fill="#191970" stroke="#191970" points="987.5101,-551.3515 976.9209,-551.0079 984.9846,-557.8801 987.5101,-551.3515"/>
</g>
<!-- Node45&#45;&gt;Node3 -->
<g id="edge85" class="edge">
<title>Node45&#45;&gt;Node3</title>
<path fill="none" stroke="#191970" d="M887.8599,-597.8549C790.7289,-590.7182 615.2125,-576.4612 466,-557 456.4636,-555.7562 446.4019,-554.2556 436.5715,-552.6841"/>
<polygon fill="#191970" stroke="#191970" points="436.8762,-549.1876 426.4426,-551.0287 435.7471,-556.0959 436.8762,-549.1876"/>
</g>
<!-- Node45&#45;&gt;Node43 -->
<g id="edge86" class="edge">
<title>Node45&#45;&gt;Node43</title>
<path fill="none" stroke="#191970" d="M960.9063,-593.3906C959.9359,-584.8657 958.4874,-572.1392 957.2677,-561.4235"/>
<polygon fill="#191970" stroke="#191970" points="960.7177,-560.7849 956.1092,-551.2449 953.7626,-561.5766 960.7177,-560.7849"/>
</g>
<!-- Node46&#45;&gt;Node3 -->
<g id="edge93" class="edge">
<title>Node46&#45;&gt;Node3</title>
<path fill="none" stroke="#191970" d="M1334.824,-661.4961C1116.9648,-652.855 510.3774,-627.6195 470,-613 438.1437,-601.4658 407.9278,-575.6245 390.1828,-558.3767"/>
<polygon fill="#191970" stroke="#191970" points="392.4918,-555.7359 382.9462,-551.139 387.5417,-560.6853 392.4918,-555.7359"/>
</g>
<!-- Node46&#45;&gt;Node28 -->
<g id="edge89" class="edge">
<title>Node46&#45;&gt;Node28</title>
<path fill="none" stroke="#191970" d="M1451.9487,-649.4165C1482.178,-635.8142 1515.4354,-614.6709 1496,-593 1446.7474,-538.0822 1238.7872,-568.992 1166,-557 1159.3161,-555.8988 1152.3106,-554.5653 1145.4222,-553.1481"/>
<polygon fill="#191970" stroke="#191970" points="1145.9743,-549.6873 1135.4648,-551.029 1144.5172,-556.534 1145.9743,-549.6873"/>
</g>
<!-- Node46&#45;&gt;Node40 -->
<g id="edge88" class="edge">
<title>Node46&#45;&gt;Node40</title>
<path fill="none" stroke="#191970" d="M1334.8329,-659.3388C1267.3226,-653.1972 1167.3105,-640.1279 1084,-613 1065.4776,-606.9687 1063.5654,-598.8976 1045,-593 994.6307,-576.9994 856.6403,-560.0261 766.3189,-550.1144"/>
<polygon fill="#191970" stroke="#191970" points="766.6896,-546.6342 756.3692,-549.0299 765.9311,-553.593 766.6896,-546.6342"/>
</g>
<!-- Node46&#45;&gt;Node43 -->
<g id="edge109" class="edge">
<title>Node46&#45;&gt;Node43</title>
<path fill="none" stroke="#191970" d="M1388.1553,-649.4679C1357.8107,-630.6061 1306.8363,-599.8865 1286,-593 1161.426,-551.8278 1119.9663,-590.0663 993,-557 990.3756,-556.3165 987.6916,-555.4936 985.0237,-554.5879"/>
<polygon fill="#191970" stroke="#191970" points="986.1599,-551.2761 975.5675,-551.046 983.7045,-557.8313 986.1599,-551.2761"/>
</g>
<!-- Node47 -->
<g id="node40" class="node">
<title>Node47</title>
<g id="a_node40"><a xlink:href="VectorDynSize_8h.html" target="_top" xlink:title="iDynTree/Core/VectorDynSize.h">
<polygon fill="none" stroke="#000000" points="1861.5,-347.5 1861.5,-366.5 2028.5,-366.5 2028.5,-347.5 1861.5,-347.5"/>
<text text-anchor="middle" x="1945" y="-354.5" font-family="FreeSans.ttf" font-size="10.00" fill="#000000">iDynTree/Core/VectorDynSize.h</text>
</a>
</g>
</g>
<!-- Node46&#45;&gt;Node47 -->
<g id="edge90" class="edge">
<title>Node46&#45;&gt;Node47</title>
<path fill="none" stroke="#191970" d="M1489.2448,-662.1964C1639.662,-657.071 1960.728,-642.7561 2001,-613 2028.5802,-592.6215 2030,-575.7921 2030,-541.5 2030,-541.5 2030,-541.5 2030,-474.5 2030,-431.2953 1991.8072,-393.2165 1966.6243,-372.8047"/>
<polygon fill="#191970" stroke="#191970" points="1968.6912,-369.9779 1958.6567,-366.5778 1964.3807,-375.4933 1968.6912,-369.9779"/>
</g>
<!-- Node48 -->
<g id="node41" class="node">
<title>Node48</title>
<g id="a_node41"><a xlink:href="LinkState_8h.html" target="_top" xlink:title="iDynTree/Model/LinkState.h">
<polygon fill="none" stroke="#000000" points="1337.5,-593.5 1337.5,-612.5 1486.5,-612.5 1486.5,-593.5 1337.5,-593.5"/>
<text text-anchor="middle" x="1412" y="-600.5" font-family="FreeSans.ttf" font-size="10.00" fill="#000000">iDynTree/Model/LinkState.h</text>
</a>
</g>
</g>
<!-- Node46&#45;&gt;Node48 -->
<g id="edge94" class="edge">
<title>Node46&#45;&gt;Node48</title>
<path fill="none" stroke="#191970" d="M1412,-649.2977C1412,-641.3834 1412,-631.6043 1412,-623.0759"/>
<polygon fill="#191970" stroke="#191970" points="1415.5001,-622.8469 1412,-612.8469 1408.5001,-622.847 1415.5001,-622.8469"/>
</g>
<!-- Node50 -->
<g id="node43" class="node">
<title>Node50</title>
<g id="a_node43"><a xlink:href="JointState_8h.html" target="_top" xlink:title="iDynTree/Model/JointState.h">
<polygon fill="none" stroke="#000000" points="1840.5,-593.5 1840.5,-612.5 1991.5,-612.5 1991.5,-593.5 1840.5,-593.5"/>
<text text-anchor="middle" x="1916" y="-600.5" font-family="FreeSans.ttf" font-size="10.00" fill="#000000">iDynTree/Model/JointState.h</text>
</a>
</g>
</g>
<!-- Node46&#45;&gt;Node50 -->
<g id="edge104" class="edge">
<title>Node46&#45;&gt;Node50</title>
<path fill="none" stroke="#191970" d="M1489.0954,-655.0925C1581.1116,-643.8644 1734.5207,-625.1448 1830.213,-613.4681"/>
<polygon fill="#191970" stroke="#191970" points="1830.6479,-616.941 1840.1503,-612.2555 1829.8,-609.9926 1830.6479,-616.941"/>
</g>
<!-- Node47&#45;&gt;Node5 -->
<g id="edge92" class="edge">
<title>Node47&#45;&gt;Node5</title>
<path fill="none" stroke="#191970" d="M1924.4039,-347.4213C1869.4022,-322.3169 1713.9366,-254.4559 1577,-224 1404.9215,-185.7282 1357.0618,-208.7151 1182,-188 1023.6495,-169.2623 835.2628,-139.3564 761.1821,-127.2969"/>
<polygon fill="#191970" stroke="#191970" points="761.532,-123.8077 751.0987,-125.6505 760.404,-130.7163 761.532,-123.8077"/>
</g>
<!-- Node47&#45;&gt;Node17 -->
<g id="edge91" class="edge">
<title>Node47&#45;&gt;Node17</title>
<path fill="none" stroke="#191970" d="M1938.9824,-347.3606C1927.369,-327.807 1903,-281.7435 1903,-239.5 1903,-239.5 1903,-239.5 1903,-178 1903,-139.1653 1872.3623,-102.6944 1851.6251,-82.4569"/>
<polygon fill="#191970" stroke="#191970" points="1853.9312,-79.821 1844.2467,-75.5244 1849.138,-84.9226 1853.9312,-79.821"/>
</g>
<!-- Node48&#45;&gt;Node3 -->
<g id="edge102" class="edge">
<title>Node48&#45;&gt;Node3</title>
<path fill="none" stroke="#191970" d="M1337.1966,-598.0311C1310.618,-596.3355 1280.4799,-594.4925 1253,-593 903.3718,-574.0102 814.1667,-594.1541 466,-557 455.6256,-555.8929 444.6472,-554.3616 434.0258,-552.6897"/>
<polygon fill="#191970" stroke="#191970" points="434.4158,-549.2072 423.983,-551.0529 433.2897,-556.116 434.4158,-549.2072"/>
</g>
<!-- Node48&#45;&gt;Node28 -->
<g id="edge96" class="edge">
<title>Node48&#45;&gt;Node28</title>
<path fill="none" stroke="#191970" d="M1358.1531,-593.4598C1308.2475,-584.4926 1231.9843,-570.4708 1166,-557 1160.2185,-555.8197 1154.1779,-554.545 1148.1722,-553.2514"/>
<polygon fill="#191970" stroke="#191970" points="1148.6659,-549.7769 1138.1503,-551.0697 1147.1769,-556.6168 1148.6659,-549.7769"/>
</g>
<!-- Node48&#45;&gt;Node38 -->
<g id="edge97" class="edge">
<title>Node48&#45;&gt;Node38</title>
<path fill="none" stroke="#191970" d="M1386.5313,-593.3906C1358.8995,-582.9652 1314.6131,-566.2559 1283.7872,-554.6252"/>
<polygon fill="#191970" stroke="#191970" points="1284.8817,-551.2974 1274.2899,-551.0419 1282.4106,-557.8467 1284.8817,-551.2974"/>
</g>
<!-- Node48&#45;&gt;Node39 -->
<g id="edge98" class="edge">
<title>Node48&#45;&gt;Node39</title>
<path fill="none" stroke="#191970" d="M1411.375,-593.3906C1410.8205,-584.8657 1409.9928,-572.1392 1409.2958,-561.4235"/>
<polygon fill="#191970" stroke="#191970" points="1412.7756,-560.9966 1408.6338,-551.2449 1405.7903,-561.451 1412.7756,-560.9966"/>
</g>
<!-- Node48&#45;&gt;Node40 -->
<g id="edge95" class="edge">
<title>Node48&#45;&gt;Node40</title>
<path fill="none" stroke="#191970" d="M1337.4101,-596.7074C1200.3534,-585.145 909.4021,-560.5998 766.1819,-548.5174"/>
<polygon fill="#191970" stroke="#191970" points="766.3884,-545.0225 756.1295,-547.6694 765.7999,-551.9977 766.3884,-545.0225"/>
</g>
<!-- Node48&#45;&gt;Node43 -->
<g id="edge103" class="edge">
<title>Node48&#45;&gt;Node43</title>
<path fill="none" stroke="#191970" d="M1337.1102,-594.465C1332.6746,-593.9672 1328.2789,-593.4758 1324,-593 1176.9278,-576.6458 1136.458,-593.2971 993,-557 990.3709,-556.3348 987.6836,-555.5248 985.0135,-554.6277"/>
<polygon fill="#191970" stroke="#191970" points="986.1462,-551.3147 975.5535,-551.1006 983.7007,-557.8736 986.1462,-551.3147"/>
</g>
<!-- Node49 -->
<g id="node42" class="node">
<title>Node49</title>
<g id="a_node42"><a xlink:href="ArticulatedBodyInertia_8h.html" target="_top" xlink:title="iDynTree/Core/Articulated\lBodyInertia.h">
<polygon fill="none" stroke="#000000" points="916.5,-224.5 916.5,-254.5 1057.5,-254.5 1057.5,-224.5 916.5,-224.5"/>
<text text-anchor="start" x="924.5" y="-242.5" font-family="FreeSans.ttf" font-size="10.00" fill="#000000">iDynTree/Core/Articulated</text>
<text text-anchor="middle" x="987" y="-231.5" font-family="FreeSans.ttf" font-size="10.00" fill="#000000">BodyInertia.h</text>
</a>
</g>
</g>
<!-- Node48&#45;&gt;Node49 -->
<g id="edge99" class="edge">
<title>Node48&#45;&gt;Node49</title>
<path fill="none" stroke="#191970" d="M1337.3519,-594.6436C1225.9571,-582.099 1028.8799,-559.5852 1026,-557 998,-531.8653 1007,-512.1265 1007,-474.5 1007,-474.5 1007,-474.5 1007,-357 1007,-324.7 999.5643,-288.1046 993.7606,-264.4606"/>
<polygon fill="#191970" stroke="#191970" points="997.1016,-263.3971 991.2415,-254.5705 990.3182,-265.125 997.1016,-263.3971"/>
</g>
<!-- Node49&#45;&gt;Node5 -->
<g id="edge101" class="edge">
<title>Node49&#45;&gt;Node5</title>
<path fill="none" stroke="#191970" d="M973.1149,-224.3848C957.379,-208.1405 930.2279,-182.682 902,-168 856.2022,-144.1795 797.0032,-131.9047 761.0742,-126.2212"/>
<polygon fill="#191970" stroke="#191970" points="761.5596,-122.7549 751.1498,-124.7261 760.5168,-129.6768 761.5596,-122.7549"/>
</g>
<!-- Node49&#45;&gt;Node11 -->
<g id="edge100" class="edge">
<title>Node49&#45;&gt;Node11</title>
<path fill="none" stroke="#191970" d="M1056.4742,-224.4554C1105.9387,-213.7439 1171.4527,-199.5569 1217.0113,-189.6912"/>
<polygon fill="#191970" stroke="#191970" points="1217.9574,-193.0675 1226.9901,-187.5303 1216.4758,-186.2261 1217.9574,-193.0675"/>
</g>
<!-- Node50&#45;&gt;Node27 -->
<g id="edge105" class="edge">
<title>Node50&#45;&gt;Node27</title>
<path fill="none" stroke="#191970" d="M1913.1184,-593.2796C1908.5744,-578.4371 1899.1088,-549.384 1888,-526 1816.0637,-374.5739 1805.6166,-310.481 1662,-224 1634.2528,-207.2916 1600.4257,-196.5636 1570.0675,-189.7158"/>
<polygon fill="#191970" stroke="#191970" points="1570.4306,-186.2141 1559.919,-187.5392 1568.9626,-193.0585 1570.4306,-186.2141"/>
</g>
<!-- Node50&#45;&gt;Node37 -->
<g id="edge107" class="edge">
<title>Node50&#45;&gt;Node37</title>
<path fill="none" stroke="#191970" d="M1911.7867,-593.3961C1903.9662,-576.7783 1885.551,-542.8287 1859,-526 1830.3761,-507.8575 1748.4339,-493.4939 1684.3027,-484.5953"/>
<polygon fill="#191970" stroke="#191970" points="1684.5551,-481.0974 1674.1739,-483.2143 1683.6094,-488.0332 1684.5551,-481.0974"/>
</g>
<!-- Node50&#45;&gt;Node43 -->
<g id="edge108" class="edge">
<title>Node50&#45;&gt;Node43</title>
<path fill="none" stroke="#191970" d="M1840.1842,-599.246C1628.6422,-588.7501 1046.067,-559.6907 1026,-557 1013.717,-555.353 1000.407,-552.688 988.6665,-550.0286"/>
<polygon fill="#191970" stroke="#191970" points="989.3534,-546.5948 978.8184,-547.7187 987.7549,-553.4098 989.3534,-546.5948"/>
</g>
<!-- Node50&#45;&gt;Node47 -->
<g id="edge106" class="edge">
<title>Node50&#45;&gt;Node47</title>
<path fill="none" stroke="#191970" d="M1933.0567,-593.377C1945.3089,-585.4014 1960.8708,-572.8248 1968,-557 1995.7004,-495.5124 1968.5777,-413.0943 1953.5382,-376.2284"/>
<polygon fill="#191970" stroke="#191970" points="1956.6272,-374.5476 1949.502,-366.7065 1950.1823,-377.2795 1956.6272,-374.5476"/>
</g>
<!-- Node51&#45;&gt;Node2 -->
<g id="edge113" class="edge">
<title>Node51&#45;&gt;Node2</title>
<path fill="none" stroke="#191970" d="M428.1948,-654.9581C382.0311,-644.1632 306.7928,-626.5694 256.846,-614.8899"/>
<polygon fill="#191970" stroke="#191970" points="257.4352,-611.4333 246.9009,-612.5643 255.8413,-618.2494 257.4352,-611.4333"/>
</g>
<!-- Node51&#45;&gt;Node3 -->
<g id="edge112" class="edge">
<title>Node51&#45;&gt;Node3</title>
<path fill="none" stroke="#191970" d="M424.8183,-654.9401C386.1198,-645.565 334.2024,-630.2046 322,-613 308.2318,-593.5877 330.2182,-571.4609 349.6982,-557.0293"/>
<polygon fill="#191970" stroke="#191970" points="351.8834,-559.7716 358.0576,-551.1617 347.8618,-554.0422 351.8834,-559.7716"/>
</g>
<!-- Node51&#45;&gt;Node40 -->
<g id="edge111" class="edge">
<title>Node51&#45;&gt;Node40</title>
<path fill="none" stroke="#191970" d="M520.8544,-654.915C567.4648,-645.4091 631.4994,-629.8588 651,-613 666.3806,-599.703 674.7103,-577.5523 678.979,-561.4235"/>
<polygon fill="#191970" stroke="#191970" points="682.4534,-561.9366 681.3222,-551.4023 675.6373,-560.3428 682.4534,-561.9366"/>
</g>
<!-- Node52&#45;&gt;Node3 -->
<g id="edge125" class="edge">
<title>Node52&#45;&gt;Node3</title>
<path fill="none" stroke="#191970" d="M173.2757,-721.9251C149.6545,-714.5306 122.5863,-701.7425 107,-680 84.3991,-648.4724 75.2329,-622.856 100,-593 124.337,-563.6626 222.4451,-550.9305 294.3367,-545.4759"/>
<polygon fill="#191970" stroke="#191970" points="295.0203,-548.9357 304.7416,-544.7229 294.515,-541.954 295.0203,-548.9357"/>
</g>
<!-- Node52&#45;&gt;Node29 -->
<g id="edge116" class="edge">
<title>Node52&#45;&gt;Node29</title>
<path fill="none" stroke="#191970" d="M303.151,-725.0947C400.6684,-716.8514 554.898,-701.047 609,-680 720.2325,-636.7279 717.5679,-568.7554 829,-526 887.8267,-503.4288 1056.3946,-487.983 1161.2225,-480.2479"/>
<polygon fill="#191970" stroke="#191970" points="1161.757,-483.7183 1171.4762,-479.5008 1161.2483,-476.7368 1161.757,-483.7183"/>
</g>
<!-- Node52&#45;&gt;Node40 -->
<g id="edge115" class="edge">
<title>Node52&#45;&gt;Node40</title>
<path fill="none" stroke="#191970" d="M303.29,-727.0289C372.2904,-721.377 471.5995,-708.6365 554,-680 610.9666,-660.2025 637.7721,-662.6547 672,-613 682.4391,-597.8559 684.5342,-576.6388 684.4157,-561.2535"/>
<polygon fill="#191970" stroke="#191970" points="687.9128,-561.1076 684.0259,-551.2515 680.9181,-561.3803 687.9128,-561.1076"/>
</g>
<!-- Node53 -->
<g id="node46" class="node">
<title>Node53</title>
<g id="a_node46"><a xlink:href="Axis_8h.html" target="_top" xlink:title="iDynTree/Core/Axis.h">
<polygon fill="none" stroke="#000000" points="248,-403.5 248,-422.5 366,-422.5 366,-403.5 248,-403.5"/>
<text text-anchor="middle" x="307" y="-410.5" font-family="FreeSans.ttf" font-size="10.00" fill="#000000">iDynTree/Core/Axis.h</text>
</a>
</g>
</g>
<!-- Node52&#45;&gt;Node53 -->
<g id="edge117" class="edge">
<title>Node52&#45;&gt;Node53</title>
<path fill="none" stroke="#191970" d="M155.9499,-721.9676C91.253,-708.1905 0,-675.8465 0,-603 0,-603 0,-603 0,-541.5 0,-495.6333 23.0411,-483.2066 62,-459 90.7713,-441.1234 175.9608,-427.9096 237.8153,-420.3403"/>
<polygon fill="#191970" stroke="#191970" points="238.403,-423.795 247.915,-419.1288 237.5693,-416.8448 238.403,-423.795"/>
</g>
<!-- Node55 -->
<g id="node48" class="node">
<title>Node55</title>
<g id="a_node48"><a xlink:href="MovableJointImpl_8h.html" target="_top" xlink:title="iDynTree/Model/MovableJoint\lImpl.h">
<polygon fill="none" stroke="#000000" points="116,-649.5 116,-679.5 274,-679.5 274,-649.5 116,-649.5"/>
<text text-anchor="start" x="124" y="-667.5" font-family="FreeSans.ttf" font-size="10.00" fill="#000000">iDynTree/Model/MovableJoint</text>
<text text-anchor="middle" x="195" y="-656.5" font-family="FreeSans.ttf" font-size="10.00" fill="#000000">Impl.h</text>
</a>
</g>
</g>
<!-- Node52&#45;&gt;Node55 -->
<g id="edge126" class="edge">
<title>Node52&#45;&gt;Node55</title>
<path fill="none" stroke="#191970" d="M215.5614,-721.9005C212.4938,-713.3368 207.8687,-700.4252 203.7816,-689.0152"/>
<polygon fill="#191970" stroke="#191970" points="207.0482,-687.7557 200.3809,-679.5218 200.4583,-690.1163 207.0482,-687.7557"/>
</g>
<!-- Node53&#45;&gt;Node5 -->
<g id="edge118" class="edge">
<title>Node53&#45;&gt;Node5</title>
<path fill="none" stroke="#191970" d="M309.8035,-403.2066C315.0887,-383.8521 326,-339.2612 326,-301 326,-301 326,-301 326,-239.5 326,-162.484 600.6933,-132.5469 696.5044,-124.4474"/>
<polygon fill="#191970" stroke="#191970" points="697.0783,-127.9122 706.7589,-123.6068 696.5064,-120.9356 697.0783,-127.9122"/>
</g>
<!-- Node53&#45;&gt;Node12 -->
<g id="edge124" class="edge">
<title>Node53&#45;&gt;Node12</title>
<path fill="none" stroke="#191970" d="M304.1965,-403.2066C298.9113,-383.8521 288,-339.2612 288,-301 288,-301 288,-301 288,-178 288,-98.0966 876.6601,-73.7933 1082.1957,-67.7428"/>
<polygon fill="#191970" stroke="#191970" points="1082.3781,-71.2391 1092.2729,-67.4518 1082.176,-64.2421 1082.3781,-71.2391"/>
</g>
<!-- Node53&#45;&gt;Node32 -->
<g id="edge123" class="edge">
<title>Node53&#45;&gt;Node32</title>
<path fill="none" stroke="#191970" d="M366.1728,-404.9766C450.5303,-393.5383 603.3312,-372.8195 677.427,-362.7726"/>
<polygon fill="#191970" stroke="#191970" points="677.9056,-366.2398 687.3446,-361.4278 676.965,-359.3033 677.9056,-366.2398"/>
</g>
<!-- Node54 -->
<g id="node47" class="node">
<title>Node54</title>
<g id="a_node47"><a xlink:href="Direction_8h.html" target="_top" xlink:title="iDynTree/Core/Direction.h">
<polygon fill="none" stroke="#000000" points="354.5,-230 354.5,-249 495.5,-249 495.5,-230 354.5,-230"/>
<text text-anchor="middle" x="425" y="-237" font-family="FreeSans.ttf" font-size="10.00" fill="#000000">iDynTree/Core/Direction.h</text>
</a>
</g>
</g>
<!-- Node53&#45;&gt;Node54 -->
<g id="edge119" class="edge">
<title>Node53&#45;&gt;Node54</title>
<path fill="none" stroke="#191970" d="M314.1794,-403.1988C320.9314,-393.9329 331.2775,-379.6098 340,-367 366.7057,-328.3928 396.9804,-282.4313 413.2157,-257.5967"/>
<polygon fill="#191970" stroke="#191970" points="416.1793,-259.4597 418.714,-249.1725 410.3174,-255.6337 416.1793,-259.4597"/>
</g>
<!-- Node54&#45;&gt;Node5 -->
<g id="edge120" class="edge">
<title>Node54&#45;&gt;Node5</title>
<path fill="none" stroke="#191970" d="M433.3572,-229.9083C447.4942,-214.3325 477.7533,-183.7041 510,-168 571.6321,-137.9853 652.3459,-127.4928 696.5565,-123.8701"/>
<polygon fill="#191970" stroke="#191970" points="697.0069,-127.3462 706.7167,-123.1071 696.4826,-120.3659 697.0069,-127.3462"/>
</g>
<!-- Node54&#45;&gt;Node27 -->
<g id="edge121" class="edge">
<title>Node54&#45;&gt;Node27</title>
<path fill="none" stroke="#191970" d="M495.7725,-235.3723C550.2349,-232.2116 627.3764,-227.7687 695,-224 990.9728,-207.5053 1065.213,-207.5456 1361,-188 1373.1094,-187.1998 1385.8577,-186.2877 1398.4253,-185.3474"/>
<polygon fill="#191970" stroke="#191970" points="1398.7426,-188.8335 1408.4499,-184.5889 1398.2143,-181.8534 1398.7426,-188.8335"/>
</g>
<!-- Node54&#45;&gt;Node12 -->
<g id="edge122" class="edge">
<title>Node54&#45;&gt;Node12</title>
<path fill="none" stroke="#191970" d="M428.9668,-229.9712C435.9176,-214.4859 451.7995,-183.9845 475,-168 572.7141,-100.6777 929.8217,-76.3231 1082.2659,-68.8641"/>
<polygon fill="#191970" stroke="#191970" points="1082.6233,-72.3511 1092.4443,-68.3764 1082.2882,-65.3591 1082.6233,-72.3511"/>
</g>
<!-- Node55&#45;&gt;Node2 -->
<g id="edge127" class="edge">
<title>Node55&#45;&gt;Node2</title>
<path fill="none" stroke="#191970" d="M197.7191,-649.2977C199.1506,-641.2945 200.9231,-631.3843 202.4605,-622.7889"/>
<polygon fill="#191970" stroke="#191970" points="205.9233,-623.307 204.2388,-612.8469 199.0327,-622.0744 205.9233,-623.307"/>
</g>
<!-- Node56&#45;&gt;Node3 -->
<g id="edge132" class="edge">
<title>Node56&#45;&gt;Node3</title>
<path fill="none" stroke="#191970" d="M464.6141,-724.422C419.9574,-717.6998 362.116,-704.7496 316,-680 298.2691,-670.4841 300.7091,-658.5565 283,-649 222.6647,-616.4409 175.447,-666.8396 133,-613 127.4967,-606.0196 127.4098,-599.911 133,-593 153.1677,-568.0673 232.3522,-554.6754 294.5218,-547.8576"/>
<polygon fill="#191970" stroke="#191970" points="295.1563,-551.3101 304.7334,-546.7792 294.4211,-544.3488 295.1563,-551.3101"/>
</g>
<!-- Node56&#45;&gt;Node29 -->
<g id="edge130" class="edge">
<title>Node56&#45;&gt;Node29</title>
<path fill="none" stroke="#191970" d="M595.0388,-716.4815C624.3298,-707.9065 659.5154,-695.706 689,-680 788.015,-627.2563 785.6314,-569.5982 889,-526 936.6609,-505.8979 1070.7967,-490.4303 1161.1817,-481.9"/>
<polygon fill="#191970" stroke="#191970" points="1161.5235,-485.3834 1171.1553,-480.9701 1160.8735,-478.4137 1161.5235,-485.3834"/>
</g>
<!-- Node56&#45;&gt;Node40 -->
<g id="edge129" class="edge">
<title>Node56&#45;&gt;Node40</title>
<path fill="none" stroke="#191970" d="M582.5093,-716.4149C627.5394,-699.2875 692.5416,-666.5426 722,-613 732.3315,-594.2218 716.7556,-572.614 702.3299,-558.1108"/>
<polygon fill="#191970" stroke="#191970" points="704.7096,-555.5441 695.0343,-551.2268 699.9055,-560.6354 704.7096,-555.5441"/>
</g>
<!-- Node56&#45;&gt;Node53 -->
<g id="edge131" class="edge">
<title>Node56&#45;&gt;Node53</title>
<path fill="none" stroke="#191970" d="M464.992,-726.9632C350.9212,-718.9997 134.808,-701.3115 107,-680 77.7186,-657.5593 76,-639.8916 76,-603 76,-603 76,-603 76,-541.5 76,-466.5945 169.9059,-434.9691 237.9711,-421.8845"/>
<polygon fill="#191970" stroke="#191970" points="238.6042,-425.3268 247.8117,-420.0856 237.3453,-418.441 238.6042,-425.3268"/>
</g>
<!-- Node56&#45;&gt;Node55 -->
<g id="edge133" class="edge">
<title>Node56&#45;&gt;Node55</title>
<path fill="none" stroke="#191970" d="M464.964,-717.6988C411.6907,-707.2008 338.1046,-692.7 281.2125,-681.4889"/>
<polygon fill="#191970" stroke="#191970" points="281.6414,-678.0062 271.1534,-679.5067 280.288,-684.8741 281.6414,-678.0062"/>
</g>
</g>
</svg>
