<?xml version="1.0" encoding="UTF-8" standalone="no"?>
<!DOCTYPE svg PUBLIC "-//W3C//DTD SVG 1.1//EN"
 "http://www.w3.org/Graphics/SVG/1.1/DTD/svg11.dtd">
<!-- Generated by graphviz version 2.40.1 (20161225.0304)
 -->
<!-- Title: MultipleShootingSolver.h Pages: 1 -->
<svg width="1372pt" height="532pt"
 viewBox="0.00 0.00 1372.08 532.00" xmlns="http://www.w3.org/2000/svg" xmlns:xlink="http://www.w3.org/1999/xlink">
<g id="graph0" class="graph" transform="scale(1 1) rotate(0) translate(4 528)">
<title>MultipleShootingSolver.h</title>
<!-- Node0 -->
<g id="node1" class="node">
<title>Node0</title>
<polygon fill="#bfbfbf" stroke="#000000" points="1042,-504.5 1042,-523.5 1179,-523.5 1179,-504.5 1042,-504.5"/>
<text text-anchor="middle" x="1110.5" y="-511.5" font-family="FreeSans.ttf" font-size="10.00" fill="#000000">MultipleShootingSolver.h</text>
</g>
<!-- Node1 -->
<g id="node2" class="node">
<title>Node1</title>
<g id="a_node2"><a xlink:href="OptimalControlSolver_8h.html" target="_top" xlink:title="iDynTree/OptimalControlSolver.h">
<polygon fill="none" stroke="#000000" points="906.5,-392.5 906.5,-411.5 1082.5,-411.5 1082.5,-392.5 906.5,-392.5"/>
<text text-anchor="middle" x="994.5" y="-399.5" font-family="FreeSans.ttf" font-size="10.00" fill="#000000">iDynTree/OptimalControlSolver.h</text>
</a>
</g>
</g>
<!-- Node0&#45;&gt;Node1 -->
<g id="edge1" class="edge">
<title>Node0&#45;&gt;Node1</title>
<path fill="none" stroke="#191970" d="M1100.6099,-504.4509C1080.8344,-485.3574 1036.2079,-442.2697 1011.5959,-418.5063"/>
<polygon fill="#191970" stroke="#191970" points="1013.9902,-415.9529 1004.3651,-411.5249 1009.128,-420.9888 1013.9902,-415.9529"/>
</g>
<!-- Node2 -->
<g id="node3" class="node">
<title>Node2</title>
<polygon fill="none" stroke="#bfbfbf" points="1092.5,-336.5 1092.5,-355.5 1150.5,-355.5 1150.5,-336.5 1092.5,-336.5"/>
<text text-anchor="middle" x="1121.5" y="-343.5" font-family="FreeSans.ttf" font-size="10.00" fill="#000000">memory</text>
</g>
<!-- Node0&#45;&gt;Node2 -->
<g id="edge64" class="edge">
<title>Node0&#45;&gt;Node2</title>
<path fill="none" stroke="#191970" d="M1111.1229,-504.4862C1112.8618,-477.9293 1117.7963,-402.5651 1120.1796,-366.1655"/>
<polygon fill="#191970" stroke="#191970" points="1123.6956,-366.0352 1120.8565,-355.8279 1116.7105,-365.5778 1123.6956,-366.0352"/>
</g>
<!-- Node4 -->
<g id="node5" class="node">
<title>Node4</title>
<g id="a_node5"><a xlink:href="TimeVaryingObject_8h.html" target="_top" xlink:title="iDynTree/TimeVaryingObject.h">
<polygon fill="none" stroke="#000000" points="633.5,-448.5 633.5,-467.5 797.5,-467.5 797.5,-448.5 633.5,-448.5"/>
<text text-anchor="middle" x="715.5" y="-455.5" font-family="FreeSans.ttf" font-size="10.00" fill="#000000">iDynTree/TimeVaryingObject.h</text>
</a>
</g>
</g>
<!-- Node0&#45;&gt;Node4 -->
<g id="edge4" class="edge">
<title>Node0&#45;&gt;Node4</title>
<path fill="none" stroke="#191970" d="M1043.0459,-504.4369C973.5984,-494.5912 865.5327,-479.2705 792.7099,-468.9462"/>
<polygon fill="#191970" stroke="#191970" points="793.0682,-465.4621 782.6759,-467.5237 792.0856,-472.3928 793.0682,-465.4621"/>
</g>
<!-- Node31 -->
<g id="node32" class="node">
<title>Node31</title>
<g id="a_node32"><a xlink:href="Optimizer_8h.html" target="_top" xlink:title="iDynTree/Optimizer.h">
<polygon fill="none" stroke="#000000" points="1139,-448.5 1139,-467.5 1258,-467.5 1258,-448.5 1139,-448.5"/>
<text text-anchor="middle" x="1198.5" y="-455.5" font-family="FreeSans.ttf" font-size="10.00" fill="#000000">iDynTree/Optimizer.h</text>
</a>
</g>
</g>
<!-- Node0&#45;&gt;Node31 -->
<g id="edge57" class="edge">
<title>Node0&#45;&gt;Node31</title>
<path fill="none" stroke="#191970" d="M1125.8284,-504.2455C1139.3303,-495.6534 1159.2122,-483.0014 1174.7686,-473.1018"/>
<polygon fill="#191970" stroke="#191970" points="1176.7897,-475.9643 1183.3472,-467.6427 1173.0315,-470.0587 1176.7897,-475.9643"/>
</g>
<!-- Node33 -->
<g id="node34" class="node">
<title>Node33</title>
<polygon fill="none" stroke="#bfbfbf" points="1278,-336.5 1278,-355.5 1325,-355.5 1325,-336.5 1278,-336.5"/>
<text text-anchor="middle" x="1301.5" y="-343.5" font-family="FreeSans.ttf" font-size="10.00" fill="#000000">vector</text>
</g>
<!-- Node0&#45;&gt;Node33 -->
<g id="edge63" class="edge">
<title>Node0&#45;&gt;Node33</title>
<path fill="none" stroke="#191970" d="M1153.2253,-504.4759C1185.1608,-496.6279 1229.5012,-484.1696 1266.5,-468 1311.0601,-448.526 1336.4739,-454.2799 1360.5,-412 1371.7447,-392.2121 1350.2378,-373.2326 1330.1076,-360.7475"/>
<polygon fill="#191970" stroke="#191970" points="1331.773,-357.667 1321.372,-355.6499 1328.245,-363.713 1331.773,-357.667"/>
</g>
<!-- Node1&#45;&gt;Node2 -->
<g id="edge2" class="edge">
<title>Node1&#45;&gt;Node2</title>
<path fill="none" stroke="#191970" d="M1016.3321,-392.3733C1036.8103,-383.3435 1067.6399,-369.7494 1090.6319,-359.6111"/>
<polygon fill="#191970" stroke="#191970" points="1092.215,-362.7383 1099.9528,-355.5011 1089.3907,-356.3333 1092.215,-362.7383"/>
</g>
<!-- Node3 -->
<g id="node4" class="node">
<title>Node3</title>
<polygon fill="none" stroke="#bfbfbf" points="993,-.5 993,-19.5 1046,-19.5 1046,-.5 993,-.5"/>
<text text-anchor="middle" x="1019.5" y="-7.5" font-family="FreeSans.ttf" font-size="10.00" fill="#000000">cstddef</text>
</g>
<!-- Node1&#45;&gt;Node3 -->
<g id="edge3" class="edge">
<title>Node1&#45;&gt;Node3</title>
<path fill="none" stroke="#191970" d="M1004.622,-392.2465C1022.4307,-373.984 1057.5,-332.6112 1057.5,-290 1057.5,-290 1057.5,-290 1057.5,-122 1057.5,-87.6118 1041.2366,-50.2832 1029.989,-28.5791"/>
<polygon fill="#191970" stroke="#191970" points="1032.931,-26.6605 1025.107,-19.5166 1026.7683,-29.9804 1032.931,-26.6605"/>
</g>
<!-- Node5 -->
<g id="node6" class="node">
<title>Node5</title>
<g id="a_node6"><a xlink:href="VectorDynSize_8h.html" target="_top" xlink:title="iDynTree/Core/VectorDynSize.h">
<polygon fill="none" stroke="#000000" points="0,-168.5 0,-187.5 167,-187.5 167,-168.5 0,-168.5"/>
<text text-anchor="middle" x="83.5" y="-175.5" font-family="FreeSans.ttf" font-size="10.00" fill="#000000">iDynTree/Core/VectorDynSize.h</text>
</a>
</g>
</g>
<!-- Node4&#45;&gt;Node5 -->
<g id="edge5" class="edge">
<title>Node4&#45;&gt;Node5</title>
<path fill="none" stroke="#191970" d="M633.3925,-450.9724C470.1684,-435.8931 120.5,-397.5709 120.5,-346 120.5,-346 120.5,-346 120.5,-290 120.5,-255.7041 104.6646,-218.3471 93.713,-196.6122"/>
<polygon fill="#191970" stroke="#191970" points="96.6994,-194.7704 88.9595,-187.5354 90.4982,-198.0179 96.6994,-194.7704"/>
</g>
<!-- Node16 -->
<g id="node17" class="node">
<title>Node16</title>
<g id="a_node17"><a xlink:href="MatrixDynSize_8h.html" target="_top" xlink:title="iDynTree/Core/MatrixDynSize.h">
<polygon fill="none" stroke="#000000" points="421,-168.5 421,-187.5 588,-187.5 588,-168.5 421,-168.5"/>
<text text-anchor="middle" x="504.5" y="-175.5" font-family="FreeSans.ttf" font-size="10.00" fill="#000000">iDynTree/Core/MatrixDynSize.h</text>
</a>
</g>
</g>
<!-- Node4&#45;&gt;Node16 -->
<g id="edge17" class="edge">
<title>Node4&#45;&gt;Node16</title>
<path fill="none" stroke="#191970" d="M757.9008,-448.4558C806.197,-434.7844 878.5,-404.5413 878.5,-346 878.5,-346 878.5,-346 878.5,-290 878.5,-250.9495 854.8225,-242.6254 820.5,-224 801.1656,-213.508 684.3412,-198.3443 598.343,-188.3345"/>
<polygon fill="#191970" stroke="#191970" points="598.6169,-184.8429 588.2809,-187.1704 597.8124,-191.7966 598.6169,-184.8429"/>
</g>
<!-- Node20 -->
<g id="node21" class="node">
<title>Node20</title>
<g id="a_node21"><a xlink:href="Transform_8h.html" target="_top" xlink:title="iDynTree/Core/Transform.h">
<polygon fill="none" stroke="#000000" points="478.5,-392.5 478.5,-411.5 624.5,-411.5 624.5,-392.5 478.5,-392.5"/>
<text text-anchor="middle" x="551.5" y="-399.5" font-family="FreeSans.ttf" font-size="10.00" fill="#000000">iDynTree/Core/Transform.h</text>
</a>
</g>
</g>
<!-- Node4&#45;&gt;Node20 -->
<g id="edge26" class="edge">
<title>Node4&#45;&gt;Node20</title>
<path fill="none" stroke="#191970" d="M687.3074,-448.3733C660.1547,-439.1016 618.9093,-425.0178 588.9975,-414.804"/>
<polygon fill="#191970" stroke="#191970" points="589.9192,-411.4204 579.3247,-411.5011 587.6572,-418.0449 589.9192,-411.4204"/>
</g>
<!-- Node6 -->
<g id="node7" class="node">
<title>Node6</title>
<g id="a_node7"><a xlink:href="Span_8h.html" target="_top" xlink:title="iDynTree/Core/Span.h">
<polygon fill="none" stroke="#000000" points="420,-56.5 420,-75.5 541,-75.5 541,-56.5 420,-56.5"/>
<text text-anchor="middle" x="480.5" y="-63.5" font-family="FreeSans.ttf" font-size="10.00" fill="#000000">iDynTree/Core/Span.h</text>
</a>
</g>
</g>
<!-- Node5&#45;&gt;Node6 -->
<g id="edge6" class="edge">
<title>Node5&#45;&gt;Node6</title>
<path fill="none" stroke="#191970" d="M117.348,-168.4509C189.2761,-148.1589 357.2672,-100.7659 437.0053,-78.2706"/>
<polygon fill="#191970" stroke="#191970" points="438.0637,-81.6087 446.7377,-75.5249 436.163,-74.8716 438.0637,-81.6087"/>
</g>
<!-- Node15 -->
<g id="node16" class="node">
<title>Node15</title>
<polygon fill="none" stroke="#bfbfbf" points="328.5,-112.5 328.5,-131.5 372.5,-131.5 372.5,-112.5 328.5,-112.5"/>
<text text-anchor="middle" x="350.5" y="-119.5" font-family="FreeSans.ttf" font-size="10.00" fill="#000000">string</text>
</g>
<!-- Node5&#45;&gt;Node15 -->
<g id="edge16" class="edge">
<title>Node5&#45;&gt;Node15</title>
<path fill="none" stroke="#191970" d="M129.0956,-168.4369C182.9603,-157.1394 271.1946,-138.6333 318.3706,-128.7387"/>
<polygon fill="#191970" stroke="#191970" points="319.2687,-132.1266 328.3372,-126.6484 317.8317,-125.2757 319.2687,-132.1266"/>
</g>
<!-- Node6&#45;&gt;Node3 -->
<g id="edge10" class="edge">
<title>Node6&#45;&gt;Node3</title>
<path fill="none" stroke="#191970" d="M541.3265,-63.5296C635.8663,-58.9888 823.5265,-47.1674 980.5,-20 981.249,-19.8704 982.0048,-19.7337 982.7653,-19.5908"/>
<polygon fill="#191970" stroke="#191970" points="983.7206,-22.9658 992.7676,-17.4519 982.2568,-16.1205 983.7206,-22.9658"/>
</g>
<!-- Node7 -->
<g id="node8" class="node">
<title>Node7</title>
<polygon fill="none" stroke="#bfbfbf" points="689.5,-.5 689.5,-19.5 741.5,-19.5 741.5,-.5 689.5,-.5"/>
<text text-anchor="middle" x="715.5" y="-7.5" font-family="FreeSans.ttf" font-size="10.00" fill="#000000">cassert</text>
</g>
<!-- Node6&#45;&gt;Node7 -->
<g id="edge7" class="edge">
<title>Node6&#45;&gt;Node7</title>
<path fill="none" stroke="#191970" d="M525.1454,-56.4317C563.6412,-48.0242 620.9303,-35.1392 679.3948,-20.1973"/>
<polygon fill="#191970" stroke="#191970" points="680.3544,-23.5645 689.1669,-17.6831 678.6102,-16.7852 680.3544,-23.5645"/>
</g>
<!-- Node8 -->
<g id="node9" class="node">
<title>Node8</title>
<polygon fill="none" stroke="#bfbfbf" points="413.5,-.5 413.5,-19.5 477.5,-19.5 477.5,-.5 413.5,-.5"/>
<text text-anchor="middle" x="445.5" y="-7.5" font-family="FreeSans.ttf" font-size="10.00" fill="#000000">algorithm</text>
</g>
<!-- Node6&#45;&gt;Node8 -->
<g id="edge8" class="edge">
<title>Node6&#45;&gt;Node8</title>
<path fill="none" stroke="#191970" d="M474.4035,-56.2455C469.5855,-48.5367 462.7249,-37.5598 456.8968,-28.2348"/>
<polygon fill="#191970" stroke="#191970" points="459.7947,-26.2677 451.5267,-19.6427 453.8587,-29.9777 459.7947,-26.2677"/>
</g>
<!-- Node9 -->
<g id="node10" class="node">
<title>Node9</title>
<polygon fill="none" stroke="#bfbfbf" points="495.5,-.5 495.5,-19.5 537.5,-19.5 537.5,-.5 495.5,-.5"/>
<text text-anchor="middle" x="516.5" y="-7.5" font-family="FreeSans.ttf" font-size="10.00" fill="#000000">array</text>
</g>
<!-- Node6&#45;&gt;Node9 -->
<g id="edge9" class="edge">
<title>Node6&#45;&gt;Node9</title>
<path fill="none" stroke="#191970" d="M486.7707,-56.2455C491.7264,-48.5367 498.783,-37.5598 504.7776,-28.2348"/>
<polygon fill="#191970" stroke="#191970" points="507.8376,-29.9471 510.3011,-19.6427 501.9494,-26.1618 507.8376,-29.9471"/>
</g>
<!-- Node10 -->
<g id="node11" class="node">
<title>Node10</title>
<polygon fill="none" stroke="#bfbfbf" points="556,-.5 556,-19.5 609,-19.5 609,-.5 556,-.5"/>
<text text-anchor="middle" x="582.5" y="-7.5" font-family="FreeSans.ttf" font-size="10.00" fill="#000000">iterator</text>
</g>
<!-- Node6&#45;&gt;Node10 -->
<g id="edge11" class="edge">
<title>Node6&#45;&gt;Node10</title>
<path fill="none" stroke="#191970" d="M498.267,-56.2455C514.2095,-47.4928 537.8259,-34.527 555.9989,-24.5496"/>
<polygon fill="#191970" stroke="#191970" points="557.8552,-27.5233 564.9366,-19.6427 554.4863,-21.3873 557.8552,-27.5233"/>
</g>
<!-- Node11 -->
<g id="node12" class="node">
<title>Node11</title>
<polygon fill="none" stroke="#bfbfbf" points="627.5,-.5 627.5,-19.5 671.5,-19.5 671.5,-.5 627.5,-.5"/>
<text text-anchor="middle" x="649.5" y="-7.5" font-family="FreeSans.ttf" font-size="10.00" fill="#000000">limits</text>
</g>
<!-- Node6&#45;&gt;Node11 -->
<g id="edge12" class="edge">
<title>Node6&#45;&gt;Node11</title>
<path fill="none" stroke="#191970" d="M509.5521,-56.3733C539.6981,-46.3841 586.7012,-30.8091 617.7938,-20.5062"/>
<polygon fill="#191970" stroke="#191970" points="618.8966,-23.828 627.2881,-17.3601 616.6948,-17.1833 618.8966,-23.828"/>
</g>
<!-- Node12 -->
<g id="node13" class="node">
<title>Node12</title>
<polygon fill="none" stroke="#bfbfbf" points="267,-.5 267,-19.5 332,-19.5 332,-.5 267,-.5"/>
<text text-anchor="middle" x="299.5" y="-7.5" font-family="FreeSans.ttf" font-size="10.00" fill="#000000">stdexcept</text>
</g>
<!-- Node6&#45;&gt;Node12 -->
<g id="edge13" class="edge">
<title>Node6&#45;&gt;Node12</title>
<path fill="none" stroke="#191970" d="M449.385,-56.3733C419.1571,-47.021 373.104,-32.7725 340.0261,-22.5385"/>
<polygon fill="#191970" stroke="#191970" points="340.7967,-19.1133 330.209,-19.5011 338.7277,-25.8005 340.7967,-19.1133"/>
</g>
<!-- Node13 -->
<g id="node14" class="node">
<title>Node13</title>
<polygon fill="none" stroke="#bfbfbf" points="180,-.5 180,-19.5 249,-19.5 249,-.5 180,-.5"/>
<text text-anchor="middle" x="214.5" y="-7.5" font-family="FreeSans.ttf" font-size="10.00" fill="#000000">type_traits</text>
</g>
<!-- Node6&#45;&gt;Node13 -->
<g id="edge14" class="edge">
<title>Node6&#45;&gt;Node13</title>
<path fill="none" stroke="#191970" d="M432.5757,-56.4756C389.5743,-47.8482 324.4767,-34.5881 259.2587,-20.352"/>
<polygon fill="#191970" stroke="#191970" points="259.7342,-16.8733 249.2169,-18.1524 258.2363,-23.7111 259.7342,-16.8733"/>
</g>
<!-- Node14 -->
<g id="node15" class="node">
<title>Node14</title>
<polygon fill="none" stroke="#bfbfbf" points="350,-.5 350,-19.5 395,-19.5 395,-.5 350,-.5"/>
<text text-anchor="middle" x="372.5" y="-7.5" font-family="FreeSans.ttf" font-size="10.00" fill="#000000">utility</text>
</g>
<!-- Node6&#45;&gt;Node14 -->
<g id="edge15" class="edge">
<title>Node6&#45;&gt;Node14</title>
<path fill="none" stroke="#191970" d="M461.6878,-56.2455C444.6527,-47.4125 419.3425,-34.2887 400.0319,-24.2758"/>
<polygon fill="#191970" stroke="#191970" points="401.5853,-21.1388 391.0966,-19.6427 398.363,-27.353 401.5853,-21.1388"/>
</g>
<!-- Node16&#45;&gt;Node15 -->
<g id="edge18" class="edge">
<title>Node16&#45;&gt;Node15</title>
<path fill="none" stroke="#191970" d="M478.0265,-168.3733C451.4095,-158.6944 410.3709,-143.7712 382.0733,-133.4812"/>
<polygon fill="#191970" stroke="#191970" points="383.234,-130.1791 372.64,-130.0509 380.8418,-136.7577 383.234,-130.1791"/>
</g>
<!-- Node17 -->
<g id="node18" class="node">
<title>Node17</title>
<g id="a_node18"><a xlink:href="MatrixView_8h.html" target="_top" xlink:title="iDynTree/Core/MatrixView.h">
<polygon fill="none" stroke="#000000" points="391,-112.5 391,-131.5 542,-131.5 542,-112.5 391,-112.5"/>
<text text-anchor="middle" x="466.5" y="-119.5" font-family="FreeSans.ttf" font-size="10.00" fill="#000000">iDynTree/Core/MatrixView.h</text>
</a>
</g>
</g>
<!-- Node16&#45;&gt;Node17 -->
<g id="edge19" class="edge">
<title>Node16&#45;&gt;Node17</title>
<path fill="none" stroke="#191970" d="M497.8809,-168.2455C492.5954,-160.4564 485.0459,-149.3308 478.6762,-139.9439"/>
<polygon fill="#191970" stroke="#191970" points="481.5545,-137.9522 473.0432,-131.6427 475.7621,-141.8827 481.5545,-137.9522"/>
</g>
<!-- Node17&#45;&gt;Node6 -->
<g id="edge22" class="edge">
<title>Node17&#45;&gt;Node6</title>
<path fill="none" stroke="#191970" d="M468.9386,-112.2455C470.7855,-104.8579 473.3828,-94.4689 475.6478,-85.4087"/>
<polygon fill="#191970" stroke="#191970" points="479.0594,-86.193 478.0893,-75.6427 472.2684,-84.4952 479.0594,-86.193"/>
</g>
<!-- Node17&#45;&gt;Node7 -->
<g id="edge20" class="edge">
<title>Node17&#45;&gt;Node7</title>
<path fill="none" stroke="#191970" d="M487.7296,-112.4509C531.9244,-92.5722 633.941,-46.6852 685.0963,-23.6756"/>
<polygon fill="#191970" stroke="#191970" points="686.64,-26.819 694.3241,-19.5249 683.7685,-20.4351 686.64,-26.819"/>
</g>
<!-- Node17&#45;&gt;Node13 -->
<g id="edge21" class="edge">
<title>Node17&#45;&gt;Node13</title>
<path fill="none" stroke="#191970" d="M445.0146,-112.4509C400.2874,-92.5722 297.0416,-46.6852 245.27,-23.6756"/>
<polygon fill="#191970" stroke="#191970" points="246.4906,-20.388 235.931,-19.5249 243.6476,-26.7847 246.4906,-20.388"/>
</g>
<!-- Node18 -->
<g id="node19" class="node">
<title>Node18</title>
<g id="a_node19"><a xlink:href="Utils_8h.html" target="_top" xlink:title="iDynTree/Core/Utils.h">
<polygon fill="none" stroke="#000000" points="872,-56.5 872,-75.5 991,-75.5 991,-56.5 872,-56.5"/>
<text text-anchor="middle" x="931.5" y="-63.5" font-family="FreeSans.ttf" font-size="10.00" fill="#000000">iDynTree/Core/Utils.h</text>
</a>
</g>
</g>
<!-- Node17&#45;&gt;Node18 -->
<g id="edge23" class="edge">
<title>Node17&#45;&gt;Node18</title>
<path fill="none" stroke="#191970" d="M542.2452,-112.878C630.654,-102.2309 775.6653,-84.7672 861.5209,-74.4276"/>
<polygon fill="#191970" stroke="#191970" points="862.1803,-77.8736 871.6901,-73.2029 861.3433,-70.9238 862.1803,-77.8736"/>
</g>
<!-- Node18&#45;&gt;Node3 -->
<g id="edge24" class="edge">
<title>Node18&#45;&gt;Node3</title>
<path fill="none" stroke="#191970" d="M946.8284,-56.2455C960.3303,-47.6534 980.2122,-35.0014 995.7686,-25.1018"/>
<polygon fill="#191970" stroke="#191970" points="997.7897,-27.9643 1004.3472,-19.6427 994.0315,-22.0587 997.7897,-27.9643"/>
</g>
<!-- Node19 -->
<g id="node20" class="node">
<title>Node19</title>
<polygon fill="none" stroke="#bfbfbf" points="891.5,-.5 891.5,-19.5 971.5,-19.5 971.5,-.5 891.5,-.5"/>
<text text-anchor="middle" x="931.5" y="-7.5" font-family="FreeSans.ttf" font-size="10.00" fill="#000000">CoreExport.h</text>
</g>
<!-- Node18&#45;&gt;Node19 -->
<g id="edge25" class="edge">
<title>Node18&#45;&gt;Node19</title>
<path fill="none" stroke="#191970" d="M931.5,-56.2455C931.5,-48.9382 931.5,-38.6944 931.5,-29.7046"/>
<polygon fill="#191970" stroke="#191970" points="935.0001,-29.6426 931.5,-19.6427 928.0001,-29.6427 935.0001,-29.6426"/>
</g>
<!-- Node20&#45;&gt;Node15 -->
<g id="edge56" class="edge">
<title>Node20&#45;&gt;Node15</title>
<path fill="none" stroke="#191970" d="M478.3943,-394.0421C373.9492,-380.608 194.5,-348.9491 194.5,-290 194.5,-290 194.5,-290 194.5,-234 194.5,-173.4022 273.1343,-142.395 318.746,-129.5064"/>
<polygon fill="#191970" stroke="#191970" points="319.7323,-132.8656 328.4799,-126.8881 317.914,-126.1059 319.7323,-132.8656"/>
</g>
<!-- Node21 -->
<g id="node22" class="node">
<title>Node21</title>
<g id="a_node22"><a xlink:href="Position_8h.html" target="_top" xlink:title="iDynTree/Core/Position.h">
<polygon fill="none" stroke="#000000" points="357.5,-336.5 357.5,-355.5 493.5,-355.5 493.5,-336.5 357.5,-336.5"/>
<text text-anchor="middle" x="425.5" y="-343.5" font-family="FreeSans.ttf" font-size="10.00" fill="#000000">iDynTree/Core/Position.h</text>
</a>
</g>
</g>
<!-- Node20&#45;&gt;Node21 -->
<g id="edge27" class="edge">
<title>Node20&#45;&gt;Node21</title>
<path fill="none" stroke="#191970" d="M529.8398,-392.3733C509.5228,-383.3435 478.936,-369.7494 456.125,-359.6111"/>
<polygon fill="#191970" stroke="#191970" points="457.4372,-356.3642 446.8775,-355.5011 454.5941,-362.7609 457.4372,-356.3642"/>
</g>
<!-- Node26 -->
<g id="node27" class="node">
<title>Node26</title>
<g id="a_node27"><a xlink:href="Rotation_8h.html" target="_top" xlink:title="iDynTree/Core/Rotation.h">
<polygon fill="none" stroke="#000000" points="483,-280.5 483,-299.5 620,-299.5 620,-280.5 483,-280.5"/>
<text text-anchor="middle" x="551.5" y="-287.5" font-family="FreeSans.ttf" font-size="10.00" fill="#000000">iDynTree/Core/Rotation.h</text>
</a>
</g>
</g>
<!-- Node20&#45;&gt;Node26 -->
<g id="edge54" class="edge">
<title>Node20&#45;&gt;Node26</title>
<path fill="none" stroke="#191970" d="M551.5,-392.4509C551.5,-374.184 551.5,-333.9553 551.5,-309.6976"/>
<polygon fill="#191970" stroke="#191970" points="555.0001,-309.5249 551.5,-299.5249 548.0001,-309.5249 555.0001,-309.5249"/>
</g>
<!-- Node29 -->
<g id="node30" class="node">
<title>Node29</title>
<g id="a_node30"><a xlink:href="MatrixFixSize_8h.html" target="_top" xlink:title="iDynTree/Core/MatrixFixSize.h">
<polygon fill="none" stroke="#000000" points="606,-168.5 606,-187.5 767,-187.5 767,-168.5 606,-168.5"/>
<text text-anchor="middle" x="686.5" y="-175.5" font-family="FreeSans.ttf" font-size="10.00" fill="#000000">iDynTree/Core/MatrixFixSize.h</text>
</a>
</g>
</g>
<!-- Node20&#45;&gt;Node29 -->
<g id="edge55" class="edge">
<title>Node20&#45;&gt;Node29</title>
<path fill="none" stroke="#191970" d="M590.1111,-392.4906C651.7702,-374.9853 770.5909,-331.1962 820.5,-244 836.701,-215.6953 804.6456,-199.2723 767.8366,-189.888"/>
<polygon fill="#191970" stroke="#191970" points="768.4227,-186.4302 757.8858,-187.5374 766.8133,-193.2427 768.4227,-186.4302"/>
</g>
<!-- Node21&#45;&gt;Node15 -->
<g id="edge53" class="edge">
<title>Node21&#45;&gt;Node15</title>
<path fill="none" stroke="#191970" d="M389.0643,-336.4565C347.326,-323.3519 280.9189,-295.3466 251.5,-244 227.1234,-201.4541 285.7985,-158.5025 322.9059,-136.6943"/>
<polygon fill="#191970" stroke="#191970" points="324.8568,-139.611 331.8117,-131.6185 321.3906,-133.5294 324.8568,-139.611"/>
</g>
<!-- Node22 -->
<g id="node23" class="node">
<title>Node22</title>
<g id="a_node23"><a xlink:href="PositionRaw_8h.html" target="_top" xlink:title="iDynTree/Core/PositionRaw.h">
<polygon fill="none" stroke="#000000" points="260.5,-224.5 260.5,-243.5 416.5,-243.5 416.5,-224.5 260.5,-224.5"/>
<text text-anchor="middle" x="338.5" y="-231.5" font-family="FreeSans.ttf" font-size="10.00" fill="#000000">iDynTree/Core/PositionRaw.h</text>
</a>
</g>
</g>
<!-- Node21&#45;&gt;Node22 -->
<g id="edge28" class="edge">
<title>Node21&#45;&gt;Node22</title>
<path fill="none" stroke="#191970" d="M418.0824,-336.4509C403.4435,-317.6054 370.6472,-275.3849 352.0486,-251.4419"/>
<polygon fill="#191970" stroke="#191970" points="354.7974,-249.2751 345.8988,-243.5249 349.2693,-253.5693 354.7974,-249.2751"/>
</g>
<!-- Node21&#45;&gt;Node26 -->
<g id="edge38" class="edge">
<title>Node21&#45;&gt;Node26</title>
<path fill="none" stroke="#191970" d="M447.1602,-336.3733C467.4772,-327.3435 498.064,-313.7494 520.875,-303.6111"/>
<polygon fill="#191970" stroke="#191970" points="522.4059,-306.7609 530.1225,-299.5011 519.5628,-300.3642 522.4059,-306.7609"/>
</g>
<!-- Node22&#45;&gt;Node15 -->
<g id="edge37" class="edge">
<title>Node22&#45;&gt;Node15</title>
<path fill="none" stroke="#191970" d="M338.495,-224.1227C338.5921,-211.1851 339.1243,-187.8162 341.5,-168 342.5389,-159.3346 344.2869,-149.8561 345.9676,-141.7668"/>
<polygon fill="#191970" stroke="#191970" points="349.4291,-142.3204 348.1447,-131.8037 342.5905,-140.826 349.4291,-142.3204"/>
</g>
<!-- Node23 -->
<g id="node24" class="node">
<title>Node23</title>
<g id="a_node24"><a xlink:href="VectorFixSize_8h.html" target="_top" xlink:title="iDynTree/Core/VectorFixSize.h">
<polygon fill="none" stroke="#000000" points="785,-168.5 785,-187.5 946,-187.5 946,-168.5 785,-168.5"/>
<text text-anchor="middle" x="865.5" y="-175.5" font-family="FreeSans.ttf" font-size="10.00" fill="#000000">iDynTree/Core/VectorFixSize.h</text>
</a>
</g>
</g>
<!-- Node22&#45;&gt;Node23 -->
<g id="edge29" class="edge">
<title>Node22&#45;&gt;Node23</title>
<path fill="none" stroke="#191970" d="M416.6656,-225.9096C501.8904,-217.0573 642.6075,-202.3501 774.2781,-188.1273"/>
<polygon fill="#191970" stroke="#191970" points="774.9836,-191.5716 784.5494,-187.0168 774.2311,-184.6121 774.9836,-191.5716"/>
</g>
<!-- Node23&#45;&gt;Node3 -->
<g id="edge35" class="edge">
<title>Node23&#45;&gt;Node3</title>
<path fill="none" stroke="#191970" d="M885.921,-168.3433C915.803,-153.1074 970.9793,-120.5753 999.5,-76 1008.5632,-61.8351 1013.7017,-43.3464 1016.4938,-29.5422"/>
<polygon fill="#191970" stroke="#191970" points="1019.9482,-30.1075 1018.2602,-19.648 1013.0572,-28.8772 1019.9482,-30.1075"/>
</g>
<!-- Node23&#45;&gt;Node6 -->
<g id="edge31" class="edge">
<title>Node23&#45;&gt;Node6</title>
<path fill="none" stroke="#191970" d="M865.9502,-168.1948C866.037,-153.5479 863.8274,-126.1655 847.5,-112 825.5775,-92.9803 651.5816,-77.8826 551.2389,-70.6532"/>
<polygon fill="#191970" stroke="#191970" points="551.3937,-67.1554 541.1703,-69.9363 550.8965,-74.1378 551.3937,-67.1554"/>
</g>
<!-- Node23&#45;&gt;Node7 -->
<g id="edge34" class="edge">
<title>Node23&#45;&gt;Node7</title>
<path fill="none" stroke="#191970" d="M868.8489,-168.3658C872.9203,-154.8777 878.1339,-130.0011 868.5,-112 843.8171,-65.8795 788.0495,-37.0114 751.1022,-22.2053"/>
<polygon fill="#191970" stroke="#191970" points="752.2732,-18.9057 741.6836,-18.5706 749.7529,-25.4363 752.2732,-18.9057"/>
</g>
<!-- Node23&#45;&gt;Node15 -->
<g id="edge32" class="edge">
<title>Node23&#45;&gt;Node15</title>
<path fill="none" stroke="#191970" d="M784.5549,-168.9306C781.4983,-168.6121 778.4718,-168.3008 775.5,-168 603.7996,-150.6186 555.5599,-166.5905 382.6369,-131.8344"/>
<polygon fill="#191970" stroke="#191970" points="383.1914,-128.3756 372.6939,-129.8082 381.7936,-135.2346 383.1914,-128.3756"/>
</g>
<!-- Node23&#45;&gt;Node18 -->
<g id="edge30" class="edge">
<title>Node23&#45;&gt;Node18</title>
<path fill="none" stroke="#191970" d="M881.5067,-168.3443C893.5964,-160.188 909.5807,-147.3905 918.5,-132 926.6432,-117.9487 929.7755,-99.6878 930.9379,-85.937"/>
<polygon fill="#191970" stroke="#191970" points="934.45,-85.8195 931.5178,-75.6385 927.461,-85.4258 934.45,-85.8195"/>
</g>
<!-- Node24 -->
<g id="node25" class="node">
<title>Node24</title>
<polygon fill="none" stroke="#bfbfbf" points="782.5,-112.5 782.5,-131.5 838.5,-131.5 838.5,-112.5 782.5,-112.5"/>
<text text-anchor="middle" x="810.5" y="-119.5" font-family="FreeSans.ttf" font-size="10.00" fill="#000000">sstream</text>
</g>
<!-- Node23&#45;&gt;Node24 -->
<g id="edge33" class="edge">
<title>Node23&#45;&gt;Node24</title>
<path fill="none" stroke="#191970" d="M855.9197,-168.2455C847.9542,-160.1352 836.4359,-148.4075 826.9921,-138.7919"/>
<polygon fill="#191970" stroke="#191970" points="829.4747,-136.3247 819.9705,-131.6427 824.4805,-141.2297 829.4747,-136.3247"/>
</g>
<!-- Node25 -->
<g id="node26" class="node">
<title>Node25</title>
<polygon fill="none" stroke="#bfbfbf" points="714.5,-112.5 714.5,-131.5 764.5,-131.5 764.5,-112.5 714.5,-112.5"/>
<text text-anchor="middle" x="739.5" y="-119.5" font-family="FreeSans.ttf" font-size="10.00" fill="#000000">cstring</text>
</g>
<!-- Node23&#45;&gt;Node25 -->
<g id="edge36" class="edge">
<title>Node23&#45;&gt;Node25</title>
<path fill="none" stroke="#191970" d="M843.8398,-168.3733C823.5228,-159.3435 792.936,-145.7494 770.125,-135.6111"/>
<polygon fill="#191970" stroke="#191970" points="771.4372,-132.3642 760.8775,-131.5011 768.5941,-138.7609 771.4372,-132.3642"/>
</g>
<!-- Node26&#45;&gt;Node15 -->
<g id="edge39" class="edge">
<title>Node26&#45;&gt;Node15</title>
<path fill="none" stroke="#191970" d="M531.1324,-280.3715C513.0032,-271.5638 485.9562,-257.8351 463.5,-244 427.1662,-221.615 413.5711,-220.1441 385.5,-188 373.399,-174.1432 363.9627,-155.3798 357.9533,-141.4011"/>
<polygon fill="#191970" stroke="#191970" points="361.0565,-139.7418 354.0384,-131.8047 354.575,-142.3859 361.0565,-139.7418"/>
</g>
<!-- Node26&#45;&gt;Node23 -->
<g id="edge52" class="edge">
<title>Node26&#45;&gt;Node23</title>
<path fill="none" stroke="#191970" d="M620.2925,-284.3674C688.7581,-277.6899 788.1584,-264.7697 820.5,-244 837.7558,-232.9184 850.0913,-212.6172 857.4332,-197.4451"/>
<polygon fill="#191970" stroke="#191970" points="860.8002,-198.4923 861.7173,-187.9372 854.4182,-195.6166 860.8002,-198.4923"/>
</g>
<!-- Node27 -->
<g id="node28" class="node">
<title>Node27</title>
<g id="a_node28"><a xlink:href="GeomVector3_8h.html" target="_top" xlink:title="iDynTree/Core/GeomVector3.h">
<polygon fill="none" stroke="#000000" points="649,-224.5 649,-243.5 812,-243.5 812,-224.5 649,-224.5"/>
<text text-anchor="middle" x="730.5" y="-231.5" font-family="FreeSans.ttf" font-size="10.00" fill="#000000">iDynTree/Core/GeomVector3.h</text>
</a>
</g>
</g>
<!-- Node26&#45;&gt;Node27 -->
<g id="edge40" class="edge">
<title>Node26&#45;&gt;Node27</title>
<path fill="none" stroke="#191970" d="M582.2712,-280.3733C612.165,-271.021 657.7093,-256.7725 690.4217,-246.5385"/>
<polygon fill="#191970" stroke="#191970" points="691.6315,-249.8273 700.1303,-243.5011 689.5414,-243.1466 691.6315,-249.8273"/>
</g>
<!-- Node28 -->
<g id="node29" class="node">
<title>Node28</title>
<g id="a_node29"><a xlink:href="RotationRaw_8h.html" target="_top" xlink:title="iDynTree/Core/RotationRaw.h">
<polygon fill="none" stroke="#000000" points="472.5,-224.5 472.5,-243.5 630.5,-243.5 630.5,-224.5 472.5,-224.5"/>
<text text-anchor="middle" x="551.5" y="-231.5" font-family="FreeSans.ttf" font-size="10.00" fill="#000000">iDynTree/Core/RotationRaw.h</text>
</a>
</g>
</g>
<!-- Node26&#45;&gt;Node28 -->
<g id="edge42" class="edge">
<title>Node26&#45;&gt;Node28</title>
<path fill="none" stroke="#191970" d="M551.5,-280.2455C551.5,-272.9382 551.5,-262.6944 551.5,-253.7046"/>
<polygon fill="#191970" stroke="#191970" points="555.0001,-253.6426 551.5,-243.6427 548.0001,-253.6427 555.0001,-253.6426"/>
</g>
<!-- Node27&#45;&gt;Node23 -->
<g id="edge41" class="edge">
<title>Node27&#45;&gt;Node23</title>
<path fill="none" stroke="#191970" d="M753.7073,-224.3733C775.6699,-215.2629 808.8332,-201.5062 833.3401,-191.3404"/>
<polygon fill="#191970" stroke="#191970" points="834.6997,-194.5657 842.5955,-187.5011 832.0176,-188.0999 834.6997,-194.5657"/>
</g>
<!-- Node28&#45;&gt;Node15 -->
<g id="edge51" class="edge">
<title>Node28&#45;&gt;Node15</title>
<path fill="none" stroke="#191970" d="M502.8206,-224.4415C474.5979,-217.3813 439.2658,-205.8403 411.5,-188 391.7156,-175.288 374.0833,-154.6673 362.9266,-139.8565"/>
<polygon fill="#191970" stroke="#191970" points="365.5677,-137.5373 356.8556,-131.5082 359.9064,-141.6543 365.5677,-137.5373"/>
</g>
<!-- Node28&#45;&gt;Node29 -->
<g id="edge43" class="edge">
<title>Node28&#45;&gt;Node29</title>
<path fill="none" stroke="#191970" d="M574.7073,-224.3733C596.6699,-215.2629 629.8332,-201.5062 654.3401,-191.3404"/>
<polygon fill="#191970" stroke="#191970" points="655.6997,-194.5657 663.5955,-187.5011 653.0176,-188.0999 655.6997,-194.5657"/>
</g>
<!-- Node29&#45;&gt;Node7 -->
<g id="edge46" class="edge">
<title>Node29&#45;&gt;Node7</title>
<path fill="none" stroke="#191970" d="M686.3234,-168.0996C686.235,-155.1372 686.5667,-131.7414 689.5,-112 693.8484,-82.7343 703.0959,-49.6888 709.3065,-29.3499"/>
<polygon fill="#191970" stroke="#191970" points="712.6767,-30.2993 712.3148,-19.7107 705.9945,-28.2139 712.6767,-30.2993"/>
</g>
<!-- Node29&#45;&gt;Node15 -->
<g id="edge48" class="edge">
<title>Node29&#45;&gt;Node15</title>
<path fill="none" stroke="#191970" d="M614.2393,-168.4804C543.0222,-158.8668 438.1052,-144.0282 382.7848,-131.9473"/>
<polygon fill="#191970" stroke="#191970" points="383.2577,-128.4651 372.7291,-129.648 381.6973,-135.289 383.2577,-128.4651"/>
</g>
<!-- Node29&#45;&gt;Node17 -->
<g id="edge45" class="edge">
<title>Node29&#45;&gt;Node17</title>
<path fill="none" stroke="#191970" d="M648.6807,-168.3733C611.3062,-158.8598 554.0276,-144.2797 513.6929,-134.0127"/>
<polygon fill="#191970" stroke="#191970" points="514.3802,-130.5761 503.8258,-131.5011 512.6534,-137.3598 514.3802,-130.5761"/>
</g>
<!-- Node29&#45;&gt;Node18 -->
<g id="edge44" class="edge">
<title>Node29&#45;&gt;Node18</title>
<path fill="none" stroke="#191970" d="M686.3486,-168.3346C686.6799,-153.8703 689.5573,-126.7231 705.5,-112 727.9425,-91.2744 803.9233,-78.9131 861.6462,-72.3083"/>
<polygon fill="#191970" stroke="#191970" points="862.2766,-75.76 871.8305,-71.1804 861.506,-68.8026 862.2766,-75.76"/>
</g>
<!-- Node29&#45;&gt;Node24 -->
<g id="edge50" class="edge">
<title>Node29&#45;&gt;Node24</title>
<path fill="none" stroke="#191970" d="M707.8164,-168.3733C727.7216,-159.3838 757.6436,-145.8706 780.06,-135.7471"/>
<polygon fill="#191970" stroke="#191970" points="781.7887,-138.8068 789.4618,-131.5011 778.9075,-132.4272 781.7887,-138.8068"/>
</g>
<!-- Node29&#45;&gt;Node25 -->
<g id="edge47" class="edge">
<title>Node29&#45;&gt;Node25</title>
<path fill="none" stroke="#191970" d="M695.7319,-168.2455C703.3317,-160.2155 714.2877,-148.6394 723.3368,-139.0781"/>
<polygon fill="#191970" stroke="#191970" points="726.0421,-141.3115 730.3739,-131.6427 720.958,-136.4998 726.0421,-141.3115"/>
</g>
<!-- Node30 -->
<g id="node31" class="node">
<title>Node30</title>
<polygon fill="none" stroke="#bfbfbf" points="560.5,-112.5 560.5,-131.5 620.5,-131.5 620.5,-112.5 560.5,-112.5"/>
<text text-anchor="middle" x="590.5" y="-119.5" font-family="FreeSans.ttf" font-size="10.00" fill="#000000">iostream</text>
</g>
<!-- Node29&#45;&gt;Node30 -->
<g id="edge49" class="edge">
<title>Node29&#45;&gt;Node30</title>
<path fill="none" stroke="#191970" d="M669.7781,-168.2455C654.9111,-159.5731 632.9534,-146.7645 615.9142,-136.825"/>
<polygon fill="#191970" stroke="#191970" points="617.4317,-133.6582 607.0303,-131.6427 613.9045,-139.7047 617.4317,-133.6582"/>
</g>
<!-- Node31&#45;&gt;Node2 -->
<g id="edge58" class="edge">
<title>Node31&#45;&gt;Node2</title>
<path fill="none" stroke="#191970" d="M1191.935,-448.4509C1179.0923,-429.7707 1150.4601,-388.1238 1133.9274,-364.0761"/>
<polygon fill="#191970" stroke="#191970" points="1136.5978,-361.7825 1128.0484,-355.5249 1130.8295,-365.7482 1136.5978,-361.7825"/>
</g>
<!-- Node32 -->
<g id="node33" class="node">
<title>Node32</title>
<g id="a_node33"><a xlink:href="OptimizationProblem_8h.html" target="_top" xlink:title="iDynTree/OptimizationProblem.h">
<polygon fill="none" stroke="#000000" points="1177,-392.5 1177,-411.5 1352,-411.5 1352,-392.5 1177,-392.5"/>
<text text-anchor="middle" x="1264.5" y="-399.5" font-family="FreeSans.ttf" font-size="10.00" fill="#000000">iDynTree/OptimizationProblem.h</text>
</a>
</g>
</g>
<!-- Node31&#45;&gt;Node32 -->
<g id="edge59" class="edge">
<title>Node31&#45;&gt;Node32</title>
<path fill="none" stroke="#191970" d="M1209.9963,-448.2455C1219.7442,-439.9746 1233.9259,-427.9416 1245.3798,-418.2232"/>
<polygon fill="#191970" stroke="#191970" points="1247.7747,-420.7813 1253.1354,-411.6427 1243.2459,-415.4437 1247.7747,-420.7813"/>
</g>
<!-- Node32&#45;&gt;Node2 -->
<g id="edge61" class="edge">
<title>Node32&#45;&gt;Node2</title>
<path fill="none" stroke="#191970" d="M1239.9174,-392.3733C1216.5504,-383.2226 1181.2138,-369.3844 1155.2216,-359.2057"/>
<polygon fill="#191970" stroke="#191970" points="1156.3495,-355.8886 1145.7618,-355.5011 1153.797,-362.4066 1156.3495,-355.8886"/>
</g>
<!-- Node32&#45;&gt;Node3 -->
<g id="edge62" class="edge">
<title>Node32&#45;&gt;Node3</title>
<path fill="none" stroke="#191970" d="M1259.0405,-392.4646C1248.7484,-373.5623 1227.5,-329.7274 1227.5,-290 1227.5,-290 1227.5,-290 1227.5,-122 1227.5,-45.1996 1116.2093,-20.8281 1056.44,-13.2772"/>
<polygon fill="#191970" stroke="#191970" points="1056.6046,-9.7727 1046.2665,-12.0913 1055.794,-16.7257 1056.6046,-9.7727"/>
</g>
<!-- Node32&#45;&gt;Node33 -->
<g id="edge60" class="edge">
<title>Node32&#45;&gt;Node33</title>
<path fill="none" stroke="#191970" d="M1270.9449,-392.2455C1276.0382,-384.5367 1283.2908,-373.5598 1289.452,-364.2348"/>
<polygon fill="#191970" stroke="#191970" points="1292.5365,-365.9155 1295.1289,-355.6427 1286.6962,-362.0566 1292.5365,-365.9155"/>
</g>
</g>
</svg>
