<?xml version="1.0" encoding="UTF-8" standalone="no"?>
<!DOCTYPE svg PUBLIC "-//W3C//DTD SVG 1.1//EN"
 "http://www.w3.org/Graphics/SVG/1.1/DTD/svg11.dtd">
<!-- Generated by graphviz version 2.40.1 (20161225.0304)
 -->
<!-- Title: OptimalControlProblem.cpp Pages: 1 -->
<svg width="2359pt" height="599pt"
 viewBox="0.00 0.00 2359.20 599.00" xmlns="http://www.w3.org/2000/svg" xmlns:xlink="http://www.w3.org/1999/xlink">
<g id="graph0" class="graph" transform="scale(1 1) rotate(0) translate(4 595)">
<title>OptimalControlProblem.cpp</title>
<!-- Node0 -->
<g id="node1" class="node">
<title>Node0</title>
<polygon fill="#bfbfbf" stroke="#000000" points="1169.1956,-571.5 1169.1956,-590.5 1321.1956,-590.5 1321.1956,-571.5 1169.1956,-571.5"/>
<text text-anchor="middle" x="1245.1956" y="-578.5" font-family="FreeSans.ttf" font-size="10.00" fill="#000000">OptimalControlProblem.cpp</text>
</g>
<!-- Node1 -->
<g id="node2" class="node">
<title>Node1</title>
<g id="a_node2"><a xlink:href="OptimalControlProblem_8h.html" target="_top" xlink:title="iDynTree/OptimalControlProblem.h">
<polygon fill="none" stroke="#000000" points="133.1956,-459.5 133.1956,-478.5 319.1956,-478.5 319.1956,-459.5 133.1956,-459.5"/>
<text text-anchor="middle" x="226.1956" y="-466.5" font-family="FreeSans.ttf" font-size="10.00" fill="#000000">iDynTree/OptimalControlProblem.h</text>
</a>
</g>
</g>
<!-- Node0&#45;&gt;Node1 -->
<g id="edge1" class="edge">
<title>Node0&#45;&gt;Node1</title>
<path fill="none" stroke="#191970" d="M1169.0804,-578.5529C1000.3206,-572.7951 599.1072,-557.1841 465.1956,-535 392.1995,-522.9073 309.4802,-497.299 263.0034,-481.7765"/>
<polygon fill="#191970" stroke="#191970" points="263.9703,-478.409 253.3762,-478.5319 261.7346,-485.0424 263.9703,-478.409"/>
</g>
<!-- Node5 -->
<g id="node6" class="node">
<title>Node5</title>
<g id="a_node6"><a xlink:href="Utils_8h.html" target="_top" xlink:title="iDynTree/Core/Utils.h">
<polygon fill="none" stroke="#000000" points="746.6956,-56.5 746.6956,-75.5 865.6956,-75.5 865.6956,-56.5 746.6956,-56.5"/>
<text text-anchor="middle" x="806.1956" y="-63.5" font-family="FreeSans.ttf" font-size="10.00" fill="#000000">iDynTree/Core/Utils.h</text>
</a>
</g>
</g>
<!-- Node0&#45;&gt;Node5 -->
<g id="edge112" class="edge">
<title>Node0&#45;&gt;Node5</title>
<path fill="none" stroke="#191970" d="M1169.0097,-580.2408C927.2689,-577.0071 189.5051,-560.4863 124.1956,-479 95.9771,-443.7921 -179.0397,-638.9813 195.1956,-168 229.5708,-124.7382 253.0837,-127.2434 306.1956,-112 385.0678,-89.3632 618.3425,-75.1432 736.2685,-69.2028"/>
<polygon fill="#191970" stroke="#191970" points="736.4654,-72.6974 746.279,-68.7045 736.1174,-65.7061 736.4654,-72.6974"/>
</g>
<!-- Node11 -->
<g id="node12" class="node">
<title>Node11</title>
<g id="a_node12"><a xlink:href="VectorDynSize_8h.html" target="_top" xlink:title="iDynTree/Core/VectorDynSize.h">
<polygon fill="none" stroke="#000000" points="1115.6956,-336.5 1115.6956,-355.5 1282.6956,-355.5 1282.6956,-336.5 1115.6956,-336.5"/>
<text text-anchor="middle" x="1199.1956" y="-343.5" font-family="FreeSans.ttf" font-size="10.00" fill="#000000">iDynTree/Core/VectorDynSize.h</text>
</a>
</g>
</g>
<!-- Node0&#45;&gt;Node11 -->
<g id="edge110" class="edge">
<title>Node0&#45;&gt;Node11</title>
<path fill="none" stroke="#191970" d="M1321.4399,-575.3164C1378.2035,-569.3133 1448.9008,-557.4742 1467.1956,-535 1472.8072,-528.1064 1470.2907,-523.3326 1467.1956,-515 1442.0675,-447.3503 1422.0265,-430.8264 1361.1956,-392 1335.1819,-375.3963 1303.0786,-364.6643 1274.3301,-357.7848"/>
<polygon fill="#191970" stroke="#191970" points="1274.8439,-354.3123 1264.3168,-355.5087 1273.2923,-361.1382 1274.8439,-354.3123"/>
</g>
<!-- Node13 -->
<g id="node14" class="node">
<title>Node13</title>
<polygon fill="none" stroke="#bfbfbf" points="1963.1956,-.5 1963.1956,-19.5 2015.1956,-19.5 2015.1956,-.5 1963.1956,-.5"/>
<text text-anchor="middle" x="1989.1956" y="-7.5" font-family="FreeSans.ttf" font-size="10.00" fill="#000000">cassert</text>
</g>
<!-- Node0&#45;&gt;Node13 -->
<g id="edge138" class="edge">
<title>Node0&#45;&gt;Node13</title>
<path fill="none" stroke="#191970" d="M1321.2409,-579.8334C1502.9076,-576.5805 1958.0858,-565.5508 2107.1956,-535 2189.8527,-518.0645 2285.1956,-553.3742 2285.1956,-469 2285.1956,-469 2285.1956,-469 2285.1956,-122 2285.1956,-73.1111 2241.6221,-76.4059 2197.1956,-56 2140.4978,-29.9577 2068.1978,-18.2623 2025.4817,-13.3142"/>
<polygon fill="#191970" stroke="#191970" points="2025.6084,-9.8072 2015.2866,-12.1969 2024.8458,-16.7655 2025.6084,-9.8072"/>
</g>
<!-- Node21 -->
<g id="node22" class="node">
<title>Node21</title>
<g id="a_node22"><a xlink:href="MatrixDynSize_8h.html" target="_top" xlink:title="iDynTree/Core/MatrixDynSize.h">
<polygon fill="none" stroke="#000000" points="1300.6956,-336.5 1300.6956,-355.5 1467.6956,-355.5 1467.6956,-336.5 1300.6956,-336.5"/>
<text text-anchor="middle" x="1384.1956" y="-343.5" font-family="FreeSans.ttf" font-size="10.00" fill="#000000">iDynTree/Core/MatrixDynSize.h</text>
</a>
</g>
</g>
<!-- Node0&#45;&gt;Node21 -->
<g id="edge111" class="edge">
<title>Node0&#45;&gt;Node21</title>
<path fill="none" stroke="#191970" d="M1321.3313,-576.5081C1382.7023,-571.109 1461.9969,-559.496 1482.1956,-535 1528.7226,-478.5741 1444.78,-396.4635 1404.2578,-362.0822"/>
<polygon fill="#191970" stroke="#191970" points="1406.4848,-359.382 1396.5578,-355.6799 1402.0094,-364.7645 1406.4848,-359.382"/>
</g>
<!-- Node27 -->
<g id="node28" class="node">
<title>Node27</title>
<polygon fill="none" stroke="#bfbfbf" points="2132.1956,-56.5 2132.1956,-75.5 2188.1956,-75.5 2188.1956,-56.5 2132.1956,-56.5"/>
<text text-anchor="middle" x="2160.1956" y="-63.5" font-family="FreeSans.ttf" font-size="10.00" fill="#000000">sstream</text>
</g>
<!-- Node0&#45;&gt;Node27 -->
<g id="edge139" class="edge">
<title>Node0&#45;&gt;Node27</title>
<path fill="none" stroke="#191970" d="M1321.45,-579.9083C1451.4882,-577.1841 1724.209,-567.7187 1952.1956,-535 2085.1854,-515.9144 2247.1956,-603.3524 2247.1956,-469 2247.1956,-469 2247.1956,-469 2247.1956,-178 2247.1956,-136.4126 2209.3225,-100.9469 2183.5529,-81.6288"/>
<polygon fill="#191970" stroke="#191970" points="2185.5074,-78.7232 2175.3498,-75.711 2181.412,-84.4001 2185.5074,-78.7232"/>
</g>
<!-- Node34 -->
<g id="node34" class="node">
<title>Node34</title>
<g id="a_node34"><a xlink:href="DynamicalSystem_8h.html" target="_top" xlink:title="iDynTree/DynamicalSystem.h">
<polygon fill="none" stroke="#000000" points="767.6956,-398 767.6956,-417 928.6956,-417 928.6956,-398 767.6956,-398"/>
<text text-anchor="middle" x="848.1956" y="-405" font-family="FreeSans.ttf" font-size="10.00" fill="#000000">iDynTree/DynamicalSystem.h</text>
</a>
</g>
</g>
<!-- Node0&#45;&gt;Node34 -->
<g id="edge62" class="edge">
<title>Node0&#45;&gt;Node34</title>
<path fill="none" stroke="#191970" d="M1203.0644,-571.4674C1177.8974,-564.329 1146.2529,-552.6985 1122.1956,-535 1087.751,-509.6599 1099.1298,-482.1792 1063.1956,-459 1049.8751,-450.4077 964.2208,-431.4601 905.1313,-419.0992"/>
<polygon fill="#191970" stroke="#191970" points="905.6655,-415.6354 895.162,-417.0233 904.2385,-422.4884 905.6655,-415.6354"/>
</g>
<!-- Node35 -->
<g id="node35" class="node">
<title>Node35</title>
<g id="a_node35"><a xlink:href="LinearSystem_8h.html" target="_top" xlink:title="iDynTree/LinearSystem.h">
<polygon fill="none" stroke="#000000" points="916.1956,-459.5 916.1956,-478.5 1054.1956,-478.5 1054.1956,-459.5 916.1956,-459.5"/>
<text text-anchor="middle" x="985.1956" y="-466.5" font-family="FreeSans.ttf" font-size="10.00" fill="#000000">iDynTree/LinearSystem.h</text>
</a>
</g>
</g>
<!-- Node0&#45;&gt;Node35 -->
<g id="edge65" class="edge">
<title>Node0&#45;&gt;Node35</title>
<path fill="none" stroke="#191970" d="M1171.1361,-571.4395C1135.4918,-564.7207 1093.039,-553.5019 1058.1956,-535 1035.023,-522.6953 1013.3835,-501.4042 999.776,-486.3353"/>
<polygon fill="#191970" stroke="#191970" points="1002.3074,-483.9135 993.0838,-478.7005 997.0433,-488.5276 1002.3074,-483.9135"/>
</g>
<!-- Node36 -->
<g id="node36" class="node">
<title>Node36</title>
<g id="a_node36"><a xlink:href="ConstraintsGroup_8h.html" target="_top" xlink:title="iDynTree/ConstraintsGroup.h">
<polygon fill="none" stroke="#000000" points="337.1956,-459.5 337.1956,-478.5 493.1956,-478.5 493.1956,-459.5 337.1956,-459.5"/>
<text text-anchor="middle" x="415.1956" y="-466.5" font-family="FreeSans.ttf" font-size="10.00" fill="#000000">iDynTree/ConstraintsGroup.h</text>
</a>
</g>
</g>
<!-- Node0&#45;&gt;Node36 -->
<g id="edge70" class="edge">
<title>Node0&#45;&gt;Node36</title>
<path fill="none" stroke="#191970" d="M1169.0161,-578.6384C992.9771,-572.8398 568.3015,-556.7721 507.1956,-535 477.9156,-524.5676 449.7066,-501.8423 432.4164,-485.9904"/>
<polygon fill="#191970" stroke="#191970" points="434.5226,-483.1654 424.8488,-478.8447 429.7168,-488.255 434.5226,-483.1654"/>
</g>
<!-- Node37 -->
<g id="node37" class="node">
<title>Node37</title>
<g id="a_node37"><a xlink:href="Constraint_8h.html" target="_top" xlink:title="iDynTree/Constraint.h">
<polygon fill="none" stroke="#000000" points="1023.1956,-398 1023.1956,-417 1145.1956,-417 1145.1956,-398 1023.1956,-398"/>
<text text-anchor="middle" x="1084.1956" y="-405" font-family="FreeSans.ttf" font-size="10.00" fill="#000000">iDynTree/Constraint.h</text>
</a>
</g>
</g>
<!-- Node0&#45;&gt;Node37 -->
<g id="edge75" class="edge">
<title>Node0&#45;&gt;Node37</title>
<path fill="none" stroke="#191970" d="M1251.933,-571.3206C1266.502,-549.0876 1297.5743,-493.6256 1271.1956,-459 1266.8971,-453.3577 1187.232,-432.829 1133.2828,-419.4565"/>
<polygon fill="#191970" stroke="#191970" points="1134.0801,-416.0483 1123.5325,-417.0481 1132.4014,-422.8441 1134.0801,-416.0483"/>
</g>
<!-- Node38 -->
<g id="node38" class="node">
<title>Node38</title>
<g id="a_node38"><a xlink:href="LinearConstraint_8h.html" target="_top" xlink:title="iDynTree/LinearConstraint.h">
<polygon fill="none" stroke="#000000" points="1110.1956,-459.5 1110.1956,-478.5 1262.1956,-478.5 1262.1956,-459.5 1110.1956,-459.5"/>
<text text-anchor="middle" x="1186.1956" y="-466.5" font-family="FreeSans.ttf" font-size="10.00" fill="#000000">iDynTree/LinearConstraint.h</text>
</a>
</g>
</g>
<!-- Node0&#45;&gt;Node38 -->
<g id="edge80" class="edge">
<title>Node0&#45;&gt;Node38</title>
<path fill="none" stroke="#191970" d="M1185.8776,-571.4757C1164.6805,-564.9 1142.9139,-553.7855 1130.1956,-535 1117.4997,-516.2478 1139.1569,-496.7022 1159.1215,-483.7955"/>
<polygon fill="#191970" stroke="#191970" points="1161.0438,-486.7227 1167.7567,-478.5259 1157.3974,-480.7475 1161.0438,-486.7227"/>
</g>
<!-- Node39 -->
<g id="node39" class="node">
<title>Node39</title>
<g id="a_node39"><a xlink:href="Cost_8h.html" target="_top" xlink:title="iDynTree/Cost.h">
<polygon fill="none" stroke="#000000" points="503.6956,-398 503.6956,-417 596.6956,-417 596.6956,-398 503.6956,-398"/>
<text text-anchor="middle" x="550.1956" y="-405" font-family="FreeSans.ttf" font-size="10.00" fill="#000000">iDynTree/Cost.h</text>
</a>
</g>
</g>
<!-- Node0&#45;&gt;Node39 -->
<g id="edge87" class="edge">
<title>Node0&#45;&gt;Node39</title>
<path fill="none" stroke="#191970" d="M1169.0076,-575.6608C994.9604,-562.6765 580.0792,-526.9592 540.1956,-479 528.099,-464.4541 533.7429,-442.2053 540.4129,-426.3935"/>
<polygon fill="#191970" stroke="#191970" points="543.7034,-427.6192 544.7681,-417.078 537.3622,-424.6545 543.7034,-427.6192"/>
</g>
<!-- Node40 -->
<g id="node40" class="node">
<title>Node40</title>
<g id="a_node40"><a xlink:href="QuadraticLikeCost_8h.html" target="_top" xlink:title="iDynTree/QuadraticLikeCost.h">
<polygon fill="none" stroke="#000000" points="698.6956,-459.5 698.6956,-478.5 859.6956,-478.5 859.6956,-459.5 698.6956,-459.5"/>
<text text-anchor="middle" x="779.1956" y="-466.5" font-family="FreeSans.ttf" font-size="10.00" fill="#000000">iDynTree/QuadraticLikeCost.h</text>
</a>
</g>
</g>
<!-- Node0&#45;&gt;Node40 -->
<g id="edge90" class="edge">
<title>Node0&#45;&gt;Node40</title>
<path fill="none" stroke="#191970" d="M1195.6523,-571.4649C1150.9478,-562.6655 1083.4579,-548.8952 1025.1956,-535 953.5682,-517.9173 871.0335,-495.1314 822.0908,-481.2906"/>
<polygon fill="#191970" stroke="#191970" points="823.0437,-477.9229 812.4681,-478.5622 821.1341,-484.6574 823.0437,-477.9229"/>
</g>
<!-- Node41 -->
<g id="node41" class="node">
<title>Node41</title>
<g id="a_node41"><a xlink:href="QuadraticCost_8h.html" target="_top" xlink:title="iDynTree/QuadraticCost.h">
<polygon fill="none" stroke="#000000" points="1318.1956,-515.5 1318.1956,-534.5 1458.1956,-534.5 1458.1956,-515.5 1318.1956,-515.5"/>
<text text-anchor="middle" x="1388.1956" y="-522.5" font-family="FreeSans.ttf" font-size="10.00" fill="#000000">iDynTree/QuadraticCost.h</text>
</a>
</g>
</g>
<!-- Node0&#45;&gt;Node41 -->
<g id="edge94" class="edge">
<title>Node0&#45;&gt;Node41</title>
<path fill="none" stroke="#191970" d="M1269.7781,-571.3733C1293.1451,-562.2226 1328.4818,-548.3844 1354.474,-538.2057"/>
<polygon fill="#191970" stroke="#191970" points="1355.8986,-541.4066 1363.9338,-534.5011 1353.346,-534.8886 1355.8986,-541.4066"/>
</g>
<!-- Node42 -->
<g id="node42" class="node">
<title>Node42</title>
<g id="a_node42"><a xlink:href="L2NormCost_8h.html" target="_top" xlink:title="iDynTree/L2NormCost.h">
<polygon fill="none" stroke="#000000" points="549.6956,-459.5 549.6956,-478.5 680.6956,-478.5 680.6956,-459.5 549.6956,-459.5"/>
<text text-anchor="middle" x="615.1956" y="-466.5" font-family="FreeSans.ttf" font-size="10.00" fill="#000000">iDynTree/L2NormCost.h</text>
</a>
</g>
</g>
<!-- Node0&#45;&gt;Node42 -->
<g id="edge100" class="edge">
<title>Node0&#45;&gt;Node42</title>
<path fill="none" stroke="#191970" d="M1177.6649,-571.4797C1116.9719,-562.7167 1025.4576,-548.9923 946.1956,-535 848.5609,-517.7643 735.3952,-494.4811 669.8781,-480.6734"/>
<polygon fill="#191970" stroke="#191970" points="670.2892,-477.1831 659.7817,-478.5411 668.8426,-484.032 670.2892,-477.1831"/>
</g>
<!-- Node43 -->
<g id="node43" class="node">
<title>Node43</title>
<g id="a_node43"><a xlink:href="LinearCost_8h.html" target="_top" xlink:title="iDynTree/LinearCost.h">
<polygon fill="none" stroke="#000000" points="1138.6956,-515.5 1138.6956,-534.5 1261.6956,-534.5 1261.6956,-515.5 1138.6956,-515.5"/>
<text text-anchor="middle" x="1200.1956" y="-522.5" font-family="FreeSans.ttf" font-size="10.00" fill="#000000">iDynTree/LinearCost.h</text>
</a>
</g>
</g>
<!-- Node0&#45;&gt;Node43 -->
<g id="edge106" class="edge">
<title>Node0&#45;&gt;Node43</title>
<path fill="none" stroke="#191970" d="M1237.3571,-571.2455C1231.0335,-563.3761 1221.9732,-552.101 1214.382,-542.6542"/>
<polygon fill="#191970" stroke="#191970" points="1216.9364,-540.2454 1207.9441,-534.6427 1211.4798,-544.6302 1216.9364,-540.2454"/>
</g>
<!-- Node44 -->
<g id="node44" class="node">
<title>Node44</title>
<g id="a_node44"><a xlink:href="TimeRange_8h.html" target="_top" xlink:title="iDynTree/TimeRange.h">
<polygon fill="none" stroke="#000000" points="1815.6956,-515.5 1815.6956,-534.5 1942.6956,-534.5 1942.6956,-515.5 1815.6956,-515.5"/>
<text text-anchor="middle" x="1879.1956" y="-522.5" font-family="FreeSans.ttf" font-size="10.00" fill="#000000">iDynTree/TimeRange.h</text>
</a>
</g>
</g>
<!-- Node0&#45;&gt;Node44 -->
<g id="edge109" class="edge">
<title>Node0&#45;&gt;Node44</title>
<path fill="none" stroke="#191970" d="M1321.2905,-575.7929C1428.4777,-568.2104 1629.9799,-553.0488 1801.1956,-535 1802.4939,-534.8631 1803.804,-534.7225 1805.1234,-534.5787"/>
<polygon fill="#191970" stroke="#191970" points="1805.8288,-538.0213 1815.3722,-533.4198 1805.0422,-531.0656 1805.8288,-538.0213"/>
</g>
<!-- Node45 -->
<g id="node45" class="node">
<title>Node45</title>
<g id="a_node45"><a xlink:href="EigenHelpers_8h.html" target="_top" xlink:title="iDynTree/Core/EigenHelpers.h">
<polygon fill="none" stroke="#000000" points="1597.6956,-459.5 1597.6956,-478.5 1758.6956,-478.5 1758.6956,-459.5 1597.6956,-459.5"/>
<text text-anchor="middle" x="1678.1956" y="-466.5" font-family="FreeSans.ttf" font-size="10.00" fill="#000000">iDynTree/Core/EigenHelpers.h</text>
</a>
</g>
</g>
<!-- Node0&#45;&gt;Node45 -->
<g id="edge113" class="edge">
<title>Node0&#45;&gt;Node45</title>
<path fill="none" stroke="#191970" d="M1321.2021,-577.5289C1385.9267,-572.7808 1480.6417,-561.5493 1559.1956,-535 1595.3528,-522.7797 1633.2664,-499.6985 1656.3199,-484.3312"/>
<polygon fill="#191970" stroke="#191970" points="1658.3654,-487.173 1664.6761,-478.6627 1654.4357,-481.3801 1658.3654,-487.173"/>
</g>
<!-- Node46 -->
<g id="node46" class="node">
<title>Node46</title>
<polygon fill="none" stroke="#bfbfbf" points="2141.6956,-398 2141.6956,-417 2218.6956,-417 2218.6956,-398 2141.6956,-398"/>
<text text-anchor="middle" x="2180.1956" y="-405" font-family="FreeSans.ttf" font-size="10.00" fill="#000000">Eigen/Dense</text>
</g>
<!-- Node0&#45;&gt;Node46 -->
<g id="edge136" class="edge">
<title>Node0&#45;&gt;Node46</title>
<path fill="none" stroke="#191970" d="M1321.2328,-572.713C1392.3005,-564.5641 1501.2542,-551.0375 1595.1956,-535 1833.377,-494.3381 1892.8429,-481.8444 2127.1956,-423 2131.0601,-422.0296 2135.0668,-420.9658 2139.0677,-419.8644"/>
<polygon fill="#191970" stroke="#191970" points="2140.2451,-423.1688 2148.9164,-417.0812 2138.3414,-416.4326 2140.2451,-423.1688"/>
</g>
<!-- Node50 -->
<g id="node50" class="node">
<title>Node50</title>
<polygon fill="none" stroke="#bfbfbf" points="2313.1956,-515.5 2313.1956,-534.5 2351.1956,-534.5 2351.1956,-515.5 2313.1956,-515.5"/>
<text text-anchor="middle" x="2332.1956" y="-522.5" font-family="FreeSans.ttf" font-size="10.00" fill="#000000">map</text>
</g>
<!-- Node0&#45;&gt;Node50 -->
<g id="edge137" class="edge">
<title>Node0&#45;&gt;Node50</title>
<path fill="none" stroke="#191970" d="M1321.5257,-580.1474C1530.8881,-577.4139 2111.0817,-567.0829 2299.1956,-535 2300.4901,-534.7792 2301.8052,-534.5228 2303.1277,-534.2386"/>
<polygon fill="#191970" stroke="#191970" points="2304.3863,-537.5286 2313.1954,-531.6421 2302.6381,-530.7504 2304.3863,-537.5286"/>
</g>
<!-- Node2 -->
<g id="node3" class="node">
<title>Node2</title>
<polygon fill="none" stroke="#bfbfbf" points="653.1956,-398 653.1956,-417 711.1956,-417 711.1956,-398 653.1956,-398"/>
<text text-anchor="middle" x="682.1956" y="-405" font-family="FreeSans.ttf" font-size="10.00" fill="#000000">memory</text>
</g>
<!-- Node1&#45;&gt;Node2 -->
<g id="edge2" class="edge">
<title>Node1&#45;&gt;Node2</title>
<path fill="none" stroke="#191970" d="M319.543,-459.7178C396.4305,-451.5813 508.1838,-438.6271 605.1956,-423 617.6064,-421.0008 631.064,-418.4314 643.2049,-415.9618"/>
<polygon fill="#191970" stroke="#191970" points="643.9589,-419.38 653.0418,-413.9255 642.5399,-412.5254 643.9589,-419.38"/>
</g>
<!-- Node3 -->
<g id="node4" class="node">
<title>Node3</title>
<polygon fill="none" stroke="#bfbfbf" points="337.6956,-280.5 337.6956,-299.5 384.6956,-299.5 384.6956,-280.5 337.6956,-280.5"/>
<text text-anchor="middle" x="361.1956" y="-287.5" font-family="FreeSans.ttf" font-size="10.00" fill="#000000">vector</text>
</g>
<!-- Node1&#45;&gt;Node3 -->
<g id="edge3" class="edge">
<title>Node1&#45;&gt;Node3</title>
<path fill="none" stroke="#191970" d="M233.4509,-459.4973C240.5405,-450.204 251.631,-435.6455 261.1956,-423 292.3737,-381.779 328.8134,-333.2163 347.9334,-307.7055"/>
<polygon fill="#191970" stroke="#191970" points="350.7415,-309.7947 353.9371,-299.6933 345.1396,-305.5972 350.7415,-309.7947"/>
</g>
<!-- Node4 -->
<g id="node5" class="node">
<title>Node4</title>
<polygon fill="none" stroke="#bfbfbf" points="1088.1956,-56.5 1088.1956,-75.5 1132.1956,-75.5 1132.1956,-56.5 1088.1956,-56.5"/>
<text text-anchor="middle" x="1110.1956" y="-63.5" font-family="FreeSans.ttf" font-size="10.00" fill="#000000">string</text>
</g>
<!-- Node1&#45;&gt;Node4 -->
<g id="edge4" class="edge">
<title>Node1&#45;&gt;Node4</title>
<path fill="none" stroke="#191970" d="M228.7868,-459.2019C237.4395,-428.3341 268.2322,-332.075 328.1956,-280 473.4708,-153.8361 541.2029,-161.2844 727.1956,-112 853.8273,-78.4451 1010.5555,-69.3117 1077.4522,-66.8699"/>
<polygon fill="#191970" stroke="#191970" points="1077.8927,-70.3571 1087.7687,-66.5213 1077.6562,-63.3611 1077.8927,-70.3571"/>
</g>
<!-- Node1&#45;&gt;Node5 -->
<g id="edge5" class="edge">
<title>Node1&#45;&gt;Node5</title>
<path fill="none" stroke="#191970" d="M223.9731,-459.4928C219.365,-438.9201 209.1956,-388.6832 209.1956,-346 209.1956,-346 209.1956,-346 209.1956,-178 209.1956,-124.8902 578.8851,-86.0114 736.4309,-71.8542"/>
<polygon fill="#191970" stroke="#191970" points="736.8452,-75.3313 746.4952,-70.9576 736.224,-68.3589 736.8452,-75.3313"/>
</g>
<!-- Node8 -->
<g id="node9" class="node">
<title>Node8</title>
<g id="a_node9"><a xlink:href="SparsityStructure_8h.html" target="_top" xlink:title="iDynTree/SparsityStructure.h">
<polygon fill="none" stroke="#000000" points="478.6956,-336.5 478.6956,-355.5 633.6956,-355.5 633.6956,-336.5 478.6956,-336.5"/>
<text text-anchor="middle" x="556.1956" y="-343.5" font-family="FreeSans.ttf" font-size="10.00" fill="#000000">iDynTree/SparsityStructure.h</text>
</a>
</g>
</g>
<!-- Node1&#45;&gt;Node8 -->
<g id="edge8" class="edge">
<title>Node1&#45;&gt;Node8</title>
<path fill="none" stroke="#191970" d="M251.8155,-459.4507C310.2962,-437.6534 453.7183,-384.1961 520.6786,-359.2381"/>
<polygon fill="#191970" stroke="#191970" points="522.2165,-362.4002 530.3644,-355.628 519.7717,-355.841 522.2165,-362.4002"/>
</g>
<!-- Node10 -->
<g id="node11" class="node">
<title>Node10</title>
<g id="a_node11"><a xlink:href="TimeVaryingObject_8h.html" target="_top" xlink:title="iDynTree/TimeVaryingObject.h">
<polygon fill="none" stroke="#000000" points="1163.1956,-398 1163.1956,-417 1327.1956,-417 1327.1956,-398 1163.1956,-398"/>
<text text-anchor="middle" x="1245.1956" y="-405" font-family="FreeSans.ttf" font-size="10.00" fill="#000000">iDynTree/TimeVaryingObject.h</text>
</a>
</g>
</g>
<!-- Node1&#45;&gt;Node10 -->
<g id="edge14" class="edge">
<title>Node1&#45;&gt;Node10</title>
<path fill="none" stroke="#191970" d="M319.2893,-459.6634C322.2922,-459.4293 325.267,-459.2072 328.1956,-459 694.7387,-433.0637 788.8036,-461.9265 1154.1956,-423 1164.4606,-421.9064 1175.3212,-420.3819 1185.8278,-418.7124"/>
<polygon fill="#191970" stroke="#191970" points="1186.4632,-422.155 1195.7617,-417.0768 1185.3259,-415.248 1186.4632,-422.155"/>
</g>
<!-- Node6 -->
<g id="node7" class="node">
<title>Node6</title>
<polygon fill="none" stroke="#bfbfbf" points="1364.6956,-.5 1364.6956,-19.5 1417.6956,-19.5 1417.6956,-.5 1364.6956,-.5"/>
<text text-anchor="middle" x="1391.1956" y="-7.5" font-family="FreeSans.ttf" font-size="10.00" fill="#000000">cstddef</text>
</g>
<!-- Node5&#45;&gt;Node6 -->
<g id="edge6" class="edge">
<title>Node5&#45;&gt;Node6</title>
<path fill="none" stroke="#191970" d="M865.7795,-60.2962C986.3043,-48.7588 1255.9237,-22.9491 1354.3362,-13.5284"/>
<polygon fill="#191970" stroke="#191970" points="1354.7754,-17.0025 1364.3964,-12.5654 1354.1083,-10.0343 1354.7754,-17.0025"/>
</g>
<!-- Node7 -->
<g id="node8" class="node">
<title>Node7</title>
<polygon fill="none" stroke="#bfbfbf" points="766.1956,-.5 766.1956,-19.5 846.1956,-19.5 846.1956,-.5 766.1956,-.5"/>
<text text-anchor="middle" x="806.1956" y="-7.5" font-family="FreeSans.ttf" font-size="10.00" fill="#000000">CoreExport.h</text>
</g>
<!-- Node5&#45;&gt;Node7 -->
<g id="edge7" class="edge">
<title>Node5&#45;&gt;Node7</title>
<path fill="none" stroke="#191970" d="M806.1956,-56.2455C806.1956,-48.9382 806.1956,-38.6944 806.1956,-29.7046"/>
<polygon fill="#191970" stroke="#191970" points="809.6957,-29.6426 806.1956,-19.6427 802.6957,-29.6427 809.6957,-29.6426"/>
</g>
<!-- Node8&#45;&gt;Node3 -->
<g id="edge10" class="edge">
<title>Node8&#45;&gt;Node3</title>
<path fill="none" stroke="#191970" d="M522.6739,-336.3733C486.8952,-326.0984 430.5373,-309.9135 394.7471,-299.6353"/>
<polygon fill="#191970" stroke="#191970" points="395.3668,-296.1719 384.7891,-296.7756 393.4346,-302.8999 395.3668,-296.1719"/>
</g>
<!-- Node8&#45;&gt;Node4 -->
<g id="edge13" class="edge">
<title>Node8&#45;&gt;Node4</title>
<path fill="none" stroke="#191970" d="M583.7652,-336.4257C621.9255,-321.2096 686.1956,-287.6227 686.1956,-234 686.1956,-234 686.1956,-234 686.1956,-178 686.1956,-97.0111 979.0266,-73.2818 1077.9759,-67.5753"/>
<polygon fill="#191970" stroke="#191970" points="1078.2049,-71.0681 1087.9964,-67.0215 1077.8185,-64.0788 1078.2049,-71.0681"/>
</g>
<!-- Node8&#45;&gt;Node5 -->
<g id="edge9" class="edge">
<title>Node8&#45;&gt;Node5</title>
<path fill="none" stroke="#191970" d="M531.9007,-336.4669C515.6045,-328.8914 494.8781,-316.7712 482.1956,-300 463.7841,-275.6531 463.1956,-264.5246 463.1956,-234 463.1956,-234 463.1956,-234 463.1956,-178 463.1956,-121.0709 636.0977,-88.5223 736.3839,-74.4316"/>
<polygon fill="#191970" stroke="#191970" points="737.0208,-77.877 746.4495,-73.0449 736.0654,-70.9425 737.0208,-77.877"/>
</g>
<!-- Node8&#45;&gt;Node6 -->
<g id="edge11" class="edge">
<title>Node8&#45;&gt;Node6</title>
<path fill="none" stroke="#191970" d="M566.2948,-336.1381C578.241,-323.2173 595.4127,-299.8665 586.1956,-280 540.8193,-182.1967 341.71,-194.4394 411.1956,-112 473.2177,-38.4153 1183.4826,-15.3813 1354.38,-10.886"/>
<polygon fill="#191970" stroke="#191970" points="1354.4877,-14.3845 1364.3941,-10.6278 1354.3071,-7.3868 1354.4877,-14.3845"/>
</g>
<!-- Node9 -->
<g id="node10" class="node">
<title>Node9</title>
<polygon fill="none" stroke="#bfbfbf" points="491.1956,-280.5 491.1956,-299.5 577.1956,-299.5 577.1956,-280.5 491.1956,-280.5"/>
<text text-anchor="middle" x="534.1956" y="-287.5" font-family="FreeSans.ttf" font-size="10.00" fill="#000000">unordered_set</text>
</g>
<!-- Node8&#45;&gt;Node9 -->
<g id="edge12" class="edge">
<title>Node8&#45;&gt;Node9</title>
<path fill="none" stroke="#191970" d="M552.3634,-336.2455C549.4296,-328.7776 545.2909,-318.2427 541.7045,-309.1137"/>
<polygon fill="#191970" stroke="#191970" points="544.898,-307.6704 537.9837,-299.6427 538.3827,-310.23 544.898,-307.6704"/>
</g>
<!-- Node10&#45;&gt;Node11 -->
<g id="edge15" class="edge">
<title>Node10&#45;&gt;Node11</title>
<path fill="none" stroke="#191970" d="M1238.0081,-397.8906C1231.229,-388.8273 1220.8977,-375.0149 1212.5982,-363.9188"/>
<polygon fill="#191970" stroke="#191970" points="1215.2767,-361.6563 1206.4844,-355.7449 1209.6713,-365.849 1215.2767,-361.6563"/>
</g>
<!-- Node10&#45;&gt;Node21 -->
<g id="edge27" class="edge">
<title>Node10&#45;&gt;Node21</title>
<path fill="none" stroke="#191970" d="M1266.9143,-397.8906C1290.0695,-387.6457 1326.9397,-371.3326 1353.1547,-359.7339"/>
<polygon fill="#191970" stroke="#191970" points="1354.9006,-362.7888 1362.6293,-355.5419 1352.0683,-356.3874 1354.9006,-362.7888"/>
</g>
<!-- Node23 -->
<g id="node24" class="node">
<title>Node23</title>
<g id="a_node24"><a xlink:href="Transform_8h.html" target="_top" xlink:title="iDynTree/Core/Transform.h">
<polygon fill="none" stroke="#000000" points="1523.1956,-336.5 1523.1956,-355.5 1669.1956,-355.5 1669.1956,-336.5 1523.1956,-336.5"/>
<text text-anchor="middle" x="1596.1956" y="-343.5" font-family="FreeSans.ttf" font-size="10.00" fill="#000000">iDynTree/Core/Transform.h</text>
</a>
</g>
</g>
<!-- Node10&#45;&gt;Node23 -->
<g id="edge34" class="edge">
<title>Node10&#45;&gt;Node23</title>
<path fill="none" stroke="#191970" d="M1299.6542,-397.9581C1362.3848,-386.9668 1465.3429,-368.9272 1531.9396,-357.2585"/>
<polygon fill="#191970" stroke="#191970" points="1532.6521,-360.6871 1541.898,-355.5137 1531.4439,-353.7921 1532.6521,-360.6871"/>
</g>
<!-- Node11&#45;&gt;Node4 -->
<g id="edge26" class="edge">
<title>Node11&#45;&gt;Node4</title>
<path fill="none" stroke="#191970" d="M1183.6929,-336.3744C1158.1938,-319.2074 1110.1956,-280.6919 1110.1956,-234 1110.1956,-234 1110.1956,-234 1110.1956,-178 1110.1956,-145.7116 1110.1956,-108.1872 1110.1956,-85.8048"/>
<polygon fill="#191970" stroke="#191970" points="1113.6956,-85.5883 1110.1956,-75.5884 1106.6956,-85.5884 1113.6956,-85.5883"/>
</g>
<!-- Node12 -->
<g id="node13" class="node">
<title>Node12</title>
<g id="a_node13"><a xlink:href="Span_8h.html" target="_top" xlink:title="iDynTree/Core/Span.h">
<polygon fill="none" stroke="#000000" points="1622.6956,-56.5 1622.6956,-75.5 1743.6956,-75.5 1743.6956,-56.5 1622.6956,-56.5"/>
<text text-anchor="middle" x="1683.1956" y="-63.5" font-family="FreeSans.ttf" font-size="10.00" fill="#000000">iDynTree/Core/Span.h</text>
</a>
</g>
</g>
<!-- Node11&#45;&gt;Node12 -->
<g id="edge16" class="edge">
<title>Node11&#45;&gt;Node12</title>
<path fill="none" stroke="#191970" d="M1202.9349,-336.132C1214.8815,-305.9713 1255.1398,-214.2561 1319.1956,-168 1367.9152,-132.8185 1533.2083,-95.7736 1623.356,-77.5357"/>
<polygon fill="#191970" stroke="#191970" points="1624.0524,-80.9658 1633.1673,-75.565 1622.6739,-74.1029 1624.0524,-80.9658"/>
</g>
<!-- Node12&#45;&gt;Node6 -->
<g id="edge20" class="edge">
<title>Node12&#45;&gt;Node6</title>
<path fill="none" stroke="#191970" d="M1633.5516,-56.4942C1585.0171,-47.1986 1509.025,-32.6384 1443.1956,-20 1438.3174,-19.0635 1433.1821,-18.0768 1428.1153,-17.1029"/>
<polygon fill="#191970" stroke="#191970" points="1428.397,-13.593 1417.916,-15.1418 1427.0753,-20.4671 1428.397,-13.593"/>
</g>
<!-- Node12&#45;&gt;Node13 -->
<g id="edge17" class="edge">
<title>Node12&#45;&gt;Node13</title>
<path fill="none" stroke="#191970" d="M1743.8458,-57.6596C1796.7535,-49.9407 1875.7248,-37.3543 1952.999,-20.0892"/>
<polygon fill="#191970" stroke="#191970" points="1953.9215,-23.4691 1962.9025,-17.8483 1952.3766,-16.6417 1953.9215,-23.4691"/>
</g>
<!-- Node14 -->
<g id="node15" class="node">
<title>Node14</title>
<polygon fill="none" stroke="#bfbfbf" points="1793.1956,-.5 1793.1956,-19.5 1857.1956,-19.5 1857.1956,-.5 1793.1956,-.5"/>
<text text-anchor="middle" x="1825.1956" y="-7.5" font-family="FreeSans.ttf" font-size="10.00" fill="#000000">algorithm</text>
</g>
<!-- Node12&#45;&gt;Node14 -->
<g id="edge18" class="edge">
<title>Node12&#45;&gt;Node14</title>
<path fill="none" stroke="#191970" d="M1707.6062,-56.3733C1730.8098,-47.2226 1765.8994,-33.3844 1791.7098,-23.2057"/>
<polygon fill="#191970" stroke="#191970" points="1793.0847,-26.4258 1801.1034,-19.5011 1790.5166,-19.9139 1793.0847,-26.4258"/>
</g>
<!-- Node15 -->
<g id="node16" class="node">
<title>Node15</title>
<polygon fill="none" stroke="#bfbfbf" points="1452.1956,-.5 1452.1956,-19.5 1494.1956,-19.5 1494.1956,-.5 1452.1956,-.5"/>
<text text-anchor="middle" x="1473.1956" y="-7.5" font-family="FreeSans.ttf" font-size="10.00" fill="#000000">array</text>
</g>
<!-- Node12&#45;&gt;Node15 -->
<g id="edge19" class="edge">
<title>Node12&#45;&gt;Node15</title>
<path fill="none" stroke="#191970" d="M1643.195,-56.4554C1606.7943,-47.5958 1551.6593,-33.7405 1504.1956,-20 1504.0971,-19.9715 1503.9985,-19.9429 1503.8997,-19.9142"/>
<polygon fill="#191970" stroke="#191970" points="1505.0744,-16.6132 1494.4888,-17.0559 1503.04,-23.311 1505.0744,-16.6132"/>
</g>
<!-- Node16 -->
<g id="node17" class="node">
<title>Node16</title>
<polygon fill="none" stroke="#bfbfbf" points="1512.6956,-.5 1512.6956,-19.5 1565.6956,-19.5 1565.6956,-.5 1512.6956,-.5"/>
<text text-anchor="middle" x="1539.1956" y="-7.5" font-family="FreeSans.ttf" font-size="10.00" fill="#000000">iterator</text>
</g>
<!-- Node12&#45;&gt;Node16 -->
<g id="edge21" class="edge">
<title>Node12&#45;&gt;Node16</title>
<path fill="none" stroke="#191970" d="M1658.4411,-56.3733C1634.9107,-47.2226 1599.3269,-33.3844 1573.1529,-23.2057"/>
<polygon fill="#191970" stroke="#191970" points="1574.2156,-19.8636 1563.627,-19.5011 1571.6785,-26.3877 1574.2156,-19.8636"/>
</g>
<!-- Node17 -->
<g id="node18" class="node">
<title>Node17</title>
<polygon fill="none" stroke="#bfbfbf" points="1584.1956,-.5 1584.1956,-19.5 1628.1956,-19.5 1628.1956,-.5 1584.1956,-.5"/>
<text text-anchor="middle" x="1606.1956" y="-7.5" font-family="FreeSans.ttf" font-size="10.00" fill="#000000">limits</text>
</g>
<!-- Node12&#45;&gt;Node17 -->
<g id="edge22" class="edge">
<title>Node12&#45;&gt;Node17</title>
<path fill="none" stroke="#191970" d="M1669.7832,-56.2455C1658.1898,-47.814 1641.2208,-35.4729 1627.7277,-25.6598"/>
<polygon fill="#191970" stroke="#191970" points="1629.6002,-22.6938 1619.4542,-19.6427 1625.483,-28.355 1629.6002,-22.6938"/>
</g>
<!-- Node18 -->
<g id="node19" class="node">
<title>Node18</title>
<polygon fill="none" stroke="#bfbfbf" points="1646.6956,-.5 1646.6956,-19.5 1711.6956,-19.5 1711.6956,-.5 1646.6956,-.5"/>
<text text-anchor="middle" x="1679.1956" y="-7.5" font-family="FreeSans.ttf" font-size="10.00" fill="#000000">stdexcept</text>
</g>
<!-- Node12&#45;&gt;Node18 -->
<g id="edge23" class="edge">
<title>Node12&#45;&gt;Node18</title>
<path fill="none" stroke="#191970" d="M1682.4988,-56.2455C1681.9769,-48.9382 1681.2451,-38.6944 1680.603,-29.7046"/>
<polygon fill="#191970" stroke="#191970" points="1684.088,-29.3679 1679.8843,-19.6427 1677.1058,-29.8667 1684.088,-29.3679"/>
</g>
<!-- Node19 -->
<g id="node20" class="node">
<title>Node19</title>
<polygon fill="none" stroke="#bfbfbf" points="1875.6956,-.5 1875.6956,-19.5 1944.6956,-19.5 1944.6956,-.5 1875.6956,-.5"/>
<text text-anchor="middle" x="1910.1956" y="-7.5" font-family="FreeSans.ttf" font-size="10.00" fill="#000000">type_traits</text>
</g>
<!-- Node12&#45;&gt;Node19 -->
<g id="edge24" class="edge">
<title>Node12&#45;&gt;Node19</title>
<path fill="none" stroke="#191970" d="M1721.9603,-56.4369C1761.8516,-46.5959 1823.915,-31.2851 1865.7644,-20.961"/>
<polygon fill="#191970" stroke="#191970" points="1866.8095,-24.3082 1875.6801,-18.5148 1865.1328,-17.5119 1866.8095,-24.3082"/>
</g>
<!-- Node20 -->
<g id="node21" class="node">
<title>Node20</title>
<polygon fill="none" stroke="#bfbfbf" points="1729.6956,-.5 1729.6956,-19.5 1774.6956,-19.5 1774.6956,-.5 1729.6956,-.5"/>
<text text-anchor="middle" x="1752.1956" y="-7.5" font-family="FreeSans.ttf" font-size="10.00" fill="#000000">utility</text>
</g>
<!-- Node12&#45;&gt;Node20 -->
<g id="edge25" class="edge">
<title>Node12&#45;&gt;Node20</title>
<path fill="none" stroke="#191970" d="M1695.2144,-56.2455C1705.4054,-47.9746 1720.2318,-35.9416 1732.2062,-26.2232"/>
<polygon fill="#191970" stroke="#191970" points="1734.7554,-28.662 1740.3144,-19.6427 1730.3442,-23.2268 1734.7554,-28.662"/>
</g>
<!-- Node21&#45;&gt;Node4 -->
<g id="edge28" class="edge">
<title>Node21&#45;&gt;Node4</title>
<path fill="none" stroke="#191970" d="M1354.6444,-336.4465C1334.0108,-328.7959 1306.6161,-316.5943 1286.1956,-300 1206.7754,-235.4609 1143.4245,-127.7175 1119.9845,-84.6341"/>
<polygon fill="#191970" stroke="#191970" points="1123.0548,-82.9533 1115.2447,-75.7941 1116.8856,-86.2611 1123.0548,-82.9533"/>
</g>
<!-- Node22 -->
<g id="node23" class="node">
<title>Node22</title>
<g id="a_node23"><a xlink:href="MatrixView_8h.html" target="_top" xlink:title="iDynTree/Core/MatrixView.h">
<polygon fill="none" stroke="#000000" points="1834.6956,-112.5 1834.6956,-131.5 1985.6956,-131.5 1985.6956,-112.5 1834.6956,-112.5"/>
<text text-anchor="middle" x="1910.1956" y="-119.5" font-family="FreeSans.ttf" font-size="10.00" fill="#000000">iDynTree/Core/MatrixView.h</text>
</a>
</g>
</g>
<!-- Node21&#45;&gt;Node22 -->
<g id="edge29" class="edge">
<title>Node21&#45;&gt;Node22</title>
<path fill="none" stroke="#191970" d="M1419.8423,-336.4311C1444.4786,-328.8392 1477.3396,-316.7141 1503.1956,-300 1543.5772,-273.896 1540.1347,-250.5937 1580.1956,-224 1634.314,-188.0744 1653.383,-187.9665 1715.1956,-168 1759.5565,-153.6707 1810.9151,-141.7372 1849.7858,-133.6184"/>
<polygon fill="#191970" stroke="#191970" points="1850.8063,-136.9817 1859.8934,-131.5342 1849.3926,-130.1259 1850.8063,-136.9817"/>
</g>
<!-- Node22&#45;&gt;Node5 -->
<g id="edge33" class="edge">
<title>Node22&#45;&gt;Node5</title>
<path fill="none" stroke="#191970" d="M1834.4416,-115.4309C1818.8255,-114.192 1802.4828,-112.9796 1787.1956,-112 1445.8806,-90.1296 1037.1317,-74.2898 876.1932,-68.458"/>
<polygon fill="#191970" stroke="#191970" points="876.074,-64.9515 865.9542,-68.0884 875.8214,-71.947 876.074,-64.9515"/>
</g>
<!-- Node22&#45;&gt;Node12 -->
<g id="edge32" class="edge">
<title>Node22&#45;&gt;Node12</title>
<path fill="none" stroke="#191970" d="M1871.4308,-112.4369C1832.8263,-102.9133 1773.4572,-88.2672 1731.7384,-77.9753"/>
<polygon fill="#191970" stroke="#191970" points="1732.3477,-74.5208 1721.8004,-75.5237 1730.671,-81.317 1732.3477,-74.5208"/>
</g>
<!-- Node22&#45;&gt;Node13 -->
<g id="edge30" class="edge">
<title>Node22&#45;&gt;Node13</title>
<path fill="none" stroke="#191970" d="M1916.931,-112.4509C1930.1656,-93.688 1959.7435,-51.7548 1976.6698,-27.758"/>
<polygon fill="#191970" stroke="#191970" points="1979.5732,-29.714 1982.4771,-19.5249 1973.853,-25.6792 1979.5732,-29.714"/>
</g>
<!-- Node22&#45;&gt;Node19 -->
<g id="edge31" class="edge">
<title>Node22&#45;&gt;Node19</title>
<path fill="none" stroke="#191970" d="M1910.1956,-112.4509C1910.1956,-94.184 1910.1956,-53.9553 1910.1956,-29.6976"/>
<polygon fill="#191970" stroke="#191970" points="1913.6957,-29.5249 1910.1956,-19.5249 1906.6957,-29.5249 1913.6957,-29.5249"/>
</g>
<!-- Node23&#45;&gt;Node4 -->
<g id="edge61" class="edge">
<title>Node23&#45;&gt;Node4</title>
<path fill="none" stroke="#191970" d="M1523.0965,-337.169C1461.5153,-328.8617 1378.8499,-315.4186 1349.1956,-300 1335.474,-292.8655 1179.0416,-135.5191 1126.9525,-82.938"/>
<polygon fill="#191970" stroke="#191970" points="1129.312,-80.3465 1119.7889,-75.7031 1124.3377,-85.2717 1129.312,-80.3465"/>
</g>
<!-- Node24 -->
<g id="node25" class="node">
<title>Node24</title>
<g id="a_node25"><a xlink:href="Position_8h.html" target="_top" xlink:title="iDynTree/Core/Position.h">
<polygon fill="none" stroke="#000000" points="1358.1956,-280.5 1358.1956,-299.5 1494.1956,-299.5 1494.1956,-280.5 1358.1956,-280.5"/>
<text text-anchor="middle" x="1426.1956" y="-287.5" font-family="FreeSans.ttf" font-size="10.00" fill="#000000">iDynTree/Core/Position.h</text>
</a>
</g>
</g>
<!-- Node23&#45;&gt;Node24 -->
<g id="edge35" class="edge">
<title>Node23&#45;&gt;Node24</title>
<path fill="none" stroke="#191970" d="M1566.9715,-336.3733C1538.7031,-327.0613 1495.699,-312.8953 1464.6612,-302.671"/>
<polygon fill="#191970" stroke="#191970" points="1465.6313,-299.3056 1455.0382,-299.5011 1463.4411,-305.9542 1465.6313,-299.3056"/>
</g>
<!-- Node29 -->
<g id="node30" class="node">
<title>Node29</title>
<g id="a_node30"><a xlink:href="Rotation_8h.html" target="_top" xlink:title="iDynTree/Core/Rotation.h">
<polygon fill="none" stroke="#ff0000" points="1588.6956,-224.5 1588.6956,-243.5 1725.6956,-243.5 1725.6956,-224.5 1588.6956,-224.5"/>
<text text-anchor="middle" x="1657.1956" y="-231.5" font-family="FreeSans.ttf" font-size="10.00" fill="#000000">iDynTree/Core/Rotation.h</text>
</a>
</g>
</g>
<!-- Node23&#45;&gt;Node29 -->
<g id="edge52" class="edge">
<title>Node23&#45;&gt;Node29</title>
<path fill="none" stroke="#191970" d="M1601.3964,-336.4509C1611.5254,-317.8533 1634.0527,-276.4919 1647.1761,-252.3964"/>
<polygon fill="#191970" stroke="#191970" points="1650.2985,-253.9809 1652.0079,-243.5249 1644.1511,-250.6328 1650.2985,-253.9809"/>
</g>
<!-- Node32 -->
<g id="node32" class="node">
<title>Node32</title>
<g id="a_node32"><a xlink:href="MatrixFixSize_8h.html" target="_top" xlink:title="iDynTree/Core/MatrixFixSize.h">
<polygon fill="none" stroke="#000000" points="1981.6956,-168.5 1981.6956,-187.5 2142.6956,-187.5 2142.6956,-168.5 1981.6956,-168.5"/>
<text text-anchor="middle" x="2062.1956" y="-175.5" font-family="FreeSans.ttf" font-size="10.00" fill="#000000">iDynTree/Core/MatrixFixSize.h</text>
</a>
</g>
</g>
<!-- Node23&#45;&gt;Node32 -->
<g id="edge53" class="edge">
<title>Node23&#45;&gt;Node32</title>
<path fill="none" stroke="#191970" d="M1622.5849,-336.4862C1701.5496,-308.0183 1936.0819,-223.4659 2026.2871,-190.9455"/>
<polygon fill="#191970" stroke="#191970" points="2027.5872,-194.1974 2035.8075,-187.5133 2025.2131,-187.6123 2027.5872,-194.1974"/>
</g>
<!-- Node24&#45;&gt;Node4 -->
<g id="edge51" class="edge">
<title>Node24&#45;&gt;Node4</title>
<path fill="none" stroke="#191970" d="M1413.8362,-280.2879C1392.6595,-263.2256 1348.858,-226.0543 1319.1956,-188 1295.3365,-157.3909 1306.7804,-135.8902 1276.1956,-112 1255.3924,-95.7503 1184.3389,-80.0368 1142.2339,-71.8476"/>
<polygon fill="#191970" stroke="#191970" points="1142.6802,-68.3697 1132.2012,-69.932 1141.3673,-75.2455 1142.6802,-68.3697"/>
</g>
<!-- Node25 -->
<g id="node26" class="node">
<title>Node25</title>
<g id="a_node26"><a xlink:href="PositionRaw_8h.html" target="_top" xlink:title="iDynTree/Core/PositionRaw.h">
<polygon fill="none" stroke="#000000" points="1328.1956,-168.5 1328.1956,-187.5 1484.1956,-187.5 1484.1956,-168.5 1328.1956,-168.5"/>
<text text-anchor="middle" x="1406.1956" y="-175.5" font-family="FreeSans.ttf" font-size="10.00" fill="#000000">iDynTree/Core/PositionRaw.h</text>
</a>
</g>
</g>
<!-- Node24&#45;&gt;Node25 -->
<g id="edge36" class="edge">
<title>Node24&#45;&gt;Node25</title>
<path fill="none" stroke="#191970" d="M1424.4904,-280.4509C1421.2136,-262.1013 1413.9796,-221.5908 1409.6544,-197.3693"/>
<polygon fill="#191970" stroke="#191970" points="1413.0999,-196.7539 1407.8964,-187.5249 1406.2089,-197.9845 1413.0999,-196.7539"/>
</g>
<!-- Node24&#45;&gt;Node29 -->
<g id="edge46" class="edge">
<title>Node24&#45;&gt;Node29</title>
<path fill="none" stroke="#191970" d="M1465.6434,-280.4369C1505.0112,-270.8932 1565.599,-256.2052 1608.0664,-245.9101"/>
<polygon fill="#191970" stroke="#191970" points="1609.0165,-249.2812 1617.9104,-243.5237 1607.3673,-242.4783 1609.0165,-249.2812"/>
</g>
<!-- Node25&#45;&gt;Node4 -->
<g id="edge45" class="edge">
<title>Node25&#45;&gt;Node4</title>
<path fill="none" stroke="#191970" d="M1395.7591,-168.3174C1379.5635,-153.8308 1346.8325,-126.6547 1314.1956,-112 1256.7634,-86.2116 1183.5364,-74.2536 1142.2635,-69.2219"/>
<polygon fill="#191970" stroke="#191970" points="1142.5796,-65.7352 1132.2431,-68.0608 1141.7738,-72.6887 1142.5796,-65.7352"/>
</g>
<!-- Node26 -->
<g id="node27" class="node">
<title>Node26</title>
<g id="a_node27"><a xlink:href="VectorFixSize_8h.html" target="_top" xlink:title="iDynTree/Core/VectorFixSize.h">
<polygon fill="none" stroke="#000000" points="1616.6956,-112.5 1616.6956,-131.5 1777.6956,-131.5 1777.6956,-112.5 1616.6956,-112.5"/>
<text text-anchor="middle" x="1697.1956" y="-119.5" font-family="FreeSans.ttf" font-size="10.00" fill="#000000">iDynTree/Core/VectorFixSize.h</text>
</a>
</g>
</g>
<!-- Node25&#45;&gt;Node26 -->
<g id="edge37" class="edge">
<title>Node25&#45;&gt;Node26</title>
<path fill="none" stroke="#191970" d="M1455.8896,-168.4369C1506.2151,-158.7522 1584.0678,-143.7703 1637.6606,-133.4569"/>
<polygon fill="#191970" stroke="#191970" points="1638.5481,-136.8504 1647.7065,-131.5237 1637.2252,-129.9765 1638.5481,-136.8504"/>
</g>
<!-- Node26&#45;&gt;Node4 -->
<g id="edge40" class="edge">
<title>Node26&#45;&gt;Node4</title>
<path fill="none" stroke="#191970" d="M1616.4995,-114.3016C1485.4414,-101.7986 1231.9646,-77.6168 1142.4549,-69.0776"/>
<polygon fill="#191970" stroke="#191970" points="1142.6584,-65.5812 1132.3712,-68.1156 1141.9935,-72.5495 1142.6584,-65.5812"/>
</g>
<!-- Node26&#45;&gt;Node5 -->
<g id="edge38" class="edge">
<title>Node26&#45;&gt;Node5</title>
<path fill="none" stroke="#191970" d="M1616.5538,-116.9316C1443.5409,-106.0576 1039.2334,-80.6466 876.1952,-70.3995"/>
<polygon fill="#191970" stroke="#191970" points="876.01,-66.8811 865.8101,-69.7468 875.5709,-73.8673 876.01,-66.8811"/>
</g>
<!-- Node26&#45;&gt;Node6 -->
<g id="edge43" class="edge">
<title>Node26&#45;&gt;Node6</title>
<path fill="none" stroke="#191970" d="M1680.4701,-112.3278C1655.7294,-98.3409 1607.6156,-72.3563 1564.1956,-56 1518.2695,-38.6997 1463.176,-25.2398 1427.6995,-17.465"/>
<polygon fill="#191970" stroke="#191970" points="1428.3076,-14.0158 1417.7947,-15.3306 1426.833,-20.8587 1428.3076,-14.0158"/>
</g>
<!-- Node26&#45;&gt;Node12 -->
<g id="edge39" class="edge">
<title>Node26&#45;&gt;Node12</title>
<path fill="none" stroke="#191970" d="M1694.7569,-112.2455C1692.91,-104.8579 1690.3128,-94.4689 1688.0477,-85.4087"/>
<polygon fill="#191970" stroke="#191970" points="1691.4272,-84.4952 1685.6062,-75.6427 1684.6362,-86.193 1691.4272,-84.4952"/>
</g>
<!-- Node26&#45;&gt;Node13 -->
<g id="edge42" class="edge">
<title>Node26&#45;&gt;Node13</title>
<path fill="none" stroke="#191970" d="M1711.3549,-112.3831C1732.7633,-98.2279 1775.0365,-71.761 1814.1956,-56 1870.8855,-33.1831 1890.297,-36.4249 1952.8568,-20.2595"/>
<polygon fill="#191970" stroke="#191970" points="1954.075,-23.5575 1962.8432,-17.6104 1952.2801,-16.7915 1954.075,-23.5575"/>
</g>
<!-- Node26&#45;&gt;Node27 -->
<g id="edge41" class="edge">
<title>Node26&#45;&gt;Node27</title>
<path fill="none" stroke="#191970" d="M1775.9994,-112.4686C1876.5891,-100.3023 2046.6072,-79.7385 2122.1073,-70.6068"/>
<polygon fill="#191970" stroke="#191970" points="2122.609,-74.0717 2132.1164,-69.3962 2121.7684,-67.1223 2122.609,-74.0717"/>
</g>
<!-- Node28 -->
<g id="node29" class="node">
<title>Node28</title>
<polygon fill="none" stroke="#bfbfbf" points="1823.1956,-56.5 1823.1956,-75.5 1873.1956,-75.5 1873.1956,-56.5 1823.1956,-56.5"/>
<text text-anchor="middle" x="1848.1956" y="-63.5" font-family="FreeSans.ttf" font-size="10.00" fill="#000000">cstring</text>
</g>
<!-- Node26&#45;&gt;Node28 -->
<g id="edge44" class="edge">
<title>Node26&#45;&gt;Node28</title>
<path fill="none" stroke="#191970" d="M1723.1534,-112.3733C1748.0865,-103.1265 1785.9256,-89.0935 1813.4481,-78.8865"/>
<polygon fill="#191970" stroke="#191970" points="1814.9193,-82.0739 1823.0782,-75.315 1812.4852,-75.5107 1814.9193,-82.0739"/>
</g>
<!-- Node29&#45;&gt;Node4 -->
<g id="edge47" class="edge">
<title>Node29&#45;&gt;Node4</title>
<path fill="none" stroke="#191970" d="M1633.9003,-224.447C1602.1605,-211.4719 1543.5144,-187.6425 1493.1956,-168 1427.6812,-142.4258 1412.8337,-131.2678 1345.1956,-112 1273.9771,-91.7123 1188.0938,-77.3866 1142.4328,-70.5483"/>
<polygon fill="#191970" stroke="#191970" points="1142.9242,-67.083 1132.5207,-69.0873 1141.9034,-74.0081 1142.9242,-67.083"/>
</g>
<!-- Node29&#45;&gt;Node26 -->
<g id="edge50" class="edge">
<title>Node29&#45;&gt;Node26</title>
<path fill="none" stroke="#191970" d="M1660.6059,-224.4509C1667.1889,-206.0186 1681.7579,-165.2254 1690.3945,-141.043"/>
<polygon fill="#191970" stroke="#191970" points="1693.7265,-142.1195 1693.7938,-131.5249 1687.1343,-139.7651 1693.7265,-142.1195"/>
</g>
<!-- Node30 -->
<g id="node31" class="node">
<title>Node30</title>
<g id="a_node31"><a xlink:href="GeomVector3_8h.html" target="_top" xlink:title="iDynTree/Core/GeomVector3.h">
<polygon fill="none" stroke="#000000" points="1723.6956,-168.5 1723.6956,-187.5 1886.6956,-187.5 1886.6956,-168.5 1723.6956,-168.5"/>
<text text-anchor="middle" x="1805.1956" y="-175.5" font-family="FreeSans.ttf" font-size="10.00" fill="#000000">iDynTree/Core/GeomVector3.h</text>
</a>
</g>
</g>
<!-- Node29&#45;&gt;Node30 -->
<g id="edge48" class="edge">
<title>Node29&#45;&gt;Node30</title>
<path fill="none" stroke="#191970" d="M1682.6377,-224.3733C1706.9282,-215.1822 1743.7164,-201.2624 1770.6499,-191.0713"/>
<polygon fill="#191970" stroke="#191970" points="1771.9712,-194.3136 1780.0854,-187.5011 1769.4939,-187.7666 1771.9712,-194.3136"/>
</g>
<!-- Node30&#45;&gt;Node26 -->
<g id="edge49" class="edge">
<title>Node30&#45;&gt;Node26</title>
<path fill="none" stroke="#191970" d="M1786.3834,-168.2455C1769.3483,-159.4125 1744.038,-146.2887 1724.7274,-136.2758"/>
<polygon fill="#191970" stroke="#191970" points="1726.2808,-133.1388 1715.7921,-131.6427 1723.0586,-139.353 1726.2808,-133.1388"/>
</g>
<!-- Node32&#45;&gt;Node4 -->
<g id="edge58" class="edge">
<title>Node32&#45;&gt;Node4</title>
<path fill="none" stroke="#191970" d="M1984.4992,-168.4779C1937.7655,-161.377 1877.5762,-149.7817 1826.1956,-132 1807.7871,-125.6292 1805.9651,-117.2117 1787.1956,-112 1663.4991,-77.6532 1259.7316,-68.448 1142.4261,-66.4703"/>
<polygon fill="#191970" stroke="#191970" points="1142.3502,-62.9687 1132.2946,-66.3057 1142.2364,-69.9678 1142.3502,-62.9687"/>
</g>
<!-- Node32&#45;&gt;Node5 -->
<g id="edge54" class="edge">
<title>Node32&#45;&gt;Node5</title>
<path fill="none" stroke="#191970" d="M1981.2357,-170.7806C1750.5114,-150.2065 1092.3585,-91.5177 876.0403,-72.2282"/>
<polygon fill="#191970" stroke="#191970" points="876.043,-68.7146 865.7716,-71.3125 875.4212,-75.687 876.043,-68.7146"/>
</g>
<!-- Node32&#45;&gt;Node13 -->
<g id="edge56" class="edge">
<title>Node32&#45;&gt;Node13</title>
<path fill="none" stroke="#191970" d="M2058.0616,-168.4862C2046.4221,-141.6994 2013.2058,-65.2565 1997.551,-29.2289"/>
<polygon fill="#191970" stroke="#191970" points="2000.6614,-27.6046 1993.466,-19.8279 1994.2413,-30.3943 2000.6614,-27.6046"/>
</g>
<!-- Node32&#45;&gt;Node22 -->
<g id="edge55" class="edge">
<title>Node32&#45;&gt;Node22</title>
<path fill="none" stroke="#191970" d="M2036.0658,-168.3733C2011.1188,-159.1822 1973.3363,-145.2624 1945.6749,-135.0713"/>
<polygon fill="#191970" stroke="#191970" points="1946.5777,-131.674 1935.9843,-131.5011 1944.1578,-138.2424 1946.5777,-131.674"/>
</g>
<!-- Node32&#45;&gt;Node27 -->
<g id="edge60" class="edge">
<title>Node32&#45;&gt;Node27</title>
<path fill="none" stroke="#191970" d="M2068.8631,-168.2281C2078.0472,-155.0048 2095.3707,-130.8952 2112.1956,-112 2121.3379,-101.7326 2132.3639,-91.0615 2141.5415,-82.585"/>
<polygon fill="#191970" stroke="#191970" points="2143.9951,-85.0845 2149.0371,-75.7662 2139.2847,-79.9065 2143.9951,-85.0845"/>
</g>
<!-- Node32&#45;&gt;Node28 -->
<g id="edge57" class="edge">
<title>Node32&#45;&gt;Node28</title>
<path fill="none" stroke="#191970" d="M2055.024,-168.4774C2043.7897,-154.1998 2020.6749,-127.293 1995.1956,-112 1960.0733,-90.9192 1914.35,-78.5964 1883.288,-72.0986"/>
<polygon fill="#191970" stroke="#191970" points="1883.8444,-68.6406 1873.3525,-70.114 1882.4732,-75.505 1883.8444,-68.6406"/>
</g>
<!-- Node33 -->
<g id="node33" class="node">
<title>Node33</title>
<polygon fill="none" stroke="#bfbfbf" points="2121.1956,-112.5 2121.1956,-131.5 2181.1956,-131.5 2181.1956,-112.5 2121.1956,-112.5"/>
<text text-anchor="middle" x="2151.1956" y="-119.5" font-family="FreeSans.ttf" font-size="10.00" fill="#000000">iostream</text>
</g>
<!-- Node32&#45;&gt;Node33 -->
<g id="edge59" class="edge">
<title>Node32&#45;&gt;Node33</title>
<path fill="none" stroke="#191970" d="M2077.6982,-168.2455C2091.3535,-159.6534 2111.4613,-147.0014 2127.1945,-137.1018"/>
<polygon fill="#191970" stroke="#191970" points="2129.2706,-139.9307 2135.8706,-131.6427 2125.5427,-134.006 2129.2706,-139.9307"/>
</g>
<!-- Node34&#45;&gt;Node8 -->
<g id="edge64" class="edge">
<title>Node34&#45;&gt;Node8</title>
<path fill="none" stroke="#191970" d="M802.8909,-397.9581C751.316,-387.0956 667.0547,-369.3488 611.6096,-357.6711"/>
<polygon fill="#191970" stroke="#191970" points="612.1131,-354.2004 601.6065,-355.5643 610.6704,-361.0502 612.1131,-354.2004"/>
</g>
<!-- Node34&#45;&gt;Node11 -->
<g id="edge63" class="edge">
<title>Node34&#45;&gt;Node11</title>
<path fill="none" stroke="#191970" d="M902.6542,-397.9581C965.3848,-386.9668 1068.3429,-368.9272 1134.9396,-357.2585"/>
<polygon fill="#191970" stroke="#191970" points="1135.6521,-360.6871 1144.898,-355.5137 1134.4439,-353.7921 1135.6521,-360.6871"/>
</g>
<!-- Node35&#45;&gt;Node2 -->
<g id="edge69" class="edge">
<title>Node35&#45;&gt;Node2</title>
<path fill="none" stroke="#191970" d="M916.0683,-460.0541C863.2702,-452.4333 788.9773,-440.0041 725.1956,-423 722.2243,-422.2079 719.1674,-421.3004 716.1187,-420.3307"/>
<polygon fill="#191970" stroke="#191970" points="717.1187,-416.9742 706.5244,-417.0862 714.8762,-423.6053 717.1187,-416.9742"/>
</g>
<!-- Node35&#45;&gt;Node8 -->
<g id="edge68" class="edge">
<title>Node35&#45;&gt;Node8</title>
<path fill="none" stroke="#191970" d="M920.775,-459.4826C864.1366,-450.4747 786.4533,-436.3763 758.1956,-423 738.4953,-413.6746 739.5397,-402.0432 720.1956,-392 689.2909,-375.9548 652.1176,-364.9377 620.9815,-357.718"/>
<polygon fill="#191970" stroke="#191970" points="621.6233,-354.2751 611.1002,-355.5058 620.0939,-361.106 621.6233,-354.2751"/>
</g>
<!-- Node35&#45;&gt;Node10 -->
<g id="edge67" class="edge">
<title>Node35&#45;&gt;Node10</title>
<path fill="none" stroke="#191970" d="M1025.5353,-459.4581C1071.1724,-448.6632 1145.5525,-431.0694 1194.9295,-419.3899"/>
<polygon fill="#191970" stroke="#191970" points="1195.8354,-422.7722 1204.7612,-417.0643 1194.224,-415.9602 1195.8354,-422.7722"/>
</g>
<!-- Node35&#45;&gt;Node34 -->
<g id="edge66" class="edge">
<title>Node35&#45;&gt;Node34</title>
<path fill="none" stroke="#191970" d="M963.7893,-459.3906C940.9672,-449.1457 904.6276,-432.8326 878.7898,-421.2339"/>
<polygon fill="#191970" stroke="#191970" points="880.0078,-417.9443 869.4515,-417.0419 877.1411,-424.3303 880.0078,-417.9443"/>
</g>
<!-- Node36&#45;&gt;Node2 -->
<g id="edge71" class="edge">
<title>Node36&#45;&gt;Node2</title>
<path fill="none" stroke="#191970" d="M456.6213,-459.4581C507.5982,-447.7162 593.4974,-427.9305 643.29,-416.4614"/>
<polygon fill="#191970" stroke="#191970" points="644.0846,-419.8701 653.0438,-414.2147 642.5134,-413.0487 644.0846,-419.8701"/>
</g>
<!-- Node36&#45;&gt;Node3 -->
<g id="edge73" class="edge">
<title>Node36&#45;&gt;Node3</title>
<path fill="none" stroke="#191970" d="M412.2923,-459.3762C403.7585,-431.0883 378.632,-347.7987 367.1014,-309.5767"/>
<polygon fill="#191970" stroke="#191970" points="370.3523,-308.2343 364.1132,-299.6714 363.6506,-310.2561 370.3523,-308.2343"/>
</g>
<!-- Node36&#45;&gt;Node4 -->
<g id="edge72" class="edge">
<title>Node36&#45;&gt;Node4</title>
<path fill="none" stroke="#191970" d="M424.8848,-459.2871C445.0581,-439.1021 490.0484,-394.2958 494.1956,-392 553.4217,-359.2131 583.9318,-390.4681 642.1956,-356 769.4156,-280.7381 738.1728,-182.3091 868.1956,-112 904.0525,-92.6105 1020.7025,-76.5901 1077.934,-69.6731"/>
<polygon fill="#191970" stroke="#191970" points="1078.3792,-73.145 1087.896,-68.4888 1077.5527,-66.1939 1078.3792,-73.145"/>
</g>
<!-- Node36&#45;&gt;Node8 -->
<g id="edge74" class="edge">
<title>Node36&#45;&gt;Node8</title>
<path fill="none" stroke="#191970" d="M418.8421,-459.2654C425.2327,-443.347 439.8383,-411.5643 461.1956,-392 476.8873,-377.6256 497.8916,-366.8266 516.1596,-359.3172"/>
<polygon fill="#191970" stroke="#191970" points="517.66,-362.4886 525.6972,-355.5855 515.1094,-355.9698 517.66,-362.4886"/>
</g>
<!-- Node37&#45;&gt;Node4 -->
<g id="edge77" class="edge">
<title>Node37&#45;&gt;Node4</title>
<path fill="none" stroke="#191970" d="M1077.535,-397.7819C1071.1359,-387.8093 1061.9076,-371.5894 1058.1956,-356 1034.0721,-254.6899 1081.212,-131.0932 1101.5199,-84.7417"/>
<polygon fill="#191970" stroke="#191970" points="1104.7241,-86.15 1105.6247,-75.5935 1098.3376,-83.2843 1104.7241,-86.15"/>
</g>
<!-- Node37&#45;&gt;Node6 -->
<g id="edge76" class="edge">
<title>Node37&#45;&gt;Node6</title>
<path fill="none" stroke="#191970" d="M1086.0224,-397.7409C1088.9736,-383.4843 1095.6568,-356.4392 1107.1956,-336 1183.5729,-200.7092 1322.0928,-71.0849 1372.3436,-26.4015"/>
<polygon fill="#191970" stroke="#191970" points="1374.7074,-28.9835 1379.8893,-19.7423 1370.0756,-23.735 1374.7074,-28.9835"/>
</g>
<!-- Node37&#45;&gt;Node8 -->
<g id="edge79" class="edge">
<title>Node37&#45;&gt;Node8</title>
<path fill="none" stroke="#191970" d="M1022.9487,-398.8041C1006.1808,-396.5038 987.9974,-394.0832 971.1956,-392 858.3426,-378.008 727.964,-363.8909 643.9156,-355.0561"/>
<polygon fill="#191970" stroke="#191970" points="644.2104,-351.5679 633.8997,-354.0052 643.4799,-358.5297 644.2104,-351.5679"/>
</g>
<!-- Node37&#45;&gt;Node11 -->
<g id="edge78" class="edge">
<title>Node37&#45;&gt;Node11</title>
<path fill="none" stroke="#191970" d="M1102.1643,-397.8906C1120.9839,-387.8262 1150.7541,-371.9057 1172.3596,-360.3514"/>
<polygon fill="#191970" stroke="#191970" points="1174.1853,-363.3442 1181.353,-355.5419 1170.8842,-357.1714 1174.1853,-363.3442"/>
</g>
<!-- Node38&#45;&gt;Node2 -->
<g id="edge86" class="edge">
<title>Node38&#45;&gt;Node2</title>
<path fill="none" stroke="#191970" d="M1110.1466,-463.003C1024.3512,-455.7327 880.7825,-442.045 758.1956,-423 746.1543,-421.1293 733.1295,-418.6443 721.3211,-416.2132"/>
<polygon fill="#191970" stroke="#191970" points="721.8188,-412.7414 711.3124,-414.1073 720.3775,-419.5914 721.8188,-412.7414"/>
</g>
<!-- Node38&#45;&gt;Node4 -->
<g id="edge85" class="edge">
<title>Node38&#45;&gt;Node4</title>
<path fill="none" stroke="#191970" d="M1118.5315,-459.4731C1076.1499,-451.9632 1027.1834,-439.9178 1014.1956,-423 930.91,-314.5133 1052.8023,-139.2659 1095.9945,-83.5768"/>
<polygon fill="#191970" stroke="#191970" points="1098.7661,-85.7145 1102.2074,-75.6941 1093.2684,-81.3813 1098.7661,-85.7145"/>
</g>
<!-- Node38&#45;&gt;Node8 -->
<g id="edge84" class="edge">
<title>Node38&#45;&gt;Node8</title>
<path fill="none" stroke="#191970" d="M1110.3384,-459.4721C1070.6366,-452.6496 1021.9453,-441.3291 981.1956,-423 959.7093,-413.3355 960.1418,-400.5687 938.1956,-392 886.3392,-371.7532 740.0759,-358.3713 644.3211,-351.4978"/>
<polygon fill="#191970" stroke="#191970" points="644.2841,-347.9866 634.0621,-350.7724 643.7903,-354.9691 644.2841,-347.9866"/>
</g>
<!-- Node38&#45;&gt;Node10 -->
<g id="edge83" class="edge">
<title>Node38&#45;&gt;Node10</title>
<path fill="none" stroke="#191970" d="M1195.4143,-459.3906C1204.2814,-450.1478 1217.8867,-435.966 1228.6345,-424.7628"/>
<polygon fill="#191970" stroke="#191970" points="1231.4496,-426.8841 1235.8468,-417.2449 1226.3982,-422.0381 1231.4496,-426.8841"/>
</g>
<!-- Node38&#45;&gt;Node21 -->
<g id="edge82" class="edge">
<title>Node38&#45;&gt;Node21</title>
<path fill="none" stroke="#191970" d="M1251.8524,-459.4493C1279.9928,-452.8233 1311.9024,-441.6781 1336.1956,-423 1355.6382,-408.0513 1369.1855,-382.8063 1376.8171,-365.3172"/>
<polygon fill="#191970" stroke="#191970" points="1380.2494,-366.1718 1380.8042,-355.5915 1373.7725,-363.5165 1380.2494,-366.1718"/>
</g>
<!-- Node38&#45;&gt;Node37 -->
<g id="edge81" class="edge">
<title>Node38&#45;&gt;Node37</title>
<path fill="none" stroke="#191970" d="M1170.2581,-459.3906C1153.7904,-449.4616 1127.8697,-433.833 1108.7752,-422.3201"/>
<polygon fill="#191970" stroke="#191970" points="1110.3922,-419.2081 1100.0211,-417.0419 1106.7777,-425.2027 1110.3922,-419.2081"/>
</g>
<!-- Node39&#45;&gt;Node4 -->
<g id="edge88" class="edge">
<title>Node39&#45;&gt;Node4</title>
<path fill="none" stroke="#191970" d="M586.5104,-397.9486C628.582,-386.608 695.0825,-367.7545 718.1956,-356 761.7728,-333.8381 806.1956,-338.8889 806.1956,-290 806.1956,-290 806.1956,-290 806.1956,-234 806.1956,-111.0411 999.0667,-77.374 1077.5574,-68.7639"/>
<polygon fill="#191970" stroke="#191970" points="1078.2512,-72.2112 1087.8417,-67.7086 1077.5366,-65.2477 1078.2512,-72.2112"/>
</g>
<!-- Node39&#45;&gt;Node8 -->
<g id="edge89" class="edge">
<title>Node39&#45;&gt;Node8</title>
<path fill="none" stroke="#191970" d="M551.1331,-397.8906C551.9648,-389.3657 553.2064,-376.6392 554.2518,-365.9235"/>
<polygon fill="#191970" stroke="#191970" points="557.7572,-366.0375 555.2448,-355.7449 550.7903,-365.3577 557.7572,-366.0375"/>
</g>
<!-- Node40&#45;&gt;Node2 -->
<g id="edge93" class="edge">
<title>Node40&#45;&gt;Node2</title>
<path fill="none" stroke="#191970" d="M764.0393,-459.3906C748.5213,-449.5519 724.1763,-434.1167 706.0671,-422.6351"/>
<polygon fill="#191970" stroke="#191970" points="707.5651,-419.4407 697.2454,-417.0419 703.8168,-425.3526 707.5651,-419.4407"/>
</g>
<!-- Node40&#45;&gt;Node10 -->
<g id="edge92" class="edge">
<title>Node40&#45;&gt;Node10</title>
<path fill="none" stroke="#191970" d="M859.8075,-460.2123C935.8467,-451.6627 1052.9513,-437.8239 1154.1956,-423 1163.1622,-421.6871 1172.6076,-420.198 1181.8828,-418.6745"/>
<polygon fill="#191970" stroke="#191970" points="1182.5606,-422.1099 1191.8498,-417.0146 1181.4106,-415.205 1182.5606,-422.1099"/>
</g>
<!-- Node40&#45;&gt;Node39 -->
<g id="edge91" class="edge">
<title>Node40&#45;&gt;Node39</title>
<path fill="none" stroke="#191970" d="M743.4143,-459.3906C703.5019,-448.6718 638.8559,-431.3105 595.4583,-419.6557"/>
<polygon fill="#191970" stroke="#191970" points="596.2911,-416.2554 585.7255,-417.0419 594.4755,-423.0159 596.2911,-416.2554"/>
</g>
<!-- Node41&#45;&gt;Node2 -->
<g id="edge99" class="edge">
<title>Node41&#45;&gt;Node2</title>
<path fill="none" stroke="#191970" d="M1318.1709,-519.0028C1189.4616,-507.8817 926.5943,-484.6749 907.1956,-479 888.4995,-473.5307 886.4727,-465.7381 868.1956,-459 803.0567,-434.9857 781.8707,-445.5061 716.1956,-423 714.3545,-422.3691 712.478,-421.6732 710.5997,-420.9362"/>
<polygon fill="#191970" stroke="#191970" points="711.9216,-417.6951 701.3483,-417.0194 709.1924,-424.1412 711.9216,-417.6951"/>
</g>
<!-- Node41&#45;&gt;Node10 -->
<g id="edge96" class="edge">
<title>Node41&#45;&gt;Node10</title>
<path fill="none" stroke="#191970" d="M1376.4933,-515.3845C1351.9826,-495.2446 1295.0265,-448.445 1264.8206,-423.6255"/>
<polygon fill="#191970" stroke="#191970" points="1267.0079,-420.8927 1257.0595,-417.2484 1262.5639,-426.3012 1267.0079,-420.8927"/>
</g>
<!-- Node41&#45;&gt;Node11 -->
<g id="edge97" class="edge">
<title>Node41&#45;&gt;Node11</title>
<path fill="none" stroke="#191970" d="M1387.2085,-515.441C1384.2046,-491.2521 1372.9993,-427.0514 1336.1956,-392 1319.024,-375.6461 1295.858,-365.0977 1273.4644,-358.2972"/>
<polygon fill="#191970" stroke="#191970" points="1274.1699,-354.8598 1263.5955,-355.5177 1272.2722,-361.5977 1274.1699,-354.8598"/>
</g>
<!-- Node41&#45;&gt;Node21 -->
<g id="edge98" class="edge">
<title>Node41&#45;&gt;Node21</title>
<path fill="none" stroke="#191970" d="M1396.9816,-515.2709C1404.2641,-506.5036 1414.066,-492.8915 1418.1956,-479 1430.2391,-438.4862 1409.2797,-390.2773 1395.2632,-364.4775"/>
<polygon fill="#191970" stroke="#191970" points="1398.2914,-362.7222 1390.3144,-355.7495 1392.2021,-366.1748 1398.2914,-362.7222"/>
</g>
<!-- Node41&#45;&gt;Node40 -->
<g id="edge95" class="edge">
<title>Node41&#45;&gt;Node40</title>
<path fill="none" stroke="#191970" d="M1317.8422,-518.841C1197.8296,-508.3117 958.3507,-487.1944 874.1956,-479 872.7255,-478.8569 871.2427,-478.7116 869.7499,-478.5645"/>
<polygon fill="#191970" stroke="#191970" points="870.078,-475.0799 859.7801,-477.5705 869.3835,-482.0454 870.078,-475.0799"/>
</g>
<!-- Node42&#45;&gt;Node2 -->
<g id="edge104" class="edge">
<title>Node42&#45;&gt;Node2</title>
<path fill="none" stroke="#191970" d="M625.6643,-459.3906C635.9292,-449.9683 651.7858,-435.4134 664.0961,-424.1137"/>
<polygon fill="#191970" stroke="#191970" points="666.579,-426.5856 671.5792,-417.2449 661.8454,-421.4287 666.579,-426.5856"/>
</g>
<!-- Node42&#45;&gt;Node4 -->
<g id="edge105" class="edge">
<title>Node42&#45;&gt;Node4</title>
<path fill="none" stroke="#191970" d="M616.1149,-459.4914C618.185,-443.3242 624.6743,-410.4425 644.1956,-392 683.1264,-355.2204 712.1168,-381.5331 759.1956,-356 796.9273,-335.5362 1023.3192,-141.024 1091.0604,-82.5474"/>
<polygon fill="#191970" stroke="#191970" points="1093.5746,-85.0007 1098.8544,-75.8151 1088.9988,-79.7032 1093.5746,-85.0007"/>
</g>
<!-- Node42&#45;&gt;Node5 -->
<g id="edge103" class="edge">
<title>Node42&#45;&gt;Node5</title>
<path fill="none" stroke="#191970" d="M563.0054,-459.4515C539.3687,-452.7652 512.6519,-441.5703 494.1956,-423 479.0061,-407.7167 425.1956,-273.669 425.1956,-234 425.1956,-234 425.1956,-234 425.1956,-178 425.1956,-132.9267 461.2142,-130.7652 502.1956,-112 542.7788,-93.4171 660.079,-79.4821 736.5397,-72.053"/>
<polygon fill="#191970" stroke="#191970" points="736.9599,-75.5289 746.5809,-71.0919 736.2929,-68.5607 736.9599,-75.5289"/>
</g>
<!-- Node42&#45;&gt;Node10 -->
<g id="edge102" class="edge">
<title>Node42&#45;&gt;Node10</title>
<path fill="none" stroke="#191970" d="M680.9395,-459.9176C683.7273,-459.5951 686.4883,-459.2875 689.1956,-459 895.3217,-437.1115 948.4762,-448.4293 1154.1956,-423 1163.9772,-421.7909 1174.3109,-420.2682 1184.3669,-418.6523"/>
<polygon fill="#191970" stroke="#191970" points="1185.0028,-422.0948 1194.2996,-417.0135 1183.8632,-415.1882 1185.0028,-422.0948"/>
</g>
<!-- Node42&#45;&gt;Node39 -->
<g id="edge101" class="edge">
<title>Node42&#45;&gt;Node39</title>
<path fill="none" stroke="#191970" d="M605.0393,-459.3906C595.1756,-450.0581 579.99,-435.6902 568.0969,-424.4374"/>
<polygon fill="#191970" stroke="#191970" points="570.1644,-421.5753 560.495,-417.2449 565.3535,-426.6601 570.1644,-421.5753"/>
</g>
<!-- Node43&#45;&gt;Node10 -->
<g id="edge108" class="edge">
<title>Node43&#45;&gt;Node10</title>
<path fill="none" stroke="#191970" d="M1226.7966,-515.397C1242.7829,-508.0839 1261.7953,-496.291 1271.1956,-479 1280.5995,-461.7022 1270.2369,-440.3068 1259.9386,-425.4505"/>
<polygon fill="#191970" stroke="#191970" points="1262.5093,-423.0445 1253.712,-417.1404 1256.9074,-427.2419 1262.5093,-423.0445"/>
</g>
<!-- Node43&#45;&gt;Node40 -->
<g id="edge107" class="edge">
<title>Node43&#45;&gt;Node40</title>
<path fill="none" stroke="#191970" d="M1138.5277,-516.7971C1065.1544,-507.0373 942.3874,-490.7072 861.0994,-479.8946"/>
<polygon fill="#191970" stroke="#191970" points="861.2783,-476.3876 850.9041,-478.5384 860.3552,-483.3265 861.2783,-476.3876"/>
</g>
<!-- Node45&#45;&gt;Node5 -->
<g id="edge135" class="edge">
<title>Node45&#45;&gt;Node5</title>
<path fill="none" stroke="#191970" d="M1669.8176,-459.3921C1655.7008,-443.656 1625.7146,-412.1293 1595.1956,-392 1562.3092,-370.3093 1549.5502,-373.3796 1514.1956,-356 1497.4198,-347.7534 1494.8462,-342.1551 1477.1956,-336 1390.6754,-305.8287 1362.4842,-324.5188 1274.1956,-300 1207.2315,-281.4033 1192.4547,-270.4724 1128.1956,-244 1071.1578,-220.5025 1057.0683,-214.147 1001.1956,-188 950.4284,-164.2423 935.4181,-162.1953 888.1956,-132 864.7272,-116.9938 840.1344,-96.4585 824.0766,-82.2987"/>
<polygon fill="#191970" stroke="#191970" points="826.2981,-79.59 816.5086,-75.5383 821.6347,-84.8105 826.2981,-79.59"/>
</g>
<!-- Node45&#45;&gt;Node6 -->
<g id="edge114" class="edge">
<title>Node45&#45;&gt;Node6</title>
<path fill="none" stroke="#191970" d="M1680.6686,-459.457C1686.0117,-436.8667 1696.7227,-378.8048 1678.1956,-336 1654.4654,-281.1742 1620.8382,-287.7855 1580.1956,-244 1509.3328,-167.6576 1434.1581,-68.2237 1404.4099,-28.0276"/>
<polygon fill="#191970" stroke="#191970" points="1407.0599,-25.7238 1398.3086,-19.7516 1401.4255,-29.8776 1407.0599,-25.7238"/>
</g>
<!-- Node45&#45;&gt;Node11 -->
<g id="edge116" class="edge">
<title>Node45&#45;&gt;Node11</title>
<path fill="none" stroke="#191970" d="M1653.0144,-459.4366C1610.6355,-443.6242 1522.1404,-411.8125 1445.1956,-392 1387.9207,-377.2523 1322.0025,-365.1824 1272.8264,-357.1122"/>
<polygon fill="#191970" stroke="#191970" points="1273.3411,-353.65 1262.9093,-355.5016 1272.2189,-360.5595 1273.3411,-353.65"/>
</g>
<!-- Node45&#45;&gt;Node21 -->
<g id="edge118" class="edge">
<title>Node45&#45;&gt;Node21</title>
<path fill="none" stroke="#191970" d="M1663.2282,-459.2938C1631.4146,-438.6659 1559.8955,-392.309 1559.1956,-392 1523.7529,-376.3559 1481.8454,-365.1091 1447.9273,-357.6536"/>
<polygon fill="#191970" stroke="#191970" points="1448.6415,-354.2272 1438.1303,-355.556 1447.1759,-361.0721 1448.6415,-354.2272"/>
</g>
<!-- Node45&#45;&gt;Node23 -->
<g id="edge134" class="edge">
<title>Node45&#45;&gt;Node23</title>
<path fill="none" stroke="#191970" d="M1673.4741,-459.1583C1666.1088,-444.1574 1651.074,-414.9002 1635.1956,-392 1628.305,-382.0623 1619.6934,-371.7282 1612.3163,-363.3783"/>
<polygon fill="#191970" stroke="#191970" points="1614.7573,-360.8589 1605.4603,-355.778 1609.5596,-365.5477 1614.7573,-360.8589"/>
</g>
<!-- Node45&#45;&gt;Node26 -->
<g id="edge117" class="edge">
<title>Node45&#45;&gt;Node26</title>
<path fill="none" stroke="#191970" d="M1758.8742,-464.7914C1864.0139,-458.4673 2036.8273,-444.8681 2056.1956,-423 2141.2189,-327.0027 2031.6854,-233.088 1921.1956,-168 1897.205,-153.8675 1832.2542,-141.4118 1778.4323,-133.0383"/>
<polygon fill="#191970" stroke="#191970" points="1778.9387,-129.5752 1768.5245,-131.5229 1777.8803,-136.4947 1778.9387,-129.5752"/>
</g>
<!-- Node45&#45;&gt;Node32 -->
<g id="edge119" class="edge">
<title>Node45&#45;&gt;Node32</title>
<path fill="none" stroke="#191970" d="M1758.7188,-465.6586C1872.1334,-460.1132 2067.5972,-447.1505 2089.1956,-423 2147.0103,-358.3535 2096.3599,-242.5084 2072.7488,-197.0495"/>
<polygon fill="#191970" stroke="#191970" points="2075.7121,-195.1683 2067.9143,-187.9958 2069.5373,-198.4656 2075.7121,-195.1683"/>
</g>
<!-- Node45&#45;&gt;Node46 -->
<g id="edge115" class="edge">
<title>Node45&#45;&gt;Node46</title>
<path fill="none" stroke="#191970" d="M1758.7868,-460.4968C1763.6621,-459.9886 1768.4942,-459.4865 1773.1956,-459 1930.5004,-442.7223 1971.9849,-453.3223 2127.1956,-423 2131.7104,-422.118 2136.3948,-421.022 2141.0265,-419.8234"/>
<polygon fill="#191970" stroke="#191970" points="2142.2839,-423.1075 2150.9959,-417.0783 2140.4255,-416.3586 2142.2839,-423.1075"/>
</g>
<!-- Node47 -->
<g id="node47" class="node">
<title>Node47</title>
<g id="a_node47"><a xlink:href="SpatialMotionVector_8h.html" target="_top" xlink:title="iDynTree/Core/SpatialMotion\lVector.h">
<polygon fill="none" stroke="#000000" points="1891.6956,-392.5 1891.6956,-422.5 2046.6956,-422.5 2046.6956,-392.5 1891.6956,-392.5"/>
<text text-anchor="start" x="1899.6956" y="-410.5" font-family="FreeSans.ttf" font-size="10.00" fill="#000000">iDynTree/Core/SpatialMotion</text>
<text text-anchor="middle" x="1969.1956" y="-399.5" font-family="FreeSans.ttf" font-size="10.00" fill="#000000">Vector.h</text>
</a>
</g>
</g>
<!-- Node45&#45;&gt;Node47 -->
<g id="edge120" class="edge">
<title>Node45&#45;&gt;Node47</title>
<path fill="none" stroke="#191970" d="M1723.345,-459.4581C1767.2129,-450.187 1834.8094,-435.9012 1888.0282,-424.6539"/>
<polygon fill="#191970" stroke="#191970" points="1889.0684,-428.0115 1898.1286,-422.5193 1887.6209,-421.1628 1889.0684,-428.0115"/>
</g>
<!-- Node49 -->
<g id="node49" class="node">
<title>Node49</title>
<g id="a_node49"><a xlink:href="SpatialForceVector_8h.html" target="_top" xlink:title="iDynTree/Core/SpatialForce\lVector.h">
<polygon fill="none" stroke="#000000" points="1725.1956,-392.5 1725.1956,-422.5 1873.1956,-422.5 1873.1956,-392.5 1725.1956,-392.5"/>
<text text-anchor="start" x="1733.1956" y="-410.5" font-family="FreeSans.ttf" font-size="10.00" fill="#000000">iDynTree/Core/SpatialForce</text>
<text text-anchor="middle" x="1799.1956" y="-399.5" font-family="FreeSans.ttf" font-size="10.00" fill="#000000">Vector.h</text>
</a>
</g>
</g>
<!-- Node45&#45;&gt;Node49 -->
<g id="edge130" class="edge">
<title>Node45&#45;&gt;Node49</title>
<path fill="none" stroke="#191970" d="M1697.1018,-459.3906C1714.0084,-450.7976 1739.3141,-437.9356 1760.5009,-427.1671"/>
<polygon fill="#191970" stroke="#191970" points="1762.2669,-430.1957 1769.5956,-422.5446 1759.0951,-423.9555 1762.2669,-430.1957"/>
</g>
<!-- Node47&#45;&gt;Node26 -->
<g id="edge121" class="edge">
<title>Node47&#45;&gt;Node26</title>
<path fill="none" stroke="#191970" d="M1977.765,-392.4563C1984.9157,-378.0018 1993.1944,-355.5357 1988.1956,-336 1967.0924,-253.5278 1964.0442,-219.4157 1896.1956,-168 1876.9347,-153.4041 1821.7693,-141.3104 1774.3937,-133.1922"/>
<polygon fill="#191970" stroke="#191970" points="1774.8592,-129.7215 1764.4183,-131.5208 1773.7024,-136.6253 1774.8592,-129.7215"/>
</g>
<!-- Node47&#45;&gt;Node30 -->
<g id="edge122" class="edge">
<title>Node47&#45;&gt;Node30</title>
<path fill="none" stroke="#191970" d="M1973.5258,-392.2983C1976.958,-377.3316 1980.0071,-354.1442 1972.1956,-336 1943.3378,-268.9708 1870.5121,-217.0908 1831.2455,-192.913"/>
<polygon fill="#191970" stroke="#191970" points="1832.8607,-189.8 1822.4886,-187.6387 1829.249,-195.7964 1832.8607,-189.8"/>
</g>
<!-- Node48 -->
<g id="node48" class="node">
<title>Node48</title>
<g id="a_node48"><a xlink:href="SpatialVector_8h.html" target="_top" xlink:title="iDynTree/Core/SpatialVector.h">
<polygon fill="none" stroke="#000000" points="1801.6956,-336.5 1801.6956,-355.5 1962.6956,-355.5 1962.6956,-336.5 1801.6956,-336.5"/>
<text text-anchor="middle" x="1882.1956" y="-343.5" font-family="FreeSans.ttf" font-size="10.00" fill="#000000">iDynTree/Core/SpatialVector.h</text>
</a>
</g>
</g>
<!-- Node47&#45;&gt;Node48 -->
<g id="edge123" class="edge">
<title>Node47&#45;&gt;Node48</title>
<path fill="none" stroke="#191970" d="M1947.6899,-392.2977C1934.3987,-382.9022 1917.3899,-370.8787 1904.0367,-361.4395"/>
<polygon fill="#191970" stroke="#191970" points="1906.0517,-358.5776 1895.8655,-355.6633 1902.011,-364.2937 1906.0517,-358.5776"/>
</g>
<!-- Node48&#45;&gt;Node5 -->
<g id="edge126" class="edge">
<title>Node48&#45;&gt;Node5</title>
<path fill="none" stroke="#191970" d="M1801.6841,-342.2116C1674.4119,-335.6902 1432.6242,-320.9912 1349.1956,-300 1139.6477,-247.2763 907.5797,-123.0493 831.7018,-80.5534"/>
<polygon fill="#191970" stroke="#191970" points="833.2679,-77.4185 822.8371,-75.5613 829.833,-83.5179 833.2679,-77.4185"/>
</g>
<!-- Node48&#45;&gt;Node24 -->
<g id="edge124" class="edge">
<title>Node48&#45;&gt;Node24</title>
<path fill="none" stroke="#191970" d="M1804.5831,-336.4686C1720.9084,-326.1928 1588.4546,-309.9265 1504.5088,-299.6174"/>
<polygon fill="#191970" stroke="#191970" points="1504.8706,-296.1356 1494.5185,-298.3905 1504.0173,-303.0834 1504.8706,-296.1356"/>
</g>
<!-- Node48&#45;&gt;Node27 -->
<g id="edge129" class="edge">
<title>Node48&#45;&gt;Node27</title>
<path fill="none" stroke="#191970" d="M1935.655,-336.471C1969.7744,-329.1875 2014.3511,-317.3997 2051.1956,-300 2090.112,-281.6218 2100.076,-274.7418 2130.1956,-244 2169.716,-203.663 2179.6877,-187.4844 2190.1956,-132 2191.8496,-123.2664 2192.7284,-120.5204 2190.1956,-112 2187.1629,-101.7984 2181.0712,-91.7475 2175.1646,-83.6555"/>
<polygon fill="#191970" stroke="#191970" points="2177.892,-81.4613 2168.9816,-75.7291 2172.3726,-85.7667 2177.892,-81.4613"/>
</g>
<!-- Node48&#45;&gt;Node29 -->
<g id="edge125" class="edge">
<title>Node48&#45;&gt;Node29</title>
<path fill="none" stroke="#191970" d="M1863.0122,-336.4509C1823.3262,-316.6961 1732.0413,-271.2565 1685.539,-248.1088"/>
<polygon fill="#191970" stroke="#191970" points="1686.8423,-244.8479 1676.3304,-243.5249 1683.7229,-251.1144 1686.8423,-244.8479"/>
</g>
<!-- Node48&#45;&gt;Node30 -->
<g id="edge127" class="edge">
<title>Node48&#45;&gt;Node30</title>
<path fill="none" stroke="#191970" d="M1877.8351,-336.4862C1865.5578,-309.6994 1830.5214,-233.2565 1814.0088,-197.2289"/>
<polygon fill="#191970" stroke="#191970" points="1817.0483,-195.4602 1809.7,-187.8279 1810.6849,-198.3769 1817.0483,-195.4602"/>
</g>
<!-- Node48&#45;&gt;Node33 -->
<g id="edge128" class="edge">
<title>Node48&#45;&gt;Node33</title>
<path fill="none" stroke="#191970" d="M1921.1954,-336.4655C1983.147,-318.9779 2102.1452,-275.279 2152.1956,-188 2160.2024,-174.0374 2159.1224,-155.5291 2156.5163,-141.6659"/>
<polygon fill="#191970" stroke="#191970" points="2159.8833,-140.6884 2154.2435,-131.7194 2153.0591,-142.2478 2159.8833,-140.6884"/>
</g>
<!-- Node49&#45;&gt;Node26 -->
<g id="edge131" class="edge">
<title>Node49&#45;&gt;Node26</title>
<path fill="none" stroke="#191970" d="M1794.8959,-392.4174C1785.6251,-360.6225 1762.3796,-284.6541 1735.1956,-224 1727.7098,-207.2974 1722.0979,-204.952 1715.1956,-188 1709.0371,-172.8751 1704.3014,-154.9575 1701.2368,-141.6106"/>
<polygon fill="#191970" stroke="#191970" points="1704.6118,-140.6601 1699.0609,-131.6358 1697.7726,-142.152 1704.6118,-140.6601"/>
</g>
<!-- Node49&#45;&gt;Node30 -->
<g id="edge132" class="edge">
<title>Node49&#45;&gt;Node30</title>
<path fill="none" stroke="#191970" d="M1796.9441,-392.217C1795.5541,-381.9922 1793.9051,-368.2214 1793.1956,-356 1789.8555,-298.4679 1797.7095,-230.5371 1802.2502,-197.7145"/>
<polygon fill="#191970" stroke="#191970" points="1805.7394,-198.0391 1803.6943,-187.6435 1798.8103,-197.0454 1805.7394,-198.0391"/>
</g>
<!-- Node49&#45;&gt;Node48 -->
<g id="edge133" class="edge">
<title>Node49&#45;&gt;Node48</title>
<path fill="none" stroke="#191970" d="M1819.7124,-392.2977C1832.1938,-383.0495 1848.1115,-371.2551 1860.7569,-361.8853"/>
<polygon fill="#191970" stroke="#191970" points="1862.9552,-364.6126 1868.9062,-355.8469 1858.7878,-358.9882 1862.9552,-364.6126"/>
</g>
</g>
</svg>
