<?xml version="1.0" encoding="UTF-8" standalone="no"?>
<!DOCTYPE svg PUBLIC "-//W3C//DTD SVG 1.1//EN"
 "http://www.w3.org/Graphics/SVG/1.1/DTD/svg11.dtd">
<!-- Generated by graphviz version 2.40.1 (20161225.0304)
 -->
<!-- Title: PositionRaw.h Pages: 1 -->
<svg width="740pt" height="196pt"
 viewBox="0.00 0.00 740.00 196.00" xmlns="http://www.w3.org/2000/svg" xmlns:xlink="http://www.w3.org/1999/xlink">
<g id="graph0" class="graph" transform="scale(1 1) rotate(0) translate(4 192)">
<title>PositionRaw.h</title>
<!-- Node0 -->
<g id="node1" class="node">
<title>Node0</title>
<polygon fill="#bfbfbf" stroke="#000000" points="445.5,-168.5 445.5,-187.5 530.5,-187.5 530.5,-168.5 445.5,-168.5"/>
<text text-anchor="middle" x="488" y="-175.5" font-family="FreeSans.ttf" font-size="10.00" fill="#000000">PositionRaw.h</text>
</g>
<!-- Node1 -->
<g id="node2" class="node">
<title>Node1</title>
<g id="a_node2"><a xlink:href="VectorFixSize_8h.html" target="_top" xlink:title="iDynTree/Core/VectorFixSize.h">
<polygon fill="none" stroke="#000000" points="353.5,-112.5 353.5,-131.5 514.5,-131.5 514.5,-112.5 353.5,-112.5"/>
<text text-anchor="middle" x="434" y="-119.5" font-family="FreeSans.ttf" font-size="10.00" fill="#000000">iDynTree/Core/VectorFixSize.h</text>
</a>
</g>
</g>
<!-- Node0&#45;&gt;Node1 -->
<g id="edge1" class="edge">
<title>Node0&#45;&gt;Node1</title>
<path fill="none" stroke="#191970" d="M478.5939,-168.2455C470.8507,-160.2155 459.688,-148.6394 450.4682,-139.0781"/>
<polygon fill="#191970" stroke="#191970" points="452.7591,-136.4117 443.2983,-131.6427 447.7202,-141.2706 452.7591,-136.4117"/>
</g>
<!-- Node14 -->
<g id="node15" class="node">
<title>Node14</title>
<polygon fill="none" stroke="#bfbfbf" points="645,-56.5 645,-75.5 689,-75.5 689,-56.5 645,-56.5"/>
<text text-anchor="middle" x="667" y="-63.5" font-family="FreeSans.ttf" font-size="10.00" fill="#000000">string</text>
</g>
<!-- Node0&#45;&gt;Node14 -->
<g id="edge20" class="edge">
<title>Node0&#45;&gt;Node14</title>
<path fill="none" stroke="#191970" d="M503.2614,-168.4509C534.4375,-148.9441 605.6394,-104.3932 643.0414,-80.9909"/>
<polygon fill="#191970" stroke="#191970" points="645.1564,-83.7962 651.7772,-75.5249 641.4434,-77.8621 645.1564,-83.7962"/>
</g>
<!-- Node2 -->
<g id="node3" class="node">
<title>Node2</title>
<g id="a_node3"><a xlink:href="Utils_8h.html" target="_top" xlink:title="iDynTree/Core/Utils.h">
<polygon fill="none" stroke="#000000" points="507.5,-56.5 507.5,-75.5 626.5,-75.5 626.5,-56.5 507.5,-56.5"/>
<text text-anchor="middle" x="567" y="-63.5" font-family="FreeSans.ttf" font-size="10.00" fill="#000000">iDynTree/Core/Utils.h</text>
</a>
</g>
</g>
<!-- Node1&#45;&gt;Node2 -->
<g id="edge2" class="edge">
<title>Node1&#45;&gt;Node2</title>
<path fill="none" stroke="#191970" d="M456.8635,-112.3733C478.405,-103.3032 510.8838,-89.6279 534.9956,-79.4755"/>
<polygon fill="#191970" stroke="#191970" points="536.5767,-82.6075 544.4348,-75.5011 533.8603,-76.156 536.5767,-82.6075"/>
</g>
<!-- Node3 -->
<g id="node4" class="node">
<title>Node3</title>
<polygon fill="none" stroke="#bfbfbf" points="580.5,-.5 580.5,-19.5 633.5,-19.5 633.5,-.5 580.5,-.5"/>
<text text-anchor="middle" x="607" y="-7.5" font-family="FreeSans.ttf" font-size="10.00" fill="#000000">cstddef</text>
</g>
<!-- Node1&#45;&gt;Node3 -->
<g id="edge18" class="edge">
<title>Node1&#45;&gt;Node3</title>
<path fill="none" stroke="#191970" d="M441.4584,-112.3112C452.6583,-98.3038 475.073,-72.2937 499,-56 521.0578,-40.9792 548.8071,-29.2895 570.6543,-21.4532"/>
<polygon fill="#191970" stroke="#191970" points="571.937,-24.7128 580.2352,-18.1257 569.6404,-18.1003 571.937,-24.7128"/>
</g>
<!-- Node5 -->
<g id="node6" class="node">
<title>Node5</title>
<g id="a_node6"><a xlink:href="Span_8h.html" target="_top" xlink:title="iDynTree/Core/Span.h">
<polygon fill="none" stroke="#000000" points="329.5,-56.5 329.5,-75.5 450.5,-75.5 450.5,-56.5 329.5,-56.5"/>
<text text-anchor="middle" x="390" y="-63.5" font-family="FreeSans.ttf" font-size="10.00" fill="#000000">iDynTree/Core/Span.h</text>
</a>
</g>
</g>
<!-- Node1&#45;&gt;Node5 -->
<g id="edge5" class="edge">
<title>Node1&#45;&gt;Node5</title>
<path fill="none" stroke="#191970" d="M426.3358,-112.2455C420.1527,-104.3761 411.2937,-93.101 403.8711,-83.6542"/>
<polygon fill="#191970" stroke="#191970" points="406.5068,-81.3435 397.5764,-75.6427 401.0025,-85.6683 406.5068,-81.3435"/>
</g>
<!-- Node6 -->
<g id="node7" class="node">
<title>Node6</title>
<polygon fill="none" stroke="#bfbfbf" points="0,-.5 0,-19.5 52,-19.5 52,-.5 0,-.5"/>
<text text-anchor="middle" x="26" y="-7.5" font-family="FreeSans.ttf" font-size="10.00" fill="#000000">cassert</text>
</g>
<!-- Node1&#45;&gt;Node6 -->
<g id="edge17" class="edge">
<title>Node1&#45;&gt;Node6</title>
<path fill="none" stroke="#191970" d="M353.8822,-112.4705C302.8407,-105.2125 235.7019,-93.4529 178,-76 132.7767,-62.3215 83.0225,-39.0315 53.1616,-24.0909"/>
<polygon fill="#191970" stroke="#191970" points="54.6996,-20.9466 44.1964,-19.5562 51.5401,-27.193 54.6996,-20.9466"/>
</g>
<!-- Node1&#45;&gt;Node14 -->
<g id="edge15" class="edge">
<title>Node1&#45;&gt;Node14</title>
<path fill="none" stroke="#191970" d="M481.2311,-112.4751C520.1876,-104.342 577.066,-91.834 635.0315,-76.1035"/>
<polygon fill="#191970" stroke="#191970" points="636.0014,-79.4668 644.7196,-73.4466 634.1499,-72.7161 636.0014,-79.4668"/>
</g>
<!-- Node15 -->
<g id="node16" class="node">
<title>Node15</title>
<polygon fill="none" stroke="#bfbfbf" points="187,-56.5 187,-75.5 243,-75.5 243,-56.5 187,-56.5"/>
<text text-anchor="middle" x="215" y="-63.5" font-family="FreeSans.ttf" font-size="10.00" fill="#000000">sstream</text>
</g>
<!-- Node1&#45;&gt;Node15 -->
<g id="edge16" class="edge">
<title>Node1&#45;&gt;Node15</title>
<path fill="none" stroke="#191970" d="M395.6064,-112.4903C360.8284,-103.8329 307.9217,-90.5556 253.1512,-76.274"/>
<polygon fill="#191970" stroke="#191970" points="253.8291,-72.8337 243.269,-73.6915 252.0591,-79.6062 253.8291,-72.8337"/>
</g>
<!-- Node16 -->
<g id="node17" class="node">
<title>Node16</title>
<polygon fill="none" stroke="#bfbfbf" points="261,-56.5 261,-75.5 311,-75.5 311,-56.5 261,-56.5"/>
<text text-anchor="middle" x="286" y="-63.5" font-family="FreeSans.ttf" font-size="10.00" fill="#000000">cstring</text>
</g>
<!-- Node1&#45;&gt;Node16 -->
<g id="edge19" class="edge">
<title>Node1&#45;&gt;Node16</title>
<path fill="none" stroke="#191970" d="M408.5579,-112.3733C384.2674,-103.1822 347.4792,-89.2624 320.5457,-79.0713"/>
<polygon fill="#191970" stroke="#191970" points="321.7016,-75.7666 311.1101,-75.5011 319.2243,-82.3136 321.7016,-75.7666"/>
</g>
<!-- Node2&#45;&gt;Node3 -->
<g id="edge3" class="edge">
<title>Node2&#45;&gt;Node3</title>
<path fill="none" stroke="#191970" d="M573.9675,-56.2455C579.5311,-48.4564 587.478,-37.3308 594.1829,-27.9439"/>
<polygon fill="#191970" stroke="#191970" points="597.148,-29.8144 600.1124,-19.6427 591.4519,-25.7457 597.148,-29.8144"/>
</g>
<!-- Node4 -->
<g id="node5" class="node">
<title>Node4</title>
<polygon fill="none" stroke="#bfbfbf" points="652,-.5 652,-19.5 732,-19.5 732,-.5 652,-.5"/>
<text text-anchor="middle" x="692" y="-7.5" font-family="FreeSans.ttf" font-size="10.00" fill="#000000">CoreExport.h</text>
</g>
<!-- Node2&#45;&gt;Node4 -->
<g id="edge4" class="edge">
<title>Node2&#45;&gt;Node4</title>
<path fill="none" stroke="#191970" d="M588.4883,-56.3733C608.644,-47.3435 638.988,-33.7494 661.618,-23.6111"/>
<polygon fill="#191970" stroke="#191970" points="663.0971,-26.7838 670.7921,-19.5011 660.2351,-20.3955 663.0971,-26.7838"/>
</g>
<!-- Node5&#45;&gt;Node3 -->
<g id="edge9" class="edge">
<title>Node5&#45;&gt;Node3</title>
<path fill="none" stroke="#191970" d="M429.1433,-56.4756C463.9704,-47.919 516.5302,-34.8055 570.5315,-20.3467"/>
<polygon fill="#191970" stroke="#191970" points="571.5221,-23.7047 580.2705,-17.7284 569.7047,-16.9447 571.5221,-23.7047"/>
</g>
<!-- Node5&#45;&gt;Node6 -->
<g id="edge6" class="edge">
<title>Node5&#45;&gt;Node6</title>
<path fill="none" stroke="#191970" d="M329.2956,-57.3136C326.152,-56.8683 323.039,-56.4283 320,-56 208.0661,-40.2256 176.4235,-43.8061 62.1144,-20.0074"/>
<polygon fill="#191970" stroke="#191970" points="62.781,-16.5711 52.2742,-17.9344 61.3379,-23.4208 62.781,-16.5711"/>
</g>
<!-- Node7 -->
<g id="node8" class="node">
<title>Node7</title>
<polygon fill="none" stroke="#bfbfbf" points="221,-.5 221,-19.5 285,-19.5 285,-.5 221,-.5"/>
<text text-anchor="middle" x="253" y="-7.5" font-family="FreeSans.ttf" font-size="10.00" fill="#000000">algorithm</text>
</g>
<!-- Node5&#45;&gt;Node7 -->
<g id="edge7" class="edge">
<title>Node5&#45;&gt;Node7</title>
<path fill="none" stroke="#191970" d="M366.4489,-56.3733C344.1609,-47.2629 310.5063,-33.5062 285.6363,-23.3404"/>
<polygon fill="#191970" stroke="#191970" points="286.8247,-20.0451 276.2438,-19.5011 284.1761,-26.5247 286.8247,-20.0451"/>
</g>
<!-- Node8 -->
<g id="node9" class="node">
<title>Node8</title>
<polygon fill="none" stroke="#bfbfbf" points="303,-.5 303,-19.5 345,-19.5 345,-.5 303,-.5"/>
<text text-anchor="middle" x="324" y="-7.5" font-family="FreeSans.ttf" font-size="10.00" fill="#000000">array</text>
</g>
<!-- Node5&#45;&gt;Node8 -->
<g id="edge8" class="edge">
<title>Node5&#45;&gt;Node8</title>
<path fill="none" stroke="#191970" d="M378.5037,-56.2455C368.7558,-47.9746 354.5741,-35.9416 343.1202,-26.2232"/>
<polygon fill="#191970" stroke="#191970" points="345.2541,-23.4437 335.3646,-19.6427 340.7253,-28.7813 345.2541,-23.4437"/>
</g>
<!-- Node9 -->
<g id="node10" class="node">
<title>Node9</title>
<polygon fill="none" stroke="#bfbfbf" points="363.5,-.5 363.5,-19.5 416.5,-19.5 416.5,-.5 363.5,-.5"/>
<text text-anchor="middle" x="390" y="-7.5" font-family="FreeSans.ttf" font-size="10.00" fill="#000000">iterator</text>
</g>
<!-- Node5&#45;&gt;Node9 -->
<g id="edge10" class="edge">
<title>Node5&#45;&gt;Node9</title>
<path fill="none" stroke="#191970" d="M390,-56.2455C390,-48.9382 390,-38.6944 390,-29.7046"/>
<polygon fill="#191970" stroke="#191970" points="393.5001,-29.6426 390,-19.6427 386.5001,-29.6427 393.5001,-29.6426"/>
</g>
<!-- Node10 -->
<g id="node11" class="node">
<title>Node10</title>
<polygon fill="none" stroke="#bfbfbf" points="435,-.5 435,-19.5 479,-19.5 479,-.5 435,-.5"/>
<text text-anchor="middle" x="457" y="-7.5" font-family="FreeSans.ttf" font-size="10.00" fill="#000000">limits</text>
</g>
<!-- Node5&#45;&gt;Node10 -->
<g id="edge11" class="edge">
<title>Node5&#45;&gt;Node10</title>
<path fill="none" stroke="#191970" d="M401.6705,-56.2455C411.5661,-47.9746 425.9627,-35.9416 437.5901,-26.2232"/>
<polygon fill="#191970" stroke="#191970" points="440.035,-28.7413 445.4632,-19.6427 435.5458,-23.3703 440.035,-28.7413"/>
</g>
<!-- Node11 -->
<g id="node12" class="node">
<title>Node11</title>
<polygon fill="none" stroke="#bfbfbf" points="497.5,-.5 497.5,-19.5 562.5,-19.5 562.5,-.5 497.5,-.5"/>
<text text-anchor="middle" x="530" y="-7.5" font-family="FreeSans.ttf" font-size="10.00" fill="#000000">stdexcept</text>
</g>
<!-- Node5&#45;&gt;Node11 -->
<g id="edge12" class="edge">
<title>Node5&#45;&gt;Node11</title>
<path fill="none" stroke="#191970" d="M414.0669,-56.3733C436.8428,-47.2629 471.2344,-33.5062 496.649,-23.3404"/>
<polygon fill="#191970" stroke="#191970" points="498.2623,-26.4648 506.2472,-19.5011 495.6625,-19.9654 498.2623,-26.4648"/>
</g>
<!-- Node12 -->
<g id="node13" class="node">
<title>Node12</title>
<polygon fill="none" stroke="#bfbfbf" points="70.5,-.5 70.5,-19.5 139.5,-19.5 139.5,-.5 70.5,-.5"/>
<text text-anchor="middle" x="105" y="-7.5" font-family="FreeSans.ttf" font-size="10.00" fill="#000000">type_traits</text>
</g>
<!-- Node5&#45;&gt;Node12 -->
<g id="edge13" class="edge">
<title>Node5&#45;&gt;Node12</title>
<path fill="none" stroke="#191970" d="M336.5269,-56.4804C289.6137,-47.9826 219.3122,-34.8965 149.5452,-20.2724"/>
<polygon fill="#191970" stroke="#191970" points="150.2137,-16.8364 139.7069,-18.1989 148.7701,-23.686 150.2137,-16.8364"/>
</g>
<!-- Node13 -->
<g id="node14" class="node">
<title>Node13</title>
<polygon fill="none" stroke="#bfbfbf" points="157.5,-.5 157.5,-19.5 202.5,-19.5 202.5,-.5 157.5,-.5"/>
<text text-anchor="middle" x="180" y="-7.5" font-family="FreeSans.ttf" font-size="10.00" fill="#000000">utility</text>
</g>
<!-- Node5&#45;&gt;Node13 -->
<g id="edge14" class="edge">
<title>Node5&#45;&gt;Node13</title>
<path fill="none" stroke="#191970" d="M350.6078,-56.4203C316.4856,-47.9882 265.5933,-35.0926 212.3049,-19.9867"/>
<polygon fill="#191970" stroke="#191970" points="213.2601,-16.6196 202.6836,-17.2424 211.34,-23.3511 213.2601,-16.6196"/>
</g>
</g>
</svg>
