<?xml version="1.0" encoding="UTF-8" standalone="no"?>
<!DOCTYPE svg PUBLIC "-//W3C//DTD SVG 1.1//EN"
 "http://www.w3.org/Graphics/SVG/1.1/DTD/svg11.dtd">
<!-- Generated by graphviz version 2.40.1 (20161225.0304)
 -->
<!-- Title: PredictSensorsMeasurements.h Pages: 1 -->
<svg width="1257pt" height="666pt"
 viewBox="0.00 0.00 1257.00 666.00" xmlns="http://www.w3.org/2000/svg" xmlns:xlink="http://www.w3.org/1999/xlink">
<g id="graph0" class="graph" transform="scale(1 1) rotate(0) translate(4 662)">
<title>PredictSensorsMeasurements.h</title>
<!-- Node0 -->
<g id="node1" class="node">
<title>Node0</title>
<polygon fill="#bfbfbf" stroke="#000000" points="166,-638.5 166,-657.5 336,-657.5 336,-638.5 166,-638.5"/>
<text text-anchor="middle" x="251" y="-645.5" font-family="FreeSans.ttf" font-size="10.00" fill="#000000">PredictSensorsMeasurements.h</text>
</g>
<!-- Node1 -->
<g id="node2" class="node">
<title>Node1</title>
<g id="a_node2"><a xlink:href="LinkState_8h.html" target="_top" xlink:title="iDynTree/Model/LinkState.h">
<polygon fill="none" stroke="#000000" points="481.5,-582.5 481.5,-601.5 630.5,-601.5 630.5,-582.5 481.5,-582.5"/>
<text text-anchor="middle" x="556" y="-589.5" font-family="FreeSans.ttf" font-size="10.00" fill="#000000">iDynTree/Model/LinkState.h</text>
</a>
</g>
</g>
<!-- Node0&#45;&gt;Node1 -->
<g id="edge1" class="edge">
<title>Node0&#45;&gt;Node1</title>
<path fill="none" stroke="#191970" d="M303.0848,-638.4369C355.9412,-628.7321 437.7691,-613.708 493.9509,-603.3926"/>
<polygon fill="#191970" stroke="#191970" points="494.9265,-606.7721 504.13,-601.5237 493.6623,-599.8872 494.9265,-606.7721"/>
</g>
<!-- Node22 -->
<g id="node23" class="node">
<title>Node22</title>
<g id="a_node23"><a xlink:href="GeomVector3_8h.html" target="_top" xlink:title="iDynTree/Core/GeomVector3.h">
<polygon fill="none" stroke="#000000" points="176.5,-230 176.5,-249 339.5,-249 339.5,-230 176.5,-230"/>
<text text-anchor="middle" x="258" y="-237" font-family="FreeSans.ttf" font-size="10.00" fill="#000000">iDynTree/Core/GeomVector3.h</text>
</a>
</g>
</g>
<!-- Node0&#45;&gt;Node22 -->
<g id="edge74" class="edge">
<title>Node0&#45;&gt;Node22</title>
<path fill="none" stroke="#191970" d="M209.2707,-638.4756C137.8978,-620.964 0,-581.2723 0,-536 0,-536 0,-536 0,-357 0,-311.7808 132.9213,-270.9401 207.9491,-251.4891"/>
<polygon fill="#191970" stroke="#191970" points="208.8657,-254.8675 217.6875,-249.0001 207.1322,-248.0855 208.8657,-254.8675"/>
</g>
<!-- Node2 -->
<g id="node3" class="node">
<title>Node2</title>
<g id="a_node3"><a xlink:href="Transform_8h.html" target="_top" xlink:title="iDynTree/Core/Transform.h">
<polygon fill="none" stroke="#000000" points="531,-403.5 531,-422.5 677,-422.5 677,-403.5 531,-403.5"/>
<text text-anchor="middle" x="604" y="-410.5" font-family="FreeSans.ttf" font-size="10.00" fill="#000000">iDynTree/Core/Transform.h</text>
</a>
</g>
</g>
<!-- Node1&#45;&gt;Node2 -->
<g id="edge2" class="edge">
<title>Node1&#45;&gt;Node2</title>
<path fill="none" stroke="#191970" d="M563.4545,-582.3574C569.9546,-573.4318 579.0898,-559.5347 584,-546 597.9428,-507.5677 602.169,-459.4918 603.4477,-432.9415"/>
<polygon fill="#191970" stroke="#191970" points="606.9557,-432.7972 603.8436,-422.6697 599.9609,-432.5275 606.9557,-432.7972"/>
</g>
<!-- Node27 -->
<g id="node28" class="node">
<title>Node27</title>
<g id="a_node28"><a xlink:href="Twist_8h.html" target="_top" xlink:title="iDynTree/Core/Twist.h">
<polygon fill="none" stroke="#000000" points="136,-526.5 136,-545.5 258,-545.5 258,-526.5 136,-526.5"/>
<text text-anchor="middle" x="197" y="-533.5" font-family="FreeSans.ttf" font-size="10.00" fill="#000000">iDynTree/Core/Twist.h</text>
</a>
</g>
</g>
<!-- Node1&#45;&gt;Node27 -->
<g id="edge48" class="edge">
<title>Node1&#45;&gt;Node27</title>
<path fill="none" stroke="#191970" d="M494.6936,-582.4369C431.8337,-572.6314 334.1617,-557.3957 267.9868,-547.0731"/>
<polygon fill="#191970" stroke="#191970" points="268.4735,-543.6068 258.0535,-545.5237 267.3946,-550.5232 268.4735,-543.6068"/>
</g>
<!-- Node30 -->
<g id="node31" class="node">
<title>Node30</title>
<g id="a_node31"><a xlink:href="SpatialAcc_8h.html" target="_top" xlink:title="iDynTree/Core/SpatialAcc.h">
<polygon fill="none" stroke="#000000" points="276,-526.5 276,-545.5 424,-545.5 424,-526.5 276,-526.5"/>
<text text-anchor="middle" x="350" y="-533.5" font-family="FreeSans.ttf" font-size="10.00" fill="#000000">iDynTree/Core/SpatialAcc.h</text>
</a>
</g>
</g>
<!-- Node1&#45;&gt;Node30 -->
<g id="edge59" class="edge">
<title>Node1&#45;&gt;Node30</title>
<path fill="none" stroke="#191970" d="M520.5873,-582.3733C485.7395,-572.9001 432.4118,-558.4032 394.6707,-548.1435"/>
<polygon fill="#191970" stroke="#191970" points="395.5185,-544.747 384.9506,-545.5011 393.6822,-551.5019 395.5185,-544.747"/>
</g>
<!-- Node31 -->
<g id="node32" class="node">
<title>Node31</title>
<g id="a_node32"><a xlink:href="Wrench_8h.html" target="_top" xlink:title="iDynTree/Core/Wrench.h">
<polygon fill="none" stroke="#000000" points="442.5,-526.5 442.5,-545.5 575.5,-545.5 575.5,-526.5 442.5,-526.5"/>
<text text-anchor="middle" x="509" y="-533.5" font-family="FreeSans.ttf" font-size="10.00" fill="#000000">iDynTree/Core/Wrench.h</text>
</a>
</g>
</g>
<!-- Node1&#45;&gt;Node31 -->
<g id="edge61" class="edge">
<title>Node1&#45;&gt;Node31</title>
<path fill="none" stroke="#191970" d="M547.8132,-582.2455C541.1411,-574.2958 531.5521,-562.8706 523.5747,-553.3656"/>
<polygon fill="#191970" stroke="#191970" points="526.2026,-551.0524 517.093,-545.6427 520.8408,-555.5525 526.2026,-551.0524"/>
</g>
<!-- Node33 -->
<g id="node34" class="node">
<title>Node33</title>
<g id="a_node34"><a xlink:href="ArticulatedBodyInertia_8h.html" target="_top" xlink:title="iDynTree/Core/Articulated\lBodyInertia.h">
<polygon fill="none" stroke="#000000" points="936.5,-224.5 936.5,-254.5 1077.5,-254.5 1077.5,-224.5 936.5,-224.5"/>
<text text-anchor="start" x="944.5" y="-242.5" font-family="FreeSans.ttf" font-size="10.00" fill="#000000">iDynTree/Core/Articulated</text>
<text text-anchor="middle" x="1007" y="-231.5" font-family="FreeSans.ttf" font-size="10.00" fill="#000000">BodyInertia.h</text>
</a>
</g>
</g>
<!-- Node1&#45;&gt;Node33 -->
<g id="edge66" class="edge">
<title>Node1&#45;&gt;Node33</title>
<path fill="none" stroke="#191970" d="M630.7413,-588.9022C764.5078,-581.3042 1031,-555.9467 1031,-474.5 1031,-474.5 1031,-474.5 1031,-357 1031,-324.5005 1022.0772,-287.9489 1015.1128,-264.3695"/>
<polygon fill="#191970" stroke="#191970" points="1018.3674,-263.0444 1012.0898,-254.5097 1011.6749,-265.0964 1018.3674,-263.0444"/>
</g>
<!-- Node34 -->
<g id="node35" class="node">
<title>Node34</title>
<g id="a_node35"><a xlink:href="Indices_8h.html" target="_top" xlink:title="iDynTree/Model/Indices.h">
<polygon fill="none" stroke="#000000" points="1111,-168.5 1111,-187.5 1249,-187.5 1249,-168.5 1111,-168.5"/>
<text text-anchor="middle" x="1180" y="-175.5" font-family="FreeSans.ttf" font-size="10.00" fill="#000000">iDynTree/Model/Indices.h</text>
</a>
</g>
</g>
<!-- Node1&#45;&gt;Node34 -->
<g id="edge69" class="edge">
<title>Node1&#45;&gt;Node34</title>
<path fill="none" stroke="#191970" d="M630.7501,-589.6696C773.8328,-584.6577 1075.8582,-571.2128 1116,-546 1147.2093,-526.3976 1158,-511.3547 1158,-474.5 1158,-474.5 1158,-474.5 1158,-301 1158,-263.9405 1167.7972,-221.5675 1174.3157,-197.4763"/>
<polygon fill="#191970" stroke="#191970" points="1177.705,-198.3521 1177.033,-187.7786 1170.9646,-196.4634 1177.705,-198.3521"/>
</g>
<!-- Node36 -->
<g id="node37" class="node">
<title>Node36</title>
<polygon fill="none" stroke="#bfbfbf" points="1059.5,-526.5 1059.5,-545.5 1106.5,-545.5 1106.5,-526.5 1059.5,-526.5"/>
<text text-anchor="middle" x="1083" y="-533.5" font-family="FreeSans.ttf" font-size="10.00" fill="#000000">vector</text>
</g>
<!-- Node1&#45;&gt;Node36 -->
<g id="edge73" class="edge">
<title>Node1&#45;&gt;Node36</title>
<path fill="none" stroke="#191970" d="M630.6536,-588.7762C726.9994,-583.749 899.5394,-571.8025 1045,-546 1046.4693,-545.7394 1047.965,-545.4503 1049.4718,-545.1394"/>
<polygon fill="#191970" stroke="#191970" points="1050.459,-548.5037 1059.4161,-542.845 1048.8852,-541.6829 1050.459,-548.5037"/>
</g>
<!-- Node3 -->
<g id="node4" class="node">
<title>Node3</title>
<g id="a_node4"><a xlink:href="Position_8h.html" target="_top" xlink:title="iDynTree/Core/Position.h">
<polygon fill="none" stroke="#000000" points="532,-347.5 532,-366.5 668,-366.5 668,-347.5 532,-347.5"/>
<text text-anchor="middle" x="600" y="-354.5" font-family="FreeSans.ttf" font-size="10.00" fill="#000000">iDynTree/Core/Position.h</text>
</a>
</g>
</g>
<!-- Node2&#45;&gt;Node3 -->
<g id="edge3" class="edge">
<title>Node2&#45;&gt;Node3</title>
<path fill="none" stroke="#191970" d="M603.3033,-403.2455C602.7813,-395.9382 602.0496,-385.6944 601.4075,-376.7046"/>
<polygon fill="#191970" stroke="#191970" points="604.8924,-376.3679 600.6888,-366.6427 597.9102,-376.8667 604.8924,-376.3679"/>
</g>
<!-- Node18 -->
<g id="node19" class="node">
<title>Node18</title>
<polygon fill="none" stroke="#bfbfbf" points="662,-112.5 662,-131.5 706,-131.5 706,-112.5 662,-112.5"/>
<text text-anchor="middle" x="684" y="-119.5" font-family="FreeSans.ttf" font-size="10.00" fill="#000000">string</text>
</g>
<!-- Node2&#45;&gt;Node18 -->
<g id="edge47" class="edge">
<title>Node2&#45;&gt;Node18</title>
<path fill="none" stroke="#191970" d="M658.4254,-403.4329C773.6632,-381.9468 1035.9281,-326.1288 1087,-255 1134.5436,-188.7851 1019.4781,-178.5558 989,-168 886.249,-132.4131 854.4764,-148.5236 747,-132 736.9264,-130.4513 725.9537,-128.7237 716.0302,-127.146"/>
<polygon fill="#191970" stroke="#191970" points="716.5768,-123.689 706.1503,-125.5699 715.474,-130.6016 716.5768,-123.689"/>
</g>
<!-- Node21 -->
<g id="node22" class="node">
<title>Node21</title>
<g id="a_node22"><a xlink:href="Rotation_8h.html" target="_top" xlink:title="iDynTree/Core/Rotation.h">
<polygon fill="none" stroke="#000000" points="434.5,-291.5 434.5,-310.5 571.5,-310.5 571.5,-291.5 434.5,-291.5"/>
<text text-anchor="middle" x="503" y="-298.5" font-family="FreeSans.ttf" font-size="10.00" fill="#000000">iDynTree/Core/Rotation.h</text>
</a>
</g>
</g>
<!-- Node2&#45;&gt;Node21 -->
<g id="edge45" class="edge">
<title>Node2&#45;&gt;Node21</title>
<path fill="none" stroke="#191970" d="M576.3434,-403.4786C558.7336,-396.0894 536.7314,-384.1807 523,-367 512.3831,-353.7162 507.3907,-334.8566 505.0497,-320.6973"/>
<polygon fill="#191970" stroke="#191970" points="508.4861,-319.9897 503.6839,-310.5457 501.5486,-320.9231 508.4861,-319.9897"/>
</g>
<!-- Node24 -->
<g id="node25" class="node">
<title>Node24</title>
<g id="a_node25"><a xlink:href="MatrixFixSize_8h.html" target="_top" xlink:title="iDynTree/Core/MatrixFixSize.h">
<polygon fill="none" stroke="#000000" points="795.5,-168.5 795.5,-187.5 956.5,-187.5 956.5,-168.5 795.5,-168.5"/>
<text text-anchor="middle" x="876" y="-175.5" font-family="FreeSans.ttf" font-size="10.00" fill="#000000">iDynTree/Core/MatrixFixSize.h</text>
</a>
</g>
</g>
<!-- Node2&#45;&gt;Node24 -->
<g id="edge46" class="edge">
<title>Node2&#45;&gt;Node24</title>
<path fill="none" stroke="#191970" d="M632.501,-403.4684C675.3038,-388.2854 757.5017,-355.6955 817,-311 843.6773,-290.9599 853.3154,-285.4305 867,-255 875.1287,-236.9241 876.8837,-214.1655 876.908,-198.0925"/>
<polygon fill="#191970" stroke="#191970" points="880.3995,-197.6557 876.6861,-187.733 873.4011,-197.8057 880.3995,-197.6557"/>
</g>
<!-- Node4 -->
<g id="node5" class="node">
<title>Node4</title>
<g id="a_node5"><a xlink:href="PositionRaw_8h.html" target="_top" xlink:title="iDynTree/Core/PositionRaw.h">
<polygon fill="none" stroke="#000000" points="510,-230 510,-249 666,-249 666,-230 510,-230"/>
<text text-anchor="middle" x="588" y="-237" font-family="FreeSans.ttf" font-size="10.00" fill="#000000">iDynTree/Core/PositionRaw.h</text>
</a>
</g>
</g>
<!-- Node3&#45;&gt;Node4 -->
<g id="edge4" class="edge">
<title>Node3&#45;&gt;Node4</title>
<path fill="none" stroke="#191970" d="M599.018,-347.3845C597.0578,-328.1913 592.625,-284.786 590.0187,-259.2663"/>
<polygon fill="#191970" stroke="#191970" points="593.4935,-258.841 588.9956,-249.2484 586.5298,-259.5523 593.4935,-258.841"/>
</g>
<!-- Node3&#45;&gt;Node18 -->
<g id="edge44" class="edge">
<title>Node3&#45;&gt;Node18</title>
<path fill="none" stroke="#191970" d="M668.2359,-349.9948C727.6702,-339.8789 810.4886,-315.1915 851,-255 858.6929,-243.5699 857.9949,-235.8701 851,-224 834.2341,-195.5487 814.3239,-204.9801 786,-188 758.2652,-171.3731 727.1672,-150.99 706.6815,-137.313"/>
<polygon fill="#191970" stroke="#191970" points="708.5849,-134.3754 698.3294,-131.7156 704.6879,-140.1903 708.5849,-134.3754"/>
</g>
<!-- Node3&#45;&gt;Node21 -->
<g id="edge25" class="edge">
<title>Node3&#45;&gt;Node21</title>
<path fill="none" stroke="#191970" d="M583.1039,-347.2455C568.082,-338.5731 545.8957,-325.7645 528.679,-315.825"/>
<polygon fill="#191970" stroke="#191970" points="530.1128,-312.6114 519.7025,-310.6427 526.6129,-318.6737 530.1128,-312.6114"/>
</g>
<!-- Node5 -->
<g id="node6" class="node">
<title>Node5</title>
<g id="a_node6"><a xlink:href="VectorFixSize_8h.html" target="_top" xlink:title="iDynTree/Core/VectorFixSize.h">
<polygon fill="none" stroke="#000000" points="258.5,-168.5 258.5,-187.5 419.5,-187.5 419.5,-168.5 258.5,-168.5"/>
<text text-anchor="middle" x="339" y="-175.5" font-family="FreeSans.ttf" font-size="10.00" fill="#000000">iDynTree/Core/VectorFixSize.h</text>
</a>
</g>
</g>
<!-- Node4&#45;&gt;Node5 -->
<g id="edge5" class="edge">
<title>Node4&#45;&gt;Node5</title>
<path fill="none" stroke="#191970" d="M549.367,-229.9581C505.7519,-219.1857 434.7247,-201.6428 387.4359,-189.9631"/>
<polygon fill="#191970" stroke="#191970" points="388.2712,-186.5643 377.7237,-187.5643 386.5927,-193.3601 388.2712,-186.5643"/>
</g>
<!-- Node4&#45;&gt;Node18 -->
<g id="edge24" class="edge">
<title>Node4&#45;&gt;Node18</title>
<path fill="none" stroke="#191970" d="M595.8561,-229.8845C611.9592,-210.1749 648.923,-164.9328 669.5011,-139.7461"/>
<polygon fill="#191970" stroke="#191970" points="672.4187,-141.7068 676.0354,-131.7484 666.9979,-137.2779 672.4187,-141.7068"/>
</g>
<!-- Node6 -->
<g id="node7" class="node">
<title>Node6</title>
<g id="a_node7"><a xlink:href="Utils_8h.html" target="_top" xlink:title="iDynTree/Core/Utils.h">
<polygon fill="none" stroke="#000000" points="339.5,-56.5 339.5,-75.5 458.5,-75.5 458.5,-56.5 339.5,-56.5"/>
<text text-anchor="middle" x="399" y="-63.5" font-family="FreeSans.ttf" font-size="10.00" fill="#000000">iDynTree/Core/Utils.h</text>
</a>
</g>
</g>
<!-- Node5&#45;&gt;Node6 -->
<g id="edge6" class="edge">
<title>Node5&#45;&gt;Node6</title>
<path fill="none" stroke="#191970" d="M349.9128,-168.4423C359.1638,-159.785 372.1451,-146.2377 380,-132 387.9198,-117.6447 392.8132,-99.67 395.6465,-86.1053"/>
<polygon fill="#191970" stroke="#191970" points="399.1526,-86.3993 397.5632,-75.9244 392.2734,-85.1042 399.1526,-86.3993"/>
</g>
<!-- Node7 -->
<g id="node8" class="node">
<title>Node7</title>
<polygon fill="none" stroke="#bfbfbf" points="372.5,-.5 372.5,-19.5 425.5,-19.5 425.5,-.5 372.5,-.5"/>
<text text-anchor="middle" x="399" y="-7.5" font-family="FreeSans.ttf" font-size="10.00" fill="#000000">cstddef</text>
</g>
<!-- Node5&#45;&gt;Node7 -->
<g id="edge22" class="edge">
<title>Node5&#45;&gt;Node7</title>
<path fill="none" stroke="#191970" d="M329.3508,-168.4346C321.35,-159.7723 310.5738,-146.2221 306,-132 303.2786,-123.5379 304.2127,-120.7074 306,-112 311.4445,-85.4747 312.6835,-76.8176 330,-56 340.7721,-43.0499 356.1104,-32.3286 369.591,-24.5039"/>
<polygon fill="#191970" stroke="#191970" points="371.486,-27.4557 378.548,-19.5577 368.1021,-21.3279 371.486,-27.4557"/>
</g>
<!-- Node9 -->
<g id="node10" class="node">
<title>Node9</title>
<g id="a_node10"><a xlink:href="Span_8h.html" target="_top" xlink:title="iDynTree/Core/Span.h">
<polygon fill="none" stroke="#000000" points="695.5,-56.5 695.5,-75.5 816.5,-75.5 816.5,-56.5 695.5,-56.5"/>
<text text-anchor="middle" x="756" y="-63.5" font-family="FreeSans.ttf" font-size="10.00" fill="#000000">iDynTree/Core/Span.h</text>
</a>
</g>
</g>
<!-- Node5&#45;&gt;Node9 -->
<g id="edge9" class="edge">
<title>Node5&#45;&gt;Node9</title>
<path fill="none" stroke="#191970" d="M354.5742,-168.4934C379.07,-153.9857 428.5077,-126.4826 474,-112 544.0073,-89.713 627.3992,-77.8172 685.2562,-71.7488"/>
<polygon fill="#191970" stroke="#191970" points="685.7985,-75.2118 695.393,-70.7178 685.0901,-68.2477 685.7985,-75.2118"/>
</g>
<!-- Node10 -->
<g id="node11" class="node">
<title>Node10</title>
<polygon fill="none" stroke="#bfbfbf" points="954,-.5 954,-19.5 1006,-19.5 1006,-.5 954,-.5"/>
<text text-anchor="middle" x="980" y="-7.5" font-family="FreeSans.ttf" font-size="10.00" fill="#000000">cassert</text>
</g>
<!-- Node5&#45;&gt;Node10 -->
<g id="edge21" class="edge">
<title>Node5&#45;&gt;Node10</title>
<path fill="none" stroke="#191970" d="M367.0582,-168.422C392.5617,-159.5398 431.1171,-145.6702 464,-132 483.4624,-123.9091 486.7093,-117.704 507,-112 643.9286,-73.5076 687.4586,-112.2417 825,-76 871.7023,-63.6941 922.6462,-39.8031 952.9283,-24.3926"/>
<polygon fill="#191970" stroke="#191970" points="954.7193,-27.4071 962.0026,-19.7127 951.5107,-21.1857 954.7193,-27.4071"/>
</g>
<!-- Node5&#45;&gt;Node18 -->
<g id="edge19" class="edge">
<title>Node5&#45;&gt;Node18</title>
<path fill="none" stroke="#191970" d="M419.7066,-169.923C481.1111,-162.9149 567.7549,-151.1776 651.804,-131.9756"/>
<polygon fill="#191970" stroke="#191970" points="652.825,-135.3317 661.7736,-129.6595 651.2409,-128.5133 652.825,-135.3317"/>
</g>
<!-- Node19 -->
<g id="node20" class="node">
<title>Node19</title>
<polygon fill="none" stroke="#bfbfbf" points="315,-112.5 315,-131.5 371,-131.5 371,-112.5 315,-112.5"/>
<text text-anchor="middle" x="343" y="-119.5" font-family="FreeSans.ttf" font-size="10.00" fill="#000000">sstream</text>
</g>
<!-- Node5&#45;&gt;Node19 -->
<g id="edge20" class="edge">
<title>Node5&#45;&gt;Node19</title>
<path fill="none" stroke="#191970" d="M339.6967,-168.2455C340.2187,-160.9382 340.9504,-150.6944 341.5925,-141.7046"/>
<polygon fill="#191970" stroke="#191970" points="345.0898,-141.8667 342.3112,-131.6427 338.1076,-141.3679 345.0898,-141.8667"/>
</g>
<!-- Node20 -->
<g id="node21" class="node">
<title>Node20</title>
<polygon fill="none" stroke="#bfbfbf" points="516,-112.5 516,-131.5 566,-131.5 566,-112.5 516,-112.5"/>
<text text-anchor="middle" x="541" y="-119.5" font-family="FreeSans.ttf" font-size="10.00" fill="#000000">cstring</text>
</g>
<!-- Node5&#45;&gt;Node20 -->
<g id="edge23" class="edge">
<title>Node5&#45;&gt;Node20</title>
<path fill="none" stroke="#191970" d="M373.725,-168.3733C410.7409,-158.1114 469.0206,-141.9547 506.1024,-131.6746"/>
<polygon fill="#191970" stroke="#191970" points="507.2625,-134.9851 515.964,-128.9407 505.3924,-128.2395 507.2625,-134.9851"/>
</g>
<!-- Node6&#45;&gt;Node7 -->
<g id="edge7" class="edge">
<title>Node6&#45;&gt;Node7</title>
<path fill="none" stroke="#191970" d="M399,-56.2455C399,-48.9382 399,-38.6944 399,-29.7046"/>
<polygon fill="#191970" stroke="#191970" points="402.5001,-29.6426 399,-19.6427 395.5001,-29.6427 402.5001,-29.6426"/>
</g>
<!-- Node8 -->
<g id="node9" class="node">
<title>Node8</title>
<polygon fill="none" stroke="#bfbfbf" points="274,-.5 274,-19.5 354,-19.5 354,-.5 274,-.5"/>
<text text-anchor="middle" x="314" y="-7.5" font-family="FreeSans.ttf" font-size="10.00" fill="#000000">CoreExport.h</text>
</g>
<!-- Node6&#45;&gt;Node8 -->
<g id="edge8" class="edge">
<title>Node6&#45;&gt;Node8</title>
<path fill="none" stroke="#191970" d="M384.1941,-56.2455C371.2744,-47.7337 352.3069,-35.2375 337.3448,-25.3801"/>
<polygon fill="#191970" stroke="#191970" points="338.9124,-22.2216 328.6362,-19.6427 335.0613,-28.067 338.9124,-22.2216"/>
</g>
<!-- Node9&#45;&gt;Node7 -->
<g id="edge13" class="edge">
<title>Node9&#45;&gt;Node7</title>
<path fill="none" stroke="#191970" d="M695.3592,-57.7924C615.9246,-46.9768 482.0398,-28.5072 435.5177,-19.9684"/>
<polygon fill="#191970" stroke="#191970" points="436.1472,-16.5252 425.6587,-18.0222 434.7915,-23.3927 436.1472,-16.5252"/>
</g>
<!-- Node9&#45;&gt;Node10 -->
<g id="edge10" class="edge">
<title>Node9&#45;&gt;Node10</title>
<path fill="none" stroke="#191970" d="M797.4125,-56.4183C833.6854,-47.9143 888.0453,-34.9025 943.9439,-20.2129"/>
<polygon fill="#191970" stroke="#191970" points="944.8829,-23.5849 953.6575,-17.6471 943.0952,-16.817 944.8829,-23.5849"/>
</g>
<!-- Node11 -->
<g id="node12" class="node">
<title>Node11</title>
<polygon fill="none" stroke="#bfbfbf" points="724,-.5 724,-19.5 788,-19.5 788,-.5 724,-.5"/>
<text text-anchor="middle" x="756" y="-7.5" font-family="FreeSans.ttf" font-size="10.00" fill="#000000">algorithm</text>
</g>
<!-- Node9&#45;&gt;Node11 -->
<g id="edge11" class="edge">
<title>Node9&#45;&gt;Node11</title>
<path fill="none" stroke="#191970" d="M756,-56.2455C756,-48.9382 756,-38.6944 756,-29.7046"/>
<polygon fill="#191970" stroke="#191970" points="759.5001,-29.6426 756,-19.6427 752.5001,-29.6427 759.5001,-29.6426"/>
</g>
<!-- Node12 -->
<g id="node13" class="node">
<title>Node12</title>
<polygon fill="none" stroke="#bfbfbf" points="806,-.5 806,-19.5 848,-19.5 848,-.5 806,-.5"/>
<text text-anchor="middle" x="827" y="-7.5" font-family="FreeSans.ttf" font-size="10.00" fill="#000000">array</text>
</g>
<!-- Node9&#45;&gt;Node12 -->
<g id="edge12" class="edge">
<title>Node9&#45;&gt;Node12</title>
<path fill="none" stroke="#191970" d="M768.3673,-56.2455C778.9554,-47.8943 794.4064,-35.7076 806.7893,-25.9408"/>
<polygon fill="#191970" stroke="#191970" points="809.0903,-28.5837 814.7745,-19.6427 804.7553,-23.0875 809.0903,-28.5837"/>
</g>
<!-- Node13 -->
<g id="node14" class="node">
<title>Node13</title>
<polygon fill="none" stroke="#bfbfbf" points="443.5,-.5 443.5,-19.5 496.5,-19.5 496.5,-.5 443.5,-.5"/>
<text text-anchor="middle" x="470" y="-7.5" font-family="FreeSans.ttf" font-size="10.00" fill="#000000">iterator</text>
</g>
<!-- Node9&#45;&gt;Node13 -->
<g id="edge14" class="edge">
<title>Node9&#45;&gt;Node13</title>
<path fill="none" stroke="#191970" d="M695.8336,-56.4738C647.2849,-48.4352 577.054,-36.0161 506.6082,-19.9794"/>
<polygon fill="#191970" stroke="#191970" points="507.199,-16.524 496.6688,-17.6926 505.6294,-23.3457 507.199,-16.524"/>
</g>
<!-- Node14 -->
<g id="node15" class="node">
<title>Node14</title>
<polygon fill="none" stroke="#bfbfbf" points="515,-.5 515,-19.5 559,-19.5 559,-.5 515,-.5"/>
<text text-anchor="middle" x="537" y="-7.5" font-family="FreeSans.ttf" font-size="10.00" fill="#000000">limits</text>
</g>
<!-- Node9&#45;&gt;Node14 -->
<g id="edge15" class="edge">
<title>Node9&#45;&gt;Node14</title>
<path fill="none" stroke="#191970" d="M713.2111,-56.4565C677.1228,-48.2003 623.9158,-35.5456 569.1673,-20.1967"/>
<polygon fill="#191970" stroke="#191970" points="569.8677,-16.7575 559.2925,-17.4032 567.9622,-23.4932 569.8677,-16.7575"/>
</g>
<!-- Node15 -->
<g id="node16" class="node">
<title>Node15</title>
<polygon fill="none" stroke="#bfbfbf" points="577.5,-.5 577.5,-19.5 642.5,-19.5 642.5,-.5 577.5,-.5"/>
<text text-anchor="middle" x="610" y="-7.5" font-family="FreeSans.ttf" font-size="10.00" fill="#000000">stdexcept</text>
</g>
<!-- Node9&#45;&gt;Node15 -->
<g id="edge16" class="edge">
<title>Node9&#45;&gt;Node15</title>
<path fill="none" stroke="#191970" d="M730.9017,-56.3733C707.0445,-47.2226 670.9665,-33.3844 644.429,-23.2057"/>
<polygon fill="#191970" stroke="#191970" points="645.361,-19.8145 634.7708,-19.5011 642.8541,-26.3503 645.361,-19.8145"/>
</g>
<!-- Node16 -->
<g id="node17" class="node">
<title>Node16</title>
<polygon fill="none" stroke="#bfbfbf" points="866.5,-.5 866.5,-19.5 935.5,-19.5 935.5,-.5 866.5,-.5"/>
<text text-anchor="middle" x="901" y="-7.5" font-family="FreeSans.ttf" font-size="10.00" fill="#000000">type_traits</text>
</g>
<!-- Node9&#45;&gt;Node16 -->
<g id="edge17" class="edge">
<title>Node9&#45;&gt;Node16</title>
<path fill="none" stroke="#191970" d="M780.9264,-56.3733C804.6202,-47.2226 840.4511,-33.3844 866.8068,-23.2057"/>
<polygon fill="#191970" stroke="#191970" points="868.3314,-26.3689 876.3989,-19.5011 865.8094,-19.8389 868.3314,-26.3689"/>
</g>
<!-- Node17 -->
<g id="node18" class="node">
<title>Node17</title>
<polygon fill="none" stroke="#bfbfbf" points="660.5,-.5 660.5,-19.5 705.5,-19.5 705.5,-.5 660.5,-.5"/>
<text text-anchor="middle" x="683" y="-7.5" font-family="FreeSans.ttf" font-size="10.00" fill="#000000">utility</text>
</g>
<!-- Node9&#45;&gt;Node17 -->
<g id="edge18" class="edge">
<title>Node9&#45;&gt;Node17</title>
<path fill="none" stroke="#191970" d="M743.2844,-56.2455C732.398,-47.8943 716.5117,-35.7076 703.78,-25.9408"/>
<polygon fill="#191970" stroke="#191970" points="705.6346,-22.9523 695.5699,-19.6427 701.3739,-28.5063 705.6346,-22.9523"/>
</g>
<!-- Node21&#45;&gt;Node5 -->
<g id="edge43" class="edge">
<title>Node21&#45;&gt;Node5</title>
<path fill="none" stroke="#191970" d="M490.1312,-291.3484C461.9887,-270.2415 394.7376,-219.8032 360.2256,-193.9192"/>
<polygon fill="#191970" stroke="#191970" points="361.9091,-190.8068 351.809,-187.6068 357.709,-196.4068 361.9091,-190.8068"/>
</g>
<!-- Node21&#45;&gt;Node18 -->
<g id="edge26" class="edge">
<title>Node21&#45;&gt;Node18</title>
<path fill="none" stroke="#191970" d="M499.6568,-291.1882C495.0225,-275.712 488.5366,-245.2155 501,-224 517.9347,-195.1734 604.9162,-155.149 652.6097,-134.8744"/>
<polygon fill="#191970" stroke="#191970" points="654.0132,-138.0811 661.8718,-130.9753 651.2972,-131.6294 654.0132,-138.0811"/>
</g>
<!-- Node21&#45;&gt;Node22 -->
<g id="edge27" class="edge">
<title>Node21&#45;&gt;Node22</title>
<path fill="none" stroke="#191970" d="M464.9876,-291.4581C422.1629,-280.7082 352.4792,-263.2162 305.9501,-251.5365"/>
<polygon fill="#191970" stroke="#191970" points="306.6529,-248.1043 296.1016,-249.0643 304.9485,-254.8937 306.6529,-248.1043"/>
</g>
<!-- Node23 -->
<g id="node24" class="node">
<title>Node23</title>
<g id="a_node24"><a xlink:href="RotationRaw_8h.html" target="_top" xlink:title="iDynTree/Core/RotationRaw.h">
<polygon fill="none" stroke="#000000" points="684,-230 684,-249 842,-249 842,-230 684,-230"/>
<text text-anchor="middle" x="763" y="-237" font-family="FreeSans.ttf" font-size="10.00" fill="#000000">iDynTree/Core/RotationRaw.h</text>
</a>
</g>
</g>
<!-- Node21&#45;&gt;Node23 -->
<g id="edge29" class="edge">
<title>Node21&#45;&gt;Node23</title>
<path fill="none" stroke="#191970" d="M543.3397,-291.4581C588.9768,-280.6632 663.357,-263.0694 712.734,-251.3899"/>
<polygon fill="#191970" stroke="#191970" points="713.6398,-254.7722 722.5656,-249.0643 712.0285,-247.9602 713.6398,-254.7722"/>
</g>
<!-- Node22&#45;&gt;Node5 -->
<g id="edge28" class="edge">
<title>Node22&#45;&gt;Node5</title>
<path fill="none" stroke="#191970" d="M270.6563,-229.8906C283.3768,-220.2324 303.2004,-205.1812 318.2284,-193.771"/>
<polygon fill="#191970" stroke="#191970" points="320.5846,-196.3766 326.4326,-187.5419 316.3516,-190.8015 320.5846,-196.3766"/>
</g>
<!-- Node23&#45;&gt;Node18 -->
<g id="edge42" class="edge">
<title>Node23&#45;&gt;Node18</title>
<path fill="none" stroke="#191970" d="M756.5351,-229.8845C743.3414,-210.261 713.1308,-165.3274 696.154,-140.0772"/>
<polygon fill="#191970" stroke="#191970" points="699.0384,-138.0942 690.5542,-131.7484 693.2293,-142 699.0384,-138.0942"/>
</g>
<!-- Node23&#45;&gt;Node24 -->
<g id="edge30" class="edge">
<title>Node23&#45;&gt;Node24</title>
<path fill="none" stroke="#191970" d="M780.6563,-229.8906C799.1486,-219.8262 828.401,-203.9057 849.6308,-192.3514"/>
<polygon fill="#191970" stroke="#191970" points="851.3575,-195.3965 858.4677,-187.5419 848.0112,-189.2481 851.3575,-195.3965"/>
</g>
<!-- Node24&#45;&gt;Node6 -->
<g id="edge31" class="edge">
<title>Node24&#45;&gt;Node6</title>
<path fill="none" stroke="#191970" d="M850.0274,-168.4186C825.9899,-159.4229 789.3436,-145.3825 758,-132 738.6157,-123.7237 735.1973,-118.0261 715,-112 632.4252,-87.3628 533.63,-75.6854 468.7526,-70.3128"/>
<polygon fill="#191970" stroke="#191970" points="468.8864,-66.8124 458.6391,-69.5037 468.3281,-73.7901 468.8864,-66.8124"/>
</g>
<!-- Node24&#45;&gt;Node10 -->
<g id="edge37" class="edge">
<title>Node24&#45;&gt;Node10</title>
<path fill="none" stroke="#191970" d="M908.3626,-168.4904C926.6987,-161.4048 948.4214,-149.8211 961,-132 982.6429,-101.3367 983.5685,-55.5482 981.9917,-29.6678"/>
<polygon fill="#191970" stroke="#191970" points="985.4727,-29.2887 981.1863,-19.5997 978.495,-29.847 985.4727,-29.2887"/>
</g>
<!-- Node24&#45;&gt;Node18 -->
<g id="edge39" class="edge">
<title>Node24&#45;&gt;Node18</title>
<path fill="none" stroke="#191970" d="M842.994,-168.3733C807.3754,-157.9845 751.0427,-141.5541 715.8715,-131.2959"/>
<polygon fill="#191970" stroke="#191970" points="716.6949,-127.8902 706.1149,-128.4502 714.7349,-134.6102 716.6949,-127.8902"/>
</g>
<!-- Node24&#45;&gt;Node19 -->
<g id="edge41" class="edge">
<title>Node24&#45;&gt;Node19</title>
<path fill="none" stroke="#191970" d="M795.3383,-169.5252C678.7024,-157.2708 467.4989,-135.0806 381.2473,-126.0185"/>
<polygon fill="#191970" stroke="#191970" points="381.4339,-122.5189 371.1229,-124.9547 380.7024,-129.4806 381.4339,-122.5189"/>
</g>
<!-- Node24&#45;&gt;Node20 -->
<g id="edge38" class="edge">
<title>Node24&#45;&gt;Node20</title>
<path fill="none" stroke="#191970" d="M795.2859,-168.6585C736.8615,-161.2045 655.8886,-149.454 576.3488,-132.069"/>
<polygon fill="#191970" stroke="#191970" points="576.6735,-128.556 566.1528,-129.8073 575.1575,-135.3899 576.6735,-128.556"/>
</g>
<!-- Node25 -->
<g id="node26" class="node">
<title>Node25</title>
<g id="a_node26"><a xlink:href="MatrixView_8h.html" target="_top" xlink:title="iDynTree/Core/MatrixView.h">
<polygon fill="none" stroke="#000000" points="800.5,-112.5 800.5,-131.5 951.5,-131.5 951.5,-112.5 800.5,-112.5"/>
<text text-anchor="middle" x="876" y="-119.5" font-family="FreeSans.ttf" font-size="10.00" fill="#000000">iDynTree/Core/MatrixView.h</text>
</a>
</g>
</g>
<!-- Node24&#45;&gt;Node25 -->
<g id="edge32" class="edge">
<title>Node24&#45;&gt;Node25</title>
<path fill="none" stroke="#191970" d="M876,-168.2455C876,-160.9382 876,-150.6944 876,-141.7046"/>
<polygon fill="#191970" stroke="#191970" points="879.5001,-141.6426 876,-131.6427 872.5001,-141.6427 879.5001,-141.6426"/>
</g>
<!-- Node26 -->
<g id="node27" class="node">
<title>Node26</title>
<polygon fill="none" stroke="#bfbfbf" points="584,-112.5 584,-131.5 644,-131.5 644,-112.5 584,-112.5"/>
<text text-anchor="middle" x="614" y="-119.5" font-family="FreeSans.ttf" font-size="10.00" fill="#000000">iostream</text>
</g>
<!-- Node24&#45;&gt;Node26 -->
<g id="edge40" class="edge">
<title>Node24&#45;&gt;Node26</title>
<path fill="none" stroke="#191970" d="M826.2533,-168.4425C783.1744,-160.0072 718.9606,-147.055 654.1776,-132.1973"/>
<polygon fill="#191970" stroke="#191970" points="654.7299,-128.7329 644.199,-129.8945 653.1558,-135.5536 654.7299,-128.7329"/>
</g>
<!-- Node25&#45;&gt;Node6 -->
<g id="edge36" class="edge">
<title>Node25&#45;&gt;Node6</title>
<path fill="none" stroke="#191970" d="M800.4179,-113.1266C709.2299,-102.4211 557.1773,-84.5701 468.7035,-74.1832"/>
<polygon fill="#191970" stroke="#191970" points="469.1046,-70.7064 458.7647,-73.0164 468.2883,-77.6586 469.1046,-70.7064"/>
</g>
<!-- Node25&#45;&gt;Node9 -->
<g id="edge35" class="edge">
<title>Node25&#45;&gt;Node9</title>
<path fill="none" stroke="#191970" d="M855.3713,-112.3733C836.1081,-103.3838 807.1514,-89.8706 785.4581,-79.7471"/>
<polygon fill="#191970" stroke="#191970" points="786.9015,-76.5584 776.3595,-75.5011 783.9413,-82.9017 786.9015,-76.5584"/>
</g>
<!-- Node25&#45;&gt;Node10 -->
<g id="edge33" class="edge">
<title>Node25&#45;&gt;Node10</title>
<path fill="none" stroke="#191970" d="M884.867,-112.4509C902.4432,-93.5227 941.9155,-51.014 964.0955,-27.1279"/>
<polygon fill="#191970" stroke="#191970" points="966.9157,-29.2344 971.1555,-19.5249 961.7861,-24.4713 966.9157,-29.2344"/>
</g>
<!-- Node25&#45;&gt;Node16 -->
<g id="edge34" class="edge">
<title>Node25&#45;&gt;Node16</title>
<path fill="none" stroke="#191970" d="M878.1315,-112.4509C882.2274,-94.1013 891.2699,-53.5908 896.6765,-29.3693"/>
<polygon fill="#191970" stroke="#191970" points="900.1112,-30.0472 898.8739,-19.5249 893.2794,-28.5222 900.1112,-30.0472"/>
</g>
<!-- Node28 -->
<g id="node29" class="node">
<title>Node28</title>
<g id="a_node29"><a xlink:href="SpatialMotionVector_8h.html" target="_top" xlink:title="iDynTree/Core/SpatialMotion\lVector.h">
<polygon fill="none" stroke="#000000" points="119.5,-459.5 119.5,-489.5 274.5,-489.5 274.5,-459.5 119.5,-459.5"/>
<text text-anchor="start" x="127.5" y="-477.5" font-family="FreeSans.ttf" font-size="10.00" fill="#000000">iDynTree/Core/SpatialMotion</text>
<text text-anchor="middle" x="197" y="-466.5" font-family="FreeSans.ttf" font-size="10.00" fill="#000000">Vector.h</text>
</a>
</g>
</g>
<!-- Node27&#45;&gt;Node28 -->
<g id="edge49" class="edge">
<title>Node27&#45;&gt;Node28</title>
<path fill="none" stroke="#191970" d="M197,-526.3906C197,-519.2234 197,-509.0862 197,-499.671"/>
<polygon fill="#191970" stroke="#191970" points="200.5001,-499.5446 197,-489.5446 193.5001,-499.5446 200.5001,-499.5446"/>
</g>
<!-- Node28&#45;&gt;Node5 -->
<g id="edge50" class="edge">
<title>Node28&#45;&gt;Node5</title>
<path fill="none" stroke="#191970" d="M184.8211,-459.2988C177.8133,-449.5503 169.6866,-436.2728 166,-423 149.9106,-365.0729 24.3808,-408.7035 167,-224 179.0167,-208.4374 221.5667,-196.9824 261.3355,-189.3957"/>
<polygon fill="#191970" stroke="#191970" points="262.1645,-192.802 271.366,-187.5501 260.8977,-185.9176 262.1645,-192.802"/>
</g>
<!-- Node28&#45;&gt;Node22 -->
<g id="edge51" class="edge">
<title>Node28&#45;&gt;Node22</title>
<path fill="none" stroke="#191970" d="M185.9143,-459.4451C176.7579,-445.1697 166.012,-422.9923 171,-403 185.3279,-345.5722 224.0332,-286.1958 244.6504,-257.3656"/>
<polygon fill="#191970" stroke="#191970" points="247.5977,-259.2639 250.6549,-249.1197 241.939,-255.1433 247.5977,-259.2639"/>
</g>
<!-- Node29 -->
<g id="node30" class="node">
<title>Node29</title>
<g id="a_node30"><a xlink:href="SpatialVector_8h.html" target="_top" xlink:title="iDynTree/Core/SpatialVector.h">
<polygon fill="none" stroke="#000000" points="180.5,-403.5 180.5,-422.5 341.5,-422.5 341.5,-403.5 180.5,-403.5"/>
<text text-anchor="middle" x="261" y="-410.5" font-family="FreeSans.ttf" font-size="10.00" fill="#000000">iDynTree/Core/SpatialVector.h</text>
</a>
</g>
</g>
<!-- Node28&#45;&gt;Node29 -->
<g id="edge52" class="edge">
<title>Node28&#45;&gt;Node29</title>
<path fill="none" stroke="#191970" d="M212.8202,-459.2977C222.0742,-450.4052 233.7781,-439.1586 243.333,-429.9769"/>
<polygon fill="#191970" stroke="#191970" points="245.9674,-432.2995 250.7528,-422.8469 241.1172,-427.2521 245.9674,-432.2995"/>
</g>
<!-- Node29&#45;&gt;Node3 -->
<g id="edge53" class="edge">
<title>Node29&#45;&gt;Node3</title>
<path fill="none" stroke="#191970" d="M318.891,-403.4369C378.0052,-393.6717 469.7227,-378.5207 532.1966,-368.2006"/>
<polygon fill="#191970" stroke="#191970" points="533.052,-371.6068 542.3478,-366.5237 531.911,-364.7004 533.052,-371.6068"/>
</g>
<!-- Node29&#45;&gt;Node6 -->
<g id="edge55" class="edge">
<title>Node29&#45;&gt;Node6</title>
<path fill="none" stroke="#191970" d="M241.6159,-403.3845C226.6787,-395.2503 206.2383,-382.463 192,-367 147.5314,-318.7064 136.106,-286.8708 155,-224 180.2648,-139.9301 283.8461,-97.1608 347.6522,-78.3804"/>
<polygon fill="#191970" stroke="#191970" points="348.8723,-81.6722 357.5331,-75.5696 346.957,-74.9394 348.8723,-81.6722"/>
</g>
<!-- Node29&#45;&gt;Node19 -->
<g id="edge58" class="edge">
<title>Node29&#45;&gt;Node19</title>
<path fill="none" stroke="#191970" d="M249.505,-403.4779C217.3401,-375.6373 131.0663,-292.0539 167,-224 194.7843,-171.38 262.2365,-143.8406 305.1041,-131.1616"/>
<polygon fill="#191970" stroke="#191970" points="306.2344,-134.4794 314.9069,-128.3934 304.332,-127.7428 306.2344,-134.4794"/>
</g>
<!-- Node29&#45;&gt;Node21 -->
<g id="edge54" class="edge">
<title>Node29&#45;&gt;Node21</title>
<path fill="none" stroke="#191970" d="M281.6328,-403.4509C324.4958,-383.6135 423.3218,-337.8758 473.1403,-314.8194"/>
<polygon fill="#191970" stroke="#191970" points="474.8143,-317.9014 482.4194,-310.5249 471.8742,-311.5487 474.8143,-317.9014"/>
</g>
<!-- Node29&#45;&gt;Node22 -->
<g id="edge56" class="edge">
<title>Node29&#45;&gt;Node22</title>
<path fill="none" stroke="#191970" d="M260.8344,-403.4248C260.3602,-375.999 258.9896,-296.732 258.344,-259.3964"/>
<polygon fill="#191970" stroke="#191970" points="261.8412,-259.1975 258.1688,-249.2595 254.8423,-259.3186 261.8412,-259.1975"/>
</g>
<!-- Node29&#45;&gt;Node26 -->
<g id="edge57" class="edge">
<title>Node29&#45;&gt;Node26</title>
<path fill="none" stroke="#191970" d="M271.3682,-403.126C307.5406,-368.8771 432.0394,-252.6662 544,-168 558.5131,-157.025 575.5618,-145.7893 589.2003,-137.1696"/>
<polygon fill="#191970" stroke="#191970" points="591.3988,-139.923 598.0244,-131.6554 587.6892,-133.9867 591.3988,-139.923"/>
</g>
<!-- Node30&#45;&gt;Node28 -->
<g id="edge60" class="edge">
<title>Node30&#45;&gt;Node28</title>
<path fill="none" stroke="#191970" d="M326.0938,-526.3906C304.1408,-517.5664 270.9883,-504.2404 243.7771,-493.3026"/>
<polygon fill="#191970" stroke="#191970" points="245.0119,-490.0268 234.428,-489.5446 242.4011,-496.5217 245.0119,-490.0268"/>
</g>
<!-- Node32 -->
<g id="node33" class="node">
<title>Node32</title>
<g id="a_node33"><a xlink:href="SpatialForceVector_8h.html" target="_top" xlink:title="iDynTree/Core/SpatialForce\lVector.h">
<polygon fill="none" stroke="#000000" points="315,-459.5 315,-489.5 463,-489.5 463,-459.5 315,-459.5"/>
<text text-anchor="start" x="323" y="-477.5" font-family="FreeSans.ttf" font-size="10.00" fill="#000000">iDynTree/Core/SpatialForce</text>
<text text-anchor="middle" x="389" y="-466.5" font-family="FreeSans.ttf" font-size="10.00" fill="#000000">Vector.h</text>
</a>
</g>
</g>
<!-- Node31&#45;&gt;Node32 -->
<g id="edge62" class="edge">
<title>Node31&#45;&gt;Node32</title>
<path fill="none" stroke="#191970" d="M490.25,-526.3906C473.4831,-517.7976 448.3866,-504.9356 427.3748,-494.1671"/>
<polygon fill="#191970" stroke="#191970" points="428.851,-490.9908 418.3553,-489.5446 425.6583,-497.2203 428.851,-490.9908"/>
</g>
<!-- Node32&#45;&gt;Node5 -->
<g id="edge63" class="edge">
<title>Node32&#45;&gt;Node5</title>
<path fill="none" stroke="#191970" d="M386.6683,-459.2224C380.6548,-420.0611 363.9711,-312.917 348,-224 346.4571,-215.41 344.6273,-205.9437 343.0219,-197.8432"/>
<polygon fill="#191970" stroke="#191970" points="346.4168,-196.971 341.0197,-187.8539 339.5533,-198.3468 346.4168,-196.971"/>
</g>
<!-- Node32&#45;&gt;Node22 -->
<g id="edge64" class="edge">
<title>Node32&#45;&gt;Node22</title>
<path fill="none" stroke="#191970" d="M380.8404,-459.4036C372.9895,-444.9109 360.7585,-422.4182 350,-403 320.786,-350.271 285.7272,-288.327 268.5442,-258.0522"/>
<polygon fill="#191970" stroke="#191970" points="271.4182,-256.0254 263.4364,-249.0583 265.3313,-259.4823 271.4182,-256.0254"/>
</g>
<!-- Node32&#45;&gt;Node29 -->
<g id="edge65" class="edge">
<title>Node32&#45;&gt;Node29</title>
<path fill="none" stroke="#191970" d="M357.6877,-459.4554C336.9862,-449.509 310.0477,-436.5659 289.8647,-426.8686"/>
<polygon fill="#191970" stroke="#191970" points="291.3648,-423.7064 280.8355,-422.5303 288.3333,-430.0159 291.3648,-423.7064"/>
</g>
<!-- Node33&#45;&gt;Node18 -->
<g id="edge68" class="edge">
<title>Node33&#45;&gt;Node18</title>
<path fill="none" stroke="#191970" d="M1002.6003,-224.2182C996.9676,-207.5755 985.5247,-181.528 966,-168 955.7708,-160.9126 788.2591,-136.6656 716.3626,-126.5204"/>
<polygon fill="#191970" stroke="#191970" points="716.4705,-123.0011 706.0804,-125.0737 715.4951,-129.9329 716.4705,-123.0011"/>
</g>
<!-- Node33&#45;&gt;Node24 -->
<g id="edge67" class="edge">
<title>Node33&#45;&gt;Node24</title>
<path fill="none" stroke="#191970" d="M974.9538,-224.4554C953.7672,-214.509 926.1972,-201.5659 905.5412,-191.8686"/>
<polygon fill="#191970" stroke="#191970" points="906.8399,-188.6118 896.3004,-187.5303 903.8651,-194.9483 906.8399,-188.6118"/>
</g>
<!-- Node34&#45;&gt;Node7 -->
<g id="edge70" class="edge">
<title>Node34&#45;&gt;Node7</title>
<path fill="none" stroke="#191970" d="M1110.7102,-169.6372C1106.0706,-169.0817 1101.4678,-168.532 1097,-168 961.0225,-151.8099 922.2051,-171.2073 791,-132 771.9559,-126.3092 769.5105,-119.2403 751,-112 743.439,-109.0426 524.0502,-45.9258 435.5185,-20.4878"/>
<polygon fill="#191970" stroke="#191970" points="436.2169,-17.0469 425.6392,-17.6495 434.284,-23.7748 436.2169,-17.0469"/>
</g>
<!-- Node34&#45;&gt;Node18 -->
<g id="edge71" class="edge">
<title>Node34&#45;&gt;Node18</title>
<path fill="none" stroke="#191970" d="M1110.717,-169.5786C1106.0757,-169.0373 1101.4707,-168.5067 1097,-168 946.4499,-150.9378 908.4232,-150.1471 758,-132 744.4255,-130.3624 729.4757,-128.3768 716.588,-126.6079"/>
<polygon fill="#191970" stroke="#191970" points="716.7085,-123.0912 706.3227,-125.1854 715.7476,-130.025 716.7085,-123.0912"/>
</g>
<!-- Node35 -->
<g id="node36" class="node">
<title>Node35</title>
<polygon fill="none" stroke="#bfbfbf" points="1137,-112.5 1137,-131.5 1223,-131.5 1223,-112.5 1137,-112.5"/>
<text text-anchor="middle" x="1180" y="-119.5" font-family="FreeSans.ttf" font-size="10.00" fill="#000000">ModelExport.h</text>
</g>
<!-- Node34&#45;&gt;Node35 -->
<g id="edge72" class="edge">
<title>Node34&#45;&gt;Node35</title>
<path fill="none" stroke="#191970" d="M1180,-168.2455C1180,-160.9382 1180,-150.6944 1180,-141.7046"/>
<polygon fill="#191970" stroke="#191970" points="1183.5001,-141.6426 1180,-131.6427 1176.5001,-141.6427 1183.5001,-141.6426"/>
</g>
</g>
</svg>
