<?xml version="1.0" encoding="UTF-8" standalone="no"?>
<!DOCTYPE svg PUBLIC "-//W3C//DTD SVG 1.1//EN"
 "http://www.w3.org/Graphics/SVG/1.1/DTD/svg11.dtd">
<!-- Generated by graphviz version 2.40.1 (20161225.0304)
 -->
<!-- Title: PredictSensorsMeasurements.cpp Pages: 1 -->
<svg width="2242pt" height="856pt"
 viewBox="0.00 0.00 2241.50 856.00" xmlns="http://www.w3.org/2000/svg" xmlns:xlink="http://www.w3.org/1999/xlink">
<g id="graph0" class="graph" transform="scale(1 1) rotate(0) translate(4 852)">
<title>PredictSensorsMeasurements.cpp</title>
<!-- Node0 -->
<g id="node1" class="node">
<title>Node0</title>
<polygon fill="#bfbfbf" stroke="#000000" points="1144,-828.5 1144,-847.5 1325,-847.5 1325,-828.5 1144,-828.5"/>
<text text-anchor="middle" x="1234.5" y="-835.5" font-family="FreeSans.ttf" font-size="10.00" fill="#000000">PredictSensorsMeasurements.cpp</text>
</g>
<!-- Node1 -->
<g id="node2" class="node">
<title>Node1</title>
<g id="a_node2"><a xlink:href="PredictSensorsMeasurements_8h.html" target="_top" xlink:title="iDynTree/Sensors/Predict\lSensorsMeasurements.h">
<polygon fill="none" stroke="#000000" points="1710,-582.5 1710,-612.5 1847,-612.5 1847,-582.5 1710,-582.5"/>
<text text-anchor="start" x="1718" y="-600.5" font-family="FreeSans.ttf" font-size="10.00" fill="#000000">iDynTree/Sensors/Predict</text>
<text text-anchor="middle" x="1778.5" y="-589.5" font-family="FreeSans.ttf" font-size="10.00" fill="#000000">SensorsMeasurements.h</text>
</a>
</g>
</g>
<!-- Node0&#45;&gt;Node1 -->
<g id="edge1" class="edge">
<title>Node0&#45;&gt;Node1</title>
<path fill="none" stroke="#191970" d="M1320.2578,-828.4609C1376.6223,-821.1061 1451.6624,-809.2432 1516.5,-792 1598.5924,-770.168 1629.2324,-778.1451 1695.5,-725 1730.3357,-697.0625 1755.3597,-650.4168 1768.338,-621.9581"/>
<polygon fill="#191970" stroke="#191970" points="1771.5836,-623.2725 1772.4226,-612.7109 1765.1805,-620.4441 1771.5836,-623.2725"/>
</g>
<!-- Node29 -->
<g id="node22" class="node">
<title>Node29</title>
<g id="a_node22"><a xlink:href="SpatialMotionVector_8h.html" target="_top" xlink:title="iDynTree/Core/SpatialMotion\lVector.h">
<polygon fill="none" stroke="#000000" points="1762,-403.5 1762,-433.5 1917,-433.5 1917,-403.5 1762,-403.5"/>
<text text-anchor="start" x="1770" y="-421.5" font-family="FreeSans.ttf" font-size="10.00" fill="#000000">iDynTree/Core/SpatialMotion</text>
<text text-anchor="middle" x="1839.5" y="-410.5" font-family="FreeSans.ttf" font-size="10.00" fill="#000000">Vector.h</text>
</a>
</g>
</g>
<!-- Node0&#45;&gt;Node29 -->
<g id="edge63" class="edge">
<title>Node0&#45;&gt;Node29</title>
<path fill="none" stroke="#191970" d="M1325.163,-833.1898C1532.1046,-820.9998 2021.5,-784.7935 2021.5,-715 2021.5,-715 2021.5,-715 2021.5,-536 2021.5,-483.4635 1967.3116,-453.2762 1918.071,-436.6904"/>
<polygon fill="#191970" stroke="#191970" points="1918.8977,-433.2799 1908.3064,-433.552 1916.7558,-439.9441 1918.8977,-433.2799"/>
</g>
<!-- Node31 -->
<g id="node24" class="node">
<title>Node31</title>
<g id="a_node24"><a xlink:href="SpatialAcc_8h.html" target="_top" xlink:title="iDynTree/Core/SpatialAcc.h">
<polygon fill="none" stroke="#000000" points="1769.5,-470.5 1769.5,-489.5 1917.5,-489.5 1917.5,-470.5 1769.5,-470.5"/>
<text text-anchor="middle" x="1843.5" y="-477.5" font-family="FreeSans.ttf" font-size="10.00" fill="#000000">iDynTree/Core/SpatialAcc.h</text>
</a>
</g>
</g>
<!-- Node0&#45;&gt;Node31 -->
<g id="edge132" class="edge">
<title>Node0&#45;&gt;Node31</title>
<path fill="none" stroke="#191970" d="M1325.3193,-829.8849C1502.1501,-812.8555 1875.5,-770.3473 1875.5,-715 1875.5,-715 1875.5,-715 1875.5,-597.5 1875.5,-561.5647 1861.3939,-521.5512 1851.9129,-498.7158"/>
<polygon fill="#191970" stroke="#191970" points="1855.1183,-497.3101 1847.9495,-489.509 1848.6888,-500.078 1855.1183,-497.3101"/>
</g>
<!-- Node38 -->
<g id="node31" class="node">
<title>Node38</title>
<g id="a_node31"><a xlink:href="AccelerometerSensor_8h.html" target="_top" xlink:title="iDynTree/Sensors/Accelerometer\lSensor.h">
<polygon fill="none" stroke="#000000" points="1312,-761.5 1312,-791.5 1487,-791.5 1487,-761.5 1312,-761.5"/>
<text text-anchor="start" x="1320" y="-779.5" font-family="FreeSans.ttf" font-size="10.00" fill="#000000">iDynTree/Sensors/Accelerometer</text>
<text text-anchor="middle" x="1399.5" y="-768.5" font-family="FreeSans.ttf" font-size="10.00" fill="#000000">Sensor.h</text>
</a>
</g>
</g>
<!-- Node0&#45;&gt;Node38 -->
<g id="edge64" class="edge">
<title>Node0&#45;&gt;Node38</title>
<path fill="none" stroke="#191970" d="M1260.2813,-828.3906C1284.0594,-819.5279 1320.0211,-806.1239 1349.4382,-795.1594"/>
<polygon fill="#191970" stroke="#191970" points="1350.9886,-798.3168 1359.1365,-791.5446 1348.5438,-791.7576 1350.9886,-798.3168"/>
</g>
<!-- Node39 -->
<g id="node32" class="node">
<title>Node39</title>
<g id="a_node32"><a xlink:href="Sensors_8h.html" target="_top" xlink:title="iDynTree/Sensors/Sensors.h">
<polygon fill="none" stroke="#000000" points="710,-705.5 710,-724.5 861,-724.5 861,-705.5 710,-705.5"/>
<text text-anchor="middle" x="785.5" y="-712.5" font-family="FreeSans.ttf" font-size="10.00" fill="#000000">iDynTree/Sensors/Sensors.h</text>
</a>
</g>
</g>
<!-- Node0&#45;&gt;Node39 -->
<g id="edge106" class="edge">
<title>Node0&#45;&gt;Node39</title>
<path fill="none" stroke="#191970" d="M1143.8421,-835.897C1010.2983,-831.8488 773.5961,-820.6772 747.5,-792 731.3167,-774.2161 750.6119,-748.2746 767.1024,-731.515"/>
<polygon fill="#191970" stroke="#191970" points="769.5812,-733.9869 774.3443,-724.5231 764.7191,-728.951 769.5812,-733.9869"/>
</g>
<!-- Node41 -->
<g id="node34" class="node">
<title>Node41</title>
<g id="a_node34"><a xlink:href="Model_8h.html" target="_top" xlink:title="iDynTree/Model/Model.h">
<polygon fill="none" stroke="#000000" points="543,-649.5 543,-668.5 676,-668.5 676,-649.5 543,-649.5"/>
<text text-anchor="middle" x="609.5" y="-656.5" font-family="FreeSans.ttf" font-size="10.00" fill="#000000">iDynTree/Model/Model.h</text>
</a>
</g>
</g>
<!-- Node0&#45;&gt;Node41 -->
<g id="edge107" class="edge">
<title>Node0&#45;&gt;Node41</title>
<path fill="none" stroke="#191970" d="M1143.9295,-833.0405C1010.5395,-825.2202 773.1269,-809.1405 737.5,-792 683.5597,-766.0487 640.1903,-707.1633 620.6817,-677.2186"/>
<polygon fill="#191970" stroke="#191970" points="623.5186,-675.1569 615.203,-668.5916 617.6095,-678.9096 623.5186,-675.1569"/>
</g>
<!-- Node50 -->
<g id="node40" class="node">
<title>Node50</title>
<g id="a_node40"><a xlink:href="GyroscopeSensor_8h.html" target="_top" xlink:title="iDynTree/Sensors/Gyroscope\lSensor.h">
<polygon fill="none" stroke="#000000" points="942,-761.5 942,-791.5 1097,-791.5 1097,-761.5 942,-761.5"/>
<text text-anchor="start" x="950" y="-779.5" font-family="FreeSans.ttf" font-size="10.00" fill="#000000">iDynTree/Sensors/Gyroscope</text>
<text text-anchor="middle" x="1019.5" y="-768.5" font-family="FreeSans.ttf" font-size="10.00" fill="#000000">Sensor.h</text>
</a>
</g>
</g>
<!-- Node0&#45;&gt;Node50 -->
<g id="edge95" class="edge">
<title>Node0&#45;&gt;Node50</title>
<path fill="none" stroke="#191970" d="M1200.9063,-828.3906C1169.1144,-819.2967 1120.6077,-805.4215 1081.7501,-794.3064"/>
<polygon fill="#191970" stroke="#191970" points="1082.6719,-790.9298 1072.0949,-791.5446 1080.7467,-797.6599 1082.6719,-790.9298"/>
</g>
<!-- Node51 -->
<g id="node41" class="node">
<title>Node51</title>
<g id="a_node41"><a xlink:href="ThreeAxisAngularAccelerometerSensor_8h.html" target="_top" xlink:title="iDynTree/Sensors/ThreeAxis\lAngularAccelerometerSensor.h">
<polygon fill="none" stroke="#000000" points="757,-761.5 757,-791.5 924,-791.5 924,-761.5 757,-761.5"/>
<text text-anchor="start" x="765" y="-779.5" font-family="FreeSans.ttf" font-size="10.00" fill="#000000">iDynTree/Sensors/ThreeAxis</text>
<text text-anchor="middle" x="840.5" y="-768.5" font-family="FreeSans.ttf" font-size="10.00" fill="#000000">AngularAccelerometerSensor.h</text>
</a>
</g>
</g>
<!-- Node0&#45;&gt;Node51 -->
<g id="edge99" class="edge">
<title>Node0&#45;&gt;Node51</title>
<path fill="none" stroke="#191970" d="M1169.9457,-828.468C1111.0376,-819.7011 1021.2857,-806.173 934.2738,-792.2724"/>
<polygon fill="#191970" stroke="#191970" points="934.6553,-788.789 924.2277,-790.6638 933.5485,-795.7009 934.6553,-788.789"/>
</g>
<!-- Node52 -->
<g id="node42" class="node">
<title>Node52</title>
<g id="a_node42"><a xlink:href="SixAxisForceTorqueSensor_8h.html" target="_top" xlink:title="iDynTree/Sensors/SixAxis\lForceTorqueSensor.h">
<polygon fill="none" stroke="#000000" points="1115.5,-761.5 1115.5,-791.5 1255.5,-791.5 1255.5,-761.5 1115.5,-761.5"/>
<text text-anchor="start" x="1123.5" y="-779.5" font-family="FreeSans.ttf" font-size="10.00" fill="#000000">iDynTree/Sensors/SixAxis</text>
<text text-anchor="middle" x="1185.5" y="-768.5" font-family="FreeSans.ttf" font-size="10.00" fill="#000000">ForceTorqueSensor.h</text>
</a>
</g>
</g>
<!-- Node0&#45;&gt;Node52 -->
<g id="edge102" class="edge">
<title>Node0&#45;&gt;Node52</title>
<path fill="none" stroke="#191970" d="M1226.8438,-828.3906C1220.7034,-820.6839 1211.8272,-809.5434 1203.8721,-799.5589"/>
<polygon fill="#191970" stroke="#191970" points="1206.4556,-797.1847 1197.4867,-791.5446 1200.9808,-801.5467 1206.4556,-797.1847"/>
</g>
<!-- Node53 -->
<g id="node43" class="node">
<title>Node53</title>
<g id="a_node43"><a xlink:href="Traversal_8h.html" target="_top" xlink:title="iDynTree/Model/Traversal.h">
<polygon fill="none" stroke="#000000" points="265.5,-526.5 265.5,-545.5 413.5,-545.5 413.5,-526.5 265.5,-526.5"/>
<text text-anchor="middle" x="339.5" y="-533.5" font-family="FreeSans.ttf" font-size="10.00" fill="#000000">iDynTree/Model/Traversal.h</text>
</a>
</g>
</g>
<!-- Node0&#45;&gt;Node53 -->
<g id="edge108" class="edge">
<title>Node0&#45;&gt;Node53</title>
<path fill="none" stroke="#191970" d="M1143.775,-834.4632C922.2031,-824.62 371.5,-792.3728 371.5,-715 371.5,-715 371.5,-715 371.5,-659 371.5,-621.1352 357.1209,-578.7648 347.6403,-554.9437"/>
<polygon fill="#191970" stroke="#191970" points="350.8615,-553.5742 343.8157,-545.6618 344.3894,-556.2411 350.8615,-553.5742"/>
</g>
<!-- Node54 -->
<g id="node44" class="node">
<title>Node54</title>
<g id="a_node44"><a xlink:href="ForwardKinematics_8h.html" target="_top" xlink:title="iDynTree/Model/ForwardKinematics.h">
<polygon fill="none" stroke="#000000" points="0,-705.5 0,-724.5 197,-724.5 197,-705.5 0,-705.5"/>
<text text-anchor="middle" x="98.5" y="-712.5" font-family="FreeSans.ttf" font-size="10.00" fill="#000000">iDynTree/Model/ForwardKinematics.h</text>
</a>
</g>
</g>
<!-- Node0&#45;&gt;Node54 -->
<g id="edge111" class="edge">
<title>Node0&#45;&gt;Node54</title>
<path fill="none" stroke="#191970" d="M1143.8487,-835.9617C951.2079,-831.1863 506.5298,-817.6878 357.5,-792 275.1105,-777.7988 181.9085,-746.0516 132.8801,-728.0715"/>
<polygon fill="#191970" stroke="#191970" points="133.9871,-724.7492 123.3939,-724.5616 131.558,-731.3142 133.9871,-724.7492"/>
</g>
<!-- Node55 -->
<g id="node45" class="node">
<title>Node55</title>
<g id="a_node45"><a xlink:href="FreeFloatingState_8h.html" target="_top" xlink:title="iDynTree/Model/FreeFloating\lState.h">
<polygon fill="none" stroke="#000000" points="1105.5,-582.5 1105.5,-612.5 1259.5,-612.5 1259.5,-582.5 1105.5,-582.5"/>
<text text-anchor="start" x="1113.5" y="-600.5" font-family="FreeSans.ttf" font-size="10.00" fill="#000000">iDynTree/Model/FreeFloating</text>
<text text-anchor="middle" x="1182.5" y="-589.5" font-family="FreeSans.ttf" font-size="10.00" fill="#000000">State.h</text>
</a>
</g>
</g>
<!-- Node0&#45;&gt;Node55 -->
<g id="edge113" class="edge">
<title>Node0&#45;&gt;Node55</title>
<path fill="none" stroke="#191970" d="M1243.2861,-828.2709C1250.5686,-819.5036 1260.3705,-805.8915 1264.5,-792 1268.4259,-778.7934 1267.6737,-774.4073 1264.5,-761 1251.9049,-707.7917 1219.1561,-652.1925 1199.0626,-621.4901"/>
<polygon fill="#191970" stroke="#191970" points="1201.7255,-619.1744 1193.2693,-612.7913 1195.8994,-623.0545 1201.7255,-619.1744"/>
</g>
<!-- Node57 -->
<g id="node47" class="node">
<title>Node57</title>
<g id="a_node47"><a xlink:href="Dynamics_8h.html" target="_top" xlink:title="iDynTree/Model/Dynamics.h">
<polygon fill="none" stroke="#000000" points="1315.5,-588 1315.5,-607 1467.5,-607 1467.5,-588 1315.5,-588"/>
<text text-anchor="middle" x="1391.5" y="-595" font-family="FreeSans.ttf" font-size="10.00" fill="#000000">iDynTree/Model/Dynamics.h</text>
</a>
</g>
</g>
<!-- Node0&#45;&gt;Node57 -->
<g id="edge125" class="edge">
<title>Node0&#45;&gt;Node57</title>
<path fill="none" stroke="#191970" d="M1325.0158,-834.1959C1391.8061,-829.2648 1474.709,-817.9502 1496.5,-792 1545.6609,-733.4558 1454.7208,-648.2418 1411.9608,-613.3208"/>
<polygon fill="#191970" stroke="#191970" points="1414.1001,-610.5499 1404.1071,-607.0299 1409.7239,-616.0134 1414.1001,-610.5499"/>
</g>
<!-- Node59 -->
<g id="node49" class="node">
<title>Node59</title>
<g id="a_node49"><a xlink:href="EigenHelpers_8h.html" target="_top" xlink:title="iDynTree/Core/EigenHelpers.h">
<polygon fill="none" stroke="#000000" points="2050,-470.5 2050,-489.5 2211,-489.5 2211,-470.5 2050,-470.5"/>
<text text-anchor="middle" x="2130.5" y="-477.5" font-family="FreeSans.ttf" font-size="10.00" fill="#000000">iDynTree/Core/EigenHelpers.h</text>
</a>
</g>
</g>
<!-- Node0&#45;&gt;Node59 -->
<g id="edge133" class="edge">
<title>Node0&#45;&gt;Node59</title>
<path fill="none" stroke="#191970" d="M1325.3569,-837.0195C1521.9522,-834.2914 1974.1107,-824.5219 2035.5,-792 2073.5975,-771.8172 2094.5,-758.1134 2094.5,-715 2094.5,-715 2094.5,-715 2094.5,-597.5 2094.5,-561.4217 2110.2079,-521.7379 2120.8719,-498.9538"/>
<polygon fill="#191970" stroke="#191970" points="2124.1222,-500.2727 2125.3421,-489.7483 2117.8254,-497.2149 2124.1222,-500.2727"/>
</g>
<!-- Node2 -->
<g id="node3" class="node">
<title>Node2</title>
<g id="a_node3"><a xlink:href="LinkState_8h.html" target="_top" xlink:title="iDynTree/Model/LinkState.h">
<polygon fill="none" stroke="#000000" points="1353,-526.5 1353,-545.5 1502,-545.5 1502,-526.5 1353,-526.5"/>
<text text-anchor="middle" x="1427.5" y="-533.5" font-family="FreeSans.ttf" font-size="10.00" fill="#000000">iDynTree/Model/LinkState.h</text>
</a>
</g>
</g>
<!-- Node1&#45;&gt;Node2 -->
<g id="edge2" class="edge">
<title>Node1&#45;&gt;Node2</title>
<path fill="none" stroke="#191970" d="M1709.9904,-585.4962C1646.7747,-574.4199 1553.6102,-558.0962 1491.7771,-547.2622"/>
<polygon fill="#191970" stroke="#191970" points="1492.2062,-543.7842 1481.7522,-545.5057 1490.9981,-550.6791 1492.2062,-543.7842"/>
</g>
<!-- Node23 -->
<g id="node8" class="node">
<title>Node23</title>
<g id="a_node8"><a xlink:href="GeomVector3_8h.html" target="_top" xlink:title="iDynTree/Core/GeomVector3.h">
<polygon fill="none" stroke="#000000" points="1434,-168.5 1434,-187.5 1597,-187.5 1597,-168.5 1434,-168.5"/>
<text text-anchor="middle" x="1515.5" y="-175.5" font-family="FreeSans.ttf" font-size="10.00" fill="#000000">iDynTree/Core/GeomVector3.h</text>
</a>
</g>
</g>
<!-- Node1&#45;&gt;Node23 -->
<g id="edge62" class="edge">
<title>Node1&#45;&gt;Node23</title>
<path fill="none" stroke="#191970" d="M1821.4815,-582.4322C1877.673,-560.4235 1964.6977,-516.9646 1926.5,-470 1876.9454,-409.0719 1828.7043,-456.6322 1753.5,-434 1715.0123,-422.4174 1612.7468,-396.5477 1585.5,-367 1540.422,-318.1154 1567.7908,-285.078 1541.5,-224 1537.4333,-214.5523 1531.9412,-204.5562 1527.0525,-196.3045"/>
<polygon fill="#191970" stroke="#191970" points="1529.9101,-194.2681 1521.7124,-187.5564 1523.9353,-197.9154 1529.9101,-194.2681"/>
</g>
<!-- Node3 -->
<g id="node4" class="node">
<title>Node3</title>
<g id="a_node4"><a xlink:href="Transform_8h.html" target="_top" xlink:title="iDynTree/Core/Transform.h">
<polygon fill="none" stroke="#000000" points="1249.5,-409 1249.5,-428 1395.5,-428 1395.5,-409 1249.5,-409"/>
<text text-anchor="middle" x="1322.5" y="-416" font-family="FreeSans.ttf" font-size="10.00" fill="#000000">iDynTree/Core/Transform.h</text>
</a>
</g>
</g>
<!-- Node2&#45;&gt;Node3 -->
<g id="edge3" class="edge">
<title>Node2&#45;&gt;Node3</title>
<path fill="none" stroke="#191970" d="M1405.5926,-526.4819C1389.6715,-518.637 1368.5387,-506.1798 1354.5,-490 1341.447,-474.9563 1332.8559,-453.7247 1327.8935,-438.3086"/>
<polygon fill="#191970" stroke="#191970" points="1331.1168,-436.8688 1324.9095,-428.2828 1324.4076,-438.8657 1331.1168,-436.8688"/>
</g>
<!-- Node28 -->
<g id="node21" class="node">
<title>Node28</title>
<g id="a_node21"><a xlink:href="Twist_8h.html" target="_top" xlink:title="iDynTree/Core/Twist.h">
<polygon fill="none" stroke="#000000" points="1591.5,-470.5 1591.5,-489.5 1713.5,-489.5 1713.5,-470.5 1591.5,-470.5"/>
<text text-anchor="middle" x="1652.5" y="-477.5" font-family="FreeSans.ttf" font-size="10.00" fill="#000000">iDynTree/Core/Twist.h</text>
</a>
</g>
</g>
<!-- Node2&#45;&gt;Node28 -->
<g id="edge36" class="edge">
<title>Node2&#45;&gt;Node28</title>
<path fill="none" stroke="#191970" d="M1465.9232,-526.4369C1504.1875,-516.9133 1563.0337,-502.2672 1604.3849,-491.9753"/>
<polygon fill="#191970" stroke="#191970" points="1605.3766,-495.3353 1614.2353,-489.5237 1603.6859,-488.5426 1605.3766,-495.3353"/>
</g>
<!-- Node2&#45;&gt;Node31 -->
<g id="edge47" class="edge">
<title>Node2&#45;&gt;Node31</title>
<path fill="none" stroke="#191970" d="M1498.5403,-526.4369C1571.8294,-516.571 1685.9565,-501.2078 1762.6553,-490.8829"/>
<polygon fill="#191970" stroke="#191970" points="1763.3091,-494.3266 1772.7527,-489.5237 1762.3752,-487.3892 1763.3091,-494.3266"/>
</g>
<!-- Node32 -->
<g id="node25" class="node">
<title>Node32</title>
<g id="a_node25"><a xlink:href="Wrench_8h.html" target="_top" xlink:title="iDynTree/Core/Wrench.h">
<polygon fill="none" stroke="#000000" points="1364,-470.5 1364,-489.5 1497,-489.5 1497,-470.5 1364,-470.5"/>
<text text-anchor="middle" x="1430.5" y="-477.5" font-family="FreeSans.ttf" font-size="10.00" fill="#000000">iDynTree/Core/Wrench.h</text>
</a>
</g>
</g>
<!-- Node2&#45;&gt;Node32 -->
<g id="edge49" class="edge">
<title>Node2&#45;&gt;Node32</title>
<path fill="none" stroke="#191970" d="M1428.0226,-526.2455C1428.414,-518.9382 1428.9628,-508.6944 1429.4444,-499.7046"/>
<polygon fill="#191970" stroke="#191970" points="1432.9434,-499.8156 1429.9834,-489.6427 1425.9534,-499.4411 1432.9434,-499.8156"/>
</g>
<!-- Node34 -->
<g id="node27" class="node">
<title>Node34</title>
<g id="a_node27"><a xlink:href="ArticulatedBodyInertia_8h.html" target="_top" xlink:title="iDynTree/Core/Articulated\lBodyInertia.h">
<polygon fill="none" stroke="#000000" points="1784,-224.5 1784,-254.5 1925,-254.5 1925,-224.5 1784,-224.5"/>
<text text-anchor="start" x="1792" y="-242.5" font-family="FreeSans.ttf" font-size="10.00" fill="#000000">iDynTree/Core/Articulated</text>
<text text-anchor="middle" x="1854.5" y="-231.5" font-family="FreeSans.ttf" font-size="10.00" fill="#000000">BodyInertia.h</text>
</a>
</g>
</g>
<!-- Node2&#45;&gt;Node34 -->
<g id="edge54" class="edge">
<title>Node2&#45;&gt;Node34</title>
<path fill="none" stroke="#191970" d="M1450.226,-526.3447C1517.1613,-497.6406 1712.1558,-412.0354 1764.5,-367 1799.0408,-337.2822 1827.0395,-291.5868 1842.1855,-263.7305"/>
<polygon fill="#191970" stroke="#191970" points="1845.3947,-265.1498 1846.9965,-254.6768 1839.2132,-261.8651 1845.3947,-265.1498"/>
</g>
<!-- Node35 -->
<g id="node28" class="node">
<title>Node35</title>
<g id="a_node28"><a xlink:href="Indices_8h.html" target="_top" xlink:title="iDynTree/Model/Indices.h">
<polygon fill="none" stroke="#000000" points="219.5,-470.5 219.5,-489.5 357.5,-489.5 357.5,-470.5 219.5,-470.5"/>
<text text-anchor="middle" x="288.5" y="-477.5" font-family="FreeSans.ttf" font-size="10.00" fill="#000000">iDynTree/Model/Indices.h</text>
</a>
</g>
</g>
<!-- Node2&#45;&gt;Node35 -->
<g id="edge57" class="edge">
<title>Node2&#45;&gt;Node35</title>
<path fill="none" stroke="#191970" d="M1352.629,-531.0539C1325.7851,-529.3511 1295.2917,-527.4976 1267.5,-526 914.317,-506.9678 825.7574,-507.5973 472.5,-490 438.1903,-488.2909 400.2905,-486.2562 367.8486,-484.4697"/>
<polygon fill="#191970" stroke="#191970" points="367.6966,-480.9561 357.5188,-483.8991 367.3105,-487.9454 367.6966,-480.9561"/>
</g>
<!-- Node37 -->
<g id="node30" class="node">
<title>Node37</title>
<polygon fill="none" stroke="#bfbfbf" points="866,-470.5 866,-489.5 913,-489.5 913,-470.5 866,-470.5"/>
<text text-anchor="middle" x="889.5" y="-477.5" font-family="FreeSans.ttf" font-size="10.00" fill="#000000">vector</text>
</g>
<!-- Node2&#45;&gt;Node37 -->
<g id="edge61" class="edge">
<title>Node2&#45;&gt;Node37</title>
<path fill="none" stroke="#191970" d="M1352.976,-528.2429C1234.7042,-515.932 1008.6816,-492.4055 923.2926,-483.5174"/>
<polygon fill="#191970" stroke="#191970" points="923.4363,-480.0136 913.1276,-482.4594 922.7115,-486.976 923.4363,-480.0136"/>
</g>
<!-- Node4 -->
<g id="node5" class="node">
<title>Node4</title>
<g id="a_node5"><a xlink:href="Position_8h.html" target="_top" xlink:title="iDynTree/Core/Position.h">
<polygon fill="none" stroke="#ff0000" points="1249.5,-291.5 1249.5,-310.5 1385.5,-310.5 1385.5,-291.5 1249.5,-291.5"/>
<text text-anchor="middle" x="1317.5" y="-298.5" font-family="FreeSans.ttf" font-size="10.00" fill="#000000">iDynTree/Core/Position.h</text>
</a>
</g>
</g>
<!-- Node3&#45;&gt;Node4 -->
<g id="edge4" class="edge">
<title>Node3&#45;&gt;Node4</title>
<path fill="none" stroke="#191970" d="M1322.0908,-408.8845C1321.2741,-389.6913 1319.4271,-346.286 1318.3411,-320.7663"/>
<polygon fill="#191970" stroke="#191970" points="1321.8369,-320.5905 1317.9148,-310.7484 1314.8432,-320.8882 1321.8369,-320.5905"/>
</g>
<!-- Node22 -->
<g id="node6" class="node">
<title>Node22</title>
<g id="a_node6"><a xlink:href="Rotation_8h.html" target="_top" xlink:title="iDynTree/Core/Rotation.h">
<polygon fill="none" stroke="#ff0000" points="1324,-230 1324,-249 1461,-249 1461,-230 1324,-230"/>
<text text-anchor="middle" x="1392.5" y="-237" font-family="FreeSans.ttf" font-size="10.00" fill="#000000">iDynTree/Core/Rotation.h</text>
</a>
</g>
</g>
<!-- Node3&#45;&gt;Node22 -->
<g id="edge23" class="edge">
<title>Node3&#45;&gt;Node22</title>
<path fill="none" stroke="#191970" d="M1331.9145,-408.891C1348.4397,-391.2707 1382.0886,-351.8342 1394.5,-311 1399.6799,-293.9577 1398.4273,-273.5664 1396.3243,-258.9293"/>
<polygon fill="#191970" stroke="#191970" points="1399.7648,-258.2831 1394.6429,-249.0086 1392.8633,-259.4529 1399.7648,-258.2831"/>
</g>
<!-- Node19 -->
<g id="node7" class="node">
<title>Node19</title>
<polygon fill="none" stroke="#bfbfbf" points="1217.5,-56.5 1217.5,-75.5 1261.5,-75.5 1261.5,-56.5 1217.5,-56.5"/>
<text text-anchor="middle" x="1239.5" y="-63.5" font-family="FreeSans.ttf" font-size="10.00" fill="#000000">string</text>
</g>
<!-- Node3&#45;&gt;Node19 -->
<g id="edge35" class="edge">
<title>Node3&#45;&gt;Node19</title>
<path fill="none" stroke="#191970" d="M1285.6303,-408.9468C1192.5641,-383.7552 955.5,-312.428 955.5,-239.5 955.5,-239.5 955.5,-239.5 955.5,-178 955.5,-124.4523 1132.4334,-85.6591 1206.9908,-71.6893"/>
<polygon fill="#191970" stroke="#191970" points="1208.0128,-75.0602 1217.215,-69.8095 1206.7469,-68.1756 1208.0128,-75.0602"/>
</g>
<!-- Node25 -->
<g id="node18" class="node">
<title>Node25</title>
<g id="a_node18"><a xlink:href="MatrixFixSize_8h.html" target="_top" xlink:title="iDynTree/Core/MatrixFixSize.h">
<polygon fill="none" stroke="#000000" points="1852,-168.5 1852,-187.5 2013,-187.5 2013,-168.5 1852,-168.5"/>
<text text-anchor="middle" x="1932.5" y="-175.5" font-family="FreeSans.ttf" font-size="10.00" fill="#000000">iDynTree/Core/MatrixFixSize.h</text>
</a>
</g>
</g>
<!-- Node3&#45;&gt;Node25 -->
<g id="edge24" class="edge">
<title>Node3&#45;&gt;Node25</title>
<path fill="none" stroke="#191970" d="M1394.4966,-408.9968C1410.3056,-406.967 1426.9626,-404.8719 1442.5,-403 1585.4689,-385.7758 1629.0776,-415.9649 1764.5,-367 1849.588,-336.2346 1891.5895,-334.6565 1934.5,-255 1943.9814,-237.3993 1941.7067,-214.0958 1938.1732,-197.7526"/>
<polygon fill="#191970" stroke="#191970" points="1941.4813,-196.5547 1935.6548,-187.7058 1934.6913,-198.2567 1941.4813,-196.5547"/>
</g>
<!-- Node4&#45;&gt;Node22 -->
<g id="edge5" class="edge">
<title>Node4&#45;&gt;Node22</title>
<path fill="none" stroke="#191970" d="M1329.2188,-291.3906C1340.8188,-281.8786 1358.7979,-267.1357 1372.6321,-255.7917"/>
<polygon fill="#191970" stroke="#191970" points="1375.1026,-258.2921 1380.616,-249.2449 1370.664,-252.8792 1375.1026,-258.2921"/>
</g>
<!-- Node4&#45;&gt;Node19 -->
<g id="edge22" class="edge">
<title>Node4&#45;&gt;Node19</title>
<path fill="none" stroke="#191970" d="M1314.3457,-291.4967C1302.685,-256.3651 1261.8685,-133.3922 1245.9378,-85.3958"/>
<polygon fill="#191970" stroke="#191970" points="1249.1656,-84.0099 1242.6935,-75.6216 1242.522,-86.215 1249.1656,-84.0099"/>
</g>
<!-- Node22&#45;&gt;Node19 -->
<g id="edge6" class="edge">
<title>Node22&#45;&gt;Node19</title>
<path fill="none" stroke="#191970" d="M1384.0561,-229.9248C1359.3496,-201.9079 1286.9355,-119.7912 1254.9692,-83.5418"/>
<polygon fill="#191970" stroke="#191970" points="1257.3456,-80.9449 1248.1064,-75.7595 1252.0954,-85.5748 1257.3456,-80.9449"/>
</g>
<!-- Node22&#45;&gt;Node23 -->
<g id="edge7" class="edge">
<title>Node22&#45;&gt;Node23</title>
<path fill="none" stroke="#191970" d="M1411.7188,-229.8906C1432.0281,-219.7359 1464.2607,-203.6196 1487.4168,-192.0416"/>
<polygon fill="#191970" stroke="#191970" points="1489.0372,-195.1446 1496.4162,-187.5419 1485.9067,-188.8836 1489.0372,-195.1446"/>
</g>
<!-- Node6 -->
<g id="node9" class="node">
<title>Node6</title>
<g id="a_node9"><a xlink:href="VectorFixSize_8h.html" target="_top" xlink:title="iDynTree/Core/VectorFixSize.h">
<polygon fill="none" stroke="#000000" points="1444,-112.5 1444,-131.5 1605,-131.5 1605,-112.5 1444,-112.5"/>
<text text-anchor="middle" x="1524.5" y="-119.5" font-family="FreeSans.ttf" font-size="10.00" fill="#000000">iDynTree/Core/VectorFixSize.h</text>
</a>
</g>
</g>
<!-- Node22&#45;&gt;Node6 -->
<g id="edge21" class="edge">
<title>Node22&#45;&gt;Node6</title>
<path fill="none" stroke="#191970" d="M1394.4927,-229.9346C1398.0672,-214.9413 1406.8973,-185.7853 1424.5,-168 1439.3816,-152.964 1460.0925,-142.3302 1478.8083,-135.103"/>
<polygon fill="#191970" stroke="#191970" points="1480.168,-138.3329 1488.3721,-131.6289 1477.778,-131.7535 1480.168,-138.3329"/>
</g>
<!-- Node23&#45;&gt;Node6 -->
<g id="edge8" class="edge">
<title>Node23&#45;&gt;Node6</title>
<path fill="none" stroke="#191970" d="M1517.0677,-168.2455C1518.2421,-160.9382 1519.8884,-150.6944 1521.3332,-141.7046"/>
<polygon fill="#191970" stroke="#191970" points="1524.8191,-142.0714 1522.9503,-131.6427 1517.9078,-140.9606 1524.8191,-142.0714"/>
</g>
<!-- Node6&#45;&gt;Node19 -->
<g id="edge16" class="edge">
<title>Node6&#45;&gt;Node19</title>
<path fill="none" stroke="#191970" d="M1475.8306,-112.4369C1417.4993,-100.9753 1321.4076,-82.0941 1271.6287,-72.313"/>
<polygon fill="#191970" stroke="#191970" points="1272.2269,-68.8637 1261.7397,-70.3699 1270.8772,-75.7324 1272.2269,-68.8637"/>
</g>
<!-- Node7 -->
<g id="node10" class="node">
<title>Node7</title>
<g id="a_node10"><a xlink:href="Utils_8h.html" target="_top" xlink:title="iDynTree/Core/Utils.h">
<polygon fill="none" stroke="#000000" points="1920,-56.5 1920,-75.5 2039,-75.5 2039,-56.5 1920,-56.5"/>
<text text-anchor="middle" x="1979.5" y="-63.5" font-family="FreeSans.ttf" font-size="10.00" fill="#000000">iDynTree/Core/Utils.h</text>
</a>
</g>
</g>
<!-- Node6&#45;&gt;Node7 -->
<g id="edge9" class="edge">
<title>Node6&#45;&gt;Node7</title>
<path fill="none" stroke="#191970" d="M1601.9423,-112.4686C1688.2708,-101.8436 1826.636,-84.814 1909.7268,-74.5875"/>
<polygon fill="#191970" stroke="#191970" points="1910.3299,-78.0397 1919.8275,-73.3443 1909.4748,-71.0922 1910.3299,-78.0397"/>
</g>
<!-- Node8 -->
<g id="node11" class="node">
<title>Node8</title>
<polygon fill="none" stroke="#bfbfbf" points="1504,-.5 1504,-19.5 1557,-19.5 1557,-.5 1504,-.5"/>
<text text-anchor="middle" x="1530.5" y="-7.5" font-family="FreeSans.ttf" font-size="10.00" fill="#000000">cstddef</text>
</g>
<!-- Node6&#45;&gt;Node8 -->
<g id="edge19" class="edge">
<title>Node6&#45;&gt;Node8</title>
<path fill="none" stroke="#191970" d="M1503.2404,-112.4912C1480.3701,-100.8058 1448.8681,-79.6029 1461.5,-56 1468.9515,-42.0767 1482.6849,-31.6399 1495.949,-24.258"/>
<polygon fill="#191970" stroke="#191970" points="1497.6726,-27.3075 1504.9738,-19.6302 1494.4785,-21.0787 1497.6726,-27.3075"/>
</g>
<!-- Node10 -->
<g id="node13" class="node">
<title>Node10</title>
<g id="a_node13"><a xlink:href="Span_8h.html" target="_top" xlink:title="iDynTree/Core/Span.h">
<polygon fill="none" stroke="#ff0000" points="1470,-56.5 1470,-75.5 1591,-75.5 1591,-56.5 1470,-56.5"/>
<text text-anchor="middle" x="1530.5" y="-63.5" font-family="FreeSans.ttf" font-size="10.00" fill="#000000">iDynTree/Core/Span.h</text>
</a>
</g>
</g>
<!-- Node6&#45;&gt;Node10 -->
<g id="edge12" class="edge">
<title>Node6&#45;&gt;Node10</title>
<path fill="none" stroke="#191970" d="M1525.5451,-112.2455C1526.328,-104.9382 1527.4256,-94.6944 1528.3888,-85.7046"/>
<polygon fill="#191970" stroke="#191970" points="1531.8815,-85.9587 1529.4669,-75.6427 1524.9214,-85.2129 1531.8815,-85.9587"/>
</g>
<!-- Node11 -->
<g id="node14" class="node">
<title>Node11</title>
<polygon fill="none" stroke="#bfbfbf" points="1698.5,-.5 1698.5,-19.5 1750.5,-19.5 1750.5,-.5 1698.5,-.5"/>
<text text-anchor="middle" x="1724.5" y="-7.5" font-family="FreeSans.ttf" font-size="10.00" fill="#000000">cassert</text>
</g>
<!-- Node6&#45;&gt;Node11 -->
<g id="edge18" class="edge">
<title>Node6&#45;&gt;Node11</title>
<path fill="none" stroke="#191970" d="M1540.6374,-112.4281C1562.6375,-99.4316 1603.3325,-75.5781 1638.5,-56 1657.9162,-45.1908 1680.0273,-33.3747 1696.9672,-24.4249"/>
<polygon fill="#191970" stroke="#191970" points="1699.0685,-27.2739 1706.2841,-19.516 1695.8054,-21.081 1699.0685,-27.2739"/>
</g>
<!-- Node20 -->
<g id="node16" class="node">
<title>Node20</title>
<polygon fill="none" stroke="#bfbfbf" points="1647.5,-56.5 1647.5,-75.5 1703.5,-75.5 1703.5,-56.5 1647.5,-56.5"/>
<text text-anchor="middle" x="1675.5" y="-63.5" font-family="FreeSans.ttf" font-size="10.00" fill="#000000">sstream</text>
</g>
<!-- Node6&#45;&gt;Node20 -->
<g id="edge17" class="edge">
<title>Node6&#45;&gt;Node20</title>
<path fill="none" stroke="#191970" d="M1550.4578,-112.3733C1575.2407,-103.1822 1612.7746,-89.2624 1640.254,-79.0713"/>
<polygon fill="#191970" stroke="#191970" points="1641.7219,-82.26 1649.8809,-75.5011 1639.2879,-75.6968 1641.7219,-82.26"/>
</g>
<!-- Node21 -->
<g id="node17" class="node">
<title>Node21</title>
<polygon fill="none" stroke="#bfbfbf" points="1745.5,-56.5 1745.5,-75.5 1795.5,-75.5 1795.5,-56.5 1745.5,-56.5"/>
<text text-anchor="middle" x="1770.5" y="-63.5" font-family="FreeSans.ttf" font-size="10.00" fill="#000000">cstring</text>
</g>
<!-- Node6&#45;&gt;Node21 -->
<g id="edge20" class="edge">
<title>Node6&#45;&gt;Node21</title>
<path fill="none" stroke="#191970" d="M1566.5094,-112.4369C1614.1236,-101.5979 1690.8863,-84.1234 1735.4239,-73.9848"/>
<polygon fill="#191970" stroke="#191970" points="1736.2423,-77.3881 1745.216,-71.7557 1734.6885,-70.5627 1736.2423,-77.3881"/>
</g>
<!-- Node7&#45;&gt;Node8 -->
<g id="edge10" class="edge">
<title>Node7&#45;&gt;Node8</title>
<path fill="none" stroke="#191970" d="M1919.8763,-58.5636C1825.6676,-46.8138 1645.1284,-24.2966 1567.4891,-14.6133"/>
<polygon fill="#191970" stroke="#191970" points="1567.5928,-11.0992 1557.2365,-13.3346 1566.7264,-18.0454 1567.5928,-11.0992"/>
</g>
<!-- Node9 -->
<g id="node12" class="node">
<title>Node9</title>
<polygon fill="none" stroke="#bfbfbf" points="1939.5,-.5 1939.5,-19.5 2019.5,-19.5 2019.5,-.5 1939.5,-.5"/>
<text text-anchor="middle" x="1979.5" y="-7.5" font-family="FreeSans.ttf" font-size="10.00" fill="#000000">CoreExport.h</text>
</g>
<!-- Node7&#45;&gt;Node9 -->
<g id="edge11" class="edge">
<title>Node7&#45;&gt;Node9</title>
<path fill="none" stroke="#191970" d="M1979.5,-56.2455C1979.5,-48.9382 1979.5,-38.6944 1979.5,-29.7046"/>
<polygon fill="#191970" stroke="#191970" points="1983.0001,-29.6426 1979.5,-19.6427 1976.0001,-29.6427 1983.0001,-29.6426"/>
</g>
<!-- Node10&#45;&gt;Node8 -->
<g id="edge14" class="edge">
<title>Node10&#45;&gt;Node8</title>
<path fill="none" stroke="#191970" d="M1530.5,-56.2455C1530.5,-48.9382 1530.5,-38.6944 1530.5,-29.7046"/>
<polygon fill="#191970" stroke="#191970" points="1534.0001,-29.6426 1530.5,-19.6427 1527.0001,-29.6427 1534.0001,-29.6426"/>
</g>
<!-- Node10&#45;&gt;Node11 -->
<g id="edge13" class="edge">
<title>Node10&#45;&gt;Node11</title>
<path fill="none" stroke="#191970" d="M1563.8498,-56.3733C1598.5576,-46.3545 1652.7309,-30.7168 1688.4199,-20.4149"/>
<polygon fill="#191970" stroke="#191970" points="1689.7748,-23.6667 1698.4119,-17.5306 1687.8334,-16.9413 1689.7748,-23.6667"/>
</g>
<!-- Node14 -->
<g id="node15" class="node">
<title>Node14</title>
<polygon fill="none" stroke="#bfbfbf" points="711,-.5 711,-19.5 764,-19.5 764,-.5 711,-.5"/>
<text text-anchor="middle" x="737.5" y="-7.5" font-family="FreeSans.ttf" font-size="10.00" fill="#000000">iterator</text>
</g>
<!-- Node10&#45;&gt;Node14 -->
<g id="edge15" class="edge">
<title>Node10&#45;&gt;Node14</title>
<path fill="none" stroke="#191970" d="M1469.9187,-61.7219C1313.7163,-50.6912 900.7211,-21.5263 774.6023,-12.6201"/>
<polygon fill="#191970" stroke="#191970" points="774.5411,-9.1071 764.3193,-11.8939 774.0479,-16.0897 774.5411,-9.1071"/>
</g>
<!-- Node25&#45;&gt;Node19 -->
<g id="edge32" class="edge">
<title>Node25&#45;&gt;Node19</title>
<path fill="none" stroke="#191970" d="M1889.8657,-168.4339C1856.5286,-160.3684 1809.3182,-147.6484 1769.5,-132 1751.3701,-124.875 1749.2013,-117.4513 1730.5,-112 1643.8359,-86.7382 1366.7932,-71.8819 1271.8136,-67.4293"/>
<polygon fill="#191970" stroke="#191970" points="1271.8155,-63.9257 1261.6647,-66.9608 1271.4927,-70.9183 1271.8155,-63.9257"/>
</g>
<!-- Node25&#45;&gt;Node7 -->
<g id="edge25" class="edge">
<title>Node25&#45;&gt;Node7</title>
<path fill="none" stroke="#191970" d="M1966.0002,-168.3574C1983.7612,-161.3494 2004.024,-149.8886 2014.5,-132 2024.1429,-115.534 2011.1421,-96.1952 1998.3395,-82.7242"/>
<polygon fill="#191970" stroke="#191970" points="2000.5917,-80.031 1990.9972,-75.5368 1995.6949,-85.0332 2000.5917,-80.031"/>
</g>
<!-- Node25&#45;&gt;Node11 -->
<g id="edge30" class="edge">
<title>Node25&#45;&gt;Node11</title>
<path fill="none" stroke="#191970" d="M1969.1009,-168.3623C1989.3846,-161.3164 2013.6346,-149.8164 2029.5,-132 2052.6547,-105.9979 2071.3237,-82.293 2048.5,-56 2029.832,-34.4944 1841.6654,-18.4588 1760.9521,-12.5165"/>
<polygon fill="#191970" stroke="#191970" points="1760.9822,-9.0096 1750.7554,-11.7775 1760.4762,-15.9913 1760.9822,-9.0096"/>
</g>
<!-- Node25&#45;&gt;Node20 -->
<g id="edge34" class="edge">
<title>Node25&#45;&gt;Node20</title>
<path fill="none" stroke="#191970" d="M1907.2112,-168.3419C1883.801,-159.2933 1848.0969,-145.2182 1817.5,-132 1777.9863,-114.9296 1733.0315,-93.7282 1704.481,-80.0356"/>
<polygon fill="#191970" stroke="#191970" points="1705.6312,-76.705 1695.1023,-75.5246 1702.597,-83.0133 1705.6312,-76.705"/>
</g>
<!-- Node25&#45;&gt;Node21 -->
<g id="edge31" class="edge">
<title>Node25&#45;&gt;Node21</title>
<path fill="none" stroke="#191970" d="M1910.9538,-168.3578C1892.8373,-159.8467 1866.5936,-146.5556 1845.5,-132 1824.0597,-117.2052 1801.9625,-97.0538 1787.3586,-82.9229"/>
<polygon fill="#191970" stroke="#191970" points="1789.6555,-80.273 1780.0679,-75.7641 1784.7511,-85.2678 1789.6555,-80.273"/>
</g>
<!-- Node26 -->
<g id="node19" class="node">
<title>Node26</title>
<g id="a_node19"><a xlink:href="MatrixView_8h.html" target="_top" xlink:title="iDynTree/Core/MatrixView.h">
<polygon fill="none" stroke="#ff0000" points="1854,-112.5 1854,-131.5 2005,-131.5 2005,-112.5 1854,-112.5"/>
<text text-anchor="middle" x="1929.5" y="-119.5" font-family="FreeSans.ttf" font-size="10.00" fill="#000000">iDynTree/Core/MatrixView.h</text>
</a>
</g>
</g>
<!-- Node25&#45;&gt;Node26 -->
<g id="edge26" class="edge">
<title>Node25&#45;&gt;Node26</title>
<path fill="none" stroke="#191970" d="M1931.9774,-168.2455C1931.586,-160.9382 1931.0372,-150.6944 1930.5556,-141.7046"/>
<polygon fill="#191970" stroke="#191970" points="1934.0466,-141.4411 1930.0166,-131.6427 1927.0566,-141.8156 1934.0466,-141.4411"/>
</g>
<!-- Node27 -->
<g id="node20" class="node">
<title>Node27</title>
<polygon fill="none" stroke="#bfbfbf" points="1661.5,-112.5 1661.5,-131.5 1721.5,-131.5 1721.5,-112.5 1661.5,-112.5"/>
<text text-anchor="middle" x="1691.5" y="-119.5" font-family="FreeSans.ttf" font-size="10.00" fill="#000000">iostream</text>
</g>
<!-- Node25&#45;&gt;Node27 -->
<g id="edge33" class="edge">
<title>Node25&#45;&gt;Node27</title>
<path fill="none" stroke="#191970" d="M1891.3445,-168.4369C1846.6936,-158.0616 1775.8777,-141.6064 1731.6317,-131.3252"/>
<polygon fill="#191970" stroke="#191970" points="1732.3334,-127.8951 1721.8007,-129.0408 1730.749,-134.7134 1732.3334,-127.8951"/>
</g>
<!-- Node26&#45;&gt;Node7 -->
<g id="edge29" class="edge">
<title>Node26&#45;&gt;Node7</title>
<path fill="none" stroke="#191970" d="M1938.2093,-112.2455C1945.3073,-104.2958 1955.5084,-92.8706 1963.995,-83.3656"/>
<polygon fill="#191970" stroke="#191970" points="1966.8411,-85.4331 1970.8905,-75.6427 1961.6195,-80.771 1966.8411,-85.4331"/>
</g>
<!-- Node26&#45;&gt;Node10 -->
<g id="edge28" class="edge">
<title>Node26&#45;&gt;Node10</title>
<path fill="none" stroke="#191970" d="M1861.3628,-112.4369C1788.8737,-102.263 1674.7313,-86.243 1601.2572,-75.9308"/>
<polygon fill="#191970" stroke="#191970" points="1601.5576,-72.4388 1591.1681,-74.5148 1600.5846,-79.3708 1601.5576,-72.4388"/>
</g>
<!-- Node26&#45;&gt;Node11 -->
<g id="edge27" class="edge">
<title>Node26&#45;&gt;Node11</title>
<path fill="none" stroke="#191970" d="M1912.0218,-112.4509C1876.0148,-92.7788 1793.3879,-47.6363 1750.858,-24.4005"/>
<polygon fill="#191970" stroke="#191970" points="1752.3877,-21.248 1741.9339,-19.5249 1749.0315,-27.3909 1752.3877,-21.248"/>
</g>
<!-- Node28&#45;&gt;Node29 -->
<g id="edge37" class="edge">
<title>Node28&#45;&gt;Node29</title>
<path fill="none" stroke="#191970" d="M1681.7188,-470.3906C1709.0188,-461.4123 1750.4895,-447.7735 1784.064,-436.7316"/>
<polygon fill="#191970" stroke="#191970" points="1785.3487,-439.9936 1793.7547,-433.5446 1783.1617,-433.344 1785.3487,-439.9936"/>
</g>
<!-- Node29&#45;&gt;Node23 -->
<g id="edge39" class="edge">
<title>Node29&#45;&gt;Node23</title>
<path fill="none" stroke="#191970" d="M1824.736,-403.4714C1809.9342,-388.6361 1786.2764,-365.5461 1764.5,-347 1695.6759,-288.3853 1678.7121,-272.6226 1602.5,-224 1583.9057,-212.137 1561.9413,-200.541 1544.734,-191.9594"/>
<polygon fill="#191970" stroke="#191970" points="1546.2331,-188.7963 1535.7155,-187.5194 1543.1412,-195.0764 1546.2331,-188.7963"/>
</g>
<!-- Node29&#45;&gt;Node6 -->
<g id="edge38" class="edge">
<title>Node29&#45;&gt;Node6</title>
<path fill="none" stroke="#191970" d="M1857.6125,-403.3218C1896.6856,-368.7787 1981.6854,-282.7438 1934.5,-224 1888.0395,-166.1587 1842.3999,-209.8494 1771.5,-188 1748.6274,-180.9513 1744.3298,-175.1861 1721.5,-168 1676.3512,-153.7886 1624.1423,-141.7917 1584.8192,-133.6163"/>
<polygon fill="#191970" stroke="#191970" points="1585.3561,-130.1535 1574.8562,-131.5692 1583.9472,-137.0103 1585.3561,-130.1535"/>
</g>
<!-- Node30 -->
<g id="node23" class="node">
<title>Node30</title>
<g id="a_node23"><a xlink:href="SpatialVector_8h.html" target="_top" xlink:title="iDynTree/Core/SpatialVector.h">
<polygon fill="none" stroke="#000000" points="1594,-347.5 1594,-366.5 1755,-366.5 1755,-347.5 1594,-347.5"/>
<text text-anchor="middle" x="1674.5" y="-354.5" font-family="FreeSans.ttf" font-size="10.00" fill="#000000">iDynTree/Core/SpatialVector.h</text>
</a>
</g>
</g>
<!-- Node29&#45;&gt;Node30 -->
<g id="edge40" class="edge">
<title>Node29&#45;&gt;Node30</title>
<path fill="none" stroke="#191970" d="M1799.1365,-403.4554C1771.7265,-393.239 1735.8341,-379.8609 1709.609,-370.0861"/>
<polygon fill="#191970" stroke="#191970" points="1710.6618,-366.7433 1700.0691,-366.5303 1708.217,-373.3025 1710.6618,-366.7433"/>
</g>
<!-- Node30&#45;&gt;Node4 -->
<g id="edge41" class="edge">
<title>Node30&#45;&gt;Node4</title>
<path fill="none" stroke="#191970" d="M1613.5351,-347.4369C1551.1538,-337.6516 1454.2963,-322.4582 1388.4971,-312.1368"/>
<polygon fill="#191970" stroke="#191970" points="1388.635,-308.6157 1378.2134,-310.5237 1387.5502,-315.5311 1388.635,-308.6157"/>
</g>
<!-- Node30&#45;&gt;Node22 -->
<g id="edge42" class="edge">
<title>Node30&#45;&gt;Node22</title>
<path fill="none" stroke="#191970" d="M1651.4228,-347.3845C1601.3101,-326.5042 1482.4237,-276.9682 1424.8517,-252.9799"/>
<polygon fill="#191970" stroke="#191970" points="1426.0776,-249.699 1415.5006,-249.0836 1423.3852,-256.1606 1426.0776,-249.699"/>
</g>
<!-- Node30&#45;&gt;Node23 -->
<g id="edge44" class="edge">
<title>Node30&#45;&gt;Node23</title>
<path fill="none" stroke="#191970" d="M1662.7331,-347.2325C1652.6046,-338.4407 1638.0049,-324.814 1627.5,-311 1600.7686,-275.8481 1608.8141,-257.0289 1579.5,-224 1568.6828,-211.812 1554.0792,-201.0086 1541.5533,-192.9393"/>
<polygon fill="#191970" stroke="#191970" points="1543.2272,-189.8591 1532.8835,-187.5661 1539.5396,-195.809 1543.2272,-189.8591"/>
</g>
<!-- Node30&#45;&gt;Node7 -->
<g id="edge43" class="edge">
<title>Node30&#45;&gt;Node7</title>
<path fill="none" stroke="#191970" d="M1739.721,-347.4763C1823.1825,-331.3207 1963.9567,-289.7264 2022.5,-188 2039.4195,-158.6002 2043.1306,-143.0616 2029.5,-112 2024.1677,-99.8487 2013.8661,-89.4938 2003.9924,-81.7031"/>
<polygon fill="#191970" stroke="#191970" points="2006.0509,-78.8723 1995.9177,-75.7788 2001.91,-84.5162 2006.0509,-78.8723"/>
</g>
<!-- Node30&#45;&gt;Node20 -->
<g id="edge46" class="edge">
<title>Node30&#45;&gt;Node20</title>
<path fill="none" stroke="#191970" d="M1673.1911,-347.156C1669.0982,-315.8131 1656.5725,-215.5007 1652.5,-132 1652.067,-123.1217 1650.4578,-120.6511 1652.5,-112 1654.7706,-102.3814 1659.3775,-92.4809 1663.8759,-84.3404"/>
<polygon fill="#191970" stroke="#191970" points="1666.8973,-86.1071 1668.9603,-75.7151 1660.867,-82.5524 1666.8973,-86.1071"/>
</g>
<!-- Node30&#45;&gt;Node27 -->
<g id="edge45" class="edge">
<title>Node30&#45;&gt;Node27</title>
<path fill="none" stroke="#191970" d="M1675.1875,-347.4967C1677.7236,-312.4391 1686.5874,-189.9096 1690.0749,-141.7"/>
<polygon fill="#191970" stroke="#191970" points="1693.5732,-141.8481 1690.804,-131.6216 1686.5915,-141.343 1693.5732,-141.8481"/>
</g>
<!-- Node31&#45;&gt;Node29 -->
<g id="edge48" class="edge">
<title>Node31&#45;&gt;Node29</title>
<path fill="none" stroke="#191970" d="M1842.875,-470.3906C1842.4088,-463.2234 1841.7495,-453.0862 1841.1371,-443.671"/>
<polygon fill="#191970" stroke="#191970" points="1844.6203,-443.2963 1840.4785,-433.5446 1837.635,-443.7507 1844.6203,-443.2963"/>
</g>
<!-- Node33 -->
<g id="node26" class="node">
<title>Node33</title>
<g id="a_node26"><a xlink:href="SpatialForceVector_8h.html" target="_top" xlink:title="iDynTree/Core/SpatialForce\lVector.h">
<polygon fill="none" stroke="#000000" points="1451.5,-403.5 1451.5,-433.5 1599.5,-433.5 1599.5,-403.5 1451.5,-403.5"/>
<text text-anchor="start" x="1459.5" y="-421.5" font-family="FreeSans.ttf" font-size="10.00" fill="#000000">iDynTree/Core/SpatialForce</text>
<text text-anchor="middle" x="1525.5" y="-410.5" font-family="FreeSans.ttf" font-size="10.00" fill="#000000">Vector.h</text>
</a>
</g>
</g>
<!-- Node32&#45;&gt;Node33 -->
<g id="edge50" class="edge">
<title>Node32&#45;&gt;Node33</title>
<path fill="none" stroke="#191970" d="M1445.3438,-470.3906C1458.2008,-462.0673 1477.2448,-449.7389 1493.5442,-439.1872"/>
<polygon fill="#191970" stroke="#191970" points="1495.7679,-441.9171 1502.2604,-433.5446 1491.9638,-436.0409 1495.7679,-441.9171"/>
</g>
<!-- Node33&#45;&gt;Node23 -->
<g id="edge52" class="edge">
<title>Node33&#45;&gt;Node23</title>
<path fill="none" stroke="#191970" d="M1521.0018,-403.3372C1518.2236,-393.1632 1514.926,-379.4038 1513.5,-367 1506.4626,-305.7866 1510.8249,-232.6886 1513.65,-198.0737"/>
<polygon fill="#191970" stroke="#191970" points="1517.1566,-198.147 1514.5304,-187.8829 1510.1826,-197.5445 1517.1566,-198.147"/>
</g>
<!-- Node33&#45;&gt;Node6 -->
<g id="edge51" class="edge">
<title>Node33&#45;&gt;Node6</title>
<path fill="none" stroke="#191970" d="M1461.9379,-403.4549C1386.1297,-384.0741 1266.3684,-348.4048 1240.5,-311 1175.6869,-217.2825 1368.6962,-157.681 1468.6101,-133.8487"/>
<polygon fill="#191970" stroke="#191970" points="1469.6214,-137.2067 1478.5607,-131.5199 1468.0262,-130.3909 1469.6214,-137.2067"/>
</g>
<!-- Node33&#45;&gt;Node30 -->
<g id="edge53" class="edge">
<title>Node33&#45;&gt;Node30</title>
<path fill="none" stroke="#191970" d="M1561.9495,-403.4554C1586.3744,-393.374 1618.2581,-380.2139 1641.8521,-370.4755"/>
<polygon fill="#191970" stroke="#191970" points="1643.5021,-373.5809 1651.4103,-366.5303 1640.8313,-367.1104 1643.5021,-373.5809"/>
</g>
<!-- Node34&#45;&gt;Node19 -->
<g id="edge56" class="edge">
<title>Node34&#45;&gt;Node19</title>
<path fill="none" stroke="#191970" d="M1819.1677,-224.4181C1770.6454,-203.7249 1688.9433,-168.958 1685.5,-168 1576.9264,-137.7938 1544.1151,-158.1757 1434.5,-132 1375.6231,-117.9404 1309.3002,-93.5963 1271.1535,-78.7296"/>
<polygon fill="#191970" stroke="#191970" points="1272.2146,-75.3861 1261.6274,-74.9852 1269.6538,-81.9009 1272.2146,-75.3861"/>
</g>
<!-- Node34&#45;&gt;Node25 -->
<g id="edge55" class="edge">
<title>Node34&#45;&gt;Node25</title>
<path fill="none" stroke="#191970" d="M1873.7809,-224.2977C1885.3976,-215.1384 1900.1818,-203.4816 1912.0092,-194.1562"/>
<polygon fill="#191970" stroke="#191970" points="1914.3256,-196.787 1920.0112,-187.8469 1909.9914,-191.2901 1914.3256,-196.787"/>
</g>
<!-- Node35&#45;&gt;Node19 -->
<g id="edge59" class="edge">
<title>Node35&#45;&gt;Node19</title>
<path fill="none" stroke="#191970" d="M340.2336,-470.4518C397.7033,-456.5074 482.5,-424.4962 482.5,-357 482.5,-357 482.5,-357 482.5,-178 482.5,-120.9862 538.1296,-129.1588 592.5,-112 709.017,-75.2282 1092.8845,-67.7441 1207.1399,-66.3172"/>
<polygon fill="#191970" stroke="#191970" points="1207.379,-69.8148 1217.3371,-66.1973 1207.2966,-62.8152 1207.379,-69.8148"/>
</g>
<!-- Node35&#45;&gt;Node8 -->
<g id="edge58" class="edge">
<title>Node35&#45;&gt;Node8</title>
<path fill="none" stroke="#191970" d="M288.5,-470.4309C288.5,-449.738 288.5,-399.2813 288.5,-357 288.5,-357 288.5,-357 288.5,-122 288.5,-59.8534 1287.9037,-19.0789 1493.7097,-11.3411"/>
<polygon fill="#191970" stroke="#191970" points="1494.122,-14.8282 1503.9845,-10.9575 1493.8608,-7.8331 1494.122,-14.8282"/>
</g>
<!-- Node36 -->
<g id="node29" class="node">
<title>Node36</title>
<polygon fill="none" stroke="#bfbfbf" points="316.5,-409 316.5,-428 402.5,-428 402.5,-409 316.5,-409"/>
<text text-anchor="middle" x="359.5" y="-416" font-family="FreeSans.ttf" font-size="10.00" fill="#000000">ModelExport.h</text>
</g>
<!-- Node35&#45;&gt;Node36 -->
<g id="edge60" class="edge">
<title>Node35&#45;&gt;Node36</title>
<path fill="none" stroke="#191970" d="M299.5938,-470.3906C310.4715,-460.9683 327.2748,-446.4134 340.32,-435.1137"/>
<polygon fill="#191970" stroke="#191970" points="342.9827,-437.4377 348.2498,-428.2449 338.3996,-432.1466 342.9827,-437.4377"/>
</g>
<!-- Node38&#45;&gt;Node23 -->
<g id="edge65" class="edge">
<title>Node38&#45;&gt;Node23</title>
<path fill="none" stroke="#191970" d="M1432.1667,-761.37C1495.443,-730.3453 1634.8727,-653.3008 1707.5,-546 1721.9427,-524.662 1719.1379,-515.546 1722.5,-490 1723.6599,-481.1871 1727.1732,-477.5613 1722.5,-470 1703.6909,-439.5662 1680.7057,-453.1733 1650.5,-434 1645.4235,-430.7776 1568.7999,-372.0264 1565.5,-367 1530.0342,-312.9794 1519.6656,-234.7701 1516.6805,-198.2323"/>
<polygon fill="#191970" stroke="#191970" points="1520.1477,-197.6442 1515.9483,-187.9172 1513.1653,-198.1399 1520.1477,-197.6442"/>
</g>
<!-- Node38&#45;&gt;Node39 -->
<g id="edge66" class="edge">
<title>Node38&#45;&gt;Node39</title>
<path fill="none" stroke="#191970" d="M1311.657,-766.1749C1295.959,-764.3981 1279.75,-762.6076 1264.5,-761 1127.0237,-746.5079 967.1451,-731.5318 871.2614,-722.7521"/>
<polygon fill="#191970" stroke="#191970" points="871.3164,-719.2426 861.0392,-721.8174 870.6789,-726.2135 871.3164,-719.2426"/>
</g>
<!-- Node39&#45;&gt;Node19 -->
<g id="edge68" class="edge">
<title>Node39&#45;&gt;Node19</title>
<path fill="none" stroke="#191970" d="M778.6228,-705.4843C765.3503,-686.1531 737.5,-640.4698 737.5,-597.5 737.5,-597.5 737.5,-597.5 737.5,-178 737.5,-129.714 1095.8655,-83.0687 1207.0222,-69.7619"/>
<polygon fill="#191970" stroke="#191970" points="1207.764,-73.1985 1217.282,-68.5446 1206.9392,-66.2472 1207.764,-73.1985"/>
</g>
<!-- Node39&#45;&gt;Node23 -->
<g id="edge67" class="edge">
<title>Node39&#45;&gt;Node23</title>
<path fill="none" stroke="#191970" d="M802.0147,-705.4206C815.1569,-697.1332 833.3051,-684.1214 845.5,-669 883.4414,-621.9533 881.317,-602.2215 903.5,-546 913.0952,-521.6815 914.5652,-515.2064 921.5,-490 932.0244,-451.7461 919.6291,-436.1027 941.5,-403 1016.0365,-290.1852 1062.1425,-274.679 1187.5,-224 1229.1018,-207.1814 1341.8926,-193.7724 1423.6062,-185.8669"/>
<polygon fill="#191970" stroke="#191970" points="1424.2902,-189.3176 1433.9123,-184.8829 1423.6249,-182.3493 1424.2902,-189.3176"/>
</g>
<!-- Node39&#45;&gt;Node14 -->
<g id="edge70" class="edge">
<title>Node39&#45;&gt;Node14</title>
<path fill="none" stroke="#191970" d="M709.7624,-712.5351C575.2163,-707.5652 299.976,-694.5695 207.5,-669 90.2444,-636.5789 9.5,-601.6553 9.5,-480 9.5,-480 9.5,-480 9.5,-122 9.5,-51.3581 551.8991,-19.2214 700.3375,-11.7492"/>
<polygon fill="#191970" stroke="#191970" points="700.9122,-15.2251 710.7267,-11.2344 700.5657,-8.2337 700.9122,-15.2251"/>
</g>
<!-- Node39&#45;&gt;Node35 -->
<g id="edge94" class="edge">
<title>Node39&#45;&gt;Node35</title>
<path fill="none" stroke="#191970" d="M709.8196,-709.1757C540.6683,-695.3914 143.6814,-658.4871 104.5,-613 78.7839,-583.1453 138.6871,-526.6255 139.5,-526 160.9045,-509.5308 188.2528,-498.9119 213.6624,-492.0847"/>
<polygon fill="#191970" stroke="#191970" points="214.8208,-495.4021 223.6603,-489.5615 213.1078,-488.615 214.8208,-495.4021"/>
</g>
<!-- Node39&#45;&gt;Node37 -->
<g id="edge69" class="edge">
<title>Node39&#45;&gt;Node37</title>
<path fill="none" stroke="#191970" d="M796.5594,-705.4212C805.9593,-696.7503 819.2119,-683.1951 827.5,-669 831.9423,-661.3917 868.711,-545.7788 883.4365,-499.2155"/>
<polygon fill="#191970" stroke="#191970" points="886.7755,-500.2648 886.4507,-489.6749 880.1006,-498.1559 886.7755,-500.2648"/>
</g>
<!-- Node40 -->
<g id="node33" class="node">
<title>Node40</title>
<g id="a_node33"><a xlink:href="VectorDynSize_8h.html" target="_top" xlink:title="iDynTree/Core/VectorDynSize.h">
<polygon fill="none" stroke="#000000" points="951,-409 951,-428 1118,-428 1118,-409 951,-409"/>
<text text-anchor="middle" x="1034.5" y="-416" font-family="FreeSans.ttf" font-size="10.00" fill="#000000">iDynTree/Core/VectorDynSize.h</text>
</a>
</g>
</g>
<!-- Node39&#45;&gt;Node40 -->
<g id="edge71" class="edge">
<title>Node39&#45;&gt;Node40</title>
<path fill="none" stroke="#191970" d="M789.3933,-705.4356C797.0869,-685.643 813.5,-638.6022 813.5,-597.5 813.5,-597.5 813.5,-597.5 813.5,-536 813.5,-473.1245 884.1022,-443.7879 945.4959,-430.1635"/>
<polygon fill="#191970" stroke="#191970" points="946.5827,-433.5117 955.6499,-428.0311 945.144,-426.6611 946.5827,-433.5117"/>
</g>
<!-- Node39&#45;&gt;Node41 -->
<g id="edge74" class="edge">
<title>Node39&#45;&gt;Node41</title>
<path fill="none" stroke="#191970" d="M755.2445,-705.3733C725.8517,-696.021 681.0708,-681.7725 648.9066,-671.5385"/>
<polygon fill="#191970" stroke="#191970" points="649.9512,-668.198 639.3607,-668.5011 647.8287,-674.8685 649.9512,-668.198"/>
</g>
<!-- Node40&#45;&gt;Node19 -->
<g id="edge73" class="edge">
<title>Node40&#45;&gt;Node19</title>
<path fill="none" stroke="#191970" d="M1013.0404,-408.9591C979.2635,-392.3099 917.5,-354.545 917.5,-301 917.5,-301 917.5,-301 917.5,-178 917.5,-131.2171 957.0452,-131.6528 999.5,-112 1068.9386,-79.8561 1159.6608,-70.1722 1207.2102,-67.2558"/>
<polygon fill="#191970" stroke="#191970" points="1207.4378,-70.7487 1217.23,-66.7035 1207.0525,-63.7593 1207.4378,-70.7487"/>
</g>
<!-- Node40&#45;&gt;Node10 -->
<g id="edge72" class="edge">
<title>Node40&#45;&gt;Node10</title>
<path fill="none" stroke="#191970" d="M1028.6257,-408.8414C1017.2888,-389.2533 993.5,-343.1308 993.5,-301 993.5,-301 993.5,-301 993.5,-239.5 993.5,-205.9798 992.3349,-190.1433 1017.5,-168 1082.3988,-110.8942 1334.5275,-82.3109 1459.4866,-71.4115"/>
<polygon fill="#191970" stroke="#191970" points="1460.0526,-74.8759 1469.7169,-70.534 1459.4543,-67.9015 1460.0526,-74.8759"/>
</g>
<!-- Node41&#45;&gt;Node3 -->
<g id="edge84" class="edge">
<title>Node41&#45;&gt;Node3</title>
<path fill="none" stroke="#191970" d="M625.3356,-649.4204C639.9423,-640.4259 662.0862,-626.3864 680.5,-613 762.0216,-553.7357 763.5202,-508.8946 856.5,-470 890.873,-455.6213 1114.4695,-435.4651 1239.0231,-425.1518"/>
<polygon fill="#191970" stroke="#191970" points="1239.6078,-428.6156 1249.2864,-424.3057 1239.0326,-421.6392 1239.6078,-428.6156"/>
</g>
<!-- Node41&#45;&gt;Node35 -->
<g id="edge85" class="edge">
<title>Node41&#45;&gt;Node35</title>
<path fill="none" stroke="#191970" d="M542.8822,-649.6201C441.2024,-633.7867 254.898,-598.2858 215.5,-546 200.0241,-525.4616 227.9815,-506.259 253.6487,-493.9213"/>
<polygon fill="#191970" stroke="#191970" points="255.2692,-497.0292 262.9167,-489.6967 252.3657,-490.6597 255.2692,-497.0292"/>
</g>
<!-- Node41&#45;&gt;Node37 -->
<g id="edge93" class="edge">
<title>Node41&#45;&gt;Node37</title>
<path fill="none" stroke="#191970" d="M635.5298,-649.427C657.0741,-641.0522 688.1455,-627.9164 713.5,-613 774.7515,-576.9648 839.6749,-523.2939 870.7676,-496.4846"/>
<polygon fill="#191970" stroke="#191970" points="873.3553,-498.8728 878.609,-489.6722 868.7645,-493.5884 873.3553,-498.8728"/>
</g>
<!-- Node42 -->
<g id="node35" class="node">
<title>Node42</title>
<g id="a_node35"><a xlink:href="IJoint_8h.html" target="_top" xlink:title="iDynTree/Model/IJoint.h">
<polygon fill="none" stroke="#000000" points="113.5,-588 113.5,-607 241.5,-607 241.5,-588 113.5,-588"/>
<text text-anchor="middle" x="177.5" y="-595" font-family="FreeSans.ttf" font-size="10.00" fill="#000000">iDynTree/Model/IJoint.h</text>
</a>
</g>
</g>
<!-- Node41&#45;&gt;Node42 -->
<g id="edge75" class="edge">
<title>Node41&#45;&gt;Node42</title>
<path fill="none" stroke="#191970" d="M542.7557,-651.6767C471.443,-643.5373 355.1853,-629.3625 255.5,-613 248.111,-611.7872 240.352,-610.3925 232.7114,-608.9476"/>
<polygon fill="#191970" stroke="#191970" points="233.2584,-605.4887 222.7764,-607.0301 231.9319,-612.3618 233.2584,-605.4887"/>
</g>
<!-- Node43 -->
<g id="node36" class="node">
<title>Node43</title>
<g id="a_node36"><a xlink:href="Link_8h.html" target="_top" xlink:title="iDynTree/Model/Link.h">
<polygon fill="none" stroke="#000000" points="547.5,-588 547.5,-607 671.5,-607 671.5,-588 547.5,-588"/>
<text text-anchor="middle" x="609.5" y="-595" font-family="FreeSans.ttf" font-size="10.00" fill="#000000">iDynTree/Model/Link.h</text>
</a>
</g>
</g>
<!-- Node41&#45;&gt;Node43 -->
<g id="edge77" class="edge">
<title>Node41&#45;&gt;Node43</title>
<path fill="none" stroke="#191970" d="M609.5,-649.3906C609.5,-640.8657 609.5,-628.1392 609.5,-617.4235"/>
<polygon fill="#191970" stroke="#191970" points="613.0001,-617.2448 609.5,-607.2449 606.0001,-617.2449 613.0001,-617.2448"/>
</g>
<!-- Node48 -->
<g id="node38" class="node">
<title>Node48</title>
<g id="a_node38"><a xlink:href="SolidShapes_8h.html" target="_top" xlink:title="iDynTree/Model/SolidShapes.h">
<polygon fill="none" stroke="#000000" points="508,-526.5 508,-545.5 671,-545.5 671,-526.5 508,-526.5"/>
<text text-anchor="middle" x="589.5" y="-533.5" font-family="FreeSans.ttf" font-size="10.00" fill="#000000">iDynTree/Model/SolidShapes.h</text>
</a>
</g>
</g>
<!-- Node41&#45;&gt;Node48 -->
<g id="edge86" class="edge">
<title>Node41&#45;&gt;Node48</title>
<path fill="none" stroke="#191970" d="M582.899,-649.397C566.9127,-642.0839 547.9002,-630.291 538.5,-613 531.9193,-600.8954 532.9015,-594.589 538.5,-582 543.9508,-569.7432 554.4599,-559.3755 564.5289,-551.6036"/>
<polygon fill="#191970" stroke="#191970" points="566.6744,-554.3721 572.7627,-545.7012 562.596,-548.6828 566.6744,-554.3721"/>
</g>
<!-- Node49 -->
<g id="node39" class="node">
<title>Node49</title>
<polygon fill="none" stroke="#bfbfbf" points="482,-470.5 482,-489.5 531,-489.5 531,-470.5 482,-470.5"/>
<text text-anchor="middle" x="506.5" y="-477.5" font-family="FreeSans.ttf" font-size="10.00" fill="#000000">cstdlib</text>
</g>
<!-- Node41&#45;&gt;Node49 -->
<g id="edge92" class="edge">
<title>Node41&#45;&gt;Node49</title>
<path fill="none" stroke="#191970" d="M585.1772,-649.4546C568.0895,-641.7399 545.6642,-629.4567 530.5,-613 502.5819,-582.7021 494.9573,-567.0467 498.5,-526 499.2476,-517.3385 500.7729,-507.8607 502.293,-499.7708"/>
<polygon fill="#191970" stroke="#191970" points="505.7567,-500.2991 504.2893,-489.8064 498.8931,-498.924 505.7567,-500.2991"/>
</g>
<!-- Node42&#45;&gt;Node35 -->
<g id="edge76" class="edge">
<title>Node42&#45;&gt;Node35</title>
<path fill="none" stroke="#191970" d="M167.3751,-587.5221C153.882,-572.9929 133.2692,-545.6117 147.5,-526 157.6508,-512.0111 195.9306,-500.0439 230.0458,-491.8249"/>
<polygon fill="#191970" stroke="#191970" points="231.0533,-495.1839 239.9958,-489.5022 229.462,-488.3671 231.0533,-495.1839"/>
</g>
<!-- Node43&#45;&gt;Node35 -->
<g id="edge83" class="edge">
<title>Node43&#45;&gt;Node35</title>
<path fill="none" stroke="#191970" d="M547.1083,-593.6184C443.3195,-586.5197 244.4582,-569.9402 223.5,-546 207.2497,-527.4376 233.8145,-507.4225 257.7174,-494.361"/>
<polygon fill="#191970" stroke="#191970" points="259.3968,-497.4327 266.6533,-489.7131 256.1666,-491.2226 259.3968,-497.4327"/>
</g>
<!-- Node44 -->
<g id="node37" class="node">
<title>Node44</title>
<g id="a_node37"><a xlink:href="SpatialInertia_8h.html" target="_top" xlink:title="iDynTree/Core/SpatialInertia.h">
<polygon fill="none" stroke="#ff0000" points="1520.5,-526.5 1520.5,-545.5 1682.5,-545.5 1682.5,-526.5 1520.5,-526.5"/>
<text text-anchor="middle" x="1601.5" y="-533.5" font-family="FreeSans.ttf" font-size="10.00" fill="#000000">iDynTree/Core/SpatialInertia.h</text>
</a>
</g>
</g>
<!-- Node43&#45;&gt;Node44 -->
<g id="edge78" class="edge">
<title>Node43&#45;&gt;Node44</title>
<path fill="none" stroke="#191970" d="M671.5699,-595.0731C816.3681,-589.1693 1187.9668,-572.6202 1510.1582,-545.9835"/>
<polygon fill="#191970" stroke="#191970" points="1510.4802,-549.4689 1520.1558,-545.1523 1509.9002,-542.4929 1510.4802,-549.4689"/>
</g>
<!-- Node44&#45;&gt;Node6 -->
<g id="edge79" class="edge">
<title>Node44&#45;&gt;Node6</title>
<path fill="none" stroke="#191970" d="M1588.5483,-526.4161C1570.5043,-513.2004 1536.6208,-488.8753 1506.5,-470 1478.8456,-452.6703 1469.4659,-452.3828 1442.5,-434 1424.4907,-421.7229 1423.6788,-413.3554 1404.5,-403 1357.7469,-377.7561 1336.8103,-393.0474 1290.5,-367 1257.5572,-348.4712 1242.118,-345.4183 1226.5,-311 1219.6645,-295.9362 1206.0646,-264.4305 1227.5,-224 1247.8298,-185.6548 1267.6926,-185.2924 1307.5,-168 1347.2262,-150.7428 1393.93,-139.7704 1433.8129,-132.8913"/>
<polygon fill="#191970" stroke="#191970" points="1434.5078,-136.3239 1443.7973,-131.2292 1433.3583,-129.4189 1434.5078,-136.3239"/>
</g>
<!-- Node44&#45;&gt;Node28 -->
<g id="edge80" class="edge">
<title>Node44&#45;&gt;Node28</title>
<path fill="none" stroke="#191970" d="M1610.3835,-526.2455C1617.6966,-518.2155 1628.2391,-506.6394 1636.9467,-497.0781"/>
<polygon fill="#191970" stroke="#191970" points="1639.5727,-499.3928 1643.7183,-489.6427 1634.3972,-494.6795 1639.5727,-499.3928"/>
</g>
<!-- Node44&#45;&gt;Node31 -->
<g id="edge81" class="edge">
<title>Node44&#45;&gt;Node31</title>
<path fill="none" stroke="#191970" d="M1642.8263,-526.4369C1684.2427,-516.8529 1748.0777,-502.0812 1792.5935,-491.78"/>
<polygon fill="#191970" stroke="#191970" points="1793.3907,-495.1881 1802.3441,-489.5237 1791.8125,-488.3683 1793.3907,-495.1881"/>
</g>
<!-- Node44&#45;&gt;Node32 -->
<g id="edge82" class="edge">
<title>Node44&#45;&gt;Node32</title>
<path fill="none" stroke="#191970" d="M1572.1041,-526.3733C1543.6693,-517.0613 1500.4123,-502.8953 1469.1919,-492.671"/>
<polygon fill="#191970" stroke="#191970" points="1470.105,-489.2872 1459.5124,-489.5011 1467.9264,-495.9396 1470.105,-489.2872"/>
</g>
<!-- Node48&#45;&gt;Node3 -->
<g id="edge90" class="edge">
<title>Node48&#45;&gt;Node3</title>
<path fill="none" stroke="#191970" d="M599.4211,-526.4774C615.8093,-511.4177 650.2433,-482.5303 685.5,-470 688.7312,-468.8516 1067.2933,-438.7296 1239.2255,-425.095"/>
<polygon fill="#191970" stroke="#191970" points="1239.5577,-428.5798 1249.2497,-424.3002 1239.0043,-421.6017 1239.5577,-428.5798"/>
</g>
<!-- Node48&#45;&gt;Node19 -->
<g id="edge88" class="edge">
<title>Node48&#45;&gt;Node19</title>
<path fill="none" stroke="#191970" d="M591.8638,-526.3197C596.5349,-506.3133 606.5,-458.8989 606.5,-418.5 606.5,-418.5 606.5,-418.5 606.5,-178 606.5,-118.297 666.4858,-129.7152 723.5,-112 814.5632,-83.7052 1108.8046,-70.7234 1207.1494,-67.1"/>
<polygon fill="#191970" stroke="#191970" points="1207.4952,-70.5899 1217.3626,-66.7316 1207.2429,-63.5944 1207.4952,-70.5899"/>
</g>
<!-- Node48&#45;&gt;Node35 -->
<g id="edge91" class="edge">
<title>Node48&#45;&gt;Node35</title>
<path fill="none" stroke="#191970" d="M538.0983,-526.4369C485.9351,-516.7321 405.1803,-501.708 349.7354,-491.3926"/>
<polygon fill="#191970" stroke="#191970" points="350.1612,-487.9119 339.6897,-489.5237 348.8808,-494.7938 350.1612,-487.9119"/>
</g>
<!-- Node48&#45;&gt;Node37 -->
<g id="edge89" class="edge">
<title>Node48&#45;&gt;Node37</title>
<path fill="none" stroke="#191970" d="M640.731,-526.4369C702.1042,-514.9805 803.1889,-496.1114 855.6083,-486.3265"/>
<polygon fill="#191970" stroke="#191970" points="856.5326,-489.7145 865.7205,-484.4388 855.2481,-482.8333 856.5326,-489.7145"/>
</g>
<!-- Node48&#45;&gt;Node49 -->
<g id="edge87" class="edge">
<title>Node48&#45;&gt;Node49</title>
<path fill="none" stroke="#191970" d="M575.0425,-526.2455C562.4268,-517.7337 543.9056,-505.2375 529.2955,-495.3801"/>
<polygon fill="#191970" stroke="#191970" points="531.0391,-492.3343 520.7918,-489.6427 527.1239,-498.1371 531.0391,-492.3343"/>
</g>
<!-- Node50&#45;&gt;Node23 -->
<g id="edge96" class="edge">
<title>Node50&#45;&gt;Node23</title>
<path fill="none" stroke="#191970" d="M1085.0602,-761.4875C1164.4012,-741.3762 1287.5,-703.0718 1287.5,-659 1287.5,-659 1287.5,-659 1287.5,-597.5 1287.5,-564.5024 1278.4588,-557.1246 1267.5,-526 1250.2408,-476.9815 1221.5,-470.4682 1221.5,-418.5 1221.5,-418.5 1221.5,-418.5 1221.5,-357 1221.5,-284.8712 1250.535,-257.3324 1314.5,-224 1348.1609,-206.4592 1388.4195,-195.5574 1424.036,-188.8042"/>
<polygon fill="#191970" stroke="#191970" points="1424.7337,-192.2348 1433.9492,-187.0073 1423.4853,-185.347 1424.7337,-192.2348"/>
</g>
<!-- Node50&#45;&gt;Node37 -->
<g id="edge98" class="edge">
<title>Node50&#45;&gt;Node37</title>
<path fill="none" stroke="#191970" d="M981.5491,-761.3779C943.1779,-743.2906 889.5,-709.0446 889.5,-659 889.5,-659 889.5,-659 889.5,-597.5 889.5,-563.1399 889.5,-523.128 889.5,-499.7764"/>
<polygon fill="#191970" stroke="#191970" points="893.0001,-499.7489 889.5,-489.7489 886.0001,-499.749 893.0001,-499.7489"/>
</g>
<!-- Node50&#45;&gt;Node39 -->
<g id="edge97" class="edge">
<title>Node50&#45;&gt;Node39</title>
<path fill="none" stroke="#191970" d="M962.2572,-761.4554C922.1862,-750.9239 869.3321,-737.0328 831.8901,-727.1923"/>
<polygon fill="#191970" stroke="#191970" points="832.3229,-723.6872 821.7617,-724.5303 830.5436,-730.4573 832.3229,-723.6872"/>
</g>
<!-- Node51&#45;&gt;Node23 -->
<g id="edge100" class="edge">
<title>Node51&#45;&gt;Node23</title>
<path fill="none" stroke="#191970" d="M854.3059,-761.3401C896.8665,-714.3255 1029.0535,-566.1951 1126.5,-434 1192.479,-344.4935 1169.9773,-285.6781 1262.5,-224 1288.6268,-206.5832 1362.431,-194.4179 1423.6276,-186.9917"/>
<polygon fill="#191970" stroke="#191970" points="1424.2019,-190.4482 1433.7204,-185.7954 1423.3779,-183.4968 1424.2019,-190.4482"/>
</g>
<!-- Node51&#45;&gt;Node39 -->
<g id="edge101" class="edge">
<title>Node51&#45;&gt;Node39</title>
<path fill="none" stroke="#191970" d="M826.9045,-761.2977C819.1109,-752.5831 809.2953,-741.6075 801.1774,-732.5302"/>
<polygon fill="#191970" stroke="#191970" points="803.5813,-729.9678 794.3062,-724.8469 798.3635,-734.6341 803.5813,-729.9678"/>
</g>
<!-- Node52&#45;&gt;Node2 -->
<g id="edge104" class="edge">
<title>Node52&#45;&gt;Node2</title>
<path fill="none" stroke="#191970" d="M1250.668,-761.4654C1321.3444,-741.2119 1430.2494,-697.5122 1476.5,-613 1483.1144,-600.9138 1481.9728,-594.6442 1476.5,-582 1471.2663,-569.9081 1461.1158,-559.5335 1451.4045,-551.7139"/>
<polygon fill="#191970" stroke="#191970" points="1453.2234,-548.7038 1443.118,-545.5209 1449.0329,-554.3109 1453.2234,-548.7038"/>
</g>
<!-- Node52&#45;&gt;Node37 -->
<g id="edge105" class="edge">
<title>Node52&#45;&gt;Node37</title>
<path fill="none" stroke="#191970" d="M1170.4144,-761.3889C1120.2123,-711.102 958.9897,-549.6071 906.32,-496.8484"/>
<polygon fill="#191970" stroke="#191970" points="908.6386,-494.217 899.0965,-489.6127 903.6847,-499.1626 908.6386,-494.217"/>
</g>
<!-- Node52&#45;&gt;Node39 -->
<g id="edge103" class="edge">
<title>Node52&#45;&gt;Node39</title>
<path fill="none" stroke="#191970" d="M1115.2949,-762.6976C1111.9863,-762.1101 1108.7085,-761.5411 1105.5,-761 1025.5161,-747.5109 933.8576,-734.592 869.1957,-725.8983"/>
<polygon fill="#191970" stroke="#191970" points="869.4318,-722.3988 859.0556,-724.5399 868.5023,-729.3368 869.4318,-722.3988"/>
</g>
<!-- Node53&#45;&gt;Node35 -->
<g id="edge109" class="edge">
<title>Node53&#45;&gt;Node35</title>
<path fill="none" stroke="#191970" d="M330.6165,-526.2455C323.3034,-518.2155 312.7609,-506.6394 304.0533,-497.0781"/>
<polygon fill="#191970" stroke="#191970" points="306.6028,-494.6795 297.2817,-489.6427 301.4273,-499.3928 306.6028,-494.6795"/>
</g>
<!-- Node53&#45;&gt;Node37 -->
<g id="edge110" class="edge">
<title>Node53&#45;&gt;Node37</title>
<path fill="none" stroke="#191970" d="M413.6754,-528.4476C534.4285,-516.1527 768.7705,-492.2925 855.8495,-483.4262"/>
<polygon fill="#191970" stroke="#191970" points="856.364,-486.892 865.958,-482.397 855.6549,-479.928 856.364,-486.892"/>
</g>
<!-- Node54&#45;&gt;Node35 -->
<g id="edge112" class="edge">
<title>Node54&#45;&gt;Node35</title>
<path fill="none" stroke="#191970" d="M90.8381,-705.4654C84.2513,-696.6125 75.2403,-682.7614 71.5,-669 54.8305,-607.6695 31.4896,-575.3809 71.5,-526 88.8457,-504.5919 154.599,-492.7443 209.2246,-486.4579"/>
<polygon fill="#191970" stroke="#191970" points="209.7252,-489.924 219.2807,-485.3478 208.957,-482.9663 209.7252,-489.924"/>
</g>
<!-- Node55&#45;&gt;Node2 -->
<g id="edge118" class="edge">
<title>Node55&#45;&gt;Node2</title>
<path fill="none" stroke="#191970" d="M1242.4337,-582.4554C1284.6573,-571.8564 1340.4371,-557.8546 1379.681,-548.0035"/>
<polygon fill="#191970" stroke="#191970" points="1380.6868,-551.3597 1389.5337,-545.5303 1378.9824,-544.5704 1380.6868,-551.3597"/>
</g>
<!-- Node55&#45;&gt;Node3 -->
<g id="edge114" class="edge">
<title>Node55&#45;&gt;Node3</title>
<path fill="none" stroke="#191970" d="M1217.8872,-582.3401C1234.6977,-573.6983 1254.0128,-561.4816 1267.5,-546 1295.6137,-513.729 1311.1858,-464.8964 1318.0902,-437.9945"/>
<polygon fill="#191970" stroke="#191970" points="1321.504,-438.768 1320.4606,-428.2247 1314.7014,-437.1175 1321.504,-438.768"/>
</g>
<!-- Node55&#45;&gt;Node28 -->
<g id="edge115" class="edge">
<title>Node55&#45;&gt;Node28</title>
<path fill="none" stroke="#191970" d="M1259.517,-587.4951C1275.0608,-585.5823 1291.2952,-583.6608 1306.5,-582 1349.2104,-577.3349 1662.5684,-577.7632 1691.5,-546 1705.1612,-531.0018 1688.727,-510.465 1673.1933,-496.3026"/>
<polygon fill="#191970" stroke="#191970" points="1675.184,-493.3987 1665.3165,-489.5408 1670.6244,-498.7101 1675.184,-493.3987"/>
</g>
<!-- Node55&#45;&gt;Node35 -->
<g id="edge117" class="edge">
<title>Node55&#45;&gt;Node35</title>
<path fill="none" stroke="#191970" d="M1105.3491,-594.6112C885.567,-586.2018 271.031,-561.3616 256.5,-546 243.2097,-531.95 256.9514,-511.3414 270.3286,-496.9011"/>
<polygon fill="#191970" stroke="#191970" points="273.0097,-499.1673 277.5489,-489.5941 268.0305,-494.2472 273.0097,-499.1673"/>
</g>
<!-- Node55&#45;&gt;Node37 -->
<g id="edge124" class="edge">
<title>Node55&#45;&gt;Node37</title>
<path fill="none" stroke="#191970" d="M1145.0937,-582.4992C1087.435,-559.3767 977.7631,-515.3956 922.7355,-493.3282"/>
<polygon fill="#191970" stroke="#191970" points="923.7057,-489.9464 913.1215,-489.4728 921.1002,-496.4435 923.7057,-489.9464"/>
</g>
<!-- Node55&#45;&gt;Node40 -->
<g id="edge116" class="edge">
<title>Node55&#45;&gt;Node40</title>
<path fill="none" stroke="#191970" d="M1148.7401,-582.3566C1132.0342,-573.5818 1112.5025,-561.2429 1098.5,-546 1068.7525,-513.6173 1049.4841,-464.8279 1040.4674,-437.9631"/>
<polygon fill="#191970" stroke="#191970" points="1043.7223,-436.6522 1037.3237,-428.2078 1037.0597,-438.7993 1043.7223,-436.6522"/>
</g>
<!-- Node56 -->
<g id="node46" class="node">
<title>Node56</title>
<g id="a_node46"><a xlink:href="JointState_8h.html" target="_top" xlink:title="iDynTree/Model/JointState.h">
<polygon fill="none" stroke="#000000" points="1108,-526.5 1108,-545.5 1259,-545.5 1259,-526.5 1108,-526.5"/>
<text text-anchor="middle" x="1183.5" y="-533.5" font-family="FreeSans.ttf" font-size="10.00" fill="#000000">iDynTree/Model/JointState.h</text>
</a>
</g>
</g>
<!-- Node55&#45;&gt;Node56 -->
<g id="edge119" class="edge">
<title>Node55&#45;&gt;Node56</title>
<path fill="none" stroke="#191970" d="M1182.7472,-582.2977C1182.8759,-574.3834 1183.0349,-564.6043 1183.1736,-556.0759"/>
<polygon fill="#191970" stroke="#191970" points="1186.6767,-555.9025 1183.3399,-545.8469 1179.6777,-555.7887 1186.6767,-555.9025"/>
</g>
<!-- Node56&#45;&gt;Node6 -->
<g id="edge120" class="edge">
<title>Node56&#45;&gt;Node6</title>
<path fill="none" stroke="#191970" d="M1180.6587,-526.4188C1173.6747,-503.7462 1154.1986,-445.5192 1126.5,-403 1092.6854,-351.0924 1031.5,-362.9502 1031.5,-301 1031.5,-301 1031.5,-301 1031.5,-239.5 1031.5,-157.7097 1291.5081,-132.7459 1433.8766,-125.2074"/>
<polygon fill="#191970" stroke="#191970" points="1434.1103,-128.7001 1443.9186,-124.6942 1433.753,-121.7092 1434.1103,-128.7001"/>
</g>
<!-- Node56&#45;&gt;Node33 -->
<g id="edge122" class="edge">
<title>Node56&#45;&gt;Node33</title>
<path fill="none" stroke="#191970" d="M1206.5286,-526.4709C1239.1789,-513.1076 1300.9212,-488.3784 1354.5,-470 1389.7157,-457.9205 1429.5173,-445.8422 1461.8549,-436.4217"/>
<polygon fill="#191970" stroke="#191970" points="1463.0074,-439.7318 1471.6378,-433.5863 1461.0587,-433.0085 1463.0074,-439.7318"/>
</g>
<!-- Node56&#45;&gt;Node37 -->
<g id="edge123" class="edge">
<title>Node56&#45;&gt;Node37</title>
<path fill="none" stroke="#191970" d="M1133.2937,-526.4369C1073.3013,-515.0098 974.5901,-496.2076 923.108,-486.4015"/>
<polygon fill="#191970" stroke="#191970" points="923.6465,-482.9412 913.1682,-484.5082 922.3367,-489.8176 923.6465,-482.9412"/>
</g>
<!-- Node56&#45;&gt;Node40 -->
<g id="edge121" class="edge">
<title>Node56&#45;&gt;Node40</title>
<path fill="none" stroke="#191970" d="M1171.3067,-526.3845C1145.7676,-506.2446 1086.4217,-459.445 1054.9485,-434.6255"/>
<polygon fill="#191970" stroke="#191970" points="1056.8813,-431.6923 1046.8618,-428.2484 1052.5467,-437.1889 1056.8813,-431.6923"/>
</g>
<!-- Node57&#45;&gt;Node2 -->
<g id="edge130" class="edge">
<title>Node57&#45;&gt;Node2</title>
<path fill="none" stroke="#191970" d="M1397.125,-587.8906C1402.3253,-579.0068 1410.1966,-565.5601 1416.6233,-554.5811"/>
<polygon fill="#191970" stroke="#191970" points="1419.7644,-556.1432 1421.7957,-545.7449 1413.7233,-552.6069 1419.7644,-556.1432"/>
</g>
<!-- Node57&#45;&gt;Node35 -->
<g id="edge129" class="edge">
<title>Node57&#45;&gt;Node35</title>
<path fill="none" stroke="#191970" d="M1323.6102,-587.9749C1305.7159,-585.7302 1286.4053,-583.5443 1268.5,-582 927.1712,-552.5603 835.8267,-605.8562 498.5,-546 464.8987,-540.0377 375.9751,-510.2728 325.2719,-492.818"/>
<polygon fill="#191970" stroke="#191970" points="326.2633,-489.4576 315.6685,-489.5019 323.9785,-496.0743 326.2633,-489.4576"/>
</g>
<!-- Node57&#45;&gt;Node56 -->
<g id="edge131" class="edge">
<title>Node57&#45;&gt;Node56</title>
<path fill="none" stroke="#191970" d="M1359,-587.8906C1323.053,-577.2621 1265.0173,-560.1025 1225.612,-548.4514"/>
<polygon fill="#191970" stroke="#191970" points="1226.3538,-545.021 1215.7718,-545.5419 1224.369,-551.7337 1226.3538,-545.021"/>
</g>
<!-- Node58 -->
<g id="node48" class="node">
<title>Node58</title>
<g id="a_node48"><a xlink:href="MatrixDynSize_8h.html" target="_top" xlink:title="iDynTree/Core/MatrixDynSize.h">
<polygon fill="none" stroke="#000000" points="1925,-347.5 1925,-366.5 2092,-366.5 2092,-347.5 1925,-347.5"/>
<text text-anchor="middle" x="2008.5" y="-354.5" font-family="FreeSans.ttf" font-size="10.00" fill="#000000">iDynTree/Core/MatrixDynSize.h</text>
</a>
</g>
</g>
<!-- Node57&#45;&gt;Node58 -->
<g id="edge126" class="edge">
<title>Node57&#45;&gt;Node58</title>
<path fill="none" stroke="#191970" d="M1467.6946,-590.1394C1597.4873,-576.3219 1854.4354,-543.022 1926.5,-490 1966.3922,-460.649 1991.0916,-405.5138 2001.9781,-376.3021"/>
<polygon fill="#191970" stroke="#191970" points="2005.3013,-377.4032 2005.3664,-366.8086 1998.7086,-375.0502 2005.3013,-377.4032"/>
</g>
<!-- Node58&#45;&gt;Node19 -->
<g id="edge127" class="edge">
<title>Node58&#45;&gt;Node19</title>
<path fill="none" stroke="#191970" d="M1985.4645,-347.4818C1943.3945,-329.9736 1851.4633,-291.1361 1775.5,-255 1699.2124,-218.7096 1686.9358,-193.8238 1606.5,-168 1501.7099,-134.3574 1465.9401,-166.7141 1361.5,-132 1324.5815,-119.7289 1285.6726,-96.661 1261.9885,-81.3105"/>
<polygon fill="#191970" stroke="#191970" points="1263.677,-78.2315 1253.4018,-75.6487 1259.8236,-84.0755 1263.677,-78.2315"/>
</g>
<!-- Node58&#45;&gt;Node26 -->
<g id="edge128" class="edge">
<title>Node58&#45;&gt;Node26</title>
<path fill="none" stroke="#191970" d="M2020.8225,-347.3182C2046.6016,-325.8135 2102.1885,-272.1604 2081.5,-224 2061.6951,-177.8965 2008.5002,-149.8625 1970.6362,-135.1464"/>
<polygon fill="#191970" stroke="#191970" points="1971.4802,-131.7259 1960.8874,-131.5168 1969.0378,-138.286 1971.4802,-131.7259"/>
</g>
<!-- Node59&#45;&gt;Node3 -->
<g id="edge142" class="edge">
<title>Node59&#45;&gt;Node3</title>
<path fill="none" stroke="#191970" d="M2049.8686,-476.2247C1921.2331,-469.8382 1661.72,-455.4659 1442.5,-434 1428.8733,-432.6657 1414.4064,-431.006 1400.4107,-429.2732"/>
<polygon fill="#191970" stroke="#191970" points="1400.6807,-425.7796 1390.3216,-428.0021 1399.8056,-432.7247 1400.6807,-425.7796"/>
</g>
<!-- Node59&#45;&gt;Node6 -->
<g id="edge137" class="edge">
<title>Node59&#45;&gt;Node6</title>
<path fill="none" stroke="#191970" d="M2093.6816,-470.3966C2075.1862,-463.5069 2054.4327,-452.1473 2043.5,-434 2036.3902,-422.1984 2036.8023,-415.0402 2043.5,-403 2058.2489,-376.4865 2086.7511,-393.5135 2101.5,-367 2105.8211,-359.2321 2105.2622,-355.0535 2101.5,-347 2065.4446,-269.819 2029.7084,-264.0073 1954.5,-224 1914.885,-202.9267 1804.1195,-178.5248 1760.5,-168 1703.6739,-154.2886 1638.3982,-141.8132 1590.9219,-133.3246"/>
<polygon fill="#191970" stroke="#191970" points="1591.5286,-129.8777 1581.0706,-131.5747 1590.3043,-136.7698 1591.5286,-129.8777"/>
</g>
<!-- Node59&#45;&gt;Node7 -->
<g id="edge143" class="edge">
<title>Node59&#45;&gt;Node7</title>
<path fill="none" stroke="#191970" d="M2139.8129,-470.3994C2157.786,-450.8114 2195.5,-404.0975 2195.5,-357 2195.5,-357 2195.5,-357 2195.5,-239.5 2195.5,-151.6105 2085.4556,-100.7943 2022.4592,-78.9045"/>
<polygon fill="#191970" stroke="#191970" points="2023.3708,-75.5183 2012.7766,-75.6385 2021.1334,-82.1511 2023.3708,-75.5183"/>
</g>
<!-- Node59&#45;&gt;Node8 -->
<g id="edge134" class="edge">
<title>Node59&#45;&gt;Node8</title>
<path fill="none" stroke="#191970" d="M2147.5084,-470.2414C2176.7632,-452.0404 2233.5,-409.9198 2233.5,-357 2233.5,-357 2233.5,-357 2233.5,-122 2233.5,-34.702 2133.7764,-74.6782 2048.5,-56 2001.7763,-45.766 1677.4556,-20.9544 1567.1382,-12.7122"/>
<polygon fill="#191970" stroke="#191970" points="1567.3795,-9.2206 1557.1469,-11.9674 1566.859,-16.2012 1567.3795,-9.2206"/>
</g>
<!-- Node59&#45;&gt;Node25 -->
<g id="edge139" class="edge">
<title>Node59&#45;&gt;Node25</title>
<path fill="none" stroke="#191970" d="M2133.6673,-470.2941C2140.5549,-447.352 2154.6502,-388.5847 2133.5,-347 2095.1978,-271.6916 2007.0193,-216.8534 1961.2469,-192.3127"/>
<polygon fill="#191970" stroke="#191970" points="1962.6373,-189.0896 1952.1564,-187.5393 1959.3829,-195.2871 1962.6373,-189.0896"/>
</g>
<!-- Node59&#45;&gt;Node29 -->
<g id="edge140" class="edge">
<title>Node59&#45;&gt;Node29</title>
<path fill="none" stroke="#191970" d="M2085.3505,-470.4581C2041.4826,-461.187 1973.8862,-446.9012 1920.6673,-435.6539"/>
<polygon fill="#191970" stroke="#191970" points="1921.0746,-432.1628 1910.567,-433.5193 1919.6271,-439.0115 1921.0746,-432.1628"/>
</g>
<!-- Node59&#45;&gt;Node33 -->
<g id="edge141" class="edge">
<title>Node59&#45;&gt;Node33</title>
<path fill="none" stroke="#191970" d="M2049.848,-471.8015C1935.2809,-460.1554 1726.4149,-438.9236 1609.8548,-427.0749"/>
<polygon fill="#191970" stroke="#191970" points="1610.2057,-423.5926 1599.903,-426.0633 1609.4978,-430.5567 1610.2057,-423.5926"/>
</g>
<!-- Node59&#45;&gt;Node40 -->
<g id="edge136" class="edge">
<title>Node59&#45;&gt;Node40</title>
<path fill="none" stroke="#191970" d="M2049.8974,-475.9425C1845.9372,-465.6599 1319.8762,-439.0368 1240.5,-434 1203.8506,-431.6744 1163.5634,-428.7295 1128.4115,-426.0328"/>
<polygon fill="#191970" stroke="#191970" points="1128.3997,-422.5216 1118.1602,-425.2422 1127.8615,-429.5008 1128.3997,-422.5216"/>
</g>
<!-- Node59&#45;&gt;Node58 -->
<g id="edge138" class="edge">
<title>Node59&#45;&gt;Node58</title>
<path fill="none" stroke="#191970" d="M2092.284,-470.495C2060.6485,-461.7684 2019.3524,-448.0893 2009.5,-434 1997.8103,-417.2833 1999.6997,-393.1408 2003.1341,-376.3624"/>
<polygon fill="#191970" stroke="#191970" points="2006.5582,-377.0926 2005.487,-366.552 1999.7512,-375.46 2006.5582,-377.0926"/>
</g>
<!-- Node60 -->
<g id="node50" class="node">
<title>Node60</title>
<polygon fill="none" stroke="#bfbfbf" points="2052,-409 2052,-428 2129,-428 2129,-409 2052,-409"/>
<text text-anchor="middle" x="2090.5" y="-416" font-family="FreeSans.ttf" font-size="10.00" fill="#000000">Eigen/Dense</text>
</g>
<!-- Node59&#45;&gt;Node60 -->
<g id="edge135" class="edge">
<title>Node59&#45;&gt;Node60</title>
<path fill="none" stroke="#191970" d="M2124.25,-470.3906C2118.4135,-461.417 2109.5491,-447.7879 2102.3694,-436.7491"/>
<polygon fill="#191970" stroke="#191970" points="2105.2245,-434.7194 2096.8381,-428.2449 2099.3564,-438.5361 2105.2245,-434.7194"/>
</g>
</g>
</svg>
