<?xml version="1.0" encoding="UTF-8" standalone="no"?>
<!DOCTYPE svg PUBLIC "-//W3C//DTD SVG 1.1//EN"
 "http://www.w3.org/Graphics/SVG/1.1/DTD/svg11.dtd">
<!-- Generated by graphviz version 2.40.1 (20161225.0304)
 -->
<!-- Title: PrismaticJoint.h Pages: 1 -->
<svg width="1383pt" height="543pt"
 viewBox="0.00 0.00 1383.00 543.00" xmlns="http://www.w3.org/2000/svg" xmlns:xlink="http://www.w3.org/1999/xlink">
<g id="graph0" class="graph" transform="scale(1 1) rotate(0) translate(4 539)">
<title>PrismaticJoint.h</title>
<!-- Node0 -->
<g id="node1" class="node">
<title>Node0</title>
<polygon fill="#bfbfbf" stroke="#000000" points="1007.5,-515.5 1007.5,-534.5 1100.5,-534.5 1100.5,-515.5 1007.5,-515.5"/>
<text text-anchor="middle" x="1054" y="-522.5" font-family="FreeSans.ttf" font-size="10.00" fill="#000000">PrismaticJoint.h</text>
</g>
<!-- Node1 -->
<g id="node2" class="node">
<title>Node1</title>
<g id="a_node2"><a xlink:href="Transform_8h.html" target="_top" xlink:title="iDynTree/Core/Transform.h">
<polygon fill="none" stroke="#000000" points="732,-392.5 732,-411.5 878,-411.5 878,-392.5 732,-392.5"/>
<text text-anchor="middle" x="805" y="-399.5" font-family="FreeSans.ttf" font-size="10.00" fill="#000000">iDynTree/Core/Transform.h</text>
</a>
</g>
</g>
<!-- Node0&#45;&gt;Node1 -->
<g id="edge1" class="edge">
<title>Node0&#45;&gt;Node1</title>
<path fill="none" stroke="#191970" d="M1034.4614,-515.3484C990.7328,-493.7475 884.814,-441.4262 833.6306,-416.1428"/>
<polygon fill="#191970" stroke="#191970" points="834.9638,-412.8977 824.4478,-411.6068 831.8635,-419.1737 834.9638,-412.8977"/>
</g>
<!-- Node26 -->
<g id="node27" class="node">
<title>Node26</title>
<g id="a_node27"><a xlink:href="SpatialMotionVector_8h.html" target="_top" xlink:title="iDynTree/Core/SpatialMotion\lVector.h">
<polygon fill="none" stroke="#000000" points="175.5,-448.5 175.5,-478.5 330.5,-478.5 330.5,-448.5 175.5,-448.5"/>
<text text-anchor="start" x="183.5" y="-466.5" font-family="FreeSans.ttf" font-size="10.00" fill="#000000">iDynTree/Core/SpatialMotion</text>
<text text-anchor="middle" x="253" y="-455.5" font-family="FreeSans.ttf" font-size="10.00" fill="#000000">Vector.h</text>
</a>
</g>
</g>
<!-- Node0&#45;&gt;Node26 -->
<g id="edge47" class="edge">
<title>Node0&#45;&gt;Node26</title>
<path fill="none" stroke="#191970" d="M1007.4726,-521.4277C877.7346,-511.4665 510.3807,-483.2614 340.7914,-470.2405"/>
<polygon fill="#191970" stroke="#191970" points="340.8879,-466.7377 330.6493,-469.4618 340.352,-473.7172 340.8879,-466.7377"/>
</g>
<!-- Node28 -->
<g id="node29" class="node">
<title>Node28</title>
<g id="a_node29"><a xlink:href="Axis_8h.html" target="_top" xlink:title="iDynTree/Core/Axis.h">
<polygon fill="none" stroke="#000000" points="995,-392.5 995,-411.5 1113,-411.5 1113,-392.5 995,-392.5"/>
<text text-anchor="middle" x="1054" y="-399.5" font-family="FreeSans.ttf" font-size="10.00" fill="#000000">iDynTree/Core/Axis.h</text>
</a>
</g>
</g>
<!-- Node0&#45;&gt;Node28 -->
<g id="edge57" class="edge">
<title>Node0&#45;&gt;Node28</title>
<path fill="none" stroke="#191970" d="M1054,-515.3484C1054,-495.2295 1054,-448.4608 1054,-421.7098"/>
<polygon fill="#191970" stroke="#191970" points="1057.5001,-421.6067 1054,-411.6068 1050.5001,-421.6068 1057.5001,-421.6067"/>
</g>
<!-- Node30 -->
<g id="node31" class="node">
<title>Node30</title>
<g id="a_node31"><a xlink:href="Indices_8h.html" target="_top" xlink:title="iDynTree/Model/Indices.h">
<polygon fill="none" stroke="#000000" points="1232,-336.5 1232,-355.5 1370,-355.5 1370,-336.5 1232,-336.5"/>
<text text-anchor="middle" x="1301" y="-343.5" font-family="FreeSans.ttf" font-size="10.00" fill="#000000">iDynTree/Model/Indices.h</text>
</a>
</g>
</g>
<!-- Node0&#45;&gt;Node30 -->
<g id="edge65" class="edge">
<title>Node0&#45;&gt;Node30</title>
<path fill="none" stroke="#191970" d="M1065.7599,-515.1894C1093.1376,-492.5112 1163.5605,-435.1026 1226,-392 1241.9833,-380.9666 1260.591,-369.5457 1275.2733,-360.844"/>
<polygon fill="#191970" stroke="#191970" points="1277.4374,-363.632 1284.2878,-355.5498 1273.8924,-357.596 1277.4374,-363.632"/>
</g>
<!-- Node32 -->
<g id="node33" class="node">
<title>Node32</title>
<g id="a_node33"><a xlink:href="MovableJointImpl_8h.html" target="_top" xlink:title="iDynTree/Model/MovableJoint\lImpl.h">
<polygon fill="none" stroke="#000000" points="1191,-448.5 1191,-478.5 1349,-478.5 1349,-448.5 1191,-448.5"/>
<text text-anchor="start" x="1199" y="-466.5" font-family="FreeSans.ttf" font-size="10.00" fill="#000000">iDynTree/Model/MovableJoint</text>
<text text-anchor="middle" x="1270" y="-455.5" font-family="FreeSans.ttf" font-size="10.00" fill="#000000">Impl.h</text>
</a>
</g>
</g>
<!-- Node0&#45;&gt;Node32 -->
<g id="edge69" class="edge">
<title>Node0&#45;&gt;Node32</title>
<path fill="none" stroke="#191970" d="M1087.75,-515.3906C1119.6897,-506.2967 1168.422,-492.4215 1207.4604,-481.3064"/>
<polygon fill="#191970" stroke="#191970" points="1208.5012,-484.6493 1217.1605,-478.5446 1206.5842,-477.9168 1208.5012,-484.6493"/>
</g>
<!-- Node2 -->
<g id="node3" class="node">
<title>Node2</title>
<g id="a_node3"><a xlink:href="Position_8h.html" target="_top" xlink:title="iDynTree/Core/Position.h">
<polygon fill="none" stroke="#000000" points="737,-336.5 737,-355.5 873,-355.5 873,-336.5 737,-336.5"/>
<text text-anchor="middle" x="805" y="-343.5" font-family="FreeSans.ttf" font-size="10.00" fill="#000000">iDynTree/Core/Position.h</text>
</a>
</g>
</g>
<!-- Node1&#45;&gt;Node2 -->
<g id="edge2" class="edge">
<title>Node1&#45;&gt;Node2</title>
<path fill="none" stroke="#191970" d="M805,-392.2455C805,-384.9382 805,-374.6944 805,-365.7046"/>
<polygon fill="#191970" stroke="#191970" points="808.5001,-365.6426 805,-355.6427 801.5001,-365.6427 808.5001,-365.6426"/>
</g>
<!-- Node17 -->
<g id="node18" class="node">
<title>Node17</title>
<polygon fill="none" stroke="#bfbfbf" points="880,-112.5 880,-131.5 924,-131.5 924,-112.5 880,-112.5"/>
<text text-anchor="middle" x="902" y="-119.5" font-family="FreeSans.ttf" font-size="10.00" fill="#000000">string</text>
</g>
<!-- Node1&#45;&gt;Node17 -->
<g id="edge46" class="edge">
<title>Node1&#45;&gt;Node17</title>
<path fill="none" stroke="#191970" d="M838.0365,-392.4779C880.5502,-377.958 949,-345.9003 949,-290 949,-290 949,-290 949,-234 949,-198.5481 928.7296,-161.3564 914.8129,-139.9999"/>
<polygon fill="#191970" stroke="#191970" points="917.6421,-137.9356 909.1383,-131.6161 911.8451,-141.8593 917.6421,-137.9356"/>
</g>
<!-- Node20 -->
<g id="node21" class="node">
<title>Node20</title>
<g id="a_node21"><a xlink:href="Rotation_8h.html" target="_top" xlink:title="iDynTree/Core/Rotation.h">
<polygon fill="none" stroke="#000000" points="592.5,-280.5 592.5,-299.5 729.5,-299.5 729.5,-280.5 592.5,-280.5"/>
<text text-anchor="middle" x="661" y="-287.5" font-family="FreeSans.ttf" font-size="10.00" fill="#000000">iDynTree/Core/Rotation.h</text>
</a>
</g>
</g>
<!-- Node1&#45;&gt;Node20 -->
<g id="edge44" class="edge">
<title>Node1&#45;&gt;Node20</title>
<path fill="none" stroke="#191970" d="M786.1532,-392.3914C770.0486,-383.8026 746.6015,-370.3829 728,-356 708.7801,-341.1389 689.2678,-321.2562 676.2961,-307.21"/>
<polygon fill="#191970" stroke="#191970" points="678.7825,-304.7418 669.4661,-299.6964 673.6027,-309.4503 678.7825,-304.7418"/>
</g>
<!-- Node23 -->
<g id="node24" class="node">
<title>Node23</title>
<g id="a_node24"><a xlink:href="MatrixFixSize_8h.html" target="_top" xlink:title="iDynTree/Core/MatrixFixSize.h">
<polygon fill="none" stroke="#000000" points="182.5,-168.5 182.5,-187.5 343.5,-187.5 343.5,-168.5 182.5,-168.5"/>
<text text-anchor="middle" x="263" y="-175.5" font-family="FreeSans.ttf" font-size="10.00" fill="#000000">iDynTree/Core/MatrixFixSize.h</text>
</a>
</g>
</g>
<!-- Node1&#45;&gt;Node23 -->
<g id="edge45" class="edge">
<title>Node1&#45;&gt;Node23</title>
<path fill="none" stroke="#191970" d="M752.5528,-392.4926C634.2386,-370.0672 351.6247,-310.7109 284,-244 271.5851,-231.7529 266.4969,-212.1994 264.4185,-197.5489"/>
<polygon fill="#191970" stroke="#191970" points="267.8879,-197.0747 263.3443,-187.5035 260.9275,-197.819 267.8879,-197.0747"/>
</g>
<!-- Node3 -->
<g id="node4" class="node">
<title>Node3</title>
<g id="a_node4"><a xlink:href="PositionRaw_8h.html" target="_top" xlink:title="iDynTree/Core/PositionRaw.h">
<polygon fill="none" stroke="#000000" points="727,-224.5 727,-243.5 883,-243.5 883,-224.5 727,-224.5"/>
<text text-anchor="middle" x="805" y="-231.5" font-family="FreeSans.ttf" font-size="10.00" fill="#000000">iDynTree/Core/PositionRaw.h</text>
</a>
</g>
</g>
<!-- Node2&#45;&gt;Node3 -->
<g id="edge3" class="edge">
<title>Node2&#45;&gt;Node3</title>
<path fill="none" stroke="#191970" d="M805,-336.4509C805,-318.184 805,-277.9553 805,-253.6976"/>
<polygon fill="#191970" stroke="#191970" points="808.5001,-253.5249 805,-243.5249 801.5001,-253.5249 808.5001,-253.5249"/>
</g>
<!-- Node2&#45;&gt;Node17 -->
<g id="edge43" class="edge">
<title>Node2&#45;&gt;Node17</title>
<path fill="none" stroke="#191970" d="M817.2295,-336.2581C836.985,-319.7062 875.3814,-283.9745 892,-244 906.0783,-210.1359 905.7203,-166.489 903.9917,-141.6368"/>
<polygon fill="#191970" stroke="#191970" points="907.477,-141.3136 903.148,-131.6435 900.5018,-141.9025 907.477,-141.3136"/>
</g>
<!-- Node2&#45;&gt;Node20 -->
<g id="edge24" class="edge">
<title>Node2&#45;&gt;Node20</title>
<path fill="none" stroke="#191970" d="M780.2455,-336.3733C756.7151,-327.2226 721.1313,-313.3844 694.9574,-303.2057"/>
<polygon fill="#191970" stroke="#191970" points="696.0201,-299.8636 685.4315,-299.5011 693.4829,-306.3877 696.0201,-299.8636"/>
</g>
<!-- Node4 -->
<g id="node5" class="node">
<title>Node4</title>
<g id="a_node5"><a xlink:href="VectorFixSize_8h.html" target="_top" xlink:title="iDynTree/Core/VectorFixSize.h">
<polygon fill="none" stroke="#000000" points="471.5,-168.5 471.5,-187.5 632.5,-187.5 632.5,-168.5 471.5,-168.5"/>
<text text-anchor="middle" x="552" y="-175.5" font-family="FreeSans.ttf" font-size="10.00" fill="#000000">iDynTree/Core/VectorFixSize.h</text>
</a>
</g>
</g>
<!-- Node3&#45;&gt;Node4 -->
<g id="edge4" class="edge">
<title>Node3&#45;&gt;Node4</title>
<path fill="none" stroke="#191970" d="M761.7952,-224.4369C718.4053,-214.8328 651.4791,-200.0191 604.9274,-189.7152"/>
<polygon fill="#191970" stroke="#191970" points="605.5467,-186.2676 595.0266,-187.5237 604.0338,-193.1022 605.5467,-186.2676"/>
</g>
<!-- Node3&#45;&gt;Node17 -->
<g id="edge23" class="edge">
<title>Node3&#45;&gt;Node17</title>
<path fill="none" stroke="#191970" d="M813.2702,-224.4509C829.6634,-205.5227 866.4789,-163.014 887.166,-139.1279"/>
<polygon fill="#191970" stroke="#191970" points="889.8497,-141.3754 893.7508,-131.5249 884.5583,-136.7927 889.8497,-141.3754"/>
</g>
<!-- Node5 -->
<g id="node6" class="node">
<title>Node5</title>
<g id="a_node6"><a xlink:href="Utils_8h.html" target="_top" xlink:title="iDynTree/Core/Utils.h">
<polygon fill="none" stroke="#000000" points="622.5,-56.5 622.5,-75.5 741.5,-75.5 741.5,-56.5 622.5,-56.5"/>
<text text-anchor="middle" x="682" y="-63.5" font-family="FreeSans.ttf" font-size="10.00" fill="#000000">iDynTree/Core/Utils.h</text>
</a>
</g>
</g>
<!-- Node4&#45;&gt;Node5 -->
<g id="edge5" class="edge">
<title>Node4&#45;&gt;Node5</title>
<path fill="none" stroke="#191970" d="M563.0837,-168.4509C585.3418,-149.2747 635.6919,-105.8962 663.1978,-82.1988"/>
<polygon fill="#191970" stroke="#191970" points="665.6527,-84.7036 670.9443,-75.5249 661.0837,-79.4004 665.6527,-84.7036"/>
</g>
<!-- Node6 -->
<g id="node7" class="node">
<title>Node6</title>
<polygon fill="none" stroke="#bfbfbf" points="844.5,-.5 844.5,-19.5 897.5,-19.5 897.5,-.5 844.5,-.5"/>
<text text-anchor="middle" x="871" y="-7.5" font-family="FreeSans.ttf" font-size="10.00" fill="#000000">cstddef</text>
</g>
<!-- Node4&#45;&gt;Node6 -->
<g id="edge21" class="edge">
<title>Node4&#45;&gt;Node6</title>
<path fill="none" stroke="#191970" d="M571.0281,-168.4792C606.559,-150.6496 685.3415,-110.8736 751,-76 783.6262,-58.671 820.8528,-38.0648 845.077,-24.5429"/>
<polygon fill="#191970" stroke="#191970" points="846.9748,-27.4918 853.9953,-19.5569 843.5588,-21.3819 846.9748,-27.4918"/>
</g>
<!-- Node8 -->
<g id="node9" class="node">
<title>Node8</title>
<g id="a_node9"><a xlink:href="Span_8h.html" target="_top" xlink:title="iDynTree/Core/Span.h">
<polygon fill="none" stroke="#000000" points="447.5,-56.5 447.5,-75.5 568.5,-75.5 568.5,-56.5 447.5,-56.5"/>
<text text-anchor="middle" x="508" y="-63.5" font-family="FreeSans.ttf" font-size="10.00" fill="#000000">iDynTree/Core/Span.h</text>
</a>
</g>
</g>
<!-- Node4&#45;&gt;Node8 -->
<g id="edge8" class="edge">
<title>Node4&#45;&gt;Node8</title>
<path fill="none" stroke="#191970" d="M548.609,-168.0887C544.1215,-155.1143 535.8581,-131.7057 528,-112 524.4226,-103.029 520.1911,-93.1974 516.5437,-84.9346"/>
<polygon fill="#191970" stroke="#191970" points="519.738,-83.5038 512.4676,-75.7972 513.3452,-86.3556 519.738,-83.5038"/>
</g>
<!-- Node9 -->
<g id="node10" class="node">
<title>Node9</title>
<polygon fill="none" stroke="#bfbfbf" points="166,-.5 166,-19.5 218,-19.5 218,-.5 166,-.5"/>
<text text-anchor="middle" x="192" y="-7.5" font-family="FreeSans.ttf" font-size="10.00" fill="#000000">cassert</text>
</g>
<!-- Node4&#45;&gt;Node9 -->
<g id="edge20" class="edge">
<title>Node4&#45;&gt;Node9</title>
<path fill="none" stroke="#191970" d="M546.1986,-168.4959C537.0326,-154.2423 517.8722,-127.3666 495,-112 472.2011,-96.6827 303.5122,-44.0722 228.1686,-20.9963"/>
<polygon fill="#191970" stroke="#191970" points="228.7681,-17.5197 218.1817,-17.9431 226.7215,-24.2138 228.7681,-17.5197"/>
</g>
<!-- Node4&#45;&gt;Node17 -->
<g id="edge18" class="edge">
<title>Node4&#45;&gt;Node17</title>
<path fill="none" stroke="#191970" d="M623.4665,-168.4999C685.2086,-159.9791 776.7313,-146.598 856,-132 860.4608,-131.1785 865.1495,-130.2432 869.7575,-129.282"/>
<polygon fill="#191970" stroke="#191970" points="870.5537,-132.6909 879.5969,-127.1707 869.0851,-125.8467 870.5537,-132.6909"/>
</g>
<!-- Node18 -->
<g id="node19" class="node">
<title>Node18</title>
<polygon fill="none" stroke="#bfbfbf" points="362,-112.5 362,-131.5 418,-131.5 418,-112.5 362,-112.5"/>
<text text-anchor="middle" x="390" y="-119.5" font-family="FreeSans.ttf" font-size="10.00" fill="#000000">sstream</text>
</g>
<!-- Node4&#45;&gt;Node18 -->
<g id="edge19" class="edge">
<title>Node4&#45;&gt;Node18</title>
<path fill="none" stroke="#191970" d="M524.1512,-168.3733C497.3297,-159.1016 456.5873,-145.0178 427.0402,-134.804"/>
<polygon fill="#191970" stroke="#191970" points="428.0802,-131.4603 417.4854,-131.5011 425.7931,-138.0762 428.0802,-131.4603"/>
</g>
<!-- Node19 -->
<g id="node20" class="node">
<title>Node19</title>
<polygon fill="none" stroke="#bfbfbf" points="436,-112.5 436,-131.5 486,-131.5 486,-112.5 436,-112.5"/>
<text text-anchor="middle" x="461" y="-119.5" font-family="FreeSans.ttf" font-size="10.00" fill="#000000">cstring</text>
</g>
<!-- Node4&#45;&gt;Node19 -->
<g id="edge22" class="edge">
<title>Node4&#45;&gt;Node19</title>
<path fill="none" stroke="#191970" d="M536.149,-168.2455C522.1868,-159.6534 501.6272,-147.0014 485.5404,-137.1018"/>
<polygon fill="#191970" stroke="#191970" points="487.0203,-133.9029 476.6693,-131.6427 483.3516,-139.8645 487.0203,-133.9029"/>
</g>
<!-- Node5&#45;&gt;Node6 -->
<g id="edge6" class="edge">
<title>Node5&#45;&gt;Node6</title>
<path fill="none" stroke="#191970" d="M714.4903,-56.3733C747.9193,-46.4684 799.8836,-31.0715 834.6575,-20.7681"/>
<polygon fill="#191970" stroke="#191970" points="835.8249,-24.0727 844.4185,-17.876 833.8362,-17.3612 835.8249,-24.0727"/>
</g>
<!-- Node7 -->
<g id="node8" class="node">
<title>Node7</title>
<polygon fill="none" stroke="#bfbfbf" points="746,-.5 746,-19.5 826,-19.5 826,-.5 746,-.5"/>
<text text-anchor="middle" x="786" y="-7.5" font-family="FreeSans.ttf" font-size="10.00" fill="#000000">CoreExport.h</text>
</g>
<!-- Node5&#45;&gt;Node7 -->
<g id="edge7" class="edge">
<title>Node5&#45;&gt;Node7</title>
<path fill="none" stroke="#191970" d="M700.1154,-56.2455C716.445,-47.4527 740.671,-34.4079 759.2339,-24.4125"/>
<polygon fill="#191970" stroke="#191970" points="760.9468,-27.4654 768.0922,-19.6427 757.6281,-21.3021 760.9468,-27.4654"/>
</g>
<!-- Node8&#45;&gt;Node6 -->
<g id="edge12" class="edge">
<title>Node8&#45;&gt;Node6</title>
<path fill="none" stroke="#191970" d="M568.679,-59.8755C632.5157,-52.8908 736.0174,-40.0346 834.5354,-19.8596"/>
<polygon fill="#191970" stroke="#191970" points="835.2796,-23.2799 844.3591,-17.8198 833.8563,-16.4261 835.2796,-23.2799"/>
</g>
<!-- Node8&#45;&gt;Node9 -->
<g id="edge9" class="edge">
<title>Node8&#45;&gt;Node9</title>
<path fill="none" stroke="#191970" d="M447.3146,-58.14C392.3714,-50.5543 309.0728,-37.8885 228.1447,-20.0644"/>
<polygon fill="#191970" stroke="#191970" points="228.8115,-16.6272 218.2893,-17.8651 227.2869,-23.4591 228.8115,-16.6272"/>
</g>
<!-- Node10 -->
<g id="node11" class="node">
<title>Node10</title>
<polygon fill="none" stroke="#bfbfbf" points="604,-.5 604,-19.5 668,-19.5 668,-.5 604,-.5"/>
<text text-anchor="middle" x="636" y="-7.5" font-family="FreeSans.ttf" font-size="10.00" fill="#000000">algorithm</text>
</g>
<!-- Node8&#45;&gt;Node10 -->
<g id="edge10" class="edge">
<title>Node8&#45;&gt;Node10</title>
<path fill="none" stroke="#191970" d="M530.004,-56.3733C550.6435,-47.3435 581.7158,-33.7494 604.8889,-23.6111"/>
<polygon fill="#191970" stroke="#191970" points="606.5245,-26.7159 614.2831,-19.5011 603.7187,-20.3028 606.5245,-26.7159"/>
</g>
<!-- Node11 -->
<g id="node12" class="node">
<title>Node11</title>
<polygon fill="none" stroke="#bfbfbf" points="686,-.5 686,-19.5 728,-19.5 728,-.5 686,-.5"/>
<text text-anchor="middle" x="707" y="-7.5" font-family="FreeSans.ttf" font-size="10.00" fill="#000000">array</text>
</g>
<!-- Node8&#45;&gt;Node11 -->
<g id="edge11" class="edge">
<title>Node8&#45;&gt;Node11</title>
<path fill="none" stroke="#191970" d="M545.427,-56.4556C577.7067,-48.081 625.7714,-35.2722 676.0057,-20.1928"/>
<polygon fill="#191970" stroke="#191970" points="677.1824,-23.4936 685.7417,-17.2495 675.1567,-16.7931 677.1824,-23.4936"/>
</g>
<!-- Node12 -->
<g id="node13" class="node">
<title>Node12</title>
<polygon fill="none" stroke="#bfbfbf" points="323.5,-.5 323.5,-19.5 376.5,-19.5 376.5,-.5 323.5,-.5"/>
<text text-anchor="middle" x="350" y="-7.5" font-family="FreeSans.ttf" font-size="10.00" fill="#000000">iterator</text>
</g>
<!-- Node8&#45;&gt;Node12 -->
<g id="edge13" class="edge">
<title>Node8&#45;&gt;Node12</title>
<path fill="none" stroke="#191970" d="M480.8388,-56.3733C454.7144,-47.114 415.0489,-33.0553 386.2407,-22.8448"/>
<polygon fill="#191970" stroke="#191970" points="387.1385,-19.4497 376.5438,-19.4079 384.8,-26.0476 387.1385,-19.4497"/>
</g>
<!-- Node13 -->
<g id="node14" class="node">
<title>Node13</title>
<polygon fill="none" stroke="#bfbfbf" points="395,-.5 395,-19.5 439,-19.5 439,-.5 395,-.5"/>
<text text-anchor="middle" x="417" y="-7.5" font-family="FreeSans.ttf" font-size="10.00" fill="#000000">limits</text>
</g>
<!-- Node8&#45;&gt;Node13 -->
<g id="edge14" class="edge">
<title>Node8&#45;&gt;Node13</title>
<path fill="none" stroke="#191970" d="M492.149,-56.2455C478.1868,-47.6534 457.6272,-35.0014 441.5404,-25.1018"/>
<polygon fill="#191970" stroke="#191970" points="443.0203,-21.9029 432.6693,-19.6427 439.3516,-27.8645 443.0203,-21.9029"/>
</g>
<!-- Node14 -->
<g id="node15" class="node">
<title>Node14</title>
<polygon fill="none" stroke="#bfbfbf" points="457.5,-.5 457.5,-19.5 522.5,-19.5 522.5,-.5 457.5,-.5"/>
<text text-anchor="middle" x="490" y="-7.5" font-family="FreeSans.ttf" font-size="10.00" fill="#000000">stdexcept</text>
</g>
<!-- Node8&#45;&gt;Node14 -->
<g id="edge15" class="edge">
<title>Node8&#45;&gt;Node14</title>
<path fill="none" stroke="#191970" d="M504.8646,-56.2455C502.49,-48.8579 499.1507,-38.4689 496.2385,-29.4087"/>
<polygon fill="#191970" stroke="#191970" points="499.4917,-28.0919 493.0994,-19.6427 492.8275,-30.234 499.4917,-28.0919"/>
</g>
<!-- Node15 -->
<g id="node16" class="node">
<title>Node15</title>
<polygon fill="none" stroke="#bfbfbf" points="236.5,-.5 236.5,-19.5 305.5,-19.5 305.5,-.5 236.5,-.5"/>
<text text-anchor="middle" x="271" y="-7.5" font-family="FreeSans.ttf" font-size="10.00" fill="#000000">type_traits</text>
</g>
<!-- Node8&#45;&gt;Node15 -->
<g id="edge16" class="edge">
<title>Node8&#45;&gt;Node15</title>
<path fill="none" stroke="#191970" d="M467.5275,-56.4369C425.2122,-46.4383 359.001,-30.7935 315.3066,-20.4691"/>
<polygon fill="#191970" stroke="#191970" points="316.0646,-17.0519 305.5277,-18.1584 314.4548,-23.8643 316.0646,-17.0519"/>
</g>
<!-- Node16 -->
<g id="node17" class="node">
<title>Node16</title>
<polygon fill="none" stroke="#bfbfbf" points="540.5,-.5 540.5,-19.5 585.5,-19.5 585.5,-.5 540.5,-.5"/>
<text text-anchor="middle" x="563" y="-7.5" font-family="FreeSans.ttf" font-size="10.00" fill="#000000">utility</text>
</g>
<!-- Node8&#45;&gt;Node16 -->
<g id="edge17" class="edge">
<title>Node8&#45;&gt;Node16</title>
<path fill="none" stroke="#191970" d="M517.5803,-56.2455C525.5458,-48.1352 537.0641,-36.4075 546.5079,-26.7919"/>
<polygon fill="#191970" stroke="#191970" points="549.0195,-29.2297 553.5295,-19.6427 544.0253,-24.3247 549.0195,-29.2297"/>
</g>
<!-- Node20&#45;&gt;Node4 -->
<g id="edge42" class="edge">
<title>Node20&#45;&gt;Node4</title>
<path fill="none" stroke="#191970" d="M660.5798,-280.3823C659.4981,-266.4634 655.6502,-240.5625 642,-224 629.7787,-209.1712 611.5446,-198.6116 594.6782,-191.3823"/>
<polygon fill="#191970" stroke="#191970" points="595.5463,-187.9603 584.9613,-187.5035 592.9511,-194.4615 595.5463,-187.9603"/>
</g>
<!-- Node20&#45;&gt;Node17 -->
<g id="edge25" class="edge">
<title>Node20&#45;&gt;Node17</title>
<path fill="none" stroke="#191970" d="M667.825,-280.0853C677.6972,-266.2639 697.0841,-240.9938 718,-224 766.2707,-184.7808 831.7358,-152.6065 870.1636,-135.4576"/>
<polygon fill="#191970" stroke="#191970" points="872.0413,-138.4554 879.7862,-131.2258 869.2233,-132.0476 872.0413,-138.4554"/>
</g>
<!-- Node21 -->
<g id="node22" class="node">
<title>Node21</title>
<g id="a_node22"><a xlink:href="GeomVector3_8h.html" target="_top" xlink:title="iDynTree/Core/GeomVector3.h">
<polygon fill="none" stroke="#000000" points="293.5,-224.5 293.5,-243.5 456.5,-243.5 456.5,-224.5 293.5,-224.5"/>
<text text-anchor="middle" x="375" y="-231.5" font-family="FreeSans.ttf" font-size="10.00" fill="#000000">iDynTree/Core/GeomVector3.h</text>
</a>
</g>
</g>
<!-- Node20&#45;&gt;Node21 -->
<g id="edge26" class="edge">
<title>Node20&#45;&gt;Node21</title>
<path fill="none" stroke="#191970" d="M612.1598,-280.4369C562.699,-270.7522 486.184,-255.7703 433.512,-245.4569"/>
<polygon fill="#191970" stroke="#191970" points="434.125,-242.0105 423.6387,-243.5237 432.7798,-248.8801 434.125,-242.0105"/>
</g>
<!-- Node22 -->
<g id="node23" class="node">
<title>Node22</title>
<g id="a_node23"><a xlink:href="RotationRaw_8h.html" target="_top" xlink:title="iDynTree/Core/RotationRaw.h">
<polygon fill="none" stroke="#000000" points="475,-224.5 475,-243.5 633,-243.5 633,-224.5 475,-224.5"/>
<text text-anchor="middle" x="554" y="-231.5" font-family="FreeSans.ttf" font-size="10.00" fill="#000000">iDynTree/Core/RotationRaw.h</text>
</a>
</g>
</g>
<!-- Node20&#45;&gt;Node22 -->
<g id="edge28" class="edge">
<title>Node20&#45;&gt;Node22</title>
<path fill="none" stroke="#191970" d="M642.362,-280.2455C625.5614,-271.4527 600.6366,-258.4079 581.5382,-248.4125"/>
<polygon fill="#191970" stroke="#191970" points="582.9073,-245.1787 572.4244,-243.6427 579.6614,-251.3807 582.9073,-245.1787"/>
</g>
<!-- Node21&#45;&gt;Node4 -->
<g id="edge27" class="edge">
<title>Node21&#45;&gt;Node4</title>
<path fill="none" stroke="#191970" d="M405.4274,-224.3733C434.9872,-215.021 480.0226,-200.7725 512.3695,-190.5385"/>
<polygon fill="#191970" stroke="#191970" points="513.4913,-193.8546 521.9697,-187.5011 511.3797,-187.1807 513.4913,-193.8546"/>
</g>
<!-- Node22&#45;&gt;Node17 -->
<g id="edge41" class="edge">
<title>Node22&#45;&gt;Node17</title>
<path fill="none" stroke="#191970" d="M572.3058,-224.4456C605.5445,-207.1465 673.4641,-172.043 685,-168 758.2948,-142.3121 780.0529,-148.2494 856,-132 860.4354,-131.051 865.1097,-130.0435 869.7108,-129.0474"/>
<polygon fill="#191970" stroke="#191970" points="870.5157,-132.4543 879.5454,-126.9123 869.0305,-125.6137 870.5157,-132.4543"/>
</g>
<!-- Node22&#45;&gt;Node23 -->
<g id="edge29" class="edge">
<title>Node22&#45;&gt;Node23</title>
<path fill="none" stroke="#191970" d="M504.306,-224.4369C453.9804,-214.7522 376.1277,-199.7703 322.5349,-189.4569"/>
<polygon fill="#191970" stroke="#191970" points="322.9703,-185.9765 312.4891,-187.5237 321.6475,-192.8504 322.9703,-185.9765"/>
</g>
<!-- Node23&#45;&gt;Node5 -->
<g id="edge30" class="edge">
<title>Node23&#45;&gt;Node5</title>
<path fill="none" stroke="#191970" d="M272.5145,-168.4584C287.9259,-153.6428 319.9689,-125.417 353,-112 376.4745,-102.4649 522.7443,-84.3453 612.1663,-73.9196"/>
<polygon fill="#191970" stroke="#191970" points="612.7121,-77.3798 622.2415,-72.7494 611.9045,-70.4265 612.7121,-77.3798"/>
</g>
<!-- Node23&#45;&gt;Node9 -->
<g id="edge36" class="edge">
<title>Node23&#45;&gt;Node9</title>
<path fill="none" stroke="#191970" d="M205.7147,-168.4755C166.349,-160.6274 119.0895,-148.169 107,-132 78.9036,-94.4227 133.5511,-48.7058 167.6106,-25.3497"/>
<polygon fill="#191970" stroke="#191970" points="169.7918,-28.1022 176.1745,-19.6457 165.9114,-22.2762 169.7918,-28.1022"/>
</g>
<!-- Node23&#45;&gt;Node17 -->
<g id="edge38" class="edge">
<title>Node23&#45;&gt;Node17</title>
<path fill="none" stroke="#191970" d="M343.606,-170.9359C485.414,-158.5083 773.6144,-133.2513 869.8785,-124.815"/>
<polygon fill="#191970" stroke="#191970" points="870.2214,-128.2985 879.8776,-123.9387 869.6102,-121.3252 870.2214,-128.2985"/>
</g>
<!-- Node23&#45;&gt;Node18 -->
<g id="edge40" class="edge">
<title>Node23&#45;&gt;Node18</title>
<path fill="none" stroke="#191970" d="M284.8321,-168.3733C305.3103,-159.3435 336.1399,-145.7494 359.1319,-135.6111"/>
<polygon fill="#191970" stroke="#191970" points="360.715,-138.7383 368.4528,-131.5011 357.8907,-132.3333 360.715,-138.7383"/>
</g>
<!-- Node23&#45;&gt;Node19 -->
<g id="edge37" class="edge">
<title>Node23&#45;&gt;Node19</title>
<path fill="none" stroke="#191970" d="M297.59,-168.4341C328.7942,-159.7743 376.2005,-146.5437 426.0867,-132.2401"/>
<polygon fill="#191970" stroke="#191970" points="427.114,-135.5866 435.7593,-129.4621 425.1817,-128.8586 427.114,-135.5866"/>
</g>
<!-- Node24 -->
<g id="node25" class="node">
<title>Node24</title>
<g id="a_node25"><a xlink:href="MatrixView_8h.html" target="_top" xlink:title="iDynTree/Core/MatrixView.h">
<polygon fill="none" stroke="#000000" points="116.5,-112.5 116.5,-131.5 267.5,-131.5 267.5,-112.5 116.5,-112.5"/>
<text text-anchor="middle" x="192" y="-119.5" font-family="FreeSans.ttf" font-size="10.00" fill="#000000">iDynTree/Core/MatrixView.h</text>
</a>
</g>
</g>
<!-- Node23&#45;&gt;Node24 -->
<g id="edge31" class="edge">
<title>Node23&#45;&gt;Node24</title>
<path fill="none" stroke="#191970" d="M250.6327,-168.2455C240.0446,-159.8943 224.5936,-147.7076 212.2107,-137.9408"/>
<polygon fill="#191970" stroke="#191970" points="214.2447,-135.0875 204.2255,-131.6427 209.9097,-140.5837 214.2447,-135.0875"/>
</g>
<!-- Node25 -->
<g id="node26" class="node">
<title>Node25</title>
<polygon fill="none" stroke="#bfbfbf" points="0,-112.5 0,-131.5 60,-131.5 60,-112.5 0,-112.5"/>
<text text-anchor="middle" x="30" y="-119.5" font-family="FreeSans.ttf" font-size="10.00" fill="#000000">iostream</text>
</g>
<!-- Node23&#45;&gt;Node25 -->
<g id="edge39" class="edge">
<title>Node23&#45;&gt;Node25</title>
<path fill="none" stroke="#191970" d="M223.2106,-168.4369C180.4938,-158.1702 113.0073,-141.9503 70.1512,-131.6501"/>
<polygon fill="#191970" stroke="#191970" points="70.8855,-128.227 60.3444,-129.2931 69.2496,-135.0331 70.8855,-128.227"/>
</g>
<!-- Node24&#45;&gt;Node5 -->
<g id="edge35" class="edge">
<title>Node24&#45;&gt;Node5</title>
<path fill="none" stroke="#191970" d="M267.7566,-113.3421C361.8768,-102.5855 521.1634,-84.3813 612.3543,-73.9595"/>
<polygon fill="#191970" stroke="#191970" points="612.7778,-77.434 622.3157,-72.8211 611.9829,-70.4793 612.7778,-77.434"/>
</g>
<!-- Node24&#45;&gt;Node8 -->
<g id="edge34" class="edge">
<title>Node24&#45;&gt;Node8</title>
<path fill="none" stroke="#191970" d="M245.9633,-112.4369C300.8395,-102.712 385.857,-87.6456 444.075,-77.3285"/>
<polygon fill="#191970" stroke="#191970" points="445.0235,-80.715 454.2593,-75.5237 443.8019,-73.8224 445.0235,-80.715"/>
</g>
<!-- Node24&#45;&gt;Node9 -->
<g id="edge32" class="edge">
<title>Node24&#45;&gt;Node9</title>
<path fill="none" stroke="#191970" d="M192,-112.4509C192,-94.184 192,-53.9553 192,-29.6976"/>
<polygon fill="#191970" stroke="#191970" points="195.5001,-29.5249 192,-19.5249 188.5001,-29.5249 195.5001,-29.5249"/>
</g>
<!-- Node24&#45;&gt;Node15 -->
<g id="edge33" class="edge">
<title>Node24&#45;&gt;Node15</title>
<path fill="none" stroke="#191970" d="M198.7355,-112.4509C211.9701,-93.688 241.548,-51.7548 258.4743,-27.758"/>
<polygon fill="#191970" stroke="#191970" points="261.3776,-29.714 264.2816,-19.5249 255.6574,-25.6792 261.3776,-29.714"/>
</g>
<!-- Node26&#45;&gt;Node4 -->
<g id="edge48" class="edge">
<title>Node26&#45;&gt;Node4</title>
<path fill="none" stroke="#191970" d="M235.7153,-448.1841C226.4537,-438.7871 215.9537,-425.9121 211,-412 208.0183,-403.6261 209.2789,-400.7207 211,-392 217.7863,-357.6144 271.2929,-233.8712 284,-224 311.2161,-202.8578 394.5623,-190.8689 461.1603,-184.4696"/>
<polygon fill="#191970" stroke="#191970" points="461.642,-187.94 471.2744,-183.5278 460.9929,-180.9702 461.642,-187.94"/>
</g>
<!-- Node26&#45;&gt;Node21 -->
<g id="edge49" class="edge">
<title>Node26&#45;&gt;Node21</title>
<path fill="none" stroke="#191970" d="M237.0141,-448.4625C223.8863,-434.1993 208.7032,-412.0303 217,-392 244.1658,-326.4161 313.226,-273.8613 350.4067,-249.2195"/>
<polygon fill="#191970" stroke="#191970" points="352.6411,-251.9421 359.1276,-243.5651 348.8328,-246.0687 352.6411,-251.9421"/>
</g>
<!-- Node27 -->
<g id="node28" class="node">
<title>Node27</title>
<g id="a_node28"><a xlink:href="SpatialVector_8h.html" target="_top" xlink:title="iDynTree/Core/SpatialVector.h">
<polygon fill="none" stroke="#000000" points="226.5,-392.5 226.5,-411.5 387.5,-411.5 387.5,-392.5 226.5,-392.5"/>
<text text-anchor="middle" x="307" y="-399.5" font-family="FreeSans.ttf" font-size="10.00" fill="#000000">iDynTree/Core/SpatialVector.h</text>
</a>
</g>
</g>
<!-- Node26&#45;&gt;Node27 -->
<g id="edge50" class="edge">
<title>Node26&#45;&gt;Node27</title>
<path fill="none" stroke="#191970" d="M266.3483,-448.2977C274.0002,-439.5831 283.6373,-428.6075 291.6076,-419.5302"/>
<polygon fill="#191970" stroke="#191970" points="294.3859,-421.6707 298.3539,-411.8469 289.1258,-417.052 294.3859,-421.6707"/>
</g>
<!-- Node27&#45;&gt;Node2 -->
<g id="edge51" class="edge">
<title>Node27&#45;&gt;Node2</title>
<path fill="none" stroke="#191970" d="M387.5658,-392.9404C481.0968,-382.4229 634.3168,-365.1933 726.8188,-354.7915"/>
<polygon fill="#191970" stroke="#191970" points="727.4133,-358.2468 736.9595,-353.6511 726.631,-351.2906 727.4133,-358.2468"/>
</g>
<!-- Node27&#45;&gt;Node5 -->
<g id="edge53" class="edge">
<title>Node27&#45;&gt;Node5</title>
<path fill="none" stroke="#191970" d="M293.6153,-392.4603C249.4791,-359.8475 114.6059,-250.2677 173,-168 201.0688,-128.4557 231.4305,-151.1094 276,-132 293.9034,-124.3238 296.3862,-117.7431 315,-112 342.6681,-103.4633 513.5283,-84.1213 612.0718,-73.4376"/>
<polygon fill="#191970" stroke="#191970" points="612.6869,-76.8915 622.2526,-72.3367 611.9343,-69.9321 612.6869,-76.8915"/>
</g>
<!-- Node27&#45;&gt;Node18 -->
<g id="edge56" class="edge">
<title>Node27&#45;&gt;Node18</title>
<path fill="none" stroke="#191970" d="M301.7697,-392.2538C287.3474,-363.9246 250.248,-280.0588 284,-224 301.6386,-194.7039 327.3942,-211.7474 352,-188 365.78,-174.7007 376.1315,-155.3225 382.5227,-141.0017"/>
<polygon fill="#191970" stroke="#191970" points="385.815,-142.2017 386.469,-131.627 379.3633,-139.4858 385.815,-142.2017"/>
</g>
<!-- Node27&#45;&gt;Node20 -->
<g id="edge52" class="edge">
<title>Node27&#45;&gt;Node20</title>
<path fill="none" stroke="#191970" d="M337.1818,-392.4509C401.058,-372.2415 549.8959,-325.1516 621.3435,-302.5467"/>
<polygon fill="#191970" stroke="#191970" points="622.4161,-305.8784 630.8946,-299.5249 620.3046,-299.2045 622.4161,-305.8784"/>
</g>
<!-- Node27&#45;&gt;Node21 -->
<g id="edge54" class="edge">
<title>Node27&#45;&gt;Node21</title>
<path fill="none" stroke="#191970" d="M310.8508,-392.4862C321.6931,-365.6994 352.6343,-289.2565 367.2169,-253.2289"/>
<polygon fill="#191970" stroke="#191970" points="370.5144,-254.4106 371.022,-243.8279 364.0257,-251.7842 370.5144,-254.4106"/>
</g>
<!-- Node27&#45;&gt;Node25 -->
<g id="edge55" class="edge">
<title>Node27&#45;&gt;Node25</title>
<path fill="none" stroke="#191970" d="M244.0138,-392.4608C187.367,-379.8869 113,-351.6413 113,-290 113,-290 113,-290 113,-234 113,-193.0829 76.7996,-157.3617 52.2135,-137.8195"/>
<polygon fill="#191970" stroke="#191970" points="54.1496,-134.8939 44.0798,-131.5999 49.8975,-140.4545 54.1496,-134.8939"/>
</g>
<!-- Node28&#45;&gt;Node2 -->
<g id="edge63" class="edge">
<title>Node28&#45;&gt;Node2</title>
<path fill="none" stroke="#191970" d="M1011.4783,-392.4369C968.8639,-382.8529 903.1824,-368.0812 857.379,-357.78"/>
<polygon fill="#191970" stroke="#191970" points="857.8706,-354.3032 847.3463,-355.5237 856.3346,-361.1326 857.8706,-354.3032"/>
</g>
<!-- Node28&#45;&gt;Node5 -->
<g id="edge64" class="edge">
<title>Node28&#45;&gt;Node5</title>
<path fill="none" stroke="#191970" d="M1076.4419,-392.491C1122.4132,-371.3344 1223,-315.7074 1223,-234 1223,-234 1223,-234 1223,-178 1223,-130.4346 898.1789,-89.3365 751.9188,-73.2419"/>
<polygon fill="#191970" stroke="#191970" points="752.0244,-69.7327 741.7035,-72.1266 751.2645,-76.6914 752.0244,-69.7327"/>
</g>
<!-- Node28&#45;&gt;Node17 -->
<g id="edge58" class="edge">
<title>Node28&#45;&gt;Node17</title>
<path fill="none" stroke="#191970" d="M1070.6265,-392.2771C1097.3766,-375.2388 1147,-337.2624 1147,-290 1147,-290 1147,-290 1147,-234 1147,-187.7198 1000.5697,-146.0579 934.118,-129.5341"/>
<polygon fill="#191970" stroke="#191970" points="934.7196,-126.0781 924.1742,-127.1011 933.0558,-132.8776 934.7196,-126.0781"/>
</g>
<!-- Node29 -->
<g id="node30" class="node">
<title>Node29</title>
<g id="a_node30"><a xlink:href="Direction_8h.html" target="_top" xlink:title="iDynTree/Core/Direction.h">
<polygon fill="none" stroke="#000000" points="977.5,-224.5 977.5,-243.5 1118.5,-243.5 1118.5,-224.5 977.5,-224.5"/>
<text text-anchor="middle" x="1048" y="-231.5" font-family="FreeSans.ttf" font-size="10.00" fill="#000000">iDynTree/Core/Direction.h</text>
</a>
</g>
</g>
<!-- Node28&#45;&gt;Node29 -->
<g id="edge59" class="edge">
<title>Node28&#45;&gt;Node29</title>
<path fill="none" stroke="#191970" d="M1053.6602,-392.4862C1052.7118,-365.9293 1050.0202,-290.5651 1048.7202,-254.1655"/>
<polygon fill="#191970" stroke="#191970" points="1052.2058,-253.6966 1048.351,-243.8279 1045.2102,-253.9465 1052.2058,-253.6966"/>
</g>
<!-- Node29&#45;&gt;Node4 -->
<g id="edge61" class="edge">
<title>Node29&#45;&gt;Node4</title>
<path fill="none" stroke="#191970" d="M977.462,-226.036C889.5064,-216.1056 739.0115,-199.1142 642.6032,-188.2294"/>
<polygon fill="#191970" stroke="#191970" points="642.9057,-184.7414 632.5761,-187.0973 642.1203,-191.6972 642.9057,-184.7414"/>
</g>
<!-- Node29&#45;&gt;Node5 -->
<g id="edge62" class="edge">
<title>Node29&#45;&gt;Node5</title>
<path fill="none" stroke="#191970" d="M1042.2009,-224.3595C1027.3856,-200.6816 985.5771,-139.5949 933,-112 902.251,-95.8615 815.0318,-82.2381 752.0378,-74.1016"/>
<polygon fill="#191970" stroke="#191970" points="752.118,-70.5837 741.7563,-72.7943 751.235,-77.5278 752.118,-70.5837"/>
</g>
<!-- Node29&#45;&gt;Node17 -->
<g id="edge60" class="edge">
<title>Node29&#45;&gt;Node17</title>
<path fill="none" stroke="#191970" d="M1035.6546,-224.3265C1019.1518,-211.4154 988.9655,-187.8694 963,-168 949.9053,-157.9796 935.1441,-146.844 923.4226,-138.0391"/>
<polygon fill="#191970" stroke="#191970" points="925.2291,-135.0189 915.1296,-131.8173 921.0282,-140.6183 925.2291,-135.0189"/>
</g>
<!-- Node30&#45;&gt;Node6 -->
<g id="edge66" class="edge">
<title>Node30&#45;&gt;Node6</title>
<path fill="none" stroke="#191970" d="M1294.9249,-336.2297C1283.735,-317.2713 1261,-273.8493 1261,-234 1261,-234 1261,-234 1261,-122 1261,-49.0079 1005.4382,-20.7976 908.068,-12.6983"/>
<polygon fill="#191970" stroke="#191970" points="908.0552,-9.186 897.8063,-11.8709 907.4926,-16.1633 908.0552,-9.186"/>
</g>
<!-- Node30&#45;&gt;Node17 -->
<g id="edge67" class="edge">
<title>Node30&#45;&gt;Node17</title>
<path fill="none" stroke="#191970" d="M1287.6254,-336.3527C1276.0813,-327.638 1259.362,-314.0569 1247,-300 1200.7601,-247.4206 1219.3928,-206.6393 1161,-168 1124.1733,-143.6313 995.1836,-129.8294 934.2911,-124.5358"/>
<polygon fill="#191970" stroke="#191970" points="934.3533,-121.0287 924.094,-123.6739 933.7637,-128.0038 934.3533,-121.0287"/>
</g>
<!-- Node31 -->
<g id="node32" class="node">
<title>Node31</title>
<polygon fill="none" stroke="#bfbfbf" points="1289,-280.5 1289,-299.5 1375,-299.5 1375,-280.5 1289,-280.5"/>
<text text-anchor="middle" x="1332" y="-287.5" font-family="FreeSans.ttf" font-size="10.00" fill="#000000">ModelExport.h</text>
</g>
<!-- Node30&#45;&gt;Node31 -->
<g id="edge68" class="edge">
<title>Node30&#45;&gt;Node31</title>
<path fill="none" stroke="#191970" d="M1306.3998,-336.2455C1310.6227,-328.617 1316.6173,-317.7881 1321.7441,-308.5267"/>
<polygon fill="#191970" stroke="#191970" points="1324.881,-310.0867 1326.6621,-299.6427 1318.7568,-306.6965 1324.881,-310.0867"/>
</g>
<!-- Node33 -->
<g id="node34" class="node">
<title>Node33</title>
<g id="a_node34"><a xlink:href="IJoint_8h.html" target="_top" xlink:title="iDynTree/Model/IJoint.h">
<polygon fill="none" stroke="#000000" points="1235,-392.5 1235,-411.5 1363,-411.5 1363,-392.5 1235,-392.5"/>
<text text-anchor="middle" x="1299" y="-399.5" font-family="FreeSans.ttf" font-size="10.00" fill="#000000">iDynTree/Model/IJoint.h</text>
</a>
</g>
</g>
<!-- Node32&#45;&gt;Node33 -->
<g id="edge70" class="edge">
<title>Node32&#45;&gt;Node33</title>
<path fill="none" stroke="#191970" d="M1277.1685,-448.2977C1281.0682,-440.0277 1285.928,-429.7215 1290.0718,-420.9339"/>
<polygon fill="#191970" stroke="#191970" points="1293.2573,-422.3846 1294.3567,-411.8469 1286.9259,-419.399 1293.2573,-422.3846"/>
</g>
<!-- Node33&#45;&gt;Node30 -->
<g id="edge71" class="edge">
<title>Node33&#45;&gt;Node30</title>
<path fill="none" stroke="#191970" d="M1299.3484,-392.2455C1299.6093,-384.9382 1299.9752,-374.6944 1300.2963,-365.7046"/>
<polygon fill="#191970" stroke="#191970" points="1303.7964,-365.7613 1300.6556,-355.6427 1296.8008,-365.5113 1303.7964,-365.7613"/>
</g>
</g>
</svg>
