<?xml version="1.0" encoding="UTF-8" standalone="no"?>
<!DOCTYPE svg PUBLIC "-//W3C//DTD SVG 1.1//EN"
 "http://www.w3.org/Graphics/SVG/1.1/DTD/svg11.dtd">
<!-- Generated by graphviz version 2.40.1 (20161225.0304)
 -->
<!-- Title: PrivateUtils.cpp Pages: 1 -->
<svg width="1372pt" height="655pt"
 viewBox="0.00 0.00 1372.00 655.00" xmlns="http://www.w3.org/2000/svg" xmlns:xlink="http://www.w3.org/1999/xlink">
<g id="graph0" class="graph" transform="scale(1 1) rotate(0) translate(4 651)">
<title>PrivateUtils.cpp</title>
<!-- Node0 -->
<g id="node1" class="node">
<title>Node0</title>
<polygon fill="#bfbfbf" stroke="#000000" points="120.5,-627.5 120.5,-646.5 214.5,-646.5 214.5,-627.5 120.5,-627.5"/>
<text text-anchor="middle" x="167.5" y="-634.5" font-family="FreeSans.ttf" font-size="10.00" fill="#000000">PrivateUtils.cpp</text>
</g>
<!-- Node1 -->
<g id="node2" class="node">
<title>Node1</title>
<g id="a_node2"><a xlink:href="PrivateUtils_8h.html" target="_top" xlink:title="iDynTree/Core/PrivateUtils.h">
<polygon fill="none" stroke="#000000" points="90.5,-571.5 90.5,-590.5 244.5,-590.5 244.5,-571.5 90.5,-571.5"/>
<text text-anchor="middle" x="167.5" y="-578.5" font-family="FreeSans.ttf" font-size="10.00" fill="#000000">iDynTree/Core/PrivateUtils.h</text>
</a>
</g>
</g>
<!-- Node0&#45;&gt;Node1 -->
<g id="edge1" class="edge">
<title>Node0&#45;&gt;Node1</title>
<path fill="none" stroke="#191970" d="M167.5,-627.2455C167.5,-619.9382 167.5,-609.6944 167.5,-600.7046"/>
<polygon fill="#191970" stroke="#191970" points="171.0001,-600.6426 167.5,-590.6427 164.0001,-600.6427 171.0001,-600.6426"/>
</g>
<!-- Node2 -->
<g id="node3" class="node">
<title>Node2</title>
<polygon fill="none" stroke="#bfbfbf" points="0,-454 0,-473 77,-473 77,-454 0,-454"/>
<text text-anchor="middle" x="38.5" y="-461" font-family="FreeSans.ttf" font-size="10.00" fill="#000000">Eigen/Dense</text>
</g>
<!-- Node1&#45;&gt;Node2 -->
<g id="edge2" class="edge">
<title>Node1&#45;&gt;Node2</title>
<path fill="none" stroke="#191970" d="M156.9434,-571.3845C135.0213,-551.4167 84.3285,-505.243 56.9077,-480.2667"/>
<polygon fill="#191970" stroke="#191970" points="58.9523,-477.3947 49.2025,-473.2484 54.2386,-482.5698 58.9523,-477.3947"/>
</g>
<!-- Node3 -->
<g id="node4" class="node">
<title>Node3</title>
<g id="a_node4"><a xlink:href="EigenHelpers_8h.html" target="_top" xlink:title="iDynTree/Core/EigenHelpers.h">
<polygon fill="none" stroke="#000000" points="217,-515.5 217,-534.5 378,-534.5 378,-515.5 217,-515.5"/>
<text text-anchor="middle" x="297.5" y="-522.5" font-family="FreeSans.ttf" font-size="10.00" fill="#000000">iDynTree/Core/EigenHelpers.h</text>
</a>
</g>
</g>
<!-- Node1&#45;&gt;Node3 -->
<g id="edge3" class="edge">
<title>Node1&#45;&gt;Node3</title>
<path fill="none" stroke="#191970" d="M189.8478,-571.3733C210.9033,-562.3032 242.6495,-548.6279 266.2175,-538.4755"/>
<polygon fill="#191970" stroke="#191970" points="267.6444,-541.6719 275.4438,-534.5011 264.875,-535.243 267.6444,-541.6719"/>
</g>
<!-- Node3&#45;&gt;Node2 -->
<g id="edge5" class="edge">
<title>Node3&#45;&gt;Node2</title>
<path fill="none" stroke="#191970" d="M250.6595,-515.4445C208.7715,-506.6848 145.7941,-492.9855 91.5,-479 87.6414,-478.0061 83.6388,-476.9263 79.6405,-475.8148"/>
<polygon fill="#191970" stroke="#191970" points="80.3713,-472.384 69.7954,-473.0173 78.4579,-479.1174 80.3713,-472.384"/>
</g>
<!-- Node4 -->
<g id="node5" class="node">
<title>Node4</title>
<polygon fill="none" stroke="#bfbfbf" points="244,-.5 244,-19.5 297,-19.5 297,-.5 244,-.5"/>
<text text-anchor="middle" x="270.5" y="-7.5" font-family="FreeSans.ttf" font-size="10.00" fill="#000000">cstddef</text>
</g>
<!-- Node3&#45;&gt;Node4 -->
<g id="edge4" class="edge">
<title>Node3&#45;&gt;Node4</title>
<path fill="none" stroke="#191970" d="M234.1473,-515.4925C206.5456,-508.8622 175.1659,-497.7015 151.5,-479 120.223,-454.2839 105.5,-441.864 105.5,-402 105.5,-402 105.5,-402 105.5,-122 105.5,-60.2636 185.5547,-30.1919 234.1401,-17.6261"/>
<polygon fill="#191970" stroke="#191970" points="235.1142,-20.9909 243.9899,-15.2053 233.4435,-14.1932 235.1142,-20.9909"/>
</g>
<!-- Node5 -->
<g id="node6" class="node">
<title>Node5</title>
<g id="a_node6"><a xlink:href="VectorDynSize_8h.html" target="_top" xlink:title="iDynTree/Core/VectorDynSize.h">
<polygon fill="none" stroke="#000000" points="1197,-168.5 1197,-187.5 1364,-187.5 1364,-168.5 1197,-168.5"/>
<text text-anchor="middle" x="1280.5" y="-175.5" font-family="FreeSans.ttf" font-size="10.00" fill="#000000">iDynTree/Core/VectorDynSize.h</text>
</a>
</g>
</g>
<!-- Node3&#45;&gt;Node5 -->
<g id="edge6" class="edge">
<title>Node3&#45;&gt;Node5</title>
<path fill="none" stroke="#191970" d="M378.1554,-522.9353C606.9247,-516.0158 1243.5,-488.9497 1243.5,-402 1243.5,-402 1243.5,-402 1243.5,-290 1243.5,-255.7041 1259.3354,-218.3471 1270.287,-196.6122"/>
<polygon fill="#191970" stroke="#191970" points="1273.5018,-198.0179 1275.0405,-187.5354 1267.3006,-194.7704 1273.5018,-198.0179"/>
</g>
<!-- Node16 -->
<g id="node17" class="node">
<title>Node16</title>
<g id="a_node17"><a xlink:href="VectorFixSize_8h.html" target="_top" xlink:title="iDynTree/Core/VectorFixSize.h">
<polygon fill="none" stroke="#000000" points="340,-168.5 340,-187.5 501,-187.5 501,-168.5 340,-168.5"/>
<text text-anchor="middle" x="420.5" y="-175.5" font-family="FreeSans.ttf" font-size="10.00" fill="#000000">iDynTree/Core/VectorFixSize.h</text>
</a>
</g>
</g>
<!-- Node3&#45;&gt;Node16 -->
<g id="edge18" class="edge">
<title>Node3&#45;&gt;Node16</title>
<path fill="none" stroke="#191970" d="M268.1897,-515.346C249.7545,-507.9578 226.6681,-496.1008 211.5,-479 187.1286,-451.5232 181.5,-438.7279 181.5,-402 181.5,-402 181.5,-402 181.5,-346 181.5,-255.8439 296.7326,-209.8902 367.1705,-190.2219"/>
<polygon fill="#191970" stroke="#191970" points="368.4771,-193.4945 377.2189,-187.5086 366.6522,-186.7365 368.4771,-193.4945"/>
</g>
<!-- Node17 -->
<g id="node18" class="node">
<title>Node17</title>
<g id="a_node18"><a xlink:href="Utils_8h.html" target="_top" xlink:title="iDynTree/Core/Utils.h">
<polygon fill="none" stroke="#000000" points="303,-56.5 303,-75.5 422,-75.5 422,-56.5 303,-56.5"/>
<text text-anchor="middle" x="362.5" y="-63.5" font-family="FreeSans.ttf" font-size="10.00" fill="#000000">iDynTree/Core/Utils.h</text>
</a>
</g>
</g>
<!-- Node3&#45;&gt;Node17 -->
<g id="edge74" class="edge">
<title>Node3&#45;&gt;Node17</title>
<path fill="none" stroke="#191970" d="M256.5296,-515.466C233.5395,-508.4546 205.5395,-496.9546 185.5,-479 156.4666,-452.9872 143.5,-440.9821 143.5,-402 143.5,-402 143.5,-402 143.5,-178 143.5,-109.7984 228.7328,-83.1028 292.8532,-72.6694"/>
<polygon fill="#191970" stroke="#191970" points="293.5883,-76.0979 302.9466,-71.1307 292.5333,-69.1779 293.5883,-76.0979"/>
</g>
<!-- Node21 -->
<g id="node22" class="node">
<title>Node21</title>
<g id="a_node22"><a xlink:href="MatrixDynSize_8h.html" target="_top" xlink:title="iDynTree/Core/MatrixDynSize.h">
<polygon fill="none" stroke="#000000" points="746,-168.5 746,-187.5 913,-187.5 913,-168.5 746,-168.5"/>
<text text-anchor="middle" x="829.5" y="-175.5" font-family="FreeSans.ttf" font-size="10.00" fill="#000000">iDynTree/Core/MatrixDynSize.h</text>
</a>
</g>
</g>
<!-- Node3&#45;&gt;Node21 -->
<g id="edge28" class="edge">
<title>Node3&#45;&gt;Node21</title>
<path fill="none" stroke="#191970" d="M378.2052,-520.9159C580.5715,-509.6022 1093.5,-473.84 1093.5,-402 1093.5,-402 1093.5,-402 1093.5,-290 1093.5,-259.4754 1097.0817,-244.5383 1074.5,-224 1052.3684,-203.871 982.6866,-192.0673 923.268,-185.4674"/>
<polygon fill="#191970" stroke="#191970" points="923.3862,-181.9601 913.0699,-184.3736 922.6396,-188.9202 923.3862,-181.9601"/>
</g>
<!-- Node23 -->
<g id="node24" class="node">
<title>Node23</title>
<g id="a_node24"><a xlink:href="MatrixFixSize_8h.html" target="_top" xlink:title="iDynTree/Core/MatrixFixSize.h">
<polygon fill="none" stroke="#000000" points="519,-168.5 519,-187.5 680,-187.5 680,-168.5 519,-168.5"/>
<text text-anchor="middle" x="599.5" y="-175.5" font-family="FreeSans.ttf" font-size="10.00" fill="#000000">iDynTree/Core/MatrixFixSize.h</text>
</a>
</g>
</g>
<!-- Node3&#45;&gt;Node23 -->
<g id="edge35" class="edge">
<title>Node3&#45;&gt;Node23</title>
<path fill="none" stroke="#191970" d="M378.2734,-519.5703C445.3288,-513.5308 534.003,-501.5051 561.5,-479 589.922,-455.7378 591.5,-438.7279 591.5,-402 591.5,-402 591.5,-402 591.5,-290 591.5,-257.6293 594.866,-220.1294 597.2313,-197.7743"/>
<polygon fill="#191970" stroke="#191970" points="600.739,-197.8948 598.3538,-187.5719 593.781,-197.1291 600.739,-197.8948"/>
</g>
<!-- Node25 -->
<g id="node26" class="node">
<title>Node25</title>
<g id="a_node26"><a xlink:href="SpatialMotionVector_8h.html" target="_top" xlink:title="iDynTree/Core/SpatialMotion\lVector.h">
<polygon fill="none" stroke="#000000" points="220,-448.5 220,-478.5 375,-478.5 375,-448.5 220,-448.5"/>
<text text-anchor="start" x="228" y="-466.5" font-family="FreeSans.ttf" font-size="10.00" fill="#000000">iDynTree/Core/SpatialMotion</text>
<text text-anchor="middle" x="297.5" y="-455.5" font-family="FreeSans.ttf" font-size="10.00" fill="#000000">Vector.h</text>
</a>
</g>
</g>
<!-- Node3&#45;&gt;Node25 -->
<g id="edge43" class="edge">
<title>Node3&#45;&gt;Node25</title>
<path fill="none" stroke="#191970" d="M297.5,-515.3906C297.5,-508.2234 297.5,-498.0862 297.5,-488.671"/>
<polygon fill="#191970" stroke="#191970" points="301.0001,-488.5446 297.5,-478.5446 294.0001,-488.5446 301.0001,-488.5446"/>
</g>
<!-- Node32 -->
<g id="node33" class="node">
<title>Node32</title>
<g id="a_node33"><a xlink:href="SpatialForceVector_8h.html" target="_top" xlink:title="iDynTree/Core/SpatialForce\lVector.h">
<polygon fill="none" stroke="#000000" points="404.5,-448.5 404.5,-478.5 552.5,-478.5 552.5,-448.5 404.5,-448.5"/>
<text text-anchor="start" x="412.5" y="-466.5" font-family="FreeSans.ttf" font-size="10.00" fill="#000000">iDynTree/Core/SpatialForce</text>
<text text-anchor="middle" x="478.5" y="-455.5" font-family="FreeSans.ttf" font-size="10.00" fill="#000000">Vector.h</text>
</a>
</g>
</g>
<!-- Node3&#45;&gt;Node32 -->
<g id="edge65" class="edge">
<title>Node3&#45;&gt;Node32</title>
<path fill="none" stroke="#191970" d="M325.7813,-515.3906C352.0919,-506.4508 392.0012,-492.8905 424.4239,-481.8739"/>
<polygon fill="#191970" stroke="#191970" points="425.8801,-485.0757 434.2224,-478.5446 423.628,-478.4479 425.8801,-485.0757"/>
</g>
<!-- Node33 -->
<g id="node34" class="node">
<title>Node33</title>
<g id="a_node34"><a xlink:href="Transform_8h.html" target="_top" xlink:title="iDynTree/Core/Transform.h">
<polygon fill="none" stroke="#000000" points="666.5,-392.5 666.5,-411.5 812.5,-411.5 812.5,-392.5 666.5,-392.5"/>
<text text-anchor="middle" x="739.5" y="-399.5" font-family="FreeSans.ttf" font-size="10.00" fill="#000000">iDynTree/Core/Transform.h</text>
</a>
</g>
</g>
<!-- Node3&#45;&gt;Node33 -->
<g id="edge69" class="edge">
<title>Node3&#45;&gt;Node33</title>
<path fill="none" stroke="#191970" d="M378.2625,-521.1646C441.5619,-516.2189 531.0778,-504.8999 605.5,-479 648.3423,-464.0903 693.0411,-435.2903 718.4586,-417.4497"/>
<polygon fill="#191970" stroke="#191970" points="720.5003,-420.2925 726.6104,-411.637 716.4363,-414.5931 720.5003,-420.2925"/>
</g>
<!-- Node6 -->
<g id="node7" class="node">
<title>Node6</title>
<g id="a_node7"><a xlink:href="Span_8h.html" target="_top" xlink:title="iDynTree/Core/Span.h">
<polygon fill="none" stroke="#000000" points="780,-56.5 780,-75.5 901,-75.5 901,-56.5 780,-56.5"/>
<text text-anchor="middle" x="840.5" y="-63.5" font-family="FreeSans.ttf" font-size="10.00" fill="#000000">iDynTree/Core/Span.h</text>
</a>
</g>
</g>
<!-- Node5&#45;&gt;Node6 -->
<g id="edge7" class="edge">
<title>Node5&#45;&gt;Node6</title>
<path fill="none" stroke="#191970" d="M1242.9858,-168.4509C1162.9423,-148.0762 975.5619,-100.3794 887.6307,-77.9969"/>
<polygon fill="#191970" stroke="#191970" points="888.4736,-74.5999 877.9192,-75.5249 886.7468,-81.3836 888.4736,-74.5999"/>
</g>
<!-- Node15 -->
<g id="node16" class="node">
<title>Node15</title>
<polygon fill="none" stroke="#bfbfbf" points="918.5,-112.5 918.5,-131.5 962.5,-131.5 962.5,-112.5 918.5,-112.5"/>
<text text-anchor="middle" x="940.5" y="-119.5" font-family="FreeSans.ttf" font-size="10.00" fill="#000000">string</text>
</g>
<!-- Node5&#45;&gt;Node15 -->
<g id="edge17" class="edge">
<title>Node5&#45;&gt;Node15</title>
<path fill="none" stroke="#191970" d="M1222.4382,-168.4369C1150.3036,-156.5559 1029.7645,-136.7024 972.5367,-127.2766"/>
<polygon fill="#191970" stroke="#191970" points="973.0497,-123.814 962.6138,-125.6423 971.912,-130.721 973.0497,-123.814"/>
</g>
<!-- Node6&#45;&gt;Node4 -->
<g id="edge11" class="edge">
<title>Node6&#45;&gt;Node4</title>
<path fill="none" stroke="#191970" d="M779.6964,-63.4893C681.2484,-58.7983 481.0685,-46.6608 313.5,-20 311.4303,-19.6707 309.3121,-19.2977 307.1795,-18.894"/>
<polygon fill="#191970" stroke="#191970" points="307.7242,-15.4326 297.222,-16.8308 306.3039,-22.287 307.7242,-15.4326"/>
</g>
<!-- Node7 -->
<g id="node8" class="node">
<title>Node7</title>
<polygon fill="none" stroke="#bfbfbf" points="598.5,-.5 598.5,-19.5 650.5,-19.5 650.5,-.5 598.5,-.5"/>
<text text-anchor="middle" x="624.5" y="-7.5" font-family="FreeSans.ttf" font-size="10.00" fill="#000000">cassert</text>
</g>
<!-- Node6&#45;&gt;Node7 -->
<g id="edge8" class="edge">
<title>Node6&#45;&gt;Node7</title>
<path fill="none" stroke="#191970" d="M802.1661,-56.4485C765.6841,-47.3005 709.274,-33.0049 660.5,-20 660.4021,-19.9739 660.304,-19.9477 660.2058,-19.9215"/>
<polygon fill="#191970" stroke="#191970" points="661.3962,-16.6179 650.8289,-17.3814 659.5659,-23.3744 661.3962,-16.6179"/>
</g>
<!-- Node8 -->
<g id="node9" class="node">
<title>Node8</title>
<polygon fill="none" stroke="#bfbfbf" points="1097.5,-.5 1097.5,-19.5 1161.5,-19.5 1161.5,-.5 1097.5,-.5"/>
<text text-anchor="middle" x="1129.5" y="-7.5" font-family="FreeSans.ttf" font-size="10.00" fill="#000000">algorithm</text>
</g>
<!-- Node6&#45;&gt;Node8 -->
<g id="edge9" class="edge">
<title>Node6&#45;&gt;Node8</title>
<path fill="none" stroke="#191970" d="M896.8203,-56.4772C944.9392,-48.1315 1016.2338,-35.2724 1087.2881,-20.1758"/>
<polygon fill="#191970" stroke="#191970" points="1088.264,-23.5463 1097.3101,-18.031 1086.799,-16.7013 1088.264,-23.5463"/>
</g>
<!-- Node9 -->
<g id="node10" class="node">
<title>Node9</title>
<polygon fill="none" stroke="#bfbfbf" points="756.5,-.5 756.5,-19.5 798.5,-19.5 798.5,-.5 756.5,-.5"/>
<text text-anchor="middle" x="777.5" y="-7.5" font-family="FreeSans.ttf" font-size="10.00" fill="#000000">array</text>
</g>
<!-- Node6&#45;&gt;Node9 -->
<g id="edge10" class="edge">
<title>Node6&#45;&gt;Node9</title>
<path fill="none" stroke="#191970" d="M829.5262,-56.2455C820.3118,-48.0549 806.9468,-36.1749 796.0703,-26.5069"/>
<polygon fill="#191970" stroke="#191970" points="798.1474,-23.6704 788.348,-19.6427 793.4968,-28.9023 798.1474,-23.6704"/>
</g>
<!-- Node10 -->
<g id="node11" class="node">
<title>Node10</title>
<polygon fill="none" stroke="#bfbfbf" points="817,-.5 817,-19.5 870,-19.5 870,-.5 817,-.5"/>
<text text-anchor="middle" x="843.5" y="-7.5" font-family="FreeSans.ttf" font-size="10.00" fill="#000000">iterator</text>
</g>
<!-- Node6&#45;&gt;Node10 -->
<g id="edge12" class="edge">
<title>Node6&#45;&gt;Node10</title>
<path fill="none" stroke="#191970" d="M841.0226,-56.2455C841.414,-48.9382 841.9628,-38.6944 842.4444,-29.7046"/>
<polygon fill="#191970" stroke="#191970" points="845.9434,-29.8156 842.9834,-19.6427 838.9534,-29.4411 845.9434,-29.8156"/>
</g>
<!-- Node11 -->
<g id="node12" class="node">
<title>Node11</title>
<polygon fill="none" stroke="#bfbfbf" points="888.5,-.5 888.5,-19.5 932.5,-19.5 932.5,-.5 888.5,-.5"/>
<text text-anchor="middle" x="910.5" y="-7.5" font-family="FreeSans.ttf" font-size="10.00" fill="#000000">limits</text>
</g>
<!-- Node6&#45;&gt;Node11 -->
<g id="edge13" class="edge">
<title>Node6&#45;&gt;Node11</title>
<path fill="none" stroke="#191970" d="M852.6931,-56.2455C863.1321,-47.8943 878.3655,-35.7076 890.574,-25.9408"/>
<polygon fill="#191970" stroke="#191970" points="892.8244,-28.6227 898.4467,-19.6427 888.4515,-23.1566 892.8244,-28.6227"/>
</g>
<!-- Node12 -->
<g id="node13" class="node">
<title>Node12</title>
<polygon fill="none" stroke="#bfbfbf" points="951,-.5 951,-19.5 1016,-19.5 1016,-.5 951,-.5"/>
<text text-anchor="middle" x="983.5" y="-7.5" font-family="FreeSans.ttf" font-size="10.00" fill="#000000">stdexcept</text>
</g>
<!-- Node6&#45;&gt;Node12 -->
<g id="edge14" class="edge">
<title>Node6&#45;&gt;Node12</title>
<path fill="none" stroke="#191970" d="M865.0826,-56.3733C888.4496,-47.2226 923.7862,-33.3844 949.7784,-23.2057"/>
<polygon fill="#191970" stroke="#191970" points="951.203,-26.4066 959.2382,-19.5011 948.6505,-19.8886 951.203,-26.4066"/>
</g>
<!-- Node13 -->
<g id="node14" class="node">
<title>Node13</title>
<polygon fill="none" stroke="#bfbfbf" points="669,-.5 669,-19.5 738,-19.5 738,-.5 669,-.5"/>
<text text-anchor="middle" x="703.5" y="-7.5" font-family="FreeSans.ttf" font-size="10.00" fill="#000000">type_traits</text>
</g>
<!-- Node6&#45;&gt;Node13 -->
<g id="edge15" class="edge">
<title>Node6&#45;&gt;Node13</title>
<path fill="none" stroke="#191970" d="M816.9489,-56.3733C794.6609,-47.2629 761.0063,-33.5062 736.1363,-23.3404"/>
<polygon fill="#191970" stroke="#191970" points="737.3247,-20.0451 726.7438,-19.5011 734.6761,-26.5247 737.3247,-20.0451"/>
</g>
<!-- Node14 -->
<g id="node15" class="node">
<title>Node14</title>
<polygon fill="none" stroke="#bfbfbf" points="1034,-.5 1034,-19.5 1079,-19.5 1079,-.5 1034,-.5"/>
<text text-anchor="middle" x="1056.5" y="-7.5" font-family="FreeSans.ttf" font-size="10.00" fill="#000000">utility</text>
</g>
<!-- Node6&#45;&gt;Node14 -->
<g id="edge16" class="edge">
<title>Node6&#45;&gt;Node14</title>
<path fill="none" stroke="#191970" d="M882.2285,-56.4843C917.7338,-48.1956 970.2756,-35.4787 1024.1522,-20.2649"/>
<polygon fill="#191970" stroke="#191970" points="1025.2088,-23.6032 1033.8677,-17.4979 1023.2914,-16.8709 1025.2088,-23.6032"/>
</g>
<!-- Node16&#45;&gt;Node4 -->
<g id="edge26" class="edge">
<title>Node16&#45;&gt;Node4</title>
<path fill="none" stroke="#191970" d="M371.1827,-168.4847C334.3034,-160.2784 288.2962,-147.3454 276.5,-132 253.7697,-102.4306 259.4394,-55.9081 265.2153,-29.6827"/>
<polygon fill="#191970" stroke="#191970" points="268.6578,-30.3379 267.6146,-19.7946 261.8552,-28.6872 268.6578,-30.3379"/>
</g>
<!-- Node16&#45;&gt;Node6 -->
<g id="edge22" class="edge">
<title>Node16&#45;&gt;Node6</title>
<path fill="none" stroke="#191970" d="M501.134,-168.95C617.0008,-155.9084 816.9666,-133.2452 818.5,-132 832.0981,-120.9574 837.3498,-101.2437 839.3476,-86.2279"/>
<polygon fill="#191970" stroke="#191970" points="842.8689,-86.1674 840.3255,-75.8824 835.8999,-85.5087 842.8689,-86.1674"/>
</g>
<!-- Node16&#45;&gt;Node7 -->
<g id="edge25" class="edge">
<title>Node16&#45;&gt;Node7</title>
<path fill="none" stroke="#191970" d="M432.0524,-168.4862C465.4867,-140.9521 562.6288,-60.9528 604.6949,-26.31"/>
<polygon fill="#191970" stroke="#191970" points="607.0718,-28.8868 612.5661,-19.8279 602.6218,-23.4832 607.0718,-28.8868"/>
</g>
<!-- Node16&#45;&gt;Node15 -->
<g id="edge23" class="edge">
<title>Node16&#45;&gt;Node15</title>
<path fill="none" stroke="#191970" d="M501.4505,-168.982C504.5056,-168.6491 507.5303,-168.3208 510.5,-168 662.8951,-151.5364 701.1363,-148.7519 853.5,-132 871.5996,-130.01 891.8056,-127.6933 908.1856,-125.7911"/>
<polygon fill="#191970" stroke="#191970" points="908.8088,-129.2423 918.3366,-124.6086 907.9987,-122.2893 908.8088,-129.2423"/>
</g>
<!-- Node16&#45;&gt;Node17 -->
<g id="edge19" class="edge">
<title>Node16&#45;&gt;Node17</title>
<path fill="none" stroke="#191970" d="M412.6756,-168.2019C405.7149,-159.1715 395.5711,-145.2081 388.5,-132 380.4277,-116.9219 373.4621,-98.7801 368.7781,-85.3359"/>
<polygon fill="#191970" stroke="#191970" points="372.0441,-84.0674 365.5331,-75.7093 365.4108,-86.3034 372.0441,-84.0674"/>
</g>
<!-- Node19 -->
<g id="node20" class="node">
<title>Node19</title>
<polygon fill="none" stroke="#bfbfbf" points="285.5,-112.5 285.5,-131.5 341.5,-131.5 341.5,-112.5 285.5,-112.5"/>
<text text-anchor="middle" x="313.5" y="-119.5" font-family="FreeSans.ttf" font-size="10.00" fill="#000000">sstream</text>
</g>
<!-- Node16&#45;&gt;Node19 -->
<g id="edge24" class="edge">
<title>Node16&#45;&gt;Node19</title>
<path fill="none" stroke="#191970" d="M401.862,-168.2455C385.0614,-159.4527 360.1366,-146.4079 341.0382,-136.4125"/>
<polygon fill="#191970" stroke="#191970" points="342.4073,-133.1787 331.9244,-131.6427 339.1614,-139.3807 342.4073,-133.1787"/>
</g>
<!-- Node20 -->
<g id="node21" class="node">
<title>Node20</title>
<polygon fill="none" stroke="#bfbfbf" points="513.5,-112.5 513.5,-131.5 563.5,-131.5 563.5,-112.5 513.5,-112.5"/>
<text text-anchor="middle" x="538.5" y="-119.5" font-family="FreeSans.ttf" font-size="10.00" fill="#000000">cstring</text>
</g>
<!-- Node16&#45;&gt;Node20 -->
<g id="edge27" class="edge">
<title>Node16&#45;&gt;Node20</title>
<path fill="none" stroke="#191970" d="M440.7849,-168.3733C459.6421,-159.4241 487.946,-145.9917 509.2455,-135.8835"/>
<polygon fill="#191970" stroke="#191970" points="510.9461,-138.9506 518.4798,-131.5011 507.9449,-132.6266 510.9461,-138.9506"/>
</g>
<!-- Node17&#45;&gt;Node4 -->
<g id="edge20" class="edge">
<title>Node17&#45;&gt;Node4</title>
<path fill="none" stroke="#191970" d="M346.4748,-56.2455C332.3592,-47.6534 311.5737,-35.0014 295.3101,-25.1018"/>
<polygon fill="#191970" stroke="#191970" points="296.7034,-21.8525 286.3415,-19.6427 293.0637,-27.8319 296.7034,-21.8525"/>
</g>
<!-- Node18 -->
<g id="node19" class="node">
<title>Node18</title>
<polygon fill="none" stroke="#bfbfbf" points="322.5,-.5 322.5,-19.5 402.5,-19.5 402.5,-.5 322.5,-.5"/>
<text text-anchor="middle" x="362.5" y="-7.5" font-family="FreeSans.ttf" font-size="10.00" fill="#000000">CoreExport.h</text>
</g>
<!-- Node17&#45;&gt;Node18 -->
<g id="edge21" class="edge">
<title>Node17&#45;&gt;Node18</title>
<path fill="none" stroke="#191970" d="M362.5,-56.2455C362.5,-48.9382 362.5,-38.6944 362.5,-29.7046"/>
<polygon fill="#191970" stroke="#191970" points="366.0001,-29.6426 362.5,-19.6427 359.0001,-29.6427 366.0001,-29.6426"/>
</g>
<!-- Node21&#45;&gt;Node15 -->
<g id="edge29" class="edge">
<title>Node21&#45;&gt;Node15</title>
<path fill="none" stroke="#191970" d="M848.5816,-168.3733C866.2402,-159.4644 892.7053,-146.1127 912.7098,-136.0203"/>
<polygon fill="#191970" stroke="#191970" points="914.3158,-139.1303 921.6674,-131.5011 911.1628,-132.8806 914.3158,-139.1303"/>
</g>
<!-- Node22 -->
<g id="node23" class="node">
<title>Node22</title>
<g id="a_node23"><a xlink:href="MatrixView_8h.html" target="_top" xlink:title="iDynTree/Core/MatrixView.h">
<polygon fill="none" stroke="#000000" points="658,-112.5 658,-131.5 809,-131.5 809,-112.5 658,-112.5"/>
<text text-anchor="middle" x="733.5" y="-119.5" font-family="FreeSans.ttf" font-size="10.00" fill="#000000">iDynTree/Core/MatrixView.h</text>
</a>
</g>
</g>
<!-- Node21&#45;&gt;Node22 -->
<g id="edge30" class="edge">
<title>Node21&#45;&gt;Node22</title>
<path fill="none" stroke="#191970" d="M812.7781,-168.2455C797.9111,-159.5731 775.9534,-146.7645 758.9142,-136.825"/>
<polygon fill="#191970" stroke="#191970" points="760.4317,-133.6582 750.0303,-131.6427 756.9045,-139.7047 760.4317,-133.6582"/>
</g>
<!-- Node22&#45;&gt;Node6 -->
<g id="edge33" class="edge">
<title>Node22&#45;&gt;Node6</title>
<path fill="none" stroke="#191970" d="M752.138,-112.2455C768.9386,-103.4527 793.8634,-90.4079 812.9618,-80.4125"/>
<polygon fill="#191970" stroke="#191970" points="814.8386,-83.3807 822.0756,-75.6427 811.5927,-77.1787 814.8386,-83.3807"/>
</g>
<!-- Node22&#45;&gt;Node7 -->
<g id="edge31" class="edge">
<title>Node22&#45;&gt;Node7</title>
<path fill="none" stroke="#191970" d="M724.2067,-112.4509C705.7051,-93.4401 664.0537,-50.6423 640.8656,-26.816"/>
<polygon fill="#191970" stroke="#191970" points="643.2525,-24.2502 633.7698,-19.5249 638.236,-29.1324 643.2525,-24.2502"/>
</g>
<!-- Node22&#45;&gt;Node13 -->
<g id="edge32" class="edge">
<title>Node22&#45;&gt;Node13</title>
<path fill="none" stroke="#191970" d="M730.9422,-112.4509C726.0271,-94.1013 715.1761,-53.5908 708.6882,-29.3693"/>
<polygon fill="#191970" stroke="#191970" points="712.0196,-28.2788 706.0513,-19.5249 705.2579,-30.09 712.0196,-28.2788"/>
</g>
<!-- Node22&#45;&gt;Node17 -->
<g id="edge34" class="edge">
<title>Node22&#45;&gt;Node17</title>
<path fill="none" stroke="#191970" d="M670.1444,-112.4369C604.1006,-102.468 500.8719,-86.8863 432.4677,-76.5612"/>
<polygon fill="#191970" stroke="#191970" points="432.6286,-73.0459 422.2182,-75.0141 431.5838,-79.9675 432.6286,-73.0459"/>
</g>
<!-- Node23&#45;&gt;Node7 -->
<g id="edge38" class="edge">
<title>Node23&#45;&gt;Node7</title>
<path fill="none" stroke="#191970" d="M600.9157,-168.4862C604.8677,-141.9293 616.0826,-66.5651 621.4992,-30.1655"/>
<polygon fill="#191970" stroke="#191970" points="625.0274,-30.2342 623.0375,-19.8279 618.1037,-29.2038 625.0274,-30.2342"/>
</g>
<!-- Node23&#45;&gt;Node15 -->
<g id="edge40" class="edge">
<title>Node23&#45;&gt;Node15</title>
<path fill="none" stroke="#191970" d="M657.7325,-168.4369C730.0793,-156.5559 850.973,-136.7024 908.369,-127.2766"/>
<polygon fill="#191970" stroke="#191970" points="909.0206,-130.7166 918.3212,-125.6423 907.8861,-123.8091 909.0206,-130.7166"/>
</g>
<!-- Node23&#45;&gt;Node17 -->
<g id="edge36" class="edge">
<title>Node23&#45;&gt;Node17</title>
<path fill="none" stroke="#191970" d="M598.3594,-168.2784C596.1175,-153.7408 589.7469,-126.4991 572.5,-112 551.3979,-94.2599 484.7193,-81.6759 432.0926,-74.2048"/>
<polygon fill="#191970" stroke="#191970" points="432.4936,-70.7271 422.1084,-72.824 431.5346,-77.6611 432.4936,-70.7271"/>
</g>
<!-- Node23&#45;&gt;Node19 -->
<g id="edge42" class="edge">
<title>Node23&#45;&gt;Node19</title>
<path fill="none" stroke="#191970" d="M550.6598,-168.4369C494.3895,-157.4189 403.1029,-139.5446 351.7459,-129.4887"/>
<polygon fill="#191970" stroke="#191970" points="352.2107,-126.0133 341.7245,-127.5265 350.8655,-132.8829 352.2107,-126.0133"/>
</g>
<!-- Node23&#45;&gt;Node20 -->
<g id="edge39" class="edge">
<title>Node23&#45;&gt;Node20</title>
<path fill="none" stroke="#191970" d="M588.8746,-168.2455C579.9527,-160.0549 567.012,-148.1749 556.4808,-138.5069"/>
<polygon fill="#191970" stroke="#191970" points="558.7371,-135.8271 549.0036,-131.6427 554.0032,-140.9837 558.7371,-135.8271"/>
</g>
<!-- Node23&#45;&gt;Node22 -->
<g id="edge37" class="edge">
<title>Node23&#45;&gt;Node22</title>
<path fill="none" stroke="#191970" d="M622.5354,-168.3733C644.2388,-159.3032 676.9618,-145.6279 701.255,-135.4755"/>
<polygon fill="#191970" stroke="#191970" points="702.8881,-138.5865 710.7652,-131.5011 700.1889,-132.1278 702.8881,-138.5865"/>
</g>
<!-- Node24 -->
<g id="node25" class="node">
<title>Node24</title>
<polygon fill="none" stroke="#bfbfbf" points="397.5,-112.5 397.5,-131.5 457.5,-131.5 457.5,-112.5 397.5,-112.5"/>
<text text-anchor="middle" x="427.5" y="-119.5" font-family="FreeSans.ttf" font-size="10.00" fill="#000000">iostream</text>
</g>
<!-- Node23&#45;&gt;Node24 -->
<g id="edge41" class="edge">
<title>Node23&#45;&gt;Node24</title>
<path fill="none" stroke="#191970" d="M569.9321,-168.3733C541.3312,-159.0613 497.8212,-144.8953 466.4181,-134.671"/>
<polygon fill="#191970" stroke="#191970" points="467.2743,-131.269 456.682,-131.5011 465.1072,-137.9251 467.2743,-131.269"/>
</g>
<!-- Node25&#45;&gt;Node16 -->
<g id="edge44" class="edge">
<title>Node25&#45;&gt;Node16</title>
<path fill="none" stroke="#191970" d="M297.1737,-448.4059C297.0474,-408.0027 301.677,-295.6065 353.5,-224 363.0441,-210.8124 377.5942,-200.1683 390.6996,-192.4538"/>
<polygon fill="#191970" stroke="#191970" points="392.4204,-195.5016 399.4624,-187.5857 389.021,-189.3825 392.4204,-195.5016"/>
</g>
<!-- Node26 -->
<g id="node27" class="node">
<title>Node26</title>
<g id="a_node27"><a xlink:href="GeomVector3_8h.html" target="_top" xlink:title="iDynTree/Core/GeomVector3.h">
<polygon fill="none" stroke="#000000" points="362,-224.5 362,-243.5 525,-243.5 525,-224.5 362,-224.5"/>
<text text-anchor="middle" x="443.5" y="-231.5" font-family="FreeSans.ttf" font-size="10.00" fill="#000000">iDynTree/Core/GeomVector3.h</text>
</a>
</g>
</g>
<!-- Node25&#45;&gt;Node26 -->
<g id="edge45" class="edge">
<title>Node25&#45;&gt;Node26</title>
<path fill="none" stroke="#191970" d="M299.9171,-448.3415C302.7099,-433.4077 308.164,-410.2447 317.5,-392 346.8839,-334.5772 399.0493,-278.1417 426.119,-250.8922"/>
<polygon fill="#191970" stroke="#191970" points="428.7281,-253.2338 433.3556,-243.703 423.7946,-248.2678 428.7281,-253.2338"/>
</g>
<!-- Node27 -->
<g id="node28" class="node">
<title>Node27</title>
<g id="a_node28"><a xlink:href="SpatialVector_8h.html" target="_top" xlink:title="iDynTree/Core/SpatialVector.h">
<polygon fill="none" stroke="#000000" points="326,-392.5 326,-411.5 487,-411.5 487,-392.5 326,-392.5"/>
<text text-anchor="middle" x="406.5" y="-399.5" font-family="FreeSans.ttf" font-size="10.00" fill="#000000">iDynTree/Core/SpatialVector.h</text>
</a>
</g>
</g>
<!-- Node25&#45;&gt;Node27 -->
<g id="edge47" class="edge">
<title>Node25&#45;&gt;Node27</title>
<path fill="none" stroke="#191970" d="M324.1644,-448.4554C341.3941,-438.734 363.6975,-426.15 380.7446,-416.5317"/>
<polygon fill="#191970" stroke="#191970" points="382.6194,-419.4926 389.6089,-411.5303 379.1796,-413.3961 382.6194,-419.4926"/>
</g>
<!-- Node26&#45;&gt;Node16 -->
<g id="edge46" class="edge">
<title>Node26&#45;&gt;Node16</title>
<path fill="none" stroke="#191970" d="M439.4937,-224.2455C436.4265,-216.7776 432.0997,-206.2427 428.3503,-197.1137"/>
<polygon fill="#191970" stroke="#191970" points="431.4972,-195.5631 424.4604,-187.6427 425.0221,-198.2226 431.4972,-195.5631"/>
</g>
<!-- Node27&#45;&gt;Node17 -->
<g id="edge61" class="edge">
<title>Node27&#45;&gt;Node17</title>
<path fill="none" stroke="#191970" d="M392.2512,-392.3515C380.4724,-383.8364 363.8908,-370.5432 352.5,-356 287.6753,-273.2352 291.0816,-236.1135 276.5,-132 275.2671,-123.197 271.9313,-119.6249 276.5,-112 285.5087,-96.9649 301.2934,-86.5677 316.9013,-79.5159"/>
<polygon fill="#191970" stroke="#191970" points="318.6223,-82.5923 326.5343,-75.546 315.9551,-76.1203 318.6223,-82.5923"/>
</g>
<!-- Node27&#45;&gt;Node19 -->
<g id="edge64" class="edge">
<title>Node27&#45;&gt;Node19</title>
<path fill="none" stroke="#191970" d="M360.5919,-392.428C335.336,-385.4614 304.5441,-374.0182 281.5,-356 257.8052,-337.473 252.3341,-328.7515 243.5,-300 225.0465,-239.9407 272.1105,-171.4245 297.9241,-139.7614"/>
<polygon fill="#191970" stroke="#191970" points="300.8202,-141.7551 304.5692,-131.8457 295.4589,-137.2543 300.8202,-141.7551"/>
</g>
<!-- Node27&#45;&gt;Node24 -->
<g id="edge63" class="edge">
<title>Node27&#45;&gt;Node24</title>
<path fill="none" stroke="#191970" d="M397.9827,-392.3577C369.5493,-358.9551 282.3985,-245.9751 331.5,-168 343.7714,-148.5125 366.8418,-137.0975 387.2908,-130.5135"/>
<polygon fill="#191970" stroke="#191970" points="388.4453,-133.8225 397.06,-127.6552 386.4796,-127.1042 388.4453,-133.8225"/>
</g>
<!-- Node27&#45;&gt;Node26 -->
<g id="edge62" class="edge">
<title>Node27&#45;&gt;Node26</title>
<path fill="none" stroke="#191970" d="M408.5953,-392.4862C414.4695,-365.8144 431.1861,-289.9117 439.1624,-253.695"/>
<polygon fill="#191970" stroke="#191970" points="442.6027,-254.3467 441.3355,-243.8279 435.7665,-252.841 442.6027,-254.3467"/>
</g>
<!-- Node28 -->
<g id="node29" class="node">
<title>Node28</title>
<g id="a_node29"><a xlink:href="Position_8h.html" target="_top" xlink:title="Position.h">
<polygon fill="none" stroke="#000000" points="768,-336.5 768,-355.5 833,-355.5 833,-336.5 768,-336.5"/>
<text text-anchor="middle" x="800.5" y="-343.5" font-family="FreeSans.ttf" font-size="10.00" fill="#000000">Position.h</text>
</a>
</g>
</g>
<!-- Node27&#45;&gt;Node28 -->
<g id="edge48" class="edge">
<title>Node27&#45;&gt;Node28</title>
<path fill="none" stroke="#191970" d="M473.7833,-392.4369C555.1059,-380.8783 689.5174,-361.7742 757.8159,-352.0668"/>
<polygon fill="#191970" stroke="#191970" points="758.3874,-355.5208 767.7954,-350.6484 757.4023,-348.5905 758.3874,-355.5208"/>
</g>
<!-- Node30 -->
<g id="node31" class="node">
<title>Node30</title>
<g id="a_node31"><a xlink:href="Rotation_8h.html" target="_top" xlink:title="iDynTree/Core/Rotation.h">
<polygon fill="none" stroke="#000000" points="677,-280.5 677,-299.5 814,-299.5 814,-280.5 677,-280.5"/>
<text text-anchor="middle" x="745.5" y="-287.5" font-family="FreeSans.ttf" font-size="10.00" fill="#000000">iDynTree/Core/Rotation.h</text>
</a>
</g>
</g>
<!-- Node27&#45;&gt;Node30 -->
<g id="edge60" class="edge">
<title>Node27&#45;&gt;Node30</title>
<path fill="none" stroke="#191970" d="M435.4029,-392.4509C496.4474,-372.2829 638.5211,-325.3441 707.1032,-302.6857"/>
<polygon fill="#191970" stroke="#191970" points="708.273,-305.9853 716.6702,-299.5249 706.077,-299.3387 708.273,-305.9853"/>
</g>
<!-- Node28&#45;&gt;Node15 -->
<g id="edge59" class="edge">
<title>Node28&#45;&gt;Node15</title>
<path fill="none" stroke="#191970" d="M833.1594,-338.7276C899.4663,-323.2311 1046.0087,-285.0077 1074.5,-244 1107.9905,-195.797 1021.5018,-153.0577 972.1194,-133.4189"/>
<polygon fill="#191970" stroke="#191970" points="973.3734,-130.1513 962.7842,-129.8043 970.8458,-136.679 973.3734,-130.1513"/>
</g>
<!-- Node29 -->
<g id="node30" class="node">
<title>Node29</title>
<g id="a_node30"><a xlink:href="PositionRaw_8h.html" target="_top" xlink:title="iDynTree/Core/PositionRaw.h">
<polygon fill="none" stroke="#000000" points="733.5,-224.5 733.5,-243.5 889.5,-243.5 889.5,-224.5 733.5,-224.5"/>
<text text-anchor="middle" x="811.5" y="-231.5" font-family="FreeSans.ttf" font-size="10.00" fill="#000000">iDynTree/Core/PositionRaw.h</text>
</a>
</g>
</g>
<!-- Node28&#45;&gt;Node29 -->
<g id="edge49" class="edge">
<title>Node28&#45;&gt;Node29</title>
<path fill="none" stroke="#191970" d="M807.0397,-336.2849C812.6594,-327.3105 820.3408,-313.3824 823.5,-300 827.1737,-284.4379 823.4553,-266.5843 819.217,-253.3734"/>
<polygon fill="#191970" stroke="#191970" points="822.4959,-252.1477 815.8379,-243.9062 815.9033,-254.5009 822.4959,-252.1477"/>
</g>
<!-- Node28&#45;&gt;Node30 -->
<g id="edge52" class="edge">
<title>Node28&#45;&gt;Node30</title>
<path fill="none" stroke="#191970" d="M790.9197,-336.2455C782.9542,-328.1352 771.4359,-316.4075 761.9921,-306.7919"/>
<polygon fill="#191970" stroke="#191970" points="764.4747,-304.3247 754.9705,-299.6427 759.4805,-309.2297 764.4747,-304.3247"/>
</g>
<!-- Node29&#45;&gt;Node15 -->
<g id="edge51" class="edge">
<title>Node29&#45;&gt;Node15</title>
<path fill="none" stroke="#191970" d="M859.0273,-224.4984C881.1654,-217.783 906.1618,-206.5499 922.5,-188 933.6495,-175.3412 937.9679,-156.4131 939.6032,-142.0689"/>
<polygon fill="#191970" stroke="#191970" points="943.1195,-141.9999 940.4187,-131.7551 936.1413,-141.4481 943.1195,-141.9999"/>
</g>
<!-- Node29&#45;&gt;Node16 -->
<g id="edge50" class="edge">
<title>Node29&#45;&gt;Node16</title>
<path fill="none" stroke="#191970" d="M744.729,-224.4369C675.9848,-214.5912 569.0134,-199.2705 496.928,-188.9462"/>
<polygon fill="#191970" stroke="#191970" points="497.3909,-185.4769 486.9956,-187.5237 496.3984,-192.4062 497.3909,-185.4769"/>
</g>
<!-- Node30&#45;&gt;Node15 -->
<g id="edge53" class="edge">
<title>Node30&#45;&gt;Node15</title>
<path fill="none" stroke="#191970" d="M739.5235,-280.2032C734.3888,-271.1737 727.3729,-257.2108 724.5,-244 717.218,-210.5143 713.2049,-192.1675 737.5,-168 761.2389,-144.3858 856.9869,-130.8548 908.0494,-125.1831"/>
<polygon fill="#191970" stroke="#191970" points="908.6557,-128.6382 918.2253,-124.0913 907.9089,-121.6782 908.6557,-128.6382"/>
</g>
<!-- Node30&#45;&gt;Node16 -->
<g id="edge58" class="edge">
<title>Node30&#45;&gt;Node16</title>
<path fill="none" stroke="#191970" d="M720.8805,-280.4111C686.6633,-267.1897 622.7048,-242.8579 567.5,-224 532.4134,-212.0144 492.212,-199.5181 462.7287,-190.5802"/>
<polygon fill="#191970" stroke="#191970" points="463.3579,-187.1142 452.7731,-187.5739 461.3343,-193.8153 463.3579,-187.1142"/>
</g>
<!-- Node30&#45;&gt;Node26 -->
<g id="edge54" class="edge">
<title>Node30&#45;&gt;Node26</title>
<path fill="none" stroke="#191970" d="M693.9275,-280.4369C641.591,-270.7321 560.568,-255.708 504.9388,-245.3926"/>
<polygon fill="#191970" stroke="#191970" points="505.3303,-241.9056 494.8598,-243.5237 504.054,-248.7883 505.3303,-241.9056"/>
</g>
<!-- Node31 -->
<g id="node32" class="node">
<title>Node31</title>
<g id="a_node32"><a xlink:href="RotationRaw_8h.html" target="_top" xlink:title="iDynTree/Core/RotationRaw.h">
<polygon fill="none" stroke="#000000" points="907.5,-224.5 907.5,-243.5 1065.5,-243.5 1065.5,-224.5 907.5,-224.5"/>
<text text-anchor="middle" x="986.5" y="-231.5" font-family="FreeSans.ttf" font-size="10.00" fill="#000000">iDynTree/Core/RotationRaw.h</text>
</a>
</g>
</g>
<!-- Node30&#45;&gt;Node31 -->
<g id="edge55" class="edge">
<title>Node30&#45;&gt;Node31</title>
<path fill="none" stroke="#191970" d="M786.6555,-280.4369C827.8142,-270.8731 891.205,-256.1432 935.5242,-245.845"/>
<polygon fill="#191970" stroke="#191970" points="936.5659,-249.1963 945.5142,-243.5237 934.9815,-242.3779 936.5659,-249.1963"/>
</g>
<!-- Node31&#45;&gt;Node15 -->
<g id="edge57" class="edge">
<title>Node31&#45;&gt;Node15</title>
<path fill="none" stroke="#191970" d="M982.5781,-224.4509C975.0077,-206.0186 958.2533,-165.2254 948.3212,-141.043"/>
<polygon fill="#191970" stroke="#191970" points="951.4488,-139.4454 944.412,-131.5249 944.9737,-142.1048 951.4488,-139.4454"/>
</g>
<!-- Node31&#45;&gt;Node23 -->
<g id="edge56" class="edge">
<title>Node31&#45;&gt;Node23</title>
<path fill="none" stroke="#191970" d="M920.4121,-224.4369C852.5103,-214.6113 746.9269,-199.3331 675.5843,-189.0096"/>
<polygon fill="#191970" stroke="#191970" points="675.7136,-185.4919 665.3154,-187.5237 674.711,-192.4198 675.7136,-185.4919"/>
</g>
<!-- Node32&#45;&gt;Node16 -->
<g id="edge66" class="edge">
<title>Node32&#45;&gt;Node16</title>
<path fill="none" stroke="#191970" d="M496.274,-448.3739C518.4525,-427.7082 553.5,-388.3512 553.5,-346 553.5,-346 553.5,-346 553.5,-290 553.5,-259.4754 554.9419,-246.669 534.5,-224 520.1293,-208.0637 499.4613,-197.5496 479.6596,-190.657"/>
<polygon fill="#191970" stroke="#191970" points="480.6312,-187.2929 470.0397,-187.5563 478.4837,-193.9554 480.6312,-187.2929"/>
</g>
<!-- Node32&#45;&gt;Node26 -->
<g id="edge67" class="edge">
<title>Node32&#45;&gt;Node26</title>
<path fill="none" stroke="#191970" d="M486.0668,-448.3149C492.3295,-433.9475 499.7173,-411.7079 496.5,-392 488.0305,-340.1197 464.8869,-282.2958 452.1642,-253.0968"/>
<polygon fill="#191970" stroke="#191970" points="455.2493,-251.42 447.9948,-243.6984 448.8507,-254.2586 455.2493,-251.42"/>
</g>
<!-- Node32&#45;&gt;Node27 -->
<g id="edge68" class="edge">
<title>Node32&#45;&gt;Node27</title>
<path fill="none" stroke="#191970" d="M460.7022,-448.2977C450.0833,-439.2274 436.5969,-427.7077 425.7333,-418.4285"/>
<polygon fill="#191970" stroke="#191970" points="427.9051,-415.6805 418.0281,-411.8469 423.3587,-421.0031 427.9051,-415.6805"/>
</g>
<!-- Node33&#45;&gt;Node15 -->
<g id="edge73" class="edge">
<title>Node33&#45;&gt;Node15</title>
<path fill="none" stroke="#191970" d="M812.9311,-397.9462C935.7442,-389.1359 1169.5,-362.8042 1169.5,-290 1169.5,-290 1169.5,-290 1169.5,-234 1169.5,-190.7142 1035.7976,-148.1864 972.7176,-130.5308"/>
<polygon fill="#191970" stroke="#191970" points="973.445,-127.1009 962.8744,-127.8176 971.5848,-133.8492 973.445,-127.1009"/>
</g>
<!-- Node33&#45;&gt;Node23 -->
<g id="edge72" class="edge">
<title>Node33&#45;&gt;Node23</title>
<path fill="none" stroke="#191970" d="M732.3358,-392.3588C719.1636,-374.4938 690.4393,-334.8848 668.5,-300 646.0562,-264.3132 622.3884,-221.0529 609.4325,-196.8145"/>
<polygon fill="#191970" stroke="#191970" points="612.3551,-194.8558 604.5707,-187.6688 606.1742,-198.1416 612.3551,-194.8558"/>
</g>
<!-- Node33&#45;&gt;Node28 -->
<g id="edge70" class="edge">
<title>Node33&#45;&gt;Node28</title>
<path fill="none" stroke="#191970" d="M750.1254,-392.2455C759.0473,-384.0549 771.988,-372.1749 782.5192,-362.5069"/>
<polygon fill="#191970" stroke="#191970" points="784.9968,-364.9837 789.9964,-355.6427 780.2629,-359.8271 784.9968,-364.9837"/>
</g>
<!-- Node33&#45;&gt;Node30 -->
<g id="edge71" class="edge">
<title>Node33&#45;&gt;Node30</title>
<path fill="none" stroke="#191970" d="M740.0116,-392.4509C740.9901,-374.184 743.1453,-333.9553 744.4448,-309.6976"/>
<polygon fill="#191970" stroke="#191970" points="747.9497,-309.6978 744.9897,-299.5249 740.9597,-309.3233 747.9497,-309.6978"/>
</g>
</g>
</svg>
