<?xml version="1.0" encoding="UTF-8" standalone="no"?>
<!DOCTYPE svg PUBLIC "-//W3C//DTD SVG 1.1//EN"
 "http://www.w3.org/Graphics/SVG/1.1/DTD/svg11.dtd">
<!-- Generated by graphviz version 2.40.1 (20161225.0304)
 -->
<!-- Title: RK4.cpp Pages: 1 -->
<svg width="1768pt" height="621pt"
 viewBox="0.00 0.00 1767.77 621.00" xmlns="http://www.w3.org/2000/svg" xmlns:xlink="http://www.w3.org/1999/xlink">
<g id="graph0" class="graph" transform="scale(1 1) rotate(0) translate(4 617)">
<title>RK4.cpp</title>
<!-- Node0 -->
<g id="node1" class="node">
<title>Node0</title>
<polygon fill="#bfbfbf" stroke="#000000" points="373.7698,-593.5 373.7698,-612.5 429.7698,-612.5 429.7698,-593.5 373.7698,-593.5"/>
<text text-anchor="middle" x="401.7698" y="-600.5" font-family="FreeSans.ttf" font-size="10.00" fill="#000000">RK4.cpp</text>
</g>
<!-- Node1 -->
<g id="node2" class="node">
<title>Node1</title>
<g id="a_node2"><a xlink:href="RK4_8h.html" target="_top" xlink:title="iDynTree/Integrators\l/RK4.h">
<polygon fill="none" stroke="#000000" points="120.7698,-347.5 120.7698,-377.5 236.7698,-377.5 236.7698,-347.5 120.7698,-347.5"/>
<text text-anchor="start" x="128.7698" y="-365.5" font-family="FreeSans.ttf" font-size="10.00" fill="#000000">iDynTree/Integrators</text>
<text text-anchor="middle" x="178.7698" y="-354.5" font-family="FreeSans.ttf" font-size="10.00" fill="#000000">/RK4.h</text>
</a>
</g>
</g>
<!-- Node0&#45;&gt;Node1 -->
<g id="edge1" class="edge">
<title>Node0&#45;&gt;Node1</title>
<path fill="none" stroke="#191970" d="M392.7517,-593.2742C360.0343,-557.9894 247.0337,-436.1209 199.79,-385.1698"/>
<polygon fill="#191970" stroke="#191970" points="202.1604,-382.5786 192.7946,-377.6255 197.0274,-387.3381 202.1604,-382.5786"/>
</g>
<!-- Node27 -->
<g id="node28" class="node">
<title>Node27</title>
<g id="a_node28"><a xlink:href="DynamicalSystem_8h.html" target="_top" xlink:title="iDynTree/DynamicalSystem.h">
<polygon fill="none" stroke="#000000" points="318.2698,-224.5 318.2698,-243.5 479.2698,-243.5 479.2698,-224.5 318.2698,-224.5"/>
<text text-anchor="middle" x="398.7698" y="-231.5" font-family="FreeSans.ttf" font-size="10.00" fill="#000000">iDynTree/DynamicalSystem.h</text>
</a>
</g>
</g>
<!-- Node0&#45;&gt;Node27 -->
<g id="edge39" class="edge">
<title>Node0&#45;&gt;Node27</title>
<path fill="none" stroke="#191970" d="M401.7698,-593.2511C401.7698,-573.1182 401.7698,-525.4826 401.7698,-485.5 401.7698,-485.5 401.7698,-485.5 401.7698,-362.5 401.7698,-323.9908 400.4065,-279.0076 399.518,-253.7779"/>
<polygon fill="#191970" stroke="#191970" points="403.0116,-253.536 399.1497,-243.6701 396.0162,-253.7909 403.0116,-253.536"/>
</g>
<!-- Node28 -->
<g id="node29" class="node">
<title>Node28</title>
<g id="a_node29"><a xlink:href="EigenHelpers_8h.html" target="_top" xlink:title="iDynTree/Core/EigenHelpers.h">
<polygon fill="none" stroke="#000000" points="1155.2698,-537.5 1155.2698,-556.5 1316.2698,-556.5 1316.2698,-537.5 1155.2698,-537.5"/>
<text text-anchor="middle" x="1235.7698" y="-544.5" font-family="FreeSans.ttf" font-size="10.00" fill="#000000">iDynTree/Core/EigenHelpers.h</text>
</a>
</g>
</g>
<!-- Node0&#45;&gt;Node28 -->
<g id="edge42" class="edge">
<title>Node0&#45;&gt;Node28</title>
<path fill="none" stroke="#191970" d="M429.9963,-601.1047C542.1048,-593.577 958.8346,-565.5952 1144.965,-553.0972"/>
<polygon fill="#191970" stroke="#191970" points="1145.2581,-556.5855 1155.0012,-552.4233 1144.7891,-549.6012 1145.2581,-556.5855"/>
</g>
<!-- Node2 -->
<g id="node3" class="node">
<title>Node2</title>
<g id="a_node3"><a xlink:href="FixedStepIntegrator_8h.html" target="_top" xlink:title="iDynTree/Integrators\l/FixedStepIntegrator.h">
<polygon fill="none" stroke="#000000" points="117.2698,-280.5 117.2698,-310.5 240.2698,-310.5 240.2698,-280.5 117.2698,-280.5"/>
<text text-anchor="start" x="125.2698" y="-298.5" font-family="FreeSans.ttf" font-size="10.00" fill="#000000">iDynTree/Integrators</text>
<text text-anchor="middle" x="178.7698" y="-287.5" font-family="FreeSans.ttf" font-size="10.00" fill="#000000">/FixedStepIntegrator.h</text>
</a>
</g>
</g>
<!-- Node1&#45;&gt;Node2 -->
<g id="edge2" class="edge">
<title>Node1&#45;&gt;Node2</title>
<path fill="none" stroke="#191970" d="M178.7698,-347.2967C178.7698,-339.5013 178.7698,-329.7991 178.7698,-320.9064"/>
<polygon fill="#191970" stroke="#191970" points="182.2699,-320.6431 178.7698,-310.6432 175.2699,-320.6432 182.2699,-320.6431"/>
</g>
<!-- Node4 -->
<g id="node5" class="node">
<title>Node4</title>
<g id="a_node5"><a xlink:href="VectorDynSize_8h.html" target="_top" xlink:title="iDynTree/Core/VectorDynSize.h">
<polygon fill="none" stroke="#000000" points="95.2698,-168.5 95.2698,-187.5 262.2698,-187.5 262.2698,-168.5 95.2698,-168.5"/>
<text text-anchor="middle" x="178.7698" y="-175.5" font-family="FreeSans.ttf" font-size="10.00" fill="#000000">iDynTree/Core/VectorDynSize.h</text>
</a>
</g>
</g>
<!-- Node1&#45;&gt;Node4 -->
<g id="edge38" class="edge">
<title>Node1&#45;&gt;Node4</title>
<path fill="none" stroke="#191970" d="M120.6854,-352.3846C77.286,-343.5052 23.2335,-329.1778 9.7698,-311 -31.0467,-255.8922 73.7029,-211.3968 136.1494,-190.6535"/>
<polygon fill="#191970" stroke="#191970" points="137.3472,-193.9445 145.7797,-187.5302 135.1877,-187.286 137.3472,-193.9445"/>
</g>
<!-- Node25 -->
<g id="node26" class="node">
<title>Node25</title>
<polygon fill="none" stroke="#bfbfbf" points="18.7698,-286 18.7698,-305 98.7698,-305 98.7698,-286 18.7698,-286"/>
<text text-anchor="middle" x="58.7698" y="-293" font-family="FreeSans.ttf" font-size="10.00" fill="#000000">Eigen/Sparse</text>
</g>
<!-- Node1&#45;&gt;Node25 -->
<g id="edge36" class="edge">
<title>Node1&#45;&gt;Node25</title>
<path fill="none" stroke="#191970" d="M151.8394,-347.4639C131.7957,-336.2728 104.5915,-321.0838 84.7732,-310.0186"/>
<polygon fill="#191970" stroke="#191970" points="86.4083,-306.923 75.9708,-305.1039 82.9958,-313.0349 86.4083,-306.923"/>
</g>
<!-- Node26 -->
<g id="node27" class="node">
<title>Node26</title>
<polygon fill="none" stroke="#bfbfbf" points="258.2698,-286 258.2698,-305 335.2698,-305 335.2698,-286 258.2698,-286"/>
<text text-anchor="middle" x="296.7698" y="-293" font-family="FreeSans.ttf" font-size="10.00" fill="#000000">Eigen/Dense</text>
</g>
<!-- Node1&#45;&gt;Node26 -->
<g id="edge37" class="edge">
<title>Node1&#45;&gt;Node26</title>
<path fill="none" stroke="#191970" d="M205.2513,-347.4639C224.8718,-336.3234 251.4698,-321.2212 270.9347,-310.1691"/>
<polygon fill="#191970" stroke="#191970" points="272.8875,-313.0851 279.8554,-305.1039 269.4312,-306.9979 272.8875,-313.0851"/>
</g>
<!-- Node3 -->
<g id="node4" class="node">
<title>Node3</title>
<g id="a_node4"><a xlink:href="Integrator_8h.html" target="_top" xlink:title="iDynTree/Integrator.h">
<polygon fill="none" stroke="#000000" points="497.2698,-224.5 497.2698,-243.5 616.2698,-243.5 616.2698,-224.5 497.2698,-224.5"/>
<text text-anchor="middle" x="556.7698" y="-231.5" font-family="FreeSans.ttf" font-size="10.00" fill="#000000">iDynTree/Integrator.h</text>
</a>
</g>
</g>
<!-- Node2&#45;&gt;Node3 -->
<g id="edge3" class="edge">
<title>Node2&#45;&gt;Node3</title>
<path fill="none" stroke="#191970" d="M240.2931,-281.8078C243.4942,-281.1772 246.6676,-280.5704 249.7698,-280 261.3373,-277.8731 399.9127,-257.2527 486.8817,-244.3524"/>
<polygon fill="#191970" stroke="#191970" points="487.5799,-247.7872 496.9582,-242.858 486.553,-240.863 487.5799,-247.7872"/>
</g>
<!-- Node2&#45;&gt;Node4 -->
<g id="edge35" class="edge">
<title>Node2&#45;&gt;Node4</title>
<path fill="none" stroke="#191970" d="M178.7698,-280.1389C178.7698,-258.9692 178.7698,-220.8174 178.7698,-197.6112"/>
<polygon fill="#191970" stroke="#191970" points="182.2699,-197.5594 178.7698,-187.5595 175.2699,-197.5595 182.2699,-197.5594"/>
</g>
<!-- Node3&#45;&gt;Node4 -->
<g id="edge4" class="edge">
<title>Node3&#45;&gt;Node4</title>
<path fill="none" stroke="#191970" d="M496.8745,-225.1266C430.9009,-215.3528 324.7244,-199.6229 253.3903,-189.0549"/>
<polygon fill="#191970" stroke="#191970" points="253.5323,-185.5378 243.1273,-187.5345 252.5064,-192.4622 253.5323,-185.5378"/>
</g>
<!-- Node15 -->
<g id="node16" class="node">
<title>Node15</title>
<polygon fill="none" stroke="#bfbfbf" points="839.7698,-112.5 839.7698,-131.5 883.7698,-131.5 883.7698,-112.5 839.7698,-112.5"/>
<text text-anchor="middle" x="861.7698" y="-119.5" font-family="FreeSans.ttf" font-size="10.00" fill="#000000">string</text>
</g>
<!-- Node3&#45;&gt;Node15 -->
<g id="edge32" class="edge">
<title>Node3&#45;&gt;Node15</title>
<path fill="none" stroke="#191970" d="M567.7113,-224.2688C584.6782,-209.7187 618.9188,-182.4609 652.7698,-168 724.9917,-137.1473 749.4486,-150.5199 825.7698,-132 827.0463,-131.6902 828.3461,-131.3669 829.6575,-131.0341"/>
<polygon fill="#191970" stroke="#191970" points="830.973,-134.3066 839.745,-128.365 829.1824,-127.5395 830.973,-134.3066"/>
</g>
<!-- Node16 -->
<g id="node17" class="node">
<title>Node16</title>
<g id="a_node17"><a xlink:href="MatrixDynSize_8h.html" target="_top" xlink:title="iDynTree/Core/MatrixDynSize.h">
<polygon fill="none" stroke="#000000" points="661.2698,-168.5 661.2698,-187.5 828.2698,-187.5 828.2698,-168.5 661.2698,-168.5"/>
<text text-anchor="middle" x="744.7698" y="-175.5" font-family="FreeSans.ttf" font-size="10.00" fill="#000000">iDynTree/Core/MatrixDynSize.h</text>
</a>
</g>
</g>
<!-- Node3&#45;&gt;Node16 -->
<g id="edge16" class="edge">
<title>Node3&#45;&gt;Node16</title>
<path fill="none" stroke="#191970" d="M589.0881,-224.3733C620.6203,-214.9807 668.7318,-200.6496 703.1199,-190.4064"/>
<polygon fill="#191970" stroke="#191970" points="704.2885,-193.7103 712.8731,-187.5011 702.2901,-187.0016 704.2885,-193.7103"/>
</g>
<!-- Node20 -->
<g id="node21" class="node">
<title>Node20</title>
<g id="a_node21"><a xlink:href="SparsityStructure_8h.html" target="_top" xlink:title="iDynTree/SparsityStructure.h">
<polygon fill="none" stroke="#000000" points="318.2698,-168.5 318.2698,-187.5 473.2698,-187.5 473.2698,-168.5 318.2698,-168.5"/>
<text text-anchor="middle" x="395.7698" y="-175.5" font-family="FreeSans.ttf" font-size="10.00" fill="#000000">iDynTree/SparsityStructure.h</text>
</a>
</g>
</g>
<!-- Node3&#45;&gt;Node20 -->
<g id="edge25" class="edge">
<title>Node3&#45;&gt;Node20</title>
<path fill="none" stroke="#191970" d="M529.0929,-224.3733C502.4369,-215.1016 461.946,-201.0178 432.5813,-190.804"/>
<polygon fill="#191970" stroke="#191970" points="433.6803,-187.4807 423.0855,-187.5011 431.3806,-194.0921 433.6803,-187.4807"/>
</g>
<!-- Node21 -->
<g id="node22" class="node">
<title>Node21</title>
<polygon fill="none" stroke="#bfbfbf" points="277.2698,-112.5 277.2698,-131.5 324.2698,-131.5 324.2698,-112.5 277.2698,-112.5"/>
<text text-anchor="middle" x="300.7698" y="-119.5" font-family="FreeSans.ttf" font-size="10.00" fill="#000000">vector</text>
</g>
<!-- Node3&#45;&gt;Node21 -->
<g id="edge31" class="edge">
<title>Node3&#45;&gt;Node21</title>
<path fill="none" stroke="#191970" d="M497.1488,-224.6845C426.1505,-213.3287 316.2568,-194.8102 309.7698,-188 298.2018,-175.8558 296.8524,-156.2887 297.8562,-141.607"/>
<polygon fill="#191970" stroke="#191970" points="301.3497,-141.8559 298.9521,-131.5359 294.3907,-141.0985 301.3497,-141.8559"/>
</g>
<!-- Node23 -->
<g id="node24" class="node">
<title>Node23</title>
<polygon fill="none" stroke="#bfbfbf" points="491.7698,-168.5 491.7698,-187.5 549.7698,-187.5 549.7698,-168.5 491.7698,-168.5"/>
<text text-anchor="middle" x="520.7698" y="-175.5" font-family="FreeSans.ttf" font-size="10.00" fill="#000000">memory</text>
</g>
<!-- Node3&#45;&gt;Node23 -->
<g id="edge33" class="edge">
<title>Node3&#45;&gt;Node23</title>
<path fill="none" stroke="#191970" d="M550.499,-224.2455C545.5434,-216.5367 538.4868,-205.5598 532.4921,-196.2348"/>
<polygon fill="#191970" stroke="#191970" points="535.3204,-194.1618 526.9686,-187.6427 529.4321,-197.9471 535.3204,-194.1618"/>
</g>
<!-- Node24 -->
<g id="node25" class="node">
<title>Node24</title>
<polygon fill="none" stroke="#bfbfbf" points="567.7698,-168.5 567.7698,-187.5 605.7698,-187.5 605.7698,-168.5 567.7698,-168.5"/>
<text text-anchor="middle" x="586.7698" y="-175.5" font-family="FreeSans.ttf" font-size="10.00" fill="#000000">map</text>
</g>
<!-- Node3&#45;&gt;Node24 -->
<g id="edge34" class="edge">
<title>Node3&#45;&gt;Node24</title>
<path fill="none" stroke="#191970" d="M561.9954,-224.2455C566.0821,-216.617 571.8833,-205.7881 576.8447,-196.5267"/>
<polygon fill="#191970" stroke="#191970" points="579.967,-198.1103 581.604,-187.6427 573.7966,-194.8047 579.967,-198.1103"/>
</g>
<!-- Node5 -->
<g id="node6" class="node">
<title>Node5</title>
<g id="a_node6"><a xlink:href="Span_8h.html" target="_top" xlink:title="iDynTree/Core/Span.h">
<polygon fill="none" stroke="#000000" points="856.2698,-56.5 856.2698,-75.5 977.2698,-75.5 977.2698,-56.5 856.2698,-56.5"/>
<text text-anchor="middle" x="916.7698" y="-63.5" font-family="FreeSans.ttf" font-size="10.00" fill="#000000">iDynTree/Core/Span.h</text>
</a>
</g>
</g>
<!-- Node4&#45;&gt;Node5 -->
<g id="edge5" class="edge">
<title>Node4&#45;&gt;Node5</title>
<path fill="none" stroke="#191970" d="M188.1805,-168.19C203.4496,-153.0063 235.3014,-124.2856 268.7698,-112 321.8327,-92.5217 689.1709,-75.341 846.0264,-68.8044"/>
<polygon fill="#191970" stroke="#191970" points="846.2017,-72.3003 856.0482,-68.3893 845.9119,-65.3063 846.2017,-72.3003"/>
</g>
<!-- Node4&#45;&gt;Node15 -->
<g id="edge15" class="edge">
<title>Node4&#45;&gt;Node15</title>
<path fill="none" stroke="#191970" d="M262.519,-171.1333C414.2577,-158.6921 728.3115,-132.9424 829.5571,-124.6412"/>
<polygon fill="#191970" stroke="#191970" points="830.0782,-128.1103 839.7587,-123.8047 829.5061,-121.1337 830.0782,-128.1103"/>
</g>
<!-- Node6 -->
<g id="node7" class="node">
<title>Node6</title>
<polygon fill="none" stroke="#bfbfbf" points="1128.7698,-.5 1128.7698,-19.5 1180.7698,-19.5 1180.7698,-.5 1128.7698,-.5"/>
<text text-anchor="middle" x="1154.7698" y="-7.5" font-family="FreeSans.ttf" font-size="10.00" fill="#000000">cassert</text>
</g>
<!-- Node5&#45;&gt;Node6 -->
<g id="edge6" class="edge">
<title>Node5&#45;&gt;Node6</title>
<path fill="none" stroke="#191970" d="M957.413,-56.4369C1002.7673,-45.7653 1075.4576,-28.6617 1118.8155,-18.4598"/>
<polygon fill="#191970" stroke="#191970" points="1119.7161,-21.8436 1128.6486,-16.1461 1118.1128,-15.0297 1119.7161,-21.8436"/>
</g>
<!-- Node7 -->
<g id="node8" class="node">
<title>Node7</title>
<polygon fill="none" stroke="#bfbfbf" points="887.7698,-.5 887.7698,-19.5 951.7698,-19.5 951.7698,-.5 887.7698,-.5"/>
<text text-anchor="middle" x="919.7698" y="-7.5" font-family="FreeSans.ttf" font-size="10.00" fill="#000000">algorithm</text>
</g>
<!-- Node5&#45;&gt;Node7 -->
<g id="edge7" class="edge">
<title>Node5&#45;&gt;Node7</title>
<path fill="none" stroke="#191970" d="M917.2923,-56.2455C917.6838,-48.9382 918.2326,-38.6944 918.7142,-29.7046"/>
<polygon fill="#191970" stroke="#191970" points="922.2131,-29.8156 919.2532,-19.6427 915.2232,-29.4411 922.2131,-29.8156"/>
</g>
<!-- Node8 -->
<g id="node9" class="node">
<title>Node8</title>
<polygon fill="none" stroke="#bfbfbf" points="969.7698,-.5 969.7698,-19.5 1011.7698,-19.5 1011.7698,-.5 969.7698,-.5"/>
<text text-anchor="middle" x="990.7698" y="-7.5" font-family="FreeSans.ttf" font-size="10.00" fill="#000000">array</text>
</g>
<!-- Node5&#45;&gt;Node8 -->
<g id="edge8" class="edge">
<title>Node5&#45;&gt;Node8</title>
<path fill="none" stroke="#191970" d="M929.6596,-56.2455C940.6951,-47.8943 956.799,-35.7076 969.7051,-25.9408"/>
<polygon fill="#191970" stroke="#191970" points="972.1656,-28.4681 978.0277,-19.6427 967.9415,-22.8862 972.1656,-28.4681"/>
</g>
<!-- Node9 -->
<g id="node10" class="node">
<title>Node9</title>
<polygon fill="none" stroke="#bfbfbf" points="1387.2698,-.5 1387.2698,-19.5 1440.2698,-19.5 1440.2698,-.5 1387.2698,-.5"/>
<text text-anchor="middle" x="1413.7698" y="-7.5" font-family="FreeSans.ttf" font-size="10.00" fill="#000000">cstddef</text>
</g>
<!-- Node5&#45;&gt;Node9 -->
<g id="edge9" class="edge">
<title>Node5&#45;&gt;Node9</title>
<path fill="none" stroke="#191970" d="M977.7117,-59.1333C1082.1129,-47.3698 1292.1084,-23.7083 1376.955,-14.1481"/>
<polygon fill="#191970" stroke="#191970" points="1377.5916,-17.5987 1387.1368,-13.0009 1376.8078,-10.6427 1377.5916,-17.5987"/>
</g>
<!-- Node10 -->
<g id="node11" class="node">
<title>Node10</title>
<polygon fill="none" stroke="#bfbfbf" points="607.2698,-.5 607.2698,-19.5 660.2698,-19.5 660.2698,-.5 607.2698,-.5"/>
<text text-anchor="middle" x="633.7698" y="-7.5" font-family="FreeSans.ttf" font-size="10.00" fill="#000000">iterator</text>
</g>
<!-- Node5&#45;&gt;Node10 -->
<g id="edge10" class="edge">
<title>Node5&#45;&gt;Node10</title>
<path fill="none" stroke="#191970" d="M857.5816,-56.4626C809.6134,-48.3949 740.0991,-35.9406 670.2901,-19.9638"/>
<polygon fill="#191970" stroke="#191970" points="670.9715,-16.5291 660.4401,-17.6862 669.3944,-23.3491 670.9715,-16.5291"/>
</g>
<!-- Node11 -->
<g id="node12" class="node">
<title>Node11</title>
<polygon fill="none" stroke="#bfbfbf" points="678.7698,-.5 678.7698,-19.5 722.7698,-19.5 722.7698,-.5 678.7698,-.5"/>
<text text-anchor="middle" x="700.7698" y="-7.5" font-family="FreeSans.ttf" font-size="10.00" fill="#000000">limits</text>
</g>
<!-- Node5&#45;&gt;Node11 -->
<g id="edge11" class="edge">
<title>Node5&#45;&gt;Node11</title>
<path fill="none" stroke="#191970" d="M875.6653,-56.4445C838.2569,-47.5776 781.5876,-33.7176 732.7698,-20 732.6717,-19.9724 732.5735,-19.9448 732.4751,-19.9171"/>
<polygon fill="#191970" stroke="#191970" points="733.6815,-16.6237 723.1002,-17.1593 731.7059,-23.3392 733.6815,-16.6237"/>
</g>
<!-- Node12 -->
<g id="node13" class="node">
<title>Node12</title>
<polygon fill="none" stroke="#bfbfbf" points="741.2698,-.5 741.2698,-19.5 806.2698,-19.5 806.2698,-.5 741.2698,-.5"/>
<text text-anchor="middle" x="773.7698" y="-7.5" font-family="FreeSans.ttf" font-size="10.00" fill="#000000">stdexcept</text>
</g>
<!-- Node5&#45;&gt;Node12 -->
<g id="edge12" class="edge">
<title>Node5&#45;&gt;Node12</title>
<path fill="none" stroke="#191970" d="M892.1872,-56.3733C868.8202,-47.2226 833.4835,-33.3844 807.4913,-23.2057"/>
<polygon fill="#191970" stroke="#191970" points="808.6193,-19.8886 798.0316,-19.5011 806.0668,-26.4066 808.6193,-19.8886"/>
</g>
<!-- Node13 -->
<g id="node14" class="node">
<title>Node13</title>
<polygon fill="none" stroke="#bfbfbf" points="1030.2698,-.5 1030.2698,-19.5 1099.2698,-19.5 1099.2698,-.5 1030.2698,-.5"/>
<text text-anchor="middle" x="1064.7698" y="-7.5" font-family="FreeSans.ttf" font-size="10.00" fill="#000000">type_traits</text>
</g>
<!-- Node5&#45;&gt;Node13 -->
<g id="edge13" class="edge">
<title>Node5&#45;&gt;Node13</title>
<path fill="none" stroke="#191970" d="M942.2119,-56.3733C966.5024,-47.1822 1003.2906,-33.2624 1030.2241,-23.0713"/>
<polygon fill="#191970" stroke="#191970" points="1031.5454,-26.3136 1039.6597,-19.5011 1029.0681,-19.7666 1031.5454,-26.3136"/>
</g>
<!-- Node14 -->
<g id="node15" class="node">
<title>Node14</title>
<polygon fill="none" stroke="#bfbfbf" points="824.2698,-.5 824.2698,-19.5 869.2698,-19.5 869.2698,-.5 824.2698,-.5"/>
<text text-anchor="middle" x="846.7698" y="-7.5" font-family="FreeSans.ttf" font-size="10.00" fill="#000000">utility</text>
</g>
<!-- Node5&#45;&gt;Node14 -->
<g id="edge14" class="edge">
<title>Node5&#45;&gt;Node14</title>
<path fill="none" stroke="#191970" d="M904.5767,-56.2455C894.1377,-47.8943 878.9043,-35.7076 866.6958,-25.9408"/>
<polygon fill="#191970" stroke="#191970" points="868.8183,-23.1566 858.8231,-19.6427 864.4454,-28.6227 868.8183,-23.1566"/>
</g>
<!-- Node16&#45;&gt;Node15 -->
<g id="edge17" class="edge">
<title>Node16&#45;&gt;Node15</title>
<path fill="none" stroke="#191970" d="M764.8828,-168.3733C783.5801,-159.4241 811.6442,-145.9917 832.7632,-135.8835"/>
<polygon fill="#191970" stroke="#191970" points="834.4102,-138.9755 841.9192,-131.5011 831.3881,-132.6614 834.4102,-138.9755"/>
</g>
<!-- Node17 -->
<g id="node18" class="node">
<title>Node17</title>
<g id="a_node18"><a xlink:href="MatrixView_8h.html" target="_top" xlink:title="iDynTree/Core/MatrixView.h">
<polygon fill="none" stroke="#000000" points="940.2698,-112.5 940.2698,-131.5 1091.2698,-131.5 1091.2698,-112.5 940.2698,-112.5"/>
<text text-anchor="middle" x="1015.7698" y="-119.5" font-family="FreeSans.ttf" font-size="10.00" fill="#000000">iDynTree/Core/MatrixView.h</text>
</a>
</g>
</g>
<!-- Node16&#45;&gt;Node17 -->
<g id="edge18" class="edge">
<title>Node16&#45;&gt;Node17</title>
<path fill="none" stroke="#191970" d="M791.0484,-168.4369C837.7203,-158.7925 909.8146,-143.8948 959.7028,-133.5858"/>
<polygon fill="#191970" stroke="#191970" points="960.5972,-136.975 969.682,-131.5237 959.1806,-130.1198 960.5972,-136.975"/>
</g>
<!-- Node17&#45;&gt;Node5 -->
<g id="edge21" class="edge">
<title>Node17&#45;&gt;Node5</title>
<path fill="none" stroke="#191970" d="M998.5253,-112.2455C983.1937,-103.5731 960.5499,-90.7645 942.9782,-80.825"/>
<polygon fill="#191970" stroke="#191970" points="944.2439,-77.5198 933.8166,-75.6427 940.7974,-83.6126 944.2439,-77.5198"/>
</g>
<!-- Node17&#45;&gt;Node6 -->
<g id="edge19" class="edge">
<title>Node17&#45;&gt;Node6</title>
<path fill="none" stroke="#191970" d="M1027.6208,-112.4509C1051.5224,-93.1921 1105.7203,-49.5218 1135.0448,-25.8935"/>
<polygon fill="#191970" stroke="#191970" points="1137.3579,-28.5245 1142.9487,-19.5249 1132.9659,-23.0738 1137.3579,-28.5245"/>
</g>
<!-- Node17&#45;&gt;Node13 -->
<g id="edge20" class="edge">
<title>Node17&#45;&gt;Node13</title>
<path fill="none" stroke="#191970" d="M1019.9475,-112.4509C1028.0478,-93.936 1046.0189,-52.8591 1056.5803,-28.7187"/>
<polygon fill="#191970" stroke="#191970" points="1059.8009,-30.0894 1060.6026,-19.5249 1053.3878,-27.2836 1059.8009,-30.0894"/>
</g>
<!-- Node18 -->
<g id="node19" class="node">
<title>Node18</title>
<g id="a_node19"><a xlink:href="Utils_8h.html" target="_top" xlink:title="iDynTree/Core/Utils.h">
<polygon fill="none" stroke="#000000" points="1442.2698,-56.5 1442.2698,-75.5 1561.2698,-75.5 1561.2698,-56.5 1442.2698,-56.5"/>
<text text-anchor="middle" x="1501.7698" y="-63.5" font-family="FreeSans.ttf" font-size="10.00" fill="#000000">iDynTree/Core/Utils.h</text>
</a>
</g>
</g>
<!-- Node17&#45;&gt;Node18 -->
<g id="edge22" class="edge">
<title>Node17&#45;&gt;Node18</title>
<path fill="none" stroke="#191970" d="M1091.4405,-113.2807C1184.5641,-102.5504 1341.4218,-84.4763 1431.834,-74.0584"/>
<polygon fill="#191970" stroke="#191970" points="1432.4502,-77.5107 1441.9838,-72.8889 1431.6488,-70.5567 1432.4502,-77.5107"/>
</g>
<!-- Node18&#45;&gt;Node9 -->
<g id="edge23" class="edge">
<title>Node18&#45;&gt;Node9</title>
<path fill="none" stroke="#191970" d="M1486.4413,-56.2455C1472.9394,-47.6534 1453.0576,-35.0014 1437.5012,-25.1018"/>
<polygon fill="#191970" stroke="#191970" points="1439.2382,-22.0587 1428.9225,-19.6427 1435.4801,-27.9643 1439.2382,-22.0587"/>
</g>
<!-- Node19 -->
<g id="node20" class="node">
<title>Node19</title>
<polygon fill="none" stroke="#bfbfbf" points="1461.7698,-.5 1461.7698,-19.5 1541.7698,-19.5 1541.7698,-.5 1461.7698,-.5"/>
<text text-anchor="middle" x="1501.7698" y="-7.5" font-family="FreeSans.ttf" font-size="10.00" fill="#000000">CoreExport.h</text>
</g>
<!-- Node18&#45;&gt;Node19 -->
<g id="edge24" class="edge">
<title>Node18&#45;&gt;Node19</title>
<path fill="none" stroke="#191970" d="M1501.7698,-56.2455C1501.7698,-48.9382 1501.7698,-38.6944 1501.7698,-29.7046"/>
<polygon fill="#191970" stroke="#191970" points="1505.2699,-29.6426 1501.7698,-19.6427 1498.2699,-29.6427 1505.2699,-29.6426"/>
</g>
<!-- Node20&#45;&gt;Node9 -->
<g id="edge28" class="edge">
<title>Node20&#45;&gt;Node9</title>
<path fill="none" stroke="#191970" d="M453.4186,-168.4862C639.8993,-137.7114 1223.5343,-41.3945 1376.6713,-16.1223"/>
<polygon fill="#191970" stroke="#191970" points="1377.6451,-19.5091 1386.9418,-14.4274 1376.5053,-12.6025 1377.6451,-19.5091"/>
</g>
<!-- Node20&#45;&gt;Node15 -->
<g id="edge30" class="edge">
<title>Node20&#45;&gt;Node15</title>
<path fill="none" stroke="#191970" d="M473.5536,-169.0208C476.666,-168.6737 479.7473,-168.3323 482.7698,-168 635.1334,-151.2481 675.1819,-160.6114 825.7698,-132 827.0244,-131.7616 828.2989,-131.5008 829.5829,-131.2223"/>
<polygon fill="#191970" stroke="#191970" points="830.5488,-134.5895 839.4373,-128.8236 828.8932,-127.7881 830.5488,-134.5895"/>
</g>
<!-- Node20&#45;&gt;Node18 -->
<g id="edge26" class="edge">
<title>Node20&#45;&gt;Node18</title>
<path fill="none" stroke="#191970" d="M473.5361,-168.8419C476.6533,-168.5443 479.7404,-168.2621 482.7698,-168 756.8778,-144.2818 828.3147,-170.2884 1100.7698,-132 1140.9173,-126.358 1149.91,-119.4063 1189.7698,-112 1272.5045,-96.6271 1368.3542,-83.1327 1431.7503,-74.8023"/>
<polygon fill="#191970" stroke="#191970" points="1432.5662,-78.2255 1442.0286,-73.4596 1431.6594,-71.2845 1432.5662,-78.2255"/>
</g>
<!-- Node20&#45;&gt;Node21 -->
<g id="edge27" class="edge">
<title>Node20&#45;&gt;Node21</title>
<path fill="none" stroke="#191970" d="M379.222,-168.2455C364.5099,-159.5731 342.781,-146.7645 325.9193,-136.825"/>
<polygon fill="#191970" stroke="#191970" points="327.5199,-133.7057 317.1279,-131.6427 323.9652,-139.736 327.5199,-133.7057"/>
</g>
<!-- Node22 -->
<g id="node23" class="node">
<title>Node22</title>
<polygon fill="none" stroke="#bfbfbf" points="352.7698,-112.5 352.7698,-131.5 438.7698,-131.5 438.7698,-112.5 352.7698,-112.5"/>
<text text-anchor="middle" x="395.7698" y="-119.5" font-family="FreeSans.ttf" font-size="10.00" fill="#000000">unordered_set</text>
</g>
<!-- Node20&#45;&gt;Node22 -->
<g id="edge29" class="edge">
<title>Node20&#45;&gt;Node22</title>
<path fill="none" stroke="#191970" d="M395.7698,-168.2455C395.7698,-160.9382 395.7698,-150.6944 395.7698,-141.7046"/>
<polygon fill="#191970" stroke="#191970" points="399.2699,-141.6426 395.7698,-131.6427 392.2699,-141.6427 399.2699,-141.6426"/>
</g>
<!-- Node27&#45;&gt;Node4 -->
<g id="edge40" class="edge">
<title>Node27&#45;&gt;Node4</title>
<path fill="none" stroke="#191970" d="M360.9504,-224.3733C323.5759,-214.8598 266.2973,-200.2797 225.9627,-190.0127"/>
<polygon fill="#191970" stroke="#191970" points="226.65,-186.5761 216.0956,-187.5011 224.9232,-193.3598 226.65,-186.5761"/>
</g>
<!-- Node27&#45;&gt;Node20 -->
<g id="edge41" class="edge">
<title>Node27&#45;&gt;Node20</title>
<path fill="none" stroke="#191970" d="M398.2472,-224.2455C397.8557,-216.9382 397.307,-206.6944 396.8254,-197.7046"/>
<polygon fill="#191970" stroke="#191970" points="400.3164,-197.4411 396.2863,-187.6427 393.3264,-197.8156 400.3164,-197.4411"/>
</g>
<!-- Node28&#45;&gt;Node4 -->
<g id="edge45" class="edge">
<title>Node28&#45;&gt;Node4</title>
<path fill="none" stroke="#191970" d="M1155.1975,-542.6108C1043.9832,-535.9069 849.4884,-521.6788 781.7698,-501 656.733,-462.8184 300.7547,-251.4025 203.5538,-192.968"/>
<polygon fill="#191970" stroke="#191970" points="205.095,-189.8106 194.7225,-187.6515 201.4846,-195.8077 205.095,-189.8106"/>
</g>
<!-- Node28&#45;&gt;Node9 -->
<g id="edge43" class="edge">
<title>Node28&#45;&gt;Node9</title>
<path fill="none" stroke="#191970" d="M1316.355,-542.3653C1439.8419,-534.7562 1665.0944,-518.6842 1697.7698,-501 1736.4107,-480.0872 1759.7698,-467.9371 1759.7698,-424 1759.7698,-424 1759.7698,-424 1759.7698,-122 1759.7698,-105.8513 1538.7312,-43.967 1449.9951,-19.7742"/>
<polygon fill="#191970" stroke="#191970" points="1450.9133,-16.3969 1440.3453,-17.1498 1449.0762,-23.1515 1450.9133,-16.3969"/>
</g>
<!-- Node28&#45;&gt;Node16 -->
<g id="edge54" class="edge">
<title>Node28&#45;&gt;Node16</title>
<path fill="none" stroke="#191970" d="M1159.2605,-537.4744C1010.2923,-517.8849 695.7698,-470.9639 695.7698,-424 695.7698,-424 695.7698,-424 695.7698,-295.5 695.7698,-257.9818 717.3142,-218.5564 731.8315,-196.2492"/>
<polygon fill="#191970" stroke="#191970" points="734.846,-198.0392 737.5396,-187.7925 729.044,-194.123 734.846,-198.0392"/>
</g>
<!-- Node28&#45;&gt;Node18 -->
<g id="edge94" class="edge">
<title>Node28&#45;&gt;Node18</title>
<path fill="none" stroke="#191970" d="M1316.4653,-541.6864C1431.5849,-533.5926 1632.3632,-517.3798 1661.7698,-501 1699.6718,-479.8882 1721.7698,-467.3852 1721.7698,-424 1721.7698,-424 1721.7698,-424 1721.7698,-178 1721.7698,-109.4497 1635.8931,-82.8379 1571.4476,-72.5186"/>
<polygon fill="#191970" stroke="#191970" points="1571.7133,-69.0194 1561.3049,-70.9983 1570.6756,-75.942 1571.7133,-69.0194"/>
</g>
<!-- Node28&#45;&gt;Node26 -->
<g id="edge44" class="edge">
<title>Node28&#45;&gt;Node26</title>
<path fill="none" stroke="#191970" d="M1155.2646,-545.854C969.8839,-542.6959 524.0999,-531.9462 463.7698,-501 381.7675,-458.9372 325.7863,-356.7339 305.3586,-314.3748"/>
<polygon fill="#191970" stroke="#191970" points="308.4595,-312.7442 301.0361,-305.1848 302.1252,-315.7235 308.4595,-312.7442"/>
</g>
<!-- Node29 -->
<g id="node30" class="node">
<title>Node29</title>
<g id="a_node30"><a xlink:href="VectorFixSize_8h.html" target="_top" xlink:title="iDynTree/Core/VectorFixSize.h">
<polygon fill="none" stroke="#000000" points="1267.2698,-168.5 1267.2698,-187.5 1428.2698,-187.5 1428.2698,-168.5 1267.2698,-168.5"/>
<text text-anchor="middle" x="1347.7698" y="-175.5" font-family="FreeSans.ttf" font-size="10.00" fill="#000000">iDynTree/Core/VectorFixSize.h</text>
</a>
</g>
</g>
<!-- Node28&#45;&gt;Node29 -->
<g id="edge46" class="edge">
<title>Node28&#45;&gt;Node29</title>
<path fill="none" stroke="#191970" d="M1316.291,-544.9795C1415.0398,-541.2336 1575.6192,-530.6502 1626.7698,-501 1663.6069,-479.6468 1683.7698,-466.5786 1683.7698,-424 1683.7698,-424 1683.7698,-424 1683.7698,-362.5 1683.7698,-250.3885 1538.2656,-205.9327 1438.7594,-188.6387"/>
<polygon fill="#191970" stroke="#191970" points="1439.1183,-185.1502 1428.6777,-186.9514 1437.9628,-192.0542 1439.1183,-185.1502"/>
</g>
<!-- Node32 -->
<g id="node33" class="node">
<title>Node32</title>
<g id="a_node33"><a xlink:href="MatrixFixSize_8h.html" target="_top" xlink:title="iDynTree/Core/MatrixFixSize.h">
<polygon fill="none" stroke="#000000" points="1088.2698,-168.5 1088.2698,-187.5 1249.2698,-187.5 1249.2698,-168.5 1088.2698,-168.5"/>
<text text-anchor="middle" x="1168.7698" y="-175.5" font-family="FreeSans.ttf" font-size="10.00" fill="#000000">iDynTree/Core/MatrixFixSize.h</text>
</a>
</g>
</g>
<!-- Node28&#45;&gt;Node32 -->
<g id="edge55" class="edge">
<title>Node28&#45;&gt;Node32</title>
<path fill="none" stroke="#191970" d="M1235.7698,-537.4309C1235.7698,-516.738 1235.7698,-466.2813 1235.7698,-424 1235.7698,-424 1235.7698,-424 1235.7698,-295.5 1235.7698,-262.6194 1233.4828,-252.3163 1216.7698,-224 1210.0541,-212.6219 1199.7472,-202.2219 1190.4033,-194.2003"/>
<polygon fill="#191970" stroke="#191970" points="1192.5159,-191.4068 1182.5544,-187.7984 1188.0915,-196.8313 1192.5159,-191.4068"/>
</g>
<!-- Node34 -->
<g id="node35" class="node">
<title>Node34</title>
<g id="a_node35"><a xlink:href="SpatialMotionVector_8h.html" target="_top" xlink:title="iDynTree/Core/SpatialMotion\lVector.h">
<polygon fill="none" stroke="#000000" points="1269.2698,-470.5 1269.2698,-500.5 1424.2698,-500.5 1424.2698,-470.5 1269.2698,-470.5"/>
<text text-anchor="start" x="1277.2698" y="-488.5" font-family="FreeSans.ttf" font-size="10.00" fill="#000000">iDynTree/Core/SpatialMotion</text>
<text text-anchor="middle" x="1346.7698" y="-477.5" font-family="FreeSans.ttf" font-size="10.00" fill="#000000">Vector.h</text>
</a>
</g>
</g>
<!-- Node28&#45;&gt;Node34 -->
<g id="edge63" class="edge">
<title>Node28&#45;&gt;Node34</title>
<path fill="none" stroke="#191970" d="M1253.1135,-537.3906C1268.4838,-528.8747 1291.4214,-516.166 1310.7492,-505.4573"/>
<polygon fill="#191970" stroke="#191970" points="1312.5652,-508.4525 1319.6161,-500.5446 1309.1727,-502.3295 1312.5652,-508.4525"/>
</g>
<!-- Node41 -->
<g id="node42" class="node">
<title>Node41</title>
<g id="a_node42"><a xlink:href="SpatialForceVector_8h.html" target="_top" xlink:title="iDynTree/Core/SpatialForce\lVector.h">
<polygon fill="none" stroke="#000000" points="1469.7698,-470.5 1469.7698,-500.5 1617.7698,-500.5 1617.7698,-470.5 1469.7698,-470.5"/>
<text text-anchor="start" x="1477.7698" y="-488.5" font-family="FreeSans.ttf" font-size="10.00" fill="#000000">iDynTree/Core/SpatialForce</text>
<text text-anchor="middle" x="1543.7698" y="-477.5" font-family="FreeSans.ttf" font-size="10.00" fill="#000000">Vector.h</text>
</a>
</g>
</g>
<!-- Node28&#45;&gt;Node41 -->
<g id="edge85" class="edge">
<title>Node28&#45;&gt;Node41</title>
<path fill="none" stroke="#191970" d="M1283.5568,-537.4581C1330.4993,-528.0848 1403.1133,-513.5856 1459.718,-502.2831"/>
<polygon fill="#191970" stroke="#191970" points="1460.6106,-505.674 1469.7317,-500.2836 1459.2399,-498.8095 1460.6106,-505.674"/>
</g>
<!-- Node42 -->
<g id="node43" class="node">
<title>Node42</title>
<g id="a_node43"><a xlink:href="Transform_8h.html" target="_top" xlink:title="iDynTree/Core/Transform.h">
<polygon fill="none" stroke="#000000" points="880.7698,-414.5 880.7698,-433.5 1026.7698,-433.5 1026.7698,-414.5 880.7698,-414.5"/>
<text text-anchor="middle" x="953.7698" y="-421.5" font-family="FreeSans.ttf" font-size="10.00" fill="#000000">iDynTree/Core/Transform.h</text>
</a>
</g>
</g>
<!-- Node28&#45;&gt;Node42 -->
<g id="edge89" class="edge">
<title>Node28&#45;&gt;Node42</title>
<path fill="none" stroke="#191970" d="M1213.6417,-537.3484C1163.8089,-515.6128 1042.6624,-462.7723 985.1175,-437.6729"/>
<polygon fill="#191970" stroke="#191970" points="986.3604,-434.3967 975.795,-433.6068 983.5618,-440.8129 986.3604,-434.3967"/>
</g>
<!-- Node29&#45;&gt;Node5 -->
<g id="edge48" class="edge">
<title>Node29&#45;&gt;Node5</title>
<path fill="none" stroke="#191970" d="M1267.2405,-168.9436C1264.3818,-168.6247 1261.5514,-168.3094 1258.7698,-168 1186.1121,-159.9186 986.3201,-180.6694 931.7698,-132 919.0533,-120.6545 915.931,-100.9811 915.6135,-86.0572"/>
<polygon fill="#191970" stroke="#191970" points="919.1179,-85.8507 915.8051,-75.7872 912.1191,-85.7201 919.1179,-85.8507"/>
</g>
<!-- Node29&#45;&gt;Node6 -->
<g id="edge51" class="edge">
<title>Node29&#45;&gt;Node6</title>
<path fill="none" stroke="#191970" d="M1338.8571,-168.2404C1326.6402,-155.0311 1303.8063,-130.9373 1282.7698,-112 1246.7199,-79.5475 1201.8336,-45.0215 1175.9243,-25.6168"/>
<polygon fill="#191970" stroke="#191970" points="1178.0151,-22.8099 1167.9053,-19.6406 1173.8321,-28.4227 1178.0151,-22.8099"/>
</g>
<!-- Node29&#45;&gt;Node9 -->
<g id="edge52" class="edge">
<title>Node29&#45;&gt;Node9</title>
<path fill="none" stroke="#191970" d="M1361.6779,-168.369C1372.5364,-160.0516 1387.0368,-147.0247 1394.7698,-132 1411.6982,-99.1088 1414.4375,-55.1231 1414.425,-29.9468"/>
<polygon fill="#191970" stroke="#191970" points="1417.9225,-29.7545 1414.2667,-19.8104 1410.9234,-29.8638 1417.9225,-29.7545"/>
</g>
<!-- Node29&#45;&gt;Node15 -->
<g id="edge49" class="edge">
<title>Node29&#45;&gt;Node15</title>
<path fill="none" stroke="#191970" d="M1267.2445,-168.9066C1264.3847,-168.5982 1261.5529,-168.2951 1258.7698,-168 1098.4284,-150.9979 1056.2536,-161.6866 897.7698,-132 896.5145,-131.7649 895.2395,-131.5068 893.955,-131.2306"/>
<polygon fill="#191970" stroke="#191970" points="894.6419,-127.7958 884.0988,-128.8419 892.993,-134.5989 894.6419,-127.7958"/>
</g>
<!-- Node29&#45;&gt;Node18 -->
<g id="edge47" class="edge">
<title>Node29&#45;&gt;Node18</title>
<path fill="none" stroke="#191970" d="M1366.8742,-168.4483C1383.5216,-159.7949 1408.0221,-146.2499 1427.7698,-132 1448.7355,-116.8711 1470.5707,-96.7776 1485.0392,-82.7517"/>
<polygon fill="#191970" stroke="#191970" points="1487.5844,-85.1577 1492.2671,-75.6538 1482.6798,-80.1632 1487.5844,-85.1577"/>
</g>
<!-- Node30 -->
<g id="node31" class="node">
<title>Node30</title>
<polygon fill="none" stroke="#bfbfbf" points="1329.7698,-112.5 1329.7698,-131.5 1385.7698,-131.5 1385.7698,-112.5 1329.7698,-112.5"/>
<text text-anchor="middle" x="1357.7698" y="-119.5" font-family="FreeSans.ttf" font-size="10.00" fill="#000000">sstream</text>
</g>
<!-- Node29&#45;&gt;Node30 -->
<g id="edge50" class="edge">
<title>Node29&#45;&gt;Node30</title>
<path fill="none" stroke="#191970" d="M1349.5116,-168.2455C1350.8165,-160.9382 1352.6458,-150.6944 1354.2511,-141.7046"/>
<polygon fill="#191970" stroke="#191970" points="1357.7354,-142.1022 1356.0479,-131.6427 1350.8444,-140.8717 1357.7354,-142.1022"/>
</g>
<!-- Node31 -->
<g id="node32" class="node">
<title>Node31</title>
<polygon fill="none" stroke="#bfbfbf" points="1223.7698,-112.5 1223.7698,-131.5 1273.7698,-131.5 1273.7698,-112.5 1223.7698,-112.5"/>
<text text-anchor="middle" x="1248.7698" y="-119.5" font-family="FreeSans.ttf" font-size="10.00" fill="#000000">cstring</text>
</g>
<!-- Node29&#45;&gt;Node31 -->
<g id="edge53" class="edge">
<title>Node29&#45;&gt;Node31</title>
<path fill="none" stroke="#191970" d="M1330.5253,-168.2455C1315.1937,-159.5731 1292.5499,-146.7645 1274.9782,-136.825"/>
<polygon fill="#191970" stroke="#191970" points="1276.2439,-133.5198 1265.8166,-131.6427 1272.7974,-139.6126 1276.2439,-133.5198"/>
</g>
<!-- Node32&#45;&gt;Node6 -->
<g id="edge58" class="edge">
<title>Node32&#45;&gt;Node6</title>
<path fill="none" stroke="#191970" d="M1167.9769,-168.4862C1165.7639,-141.9293 1159.4835,-66.5651 1156.4502,-30.1655"/>
<polygon fill="#191970" stroke="#191970" points="1159.9072,-29.5027 1155.5888,-19.8279 1152.9314,-30.084 1159.9072,-29.5027"/>
</g>
<!-- Node32&#45;&gt;Node15 -->
<g id="edge60" class="edge">
<title>Node32&#45;&gt;Node15</title>
<path fill="none" stroke="#191970" d="M1101.0158,-168.4762C1045.9685,-160.2651 966.4696,-147.3296 897.7698,-132 896.5234,-131.7219 895.2557,-131.4274 893.9776,-131.1207"/>
<polygon fill="#191970" stroke="#191970" points="894.7045,-127.6939 884.1485,-128.5998 892.9654,-134.4745 894.7045,-127.6939"/>
</g>
<!-- Node32&#45;&gt;Node17 -->
<g id="edge57" class="edge">
<title>Node32&#45;&gt;Node17</title>
<path fill="none" stroke="#191970" d="M1142.4681,-168.3733C1117.357,-159.1822 1079.3259,-145.2624 1051.4825,-135.0713"/>
<polygon fill="#191970" stroke="#191970" points="1052.322,-131.6516 1041.7282,-131.5011 1049.9159,-138.2251 1052.322,-131.6516"/>
</g>
<!-- Node32&#45;&gt;Node18 -->
<g id="edge56" class="edge">
<title>Node32&#45;&gt;Node18</title>
<path fill="none" stroke="#191970" d="M1172.6816,-168.0314C1179.0729,-153.1711 1193.2399,-125.5137 1214.7698,-112 1250.0286,-89.8691 1359.0503,-77.1576 1432.1104,-70.9165"/>
<polygon fill="#191970" stroke="#191970" points="1432.4945,-74.3967 1442.1694,-70.0785 1431.9133,-67.4209 1432.4945,-74.3967"/>
</g>
<!-- Node32&#45;&gt;Node30 -->
<g id="edge62" class="edge">
<title>Node32&#45;&gt;Node30</title>
<path fill="none" stroke="#191970" d="M1201.26,-168.3733C1234.2087,-158.6107 1285.164,-143.5128 1319.9179,-133.2154"/>
<polygon fill="#191970" stroke="#191970" points="1321.1097,-136.5127 1329.7033,-130.316 1319.121,-129.8011 1321.1097,-136.5127"/>
</g>
<!-- Node32&#45;&gt;Node31 -->
<g id="edge59" class="edge">
<title>Node32&#45;&gt;Node31</title>
<path fill="none" stroke="#191970" d="M1182.7047,-168.2455C1194.8644,-159.7337 1212.7162,-147.2375 1226.7982,-137.3801"/>
<polygon fill="#191970" stroke="#191970" points="1228.8093,-140.2447 1234.9945,-131.6427 1224.795,-134.51 1228.8093,-140.2447"/>
</g>
<!-- Node33 -->
<g id="node34" class="node">
<title>Node33</title>
<polygon fill="none" stroke="#bfbfbf" points="1542.7698,-112.5 1542.7698,-131.5 1602.7698,-131.5 1602.7698,-112.5 1542.7698,-112.5"/>
<text text-anchor="middle" x="1572.7698" y="-119.5" font-family="FreeSans.ttf" font-size="10.00" fill="#000000">iostream</text>
</g>
<!-- Node32&#45;&gt;Node33 -->
<g id="edge61" class="edge">
<title>Node32&#45;&gt;Node33</title>
<path fill="none" stroke="#191970" d="M1237.7608,-168.4369C1322.6479,-156.6704 1463.9482,-137.0842 1532.7164,-127.5519"/>
<polygon fill="#191970" stroke="#191970" points="1533.2914,-131.0058 1542.7161,-126.1658 1532.3303,-124.0721 1533.2914,-131.0058"/>
</g>
<!-- Node34&#45;&gt;Node29 -->
<g id="edge64" class="edge">
<title>Node34&#45;&gt;Node29</title>
<path fill="none" stroke="#191970" d="M1339.5177,-470.3617C1329.266,-447.533 1311.7698,-402.6854 1311.7698,-362.5 1311.7698,-362.5 1311.7698,-362.5 1311.7698,-295.5 1311.7698,-259.4217 1327.4776,-219.7379 1338.1416,-196.9538"/>
<polygon fill="#191970" stroke="#191970" points="1341.392,-198.2727 1342.6118,-187.7483 1335.0951,-195.2149 1341.392,-198.2727"/>
</g>
<!-- Node35 -->
<g id="node36" class="node">
<title>Node35</title>
<g id="a_node36"><a xlink:href="GeomVector3_8h.html" target="_top" xlink:title="iDynTree/Core/GeomVector3.h">
<polygon fill="none" stroke="#000000" points="1340.2698,-224.5 1340.2698,-243.5 1503.2698,-243.5 1503.2698,-224.5 1340.2698,-224.5"/>
<text text-anchor="middle" x="1421.7698" y="-231.5" font-family="FreeSans.ttf" font-size="10.00" fill="#000000">iDynTree/Core/GeomVector3.h</text>
</a>
</g>
</g>
<!-- Node34&#45;&gt;Node35 -->
<g id="edge65" class="edge">
<title>Node34&#45;&gt;Node35</title>
<path fill="none" stroke="#191970" d="M1351.3484,-470.1461C1364.3604,-426.5127 1401.5435,-301.8253 1415.9597,-253.4832"/>
<polygon fill="#191970" stroke="#191970" points="1419.3881,-254.2337 1418.8919,-243.6505 1412.68,-252.2332 1419.3881,-254.2337"/>
</g>
<!-- Node36 -->
<g id="node37" class="node">
<title>Node36</title>
<g id="a_node37"><a xlink:href="SpatialVector_8h.html" target="_top" xlink:title="iDynTree/Core/SpatialVector.h">
<polygon fill="none" stroke="#000000" points="1380.2698,-414.5 1380.2698,-433.5 1541.2698,-433.5 1541.2698,-414.5 1380.2698,-414.5"/>
<text text-anchor="middle" x="1460.7698" y="-421.5" font-family="FreeSans.ttf" font-size="10.00" fill="#000000">iDynTree/Core/SpatialVector.h</text>
</a>
</g>
</g>
<!-- Node34&#45;&gt;Node36 -->
<g id="edge67" class="edge">
<title>Node34&#45;&gt;Node36</title>
<path fill="none" stroke="#191970" d="M1374.6573,-470.4554C1392.6774,-460.734 1416.0039,-448.15 1433.833,-438.5317"/>
<polygon fill="#191970" stroke="#191970" points="1435.9646,-441.3586 1443.1038,-433.5303 1432.641,-435.1979 1435.9646,-441.3586"/>
</g>
<!-- Node35&#45;&gt;Node29 -->
<g id="edge66" class="edge">
<title>Node35&#45;&gt;Node29</title>
<path fill="none" stroke="#191970" d="M1408.8799,-224.2455C1397.8444,-215.8943 1381.7405,-203.7076 1368.8344,-193.9408"/>
<polygon fill="#191970" stroke="#191970" points="1370.598,-190.8862 1360.5119,-187.6427 1366.3739,-196.4681 1370.598,-190.8862"/>
</g>
<!-- Node36&#45;&gt;Node18 -->
<g id="edge81" class="edge">
<title>Node36&#45;&gt;Node18</title>
<path fill="none" stroke="#191970" d="M1483.1319,-414.4194C1499.073,-406.6164 1520.0308,-394.2394 1533.7698,-378 1571.3589,-333.5696 1606.2559,-172.235 1611.7698,-132 1612.9766,-123.1934 1616.6957,-119.3992 1611.7698,-112 1601.22,-96.1532 1584.0534,-85.7555 1566.3858,-78.9369"/>
<polygon fill="#191970" stroke="#191970" points="1567.1525,-75.4975 1556.5577,-75.5052 1564.8449,-82.1062 1567.1525,-75.4975"/>
</g>
<!-- Node36&#45;&gt;Node30 -->
<g id="edge84" class="edge">
<title>Node36&#45;&gt;Node30</title>
<path fill="none" stroke="#191970" d="M1467.871,-414.332C1488.8261,-384.5306 1546.8568,-291.9924 1512.7698,-224 1489.3785,-177.3421 1433.5092,-148.8865 1395.642,-134.2821"/>
<polygon fill="#191970" stroke="#191970" points="1396.5507,-130.8864 1385.9576,-130.6956 1394.1197,-137.4507 1396.5507,-130.8864"/>
</g>
<!-- Node36&#45;&gt;Node33 -->
<g id="edge83" class="edge">
<title>Node36&#45;&gt;Node33</title>
<path fill="none" stroke="#191970" d="M1475.2012,-414.2433C1486.6006,-405.8529 1502.1419,-392.7893 1511.7698,-378 1561.8651,-301.0494 1570.9003,-187.1492 1572.4699,-141.7358"/>
<polygon fill="#191970" stroke="#191970" points="1575.9689,-141.8169 1572.7286,-131.7297 1568.9713,-141.6359 1575.9689,-141.8169"/>
</g>
<!-- Node36&#45;&gt;Node35 -->
<g id="edge82" class="edge">
<title>Node36&#45;&gt;Node35</title>
<path fill="none" stroke="#191970" d="M1458.7821,-414.3167C1452.6811,-384.5938 1434.1352,-294.242 1425.847,-253.8634"/>
<polygon fill="#191970" stroke="#191970" points="1429.2395,-252.9837 1423.8002,-243.8917 1422.3824,-254.3912 1429.2395,-252.9837"/>
</g>
<!-- Node37 -->
<g id="node38" class="node">
<title>Node37</title>
<g id="a_node38"><a xlink:href="Position_8h.html" target="_top" xlink:title="Position.h">
<polygon fill="none" stroke="#000000" points="921.2698,-353 921.2698,-372 986.2698,-372 986.2698,-353 921.2698,-353"/>
<text text-anchor="middle" x="953.7698" y="-360" font-family="FreeSans.ttf" font-size="10.00" fill="#000000">Position.h</text>
</a>
</g>
</g>
<!-- Node36&#45;&gt;Node37 -->
<g id="edge68" class="edge">
<title>Node36&#45;&gt;Node37</title>
<path fill="none" stroke="#191970" d="M1382.3849,-414.4918C1273.9205,-401.3348 1081.8147,-378.0321 996.5683,-367.6915"/>
<polygon fill="#191970" stroke="#191970" points="996.8219,-364.1967 986.4732,-366.467 995.9789,-371.1458 996.8219,-364.1967"/>
</g>
<!-- Node39 -->
<g id="node40" class="node">
<title>Node39</title>
<g id="a_node40"><a xlink:href="Rotation_8h.html" target="_top" xlink:title="iDynTree/Core/Rotation.h">
<polygon fill="none" stroke="#000000" points="1060.2698,-286 1060.2698,-305 1197.2698,-305 1197.2698,-286 1060.2698,-286"/>
<text text-anchor="middle" x="1128.7698" y="-293" font-family="FreeSans.ttf" font-size="10.00" fill="#000000">iDynTree/Core/Rotation.h</text>
</a>
</g>
</g>
<!-- Node36&#45;&gt;Node39 -->
<g id="edge80" class="edge">
<title>Node36&#45;&gt;Node39</title>
<path fill="none" stroke="#191970" d="M1436.087,-414.4466C1377.6249,-391.8189 1230.5808,-334.9058 1163.3199,-308.8726"/>
<polygon fill="#191970" stroke="#191970" points="1164.2042,-305.4619 1153.615,-305.1163 1161.6774,-311.9899 1164.2042,-305.4619"/>
</g>
<!-- Node37&#45;&gt;Node15 -->
<g id="edge79" class="edge">
<title>Node37&#45;&gt;Node15</title>
<path fill="none" stroke="#191970" d="M936.6965,-352.791C907.9794,-335.3452 850.9745,-295.6468 828.7698,-244 825.2589,-235.8339 825.1037,-232.0977 828.7698,-224 838.7711,-201.9088 859.7684,-210.0912 869.7698,-188 876.3807,-173.3975 873.4648,-155.2154 869.4127,-141.6346"/>
<polygon fill="#191970" stroke="#191970" points="872.6267,-140.2159 866.0798,-131.8859 866.0031,-142.4805 872.6267,-140.2159"/>
</g>
<!-- Node38 -->
<g id="node39" class="node">
<title>Node38</title>
<g id="a_node39"><a xlink:href="PositionRaw_8h.html" target="_top" xlink:title="iDynTree/Core/PositionRaw.h">
<polygon fill="none" stroke="#000000" points="837.7698,-224.5 837.7698,-243.5 993.7698,-243.5 993.7698,-224.5 837.7698,-224.5"/>
<text text-anchor="middle" x="915.7698" y="-231.5" font-family="FreeSans.ttf" font-size="10.00" fill="#000000">iDynTree/Core/PositionRaw.h</text>
</a>
</g>
</g>
<!-- Node37&#45;&gt;Node38 -->
<g id="edge69" class="edge">
<title>Node37&#45;&gt;Node38</title>
<path fill="none" stroke="#191970" d="M950.9136,-352.8416C944.6966,-331.8184 929.8341,-281.5598 921.567,-253.6038"/>
<polygon fill="#191970" stroke="#191970" points="924.8513,-252.3674 918.6591,-243.7705 918.1386,-254.3525 924.8513,-252.3674"/>
</g>
<!-- Node37&#45;&gt;Node39 -->
<g id="edge72" class="edge">
<title>Node37&#45;&gt;Node39</title>
<path fill="none" stroke="#191970" d="M978.843,-352.9005C1009.1216,-341.3082 1060.2101,-321.7486 1094.2103,-308.7313"/>
<polygon fill="#191970" stroke="#191970" points="1095.6555,-311.9258 1103.743,-305.0817 1093.1526,-305.3886 1095.6555,-311.9258"/>
</g>
<!-- Node38&#45;&gt;Node15 -->
<g id="edge71" class="edge">
<title>Node38&#45;&gt;Node15</title>
<path fill="none" stroke="#191970" d="M916.4986,-224.4972C917.117,-211.1652 916.7618,-186.4728 907.7698,-168 902.1686,-156.4933 892.5136,-146.1607 883.4909,-138.2172"/>
<polygon fill="#191970" stroke="#191970" points="885.4552,-135.3 875.5168,-131.6286 880.9965,-140.6964 885.4552,-135.3"/>
</g>
<!-- Node38&#45;&gt;Node29 -->
<g id="edge70" class="edge">
<title>Node38&#45;&gt;Node29</title>
<path fill="none" stroke="#191970" d="M989.5424,-224.4369C1065.8056,-214.5509 1184.6508,-199.145 1264.3028,-188.8198"/>
<polygon fill="#191970" stroke="#191970" points="1264.8344,-192.2803 1274.3014,-187.5237 1263.9344,-185.3383 1264.8344,-192.2803"/>
</g>
<!-- Node39&#45;&gt;Node15 -->
<g id="edge73" class="edge">
<title>Node39&#45;&gt;Node15</title>
<path fill="none" stroke="#191970" d="M1111.6923,-285.9677C1093.8089,-275.8787 1065.0073,-259.3265 1040.7698,-244 982.9514,-207.4387 916.9262,-161.2401 883.5475,-137.5582"/>
<polygon fill="#191970" stroke="#191970" points="885.2104,-134.4459 875.0326,-131.5025 881.1534,-140.1504 885.2104,-134.4459"/>
</g>
<!-- Node39&#45;&gt;Node29 -->
<g id="edge78" class="edge">
<title>Node39&#45;&gt;Node29</title>
<path fill="none" stroke="#191970" d="M1146.6915,-285.8845C1185.1263,-265.2631 1275.6545,-216.692 1320.9611,-192.3837"/>
<polygon fill="#191970" stroke="#191970" points="1322.7505,-195.3956 1329.9076,-187.5836 1319.441,-189.2273 1322.7505,-195.3956"/>
</g>
<!-- Node39&#45;&gt;Node35 -->
<g id="edge74" class="edge">
<title>Node39&#45;&gt;Node35</title>
<path fill="none" stroke="#191970" d="M1174.2295,-285.9581C1225.9811,-275.0956 1310.5309,-257.3488 1366.166,-245.6711"/>
<polygon fill="#191970" stroke="#191970" points="1367.1356,-249.0439 1376.2033,-243.5643 1365.6976,-242.1932 1367.1356,-249.0439"/>
</g>
<!-- Node40 -->
<g id="node41" class="node">
<title>Node40</title>
<g id="a_node41"><a xlink:href="RotationRaw_8h.html" target="_top" xlink:title="iDynTree/Core/RotationRaw.h">
<polygon fill="none" stroke="#000000" points="1049.7698,-224.5 1049.7698,-243.5 1207.7698,-243.5 1207.7698,-224.5 1049.7698,-224.5"/>
<text text-anchor="middle" x="1128.7698" y="-231.5" font-family="FreeSans.ttf" font-size="10.00" fill="#000000">iDynTree/Core/RotationRaw.h</text>
</a>
</g>
</g>
<!-- Node39&#45;&gt;Node40 -->
<g id="edge75" class="edge">
<title>Node39&#45;&gt;Node40</title>
<path fill="none" stroke="#191970" d="M1128.7698,-285.8906C1128.7698,-277.3657 1128.7698,-264.6392 1128.7698,-253.9235"/>
<polygon fill="#191970" stroke="#191970" points="1132.2699,-253.7448 1128.7698,-243.7449 1125.2699,-253.7449 1132.2699,-253.7448"/>
</g>
<!-- Node40&#45;&gt;Node15 -->
<g id="edge77" class="edge">
<title>Node40&#45;&gt;Node15</title>
<path fill="none" stroke="#191970" d="M1118.1366,-224.46C1101.6562,-210.1597 1068.4292,-183.2236 1035.7698,-168 978.3187,-141.2203 958.9751,-148.4829 897.7698,-132 896.5014,-131.6584 895.2085,-131.3083 893.9027,-130.9532"/>
<polygon fill="#191970" stroke="#191970" points="894.4093,-127.4628 883.8394,-128.1897 892.5556,-134.2129 894.4093,-127.4628"/>
</g>
<!-- Node40&#45;&gt;Node32 -->
<g id="edge76" class="edge">
<title>Node40&#45;&gt;Node32</title>
<path fill="none" stroke="#191970" d="M1135.7372,-224.2455C1141.3009,-216.4564 1149.2478,-205.3308 1155.9527,-195.9439"/>
<polygon fill="#191970" stroke="#191970" points="1158.9178,-197.8144 1161.8821,-187.6427 1153.2216,-193.7457 1158.9178,-197.8144"/>
</g>
<!-- Node41&#45;&gt;Node29 -->
<g id="edge86" class="edge">
<title>Node41&#45;&gt;Node29</title>
<path fill="none" stroke="#191970" d="M1552.2172,-470.2556C1557.2524,-460.2758 1563.1577,-446.7638 1565.7698,-434 1567.5519,-425.2916 1566.9751,-422.8068 1565.7698,-414 1553.8822,-327.1414 1574.7652,-285.9863 1512.7698,-224 1498.5205,-209.7529 1453.1209,-197.6993 1413.5432,-189.5092"/>
<polygon fill="#191970" stroke="#191970" points="1414.1234,-186.0559 1403.6291,-187.5113 1412.7405,-192.9179 1414.1234,-186.0559"/>
</g>
<!-- Node41&#45;&gt;Node35 -->
<g id="edge87" class="edge">
<title>Node41&#45;&gt;Node35</title>
<path fill="none" stroke="#191970" d="M1548.7123,-470.3366C1552.7191,-455.6003 1556.7986,-432.7618 1550.7698,-414 1528.6359,-345.1188 1469.3364,-280.2408 1439.4719,-250.7012"/>
<polygon fill="#191970" stroke="#191970" points="1441.8287,-248.111 1432.2183,-243.651 1436.9498,-253.1307 1441.8287,-248.111"/>
</g>
<!-- Node41&#45;&gt;Node36 -->
<g id="edge88" class="edge">
<title>Node41&#45;&gt;Node36</title>
<path fill="none" stroke="#191970" d="M1523.2529,-470.2977C1510.7715,-461.0495 1494.8538,-449.2551 1482.2084,-439.8853"/>
<polygon fill="#191970" stroke="#191970" points="1484.1776,-436.9882 1474.0591,-433.8469 1480.0101,-442.6126 1484.1776,-436.9882"/>
</g>
<!-- Node42&#45;&gt;Node15 -->
<g id="edge93" class="edge">
<title>Node42&#45;&gt;Node15</title>
<path fill="none" stroke="#191970" d="M914.7983,-414.4231C894.4438,-407.5081 870.7282,-396.1162 855.7698,-378 811.1417,-323.9507 807.2191,-292.5658 821.7698,-224 825.4045,-206.8723 831.2185,-204.2372 837.7698,-188 844.0332,-172.4762 850.4815,-154.6198 855.1148,-141.398"/>
<polygon fill="#191970" stroke="#191970" points="858.4316,-142.516 858.4033,-131.9212 851.8184,-140.2211 858.4316,-142.516"/>
</g>
<!-- Node42&#45;&gt;Node32 -->
<g id="edge92" class="edge">
<title>Node42&#45;&gt;Node32</title>
<path fill="none" stroke="#191970" d="M939.2095,-414.3138C895.4414,-384.0727 771.5169,-289.5205 828.7698,-224 845.0071,-205.4179 982.6876,-191.618 1077.7844,-184.1954"/>
<polygon fill="#191970" stroke="#191970" points="1078.2999,-187.6661 1088.002,-183.4095 1077.763,-180.6868 1078.2999,-187.6661"/>
</g>
<!-- Node42&#45;&gt;Node37 -->
<g id="edge90" class="edge">
<title>Node42&#45;&gt;Node37</title>
<path fill="none" stroke="#191970" d="M953.7698,-414.3906C953.7698,-405.8657 953.7698,-393.1392 953.7698,-382.4235"/>
<polygon fill="#191970" stroke="#191970" points="957.2699,-382.2448 953.7698,-372.2449 950.2699,-382.2449 957.2699,-382.2448"/>
</g>
<!-- Node42&#45;&gt;Node39 -->
<g id="edge91" class="edge">
<title>Node42&#45;&gt;Node39</title>
<path fill="none" stroke="#191970" d="M966.9232,-414.3416C996.8209,-392.3881 1070.1347,-338.5549 1106.9413,-311.5283"/>
<polygon fill="#191970" stroke="#191970" points="1109.4748,-314.0103 1115.4637,-305.2705 1105.3317,-308.368 1109.4748,-314.0103"/>
</g>
</g>
</svg>
