<?xml version="1.0" encoding="UTF-8" standalone="no"?>
<!DOCTYPE svg PUBLIC "-//W3C//DTD SVG 1.1//EN"
 "http://www.w3.org/Graphics/SVG/1.1/DTD/svg11.dtd">
<!-- Generated by graphviz version 2.40.1 (20161225.0304)
 -->
<!-- Title: Rotation.h Pages: 1 -->
<svg width="869pt" height="308pt"
 viewBox="0.00 0.00 869.00 308.00" xmlns="http://www.w3.org/2000/svg" xmlns:xlink="http://www.w3.org/1999/xlink">
<g id="graph0" class="graph" transform="scale(1 1) rotate(0) translate(4 304)">
<title>Rotation.h</title>
<!-- Node0 -->
<g id="node1" class="node">
<title>Node0</title>
<polygon fill="#bfbfbf" stroke="#000000" points="318,-280.5 318,-299.5 384,-299.5 384,-280.5 318,-280.5"/>
<text text-anchor="middle" x="351" y="-287.5" font-family="FreeSans.ttf" font-size="10.00" fill="#000000">Rotation.h</text>
</g>
<!-- Node1 -->
<g id="node2" class="node">
<title>Node1</title>
<polygon fill="none" stroke="#bfbfbf" points="351,-112.5 351,-131.5 395,-131.5 395,-112.5 351,-112.5"/>
<text text-anchor="middle" x="373" y="-119.5" font-family="FreeSans.ttf" font-size="10.00" fill="#000000">string</text>
</g>
<!-- Node0&#45;&gt;Node1 -->
<g id="edge1" class="edge">
<title>Node0&#45;&gt;Node1</title>
<path fill="none" stroke="#191970" d="M361.8548,-280.2679C370.5343,-271.7019 382.0417,-258.3808 387,-244 398.9858,-209.237 388.4662,-165.9379 380.326,-141.3844"/>
<polygon fill="#191970" stroke="#191970" points="383.5744,-140.0718 376.9491,-131.804 376.9725,-142.3988 383.5744,-140.0718"/>
</g>
<!-- Node2 -->
<g id="node3" class="node">
<title>Node2</title>
<g id="a_node3"><a xlink:href="GeomVector3_8h.html" target="_top" xlink:title="iDynTree/Core/GeomVector3.h">
<polygon fill="none" stroke="#000000" points="214.5,-224.5 214.5,-243.5 377.5,-243.5 377.5,-224.5 214.5,-224.5"/>
<text text-anchor="middle" x="296" y="-231.5" font-family="FreeSans.ttf" font-size="10.00" fill="#000000">iDynTree/Core/GeomVector3.h</text>
</a>
</g>
</g>
<!-- Node0&#45;&gt;Node2 -->
<g id="edge2" class="edge">
<title>Node0&#45;&gt;Node2</title>
<path fill="none" stroke="#191970" d="M341.4197,-280.2455C333.4542,-272.1352 321.9359,-260.4075 312.4921,-250.7919"/>
<polygon fill="#191970" stroke="#191970" points="314.9747,-248.3247 305.4705,-243.6427 309.9805,-253.2297 314.9747,-248.3247"/>
</g>
<!-- Node3 -->
<g id="node4" class="node">
<title>Node3</title>
<g id="a_node4"><a xlink:href="VectorFixSize_8h.html" target="_top" xlink:title="iDynTree/Core/VectorFixSize.h">
<polygon fill="none" stroke="#000000" points="215.5,-168.5 215.5,-187.5 376.5,-187.5 376.5,-168.5 215.5,-168.5"/>
<text text-anchor="middle" x="296" y="-175.5" font-family="FreeSans.ttf" font-size="10.00" fill="#000000">iDynTree/Core/VectorFixSize.h</text>
</a>
</g>
</g>
<!-- Node0&#45;&gt;Node3 -->
<g id="edge36" class="edge">
<title>Node0&#45;&gt;Node3</title>
<path fill="none" stroke="#191970" d="M317.8457,-284.2138C279.0661,-276.6918 218.4377,-262.3227 205,-244 187.8982,-220.6812 221.0788,-202.2457 252.0644,-190.8526"/>
<polygon fill="#191970" stroke="#191970" points="253.2615,-194.1419 261.5521,-187.5453 250.9573,-187.532 253.2615,-194.1419"/>
</g>
<!-- Node18 -->
<g id="node19" class="node">
<title>Node18</title>
<g id="a_node19"><a xlink:href="RotationRaw_8h.html" target="_top" xlink:title="iDynTree/Core/RotationRaw.h">
<polygon fill="none" stroke="#000000" points="434,-224.5 434,-243.5 592,-243.5 592,-224.5 434,-224.5"/>
<text text-anchor="middle" x="513" y="-231.5" font-family="FreeSans.ttf" font-size="10.00" fill="#000000">iDynTree/Core/RotationRaw.h</text>
</a>
</g>
</g>
<!-- Node0&#45;&gt;Node18 -->
<g id="edge22" class="edge">
<title>Node0&#45;&gt;Node18</title>
<path fill="none" stroke="#191970" d="M378.8488,-280.3733C405.6703,-271.1016 446.4127,-257.0178 475.9598,-246.804"/>
<polygon fill="#191970" stroke="#191970" points="477.2069,-250.0762 485.5146,-243.5011 474.9198,-243.4603 477.2069,-250.0762"/>
</g>
<!-- Node2&#45;&gt;Node3 -->
<g id="edge3" class="edge">
<title>Node2&#45;&gt;Node3</title>
<path fill="none" stroke="#191970" d="M296,-224.2455C296,-216.9382 296,-206.6944 296,-197.7046"/>
<polygon fill="#191970" stroke="#191970" points="299.5001,-197.6426 296,-187.6427 292.5001,-197.6427 299.5001,-197.6426"/>
</g>
<!-- Node3&#45;&gt;Node1 -->
<g id="edge17" class="edge">
<title>Node3&#45;&gt;Node1</title>
<path fill="none" stroke="#191970" d="M309.4124,-168.2455C321.0057,-159.814 337.9748,-147.4729 351.4678,-137.6598"/>
<polygon fill="#191970" stroke="#191970" points="353.7126,-140.355 359.7413,-131.6427 349.5953,-134.6938 353.7126,-140.355"/>
</g>
<!-- Node4 -->
<g id="node5" class="node">
<title>Node4</title>
<g id="a_node5"><a xlink:href="Utils_8h.html" target="_top" xlink:title="iDynTree/Core/Utils.h">
<polygon fill="none" stroke="#000000" points="187.5,-56.5 187.5,-75.5 306.5,-75.5 306.5,-56.5 187.5,-56.5"/>
<text text-anchor="middle" x="247" y="-63.5" font-family="FreeSans.ttf" font-size="10.00" fill="#000000">iDynTree/Core/Utils.h</text>
</a>
</g>
</g>
<!-- Node3&#45;&gt;Node4 -->
<g id="edge4" class="edge">
<title>Node3&#45;&gt;Node4</title>
<path fill="none" stroke="#191970" d="M290.2024,-168.3444C284.8338,-159.1815 276.8244,-144.9279 271,-132 264.0448,-116.5623 257.5729,-98.451 253.1067,-85.1101"/>
<polygon fill="#191970" stroke="#191970" points="256.4228,-83.9897 249.984,-75.5758 249.7705,-86.1685 256.4228,-83.9897"/>
</g>
<!-- Node5 -->
<g id="node6" class="node">
<title>Node5</title>
<polygon fill="none" stroke="#bfbfbf" points="98.5,-.5 98.5,-19.5 151.5,-19.5 151.5,-.5 98.5,-.5"/>
<text text-anchor="middle" x="125" y="-7.5" font-family="FreeSans.ttf" font-size="10.00" fill="#000000">cstddef</text>
</g>
<!-- Node3&#45;&gt;Node5 -->
<g id="edge20" class="edge">
<title>Node3&#45;&gt;Node5</title>
<path fill="none" stroke="#191970" d="M283.2835,-168.267C260.9136,-150.8786 213.5279,-112.8384 178,-76 163.2716,-60.7284 148.2988,-41.6903 138.0418,-27.9914"/>
<polygon fill="#191970" stroke="#191970" points="140.7883,-25.8187 132.0323,-19.8535 135.1572,-29.977 140.7883,-25.8187"/>
</g>
<!-- Node7 -->
<g id="node8" class="node">
<title>Node7</title>
<g id="a_node8"><a xlink:href="Span_8h.html" target="_top" xlink:title="iDynTree/Core/Span.h">
<polygon fill="none" stroke="#000000" points="330.5,-56.5 330.5,-75.5 451.5,-75.5 451.5,-56.5 330.5,-56.5"/>
<text text-anchor="middle" x="391" y="-63.5" font-family="FreeSans.ttf" font-size="10.00" fill="#000000">iDynTree/Core/Span.h</text>
</a>
</g>
</g>
<!-- Node3&#45;&gt;Node7 -->
<g id="edge7" class="edge">
<title>Node3&#45;&gt;Node7</title>
<path fill="none" stroke="#191970" d="M295.4882,-168.0406C295.2825,-154.1662 296.8031,-128.8334 309,-112 319.4693,-97.5509 335.9489,-87.0542 351.3971,-79.769"/>
<polygon fill="#191970" stroke="#191970" points="353.0643,-82.8599 360.8195,-75.6414 350.2554,-76.4481 353.0643,-82.8599"/>
</g>
<!-- Node8 -->
<g id="node9" class="node">
<title>Node8</title>
<polygon fill="none" stroke="#bfbfbf" points="681,-.5 681,-19.5 733,-19.5 733,-.5 681,-.5"/>
<text text-anchor="middle" x="707" y="-7.5" font-family="FreeSans.ttf" font-size="10.00" fill="#000000">cassert</text>
</g>
<!-- Node3&#45;&gt;Node8 -->
<g id="edge19" class="edge">
<title>Node3&#45;&gt;Node8</title>
<path fill="none" stroke="#191970" d="M300.1117,-168.3306C306.764,-153.8613 321.2673,-126.7074 342,-112 349.1401,-106.9349 614.6577,-35.5207 670.9858,-20.1987"/>
<polygon fill="#191970" stroke="#191970" points="671.9137,-23.5736 680.6319,-17.5533 670.0623,-16.8229 671.9137,-23.5736"/>
</g>
<!-- Node16 -->
<g id="node17" class="node">
<title>Node16</title>
<polygon fill="none" stroke="#bfbfbf" points="481,-112.5 481,-131.5 537,-131.5 537,-112.5 481,-112.5"/>
<text text-anchor="middle" x="509" y="-119.5" font-family="FreeSans.ttf" font-size="10.00" fill="#000000">sstream</text>
</g>
<!-- Node3&#45;&gt;Node16 -->
<g id="edge18" class="edge">
<title>Node3&#45;&gt;Node16</title>
<path fill="none" stroke="#191970" d="M332.7662,-168.4856C366.3013,-159.7863 417.4876,-146.4556 470.7576,-132.3165"/>
<polygon fill="#191970" stroke="#191970" points="471.959,-135.6188 480.7248,-129.6679 470.1613,-128.8535 471.959,-135.6188"/>
</g>
<!-- Node17 -->
<g id="node18" class="node">
<title>Node17</title>
<polygon fill="none" stroke="#bfbfbf" points="413,-112.5 413,-131.5 463,-131.5 463,-112.5 413,-112.5"/>
<text text-anchor="middle" x="438" y="-119.5" font-family="FreeSans.ttf" font-size="10.00" fill="#000000">cstring</text>
</g>
<!-- Node3&#45;&gt;Node17 -->
<g id="edge21" class="edge">
<title>Node3&#45;&gt;Node17</title>
<path fill="none" stroke="#191970" d="M320.4107,-168.3733C343.6142,-159.2226 378.7038,-145.3844 404.5142,-135.2057"/>
<polygon fill="#191970" stroke="#191970" points="405.8892,-138.4258 413.9079,-131.5011 403.3211,-131.9139 405.8892,-138.4258"/>
</g>
<!-- Node4&#45;&gt;Node5 -->
<g id="edge5" class="edge">
<title>Node4&#45;&gt;Node5</title>
<path fill="none" stroke="#191970" d="M226.0275,-56.3733C206.4433,-47.3838 177.0039,-33.8706 154.949,-23.7471"/>
<polygon fill="#191970" stroke="#191970" points="156.2473,-20.4919 145.6989,-19.5011 153.3271,-26.8538 156.2473,-20.4919"/>
</g>
<!-- Node6 -->
<g id="node7" class="node">
<title>Node6</title>
<polygon fill="none" stroke="#bfbfbf" points="0,-.5 0,-19.5 80,-19.5 80,-.5 0,-.5"/>
<text text-anchor="middle" x="40" y="-7.5" font-family="FreeSans.ttf" font-size="10.00" fill="#000000">CoreExport.h</text>
</g>
<!-- Node4&#45;&gt;Node6 -->
<g id="edge6" class="edge">
<title>Node4&#45;&gt;Node6</title>
<path fill="none" stroke="#191970" d="M211.4154,-56.3733C176.3984,-46.9001 122.8119,-32.4032 84.8875,-22.1435"/>
<polygon fill="#191970" stroke="#191970" points="85.6873,-18.7341 75.1202,-19.5011 83.8592,-25.4912 85.6873,-18.7341"/>
</g>
<!-- Node7&#45;&gt;Node5 -->
<g id="edge11" class="edge">
<title>Node7&#45;&gt;Node5</title>
<path fill="none" stroke="#191970" d="M337.312,-56.4187C292.7355,-48.2013 227.4778,-35.5683 161.4281,-19.9692"/>
<polygon fill="#191970" stroke="#191970" points="162.2186,-16.5596 151.6797,-17.6463 160.596,-23.369 162.2186,-16.5596"/>
</g>
<!-- Node7&#45;&gt;Node8 -->
<g id="edge8" class="edge">
<title>Node7&#45;&gt;Node8</title>
<path fill="none" stroke="#191970" d="M451.6854,-58.14C506.6286,-50.5543 589.9272,-37.8885 670.8553,-20.0644"/>
<polygon fill="#191970" stroke="#191970" points="671.7131,-23.4591 680.7107,-17.8651 670.1885,-16.6272 671.7131,-23.4591"/>
</g>
<!-- Node9 -->
<g id="node10" class="node">
<title>Node9</title>
<polygon fill="none" stroke="#bfbfbf" points="511,-.5 511,-19.5 575,-19.5 575,-.5 511,-.5"/>
<text text-anchor="middle" x="543" y="-7.5" font-family="FreeSans.ttf" font-size="10.00" fill="#000000">algorithm</text>
</g>
<!-- Node7&#45;&gt;Node9 -->
<g id="edge9" class="edge">
<title>Node7&#45;&gt;Node9</title>
<path fill="none" stroke="#191970" d="M417.1297,-56.3733C442.0768,-47.1822 479.8592,-33.2624 507.5206,-23.0713"/>
<polygon fill="#191970" stroke="#191970" points="509.0378,-26.2424 517.2112,-19.5011 506.6178,-19.674 509.0378,-26.2424"/>
</g>
<!-- Node10 -->
<g id="node11" class="node">
<title>Node10</title>
<polygon fill="none" stroke="#bfbfbf" points="170,-.5 170,-19.5 212,-19.5 212,-.5 170,-.5"/>
<text text-anchor="middle" x="191" y="-7.5" font-family="FreeSans.ttf" font-size="10.00" fill="#000000">array</text>
</g>
<!-- Node7&#45;&gt;Node10 -->
<g id="edge10" class="edge">
<title>Node7&#45;&gt;Node10</title>
<path fill="none" stroke="#191970" d="M353.3477,-56.475C320.8746,-48.1128 272.5238,-35.3124 222.0407,-20.203"/>
<polygon fill="#191970" stroke="#191970" points="222.8418,-16.789 212.2571,-17.2535 220.8212,-23.491 222.8418,-16.789"/>
</g>
<!-- Node11 -->
<g id="node12" class="node">
<title>Node11</title>
<polygon fill="none" stroke="#bfbfbf" points="230.5,-.5 230.5,-19.5 283.5,-19.5 283.5,-.5 230.5,-.5"/>
<text text-anchor="middle" x="257" y="-7.5" font-family="FreeSans.ttf" font-size="10.00" fill="#000000">iterator</text>
</g>
<!-- Node7&#45;&gt;Node11 -->
<g id="edge12" class="edge">
<title>Node7&#45;&gt;Node11</title>
<path fill="none" stroke="#191970" d="M367.9646,-56.3733C346.2612,-47.3032 313.5382,-33.6279 289.245,-23.4755"/>
<polygon fill="#191970" stroke="#191970" points="290.3111,-20.1278 279.7348,-19.5011 287.6119,-26.5865 290.3111,-20.1278"/>
</g>
<!-- Node12 -->
<g id="node13" class="node">
<title>Node12</title>
<polygon fill="none" stroke="#bfbfbf" points="302,-.5 302,-19.5 346,-19.5 346,-.5 302,-.5"/>
<text text-anchor="middle" x="324" y="-7.5" font-family="FreeSans.ttf" font-size="10.00" fill="#000000">limits</text>
</g>
<!-- Node7&#45;&gt;Node12 -->
<g id="edge13" class="edge">
<title>Node7&#45;&gt;Node12</title>
<path fill="none" stroke="#191970" d="M379.3295,-56.2455C369.4339,-47.9746 355.0373,-35.9416 343.4099,-26.2232"/>
<polygon fill="#191970" stroke="#191970" points="345.4542,-23.3703 335.5368,-19.6427 340.965,-28.7413 345.4542,-23.3703"/>
</g>
<!-- Node13 -->
<g id="node14" class="node">
<title>Node13</title>
<polygon fill="none" stroke="#bfbfbf" points="364.5,-.5 364.5,-19.5 429.5,-19.5 429.5,-.5 364.5,-.5"/>
<text text-anchor="middle" x="397" y="-7.5" font-family="FreeSans.ttf" font-size="10.00" fill="#000000">stdexcept</text>
</g>
<!-- Node7&#45;&gt;Node13 -->
<g id="edge14" class="edge">
<title>Node7&#45;&gt;Node13</title>
<path fill="none" stroke="#191970" d="M392.0451,-56.2455C392.828,-48.9382 393.9256,-38.6944 394.8888,-29.7046"/>
<polygon fill="#191970" stroke="#191970" points="398.3815,-29.9587 395.9669,-19.6427 391.4214,-29.2129 398.3815,-29.9587"/>
</g>
<!-- Node14 -->
<g id="node15" class="node">
<title>Node14</title>
<polygon fill="none" stroke="#bfbfbf" points="593.5,-.5 593.5,-19.5 662.5,-19.5 662.5,-.5 593.5,-.5"/>
<text text-anchor="middle" x="628" y="-7.5" font-family="FreeSans.ttf" font-size="10.00" fill="#000000">type_traits</text>
</g>
<!-- Node7&#45;&gt;Node14 -->
<g id="edge15" class="edge">
<title>Node7&#45;&gt;Node14</title>
<path fill="none" stroke="#191970" d="M431.4725,-56.4369C473.7878,-46.4383 539.999,-30.7935 583.6934,-20.4691"/>
<polygon fill="#191970" stroke="#191970" points="584.5452,-23.8643 593.4723,-18.1584 582.9354,-17.0519 584.5452,-23.8643"/>
</g>
<!-- Node15 -->
<g id="node16" class="node">
<title>Node15</title>
<polygon fill="none" stroke="#bfbfbf" points="447.5,-.5 447.5,-19.5 492.5,-19.5 492.5,-.5 447.5,-.5"/>
<text text-anchor="middle" x="470" y="-7.5" font-family="FreeSans.ttf" font-size="10.00" fill="#000000">utility</text>
</g>
<!-- Node7&#45;&gt;Node15 -->
<g id="edge16" class="edge">
<title>Node7&#45;&gt;Node15</title>
<path fill="none" stroke="#191970" d="M404.7607,-56.2455C416.6552,-47.814 434.065,-35.4729 447.9085,-25.6598"/>
<polygon fill="#191970" stroke="#191970" points="450.2628,-28.2811 456.3969,-19.6427 446.2146,-22.5704 450.2628,-28.2811"/>
</g>
<!-- Node18&#45;&gt;Node1 -->
<g id="edge35" class="edge">
<title>Node18&#45;&gt;Node1</title>
<path fill="none" stroke="#191970" d="M501.0637,-224.4509C476.9901,-205.1921 422.4023,-161.5218 392.8669,-137.8935"/>
<polygon fill="#191970" stroke="#191970" points="394.9013,-135.0388 384.9061,-131.5249 390.5284,-140.5049 394.9013,-135.0388"/>
</g>
<!-- Node19 -->
<g id="node20" class="node">
<title>Node19</title>
<g id="a_node20"><a xlink:href="MatrixFixSize_8h.html" target="_top" xlink:title="iDynTree/Core/MatrixFixSize.h">
<polygon fill="none" stroke="#000000" points="481.5,-168.5 481.5,-187.5 642.5,-187.5 642.5,-168.5 481.5,-168.5"/>
<text text-anchor="middle" x="562" y="-175.5" font-family="FreeSans.ttf" font-size="10.00" fill="#000000">iDynTree/Core/MatrixFixSize.h</text>
</a>
</g>
</g>
<!-- Node18&#45;&gt;Node19 -->
<g id="edge23" class="edge">
<title>Node18&#45;&gt;Node19</title>
<path fill="none" stroke="#191970" d="M521.5351,-224.2455C528.4912,-216.2958 538.4883,-204.8706 546.8051,-195.3656"/>
<polygon fill="#191970" stroke="#191970" points="549.6116,-197.4732 553.5627,-187.6427 544.3436,-192.8637 549.6116,-197.4732"/>
</g>
<!-- Node19&#45;&gt;Node1 -->
<g id="edge32" class="edge">
<title>Node19&#45;&gt;Node1</title>
<path fill="none" stroke="#191970" d="M528.3206,-168.4978C498.2783,-159.9546 452.8679,-146.8775 404.9418,-132.2352"/>
<polygon fill="#191970" stroke="#191970" points="405.9136,-128.8724 395.3269,-129.2868 403.8613,-135.5648 405.9136,-128.8724"/>
</g>
<!-- Node19&#45;&gt;Node4 -->
<g id="edge24" class="edge">
<title>Node19&#45;&gt;Node4</title>
<path fill="none" stroke="#191970" d="M562.7242,-168.282C563.2245,-153.7491 561.8056,-126.5134 546,-112 541.773,-108.1185 403.8713,-88.085 316.8449,-75.7708"/>
<polygon fill="#191970" stroke="#191970" points="317.1498,-72.2792 306.7585,-74.3459 316.1706,-79.2104 317.1498,-72.2792"/>
</g>
<!-- Node19&#45;&gt;Node8 -->
<g id="edge30" class="edge">
<title>Node19&#45;&gt;Node8</title>
<path fill="none" stroke="#191970" d="M642.602,-168.7417C688.6124,-161.6141 739.8842,-149.8972 754,-132 779.3838,-99.8163 745.5678,-52.33 723.4416,-27.1453"/>
<polygon fill="#191970" stroke="#191970" points="725.8105,-24.5485 716.4884,-19.5137 720.6361,-29.263 725.8105,-24.5485"/>
</g>
<!-- Node19&#45;&gt;Node16 -->
<g id="edge34" class="edge">
<title>Node19&#45;&gt;Node16</title>
<path fill="none" stroke="#191970" d="M552.7681,-168.2455C545.1683,-160.2155 534.2123,-148.6394 525.1632,-139.0781"/>
<polygon fill="#191970" stroke="#191970" points="527.542,-136.4998 518.1261,-131.6427 522.4579,-141.3115 527.542,-136.4998"/>
</g>
<!-- Node19&#45;&gt;Node17 -->
<g id="edge31" class="edge">
<title>Node19&#45;&gt;Node17</title>
<path fill="none" stroke="#191970" d="M540.6836,-168.3733C520.7784,-159.3838 490.8564,-145.8706 468.44,-135.7471"/>
<polygon fill="#191970" stroke="#191970" points="469.5925,-132.4272 459.0382,-131.5011 466.7113,-138.8068 469.5925,-132.4272"/>
</g>
<!-- Node20 -->
<g id="node21" class="node">
<title>Node20</title>
<g id="a_node21"><a xlink:href="MatrixView_8h.html" target="_top" xlink:title="iDynTree/Core/MatrixView.h">
<polygon fill="none" stroke="#000000" points="593.5,-112.5 593.5,-131.5 744.5,-131.5 744.5,-112.5 593.5,-112.5"/>
<text text-anchor="middle" x="669" y="-119.5" font-family="FreeSans.ttf" font-size="10.00" fill="#000000">iDynTree/Core/MatrixView.h</text>
</a>
</g>
</g>
<!-- Node19&#45;&gt;Node20 -->
<g id="edge25" class="edge">
<title>Node19&#45;&gt;Node20</title>
<path fill="none" stroke="#191970" d="M580.638,-168.2455C597.4386,-159.4527 622.3634,-146.4079 641.4618,-136.4125"/>
<polygon fill="#191970" stroke="#191970" points="643.3386,-139.3807 650.5756,-131.6427 640.0927,-133.1787 643.3386,-139.3807"/>
</g>
<!-- Node21 -->
<g id="node22" class="node">
<title>Node21</title>
<polygon fill="none" stroke="#bfbfbf" points="801,-112.5 801,-131.5 861,-131.5 861,-112.5 801,-112.5"/>
<text text-anchor="middle" x="831" y="-119.5" font-family="FreeSans.ttf" font-size="10.00" fill="#000000">iostream</text>
</g>
<!-- Node19&#45;&gt;Node21 -->
<g id="edge33" class="edge">
<title>Node19&#45;&gt;Node21</title>
<path fill="none" stroke="#191970" d="M610.3436,-168.4333C655.9505,-159.3332 726.202,-145.1221 787,-132 788.2491,-131.7304 789.5177,-131.4546 790.7982,-131.1744"/>
<polygon fill="#191970" stroke="#191970" points="791.7182,-134.5554 800.7226,-128.9724 790.2019,-127.7216 791.7182,-134.5554"/>
</g>
<!-- Node20&#45;&gt;Node4 -->
<g id="edge29" class="edge">
<title>Node20&#45;&gt;Node4</title>
<path fill="none" stroke="#191970" d="M596.8901,-112.4569C526.7033,-103.1645 417.0287,-88.634 322,-76 320.2991,-75.7739 318.5764,-75.5448 316.8388,-75.3136"/>
<polygon fill="#191970" stroke="#191970" points="317.1428,-71.8233 306.7684,-73.9733 316.2192,-78.7621 317.1428,-71.8233"/>
</g>
<!-- Node20&#45;&gt;Node7 -->
<g id="edge28" class="edge">
<title>Node20&#45;&gt;Node7</title>
<path fill="none" stroke="#191970" d="M621.526,-112.4369C573.5486,-102.7724 499.383,-87.8326 448.1949,-77.5213"/>
<polygon fill="#191970" stroke="#191970" points="448.7725,-74.0674 438.2782,-75.5237 447.3901,-80.9296 448.7725,-74.0674"/>
</g>
<!-- Node20&#45;&gt;Node8 -->
<g id="edge26" class="edge">
<title>Node20&#45;&gt;Node8</title>
<path fill="none" stroke="#191970" d="M672.2399,-112.4509C678.4937,-94.0186 692.3342,-53.2254 700.539,-29.043"/>
<polygon fill="#191970" stroke="#191970" points="703.8697,-30.1192 703.7683,-19.5249 697.2409,-27.8701 703.8697,-30.1192"/>
</g>
<!-- Node20&#45;&gt;Node14 -->
<g id="edge27" class="edge">
<title>Node20&#45;&gt;Node14</title>
<path fill="none" stroke="#191970" d="M665.5044,-112.4509C658.7568,-94.0186 643.8236,-53.2254 634.9711,-29.043"/>
<polygon fill="#191970" stroke="#191970" points="638.2112,-27.7123 631.4868,-19.5249 631.6378,-30.1187 638.2112,-27.7123"/>
</g>
</g>
</svg>
