<?xml version="1.0" encoding="UTF-8" standalone="no"?>
<!DOCTYPE svg PUBLIC "-//W3C//DTD SVG 1.1//EN"
 "http://www.w3.org/Graphics/SVG/1.1/DTD/svg11.dtd">
<!-- Generated by graphviz version 2.40.1 (20161225.0304)
 -->
<!-- Title: Sensors.h Pages: 1 -->
<svg width="4469pt" height="218pt"
 viewBox="0.00 0.00 4469.00 218.00" xmlns="http://www.w3.org/2000/svg" xmlns:xlink="http://www.w3.org/1999/xlink">
<g id="graph0" class="graph" transform="scale(1 1) rotate(0) translate(4 214)">
<title>Sensors.h</title>
<!-- Node45 -->
<g id="node1" class="node">
<title>Node45</title>
<polygon fill="#bfbfbf" stroke="#000000" points="1691.5,-190.5 1691.5,-209.5 1755.5,-209.5 1755.5,-190.5 1691.5,-190.5"/>
<text text-anchor="middle" x="1723.5" y="-197.5" font-family="FreeSans.ttf" font-size="10.00" fill="#000000">Sensors.h</text>
</g>
<!-- Node46 -->
<g id="node2" class="node">
<title>Node46</title>
<g id="a_node2"><a xlink:href="BerdyHelper_8h.html" target="_top" xlink:title="BerdyHelper.h">
<polygon fill="none" stroke="#000000" points="107.5,-129 107.5,-148 193.5,-148 193.5,-129 107.5,-129"/>
<text text-anchor="middle" x="150.5" y="-136" font-family="FreeSans.ttf" font-size="10.00" fill="#000000">BerdyHelper.h</text>
</a>
</g>
</g>
<!-- Node45&#45;&gt;Node46 -->
<g id="edge1" class="edge">
<title>Node45&#45;&gt;Node46</title>
<path fill="none" stroke="#191970" d="M1680.8244,-198.6682C1520.3173,-193.6129 937.5656,-174.8394 457.5,-154 363.3968,-149.915 253.122,-144.095 193.7062,-140.8742"/>
<polygon fill="#191970" stroke="#191970" points="1681.1081,-202.1788 1691.2132,-198.9948 1681.3281,-195.1823 1681.1081,-202.1788"/>
</g>
<!-- Node47 -->
<g id="node3" class="node">
<title>Node47</title>
<g id="a_node3"><a xlink:href="BerdyHelper_8cpp.html" target="_top" xlink:title="BerdyHelper.cpp">
<polygon fill="none" stroke="#000000" points="0,-.5 0,-19.5 97,-19.5 97,-.5 0,-.5"/>
<text text-anchor="middle" x="48.5" y="-7.5" font-family="FreeSans.ttf" font-size="10.00" fill="#000000">BerdyHelper.cpp</text>
</a>
</g>
</g>
<!-- Node45&#45;&gt;Node47 -->
<g id="edge6" class="edge">
<title>Node45&#45;&gt;Node47</title>
<path fill="none" stroke="#191970" d="M1681.0849,-199.8604C1432.2362,-198.909 170.3565,-192.2092 98.5,-154 66.1572,-136.802 62.1554,-121.7272 50.5,-87 42.756,-63.9268 45.0121,-34.7425 46.9635,-19.7983"/>
<polygon fill="#191970" stroke="#191970" points="1681.1615,-203.3606 1691.1745,-199.8979 1681.1876,-196.3607 1681.1615,-203.3606"/>
</g>
<!-- Node49 -->
<g id="node5" class="node">
<title>Node49</title>
<g id="a_node5"><a xlink:href="ExtWrenchesAndJointTorquesEstimator_8h.html" target="_top" xlink:title="ExtWrenchesAndJointTorques\lEstimator.h">
<polygon fill="none" stroke="#000000" points="1883.5,-123.5 1883.5,-153.5 2041.5,-153.5 2041.5,-123.5 1883.5,-123.5"/>
<text text-anchor="start" x="1891.5" y="-141.5" font-family="FreeSans.ttf" font-size="10.00" fill="#000000">ExtWrenchesAndJointTorques</text>
<text text-anchor="middle" x="1962.5" y="-130.5" font-family="FreeSans.ttf" font-size="10.00" fill="#000000">Estimator.h</text>
</a>
</g>
</g>
<!-- Node45&#45;&gt;Node49 -->
<g id="edge4" class="edge">
<title>Node45&#45;&gt;Node49</title>
<path fill="none" stroke="#191970" d="M1765.5402,-189.1821C1803.882,-179.3159 1860.918,-164.6393 1903.759,-153.6154"/>
<polygon fill="#191970" stroke="#191970" points="1764.5449,-185.8241 1755.7326,-191.7058 1766.2894,-192.6033 1764.5449,-185.8241"/>
</g>
<!-- Node50 -->
<g id="node6" class="node">
<title>Node50</title>
<g id="a_node6"><a xlink:href="ExtWrenchesAndJointTorquesEstimator_8cpp.html" target="_top" xlink:title="ExtWrenchesAndJointTorques\lEstimator.cpp">
<polygon fill="none" stroke="#000000" points="2080.5,-56.5 2080.5,-86.5 2238.5,-86.5 2238.5,-56.5 2080.5,-56.5"/>
<text text-anchor="start" x="2088.5" y="-74.5" font-family="FreeSans.ttf" font-size="10.00" fill="#000000">ExtWrenchesAndJointTorques</text>
<text text-anchor="middle" x="2159.5" y="-63.5" font-family="FreeSans.ttf" font-size="10.00" fill="#000000">Estimator.cpp</text>
</a>
</g>
</g>
<!-- Node45&#45;&gt;Node50 -->
<g id="edge8" class="edge">
<title>Node45&#45;&gt;Node50</title>
<path fill="none" stroke="#191970" d="M1765.9545,-196.698C1842.3804,-190.3153 1999.8739,-175.0367 2050.5,-154 2088.634,-138.1541 2125.2849,-105.7358 2144.8518,-86.5936"/>
<polygon fill="#191970" stroke="#191970" points="1765.4074,-193.2311 1755.728,-197.5393 1765.9814,-200.2075 1765.4074,-193.2311"/>
</g>
<!-- Node51 -->
<g id="node7" class="node">
<title>Node51</title>
<g id="a_node7"><a xlink:href="ExternalWrenchesEstimation_8cpp.html" target="_top" xlink:title="ExternalWrenchesEstimation.cpp">
<polygon fill="none" stroke="#000000" points="1700,-62 1700,-81 1877,-81 1877,-62 1700,-62"/>
<text text-anchor="middle" x="1788.5" y="-69" font-family="FreeSans.ttf" font-size="10.00" fill="#000000">ExternalWrenchesEstimation.cpp</text>
</a>
</g>
</g>
<!-- Node45&#45;&gt;Node51 -->
<g id="edge7" class="edge">
<title>Node45&#45;&gt;Node51</title>
<path fill="none" stroke="#191970" d="M1732.9696,-181.2794C1746.9911,-153.56 1772.7765,-102.5841 1783.5577,-81.2705"/>
<polygon fill="#191970" stroke="#191970" points="1729.7762,-179.8384 1728.3856,-190.3416 1736.0225,-182.9981 1729.7762,-179.8384"/>
</g>
<!-- Node52 -->
<g id="node8" class="node">
<title>Node52</title>
<g id="a_node8"><a xlink:href="ModelCalibrationHelper_8h.html" target="_top" xlink:title="ModelCalibrationHelper.h">
<polygon fill="none" stroke="#000000" points="2594.5,-62 2594.5,-81 2734.5,-81 2734.5,-62 2594.5,-62"/>
<text text-anchor="middle" x="2664.5" y="-69" font-family="FreeSans.ttf" font-size="10.00" fill="#000000">ModelCalibrationHelper.h</text>
</a>
</g>
</g>
<!-- Node45&#45;&gt;Node52 -->
<g id="edge9" class="edge">
<title>Node45&#45;&gt;Node52</title>
<path fill="none" stroke="#191970" d="M1765.8492,-199.2513C1902.9169,-196.5357 2333.3874,-185.6411 2468.5,-154 2537.8773,-137.753 2614.0481,-99.1125 2647.3367,-81.0781"/>
<polygon fill="#191970" stroke="#191970" points="1765.6746,-195.7539 1755.7443,-199.4471 1765.8103,-202.7526 1765.6746,-195.7539"/>
</g>
<!-- Node54 -->
<g id="node10" class="node">
<title>Node54</title>
<g id="a_node10"><a xlink:href="ModelExporter_8h.html" target="_top" xlink:title="ModelExporter.h">
<polygon fill="none" stroke="#000000" points="2715,-129 2715,-148 2810,-148 2810,-129 2715,-129"/>
<text text-anchor="middle" x="2762.5" y="-136" font-family="FreeSans.ttf" font-size="10.00" fill="#000000">ModelExporter.h</text>
</a>
</g>
</g>
<!-- Node45&#45;&gt;Node54 -->
<g id="edge11" class="edge">
<title>Node45&#45;&gt;Node54</title>
<path fill="none" stroke="#191970" d="M1765.8463,-198.5399C1893.4382,-193.9817 2285.3503,-178.819 2609.5,-154 2644.7722,-151.2993 2684.5189,-147.242 2714.6593,-143.9559"/>
<polygon fill="#191970" stroke="#191970" points="1765.5892,-195.0467 1755.7196,-198.8991 1765.8374,-202.0423 1765.5892,-195.0467"/>
</g>
<!-- Node58 -->
<g id="node14" class="node">
<title>Node58</title>
<g id="a_node14"><a xlink:href="ModelLoader_8h.html" target="_top" xlink:title="ModelLoader.h">
<polygon fill="none" stroke="#000000" points="3507,-129 3507,-148 3594,-148 3594,-129 3507,-129"/>
<text text-anchor="middle" x="3550.5" y="-136" font-family="FreeSans.ttf" font-size="10.00" fill="#000000">ModelLoader.h</text>
</a>
</g>
</g>
<!-- Node45&#45;&gt;Node58 -->
<g id="edge18" class="edge">
<title>Node45&#45;&gt;Node58</title>
<path fill="none" stroke="#191970" d="M1765.9165,-198.5722C2012.2744,-190.2794 3256.8024,-148.3864 3506.7445,-139.9729"/>
<polygon fill="#191970" stroke="#191970" points="1765.4742,-195.085 1755.5976,-198.9195 1765.7097,-202.081 1765.4742,-195.085"/>
</g>
<!-- Node62 -->
<g id="node18" class="node">
<title>Node62</title>
<g id="a_node18"><a xlink:href="URDFDocument_8h.html" target="_top" xlink:title="URDFDocument.h">
<polygon fill="none" stroke="#000000" points="2960,-62 2960,-81 3063,-81 3063,-62 2960,-62"/>
<text text-anchor="middle" x="3011.5" y="-69" font-family="FreeSans.ttf" font-size="10.00" fill="#000000">URDFDocument.h</text>
</a>
</g>
</g>
<!-- Node45&#45;&gt;Node62 -->
<g id="edge41" class="edge">
<title>Node45&#45;&gt;Node62</title>
<path fill="none" stroke="#191970" d="M1765.6817,-199.1342C1954.2769,-195.1408 2715.5056,-177.6803 2819.5,-154 2887.9501,-138.4134 2962.617,-99.2552 2994.9955,-81.064"/>
<polygon fill="#191970" stroke="#191970" points="1765.5317,-195.6365 1755.6076,-199.3462 1765.679,-202.6349 1765.5317,-195.6365"/>
</g>
<!-- Node71 -->
<g id="node27" class="node">
<title>Node71</title>
<g id="a_node27"><a xlink:href="SensorElement_8h.html" target="_top" xlink:title="SensorElement.h">
<polygon fill="none" stroke="#000000" points="2324,-129 2324,-148 2423,-148 2423,-129 2324,-129"/>
<text text-anchor="middle" x="2373.5" y="-136" font-family="FreeSans.ttf" font-size="10.00" fill="#000000">SensorElement.h</text>
</a>
</g>
</g>
<!-- Node45&#45;&gt;Node71 -->
<g id="edge34" class="edge">
<title>Node45&#45;&gt;Node71</title>
<path fill="none" stroke="#191970" d="M1765.9263,-195.9858C1881.2396,-185.0754 2200.0216,-154.9137 2323.6221,-143.2192"/>
<polygon fill="#191970" stroke="#191970" points="1765.3594,-192.5237 1755.7336,-196.9502 1766.0189,-199.4926 1765.3594,-192.5237"/>
</g>
<!-- Node74 -->
<g id="node30" class="node">
<title>Node74</title>
<g id="a_node30"><a xlink:href="SensorElement_8cpp.html" target="_top" xlink:title="SensorElement.cpp">
<polygon fill="none" stroke="#000000" points="1359.5,-.5 1359.5,-19.5 1469.5,-19.5 1469.5,-.5 1359.5,-.5"/>
<text text-anchor="middle" x="1414.5" y="-7.5" font-family="FreeSans.ttf" font-size="10.00" fill="#000000">SensorElement.cpp</text>
</a>
</g>
</g>
<!-- Node45&#45;&gt;Node74 -->
<g id="edge43" class="edge">
<title>Node45&#45;&gt;Node74</title>
<path fill="none" stroke="#191970" d="M1680.9062,-196.6309C1616.2631,-189.0648 1494.4766,-164.7219 1433.5,-87 1417.6919,-66.8507 1414.825,-35.3331 1414.4391,-19.6034"/>
<polygon fill="#191970" stroke="#191970" points="1680.8308,-200.1433 1691.1506,-197.7449 1681.5876,-193.1843 1680.8308,-200.1433"/>
</g>
<!-- Node75 -->
<g id="node31" class="node">
<title>Node75</title>
<g id="a_node31"><a xlink:href="RobotElement_8cpp.html" target="_top" xlink:title="RobotElement.cpp">
<polygon fill="none" stroke="#000000" points="2471,-62 2471,-81 2576,-81 2576,-62 2471,-62"/>
<text text-anchor="middle" x="2523.5" y="-69" font-family="FreeSans.ttf" font-size="10.00" fill="#000000">RobotElement.cpp</text>
</a>
</g>
</g>
<!-- Node45&#45;&gt;Node75 -->
<g id="edge42" class="edge">
<title>Node45&#45;&gt;Node75</title>
<path fill="none" stroke="#191970" d="M1765.8289,-198.8759C1909.2351,-194.8448 2371.2086,-179.9582 2432.5,-154 2470.3979,-137.9494 2502.8749,-99.2092 2516.5646,-81.1138"/>
<polygon fill="#191970" stroke="#191970" points="1765.5713,-195.3816 1755.6725,-199.1582 1765.7659,-202.3789 1765.5713,-195.3816"/>
</g>
<!-- Node76 -->
<g id="node32" class="node">
<title>Node76</title>
<g id="a_node32"><a xlink:href="AccelerometerSensor_8h.html" target="_top" xlink:title="AccelerometerSensor.h">
<polygon fill="none" stroke="#000000" points="703,-129 703,-148 832,-148 832,-129 703,-129"/>
<text text-anchor="middle" x="767.5" y="-136" font-family="FreeSans.ttf" font-size="10.00" fill="#000000">AccelerometerSensor.h</text>
</a>
</g>
</g>
<!-- Node45&#45;&gt;Node76 -->
<g id="edge44" class="edge">
<title>Node45&#45;&gt;Node76</title>
<path fill="none" stroke="#191970" d="M1681.3741,-199.6434C1555.3273,-198.1752 1170.2485,-190.7709 853.5,-154 840.6906,-152.513 826.9064,-150.3046 814.2068,-148.0179"/>
<polygon fill="#191970" stroke="#191970" points="1681.3451,-203.1432 1691.3831,-199.7536 1681.4223,-196.1436 1681.3451,-203.1432"/>
</g>
<!-- Node79 -->
<g id="node35" class="node">
<title>Node79</title>
<g id="a_node35"><a xlink:href="PredictSensorsMeasurements_8cpp.html" target="_top" xlink:title="PredictSensorsMeasurements.cpp">
<polygon fill="none" stroke="#000000" points="1205,-62 1205,-81 1386,-81 1386,-62 1205,-62"/>
<text text-anchor="middle" x="1295.5" y="-69" font-family="FreeSans.ttf" font-size="10.00" fill="#000000">PredictSensorsMeasurements.cpp</text>
</a>
</g>
</g>
<!-- Node45&#45;&gt;Node79 -->
<g id="edge75" class="edge">
<title>Node45&#45;&gt;Node79</title>
<path fill="none" stroke="#191970" d="M1681.2439,-196.7207C1605.5862,-190.3996 1450.2487,-175.2517 1400.5,-154 1359.5671,-136.5143 1320.9711,-98.8509 1304.2313,-81.112"/>
<polygon fill="#191970" stroke="#191970" points="1681.1181,-200.2221 1691.3714,-197.5538 1681.692,-193.2457 1681.1181,-200.2221"/>
</g>
<!-- Node80 -->
<g id="node36" class="node">
<title>Node80</title>
<g id="a_node36"><a xlink:href="Sensors_8cpp.html" target="_top" xlink:title="Sensors.cpp">
<polygon fill="none" stroke="#000000" points="421,-62 421,-81 496,-81 496,-62 421,-62"/>
<text text-anchor="middle" x="458.5" y="-69" font-family="FreeSans.ttf" font-size="10.00" fill="#000000">Sensors.cpp</text>
</a>
</g>
</g>
<!-- Node45&#45;&gt;Node80 -->
<g id="edge76" class="edge">
<title>Node45&#45;&gt;Node80</title>
<path fill="none" stroke="#191970" d="M1681.2836,-199.2244C1476.441,-195.3512 593.7123,-177.3591 540.5,-154 504.812,-138.3337 476.3281,-99.3984 464.47,-81.1836"/>
<polygon fill="#191970" stroke="#191970" points="1681.2816,-202.7249 1691.3457,-199.4135 1681.4133,-195.7261 1681.2816,-202.7249"/>
</g>
<!-- Node81 -->
<g id="node37" class="node">
<title>Node81</title>
<g id="a_node37"><a xlink:href="GyroscopeSensor_8h.html" target="_top" xlink:title="GyroscopeSensor.h">
<polygon fill="none" stroke="#000000" points="549.5,-129 549.5,-148 659.5,-148 659.5,-129 549.5,-129"/>
<text text-anchor="middle" x="604.5" y="-136" font-family="FreeSans.ttf" font-size="10.00" fill="#000000">GyroscopeSensor.h</text>
</a>
</g>
</g>
<!-- Node45&#45;&gt;Node81 -->
<g id="edge51" class="edge">
<title>Node45&#45;&gt;Node81</title>
<path fill="none" stroke="#191970" d="M1681.2186,-198.834C1512.8605,-194.0794 889.8111,-175.3895 693.5,-154 680.2471,-152.556 665.9831,-150.3621 652.8406,-148.0755"/>
<polygon fill="#191970" stroke="#191970" points="1681.3201,-202.3382 1691.4146,-199.1206 1681.5169,-195.3409 1681.3201,-202.3382"/>
</g>
<!-- Node83 -->
<g id="node39" class="node">
<title>Node83</title>
<g id="a_node39"><a xlink:href="SixAxisForceTorqueSensor_8h.html" target="_top" xlink:title="SixAxisForceTorqueSensor.h">
<polygon fill="none" stroke="#000000" points="1570.5,-129 1570.5,-148 1722.5,-148 1722.5,-129 1570.5,-129"/>
<text text-anchor="middle" x="1646.5" y="-136" font-family="FreeSans.ttf" font-size="10.00" fill="#000000">SixAxisForceTorqueSensor.h</text>
</a>
</g>
</g>
<!-- Node45&#45;&gt;Node83 -->
<g id="edge57" class="edge">
<title>Node45&#45;&gt;Node83</title>
<path fill="none" stroke="#191970" d="M1703.6542,-184.1491C1689.347,-172.722 1670.5076,-157.6749 1658.4468,-148.0419"/>
<polygon fill="#191970" stroke="#191970" points="1701.4708,-186.8846 1711.4688,-190.3906 1705.8394,-181.415 1701.4708,-186.8846"/>
</g>
<!-- Node84 -->
<g id="node40" class="node">
<title>Node84</title>
<g id="a_node40"><a xlink:href="ModelSensorsTransformers_8cpp.html" target="_top" xlink:title="ModelSensorsTransformers.cpp">
<polygon fill="none" stroke="#000000" points="1894.5,-62 1894.5,-81 2062.5,-81 2062.5,-62 1894.5,-62"/>
<text text-anchor="middle" x="1978.5" y="-69" font-family="FreeSans.ttf" font-size="10.00" fill="#000000">ModelSensorsTransformers.cpp</text>
</a>
</g>
</g>
<!-- Node45&#45;&gt;Node84 -->
<g id="edge74" class="edge">
<title>Node45&#45;&gt;Node84</title>
<path fill="none" stroke="#191970" d="M1751.1556,-185.7744C1781.3984,-170.2468 1831.3191,-144.7002 1874.5,-123 1903.8443,-108.2533 1937.9832,-91.4069 1958.9146,-81.1132"/>
<polygon fill="#191970" stroke="#191970" points="1749.3571,-182.7635 1742.0614,-190.4462 1752.5557,-188.9899 1749.3571,-182.7635"/>
</g>
<!-- Node86 -->
<g id="node42" class="node">
<title>Node86</title>
<g id="a_node42"><a xlink:href="ThreeAxisAngularAccelerometerSensor_8h.html" target="_top" xlink:title="ThreeAxisAngularAccelerometer\lSensor.h">
<polygon fill="none" stroke="#000000" points="1107.5,-123.5 1107.5,-153.5 1281.5,-153.5 1281.5,-123.5 1107.5,-123.5"/>
<text text-anchor="start" x="1115.5" y="-141.5" font-family="FreeSans.ttf" font-size="10.00" fill="#000000">ThreeAxisAngularAccelerometer</text>
<text text-anchor="middle" x="1194.5" y="-130.5" font-family="FreeSans.ttf" font-size="10.00" fill="#000000">Sensor.h</text>
</a>
</g>
</g>
<!-- Node45&#45;&gt;Node86 -->
<g id="edge67" class="edge">
<title>Node45&#45;&gt;Node86</title>
<path fill="none" stroke="#191970" d="M1681.2422,-195.2702C1607.9817,-187.0468 1452.6537,-169.5071 1321.5,-154 1308.5957,-152.4743 1294.9573,-150.8364 1281.594,-149.2174"/>
<polygon fill="#191970" stroke="#191970" points="1681.1152,-198.7779 1691.443,-196.4146 1681.8956,-191.8215 1681.1152,-198.7779"/>
</g>
<!-- Node88 -->
<g id="node44" class="node">
<title>Node88</title>
<g id="a_node44"><a xlink:href="ThreeAxisForceTorqueContactSensor_8h.html" target="_top" xlink:title="ThreeAxisForceTorqueContact\lSensor.h">
<polygon fill="none" stroke="#000000" points="862,-123.5 862,-153.5 1023,-153.5 1023,-123.5 862,-123.5"/>
<text text-anchor="start" x="870" y="-141.5" font-family="FreeSans.ttf" font-size="10.00" fill="#000000">ThreeAxisForceTorqueContact</text>
<text text-anchor="middle" x="942.5" y="-130.5" font-family="FreeSans.ttf" font-size="10.00" fill="#000000">Sensor.h</text>
</a>
</g>
</g>
<!-- Node45&#45;&gt;Node88 -->
<g id="edge71" class="edge">
<title>Node45&#45;&gt;Node88</title>
<path fill="none" stroke="#191970" d="M1681.1789,-197.26C1580.2655,-190.6448 1317.566,-172.9416 1098.5,-154 1073.9605,-151.8782 1047.2753,-149.3195 1023.0283,-146.8979"/>
<polygon fill="#191970" stroke="#191970" points="1681.0686,-200.7602 1691.2757,-197.9202 1681.5255,-193.7751 1681.0686,-200.7602"/>
</g>
<!-- Node46&#45;&gt;Node47 -->
<g id="edge2" class="edge">
<title>Node46&#45;&gt;Node47</title>
<path fill="none" stroke="#191970" d="M115.0187,-124.5693C97.9323,-116.1353 78.5798,-103.7351 66.5,-87 51.7157,-66.5181 48.885,-35.7006 48.4622,-19.9859"/>
<polygon fill="#191970" stroke="#191970" points="113.6743,-127.804 124.2175,-128.8491 116.6272,-121.4573 113.6743,-127.804"/>
</g>
<!-- Node48 -->
<g id="node4" class="node">
<title>Node48</title>
<g id="a_node4"><a xlink:href="BerdySparseMAPSolver_8cpp.html" target="_top" xlink:title="BerdySparseMAPSolver.cpp">
<polygon fill="none" stroke="#000000" points="76,-62 76,-81 225,-81 225,-62 76,-62"/>
<text text-anchor="middle" x="150.5" y="-69" font-family="FreeSans.ttf" font-size="10.00" fill="#000000">BerdySparseMAPSolver.cpp</text>
</a>
</g>
</g>
<!-- Node46&#45;&gt;Node48 -->
<g id="edge3" class="edge">
<title>Node46&#45;&gt;Node48</title>
<path fill="none" stroke="#191970" d="M150.5,-118.6079C150.5,-106.214 150.5,-90.8263 150.5,-81.0817"/>
<polygon fill="#191970" stroke="#191970" points="147.0001,-118.9005 150.5,-128.9005 154.0001,-118.9006 147.0001,-118.9005"/>
</g>
<!-- Node49&#45;&gt;Node50 -->
<g id="edge5" class="edge">
<title>Node49&#45;&gt;Node50</title>
<path fill="none" stroke="#191970" d="M2016.4862,-120.1392C2047.4648,-109.6033 2085.8824,-96.5375 2115.0965,-86.6017"/>
<polygon fill="#191970" stroke="#191970" points="2015.0511,-116.9303 2006.7106,-123.4639 2017.3051,-123.5575 2015.0511,-116.9303"/>
</g>
<!-- Node53 -->
<g id="node9" class="node">
<title>Node53</title>
<g id="a_node9"><a xlink:href="ModelCalibrationHelper_8cpp.html" target="_top" xlink:title="ModelCalibrationHelper.cpp">
<polygon fill="none" stroke="#000000" points="2626,-.5 2626,-19.5 2777,-19.5 2777,-.5 2626,-.5"/>
<text text-anchor="middle" x="2701.5" y="-7.5" font-family="FreeSans.ttf" font-size="10.00" fill="#000000">ModelCalibrationHelper.cpp</text>
</a>
</g>
</g>
<!-- Node52&#45;&gt;Node53 -->
<g id="edge10" class="edge">
<title>Node52&#45;&gt;Node53</title>
<path fill="none" stroke="#191970" d="M2675.5785,-53.0857C2682.1686,-42.132 2690.2647,-28.6748 2695.6372,-19.7449"/>
<polygon fill="#191970" stroke="#191970" points="2672.4374,-51.5175 2670.2813,-61.8906 2678.4356,-55.1262 2672.4374,-51.5175"/>
</g>
<!-- Node54&#45;&gt;Node52 -->
<g id="edge12" class="edge">
<title>Node54&#45;&gt;Node52</title>
<path fill="none" stroke="#191970" d="M2740.1009,-123.1864C2721.1517,-110.2312 2694.5864,-92.0693 2678.515,-81.0817"/>
<polygon fill="#191970" stroke="#191970" points="2738.2285,-126.146 2748.459,-128.9005 2742.1792,-120.3674 2738.2285,-126.146"/>
</g>
<!-- Node54&#45;&gt;Node53 -->
<g id="edge16" class="edge">
<title>Node54&#45;&gt;Node53</title>
<path fill="none" stroke="#191970" d="M2760.8039,-118.7083C2758.6674,-101.3516 2753.9186,-75.8586 2743.5,-56 2735.9639,-41.6356 2722.8396,-28.3116 2713.2631,-19.7405"/>
<polygon fill="#191970" stroke="#191970" points="2757.3381,-119.2188 2761.864,-128.7983 2764.2998,-118.4873 2757.3381,-119.2188"/>
</g>
<!-- Node55 -->
<g id="node11" class="node">
<title>Node55</title>
<g id="a_node11"><a xlink:href="URDFModelExport_8h.html" target="_top" xlink:title="URDFModelExport.h">
<polygon fill="none" stroke="#000000" points="2829,-62 2829,-81 2942,-81 2942,-62 2829,-62"/>
<text text-anchor="middle" x="2885.5" y="-69" font-family="FreeSans.ttf" font-size="10.00" fill="#000000">URDFModelExport.h</text>
</a>
</g>
</g>
<!-- Node54&#45;&gt;Node55 -->
<g id="edge13" class="edge">
<title>Node54&#45;&gt;Node55</title>
<path fill="none" stroke="#191970" d="M2789.0138,-124.0575C2812.881,-111.0567 2847.2822,-92.3179 2867.9098,-81.0817"/>
<polygon fill="#191970" stroke="#191970" points="2787.2303,-121.0434 2780.1229,-128.9005 2790.5788,-127.1906 2787.2303,-121.0434"/>
</g>
<!-- Node56 -->
<g id="node12" class="node">
<title>Node56</title>
<g id="a_node12"><a xlink:href="ModelExporter_8cpp.html" target="_top" xlink:title="ModelExporter.cpp">
<polygon fill="none" stroke="#000000" points="2795,-.5 2795,-19.5 2902,-19.5 2902,-.5 2795,-.5"/>
<text text-anchor="middle" x="2848.5" y="-7.5" font-family="FreeSans.ttf" font-size="10.00" fill="#000000">ModelExporter.cpp</text>
</a>
</g>
</g>
<!-- Node54&#45;&gt;Node56 -->
<g id="edge17" class="edge">
<title>Node54&#45;&gt;Node56</title>
<path fill="none" stroke="#191970" d="M2774.5444,-120.5035C2792.9804,-92.9566 2827.5715,-41.2711 2841.961,-19.7705"/>
<polygon fill="#191970" stroke="#191970" points="2771.6172,-118.5844 2768.964,-128.8416 2777.4346,-122.4777 2771.6172,-118.5844"/>
</g>
<!-- Node55&#45;&gt;Node56 -->
<g id="edge14" class="edge">
<title>Node55&#45;&gt;Node56</title>
<path fill="none" stroke="#191970" d="M2874.4215,-53.0857C2867.8314,-42.132 2859.7353,-28.6748 2854.3628,-19.7449"/>
<polygon fill="#191970" stroke="#191970" points="2871.5644,-55.1262 2879.7188,-61.8906 2877.5626,-51.5175 2871.5644,-55.1262"/>
</g>
<!-- Node57 -->
<g id="node13" class="node">
<title>Node57</title>
<g id="a_node13"><a xlink:href="URDFModelExport_8cpp.html" target="_top" xlink:title="URDFModelExport.cpp">
<polygon fill="none" stroke="#000000" points="2920,-.5 2920,-19.5 3045,-19.5 3045,-.5 2920,-.5"/>
<text text-anchor="middle" x="2982.5" y="-7.5" font-family="FreeSans.ttf" font-size="10.00" fill="#000000">URDFModelExport.cpp</text>
</a>
</g>
</g>
<!-- Node55&#45;&gt;Node57 -->
<g id="edge15" class="edge">
<title>Node55&#45;&gt;Node57</title>
<path fill="none" stroke="#191970" d="M2909.496,-56.286C2927.6337,-44.7864 2951.9726,-29.355 2967.4502,-19.5419"/>
<polygon fill="#191970" stroke="#191970" points="2907.2277,-53.58 2900.6563,-61.8906 2910.976,-59.4919 2907.2277,-53.58"/>
</g>
<!-- Node58&#45;&gt;Node50 -->
<g id="edge19" class="edge">
<title>Node58&#45;&gt;Node50</title>
<path fill="none" stroke="#191970" d="M3496.4881,-137.8781C3321.3625,-135.5246 2753.511,-125.2487 2285.5,-87 2270.343,-85.7613 2254.203,-84.0643 2238.7111,-82.246"/>
<polygon fill="#191970" stroke="#191970" points="3496.6797,-141.3808 3506.7248,-138.0126 3496.7717,-134.3814 3496.6797,-141.3808"/>
</g>
<!-- Node58&#45;&gt;Node53 -->
<g id="edge26" class="edge">
<title>Node58&#45;&gt;Node53</title>
<path fill="none" stroke="#191970" d="M3496.814,-135.8766C3395.4691,-130.3246 3180.0001,-115.4936 3111.5,-87 3091.0561,-78.4961 3092.9158,-64.5712 3072.5,-56 3069.1105,-54.577 2884.5475,-32.1103 2777.0546,-19.1115"/>
<polygon fill="#191970" stroke="#191970" points="3496.6676,-139.3737 3506.8412,-136.416 3497.0437,-132.3838 3496.6676,-139.3737"/>
</g>
<!-- Node59 -->
<g id="node15" class="node">
<title>Node59</title>
<g id="a_node15"><a xlink:href="SimpleLeggedOdometry_8cpp.html" target="_top" xlink:title="SimpleLeggedOdometry.cpp">
<polygon fill="none" stroke="#000000" points="3980,-62 3980,-81 4133,-81 4133,-62 3980,-62"/>
<text text-anchor="middle" x="4056.5" y="-69" font-family="FreeSans.ttf" font-size="10.00" fill="#000000">SimpleLeggedOdometry.cpp</text>
</a>
</g>
</g>
<!-- Node58&#45;&gt;Node59 -->
<g id="edge20" class="edge">
<title>Node58&#45;&gt;Node59</title>
<path fill="none" stroke="#191970" d="M3604.4291,-132.5965C3683.6967,-123.7405 3836.2659,-106.015 3965.5,-87 3977.7087,-85.2037 3990.8058,-83.0857 4003.1524,-81.002"/>
<polygon fill="#191970" stroke="#191970" points="3603.7555,-129.1498 3594.2043,-133.735 3604.5303,-136.1068 3603.7555,-129.1498"/>
</g>
<!-- Node60 -->
<g id="node16" class="node">
<title>Node60</title>
<g id="a_node16"><a xlink:href="KinDynComputations_8cpp.html" target="_top" xlink:title="KinDynComputations.cpp">
<polygon fill="none" stroke="#000000" points="4151.5,-62 4151.5,-81 4291.5,-81 4291.5,-62 4151.5,-62"/>
<text text-anchor="middle" x="4221.5" y="-69" font-family="FreeSans.ttf" font-size="10.00" fill="#000000">KinDynComputations.cpp</text>
</a>
</g>
</g>
<!-- Node58&#45;&gt;Node60 -->
<g id="edge21" class="edge">
<title>Node58&#45;&gt;Node60</title>
<path fill="none" stroke="#191970" d="M3604.4009,-135.7461C3708.6967,-129.99 3945.2248,-114.8523 4142.5,-87 4153.8484,-85.3978 4166.0321,-83.2317 4177.3517,-81.0273"/>
<polygon fill="#191970" stroke="#191970" points="3603.9247,-132.2668 3594.1301,-136.3061 3604.3058,-139.2564 3603.9247,-132.2668"/>
</g>
<!-- Node61 -->
<g id="node17" class="node">
<title>Node61</title>
<g id="a_node17"><a xlink:href="InverseKinematicsData_8cpp.html" target="_top" xlink:title="InverseKinematicsData.cpp">
<polygon fill="none" stroke="#000000" points="4310,-62 4310,-81 4461,-81 4461,-62 4310,-62"/>
<text text-anchor="middle" x="4385.5" y="-69" font-family="FreeSans.ttf" font-size="10.00" fill="#000000">InverseKinematicsData.cpp</text>
</a>
</g>
</g>
<!-- Node58&#45;&gt;Node61 -->
<g id="edge22" class="edge">
<title>Node58&#45;&gt;Node61</title>
<path fill="none" stroke="#191970" d="M3604.5234,-136.8628C3728.1428,-132.6643 4040.9598,-119.4715 4300.5,-87 4312.8539,-85.4544 4326.1321,-83.2817 4338.4366,-81.051"/>
<polygon fill="#191970" stroke="#191970" points="3604.0803,-133.3756 3594.2027,-137.2073 3604.3139,-140.3717 3604.0803,-133.3756"/>
</g>
<!-- Node58&#45;&gt;Node62 -->
<g id="edge23" class="edge">
<title>Node58&#45;&gt;Node62</title>
<path fill="none" stroke="#191970" d="M3496.874,-134.8074C3408.861,-128.2671 3228.4576,-112.8446 3077.5,-87 3068.103,-85.3912 3058.045,-83.2487 3048.6852,-81.0713"/>
<polygon fill="#191970" stroke="#191970" points="3496.6567,-138.3007 3506.8862,-135.5425 3497.1694,-131.3195 3496.6567,-138.3007"/>
</g>
<!-- Node63 -->
<g id="node19" class="node">
<title>Node63</title>
<g id="a_node19"><a xlink:href="ModelLoader_8cpp.html" target="_top" xlink:title="ModelLoader.cpp">
<polygon fill="none" stroke="#000000" points="3501.5,-.5 3501.5,-19.5 3599.5,-19.5 3599.5,-.5 3501.5,-.5"/>
<text text-anchor="middle" x="3550.5" y="-7.5" font-family="FreeSans.ttf" font-size="10.00" fill="#000000">ModelLoader.cpp</text>
</a>
</g>
</g>
<!-- Node58&#45;&gt;Node63 -->
<g id="edge27" class="edge">
<title>Node58&#45;&gt;Node63</title>
<path fill="none" stroke="#191970" d="M3604.401,-135.1123C3704.5702,-128.2646 3911.2303,-111.3296 3932.5,-87 3941.5682,-76.6272 3941.6415,-66.3083 3932.5,-56 3910.7553,-31.4798 3697.8567,-17.5208 3599.6608,-12.3406"/>
<polygon fill="#191970" stroke="#191970" points="3603.9212,-131.6366 3594.1793,-135.8013 3604.3921,-138.6208 3603.9212,-131.6366"/>
</g>
<!-- Node65 -->
<g id="node21" class="node">
<title>Node65</title>
<g id="a_node21"><a xlink:href="URDFDofsImport_8cpp.html" target="_top" xlink:title="URDFDofsImport.cpp">
<polygon fill="none" stroke="#000000" points="3120,-62 3120,-81 3239,-81 3239,-62 3120,-62"/>
<text text-anchor="middle" x="3179.5" y="-69" font-family="FreeSans.ttf" font-size="10.00" fill="#000000">URDFDofsImport.cpp</text>
</a>
</g>
</g>
<!-- Node58&#45;&gt;Node65 -->
<g id="edge28" class="edge">
<title>Node58&#45;&gt;Node65</title>
<path fill="none" stroke="#191970" d="M3496.7772,-130.2045C3436.2671,-120.6599 3335.0679,-104.0924 3248.5,-87 3239.3457,-85.1925 3229.5454,-83.0922 3220.2896,-81.0321"/>
<polygon fill="#191970" stroke="#191970" points="3496.4375,-133.694 3506.8597,-131.7892 3497.5245,-126.7789 3496.4375,-133.694"/>
</g>
<!-- Node66 -->
<g id="node22" class="node">
<title>Node66</title>
<g id="a_node22"><a xlink:href="idyntree-model-info_8cpp.html" target="_top" xlink:title="idyntree&#45;model&#45;info.cpp">
<polygon fill="none" stroke="#000000" points="3257.5,-62 3257.5,-81 3391.5,-81 3391.5,-62 3257.5,-62"/>
<text text-anchor="middle" x="3324.5" y="-69" font-family="FreeSans.ttf" font-size="10.00" fill="#000000">idyntree&#45;model&#45;info.cpp</text>
</a>
</g>
</g>
<!-- Node58&#45;&gt;Node66 -->
<g id="edge29" class="edge">
<title>Node58&#45;&gt;Node66</title>
<path fill="none" stroke="#191970" d="M3508.3218,-125.9958C3464.4284,-112.9832 3396.65,-92.8896 3356.8202,-81.0817"/>
<polygon fill="#191970" stroke="#191970" points="3507.5373,-129.4138 3518.1197,-128.9005 3509.527,-122.7025 3507.5373,-129.4138"/>
</g>
<!-- Node67 -->
<g id="node23" class="node">
<title>Node67</title>
<g id="a_node23"><a xlink:href="idyntree-model-view_8cpp.html" target="_top" xlink:title="idyntree&#45;model&#45;view.cpp">
<polygon fill="none" stroke="#000000" points="3409.5,-62 3409.5,-81 3547.5,-81 3547.5,-62 3409.5,-62"/>
<text text-anchor="middle" x="3478.5" y="-69" font-family="FreeSans.ttf" font-size="10.00" fill="#000000">idyntree&#45;model&#45;view.cpp</text>
</a>
</g>
</g>
<!-- Node58&#45;&gt;Node67 -->
<g id="edge30" class="edge">
<title>Node58&#45;&gt;Node67</title>
<path fill="none" stroke="#191970" d="M3532.7042,-121.94C3518.893,-109.0879 3500.2303,-91.7212 3488.7967,-81.0817"/>
<polygon fill="#191970" stroke="#191970" points="3530.4791,-124.6504 3540.1842,-128.9005 3535.2478,-119.5259 3530.4791,-124.6504"/>
</g>
<!-- Node68 -->
<g id="node24" class="node">
<title>Node68</title>
<g id="a_node24"><a xlink:href="ObserverThread_8cpp.html" target="_top" xlink:title="ObserverThread.cpp">
<polygon fill="none" stroke="#000000" points="3566,-62 3566,-81 3681,-81 3681,-62 3566,-62"/>
<text text-anchor="middle" x="3623.5" y="-69" font-family="FreeSans.ttf" font-size="10.00" fill="#000000">ObserverThread.cpp</text>
</a>
</g>
</g>
<!-- Node58&#45;&gt;Node68 -->
<g id="edge31" class="edge">
<title>Node58&#45;&gt;Node68</title>
<path fill="none" stroke="#191970" d="M3568.5429,-121.94C3582.546,-109.0879 3601.4679,-91.7212 3613.0603,-81.0817"/>
<polygon fill="#191970" stroke="#191970" points="3565.9599,-119.5601 3560.9591,-128.9005 3570.6931,-124.7173 3565.9599,-119.5601"/>
</g>
<!-- Node69 -->
<g id="node25" class="node">
<title>Node69</title>
<g id="a_node25"><a xlink:href="urdf2dh_8cpp.html" target="_top" xlink:title="urdf2dh.cpp">
<polygon fill="none" stroke="#000000" points="3699.5,-62 3699.5,-81 3773.5,-81 3773.5,-62 3699.5,-62"/>
<text text-anchor="middle" x="3736.5" y="-69" font-family="FreeSans.ttf" font-size="10.00" fill="#000000">urdf2dh.cpp</text>
</a>
</g>
</g>
<!-- Node58&#45;&gt;Node69 -->
<g id="edge32" class="edge">
<title>Node58&#45;&gt;Node69</title>
<path fill="none" stroke="#191970" d="M3586.8228,-125.416C3622.9768,-112.3928 3677.603,-92.7156 3709.9002,-81.0817"/>
<polygon fill="#191970" stroke="#191970" points="3585.3713,-122.2186 3577.1493,-128.9005 3587.7437,-128.8044 3585.3713,-122.2186"/>
</g>
<!-- Node70 -->
<g id="node26" class="node">
<title>Node70</title>
<g id="a_node26"><a xlink:href="robotstatepublisher_8cpp.html" target="_top" xlink:title="robotstatepublisher.cpp">
<polygon fill="none" stroke="#000000" points="3792,-62 3792,-81 3923,-81 3923,-62 3792,-62"/>
<text text-anchor="middle" x="3857.5" y="-69" font-family="FreeSans.ttf" font-size="10.00" fill="#000000">robotstatepublisher.cpp</text>
</a>
</g>
</g>
<!-- Node58&#45;&gt;Node70 -->
<g id="edge33" class="edge">
<title>Node58&#45;&gt;Node70</title>
<path fill="none" stroke="#191970" d="M3604.103,-126.8016C3663.5219,-113.834 3758.2445,-93.1616 3813.494,-81.1039"/>
<polygon fill="#191970" stroke="#191970" points="3603.1833,-123.4199 3594.1596,-128.9717 3604.6759,-130.2589 3603.1833,-123.4199"/>
</g>
<!-- Node62&#45;&gt;Node63 -->
<g id="edge24" class="edge">
<title>Node62&#45;&gt;Node63</title>
<path fill="none" stroke="#191970" d="M3073.0924,-61.4644C3085.7773,-59.5351 3099.0587,-57.615 3111.5,-56 3252.6606,-37.6758 3420.0954,-21.7253 3501.3585,-14.3511"/>
<polygon fill="#191970" stroke="#191970" points="3072.4251,-58.0258 3063.0748,-63.0079 3073.4912,-64.9442 3072.4251,-58.0258"/>
</g>
<!-- Node64 -->
<g id="node20" class="node">
<title>Node64</title>
<g id="a_node20"><a xlink:href="URDFDocument_8cpp.html" target="_top" xlink:title="URDFDocument.cpp">
<polygon fill="none" stroke="#000000" points="2134.5,-.5 2134.5,-19.5 2248.5,-19.5 2248.5,-.5 2134.5,-.5"/>
<text text-anchor="middle" x="2191.5" y="-7.5" font-family="FreeSans.ttf" font-size="10.00" fill="#000000">URDFDocument.cpp</text>
</a>
</g>
</g>
<!-- Node62&#45;&gt;Node64 -->
<g id="edge25" class="edge">
<title>Node62&#45;&gt;Node64</title>
<path fill="none" stroke="#191970" d="M2969.4584,-59.553C2963.4685,-58.1691 2957.3548,-56.9246 2951.5,-56 2816.1175,-34.62 2401.3624,-17.6931 2248.6883,-12.0343"/>
<polygon fill="#191970" stroke="#191970" points="2968.8088,-62.9974 2979.3548,-61.9818 2970.4773,-56.1991 2968.8088,-62.9974"/>
</g>
<!-- Node71&#45;&gt;Node62 -->
<g id="edge38" class="edge">
<title>Node71&#45;&gt;Node62</title>
<path fill="none" stroke="#191970" d="M2433.4681,-136.3956C2538.9186,-131.9764 2764.1463,-119.3218 2951.5,-87 2960.4057,-85.4636 2969.927,-83.2667 2978.7011,-81.008"/>
<polygon fill="#191970" stroke="#191970" points="2433.1865,-132.9041 2423.3379,-136.8101 2433.4727,-139.8983 2433.1865,-132.9041"/>
</g>
<!-- Node72 -->
<g id="node28" class="node">
<title>Node72</title>
<g id="a_node28"><a xlink:href="ForceTorqueSensorElement_8h.html" target="_top" xlink:title="ForceTorqueSensorElement.h">
<polygon fill="none" stroke="#000000" points="2294.5,-62 2294.5,-81 2452.5,-81 2452.5,-62 2294.5,-62"/>
<text text-anchor="middle" x="2373.5" y="-69" font-family="FreeSans.ttf" font-size="10.00" fill="#000000">ForceTorqueSensorElement.h</text>
</a>
</g>
</g>
<!-- Node71&#45;&gt;Node72 -->
<g id="edge35" class="edge">
<title>Node71&#45;&gt;Node72</title>
<path fill="none" stroke="#191970" d="M2373.5,-118.6079C2373.5,-106.214 2373.5,-90.8263 2373.5,-81.0817"/>
<polygon fill="#191970" stroke="#191970" points="2370.0001,-118.9005 2373.5,-128.9005 2377.0001,-118.9006 2370.0001,-118.9005"/>
</g>
<!-- Node71&#45;&gt;Node74 -->
<g id="edge40" class="edge">
<title>Node71&#45;&gt;Node74</title>
<path fill="none" stroke="#191970" d="M2345.9288,-123.8106C2328.2361,-114.0357 2305.0072,-100.5439 2285.5,-87 2267.5963,-74.5694 2267.823,-63.8763 2247.5,-56 2211.2473,-41.9501 1649.6364,-19.1021 1469.5898,-12.1037"/>
<polygon fill="#191970" stroke="#191970" points="2344.6756,-127.1141 2355.1297,-128.8353 2348.0308,-120.9705 2344.6756,-127.1141"/>
</g>
<!-- Node71&#45;&gt;Node75 -->
<g id="edge39" class="edge">
<title>Node71&#45;&gt;Node75</title>
<path fill="none" stroke="#191970" d="M2404.3007,-124.7424C2433.4499,-111.7224 2476.4476,-92.5167 2502.0485,-81.0817"/>
<polygon fill="#191970" stroke="#191970" points="2402.6945,-121.6265 2394.9913,-128.9005 2405.5494,-128.0179 2402.6945,-121.6265"/>
</g>
<!-- Node73 -->
<g id="node29" class="node">
<title>Node73</title>
<g id="a_node29"><a xlink:href="ForceTorqueSensorElement_8cpp.html" target="_top" xlink:title="ForceTorqueSensorElement.cpp">
<polygon fill="none" stroke="#000000" points="1730,-.5 1730,-19.5 1899,-19.5 1899,-.5 1730,-.5"/>
<text text-anchor="middle" x="1814.5" y="-7.5" font-family="FreeSans.ttf" font-size="10.00" fill="#000000">ForceTorqueSensorElement.cpp</text>
</a>
</g>
</g>
<!-- Node72&#45;&gt;Node73 -->
<g id="edge36" class="edge">
<title>Node72&#45;&gt;Node73</title>
<path fill="none" stroke="#191970" d="M2309.866,-60.3154C2300.0486,-58.7574 2290.0141,-57.261 2280.5,-56 2147.726,-38.4022 1992.8469,-24.4032 1899.3044,-16.6593"/>
<polygon fill="#191970" stroke="#191970" points="2309.5565,-63.8107 2319.9873,-61.9538 2310.6751,-56.9007 2309.5565,-63.8107"/>
</g>
<!-- Node72&#45;&gt;Node74 -->
<g id="edge37" class="edge">
<title>Node72&#45;&gt;Node74</title>
<path fill="none" stroke="#191970" d="M2312.4322,-60.32C2301.8145,-58.6633 2290.8576,-57.1346 2280.5,-56 2122.2304,-38.6626 1634.3797,-18.5748 1469.5576,-12.115"/>
<polygon fill="#191970" stroke="#191970" points="2312.0479,-63.8032 2322.4774,-61.9389 2313.1617,-56.8923 2312.0479,-63.8032"/>
</g>
<!-- Node76&#45;&gt;Node74 -->
<g id="edge45" class="edge">
<title>Node76&#45;&gt;Node74</title>
<path fill="none" stroke="#191970" d="M741.5707,-123.6551C715.0642,-106.6827 680.5353,-78.3608 701.5,-56 723.9297,-32.0766 1195.9631,-16.2851 1359.3907,-11.518"/>
<polygon fill="#191970" stroke="#191970" points="739.8114,-126.6822 750.1605,-128.9508 743.485,-120.7236 739.8114,-126.6822"/>
</g>
<!-- Node77 -->
<g id="node33" class="node">
<title>Node77</title>
<g id="a_node33"><a xlink:href="AllSensorsTypes_8h.html" target="_top" xlink:title="AllSensorsTypes.h">
<polygon fill="none" stroke="#000000" points="890.5,-62 890.5,-81 994.5,-81 994.5,-62 890.5,-62"/>
<text text-anchor="middle" x="942.5" y="-69" font-family="FreeSans.ttf" font-size="10.00" fill="#000000">AllSensorsTypes.h</text>
</a>
</g>
</g>
<!-- Node76&#45;&gt;Node77 -->
<g id="edge46" class="edge">
<title>Node76&#45;&gt;Node77</title>
<path fill="none" stroke="#191970" d="M802.1117,-125.2487C836.1294,-112.2247 887.216,-92.6659 917.4733,-81.0817"/>
<polygon fill="#191970" stroke="#191970" points="800.6607,-122.0564 792.5732,-128.9005 803.1636,-128.5936 800.6607,-122.0564"/>
</g>
<!-- Node78 -->
<g id="node34" class="node">
<title>Node78</title>
<g id="a_node34"><a xlink:href="AccelerometerSensor_8cpp.html" target="_top" xlink:title="AccelerometerSensor.cpp">
<polygon fill="none" stroke="#000000" points="514.5,-62 514.5,-81 654.5,-81 654.5,-62 514.5,-62"/>
<text text-anchor="middle" x="584.5" y="-69" font-family="FreeSans.ttf" font-size="10.00" fill="#000000">AccelerometerSensor.cpp</text>
</a>
</g>
</g>
<!-- Node76&#45;&gt;Node78 -->
<g id="edge48" class="edge">
<title>Node76&#45;&gt;Node78</title>
<path fill="none" stroke="#191970" d="M731.763,-125.416C696.1922,-112.3928 642.4471,-92.7156 610.6708,-81.0817"/>
<polygon fill="#191970" stroke="#191970" points="730.6868,-128.7491 741.2806,-128.9005 733.0935,-122.1758 730.6868,-128.7491"/>
</g>
<!-- Node76&#45;&gt;Node79 -->
<g id="edge49" class="edge">
<title>Node76&#45;&gt;Node79</title>
<path fill="none" stroke="#191970" d="M826.9035,-127.2071C835.8008,-125.686 844.8792,-124.2289 853.5,-123 1004.8101,-101.4305 1043.9366,-106.7112 1195.5,-87 1209.0018,-85.2441 1223.4935,-83.1307 1237.1383,-81.0373"/>
<polygon fill="#191970" stroke="#191970" points="826.2173,-123.7738 816.969,-128.9429 827.4222,-130.6694 826.2173,-123.7738"/>
</g>
<!-- Node76&#45;&gt;Node80 -->
<g id="edge50" class="edge">
<title>Node76&#45;&gt;Node80</title>
<path fill="none" stroke="#191970" d="M697.9814,-127.2654C644.8694,-118.0975 570.0596,-103.9203 505.5,-87 499.0172,-85.3009 492.1216,-83.1983 485.6667,-81.0958"/>
<polygon fill="#191970" stroke="#191970" points="697.5244,-130.738 707.9715,-128.9749 698.7052,-123.8383 697.5244,-130.738"/>
</g>
<!-- Node77&#45;&gt;Node47 -->
<g id="edge47" class="edge">
<title>Node77&#45;&gt;Node47</title>
<path fill="none" stroke="#191970" d="M899.7545,-59.5289C893.6652,-58.1486 887.4506,-56.9115 881.5,-56 728.6677,-32.589 251.3785,-16.2325 97.1158,-11.4468"/>
<polygon fill="#191970" stroke="#191970" points="899.2736,-63.0131 909.8154,-61.9548 900.9145,-56.2082 899.2736,-63.0131"/>
</g>
<!-- Node81&#45;&gt;Node74 -->
<g id="edge52" class="edge">
<title>Node81&#45;&gt;Node74</title>
<path fill="none" stroke="#191970" d="M539.172,-131.9725C467.7375,-122.4511 368.7381,-100.768 411.5,-56 444.4414,-21.5132 1154.2389,-12.3719 1359.4151,-10.4458"/>
<polygon fill="#191970" stroke="#191970" points="539.1285,-135.4953 549.4913,-133.2904 540.0153,-128.5517 539.1285,-135.4953"/>
</g>
<!-- Node81&#45;&gt;Node77 -->
<g id="edge53" class="edge">
<title>Node81&#45;&gt;Node77</title>
<path fill="none" stroke="#191970" d="M668.036,-127.1824C736.7444,-114.8551 841.7708,-95.7311 881.5,-87 889.6108,-85.2175 898.2821,-83.1273 906.4661,-81.0692"/>
<polygon fill="#191970" stroke="#191970" points="667.4,-123.7405 658.1743,-128.9498 668.635,-130.6307 667.4,-123.7405"/>
</g>
<!-- Node81&#45;&gt;Node79 -->
<g id="edge55" class="edge">
<title>Node81&#45;&gt;Node79</title>
<path fill="none" stroke="#191970" d="M664.2866,-127.2366C674.0263,-125.6471 684.0258,-124.1617 693.5,-123 915.5212,-95.7761 973.2345,-112.1522 1195.5,-87 1209.8147,-85.3801 1225.2191,-83.2077 1239.5464,-81.0028"/>
<polygon fill="#191970" stroke="#191970" points="663.5453,-123.812 654.2639,-128.9214 664.7058,-130.7151 663.5453,-123.812"/>
</g>
<!-- Node81&#45;&gt;Node80 -->
<g id="edge56" class="edge">
<title>Node81&#45;&gt;Node80</title>
<path fill="none" stroke="#191970" d="M574.1498,-124.5722C545.7852,-111.5555 504.1893,-92.467 479.3794,-81.0817"/>
<polygon fill="#191970" stroke="#191970" points="573.0333,-127.9107 583.5818,-128.9005 575.9529,-121.5486 573.0333,-127.9107"/>
</g>
<!-- Node82 -->
<g id="node38" class="node">
<title>Node82</title>
<g id="a_node38"><a xlink:href="GyroscopeSensor_8cpp.html" target="_top" xlink:title="GyroscopeSensor.cpp">
<polygon fill="none" stroke="#000000" points="243,-62 243,-81 364,-81 364,-62 243,-62"/>
<text text-anchor="middle" x="303.5" y="-69" font-family="FreeSans.ttf" font-size="10.00" fill="#000000">GyroscopeSensor.cpp</text>
</a>
</g>
</g>
<!-- Node81&#45;&gt;Node82 -->
<g id="edge54" class="edge">
<title>Node81&#45;&gt;Node82</title>
<path fill="none" stroke="#191970" d="M551.5831,-126.7211C493.3034,-113.7486 400.7038,-93.1367 346.646,-81.1039"/>
<polygon fill="#191970" stroke="#191970" points="551.1721,-130.2153 561.6937,-128.9717 552.6931,-123.3825 551.1721,-130.2153"/>
</g>
<!-- Node83&#45;&gt;Node50 -->
<g id="edge59" class="edge">
<title>Node83&#45;&gt;Node50</title>
<path fill="none" stroke="#191970" d="M1732.6459,-129.4353C1818.6342,-120.064 1954.4621,-104.3856 2071.5,-87 2074.4155,-86.5669 2077.3829,-86.1127 2080.3786,-85.643"/>
<polygon fill="#191970" stroke="#191970" points="1732.2344,-125.9593 1722.6707,-130.5185 1732.9902,-132.9184 1732.2344,-125.9593"/>
</g>
<!-- Node83&#45;&gt;Node51 -->
<g id="edge58" class="edge">
<title>Node83&#45;&gt;Node51</title>
<path fill="none" stroke="#191970" d="M1676.0186,-124.5722C1703.6062,-111.5555 1744.0625,-92.467 1768.1926,-81.0817"/>
<polygon fill="#191970" stroke="#191970" points="1674.3955,-121.468 1666.8451,-128.9005 1677.3825,-127.7987 1674.3955,-121.468"/>
</g>
<!-- Node83&#45;&gt;Node64 -->
<g id="edge61" class="edge">
<title>Node83&#45;&gt;Node64</title>
<path fill="none" stroke="#191970" d="M1651.3131,-119.1719C1657.2611,-99.7002 1669.4151,-70.5197 1691.5,-56 1727.8289,-32.1155 2011.1876,-17.5213 2134.4943,-12.2427"/>
<polygon fill="#191970" stroke="#191970" points="1647.9329,-118.2637 1648.6235,-128.836 1654.6766,-120.1406 1647.9329,-118.2637"/>
</g>
<!-- Node83&#45;&gt;Node73 -->
<g id="edge60" class="edge">
<title>Node83&#45;&gt;Node73</title>
<path fill="none" stroke="#191970" d="M1643.8052,-118.5612C1642.4811,-100.1417 1643.6609,-73.1167 1658.5,-56 1672.0021,-40.4255 1720.8434,-27.6539 1760.3234,-19.5538"/>
<polygon fill="#191970" stroke="#191970" points="1640.3486,-119.163 1644.8535,-128.7523 1647.3118,-118.4467 1640.3486,-119.163"/>
</g>
<!-- Node83&#45;&gt;Node77 -->
<g id="edge62" class="edge">
<title>Node83&#45;&gt;Node77</title>
<path fill="none" stroke="#191970" d="M1560.0817,-136.2084C1436.1093,-131.8746 1200.9558,-119.7528 1003.5,-87 994.4452,-85.498 984.765,-83.3129 975.8447,-81.0547"/>
<polygon fill="#191970" stroke="#191970" points="1560.1568,-139.7129 1570.2703,-136.5557 1560.3954,-132.7169 1560.1568,-139.7129"/>
</g>
<!-- Node83&#45;&gt;Node79 -->
<g id="edge64" class="edge">
<title>Node83&#45;&gt;Node79</title>
<path fill="none" stroke="#191970" d="M1586.4582,-127.039C1518.5065,-114.0682 1409.0416,-93.1732 1345.5286,-81.0496"/>
<polygon fill="#191970" stroke="#191970" points="1586.1041,-130.5346 1596.583,-128.9717 1587.4166,-123.6587 1586.1041,-130.5346"/>
</g>
<!-- Node83&#45;&gt;Node80 -->
<g id="edge65" class="edge">
<title>Node83&#45;&gt;Node80</title>
<path fill="none" stroke="#191970" d="M1560.1165,-134.7564C1296.3446,-123.3056 518.4529,-89.3815 505.5,-87 498.2327,-85.6638 490.544,-83.4762 483.5371,-81.1599"/>
<polygon fill="#191970" stroke="#191970" points="1560.2676,-138.2662 1570.41,-135.2032 1560.5712,-131.2727 1560.2676,-138.2662"/>
</g>
<!-- Node83&#45;&gt;Node84 -->
<g id="edge63" class="edge">
<title>Node83&#45;&gt;Node84</title>
<path fill="none" stroke="#191970" d="M1703.6881,-126.959C1767.9901,-113.9824 1871.2279,-93.1483 1931.1795,-81.0496"/>
<polygon fill="#191970" stroke="#191970" points="1702.8249,-123.5626 1693.7149,-128.9717 1704.2097,-130.4243 1702.8249,-123.5626"/>
</g>
<!-- Node85 -->
<g id="node41" class="node">
<title>Node85</title>
<g id="a_node41"><a xlink:href="SixAxisForceTorqueSensor_8cpp.html" target="_top" xlink:title="SixAxisForceTorqueSensor.cpp">
<polygon fill="none" stroke="#000000" points="1442.5,-62 1442.5,-81 1606.5,-81 1606.5,-62 1442.5,-62"/>
<text text-anchor="middle" x="1524.5" y="-69" font-family="FreeSans.ttf" font-size="10.00" fill="#000000">SixAxisForceTorqueSensor.cpp</text>
</a>
</g>
</g>
<!-- Node83&#45;&gt;Node85 -->
<g id="edge66" class="edge">
<title>Node83&#45;&gt;Node85</title>
<path fill="none" stroke="#191970" d="M1620.2018,-124.0575C1596.5286,-111.0567 1562.4071,-92.3179 1541.9472,-81.0817"/>
<polygon fill="#191970" stroke="#191970" points="1618.5704,-127.1546 1629.0204,-128.9005 1621.94,-121.019 1618.5704,-127.1546"/>
</g>
<!-- Node86&#45;&gt;Node77 -->
<g id="edge68" class="edge">
<title>Node86&#45;&gt;Node77</title>
<path fill="none" stroke="#191970" d="M1128.2503,-120.886C1080.2375,-108.1207 1017.1622,-91.3507 978.2512,-81.0053"/>
<polygon fill="#191970" stroke="#191970" points="1127.3827,-124.2768 1137.9463,-123.4639 1129.1814,-117.5119 1127.3827,-124.2768"/>
</g>
<!-- Node86&#45;&gt;Node79 -->
<g id="edge69" class="edge">
<title>Node86&#45;&gt;Node79</title>
<path fill="none" stroke="#191970" d="M1225.5865,-117.8783C1244.0584,-105.6246 1266.6181,-90.6593 1281.0224,-81.1039"/>
<polygon fill="#191970" stroke="#191970" points="1223.5648,-115.0193 1217.1664,-123.4639 1227.4344,-120.8525 1223.5648,-115.0193"/>
</g>
<!-- Node87 -->
<g id="node43" class="node">
<title>Node87</title>
<g id="a_node43"><a xlink:href="ThreeAxisAngularAccelerometerSensor_8cpp.html" target="_top" xlink:title="ThreeAxisAngularAccelerometer\lSensor.cpp">
<polygon fill="none" stroke="#000000" points="1012.5,-56.5 1012.5,-86.5 1186.5,-86.5 1186.5,-56.5 1012.5,-56.5"/>
<text text-anchor="start" x="1020.5" y="-74.5" font-family="FreeSans.ttf" font-size="10.00" fill="#000000">ThreeAxisAngularAccelerometer</text>
<text text-anchor="middle" x="1099.5" y="-63.5" font-family="FreeSans.ttf" font-size="10.00" fill="#000000">Sensor.cpp</text>
</a>
</g>
</g>
<!-- Node86&#45;&gt;Node87 -->
<g id="edge70" class="edge">
<title>Node86&#45;&gt;Node87</title>
<path fill="none" stroke="#191970" d="M1164.5068,-117.3469C1150.3712,-107.3776 1133.8305,-95.7121 1120.9717,-86.6432"/>
<polygon fill="#191970" stroke="#191970" points="1162.7537,-120.3934 1172.943,-123.2967 1166.7882,-114.6729 1162.7537,-120.3934"/>
</g>
<!-- Node88&#45;&gt;Node77 -->
<g id="edge72" class="edge">
<title>Node88&#45;&gt;Node77</title>
<path fill="none" stroke="#191970" d="M942.5,-113.1199C942.5,-101.9072 942.5,-89.4031 942.5,-81.055"/>
<polygon fill="#191970" stroke="#191970" points="939.0001,-113.2966 942.5,-123.2967 946.0001,-113.2967 939.0001,-113.2966"/>
</g>
<!-- Node89 -->
<g id="node45" class="node">
<title>Node89</title>
<g id="a_node45"><a xlink:href="ThreeAxisForceTorqueContactSensor_8cpp.html" target="_top" xlink:title="ThreeAxisForceTorqueContact\lSensor.cpp">
<polygon fill="none" stroke="#000000" points="711,-56.5 711,-86.5 872,-86.5 872,-56.5 711,-56.5"/>
<text text-anchor="start" x="719" y="-74.5" font-family="FreeSans.ttf" font-size="10.00" fill="#000000">ThreeAxisForceTorqueContact</text>
<text text-anchor="middle" x="791.5" y="-63.5" font-family="FreeSans.ttf" font-size="10.00" fill="#000000">Sensor.cpp</text>
</a>
</g>
</g>
<!-- Node88&#45;&gt;Node89 -->
<g id="edge73" class="edge">
<title>Node88&#45;&gt;Node89</title>
<path fill="none" stroke="#191970" d="M899.2582,-119.3132C875.8497,-108.9267 847.3461,-96.2794 825.5351,-86.6017"/>
<polygon fill="#191970" stroke="#191970" points="898.0525,-122.6073 908.6127,-123.4639 900.8916,-116.2089 898.0525,-122.6073"/>
</g>
</g>
</svg>
