<?xml version="1.0" encoding="UTF-8" standalone="no"?>
<!DOCTYPE svg PUBLIC "-//W3C//DTD SVG 1.1//EN"
 "http://www.w3.org/Graphics/SVG/1.1/DTD/svg11.dtd">
<!-- Generated by graphviz version 2.40.1 (20161225.0304)
 -->
<!-- Title: SpatialAcc.cpp Pages: 1 -->
<svg width="1372pt" height="655pt"
 viewBox="0.00 0.00 1372.00 655.00" xmlns="http://www.w3.org/2000/svg" xmlns:xlink="http://www.w3.org/1999/xlink">
<g id="graph0" class="graph" transform="scale(1 1) rotate(0) translate(4 651)">
<title>SpatialAcc.cpp</title>
<!-- Node0 -->
<g id="node1" class="node">
<title>Node0</title>
<polygon fill="#bfbfbf" stroke="#000000" points="289.5,-627.5 289.5,-646.5 377.5,-646.5 377.5,-627.5 289.5,-627.5"/>
<text text-anchor="middle" x="333.5" y="-634.5" font-family="FreeSans.ttf" font-size="10.00" fill="#000000">SpatialAcc.cpp</text>
</g>
<!-- Node1 -->
<g id="node2" class="node">
<title>Node1</title>
<g id="a_node2"><a xlink:href="SpatialAcc_8h.html" target="_top" xlink:title="iDynTree/Core/SpatialAcc.h">
<polygon fill="none" stroke="#000000" points="380.5,-515.5 380.5,-534.5 528.5,-534.5 528.5,-515.5 380.5,-515.5"/>
<text text-anchor="middle" x="454.5" y="-522.5" font-family="FreeSans.ttf" font-size="10.00" fill="#000000">iDynTree/Core/SpatialAcc.h</text>
</a>
</g>
</g>
<!-- Node0&#45;&gt;Node1 -->
<g id="edge1" class="edge">
<title>Node0&#45;&gt;Node1</title>
<path fill="none" stroke="#191970" d="M343.8164,-627.4509C364.4442,-608.3574 410.9943,-565.2697 436.6672,-541.5063"/>
<polygon fill="#191970" stroke="#191970" points="439.2485,-543.8864 444.2097,-534.5249 434.4935,-538.7492 439.2485,-543.8864"/>
</g>
<!-- Node28 -->
<g id="node29" class="node">
<title>Node28</title>
<g id="a_node29"><a xlink:href="PrivateUtils_8h.html" target="_top" xlink:title="iDynTree/Core/PrivateUtils.h">
<polygon fill="none" stroke="#000000" points="204.5,-571.5 204.5,-590.5 358.5,-590.5 358.5,-571.5 204.5,-571.5"/>
<text text-anchor="middle" x="281.5" y="-578.5" font-family="FreeSans.ttf" font-size="10.00" fill="#000000">iDynTree/Core/PrivateUtils.h</text>
</a>
</g>
</g>
<!-- Node0&#45;&gt;Node28 -->
<g id="edge53" class="edge">
<title>Node0&#45;&gt;Node28</title>
<path fill="none" stroke="#191970" d="M324.4423,-627.2455C316.9858,-619.2155 306.2366,-607.6394 297.3583,-598.0781"/>
<polygon fill="#191970" stroke="#191970" points="299.8232,-595.589 290.4539,-590.6427 294.6937,-600.3522 299.8232,-595.589"/>
</g>
<!-- Node2 -->
<g id="node3" class="node">
<title>Node2</title>
<g id="a_node3"><a xlink:href="SpatialMotionVector_8h.html" target="_top" xlink:title="iDynTree/Core/SpatialMotion\lVector.h">
<polygon fill="none" stroke="#000000" points="376,-448.5 376,-478.5 531,-478.5 531,-448.5 376,-448.5"/>
<text text-anchor="start" x="384" y="-466.5" font-family="FreeSans.ttf" font-size="10.00" fill="#000000">iDynTree/Core/SpatialMotion</text>
<text text-anchor="middle" x="453.5" y="-455.5" font-family="FreeSans.ttf" font-size="10.00" fill="#000000">Vector.h</text>
</a>
</g>
</g>
<!-- Node1&#45;&gt;Node2 -->
<g id="edge2" class="edge">
<title>Node1&#45;&gt;Node2</title>
<path fill="none" stroke="#191970" d="M454.3438,-515.3906C454.2272,-508.2234 454.0624,-498.0862 453.9093,-488.671"/>
<polygon fill="#191970" stroke="#191970" points="457.4068,-488.4863 453.7446,-478.5446 450.4078,-488.6002 457.4068,-488.4863"/>
</g>
<!-- Node3 -->
<g id="node4" class="node">
<title>Node3</title>
<g id="a_node4"><a xlink:href="VectorFixSize_8h.html" target="_top" xlink:title="iDynTree/Core/VectorFixSize.h">
<polygon fill="none" stroke="#000000" points="314,-168.5 314,-187.5 475,-187.5 475,-168.5 314,-168.5"/>
<text text-anchor="middle" x="394.5" y="-175.5" font-family="FreeSans.ttf" font-size="10.00" fill="#000000">iDynTree/Core/VectorFixSize.h</text>
</a>
</g>
</g>
<!-- Node2&#45;&gt;Node3 -->
<g id="edge3" class="edge">
<title>Node2&#45;&gt;Node3</title>
<path fill="none" stroke="#191970" d="M429.958,-448.2854C417.0217,-439.0122 401.4314,-426.2264 390.5,-412 340.5677,-347.0168 331.7772,-324.1096 314.5,-244 312.626,-235.3109 310.0488,-231.6941 314.5,-224 323.0707,-209.1854 338.4193,-198.7247 353.3965,-191.5639"/>
<polygon fill="#191970" stroke="#191970" points="354.8583,-194.7446 362.61,-187.5223 352.0463,-188.3342 354.8583,-194.7446"/>
</g>
<!-- Node19 -->
<g id="node20" class="node">
<title>Node19</title>
<g id="a_node20"><a xlink:href="GeomVector3_8h.html" target="_top" xlink:title="iDynTree/Core/GeomVector3.h">
<polygon fill="none" stroke="#000000" points="324,-224.5 324,-243.5 487,-243.5 487,-224.5 324,-224.5"/>
<text text-anchor="middle" x="405.5" y="-231.5" font-family="FreeSans.ttf" font-size="10.00" fill="#000000">iDynTree/Core/GeomVector3.h</text>
</a>
</g>
</g>
<!-- Node2&#45;&gt;Node19 -->
<g id="edge22" class="edge">
<title>Node2&#45;&gt;Node19</title>
<path fill="none" stroke="#191970" d="M425.2,-448.3083C412.0595,-439.591 397.7628,-427.3177 390.5,-412 365.4431,-359.1533 385.4444,-287.5688 397.7154,-253.5337"/>
<polygon fill="#191970" stroke="#191970" points="401.1045,-254.4659 401.3609,-243.8741 394.5553,-251.9942 401.1045,-254.4659"/>
</g>
<!-- Node20 -->
<g id="node21" class="node">
<title>Node20</title>
<g id="a_node21"><a xlink:href="SpatialVector_8h.html" target="_top" xlink:title="iDynTree/Core/SpatialVector.h">
<polygon fill="none" stroke="#000000" points="400,-392.5 400,-411.5 561,-411.5 561,-392.5 400,-392.5"/>
<text text-anchor="middle" x="480.5" y="-399.5" font-family="FreeSans.ttf" font-size="10.00" fill="#000000">iDynTree/Core/SpatialVector.h</text>
</a>
</g>
</g>
<!-- Node2&#45;&gt;Node20 -->
<g id="edge24" class="edge">
<title>Node2&#45;&gt;Node20</title>
<path fill="none" stroke="#191970" d="M460.1742,-448.2977C463.7659,-440.1166 468.2324,-429.943 472.0629,-421.2179"/>
<polygon fill="#191970" stroke="#191970" points="475.3618,-422.4104 476.177,-411.8469 468.9522,-419.5964 475.3618,-422.4104"/>
</g>
<!-- Node4 -->
<g id="node5" class="node">
<title>Node4</title>
<g id="a_node5"><a xlink:href="Utils_8h.html" target="_top" xlink:title="iDynTree/Core/Utils.h">
<polygon fill="none" stroke="#000000" points="209,-56.5 209,-75.5 328,-75.5 328,-56.5 209,-56.5"/>
<text text-anchor="middle" x="268.5" y="-63.5" font-family="FreeSans.ttf" font-size="10.00" fill="#000000">iDynTree/Core/Utils.h</text>
</a>
</g>
</g>
<!-- Node3&#45;&gt;Node4 -->
<g id="edge4" class="edge">
<title>Node3&#45;&gt;Node4</title>
<path fill="none" stroke="#191970" d="M383.7329,-168.498C373.209,-159.2052 356.7382,-144.647 342.5,-132 323.4959,-115.1197 301.7961,-95.7552 286.8325,-82.3878"/>
<polygon fill="#191970" stroke="#191970" points="289.0612,-79.6856 279.2723,-75.6324 284.3971,-84.9054 289.0612,-79.6856"/>
</g>
<!-- Node5 -->
<g id="node6" class="node">
<title>Node5</title>
<polygon fill="none" stroke="#bfbfbf" points="329,-.5 329,-19.5 382,-19.5 382,-.5 329,-.5"/>
<text text-anchor="middle" x="355.5" y="-7.5" font-family="FreeSans.ttf" font-size="10.00" fill="#000000">cstddef</text>
</g>
<!-- Node3&#45;&gt;Node5 -->
<g id="edge20" class="edge">
<title>Node3&#45;&gt;Node5</title>
<path fill="none" stroke="#191970" d="M391.228,-168.2042C388.2038,-158.9422 383.7064,-144.6216 380.5,-132 371.4006,-96.1816 363.307,-53.8052 358.9328,-29.5966"/>
<polygon fill="#191970" stroke="#191970" points="362.3445,-28.7914 357.1452,-19.5601 355.453,-30.0189 362.3445,-28.7914"/>
</g>
<!-- Node7 -->
<g id="node8" class="node">
<title>Node7</title>
<g id="a_node8"><a xlink:href="Span_8h.html" target="_top" xlink:title="iDynTree/Core/Span.h">
<polygon fill="none" stroke="#000000" points="771,-56.5 771,-75.5 892,-75.5 892,-56.5 771,-56.5"/>
<text text-anchor="middle" x="831.5" y="-63.5" font-family="FreeSans.ttf" font-size="10.00" fill="#000000">iDynTree/Core/Span.h</text>
</a>
</g>
</g>
<!-- Node3&#45;&gt;Node7 -->
<g id="edge7" class="edge">
<title>Node3&#45;&gt;Node7</title>
<path fill="none" stroke="#191970" d="M475.2654,-170.8775C589.902,-160.4764 787.4587,-141.3547 800.5,-132 815.7306,-121.0749 823.7132,-100.7096 827.737,-85.4784"/>
<polygon fill="#191970" stroke="#191970" points="831.2007,-86.0318 830.0144,-75.5036 824.3763,-84.4737 831.2007,-86.0318"/>
</g>
<!-- Node8 -->
<g id="node9" class="node">
<title>Node8</title>
<polygon fill="none" stroke="#bfbfbf" points="572.5,-.5 572.5,-19.5 624.5,-19.5 624.5,-.5 572.5,-.5"/>
<text text-anchor="middle" x="598.5" y="-7.5" font-family="FreeSans.ttf" font-size="10.00" fill="#000000">cassert</text>
</g>
<!-- Node3&#45;&gt;Node8 -->
<g id="edge19" class="edge">
<title>Node3&#45;&gt;Node8</title>
<path fill="none" stroke="#191970" d="M394.9894,-168.4384C396.1572,-154.5894 400.1114,-128.7747 413.5,-112 452.3672,-63.303 521.1169,-34.3196 562.9736,-20.3302"/>
<polygon fill="#191970" stroke="#191970" points="564.0544,-23.6592 572.4926,-17.2523 561.9008,-16.9987 564.0544,-23.6592"/>
</g>
<!-- Node16 -->
<g id="node17" class="node">
<title>Node16</title>
<polygon fill="none" stroke="#bfbfbf" points="959.5,-112.5 959.5,-131.5 1003.5,-131.5 1003.5,-112.5 959.5,-112.5"/>
<text text-anchor="middle" x="981.5" y="-119.5" font-family="FreeSans.ttf" font-size="10.00" fill="#000000">string</text>
</g>
<!-- Node3&#45;&gt;Node16 -->
<g id="edge17" class="edge">
<title>Node3&#45;&gt;Node16</title>
<path fill="none" stroke="#191970" d="M475.1654,-171.5604C621.7584,-159.8096 918.907,-135.749 941.5,-132 944.0334,-131.5796 946.6422,-131.0807 949.2556,-130.5335"/>
<polygon fill="#191970" stroke="#191970" points="950.2454,-133.8974 959.2081,-128.2476 948.6784,-127.075 950.2454,-133.8974"/>
</g>
<!-- Node17 -->
<g id="node18" class="node">
<title>Node17</title>
<polygon fill="none" stroke="#bfbfbf" points="490.5,-112.5 490.5,-131.5 546.5,-131.5 546.5,-112.5 490.5,-112.5"/>
<text text-anchor="middle" x="518.5" y="-119.5" font-family="FreeSans.ttf" font-size="10.00" fill="#000000">sstream</text>
</g>
<!-- Node3&#45;&gt;Node17 -->
<g id="edge18" class="edge">
<title>Node3&#45;&gt;Node17</title>
<path fill="none" stroke="#191970" d="M415.8164,-168.3733C435.7216,-159.3838 465.6436,-145.8706 488.06,-135.7471"/>
<polygon fill="#191970" stroke="#191970" points="489.7887,-138.8068 497.4618,-131.5011 486.9075,-132.4272 489.7887,-138.8068"/>
</g>
<!-- Node18 -->
<g id="node19" class="node">
<title>Node18</title>
<polygon fill="none" stroke="#bfbfbf" points="422.5,-112.5 422.5,-131.5 472.5,-131.5 472.5,-112.5 422.5,-112.5"/>
<text text-anchor="middle" x="447.5" y="-119.5" font-family="FreeSans.ttf" font-size="10.00" fill="#000000">cstring</text>
</g>
<!-- Node3&#45;&gt;Node18 -->
<g id="edge21" class="edge">
<title>Node3&#45;&gt;Node18</title>
<path fill="none" stroke="#191970" d="M403.7319,-168.2455C411.3317,-160.2155 422.2877,-148.6394 431.3368,-139.0781"/>
<polygon fill="#191970" stroke="#191970" points="434.0421,-141.3115 438.3739,-131.6427 428.958,-136.4998 434.0421,-141.3115"/>
</g>
<!-- Node4&#45;&gt;Node5 -->
<g id="edge5" class="edge">
<title>Node4&#45;&gt;Node5</title>
<path fill="none" stroke="#191970" d="M283.6542,-56.2455C297.0027,-47.6534 316.6586,-35.0014 332.0383,-25.1018"/>
<polygon fill="#191970" stroke="#191970" points="334.0051,-27.9982 340.5194,-19.6427 330.2164,-22.1121 334.0051,-27.9982"/>
</g>
<!-- Node6 -->
<g id="node7" class="node">
<title>Node6</title>
<polygon fill="none" stroke="#bfbfbf" points="228.5,-.5 228.5,-19.5 308.5,-19.5 308.5,-.5 228.5,-.5"/>
<text text-anchor="middle" x="268.5" y="-7.5" font-family="FreeSans.ttf" font-size="10.00" fill="#000000">CoreExport.h</text>
</g>
<!-- Node4&#45;&gt;Node6 -->
<g id="edge6" class="edge">
<title>Node4&#45;&gt;Node6</title>
<path fill="none" stroke="#191970" d="M268.5,-56.2455C268.5,-48.9382 268.5,-38.6944 268.5,-29.7046"/>
<polygon fill="#191970" stroke="#191970" points="272.0001,-29.6426 268.5,-19.6427 265.0001,-29.6427 272.0001,-29.6426"/>
</g>
<!-- Node7&#45;&gt;Node5 -->
<g id="edge11" class="edge">
<title>Node7&#45;&gt;Node5</title>
<path fill="none" stroke="#191970" d="M770.7308,-58.8507C670.588,-47.0692 473.8662,-23.9254 392.2924,-14.3285"/>
<polygon fill="#191970" stroke="#191970" points="392.3609,-10.8125 382.0204,-13.1201 391.543,-17.7646 392.3609,-10.8125"/>
</g>
<!-- Node7&#45;&gt;Node8 -->
<g id="edge8" class="edge">
<title>Node7&#45;&gt;Node8</title>
<path fill="none" stroke="#191970" d="M787.6979,-56.484C749.5951,-48.058 692.6795,-35.1177 634.551,-20.1883"/>
<polygon fill="#191970" stroke="#191970" points="635.3924,-16.7908 624.8347,-17.6768 633.6406,-23.5681 635.3924,-16.7908"/>
</g>
<!-- Node9 -->
<g id="node10" class="node">
<title>Node9</title>
<polygon fill="none" stroke="#bfbfbf" points="876.5,-.5 876.5,-19.5 940.5,-19.5 940.5,-.5 876.5,-.5"/>
<text text-anchor="middle" x="908.5" y="-7.5" font-family="FreeSans.ttf" font-size="10.00" fill="#000000">algorithm</text>
</g>
<!-- Node7&#45;&gt;Node9 -->
<g id="edge9" class="edge">
<title>Node7&#45;&gt;Node9</title>
<path fill="none" stroke="#191970" d="M844.9124,-56.2455C856.5057,-47.814 873.4748,-35.4729 886.9678,-25.6598"/>
<polygon fill="#191970" stroke="#191970" points="889.2126,-28.355 895.2413,-19.6427 885.0953,-22.6938 889.2126,-28.355"/>
</g>
<!-- Node10 -->
<g id="node11" class="node">
<title>Node10</title>
<polygon fill="none" stroke="#bfbfbf" points="958.5,-.5 958.5,-19.5 1000.5,-19.5 1000.5,-.5 958.5,-.5"/>
<text text-anchor="middle" x="979.5" y="-7.5" font-family="FreeSans.ttf" font-size="10.00" fill="#000000">array</text>
</g>
<!-- Node7&#45;&gt;Node10 -->
<g id="edge10" class="edge">
<title>Node7&#45;&gt;Node10</title>
<path fill="none" stroke="#191970" d="M856.9421,-56.3733C882.4104,-46.7366 921.6175,-31.9015 948.7999,-21.6163"/>
<polygon fill="#191970" stroke="#191970" points="950.1084,-24.8634 958.2226,-18.0509 947.6311,-18.3164 950.1084,-24.8634"/>
</g>
<!-- Node11 -->
<g id="node12" class="node">
<title>Node11</title>
<polygon fill="none" stroke="#bfbfbf" points="1019,-.5 1019,-19.5 1072,-19.5 1072,-.5 1019,-.5"/>
<text text-anchor="middle" x="1045.5" y="-7.5" font-family="FreeSans.ttf" font-size="10.00" fill="#000000">iterator</text>
</g>
<!-- Node7&#45;&gt;Node11 -->
<g id="edge12" class="edge">
<title>Node7&#45;&gt;Node11</title>
<path fill="none" stroke="#191970" d="M869.4007,-56.4165C903.429,-47.7651 954.9964,-34.539 1009.0234,-20.0947"/>
<polygon fill="#191970" stroke="#191970" points="1010.0252,-23.4498 1018.7783,-17.4805 1008.2131,-16.6884 1010.0252,-23.4498"/>
</g>
<!-- Node12 -->
<g id="node13" class="node">
<title>Node12</title>
<polygon fill="none" stroke="#bfbfbf" points="1090.5,-.5 1090.5,-19.5 1134.5,-19.5 1134.5,-.5 1090.5,-.5"/>
<text text-anchor="middle" x="1112.5" y="-7.5" font-family="FreeSans.ttf" font-size="10.00" fill="#000000">limits</text>
</g>
<!-- Node7&#45;&gt;Node12 -->
<g id="edge13" class="edge">
<title>Node7&#45;&gt;Node12</title>
<path fill="none" stroke="#191970" d="M892.0592,-56.903C942.7513,-48.7899 1016.8129,-35.7732 1080.5,-20 1080.5989,-19.9755 1080.6979,-19.9509 1080.797,-19.9261"/>
<polygon fill="#191970" stroke="#191970" points="1081.5011,-23.3625 1090.2171,-17.339 1079.6472,-16.6124 1081.5011,-23.3625"/>
</g>
<!-- Node13 -->
<g id="node14" class="node">
<title>Node13</title>
<polygon fill="none" stroke="#bfbfbf" points="730,-.5 730,-19.5 795,-19.5 795,-.5 730,-.5"/>
<text text-anchor="middle" x="762.5" y="-7.5" font-family="FreeSans.ttf" font-size="10.00" fill="#000000">stdexcept</text>
</g>
<!-- Node7&#45;&gt;Node13 -->
<g id="edge14" class="edge">
<title>Node7&#45;&gt;Node13</title>
<path fill="none" stroke="#191970" d="M819.4811,-56.2455C809.2902,-47.9746 794.4638,-35.9416 782.4893,-26.2232"/>
<polygon fill="#191970" stroke="#191970" points="784.3514,-23.2268 774.3812,-19.6427 779.9402,-28.662 784.3514,-23.2268"/>
</g>
<!-- Node14 -->
<g id="node15" class="node">
<title>Node14</title>
<polygon fill="none" stroke="#bfbfbf" points="643,-.5 643,-19.5 712,-19.5 712,-.5 643,-.5"/>
<text text-anchor="middle" x="677.5" y="-7.5" font-family="FreeSans.ttf" font-size="10.00" fill="#000000">type_traits</text>
</g>
<!-- Node7&#45;&gt;Node14 -->
<g id="edge15" class="edge">
<title>Node7&#45;&gt;Node14</title>
<path fill="none" stroke="#191970" d="M805.0265,-56.3733C779.6403,-47.1419 741.1355,-33.1402 713.078,-22.9375"/>
<polygon fill="#191970" stroke="#191970" points="714.2222,-19.6293 703.6281,-19.5011 711.8299,-26.2079 714.2222,-19.6293"/>
</g>
<!-- Node15 -->
<g id="node16" class="node">
<title>Node15</title>
<polygon fill="none" stroke="#bfbfbf" points="813,-.5 813,-19.5 858,-19.5 858,-.5 813,-.5"/>
<text text-anchor="middle" x="835.5" y="-7.5" font-family="FreeSans.ttf" font-size="10.00" fill="#000000">utility</text>
</g>
<!-- Node7&#45;&gt;Node15 -->
<g id="edge16" class="edge">
<title>Node7&#45;&gt;Node15</title>
<path fill="none" stroke="#191970" d="M832.1967,-56.2455C832.7187,-48.9382 833.4504,-38.6944 834.0925,-29.7046"/>
<polygon fill="#191970" stroke="#191970" points="837.5898,-29.8667 834.8112,-19.6427 830.6076,-29.3679 837.5898,-29.8667"/>
</g>
<!-- Node19&#45;&gt;Node3 -->
<g id="edge23" class="edge">
<title>Node19&#45;&gt;Node3</title>
<path fill="none" stroke="#191970" d="M403.5839,-224.2455C402.1486,-216.9382 400.1364,-206.6944 398.3705,-197.7046"/>
<polygon fill="#191970" stroke="#191970" points="401.756,-196.7805 396.3941,-187.6427 394.8873,-198.1298 401.756,-196.7805"/>
</g>
<!-- Node20&#45;&gt;Node4 -->
<g id="edge49" class="edge">
<title>Node20&#45;&gt;Node4</title>
<path fill="none" stroke="#191970" d="M399.9919,-394.17C336.1162,-382.9894 257.5,-355.8523 257.5,-290 257.5,-290 257.5,-290 257.5,-178 257.5,-145.5562 262.1282,-108.078 265.3805,-85.7472"/>
<polygon fill="#191970" stroke="#191970" points="268.8868,-85.9687 266.924,-75.5573 261.9657,-84.9203 268.8868,-85.9687"/>
</g>
<!-- Node20&#45;&gt;Node17 -->
<g id="edge52" class="edge">
<title>Node20&#45;&gt;Node17</title>
<path fill="none" stroke="#191970" d="M481.808,-392.3618C487.2665,-352.1418 508.2921,-197.2159 515.809,-141.8288"/>
<polygon fill="#191970" stroke="#191970" points="519.3208,-141.9776 517.1975,-131.5977 512.3844,-141.0361 519.3208,-141.9776"/>
</g>
<!-- Node20&#45;&gt;Node19 -->
<g id="edge50" class="edge">
<title>Node20&#45;&gt;Node19</title>
<path fill="none" stroke="#191970" d="M476.2528,-392.4862C464.2944,-365.6994 430.1681,-289.2565 414.0843,-253.2289"/>
<polygon fill="#191970" stroke="#191970" points="417.16,-251.5325 409.8874,-243.8279 410.768,-254.3861 417.16,-251.5325"/>
</g>
<!-- Node21 -->
<g id="node22" class="node">
<title>Node21</title>
<g id="a_node22"><a xlink:href="Position_8h.html" target="_top" xlink:title="Position.h">
<polygon fill="none" stroke="#000000" points="912,-336.5 912,-355.5 977,-355.5 977,-336.5 912,-336.5"/>
<text text-anchor="middle" x="944.5" y="-343.5" font-family="FreeSans.ttf" font-size="10.00" fill="#000000">Position.h</text>
</a>
</g>
</g>
<!-- Node20&#45;&gt;Node21 -->
<g id="edge25" class="edge">
<title>Node20&#45;&gt;Node21</title>
<path fill="none" stroke="#191970" d="M559.4741,-392.4686C658.1809,-380.5558 823.5972,-360.5917 901.4787,-351.1922"/>
<polygon fill="#191970" stroke="#191970" points="902.3626,-354.611 911.8712,-349.938 901.5238,-347.6615 902.3626,-354.611"/>
</g>
<!-- Node23 -->
<g id="node24" class="node">
<title>Node23</title>
<g id="a_node24"><a xlink:href="Rotation_8h.html" target="_top" xlink:title="iDynTree/Core/Rotation.h">
<polygon fill="none" stroke="#000000" points="668,-280.5 668,-299.5 805,-299.5 805,-280.5 668,-280.5"/>
<text text-anchor="middle" x="736.5" y="-287.5" font-family="FreeSans.ttf" font-size="10.00" fill="#000000">iDynTree/Core/Rotation.h</text>
</a>
</g>
</g>
<!-- Node20&#45;&gt;Node23 -->
<g id="edge48" class="edge">
<title>Node20&#45;&gt;Node23</title>
<path fill="none" stroke="#191970" d="M502.3264,-392.4509C547.7636,-372.5722 652.6482,-326.6852 705.2416,-303.6756"/>
<polygon fill="#191970" stroke="#191970" points="706.9701,-306.7397 714.7288,-299.5249 704.1644,-300.3266 706.9701,-306.7397"/>
</g>
<!-- Node27 -->
<g id="node28" class="node">
<title>Node27</title>
<polygon fill="none" stroke="#bfbfbf" points="872.5,-112.5 872.5,-131.5 932.5,-131.5 932.5,-112.5 872.5,-112.5"/>
<text text-anchor="middle" x="902.5" y="-119.5" font-family="FreeSans.ttf" font-size="10.00" fill="#000000">iostream</text>
</g>
<!-- Node20&#45;&gt;Node27 -->
<g id="edge51" class="edge">
<title>Node20&#45;&gt;Node27</title>
<path fill="none" stroke="#191970" d="M561.2502,-393.1366C633.4787,-381.7622 739.1222,-356.2706 813.5,-300 845.5507,-275.752 840.4639,-257.6098 862.5,-224 873.0437,-207.9187 878.7834,-205.6134 886.5,-188 893.0055,-173.151 897.1384,-155.2129 899.5707,-141.7879"/>
<polygon fill="#191970" stroke="#191970" points="903.054,-142.1756 901.2286,-131.7392 896.1474,-141.0361 903.054,-142.1756"/>
</g>
<!-- Node21&#45;&gt;Node16 -->
<g id="edge47" class="edge">
<title>Node21&#45;&gt;Node16</title>
<path fill="none" stroke="#191970" d="M962.1614,-336.291C988.3242,-320.7671 1036.3469,-287.6118 1055.5,-244 1063.505,-225.7725 1053.3727,-180.4973 1045.5,-168 1037.2249,-154.8639 1023.7133,-144.3359 1011.2324,-136.6846"/>
<polygon fill="#191970" stroke="#191970" points="1012.8316,-133.567 1002.4161,-131.6254 1009.3475,-139.6383 1012.8316,-133.567"/>
</g>
<!-- Node22 -->
<g id="node23" class="node">
<title>Node22</title>
<g id="a_node23"><a xlink:href="PositionRaw_8h.html" target="_top" xlink:title="iDynTree/Core/PositionRaw.h">
<polygon fill="none" stroke="#000000" points="871.5,-224.5 871.5,-243.5 1027.5,-243.5 1027.5,-224.5 871.5,-224.5"/>
<text text-anchor="middle" x="949.5" y="-231.5" font-family="FreeSans.ttf" font-size="10.00" fill="#000000">iDynTree/Core/PositionRaw.h</text>
</a>
</g>
</g>
<!-- Node21&#45;&gt;Node22 -->
<g id="edge26" class="edge">
<title>Node21&#45;&gt;Node22</title>
<path fill="none" stroke="#191970" d="M944.9263,-336.4509C945.7418,-318.184 947.5377,-277.9553 948.6206,-253.6976"/>
<polygon fill="#191970" stroke="#191970" points="952.1252,-253.6711 949.0748,-243.5249 945.1322,-253.3588 952.1252,-253.6711"/>
</g>
<!-- Node21&#45;&gt;Node23 -->
<g id="edge29" class="edge">
<title>Node21&#45;&gt;Node23</title>
<path fill="none" stroke="#191970" d="M911.5418,-337.1266C876.5561,-327.7074 821.0247,-312.7567 781.9079,-302.2252"/>
<polygon fill="#191970" stroke="#191970" points="782.6563,-298.8021 772.0902,-299.582 780.8365,-305.5615 782.6563,-298.8021"/>
</g>
<!-- Node22&#45;&gt;Node3 -->
<g id="edge27" class="edge">
<title>Node22&#45;&gt;Node3</title>
<path fill="none" stroke="#191970" d="M871.4524,-226.1249C769.931,-215.8813 592.8904,-198.0178 485.4159,-187.1735"/>
<polygon fill="#191970" stroke="#191970" points="485.538,-183.6681 475.2371,-186.1464 484.8352,-190.6328 485.538,-183.6681"/>
</g>
<!-- Node22&#45;&gt;Node16 -->
<g id="edge28" class="edge">
<title>Node22&#45;&gt;Node16</title>
<path fill="none" stroke="#191970" d="M952.2283,-224.4509C957.4711,-206.1013 969.0455,-165.5908 975.9659,-141.3693"/>
<polygon fill="#191970" stroke="#191970" points="979.3967,-142.1017 978.7786,-131.5249 972.666,-140.1786 979.3967,-142.1017"/>
</g>
<!-- Node23&#45;&gt;Node3 -->
<g id="edge46" class="edge">
<title>Node23&#45;&gt;Node3</title>
<path fill="none" stroke="#191970" d="M707.3413,-280.4509C645.7566,-260.2829 502.4256,-213.3441 433.2366,-190.6857"/>
<polygon fill="#191970" stroke="#191970" points="434.1776,-187.311 423.5849,-187.5249 431.999,-193.9634 434.1776,-187.311"/>
</g>
<!-- Node23&#45;&gt;Node16 -->
<g id="edge30" class="edge">
<title>Node23&#45;&gt;Node16</title>
<path fill="none" stroke="#191970" d="M805.2503,-284.1505C889.1083,-276.3067 1021.6139,-261.3426 1036.5,-244 1064.0646,-211.8866 1024.5556,-163.705 999.4692,-138.5808"/>
<polygon fill="#191970" stroke="#191970" points="1001.8524,-136.0164 992.237,-131.5672 996.9792,-141.0416 1001.8524,-136.0164"/>
</g>
<!-- Node23&#45;&gt;Node19 -->
<g id="edge31" class="edge">
<title>Node23&#45;&gt;Node19</title>
<path fill="none" stroke="#191970" d="M679.9752,-280.4369C622.256,-270.6717 532.7029,-255.5207 471.7034,-245.2006"/>
<polygon fill="#191970" stroke="#191970" points="472.2355,-241.7409 461.7917,-243.5237 471.0677,-248.6429 472.2355,-241.7409"/>
</g>
<!-- Node24 -->
<g id="node25" class="node">
<title>Node24</title>
<g id="a_node25"><a xlink:href="RotationRaw_8h.html" target="_top" xlink:title="iDynTree/Core/RotationRaw.h">
<polygon fill="none" stroke="#000000" points="657.5,-224.5 657.5,-243.5 815.5,-243.5 815.5,-224.5 657.5,-224.5"/>
<text text-anchor="middle" x="736.5" y="-231.5" font-family="FreeSans.ttf" font-size="10.00" fill="#000000">iDynTree/Core/RotationRaw.h</text>
</a>
</g>
</g>
<!-- Node23&#45;&gt;Node24 -->
<g id="edge32" class="edge">
<title>Node23&#45;&gt;Node24</title>
<path fill="none" stroke="#191970" d="M736.5,-280.2455C736.5,-272.9382 736.5,-262.6944 736.5,-253.7046"/>
<polygon fill="#191970" stroke="#191970" points="740.0001,-253.6426 736.5,-243.6427 733.0001,-253.6427 740.0001,-253.6426"/>
</g>
<!-- Node24&#45;&gt;Node16 -->
<g id="edge45" class="edge">
<title>Node24&#45;&gt;Node16</title>
<path fill="none" stroke="#191970" d="M779.8574,-224.4921C810.5563,-216.8631 852.2017,-204.6685 886.5,-188 914.7235,-174.2838 943.8857,-152.7233 962.326,-138.0042"/>
<polygon fill="#191970" stroke="#191970" points="964.6765,-140.6042 970.2342,-131.5841 960.2645,-135.1696 964.6765,-140.6042"/>
</g>
<!-- Node25 -->
<g id="node26" class="node">
<title>Node25</title>
<g id="a_node26"><a xlink:href="MatrixFixSize_8h.html" target="_top" xlink:title="iDynTree/Core/MatrixFixSize.h">
<polygon fill="none" stroke="#000000" points="532,-168.5 532,-187.5 693,-187.5 693,-168.5 532,-168.5"/>
<text text-anchor="middle" x="612.5" y="-175.5" font-family="FreeSans.ttf" font-size="10.00" fill="#000000">iDynTree/Core/MatrixFixSize.h</text>
</a>
</g>
</g>
<!-- Node24&#45;&gt;Node25 -->
<g id="edge33" class="edge">
<title>Node24&#45;&gt;Node25</title>
<path fill="none" stroke="#191970" d="M715.1836,-224.3733C695.2784,-215.3838 665.3564,-201.8706 642.94,-191.7471"/>
<polygon fill="#191970" stroke="#191970" points="644.0925,-188.4272 633.5382,-187.5011 641.2113,-194.8068 644.0925,-188.4272"/>
</g>
<!-- Node25&#45;&gt;Node4 -->
<g id="edge34" class="edge">
<title>Node25&#45;&gt;Node4</title>
<path fill="none" stroke="#191970" d="M607.2836,-168.4942C598.6322,-153.7274 579.8305,-125.5675 555.5,-112 519.1945,-91.755 410.7524,-78.5159 338.0584,-71.6502"/>
<polygon fill="#191970" stroke="#191970" points="338.3296,-68.1604 328.0495,-70.7237 337.6842,-75.1306 338.3296,-68.1604"/>
</g>
<!-- Node25&#45;&gt;Node8 -->
<g id="edge40" class="edge">
<title>Node25&#45;&gt;Node8</title>
<path fill="none" stroke="#191970" d="M611.7072,-168.4862C609.4941,-141.9293 603.2138,-66.5651 600.1805,-30.1655"/>
<polygon fill="#191970" stroke="#191970" points="603.6374,-29.5027 599.319,-19.8279 596.6616,-30.084 603.6374,-29.5027"/>
</g>
<!-- Node25&#45;&gt;Node16 -->
<g id="edge42" class="edge">
<title>Node25&#45;&gt;Node16</title>
<path fill="none" stroke="#191970" d="M687.3707,-168.4702C768.9996,-157.9131 894.2977,-141.1733 941.5,-132 944.0208,-131.5101 946.6207,-130.9611 949.2279,-130.3792"/>
<polygon fill="#191970" stroke="#191970" points="950.243,-133.7358 959.1684,-128.0274 948.6312,-126.9239 950.243,-133.7358"/>
</g>
<!-- Node25&#45;&gt;Node17 -->
<g id="edge44" class="edge">
<title>Node25&#45;&gt;Node17</title>
<path fill="none" stroke="#191970" d="M596.1264,-168.2455C581.5692,-159.5731 560.069,-146.7645 543.3848,-136.825"/>
<polygon fill="#191970" stroke="#191970" points="545.0683,-133.7539 534.6859,-131.6427 541.4856,-139.7676 545.0683,-133.7539"/>
</g>
<!-- Node25&#45;&gt;Node18 -->
<g id="edge41" class="edge">
<title>Node25&#45;&gt;Node18</title>
<path fill="none" stroke="#191970" d="M584.1355,-168.3733C555.9067,-158.7926 512.5382,-144.0736 482.2557,-133.7959"/>
<polygon fill="#191970" stroke="#191970" points="483.1228,-130.3941 472.5284,-130.4945 480.873,-137.0228 483.1228,-130.3941"/>
</g>
<!-- Node26 -->
<g id="node27" class="node">
<title>Node26</title>
<g id="a_node27"><a xlink:href="MatrixView_8h.html" target="_top" xlink:title="iDynTree/Core/MatrixView.h">
<polygon fill="none" stroke="#000000" points="641,-112.5 641,-131.5 792,-131.5 792,-112.5 641,-112.5"/>
<text text-anchor="middle" x="716.5" y="-119.5" font-family="FreeSans.ttf" font-size="10.00" fill="#000000">iDynTree/Core/MatrixView.h</text>
</a>
</g>
</g>
<!-- Node25&#45;&gt;Node26 -->
<g id="edge35" class="edge">
<title>Node25&#45;&gt;Node26</title>
<path fill="none" stroke="#191970" d="M630.6154,-168.2455C646.945,-159.4527 671.171,-146.4079 689.7339,-136.4125"/>
<polygon fill="#191970" stroke="#191970" points="691.4468,-139.4654 698.5922,-131.6427 688.1281,-133.3021 691.4468,-139.4654"/>
</g>
<!-- Node25&#45;&gt;Node27 -->
<g id="edge43" class="edge">
<title>Node25&#45;&gt;Node27</title>
<path fill="none" stroke="#191970" d="M662.0233,-168.4369C718.593,-157.5131 810.0647,-139.8496 862.3755,-129.7482"/>
<polygon fill="#191970" stroke="#191970" points="863.1386,-133.1656 872.2936,-127.833 861.8113,-126.2925 863.1386,-133.1656"/>
</g>
<!-- Node26&#45;&gt;Node4 -->
<g id="edge39" class="edge">
<title>Node26&#45;&gt;Node4</title>
<path fill="none" stroke="#191970" d="M640.7564,-112.532C556.0877,-101.9485 420.1268,-84.9534 338.0589,-74.6949"/>
<polygon fill="#191970" stroke="#191970" points="338.4358,-71.2148 328.0789,-73.4474 337.5675,-78.1608 338.4358,-71.2148"/>
</g>
<!-- Node26&#45;&gt;Node7 -->
<g id="edge38" class="edge">
<title>Node26&#45;&gt;Node7</title>
<path fill="none" stroke="#191970" d="M736.2692,-112.3733C754.6469,-103.4241 782.2312,-89.9917 802.9893,-79.8835"/>
<polygon fill="#191970" stroke="#191970" points="804.5304,-83.026 811.9888,-75.5011 801.4657,-76.7325 804.5304,-83.026"/>
</g>
<!-- Node26&#45;&gt;Node8 -->
<g id="edge36" class="edge">
<title>Node26&#45;&gt;Node8</title>
<path fill="none" stroke="#191970" d="M706.4394,-112.4509C686.323,-93.3574 640.927,-50.2697 615.8906,-26.5063"/>
<polygon fill="#191970" stroke="#191970" points="618.1977,-23.8706 608.5351,-19.5249 613.3787,-28.9478 618.1977,-23.8706"/>
</g>
<!-- Node26&#45;&gt;Node14 -->
<g id="edge37" class="edge">
<title>Node26&#45;&gt;Node14</title>
<path fill="none" stroke="#191970" d="M713.1749,-112.4509C706.7565,-94.0186 692.5517,-53.2254 684.131,-29.043"/>
<polygon fill="#191970" stroke="#191970" points="687.4106,-27.8177 680.8167,-19.5249 680.7999,-30.1197 687.4106,-27.8177"/>
</g>
<!-- Node29 -->
<g id="node30" class="node">
<title>Node29</title>
<polygon fill="none" stroke="#bfbfbf" points="0,-454 0,-473 77,-473 77,-454 0,-454"/>
<text text-anchor="middle" x="38.5" y="-461" font-family="FreeSans.ttf" font-size="10.00" fill="#000000">Eigen/Dense</text>
</g>
<!-- Node28&#45;&gt;Node29 -->
<g id="edge54" class="edge">
<title>Node28&#45;&gt;Node29</title>
<path fill="none" stroke="#191970" d="M261.6143,-571.3845C218.789,-550.6768 117.6767,-501.785 67.6183,-477.5798"/>
<polygon fill="#191970" stroke="#191970" points="68.8461,-474.2859 58.3197,-473.0836 65.7988,-480.5878 68.8461,-474.2859"/>
</g>
<!-- Node30 -->
<g id="node31" class="node">
<title>Node30</title>
<g id="a_node31"><a xlink:href="EigenHelpers_8h.html" target="_top" xlink:title="iDynTree/Core/EigenHelpers.h">
<polygon fill="none" stroke="#000000" points="201,-515.5 201,-534.5 362,-534.5 362,-515.5 201,-515.5"/>
<text text-anchor="middle" x="281.5" y="-522.5" font-family="FreeSans.ttf" font-size="10.00" fill="#000000">iDynTree/Core/EigenHelpers.h</text>
</a>
</g>
</g>
<!-- Node28&#45;&gt;Node30 -->
<g id="edge55" class="edge">
<title>Node28&#45;&gt;Node30</title>
<path fill="none" stroke="#191970" d="M281.5,-571.2455C281.5,-563.9382 281.5,-553.6944 281.5,-544.7046"/>
<polygon fill="#191970" stroke="#191970" points="285.0001,-544.6426 281.5,-534.6427 278.0001,-544.6427 285.0001,-544.6426"/>
</g>
<!-- Node30&#45;&gt;Node2 -->
<g id="edge66" class="edge">
<title>Node30&#45;&gt;Node2</title>
<path fill="none" stroke="#191970" d="M308.375,-515.3906C333.2696,-506.4893 370.9755,-493.0073 401.7139,-482.0165"/>
<polygon fill="#191970" stroke="#191970" points="403.1863,-485.2072 411.4241,-478.5446 400.8295,-478.6158 403.1863,-485.2072"/>
</g>
<!-- Node30&#45;&gt;Node3 -->
<g id="edge61" class="edge">
<title>Node30&#45;&gt;Node3</title>
<path fill="none" stroke="#191970" d="M252.7589,-515.3868C235.1618,-508.0697 213.5821,-496.2761 200.5,-479 179.2209,-450.899 181.5,-437.2487 181.5,-402 181.5,-402 181.5,-402 181.5,-290 181.5,-230.8564 246.6305,-202.8752 304.8609,-189.6773"/>
<polygon fill="#191970" stroke="#191970" points="305.8378,-193.0476 314.8838,-187.532 304.3727,-186.2026 305.8378,-193.0476"/>
</g>
<!-- Node30&#45;&gt;Node4 -->
<g id="edge76" class="edge">
<title>Node30&#45;&gt;Node4</title>
<path fill="none" stroke="#191970" d="M232.8381,-515.4456C194.1751,-506.9398 144.231,-493.6096 129.5,-479 104.0484,-453.7581 105.5,-437.846 105.5,-402 105.5,-402 105.5,-402 105.5,-290 105.5,-195.5378 201.4441,-114.1711 246.1134,-81.4076"/>
<polygon fill="#191970" stroke="#191970" points="248.2395,-84.1898 254.32,-75.5135 244.156,-78.5043 248.2395,-84.1898"/>
</g>
<!-- Node30&#45;&gt;Node5 -->
<g id="edge56" class="edge">
<title>Node30&#45;&gt;Node5</title>
<path fill="none" stroke="#191970" d="M245.6715,-515.4423C224.5553,-508.2948 198.5305,-496.6634 180.5,-479 153.3778,-452.43 143.5,-439.9681 143.5,-402 143.5,-402 143.5,-402 143.5,-122 143.5,-83.5305 167.2579,-76.9844 199.5,-56 204.632,-52.6599 274.4515,-32.7213 318.9267,-20.2151"/>
<polygon fill="#191970" stroke="#191970" points="320.1339,-23.5116 328.8159,-17.4392 318.2421,-16.772 320.1339,-23.5116"/>
</g>
<!-- Node30&#45;&gt;Node25 -->
<g id="edge65" class="edge">
<title>Node30&#45;&gt;Node25</title>
<path fill="none" stroke="#191970" d="M354.766,-515.4913C425.8259,-505.7033 525.0008,-490.3256 539.5,-479 584.5853,-443.7829 605.1559,-259.1536 610.816,-197.8247"/>
<polygon fill="#191970" stroke="#191970" points="614.3277,-197.8471 611.7271,-187.5764 607.3552,-197.2271 614.3277,-197.8471"/>
</g>
<!-- Node30&#45;&gt;Node29 -->
<g id="edge57" class="edge">
<title>Node30&#45;&gt;Node29</title>
<path fill="none" stroke="#191970" d="M239.4715,-515.4223C200.8754,-506.4853 142.1597,-492.5323 91.5,-479 87.7011,-477.9852 83.759,-476.8978 79.8171,-475.7869"/>
<polygon fill="#191970" stroke="#191970" points="80.6779,-472.3928 70.1008,-473.0056 78.7515,-479.1225 80.6779,-472.3928"/>
</g>
<!-- Node31 -->
<g id="node32" class="node">
<title>Node31</title>
<g id="a_node32"><a xlink:href="VectorDynSize_8h.html" target="_top" xlink:title="iDynTree/Core/VectorDynSize.h">
<polygon fill="none" stroke="#000000" points="1197,-168.5 1197,-187.5 1364,-187.5 1364,-168.5 1197,-168.5"/>
<text text-anchor="middle" x="1280.5" y="-175.5" font-family="FreeSans.ttf" font-size="10.00" fill="#000000">iDynTree/Core/VectorDynSize.h</text>
</a>
</g>
</g>
<!-- Node30&#45;&gt;Node31 -->
<g id="edge58" class="edge">
<title>Node30&#45;&gt;Node31</title>
<path fill="none" stroke="#191970" d="M362.4493,-515.9708C365.5047,-515.641 368.5298,-515.3165 371.5,-515 468.6492,-504.6493 1243.5,-499.699 1243.5,-402 1243.5,-402 1243.5,-402 1243.5,-290 1243.5,-255.7041 1259.3354,-218.3471 1270.287,-196.6122"/>
<polygon fill="#191970" stroke="#191970" points="1273.5018,-198.0179 1275.0405,-187.5354 1267.3006,-194.7704 1273.5018,-198.0179"/>
</g>
<!-- Node32 -->
<g id="node33" class="node">
<title>Node32</title>
<g id="a_node33"><a xlink:href="MatrixDynSize_8h.html" target="_top" xlink:title="iDynTree/Core/MatrixDynSize.h">
<polygon fill="none" stroke="#000000" points="711,-168.5 711,-187.5 878,-187.5 878,-168.5 711,-168.5"/>
<text text-anchor="middle" x="794.5" y="-175.5" font-family="FreeSans.ttf" font-size="10.00" fill="#000000">iDynTree/Core/MatrixDynSize.h</text>
</a>
</g>
</g>
<!-- Node30&#45;&gt;Node32 -->
<g id="edge62" class="edge">
<title>Node30&#45;&gt;Node32</title>
<path fill="none" stroke="#191970" d="M356.9362,-515.4849C434.5752,-505.2555 546.6617,-489.1053 564.5,-479 603.4671,-456.9253 629.5,-446.7854 629.5,-402 629.5,-402 629.5,-402 629.5,-290 629.5,-259.4754 627.1865,-245.8515 648.5,-224 661.3483,-210.8274 703.0181,-198.4457 738.5685,-189.8537"/>
<polygon fill="#191970" stroke="#191970" points="739.4751,-193.236 748.4042,-187.5333 737.8677,-186.423 739.4751,-193.236"/>
</g>
<!-- Node33 -->
<g id="node34" class="node">
<title>Node33</title>
<g id="a_node34"><a xlink:href="SpatialForceVector_8h.html" target="_top" xlink:title="iDynTree/Core/SpatialForce\lVector.h">
<polygon fill="none" stroke="#000000" points="209.5,-448.5 209.5,-478.5 357.5,-478.5 357.5,-448.5 209.5,-448.5"/>
<text text-anchor="start" x="217.5" y="-466.5" font-family="FreeSans.ttf" font-size="10.00" fill="#000000">iDynTree/Core/SpatialForce</text>
<text text-anchor="middle" x="283.5" y="-455.5" font-family="FreeSans.ttf" font-size="10.00" fill="#000000">Vector.h</text>
</a>
</g>
</g>
<!-- Node30&#45;&gt;Node33 -->
<g id="edge67" class="edge">
<title>Node30&#45;&gt;Node33</title>
<path fill="none" stroke="#191970" d="M281.8125,-515.3906C282.0456,-508.2234 282.3752,-498.0862 282.6814,-488.671"/>
<polygon fill="#191970" stroke="#191970" points="286.1838,-488.6531 283.0107,-478.5446 279.1875,-488.4255 286.1838,-488.6531"/>
</g>
<!-- Node34 -->
<g id="node35" class="node">
<title>Node34</title>
<g id="a_node35"><a xlink:href="Transform_8h.html" target="_top" xlink:title="iDynTree/Core/Transform.h">
<polygon fill="none" stroke="#000000" points="871.5,-392.5 871.5,-411.5 1017.5,-411.5 1017.5,-392.5 871.5,-392.5"/>
<text text-anchor="middle" x="944.5" y="-399.5" font-family="FreeSans.ttf" font-size="10.00" fill="#000000">iDynTree/Core/Transform.h</text>
</a>
</g>
</g>
<!-- Node30&#45;&gt;Node34 -->
<g id="edge71" class="edge">
<title>Node30&#45;&gt;Node34</title>
<path fill="none" stroke="#191970" d="M362.2884,-515.9177C452.0762,-505.6137 591.3034,-488.9529 643.5,-479 737.2199,-461.1294 845.1263,-431.1944 902.8739,-414.3978"/>
<polygon fill="#191970" stroke="#191970" points="904.103,-417.6851 912.7193,-411.5198 902.1389,-410.9662 904.103,-417.6851"/>
</g>
<!-- Node31&#45;&gt;Node7 -->
<g id="edge59" class="edge">
<title>Node31&#45;&gt;Node7</title>
<path fill="none" stroke="#191970" d="M1242.2185,-168.4509C1160.5377,-148.0762 969.3245,-100.3794 879.5947,-77.9969"/>
<polygon fill="#191970" stroke="#191970" points="880.2344,-74.5493 869.6846,-75.5249 878.5402,-81.3412 880.2344,-74.5493"/>
</g>
<!-- Node31&#45;&gt;Node16 -->
<g id="edge60" class="edge">
<title>Node31&#45;&gt;Node16</title>
<path fill="none" stroke="#191970" d="M1229.4398,-168.4369C1167.6469,-156.8636 1065.4632,-137.7256 1013.6947,-128.0298"/>
<polygon fill="#191970" stroke="#191970" points="1014.2161,-124.5666 1003.7426,-126.1658 1012.9274,-131.447 1014.2161,-124.5666"/>
</g>
<!-- Node32&#45;&gt;Node16 -->
<g id="edge63" class="edge">
<title>Node32&#45;&gt;Node16</title>
<path fill="none" stroke="#191970" d="M826.6464,-168.3733C860.9993,-158.0858 915.1355,-141.8739 949.4509,-131.5976"/>
<polygon fill="#191970" stroke="#191970" points="950.8448,-134.8338 959.4203,-128.6121 948.8366,-128.1281 950.8448,-134.8338"/>
</g>
<!-- Node32&#45;&gt;Node26 -->
<g id="edge64" class="edge">
<title>Node32&#45;&gt;Node26</title>
<path fill="none" stroke="#191970" d="M780.9134,-168.2455C769.1695,-159.814 751.9801,-147.4729 738.3118,-137.6598"/>
<polygon fill="#191970" stroke="#191970" points="740.0954,-134.6316 729.9309,-131.6427 736.0129,-140.3179 740.0954,-134.6316"/>
</g>
<!-- Node33&#45;&gt;Node3 -->
<g id="edge68" class="edge">
<title>Node33&#45;&gt;Node3</title>
<path fill="none" stroke="#191970" d="M268.6563,-448.2253C249.75,-427.0891 219.5,-386.8831 219.5,-346 219.5,-346 219.5,-346 219.5,-290 219.5,-233.8638 284.1721,-204.589 334.8866,-190.2624"/>
<polygon fill="#191970" stroke="#191970" points="336.0712,-193.5683 344.8201,-187.5928 334.2544,-186.8082 336.0712,-193.5683"/>
</g>
<!-- Node33&#45;&gt;Node19 -->
<g id="edge69" class="edge">
<title>Node33&#45;&gt;Node19</title>
<path fill="none" stroke="#191970" d="M291.5048,-448.4419C312.9925,-408.0202 371.9057,-297.1958 395.518,-252.7775"/>
<polygon fill="#191970" stroke="#191970" points="398.6348,-254.3709 400.2382,-243.8981 392.4538,-251.0852 398.6348,-254.3709"/>
</g>
<!-- Node33&#45;&gt;Node20 -->
<g id="edge70" class="edge">
<title>Node33&#45;&gt;Node20</title>
<path fill="none" stroke="#191970" d="M331.6916,-448.4554C364.9941,-438.059 408.7843,-424.3884 440.2264,-414.5727"/>
<polygon fill="#191970" stroke="#191970" points="441.4693,-417.8514 449.972,-411.5303 439.3833,-411.1694 441.4693,-417.8514"/>
</g>
<!-- Node34&#45;&gt;Node16 -->
<g id="edge75" class="edge">
<title>Node34&#45;&gt;Node16</title>
<path fill="none" stroke="#191970" d="M1017.5511,-395.7328C1083.2496,-385.6145 1169.5,-359.1606 1169.5,-290 1169.5,-290 1169.5,-290 1169.5,-234 1169.5,-198.0554 1066.7873,-154.0572 1013.2023,-133.5492"/>
<polygon fill="#191970" stroke="#191970" points="1014.396,-130.2588 1003.8043,-130.0005 1011.9232,-136.8075 1014.396,-130.2588"/>
</g>
<!-- Node34&#45;&gt;Node21 -->
<g id="edge72" class="edge">
<title>Node34&#45;&gt;Node21</title>
<path fill="none" stroke="#191970" d="M944.5,-392.2455C944.5,-384.9382 944.5,-374.6944 944.5,-365.7046"/>
<polygon fill="#191970" stroke="#191970" points="948.0001,-365.6426 944.5,-355.6427 941.0001,-365.6427 948.0001,-365.6426"/>
</g>
<!-- Node34&#45;&gt;Node23 -->
<g id="edge73" class="edge">
<title>Node34&#45;&gt;Node23</title>
<path fill="none" stroke="#191970" d="M926.766,-392.4509C890.2321,-372.7788 806.396,-327.6363 763.2437,-304.4005"/>
<polygon fill="#191970" stroke="#191970" points="764.6532,-301.1843 754.1891,-299.5249 761.3344,-307.3476 764.6532,-301.1843"/>
</g>
<!-- Node34&#45;&gt;Node25 -->
<g id="edge74" class="edge">
<title>Node34&#45;&gt;Node25</title>
<path fill="none" stroke="#191970" d="M956.5755,-392.4951C991.2452,-364.1185 1085.5501,-278.6035 1036.5,-224 988.3707,-170.4215 791.7293,-194.1776 703.0394,-187.9528"/>
<polygon fill="#191970" stroke="#191970" points="703.2982,-184.4621 693.0283,-187.0658 702.6803,-191.4348 703.2982,-184.4621"/>
</g>
</g>
</svg>
