<?xml version="1.0" encoding="UTF-8" standalone="no"?>
<!DOCTYPE svg PUBLIC "-//W3C//DTD SVG 1.1//EN"
 "http://www.w3.org/Graphics/SVG/1.1/DTD/svg11.dtd">
<!-- Generated by graphviz version 2.40.1 (20161225.0304)
 -->
<!-- Title: SpatialForceVector.cpp Pages: 1 -->
<svg width="1366pt" height="599pt"
 viewBox="0.00 0.00 1365.50 599.00" xmlns="http://www.w3.org/2000/svg" xmlns:xlink="http://www.w3.org/1999/xlink">
<g id="graph0" class="graph" transform="scale(1 1) rotate(0) translate(4 595)">
<title>SpatialForceVector.cpp</title>
<!-- Node0 -->
<g id="node1" class="node">
<title>Node0</title>
<polygon fill="#bfbfbf" stroke="#000000" points="1159,-571.5 1159,-590.5 1286,-590.5 1286,-571.5 1159,-571.5"/>
<text text-anchor="middle" x="1222.5" y="-578.5" font-family="FreeSans.ttf" font-size="10.00" fill="#000000">SpatialForceVector.cpp</text>
</g>
<!-- Node1 -->
<g id="node2" class="node">
<title>Node1</title>
<g id="a_node2"><a xlink:href="SpatialForceVector_8h.html" target="_top" xlink:title="iDynTree/Core/SpatialForce\lVector.h">
<polygon fill="none" stroke="#000000" points="974.5,-448.5 974.5,-478.5 1122.5,-478.5 1122.5,-448.5 974.5,-448.5"/>
<text text-anchor="start" x="982.5" y="-466.5" font-family="FreeSans.ttf" font-size="10.00" fill="#000000">iDynTree/Core/SpatialForce</text>
<text text-anchor="middle" x="1048.5" y="-455.5" font-family="FreeSans.ttf" font-size="10.00" fill="#000000">Vector.h</text>
</a>
</g>
</g>
<!-- Node0&#45;&gt;Node1 -->
<g id="edge1" class="edge">
<title>Node0&#45;&gt;Node1</title>
<path fill="none" stroke="#191970" d="M1208.2608,-571.3845C1180.2334,-552.4579 1117.3403,-509.987 1079.3607,-484.3398"/>
<polygon fill="#191970" stroke="#191970" points="1080.9836,-481.2125 1070.7375,-478.5167 1077.0661,-487.0137 1080.9836,-481.2125"/>
</g>
<!-- Node3 -->
<g id="node4" class="node">
<title>Node3</title>
<g id="a_node4"><a xlink:href="Utils_8h.html" target="_top" xlink:title="iDynTree/Core/Utils.h">
<polygon fill="none" stroke="#000000" points="1021,-56.5 1021,-75.5 1140,-75.5 1140,-56.5 1021,-56.5"/>
<text text-anchor="middle" x="1080.5" y="-63.5" font-family="FreeSans.ttf" font-size="10.00" fill="#000000">iDynTree/Core/Utils.h</text>
</a>
</g>
</g>
<!-- Node0&#45;&gt;Node3 -->
<g id="edge52" class="edge">
<title>Node0&#45;&gt;Node3</title>
<path fill="none" stroke="#191970" d="M1238.9547,-571.3412C1266.6293,-553.7137 1319.5,-513.4949 1319.5,-463.5 1319.5,-463.5 1319.5,-463.5 1319.5,-178 1319.5,-140.9295 1299.5803,-132.2049 1268.5,-112 1248.4217,-98.9473 1192.4175,-86.1689 1146.7194,-77.406"/>
<polygon fill="#191970" stroke="#191970" points="1147.3203,-73.9577 1136.8448,-75.5434 1146.0227,-80.8364 1147.3203,-73.9577"/>
</g>
<!-- Node16 -->
<g id="node17" class="node">
<title>Node16</title>
<polygon fill="none" stroke="#bfbfbf" points="1058.5,-112.5 1058.5,-131.5 1114.5,-131.5 1114.5,-112.5 1058.5,-112.5"/>
<text text-anchor="middle" x="1086.5" y="-119.5" font-family="FreeSans.ttf" font-size="10.00" fill="#000000">sstream</text>
</g>
<!-- Node0&#45;&gt;Node16 -->
<g id="edge75" class="edge">
<title>Node0&#45;&gt;Node16</title>
<path fill="none" stroke="#191970" d="M1223.4817,-571.1839C1225.4441,-548.9629 1228.9013,-493.2255 1219.5,-448 1193.8944,-324.8232 1123.4916,-188.9871 1096.8755,-140.4681"/>
<polygon fill="#191970" stroke="#191970" points="1099.9346,-138.7673 1092.0269,-131.7161 1093.8114,-142.1596 1099.9346,-138.7673"/>
</g>
<!-- Node27 -->
<g id="node28" class="node">
<title>Node27</title>
<g id="a_node28"><a xlink:href="EigenHelpers_8h.html" target="_top" xlink:title="iDynTree/Core/EigenHelpers.h">
<polygon fill="none" stroke="#000000" points="753,-515.5 753,-534.5 914,-534.5 914,-515.5 753,-515.5"/>
<text text-anchor="middle" x="833.5" y="-522.5" font-family="FreeSans.ttf" font-size="10.00" fill="#000000">iDynTree/Core/EigenHelpers.h</text>
</a>
</g>
</g>
<!-- Node0&#45;&gt;Node27 -->
<g id="edge53" class="edge">
<title>Node0&#45;&gt;Node27</title>
<path fill="none" stroke="#191970" d="M1158.7002,-571.8154C1090.4573,-561.9913 982.2611,-546.4155 909.6191,-535.958"/>
<polygon fill="#191970" stroke="#191970" points="910.0096,-532.4782 899.6129,-534.5175 909.0121,-539.4068 910.0096,-532.4782"/>
</g>
<!-- Node2 -->
<g id="node3" class="node">
<title>Node2</title>
<g id="a_node3"><a xlink:href="VectorFixSize_8h.html" target="_top" xlink:title="iDynTree/Core/VectorFixSize.h">
<polygon fill="none" stroke="#000000" points="738,-168.5 738,-187.5 899,-187.5 899,-168.5 738,-168.5"/>
<text text-anchor="middle" x="818.5" y="-175.5" font-family="FreeSans.ttf" font-size="10.00" fill="#000000">iDynTree/Core/VectorFixSize.h</text>
</a>
</g>
</g>
<!-- Node1&#45;&gt;Node2 -->
<g id="edge2" class="edge">
<title>Node1&#45;&gt;Node2</title>
<path fill="none" stroke="#191970" d="M1093.5212,-448.4547C1120.5977,-436.5236 1147.9656,-417.5917 1137.5,-392 1097.8858,-295.131 1062.1385,-278.017 972.5,-224 945.5628,-207.7674 912.4933,-196.9116 883.9129,-189.8447"/>
<polygon fill="#191970" stroke="#191970" points="884.5456,-186.3979 874.0083,-187.5005 882.9333,-193.2097 884.5456,-186.3979"/>
</g>
<!-- Node18 -->
<g id="node19" class="node">
<title>Node18</title>
<g id="a_node19"><a xlink:href="GeomVector3_8h.html" target="_top" xlink:title="iDynTree/Core/GeomVector3.h">
<polygon fill="none" stroke="#000000" points="801,-224.5 801,-243.5 964,-243.5 964,-224.5 801,-224.5"/>
<text text-anchor="middle" x="882.5" y="-231.5" font-family="FreeSans.ttf" font-size="10.00" fill="#000000">iDynTree/Core/GeomVector3.h</text>
</a>
</g>
</g>
<!-- Node1&#45;&gt;Node18 -->
<g id="edge21" class="edge">
<title>Node1&#45;&gt;Node18</title>
<path fill="none" stroke="#191970" d="M1010.0988,-448.3541C992.5059,-439.8426 972.5035,-427.7333 958.5,-412 915.9656,-364.2116 894.6613,-289.0488 886.5353,-253.6632"/>
<polygon fill="#191970" stroke="#191970" points="889.9032,-252.68 884.3499,-243.6572 883.0644,-254.1738 889.9032,-252.68"/>
</g>
<!-- Node19 -->
<g id="node20" class="node">
<title>Node19</title>
<g id="a_node20"><a xlink:href="SpatialVector_8h.html" target="_top" xlink:title="iDynTree/Core/SpatialVector.h">
<polygon fill="none" stroke="#000000" points="968,-392.5 968,-411.5 1129,-411.5 1129,-392.5 968,-392.5"/>
<text text-anchor="middle" x="1048.5" y="-399.5" font-family="FreeSans.ttf" font-size="10.00" fill="#000000">iDynTree/Core/SpatialVector.h</text>
</a>
</g>
</g>
<!-- Node1&#45;&gt;Node19 -->
<g id="edge23" class="edge">
<title>Node1&#45;&gt;Node19</title>
<path fill="none" stroke="#191970" d="M1048.5,-448.2977C1048.5,-440.3834 1048.5,-430.6043 1048.5,-422.0759"/>
<polygon fill="#191970" stroke="#191970" points="1052.0001,-421.8469 1048.5,-411.8469 1045.0001,-421.847 1052.0001,-421.8469"/>
</g>
<!-- Node2&#45;&gt;Node3 -->
<g id="edge3" class="edge">
<title>Node2&#45;&gt;Node3</title>
<path fill="none" stroke="#191970" d="M828.3289,-168.4296C843.5915,-154.0894 874.4758,-127.1021 905.5,-112 938.6485,-95.8638 978.1826,-84.855 1011.281,-77.6635"/>
<polygon fill="#191970" stroke="#191970" points="1012.2648,-81.0333 1021.332,-75.5528 1010.8262,-74.1828 1012.2648,-81.0333"/>
</g>
<!-- Node4 -->
<g id="node5" class="node">
<title>Node4</title>
<polygon fill="none" stroke="#bfbfbf" points="912,-.5 912,-19.5 965,-19.5 965,-.5 912,-.5"/>
<text text-anchor="middle" x="938.5" y="-7.5" font-family="FreeSans.ttf" font-size="10.00" fill="#000000">cstddef</text>
</g>
<!-- Node2&#45;&gt;Node4 -->
<g id="edge19" class="edge">
<title>Node2&#45;&gt;Node4</title>
<path fill="none" stroke="#191970" d="M825.2955,-168.4862C844.5932,-141.4695 899.9711,-63.9405 925.4213,-28.3102"/>
<polygon fill="#191970" stroke="#191970" points="928.5157,-29.9996 931.4801,-19.8279 922.8196,-25.9309 928.5157,-29.9996"/>
</g>
<!-- Node6 -->
<g id="node7" class="node">
<title>Node6</title>
<g id="a_node7"><a xlink:href="Span_8h.html" target="_top" xlink:title="iDynTree/Core/Span.h">
<polygon fill="none" stroke="#000000" points="531,-56.5 531,-75.5 652,-75.5 652,-56.5 531,-56.5"/>
<text text-anchor="middle" x="591.5" y="-63.5" font-family="FreeSans.ttf" font-size="10.00" fill="#000000">iDynTree/Core/Span.h</text>
</a>
</g>
</g>
<!-- Node2&#45;&gt;Node6 -->
<g id="edge6" class="edge">
<title>Node2&#45;&gt;Node6</title>
<path fill="none" stroke="#191970" d="M749.6011,-168.4968C700.9422,-160.584 641.0545,-148.0335 621.5,-132 607.2457,-120.3123 599.4823,-100.3969 595.4483,-85.4928"/>
<polygon fill="#191970" stroke="#191970" points="598.8428,-84.6382 593.1305,-75.7152 592.0315,-86.2529 598.8428,-84.6382"/>
</g>
<!-- Node7 -->
<g id="node8" class="node">
<title>Node7</title>
<polygon fill="none" stroke="#bfbfbf" points="788.5,-.5 788.5,-19.5 840.5,-19.5 840.5,-.5 788.5,-.5"/>
<text text-anchor="middle" x="814.5" y="-7.5" font-family="FreeSans.ttf" font-size="10.00" fill="#000000">cassert</text>
</g>
<!-- Node2&#45;&gt;Node7 -->
<g id="edge18" class="edge">
<title>Node2&#45;&gt;Node7</title>
<path fill="none" stroke="#191970" d="M818.2735,-168.4862C817.6412,-141.9293 815.8468,-66.5651 814.9801,-30.1655"/>
<polygon fill="#191970" stroke="#191970" points="818.4711,-29.7417 814.734,-19.8279 811.4731,-29.9084 818.4711,-29.7417"/>
</g>
<!-- Node15 -->
<g id="node16" class="node">
<title>Node15</title>
<polygon fill="none" stroke="#bfbfbf" points="465.5,-112.5 465.5,-131.5 509.5,-131.5 509.5,-112.5 465.5,-112.5"/>
<text text-anchor="middle" x="487.5" y="-119.5" font-family="FreeSans.ttf" font-size="10.00" fill="#000000">string</text>
</g>
<!-- Node2&#45;&gt;Node15 -->
<g id="edge16" class="edge">
<title>Node2&#45;&gt;Node15</title>
<path fill="none" stroke="#191970" d="M761.9752,-168.4369C692.2426,-156.6392 576.0456,-136.9805 519.8702,-127.4765"/>
<polygon fill="#191970" stroke="#191970" points="520.2291,-123.9876 509.7853,-125.7703 519.0613,-130.8895 520.2291,-123.9876"/>
</g>
<!-- Node2&#45;&gt;Node16 -->
<g id="edge17" class="edge">
<title>Node2&#45;&gt;Node16</title>
<path fill="none" stroke="#191970" d="M864.2663,-168.4369C916.1872,-157.5877 999.9227,-140.0908 1048.4229,-129.9564"/>
<polygon fill="#191970" stroke="#191970" points="1049.1407,-133.3821 1058.2134,-127.9106 1047.7089,-126.5301 1049.1407,-133.3821"/>
</g>
<!-- Node17 -->
<g id="node18" class="node">
<title>Node17</title>
<polygon fill="none" stroke="#bfbfbf" points="914.5,-112.5 914.5,-131.5 964.5,-131.5 964.5,-112.5 914.5,-112.5"/>
<text text-anchor="middle" x="939.5" y="-119.5" font-family="FreeSans.ttf" font-size="10.00" fill="#000000">cstring</text>
</g>
<!-- Node2&#45;&gt;Node17 -->
<g id="edge20" class="edge">
<title>Node2&#45;&gt;Node17</title>
<path fill="none" stroke="#191970" d="M839.3006,-168.3733C858.7243,-159.3838 887.9224,-145.8706 909.7964,-135.7471"/>
<polygon fill="#191970" stroke="#191970" points="911.3656,-138.8776 918.9708,-131.5011 908.4255,-132.5249 911.3656,-138.8776"/>
</g>
<!-- Node3&#45;&gt;Node4 -->
<g id="edge4" class="edge">
<title>Node3&#45;&gt;Node4</title>
<path fill="none" stroke="#191970" d="M1056.0893,-56.3733C1032.8858,-47.2226 997.7962,-33.3844 971.9858,-23.2057"/>
<polygon fill="#191970" stroke="#191970" points="973.1789,-19.9139 962.5921,-19.5011 970.6108,-26.4258 973.1789,-19.9139"/>
</g>
<!-- Node5 -->
<g id="node6" class="node">
<title>Node5</title>
<polygon fill="none" stroke="#bfbfbf" points="1040.5,-.5 1040.5,-19.5 1120.5,-19.5 1120.5,-.5 1040.5,-.5"/>
<text text-anchor="middle" x="1080.5" y="-7.5" font-family="FreeSans.ttf" font-size="10.00" fill="#000000">CoreExport.h</text>
</g>
<!-- Node3&#45;&gt;Node5 -->
<g id="edge5" class="edge">
<title>Node3&#45;&gt;Node5</title>
<path fill="none" stroke="#191970" d="M1080.5,-56.2455C1080.5,-48.9382 1080.5,-38.6944 1080.5,-29.7046"/>
<polygon fill="#191970" stroke="#191970" points="1084.0001,-29.6426 1080.5,-19.6427 1077.0001,-29.6427 1084.0001,-29.6426"/>
</g>
<!-- Node6&#45;&gt;Node4 -->
<g id="edge10" class="edge">
<title>Node6&#45;&gt;Node4</title>
<path fill="none" stroke="#191970" d="M650.7572,-56.4369C722.7036,-44.8259 841.8309,-25.6008 901.7223,-15.9353"/>
<polygon fill="#191970" stroke="#191970" points="902.5319,-19.35 911.8465,-14.3014 901.4166,-12.4394 902.5319,-19.35"/>
</g>
<!-- Node6&#45;&gt;Node7 -->
<g id="edge7" class="edge">
<title>Node6&#45;&gt;Node7</title>
<path fill="none" stroke="#191970" d="M631.7132,-56.4736C669.6419,-47.402 728.0451,-33.2102 778.5,-20 778.598,-19.9743 778.6962,-19.9486 778.7946,-19.9228"/>
<polygon fill="#191970" stroke="#191970" points="779.4248,-23.3775 788.1784,-17.4088 777.6132,-16.6159 779.4248,-23.3775"/>
</g>
<!-- Node8 -->
<g id="node9" class="node">
<title>Node8</title>
<polygon fill="none" stroke="#bfbfbf" points="618.5,-.5 618.5,-19.5 682.5,-19.5 682.5,-.5 618.5,-.5"/>
<text text-anchor="middle" x="650.5" y="-7.5" font-family="FreeSans.ttf" font-size="10.00" fill="#000000">algorithm</text>
</g>
<!-- Node6&#45;&gt;Node8 -->
<g id="edge8" class="edge">
<title>Node6&#45;&gt;Node8</title>
<path fill="none" stroke="#191970" d="M601.777,-56.2455C610.3218,-48.1352 622.6778,-36.4075 632.8085,-26.7919"/>
<polygon fill="#191970" stroke="#191970" points="635.4972,-29.0655 640.3408,-19.6427 630.6782,-23.9884 635.4972,-29.0655"/>
</g>
<!-- Node9 -->
<g id="node10" class="node">
<title>Node9</title>
<polygon fill="none" stroke="#bfbfbf" points="277.5,-.5 277.5,-19.5 319.5,-19.5 319.5,-.5 277.5,-.5"/>
<text text-anchor="middle" x="298.5" y="-7.5" font-family="FreeSans.ttf" font-size="10.00" fill="#000000">array</text>
</g>
<!-- Node6&#45;&gt;Node9 -->
<g id="edge9" class="edge">
<title>Node6&#45;&gt;Node9</title>
<path fill="none" stroke="#191970" d="M530.9011,-58.0131C479.5512,-50.654 403.879,-38.4221 329.6736,-20.0135"/>
<polygon fill="#191970" stroke="#191970" points="330.242,-16.5474 319.6898,-17.4965 328.5307,-23.335 330.242,-16.5474"/>
</g>
<!-- Node10 -->
<g id="node11" class="node">
<title>Node10</title>
<polygon fill="none" stroke="#bfbfbf" points="338,-.5 338,-19.5 391,-19.5 391,-.5 338,-.5"/>
<text text-anchor="middle" x="364.5" y="-7.5" font-family="FreeSans.ttf" font-size="10.00" fill="#000000">iterator</text>
</g>
<!-- Node6&#45;&gt;Node10 -->
<g id="edge11" class="edge">
<title>Node6&#45;&gt;Node10</title>
<path fill="none" stroke="#191970" d="M550.0404,-56.4514C513.4017,-47.9155 458.2803,-34.8372 401.1422,-20.103"/>
<polygon fill="#191970" stroke="#191970" points="401.7668,-16.6494 391.2087,-17.5298 400.0114,-23.4257 401.7668,-16.6494"/>
</g>
<!-- Node11 -->
<g id="node12" class="node">
<title>Node11</title>
<polygon fill="none" stroke="#bfbfbf" points="409.5,-.5 409.5,-19.5 453.5,-19.5 453.5,-.5 409.5,-.5"/>
<text text-anchor="middle" x="431.5" y="-7.5" font-family="FreeSans.ttf" font-size="10.00" fill="#000000">limits</text>
</g>
<!-- Node6&#45;&gt;Node11 -->
<g id="edge12" class="edge">
<title>Node6&#45;&gt;Node11</title>
<path fill="none" stroke="#191970" d="M563.995,-56.3733C536.0213,-46.5825 492.7157,-31.4255 463.2891,-21.1262"/>
<polygon fill="#191970" stroke="#191970" points="464.1021,-17.7026 453.5073,-17.7026 461.7896,-24.3096 464.1021,-17.7026"/>
</g>
<!-- Node12 -->
<g id="node13" class="node">
<title>Node12</title>
<polygon fill="none" stroke="#bfbfbf" points="472,-.5 472,-19.5 537,-19.5 537,-.5 472,-.5"/>
<text text-anchor="middle" x="504.5" y="-7.5" font-family="FreeSans.ttf" font-size="10.00" fill="#000000">stdexcept</text>
</g>
<!-- Node6&#45;&gt;Node12 -->
<g id="edge13" class="edge">
<title>Node6&#45;&gt;Node12</title>
<path fill="none" stroke="#191970" d="M576.3458,-56.2455C562.9973,-47.6534 543.3414,-35.0014 527.9617,-25.1018"/>
<polygon fill="#191970" stroke="#191970" points="529.7836,-22.1121 519.4806,-19.6427 525.9949,-27.9982 529.7836,-22.1121"/>
</g>
<!-- Node13 -->
<g id="node14" class="node">
<title>Node13</title>
<polygon fill="none" stroke="#bfbfbf" points="701,-.5 701,-19.5 770,-19.5 770,-.5 701,-.5"/>
<text text-anchor="middle" x="735.5" y="-7.5" font-family="FreeSans.ttf" font-size="10.00" fill="#000000">type_traits</text>
</g>
<!-- Node6&#45;&gt;Node13 -->
<g id="edge14" class="edge">
<title>Node6&#45;&gt;Node13</title>
<path fill="none" stroke="#191970" d="M616.2545,-56.3733C639.7849,-47.2226 675.3687,-33.3844 701.5426,-23.2057"/>
<polygon fill="#191970" stroke="#191970" points="703.0171,-26.3877 711.0685,-19.5011 700.4799,-19.8636 703.0171,-26.3877"/>
</g>
<!-- Node14 -->
<g id="node15" class="node">
<title>Node14</title>
<polygon fill="none" stroke="#bfbfbf" points="555,-.5 555,-19.5 600,-19.5 600,-.5 555,-.5"/>
<text text-anchor="middle" x="577.5" y="-7.5" font-family="FreeSans.ttf" font-size="10.00" fill="#000000">utility</text>
</g>
<!-- Node6&#45;&gt;Node14 -->
<g id="edge15" class="edge">
<title>Node6&#45;&gt;Node14</title>
<path fill="none" stroke="#191970" d="M589.0614,-56.2455C587.2145,-48.8579 584.6172,-38.4689 582.3522,-29.4087"/>
<polygon fill="#191970" stroke="#191970" points="585.7316,-28.4952 579.9107,-19.6427 578.9406,-30.193 585.7316,-28.4952"/>
</g>
<!-- Node18&#45;&gt;Node2 -->
<g id="edge22" class="edge">
<title>Node18&#45;&gt;Node2</title>
<path fill="none" stroke="#191970" d="M871.3521,-224.2455C861.9913,-216.0549 848.4142,-204.1749 837.3651,-194.5069"/>
<polygon fill="#191970" stroke="#191970" points="839.3508,-191.5937 829.5202,-187.6427 834.7412,-196.8618 839.3508,-191.5937"/>
</g>
<!-- Node19&#45;&gt;Node3 -->
<g id="edge48" class="edge">
<title>Node19&#45;&gt;Node3</title>
<path fill="none" stroke="#191970" d="M1060.7643,-392.45C1071.2667,-383.7975 1086.2705,-370.2532 1096.5,-356 1160.6089,-266.674 1177.5948,-239.3202 1201.5,-132 1203.4326,-123.3237 1206.5465,-119.3174 1201.5,-112 1192.7592,-99.326 1158.7152,-87.042 1128.9564,-78.3609"/>
<polygon fill="#191970" stroke="#191970" points="1129.6467,-74.9188 1119.0713,-75.5596 1127.7382,-81.6536 1129.6467,-74.9188"/>
</g>
<!-- Node19&#45;&gt;Node16 -->
<g id="edge51" class="edge">
<title>Node19&#45;&gt;Node16</title>
<path fill="none" stroke="#191970" d="M1051.0438,-392.4663C1057.4624,-368.0062 1074.3805,-300.9439 1082.5,-244 1086.0223,-219.2976 1085.6105,-212.9364 1086.5,-188 1087.0497,-172.5894 1087.0214,-155.1419 1086.871,-142.0578"/>
<polygon fill="#191970" stroke="#191970" points="1090.3675,-141.7906 1086.7188,-131.8439 1083.3683,-141.895 1090.3675,-141.7906"/>
</g>
<!-- Node19&#45;&gt;Node18 -->
<g id="edge49" class="edge">
<title>Node19&#45;&gt;Node18</title>
<path fill="none" stroke="#191970" d="M1039.0995,-392.4862C1012.0636,-365.1246 933.8343,-285.9528 899.2643,-250.9663"/>
<polygon fill="#191970" stroke="#191970" points="901.7292,-248.4812 892.2109,-243.8279 896.7499,-253.4012 901.7292,-248.4812"/>
</g>
<!-- Node20 -->
<g id="node21" class="node">
<title>Node20</title>
<g id="a_node21"><a xlink:href="Position_8h.html" target="_top" xlink:title="Position.h">
<polygon fill="none" stroke="#000000" points="311,-336.5 311,-355.5 376,-355.5 376,-336.5 311,-336.5"/>
<text text-anchor="middle" x="343.5" y="-343.5" font-family="FreeSans.ttf" font-size="10.00" fill="#000000">Position.h</text>
</a>
</g>
</g>
<!-- Node19&#45;&gt;Node20 -->
<g id="edge24" class="edge">
<title>Node19&#45;&gt;Node20</title>
<path fill="none" stroke="#191970" d="M967.971,-395.6034C818.1951,-383.7063 501.5658,-358.5556 386.4714,-349.4133"/>
<polygon fill="#191970" stroke="#191970" points="386.5384,-345.9077 376.2926,-348.6048 385.984,-352.8857 386.5384,-345.9077"/>
</g>
<!-- Node22 -->
<g id="node23" class="node">
<title>Node22</title>
<g id="a_node23"><a xlink:href="Rotation_8h.html" target="_top" xlink:title="iDynTree/Core/Rotation.h">
<polygon fill="none" stroke="#000000" points="559,-280.5 559,-299.5 696,-299.5 696,-280.5 559,-280.5"/>
<text text-anchor="middle" x="627.5" y="-287.5" font-family="FreeSans.ttf" font-size="10.00" fill="#000000">iDynTree/Core/Rotation.h</text>
</a>
</g>
</g>
<!-- Node19&#45;&gt;Node22 -->
<g id="edge47" class="edge">
<title>Node19&#45;&gt;Node22</title>
<path fill="none" stroke="#191970" d="M1012.6058,-392.4509C936.174,-372.1176 757.4566,-324.5728 673.1087,-302.1334"/>
<polygon fill="#191970" stroke="#191970" points="673.8671,-298.7135 663.3034,-299.5249 672.0674,-305.4782 673.8671,-298.7135"/>
</g>
<!-- Node26 -->
<g id="node27" class="node">
<title>Node26</title>
<polygon fill="none" stroke="#bfbfbf" points="1132.5,-112.5 1132.5,-131.5 1192.5,-131.5 1192.5,-112.5 1132.5,-112.5"/>
<text text-anchor="middle" x="1162.5" y="-119.5" font-family="FreeSans.ttf" font-size="10.00" fill="#000000">iostream</text>
</g>
<!-- Node19&#45;&gt;Node26 -->
<g id="edge50" class="edge">
<title>Node19&#45;&gt;Node26</title>
<path fill="none" stroke="#191970" d="M1055.3526,-392.4809C1061.67,-383.4144 1071.0217,-369.2261 1077.5,-356 1114.9438,-279.5544 1145.0821,-182.2395 1156.9945,-141.4086"/>
<polygon fill="#191970" stroke="#191970" points="1160.3973,-142.2401 1159.8031,-131.6619 1153.671,-140.3018 1160.3973,-142.2401"/>
</g>
<!-- Node20&#45;&gt;Node15 -->
<g id="edge46" class="edge">
<title>Node20&#45;&gt;Node15</title>
<path fill="none" stroke="#191970" d="M326.2611,-336.3519C292.3963,-316.129 222.8711,-267.5619 251.5,-224 297.2537,-154.3809 401.7359,-132.0588 454.9925,-125.0736"/>
<polygon fill="#191970" stroke="#191970" points="455.7255,-128.5106 465.2342,-123.8378 454.8869,-121.561 455.7255,-128.5106"/>
</g>
<!-- Node21 -->
<g id="node22" class="node">
<title>Node21</title>
<g id="a_node22"><a xlink:href="PositionRaw_8h.html" target="_top" xlink:title="iDynTree/Core/PositionRaw.h">
<polygon fill="none" stroke="#000000" points="260.5,-224.5 260.5,-243.5 416.5,-243.5 416.5,-224.5 260.5,-224.5"/>
<text text-anchor="middle" x="338.5" y="-231.5" font-family="FreeSans.ttf" font-size="10.00" fill="#000000">iDynTree/Core/PositionRaw.h</text>
</a>
</g>
</g>
<!-- Node20&#45;&gt;Node21 -->
<g id="edge25" class="edge">
<title>Node20&#45;&gt;Node21</title>
<path fill="none" stroke="#191970" d="M343.0737,-336.4509C342.2582,-318.184 340.4623,-277.9553 339.3794,-253.6976"/>
<polygon fill="#191970" stroke="#191970" points="342.8678,-253.3588 338.9252,-243.5249 335.8748,-253.6711 342.8678,-253.3588"/>
</g>
<!-- Node20&#45;&gt;Node22 -->
<g id="edge28" class="edge">
<title>Node20&#45;&gt;Node22</title>
<path fill="none" stroke="#191970" d="M376.0784,-339.5761C423.1823,-330.288 511.0454,-312.9629 569.4127,-301.4538"/>
<polygon fill="#191970" stroke="#191970" points="570.0989,-304.886 579.2328,-299.5175 568.7446,-298.0183 570.0989,-304.886"/>
</g>
<!-- Node21&#45;&gt;Node2 -->
<g id="edge26" class="edge">
<title>Node21&#45;&gt;Node2</title>
<path fill="none" stroke="#191970" d="M416.6886,-224.878C501.8678,-214.9404 637.9478,-199.0644 727.7679,-188.5854"/>
<polygon fill="#191970" stroke="#191970" points="728.4141,-192.0339 737.9411,-187.3985 727.6028,-185.081 728.4141,-192.0339"/>
</g>
<!-- Node21&#45;&gt;Node15 -->
<g id="edge27" class="edge">
<title>Node21&#45;&gt;Node15</title>
<path fill="none" stroke="#191970" d="M351.2037,-224.4509C376.9348,-205.1094 435.4211,-161.1465 466.7592,-137.5904"/>
<polygon fill="#191970" stroke="#191970" points="468.9379,-140.3313 474.8285,-131.5249 464.7319,-134.7358 468.9379,-140.3313"/>
</g>
<!-- Node22&#45;&gt;Node2 -->
<g id="edge45" class="edge">
<title>Node22&#45;&gt;Node2</title>
<path fill="none" stroke="#191970" d="M646.9922,-280.4316C665.0032,-271.4449 692.3882,-257.4104 715.5,-244 743.8231,-227.5658 775.3916,-206.9867 796.0224,-193.2168"/>
<polygon fill="#191970" stroke="#191970" points="798.0614,-196.0636 804.4168,-187.5865 794.1622,-190.2501 798.0614,-196.0636"/>
</g>
<!-- Node22&#45;&gt;Node15 -->
<g id="edge29" class="edge">
<title>Node22&#45;&gt;Node15</title>
<path fill="none" stroke="#191970" d="M597.6923,-280.3397C578.904,-272.949 555.2958,-261.0915 539.5,-244 512.0159,-214.2615 497.7523,-167.8022 491.5161,-141.633"/>
<polygon fill="#191970" stroke="#191970" points="494.9093,-140.7682 489.3198,-131.7678 488.0766,-142.2895 494.9093,-140.7682"/>
</g>
<!-- Node22&#45;&gt;Node18 -->
<g id="edge30" class="edge">
<title>Node22&#45;&gt;Node18</title>
<path fill="none" stroke="#191970" d="M671.0463,-280.4369C714.7793,-270.8328 782.2345,-256.0191 829.1542,-245.7152"/>
<polygon fill="#191970" stroke="#191970" points="830.1168,-249.0872 839.1333,-243.5237 828.6153,-242.2502 830.1168,-249.0872"/>
</g>
<!-- Node23 -->
<g id="node24" class="node">
<title>Node23</title>
<g id="a_node24"><a xlink:href="RotationRaw_8h.html" target="_top" xlink:title="iDynTree/Core/RotationRaw.h">
<polygon fill="none" stroke="#000000" points="548.5,-224.5 548.5,-243.5 706.5,-243.5 706.5,-224.5 548.5,-224.5"/>
<text text-anchor="middle" x="627.5" y="-231.5" font-family="FreeSans.ttf" font-size="10.00" fill="#000000">iDynTree/Core/RotationRaw.h</text>
</a>
</g>
</g>
<!-- Node22&#45;&gt;Node23 -->
<g id="edge31" class="edge">
<title>Node22&#45;&gt;Node23</title>
<path fill="none" stroke="#191970" d="M627.5,-280.2455C627.5,-272.9382 627.5,-262.6944 627.5,-253.7046"/>
<polygon fill="#191970" stroke="#191970" points="631.0001,-253.6426 627.5,-243.6427 624.0001,-253.6427 631.0001,-253.6426"/>
</g>
<!-- Node23&#45;&gt;Node15 -->
<g id="edge44" class="edge">
<title>Node23&#45;&gt;Node15</title>
<path fill="none" stroke="#191970" d="M605.0848,-224.4843C587.3273,-216.321 562.4419,-203.4464 543.5,-188 526.4952,-174.1332 510.6703,-154.6134 500.2115,-140.4005"/>
<polygon fill="#191970" stroke="#191970" points="502.8217,-138.0338 494.1549,-131.9396 497.1297,-142.1083 502.8217,-138.0338"/>
</g>
<!-- Node24 -->
<g id="node25" class="node">
<title>Node24</title>
<g id="a_node25"><a xlink:href="MatrixFixSize_8h.html" target="_top" xlink:title="iDynTree/Core/MatrixFixSize.h">
<polygon fill="none" stroke="#000000" points="917,-168.5 917,-187.5 1078,-187.5 1078,-168.5 917,-168.5"/>
<text text-anchor="middle" x="997.5" y="-175.5" font-family="FreeSans.ttf" font-size="10.00" fill="#000000">iDynTree/Core/MatrixFixSize.h</text>
</a>
</g>
</g>
<!-- Node23&#45;&gt;Node24 -->
<g id="edge32" class="edge">
<title>Node23&#45;&gt;Node24</title>
<path fill="none" stroke="#191970" d="M690.6849,-224.4369C755.4708,-214.6314 856.1356,-199.3957 924.3382,-189.0731"/>
<polygon fill="#191970" stroke="#191970" points="925.2121,-192.4808 934.5757,-187.5237 924.1646,-185.5596 925.2121,-192.4808"/>
</g>
<!-- Node24&#45;&gt;Node3 -->
<g id="edge33" class="edge">
<title>Node24&#45;&gt;Node3</title>
<path fill="none" stroke="#191970" d="M1004.5765,-168.4509C1018.4812,-149.688 1049.5567,-107.7548 1067.3401,-83.758"/>
<polygon fill="#191970" stroke="#191970" points="1070.2994,-85.6431 1073.4414,-75.5249 1064.6753,-81.4753 1070.2994,-85.6431"/>
</g>
<!-- Node24&#45;&gt;Node7 -->
<g id="edge39" class="edge">
<title>Node24&#45;&gt;Node7</title>
<path fill="none" stroke="#191970" d="M995.9487,-168.0728C993.363,-154.2365 987.0549,-128.9488 973.5,-112 939.8916,-69.9767 884.0507,-39.9214 848.281,-23.7551"/>
<polygon fill="#191970" stroke="#191970" points="849.3222,-20.3895 838.7595,-19.5653 846.5028,-26.7966 849.3222,-20.3895"/>
</g>
<!-- Node24&#45;&gt;Node15 -->
<g id="edge41" class="edge">
<title>Node24&#45;&gt;Node15</title>
<path fill="none" stroke="#191970" d="M916.5476,-168.9992C913.4931,-168.6615 910.469,-168.3275 907.5,-168 762.9046,-152.0486 590.2835,-133.2055 519.8359,-125.5241"/>
<polygon fill="#191970" stroke="#191970" points="520.1325,-122.0358 509.8121,-124.4312 519.3738,-128.9945 520.1325,-122.0358"/>
</g>
<!-- Node24&#45;&gt;Node16 -->
<g id="edge43" class="edge">
<title>Node24&#45;&gt;Node16</title>
<path fill="none" stroke="#191970" d="M1013.0026,-168.2455C1026.658,-159.6534 1046.7657,-147.0014 1062.4989,-137.1018"/>
<polygon fill="#191970" stroke="#191970" points="1064.5751,-139.9307 1071.175,-131.6427 1060.8471,-134.006 1064.5751,-139.9307"/>
</g>
<!-- Node24&#45;&gt;Node17 -->
<g id="edge40" class="edge">
<title>Node24&#45;&gt;Node17</title>
<path fill="none" stroke="#191970" d="M987.3972,-168.2455C978.9972,-160.1352 966.8506,-148.4075 956.8916,-138.7919"/>
<polygon fill="#191970" stroke="#191970" points="959.1122,-136.0707 949.4871,-131.6427 954.25,-141.1066 959.1122,-136.0707"/>
</g>
<!-- Node25 -->
<g id="node26" class="node">
<title>Node25</title>
<g id="a_node26"><a xlink:href="MatrixView_8h.html" target="_top" xlink:title="iDynTree/Core/MatrixView.h">
<polygon fill="none" stroke="#000000" points="631,-112.5 631,-131.5 782,-131.5 782,-112.5 631,-112.5"/>
<text text-anchor="middle" x="706.5" y="-119.5" font-family="FreeSans.ttf" font-size="10.00" fill="#000000">iDynTree/Core/MatrixView.h</text>
</a>
</g>
</g>
<!-- Node24&#45;&gt;Node25 -->
<g id="edge34" class="edge">
<title>Node24&#45;&gt;Node25</title>
<path fill="none" stroke="#191970" d="M947.806,-168.4369C897.4804,-158.7522 819.6277,-143.7703 766.0349,-133.4569"/>
<polygon fill="#191970" stroke="#191970" points="766.4703,-129.9765 755.9891,-131.5237 765.1475,-136.8504 766.4703,-129.9765"/>
</g>
<!-- Node24&#45;&gt;Node26 -->
<g id="edge42" class="edge">
<title>Node24&#45;&gt;Node26</title>
<path fill="none" stroke="#191970" d="M1025.8645,-168.3733C1053.1827,-159.1016 1094.6796,-145.0178 1124.7738,-134.804"/>
<polygon fill="#191970" stroke="#191970" points="1126.161,-138.0294 1134.5056,-131.5011 1123.9113,-131.4008 1126.161,-138.0294"/>
</g>
<!-- Node25&#45;&gt;Node3 -->
<g id="edge38" class="edge">
<title>Node25&#45;&gt;Node3</title>
<path fill="none" stroke="#191970" d="M770.3679,-112.4369C837.2813,-102.4178 942.0591,-86.7291 1011.0065,-76.4054"/>
<polygon fill="#191970" stroke="#191970" points="1011.5389,-79.8648 1020.9103,-74.9225 1010.5023,-72.942 1011.5389,-79.8648"/>
</g>
<!-- Node25&#45;&gt;Node6 -->
<g id="edge37" class="edge">
<title>Node25&#45;&gt;Node6</title>
<path fill="none" stroke="#191970" d="M686.7308,-112.3733C668.3531,-103.4241 640.7688,-89.9917 620.0107,-79.8835"/>
<polygon fill="#191970" stroke="#191970" points="621.5343,-76.7325 611.0112,-75.5011 618.4696,-83.026 621.5343,-76.7325"/>
</g>
<!-- Node25&#45;&gt;Node7 -->
<g id="edge35" class="edge">
<title>Node25&#45;&gt;Node7</title>
<path fill="none" stroke="#191970" d="M715.708,-112.4509C734.0399,-93.4401 775.3092,-50.6423 798.2845,-26.816"/>
<polygon fill="#191970" stroke="#191970" points="800.8934,-29.1528 805.3153,-19.5249 795.8544,-24.2939 800.8934,-29.1528"/>
</g>
<!-- Node25&#45;&gt;Node13 -->
<g id="edge36" class="edge">
<title>Node25&#45;&gt;Node13</title>
<path fill="none" stroke="#191970" d="M708.9725,-112.4509C713.7238,-94.1013 724.2131,-53.5908 730.4847,-29.3693"/>
<polygon fill="#191970" stroke="#191970" points="733.9153,-30.083 733.0337,-19.5249 727.1388,-28.3283 733.9153,-30.083"/>
</g>
<!-- Node27&#45;&gt;Node1 -->
<g id="edge68" class="edge">
<title>Node27&#45;&gt;Node1</title>
<path fill="none" stroke="#191970" d="M867.0938,-515.3906C898.8856,-506.2967 947.3923,-492.4215 986.2499,-481.3064"/>
<polygon fill="#191970" stroke="#191970" points="987.2533,-484.6599 995.9051,-478.5446 985.3281,-477.9298 987.2533,-484.6599"/>
</g>
<!-- Node27&#45;&gt;Node2 -->
<g id="edge59" class="edge">
<title>Node27&#45;&gt;Node2</title>
<path fill="none" stroke="#191970" d="M775.7368,-515.4819C730.0965,-507.0464 670.9557,-493.7967 651.5,-479 552.9738,-404.0676 459.4073,-318.3792 539.5,-224 545.9445,-216.406 656.3685,-199.9505 736.3322,-188.9228"/>
<polygon fill="#191970" stroke="#191970" points="736.9836,-192.3663 746.4146,-187.5388 736.0315,-185.4313 736.9836,-192.3663"/>
</g>
<!-- Node27&#45;&gt;Node3 -->
<g id="edge74" class="edge">
<title>Node27&#45;&gt;Node3</title>
<path fill="none" stroke="#191970" d="M914.0391,-519.9986C1020.2195,-512.7099 1196.3635,-497.9486 1219.5,-479 1287.894,-422.986 1281.5,-378.4042 1281.5,-290 1281.5,-290 1281.5,-290 1281.5,-178 1281.5,-116.2577 1208.234,-88.2437 1150.1699,-75.737"/>
<polygon fill="#191970" stroke="#191970" points="1150.7599,-72.2854 1140.2624,-73.7186 1149.3624,-79.1445 1150.7599,-72.2854"/>
</g>
<!-- Node27&#45;&gt;Node4 -->
<g id="edge54" class="edge">
<title>Node27&#45;&gt;Node4</title>
<path fill="none" stroke="#191970" d="M914.0546,-519.4074C989.4931,-512.9586 1095.8036,-500.3955 1131.5,-479 1274.9887,-392.9967 1357.5,-345.2889 1357.5,-178 1357.5,-178 1357.5,-178 1357.5,-122 1357.5,-82.593 1077.3149,-32.7411 975.1821,-15.8781"/>
<polygon fill="#191970" stroke="#191970" points="975.4627,-12.3775 965.0282,-14.2137 974.3303,-19.2853 975.4627,-12.3775"/>
</g>
<!-- Node27&#45;&gt;Node24 -->
<g id="edge63" class="edge">
<title>Node27&#45;&gt;Node24</title>
<path fill="none" stroke="#191970" d="M863.5876,-515.4964C882.1004,-508.223 904.9827,-496.4369 919.5,-479 937.037,-457.9361 989.6692,-270.9796 994.5,-244 997.2207,-228.8053 997.9099,-211.3467 997.9517,-198.2036"/>
<polygon fill="#191970" stroke="#191970" points="1001.4491,-197.8969 997.8565,-187.9298 994.4494,-197.9619 1001.4491,-197.8969"/>
</g>
<!-- Node28 -->
<g id="node29" class="node">
<title>Node28</title>
<polygon fill="none" stroke="#bfbfbf" points="661,-454 661,-473 738,-473 738,-454 661,-454"/>
<text text-anchor="middle" x="699.5" y="-461" font-family="FreeSans.ttf" font-size="10.00" fill="#000000">Eigen/Dense</text>
</g>
<!-- Node27&#45;&gt;Node28 -->
<g id="edge55" class="edge">
<title>Node27&#45;&gt;Node28</title>
<path fill="none" stroke="#191970" d="M812.5625,-515.3906C790.2402,-505.1457 754.6963,-488.8326 729.4243,-477.2339"/>
<polygon fill="#191970" stroke="#191970" points="730.8389,-474.0322 720.2905,-473.0419 727.919,-480.3942 730.8389,-474.0322"/>
</g>
<!-- Node29 -->
<g id="node30" class="node">
<title>Node29</title>
<g id="a_node30"><a xlink:href="VectorDynSize_8h.html" target="_top" xlink:title="iDynTree/Core/VectorDynSize.h">
<polygon fill="none" stroke="#000000" points="0,-168.5 0,-187.5 167,-187.5 167,-168.5 0,-168.5"/>
<text text-anchor="middle" x="83.5" y="-175.5" font-family="FreeSans.ttf" font-size="10.00" fill="#000000">iDynTree/Core/VectorDynSize.h</text>
</a>
</g>
</g>
<!-- Node27&#45;&gt;Node29 -->
<g id="edge56" class="edge">
<title>Node27&#45;&gt;Node29</title>
<path fill="none" stroke="#191970" d="M752.7502,-519.4356C566.0776,-505.4918 120.5,-465.5524 120.5,-402 120.5,-402 120.5,-402 120.5,-290 120.5,-255.7041 104.6646,-218.3471 93.713,-196.6122"/>
<polygon fill="#191970" stroke="#191970" points="96.6994,-194.7704 88.9595,-187.5354 90.4982,-198.0179 96.6994,-194.7704"/>
</g>
<!-- Node30 -->
<g id="node31" class="node">
<title>Node30</title>
<g id="a_node31"><a xlink:href="MatrixDynSize_8h.html" target="_top" xlink:title="iDynTree/Core/MatrixDynSize.h">
<polygon fill="none" stroke="#000000" points="553,-168.5 553,-187.5 720,-187.5 720,-168.5 553,-168.5"/>
<text text-anchor="middle" x="636.5" y="-175.5" font-family="FreeSans.ttf" font-size="10.00" fill="#000000">iDynTree/Core/MatrixDynSize.h</text>
</a>
</g>
</g>
<!-- Node27&#45;&gt;Node30 -->
<g id="edge60" class="edge">
<title>Node27&#45;&gt;Node30</title>
<path fill="none" stroke="#191970" d="M752.8989,-516.0199C638.9585,-501.0463 444.5,-466.1015 444.5,-402 444.5,-402 444.5,-402 444.5,-290 444.5,-232.0553 510.5537,-203.5531 565.1747,-189.8896"/>
<polygon fill="#191970" stroke="#191970" points="566.2994,-193.2201 575.2221,-187.5073 564.6844,-186.4089 566.2994,-193.2201"/>
</g>
<!-- Node31 -->
<g id="node32" class="node">
<title>Node31</title>
<g id="a_node32"><a xlink:href="SpatialMotionVector_8h.html" target="_top" xlink:title="iDynTree/Core/SpatialMotion\lVector.h">
<polygon fill="none" stroke="#000000" points="756,-448.5 756,-478.5 911,-478.5 911,-448.5 756,-448.5"/>
<text text-anchor="start" x="764" y="-466.5" font-family="FreeSans.ttf" font-size="10.00" fill="#000000">iDynTree/Core/SpatialMotion</text>
<text text-anchor="middle" x="833.5" y="-455.5" font-family="FreeSans.ttf" font-size="10.00" fill="#000000">Vector.h</text>
</a>
</g>
</g>
<!-- Node27&#45;&gt;Node31 -->
<g id="edge64" class="edge">
<title>Node27&#45;&gt;Node31</title>
<path fill="none" stroke="#191970" d="M833.5,-515.3906C833.5,-508.2234 833.5,-498.0862 833.5,-488.671"/>
<polygon fill="#191970" stroke="#191970" points="837.0001,-488.5446 833.5,-478.5446 830.0001,-488.5446 837.0001,-488.5446"/>
</g>
<!-- Node32 -->
<g id="node33" class="node">
<title>Node32</title>
<g id="a_node33"><a xlink:href="Transform_8h.html" target="_top" xlink:title="iDynTree/Core/Transform.h">
<polygon fill="none" stroke="#000000" points="270.5,-392.5 270.5,-411.5 416.5,-411.5 416.5,-392.5 270.5,-392.5"/>
<text text-anchor="middle" x="343.5" y="-399.5" font-family="FreeSans.ttf" font-size="10.00" fill="#000000">iDynTree/Core/Transform.h</text>
</a>
</g>
</g>
<!-- Node27&#45;&gt;Node32 -->
<g id="edge69" class="edge">
<title>Node27&#45;&gt;Node32</title>
<path fill="none" stroke="#191970" d="M752.7363,-521.5151C652.0506,-516.1861 486.3831,-503.8939 430.5,-479 400.4156,-465.5985 373.3154,-437.968 357.6312,-419.7113"/>
<polygon fill="#191970" stroke="#191970" points="359.9727,-417.0533 350.8858,-411.6054 354.592,-421.5309 359.9727,-417.0533"/>
</g>
<!-- Node29&#45;&gt;Node6 -->
<g id="edge57" class="edge">
<title>Node29&#45;&gt;Node6</title>
<path fill="none" stroke="#191970" d="M126.8118,-168.4509C219.6006,-147.9936 437.3223,-99.9919 538.3153,-77.7258"/>
<polygon fill="#191970" stroke="#191970" points="539.2859,-81.0959 548.2978,-75.5249 537.7788,-74.2601 539.2859,-81.0959"/>
</g>
<!-- Node29&#45;&gt;Node15 -->
<g id="edge58" class="edge">
<title>Node29&#45;&gt;Node15</title>
<path fill="none" stroke="#191970" d="M152.491,-168.4369C240.6587,-156.2156 389.6841,-135.5586 455.0871,-126.4929"/>
<polygon fill="#191970" stroke="#191970" points="455.783,-129.93 465.2077,-125.09 454.8218,-122.9963 455.783,-129.93"/>
</g>
<!-- Node30&#45;&gt;Node15 -->
<g id="edge61" class="edge">
<title>Node30&#45;&gt;Node15</title>
<path fill="none" stroke="#191970" d="M610.886,-168.3733C585.5421,-158.848 546.6844,-144.2438 519.3615,-133.9748"/>
<polygon fill="#191970" stroke="#191970" points="520.4555,-130.647 509.8635,-130.4051 517.9928,-137.1995 520.4555,-130.647"/>
</g>
<!-- Node30&#45;&gt;Node25 -->
<g id="edge62" class="edge">
<title>Node30&#45;&gt;Node25</title>
<path fill="none" stroke="#191970" d="M648.6931,-168.2455C659.1321,-159.8943 674.3655,-147.7076 686.574,-137.9408"/>
<polygon fill="#191970" stroke="#191970" points="688.8244,-140.6227 694.4467,-131.6427 684.4515,-135.1566 688.8244,-140.6227"/>
</g>
<!-- Node31&#45;&gt;Node2 -->
<g id="edge65" class="edge">
<title>Node31&#45;&gt;Node2</title>
<path fill="none" stroke="#191970" d="M819.6582,-448.46C801.6606,-427.2787 772.5,-386.6825 772.5,-346 772.5,-346 772.5,-346 772.5,-290 772.5,-254.66 792.3391,-217.4332 805.9597,-196.0395"/>
<polygon fill="#191970" stroke="#191970" points="808.9179,-197.9114 811.5136,-187.6394 803.0788,-194.0507 808.9179,-197.9114"/>
</g>
<!-- Node31&#45;&gt;Node18 -->
<g id="edge66" class="edge">
<title>Node31&#45;&gt;Node18</title>
<path fill="none" stroke="#191970" d="M836.715,-448.4419C845.2728,-408.3599 868.6106,-299.0534 878.2488,-253.9113"/>
<polygon fill="#191970" stroke="#191970" points="881.7214,-254.4085 880.3867,-243.8981 874.8757,-252.9469 881.7214,-254.4085"/>
</g>
<!-- Node31&#45;&gt;Node19 -->
<g id="edge67" class="edge">
<title>Node31&#45;&gt;Node19</title>
<path fill="none" stroke="#191970" d="M886.0949,-448.4554C922.7549,-437.9689 971.06,-424.1515 1005.4348,-414.3187"/>
<polygon fill="#191970" stroke="#191970" points="1006.5308,-417.6456 1015.1826,-411.5303 1004.6056,-410.9155 1006.5308,-417.6456"/>
</g>
<!-- Node32&#45;&gt;Node15 -->
<g id="edge73" class="edge">
<title>Node32&#45;&gt;Node15</title>
<path fill="none" stroke="#191970" d="M308.1891,-392.4663C264.1278,-378.1751 194.5,-346.632 194.5,-290 194.5,-290 194.5,-290 194.5,-234 194.5,-185.4659 237.4725,-188.424 281.5,-168 339.2964,-141.1887 413.6062,-129.5778 455.3397,-124.8873"/>
<polygon fill="#191970" stroke="#191970" points="455.8899,-128.3487 465.4653,-123.8142 455.1521,-121.3877 455.8899,-128.3487"/>
</g>
<!-- Node32&#45;&gt;Node20 -->
<g id="edge70" class="edge">
<title>Node32&#45;&gt;Node20</title>
<path fill="none" stroke="#191970" d="M343.5,-392.2455C343.5,-384.9382 343.5,-374.6944 343.5,-365.7046"/>
<polygon fill="#191970" stroke="#191970" points="347.0001,-365.6426 343.5,-355.6427 340.0001,-365.6427 347.0001,-365.6426"/>
</g>
<!-- Node32&#45;&gt;Node22 -->
<g id="edge71" class="edge">
<title>Node32&#45;&gt;Node22</title>
<path fill="none" stroke="#191970" d="M367.7137,-392.4509C418.435,-372.4482 535.9309,-326.1117 593.9076,-303.2477"/>
<polygon fill="#191970" stroke="#191970" points="595.3289,-306.4496 603.3476,-299.5249 592.7608,-299.9377 595.3289,-306.4496"/>
</g>
<!-- Node32&#45;&gt;Node24 -->
<g id="edge72" class="edge">
<title>Node32&#45;&gt;Node24</title>
<path fill="none" stroke="#191970" d="M414.8511,-392.4821C561.4218,-371.624 889.6122,-317.7912 972.5,-244 985.7728,-232.1839 992.0306,-212.5731 994.9619,-197.7919"/>
<polygon fill="#191970" stroke="#191970" points="998.4623,-198.0718 996.6161,-187.6391 991.5534,-196.9461 998.4623,-198.0718"/>
</g>
</g>
</svg>
