<?xml version="1.0" encoding="UTF-8" standalone="no"?>
<!DOCTYPE svg PUBLIC "-//W3C//DTD SVG 1.1//EN"
 "http://www.w3.org/Graphics/SVG/1.1/DTD/svg11.dtd">
<!-- Generated by graphviz version 2.40.1 (20161225.0304)
 -->
<!-- Title: TimeVaryingObject.cpp Pages: 1 -->
<svg width="1091pt" height="532pt"
 viewBox="0.00 0.00 1090.50 532.00" xmlns="http://www.w3.org/2000/svg" xmlns:xlink="http://www.w3.org/1999/xlink">
<g id="graph0" class="graph" transform="scale(1 1) rotate(0) translate(4 528)">
<title>TimeVaryingObject.cpp</title>
<!-- Node0 -->
<g id="node1" class="node">
<title>Node0</title>
<polygon fill="#bfbfbf" stroke="#000000" points="203.5,-504.5 203.5,-523.5 333.5,-523.5 333.5,-504.5 203.5,-504.5"/>
<text text-anchor="middle" x="268.5" y="-511.5" font-family="FreeSans.ttf" font-size="10.00" fill="#000000">TimeVaryingObject.cpp</text>
</g>
<!-- Node1 -->
<g id="node2" class="node">
<title>Node1</title>
<g id="a_node2"><a xlink:href="TimeVaryingObject_8h.html" target="_top" xlink:title="iDynTree/TimeVaryingObject.h">
<polygon fill="none" stroke="#000000" points="186.5,-448.5 186.5,-467.5 350.5,-467.5 350.5,-448.5 186.5,-448.5"/>
<text text-anchor="middle" x="268.5" y="-455.5" font-family="FreeSans.ttf" font-size="10.00" fill="#000000">iDynTree/TimeVaryingObject.h</text>
</a>
</g>
</g>
<!-- Node0&#45;&gt;Node1 -->
<g id="edge1" class="edge">
<title>Node0&#45;&gt;Node1</title>
<path fill="none" stroke="#191970" d="M268.5,-504.2455C268.5,-496.9382 268.5,-486.6944 268.5,-477.7046"/>
<polygon fill="#191970" stroke="#191970" points="272.0001,-477.6426 268.5,-467.6427 265.0001,-477.6427 272.0001,-477.6426"/>
</g>
<!-- Node2 -->
<g id="node3" class="node">
<title>Node2</title>
<g id="a_node3"><a xlink:href="VectorDynSize_8h.html" target="_top" xlink:title="iDynTree/Core/VectorDynSize.h">
<polygon fill="none" stroke="#000000" points="0,-168.5 0,-187.5 167,-187.5 167,-168.5 0,-168.5"/>
<text text-anchor="middle" x="83.5" y="-175.5" font-family="FreeSans.ttf" font-size="10.00" fill="#000000">iDynTree/Core/VectorDynSize.h</text>
</a>
</g>
</g>
<!-- Node1&#45;&gt;Node2 -->
<g id="edge2" class="edge">
<title>Node1&#45;&gt;Node2</title>
<path fill="none" stroke="#191970" d="M247.3605,-448.4901C215.1548,-432.3882 157.5,-396.5089 157.5,-346 157.5,-346 157.5,-346 157.5,-290 157.5,-250.563 125.1668,-214.3258 103.2456,-194.2897"/>
<polygon fill="#191970" stroke="#191970" points="105.5384,-191.6451 95.7196,-187.665 100.9133,-196.8995 105.5384,-191.6451"/>
</g>
<!-- Node14 -->
<g id="node15" class="node">
<title>Node14</title>
<g id="a_node15"><a xlink:href="MatrixDynSize_8h.html" target="_top" xlink:title="iDynTree/Core/MatrixDynSize.h">
<polygon fill="none" stroke="#000000" points="185,-168.5 185,-187.5 352,-187.5 352,-168.5 185,-168.5"/>
<text text-anchor="middle" x="268.5" y="-175.5" font-family="FreeSans.ttf" font-size="10.00" fill="#000000">iDynTree/Core/MatrixDynSize.h</text>
</a>
</g>
</g>
<!-- Node1&#45;&gt;Node14 -->
<g id="edge14" class="edge">
<title>Node1&#45;&gt;Node14</title>
<path fill="none" stroke="#191970" d="M268.5,-448.4116C268.5,-429.0538 268.5,-383.9167 268.5,-346 268.5,-346 268.5,-346 268.5,-290 268.5,-257.7116 268.5,-220.1872 268.5,-197.8048"/>
<polygon fill="#191970" stroke="#191970" points="272.0001,-197.5883 268.5,-187.5884 265.0001,-197.5884 272.0001,-197.5883"/>
</g>
<!-- Node18 -->
<g id="node19" class="node">
<title>Node18</title>
<g id="a_node19"><a xlink:href="Transform_8h.html" target="_top" xlink:title="iDynTree/Core/Transform.h">
<polygon fill="none" stroke="#000000" points="450.5,-392.5 450.5,-411.5 596.5,-411.5 596.5,-392.5 450.5,-392.5"/>
<text text-anchor="middle" x="523.5" y="-399.5" font-family="FreeSans.ttf" font-size="10.00" fill="#000000">iDynTree/Core/Transform.h</text>
</a>
</g>
</g>
<!-- Node1&#45;&gt;Node18 -->
<g id="edge23" class="edge">
<title>Node1&#45;&gt;Node18</title>
<path fill="none" stroke="#191970" d="M312.0463,-448.4369C355.7793,-438.8328 423.2345,-424.0191 470.1542,-413.7152"/>
<polygon fill="#191970" stroke="#191970" points="471.1168,-417.0872 480.1333,-411.5237 469.6153,-410.2502 471.1168,-417.0872"/>
</g>
<!-- Node3 -->
<g id="node4" class="node">
<title>Node3</title>
<g id="a_node4"><a xlink:href="Span_8h.html" target="_top" xlink:title="iDynTree/Core/Span.h">
<polygon fill="none" stroke="#000000" points="385,-56.5 385,-75.5 506,-75.5 506,-56.5 385,-56.5"/>
<text text-anchor="middle" x="445.5" y="-63.5" font-family="FreeSans.ttf" font-size="10.00" fill="#000000">iDynTree/Core/Span.h</text>
</a>
</g>
</g>
<!-- Node2&#45;&gt;Node3 -->
<g id="edge3" class="edge">
<title>Node2&#45;&gt;Node3</title>
<path fill="none" stroke="#191970" d="M114.3639,-168.4509C179.6836,-148.2415 331.8851,-101.1516 404.9473,-78.5467"/>
<polygon fill="#191970" stroke="#191970" points="406.1955,-81.8243 414.7142,-75.5249 404.1265,-75.137 406.1955,-81.8243"/>
</g>
<!-- Node13 -->
<g id="node14" class="node">
<title>Node13</title>
<polygon fill="none" stroke="#bfbfbf" points="395.5,-112.5 395.5,-131.5 439.5,-131.5 439.5,-112.5 395.5,-112.5"/>
<text text-anchor="middle" x="417.5" y="-119.5" font-family="FreeSans.ttf" font-size="10.00" fill="#000000">string</text>
</g>
<!-- Node2&#45;&gt;Node13 -->
<g id="edge13" class="edge">
<title>Node2&#45;&gt;Node13</title>
<path fill="none" stroke="#191970" d="M140.5371,-168.4369C211.0767,-156.6099 328.7355,-136.8827 385.2583,-127.4058"/>
<polygon fill="#191970" stroke="#191970" points="386.1124,-130.8115 395.396,-125.7061 384.9549,-123.9079 386.1124,-130.8115"/>
</g>
<!-- Node4 -->
<g id="node5" class="node">
<title>Node4</title>
<polygon fill="none" stroke="#bfbfbf" points="629.5,-.5 629.5,-19.5 681.5,-19.5 681.5,-.5 629.5,-.5"/>
<text text-anchor="middle" x="655.5" y="-7.5" font-family="FreeSans.ttf" font-size="10.00" fill="#000000">cassert</text>
</g>
<!-- Node3&#45;&gt;Node4 -->
<g id="edge4" class="edge">
<title>Node3&#45;&gt;Node4</title>
<path fill="none" stroke="#191970" d="M482.1967,-56.4408C517.4356,-47.2277 572.1522,-32.8342 619.5,-20 619.5978,-19.9735 619.6958,-19.9469 619.7939,-19.9203"/>
<polygon fill="#191970" stroke="#191970" points="620.4427,-23.3715 629.1644,-17.3563 618.5952,-16.6197 620.4427,-23.3715"/>
</g>
<!-- Node5 -->
<g id="node6" class="node">
<title>Node5</title>
<polygon fill="none" stroke="#bfbfbf" points="119.5,-.5 119.5,-19.5 183.5,-19.5 183.5,-.5 119.5,-.5"/>
<text text-anchor="middle" x="151.5" y="-7.5" font-family="FreeSans.ttf" font-size="10.00" fill="#000000">algorithm</text>
</g>
<!-- Node3&#45;&gt;Node5 -->
<g id="edge5" class="edge">
<title>Node3&#45;&gt;Node5</title>
<path fill="none" stroke="#191970" d="M387.5306,-56.4674C338.4356,-48.1653 265.9618,-35.375 193.857,-20.1989"/>
<polygon fill="#191970" stroke="#191970" points="194.1962,-16.6931 183.6876,-18.0419 192.7437,-23.5407 194.1962,-16.6931"/>
</g>
<!-- Node6 -->
<g id="node7" class="node">
<title>Node6</title>
<polygon fill="none" stroke="#bfbfbf" points="201.5,-.5 201.5,-19.5 243.5,-19.5 243.5,-.5 201.5,-.5"/>
<text text-anchor="middle" x="222.5" y="-7.5" font-family="FreeSans.ttf" font-size="10.00" fill="#000000">array</text>
</g>
<!-- Node3&#45;&gt;Node6 -->
<g id="edge6" class="edge">
<title>Node3&#45;&gt;Node6</title>
<path fill="none" stroke="#191970" d="M400.3627,-56.4184C363.2123,-48.2682 309.0116,-35.7745 253.3968,-20.0882"/>
<polygon fill="#191970" stroke="#191970" points="254.3099,-16.7091 243.7335,-17.3339 252.3911,-23.441 254.3099,-16.7091"/>
</g>
<!-- Node7 -->
<g id="node8" class="node">
<title>Node7</title>
<polygon fill="none" stroke="#bfbfbf" points="708,-.5 708,-19.5 761,-19.5 761,-.5 708,-.5"/>
<text text-anchor="middle" x="734.5" y="-7.5" font-family="FreeSans.ttf" font-size="10.00" fill="#000000">cstddef</text>
</g>
<!-- Node3&#45;&gt;Node7 -->
<g id="edge7" class="edge">
<title>Node3&#45;&gt;Node7</title>
<path fill="none" stroke="#191970" d="M499.6256,-56.4453C549.3472,-47.5239 625.0293,-33.581 690.5,-20 692.8299,-19.5167 695.2263,-19.0073 697.6407,-18.4848"/>
<polygon fill="#191970" stroke="#191970" points="698.5337,-21.872 707.5427,-16.2964 697.023,-15.0369 698.5337,-21.872"/>
</g>
<!-- Node8 -->
<g id="node9" class="node">
<title>Node8</title>
<polygon fill="none" stroke="#bfbfbf" points="262,-.5 262,-19.5 315,-19.5 315,-.5 262,-.5"/>
<text text-anchor="middle" x="288.5" y="-7.5" font-family="FreeSans.ttf" font-size="10.00" fill="#000000">iterator</text>
</g>
<!-- Node3&#45;&gt;Node8 -->
<g id="edge8" class="edge">
<title>Node3&#45;&gt;Node8</title>
<path fill="none" stroke="#191970" d="M418.5107,-56.3733C392.6301,-47.1419 353.3752,-33.1402 324.7711,-22.9375"/>
<polygon fill="#191970" stroke="#191970" points="325.7317,-19.5642 315.1371,-19.5011 323.38,-26.1573 325.7317,-19.5642"/>
</g>
<!-- Node9 -->
<g id="node10" class="node">
<title>Node9</title>
<polygon fill="none" stroke="#bfbfbf" points="333.5,-.5 333.5,-19.5 377.5,-19.5 377.5,-.5 333.5,-.5"/>
<text text-anchor="middle" x="355.5" y="-7.5" font-family="FreeSans.ttf" font-size="10.00" fill="#000000">limits</text>
</g>
<!-- Node3&#45;&gt;Node9 -->
<g id="edge9" class="edge">
<title>Node3&#45;&gt;Node9</title>
<path fill="none" stroke="#191970" d="M429.8232,-56.2455C416.0144,-47.6534 395.6807,-35.0014 379.7708,-25.1018"/>
<polygon fill="#191970" stroke="#191970" points="381.3368,-21.954 370.9972,-19.6427 377.6387,-27.8974 381.3368,-21.954"/>
</g>
<!-- Node10 -->
<g id="node11" class="node">
<title>Node10</title>
<polygon fill="none" stroke="#bfbfbf" points="396,-.5 396,-19.5 461,-19.5 461,-.5 396,-.5"/>
<text text-anchor="middle" x="428.5" y="-7.5" font-family="FreeSans.ttf" font-size="10.00" fill="#000000">stdexcept</text>
</g>
<!-- Node3&#45;&gt;Node10 -->
<g id="edge10" class="edge">
<title>Node3&#45;&gt;Node10</title>
<path fill="none" stroke="#191970" d="M442.5388,-56.2455C440.2962,-48.8579 437.1423,-38.4689 434.3919,-29.4087"/>
<polygon fill="#191970" stroke="#191970" points="437.6812,-28.1948 431.4272,-19.6427 430.983,-30.2282 437.6812,-28.1948"/>
</g>
<!-- Node11 -->
<g id="node12" class="node">
<title>Node11</title>
<polygon fill="none" stroke="#bfbfbf" points="542,-.5 542,-19.5 611,-19.5 611,-.5 542,-.5"/>
<text text-anchor="middle" x="576.5" y="-7.5" font-family="FreeSans.ttf" font-size="10.00" fill="#000000">type_traits</text>
</g>
<!-- Node3&#45;&gt;Node11 -->
<g id="edge11" class="edge">
<title>Node3&#45;&gt;Node11</title>
<path fill="none" stroke="#191970" d="M468.0197,-56.3733C489.2372,-47.3032 521.2276,-33.6279 544.9769,-23.4755"/>
<polygon fill="#191970" stroke="#191970" points="546.4548,-26.6502 554.2742,-19.5011 543.7033,-20.2136 546.4548,-26.6502"/>
</g>
<!-- Node12 -->
<g id="node13" class="node">
<title>Node12</title>
<polygon fill="none" stroke="#bfbfbf" points="479,-.5 479,-19.5 524,-19.5 524,-.5 479,-.5"/>
<text text-anchor="middle" x="501.5" y="-7.5" font-family="FreeSans.ttf" font-size="10.00" fill="#000000">utility</text>
</g>
<!-- Node3&#45;&gt;Node12 -->
<g id="edge12" class="edge">
<title>Node3&#45;&gt;Node12</title>
<path fill="none" stroke="#191970" d="M455.2545,-56.2455C463.3648,-48.1352 475.0925,-36.4075 484.7081,-26.7919"/>
<polygon fill="#191970" stroke="#191970" points="487.2611,-29.1887 491.8573,-19.6427 482.3113,-24.2389 487.2611,-29.1887"/>
</g>
<!-- Node14&#45;&gt;Node13 -->
<g id="edge15" class="edge">
<title>Node14&#45;&gt;Node13</title>
<path fill="none" stroke="#191970" d="M294.114,-168.3733C319.4579,-158.848 358.3156,-144.2438 385.6385,-133.9748"/>
<polygon fill="#191970" stroke="#191970" points="387.0072,-137.1995 395.1365,-130.4051 384.5445,-130.647 387.0072,-137.1995"/>
</g>
<!-- Node15 -->
<g id="node16" class="node">
<title>Node15</title>
<g id="a_node16"><a xlink:href="MatrixView_8h.html" target="_top" xlink:title="iDynTree/Core/MatrixView.h">
<polygon fill="none" stroke="#000000" points="496,-112.5 496,-131.5 647,-131.5 647,-112.5 496,-112.5"/>
<text text-anchor="middle" x="571.5" y="-119.5" font-family="FreeSans.ttf" font-size="10.00" fill="#000000">iDynTree/Core/MatrixView.h</text>
</a>
</g>
</g>
<!-- Node14&#45;&gt;Node15 -->
<g id="edge16" class="edge">
<title>Node14&#45;&gt;Node15</title>
<path fill="none" stroke="#191970" d="M320.2433,-168.4369C372.753,-158.7321 454.0444,-143.708 509.8577,-133.3926"/>
<polygon fill="#191970" stroke="#191970" points="510.7728,-136.7829 519.9701,-131.5237 509.5006,-129.8994 510.7728,-136.7829"/>
</g>
<!-- Node15&#45;&gt;Node3 -->
<g id="edge19" class="edge">
<title>Node15&#45;&gt;Node3</title>
<path fill="none" stroke="#191970" d="M549.8398,-112.3733C529.5228,-103.3435 498.936,-89.7494 476.125,-79.6111"/>
<polygon fill="#191970" stroke="#191970" points="477.4372,-76.3642 466.8775,-75.5011 474.5941,-82.7609 477.4372,-76.3642"/>
</g>
<!-- Node15&#45;&gt;Node4 -->
<g id="edge17" class="edge">
<title>Node15&#45;&gt;Node4</title>
<path fill="none" stroke="#191970" d="M578.6618,-112.4509C592.734,-93.688 624.1839,-51.7548 642.1815,-27.758"/>
<polygon fill="#191970" stroke="#191970" points="645.1563,-29.6249 648.3563,-19.5249 639.5563,-25.4249 645.1563,-29.6249"/>
</g>
<!-- Node15&#45;&gt;Node11 -->
<g id="edge18" class="edge">
<title>Node15&#45;&gt;Node11</title>
<path fill="none" stroke="#191970" d="M571.9263,-112.4509C572.7418,-94.184 574.5377,-53.9553 575.6206,-29.6976"/>
<polygon fill="#191970" stroke="#191970" points="579.1252,-29.6711 576.0748,-19.5249 572.1322,-29.3588 579.1252,-29.6711"/>
</g>
<!-- Node16 -->
<g id="node17" class="node">
<title>Node16</title>
<g id="a_node17"><a xlink:href="Utils_8h.html" target="_top" xlink:title="iDynTree/Core/Utils.h">
<polygon fill="none" stroke="#000000" points="679,-56.5 679,-75.5 798,-75.5 798,-56.5 679,-56.5"/>
<text text-anchor="middle" x="738.5" y="-63.5" font-family="FreeSans.ttf" font-size="10.00" fill="#000000">iDynTree/Core/Utils.h</text>
</a>
</g>
</g>
<!-- Node15&#45;&gt;Node16 -->
<g id="edge20" class="edge">
<title>Node15&#45;&gt;Node16</title>
<path fill="none" stroke="#191970" d="M600.2083,-112.3733C627.8577,-103.1016 669.8576,-89.0178 700.3166,-78.804"/>
<polygon fill="#191970" stroke="#191970" points="701.7979,-81.9989 710.1663,-75.5011 699.5724,-75.3621 701.7979,-81.9989"/>
</g>
<!-- Node16&#45;&gt;Node7 -->
<g id="edge21" class="edge">
<title>Node16&#45;&gt;Node7</title>
<path fill="none" stroke="#191970" d="M737.8033,-56.2455C737.2813,-48.9382 736.5496,-38.6944 735.9075,-29.7046"/>
<polygon fill="#191970" stroke="#191970" points="739.3924,-29.3679 735.1888,-19.6427 732.4102,-29.8667 739.3924,-29.3679"/>
</g>
<!-- Node17 -->
<g id="node18" class="node">
<title>Node17</title>
<polygon fill="none" stroke="#bfbfbf" points="779.5,-.5 779.5,-19.5 859.5,-19.5 859.5,-.5 779.5,-.5"/>
<text text-anchor="middle" x="819.5" y="-7.5" font-family="FreeSans.ttf" font-size="10.00" fill="#000000">CoreExport.h</text>
</g>
<!-- Node16&#45;&gt;Node17 -->
<g id="edge22" class="edge">
<title>Node16&#45;&gt;Node17</title>
<path fill="none" stroke="#191970" d="M752.6091,-56.2455C764.9209,-47.7337 782.9958,-35.2375 797.2538,-25.3801"/>
<polygon fill="#191970" stroke="#191970" points="799.3174,-28.2085 805.5526,-19.6427 795.3366,-22.4506 799.3174,-28.2085"/>
</g>
<!-- Node18&#45;&gt;Node13 -->
<g id="edge53" class="edge">
<title>Node18&#45;&gt;Node13</title>
<path fill="none" stroke="#191970" d="M490.4635,-392.4779C447.9498,-377.958 379.5,-345.9003 379.5,-290 379.5,-290 379.5,-290 379.5,-234 379.5,-199.6118 395.7634,-162.2832 407.011,-140.5791"/>
<polygon fill="#191970" stroke="#191970" points="410.2317,-141.9804 411.893,-131.5166 404.069,-138.6605 410.2317,-141.9804"/>
</g>
<!-- Node19 -->
<g id="node20" class="node">
<title>Node19</title>
<g id="a_node20"><a xlink:href="Position_8h.html" target="_top" xlink:title="iDynTree/Core/Position.h">
<polygon fill="none" stroke="#000000" points="455.5,-336.5 455.5,-355.5 591.5,-355.5 591.5,-336.5 455.5,-336.5"/>
<text text-anchor="middle" x="523.5" y="-343.5" font-family="FreeSans.ttf" font-size="10.00" fill="#000000">iDynTree/Core/Position.h</text>
</a>
</g>
</g>
<!-- Node18&#45;&gt;Node19 -->
<g id="edge24" class="edge">
<title>Node18&#45;&gt;Node19</title>
<path fill="none" stroke="#191970" d="M523.5,-392.2455C523.5,-384.9382 523.5,-374.6944 523.5,-365.7046"/>
<polygon fill="#191970" stroke="#191970" points="527.0001,-365.6426 523.5,-355.6427 520.0001,-365.6427 527.0001,-365.6426"/>
</g>
<!-- Node24 -->
<g id="node25" class="node">
<title>Node24</title>
<g id="a_node25"><a xlink:href="Rotation_8h.html" target="_top" xlink:title="iDynTree/Core/Rotation.h">
<polygon fill="none" stroke="#000000" points="580,-280.5 580,-299.5 717,-299.5 717,-280.5 580,-280.5"/>
<text text-anchor="middle" x="648.5" y="-287.5" font-family="FreeSans.ttf" font-size="10.00" fill="#000000">iDynTree/Core/Rotation.h</text>
</a>
</g>
</g>
<!-- Node18&#45;&gt;Node24 -->
<g id="edge51" class="edge">
<title>Node18&#45;&gt;Node24</title>
<path fill="none" stroke="#191970" d="M544.2993,-392.4804C560.7195,-384.3149 583.5999,-371.4392 600.5,-356 615.6283,-342.1795 628.983,-322.9101 637.7397,-308.7593"/>
<polygon fill="#191970" stroke="#191970" points="640.9032,-310.2888 643.0328,-299.9102 634.8958,-306.6955 640.9032,-310.2888"/>
</g>
<!-- Node27 -->
<g id="node28" class="node">
<title>Node27</title>
<g id="a_node28"><a xlink:href="MatrixFixSize_8h.html" target="_top" xlink:title="iDynTree/Core/MatrixFixSize.h">
<polygon fill="none" stroke="#000000" points="876,-168.5 876,-187.5 1037,-187.5 1037,-168.5 876,-168.5"/>
<text text-anchor="middle" x="956.5" y="-175.5" font-family="FreeSans.ttf" font-size="10.00" fill="#000000">iDynTree/Core/MatrixFixSize.h</text>
</a>
</g>
</g>
<!-- Node18&#45;&gt;Node27 -->
<g id="edge52" class="edge">
<title>Node18&#45;&gt;Node27</title>
<path fill="none" stroke="#191970" d="M585.8848,-392.4498C711.8229,-371.7615 989.1774,-318.5879 1044.5,-244 1061.3872,-221.2321 1029.1056,-202.6779 998.9965,-191.1056"/>
<polygon fill="#191970" stroke="#191970" points="999.9563,-187.7303 989.3623,-187.5972 997.561,-194.3077 999.9563,-187.7303"/>
</g>
<!-- Node19&#45;&gt;Node13 -->
<g id="edge50" class="edge">
<title>Node19&#45;&gt;Node13</title>
<path fill="none" stroke="#191970" d="M511.9034,-336.3852C492.71,-319.7486 454.6577,-283.5556 436.5,-244 421.0674,-210.3809 417.8073,-166.6487 417.3214,-141.7149"/>
<polygon fill="#191970" stroke="#191970" points="420.8212,-141.6637 417.2596,-131.6855 413.8214,-141.7069 420.8212,-141.6637"/>
</g>
<!-- Node20 -->
<g id="node21" class="node">
<title>Node20</title>
<g id="a_node21"><a xlink:href="PositionRaw_8h.html" target="_top" xlink:title="iDynTree/Core/PositionRaw.h">
<polygon fill="none" stroke="#000000" points="445.5,-224.5 445.5,-243.5 601.5,-243.5 601.5,-224.5 445.5,-224.5"/>
<text text-anchor="middle" x="523.5" y="-231.5" font-family="FreeSans.ttf" font-size="10.00" fill="#000000">iDynTree/Core/PositionRaw.h</text>
</a>
</g>
</g>
<!-- Node19&#45;&gt;Node20 -->
<g id="edge25" class="edge">
<title>Node19&#45;&gt;Node20</title>
<path fill="none" stroke="#191970" d="M523.5,-336.4509C523.5,-318.184 523.5,-277.9553 523.5,-253.6976"/>
<polygon fill="#191970" stroke="#191970" points="527.0001,-253.5249 523.5,-243.5249 520.0001,-253.5249 527.0001,-253.5249"/>
</g>
<!-- Node19&#45;&gt;Node24 -->
<g id="edge35" class="edge">
<title>Node19&#45;&gt;Node24</title>
<path fill="none" stroke="#191970" d="M544.9883,-336.3733C565.144,-327.3435 595.488,-313.7494 618.118,-303.6111"/>
<polygon fill="#191970" stroke="#191970" points="619.5971,-306.7838 627.2921,-299.5011 616.7351,-300.3955 619.5971,-306.7838"/>
</g>
<!-- Node20&#45;&gt;Node13 -->
<g id="edge34" class="edge">
<title>Node20&#45;&gt;Node13</title>
<path fill="none" stroke="#191970" d="M514.4625,-224.4509C496.4701,-205.4401 455.9651,-162.6423 433.4152,-138.816"/>
<polygon fill="#191970" stroke="#191970" points="435.9305,-136.382 426.5146,-131.5249 430.8465,-141.1937 435.9305,-136.382"/>
</g>
<!-- Node21 -->
<g id="node22" class="node">
<title>Node21</title>
<g id="a_node22"><a xlink:href="VectorFixSize_8h.html" target="_top" xlink:title="iDynTree/Core/VectorFixSize.h">
<polygon fill="none" stroke="#000000" points="696,-168.5 696,-187.5 857,-187.5 857,-168.5 696,-168.5"/>
<text text-anchor="middle" x="776.5" y="-175.5" font-family="FreeSans.ttf" font-size="10.00" fill="#000000">iDynTree/Core/VectorFixSize.h</text>
</a>
</g>
</g>
<!-- Node20&#45;&gt;Node21 -->
<g id="edge26" class="edge">
<title>Node20&#45;&gt;Node21</title>
<path fill="none" stroke="#191970" d="M566.7048,-224.4369C610.0947,-214.8328 677.0209,-200.0191 723.5726,-189.7152"/>
<polygon fill="#191970" stroke="#191970" points="724.4662,-193.1022 733.4734,-187.5237 722.9533,-186.2676 724.4662,-193.1022"/>
</g>
<!-- Node21&#45;&gt;Node3 -->
<g id="edge28" class="edge">
<title>Node21&#45;&gt;Node3</title>
<path fill="none" stroke="#191970" d="M695.9752,-168.7028C616.297,-158.9497 503.7793,-143.4726 486.5,-132 469.8821,-120.9666 458.7822,-100.6579 452.3703,-85.4709"/>
<polygon fill="#191970" stroke="#191970" points="455.5554,-84.0045 448.67,-75.9521 449.031,-86.5408 455.5554,-84.0045"/>
</g>
<!-- Node21&#45;&gt;Node4 -->
<g id="edge31" class="edge">
<title>Node21&#45;&gt;Node4</title>
<path fill="none" stroke="#191970" d="M761.7148,-168.381C738.2165,-152.2631 692.6439,-117.4566 669.5,-76 661.56,-61.7775 658.1151,-43.5314 656.6246,-29.8298"/>
<polygon fill="#191970" stroke="#191970" points="660.0891,-29.2548 655.7766,-19.5774 653.1129,-29.832 660.0891,-29.2548"/>
</g>
<!-- Node21&#45;&gt;Node7 -->
<g id="edge32" class="edge">
<title>Node21&#45;&gt;Node7</title>
<path fill="none" stroke="#191970" d="M779.2059,-168.1221C782.7816,-155.1839 789.3485,-131.8143 795.5,-112 800.5006,-95.8929 804.7984,-92.6477 807.5,-76 808.9238,-67.2259 811.7947,-63.7825 807.5,-56 799.4255,-41.3681 784.5249,-30.753 770.2811,-23.4327"/>
<polygon fill="#191970" stroke="#191970" points="771.6306,-20.1993 761.0941,-19.0888 768.6384,-26.5275 771.6306,-20.1993"/>
</g>
<!-- Node21&#45;&gt;Node13 -->
<g id="edge29" class="edge">
<title>Node21&#45;&gt;Node13</title>
<path fill="none" stroke="#191970" d="M695.6888,-169.4335C630.0466,-161.7709 535.2773,-149.106 453.5,-132 452.25,-131.7385 450.9793,-131.4581 449.6986,-131.1633"/>
<polygon fill="#191970" stroke="#191970" points="450.4097,-127.7332 439.8584,-128.6935 448.7056,-134.5227 450.4097,-127.7332"/>
</g>
<!-- Node21&#45;&gt;Node16 -->
<g id="edge27" class="edge">
<title>Node21&#45;&gt;Node16</title>
<path fill="none" stroke="#191970" d="M773.2601,-168.4509C767.0063,-150.0186 753.1658,-109.2254 744.961,-85.043"/>
<polygon fill="#191970" stroke="#191970" points="748.2591,-83.8701 741.7317,-75.5249 741.6303,-86.1192 748.2591,-83.8701"/>
</g>
<!-- Node22 -->
<g id="node23" class="node">
<title>Node22</title>
<polygon fill="none" stroke="#bfbfbf" points="804.5,-112.5 804.5,-131.5 860.5,-131.5 860.5,-112.5 804.5,-112.5"/>
<text text-anchor="middle" x="832.5" y="-119.5" font-family="FreeSans.ttf" font-size="10.00" fill="#000000">sstream</text>
</g>
<!-- Node21&#45;&gt;Node22 -->
<g id="edge30" class="edge">
<title>Node21&#45;&gt;Node22</title>
<path fill="none" stroke="#191970" d="M786.2545,-168.2455C794.3648,-160.1352 806.0925,-148.4075 815.7081,-138.7919"/>
<polygon fill="#191970" stroke="#191970" points="818.2611,-141.1887 822.8573,-131.6427 813.3113,-136.2389 818.2611,-141.1887"/>
</g>
<!-- Node23 -->
<g id="node24" class="node">
<title>Node23</title>
<polygon fill="none" stroke="#bfbfbf" points="878.5,-112.5 878.5,-131.5 928.5,-131.5 928.5,-112.5 878.5,-112.5"/>
<text text-anchor="middle" x="903.5" y="-119.5" font-family="FreeSans.ttf" font-size="10.00" fill="#000000">cstring</text>
</g>
<!-- Node21&#45;&gt;Node23 -->
<g id="edge33" class="edge">
<title>Node21&#45;&gt;Node23</title>
<path fill="none" stroke="#191970" d="M798.3321,-168.3733C818.8103,-159.3435 849.6399,-145.7494 872.6319,-135.6111"/>
<polygon fill="#191970" stroke="#191970" points="874.215,-138.7383 881.9528,-131.5011 871.3907,-132.3333 874.215,-138.7383"/>
</g>
<!-- Node24&#45;&gt;Node13 -->
<g id="edge36" class="edge">
<title>Node24&#45;&gt;Node13</title>
<path fill="none" stroke="#191970" d="M644.9706,-280.3714C639.4579,-266.4388 627.6306,-240.5211 610.5,-224 562.8696,-178.0642 490.4305,-147.34 449.1811,-132.4462"/>
<polygon fill="#191970" stroke="#191970" points="450.24,-129.1084 439.6452,-129.0853 447.9131,-135.7104 450.24,-129.1084"/>
</g>
<!-- Node24&#45;&gt;Node21 -->
<g id="edge49" class="edge">
<title>Node24&#45;&gt;Node21</title>
<path fill="none" stroke="#191970" d="M651.9996,-280.3403C657.4752,-266.369 669.2567,-240.4035 686.5,-224 701.4109,-209.8153 721.549,-198.9729 738.9953,-191.3874"/>
<polygon fill="#191970" stroke="#191970" points="740.4613,-194.5686 748.3604,-187.5078 737.7822,-188.1016 740.4613,-194.5686"/>
</g>
<!-- Node25 -->
<g id="node26" class="node">
<title>Node25</title>
<g id="a_node26"><a xlink:href="GeomVector3_8h.html" target="_top" xlink:title="iDynTree/Core/GeomVector3.h">
<polygon fill="none" stroke="#000000" points="696,-224.5 696,-243.5 859,-243.5 859,-224.5 696,-224.5"/>
<text text-anchor="middle" x="777.5" y="-231.5" font-family="FreeSans.ttf" font-size="10.00" fill="#000000">iDynTree/Core/GeomVector3.h</text>
</a>
</g>
</g>
<!-- Node24&#45;&gt;Node25 -->
<g id="edge37" class="edge">
<title>Node24&#45;&gt;Node25</title>
<path fill="none" stroke="#191970" d="M670.6759,-280.3733C691.4766,-271.3435 722.7917,-257.7494 746.1458,-247.6111"/>
<polygon fill="#191970" stroke="#191970" points="747.8343,-250.6938 755.6135,-243.5011 745.0468,-244.2727 747.8343,-250.6938"/>
</g>
<!-- Node26 -->
<g id="node27" class="node">
<title>Node26</title>
<g id="a_node27"><a xlink:href="RotationRaw_8h.html" target="_top" xlink:title="iDynTree/Core/RotationRaw.h">
<polygon fill="none" stroke="#000000" points="877.5,-224.5 877.5,-243.5 1035.5,-243.5 1035.5,-224.5 877.5,-224.5"/>
<text text-anchor="middle" x="956.5" y="-231.5" font-family="FreeSans.ttf" font-size="10.00" fill="#000000">iDynTree/Core/RotationRaw.h</text>
</a>
</g>
</g>
<!-- Node24&#45;&gt;Node26 -->
<g id="edge39" class="edge">
<title>Node24&#45;&gt;Node26</title>
<path fill="none" stroke="#191970" d="M701.0971,-280.4369C754.5841,-270.712 837.4492,-255.6456 894.1933,-245.3285"/>
<polygon fill="#191970" stroke="#191970" points="894.9072,-248.7562 904.1198,-243.5237 893.655,-241.8691 894.9072,-248.7562"/>
</g>
<!-- Node25&#45;&gt;Node21 -->
<g id="edge38" class="edge">
<title>Node25&#45;&gt;Node21</title>
<path fill="none" stroke="#191970" d="M777.3258,-224.2455C777.1953,-216.9382 777.0124,-206.6944 776.8519,-197.7046"/>
<polygon fill="#191970" stroke="#191970" points="780.3503,-197.5786 776.6722,-187.6427 773.3514,-197.7036 780.3503,-197.5786"/>
</g>
<!-- Node26&#45;&gt;Node13 -->
<g id="edge48" class="edge">
<title>Node26&#45;&gt;Node13</title>
<path fill="none" stroke="#191970" d="M888.2738,-224.4925C821.02,-214.7401 723.1587,-199.4223 686.5,-188 666.377,-181.73 663.5311,-174.5576 643.5,-168 565.9647,-142.6172 543.3639,-148.666 463.5,-132 459.0598,-131.0734 454.3829,-130.0786 449.7804,-129.0887"/>
<polygon fill="#191970" stroke="#191970" points="450.4594,-125.6546 439.945,-126.9577 448.9771,-132.4959 450.4594,-125.6546"/>
</g>
<!-- Node26&#45;&gt;Node27 -->
<g id="edge40" class="edge">
<title>Node26&#45;&gt;Node27</title>
<path fill="none" stroke="#191970" d="M956.5,-224.2455C956.5,-216.9382 956.5,-206.6944 956.5,-197.7046"/>
<polygon fill="#191970" stroke="#191970" points="960.0001,-197.6426 956.5,-187.6427 953.0001,-197.6427 960.0001,-197.6426"/>
</g>
<!-- Node27&#45;&gt;Node4 -->
<g id="edge43" class="edge">
<title>Node27&#45;&gt;Node4</title>
<path fill="none" stroke="#191970" d="M959.6045,-168.4865C963.4716,-154.6973 968.2417,-128.9565 956.5,-112 940.868,-89.4253 767.549,-40.2847 691.2258,-19.5424"/>
<polygon fill="#191970" stroke="#191970" points="692.1222,-16.1592 681.5551,-16.9253 690.2936,-22.9161 692.1222,-16.1592"/>
</g>
<!-- Node27&#45;&gt;Node13 -->
<g id="edge45" class="edge">
<title>Node27&#45;&gt;Node13</title>
<path fill="none" stroke="#191970" d="M875.5536,-168.9434C872.4974,-168.6213 869.4713,-168.3058 866.5,-168 697.7463,-150.6323 654.9415,-152.1722 486.5,-132 474.4459,-130.5564 461.2458,-128.709 449.648,-126.9958"/>
<polygon fill="#191970" stroke="#191970" points="449.9352,-123.4998 439.5262,-125.4756 448.8955,-130.4222 449.9352,-123.4998"/>
</g>
<!-- Node27&#45;&gt;Node15 -->
<g id="edge42" class="edge">
<title>Node27&#45;&gt;Node15</title>
<path fill="none" stroke="#191970" d="M890.7536,-168.4369C823.2027,-158.6113 718.165,-143.3331 647.1911,-133.0096"/>
<polygon fill="#191970" stroke="#191970" points="647.3749,-129.4996 636.9752,-131.5237 646.3673,-136.4267 647.3749,-129.4996"/>
</g>
<!-- Node27&#45;&gt;Node16 -->
<g id="edge41" class="edge">
<title>Node27&#45;&gt;Node16</title>
<path fill="none" stroke="#191970" d="M956.6024,-168.3869C956.2071,-153.9911 953.2472,-126.932 937.5,-112 918.904,-94.3667 857.8675,-81.9811 808.2441,-74.5386"/>
<polygon fill="#191970" stroke="#191970" points="808.5681,-71.049 798.168,-73.0707 807.5589,-77.9759 808.5681,-71.049"/>
</g>
<!-- Node27&#45;&gt;Node22 -->
<g id="edge47" class="edge">
<title>Node27&#45;&gt;Node22</title>
<path fill="none" stroke="#191970" d="M935.1836,-168.3733C915.2784,-159.3838 885.3564,-145.8706 862.94,-135.7471"/>
<polygon fill="#191970" stroke="#191970" points="864.0925,-132.4272 853.5382,-131.5011 861.2113,-138.8068 864.0925,-132.4272"/>
</g>
<!-- Node27&#45;&gt;Node23 -->
<g id="edge44" class="edge">
<title>Node27&#45;&gt;Node23</title>
<path fill="none" stroke="#191970" d="M947.2681,-168.2455C939.6683,-160.2155 928.7123,-148.6394 919.6632,-139.0781"/>
<polygon fill="#191970" stroke="#191970" points="922.042,-136.4998 912.6261,-131.6427 916.9579,-141.3115 922.042,-136.4998"/>
</g>
<!-- Node28 -->
<g id="node29" class="node">
<title>Node28</title>
<polygon fill="none" stroke="#bfbfbf" points="1022.5,-112.5 1022.5,-131.5 1082.5,-131.5 1082.5,-112.5 1022.5,-112.5"/>
<text text-anchor="middle" x="1052.5" y="-119.5" font-family="FreeSans.ttf" font-size="10.00" fill="#000000">iostream</text>
</g>
<!-- Node27&#45;&gt;Node28 -->
<g id="edge46" class="edge">
<title>Node27&#45;&gt;Node28</title>
<path fill="none" stroke="#191970" d="M973.2219,-168.2455C988.0889,-159.5731 1010.0466,-146.7645 1027.0858,-136.825"/>
<polygon fill="#191970" stroke="#191970" points="1029.0955,-139.7047 1035.9697,-131.6427 1025.5683,-133.6582 1029.0955,-139.7047"/>
</g>
</g>
</svg>
