<?xml version="1.0" encoding="UTF-8" standalone="no"?>
<!DOCTYPE svg PUBLIC "-//W3C//DTD SVG 1.1//EN"
 "http://www.w3.org/Graphics/SVG/1.1/DTD/svg11.dtd">
<!-- Generated by graphviz version 2.40.1 (20161225.0304)
 -->
<!-- Title: Transform.h Pages: 1 -->
<svg width="893pt" height="420pt"
 viewBox="0.00 0.00 893.41 420.00" xmlns="http://www.w3.org/2000/svg" xmlns:xlink="http://www.w3.org/1999/xlink">
<g id="graph0" class="graph" transform="scale(1 1) rotate(0) translate(4 416)">
<title>Transform.h</title>
<!-- Node0 -->
<g id="node1" class="node">
<title>Node0</title>
<polygon fill="#bfbfbf" stroke="#000000" points="617.4079,-392.5 617.4079,-411.5 691.4079,-411.5 691.4079,-392.5 617.4079,-392.5"/>
<text text-anchor="middle" x="654.4079" y="-399.5" font-family="FreeSans.ttf" font-size="10.00" fill="#000000">Transform.h</text>
</g>
<!-- Node1 -->
<g id="node2" class="node">
<title>Node1</title>
<g id="a_node2"><a xlink:href="Position_8h.html" target="_top" xlink:title="iDynTree/Core/Position.h">
<polygon fill="none" stroke="#000000" points="593.4079,-336.5 593.4079,-355.5 729.4079,-355.5 729.4079,-336.5 593.4079,-336.5"/>
<text text-anchor="middle" x="661.4079" y="-343.5" font-family="FreeSans.ttf" font-size="10.00" fill="#000000">iDynTree/Core/Position.h</text>
</a>
</g>
</g>
<!-- Node0&#45;&gt;Node1 -->
<g id="edge1" class="edge">
<title>Node0&#45;&gt;Node1</title>
<path fill="none" stroke="#191970" d="M655.6272,-392.2455C656.5406,-384.9382 657.8211,-374.6944 658.9448,-365.7046"/>
<polygon fill="#191970" stroke="#191970" points="662.4351,-365.9996 660.2026,-355.6427 655.4892,-365.1313 662.4351,-365.9996"/>
</g>
<!-- Node16 -->
<g id="node17" class="node">
<title>Node16</title>
<polygon fill="none" stroke="#bfbfbf" points="613.4079,-112.5 613.4079,-131.5 657.4079,-131.5 657.4079,-112.5 613.4079,-112.5"/>
<text text-anchor="middle" x="635.4079" y="-119.5" font-family="FreeSans.ttf" font-size="10.00" fill="#000000">string</text>
</g>
<!-- Node0&#45;&gt;Node16 -->
<g id="edge45" class="edge">
<title>Node0&#45;&gt;Node16</title>
<path fill="none" stroke="#191970" d="M690.7558,-392.4516C755.8086,-374.285 885.4079,-332.7309 885.4079,-290 885.4079,-290 885.4079,-290 885.4079,-234 885.4079,-185.1111 841.2131,-189.7078 797.4079,-168 754.977,-146.9732 701.3883,-134.1395 667.7462,-127.5486"/>
<polygon fill="#191970" stroke="#191970" points="668.0396,-124.0422 657.5637,-125.6256 666.7405,-130.9206 668.0396,-124.0422"/>
</g>
<!-- Node19 -->
<g id="node20" class="node">
<title>Node19</title>
<g id="a_node20"><a xlink:href="Rotation_8h.html" target="_top" xlink:title="iDynTree/Core/Rotation.h">
<polygon fill="none" stroke="#000000" points="472.9079,-280.5 472.9079,-299.5 609.9079,-299.5 609.9079,-280.5 472.9079,-280.5"/>
<text text-anchor="middle" x="541.4079" y="-287.5" font-family="FreeSans.ttf" font-size="10.00" fill="#000000">iDynTree/Core/Rotation.h</text>
</a>
</g>
</g>
<!-- Node0&#45;&gt;Node19 -->
<g id="edge43" class="edge">
<title>Node0&#45;&gt;Node19</title>
<path fill="none" stroke="#191970" d="M635.6539,-392.4884C620.6191,-384.2403 599.5963,-371.2484 584.4079,-356 570.5842,-342.1218 558.7683,-323.1122 551.041,-309.0579"/>
<polygon fill="#191970" stroke="#191970" points="553.9367,-307.0468 546.1666,-299.8443 547.7492,-310.3202 553.9367,-307.0468"/>
</g>
<!-- Node22 -->
<g id="node23" class="node">
<title>Node22</title>
<g id="a_node23"><a xlink:href="MatrixFixSize_8h.html" target="_top" xlink:title="iDynTree/Core/MatrixFixSize.h">
<polygon fill="none" stroke="#000000" points="228.9079,-168.5 228.9079,-187.5 389.9079,-187.5 389.9079,-168.5 228.9079,-168.5"/>
<text text-anchor="middle" x="309.4079" y="-175.5" font-family="FreeSans.ttf" font-size="10.00" fill="#000000">iDynTree/Core/MatrixFixSize.h</text>
</a>
</g>
</g>
<!-- Node0&#45;&gt;Node22 -->
<g id="edge44" class="edge">
<title>Node0&#45;&gt;Node22</title>
<path fill="none" stroke="#191970" d="M617.0648,-394.079C520.8521,-372.8381 268.7133,-311.6179 221.4079,-244 205.2076,-220.8434 237.1428,-202.4044 266.9762,-190.9668"/>
<polygon fill="#191970" stroke="#191970" points="268.3183,-194.2031 276.5248,-187.5022 265.9307,-187.6229 268.3183,-194.2031"/>
</g>
<!-- Node2 -->
<g id="node3" class="node">
<title>Node2</title>
<g id="a_node3"><a xlink:href="PositionRaw_8h.html" target="_top" xlink:title="iDynTree/Core/PositionRaw.h">
<polygon fill="none" stroke="#000000" points="663.4079,-224.5 663.4079,-243.5 819.4079,-243.5 819.4079,-224.5 663.4079,-224.5"/>
<text text-anchor="middle" x="741.4079" y="-231.5" font-family="FreeSans.ttf" font-size="10.00" fill="#000000">iDynTree/Core/PositionRaw.h</text>
</a>
</g>
</g>
<!-- Node1&#45;&gt;Node2 -->
<g id="edge2" class="edge">
<title>Node1&#45;&gt;Node2</title>
<path fill="none" stroke="#191970" d="M668.2286,-336.4509C681.6307,-317.688 711.5831,-275.7548 728.7236,-251.758"/>
<polygon fill="#191970" stroke="#191970" points="731.6401,-253.6966 734.6044,-243.5249 725.9439,-249.6279 731.6401,-253.6966"/>
</g>
<!-- Node1&#45;&gt;Node16 -->
<g id="edge42" class="edge">
<title>Node1&#45;&gt;Node16</title>
<path fill="none" stroke="#191970" d="M699.7696,-336.454C759.0996,-319.6854 862.8762,-281.2023 828.4079,-224 793.2946,-165.7273 712.5223,-139.0237 667.3929,-128.2691"/>
<polygon fill="#191970" stroke="#191970" points="668.0599,-124.8316 657.5341,-126.0388 666.5154,-131.6591 668.0599,-124.8316"/>
</g>
<!-- Node1&#45;&gt;Node19 -->
<g id="edge23" class="edge">
<title>Node1&#45;&gt;Node19</title>
<path fill="none" stroke="#191970" d="M640.7792,-336.3733C621.516,-327.3838 592.5593,-313.8706 570.866,-303.7471"/>
<polygon fill="#191970" stroke="#191970" points="572.3094,-300.5584 561.7674,-299.5011 569.3492,-306.9017 572.3094,-300.5584"/>
</g>
<!-- Node3 -->
<g id="node4" class="node">
<title>Node3</title>
<g id="a_node4"><a xlink:href="VectorFixSize_8h.html" target="_top" xlink:title="iDynTree/Core/VectorFixSize.h">
<polygon fill="none" stroke="#000000" points="407.9079,-168.5 407.9079,-187.5 568.9079,-187.5 568.9079,-168.5 407.9079,-168.5"/>
<text text-anchor="middle" x="488.4079" y="-175.5" font-family="FreeSans.ttf" font-size="10.00" fill="#000000">iDynTree/Core/VectorFixSize.h</text>
</a>
</g>
</g>
<!-- Node2&#45;&gt;Node3 -->
<g id="edge3" class="edge">
<title>Node2&#45;&gt;Node3</title>
<path fill="none" stroke="#191970" d="M698.2031,-224.4369C654.8132,-214.8328 587.887,-200.0191 541.3353,-189.7152"/>
<polygon fill="#191970" stroke="#191970" points="541.9546,-186.2676 531.4345,-187.5237 540.4417,-193.1022 541.9546,-186.2676"/>
</g>
<!-- Node2&#45;&gt;Node16 -->
<g id="edge22" class="edge">
<title>Node2&#45;&gt;Node16</title>
<path fill="none" stroke="#191970" d="M732.3704,-224.4509C714.3779,-205.4401 673.873,-162.6423 651.3231,-138.816"/>
<polygon fill="#191970" stroke="#191970" points="653.8384,-136.382 644.4225,-131.5249 648.7544,-141.1937 653.8384,-136.382"/>
</g>
<!-- Node4 -->
<g id="node5" class="node">
<title>Node4</title>
<g id="a_node5"><a xlink:href="Utils_8h.html" target="_top" xlink:title="iDynTree/Core/Utils.h">
<polygon fill="none" stroke="#000000" points="254.9079,-56.5 254.9079,-75.5 373.9079,-75.5 373.9079,-56.5 254.9079,-56.5"/>
<text text-anchor="middle" x="314.4079" y="-63.5" font-family="FreeSans.ttf" font-size="10.00" fill="#000000">iDynTree/Core/Utils.h</text>
</a>
</g>
</g>
<!-- Node3&#45;&gt;Node4 -->
<g id="edge4" class="edge">
<title>Node3&#45;&gt;Node4</title>
<path fill="none" stroke="#191970" d="M489.413,-168.0945C490.283,-153.8171 489.6364,-127.474 475.4079,-112 462.2225,-97.6604 418.7157,-85.7274 380.2496,-77.6114"/>
<polygon fill="#191970" stroke="#191970" points="380.5825,-74.1069 370.0834,-75.528 379.1772,-80.9644 380.5825,-74.1069"/>
</g>
<!-- Node5 -->
<g id="node6" class="node">
<title>Node5</title>
<polygon fill="none" stroke="#bfbfbf" points="367.9079,-.5 367.9079,-19.5 420.9079,-19.5 420.9079,-.5 367.9079,-.5"/>
<text text-anchor="middle" x="394.4079" y="-7.5" font-family="FreeSans.ttf" font-size="10.00" fill="#000000">cstddef</text>
</g>
<!-- Node3&#45;&gt;Node5 -->
<g id="edge20" class="edge">
<title>Node3&#45;&gt;Node5</title>
<path fill="none" stroke="#191970" d="M492.0426,-168.1845C496.3573,-154.9119 502.0645,-130.7465 494.4079,-112 479.0419,-74.3775 442.3711,-43.125 417.968,-25.504"/>
<polygon fill="#191970" stroke="#191970" points="419.794,-22.5099 409.5947,-19.6422 415.7796,-28.2444 419.794,-22.5099"/>
</g>
<!-- Node7 -->
<g id="node8" class="node">
<title>Node7</title>
<g id="a_node8"><a xlink:href="Span_8h.html" target="_top" xlink:title="iDynTree/Core/Span.h">
<polygon fill="none" stroke="#000000" points="531.9079,-56.5 531.9079,-75.5 652.9079,-75.5 652.9079,-56.5 531.9079,-56.5"/>
<text text-anchor="middle" x="592.4079" y="-63.5" font-family="FreeSans.ttf" font-size="10.00" fill="#000000">iDynTree/Core/Span.h</text>
</a>
</g>
</g>
<!-- Node3&#45;&gt;Node7 -->
<g id="edge7" class="edge">
<title>Node3&#45;&gt;Node7</title>
<path fill="none" stroke="#191970" d="M502.7227,-168.4403C515.0896,-159.7816 533.0282,-146.2337 546.4079,-132 560.2427,-117.2821 573.1271,-98.1292 581.7195,-84.2497"/>
<polygon fill="#191970" stroke="#191970" points="584.768,-85.9722 586.9412,-75.6026 578.7758,-82.3536 584.768,-85.9722"/>
</g>
<!-- Node8 -->
<g id="node9" class="node">
<title>Node8</title>
<polygon fill="none" stroke="#bfbfbf" points="97.4079,-.5 97.4079,-19.5 149.4079,-19.5 149.4079,-.5 97.4079,-.5"/>
<text text-anchor="middle" x="123.4079" y="-7.5" font-family="FreeSans.ttf" font-size="10.00" fill="#000000">cassert</text>
</g>
<!-- Node3&#45;&gt;Node8 -->
<g id="edge19" class="edge">
<title>Node3&#45;&gt;Node8</title>
<path fill="none" stroke="#191970" d="M408.0554,-168.4706C301.8505,-155.7833 127.7625,-134.6281 125.4079,-132 100.3118,-103.9892 109.0627,-56.153 116.7841,-29.4618"/>
<polygon fill="#191970" stroke="#191970" points="120.1799,-30.3297 119.8258,-19.7408 113.4993,-28.2393 120.1799,-30.3297"/>
</g>
<!-- Node3&#45;&gt;Node16 -->
<g id="edge17" class="edge">
<title>Node3&#45;&gt;Node16</title>
<path fill="none" stroke="#191970" d="M513.6781,-168.3733C538.6818,-158.848 577.0179,-144.2438 603.9741,-133.9748"/>
<polygon fill="#191970" stroke="#191970" points="605.2457,-137.2358 613.3446,-130.4051 602.7537,-130.6944 605.2457,-137.2358"/>
</g>
<!-- Node17 -->
<g id="node18" class="node">
<title>Node17</title>
<polygon fill="none" stroke="#bfbfbf" points="410.4079,-112.5 410.4079,-131.5 466.4079,-131.5 466.4079,-112.5 410.4079,-112.5"/>
<text text-anchor="middle" x="438.4079" y="-119.5" font-family="FreeSans.ttf" font-size="10.00" fill="#000000">sstream</text>
</g>
<!-- Node3&#45;&gt;Node17 -->
<g id="edge18" class="edge">
<title>Node3&#45;&gt;Node17</title>
<path fill="none" stroke="#191970" d="M479.6986,-168.2455C472.6006,-160.2958 462.3995,-148.8706 453.9129,-139.3656"/>
<polygon fill="#191970" stroke="#191970" points="456.2884,-136.771 447.0174,-131.6427 451.0668,-141.4331 456.2884,-136.771"/>
</g>
<!-- Node18 -->
<g id="node19" class="node">
<title>Node18</title>
<polygon fill="none" stroke="#bfbfbf" points="342.4079,-112.5 342.4079,-131.5 392.4079,-131.5 392.4079,-112.5 342.4079,-112.5"/>
<text text-anchor="middle" x="367.4079" y="-119.5" font-family="FreeSans.ttf" font-size="10.00" fill="#000000">cstring</text>
</g>
<!-- Node3&#45;&gt;Node18 -->
<g id="edge21" class="edge">
<title>Node3&#45;&gt;Node18</title>
<path fill="none" stroke="#191970" d="M467.6073,-168.3733C448.1836,-159.3838 418.9855,-145.8706 397.1114,-135.7471"/>
<polygon fill="#191970" stroke="#191970" points="398.4824,-132.5249 387.9371,-131.5011 395.5423,-138.8776 398.4824,-132.5249"/>
</g>
<!-- Node4&#45;&gt;Node5 -->
<g id="edge5" class="edge">
<title>Node4&#45;&gt;Node5</title>
<path fill="none" stroke="#191970" d="M328.3428,-56.2455C340.5026,-47.7337 358.3543,-35.2375 372.4363,-25.3801"/>
<polygon fill="#191970" stroke="#191970" points="374.4474,-28.2447 380.6326,-19.6427 370.4332,-22.51 374.4474,-28.2447"/>
</g>
<!-- Node6 -->
<g id="node7" class="node">
<title>Node6</title>
<polygon fill="none" stroke="#bfbfbf" points="269.4079,-.5 269.4079,-19.5 349.4079,-19.5 349.4079,-.5 269.4079,-.5"/>
<text text-anchor="middle" x="309.4079" y="-7.5" font-family="FreeSans.ttf" font-size="10.00" fill="#000000">CoreExport.h</text>
</g>
<!-- Node4&#45;&gt;Node6 -->
<g id="edge6" class="edge">
<title>Node4&#45;&gt;Node6</title>
<path fill="none" stroke="#191970" d="M313.537,-56.2455C312.8845,-48.9382 311.9699,-38.6944 311.1672,-29.7046"/>
<polygon fill="#191970" stroke="#191970" points="314.6444,-29.2918 310.2688,-19.6427 307.6721,-29.9143 314.6444,-29.2918"/>
</g>
<!-- Node7&#45;&gt;Node5 -->
<g id="edge11" class="edge">
<title>Node7&#45;&gt;Node5</title>
<path fill="none" stroke="#191970" d="M558.3705,-56.3733C522.795,-46.3115 467.1818,-30.5825 430.764,-20.2825"/>
<polygon fill="#191970" stroke="#191970" points="431.609,-16.8843 421.0339,-17.5306 429.7039,-23.6201 431.609,-16.8843"/>
</g>
<!-- Node7&#45;&gt;Node8 -->
<g id="edge8" class="edge">
<title>Node7&#45;&gt;Node8</title>
<path fill="none" stroke="#191970" d="M531.7019,-61.3229C449.4824,-54.5465 298.2959,-40.5215 170.4079,-20 166.9252,-19.4412 163.3108,-18.7941 159.7033,-18.1033"/>
<polygon fill="#191970" stroke="#191970" points="160.1644,-14.6258 149.6695,-16.0772 158.7789,-21.4873 160.1644,-14.6258"/>
</g>
<!-- Node9 -->
<g id="node10" class="node">
<title>Node9</title>
<polygon fill="none" stroke="#bfbfbf" points="719.4079,-.5 719.4079,-19.5 783.4079,-19.5 783.4079,-.5 719.4079,-.5"/>
<text text-anchor="middle" x="751.4079" y="-7.5" font-family="FreeSans.ttf" font-size="10.00" fill="#000000">algorithm</text>
</g>
<!-- Node7&#45;&gt;Node9 -->
<g id="edge9" class="edge">
<title>Node7&#45;&gt;Node9</title>
<path fill="none" stroke="#191970" d="M619.741,-56.3733C645.9513,-47.1419 685.7063,-33.1402 714.6747,-22.9375"/>
<polygon fill="#191970" stroke="#191970" points="716.1621,-26.1244 724.4315,-19.5011 713.8367,-19.5219 716.1621,-26.1244"/>
</g>
<!-- Node10 -->
<g id="node11" class="node">
<title>Node10</title>
<polygon fill="none" stroke="#bfbfbf" points="801.4079,-.5 801.4079,-19.5 843.4079,-19.5 843.4079,-.5 801.4079,-.5"/>
<text text-anchor="middle" x="822.4079" y="-7.5" font-family="FreeSans.ttf" font-size="10.00" fill="#000000">array</text>
</g>
<!-- Node7&#45;&gt;Node10 -->
<g id="edge10" class="edge">
<title>Node7&#45;&gt;Node10</title>
<path fill="none" stroke="#191970" d="M639.6053,-56.477C678.1101,-48.4086 734.0797,-36.0025 791.2494,-20.1421"/>
<polygon fill="#191970" stroke="#191970" points="792.4981,-23.427 801.1804,-17.355 790.6066,-16.6874 792.4981,-23.427"/>
</g>
<!-- Node11 -->
<g id="node12" class="node">
<title>Node11</title>
<polygon fill="none" stroke="#bfbfbf" points="438.9079,-.5 438.9079,-19.5 491.9079,-19.5 491.9079,-.5 438.9079,-.5"/>
<text text-anchor="middle" x="465.4079" y="-7.5" font-family="FreeSans.ttf" font-size="10.00" fill="#000000">iterator</text>
</g>
<!-- Node7&#45;&gt;Node11 -->
<g id="edge12" class="edge">
<title>Node7&#45;&gt;Node11</title>
<path fill="none" stroke="#191970" d="M570.5758,-56.3733C550.0976,-47.3435 519.268,-33.7494 496.276,-23.6111"/>
<polygon fill="#191970" stroke="#191970" points="497.5172,-20.3333 486.9551,-19.5011 494.6929,-26.7383 497.5172,-20.3333"/>
</g>
<!-- Node12 -->
<g id="node13" class="node">
<title>Node12</title>
<polygon fill="none" stroke="#bfbfbf" points="510.4079,-.5 510.4079,-19.5 554.4079,-19.5 554.4079,-.5 510.4079,-.5"/>
<text text-anchor="middle" x="532.4079" y="-7.5" font-family="FreeSans.ttf" font-size="10.00" fill="#000000">limits</text>
</g>
<!-- Node7&#45;&gt;Node12 -->
<g id="edge13" class="edge">
<title>Node7&#45;&gt;Node12</title>
<path fill="none" stroke="#191970" d="M581.9567,-56.2455C573.181,-48.0549 560.4525,-36.1749 550.0939,-26.5069"/>
<polygon fill="#191970" stroke="#191970" points="552.438,-23.9072 542.7393,-19.6427 547.6618,-29.0246 552.438,-23.9072"/>
</g>
<!-- Node13 -->
<g id="node14" class="node">
<title>Node13</title>
<polygon fill="none" stroke="#bfbfbf" points="572.9079,-.5 572.9079,-19.5 637.9079,-19.5 637.9079,-.5 572.9079,-.5"/>
<text text-anchor="middle" x="605.4079" y="-7.5" font-family="FreeSans.ttf" font-size="10.00" fill="#000000">stdexcept</text>
</g>
<!-- Node7&#45;&gt;Node13 -->
<g id="edge14" class="edge">
<title>Node7&#45;&gt;Node13</title>
<path fill="none" stroke="#191970" d="M594.6723,-56.2455C596.3873,-48.8579 598.799,-38.4689 600.9023,-29.4087"/>
<polygon fill="#191970" stroke="#191970" points="604.3174,-30.1751 603.1694,-19.6427 597.4987,-28.5922 604.3174,-30.1751"/>
</g>
<!-- Node14 -->
<g id="node15" class="node">
<title>Node14</title>
<polygon fill="none" stroke="#bfbfbf" points="179.9079,-.5 179.9079,-19.5 248.9079,-19.5 248.9079,-.5 179.9079,-.5"/>
<text text-anchor="middle" x="214.4079" y="-7.5" font-family="FreeSans.ttf" font-size="10.00" fill="#000000">type_traits</text>
</g>
<!-- Node7&#45;&gt;Node14 -->
<g id="edge15" class="edge">
<title>Node7&#45;&gt;Node14</title>
<path fill="none" stroke="#191970" d="M531.6069,-58.9899C464.8635,-50.9658 354.6531,-36.7479 260.4079,-20 259.9452,-19.9178 259.4801,-19.8342 259.0129,-19.7494"/>
<polygon fill="#191970" stroke="#191970" points="259.4958,-16.2781 249.0138,-17.8196 258.1693,-23.1512 259.4958,-16.2781"/>
</g>
<!-- Node15 -->
<g id="node16" class="node">
<title>Node15</title>
<polygon fill="none" stroke="#bfbfbf" points="655.9079,-.5 655.9079,-19.5 700.9079,-19.5 700.9079,-.5 655.9079,-.5"/>
<text text-anchor="middle" x="678.4079" y="-7.5" font-family="FreeSans.ttf" font-size="10.00" fill="#000000">utility</text>
</g>
<!-- Node7&#45;&gt;Node15 -->
<g id="edge16" class="edge">
<title>Node7&#45;&gt;Node15</title>
<path fill="none" stroke="#191970" d="M607.3879,-56.2455C620.583,-47.6534 640.013,-35.0014 655.2158,-25.1018"/>
<polygon fill="#191970" stroke="#191970" points="657.1294,-28.0325 663.5995,-19.6427 653.3096,-22.1665 657.1294,-28.0325"/>
</g>
<!-- Node19&#45;&gt;Node3 -->
<g id="edge41" class="edge">
<title>Node19&#45;&gt;Node3</title>
<path fill="none" stroke="#191970" d="M494.1519,-280.4668C473.9961,-273.8095 452.3969,-262.6342 440.4079,-244 428.9448,-226.1832 447.2497,-206.6623 464.4582,-193.5068"/>
<polygon fill="#191970" stroke="#191970" points="466.6054,-196.2739 472.6827,-187.5954 462.5198,-190.5898 466.6054,-196.2739"/>
</g>
<!-- Node19&#45;&gt;Node16 -->
<g id="edge24" class="edge">
<title>Node19&#45;&gt;Node16</title>
<path fill="none" stroke="#191970" d="M568.1736,-280.3875C584.7452,-273.0164 604.977,-261.1627 616.4079,-244 637.2132,-212.7623 638.447,-167.1851 637.1486,-141.4957"/>
<polygon fill="#191970" stroke="#191970" points="640.6397,-141.2444 636.4611,-131.5084 633.6562,-141.7252 640.6397,-141.2444"/>
</g>
<!-- Node20 -->
<g id="node21" class="node">
<title>Node20</title>
<g id="a_node21"><a xlink:href="GeomVector3_8h.html" target="_top" xlink:title="iDynTree/Core/GeomVector3.h">
<polygon fill="none" stroke="#000000" points="229.9079,-224.5 229.9079,-243.5 392.9079,-243.5 392.9079,-224.5 229.9079,-224.5"/>
<text text-anchor="middle" x="311.4079" y="-231.5" font-family="FreeSans.ttf" font-size="10.00" fill="#000000">iDynTree/Core/GeomVector3.h</text>
</a>
</g>
</g>
<!-- Node19&#45;&gt;Node20 -->
<g id="edge25" class="edge">
<title>Node19&#45;&gt;Node20</title>
<path fill="none" stroke="#191970" d="M502.1308,-280.4369C462.9335,-270.8932 402.6079,-256.2052 360.3244,-245.9101"/>
<polygon fill="#191970" stroke="#191970" points="361.0671,-242.4888 350.523,-243.5237 359.4111,-249.2901 361.0671,-242.4888"/>
</g>
<!-- Node21 -->
<g id="node22" class="node">
<title>Node21</title>
<g id="a_node22"><a xlink:href="RotationRaw_8h.html" target="_top" xlink:title="iDynTree/Core/RotationRaw.h">
<polygon fill="none" stroke="#000000" points="449.4079,-224.5 449.4079,-243.5 607.4079,-243.5 607.4079,-224.5 449.4079,-224.5"/>
<text text-anchor="middle" x="528.4079" y="-231.5" font-family="FreeSans.ttf" font-size="10.00" fill="#000000">iDynTree/Core/RotationRaw.h</text>
</a>
</g>
</g>
<!-- Node19&#45;&gt;Node21 -->
<g id="edge27" class="edge">
<title>Node19&#45;&gt;Node21</title>
<path fill="none" stroke="#191970" d="M539.1435,-280.2455C537.4285,-272.8579 535.0167,-262.4689 532.9135,-253.4087"/>
<polygon fill="#191970" stroke="#191970" points="536.3171,-252.5922 530.6464,-243.6427 529.4984,-254.1751 536.3171,-252.5922"/>
</g>
<!-- Node20&#45;&gt;Node3 -->
<g id="edge26" class="edge">
<title>Node20&#45;&gt;Node3</title>
<path fill="none" stroke="#191970" d="M341.8353,-224.3733C371.3951,-215.021 416.4305,-200.7725 448.7774,-190.5385"/>
<polygon fill="#191970" stroke="#191970" points="449.8991,-193.8546 458.3776,-187.5011 447.7876,-187.1807 449.8991,-193.8546"/>
</g>
<!-- Node21&#45;&gt;Node16 -->
<g id="edge40" class="edge">
<title>Node21&#45;&gt;Node16</title>
<path fill="none" stroke="#191970" d="M539.4738,-224.4754C549.8368,-215.4049 565.6025,-201.2139 578.4079,-188 593.6196,-172.303 609.8028,-153.3194 621.0235,-139.7488"/>
<polygon fill="#191970" stroke="#191970" points="623.9874,-141.654 627.6204,-131.7016 618.5739,-137.2162 623.9874,-141.654"/>
</g>
<!-- Node21&#45;&gt;Node22 -->
<g id="edge28" class="edge">
<title>Node21&#45;&gt;Node22</title>
<path fill="none" stroke="#191970" d="M490.7605,-224.3733C453.5558,-214.8598 396.5376,-200.2797 356.3863,-190.0127"/>
<polygon fill="#191970" stroke="#191970" points="357.1195,-186.5877 346.5641,-187.5011 355.3852,-193.3695 357.1195,-186.5877"/>
</g>
<!-- Node22&#45;&gt;Node4 -->
<g id="edge29" class="edge">
<title>Node22&#45;&gt;Node4</title>
<path fill="none" stroke="#191970" d="M309.8342,-168.4509C310.6497,-150.184 312.4456,-109.9553 313.5285,-85.6976"/>
<polygon fill="#191970" stroke="#191970" points="317.0331,-85.6711 313.9827,-75.5249 310.0401,-85.3588 317.0331,-85.6711"/>
</g>
<!-- Node22&#45;&gt;Node8 -->
<g id="edge35" class="edge">
<title>Node22&#45;&gt;Node8</title>
<path fill="none" stroke="#191970" d="M228.7637,-171.0205C144.8301,-162.9217 23.6076,-148.5429 9.4079,-132 -25.3172,-91.5446 48.6929,-46.2487 93.124,-23.9481"/>
<polygon fill="#191970" stroke="#191970" points="94.6654,-27.0905 102.1064,-19.5485 91.5862,-20.8041 94.6654,-27.0905"/>
</g>
<!-- Node22&#45;&gt;Node16 -->
<g id="edge37" class="edge">
<title>Node22&#45;&gt;Node16</title>
<path fill="none" stroke="#191970" d="M365.0789,-168.4369C433.5872,-156.6686 547.6307,-137.0783 603.1127,-127.5476"/>
<polygon fill="#191970" stroke="#191970" points="603.8193,-130.9776 613.0823,-125.8351 602.6341,-124.0787 603.8193,-130.9776"/>
</g>
<!-- Node22&#45;&gt;Node17 -->
<g id="edge39" class="edge">
<title>Node22&#45;&gt;Node17</title>
<path fill="none" stroke="#191970" d="M331.5838,-168.3733C352.3845,-159.3435 383.6996,-145.7494 407.0537,-135.6111"/>
<polygon fill="#191970" stroke="#191970" points="408.7422,-138.6938 416.5214,-131.5011 405.9547,-132.2727 408.7422,-138.6938"/>
</g>
<!-- Node22&#45;&gt;Node18 -->
<g id="edge36" class="edge">
<title>Node22&#45;&gt;Node18</title>
<path fill="none" stroke="#191970" d="M319.5107,-168.2455C327.9107,-160.1352 340.0573,-148.4075 350.0163,-138.7919"/>
<polygon fill="#191970" stroke="#191970" points="352.6579,-141.1066 357.4208,-131.6427 347.7957,-136.0707 352.6579,-141.1066"/>
</g>
<!-- Node23 -->
<g id="node24" class="node">
<title>Node23</title>
<g id="a_node24"><a xlink:href="MatrixView_8h.html" target="_top" xlink:title="iDynTree/Core/MatrixView.h">
<polygon fill="none" stroke="#000000" points="134.9079,-112.5 134.9079,-131.5 285.9079,-131.5 285.9079,-112.5 134.9079,-112.5"/>
<text text-anchor="middle" x="210.4079" y="-119.5" font-family="FreeSans.ttf" font-size="10.00" fill="#000000">iDynTree/Core/MatrixView.h</text>
</a>
</g>
</g>
<!-- Node22&#45;&gt;Node23 -->
<g id="edge30" class="edge">
<title>Node22&#45;&gt;Node23</title>
<path fill="none" stroke="#191970" d="M292.1634,-168.2455C276.8318,-159.5731 254.188,-146.7645 236.6163,-136.825"/>
<polygon fill="#191970" stroke="#191970" points="237.882,-133.5198 227.4548,-131.6427 234.4355,-139.6126 237.882,-133.5198"/>
</g>
<!-- Node24 -->
<g id="node25" class="node">
<title>Node24</title>
<polygon fill="none" stroke="#bfbfbf" points="18.4079,-112.5 18.4079,-131.5 78.4079,-131.5 78.4079,-112.5 18.4079,-112.5"/>
<text text-anchor="middle" x="48.4079" y="-119.5" font-family="FreeSans.ttf" font-size="10.00" fill="#000000">iostream</text>
</g>
<!-- Node22&#45;&gt;Node24 -->
<g id="edge38" class="edge">
<title>Node22&#45;&gt;Node24</title>
<path fill="none" stroke="#191970" d="M263.2245,-168.4136C219.2651,-159.2407 151.2744,-144.928 92.4079,-132 91.1598,-131.7259 89.892,-131.4461 88.6123,-131.1625"/>
<polygon fill="#191970" stroke="#191970" points="89.2144,-127.7108 78.6915,-128.9436 87.6865,-134.542 89.2144,-127.7108"/>
</g>
<!-- Node23&#45;&gt;Node4 -->
<g id="edge34" class="edge">
<title>Node23&#45;&gt;Node4</title>
<path fill="none" stroke="#191970" d="M228.5233,-112.2455C244.8529,-103.4527 269.0789,-90.4079 287.6418,-80.4125"/>
<polygon fill="#191970" stroke="#191970" points="289.3547,-83.4654 296.5001,-75.6427 286.036,-77.3021 289.3547,-83.4654"/>
</g>
<!-- Node23&#45;&gt;Node7 -->
<g id="edge33" class="edge">
<title>Node23&#45;&gt;Node7</title>
<path fill="none" stroke="#191970" d="M275.642,-112.4369C344.0882,-102.4029 451.3239,-86.6825 521.7416,-76.3595"/>
<polygon fill="#191970" stroke="#191970" points="522.4684,-79.7904 531.855,-74.8769 521.453,-72.8644 522.4684,-79.7904"/>
</g>
<!-- Node23&#45;&gt;Node8 -->
<g id="edge31" class="edge">
<title>Node23&#45;&gt;Node8</title>
<path fill="none" stroke="#191970" d="M202.9903,-112.4509C188.3513,-93.6054 155.5551,-51.3849 136.9565,-27.4419"/>
<polygon fill="#191970" stroke="#191970" points="139.7053,-25.2751 130.8067,-19.5249 134.1772,-29.5693 139.7053,-25.2751"/>
</g>
<!-- Node23&#45;&gt;Node14 -->
<g id="edge32" class="edge">
<title>Node23&#45;&gt;Node14</title>
<path fill="none" stroke="#191970" d="M210.7489,-112.4509C211.4013,-94.184 212.8381,-53.9553 213.7044,-29.6976"/>
<polygon fill="#191970" stroke="#191970" points="217.2085,-29.6435 214.0677,-19.5249 210.2129,-29.3936 217.2085,-29.6435"/>
</g>
</g>
</svg>
