<?xml version="1.0" encoding="UTF-8" standalone="no"?>
<!DOCTYPE svg PUBLIC "-//W3C//DTD SVG 1.1//EN"
 "http://www.w3.org/Graphics/SVG/1.1/DTD/svg11.dtd">
<!-- Generated by graphviz version 2.40.1 (20161225.0304)
 -->
<!-- Title: Twist.cpp Pages: 1 -->
<svg width="1379pt" height="655pt"
 viewBox="0.00 0.00 1379.00 655.00" xmlns="http://www.w3.org/2000/svg" xmlns:xlink="http://www.w3.org/1999/xlink">
<g id="graph0" class="graph" transform="scale(1 1) rotate(0) translate(4 651)">
<title>Twist.cpp</title>
<!-- Node0 -->
<g id="node1" class="node">
<title>Node0</title>
<polygon fill="#bfbfbf" stroke="#000000" points="1008.5,-627.5 1008.5,-646.5 1070.5,-646.5 1070.5,-627.5 1008.5,-627.5"/>
<text text-anchor="middle" x="1039.5" y="-634.5" font-family="FreeSans.ttf" font-size="10.00" fill="#000000">Twist.cpp</text>
</g>
<!-- Node1 -->
<g id="node2" class="node">
<title>Node1</title>
<g id="a_node2"><a xlink:href="Twist_8h.html" target="_top" xlink:title="iDynTree/Core/Twist.h">
<polygon fill="none" stroke="#000000" points="714.5,-515.5 714.5,-534.5 836.5,-534.5 836.5,-515.5 714.5,-515.5"/>
<text text-anchor="middle" x="775.5" y="-522.5" font-family="FreeSans.ttf" font-size="10.00" fill="#000000">iDynTree/Core/Twist.h</text>
</a>
</g>
</g>
<!-- Node0&#45;&gt;Node1 -->
<g id="edge1" class="edge">
<title>Node0&#45;&gt;Node1</title>
<path fill="none" stroke="#191970" d="M1008.1501,-635.608C947.6542,-632.2522 818.0716,-621.593 787.5,-591 775.5607,-579.0524 773.2979,-559.4591 773.5795,-544.7178"/>
<polygon fill="#191970" stroke="#191970" points="777.0814,-544.7854 774.1727,-534.5977 770.0934,-544.3758 777.0814,-544.7854"/>
</g>
<!-- Node28 -->
<g id="node29" class="node">
<title>Node28</title>
<g id="a_node29"><a xlink:href="Wrench_8h.html" target="_top" xlink:title="iDynTree/Core/Wrench.h">
<polygon fill="none" stroke="#000000" points="1075,-515.5 1075,-534.5 1208,-534.5 1208,-515.5 1075,-515.5"/>
<text text-anchor="middle" x="1141.5" y="-522.5" font-family="FreeSans.ttf" font-size="10.00" fill="#000000">iDynTree/Core/Wrench.h</text>
</a>
</g>
</g>
<!-- Node0&#45;&gt;Node28 -->
<g id="edge53" class="edge">
<title>Node0&#45;&gt;Node28</title>
<path fill="none" stroke="#191970" d="M1070.8555,-627.5178C1089.3817,-620.3517 1111.8189,-608.6741 1125.5,-591 1135.7504,-577.758 1139.5518,-558.8938 1140.9049,-544.7221"/>
<polygon fill="#191970" stroke="#191970" points="1144.4093,-544.759 1141.5416,-534.5597 1137.423,-544.3212 1144.4093,-544.759"/>
</g>
<!-- Node30 -->
<g id="node31" class="node">
<title>Node30</title>
<g id="a_node31"><a xlink:href="SpatialAcc_8h.html" target="_top" xlink:title="iDynTree/Core/SpatialAcc.h">
<polygon fill="none" stroke="#000000" points="796.5,-571.5 796.5,-590.5 944.5,-590.5 944.5,-571.5 796.5,-571.5"/>
<text text-anchor="middle" x="870.5" y="-578.5" font-family="FreeSans.ttf" font-size="10.00" fill="#000000">iDynTree/Core/SpatialAcc.h</text>
</a>
</g>
</g>
<!-- Node0&#45;&gt;Node30 -->
<g id="edge58" class="edge">
<title>Node0&#45;&gt;Node30</title>
<path fill="none" stroke="#191970" d="M1010.4479,-627.3733C982.3457,-618.0613 939.5946,-603.8953 908.7393,-593.671"/>
<polygon fill="#191970" stroke="#191970" points="909.7664,-590.3243 899.173,-590.5011 907.5645,-596.969 909.7664,-590.3243"/>
</g>
<!-- Node31 -->
<g id="node32" class="node">
<title>Node31</title>
<g id="a_node32"><a xlink:href="SpatialMomentum_8h.html" target="_top" xlink:title="iDynTree/Core/SpatialMomentum.h">
<polygon fill="none" stroke="#000000" points="1178.5,-571.5 1178.5,-590.5 1364.5,-590.5 1364.5,-571.5 1178.5,-571.5"/>
<text text-anchor="middle" x="1271.5" y="-578.5" font-family="FreeSans.ttf" font-size="10.00" fill="#000000">iDynTree/Core/SpatialMomentum.h</text>
</a>
</g>
</g>
<!-- Node0&#45;&gt;Node31 -->
<g id="edge60" class="edge">
<title>Node0&#45;&gt;Node31</title>
<path fill="none" stroke="#191970" d="M1070.7886,-629.4476C1109.5392,-620.094 1176.0214,-604.0465 1221.7859,-593"/>
<polygon fill="#191970" stroke="#191970" points="1222.8933,-596.3332 1231.7929,-590.5845 1221.2508,-589.5287 1222.8933,-596.3332"/>
</g>
<!-- Node32 -->
<g id="node33" class="node">
<title>Node32</title>
<g id="a_node33"><a xlink:href="PrivateUtils_8h.html" target="_top" xlink:title="iDynTree/Core/PrivateUtils.h">
<polygon fill="none" stroke="#000000" points="962.5,-571.5 962.5,-590.5 1116.5,-590.5 1116.5,-571.5 962.5,-571.5"/>
<text text-anchor="middle" x="1039.5" y="-578.5" font-family="FreeSans.ttf" font-size="10.00" fill="#000000">iDynTree/Core/PrivateUtils.h</text>
</a>
</g>
</g>
<!-- Node0&#45;&gt;Node32 -->
<g id="edge62" class="edge">
<title>Node0&#45;&gt;Node32</title>
<path fill="none" stroke="#191970" d="M1039.5,-627.2455C1039.5,-619.9382 1039.5,-609.6944 1039.5,-600.7046"/>
<polygon fill="#191970" stroke="#191970" points="1043.0001,-600.6426 1039.5,-590.6427 1036.0001,-600.6427 1043.0001,-600.6426"/>
</g>
<!-- Node2 -->
<g id="node3" class="node">
<title>Node2</title>
<g id="a_node3"><a xlink:href="SpatialMotionVector_8h.html" target="_top" xlink:title="iDynTree/Core/SpatialMotion\lVector.h">
<polygon fill="none" stroke="#000000" points="790,-448.5 790,-478.5 945,-478.5 945,-448.5 790,-448.5"/>
<text text-anchor="start" x="798" y="-466.5" font-family="FreeSans.ttf" font-size="10.00" fill="#000000">iDynTree/Core/SpatialMotion</text>
<text text-anchor="middle" x="867.5" y="-455.5" font-family="FreeSans.ttf" font-size="10.00" fill="#000000">Vector.h</text>
</a>
</g>
</g>
<!-- Node1&#45;&gt;Node2 -->
<g id="edge2" class="edge">
<title>Node1&#45;&gt;Node2</title>
<path fill="none" stroke="#191970" d="M789.875,-515.3906C802.3261,-507.0673 820.7686,-494.7389 836.5534,-484.1872"/>
<polygon fill="#191970" stroke="#191970" points="838.6258,-487.0118 844.9943,-478.5446 834.7356,-481.1923 838.6258,-487.0118"/>
</g>
<!-- Node3 -->
<g id="node4" class="node">
<title>Node3</title>
<g id="a_node4"><a xlink:href="VectorFixSize_8h.html" target="_top" xlink:title="iDynTree/Core/VectorFixSize.h">
<polygon fill="none" stroke="#000000" points="858,-168.5 858,-187.5 1019,-187.5 1019,-168.5 858,-168.5"/>
<text text-anchor="middle" x="938.5" y="-175.5" font-family="FreeSans.ttf" font-size="10.00" fill="#000000">iDynTree/Core/VectorFixSize.h</text>
</a>
</g>
</g>
<!-- Node2&#45;&gt;Node3 -->
<g id="edge3" class="edge">
<title>Node2&#45;&gt;Node3</title>
<path fill="none" stroke="#191970" d="M859.2546,-448.42C848.0785,-426.5326 829.5,-384.3768 829.5,-346 829.5,-346 829.5,-346 829.5,-290 829.5,-259.4754 829.0864,-247.5556 848.5,-224 860.7213,-209.1712 878.9554,-198.6116 895.8218,-191.3823"/>
<polygon fill="#191970" stroke="#191970" points="897.5489,-194.4615 905.5387,-187.5035 894.9537,-187.9603 897.5489,-194.4615"/>
</g>
<!-- Node19 -->
<g id="node20" class="node">
<title>Node19</title>
<g id="a_node20"><a xlink:href="GeomVector3_8h.html" target="_top" xlink:title="iDynTree/Core/GeomVector3.h">
<polygon fill="none" stroke="#000000" points="858,-224.5 858,-243.5 1021,-243.5 1021,-224.5 858,-224.5"/>
<text text-anchor="middle" x="939.5" y="-231.5" font-family="FreeSans.ttf" font-size="10.00" fill="#000000">iDynTree/Core/GeomVector3.h</text>
</a>
</g>
</g>
<!-- Node2&#45;&gt;Node19 -->
<g id="edge22" class="edge">
<title>Node2&#45;&gt;Node19</title>
<path fill="none" stroke="#191970" d="M871.517,-448.3777C875.4219,-433.8663 881.6096,-411.3606 887.5,-392 902.8468,-341.5581 922.7528,-282.6997 932.9086,-253.0872"/>
<polygon fill="#191970" stroke="#191970" points="936.2391,-254.165 936.1826,-243.5703 929.6198,-251.8878 936.2391,-254.165"/>
</g>
<!-- Node20 -->
<g id="node21" class="node">
<title>Node20</title>
<g id="a_node21"><a xlink:href="SpatialVector_8h.html" target="_top" xlink:title="iDynTree/Core/SpatialVector.h">
<polygon fill="none" stroke="#000000" points="896,-392.5 896,-411.5 1057,-411.5 1057,-392.5 896,-392.5"/>
<text text-anchor="middle" x="976.5" y="-399.5" font-family="FreeSans.ttf" font-size="10.00" fill="#000000">iDynTree/Core/SpatialVector.h</text>
</a>
</g>
</g>
<!-- Node2&#45;&gt;Node20 -->
<g id="edge24" class="edge">
<title>Node2&#45;&gt;Node20</title>
<path fill="none" stroke="#191970" d="M894.1644,-448.4554C911.3941,-438.734 933.6975,-426.15 950.7446,-416.5317"/>
<polygon fill="#191970" stroke="#191970" points="952.6194,-419.4926 959.6089,-411.5303 949.1796,-413.3961 952.6194,-419.4926"/>
</g>
<!-- Node4 -->
<g id="node5" class="node">
<title>Node4</title>
<g id="a_node5"><a xlink:href="Utils_8h.html" target="_top" xlink:title="iDynTree/Core/Utils.h">
<polygon fill="none" stroke="#000000" points="1061,-56.5 1061,-75.5 1180,-75.5 1180,-56.5 1061,-56.5"/>
<text text-anchor="middle" x="1120.5" y="-63.5" font-family="FreeSans.ttf" font-size="10.00" fill="#000000">iDynTree/Core/Utils.h</text>
</a>
</g>
</g>
<!-- Node3&#45;&gt;Node4 -->
<g id="edge4" class="edge">
<title>Node3&#45;&gt;Node4</title>
<path fill="none" stroke="#191970" d="M967.733,-168.4857C990.215,-160.4887 1021.5494,-147.8341 1046.5,-132 1068.5748,-117.9909 1090.5023,-97.3746 1104.6879,-82.9214"/>
<polygon fill="#191970" stroke="#191970" points="1107.3138,-85.2402 1111.724,-75.6069 1102.269,-80.3873 1107.3138,-85.2402"/>
</g>
<!-- Node5 -->
<g id="node6" class="node">
<title>Node5</title>
<polygon fill="none" stroke="#bfbfbf" points="1008,-.5 1008,-19.5 1061,-19.5 1061,-.5 1008,-.5"/>
<text text-anchor="middle" x="1034.5" y="-7.5" font-family="FreeSans.ttf" font-size="10.00" fill="#000000">cstddef</text>
</g>
<!-- Node3&#45;&gt;Node5 -->
<g id="edge20" class="edge">
<title>Node3&#45;&gt;Node5</title>
<path fill="none" stroke="#191970" d="M961.8506,-168.4137C977.4351,-160.8138 997.0918,-148.6862 1008.5,-132 1029.794,-100.8543 1034.1466,-55.5977 1034.7545,-29.8611"/>
<polygon fill="#191970" stroke="#191970" points="1038.2546,-29.8499 1034.8211,-19.8268 1031.2547,-29.8033 1038.2546,-29.8499"/>
</g>
<!-- Node7 -->
<g id="node8" class="node">
<title>Node7</title>
<g id="a_node8"><a xlink:href="Span_8h.html" target="_top" xlink:title="iDynTree/Core/Span.h">
<polygon fill="none" stroke="#000000" points="473,-56.5 473,-75.5 594,-75.5 594,-56.5 473,-56.5"/>
<text text-anchor="middle" x="533.5" y="-63.5" font-family="FreeSans.ttf" font-size="10.00" fill="#000000">iDynTree/Core/Span.h</text>
</a>
</g>
</g>
<!-- Node3&#45;&gt;Node7 -->
<g id="edge7" class="edge">
<title>Node3&#45;&gt;Node7</title>
<path fill="none" stroke="#191970" d="M930.9229,-168.4322C918.562,-153.5805 892.5078,-125.3063 863.5,-112 818.6425,-91.4231 686.9743,-77.8403 604.149,-71.0696"/>
<polygon fill="#191970" stroke="#191970" points="604.2984,-67.5704 594.0501,-70.258 603.7375,-74.5479 604.2984,-67.5704"/>
</g>
<!-- Node8 -->
<g id="node9" class="node">
<title>Node8</title>
<polygon fill="none" stroke="#bfbfbf" points="766.5,-.5 766.5,-19.5 818.5,-19.5 818.5,-.5 766.5,-.5"/>
<text text-anchor="middle" x="792.5" y="-7.5" font-family="FreeSans.ttf" font-size="10.00" fill="#000000">cassert</text>
</g>
<!-- Node3&#45;&gt;Node8 -->
<g id="edge19" class="edge">
<title>Node3&#45;&gt;Node8</title>
<path fill="none" stroke="#191970" d="M950.7657,-168.3119C965.5784,-155.3847 987.1441,-131.8209 975.5,-112 943.8604,-58.1424 872.3181,-30.6421 828.6471,-18.3731"/>
<polygon fill="#191970" stroke="#191970" points="829.2816,-14.9197 818.7163,-15.7103 827.4686,-21.6808 829.2816,-14.9197"/>
</g>
<!-- Node16 -->
<g id="node17" class="node">
<title>Node16</title>
<polygon fill="none" stroke="#bfbfbf" points="344.5,-112.5 344.5,-131.5 388.5,-131.5 388.5,-112.5 344.5,-112.5"/>
<text text-anchor="middle" x="366.5" y="-119.5" font-family="FreeSans.ttf" font-size="10.00" fill="#000000">string</text>
</g>
<!-- Node3&#45;&gt;Node16 -->
<g id="edge17" class="edge">
<title>Node3&#45;&gt;Node16</title>
<path fill="none" stroke="#191970" d="M857.9581,-170.5472C762.7519,-161.6722 599.5453,-146.2534 459.5,-132 439.3372,-129.9479 416.7302,-127.5199 398.8543,-125.5703"/>
<polygon fill="#191970" stroke="#191970" points="398.9871,-122.064 388.6656,-124.4551 398.2254,-129.0225 398.9871,-122.064"/>
</g>
<!-- Node17 -->
<g id="node18" class="node">
<title>Node17</title>
<polygon fill="none" stroke="#bfbfbf" points="910.5,-112.5 910.5,-131.5 966.5,-131.5 966.5,-112.5 910.5,-112.5"/>
<text text-anchor="middle" x="938.5" y="-119.5" font-family="FreeSans.ttf" font-size="10.00" fill="#000000">sstream</text>
</g>
<!-- Node3&#45;&gt;Node17 -->
<g id="edge18" class="edge">
<title>Node3&#45;&gt;Node17</title>
<path fill="none" stroke="#191970" d="M938.5,-168.2455C938.5,-160.9382 938.5,-150.6944 938.5,-141.7046"/>
<polygon fill="#191970" stroke="#191970" points="942.0001,-141.6426 938.5,-131.6427 935.0001,-141.6427 942.0001,-141.6426"/>
</g>
<!-- Node18 -->
<g id="node19" class="node">
<title>Node18</title>
<polygon fill="none" stroke="#bfbfbf" points="804.5,-112.5 804.5,-131.5 854.5,-131.5 854.5,-112.5 804.5,-112.5"/>
<text text-anchor="middle" x="829.5" y="-119.5" font-family="FreeSans.ttf" font-size="10.00" fill="#000000">cstring</text>
</g>
<!-- Node3&#45;&gt;Node18 -->
<g id="edge21" class="edge">
<title>Node3&#45;&gt;Node18</title>
<path fill="none" stroke="#191970" d="M919.5136,-168.2455C902.3208,-159.4125 876.7762,-146.2887 857.2868,-136.2758"/>
<polygon fill="#191970" stroke="#191970" points="858.763,-133.0993 848.2688,-131.6427 855.5641,-139.3257 858.763,-133.0993"/>
</g>
<!-- Node4&#45;&gt;Node5 -->
<g id="edge5" class="edge">
<title>Node4&#45;&gt;Node5</title>
<path fill="none" stroke="#191970" d="M1105.5199,-56.2455C1092.3249,-47.6534 1072.8949,-35.0014 1057.6921,-25.1018"/>
<polygon fill="#191970" stroke="#191970" points="1059.5983,-22.1665 1049.3084,-19.6427 1055.7785,-28.0325 1059.5983,-22.1665"/>
</g>
<!-- Node6 -->
<g id="node7" class="node">
<title>Node6</title>
<polygon fill="none" stroke="#bfbfbf" points="1080.5,-.5 1080.5,-19.5 1160.5,-19.5 1160.5,-.5 1080.5,-.5"/>
<text text-anchor="middle" x="1120.5" y="-7.5" font-family="FreeSans.ttf" font-size="10.00" fill="#000000">CoreExport.h</text>
</g>
<!-- Node4&#45;&gt;Node6 -->
<g id="edge6" class="edge">
<title>Node4&#45;&gt;Node6</title>
<path fill="none" stroke="#191970" d="M1120.5,-56.2455C1120.5,-48.9382 1120.5,-38.6944 1120.5,-29.7046"/>
<polygon fill="#191970" stroke="#191970" points="1124.0001,-29.6426 1120.5,-19.6427 1117.0001,-29.6427 1124.0001,-29.6426"/>
</g>
<!-- Node7&#45;&gt;Node5 -->
<g id="edge11" class="edge">
<title>Node7&#45;&gt;Node5</title>
<path fill="none" stroke="#191970" d="M594.4316,-59.1893C699.6974,-47.423 912.518,-23.6347 997.8684,-14.0945"/>
<polygon fill="#191970" stroke="#191970" points="998.3165,-17.5664 1007.8658,-12.9771 997.5388,-10.6097 998.3165,-17.5664"/>
</g>
<!-- Node7&#45;&gt;Node8 -->
<g id="edge8" class="edge">
<title>Node7&#45;&gt;Node8</title>
<path fill="none" stroke="#191970" d="M585.8012,-56.422C629.1341,-48.2233 692.5228,-35.6264 756.3528,-20.1552"/>
<polygon fill="#191970" stroke="#191970" points="757.302,-23.5263 766.1837,-17.7501 755.6384,-16.7268 757.302,-23.5263"/>
</g>
<!-- Node9 -->
<g id="node10" class="node">
<title>Node9</title>
<polygon fill="none" stroke="#bfbfbf" points="684.5,-.5 684.5,-19.5 748.5,-19.5 748.5,-.5 684.5,-.5"/>
<text text-anchor="middle" x="716.5" y="-7.5" font-family="FreeSans.ttf" font-size="10.00" fill="#000000">algorithm</text>
</g>
<!-- Node7&#45;&gt;Node9 -->
<g id="edge9" class="edge">
<title>Node7&#45;&gt;Node9</title>
<path fill="none" stroke="#191970" d="M564.9588,-56.3733C595.5207,-47.021 642.0826,-32.7725 675.5261,-22.5385"/>
<polygon fill="#191970" stroke="#191970" points="676.9136,-25.7742 685.4517,-19.5011 674.8652,-19.0806 676.9136,-25.7742"/>
</g>
<!-- Node10 -->
<g id="node11" class="node">
<title>Node10</title>
<polygon fill="none" stroke="#bfbfbf" points="343.5,-.5 343.5,-19.5 385.5,-19.5 385.5,-.5 343.5,-.5"/>
<text text-anchor="middle" x="364.5" y="-7.5" font-family="FreeSans.ttf" font-size="10.00" fill="#000000">array</text>
</g>
<!-- Node7&#45;&gt;Node10 -->
<g id="edge10" class="edge">
<title>Node7&#45;&gt;Node10</title>
<path fill="none" stroke="#191970" d="M504.4755,-56.415C478.2736,-47.7577 438.4167,-34.5777 395.3348,-20.2731"/>
<polygon fill="#191970" stroke="#191970" points="396.3969,-16.9379 385.8034,-17.1074 394.1904,-23.5811 396.3969,-16.9379"/>
</g>
<!-- Node11 -->
<g id="node12" class="node">
<title>Node11</title>
<polygon fill="none" stroke="#bfbfbf" points="404,-.5 404,-19.5 457,-19.5 457,-.5 404,-.5"/>
<text text-anchor="middle" x="430.5" y="-7.5" font-family="FreeSans.ttf" font-size="10.00" fill="#000000">iterator</text>
</g>
<!-- Node7&#45;&gt;Node11 -->
<g id="edge12" class="edge">
<title>Node7&#45;&gt;Node11</title>
<path fill="none" stroke="#191970" d="M515.5588,-56.2455C499.46,-47.4928 475.6121,-34.527 457.2609,-24.5496"/>
<polygon fill="#191970" stroke="#191970" points="458.6929,-21.3444 448.2356,-19.6427 455.3493,-27.4942 458.6929,-21.3444"/>
</g>
<!-- Node12 -->
<g id="node13" class="node">
<title>Node12</title>
<polygon fill="none" stroke="#bfbfbf" points="475.5,-.5 475.5,-19.5 519.5,-19.5 519.5,-.5 475.5,-.5"/>
<text text-anchor="middle" x="497.5" y="-7.5" font-family="FreeSans.ttf" font-size="10.00" fill="#000000">limits</text>
</g>
<!-- Node7&#45;&gt;Node12 -->
<g id="edge13" class="edge">
<title>Node7&#45;&gt;Node12</title>
<path fill="none" stroke="#191970" d="M527.2293,-56.2455C522.2736,-48.5367 515.217,-37.5598 509.2224,-28.2348"/>
<polygon fill="#191970" stroke="#191970" points="512.0506,-26.1618 503.6989,-19.6427 506.1624,-29.9471 512.0506,-26.1618"/>
</g>
<!-- Node13 -->
<g id="node14" class="node">
<title>Node13</title>
<polygon fill="none" stroke="#bfbfbf" points="538,-.5 538,-19.5 603,-19.5 603,-.5 538,-.5"/>
<text text-anchor="middle" x="570.5" y="-7.5" font-family="FreeSans.ttf" font-size="10.00" fill="#000000">stdexcept</text>
</g>
<!-- Node7&#45;&gt;Node13 -->
<g id="edge14" class="edge">
<title>Node7&#45;&gt;Node13</title>
<path fill="none" stroke="#191970" d="M539.9449,-56.2455C545.0382,-48.5367 552.2908,-37.5598 558.452,-28.2348"/>
<polygon fill="#191970" stroke="#191970" points="561.5365,-29.9155 564.1289,-19.6427 555.6962,-26.0566 561.5365,-29.9155"/>
</g>
<!-- Node14 -->
<g id="node15" class="node">
<title>Node14</title>
<polygon fill="none" stroke="#bfbfbf" points="256,-.5 256,-19.5 325,-19.5 325,-.5 256,-.5"/>
<text text-anchor="middle" x="290.5" y="-7.5" font-family="FreeSans.ttf" font-size="10.00" fill="#000000">type_traits</text>
</g>
<!-- Node7&#45;&gt;Node14 -->
<g id="edge15" class="edge">
<title>Node7&#45;&gt;Node14</title>
<path fill="none" stroke="#191970" d="M492.0029,-56.4369C448.3648,-46.3804 379.9409,-30.6119 335.1515,-20.2901"/>
<polygon fill="#191970" stroke="#191970" points="335.6686,-16.8175 325.138,-17.9824 334.0966,-23.6388 335.6686,-16.8175"/>
</g>
<!-- Node15 -->
<g id="node16" class="node">
<title>Node15</title>
<polygon fill="none" stroke="#bfbfbf" points="621,-.5 621,-19.5 666,-19.5 666,-.5 621,-.5"/>
<text text-anchor="middle" x="643.5" y="-7.5" font-family="FreeSans.ttf" font-size="10.00" fill="#000000">utility</text>
</g>
<!-- Node7&#45;&gt;Node15 -->
<g id="edge16" class="edge">
<title>Node7&#45;&gt;Node15</title>
<path fill="none" stroke="#191970" d="M552.6605,-56.2455C570.0111,-47.4125 595.7901,-34.2887 615.4583,-24.2758"/>
<polygon fill="#191970" stroke="#191970" points="617.2353,-27.2986 624.559,-19.6427 614.0595,-21.0605 617.2353,-27.2986"/>
</g>
<!-- Node19&#45;&gt;Node3 -->
<g id="edge23" class="edge">
<title>Node19&#45;&gt;Node3</title>
<path fill="none" stroke="#191970" d="M939.3258,-224.2455C939.1953,-216.9382 939.0124,-206.6944 938.8519,-197.7046"/>
<polygon fill="#191970" stroke="#191970" points="942.3503,-197.5786 938.6722,-187.6427 935.3514,-197.7036 942.3503,-197.5786"/>
</g>
<!-- Node20&#45;&gt;Node4 -->
<g id="edge49" class="edge">
<title>Node20&#45;&gt;Node4</title>
<path fill="none" stroke="#191970" d="M989.3029,-392.1917C999.8566,-383.5792 1014.6417,-370.2325 1024.5,-356 1086.2745,-266.8154 1110.6223,-134.9876 1117.9124,-85.6151"/>
<polygon fill="#191970" stroke="#191970" points="1121.3888,-86.0275 1119.3151,-75.6375 1114.457,-85.0529 1121.3888,-86.0275"/>
</g>
<!-- Node20&#45;&gt;Node17 -->
<g id="edge52" class="edge">
<title>Node20&#45;&gt;Node17</title>
<path fill="none" stroke="#191970" d="M983.448,-392.2001C1006.5681,-358.2829 1076.7805,-243.8242 1028.5,-168 1016.8625,-149.7234 995.5134,-138.3759 976.5285,-131.5253"/>
<polygon fill="#191970" stroke="#191970" points="977.4732,-128.1514 966.8801,-128.3399 975.2786,-134.7985 977.4732,-128.1514"/>
</g>
<!-- Node20&#45;&gt;Node19 -->
<g id="edge50" class="edge">
<title>Node20&#45;&gt;Node19</title>
<path fill="none" stroke="#191970" d="M974.4047,-392.4862C968.5305,-365.8144 951.8139,-289.9117 943.8376,-253.695"/>
<polygon fill="#191970" stroke="#191970" points="947.2335,-252.841 941.6645,-243.8279 940.3973,-254.3467 947.2335,-252.841"/>
</g>
<!-- Node21 -->
<g id="node22" class="node">
<title>Node21</title>
<g id="a_node22"><a xlink:href="Position_8h.html" target="_top" xlink:title="Position.h">
<polygon fill="none" stroke="#000000" points="458,-336.5 458,-355.5 523,-355.5 523,-336.5 458,-336.5"/>
<text text-anchor="middle" x="490.5" y="-343.5" font-family="FreeSans.ttf" font-size="10.00" fill="#000000">Position.h</text>
</a>
</g>
</g>
<!-- Node20&#45;&gt;Node21 -->
<g id="edge25" class="edge">
<title>Node20&#45;&gt;Node21</title>
<path fill="none" stroke="#191970" d="M895.9744,-392.7213C791.9323,-380.7329 614.5539,-360.2943 533.3639,-350.9391"/>
<polygon fill="#191970" stroke="#191970" points="533.3601,-347.4155 523.0252,-349.7478 532.5588,-354.3695 533.3601,-347.4155"/>
</g>
<!-- Node23 -->
<g id="node24" class="node">
<title>Node23</title>
<g id="a_node24"><a xlink:href="Rotation_8h.html" target="_top" xlink:title="iDynTree/Core/Rotation.h">
<polygon fill="none" stroke="#000000" points="540,-280.5 540,-299.5 677,-299.5 677,-280.5 540,-280.5"/>
<text text-anchor="middle" x="608.5" y="-287.5" font-family="FreeSans.ttf" font-size="10.00" fill="#000000">iDynTree/Core/Rotation.h</text>
</a>
</g>
</g>
<!-- Node20&#45;&gt;Node23 -->
<g id="edge48" class="edge">
<title>Node20&#45;&gt;Node23</title>
<path fill="none" stroke="#191970" d="M899.0594,-392.464C852.0684,-385.3357 791.3593,-373.7169 739.5,-356 700.4372,-342.6548 658.3219,-319.749 632.6806,-304.74"/>
<polygon fill="#191970" stroke="#191970" points="634.4017,-301.6915 624.0154,-299.6 630.8305,-307.712 634.4017,-301.6915"/>
</g>
<!-- Node27 -->
<g id="node28" class="node">
<title>Node27</title>
<polygon fill="none" stroke="#bfbfbf" points="726.5,-112.5 726.5,-131.5 786.5,-131.5 786.5,-112.5 726.5,-112.5"/>
<text text-anchor="middle" x="756.5" y="-119.5" font-family="FreeSans.ttf" font-size="10.00" fill="#000000">iostream</text>
</g>
<!-- Node20&#45;&gt;Node27 -->
<g id="edge51" class="edge">
<title>Node20&#45;&gt;Node27</title>
<path fill="none" stroke="#191970" d="M966.3378,-392.2484C941.7191,-368.3411 877.5946,-304.3552 832.5,-244 808.8678,-212.3704 807.5094,-201.4293 786.5,-168 780.7497,-158.8503 774.2104,-148.7854 768.7081,-140.4093"/>
<polygon fill="#191970" stroke="#191970" points="771.4623,-138.2283 763.0337,-131.8088 765.6194,-142.0833 771.4623,-138.2283"/>
</g>
<!-- Node21&#45;&gt;Node16 -->
<g id="edge47" class="edge">
<title>Node21&#45;&gt;Node16</title>
<path fill="none" stroke="#191970" d="M457.7295,-338.4571C414.6651,-326.5882 340.7266,-299.0037 308.5,-244 287.3182,-207.8474 323.9525,-162.7341 348.0195,-138.7765"/>
<polygon fill="#191970" stroke="#191970" points="350.5161,-141.2316 355.3027,-131.7797 345.6665,-136.1836 350.5161,-141.2316"/>
</g>
<!-- Node22 -->
<g id="node23" class="node">
<title>Node22</title>
<g id="a_node23"><a xlink:href="PositionRaw_8h.html" target="_top" xlink:title="iDynTree/Core/PositionRaw.h">
<polygon fill="none" stroke="#000000" points="317.5,-224.5 317.5,-243.5 473.5,-243.5 473.5,-224.5 317.5,-224.5"/>
<text text-anchor="middle" x="395.5" y="-231.5" font-family="FreeSans.ttf" font-size="10.00" fill="#000000">iDynTree/Core/PositionRaw.h</text>
</a>
</g>
</g>
<!-- Node21&#45;&gt;Node22 -->
<g id="edge26" class="edge">
<title>Node21&#45;&gt;Node22</title>
<path fill="none" stroke="#191970" d="M482.4004,-336.4509C466.4153,-317.6054 430.6032,-275.3849 410.2944,-251.4419"/>
<polygon fill="#191970" stroke="#191970" points="412.7169,-248.887 403.5791,-243.5249 407.3786,-253.415 412.7169,-248.887"/>
</g>
<!-- Node21&#45;&gt;Node23 -->
<g id="edge29" class="edge">
<title>Node21&#45;&gt;Node23</title>
<path fill="none" stroke="#191970" d="M510.7849,-336.3733C529.6421,-327.4241 557.946,-313.9917 579.2455,-303.8835"/>
<polygon fill="#191970" stroke="#191970" points="580.9461,-306.9506 588.4798,-299.5011 577.9449,-300.6266 580.9461,-306.9506"/>
</g>
<!-- Node22&#45;&gt;Node3 -->
<g id="edge27" class="edge">
<title>Node22&#45;&gt;Node3</title>
<path fill="none" stroke="#191970" d="M473.5876,-225.9468C572.5676,-215.7389 742.8821,-198.1742 847.6011,-187.3745"/>
<polygon fill="#191970" stroke="#191970" points="848.251,-190.8261 857.8392,-186.3186 847.5329,-183.863 848.251,-190.8261"/>
</g>
<!-- Node22&#45;&gt;Node16 -->
<g id="edge28" class="edge">
<title>Node22&#45;&gt;Node16</title>
<path fill="none" stroke="#191970" d="M382.169,-224.3825C371.8827,-216.0729 358.4389,-203.0499 352.5,-188 346.4699,-172.7189 351.249,-154.372 356.8035,-140.905"/>
<polygon fill="#191970" stroke="#191970" points="360.0428,-142.2377 361.036,-131.6896 353.6817,-139.3161 360.0428,-142.2377"/>
</g>
<!-- Node23&#45;&gt;Node3 -->
<g id="edge46" class="edge">
<title>Node23&#45;&gt;Node3</title>
<path fill="none" stroke="#191970" d="M636.6356,-280.4509C695.9376,-260.3242 833.7948,-213.5363 900.7113,-190.8253"/>
<polygon fill="#191970" stroke="#191970" points="902.091,-194.0532 910.4356,-187.5249 899.8412,-187.4245 902.091,-194.0532"/>
</g>
<!-- Node23&#45;&gt;Node16 -->
<g id="edge30" class="edge">
<title>Node23&#45;&gt;Node16</title>
<path fill="none" stroke="#191970" d="M589.9508,-280.3231C572.1361,-271.0248 544.4684,-256.5719 520.5,-244 503.5986,-235.1349 499.94,-231.7519 482.5,-224 440.0986,-205.1531 415.8735,-222.1876 384.5,-188 373.0944,-175.5714 368.8041,-156.6181 367.2445,-142.2058"/>
<polygon fill="#191970" stroke="#191970" points="370.7067,-141.5542 366.4955,-131.8322 363.7248,-142.0584 370.7067,-141.5542"/>
</g>
<!-- Node23&#45;&gt;Node19 -->
<g id="edge31" class="edge">
<title>Node23&#45;&gt;Node19</title>
<path fill="none" stroke="#191970" d="M665.0248,-280.4369C722.744,-270.6717 812.2971,-255.5207 873.2966,-245.2006"/>
<polygon fill="#191970" stroke="#191970" points="873.9323,-248.6429 883.2083,-243.5237 872.7645,-241.7409 873.9323,-248.6429"/>
</g>
<!-- Node24 -->
<g id="node25" class="node">
<title>Node24</title>
<g id="a_node25"><a xlink:href="RotationRaw_8h.html" target="_top" xlink:title="iDynTree/Core/RotationRaw.h">
<polygon fill="none" stroke="#000000" points="529.5,-224.5 529.5,-243.5 687.5,-243.5 687.5,-224.5 529.5,-224.5"/>
<text text-anchor="middle" x="608.5" y="-231.5" font-family="FreeSans.ttf" font-size="10.00" fill="#000000">iDynTree/Core/RotationRaw.h</text>
</a>
</g>
</g>
<!-- Node23&#45;&gt;Node24 -->
<g id="edge32" class="edge">
<title>Node23&#45;&gt;Node24</title>
<path fill="none" stroke="#191970" d="M608.5,-280.2455C608.5,-272.9382 608.5,-262.6944 608.5,-253.7046"/>
<polygon fill="#191970" stroke="#191970" points="612.0001,-253.6426 608.5,-243.6427 605.0001,-253.6427 612.0001,-253.6426"/>
</g>
<!-- Node24&#45;&gt;Node16 -->
<g id="edge45" class="edge">
<title>Node24&#45;&gt;Node16</title>
<path fill="none" stroke="#191970" d="M605.5142,-224.221C600.5277,-209.6084 589.0733,-182.2701 569.5,-168 542.5116,-148.3239 448.6555,-133.0789 398.5705,-126.1249"/>
<polygon fill="#191970" stroke="#191970" points="398.9673,-122.6467 388.5871,-124.7682 398.0247,-129.583 398.9673,-122.6467"/>
</g>
<!-- Node25 -->
<g id="node26" class="node">
<title>Node25</title>
<g id="a_node26"><a xlink:href="MatrixFixSize_8h.html" target="_top" xlink:title="iDynTree/Core/MatrixFixSize.h">
<polygon fill="none" stroke="#000000" points="617,-168.5 617,-187.5 778,-187.5 778,-168.5 617,-168.5"/>
<text text-anchor="middle" x="697.5" y="-175.5" font-family="FreeSans.ttf" font-size="10.00" fill="#000000">iDynTree/Core/MatrixFixSize.h</text>
</a>
</g>
</g>
<!-- Node24&#45;&gt;Node25 -->
<g id="edge33" class="edge">
<title>Node24&#45;&gt;Node25</title>
<path fill="none" stroke="#191970" d="M624.0026,-224.2455C637.658,-215.6534 657.7657,-203.0014 673.4989,-193.1018"/>
<polygon fill="#191970" stroke="#191970" points="675.5751,-195.9307 682.175,-187.6427 671.8471,-190.006 675.5751,-195.9307"/>
</g>
<!-- Node25&#45;&gt;Node4 -->
<g id="edge34" class="edge">
<title>Node25&#45;&gt;Node4</title>
<path fill="none" stroke="#191970" d="M697.3523,-168.1423C697.7165,-153.4269 700.7651,-125.9562 717.5,-112 742.5168,-91.1371 941.901,-76.4019 1050.5257,-69.8354"/>
<polygon fill="#191970" stroke="#191970" points="1050.9718,-73.3151 1060.7455,-69.2255 1050.5548,-66.3276 1050.9718,-73.3151"/>
</g>
<!-- Node25&#45;&gt;Node8 -->
<g id="edge40" class="edge">
<title>Node25&#45;&gt;Node8</title>
<path fill="none" stroke="#191970" d="M695.9491,-168.1633C694.2891,-154.8667 692.8313,-130.6742 700.5,-112 715.441,-75.617 749.3164,-43.7772 771.5275,-25.728"/>
<polygon fill="#191970" stroke="#191970" points="773.7278,-28.4502 779.4052,-19.5049 769.3887,-22.9573 773.7278,-28.4502"/>
</g>
<!-- Node25&#45;&gt;Node16 -->
<g id="edge42" class="edge">
<title>Node25&#45;&gt;Node16</title>
<path fill="none" stroke="#191970" d="M640.9752,-168.4369C571.2426,-156.6392 455.0456,-136.9805 398.8702,-127.4765"/>
<polygon fill="#191970" stroke="#191970" points="399.2291,-123.9876 388.7853,-125.7703 398.0613,-130.8895 399.2291,-123.9876"/>
</g>
<!-- Node25&#45;&gt;Node17 -->
<g id="edge44" class="edge">
<title>Node25&#45;&gt;Node17</title>
<path fill="none" stroke="#191970" d="M738.6555,-168.4369C784.0548,-157.8877 856.5034,-141.0532 900.5703,-130.8135"/>
<polygon fill="#191970" stroke="#191970" points="901.3769,-134.2194 910.3252,-128.5468 899.7925,-127.4011 901.3769,-134.2194"/>
</g>
<!-- Node25&#45;&gt;Node18 -->
<g id="edge41" class="edge">
<title>Node25&#45;&gt;Node18</title>
<path fill="none" stroke="#191970" d="M720.1916,-168.3733C741.5711,-159.3032 773.8057,-145.6279 797.7362,-135.4755"/>
<polygon fill="#191970" stroke="#191970" points="799.2656,-138.6287 807.1045,-131.5011 796.5317,-132.1846 799.2656,-138.6287"/>
</g>
<!-- Node26 -->
<g id="node27" class="node">
<title>Node26</title>
<g id="a_node27"><a xlink:href="MatrixView_8h.html" target="_top" xlink:title="iDynTree/Core/MatrixView.h">
<polygon fill="none" stroke="#000000" points="469,-112.5 469,-131.5 620,-131.5 620,-112.5 469,-112.5"/>
<text text-anchor="middle" x="544.5" y="-119.5" font-family="FreeSans.ttf" font-size="10.00" fill="#000000">iDynTree/Core/MatrixView.h</text>
</a>
</g>
</g>
<!-- Node25&#45;&gt;Node26 -->
<g id="edge35" class="edge">
<title>Node25&#45;&gt;Node26</title>
<path fill="none" stroke="#191970" d="M671.1984,-168.3733C646.0872,-159.1822 608.0562,-145.2624 580.2128,-135.0713"/>
<polygon fill="#191970" stroke="#191970" points="581.0522,-131.6516 570.4584,-131.5011 578.6462,-138.2251 581.0522,-131.6516"/>
</g>
<!-- Node25&#45;&gt;Node27 -->
<g id="edge43" class="edge">
<title>Node25&#45;&gt;Node27</title>
<path fill="none" stroke="#191970" d="M707.777,-168.2455C716.3218,-160.1352 728.6778,-148.4075 738.8085,-138.7919"/>
<polygon fill="#191970" stroke="#191970" points="741.4972,-141.0655 746.3408,-131.6427 736.6782,-135.9884 741.4972,-141.0655"/>
</g>
<!-- Node26&#45;&gt;Node4 -->
<g id="edge39" class="edge">
<title>Node26&#45;&gt;Node4</title>
<path fill="none" stroke="#191970" d="M620.0979,-114.6502C732.4555,-103.7265 941.9284,-83.3611 1050.7823,-72.7781"/>
<polygon fill="#191970" stroke="#191970" points="1051.3815,-76.2365 1060.9958,-71.7851 1050.704,-69.2693 1051.3815,-76.2365"/>
</g>
<!-- Node26&#45;&gt;Node7 -->
<g id="edge38" class="edge">
<title>Node26&#45;&gt;Node7</title>
<path fill="none" stroke="#191970" d="M542.5839,-112.2455C541.1486,-104.9382 539.1364,-94.6944 537.3705,-85.7046"/>
<polygon fill="#191970" stroke="#191970" points="540.756,-84.7805 535.3941,-75.6427 533.8873,-86.1298 540.756,-84.7805"/>
</g>
<!-- Node26&#45;&gt;Node8 -->
<g id="edge36" class="edge">
<title>Node26&#45;&gt;Node8</title>
<path fill="none" stroke="#191970" d="M557.0484,-112.2767C575.6754,-98.2262 612.1465,-72.163 646.5,-56 656.642,-51.2283 716.8213,-32.7689 756.6846,-20.7344"/>
<polygon fill="#191970" stroke="#191970" points="757.7738,-24.0617 766.3388,-17.8254 755.7542,-17.3594 757.7738,-24.0617"/>
</g>
<!-- Node26&#45;&gt;Node14 -->
<g id="edge37" class="edge">
<title>Node26&#45;&gt;Node14</title>
<path fill="none" stroke="#191970" d="M522.8441,-112.4509C477.7619,-92.5722 373.6967,-46.6852 321.5142,-23.6756"/>
<polygon fill="#191970" stroke="#191970" points="322.6632,-20.3571 312.1011,-19.5249 319.8389,-26.7621 322.6632,-20.3571"/>
</g>
<!-- Node29 -->
<g id="node30" class="node">
<title>Node29</title>
<g id="a_node30"><a xlink:href="SpatialForceVector_8h.html" target="_top" xlink:title="iDynTree/Core/SpatialForce\lVector.h">
<polygon fill="none" stroke="#000000" points="1051.5,-448.5 1051.5,-478.5 1199.5,-478.5 1199.5,-448.5 1051.5,-448.5"/>
<text text-anchor="start" x="1059.5" y="-466.5" font-family="FreeSans.ttf" font-size="10.00" fill="#000000">iDynTree/Core/SpatialForce</text>
<text text-anchor="middle" x="1125.5" y="-455.5" font-family="FreeSans.ttf" font-size="10.00" fill="#000000">Vector.h</text>
</a>
</g>
</g>
<!-- Node28&#45;&gt;Node29 -->
<g id="edge54" class="edge">
<title>Node28&#45;&gt;Node29</title>
<path fill="none" stroke="#191970" d="M1139,-515.3906C1137.1153,-508.1463 1134.4412,-497.8679 1131.9696,-488.3676"/>
<polygon fill="#191970" stroke="#191970" points="1135.3192,-487.3412 1129.414,-478.5446 1128.5447,-489.1037 1135.3192,-487.3412"/>
</g>
<!-- Node29&#45;&gt;Node3 -->
<g id="edge55" class="edge">
<title>Node29&#45;&gt;Node3</title>
<path fill="none" stroke="#191970" d="M1126.3092,-448.4811C1127.6958,-406.789 1125.6651,-288.4595 1063.5,-224 1047.8395,-207.7615 1025.9616,-197.2192 1004.8793,-190.3897"/>
<polygon fill="#191970" stroke="#191970" points="1005.8581,-187.0293 995.274,-187.506 1003.8453,-193.7337 1005.8581,-187.0293"/>
</g>
<!-- Node29&#45;&gt;Node19 -->
<g id="edge56" class="edge">
<title>Node29&#45;&gt;Node19</title>
<path fill="none" stroke="#191970" d="M1122.0863,-448.382C1118.2125,-433.272 1110.9084,-409.7897 1099.5,-392 1060.6156,-331.3656 994.6664,-276.0579 960.8658,-249.8967"/>
<polygon fill="#191970" stroke="#191970" points="962.689,-246.8852 952.6168,-243.5986 958.441,-252.449 962.689,-246.8852"/>
</g>
<!-- Node29&#45;&gt;Node20 -->
<g id="edge57" class="edge">
<title>Node29&#45;&gt;Node20</title>
<path fill="none" stroke="#191970" d="M1089.0505,-448.4554C1064.6256,-438.374 1032.7419,-425.2139 1009.1479,-415.4755"/>
<polygon fill="#191970" stroke="#191970" points="1010.1687,-412.1104 999.5897,-411.5303 1007.4979,-418.5809 1010.1687,-412.1104"/>
</g>
<!-- Node30&#45;&gt;Node2 -->
<g id="edge59" class="edge">
<title>Node30&#45;&gt;Node2</title>
<path fill="none" stroke="#191970" d="M870.2545,-571.3845C869.799,-553.544 868.8094,-514.7839 868.1489,-488.9138"/>
<polygon fill="#191970" stroke="#191970" points="871.6426,-488.6217 867.8885,-478.7143 864.6449,-488.8004 871.6426,-488.6217"/>
</g>
<!-- Node31&#45;&gt;Node29 -->
<g id="edge61" class="edge">
<title>Node31&#45;&gt;Node29</title>
<path fill="none" stroke="#191970" d="M1265.1399,-571.0676C1255.913,-557.2253 1237.6947,-531.9303 1217.5,-515 1202.8427,-502.712 1184.8232,-491.8751 1168.6281,-483.3519"/>
<polygon fill="#191970" stroke="#191970" points="1169.8402,-480.0409 1159.3428,-478.6075 1166.6552,-486.2743 1169.8402,-480.0409"/>
</g>
<!-- Node33 -->
<g id="node34" class="node">
<title>Node33</title>
<polygon fill="none" stroke="#bfbfbf" points="1294,-454 1294,-473 1371,-473 1371,-454 1294,-454"/>
<text text-anchor="middle" x="1332.5" y="-461" font-family="FreeSans.ttf" font-size="10.00" fill="#000000">Eigen/Dense</text>
</g>
<!-- Node32&#45;&gt;Node33 -->
<g id="edge63" class="edge">
<title>Node32&#45;&gt;Node33</title>
<path fill="none" stroke="#191970" d="M1093.4666,-571.4983C1129.5024,-564.0887 1177.4491,-552.1495 1217.5,-535 1252.4501,-520.0346 1289.1355,-495.4439 1311.4164,-479.361"/>
<polygon fill="#191970" stroke="#191970" points="1313.7654,-481.9788 1319.7634,-473.2453 1309.6282,-476.3323 1313.7654,-481.9788"/>
</g>
<!-- Node34 -->
<g id="node35" class="node">
<title>Node34</title>
<g id="a_node35"><a xlink:href="EigenHelpers_8h.html" target="_top" xlink:title="iDynTree/Core/EigenHelpers.h">
<polygon fill="none" stroke="#000000" points="896,-515.5 896,-534.5 1057,-534.5 1057,-515.5 896,-515.5"/>
<text text-anchor="middle" x="976.5" y="-522.5" font-family="FreeSans.ttf" font-size="10.00" fill="#000000">iDynTree/Core/EigenHelpers.h</text>
</a>
</g>
</g>
<!-- Node32&#45;&gt;Node34 -->
<g id="edge64" class="edge">
<title>Node32&#45;&gt;Node34</title>
<path fill="none" stroke="#191970" d="M1028.5262,-571.2455C1019.3118,-563.0549 1005.9468,-551.1749 995.0703,-541.5069"/>
<polygon fill="#191970" stroke="#191970" points="997.1474,-538.6704 987.348,-534.6427 992.4968,-543.9023 997.1474,-538.6704"/>
</g>
<!-- Node34&#45;&gt;Node2 -->
<g id="edge75" class="edge">
<title>Node34&#45;&gt;Node2</title>
<path fill="none" stroke="#191970" d="M959.4688,-515.3906C944.4437,-506.9132 922.0548,-494.2809 903.1294,-483.6028"/>
<polygon fill="#191970" stroke="#191970" points="904.5937,-480.4104 894.1644,-478.5446 901.1538,-486.5069 904.5937,-480.4104"/>
</g>
<!-- Node34&#45;&gt;Node3 -->
<g id="edge70" class="edge">
<title>Node34&#45;&gt;Node3</title>
<path fill="none" stroke="#191970" d="M984.9708,-515.1474C1006.5581,-489.9328 1062.2378,-424.1927 1066.5,-412 1069.4332,-403.609 1067.4365,-400.8394 1066.5,-392 1058.4552,-316.0632 1077.2656,-284.3663 1030.5,-224 1018.8896,-209.0129 1001.0868,-198.5452 984.2245,-191.4259"/>
<polygon fill="#191970" stroke="#191970" points="985.0469,-187.9897 974.4588,-187.6123 982.5005,-194.5102 985.0469,-187.9897"/>
</g>
<!-- Node34&#45;&gt;Node4 -->
<g id="edge82" class="edge">
<title>Node34&#45;&gt;Node4</title>
<path fill="none" stroke="#191970" d="M1043.9628,-515.4846C1120.3484,-504.3864 1235.1117,-486.5927 1241.5,-479 1250.3702,-468.4574 1242.7711,-461.719 1241.5,-448 1232.573,-351.6544 1201.5,-330.7583 1201.5,-234 1201.5,-234 1201.5,-234 1201.5,-178 1201.5,-137.4297 1166.1719,-101.5972 1142.1782,-81.9394"/>
<polygon fill="#191970" stroke="#191970" points="1144.26,-79.1237 1134.2405,-75.6795 1139.9253,-84.6202 1144.26,-79.1237"/>
</g>
<!-- Node34&#45;&gt;Node5 -->
<g id="edge65" class="edge">
<title>Node34&#45;&gt;Node5</title>
<path fill="none" stroke="#191970" d="M1045.4823,-515.4684C1109.7483,-505.9315 1197.3162,-490.9939 1208.5,-479 1283.3517,-398.7264 1239.5,-343.7571 1239.5,-234 1239.5,-234 1239.5,-234 1239.5,-122 1239.5,-85.1996 1219.7584,-76.9452 1189.5,-56 1184.495,-52.5355 1115.0896,-32.6411 1070.8682,-20.1763"/>
<polygon fill="#191970" stroke="#191970" points="1071.6093,-16.749 1061.0351,-17.41 1069.7136,-23.4874 1071.6093,-16.749"/>
</g>
<!-- Node34&#45;&gt;Node25 -->
<g id="edge74" class="edge">
<title>Node34&#45;&gt;Node25</title>
<path fill="none" stroke="#191970" d="M917.9154,-515.4411C868.8516,-506.6792 803.2937,-492.9785 780.5,-479 742.322,-455.5869 715.5,-446.7854 715.5,-402 715.5,-402 715.5,-402 715.5,-290 715.5,-257.1472 707.8569,-219.5528 702.5316,-197.3462"/>
<polygon fill="#191970" stroke="#191970" points="705.8935,-196.3622 700.079,-187.5055 699.1013,-198.0551 705.8935,-196.3622"/>
</g>
<!-- Node34&#45;&gt;Node29 -->
<g id="edge76" class="edge">
<title>Node34&#45;&gt;Node29</title>
<path fill="none" stroke="#191970" d="M999.7813,-515.3906C1021.0669,-506.6049 1053.1642,-493.3567 1079.5984,-482.446"/>
<polygon fill="#191970" stroke="#191970" points="1081.1423,-485.5952 1089.0505,-478.5446 1078.4716,-479.1247 1081.1423,-485.5952"/>
</g>
<!-- Node34&#45;&gt;Node33 -->
<g id="edge66" class="edge">
<title>Node34&#45;&gt;Node33</title>
<path fill="none" stroke="#191970" d="M1057.1036,-515.7473C1118.4694,-507.984 1204.8186,-495.5115 1279.5,-479 1283.7123,-478.0687 1288.0814,-476.9859 1292.422,-475.8335"/>
<polygon fill="#191970" stroke="#191970" points="1293.7135,-479.1073 1302.4111,-473.0573 1291.839,-472.363 1293.7135,-479.1073"/>
</g>
<!-- Node35 -->
<g id="node36" class="node">
<title>Node35</title>
<g id="a_node36"><a xlink:href="VectorDynSize_8h.html" target="_top" xlink:title="iDynTree/Core/VectorDynSize.h">
<polygon fill="none" stroke="#000000" points="0,-168.5 0,-187.5 167,-187.5 167,-168.5 0,-168.5"/>
<text text-anchor="middle" x="83.5" y="-175.5" font-family="FreeSans.ttf" font-size="10.00" fill="#000000">iDynTree/Core/VectorDynSize.h</text>
</a>
</g>
</g>
<!-- Node34&#45;&gt;Node35 -->
<g id="edge67" class="edge">
<title>Node34&#45;&gt;Node35</title>
<path fill="none" stroke="#191970" d="M895.7915,-518.7841C879.1618,-517.5188 861.7639,-516.2063 845.5,-515 623.3128,-498.5209 563.8509,-523.2902 345.5,-479 241.5035,-457.9054 119.5,-508.1143 119.5,-402 119.5,-402 119.5,-402 119.5,-290 119.5,-255.7942 104.0926,-218.4094 93.4369,-196.6445"/>
<polygon fill="#191970" stroke="#191970" points="96.4659,-194.8795 88.8119,-187.5538 90.227,-198.0537 96.4659,-194.8795"/>
</g>
<!-- Node36 -->
<g id="node37" class="node">
<title>Node36</title>
<g id="a_node37"><a xlink:href="MatrixDynSize_8h.html" target="_top" xlink:title="iDynTree/Core/MatrixDynSize.h">
<polygon fill="none" stroke="#000000" points="394,-168.5 394,-187.5 561,-187.5 561,-168.5 394,-168.5"/>
<text text-anchor="middle" x="477.5" y="-175.5" font-family="FreeSans.ttf" font-size="10.00" fill="#000000">iDynTree/Core/MatrixDynSize.h</text>
</a>
</g>
</g>
<!-- Node34&#45;&gt;Node36 -->
<g id="edge71" class="edge">
<title>Node34&#45;&gt;Node36</title>
<path fill="none" stroke="#191970" d="M895.6591,-516.787C692.2785,-495.5874 175.5,-438.1624 175.5,-402 175.5,-402 175.5,-402 175.5,-346 175.5,-247.5456 299.5897,-206.2816 388.6837,-189.343"/>
<polygon fill="#191970" stroke="#191970" points="389.3405,-192.781 398.5475,-187.5389 388.081,-185.8953 389.3405,-192.781"/>
</g>
<!-- Node37 -->
<g id="node38" class="node">
<title>Node37</title>
<g id="a_node38"><a xlink:href="Transform_8h.html" target="_top" xlink:title="iDynTree/Core/Transform.h">
<polygon fill="none" stroke="#000000" points="417.5,-392.5 417.5,-411.5 563.5,-411.5 563.5,-392.5 417.5,-392.5"/>
<text text-anchor="middle" x="490.5" y="-399.5" font-family="FreeSans.ttf" font-size="10.00" fill="#000000">iDynTree/Core/Transform.h</text>
</a>
</g>
</g>
<!-- Node34&#45;&gt;Node37 -->
<g id="edge77" class="edge">
<title>Node34&#45;&gt;Node37</title>
<path fill="none" stroke="#191970" d="M895.9506,-515.5057C840.6871,-508.0255 765.9758,-496.0019 701.5,-479 636.1865,-461.7772 562.6571,-432.6084 521.9326,-415.5449"/>
<polygon fill="#191970" stroke="#191970" points="523.1251,-412.2492 512.5512,-411.5844 520.4027,-418.6981 523.1251,-412.2492"/>
</g>
<!-- Node35&#45;&gt;Node7 -->
<g id="edge68" class="edge">
<title>Node35&#45;&gt;Node7</title>
<path fill="none" stroke="#191970" d="M118.8937,-168.3975C167.5824,-155.2641 258.0069,-131.1457 335.5,-112 384.7707,-99.827 441.1694,-86.814 481.1386,-77.7464"/>
<polygon fill="#191970" stroke="#191970" points="481.9517,-81.1509 490.9319,-75.5289 480.4059,-74.3237 481.9517,-81.1509"/>
</g>
<!-- Node35&#45;&gt;Node16 -->
<g id="edge69" class="edge">
<title>Node35&#45;&gt;Node16</title>
<path fill="none" stroke="#191970" d="M131.8279,-168.4369C189.7498,-156.9753 285.1672,-138.0941 334.5967,-128.313"/>
<polygon fill="#191970" stroke="#191970" points="335.286,-131.7446 344.4164,-126.3699 333.9272,-124.8777 335.286,-131.7446"/>
</g>
<!-- Node36&#45;&gt;Node16 -->
<g id="edge72" class="edge">
<title>Node36&#45;&gt;Node16</title>
<path fill="none" stroke="#191970" d="M458.4184,-168.3733C440.7598,-159.4644 414.2947,-146.1127 394.2902,-136.0203"/>
<polygon fill="#191970" stroke="#191970" points="395.8372,-132.8806 385.3326,-131.5011 392.6842,-139.1303 395.8372,-132.8806"/>
</g>
<!-- Node36&#45;&gt;Node26 -->
<g id="edge73" class="edge">
<title>Node36&#45;&gt;Node26</title>
<path fill="none" stroke="#191970" d="M489.1705,-168.2455C499.0661,-159.9746 513.4627,-147.9416 525.0901,-138.2232"/>
<polygon fill="#191970" stroke="#191970" points="527.535,-140.7413 532.9632,-131.6427 523.0458,-135.3703 527.535,-140.7413"/>
</g>
<!-- Node37&#45;&gt;Node16 -->
<g id="edge81" class="edge">
<title>Node37&#45;&gt;Node16</title>
<path fill="none" stroke="#191970" d="M438.5507,-392.4036C390.6028,-380.3053 323.0806,-354.1407 297.5,-300 272.3658,-246.8041 275.4158,-217.3167 307.5,-168 315.6841,-155.4202 328.4999,-144.8252 340.099,-136.9859"/>
<polygon fill="#191970" stroke="#191970" points="342.0862,-139.8698 348.6349,-131.5412 338.3218,-133.9682 342.0862,-139.8698"/>
</g>
<!-- Node37&#45;&gt;Node21 -->
<g id="edge78" class="edge">
<title>Node37&#45;&gt;Node21</title>
<path fill="none" stroke="#191970" d="M490.5,-392.2455C490.5,-384.9382 490.5,-374.6944 490.5,-365.7046"/>
<polygon fill="#191970" stroke="#191970" points="494.0001,-365.6426 490.5,-355.6427 487.0001,-365.6427 494.0001,-365.6426"/>
</g>
<!-- Node37&#45;&gt;Node23 -->
<g id="edge79" class="edge">
<title>Node37&#45;&gt;Node23</title>
<path fill="none" stroke="#191970" d="M500.5606,-392.4509C520.677,-373.3574 566.073,-330.2697 591.1094,-306.5063"/>
<polygon fill="#191970" stroke="#191970" points="593.6213,-308.9478 598.4649,-299.5249 588.8023,-303.8706 593.6213,-308.9478"/>
</g>
<!-- Node37&#45;&gt;Node25 -->
<g id="edge80" class="edge">
<title>Node37&#45;&gt;Node25</title>
<path fill="none" stroke="#191970" d="M466.3694,-392.4487C404.2307,-366.5591 247.7256,-292.3846 308.5,-224 318.3294,-212.9398 494.6364,-195.6533 606.4854,-185.721"/>
<polygon fill="#191970" stroke="#191970" points="607.1121,-189.1793 616.7652,-184.8127 606.4959,-182.2065 607.1121,-189.1793"/>
</g>
</g>
</svg>
