<?xml version="1.0" encoding="UTF-8" standalone="no"?>
<!DOCTYPE svg PUBLIC "-//W3C//DTD SVG 1.1//EN"
 "http://www.w3.org/Graphics/SVG/1.1/DTD/svg11.dtd">
<!-- Generated by graphviz version 2.40.1 (20161225.0304)
 -->
<!-- Title: urdf2dh.cpp Pages: 1 -->
<svg width="2862pt" height="632pt"
 viewBox="0.00 0.00 2862.46 632.00" xmlns="http://www.w3.org/2000/svg" xmlns:xlink="http://www.w3.org/1999/xlink">
<g id="graph0" class="graph" transform="scale(1 1) rotate(0) translate(4 628)">
<title>urdf2dh.cpp</title>
<!-- Node0 -->
<g id="node1" class="node">
<title>Node0</title>
<polygon fill="#bfbfbf" stroke="#000000" points="1693,-604.5 1693,-623.5 1767,-623.5 1767,-604.5 1693,-604.5"/>
<text text-anchor="middle" x="1730" y="-611.5" font-family="FreeSans.ttf" font-size="10.00" fill="#000000">urdf2dh.cpp</text>
</g>
<!-- Node1 -->
<g id="node2" class="node">
<title>Node1</title>
<polygon fill="none" stroke="#bfbfbf" points="367,-112.5 367,-131.5 427,-131.5 427,-112.5 367,-112.5"/>
<text text-anchor="middle" x="397" y="-119.5" font-family="FreeSans.ttf" font-size="10.00" fill="#000000">iostream</text>
</g>
<!-- Node0&#45;&gt;Node1 -->
<g id="edge1" class="edge">
<title>Node0&#45;&gt;Node1</title>
<path fill="none" stroke="#191970" d="M1692.6629,-613.4788C1440.8037,-609.7256 0,-584.4128 0,-496.5 0,-496.5 0,-496.5 0,-301 0,-223.2449 256.2832,-154.8828 357.0225,-131.0147"/>
<polygon fill="#191970" stroke="#191970" points="357.8975,-134.4045 366.8346,-128.7144 356.2997,-127.5893 357.8975,-134.4045"/>
</g>
<!-- Node2 -->
<g id="node3" class="node">
<title>Node2</title>
<polygon fill="none" stroke="#bfbfbf" points="2150.5,-548.5 2150.5,-567.5 2205.5,-567.5 2205.5,-548.5 2150.5,-548.5"/>
<text text-anchor="middle" x="2178" y="-555.5" font-family="FreeSans.ttf" font-size="10.00" fill="#000000">fstream</text>
</g>
<!-- Node0&#45;&gt;Node2 -->
<g id="edge2" class="edge">
<title>Node0&#45;&gt;Node2</title>
<path fill="none" stroke="#191970" d="M1767.1242,-611.7493C1837.9131,-607.0482 1997.1441,-594.5067 2140.3785,-567.8539"/>
<polygon fill="#191970" stroke="#191970" points="2141.0484,-571.2894 2150.2252,-565.9943 2139.7493,-564.411 2141.0484,-571.2894"/>
</g>
<!-- Node3 -->
<g id="node4" class="node">
<title>Node3</title>
<g id="a_node4"><a xlink:href="TestUtils_8h.html" target="_top" xlink:title="iDynTree/Core/TestUtils.h">
<polygon fill="none" stroke="#000000" points="536.5,-353 536.5,-372 675.5,-372 675.5,-353 536.5,-353"/>
<text text-anchor="middle" x="606" y="-360" font-family="FreeSans.ttf" font-size="10.00" fill="#000000">iDynTree/Core/TestUtils.h</text>
</a>
</g>
</g>
<!-- Node0&#45;&gt;Node3 -->
<g id="edge3" class="edge">
<title>Node0&#45;&gt;Node3</title>
<path fill="none" stroke="#191970" d="M1692.877,-607.4861C1575.5948,-586.6878 1202.7508,-518.8925 898,-445 807.4454,-423.0434 702.6268,-392.043 646.4855,-374.9782"/>
<polygon fill="#191970" stroke="#191970" points="647.4992,-371.6283 636.9131,-372.0601 645.4579,-378.3241 647.4992,-371.6283"/>
</g>
<!-- Node23 -->
<g id="node18" class="node">
<title>Node23</title>
<g id="a_node18"><a xlink:href="DenavitHartenberg_8h.html" target="_top" xlink:title="iDynTree/Model/DenavitHartenberg.h">
<polygon fill="none" stroke="#000000" points="1589.5,-487 1589.5,-506 1786.5,-506 1786.5,-487 1589.5,-487"/>
<text text-anchor="middle" x="1688" y="-494" font-family="FreeSans.ttf" font-size="10.00" fill="#000000">iDynTree/Model/DenavitHartenberg.h</text>
</a>
</g>
</g>
<!-- Node0&#45;&gt;Node23 -->
<g id="edge23" class="edge">
<title>Node0&#45;&gt;Node23</title>
<path fill="none" stroke="#191970" d="M1726.563,-604.3845C1719.6717,-585.1053 1704.048,-541.3963 1694.9431,-515.9241"/>
<polygon fill="#191970" stroke="#191970" points="1698.1463,-514.4868 1691.4845,-506.2484 1691.5547,-516.843 1698.1463,-514.4868"/>
</g>
<!-- Node50 -->
<g id="node30" class="node">
<title>Node50</title>
<g id="a_node30"><a xlink:href="ModelTestUtils_8h.html" target="_top" xlink:title="iDynTree/Model/ModelTest\lUtils.h">
<polygon fill="none" stroke="#000000" points="1426.5,-481.5 1426.5,-511.5 1569.5,-511.5 1569.5,-481.5 1426.5,-481.5"/>
<text text-anchor="start" x="1434.5" y="-499.5" font-family="FreeSans.ttf" font-size="10.00" fill="#000000">iDynTree/Model/ModelTest</text>
<text text-anchor="middle" x="1498" y="-488.5" font-family="FreeSans.ttf" font-size="10.00" fill="#000000">Utils.h</text>
</a>
</g>
</g>
<!-- Node0&#45;&gt;Node50 -->
<g id="edge63" class="edge">
<title>Node0&#45;&gt;Node50</title>
<path fill="none" stroke="#191970" d="M1711.0145,-604.3845C1673.0138,-585.1384 1586.9432,-541.5467 1536.6123,-516.0558"/>
<polygon fill="#191970" stroke="#191970" points="1538.1524,-512.9126 1527.65,-511.5167 1534.9897,-519.1573 1538.1524,-512.9126"/>
</g>
<!-- Node61 -->
<g id="node43" class="node">
<title>Node61</title>
<g id="a_node43"><a xlink:href="ModelLoader_8h.html" target="_top" xlink:title="iDynTree/ModelIO/ModelLoader.h">
<polygon fill="none" stroke="#000000" points="1956,-548.5 1956,-567.5 2132,-567.5 2132,-548.5 1956,-548.5"/>
<text text-anchor="middle" x="2044" y="-555.5" font-family="FreeSans.ttf" font-size="10.00" fill="#000000">iDynTree/ModelIO/ModelLoader.h</text>
</a>
</g>
</g>
<!-- Node0&#45;&gt;Node61 -->
<g id="edge105" class="edge">
<title>Node0&#45;&gt;Node61</title>
<path fill="none" stroke="#191970" d="M1767.253,-607.3562C1819.836,-597.9783 1916.5411,-580.7315 1980.5649,-569.3133"/>
<polygon fill="#191970" stroke="#191970" points="1981.3179,-572.7343 1990.548,-567.5328 1980.0888,-565.843 1981.3179,-572.7343"/>
</g>
<!-- Node64 -->
<g id="node46" class="node">
<title>Node64</title>
<g id="a_node46"><a xlink:href="KinDynComputations_8h.html" target="_top" xlink:title="iDynTree/KinDynComputations.h">
<polygon fill="none" stroke="#000000" points="312.5,-420 312.5,-439 487.5,-439 487.5,-420 312.5,-420"/>
<text text-anchor="middle" x="400" y="-427" font-family="FreeSans.ttf" font-size="10.00" fill="#000000">iDynTree/KinDynComputations.h</text>
</a>
</g>
</g>
<!-- Node0&#45;&gt;Node64 -->
<g id="edge116" class="edge">
<title>Node0&#45;&gt;Node64</title>
<path fill="none" stroke="#191970" d="M1692.9293,-613.6136C1511.4711,-611.5689 721.4078,-600.8342 617,-568 534.9019,-542.1818 453.533,-476.8409 418.2474,-446.0431"/>
<polygon fill="#191970" stroke="#191970" points="420.4812,-443.3462 410.6729,-439.3402 415.8423,-448.5884 420.4812,-443.3462"/>
</g>
<!-- Node66 -->
<g id="node48" class="node">
<title>Node66</title>
<g id="a_node48"><a xlink:href="iKinConversions_8h.html" target="_top" xlink:title="iDynTree/iKinConversions.h">
<polygon fill="none" stroke="#000000" points="1785,-548.5 1785,-567.5 1935,-567.5 1935,-548.5 1785,-548.5"/>
<text text-anchor="middle" x="1860" y="-555.5" font-family="FreeSans.ttf" font-size="10.00" fill="#000000">iDynTree/iKinConversions.h</text>
</a>
</g>
</g>
<!-- Node0&#45;&gt;Node66 -->
<g id="edge128" class="edge">
<title>Node0&#45;&gt;Node66</title>
<path fill="none" stroke="#191970" d="M1752.3478,-604.3733C1773.4033,-595.3032 1805.1495,-581.6279 1828.7175,-571.4755"/>
<polygon fill="#191970" stroke="#191970" points="1830.1444,-574.6719 1837.9438,-567.5011 1827.375,-568.243 1830.1444,-574.6719"/>
</g>
<!-- Node67 -->
<g id="node49" class="node">
<title>Node67</title>
<polygon fill="none" stroke="#bfbfbf" points="1805,-487 1805,-506 1915,-506 1915,-487 1805,-487"/>
<text text-anchor="middle" x="1860" y="-494" font-family="FreeSans.ttf" font-size="10.00" fill="#000000">iCub/iKin/iKinFwd.h</text>
</g>
<!-- Node0&#45;&gt;Node67 -->
<g id="edge131" class="edge">
<title>Node0&#45;&gt;Node67</title>
<path fill="none" stroke="#191970" d="M1735.1714,-604.1026C1742.7387,-590.3018 1757.9124,-565.0559 1776,-548 1792.0663,-532.8501 1813.2895,-519.8835 1830.383,-510.7509"/>
<polygon fill="#191970" stroke="#191970" points="1832.1262,-513.7896 1839.3956,-506.0821 1828.9064,-507.5741 1832.1262,-513.7896"/>
</g>
<!-- Node68 -->
<g id="node50" class="node">
<title>Node68</title>
<polygon fill="none" stroke="#bfbfbf" points="2224,-548.5 2224,-567.5 2328,-567.5 2328,-548.5 2224,-548.5"/>
<text text-anchor="middle" x="2276" y="-555.5" font-family="FreeSans.ttf" font-size="10.00" fill="#000000">yarp/os/Property.h</text>
</g>
<!-- Node0&#45;&gt;Node68 -->
<g id="edge132" class="edge">
<title>Node0&#45;&gt;Node68</title>
<path fill="none" stroke="#191970" d="M1767.2121,-611.3373C1847.056,-605.4378 2040.9249,-590.1172 2213.7506,-568.0887"/>
<polygon fill="#191970" stroke="#191970" points="2214.3186,-571.5446 2223.7908,-566.7982 2213.4262,-564.6017 2214.3186,-571.5446"/>
</g>
<!-- Node3&#45;&gt;Node1 -->
<g id="edge18" class="edge">
<title>Node3&#45;&gt;Node1</title>
<path fill="none" stroke="#191970" d="M555.5342,-352.975C528.401,-345.5686 496.0792,-332.7529 474,-311 425.2801,-263.0001 406.2535,-179.9292 399.8412,-141.9671"/>
<polygon fill="#191970" stroke="#191970" points="403.2421,-141.0609 398.2372,-131.7227 396.3263,-142.1438 403.2421,-141.0609"/>
</g>
<!-- Node4 -->
<g id="node5" class="node">
<title>Node4</title>
<g id="a_node5"><a xlink:href="MatrixDynSize_8h.html" target="_top" xlink:title="iDynTree/Core/MatrixDynSize.h">
<polygon fill="none" stroke="#000000" points="179.5,-291.5 179.5,-310.5 346.5,-310.5 346.5,-291.5 179.5,-291.5"/>
<text text-anchor="middle" x="263" y="-298.5" font-family="FreeSans.ttf" font-size="10.00" fill="#000000">iDynTree/Core/MatrixDynSize.h</text>
</a>
</g>
</g>
<!-- Node3&#45;&gt;Node4 -->
<g id="edge4" class="edge">
<title>Node3&#45;&gt;Node4</title>
<path fill="none" stroke="#191970" d="M552.7826,-352.9581C491.6076,-341.9894 391.2833,-324.0012 326.1928,-312.3305"/>
<polygon fill="#191970" stroke="#191970" points="326.5208,-308.8336 316.06,-310.5137 325.2853,-315.7237 326.5208,-308.8336"/>
</g>
<!-- Node5 -->
<g id="node6" class="node">
<title>Node5</title>
<polygon fill="none" stroke="#bfbfbf" points="1524,-56.5 1524,-75.5 1568,-75.5 1568,-56.5 1524,-56.5"/>
<text text-anchor="middle" x="1546" y="-63.5" font-family="FreeSans.ttf" font-size="10.00" fill="#000000">string</text>
</g>
<!-- Node3&#45;&gt;Node5 -->
<g id="edge19" class="edge">
<title>Node3&#45;&gt;Node5</title>
<path fill="none" stroke="#191970" d="M616.1664,-352.9072C631.5374,-338.6253 661.8885,-311.2803 690,-291 692.2389,-289.3848 857.9311,-189.8278 860,-188 892.2514,-159.5061 881.9865,-132.1749 920,-112 972.6751,-84.0437 1392.9485,-70.2643 1513.6766,-66.8571"/>
<polygon fill="#191970" stroke="#191970" points="1513.8719,-70.3531 1523.7708,-66.5768 1513.6775,-63.3558 1513.8719,-70.3531"/>
</g>
<!-- Node10 -->
<g id="node10" class="node">
<title>Node10</title>
<polygon fill="none" stroke="#bfbfbf" points="139,-.5 139,-19.5 203,-19.5 203,-.5 139,-.5"/>
<text text-anchor="middle" x="171" y="-7.5" font-family="FreeSans.ttf" font-size="10.00" fill="#000000">algorithm</text>
</g>
<!-- Node3&#45;&gt;Node10 -->
<g id="edge16" class="edge">
<title>Node3&#45;&gt;Node10</title>
<path fill="none" stroke="#191970" d="M571.4177,-352.9958C540.0934,-343.8724 493.0125,-328.8644 454,-311 311.4422,-245.7208 227.8149,-268.121 150,-132 131.2507,-99.2019 148.1507,-53.9243 160.5832,-28.7689"/>
<polygon fill="#191970" stroke="#191970" points="163.8427,-30.0878 165.3626,-19.6026 157.6357,-26.8515 163.8427,-30.0878"/>
</g>
<!-- Node17 -->
<g id="node12" class="node">
<title>Node17</title>
<g id="a_node12"><a xlink:href="Utils_8h.html" target="_top" xlink:title="iDynTree/Core/Utils.h">
<polygon fill="none" stroke="#000000" points="542.5,-56.5 542.5,-75.5 661.5,-75.5 661.5,-56.5 542.5,-56.5"/>
<text text-anchor="middle" x="602" y="-63.5" font-family="FreeSans.ttf" font-size="10.00" fill="#000000">iDynTree/Core/Utils.h</text>
</a>
</g>
</g>
<!-- Node3&#45;&gt;Node17 -->
<g id="edge15" class="edge">
<title>Node3&#45;&gt;Node17</title>
<path fill="none" stroke="#191970" d="M566.9066,-352.9133C545.1997,-345.3745 520.0187,-332.4473 507,-311 494.6483,-290.6517 404.8668,-281.7041 512,-112 521.6315,-96.7433 538.0446,-86.3215 554.2381,-79.312"/>
<polygon fill="#191970" stroke="#191970" points="555.6847,-82.5037 563.6942,-75.5684 553.108,-75.9951 555.6847,-82.5037"/>
</g>
<!-- Node19 -->
<g id="node14" class="node">
<title>Node19</title>
<polygon fill="none" stroke="#bfbfbf" points="516,-291.5 516,-310.5 572,-310.5 572,-291.5 516,-291.5"/>
<text text-anchor="middle" x="544" y="-298.5" font-family="FreeSans.ttf" font-size="10.00" fill="#000000">iomanip</text>
</g>
<!-- Node3&#45;&gt;Node19 -->
<g id="edge17" class="edge">
<title>Node3&#45;&gt;Node19</title>
<path fill="none" stroke="#191970" d="M596.3125,-352.8906C586.9041,-343.5581 572.4193,-329.1902 561.0751,-317.9374"/>
<polygon fill="#191970" stroke="#191970" points="563.3886,-315.3024 553.8241,-310.7449 558.4589,-320.2722 563.3886,-315.3024"/>
</g>
<!-- Node20 -->
<g id="node15" class="node">
<title>Node20</title>
<polygon fill="none" stroke="#bfbfbf" points="1902.5,-291.5 1902.5,-310.5 1949.5,-310.5 1949.5,-291.5 1902.5,-291.5"/>
<text text-anchor="middle" x="1926" y="-298.5" font-family="FreeSans.ttf" font-size="10.00" fill="#000000">vector</text>
</g>
<!-- Node3&#45;&gt;Node20 -->
<g id="edge20" class="edge">
<title>Node3&#45;&gt;Node20</title>
<path fill="none" stroke="#191970" d="M675.5808,-358.2423C730.5269,-354.9508 809.1457,-350.3978 878,-347 1261.4226,-328.0792 1357.5502,-329.3606 1741,-311 1793.7811,-308.4727 1855.0062,-305.0709 1892.1014,-302.9578"/>
<polygon fill="#191970" stroke="#191970" points="1892.5661,-306.437 1902.35,-302.3718 1892.1665,-299.4484 1892.5661,-306.437"/>
</g>
<!-- Node21 -->
<g id="node16" class="node">
<title>Node21</title>
<polygon fill="none" stroke="#bfbfbf" points="2275.5,-291.5 2275.5,-310.5 2324.5,-310.5 2324.5,-291.5 2275.5,-291.5"/>
<text text-anchor="middle" x="2300" y="-298.5" font-family="FreeSans.ttf" font-size="10.00" fill="#000000">cstdlib</text>
</g>
<!-- Node3&#45;&gt;Node21 -->
<g id="edge21" class="edge">
<title>Node3&#45;&gt;Node21</title>
<path fill="none" stroke="#191970" d="M675.5683,-357.9695C730.5075,-354.5286 809.1233,-349.9075 878,-347 1460.3677,-322.4163 1607.1159,-345.1669 2189,-311 2214.563,-309.499 2243.3609,-306.8774 2265.2171,-304.6949"/>
<polygon fill="#191970" stroke="#191970" points="2265.7495,-308.159 2275.3444,-303.6657 2265.0417,-301.1948 2265.7495,-308.159"/>
</g>
<!-- Node22 -->
<g id="node17" class="node">
<title>Node22</title>
<polygon fill="none" stroke="#bfbfbf" points="590.5,-291.5 590.5,-310.5 637.5,-310.5 637.5,-291.5 590.5,-291.5"/>
<text text-anchor="middle" x="614" y="-298.5" font-family="FreeSans.ttf" font-size="10.00" fill="#000000">cmath</text>
</g>
<!-- Node3&#45;&gt;Node22 -->
<g id="edge22" class="edge">
<title>Node3&#45;&gt;Node22</title>
<path fill="none" stroke="#191970" d="M607.25,-352.8906C608.3589,-344.3657 610.0144,-331.6392 611.4083,-320.9235"/>
<polygon fill="#191970" stroke="#191970" points="614.9131,-321.1128 612.7324,-310.7449 607.9716,-320.2098 614.9131,-321.1128"/>
</g>
<!-- Node4&#45;&gt;Node5 -->
<g id="edge5" class="edge">
<title>Node4&#45;&gt;Node5</title>
<path fill="none" stroke="#191970" d="M310.5912,-291.4963C383.8935,-276.8772 528.8547,-248.0413 652,-224 735.069,-207.7827 770.2659,-237.387 839,-188 870.5173,-165.3541 849.171,-132.6985 882,-112 935.7821,-78.0908 1387.8522,-68.4871 1513.6366,-66.4599"/>
<polygon fill="#191970" stroke="#191970" points="1513.8412,-69.9572 1523.7854,-66.3015 1513.7319,-62.9581 1513.8412,-69.9572"/>
</g>
<!-- Node6 -->
<g id="node7" class="node">
<title>Node6</title>
<g id="a_node7"><a xlink:href="MatrixView_8h.html" target="_top" xlink:title="iDynTree/Core/MatrixView.h">
<polygon fill="none" stroke="#ff0000" points="159.5,-112.5 159.5,-131.5 310.5,-131.5 310.5,-112.5 159.5,-112.5"/>
<text text-anchor="middle" x="235" y="-119.5" font-family="FreeSans.ttf" font-size="10.00" fill="#000000">iDynTree/Core/MatrixView.h</text>
</a>
</g>
</g>
<!-- Node4&#45;&gt;Node6 -->
<g id="edge6" class="edge">
<title>Node4&#45;&gt;Node6</title>
<path fill="none" stroke="#191970" d="M261.4946,-291.3762C257.0697,-263.0883 244.0411,-179.7987 238.0623,-141.5767"/>
<polygon fill="#191970" stroke="#191970" points="241.5163,-141.0103 236.5128,-131.6714 234.6004,-142.0922 241.5163,-141.0103"/>
</g>
<!-- Node7 -->
<g id="node8" class="node">
<title>Node7</title>
<polygon fill="none" stroke="#bfbfbf" points="324,-.5 324,-19.5 376,-19.5 376,-.5 324,-.5"/>
<text text-anchor="middle" x="350" y="-7.5" font-family="FreeSans.ttf" font-size="10.00" fill="#000000">cassert</text>
</g>
<!-- Node6&#45;&gt;Node7 -->
<g id="edge7" class="edge">
<title>Node6&#45;&gt;Node7</title>
<path fill="none" stroke="#191970" d="M240.0844,-112.1722C247.5173,-98.4541 262.3966,-73.3059 280,-56 292.4698,-43.7408 308.6699,-32.849 322.3444,-24.7449"/>
<polygon fill="#191970" stroke="#191970" points="324.3934,-27.6047 331.3309,-19.5971 320.914,-21.5307 324.3934,-27.6047"/>
</g>
<!-- Node9 -->
<g id="node9" class="node">
<title>Node9</title>
<g id="a_node9"><a xlink:href="Span_8h.html" target="_top" xlink:title="iDynTree/Core/Span.h">
<polygon fill="none" stroke="#ff0000" points="289.5,-56.5 289.5,-75.5 410.5,-75.5 410.5,-56.5 289.5,-56.5"/>
<text text-anchor="middle" x="350" y="-63.5" font-family="FreeSans.ttf" font-size="10.00" fill="#000000">iDynTree/Core/Span.h</text>
</a>
</g>
</g>
<!-- Node6&#45;&gt;Node9 -->
<g id="edge8" class="edge">
<title>Node6&#45;&gt;Node9</title>
<path fill="none" stroke="#191970" d="M254.7692,-112.3733C273.1469,-103.4241 300.7312,-89.9917 321.4893,-79.8835"/>
<polygon fill="#191970" stroke="#191970" points="323.0304,-83.026 330.4888,-75.5011 319.9657,-76.7325 323.0304,-83.026"/>
</g>
<!-- Node6&#45;&gt;Node17 -->
<g id="edge12" class="edge">
<title>Node6&#45;&gt;Node17</title>
<path fill="none" stroke="#191970" d="M297.6725,-112.4369C362.8095,-102.4977 464.5116,-86.9792 532.1807,-76.6536"/>
<polygon fill="#191970" stroke="#191970" points="532.9658,-80.0744 542.3234,-75.106 531.9099,-73.1545 532.9658,-80.0744"/>
</g>
<!-- Node9&#45;&gt;Node7 -->
<g id="edge9" class="edge">
<title>Node9&#45;&gt;Node7</title>
<path fill="none" stroke="#191970" d="M350,-56.2455C350,-48.9382 350,-38.6944 350,-29.7046"/>
<polygon fill="#191970" stroke="#191970" points="353.5001,-29.6426 350,-19.6427 346.5001,-29.6427 353.5001,-29.6426"/>
</g>
<!-- Node9&#45;&gt;Node10 -->
<g id="edge10" class="edge">
<title>Node9&#45;&gt;Node10</title>
<path fill="none" stroke="#191970" d="M319.2288,-56.3733C289.335,-47.021 243.7907,-32.7725 211.0783,-22.5385"/>
<polygon fill="#191970" stroke="#191970" points="211.9586,-19.1466 201.3697,-19.5011 209.8685,-25.8273 211.9586,-19.1466"/>
</g>
<!-- Node12 -->
<g id="node11" class="node">
<title>Node12</title>
<polygon fill="none" stroke="#bfbfbf" points="710.5,-.5 710.5,-19.5 763.5,-19.5 763.5,-.5 710.5,-.5"/>
<text text-anchor="middle" x="737" y="-7.5" font-family="FreeSans.ttf" font-size="10.00" fill="#000000">cstddef</text>
</g>
<!-- Node9&#45;&gt;Node12 -->
<g id="edge11" class="edge">
<title>Node9&#45;&gt;Node12</title>
<path fill="none" stroke="#191970" d="M410.8945,-57.1884C492.119,-45.435 633.4079,-24.9901 700.1149,-15.3374"/>
<polygon fill="#191970" stroke="#191970" points="700.7643,-18.7799 710.16,-13.8838 699.7618,-11.8521 700.7643,-18.7799"/>
</g>
<!-- Node17&#45;&gt;Node12 -->
<g id="edge13" class="edge">
<title>Node17&#45;&gt;Node12</title>
<path fill="none" stroke="#191970" d="M625.2073,-56.3733C647.1699,-47.2629 680.3332,-33.5062 704.8401,-23.3404"/>
<polygon fill="#191970" stroke="#191970" points="706.1997,-26.5657 714.0955,-19.5011 703.5176,-20.0999 706.1997,-26.5657"/>
</g>
<!-- Node18 -->
<g id="node13" class="node">
<title>Node18</title>
<polygon fill="none" stroke="#bfbfbf" points="562,-.5 562,-19.5 642,-19.5 642,-.5 562,-.5"/>
<text text-anchor="middle" x="602" y="-7.5" font-family="FreeSans.ttf" font-size="10.00" fill="#000000">CoreExport.h</text>
</g>
<!-- Node17&#45;&gt;Node18 -->
<g id="edge14" class="edge">
<title>Node17&#45;&gt;Node18</title>
<path fill="none" stroke="#191970" d="M602,-56.2455C602,-48.9382 602,-38.6944 602,-29.7046"/>
<polygon fill="#191970" stroke="#191970" points="605.5001,-29.6426 602,-19.6427 598.5001,-29.6427 605.5001,-29.6426"/>
</g>
<!-- Node23&#45;&gt;Node20 -->
<g id="edge62" class="edge">
<title>Node23&#45;&gt;Node20</title>
<path fill="none" stroke="#191970" d="M1686.2249,-486.867C1681.9697,-460.4973 1674.1692,-386.4771 1712,-347 1767.2419,-289.3541 1810.2524,-329.1666 1888,-311 1889.4531,-310.6605 1890.9354,-310.3059 1892.4312,-309.9415"/>
<polygon fill="#191970" stroke="#191970" points="1893.4928,-313.2834 1902.3339,-307.4451 1891.7817,-306.4957 1893.4928,-313.2834"/>
</g>
<!-- Node24 -->
<g id="node19" class="node">
<title>Node24</title>
<g id="a_node19"><a xlink:href="Indices_8h.html" target="_top" xlink:title="iDynTree/Model/Indices.h">
<polygon fill="none" stroke="#000000" points="2047,-230 2047,-249 2185,-249 2185,-230 2047,-230"/>
<text text-anchor="middle" x="2116" y="-237" font-family="FreeSans.ttf" font-size="10.00" fill="#000000">iDynTree/Model/Indices.h</text>
</a>
</g>
</g>
<!-- Node23&#45;&gt;Node24 -->
<g id="edge24" class="edge">
<title>Node23&#45;&gt;Node24</title>
<path fill="none" stroke="#191970" d="M1745.8968,-486.9476C1854.0879,-468.2305 2081.8038,-424.4824 2146,-378 2180.9353,-352.7044 2208.8485,-329.2934 2189,-291 2180.4886,-274.579 2164.0666,-262.2816 2148.9507,-253.8292"/>
<polygon fill="#191970" stroke="#191970" points="2150.2764,-250.5735 2139.7901,-249.0608 2147.0443,-256.7827 2150.2764,-250.5735"/>
</g>
<!-- Node26 -->
<g id="node21" class="node">
<title>Node26</title>
<g id="a_node21"><a xlink:href="Model_8h.html" target="_top" xlink:title="iDynTree/Model/Model.h">
<polygon fill="none" stroke="#000000" points="2084.5,-420 2084.5,-439 2217.5,-439 2217.5,-420 2084.5,-420"/>
<text text-anchor="middle" x="2151" y="-427" font-family="FreeSans.ttf" font-size="10.00" fill="#000000">iDynTree/Model/Model.h</text>
</a>
</g>
</g>
<!-- Node23&#45;&gt;Node26 -->
<g id="edge28" class="edge">
<title>Node23&#45;&gt;Node26</title>
<path fill="none" stroke="#191970" d="M1753.8449,-486.9717C1838.5843,-474.7092 1985.5105,-453.4477 2074.9321,-440.5077"/>
<polygon fill="#191970" stroke="#191970" points="2075.6122,-443.9458 2085.0078,-439.0496 2074.6096,-437.018 2075.6122,-443.9458"/>
</g>
<!-- Node48 -->
<g id="node24" class="node">
<title>Node48</title>
<g id="a_node24"><a xlink:href="Transform_8h.html" target="_top" xlink:title="iDynTree/Core/Transform.h">
<polygon fill="none" stroke="#000000" points="1450,-291.5 1450,-310.5 1596,-310.5 1596,-291.5 1450,-291.5"/>
<text text-anchor="middle" x="1523" y="-298.5" font-family="FreeSans.ttf" font-size="10.00" fill="#000000">iDynTree/Core/Transform.h</text>
</a>
</g>
</g>
<!-- Node23&#45;&gt;Node48 -->
<g id="edge61" class="edge">
<title>Node23&#45;&gt;Node48</title>
<path fill="none" stroke="#191970" d="M1624.0784,-486.9738C1542.7888,-474.5538 1412.0289,-453.4235 1405,-445 1365.7691,-397.9856 1449.2249,-341.6943 1495.2679,-315.6038"/>
<polygon fill="#191970" stroke="#191970" points="1497.1488,-318.563 1504.199,-310.6543 1493.7557,-312.4403 1497.1488,-318.563"/>
</g>
<!-- Node24&#45;&gt;Node5 -->
<g id="edge26" class="edge">
<title>Node24&#45;&gt;Node5</title>
<path fill="none" stroke="#191970" d="M2116.4513,-229.5248C2116.5688,-213.9697 2114.3393,-184.0581 2097,-168 2020.3156,-96.9817 1684.1862,-73.3223 1578.1593,-67.5531"/>
<polygon fill="#191970" stroke="#191970" points="1578.2399,-64.0526 1568.0694,-67.0208 1577.8711,-71.0429 1578.2399,-64.0526"/>
</g>
<!-- Node24&#45;&gt;Node12 -->
<g id="edge25" class="edge">
<title>Node24&#45;&gt;Node12</title>
<path fill="none" stroke="#191970" d="M2119.1969,-229.8382C2123.4009,-215.2256 2128.9461,-187.1779 2117,-168 2087.1537,-120.0858 2057.0332,-128.3396 2003,-112 1763.8524,-39.6821 956.0831,-15.4708 773.7688,-10.8649"/>
<polygon fill="#191970" stroke="#191970" points="773.7115,-7.3625 763.6276,-10.6128 773.5375,-14.3603 773.7115,-7.3625"/>
</g>
<!-- Node25 -->
<g id="node20" class="node">
<title>Node25</title>
<polygon fill="none" stroke="#bfbfbf" points="2002,-168.5 2002,-187.5 2088,-187.5 2088,-168.5 2002,-168.5"/>
<text text-anchor="middle" x="2045" y="-175.5" font-family="FreeSans.ttf" font-size="10.00" fill="#000000">ModelExport.h</text>
</g>
<!-- Node24&#45;&gt;Node25 -->
<g id="edge27" class="edge">
<title>Node24&#45;&gt;Node25</title>
<path fill="none" stroke="#191970" d="M2104.9063,-229.8906C2094.0285,-220.4683 2077.2252,-205.9134 2064.18,-194.6137"/>
<polygon fill="#191970" stroke="#191970" points="2066.1004,-191.6466 2056.2502,-187.7449 2061.5173,-196.9377 2066.1004,-191.6466"/>
</g>
<!-- Node26&#45;&gt;Node20 -->
<g id="edge60" class="edge">
<title>Node26&#45;&gt;Node20</title>
<path fill="none" stroke="#191970" d="M2151.4126,-419.7723C2151.5794,-402.5176 2149.2878,-366.5357 2129,-347 2105.0736,-323.9605 2010.8285,-310.2895 1959.5954,-304.4128"/>
<polygon fill="#191970" stroke="#191970" points="1959.9813,-300.9342 1949.656,-303.3086 1959.2084,-307.8914 1959.9813,-300.9342"/>
</g>
<!-- Node26&#45;&gt;Node21 -->
<g id="edge59" class="edge">
<title>Node26&#45;&gt;Node21</title>
<path fill="none" stroke="#191970" d="M2163.6763,-419.8891C2176.9364,-409.736 2198.2513,-393.1322 2216,-378 2239.5461,-357.925 2265.6758,-333.638 2282.4428,-317.7792"/>
<polygon fill="#191970" stroke="#191970" points="2285.0284,-320.1506 2289.8695,-310.7264 2280.2081,-315.0747 2285.0284,-320.1506"/>
</g>
<!-- Node26&#45;&gt;Node24 -->
<g id="edge52" class="edge">
<title>Node26&#45;&gt;Node24</title>
<path fill="none" stroke="#191970" d="M2217.7018,-427.3836C2345.5669,-422.6362 2615.05,-409.0284 2643,-378 2652.2213,-367.7631 2651.5388,-357.8127 2643,-347 2588.4667,-277.9446 2328.6048,-252.3025 2195.2926,-243.5793"/>
<polygon fill="#191970" stroke="#191970" points="2195.3395,-240.0753 2185.1369,-242.9315 2194.8938,-247.0611 2195.3395,-240.0753"/>
</g>
<!-- Node27 -->
<g id="node22" class="node">
<title>Node27</title>
<g id="a_node22"><a xlink:href="IJoint_8h.html" target="_top" xlink:title="iDynTree/Model/IJoint.h">
<polygon fill="none" stroke="#000000" points="2052,-291.5 2052,-310.5 2180,-310.5 2180,-291.5 2052,-291.5"/>
<text text-anchor="middle" x="2116" y="-298.5" font-family="FreeSans.ttf" font-size="10.00" fill="#000000">iDynTree/Model/IJoint.h</text>
</a>
</g>
</g>
<!-- Node26&#45;&gt;Node27 -->
<g id="edge29" class="edge">
<title>Node26&#45;&gt;Node27</title>
<path fill="none" stroke="#191970" d="M2164.1555,-419.8511C2183.4755,-404.4532 2215.6248,-373.3707 2200,-347 2191.1564,-332.0742 2175.5668,-321.6736 2160.1998,-314.589"/>
<polygon fill="#191970" stroke="#191970" points="2161.2971,-311.2534 2150.7227,-310.5956 2158.5789,-317.7041 2161.2971,-311.2534"/>
</g>
<!-- Node28 -->
<g id="node23" class="node">
<title>Node28</title>
<g id="a_node23"><a xlink:href="Link_8h.html" target="_top" xlink:title="iDynTree/Model/Link.h">
<polygon fill="none" stroke="#ff0000" points="2510,-353 2510,-372 2634,-372 2634,-353 2510,-353"/>
<text text-anchor="middle" x="2572" y="-360" font-family="FreeSans.ttf" font-size="10.00" fill="#000000">iDynTree/Model/Link.h</text>
</a>
</g>
</g>
<!-- Node26&#45;&gt;Node28 -->
<g id="edge31" class="edge">
<title>Node26&#45;&gt;Node28</title>
<path fill="none" stroke="#191970" d="M2217.6697,-421.0794C2288.2559,-411.8398 2402.8172,-395.9186 2501,-378 2507.2718,-376.8554 2513.8339,-375.5587 2520.3274,-374.2146"/>
<polygon fill="#191970" stroke="#191970" points="2521.3645,-377.5728 2530.4234,-372.0785 2519.9155,-370.7244 2521.3645,-377.5728"/>
</g>
<!-- Node26&#45;&gt;Node48 -->
<g id="edge33" class="edge">
<title>Node26&#45;&gt;Node48</title>
<path fill="none" stroke="#191970" d="M2084.1803,-423.1169C2010.2247,-415.3597 1887.7578,-400.457 1784,-378 1703.0036,-360.4694 1610.4625,-330.8103 1560.2273,-313.8748"/>
<polygon fill="#191970" stroke="#191970" points="1561.059,-310.4612 1550.4646,-310.5639 1558.8107,-317.0903 1561.059,-310.4612"/>
</g>
<!-- Node49 -->
<g id="node29" class="node">
<title>Node49</title>
<g id="a_node29"><a xlink:href="SolidShapes_8h.html" target="_top" xlink:title="iDynTree/Model/SolidShapes.h">
<polygon fill="none" stroke="#000000" points="2328.5,-353 2328.5,-372 2491.5,-372 2491.5,-353 2328.5,-353"/>
<text text-anchor="middle" x="2410" y="-360" font-family="FreeSans.ttf" font-size="10.00" fill="#000000">iDynTree/Model/SolidShapes.h</text>
</a>
</g>
</g>
<!-- Node26&#45;&gt;Node49 -->
<g id="edge53" class="edge">
<title>Node26&#45;&gt;Node49</title>
<path fill="none" stroke="#191970" d="M2187.8333,-419.9717C2233.8247,-408.0743 2312.5623,-387.7059 2362.8959,-374.6852"/>
<polygon fill="#191970" stroke="#191970" points="2364.0697,-377.9969 2372.8744,-372.1039 2362.3165,-371.22 2364.0697,-377.9969"/>
</g>
<!-- Node27&#45;&gt;Node24 -->
<g id="edge30" class="edge">
<title>Node27&#45;&gt;Node24</title>
<path fill="none" stroke="#191970" d="M2116,-291.3906C2116,-282.8657 2116,-270.1392 2116,-259.4235"/>
<polygon fill="#191970" stroke="#191970" points="2119.5001,-259.2448 2116,-249.2449 2112.5001,-259.2449 2119.5001,-259.2448"/>
</g>
<!-- Node28&#45;&gt;Node24 -->
<g id="edge32" class="edge">
<title>Node28&#45;&gt;Node24</title>
<path fill="none" stroke="#191970" d="M2547.0934,-352.9145C2508.0788,-338.1521 2429.9776,-309.6135 2362,-291 2301.3663,-274.3974 2231.0645,-260.1706 2181.1815,-250.9041"/>
<polygon fill="#191970" stroke="#191970" points="2181.6408,-247.4299 2171.1722,-249.0603 2180.3727,-254.3141 2181.6408,-247.4299"/>
</g>
<!-- Node48&#45;&gt;Node5 -->
<g id="edge51" class="edge">
<title>Node48&#45;&gt;Node5</title>
<path fill="none" stroke="#191970" d="M1536.028,-291.3141C1546.0792,-282.9649 1559.2125,-269.922 1565,-255 1587.6946,-196.4859 1566.1461,-120.5196 1553.5935,-85.3874"/>
<polygon fill="#191970" stroke="#191970" points="1556.8153,-84.0098 1550.0456,-75.8599 1550.2554,-86.4526 1556.8153,-84.0098"/>
</g>
<!-- Node40 -->
<g id="node25" class="node">
<title>Node40</title>
<g id="a_node25"><a xlink:href="Position_8h.html" target="_top" xlink:title="Position.h">
<polygon fill="none" stroke="#ff0000" points="1490.5,-230 1490.5,-249 1555.5,-249 1555.5,-230 1490.5,-230"/>
<text text-anchor="middle" x="1523" y="-237" font-family="FreeSans.ttf" font-size="10.00" fill="#000000">Position.h</text>
</a>
</g>
</g>
<!-- Node48&#45;&gt;Node40 -->
<g id="edge34" class="edge">
<title>Node48&#45;&gt;Node40</title>
<path fill="none" stroke="#191970" d="M1523,-291.3906C1523,-282.8657 1523,-270.1392 1523,-259.4235"/>
<polygon fill="#191970" stroke="#191970" points="1526.5001,-259.2448 1523,-249.2449 1519.5001,-259.2449 1526.5001,-259.2448"/>
</g>
<!-- Node42 -->
<g id="node26" class="node">
<title>Node42</title>
<g id="a_node26"><a xlink:href="Rotation_8h.html" target="_top" xlink:title="iDynTree/Core/Rotation.h">
<polygon fill="none" stroke="#ff0000" points="1380.5,-168.5 1380.5,-187.5 1517.5,-187.5 1517.5,-168.5 1380.5,-168.5"/>
<text text-anchor="middle" x="1449" y="-175.5" font-family="FreeSans.ttf" font-size="10.00" fill="#000000">iDynTree/Core/Rotation.h</text>
</a>
</g>
</g>
<!-- Node48&#45;&gt;Node42 -->
<g id="edge44" class="edge">
<title>Node48&#45;&gt;Node42</title>
<path fill="none" stroke="#191970" d="M1512.5185,-291.1865C1503.544,-282.3652 1490.7261,-268.7211 1482,-255 1470.3953,-236.7524 1461.1386,-213.7263 1455.4172,-197.6282"/>
<polygon fill="#191970" stroke="#191970" points="1458.5816,-196.0648 1452.0356,-187.7341 1451.9578,-198.3287 1458.5816,-196.0648"/>
</g>
<!-- Node32 -->
<g id="node28" class="node">
<title>Node32</title>
<g id="a_node28"><a xlink:href="MatrixFixSize_8h.html" target="_top" xlink:title="iDynTree/Core/MatrixFixSize.h">
<polygon fill="none" stroke="#ff0000" points="668.5,-168.5 668.5,-187.5 829.5,-187.5 829.5,-168.5 668.5,-168.5"/>
<text text-anchor="middle" x="749" y="-175.5" font-family="FreeSans.ttf" font-size="10.00" fill="#000000">iDynTree/Core/MatrixFixSize.h</text>
</a>
</g>
</g>
<!-- Node48&#45;&gt;Node32 -->
<g id="edge45" class="edge">
<title>Node48&#45;&gt;Node32</title>
<path fill="none" stroke="#191970" d="M1490.8759,-291.4927C1434.5241,-275.1773 1313.9588,-241.8811 1210,-224 1082.5964,-202.0863 933.4553,-189.5569 840.0907,-183.2661"/>
<polygon fill="#191970" stroke="#191970" points="840.0399,-179.7551 829.8299,-182.5847 839.576,-186.7397 840.0399,-179.7551"/>
</g>
<!-- Node40&#45;&gt;Node5 -->
<g id="edge43" class="edge">
<title>Node40&#45;&gt;Node5</title>
<path fill="none" stroke="#191970" d="M1524.2693,-229.9248C1527.905,-202.499 1538.4131,-123.232 1543.3624,-85.8964"/>
<polygon fill="#191970" stroke="#191970" points="1546.8616,-86.1328 1544.7062,-75.7595 1539.9223,-85.2128 1546.8616,-86.1328"/>
</g>
<!-- Node40&#45;&gt;Node42 -->
<g id="edge35" class="edge">
<title>Node40&#45;&gt;Node42</title>
<path fill="none" stroke="#191970" d="M1511.4375,-229.8906C1499.9921,-220.3786 1482.2527,-205.6357 1468.603,-194.2917"/>
<polygon fill="#191970" stroke="#191970" points="1470.6533,-191.4447 1460.7255,-187.7449 1466.1792,-196.8283 1470.6533,-191.4447"/>
</g>
<!-- Node42&#45;&gt;Node5 -->
<g id="edge36" class="edge">
<title>Node42&#45;&gt;Node5</title>
<path fill="none" stroke="#191970" d="M1457.2702,-168.4509C1473.6634,-149.5227 1510.4789,-107.014 1531.166,-83.1279"/>
<polygon fill="#191970" stroke="#191970" points="1533.8497,-85.3754 1537.7508,-75.5249 1528.5583,-80.7927 1533.8497,-85.3754"/>
</g>
<!-- Node35 -->
<g id="node27" class="node">
<title>Node35</title>
<g id="a_node27"><a xlink:href="VectorFixSize_8h.html" target="_top" xlink:title="iDynTree/Core/VectorFixSize.h">
<polygon fill="none" stroke="#ff0000" points="521.5,-112.5 521.5,-131.5 682.5,-131.5 682.5,-112.5 521.5,-112.5"/>
<text text-anchor="middle" x="602" y="-119.5" font-family="FreeSans.ttf" font-size="10.00" fill="#000000">iDynTree/Core/VectorFixSize.h</text>
</a>
</g>
</g>
<!-- Node42&#45;&gt;Node35 -->
<g id="edge37" class="edge">
<title>Node42&#45;&gt;Node35</title>
<path fill="none" stroke="#191970" d="M1380.4039,-173.4647C1228.4373,-163.4173 863.4082,-139.2832 692.779,-128.0019"/>
<polygon fill="#191970" stroke="#191970" points="692.7779,-124.4943 682.5688,-127.3269 692.316,-131.479 692.7779,-124.4943"/>
</g>
<!-- Node35&#45;&gt;Node5 -->
<g id="edge40" class="edge">
<title>Node35&#45;&gt;Node5</title>
<path fill="none" stroke="#191970" d="M682.893,-117.2013C880.5175,-105.4778 1381.361,-75.7667 1513.5822,-67.9231"/>
<polygon fill="#191970" stroke="#191970" points="1514.0694,-71.4004 1523.8445,-67.3143 1513.6548,-64.4127 1514.0694,-71.4004"/>
</g>
<!-- Node35&#45;&gt;Node7 -->
<g id="edge41" class="edge">
<title>Node35&#45;&gt;Node7</title>
<path fill="none" stroke="#191970" d="M580.5146,-112.4509C535.7874,-92.5722 432.5416,-46.6852 380.77,-23.6756"/>
<polygon fill="#191970" stroke="#191970" points="381.9906,-20.388 371.431,-19.5249 379.1476,-26.7847 381.9906,-20.388"/>
</g>
<!-- Node35&#45;&gt;Node9 -->
<g id="edge39" class="edge">
<title>Node35&#45;&gt;Node9</title>
<path fill="none" stroke="#191970" d="M558.966,-112.4369C515.7475,-102.8328 449.0859,-88.0191 402.7182,-77.7152"/>
<polygon fill="#191970" stroke="#191970" points="403.3777,-74.2764 392.8565,-75.5237 401.8591,-81.1097 403.3777,-74.2764"/>
</g>
<!-- Node35&#45;&gt;Node12 -->
<g id="edge42" class="edge">
<title>Node35&#45;&gt;Node12</title>
<path fill="none" stroke="#191970" d="M618.2482,-112.4347C632.6459,-103.6686 653.9651,-89.9653 671,-76 689.6467,-60.7134 708.9143,-40.8998 721.7815,-26.9862"/>
<polygon fill="#191970" stroke="#191970" points="724.4083,-29.3 728.5649,-19.5546 719.2382,-24.5809 724.4083,-29.3"/>
</g>
<!-- Node35&#45;&gt;Node17 -->
<g id="edge38" class="edge">
<title>Node35&#45;&gt;Node17</title>
<path fill="none" stroke="#191970" d="M602,-112.2455C602,-104.9382 602,-94.6944 602,-85.7046"/>
<polygon fill="#191970" stroke="#191970" points="605.5001,-85.6426 602,-75.6427 598.5001,-85.6427 605.5001,-85.6426"/>
</g>
<!-- Node32&#45;&gt;Node1 -->
<g id="edge50" class="edge">
<title>Node32&#45;&gt;Node1</title>
<path fill="none" stroke="#191970" d="M688.889,-168.4369C617.0541,-157.0086 498.8526,-138.2038 437.2193,-128.3985"/>
<polygon fill="#191970" stroke="#191970" points="437.5363,-124.905 427.1106,-126.7903 436.4364,-131.8181 437.5363,-124.905"/>
</g>
<!-- Node32&#45;&gt;Node5 -->
<g id="edge49" class="edge">
<title>Node32&#45;&gt;Node5</title>
<path fill="none" stroke="#191970" d="M758.7757,-168.4152C774.9342,-153.2682 808.9284,-124.2607 844,-112 907.7104,-89.7275 1384.7426,-71.6232 1513.858,-67.0934"/>
<polygon fill="#191970" stroke="#191970" points="1514.0333,-70.5895 1523.9054,-66.7438 1513.7897,-63.5938 1514.0333,-70.5895"/>
</g>
<!-- Node32&#45;&gt;Node6 -->
<g id="edge47" class="edge">
<title>Node32&#45;&gt;Node6</title>
<path fill="none" stroke="#191970" d="M668.405,-169.2192C573.8538,-158.9179 417.7424,-141.9097 320.9404,-131.3632"/>
<polygon fill="#191970" stroke="#191970" points="321.2116,-127.8721 310.8913,-130.2683 320.4534,-134.8309 321.2116,-127.8721"/>
</g>
<!-- Node32&#45;&gt;Node7 -->
<g id="edge48" class="edge">
<title>Node32&#45;&gt;Node7</title>
<path fill="none" stroke="#191970" d="M746.2772,-168.4422C738.8565,-144.4017 715.7722,-81.5225 671,-56 622.9844,-28.6286 459.7967,-16.1842 386.3482,-11.8706"/>
<polygon fill="#191970" stroke="#191970" points="386.3698,-8.3663 376.1871,-11.2924 385.972,-15.355 386.3698,-8.3663"/>
</g>
<!-- Node32&#45;&gt;Node17 -->
<g id="edge46" class="edge">
<title>Node32&#45;&gt;Node17</title>
<path fill="none" stroke="#191970" d="M742.5799,-168.452C732.9083,-154.6199 713.4372,-128.8262 692,-112 675.1124,-98.7448 653.8107,-87.653 636.171,-79.6841"/>
<polygon fill="#191970" stroke="#191970" points="637.3637,-76.3857 626.7992,-75.5844 634.5582,-82.7989 637.3637,-76.3857"/>
</g>
<!-- Node49&#45;&gt;Node5 -->
<g id="edge55" class="edge">
<title>Node49&#45;&gt;Node5</title>
<path fill="none" stroke="#191970" d="M2405.4036,-352.541C2398.0624,-337.54 2382.4136,-308.992 2362,-291 2228.2467,-173.114 2174.4441,-160.9284 2003,-112 1847.9504,-67.7504 1802.4089,-92.3528 1642,-76 1620.7191,-73.8305 1596.7907,-71.3381 1578.1469,-69.3843"/>
<polygon fill="#191970" stroke="#191970" points="1578.4231,-65.8941 1568.1124,-68.3313 1577.6925,-72.8559 1578.4231,-65.8941"/>
</g>
<!-- Node49&#45;&gt;Node20 -->
<g id="edge56" class="edge">
<title>Node49&#45;&gt;Node20</title>
<path fill="none" stroke="#191970" d="M2335.171,-352.9918C2228.4791,-339.4348 2037.0114,-315.1058 1959.7226,-305.285"/>
<polygon fill="#191970" stroke="#191970" points="1959.9568,-301.7867 1949.5953,-303.9982 1959.0743,-308.7309 1959.9568,-301.7867"/>
</g>
<!-- Node49&#45;&gt;Node21 -->
<g id="edge54" class="edge">
<title>Node49&#45;&gt;Node21</title>
<path fill="none" stroke="#191970" d="M2392.8125,-352.8906C2374.8918,-342.8713 2346.5905,-327.0483 2325.9477,-315.5071"/>
<polygon fill="#191970" stroke="#191970" points="2327.5033,-312.367 2317.0668,-310.5419 2324.0872,-318.4769 2327.5033,-312.367"/>
</g>
<!-- Node49&#45;&gt;Node24 -->
<g id="edge58" class="edge">
<title>Node49&#45;&gt;Node24</title>
<path fill="none" stroke="#191970" d="M2402.7168,-352.9657C2390.3488,-337.4726 2363.6757,-306.9601 2334,-291 2291.1944,-267.9784 2238.2256,-255.1606 2195.2195,-248.0706"/>
<polygon fill="#191970" stroke="#191970" points="2195.5015,-244.5719 2185.0787,-246.4735 2194.4125,-251.4867 2195.5015,-244.5719"/>
</g>
<!-- Node49&#45;&gt;Node48 -->
<g id="edge57" class="edge">
<title>Node49&#45;&gt;Node48</title>
<path fill="none" stroke="#191970" d="M2328.3505,-357.8753C2156.6478,-348.0541 1761.9153,-324.9482 1606.6153,-311.0904"/>
<polygon fill="#191970" stroke="#191970" points="1606.5715,-307.572 1596.2951,-310.1501 1605.9363,-314.5431 1606.5715,-307.572"/>
</g>
<!-- Node50&#45;&gt;Node3 -->
<g id="edge102" class="edge">
<title>Node50&#45;&gt;Node3</title>
<path fill="none" stroke="#191970" d="M1426.3949,-488.4852C1344.4633,-479.0873 1206.3319,-462.5499 1088,-445 936.2291,-422.4908 758.5286,-390.6466 667.1479,-373.8658"/>
<polygon fill="#191970" stroke="#191970" points="667.709,-370.4103 657.2408,-372.0433 666.4426,-377.2948 667.709,-370.4103"/>
</g>
<!-- Node50&#45;&gt;Node7 -->
<g id="edge103" class="edge">
<title>Node50&#45;&gt;Node7</title>
<path fill="none" stroke="#191970" d="M1426.2285,-495.8367C1202.6614,-493.3879 520.7478,-482.9251 303,-445 181.4761,-423.8342 38,-485.8534 38,-362.5 38,-362.5 38,-362.5 38,-301 38,-206.9856 65.6513,-177.5962 133,-112 185.0918,-61.2637 267.1302,-32.2757 313.9926,-18.9791"/>
<polygon fill="#191970" stroke="#191970" points="315.0017,-22.3316 323.7143,-16.3033 313.144,-15.5826 315.0017,-22.3316"/>
</g>
<!-- Node50&#45;&gt;Node26 -->
<g id="edge64" class="edge">
<title>Node50&#45;&gt;Node26</title>
<path fill="none" stroke="#191970" d="M1569.9126,-482.6404C1573.6571,-482.0534 1577.3698,-481.5018 1581,-481 1756.6203,-456.7233 1964.333,-441.2694 2074.0862,-434.133"/>
<polygon fill="#191970" stroke="#191970" points="2074.3208,-437.6252 2084.0748,-433.4889 2073.8703,-430.6397 2074.3208,-437.6252"/>
</g>
<!-- Node50&#45;&gt;Node27 -->
<g id="edge104" class="edge">
<title>Node50&#45;&gt;Node27</title>
<path fill="none" stroke="#191970" d="M1569.695,-483.1115C1734.9178,-452.2478 2128.4377,-378.6777 2129,-378 2142.5321,-361.6901 2134.6908,-336.5881 2126.5329,-319.5128"/>
<polygon fill="#191970" stroke="#191970" points="2129.5718,-317.7704 2121.8522,-310.5138 2123.3616,-321.0006 2129.5718,-317.7704"/>
</g>
<!-- Node51 -->
<g id="node31" class="node">
<title>Node51</title>
<g id="a_node31"><a xlink:href="FixedJoint_8h.html" target="_top" xlink:title="iDynTree/Model/FixedJoint.h">
<polygon fill="none" stroke="#000000" points="1792.5,-353 1792.5,-372 1943.5,-372 1943.5,-353 1792.5,-353"/>
<text text-anchor="middle" x="1868" y="-360" font-family="FreeSans.ttf" font-size="10.00" fill="#000000">iDynTree/Model/FixedJoint.h</text>
</a>
</g>
</g>
<!-- Node50&#45;&gt;Node51 -->
<g id="edge65" class="edge">
<title>Node50&#45;&gt;Node51</title>
<path fill="none" stroke="#191970" d="M1539.7245,-481.389C1612.8589,-454.9025 1762.9647,-400.5398 1831.9156,-375.5684"/>
<polygon fill="#191970" stroke="#191970" points="1833.2705,-378.8002 1841.481,-372.1042 1830.8868,-372.2186 1833.2705,-378.8002"/>
</g>
<!-- Node52 -->
<g id="node32" class="node">
<title>Node52</title>
<g id="a_node32"><a xlink:href="RevoluteJoint_8h.html" target="_top" xlink:title="iDynTree/Model/RevoluteJoint.h">
<polygon fill="none" stroke="#000000" points="1414,-420 1414,-439 1582,-439 1582,-420 1414,-420"/>
<text text-anchor="middle" x="1498" y="-427" font-family="FreeSans.ttf" font-size="10.00" fill="#000000">iDynTree/Model/RevoluteJoint.h</text>
</a>
</g>
</g>
<!-- Node50&#45;&gt;Node52 -->
<g id="edge69" class="edge">
<title>Node50&#45;&gt;Node52</title>
<path fill="none" stroke="#191970" d="M1498,-481.2967C1498,-471.7699 1498,-459.3954 1498,-449.1306"/>
<polygon fill="#191970" stroke="#191970" points="1501.5001,-449.0549 1498,-439.055 1494.5001,-449.055 1501.5001,-449.0549"/>
</g>
<!-- Node56 -->
<g id="node36" class="node">
<title>Node56</title>
<g id="a_node36"><a xlink:href="FreeFloatingState_8h.html" target="_top" xlink:title="iDynTree/Model/FreeFloating\lState.h">
<polygon fill="none" stroke="#000000" points="1108,-414.5 1108,-444.5 1262,-444.5 1262,-414.5 1108,-414.5"/>
<text text-anchor="start" x="1116" y="-432.5" font-family="FreeSans.ttf" font-size="10.00" fill="#000000">iDynTree/Model/FreeFloating</text>
<text text-anchor="middle" x="1185" y="-421.5" font-family="FreeSans.ttf" font-size="10.00" fill="#000000">State.h</text>
</a>
</g>
</g>
<!-- Node50&#45;&gt;Node56 -->
<g id="edge80" class="edge">
<title>Node50&#45;&gt;Node56</title>
<path fill="none" stroke="#191970" d="M1427.7567,-481.4639C1379.5144,-471.1373 1315.3693,-457.4065 1265.1322,-446.6529"/>
<polygon fill="#191970" stroke="#191970" points="1265.7902,-443.2145 1255.2791,-444.5438 1264.325,-450.0595 1265.7902,-443.2145"/>
</g>
<!-- Node58 -->
<g id="node39" class="node">
<title>Node58</title>
<g id="a_node39"><a xlink:href="LinkState_8h.html" target="_top" xlink:title="iDynTree/Model/LinkState.h">
<polygon fill="none" stroke="#ff0000" points="1093.5,-353 1093.5,-372 1242.5,-372 1242.5,-353 1093.5,-353"/>
<text text-anchor="middle" x="1168" y="-360" font-family="FreeSans.ttf" font-size="10.00" fill="#000000">iDynTree/Model/LinkState.h</text>
</a>
</g>
</g>
<!-- Node50&#45;&gt;Node58 -->
<g id="edge101" class="edge">
<title>Node50&#45;&gt;Node58</title>
<path fill="none" stroke="#191970" d="M1426.1031,-492.2962C1317.0573,-485.1775 1120.2147,-469.1289 1099,-445 1078.5076,-421.6926 1113.7113,-393.8733 1140.9269,-377.2259"/>
<polygon fill="#191970" stroke="#191970" points="1142.9133,-380.1181 1149.7583,-372.0312 1139.3643,-374.0845 1142.9133,-380.1181"/>
</g>
<!-- Node51&#45;&gt;Node24 -->
<g id="edge67" class="edge">
<title>Node51&#45;&gt;Node24</title>
<path fill="none" stroke="#191970" d="M1887.4601,-352.8484C1931.0131,-331.2475 2036.5066,-278.9262 2087.4843,-253.6428"/>
<polygon fill="#191970" stroke="#191970" points="2089.2267,-256.6856 2096.6303,-249.1068 2086.1164,-250.4145 2089.2267,-256.6856"/>
</g>
<!-- Node51&#45;&gt;Node27 -->
<g id="edge68" class="edge">
<title>Node51&#45;&gt;Node27</title>
<path fill="none" stroke="#191970" d="M1906.4779,-352.9581C1949.8269,-342.2082 2020.3639,-324.7162 2067.4627,-313.0365"/>
<polygon fill="#191970" stroke="#191970" points="2068.5683,-316.3684 2077.4318,-310.5643 2066.8834,-309.5742 2068.5683,-316.3684"/>
</g>
<!-- Node51&#45;&gt;Node48 -->
<g id="edge66" class="edge">
<title>Node51&#45;&gt;Node48</title>
<path fill="none" stroke="#191970" d="M1814.4723,-352.9581C1752.9406,-341.9894 1652.0313,-324.0012 1586.5612,-312.3305"/>
<polygon fill="#191970" stroke="#191970" points="1586.8285,-308.823 1576.3694,-310.5137 1585.6,-315.7144 1586.8285,-308.823"/>
</g>
<!-- Node52&#45;&gt;Node24 -->
<g id="edge77" class="edge">
<title>Node52&#45;&gt;Node24</title>
<path fill="none" stroke="#191970" d="M1516.7896,-419.9693C1550.518,-403.1845 1623.8948,-368.1323 1689,-347 1758.7407,-324.3631 1780.4763,-334.2948 1850,-311 1870.368,-304.1754 1873.6593,-297.9056 1894,-291 1945.8977,-273.3808 2006.6319,-259.7503 2051.4441,-250.9507"/>
<polygon fill="#191970" stroke="#191970" points="2052.1751,-254.3743 2061.3277,-249.0375 2050.8447,-247.5019 2052.1751,-254.3743"/>
</g>
<!-- Node52&#45;&gt;Node48 -->
<g id="edge70" class="edge">
<title>Node52&#45;&gt;Node48</title>
<path fill="none" stroke="#191970" d="M1493.1159,-419.5484C1486.0537,-403.7358 1474.7935,-372.0955 1484,-347 1488.0568,-335.9418 1496.0797,-325.7193 1503.7994,-317.7335"/>
<polygon fill="#191970" stroke="#191970" points="1506.4872,-320.0041 1511.26,-310.5451 1501.6302,-314.9632 1506.4872,-320.0041"/>
</g>
<!-- Node37 -->
<g id="node33" class="node">
<title>Node37</title>
<g id="a_node33"><a xlink:href="SpatialMotionVector_8h.html" target="_top" xlink:title="iDynTree/Core/SpatialMotion\lVector.h">
<polygon fill="none" stroke="#ff0000" points="1045.5,-224.5 1045.5,-254.5 1200.5,-254.5 1200.5,-224.5 1045.5,-224.5"/>
<text text-anchor="start" x="1053.5" y="-242.5" font-family="FreeSans.ttf" font-size="10.00" fill="#000000">iDynTree/Core/SpatialMotion</text>
<text text-anchor="middle" x="1123" y="-231.5" font-family="FreeSans.ttf" font-size="10.00" fill="#000000">Vector.h</text>
</a>
</g>
</g>
<!-- Node52&#45;&gt;Node37 -->
<g id="edge71" class="edge">
<title>Node52&#45;&gt;Node37</title>
<path fill="none" stroke="#191970" d="M1494.4574,-419.8286C1484.5011,-394.1233 1453.6458,-323.8326 1403,-291 1331.0868,-244.3801 1296.1615,-269.154 1210.849,-255.7556"/>
<polygon fill="#191970" stroke="#191970" points="1211.2025,-252.2653 1200.7557,-254.0301 1210.0229,-259.1652 1211.2025,-252.2653"/>
</g>
<!-- Node53 -->
<g id="node34" class="node">
<title>Node53</title>
<g id="a_node34"><a xlink:href="Axis_8h.html" target="_top" xlink:title="iDynTree/Core/Axis.h">
<polygon fill="none" stroke="#ff0000" points="1614,-291.5 1614,-310.5 1732,-310.5 1732,-291.5 1614,-291.5"/>
<text text-anchor="middle" x="1673" y="-298.5" font-family="FreeSans.ttf" font-size="10.00" fill="#000000">iDynTree/Core/Axis.h</text>
</a>
</g>
</g>
<!-- Node52&#45;&gt;Node53 -->
<g id="edge73" class="edge">
<title>Node52&#45;&gt;Node53</title>
<path fill="none" stroke="#191970" d="M1508.6992,-419.824C1526.5779,-403.8528 1563.9285,-371.323 1598,-347 1613.7051,-335.7884 1632.1736,-324.4404 1646.8539,-315.8208"/>
<polygon fill="#191970" stroke="#191970" points="1648.994,-318.6255 1655.8867,-310.5793 1645.4808,-312.571 1648.994,-318.6255"/>
</g>
<!-- Node55 -->
<g id="node35" class="node">
<title>Node55</title>
<g id="a_node35"><a xlink:href="MovableJointImpl_8h.html" target="_top" xlink:title="iDynTree/Model/MovableJoint\lImpl.h">
<polygon fill="none" stroke="#000000" points="1962,-347.5 1962,-377.5 2120,-377.5 2120,-347.5 1962,-347.5"/>
<text text-anchor="start" x="1970" y="-365.5" font-family="FreeSans.ttf" font-size="10.00" fill="#000000">iDynTree/Model/MovableJoint</text>
<text text-anchor="middle" x="2041" y="-354.5" font-family="FreeSans.ttf" font-size="10.00" fill="#000000">Impl.h</text>
</a>
</g>
</g>
<!-- Node52&#45;&gt;Node55 -->
<g id="edge78" class="edge">
<title>Node52&#45;&gt;Node55</title>
<path fill="none" stroke="#191970" d="M1582.0592,-421.5522C1671.2907,-412.7592 1816.6542,-397.4202 1951.7601,-378.1283"/>
<polygon fill="#191970" stroke="#191970" points="1952.4829,-381.5604 1961.8829,-376.6725 1951.4865,-374.6317 1952.4829,-381.5604"/>
</g>
<!-- Node37&#45;&gt;Node35 -->
<g id="edge72" class="edge">
<title>Node37&#45;&gt;Node35</title>
<path fill="none" stroke="#191970" d="M1045.0637,-233.9144C922.0384,-224.6374 693.3082,-205.3533 660,-188 639.3864,-177.2605 622.7636,-155.9231 612.6838,-140.4086"/>
<polygon fill="#191970" stroke="#191970" points="615.507,-138.3189 607.276,-131.648 609.5504,-141.9958 615.507,-138.3189"/>
</g>
<!-- Node53&#45;&gt;Node5 -->
<g id="edge74" class="edge">
<title>Node53&#45;&gt;Node5</title>
<path fill="none" stroke="#191970" d="M1674.3146,-291.1681C1677.7939,-261.0033 1684.2818,-168.4036 1642,-112 1626.4971,-91.3193 1599.2825,-79.506 1577.7788,-73.0435"/>
<polygon fill="#191970" stroke="#191970" points="1578.6319,-69.6482 1568.0611,-70.3618 1576.7697,-76.3959 1578.6319,-69.6482"/>
</g>
<!-- Node53&#45;&gt;Node17 -->
<g id="edge76" class="edge">
<title>Node53&#45;&gt;Node17</title>
<path fill="none" stroke="#191970" d="M1666.1099,-291.4591C1647.2189,-266.1449 1591.6809,-197.2214 1527,-168 1374.0213,-98.8876 859.9153,-74.7682 671.7517,-68.1359"/>
<polygon fill="#191970" stroke="#191970" points="671.8163,-64.6361 661.701,-67.7874 671.5737,-71.6319 671.8163,-64.6361"/>
</g>
<!-- Node53&#45;&gt;Node40 -->
<g id="edge75" class="edge">
<title>Node53&#45;&gt;Node40</title>
<path fill="none" stroke="#191970" d="M1649.5625,-291.3906C1624.3547,-281.0554 1584.0847,-264.5447 1555.7523,-252.9284"/>
<polygon fill="#191970" stroke="#191970" points="1556.8532,-249.5971 1546.2729,-249.0419 1554.1977,-256.0739 1556.8532,-249.5971"/>
</g>
<!-- Node55&#45;&gt;Node27 -->
<g id="edge79" class="edge">
<title>Node55&#45;&gt;Node27</title>
<path fill="none" stroke="#191970" d="M2059.5393,-347.2977C2070.6008,-338.2274 2084.6491,-326.7077 2095.9653,-317.4285"/>
<polygon fill="#191970" stroke="#191970" points="2098.4781,-319.8942 2103.9916,-310.8469 2094.0396,-314.4813 2098.4781,-319.8942"/>
</g>
<!-- Node56&#45;&gt;Node20 -->
<g id="edge100" class="edge">
<title>Node56&#45;&gt;Node20</title>
<path fill="none" stroke="#191970" d="M1262.038,-424.6862C1343.8193,-418.412 1476.4019,-404.9004 1588,-378 1627.4983,-368.479 1634.7702,-357.573 1674,-347 1751.0102,-326.2446 1843.7955,-311.9942 1892.4591,-305.3207"/>
<polygon fill="#191970" stroke="#191970" points="1892.9929,-308.7805 1902.4349,-303.9745 1892.0567,-301.8434 1892.9929,-308.7805"/>
</g>
<!-- Node56&#45;&gt;Node24 -->
<g id="edge87" class="edge">
<title>Node56&#45;&gt;Node24</title>
<path fill="none" stroke="#191970" d="M1258.6977,-414.4557C1342.3084,-397.5121 1482.7985,-369.4176 1604,-347 1696.2541,-329.9365 1723.1806,-341.2174 1812,-311 1830.0682,-304.853 1831.9937,-297.3262 1850,-291 1910.8701,-269.6144 1982.8726,-256.3611 2036.6048,-248.6649"/>
<polygon fill="#191970" stroke="#191970" points="2037.3392,-252.0963 2046.7583,-247.2454 2036.37,-245.1638 2037.3392,-252.0963"/>
</g>
<!-- Node56&#45;&gt;Node48 -->
<g id="edge81" class="edge">
<title>Node56&#45;&gt;Node48</title>
<path fill="none" stroke="#191970" d="M1204.9247,-414.2424C1235.6888,-390.7091 1291.4978,-348.1266 1294,-347 1339.8921,-326.337 1395.1116,-314.8974 1439.8275,-308.5946"/>
<polygon fill="#191970" stroke="#191970" points="1440.3422,-312.057 1449.7843,-307.251 1439.406,-305.1199 1440.3422,-312.057"/>
</g>
<!-- Node36 -->
<g id="node37" class="node">
<title>Node36</title>
<g id="a_node37"><a xlink:href="Twist_8h.html" target="_top" xlink:title="iDynTree/Core/Twist.h">
<polygon fill="none" stroke="#000000" points="954,-291.5 954,-310.5 1076,-310.5 1076,-291.5 954,-291.5"/>
<text text-anchor="middle" x="1015" y="-298.5" font-family="FreeSans.ttf" font-size="10.00" fill="#000000">iDynTree/Core/Twist.h</text>
</a>
</g>
</g>
<!-- Node56&#45;&gt;Node36 -->
<g id="edge82" class="edge">
<title>Node56&#45;&gt;Node36</title>
<path fill="none" stroke="#191970" d="M1147.9824,-414.2976C1128.2766,-405.2803 1104.2142,-392.7369 1085,-378 1062.5023,-360.7448 1041.2814,-335.708 1028.2269,-318.9152"/>
<polygon fill="#191970" stroke="#191970" points="1030.6958,-316.3795 1021.8582,-310.5358 1025.1227,-320.6152 1030.6958,-316.3795"/>
</g>
<!-- Node57 -->
<g id="node38" class="node">
<title>Node57</title>
<g id="a_node38"><a xlink:href="VectorDynSize_8h.html" target="_top" xlink:title="iDynTree/Core/VectorDynSize.h">
<polygon fill="none" stroke="#000000" points="731.5,-291.5 731.5,-310.5 898.5,-310.5 898.5,-291.5 731.5,-291.5"/>
<text text-anchor="middle" x="815" y="-298.5" font-family="FreeSans.ttf" font-size="10.00" fill="#000000">iDynTree/Core/VectorDynSize.h</text>
</a>
</g>
</g>
<!-- Node56&#45;&gt;Node57 -->
<g id="edge84" class="edge">
<title>Node56&#45;&gt;Node57</title>
<path fill="none" stroke="#191970" d="M1107.9742,-422.7983C1030.1427,-414.9359 916.0994,-400.1003 878,-378 854.1743,-364.1794 835.5856,-337.6985 824.9546,-319.693"/>
<polygon fill="#191970" stroke="#191970" points="827.8432,-317.6896 819.8845,-310.6961 821.7449,-321.1263 827.8432,-317.6896"/>
</g>
<!-- Node56&#45;&gt;Node58 -->
<g id="edge88" class="edge">
<title>Node56&#45;&gt;Node58</title>
<path fill="none" stroke="#191970" d="M1181.1424,-414.2967C1178.6995,-404.6685 1175.5185,-392.1318 1172.898,-381.8038"/>
<polygon fill="#191970" stroke="#191970" points="1176.2764,-380.887 1170.4244,-372.055 1169.4914,-382.6086 1176.2764,-380.887"/>
</g>
<!-- Node60 -->
<g id="node42" class="node">
<title>Node60</title>
<g id="a_node42"><a xlink:href="JointState_8h.html" target="_top" xlink:title="iDynTree/Model/JointState.h">
<polygon fill="none" stroke="#ff0000" points="886.5,-353 886.5,-372 1037.5,-372 1037.5,-353 886.5,-353"/>
<text text-anchor="middle" x="962" y="-360" font-family="FreeSans.ttf" font-size="10.00" fill="#000000">iDynTree/Model/JointState.h</text>
</a>
</g>
</g>
<!-- Node56&#45;&gt;Node60 -->
<g id="edge96" class="edge">
<title>Node56&#45;&gt;Node60</title>
<path fill="none" stroke="#191970" d="M1134.9544,-414.4639C1095.398,-402.5792 1040.8348,-386.1858 1003.6403,-375.0108"/>
<polygon fill="#191970" stroke="#191970" points="1004.2212,-371.5308 993.637,-372.0053 1002.207,-378.2348 1004.2212,-371.5308"/>
</g>
<!-- Node36&#45;&gt;Node37 -->
<g id="edge83" class="edge">
<title>Node36&#45;&gt;Node37</title>
<path fill="none" stroke="#191970" d="M1031.875,-291.3906C1046.7622,-282.9132 1068.9457,-270.2809 1087.6975,-259.6028"/>
<polygon fill="#191970" stroke="#191970" points="1089.6223,-262.5345 1096.5802,-254.5446 1086.1584,-256.4516 1089.6223,-262.5345"/>
</g>
<!-- Node57&#45;&gt;Node5 -->
<g id="edge86" class="edge">
<title>Node57&#45;&gt;Node5</title>
<path fill="none" stroke="#191970" d="M841.5587,-291.4713C883.1089,-276.6358 966.0761,-247.3007 1037,-224 1216.1926,-165.1296 1432.7477,-99.8321 1513.5441,-75.6705"/>
<polygon fill="#191970" stroke="#191970" points="1515.0106,-78.8853 1523.5902,-72.6691 1513.0067,-72.1782 1515.0106,-78.8853"/>
</g>
<!-- Node57&#45;&gt;Node9 -->
<g id="edge85" class="edge">
<title>Node57&#45;&gt;Node9</title>
<path fill="none" stroke="#191970" d="M794.472,-291.4949C774.7762,-282.321 744.2376,-267.9549 718,-255 589.6277,-191.6158 438.0508,-112.3489 377.2389,-80.3638"/>
<polygon fill="#191970" stroke="#191970" points="378.755,-77.2066 368.2758,-75.646 375.4946,-83.4009 378.755,-77.2066"/>
</g>
<!-- Node58&#45;&gt;Node20 -->
<g id="edge95" class="edge">
<title>Node58&#45;&gt;Node20</title>
<path fill="none" stroke="#191970" d="M1242.7544,-356.4348C1403.5869,-343.3858 1777.1739,-313.0749 1891.8849,-303.7679"/>
<polygon fill="#191970" stroke="#191970" points="1892.4778,-307.2314 1902.162,-302.9341 1891.9116,-300.2543 1892.4778,-307.2314"/>
</g>
<!-- Node58&#45;&gt;Node24 -->
<g id="edge94" class="edge">
<title>Node58&#45;&gt;Node24</title>
<path fill="none" stroke="#191970" d="M1242.642,-357.2335C1386.9158,-346.8428 1694.0366,-323.6188 1741,-311 1761.3552,-305.5307 1763.831,-297.1204 1784,-291 1868.147,-265.4651 1968.3264,-252.1448 2036.4715,-245.5083"/>
<polygon fill="#191970" stroke="#191970" points="2037.0813,-248.9663 2046.7064,-244.5384 2036.4208,-241.9975 2037.0813,-248.9663"/>
</g>
<!-- Node58&#45;&gt;Node48 -->
<g id="edge89" class="edge">
<title>Node58&#45;&gt;Node48</title>
<path fill="none" stroke="#191970" d="M1221.9793,-352.9594C1233.2214,-350.9817 1244.9964,-348.9169 1256,-347 1324.5652,-335.0553 1403.0667,-321.5513 1457.1132,-312.2808"/>
<polygon fill="#191970" stroke="#191970" points="1457.9844,-315.6825 1467.249,-310.5426 1456.8013,-308.7832 1457.9844,-315.6825"/>
</g>
<!-- Node58&#45;&gt;Node36 -->
<g id="edge90" class="edge">
<title>Node58&#45;&gt;Node36</title>
<path fill="none" stroke="#191970" d="M1144.0938,-352.8906C1118.2695,-342.5103 1076.9473,-325.9004 1048.0295,-314.2766"/>
<polygon fill="#191970" stroke="#191970" points="1049.3222,-311.0241 1038.7384,-310.5419 1046.7115,-317.519 1049.3222,-311.0241"/>
</g>
<!-- Node46 -->
<g id="node40" class="node">
<title>Node46</title>
<g id="a_node40"><a xlink:href="SpatialAcc_8h.html" target="_top" xlink:title="iDynTree/Core/SpatialAcc.h">
<polygon fill="none" stroke="#000000" points="1094,-291.5 1094,-310.5 1242,-310.5 1242,-291.5 1094,-291.5"/>
<text text-anchor="middle" x="1168" y="-298.5" font-family="FreeSans.ttf" font-size="10.00" fill="#000000">iDynTree/Core/SpatialAcc.h</text>
</a>
</g>
</g>
<!-- Node58&#45;&gt;Node46 -->
<g id="edge91" class="edge">
<title>Node58&#45;&gt;Node46</title>
<path fill="none" stroke="#191970" d="M1168,-352.8906C1168,-344.3657 1168,-331.6392 1168,-320.9235"/>
<polygon fill="#191970" stroke="#191970" points="1171.5001,-320.7448 1168,-310.7449 1164.5001,-320.7449 1171.5001,-320.7448"/>
</g>
<!-- Node47 -->
<g id="node41" class="node">
<title>Node47</title>
<g id="a_node41"><a xlink:href="Wrench_8h.html" target="_top" xlink:title="iDynTree/Core/Wrench.h">
<polygon fill="none" stroke="#ff0000" points="1260.5,-291.5 1260.5,-310.5 1393.5,-310.5 1393.5,-291.5 1260.5,-291.5"/>
<text text-anchor="middle" x="1327" y="-298.5" font-family="FreeSans.ttf" font-size="10.00" fill="#000000">iDynTree/Core/Wrench.h</text>
</a>
</g>
</g>
<!-- Node58&#45;&gt;Node47 -->
<g id="edge93" class="edge">
<title>Node58&#45;&gt;Node47</title>
<path fill="none" stroke="#191970" d="M1192.8438,-352.8906C1219.6807,-342.5103 1262.6233,-325.9004 1292.6753,-314.2766"/>
<polygon fill="#191970" stroke="#191970" points="1294.2667,-317.4138 1302.3307,-310.5419 1291.7414,-310.8851 1294.2667,-317.4138"/>
</g>
<!-- Node46&#45;&gt;Node37 -->
<g id="edge92" class="edge">
<title>Node46&#45;&gt;Node37</title>
<path fill="none" stroke="#191970" d="M1160.9688,-291.3906C1155.3861,-283.761 1147.3409,-272.7658 1140.0918,-262.8588"/>
<polygon fill="#191970" stroke="#191970" points="1142.738,-260.5481 1134.0082,-254.5446 1137.0888,-264.6817 1142.738,-260.5481"/>
</g>
<!-- Node60&#45;&gt;Node20 -->
<g id="edge99" class="edge">
<title>Node60&#45;&gt;Node20</title>
<path fill="none" stroke="#191970" d="M1030.5419,-352.9908C1048.2548,-350.773 1067.3153,-348.5959 1085,-347 1095.2221,-346.0775 1734.9056,-311.3631 1891.6274,-302.8637"/>
<polygon fill="#191970" stroke="#191970" points="1892.2656,-306.3343 1902.0614,-302.2979 1891.8865,-299.3446 1892.2656,-306.3343"/>
</g>
<!-- Node60&#45;&gt;Node35 -->
<g id="edge97" class="edge">
<title>Node60&#45;&gt;Node35</title>
<path fill="none" stroke="#191970" d="M957.0364,-352.7702C948.8106,-337.5516 930.9584,-308.0925 908,-291 881.6613,-271.3908 654.8825,-210.536 631,-188 617.9432,-175.6793 610.4137,-156.4453 606.3166,-141.913"/>
<polygon fill="#191970" stroke="#191970" points="609.6369,-140.7627 603.8179,-131.9089 602.8455,-142.459 609.6369,-140.7627"/>
</g>
<!-- Node60&#45;&gt;Node57 -->
<g id="edge98" class="edge">
<title>Node60&#45;&gt;Node57</title>
<path fill="none" stroke="#191970" d="M939.0313,-352.8906C914.3276,-342.5554 874.863,-326.0447 847.0973,-314.4284"/>
<polygon fill="#191970" stroke="#191970" points="848.3835,-311.1727 837.8075,-310.5419 845.6818,-317.6303 848.3835,-311.1727"/>
</g>
<!-- Node61&#45;&gt;Node5 -->
<g id="edge114" class="edge">
<title>Node61&#45;&gt;Node5</title>
<path fill="none" stroke="#191970" d="M2132.1304,-548.7987C2135.4614,-548.5171 2138.7602,-548.2495 2142,-548 2218.6549,-542.0959 2774.1107,-561.4255 2833,-512 2861.8208,-487.8109 2852,-467.1265 2852,-429.5 2852,-429.5 2852,-429.5 2852,-178 2852,-21.0129 2660.8964,-130.4727 2505,-112 2319.4938,-90.0188 1723.6694,-71.2658 1578.2422,-66.9387"/>
<polygon fill="#191970" stroke="#191970" points="1578.283,-63.4384 1568.1839,-66.6411 1578.076,-70.4354 1578.283,-63.4384"/>
</g>
<!-- Node61&#45;&gt;Node20 -->
<g id="edge115" class="edge">
<title>Node61&#45;&gt;Node20</title>
<path fill="none" stroke="#191970" d="M2025.172,-548.3783C2008.4321,-539.5751 1983.5042,-525.8491 1963,-512 1944.6512,-499.6067 1941.8244,-494.1362 1924,-481 1858.6037,-432.8043 1810.9516,-449.8275 1773,-378 1766.5635,-365.8181 1764.7789,-358.0563 1773,-347 1776.6659,-342.0699 1848.5605,-321.9258 1892.4748,-309.9913"/>
<polygon fill="#191970" stroke="#191970" points="1893.4445,-313.3549 1902.1821,-307.3629 1891.6149,-306.5982 1893.4445,-313.3549"/>
</g>
<!-- Node61&#45;&gt;Node26 -->
<g id="edge106" class="edge">
<title>Node61&#45;&gt;Node26</title>
<path fill="none" stroke="#191970" d="M2077.012,-548.4281C2095.8207,-541.3205 2118.2995,-529.7354 2132,-512 2145.923,-493.9767 2149.9522,-467.5463 2150.9639,-449.4894"/>
<polygon fill="#191970" stroke="#191970" points="2154.4697,-449.3406 2151.2661,-439.2418 2147.4727,-449.1342 2154.4697,-449.3406"/>
</g>
<!-- Node62 -->
<g id="node44" class="node">
<title>Node62</title>
<g id="a_node44"><a xlink:href="Sensors_8h.html" target="_top" xlink:title="iDynTree/Sensors/Sensors.h">
<polygon fill="none" stroke="#ff0000" points="1971.5,-487 1971.5,-506 2122.5,-506 2122.5,-487 1971.5,-487"/>
<text text-anchor="middle" x="2047" y="-494" font-family="FreeSans.ttf" font-size="10.00" fill="#000000">iDynTree/Sensors/Sensors.h</text>
</a>
</g>
</g>
<!-- Node61&#45;&gt;Node62 -->
<g id="edge107" class="edge">
<title>Node61&#45;&gt;Node62</title>
<path fill="none" stroke="#191970" d="M2044.4688,-548.3906C2044.8846,-539.8657 2045.5054,-527.1392 2046.0281,-516.4235"/>
<polygon fill="#191970" stroke="#191970" points="2049.5332,-516.4035 2046.5246,-506.2449 2042.5415,-516.0624 2049.5332,-516.4035"/>
</g>
<!-- Node63 -->
<g id="node45" class="node">
<title>Node63</title>
<polygon fill="none" stroke="#bfbfbf" points="2766,-487 2766,-506 2824,-506 2824,-487 2766,-487"/>
<text text-anchor="middle" x="2795" y="-494" font-family="FreeSans.ttf" font-size="10.00" fill="#000000">memory</text>
</g>
<!-- Node61&#45;&gt;Node63 -->
<g id="edge113" class="edge">
<title>Node61&#45;&gt;Node63</title>
<path fill="none" stroke="#191970" d="M2132.1326,-548.8274C2135.4631,-548.5378 2138.7611,-548.2607 2142,-548 2412.7073,-526.2103 2485.9641,-566.6092 2752,-512 2755.447,-511.2924 2758.99,-510.3649 2762.4924,-509.3149"/>
<polygon fill="#191970" stroke="#191970" points="2763.7534,-512.5842 2772.1417,-506.1122 2761.5483,-505.9406 2763.7534,-512.5842"/>
</g>
<!-- Node62&#45;&gt;Node5 -->
<g id="edge108" class="edge">
<title>Node62&#45;&gt;Node5</title>
<path fill="none" stroke="#191970" d="M2122.5887,-493.361C2247.5843,-487.4598 2491.6332,-472.7355 2573,-445 2634.0387,-424.1937 2716.5392,-400.1367 2680,-347 2510.6712,-100.7554 2342.3134,-174.1412 2050,-112 1871.9411,-74.1475 1823.2014,-93.4307 1642,-76 1620.7071,-73.9517 1596.7787,-71.4596 1578.1378,-69.4757"/>
<polygon fill="#191970" stroke="#191970" points="1578.4208,-65.9861 1568.1053,-68.4027 1577.6764,-72.9464 1578.4208,-65.9861"/>
</g>
<!-- Node62&#45;&gt;Node20 -->
<g id="edge109" class="edge">
<title>Node62&#45;&gt;Node20</title>
<path fill="none" stroke="#191970" d="M2039.5083,-486.8159C2025.3954,-469.3 1993.0298,-432.4634 1957,-414 1887.1067,-378.1834 1833.5546,-438.9281 1784,-378 1775.3065,-367.3112 1775.8967,-358.1429 1784,-347 1787.3106,-342.4475 1851.5565,-322.88 1892.4861,-310.7795"/>
<polygon fill="#191970" stroke="#191970" points="1893.7347,-314.0605 1902.3383,-307.8777 1891.7569,-307.3457 1893.7347,-314.0605"/>
</g>
<!-- Node62&#45;&gt;Node24 -->
<g id="edge112" class="edge">
<title>Node62&#45;&gt;Node24</title>
<path fill="none" stroke="#191970" d="M2122.5133,-493.4512C2271.0383,-485.7021 2592.6054,-459.6705 2660,-378 2709.0974,-318.5025 2608.2435,-303.8042 2572,-291 2504.5266,-267.1628 2307.2056,-251.4204 2195.4972,-244.15"/>
<polygon fill="#191970" stroke="#191970" points="2195.4959,-240.6428 2185.2919,-243.4939 2195.0467,-247.6284 2195.4959,-240.6428"/>
</g>
<!-- Node62&#45;&gt;Node26 -->
<g id="edge111" class="edge">
<title>Node62&#45;&gt;Node26</title>
<path fill="none" stroke="#191970" d="M2061.9007,-486.9005C2079.0453,-475.8554 2107.4168,-457.5776 2127.5345,-444.6172"/>
<polygon fill="#191970" stroke="#191970" points="2129.616,-447.4397 2136.127,-439.0817 2125.8249,-441.5552 2129.616,-447.4397"/>
</g>
<!-- Node62&#45;&gt;Node57 -->
<g id="edge110" class="edge">
<title>Node62&#45;&gt;Node57</title>
<path fill="none" stroke="#191970" d="M1979.4347,-486.9773C1961.4504,-484.7188 1942.0149,-482.5256 1924,-481 1558.2934,-450.0306 1461.9831,-499.2558 1099,-445 981.4061,-427.423 926.5919,-459.4809 840,-378 824.2144,-363.1461 818.3751,-338.2449 816.2273,-320.7923"/>
<polygon fill="#191970" stroke="#191970" points="819.6888,-320.2141 815.2814,-310.5795 812.7186,-320.8597 819.6888,-320.2141"/>
</g>
<!-- Node64&#45;&gt;Node4 -->
<g id="edge120" class="edge">
<title>Node64&#45;&gt;Node4</title>
<path fill="none" stroke="#191970" d="M395.1685,-419.8214C386.5332,-403.2683 367.0805,-369.1656 343,-347 328.8456,-333.9711 310.3685,-323.0442 294.7381,-315.1138"/>
<polygon fill="#191970" stroke="#191970" points="295.9595,-311.8153 285.438,-310.5713 292.8873,-318.1051 295.9595,-311.8153"/>
</g>
<!-- Node64&#45;&gt;Node5 -->
<g id="edge117" class="edge">
<title>Node64&#45;&gt;Node5</title>
<path fill="none" stroke="#191970" d="M487.6928,-422.6754C559.8564,-415.4541 654.9718,-401.7353 685,-378 718.102,-351.8351 691.4646,-319.0333 723,-291 739.4174,-276.4058 1161.4457,-154.3421 1330,-112 1394.7901,-95.7243 1471.4431,-80.295 1513.7991,-72.0993"/>
<polygon fill="#191970" stroke="#191970" points="1514.6418,-75.5014 1523.8005,-70.1753 1513.3194,-68.6275 1514.6418,-75.5014"/>
</g>
<!-- Node64&#45;&gt;Node6 -->
<g id="edge121" class="edge">
<title>Node64&#45;&gt;Node6</title>
<path fill="none" stroke="#191970" d="M312.4473,-424.0085C245.0951,-417.742 159.9393,-404.6716 138,-378 76.0362,-302.6706 175.7598,-183.5961 217.7544,-139.3262"/>
<polygon fill="#191970" stroke="#191970" points="220.4416,-141.5821 224.8719,-131.958 215.4069,-136.7188 220.4416,-141.5821"/>
</g>
<!-- Node64&#45;&gt;Node9 -->
<g id="edge123" class="edge">
<title>Node64&#45;&gt;Node9</title>
<path fill="none" stroke="#191970" d="M312.2977,-425.1572C239.1844,-419.5213 143.0724,-406.7339 118,-378 70.6677,-323.7556 109.5683,-153.7874 150,-112 167.8759,-93.5248 229.1507,-81.2616 279.2159,-74.0777"/>
<polygon fill="#191970" stroke="#191970" points="279.9627,-77.5077 289.386,-72.6649 278.9995,-70.5742 279.9627,-77.5077"/>
</g>
<!-- Node64&#45;&gt;Node17 -->
<g id="edge122" class="edge">
<title>Node64&#45;&gt;Node17</title>
<path fill="none" stroke="#191970" d="M312.3287,-420.9574C255.5492,-413.4187 188.9541,-400.1002 171,-378 146.6173,-347.9868 154.7651,-326.5416 170,-291 215.4542,-184.9597 255.3275,-164.6211 358,-112 387.7983,-96.7279 471.2857,-83.0515 532.3271,-74.6582"/>
<polygon fill="#191970" stroke="#191970" points="532.8607,-78.1179 542.2998,-73.3061 531.9202,-71.1814 532.8607,-78.1179"/>
</g>
<!-- Node64&#45;&gt;Node20 -->
<g id="edge118" class="edge">
<title>Node64&#45;&gt;Node20</title>
<path fill="none" stroke="#191970" d="M487.5206,-426.8579C702.7464,-420.0849 1253.5348,-401.0072 1436,-378 1504.4046,-369.3748 1520.0271,-358.5439 1588,-347 1698.7078,-328.1984 1830.8479,-312.0127 1891.9353,-304.8826"/>
<polygon fill="#191970" stroke="#191970" points="1892.6201,-308.3267 1902.1502,-303.6976 1891.8135,-301.3733 1892.6201,-308.3267"/>
</g>
<!-- Node64&#45;&gt;Node24 -->
<g id="edge124" class="edge">
<title>Node64&#45;&gt;Node24</title>
<path fill="none" stroke="#191970" d="M487.6368,-427.1085C642.3441,-422.2392 973.8237,-408.9027 1252,-378 1337.4739,-368.5047 1357.7746,-358.5147 1443,-347 1590.522,-327.0685 1634.1155,-356.0422 1776,-311 1793.4454,-305.4618 1794.729,-297.06 1812,-291 1885.6844,-265.1458 1974.1062,-252.0341 2036.543,-245.5379"/>
<polygon fill="#191970" stroke="#191970" points="2037.1227,-248.9974 2046.7219,-244.5135 2036.4217,-242.0326 2037.1227,-248.9974"/>
</g>
<!-- Node64&#45;&gt;Node35 -->
<g id="edge119" class="edge">
<title>Node64&#45;&gt;Node35</title>
<path fill="none" stroke="#191970" d="M406.267,-419.9599C434.7165,-376.6519 551.9655,-198.1664 590.0164,-140.2424"/>
<polygon fill="#191970" stroke="#191970" points="593.0408,-142.0131 595.606,-131.7335 587.1902,-138.1698 593.0408,-142.0131"/>
</g>
<!-- Node64&#45;&gt;Node58 -->
<g id="edge127" class="edge">
<title>Node64&#45;&gt;Node58</title>
<path fill="none" stroke="#191970" d="M487.504,-423.8722C611.9705,-415.5631 847.2181,-398.735 1047,-378 1060.3914,-376.6101 1074.5933,-374.9547 1088.3775,-373.2514"/>
<polygon fill="#191970" stroke="#191970" points="1088.8356,-376.7215 1098.3231,-372.0058 1087.9656,-369.7757 1088.8356,-376.7215"/>
</g>
<!-- Node65 -->
<g id="node47" class="node">
<title>Node65</title>
<g id="a_node47"><a xlink:href="FreeFloatingMatrices_8h.html" target="_top" xlink:title="iDynTree/Model/FreeFloating\lMatrices.h">
<polygon fill="none" stroke="#000000" points="180,-347.5 180,-377.5 334,-377.5 334,-347.5 180,-347.5"/>
<text text-anchor="start" x="188" y="-365.5" font-family="FreeSans.ttf" font-size="10.00" fill="#000000">iDynTree/Model/FreeFloating</text>
<text text-anchor="middle" x="257" y="-354.5" font-family="FreeSans.ttf" font-size="10.00" fill="#000000">Matrices.h</text>
</a>
</g>
</g>
<!-- Node64&#45;&gt;Node65 -->
<g id="edge125" class="edge">
<title>Node64&#45;&gt;Node65</title>
<path fill="none" stroke="#191970" d="M379.5116,-419.9005C358.3722,-409.9961 324.8196,-394.2756 298.1687,-381.7888"/>
<polygon fill="#191970" stroke="#191970" points="299.6017,-378.5952 289.0614,-377.5218 296.6318,-384.9339 299.6017,-378.5952"/>
</g>
<!-- Node65&#45;&gt;Node4 -->
<g id="edge126" class="edge">
<title>Node65&#45;&gt;Node4</title>
<path fill="none" stroke="#191970" d="M258.4831,-347.2977C259.2553,-339.3834 260.2093,-329.6043 261.0414,-321.0759"/>
<polygon fill="#191970" stroke="#191970" points="264.5517,-321.1396 262.0393,-310.8469 257.5848,-320.4598 264.5517,-321.1396"/>
</g>
<!-- Node66&#45;&gt;Node5 -->
<g id="edge129" class="edge">
<title>Node66&#45;&gt;Node5</title>
<path fill="none" stroke="#191970" d="M1935.0257,-548.5011C2115.1766,-525.4706 2562.0899,-466.9417 2627,-445 2698.7094,-420.7599 2776,-438.1956 2776,-362.5 2776,-362.5 2776,-362.5 2776,-178 2776,-116.0169 1772.3088,-74.6234 1578.2596,-67.1998"/>
<polygon fill="#191970" stroke="#191970" points="1578.2599,-63.6974 1568.1342,-66.8153 1577.9942,-70.6924 1578.2599,-63.6974"/>
</g>
<!-- Node66&#45;&gt;Node67 -->
<g id="edge130" class="edge">
<title>Node66&#45;&gt;Node67</title>
<path fill="none" stroke="#191970" d="M1860,-548.3906C1860,-539.8657 1860,-527.1392 1860,-516.4235"/>
<polygon fill="#191970" stroke="#191970" points="1863.5001,-516.2448 1860,-506.2449 1856.5001,-516.2449 1863.5001,-516.2448"/>
</g>
</g>
</svg>
