<?xml version="1.0" encoding="UTF-8" standalone="no"?>
<!DOCTYPE svg PUBLIC "-//W3C//DTD SVG 1.1//EN"
 "http://www.w3.org/Graphics/SVG/1.1/DTD/svg11.dtd">
<!-- Generated by graphviz version 2.40.1 (20161225.0304)
 -->
<!-- Title: AttitudeQuaternionEKF.h Pages: 1 -->
<svg width="1014pt" height="442pt"
 viewBox="0.00 0.00 1013.50 442.00" xmlns="http://www.w3.org/2000/svg" xmlns:xlink="http://www.w3.org/1999/xlink">
<g id="graph0" class="graph" transform="scale(1 1) rotate(0) translate(4 438)">
<title>AttitudeQuaternionEKF.h</title>
<!-- Node0 -->
<g id="node1" class="node">
<title>Node0</title>
<polygon fill="#bfbfbf" stroke="#000000" points="714.5,-414.5 714.5,-433.5 849.5,-433.5 849.5,-414.5 714.5,-414.5"/>
<text text-anchor="middle" x="782" y="-421.5" font-family="FreeSans.ttf" font-size="10.00" fill="#000000">AttitudeQuaternionEKF.h</text>
</g>
<!-- Node1 -->
<g id="node2" class="node">
<title>Node1</title>
<g id="a_node2"><a xlink:href="AttitudeEstimator_8h.html" target="_top" xlink:title="iDynTree/Estimation\l/AttitudeEstimator.h">
<polygon fill="none" stroke="#000000" points="551.5,-347.5 551.5,-377.5 666.5,-377.5 666.5,-347.5 551.5,-347.5"/>
<text text-anchor="start" x="559.5" y="-365.5" font-family="FreeSans.ttf" font-size="10.00" fill="#000000">iDynTree/Estimation</text>
<text text-anchor="middle" x="609" y="-354.5" font-family="FreeSans.ttf" font-size="10.00" fill="#000000">/AttitudeEstimator.h</text>
</a>
</g>
</g>
<!-- Node0&#45;&gt;Node1 -->
<g id="edge1" class="edge">
<title>Node0&#45;&gt;Node1</title>
<path fill="none" stroke="#191970" d="M754.9688,-414.3906C729.9294,-405.4893 692.0043,-392.0073 661.0871,-381.0165"/>
<polygon fill="#191970" stroke="#191970" points="661.9153,-377.5964 651.3206,-377.5446 659.5705,-384.192 661.9153,-377.5964"/>
</g>
<!-- Node24 -->
<g id="node25" class="node">
<title>Node24</title>
<g id="a_node25"><a xlink:href="ExtendedKalmanFilter_8h.html" target="_top" xlink:title="iDynTree/Estimation\l/ExtendedKalmanFilter.h">
<polygon fill="none" stroke="#000000" points="870.5,-224.5 870.5,-254.5 1005.5,-254.5 1005.5,-224.5 870.5,-224.5"/>
<text text-anchor="start" x="878.5" y="-242.5" font-family="FreeSans.ttf" font-size="10.00" fill="#000000">iDynTree/Estimation</text>
<text text-anchor="middle" x="938" y="-231.5" font-family="FreeSans.ttf" font-size="10.00" fill="#000000">/ExtendedKalmanFilter.h</text>
</a>
</g>
</g>
<!-- Node0&#45;&gt;Node24 -->
<g id="edge41" class="edge">
<title>Node0&#45;&gt;Node24</title>
<path fill="none" stroke="#191970" d="M790.1676,-414.3402C814.0386,-386.1082 884.1661,-303.1689 918.5472,-262.5067"/>
<polygon fill="#191970" stroke="#191970" points="921.3333,-264.6324 925.1172,-254.7363 915.9879,-260.1127 921.3333,-264.6324"/>
</g>
<!-- Node28 -->
<g id="node29" class="node">
<title>Node28</title>
<g id="a_node29"><a xlink:href="Direction_8h.html" target="_top" xlink:title="iDynTree/Core/Direction.h">
<polygon fill="none" stroke="#000000" points="711.5,-230 711.5,-249 852.5,-249 852.5,-230 711.5,-230"/>
<text text-anchor="middle" x="782" y="-237" font-family="FreeSans.ttf" font-size="10.00" fill="#000000">iDynTree/Core/Direction.h</text>
</a>
</g>
</g>
<!-- Node0&#45;&gt;Node28 -->
<g id="edge50" class="edge">
<title>Node0&#45;&gt;Node28</title>
<path fill="none" stroke="#191970" d="M782,-414.3402C782,-385.3223 782,-298.5088 782,-259.2113"/>
<polygon fill="#191970" stroke="#191970" points="785.5001,-259.0641 782,-249.0641 778.5001,-259.0642 785.5001,-259.0641"/>
</g>
<!-- Node2 -->
<g id="node3" class="node">
<title>Node2</title>
<g id="a_node3"><a xlink:href="VectorFixSize_8h.html" target="_top" xlink:title="iDynTree/Core/VectorFixSize.h">
<polygon fill="none" stroke="#000000" points="233.5,-168.5 233.5,-187.5 394.5,-187.5 394.5,-168.5 233.5,-168.5"/>
<text text-anchor="middle" x="314" y="-175.5" font-family="FreeSans.ttf" font-size="10.00" fill="#000000">iDynTree/Core/VectorFixSize.h</text>
</a>
</g>
</g>
<!-- Node1&#45;&gt;Node2 -->
<g id="edge2" class="edge">
<title>Node1&#45;&gt;Node2</title>
<path fill="none" stroke="#191970" d="M617.3556,-347.4606C631.6358,-319.5096 656.3966,-259.2068 626,-224 611.5874,-207.3067 491.7286,-193.4048 404.8635,-185.3931"/>
<polygon fill="#191970" stroke="#191970" points="404.9853,-181.8899 394.7093,-184.4694 404.3511,-188.8611 404.9853,-181.8899"/>
</g>
<!-- Node18 -->
<g id="node19" class="node">
<title>Node18</title>
<g id="a_node19"><a xlink:href="Rotation_8h.html" target="_top" xlink:title="iDynTree/Core/Rotation.h">
<polygon fill="none" stroke="#000000" points="466.5,-291.5 466.5,-310.5 603.5,-310.5 603.5,-291.5 466.5,-291.5"/>
<text text-anchor="middle" x="535" y="-298.5" font-family="FreeSans.ttf" font-size="10.00" fill="#000000">iDynTree/Core/Rotation.h</text>
</a>
</g>
</g>
<!-- Node1&#45;&gt;Node18 -->
<g id="edge21" class="edge">
<title>Node1&#45;&gt;Node18</title>
<path fill="none" stroke="#191970" d="M590.7079,-347.2977C579.7939,-338.2274 565.9329,-326.7077 554.7676,-317.4285"/>
<polygon fill="#191970" stroke="#191970" points="556.7762,-314.5468 546.8483,-310.8469 552.302,-319.9303 556.7762,-314.5468"/>
</g>
<!-- Node23 -->
<g id="node24" class="node">
<title>Node23</title>
<polygon fill="none" stroke="#bfbfbf" points="0,-112.5 0,-131.5 60,-131.5 60,-112.5 0,-112.5"/>
<text text-anchor="middle" x="30" y="-119.5" font-family="FreeSans.ttf" font-size="10.00" fill="#000000">iostream</text>
</g>
<!-- Node1&#45;&gt;Node23 -->
<g id="edge40" class="edge">
<title>Node1&#45;&gt;Node23</title>
<path fill="none" stroke="#191970" d="M551.2726,-352.1945C421.924,-327.9573 114.7319,-263.6431 45,-188 33.688,-175.7291 30.3108,-156.7585 29.5458,-142.2995"/>
<polygon fill="#191970" stroke="#191970" points="33.0393,-141.8318 29.3906,-131.8851 26.0401,-141.9361 33.0393,-141.8318"/>
</g>
<!-- Node3 -->
<g id="node4" class="node">
<title>Node3</title>
<g id="a_node4"><a xlink:href="Utils_8h.html" target="_top" xlink:title="iDynTree/Core/Utils.h">
<polygon fill="none" stroke="#000000" points="611.5,-56.5 611.5,-75.5 730.5,-75.5 730.5,-56.5 611.5,-56.5"/>
<text text-anchor="middle" x="671" y="-63.5" font-family="FreeSans.ttf" font-size="10.00" fill="#000000">iDynTree/Core/Utils.h</text>
</a>
</g>
</g>
<!-- Node2&#45;&gt;Node3 -->
<g id="edge3" class="edge">
<title>Node2&#45;&gt;Node3</title>
<path fill="none" stroke="#191970" d="M386.8783,-168.4955C451.3081,-159.4681 540.0285,-145.3314 573,-132 603.1789,-119.7977 633.6013,-97.3614 652.3681,-82.0684"/>
<polygon fill="#191970" stroke="#191970" points="654.6828,-84.6955 660.1278,-75.6069 650.2035,-79.3163 654.6828,-84.6955"/>
</g>
<!-- Node4 -->
<g id="node5" class="node">
<title>Node4</title>
<polygon fill="none" stroke="#bfbfbf" points="644.5,-.5 644.5,-19.5 697.5,-19.5 697.5,-.5 644.5,-.5"/>
<text text-anchor="middle" x="671" y="-7.5" font-family="FreeSans.ttf" font-size="10.00" fill="#000000">cstddef</text>
</g>
<!-- Node2&#45;&gt;Node4 -->
<g id="edge19" class="edge">
<title>Node2&#45;&gt;Node4</title>
<path fill="none" stroke="#191970" d="M386.2427,-168.4798C441.9174,-160.182 513.5521,-147.126 539,-132 576.9597,-109.4371 570.1773,-85.5414 603,-56 615.9976,-44.3018 632.1552,-33.2511 645.4587,-24.914"/>
<polygon fill="#191970" stroke="#191970" points="647.4368,-27.8069 654.1389,-19.6012 643.7825,-21.8364 647.4368,-27.8069"/>
</g>
<!-- Node6 -->
<g id="node7" class="node">
<title>Node6</title>
<g id="a_node7"><a xlink:href="Span_8h.html" target="_top" xlink:title="iDynTree/Core/Span.h">
<polygon fill="none" stroke="#000000" points="372.5,-56.5 372.5,-75.5 493.5,-75.5 493.5,-56.5 372.5,-56.5"/>
<text text-anchor="middle" x="433" y="-63.5" font-family="FreeSans.ttf" font-size="10.00" fill="#000000">iDynTree/Core/Span.h</text>
</a>
</g>
</g>
<!-- Node2&#45;&gt;Node6 -->
<g id="edge6" class="edge">
<title>Node2&#45;&gt;Node6</title>
<path fill="none" stroke="#191970" d="M320.9721,-168.4245C330.9881,-155.0061 350.4091,-130.2118 370,-112 382.1321,-100.7219 397.0526,-89.7201 409.3276,-81.305"/>
<polygon fill="#191970" stroke="#191970" points="411.3706,-84.149 417.7203,-75.6678 407.4675,-78.3381 411.3706,-84.149"/>
</g>
<!-- Node7 -->
<g id="node8" class="node">
<title>Node7</title>
<polygon fill="none" stroke="#bfbfbf" points="65,-.5 65,-19.5 117,-19.5 117,-.5 65,-.5"/>
<text text-anchor="middle" x="91" y="-7.5" font-family="FreeSans.ttf" font-size="10.00" fill="#000000">cassert</text>
</g>
<!-- Node2&#45;&gt;Node7 -->
<g id="edge18" class="edge">
<title>Node2&#45;&gt;Node7</title>
<path fill="none" stroke="#191970" d="M312.7493,-168.3543C310.4864,-154.4004 304.5198,-128.4565 290,-112 266.4618,-85.3224 174.6255,-44.5615 124.3511,-23.5573"/>
<polygon fill="#191970" stroke="#191970" points="125.4609,-20.2285 114.883,-19.6299 122.7788,-26.6943 125.4609,-20.2285"/>
</g>
<!-- Node15 -->
<g id="node16" class="node">
<title>Node15</title>
<polygon fill="none" stroke="#bfbfbf" points="625,-112.5 625,-131.5 669,-131.5 669,-112.5 625,-112.5"/>
<text text-anchor="middle" x="647" y="-119.5" font-family="FreeSans.ttf" font-size="10.00" fill="#000000">string</text>
</g>
<!-- Node2&#45;&gt;Node15 -->
<g id="edge16" class="edge">
<title>Node2&#45;&gt;Node15</title>
<path fill="none" stroke="#191970" d="M392.0003,-168.4639C452.1711,-160.4949 537.2966,-147.8869 611,-132 612.2484,-131.7309 613.5177,-131.4441 614.7973,-131.1438"/>
<polygon fill="#191970" stroke="#191970" points="615.7991,-134.5006 624.6324,-128.6506 614.079,-127.7152 615.7991,-134.5006"/>
</g>
<!-- Node16 -->
<g id="node17" class="node">
<title>Node16</title>
<polygon fill="none" stroke="#bfbfbf" points="157,-112.5 157,-131.5 213,-131.5 213,-112.5 157,-112.5"/>
<text text-anchor="middle" x="185" y="-119.5" font-family="FreeSans.ttf" font-size="10.00" fill="#000000">sstream</text>
</g>
<!-- Node2&#45;&gt;Node16 -->
<g id="edge17" class="edge">
<title>Node2&#45;&gt;Node16</title>
<path fill="none" stroke="#191970" d="M291.8241,-168.3733C271.0234,-159.3435 239.7083,-145.7494 216.3542,-135.6111"/>
<polygon fill="#191970" stroke="#191970" points="217.4532,-132.2727 206.8865,-131.5011 214.6657,-138.6938 217.4532,-132.2727"/>
</g>
<!-- Node17 -->
<g id="node18" class="node">
<title>Node17</title>
<polygon fill="none" stroke="#bfbfbf" points="231,-112.5 231,-131.5 281,-131.5 281,-112.5 231,-112.5"/>
<text text-anchor="middle" x="256" y="-119.5" font-family="FreeSans.ttf" font-size="10.00" fill="#000000">cstring</text>
</g>
<!-- Node2&#45;&gt;Node17 -->
<g id="edge20" class="edge">
<title>Node2&#45;&gt;Node17</title>
<path fill="none" stroke="#191970" d="M303.8972,-168.2455C295.4972,-160.1352 283.3506,-148.4075 273.3916,-138.7919"/>
<polygon fill="#191970" stroke="#191970" points="275.6122,-136.0707 265.9871,-131.6427 270.75,-141.1066 275.6122,-136.0707"/>
</g>
<!-- Node3&#45;&gt;Node4 -->
<g id="edge4" class="edge">
<title>Node3&#45;&gt;Node4</title>
<path fill="none" stroke="#191970" d="M671,-56.2455C671,-48.9382 671,-38.6944 671,-29.7046"/>
<polygon fill="#191970" stroke="#191970" points="674.5001,-29.6426 671,-19.6427 667.5001,-29.6427 674.5001,-29.6426"/>
</g>
<!-- Node5 -->
<g id="node6" class="node">
<title>Node5</title>
<polygon fill="none" stroke="#bfbfbf" points="716,-.5 716,-19.5 796,-19.5 796,-.5 716,-.5"/>
<text text-anchor="middle" x="756" y="-7.5" font-family="FreeSans.ttf" font-size="10.00" fill="#000000">CoreExport.h</text>
</g>
<!-- Node3&#45;&gt;Node5 -->
<g id="edge5" class="edge">
<title>Node3&#45;&gt;Node5</title>
<path fill="none" stroke="#191970" d="M685.8059,-56.2455C698.7256,-47.7337 717.6931,-35.2375 732.6552,-25.3801"/>
<polygon fill="#191970" stroke="#191970" points="734.9387,-28.067 741.3638,-19.6427 731.0876,-22.2216 734.9387,-28.067"/>
</g>
<!-- Node6&#45;&gt;Node4 -->
<g id="edge10" class="edge">
<title>Node6&#45;&gt;Node4</title>
<path fill="none" stroke="#191970" d="M478.3234,-56.4832C517.4019,-48.1085 575.5538,-35.2449 634.4487,-20.31"/>
<polygon fill="#191970" stroke="#191970" points="635.4656,-23.6627 644.2885,-17.7968 633.7333,-16.8804 635.4656,-23.6627"/>
</g>
<!-- Node6&#45;&gt;Node7 -->
<g id="edge7" class="edge">
<title>Node6&#45;&gt;Node7</title>
<path fill="none" stroke="#191970" d="M372.4619,-57.8783C301.1058,-48.149 185.7658,-31.8962 127.195,-19.9977"/>
<polygon fill="#191970" stroke="#191970" points="127.7882,-16.5458 117.2807,-17.9039 126.3417,-23.3947 127.7882,-16.5458"/>
</g>
<!-- Node8 -->
<g id="node9" class="node">
<title>Node8</title>
<polygon fill="none" stroke="#bfbfbf" points="135,-.5 135,-19.5 199,-19.5 199,-.5 135,-.5"/>
<text text-anchor="middle" x="167" y="-7.5" font-family="FreeSans.ttf" font-size="10.00" fill="#000000">algorithm</text>
</g>
<!-- Node6&#45;&gt;Node8 -->
<g id="edge8" class="edge">
<title>Node6&#45;&gt;Node8</title>
<path fill="none" stroke="#191970" d="M383.7275,-56.4797C340.2962,-47.9634 275.059,-34.8699 209.3263,-20.24"/>
<polygon fill="#191970" stroke="#191970" points="209.7251,-16.7428 199.2022,-17.9752 208.1969,-23.5739 209.7251,-16.7428"/>
</g>
<!-- Node9 -->
<g id="node10" class="node">
<title>Node9</title>
<polygon fill="none" stroke="#bfbfbf" points="217,-.5 217,-19.5 259,-19.5 259,-.5 217,-.5"/>
<text text-anchor="middle" x="238" y="-7.5" font-family="FreeSans.ttf" font-size="10.00" fill="#000000">array</text>
</g>
<!-- Node6&#45;&gt;Node9 -->
<g id="edge9" class="edge">
<title>Node6&#45;&gt;Node9</title>
<path fill="none" stroke="#191970" d="M397.375,-56.4335C364.0774,-47.3913 313.0265,-33.2701 269,-20 268.9019,-19.9704 268.8036,-19.9408 268.7051,-19.911"/>
<polygon fill="#191970" stroke="#191970" points="269.8997,-16.6172 259.3115,-16.994 267.8237,-23.3023 269.8997,-16.6172"/>
</g>
<!-- Node10 -->
<g id="node11" class="node">
<title>Node10</title>
<polygon fill="none" stroke="#bfbfbf" points="277.5,-.5 277.5,-19.5 330.5,-19.5 330.5,-.5 277.5,-.5"/>
<text text-anchor="middle" x="304" y="-7.5" font-family="FreeSans.ttf" font-size="10.00" fill="#000000">iterator</text>
</g>
<!-- Node6&#45;&gt;Node10 -->
<g id="edge11" class="edge">
<title>Node6&#45;&gt;Node10</title>
<path fill="none" stroke="#191970" d="M410.8241,-56.3733C390.0234,-47.3435 358.7083,-33.7494 335.3542,-23.6111"/>
<polygon fill="#191970" stroke="#191970" points="336.4532,-20.2727 325.8865,-19.5011 333.6657,-26.6938 336.4532,-20.2727"/>
</g>
<!-- Node11 -->
<g id="node12" class="node">
<title>Node11</title>
<polygon fill="none" stroke="#bfbfbf" points="349,-.5 349,-19.5 393,-19.5 393,-.5 349,-.5"/>
<text text-anchor="middle" x="371" y="-7.5" font-family="FreeSans.ttf" font-size="10.00" fill="#000000">limits</text>
</g>
<!-- Node6&#45;&gt;Node11 -->
<g id="edge12" class="edge">
<title>Node6&#45;&gt;Node11</title>
<path fill="none" stroke="#191970" d="M422.2004,-56.2455C413.1322,-48.0549 399.9794,-36.1749 389.2755,-26.5069"/>
<polygon fill="#191970" stroke="#191970" points="391.4429,-23.7482 381.6758,-19.6427 386.7509,-28.9429 391.4429,-23.7482"/>
</g>
<!-- Node12 -->
<g id="node13" class="node">
<title>Node12</title>
<polygon fill="none" stroke="#bfbfbf" points="411.5,-.5 411.5,-19.5 476.5,-19.5 476.5,-.5 411.5,-.5"/>
<text text-anchor="middle" x="444" y="-7.5" font-family="FreeSans.ttf" font-size="10.00" fill="#000000">stdexcept</text>
</g>
<!-- Node6&#45;&gt;Node12 -->
<g id="edge13" class="edge">
<title>Node6&#45;&gt;Node12</title>
<path fill="none" stroke="#191970" d="M434.9161,-56.2455C436.3514,-48.9382 438.3636,-38.6944 440.1295,-29.7046"/>
<polygon fill="#191970" stroke="#191970" points="443.6127,-30.1298 442.1059,-19.6427 436.744,-28.7805 443.6127,-30.1298"/>
</g>
<!-- Node13 -->
<g id="node14" class="node">
<title>Node13</title>
<polygon fill="none" stroke="#bfbfbf" points="557.5,-.5 557.5,-19.5 626.5,-19.5 626.5,-.5 557.5,-.5"/>
<text text-anchor="middle" x="592" y="-7.5" font-family="FreeSans.ttf" font-size="10.00" fill="#000000">type_traits</text>
</g>
<!-- Node6&#45;&gt;Node13 -->
<g id="edge14" class="edge">
<title>Node6&#45;&gt;Node13</title>
<path fill="none" stroke="#191970" d="M460.3331,-56.3733C486.5434,-47.1419 526.2984,-33.1402 555.2668,-22.9375"/>
<polygon fill="#191970" stroke="#191970" points="556.7542,-26.1244 565.0236,-19.5011 554.4288,-19.5219 556.7542,-26.1244"/>
</g>
<!-- Node14 -->
<g id="node15" class="node">
<title>Node14</title>
<polygon fill="none" stroke="#bfbfbf" points="494.5,-.5 494.5,-19.5 539.5,-19.5 539.5,-.5 494.5,-.5"/>
<text text-anchor="middle" x="517" y="-7.5" font-family="FreeSans.ttf" font-size="10.00" fill="#000000">utility</text>
</g>
<!-- Node6&#45;&gt;Node14 -->
<g id="edge15" class="edge">
<title>Node6&#45;&gt;Node14</title>
<path fill="none" stroke="#191970" d="M447.6317,-56.2455C460.3994,-47.7337 479.1438,-35.2375 493.9299,-25.3801"/>
<polygon fill="#191970" stroke="#191970" points="496.1569,-28.1019 502.536,-19.6427 492.274,-22.2775 496.1569,-28.1019"/>
</g>
<!-- Node18&#45;&gt;Node2 -->
<g id="edge39" class="edge">
<title>Node18&#45;&gt;Node2</title>
<path fill="none" stroke="#191970" d="M466.2189,-293.7478C391.4078,-285.1529 280.7094,-270.0862 268,-255 251.8472,-235.8264 274.2057,-210.3143 293.0242,-194.02"/>
<polygon fill="#191970" stroke="#191970" points="295.2635,-196.71 300.75,-187.6464 290.8089,-191.3103 295.2635,-196.71"/>
</g>
<!-- Node18&#45;&gt;Node15 -->
<g id="edge22" class="edge">
<title>Node18&#45;&gt;Node15</title>
<path fill="none" stroke="#191970" d="M571.4047,-291.4072C590.615,-284.4523 612.8649,-273.0272 626,-255 650.5611,-221.2913 651.0871,-169.9664 649.1502,-141.9538"/>
<polygon fill="#191970" stroke="#191970" points="652.6212,-141.468 648.2657,-131.8098 645.6476,-142.0761 652.6212,-141.468"/>
</g>
<!-- Node19 -->
<g id="node20" class="node">
<title>Node19</title>
<g id="a_node20"><a xlink:href="GeomVector3_8h.html" target="_top" xlink:title="iDynTree/Core/GeomVector3.h">
<polygon fill="none" stroke="#000000" points="453.5,-230 453.5,-249 616.5,-249 616.5,-230 453.5,-230"/>
<text text-anchor="middle" x="535" y="-237" font-family="FreeSans.ttf" font-size="10.00" fill="#000000">iDynTree/Core/GeomVector3.h</text>
</a>
</g>
</g>
<!-- Node18&#45;&gt;Node19 -->
<g id="edge23" class="edge">
<title>Node18&#45;&gt;Node19</title>
<path fill="none" stroke="#191970" d="M535,-291.3906C535,-282.8657 535,-270.1392 535,-259.4235"/>
<polygon fill="#191970" stroke="#191970" points="538.5001,-259.2448 535,-249.2449 531.5001,-259.2449 538.5001,-259.2448"/>
</g>
<!-- Node20 -->
<g id="node21" class="node">
<title>Node20</title>
<g id="a_node21"><a xlink:href="RotationRaw_8h.html" target="_top" xlink:title="iDynTree/Core/RotationRaw.h">
<polygon fill="none" stroke="#000000" points="277,-230 277,-249 435,-249 435,-230 277,-230"/>
<text text-anchor="middle" x="356" y="-237" font-family="FreeSans.ttf" font-size="10.00" fill="#000000">iDynTree/Core/RotationRaw.h</text>
</a>
</g>
</g>
<!-- Node18&#45;&gt;Node20 -->
<g id="edge25" class="edge">
<title>Node18&#45;&gt;Node20</title>
<path fill="none" stroke="#191970" d="M507.0313,-291.3906C476.4245,-280.8749 427.2101,-263.966 393.3259,-252.3243"/>
<polygon fill="#191970" stroke="#191970" points="394.367,-248.9812 383.7724,-249.0419 392.0924,-255.6014 394.367,-248.9812"/>
</g>
<!-- Node19&#45;&gt;Node2 -->
<g id="edge24" class="edge">
<title>Node19&#45;&gt;Node2</title>
<path fill="none" stroke="#191970" d="M500.4688,-229.8906C462.0318,-219.1944 399.8256,-201.8836 357.9464,-190.2294"/>
<polygon fill="#191970" stroke="#191970" points="358.8611,-186.851 348.2888,-187.5419 356.9843,-193.5948 358.8611,-186.851"/>
</g>
<!-- Node20&#45;&gt;Node15 -->
<g id="edge38" class="edge">
<title>Node20&#45;&gt;Node15</title>
<path fill="none" stroke="#191970" d="M364.4855,-229.922C378.8319,-214.366 409.5076,-183.7653 442,-168 511.0929,-134.4762 536.4124,-150.2856 611,-132 612.2758,-131.6872 613.575,-131.3614 614.8859,-131.0265"/>
<polygon fill="#191970" stroke="#191970" points="616.2044,-134.2977 624.9712,-128.3485 614.4078,-127.5322 616.2044,-134.2977"/>
</g>
<!-- Node21 -->
<g id="node22" class="node">
<title>Node21</title>
<g id="a_node22"><a xlink:href="MatrixFixSize_8h.html" target="_top" xlink:title="iDynTree/Core/MatrixFixSize.h">
<polygon fill="none" stroke="#000000" points="54.5,-168.5 54.5,-187.5 215.5,-187.5 215.5,-168.5 54.5,-168.5"/>
<text text-anchor="middle" x="135" y="-175.5" font-family="FreeSans.ttf" font-size="10.00" fill="#000000">iDynTree/Core/MatrixFixSize.h</text>
</a>
</g>
</g>
<!-- Node20&#45;&gt;Node21 -->
<g id="edge26" class="edge">
<title>Node20&#45;&gt;Node21</title>
<path fill="none" stroke="#191970" d="M321.4688,-229.8906C283.0318,-219.1944 220.8256,-201.8836 178.9464,-190.2294"/>
<polygon fill="#191970" stroke="#191970" points="179.8611,-186.851 169.2888,-187.5419 177.9843,-193.5948 179.8611,-186.851"/>
</g>
<!-- Node21&#45;&gt;Node3 -->
<g id="edge27" class="edge">
<title>Node21&#45;&gt;Node3</title>
<path fill="none" stroke="#191970" d="M133.6677,-168.205C132.2893,-153.5715 132.1901,-126.2062 148,-112 156.3351,-104.5103 460.636,-81.3723 601.1596,-71.0552"/>
<polygon fill="#191970" stroke="#191970" points="601.6771,-74.5268 611.3946,-70.3052 601.1655,-67.5455 601.6771,-74.5268"/>
</g>
<!-- Node21&#45;&gt;Node7 -->
<g id="edge33" class="edge">
<title>Node21&#45;&gt;Node7</title>
<path fill="none" stroke="#191970" d="M132.5083,-168.4862C125.5228,-141.8144 105.6435,-65.9117 96.1582,-29.695"/>
<polygon fill="#191970" stroke="#191970" points="99.4934,-28.6148 93.574,-19.8279 92.7218,-30.3884 99.4934,-28.6148"/>
</g>
<!-- Node21&#45;&gt;Node15 -->
<g id="edge35" class="edge">
<title>Node21&#45;&gt;Node15</title>
<path fill="none" stroke="#191970" d="M215.9521,-168.9973C219.0068,-168.6601 222.0309,-168.3268 225,-168 370.2799,-152.0108 543.7252,-133.1885 614.5095,-125.5183"/>
<polygon fill="#191970" stroke="#191970" points="615.0164,-128.984 624.5812,-124.4271 614.2624,-122.0247 615.0164,-128.984"/>
</g>
<!-- Node21&#45;&gt;Node16 -->
<g id="edge37" class="edge">
<title>Node21&#45;&gt;Node16</title>
<path fill="none" stroke="#191970" d="M143.7093,-168.2455C150.8073,-160.2958 161.0084,-148.8706 169.495,-139.3656"/>
<polygon fill="#191970" stroke="#191970" points="172.3411,-141.4331 176.3905,-131.6427 167.1195,-136.771 172.3411,-141.4331"/>
</g>
<!-- Node21&#45;&gt;Node17 -->
<g id="edge34" class="edge">
<title>Node21&#45;&gt;Node17</title>
<path fill="none" stroke="#191970" d="M155.8006,-168.3733C175.2243,-159.3838 204.4224,-145.8706 226.2964,-135.7471"/>
<polygon fill="#191970" stroke="#191970" points="227.8656,-138.8776 235.4708,-131.5011 224.9255,-132.5249 227.8656,-138.8776"/>
</g>
<!-- Node22 -->
<g id="node23" class="node">
<title>Node22</title>
<g id="a_node23"><a xlink:href="MatrixView_8h.html" target="_top" xlink:title="iDynTree/Core/MatrixView.h">
<polygon fill="none" stroke="#000000" points="378.5,-112.5 378.5,-131.5 529.5,-131.5 529.5,-112.5 378.5,-112.5"/>
<text text-anchor="middle" x="454" y="-119.5" font-family="FreeSans.ttf" font-size="10.00" fill="#000000">iDynTree/Core/MatrixView.h</text>
</a>
</g>
</g>
<!-- Node21&#45;&gt;Node22 -->
<g id="edge28" class="edge">
<title>Node21&#45;&gt;Node22</title>
<path fill="none" stroke="#191970" d="M189.4756,-168.4369C244.9875,-158.6918 331.0529,-143.5832 389.8328,-133.2645"/>
<polygon fill="#191970" stroke="#191970" points="390.5049,-136.7001 399.7491,-131.5237 389.2945,-129.8055 390.5049,-136.7001"/>
</g>
<!-- Node21&#45;&gt;Node23 -->
<g id="edge36" class="edge">
<title>Node21&#45;&gt;Node23</title>
<path fill="none" stroke="#191970" d="M116.7104,-168.2455C100.2238,-159.4527 75.7648,-146.4079 57.0235,-136.4125"/>
<polygon fill="#191970" stroke="#191970" points="58.5506,-133.2604 48.08,-131.6427 55.2565,-139.4368 58.5506,-133.2604"/>
</g>
<!-- Node22&#45;&gt;Node3 -->
<g id="edge32" class="edge">
<title>Node22&#45;&gt;Node3</title>
<path fill="none" stroke="#191970" d="M491.3036,-112.3733C528.1685,-102.8598 584.666,-88.2797 624.4506,-78.0127"/>
<polygon fill="#191970" stroke="#191970" points="625.375,-81.3889 634.1831,-75.5011 623.6258,-74.611 625.375,-81.3889"/>
</g>
<!-- Node22&#45;&gt;Node6 -->
<g id="edge31" class="edge">
<title>Node22&#45;&gt;Node6</title>
<path fill="none" stroke="#191970" d="M450.3421,-112.2455C447.5416,-104.7776 443.591,-94.2427 440.1676,-85.1137"/>
<polygon fill="#191970" stroke="#191970" points="443.4045,-83.777 436.616,-75.6427 436.8501,-86.2349 443.4045,-83.777"/>
</g>
<!-- Node22&#45;&gt;Node7 -->
<g id="edge29" class="edge">
<title>Node22&#45;&gt;Node7</title>
<path fill="none" stroke="#191970" d="M435.2775,-112.4229C401.2818,-95.0862 331.8135,-59.9224 320,-56 239.7805,-29.3654 213.2786,-39.274 127.2366,-20.0882"/>
<polygon fill="#191970" stroke="#191970" points="127.8332,-16.6342 117.3032,-17.8044 126.2647,-23.4562 127.8332,-16.6342"/>
</g>
<!-- Node22&#45;&gt;Node13 -->
<g id="edge30" class="edge">
<title>Node22&#45;&gt;Node13</title>
<path fill="none" stroke="#191970" d="M465.7658,-112.4509C489.4955,-93.1921 543.3035,-49.5218 572.4169,-25.8935"/>
<polygon fill="#191970" stroke="#191970" points="574.705,-28.5442 580.264,-19.5249 570.2938,-23.109 574.705,-28.5442"/>
</g>
<!-- Node24&#45;&gt;Node3 -->
<g id="edge48" class="edge">
<title>Node24&#45;&gt;Node3</title>
<path fill="none" stroke="#191970" d="M961.7039,-224.4006C981.0994,-210.0936 1003.3235,-187.895 990,-168 961.6693,-125.696 822.8091,-93.5368 737.9057,-77.4404"/>
<polygon fill="#191970" stroke="#191970" points="738.303,-73.9542 727.8302,-75.5575 737.017,-80.835 738.303,-73.9542"/>
</g>
<!-- Node25 -->
<g id="node26" class="node">
<title>Node25</title>
<g id="a_node26"><a xlink:href="VectorDynSize_8h.html" target="_top" xlink:title="iDynTree/Core/VectorDynSize.h">
<polygon fill="none" stroke="#000000" points="710.5,-168.5 710.5,-187.5 877.5,-187.5 877.5,-168.5 710.5,-168.5"/>
<text text-anchor="middle" x="794" y="-175.5" font-family="FreeSans.ttf" font-size="10.00" fill="#000000">iDynTree/Core/VectorDynSize.h</text>
</a>
</g>
</g>
<!-- Node24&#45;&gt;Node25 -->
<g id="edge42" class="edge">
<title>Node24&#45;&gt;Node25</title>
<path fill="none" stroke="#191970" d="M902.7736,-224.4554C879.1684,-214.374 848.3546,-201.2139 825.5524,-191.4755"/>
<polygon fill="#191970" stroke="#191970" points="826.886,-188.2393 816.3149,-187.5303 824.1366,-194.6767 826.886,-188.2393"/>
</g>
<!-- Node26 -->
<g id="node27" class="node">
<title>Node26</title>
<g id="a_node27"><a xlink:href="MatrixDynSize_8h.html" target="_top" xlink:title="iDynTree/Core/MatrixDynSize.h">
<polygon fill="none" stroke="#000000" points="450.5,-168.5 450.5,-187.5 617.5,-187.5 617.5,-168.5 450.5,-168.5"/>
<text text-anchor="middle" x="534" y="-175.5" font-family="FreeSans.ttf" font-size="10.00" fill="#000000">iDynTree/Core/MatrixDynSize.h</text>
</a>
</g>
</g>
<!-- Node24&#45;&gt;Node26 -->
<g id="edge45" class="edge">
<title>Node24&#45;&gt;Node26</title>
<path fill="none" stroke="#191970" d="M870.4958,-225.5071C867.6281,-224.984 864.787,-224.4792 862,-224 780.8757,-210.0526 687.9168,-197.3199 621.7253,-188.8046"/>
<polygon fill="#191970" stroke="#191970" points="622.112,-185.3256 611.7484,-187.527 621.2228,-192.2689 622.112,-185.3256"/>
</g>
<!-- Node27 -->
<g id="node28" class="node">
<title>Node27</title>
<polygon fill="none" stroke="#bfbfbf" points="933.5,-168.5 933.5,-187.5 980.5,-187.5 980.5,-168.5 933.5,-168.5"/>
<text text-anchor="middle" x="957" y="-175.5" font-family="FreeSans.ttf" font-size="10.00" fill="#000000">vector</text>
</g>
<!-- Node24&#45;&gt;Node27 -->
<g id="edge49" class="edge">
<title>Node24&#45;&gt;Node27</title>
<path fill="none" stroke="#191970" d="M942.6966,-224.2977C945.1967,-216.2055 948.299,-206.1639 950.9747,-197.5029"/>
<polygon fill="#191970" stroke="#191970" points="954.3501,-198.4345 953.9579,-187.8469 947.662,-196.3682 954.3501,-198.4345"/>
</g>
<!-- Node25&#45;&gt;Node6 -->
<g id="edge43" class="edge">
<title>Node25&#45;&gt;Node6</title>
<path fill="none" stroke="#191970" d="M780.4504,-168.2829C759.5196,-153.7512 717.5926,-126.5171 678,-112 621.2644,-91.1972 553.5332,-79.4026 503.6797,-72.9783"/>
<polygon fill="#191970" stroke="#191970" points="503.9963,-69.4907 493.6399,-71.7257 503.1297,-76.4369 503.9963,-69.4907"/>
</g>
<!-- Node25&#45;&gt;Node15 -->
<g id="edge44" class="edge">
<title>Node25&#45;&gt;Node15</title>
<path fill="none" stroke="#191970" d="M768.7298,-168.3733C743.7261,-158.848 705.3899,-144.2438 678.4338,-133.9748"/>
<polygon fill="#191970" stroke="#191970" points="679.6542,-130.6944 669.0633,-130.4051 677.1622,-137.2358 679.6542,-130.6944"/>
</g>
<!-- Node26&#45;&gt;Node15 -->
<g id="edge46" class="edge">
<title>Node26&#45;&gt;Node15</title>
<path fill="none" stroke="#191970" d="M553.4254,-168.3733C571.4021,-159.4644 598.3441,-146.1127 618.709,-136.0203"/>
<polygon fill="#191970" stroke="#191970" points="620.4222,-139.0776 627.8281,-131.5011 617.3139,-132.8055 620.4222,-139.0776"/>
</g>
<!-- Node26&#45;&gt;Node22 -->
<g id="edge47" class="edge">
<title>Node26&#45;&gt;Node22</title>
<path fill="none" stroke="#191970" d="M520.0651,-168.2455C507.9053,-159.7337 490.0536,-147.2375 475.9715,-137.3801"/>
<polygon fill="#191970" stroke="#191970" points="477.9747,-134.51 467.7752,-131.6427 473.9605,-140.2447 477.9747,-134.51"/>
</g>
<!-- Node28&#45;&gt;Node2 -->
<g id="edge52" class="edge">
<title>Node28&#45;&gt;Node2</title>
<path fill="none" stroke="#191970" d="M732.6436,-229.9751C720.979,-227.8696 708.5689,-225.7479 697,-224 597.3443,-208.9435 482.4979,-195.6925 404.7604,-187.3275"/>
<polygon fill="#191970" stroke="#191970" points="404.8346,-183.8155 394.5188,-186.2306 404.0891,-190.7757 404.8346,-183.8155"/>
</g>
<!-- Node28&#45;&gt;Node3 -->
<g id="edge53" class="edge">
<title>Node28&#45;&gt;Node3</title>
<path fill="none" stroke="#191970" d="M821.465,-229.9682C858.7049,-218.9222 906.1825,-198.2722 887,-168 854.5362,-116.7685 788.6687,-90.7831 738.159,-77.9187"/>
<polygon fill="#191970" stroke="#191970" points="738.82,-74.4775 728.2763,-75.5172 737.167,-81.2796 738.82,-74.4775"/>
</g>
<!-- Node28&#45;&gt;Node15 -->
<g id="edge51" class="edge">
<title>Node28&#45;&gt;Node15</title>
<path fill="none" stroke="#191970" d="M763.7524,-229.8778C746.7884,-220.4588 721.3042,-205.0686 702,-188 685.6843,-173.5738 670.0878,-154.1327 659.6979,-140.0907"/>
<polygon fill="#191970" stroke="#191970" points="662.3626,-137.8025 653.667,-131.7497 656.6901,-141.9041 662.3626,-137.8025"/>
</g>
</g>
</svg>
