<?xml version="1.0" encoding="UTF-8" standalone="no"?>
<!DOCTYPE svg PUBLIC "-//W3C//DTD SVG 1.1//EN"
 "http://www.w3.org/Graphics/SVG/1.1/DTD/svg11.dtd">
<!-- Generated by graphviz version 2.40.1 (20161225.0304)
 -->
<!-- Title: AttitudeEstimatorUtils.h Pages: 1 -->
<svg width="1362pt" height="610pt"
 viewBox="0.00 0.00 1362.00 610.00" xmlns="http://www.w3.org/2000/svg" xmlns:xlink="http://www.w3.org/1999/xlink">
<g id="graph0" class="graph" transform="scale(1 1) rotate(0) translate(4 606)">
<title>AttitudeEstimatorUtils.h</title>
<!-- Node0 -->
<g id="node1" class="node">
<title>Node0</title>
<polygon fill="#bfbfbf" stroke="#000000" points="516,-582.5 516,-601.5 650,-601.5 650,-582.5 516,-582.5"/>
<text text-anchor="middle" x="583" y="-589.5" font-family="FreeSans.ttf" font-size="10.00" fill="#000000">AttitudeEstimatorUtils.h</text>
</g>
<!-- Node1 -->
<g id="node2" class="node">
<title>Node1</title>
<g id="a_node2"><a xlink:href="AttitudeEstimator_8h.html" target="_top" xlink:title="iDynTree/Estimation\l/AttitudeEstimator.h">
<polygon fill="none" stroke="#000000" points="142.5,-336.5 142.5,-366.5 257.5,-366.5 257.5,-336.5 142.5,-336.5"/>
<text text-anchor="start" x="150.5" y="-354.5" font-family="FreeSans.ttf" font-size="10.00" fill="#000000">iDynTree/Estimation</text>
<text text-anchor="middle" x="200" y="-343.5" font-family="FreeSans.ttf" font-size="10.00" fill="#000000">/AttitudeEstimator.h</text>
</a>
</g>
</g>
<!-- Node0&#45;&gt;Node1 -->
<g id="edge1" class="edge">
<title>Node0&#45;&gt;Node1</title>
<path fill="none" stroke="#191970" d="M515.8209,-585.1793C447.3014,-575.0406 341.4596,-550.1913 272,-490 236.825,-459.5186 216.4402,-407.5975 206.8325,-376.7243"/>
<polygon fill="#191970" stroke="#191970" points="210.0743,-375.3448 203.8771,-366.7515 203.3628,-377.3339 210.0743,-375.3448"/>
</g>
<!-- Node24 -->
<g id="node25" class="node">
<title>Node24</title>
<g id="a_node25"><a xlink:href="EigenHelpers_8h.html" target="_top" xlink:title="iDynTree/Core/EigenHelpers.h">
<polygon fill="none" stroke="#000000" points="441.5,-526.5 441.5,-545.5 602.5,-545.5 602.5,-526.5 441.5,-526.5"/>
<text text-anchor="middle" x="522" y="-533.5" font-family="FreeSans.ttf" font-size="10.00" fill="#000000">iDynTree/Core/EigenHelpers.h</text>
</a>
</g>
</g>
<!-- Node0&#45;&gt;Node24 -->
<g id="edge41" class="edge">
<title>Node0&#45;&gt;Node24</title>
<path fill="none" stroke="#191970" d="M572.3746,-582.2455C563.4527,-574.0549 550.512,-562.1749 539.9808,-552.5069"/>
<polygon fill="#191970" stroke="#191970" points="542.2371,-549.8271 532.5036,-545.6427 537.5032,-554.9837 542.2371,-549.8271"/>
</g>
<!-- Node34 -->
<g id="node35" class="node">
<title>Node34</title>
<polygon fill="none" stroke="#bfbfbf" points="620.5,-526.5 620.5,-545.5 667.5,-545.5 667.5,-526.5 620.5,-526.5"/>
<text text-anchor="middle" x="644" y="-533.5" font-family="FreeSans.ttf" font-size="10.00" fill="#000000">cmath</text>
</g>
<!-- Node0&#45;&gt;Node34 -->
<g id="edge77" class="edge">
<title>Node0&#45;&gt;Node34</title>
<path fill="none" stroke="#191970" d="M593.6254,-582.2455C602.5473,-574.0549 615.488,-562.1749 626.0192,-552.5069"/>
<polygon fill="#191970" stroke="#191970" points="628.4968,-554.9837 633.4964,-545.6427 623.7629,-549.8271 628.4968,-554.9837"/>
</g>
<!-- Node35 -->
<g id="node36" class="node">
<title>Node35</title>
<polygon fill="none" stroke="#bfbfbf" points="685.5,-526.5 685.5,-545.5 732.5,-545.5 732.5,-526.5 685.5,-526.5"/>
<text text-anchor="middle" x="709" y="-533.5" font-family="FreeSans.ttf" font-size="10.00" fill="#000000">vector</text>
</g>
<!-- Node0&#45;&gt;Node35 -->
<g id="edge78" class="edge">
<title>Node0&#45;&gt;Node35</title>
<path fill="none" stroke="#191970" d="M604.6602,-582.3733C624.9772,-573.3435 655.564,-559.7494 678.375,-549.6111"/>
<polygon fill="#191970" stroke="#191970" points="679.9059,-552.7609 687.6225,-545.5011 677.0628,-546.3642 679.9059,-552.7609"/>
</g>
<!-- Node2 -->
<g id="node3" class="node">
<title>Node2</title>
<g id="a_node3"><a xlink:href="VectorFixSize_8h.html" target="_top" xlink:title="iDynTree/Core/VectorFixSize.h">
<polygon fill="none" stroke="#000000" points="427.5,-168.5 427.5,-187.5 588.5,-187.5 588.5,-168.5 427.5,-168.5"/>
<text text-anchor="middle" x="508" y="-175.5" font-family="FreeSans.ttf" font-size="10.00" fill="#000000">iDynTree/Core/VectorFixSize.h</text>
</a>
</g>
</g>
<!-- Node1&#45;&gt;Node2 -->
<g id="edge2" class="edge">
<title>Node1&#45;&gt;Node2</title>
<path fill="none" stroke="#191970" d="M204.0767,-336.0781C212.137,-308.7963 232.8198,-252.2451 272,-224 295.1592,-207.3045 360.948,-195.3175 417.1983,-187.7739"/>
<polygon fill="#191970" stroke="#191970" points="417.7545,-191.231 427.2159,-186.4631 416.8463,-184.2902 417.7545,-191.231"/>
</g>
<!-- Node18 -->
<g id="node19" class="node">
<title>Node18</title>
<g id="a_node19"><a xlink:href="Rotation_8h.html" target="_top" xlink:title="iDynTree/Core/Rotation.h">
<polygon fill="none" stroke="#000000" points="656.5,-280.5 656.5,-299.5 793.5,-299.5 793.5,-280.5 656.5,-280.5"/>
<text text-anchor="middle" x="725" y="-287.5" font-family="FreeSans.ttf" font-size="10.00" fill="#000000">iDynTree/Core/Rotation.h</text>
</a>
</g>
</g>
<!-- Node1&#45;&gt;Node18 -->
<g id="edge21" class="edge">
<title>Node1&#45;&gt;Node18</title>
<path fill="none" stroke="#191970" d="M257.686,-344.7425C352.1303,-333.679 539.8748,-311.6861 646.4059,-299.2067"/>
<polygon fill="#191970" stroke="#191970" points="646.9311,-302.6692 656.4559,-298.0294 646.1166,-295.7168 646.9311,-302.6692"/>
</g>
<!-- Node23 -->
<g id="node24" class="node">
<title>Node23</title>
<polygon fill="none" stroke="#bfbfbf" points="122,-112.5 122,-131.5 182,-131.5 182,-112.5 122,-112.5"/>
<text text-anchor="middle" x="152" y="-119.5" font-family="FreeSans.ttf" font-size="10.00" fill="#000000">iostream</text>
</g>
<!-- Node1&#45;&gt;Node23 -->
<g id="edge40" class="edge">
<title>Node1&#45;&gt;Node23</title>
<path fill="none" stroke="#191970" d="M196.8506,-336.4419C188.4674,-296.3599 165.6059,-187.0534 156.1645,-141.9113"/>
<polygon fill="#191970" stroke="#191970" points="159.5434,-140.9698 154.0702,-131.8981 152.6916,-142.4029 159.5434,-140.9698"/>
</g>
<!-- Node3 -->
<g id="node4" class="node">
<title>Node3</title>
<g id="a_node4"><a xlink:href="Utils_8h.html" target="_top" xlink:title="iDynTree/Core/Utils.h">
<polygon fill="none" stroke="#000000" points="514.5,-56.5 514.5,-75.5 633.5,-75.5 633.5,-56.5 514.5,-56.5"/>
<text text-anchor="middle" x="574" y="-63.5" font-family="FreeSans.ttf" font-size="10.00" fill="#000000">iDynTree/Core/Utils.h</text>
</a>
</g>
</g>
<!-- Node2&#45;&gt;Node3 -->
<g id="edge3" class="edge">
<title>Node2&#45;&gt;Node3</title>
<path fill="none" stroke="#191970" d="M510.3106,-168.0704C513.7106,-154.6683 520.887,-130.3568 532,-112 538.451,-101.344 547.5999,-90.9644 555.7128,-82.7698"/>
<polygon fill="#191970" stroke="#191970" points="558.3148,-85.1218 563.0518,-75.6449 553.4388,-80.0993 558.3148,-85.1218"/>
</g>
<!-- Node4 -->
<g id="node5" class="node">
<title>Node4</title>
<polygon fill="none" stroke="#bfbfbf" points="772.5,-.5 772.5,-19.5 825.5,-19.5 825.5,-.5 772.5,-.5"/>
<text text-anchor="middle" x="799" y="-7.5" font-family="FreeSans.ttf" font-size="10.00" fill="#000000">cstddef</text>
</g>
<!-- Node2&#45;&gt;Node4 -->
<g id="edge19" class="edge">
<title>Node2&#45;&gt;Node4</title>
<path fill="none" stroke="#191970" d="M513.9788,-168.2538C523.0419,-154.1748 541.4978,-128.0765 563,-112 571.7165,-105.4829 704.171,-49.6764 766.7332,-23.4784"/>
<polygon fill="#191970" stroke="#191970" points="768.2706,-26.6292 776.1443,-19.5401 765.5683,-20.1718 768.2706,-26.6292"/>
</g>
<!-- Node6 -->
<g id="node7" class="node">
<title>Node6</title>
<g id="a_node7"><a xlink:href="Span_8h.html" target="_top" xlink:title="iDynTree/Core/Span.h">
<polygon fill="none" stroke="#000000" points="973.5,-56.5 973.5,-75.5 1094.5,-75.5 1094.5,-56.5 973.5,-56.5"/>
<text text-anchor="middle" x="1034" y="-63.5" font-family="FreeSans.ttf" font-size="10.00" fill="#000000">iDynTree/Core/Span.h</text>
</a>
</g>
</g>
<!-- Node2&#45;&gt;Node6 -->
<g id="edge6" class="edge">
<title>Node2&#45;&gt;Node6</title>
<path fill="none" stroke="#191970" d="M518.1002,-168.337C534.446,-153.3548 568.3746,-124.905 603,-112 667.2316,-88.0607 858.3223,-74.8976 963.1824,-69.297"/>
<polygon fill="#191970" stroke="#191970" points="963.5604,-72.7821 973.3631,-68.7625 963.1933,-65.7917 963.5604,-72.7821"/>
</g>
<!-- Node7 -->
<g id="node8" class="node">
<title>Node7</title>
<polygon fill="none" stroke="#bfbfbf" points="702,-.5 702,-19.5 754,-19.5 754,-.5 702,-.5"/>
<text text-anchor="middle" x="728" y="-7.5" font-family="FreeSans.ttf" font-size="10.00" fill="#000000">cassert</text>
</g>
<!-- Node2&#45;&gt;Node7 -->
<g id="edge18" class="edge">
<title>Node2&#45;&gt;Node7</title>
<path fill="none" stroke="#191970" d="M470.8695,-168.411C438.7944,-158.0768 399.8083,-139.3451 415,-112 437.8792,-70.8175 461.2498,-73.475 505,-56 567.8735,-30.8866 646.4321,-18.7869 691.5469,-13.5285"/>
<polygon fill="#191970" stroke="#191970" points="692.177,-16.98 701.7272,-12.3925 691.4007,-10.0232 692.177,-16.98"/>
</g>
<!-- Node15 -->
<g id="node16" class="node">
<title>Node15</title>
<polygon fill="none" stroke="#bfbfbf" points="926,-112.5 926,-131.5 970,-131.5 970,-112.5 926,-112.5"/>
<text text-anchor="middle" x="948" y="-119.5" font-family="FreeSans.ttf" font-size="10.00" fill="#000000">string</text>
</g>
<!-- Node2&#45;&gt;Node15 -->
<g id="edge16" class="edge">
<title>Node2&#45;&gt;Node15</title>
<path fill="none" stroke="#191970" d="M588.7443,-168.925C694.5973,-157.0272 871.3518,-137.1573 915.7425,-131.2644"/>
<polygon fill="#191970" stroke="#191970" points="916.4267,-134.701 925.7941,-129.751 915.3844,-127.779 916.4267,-134.701"/>
</g>
<!-- Node16 -->
<g id="node17" class="node">
<title>Node16</title>
<polygon fill="none" stroke="#bfbfbf" points="424,-112.5 424,-131.5 480,-131.5 480,-112.5 424,-112.5"/>
<text text-anchor="middle" x="452" y="-119.5" font-family="FreeSans.ttf" font-size="10.00" fill="#000000">sstream</text>
</g>
<!-- Node2&#45;&gt;Node16 -->
<g id="edge17" class="edge">
<title>Node2&#45;&gt;Node16</title>
<path fill="none" stroke="#191970" d="M498.2455,-168.2455C490.1352,-160.1352 478.4075,-148.4075 468.7919,-138.7919"/>
<polygon fill="#191970" stroke="#191970" points="471.1887,-136.2389 461.6427,-131.6427 466.2389,-141.1887 471.1887,-136.2389"/>
</g>
<!-- Node17 -->
<g id="node18" class="node">
<title>Node17</title>
<polygon fill="none" stroke="#bfbfbf" points="612,-112.5 612,-131.5 662,-131.5 662,-112.5 612,-112.5"/>
<text text-anchor="middle" x="637" y="-119.5" font-family="FreeSans.ttf" font-size="10.00" fill="#000000">cstring</text>
</g>
<!-- Node2&#45;&gt;Node17 -->
<g id="edge20" class="edge">
<title>Node2&#45;&gt;Node17</title>
<path fill="none" stroke="#191970" d="M530.1759,-168.3733C550.9766,-159.3435 582.2917,-145.7494 605.6458,-135.6111"/>
<polygon fill="#191970" stroke="#191970" points="607.3343,-138.6938 615.1135,-131.5011 604.5468,-132.2727 607.3343,-138.6938"/>
</g>
<!-- Node3&#45;&gt;Node4 -->
<g id="edge4" class="edge">
<title>Node3&#45;&gt;Node4</title>
<path fill="none" stroke="#191970" d="M615.0191,-56.4188C651.27,-47.8614 705.8113,-34.7684 762.443,-20.0862"/>
<polygon fill="#191970" stroke="#191970" points="763.4939,-23.4293 772.2895,-17.5226 761.7302,-16.6551 763.4939,-23.4293"/>
</g>
<!-- Node5 -->
<g id="node6" class="node">
<title>Node5</title>
<polygon fill="none" stroke="#bfbfbf" points="534,-.5 534,-19.5 614,-19.5 614,-.5 534,-.5"/>
<text text-anchor="middle" x="574" y="-7.5" font-family="FreeSans.ttf" font-size="10.00" fill="#000000">CoreExport.h</text>
</g>
<!-- Node3&#45;&gt;Node5 -->
<g id="edge5" class="edge">
<title>Node3&#45;&gt;Node5</title>
<path fill="none" stroke="#191970" d="M574,-56.2455C574,-48.9382 574,-38.6944 574,-29.7046"/>
<polygon fill="#191970" stroke="#191970" points="577.5001,-29.6426 574,-19.6427 570.5001,-29.6427 577.5001,-29.6426"/>
</g>
<!-- Node6&#45;&gt;Node4 -->
<g id="edge10" class="edge">
<title>Node6&#45;&gt;Node4</title>
<path fill="none" stroke="#191970" d="M990.3891,-56.4957C952.1134,-48.0248 894.7164,-35.0107 835.5895,-20.0699"/>
<polygon fill="#191970" stroke="#191970" points="836.2556,-16.628 825.7016,-17.5572 834.5315,-23.4124 836.2556,-16.628"/>
</g>
<!-- Node6&#45;&gt;Node7 -->
<g id="edge7" class="edge">
<title>Node6&#45;&gt;Node7</title>
<path fill="none" stroke="#191970" d="M973.3351,-57.4774C918.3856,-49.3286 835.3491,-35.9437 764,-20 763.9011,-19.9779 763.802,-19.9557 763.7029,-19.9334"/>
<polygon fill="#191970" stroke="#191970" points="764.8126,-16.6016 754.2678,-17.6306 763.1528,-23.402 764.8126,-16.6016"/>
</g>
<!-- Node8 -->
<g id="node9" class="node">
<title>Node8</title>
<polygon fill="none" stroke="#bfbfbf" points="931,-.5 931,-19.5 995,-19.5 995,-.5 931,-.5"/>
<text text-anchor="middle" x="963" y="-7.5" font-family="FreeSans.ttf" font-size="10.00" fill="#000000">algorithm</text>
</g>
<!-- Node6&#45;&gt;Node8 -->
<g id="edge8" class="edge">
<title>Node6&#45;&gt;Node8</title>
<path fill="none" stroke="#191970" d="M1021.6327,-56.2455C1011.0446,-47.8943 995.5936,-35.7076 983.2107,-25.9408"/>
<polygon fill="#191970" stroke="#191970" points="985.2447,-23.0875 975.2255,-19.6427 980.9097,-28.5837 985.2447,-23.0875"/>
</g>
<!-- Node9 -->
<g id="node10" class="node">
<title>Node9</title>
<polygon fill="none" stroke="#bfbfbf" points="1013,-.5 1013,-19.5 1055,-19.5 1055,-.5 1013,-.5"/>
<text text-anchor="middle" x="1034" y="-7.5" font-family="FreeSans.ttf" font-size="10.00" fill="#000000">array</text>
</g>
<!-- Node6&#45;&gt;Node9 -->
<g id="edge9" class="edge">
<title>Node6&#45;&gt;Node9</title>
<path fill="none" stroke="#191970" d="M1034,-56.2455C1034,-48.9382 1034,-38.6944 1034,-29.7046"/>
<polygon fill="#191970" stroke="#191970" points="1037.5001,-29.6426 1034,-19.6427 1030.5001,-29.6427 1037.5001,-29.6426"/>
</g>
<!-- Node10 -->
<g id="node11" class="node">
<title>Node10</title>
<polygon fill="none" stroke="#bfbfbf" points="1073.5,-.5 1073.5,-19.5 1126.5,-19.5 1126.5,-.5 1073.5,-.5"/>
<text text-anchor="middle" x="1100" y="-7.5" font-family="FreeSans.ttf" font-size="10.00" fill="#000000">iterator</text>
</g>
<!-- Node6&#45;&gt;Node10 -->
<g id="edge11" class="edge">
<title>Node6&#45;&gt;Node10</title>
<path fill="none" stroke="#191970" d="M1045.4963,-56.2455C1055.2442,-47.9746 1069.4259,-35.9416 1080.8798,-26.2232"/>
<polygon fill="#191970" stroke="#191970" points="1083.2747,-28.7813 1088.6354,-19.6427 1078.7459,-23.4437 1083.2747,-28.7813"/>
</g>
<!-- Node11 -->
<g id="node12" class="node">
<title>Node11</title>
<polygon fill="none" stroke="#bfbfbf" points="1145,-.5 1145,-19.5 1189,-19.5 1189,-.5 1145,-.5"/>
<text text-anchor="middle" x="1167" y="-7.5" font-family="FreeSans.ttf" font-size="10.00" fill="#000000">limits</text>
</g>
<!-- Node6&#45;&gt;Node11 -->
<g id="edge12" class="edge">
<title>Node6&#45;&gt;Node11</title>
<path fill="none" stroke="#191970" d="M1056.8635,-56.3733C1078.5355,-47.2482 1111.2779,-33.462 1135.4331,-23.2913"/>
<polygon fill="#191970" stroke="#191970" points="1137.0186,-26.4214 1144.8768,-19.315 1134.3022,-19.9699 1137.0186,-26.4214"/>
</g>
<!-- Node12 -->
<g id="node13" class="node">
<title>Node12</title>
<polygon fill="none" stroke="#bfbfbf" points="1207.5,-.5 1207.5,-19.5 1272.5,-19.5 1272.5,-.5 1207.5,-.5"/>
<text text-anchor="middle" x="1240" y="-7.5" font-family="FreeSans.ttf" font-size="10.00" fill="#000000">stdexcept</text>
</g>
<!-- Node6&#45;&gt;Node12 -->
<g id="edge13" class="edge">
<title>Node6&#45;&gt;Node12</title>
<path fill="none" stroke="#191970" d="M1069.4127,-56.3733C1104.9997,-46.6991 1159.8589,-31.7859 1197.7097,-21.4964"/>
<polygon fill="#191970" stroke="#191970" points="1198.6919,-24.8565 1207.4235,-18.8557 1196.8556,-18.1016 1198.6919,-24.8565"/>
</g>
<!-- Node13 -->
<g id="node14" class="node">
<title>Node13</title>
<polygon fill="none" stroke="#bfbfbf" points="843.5,-.5 843.5,-19.5 912.5,-19.5 912.5,-.5 843.5,-.5"/>
<text text-anchor="middle" x="878" y="-7.5" font-family="FreeSans.ttf" font-size="10.00" fill="#000000">type_traits</text>
</g>
<!-- Node6&#45;&gt;Node13 -->
<g id="edge14" class="edge">
<title>Node6&#45;&gt;Node13</title>
<path fill="none" stroke="#191970" d="M1007.1826,-56.3733C981.4668,-47.1419 942.462,-33.1402 914.0401,-22.9375"/>
<polygon fill="#191970" stroke="#191970" points="915.0619,-19.5857 904.4674,-19.5011 912.6968,-26.174 915.0619,-19.5857"/>
</g>
<!-- Node14 -->
<g id="node15" class="node">
<title>Node14</title>
<polygon fill="none" stroke="#bfbfbf" points="1290.5,-.5 1290.5,-19.5 1335.5,-19.5 1335.5,-.5 1290.5,-.5"/>
<text text-anchor="middle" x="1313" y="-7.5" font-family="FreeSans.ttf" font-size="10.00" fill="#000000">utility</text>
</g>
<!-- Node6&#45;&gt;Node14 -->
<g id="edge15" class="edge">
<title>Node6&#45;&gt;Node14</title>
<path fill="none" stroke="#191970" d="M1094.6065,-56.9939C1142.7426,-49.3333 1211.8923,-37.2023 1280.3223,-20.2015"/>
<polygon fill="#191970" stroke="#191970" points="1281.5699,-23.4966 1290.4107,-17.6578 1279.8584,-16.709 1281.5699,-23.4966"/>
</g>
<!-- Node18&#45;&gt;Node2 -->
<g id="edge39" class="edge">
<title>Node18&#45;&gt;Node2</title>
<path fill="none" stroke="#191970" d="M706.4987,-280.4509C668.3039,-260.7375 580.5527,-215.4465 535.6178,-192.2543"/>
<polygon fill="#191970" stroke="#191970" points="536.946,-189.0012 526.4545,-187.5249 533.7354,-195.2215 536.946,-189.0012"/>
</g>
<!-- Node18&#45;&gt;Node15 -->
<g id="edge22" class="edge">
<title>Node18&#45;&gt;Node15</title>
<path fill="none" stroke="#191970" d="M754.2912,-280.4899C773.491,-273.0476 798.0764,-261.0741 815,-244 841.5853,-217.1784 826.1271,-194.5334 853,-168 862.627,-158.4946 892.753,-144.6511 916.5284,-134.6361"/>
<polygon fill="#191970" stroke="#191970" points="918.0298,-137.8025 925.9237,-130.7359 915.346,-131.3374 918.0298,-137.8025"/>
</g>
<!-- Node19 -->
<g id="node20" class="node">
<title>Node19</title>
<g id="a_node20"><a xlink:href="GeomVector3_8h.html" target="_top" xlink:title="iDynTree/Core/GeomVector3.h">
<polygon fill="none" stroke="#000000" points="390.5,-224.5 390.5,-243.5 553.5,-243.5 553.5,-224.5 390.5,-224.5"/>
<text text-anchor="middle" x="472" y="-231.5" font-family="FreeSans.ttf" font-size="10.00" fill="#000000">iDynTree/Core/GeomVector3.h</text>
</a>
</g>
</g>
<!-- Node18&#45;&gt;Node19 -->
<g id="edge23" class="edge">
<title>Node18&#45;&gt;Node19</title>
<path fill="none" stroke="#191970" d="M681.7952,-280.4369C638.4053,-270.8328 571.4791,-256.0191 524.9274,-245.7152"/>
<polygon fill="#191970" stroke="#191970" points="525.5467,-242.2676 515.0266,-243.5237 524.0338,-249.1022 525.5467,-242.2676"/>
</g>
<!-- Node20 -->
<g id="node21" class="node">
<title>Node20</title>
<g id="a_node21"><a xlink:href="RotationRaw_8h.html" target="_top" xlink:title="iDynTree/Core/RotationRaw.h">
<polygon fill="none" stroke="#000000" points="648,-224.5 648,-243.5 806,-243.5 806,-224.5 648,-224.5"/>
<text text-anchor="middle" x="727" y="-231.5" font-family="FreeSans.ttf" font-size="10.00" fill="#000000">iDynTree/Core/RotationRaw.h</text>
</a>
</g>
</g>
<!-- Node18&#45;&gt;Node20 -->
<g id="edge25" class="edge">
<title>Node18&#45;&gt;Node20</title>
<path fill="none" stroke="#191970" d="M725.3484,-280.2455C725.6093,-272.9382 725.9752,-262.6944 726.2963,-253.7046"/>
<polygon fill="#191970" stroke="#191970" points="729.7964,-253.7613 726.6556,-243.6427 722.8008,-253.5113 729.7964,-253.7613"/>
</g>
<!-- Node19&#45;&gt;Node2 -->
<g id="edge24" class="edge">
<title>Node19&#45;&gt;Node2</title>
<path fill="none" stroke="#191970" d="M478.2707,-224.2455C483.2264,-216.5367 490.283,-205.5598 496.2776,-196.2348"/>
<polygon fill="#191970" stroke="#191970" points="499.3376,-197.9471 501.8011,-187.6427 493.4494,-194.1618 499.3376,-197.9471"/>
</g>
<!-- Node20&#45;&gt;Node15 -->
<g id="edge38" class="edge">
<title>Node20&#45;&gt;Node15</title>
<path fill="none" stroke="#191970" d="M738.3698,-224.3635C755.2644,-210.4211 788.4079,-184.4912 820,-168 837.0001,-159.1259 883.9535,-142.9955 916.0087,-132.3886"/>
<polygon fill="#191970" stroke="#191970" points="917.4308,-135.6054 925.8358,-129.1551 915.2429,-128.9561 917.4308,-135.6054"/>
</g>
<!-- Node21 -->
<g id="node22" class="node">
<title>Node21</title>
<g id="a_node22"><a xlink:href="MatrixFixSize_8h.html" target="_top" xlink:title="iDynTree/Core/MatrixFixSize.h">
<polygon fill="none" stroke="#000000" points="606.5,-168.5 606.5,-187.5 767.5,-187.5 767.5,-168.5 606.5,-168.5"/>
<text text-anchor="middle" x="687" y="-175.5" font-family="FreeSans.ttf" font-size="10.00" fill="#000000">iDynTree/Core/MatrixFixSize.h</text>
</a>
</g>
</g>
<!-- Node20&#45;&gt;Node21 -->
<g id="edge26" class="edge">
<title>Node20&#45;&gt;Node21</title>
<path fill="none" stroke="#191970" d="M720.0325,-224.2455C714.4689,-216.4564 706.522,-205.3308 699.8171,-195.9439"/>
<polygon fill="#191970" stroke="#191970" points="702.5481,-193.7457 693.8876,-187.6427 696.852,-197.8144 702.5481,-193.7457"/>
</g>
<!-- Node21&#45;&gt;Node3 -->
<g id="edge27" class="edge">
<title>Node21&#45;&gt;Node3</title>
<path fill="none" stroke="#191970" d="M687.1478,-168.356C686.8619,-154.4044 684.3924,-128.4631 671,-112 658.5953,-96.7511 639.9476,-86.2592 622.3065,-79.1928"/>
<polygon fill="#191970" stroke="#191970" points="623.2484,-75.8092 612.6554,-75.611 620.8128,-82.3718 623.2484,-75.8092"/>
</g>
<!-- Node21&#45;&gt;Node7 -->
<g id="edge33" class="edge">
<title>Node21&#45;&gt;Node7</title>
<path fill="none" stroke="#191970" d="M689.3218,-168.4862C695.831,-141.8144 714.3549,-65.9117 723.1935,-29.695"/>
<polygon fill="#191970" stroke="#191970" points="726.6308,-30.3726 725.6015,-19.8279 719.8304,-28.7129 726.6308,-30.3726"/>
</g>
<!-- Node21&#45;&gt;Node15 -->
<g id="edge35" class="edge">
<title>Node21&#45;&gt;Node15</title>
<path fill="none" stroke="#191970" d="M744.1255,-168.455C788.6327,-160.5912 852.1098,-148.4442 915.9128,-132.0729"/>
<polygon fill="#191970" stroke="#191970" points="916.9412,-135.422 925.7388,-129.5183 915.1798,-128.6472 916.9412,-135.422"/>
</g>
<!-- Node21&#45;&gt;Node16 -->
<g id="edge37" class="edge">
<title>Node21&#45;&gt;Node16</title>
<path fill="none" stroke="#191970" d="M646.8691,-168.4369C602.936,-157.9677 533.0258,-141.3083 489.9683,-131.0478"/>
<polygon fill="#191970" stroke="#191970" points="490.6967,-127.6234 480.1577,-128.7099 489.074,-134.4327 490.6967,-127.6234"/>
</g>
<!-- Node21&#45;&gt;Node17 -->
<g id="edge34" class="edge">
<title>Node21&#45;&gt;Node17</title>
<path fill="none" stroke="#191970" d="M678.2907,-168.2455C671.1927,-160.2958 660.9916,-148.8706 652.505,-139.3656"/>
<polygon fill="#191970" stroke="#191970" points="654.8805,-136.771 645.6095,-131.6427 649.6589,-141.4331 654.8805,-136.771"/>
</g>
<!-- Node22 -->
<g id="node23" class="node">
<title>Node22</title>
<g id="a_node23"><a xlink:href="MatrixView_8h.html" target="_top" xlink:title="iDynTree/Core/MatrixView.h">
<polygon fill="none" stroke="#000000" points="756.5,-112.5 756.5,-131.5 907.5,-131.5 907.5,-112.5 756.5,-112.5"/>
<text text-anchor="middle" x="832" y="-119.5" font-family="FreeSans.ttf" font-size="10.00" fill="#000000">iDynTree/Core/MatrixView.h</text>
</a>
</g>
</g>
<!-- Node21&#45;&gt;Node22 -->
<g id="edge28" class="edge">
<title>Node21&#45;&gt;Node22</title>
<path fill="none" stroke="#191970" d="M711.9264,-168.3733C735.6202,-159.2226 771.4511,-145.3844 797.8068,-135.2057"/>
<polygon fill="#191970" stroke="#191970" points="799.3314,-138.3689 807.3989,-131.5011 796.8094,-131.8389 799.3314,-138.3689"/>
</g>
<!-- Node21&#45;&gt;Node23 -->
<g id="edge36" class="edge">
<title>Node21&#45;&gt;Node23</title>
<path fill="none" stroke="#191970" d="M606.0502,-168.976C602.9949,-168.6448 599.97,-168.3185 597,-168 448.0115,-152.0226 270.8511,-134.0017 192.5966,-126.0915"/>
<polygon fill="#191970" stroke="#191970" points="192.5253,-122.5666 182.2242,-125.0437 191.8217,-129.5312 192.5253,-122.5666"/>
</g>
<!-- Node22&#45;&gt;Node3 -->
<g id="edge32" class="edge">
<title>Node22&#45;&gt;Node3</title>
<path fill="none" stroke="#191970" d="M787.9414,-112.4369C743.6011,-102.8127 675.1589,-87.957 627.6751,-77.6504"/>
<polygon fill="#191970" stroke="#191970" points="628.3918,-74.2245 617.8769,-75.5237 626.9069,-81.0653 628.3918,-74.2245"/>
</g>
<!-- Node22&#45;&gt;Node6 -->
<g id="edge31" class="edge">
<title>Node22&#45;&gt;Node6</title>
<path fill="none" stroke="#191970" d="M866.725,-112.3733C900.7508,-102.9404 952.7437,-88.5265 989.7234,-78.2747"/>
<polygon fill="#191970" stroke="#191970" points="991.0266,-81.5455 999.7281,-75.5011 989.1565,-74.7999 991.0266,-81.5455"/>
</g>
<!-- Node22&#45;&gt;Node7 -->
<g id="edge29" class="edge">
<title>Node22&#45;&gt;Node7</title>
<path fill="none" stroke="#191970" d="M823.133,-112.4509C805.5568,-93.5227 766.0845,-51.014 743.9045,-27.1279"/>
<polygon fill="#191970" stroke="#191970" points="746.2139,-24.4713 736.8445,-19.5249 741.0843,-29.2344 746.2139,-24.4713"/>
</g>
<!-- Node22&#45;&gt;Node13 -->
<g id="edge30" class="edge">
<title>Node22&#45;&gt;Node13</title>
<path fill="none" stroke="#191970" d="M835.9219,-112.4509C843.4923,-94.0186 860.2467,-53.2254 870.1788,-29.043"/>
<polygon fill="#191970" stroke="#191970" points="873.5263,-30.1048 874.088,-19.5249 867.0512,-27.4454 873.5263,-30.1048"/>
</g>
<!-- Node24&#45;&gt;Node2 -->
<g id="edge47" class="edge">
<title>Node24&#45;&gt;Node2</title>
<path fill="none" stroke="#191970" d="M441.4517,-526.9919C389.9317,-519.6714 329.2743,-507.6402 310,-490 283.5569,-465.7988 286,-448.846 286,-413 286,-413 286,-413 286,-290 286,-228.0481 355.7657,-200.3582 417.0773,-187.9855"/>
<polygon fill="#191970" stroke="#191970" points="418.0536,-191.3627 427.2249,-186.0583 416.7474,-184.4856 418.0536,-191.3627"/>
</g>
<!-- Node24&#45;&gt;Node3 -->
<g id="edge76" class="edge">
<title>Node24&#45;&gt;Node3</title>
<path fill="none" stroke="#191970" d="M441.296,-533.5793C294.7731,-526.9742 0,-502.5572 0,-413 0,-413 0,-413 0,-178 0,-129.8193 41.1547,-129.6149 86,-112 160.2912,-82.819 387.7366,-71.7041 503.9929,-67.8476"/>
<polygon fill="#191970" stroke="#191970" points="504.3262,-71.3387 514.208,-67.5179 504.1003,-64.3424 504.3262,-71.3387"/>
</g>
<!-- Node24&#45;&gt;Node4 -->
<g id="edge42" class="edge">
<title>Node24&#45;&gt;Node4</title>
<path fill="none" stroke="#191970" d="M602.5126,-526.7754C605.376,-526.5041 608.212,-526.2445 611,-526 863.8674,-503.822 934.4929,-550.5641 1181,-490 1262.7303,-469.9197 1354,-497.1609 1354,-413 1354,-413 1354,-413 1354,-234 1354,-47.3942 1142.6682,-133.0592 965,-76 916.9657,-60.5735 862.9494,-38.1026 829.9488,-23.7688"/>
<polygon fill="#191970" stroke="#191970" points="830.9765,-20.3982 820.4118,-19.5985 828.1718,-26.8119 830.9765,-20.3982"/>
</g>
<!-- Node24&#45;&gt;Node21 -->
<g id="edge51" class="edge">
<title>Node24&#45;&gt;Node21</title>
<path fill="none" stroke="#191970" d="M449.212,-526.4372C405.689,-519.0587 356.3218,-507.1781 343,-490 330.7802,-474.2428 300.3789,-303.7307 381,-224 388.7813,-216.3047 510.6643,-199.7652 598.2217,-188.7604"/>
<polygon fill="#191970" stroke="#191970" points="598.6956,-192.2285 608.1835,-187.5136 597.8262,-185.2827 598.6956,-192.2285"/>
</g>
<!-- Node25 -->
<g id="node26" class="node">
<title>Node25</title>
<polygon fill="none" stroke="#bfbfbf" points="352.5,-465 352.5,-484 429.5,-484 429.5,-465 352.5,-465"/>
<text text-anchor="middle" x="391" y="-472" font-family="FreeSans.ttf" font-size="10.00" fill="#000000">Eigen/Dense</text>
</g>
<!-- Node24&#45;&gt;Node25 -->
<g id="edge43" class="edge">
<title>Node24&#45;&gt;Node25</title>
<path fill="none" stroke="#191970" d="M501.5313,-526.3906C479.8048,-516.1908 445.2665,-499.9763 420.5815,-488.3875"/>
<polygon fill="#191970" stroke="#191970" points="421.8645,-485.1234 411.325,-484.0419 418.8897,-491.4598 421.8645,-485.1234"/>
</g>
<!-- Node26 -->
<g id="node27" class="node">
<title>Node26</title>
<g id="a_node27"><a xlink:href="VectorDynSize_8h.html" target="_top" xlink:title="iDynTree/Core/VectorDynSize.h">
<polygon fill="none" stroke="#000000" points="1159.5,-168.5 1159.5,-187.5 1326.5,-187.5 1326.5,-168.5 1159.5,-168.5"/>
<text text-anchor="middle" x="1243" y="-175.5" font-family="FreeSans.ttf" font-size="10.00" fill="#000000">iDynTree/Core/VectorDynSize.h</text>
</a>
</g>
</g>
<!-- Node24&#45;&gt;Node26 -->
<g id="edge44" class="edge">
<title>Node24&#45;&gt;Node26</title>
<path fill="none" stroke="#191970" d="M602.5252,-526.9056C605.385,-526.5975 608.2168,-526.2947 611,-526 748.0952,-511.4817 1221,-550.8618 1221,-413 1221,-413 1221,-413 1221,-290 1221,-257.1132 1230.246,-219.7958 1236.7499,-197.6138"/>
<polygon fill="#191970" stroke="#191970" points="1240.1853,-198.3474 1239.7538,-187.7614 1233.4896,-196.3059 1240.1853,-198.3474"/>
</g>
<!-- Node27 -->
<g id="node28" class="node">
<title>Node27</title>
<g id="a_node28"><a xlink:href="MatrixDynSize_8h.html" target="_top" xlink:title="iDynTree/Core/MatrixDynSize.h">
<polygon fill="none" stroke="#000000" points="861.5,-168.5 861.5,-187.5 1028.5,-187.5 1028.5,-168.5 861.5,-168.5"/>
<text text-anchor="middle" x="945" y="-175.5" font-family="FreeSans.ttf" font-size="10.00" fill="#000000">iDynTree/Core/MatrixDynSize.h</text>
</a>
</g>
</g>
<!-- Node24&#45;&gt;Node27 -->
<g id="edge48" class="edge">
<title>Node24&#45;&gt;Node27</title>
<path fill="none" stroke="#191970" d="M590.8054,-526.4649C648.7025,-518.0662 733.5632,-504.8775 807,-490 948.2525,-461.3839 1122,-557.122 1122,-413 1122,-413 1122,-413 1122,-351.5 1122,-285.5299 1095.1452,-268.0091 1046,-224 1029.546,-209.2655 1007.576,-198.5033 988.3293,-191.1103"/>
<polygon fill="#191970" stroke="#191970" points="989.4409,-187.7902 978.847,-187.6488 987.0405,-194.3658 989.4409,-187.7902"/>
</g>
<!-- Node28 -->
<g id="node29" class="node">
<title>Node28</title>
<g id="a_node29"><a xlink:href="SpatialMotionVector_8h.html" target="_top" xlink:title="iDynTree/Core/SpatialMotion\lVector.h">
<polygon fill="none" stroke="#000000" points="614.5,-459.5 614.5,-489.5 769.5,-489.5 769.5,-459.5 614.5,-459.5"/>
<text text-anchor="start" x="622.5" y="-477.5" font-family="FreeSans.ttf" font-size="10.00" fill="#000000">iDynTree/Core/SpatialMotion</text>
<text text-anchor="middle" x="692" y="-466.5" font-family="FreeSans.ttf" font-size="10.00" fill="#000000">Vector.h</text>
</a>
</g>
</g>
<!-- Node24&#45;&gt;Node28 -->
<g id="edge52" class="edge">
<title>Node24&#45;&gt;Node28</title>
<path fill="none" stroke="#191970" d="M548.5625,-526.3906C573.1677,-517.4893 610.4351,-504.0073 640.8161,-493.0165"/>
<polygon fill="#191970" stroke="#191970" points="642.2004,-496.2378 650.4133,-489.5446 639.8191,-489.6553 642.2004,-496.2378"/>
</g>
<!-- Node32 -->
<g id="node33" class="node">
<title>Node32</title>
<g id="a_node33"><a xlink:href="SpatialForceVector_8h.html" target="_top" xlink:title="iDynTree/Core/SpatialForce\lVector.h">
<polygon fill="none" stroke="#000000" points="448,-459.5 448,-489.5 596,-489.5 596,-459.5 448,-459.5"/>
<text text-anchor="start" x="456" y="-477.5" font-family="FreeSans.ttf" font-size="10.00" fill="#000000">iDynTree/Core/SpatialForce</text>
<text text-anchor="middle" x="522" y="-466.5" font-family="FreeSans.ttf" font-size="10.00" fill="#000000">Vector.h</text>
</a>
</g>
</g>
<!-- Node24&#45;&gt;Node32 -->
<g id="edge67" class="edge">
<title>Node24&#45;&gt;Node32</title>
<path fill="none" stroke="#191970" d="M522,-526.3906C522,-519.2234 522,-509.0862 522,-499.671"/>
<polygon fill="#191970" stroke="#191970" points="525.5001,-499.5446 522,-489.5446 518.5001,-499.5446 525.5001,-499.5446"/>
</g>
<!-- Node33 -->
<g id="node34" class="node">
<title>Node33</title>
<g id="a_node34"><a xlink:href="Transform_8h.html" target="_top" xlink:title="iDynTree/Core/Transform.h">
<polygon fill="none" stroke="#000000" points="761,-403.5 761,-422.5 907,-422.5 907,-403.5 761,-403.5"/>
<text text-anchor="middle" x="834" y="-410.5" font-family="FreeSans.ttf" font-size="10.00" fill="#000000">iDynTree/Core/Transform.h</text>
</a>
</g>
</g>
<!-- Node24&#45;&gt;Node33 -->
<g id="edge71" class="edge">
<title>Node24&#45;&gt;Node33</title>
<path fill="none" stroke="#191970" d="M589.7433,-526.4918C660.1231,-516.1917 762.1933,-499.9077 778,-490 800.2313,-476.0654 816.4232,-449.8081 825.5182,-431.8665"/>
<polygon fill="#191970" stroke="#191970" points="828.7688,-433.1824 829.9398,-422.6525 822.4579,-430.1539 828.7688,-433.1824"/>
</g>
<!-- Node26&#45;&gt;Node6 -->
<g id="edge45" class="edge">
<title>Node26&#45;&gt;Node6</title>
<path fill="none" stroke="#191970" d="M1225.1808,-168.4509C1188.394,-148.7375 1103.8779,-103.4465 1060.5996,-80.2543"/>
<polygon fill="#191970" stroke="#191970" points="1062.2415,-77.1634 1051.7741,-75.5249 1058.9351,-83.3333 1062.2415,-77.1634"/>
</g>
<!-- Node26&#45;&gt;Node15 -->
<g id="edge46" class="edge">
<title>Node26&#45;&gt;Node15</title>
<path fill="none" stroke="#191970" d="M1192.6229,-168.4369C1131.8106,-156.8929 1031.3489,-137.8222 980.1518,-128.1034"/>
<polygon fill="#191970" stroke="#191970" points="980.7783,-124.6599 970.301,-126.2334 979.4727,-131.5371 980.7783,-124.6599"/>
</g>
<!-- Node27&#45;&gt;Node15 -->
<g id="edge49" class="edge">
<title>Node27&#45;&gt;Node15</title>
<path fill="none" stroke="#191970" d="M945.5226,-168.2455C945.914,-160.9382 946.4628,-150.6944 946.9444,-141.7046"/>
<polygon fill="#191970" stroke="#191970" points="950.4434,-141.8156 947.4834,-131.6427 943.4534,-141.4411 950.4434,-141.8156"/>
</g>
<!-- Node27&#45;&gt;Node22 -->
<g id="edge50" class="edge">
<title>Node27&#45;&gt;Node22</title>
<path fill="none" stroke="#191970" d="M925.5746,-168.3733C907.5979,-159.4644 880.6559,-146.1127 860.291,-136.0203"/>
<polygon fill="#191970" stroke="#191970" points="861.6861,-132.8055 851.1719,-131.5011 858.5778,-139.0776 861.6861,-132.8055"/>
</g>
<!-- Node28&#45;&gt;Node2 -->
<g id="edge53" class="edge">
<title>Node28&#45;&gt;Node2</title>
<path fill="none" stroke="#191970" d="M686.4746,-459.205C671.1675,-418.1684 625.1391,-303.3745 562,-224 553.0157,-212.7055 540.9412,-202.1122 530.4883,-193.9449"/>
<polygon fill="#191970" stroke="#191970" points="532.2852,-190.9165 522.1927,-187.6928 528.0721,-196.5067 532.2852,-190.9165"/>
</g>
<!-- Node28&#45;&gt;Node19 -->
<g id="edge54" class="edge">
<title>Node28&#45;&gt;Node19</title>
<path fill="none" stroke="#191970" d="M678.238,-459.4556C639.3614,-416.9564 528.8728,-296.1723 487.7099,-251.1738"/>
<polygon fill="#191970" stroke="#191970" points="490.1957,-248.7057 480.8635,-243.6895 485.0307,-253.4304 490.1957,-248.7057"/>
</g>
<!-- Node29 -->
<g id="node30" class="node">
<title>Node29</title>
<g id="a_node30"><a xlink:href="SpatialVector_8h.html" target="_top" xlink:title="iDynTree/Core/SpatialVector.h">
<polygon fill="none" stroke="#000000" points="428.5,-403.5 428.5,-422.5 589.5,-422.5 589.5,-403.5 428.5,-403.5"/>
<text text-anchor="middle" x="509" y="-410.5" font-family="FreeSans.ttf" font-size="10.00" fill="#000000">iDynTree/Core/SpatialVector.h</text>
</a>
</g>
</g>
<!-- Node28&#45;&gt;Node29 -->
<g id="edge55" class="edge">
<title>Node28&#45;&gt;Node29</title>
<path fill="none" stroke="#191970" d="M647.2332,-459.4554C616.5652,-449.149 576.3229,-435.6249 547.1728,-425.8286"/>
<polygon fill="#191970" stroke="#191970" points="547.9525,-422.3983 537.3585,-422.5303 545.7226,-429.0336 547.9525,-422.3983"/>
</g>
<!-- Node29&#45;&gt;Node3 -->
<g id="edge63" class="edge">
<title>Node29&#45;&gt;Node3</title>
<path fill="none" stroke="#191970" d="M428.3268,-407.8502C319.7103,-400.2815 137.0854,-385.0761 112,-367 81.3505,-344.9145 76,-327.7778 76,-290 76,-290 76,-290 76,-178 76,-144.3717 84.8647,-130.4193 113,-112 144.9585,-91.0778 383.3281,-75.877 504.1791,-69.427"/>
<polygon fill="#191970" stroke="#191970" points="504.637,-72.9078 514.4385,-68.8854 504.2679,-65.9175 504.637,-72.9078"/>
</g>
<!-- Node29&#45;&gt;Node16 -->
<g id="edge66" class="edge">
<title>Node29&#45;&gt;Node16</title>
<path fill="none" stroke="#191970" d="M428.3025,-408.7334C323.6755,-402.3619 152.233,-388.7294 133,-367 36.2508,-257.6931 310.2035,-163.539 413.9676,-132.6738"/>
<polygon fill="#191970" stroke="#191970" points="415.1383,-135.9779 423.7474,-129.8027 413.1664,-129.2613 415.1383,-135.9779"/>
</g>
<!-- Node29&#45;&gt;Node18 -->
<g id="edge62" class="edge">
<title>Node29&#45;&gt;Node18</title>
<path fill="none" stroke="#191970" d="M525.9492,-403.3484C563.6458,-381.8823 654.6198,-330.0776 699.3275,-304.6191"/>
<polygon fill="#191970" stroke="#191970" points="701.1717,-307.5967 708.1296,-299.6068 697.7078,-301.5138 701.1717,-307.5967"/>
</g>
<!-- Node29&#45;&gt;Node19 -->
<g id="edge64" class="edge">
<title>Node29&#45;&gt;Node19</title>
<path fill="none" stroke="#191970" d="M507.0107,-403.3762C501.1635,-375.0883 483.9472,-291.7987 476.0466,-253.5767"/>
<polygon fill="#191970" stroke="#191970" points="479.451,-252.7559 473.9991,-243.6714 472.5959,-254.1729 479.451,-252.7559"/>
</g>
<!-- Node29&#45;&gt;Node23 -->
<g id="edge65" class="edge">
<title>Node29&#45;&gt;Node23</title>
<path fill="none" stroke="#191970" d="M428.021,-410.434C305.8458,-405.7173 86.009,-393.6065 62,-367 -.1723,-298.1014 94.7319,-182.6398 135.1798,-139.2117"/>
<polygon fill="#191970" stroke="#191970" points="137.921,-141.4077 142.2651,-131.7444 132.843,-136.5895 137.921,-141.4077"/>
</g>
<!-- Node30 -->
<g id="node31" class="node">
<title>Node30</title>
<g id="a_node31"><a xlink:href="Position_8h.html" target="_top" xlink:title="Position.h">
<polygon fill="none" stroke="#000000" points="801.5,-342 801.5,-361 866.5,-361 866.5,-342 801.5,-342"/>
<text text-anchor="middle" x="834" y="-349" font-family="FreeSans.ttf" font-size="10.00" fill="#000000">Position.h</text>
</a>
</g>
</g>
<!-- Node29&#45;&gt;Node30 -->
<g id="edge56" class="edge">
<title>Node29&#45;&gt;Node30</title>
<path fill="none" stroke="#191970" d="M559.4247,-403.4581C623.1341,-391.4023 731.6554,-370.8667 791.4085,-359.5596"/>
<polygon fill="#191970" stroke="#191970" points="792.0962,-362.9917 801.2711,-357.6933 790.7946,-356.1137 792.0962,-362.9917"/>
</g>
<!-- Node30&#45;&gt;Node15 -->
<g id="edge61" class="edge">
<title>Node30&#45;&gt;Node15</title>
<path fill="none" stroke="#191970" d="M862.8501,-341.9505C904.1076,-326.9958 980.1411,-294.4375 1027,-244 1045.6772,-223.8965 1047.083,-214.7951 1053,-188 1054.9167,-179.3202 1057.8635,-175.4404 1053,-168 1036.9931,-143.5119 1004.7478,-131.9794 980.1907,-126.5982"/>
<polygon fill="#191970" stroke="#191970" points="980.6922,-123.1301 970.2068,-124.6487 979.3507,-130.0003 980.6922,-123.1301"/>
</g>
<!-- Node30&#45;&gt;Node18 -->
<g id="edge60" class="edge">
<title>Node30&#45;&gt;Node18</title>
<path fill="none" stroke="#191970" d="M816.9688,-341.8906C799.211,-331.8713 771.167,-316.0483 750.7118,-304.5071"/>
<polygon fill="#191970" stroke="#191970" points="752.3409,-301.4077 741.9117,-299.5419 748.9011,-307.5042 752.3409,-301.4077"/>
</g>
<!-- Node31 -->
<g id="node32" class="node">
<title>Node31</title>
<g id="a_node32"><a xlink:href="PositionRaw_8h.html" target="_top" xlink:title="iDynTree/Core/PositionRaw.h">
<polygon fill="none" stroke="#000000" points="862,-224.5 862,-243.5 1018,-243.5 1018,-224.5 862,-224.5"/>
<text text-anchor="middle" x="940" y="-231.5" font-family="FreeSans.ttf" font-size="10.00" fill="#000000">iDynTree/Core/PositionRaw.h</text>
</a>
</g>
</g>
<!-- Node30&#45;&gt;Node31 -->
<g id="edge57" class="edge">
<title>Node30&#45;&gt;Node31</title>
<path fill="none" stroke="#191970" d="M842.6744,-341.8845C860.5326,-322.0889 901.626,-276.5372 924.2874,-251.4173"/>
<polygon fill="#191970" stroke="#191970" points="927.1061,-253.5179 931.2057,-243.7484 921.9085,-248.829 927.1061,-253.5179"/>
</g>
<!-- Node31&#45;&gt;Node2 -->
<g id="edge58" class="edge">
<title>Node31&#45;&gt;Node2</title>
<path fill="none" stroke="#191970" d="M866.2274,-224.4369C789.9641,-214.5509 671.1189,-199.145 591.4669,-188.8198"/>
<polygon fill="#191970" stroke="#191970" points="591.8353,-185.3383 581.4683,-187.5237 590.9354,-192.2803 591.8353,-185.3383"/>
</g>
<!-- Node31&#45;&gt;Node15 -->
<g id="edge59" class="edge">
<title>Node31&#45;&gt;Node15</title>
<path fill="none" stroke="#191970" d="M984.8716,-224.4588C1004.7248,-217.7646 1026.2082,-206.5612 1038,-188 1055.2785,-160.8025 1012.131,-141.0894 979.7715,-130.6137"/>
<polygon fill="#191970" stroke="#191970" points="980.7409,-127.2502 970.154,-127.6611 978.6865,-133.9419 980.7409,-127.2502"/>
</g>
<!-- Node32&#45;&gt;Node2 -->
<g id="edge68" class="edge">
<title>Node32&#45;&gt;Node2</title>
<path fill="none" stroke="#191970" d="M464.6366,-459.4574C444.078,-451.5581 422.2408,-439.8914 407,-423 350.8854,-360.808 361.279,-326.7065 348,-244 346.5909,-235.2235 342.653,-231.1008 348,-224 359.2917,-209.0045 400.3163,-197.3837 437.9944,-189.5735"/>
<polygon fill="#191970" stroke="#191970" points="438.8735,-192.967 447.9915,-187.5713 437.4988,-186.1033 438.8735,-192.967"/>
</g>
<!-- Node32&#45;&gt;Node19 -->
<g id="edge69" class="edge">
<title>Node32&#45;&gt;Node19</title>
<path fill="none" stroke="#191970" d="M465.851,-459.4979C447.7069,-451.7009 429.5633,-440.0918 419,-423 384.2983,-366.8514 432.4478,-287.4738 457.942,-252.1602"/>
<polygon fill="#191970" stroke="#191970" points="461.002,-253.9104 464.1586,-243.7967 455.384,-249.7345 461.002,-253.9104"/>
</g>
<!-- Node32&#45;&gt;Node29 -->
<g id="edge70" class="edge">
<title>Node32&#45;&gt;Node29</title>
<path fill="none" stroke="#191970" d="M518.7865,-459.2977C517.0948,-451.2945 514.9999,-441.3843 513.183,-432.7889"/>
<polygon fill="#191970" stroke="#191970" points="516.574,-431.9069 511.0815,-422.8469 509.7253,-433.3546 516.574,-431.9069"/>
</g>
<!-- Node33&#45;&gt;Node15 -->
<g id="edge75" class="edge">
<title>Node33&#45;&gt;Node15</title>
<path fill="none" stroke="#191970" d="M891.4988,-403.4915C918.4146,-396.7951 949.6155,-385.5803 973,-367 1043.5163,-310.9709 1052.6283,-276.7441 1068,-188 1069.5171,-179.2415 1073.0364,-175.3244 1068,-168 1057.7051,-153.0282 1011.9363,-138.4873 979.9995,-129.8894"/>
<polygon fill="#191970" stroke="#191970" points="980.7397,-126.4652 970.1789,-127.3136 978.9637,-133.2362 980.7397,-126.4652"/>
</g>
<!-- Node33&#45;&gt;Node18 -->
<g id="edge73" class="edge">
<title>Node33&#45;&gt;Node18</title>
<path fill="none" stroke="#191970" d="M825.5067,-403.4965C817.2062,-394.2027 804.2176,-379.6438 793,-367 775.0239,-346.7384 754.4436,-323.4168 740.6759,-307.7972"/>
<polygon fill="#191970" stroke="#191970" points="743.0252,-305.1692 733.7879,-299.9804 737.7732,-309.7971 743.0252,-305.1692"/>
</g>
<!-- Node33&#45;&gt;Node21 -->
<g id="edge74" class="edge">
<title>Node33&#45;&gt;Node21</title>
<path fill="none" stroke="#191970" d="M858.1131,-403.499C922.8528,-376.6941 1091.3401,-297.6311 1027,-224 1010.7627,-205.4179 873.0821,-191.618 777.9854,-184.1954"/>
<polygon fill="#191970" stroke="#191970" points="778.0068,-180.6868 767.7678,-183.4095 777.4699,-187.6661 778.0068,-180.6868"/>
</g>
<!-- Node33&#45;&gt;Node30 -->
<g id="edge72" class="edge">
<title>Node33&#45;&gt;Node30</title>
<path fill="none" stroke="#191970" d="M834,-403.3906C834,-394.8657 834,-382.1392 834,-371.4235"/>
<polygon fill="#191970" stroke="#191970" points="837.5001,-371.2448 834,-361.2449 830.5001,-371.2449 837.5001,-371.2448"/>
</g>
</g>
</svg>
