<?xml version="1.0" encoding="UTF-8" standalone="no"?>
<!DOCTYPE svg PUBLIC "-//W3C//DTD SVG 1.1//EN"
 "http://www.w3.org/Graphics/SVG/1.1/DTD/svg11.dtd">
<!-- Generated by graphviz version 2.40.1 (20161225.0304)
 -->
<!-- Title: AttitudeEstimator.h Pages: 1 -->
<svg width="819pt" height="364pt"
 viewBox="0.00 0.00 819.00 364.00" xmlns="http://www.w3.org/2000/svg" xmlns:xlink="http://www.w3.org/1999/xlink">
<g id="graph0" class="graph" transform="scale(1 1) rotate(0) translate(4 360)">
<title>AttitudeEstimator.h</title>
<!-- Node0 -->
<g id="node1" class="node">
<title>Node0</title>
<polygon fill="#bfbfbf" stroke="#000000" points="112,-336.5 112,-355.5 223,-355.5 223,-336.5 112,-336.5"/>
<text text-anchor="middle" x="167.5" y="-343.5" font-family="FreeSans.ttf" font-size="10.00" fill="#000000">AttitudeEstimator.h</text>
</g>
<!-- Node1 -->
<g id="node2" class="node">
<title>Node1</title>
<g id="a_node2"><a xlink:href="VectorFixSize_8h.html" target="_top" xlink:title="iDynTree/Core/VectorFixSize.h">
<polygon fill="none" stroke="#000000" points="20,-168.5 20,-187.5 181,-187.5 181,-168.5 20,-168.5"/>
<text text-anchor="middle" x="100.5" y="-175.5" font-family="FreeSans.ttf" font-size="10.00" fill="#000000">iDynTree/Core/VectorFixSize.h</text>
</a>
</g>
</g>
<!-- Node0&#45;&gt;Node1 -->
<g id="edge1" class="edge">
<title>Node0&#45;&gt;Node1</title>
<path fill="none" stroke="#191970" d="M137.323,-336.4016C100.0533,-322.6896 38.521,-293.5163 13.5,-244 1.3006,-219.8575 29.7236,-202.1248 57.2779,-191.1564"/>
<polygon fill="#191970" stroke="#191970" points="58.774,-194.3339 66.9199,-187.5594 56.3273,-187.7754 58.774,-194.3339"/>
</g>
<!-- Node17 -->
<g id="node18" class="node">
<title>Node17</title>
<g id="a_node18"><a xlink:href="Rotation_8h.html" target="_top" xlink:title="iDynTree/Core/Rotation.h">
<polygon fill="none" stroke="#000000" points="99,-280.5 99,-299.5 236,-299.5 236,-280.5 99,-280.5"/>
<text text-anchor="middle" x="167.5" y="-287.5" font-family="FreeSans.ttf" font-size="10.00" fill="#000000">iDynTree/Core/Rotation.h</text>
</a>
</g>
</g>
<!-- Node0&#45;&gt;Node17 -->
<g id="edge20" class="edge">
<title>Node0&#45;&gt;Node17</title>
<path fill="none" stroke="#191970" d="M167.5,-336.2455C167.5,-328.9382 167.5,-318.6944 167.5,-309.7046"/>
<polygon fill="#191970" stroke="#191970" points="171.0001,-309.6426 167.5,-299.6427 164.0001,-309.6427 171.0001,-309.6426"/>
</g>
<!-- Node22 -->
<g id="node23" class="node">
<title>Node22</title>
<polygon fill="none" stroke="#bfbfbf" points="605.5,-112.5 605.5,-131.5 665.5,-131.5 665.5,-112.5 605.5,-112.5"/>
<text text-anchor="middle" x="635.5" y="-119.5" font-family="FreeSans.ttf" font-size="10.00" fill="#000000">iostream</text>
</g>
<!-- Node0&#45;&gt;Node22 -->
<g id="edge39" class="edge">
<title>Node0&#45;&gt;Node22</title>
<path fill="none" stroke="#191970" d="M193.8721,-336.4618C239.9727,-319.5199 337.8887,-282.3385 417.5,-244 489.8513,-209.1577 571.583,-160.896 611.2781,-136.853"/>
<polygon fill="#191970" stroke="#191970" points="613.262,-139.7429 619.988,-131.5568 609.6251,-133.7618 613.262,-139.7429"/>
</g>
<!-- Node2 -->
<g id="node3" class="node">
<title>Node2</title>
<g id="a_node3"><a xlink:href="Utils_8h.html" target="_top" xlink:title="iDynTree/Core/Utils.h">
<polygon fill="none" stroke="#000000" points="17,-56.5 17,-75.5 136,-75.5 136,-56.5 17,-56.5"/>
<text text-anchor="middle" x="76.5" y="-63.5" font-family="FreeSans.ttf" font-size="10.00" fill="#000000">iDynTree/Core/Utils.h</text>
</a>
</g>
</g>
<!-- Node1&#45;&gt;Node2 -->
<g id="edge2" class="edge">
<title>Node1&#45;&gt;Node2</title>
<path fill="none" stroke="#191970" d="M93.3985,-168.3724C87.2948,-159.4569 78.9483,-145.5662 75.5,-132 71.6183,-116.7286 72.1949,-98.8219 73.5604,-85.5164"/>
<polygon fill="#191970" stroke="#191970" points="77.0346,-85.94 74.8124,-75.5808 70.0895,-85.0647 77.0346,-85.94"/>
</g>
<!-- Node3 -->
<g id="node4" class="node">
<title>Node3</title>
<polygon fill="none" stroke="#bfbfbf" points="0,-.5 0,-19.5 53,-19.5 53,-.5 0,-.5"/>
<text text-anchor="middle" x="26.5" y="-7.5" font-family="FreeSans.ttf" font-size="10.00" fill="#000000">cstddef</text>
</g>
<!-- Node1&#45;&gt;Node3 -->
<g id="edge18" class="edge">
<title>Node1&#45;&gt;Node3</title>
<path fill="none" stroke="#191970" d="M86.7034,-168.3539C64.9518,-152.1979 23.5167,-117.339 7.5,-76 1.3991,-60.2537 7.8636,-41.7301 14.8577,-28.3215"/>
<polygon fill="#191970" stroke="#191970" points="17.935,-29.991 19.8721,-19.5747 11.8621,-26.5095 17.935,-29.991"/>
</g>
<!-- Node5 -->
<g id="node6" class="node">
<title>Node5</title>
<g id="a_node6"><a xlink:href="Span_8h.html" target="_top" xlink:title="iDynTree/Core/Span.h">
<polygon fill="none" stroke="#000000" points="462,-56.5 462,-75.5 583,-75.5 583,-56.5 462,-56.5"/>
<text text-anchor="middle" x="522.5" y="-63.5" font-family="FreeSans.ttf" font-size="10.00" fill="#000000">iDynTree/Core/Span.h</text>
</a>
</g>
</g>
<!-- Node1&#45;&gt;Node5 -->
<g id="edge5" class="edge">
<title>Node1&#45;&gt;Node5</title>
<path fill="none" stroke="#191970" d="M104.1446,-168.42C110.3519,-153.5517 124.4833,-125.2551 146.5,-112 196.4441,-81.9314 357.5453,-71.4481 451.8885,-67.8441"/>
<polygon fill="#191970" stroke="#191970" points="452.0615,-71.3402 461.9269,-67.477 451.8056,-64.3449 452.0615,-71.3402"/>
</g>
<!-- Node6 -->
<g id="node7" class="node">
<title>Node6</title>
<polygon fill="none" stroke="#bfbfbf" points="249.5,-.5 249.5,-19.5 301.5,-19.5 301.5,-.5 249.5,-.5"/>
<text text-anchor="middle" x="275.5" y="-7.5" font-family="FreeSans.ttf" font-size="10.00" fill="#000000">cassert</text>
</g>
<!-- Node1&#45;&gt;Node6 -->
<g id="edge17" class="edge">
<title>Node1&#45;&gt;Node6</title>
<path fill="none" stroke="#191970" d="M101.7481,-168.1108C103.9117,-154.3198 109.4502,-129.0855 122.5,-112 154.3825,-70.2579 208.4819,-40.0386 243.0712,-23.7729"/>
<polygon fill="#191970" stroke="#191970" points="244.6409,-26.9036 252.275,-19.5571 241.7258,-20.5394 244.6409,-26.9036"/>
</g>
<!-- Node14 -->
<g id="node15" class="node">
<title>Node14</title>
<polygon fill="none" stroke="#bfbfbf" points="155.5,-112.5 155.5,-131.5 199.5,-131.5 199.5,-112.5 155.5,-112.5"/>
<text text-anchor="middle" x="177.5" y="-119.5" font-family="FreeSans.ttf" font-size="10.00" fill="#000000">string</text>
</g>
<!-- Node1&#45;&gt;Node14 -->
<g id="edge15" class="edge">
<title>Node1&#45;&gt;Node14</title>
<path fill="none" stroke="#191970" d="M113.9124,-168.2455C125.5057,-159.814 142.4748,-147.4729 155.9678,-137.6598"/>
<polygon fill="#191970" stroke="#191970" points="158.2126,-140.355 164.2413,-131.6427 154.0953,-134.6938 158.2126,-140.355"/>
</g>
<!-- Node15 -->
<g id="node16" class="node">
<title>Node15</title>
<polygon fill="none" stroke="#bfbfbf" points="217.5,-112.5 217.5,-131.5 273.5,-131.5 273.5,-112.5 217.5,-112.5"/>
<text text-anchor="middle" x="245.5" y="-119.5" font-family="FreeSans.ttf" font-size="10.00" fill="#000000">sstream</text>
</g>
<!-- Node1&#45;&gt;Node15 -->
<g id="edge16" class="edge">
<title>Node1&#45;&gt;Node15</title>
<path fill="none" stroke="#191970" d="M125.4264,-168.3733C149.1202,-159.2226 184.9511,-145.3844 211.3068,-135.2057"/>
<polygon fill="#191970" stroke="#191970" points="212.8314,-138.3689 220.8989,-131.5011 210.3094,-131.8389 212.8314,-138.3689"/>
</g>
<!-- Node16 -->
<g id="node17" class="node">
<title>Node16</title>
<polygon fill="none" stroke="#bfbfbf" points="291.5,-112.5 291.5,-131.5 341.5,-131.5 341.5,-112.5 291.5,-112.5"/>
<text text-anchor="middle" x="316.5" y="-119.5" font-family="FreeSans.ttf" font-size="10.00" fill="#000000">cstring</text>
</g>
<!-- Node1&#45;&gt;Node16 -->
<g id="edge19" class="edge">
<title>Node1&#45;&gt;Node16</title>
<path fill="none" stroke="#191970" d="M140.0226,-168.4758C174.8737,-159.9736 227.2604,-146.9427 281.4943,-132.2071"/>
<polygon fill="#191970" stroke="#191970" points="282.5549,-135.5457 291.2797,-129.535 280.7109,-128.7929 282.5549,-135.5457"/>
</g>
<!-- Node2&#45;&gt;Node3 -->
<g id="edge3" class="edge">
<title>Node2&#45;&gt;Node3</title>
<path fill="none" stroke="#191970" d="M67.7907,-56.2455C60.6927,-48.2958 50.4916,-36.8706 42.005,-27.3656"/>
<polygon fill="#191970" stroke="#191970" points="44.3805,-24.771 35.1095,-19.6427 39.1589,-29.4331 44.3805,-24.771"/>
</g>
<!-- Node4 -->
<g id="node5" class="node">
<title>Node4</title>
<polygon fill="none" stroke="#bfbfbf" points="71.5,-.5 71.5,-19.5 151.5,-19.5 151.5,-.5 71.5,-.5"/>
<text text-anchor="middle" x="111.5" y="-7.5" font-family="FreeSans.ttf" font-size="10.00" fill="#000000">CoreExport.h</text>
</g>
<!-- Node2&#45;&gt;Node4 -->
<g id="edge4" class="edge">
<title>Node2&#45;&gt;Node4</title>
<path fill="none" stroke="#191970" d="M82.5965,-56.2455C87.4145,-48.5367 94.2751,-37.5598 100.1032,-28.2348"/>
<polygon fill="#191970" stroke="#191970" points="103.1413,-29.9777 105.4733,-19.6427 97.2053,-26.2677 103.1413,-29.9777"/>
</g>
<!-- Node5&#45;&gt;Node3 -->
<g id="edge9" class="edge">
<title>Node5&#45;&gt;Node3</title>
<path fill="none" stroke="#191970" d="M461.7521,-63.2428C375.2701,-58.5867 211.6585,-47.0765 63.317,-19.8432"/>
<polygon fill="#191970" stroke="#191970" points="63.5891,-16.3337 53.1169,-17.941 62.3058,-23.2151 63.5891,-16.3337"/>
</g>
<!-- Node5&#45;&gt;Node6 -->
<g id="edge6" class="edge">
<title>Node5&#45;&gt;Node6</title>
<path fill="none" stroke="#191970" d="M474.3015,-56.467C433.3864,-48.1662 372.9145,-35.4095 311.6591,-20.183"/>
<polygon fill="#191970" stroke="#191970" points="312.375,-16.7543 301.8241,-17.7184 310.6734,-23.5443 312.375,-16.7543"/>
</g>
<!-- Node7 -->
<g id="node8" class="node">
<title>Node7</title>
<polygon fill="none" stroke="#bfbfbf" points="319.5,-.5 319.5,-19.5 383.5,-19.5 383.5,-.5 319.5,-.5"/>
<text text-anchor="middle" x="351.5" y="-7.5" font-family="FreeSans.ttf" font-size="10.00" fill="#000000">algorithm</text>
</g>
<!-- Node5&#45;&gt;Node7 -->
<g id="edge7" class="edge">
<title>Node5&#45;&gt;Node7</title>
<path fill="none" stroke="#191970" d="M493.1041,-56.3733C464.6693,-47.0613 421.4123,-32.8953 390.1919,-22.671"/>
<polygon fill="#191970" stroke="#191970" points="391.105,-19.2872 380.5124,-19.5011 388.9264,-25.9396 391.105,-19.2872"/>
</g>
<!-- Node8 -->
<g id="node9" class="node">
<title>Node8</title>
<polygon fill="none" stroke="#bfbfbf" points="401.5,-.5 401.5,-19.5 443.5,-19.5 443.5,-.5 401.5,-.5"/>
<text text-anchor="middle" x="422.5" y="-7.5" font-family="FreeSans.ttf" font-size="10.00" fill="#000000">array</text>
</g>
<!-- Node5&#45;&gt;Node8 -->
<g id="edge8" class="edge">
<title>Node5&#45;&gt;Node8</title>
<path fill="none" stroke="#191970" d="M505.0813,-56.2455C489.4515,-47.4928 466.2981,-34.527 448.4815,-24.5496"/>
<polygon fill="#191970" stroke="#191970" points="450.1543,-21.475 439.7191,-19.6427 446.734,-27.5825 450.1543,-21.475"/>
</g>
<!-- Node9 -->
<g id="node10" class="node">
<title>Node9</title>
<polygon fill="none" stroke="#bfbfbf" points="462,-.5 462,-19.5 515,-19.5 515,-.5 462,-.5"/>
<text text-anchor="middle" x="488.5" y="-7.5" font-family="FreeSans.ttf" font-size="10.00" fill="#000000">iterator</text>
</g>
<!-- Node5&#45;&gt;Node9 -->
<g id="edge10" class="edge">
<title>Node5&#45;&gt;Node9</title>
<path fill="none" stroke="#191970" d="M516.5777,-56.2455C511.8973,-48.5367 505.2327,-37.5598 499.5711,-28.2348"/>
<polygon fill="#191970" stroke="#191970" points="502.5361,-26.3741 494.3545,-19.6427 496.5525,-30.007 502.5361,-26.3741"/>
</g>
<!-- Node10 -->
<g id="node11" class="node">
<title>Node10</title>
<polygon fill="none" stroke="#bfbfbf" points="533.5,-.5 533.5,-19.5 577.5,-19.5 577.5,-.5 533.5,-.5"/>
<text text-anchor="middle" x="555.5" y="-7.5" font-family="FreeSans.ttf" font-size="10.00" fill="#000000">limits</text>
</g>
<!-- Node5&#45;&gt;Node10 -->
<g id="edge11" class="edge">
<title>Node5&#45;&gt;Node10</title>
<path fill="none" stroke="#191970" d="M528.2482,-56.2455C532.7435,-48.617 539.1248,-37.7881 544.5825,-28.5267"/>
<polygon fill="#191970" stroke="#191970" points="547.7561,-30.035 549.8177,-19.6427 541.7253,-26.4811 547.7561,-30.035"/>
</g>
<!-- Node11 -->
<g id="node12" class="node">
<title>Node11</title>
<polygon fill="none" stroke="#bfbfbf" points="596,-.5 596,-19.5 661,-19.5 661,-.5 596,-.5"/>
<text text-anchor="middle" x="628.5" y="-7.5" font-family="FreeSans.ttf" font-size="10.00" fill="#000000">stdexcept</text>
</g>
<!-- Node5&#45;&gt;Node11 -->
<g id="edge12" class="edge">
<title>Node5&#45;&gt;Node11</title>
<path fill="none" stroke="#191970" d="M540.9638,-56.2455C557.6074,-47.4527 582.2993,-34.4079 601.2192,-24.4125"/>
<polygon fill="#191970" stroke="#191970" points="603.0408,-27.4086 610.2478,-19.6427 599.7709,-21.2193 603.0408,-27.4086"/>
</g>
<!-- Node12 -->
<g id="node13" class="node">
<title>Node12</title>
<polygon fill="none" stroke="#bfbfbf" points="742,-.5 742,-19.5 811,-19.5 811,-.5 742,-.5"/>
<text text-anchor="middle" x="776.5" y="-7.5" font-family="FreeSans.ttf" font-size="10.00" fill="#000000">type_traits</text>
</g>
<!-- Node5&#45;&gt;Node12 -->
<g id="edge13" class="edge">
<title>Node5&#45;&gt;Node12</title>
<path fill="none" stroke="#191970" d="M566.9964,-56.4865C607.5562,-47.7726 669.3983,-34.3822 731.7649,-20.3721"/>
<polygon fill="#191970" stroke="#191970" points="732.7883,-23.7294 741.7757,-18.1189 731.2512,-16.9002 732.7883,-23.7294"/>
</g>
<!-- Node13 -->
<g id="node14" class="node">
<title>Node13</title>
<polygon fill="none" stroke="#bfbfbf" points="679,-.5 679,-19.5 724,-19.5 724,-.5 679,-.5"/>
<text text-anchor="middle" x="701.5" y="-7.5" font-family="FreeSans.ttf" font-size="10.00" fill="#000000">utility</text>
</g>
<!-- Node5&#45;&gt;Node13 -->
<g id="edge14" class="edge">
<title>Node5&#45;&gt;Node13</title>
<path fill="none" stroke="#191970" d="M553.4275,-56.4928C581.4006,-47.8706 623.9694,-34.6922 669.1465,-20.4096"/>
<polygon fill="#191970" stroke="#191970" points="670.3449,-23.7015 678.8221,-17.3463 668.232,-17.028 670.3449,-23.7015"/>
</g>
<!-- Node17&#45;&gt;Node1 -->
<g id="edge38" class="edge">
<title>Node17&#45;&gt;Node1</title>
<path fill="none" stroke="#191970" d="M116.1518,-280.4847C78.8472,-272.4058 32.9731,-259.6439 21.5,-244 5.6636,-222.4066 35.4274,-203.4808 62.8378,-191.4971"/>
<polygon fill="#191970" stroke="#191970" points="64.4568,-194.6149 72.3565,-187.5548 61.7782,-188.1476 64.4568,-194.6149"/>
</g>
<!-- Node17&#45;&gt;Node14 -->
<g id="edge21" class="edge">
<title>Node17&#45;&gt;Node14</title>
<path fill="none" stroke="#191970" d="M178.059,-280.2076C186.5009,-271.6048 197.6906,-258.2634 202.5,-244 214.4681,-208.5056 198.7872,-165.1773 187.3992,-140.8749"/>
<polygon fill="#191970" stroke="#191970" points="190.4375,-139.1225 182.8746,-131.7027 184.1597,-142.2193 190.4375,-139.1225"/>
</g>
<!-- Node18 -->
<g id="node19" class="node">
<title>Node18</title>
<g id="a_node19"><a xlink:href="GeomVector3_8h.html" target="_top" xlink:title="iDynTree/Core/GeomVector3.h">
<polygon fill="none" stroke="#000000" points="31,-224.5 31,-243.5 194,-243.5 194,-224.5 31,-224.5"/>
<text text-anchor="middle" x="112.5" y="-231.5" font-family="FreeSans.ttf" font-size="10.00" fill="#000000">iDynTree/Core/GeomVector3.h</text>
</a>
</g>
</g>
<!-- Node17&#45;&gt;Node18 -->
<g id="edge22" class="edge">
<title>Node17&#45;&gt;Node18</title>
<path fill="none" stroke="#191970" d="M157.9197,-280.2455C149.9542,-272.1352 138.4359,-260.4075 128.9921,-250.7919"/>
<polygon fill="#191970" stroke="#191970" points="131.4747,-248.3247 121.9705,-243.6427 126.4805,-253.2297 131.4747,-248.3247"/>
</g>
<!-- Node19 -->
<g id="node20" class="node">
<title>Node19</title>
<g id="a_node20"><a xlink:href="RotationRaw_8h.html" target="_top" xlink:title="iDynTree/Core/RotationRaw.h">
<polygon fill="none" stroke="#000000" points="250.5,-224.5 250.5,-243.5 408.5,-243.5 408.5,-224.5 250.5,-224.5"/>
<text text-anchor="middle" x="329.5" y="-231.5" font-family="FreeSans.ttf" font-size="10.00" fill="#000000">iDynTree/Core/RotationRaw.h</text>
</a>
</g>
</g>
<!-- Node17&#45;&gt;Node19 -->
<g id="edge24" class="edge">
<title>Node17&#45;&gt;Node19</title>
<path fill="none" stroke="#191970" d="M195.3488,-280.3733C222.1703,-271.1016 262.9127,-257.0178 292.4598,-246.804"/>
<polygon fill="#191970" stroke="#191970" points="293.7069,-250.0762 302.0146,-243.5011 291.4198,-243.4603 293.7069,-250.0762"/>
</g>
<!-- Node18&#45;&gt;Node1 -->
<g id="edge23" class="edge">
<title>Node18&#45;&gt;Node1</title>
<path fill="none" stroke="#191970" d="M110.4098,-224.2455C108.8439,-216.9382 106.6488,-206.6944 104.7224,-197.7046"/>
<polygon fill="#191970" stroke="#191970" points="108.084,-196.6873 102.5663,-187.6427 101.2393,-198.1541 108.084,-196.6873"/>
</g>
<!-- Node19&#45;&gt;Node14 -->
<g id="edge37" class="edge">
<title>Node19&#45;&gt;Node14</title>
<path fill="none" stroke="#191970" d="M316.5406,-224.4509C290.2914,-205.1094 230.6274,-161.1465 198.6584,-137.5904"/>
<polygon fill="#191970" stroke="#191970" points="200.5534,-134.6392 190.4266,-131.5249 196.401,-140.2746 200.5534,-134.6392"/>
</g>
<!-- Node20 -->
<g id="node21" class="node">
<title>Node20</title>
<g id="a_node21"><a xlink:href="MatrixFixSize_8h.html" target="_top" xlink:title="iDynTree/Core/MatrixFixSize.h">
<polygon fill="none" stroke="#000000" points="289,-168.5 289,-187.5 450,-187.5 450,-168.5 289,-168.5"/>
<text text-anchor="middle" x="369.5" y="-175.5" font-family="FreeSans.ttf" font-size="10.00" fill="#000000">iDynTree/Core/MatrixFixSize.h</text>
</a>
</g>
</g>
<!-- Node19&#45;&gt;Node20 -->
<g id="edge25" class="edge">
<title>Node19&#45;&gt;Node20</title>
<path fill="none" stroke="#191970" d="M336.4675,-224.2455C342.0311,-216.4564 349.978,-205.3308 356.6829,-195.9439"/>
<polygon fill="#191970" stroke="#191970" points="359.648,-197.8144 362.6124,-187.6427 353.9519,-193.7457 359.648,-197.8144"/>
</g>
<!-- Node20&#45;&gt;Node2 -->
<g id="edge26" class="edge">
<title>Node20&#45;&gt;Node2</title>
<path fill="none" stroke="#191970" d="M369.7144,-168.2652C369.4654,-153.7102 366.694,-126.4461 350.5,-112 321.0815,-85.7567 217.5199,-74.2726 146.4929,-69.3992"/>
<polygon fill="#191970" stroke="#191970" points="146.4702,-65.8903 136.2622,-68.7272 146.0113,-72.8752 146.4702,-65.8903"/>
</g>
<!-- Node20&#45;&gt;Node6 -->
<g id="edge32" class="edge">
<title>Node20&#45;&gt;Node6</title>
<path fill="none" stroke="#191970" d="M371.8959,-168.1908C374.6437,-154.9252 377.8862,-130.7678 370.5,-112 355.9622,-75.0605 321.0474,-43.5794 297.8399,-25.7292"/>
<polygon fill="#191970" stroke="#191970" points="299.6939,-22.7457 289.5855,-19.5723 295.5087,-28.3568 299.6939,-22.7457"/>
</g>
<!-- Node20&#45;&gt;Node14 -->
<g id="edge34" class="edge">
<title>Node20&#45;&gt;Node14</title>
<path fill="none" stroke="#191970" d="M334.8541,-168.4654C304.2241,-159.9553 258.1057,-146.9467 209.5603,-132.2592"/>
<polygon fill="#191970" stroke="#191970" points="210.4084,-128.859 199.8228,-129.3002 208.3731,-135.5566 210.4084,-128.859"/>
</g>
<!-- Node20&#45;&gt;Node15 -->
<g id="edge36" class="edge">
<title>Node20&#45;&gt;Node15</title>
<path fill="none" stroke="#191970" d="M348.1836,-168.3733C328.2784,-159.3838 298.3564,-145.8706 275.94,-135.7471"/>
<polygon fill="#191970" stroke="#191970" points="277.0925,-132.4272 266.5382,-131.5011 274.2113,-138.8068 277.0925,-132.4272"/>
</g>
<!-- Node20&#45;&gt;Node16 -->
<g id="edge33" class="edge">
<title>Node20&#45;&gt;Node16</title>
<path fill="none" stroke="#191970" d="M360.2681,-168.2455C352.6683,-160.2155 341.7123,-148.6394 332.6632,-139.0781"/>
<polygon fill="#191970" stroke="#191970" points="335.042,-136.4998 325.6261,-131.6427 329.9579,-141.3115 335.042,-136.4998"/>
</g>
<!-- Node21 -->
<g id="node22" class="node">
<title>Node21</title>
<g id="a_node22"><a xlink:href="MatrixView_8h.html" target="_top" xlink:title="iDynTree/Core/MatrixView.h">
<polygon fill="none" stroke="#000000" points="436,-112.5 436,-131.5 587,-131.5 587,-112.5 436,-112.5"/>
<text text-anchor="middle" x="511.5" y="-119.5" font-family="FreeSans.ttf" font-size="10.00" fill="#000000">iDynTree/Core/MatrixView.h</text>
</a>
</g>
</g>
<!-- Node20&#45;&gt;Node21 -->
<g id="edge27" class="edge">
<title>Node20&#45;&gt;Node21</title>
<path fill="none" stroke="#191970" d="M393.9107,-168.3733C417.1142,-159.2226 452.2038,-145.3844 478.0142,-135.2057"/>
<polygon fill="#191970" stroke="#191970" points="479.3892,-138.4258 487.4079,-131.5011 476.8211,-131.9139 479.3892,-138.4258"/>
</g>
<!-- Node20&#45;&gt;Node22 -->
<g id="edge35" class="edge">
<title>Node20&#45;&gt;Node22</title>
<path fill="none" stroke="#191970" d="M420.5979,-168.4186C464.4588,-160.0197 529.5952,-147.1339 595.1993,-132.2178"/>
<polygon fill="#191970" stroke="#191970" points="596.3365,-135.5481 605.3034,-129.9049 594.7746,-128.7245 596.3365,-135.5481"/>
</g>
<!-- Node21&#45;&gt;Node2 -->
<g id="edge31" class="edge">
<title>Node21&#45;&gt;Node2</title>
<path fill="none" stroke="#191970" d="M437.2151,-112.4369C355.6517,-101.9368 225.7181,-85.2097 146.0759,-74.9569"/>
<polygon fill="#191970" stroke="#191970" points="146.5058,-71.4834 136.1408,-73.6779 145.612,-78.4261 146.5058,-71.4834"/>
</g>
<!-- Node21&#45;&gt;Node5 -->
<g id="edge30" class="edge">
<title>Node21&#45;&gt;Node5</title>
<path fill="none" stroke="#191970" d="M513.4161,-112.2455C514.8514,-104.9382 516.8636,-94.6944 518.6295,-85.7046"/>
<polygon fill="#191970" stroke="#191970" points="522.1127,-86.1298 520.6059,-75.6427 515.244,-84.7805 522.1127,-86.1298"/>
</g>
<!-- Node21&#45;&gt;Node6 -->
<g id="edge28" class="edge">
<title>Node21&#45;&gt;Node6</title>
<path fill="none" stroke="#191970" d="M498.8965,-112.3919C480.2008,-98.485 443.645,-72.599 409.5,-56 392.0088,-47.497 344.9933,-31.9457 311.6046,-21.2988"/>
<polygon fill="#191970" stroke="#191970" points="312.3181,-17.8533 301.7278,-18.1653 310.2012,-24.5255 312.3181,-17.8533"/>
</g>
<!-- Node21&#45;&gt;Node12 -->
<g id="edge29" class="edge">
<title>Node21&#45;&gt;Node12</title>
<path fill="none" stroke="#191970" d="M534.0938,-112.4509C581.2261,-92.5308 690.152,-46.4942 744.4815,-23.5323"/>
<polygon fill="#191970" stroke="#191970" points="746.1149,-26.6418 753.9634,-19.5249 743.3897,-20.1941 746.1149,-26.6418"/>
</g>
</g>
</svg>
