<?xml version="1.0" encoding="UTF-8" standalone="no"?>
<!DOCTYPE svg PUBLIC "-//W3C//DTD SVG 1.1//EN"
 "http://www.w3.org/Graphics/SVG/1.1/DTD/svg11.dtd">
<!-- Generated by graphviz version 2.40.1 (20161225.0304)
 -->
<!-- Title: Axis.h Pages: 1 -->
<svg width="950pt" height="420pt"
 viewBox="0.00 0.00 949.99 420.00" xmlns="http://www.w3.org/2000/svg" xmlns:xlink="http://www.w3.org/1999/xlink">
<g id="graph0" class="graph" transform="scale(1 1) rotate(0) translate(4 416)">
<title>Axis.h</title>
<!-- Node0 -->
<g id="node1" class="node">
<title>Node0</title>
<polygon fill="#bfbfbf" stroke="#000000" points="440.489,-392.5 440.489,-411.5 487.489,-411.5 487.489,-392.5 440.489,-392.5"/>
<text text-anchor="middle" x="463.989" y="-399.5" font-family="FreeSans.ttf" font-size="10.00" fill="#000000">Axis.h</text>
</g>
<!-- Node1 -->
<g id="node2" class="node">
<title>Node1</title>
<polygon fill="none" stroke="#bfbfbf" points="114.989,-112.5 114.989,-131.5 158.989,-131.5 158.989,-112.5 114.989,-112.5"/>
<text text-anchor="middle" x="136.989" y="-119.5" font-family="FreeSans.ttf" font-size="10.00" fill="#000000">string</text>
</g>
<!-- Node0&#45;&gt;Node1 -->
<g id="edge1" class="edge">
<title>Node0&#45;&gt;Node1</title>
<path fill="none" stroke="#191970" d="M440.3833,-397.3556C375.2831,-383.8768 197.989,-342.362 197.989,-290 197.989,-290 197.989,-290 197.989,-234 197.989,-196.6364 171.4834,-159.8655 153.4161,-139.141"/>
<polygon fill="#191970" stroke="#191970" points="155.8281,-136.5903 146.5203,-131.5291 150.6403,-141.29 155.8281,-136.5903"/>
</g>
<!-- Node2 -->
<g id="node3" class="node">
<title>Node2</title>
<g id="a_node3"><a xlink:href="Direction_8h.html" target="_top" xlink:title="iDynTree/Core/Direction.h">
<polygon fill="none" stroke="#000000" points="659.489,-224.5 659.489,-243.5 800.489,-243.5 800.489,-224.5 659.489,-224.5"/>
<text text-anchor="middle" x="729.989" y="-231.5" font-family="FreeSans.ttf" font-size="10.00" fill="#000000">iDynTree/Core/Direction.h</text>
</a>
</g>
</g>
<!-- Node0&#45;&gt;Node2 -->
<g id="edge2" class="edge">
<title>Node0&#45;&gt;Node2</title>
<path fill="none" stroke="#191970" d="M479.0525,-392.4862C523.2071,-364.5991 652.5755,-282.8927 706.2388,-249.0001"/>
<polygon fill="#191970" stroke="#191970" points="708.1751,-251.9168 714.7611,-243.6177 704.4372,-245.9984 708.1751,-251.9168"/>
</g>
<!-- Node4 -->
<g id="node5" class="node">
<title>Node4</title>
<g id="a_node5"><a xlink:href="Utils_8h.html" target="_top" xlink:title="iDynTree/Core/Utils.h">
<polygon fill="none" stroke="#000000" points="757.489,-56.5 757.489,-75.5 876.489,-75.5 876.489,-56.5 757.489,-56.5"/>
<text text-anchor="middle" x="816.989" y="-63.5" font-family="FreeSans.ttf" font-size="10.00" fill="#000000">iDynTree/Core/Utils.h</text>
</a>
</g>
</g>
<!-- Node0&#45;&gt;Node4 -->
<g id="edge48" class="edge">
<title>Node0&#45;&gt;Node4</title>
<path fill="none" stroke="#191970" d="M487.6972,-400.1771C570.6695,-393.1564 842.989,-364.4435 842.989,-290 842.989,-290 842.989,-290 842.989,-178 842.989,-144.7204 831.9619,-107.2857 824.2704,-85.2224"/>
<polygon fill="#191970" stroke="#191970" points="827.5219,-83.9219 820.8254,-75.7117 820.9403,-86.3059 827.5219,-83.9219"/>
</g>
<!-- Node18 -->
<g id="node19" class="node">
<title>Node18</title>
<g id="a_node19"><a xlink:href="Position_8h.html" target="_top" xlink:title="iDynTree/Core/Position.h">
<polygon fill="none" stroke="#000000" points="28.989,-336.5 28.989,-355.5 164.989,-355.5 164.989,-336.5 28.989,-336.5"/>
<text text-anchor="middle" x="96.989" y="-343.5" font-family="FreeSans.ttf" font-size="10.00" fill="#000000">iDynTree/Core/Position.h</text>
</a>
</g>
</g>
<!-- Node0&#45;&gt;Node18 -->
<g id="edge24" class="edge">
<title>Node0&#45;&gt;Node18</title>
<path fill="none" stroke="#191970" d="M440.4732,-398.4118C386.7325,-390.2115 253.1069,-369.8218 169.2527,-357.0266"/>
<polygon fill="#191970" stroke="#191970" points="169.6956,-353.5538 159.2821,-355.5052 168.6397,-360.4737 169.6956,-353.5538"/>
</g>
<!-- Node2&#45;&gt;Node1 -->
<g id="edge3" class="edge">
<title>Node2&#45;&gt;Node1</title>
<path fill="none" stroke="#191970" d="M659.3244,-225.1203C656.1698,-224.7386 653.0468,-224.3636 649.989,-224 508.3096,-207.1512 469.4732,-222.3377 330.989,-188 307.3573,-182.1404 302.9223,-176.1763 279.989,-168 242.1939,-154.5251 198.1755,-140.6314 169.0666,-131.6897"/>
<polygon fill="#191970" stroke="#191970" points="170.0132,-128.3192 159.4268,-128.7422 167.9664,-135.0133 170.0132,-128.3192"/>
</g>
<!-- Node3 -->
<g id="node4" class="node">
<title>Node3</title>
<g id="a_node4"><a xlink:href="VectorFixSize_8h.html" target="_top" xlink:title="iDynTree/Core/VectorFixSize.h">
<polygon fill="none" stroke="#000000" points="519.489,-168.5 519.489,-187.5 680.489,-187.5 680.489,-168.5 519.489,-168.5"/>
<text text-anchor="middle" x="599.989" y="-175.5" font-family="FreeSans.ttf" font-size="10.00" fill="#000000">iDynTree/Core/VectorFixSize.h</text>
</a>
</g>
</g>
<!-- Node2&#45;&gt;Node3 -->
<g id="edge4" class="edge">
<title>Node2&#45;&gt;Node3</title>
<path fill="none" stroke="#191970" d="M707.6412,-224.3733C686.5857,-215.3032 654.8395,-201.6279 631.2715,-191.4755"/>
<polygon fill="#191970" stroke="#191970" points="632.614,-188.243 622.0452,-187.5011 629.8446,-194.6719 632.614,-188.243"/>
</g>
<!-- Node2&#45;&gt;Node4 -->
<g id="edge23" class="edge">
<title>Node2&#45;&gt;Node4</title>
<path fill="none" stroke="#191970" d="M734.9158,-224.4862C748.8471,-197.5845 788.7143,-120.5994 807.2702,-84.7673"/>
<polygon fill="#191970" stroke="#191970" points="810.409,-86.3173 811.8996,-75.8279 804.193,-83.0983 810.409,-86.3173"/>
</g>
<!-- Node3&#45;&gt;Node1 -->
<g id="edge18" class="edge">
<title>Node3&#45;&gt;Node1</title>
<path fill="none" stroke="#191970" d="M519.1104,-168.8253C421.9275,-157.7539 264.6293,-139.671 205.989,-132 193.9513,-130.4253 180.7548,-128.5495 169.1552,-126.8503"/>
<polygon fill="#191970" stroke="#191970" points="169.435,-123.3537 159.0306,-125.3532 168.411,-130.2784 169.435,-123.3537"/>
</g>
<!-- Node3&#45;&gt;Node4 -->
<g id="edge5" class="edge">
<title>Node3&#45;&gt;Node4</title>
<path fill="none" stroke="#191970" d="M645.7998,-168.442C674.8997,-161.1469 712.658,-149.3571 742.989,-132 765.6809,-119.0144 787.4933,-98.2072 801.4832,-83.4293"/>
<polygon fill="#191970" stroke="#191970" points="804.1964,-85.6501 808.4064,-75.9276 799.0523,-80.9026 804.1964,-85.6501"/>
</g>
<!-- Node5 -->
<g id="node6" class="node">
<title>Node5</title>
<polygon fill="none" stroke="#bfbfbf" points="790.489,-.5 790.489,-19.5 843.489,-19.5 843.489,-.5 790.489,-.5"/>
<text text-anchor="middle" x="816.989" y="-7.5" font-family="FreeSans.ttf" font-size="10.00" fill="#000000">cstddef</text>
</g>
<!-- Node3&#45;&gt;Node5 -->
<g id="edge21" class="edge">
<title>Node3&#45;&gt;Node5</title>
<path fill="none" stroke="#191970" d="M625.0946,-168.4422C643.9235,-160.5008 669.6686,-147.9385 688.989,-132 722.1861,-104.6139 717.4604,-85.2916 748.989,-56 761.7153,-44.1767 777.7362,-33.1852 791.0304,-24.9132"/>
<polygon fill="#191970" stroke="#191970" points="792.9866,-27.8203 799.7245,-19.6441 789.3584,-21.8339 792.9866,-27.8203"/>
</g>
<!-- Node7 -->
<g id="node8" class="node">
<title>Node7</title>
<g id="a_node8"><a xlink:href="Span_8h.html" target="_top" xlink:title="iDynTree/Core/Span.h">
<polygon fill="none" stroke="#000000" points="473.489,-56.5 473.489,-75.5 594.489,-75.5 594.489,-56.5 473.489,-56.5"/>
<text text-anchor="middle" x="533.989" y="-63.5" font-family="FreeSans.ttf" font-size="10.00" fill="#000000">iDynTree/Core/Span.h</text>
</a>
</g>
</g>
<!-- Node3&#45;&gt;Node7 -->
<g id="edge8" class="edge">
<title>Node3&#45;&gt;Node7</title>
<path fill="none" stroke="#191970" d="M625.0894,-168.3683C652,-156.5647 688.7453,-135.2482 671.989,-112 662.0436,-98.2014 624.3564,-86.188 590.8756,-77.9016"/>
<polygon fill="#191970" stroke="#191970" points="591.6551,-74.4893 581.1143,-75.5584 590.0211,-81.296 591.6551,-74.4893"/>
</g>
<!-- Node8 -->
<g id="node9" class="node">
<title>Node8</title>
<polygon fill="none" stroke="#bfbfbf" points="209.989,-.5 209.989,-19.5 261.989,-19.5 261.989,-.5 209.989,-.5"/>
<text text-anchor="middle" x="235.989" y="-7.5" font-family="FreeSans.ttf" font-size="10.00" fill="#000000">cassert</text>
</g>
<!-- Node3&#45;&gt;Node8 -->
<g id="edge20" class="edge">
<title>Node3&#45;&gt;Node8</title>
<path fill="none" stroke="#191970" d="M523.9666,-168.4858C447.6259,-158.4439 338.9268,-142.6281 321.989,-132 282.2825,-107.085 255.7507,-56.4668 243.6,-28.9091"/>
<polygon fill="#191970" stroke="#191970" points="246.7714,-27.4225 239.6498,-19.5782 240.3253,-30.1515 246.7714,-27.4225"/>
</g>
<!-- Node16 -->
<g id="node17" class="node">
<title>Node16</title>
<polygon fill="none" stroke="#bfbfbf" points="538.989,-112.5 538.989,-131.5 594.989,-131.5 594.989,-112.5 538.989,-112.5"/>
<text text-anchor="middle" x="566.989" y="-119.5" font-family="FreeSans.ttf" font-size="10.00" fill="#000000">sstream</text>
</g>
<!-- Node3&#45;&gt;Node16 -->
<g id="edge19" class="edge">
<title>Node3&#45;&gt;Node16</title>
<path fill="none" stroke="#191970" d="M594.2408,-168.2455C589.7455,-160.617 583.3642,-149.7881 577.9066,-140.5267"/>
<polygon fill="#191970" stroke="#191970" points="580.7637,-138.4811 572.6713,-131.6427 574.7329,-142.035 580.7637,-138.4811"/>
</g>
<!-- Node17 -->
<g id="node18" class="node">
<title>Node17</title>
<polygon fill="none" stroke="#bfbfbf" points="612.989,-112.5 612.989,-131.5 662.989,-131.5 662.989,-112.5 612.989,-112.5"/>
<text text-anchor="middle" x="637.989" y="-119.5" font-family="FreeSans.ttf" font-size="10.00" fill="#000000">cstring</text>
</g>
<!-- Node3&#45;&gt;Node17 -->
<g id="edge22" class="edge">
<title>Node3&#45;&gt;Node17</title>
<path fill="none" stroke="#191970" d="M606.6081,-168.2455C611.8936,-160.4564 619.4431,-149.3308 625.8128,-139.9439"/>
<polygon fill="#191970" stroke="#191970" points="628.7269,-141.8827 631.4458,-131.6427 622.9345,-137.9522 628.7269,-141.8827"/>
</g>
<!-- Node4&#45;&gt;Node5 -->
<g id="edge6" class="edge">
<title>Node4&#45;&gt;Node5</title>
<path fill="none" stroke="#191970" d="M816.989,-56.2455C816.989,-48.9382 816.989,-38.6944 816.989,-29.7046"/>
<polygon fill="#191970" stroke="#191970" points="820.4891,-29.6426 816.989,-19.6427 813.4891,-29.6427 820.4891,-29.6426"/>
</g>
<!-- Node6 -->
<g id="node7" class="node">
<title>Node6</title>
<polygon fill="none" stroke="#bfbfbf" points="861.989,-.5 861.989,-19.5 941.989,-19.5 941.989,-.5 861.989,-.5"/>
<text text-anchor="middle" x="901.989" y="-7.5" font-family="FreeSans.ttf" font-size="10.00" fill="#000000">CoreExport.h</text>
</g>
<!-- Node4&#45;&gt;Node6 -->
<g id="edge7" class="edge">
<title>Node4&#45;&gt;Node6</title>
<path fill="none" stroke="#191970" d="M831.7949,-56.2455C844.7146,-47.7337 863.6821,-35.2375 878.6442,-25.3801"/>
<polygon fill="#191970" stroke="#191970" points="880.9277,-28.067 887.3528,-19.6427 877.0766,-22.2216 880.9277,-28.067"/>
</g>
<!-- Node7&#45;&gt;Node5 -->
<g id="edge12" class="edge">
<title>Node7&#45;&gt;Node5</title>
<path fill="none" stroke="#191970" d="M593.1772,-56.4626C641.1454,-48.3949 710.6597,-35.9406 780.4686,-19.9638"/>
<polygon fill="#191970" stroke="#191970" points="781.3643,-23.3491 790.3187,-17.6862 779.7872,-16.5291 781.3643,-23.3491"/>
</g>
<!-- Node7&#45;&gt;Node8 -->
<g id="edge9" class="edge">
<title>Node7&#45;&gt;Node8</title>
<path fill="none" stroke="#191970" d="M473.3031,-57.2408C422.0636,-49.4238 346.5964,-36.9267 272.2853,-20.1233"/>
<polygon fill="#191970" stroke="#191970" points="272.8143,-16.6539 262.2854,-17.834 271.2521,-23.4774 272.8143,-16.6539"/>
</g>
<!-- Node9 -->
<g id="node10" class="node">
<title>Node9</title>
<polygon fill="none" stroke="#bfbfbf" points="647.989,-.5 647.989,-19.5 711.989,-19.5 711.989,-.5 647.989,-.5"/>
<text text-anchor="middle" x="679.989" y="-7.5" font-family="FreeSans.ttf" font-size="10.00" fill="#000000">algorithm</text>
</g>
<!-- Node7&#45;&gt;Node9 -->
<g id="edge10" class="edge">
<title>Node7&#45;&gt;Node9</title>
<path fill="none" stroke="#191970" d="M559.0873,-56.3733C582.9445,-47.2226 619.0225,-33.3844 645.56,-23.2057"/>
<polygon fill="#191970" stroke="#191970" points="647.1349,-26.3503 655.2182,-19.5011 644.628,-19.8145 647.1349,-26.3503"/>
</g>
<!-- Node10 -->
<g id="node11" class="node">
<title>Node10</title>
<polygon fill="none" stroke="#bfbfbf" points="729.989,-.5 729.989,-19.5 771.989,-19.5 771.989,-.5 729.989,-.5"/>
<text text-anchor="middle" x="750.989" y="-7.5" font-family="FreeSans.ttf" font-size="10.00" fill="#000000">array</text>
</g>
<!-- Node7&#45;&gt;Node10 -->
<g id="edge11" class="edge">
<title>Node7&#45;&gt;Node10</title>
<path fill="none" stroke="#191970" d="M576.9544,-56.4677C612.8693,-48.2676 665.6154,-35.6887 719.9493,-20.1461"/>
<polygon fill="#191970" stroke="#191970" points="721.1143,-23.4527 729.75,-17.3147 719.1714,-16.7277 721.1143,-23.4527"/>
</g>
<!-- Node11 -->
<g id="node12" class="node">
<title>Node11</title>
<polygon fill="none" stroke="#bfbfbf" points="367.489,-.5 367.489,-19.5 420.489,-19.5 420.489,-.5 367.489,-.5"/>
<text text-anchor="middle" x="393.989" y="-7.5" font-family="FreeSans.ttf" font-size="10.00" fill="#000000">iterator</text>
</g>
<!-- Node7&#45;&gt;Node11 -->
<g id="edge13" class="edge">
<title>Node7&#45;&gt;Node11</title>
<path fill="none" stroke="#191970" d="M509.9222,-56.3733C487.1462,-47.2629 452.7546,-33.5062 427.34,-23.3404"/>
<polygon fill="#191970" stroke="#191970" points="428.3265,-19.9654 417.7418,-19.5011 425.7267,-26.4648 428.3265,-19.9654"/>
</g>
<!-- Node12 -->
<g id="node13" class="node">
<title>Node12</title>
<polygon fill="none" stroke="#bfbfbf" points="438.989,-.5 438.989,-19.5 482.989,-19.5 482.989,-.5 438.989,-.5"/>
<text text-anchor="middle" x="460.989" y="-7.5" font-family="FreeSans.ttf" font-size="10.00" fill="#000000">limits</text>
</g>
<!-- Node7&#45;&gt;Node12 -->
<g id="edge14" class="edge">
<title>Node7&#45;&gt;Node12</title>
<path fill="none" stroke="#191970" d="M521.2734,-56.2455C510.387,-47.8943 494.5007,-35.7076 481.769,-25.9408"/>
<polygon fill="#191970" stroke="#191970" points="483.6236,-22.9523 473.5589,-19.6427 479.3629,-28.5063 483.6236,-22.9523"/>
</g>
<!-- Node13 -->
<g id="node14" class="node">
<title>Node13</title>
<polygon fill="none" stroke="#bfbfbf" points="501.489,-.5 501.489,-19.5 566.489,-19.5 566.489,-.5 501.489,-.5"/>
<text text-anchor="middle" x="533.989" y="-7.5" font-family="FreeSans.ttf" font-size="10.00" fill="#000000">stdexcept</text>
</g>
<!-- Node7&#45;&gt;Node13 -->
<g id="edge15" class="edge">
<title>Node7&#45;&gt;Node13</title>
<path fill="none" stroke="#191970" d="M533.989,-56.2455C533.989,-48.9382 533.989,-38.6944 533.989,-29.7046"/>
<polygon fill="#191970" stroke="#191970" points="537.4891,-29.6426 533.989,-19.6427 530.4891,-29.6427 537.4891,-29.6426"/>
</g>
<!-- Node14 -->
<g id="node15" class="node">
<title>Node14</title>
<polygon fill="none" stroke="#bfbfbf" points="280.489,-.5 280.489,-19.5 349.489,-19.5 349.489,-.5 280.489,-.5"/>
<text text-anchor="middle" x="314.989" y="-7.5" font-family="FreeSans.ttf" font-size="10.00" fill="#000000">type_traits</text>
</g>
<!-- Node7&#45;&gt;Node14 -->
<g id="edge16" class="edge">
<title>Node7&#45;&gt;Node14</title>
<path fill="none" stroke="#191970" d="M496.3416,-56.3733C458.3478,-46.6579 399.6908,-31.6589 359.4354,-21.3653"/>
<polygon fill="#191970" stroke="#191970" points="360.1767,-17.9423 349.6213,-18.8557 358.4424,-24.7241 360.1767,-17.9423"/>
</g>
<!-- Node15 -->
<g id="node16" class="node">
<title>Node15</title>
<polygon fill="none" stroke="#bfbfbf" points="584.489,-.5 584.489,-19.5 629.489,-19.5 629.489,-.5 584.489,-.5"/>
<text text-anchor="middle" x="606.989" y="-7.5" font-family="FreeSans.ttf" font-size="10.00" fill="#000000">utility</text>
</g>
<!-- Node7&#45;&gt;Node15 -->
<g id="edge17" class="edge">
<title>Node7&#45;&gt;Node15</title>
<path fill="none" stroke="#191970" d="M546.7046,-56.2455C557.5911,-47.8943 573.4773,-35.7076 586.209,-25.9408"/>
<polygon fill="#191970" stroke="#191970" points="588.6151,-28.5063 594.4191,-19.6427 584.3544,-22.9523 588.6151,-28.5063"/>
</g>
<!-- Node18&#45;&gt;Node1 -->
<g id="edge47" class="edge">
<title>Node18&#45;&gt;Node1</title>
<path fill="none" stroke="#191970" d="M79.9239,-336.4295C47.5029,-316.9147 -17.8116,-270.4334 4.989,-224 25.7544,-181.7113 73.4286,-151.9806 105.4292,-135.9237"/>
<polygon fill="#191970" stroke="#191970" points="107.3355,-138.8894 114.8101,-131.3807 104.2844,-132.5893 107.3355,-138.8894"/>
</g>
<!-- Node19 -->
<g id="node20" class="node">
<title>Node19</title>
<g id="a_node20"><a xlink:href="PositionRaw_8h.html" target="_top" xlink:title="iDynTree/Core/PositionRaw.h">
<polygon fill="none" stroke="#000000" points="13.989,-224.5 13.989,-243.5 169.989,-243.5 169.989,-224.5 13.989,-224.5"/>
<text text-anchor="middle" x="91.989" y="-231.5" font-family="FreeSans.ttf" font-size="10.00" fill="#000000">iDynTree/Core/PositionRaw.h</text>
</a>
</g>
</g>
<!-- Node18&#45;&gt;Node19 -->
<g id="edge25" class="edge">
<title>Node18&#45;&gt;Node19</title>
<path fill="none" stroke="#191970" d="M96.5627,-336.4509C95.7472,-318.184 93.9513,-277.9553 92.8684,-253.6976"/>
<polygon fill="#191970" stroke="#191970" points="96.3568,-253.3588 92.4142,-243.5249 89.3638,-253.6711 96.3568,-253.3588"/>
</g>
<!-- Node20 -->
<g id="node21" class="node">
<title>Node20</title>
<g id="a_node21"><a xlink:href="Rotation_8h.html" target="_top" xlink:title="iDynTree/Core/Rotation.h">
<polygon fill="none" stroke="#000000" points="274.489,-280.5 274.489,-299.5 411.489,-299.5 411.489,-280.5 274.489,-280.5"/>
<text text-anchor="middle" x="342.989" y="-287.5" font-family="FreeSans.ttf" font-size="10.00" fill="#000000">iDynTree/Core/Rotation.h</text>
</a>
</g>
</g>
<!-- Node18&#45;&gt;Node20 -->
<g id="edge28" class="edge">
<title>Node18&#45;&gt;Node20</title>
<path fill="none" stroke="#191970" d="M138.9984,-336.4369C181.0994,-326.8529 245.9895,-312.0812 291.2411,-301.78"/>
<polygon fill="#191970" stroke="#191970" points="292.1792,-305.1561 301.1529,-299.5237 290.6254,-298.3307 292.1792,-305.1561"/>
</g>
<!-- Node19&#45;&gt;Node1 -->
<g id="edge27" class="edge">
<title>Node19&#45;&gt;Node1</title>
<path fill="none" stroke="#191970" d="M95.8257,-224.4509C103.2315,-206.0186 119.6217,-165.2254 129.3378,-141.043"/>
<polygon fill="#191970" stroke="#191970" points="132.6815,-142.1088 133.162,-131.5249 126.1861,-139.499 132.6815,-142.1088"/>
</g>
<!-- Node19&#45;&gt;Node3 -->
<g id="edge26" class="edge">
<title>Node19&#45;&gt;Node3</title>
<path fill="none" stroke="#191970" d="M170.1867,-225.4193C251.9535,-216.4413 384.3199,-201.8917 508.9308,-188.1161"/>
<polygon fill="#191970" stroke="#191970" points="509.4817,-191.5766 519.0364,-186.9988 508.7123,-184.619 509.4817,-191.5766"/>
</g>
<!-- Node20&#45;&gt;Node1 -->
<g id="edge29" class="edge">
<title>Node20&#45;&gt;Node1</title>
<path fill="none" stroke="#191970" d="M321.4108,-280.4433C298.8135,-270.1393 265.2113,-253.8883 254.989,-244 227.0946,-217.0172 238.9431,-195.9222 211.989,-168 199.4575,-155.0183 182.5221,-144.2228 167.9152,-136.3599"/>
<polygon fill="#191970" stroke="#191970" points="169.2147,-133.0922 158.7223,-131.6228 166.0083,-139.3147 169.2147,-133.0922"/>
</g>
<!-- Node20&#45;&gt;Node3 -->
<g id="edge46" class="edge">
<title>Node20&#45;&gt;Node3</title>
<path fill="none" stroke="#191970" d="M361.5382,-280.3231C379.3529,-271.0248 407.0206,-256.5719 430.989,-244 447.8904,-235.1349 451.4938,-231.6266 468.989,-224 498.5747,-211.1029 533.048,-199.1133 559.203,-190.6099"/>
<polygon fill="#191970" stroke="#191970" points="560.3434,-193.9198 568.7923,-187.527 558.2009,-187.2557 560.3434,-193.9198"/>
</g>
<!-- Node21 -->
<g id="node22" class="node">
<title>Node21</title>
<g id="a_node22"><a xlink:href="GeomVector3_8h.html" target="_top" xlink:title="iDynTree/Core/GeomVector3.h">
<polygon fill="none" stroke="#000000" points="478.489,-224.5 478.489,-243.5 641.489,-243.5 641.489,-224.5 478.489,-224.5"/>
<text text-anchor="middle" x="559.989" y="-231.5" font-family="FreeSans.ttf" font-size="10.00" fill="#000000">iDynTree/Core/GeomVector3.h</text>
</a>
</g>
</g>
<!-- Node20&#45;&gt;Node21 -->
<g id="edge30" class="edge">
<title>Node20&#45;&gt;Node21</title>
<path fill="none" stroke="#191970" d="M380.2926,-280.3733C417.1575,-270.8598 473.655,-256.2797 513.4396,-246.0127"/>
<polygon fill="#191970" stroke="#191970" points="514.364,-249.3889 523.1722,-243.5011 512.6148,-242.611 514.364,-249.3889"/>
</g>
<!-- Node22 -->
<g id="node23" class="node">
<title>Node22</title>
<g id="a_node23"><a xlink:href="RotationRaw_8h.html" target="_top" xlink:title="iDynTree/Core/RotationRaw.h">
<polygon fill="none" stroke="#000000" points="263.989,-224.5 263.989,-243.5 421.989,-243.5 421.989,-224.5 263.989,-224.5"/>
<text text-anchor="middle" x="342.989" y="-231.5" font-family="FreeSans.ttf" font-size="10.00" fill="#000000">iDynTree/Core/RotationRaw.h</text>
</a>
</g>
</g>
<!-- Node20&#45;&gt;Node22 -->
<g id="edge32" class="edge">
<title>Node20&#45;&gt;Node22</title>
<path fill="none" stroke="#191970" d="M342.989,-280.2455C342.989,-272.9382 342.989,-262.6944 342.989,-253.7046"/>
<polygon fill="#191970" stroke="#191970" points="346.4891,-253.6426 342.989,-243.6427 339.4891,-253.6427 346.4891,-253.6426"/>
</g>
<!-- Node21&#45;&gt;Node3 -->
<g id="edge31" class="edge">
<title>Node21&#45;&gt;Node3</title>
<path fill="none" stroke="#191970" d="M566.9565,-224.2455C572.5201,-216.4564 580.467,-205.3308 587.1719,-195.9439"/>
<polygon fill="#191970" stroke="#191970" points="590.137,-197.8144 593.1014,-187.6427 584.4409,-193.7457 590.137,-197.8144"/>
</g>
<!-- Node22&#45;&gt;Node1 -->
<g id="edge45" class="edge">
<title>Node22&#45;&gt;Node1</title>
<path fill="none" stroke="#191970" d="M331.2417,-224.3063C314.1471,-210.5241 281.0577,-185.0494 249.989,-168 223.7849,-153.6201 192.1335,-141.116 169.0029,-132.7892"/>
<polygon fill="#191970" stroke="#191970" points="169.934,-129.4061 159.3392,-129.3744 167.6018,-136.0062 169.934,-129.4061"/>
</g>
<!-- Node23 -->
<g id="node24" class="node">
<title>Node23</title>
<g id="a_node24"><a xlink:href="MatrixFixSize_8h.html" target="_top" xlink:title="iDynTree/Core/MatrixFixSize.h">
<polygon fill="none" stroke="#000000" points="340.489,-168.5 340.489,-187.5 501.489,-187.5 501.489,-168.5 340.489,-168.5"/>
<text text-anchor="middle" x="420.989" y="-175.5" font-family="FreeSans.ttf" font-size="10.00" fill="#000000">iDynTree/Core/MatrixFixSize.h</text>
</a>
</g>
</g>
<!-- Node22&#45;&gt;Node23 -->
<g id="edge33" class="edge">
<title>Node22&#45;&gt;Node23</title>
<path fill="none" stroke="#191970" d="M356.5756,-224.2455C368.3195,-215.814 385.5089,-203.4729 399.1772,-193.6598"/>
<polygon fill="#191970" stroke="#191970" points="401.4761,-196.3179 407.5581,-187.6427 397.3936,-190.6316 401.4761,-196.3179"/>
</g>
<!-- Node23&#45;&gt;Node1 -->
<g id="edge42" class="edge">
<title>Node23&#45;&gt;Node1</title>
<path fill="none" stroke="#191970" d="M361.5595,-168.4804C311.1308,-160.044 236.9863,-146.7938 172.989,-132 171.7092,-131.7042 170.4066,-131.3925 169.0929,-131.0695"/>
<polygon fill="#191970" stroke="#191970" points="169.5548,-127.5732 158.9956,-128.4417 167.7917,-134.3476 169.5548,-127.5732"/>
</g>
<!-- Node23&#45;&gt;Node4 -->
<g id="edge34" class="edge">
<title>Node23&#45;&gt;Node4</title>
<path fill="none" stroke="#191970" d="M435.4464,-168.2839C460.3046,-151.7435 510.363,-119.2017 529.989,-112 601.3057,-85.8305 687.9924,-74.5321 747.3108,-69.6643"/>
<polygon fill="#191970" stroke="#191970" points="747.6256,-73.1504 757.3227,-68.8824 747.0805,-66.1717 747.6256,-73.1504"/>
</g>
<!-- Node23&#45;&gt;Node8 -->
<g id="edge40" class="edge">
<title>Node23&#45;&gt;Node8</title>
<path fill="none" stroke="#191970" d="M357.2923,-168.4988C297.4291,-158.9198 215.6048,-143.8908 205.989,-132 181.4368,-101.6391 205.8921,-54.0827 222.8208,-28.2259"/>
<polygon fill="#191970" stroke="#191970" points="225.8584,-29.9843 228.6125,-19.7536 220.0796,-26.0339 225.8584,-29.9843"/>
</g>
<!-- Node23&#45;&gt;Node16 -->
<g id="edge44" class="edge">
<title>Node23&#45;&gt;Node16</title>
<path fill="none" stroke="#191970" d="M446.0873,-168.3733C469.9445,-159.2226 506.0225,-145.3844 532.56,-135.2057"/>
<polygon fill="#191970" stroke="#191970" points="534.1349,-138.3503 542.2182,-131.5011 531.628,-131.8145 534.1349,-138.3503"/>
</g>
<!-- Node23&#45;&gt;Node17 -->
<g id="edge41" class="edge">
<title>Node23&#45;&gt;Node17</title>
<path fill="none" stroke="#191970" d="M460.7322,-168.493C495.777,-160.0021 548.4531,-146.9789 602.9393,-132.2161"/>
<polygon fill="#191970" stroke="#191970" points="604.041,-135.5436 612.7698,-129.5387 602.2014,-128.7896 604.041,-135.5436"/>
</g>
<!-- Node24 -->
<g id="node25" class="node">
<title>Node24</title>
<g id="a_node25"><a xlink:href="MatrixView_8h.html" target="_top" xlink:title="iDynTree/Core/MatrixView.h">
<polygon fill="none" stroke="#000000" points="331.489,-112.5 331.489,-131.5 482.489,-131.5 482.489,-112.5 331.489,-112.5"/>
<text text-anchor="middle" x="406.989" y="-119.5" font-family="FreeSans.ttf" font-size="10.00" fill="#000000">iDynTree/Core/MatrixView.h</text>
</a>
</g>
</g>
<!-- Node23&#45;&gt;Node24 -->
<g id="edge35" class="edge">
<title>Node23&#45;&gt;Node24</title>
<path fill="none" stroke="#191970" d="M418.5504,-168.2455C416.7035,-160.8579 414.1062,-150.4689 411.8412,-141.4087"/>
<polygon fill="#191970" stroke="#191970" points="415.2206,-140.4952 409.3997,-131.6427 408.4296,-142.193 415.2206,-140.4952"/>
</g>
<!-- Node25 -->
<g id="node26" class="node">
<title>Node25</title>
<polygon fill="none" stroke="#bfbfbf" points="214.989,-112.5 214.989,-131.5 274.989,-131.5 274.989,-112.5 214.989,-112.5"/>
<text text-anchor="middle" x="244.989" y="-119.5" font-family="FreeSans.ttf" font-size="10.00" fill="#000000">iostream</text>
</g>
<!-- Node23&#45;&gt;Node25 -->
<g id="edge43" class="edge">
<title>Node23&#45;&gt;Node25</title>
<path fill="none" stroke="#191970" d="M390.7335,-168.3733C361.3407,-159.021 316.5598,-144.7725 284.3956,-134.5385"/>
<polygon fill="#191970" stroke="#191970" points="285.4402,-131.198 274.8497,-131.5011 283.3177,-137.8685 285.4402,-131.198"/>
</g>
<!-- Node24&#45;&gt;Node4 -->
<g id="edge39" class="edge">
<title>Node24&#45;&gt;Node4</title>
<path fill="none" stroke="#191970" d="M477.0047,-112.4369C552.3659,-102.1436 671.5389,-85.8664 746.9206,-75.5703"/>
<polygon fill="#191970" stroke="#191970" points="747.8232,-78.9796 757.2575,-74.1584 746.8759,-72.044 747.8232,-78.9796"/>
</g>
<!-- Node24&#45;&gt;Node7 -->
<g id="edge38" class="edge">
<title>Node24&#45;&gt;Node7</title>
<path fill="none" stroke="#191970" d="M428.8211,-112.3733C449.2993,-103.3435 480.1289,-89.7494 503.1209,-79.6111"/>
<polygon fill="#191970" stroke="#191970" points="504.704,-82.7383 512.4418,-75.5011 501.8797,-76.3333 504.704,-82.7383"/>
</g>
<!-- Node24&#45;&gt;Node8 -->
<g id="edge36" class="edge">
<title>Node24&#45;&gt;Node8</title>
<path fill="none" stroke="#191970" d="M394.791,-112.3489C377.7804,-99.0553 345.7769,-74.6402 316.989,-56 299.5136,-44.6847 279.1309,-33.1173 263.1839,-24.4127"/>
<polygon fill="#191970" stroke="#191970" points="264.8237,-21.3205 254.3627,-19.6419 261.4937,-27.4777 264.8237,-21.3205"/>
</g>
<!-- Node24&#45;&gt;Node14 -->
<g id="edge37" class="edge">
<title>Node24&#45;&gt;Node14</title>
<path fill="none" stroke="#191970" d="M401.1438,-112.1741C393.0544,-98.8897 377.6624,-74.711 361.989,-56 353.2564,-45.5749 342.4754,-34.8929 333.4426,-26.4498"/>
<polygon fill="#191970" stroke="#191970" points="335.7854,-23.8494 326.0501,-19.6692 331.0537,-29.008 335.7854,-23.8494"/>
</g>
</g>
</svg>
