<?xml version="1.0" encoding="UTF-8" standalone="no"?>
<!DOCTYPE svg PUBLIC "-//W3C//DTD SVG 1.1//EN"
 "http://www.w3.org/Graphics/SVG/1.1/DTD/svg11.dtd">
<!-- Generated by graphviz version 2.40.1 (20161225.0304)
 -->
<!-- Title: BoundingBoxHelpers.h Pages: 1 -->
<svg width="1051pt" height="532pt"
 viewBox="0.00 0.00 1050.51 532.00" xmlns="http://www.w3.org/2000/svg" xmlns:xlink="http://www.w3.org/1999/xlink">
<g id="graph0" class="graph" transform="scale(1 1) rotate(0) translate(4 528)">
<title>BoundingBoxHelpers.h</title>
<!-- Node0 -->
<g id="node1" class="node">
<title>Node0</title>
<polygon fill="#bfbfbf" stroke="#000000" points="701.0136,-504.5 701.0136,-523.5 829.0136,-523.5 829.0136,-504.5 701.0136,-504.5"/>
<text text-anchor="middle" x="765.0136" y="-511.5" font-family="FreeSans.ttf" font-size="10.00" fill="#000000">BoundingBoxHelpers.h</text>
</g>
<!-- Node1 -->
<g id="node2" class="node">
<title>Node1</title>
<polygon fill="none" stroke="#bfbfbf" points="668.0136,-112.5 668.0136,-131.5 712.0136,-131.5 712.0136,-112.5 668.0136,-112.5"/>
<text text-anchor="middle" x="690.0136" y="-119.5" font-family="FreeSans.ttf" font-size="10.00" fill="#000000">string</text>
</g>
<!-- Node0&#45;&gt;Node1 -->
<g id="edge1" class="edge">
<title>Node0&#45;&gt;Node1</title>
<path fill="none" stroke="#191970" d="M806.3932,-504.427C828.9302,-497.4601 856.0121,-486.017 875.0136,-468 901.0255,-443.3359 910.6186,-426.7979 902.0136,-392 888.5075,-337.383 824.3842,-207.1873 784.0136,-168 766.5039,-151.0036 741.4934,-139.1798 721.6721,-131.7793"/>
<polygon fill="#191970" stroke="#191970" points="722.726,-128.4396 712.1312,-128.4035 720.391,-135.0387 722.726,-128.4396"/>
</g>
<!-- Node2 -->
<g id="node3" class="node">
<title>Node2</title>
<polygon fill="none" stroke="#bfbfbf" points="845.5136,-392.5 845.5136,-411.5 892.5136,-411.5 892.5136,-392.5 845.5136,-392.5"/>
<text text-anchor="middle" x="869.0136" y="-399.5" font-family="FreeSans.ttf" font-size="10.00" fill="#000000">vector</text>
</g>
<!-- Node0&#45;&gt;Node2 -->
<g id="edge2" class="edge">
<title>Node0&#45;&gt;Node2</title>
<path fill="none" stroke="#191970" d="M801.6475,-504.3864C821.0155,-497.425 843.5133,-486.0003 857.0136,-468 866.9383,-454.767 869.5441,-435.9019 869.8973,-421.7275"/>
<polygon fill="#191970" stroke="#191970" points="873.3955,-421.5267 869.7943,-411.5627 866.3959,-421.5977 873.3955,-421.5267"/>
</g>
<!-- Node3 -->
<g id="node4" class="node">
<title>Node3</title>
<g id="a_node4"><a xlink:href="MatrixDynSize_8h.html" target="_top" xlink:title="iDynTree/Core/MatrixDynSize.h">
<polygon fill="none" stroke="#000000" points="600.5136,-336.5 600.5136,-355.5 767.5136,-355.5 767.5136,-336.5 600.5136,-336.5"/>
<text text-anchor="middle" x="684.0136" y="-343.5" font-family="FreeSans.ttf" font-size="10.00" fill="#000000">iDynTree/Core/MatrixDynSize.h</text>
</a>
</g>
</g>
<!-- Node0&#45;&gt;Node3 -->
<g id="edge3" class="edge">
<title>Node0&#45;&gt;Node3</title>
<path fill="none" stroke="#191970" d="M724.7211,-504.4495C705.5477,-497.6623 684.3733,-486.3805 673.0136,-468 653.3604,-436.2006 665.8831,-390.5502 675.6609,-365.0631"/>
<polygon fill="#191970" stroke="#191970" points="678.9172,-366.3469 679.4547,-355.7657 672.436,-363.7022 678.9172,-366.3469"/>
</g>
<!-- Node17 -->
<g id="node18" class="node">
<title>Node17</title>
<g id="a_node18"><a xlink:href="Position_8h.html" target="_top" xlink:title="iDynTree/Core/Position.h">
<polygon fill="none" stroke="#000000" points="409.0136,-336.5 409.0136,-355.5 545.0136,-355.5 545.0136,-336.5 409.0136,-336.5"/>
<text text-anchor="middle" x="477.0136" y="-343.5" font-family="FreeSans.ttf" font-size="10.00" fill="#000000">iDynTree/Core/Position.h</text>
</a>
</g>
</g>
<!-- Node0&#45;&gt;Node17 -->
<g id="edge21" class="edge">
<title>Node0&#45;&gt;Node17</title>
<path fill="none" stroke="#191970" d="M738.1102,-504.4824C716.6653,-496.3181 686.3099,-483.4429 662.0136,-468 618.3999,-440.2788 617.3085,-420.2164 574.0136,-392 554.2441,-379.1157 530.3034,-367.7243 511.1529,-359.5005"/>
<polygon fill="#191970" stroke="#191970" points="512.4749,-356.2596 501.8999,-355.6116 509.7627,-362.7128 512.4749,-356.2596"/>
</g>
<!-- Node27 -->
<g id="node28" class="node">
<title>Node27</title>
<g id="a_node28"><a xlink:href="Transform_8h.html" target="_top" xlink:title="iDynTree/Core/Transform.h">
<polygon fill="none" stroke="#000000" points="419.0136,-392.5 419.0136,-411.5 565.0136,-411.5 565.0136,-392.5 419.0136,-392.5"/>
<text text-anchor="middle" x="492.0136" y="-399.5" font-family="FreeSans.ttf" font-size="10.00" fill="#000000">iDynTree/Core/Transform.h</text>
</a>
</g>
</g>
<!-- Node0&#45;&gt;Node27 -->
<g id="edge48" class="edge">
<title>Node0&#45;&gt;Node27</title>
<path fill="none" stroke="#191970" d="M710.9198,-504.4959C675.7586,-497.1693 629.474,-485.3245 591.0136,-468 561.4512,-454.6836 530.9232,-432.8854 511.7269,-418.0122"/>
<polygon fill="#191970" stroke="#191970" points="513.7682,-415.1646 503.7485,-411.7212 509.434,-420.6614 513.7682,-415.1646"/>
</g>
<!-- Node28 -->
<g id="node29" class="node">
<title>Node28</title>
<g id="a_node29"><a xlink:href="VectorDynSize_8h.html" target="_top" xlink:title="iDynTree/Core/VectorDynSize.h">
<polygon fill="none" stroke="#000000" points="875.5136,-280.5 875.5136,-299.5 1042.5136,-299.5 1042.5136,-280.5 875.5136,-280.5"/>
<text text-anchor="middle" x="959.0136" y="-287.5" font-family="FreeSans.ttf" font-size="10.00" fill="#000000">iDynTree/Core/VectorDynSize.h</text>
</a>
</g>
</g>
<!-- Node0&#45;&gt;Node28 -->
<g id="edge53" class="edge">
<title>Node0&#45;&gt;Node28</title>
<path fill="none" stroke="#191970" d="M827.6055,-504.4653C869.9556,-496.6851 920.6948,-484.3165 935.0136,-468 974.3591,-423.1651 968.3037,-345.9432 962.7294,-309.7722"/>
<polygon fill="#191970" stroke="#191970" points="966.1206,-308.8362 960.9946,-299.5639 959.2195,-310.009 966.1206,-308.8362"/>
</g>
<!-- Node29 -->
<g id="node30" class="node">
<title>Node29</title>
<g id="a_node30"><a xlink:href="ConvexHullHelpers_8h.html" target="_top" xlink:title="iDynTree/ConvexHullHelpers.h">
<polygon fill="none" stroke="#000000" points="682.5136,-448.5 682.5136,-467.5 847.5136,-467.5 847.5136,-448.5 682.5136,-448.5"/>
<text text-anchor="middle" x="765.0136" y="-455.5" font-family="FreeSans.ttf" font-size="10.00" fill="#000000">iDynTree/ConvexHullHelpers.h</text>
</a>
</g>
</g>
<!-- Node0&#45;&gt;Node29 -->
<g id="edge56" class="edge">
<title>Node0&#45;&gt;Node29</title>
<path fill="none" stroke="#191970" d="M765.0136,-504.2455C765.0136,-496.9382 765.0136,-486.6944 765.0136,-477.7046"/>
<polygon fill="#191970" stroke="#191970" points="768.5137,-477.6426 765.0136,-467.6427 761.5137,-477.6427 768.5137,-477.6426"/>
</g>
<!-- Node3&#45;&gt;Node1 -->
<g id="edge4" class="edge">
<title>Node3&#45;&gt;Node1</title>
<path fill="none" stroke="#191970" d="M695.1638,-336.3293C704.0807,-327.8007 715.9057,-314.5 721.0136,-300 740.5058,-244.6662 738.1546,-224.1067 721.0136,-168 717.8727,-157.7192 711.577,-147.6582 705.4748,-139.5799"/>
<polygon fill="#191970" stroke="#191970" points="708.0952,-137.2539 699.0877,-131.6757 702.6506,-141.6535 708.0952,-137.2539"/>
</g>
<!-- Node4 -->
<g id="node5" class="node">
<title>Node4</title>
<g id="a_node5"><a xlink:href="MatrixView_8h.html" target="_top" xlink:title="iDynTree/Core/MatrixView.h">
<polygon fill="none" stroke="#000000" points="460.5136,-112.5 460.5136,-131.5 611.5136,-131.5 611.5136,-112.5 460.5136,-112.5"/>
<text text-anchor="middle" x="536.0136" y="-119.5" font-family="FreeSans.ttf" font-size="10.00" fill="#000000">iDynTree/Core/MatrixView.h</text>
</a>
</g>
</g>
<!-- Node3&#45;&gt;Node4 -->
<g id="edge5" class="edge">
<title>Node3&#45;&gt;Node4</title>
<path fill="none" stroke="#191970" d="M678.7526,-336.2952C667.3012,-315.3559 638.9748,-264.5513 612.0136,-224 591.6708,-193.4033 565.6684,-159.4932 549.9556,-139.5004"/>
<polygon fill="#191970" stroke="#191970" points="552.6542,-137.2702 543.7077,-131.5948 547.1623,-141.6106 552.6542,-137.2702"/>
</g>
<!-- Node5 -->
<g id="node6" class="node">
<title>Node5</title>
<polygon fill="none" stroke="#bfbfbf" points="406.0136,-.5 406.0136,-19.5 458.0136,-19.5 458.0136,-.5 406.0136,-.5"/>
<text text-anchor="middle" x="432.0136" y="-7.5" font-family="FreeSans.ttf" font-size="10.00" fill="#000000">cassert</text>
</g>
<!-- Node4&#45;&gt;Node5 -->
<g id="edge6" class="edge">
<title>Node4&#45;&gt;Node5</title>
<path fill="none" stroke="#191970" d="M527.1466,-112.4509C509.5704,-93.5227 470.098,-51.014 447.918,-27.1279"/>
<polygon fill="#191970" stroke="#191970" points="450.2274,-24.4713 440.8581,-19.5249 445.0979,-29.2344 450.2274,-24.4713"/>
</g>
<!-- Node6 -->
<g id="node7" class="node">
<title>Node6</title>
<polygon fill="none" stroke="#bfbfbf" points="476.5136,-.5 476.5136,-19.5 545.5136,-19.5 545.5136,-.5 476.5136,-.5"/>
<text text-anchor="middle" x="511.0136" y="-7.5" font-family="FreeSans.ttf" font-size="10.00" fill="#000000">type_traits</text>
</g>
<!-- Node4&#45;&gt;Node6 -->
<g id="edge7" class="edge">
<title>Node4&#45;&gt;Node6</title>
<path fill="none" stroke="#191970" d="M533.8821,-112.4509C529.7862,-94.1013 520.7437,-53.5908 515.3371,-29.3693"/>
<polygon fill="#191970" stroke="#191970" points="518.7342,-28.5222 513.1397,-19.5249 511.9023,-30.0472 518.7342,-28.5222"/>
</g>
<!-- Node7 -->
<g id="node8" class="node">
<title>Node7</title>
<g id="a_node8"><a xlink:href="Span_8h.html" target="_top" xlink:title="iDynTree/Core/Span.h">
<polygon fill="none" stroke="#000000" points="592.5136,-56.5 592.5136,-75.5 713.5136,-75.5 713.5136,-56.5 592.5136,-56.5"/>
<text text-anchor="middle" x="653.0136" y="-63.5" font-family="FreeSans.ttf" font-size="10.00" fill="#000000">iDynTree/Core/Span.h</text>
</a>
</g>
</g>
<!-- Node4&#45;&gt;Node7 -->
<g id="edge8" class="edge">
<title>Node4&#45;&gt;Node7</title>
<path fill="none" stroke="#191970" d="M556.1266,-112.3733C574.8239,-103.4241 602.888,-89.9917 624.007,-79.8835"/>
<polygon fill="#191970" stroke="#191970" points="625.654,-82.9755 633.163,-75.5011 622.6319,-76.6614 625.654,-82.9755"/>
</g>
<!-- Node15 -->
<g id="node16" class="node">
<title>Node15</title>
<g id="a_node16"><a xlink:href="Utils_8h.html" target="_top" xlink:title="iDynTree/Core/Utils.h">
<polygon fill="none" stroke="#000000" points="28.5136,-56.5 28.5136,-75.5 147.5136,-75.5 147.5136,-56.5 28.5136,-56.5"/>
<text text-anchor="middle" x="88.0136" y="-63.5" font-family="FreeSans.ttf" font-size="10.00" fill="#000000">iDynTree/Core/Utils.h</text>
</a>
</g>
</g>
<!-- Node4&#45;&gt;Node15 -->
<g id="edge18" class="edge">
<title>Node4&#45;&gt;Node15</title>
<path fill="none" stroke="#191970" d="M460.2699,-112.532C375.6012,-101.9485 239.6404,-84.9534 157.5725,-74.6949"/>
<polygon fill="#191970" stroke="#191970" points="157.9494,-71.2148 147.5924,-73.4474 157.0811,-78.1608 157.9494,-71.2148"/>
</g>
<!-- Node7&#45;&gt;Node5 -->
<g id="edge9" class="edge">
<title>Node7&#45;&gt;Node5</title>
<path fill="none" stroke="#191970" d="M612.6329,-56.455C577.0228,-47.9391 523.4895,-34.8987 468.3119,-20.2852"/>
<polygon fill="#191970" stroke="#191970" points="468.9226,-16.826 458.3588,-17.6366 467.1224,-23.5906 468.9226,-16.826"/>
</g>
<!-- Node7&#45;&gt;Node6 -->
<g id="edge16" class="edge">
<title>Node7&#45;&gt;Node6</title>
<path fill="none" stroke="#191970" d="M628.6029,-56.3733C605.3993,-47.2226 570.3097,-33.3844 544.4993,-23.2057"/>
<polygon fill="#191970" stroke="#191970" points="545.6925,-19.9139 535.1057,-19.5011 543.1244,-26.4258 545.6925,-19.9139"/>
</g>
<!-- Node8 -->
<g id="node9" class="node">
<title>Node8</title>
<polygon fill="none" stroke="#bfbfbf" points="564.0136,-.5 564.0136,-19.5 628.0136,-19.5 628.0136,-.5 564.0136,-.5"/>
<text text-anchor="middle" x="596.0136" y="-7.5" font-family="FreeSans.ttf" font-size="10.00" fill="#000000">algorithm</text>
</g>
<!-- Node7&#45;&gt;Node8 -->
<g id="edge10" class="edge">
<title>Node7&#45;&gt;Node8</title>
<path fill="none" stroke="#191970" d="M643.0849,-56.2455C634.8298,-48.1352 622.8926,-36.4075 613.1053,-26.7919"/>
<polygon fill="#191970" stroke="#191970" points="615.4147,-24.1542 605.8284,-19.6427 610.5089,-29.1476 615.4147,-24.1542"/>
</g>
<!-- Node9 -->
<g id="node10" class="node">
<title>Node9</title>
<polygon fill="none" stroke="#bfbfbf" points="646.0136,-.5 646.0136,-19.5 688.0136,-19.5 688.0136,-.5 646.0136,-.5"/>
<text text-anchor="middle" x="667.0136" y="-7.5" font-family="FreeSans.ttf" font-size="10.00" fill="#000000">array</text>
</g>
<!-- Node7&#45;&gt;Node9 -->
<g id="edge11" class="edge">
<title>Node7&#45;&gt;Node9</title>
<path fill="none" stroke="#191970" d="M655.4522,-56.2455C657.2991,-48.8579 659.8963,-38.4689 662.1614,-29.4087"/>
<polygon fill="#191970" stroke="#191970" points="665.573,-30.193 664.6029,-19.6427 658.782,-28.4952 665.573,-30.193"/>
</g>
<!-- Node10 -->
<g id="node11" class="node">
<title>Node10</title>
<polygon fill="none" stroke="#bfbfbf" points="334.5136,-.5 334.5136,-19.5 387.5136,-19.5 387.5136,-.5 334.5136,-.5"/>
<text text-anchor="middle" x="361.0136" y="-7.5" font-family="FreeSans.ttf" font-size="10.00" fill="#000000">cstddef</text>
</g>
<!-- Node7&#45;&gt;Node10 -->
<g id="edge12" class="edge">
<title>Node7&#45;&gt;Node10</title>
<path fill="none" stroke="#191970" d="M592.4332,-56.7475C542.5941,-48.7634 469.9495,-36.276 397.4428,-19.9302"/>
<polygon fill="#191970" stroke="#191970" points="398.2072,-16.5147 387.6795,-17.7052 396.6518,-23.3397 398.2072,-16.5147"/>
</g>
<!-- Node11 -->
<g id="node12" class="node">
<title>Node11</title>
<polygon fill="none" stroke="#bfbfbf" points="706.5136,-.5 706.5136,-19.5 759.5136,-19.5 759.5136,-.5 706.5136,-.5"/>
<text text-anchor="middle" x="733.0136" y="-7.5" font-family="FreeSans.ttf" font-size="10.00" fill="#000000">iterator</text>
</g>
<!-- Node7&#45;&gt;Node11 -->
<g id="edge13" class="edge">
<title>Node7&#45;&gt;Node11</title>
<path fill="none" stroke="#191970" d="M666.9485,-56.2455C679.1082,-47.7337 696.96,-35.2375 711.042,-25.3801"/>
<polygon fill="#191970" stroke="#191970" points="713.0531,-28.2447 719.2383,-19.6427 709.0388,-22.51 713.0531,-28.2447"/>
</g>
<!-- Node12 -->
<g id="node13" class="node">
<title>Node12</title>
<polygon fill="none" stroke="#bfbfbf" points="778.0136,-.5 778.0136,-19.5 822.0136,-19.5 822.0136,-.5 778.0136,-.5"/>
<text text-anchor="middle" x="800.0136" y="-7.5" font-family="FreeSans.ttf" font-size="10.00" fill="#000000">limits</text>
</g>
<!-- Node7&#45;&gt;Node12 -->
<g id="edge14" class="edge">
<title>Node7&#45;&gt;Node12</title>
<path fill="none" stroke="#191970" d="M678.2838,-56.3733C703.2875,-46.848 741.6236,-32.2438 768.5797,-21.9748"/>
<polygon fill="#191970" stroke="#191970" points="769.8514,-25.2358 777.9503,-18.4051 767.3594,-18.6944 769.8514,-25.2358"/>
</g>
<!-- Node13 -->
<g id="node14" class="node">
<title>Node13</title>
<polygon fill="none" stroke="#bfbfbf" points="840.5136,-.5 840.5136,-19.5 905.5136,-19.5 905.5136,-.5 840.5136,-.5"/>
<text text-anchor="middle" x="873.0136" y="-7.5" font-family="FreeSans.ttf" font-size="10.00" fill="#000000">stdexcept</text>
</g>
<!-- Node7&#45;&gt;Node13 -->
<g id="edge15" class="edge">
<title>Node7&#45;&gt;Node13</title>
<path fill="none" stroke="#191970" d="M690.8329,-56.3733C729.6797,-46.485 790.0298,-31.1232 830.5063,-20.82"/>
<polygon fill="#191970" stroke="#191970" points="831.516,-24.1747 840.3436,-18.316 829.7892,-17.391 831.516,-24.1747"/>
</g>
<!-- Node14 -->
<g id="node15" class="node">
<title>Node14</title>
<polygon fill="none" stroke="#bfbfbf" points="923.5136,-.5 923.5136,-19.5 968.5136,-19.5 968.5136,-.5 923.5136,-.5"/>
<text text-anchor="middle" x="946.0136" y="-7.5" font-family="FreeSans.ttf" font-size="10.00" fill="#000000">utility</text>
</g>
<!-- Node7&#45;&gt;Node14 -->
<g id="edge17" class="edge">
<title>Node7&#45;&gt;Node14</title>
<path fill="none" stroke="#191970" d="M713.6032,-57.7915C764.7309,-50.3145 839.962,-38.0259 913.5334,-20.1281"/>
<polygon fill="#191970" stroke="#191970" points="914.5618,-23.4794 923.4307,-17.6834 912.8831,-16.6836 914.5618,-23.4794"/>
</g>
<!-- Node15&#45;&gt;Node10 -->
<g id="edge19" class="edge">
<title>Node15&#45;&gt;Node10</title>
<path fill="none" stroke="#191970" d="M134.6337,-56.4369C188.3764,-45.4128 275.581,-27.5246 324.5883,-17.4718"/>
<polygon fill="#191970" stroke="#191970" points="325.3477,-20.889 334.4404,-15.4509 323.9411,-14.0318 325.3477,-20.889"/>
</g>
<!-- Node16 -->
<g id="node17" class="node">
<title>Node16</title>
<polygon fill="none" stroke="#bfbfbf" points="48.0136,-.5 48.0136,-19.5 128.0136,-19.5 128.0136,-.5 48.0136,-.5"/>
<text text-anchor="middle" x="88.0136" y="-7.5" font-family="FreeSans.ttf" font-size="10.00" fill="#000000">CoreExport.h</text>
</g>
<!-- Node15&#45;&gt;Node16 -->
<g id="edge20" class="edge">
<title>Node15&#45;&gt;Node16</title>
<path fill="none" stroke="#191970" d="M88.0136,-56.2455C88.0136,-48.9382 88.0136,-38.6944 88.0136,-29.7046"/>
<polygon fill="#191970" stroke="#191970" points="91.5137,-29.6426 88.0136,-19.6427 84.5137,-29.6427 91.5137,-29.6426"/>
</g>
<!-- Node17&#45;&gt;Node1 -->
<g id="edge47" class="edge">
<title>Node17&#45;&gt;Node1</title>
<path fill="none" stroke="#191970" d="M493.4541,-336.2897C520.4617,-319.7832 574.9185,-284.1155 612.0136,-244 642.0156,-211.5551 667.5917,-166.1457 680.6746,-140.873"/>
<polygon fill="#191970" stroke="#191970" points="683.9454,-142.1616 685.3496,-131.6603 677.7032,-138.994 683.9454,-142.1616"/>
</g>
<!-- Node18 -->
<g id="node19" class="node">
<title>Node18</title>
<g id="a_node19"><a xlink:href="PositionRaw_8h.html" target="_top" xlink:title="iDynTree/Core/PositionRaw.h">
<polygon fill="none" stroke="#000000" points="447.0136,-224.5 447.0136,-243.5 603.0136,-243.5 603.0136,-224.5 447.0136,-224.5"/>
<text text-anchor="middle" x="525.0136" y="-231.5" font-family="FreeSans.ttf" font-size="10.00" fill="#000000">iDynTree/Core/PositionRaw.h</text>
</a>
</g>
</g>
<!-- Node17&#45;&gt;Node18 -->
<g id="edge22" class="edge">
<title>Node17&#45;&gt;Node18</title>
<path fill="none" stroke="#191970" d="M481.106,-336.4509C489.041,-317.936 506.6454,-276.8591 516.9913,-252.7187"/>
<polygon fill="#191970" stroke="#191970" points="520.2092,-254.0951 520.9315,-243.5249 513.7752,-251.3376 520.2092,-254.0951"/>
</g>
<!-- Node22 -->
<g id="node23" class="node">
<title>Node22</title>
<g id="a_node23"><a xlink:href="Rotation_8h.html" target="_top" xlink:title="iDynTree/Core/Rotation.h">
<polygon fill="none" stroke="#000000" points="312.5136,-280.5 312.5136,-299.5 449.5136,-299.5 449.5136,-280.5 312.5136,-280.5"/>
<text text-anchor="middle" x="381.0136" y="-287.5" font-family="FreeSans.ttf" font-size="10.00" fill="#000000">iDynTree/Core/Rotation.h</text>
</a>
</g>
</g>
<!-- Node17&#45;&gt;Node22 -->
<g id="edge32" class="edge">
<title>Node17&#45;&gt;Node22</title>
<path fill="none" stroke="#191970" d="M460.2916,-336.2455C445.4246,-327.5731 423.467,-314.7645 406.4278,-304.825"/>
<polygon fill="#191970" stroke="#191970" points="407.9452,-301.6582 397.5439,-299.6427 404.4181,-307.7047 407.9452,-301.6582"/>
</g>
<!-- Node18&#45;&gt;Node1 -->
<g id="edge31" class="edge">
<title>Node18&#45;&gt;Node1</title>
<path fill="none" stroke="#191970" d="M540.6045,-224.345C555.2842,-215.1824 577.8225,-200.9291 597.0136,-188 621.9615,-171.1925 650.0551,-151.0873 668.7726,-137.5192"/>
<polygon fill="#191970" stroke="#191970" points="670.8795,-140.3147 676.9102,-131.6037 666.7635,-134.6526 670.8795,-140.3147"/>
</g>
<!-- Node19 -->
<g id="node20" class="node">
<title>Node19</title>
<g id="a_node20"><a xlink:href="VectorFixSize_8h.html" target="_top" xlink:title="iDynTree/Core/VectorFixSize.h">
<polygon fill="none" stroke="#000000" points="302.5136,-168.5 302.5136,-187.5 463.5136,-187.5 463.5136,-168.5 302.5136,-168.5"/>
<text text-anchor="middle" x="383.0136" y="-175.5" font-family="FreeSans.ttf" font-size="10.00" fill="#000000">iDynTree/Core/VectorFixSize.h</text>
</a>
</g>
</g>
<!-- Node18&#45;&gt;Node19 -->
<g id="edge23" class="edge">
<title>Node18&#45;&gt;Node19</title>
<path fill="none" stroke="#191970" d="M500.6029,-224.3733C477.3993,-215.2226 442.3097,-201.3844 416.4993,-191.2057"/>
<polygon fill="#191970" stroke="#191970" points="417.6925,-187.9139 407.1057,-187.5011 415.1244,-194.4258 417.6925,-187.9139"/>
</g>
<!-- Node19&#45;&gt;Node1 -->
<g id="edge26" class="edge">
<title>Node19&#45;&gt;Node1</title>
<path fill="none" stroke="#191970" d="M450.7676,-168.4762C505.8148,-160.2651 585.3138,-147.3296 654.0136,-132 655.26,-131.7219 656.5276,-131.4274 657.8058,-131.1207"/>
<polygon fill="#191970" stroke="#191970" points="658.8179,-134.4745 667.6349,-128.5998 657.0788,-127.6939 658.8179,-134.4745"/>
</g>
<!-- Node19&#45;&gt;Node5 -->
<g id="edge28" class="edge">
<title>Node19&#45;&gt;Node5</title>
<path fill="none" stroke="#191970" d="M385.7884,-168.4862C393.5677,-141.8144 415.706,-65.9117 426.2692,-29.695"/>
<polygon fill="#191970" stroke="#191970" points="429.707,-30.4079 429.1471,-19.8279 422.987,-28.4479 429.707,-30.4079"/>
</g>
<!-- Node19&#45;&gt;Node7 -->
<g id="edge25" class="edge">
<title>Node19&#45;&gt;Node7</title>
<path fill="none" stroke="#191970" d="M463.7894,-169.9941C522.4902,-162.7781 595.7287,-150.4396 620.0136,-132 634.956,-120.6541 643.602,-100.6894 648.2654,-85.6805"/>
<polygon fill="#191970" stroke="#191970" points="651.6997,-86.3927 650.9903,-75.8217 644.9527,-84.5279 651.6997,-86.3927"/>
</g>
<!-- Node19&#45;&gt;Node10 -->
<g id="edge29" class="edge">
<title>Node19&#45;&gt;Node10</title>
<path fill="none" stroke="#191970" d="M381.7677,-168.4862C378.29,-141.9293 368.4209,-66.5651 363.6543,-30.1655"/>
<polygon fill="#191970" stroke="#191970" points="367.0694,-29.2887 362.3005,-19.8279 360.1287,-30.1977 367.0694,-29.2887"/>
</g>
<!-- Node19&#45;&gt;Node15 -->
<g id="edge24" class="edge">
<title>Node19&#45;&gt;Node15</title>
<path fill="none" stroke="#191970" d="M379.0611,-168.0953C372.6167,-153.3184 358.3814,-125.7684 337.0136,-112 308.0032,-93.3072 220.9146,-80.2404 157.901,-72.9299"/>
<polygon fill="#191970" stroke="#191970" points="157.946,-69.4127 147.615,-71.7626 157.1565,-76.368 157.946,-69.4127"/>
</g>
<!-- Node20 -->
<g id="node21" class="node">
<title>Node20</title>
<polygon fill="none" stroke="#bfbfbf" points="204.0136,-112.5 204.0136,-131.5 260.0136,-131.5 260.0136,-112.5 204.0136,-112.5"/>
<text text-anchor="middle" x="232.0136" y="-119.5" font-family="FreeSans.ttf" font-size="10.00" fill="#000000">sstream</text>
</g>
<!-- Node19&#45;&gt;Node20 -->
<g id="edge27" class="edge">
<title>Node19&#45;&gt;Node20</title>
<path fill="none" stroke="#191970" d="M357.0557,-168.3733C332.2728,-159.1822 294.739,-145.2624 267.2595,-135.0713"/>
<polygon fill="#191970" stroke="#191970" points="268.2257,-131.6968 257.6327,-131.5011 265.7916,-138.26 268.2257,-131.6968"/>
</g>
<!-- Node21 -->
<g id="node22" class="node">
<title>Node21</title>
<polygon fill="none" stroke="#bfbfbf" points="278.0136,-112.5 278.0136,-131.5 328.0136,-131.5 328.0136,-112.5 278.0136,-112.5"/>
<text text-anchor="middle" x="303.0136" y="-119.5" font-family="FreeSans.ttf" font-size="10.00" fill="#000000">cstring</text>
</g>
<!-- Node19&#45;&gt;Node21 -->
<g id="edge30" class="edge">
<title>Node19&#45;&gt;Node21</title>
<path fill="none" stroke="#191970" d="M369.0786,-168.2455C356.9189,-159.7337 339.0671,-147.2375 324.9851,-137.3801"/>
<polygon fill="#191970" stroke="#191970" points="326.9883,-134.51 316.7888,-131.6427 322.974,-140.2447 326.9883,-134.51"/>
</g>
<!-- Node22&#45;&gt;Node1 -->
<g id="edge33" class="edge">
<title>Node22&#45;&gt;Node1</title>
<path fill="none" stroke="#191970" d="M387.2437,-280.1987C396.6787,-266.0511 415.8578,-239.8681 438.0136,-224 439.2079,-223.1446 591.1289,-161.8597 658.4813,-134.7081"/>
<polygon fill="#191970" stroke="#191970" points="659.8107,-137.946 667.777,-130.9611 657.1936,-131.4536 659.8107,-137.946"/>
</g>
<!-- Node22&#45;&gt;Node19 -->
<g id="edge46" class="edge">
<title>Node22&#45;&gt;Node19</title>
<path fill="none" stroke="#191970" d="M381.1841,-280.4509C381.5103,-262.184 382.2286,-221.9553 382.6618,-197.6976"/>
<polygon fill="#191970" stroke="#191970" points="386.1643,-197.5858 382.8435,-187.5249 379.1654,-197.4608 386.1643,-197.5858"/>
</g>
<!-- Node23 -->
<g id="node24" class="node">
<title>Node23</title>
<g id="a_node24"><a xlink:href="GeomVector3_8h.html" target="_top" xlink:title="iDynTree/Core/GeomVector3.h">
<polygon fill="none" stroke="#000000" points="189.5136,-224.5 189.5136,-243.5 352.5136,-243.5 352.5136,-224.5 189.5136,-224.5"/>
<text text-anchor="middle" x="271.0136" y="-231.5" font-family="FreeSans.ttf" font-size="10.00" fill="#000000">iDynTree/Core/GeomVector3.h</text>
</a>
</g>
</g>
<!-- Node22&#45;&gt;Node23 -->
<g id="edge34" class="edge">
<title>Node22&#45;&gt;Node23</title>
<path fill="none" stroke="#191970" d="M361.853,-280.2455C344.5024,-271.4125 318.7235,-258.2887 299.0553,-248.2758"/>
<polygon fill="#191970" stroke="#191970" points="300.4541,-245.0605 289.9545,-243.6427 297.2783,-251.2986 300.4541,-245.0605"/>
</g>
<!-- Node24 -->
<g id="node25" class="node">
<title>Node24</title>
<g id="a_node25"><a xlink:href="RotationRaw_8h.html" target="_top" xlink:title="iDynTree/Core/RotationRaw.h">
<polygon fill="none" stroke="#000000" points="13.0136,-224.5 13.0136,-243.5 171.0136,-243.5 171.0136,-224.5 13.0136,-224.5"/>
<text text-anchor="middle" x="92.0136" y="-231.5" font-family="FreeSans.ttf" font-size="10.00" fill="#000000">iDynTree/Core/RotationRaw.h</text>
</a>
</g>
</g>
<!-- Node22&#45;&gt;Node24 -->
<g id="edge36" class="edge">
<title>Node22&#45;&gt;Node24</title>
<path fill="none" stroke="#191970" d="M331.6611,-280.4369C281.6814,-270.7522 204.3638,-255.7703 151.1393,-245.4569"/>
<polygon fill="#191970" stroke="#191970" points="151.6457,-241.99 141.1625,-243.5237 150.3141,-248.8622 151.6457,-241.99"/>
</g>
<!-- Node23&#45;&gt;Node19 -->
<g id="edge35" class="edge">
<title>Node23&#45;&gt;Node19</title>
<path fill="none" stroke="#191970" d="M290.2671,-224.3733C308.0847,-215.4644 334.7882,-202.1127 354.973,-192.0203"/>
<polygon fill="#191970" stroke="#191970" points="356.6323,-195.1038 364.0113,-187.5011 353.5018,-188.8428 356.6323,-195.1038"/>
</g>
<!-- Node24&#45;&gt;Node1 -->
<g id="edge45" class="edge">
<title>Node24&#45;&gt;Node1</title>
<path fill="none" stroke="#191970" d="M171.4167,-224.7439C278.4799,-212.2113 457.5033,-191.0507 472.0136,-188 539.4024,-173.8321 615.9845,-148.3994 658.07,-133.5833"/>
<polygon fill="#191970" stroke="#191970" points="659.4986,-136.7902 667.7521,-130.1472 657.1574,-130.1933 659.4986,-136.7902"/>
</g>
<!-- Node25 -->
<g id="node26" class="node">
<title>Node25</title>
<g id="a_node26"><a xlink:href="MatrixFixSize_8h.html" target="_top" xlink:title="iDynTree/Core/MatrixFixSize.h">
<polygon fill="none" stroke="#000000" points="95.5136,-168.5 95.5136,-187.5 256.5136,-187.5 256.5136,-168.5 95.5136,-168.5"/>
<text text-anchor="middle" x="176.0136" y="-175.5" font-family="FreeSans.ttf" font-size="10.00" fill="#000000">iDynTree/Core/MatrixFixSize.h</text>
</a>
</g>
</g>
<!-- Node24&#45;&gt;Node25 -->
<g id="edge37" class="edge">
<title>Node24&#45;&gt;Node25</title>
<path fill="none" stroke="#191970" d="M106.6452,-224.2455C119.413,-215.7337 138.1573,-203.2375 152.9434,-193.3801"/>
<polygon fill="#191970" stroke="#191970" points="155.1705,-196.1019 161.5496,-187.6427 151.2876,-190.2775 155.1705,-196.1019"/>
</g>
<!-- Node25&#45;&gt;Node1 -->
<g id="edge42" class="edge">
<title>Node25&#45;&gt;Node1</title>
<path fill="none" stroke="#191970" d="M256.7338,-170.5828C345.7902,-162.1793 493.2968,-147.6094 620.0136,-132 632.4527,-130.4677 646.1034,-128.5671 658.021,-126.8357"/>
<polygon fill="#191970" stroke="#191970" points="658.5898,-130.2898 667.9738,-125.3712 657.5708,-123.3644 658.5898,-130.2898"/>
</g>
<!-- Node25&#45;&gt;Node4 -->
<g id="edge39" class="edge">
<title>Node25&#45;&gt;Node4</title>
<path fill="none" stroke="#191970" d="M237.4907,-168.4369C300.5257,-158.6314 398.4698,-143.3957 464.8291,-133.0731"/>
<polygon fill="#191970" stroke="#191970" points="465.4468,-136.5192 474.79,-131.5237 464.3708,-129.6024 465.4468,-136.5192"/>
</g>
<!-- Node25&#45;&gt;Node5 -->
<g id="edge40" class="edge">
<title>Node25&#45;&gt;Node5</title>
<path fill="none" stroke="#191970" d="M176.2911,-168.2607C177.195,-154.1903 180.8237,-128.1026 195.0136,-112 222.7996,-80.4685 337.1848,-40.3599 396.2886,-21.1888"/>
<polygon fill="#191970" stroke="#191970" points="397.5154,-24.4709 405.9638,-18.0776 395.3724,-17.807 397.5154,-24.4709"/>
</g>
<!-- Node25&#45;&gt;Node15 -->
<g id="edge38" class="edge">
<title>Node25&#45;&gt;Node15</title>
<path fill="none" stroke="#191970" d="M131.8387,-168.428C112.1152,-161.7169 90.7203,-150.508 79.0136,-132 70.245,-118.1371 73.9563,-99.3743 79.0099,-85.3974"/>
<polygon fill="#191970" stroke="#191970" points="82.3891,-86.3824 82.9516,-75.8025 75.9141,-83.7224 82.3891,-86.3824"/>
</g>
<!-- Node25&#45;&gt;Node20 -->
<g id="edge44" class="edge">
<title>Node25&#45;&gt;Node20</title>
<path fill="none" stroke="#191970" d="M185.768,-168.2455C193.8783,-160.1352 205.6061,-148.4075 215.2216,-138.7919"/>
<polygon fill="#191970" stroke="#191970" points="217.7747,-141.1887 222.3709,-131.6427 212.8249,-136.2389 217.7747,-141.1887"/>
</g>
<!-- Node25&#45;&gt;Node21 -->
<g id="edge41" class="edge">
<title>Node25&#45;&gt;Node21</title>
<path fill="none" stroke="#191970" d="M197.8456,-168.3733C218.3239,-159.3435 249.1534,-145.7494 272.1455,-135.6111"/>
<polygon fill="#191970" stroke="#191970" points="273.7285,-138.7383 281.4664,-131.5011 270.9043,-132.3333 273.7285,-138.7383"/>
</g>
<!-- Node26 -->
<g id="node27" class="node">
<title>Node26</title>
<polygon fill="none" stroke="#bfbfbf" points="88.0136,-112.5 88.0136,-131.5 148.0136,-131.5 148.0136,-112.5 88.0136,-112.5"/>
<text text-anchor="middle" x="118.0136" y="-119.5" font-family="FreeSans.ttf" font-size="10.00" fill="#000000">iostream</text>
</g>
<!-- Node25&#45;&gt;Node26 -->
<g id="edge43" class="edge">
<title>Node25&#45;&gt;Node26</title>
<path fill="none" stroke="#191970" d="M165.9107,-168.2455C157.5108,-160.1352 145.3642,-148.4075 135.4052,-138.7919"/>
<polygon fill="#191970" stroke="#191970" points="137.6258,-136.0707 128.0006,-131.6427 132.7636,-141.1066 137.6258,-136.0707"/>
</g>
<!-- Node27&#45;&gt;Node1 -->
<g id="edge52" class="edge">
<title>Node27&#45;&gt;Node1</title>
<path fill="none" stroke="#191970" d="M507.5912,-392.4199C520.81,-383.849 539.8327,-370.4395 554.0136,-356 618.3075,-290.5336 635.8421,-271.4416 674.0136,-188 680.7576,-173.2578 684.8728,-155.3118 687.2376,-141.8566"/>
<polygon fill="#191970" stroke="#191970" points="690.7262,-142.2033 688.8316,-131.7793 683.8122,-141.1096 690.7262,-142.2033"/>
</g>
<!-- Node27&#45;&gt;Node17 -->
<g id="edge49" class="edge">
<title>Node27&#45;&gt;Node17</title>
<path fill="none" stroke="#191970" d="M489.4008,-392.2455C487.4219,-384.8579 484.6392,-374.4689 482.2123,-365.4087"/>
<polygon fill="#191970" stroke="#191970" points="485.5647,-364.3966 479.5964,-355.6427 478.803,-366.2078 485.5647,-364.3966"/>
</g>
<!-- Node27&#45;&gt;Node22 -->
<g id="edge50" class="edge">
<title>Node27&#45;&gt;Node22</title>
<path fill="none" stroke="#191970" d="M457.4278,-392.3466C437.9887,-385.2538 414.743,-373.7118 400.0136,-356 389.185,-342.9789 384.5236,-324.0906 382.5193,-309.8535"/>
<polygon fill="#191970" stroke="#191970" points="385.9691,-309.1996 381.4145,-299.6337 379.0096,-309.952 385.9691,-309.1996"/>
</g>
<!-- Node27&#45;&gt;Node25 -->
<g id="edge51" class="edge">
<title>Node27&#45;&gt;Node25</title>
<path fill="none" stroke="#191970" d="M437.0834,-392.4857C320.7682,-371.1034 56.0017,-315.4774 4.0136,-244 -1.2149,-236.8115 -1.3993,-231.0507 4.0136,-224 15.9867,-208.4039 58.5365,-196.9487 98.3161,-189.3703"/>
<polygon fill="#191970" stroke="#191970" points="99.1466,-192.7763 108.3495,-187.5269 97.8817,-185.8916 99.1466,-192.7763"/>
</g>
<!-- Node28&#45;&gt;Node1 -->
<g id="edge55" class="edge">
<title>Node28&#45;&gt;Node1</title>
<path fill="none" stroke="#191970" d="M954.1697,-280.3497C942.0298,-257.1819 907.9551,-198.1122 862.0136,-168 818.8367,-139.7 758.7898,-128.747 722.2618,-124.5519"/>
<polygon fill="#191970" stroke="#191970" points="722.4806,-121.0558 712.1708,-123.497 721.7527,-128.0179 722.4806,-121.0558"/>
</g>
<!-- Node28&#45;&gt;Node7 -->
<g id="edge54" class="edge">
<title>Node28&#45;&gt;Node7</title>
<path fill="none" stroke="#191970" d="M956.8263,-280.0999C953.5986,-266.7314 946.7559,-242.4577 936.0136,-224 919.3783,-195.4169 913.7067,-187.5244 887.0136,-168 827.2801,-124.3087 745.9045,-94.2154 696.5403,-78.5714"/>
<polygon fill="#191970" stroke="#191970" points="697.3994,-75.1732 686.811,-75.5441 695.3196,-81.8571 697.3994,-75.1732"/>
</g>
<!-- Node29&#45;&gt;Node1 -->
<g id="edge57" class="edge">
<title>Node29&#45;&gt;Node1</title>
<path fill="none" stroke="#191970" d="M767.9998,-448.2621C775.5879,-422.625 795.0136,-351.0338 795.0136,-290 795.0136,-290 795.0136,-290 795.0136,-234 795.0136,-189.1218 749.5896,-154.8269 718.4951,-136.6081"/>
<polygon fill="#191970" stroke="#191970" points="720.1936,-133.5478 709.7633,-131.688 716.7573,-139.6463 720.1936,-133.5478"/>
</g>
<!-- Node29&#45;&gt;Node2 -->
<g id="edge58" class="edge">
<title>Node29&#45;&gt;Node2</title>
<path fill="none" stroke="#191970" d="M783.129,-448.2455C799.4586,-439.4527 823.6846,-426.4079 842.2475,-416.4125"/>
<polygon fill="#191970" stroke="#191970" points="843.9604,-419.4654 851.1057,-411.6427 840.6417,-413.3021 843.9604,-419.4654"/>
</g>
<!-- Node29&#45;&gt;Node3 -->
<g id="edge59" class="edge">
<title>Node29&#45;&gt;Node3</title>
<path fill="none" stroke="#191970" d="M758.1076,-448.4509C744.5379,-429.688 714.2112,-387.7548 696.8564,-363.758"/>
<polygon fill="#191970" stroke="#191970" points="699.5984,-361.5768 690.9021,-355.5249 693.9263,-365.679 699.5984,-361.5768"/>
</g>
<!-- Node29&#45;&gt;Node17 -->
<g id="edge60" class="edge">
<title>Node29&#45;&gt;Node17</title>
<path fill="none" stroke="#191970" d="M745.4734,-448.3252C717.7411,-434.7888 665.1961,-409.8551 619.0136,-392 586.1493,-379.294 548.1375,-367.1086 519.7171,-358.4751"/>
<polygon fill="#191970" stroke="#191970" points="520.6732,-355.1078 510.0886,-355.5744 518.654,-361.8102 520.6732,-355.1078"/>
</g>
<!-- Node29&#45;&gt;Node27 -->
<g id="edge61" class="edge">
<title>Node29&#45;&gt;Node27</title>
<path fill="none" stroke="#191970" d="M718.3934,-448.4369C671.3771,-438.7925 598.7506,-423.8948 548.4943,-413.5858"/>
<polygon fill="#191970" stroke="#191970" points="548.9408,-410.1046 538.4415,-411.5237 547.5342,-416.9618 548.9408,-410.1046"/>
</g>
<!-- Node29&#45;&gt;Node28 -->
<g id="edge62" class="edge">
<title>Node29&#45;&gt;Node28</title>
<path fill="none" stroke="#191970" d="M775.1345,-448.4521C788.9485,-435.4827 814.5595,-411.6599 837.0136,-392 872.5025,-360.9272 914.9628,-325.897 939.2812,-306.0324"/>
<polygon fill="#191970" stroke="#191970" points="941.5463,-308.7016 947.0852,-299.6699 937.123,-303.2762 941.5463,-308.7016"/>
</g>
</g>
</svg>
