<?xml version="1.0" encoding="UTF-8" standalone="no"?>
<!DOCTYPE svg PUBLIC "-//W3C//DTD SVG 1.1//EN"
 "http://www.w3.org/Graphics/SVG/1.1/DTD/svg11.dtd">
<!-- Generated by graphviz version 2.40.1 (20161225.0304)
 -->
<!-- Title: ClassicalAcc.cpp Pages: 1 -->
<svg width="956pt" height="599pt"
 viewBox="0.00 0.00 955.50 599.00" xmlns="http://www.w3.org/2000/svg" xmlns:xlink="http://www.w3.org/1999/xlink">
<g id="graph0" class="graph" transform="scale(1 1) rotate(0) translate(4 595)">
<title>ClassicalAcc.cpp</title>
<!-- Node0 -->
<g id="node1" class="node">
<title>Node0</title>
<polygon fill="#bfbfbf" stroke="#000000" points="505,-571.5 505,-590.5 603,-590.5 603,-571.5 505,-571.5"/>
<text text-anchor="middle" x="554" y="-578.5" font-family="FreeSans.ttf" font-size="10.00" fill="#000000">ClassicalAcc.cpp</text>
</g>
<!-- Node1 -->
<g id="node2" class="node">
<title>Node1</title>
<g id="a_node2"><a xlink:href="ClassicalAcc_8h.html" target="_top" xlink:title="iDynTree/Core/ClassicalAcc.h">
<polygon fill="none" stroke="#000000" points="49,-454 49,-473 207,-473 207,-454 49,-454"/>
<text text-anchor="middle" x="128" y="-461" font-family="FreeSans.ttf" font-size="10.00" fill="#000000">iDynTree/Core/ClassicalAcc.h</text>
</a>
</g>
</g>
<!-- Node0&#45;&gt;Node1 -->
<g id="edge1" class="edge">
<title>Node0&#45;&gt;Node1</title>
<path fill="none" stroke="#191970" d="M504.8234,-572.8297C459.3326,-564.8073 390.0353,-551.4044 331,-535 270.099,-518.0772 201.0439,-492.2988 161.2037,-476.7577"/>
<polygon fill="#191970" stroke="#191970" points="162.3145,-473.4338 151.727,-473.0387 159.7573,-479.95 162.3145,-473.4338"/>
</g>
<!-- Node18 -->
<g id="node19" class="node">
<title>Node18</title>
<g id="a_node19"><a xlink:href="SpatialAcc_8h.html" target="_top" xlink:title="iDynTree/Core/SpatialAcc.h">
<polygon fill="none" stroke="#000000" points="480,-515.5 480,-534.5 628,-534.5 628,-515.5 480,-515.5"/>
<text text-anchor="middle" x="554" y="-522.5" font-family="FreeSans.ttf" font-size="10.00" fill="#000000">iDynTree/Core/SpatialAcc.h</text>
</a>
</g>
</g>
<!-- Node0&#45;&gt;Node18 -->
<g id="edge21" class="edge">
<title>Node0&#45;&gt;Node18</title>
<path fill="none" stroke="#191970" d="M554,-571.2455C554,-563.9382 554,-553.6944 554,-544.7046"/>
<polygon fill="#191970" stroke="#191970" points="557.5001,-544.6426 554,-534.6427 550.5001,-544.6427 557.5001,-544.6426"/>
</g>
<!-- Node25 -->
<g id="node26" class="node">
<title>Node25</title>
<g id="a_node26"><a xlink:href="RotationRaw_8h.html" target="_top" xlink:title="iDynTree/Core/RotationRaw.h">
<polygon fill="none" stroke="#000000" points="690,-224.5 690,-243.5 848,-243.5 848,-224.5 690,-224.5"/>
<text text-anchor="middle" x="769" y="-231.5" font-family="FreeSans.ttf" font-size="10.00" fill="#000000">iDynTree/Core/RotationRaw.h</text>
</a>
</g>
</g>
<!-- Node0&#45;&gt;Node25 -->
<g id="edge57" class="edge">
<title>Node0&#45;&gt;Node25</title>
<path fill="none" stroke="#191970" d="M603.1817,-571.4854C685.438,-554.151 842,-514.4637 842,-463.5 842,-463.5 842,-463.5 842,-346 842,-306.8965 810.3829,-270.7535 788.7639,-250.6105"/>
<polygon fill="#191970" stroke="#191970" points="790.8373,-247.7688 781.0545,-243.7011 786.1654,-252.9817 790.8373,-247.7688"/>
</g>
<!-- Node29 -->
<g id="node30" class="node">
<title>Node29</title>
<g id="a_node30"><a xlink:href="Twist_8h.html" target="_top" xlink:title="iDynTree/Core/Twist.h">
<polygon fill="none" stroke="#000000" points="340,-515.5 340,-534.5 462,-534.5 462,-515.5 340,-515.5"/>
<text text-anchor="middle" x="401" y="-522.5" font-family="FreeSans.ttf" font-size="10.00" fill="#000000">iDynTree/Core/Twist.h</text>
</a>
</g>
</g>
<!-- Node0&#45;&gt;Node29 -->
<g id="edge55" class="edge">
<title>Node0&#45;&gt;Node29</title>
<path fill="none" stroke="#191970" d="M527.6984,-571.3733C502.5872,-562.1822 464.5562,-548.2624 436.7128,-538.0713"/>
<polygon fill="#191970" stroke="#191970" points="437.5522,-534.6516 426.9584,-534.5011 435.1462,-541.2251 437.5522,-534.6516"/>
</g>
<!-- Node30 -->
<g id="node31" class="node">
<title>Node30</title>
<polygon fill="none" stroke="#bfbfbf" points="870.5,-515.5 870.5,-534.5 947.5,-534.5 947.5,-515.5 870.5,-515.5"/>
<text text-anchor="middle" x="909" y="-522.5" font-family="FreeSans.ttf" font-size="10.00" fill="#000000">Eigen/Dense</text>
</g>
<!-- Node0&#45;&gt;Node30 -->
<g id="edge58" class="edge">
<title>Node0&#45;&gt;Node30</title>
<path fill="none" stroke="#191970" d="M603.2562,-574.0428C663.1093,-565.4631 767.1218,-550.1487 856,-535 857.4423,-534.7542 858.9059,-534.5011 860.383,-534.2426"/>
<polygon fill="#191970" stroke="#191970" points="861.0151,-537.6852 870.2412,-532.4765 859.7806,-530.7949 861.0151,-537.6852"/>
</g>
<!-- Node2 -->
<g id="node3" class="node">
<title>Node2</title>
<g id="a_node3"><a xlink:href="VectorFixSize_8h.html" target="_top" xlink:title="iDynTree/Core/VectorFixSize.h">
<polygon fill="none" stroke="#000000" points="222.5,-168.5 222.5,-187.5 383.5,-187.5 383.5,-168.5 222.5,-168.5"/>
<text text-anchor="middle" x="303" y="-175.5" font-family="FreeSans.ttf" font-size="10.00" fill="#000000">iDynTree/Core/VectorFixSize.h</text>
</a>
</g>
</g>
<!-- Node1&#45;&gt;Node2 -->
<g id="edge2" class="edge">
<title>Node1&#45;&gt;Node2</title>
<path fill="none" stroke="#191970" d="M120.6223,-453.7305C106.714,-434.3102 78,-389.0087 78,-346 78,-346 78,-346 78,-290 78,-226.8366 149.9407,-199.2945 212.4641,-187.2851"/>
<polygon fill="#191970" stroke="#191970" points="213.1875,-190.7111 222.4054,-185.4879 211.9422,-183.8227 213.1875,-190.7111"/>
</g>
<!-- Node3 -->
<g id="node4" class="node">
<title>Node3</title>
<g id="a_node4"><a xlink:href="Utils_8h.html" target="_top" xlink:title="iDynTree/Core/Utils.h">
<polygon fill="none" stroke="#000000" points="146.5,-56.5 146.5,-75.5 265.5,-75.5 265.5,-56.5 146.5,-56.5"/>
<text text-anchor="middle" x="206" y="-63.5" font-family="FreeSans.ttf" font-size="10.00" fill="#000000">iDynTree/Core/Utils.h</text>
</a>
</g>
</g>
<!-- Node2&#45;&gt;Node3 -->
<g id="edge3" class="edge">
<title>Node2&#45;&gt;Node3</title>
<path fill="none" stroke="#191970" d="M294.7298,-168.4509C278.3366,-149.5227 241.5211,-107.014 220.834,-83.1279"/>
<polygon fill="#191970" stroke="#191970" points="223.4417,-80.7927 214.2492,-75.5249 218.1503,-85.3754 223.4417,-80.7927"/>
</g>
<!-- Node4 -->
<g id="node5" class="node">
<title>Node4</title>
<polygon fill="none" stroke="#bfbfbf" points="98.5,-.5 98.5,-19.5 151.5,-19.5 151.5,-.5 98.5,-.5"/>
<text text-anchor="middle" x="125" y="-7.5" font-family="FreeSans.ttf" font-size="10.00" fill="#000000">cstddef</text>
</g>
<!-- Node2&#45;&gt;Node4 -->
<g id="edge19" class="edge">
<title>Node2&#45;&gt;Node4</title>
<path fill="none" stroke="#191970" d="M273.3701,-168.3825C235.3447,-154.4142 170.3199,-124.721 137,-76 127.7661,-62.4981 125.0524,-43.9449 124.4838,-29.9475"/>
<polygon fill="#191970" stroke="#191970" points="127.9832,-29.8539 124.4041,-19.882 120.9834,-29.9094 127.9832,-29.8539"/>
</g>
<!-- Node6 -->
<g id="node7" class="node">
<title>Node6</title>
<g id="a_node7"><a xlink:href="Span_8h.html" target="_top" xlink:title="iDynTree/Core/Span.h">
<polygon fill="none" stroke="#000000" points="311.5,-56.5 311.5,-75.5 432.5,-75.5 432.5,-56.5 311.5,-56.5"/>
<text text-anchor="middle" x="372" y="-63.5" font-family="FreeSans.ttf" font-size="10.00" fill="#000000">iDynTree/Core/Span.h</text>
</a>
</g>
</g>
<!-- Node2&#45;&gt;Node6 -->
<g id="edge6" class="edge">
<title>Node2&#45;&gt;Node6</title>
<path fill="none" stroke="#191970" d="M308.8829,-168.4509C320.3913,-149.7707 346.0488,-108.1238 360.8638,-84.0761"/>
<polygon fill="#191970" stroke="#191970" points="363.8666,-85.8747 366.132,-75.5249 357.9068,-82.203 363.8666,-85.8747"/>
</g>
<!-- Node7 -->
<g id="node8" class="node">
<title>Node7</title>
<polygon fill="none" stroke="#bfbfbf" points="680,-.5 680,-19.5 732,-19.5 732,-.5 680,-.5"/>
<text text-anchor="middle" x="706" y="-7.5" font-family="FreeSans.ttf" font-size="10.00" fill="#000000">cassert</text>
</g>
<!-- Node2&#45;&gt;Node7 -->
<g id="edge18" class="edge">
<title>Node2&#45;&gt;Node7</title>
<path fill="none" stroke="#191970" d="M313.0509,-168.3981C328.3318,-154.2621 358.8306,-127.8193 389,-112 414.5115,-98.6231 592.4333,-44.2527 669.9932,-20.8252"/>
<polygon fill="#191970" stroke="#191970" points="671.2475,-24.1027 679.8103,-17.8633 669.2255,-17.4011 671.2475,-24.1027"/>
</g>
<!-- Node15 -->
<g id="node16" class="node">
<title>Node15</title>
<polygon fill="none" stroke="#bfbfbf" points="398,-112.5 398,-131.5 442,-131.5 442,-112.5 398,-112.5"/>
<text text-anchor="middle" x="420" y="-119.5" font-family="FreeSans.ttf" font-size="10.00" fill="#000000">string</text>
</g>
<!-- Node2&#45;&gt;Node15 -->
<g id="edge16" class="edge">
<title>Node2&#45;&gt;Node15</title>
<path fill="none" stroke="#191970" d="M323.113,-168.3733C341.8103,-159.4241 369.8744,-145.9917 390.9934,-135.8835"/>
<polygon fill="#191970" stroke="#191970" points="392.6405,-138.9755 400.1494,-131.5011 389.6183,-132.6614 392.6405,-138.9755"/>
</g>
<!-- Node16 -->
<g id="node17" class="node">
<title>Node16</title>
<polygon fill="none" stroke="#bfbfbf" points="460,-112.5 460,-131.5 516,-131.5 516,-112.5 460,-112.5"/>
<text text-anchor="middle" x="488" y="-119.5" font-family="FreeSans.ttf" font-size="10.00" fill="#000000">sstream</text>
</g>
<!-- Node2&#45;&gt;Node16 -->
<g id="edge17" class="edge">
<title>Node2&#45;&gt;Node16</title>
<path fill="none" stroke="#191970" d="M334.8026,-168.3733C366.866,-158.6676 416.3498,-143.6887 450.3525,-133.396"/>
<polygon fill="#191970" stroke="#191970" points="451.3808,-136.7417 459.9378,-130.4945 449.3527,-130.0419 451.3808,-136.7417"/>
</g>
<!-- Node17 -->
<g id="node18" class="node">
<title>Node17</title>
<polygon fill="none" stroke="#bfbfbf" points="534,-112.5 534,-131.5 584,-131.5 584,-112.5 534,-112.5"/>
<text text-anchor="middle" x="559" y="-119.5" font-family="FreeSans.ttf" font-size="10.00" fill="#000000">cstring</text>
</g>
<!-- Node2&#45;&gt;Node17 -->
<g id="edge20" class="edge">
<title>Node2&#45;&gt;Node17</title>
<path fill="none" stroke="#191970" d="M354.8577,-168.4985C397.8179,-160.3459 460.6492,-147.7766 524.0465,-132.0966"/>
<polygon fill="#191970" stroke="#191970" points="524.958,-135.4765 533.8118,-129.6574 523.2616,-128.6852 524.958,-135.4765"/>
</g>
<!-- Node3&#45;&gt;Node4 -->
<g id="edge4" class="edge">
<title>Node3&#45;&gt;Node4</title>
<path fill="none" stroke="#191970" d="M191.8909,-56.2455C179.5791,-47.7337 161.5042,-35.2375 147.2462,-25.3801"/>
<polygon fill="#191970" stroke="#191970" points="149.1634,-22.4506 138.9474,-19.6427 145.1826,-28.2085 149.1634,-22.4506"/>
</g>
<!-- Node5 -->
<g id="node6" class="node">
<title>Node5</title>
<polygon fill="none" stroke="#bfbfbf" points="0,-.5 0,-19.5 80,-19.5 80,-.5 0,-.5"/>
<text text-anchor="middle" x="40" y="-7.5" font-family="FreeSans.ttf" font-size="10.00" fill="#000000">CoreExport.h</text>
</g>
<!-- Node3&#45;&gt;Node5 -->
<g id="edge5" class="edge">
<title>Node3&#45;&gt;Node5</title>
<path fill="none" stroke="#191970" d="M177.4636,-56.3733C149.9798,-47.1016 108.2314,-33.0178 77.9548,-22.804"/>
<polygon fill="#191970" stroke="#191970" points="78.7582,-19.3813 68.164,-19.5011 76.5206,-26.0141 78.7582,-19.3813"/>
</g>
<!-- Node6&#45;&gt;Node4 -->
<g id="edge10" class="edge">
<title>Node6&#45;&gt;Node4</title>
<path fill="none" stroke="#191970" d="M323.8015,-56.467C282.8864,-48.1662 222.4145,-35.4095 161.4849,-20.2719"/>
<polygon fill="#191970" stroke="#191970" points="162.2558,-16.8569 151.7051,-17.8223 160.555,-23.6472 162.2558,-16.8569"/>
</g>
<!-- Node6&#45;&gt;Node7 -->
<g id="edge7" class="edge">
<title>Node6&#45;&gt;Node7</title>
<path fill="none" stroke="#191970" d="M432.5437,-58.9539C491.0446,-51.6342 582.2807,-38.8752 669.8822,-20.0369"/>
<polygon fill="#191970" stroke="#191970" points="670.692,-23.4427 679.7168,-17.8927 669.2007,-16.6034 670.692,-23.4427"/>
</g>
<!-- Node8 -->
<g id="node9" class="node">
<title>Node8</title>
<polygon fill="none" stroke="#bfbfbf" points="450,-.5 450,-19.5 514,-19.5 514,-.5 450,-.5"/>
<text text-anchor="middle" x="482" y="-7.5" font-family="FreeSans.ttf" font-size="10.00" fill="#000000">algorithm</text>
</g>
<!-- Node6&#45;&gt;Node8 -->
<g id="edge8" class="edge">
<title>Node6&#45;&gt;Node8</title>
<path fill="none" stroke="#191970" d="M391.1605,-56.2455C408.5111,-47.4125 434.2901,-34.2887 453.9583,-24.2758"/>
<polygon fill="#191970" stroke="#191970" points="455.7353,-27.2986 463.059,-19.6427 452.5595,-21.0605 455.7353,-27.2986"/>
</g>
<!-- Node9 -->
<g id="node10" class="node">
<title>Node9</title>
<polygon fill="none" stroke="#bfbfbf" points="532,-.5 532,-19.5 574,-19.5 574,-.5 532,-.5"/>
<text text-anchor="middle" x="553" y="-7.5" font-family="FreeSans.ttf" font-size="10.00" fill="#000000">array</text>
</g>
<!-- Node6&#45;&gt;Node9 -->
<g id="edge9" class="edge">
<title>Node6&#45;&gt;Node9</title>
<path fill="none" stroke="#191970" d="M404.1829,-56.4605C432.8315,-47.9102 476.1071,-34.8521 522.1626,-20.2167"/>
<polygon fill="#191970" stroke="#191970" points="523.2529,-23.5427 531.7171,-17.1703 521.1264,-16.8735 523.2529,-23.5427"/>
</g>
<!-- Node10 -->
<g id="node11" class="node">
<title>Node10</title>
<polygon fill="none" stroke="#bfbfbf" points="169.5,-.5 169.5,-19.5 222.5,-19.5 222.5,-.5 169.5,-.5"/>
<text text-anchor="middle" x="196" y="-7.5" font-family="FreeSans.ttf" font-size="10.00" fill="#000000">iterator</text>
</g>
<!-- Node6&#45;&gt;Node10 -->
<g id="edge11" class="edge">
<title>Node6&#45;&gt;Node10</title>
<path fill="none" stroke="#191970" d="M341.7445,-56.3733C311.3719,-46.7093 264.5683,-31.8172 232.2333,-21.5288"/>
<polygon fill="#191970" stroke="#191970" points="233.2875,-18.1914 222.697,-18.4945 231.165,-24.8618 233.2875,-18.1914"/>
</g>
<!-- Node11 -->
<g id="node12" class="node">
<title>Node11</title>
<polygon fill="none" stroke="#bfbfbf" points="241,-.5 241,-19.5 285,-19.5 285,-.5 241,-.5"/>
<text text-anchor="middle" x="263" y="-7.5" font-family="FreeSans.ttf" font-size="10.00" fill="#000000">limits</text>
</g>
<!-- Node6&#45;&gt;Node11 -->
<g id="edge12" class="edge">
<title>Node6&#45;&gt;Node11</title>
<path fill="none" stroke="#191970" d="M353.0136,-56.2455C335.8208,-47.4125 310.2762,-34.2887 290.7868,-24.2758"/>
<polygon fill="#191970" stroke="#191970" points="292.263,-21.0993 281.7688,-19.6427 289.0641,-27.3257 292.263,-21.0993"/>
</g>
<!-- Node12 -->
<g id="node13" class="node">
<title>Node12</title>
<polygon fill="none" stroke="#bfbfbf" points="303.5,-.5 303.5,-19.5 368.5,-19.5 368.5,-.5 303.5,-.5"/>
<text text-anchor="middle" x="336" y="-7.5" font-family="FreeSans.ttf" font-size="10.00" fill="#000000">stdexcept</text>
</g>
<!-- Node6&#45;&gt;Node12 -->
<g id="edge13" class="edge">
<title>Node6&#45;&gt;Node12</title>
<path fill="none" stroke="#191970" d="M365.7293,-56.2455C360.7736,-48.5367 353.717,-37.5598 347.7224,-28.2348"/>
<polygon fill="#191970" stroke="#191970" points="350.5506,-26.1618 342.1989,-19.6427 344.6624,-29.9471 350.5506,-26.1618"/>
</g>
<!-- Node13 -->
<g id="node14" class="node">
<title>Node13</title>
<polygon fill="none" stroke="#bfbfbf" points="592.5,-.5 592.5,-19.5 661.5,-19.5 661.5,-.5 592.5,-.5"/>
<text text-anchor="middle" x="627" y="-7.5" font-family="FreeSans.ttf" font-size="10.00" fill="#000000">type_traits</text>
</g>
<!-- Node6&#45;&gt;Node13 -->
<g id="edge14" class="edge">
<title>Node6&#45;&gt;Node13</title>
<path fill="none" stroke="#191970" d="M416.482,-56.4218C457.1152,-47.6455 519.1213,-34.1861 582.6296,-20.0684"/>
<polygon fill="#191970" stroke="#191970" points="583.4186,-23.4785 592.4193,-17.8895 581.8978,-16.6457 583.4186,-23.4785"/>
</g>
<!-- Node14 -->
<g id="node15" class="node">
<title>Node14</title>
<polygon fill="none" stroke="#bfbfbf" points="386.5,-.5 386.5,-19.5 431.5,-19.5 431.5,-.5 386.5,-.5"/>
<text text-anchor="middle" x="409" y="-7.5" font-family="FreeSans.ttf" font-size="10.00" fill="#000000">utility</text>
</g>
<!-- Node6&#45;&gt;Node14 -->
<g id="edge15" class="edge">
<title>Node6&#45;&gt;Node14</title>
<path fill="none" stroke="#191970" d="M378.4449,-56.2455C383.5382,-48.5367 390.7908,-37.5598 396.952,-28.2348"/>
<polygon fill="#191970" stroke="#191970" points="400.0365,-29.9155 402.6289,-19.6427 394.1962,-26.0566 400.0365,-29.9155"/>
</g>
<!-- Node19 -->
<g id="node20" class="node">
<title>Node19</title>
<g id="a_node20"><a xlink:href="SpatialMotionVector_8h.html" target="_top" xlink:title="iDynTree/Core/SpatialMotion\lVector.h">
<polygon fill="none" stroke="#000000" points="323.5,-448.5 323.5,-478.5 478.5,-478.5 478.5,-448.5 323.5,-448.5"/>
<text text-anchor="start" x="331.5" y="-466.5" font-family="FreeSans.ttf" font-size="10.00" fill="#000000">iDynTree/Core/SpatialMotion</text>
<text text-anchor="middle" x="401" y="-455.5" font-family="FreeSans.ttf" font-size="10.00" fill="#000000">Vector.h</text>
</a>
</g>
</g>
<!-- Node18&#45;&gt;Node19 -->
<g id="edge22" class="edge">
<title>Node18&#45;&gt;Node19</title>
<path fill="none" stroke="#191970" d="M530.0938,-515.3906C508.1408,-506.5664 474.9883,-493.2404 447.7771,-482.3026"/>
<polygon fill="#191970" stroke="#191970" points="449.0119,-479.0268 438.428,-478.5446 446.4011,-485.5217 449.0119,-479.0268"/>
</g>
<!-- Node19&#45;&gt;Node2 -->
<g id="edge23" class="edge">
<title>Node19&#45;&gt;Node2</title>
<path fill="none" stroke="#191970" d="M327.9755,-448.4606C243.534,-428.9216 116,-391.8259 116,-346 116,-346 116,-346 116,-290 116,-232.4648 181.957,-203.7657 235.5279,-189.9448"/>
<polygon fill="#191970" stroke="#191970" points="236.4883,-193.3131 245.368,-187.5336 234.8223,-186.5142 236.4883,-193.3131"/>
</g>
<!-- Node20 -->
<g id="node21" class="node">
<title>Node20</title>
<g id="a_node21"><a xlink:href="GeomVector3_8h.html" target="_top" xlink:title="iDynTree/Core/GeomVector3.h">
<polygon fill="none" stroke="#000000" points="182.5,-224.5 182.5,-243.5 345.5,-243.5 345.5,-224.5 182.5,-224.5"/>
<text text-anchor="middle" x="264" y="-231.5" font-family="FreeSans.ttf" font-size="10.00" fill="#000000">iDynTree/Core/GeomVector3.h</text>
</a>
</g>
</g>
<!-- Node19&#45;&gt;Node20 -->
<g id="edge24" class="edge">
<title>Node19&#45;&gt;Node20</title>
<path fill="none" stroke="#191970" d="M387.6888,-448.2669C379.2751,-438.2915 368.4371,-424.7802 360,-412 323.5194,-356.7405 288.689,-286.2981 272.8753,-253.0318"/>
<polygon fill="#191970" stroke="#191970" points="275.8609,-251.1569 268.4312,-243.6037 269.5291,-254.1415 275.8609,-251.1569"/>
</g>
<!-- Node21 -->
<g id="node22" class="node">
<title>Node21</title>
<g id="a_node22"><a xlink:href="SpatialVector_8h.html" target="_top" xlink:title="iDynTree/Core/SpatialVector.h">
<polygon fill="none" stroke="#000000" points="369.5,-392.5 369.5,-411.5 530.5,-411.5 530.5,-392.5 369.5,-392.5"/>
<text text-anchor="middle" x="450" y="-399.5" font-family="FreeSans.ttf" font-size="10.00" fill="#000000">iDynTree/Core/SpatialVector.h</text>
</a>
</g>
</g>
<!-- Node19&#45;&gt;Node21 -->
<g id="edge26" class="edge">
<title>Node19&#45;&gt;Node21</title>
<path fill="none" stroke="#191970" d="M413.1124,-448.2977C419.9849,-439.672 428.6223,-428.8312 435.811,-419.8087"/>
<polygon fill="#191970" stroke="#191970" points="438.6604,-421.849 442.1545,-411.8469 433.1856,-417.487 438.6604,-421.849"/>
</g>
<!-- Node20&#45;&gt;Node2 -->
<g id="edge25" class="edge">
<title>Node20&#45;&gt;Node2</title>
<path fill="none" stroke="#191970" d="M270.7933,-224.2455C276.2178,-216.4564 283.9661,-205.3308 290.5033,-195.9439"/>
<polygon fill="#191970" stroke="#191970" points="293.4417,-197.849 296.2846,-187.6427 287.6975,-193.8485 293.4417,-197.849"/>
</g>
<!-- Node21&#45;&gt;Node3 -->
<g id="edge51" class="edge">
<title>Node21&#45;&gt;Node3</title>
<path fill="none" stroke="#191970" d="M375.3067,-392.4338C287.6191,-376.5346 154,-335.6331 154,-234 154,-234 154,-234 154,-178 154,-141.9842 176.3945,-105.0048 191.7908,-83.8372"/>
<polygon fill="#191970" stroke="#191970" points="194.6405,-85.8714 197.875,-75.7823 189.0549,-81.6522 194.6405,-85.8714"/>
</g>
<!-- Node21&#45;&gt;Node16 -->
<g id="edge54" class="edge">
<title>Node21&#45;&gt;Node16</title>
<path fill="none" stroke="#191970" d="M487.0109,-392.4037C529.0037,-379.3106 595.4784,-351.377 625,-300 632.3511,-287.2067 633.2079,-249.724 620,-224 598.5413,-182.2063 551.2754,-152.4228 519.5251,-136.21"/>
<polygon fill="#191970" stroke="#191970" points="520.7319,-132.9026 510.2155,-131.6159 517.6342,-139.1799 520.7319,-132.9026"/>
</g>
<!-- Node21&#45;&gt;Node20 -->
<g id="edge52" class="edge">
<title>Node21&#45;&gt;Node20</title>
<path fill="none" stroke="#191970" d="M439.4669,-392.4862C409.1737,-365.1246 321.5192,-285.9528 282.7841,-250.9663"/>
<polygon fill="#191970" stroke="#191970" points="284.6479,-247.9334 274.8809,-243.8279 279.9559,-253.1281 284.6479,-247.9334"/>
</g>
<!-- Node22 -->
<g id="node23" class="node">
<title>Node22</title>
<g id="a_node23"><a xlink:href="Position_8h.html" target="_top" xlink:title="Position.h">
<polygon fill="none" stroke="#000000" points="417.5,-336.5 417.5,-355.5 482.5,-355.5 482.5,-336.5 417.5,-336.5"/>
<text text-anchor="middle" x="450" y="-343.5" font-family="FreeSans.ttf" font-size="10.00" fill="#000000">Position.h</text>
</a>
</g>
</g>
<!-- Node21&#45;&gt;Node22 -->
<g id="edge27" class="edge">
<title>Node21&#45;&gt;Node22</title>
<path fill="none" stroke="#191970" d="M450,-392.2455C450,-384.9382 450,-374.6944 450,-365.7046"/>
<polygon fill="#191970" stroke="#191970" points="453.5001,-365.6426 450,-355.6427 446.5001,-365.6427 453.5001,-365.6426"/>
</g>
<!-- Node24 -->
<g id="node25" class="node">
<title>Node24</title>
<g id="a_node25"><a xlink:href="Rotation_8h.html" target="_top" xlink:title="iDynTree/Core/Rotation.h">
<polygon fill="none" stroke="#000000" points="478.5,-280.5 478.5,-299.5 615.5,-299.5 615.5,-280.5 478.5,-280.5"/>
<text text-anchor="middle" x="547" y="-287.5" font-family="FreeSans.ttf" font-size="10.00" fill="#000000">iDynTree/Core/Rotation.h</text>
</a>
</g>
</g>
<!-- Node21&#45;&gt;Node24 -->
<g id="edge50" class="edge">
<title>Node21&#45;&gt;Node24</title>
<path fill="none" stroke="#191970" d="M458.8675,-392.191C467.2193,-382.9196 480.0485,-368.5927 491,-356 505.0753,-339.8154 520.8637,-321.1611 532.0793,-307.8224"/>
<polygon fill="#191970" stroke="#191970" points="534.9774,-309.8137 538.7253,-299.9039 529.6156,-305.3135 534.9774,-309.8137"/>
</g>
<!-- Node28 -->
<g id="node29" class="node">
<title>Node28</title>
<polygon fill="none" stroke="#bfbfbf" points="848,-112.5 848,-131.5 908,-131.5 908,-112.5 848,-112.5"/>
<text text-anchor="middle" x="878" y="-119.5" font-family="FreeSans.ttf" font-size="10.00" fill="#000000">iostream</text>
</g>
<!-- Node21&#45;&gt;Node28 -->
<g id="edge53" class="edge">
<title>Node21&#45;&gt;Node28</title>
<path fill="none" stroke="#191970" d="M530.7206,-394.6024C624.7529,-381.3914 777.3546,-344.8107 857,-244 880.3279,-214.4728 881.5692,-168.2663 880.0236,-142.0083"/>
<polygon fill="#191970" stroke="#191970" points="883.4924,-141.4741 879.2169,-131.7803 876.5141,-142.0246 883.4924,-141.4741"/>
</g>
<!-- Node22&#45;&gt;Node15 -->
<g id="edge49" class="edge">
<title>Node22&#45;&gt;Node15</title>
<path fill="none" stroke="#191970" d="M447.9171,-336.4864C444.0499,-318.5053 435.7248,-278.2606 431,-244 426.034,-207.9901 422.7956,-165.6779 421.1916,-141.5332"/>
<polygon fill="#191970" stroke="#191970" points="424.6829,-141.2824 420.5522,-131.5259 417.6971,-141.7288 424.6829,-141.2824"/>
</g>
<!-- Node23 -->
<g id="node24" class="node">
<title>Node23</title>
<g id="a_node24"><a xlink:href="PositionRaw_8h.html" target="_top" xlink:title="iDynTree/Core/PositionRaw.h">
<polygon fill="none" stroke="#000000" points="440,-224.5 440,-243.5 596,-243.5 596,-224.5 440,-224.5"/>
<text text-anchor="middle" x="518" y="-231.5" font-family="FreeSans.ttf" font-size="10.00" fill="#000000">iDynTree/Core/PositionRaw.h</text>
</a>
</g>
</g>
<!-- Node22&#45;&gt;Node23 -->
<g id="edge28" class="edge">
<title>Node22&#45;&gt;Node23</title>
<path fill="none" stroke="#191970" d="M451.134,-336.396C453.0692,-322.9437 457.9311,-298.1093 469,-280 475.9657,-268.6038 486.4989,-258.202 496.0167,-250.1838"/>
<polygon fill="#191970" stroke="#191970" points="498.3872,-252.7694 504.0041,-243.786 494.0111,-247.3059 498.3872,-252.7694"/>
</g>
<!-- Node22&#45;&gt;Node24 -->
<g id="edge31" class="edge">
<title>Node22&#45;&gt;Node24</title>
<path fill="none" stroke="#191970" d="M466.8961,-336.2455C481.918,-327.5731 504.1043,-314.7645 521.321,-304.825"/>
<polygon fill="#191970" stroke="#191970" points="523.3871,-307.6737 530.2975,-299.6427 519.8872,-301.6114 523.3871,-307.6737"/>
</g>
<!-- Node23&#45;&gt;Node2 -->
<g id="edge29" class="edge">
<title>Node23&#45;&gt;Node2</title>
<path fill="none" stroke="#191970" d="M481.0402,-224.3733C444.5925,-214.8799 388.7754,-200.3415 349.3711,-190.0781"/>
<polygon fill="#191970" stroke="#191970" points="350.0369,-186.6348 339.4775,-187.5011 348.2724,-193.4087 350.0369,-186.6348"/>
</g>
<!-- Node23&#45;&gt;Node15 -->
<g id="edge30" class="edge">
<title>Node23&#45;&gt;Node15</title>
<path fill="none" stroke="#191970" d="M509.6446,-224.4509C493.0824,-205.5227 455.8873,-163.014 434.9869,-139.1279"/>
<polygon fill="#191970" stroke="#191970" points="437.5534,-136.7459 428.3343,-131.5249 432.2853,-141.3555 437.5534,-136.7459"/>
</g>
<!-- Node24&#45;&gt;Node2 -->
<g id="edge48" class="edge">
<title>Node24&#45;&gt;Node2</title>
<path fill="none" stroke="#191970" d="M520.893,-280.4891C497.1793,-271.6521 461.3706,-257.8111 431,-244 395.0772,-227.664 354.794,-206.3832 329.1824,-192.4649"/>
<polygon fill="#191970" stroke="#191970" points="330.5785,-189.2393 320.1246,-187.5167 327.2225,-195.3825 330.5785,-189.2393"/>
</g>
<!-- Node24&#45;&gt;Node15 -->
<g id="edge32" class="edge">
<title>Node24&#45;&gt;Node15</title>
<path fill="none" stroke="#191970" d="M566.3234,-280.4317C587.9298,-268.363 618.2643,-246.4601 605,-224 587.8134,-194.8983 499.4871,-154.8322 451.3606,-134.6725"/>
<polygon fill="#191970" stroke="#191970" points="452.6005,-131.3977 442.0226,-130.7994 449.9187,-137.8636 452.6005,-131.3977"/>
</g>
<!-- Node24&#45;&gt;Node20 -->
<g id="edge33" class="edge">
<title>Node24&#45;&gt;Node20</title>
<path fill="none" stroke="#191970" d="M498.6721,-280.4369C449.8319,-270.7724 374.3324,-255.8326 322.2236,-245.5213"/>
<polygon fill="#191970" stroke="#191970" points="322.6178,-242.0315 312.1285,-243.5237 321.2589,-248.8983 322.6178,-242.0315"/>
</g>
<!-- Node24&#45;&gt;Node25 -->
<g id="edge34" class="edge">
<title>Node24&#45;&gt;Node25</title>
<path fill="none" stroke="#191970" d="M584.9109,-280.4369C622.665,-270.9133 680.7265,-256.2672 721.5264,-245.9753"/>
<polygon fill="#191970" stroke="#191970" points="722.4053,-249.3633 731.2454,-243.5237 720.6931,-242.576 722.4053,-249.3633"/>
</g>
<!-- Node25&#45;&gt;Node15 -->
<g id="edge47" class="edge">
<title>Node25&#45;&gt;Node15</title>
<path fill="none" stroke="#191970" d="M746.9156,-224.4257C714.6412,-210.6758 652.4969,-185.1126 598,-168 536.8337,-148.7932 517.5153,-150.1534 452.2637,-132.1969"/>
<polygon fill="#191970" stroke="#191970" points="452.8662,-128.731 442.2927,-129.4027 450.9773,-135.4713 452.8662,-128.731"/>
</g>
<!-- Node26 -->
<g id="node27" class="node">
<title>Node26</title>
<g id="a_node27"><a xlink:href="MatrixFixSize_8h.html" target="_top" xlink:title="iDynTree/Core/MatrixFixSize.h">
<polygon fill="none" stroke="#000000" points="688.5,-168.5 688.5,-187.5 849.5,-187.5 849.5,-168.5 688.5,-168.5"/>
<text text-anchor="middle" x="769" y="-175.5" font-family="FreeSans.ttf" font-size="10.00" fill="#000000">iDynTree/Core/MatrixFixSize.h</text>
</a>
</g>
</g>
<!-- Node25&#45;&gt;Node26 -->
<g id="edge35" class="edge">
<title>Node25&#45;&gt;Node26</title>
<path fill="none" stroke="#191970" d="M769,-224.2455C769,-216.9382 769,-206.6944 769,-197.7046"/>
<polygon fill="#191970" stroke="#191970" points="772.5001,-197.6426 769,-187.6427 765.5001,-197.6427 772.5001,-197.6426"/>
</g>
<!-- Node26&#45;&gt;Node3 -->
<g id="edge36" class="edge">
<title>Node26&#45;&gt;Node3</title>
<path fill="none" stroke="#191970" d="M736.1039,-168.4743C708.0284,-159.9863 666.7954,-146.666 632,-132 614.0497,-124.4341 611.632,-117.6836 593,-112 578.0514,-107.44 383.0404,-85.4952 275.7055,-73.6393"/>
<polygon fill="#191970" stroke="#191970" points="275.9245,-70.1424 265.601,-72.5244 275.1567,-77.1001 275.9245,-70.1424"/>
</g>
<!-- Node26&#45;&gt;Node7 -->
<g id="edge42" class="edge">
<title>Node26&#45;&gt;Node7</title>
<path fill="none" stroke="#191970" d="M779.2439,-168.3695C791.4151,-155.6988 809.1144,-132.6181 801,-112 786.4622,-75.0605 751.5474,-43.5794 728.3399,-25.7292"/>
<polygon fill="#191970" stroke="#191970" points="730.1939,-22.7457 720.0855,-19.5723 726.0087,-28.3568 730.1939,-22.7457"/>
</g>
<!-- Node26&#45;&gt;Node15 -->
<g id="edge44" class="edge">
<title>Node26&#45;&gt;Node15</title>
<path fill="none" stroke="#191970" d="M688.257,-170.1205C625.9619,-163.1664 537.5956,-151.4049 452.0962,-131.9484"/>
<polygon fill="#191970" stroke="#191970" points="452.7569,-128.5089 442.2253,-129.6644 451.1788,-135.3287 452.7569,-128.5089"/>
</g>
<!-- Node26&#45;&gt;Node16 -->
<g id="edge46" class="edge">
<title>Node26&#45;&gt;Node16</title>
<path fill="none" stroke="#191970" d="M711.5507,-168.4666C664.2651,-160.3253 595.2864,-147.7769 526.3874,-132.1918"/>
<polygon fill="#191970" stroke="#191970" points="526.7535,-128.6854 516.2251,-129.8705 525.1946,-135.5096 526.7535,-128.6854"/>
</g>
<!-- Node26&#45;&gt;Node17 -->
<g id="edge43" class="edge">
<title>Node26&#45;&gt;Node17</title>
<path fill="none" stroke="#191970" d="M732.8997,-168.3733C693.9304,-157.9814 632.2917,-141.5445 593.8255,-131.2868"/>
<polygon fill="#191970" stroke="#191970" points="594.6654,-127.8885 584.1012,-128.6936 592.8617,-134.6522 594.6654,-127.8885"/>
</g>
<!-- Node27 -->
<g id="node28" class="node">
<title>Node27</title>
<g id="a_node28"><a xlink:href="MatrixView_8h.html" target="_top" xlink:title="iDynTree/Core/MatrixView.h">
<polygon fill="none" stroke="#000000" points="640.5,-112.5 640.5,-131.5 791.5,-131.5 791.5,-112.5 640.5,-112.5"/>
<text text-anchor="middle" x="716" y="-119.5" font-family="FreeSans.ttf" font-size="10.00" fill="#000000">iDynTree/Core/MatrixView.h</text>
</a>
</g>
</g>
<!-- Node26&#45;&gt;Node27 -->
<g id="edge37" class="edge">
<title>Node26&#45;&gt;Node27</title>
<path fill="none" stroke="#191970" d="M759.7681,-168.2455C752.1683,-160.2155 741.2123,-148.6394 732.1632,-139.0781"/>
<polygon fill="#191970" stroke="#191970" points="734.542,-136.4998 725.1261,-131.6427 729.4579,-141.3115 734.542,-136.4998"/>
</g>
<!-- Node26&#45;&gt;Node28 -->
<g id="edge45" class="edge">
<title>Node26&#45;&gt;Node28</title>
<path fill="none" stroke="#191970" d="M787.9864,-168.2455C805.1792,-159.4125 830.7238,-146.2887 850.2132,-136.2758"/>
<polygon fill="#191970" stroke="#191970" points="851.9359,-139.3257 859.2312,-131.6427 848.737,-133.0993 851.9359,-139.3257"/>
</g>
<!-- Node27&#45;&gt;Node3 -->
<g id="edge41" class="edge">
<title>Node27&#45;&gt;Node3</title>
<path fill="none" stroke="#191970" d="M640.3789,-113.589C635.513,-113.0504 630.6879,-112.5172 626,-112 502.8156,-98.4106 359.2909,-82.7225 275.9287,-73.625"/>
<polygon fill="#191970" stroke="#191970" points="276.1384,-70.1271 265.8177,-72.5216 275.379,-77.0858 276.1384,-70.1271"/>
</g>
<!-- Node27&#45;&gt;Node6 -->
<g id="edge40" class="edge">
<title>Node27&#45;&gt;Node6</title>
<path fill="none" stroke="#191970" d="M657.2552,-112.4369C597.1454,-102.6516 503.8149,-87.4582 440.4117,-77.1368"/>
<polygon fill="#191970" stroke="#191970" points="440.935,-73.676 430.5025,-75.5237 439.8102,-80.585 440.935,-73.676"/>
</g>
<!-- Node27&#45;&gt;Node7 -->
<g id="edge38" class="edge">
<title>Node27&#45;&gt;Node7</title>
<path fill="none" stroke="#191970" d="M715.1474,-112.4509C713.5164,-94.184 709.9246,-53.9553 707.7587,-29.6976"/>
<polygon fill="#191970" stroke="#191970" points="711.226,-29.174 706.8504,-19.5249 704.2537,-29.7966 711.226,-29.174"/>
</g>
<!-- Node27&#45;&gt;Node13 -->
<g id="edge39" class="edge">
<title>Node27&#45;&gt;Node13</title>
<path fill="none" stroke="#191970" d="M708.4119,-112.4509C693.4364,-93.6054 659.8862,-51.3849 640.8601,-27.4419"/>
<polygon fill="#191970" stroke="#191970" points="643.5305,-25.1765 634.5689,-19.5249 638.0501,-29.5315 643.5305,-25.1765"/>
</g>
<!-- Node29&#45;&gt;Node19 -->
<g id="edge56" class="edge">
<title>Node29&#45;&gt;Node19</title>
<path fill="none" stroke="#191970" d="M401,-515.3906C401,-508.2234 401,-498.0862 401,-488.671"/>
<polygon fill="#191970" stroke="#191970" points="404.5001,-488.5446 401,-478.5446 397.5001,-488.5446 404.5001,-488.5446"/>
</g>
</g>
</svg>
