<?xml version="1.0" encoding="UTF-8" standalone="no"?>
<!DOCTYPE svg PUBLIC "-//W3C//DTD SVG 1.1//EN"
 "http://www.w3.org/Graphics/SVG/1.1/DTD/svg11.dtd">
<!-- Generated by graphviz version 2.40.1 (20161225.0304)
 -->
<!-- Title: ConstraintsGroup.cpp Pages: 1 -->
<svg width="2065pt" height="599pt"
 viewBox="0.00 0.00 2064.50 599.00" xmlns="http://www.w3.org/2000/svg" xmlns:xlink="http://www.w3.org/1999/xlink">
<g id="graph0" class="graph" transform="scale(1 1) rotate(0) translate(4 595)">
<title>ConstraintsGroup.cpp</title>
<!-- Node0 -->
<g id="node1" class="node">
<title>Node0</title>
<polygon fill="#bfbfbf" stroke="#000000" points="720,-571.5 720,-590.5 842,-590.5 842,-571.5 720,-571.5"/>
<text text-anchor="middle" x="781" y="-578.5" font-family="FreeSans.ttf" font-size="10.00" fill="#000000">ConstraintsGroup.cpp</text>
</g>
<!-- Node1 -->
<g id="node2" class="node">
<title>Node1</title>
<g id="a_node2"><a xlink:href="VectorDynSize_8h.html" target="_top" xlink:title="iDynTree/Core/VectorDynSize.h">
<polygon fill="none" stroke="#000000" points="506.5,-392.5 506.5,-411.5 673.5,-411.5 673.5,-392.5 506.5,-392.5"/>
<text text-anchor="middle" x="590" y="-399.5" font-family="FreeSans.ttf" font-size="10.00" fill="#000000">iDynTree/Core/VectorDynSize.h</text>
</a>
</g>
</g>
<!-- Node0&#45;&gt;Node1 -->
<g id="edge1" class="edge">
<title>Node0&#45;&gt;Node1</title>
<path fill="none" stroke="#191970" d="M775.8053,-571.4657C762.5618,-547.8788 725.3559,-485.9631 680,-448 663.7644,-434.4107 642.8406,-423.4127 625.2544,-415.5822"/>
<polygon fill="#191970" stroke="#191970" points="626.4486,-412.2861 615.8786,-411.5614 623.6896,-418.7195 626.4486,-412.2861"/>
</g>
<!-- Node3 -->
<g id="node4" class="node">
<title>Node3</title>
<polygon fill="none" stroke="#bfbfbf" points="518,-.5 518,-19.5 570,-19.5 570,-.5 518,-.5"/>
<text text-anchor="middle" x="544" y="-7.5" font-family="FreeSans.ttf" font-size="10.00" fill="#000000">cassert</text>
</g>
<!-- Node0&#45;&gt;Node3 -->
<g id="edge106" class="edge">
<title>Node0&#45;&gt;Node3</title>
<path fill="none" stroke="#191970" d="M719.9003,-578.9185C575.1118,-573.6275 219.5895,-558.4021 171,-535 140.3998,-520.2621 132.6863,-510.0848 119,-479 93.327,-420.6908 81.8787,-393.6498 109,-336 152.3701,-243.8115 431.9988,-75.241 518.5237,-24.7005"/>
<polygon fill="#191970" stroke="#191970" points="520.5353,-27.5795 527.4178,-19.5245 517.0144,-21.5294 520.5353,-27.5795"/>
</g>
<!-- Node4 -->
<g id="node5" class="node">
<title>Node4</title>
<polygon fill="none" stroke="#bfbfbf" points="0,-.5 0,-19.5 64,-19.5 64,-.5 0,-.5"/>
<text text-anchor="middle" x="32" y="-7.5" font-family="FreeSans.ttf" font-size="10.00" fill="#000000">algorithm</text>
</g>
<!-- Node0&#45;&gt;Node4 -->
<g id="edge105" class="edge">
<title>Node0&#45;&gt;Node4</title>
<path fill="none" stroke="#191970" d="M719.8934,-580.5435C580.6997,-578.8757 243.8528,-571.1147 137,-535 82.1133,-516.4491 28,-521.437 28,-463.5 28,-463.5 28,-463.5 28,-122 28,-89.691 29.683,-52.1727 30.8656,-29.7971"/>
<polygon fill="#191970" stroke="#191970" points="34.3728,-29.7613 31.4269,-19.5843 27.3833,-29.3771 34.3728,-29.7613"/>
</g>
<!-- Node13 -->
<g id="node14" class="node">
<title>Node13</title>
<g id="a_node14"><a xlink:href="MatrixDynSize_8h.html" target="_top" xlink:title="iDynTree/Core/MatrixDynSize.h">
<polygon fill="none" stroke="#000000" points="284.5,-392.5 284.5,-411.5 451.5,-411.5 451.5,-392.5 284.5,-392.5"/>
<text text-anchor="middle" x="368" y="-399.5" font-family="FreeSans.ttf" font-size="10.00" fill="#000000">iDynTree/Core/MatrixDynSize.h</text>
</a>
</g>
</g>
<!-- Node0&#45;&gt;Node13 -->
<g id="edge13" class="edge">
<title>Node0&#45;&gt;Node13</title>
<path fill="none" stroke="#191970" d="M719.7611,-576.1868C662.7755,-570.4631 576.0534,-558.5506 504,-535 451.4782,-517.8333 428.9652,-520.9493 393,-479 379.1749,-462.8746 372.9603,-438.954 370.1887,-422.0613"/>
<polygon fill="#191970" stroke="#191970" points="373.5906,-421.1052 368.7687,-411.6713 366.6551,-422.0531 373.5906,-421.1052"/>
</g>
<!-- Node15 -->
<g id="node16" class="node">
<title>Node15</title>
<g id="a_node16"><a xlink:href="Utils_8h.html" target="_top" xlink:title="iDynTree/Core/Utils.h">
<polygon fill="none" stroke="#000000" points="1429.5,-56.5 1429.5,-75.5 1548.5,-75.5 1548.5,-56.5 1429.5,-56.5"/>
<text text-anchor="middle" x="1489" y="-63.5" font-family="FreeSans.ttf" font-size="10.00" fill="#000000">iDynTree/Core/Utils.h</text>
</a>
</g>
</g>
<!-- Node0&#45;&gt;Node15 -->
<g id="edge22" class="edge">
<title>Node0&#45;&gt;Node15</title>
<path fill="none" stroke="#191970" d="M842.0438,-579.918C1066.6994,-575.7466 1836.9002,-559.6993 1883,-535 1917.6352,-516.4432 1935,-502.7931 1935,-463.5 1935,-463.5 1935,-463.5 1935,-178 1935,-101.416 1684.5,-76.7163 1558.9691,-69.1467"/>
<polygon fill="#191970" stroke="#191970" points="1558.8733,-65.6353 1548.6868,-68.5482 1558.4664,-72.6235 1558.8733,-65.6353"/>
</g>
<!-- Node17 -->
<g id="node18" class="node">
<title>Node17</title>
<g id="a_node18"><a xlink:href="ConstraintsGroup_8h.html" target="_top" xlink:title="iDynTree/ConstraintsGroup.h">
<polygon fill="none" stroke="#000000" points="143,-454 143,-473 299,-473 299,-454 143,-454"/>
<text text-anchor="middle" x="221" y="-461" font-family="FreeSans.ttf" font-size="10.00" fill="#000000">iDynTree/ConstraintsGroup.h</text>
</a>
</g>
</g>
<!-- Node0&#45;&gt;Node17 -->
<g id="edge23" class="edge">
<title>Node0&#45;&gt;Node17</title>
<path fill="none" stroke="#191970" d="M719.8152,-579.193C610.2935,-575.2671 385.4254,-563.8707 313,-535 282.8027,-522.9626 254.2638,-497.8623 237.201,-480.8431"/>
<polygon fill="#191970" stroke="#191970" points="239.273,-477.9539 229.7896,-473.23 234.2573,-482.8368 239.273,-477.9539"/>
</g>
<!-- Node19 -->
<g id="node20" class="node">
<title>Node19</title>
<polygon fill="none" stroke="#bfbfbf" points="118.5,-336.5 118.5,-355.5 165.5,-355.5 165.5,-336.5 118.5,-336.5"/>
<text text-anchor="middle" x="142" y="-343.5" font-family="FreeSans.ttf" font-size="10.00" fill="#000000">vector</text>
</g>
<!-- Node0&#45;&gt;Node19 -->
<g id="edge103" class="edge">
<title>Node0&#45;&gt;Node19</title>
<path fill="none" stroke="#191970" d="M719.7673,-577.6074C604.3461,-570.8516 358.762,-554.6612 276,-535 209.9955,-519.3198 172.1705,-535.0846 134,-479 110.5724,-444.5774 124.0458,-392.8066 134.1098,-365.1028"/>
<polygon fill="#191970" stroke="#191970" points="137.3841,-366.3394 137.716,-355.7498 130.8528,-363.8211 137.3841,-366.3394"/>
</g>
<!-- Node22 -->
<g id="node23" class="node">
<title>Node22</title>
<g id="a_node23"><a xlink:href="Constraint_8h.html" target="_top" xlink:title="iDynTree/Constraint.h">
<polygon fill="none" stroke="#000000" points="803,-454 803,-473 925,-473 925,-454 803,-454"/>
<text text-anchor="middle" x="864" y="-461" font-family="FreeSans.ttf" font-size="10.00" fill="#000000">iDynTree/Constraint.h</text>
</a>
</g>
</g>
<!-- Node0&#45;&gt;Node22 -->
<g id="edge33" class="edge">
<title>Node0&#45;&gt;Node22</title>
<path fill="none" stroke="#191970" d="M787.7922,-571.3845C801.6539,-551.761 833.3942,-506.8274 851.2306,-481.5772"/>
<polygon fill="#191970" stroke="#191970" points="854.203,-483.4355 857.1139,-473.2484 848.4856,-479.3968 854.203,-483.4355"/>
</g>
<!-- Node23 -->
<g id="node24" class="node">
<title>Node23</title>
<g id="a_node24"><a xlink:href="LinearConstraint_8h.html" target="_top" xlink:title="iDynTree/LinearConstraint.h">
<polygon fill="none" stroke="#000000" points="513,-515.5 513,-534.5 665,-534.5 665,-515.5 513,-515.5"/>
<text text-anchor="middle" x="589" y="-522.5" font-family="FreeSans.ttf" font-size="10.00" fill="#000000">iDynTree/LinearConstraint.h</text>
</a>
</g>
</g>
<!-- Node0&#45;&gt;Node23 -->
<g id="edge38" class="edge">
<title>Node0&#45;&gt;Node23</title>
<path fill="none" stroke="#191970" d="M747.994,-571.3733C715.7909,-561.9807 666.6558,-547.6496 631.5361,-537.4064"/>
<polygon fill="#191970" stroke="#191970" points="632.1553,-533.9412 621.5753,-534.5011 630.1953,-540.6612 632.1553,-533.9412"/>
</g>
<!-- Node29 -->
<g id="node30" class="node">
<title>Node29</title>
<polygon fill="none" stroke="#bfbfbf" points="1593,-112.5 1593,-131.5 1649,-131.5 1649,-112.5 1593,-112.5"/>
<text text-anchor="middle" x="1621" y="-119.5" font-family="FreeSans.ttf" font-size="10.00" fill="#000000">sstream</text>
</g>
<!-- Node0&#45;&gt;Node29 -->
<g id="edge107" class="edge">
<title>Node0&#45;&gt;Node29</title>
<path fill="none" stroke="#191970" d="M842.3014,-579.4358C1047.4913,-573.5576 1700.6847,-549.4099 1760,-479 1852.0974,-369.6764 1763.013,-282.919 1678,-168 1669.1682,-156.0614 1656.5326,-145.4425 1645.4015,-137.4237"/>
<polygon fill="#191970" stroke="#191970" points="1647.1211,-134.3585 1636.8985,-131.5747 1643.1538,-140.1258 1647.1211,-134.3585"/>
</g>
<!-- Node36 -->
<g id="node37" class="node">
<title>Node36</title>
<g id="a_node37"><a xlink:href="TimeRange_8h.html" target="_top" xlink:title="iDynTree/TimeRange.h">
<polygon fill="none" stroke="#000000" points="1727.5,-515.5 1727.5,-534.5 1854.5,-534.5 1854.5,-515.5 1727.5,-515.5"/>
<text text-anchor="middle" x="1791" y="-522.5" font-family="FreeSans.ttf" font-size="10.00" fill="#000000">iDynTree/TimeRange.h</text>
</a>
</g>
</g>
<!-- Node0&#45;&gt;Node36 -->
<g id="edge78" class="edge">
<title>Node0&#45;&gt;Node36</title>
<path fill="none" stroke="#191970" d="M842.1791,-579.6353C991.3201,-575.9483 1385.4194,-564.038 1713,-535 1714.3004,-534.8847 1715.6125,-534.7641 1716.9336,-534.6387"/>
<polygon fill="#191970" stroke="#191970" points="1717.5999,-538.089 1727.1934,-533.593 1716.89,-531.1251 1717.5999,-538.089"/>
</g>
<!-- Node37 -->
<g id="node38" class="node">
<title>Node37</title>
<g id="a_node38"><a xlink:href="EigenHelpers_8h.html" target="_top" xlink:title="iDynTree/Core/EigenHelpers.h">
<polygon fill="none" stroke="#000000" points="1264.5,-515.5 1264.5,-534.5 1425.5,-534.5 1425.5,-515.5 1264.5,-515.5"/>
<text text-anchor="middle" x="1345" y="-522.5" font-family="FreeSans.ttf" font-size="10.00" fill="#000000">iDynTree/Core/EigenHelpers.h</text>
</a>
</g>
</g>
<!-- Node0&#45;&gt;Node37 -->
<g id="edge79" class="edge">
<title>Node0&#45;&gt;Node37</title>
<path fill="none" stroke="#191970" d="M842.1624,-574.9271C941.4011,-565.0736 1138.0329,-545.5499 1253.8201,-534.0533"/>
<polygon fill="#191970" stroke="#191970" points="1254.4728,-537.5058 1264.078,-533.0348 1253.7811,-530.5401 1254.4728,-537.5058"/>
</g>
<!-- Node38 -->
<g id="node39" class="node">
<title>Node38</title>
<polygon fill="none" stroke="#bfbfbf" points="1829.5,-454 1829.5,-473 1906.5,-473 1906.5,-454 1829.5,-454"/>
<text text-anchor="middle" x="1868" y="-461" font-family="FreeSans.ttf" font-size="10.00" fill="#000000">Eigen/Dense</text>
</g>
<!-- Node0&#45;&gt;Node38 -->
<g id="edge102" class="edge">
<title>Node0&#45;&gt;Node38</title>
<path fill="none" stroke="#191970" d="M842.3193,-580.6465C1066.0725,-579.0683 1827.4536,-571.0586 1864,-535 1877.2308,-521.9458 1876.3726,-499.7543 1873.3687,-483.5495"/>
<polygon fill="#191970" stroke="#191970" points="1876.7101,-482.4565 1871.093,-473.4732 1869.882,-483.9986 1876.7101,-482.4565"/>
</g>
<!-- Node42 -->
<g id="node43" class="node">
<title>Node42</title>
<polygon fill="none" stroke="#bfbfbf" points="1963.5,-515.5 1963.5,-534.5 2056.5,-534.5 2056.5,-515.5 1963.5,-515.5"/>
<text text-anchor="middle" x="2010" y="-522.5" font-family="FreeSans.ttf" font-size="10.00" fill="#000000">unordered_map</text>
</g>
<!-- Node0&#45;&gt;Node42 -->
<g id="edge104" class="edge">
<title>Node0&#45;&gt;Node42</title>
<path fill="none" stroke="#191970" d="M842.026,-579.5906C1050.1311,-574.6285 1731.0717,-557.0697 1949,-535 1950.4681,-534.8513 1951.9545,-534.6898 1953.4529,-534.5172"/>
<polygon fill="#191970" stroke="#191970" points="1953.9776,-537.9786 1963.4519,-533.2365 1953.0882,-531.0354 1953.9776,-537.9786"/>
</g>
<!-- Node2 -->
<g id="node3" class="node">
<title>Node2</title>
<g id="a_node3"><a xlink:href="Span_8h.html" target="_top" xlink:title="iDynTree/Core/Span.h">
<polygon fill="none" stroke="#000000" points="266.5,-56.5 266.5,-75.5 387.5,-75.5 387.5,-56.5 266.5,-56.5"/>
<text text-anchor="middle" x="327" y="-63.5" font-family="FreeSans.ttf" font-size="10.00" fill="#000000">iDynTree/Core/Span.h</text>
</a>
</g>
</g>
<!-- Node1&#45;&gt;Node2 -->
<g id="edge2" class="edge">
<title>Node1&#45;&gt;Node2</title>
<path fill="none" stroke="#191970" d="M544.4891,-392.4339C469.2151,-375.2876 327,-336.712 327,-290 327,-290 327,-290 327,-178 327,-145.7116 327,-108.1872 327,-85.8048"/>
<polygon fill="#191970" stroke="#191970" points="330.5001,-85.5883 327,-75.5884 323.5001,-85.5884 330.5001,-85.5883"/>
</g>
<!-- Node12 -->
<g id="node13" class="node">
<title>Node12</title>
<polygon fill="none" stroke="#bfbfbf" points="763,-112.5 763,-131.5 807,-131.5 807,-112.5 763,-112.5"/>
<text text-anchor="middle" x="785" y="-119.5" font-family="FreeSans.ttf" font-size="10.00" fill="#000000">string</text>
</g>
<!-- Node1&#45;&gt;Node12 -->
<g id="edge12" class="edge">
<title>Node1&#45;&gt;Node12</title>
<path fill="none" stroke="#191970" d="M574.0553,-392.1894C561.9381,-383.9477 545.7446,-371.1109 536,-356 519.457,-330.3469 517,-320.5246 517,-290 517,-290 517,-290 517,-234 517,-183.4131 681.611,-143.3257 752.8145,-128.3519"/>
<polygon fill="#191970" stroke="#191970" points="753.5271,-131.7787 762.6114,-126.3266 752.1099,-124.9236 753.5271,-131.7787"/>
</g>
<!-- Node2&#45;&gt;Node3 -->
<g id="edge3" class="edge">
<title>Node2&#45;&gt;Node3</title>
<path fill="none" stroke="#191970" d="M365.5504,-56.4645C402.2377,-47.328 458.963,-33.0402 508,-20 508.0979,-19.974 508.196,-19.9479 508.2943,-19.9217"/>
<polygon fill="#191970" stroke="#191970" points="508.9328,-23.3748 517.6722,-17.3854 507.1052,-16.6176 508.9328,-23.3748"/>
</g>
<!-- Node2&#45;&gt;Node4 -->
<g id="edge4" class="edge">
<title>Node2&#45;&gt;Node4</title>
<path fill="none" stroke="#191970" d="M273.9372,-56.4548C223.8764,-47.3699 146.7596,-33.1691 80,-20 78.0896,-19.6232 76.1374,-19.2338 74.1661,-18.8372"/>
<polygon fill="#191970" stroke="#191970" points="74.7528,-15.3849 64.2554,-16.8181 73.3553,-22.244 74.7528,-15.3849"/>
</g>
<!-- Node5 -->
<g id="node6" class="node">
<title>Node5</title>
<polygon fill="none" stroke="#bfbfbf" points="236,-.5 236,-19.5 278,-19.5 278,-.5 236,-.5"/>
<text text-anchor="middle" x="257" y="-7.5" font-family="FreeSans.ttf" font-size="10.00" fill="#000000">array</text>
</g>
<!-- Node2&#45;&gt;Node5 -->
<g id="edge5" class="edge">
<title>Node2&#45;&gt;Node5</title>
<path fill="none" stroke="#191970" d="M314.8069,-56.2455C304.3679,-47.8943 289.1345,-35.7076 276.926,-25.9408"/>
<polygon fill="#191970" stroke="#191970" points="279.0485,-23.1566 269.0533,-19.6427 274.6756,-28.6227 279.0485,-23.1566"/>
</g>
<!-- Node6 -->
<g id="node7" class="node">
<title>Node6</title>
<polygon fill="none" stroke="#bfbfbf" points="752.5,-.5 752.5,-19.5 805.5,-19.5 805.5,-.5 752.5,-.5"/>
<text text-anchor="middle" x="779" y="-7.5" font-family="FreeSans.ttf" font-size="10.00" fill="#000000">cstddef</text>
</g>
<!-- Node2&#45;&gt;Node6 -->
<g id="edge6" class="edge">
<title>Node2&#45;&gt;Node6</title>
<path fill="none" stroke="#191970" d="M387.9587,-58.4476C483.2388,-46.643 664.5725,-24.1769 742.2213,-14.5567"/>
<polygon fill="#191970" stroke="#191970" points="742.9763,-17.99 752.47,-13.2869 742.1155,-11.0431 742.9763,-17.99"/>
</g>
<!-- Node7 -->
<g id="node8" class="node">
<title>Node7</title>
<polygon fill="none" stroke="#bfbfbf" points="296.5,-.5 296.5,-19.5 349.5,-19.5 349.5,-.5 296.5,-.5"/>
<text text-anchor="middle" x="323" y="-7.5" font-family="FreeSans.ttf" font-size="10.00" fill="#000000">iterator</text>
</g>
<!-- Node2&#45;&gt;Node7 -->
<g id="edge7" class="edge">
<title>Node2&#45;&gt;Node7</title>
<path fill="none" stroke="#191970" d="M326.3033,-56.2455C325.7813,-48.9382 325.0496,-38.6944 324.4075,-29.7046"/>
<polygon fill="#191970" stroke="#191970" points="327.8924,-29.3679 323.6888,-19.6427 320.9102,-29.8667 327.8924,-29.3679"/>
</g>
<!-- Node8 -->
<g id="node9" class="node">
<title>Node8</title>
<polygon fill="none" stroke="#bfbfbf" points="368,-.5 368,-19.5 412,-19.5 412,-.5 368,-.5"/>
<text text-anchor="middle" x="390" y="-7.5" font-family="FreeSans.ttf" font-size="10.00" fill="#000000">limits</text>
</g>
<!-- Node2&#45;&gt;Node8 -->
<g id="edge8" class="edge">
<title>Node2&#45;&gt;Node8</title>
<path fill="none" stroke="#191970" d="M337.9738,-56.2455C347.1882,-48.0549 360.5532,-36.1749 371.4297,-26.5069"/>
<polygon fill="#191970" stroke="#191970" points="374.0032,-28.9023 379.152,-19.6427 369.3526,-23.6704 374.0032,-28.9023"/>
</g>
<!-- Node9 -->
<g id="node10" class="node">
<title>Node9</title>
<polygon fill="none" stroke="#bfbfbf" points="89.5,-.5 89.5,-19.5 154.5,-19.5 154.5,-.5 89.5,-.5"/>
<text text-anchor="middle" x="122" y="-7.5" font-family="FreeSans.ttf" font-size="10.00" fill="#000000">stdexcept</text>
</g>
<!-- Node2&#45;&gt;Node9 -->
<g id="edge9" class="edge">
<title>Node2&#45;&gt;Node9</title>
<path fill="none" stroke="#191970" d="M291.7592,-56.3733C256.4501,-46.7278 202.0759,-31.8744 164.4208,-21.5881"/>
<polygon fill="#191970" stroke="#191970" points="165.321,-18.2059 154.7521,-18.9469 163.4763,-24.9584 165.321,-18.2059"/>
</g>
<!-- Node10 -->
<g id="node11" class="node">
<title>Node10</title>
<polygon fill="none" stroke="#bfbfbf" points="430.5,-.5 430.5,-19.5 499.5,-19.5 499.5,-.5 430.5,-.5"/>
<text text-anchor="middle" x="465" y="-7.5" font-family="FreeSans.ttf" font-size="10.00" fill="#000000">type_traits</text>
</g>
<!-- Node2&#45;&gt;Node10 -->
<g id="edge10" class="edge">
<title>Node2&#45;&gt;Node10</title>
<path fill="none" stroke="#191970" d="M350.723,-56.3733C373.1737,-47.2629 407.0739,-33.5062 432.1255,-23.3404"/>
<polygon fill="#191970" stroke="#191970" points="433.6365,-26.5045 441.5865,-19.5011 431.0043,-20.0182 433.6365,-26.5045"/>
</g>
<!-- Node11 -->
<g id="node12" class="node">
<title>Node11</title>
<polygon fill="none" stroke="#bfbfbf" points="172.5,-.5 172.5,-19.5 217.5,-19.5 217.5,-.5 172.5,-.5"/>
<text text-anchor="middle" x="195" y="-7.5" font-family="FreeSans.ttf" font-size="10.00" fill="#000000">utility</text>
</g>
<!-- Node2&#45;&gt;Node11 -->
<g id="edge11" class="edge">
<title>Node2&#45;&gt;Node11</title>
<path fill="none" stroke="#191970" d="M304.3084,-56.3733C282.9289,-47.3032 250.6943,-33.6279 226.7638,-23.4755"/>
<polygon fill="#191970" stroke="#191970" points="227.9683,-20.1846 217.3955,-19.5011 225.2344,-26.6287 227.9683,-20.1846"/>
</g>
<!-- Node13&#45;&gt;Node12 -->
<g id="edge14" class="edge">
<title>Node13&#45;&gt;Node12</title>
<path fill="none" stroke="#191970" d="M380.0545,-392.2989C400.7885,-374.4329 441,-334.0991 441,-290 441,-290 441,-290 441,-234 441,-202.7875 440.7771,-187.6844 465,-168 487.1526,-149.998 676.1703,-131.5589 752.8639,-124.7451"/>
<polygon fill="#191970" stroke="#191970" points="753.256,-128.2243 762.9112,-123.8621 752.6431,-121.2511 753.256,-128.2243"/>
</g>
<!-- Node14 -->
<g id="node15" class="node">
<title>Node14</title>
<g id="a_node15"><a xlink:href="MatrixView_8h.html" target="_top" xlink:title="iDynTree/Core/MatrixView.h">
<polygon fill="none" stroke="#000000" points="444.5,-112.5 444.5,-131.5 595.5,-131.5 595.5,-112.5 444.5,-112.5"/>
<text text-anchor="middle" x="520" y="-119.5" font-family="FreeSans.ttf" font-size="10.00" fill="#000000">iDynTree/Core/MatrixView.h</text>
</a>
</g>
</g>
<!-- Node13&#45;&gt;Node14 -->
<g id="edge15" class="edge">
<title>Node13&#45;&gt;Node14</title>
<path fill="none" stroke="#191970" d="M352.5403,-392.4008C340.3069,-384.102 323.577,-371.0844 313,-356 295.0804,-330.4439 289,-321.2125 289,-290 289,-290 289,-290 289,-234 289,-193.7538 316.5053,-188.7332 351,-168 378.6301,-151.3928 412.3588,-140.6516 442.3966,-133.7659"/>
<polygon fill="#191970" stroke="#191970" points="443.4044,-137.1284 452.4276,-131.5757 441.9111,-130.2895 443.4044,-137.1284"/>
</g>
<!-- Node14&#45;&gt;Node2 -->
<g id="edge18" class="edge">
<title>Node14&#45;&gt;Node2</title>
<path fill="none" stroke="#191970" d="M486.8221,-112.3733C454.4513,-102.9807 405.0602,-88.6496 369.7576,-78.4064"/>
<polygon fill="#191970" stroke="#191970" points="370.3242,-74.9264 359.7449,-75.5011 368.3735,-81.6492 370.3242,-74.9264"/>
</g>
<!-- Node14&#45;&gt;Node3 -->
<g id="edge16" class="edge">
<title>Node14&#45;&gt;Node3</title>
<path fill="none" stroke="#191970" d="M522.0462,-112.4509C525.9783,-94.1013 534.6591,-53.5908 539.8494,-29.3693"/>
<polygon fill="#191970" stroke="#191970" points="543.2859,-30.0363 541.959,-19.5249 536.4413,-28.5695 543.2859,-30.0363"/>
</g>
<!-- Node14&#45;&gt;Node10 -->
<g id="edge17" class="edge">
<title>Node14&#45;&gt;Node10</title>
<path fill="none" stroke="#191970" d="M515.3107,-112.4509C506.2186,-93.936 486.0469,-52.8591 474.1922,-28.7187"/>
<polygon fill="#191970" stroke="#191970" points="477.227,-26.9582 469.6774,-19.5249 470.9437,-30.0438 477.227,-26.9582"/>
</g>
<!-- Node14&#45;&gt;Node15 -->
<g id="edge19" class="edge">
<title>Node14&#45;&gt;Node15</title>
<path fill="none" stroke="#191970" d="M595.6322,-117.6291C778.5068,-107.0605 1242.5584,-80.2422 1419.2415,-70.0314"/>
<polygon fill="#191970" stroke="#191970" points="1419.6723,-73.5125 1429.4537,-69.4413 1419.2684,-66.5241 1419.6723,-73.5125"/>
</g>
<!-- Node15&#45;&gt;Node6 -->
<g id="edge20" class="edge">
<title>Node15&#45;&gt;Node6</title>
<path fill="none" stroke="#191970" d="M1429.2637,-57.6035C1424.4421,-57.0246 1419.6422,-56.4811 1415,-56 1187.8676,-32.4623 913.8567,-16.9913 815.9659,-11.8687"/>
<polygon fill="#191970" stroke="#191970" points="815.8792,-8.3595 805.7112,-11.3363 815.5162,-15.3501 815.8792,-8.3595"/>
</g>
<!-- Node16 -->
<g id="node17" class="node">
<title>Node16</title>
<polygon fill="none" stroke="#bfbfbf" points="1449,-.5 1449,-19.5 1529,-19.5 1529,-.5 1449,-.5"/>
<text text-anchor="middle" x="1489" y="-7.5" font-family="FreeSans.ttf" font-size="10.00" fill="#000000">CoreExport.h</text>
</g>
<!-- Node15&#45;&gt;Node16 -->
<g id="edge21" class="edge">
<title>Node15&#45;&gt;Node16</title>
<path fill="none" stroke="#191970" d="M1489,-56.2455C1489,-48.9382 1489,-38.6944 1489,-29.7046"/>
<polygon fill="#191970" stroke="#191970" points="1492.5001,-29.6426 1489,-19.6427 1485.5001,-29.6427 1492.5001,-29.6426"/>
</g>
<!-- Node17&#45;&gt;Node12 -->
<g id="edge25" class="edge">
<title>Node17&#45;&gt;Node12</title>
<path fill="none" stroke="#191970" d="M213.8418,-453.993C204.2791,-440.0503 189.5729,-413.3925 199,-392 258.4965,-256.9879 310.348,-230.4919 444,-168 498.5435,-142.497 678.6308,-128.6352 752.7234,-123.8946"/>
<polygon fill="#191970" stroke="#191970" points="753.0963,-127.3783 762.8584,-123.2611 752.6595,-120.3919 753.0963,-127.3783"/>
</g>
<!-- Node18 -->
<g id="node19" class="node">
<title>Node18</title>
<polygon fill="none" stroke="#bfbfbf" points="208,-392.5 208,-411.5 266,-411.5 266,-392.5 208,-392.5"/>
<text text-anchor="middle" x="237" y="-399.5" font-family="FreeSans.ttf" font-size="10.00" fill="#000000">memory</text>
</g>
<!-- Node17&#45;&gt;Node18 -->
<g id="edge24" class="edge">
<title>Node17&#45;&gt;Node18</title>
<path fill="none" stroke="#191970" d="M223.5,-453.8906C225.7412,-445.276 229.0986,-432.3708 231.9045,-421.5858"/>
<polygon fill="#191970" stroke="#191970" points="235.3341,-422.304 234.4648,-411.7449 228.5596,-420.5414 235.3341,-422.304"/>
</g>
<!-- Node17&#45;&gt;Node19 -->
<g id="edge26" class="edge">
<title>Node17&#45;&gt;Node19</title>
<path fill="none" stroke="#191970" d="M207.5262,-453.8602C195.2073,-444.4286 177.2432,-429.03 166,-412 156.5651,-397.7089 150.2587,-379.2326 146.488,-365.4652"/>
<polygon fill="#191970" stroke="#191970" points="149.8394,-364.4413 143.9963,-355.6034 143.0527,-366.1562 149.8394,-364.4413"/>
</g>
<!-- Node20 -->
<g id="node21" class="node">
<title>Node20</title>
<g id="a_node21"><a xlink:href="SparsityStructure_8h.html" target="_top" xlink:title="iDynTree/SparsityStructure.h">
<polygon fill="none" stroke="#000000" points="691.5,-392.5 691.5,-411.5 846.5,-411.5 846.5,-392.5 691.5,-392.5"/>
<text text-anchor="middle" x="769" y="-399.5" font-family="FreeSans.ttf" font-size="10.00" fill="#000000">iDynTree/SparsityStructure.h</text>
</a>
</g>
</g>
<!-- Node17&#45;&gt;Node20 -->
<g id="edge27" class="edge">
<title>Node17&#45;&gt;Node20</title>
<path fill="none" stroke="#191970" d="M299.3144,-454.8281C388.8905,-444.8918 540.2642,-428.0476 681.0928,-412.1"/>
<polygon fill="#191970" stroke="#191970" points="681.6708,-415.557 691.2132,-410.9534 680.8828,-408.6015 681.6708,-415.557"/>
</g>
<!-- Node20&#45;&gt;Node6 -->
<g id="edge30" class="edge">
<title>Node20&#45;&gt;Node6</title>
<path fill="none" stroke="#191970" d="M748.7082,-392.4897C733.7406,-384.5732 713.8286,-372.0211 701,-356 663.515,-309.1864 671.2175,-283.9455 673,-224 675.2232,-149.2342 641.279,-118.0824 683,-56 696.5265,-35.872 721.4086,-24.2925 742.4513,-17.7863"/>
<polygon fill="#191970" stroke="#191970" points="743.4264,-21.1479 752.0997,-15.0631 741.5249,-14.4111 743.4264,-21.1479"/>
</g>
<!-- Node20&#45;&gt;Node12 -->
<g id="edge32" class="edge">
<title>Node20&#45;&gt;Node12</title>
<path fill="none" stroke="#191970" d="M760.6372,-392.1612C741.294,-368.5612 694.2561,-306.0737 683,-244 681.414,-235.2537 680.3893,-232.4969 683,-224 694.9748,-185.0264 732.9716,-154.3709 759.0496,-137.2161"/>
<polygon fill="#191970" stroke="#191970" points="761.1448,-140.0319 767.7144,-131.7198 757.3952,-134.1208 761.1448,-140.0319"/>
</g>
<!-- Node20&#45;&gt;Node15 -->
<g id="edge28" class="edge">
<title>Node20&#45;&gt;Node15</title>
<path fill="none" stroke="#191970" d="M755.5788,-392.1932C744.4764,-383.5816 728.828,-370.2354 718,-356 686.0001,-313.93 683.5685,-296.563 678,-244 670.8682,-176.681 692.4234,-140.1253 754,-112 813.4774,-84.8335 1247.2457,-71.7106 1419.1288,-67.5344"/>
<polygon fill="#191970" stroke="#191970" points="1419.4164,-71.0286 1429.3295,-67.2896 1419.2484,-64.0306 1419.4164,-71.0286"/>
</g>
<!-- Node20&#45;&gt;Node19 -->
<g id="edge29" class="edge">
<title>Node20&#45;&gt;Node19</title>
<path fill="none" stroke="#191970" d="M691.224,-392.9453C688.1095,-392.6191 685.0256,-392.3027 682,-392 490.7639,-372.8684 260.912,-354.9812 175.8187,-348.5327"/>
<polygon fill="#191970" stroke="#191970" points="175.9445,-345.0323 165.7092,-347.7689 175.417,-352.0125 175.9445,-345.0323"/>
</g>
<!-- Node21 -->
<g id="node22" class="node">
<title>Node21</title>
<polygon fill="none" stroke="#bfbfbf" points="545,-336.5 545,-355.5 631,-355.5 631,-336.5 545,-336.5"/>
<text text-anchor="middle" x="588" y="-343.5" font-family="FreeSans.ttf" font-size="10.00" fill="#000000">unordered_set</text>
</g>
<!-- Node20&#45;&gt;Node21 -->
<g id="edge31" class="edge">
<title>Node20&#45;&gt;Node21</title>
<path fill="none" stroke="#191970" d="M737.885,-392.3733C707.6571,-383.021 661.604,-368.7725 628.5261,-358.5385"/>
<polygon fill="#191970" stroke="#191970" points="629.2967,-355.1133 618.709,-355.5011 627.2277,-361.8005 629.2967,-355.1133"/>
</g>
<!-- Node22&#45;&gt;Node1 -->
<g id="edge36" class="edge">
<title>Node22&#45;&gt;Node1</title>
<path fill="none" stroke="#191970" d="M821.4881,-453.9581C773.2932,-443.1406 694.681,-425.4959 642.6471,-413.8168"/>
<polygon fill="#191970" stroke="#191970" points="643.1354,-410.3394 632.6116,-411.5643 641.6023,-417.1694 643.1354,-410.3394"/>
</g>
<!-- Node22&#45;&gt;Node6 -->
<g id="edge34" class="edge">
<title>Node22&#45;&gt;Node6</title>
<path fill="none" stroke="#191970" d="M868.5133,-453.8012C874.4288,-439.6196 883.0487,-412.6671 874,-392 864.539,-370.3913 848.049,-375.6511 835,-356 776.4378,-267.8083 772.2743,-236.2754 754,-132 747.5954,-95.4547 761.0109,-53.0841 770.5523,-29.1195"/>
<polygon fill="#191970" stroke="#191970" points="773.8335,-30.3448 774.4568,-19.7683 767.3739,-27.6476 773.8335,-30.3448"/>
</g>
<!-- Node22&#45;&gt;Node12 -->
<g id="edge35" class="edge">
<title>Node22&#45;&gt;Node12</title>
<path fill="none" stroke="#191970" d="M865.2601,-453.8356C866.6555,-439.2194 867.2925,-411.1671 855,-392 838.6211,-366.4613 812.4232,-382.127 797,-356 755.9976,-286.5417 771.312,-184.3013 780.302,-141.7291"/>
<polygon fill="#191970" stroke="#191970" points="783.7531,-142.3339 782.5159,-131.8115 776.9212,-140.8087 783.7531,-142.3339"/>
</g>
<!-- Node22&#45;&gt;Node20 -->
<g id="edge37" class="edge">
<title>Node22&#45;&gt;Node20</title>
<path fill="none" stroke="#191970" d="M849.1563,-453.8906C833.9582,-444.0519 810.1152,-428.6167 792.3794,-417.1351"/>
<polygon fill="#191970" stroke="#191970" points="794.0361,-414.0382 783.7395,-411.5419 790.232,-419.9144 794.0361,-414.0382"/>
</g>
<!-- Node23&#45;&gt;Node12 -->
<g id="edge76" class="edge">
<title>Node23&#45;&gt;Node12</title>
<path fill="none" stroke="#191970" d="M554.5342,-515.4606C535.2185,-508.407 512.2228,-496.8661 498,-479 476.0464,-451.4227 479,-437.2487 479,-402 479,-402 479,-402 479,-234 479,-188.2481 516.7623,-187.8164 558,-168 622.5902,-136.9618 707.2602,-126.8454 752.7516,-123.5632"/>
<polygon fill="#191970" stroke="#191970" points="753.1567,-127.0443 762.9067,-122.8983 752.6994,-120.0592 753.1567,-127.0443"/>
</g>
<!-- Node23&#45;&gt;Node13 -->
<g id="edge40" class="edge">
<title>Node23&#45;&gt;Node13</title>
<path fill="none" stroke="#191970" d="M519.8086,-515.4446C489.4003,-508.8048 454.4471,-497.65 427,-479 404.904,-463.986 387.5382,-438.0148 377.5242,-420.4297"/>
<polygon fill="#191970" stroke="#191970" points="380.5945,-418.7494 372.7338,-411.6458 374.449,-422.1009 380.5945,-418.7494"/>
</g>
<!-- Node23&#45;&gt;Node18 -->
<g id="edge77" class="edge">
<title>Node23&#45;&gt;Node18</title>
<path fill="none" stroke="#191970" d="M533.5364,-515.4868C493.7462,-507.8218 439.2225,-495.5857 393,-479 345.0309,-461.7875 292.5225,-433.8125 262.2994,-416.7409"/>
<polygon fill="#191970" stroke="#191970" points="263.7241,-413.5242 253.3038,-411.6088 260.2552,-419.6043 263.7241,-413.5242"/>
</g>
<!-- Node23&#45;&gt;Node20 -->
<g id="edge75" class="edge">
<title>Node23&#45;&gt;Node20</title>
<path fill="none" stroke="#191970" d="M611.5412,-515.4771C630.4933,-507.0386 657.9449,-493.7874 680,-479 706.8342,-461.0084 734.4743,-435.8654 751.6869,-419.2698"/>
<polygon fill="#191970" stroke="#191970" points="754.5445,-421.3709 759.2498,-411.8782 749.6518,-416.3648 754.5445,-421.3709"/>
</g>
<!-- Node23&#45;&gt;Node22 -->
<g id="edge39" class="edge">
<title>Node23&#45;&gt;Node22</title>
<path fill="none" stroke="#191970" d="M631.667,-515.4581C680.0378,-504.6406 758.9369,-486.9959 811.1607,-475.3168"/>
<polygon fill="#191970" stroke="#191970" points="812.2378,-478.6624 821.2329,-473.0643 810.7101,-471.8312 812.2378,-478.6624"/>
</g>
<!-- Node24 -->
<g id="node25" class="node">
<title>Node24</title>
<g id="a_node25"><a xlink:href="TimeVaryingObject_8h.html" target="_top" xlink:title="iDynTree/TimeVaryingObject.h">
<polygon fill="none" stroke="#000000" points="507,-454 507,-473 671,-473 671,-454 507,-454"/>
<text text-anchor="middle" x="589" y="-461" font-family="FreeSans.ttf" font-size="10.00" fill="#000000">iDynTree/TimeVaryingObject.h</text>
</a>
</g>
</g>
<!-- Node23&#45;&gt;Node24 -->
<g id="edge41" class="edge">
<title>Node23&#45;&gt;Node24</title>
<path fill="none" stroke="#191970" d="M589,-515.3906C589,-506.8657 589,-494.1392 589,-483.4235"/>
<polygon fill="#191970" stroke="#191970" points="592.5001,-483.2448 589,-473.2449 585.5001,-483.2449 592.5001,-483.2448"/>
</g>
<!-- Node24&#45;&gt;Node1 -->
<g id="edge42" class="edge">
<title>Node24&#45;&gt;Node1</title>
<path fill="none" stroke="#191970" d="M589.1563,-453.8906C589.2949,-445.3657 589.5018,-432.6392 589.676,-421.9235"/>
<polygon fill="#191970" stroke="#191970" points="593.1784,-421.8005 589.8415,-411.7449 586.1793,-421.6866 593.1784,-421.8005"/>
</g>
<!-- Node24&#45;&gt;Node13 -->
<g id="edge43" class="edge">
<title>Node24&#45;&gt;Node13</title>
<path fill="none" stroke="#191970" d="M554.4688,-453.8906C516.0318,-443.1944 453.8256,-425.8836 411.9464,-414.2294"/>
<polygon fill="#191970" stroke="#191970" points="412.8611,-410.851 402.2888,-411.5419 410.9843,-417.5948 412.8611,-410.851"/>
</g>
<!-- Node25 -->
<g id="node26" class="node">
<title>Node25</title>
<g id="a_node26"><a xlink:href="Transform_8h.html" target="_top" xlink:title="iDynTree/Core/Transform.h">
<polygon fill="none" stroke="#000000" points="979,-392.5 979,-411.5 1125,-411.5 1125,-392.5 979,-392.5"/>
<text text-anchor="middle" x="1052" y="-399.5" font-family="FreeSans.ttf" font-size="10.00" fill="#000000">iDynTree/Core/Transform.h</text>
</a>
</g>
</g>
<!-- Node24&#45;&gt;Node25 -->
<g id="edge44" class="edge">
<title>Node24&#45;&gt;Node25</title>
<path fill="none" stroke="#191970" d="M660.5822,-453.9918C744.2935,-442.8725 882.5605,-424.5065 970.3711,-412.8427"/>
<polygon fill="#191970" stroke="#191970" points="970.8407,-416.3112 980.2928,-411.5248 969.919,-409.3721 970.8407,-416.3112"/>
</g>
<!-- Node25&#45;&gt;Node12 -->
<g id="edge74" class="edge">
<title>Node25&#45;&gt;Node12</title>
<path fill="none" stroke="#191970" d="M1019.8517,-392.4693C997.3097,-384.8295 967.1833,-372.6313 944,-356 863.456,-298.219 811.087,-186.1086 792.5279,-141.2428"/>
<polygon fill="#191970" stroke="#191970" points="795.7092,-139.7732 788.7191,-131.8114 789.2185,-142.3945 795.7092,-139.7732"/>
</g>
<!-- Node26 -->
<g id="node27" class="node">
<title>Node26</title>
<g id="a_node27"><a xlink:href="Position_8h.html" target="_top" xlink:title="iDynTree/Core/Position.h">
<polygon fill="none" stroke="#000000" points="984,-336.5 984,-355.5 1120,-355.5 1120,-336.5 984,-336.5"/>
<text text-anchor="middle" x="1052" y="-343.5" font-family="FreeSans.ttf" font-size="10.00" fill="#000000">iDynTree/Core/Position.h</text>
</a>
</g>
</g>
<!-- Node25&#45;&gt;Node26 -->
<g id="edge45" class="edge">
<title>Node25&#45;&gt;Node26</title>
<path fill="none" stroke="#191970" d="M1052,-392.2455C1052,-384.9382 1052,-374.6944 1052,-365.7046"/>
<polygon fill="#191970" stroke="#191970" points="1055.5001,-365.6426 1052,-355.6427 1048.5001,-365.6427 1055.5001,-365.6426"/>
</g>
<!-- Node31 -->
<g id="node32" class="node">
<title>Node31</title>
<g id="a_node32"><a xlink:href="Rotation_8h.html" target="_top" xlink:title="iDynTree/Core/Rotation.h">
<polygon fill="none" stroke="#000000" points="1137.5,-280.5 1137.5,-299.5 1274.5,-299.5 1274.5,-280.5 1137.5,-280.5"/>
<text text-anchor="middle" x="1206" y="-287.5" font-family="FreeSans.ttf" font-size="10.00" fill="#000000">iDynTree/Core/Rotation.h</text>
</a>
</g>
</g>
<!-- Node25&#45;&gt;Node31 -->
<g id="edge72" class="edge">
<title>Node25&#45;&gt;Node31</title>
<path fill="none" stroke="#191970" d="M1069.9713,-392.4089C1085.9326,-383.6259 1109.6589,-369.9122 1129,-356 1150.4666,-340.5589 1173.2476,-320.5195 1188.4123,-306.5917"/>
<polygon fill="#191970" stroke="#191970" points="1191.0492,-308.9194 1195.9969,-299.5508 1186.2867,-303.7892 1191.0492,-308.9194"/>
</g>
<!-- Node34 -->
<g id="node35" class="node">
<title>Node34</title>
<g id="a_node35"><a xlink:href="MatrixFixSize_8h.html" target="_top" xlink:title="iDynTree/Core/MatrixFixSize.h">
<polygon fill="none" stroke="#000000" points="1125.5,-168.5 1125.5,-187.5 1286.5,-187.5 1286.5,-168.5 1125.5,-168.5"/>
<text text-anchor="middle" x="1206" y="-175.5" font-family="FreeSans.ttf" font-size="10.00" fill="#000000">iDynTree/Core/MatrixFixSize.h</text>
</a>
</g>
</g>
<!-- Node25&#45;&gt;Node34 -->
<g id="edge73" class="edge">
<title>Node25&#45;&gt;Node34</title>
<path fill="none" stroke="#191970" d="M1033.1801,-392.4207C982.7049,-365.5391 851.7229,-287.2339 906,-224 919.645,-208.1033 1032.115,-194.205 1115.3577,-185.9571"/>
<polygon fill="#191970" stroke="#191970" points="1115.7439,-189.4361 1125.3558,-184.9795 1115.0626,-182.4693 1115.7439,-189.4361"/>
</g>
<!-- Node26&#45;&gt;Node12 -->
<g id="edge71" class="edge">
<title>Node26&#45;&gt;Node12</title>
<path fill="none" stroke="#191970" d="M1036.4205,-336.4302C1008.9814,-319.2943 950.7097,-281.6325 906,-244 865.1953,-209.6544 822.3678,-163.7763 800.2456,-139.2263"/>
<polygon fill="#191970" stroke="#191970" points="802.8465,-136.8841 793.5699,-131.7658 797.6299,-141.5519 802.8465,-136.8841"/>
</g>
<!-- Node27 -->
<g id="node28" class="node">
<title>Node27</title>
<g id="a_node28"><a xlink:href="PositionRaw_8h.html" target="_top" xlink:title="iDynTree/Core/PositionRaw.h">
<polygon fill="none" stroke="#000000" points="915,-224.5 915,-243.5 1071,-243.5 1071,-224.5 915,-224.5"/>
<text text-anchor="middle" x="993" y="-231.5" font-family="FreeSans.ttf" font-size="10.00" fill="#000000">iDynTree/Core/PositionRaw.h</text>
</a>
</g>
</g>
<!-- Node26&#45;&gt;Node27 -->
<g id="edge46" class="edge">
<title>Node26&#45;&gt;Node27</title>
<path fill="none" stroke="#191970" d="M1046.9697,-336.4509C1037.1727,-317.8533 1015.3841,-276.4919 1002.691,-252.3964"/>
<polygon fill="#191970" stroke="#191970" points="1005.775,-250.7411 998.0176,-243.5249 999.5817,-254.0036 1005.775,-250.7411"/>
</g>
<!-- Node26&#45;&gt;Node31 -->
<g id="edge56" class="edge">
<title>Node26&#45;&gt;Node31</title>
<path fill="none" stroke="#191970" d="M1078.4735,-336.3733C1103.8597,-327.1419 1142.3645,-313.1402 1170.422,-302.9375"/>
<polygon fill="#191970" stroke="#191970" points="1171.6701,-306.2079 1179.8719,-299.5011 1169.2778,-299.6293 1171.6701,-306.2079"/>
</g>
<!-- Node27&#45;&gt;Node12 -->
<g id="edge55" class="edge">
<title>Node27&#45;&gt;Node12</title>
<path fill="none" stroke="#191970" d="M975.266,-224.4509C938.7321,-204.7788 854.896,-159.6363 811.7437,-136.4005"/>
<polygon fill="#191970" stroke="#191970" points="813.1532,-133.1843 802.6891,-131.5249 809.8344,-139.3476 813.1532,-133.1843"/>
</g>
<!-- Node28 -->
<g id="node29" class="node">
<title>Node28</title>
<g id="a_node29"><a xlink:href="VectorFixSize_8h.html" target="_top" xlink:title="iDynTree/Core/VectorFixSize.h">
<polygon fill="none" stroke="#000000" points="1308.5,-168.5 1308.5,-187.5 1469.5,-187.5 1469.5,-168.5 1308.5,-168.5"/>
<text text-anchor="middle" x="1389" y="-175.5" font-family="FreeSans.ttf" font-size="10.00" fill="#000000">iDynTree/Core/VectorFixSize.h</text>
</a>
</g>
</g>
<!-- Node27&#45;&gt;Node28 -->
<g id="edge47" class="edge">
<title>Node27&#45;&gt;Node28</title>
<path fill="none" stroke="#191970" d="M1060.6249,-224.4369C1130.2481,-214.5912 1238.5875,-199.2705 1311.5946,-188.9462"/>
<polygon fill="#191970" stroke="#191970" points="1312.2427,-192.3895 1321.654,-187.5237 1311.2625,-185.4584 1312.2427,-192.3895"/>
</g>
<!-- Node28&#45;&gt;Node2 -->
<g id="edge49" class="edge">
<title>Node28&#45;&gt;Node2</title>
<path fill="none" stroke="#191970" d="M1363.0274,-168.4186C1338.9899,-159.4229 1302.3436,-145.3825 1271,-132 1251.6157,-123.7237 1248.457,-117.0752 1228,-112 1148.3867,-92.2486 595.7562,-74.0203 397.5499,-68.0481"/>
<polygon fill="#191970" stroke="#191970" points="397.6376,-64.5492 387.5371,-67.7477 397.4276,-71.5461 397.6376,-64.5492"/>
</g>
<!-- Node28&#45;&gt;Node3 -->
<g id="edge52" class="edge">
<title>Node28&#45;&gt;Node3</title>
<path fill="none" stroke="#191970" d="M1371.4279,-168.3691C1339.516,-150.9427 1274.282,-115.6353 1263,-112 1132.8582,-70.0653 707.0963,-25.9678 580.0827,-13.4764"/>
<polygon fill="#191970" stroke="#191970" points="580.3857,-9.9894 570.0923,-12.4985 579.7037,-16.9561 580.3857,-9.9894"/>
</g>
<!-- Node28&#45;&gt;Node6 -->
<g id="edge53" class="edge">
<title>Node28&#45;&gt;Node6</title>
<path fill="none" stroke="#191970" d="M1390.3905,-168.2475C1391.8257,-154.6189 1392.5707,-129.5764 1382,-112 1359.0653,-73.8654 1340.9394,-70.8774 1299,-56 1209.6983,-24.3215 919.3573,-13.7036 815.9721,-10.8763"/>
<polygon fill="#191970" stroke="#191970" points="815.8046,-7.3708 805.7155,-10.6049 815.6194,-14.3683 815.8046,-7.3708"/>
</g>
<!-- Node28&#45;&gt;Node12 -->
<g id="edge50" class="edge">
<title>Node28&#45;&gt;Node12</title>
<path fill="none" stroke="#191970" d="M1308.3561,-169.2422C1304.178,-168.8155 1300.0401,-168.399 1296,-168 1115.0918,-150.1325 897.8623,-131.5181 817.1997,-124.7034"/>
<polygon fill="#191970" stroke="#191970" points="817.4352,-121.2109 807.1764,-123.858 816.8469,-128.1862 817.4352,-121.2109"/>
</g>
<!-- Node28&#45;&gt;Node15 -->
<g id="edge48" class="edge">
<title>Node28&#45;&gt;Node15</title>
<path fill="none" stroke="#191970" d="M1397.5259,-168.4509C1414.4262,-149.5227 1452.3803,-107.014 1473.7072,-83.1279"/>
<polygon fill="#191970" stroke="#191970" points="1476.4462,-85.3154 1480.4956,-75.5249 1471.2247,-80.6532 1476.4462,-85.3154"/>
</g>
<!-- Node28&#45;&gt;Node29 -->
<g id="edge51" class="edge">
<title>Node28&#45;&gt;Node29</title>
<path fill="none" stroke="#191970" d="M1428.6186,-168.4369C1471.7797,-158.0187 1540.3374,-141.4703 1582.8939,-131.198"/>
<polygon fill="#191970" stroke="#191970" points="1583.9619,-134.5408 1592.8615,-128.7921 1582.3194,-127.7362 1583.9619,-134.5408"/>
</g>
<!-- Node30 -->
<g id="node31" class="node">
<title>Node30</title>
<polygon fill="none" stroke="#bfbfbf" points="1169,-112.5 1169,-131.5 1219,-131.5 1219,-112.5 1169,-112.5"/>
<text text-anchor="middle" x="1194" y="-119.5" font-family="FreeSans.ttf" font-size="10.00" fill="#000000">cstring</text>
</g>
<!-- Node28&#45;&gt;Node30 -->
<g id="edge54" class="edge">
<title>Node28&#45;&gt;Node30</title>
<path fill="none" stroke="#191970" d="M1355.4783,-168.3733C1320.1952,-158.2407 1264.8989,-142.3607 1229.0504,-132.0658"/>
<polygon fill="#191970" stroke="#191970" points="1229.6184,-128.5875 1219.0408,-129.1912 1227.6862,-135.3155 1229.6184,-128.5875"/>
</g>
<!-- Node31&#45;&gt;Node12 -->
<g id="edge57" class="edge">
<title>Node31&#45;&gt;Node12</title>
<path fill="none" stroke="#191970" d="M1187.4508,-280.3231C1169.6361,-271.0248 1141.9684,-256.5719 1118,-244 1101.0986,-235.1349 1097.5135,-231.5846 1080,-224 986.8005,-183.638 871.9493,-147.7042 817.1033,-131.3483"/>
<polygon fill="#191970" stroke="#191970" points="817.8509,-127.9194 807.2685,-128.4339 815.862,-134.631 817.8509,-127.9194"/>
</g>
<!-- Node31&#45;&gt;Node28 -->
<g id="edge70" class="edge">
<title>Node31&#45;&gt;Node28</title>
<path fill="none" stroke="#191970" d="M1225.9623,-280.46C1244.0577,-271.6034 1271.2899,-257.75 1294,-244 1320.25,-228.1067 1349.0089,-207.6727 1367.9298,-193.7807"/>
<polygon fill="#191970" stroke="#191970" points="1370.1707,-196.4767 1376.1301,-187.7168 1366.0086,-190.8484 1370.1707,-196.4767"/>
</g>
<!-- Node32 -->
<g id="node33" class="node">
<title>Node32</title>
<g id="a_node33"><a xlink:href="GeomVector3_8h.html" target="_top" xlink:title="iDynTree/Core/GeomVector3.h">
<polygon fill="none" stroke="#000000" points="1417.5,-224.5 1417.5,-243.5 1580.5,-243.5 1580.5,-224.5 1417.5,-224.5"/>
<text text-anchor="middle" x="1499" y="-231.5" font-family="FreeSans.ttf" font-size="10.00" fill="#000000">iDynTree/Core/GeomVector3.h</text>
</a>
</g>
</g>
<!-- Node31&#45;&gt;Node32 -->
<g id="edge58" class="edge">
<title>Node31&#45;&gt;Node32</title>
<path fill="none" stroke="#191970" d="M1256.0356,-280.4369C1306.707,-270.7522 1385.0948,-255.7703 1439.0559,-245.4569"/>
<polygon fill="#191970" stroke="#191970" points="1440.0057,-248.8388 1449.1708,-243.5237 1438.6915,-241.9633 1440.0057,-248.8388"/>
</g>
<!-- Node33 -->
<g id="node34" class="node">
<title>Node33</title>
<g id="a_node34"><a xlink:href="RotationRaw_8h.html" target="_top" xlink:title="iDynTree/Core/RotationRaw.h">
<polygon fill="none" stroke="#000000" points="1127,-224.5 1127,-243.5 1285,-243.5 1285,-224.5 1127,-224.5"/>
<text text-anchor="middle" x="1206" y="-231.5" font-family="FreeSans.ttf" font-size="10.00" fill="#000000">iDynTree/Core/RotationRaw.h</text>
</a>
</g>
</g>
<!-- Node31&#45;&gt;Node33 -->
<g id="edge60" class="edge">
<title>Node31&#45;&gt;Node33</title>
<path fill="none" stroke="#191970" d="M1206,-280.2455C1206,-272.9382 1206,-262.6944 1206,-253.7046"/>
<polygon fill="#191970" stroke="#191970" points="1209.5001,-253.6426 1206,-243.6427 1202.5001,-253.6427 1209.5001,-253.6426"/>
</g>
<!-- Node32&#45;&gt;Node28 -->
<g id="edge59" class="edge">
<title>Node32&#45;&gt;Node28</title>
<path fill="none" stroke="#191970" d="M1479.8395,-224.2455C1462.4889,-215.4125 1436.7099,-202.2887 1417.0417,-192.2758"/>
<polygon fill="#191970" stroke="#191970" points="1418.4405,-189.0605 1407.941,-187.6427 1415.2647,-195.2986 1418.4405,-189.0605"/>
</g>
<!-- Node33&#45;&gt;Node12 -->
<g id="edge69" class="edge">
<title>Node33&#45;&gt;Node12</title>
<path fill="none" stroke="#191970" d="M1187.4284,-224.3941C1153.705,-207.0094 1084.785,-171.7687 1073,-168 1025.7165,-152.8793 881.9019,-133.9346 817.1732,-125.895"/>
<polygon fill="#191970" stroke="#191970" points="817.4817,-122.4066 807.1285,-124.6563 816.6248,-129.354 817.4817,-122.4066"/>
</g>
<!-- Node33&#45;&gt;Node34 -->
<g id="edge61" class="edge">
<title>Node33&#45;&gt;Node34</title>
<path fill="none" stroke="#191970" d="M1206,-224.2455C1206,-216.9382 1206,-206.6944 1206,-197.7046"/>
<polygon fill="#191970" stroke="#191970" points="1209.5001,-197.6426 1206,-187.6427 1202.5001,-197.6427 1209.5001,-197.6426"/>
</g>
<!-- Node34&#45;&gt;Node3 -->
<g id="edge64" class="edge">
<title>Node34&#45;&gt;Node3</title>
<path fill="none" stroke="#191970" d="M1168.5112,-168.4862C1051.5558,-138.8057 694.373,-48.1611 579.7854,-19.0815"/>
<polygon fill="#191970" stroke="#191970" points="580.6402,-15.6875 570.0865,-16.6201 578.9183,-22.4725 580.6402,-15.6875"/>
</g>
<!-- Node34&#45;&gt;Node12 -->
<g id="edge66" class="edge">
<title>Node34&#45;&gt;Node12</title>
<path fill="none" stroke="#191970" d="M1134.1059,-168.4369C1041.5929,-156.1311 884.7813,-135.2726 817.3756,-126.3065"/>
<polygon fill="#191970" stroke="#191970" points="817.7228,-122.8219 807.3485,-124.9727 816.7997,-129.7608 817.7228,-122.8219"/>
</g>
<!-- Node34&#45;&gt;Node14 -->
<g id="edge63" class="edge">
<title>Node34&#45;&gt;Node14</title>
<path fill="none" stroke="#191970" d="M1125.2898,-171.4114C994.9828,-160.7741 739.3996,-139.9102 605.8689,-129.0097"/>
<polygon fill="#191970" stroke="#191970" points="605.9371,-125.5037 595.6855,-128.1784 605.3675,-132.4805 605.9371,-125.5037"/>
</g>
<!-- Node34&#45;&gt;Node15 -->
<g id="edge62" class="edge">
<title>Node34&#45;&gt;Node15</title>
<path fill="none" stroke="#191970" d="M1190.9265,-168.3522C1171.976,-155.0623 1143.7748,-130.6516 1160,-112 1176.7603,-92.7333 1327.8024,-78.108 1419.3016,-70.9238"/>
<polygon fill="#191970" stroke="#191970" points="1419.6305,-74.4089 1429.3305,-70.1473 1419.0901,-67.4297 1419.6305,-74.4089"/>
</g>
<!-- Node34&#45;&gt;Node29 -->
<g id="edge68" class="edge">
<title>Node34&#45;&gt;Node29</title>
<path fill="none" stroke="#191970" d="M1276.8695,-168.4369C1365.1689,-156.5218 1512.8901,-136.5883 1582.496,-127.1957"/>
<polygon fill="#191970" stroke="#191970" points="1583.1373,-130.641 1592.5794,-125.8351 1582.2012,-123.7039 1583.1373,-130.641"/>
</g>
<!-- Node34&#45;&gt;Node30 -->
<g id="edge65" class="edge">
<title>Node34&#45;&gt;Node30</title>
<path fill="none" stroke="#191970" d="M1203.9098,-168.2455C1202.3439,-160.9382 1200.1488,-150.6944 1198.2224,-141.7046"/>
<polygon fill="#191970" stroke="#191970" points="1201.584,-140.6873 1196.0663,-131.6427 1194.7393,-142.1541 1201.584,-140.6873"/>
</g>
<!-- Node35 -->
<g id="node36" class="node">
<title>Node35</title>
<polygon fill="none" stroke="#bfbfbf" points="1313,-112.5 1313,-131.5 1373,-131.5 1373,-112.5 1313,-112.5"/>
<text text-anchor="middle" x="1343" y="-119.5" font-family="FreeSans.ttf" font-size="10.00" fill="#000000">iostream</text>
</g>
<!-- Node34&#45;&gt;Node35 -->
<g id="edge67" class="edge">
<title>Node34&#45;&gt;Node35</title>
<path fill="none" stroke="#191970" d="M1229.5511,-168.3733C1251.8391,-159.2629 1285.4937,-145.5062 1310.3637,-135.3404"/>
<polygon fill="#191970" stroke="#191970" points="1311.8239,-138.5247 1319.7562,-131.5011 1309.1753,-132.0451 1311.8239,-138.5247"/>
</g>
<!-- Node37&#45;&gt;Node1 -->
<g id="edge82" class="edge">
<title>Node37&#45;&gt;Node1</title>
<path fill="none" stroke="#191970" d="M1264.2512,-521.0603C1133.4807,-514.2087 881.2101,-498.9056 794,-479 756.4201,-470.4224 749.0524,-461.6402 713,-448 683.5761,-436.8676 650.1358,-424.3715 625.5578,-415.2162"/>
<polygon fill="#191970" stroke="#191970" points="626.53,-411.8436 615.9372,-411.6346 624.0877,-418.4037 626.53,-411.8436"/>
</g>
<!-- Node37&#45;&gt;Node6 -->
<g id="edge80" class="edge">
<title>Node37&#45;&gt;Node6</title>
<path fill="none" stroke="#191970" d="M1264.1975,-517.5103C1182.6253,-506.3578 1056.6413,-478.9152 970,-412 922.39,-375.2297 922.1445,-353.1663 894,-300 867.2783,-249.5214 806.5313,-85.3826 785.9599,-29.1248"/>
<polygon fill="#191970" stroke="#191970" points="789.2189,-27.8455 782.503,-19.6511 782.643,-30.2451 789.2189,-27.8455"/>
</g>
<!-- Node37&#45;&gt;Node13 -->
<g id="edge84" class="edge">
<title>Node37&#45;&gt;Node13</title>
<path fill="none" stroke="#191970" d="M1264.3424,-522.807C1066.8731,-517.1266 570.0039,-500.8403 498,-479 455.2991,-466.0479 411.9457,-436.3098 387.6615,-417.8129"/>
<polygon fill="#191970" stroke="#191970" points="389.6576,-414.9315 379.614,-411.5588 385.3622,-420.4587 389.6576,-414.9315"/>
</g>
<!-- Node37&#45;&gt;Node15 -->
<g id="edge101" class="edge">
<title>Node37&#45;&gt;Node15</title>
<path fill="none" stroke="#191970" d="M1425.5427,-519.557C1530.6853,-511.8089 1704.1908,-496.5743 1728,-479 1823.8867,-408.2229 1837,-353.1791 1837,-234 1837,-234 1837,-234 1837,-178 1837,-120.1671 1660.6431,-87.9158 1559.0191,-74.1322"/>
<polygon fill="#191970" stroke="#191970" points="1559.1973,-70.6252 1548.8233,-72.7771 1558.275,-77.5641 1559.1973,-70.6252"/>
</g>
<!-- Node37&#45;&gt;Node25 -->
<g id="edge100" class="edge">
<title>Node37&#45;&gt;Node25</title>
<path fill="none" stroke="#191970" d="M1322.0088,-515.3484C1270.1252,-493.5679 1143.8396,-440.5538 1084.2007,-415.5177"/>
<polygon fill="#191970" stroke="#191970" points="1085.4597,-412.2504 1074.8844,-411.6068 1082.7501,-418.7047 1085.4597,-412.2504"/>
</g>
<!-- Node37&#45;&gt;Node28 -->
<g id="edge83" class="edge">
<title>Node37&#45;&gt;Node28</title>
<path fill="none" stroke="#191970" d="M1425.8139,-519.4394C1525.5101,-511.8535 1684.4281,-497.1115 1705,-479 1731.5383,-455.6357 1725,-437.3578 1725,-402 1725,-402 1725,-402 1725,-346 1725,-236.1298 1579.4958,-198.1108 1479.9896,-184.9566"/>
<polygon fill="#191970" stroke="#191970" points="1480.2668,-181.464 1469.908,-183.6874 1479.3924,-188.4092 1480.2668,-181.464"/>
</g>
<!-- Node37&#45;&gt;Node34 -->
<g id="edge85" class="edge">
<title>Node37&#45;&gt;Node34</title>
<path fill="none" stroke="#191970" d="M1345,-515.4309C1345,-494.738 1345,-444.2813 1345,-402 1345,-402 1345,-402 1345,-346 1345,-287.2307 1333.7377,-267.2983 1294,-224 1280.8455,-209.6668 1262.1878,-199.0314 1245.4352,-191.619"/>
<polygon fill="#191970" stroke="#191970" points="1246.4245,-188.2396 1235.8476,-187.6235 1243.7318,-194.7009 1246.4245,-188.2396"/>
</g>
<!-- Node37&#45;&gt;Node38 -->
<g id="edge81" class="edge">
<title>Node37&#45;&gt;Node38</title>
<path fill="none" stroke="#191970" d="M1425.5992,-517.9385C1512.5096,-509.9693 1654.8439,-495.8902 1777,-479 1790.6625,-477.1109 1805.4235,-474.7402 1819.0003,-472.4252"/>
<polygon fill="#191970" stroke="#191970" points="1819.8574,-475.829 1829.1139,-470.6746 1818.6634,-468.9315 1819.8574,-475.829"/>
</g>
<!-- Node39 -->
<g id="node40" class="node">
<title>Node39</title>
<g id="a_node40"><a xlink:href="SpatialMotionVector_8h.html" target="_top" xlink:title="iDynTree/Core/SpatialMotion\lVector.h">
<polygon fill="none" stroke="#000000" points="1540.5,-448.5 1540.5,-478.5 1695.5,-478.5 1695.5,-448.5 1540.5,-448.5"/>
<text text-anchor="start" x="1548.5" y="-466.5" font-family="FreeSans.ttf" font-size="10.00" fill="#000000">iDynTree/Core/SpatialMotion</text>
<text text-anchor="middle" x="1618" y="-455.5" font-family="FreeSans.ttf" font-size="10.00" fill="#000000">Vector.h</text>
</a>
</g>
</g>
<!-- Node37&#45;&gt;Node39 -->
<g id="edge86" class="edge">
<title>Node37&#45;&gt;Node39</title>
<path fill="none" stroke="#191970" d="M1387.3567,-515.4581C1428.4256,-506.2063 1491.6628,-491.9606 1541.5418,-480.7241"/>
<polygon fill="#191970" stroke="#191970" points="1542.3426,-484.1315 1551.3289,-478.5193 1540.8042,-477.3026 1542.3426,-484.1315"/>
</g>
<!-- Node41 -->
<g id="node42" class="node">
<title>Node41</title>
<g id="a_node42"><a xlink:href="SpatialForceVector_8h.html" target="_top" xlink:title="iDynTree/Core/SpatialForce\lVector.h">
<polygon fill="none" stroke="#000000" points="1373,-448.5 1373,-478.5 1521,-478.5 1521,-448.5 1373,-448.5"/>
<text text-anchor="start" x="1381" y="-466.5" font-family="FreeSans.ttf" font-size="10.00" fill="#000000">iDynTree/Core/SpatialForce</text>
<text text-anchor="middle" x="1447" y="-455.5" font-family="FreeSans.ttf" font-size="10.00" fill="#000000">Vector.h</text>
</a>
</g>
</g>
<!-- Node37&#45;&gt;Node41 -->
<g id="edge96" class="edge">
<title>Node37&#45;&gt;Node41</title>
<path fill="none" stroke="#191970" d="M1360.9375,-515.3906C1374.8698,-506.9903 1395.5684,-494.5103 1413.1749,-483.8945"/>
<polygon fill="#191970" stroke="#191970" points="1415.2914,-486.7054 1422.048,-478.5446 1411.677,-480.7108 1415.2914,-486.7054"/>
</g>
<!-- Node39&#45;&gt;Node28 -->
<g id="edge87" class="edge">
<title>Node39&#45;&gt;Node28</title>
<path fill="none" stroke="#191970" d="M1624.3642,-448.4947C1628.2965,-438.3872 1632.9673,-424.6427 1635,-412 1636.4111,-403.2238 1636.1599,-400.8129 1635,-392 1624.9138,-315.362 1645.6531,-277.6455 1590,-224 1573.5219,-208.1164 1523.3587,-196.6237 1477.2717,-189.0983"/>
<polygon fill="#191970" stroke="#191970" points="1477.6317,-185.6118 1467.2075,-187.5057 1476.5376,-192.5258 1477.6317,-185.6118"/>
</g>
<!-- Node39&#45;&gt;Node32 -->
<g id="edge88" class="edge">
<title>Node39&#45;&gt;Node32</title>
<path fill="none" stroke="#191970" d="M1621.4237,-448.2577C1624.0601,-433.4628 1626.298,-410.5822 1620,-392 1599.7112,-332.1379 1546.6281,-277.1459 1517.9823,-250.6336"/>
<polygon fill="#191970" stroke="#191970" points="1520.0273,-247.7631 1510.2687,-243.6376 1515.3246,-252.9482 1520.0273,-247.7631"/>
</g>
<!-- Node40 -->
<g id="node41" class="node">
<title>Node40</title>
<g id="a_node41"><a xlink:href="SpatialVector_8h.html" target="_top" xlink:title="iDynTree/Core/SpatialVector.h">
<polygon fill="none" stroke="#000000" points="1449.5,-392.5 1449.5,-411.5 1610.5,-411.5 1610.5,-392.5 1449.5,-392.5"/>
<text text-anchor="middle" x="1530" y="-399.5" font-family="FreeSans.ttf" font-size="10.00" fill="#000000">iDynTree/Core/SpatialVector.h</text>
</a>
</g>
</g>
<!-- Node39&#45;&gt;Node40 -->
<g id="edge89" class="edge">
<title>Node39&#45;&gt;Node40</title>
<path fill="none" stroke="#191970" d="M1596.2472,-448.2977C1582.8032,-438.9022 1565.5989,-426.8787 1552.0922,-417.4395"/>
<polygon fill="#191970" stroke="#191970" points="1554.0288,-414.5228 1543.8271,-411.6633 1550.0189,-420.2605 1554.0288,-414.5228"/>
</g>
<!-- Node40&#45;&gt;Node15 -->
<g id="edge92" class="edge">
<title>Node40&#45;&gt;Node15</title>
<path fill="none" stroke="#191970" d="M1544.8942,-392.381C1557.7976,-383.6844 1576.6031,-370.1139 1591,-356 1636.01,-311.8747 1657.7293,-303.6828 1678,-244 1688.8628,-212.0166 1683.7649,-201.2822 1678,-168 1673.4894,-141.9592 1677.3957,-129.952 1658,-112 1642.7956,-97.9273 1595.8952,-85.803 1555.3492,-77.54"/>
<polygon fill="#191970" stroke="#191970" points="1555.9613,-74.0932 1545.4707,-75.5759 1554.5962,-80.9588 1555.9613,-74.0932"/>
</g>
<!-- Node40&#45;&gt;Node26 -->
<g id="edge90" class="edge">
<title>Node40&#45;&gt;Node26</title>
<path fill="none" stroke="#191970" d="M1449.4543,-392.5637C1360.5174,-382.1443 1218.3012,-365.483 1130.2812,-355.171"/>
<polygon fill="#191970" stroke="#191970" points="1130.4269,-351.6642 1120.0875,-353.9768 1129.6123,-358.6167 1130.4269,-351.6642"/>
</g>
<!-- Node40&#45;&gt;Node29 -->
<g id="edge95" class="edge">
<title>Node40&#45;&gt;Node29</title>
<path fill="none" stroke="#191970" d="M1538.3562,-392.296C1566.7193,-359.3106 1657.7361,-253.0502 1661,-244 1672.4592,-212.2254 1672.8317,-199.6378 1661,-168 1656.8851,-156.9969 1648.8185,-146.8874 1641.0006,-138.9652"/>
<polygon fill="#191970" stroke="#191970" points="1643.0985,-136.1329 1633.4212,-131.82 1638.2968,-141.2264 1643.0985,-136.1329"/>
</g>
<!-- Node40&#45;&gt;Node31 -->
<g id="edge91" class="edge">
<title>Node40&#45;&gt;Node31</title>
<path fill="none" stroke="#191970" d="M1502.3759,-392.4509C1444.1521,-372.3242 1308.8015,-325.5363 1243.1017,-302.8253"/>
<polygon fill="#191970" stroke="#191970" points="1244.1489,-299.4841 1233.5541,-299.5249 1241.8619,-306.1 1244.1489,-299.4841"/>
</g>
<!-- Node40&#45;&gt;Node32 -->
<g id="edge93" class="edge">
<title>Node40&#45;&gt;Node32</title>
<path fill="none" stroke="#191970" d="M1528.0973,-392.4931C1526.2469,-383.1968 1523.3753,-368.636 1521,-356 1514.2037,-319.8454 1506.6752,-277.5818 1502.4221,-253.4853"/>
<polygon fill="#191970" stroke="#191970" points="1505.8451,-252.7416 1500.6638,-243.5001 1498.9511,-253.9556 1505.8451,-252.7416"/>
</g>
<!-- Node40&#45;&gt;Node35 -->
<g id="edge94" class="edge">
<title>Node40&#45;&gt;Node35</title>
<path fill="none" stroke="#191970" d="M1535.5381,-392.0626C1553.5661,-359.1128 1608.3769,-253.8544 1590,-224 1546.1561,-152.7729 1441.5711,-131.2805 1383.5377,-124.7978"/>
<polygon fill="#191970" stroke="#191970" points="1383.5714,-121.2832 1373.2685,-123.7534 1382.863,-128.2473 1383.5714,-121.2832"/>
</g>
<!-- Node41&#45;&gt;Node28 -->
<g id="edge97" class="edge">
<title>Node41&#45;&gt;Node28</title>
<path fill="none" stroke="#191970" d="M1443.2896,-448.2077C1440.8441,-437.9789 1437.6212,-424.2072 1435,-412 1417.9974,-332.8177 1400.1212,-238.0213 1392.6333,-197.7027"/>
<polygon fill="#191970" stroke="#191970" points="1396.0682,-197.0294 1390.8062,-187.8336 1389.1852,-198.3037 1396.0682,-197.0294"/>
</g>
<!-- Node41&#45;&gt;Node32 -->
<g id="edge98" class="edge">
<title>Node41&#45;&gt;Node32</title>
<path fill="none" stroke="#191970" d="M1443.4665,-448.3306C1440.6095,-433.785 1437.5774,-411.2554 1441,-392 1450.2908,-339.7296 1475.6084,-282.0693 1489.5241,-252.9982"/>
<polygon fill="#191970" stroke="#191970" points="1492.8481,-254.1667 1494.0842,-243.6442 1486.556,-251.0992 1492.8481,-254.1667"/>
</g>
<!-- Node41&#45;&gt;Node40 -->
<g id="edge99" class="edge">
<title>Node41&#45;&gt;Node40</title>
<path fill="none" stroke="#191970" d="M1467.5169,-448.2977C1479.9982,-439.0495 1495.9159,-427.2551 1508.5614,-417.8853"/>
<polygon fill="#191970" stroke="#191970" points="1510.7596,-420.6126 1516.7106,-411.8469 1506.5922,-414.9882 1510.7596,-420.6126"/>
</g>
</g>
</svg>
