<?xml version="1.0" encoding="UTF-8" standalone="no"?>
<!DOCTYPE svg PUBLIC "-//W3C//DTD SVG 1.1//EN"
 "http://www.w3.org/Graphics/SVG/1.1/DTD/svg11.dtd">
<!-- Generated by graphviz version 2.40.1 (20161225.0304)
 -->
<!-- Title: EigenHelpers.h Pages: 1 -->
<svg width="1342pt" height="543pt"
 viewBox="0.00 0.00 1342.00 543.00" xmlns="http://www.w3.org/2000/svg" xmlns:xlink="http://www.w3.org/1999/xlink">
<g id="graph0" class="graph" transform="scale(1 1) rotate(0) translate(4 539)">
<title>EigenHelpers.h</title>
<!-- Node0 -->
<g id="node1" class="node">
<title>Node0</title>
<polygon fill="#bfbfbf" stroke="#000000" points="884.5,-515.5 884.5,-534.5 974.5,-534.5 974.5,-515.5 884.5,-515.5"/>
<text text-anchor="middle" x="929.5" y="-522.5" font-family="FreeSans.ttf" font-size="10.00" fill="#000000">EigenHelpers.h</text>
</g>
<!-- Node1 -->
<g id="node2" class="node">
<title>Node1</title>
<polygon fill="none" stroke="#bfbfbf" points="864,-.5 864,-19.5 917,-19.5 917,-.5 864,-.5"/>
<text text-anchor="middle" x="890.5" y="-7.5" font-family="FreeSans.ttf" font-size="10.00" fill="#000000">cstddef</text>
</g>
<!-- Node0&#45;&gt;Node1 -->
<g id="edge1" class="edge">
<title>Node0&#45;&gt;Node1</title>
<path fill="none" stroke="#191970" d="M974.6154,-519.4263C1027.1772,-512.1639 1109.9636,-498.1018 1134.5,-479 1230.7993,-404.0302 1258.5,-356.0411 1258.5,-234 1258.5,-234 1258.5,-234 1258.5,-122 1258.5,-53.275 1020.6331,-22.6622 927.3779,-13.3013"/>
<polygon fill="#191970" stroke="#191970" points="927.5551,-9.8021 917.2621,-12.3128 926.8742,-16.7689 927.5551,-9.8021"/>
</g>
<!-- Node2 -->
<g id="node3" class="node">
<title>Node2</title>
<polygon fill="none" stroke="#bfbfbf" points="1257,-454 1257,-473 1334,-473 1334,-454 1257,-454"/>
<text text-anchor="middle" x="1295.5" y="-461" font-family="FreeSans.ttf" font-size="10.00" fill="#000000">Eigen/Dense</text>
</g>
<!-- Node0&#45;&gt;Node2 -->
<g id="edge2" class="edge">
<title>Node0&#45;&gt;Node2</title>
<path fill="none" stroke="#191970" d="M974.6891,-520.3504C1035.8557,-513.605 1148.1981,-499.6149 1242.5,-479 1246.8858,-478.0413 1251.4404,-476.9146 1255.9554,-475.7136"/>
<polygon fill="#191970" stroke="#191970" points="1257.0005,-479.0558 1265.6953,-473.0018 1255.1229,-472.3123 1257.0005,-479.0558"/>
</g>
<!-- Node3 -->
<g id="node4" class="node">
<title>Node3</title>
<g id="a_node4"><a xlink:href="VectorDynSize_8h.html" target="_top" xlink:title="iDynTree/Core/VectorDynSize.h">
<polygon fill="none" stroke="#000000" points="0,-168.5 0,-187.5 167,-187.5 167,-168.5 0,-168.5"/>
<text text-anchor="middle" x="83.5" y="-175.5" font-family="FreeSans.ttf" font-size="10.00" fill="#000000">iDynTree/Core/VectorDynSize.h</text>
</a>
</g>
</g>
<!-- Node0&#45;&gt;Node3 -->
<g id="edge3" class="edge">
<title>Node0&#45;&gt;Node3</title>
<path fill="none" stroke="#191970" d="M884.2711,-522.9376C713.9003,-514.5774 120.5,-479.8696 120.5,-402 120.5,-402 120.5,-402 120.5,-290 120.5,-255.7041 104.6646,-218.3471 93.713,-196.6122"/>
<polygon fill="#191970" stroke="#191970" points="96.6994,-194.7704 88.9595,-187.5354 90.4982,-198.0179 96.6994,-194.7704"/>
</g>
<!-- Node14 -->
<g id="node15" class="node">
<title>Node14</title>
<g id="a_node15"><a xlink:href="VectorFixSize_8h.html" target="_top" xlink:title="iDynTree/Core/VectorFixSize.h">
<polygon fill="none" stroke="#000000" points="662,-168.5 662,-187.5 823,-187.5 823,-168.5 662,-168.5"/>
<text text-anchor="middle" x="742.5" y="-175.5" font-family="FreeSans.ttf" font-size="10.00" fill="#000000">iDynTree/Core/VectorFixSize.h</text>
</a>
</g>
</g>
<!-- Node0&#45;&gt;Node14 -->
<g id="edge15" class="edge">
<title>Node0&#45;&gt;Node14</title>
<path fill="none" stroke="#191970" d="M884.2236,-518.0052C839.566,-510.2328 775.4585,-496.4462 757.5,-479 731.882,-454.1128 734.5,-437.7163 734.5,-402 734.5,-402 734.5,-402 734.5,-290 734.5,-257.6293 737.866,-220.1294 740.2313,-197.7743"/>
<polygon fill="#191970" stroke="#191970" points="743.739,-197.8948 741.3538,-187.5719 736.781,-197.1291 743.739,-197.8948"/>
</g>
<!-- Node15 -->
<g id="node16" class="node">
<title>Node15</title>
<g id="a_node16"><a xlink:href="Utils_8h.html" target="_top" xlink:title="iDynTree/Core/Utils.h">
<polygon fill="none" stroke="#000000" points="1006,-56.5 1006,-75.5 1125,-75.5 1125,-56.5 1006,-56.5"/>
<text text-anchor="middle" x="1065.5" y="-63.5" font-family="FreeSans.ttf" font-size="10.00" fill="#000000">iDynTree/Core/Utils.h</text>
</a>
</g>
</g>
<!-- Node0&#45;&gt;Node15 -->
<g id="edge71" class="edge">
<title>Node0&#45;&gt;Node15</title>
<path fill="none" stroke="#191970" d="M974.5794,-524.0013C1044.5804,-521.42 1174.5099,-512.1672 1204.5,-479 1277.686,-398.0607 1220.5,-343.1208 1220.5,-234 1220.5,-234 1220.5,-234 1220.5,-178 1220.5,-124.4908 1159.0615,-93.9645 1113.546,-78.6916"/>
<polygon fill="#191970" stroke="#191970" points="1114.4057,-75.2918 1103.8146,-75.5729 1112.2694,-81.9579 1114.4057,-75.2918"/>
</g>
<!-- Node19 -->
<g id="node20" class="node">
<title>Node19</title>
<g id="a_node20"><a xlink:href="MatrixDynSize_8h.html" target="_top" xlink:title="iDynTree/Core/MatrixDynSize.h">
<polygon fill="none" stroke="#000000" points="439,-168.5 439,-187.5 606,-187.5 606,-168.5 439,-168.5"/>
<text text-anchor="middle" x="522.5" y="-175.5" font-family="FreeSans.ttf" font-size="10.00" fill="#000000">iDynTree/Core/MatrixDynSize.h</text>
</a>
</g>
</g>
<!-- Node0&#45;&gt;Node19 -->
<g id="edge25" class="edge">
<title>Node0&#45;&gt;Node19</title>
<path fill="none" stroke="#191970" d="M884.3079,-523.1551C763.9066,-517.0178 444.5,-492.2331 444.5,-402 444.5,-402 444.5,-402 444.5,-290 444.5,-249.9033 478.5809,-213.8785 501.6871,-194.0622"/>
<polygon fill="#191970" stroke="#191970" points="504.1337,-196.5811 509.6199,-187.5173 499.6789,-191.1816 504.1337,-196.5811"/>
</g>
<!-- Node21 -->
<g id="node22" class="node">
<title>Node21</title>
<g id="a_node22"><a xlink:href="MatrixFixSize_8h.html" target="_top" xlink:title="iDynTree/Core/MatrixFixSize.h">
<polygon fill="none" stroke="#000000" points="841,-168.5 841,-187.5 1002,-187.5 1002,-168.5 841,-168.5"/>
<text text-anchor="middle" x="921.5" y="-175.5" font-family="FreeSans.ttf" font-size="10.00" fill="#000000">iDynTree/Core/MatrixFixSize.h</text>
</a>
</g>
</g>
<!-- Node0&#45;&gt;Node21 -->
<g id="edge32" class="edge">
<title>Node0&#45;&gt;Node21</title>
<path fill="none" stroke="#191970" d="M974.6274,-520.2805C1039.7886,-510.6895 1152.5,-482.4694 1152.5,-402 1152.5,-402 1152.5,-402 1152.5,-346 1152.5,-257.1433 1039.3258,-210.3688 971.4102,-190.2992"/>
<polygon fill="#191970" stroke="#191970" points="972.3142,-186.9175 961.7371,-187.5301 970.3877,-193.6472 972.3142,-186.9175"/>
</g>
<!-- Node23 -->
<g id="node24" class="node">
<title>Node23</title>
<g id="a_node24"><a xlink:href="SpatialMotionVector_8h.html" target="_top" xlink:title="iDynTree/Core/SpatialMotion\lVector.h">
<polygon fill="none" stroke="#000000" points="767,-448.5 767,-478.5 922,-478.5 922,-448.5 767,-448.5"/>
<text text-anchor="start" x="775" y="-466.5" font-family="FreeSans.ttf" font-size="10.00" fill="#000000">iDynTree/Core/SpatialMotion</text>
<text text-anchor="middle" x="844.5" y="-455.5" font-family="FreeSans.ttf" font-size="10.00" fill="#000000">Vector.h</text>
</a>
</g>
</g>
<!-- Node0&#45;&gt;Node23 -->
<g id="edge40" class="edge">
<title>Node0&#45;&gt;Node23</title>
<path fill="none" stroke="#191970" d="M916.2188,-515.3906C904.8216,-507.1444 887.9908,-494.9669 873.4977,-484.4807"/>
<polygon fill="#191970" stroke="#191970" points="875.4468,-481.5709 865.2933,-478.5446 871.3435,-487.2421 875.4468,-481.5709"/>
</g>
<!-- Node30 -->
<g id="node31" class="node">
<title>Node30</title>
<g id="a_node31"><a xlink:href="SpatialForceVector_8h.html" target="_top" xlink:title="iDynTree/Core/SpatialForce\lVector.h">
<polygon fill="none" stroke="#000000" points="940.5,-448.5 940.5,-478.5 1088.5,-478.5 1088.5,-448.5 940.5,-448.5"/>
<text text-anchor="start" x="948.5" y="-466.5" font-family="FreeSans.ttf" font-size="10.00" fill="#000000">iDynTree/Core/SpatialForce</text>
<text text-anchor="middle" x="1014.5" y="-455.5" font-family="FreeSans.ttf" font-size="10.00" fill="#000000">Vector.h</text>
</a>
</g>
</g>
<!-- Node0&#45;&gt;Node30 -->
<g id="edge62" class="edge">
<title>Node0&#45;&gt;Node30</title>
<path fill="none" stroke="#191970" d="M942.7813,-515.3906C954.1784,-507.1444 971.0092,-494.9669 985.5023,-484.4807"/>
<polygon fill="#191970" stroke="#191970" points="987.6565,-487.2421 993.7067,-478.5446 983.5532,-481.5709 987.6565,-487.2421"/>
</g>
<!-- Node31 -->
<g id="node32" class="node">
<title>Node31</title>
<g id="a_node32"><a xlink:href="Transform_8h.html" target="_top" xlink:title="iDynTree/Core/Transform.h">
<polygon fill="none" stroke="#000000" points="270.5,-392.5 270.5,-411.5 416.5,-411.5 416.5,-392.5 270.5,-392.5"/>
<text text-anchor="middle" x="343.5" y="-399.5" font-family="FreeSans.ttf" font-size="10.00" fill="#000000">iDynTree/Core/Transform.h</text>
</a>
</g>
</g>
<!-- Node0&#45;&gt;Node31 -->
<g id="edge66" class="edge">
<title>Node0&#45;&gt;Node31</title>
<path fill="none" stroke="#191970" d="M884.2181,-524.4016C777.1745,-522.4186 511.4487,-514.0108 430.5,-479 400.2718,-465.9261 373.2112,-438.2053 357.5746,-419.8403"/>
<polygon fill="#191970" stroke="#191970" points="359.9126,-417.1736 350.8524,-411.6814 354.5101,-421.6249 359.9126,-417.1736"/>
</g>
<!-- Node4 -->
<g id="node5" class="node">
<title>Node4</title>
<g id="a_node5"><a xlink:href="Span_8h.html" target="_top" xlink:title="iDynTree/Core/Span.h">
<polygon fill="none" stroke="#000000" points="448,-56.5 448,-75.5 569,-75.5 569,-56.5 448,-56.5"/>
<text text-anchor="middle" x="508.5" y="-63.5" font-family="FreeSans.ttf" font-size="10.00" fill="#000000">iDynTree/Core/Span.h</text>
</a>
</g>
</g>
<!-- Node3&#45;&gt;Node4 -->
<g id="edge4" class="edge">
<title>Node3&#45;&gt;Node4</title>
<path fill="none" stroke="#191970" d="M119.7353,-168.4509C196.8932,-148.1176 377.3087,-100.5728 462.458,-78.1334"/>
<polygon fill="#191970" stroke="#191970" points="463.5785,-81.4577 472.3565,-75.5249 461.7947,-74.6888 463.5785,-81.4577"/>
</g>
<!-- Node13 -->
<g id="node14" class="node">
<title>Node13</title>
<polygon fill="none" stroke="#bfbfbf" points="389.5,-112.5 389.5,-131.5 433.5,-131.5 433.5,-112.5 389.5,-112.5"/>
<text text-anchor="middle" x="411.5" y="-119.5" font-family="FreeSans.ttf" font-size="10.00" fill="#000000">string</text>
</g>
<!-- Node3&#45;&gt;Node13 -->
<g id="edge14" class="edge">
<title>Node3&#45;&gt;Node13</title>
<path fill="none" stroke="#191970" d="M139.5125,-168.4369C208.6131,-156.6392 323.7569,-136.9805 379.4232,-127.4765"/>
<polygon fill="#191970" stroke="#191970" points="380.1484,-130.9034 389.4167,-125.7703 378.9702,-124.0033 380.1484,-130.9034"/>
</g>
<!-- Node4&#45;&gt;Node1 -->
<g id="edge8" class="edge">
<title>Node4&#45;&gt;Node1</title>
<path fill="none" stroke="#191970" d="M569.029,-57.1266C649.1067,-45.3875 787.7936,-25.0564 853.6878,-15.3965"/>
<polygon fill="#191970" stroke="#191970" points="854.2318,-18.8543 863.6183,-13.9408 853.2164,-11.9283 854.2318,-18.8543"/>
</g>
<!-- Node5 -->
<g id="node6" class="node">
<title>Node5</title>
<polygon fill="none" stroke="#bfbfbf" points="697.5,-.5 697.5,-19.5 749.5,-19.5 749.5,-.5 697.5,-.5"/>
<text text-anchor="middle" x="723.5" y="-7.5" font-family="FreeSans.ttf" font-size="10.00" fill="#000000">cassert</text>
</g>
<!-- Node4&#45;&gt;Node5 -->
<g id="edge5" class="edge">
<title>Node4&#45;&gt;Node5</title>
<path fill="none" stroke="#191970" d="M546.6173,-56.4325C582.894,-47.273 638.989,-32.9696 687.5,-20 687.5979,-19.9738 687.696,-19.9476 687.7942,-19.9213"/>
<polygon fill="#191970" stroke="#191970" points="688.4355,-23.3739 697.17,-17.3773 686.6024,-16.6182 688.4355,-23.3739"/>
</g>
<!-- Node6 -->
<g id="node7" class="node">
<title>Node6</title>
<polygon fill="none" stroke="#bfbfbf" points="333.5,-.5 333.5,-19.5 397.5,-19.5 397.5,-.5 333.5,-.5"/>
<text text-anchor="middle" x="365.5" y="-7.5" font-family="FreeSans.ttf" font-size="10.00" fill="#000000">algorithm</text>
</g>
<!-- Node4&#45;&gt;Node6 -->
<g id="edge6" class="edge">
<title>Node4&#45;&gt;Node6</title>
<path fill="none" stroke="#191970" d="M483.9174,-56.3733C460.5504,-47.2226 425.2138,-33.3844 399.2216,-23.2057"/>
<polygon fill="#191970" stroke="#191970" points="400.3495,-19.8886 389.7618,-19.5011 397.797,-26.4066 400.3495,-19.8886"/>
</g>
<!-- Node7 -->
<g id="node8" class="node">
<title>Node7</title>
<polygon fill="none" stroke="#bfbfbf" points="415.5,-.5 415.5,-19.5 457.5,-19.5 457.5,-.5 415.5,-.5"/>
<text text-anchor="middle" x="436.5" y="-7.5" font-family="FreeSans.ttf" font-size="10.00" fill="#000000">array</text>
</g>
<!-- Node4&#45;&gt;Node7 -->
<g id="edge7" class="edge">
<title>Node4&#45;&gt;Node7</title>
<path fill="none" stroke="#191970" d="M495.9586,-56.2455C485.2213,-47.8943 469.5527,-35.7076 456.9953,-25.9408"/>
<polygon fill="#191970" stroke="#191970" points="458.9401,-23.0194 448.8977,-19.6427 454.6425,-28.5449 458.9401,-23.0194"/>
</g>
<!-- Node8 -->
<g id="node9" class="node">
<title>Node8</title>
<polygon fill="none" stroke="#bfbfbf" points="476,-.5 476,-19.5 529,-19.5 529,-.5 476,-.5"/>
<text text-anchor="middle" x="502.5" y="-7.5" font-family="FreeSans.ttf" font-size="10.00" fill="#000000">iterator</text>
</g>
<!-- Node4&#45;&gt;Node8 -->
<g id="edge9" class="edge">
<title>Node4&#45;&gt;Node8</title>
<path fill="none" stroke="#191970" d="M507.4549,-56.2455C506.672,-48.9382 505.5744,-38.6944 504.6112,-29.7046"/>
<polygon fill="#191970" stroke="#191970" points="508.0786,-29.2129 503.5331,-19.6427 501.1185,-29.9587 508.0786,-29.2129"/>
</g>
<!-- Node9 -->
<g id="node10" class="node">
<title>Node9</title>
<polygon fill="none" stroke="#bfbfbf" points="547.5,-.5 547.5,-19.5 591.5,-19.5 591.5,-.5 547.5,-.5"/>
<text text-anchor="middle" x="569.5" y="-7.5" font-family="FreeSans.ttf" font-size="10.00" fill="#000000">limits</text>
</g>
<!-- Node4&#45;&gt;Node9 -->
<g id="edge10" class="edge">
<title>Node4&#45;&gt;Node9</title>
<path fill="none" stroke="#191970" d="M519.1254,-56.2455C528.0473,-48.0549 540.988,-36.1749 551.5192,-26.5069"/>
<polygon fill="#191970" stroke="#191970" points="553.9968,-28.9837 558.9964,-19.6427 549.2629,-23.8271 553.9968,-28.9837"/>
</g>
<!-- Node10 -->
<g id="node11" class="node">
<title>Node10</title>
<polygon fill="none" stroke="#bfbfbf" points="187,-.5 187,-19.5 252,-19.5 252,-.5 187,-.5"/>
<text text-anchor="middle" x="219.5" y="-7.5" font-family="FreeSans.ttf" font-size="10.00" fill="#000000">stdexcept</text>
</g>
<!-- Node4&#45;&gt;Node10 -->
<g id="edge11" class="edge">
<title>Node4&#45;&gt;Node10</title>
<path fill="none" stroke="#191970" d="M452.1797,-56.4772C404.0608,-48.1315 332.7662,-35.2724 262.1005,-20.2655"/>
<polygon fill="#191970" stroke="#191970" points="262.6468,-16.8033 252.1359,-18.134 261.1825,-23.6484 262.6468,-16.8033"/>
</g>
<!-- Node11 -->
<g id="node12" class="node">
<title>Node11</title>
<polygon fill="none" stroke="#bfbfbf" points="610,-.5 610,-19.5 679,-19.5 679,-.5 610,-.5"/>
<text text-anchor="middle" x="644.5" y="-7.5" font-family="FreeSans.ttf" font-size="10.00" fill="#000000">type_traits</text>
</g>
<!-- Node4&#45;&gt;Node11 -->
<g id="edge12" class="edge">
<title>Node4&#45;&gt;Node11</title>
<path fill="none" stroke="#191970" d="M531.8792,-56.3733C554.0045,-47.2629 587.4134,-33.5062 612.1019,-23.3404"/>
<polygon fill="#191970" stroke="#191970" points="613.5117,-26.5451 621.4258,-19.5011 610.8464,-20.0723 613.5117,-26.5451"/>
</g>
<!-- Node12 -->
<g id="node13" class="node">
<title>Node12</title>
<polygon fill="none" stroke="#bfbfbf" points="270,-.5 270,-19.5 315,-19.5 315,-.5 270,-.5"/>
<text text-anchor="middle" x="292.5" y="-7.5" font-family="FreeSans.ttf" font-size="10.00" fill="#000000">utility</text>
</g>
<!-- Node4&#45;&gt;Node12 -->
<g id="edge13" class="edge">
<title>Node4&#45;&gt;Node12</title>
<path fill="none" stroke="#191970" d="M467.3956,-56.4445C432.106,-48.0798 379.6756,-35.2716 325.0392,-20.035"/>
<polygon fill="#191970" stroke="#191970" points="325.7512,-16.5996 315.1773,-17.2647 323.8581,-23.3388 325.7512,-16.5996"/>
</g>
<!-- Node14&#45;&gt;Node1 -->
<g id="edge23" class="edge">
<title>Node14&#45;&gt;Node1</title>
<path fill="none" stroke="#191970" d="M747.6218,-168.0893C754.761,-154.7088 768.5239,-130.4216 783.5,-112 810.6318,-78.626 848.0963,-45.2349 870.7373,-26.152"/>
<polygon fill="#191970" stroke="#191970" points="873.1954,-28.6597 878.6365,-19.5687 868.7138,-23.2823 873.1954,-28.6597"/>
</g>
<!-- Node14&#45;&gt;Node4 -->
<g id="edge19" class="edge">
<title>Node14&#45;&gt;Node4</title>
<path fill="none" stroke="#191970" d="M662.1328,-168.4989C611.3903,-161.0005 551.8808,-148.9583 532.5,-132 519.1924,-120.3558 513.2602,-100.7221 510.6177,-85.8888"/>
<polygon fill="#191970" stroke="#191970" points="514.0412,-85.1021 509.1706,-75.6932 507.1107,-86.0858 514.0412,-85.1021"/>
</g>
<!-- Node14&#45;&gt;Node5 -->
<g id="edge22" class="edge">
<title>Node14&#45;&gt;Node5</title>
<path fill="none" stroke="#191970" d="M741.424,-168.4862C738.4206,-141.9293 729.8972,-66.5651 725.7806,-30.1655"/>
<polygon fill="#191970" stroke="#191970" points="729.2132,-29.3712 724.6115,-19.8279 722.2575,-30.1579 729.2132,-29.3712"/>
</g>
<!-- Node14&#45;&gt;Node13 -->
<g id="edge20" class="edge">
<title>Node14&#45;&gt;Node13</title>
<path fill="none" stroke="#191970" d="M685.9752,-168.4369C616.2426,-156.6392 500.0456,-136.9805 443.8702,-127.4765"/>
<polygon fill="#191970" stroke="#191970" points="444.2291,-123.9876 433.7853,-125.7703 443.0613,-130.8895 444.2291,-123.9876"/>
</g>
<!-- Node14&#45;&gt;Node15 -->
<g id="edge16" class="edge">
<title>Node14&#45;&gt;Node15</title>
<path fill="none" stroke="#191970" d="M750.422,-168.0988C762.8317,-153.3266 788.3637,-125.7827 816.5,-112 847.3522,-96.8869 933.349,-83.0811 995.6536,-74.6199"/>
<polygon fill="#191970" stroke="#191970" points="996.3786,-78.0541 1005.8252,-73.2572 995.449,-71.1161 996.3786,-78.0541"/>
</g>
<!-- Node17 -->
<g id="node18" class="node">
<title>Node17</title>
<polygon fill="none" stroke="#bfbfbf" points="893.5,-112.5 893.5,-131.5 949.5,-131.5 949.5,-112.5 893.5,-112.5"/>
<text text-anchor="middle" x="921.5" y="-119.5" font-family="FreeSans.ttf" font-size="10.00" fill="#000000">sstream</text>
</g>
<!-- Node14&#45;&gt;Node17 -->
<g id="edge21" class="edge">
<title>Node14&#45;&gt;Node17</title>
<path fill="none" stroke="#191970" d="M773.2712,-168.3733C803.8897,-158.7943 850.9267,-144.0788 883.7778,-133.8014"/>
<polygon fill="#191970" stroke="#191970" points="884.9848,-137.0911 893.4836,-130.7649 882.8947,-130.4104 884.9848,-137.0911"/>
</g>
<!-- Node18 -->
<g id="node19" class="node">
<title>Node18</title>
<polygon fill="none" stroke="#bfbfbf" points="825.5,-112.5 825.5,-131.5 875.5,-131.5 875.5,-112.5 825.5,-112.5"/>
<text text-anchor="middle" x="850.5" y="-119.5" font-family="FreeSans.ttf" font-size="10.00" fill="#000000">cstring</text>
</g>
<!-- Node14&#45;&gt;Node18 -->
<g id="edge24" class="edge">
<title>Node14&#45;&gt;Node18</title>
<path fill="none" stroke="#191970" d="M761.3122,-168.2455C778.3473,-159.4125 803.6575,-146.2887 822.9681,-136.2758"/>
<polygon fill="#191970" stroke="#191970" points="824.637,-139.353 831.9034,-131.6427 821.4147,-133.1388 824.637,-139.353"/>
</g>
<!-- Node15&#45;&gt;Node1 -->
<g id="edge17" class="edge">
<title>Node15&#45;&gt;Node1</title>
<path fill="none" stroke="#191970" d="M1035.4164,-56.3733C1005.3466,-46.7509 959.0796,-31.9455 926.944,-21.6621"/>
<polygon fill="#191970" stroke="#191970" points="927.6363,-18.2088 917.0453,-18.4945 925.5028,-24.8758 927.6363,-18.2088"/>
</g>
<!-- Node16 -->
<g id="node17" class="node">
<title>Node16</title>
<polygon fill="none" stroke="#bfbfbf" points="1025.5,-.5 1025.5,-19.5 1105.5,-19.5 1105.5,-.5 1025.5,-.5"/>
<text text-anchor="middle" x="1065.5" y="-7.5" font-family="FreeSans.ttf" font-size="10.00" fill="#000000">CoreExport.h</text>
</g>
<!-- Node15&#45;&gt;Node16 -->
<g id="edge18" class="edge">
<title>Node15&#45;&gt;Node16</title>
<path fill="none" stroke="#191970" d="M1065.5,-56.2455C1065.5,-48.9382 1065.5,-38.6944 1065.5,-29.7046"/>
<polygon fill="#191970" stroke="#191970" points="1069.0001,-29.6426 1065.5,-19.6427 1062.0001,-29.6427 1069.0001,-29.6426"/>
</g>
<!-- Node19&#45;&gt;Node13 -->
<g id="edge26" class="edge">
<title>Node19&#45;&gt;Node13</title>
<path fill="none" stroke="#191970" d="M503.4184,-168.3733C485.7598,-159.4644 459.2947,-146.1127 439.2902,-136.0203"/>
<polygon fill="#191970" stroke="#191970" points="440.8372,-132.8806 430.3326,-131.5011 437.6842,-139.1303 440.8372,-132.8806"/>
</g>
<!-- Node20 -->
<g id="node21" class="node">
<title>Node20</title>
<g id="a_node21"><a xlink:href="MatrixView_8h.html" target="_top" xlink:title="iDynTree/Core/MatrixView.h">
<polygon fill="none" stroke="#000000" points="542,-112.5 542,-131.5 693,-131.5 693,-112.5 542,-112.5"/>
<text text-anchor="middle" x="617.5" y="-119.5" font-family="FreeSans.ttf" font-size="10.00" fill="#000000">iDynTree/Core/MatrixView.h</text>
</a>
</g>
</g>
<!-- Node19&#45;&gt;Node20 -->
<g id="edge27" class="edge">
<title>Node19&#45;&gt;Node20</title>
<path fill="none" stroke="#191970" d="M539.0477,-168.2455C553.7599,-159.5731 575.4888,-146.7645 592.3505,-136.825"/>
<polygon fill="#191970" stroke="#191970" points="594.3046,-139.736 601.1419,-131.6427 590.7498,-133.7057 594.3046,-139.736"/>
</g>
<!-- Node20&#45;&gt;Node4 -->
<g id="edge30" class="edge">
<title>Node20&#45;&gt;Node4</title>
<path fill="none" stroke="#191970" d="M598.5136,-112.2455C581.3208,-103.4125 555.7762,-90.2887 536.2868,-80.2758"/>
<polygon fill="#191970" stroke="#191970" points="537.763,-77.0993 527.2688,-75.6427 534.5641,-83.3257 537.763,-77.0993"/>
</g>
<!-- Node20&#45;&gt;Node5 -->
<g id="edge28" class="edge">
<title>Node20&#45;&gt;Node5</title>
<path fill="none" stroke="#191970" d="M626.5375,-112.4509C644.5299,-93.4401 685.0349,-50.6423 707.5848,-26.816"/>
<polygon fill="#191970" stroke="#191970" points="710.1535,-29.1937 714.4854,-19.5249 705.0695,-24.382 710.1535,-29.1937"/>
</g>
<!-- Node20&#45;&gt;Node11 -->
<g id="edge29" class="edge">
<title>Node20&#45;&gt;Node11</title>
<path fill="none" stroke="#191970" d="M619.802,-112.4509C624.2256,-94.1013 633.9915,-53.5908 639.8306,-29.3693"/>
<polygon fill="#191970" stroke="#191970" points="643.2627,-30.0667 642.2038,-19.5249 636.4576,-28.4261 643.2627,-30.0667"/>
</g>
<!-- Node20&#45;&gt;Node15 -->
<g id="edge31" class="edge">
<title>Node20&#45;&gt;Node15</title>
<path fill="none" stroke="#191970" d="M693.2436,-112.532C777.9123,-101.9485 913.8732,-84.9534 995.9411,-74.6949"/>
<polygon fill="#191970" stroke="#191970" points="996.4325,-78.1608 1005.9211,-73.4474 995.5642,-71.2148 996.4325,-78.1608"/>
</g>
<!-- Node21&#45;&gt;Node5 -->
<g id="edge35" class="edge">
<title>Node21&#45;&gt;Node5</title>
<path fill="none" stroke="#191970" d="M933.7971,-168.3556C948.9383,-155.2768 971.1825,-131.3304 958.5,-112 914.1263,-44.3666 814.1897,-21.3501 760.0365,-13.6916"/>
<polygon fill="#191970" stroke="#191970" points="760.2164,-10.1853 749.8463,-12.356 759.3066,-17.126 760.2164,-10.1853"/>
</g>
<!-- Node21&#45;&gt;Node13 -->
<g id="edge37" class="edge">
<title>Node21&#45;&gt;Node13</title>
<path fill="none" stroke="#191970" d="M840.5476,-168.9992C837.4931,-168.6615 834.469,-168.3275 831.5,-168 686.9046,-152.0486 514.2835,-133.2055 443.8359,-125.5241"/>
<polygon fill="#191970" stroke="#191970" points="444.1325,-122.0358 433.8121,-124.4312 443.3738,-128.9945 444.1325,-122.0358"/>
</g>
<!-- Node21&#45;&gt;Node15 -->
<g id="edge33" class="edge">
<title>Node21&#45;&gt;Node15</title>
<path fill="none" stroke="#191970" d="M937.5233,-168.4072C952.0145,-159.5151 973.738,-145.6392 991.5,-132 1011.7756,-116.4307 1033.4287,-96.7158 1048.0386,-82.9038"/>
<polygon fill="#191970" stroke="#191970" points="1050.5583,-85.3372 1055.3771,-75.9016 1045.726,-80.2728 1050.5583,-85.3372"/>
</g>
<!-- Node21&#45;&gt;Node17 -->
<g id="edge39" class="edge">
<title>Node21&#45;&gt;Node17</title>
<path fill="none" stroke="#191970" d="M921.5,-168.2455C921.5,-160.9382 921.5,-150.6944 921.5,-141.7046"/>
<polygon fill="#191970" stroke="#191970" points="925.0001,-141.6426 921.5,-131.6427 918.0001,-141.6427 925.0001,-141.6426"/>
</g>
<!-- Node21&#45;&gt;Node18 -->
<g id="edge36" class="edge">
<title>Node21&#45;&gt;Node18</title>
<path fill="none" stroke="#191970" d="M909.1327,-168.2455C898.5446,-159.8943 883.0936,-147.7076 870.7107,-137.9408"/>
<polygon fill="#191970" stroke="#191970" points="872.7447,-135.0875 862.7255,-131.6427 868.4097,-140.5837 872.7447,-135.0875"/>
</g>
<!-- Node21&#45;&gt;Node20 -->
<g id="edge34" class="edge">
<title>Node21&#45;&gt;Node20</title>
<path fill="none" stroke="#191970" d="M869.586,-168.4369C816.9029,-158.7321 735.3432,-143.708 679.3457,-133.3926"/>
<polygon fill="#191970" stroke="#191970" points="679.6686,-129.8933 669.1999,-131.5237 678.4004,-136.7775 679.6686,-129.8933"/>
</g>
<!-- Node22 -->
<g id="node23" class="node">
<title>Node22</title>
<polygon fill="none" stroke="#bfbfbf" points="1060.5,-112.5 1060.5,-131.5 1120.5,-131.5 1120.5,-112.5 1060.5,-112.5"/>
<text text-anchor="middle" x="1090.5" y="-119.5" font-family="FreeSans.ttf" font-size="10.00" fill="#000000">iostream</text>
</g>
<!-- Node21&#45;&gt;Node22 -->
<g id="edge38" class="edge">
<title>Node21&#45;&gt;Node22</title>
<path fill="none" stroke="#191970" d="M950.5521,-168.3733C978.6543,-159.0613 1021.4054,-144.8953 1052.2607,-134.671"/>
<polygon fill="#191970" stroke="#191970" points="1053.4355,-137.969 1061.827,-131.5011 1051.2336,-131.3243 1053.4355,-137.969"/>
</g>
<!-- Node23&#45;&gt;Node14 -->
<g id="edge41" class="edge">
<title>Node23&#45;&gt;Node14</title>
<path fill="none" stroke="#191970" d="M827.437,-448.2287C806.1456,-427.4023 772.5,-387.8679 772.5,-346 772.5,-346 772.5,-346 772.5,-290 772.5,-256.4397 759.7764,-219.0899 750.9016,-197.12"/>
<polygon fill="#191970" stroke="#191970" points="754.0255,-195.5191 746.9266,-187.6542 747.5714,-198.2294 754.0255,-195.5191"/>
</g>
<!-- Node24 -->
<g id="node25" class="node">
<title>Node24</title>
<g id="a_node25"><a xlink:href="GeomVector3_8h.html" target="_top" xlink:title="iDynTree/Core/GeomVector3.h">
<polygon fill="none" stroke="#000000" points="801,-224.5 801,-243.5 964,-243.5 964,-224.5 801,-224.5"/>
<text text-anchor="middle" x="882.5" y="-231.5" font-family="FreeSans.ttf" font-size="10.00" fill="#000000">iDynTree/Core/GeomVector3.h</text>
</a>
</g>
</g>
<!-- Node23&#45;&gt;Node24 -->
<g id="edge42" class="edge">
<title>Node23&#45;&gt;Node24</title>
<path fill="none" stroke="#191970" d="M846.5017,-448.2209C850.7064,-416.6793 861.0216,-342.112 872.5,-280 874.0929,-271.3808 876.1062,-261.9098 877.9082,-253.8136"/>
<polygon fill="#191970" stroke="#191970" points="881.3728,-254.3614 880.175,-243.8345 874.5467,-252.8107 881.3728,-254.3614"/>
</g>
<!-- Node25 -->
<g id="node26" class="node">
<title>Node25</title>
<g id="a_node26"><a xlink:href="SpatialVector_8h.html" target="_top" xlink:title="iDynTree/Core/SpatialVector.h">
<polygon fill="none" stroke="#000000" points="918,-392.5 918,-411.5 1079,-411.5 1079,-392.5 918,-392.5"/>
<text text-anchor="middle" x="998.5" y="-399.5" font-family="FreeSans.ttf" font-size="10.00" fill="#000000">iDynTree/Core/SpatialVector.h</text>
</a>
</g>
</g>
<!-- Node23&#45;&gt;Node25 -->
<g id="edge44" class="edge">
<title>Node23&#45;&gt;Node25</title>
<path fill="none" stroke="#191970" d="M882.1726,-448.4554C907.5298,-438.329 940.6652,-425.0964 965.0826,-415.3453"/>
<polygon fill="#191970" stroke="#191970" points="966.6467,-418.4895 974.6355,-411.5303 964.0505,-411.9887 966.6467,-418.4895"/>
</g>
<!-- Node24&#45;&gt;Node14 -->
<g id="edge43" class="edge">
<title>Node24&#45;&gt;Node14</title>
<path fill="none" stroke="#191970" d="M858.4331,-224.3733C835.6572,-215.2629 801.2656,-201.5062 775.851,-191.3404"/>
<polygon fill="#191970" stroke="#191970" points="776.8375,-187.9654 766.2528,-187.5011 774.2377,-194.4648 776.8375,-187.9654"/>
</g>
<!-- Node25&#45;&gt;Node15 -->
<g id="edge58" class="edge">
<title>Node25&#45;&gt;Node15</title>
<path fill="none" stroke="#191970" d="M1009.0594,-392.2354C1018.0838,-383.4455 1030.9312,-369.8199 1039.5,-356 1096.0377,-264.8145 1109.1295,-237.3392 1129.5,-132 1131.1877,-123.2728 1133.5557,-119.9097 1129.5,-112 1122.567,-98.4789 1109.6064,-88.0326 1097.1519,-80.5377"/>
<polygon fill="#191970" stroke="#191970" points="1098.7072,-77.3979 1088.266,-75.6001 1095.3072,-83.5168 1098.7072,-77.3979"/>
</g>
<!-- Node25&#45;&gt;Node17 -->
<g id="edge61" class="edge">
<title>Node25&#45;&gt;Node17</title>
<path fill="none" stroke="#191970" d="M1000.4262,-392.4901C1008.1073,-353.5393 1035.0204,-206.4361 1011.5,-168 1000.1126,-149.3911 978.5583,-138.0076 959.3982,-131.2205"/>
<polygon fill="#191970" stroke="#191970" points="960.2552,-127.8194 949.6635,-128.0764 958.1037,-134.4805 960.2552,-127.8194"/>
</g>
<!-- Node25&#45;&gt;Node22 -->
<g id="edge60" class="edge">
<title>Node25&#45;&gt;Node22</title>
<path fill="none" stroke="#191970" d="M1004.2283,-392.3957C1009.497,-383.269 1017.2637,-369.04 1022.5,-356 1053.4811,-278.8476 1076.9692,-182.2502 1086.211,-141.5297"/>
<polygon fill="#191970" stroke="#191970" points="1089.6672,-142.1116 1088.4342,-131.5887 1082.836,-140.5837 1089.6672,-142.1116"/>
</g>
<!-- Node25&#45;&gt;Node24 -->
<g id="edge59" class="edge">
<title>Node25&#45;&gt;Node24</title>
<path fill="none" stroke="#191970" d="M991.931,-392.4862C973.2765,-365.4695 919.7446,-287.9405 895.1427,-252.3102"/>
<polygon fill="#191970" stroke="#191970" points="897.848,-250.0682 889.2859,-243.8279 892.0877,-254.0456 897.848,-250.0682"/>
</g>
<!-- Node26 -->
<g id="node27" class="node">
<title>Node26</title>
<g id="a_node27"><a xlink:href="Position_8h.html" target="_top" xlink:title="Position.h">
<polygon fill="none" stroke="#000000" points="311,-336.5 311,-355.5 376,-355.5 376,-336.5 311,-336.5"/>
<text text-anchor="middle" x="343.5" y="-343.5" font-family="FreeSans.ttf" font-size="10.00" fill="#000000">Position.h</text>
</a>
</g>
</g>
<!-- Node25&#45;&gt;Node26 -->
<g id="edge45" class="edge">
<title>Node25&#45;&gt;Node26</title>
<path fill="none" stroke="#191970" d="M917.8559,-395.1052C777.7096,-383.1233 493.895,-358.8582 386.227,-349.653"/>
<polygon fill="#191970" stroke="#191970" points="386.3306,-346.1492 376.0688,-348.7845 385.7343,-353.1237 386.3306,-346.1492"/>
</g>
<!-- Node28 -->
<g id="node29" class="node">
<title>Node28</title>
<g id="a_node29"><a xlink:href="Rotation_8h.html" target="_top" xlink:title="iDynTree/Core/Rotation.h">
<polygon fill="none" stroke="#000000" points="521,-280.5 521,-299.5 658,-299.5 658,-280.5 521,-280.5"/>
<text text-anchor="middle" x="589.5" y="-287.5" font-family="FreeSans.ttf" font-size="10.00" fill="#000000">iDynTree/Core/Rotation.h</text>
</a>
</g>
</g>
<!-- Node25&#45;&gt;Node28 -->
<g id="edge57" class="edge">
<title>Node25&#45;&gt;Node28</title>
<path fill="none" stroke="#191970" d="M963.6289,-392.4509C889.4512,-372.1382 716.1051,-324.6694 634.0588,-302.2019"/>
<polygon fill="#191970" stroke="#191970" points="634.8522,-298.7904 624.2828,-299.5249 633.0033,-305.5418 634.8522,-298.7904"/>
</g>
<!-- Node26&#45;&gt;Node13 -->
<g id="edge56" class="edge">
<title>Node26&#45;&gt;Node13</title>
<path fill="none" stroke="#191970" d="M326.3353,-336.3982C293.3668,-316.6427 226.5619,-269.4726 251.5,-224 278.6917,-174.4181 341.3582,-145.4676 379.6981,-131.7735"/>
<polygon fill="#191970" stroke="#191970" points="381.0266,-135.0181 389.351,-128.464 378.7564,-128.3964 381.0266,-135.0181"/>
</g>
<!-- Node27 -->
<g id="node28" class="node">
<title>Node27</title>
<g id="a_node28"><a xlink:href="PositionRaw_8h.html" target="_top" xlink:title="iDynTree/Core/PositionRaw.h">
<polygon fill="none" stroke="#000000" points="260.5,-224.5 260.5,-243.5 416.5,-243.5 416.5,-224.5 260.5,-224.5"/>
<text text-anchor="middle" x="338.5" y="-231.5" font-family="FreeSans.ttf" font-size="10.00" fill="#000000">iDynTree/Core/PositionRaw.h</text>
</a>
</g>
</g>
<!-- Node26&#45;&gt;Node27 -->
<g id="edge46" class="edge">
<title>Node26&#45;&gt;Node27</title>
<path fill="none" stroke="#191970" d="M343.0737,-336.4509C342.2582,-318.184 340.4623,-277.9553 339.3794,-253.6976"/>
<polygon fill="#191970" stroke="#191970" points="342.8678,-253.3588 338.9252,-243.5249 335.8748,-253.6711 342.8678,-253.3588"/>
</g>
<!-- Node26&#45;&gt;Node28 -->
<g id="edge49" class="edge">
<title>Node26&#45;&gt;Node28</title>
<path fill="none" stroke="#191970" d="M376.1669,-338.5636C417.4089,-329.1752 488.8486,-312.9125 537.5976,-301.8152"/>
<polygon fill="#191970" stroke="#191970" points="538.663,-305.1623 547.6366,-299.5299 537.1092,-298.3369 538.663,-305.1623"/>
</g>
<!-- Node27&#45;&gt;Node13 -->
<g id="edge48" class="edge">
<title>Node27&#45;&gt;Node13</title>
<path fill="none" stroke="#191970" d="M344.7239,-224.4509C356.8995,-205.7707 384.0443,-164.1238 399.7182,-140.0761"/>
<polygon fill="#191970" stroke="#191970" points="402.7635,-141.8137 405.2918,-131.5249 396.8992,-137.9913 402.7635,-141.8137"/>
</g>
<!-- Node27&#45;&gt;Node14 -->
<g id="edge47" class="edge">
<title>Node27&#45;&gt;Node14</title>
<path fill="none" stroke="#191970" d="M407.491,-224.4369C478.5208,-214.5912 589.0488,-199.2705 663.5309,-188.9462"/>
<polygon fill="#191970" stroke="#191970" points="664.3688,-192.3636 673.7935,-187.5237 663.4076,-185.4299 664.3688,-192.3636"/>
</g>
<!-- Node28&#45;&gt;Node13 -->
<g id="edge50" class="edge">
<title>Node28&#45;&gt;Node13</title>
<path fill="none" stroke="#191970" d="M561.8127,-280.4758C525.2254,-266.3615 461.6606,-236.2409 429.5,-188 420.2468,-174.1203 415.7289,-155.6039 413.5355,-141.7165"/>
<polygon fill="#191970" stroke="#191970" points="416.999,-141.2088 412.2288,-131.7486 410.0584,-142.1187 416.999,-141.2088"/>
</g>
<!-- Node28&#45;&gt;Node14 -->
<g id="edge55" class="edge">
<title>Node28&#45;&gt;Node14</title>
<path fill="none" stroke="#191970" d="M612.3231,-280.4532C630.7868,-272.1847 656.995,-259.1825 677.5,-244 696.7319,-229.7602 715.5666,-209.7765 727.9686,-195.5369"/>
<polygon fill="#191970" stroke="#191970" points="730.6535,-197.7824 734.4817,-187.9033 725.3284,-193.2388 730.6535,-197.7824"/>
</g>
<!-- Node28&#45;&gt;Node24 -->
<g id="edge51" class="edge">
<title>Node28&#45;&gt;Node24</title>
<path fill="none" stroke="#191970" d="M639.5356,-280.4369C690.207,-270.7522 768.5948,-255.7703 822.5559,-245.4569"/>
<polygon fill="#191970" stroke="#191970" points="823.5057,-248.8388 832.6708,-243.5237 822.1915,-241.9633 823.5057,-248.8388"/>
</g>
<!-- Node29 -->
<g id="node30" class="node">
<title>Node29</title>
<g id="a_node30"><a xlink:href="RotationRaw_8h.html" target="_top" xlink:title="iDynTree/Core/RotationRaw.h">
<polygon fill="none" stroke="#000000" points="510.5,-224.5 510.5,-243.5 668.5,-243.5 668.5,-224.5 510.5,-224.5"/>
<text text-anchor="middle" x="589.5" y="-231.5" font-family="FreeSans.ttf" font-size="10.00" fill="#000000">iDynTree/Core/RotationRaw.h</text>
</a>
</g>
</g>
<!-- Node28&#45;&gt;Node29 -->
<g id="edge52" class="edge">
<title>Node28&#45;&gt;Node29</title>
<path fill="none" stroke="#191970" d="M589.5,-280.2455C589.5,-272.9382 589.5,-262.6944 589.5,-253.7046"/>
<polygon fill="#191970" stroke="#191970" points="593.0001,-253.6426 589.5,-243.6427 586.0001,-253.6427 593.0001,-253.6426"/>
</g>
<!-- Node29&#45;&gt;Node13 -->
<g id="edge54" class="edge">
<title>Node29&#45;&gt;Node13</title>
<path fill="none" stroke="#191970" d="M598.8392,-224.0985C610.7081,-210.2928 628.1116,-185.0411 614.5,-168 603.8491,-154.6655 498.3798,-135.9626 443.8276,-127.075"/>
<polygon fill="#191970" stroke="#191970" points="444.0688,-123.5688 433.6393,-125.4329 442.9549,-130.4796 444.0688,-123.5688"/>
</g>
<!-- Node29&#45;&gt;Node21 -->
<g id="edge53" class="edge">
<title>Node29&#45;&gt;Node21</title>
<path fill="none" stroke="#191970" d="M646.1956,-224.4369C704.0891,-214.6717 793.9128,-199.5207 855.0966,-189.2006"/>
<polygon fill="#191970" stroke="#191970" points="855.7597,-192.6383 865.0382,-187.5237 854.5954,-185.7358 855.7597,-192.6383"/>
</g>
<!-- Node30&#45;&gt;Node14 -->
<g id="edge63" class="edge">
<title>Node30&#45;&gt;Node14</title>
<path fill="none" stroke="#191970" d="M1049.5324,-448.3603C1064.3862,-439.9673 1080.1656,-427.9543 1088.5,-412 1092.6157,-404.1213 1091.128,-400.4915 1088.5,-392 1061.7486,-305.5603 1049.0106,-273.8559 973.5,-224 950.4904,-208.8079 887.6204,-196.8567 833.2707,-188.9476"/>
<polygon fill="#191970" stroke="#191970" points="833.6267,-185.4631 823.2331,-187.518 832.6396,-192.3932 833.6267,-185.4631"/>
</g>
<!-- Node30&#45;&gt;Node24 -->
<g id="edge64" class="edge">
<title>Node30&#45;&gt;Node24</title>
<path fill="none" stroke="#191970" d="M960.3392,-448.4889C941.467,-440.6089 921.9258,-428.9471 909.5,-412 874.3117,-364.0078 876.5299,-288.9444 879.9779,-253.6231"/>
<polygon fill="#191970" stroke="#191970" points="883.4615,-253.9633 881.0947,-243.6363 876.5049,-253.1853 883.4615,-253.9633"/>
</g>
<!-- Node30&#45;&gt;Node25 -->
<g id="edge65" class="edge">
<title>Node30&#45;&gt;Node25</title>
<path fill="none" stroke="#191970" d="M1010.5449,-448.2977C1008.4628,-440.2945 1005.8845,-430.3843 1003.6483,-421.7889"/>
<polygon fill="#191970" stroke="#191970" points="1006.9669,-420.6435 1001.0618,-411.8469 1000.1924,-422.406 1006.9669,-420.6435"/>
</g>
<!-- Node31&#45;&gt;Node13 -->
<g id="edge70" class="edge">
<title>Node31&#45;&gt;Node13</title>
<path fill="none" stroke="#191970" d="M308.1891,-392.4663C264.1278,-378.1751 194.5,-346.632 194.5,-290 194.5,-290 194.5,-290 194.5,-234 194.5,-151.8117 318.9394,-129.8736 379.3504,-124.0659"/>
<polygon fill="#191970" stroke="#191970" points="379.839,-127.5367 389.4987,-123.1847 379.2334,-120.563 379.839,-127.5367"/>
</g>
<!-- Node31&#45;&gt;Node21 -->
<g id="edge69" class="edge">
<title>Node31&#45;&gt;Node21</title>
<path fill="none" stroke="#191970" d="M416.7154,-394.741C567.6546,-378.1058 905.0483,-331.7388 973.5,-244 987.1172,-226.5459 966.3161,-206.592 947.118,-193.2358"/>
<polygon fill="#191970" stroke="#191970" points="948.8181,-190.1649 938.5394,-187.5961 944.9727,-196.0141 948.8181,-190.1649"/>
</g>
<!-- Node31&#45;&gt;Node26 -->
<g id="edge67" class="edge">
<title>Node31&#45;&gt;Node26</title>
<path fill="none" stroke="#191970" d="M343.5,-392.2455C343.5,-384.9382 343.5,-374.6944 343.5,-365.7046"/>
<polygon fill="#191970" stroke="#191970" points="347.0001,-365.6426 343.5,-355.6427 340.0001,-365.6427 347.0001,-365.6426"/>
</g>
<!-- Node31&#45;&gt;Node28 -->
<g id="edge68" class="edge">
<title>Node31&#45;&gt;Node28</title>
<path fill="none" stroke="#191970" d="M364.4738,-392.4509C408.1361,-372.5722 508.9237,-326.6852 559.4626,-303.6756"/>
<polygon fill="#191970" stroke="#191970" points="560.9284,-306.8539 568.5793,-299.5249 558.0278,-300.4832 560.9284,-306.8539"/>
</g>
</g>
</svg>
