<?xml version="1.0" encoding="UTF-8" standalone="no"?>
<!DOCTYPE svg PUBLIC "-//W3C//DTD SVG 1.1//EN"
 "http://www.w3.org/Graphics/SVG/1.1/DTD/svg11.dtd">
<!-- Generated by graphviz version 2.40.1 (20161225.0304)
 -->
<!-- Title: ExtWrenchesAndJointTorquesEstimator.cpp Pages: 1 -->
<svg width="3103pt" height="665pt"
 viewBox="0.00 0.00 3103.46 665.00" xmlns="http://www.w3.org/2000/svg" xmlns:xlink="http://www.w3.org/1999/xlink">
<g id="graph0" class="graph" transform="scale(1 1) rotate(0) translate(4 661)">
<title>ExtWrenchesAndJointTorquesEstimator.cpp</title>
<!-- Node0 -->
<g id="node1" class="node">
<title>Node0</title>
<polygon fill="#bfbfbf" stroke="#000000" points="1210,-626.5 1210,-656.5 1368,-656.5 1368,-626.5 1210,-626.5"/>
<text text-anchor="start" x="1218" y="-644.5" font-family="FreeSans.ttf" font-size="10.00" fill="#000000">ExtWrenchesAndJointTorques</text>
<text text-anchor="middle" x="1289" y="-633.5" font-family="FreeSans.ttf" font-size="10.00" fill="#000000">Estimator.cpp</text>
</g>
<!-- Node1 -->
<g id="node2" class="node">
<title>Node1</title>
<g id="a_node2"><a xlink:href="ExtWrenchesAndJointTorquesEstimator_8h.html" target="_top" xlink:title="iDynTree/Estimation\l/ExtWrenchesAndJointTorques\lEstimator.h">
<polygon fill="none" stroke="#000000" points="1494.5,-548.5 1494.5,-589.5 1655.5,-589.5 1655.5,-548.5 1494.5,-548.5"/>
<text text-anchor="start" x="1502.5" y="-577.5" font-family="FreeSans.ttf" font-size="10.00" fill="#000000">iDynTree/Estimation</text>
<text text-anchor="start" x="1502.5" y="-566.5" font-family="FreeSans.ttf" font-size="10.00" fill="#000000">/ExtWrenchesAndJointTorques</text>
<text text-anchor="middle" x="1575" y="-555.5" font-family="FreeSans.ttf" font-size="10.00" fill="#000000">Estimator.h</text>
</a>
</g>
</g>
<!-- Node0&#45;&gt;Node1 -->
<g id="edge1" class="edge">
<title>Node0&#45;&gt;Node1</title>
<path fill="none" stroke="#191970" d="M1348.2594,-626.478C1387.5802,-616.5103 1439.9435,-603.2363 1484.4424,-591.956"/>
<polygon fill="#191970" stroke="#191970" points="1485.5614,-595.2831 1494.3948,-589.4331 1483.8413,-588.4978 1485.5614,-595.2831"/>
</g>
<!-- Node2 -->
<g id="node3" class="node">
<title>Node2</title>
<g id="a_node3"><a xlink:href="ExternalWrenchesEstimation_8h.html" target="_top" xlink:title="iDynTree/Estimation\l/ExternalWrenchesEstimation.h">
<polygon fill="none" stroke="#000000" points="1430.5,-425.5 1430.5,-455.5 1599.5,-455.5 1599.5,-425.5 1430.5,-425.5"/>
<text text-anchor="start" x="1438.5" y="-443.5" font-family="FreeSans.ttf" font-size="10.00" fill="#000000">iDynTree/Estimation</text>
<text text-anchor="middle" x="1515" y="-432.5" font-family="FreeSans.ttf" font-size="10.00" fill="#000000">/ExternalWrenchesEstimation.h</text>
</a>
</g>
</g>
<!-- Node0&#45;&gt;Node2 -->
<g id="edge103" class="edge">
<title>Node0&#45;&gt;Node2</title>
<path fill="none" stroke="#191970" d="M1291.9419,-626.2734C1296.4667,-606.2975 1306.811,-571.0794 1327,-548 1363.6304,-506.1253 1420.727,-476.7428 1462.3914,-459.4018"/>
<polygon fill="#191970" stroke="#191970" points="1463.8819,-462.5741 1471.8299,-455.5684 1461.2478,-456.0886 1463.8819,-462.5741"/>
</g>
<!-- Node18 -->
<g id="node9" class="node">
<title>Node18</title>
<polygon fill="none" stroke="#bfbfbf" points="854,-56.5 854,-75.5 910,-75.5 910,-56.5 854,-56.5"/>
<text text-anchor="middle" x="882" y="-63.5" font-family="FreeSans.ttf" font-size="10.00" fill="#000000">sstream</text>
</g>
<!-- Node0&#45;&gt;Node18 -->
<g id="edge148" class="edge">
<title>Node0&#45;&gt;Node18</title>
<path fill="none" stroke="#191970" d="M1209.9658,-640.9974C961.6125,-639.0118 207.3072,-629.7407 105,-590 48.2428,-567.9529 0,-562.8889 0,-502 0,-502 0,-502 0,-312 0,-216.3298 70.4131,-201.5706 160,-168 287.8399,-120.095 712.7742,-80.5077 843.4366,-69.2277"/>
<polygon fill="#191970" stroke="#191970" points="844.081,-72.6854 853.7455,-68.344 843.4831,-65.711 844.081,-72.6854"/>
</g>
<!-- Node32 -->
<g id="node15" class="node">
<title>Node32</title>
<g id="a_node15"><a xlink:href="LinkState_8h.html" target="_top" xlink:title="iDynTree/Model/LinkState.h">
<polygon fill="none" stroke="#000000" points="748.5,-364 748.5,-383 897.5,-383 897.5,-364 748.5,-364"/>
<text text-anchor="middle" x="823" y="-371" font-family="FreeSans.ttf" font-size="10.00" fill="#000000">iDynTree/Model/LinkState.h</text>
</a>
</g>
</g>
<!-- Node0&#45;&gt;Node32 -->
<g id="edge124" class="edge">
<title>Node0&#45;&gt;Node32</title>
<path fill="none" stroke="#191970" d="M1209.8351,-633.8814C1127.3735,-625.0966 1004.2823,-609.3496 961,-590 875.0703,-551.5846 837.3357,-541.0452 797,-456 787.009,-434.9348 798.6982,-409.0778 809.4463,-391.9883"/>
<polygon fill="#191970" stroke="#191970" points="812.4922,-393.7313 815.177,-383.4822 806.6868,-389.8201 812.4922,-393.7313"/>
</g>
<!-- Node42 -->
<g id="node26" class="node">
<title>Node42</title>
<g id="a_node26"><a xlink:href="Model_8h.html" target="_top" xlink:title="iDynTree/Model/Model.h">
<polygon fill="none" stroke="#000000" points="2210.5,-431 2210.5,-450 2343.5,-450 2343.5,-431 2210.5,-431"/>
<text text-anchor="middle" x="2277" y="-438" font-family="FreeSans.ttf" font-size="10.00" fill="#000000">iDynTree/Model/Model.h</text>
</a>
</g>
</g>
<!-- Node0&#45;&gt;Node42 -->
<g id="edge121" class="edge">
<title>Node0&#45;&gt;Node42</title>
<path fill="none" stroke="#191970" d="M1368.339,-640.7107C1613.2843,-637.8891 2343.2382,-626.4446 2378,-590 2386.9049,-580.664 2373.9526,-494.9138 2372,-492 2359.9388,-474.0012 2339.4259,-461.7608 2320.5415,-453.7464"/>
<polygon fill="#191970" stroke="#191970" points="2321.7446,-450.4585 2311.1581,-450.0387 2319.1722,-456.9687 2321.7446,-450.4585"/>
</g>
<!-- Node51 -->
<g id="node31" class="node">
<title>Node51</title>
<g id="a_node31"><a xlink:href="SubModel_8h.html" target="_top" xlink:title="iDynTree/Model/SubModel.h">
<polygon fill="none" stroke="#000000" points="2361.5,-364 2361.5,-383 2512.5,-383 2512.5,-364 2361.5,-364"/>
<text text-anchor="middle" x="2437" y="-371" font-family="FreeSans.ttf" font-size="10.00" fill="#000000">iDynTree/Model/SubModel.h</text>
</a>
</g>
</g>
<!-- Node0&#45;&gt;Node51 -->
<g id="edge123" class="edge">
<title>Node0&#45;&gt;Node51</title>
<path fill="none" stroke="#191970" d="M1368.0712,-637.268C1469.6167,-630.8476 1639.4926,-616.4921 1696,-590 1720.7706,-578.3869 1718.151,-563.0455 1741,-548 1774.2424,-526.1107 1787.4306,-529.8609 1823,-512 1892.9063,-476.897 1901.5453,-448.9917 1976,-425 2119.3704,-378.8014 2163.3717,-406.3424 2313,-389 2325.7942,-387.5171 2339.323,-385.8884 2352.5576,-384.2613"/>
<polygon fill="#191970" stroke="#191970" points="2353.1086,-387.7199 2362.6038,-383.0198 2352.25,-380.7728 2353.1086,-387.7199"/>
</g>
<!-- Node52 -->
<g id="node32" class="node">
<title>Node52</title>
<g id="a_node32"><a xlink:href="ContactWrench_8h.html" target="_top" xlink:title="iDynTree/Model/ContactWrench.h">
<polygon fill="none" stroke="#000000" points="817.5,-431 817.5,-450 994.5,-450 994.5,-431 817.5,-431"/>
<text text-anchor="middle" x="906" y="-438" font-family="FreeSans.ttf" font-size="10.00" fill="#000000">iDynTree/Model/ContactWrench.h</text>
</a>
</g>
</g>
<!-- Node0&#45;&gt;Node52 -->
<g id="edge126" class="edge">
<title>Node0&#45;&gt;Node52</title>
<path fill="none" stroke="#191970" d="M1209.7341,-633.8366C1138.6184,-625.742 1040.5857,-611.1941 1008,-590 958.5419,-557.8319 926.7611,-492.4216 913.3341,-459.8415"/>
<polygon fill="#191970" stroke="#191970" points="916.4282,-458.1495 909.4853,-450.1466 909.9222,-460.7324 916.4282,-458.1495"/>
</g>
<!-- Node53 -->
<g id="node33" class="node">
<title>Node53</title>
<g id="a_node33"><a xlink:href="Traversal_8h.html" target="_top" xlink:title="iDynTree/Model/Traversal.h">
<polygon fill="none" stroke="#000000" points="1641,-492.5 1641,-511.5 1789,-511.5 1789,-492.5 1641,-492.5"/>
<text text-anchor="middle" x="1715" y="-499.5" font-family="FreeSans.ttf" font-size="10.00" fill="#000000">iDynTree/Model/Traversal.h</text>
</a>
</g>
</g>
<!-- Node0&#45;&gt;Node53 -->
<g id="edge122" class="edge">
<title>Node0&#45;&gt;Node53</title>
<path fill="none" stroke="#191970" d="M1368.0546,-638.6965C1463.4766,-633.9496 1617.0031,-621.5363 1664,-590 1688.2234,-573.7454 1702.4215,-541.8227 1709.4458,-521.2231"/>
<polygon fill="#191970" stroke="#191970" points="1712.8026,-522.2158 1712.4802,-511.6259 1706.1283,-520.1055 1712.8026,-522.2158"/>
</g>
<!-- Node54 -->
<g id="node34" class="node">
<title>Node54</title>
<g id="a_node34"><a xlink:href="JointState_8h.html" target="_top" xlink:title="iDynTree/Model/JointState.h">
<polygon fill="none" stroke="#000000" points="953.5,-364 953.5,-383 1104.5,-383 1104.5,-364 953.5,-364"/>
<text text-anchor="middle" x="1029" y="-371" font-family="FreeSans.ttf" font-size="10.00" fill="#000000">iDynTree/Model/JointState.h</text>
</a>
</g>
</g>
<!-- Node0&#45;&gt;Node54 -->
<g id="edge125" class="edge">
<title>Node0&#45;&gt;Node54</title>
<path fill="none" stroke="#191970" d="M1257.5365,-626.4459C1205.3412,-599.7728 1101.3284,-539.094 1048,-456 1035.7643,-436.935 1031.3749,-410.9219 1029.8189,-393.2378"/>
<polygon fill="#191970" stroke="#191970" points="1033.3082,-392.9577 1029.1614,-383.2081 1026.3232,-393.4157 1033.3082,-392.9577"/>
</g>
<!-- Node57 -->
<g id="node37" class="node">
<title>Node57</title>
<g id="a_node37"><a xlink:href="Sensors_8h.html" target="_top" xlink:title="iDynTree/Sensors/Sensors.h">
<polygon fill="none" stroke="#000000" points="1935.5,-492.5 1935.5,-511.5 2086.5,-511.5 2086.5,-492.5 1935.5,-492.5"/>
<text text-anchor="middle" x="2011" y="-499.5" font-family="FreeSans.ttf" font-size="10.00" fill="#000000">iDynTree/Sensors/Sensors.h</text>
</a>
</g>
</g>
<!-- Node0&#45;&gt;Node57 -->
<g id="edge134" class="edge">
<title>Node0&#45;&gt;Node57</title>
<path fill="none" stroke="#191970" d="M1368.2667,-639.6479C1575.5511,-634.4203 2119.5592,-618.0774 2146,-590 2158.7973,-576.4106 2156.8642,-563.1794 2146,-548 2136.2703,-534.4057 2099.2451,-522.3544 2066.4262,-514.0004"/>
<polygon fill="#191970" stroke="#191970" points="2066.9583,-510.5268 2056.411,-511.5289 2065.2811,-517.3229 2066.9583,-510.5268"/>
</g>
<!-- Node58 -->
<g id="node39" class="node">
<title>Node58</title>
<g id="a_node39"><a xlink:href="EigenHelpers_8h.html" target="_top" xlink:title="iDynTree/Core/EigenHelpers.h">
<polygon fill="none" stroke="#000000" points="489.5,-364 489.5,-383 650.5,-383 650.5,-364 489.5,-364"/>
<text text-anchor="middle" x="570" y="-371" font-family="FreeSans.ttf" font-size="10.00" fill="#000000">iDynTree/Core/EigenHelpers.h</text>
</a>
</g>
</g>
<!-- Node0&#45;&gt;Node58 -->
<g id="edge104" class="edge">
<title>Node0&#45;&gt;Node58</title>
<path fill="none" stroke="#191970" d="M1209.6059,-636.426C1106.0191,-628.999 930.9181,-613.4515 871,-590 748.2368,-541.9513 629.254,-432.2198 586.572,-390.2497"/>
<polygon fill="#191970" stroke="#191970" points="588.8504,-387.5796 579.2897,-383.0139 583.9165,-392.5452 588.8504,-387.5796"/>
</g>
<!-- Node60 -->
<g id="node41" class="node">
<title>Node60</title>
<g id="a_node41"><a xlink:href="EigenMathHelpers_8h.html" target="_top" xlink:title="iDynTree/Core/EigenMathHelpers.h">
<polygon fill="none" stroke="#000000" points="307.5,-492.5 307.5,-511.5 492.5,-511.5 492.5,-492.5 307.5,-492.5"/>
<text text-anchor="middle" x="400" y="-499.5" font-family="FreeSans.ttf" font-size="10.00" fill="#000000">iDynTree/Core/EigenMathHelpers.h</text>
</a>
</g>
</g>
<!-- Node0&#45;&gt;Node60 -->
<g id="edge115" class="edge">
<title>Node0&#45;&gt;Node60</title>
<path fill="none" stroke="#191970" d="M1209.7518,-638.9023C1024.884,-632.4635 575.9059,-614.4987 512,-590 472.251,-574.762 435.3149,-540.2245 415.383,-519.2342"/>
<polygon fill="#191970" stroke="#191970" points="417.7398,-516.6279 408.3775,-511.6682 412.6034,-521.3838 417.7398,-516.6279"/>
</g>
<!-- Node48 -->
<g id="node42" class="node">
<title>Node48</title>
<g id="a_node42"><a xlink:href="SpatialMomentum_8h.html" target="_top" xlink:title="iDynTree/Core/SpatialMomentum.h">
<polygon fill="none" stroke="#000000" points="93,-492.5 93,-511.5 279,-511.5 279,-492.5 93,-492.5"/>
<text text-anchor="middle" x="186" y="-499.5" font-family="FreeSans.ttf" font-size="10.00" fill="#000000">iDynTree/Core/SpatialMomentum.h</text>
</a>
</g>
</g>
<!-- Node0&#45;&gt;Node48 -->
<g id="edge117" class="edge">
<title>Node0&#45;&gt;Node48</title>
<path fill="none" stroke="#191970" d="M1209.8299,-639.3787C1028.822,-634.0909 589.1854,-618.644 444,-590 359.4729,-573.3234 264.692,-535.8626 216.9876,-515.612"/>
<polygon fill="#191970" stroke="#191970" points="218.1134,-512.2867 207.5432,-511.5656 215.3567,-518.721 218.1134,-512.2867"/>
</g>
<!-- Node61 -->
<g id="node43" class="node">
<title>Node61</title>
<g id="a_node43"><a xlink:href="ClassicalAcc_8h.html" target="_top" xlink:title="iDynTree/Core/ClassicalAcc.h">
<polygon fill="none" stroke="#000000" points="66,-241 66,-260 224,-260 224,-241 66,-241"/>
<text text-anchor="middle" x="145" y="-248" font-family="FreeSans.ttf" font-size="10.00" fill="#000000">iDynTree/Core/ClassicalAcc.h</text>
</a>
</g>
</g>
<!-- Node0&#45;&gt;Node61 -->
<g id="edge119" class="edge">
<title>Node0&#45;&gt;Node61</title>
<path fill="none" stroke="#191970" d="M1209.5737,-640.9876C934.9018,-638.179 42,-619.9759 42,-502 42,-502 42,-502 42,-373.5 42,-325.3347 88.9998,-286.1153 119.5021,-265.7341"/>
<polygon fill="#191970" stroke="#191970" points="121.485,-268.6201 127.9916,-260.2586 117.6909,-262.7375 121.485,-268.6201"/>
</g>
<!-- Node62 -->
<g id="node44" class="node">
<title>Node62</title>
<g id="a_node44"><a xlink:href="Dynamics_8h.html" target="_top" xlink:title="iDynTree/Model/Dynamics.h">
<polygon fill="none" stroke="#000000" points="1260,-431 1260,-450 1412,-450 1412,-431 1260,-431"/>
<text text-anchor="middle" x="1336" y="-438" font-family="FreeSans.ttf" font-size="10.00" fill="#000000">iDynTree/Model/Dynamics.h</text>
</a>
</g>
</g>
<!-- Node0&#45;&gt;Node62 -->
<g id="edge127" class="edge">
<title>Node0&#45;&gt;Node62</title>
<path fill="none" stroke="#191970" d="M1286.4348,-626.4626C1282.3721,-598.8044 1276.583,-538.4431 1294,-492 1298.9374,-478.8343 1308.6928,-466.532 1317.5597,-457.2549"/>
<polygon fill="#191970" stroke="#191970" points="1320.0234,-459.741 1324.6737,-450.2213 1315.1018,-454.7632 1320.0234,-459.741"/>
</g>
<!-- Node63 -->
<g id="node45" class="node">
<title>Node63</title>
<g id="a_node45"><a xlink:href="ModelTransformers_8h.html" target="_top" xlink:title="Collection of function to modify model in various ways. ">
<polygon fill="none" stroke="#000000" points="1750.5,-559.5 1750.5,-578.5 1947.5,-578.5 1947.5,-559.5 1750.5,-559.5"/>
<text text-anchor="middle" x="1849" y="-566.5" font-family="FreeSans.ttf" font-size="10.00" fill="#000000">iDynTree/Model/ModelTransformers.h</text>
</a>
</g>
</g>
<!-- Node0&#45;&gt;Node63 -->
<g id="edge132" class="edge">
<title>Node0&#45;&gt;Node63</title>
<path fill="none" stroke="#191970" d="M1368.3489,-634.0284C1457.8849,-625.2099 1607.7661,-609.2791 1736,-590 1754.1444,-587.2721 1773.8332,-583.7945 1791.6161,-580.4577"/>
<polygon fill="#191970" stroke="#191970" points="1792.6687,-583.8204 1801.8401,-578.5161 1791.3626,-576.9434 1792.6687,-583.8204"/>
</g>
<!-- Node64 -->
<g id="node46" class="node">
<title>Node64</title>
<g id="a_node46"><a xlink:href="ModelSensorsTransformers_8h.html" target="_top" xlink:title="Collection of function to modify model and sensors in various ways. ">
<polygon fill="none" stroke="#000000" points="1965.5,-554 1965.5,-584 2136.5,-584 2136.5,-554 1965.5,-554"/>
<text text-anchor="start" x="1973.5" y="-572" font-family="FreeSans.ttf" font-size="10.00" fill="#000000">iDynTree/Sensors/ModelSensors</text>
<text text-anchor="middle" x="2051" y="-561" font-family="FreeSans.ttf" font-size="10.00" fill="#000000">Transformers.h</text>
</a>
</g>
</g>
<!-- Node0&#45;&gt;Node64 -->
<g id="edge133" class="edge">
<title>Node0&#45;&gt;Node64</title>
<path fill="none" stroke="#191970" d="M1368.078,-639.059C1493.5314,-634.3666 1745.6168,-621.595 1957,-590 1964.3594,-588.9 1972.0006,-587.5479 1979.6033,-586.0645"/>
<polygon fill="#191970" stroke="#191970" points="1980.443,-589.4656 1989.5486,-584.0491 1979.0526,-582.6051 1980.443,-589.4656"/>
</g>
<!-- Node65 -->
<g id="node47" class="node">
<title>Node65</title>
<g id="a_node47"><a xlink:href="SixAxisForceTorqueSensor_8h.html" target="_top" xlink:title="iDynTree/Sensors/SixAxis\lForceTorqueSensor.h">
<polygon fill="none" stroke="#000000" points="1336,-554 1336,-584 1476,-584 1476,-554 1336,-554"/>
<text text-anchor="start" x="1344" y="-572" font-family="FreeSans.ttf" font-size="10.00" fill="#000000">iDynTree/Sensors/SixAxis</text>
<text text-anchor="middle" x="1406" y="-561" font-family="FreeSans.ttf" font-size="10.00" fill="#000000">ForceTorqueSensor.h</text>
</a>
</g>
</g>
<!-- Node0&#45;&gt;Node65 -->
<g id="edge135" class="edge">
<title>Node0&#45;&gt;Node65</title>
<path fill="none" stroke="#191970" d="M1313.2425,-626.478C1330.5772,-615.7363 1354.1084,-601.1551 1373.1319,-589.367"/>
<polygon fill="#191970" stroke="#191970" points="1375.1318,-592.2453 1381.7886,-584.0028 1371.4447,-586.295 1375.1318,-592.2453"/>
</g>
<!-- Node66 -->
<g id="node48" class="node">
<title>Node66</title>
<g id="a_node48"><a xlink:href="PredictSensorsMeasurements_8h.html" target="_top" xlink:title="iDynTree/Sensors/Predict\lSensorsMeasurements.h">
<polygon fill="none" stroke="#000000" points="401.5,-425.5 401.5,-455.5 538.5,-455.5 538.5,-425.5 401.5,-425.5"/>
<text text-anchor="start" x="409.5" y="-443.5" font-family="FreeSans.ttf" font-size="10.00" fill="#000000">iDynTree/Sensors/Predict</text>
<text text-anchor="middle" x="470" y="-432.5" font-family="FreeSans.ttf" font-size="10.00" fill="#000000">SensorsMeasurements.h</text>
</a>
</g>
</g>
<!-- Node0&#45;&gt;Node66 -->
<g id="edge139" class="edge">
<title>Node0&#45;&gt;Node66</title>
<path fill="none" stroke="#191970" d="M1209.8214,-640.2605C1030.9631,-636.8509 607.0326,-625.1238 553,-590 511.6595,-563.1267 525.2788,-534.9156 501,-492 495.8679,-482.9283 490.0218,-473.0964 484.8,-464.4782"/>
<polygon fill="#191970" stroke="#191970" points="487.6382,-462.41 479.4421,-455.6963 481.6626,-466.0558 487.6382,-462.41"/>
</g>
<!-- Node67 -->
<g id="node49" class="node">
<title>Node67</title>
<g id="a_node49"><a xlink:href="ModelLoader_8h.html" target="_top" xlink:title="iDynTree/ModelIO/ModelLoader.h">
<polygon fill="none" stroke="#000000" points="2193,-559.5 2193,-578.5 2369,-578.5 2369,-559.5 2193,-559.5"/>
<text text-anchor="middle" x="2281" y="-566.5" font-family="FreeSans.ttf" font-size="10.00" fill="#000000">iDynTree/ModelIO/ModelLoader.h</text>
</a>
</g>
</g>
<!-- Node0&#45;&gt;Node67 -->
<g id="edge142" class="edge">
<title>Node0&#45;&gt;Node67</title>
<path fill="none" stroke="#191970" d="M1368.3107,-638.3909C1556.0274,-630.7924 2023.4321,-610.4055 2179,-590 2196.2203,-587.7412 2214.8795,-584.2207 2231.4728,-580.7034"/>
<polygon fill="#191970" stroke="#191970" points="2232.4765,-584.0671 2241.5062,-578.525 2230.9913,-577.2264 2232.4765,-584.0671"/>
</g>
<!-- Node1&#45;&gt;Node2 -->
<g id="edge2" class="edge">
<title>Node1&#45;&gt;Node2</title>
<path fill="none" stroke="#191970" d="M1565.36,-548.3543C1554.7622,-525.6573 1537.7461,-489.2146 1526.4704,-465.0658"/>
<polygon fill="#191970" stroke="#191970" points="1529.5707,-463.4327 1522.1685,-455.8526 1523.228,-466.3943 1529.5707,-463.4327"/>
</g>
<!-- Node1&#45;&gt;Node42 -->
<g id="edge50" class="edge">
<title>Node1&#45;&gt;Node42</title>
<path fill="none" stroke="#191970" d="M1655.5845,-558.398C1682.706,-554.9384 1713.1478,-551.1735 1741,-548 1898.5675,-530.0468 1941.9072,-549.4867 2096,-512 2152.1146,-498.3488 2213.987,-471.0515 2248.9116,-454.4168"/>
<polygon fill="#191970" stroke="#191970" points="2250.5308,-457.5217 2258.0203,-450.0279 2247.4923,-451.2156 2250.5308,-457.5217"/>
</g>
<!-- Node1&#45;&gt;Node51 -->
<g id="edge65" class="edge">
<title>Node1&#45;&gt;Node51</title>
<path fill="none" stroke="#191970" d="M1655.7636,-553.351C1709.2778,-542.0422 1773.9032,-526.3029 1798,-512 1843.4307,-485.0341 1831.4729,-448.0714 1879,-425 1966.06,-382.7379 2216.7428,-399.0039 2313,-389 2326.5442,-387.5924 2340.9009,-385.9432 2354.8575,-384.2556"/>
<polygon fill="#191970" stroke="#191970" points="2355.4311,-387.7116 2364.9319,-383.0229 2354.5808,-380.7634 2355.4311,-387.7116"/>
</g>
<!-- Node1&#45;&gt;Node52 -->
<g id="edge70" class="edge">
<title>Node1&#45;&gt;Node52</title>
<path fill="none" stroke="#191970" d="M1494.1527,-549.5739C1491.0687,-549.0115 1488.0099,-548.4838 1485,-548 1308.329,-519.6006 1257.9896,-553.7947 1084,-512 1028.8869,-498.7611 968.3783,-471.5218 934.0092,-454.7499"/>
<polygon fill="#191970" stroke="#191970" points="935.1414,-451.4054 924.6257,-450.1126 932.0401,-457.6809 935.1414,-451.4054"/>
</g>
<!-- Node1&#45;&gt;Node53 -->
<g id="edge76" class="edge">
<title>Node1&#45;&gt;Node53</title>
<path fill="none" stroke="#191970" d="M1618.147,-548.3511C1640.1031,-537.8435 1666.2135,-525.3478 1685.7885,-515.9798"/>
<polygon fill="#191970" stroke="#191970" points="1687.3168,-519.1286 1694.8261,-511.6546 1684.295,-512.8144 1687.3168,-519.1286"/>
</g>
<!-- Node1&#45;&gt;Node54 -->
<g id="edge79" class="edge">
<title>Node1&#45;&gt;Node54</title>
<path fill="none" stroke="#191970" d="M1494.0526,-550.0865C1490.9967,-549.3807 1487.9709,-548.6832 1485,-548 1304.6872,-506.5344 1229.1103,-564.1619 1079,-456 1057.1019,-440.2214 1042.9597,-411.6145 1035.4865,-392.5836"/>
<polygon fill="#191970" stroke="#191970" points="1038.7497,-391.3163 1032.0139,-383.1383 1032.1796,-393.7318 1038.7497,-391.3163"/>
</g>
<!-- Node55 -->
<g id="node35" class="node">
<title>Node55</title>
<g id="a_node35"><a xlink:href="FreeFloatingState_8h.html" target="_top" xlink:title="iDynTree/Model/FreeFloating\lState.h">
<polygon fill="none" stroke="#000000" points="1088,-425.5 1088,-455.5 1242,-455.5 1242,-425.5 1088,-425.5"/>
<text text-anchor="start" x="1096" y="-443.5" font-family="FreeSans.ttf" font-size="10.00" fill="#000000">iDynTree/Model/FreeFloating</text>
<text text-anchor="middle" x="1165" y="-432.5" font-family="FreeSans.ttf" font-size="10.00" fill="#000000">State.h</text>
</a>
</g>
</g>
<!-- Node1&#45;&gt;Node55 -->
<g id="edge84" class="edge">
<title>Node1&#45;&gt;Node55</title>
<path fill="none" stroke="#191970" d="M1509.5809,-548.4967C1430.3903,-523.6772 1298.2782,-482.2713 1222.7184,-458.5898"/>
<polygon fill="#191970" stroke="#191970" points="1223.4819,-455.1613 1212.8928,-455.5103 1221.3884,-461.8409 1223.4819,-455.1613"/>
</g>
<!-- Node56 -->
<g id="node36" class="node">
<title>Node56</title>
<g id="a_node36"><a xlink:href="LinkTraversalsCache_8h.html" target="_top" xlink:title="iDynTree/Model/LinkTraversals\lCache.h">
<polygon fill="none" stroke="#000000" points="1731,-358.5 1731,-388.5 1895,-388.5 1895,-358.5 1731,-358.5"/>
<text text-anchor="start" x="1739" y="-376.5" font-family="FreeSans.ttf" font-size="10.00" fill="#000000">iDynTree/Model/LinkTraversals</text>
<text text-anchor="middle" x="1813" y="-365.5" font-family="FreeSans.ttf" font-size="10.00" fill="#000000">Cache.h</text>
</a>
</g>
</g>
<!-- Node1&#45;&gt;Node56 -->
<g id="edge92" class="edge">
<title>Node1&#45;&gt;Node56</title>
<path fill="none" stroke="#191970" d="M1587.6908,-548.3032C1598.3152,-531.9409 1614.5141,-509.0885 1632,-492 1674.8976,-450.0774 1734.7105,-414.3448 1773.641,-393.3935"/>
<polygon fill="#191970" stroke="#191970" points="1775.3926,-396.4263 1782.582,-388.644 1772.1087,-390.2444 1775.3926,-396.4263"/>
</g>
<!-- Node1&#45;&gt;Node57 -->
<g id="edge95" class="edge">
<title>Node1&#45;&gt;Node57</title>
<path fill="none" stroke="#191970" d="M1655.7317,-556.594C1736.8901,-544.1224 1860.8413,-525.0748 1938.8203,-513.0918"/>
<polygon fill="#191970" stroke="#191970" points="1939.6852,-516.5001 1949.0375,-511.5218 1938.6219,-509.5813 1939.6852,-516.5001"/>
</g>
<!-- Node3 -->
<g id="node4" class="node">
<title>Node3</title>
<g id="a_node4"><a xlink:href="Direction_8h.html" target="_top" xlink:title="iDynTree/Core/Direction.h">
<polygon fill="none" stroke="#000000" points="1292.5,-174 1292.5,-193 1433.5,-193 1433.5,-174 1292.5,-174"/>
<text text-anchor="middle" x="1363" y="-181" font-family="FreeSans.ttf" font-size="10.00" fill="#000000">iDynTree/Core/Direction.h</text>
</a>
</g>
</g>
<!-- Node2&#45;&gt;Node3 -->
<g id="edge3" class="edge">
<title>Node2&#45;&gt;Node3</title>
<path fill="none" stroke="#191970" d="M1514.2686,-425.4827C1514.2318,-407.0278 1517.1107,-375.9595 1535,-358 1584.0464,-308.7611 1725.0612,-355.746 1681,-302 1629.2765,-238.9074 1577.119,-295.3581 1501,-266 1456.5036,-248.8383 1409.9322,-217.8363 1383.8756,-199.1125"/>
<polygon fill="#191970" stroke="#191970" points="1385.6942,-196.107 1375.5516,-193.0445 1381.5707,-201.7636 1385.6942,-196.107"/>
</g>
<!-- Node5 -->
<g id="node6" class="node">
<title>Node5</title>
<g id="a_node6"><a xlink:href="VectorFixSize_8h.html" target="_top" xlink:title="iDynTree/Core/VectorFixSize.h">
<polygon fill="none" stroke="#ff0000" points="801.5,-112.5 801.5,-131.5 962.5,-131.5 962.5,-112.5 801.5,-112.5"/>
<text text-anchor="middle" x="882" y="-119.5" font-family="FreeSans.ttf" font-size="10.00" fill="#000000">iDynTree/Core/VectorFixSize.h</text>
</a>
</g>
</g>
<!-- Node2&#45;&gt;Node5 -->
<g id="edge21" class="edge">
<title>Node2&#45;&gt;Node5</title>
<path fill="none" stroke="#191970" d="M1445.4694,-425.4923C1369.3703,-407.4122 1245.1334,-372.9671 1147,-322 1093.9426,-294.4438 952.8566,-180.2129 901.2525,-137.8775"/>
<polygon fill="#191970" stroke="#191970" points="903.4446,-135.1487 893.4967,-131.5029 898.9998,-140.5565 903.4446,-135.1487"/>
</g>
<!-- Node20 -->
<g id="node10" class="node">
<title>Node20</title>
<g id="a_node10"><a xlink:href="Position_8h.html" target="_top" xlink:title="iDynTree/Core/Position.h">
<polygon fill="none" stroke="#ff0000" points="1510,-241 1510,-260 1646,-260 1646,-241 1510,-241"/>
<text text-anchor="middle" x="1578" y="-248" font-family="FreeSans.ttf" font-size="10.00" fill="#000000">iDynTree/Core/Position.h</text>
</a>
</g>
</g>
<!-- Node2&#45;&gt;Node20 -->
<g id="edge12" class="edge">
<title>Node2&#45;&gt;Node20</title>
<path fill="none" stroke="#191970" d="M1520.2987,-425.177C1527.5959,-406.4067 1542.561,-375.0131 1566,-358 1620.7852,-318.2344 1672.1695,-375.2252 1714,-322 1737.7256,-291.8114 1691.7769,-272.9668 1647.0034,-262.2533"/>
<polygon fill="#191970" stroke="#191970" points="1647.7214,-258.8273 1637.1945,-260.025 1646.1707,-265.6534 1647.7214,-258.8273"/>
</g>
<!-- Node28 -->
<g id="node12" class="node">
<title>Node28</title>
<g id="a_node12"><a xlink:href="MatrixDynSize_8h.html" target="_top" xlink:title="iDynTree/Core/MatrixDynSize.h">
<polygon fill="none" stroke="#ff0000" points="1320.5,-302.5 1320.5,-321.5 1487.5,-321.5 1487.5,-302.5 1320.5,-302.5"/>
<text text-anchor="middle" x="1404" y="-309.5" font-family="FreeSans.ttf" font-size="10.00" fill="#000000">iDynTree/Core/MatrixDynSize.h</text>
</a>
</g>
</g>
<!-- Node2&#45;&gt;Node28 -->
<g id="edge17" class="edge">
<title>Node2&#45;&gt;Node28</title>
<path fill="none" stroke="#191970" d="M1454.0216,-425.4964C1420.8605,-415.9711 1384.6688,-402.8589 1375,-389 1362.1934,-370.6435 1375.9276,-345.9119 1388.511,-329.4859"/>
<polygon fill="#191970" stroke="#191970" points="1391.2286,-331.6914 1394.8397,-321.731 1385.8054,-327.2655 1391.2286,-331.6914"/>
</g>
<!-- Node29 -->
<g id="node13" class="node">
<title>Node29</title>
<g id="a_node13"><a xlink:href="VectorDynSize_8h.html" target="_top" xlink:title="iDynTree/Core/VectorDynSize.h">
<polygon fill="none" stroke="#ff0000" points="1505.5,-302.5 1505.5,-321.5 1672.5,-321.5 1672.5,-302.5 1505.5,-302.5"/>
<text text-anchor="middle" x="1589" y="-309.5" font-family="FreeSans.ttf" font-size="10.00" fill="#000000">iDynTree/Core/VectorDynSize.h</text>
</a>
</g>
</g>
<!-- Node2&#45;&gt;Node29 -->
<g id="edge19" class="edge">
<title>Node2&#45;&gt;Node29</title>
<path fill="none" stroke="#191970" d="M1452.3677,-425.4753C1407.924,-411.7976 1360.21,-389.0023 1385,-358 1393.6225,-347.2167 1464.0264,-333.0067 1519.7455,-323.2497"/>
<polygon fill="#191970" stroke="#191970" points="1520.3503,-326.6971 1529.6065,-321.5421 1519.1559,-319.7998 1520.3503,-326.6971"/>
</g>
<!-- Node30 -->
<g id="node14" class="node">
<title>Node30</title>
<g id="a_node14"><a xlink:href="Indices_8h.html" target="_top" xlink:title="iDynTree/Model/Indices.h">
<polygon fill="none" stroke="#ff0000" points="2226,-302.5 2226,-321.5 2364,-321.5 2364,-302.5 2226,-302.5"/>
<text text-anchor="middle" x="2295" y="-309.5" font-family="FreeSans.ttf" font-size="10.00" fill="#000000">iDynTree/Model/Indices.h</text>
</a>
</g>
</g>
<!-- Node2&#45;&gt;Node30 -->
<g id="edge22" class="edge">
<title>Node2&#45;&gt;Node30</title>
<path fill="none" stroke="#191970" d="M1599.5827,-434.1815C1638.4007,-431.3163 1685.0313,-427.9229 1727,-425 1787.4303,-420.7914 2223.4198,-426.492 2271,-389 2288.2139,-375.4358 2293.3502,-349.6753 2294.7425,-331.7021"/>
<polygon fill="#191970" stroke="#191970" points="2298.2395,-331.8457 2295.2002,-321.6962 2291.2468,-331.5258 2298.2395,-331.8457"/>
</g>
<!-- Node2&#45;&gt;Node32 -->
<g id="edge25" class="edge">
<title>Node2&#45;&gt;Node32</title>
<path fill="none" stroke="#191970" d="M1430.4992,-426.2058C1427.295,-425.7783 1424.1202,-425.3743 1421,-425 1209.9101,-399.6806 1155.5116,-410.5141 944,-389 930.521,-387.629 916.2226,-385.9753 902.3561,-384.2657"/>
<polygon fill="#191970" stroke="#191970" points="902.7104,-380.7829 892.3532,-383.0143 901.8414,-387.7287 902.7104,-380.7829"/>
</g>
<!-- Node41 -->
<g id="node25" class="node">
<title>Node41</title>
<polygon fill="none" stroke="#bfbfbf" points="1766.5,-302.5 1766.5,-321.5 1813.5,-321.5 1813.5,-302.5 1766.5,-302.5"/>
<text text-anchor="middle" x="1790" y="-309.5" font-family="FreeSans.ttf" font-size="10.00" fill="#000000">vector</text>
</g>
<!-- Node2&#45;&gt;Node41 -->
<g id="edge49" class="edge">
<title>Node2&#45;&gt;Node41</title>
<path fill="none" stroke="#191970" d="M1528.7507,-425.3498C1546.4551,-406.7578 1579.0097,-375.5482 1613,-358 1669.705,-328.7248 1690.2535,-338.1204 1752,-322 1753.4439,-321.623 1754.9185,-321.2375 1756.408,-320.8476"/>
<polygon fill="#191970" stroke="#191970" points="1757.5027,-324.1789 1766.287,-318.2555 1755.7262,-317.408 1757.5027,-324.1789"/>
</g>
<!-- Node4 -->
<g id="node5" class="node">
<title>Node4</title>
<polygon fill="none" stroke="#bfbfbf" points="1671,-56.5 1671,-75.5 1715,-75.5 1715,-56.5 1671,-56.5"/>
<text text-anchor="middle" x="1693" y="-63.5" font-family="FreeSans.ttf" font-size="10.00" fill="#000000">string</text>
</g>
<!-- Node3&#45;&gt;Node4 -->
<g id="edge4" class="edge">
<title>Node3&#45;&gt;Node4</title>
<path fill="none" stroke="#191970" d="M1389.7258,-173.984C1450.0244,-152.5141 1596.4213,-100.3879 1661.2279,-77.3128"/>
<polygon fill="#191970" stroke="#191970" points="1662.6561,-80.5196 1670.9027,-73.868 1660.308,-73.9251 1662.6561,-80.5196"/>
</g>
<!-- Node3&#45;&gt;Node5 -->
<g id="edge5" class="edge">
<title>Node3&#45;&gt;Node5</title>
<path fill="none" stroke="#191970" d="M1316.9947,-173.9567C1305.893,-171.8283 1294.0461,-169.7011 1283,-168 1176.898,-151.6606 1054.1801,-138.4038 972.73,-130.3915"/>
<polygon fill="#191970" stroke="#191970" points="972.8033,-126.8821 962.5102,-129.3924 972.1222,-133.8489 972.8033,-126.8821"/>
</g>
<!-- Node6 -->
<g id="node7" class="node">
<title>Node6</title>
<g id="a_node7"><a xlink:href="Utils_8h.html" target="_top" xlink:title="iDynTree/Core/Utils.h">
<polygon fill="none" stroke="#ff0000" points="1023.5,-56.5 1023.5,-75.5 1142.5,-75.5 1142.5,-56.5 1023.5,-56.5"/>
<text text-anchor="middle" x="1083" y="-63.5" font-family="FreeSans.ttf" font-size="10.00" fill="#000000">iDynTree/Core/Utils.h</text>
</a>
</g>
</g>
<!-- Node3&#45;&gt;Node6 -->
<g id="edge11" class="edge">
<title>Node3&#45;&gt;Node6</title>
<path fill="none" stroke="#191970" d="M1340.0864,-173.8845C1290.3292,-153.0042 1172.2859,-103.4682 1115.1222,-79.4799"/>
<polygon fill="#191970" stroke="#191970" points="1116.4129,-76.2258 1105.8375,-75.5836 1113.7041,-82.6805 1116.4129,-76.2258"/>
</g>
<!-- Node5&#45;&gt;Node4 -->
<g id="edge8" class="edge">
<title>Node5&#45;&gt;Node4</title>
<path fill="none" stroke="#191970" d="M962.7045,-115.7292C979.3345,-114.468 996.7335,-113.171 1013,-112 1262.409,-94.045 1563.4296,-74.387 1660.8915,-68.0731"/>
<polygon fill="#191970" stroke="#191970" points="1661.2276,-71.5588 1670.9806,-67.4201 1660.7754,-64.5734 1661.2276,-71.5588"/>
</g>
<!-- Node5&#45;&gt;Node6 -->
<g id="edge6" class="edge">
<title>Node5&#45;&gt;Node6</title>
<path fill="none" stroke="#191970" d="M916.5531,-112.3733C950.4104,-102.9404 1002.146,-88.5265 1038.9426,-78.2747"/>
<polygon fill="#191970" stroke="#191970" points="1040.204,-81.5566 1048.8978,-75.5011 1038.3253,-74.8135 1040.204,-81.5566"/>
</g>
<!-- Node7 -->
<g id="node8" class="node">
<title>Node7</title>
<polygon fill="none" stroke="#bfbfbf" points="1056.5,-.5 1056.5,-19.5 1109.5,-19.5 1109.5,-.5 1056.5,-.5"/>
<text text-anchor="middle" x="1083" y="-7.5" font-family="FreeSans.ttf" font-size="10.00" fill="#000000">cstddef</text>
</g>
<!-- Node5&#45;&gt;Node7 -->
<g id="edge10" class="edge">
<title>Node5&#45;&gt;Node7</title>
<path fill="none" stroke="#191970" d="M899.1371,-112.4509C934.4416,-92.7788 1015.4562,-47.6363 1057.1563,-24.4005"/>
<polygon fill="#191970" stroke="#191970" points="1058.8744,-27.4498 1065.9062,-19.5249 1055.4672,-21.335 1058.8744,-27.4498"/>
</g>
<!-- Node5&#45;&gt;Node18 -->
<g id="edge9" class="edge">
<title>Node5&#45;&gt;Node18</title>
<path fill="none" stroke="#191970" d="M882,-112.2455C882,-104.9382 882,-94.6944 882,-85.7046"/>
<polygon fill="#191970" stroke="#191970" points="885.5001,-85.6426 882,-75.6427 878.5001,-85.6427 885.5001,-85.6426"/>
</g>
<!-- Node6&#45;&gt;Node7 -->
<g id="edge7" class="edge">
<title>Node6&#45;&gt;Node7</title>
<path fill="none" stroke="#191970" d="M1083,-56.2455C1083,-48.9382 1083,-38.6944 1083,-29.7046"/>
<polygon fill="#191970" stroke="#191970" points="1086.5001,-29.6426 1083,-19.6427 1079.5001,-29.6427 1086.5001,-29.6426"/>
</g>
<!-- Node20&#45;&gt;Node4 -->
<g id="edge16" class="edge">
<title>Node20&#45;&gt;Node4</title>
<path fill="none" stroke="#191970" d="M1586.3597,-240.6448C1594.6899,-230.5655 1607.5657,-214.2645 1617,-199 1639.6763,-162.3104 1637.7996,-148.9796 1660,-112 1665.7956,-102.3462 1673.0128,-92.1205 1679.2185,-83.7682"/>
<polygon fill="#191970" stroke="#191970" points="1682.1912,-85.6403 1685.4403,-75.5559 1676.6117,-81.4131 1682.1912,-85.6403"/>
</g>
<!-- Node21 -->
<g id="node11" class="node">
<title>Node21</title>
<g id="a_node11"><a xlink:href="PositionRaw_8h.html" target="_top" xlink:title="iDynTree/Core/PositionRaw.h">
<polygon fill="none" stroke="#000000" points="1452,-174 1452,-193 1608,-193 1608,-174 1452,-174"/>
<text text-anchor="middle" x="1530" y="-181" font-family="FreeSans.ttf" font-size="10.00" fill="#000000">iDynTree/Core/PositionRaw.h</text>
</a>
</g>
</g>
<!-- Node20&#45;&gt;Node21 -->
<g id="edge13" class="edge">
<title>Node20&#45;&gt;Node21</title>
<path fill="none" stroke="#191970" d="M1571.1228,-240.9005C1563.7802,-230.6515 1551.9759,-214.1747 1542.8938,-201.4976"/>
<polygon fill="#191970" stroke="#191970" points="1545.5336,-199.1724 1536.8645,-193.0817 1539.8432,-203.2492 1545.5336,-199.1724"/>
</g>
<!-- Node21&#45;&gt;Node4 -->
<g id="edge15" class="edge">
<title>Node21&#45;&gt;Node4</title>
<path fill="none" stroke="#191970" d="M1541.6629,-173.9131C1558.8932,-159.871 1592.3184,-133.0905 1622,-112 1637.223,-101.1831 1654.8389,-89.7637 1668.7154,-81.0086"/>
<polygon fill="#191970" stroke="#191970" points="1670.6156,-83.9483 1677.2316,-75.6731 1666.8991,-78.0164 1670.6156,-83.9483"/>
</g>
<!-- Node21&#45;&gt;Node5 -->
<g id="edge14" class="edge">
<title>Node21&#45;&gt;Node5</title>
<path fill="none" stroke="#191970" d="M1480.3259,-173.9246C1467.8484,-171.7473 1454.4625,-169.6059 1442,-168 1396.8552,-162.1827 1119.8636,-140.3961 973.094,-129.0183"/>
<polygon fill="#191970" stroke="#191970" points="972.9972,-125.5004 962.7567,-128.2175 972.4564,-132.4795 972.9972,-125.5004"/>
</g>
<!-- Node28&#45;&gt;Node4 -->
<g id="edge18" class="edge">
<title>Node28&#45;&gt;Node4</title>
<path fill="none" stroke="#191970" d="M1477.3399,-302.4758C1559.1551,-291.502 1681.0512,-273.9611 1688,-266 1732.677,-214.8144 1711.9979,-125.081 1699.7553,-85.5931"/>
<polygon fill="#191970" stroke="#191970" points="1703.0109,-84.2871 1696.5872,-75.8617 1696.3548,-86.454 1703.0109,-84.2871"/>
</g>
<!-- Node29&#45;&gt;Node4 -->
<g id="edge20" class="edge">
<title>Node29&#45;&gt;Node4</title>
<path fill="none" stroke="#191970" d="M1635.4312,-302.4791C1670.7666,-294.1809 1715.1239,-281.1246 1726,-266 1765.9594,-210.4312 1746.9546,-177.1579 1726,-112 1722.6054,-101.4445 1715.7942,-91.2592 1709.2369,-83.1676"/>
<polygon fill="#191970" stroke="#191970" points="1711.8431,-80.8307 1702.6492,-75.5654 1706.553,-85.4149 1711.8431,-80.8307"/>
</g>
<!-- Node30&#45;&gt;Node4 -->
<g id="edge24" class="edge">
<title>Node30&#45;&gt;Node4</title>
<path fill="none" stroke="#191970" d="M2283.2544,-302.3199C2242.801,-269.5395 2104.3965,-161.9835 1971,-112 1885.9282,-80.1237 1777.9902,-70.2881 1725.1279,-67.29"/>
<polygon fill="#191970" stroke="#191970" points="1725.1807,-63.7881 1715.012,-66.7627 1724.8163,-70.7786 1725.1807,-63.7881"/>
</g>
<!-- Node30&#45;&gt;Node7 -->
<g id="edge23" class="edge">
<title>Node30&#45;&gt;Node7</title>
<path fill="none" stroke="#191970" d="M2364.0403,-305.5189C2531.0092,-288.9187 2943,-242.0281 2943,-183.5 2943,-183.5 2943,-183.5 2943,-122 2943,-27.1239 1380.6676,-12.0789 1119.7434,-10.2278"/>
<polygon fill="#191970" stroke="#191970" points="1119.6748,-6.7273 1109.6509,-10.1582 1119.6265,-13.7272 1119.6748,-6.7273"/>
</g>
<!-- Node32&#45;&gt;Node30 -->
<g id="edge47" class="edge">
<title>Node32&#45;&gt;Node30</title>
<path fill="none" stroke="#191970" d="M888.5065,-363.9749C906.4615,-361.6738 925.9513,-359.4601 944,-358 1193.4684,-337.8189 1965.0776,-319.3342 2215.5784,-313.7285"/>
<polygon fill="#191970" stroke="#191970" points="2215.7727,-317.2251 2225.6921,-313.5028 2215.6165,-310.2269 2215.7727,-317.2251"/>
</g>
<!-- Node33 -->
<g id="node16" class="node">
<title>Node33</title>
<g id="a_node16"><a xlink:href="Transform_8h.html" target="_top" xlink:title="iDynTree/Core/Transform.h">
<polygon fill="none" stroke="#ff0000" points="1156,-302.5 1156,-321.5 1302,-321.5 1302,-302.5 1156,-302.5"/>
<text text-anchor="middle" x="1229" y="-309.5" font-family="FreeSans.ttf" font-size="10.00" fill="#000000">iDynTree/Core/Transform.h</text>
</a>
</g>
</g>
<!-- Node32&#45;&gt;Node33 -->
<g id="edge26" class="edge">
<title>Node32&#45;&gt;Node33</title>
<path fill="none" stroke="#191970" d="M885.992,-363.9581C958.9992,-352.8991 1079.1124,-334.7047 1156.0943,-323.0436"/>
<polygon fill="#191970" stroke="#191970" points="1156.8313,-326.472 1166.1942,-321.5137 1155.7828,-319.5509 1156.8313,-326.472"/>
</g>
<!-- Node34 -->
<g id="node18" class="node">
<title>Node34</title>
<g id="a_node18"><a xlink:href="Twist_8h.html" target="_top" xlink:title="iDynTree/Core/Twist.h">
<polygon fill="none" stroke="#000000" points="660,-302.5 660,-321.5 782,-321.5 782,-302.5 660,-302.5"/>
<text text-anchor="middle" x="721" y="-309.5" font-family="FreeSans.ttf" font-size="10.00" fill="#000000">iDynTree/Core/Twist.h</text>
</a>
</g>
</g>
<!-- Node32&#45;&gt;Node34 -->
<g id="edge33" class="edge">
<title>Node32&#45;&gt;Node34</title>
<path fill="none" stroke="#191970" d="M807.0625,-363.8906C790.5949,-353.9616 764.6742,-338.333 745.5796,-326.8201"/>
<polygon fill="#191970" stroke="#191970" points="747.1966,-323.7081 736.8256,-321.5419 743.5822,-329.7027 747.1966,-323.7081"/>
</g>
<!-- Node37 -->
<g id="node21" class="node">
<title>Node37</title>
<g id="a_node21"><a xlink:href="SpatialAcc_8h.html" target="_top" xlink:title="iDynTree/Core/SpatialAcc.h">
<polygon fill="none" stroke="#000000" points="838,-302.5 838,-321.5 986,-321.5 986,-302.5 838,-302.5"/>
<text text-anchor="middle" x="912" y="-309.5" font-family="FreeSans.ttf" font-size="10.00" fill="#000000">iDynTree/Core/SpatialAcc.h</text>
</a>
</g>
</g>
<!-- Node32&#45;&gt;Node37 -->
<g id="edge38" class="edge">
<title>Node32&#45;&gt;Node37</title>
<path fill="none" stroke="#191970" d="M836.9063,-363.8906C851.0138,-354.1421 873.0724,-338.8994 889.6385,-327.4521"/>
<polygon fill="#191970" stroke="#191970" points="891.9542,-330.1063 898.1914,-321.5419 887.9747,-324.3474 891.9542,-330.1063"/>
</g>
<!-- Node38 -->
<g id="node22" class="node">
<title>Node38</title>
<g id="a_node22"><a xlink:href="Wrench_8h.html" target="_top" xlink:title="iDynTree/Core/Wrench.h">
<polygon fill="none" stroke="#000000" points="394.5,-302.5 394.5,-321.5 527.5,-321.5 527.5,-302.5 394.5,-302.5"/>
<text text-anchor="middle" x="461" y="-309.5" font-family="FreeSans.ttf" font-size="10.00" fill="#000000">iDynTree/Core/Wrench.h</text>
</a>
</g>
</g>
<!-- Node32&#45;&gt;Node38 -->
<g id="edge40" class="edge">
<title>Node32&#45;&gt;Node38</title>
<path fill="none" stroke="#191970" d="M766.8347,-363.9581C702.1381,-352.9668 595.9535,-334.9272 527.2697,-323.2585"/>
<polygon fill="#191970" stroke="#191970" points="527.4442,-319.7381 516.9992,-321.5137 526.2717,-326.6392 527.4442,-319.7381"/>
</g>
<!-- Node40 -->
<g id="node24" class="node">
<title>Node40</title>
<g id="a_node24"><a xlink:href="ArticulatedBodyInertia_8h.html" target="_top" xlink:title="iDynTree/Core/Articulated\lBodyInertia.h">
<polygon fill="none" stroke="#000000" points="1133.5,-168.5 1133.5,-198.5 1274.5,-198.5 1274.5,-168.5 1133.5,-168.5"/>
<text text-anchor="start" x="1141.5" y="-186.5" font-family="FreeSans.ttf" font-size="10.00" fill="#000000">iDynTree/Core/Articulated</text>
<text text-anchor="middle" x="1204" y="-175.5" font-family="FreeSans.ttf" font-size="10.00" fill="#000000">BodyInertia.h</text>
</a>
</g>
</g>
<!-- Node32&#45;&gt;Node40 -->
<g id="edge44" class="edge">
<title>Node32&#45;&gt;Node40</title>
<path fill="none" stroke="#191970" d="M867.7878,-363.926C903.2958,-355.4372 953.6469,-341.3713 995,-322 1065.1783,-289.1259 1138.8286,-234.9908 1177.1799,-205.0662"/>
<polygon fill="#191970" stroke="#191970" points="1179.5627,-207.6449 1185.2589,-198.7117 1175.2351,-202.1429 1179.5627,-207.6449"/>
</g>
<!-- Node32&#45;&gt;Node41 -->
<g id="edge48" class="edge">
<title>Node32&#45;&gt;Node41</title>
<path fill="none" stroke="#191970" d="M889.784,-363.9909C907.3874,-361.7461 926.3845,-359.5561 944,-358 1270.674,-329.1432 1353.8604,-344.9857 1681,-322 1706.2504,-320.2258 1734.7345,-317.5906 1756.2508,-315.4707"/>
<polygon fill="#191970" stroke="#191970" points="1756.6057,-318.9527 1766.2089,-314.4774 1755.9109,-311.9873 1756.6057,-318.9527"/>
</g>
<!-- Node33&#45;&gt;Node4 -->
<g id="edge32" class="edge">
<title>Node33&#45;&gt;Node4</title>
<path fill="none" stroke="#191970" d="M1302.3103,-302.9968C1305.2447,-302.6564 1308.1499,-302.3229 1311,-302 1387.3733,-293.3474 1598.4296,-318.0341 1655,-266 1706.1212,-218.9782 1701.148,-126.2875 1696.0778,-85.7559"/>
<polygon fill="#191970" stroke="#191970" points="1699.5358,-85.2109 1694.6917,-75.7883 1692.6025,-86.1751 1699.5358,-85.2109"/>
</g>
<!-- Node33&#45;&gt;Node20 -->
<g id="edge27" class="edge">
<title>Node33&#45;&gt;Node20</title>
<path fill="none" stroke="#191970" d="M1283.1483,-302.4581C1345.5215,-291.4668 1447.8929,-273.4272 1514.1102,-261.7585"/>
<polygon fill="#191970" stroke="#191970" points="1514.771,-265.1961 1524.0118,-260.0137 1513.5561,-258.3023 1514.771,-265.1961"/>
</g>
<!-- Node25 -->
<g id="node17" class="node">
<title>Node25</title>
<g id="a_node17"><a xlink:href="MatrixFixSize_8h.html" target="_top" xlink:title="iDynTree/Core/MatrixFixSize.h">
<polygon fill="none" stroke="#ff0000" points="1022.5,-112.5 1022.5,-131.5 1183.5,-131.5 1183.5,-112.5 1022.5,-112.5"/>
<text text-anchor="middle" x="1103" y="-119.5" font-family="FreeSans.ttf" font-size="10.00" fill="#000000">iDynTree/Core/MatrixFixSize.h</text>
</a>
</g>
</g>
<!-- Node33&#45;&gt;Node25 -->
<g id="edge28" class="edge">
<title>Node33&#45;&gt;Node25</title>
<path fill="none" stroke="#191970" d="M1216.9376,-302.4905C1195.072,-284.6031 1148.8578,-243.7034 1124,-199 1113.9328,-180.8956 1108.462,-157.6766 1105.6524,-141.4911"/>
<polygon fill="#191970" stroke="#191970" points="1109.1031,-140.9025 1104.1087,-131.5587 1102.1861,-141.9776 1109.1031,-140.9025"/>
</g>
<!-- Node25&#45;&gt;Node4 -->
<g id="edge30" class="edge">
<title>Node25&#45;&gt;Node4</title>
<path fill="none" stroke="#191970" d="M1183.7999,-114.3309C1315.5707,-101.8238 1571.0523,-77.5747 1660.8473,-69.0518"/>
<polygon fill="#191970" stroke="#191970" points="1661.3326,-72.5215 1670.9571,-68.0922 1660.6711,-65.5529 1661.3326,-72.5215"/>
</g>
<!-- Node25&#45;&gt;Node6 -->
<g id="edge29" class="edge">
<title>Node25&#45;&gt;Node6</title>
<path fill="none" stroke="#191970" d="M1099.5163,-112.2455C1096.8492,-104.7776 1093.0867,-94.2427 1089.8263,-85.1137"/>
<polygon fill="#191970" stroke="#191970" points="1093.1033,-83.8829 1086.4438,-75.6427 1086.5111,-86.2373 1093.1033,-83.8829"/>
</g>
<!-- Node25&#45;&gt;Node18 -->
<g id="edge31" class="edge">
<title>Node25&#45;&gt;Node18</title>
<path fill="none" stroke="#191970" d="M1065.2599,-112.4369C1024.6867,-102.1559 960.5542,-85.9051 919.9139,-75.6071"/>
<polygon fill="#191970" stroke="#191970" points="920.6698,-72.1881 910.1164,-73.1245 918.9503,-78.9737 920.6698,-72.1881"/>
</g>
<!-- Node35 -->
<g id="node19" class="node">
<title>Node35</title>
<g id="a_node19"><a xlink:href="SpatialMotionVector_8h.html" target="_top" xlink:title="iDynTree/Core/SpatialMotion\lVector.h">
<polygon fill="none" stroke="#ff0000" points="643.5,-235.5 643.5,-265.5 798.5,-265.5 798.5,-235.5 643.5,-235.5"/>
<text text-anchor="start" x="651.5" y="-253.5" font-family="FreeSans.ttf" font-size="10.00" fill="#000000">iDynTree/Core/SpatialMotion</text>
<text text-anchor="middle" x="721" y="-242.5" font-family="FreeSans.ttf" font-size="10.00" fill="#000000">Vector.h</text>
</a>
</g>
</g>
<!-- Node34&#45;&gt;Node35 -->
<g id="edge34" class="edge">
<title>Node34&#45;&gt;Node35</title>
<path fill="none" stroke="#191970" d="M721,-302.3906C721,-295.2234 721,-285.0862 721,-275.671"/>
<polygon fill="#191970" stroke="#191970" points="724.5001,-275.5446 721,-265.5446 717.5001,-275.5446 724.5001,-275.5446"/>
</g>
<!-- Node35&#45;&gt;Node5 -->
<g id="edge35" class="edge">
<title>Node35&#45;&gt;Node5</title>
<path fill="none" stroke="#191970" d="M740.1011,-235.2548C770.7082,-210.8261 830.4705,-163.1276 861.7749,-138.1424"/>
<polygon fill="#191970" stroke="#191970" points="864.1694,-140.7094 869.8018,-131.7358 859.8027,-135.2384 864.1694,-140.7094"/>
</g>
<!-- Node23 -->
<g id="node20" class="node">
<title>Node23</title>
<g id="a_node20"><a xlink:href="GeomVector3_8h.html" target="_top" xlink:title="iDynTree/Core/GeomVector3.h">
<polygon fill="none" stroke="#000000" points="199.5,-174 199.5,-193 362.5,-193 362.5,-174 199.5,-174"/>
<text text-anchor="middle" x="281" y="-181" font-family="FreeSans.ttf" font-size="10.00" fill="#000000">iDynTree/Core/GeomVector3.h</text>
</a>
</g>
</g>
<!-- Node35&#45;&gt;Node23 -->
<g id="edge36" class="edge">
<title>Node35&#45;&gt;Node23</title>
<path fill="none" stroke="#191970" d="M643.3497,-238.676C561.4893,-226.2109 433.5484,-206.729 353.6335,-194.5601"/>
<polygon fill="#191970" stroke="#191970" points="354.0635,-191.0853 343.6506,-193.04 353.0097,-198.0055 354.0635,-191.0853"/>
</g>
<!-- Node23&#45;&gt;Node5 -->
<g id="edge37" class="edge">
<title>Node23&#45;&gt;Node5</title>
<path fill="none" stroke="#191970" d="M335.7338,-173.9913C349.2002,-171.8374 363.6001,-169.69 377,-168 521.4002,-149.7882 689.9036,-135.9144 791.1576,-128.3708"/>
<polygon fill="#191970" stroke="#191970" points="791.6341,-131.8452 801.3482,-127.616 791.117,-124.8643 791.6341,-131.8452"/>
</g>
<!-- Node37&#45;&gt;Node35 -->
<g id="edge39" class="edge">
<title>Node37&#45;&gt;Node35</title>
<path fill="none" stroke="#191970" d="M882.1563,-302.3906C854.2723,-293.4123 811.9145,-279.7735 777.6218,-268.7316"/>
<polygon fill="#191970" stroke="#191970" points="778.3153,-265.278 767.7239,-265.5446 776.1698,-271.9411 778.3153,-265.278"/>
</g>
<!-- Node39 -->
<g id="node23" class="node">
<title>Node39</title>
<g id="a_node23"><a xlink:href="SpatialForceVector_8h.html" target="_top" xlink:title="iDynTree/Core/SpatialForce\lVector.h">
<polygon fill="none" stroke="#ff0000" points="379,-235.5 379,-265.5 527,-265.5 527,-235.5 379,-235.5"/>
<text text-anchor="start" x="387" y="-253.5" font-family="FreeSans.ttf" font-size="10.00" fill="#000000">iDynTree/Core/SpatialForce</text>
<text text-anchor="middle" x="453" y="-242.5" font-family="FreeSans.ttf" font-size="10.00" fill="#000000">Vector.h</text>
</a>
</g>
</g>
<!-- Node38&#45;&gt;Node39 -->
<g id="edge41" class="edge">
<title>Node38&#45;&gt;Node39</title>
<path fill="none" stroke="#191970" d="M459.75,-302.3906C458.8177,-295.2234 457.499,-285.0862 456.2743,-275.671"/>
<polygon fill="#191970" stroke="#191970" points="459.7178,-275.0095 454.957,-265.5446 452.7763,-275.9126 459.7178,-275.0095"/>
</g>
<!-- Node39&#45;&gt;Node5 -->
<g id="edge42" class="edge">
<title>Node39&#45;&gt;Node5</title>
<path fill="none" stroke="#191970" d="M503.4733,-235.3816C589.1787,-209.7099 761.5438,-158.0807 840.6275,-134.3925"/>
<polygon fill="#191970" stroke="#191970" points="841.6735,-137.7329 850.2487,-131.5106 839.6649,-131.0272 841.6735,-137.7329"/>
</g>
<!-- Node39&#45;&gt;Node23 -->
<g id="edge43" class="edge">
<title>Node39&#45;&gt;Node23</title>
<path fill="none" stroke="#191970" d="M414.3998,-235.4639C384.5419,-223.8332 343.5985,-207.8843 314.9742,-196.7342"/>
<polygon fill="#191970" stroke="#191970" points="315.9901,-193.3737 305.4016,-193.0053 313.4492,-199.8963 315.9901,-193.3737"/>
</g>
<!-- Node40&#45;&gt;Node4 -->
<g id="edge46" class="edge">
<title>Node40&#45;&gt;Node4</title>
<path fill="none" stroke="#191970" d="M1266.4289,-168.4992C1371.7707,-143.187 1581.1392,-92.8786 1661.0178,-73.6849"/>
<polygon fill="#191970" stroke="#191970" points="1662.0673,-77.0324 1670.9728,-71.2928 1660.4318,-70.2261 1662.0673,-77.0324"/>
</g>
<!-- Node40&#45;&gt;Node25 -->
<g id="edge45" class="edge">
<title>Node40&#45;&gt;Node25</title>
<path fill="none" stroke="#191970" d="M1179.2926,-168.4554C1163.4753,-158.8241 1143.0433,-146.3828 1127.3051,-136.7996"/>
<polygon fill="#191970" stroke="#191970" points="1129.0129,-133.7418 1118.6514,-131.5303 1125.3723,-139.7206 1129.0129,-133.7418"/>
</g>
<!-- Node42&#45;&gt;Node30 -->
<g id="edge56" class="edge">
<title>Node42&#45;&gt;Node30</title>
<path fill="none" stroke="#191970" d="M2343.6181,-437.6646C2417.1485,-432.9725 2528.6337,-420.6994 2555,-389 2563.8105,-378.4074 2563.8531,-368.5569 2555,-358 2532.2362,-330.8553 2442.1804,-319.7201 2374.3888,-315.1577"/>
<polygon fill="#191970" stroke="#191970" points="2374.3387,-311.6475 2364.1367,-314.5057 2373.8944,-318.6334 2374.3387,-311.6475"/>
</g>
<!-- Node42&#45;&gt;Node33 -->
<g id="edge55" class="edge">
<title>Node42&#45;&gt;Node33</title>
<path fill="none" stroke="#191970" d="M2210.2183,-435.6567C2105.8279,-427.7809 1897.7318,-410.8552 1722,-389 1567.3105,-369.7618 1386.5063,-339.5251 1292.7277,-323.2568"/>
<polygon fill="#191970" stroke="#191970" points="1293.2805,-319.8005 1282.8287,-321.5353 1292.0811,-326.697 1293.2805,-319.8005"/>
</g>
<!-- Node42&#45;&gt;Node41 -->
<g id="edge64" class="edge">
<title>Node42&#45;&gt;Node41</title>
<path fill="none" stroke="#191970" d="M2222.402,-430.9893C2211.0326,-429.0093 2199.1252,-426.9362 2188,-425 2096.0019,-408.9891 2067.2627,-424.7596 1981,-389 1958.9018,-379.8394 1958.4508,-368.5883 1937,-358 1899.9988,-339.7359 1854.1952,-326.7768 1823.6441,-319.3632"/>
<polygon fill="#191970" stroke="#191970" points="1824.0498,-315.8629 1813.5133,-316.9725 1822.4421,-322.6757 1824.0498,-315.8629"/>
</g>
<!-- Node43 -->
<g id="node27" class="node">
<title>Node43</title>
<g id="a_node27"><a xlink:href="IJoint_8h.html" target="_top" xlink:title="iDynTree/Model/IJoint.h">
<polygon fill="none" stroke="#000000" points="2607,-364 2607,-383 2735,-383 2735,-364 2607,-364"/>
<text text-anchor="middle" x="2671" y="-371" font-family="FreeSans.ttf" font-size="10.00" fill="#000000">iDynTree/Model/IJoint.h</text>
</a>
</g>
</g>
<!-- Node42&#45;&gt;Node43 -->
<g id="edge51" class="edge">
<title>Node42&#45;&gt;Node43</title>
<path fill="none" stroke="#191970" d="M2339.4655,-430.9727C2403.2898,-421.0849 2505.2094,-404.8717 2593,-389 2600.0054,-387.7335 2607.3531,-386.3484 2614.6211,-384.9438"/>
<polygon fill="#191970" stroke="#191970" points="2615.2991,-388.3776 2624.4429,-383.0257 2613.9574,-381.5074 2615.2991,-388.3776"/>
</g>
<!-- Node44 -->
<g id="node28" class="node">
<title>Node44</title>
<g id="a_node28"><a xlink:href="Link_8h.html" target="_top" xlink:title="iDynTree/Model/Link.h">
<polygon fill="none" stroke="#ff0000" points="2753,-364 2753,-383 2877,-383 2877,-364 2753,-364"/>
<text text-anchor="middle" x="2815" y="-371" font-family="FreeSans.ttf" font-size="10.00" fill="#000000">iDynTree/Model/Link.h</text>
</a>
</g>
</g>
<!-- Node42&#45;&gt;Node44 -->
<g id="edge53" class="edge">
<title>Node42&#45;&gt;Node44</title>
<path fill="none" stroke="#191970" d="M2343.8078,-435.3552C2434.7252,-427.8479 2602.3291,-412.2097 2744,-389 2750.7759,-387.8899 2757.8796,-386.5513 2764.8654,-385.1315"/>
<polygon fill="#191970" stroke="#191970" points="2765.8973,-388.4913 2774.9643,-383.0105 2764.4584,-381.6407 2765.8973,-388.4913"/>
</g>
<!-- Node49 -->
<g id="node29" class="node">
<title>Node49</title>
<g id="a_node29"><a xlink:href="SolidShapes_8h.html" target="_top" xlink:title="iDynTree/Model/SolidShapes.h">
<polygon fill="none" stroke="#000000" points="1989.5,-364 1989.5,-383 2152.5,-383 2152.5,-364 1989.5,-364"/>
<text text-anchor="middle" x="2071" y="-371" font-family="FreeSans.ttf" font-size="10.00" fill="#000000">iDynTree/Model/SolidShapes.h</text>
</a>
</g>
</g>
<!-- Node42&#45;&gt;Node49 -->
<g id="edge57" class="edge">
<title>Node42&#45;&gt;Node49</title>
<path fill="none" stroke="#191970" d="M2247.4852,-430.9005C2211.3841,-419.1589 2150.1518,-399.2436 2110.1456,-386.2318"/>
<polygon fill="#191970" stroke="#191970" points="2111.0522,-382.8463 2100.46,-383.0817 2108.8871,-389.5031 2111.0522,-382.8463"/>
</g>
<!-- Node50 -->
<g id="node30" class="node">
<title>Node50</title>
<polygon fill="none" stroke="#bfbfbf" points="2635.5,-302.5 2635.5,-321.5 2684.5,-321.5 2684.5,-302.5 2635.5,-302.5"/>
<text text-anchor="middle" x="2660" y="-309.5" font-family="FreeSans.ttf" font-size="10.00" fill="#000000">cstdlib</text>
</g>
<!-- Node42&#45;&gt;Node50 -->
<g id="edge63" class="edge">
<title>Node42&#45;&gt;Node50</title>
<path fill="none" stroke="#191970" d="M2343.6941,-439.8345C2494.1839,-437.6402 2849.8766,-428.3071 2886,-389 2895.3229,-378.8555 2894.7168,-368.6698 2886,-358 2862.271,-328.9546 2752.2427,-317.7857 2694.9297,-313.8839"/>
<polygon fill="#191970" stroke="#191970" points="2695.0783,-310.3863 2684.8742,-313.2372 2694.629,-317.3719 2695.0783,-310.3863"/>
</g>
<!-- Node43&#45;&gt;Node30 -->
<g id="edge52" class="edge">
<title>Node43&#45;&gt;Node30</title>
<path fill="none" stroke="#191970" d="M2624.8676,-363.9915C2614.4057,-361.9302 2603.3333,-359.8234 2593,-358 2518.1946,-344.8001 2432.449,-331.7851 2372.1992,-322.9863"/>
<polygon fill="#191970" stroke="#191970" points="2372.4055,-319.4795 2362.0056,-321.5023 2371.3971,-326.4065 2372.4055,-319.4795"/>
</g>
<!-- Node44&#45;&gt;Node30 -->
<g id="edge54" class="edge">
<title>Node44&#45;&gt;Node30</title>
<path fill="none" stroke="#191970" d="M2774.9732,-363.9348C2764.9049,-361.7573 2754.0914,-359.6132 2744,-358 2615.2916,-337.4251 2464.2789,-324.167 2374.2866,-317.4039"/>
<polygon fill="#191970" stroke="#191970" points="2374.3905,-313.902 2364.1585,-316.6508 2373.8714,-320.8827 2374.3905,-313.902"/>
</g>
<!-- Node49&#45;&gt;Node4 -->
<g id="edge59" class="edge">
<title>Node49&#45;&gt;Node4</title>
<path fill="none" stroke="#191970" d="M2051.6615,-363.9425C2019.1367,-346.3461 1957,-305.5282 1957,-250.5 1957,-250.5 1957,-250.5 1957,-183.5 1957,-133.2764 1795.5098,-89.7388 1725.1375,-73.1508"/>
<polygon fill="#191970" stroke="#191970" points="1725.5867,-69.6621 1715.0544,-70.8119 1724.0049,-76.4811 1725.5867,-69.6621"/>
</g>
<!-- Node49&#45;&gt;Node30 -->
<g id="edge62" class="edge">
<title>Node49&#45;&gt;Node30</title>
<path fill="none" stroke="#191970" d="M2106,-363.8906C2144.9588,-353.1944 2208.0093,-335.8836 2250.4571,-324.2294"/>
<polygon fill="#191970" stroke="#191970" points="2251.5293,-327.5646 2260.2458,-321.5419 2249.6759,-320.8144 2251.5293,-327.5646"/>
</g>
<!-- Node49&#45;&gt;Node33 -->
<g id="edge61" class="edge">
<title>Node49&#45;&gt;Node33</title>
<path fill="none" stroke="#191970" d="M1989.0763,-365.3708C1962.006,-362.825 1931.7259,-360.1277 1904,-358 1644.0756,-338.053 1575.6758,-345.7892 1312.542,-322.0918"/>
<polygon fill="#191970" stroke="#191970" points="1312.5694,-318.58 1302.294,-321.1619 1311.9368,-325.5513 1312.5694,-318.58"/>
</g>
<!-- Node49&#45;&gt;Node41 -->
<g id="edge60" class="edge">
<title>Node49&#45;&gt;Node41</title>
<path fill="none" stroke="#191970" d="M2027.4021,-363.9581C1971.1563,-351.6481 1874.5142,-330.4969 1823.614,-319.3568"/>
<polygon fill="#191970" stroke="#191970" points="1824.2904,-315.9221 1813.7733,-317.2031 1822.7938,-322.7602 1824.2904,-315.9221"/>
</g>
<!-- Node49&#45;&gt;Node50 -->
<g id="edge58" class="edge">
<title>Node49&#45;&gt;Node50</title>
<path fill="none" stroke="#191970" d="M2152.5885,-364.981C2283.0752,-351.3563 2533.3619,-325.2228 2625.149,-315.6389"/>
<polygon fill="#191970" stroke="#191970" points="2625.7064,-319.0999 2635.2889,-314.5802 2624.9794,-312.1377 2625.7064,-319.0999"/>
</g>
<!-- Node51&#45;&gt;Node4 -->
<g id="edge68" class="edge">
<title>Node51&#45;&gt;Node4</title>
<path fill="none" stroke="#191970" d="M2433.8981,-363.7312C2427.6201,-343.0646 2414,-293.2969 2414,-250.5 2414,-250.5 2414,-250.5 2414,-183.5 2414,-112.7363 1865.9913,-76.0509 1725.5022,-67.8088"/>
<polygon fill="#191970" stroke="#191970" points="1725.5542,-64.306 1715.3687,-67.2224 1725.1498,-71.2943 1725.5542,-64.306"/>
</g>
<!-- Node51&#45;&gt;Node7 -->
<g id="edge69" class="edge">
<title>Node51&#45;&gt;Node7</title>
<path fill="none" stroke="#191970" d="M2512.7878,-365.3262C2670.4046,-347.3008 3019,-301.6527 3019,-250.5 3019,-250.5 3019,-250.5 3019,-122 3019,-101.4519 3321.8307,-125.304 2721,-56 2395.8198,-18.4915 1331.6611,-11.2466 1119.8557,-10.1653"/>
<polygon fill="#191970" stroke="#191970" points="1119.6064,-6.6641 1109.5891,-10.1143 1119.5716,-13.664 1119.6064,-6.6641"/>
</g>
<!-- Node51&#45;&gt;Node30 -->
<g id="edge66" class="edge">
<title>Node51&#45;&gt;Node30</title>
<path fill="none" stroke="#191970" d="M2414.8125,-363.8906C2391.0533,-353.6005 2353.1595,-337.1888 2326.3575,-325.5809"/>
<polygon fill="#191970" stroke="#191970" points="2327.5991,-322.3045 2317.0317,-321.5419 2324.817,-328.7279 2327.5991,-322.3045"/>
</g>
<!-- Node51&#45;&gt;Node41 -->
<g id="edge67" class="edge">
<title>Node51&#45;&gt;Node41</title>
<path fill="none" stroke="#191970" d="M2361.1967,-366.2946C2220.4996,-352.9207 1924.1662,-324.753 1823.9486,-315.227"/>
<polygon fill="#191970" stroke="#191970" points="1824.0781,-311.7236 1813.7918,-314.2615 1823.4157,-318.6922 1824.0781,-311.7236"/>
</g>
<!-- Node52&#45;&gt;Node20 -->
<g id="edge71" class="edge">
<title>Node52&#45;&gt;Node20</title>
<path fill="none" stroke="#191970" d="M907.7215,-430.7446C911.2935,-413.4461 921.1647,-377.397 944,-358 979.6658,-327.7044 1101.0822,-311.0237 1147,-302 1269.1625,-277.9927 1413.1502,-263.5231 1499.9162,-256.2794"/>
<polygon fill="#191970" stroke="#191970" points="1500.2696,-259.7622 1509.9484,-255.4528 1499.6948,-252.7859 1500.2696,-259.7622"/>
</g>
<!-- Node52&#45;&gt;Node30 -->
<g id="edge73" class="edge">
<title>Node52&#45;&gt;Node30</title>
<path fill="none" stroke="#191970" d="M994.8267,-431.5781C1021.8332,-429.1253 1051.6105,-426.6809 1079,-425 1199.1737,-417.625 2050.811,-435.1856 2162,-389 2180.5836,-381.2807 2178.3086,-369.2399 2195,-358 2214.7976,-344.6684 2239.0804,-333.3959 2258.7595,-325.3466"/>
<polygon fill="#191970" stroke="#191970" points="2260.3006,-328.5003 2268.2958,-321.5485 2257.7104,-321.9971 2260.3006,-328.5003"/>
</g>
<!-- Node52&#45;&gt;Node32 -->
<g id="edge74" class="edge">
<title>Node52&#45;&gt;Node32</title>
<path fill="none" stroke="#191970" d="M894.1081,-430.9005C880.7952,-420.1539 859.0001,-402.5603 843.0432,-389.6794"/>
<polygon fill="#191970" stroke="#191970" points="844.8494,-386.6395 834.8698,-383.0817 840.4526,-392.0863 844.8494,-386.6395"/>
</g>
<!-- Node52&#45;&gt;Node38 -->
<g id="edge72" class="edge">
<title>Node52&#45;&gt;Node38</title>
<path fill="none" stroke="#191970" d="M817.3797,-435.1234C699.9788,-427.1966 504.7528,-410.9118 480,-389 463.9396,-374.783 460.3896,-349.3567 460.0715,-331.6273"/>
<polygon fill="#191970" stroke="#191970" points="463.5727,-331.5675 460.219,-321.5175 456.5734,-331.4653 463.5727,-331.5675"/>
</g>
<!-- Node52&#45;&gt;Node41 -->
<g id="edge75" class="edge">
<title>Node52&#45;&gt;Node41</title>
<path fill="none" stroke="#191970" d="M960.9411,-430.9965C1054.7199,-414.9248 1251.7736,-381.8058 1419,-358 1542.8637,-340.3672 1690.5497,-323.2069 1755.9492,-315.8055"/>
<polygon fill="#191970" stroke="#191970" points="1756.5437,-319.2608 1766.0883,-314.6618 1755.7589,-312.3049 1756.5437,-319.2608"/>
</g>
<!-- Node53&#45;&gt;Node30 -->
<g id="edge77" class="edge">
<title>Node53&#45;&gt;Node30</title>
<path fill="none" stroke="#191970" d="M1722.4355,-492.2518C1736.1768,-475.0866 1767.4139,-439.8784 1803,-425 1903.937,-382.7985 2219.003,-468.6536 2294,-389 2308.2682,-373.8459 2305.5517,-348.6453 2301.232,-331.2226"/>
<polygon fill="#191970" stroke="#191970" points="2304.5792,-330.197 2298.4728,-321.539 2297.8472,-332.1153 2304.5792,-330.197"/>
</g>
<!-- Node53&#45;&gt;Node41 -->
<g id="edge78" class="edge">
<title>Node53&#45;&gt;Node41</title>
<path fill="none" stroke="#191970" d="M1708.9604,-492.3465C1694.4452,-467.7904 1660.8217,-401.7969 1689,-358 1703.8026,-334.9927 1733.2553,-323.3561 1756.5533,-317.5546"/>
<polygon fill="#191970" stroke="#191970" points="1757.4309,-320.9449 1766.4246,-315.3445 1755.9014,-314.114 1757.4309,-320.9449"/>
</g>
<!-- Node54&#45;&gt;Node5 -->
<g id="edge80" class="edge">
<title>Node54&#45;&gt;Node5</title>
<path fill="none" stroke="#191970" d="M1024.7345,-363.6044C1018.6147,-349.6354 1006.7778,-323.445 995,-302 961.3744,-240.7744 915.6856,-171.6663 894.1638,-139.816"/>
<polygon fill="#191970" stroke="#191970" points="897.0431,-137.8258 888.5317,-131.5165 891.2508,-141.7565 897.0431,-137.8258"/>
</g>
<!-- Node54&#45;&gt;Node29 -->
<g id="edge81" class="edge">
<title>Node54&#45;&gt;Node29</title>
<path fill="none" stroke="#191970" d="M1104.5241,-365.2058C1205.7075,-354.0937 1385.2216,-334.3792 1495.0276,-322.3202"/>
<polygon fill="#191970" stroke="#191970" points="1495.5451,-325.7845 1505.1032,-321.2137 1494.7809,-318.8263 1495.5451,-325.7845"/>
</g>
<!-- Node54&#45;&gt;Node39 -->
<g id="edge82" class="edge">
<title>Node54&#45;&gt;Node39</title>
<path fill="none" stroke="#191970" d="M978.6807,-363.9356C937.6178,-355.3307 878.5077,-341.1027 829,-322 811.1943,-315.1296 809.1293,-307.9645 791,-302 707.163,-274.418 606.6916,-261.5028 537.1903,-255.5217"/>
<polygon fill="#191970" stroke="#191970" points="537.422,-252.0289 527.1664,-254.6886 536.8422,-259.0049 537.422,-252.0289"/>
</g>
<!-- Node54&#45;&gt;Node41 -->
<g id="edge83" class="edge">
<title>Node54&#45;&gt;Node41</title>
<path fill="none" stroke="#191970" d="M1104.757,-367.6375C1251.7738,-356.2406 1570.9757,-331.3919 1681,-322 1706.221,-319.8471 1734.7062,-317.2272 1756.2304,-315.2092"/>
<polygon fill="#191970" stroke="#191970" points="1756.5649,-318.6933 1766.1929,-314.2716 1755.9089,-311.7241 1756.5649,-318.6933"/>
</g>
<!-- Node55&#45;&gt;Node29 -->
<g id="edge87" class="edge">
<title>Node55&#45;&gt;Node29</title>
<path fill="none" stroke="#191970" d="M1198.2304,-425.4952C1239.1394,-407.4813 1311.0606,-377.2917 1375,-358 1423.6695,-343.3155 1479.9103,-331.4169 1522.5193,-323.4025"/>
<polygon fill="#191970" stroke="#191970" points="1523.3004,-326.8174 1532.4933,-321.5504 1522.0224,-319.935 1523.3004,-326.8174"/>
</g>
<!-- Node55&#45;&gt;Node30 -->
<g id="edge88" class="edge">
<title>Node55&#45;&gt;Node30</title>
<path fill="none" stroke="#191970" d="M1242.2809,-426.044C1245.2203,-425.6618 1248.1343,-425.3113 1251,-425 1355.3511,-413.6631 2096.8081,-426.095 2195,-389 2215.3894,-381.2973 2215.7989,-371.3859 2233,-358 2246.278,-347.667 2261.442,-336.407 2273.4496,-327.6138"/>
<polygon fill="#191970" stroke="#191970" points="2275.5468,-330.4163 2281.5631,-321.6954 2271.4215,-324.761 2275.5468,-330.4163"/>
</g>
<!-- Node55&#45;&gt;Node32 -->
<g id="edge89" class="edge">
<title>Node55&#45;&gt;Node32</title>
<path fill="none" stroke="#191970" d="M1088.2485,-425.4639C1025.6391,-413.1983 938.5158,-396.1303 881.4597,-384.9526"/>
<polygon fill="#191970" stroke="#191970" points="882.0059,-381.4932 871.5195,-383.0053 880.6601,-388.3626 882.0059,-381.4932"/>
</g>
<!-- Node55&#45;&gt;Node33 -->
<g id="edge85" class="edge">
<title>Node55&#45;&gt;Node33</title>
<path fill="none" stroke="#191970" d="M1169.0799,-425.3447C1173.9727,-408.3621 1183.0347,-380.2908 1195,-358 1200.3683,-347.9991 1207.7205,-337.759 1214.2149,-329.4867"/>
<polygon fill="#191970" stroke="#191970" points="1216.9729,-331.6426 1220.5533,-321.6711 1211.536,-327.2334 1216.9729,-331.6426"/>
</g>
<!-- Node55&#45;&gt;Node34 -->
<g id="edge86" class="edge">
<title>Node55&#45;&gt;Node34</title>
<path fill="none" stroke="#191970" d="M1087.8236,-432.2981C966.8131,-419.2814 745.4405,-394.7722 739,-389 723.0743,-374.7268 719.8653,-349.3128 719.7936,-331.6015"/>
<polygon fill="#191970" stroke="#191970" points="723.295,-331.5996 720.0829,-321.5035 716.2979,-331.3991 723.295,-331.5996"/>
</g>
<!-- Node55&#45;&gt;Node41 -->
<g id="edge91" class="edge">
<title>Node55&#45;&gt;Node41</title>
<path fill="none" stroke="#191970" d="M1238.1716,-425.4377C1318.5563,-408.8925 1451.474,-381.5404 1566,-358 1633.6824,-344.0881 1712.8724,-327.8305 1756.6383,-318.8471"/>
<polygon fill="#191970" stroke="#191970" points="1757.365,-322.271 1766.457,-316.8318 1755.9575,-315.414 1757.365,-322.271"/>
</g>
<!-- Node55&#45;&gt;Node54 -->
<g id="edge90" class="edge">
<title>Node55&#45;&gt;Node54</title>
<path fill="none" stroke="#191970" d="M1134.4789,-425.4639C1111.4543,-414.1209 1080.0928,-398.6707 1057.5606,-387.5703"/>
<polygon fill="#191970" stroke="#191970" points="1059.0118,-384.3836 1048.4945,-383.1039 1055.9183,-390.6629 1059.0118,-384.3836"/>
</g>
<!-- Node56&#45;&gt;Node30 -->
<g id="edge94" class="edge">
<title>Node56&#45;&gt;Node30</title>
<path fill="none" stroke="#191970" d="M1895.0377,-363.0325C1984.6981,-351.5925 2127.3451,-333.3917 2215.8485,-322.0992"/>
<polygon fill="#191970" stroke="#191970" points="2216.3572,-325.5628 2225.8337,-320.8252 2215.4711,-318.6191 2216.3572,-325.5628"/>
</g>
<!-- Node56&#45;&gt;Node41 -->
<g id="edge93" class="edge">
<title>Node56&#45;&gt;Node41</title>
<path fill="none" stroke="#191970" d="M1807.3146,-358.2977C1804.255,-350.1166 1800.4502,-339.943 1797.1872,-331.2179"/>
<polygon fill="#191970" stroke="#191970" points="1800.4638,-329.9873 1793.6826,-321.8469 1793.9073,-332.4394 1800.4638,-329.9873"/>
</g>
<!-- Node57&#45;&gt;Node4 -->
<g id="edge97" class="edge">
<title>Node57&#45;&gt;Node4</title>
<path fill="none" stroke="#191970" d="M2086.5452,-498.0568C2292.0108,-486.5656 2849.2342,-450.0066 2903,-389 2912.1096,-378.6636 2910.7242,-369.4089 2903,-358 2731.6924,-104.9731 2560.3394,-173.3581 2261,-112 2157.2141,-90.7262 1829.5368,-72.8522 1725.2254,-67.5791"/>
<polygon fill="#191970" stroke="#191970" points="1725.1727,-64.0721 1715.0099,-67.067 1724.8221,-71.0634 1725.1727,-64.0721"/>
</g>
<!-- Node57&#45;&gt;Node29 -->
<g id="edge100" class="edge">
<title>Node57&#45;&gt;Node29</title>
<path fill="none" stroke="#191970" d="M1935.1084,-492.6751C1893.9464,-485.8519 1842.8695,-474.4673 1800,-456 1722.2734,-422.517 1643.182,-358.9377 1607.9496,-328.736"/>
<polygon fill="#191970" stroke="#191970" points="1609.8138,-325.7201 1599.9647,-321.8154 1605.2291,-331.0098 1609.8138,-325.7201"/>
</g>
<!-- Node57&#45;&gt;Node30 -->
<g id="edge102" class="edge">
<title>Node57&#45;&gt;Node30</title>
<path fill="none" stroke="#191970" d="M2029.6721,-492.4735C2063.2166,-475.8191 2136.3147,-441.6058 2202,-425 2271.377,-407.4609 2474.3119,-442.3539 2522,-389 2531.1817,-378.7275 2530.7214,-368.666 2522,-358 2503.4208,-335.2782 2432.2134,-323.5121 2374.4424,-317.5955"/>
<polygon fill="#191970" stroke="#191970" points="2374.4896,-314.0834 2364.196,-316.5919 2373.8072,-321.0501 2374.4896,-314.0834"/>
</g>
<!-- Node57&#45;&gt;Node23 -->
<g id="edge96" class="edge">
<title>Node57&#45;&gt;Node23</title>
<path fill="none" stroke="#191970" d="M1935.102,-498.2417C1894.4433,-496.2776 1843.495,-493.8951 1798,-492 1500.0454,-479.5887 735.7911,-502.4472 460,-389 410.5245,-368.6481 396.4439,-361.1646 360,-322 325.8888,-285.3422 300.54,-231.3379 288.6018,-202.8042"/>
<polygon fill="#191970" stroke="#191970" points="291.7058,-201.1463 284.6927,-193.2048 285.2227,-203.7863 291.7058,-201.1463"/>
</g>
<!-- Node57&#45;&gt;Node41 -->
<g id="edge98" class="edge">
<title>Node57&#45;&gt;Node41</title>
<path fill="none" stroke="#191970" d="M1984.1533,-492.4304C1913.9639,-467.2892 1729.8597,-400.5124 1722,-389 1714.2315,-377.6212 1715.5399,-370.1694 1722,-358 1729.5475,-343.7821 1743.6701,-333.1563 1757.0975,-325.7203"/>
<polygon fill="#191970" stroke="#191970" points="1758.8778,-328.7412 1766.193,-321.077 1755.695,-322.5066 1758.8778,-328.7412"/>
</g>
<!-- Node57&#45;&gt;Node42 -->
<g id="edge101" class="edge">
<title>Node57&#45;&gt;Node42</title>
<path fill="none" stroke="#191970" d="M2052.2706,-492.4581C2098.9609,-481.6632 2175.0575,-464.0694 2225.574,-452.3899"/>
<polygon fill="#191970" stroke="#191970" points="2226.678,-455.727 2235.6325,-450.0643 2225.1011,-448.9069 2226.678,-455.727"/>
</g>
<!-- Node13 -->
<g id="node38" class="node">
<title>Node13</title>
<polygon fill="none" stroke="#bfbfbf" points="1984.5,-431 1984.5,-450 2037.5,-450 2037.5,-431 1984.5,-431"/>
<text text-anchor="middle" x="2011" y="-438" font-family="FreeSans.ttf" font-size="10.00" fill="#000000">iterator</text>
</g>
<!-- Node57&#45;&gt;Node13 -->
<g id="edge99" class="edge">
<title>Node57&#45;&gt;Node13</title>
<path fill="none" stroke="#191970" d="M2011,-492.3906C2011,-483.8657 2011,-471.1392 2011,-460.4235"/>
<polygon fill="#191970" stroke="#191970" points="2014.5001,-460.2448 2011,-450.2449 2007.5001,-460.2449 2014.5001,-460.2448"/>
</g>
<!-- Node58&#45;&gt;Node5 -->
<g id="edge108" class="edge">
<title>Node58&#45;&gt;Node5</title>
<path fill="none" stroke="#191970" d="M504.4401,-363.9761C455.3204,-355.4356 393.8104,-341.2754 377,-322 351.5033,-292.7646 346.2957,-265.7066 370,-235 420.6205,-169.4263 658.0665,-139.9754 791.0959,-128.4289"/>
<polygon fill="#191970" stroke="#191970" points="791.608,-131.8981 801.2752,-127.5627 791.0144,-124.9233 791.608,-131.8981"/>
</g>
<!-- Node58&#45;&gt;Node6 -->
<g id="edge114" class="edge">
<title>Node58&#45;&gt;Node6</title>
<path fill="none" stroke="#191970" d="M573.4647,-363.8249C579.6188,-348.1293 594.0144,-317.3325 617,-302 688.4996,-254.3065 728.3348,-300.6214 807,-266 911.6265,-219.9527 919.414,-177.6409 1013,-112 1028.0901,-101.4159 1045.3973,-90.036 1059.027,-81.243"/>
<polygon fill="#191970" stroke="#191970" points="1061.2777,-83.9574 1067.803,-75.6104 1057.4967,-78.0663 1061.2777,-83.9574"/>
</g>
<!-- Node58&#45;&gt;Node7 -->
<g id="edge105" class="edge">
<title>Node58&#45;&gt;Node7</title>
<path fill="none" stroke="#191970" d="M525.4548,-363.9943C460.8193,-350.2202 337.2466,-323.957 232,-302 154.2672,-285.783 113.8039,-321.486 57,-266 30.0836,-239.7081 38,-221.1265 38,-183.5 38,-183.5 38,-183.5 38,-122 38,-70.1774 861.2035,-22.1171 1046.3331,-11.9641"/>
<polygon fill="#191970" stroke="#191970" points="1046.5881,-15.4555 1056.3826,-11.416 1046.2068,-8.4659 1046.5881,-15.4555"/>
</g>
<!-- Node58&#45;&gt;Node28 -->
<g id="edge109" class="edge">
<title>Node58&#45;&gt;Node28</title>
<path fill="none" stroke="#191970" d="M650.765,-365.6187C678.6983,-363.0187 710.2118,-360.2256 739,-358 989.6192,-338.6245 1055.4676,-343.4874 1310.0596,-322.0432"/>
<polygon fill="#191970" stroke="#191970" points="1310.6968,-325.5018 1320.3654,-321.1695 1310.1054,-318.5269 1310.6968,-325.5018"/>
</g>
<!-- Node58&#45;&gt;Node29 -->
<g id="edge107" class="edge">
<title>Node58&#45;&gt;Node29</title>
<path fill="none" stroke="#191970" d="M650.7465,-365.3664C678.6783,-362.7462 710.1955,-360.0049 739,-358 1071.7304,-334.8412 1158.4942,-347.7583 1495.3313,-322.0035"/>
<polygon fill="#191970" stroke="#191970" points="1495.6687,-325.488 1505.3703,-321.2302 1495.131,-318.5086 1495.6687,-325.488"/>
</g>
<!-- Node58&#45;&gt;Node33 -->
<g id="edge113" class="edge">
<title>Node58&#45;&gt;Node33</title>
<path fill="none" stroke="#191970" d="M650.8063,-365.9589C776.6283,-354.2168 1018.1186,-331.6801 1145.5434,-319.7884"/>
<polygon fill="#191970" stroke="#191970" points="1146.0088,-323.2603 1155.6403,-318.8462 1145.3583,-316.2906 1146.0088,-323.2603"/>
</g>
<!-- Node58&#45;&gt;Node25 -->
<g id="edge110" class="edge">
<title>Node58&#45;&gt;Node25</title>
<path fill="none" stroke="#191970" d="M577.5666,-363.9773C590.6769,-348.2149 619.2732,-316.9586 651,-302 742.9981,-258.6245 780.4555,-298.0038 877,-266 937.9495,-245.7957 951.083,-233.8714 1005,-199 1034.1208,-180.1658 1065.1926,-154.7317 1084.357,-138.3452"/>
<polygon fill="#191970" stroke="#191970" points="1086.7546,-140.8992 1092.0378,-131.7155 1082.1807,-135.6001 1086.7546,-140.8992"/>
</g>
<!-- Node58&#45;&gt;Node35 -->
<g id="edge111" class="edge">
<title>Node58&#45;&gt;Node35</title>
<path fill="none" stroke="#191970" d="M568.4877,-363.9704C566.6791,-349.026 565.5023,-319.936 580,-302 589.7935,-289.8838 621.1941,-277.8518 651.8833,-268.4681"/>
<polygon fill="#191970" stroke="#191970" points="653.2083,-271.7255 661.794,-265.5177 651.211,-265.0165 653.2083,-271.7255"/>
</g>
<!-- Node58&#45;&gt;Node39 -->
<g id="edge112" class="edge">
<title>Node58&#45;&gt;Node39</title>
<path fill="none" stroke="#191970" d="M505.5222,-363.9672C458.2226,-355.5014 399.7724,-341.4464 385,-322 370.912,-303.4545 390.9655,-284.4415 412.871,-270.688"/>
<polygon fill="#191970" stroke="#191970" points="414.8002,-273.6132 421.6167,-265.5024 411.23,-267.592 414.8002,-273.6132"/>
</g>
<!-- Node59 -->
<g id="node40" class="node">
<title>Node59</title>
<polygon fill="none" stroke="#bfbfbf" points="146.5,-302.5 146.5,-321.5 223.5,-321.5 223.5,-302.5 146.5,-302.5"/>
<text text-anchor="middle" x="185" y="-309.5" font-family="FreeSans.ttf" font-size="10.00" fill="#000000">Eigen/Dense</text>
</g>
<!-- Node58&#45;&gt;Node59 -->
<g id="edge106" class="edge">
<title>Node58&#45;&gt;Node59</title>
<path fill="none" stroke="#191970" d="M504.3836,-363.9661C437.3371,-354.0731 330.2643,-337.8559 238,-322 236.5581,-321.7522 235.0947,-321.4974 233.6179,-321.2374"/>
<polygon fill="#191970" stroke="#191970" points="234.2227,-317.7901 223.7609,-319.4642 232.9833,-324.6795 234.2227,-317.7901"/>
</g>
<!-- Node60&#45;&gt;Node59 -->
<g id="edge116" class="edge">
<title>Node60&#45;&gt;Node59</title>
<path fill="none" stroke="#191970" d="M389.0425,-492.3167C354.3941,-461.6971 246.9374,-366.7354 203.4996,-328.3485"/>
<polygon fill="#191970" stroke="#191970" points="205.7464,-325.6632 195.9354,-321.6638 201.111,-330.9085 205.7464,-325.6632"/>
</g>
<!-- Node48&#45;&gt;Node39 -->
<g id="edge118" class="edge">
<title>Node48&#45;&gt;Node39</title>
<path fill="none" stroke="#191970" d="M178.4745,-492.3229C154.9807,-460.8829 87.4455,-360.2845 137,-302 151.9292,-284.4407 280.1552,-268.0169 368.6054,-258.6278"/>
<polygon fill="#191970" stroke="#191970" points="369.066,-262.0988 378.6459,-257.574 368.3352,-255.1371 369.066,-262.0988"/>
</g>
<!-- Node61&#45;&gt;Node5 -->
<g id="edge120" class="edge">
<title>Node61&#45;&gt;Node5</title>
<path fill="none" stroke="#191970" d="M147.083,-240.7735C151.4921,-222.8439 163.6092,-184.8752 190,-168 239.4426,-136.3846 614.9418,-126.2443 791.1822,-123.2062"/>
<polygon fill="#191970" stroke="#191970" points="791.2774,-126.7052 801.217,-123.0372 791.1594,-119.7062 791.2774,-126.7052"/>
</g>
<!-- Node62&#45;&gt;Node28 -->
<g id="edge128" class="edge">
<title>Node62&#45;&gt;Node28</title>
<path fill="none" stroke="#191970" d="M1327.9108,-430.9547C1315.3381,-414.8926 1294.0319,-381.8782 1309,-358 1318.6819,-342.5548 1335.1838,-332.1672 1351.7437,-325.2389"/>
<polygon fill="#191970" stroke="#191970" points="1353.3471,-328.3737 1361.4495,-321.5472 1350.8585,-321.831 1353.3471,-328.3737"/>
</g>
<!-- Node62&#45;&gt;Node30 -->
<g id="edge129" class="edge">
<title>Node62&#45;&gt;Node30</title>
<path fill="none" stroke="#191970" d="M1381.7086,-430.9856C1394.3823,-428.6699 1408.1811,-426.4461 1421,-425 1510.7416,-414.8759 2152.4246,-429.7879 2233,-389 2257.7918,-376.4502 2276.0234,-348.9766 2286.0767,-330.4752"/>
<polygon fill="#191970" stroke="#191970" points="2289.2279,-332.0007 2290.6952,-321.508 2283.0048,-328.7955 2289.2279,-332.0007"/>
</g>
<!-- Node62&#45;&gt;Node32 -->
<g id="edge130" class="edge">
<title>Node62&#45;&gt;Node32</title>
<path fill="none" stroke="#191970" d="M1286.6471,-430.9516C1274.9824,-428.8471 1262.5714,-426.7317 1251,-425 1115.1337,-404.6671 1080.3571,-405.728 944,-389 931.8086,-387.5044 918.931,-385.8909 906.3036,-384.2897"/>
<polygon fill="#191970" stroke="#191970" points="906.61,-380.8006 896.2483,-383.0108 905.7267,-387.7447 906.61,-380.8006"/>
</g>
<!-- Node62&#45;&gt;Node54 -->
<g id="edge131" class="edge">
<title>Node62&#45;&gt;Node54</title>
<path fill="none" stroke="#191970" d="M1292.3404,-430.9717C1237.2565,-418.9501 1142.543,-398.2797 1082.9766,-385.2799"/>
<polygon fill="#191970" stroke="#191970" points="1083.5224,-381.8167 1073.006,-383.1039 1082.0298,-388.6557 1083.5224,-381.8167"/>
</g>
<!-- Node65&#45;&gt;Node32 -->
<g id="edge137" class="edge">
<title>Node65&#45;&gt;Node32</title>
<path fill="none" stroke="#191970" d="M1335.7439,-566.9104C1191.7988,-560.9505 871.5416,-538.5056 808,-456 793.8349,-437.6074 803.1379,-410.1163 812.1679,-391.999"/>
<polygon fill="#191970" stroke="#191970" points="815.3458,-393.4796 817.0056,-383.0156 809.1826,-390.1606 815.3458,-393.4796"/>
</g>
<!-- Node65&#45;&gt;Node41 -->
<g id="edge138" class="edge">
<title>Node65&#45;&gt;Node41</title>
<path fill="none" stroke="#191970" d="M1444.3088,-553.9407C1487.5994,-535.5696 1558.4697,-501.2778 1608,-456 1646.9425,-420.401 1633.8352,-391.004 1675,-358 1698.928,-338.8156 1731.8892,-326.7295 1756.3912,-319.7871"/>
<polygon fill="#191970" stroke="#191970" points="1757.5725,-323.094 1766.3231,-317.121 1755.7576,-316.3333 1757.5725,-323.094"/>
</g>
<!-- Node65&#45;&gt;Node57 -->
<g id="edge136" class="edge">
<title>Node65&#45;&gt;Node57</title>
<path fill="none" stroke="#191970" d="M1457.5595,-553.9275C1466.6432,-551.6647 1476.0538,-549.5681 1485,-548 1638.5732,-521.0809 1820.2688,-509.6262 1924.9265,-504.9697"/>
<polygon fill="#191970" stroke="#191970" points="1925.2829,-508.4576 1935.1216,-504.5268 1924.9791,-501.4642 1925.2829,-508.4576"/>
</g>
<!-- Node66&#45;&gt;Node32 -->
<g id="edge140" class="edge">
<title>Node66&#45;&gt;Node32</title>
<path fill="none" stroke="#191970" d="M538.8999,-427.4227C603.9964,-415.0673 700.6701,-396.7184 762.7635,-384.933"/>
<polygon fill="#191970" stroke="#191970" points="763.6289,-388.3313 772.8008,-383.0279 762.3235,-381.4541 763.6289,-388.3313"/>
</g>
<!-- Node66&#45;&gt;Node23 -->
<g id="edge141" class="edge">
<title>Node66&#45;&gt;Node23</title>
<path fill="none" stroke="#191970" d="M401.1351,-425.7685C313.025,-405.3623 168.0435,-365.9975 137,-322 99.5431,-268.9129 177.3039,-313.0372 233,-266 253.2016,-248.9391 266.8685,-221.0933 274.2981,-202.5363"/>
<polygon fill="#191970" stroke="#191970" points="277.6134,-203.6642 277.8702,-193.0725 271.0643,-201.1922 277.6134,-203.6642"/>
</g>
<!-- Node67&#45;&gt;Node4 -->
<g id="edge146" class="edge">
<title>Node67&#45;&gt;Node4</title>
<path fill="none" stroke="#191970" d="M2369.3008,-561.8985C2557.4841,-545.576 2981,-502.0089 2981,-440.5 2981,-440.5 2981,-440.5 2981,-183.5 2981,-118.4231 1924.4645,-74.8422 1725.2008,-67.2015"/>
<polygon fill="#191970" stroke="#191970" points="1725.2106,-63.6994 1715.0847,-66.8163 1724.9442,-70.6943 1725.2106,-63.6994"/>
</g>
<!-- Node67&#45;&gt;Node41 -->
<g id="edge147" class="edge">
<title>Node67&#45;&gt;Node41</title>
<path fill="none" stroke="#191970" d="M2267.9107,-559.3947C2233.3465,-534.3829 2136.1554,-466.3178 2047,-425 2000.3279,-403.3705 1981.2468,-415.2363 1937,-389 1919.691,-378.7366 1920.9542,-368.8394 1904,-358 1878.8262,-341.9054 1847.092,-329.657 1823.5016,-321.8614"/>
<polygon fill="#191970" stroke="#191970" points="1824.524,-318.5138 1813.9329,-318.7948 1822.3877,-325.1798 1824.524,-318.5138"/>
</g>
<!-- Node67&#45;&gt;Node42 -->
<g id="edge143" class="edge">
<title>Node67&#45;&gt;Node42</title>
<path fill="none" stroke="#191970" d="M2280.6993,-559.3416C2280.0478,-538.4114 2278.4943,-488.504 2277.6218,-460.4762"/>
<polygon fill="#191970" stroke="#191970" points="2281.1137,-460.1567 2277.3041,-450.2705 2274.1171,-460.3746 2281.1137,-460.1567"/>
</g>
<!-- Node67&#45;&gt;Node57 -->
<g id="edge144" class="edge">
<title>Node67&#45;&gt;Node57</title>
<path fill="none" stroke="#191970" d="M2242.6023,-559.4717C2194.4574,-547.5246 2111.89,-527.0357 2059.449,-514.0225"/>
<polygon fill="#191970" stroke="#191970" points="2060.251,-510.6155 2049.7024,-511.6039 2058.565,-517.4094 2060.251,-510.6155"/>
</g>
<!-- Node68 -->
<g id="node50" class="node">
<title>Node68</title>
<polygon fill="none" stroke="#bfbfbf" points="2305,-492.5 2305,-511.5 2363,-511.5 2363,-492.5 2305,-492.5"/>
<text text-anchor="middle" x="2334" y="-499.5" font-family="FreeSans.ttf" font-size="10.00" fill="#000000">memory</text>
</g>
<!-- Node67&#45;&gt;Node68 -->
<g id="edge145" class="edge">
<title>Node67&#45;&gt;Node68</title>
<path fill="none" stroke="#191970" d="M2288.5936,-559.4005C2296.7798,-549.052 2309.9885,-532.3542 2320.0543,-519.6295"/>
<polygon fill="#191970" stroke="#191970" points="2322.9614,-521.5959 2326.4205,-511.5817 2317.4714,-517.2531 2322.9614,-521.5959"/>
</g>
</g>
</svg>
