<?xml version="1.0" encoding="UTF-8" standalone="no"?>
<!DOCTYPE svg PUBLIC "-//W3C//DTD SVG 1.1//EN"
 "http://www.w3.org/Graphics/SVG/1.1/DTD/svg11.dtd">
<!-- Generated by graphviz version 2.40.1 (20161225.0304)
 -->
<!-- Title: FloorGridSceneNode.cpp Pages: 1 -->
<svg width="1906pt" height="834pt"
 viewBox="0.00 0.00 1905.96 834.00" xmlns="http://www.w3.org/2000/svg" xmlns:xlink="http://www.w3.org/1999/xlink">
<g id="graph0" class="graph" transform="scale(1 1) rotate(0) translate(4 830)">
<title>FloorGridSceneNode.cpp</title>
<!-- Node0 -->
<g id="node1" class="node">
<title>Node0</title>
<polygon fill="#bfbfbf" stroke="#000000" points="101.4627,-806.5 101.4627,-825.5 237.4627,-825.5 237.4627,-806.5 101.4627,-806.5"/>
<text text-anchor="middle" x="169.4627" y="-813.5" font-family="FreeSans.ttf" font-size="10.00" fill="#000000">FloorGridSceneNode.cpp</text>
</g>
<!-- Node1 -->
<g id="node2" class="node">
<title>Node1</title>
<g id="a_node2"><a xlink:href="FloorGridSceneNode_8h.html" target="_top" xlink:title="FloorGridSceneNode.h">
<polygon fill="none" stroke="#000000" points="10.9627,-694.5 10.9627,-713.5 135.9627,-713.5 135.9627,-694.5 10.9627,-694.5"/>
<text text-anchor="middle" x="73.4627" y="-701.5" font-family="FreeSans.ttf" font-size="10.00" fill="#000000">FloorGridSceneNode.h</text>
</a>
</g>
</g>
<!-- Node0&#45;&gt;Node1 -->
<g id="edge1" class="edge">
<title>Node0&#45;&gt;Node1</title>
<path fill="none" stroke="#191970" d="M161.2778,-806.4509C145.0536,-787.5227 108.6176,-745.014 88.1438,-721.1279"/>
<polygon fill="#191970" stroke="#191970" points="90.7923,-718.8397 81.6269,-713.5249 85.4775,-723.3953 90.7923,-718.8397"/>
</g>
<!-- Node43 -->
<g id="node42" class="node">
<title>Node43</title>
<g id="a_node42"><a xlink:href="IrrlichtUtils_8h.html" target="_top" xlink:title="IrrlichtUtils.h">
<polygon fill="none" stroke="#000000" points="225.4627,-750.5 225.4627,-769.5 305.4627,-769.5 305.4627,-750.5 225.4627,-750.5"/>
<text text-anchor="middle" x="265.4627" y="-757.5" font-family="FreeSans.ttf" font-size="10.00" fill="#000000">IrrlichtUtils.h</text>
</a>
</g>
</g>
<!-- Node0&#45;&gt;Node43 -->
<g id="edge87" class="edge">
<title>Node0&#45;&gt;Node43</title>
<path fill="none" stroke="#191970" d="M186.1846,-806.2455C201.0517,-797.5731 223.0093,-784.7645 240.0485,-774.825"/>
<polygon fill="#191970" stroke="#191970" points="242.0582,-777.7047 248.9324,-769.6427 238.5311,-771.6582 242.0582,-777.7047"/>
</g>
<!-- Node2 -->
<g id="node3" class="node">
<title>Node2</title>
<g id="a_node3"><a xlink:href="Visualizer_8h.html" target="_top" xlink:title="iDynTree/Visualizer.h">
<polygon fill="none" stroke="#000000" points="345.9627,-638.5 345.9627,-657.5 464.9627,-657.5 464.9627,-638.5 345.9627,-638.5"/>
<text text-anchor="middle" x="405.4627" y="-645.5" font-family="FreeSans.ttf" font-size="10.00" fill="#000000">iDynTree/Visualizer.h</text>
</a>
</g>
</g>
<!-- Node1&#45;&gt;Node2 -->
<g id="edge2" class="edge">
<title>Node1&#45;&gt;Node2</title>
<path fill="none" stroke="#191970" d="M130.1583,-694.4369C188.0519,-684.6717 277.8755,-669.5207 339.0594,-659.2006"/>
<polygon fill="#191970" stroke="#191970" points="339.7224,-662.6383 349.001,-657.5237 338.5581,-655.7358 339.7224,-662.6383"/>
</g>
<!-- Node42 -->
<g id="node41" class="node">
<title>Node42</title>
<polygon fill="none" stroke="#bfbfbf" points="80.9627,-638.5 80.9627,-657.5 137.9627,-657.5 137.9627,-638.5 80.9627,-638.5"/>
<text text-anchor="middle" x="109.4627" y="-645.5" font-family="FreeSans.ttf" font-size="10.00" fill="#000000">irrlicht.h</text>
</g>
<!-- Node1&#45;&gt;Node42 -->
<g id="edge86" class="edge">
<title>Node1&#45;&gt;Node42</title>
<path fill="none" stroke="#191970" d="M79.7334,-694.2455C84.6891,-686.5367 91.7457,-675.5598 97.7403,-666.2348"/>
<polygon fill="#191970" stroke="#191970" points="100.8004,-667.9471 103.2639,-657.6427 94.9121,-664.1618 100.8004,-667.9471"/>
</g>
<!-- Node3 -->
<g id="node4" class="node">
<title>Node3</title>
<polygon fill="none" stroke="#bfbfbf" points="487.4627,-112.5 487.4627,-131.5 531.4627,-131.5 531.4627,-112.5 487.4627,-112.5"/>
<text text-anchor="middle" x="509.4627" y="-119.5" font-family="FreeSans.ttf" font-size="10.00" fill="#000000">string</text>
</g>
<!-- Node2&#45;&gt;Node3 -->
<g id="edge3" class="edge">
<title>Node2&#45;&gt;Node3</title>
<path fill="none" stroke="#191970" d="M345.8089,-642.5202C258.293,-630.9983 97.0986,-595.8193 19.4627,-490 -1.3882,-461.5798 .4627,-448.2487 .4627,-413 .4627,-413 .4627,-413 .4627,-239.5 .4627,-141.209 365.3741,-125.1281 477.2484,-122.5076"/>
<polygon fill="#191970" stroke="#191970" points="477.3414,-126.0066 487.2643,-122.2938 477.1919,-119.0081 477.3414,-126.0066"/>
</g>
<!-- Node4 -->
<g id="node5" class="node">
<title>Node4</title>
<g id="a_node5"><a xlink:href="Direction_8h.html" target="_top" xlink:title="iDynTree/Core/Direction.h">
<polygon fill="none" stroke="#000000" points="834.9627,-230 834.9627,-249 975.9627,-249 975.9627,-230 834.9627,-230"/>
<text text-anchor="middle" x="905.4627" y="-237" font-family="FreeSans.ttf" font-size="10.00" fill="#000000">iDynTree/Core/Direction.h</text>
</a>
</g>
</g>
<!-- Node2&#45;&gt;Node4 -->
<g id="edge4" class="edge">
<title>Node2&#45;&gt;Node4</title>
<path fill="none" stroke="#191970" d="M465.0702,-646.7376C598.9252,-642.5152 916.805,-624.2825 982.4627,-546 988.1749,-539.1895 983.8632,-534.7779 982.4627,-526 974.1365,-473.8141 945.4627,-465.8459 945.4627,-413 945.4627,-413 945.4627,-413 945.4627,-357 945.4627,-320.3963 927.8519,-280.636 916.0009,-258.0237"/>
<polygon fill="#191970" stroke="#191970" points="919.0437,-256.2928 911.1938,-249.1774 912.8931,-259.6351 919.0437,-256.2928"/>
</g>
<!-- Node20 -->
<g id="node19" class="node">
<title>Node20</title>
<g id="a_node19"><a xlink:href="Position_8h.html" target="_top" xlink:title="iDynTree/Core/Position.h">
<polygon fill="none" stroke="#000000" points="438.4627,-347.5 438.4627,-366.5 574.4627,-366.5 574.4627,-347.5 438.4627,-347.5"/>
<text text-anchor="middle" x="506.4627" y="-354.5" font-family="FreeSans.ttf" font-size="10.00" fill="#000000">iDynTree/Core/Position.h</text>
</a>
</g>
</g>
<!-- Node2&#45;&gt;Node20 -->
<g id="edge24" class="edge">
<title>Node2&#45;&gt;Node20</title>
<path fill="none" stroke="#191970" d="M433.9323,-638.4617C451.7245,-631.121 473.7797,-619.2734 487.4627,-602 506.4165,-578.0729 506.4627,-566.5246 506.4627,-536 506.4627,-536 506.4627,-536 506.4627,-474.5 506.4627,-440.1399 506.4627,-400.128 506.4627,-376.7764"/>
<polygon fill="#191970" stroke="#191970" points="509.9628,-376.7489 506.4627,-366.7489 502.9628,-376.749 509.9628,-376.7489"/>
</g>
<!-- Node28 -->
<g id="node27" class="node">
<title>Node28</title>
<g id="a_node27"><a xlink:href="JointState_8h.html" target="_top" xlink:title="iDynTree/Model/JointState.h">
<polygon fill="none" stroke="#000000" points="1183.9627,-526.5 1183.9627,-545.5 1334.9627,-545.5 1334.9627,-526.5 1183.9627,-526.5"/>
<text text-anchor="middle" x="1259.4627" y="-533.5" font-family="FreeSans.ttf" font-size="10.00" fill="#000000">iDynTree/Model/JointState.h</text>
</a>
</g>
</g>
<!-- Node2&#45;&gt;Node28 -->
<g id="edge47" class="edge">
<title>Node2&#45;&gt;Node28</title>
<path fill="none" stroke="#191970" d="M465.333,-644.9457C597.6704,-637.9579 911.6227,-620.0155 1016.4627,-602 1090.2725,-589.3167 1174.1171,-564.0522 1221.5122,-548.725"/>
<polygon fill="#191970" stroke="#191970" points="1222.6334,-552.0409 1231.0558,-545.6133 1220.4634,-545.3857 1222.6334,-552.0409"/>
</g>
<!-- Node33 -->
<g id="node32" class="node">
<title>Node33</title>
<g id="a_node32"><a xlink:href="LinkState_8h.html" target="_top" xlink:title="iDynTree/Model/LinkState.h">
<polygon fill="none" stroke="#000000" points="329.9627,-582.5 329.9627,-601.5 478.9627,-601.5 478.9627,-582.5 329.9627,-582.5"/>
<text text-anchor="middle" x="404.4627" y="-589.5" font-family="FreeSans.ttf" font-size="10.00" fill="#000000">iDynTree/Model/LinkState.h</text>
</a>
</g>
</g>
<!-- Node2&#45;&gt;Node33 -->
<g id="edge63" class="edge">
<title>Node2&#45;&gt;Node33</title>
<path fill="none" stroke="#191970" d="M405.2885,-638.2455C405.1581,-630.9382 404.9751,-620.6944 404.8146,-611.7046"/>
<polygon fill="#191970" stroke="#191970" points="408.313,-611.5786 404.6349,-601.6427 401.3141,-611.7036 408.313,-611.5786"/>
</g>
<!-- Node4&#45;&gt;Node3 -->
<g id="edge5" class="edge">
<title>Node4&#45;&gt;Node3</title>
<path fill="none" stroke="#191970" d="M873.3918,-229.984C799.0041,-207.9119 615.4217,-153.4399 541.2815,-131.4412"/>
<polygon fill="#191970" stroke="#191970" points="542.1516,-128.0486 531.5691,-128.5593 540.1603,-134.7594 542.1516,-128.0486"/>
</g>
<!-- Node5 -->
<g id="node6" class="node">
<title>Node5</title>
<g id="a_node6"><a xlink:href="VectorFixSize_8h.html" target="_top" xlink:title="iDynTree/Core/VectorFixSize.h">
<polygon fill="none" stroke="#000000" points="1144.9627,-168.5 1144.9627,-187.5 1305.9627,-187.5 1305.9627,-168.5 1144.9627,-168.5"/>
<text text-anchor="middle" x="1225.4627" y="-175.5" font-family="FreeSans.ttf" font-size="10.00" fill="#000000">iDynTree/Core/VectorFixSize.h</text>
</a>
</g>
</g>
<!-- Node4&#45;&gt;Node5 -->
<g id="edge6" class="edge">
<title>Node4&#45;&gt;Node5</title>
<path fill="none" stroke="#191970" d="M955.1116,-229.9581C1012.0671,-219.012 1105.3965,-201.0752 1166.1321,-189.4026"/>
<polygon fill="#191970" stroke="#191970" points="1166.801,-192.8382 1175.9607,-187.5137 1165.4798,-185.964 1166.801,-192.8382"/>
</g>
<!-- Node6 -->
<g id="node7" class="node">
<title>Node6</title>
<g id="a_node7"><a xlink:href="Utils_8h.html" target="_top" xlink:title="iDynTree/Core/Utils.h">
<polygon fill="none" stroke="#000000" points="1288.9627,-56.5 1288.9627,-75.5 1407.9627,-75.5 1407.9627,-56.5 1288.9627,-56.5"/>
<text text-anchor="middle" x="1348.4627" y="-63.5" font-family="FreeSans.ttf" font-size="10.00" fill="#000000">iDynTree/Core/Utils.h</text>
</a>
</g>
</g>
<!-- Node4&#45;&gt;Node6 -->
<g id="edge23" class="edge">
<title>Node4&#45;&gt;Node6</title>
<path fill="none" stroke="#191970" d="M943.2339,-229.9906C982.4292,-219.5699 1040.4744,-202.4161 1058.4627,-188 1089.2726,-163.3086 1072.0199,-134.5028 1104.4627,-112 1132.102,-92.8291 1216.721,-79.9369 1278.5764,-72.7927"/>
<polygon fill="#191970" stroke="#191970" points="1279.1368,-76.2518 1288.6815,-71.6529 1278.3522,-69.2959 1279.1368,-76.2518"/>
</g>
<!-- Node5&#45;&gt;Node3 -->
<g id="edge18" class="edge">
<title>Node5&#45;&gt;Node3</title>
<path fill="none" stroke="#191970" d="M1144.7202,-171.6849C987.7291,-159.4063 647.4533,-132.7926 541.5723,-124.5114"/>
<polygon fill="#191970" stroke="#191970" points="541.7521,-121.0148 531.5096,-123.7243 541.2062,-127.9935 541.7521,-121.0148"/>
</g>
<!-- Node5&#45;&gt;Node6 -->
<g id="edge7" class="edge">
<title>Node5&#45;&gt;Node6</title>
<path fill="none" stroke="#191970" d="M1231.659,-168.2243C1240.6295,-154.568 1258.2737,-129.4928 1277.4627,-112 1290.603,-100.0212 1307.1933,-89.0848 1321.0319,-80.8837"/>
<polygon fill="#191970" stroke="#191970" points="1323.1773,-83.6872 1330.0967,-75.6639 1319.6842,-77.621 1323.1773,-83.6872"/>
</g>
<!-- Node7 -->
<g id="node8" class="node">
<title>Node7</title>
<polygon fill="none" stroke="#bfbfbf" points="1299.9627,-.5 1299.9627,-19.5 1352.9627,-19.5 1352.9627,-.5 1299.9627,-.5"/>
<text text-anchor="middle" x="1326.4627" y="-7.5" font-family="FreeSans.ttf" font-size="10.00" fill="#000000">cstddef</text>
</g>
<!-- Node5&#45;&gt;Node7 -->
<g id="edge21" class="edge">
<title>Node5&#45;&gt;Node7</title>
<path fill="none" stroke="#191970" d="M1228.5205,-168.2065C1235.5271,-146.6607 1254.1866,-94.042 1280.4627,-56 1287.9325,-45.1855 1298.1169,-34.6973 1307.0042,-26.4736"/>
<polygon fill="#191970" stroke="#191970" points="1309.5587,-28.8849 1314.6862,-19.6135 1304.8961,-23.6637 1309.5587,-28.8849"/>
</g>
<!-- Node9 -->
<g id="node10" class="node">
<title>Node9</title>
<g id="a_node10"><a xlink:href="Span_8h.html" target="_top" xlink:title="iDynTree/Core/Span.h">
<polygon fill="none" stroke="#ff0000" points="1644.9627,-56.5 1644.9627,-75.5 1765.9627,-75.5 1765.9627,-56.5 1644.9627,-56.5"/>
<text text-anchor="middle" x="1705.4627" y="-63.5" font-family="FreeSans.ttf" font-size="10.00" fill="#000000">iDynTree/Core/Span.h</text>
</a>
</g>
</g>
<!-- Node5&#45;&gt;Node9 -->
<g id="edge10" class="edge">
<title>Node5&#45;&gt;Node9</title>
<path fill="none" stroke="#191970" d="M1306.1789,-174.5462C1407.3083,-169.2384 1574.1825,-156.9562 1630.4627,-132 1655.0787,-121.0846 1677.4214,-99.1352 1691.1949,-83.5492"/>
<polygon fill="#191970" stroke="#191970" points="1694.1005,-85.5359 1697.9252,-75.6555 1688.7738,-80.9942 1694.1005,-85.5359"/>
</g>
<!-- Node10 -->
<g id="node11" class="node">
<title>Node10</title>
<polygon fill="none" stroke="#bfbfbf" points="1486.4627,-.5 1486.4627,-19.5 1538.4627,-19.5 1538.4627,-.5 1486.4627,-.5"/>
<text text-anchor="middle" x="1512.4627" y="-7.5" font-family="FreeSans.ttf" font-size="10.00" fill="#000000">cassert</text>
</g>
<!-- Node5&#45;&gt;Node10 -->
<g id="edge20" class="edge">
<title>Node5&#45;&gt;Node10</title>
<path fill="none" stroke="#191970" d="M1306.1863,-173.6161C1409.7823,-167.1504 1578.4991,-153.4531 1597.4627,-132 1628.8274,-96.518 1571.5889,-49.2385 1536.6288,-25.2912"/>
<polygon fill="#191970" stroke="#191970" points="1538.5493,-22.3651 1528.2881,-19.727 1534.6646,-28.1882 1538.5493,-22.3651"/>
</g>
<!-- Node18 -->
<g id="node17" class="node">
<title>Node18</title>
<polygon fill="none" stroke="#bfbfbf" points="1286.4627,-112.5 1286.4627,-131.5 1342.4627,-131.5 1342.4627,-112.5 1286.4627,-112.5"/>
<text text-anchor="middle" x="1314.4627" y="-119.5" font-family="FreeSans.ttf" font-size="10.00" fill="#000000">sstream</text>
</g>
<!-- Node5&#45;&gt;Node18 -->
<g id="edge19" class="edge">
<title>Node5&#45;&gt;Node18</title>
<path fill="none" stroke="#191970" d="M1240.9653,-168.2455C1254.6207,-159.6534 1274.7284,-147.0014 1290.4616,-137.1018"/>
<polygon fill="#191970" stroke="#191970" points="1292.5378,-139.9307 1299.1378,-131.6427 1288.8099,-134.006 1292.5378,-139.9307"/>
</g>
<!-- Node19 -->
<g id="node18" class="node">
<title>Node19</title>
<polygon fill="none" stroke="#bfbfbf" points="1113.4627,-112.5 1113.4627,-131.5 1163.4627,-131.5 1163.4627,-112.5 1113.4627,-112.5"/>
<text text-anchor="middle" x="1138.4627" y="-119.5" font-family="FreeSans.ttf" font-size="10.00" fill="#000000">cstring</text>
</g>
<!-- Node5&#45;&gt;Node19 -->
<g id="edge22" class="edge">
<title>Node5&#45;&gt;Node19</title>
<path fill="none" stroke="#191970" d="M1210.3085,-168.2455C1196.96,-159.6534 1177.3041,-147.0014 1161.9245,-137.1018"/>
<polygon fill="#191970" stroke="#191970" points="1163.7463,-134.1121 1153.4433,-131.6427 1159.9576,-139.9982 1163.7463,-134.1121"/>
</g>
<!-- Node6&#45;&gt;Node7 -->
<g id="edge8" class="edge">
<title>Node6&#45;&gt;Node7</title>
<path fill="none" stroke="#191970" d="M1344.6306,-56.2455C1341.6968,-48.7776 1337.5581,-38.2427 1333.9717,-29.1137"/>
<polygon fill="#191970" stroke="#191970" points="1337.1651,-27.6704 1330.2509,-19.6427 1330.6499,-30.23 1337.1651,-27.6704"/>
</g>
<!-- Node8 -->
<g id="node9" class="node">
<title>Node8</title>
<polygon fill="none" stroke="#bfbfbf" points="1371.4627,-.5 1371.4627,-19.5 1451.4627,-19.5 1451.4627,-.5 1371.4627,-.5"/>
<text text-anchor="middle" x="1411.4627" y="-7.5" font-family="FreeSans.ttf" font-size="10.00" fill="#000000">CoreExport.h</text>
</g>
<!-- Node6&#45;&gt;Node8 -->
<g id="edge9" class="edge">
<title>Node6&#45;&gt;Node8</title>
<path fill="none" stroke="#191970" d="M1359.4365,-56.2455C1368.6509,-48.0549 1382.0159,-36.1749 1392.8924,-26.5069"/>
<polygon fill="#191970" stroke="#191970" points="1395.4659,-28.9023 1400.6147,-19.6427 1390.8153,-23.6704 1395.4659,-28.9023"/>
</g>
<!-- Node9&#45;&gt;Node7 -->
<g id="edge14" class="edge">
<title>Node9&#45;&gt;Node7</title>
<path fill="none" stroke="#191970" d="M1644.9398,-60.4281C1578.2295,-53.7173 1467.6425,-40.9153 1363.1874,-19.8988"/>
<polygon fill="#191970" stroke="#191970" points="1363.5977,-16.4104 1353.0996,-17.8392 1362.1974,-23.2689 1363.5977,-16.4104"/>
</g>
<!-- Node9&#45;&gt;Node10 -->
<g id="edge11" class="edge">
<title>Node9&#45;&gt;Node10</title>
<path fill="none" stroke="#191970" d="M1672.2848,-56.3733C1637.8541,-46.383 1584.1679,-30.8056 1548.6599,-20.5028"/>
<polygon fill="#191970" stroke="#191970" points="1549.2913,-17.0417 1538.7121,-17.6164 1547.3406,-23.7644 1549.2913,-17.0417"/>
</g>
<!-- Node11 -->
<g id="node12" class="node">
<title>Node11</title>
<polygon fill="none" stroke="#bfbfbf" points="1702.4627,-.5 1702.4627,-19.5 1766.4627,-19.5 1766.4627,-.5 1702.4627,-.5"/>
<text text-anchor="middle" x="1734.4627" y="-7.5" font-family="FreeSans.ttf" font-size="10.00" fill="#000000">algorithm</text>
</g>
<!-- Node9&#45;&gt;Node11 -->
<g id="edge12" class="edge">
<title>Node9&#45;&gt;Node11</title>
<path fill="none" stroke="#191970" d="M1710.5141,-56.2455C1714.4646,-48.617 1720.0724,-37.7881 1724.8685,-28.5267"/>
<polygon fill="#191970" stroke="#191970" points="1727.9786,-30.1321 1729.4692,-19.6427 1721.7626,-26.9131 1727.9786,-30.1321"/>
</g>
<!-- Node12 -->
<g id="node13" class="node">
<title>Node12</title>
<polygon fill="none" stroke="#bfbfbf" points="1784.4627,-.5 1784.4627,-19.5 1826.4627,-19.5 1826.4627,-.5 1784.4627,-.5"/>
<text text-anchor="middle" x="1805.4627" y="-7.5" font-family="FreeSans.ttf" font-size="10.00" fill="#000000">array</text>
</g>
<!-- Node9&#45;&gt;Node12 -->
<g id="edge13" class="edge">
<title>Node9&#45;&gt;Node12</title>
<path fill="none" stroke="#191970" d="M1722.8814,-56.2455C1738.5113,-47.4928 1761.6646,-34.527 1779.4813,-24.5496"/>
<polygon fill="#191970" stroke="#191970" points="1781.2287,-27.5825 1788.2437,-19.6427 1777.8085,-21.475 1781.2287,-27.5825"/>
</g>
<!-- Node13 -->
<g id="node14" class="node">
<title>Node13</title>
<polygon fill="none" stroke="#bfbfbf" points="1844.9627,-.5 1844.9627,-19.5 1897.9627,-19.5 1897.9627,-.5 1844.9627,-.5"/>
<text text-anchor="middle" x="1871.4627" y="-7.5" font-family="FreeSans.ttf" font-size="10.00" fill="#000000">iterator</text>
</g>
<!-- Node9&#45;&gt;Node13 -->
<g id="edge15" class="edge">
<title>Node9&#45;&gt;Node13</title>
<path fill="none" stroke="#191970" d="M1733.9991,-56.3733C1761.9826,-46.933 1804.7542,-32.5041 1835.1478,-22.2508"/>
<polygon fill="#191970" stroke="#191970" points="1836.5849,-25.4599 1844.9415,-18.9469 1834.3473,-18.8271 1836.5849,-25.4599"/>
</g>
<!-- Node14 -->
<g id="node15" class="node">
<title>Node14</title>
<polygon fill="none" stroke="#bfbfbf" points="1556.4627,-.5 1556.4627,-19.5 1600.4627,-19.5 1600.4627,-.5 1556.4627,-.5"/>
<text text-anchor="middle" x="1578.4627" y="-7.5" font-family="FreeSans.ttf" font-size="10.00" fill="#000000">limits</text>
</g>
<!-- Node9&#45;&gt;Node14 -->
<g id="edge16" class="edge">
<title>Node9&#45;&gt;Node14</title>
<path fill="none" stroke="#191970" d="M1683.6306,-56.3733C1663.1524,-47.3435 1632.3229,-33.7494 1609.3308,-23.6111"/>
<polygon fill="#191970" stroke="#191970" points="1610.572,-20.3333 1600.0099,-19.5011 1607.7477,-26.7383 1610.572,-20.3333"/>
</g>
<!-- Node15 -->
<g id="node16" class="node">
<title>Node15</title>
<polygon fill="none" stroke="#bfbfbf" points="1618.9627,-.5 1618.9627,-19.5 1683.9627,-19.5 1683.9627,-.5 1618.9627,-.5"/>
<text text-anchor="middle" x="1651.4627" y="-7.5" font-family="FreeSans.ttf" font-size="10.00" fill="#000000">stdexcept</text>
</g>
<!-- Node9&#45;&gt;Node15 -->
<g id="edge17" class="edge">
<title>Node9&#45;&gt;Node15</title>
<path fill="none" stroke="#191970" d="M1696.0566,-56.2455C1688.3134,-48.2155 1677.1507,-36.6394 1667.9309,-27.0781"/>
<polygon fill="#191970" stroke="#191970" points="1670.2219,-24.4117 1660.761,-19.6427 1665.1829,-29.2706 1670.2219,-24.4117"/>
</g>
<!-- Node20&#45;&gt;Node3 -->
<g id="edge46" class="edge">
<title>Node20&#45;&gt;Node3</title>
<path fill="none" stroke="#191970" d="M500.6746,-347.3125C490.5206,-329.6895 469.8728,-290.8857 462.4627,-255 454.6248,-217.0423 452.7519,-203.4315 468.4627,-168 473.3412,-156.998 481.8498,-146.7822 489.8559,-138.7864"/>
<polygon fill="#191970" stroke="#191970" points="492.6383,-140.9756 497.5414,-131.5836 487.8515,-135.868 492.6383,-140.9756"/>
</g>
<!-- Node21 -->
<g id="node20" class="node">
<title>Node21</title>
<g id="a_node20"><a xlink:href="PositionRaw_8h.html" target="_top" xlink:title="iDynTree/Core/PositionRaw.h">
<polygon fill="none" stroke="#000000" points="660.4627,-230 660.4627,-249 816.4627,-249 816.4627,-230 660.4627,-230"/>
<text text-anchor="middle" x="738.4627" y="-237" font-family="FreeSans.ttf" font-size="10.00" fill="#000000">iDynTree/Core/PositionRaw.h</text>
</a>
</g>
</g>
<!-- Node20&#45;&gt;Node21 -->
<g id="edge25" class="edge">
<title>Node20&#45;&gt;Node21</title>
<path fill="none" stroke="#191970" d="M506.3792,-347.4067C506.7992,-333.0368 509.7909,-306.011 525.4627,-291 536.5658,-280.3651 618.5735,-262.6269 677.5148,-250.9964"/>
<polygon fill="#191970" stroke="#191970" points="678.3538,-254.3986 687.4945,-249.0417 677.0082,-247.5292 678.3538,-254.3986"/>
</g>
<!-- Node22 -->
<g id="node21" class="node">
<title>Node22</title>
<g id="a_node21"><a xlink:href="Rotation_8h.html" target="_top" xlink:title="iDynTree/Core/Rotation.h">
<polygon fill="none" stroke="#000000" points="534.9627,-291.5 534.9627,-310.5 671.9627,-310.5 671.9627,-291.5 534.9627,-291.5"/>
<text text-anchor="middle" x="603.4627" y="-298.5" font-family="FreeSans.ttf" font-size="10.00" fill="#000000">iDynTree/Core/Rotation.h</text>
</a>
</g>
</g>
<!-- Node20&#45;&gt;Node22 -->
<g id="edge28" class="edge">
<title>Node20&#45;&gt;Node22</title>
<path fill="none" stroke="#191970" d="M523.3588,-347.2455C538.3807,-338.5731 560.5671,-325.7645 577.7837,-315.825"/>
<polygon fill="#191970" stroke="#191970" points="579.8498,-318.6737 586.7602,-310.6427 576.3499,-312.6114 579.8498,-318.6737"/>
</g>
<!-- Node21&#45;&gt;Node3 -->
<g id="edge27" class="edge">
<title>Node21&#45;&gt;Node3</title>
<path fill="none" stroke="#191970" d="M719.7227,-229.8845C679.4488,-209.2199 584.4746,-160.4886 537.1988,-136.2314"/>
<polygon fill="#191970" stroke="#191970" points="538.6355,-133.0348 528.1405,-131.5836 535.4399,-139.2628 538.6355,-133.0348"/>
</g>
<!-- Node21&#45;&gt;Node5 -->
<g id="edge26" class="edge">
<title>Node21&#45;&gt;Node5</title>
<path fill="none" stroke="#191970" d="M788.9814,-229.9548C800.9205,-227.8501 813.6222,-225.7339 825.4627,-224 931.2554,-208.508 1053.4262,-195.1068 1134.6359,-186.8286"/>
<polygon fill="#191970" stroke="#191970" points="1135.231,-190.2863 1144.8266,-185.7948 1134.5244,-183.322 1135.231,-190.2863"/>
</g>
<!-- Node22&#45;&gt;Node3 -->
<g id="edge29" class="edge">
<title>Node22&#45;&gt;Node3</title>
<path fill="none" stroke="#191970" d="M561.7029,-291.4925C528.4087,-282.967 485.7183,-269.5833 475.4627,-255 450.5675,-219.5993 478.0977,-167.5007 496.2052,-140.2051"/>
<polygon fill="#191970" stroke="#191970" points="499.3096,-141.8693 502.1156,-131.6528 493.5509,-137.8895 499.3096,-141.8693"/>
</g>
<!-- Node22&#45;&gt;Node5 -->
<g id="edge45" class="edge">
<title>Node22&#45;&gt;Node5</title>
<path fill="none" stroke="#191970" d="M672.1451,-297.6991C749.128,-292.8522 877.216,-281.3357 984.4627,-255 1022.3004,-245.7085 1029.4976,-236.3127 1066.4627,-224 1104.2254,-211.4217 1147.6703,-198.9885 1179.5941,-190.2255"/>
<polygon fill="#191970" stroke="#191970" points="1180.8063,-193.5228 1189.5323,-187.5138 1178.9636,-186.7696 1180.8063,-193.5228"/>
</g>
<!-- Node23 -->
<g id="node22" class="node">
<title>Node23</title>
<g id="a_node22"><a xlink:href="GeomVector3_8h.html" target="_top" xlink:title="iDynTree/Core/GeomVector3.h">
<polygon fill="none" stroke="#000000" points="1108.9627,-230 1108.9627,-249 1271.9627,-249 1271.9627,-230 1108.9627,-230"/>
<text text-anchor="middle" x="1190.4627" y="-237" font-family="FreeSans.ttf" font-size="10.00" fill="#000000">iDynTree/Core/GeomVector3.h</text>
</a>
</g>
</g>
<!-- Node22&#45;&gt;Node23 -->
<g id="edge30" class="edge">
<title>Node22&#45;&gt;Node23</title>
<path fill="none" stroke="#191970" d="M672.2363,-293.7946C777.9918,-282.7146 980.6668,-261.4803 1098.7847,-249.1051"/>
<polygon fill="#191970" stroke="#191970" points="1099.3118,-252.5691 1108.8926,-248.0461 1098.5823,-245.6072 1099.3118,-252.5691"/>
</g>
<!-- Node24 -->
<g id="node23" class="node">
<title>Node24</title>
<g id="a_node23"><a xlink:href="RotationRaw_8h.html" target="_top" xlink:title="iDynTree/Core/RotationRaw.h">
<polygon fill="none" stroke="#000000" points="484.4627,-230 484.4627,-249 642.4627,-249 642.4627,-230 484.4627,-230"/>
<text text-anchor="middle" x="563.4627" y="-237" font-family="FreeSans.ttf" font-size="10.00" fill="#000000">iDynTree/Core/RotationRaw.h</text>
</a>
</g>
</g>
<!-- Node22&#45;&gt;Node24 -->
<g id="edge32" class="edge">
<title>Node22&#45;&gt;Node24</title>
<path fill="none" stroke="#191970" d="M597.2127,-291.3906C591.3762,-282.417 582.5118,-268.7879 575.3321,-257.7491"/>
<polygon fill="#191970" stroke="#191970" points="578.1872,-255.7194 569.8008,-249.2449 572.3192,-259.5361 578.1872,-255.7194"/>
</g>
<!-- Node23&#45;&gt;Node5 -->
<g id="edge31" class="edge">
<title>Node23&#45;&gt;Node5</title>
<path fill="none" stroke="#191970" d="M1195.9315,-229.8906C1200.9873,-221.0068 1208.6399,-207.5601 1214.8881,-196.5811"/>
<polygon fill="#191970" stroke="#191970" points="1218.0126,-198.1672 1219.9169,-187.7449 1211.9288,-194.7048 1218.0126,-198.1672"/>
</g>
<!-- Node24&#45;&gt;Node3 -->
<g id="edge44" class="edge">
<title>Node24&#45;&gt;Node3</title>
<path fill="none" stroke="#191970" d="M559.0437,-229.8845C550.1439,-210.5192 529.9163,-166.5055 518.2333,-141.084"/>
<polygon fill="#191970" stroke="#191970" points="521.299,-139.3732 513.9428,-131.7484 514.9385,-142.2963 521.299,-139.3732"/>
</g>
<!-- Node25 -->
<g id="node24" class="node">
<title>Node25</title>
<g id="a_node24"><a xlink:href="MatrixFixSize_8h.html" target="_top" xlink:title="iDynTree/Core/MatrixFixSize.h">
<polygon fill="none" stroke="#000000" points="888.9627,-168.5 888.9627,-187.5 1049.9627,-187.5 1049.9627,-168.5 888.9627,-168.5"/>
<text text-anchor="middle" x="969.4627" y="-175.5" font-family="FreeSans.ttf" font-size="10.00" fill="#000000">iDynTree/Core/MatrixFixSize.h</text>
</a>
</g>
</g>
<!-- Node24&#45;&gt;Node25 -->
<g id="edge33" class="edge">
<title>Node24&#45;&gt;Node25</title>
<path fill="none" stroke="#191970" d="M616.0008,-229.9743C627.6649,-227.9353 639.9748,-225.8422 651.4627,-224 732.2389,-211.047 824.8275,-197.8386 889.1856,-188.9182"/>
<polygon fill="#191970" stroke="#191970" points="889.84,-192.3611 899.2662,-187.5241 888.8809,-185.4271 889.84,-192.3611"/>
</g>
<!-- Node25&#45;&gt;Node3 -->
<g id="edge41" class="edge">
<title>Node25&#45;&gt;Node3</title>
<path fill="none" stroke="#191970" d="M891.1694,-168.4686C788.7129,-155.9957 613.7574,-134.6967 541.8145,-125.9385"/>
<polygon fill="#191970" stroke="#191970" points="541.9229,-122.4259 531.5731,-124.6917 541.0769,-129.3746 541.9229,-122.4259"/>
</g>
<!-- Node25&#45;&gt;Node6 -->
<g id="edge34" class="edge">
<title>Node25&#45;&gt;Node6</title>
<path fill="none" stroke="#191970" d="M969.178,-168.1848C969.3353,-153.5249 971.9884,-126.1256 988.4627,-112 1010.0312,-93.5065 1179.9121,-78.238 1278.4092,-70.8303"/>
<polygon fill="#191970" stroke="#191970" points="1278.8755,-74.3054 1288.5885,-70.0736 1278.3565,-67.3246 1278.8755,-74.3054"/>
</g>
<!-- Node25&#45;&gt;Node10 -->
<g id="edge39" class="edge">
<title>Node25&#45;&gt;Node10</title>
<path fill="none" stroke="#191970" d="M966.3407,-168.1493C962.5105,-153.9401 958.0507,-127.6811 971.4627,-112 1043.3334,-27.9701 1351.8374,-40.663 1460.4627,-20 1465.5809,-19.0264 1470.9814,-17.9938 1476.2883,-16.976"/>
<polygon fill="#191970" stroke="#191970" points="1477.1196,-20.3804 1486.2797,-15.0565 1475.7989,-13.5061 1477.1196,-20.3804"/>
</g>
<!-- Node25&#45;&gt;Node18 -->
<g id="edge43" class="edge">
<title>Node25&#45;&gt;Node18</title>
<path fill="none" stroke="#191970" d="M1028.3783,-168.4369C1099.1839,-156.9438 1215.9508,-137.9903 1276.0653,-128.2326"/>
<polygon fill="#191970" stroke="#191970" points="1276.9485,-131.6352 1286.2585,-126.5781 1275.8269,-124.7256 1276.9485,-131.6352"/>
</g>
<!-- Node25&#45;&gt;Node19 -->
<g id="edge40" class="edge">
<title>Node25&#45;&gt;Node19</title>
<path fill="none" stroke="#191970" d="M998.5149,-168.3733C1027.724,-158.6945 1072.7591,-143.7716 1103.8129,-133.4816"/>
<polygon fill="#191970" stroke="#191970" points="1104.9748,-136.7838 1113.3663,-130.316 1102.7729,-130.1391 1104.9748,-136.7838"/>
</g>
<!-- Node26 -->
<g id="node25" class="node">
<title>Node26</title>
<g id="a_node25"><a xlink:href="MatrixView_8h.html" target="_top" xlink:title="iDynTree/Core/MatrixView.h">
<polygon fill="none" stroke="#ff0000" points="1436.9627,-112.5 1436.9627,-131.5 1587.9627,-131.5 1587.9627,-112.5 1436.9627,-112.5"/>
<text text-anchor="middle" x="1512.4627" y="-119.5" font-family="FreeSans.ttf" font-size="10.00" fill="#000000">iDynTree/Core/MatrixView.h</text>
</a>
</g>
</g>
<!-- Node25&#45;&gt;Node26 -->
<g id="edge35" class="edge">
<title>Node25&#45;&gt;Node26</title>
<path fill="none" stroke="#191970" d="M1050.169,-169.6767C1151.0969,-159.2679 1323.1536,-141.5236 1426.4867,-130.8668"/>
<polygon fill="#191970" stroke="#191970" points="1426.9877,-134.3338 1436.5758,-129.8263 1426.2695,-127.3707 1426.9877,-134.3338"/>
</g>
<!-- Node27 -->
<g id="node26" class="node">
<title>Node27</title>
<polygon fill="none" stroke="#bfbfbf" points="997.4627,-112.5 997.4627,-131.5 1057.4627,-131.5 1057.4627,-112.5 997.4627,-112.5"/>
<text text-anchor="middle" x="1027.4627" y="-119.5" font-family="FreeSans.ttf" font-size="10.00" fill="#000000">iostream</text>
</g>
<!-- Node25&#45;&gt;Node27 -->
<g id="edge42" class="edge">
<title>Node25&#45;&gt;Node27</title>
<path fill="none" stroke="#191970" d="M979.5656,-168.2455C987.9655,-160.1352 1000.1121,-148.4075 1010.0711,-138.7919"/>
<polygon fill="#191970" stroke="#191970" points="1012.7127,-141.1066 1017.4757,-131.6427 1007.8505,-136.0707 1012.7127,-141.1066"/>
</g>
<!-- Node26&#45;&gt;Node6 -->
<g id="edge38" class="edge">
<title>Node26&#45;&gt;Node6</title>
<path fill="none" stroke="#191970" d="M1484.2701,-112.3733C1457.1175,-103.1016 1415.8721,-89.0178 1385.9602,-78.804"/>
<polygon fill="#191970" stroke="#191970" points="1386.882,-75.4204 1376.2874,-75.5011 1384.6199,-82.0449 1386.882,-75.4204"/>
</g>
<!-- Node26&#45;&gt;Node9 -->
<g id="edge37" class="edge">
<title>Node26&#45;&gt;Node9</title>
<path fill="none" stroke="#191970" d="M1545.6406,-112.3733C1578.0114,-102.9807 1627.4025,-88.6496 1662.7051,-78.4064"/>
<polygon fill="#191970" stroke="#191970" points="1664.0892,-81.6492 1672.7178,-75.5011 1662.1385,-74.9264 1664.0892,-81.6492"/>
</g>
<!-- Node26&#45;&gt;Node10 -->
<g id="edge36" class="edge">
<title>Node26&#45;&gt;Node10</title>
<path fill="none" stroke="#191970" d="M1512.4627,-112.4509C1512.4627,-94.184 1512.4627,-53.9553 1512.4627,-29.6976"/>
<polygon fill="#191970" stroke="#191970" points="1515.9628,-29.5249 1512.4627,-19.5249 1508.9628,-29.5249 1515.9628,-29.5249"/>
</g>
<!-- Node28&#45;&gt;Node5 -->
<g id="edge48" class="edge">
<title>Node28&#45;&gt;Node5</title>
<path fill="none" stroke="#191970" d="M1293.3592,-526.4632C1311.3329,-519.4893 1331.8429,-508.0275 1342.4627,-490 1349.4559,-478.1289 1343.5593,-472.7341 1342.4627,-459 1334.0243,-353.3142 1362.7416,-310.5193 1301.4627,-224 1291.5178,-209.9587 1275.8072,-199.4196 1261.2449,-191.9967"/>
<polygon fill="#191970" stroke="#191970" points="1262.4478,-188.6933 1251.9134,-187.5634 1259.4439,-195.0161 1262.4478,-188.6933"/>
</g>
<!-- Node29 -->
<g id="node28" class="node">
<title>Node29</title>
<g id="a_node28"><a xlink:href="VectorDynSize_8h.html" target="_top" xlink:title="iDynTree/Core/VectorDynSize.h">
<polygon fill="none" stroke="#000000" points="1426.9627,-347.5 1426.9627,-366.5 1593.9627,-366.5 1593.9627,-347.5 1426.9627,-347.5"/>
<text text-anchor="middle" x="1510.4627" y="-354.5" font-family="FreeSans.ttf" font-size="10.00" fill="#000000">iDynTree/Core/VectorDynSize.h</text>
</a>
</g>
</g>
<!-- Node28&#45;&gt;Node29 -->
<g id="edge49" class="edge">
<title>Node28&#45;&gt;Node29</title>
<path fill="none" stroke="#191970" d="M1293.68,-526.4279C1317.7445,-518.7686 1350.0549,-506.5642 1375.4627,-490 1426.197,-456.9246 1473.7702,-402.6489 1496.4967,-374.7626"/>
<polygon fill="#191970" stroke="#191970" points="1499.442,-376.6847 1502.9749,-366.6962 1493.9842,-372.3015 1499.442,-376.6847"/>
</g>
<!-- Node30 -->
<g id="node29" class="node">
<title>Node30</title>
<g id="a_node29"><a xlink:href="SpatialForceVector_8h.html" target="_top" xlink:title="iDynTree/Core/SpatialForce\lVector.h">
<polygon fill="none" stroke="#000000" points="1185.4627,-459.5 1185.4627,-489.5 1333.4627,-489.5 1333.4627,-459.5 1185.4627,-459.5"/>
<text text-anchor="start" x="1193.4627" y="-477.5" font-family="FreeSans.ttf" font-size="10.00" fill="#000000">iDynTree/Core/SpatialForce</text>
<text text-anchor="middle" x="1259.4627" y="-466.5" font-family="FreeSans.ttf" font-size="10.00" fill="#000000">Vector.h</text>
</a>
</g>
</g>
<!-- Node28&#45;&gt;Node30 -->
<g id="edge52" class="edge">
<title>Node28&#45;&gt;Node30</title>
<path fill="none" stroke="#191970" d="M1259.4627,-526.3906C1259.4627,-519.2234 1259.4627,-509.0862 1259.4627,-499.671"/>
<polygon fill="#191970" stroke="#191970" points="1262.9628,-499.5446 1259.4627,-489.5446 1255.9628,-499.5446 1262.9628,-499.5446"/>
</g>
<!-- Node32 -->
<g id="node31" class="node">
<title>Node32</title>
<polygon fill="none" stroke="#bfbfbf" points="328.9627,-465 328.9627,-484 375.9627,-484 375.9627,-465 328.9627,-465"/>
<text text-anchor="middle" x="352.4627" y="-472" font-family="FreeSans.ttf" font-size="10.00" fill="#000000">vector</text>
</g>
<!-- Node28&#45;&gt;Node32 -->
<g id="edge62" class="edge">
<title>Node28&#45;&gt;Node32</title>
<path fill="none" stroke="#191970" d="M1183.6925,-530.8623C996.5119,-518.1704 517.9033,-485.7179 386.3613,-476.7985"/>
<polygon fill="#191970" stroke="#191970" points="386.3184,-473.2877 376.1045,-476.1031 385.8448,-480.2716 386.3184,-473.2877"/>
</g>
<!-- Node29&#45;&gt;Node3 -->
<g id="edge51" class="edge">
<title>Node29&#45;&gt;Node3</title>
<path fill="none" stroke="#191970" d="M1498.4739,-347.4158C1465.909,-321.9942 1372.1616,-252.8278 1281.4627,-224 1110.5085,-169.6638 1057.2621,-211.7729 879.4627,-188 753.8716,-171.2077 605.9167,-141.9145 541.7916,-128.748"/>
<polygon fill="#191970" stroke="#191970" points="542.3806,-125.2959 531.8798,-126.7039 540.9667,-132.1516 542.3806,-125.2959"/>
</g>
<!-- Node29&#45;&gt;Node9 -->
<g id="edge50" class="edge">
<title>Node29&#45;&gt;Node9</title>
<path fill="none" stroke="#191970" d="M1516.9507,-347.3179C1545.0002,-305.4595 1656.0955,-139.6711 1693.271,-84.1938"/>
<polygon fill="#191970" stroke="#191970" points="1696.2911,-85.9742 1698.9504,-75.7185 1690.476,-82.0774 1696.2911,-85.9742"/>
</g>
<!-- Node30&#45;&gt;Node5 -->
<g id="edge53" class="edge">
<title>Node30&#45;&gt;Node5</title>
<path fill="none" stroke="#191970" d="M1267.5033,-459.205C1272.3005,-449.205 1277.9357,-435.6895 1280.4627,-423 1297.7366,-336.2577 1319.2602,-303.9623 1281.4627,-224 1275.4382,-211.2547 1263.9596,-200.8542 1252.9553,-193.1874"/>
<polygon fill="#191970" stroke="#191970" points="1254.6455,-190.1127 1244.3451,-187.6324 1250.8506,-195.9948 1254.6455,-190.1127"/>
</g>
<!-- Node30&#45;&gt;Node23 -->
<g id="edge54" class="edge">
<title>Node30&#45;&gt;Node23</title>
<path fill="none" stroke="#191970" d="M1263.69,-459.2699C1267.099,-444.6805 1270.6894,-422.1203 1266.4627,-403 1254.0793,-346.9814 1220.472,-287.3692 1202.3783,-258.0227"/>
<polygon fill="#191970" stroke="#191970" points="1205.171,-255.8884 1196.89,-249.2796 1199.2423,-259.61 1205.171,-255.8884"/>
</g>
<!-- Node31 -->
<g id="node30" class="node">
<title>Node31</title>
<g id="a_node30"><a xlink:href="SpatialVector_8h.html" target="_top" xlink:title="iDynTree/Core/SpatialVector.h">
<polygon fill="none" stroke="#000000" points="1095.9627,-403.5 1095.9627,-422.5 1256.9627,-422.5 1256.9627,-403.5 1095.9627,-403.5"/>
<text text-anchor="middle" x="1176.4627" y="-410.5" font-family="FreeSans.ttf" font-size="10.00" fill="#000000">iDynTree/Core/SpatialVector.h</text>
</a>
</g>
</g>
<!-- Node30&#45;&gt;Node31 -->
<g id="edge55" class="edge">
<title>Node30&#45;&gt;Node31</title>
<path fill="none" stroke="#191970" d="M1238.9459,-459.2977C1226.4645,-450.0495 1210.5468,-438.2551 1197.9014,-428.8853"/>
<polygon fill="#191970" stroke="#191970" points="1199.8705,-425.9882 1189.7521,-422.8469 1195.7031,-431.6126 1199.8705,-425.9882"/>
</g>
<!-- Node31&#45;&gt;Node6 -->
<g id="edge58" class="edge">
<title>Node31&#45;&gt;Node6</title>
<path fill="none" stroke="#191970" d="M1190.2811,-403.1671C1202.2747,-394.3333 1219.8095,-380.6818 1233.4627,-367 1256.0163,-344.3992 1260.3104,-337.2669 1278.4627,-311 1327.3085,-240.3189 1338.0115,-216.8575 1351.4627,-132 1353.8795,-116.754 1352.9262,-99.298 1351.4782,-86.1689"/>
<polygon fill="#191970" stroke="#191970" points="1354.9051,-85.3776 1350.1507,-75.9094 1347.963,-86.2759 1354.9051,-85.3776"/>
</g>
<!-- Node31&#45;&gt;Node18 -->
<g id="edge61" class="edge">
<title>Node31&#45;&gt;Node18</title>
<path fill="none" stroke="#191970" d="M1185.7483,-403.3215C1213.111,-373.9761 1292.9234,-282.2233 1315.4627,-188 1319.0919,-172.8286 1318.5788,-155.1304 1317.3025,-141.8823"/>
<polygon fill="#191970" stroke="#191970" points="1320.731,-141.075 1316.0694,-131.5609 1313.7805,-141.9055 1320.731,-141.075"/>
</g>
<!-- Node31&#45;&gt;Node20 -->
<g id="edge56" class="edge">
<title>Node31&#45;&gt;Node20</title>
<path fill="none" stroke="#191970" d="M1095.6451,-406.2451C966.0277,-395.4114 713.2516,-374.2838 585.0579,-363.5692"/>
<polygon fill="#191970" stroke="#191970" points="585.1788,-360.0671 574.922,-362.722 584.5957,-367.0428 585.1788,-360.0671"/>
</g>
<!-- Node31&#45;&gt;Node22 -->
<g id="edge57" class="edge">
<title>Node31&#45;&gt;Node22</title>
<path fill="none" stroke="#191970" d="M1127.6091,-403.4509C1022.5248,-382.9109 775.3811,-334.6036 662.0782,-312.4571"/>
<polygon fill="#191970" stroke="#191970" points="662.6784,-309.0083 652.1927,-310.5249 661.3356,-315.8783 662.6784,-309.0083"/>
</g>
<!-- Node31&#45;&gt;Node23 -->
<g id="edge59" class="edge">
<title>Node31&#45;&gt;Node23</title>
<path fill="none" stroke="#191970" d="M1177.2354,-403.4248C1179.4484,-375.999 1185.8446,-296.732 1188.8573,-259.3964"/>
<polygon fill="#191970" stroke="#191970" points="1192.3595,-259.5087 1189.6752,-249.2595 1185.3822,-258.9456 1192.3595,-259.5087"/>
</g>
<!-- Node31&#45;&gt;Node27 -->
<g id="edge60" class="edge">
<title>Node31&#45;&gt;Node27</title>
<path fill="none" stroke="#191970" d="M1171.7315,-403.4028C1159.6113,-378.7937 1126.4991,-311.4106 1099.4627,-255 1080.9881,-216.4533 1079.5795,-205.1651 1058.4627,-168 1053.0124,-158.4075 1046.232,-148.1883 1040.4035,-139.8243"/>
<polygon fill="#191970" stroke="#191970" points="1043.2034,-137.7221 1034.5605,-131.5942 1037.4956,-141.7743 1043.2034,-137.7221"/>
</g>
<!-- Node33&#45;&gt;Node32 -->
<g id="edge85" class="edge">
<title>Node33&#45;&gt;Node32</title>
<path fill="none" stroke="#191970" d="M400.2073,-582.3845C391.6372,-563.0192 372.1588,-519.0055 360.9084,-493.584"/>
<polygon fill="#191970" stroke="#191970" points="364.0245,-491.9765 356.7769,-484.2484 357.6233,-494.8094 364.0245,-491.9765"/>
</g>
<!-- Node34 -->
<g id="node33" class="node">
<title>Node34</title>
<g id="a_node33"><a xlink:href="Transform_8h.html" target="_top" xlink:title="iDynTree/Core/Transform.h">
<polygon fill="none" stroke="#000000" points="332.4627,-403.5 332.4627,-422.5 478.4627,-422.5 478.4627,-403.5 332.4627,-403.5"/>
<text text-anchor="middle" x="405.4627" y="-410.5" font-family="FreeSans.ttf" font-size="10.00" fill="#000000">iDynTree/Core/Transform.h</text>
</a>
</g>
</g>
<!-- Node33&#45;&gt;Node34 -->
<g id="edge64" class="edge">
<title>Node33&#45;&gt;Node34</title>
<path fill="none" stroke="#191970" d="M408.3251,-582.3228C411.7666,-573.1446 416.546,-558.8807 418.4627,-546 424.1538,-507.7544 423.7708,-497.3006 418.4627,-459 417.227,-450.0835 414.7046,-440.4647 412.2077,-432.3395"/>
<polygon fill="#191970" stroke="#191970" points="415.4901,-431.1164 409.0504,-422.7033 408.838,-433.296 415.4901,-431.1164"/>
</g>
<!-- Node35 -->
<g id="node34" class="node">
<title>Node35</title>
<g id="a_node34"><a xlink:href="Twist_8h.html" target="_top" xlink:title="iDynTree/Core/Twist.h">
<polygon fill="none" stroke="#000000" points="534.4627,-526.5 534.4627,-545.5 656.4627,-545.5 656.4627,-526.5 534.4627,-526.5"/>
<text text-anchor="middle" x="595.4627" y="-533.5" font-family="FreeSans.ttf" font-size="10.00" fill="#000000">iDynTree/Core/Twist.h</text>
</a>
</g>
</g>
<!-- Node33&#45;&gt;Node35 -->
<g id="edge69" class="edge">
<title>Node33&#45;&gt;Node35</title>
<path fill="none" stroke="#191970" d="M437.2968,-582.3733C469.3322,-572.9807 518.2114,-558.6496 553.1482,-548.4064"/>
<polygon fill="#191970" stroke="#191970" points="554.4458,-551.6733 563.0571,-545.5011 552.4763,-544.9561 554.4458,-551.6733"/>
</g>
<!-- Node37 -->
<g id="node36" class="node">
<title>Node37</title>
<g id="a_node36"><a xlink:href="SpatialAcc_8h.html" target="_top" xlink:title="iDynTree/Core/SpatialAcc.h">
<polygon fill="none" stroke="#000000" points="674.4627,-526.5 674.4627,-545.5 822.4627,-545.5 822.4627,-526.5 674.4627,-526.5"/>
<text text-anchor="middle" x="748.4627" y="-533.5" font-family="FreeSans.ttf" font-size="10.00" fill="#000000">iDynTree/Core/SpatialAcc.h</text>
</a>
</g>
</g>
<!-- Node33&#45;&gt;Node37 -->
<g id="edge74" class="edge">
<title>Node33&#45;&gt;Node37</title>
<path fill="none" stroke="#191970" d="M463.2076,-582.4369C523.3173,-572.6516 616.6478,-557.4582 680.051,-547.1368"/>
<polygon fill="#191970" stroke="#191970" points="680.6525,-550.585 689.9602,-545.5237 679.5277,-543.676 680.6525,-550.585"/>
</g>
<!-- Node38 -->
<g id="node37" class="node">
<title>Node38</title>
<g id="a_node37"><a xlink:href="Wrench_8h.html" target="_top" xlink:title="iDynTree/Core/Wrench.h">
<polygon fill="none" stroke="#000000" points="840.9627,-526.5 840.9627,-545.5 973.9627,-545.5 973.9627,-526.5 840.9627,-526.5"/>
<text text-anchor="middle" x="907.4627" y="-533.5" font-family="FreeSans.ttf" font-size="10.00" fill="#000000">iDynTree/Core/Wrench.h</text>
</a>
</g>
</g>
<!-- Node33&#45;&gt;Node38 -->
<g id="edge76" class="edge">
<title>Node33&#45;&gt;Node38</title>
<path fill="none" stroke="#191970" d="M479.3436,-584.4715C562.4833,-575.9907 700.9459,-561.5058 830.6292,-546.0765"/>
<polygon fill="#191970" stroke="#191970" points="831.2312,-549.5296 840.7458,-544.8687 830.4014,-542.5789 831.2312,-549.5296"/>
</g>
<!-- Node39 -->
<g id="node38" class="node">
<title>Node39</title>
<g id="a_node38"><a xlink:href="ArticulatedBodyInertia_8h.html" target="_top" xlink:title="iDynTree/Core/Articulated\lBodyInertia.h">
<polygon fill="none" stroke="#000000" points="172.9627,-224.5 172.9627,-254.5 313.9627,-254.5 313.9627,-224.5 172.9627,-224.5"/>
<text text-anchor="start" x="180.9627" y="-242.5" font-family="FreeSans.ttf" font-size="10.00" fill="#000000">iDynTree/Core/Articulated</text>
<text text-anchor="middle" x="243.4627" y="-231.5" font-family="FreeSans.ttf" font-size="10.00" fill="#000000">BodyInertia.h</text>
</a>
</g>
</g>
<!-- Node33&#45;&gt;Node39 -->
<g id="edge78" class="edge">
<title>Node33&#45;&gt;Node39</title>
<path fill="none" stroke="#191970" d="M405.6544,-582.3114C408.0144,-558.9012 410.9701,-498.2956 384.4627,-459 366.8582,-432.9023 344.3239,-446.5759 323.4627,-423 281.3606,-375.4189 258.5933,-302.2175 249.0165,-264.2515"/>
<polygon fill="#191970" stroke="#191970" points="252.417,-263.4223 246.6601,-254.528 245.6139,-265.0711 252.417,-263.4223"/>
</g>
<!-- Node40 -->
<g id="node39" class="node">
<title>Node40</title>
<g id="a_node39"><a xlink:href="Indices_8h.html" target="_top" xlink:title="iDynTree/Model/Indices.h">
<polygon fill="none" stroke="#000000" points="134.4627,-465 134.4627,-484 272.4627,-484 272.4627,-465 134.4627,-465"/>
<text text-anchor="middle" x="203.4627" y="-472" font-family="FreeSans.ttf" font-size="10.00" fill="#000000">iDynTree/Model/Indices.h</text>
</a>
</g>
</g>
<!-- Node33&#45;&gt;Node40 -->
<g id="edge81" class="edge">
<title>Node33&#45;&gt;Node40</title>
<path fill="none" stroke="#191970" d="M388.1639,-582.3408C366.3837,-569.4456 326.5697,-545.917 292.4627,-526 271.0648,-513.5046 246.7062,-499.419 228.8882,-489.1411"/>
<polygon fill="#191970" stroke="#191970" points="230.6286,-486.1045 220.2171,-484.1422 227.1324,-492.1689 230.6286,-486.1045"/>
</g>
<!-- Node34&#45;&gt;Node3 -->
<g id="edge68" class="edge">
<title>Node34&#45;&gt;Node3</title>
<path fill="none" stroke="#191970" d="M395.3407,-403.2465C377.532,-384.984 342.4627,-343.6112 342.4627,-301 342.4627,-301 342.4627,-301 342.4627,-239.5 342.4627,-174.1349 429.0964,-141.9738 477.5674,-129.0952"/>
<polygon fill="#191970" stroke="#191970" points="478.4512,-132.482 487.2864,-126.6348 476.7332,-125.6961 478.4512,-132.482"/>
</g>
<!-- Node34&#45;&gt;Node20 -->
<g id="edge65" class="edge">
<title>Node34&#45;&gt;Node20</title>
<path fill="none" stroke="#191970" d="M423.0556,-403.2455C438.8417,-394.4928 462.2266,-381.527 480.2214,-371.5496"/>
<polygon fill="#191970" stroke="#191970" points="482.023,-374.5528 489.0715,-366.6427 478.6286,-368.4308 482.023,-374.5528"/>
</g>
<!-- Node34&#45;&gt;Node22 -->
<g id="edge66" class="edge">
<title>Node34&#45;&gt;Node22</title>
<path fill="none" stroke="#191970" d="M468.3402,-403.4262C512.6328,-395.4765 566.8803,-382.9107 583.4627,-367 595.9924,-354.9779 600.7443,-335.3945 602.5097,-320.6758"/>
<polygon fill="#191970" stroke="#191970" points="606.0088,-320.8319 603.3569,-310.5743 599.0333,-320.2468 606.0088,-320.8319"/>
</g>
<!-- Node34&#45;&gt;Node25 -->
<g id="edge67" class="edge">
<title>Node34&#45;&gt;Node25</title>
<path fill="none" stroke="#191970" d="M405.694,-403.0807C407.0305,-370.9974 415.9828,-269.4881 475.4627,-224 506.6994,-200.1113 744.7512,-186.8967 878.6599,-181.2836"/>
<polygon fill="#191970" stroke="#191970" points="879.0612,-184.7701 888.9082,-180.8603 878.7722,-177.7761 879.0612,-184.7701"/>
</g>
<!-- Node36 -->
<g id="node35" class="node">
<title>Node36</title>
<g id="a_node35"><a xlink:href="SpatialMotionVector_8h.html" target="_top" xlink:title="iDynTree/Core/SpatialMotion\lVector.h">
<polygon fill="none" stroke="#000000" points="1011.9627,-459.5 1011.9627,-489.5 1166.9627,-489.5 1166.9627,-459.5 1011.9627,-459.5"/>
<text text-anchor="start" x="1019.9627" y="-477.5" font-family="FreeSans.ttf" font-size="10.00" fill="#000000">iDynTree/Core/SpatialMotion</text>
<text text-anchor="middle" x="1089.4627" y="-466.5" font-family="FreeSans.ttf" font-size="10.00" fill="#000000">Vector.h</text>
</a>
</g>
</g>
<!-- Node35&#45;&gt;Node36 -->
<g id="edge70" class="edge">
<title>Node35&#45;&gt;Node36</title>
<path fill="none" stroke="#191970" d="M656.5357,-527.1982C659.5534,-526.7875 662.5418,-526.386 665.4627,-526 781.6092,-510.6518 915.8912,-494.6324 1001.6841,-484.6162"/>
<polygon fill="#191970" stroke="#191970" points="1002.1152,-488.0898 1011.6426,-483.4552 1001.3045,-481.1369 1002.1152,-488.0898"/>
</g>
<!-- Node36&#45;&gt;Node5 -->
<g id="edge71" class="edge">
<title>Node36&#45;&gt;Node5</title>
<path fill="none" stroke="#191970" d="M1084.5768,-459.1977C1072.0225,-416.6443 1043.3937,-295.3545 1099.4627,-224 1109.3947,-211.3604 1145.2595,-198.9752 1176.1978,-190.2461"/>
<polygon fill="#191970" stroke="#191970" points="1177.315,-193.5689 1186.0305,-187.5447 1175.4605,-186.819 1177.315,-193.5689"/>
</g>
<!-- Node36&#45;&gt;Node23 -->
<g id="edge72" class="edge">
<title>Node36&#45;&gt;Node23</title>
<path fill="none" stroke="#191970" d="M1086.0684,-459.3744C1083.4049,-444.6662 1080.9763,-421.8478 1086.4627,-403 1103.7604,-343.577 1149.9052,-285.1244 1174.5035,-256.9351"/>
<polygon fill="#191970" stroke="#191970" points="1177.3604,-258.9893 1181.3899,-249.1907 1172.1293,-254.3378 1177.3604,-258.9893"/>
</g>
<!-- Node36&#45;&gt;Node31 -->
<g id="edge73" class="edge">
<title>Node36&#45;&gt;Node31</title>
<path fill="none" stroke="#191970" d="M1110.9683,-459.2977C1124.2596,-449.9022 1141.2684,-437.8787 1154.6215,-428.4395"/>
<polygon fill="#191970" stroke="#191970" points="1156.6473,-431.2937 1162.7927,-422.6633 1152.6066,-425.5776 1156.6473,-431.2937"/>
</g>
<!-- Node37&#45;&gt;Node36 -->
<g id="edge75" class="edge">
<title>Node37&#45;&gt;Node36</title>
<path fill="none" stroke="#191970" d="M801.3698,-526.4581C854.8189,-516.8185 938.3285,-501.7574 1001.7045,-490.3274"/>
<polygon fill="#191970" stroke="#191970" points="1002.4754,-493.7449 1011.6954,-488.5255 1001.2329,-486.856 1002.4754,-493.7449"/>
</g>
<!-- Node38&#45;&gt;Node30 -->
<g id="edge77" class="edge">
<title>Node38&#45;&gt;Node30</title>
<path fill="none" stroke="#191970" d="M964.7052,-526.4714C1016.9581,-517.7143 1096.6091,-504.2185 1175.1871,-490.2142"/>
<polygon fill="#191970" stroke="#191970" points="1176.0325,-493.6187 1185.2613,-488.4149 1174.8017,-486.7278 1176.0325,-493.6187"/>
</g>
<!-- Node39&#45;&gt;Node3 -->
<g id="edge80" class="edge">
<title>Node39&#45;&gt;Node3</title>
<path fill="none" stroke="#191970" d="M257.3173,-224.3258C273.0266,-208.0299 300.1544,-182.5264 328.4627,-168 376.9025,-143.1431 439.6734,-131.1035 477.132,-125.7614"/>
<polygon fill="#191970" stroke="#191970" points="478.0049,-129.1754 487.4469,-124.3693 477.0686,-122.2383 478.0049,-129.1754"/>
</g>
<!-- Node39&#45;&gt;Node25 -->
<g id="edge79" class="edge">
<title>Node39&#45;&gt;Node25</title>
<path fill="none" stroke="#191970" d="M313.9671,-230.0101C331.1261,-227.8678 349.4387,-225.7209 366.4627,-224 547.8957,-205.6591 760.7079,-191.031 878.8028,-183.5203"/>
<polygon fill="#191970" stroke="#191970" points="879.1254,-187.007 888.8841,-182.8818 878.6829,-180.021 879.1254,-187.007"/>
</g>
<!-- Node40&#45;&gt;Node3 -->
<g id="edge83" class="edge">
<title>Node40&#45;&gt;Node3</title>
<path fill="none" stroke="#191970" d="M193.929,-464.647C184.9059,-454.8253 171.569,-438.945 163.4627,-423 149.6294,-395.7898 144.4627,-387.5246 144.4627,-357 144.4627,-357 144.4627,-357 144.4627,-239.5 144.4627,-169.8525 388.3109,-135.5601 477.3838,-125.357"/>
<polygon fill="#191970" stroke="#191970" points="477.9031,-128.8208 487.4523,-124.2314 477.1253,-121.8642 477.9031,-128.8208"/>
</g>
<!-- Node40&#45;&gt;Node7 -->
<g id="edge82" class="edge">
<title>Node40&#45;&gt;Node7</title>
<path fill="none" stroke="#191970" d="M176.1435,-464.8977C136.6961,-449.0815 68.4627,-413.5504 68.4627,-357 68.4627,-357 68.4627,-357 68.4627,-122 68.4627,-58.9942 1082.8317,-18.8325 1289.8413,-11.2924"/>
<polygon fill="#191970" stroke="#191970" points="1290.0304,-14.7879 1299.8974,-10.9287 1289.7774,-7.7925 1290.0304,-14.7879"/>
</g>
<!-- Node41 -->
<g id="node40" class="node">
<title>Node41</title>
<polygon fill="none" stroke="#bfbfbf" points="172.4627,-403.5 172.4627,-422.5 258.4627,-422.5 258.4627,-403.5 172.4627,-403.5"/>
<text text-anchor="middle" x="215.4627" y="-410.5" font-family="FreeSans.ttf" font-size="10.00" fill="#000000">ModelExport.h</text>
</g>
<!-- Node40&#45;&gt;Node41 -->
<g id="edge84" class="edge">
<title>Node40&#45;&gt;Node41</title>
<path fill="none" stroke="#191970" d="M205.3377,-464.8906C207.0186,-456.276 209.5367,-443.3708 211.6411,-432.5858"/>
<polygon fill="#191970" stroke="#191970" points="215.0813,-433.2301 213.5613,-422.7449 208.2109,-431.8895 215.0813,-433.2301"/>
</g>
<!-- Node43&#45;&gt;Node1 -->
<g id="edge111" class="edge">
<title>Node43&#45;&gt;Node1</title>
<path fill="none" stroke="#191970" d="M232.4567,-750.3733C200.2536,-740.9807 151.1185,-726.6496 115.9988,-716.4064"/>
<polygon fill="#191970" stroke="#191970" points="116.618,-712.9412 106.038,-713.5011 114.658,-719.6612 116.618,-712.9412"/>
</g>
<!-- Node43&#45;&gt;Node2 -->
<g id="edge94" class="edge">
<title>Node43&#45;&gt;Node2</title>
<path fill="none" stroke="#191970" d="M305.6461,-753.9268C331.7358,-747.9768 364.6387,-736.3761 385.4627,-714 397.0478,-701.5515 401.9341,-682.6004 403.9887,-668.1939"/>
<polygon fill="#191970" stroke="#191970" points="407.5143,-668.1424 405.1032,-657.8256 400.5544,-667.3942 407.5143,-668.1424"/>
</g>
<!-- Node43&#45;&gt;Node42 -->
<g id="edge95" class="edge">
<title>Node43&#45;&gt;Node42</title>
<path fill="none" stroke="#191970" d="M247.534,-750.3494C231.6006,-741.5272 207.8914,-727.7897 188.4627,-714 166.5743,-698.4645 143.1781,-678.4415 127.5768,-664.5433"/>
<polygon fill="#191970" stroke="#191970" points="129.5454,-661.6064 119.7705,-657.5196 124.8634,-666.8101 129.5454,-661.6064"/>
</g>
<!-- Node44 -->
<g id="node43" class="node">
<title>Node44</title>
<g id="a_node43"><a xlink:href="SolidShapes_8h.html" target="_top" xlink:title="iDynTree/Model/SolidShapes.h">
<polygon fill="none" stroke="#000000" points="120.9627,-526.5 120.9627,-545.5 283.9627,-545.5 283.9627,-526.5 120.9627,-526.5"/>
<text text-anchor="middle" x="202.4627" y="-533.5" font-family="FreeSans.ttf" font-size="10.00" fill="#000000">iDynTree/Model/SolidShapes.h</text>
</a>
</g>
</g>
<!-- Node43&#45;&gt;Node44 -->
<g id="edge88" class="edge">
<title>Node43&#45;&gt;Node44</title>
<path fill="none" stroke="#191970" d="M252.2553,-750.2673C241.9813,-741.891 228.3517,-728.8343 221.4627,-714 196.8833,-661.072 198.1392,-590.023 200.5545,-555.9118"/>
<polygon fill="#191970" stroke="#191970" points="204.0514,-556.0923 201.3824,-545.8392 197.0749,-555.5189 204.0514,-556.0923"/>
</g>
<!-- Node46 -->
<g id="node45" class="node">
<title>Node46</title>
<polygon fill="none" stroke="#bfbfbf" points="230.9627,-694.5 230.9627,-713.5 299.9627,-713.5 299.9627,-694.5 230.9627,-694.5"/>
<text text-anchor="middle" x="265.4627" y="-701.5" font-family="FreeSans.ttf" font-size="10.00" fill="#000000">Eigen/Core</text>
</g>
<!-- Node43&#45;&gt;Node46 -->
<g id="edge96" class="edge">
<title>Node43&#45;&gt;Node46</title>
<path fill="none" stroke="#191970" d="M265.4627,-750.2455C265.4627,-742.9382 265.4627,-732.6944 265.4627,-723.7046"/>
<polygon fill="#191970" stroke="#191970" points="268.9628,-723.6426 265.4627,-713.6427 261.9628,-723.6427 268.9628,-723.6426"/>
</g>
<!-- Node47 -->
<g id="node46" class="node">
<title>Node47</title>
<polygon fill="none" stroke="#bfbfbf" points="317.9627,-694.5 317.9627,-713.5 376.9627,-713.5 376.9627,-694.5 317.9627,-694.5"/>
<text text-anchor="middle" x="347.4627" y="-701.5" font-family="FreeSans.ttf" font-size="10.00" fill="#000000">Eigen/LU</text>
</g>
<!-- Node43&#45;&gt;Node47 -->
<g id="edge97" class="edge">
<title>Node43&#45;&gt;Node47</title>
<path fill="none" stroke="#191970" d="M279.746,-750.2455C292.2098,-741.7337 310.5078,-729.2375 324.9419,-719.3801"/>
<polygon fill="#191970" stroke="#191970" points="327.0589,-722.1726 333.3431,-713.6427 323.1112,-716.392 327.0589,-722.1726"/>
</g>
<!-- Node48 -->
<g id="node47" class="node">
<title>Node48</title>
<g id="a_node47"><a xlink:href="EigenHelpers_8h.html" target="_top" xlink:title="iDynTree/Core/EigenHelpers.h">
<polygon fill="none" stroke="#000000" points="1394.9627,-526.5 1394.9627,-545.5 1555.9627,-545.5 1555.9627,-526.5 1394.9627,-526.5"/>
<text text-anchor="middle" x="1475.4627" y="-533.5" font-family="FreeSans.ttf" font-size="10.00" fill="#000000">iDynTree/Core/EigenHelpers.h</text>
</a>
</g>
</g>
<!-- Node43&#45;&gt;Node48 -->
<g id="edge98" class="edge">
<title>Node43&#45;&gt;Node48</title>
<path fill="none" stroke="#191970" d="M305.7216,-752.5471C483.533,-719.63 1199.1661,-587.1491 1414.1133,-547.3573"/>
<polygon fill="#191970" stroke="#191970" points="1414.7705,-550.7952 1423.9662,-545.5332 1413.4962,-543.9121 1414.7705,-550.7952"/>
</g>
<!-- Node51 -->
<g id="node50" class="node">
<title>Node51</title>
<polygon fill="none" stroke="#bfbfbf" points="433.9627,-694.5 433.9627,-713.5 480.9627,-713.5 480.9627,-694.5 433.9627,-694.5"/>
<text text-anchor="middle" x="457.4627" y="-701.5" font-family="FreeSans.ttf" font-size="10.00" fill="#000000">cmath</text>
</g>
<!-- Node43&#45;&gt;Node51 -->
<g id="edge112" class="edge">
<title>Node43&#45;&gt;Node51</title>
<path fill="none" stroke="#191970" d="M298.4687,-750.3733C333.5994,-740.1268 388.8805,-724.0031 424.134,-713.7209"/>
<polygon fill="#191970" stroke="#191970" points="425.3298,-717.018 433.9498,-710.8579 423.3698,-710.298 425.3298,-717.018"/>
</g>
<!-- Node44&#45;&gt;Node3 -->
<g id="edge90" class="edge">
<title>Node44&#45;&gt;Node3</title>
<path fill="none" stroke="#191970" d="M175.8718,-526.3747C159.0048,-518.9416 138.0607,-507.0231 125.4627,-490 104.4943,-461.6664 106.4627,-448.2487 106.4627,-413 106.4627,-413 106.4627,-413 106.4627,-239.5 106.4627,-189.4506 147.6867,-188.236 193.4627,-168 243.9836,-145.6665 407.3202,-130.2301 477.23,-124.4854"/>
<polygon fill="#191970" stroke="#191970" points="477.5441,-127.9715 487.2298,-123.6777 476.9805,-120.9942 477.5441,-127.9715"/>
</g>
<!-- Node44&#45;&gt;Node32 -->
<g id="edge91" class="edge">
<title>Node44&#45;&gt;Node32</title>
<path fill="none" stroke="#191970" d="M225.9002,-526.3906C251.1081,-516.0554 291.378,-499.5447 319.7104,-487.9284"/>
<polygon fill="#191970" stroke="#191970" points="321.265,-491.0739 329.1898,-484.0419 318.6095,-484.5971 321.265,-491.0739"/>
</g>
<!-- Node44&#45;&gt;Node34 -->
<g id="edge92" class="edge">
<title>Node44&#45;&gt;Node34</title>
<path fill="none" stroke="#191970" d="M220.8435,-526.3675C237.1817,-517.5571 261.5012,-503.8268 281.4627,-490 299.3801,-477.5891 301.3241,-471.0852 319.4627,-459 337.3671,-447.0708 358.6845,-435.6513 375.616,-427.1742"/>
<polygon fill="#191970" stroke="#191970" points="377.5957,-430.1007 385.0193,-422.5415 374.5021,-423.8214 377.5957,-430.1007"/>
</g>
<!-- Node44&#45;&gt;Node40 -->
<g id="edge93" class="edge">
<title>Node44&#45;&gt;Node40</title>
<path fill="none" stroke="#191970" d="M202.619,-526.3906C202.7576,-517.8657 202.9645,-505.1392 203.1388,-494.4235"/>
<polygon fill="#191970" stroke="#191970" points="206.6411,-494.3005 203.3043,-484.2449 199.6421,-494.1866 206.6411,-494.3005"/>
</g>
<!-- Node45 -->
<g id="node44" class="node">
<title>Node45</title>
<polygon fill="none" stroke="#bfbfbf" points="28.9627,-465 28.9627,-484 77.9627,-484 77.9627,-465 28.9627,-465"/>
<text text-anchor="middle" x="53.4627" y="-472" font-family="FreeSans.ttf" font-size="10.00" fill="#000000">cstdlib</text>
</g>
<!-- Node44&#45;&gt;Node45 -->
<g id="edge89" class="edge">
<title>Node44&#45;&gt;Node45</title>
<path fill="none" stroke="#191970" d="M179.1815,-526.3906C154.1417,-516.0554 114.1402,-499.5447 85.9967,-487.9284"/>
<polygon fill="#191970" stroke="#191970" points="87.1594,-484.622 76.5805,-484.0419 84.4887,-491.0925 87.1594,-484.622"/>
</g>
<!-- Node48&#45;&gt;Node5 -->
<g id="edge102" class="edge">
<title>Node48&#45;&gt;Node5</title>
<path fill="none" stroke="#191970" d="M1556.0153,-527.3318C1603.7498,-520.3482 1657.728,-508.5717 1672.4627,-490 1681.0261,-479.2067 1676.2183,-472.256 1672.4627,-459 1624.3062,-289.0224 1395.2989,-215.7128 1285.0482,-189.8596"/>
<polygon fill="#191970" stroke="#191970" points="1285.608,-186.3972 1275.0789,-187.5755 1284.0447,-193.2204 1285.608,-186.3972"/>
</g>
<!-- Node48&#45;&gt;Node6 -->
<g id="edge110" class="edge">
<title>Node48&#45;&gt;Node6</title>
<path fill="none" stroke="#191970" d="M1548.5315,-526.4736C1600.9647,-518.4901 1666.1422,-505.8586 1688.4627,-490 1721.1468,-466.7781 1735.4627,-453.0937 1735.4627,-413 1735.4627,-413 1735.4627,-413 1735.4627,-357 1735.4627,-255.0477 1690.4915,-224.2528 1605.4627,-168 1538.511,-123.7065 1500.914,-166.5724 1428.4627,-132 1403.2776,-119.9821 1379.2655,-98.3255 1364.237,-83.1056"/>
<polygon fill="#191970" stroke="#191970" points="1366.6895,-80.6064 1357.2383,-75.8184 1361.6408,-85.4552 1366.6895,-80.6064"/>
</g>
<!-- Node48&#45;&gt;Node7 -->
<g id="edge99" class="edge">
<title>Node48&#45;&gt;Node7</title>
<path fill="none" stroke="#191970" d="M1490.473,-526.4571C1504.303,-517.488 1525.2295,-503.465 1542.4627,-490 1558.837,-477.2061 1560.8462,-471.4777 1577.4627,-459 1601.4225,-441.0081 1612.9303,-443.8358 1634.4627,-423 1678.4244,-380.4607 1685.6615,-350.9451 1673.4627,-291 1656.2277,-206.3066 1659.8333,-171.8325 1597.4627,-112 1579.8286,-95.0834 1432.6489,-45.0228 1362.8816,-21.9241"/>
<polygon fill="#191970" stroke="#191970" points="1363.7675,-18.5308 1353.1744,-18.7189 1361.5727,-25.1779 1363.7675,-18.5308"/>
</g>
<!-- Node48&#45;&gt;Node25 -->
<g id="edge106" class="edge">
<title>Node48&#45;&gt;Node25</title>
<path fill="none" stroke="#191970" d="M1472.7272,-526.2665C1459.863,-482.4632 1400.9387,-302.3526 1281.4627,-224 1246.0253,-200.76 1139.3634,-188.8062 1060.5715,-182.9869"/>
<polygon fill="#191970" stroke="#191970" points="1060.3607,-179.4629 1050.1363,-182.2397 1059.8607,-186.445 1060.3607,-179.4629"/>
</g>
<!-- Node48&#45;&gt;Node29 -->
<g id="edge101" class="edge">
<title>Node48&#45;&gt;Node29</title>
<path fill="none" stroke="#191970" d="M1477.3445,-526.3762C1482.8756,-498.0883 1499.1613,-414.7987 1506.6349,-376.5767"/>
<polygon fill="#191970" stroke="#191970" points="1510.0876,-377.1572 1508.5717,-366.6714 1503.2177,-375.8139 1510.0876,-377.1572"/>
</g>
<!-- Node48&#45;&gt;Node30 -->
<g id="edge108" class="edge">
<title>Node48&#45;&gt;Node30</title>
<path fill="none" stroke="#191970" d="M1441.7127,-526.3906C1409.773,-517.2967 1361.0407,-503.4215 1322.0023,-492.3064"/>
<polygon fill="#191970" stroke="#191970" points="1322.8785,-488.9168 1312.3023,-489.5446 1320.9616,-495.6493 1322.8785,-488.9168"/>
</g>
<!-- Node48&#45;&gt;Node34 -->
<g id="edge109" class="edge">
<title>Node48&#45;&gt;Node34</title>
<path fill="none" stroke="#191970" d="M1394.6172,-528.914C1300.379,-520.4743 1139.9891,-505.5524 1002.4627,-490 816.2343,-468.94 597.9468,-439.5987 483.9093,-423.9141"/>
<polygon fill="#191970" stroke="#191970" points="484.2566,-420.429 473.8726,-422.5319 483.3016,-427.3635 484.2566,-420.429"/>
</g>
<!-- Node48&#45;&gt;Node36 -->
<g id="edge107" class="edge">
<title>Node48&#45;&gt;Node36</title>
<path fill="none" stroke="#191970" d="M1410.6506,-526.4809C1352.2891,-517.806 1263.8883,-504.4119 1177.2433,-490.1077"/>
<polygon fill="#191970" stroke="#191970" points="1177.6727,-486.6312 1167.2352,-488.45 1176.5288,-493.5371 1177.6727,-486.6312"/>
</g>
<!-- Node49 -->
<g id="node48" class="node">
<title>Node49</title>
<polygon fill="none" stroke="#bfbfbf" points="1585.9627,-465 1585.9627,-484 1662.9627,-484 1662.9627,-465 1585.9627,-465"/>
<text text-anchor="middle" x="1624.4627" y="-472" font-family="FreeSans.ttf" font-size="10.00" fill="#000000">Eigen/Dense</text>
</g>
<!-- Node48&#45;&gt;Node49 -->
<g id="edge100" class="edge">
<title>Node48&#45;&gt;Node49</title>
<path fill="none" stroke="#191970" d="M1498.744,-526.3906C1523.7838,-516.0554 1563.7853,-499.5447 1591.9288,-487.9284"/>
<polygon fill="#191970" stroke="#191970" points="1593.4368,-491.0925 1601.345,-484.0419 1590.766,-484.622 1593.4368,-491.0925"/>
</g>
<!-- Node50 -->
<g id="node49" class="node">
<title>Node50</title>
<g id="a_node49"><a xlink:href="MatrixDynSize_8h.html" target="_top" xlink:title="iDynTree/Core/MatrixDynSize.h">
<polygon fill="none" stroke="#000000" points="1428.9627,-168.5 1428.9627,-187.5 1595.9627,-187.5 1595.9627,-168.5 1428.9627,-168.5"/>
<text text-anchor="middle" x="1512.4627" y="-175.5" font-family="FreeSans.ttf" font-size="10.00" fill="#000000">iDynTree/Core/MatrixDynSize.h</text>
</a>
</g>
</g>
<!-- Node48&#45;&gt;Node50 -->
<g id="edge103" class="edge">
<title>Node48&#45;&gt;Node50</title>
<path fill="none" stroke="#191970" d="M1483.464,-526.1652C1495.81,-511.1732 1520.4861,-481.9275 1543.4627,-459 1592.0589,-410.5078 1659.4627,-425.6519 1659.4627,-357 1659.4627,-357 1659.4627,-357 1659.4627,-301 1659.4627,-244.5407 1594.8918,-208.8912 1551.3407,-191.2677"/>
<polygon fill="#191970" stroke="#191970" points="1552.4456,-187.9421 1541.8571,-187.5772 1549.907,-194.4655 1552.4456,-187.9421"/>
</g>
<!-- Node50&#45;&gt;Node3 -->
<g id="edge104" class="edge">
<title>Node50&#45;&gt;Node3</title>
<path fill="none" stroke="#191970" d="M1428.6727,-173.3218C1219.1804,-161.6253 679.5831,-131.4982 541.8481,-123.8082"/>
<polygon fill="#191970" stroke="#191970" points="541.7363,-120.2966 531.5567,-123.2336 541.346,-127.2857 541.7363,-120.2966"/>
</g>
<!-- Node50&#45;&gt;Node26 -->
<g id="edge105" class="edge">
<title>Node50&#45;&gt;Node26</title>
<path fill="none" stroke="#191970" d="M1512.4627,-168.2455C1512.4627,-160.9382 1512.4627,-150.6944 1512.4627,-141.7046"/>
<polygon fill="#191970" stroke="#191970" points="1515.9628,-141.6426 1512.4627,-131.6427 1508.9628,-141.6427 1515.9628,-141.6426"/>
</g>
</g>
</svg>
