<?xml version="1.0" encoding="UTF-8" standalone="no"?>
<!DOCTYPE svg PUBLIC "-//W3C//DTD SVG 1.1//EN"
 "http://www.w3.org/Graphics/SVG/1.1/DTD/svg11.dtd">
<!-- Generated by graphviz version 2.40.1 (20161225.0304)
 -->
<!-- Title: ForceTorqueSensorElement.cpp Pages: 1 -->
<svg width="1948pt" height="789pt"
 viewBox="0.00 0.00 1948.14 789.00" xmlns="http://www.w3.org/2000/svg" xmlns:xlink="http://www.w3.org/1999/xlink">
<g id="graph0" class="graph" transform="scale(1 1) rotate(0) translate(4 785)">
<title>ForceTorqueSensorElement.cpp</title>
<!-- Node0 -->
<g id="node1" class="node">
<title>Node0</title>
<polygon fill="#bfbfbf" stroke="#000000" points="340.1425,-761.5 340.1425,-780.5 509.1425,-780.5 509.1425,-761.5 340.1425,-761.5"/>
<text text-anchor="middle" x="424.6425" y="-768.5" font-family="FreeSans.ttf" font-size="10.00" fill="#000000">ForceTorqueSensorElement.cpp</text>
</g>
<!-- Node1 -->
<g id="node2" class="node">
<title>Node1</title>
<g id="a_node2"><a xlink:href="ForceTorqueSensorElement_8h.html" target="_top" xlink:title="ForceTorqueSensorElement.h">
<polygon fill="none" stroke="#000000" points="238.6425,-705.5 238.6425,-724.5 396.6425,-724.5 396.6425,-705.5 238.6425,-705.5"/>
<text text-anchor="middle" x="317.6425" y="-712.5" font-family="FreeSans.ttf" font-size="10.00" fill="#000000">ForceTorqueSensorElement.h</text>
</a>
</g>
</g>
<!-- Node0&#45;&gt;Node1 -->
<g id="edge1" class="edge">
<title>Node0&#45;&gt;Node1</title>
<path fill="none" stroke="#191970" d="M406.0045,-761.2455C389.2038,-752.4527 364.279,-739.4079 345.1807,-729.4125"/>
<polygon fill="#191970" stroke="#191970" points="346.5498,-726.1787 336.0669,-724.6427 343.3039,-732.3807 346.5498,-726.1787"/>
</g>
<!-- Node52 -->
<g id="node42" class="node">
<title>Node52</title>
<g id="a_node42"><a xlink:href="Traversal_8h.html" target="_top" xlink:title="iDynTree/Model/Traversal.h">
<polygon fill="none" stroke="#000000" points="452.6425,-470.5 452.6425,-489.5 600.6425,-489.5 600.6425,-470.5 452.6425,-470.5"/>
<text text-anchor="middle" x="526.6425" y="-477.5" font-family="FreeSans.ttf" font-size="10.00" fill="#000000">iDynTree/Model/Traversal.h</text>
</a>
</g>
</g>
<!-- Node0&#45;&gt;Node52 -->
<g id="edge86" class="edge">
<title>Node0&#45;&gt;Node52</title>
<path fill="none" stroke="#191970" d="M424.6425,-761.2511C424.6425,-741.1182 424.6425,-693.4826 424.6425,-653.5 424.6425,-653.5 424.6425,-653.5 424.6425,-592 424.6425,-547.6687 468.8649,-513.1591 499.0734,-494.7571"/>
<polygon fill="#191970" stroke="#191970" points="501.0722,-497.6426 507.9341,-489.5702 497.5358,-491.6016 501.0722,-497.6426"/>
</g>
<!-- Node53 -->
<g id="node43" class="node">
<title>Node53</title>
<g id="a_node43"><a xlink:href="SixAxisForceTorqueSensor_8h.html" target="_top" xlink:title="iDynTree/Sensors/SixAxis\lForceTorqueSensor.h">
<polygon fill="none" stroke="#000000" points="680.6425,-638.5 680.6425,-668.5 820.6425,-668.5 820.6425,-638.5 680.6425,-638.5"/>
<text text-anchor="start" x="688.6425" y="-656.5" font-family="FreeSans.ttf" font-size="10.00" fill="#000000">iDynTree/Sensors/SixAxis</text>
<text text-anchor="middle" x="750.6425" y="-645.5" font-family="FreeSans.ttf" font-size="10.00" fill="#000000">ForceTorqueSensor.h</text>
</a>
</g>
</g>
<!-- Node0&#45;&gt;Node53 -->
<g id="edge89" class="edge">
<title>Node0&#45;&gt;Node53</title>
<path fill="none" stroke="#191970" d="M451.0443,-761.484C505.0441,-742.0209 628.9412,-697.3647 699.3255,-671.9961"/>
<polygon fill="#191970" stroke="#191970" points="700.6683,-675.2327 708.8891,-668.5492 698.2947,-668.6473 700.6683,-675.2327"/>
</g>
<!-- Node2 -->
<g id="node3" class="node">
<title>Node2</title>
<g id="a_node3"><a xlink:href="XMLElement_8h.html" target="_top" xlink:title="iDynTree/XMLElement.h">
<polygon fill="none" stroke="#000000" points="112.6425,-582.5 112.6425,-601.5 244.6425,-601.5 244.6425,-582.5 112.6425,-582.5"/>
<text text-anchor="middle" x="178.6425" y="-589.5" font-family="FreeSans.ttf" font-size="10.00" fill="#000000">iDynTree/XMLElement.h</text>
</a>
</g>
</g>
<!-- Node1&#45;&gt;Node2 -->
<g id="edge2" class="edge">
<title>Node1&#45;&gt;Node2</title>
<path fill="none" stroke="#191970" d="M306.7354,-705.3484C282.9844,-684.3314 226.368,-634.2319 197.0074,-608.251"/>
<polygon fill="#191970" stroke="#191970" points="199.3073,-605.6126 189.4989,-601.6068 194.6684,-610.8548 199.3073,-605.6126"/>
</g>
<!-- Node8 -->
<g id="node9" class="node">
<title>Node8</title>
<g id="a_node9"><a xlink:href="SensorElement_8h.html" target="_top" xlink:title="SensorElement.h">
<polygon fill="none" stroke="#000000" points="283.1425,-644 283.1425,-663 382.1425,-663 382.1425,-644 283.1425,-644"/>
<text text-anchor="middle" x="332.6425" y="-651" font-family="FreeSans.ttf" font-size="10.00" fill="#000000">SensorElement.h</text>
</a>
</g>
</g>
<!-- Node1&#45;&gt;Node8 -->
<g id="edge8" class="edge">
<title>Node1&#45;&gt;Node8</title>
<path fill="none" stroke="#191970" d="M319.9862,-705.3906C322.0874,-696.776 325.235,-683.8708 327.8655,-673.0858"/>
<polygon fill="#191970" stroke="#191970" points="331.2964,-673.7894 330.2657,-663.2449 324.4957,-672.1307 331.2964,-673.7894"/>
</g>
<!-- Node3 -->
<g id="node4" class="node">
<title>Node3</title>
<polygon fill="none" stroke="#bfbfbf" points="29.1425,-526.5 29.1425,-545.5 94.1425,-545.5 94.1425,-526.5 29.1425,-526.5"/>
<text text-anchor="middle" x="61.6425" y="-533.5" font-family="FreeSans.ttf" font-size="10.00" fill="#000000">functional</text>
</g>
<!-- Node2&#45;&gt;Node3 -->
<g id="edge3" class="edge">
<title>Node2&#45;&gt;Node3</title>
<path fill="none" stroke="#191970" d="M158.5295,-582.3733C139.8321,-573.4241 111.7681,-559.9917 90.6491,-549.8835"/>
<polygon fill="#191970" stroke="#191970" points="92.0242,-546.6614 81.493,-545.5011 89.002,-552.9755 92.0242,-546.6614"/>
</g>
<!-- Node4 -->
<g id="node5" class="node">
<title>Node4</title>
<polygon fill="none" stroke="#bfbfbf" points="150.6425,-526.5 150.6425,-545.5 208.6425,-545.5 208.6425,-526.5 150.6425,-526.5"/>
<text text-anchor="middle" x="179.6425" y="-533.5" font-family="FreeSans.ttf" font-size="10.00" fill="#000000">memory</text>
</g>
<!-- Node2&#45;&gt;Node4 -->
<g id="edge4" class="edge">
<title>Node2&#45;&gt;Node4</title>
<path fill="none" stroke="#191970" d="M178.8167,-582.2455C178.9472,-574.9382 179.1301,-564.6944 179.2906,-555.7046"/>
<polygon fill="#191970" stroke="#191970" points="182.7911,-555.7036 179.4703,-545.6427 175.7922,-555.5786 182.7911,-555.7036"/>
</g>
<!-- Node5 -->
<g id="node6" class="node">
<title>Node5</title>
<polygon fill="none" stroke="#bfbfbf" points="863.6425,-112.5 863.6425,-131.5 907.6425,-131.5 907.6425,-112.5 863.6425,-112.5"/>
<text text-anchor="middle" x="885.6425" y="-119.5" font-family="FreeSans.ttf" font-size="10.00" fill="#000000">string</text>
</g>
<!-- Node2&#45;&gt;Node5 -->
<g id="edge5" class="edge">
<title>Node2&#45;&gt;Node5</title>
<path fill="none" stroke="#191970" d="M126.0538,-582.4646C85.8071,-574.1579 34.7198,-561.0972 19.6425,-546 -1.9274,-524.4016 .6425,-510.5246 .6425,-480 .6425,-480 .6425,-480 .6425,-239.5 .6425,-151.7173 693.7029,-127.283 853.1897,-122.8223"/>
<polygon fill="#191970" stroke="#191970" points="853.4225,-126.3173 863.3233,-122.5459 853.2316,-119.3199 853.4225,-126.3173"/>
</g>
<!-- Node6 -->
<g id="node7" class="node">
<title>Node6</title>
<polygon fill="none" stroke="#bfbfbf" points="227.1425,-526.5 227.1425,-545.5 320.1425,-545.5 320.1425,-526.5 227.1425,-526.5"/>
<text text-anchor="middle" x="273.6425" y="-533.5" font-family="FreeSans.ttf" font-size="10.00" fill="#000000">unordered_map</text>
</g>
<!-- Node2&#45;&gt;Node6 -->
<g id="edge6" class="edge">
<title>Node2&#45;&gt;Node6</title>
<path fill="none" stroke="#191970" d="M195.1902,-582.2455C209.9024,-573.5731 231.6313,-560.7645 248.493,-550.825"/>
<polygon fill="#191970" stroke="#191970" points="250.447,-553.736 257.2844,-545.6427 246.8923,-547.7057 250.447,-553.736"/>
</g>
<!-- Node7 -->
<g id="node8" class="node">
<title>Node7</title>
<polygon fill="none" stroke="#bfbfbf" points="540.1425,-414.5 540.1425,-433.5 587.1425,-433.5 587.1425,-414.5 540.1425,-414.5"/>
<text text-anchor="middle" x="563.6425" y="-421.5" font-family="FreeSans.ttf" font-size="10.00" fill="#000000">vector</text>
</g>
<!-- Node2&#45;&gt;Node7 -->
<g id="edge7" class="edge">
<title>Node2&#45;&gt;Node7</title>
<path fill="none" stroke="#191970" d="M166.4051,-582.4709C150.7217,-569.1077 127.1871,-544.3785 141.6425,-526 190.1074,-464.3823 438.4348,-435.5551 529.8277,-426.913"/>
<polygon fill="#191970" stroke="#191970" points="530.2875,-430.3856 539.9233,-425.9807 529.6437,-423.4152 530.2875,-430.3856"/>
</g>
<!-- Node8&#45;&gt;Node2 -->
<g id="edge9" class="edge">
<title>Node8&#45;&gt;Node2</title>
<path fill="none" stroke="#191970" d="M308.58,-643.8906C282.5869,-633.5103 240.9947,-616.9004 211.8878,-605.2766"/>
<polygon fill="#191970" stroke="#191970" points="213.1209,-602.0003 202.536,-601.5419 210.5248,-608.5011 213.1209,-602.0003"/>
</g>
<!-- Node8&#45;&gt;Node4 -->
<g id="edge82" class="edge">
<title>Node8&#45;&gt;Node4</title>
<path fill="none" stroke="#191970" d="M322.9192,-643.6359C308.4868,-629.2484 280.2327,-602.0419 253.6425,-582 238.4811,-570.5724 220.3993,-559.2934 205.9048,-550.7639"/>
<polygon fill="#191970" stroke="#191970" points="207.3716,-547.5687 196.9647,-545.582 203.8612,-553.6249 207.3716,-547.5687"/>
</g>
<!-- Node8&#45;&gt;Node5 -->
<g id="edge83" class="edge">
<title>Node8&#45;&gt;Node5</title>
<path fill="none" stroke="#191970" d="M333.8279,-643.9996C336.1914,-622.5126 340.3169,-568.7264 328.6425,-526 315.0114,-476.1125 272.6425,-475.7162 272.6425,-424 272.6425,-424 272.6425,-424 272.6425,-239.5 272.6425,-211.5215 180.5278,-231.3435 431.6425,-168 511.9175,-147.7507 763.727,-129.9043 853.4753,-124.0343"/>
<polygon fill="#191970" stroke="#191970" points="853.8417,-127.518 863.5944,-123.3785 853.3889,-120.5326 853.8417,-127.518"/>
</g>
<!-- Node8&#45;&gt;Node6 -->
<g id="edge84" class="edge">
<title>Node8&#45;&gt;Node6</title>
<path fill="none" stroke="#191970" d="M327.8143,-643.8845C318.0472,-624.4331 295.7932,-580.1138 283.0555,-554.7462"/>
<polygon fill="#191970" stroke="#191970" points="286.1526,-553.1145 278.5374,-545.7484 279.897,-556.2556 286.1526,-553.1145"/>
</g>
<!-- Node8&#45;&gt;Node7 -->
<g id="edge85" class="edge">
<title>Node8&#45;&gt;Node7</title>
<path fill="none" stroke="#191970" d="M338.4592,-643.6648C344.5516,-633.3287 354.367,-616.5776 362.6425,-602 395.7391,-543.6988 384.5974,-513.4606 435.6425,-470 462.5859,-447.0599 501.8461,-435.2144 529.7708,-429.3352"/>
<polygon fill="#191970" stroke="#191970" points="530.725,-432.7151 539.8689,-427.3634 529.3834,-425.8449 530.725,-432.7151"/>
</g>
<!-- Node9 -->
<g id="node10" class="node">
<title>Node9</title>
<g id="a_node10"><a xlink:href="Transform_8h.html" target="_top" xlink:title="iDynTree/Core/Transform.h">
<polygon fill="none" stroke="#000000" points="1067.6425,-414.5 1067.6425,-433.5 1213.6425,-433.5 1213.6425,-414.5 1067.6425,-414.5"/>
<text text-anchor="middle" x="1140.6425" y="-421.5" font-family="FreeSans.ttf" font-size="10.00" fill="#000000">iDynTree/Core/Transform.h</text>
</a>
</g>
</g>
<!-- Node8&#45;&gt;Node9 -->
<g id="edge10" class="edge">
<title>Node8&#45;&gt;Node9</title>
<path fill="none" stroke="#191970" d="M382.2692,-650.9034C535.9545,-642.7367 997.6671,-617.2154 1063.6425,-602 1150.0073,-582.0823 1209.531,-576.5468 1228.6425,-490 1230.5592,-481.3202 1233.2473,-477.6031 1228.6425,-470 1219.4599,-454.8386 1203.4577,-444.4355 1187.5953,-437.4143"/>
<polygon fill="#191970" stroke="#191970" points="1188.9071,-434.1695 1178.3245,-433.6607 1186.2801,-440.6579 1188.9071,-434.1695"/>
</g>
<!-- Node33 -->
<g id="node33" class="node">
<title>Node33</title>
<g id="a_node33"><a xlink:href="Sensors_8h.html" target="_top" xlink:title="iDynTree/Sensors/Sensors.h">
<polygon fill="none" stroke="#000000" points="903.1425,-582.5 903.1425,-601.5 1054.1425,-601.5 1054.1425,-582.5 903.1425,-582.5"/>
<text text-anchor="middle" x="978.6425" y="-589.5" font-family="FreeSans.ttf" font-size="10.00" fill="#000000">iDynTree/Sensors/Sensors.h</text>
</a>
</g>
</g>
<!-- Node8&#45;&gt;Node33 -->
<g id="edge55" class="edge">
<title>Node8&#45;&gt;Node33</title>
<path fill="none" stroke="#191970" d="M382.2604,-648.7763C491.9334,-638.3353 756.0671,-613.1895 893.037,-600.1497"/>
<polygon fill="#191970" stroke="#191970" points="893.4535,-603.626 903.0767,-599.194 892.79,-596.6575 893.4535,-603.626"/>
</g>
<!-- Node9&#45;&gt;Node5 -->
<g id="edge54" class="edge">
<title>Node9&#45;&gt;Node5</title>
<path fill="none" stroke="#191970" d="M1067.2294,-415.9598C1032.8157,-409.6076 992.4815,-398.2582 960.6425,-378 904.7911,-342.4634 894.9581,-318.6141 876.6425,-255 865.9379,-217.8207 868.7194,-206.3752 873.6425,-168 874.7816,-159.1204 877.1098,-149.5073 879.4148,-141.3763"/>
<polygon fill="#191970" stroke="#191970" points="882.7882,-142.3125 882.3298,-131.7276 876.0873,-140.2881 882.7882,-142.3125"/>
</g>
<!-- Node10 -->
<g id="node11" class="node">
<title>Node10</title>
<g id="a_node11"><a xlink:href="Position_8h.html" target="_top" xlink:title="iDynTree/Core/Position.h">
<polygon fill="none" stroke="#000000" points="969.6425,-358.5 969.6425,-377.5 1105.6425,-377.5 1105.6425,-358.5 969.6425,-358.5"/>
<text text-anchor="middle" x="1037.6425" y="-365.5" font-family="FreeSans.ttf" font-size="10.00" fill="#000000">iDynTree/Core/Position.h</text>
</a>
</g>
</g>
<!-- Node9&#45;&gt;Node10 -->
<g id="edge11" class="edge">
<title>Node9&#45;&gt;Node10</title>
<path fill="none" stroke="#191970" d="M1122.7013,-414.2455C1106.6025,-405.4928 1082.7546,-392.527 1064.4034,-382.5496"/>
<polygon fill="#191970" stroke="#191970" points="1065.8354,-379.3444 1055.3781,-377.6427 1062.4918,-385.4942 1065.8354,-379.3444"/>
</g>
<!-- Node27 -->
<g id="node27" class="node">
<title>Node27</title>
<g id="a_node27"><a xlink:href="Rotation_8h.html" target="_top" xlink:title="iDynTree/Core/Rotation.h">
<polygon fill="none" stroke="#000000" points="1047.1425,-297 1047.1425,-316 1184.1425,-316 1184.1425,-297 1047.1425,-297"/>
<text text-anchor="middle" x="1115.6425" y="-304" font-family="FreeSans.ttf" font-size="10.00" fill="#000000">iDynTree/Core/Rotation.h</text>
</a>
</g>
</g>
<!-- Node9&#45;&gt;Node27 -->
<g id="edge52" class="edge">
<title>Node9&#45;&gt;Node27</title>
<path fill="none" stroke="#191970" d="M1138.5966,-414.3845C1134.513,-395.1913 1125.2778,-351.786 1119.8481,-326.2663"/>
<polygon fill="#191970" stroke="#191970" points="1123.2211,-325.301 1117.7166,-316.2484 1116.3744,-326.7578 1123.2211,-325.301"/>
</g>
<!-- Node30 -->
<g id="node30" class="node">
<title>Node30</title>
<g id="a_node30"><a xlink:href="MatrixFixSize_8h.html" target="_top" xlink:title="iDynTree/Core/MatrixFixSize.h">
<polygon fill="none" stroke="#000000" points="1128.1425,-168.5 1128.1425,-187.5 1289.1425,-187.5 1289.1425,-168.5 1128.1425,-168.5"/>
<text text-anchor="middle" x="1208.6425" y="-175.5" font-family="FreeSans.ttf" font-size="10.00" fill="#000000">iDynTree/Core/MatrixFixSize.h</text>
</a>
</g>
</g>
<!-- Node9&#45;&gt;Node30 -->
<g id="edge53" class="edge">
<title>Node9&#45;&gt;Node30</title>
<path fill="none" stroke="#191970" d="M1153.1745,-414.1885C1183.869,-390.5056 1265.8452,-329.3402 1341.6425,-291 1383.0482,-270.0559 1413.0844,-293.0494 1439.6425,-255 1447.5283,-243.7021 1448.3819,-234.6513 1439.6425,-224 1429.9019,-212.1285 1352.0584,-198.3508 1289.3877,-188.9913"/>
<polygon fill="#191970" stroke="#191970" points="1289.8763,-185.5256 1279.4725,-187.5281 1288.8543,-192.4506 1289.8763,-185.5256"/>
</g>
<!-- Node10&#45;&gt;Node5 -->
<g id="edge51" class="edge">
<title>Node10&#45;&gt;Node5</title>
<path fill="none" stroke="#191970" d="M1015.3873,-358.3757C981.6548,-342.4365 918.6559,-307.065 891.6425,-255 872.8277,-218.7368 877.1333,-169.1478 881.6022,-141.9205"/>
<polygon fill="#191970" stroke="#191970" points="885.1106,-142.1903 883.4605,-131.7247 878.2241,-140.9351 885.1106,-142.1903"/>
</g>
<!-- Node11 -->
<g id="node12" class="node">
<title>Node11</title>
<g id="a_node12"><a xlink:href="PositionRaw_8h.html" target="_top" xlink:title="iDynTree/Core/PositionRaw.h">
<polygon fill="none" stroke="#000000" points="900.6425,-230 900.6425,-249 1056.6425,-249 1056.6425,-230 900.6425,-230"/>
<text text-anchor="middle" x="978.6425" y="-237" font-family="FreeSans.ttf" font-size="10.00" fill="#000000">iDynTree/Core/PositionRaw.h</text>
</a>
</g>
</g>
<!-- Node10&#45;&gt;Node11 -->
<g id="edge12" class="edge">
<title>Node10&#45;&gt;Node11</title>
<path fill="none" stroke="#191970" d="M1033.2079,-358.3416C1023.4698,-337.1323 1000.0698,-286.1679 987.3051,-258.3669"/>
<polygon fill="#191970" stroke="#191970" points="990.482,-256.8979 983.1285,-249.2705 984.1205,-259.8188 990.482,-256.8979"/>
</g>
<!-- Node10&#45;&gt;Node27 -->
<g id="edge32" class="edge">
<title>Node10&#45;&gt;Node27</title>
<path fill="none" stroke="#191970" d="M1049.83,-358.3906C1062.0794,-348.7324 1081.1688,-333.6812 1095.6402,-322.271"/>
<polygon fill="#191970" stroke="#191970" points="1097.8549,-324.9819 1103.5406,-316.0419 1093.5208,-319.485 1097.8549,-324.9819"/>
</g>
<!-- Node11&#45;&gt;Node5 -->
<g id="edge31" class="edge">
<title>Node11&#45;&gt;Node5</title>
<path fill="none" stroke="#191970" d="M971.0319,-229.8845C955.432,-210.1749 919.6233,-164.9328 899.6883,-139.7461"/>
<polygon fill="#191970" stroke="#191970" points="902.3088,-137.4174 893.3582,-131.7484 896.82,-141.7617 902.3088,-137.4174"/>
</g>
<!-- Node12 -->
<g id="node13" class="node">
<title>Node12</title>
<g id="a_node13"><a xlink:href="VectorFixSize_8h.html" target="_top" xlink:title="iDynTree/Core/VectorFixSize.h">
<polygon fill="none" stroke="#000000" points="1492.1425,-168.5 1492.1425,-187.5 1653.1425,-187.5 1653.1425,-168.5 1492.1425,-168.5"/>
<text text-anchor="middle" x="1572.6425" y="-175.5" font-family="FreeSans.ttf" font-size="10.00" fill="#000000">iDynTree/Core/VectorFixSize.h</text>
</a>
</g>
</g>
<!-- Node11&#45;&gt;Node12 -->
<g id="edge13" class="edge">
<title>Node11&#45;&gt;Node12</title>
<path fill="none" stroke="#191970" d="M1052.6302,-229.9664C1069.3931,-227.9065 1087.1216,-225.8065 1103.6425,-224 1269.071,-205.9112 1313.2307,-205.4817 1482.1393,-188.1405"/>
<polygon fill="#191970" stroke="#191970" points="1482.5309,-191.6188 1492.1191,-187.1112 1481.8127,-184.6557 1482.5309,-191.6188"/>
</g>
<!-- Node12&#45;&gt;Node5 -->
<g id="edge26" class="edge">
<title>Node12&#45;&gt;Node5</title>
<path fill="none" stroke="#191970" d="M1492.1254,-168.8249C1489.2633,-168.5396 1486.4288,-168.2636 1483.6425,-168 1267.7294,-147.5721 1007.3036,-129.9348 917.7215,-124.0695"/>
<polygon fill="#191970" stroke="#191970" points="917.8649,-120.5716 907.6583,-123.4132 917.4093,-127.5567 917.8649,-120.5716"/>
</g>
<!-- Node13 -->
<g id="node14" class="node">
<title>Node13</title>
<g id="a_node14"><a xlink:href="Utils_8h.html" target="_top" xlink:title="iDynTree/Core/Utils.h">
<polygon fill="none" stroke="#ff0000" points="1345.1425,-56.5 1345.1425,-75.5 1464.1425,-75.5 1464.1425,-56.5 1345.1425,-56.5"/>
<text text-anchor="middle" x="1404.6425" y="-63.5" font-family="FreeSans.ttf" font-size="10.00" fill="#000000">iDynTree/Core/Utils.h</text>
</a>
</g>
</g>
<!-- Node12&#45;&gt;Node13 -->
<g id="edge14" class="edge">
<title>Node12&#45;&gt;Node13</title>
<path fill="none" stroke="#191970" d="M1499.8545,-168.4372C1456.3315,-161.0587 1406.9642,-149.1781 1393.6425,-132 1383.3314,-118.7041 1388.2096,-99.3254 1394.3899,-85.0036"/>
<polygon fill="#191970" stroke="#191970" points="1397.7209,-86.1547 1398.9216,-75.6281 1391.4185,-83.1083 1397.7209,-86.1547"/>
</g>
<!-- Node14 -->
<g id="node15" class="node">
<title>Node14</title>
<polygon fill="none" stroke="#bfbfbf" points="1378.1425,-.5 1378.1425,-19.5 1431.1425,-19.5 1431.1425,-.5 1378.1425,-.5"/>
<text text-anchor="middle" x="1404.6425" y="-7.5" font-family="FreeSans.ttf" font-size="10.00" fill="#000000">cstddef</text>
</g>
<!-- Node12&#45;&gt;Node14 -->
<g id="edge29" class="edge">
<title>Node12&#45;&gt;Node14</title>
<path fill="none" stroke="#191970" d="M1573.311,-168.3191C1573.7957,-154.7754 1573.0116,-129.8332 1562.6425,-112 1535.7507,-65.7505 1478.5535,-36.9185 1440.8632,-22.1552"/>
<polygon fill="#191970" stroke="#191970" points="1441.8535,-18.788 1431.2618,-18.532 1439.3821,-25.3372 1441.8535,-18.788"/>
</g>
<!-- Node16 -->
<g id="node16" class="node">
<title>Node16</title>
<g id="a_node16"><a xlink:href="Span_8h.html" target="_top" xlink:title="iDynTree/Core/Span.h">
<polygon fill="none" stroke="#000000" points="1597.1425,-56.5 1597.1425,-75.5 1718.1425,-75.5 1718.1425,-56.5 1597.1425,-56.5"/>
<text text-anchor="middle" x="1657.6425" y="-63.5" font-family="FreeSans.ttf" font-size="10.00" fill="#000000">iDynTree/Core/Span.h</text>
</a>
</g>
</g>
<!-- Node12&#45;&gt;Node16 -->
<g id="edge16" class="edge">
<title>Node12&#45;&gt;Node16</title>
<path fill="none" stroke="#191970" d="M1590.3738,-168.4441C1603.907,-160.3428 1622.1285,-147.5707 1633.6425,-132 1643.8242,-118.231 1650.0579,-99.7038 1653.6109,-85.7842"/>
<polygon fill="#191970" stroke="#191970" points="1657.0794,-86.3178 1655.9098,-75.7877 1650.2575,-84.7489 1657.0794,-86.3178"/>
</g>
<!-- Node17 -->
<g id="node17" class="node">
<title>Node17</title>
<polygon fill="none" stroke="#bfbfbf" points="1299.6425,-.5 1299.6425,-19.5 1351.6425,-19.5 1351.6425,-.5 1299.6425,-.5"/>
<text text-anchor="middle" x="1325.6425" y="-7.5" font-family="FreeSans.ttf" font-size="10.00" fill="#000000">cassert</text>
</g>
<!-- Node12&#45;&gt;Node17 -->
<g id="edge28" class="edge">
<title>Node12&#45;&gt;Node17</title>
<path fill="none" stroke="#191970" d="M1517.0606,-168.444C1469.6413,-159.5768 1405.7337,-145.7166 1383.6425,-132 1356.0377,-114.86 1350.2379,-105.5121 1336.6425,-76 1329.9594,-61.4928 1327.2821,-43.5294 1326.2354,-30.0077"/>
<polygon fill="#191970" stroke="#191970" points="1329.722,-29.664 1325.6876,-19.8674 1322.7322,-30.0417 1329.722,-29.664"/>
</g>
<!-- Node25 -->
<g id="node25" class="node">
<title>Node25</title>
<polygon fill="none" stroke="#bfbfbf" points="1251.6425,-112.5 1251.6425,-131.5 1307.6425,-131.5 1307.6425,-112.5 1251.6425,-112.5"/>
<text text-anchor="middle" x="1279.6425" y="-119.5" font-family="FreeSans.ttf" font-size="10.00" fill="#000000">sstream</text>
</g>
<!-- Node12&#45;&gt;Node25 -->
<g id="edge27" class="edge">
<title>Node12&#45;&gt;Node25</title>
<path fill="none" stroke="#191970" d="M1515.6543,-168.4341C1464.6715,-159.6676 1387.9708,-145.9641 1321.6425,-132 1320.4047,-131.7394 1319.1477,-131.4697 1317.8792,-131.1933"/>
<polygon fill="#191970" stroke="#191970" points="1318.5885,-127.7654 1308.0635,-128.9802 1317.0488,-134.594 1318.5885,-127.7654"/>
</g>
<!-- Node26 -->
<g id="node26" class="node">
<title>Node26</title>
<polygon fill="none" stroke="#bfbfbf" points="1183.6425,-112.5 1183.6425,-131.5 1233.6425,-131.5 1233.6425,-112.5 1183.6425,-112.5"/>
<text text-anchor="middle" x="1208.6425" y="-119.5" font-family="FreeSans.ttf" font-size="10.00" fill="#000000">cstring</text>
</g>
<!-- Node12&#45;&gt;Node26 -->
<g id="edge30" class="edge">
<title>Node12&#45;&gt;Node26</title>
<path fill="none" stroke="#191970" d="M1494.5042,-168.4597C1417.1666,-158.789 1303.0582,-143.8519 1243.8402,-131.9534"/>
<polygon fill="#191970" stroke="#191970" points="1244.2926,-128.4722 1233.7871,-129.8448 1242.8556,-135.3231 1244.2926,-128.4722"/>
</g>
<!-- Node13&#45;&gt;Node14 -->
<g id="edge15" class="edge">
<title>Node13&#45;&gt;Node14</title>
<path fill="none" stroke="#191970" d="M1404.6425,-56.2455C1404.6425,-48.9382 1404.6425,-38.6944 1404.6425,-29.7046"/>
<polygon fill="#191970" stroke="#191970" points="1408.1426,-29.6426 1404.6425,-19.6427 1401.1426,-29.6427 1408.1426,-29.6426"/>
</g>
<!-- Node16&#45;&gt;Node14 -->
<g id="edge20" class="edge">
<title>Node16&#45;&gt;Node14</title>
<path fill="none" stroke="#191970" d="M1608.3205,-56.4521C1566.3626,-48.1249 1504.3011,-35.3268 1441.0743,-19.9931"/>
<polygon fill="#191970" stroke="#191970" points="1441.8755,-16.586 1431.3305,-17.6119 1440.2137,-23.3859 1441.8755,-16.586"/>
</g>
<!-- Node16&#45;&gt;Node17 -->
<g id="edge17" class="edge">
<title>Node16&#45;&gt;Node17</title>
<path fill="none" stroke="#191970" d="M1597.0392,-57.4915C1538.6191,-49.0135 1447.8172,-35.11 1369.6425,-20 1367.1524,-19.5187 1364.5884,-18.9992 1362.0091,-18.4589"/>
<polygon fill="#191970" stroke="#191970" points="1362.6234,-15.0108 1352.1083,-16.3083 1361.1375,-21.8512 1362.6234,-15.0108"/>
</g>
<!-- Node18 -->
<g id="node18" class="node">
<title>Node18</title>
<polygon fill="none" stroke="#bfbfbf" points="1599.6425,-.5 1599.6425,-19.5 1663.6425,-19.5 1663.6425,-.5 1599.6425,-.5"/>
<text text-anchor="middle" x="1631.6425" y="-7.5" font-family="FreeSans.ttf" font-size="10.00" fill="#000000">algorithm</text>
</g>
<!-- Node16&#45;&gt;Node18 -->
<g id="edge18" class="edge">
<title>Node16&#45;&gt;Node18</title>
<path fill="none" stroke="#191970" d="M1653.1136,-56.2455C1649.6091,-48.6973 1644.6498,-38.0158 1640.3802,-28.8197"/>
<polygon fill="#191970" stroke="#191970" points="1643.5051,-27.2389 1636.1194,-19.6427 1637.1561,-30.1867 1643.5051,-27.2389"/>
</g>
<!-- Node19 -->
<g id="node19" class="node">
<title>Node19</title>
<polygon fill="none" stroke="#bfbfbf" points="1681.6425,-.5 1681.6425,-19.5 1723.6425,-19.5 1723.6425,-.5 1681.6425,-.5"/>
<text text-anchor="middle" x="1702.6425" y="-7.5" font-family="FreeSans.ttf" font-size="10.00" fill="#000000">array</text>
</g>
<!-- Node16&#45;&gt;Node19 -->
<g id="edge19" class="edge">
<title>Node16&#45;&gt;Node19</title>
<path fill="none" stroke="#191970" d="M1665.4809,-56.2455C1671.8045,-48.3761 1680.8649,-37.101 1688.4561,-27.6542"/>
<polygon fill="#191970" stroke="#191970" points="1691.3582,-29.6302 1694.8939,-19.6427 1685.9017,-25.2454 1691.3582,-29.6302"/>
</g>
<!-- Node20 -->
<g id="node20" class="node">
<title>Node20</title>
<polygon fill="none" stroke="#bfbfbf" points="1887.1425,-.5 1887.1425,-19.5 1940.1425,-19.5 1940.1425,-.5 1887.1425,-.5"/>
<text text-anchor="middle" x="1913.6425" y="-7.5" font-family="FreeSans.ttf" font-size="10.00" fill="#000000">iterator</text>
</g>
<!-- Node16&#45;&gt;Node20 -->
<g id="edge21" class="edge">
<title>Node16&#45;&gt;Node20</title>
<path fill="none" stroke="#191970" d="M1708.7924,-56.454C1751.4563,-48.2435 1814.051,-35.6243 1876.8634,-20.3241"/>
<polygon fill="#191970" stroke="#191970" points="1878.0681,-23.6322 1886.9432,-17.8457 1876.3968,-16.8346 1878.0681,-23.6322"/>
</g>
<!-- Node21 -->
<g id="node21" class="node">
<title>Node21</title>
<polygon fill="none" stroke="#bfbfbf" points="1741.6425,-.5 1741.6425,-19.5 1785.6425,-19.5 1785.6425,-.5 1741.6425,-.5"/>
<text text-anchor="middle" x="1763.6425" y="-7.5" font-family="FreeSans.ttf" font-size="10.00" fill="#000000">limits</text>
</g>
<!-- Node16&#45;&gt;Node21 -->
<g id="edge22" class="edge">
<title>Node16&#45;&gt;Node21</title>
<path fill="none" stroke="#191970" d="M1676.1063,-56.2455C1692.7499,-47.4527 1717.4418,-34.4079 1736.3617,-24.4125"/>
<polygon fill="#191970" stroke="#191970" points="1738.1833,-27.4086 1745.3903,-19.6427 1734.9134,-21.2193 1738.1833,-27.4086"/>
</g>
<!-- Node22 -->
<g id="node22" class="node">
<title>Node22</title>
<polygon fill="none" stroke="#bfbfbf" points="1804.1425,-.5 1804.1425,-19.5 1869.1425,-19.5 1869.1425,-.5 1804.1425,-.5"/>
<text text-anchor="middle" x="1836.6425" y="-7.5" font-family="FreeSans.ttf" font-size="10.00" fill="#000000">stdexcept</text>
</g>
<!-- Node16&#45;&gt;Node22 -->
<g id="edge23" class="edge">
<title>Node16&#45;&gt;Node22</title>
<path fill="none" stroke="#191970" d="M1688.4137,-56.3733C1718.3075,-47.021 1763.8517,-32.7725 1796.5642,-22.5385"/>
<polygon fill="#191970" stroke="#191970" points="1797.774,-25.8273 1806.2728,-19.5011 1795.6839,-19.1466 1797.774,-25.8273"/>
</g>
<!-- Node23 -->
<g id="node23" class="node">
<title>Node23</title>
<polygon fill="none" stroke="#bfbfbf" points="1449.1425,-.5 1449.1425,-19.5 1518.1425,-19.5 1518.1425,-.5 1449.1425,-.5"/>
<text text-anchor="middle" x="1483.6425" y="-7.5" font-family="FreeSans.ttf" font-size="10.00" fill="#000000">type_traits</text>
</g>
<!-- Node16&#45;&gt;Node23 -->
<g id="edge24" class="edge">
<title>Node16&#45;&gt;Node23</title>
<path fill="none" stroke="#191970" d="M1627.7308,-56.3733C1598.7973,-47.0613 1554.7813,-32.8953 1523.0132,-22.671"/>
<polygon fill="#191970" stroke="#191970" points="1523.7553,-19.2331 1513.1638,-19.5011 1521.6107,-25.8965 1523.7553,-19.2331"/>
</g>
<!-- Node24 -->
<g id="node24" class="node">
<title>Node24</title>
<polygon fill="none" stroke="#bfbfbf" points="1536.1425,-.5 1536.1425,-19.5 1581.1425,-19.5 1581.1425,-.5 1536.1425,-.5"/>
<text text-anchor="middle" x="1558.6425" y="-7.5" font-family="FreeSans.ttf" font-size="10.00" fill="#000000">utility</text>
</g>
<!-- Node16&#45;&gt;Node24 -->
<g id="edge25" class="edge">
<title>Node16&#45;&gt;Node24</title>
<path fill="none" stroke="#191970" d="M1640.398,-56.2455C1625.0664,-47.5731 1602.4226,-34.7645 1584.8509,-24.825"/>
<polygon fill="#191970" stroke="#191970" points="1586.1166,-21.5198 1575.6894,-19.6427 1582.6701,-27.6126 1586.1166,-21.5198"/>
</g>
<!-- Node27&#45;&gt;Node5 -->
<g id="edge33" class="edge">
<title>Node27&#45;&gt;Node5</title>
<path fill="none" stroke="#191970" d="M1111.7144,-296.7727C1104.6078,-280.146 1088.2306,-245.9355 1065.6425,-224 1021.6459,-181.2746 956.2666,-150.1682 917.5988,-134.1877"/>
<polygon fill="#191970" stroke="#191970" points="918.4896,-130.7727 907.9068,-130.2685 915.8654,-137.2622 918.4896,-130.7727"/>
</g>
<!-- Node27&#45;&gt;Node12 -->
<g id="edge50" class="edge">
<title>Node27&#45;&gt;Node12</title>
<path fill="none" stroke="#191970" d="M1184.4499,-302.876C1251.2972,-297.6732 1354.8398,-285.1137 1439.6425,-255 1481.9646,-239.9713 1526.1327,-211.4155 1551.4214,-193.6192"/>
<polygon fill="#191970" stroke="#191970" points="1553.7477,-196.2585 1559.8457,-187.5945 1549.6757,-190.5647 1553.7477,-196.2585"/>
</g>
<!-- Node28 -->
<g id="node28" class="node">
<title>Node28</title>
<g id="a_node28"><a xlink:href="GeomVector3_8h.html" target="_top" xlink:title="iDynTree/Core/GeomVector3.h">
<polygon fill="none" stroke="#000000" points="1601.1425,-230 1601.1425,-249 1764.1425,-249 1764.1425,-230 1601.1425,-230"/>
<text text-anchor="middle" x="1682.6425" y="-237" font-family="FreeSans.ttf" font-size="10.00" fill="#000000">iDynTree/Core/GeomVector3.h</text>
</a>
</g>
</g>
<!-- Node27&#45;&gt;Node28 -->
<g id="edge34" class="edge">
<title>Node27&#45;&gt;Node28</title>
<path fill="none" stroke="#191970" d="M1184.3182,-298.3849C1286.4909,-286.3116 1478.642,-263.6059 1592.1636,-250.1915"/>
<polygon fill="#191970" stroke="#191970" points="1592.7026,-253.6523 1602.2228,-249.0029 1591.8811,-246.7006 1592.7026,-253.6523"/>
</g>
<!-- Node29 -->
<g id="node29" class="node">
<title>Node29</title>
<g id="a_node29"><a xlink:href="RotationRaw_8h.html" target="_top" xlink:title="iDynTree/Core/RotationRaw.h">
<polygon fill="none" stroke="#000000" points="1112.6425,-230 1112.6425,-249 1270.6425,-249 1270.6425,-230 1112.6425,-230"/>
<text text-anchor="middle" x="1191.6425" y="-237" font-family="FreeSans.ttf" font-size="10.00" fill="#000000">iDynTree/Core/RotationRaw.h</text>
</a>
</g>
</g>
<!-- Node27&#45;&gt;Node29 -->
<g id="edge36" class="edge">
<title>Node27&#45;&gt;Node29</title>
<path fill="none" stroke="#191970" d="M1126.5314,-296.9005C1138.6087,-286.2535 1158.3096,-268.8856 1172.8824,-256.0385"/>
<polygon fill="#191970" stroke="#191970" points="1175.587,-258.3201 1180.7737,-249.0817 1170.9579,-253.0692 1175.587,-258.3201"/>
</g>
<!-- Node28&#45;&gt;Node12 -->
<g id="edge35" class="edge">
<title>Node28&#45;&gt;Node12</title>
<path fill="none" stroke="#191970" d="M1665.455,-229.8906C1647.5343,-219.8713 1619.233,-204.0483 1598.5901,-192.5071"/>
<polygon fill="#191970" stroke="#191970" points="1600.1458,-189.367 1589.7093,-187.5419 1596.7297,-195.4769 1600.1458,-189.367"/>
</g>
<!-- Node29&#45;&gt;Node5 -->
<g id="edge49" class="edge">
<title>Node29&#45;&gt;Node5</title>
<path fill="none" stroke="#191970" d="M1171.987,-229.952C1136.7248,-212.8938 1063.9461,-178.0292 1037.6425,-168 997.0224,-152.5122 948.7773,-138.6524 917.7096,-130.2906"/>
<polygon fill="#191970" stroke="#191970" points="918.4318,-126.861 907.868,-127.6712 916.6313,-133.6256 918.4318,-126.861"/>
</g>
<!-- Node29&#45;&gt;Node30 -->
<g id="edge37" class="edge">
<title>Node29&#45;&gt;Node30</title>
<path fill="none" stroke="#191970" d="M1194.2987,-229.8906C1196.68,-221.276 1200.2473,-208.3708 1203.2285,-197.5858"/>
<polygon fill="#191970" stroke="#191970" points="1206.6579,-198.3159 1205.9488,-187.7449 1199.9109,-196.4509 1206.6579,-198.3159"/>
</g>
<!-- Node30&#45;&gt;Node5 -->
<g id="edge46" class="edge">
<title>Node30&#45;&gt;Node5</title>
<path fill="none" stroke="#191970" d="M1153.4838,-168.4369C1085.6059,-156.6686 972.6119,-137.0783 917.6405,-127.5476"/>
<polygon fill="#191970" stroke="#191970" points="918.2135,-124.0949 907.7626,-125.8351 917.0177,-130.992 918.2135,-124.0949"/>
</g>
<!-- Node30&#45;&gt;Node13 -->
<g id="edge38" class="edge">
<title>Node30&#45;&gt;Node13</title>
<path fill="none" stroke="#191970" d="M1197.0458,-168.2939C1182.2163,-154.7204 1160.0968,-129.7429 1174.6425,-112 1194.6546,-87.5891 1274.7787,-75.8742 1334.8689,-70.4306"/>
<polygon fill="#191970" stroke="#191970" points="1335.4199,-73.8961 1345.0812,-69.5475 1334.8168,-66.9221 1335.4199,-73.8961"/>
</g>
<!-- Node30&#45;&gt;Node17 -->
<g id="edge44" class="edge">
<title>Node30&#45;&gt;Node17</title>
<path fill="none" stroke="#191970" d="M1127.9697,-169.4259C1081.5417,-160.9313 1036.4184,-144.2807 1058.6425,-112 1085.6862,-72.7188 1222.6454,-34.9213 1289.2142,-18.525"/>
<polygon fill="#191970" stroke="#191970" points="1290.3765,-21.8444 1299.2661,-16.0803 1288.7222,-15.0427 1290.3765,-21.8444"/>
</g>
<!-- Node30&#45;&gt;Node25 -->
<g id="edge48" class="edge">
<title>Node30&#45;&gt;Node25</title>
<path fill="none" stroke="#191970" d="M1221.0097,-168.2455C1231.5979,-159.8943 1247.0489,-147.7076 1259.4318,-137.9408"/>
<polygon fill="#191970" stroke="#191970" points="1261.7328,-140.5837 1267.4169,-131.6427 1257.3978,-135.0875 1261.7328,-140.5837"/>
</g>
<!-- Node30&#45;&gt;Node26 -->
<g id="edge45" class="edge">
<title>Node30&#45;&gt;Node26</title>
<path fill="none" stroke="#191970" d="M1208.6425,-168.2455C1208.6425,-160.9382 1208.6425,-150.6944 1208.6425,-141.7046"/>
<polygon fill="#191970" stroke="#191970" points="1212.1426,-141.6426 1208.6425,-131.6427 1205.1426,-141.6427 1212.1426,-141.6426"/>
</g>
<!-- Node31 -->
<g id="node31" class="node">
<title>Node31</title>
<g id="a_node31"><a xlink:href="MatrixView_8h.html" target="_top" xlink:title="iDynTree/Core/MatrixView.h">
<polygon fill="none" stroke="#000000" points="1402.1425,-112.5 1402.1425,-131.5 1553.1425,-131.5 1553.1425,-112.5 1402.1425,-112.5"/>
<text text-anchor="middle" x="1477.6425" y="-119.5" font-family="FreeSans.ttf" font-size="10.00" fill="#000000">iDynTree/Core/MatrixView.h</text>
</a>
</g>
</g>
<!-- Node30&#45;&gt;Node31 -->
<g id="edge39" class="edge">
<title>Node30&#45;&gt;Node31</title>
<path fill="none" stroke="#191970" d="M1254.5796,-168.4369C1300.907,-158.7925 1372.4693,-143.8948 1421.9893,-133.5858"/>
<polygon fill="#191970" stroke="#191970" points="1422.8181,-136.9884 1431.8949,-131.5237 1421.3914,-130.1353 1422.8181,-136.9884"/>
</g>
<!-- Node32 -->
<g id="node32" class="node">
<title>Node32</title>
<polygon fill="none" stroke="#bfbfbf" points="1067.6425,-112.5 1067.6425,-131.5 1127.6425,-131.5 1127.6425,-112.5 1067.6425,-112.5"/>
<text text-anchor="middle" x="1097.6425" y="-119.5" font-family="FreeSans.ttf" font-size="10.00" fill="#000000">iostream</text>
</g>
<!-- Node30&#45;&gt;Node32 -->
<g id="edge47" class="edge">
<title>Node30&#45;&gt;Node32</title>
<path fill="none" stroke="#191970" d="M1189.5609,-168.3733C1171.9023,-159.4644 1145.4372,-146.1127 1125.4327,-136.0203"/>
<polygon fill="#191970" stroke="#191970" points="1126.9797,-132.8806 1116.4751,-131.5011 1123.8267,-139.1303 1126.9797,-132.8806"/>
</g>
<!-- Node31&#45;&gt;Node13 -->
<g id="edge43" class="edge">
<title>Node31&#45;&gt;Node13</title>
<path fill="none" stroke="#191970" d="M1464.9269,-112.2455C1454.0404,-103.8943 1438.1542,-91.7076 1425.4225,-81.9408"/>
<polygon fill="#191970" stroke="#191970" points="1427.2771,-78.9523 1417.2124,-75.6427 1423.0164,-84.5063 1427.2771,-78.9523"/>
</g>
<!-- Node31&#45;&gt;Node16 -->
<g id="edge42" class="edge">
<title>Node31&#45;&gt;Node16</title>
<path fill="none" stroke="#191970" d="M1508.5856,-112.3733C1538.6464,-103.021 1584.4451,-88.7725 1617.3403,-78.5385"/>
<polygon fill="#191970" stroke="#191970" points="1618.5943,-81.8139 1627.1032,-75.5011 1616.5148,-75.1299 1618.5943,-81.8139"/>
</g>
<!-- Node31&#45;&gt;Node17 -->
<g id="edge40" class="edge">
<title>Node31&#45;&gt;Node17</title>
<path fill="none" stroke="#191970" d="M1480.1654,-112.3023C1483.1904,-98.2838 1486.3925,-72.26 1473.6425,-56 1466.5485,-46.9531 1402.9625,-29.4835 1361.4755,-18.8695"/>
<polygon fill="#191970" stroke="#191970" points="1362.2617,-15.4582 1351.7082,-16.3925 1360.5409,-22.2434 1362.2617,-15.4582"/>
</g>
<!-- Node31&#45;&gt;Node23 -->
<g id="edge41" class="edge">
<title>Node31&#45;&gt;Node23</title>
<path fill="none" stroke="#191970" d="M1486.1402,-112.2186C1493.1828,-103.4179 1502.6596,-89.786 1506.6425,-76 1511.3581,-59.6778 1504.0352,-41.4668 1496.4318,-28.3158"/>
<polygon fill="#191970" stroke="#191970" points="1499.3117,-26.321 1491.0139,-19.7334 1493.3925,-30.0578 1499.3117,-26.321"/>
</g>
<!-- Node33&#45;&gt;Node5 -->
<g id="edge57" class="edge">
<title>Node33&#45;&gt;Node5</title>
<path fill="none" stroke="#191970" d="M902.9891,-588.9019C728.098,-579.6828 310.6425,-545.0037 310.6425,-424 310.6425,-424 310.6425,-424 310.6425,-239.5 310.6425,-183.6809 731.9666,-137.3275 853.3071,-125.1353"/>
<polygon fill="#191970" stroke="#191970" points="853.8499,-128.5987 863.4541,-124.1254 853.1566,-121.6331 853.8499,-128.5987"/>
</g>
<!-- Node33&#45;&gt;Node7 -->
<g id="edge58" class="edge">
<title>Node33&#45;&gt;Node7</title>
<path fill="none" stroke="#191970" d="M924.251,-582.4783C855.5557,-568.9212 735.1617,-539.987 642.6425,-490 618.5411,-476.9783 594.9793,-455.8887 579.9514,-441.061"/>
<polygon fill="#191970" stroke="#191970" points="582.4365,-438.5964 572.913,-433.9538 577.4627,-443.522 582.4365,-438.5964"/>
</g>
<!-- Node33&#45;&gt;Node20 -->
<g id="edge59" class="edge">
<title>Node33&#45;&gt;Node20</title>
<path fill="none" stroke="#191970" d="M1054.4031,-590.7022C1274.7146,-585.9318 1899.6425,-564.9161 1899.6425,-480 1899.6425,-480 1899.6425,-480 1899.6425,-122 1899.6425,-89.311 1905.5871,-51.6669 1909.729,-29.4058"/>
<polygon fill="#191970" stroke="#191970" points="1913.1749,-30.0207 1911.6366,-19.5381 1906.3021,-28.692 1913.1749,-30.0207"/>
</g>
<!-- Node33&#45;&gt;Node28 -->
<g id="edge56" class="edge">
<title>Node33&#45;&gt;Node28</title>
<path fill="none" stroke="#191970" d="M1054.317,-587.8063C1236.1433,-576.7212 1682.6425,-543.0786 1682.6425,-480 1682.6425,-480 1682.6425,-480 1682.6425,-368 1682.6425,-329.5012 1682.6425,-284.5145 1682.6425,-259.2812"/>
<polygon fill="#191970" stroke="#191970" points="1686.1426,-259.1718 1682.6425,-249.1719 1679.1426,-259.1719 1686.1426,-259.1718"/>
</g>
<!-- Node34 -->
<g id="node34" class="node">
<title>Node34</title>
<g id="a_node34"><a xlink:href="VectorDynSize_8h.html" target="_top" xlink:title="iDynTree/Core/VectorDynSize.h">
<polygon fill="none" stroke="#000000" points="1307.1425,-168.5 1307.1425,-187.5 1474.1425,-187.5 1474.1425,-168.5 1307.1425,-168.5"/>
<text text-anchor="middle" x="1390.6425" y="-175.5" font-family="FreeSans.ttf" font-size="10.00" fill="#000000">iDynTree/Core/VectorDynSize.h</text>
</a>
</g>
</g>
<!-- Node33&#45;&gt;Node34 -->
<g id="edge60" class="edge">
<title>Node33&#45;&gt;Node34</title>
<path fill="none" stroke="#191970" d="M1054.279,-583.0812C1181.949,-567.1189 1433.99,-531.433 1512.6425,-490 1575.2041,-457.0434 1598.4373,-443.2685 1625.6425,-378 1665.62,-282.0892 1510.1282,-216.707 1432.4084,-190.6482"/>
<polygon fill="#191970" stroke="#191970" points="1433.4772,-187.3153 1422.8844,-187.521 1431.2935,-193.966 1433.4772,-187.3153"/>
</g>
<!-- Node35 -->
<g id="node35" class="node">
<title>Node35</title>
<g id="a_node35"><a xlink:href="Model_8h.html" target="_top" xlink:title="iDynTree/Model/Model.h">
<polygon fill="none" stroke="#000000" points="912.1425,-526.5 912.1425,-545.5 1045.1425,-545.5 1045.1425,-526.5 912.1425,-526.5"/>
<text text-anchor="middle" x="978.6425" y="-533.5" font-family="FreeSans.ttf" font-size="10.00" fill="#000000">iDynTree/Model/Model.h</text>
</a>
</g>
</g>
<!-- Node33&#45;&gt;Node35 -->
<g id="edge63" class="edge">
<title>Node33&#45;&gt;Node35</title>
<path fill="none" stroke="#191970" d="M978.6425,-582.2455C978.6425,-574.9382 978.6425,-564.6944 978.6425,-555.7046"/>
<polygon fill="#191970" stroke="#191970" points="982.1426,-555.6426 978.6425,-545.6427 975.1426,-555.6427 982.1426,-555.6426"/>
</g>
<!-- Node37 -->
<g id="node37" class="node">
<title>Node37</title>
<g id="a_node37"><a xlink:href="Indices_8h.html" target="_top" xlink:title="iDynTree/Model/Indices.h">
<polygon fill="none" stroke="#000000" points="870.6425,-414.5 870.6425,-433.5 1008.6425,-433.5 1008.6425,-414.5 870.6425,-414.5"/>
<text text-anchor="middle" x="939.6425" y="-421.5" font-family="FreeSans.ttf" font-size="10.00" fill="#000000">iDynTree/Model/Indices.h</text>
</a>
</g>
</g>
<!-- Node33&#45;&gt;Node37 -->
<g id="edge81" class="edge">
<title>Node33&#45;&gt;Node37</title>
<path fill="none" stroke="#191970" d="M1042.2648,-582.4942C1127.4557,-567.1617 1262.1519,-532.2121 1209.6425,-470 1197.3146,-455.3941 1093.9706,-440.9901 1018.7988,-432.2956"/>
<polygon fill="#191970" stroke="#191970" points="1019.1875,-428.8174 1008.8548,-431.1596 1018.3929,-435.7721 1019.1875,-428.8174"/>
</g>
<!-- Node34&#45;&gt;Node5 -->
<g id="edge62" class="edge">
<title>Node34&#45;&gt;Node5</title>
<path fill="none" stroke="#191970" d="M1306.9687,-168.7213C1193.1901,-156.1043 995.0066,-134.1275 917.7603,-125.5616"/>
<polygon fill="#191970" stroke="#191970" points="918.0094,-122.0678 907.6846,-124.4443 917.2379,-129.0252 918.0094,-122.0678"/>
</g>
<!-- Node34&#45;&gt;Node16 -->
<g id="edge61" class="edge">
<title>Node34&#45;&gt;Node16</title>
<path fill="none" stroke="#191970" d="M1444.9984,-168.4896C1479.7024,-161.2134 1525.0668,-149.4269 1562.6425,-132 1591.1376,-118.7845 1620.275,-97.0812 1638.6333,-82.1946"/>
<polygon fill="#191970" stroke="#191970" points="1641.2524,-84.5705 1646.7296,-75.5012 1636.7922,-79.1754 1641.2524,-84.5705"/>
</g>
<!-- Node35&#45;&gt;Node7 -->
<g id="edge80" class="edge">
<title>Node35&#45;&gt;Node7</title>
<path fill="none" stroke="#191970" d="M912.0868,-530.7939C854.0965,-524.9344 768.3037,-513.0472 696.6425,-490 656.6475,-477.1371 613.6695,-453.9007 587.718,-438.7134"/>
<polygon fill="#191970" stroke="#191970" points="589.3499,-435.6119 578.9644,-433.5163 585.7763,-441.631 589.3499,-435.6119"/>
</g>
<!-- Node35&#45;&gt;Node9 -->
<g id="edge71" class="edge">
<title>Node35&#45;&gt;Node9</title>
<path fill="none" stroke="#191970" d="M1045.2719,-531.9173C1105.9614,-526.6429 1189.1515,-514.9738 1209.6425,-490 1225.6794,-470.4548 1198.1173,-450.7725 1173.2137,-438.0538"/>
<polygon fill="#191970" stroke="#191970" points="1174.4207,-434.7494 1163.8957,-433.535 1171.3662,-441.0478 1174.4207,-434.7494"/>
</g>
<!-- Node36 -->
<g id="node36" class="node">
<title>Node36</title>
<g id="a_node36"><a xlink:href="IJoint_8h.html" target="_top" xlink:title="iDynTree/Model/IJoint.h">
<polygon fill="none" stroke="#000000" points="914.6425,-470.5 914.6425,-489.5 1042.6425,-489.5 1042.6425,-470.5 914.6425,-470.5"/>
<text text-anchor="middle" x="978.6425" y="-477.5" font-family="FreeSans.ttf" font-size="10.00" fill="#000000">iDynTree/Model/IJoint.h</text>
</a>
</g>
</g>
<!-- Node35&#45;&gt;Node36 -->
<g id="edge64" class="edge">
<title>Node35&#45;&gt;Node36</title>
<path fill="none" stroke="#191970" d="M978.6425,-526.2455C978.6425,-518.9382 978.6425,-508.6944 978.6425,-499.7046"/>
<polygon fill="#191970" stroke="#191970" points="982.1426,-499.6426 978.6425,-489.6427 975.1426,-499.6427 982.1426,-499.6426"/>
</g>
<!-- Node35&#45;&gt;Node37 -->
<g id="edge72" class="edge">
<title>Node35&#45;&gt;Node37</title>
<path fill="none" stroke="#191970" d="M1045.3103,-530.7669C1101.3516,-524.8192 1175.1909,-512.817 1193.6425,-490 1199.2318,-483.0883 1199.3404,-476.8225 1193.6425,-470 1182.3653,-456.497 1089.3565,-442.2519 1019.1254,-433.2555"/>
<polygon fill="#191970" stroke="#191970" points="1019.3014,-429.75 1008.9412,-431.967 1018.4227,-436.6946 1019.3014,-429.75"/>
</g>
<!-- Node39 -->
<g id="node39" class="node">
<title>Node39</title>
<g id="a_node39"><a xlink:href="Link_8h.html" target="_top" xlink:title="iDynTree/Model/Link.h">
<polygon fill="none" stroke="#ff0000" points="1060.6425,-470.5 1060.6425,-489.5 1184.6425,-489.5 1184.6425,-470.5 1060.6425,-470.5"/>
<text text-anchor="middle" x="1122.6425" y="-477.5" font-family="FreeSans.ttf" font-size="10.00" fill="#000000">iDynTree/Model/Link.h</text>
</a>
</g>
</g>
<!-- Node35&#45;&gt;Node39 -->
<g id="edge69" class="edge">
<title>Node35&#45;&gt;Node39</title>
<path fill="none" stroke="#191970" d="M1003.397,-526.3733C1026.9273,-517.2226 1062.5111,-503.3844 1088.6851,-493.2057"/>
<polygon fill="#191970" stroke="#191970" points="1090.1596,-496.3877 1098.211,-489.5011 1087.6224,-489.8636 1090.1596,-496.3877"/>
</g>
<!-- Node50 -->
<g id="node40" class="node">
<title>Node50</title>
<g id="a_node40"><a xlink:href="SolidShapes_8h.html" target="_top" xlink:title="iDynTree/Model/SolidShapes.h">
<polygon fill="none" stroke="#000000" points="733.1425,-470.5 733.1425,-489.5 896.1425,-489.5 896.1425,-470.5 733.1425,-470.5"/>
<text text-anchor="middle" x="814.6425" y="-477.5" font-family="FreeSans.ttf" font-size="10.00" fill="#000000">iDynTree/Model/SolidShapes.h</text>
</a>
</g>
</g>
<!-- Node35&#45;&gt;Node50 -->
<g id="edge73" class="edge">
<title>Node35&#45;&gt;Node50</title>
<path fill="none" stroke="#191970" d="M950.4499,-526.3733C923.2972,-517.1016 882.0518,-503.0178 852.14,-492.804"/>
<polygon fill="#191970" stroke="#191970" points="853.0617,-489.4204 842.4672,-489.5011 850.7997,-496.0449 853.0617,-489.4204"/>
</g>
<!-- Node51 -->
<g id="node41" class="node">
<title>Node51</title>
<polygon fill="none" stroke="#bfbfbf" points="643.1425,-414.5 643.1425,-433.5 692.1425,-433.5 692.1425,-414.5 643.1425,-414.5"/>
<text text-anchor="middle" x="667.6425" y="-421.5" font-family="FreeSans.ttf" font-size="10.00" fill="#000000">cstdlib</text>
</g>
<!-- Node35&#45;&gt;Node51 -->
<g id="edge79" class="edge">
<title>Node35&#45;&gt;Node51</title>
<path fill="none" stroke="#191970" d="M912.011,-529.0163C847.7839,-521.3857 755.8739,-507.8322 724.6425,-490 704.8262,-478.6855 688.586,-457.8168 678.5798,-442.5656"/>
<polygon fill="#191970" stroke="#191970" points="681.4494,-440.5532 673.1789,-433.9312 675.5148,-444.2654 681.4494,-440.5532"/>
</g>
<!-- Node36&#45;&gt;Node37 -->
<g id="edge65" class="edge">
<title>Node36&#45;&gt;Node37</title>
<path fill="none" stroke="#191970" d="M971.8492,-470.2455C966.4246,-462.4564 958.6764,-451.3308 952.1392,-441.9439"/>
<polygon fill="#191970" stroke="#191970" points="954.945,-439.8485 946.3579,-433.6427 949.2008,-443.849 954.945,-439.8485"/>
</g>
<!-- Node37&#45;&gt;Node5 -->
<g id="edge67" class="edge">
<title>Node37&#45;&gt;Node5</title>
<path fill="none" stroke="#191970" d="M884.739,-414.4173C843.8878,-406.2161 792.7083,-393.3232 777.6425,-378 754.5901,-354.5538 758.6425,-339.3806 758.6425,-306.5 758.6425,-306.5 758.6425,-306.5 758.6425,-239.5 758.6425,-205.9798 760.1069,-192.8144 782.6425,-168 801.2535,-147.5071 830.7143,-135.6205 853.3693,-129.0839"/>
<polygon fill="#191970" stroke="#191970" points="854.4797,-132.41 863.236,-126.4454 852.6713,-125.6476 854.4797,-132.41"/>
</g>
<!-- Node37&#45;&gt;Node14 -->
<g id="edge66" class="edge">
<title>Node37&#45;&gt;Node14</title>
<path fill="none" stroke="#191970" d="M932.7185,-414.2258C912.3132,-384.1184 856.0143,-290.7932 891.6425,-224 933.7031,-145.1478 977.7373,-149.9621 1058.6425,-112 1114.7999,-85.65 1291.2422,-38.9999 1368.1751,-19.2476"/>
<polygon fill="#191970" stroke="#191970" points="1369.0963,-22.6248 1377.9159,-16.7541 1367.3602,-15.8434 1369.0963,-22.6248"/>
</g>
<!-- Node38 -->
<g id="node38" class="node">
<title>Node38</title>
<polygon fill="none" stroke="#bfbfbf" points="786.6425,-358.5 786.6425,-377.5 872.6425,-377.5 872.6425,-358.5 786.6425,-358.5"/>
<text text-anchor="middle" x="829.6425" y="-365.5" font-family="FreeSans.ttf" font-size="10.00" fill="#000000">ModelExport.h</text>
</g>
<!-- Node37&#45;&gt;Node38 -->
<g id="edge68" class="edge">
<title>Node37&#45;&gt;Node38</title>
<path fill="none" stroke="#191970" d="M920.4819,-414.2455C903.1314,-405.4125 877.3524,-392.2887 857.6842,-382.2758"/>
<polygon fill="#191970" stroke="#191970" points="859.083,-379.0605 848.5834,-377.6427 855.9072,-385.2986 859.083,-379.0605"/>
</g>
<!-- Node39&#45;&gt;Node37 -->
<g id="edge70" class="edge">
<title>Node39&#45;&gt;Node37</title>
<path fill="none" stroke="#191970" d="M1091.1837,-470.3733C1060.6218,-461.021 1014.0598,-446.7725 980.6164,-436.5385"/>
<polygon fill="#191970" stroke="#191970" points="981.2773,-433.0806 970.6908,-433.5011 979.2289,-439.7742 981.2773,-433.0806"/>
</g>
<!-- Node50&#45;&gt;Node5 -->
<g id="edge75" class="edge">
<title>Node50&#45;&gt;Node5</title>
<path fill="none" stroke="#191970" d="M797.8372,-470.3224C770.7994,-453.351 720.6425,-415.4704 720.6425,-368 720.6425,-368 720.6425,-368 720.6425,-239.5 720.6425,-202.4182 735.1606,-191.7455 763.6425,-168 789.7356,-146.246 827.164,-134.189 853.6694,-127.9357"/>
<polygon fill="#191970" stroke="#191970" points="854.5856,-131.3178 863.5952,-125.7432 853.0757,-124.4826 854.5856,-131.3178"/>
</g>
<!-- Node50&#45;&gt;Node7 -->
<g id="edge76" class="edge">
<title>Node50&#45;&gt;Node7</title>
<path fill="none" stroke="#191970" d="M771.7792,-470.4369C722.4179,-459.424 642.3536,-441.5611 597.2701,-431.5026"/>
<polygon fill="#191970" stroke="#191970" points="597.9248,-428.0627 587.4026,-429.3011 596.4005,-434.8947 597.9248,-428.0627"/>
</g>
<!-- Node50&#45;&gt;Node9 -->
<g id="edge77" class="edge">
<title>Node50&#45;&gt;Node9</title>
<path fill="none" stroke="#191970" d="M870.3135,-470.4369C927.0435,-460.6918 1014.9975,-445.5832 1075.0672,-435.2645"/>
<polygon fill="#191970" stroke="#191970" points="1075.938,-438.6662 1085.2011,-433.5237 1074.7529,-431.7673 1075.938,-438.6662"/>
</g>
<!-- Node50&#45;&gt;Node37 -->
<g id="edge78" class="edge">
<title>Node50&#45;&gt;Node37</title>
<path fill="none" stroke="#191970" d="M836.1307,-470.3733C856.2865,-461.3435 886.6305,-447.7494 909.2605,-437.6111"/>
<polygon fill="#191970" stroke="#191970" points="910.7396,-440.7838 918.4346,-433.5011 907.8776,-434.3955 910.7396,-440.7838"/>
</g>
<!-- Node50&#45;&gt;Node51 -->
<g id="edge74" class="edge">
<title>Node50&#45;&gt;Node51</title>
<path fill="none" stroke="#191970" d="M789.3723,-470.3733C765.2459,-461.1822 728.7063,-447.2624 701.9548,-437.0713"/>
<polygon fill="#191970" stroke="#191970" points="703.1738,-433.7904 692.5829,-433.5011 700.6818,-440.3318 703.1738,-433.7904"/>
</g>
<!-- Node52&#45;&gt;Node7 -->
<g id="edge88" class="edge">
<title>Node52&#45;&gt;Node7</title>
<path fill="none" stroke="#191970" d="M533.0874,-470.2455C538.1807,-462.5367 545.4333,-451.5598 551.5945,-442.2348"/>
<polygon fill="#191970" stroke="#191970" points="554.679,-443.9155 557.2714,-433.6427 548.8386,-440.0566 554.679,-443.9155"/>
</g>
<!-- Node52&#45;&gt;Node37 -->
<g id="edge87" class="edge">
<title>Node52&#45;&gt;Node37</title>
<path fill="none" stroke="#191970" d="M597.1704,-470.4369C670.2618,-460.5262 784.266,-445.068 860.4168,-434.7425"/>
<polygon fill="#191970" stroke="#191970" points="860.9988,-438.1957 870.4378,-433.3837 860.0582,-431.2591 860.9988,-438.1957"/>
</g>
<!-- Node53&#45;&gt;Node7 -->
<g id="edge108" class="edge">
<title>Node53&#45;&gt;Node7</title>
<path fill="none" stroke="#191970" d="M680.9523,-638.4998C607.2978,-618.5204 494.8529,-575.2934 443.6425,-490 422.0467,-454.0312 487.2312,-436.2908 529.8269,-428.7387"/>
<polygon fill="#191970" stroke="#191970" points="530.5507,-432.1665 539.8413,-427.0739 529.4027,-425.2613 530.5507,-432.1665"/>
</g>
<!-- Node53&#45;&gt;Node33 -->
<g id="edge90" class="edge">
<title>Node53&#45;&gt;Node33</title>
<path fill="none" stroke="#191970" d="M806.4176,-638.4554C845.4611,-627.9239 896.96,-614.0328 933.4419,-604.1923"/>
<polygon fill="#191970" stroke="#191970" points="934.5672,-607.5139 943.3106,-601.5303 932.7441,-600.7555 934.5672,-607.5139"/>
</g>
<!-- Node54 -->
<g id="node44" class="node">
<title>Node54</title>
<g id="a_node44"><a xlink:href="LinkState_8h.html" target="_top" xlink:title="iDynTree/Model/LinkState.h">
<polygon fill="none" stroke="#000000" points="1354.1425,-470.5 1354.1425,-489.5 1503.1425,-489.5 1503.1425,-470.5 1354.1425,-470.5"/>
<text text-anchor="middle" x="1428.6425" y="-477.5" font-family="FreeSans.ttf" font-size="10.00" fill="#000000">iDynTree/Model/LinkState.h</text>
</a>
</g>
</g>
<!-- Node53&#45;&gt;Node54 -->
<g id="edge91" class="edge">
<title>Node53&#45;&gt;Node54</title>
<path fill="none" stroke="#191970" d="M820.7322,-651.8386C975.1349,-647.5998 1334.4498,-634.3457 1378.6425,-602 1411.7609,-577.7598 1423.015,-527.6296 1426.7858,-499.7655"/>
<polygon fill="#191970" stroke="#191970" points="1430.2844,-499.9781 1427.9558,-489.6423 1423.3307,-499.1743 1430.2844,-499.9781"/>
</g>
<!-- Node54&#45;&gt;Node7 -->
<g id="edge107" class="edge">
<title>Node54&#45;&gt;Node7</title>
<path fill="none" stroke="#191970" d="M1353.8813,-476.4551C1183.9667,-468.2705 772.819,-447.71 634.6425,-434 622.3791,-432.7832 608.9826,-431.012 597.1633,-429.2972"/>
<polygon fill="#191970" stroke="#191970" points="597.6574,-425.8323 587.2507,-427.8201 596.6257,-432.7558 597.6574,-425.8323"/>
</g>
<!-- Node54&#45;&gt;Node9 -->
<g id="edge92" class="edge">
<title>Node54&#45;&gt;Node9</title>
<path fill="none" stroke="#191970" d="M1379.4608,-470.4369C1329.654,-460.7522 1252.6039,-445.7703 1199.5636,-435.4569"/>
<polygon fill="#191970" stroke="#191970" points="1200.1056,-431.9968 1189.6214,-433.5237 1198.7694,-438.8681 1200.1056,-431.9968"/>
</g>
<!-- Node54&#45;&gt;Node37 -->
<g id="edge106" class="edge">
<title>Node54&#45;&gt;Node37</title>
<path fill="none" stroke="#191970" d="M1354.1079,-471.4643C1263.6542,-461.1056 1111.7738,-443.7124 1019.1396,-433.104"/>
<polygon fill="#191970" stroke="#191970" points="1019.3112,-429.6008 1008.9779,-431.9403 1018.5148,-436.5554 1019.3112,-429.6008"/>
</g>
<!-- Node43 -->
<g id="node45" class="node">
<title>Node43</title>
<g id="a_node45"><a xlink:href="Twist_8h.html" target="_top" xlink:title="iDynTree/Core/Twist.h">
<polygon fill="none" stroke="#000000" points="1278.6425,-414.5 1278.6425,-433.5 1400.6425,-433.5 1400.6425,-414.5 1278.6425,-414.5"/>
<text text-anchor="middle" x="1339.6425" y="-421.5" font-family="FreeSans.ttf" font-size="10.00" fill="#000000">iDynTree/Core/Twist.h</text>
</a>
</g>
</g>
<!-- Node54&#45;&gt;Node43 -->
<g id="edge93" class="edge">
<title>Node54&#45;&gt;Node43</title>
<path fill="none" stroke="#191970" d="M1413.1399,-470.2455C1399.4845,-461.6534 1379.3768,-449.0014 1363.6436,-439.1018"/>
<polygon fill="#191970" stroke="#191970" points="1365.2954,-436.006 1354.9674,-433.6427 1361.5674,-441.9307 1365.2954,-436.006"/>
</g>
<!-- Node48 -->
<g id="node47" class="node">
<title>Node48</title>
<g id="a_node47"><a xlink:href="SpatialAcc_8h.html" target="_top" xlink:title="iDynTree/Core/SpatialAcc.h">
<polygon fill="none" stroke="#000000" points="1316.6425,-358.5 1316.6425,-377.5 1464.6425,-377.5 1464.6425,-358.5 1316.6425,-358.5"/>
<text text-anchor="middle" x="1390.6425" y="-365.5" font-family="FreeSans.ttf" font-size="10.00" fill="#000000">iDynTree/Core/SpatialAcc.h</text>
</a>
</g>
</g>
<!-- Node54&#45;&gt;Node48 -->
<g id="edge97" class="edge">
<title>Node54&#45;&gt;Node48</title>
<path fill="none" stroke="#191970" d="M1426.2629,-470.4967C1422.9475,-457.5779 1416.5617,-433.8122 1409.6425,-414 1406.5176,-405.0524 1402.5824,-395.3274 1399.105,-387.1339"/>
<polygon fill="#191970" stroke="#191970" points="1402.2263,-385.5339 1395.0406,-377.7482 1395.8027,-388.3156 1402.2263,-385.5339"/>
</g>
<!-- Node49 -->
<g id="node48" class="node">
<title>Node49</title>
<g id="a_node48"><a xlink:href="Wrench_8h.html" target="_top" xlink:title="iDynTree/Core/Wrench.h">
<polygon fill="none" stroke="#000000" points="1483.1425,-358.5 1483.1425,-377.5 1616.1425,-377.5 1616.1425,-358.5 1483.1425,-358.5"/>
<text text-anchor="middle" x="1549.6425" y="-365.5" font-family="FreeSans.ttf" font-size="10.00" fill="#000000">iDynTree/Core/Wrench.h</text>
</a>
</g>
</g>
<!-- Node54&#45;&gt;Node49 -->
<g id="edge99" class="edge">
<title>Node54&#45;&gt;Node49</title>
<path fill="none" stroke="#191970" d="M1438.9589,-470.4509C1459.5867,-451.3574 1506.1368,-408.2697 1531.8097,-384.5063"/>
<polygon fill="#191970" stroke="#191970" points="1534.391,-386.8864 1539.3522,-377.5249 1529.6359,-381.7492 1534.391,-386.8864"/>
</g>
<!-- Node55 -->
<g id="node50" class="node">
<title>Node55</title>
<g id="a_node50"><a xlink:href="ArticulatedBodyInertia_8h.html" target="_top" xlink:title="iDynTree/Core/Articulated\lBodyInertia.h">
<polygon fill="none" stroke="#000000" points="1289.1425,-224.5 1289.1425,-254.5 1430.1425,-254.5 1430.1425,-224.5 1289.1425,-224.5"/>
<text text-anchor="start" x="1297.1425" y="-242.5" font-family="FreeSans.ttf" font-size="10.00" fill="#000000">iDynTree/Core/Articulated</text>
<text text-anchor="middle" x="1359.6425" y="-231.5" font-family="FreeSans.ttf" font-size="10.00" fill="#000000">BodyInertia.h</text>
</a>
</g>
</g>
<!-- Node54&#45;&gt;Node55 -->
<g id="edge103" class="edge">
<title>Node54&#45;&gt;Node55</title>
<path fill="none" stroke="#191970" d="M1369.4266,-470.4607C1329.4818,-462.6782 1281.9018,-450.3088 1269.6425,-434 1227.6189,-378.0953 1295.8287,-299.4267 1335.0495,-261.5629"/>
<polygon fill="#191970" stroke="#191970" points="1337.6026,-263.9658 1342.4659,-254.553 1332.7943,-258.8785 1337.6026,-263.9658"/>
</g>
<!-- Node44 -->
<g id="node46" class="node">
<title>Node44</title>
<g id="a_node46"><a xlink:href="SpatialMotionVector_8h.html" target="_top" xlink:title="iDynTree/Core/SpatialMotion\lVector.h">
<polygon fill="none" stroke="#ff0000" points="1350.1425,-291.5 1350.1425,-321.5 1505.1425,-321.5 1505.1425,-291.5 1350.1425,-291.5"/>
<text text-anchor="start" x="1358.1425" y="-309.5" font-family="FreeSans.ttf" font-size="10.00" fill="#000000">iDynTree/Core/SpatialMotion</text>
<text text-anchor="middle" x="1427.6425" y="-298.5" font-family="FreeSans.ttf" font-size="10.00" fill="#000000">Vector.h</text>
</a>
</g>
</g>
<!-- Node43&#45;&gt;Node44 -->
<g id="edge94" class="edge">
<title>Node43&#45;&gt;Node44</title>
<path fill="none" stroke="#191970" d="M1328.6074,-414.1749C1315.0594,-400.8913 1295.3096,-376.7136 1307.6425,-358 1317.1847,-343.521 1331.7373,-333.0967 1347.4544,-325.5967"/>
<polygon fill="#191970" stroke="#191970" points="1349.0499,-328.7192 1356.814,-321.5101 1346.2489,-322.304 1349.0499,-328.7192"/>
</g>
<!-- Node44&#45;&gt;Node12 -->
<g id="edge95" class="edge">
<title>Node44&#45;&gt;Node12</title>
<path fill="none" stroke="#191970" d="M1490.3035,-291.415C1511.2965,-283.6099 1533.2514,-272.0169 1548.6425,-255 1563.0506,-239.0699 1568.809,-214.5835 1571.1104,-197.5147"/>
<polygon fill="#191970" stroke="#191970" points="1574.5945,-197.8497 1572.1797,-187.5337 1567.6343,-197.104 1574.5945,-197.8497"/>
</g>
<!-- Node44&#45;&gt;Node28 -->
<g id="edge96" class="edge">
<title>Node44&#45;&gt;Node28</title>
<path fill="none" stroke="#191970" d="M1484.8695,-291.4639C1530.6821,-279.4269 1594.0978,-262.7647 1636.6529,-251.5835"/>
<polygon fill="#191970" stroke="#191970" points="1637.6834,-254.9317 1646.4656,-249.0053 1635.9045,-248.1615 1637.6834,-254.9317"/>
</g>
<!-- Node48&#45;&gt;Node44 -->
<g id="edge98" class="edge">
<title>Node48&#45;&gt;Node44</title>
<path fill="none" stroke="#191970" d="M1396.4237,-358.3906C1400.9676,-350.838 1407.4955,-339.9876 1413.4084,-330.1593"/>
<polygon fill="#191970" stroke="#191970" points="1416.4351,-331.9177 1418.5913,-321.5446 1410.4369,-328.309 1416.4351,-331.9177"/>
</g>
<!-- Node47 -->
<g id="node49" class="node">
<title>Node47</title>
<g id="a_node49"><a xlink:href="SpatialForceVector_8h.html" target="_top" xlink:title="iDynTree/Core/SpatialForce\lVector.h">
<polygon fill="none" stroke="#ff0000" points="1710.6425,-291.5 1710.6425,-321.5 1858.6425,-321.5 1858.6425,-291.5 1710.6425,-291.5"/>
<text text-anchor="start" x="1718.6425" y="-309.5" font-family="FreeSans.ttf" font-size="10.00" fill="#000000">iDynTree/Core/SpatialForce</text>
<text text-anchor="middle" x="1784.6425" y="-298.5" font-family="FreeSans.ttf" font-size="10.00" fill="#000000">Vector.h</text>
</a>
</g>
</g>
<!-- Node49&#45;&gt;Node47 -->
<g id="edge100" class="edge">
<title>Node49&#45;&gt;Node47</title>
<path fill="none" stroke="#191970" d="M1586.1034,-358.4581C1621.0277,-349.3183 1674.5752,-335.3048 1717.2621,-324.1336"/>
<polygon fill="#191970" stroke="#191970" points="1718.2377,-327.4962 1727.0257,-321.5784 1716.4654,-320.7243 1718.2377,-327.4962"/>
</g>
<!-- Node47&#45;&gt;Node12 -->
<g id="edge101" class="edge">
<title>Node47&#45;&gt;Node12</title>
<path fill="none" stroke="#191970" d="M1787.3151,-291.2935C1789.6045,-272.9361 1790.2885,-242.2604 1773.6425,-224 1758.3923,-207.2709 1709.154,-195.8442 1663.2315,-188.5638"/>
<polygon fill="#191970" stroke="#191970" points="1663.6053,-185.0803 1653.191,-187.0277 1662.5466,-191.9998 1663.6053,-185.0803"/>
</g>
<!-- Node47&#45;&gt;Node28 -->
<g id="edge102" class="edge">
<title>Node47&#45;&gt;Node28</title>
<path fill="none" stroke="#191970" d="M1761.7517,-291.4639C1745.0999,-280.526 1722.6342,-265.769 1705.8983,-254.7759"/>
<polygon fill="#191970" stroke="#191970" points="1707.5431,-251.6688 1697.2634,-249.1039 1703.7,-257.5195 1707.5431,-251.6688"/>
</g>
<!-- Node55&#45;&gt;Node5 -->
<g id="edge105" class="edge">
<title>Node55&#45;&gt;Node5</title>
<path fill="none" stroke="#191970" d="M1289.0242,-225.0895C1224.1677,-211.7332 1135.7453,-193.1715 1119.6425,-188 1098.417,-181.1833 1094.7683,-175.1194 1073.6425,-168 1019.9424,-149.9031 955.4068,-135.6866 917.6163,-128.0916"/>
<polygon fill="#191970" stroke="#191970" points="918.1874,-124.6368 907.6979,-126.1273 916.8274,-131.5035 918.1874,-124.6368"/>
</g>
<!-- Node55&#45;&gt;Node30 -->
<g id="edge104" class="edge">
<title>Node55&#45;&gt;Node30</title>
<path fill="none" stroke="#191970" d="M1322.7037,-224.4554C1297.8405,-214.329 1265.3506,-201.0964 1241.4089,-191.3453"/>
<polygon fill="#191970" stroke="#191970" points="1242.6237,-188.0609 1232.0421,-187.5303 1239.9832,-194.5438 1242.6237,-188.0609"/>
</g>
</g>
</svg>
