<?xml version="1.0" encoding="UTF-8" standalone="no"?>
<!DOCTYPE svg PUBLIC "-//W3C//DTD SVG 1.1//EN"
 "http://www.w3.org/Graphics/SVG/1.1/DTD/svg11.dtd">
<!-- Generated by graphviz version 2.40.1 (20161225.0304)
 -->
<!-- Title: ForwardKinematics.cpp Pages: 1 -->
<svg width="1700pt" height="811pt"
 viewBox="0.00 0.00 1700.42 811.00" xmlns="http://www.w3.org/2000/svg" xmlns:xlink="http://www.w3.org/1999/xlink">
<g id="graph0" class="graph" transform="scale(1 1) rotate(0) translate(4 807)">
<title>ForwardKinematics.cpp</title>
<!-- Node0 -->
<g id="node1" class="node">
<title>Node0</title>
<polygon fill="#bfbfbf" stroke="#000000" points="1038.0968,-783.5 1038.0968,-802.5 1169.0968,-802.5 1169.0968,-783.5 1038.0968,-783.5"/>
<text text-anchor="middle" x="1103.5968" y="-790.5" font-family="FreeSans.ttf" font-size="10.00" fill="#000000">ForwardKinematics.cpp</text>
</g>
<!-- Node1 -->
<g id="node2" class="node">
<title>Node1</title>
<g id="a_node2"><a xlink:href="ForwardKinematics_8h.html" target="_top" xlink:title="iDynTree/Model/ForwardKinematics.h">
<polygon fill="none" stroke="#000000" points="776.0968,-727.5 776.0968,-746.5 973.0968,-746.5 973.0968,-727.5 776.0968,-727.5"/>
<text text-anchor="middle" x="874.5968" y="-734.5" font-family="FreeSans.ttf" font-size="10.00" fill="#000000">iDynTree/Model/ForwardKinematics.h</text>
</a>
</g>
</g>
<!-- Node0&#45;&gt;Node1 -->
<g id="edge1" class="edge">
<title>Node0&#45;&gt;Node1</title>
<path fill="none" stroke="#191970" d="M1064.4905,-783.4369C1025.4636,-773.8932 965.4003,-759.2052 923.3006,-748.9101"/>
<polygon fill="#191970" stroke="#191970" points="924.087,-745.4993 913.5418,-746.5237 922.4242,-752.299 924.087,-745.4993"/>
</g>
<!-- Node6 -->
<g id="node7" class="node">
<title>Node6</title>
<g id="a_node7"><a xlink:href="Model_8h.html" target="_top" xlink:title="iDynTree/Model/Model.h">
<polygon fill="none" stroke="#000000" points="1037.0968,-727.5 1037.0968,-746.5 1170.0968,-746.5 1170.0968,-727.5 1037.0968,-727.5"/>
<text text-anchor="middle" x="1103.5968" y="-734.5" font-family="FreeSans.ttf" font-size="10.00" fill="#000000">iDynTree/Model/Model.h</text>
</a>
</g>
</g>
<!-- Node0&#45;&gt;Node6 -->
<g id="edge6" class="edge">
<title>Node0&#45;&gt;Node6</title>
<path fill="none" stroke="#191970" d="M1103.5968,-783.2455C1103.5968,-775.9382 1103.5968,-765.6944 1103.5968,-756.7046"/>
<polygon fill="#191970" stroke="#191970" points="1107.0969,-756.6426 1103.5968,-746.6427 1100.0969,-756.6427 1107.0969,-756.6426"/>
</g>
<!-- Node45 -->
<g id="node45" class="node">
<title>Node45</title>
<g id="a_node45"><a xlink:href="Traversal_8h.html" target="_top" xlink:title="iDynTree/Model/Traversal.h">
<polygon fill="none" stroke="#000000" points="1279.5968,-604.5 1279.5968,-623.5 1427.5968,-623.5 1427.5968,-604.5 1279.5968,-604.5"/>
<text text-anchor="middle" x="1353.5968" y="-611.5" font-family="FreeSans.ttf" font-size="10.00" fill="#000000">iDynTree/Model/Traversal.h</text>
</a>
</g>
</g>
<!-- Node0&#45;&gt;Node45 -->
<g id="edge90" class="edge">
<title>Node0&#45;&gt;Node45</title>
<path fill="none" stroke="#191970" d="M1120.2829,-783.4122C1135.6838,-774.4121 1159.0564,-760.3688 1178.5968,-747 1236.4612,-707.4113 1301.4059,-656.1428 1333.464,-630.3502"/>
<polygon fill="#191970" stroke="#191970" points="1336.0182,-632.7865 1341.6008,-623.7817 1331.6212,-627.3397 1336.0182,-632.7865"/>
</g>
<!-- Node46 -->
<g id="node46" class="node">
<title>Node46</title>
<g id="a_node46"><a xlink:href="FreeFloatingState_8h.html" target="_top" xlink:title="iDynTree/Model/FreeFloating\lState.h">
<polygon fill="none" stroke="#000000" points="1363.5968,-660.5 1363.5968,-690.5 1517.5968,-690.5 1517.5968,-660.5 1363.5968,-660.5"/>
<text text-anchor="start" x="1371.5968" y="-678.5" font-family="FreeSans.ttf" font-size="10.00" fill="#000000">iDynTree/Model/FreeFloating</text>
<text text-anchor="middle" x="1440.5968" y="-667.5" font-family="FreeSans.ttf" font-size="10.00" fill="#000000">State.h</text>
</a>
</g>
</g>
<!-- Node0&#45;&gt;Node46 -->
<g id="edge93" class="edge">
<title>Node0&#45;&gt;Node46</title>
<path fill="none" stroke="#191970" d="M1169.2817,-786.7787C1216.404,-780.6796 1280.6562,-768.9621 1333.5968,-747 1363.7056,-734.5095 1394.2494,-713.0326 1414.953,-696.8692"/>
<polygon fill="#191970" stroke="#191970" points="1417.2767,-699.4931 1422.9232,-690.5284 1412.9186,-694.0152 1417.2767,-699.4931"/>
</g>
<!-- Node48 -->
<g id="node48" class="node">
<title>Node48</title>
<g id="a_node48"><a xlink:href="LinkState_8h.html" target="_top" xlink:title="iDynTree/Model/LinkState.h">
<polygon fill="none" stroke="#000000" points="665.0968,-604.5 665.0968,-623.5 814.0968,-623.5 814.0968,-604.5 665.0968,-604.5"/>
<text text-anchor="middle" x="739.5968" y="-611.5" font-family="FreeSans.ttf" font-size="10.00" fill="#000000">iDynTree/Model/LinkState.h</text>
</a>
</g>
</g>
<!-- Node0&#45;&gt;Node48 -->
<g id="edge116" class="edge">
<title>Node0&#45;&gt;Node48</title>
<path fill="none" stroke="#191970" d="M1037.8588,-787.8347C945.652,-780.02 786.8478,-764.2611 766.5968,-747 733.8427,-719.0817 734.0843,-663.2906 736.9107,-633.617"/>
<polygon fill="#191970" stroke="#191970" points="740.3931,-633.9697 738.0571,-623.6356 733.4388,-633.1709 740.3931,-633.9697"/>
</g>
<!-- Node2 -->
<g id="node3" class="node">
<title>Node2</title>
<g id="a_node3"><a xlink:href="Indices_8h.html" target="_top" xlink:title="iDynTree/Model/Indices.h">
<polygon fill="none" stroke="#000000" points="960.5968,-543 960.5968,-562 1098.5968,-562 1098.5968,-543 960.5968,-543"/>
<text text-anchor="middle" x="1029.5968" y="-550" font-family="FreeSans.ttf" font-size="10.00" fill="#000000">iDynTree/Model/Indices.h</text>
</a>
</g>
</g>
<!-- Node1&#45;&gt;Node2 -->
<g id="edge2" class="edge">
<title>Node1&#45;&gt;Node2</title>
<path fill="none" stroke="#191970" d="M814.1684,-727.4142C792.9814,-720.8314 771.317,-709.7281 758.5968,-691 750.8556,-679.6026 751.2526,-671.6572 758.5968,-660 766.2792,-647.8059 862.2371,-609.4069 875.5968,-604 912.8539,-588.9214 956.3767,-574.6649 987.6308,-564.9914"/>
<polygon fill="#191970" stroke="#191970" points="988.7908,-568.2966 997.3237,-562.0165 986.7369,-561.6047 988.7908,-568.2966"/>
</g>
<!-- Node3 -->
<g id="node4" class="node">
<title>Node3</title>
<polygon fill="none" stroke="#bfbfbf" points="304.0968,-.5 304.0968,-19.5 357.0968,-19.5 357.0968,-.5 304.0968,-.5"/>
<text text-anchor="middle" x="330.5968" y="-7.5" font-family="FreeSans.ttf" font-size="10.00" fill="#000000">cstddef</text>
</g>
<!-- Node2&#45;&gt;Node3 -->
<g id="edge3" class="edge">
<title>Node2&#45;&gt;Node3</title>
<path fill="none" stroke="#191970" d="M960.281,-544.8111C933.8074,-542.0617 903.3274,-539.1219 875.5968,-537 723.3875,-525.353 335.6441,-545.424 189.5968,-501 125.7163,-481.5691 60.5968,-490.7703 60.5968,-424 60.5968,-424 60.5968,-424 60.5968,-122 60.5968,-72.0777 220.0731,-32.7368 293.898,-17.1996"/>
<polygon fill="#191970" stroke="#191970" points="294.638,-20.6207 303.7211,-15.1666 293.2192,-13.766 294.638,-20.6207"/>
</g>
<!-- Node4 -->
<g id="node5" class="node">
<title>Node4</title>
<polygon fill="none" stroke="#bfbfbf" points="1091.5968,-112.5 1091.5968,-131.5 1135.5968,-131.5 1135.5968,-112.5 1091.5968,-112.5"/>
<text text-anchor="middle" x="1113.5968" y="-119.5" font-family="FreeSans.ttf" font-size="10.00" fill="#000000">string</text>
</g>
<!-- Node2&#45;&gt;Node4 -->
<g id="edge4" class="edge">
<title>Node2&#45;&gt;Node4</title>
<path fill="none" stroke="#191970" d="M1078.8298,-542.9881C1117.9186,-534.5341 1173.4753,-520.4846 1219.5968,-501 1281.4555,-474.8671 1349.5968,-491.1523 1349.5968,-424 1349.5968,-424 1349.5968,-424 1349.5968,-239.5 1349.5968,-149.5364 1210.4697,-128.4527 1145.8599,-123.5119"/>
<polygon fill="#191970" stroke="#191970" points="1146.0136,-120.0144 1135.7991,-122.8278 1145.5386,-126.9983 1146.0136,-120.0144"/>
</g>
<!-- Node5 -->
<g id="node6" class="node">
<title>Node5</title>
<polygon fill="none" stroke="#bfbfbf" points="986.5968,-476 986.5968,-495 1072.5968,-495 1072.5968,-476 986.5968,-476"/>
<text text-anchor="middle" x="1029.5968" y="-483" font-family="FreeSans.ttf" font-size="10.00" fill="#000000">ModelExport.h</text>
</g>
<!-- Node2&#45;&gt;Node5 -->
<g id="edge5" class="edge">
<title>Node2&#45;&gt;Node5</title>
<path fill="none" stroke="#191970" d="M1029.5968,-542.9005C1029.5968,-533.149 1029.5968,-517.7597 1029.5968,-505.3695"/>
<polygon fill="#191970" stroke="#191970" points="1033.0969,-505.0816 1029.5968,-495.0817 1026.0969,-505.0817 1033.0969,-505.0816"/>
</g>
<!-- Node6&#45;&gt;Node2 -->
<g id="edge81" class="edge">
<title>Node6&#45;&gt;Node2</title>
<path fill="none" stroke="#191970" d="M1040.4188,-727.4368C999.3525,-719.7818 951.1858,-707.5787 938.5968,-691 906.1158,-648.2251 969.3962,-594.1861 1006.0483,-568.0569"/>
<polygon fill="#191970" stroke="#191970" points="1008.4991,-570.6163 1014.7184,-562.039 1004.5076,-564.8658 1008.4991,-570.6163"/>
</g>
<!-- Node7 -->
<g id="node8" class="node">
<title>Node7</title>
<g id="a_node8"><a xlink:href="IJoint_8h.html" target="_top" xlink:title="iDynTree/Model/IJoint.h">
<polygon fill="none" stroke="#000000" points="947.5968,-666 947.5968,-685 1075.5968,-685 1075.5968,-666 947.5968,-666"/>
<text text-anchor="middle" x="1011.5968" y="-673" font-family="FreeSans.ttf" font-size="10.00" fill="#000000">iDynTree/Model/IJoint.h</text>
</a>
</g>
</g>
<!-- Node6&#45;&gt;Node7 -->
<g id="edge7" class="edge">
<title>Node6&#45;&gt;Node7</title>
<path fill="none" stroke="#191970" d="M1089.2218,-727.3906C1074.5037,-717.5519 1051.4136,-702.1167 1034.2379,-690.6351"/>
<polygon fill="#191970" stroke="#191970" points="1036.1295,-687.6896 1025.8709,-685.0419 1032.2393,-693.5091 1036.1295,-687.6896"/>
</g>
<!-- Node8 -->
<g id="node9" class="node">
<title>Node8</title>
<g id="a_node9"><a xlink:href="Link_8h.html" target="_top" xlink:title="iDynTree/Model/Link.h">
<polygon fill="none" stroke="#000000" points="767.5968,-666 767.5968,-685 891.5968,-685 891.5968,-666 767.5968,-666"/>
<text text-anchor="middle" x="829.5968" y="-673" font-family="FreeSans.ttf" font-size="10.00" fill="#000000">iDynTree/Model/Link.h</text>
</a>
</g>
</g>
<!-- Node6&#45;&gt;Node8 -->
<g id="edge9" class="edge">
<title>Node6&#45;&gt;Node8</title>
<path fill="none" stroke="#191970" d="M1061.0849,-727.4581C1012.89,-716.6406 934.2778,-698.9959 882.2439,-687.3168"/>
<polygon fill="#191970" stroke="#191970" points="882.7322,-683.8394 872.2084,-685.0643 881.1991,-690.6694 882.7322,-683.8394"/>
</g>
<!-- Node41 -->
<g id="node41" class="node">
<title>Node41</title>
<g id="a_node41"><a xlink:href="Transform_8h.html" target="_top" xlink:title="iDynTree/Core/Transform.h">
<polygon fill="none" stroke="#000000" points="1044.5968,-414.5 1044.5968,-433.5 1190.5968,-433.5 1190.5968,-414.5 1044.5968,-414.5"/>
<text text-anchor="middle" x="1117.5968" y="-421.5" font-family="FreeSans.ttf" font-size="10.00" fill="#000000">iDynTree/Core/Transform.h</text>
</a>
</g>
</g>
<!-- Node6&#45;&gt;Node41 -->
<g id="edge76" class="edge">
<title>Node6&#45;&gt;Node41</title>
<path fill="none" stroke="#191970" d="M1170.2137,-734.9352C1306.508,-729.0225 1608.6801,-706.6622 1659.5968,-624 1711.0248,-540.5077 1594.8557,-500.308 1501.5968,-470 1447.4563,-452.405 1296.5568,-437.9366 1200.8369,-430.1726"/>
<polygon fill="#191970" stroke="#191970" points="1200.8488,-426.6624 1190.6008,-429.3508 1200.2886,-433.64 1200.8488,-426.6624"/>
</g>
<!-- Node42 -->
<g id="node42" class="node">
<title>Node42</title>
<g id="a_node42"><a xlink:href="SolidShapes_8h.html" target="_top" xlink:title="iDynTree/Model/SolidShapes.h">
<polygon fill="none" stroke="#000000" points="1060.0968,-604.5 1060.0968,-623.5 1223.0968,-623.5 1223.0968,-604.5 1060.0968,-604.5"/>
<text text-anchor="middle" x="1141.5968" y="-611.5" font-family="FreeSans.ttf" font-size="10.00" fill="#000000">iDynTree/Model/SolidShapes.h</text>
</a>
</g>
</g>
<!-- Node6&#45;&gt;Node42 -->
<g id="edge82" class="edge">
<title>Node6&#45;&gt;Node42</title>
<path fill="none" stroke="#191970" d="M1106.5786,-727.3484C1112.8219,-707.1397 1127.3722,-660.0427 1135.6179,-633.3528"/>
<polygon fill="#191970" stroke="#191970" points="1139.0211,-634.1943 1138.6289,-623.6068 1132.333,-632.1281 1139.0211,-634.1943"/>
</g>
<!-- Node43 -->
<g id="node43" class="node">
<title>Node43</title>
<polygon fill="none" stroke="#bfbfbf" points="1117.0968,-543 1117.0968,-562 1166.0968,-562 1166.0968,-543 1117.0968,-543"/>
<text text-anchor="middle" x="1141.5968" y="-550" font-family="FreeSans.ttf" font-size="10.00" fill="#000000">cstdlib</text>
</g>
<!-- Node6&#45;&gt;Node43 -->
<g id="edge88" class="edge">
<title>Node6&#45;&gt;Node43</title>
<path fill="none" stroke="#191970" d="M1102.8125,-727.4315C1101.2367,-712.2889 1096.7292,-682.2411 1084.5968,-660 1070.6532,-634.4387 1035.9299,-629.1532 1050.5968,-604 1054.1847,-597.8468 1087.5775,-579.8811 1112.8808,-566.8998"/>
<polygon fill="#191970" stroke="#191970" points="1114.7804,-569.8602 1122.1035,-562.2037 1111.604,-563.6224 1114.7804,-569.8602"/>
</g>
<!-- Node44 -->
<g id="node44" class="node">
<title>Node44</title>
<polygon fill="none" stroke="#bfbfbf" points="1321.0968,-543 1321.0968,-562 1368.0968,-562 1368.0968,-543 1321.0968,-543"/>
<text text-anchor="middle" x="1344.5968" y="-550" font-family="FreeSans.ttf" font-size="10.00" fill="#000000">vector</text>
</g>
<!-- Node6&#45;&gt;Node44 -->
<g id="edge89" class="edge">
<title>Node6&#45;&gt;Node44</title>
<path fill="none" stroke="#191970" d="M1115.1368,-727.3839C1141.9753,-705.1146 1210.8535,-648.5069 1270.5968,-604 1287.4361,-591.4552 1306.9486,-577.9153 1321.7079,-567.8684"/>
<polygon fill="#191970" stroke="#191970" points="1323.9007,-570.6105 1330.2171,-562.1043 1319.9749,-564.815 1323.9007,-570.6105"/>
</g>
<!-- Node7&#45;&gt;Node2 -->
<g id="edge8" class="edge">
<title>Node7&#45;&gt;Node2</title>
<path fill="none" stroke="#191970" d="M1001.9611,-665.8794C989.5232,-652.2372 970.4985,-626.4326 979.5968,-604 985.3445,-589.8284 997.0715,-577.4093 1007.7243,-568.3189"/>
<polygon fill="#191970" stroke="#191970" points="1009.9364,-571.0314 1015.5444,-562.0425 1005.5548,-565.5723 1009.9364,-571.0314"/>
</g>
<!-- Node8&#45;&gt;Node2 -->
<g id="edge75" class="edge">
<title>Node8&#45;&gt;Node2</title>
<path fill="none" stroke="#191970" d="M837.332,-665.9765C849.8832,-651.0406 876.0678,-621.962 903.5968,-604 929.4555,-587.1278 961.7398,-574.063 987.155,-565.3142"/>
<polygon fill="#191970" stroke="#191970" points="988.5094,-568.5518 996.8819,-562.0595 986.2881,-561.9136 988.5094,-568.5518"/>
</g>
<!-- Node9 -->
<g id="node10" class="node">
<title>Node9</title>
<g id="a_node10"><a xlink:href="SpatialInertia_8h.html" target="_top" xlink:title="iDynTree/Core/SpatialInertia.h">
<polygon fill="none" stroke="#000000" points="399.5968,-604.5 399.5968,-623.5 561.5968,-623.5 561.5968,-604.5 399.5968,-604.5"/>
<text text-anchor="middle" x="480.5968" y="-611.5" font-family="FreeSans.ttf" font-size="10.00" fill="#000000">iDynTree/Core/SpatialInertia.h</text>
</a>
</g>
</g>
<!-- Node8&#45;&gt;Node9 -->
<g id="edge10" class="edge">
<title>Node8&#45;&gt;Node9</title>
<path fill="none" stroke="#191970" d="M775.4485,-665.9581C713.0753,-654.9668 610.7039,-636.9272 544.4866,-625.2585"/>
<polygon fill="#191970" stroke="#191970" points="545.0407,-621.8023 534.585,-623.5137 543.8258,-628.6961 545.0407,-621.8023"/>
</g>
<!-- Node10 -->
<g id="node11" class="node">
<title>Node10</title>
<g id="a_node11"><a xlink:href="SpatialInertiaRaw_8h.html" target="_top" xlink:title="iDynTree/Core/SpatialInertia\lRaw.h">
<polygon fill="none" stroke="#000000" points="573.0968,-537.5 573.0968,-567.5 726.0968,-567.5 726.0968,-537.5 573.0968,-537.5"/>
<text text-anchor="start" x="581.0968" y="-555.5" font-family="FreeSans.ttf" font-size="10.00" fill="#000000">iDynTree/Core/SpatialInertia</text>
<text text-anchor="middle" x="649.5968" y="-544.5" font-family="FreeSans.ttf" font-size="10.00" fill="#000000">Raw.h</text>
</a>
</g>
</g>
<!-- Node9&#45;&gt;Node10 -->
<g id="edge11" class="edge">
<title>Node9&#45;&gt;Node10</title>
<path fill="none" stroke="#191970" d="M507.003,-604.3906C531.4635,-595.4893 568.5117,-582.0073 598.714,-571.0165"/>
<polygon fill="#191970" stroke="#191970" points="600.0545,-574.2533 608.2547,-567.5446 597.6607,-567.6753 600.0545,-574.2533"/>
</g>
<!-- Node28 -->
<g id="node28" class="node">
<title>Node28</title>
<g id="a_node28"><a xlink:href="VectorFixSize_8h.html" target="_top" xlink:title="iDynTree/Core/VectorFixSize.h">
<polygon fill="none" stroke="#000000" points="384.0968,-168.5 384.0968,-187.5 545.0968,-187.5 545.0968,-168.5 384.0968,-168.5"/>
<text text-anchor="middle" x="464.5968" y="-175.5" font-family="FreeSans.ttf" font-size="10.00" fill="#000000">iDynTree/Core/VectorFixSize.h</text>
</a>
</g>
</g>
<!-- Node9&#45;&gt;Node28 -->
<g id="edge35" class="edge">
<title>Node9&#45;&gt;Node28</title>
<path fill="none" stroke="#191970" d="M399.5882,-611.2667C279.308,-606.363 65.0602,-594.0505 41.5968,-568 -73.474,-440.2417 71.8181,-313.5515 218.5968,-224 244.4112,-208.2503 314.8835,-196.0281 373.8171,-188.1537"/>
<polygon fill="#191970" stroke="#191970" points="374.4576,-191.5998 383.9185,-186.8309 373.5486,-184.659 374.4576,-191.5998"/>
</g>
<!-- Node29 -->
<g id="node29" class="node">
<title>Node29</title>
<g id="a_node29"><a xlink:href="Twist_8h.html" target="_top" xlink:title="iDynTree/Core/Twist.h">
<polygon fill="none" stroke="#000000" points="744.5968,-543 744.5968,-562 866.5968,-562 866.5968,-543 744.5968,-543"/>
<text text-anchor="middle" x="805.5968" y="-550" font-family="FreeSans.ttf" font-size="10.00" fill="#000000">iDynTree/Core/Twist.h</text>
</a>
</g>
</g>
<!-- Node9&#45;&gt;Node29 -->
<g id="edge43" class="edge">
<title>Node9&#45;&gt;Node29</title>
<path fill="none" stroke="#191970" d="M536.6999,-604.4332C588.2406,-595.5035 666.6982,-581.5553 734.5968,-568 740.6864,-566.7843 747.0589,-565.4631 753.3804,-564.1219"/>
<polygon fill="#191970" stroke="#191970" points="754.1808,-567.5299 763.2242,-562.0102 752.7125,-560.6856 754.1808,-567.5299"/>
</g>
<!-- Node37 -->
<g id="node37" class="node">
<title>Node37</title>
<g id="a_node37"><a xlink:href="SpatialMomentum_8h.html" target="_top" xlink:title="iDynTree/Core/SpatialMomentum.h">
<polygon fill="none" stroke="#000000" points="50.5968,-543 50.5968,-562 236.5968,-562 236.5968,-543 50.5968,-543"/>
<text text-anchor="middle" x="143.5968" y="-550" font-family="FreeSans.ttf" font-size="10.00" fill="#000000">iDynTree/Core/SpatialMomentum.h</text>
</a>
</g>
</g>
<!-- Node9&#45;&gt;Node37 -->
<g id="edge66" class="edge">
<title>Node9&#45;&gt;Node37</title>
<path fill="none" stroke="#191970" d="M428.3103,-604.4581C368.2054,-593.4894 269.6361,-575.5012 205.6841,-563.8305"/>
<polygon fill="#191970" stroke="#191970" points="206.1946,-560.3659 195.7287,-562.0137 204.9378,-567.2522 206.1946,-560.3659"/>
</g>
<!-- Node39 -->
<g id="node39" class="node">
<title>Node39</title>
<g id="a_node39"><a xlink:href="SpatialAcc_8h.html" target="_top" xlink:title="iDynTree/Core/SpatialAcc.h">
<polygon fill="none" stroke="#000000" points="406.5968,-543 406.5968,-562 554.5968,-562 554.5968,-543 406.5968,-543"/>
<text text-anchor="middle" x="480.5968" y="-550" font-family="FreeSans.ttf" font-size="10.00" fill="#000000">iDynTree/Core/SpatialAcc.h</text>
</a>
</g>
</g>
<!-- Node9&#45;&gt;Node39 -->
<g id="edge71" class="edge">
<title>Node9&#45;&gt;Node39</title>
<path fill="none" stroke="#191970" d="M480.5968,-604.3906C480.5968,-595.8657 480.5968,-583.1392 480.5968,-572.4235"/>
<polygon fill="#191970" stroke="#191970" points="484.0969,-572.2448 480.5968,-562.2449 477.0969,-572.2449 484.0969,-572.2448"/>
</g>
<!-- Node40 -->
<g id="node40" class="node">
<title>Node40</title>
<g id="a_node40"><a xlink:href="Wrench_8h.html" target="_top" xlink:title="iDynTree/Core/Wrench.h">
<polygon fill="none" stroke="#000000" points="255.0968,-543 255.0968,-562 388.0968,-562 388.0968,-543 255.0968,-543"/>
<text text-anchor="middle" x="321.5968" y="-550" font-family="FreeSans.ttf" font-size="10.00" fill="#000000">iDynTree/Core/Wrench.h</text>
</a>
</g>
</g>
<!-- Node9&#45;&gt;Node40 -->
<g id="edge73" class="edge">
<title>Node9&#45;&gt;Node40</title>
<path fill="none" stroke="#191970" d="M455.753,-604.3906C428.9161,-594.0103 385.9735,-577.4004 355.9215,-565.7766"/>
<polygon fill="#191970" stroke="#191970" points="356.8554,-562.3851 346.2661,-562.0419 354.3301,-568.9138 356.8554,-562.3851"/>
</g>
<!-- Node11 -->
<g id="node12" class="node">
<title>Node11</title>
<g id="a_node12"><a xlink:href="RotationalInertiaRaw_8h.html" target="_top" xlink:title="iDynTree/Core/Rotational\lInertiaRaw.h">
<polygon fill="none" stroke="#000000" points="602.0968,-347.5 602.0968,-377.5 739.0968,-377.5 739.0968,-347.5 602.0968,-347.5"/>
<text text-anchor="start" x="610.0968" y="-365.5" font-family="FreeSans.ttf" font-size="10.00" fill="#000000">iDynTree/Core/Rotational</text>
<text text-anchor="middle" x="670.5968" y="-354.5" font-family="FreeSans.ttf" font-size="10.00" fill="#000000">InertiaRaw.h</text>
</a>
</g>
</g>
<!-- Node10&#45;&gt;Node11 -->
<g id="edge12" class="edge">
<title>Node10&#45;&gt;Node11</title>
<path fill="none" stroke="#191970" d="M651.2798,-537.2727C654.8906,-504.6039 663.4105,-427.5184 667.8298,-387.5352"/>
<polygon fill="#191970" stroke="#191970" points="671.3151,-387.8601 668.9349,-377.5361 664.3574,-387.091 671.3151,-387.8601"/>
</g>
<!-- Node12 -->
<g id="node13" class="node">
<title>Node12</title>
<g id="a_node13"><a xlink:href="MatrixFixSize_8h.html" target="_top" xlink:title="iDynTree/Core/MatrixFixSize.h">
<polygon fill="none" stroke="#000000" points="686.0968,-168.5 686.0968,-187.5 847.0968,-187.5 847.0968,-168.5 686.0968,-168.5"/>
<text text-anchor="middle" x="766.5968" y="-175.5" font-family="FreeSans.ttf" font-size="10.00" fill="#000000">iDynTree/Core/MatrixFixSize.h</text>
</a>
</g>
</g>
<!-- Node11&#45;&gt;Node12 -->
<g id="edge13" class="edge">
<title>Node11&#45;&gt;Node12</title>
<path fill="none" stroke="#191970" d="M665.381,-347.3197C657.0653,-320.1772 644.096,-262.566 668.5968,-224 678.5462,-208.339 695.395,-197.9161 712.3428,-191.0202"/>
<polygon fill="#191970" stroke="#191970" points="713.5659,-194.2996 721.7252,-187.5412 711.1321,-187.7363 713.5659,-194.2996"/>
</g>
<!-- Node12&#45;&gt;Node4 -->
<g id="edge32" class="edge">
<title>Node12&#45;&gt;Node4</title>
<path fill="none" stroke="#191970" d="M825.8539,-168.4369C899.6559,-156.5265 1023.1039,-136.604 1081.333,-127.2068"/>
<polygon fill="#191970" stroke="#191970" points="1082.1054,-130.6276 1091.42,-125.579 1080.9901,-123.717 1082.1054,-130.6276"/>
</g>
<!-- Node13 -->
<g id="node14" class="node">
<title>Node13</title>
<g id="a_node14"><a xlink:href="Utils_8h.html" target="_top" xlink:title="iDynTree/Core/Utils.h">
<polygon fill="none" stroke="#ff0000" points="315.0968,-56.5 315.0968,-75.5 434.0968,-75.5 434.0968,-56.5 315.0968,-56.5"/>
<text text-anchor="middle" x="374.5968" y="-63.5" font-family="FreeSans.ttf" font-size="10.00" fill="#000000">iDynTree/Core/Utils.h</text>
</a>
</g>
</g>
<!-- Node12&#45;&gt;Node13 -->
<g id="edge14" class="edge">
<title>Node12&#45;&gt;Node13</title>
<path fill="none" stroke="#191970" d="M761.4162,-168.4291C752.8139,-153.5732 734.0782,-125.2933 709.5968,-112 665.165,-87.8737 528.8637,-75.3888 444.4357,-69.802"/>
<polygon fill="#191970" stroke="#191970" points="444.6111,-66.3062 434.4064,-69.1546 444.1601,-73.2916 444.6111,-66.3062"/>
</g>
<!-- Node15 -->
<g id="node15" class="node">
<title>Node15</title>
<g id="a_node15"><a xlink:href="MatrixView_8h.html" target="_top" xlink:title="iDynTree/Core/MatrixView.h">
<polygon fill="none" stroke="#000000" points="795.0968,-112.5 795.0968,-131.5 946.0968,-131.5 946.0968,-112.5 795.0968,-112.5"/>
<text text-anchor="middle" x="870.5968" y="-119.5" font-family="FreeSans.ttf" font-size="10.00" fill="#000000">iDynTree/Core/MatrixView.h</text>
</a>
</g>
</g>
<!-- Node12&#45;&gt;Node15 -->
<g id="edge16" class="edge">
<title>Node12&#45;&gt;Node15</title>
<path fill="none" stroke="#191970" d="M784.7122,-168.2455C801.0418,-159.4527 825.2678,-146.4079 843.8307,-136.4125"/>
<polygon fill="#191970" stroke="#191970" points="845.5436,-139.4654 852.689,-131.6427 842.2249,-133.3021 845.5436,-139.4654"/>
</g>
<!-- Node16 -->
<g id="node16" class="node">
<title>Node16</title>
<polygon fill="none" stroke="#bfbfbf" points="619.5968,-.5 619.5968,-19.5 671.5968,-19.5 671.5968,-.5 619.5968,-.5"/>
<text text-anchor="middle" x="645.5968" y="-7.5" font-family="FreeSans.ttf" font-size="10.00" fill="#000000">cassert</text>
</g>
<!-- Node12&#45;&gt;Node16 -->
<g id="edge30" class="edge">
<title>Node12&#45;&gt;Node16</title>
<path fill="none" stroke="#191970" d="M763.1821,-168.1297C758.3355,-154.7949 748.6913,-130.5593 736.5968,-112 715.0741,-78.9728 683.1676,-45.8604 663.415,-26.6793"/>
<polygon fill="#191970" stroke="#191970" points="665.6452,-23.969 656.0017,-19.5811 660.804,-29.025 665.6452,-23.969"/>
</g>
<!-- Node25 -->
<g id="node25" class="node">
<title>Node25</title>
<polygon fill="none" stroke="#bfbfbf" points="572.5968,-112.5 572.5968,-131.5 622.5968,-131.5 622.5968,-112.5 572.5968,-112.5"/>
<text text-anchor="middle" x="597.5968" y="-119.5" font-family="FreeSans.ttf" font-size="10.00" fill="#000000">cstring</text>
</g>
<!-- Node12&#45;&gt;Node25 -->
<g id="edge31" class="edge">
<title>Node12&#45;&gt;Node25</title>
<path fill="none" stroke="#191970" d="M737.5447,-168.3733C708.3355,-158.6945 663.3004,-143.7716 632.2466,-133.4816"/>
<polygon fill="#191970" stroke="#191970" points="633.2866,-130.1391 622.6933,-130.316 631.0848,-136.7838 633.2866,-130.1391"/>
</g>
<!-- Node26 -->
<g id="node26" class="node">
<title>Node26</title>
<polygon fill="none" stroke="#bfbfbf" points="640.5968,-112.5 640.5968,-131.5 700.5968,-131.5 700.5968,-112.5 640.5968,-112.5"/>
<text text-anchor="middle" x="670.5968" y="-119.5" font-family="FreeSans.ttf" font-size="10.00" fill="#000000">iostream</text>
</g>
<!-- Node12&#45;&gt;Node26 -->
<g id="edge33" class="edge">
<title>Node12&#45;&gt;Node26</title>
<path fill="none" stroke="#191970" d="M749.8749,-168.2455C735.0079,-159.5731 713.0502,-146.7645 696.011,-136.825"/>
<polygon fill="#191970" stroke="#191970" points="697.5285,-133.6582 687.1271,-131.6427 694.0013,-139.7047 697.5285,-133.6582"/>
</g>
<!-- Node27 -->
<g id="node27" class="node">
<title>Node27</title>
<polygon fill="none" stroke="#bfbfbf" points="498.5968,-112.5 498.5968,-131.5 554.5968,-131.5 554.5968,-112.5 498.5968,-112.5"/>
<text text-anchor="middle" x="526.5968" y="-119.5" font-family="FreeSans.ttf" font-size="10.00" fill="#000000">sstream</text>
</g>
<!-- Node12&#45;&gt;Node27 -->
<g id="edge34" class="edge">
<title>Node12&#45;&gt;Node27</title>
<path fill="none" stroke="#191970" d="M722.1202,-168.473C683.0823,-159.9873 624.5364,-146.9632 564.8272,-132.2382"/>
<polygon fill="#191970" stroke="#191970" points="565.3959,-128.7733 554.8474,-129.7636 563.7111,-135.5675 565.3959,-128.7733"/>
</g>
<!-- Node13&#45;&gt;Node3 -->
<g id="edge15" class="edge">
<title>Node13&#45;&gt;Node3</title>
<path fill="none" stroke="#191970" d="M366.9326,-56.2455C360.7495,-48.3761 351.8905,-37.101 344.4679,-27.6542"/>
<polygon fill="#191970" stroke="#191970" points="347.1036,-25.3435 338.1732,-19.6427 341.5993,-29.6683 347.1036,-25.3435"/>
</g>
<!-- Node15&#45;&gt;Node13 -->
<g id="edge29" class="edge">
<title>Node15&#45;&gt;Node13</title>
<path fill="none" stroke="#191970" d="M794.9953,-113.4643C699.5872,-102.6925 536.8038,-84.3137 444.2834,-73.8678"/>
<polygon fill="#191970" stroke="#191970" points="444.5114,-70.3714 434.1819,-72.7273 443.726,-77.3272 444.5114,-70.3714"/>
</g>
<!-- Node15&#45;&gt;Node16 -->
<g id="edge17" class="edge">
<title>Node15&#45;&gt;Node16</title>
<path fill="none" stroke="#191970" d="M859.9563,-112.4994C843.8088,-98.4927 811.6951,-72.2129 780.5968,-56 763.1863,-46.9232 715.5362,-31.4384 681.7957,-20.9688"/>
<polygon fill="#191970" stroke="#191970" points="682.4073,-17.4948 671.8199,-17.8932 680.3449,-24.1841 682.4073,-17.4948"/>
</g>
<!-- Node17 -->
<g id="node17" class="node">
<title>Node17</title>
<polygon fill="none" stroke="#bfbfbf" points="1113.0968,-.5 1113.0968,-19.5 1182.0968,-19.5 1182.0968,-.5 1113.0968,-.5"/>
<text text-anchor="middle" x="1147.5968" y="-7.5" font-family="FreeSans.ttf" font-size="10.00" fill="#000000">type_traits</text>
</g>
<!-- Node15&#45;&gt;Node17 -->
<g id="edge18" class="edge">
<title>Node15&#45;&gt;Node17</title>
<path fill="none" stroke="#191970" d="M894.2137,-112.4509C943.5826,-92.4895 1057.8114,-46.3031 1114.4811,-23.3897"/>
<polygon fill="#191970" stroke="#191970" points="1116.0808,-26.5183 1124.0397,-19.5249 1113.4569,-20.0287 1116.0808,-26.5183"/>
</g>
<!-- Node18 -->
<g id="node18" class="node">
<title>Node18</title>
<g id="a_node18"><a xlink:href="Span_8h.html" target="_top" xlink:title="iDynTree/Core/Span.h">
<polygon fill="none" stroke="#000000" points="833.0968,-56.5 833.0968,-75.5 954.0968,-75.5 954.0968,-56.5 833.0968,-56.5"/>
<text text-anchor="middle" x="893.5968" y="-63.5" font-family="FreeSans.ttf" font-size="10.00" fill="#000000">iDynTree/Core/Span.h</text>
</a>
</g>
</g>
<!-- Node15&#45;&gt;Node18 -->
<g id="edge19" class="edge">
<title>Node15&#45;&gt;Node18</title>
<path fill="none" stroke="#191970" d="M874.6031,-112.2455C877.6703,-104.7776 881.9971,-94.2427 885.7465,-85.1137"/>
<polygon fill="#191970" stroke="#191970" points="889.0747,-86.2226 889.6364,-75.6427 882.5996,-83.5631 889.0747,-86.2226"/>
</g>
<!-- Node18&#45;&gt;Node3 -->
<g id="edge23" class="edge">
<title>Node18&#45;&gt;Node3</title>
<path fill="none" stroke="#191970" d="M833.0787,-59.9804C716.0545,-48.3404 461.9383,-23.0642 367.1864,-13.6395"/>
<polygon fill="#191970" stroke="#191970" points="367.5152,-10.155 357.2179,-12.6479 366.8223,-17.1206 367.5152,-10.155"/>
</g>
<!-- Node18&#45;&gt;Node16 -->
<g id="edge20" class="edge">
<title>Node18&#45;&gt;Node16</title>
<path fill="none" stroke="#191970" d="M845.1685,-56.4845C804.0589,-48.1945 743.3009,-35.4447 681.7951,-20.1905"/>
<polygon fill="#191970" stroke="#191970" points="682.4706,-16.7518 671.9202,-17.7211 680.7724,-23.5427 682.4706,-16.7518"/>
</g>
<!-- Node18&#45;&gt;Node17 -->
<g id="edge27" class="edge">
<title>Node18&#45;&gt;Node17</title>
<path fill="none" stroke="#191970" d="M937.4597,-56.4966C977.8841,-47.7147 1039.8101,-34.2027 1103.2381,-20.0675"/>
<polygon fill="#191970" stroke="#191970" points="1104.0174,-23.4798 1113.0154,-17.8863 1102.4932,-16.6477 1104.0174,-23.4798"/>
</g>
<!-- Node19 -->
<g id="node19" class="node">
<title>Node19</title>
<polygon fill="none" stroke="#bfbfbf" points="970.5968,-.5 970.5968,-19.5 1034.5968,-19.5 1034.5968,-.5 970.5968,-.5"/>
<text text-anchor="middle" x="1002.5968" y="-7.5" font-family="FreeSans.ttf" font-size="10.00" fill="#000000">algorithm</text>
</g>
<!-- Node18&#45;&gt;Node19 -->
<g id="edge21" class="edge">
<title>Node18&#45;&gt;Node19</title>
<path fill="none" stroke="#191970" d="M912.5831,-56.2455C929.776,-47.4125 955.3206,-34.2887 974.81,-24.2758"/>
<polygon fill="#191970" stroke="#191970" points="976.5327,-27.3257 983.828,-19.6427 973.3338,-21.0993 976.5327,-27.3257"/>
</g>
<!-- Node20 -->
<g id="node20" class="node">
<title>Node20</title>
<polygon fill="none" stroke="#bfbfbf" points="1052.5968,-.5 1052.5968,-19.5 1094.5968,-19.5 1094.5968,-.5 1052.5968,-.5"/>
<text text-anchor="middle" x="1073.5968" y="-7.5" font-family="FreeSans.ttf" font-size="10.00" fill="#000000">array</text>
</g>
<!-- Node18&#45;&gt;Node20 -->
<g id="edge22" class="edge">
<title>Node18&#45;&gt;Node20</title>
<path fill="none" stroke="#191970" d="M925.5616,-56.4418C953.9577,-47.8969 996.8243,-34.8666 1042.5221,-20.2968"/>
<polygon fill="#191970" stroke="#191970" points="1043.8539,-23.5455 1052.3123,-17.1654 1041.7214,-16.8783 1043.8539,-23.5455"/>
</g>
<!-- Node21 -->
<g id="node21" class="node">
<title>Node21</title>
<polygon fill="none" stroke="#bfbfbf" points="690.0968,-.5 690.0968,-19.5 743.0968,-19.5 743.0968,-.5 690.0968,-.5"/>
<text text-anchor="middle" x="716.5968" y="-7.5" font-family="FreeSans.ttf" font-size="10.00" fill="#000000">iterator</text>
</g>
<!-- Node18&#45;&gt;Node21 -->
<g id="edge24" class="edge">
<title>Node18&#45;&gt;Node21</title>
<path fill="none" stroke="#191970" d="M863.1694,-56.3733C832.5347,-46.6809 785.2785,-31.7298 752.7502,-21.4384"/>
<polygon fill="#191970" stroke="#191970" points="753.7528,-18.0846 743.1628,-18.4051 751.6412,-24.7586 753.7528,-18.0846"/>
</g>
<!-- Node22 -->
<g id="node22" class="node">
<title>Node22</title>
<polygon fill="none" stroke="#bfbfbf" points="761.5968,-.5 761.5968,-19.5 805.5968,-19.5 805.5968,-.5 761.5968,-.5"/>
<text text-anchor="middle" x="783.5968" y="-7.5" font-family="FreeSans.ttf" font-size="10.00" fill="#000000">limits</text>
</g>
<!-- Node18&#45;&gt;Node22 -->
<g id="edge25" class="edge">
<title>Node18&#45;&gt;Node22</title>
<path fill="none" stroke="#191970" d="M874.4363,-56.2455C857.0857,-47.4125 831.3067,-34.2887 811.6385,-24.2758"/>
<polygon fill="#191970" stroke="#191970" points="813.0373,-21.0605 802.5378,-19.6427 809.8615,-27.2986 813.0373,-21.0605"/>
</g>
<!-- Node23 -->
<g id="node23" class="node">
<title>Node23</title>
<polygon fill="none" stroke="#bfbfbf" points="824.0968,-.5 824.0968,-19.5 889.0968,-19.5 889.0968,-.5 824.0968,-.5"/>
<text text-anchor="middle" x="856.5968" y="-7.5" font-family="FreeSans.ttf" font-size="10.00" fill="#000000">stdexcept</text>
</g>
<!-- Node18&#45;&gt;Node23 -->
<g id="edge26" class="edge">
<title>Node18&#45;&gt;Node23</title>
<path fill="none" stroke="#191970" d="M887.1519,-56.2455C882.0586,-48.5367 874.806,-37.5598 868.6448,-28.2348"/>
<polygon fill="#191970" stroke="#191970" points="871.4006,-26.0566 862.9678,-19.6427 865.5603,-29.9155 871.4006,-26.0566"/>
</g>
<!-- Node24 -->
<g id="node24" class="node">
<title>Node24</title>
<polygon fill="none" stroke="#bfbfbf" points="907.0968,-.5 907.0968,-19.5 952.0968,-19.5 952.0968,-.5 907.0968,-.5"/>
<text text-anchor="middle" x="929.5968" y="-7.5" font-family="FreeSans.ttf" font-size="10.00" fill="#000000">utility</text>
</g>
<!-- Node18&#45;&gt;Node24 -->
<g id="edge28" class="edge">
<title>Node18&#45;&gt;Node24</title>
<path fill="none" stroke="#191970" d="M899.8675,-56.2455C904.8232,-48.5367 911.8798,-37.5598 917.8744,-28.2348"/>
<polygon fill="#191970" stroke="#191970" points="920.9344,-29.9471 923.3979,-19.6427 915.0462,-26.1618 920.9344,-29.9471"/>
</g>
<!-- Node28&#45;&gt;Node3 -->
<g id="edge41" class="edge">
<title>Node28&#45;&gt;Node3</title>
<path fill="none" stroke="#191970" d="M433.8746,-168.4866C395.8539,-154.8644 332.8083,-125.7858 305.5968,-76 297.1126,-60.4773 306.1493,-41.4714 315.6431,-27.8482"/>
<polygon fill="#191970" stroke="#191970" points="318.519,-29.8481 321.7684,-19.7638 312.9396,-25.6208 318.519,-29.8481"/>
</g>
<!-- Node28&#45;&gt;Node4 -->
<g id="edge38" class="edge">
<title>Node28&#45;&gt;Node4</title>
<path fill="none" stroke="#191970" d="M545.1541,-171.049C688.7966,-158.6546 983.2639,-133.246 1081.152,-124.7995"/>
<polygon fill="#191970" stroke="#191970" points="1081.6516,-128.2695 1091.3137,-123.9227 1081.0498,-121.2955 1081.6516,-128.2695"/>
</g>
<!-- Node28&#45;&gt;Node13 -->
<g id="edge36" class="edge">
<title>Node28&#45;&gt;Node13</title>
<path fill="none" stroke="#191970" d="M453.7599,-168.3174C444.0302,-159.3648 429.6237,-145.4506 418.5968,-132 406.2318,-116.9171 394.0816,-98.323 385.6928,-84.7188"/>
<polygon fill="#191970" stroke="#191970" points="388.4748,-82.556 380.3001,-75.8163 382.4877,-86.1828 388.4748,-82.556"/>
</g>
<!-- Node28&#45;&gt;Node16 -->
<g id="edge40" class="edge">
<title>Node28&#45;&gt;Node16</title>
<path fill="none" stroke="#191970" d="M463.0528,-168.1519C461.4352,-154.4096 460.4749,-129.2329 471.5968,-112 503.61,-62.3967 568.9267,-33.8884 609.7949,-20.2041"/>
<polygon fill="#191970" stroke="#191970" points="610.9282,-23.5162 619.373,-17.118 608.7814,-16.8535 610.9282,-23.5162"/>
</g>
<!-- Node28&#45;&gt;Node18 -->
<g id="edge37" class="edge">
<title>Node28&#45;&gt;Node18</title>
<path fill="none" stroke="#191970" d="M465.2434,-168.0758C466.7844,-153.2736 471.9941,-125.6909 489.5968,-112 515.3051,-92.0047 713.8974,-76.9329 822.7543,-70.0772"/>
<polygon fill="#191970" stroke="#191970" points="823.2366,-73.554 832.9999,-69.4395 822.8017,-66.5675 823.2366,-73.554"/>
</g>
<!-- Node28&#45;&gt;Node25 -->
<g id="edge42" class="edge">
<title>Node28&#45;&gt;Node25</title>
<path fill="none" stroke="#191970" d="M487.4603,-168.3733C509.0018,-159.3032 541.4806,-145.6279 565.5924,-135.4755"/>
<polygon fill="#191970" stroke="#191970" points="567.1735,-138.6075 575.0316,-131.5011 564.457,-132.156 567.1735,-138.6075"/>
</g>
<!-- Node28&#45;&gt;Node27 -->
<g id="edge39" class="edge">
<title>Node28&#45;&gt;Node27</title>
<path fill="none" stroke="#191970" d="M475.3964,-168.2455C484.4646,-160.0549 497.6174,-148.1749 508.3213,-138.5069"/>
<polygon fill="#191970" stroke="#191970" points="510.8459,-140.9429 515.921,-131.6427 506.1539,-135.7482 510.8459,-140.9429"/>
</g>
<!-- Node30 -->
<g id="node30" class="node">
<title>Node30</title>
<g id="a_node30"><a xlink:href="SpatialMotionVector_8h.html" target="_top" xlink:title="iDynTree/Core/SpatialMotion\lVector.h">
<polygon fill="none" stroke="#000000" points="403.0968,-470.5 403.0968,-500.5 558.0968,-500.5 558.0968,-470.5 403.0968,-470.5"/>
<text text-anchor="start" x="411.0968" y="-488.5" font-family="FreeSans.ttf" font-size="10.00" fill="#000000">iDynTree/Core/SpatialMotion</text>
<text text-anchor="middle" x="480.5968" y="-477.5" font-family="FreeSans.ttf" font-size="10.00" fill="#000000">Vector.h</text>
</a>
</g>
</g>
<!-- Node29&#45;&gt;Node30 -->
<g id="edge44" class="edge">
<title>Node29&#45;&gt;Node30</title>
<path fill="none" stroke="#191970" d="M762.4405,-542.9709C753.2554,-540.973 743.6094,-538.8973 734.5968,-537 678.5762,-525.2065 615.4985,-512.4145 566.2167,-502.5298"/>
<polygon fill="#191970" stroke="#191970" points="566.7271,-499.0626 556.2344,-500.5295 565.3517,-505.9261 566.7271,-499.0626"/>
</g>
<!-- Node30&#45;&gt;Node28 -->
<g id="edge45" class="edge">
<title>Node30&#45;&gt;Node28</title>
<path fill="none" stroke="#191970" d="M484.037,-470.444C489.0044,-447.3503 497.5968,-401.734 497.5968,-362.5 497.5968,-362.5 497.5968,-362.5 497.5968,-301 497.5968,-263.0591 482.7683,-220.7146 472.9914,-196.9189"/>
<polygon fill="#191970" stroke="#191970" points="476.1828,-195.4796 469.0473,-187.6479 469.7414,-198.22 476.1828,-195.4796"/>
</g>
<!-- Node31 -->
<g id="node31" class="node">
<title>Node31</title>
<g id="a_node31"><a xlink:href="GeomVector3_8h.html" target="_top" xlink:title="iDynTree/Core/GeomVector3.h">
<polygon fill="none" stroke="#000000" points="306.0968,-230 306.0968,-249 469.0968,-249 469.0968,-230 306.0968,-230"/>
<text text-anchor="middle" x="387.5968" y="-237" font-family="FreeSans.ttf" font-size="10.00" fill="#000000">iDynTree/Core/GeomVector3.h</text>
</a>
</g>
</g>
<!-- Node30&#45;&gt;Node31 -->
<g id="edge46" class="edge">
<title>Node30&#45;&gt;Node31</title>
<path fill="none" stroke="#191970" d="M402.6418,-473.1788C358.9922,-464.5142 310.7491,-451.3645 297.5968,-434 253.3197,-375.5425 330.567,-291.8092 368.461,-256.3699"/>
<polygon fill="#191970" stroke="#191970" points="371.2956,-258.5206 376.3139,-249.1896 366.572,-253.3546 371.2956,-258.5206"/>
</g>
<!-- Node32 -->
<g id="node32" class="node">
<title>Node32</title>
<g id="a_node32"><a xlink:href="SpatialVector_8h.html" target="_top" xlink:title="iDynTree/Core/SpatialVector.h">
<polygon fill="none" stroke="#000000" points="307.0968,-414.5 307.0968,-433.5 468.0968,-433.5 468.0968,-414.5 307.0968,-414.5"/>
<text text-anchor="middle" x="387.5968" y="-421.5" font-family="FreeSans.ttf" font-size="10.00" fill="#000000">iDynTree/Core/SpatialVector.h</text>
</a>
</g>
</g>
<!-- Node30&#45;&gt;Node32 -->
<g id="edge48" class="edge">
<title>Node30&#45;&gt;Node32</title>
<path fill="none" stroke="#191970" d="M457.608,-470.2977C443.4002,-460.9022 425.2183,-448.8787 410.9443,-439.4395"/>
<polygon fill="#191970" stroke="#191970" points="412.4813,-436.2598 402.2095,-433.6633 408.6201,-442.0986 412.4813,-436.2598"/>
</g>
<!-- Node31&#45;&gt;Node28 -->
<g id="edge47" class="edge">
<title>Node31&#45;&gt;Node28</title>
<path fill="none" stroke="#191970" d="M399.628,-229.8906C411.6075,-220.3227 430.2134,-205.4621 444.4493,-194.0919"/>
<polygon fill="#191970" stroke="#191970" points="447.0207,-196.5175 452.65,-187.5419 442.6521,-191.0479 447.0207,-196.5175"/>
</g>
<!-- Node32&#45;&gt;Node13 -->
<g id="edge62" class="edge">
<title>Node32&#45;&gt;Node13</title>
<path fill="none" stroke="#191970" d="M365.4816,-414.4013C349.7294,-406.5894 329.0478,-394.2091 315.5968,-378 279.5951,-334.6162 286.6064,-311.3403 284.5968,-255 284.1057,-241.231 281.0696,-237.3186 284.5968,-224 299.4008,-168.1011 339.0979,-111.3035 360.4852,-83.5126"/>
<polygon fill="#191970" stroke="#191970" points="363.315,-85.5758 366.7309,-75.5467 357.8064,-81.2566 363.315,-85.5758"/>
</g>
<!-- Node32&#45;&gt;Node26 -->
<g id="edge64" class="edge">
<title>Node32&#45;&gt;Node26</title>
<path fill="none" stroke="#191970" d="M396.6922,-414.294C437.2773,-370.984 602.1325,-195.0609 654.5283,-139.1473"/>
<polygon fill="#191970" stroke="#191970" points="657.3925,-141.2095 661.6764,-131.5193 652.2846,-136.423 657.3925,-141.2095"/>
</g>
<!-- Node32&#45;&gt;Node27 -->
<g id="edge65" class="edge">
<title>Node32&#45;&gt;Node27</title>
<path fill="none" stroke="#191970" d="M376.7438,-414.2716C345.4984,-385.0443 259.8522,-295.6147 296.5968,-224 332.6583,-153.7166 432.5486,-131.8314 488.0912,-125.039"/>
<polygon fill="#191970" stroke="#191970" points="488.6988,-128.493 498.2486,-123.9048 487.922,-121.5362 488.6988,-128.493"/>
</g>
<!-- Node32&#45;&gt;Node31 -->
<g id="edge63" class="edge">
<title>Node32&#45;&gt;Node31</title>
<path fill="none" stroke="#191970" d="M387.5968,-414.3402C387.5968,-385.3223 387.5968,-298.5088 387.5968,-259.2113"/>
<polygon fill="#191970" stroke="#191970" points="391.0969,-259.0641 387.5968,-249.0641 384.0969,-259.0642 391.0969,-259.0641"/>
</g>
<!-- Node33 -->
<g id="node33" class="node">
<title>Node33</title>
<g id="a_node33"><a xlink:href="Position_8h.html" target="_top" xlink:title="Position.h">
<polygon fill="none" stroke="#000000" points="905.0968,-353 905.0968,-372 970.0968,-372 970.0968,-353 905.0968,-353"/>
<text text-anchor="middle" x="937.5968" y="-360" font-family="FreeSans.ttf" font-size="10.00" fill="#000000">Position.h</text>
</a>
</g>
</g>
<!-- Node32&#45;&gt;Node33 -->
<g id="edge49" class="edge">
<title>Node32&#45;&gt;Node33</title>
<path fill="none" stroke="#191970" d="M468.1605,-414.9915C586.529,-401.7558 803.2961,-377.5173 894.9151,-367.2726"/>
<polygon fill="#191970" stroke="#191970" points="895.3884,-370.7416 904.9375,-366.1519 894.6105,-363.7849 895.3884,-370.7416"/>
</g>
<!-- Node35 -->
<g id="node35" class="node">
<title>Node35</title>
<g id="a_node35"><a xlink:href="Rotation_8h.html" target="_top" xlink:title="iDynTree/Core/Rotation.h">
<polygon fill="none" stroke="#000000" points="772.0968,-291.5 772.0968,-310.5 909.0968,-310.5 909.0968,-291.5 772.0968,-291.5"/>
<text text-anchor="middle" x="840.5968" y="-298.5" font-family="FreeSans.ttf" font-size="10.00" fill="#000000">iDynTree/Core/Rotation.h</text>
</a>
</g>
</g>
<!-- Node32&#45;&gt;Node35 -->
<g id="edge61" class="edge">
<title>Node32&#45;&gt;Node35</title>
<path fill="none" stroke="#191970" d="M409.3194,-414.3869C446.2903,-398.3582 524.1044,-366.0556 592.5968,-347 648.4447,-331.4623 712.8493,-319.6935 762.0273,-311.9505"/>
<polygon fill="#191970" stroke="#191970" points="762.6221,-315.4002 771.9669,-310.4076 761.5483,-308.483 762.6221,-315.4002"/>
</g>
<!-- Node33&#45;&gt;Node4 -->
<g id="edge60" class="edge">
<title>Node33&#45;&gt;Node4</title>
<path fill="none" stroke="#191970" d="M951.1029,-352.9889C983.4026,-329.3798 1064.9916,-264.4481 1099.5968,-188 1106.2385,-173.3275 1109.7844,-155.3763 1111.644,-141.9014"/>
<polygon fill="#191970" stroke="#191970" points="1115.1392,-142.1478 1112.8404,-131.8054 1108.1878,-141.324 1115.1392,-142.1478"/>
</g>
<!-- Node34 -->
<g id="node34" class="node">
<title>Node34</title>
<g id="a_node34"><a xlink:href="PositionRaw_8h.html" target="_top" xlink:title="iDynTree/Core/PositionRaw.h">
<polygon fill="none" stroke="#000000" points="677.5968,-230 677.5968,-249 833.5968,-249 833.5968,-230 677.5968,-230"/>
<text text-anchor="middle" x="755.5968" y="-237" font-family="FreeSans.ttf" font-size="10.00" fill="#000000">iDynTree/Core/PositionRaw.h</text>
</a>
</g>
</g>
<!-- Node33&#45;&gt;Node34 -->
<g id="edge50" class="edge">
<title>Node33&#45;&gt;Node34</title>
<path fill="none" stroke="#191970" d="M937.65,-352.7629C937.1955,-337.5342 934.0708,-308.0618 917.5968,-291 902.6833,-275.5544 852.3892,-261.0296 811.7509,-251.3686"/>
<polygon fill="#191970" stroke="#191970" points="812.4541,-247.9387 801.9209,-249.0802 810.8669,-254.7565 812.4541,-247.9387"/>
</g>
<!-- Node33&#45;&gt;Node35 -->
<g id="edge53" class="edge">
<title>Node33&#45;&gt;Node35</title>
<path fill="none" stroke="#191970" d="M922.4405,-352.8906C906.9225,-343.0519 882.5775,-327.6167 864.4684,-316.1351"/>
<polygon fill="#191970" stroke="#191970" points="865.9663,-312.9407 855.6466,-310.5419 862.2181,-318.8526 865.9663,-312.9407"/>
</g>
<!-- Node34&#45;&gt;Node4 -->
<g id="edge52" class="edge">
<title>Node34&#45;&gt;Node4</title>
<path fill="none" stroke="#191970" d="M784.5902,-229.984C850.773,-208.262 1012.5653,-155.1598 1081.568,-132.5123"/>
<polygon fill="#191970" stroke="#191970" points="1083.0258,-135.7176 1091.4356,-129.2736 1080.8428,-129.0666 1083.0258,-135.7176"/>
</g>
<!-- Node34&#45;&gt;Node28 -->
<g id="edge51" class="edge">
<title>Node34&#45;&gt;Node28</title>
<path fill="none" stroke="#191970" d="M710.4473,-229.9581C659.049,-219.0956 575.0763,-201.3488 519.821,-189.6711"/>
<polygon fill="#191970" stroke="#191970" points="520.3598,-186.2077 509.8522,-187.5643 518.9123,-193.0565 520.3598,-186.2077"/>
</g>
<!-- Node35&#45;&gt;Node4 -->
<g id="edge54" class="edge">
<title>Node35&#45;&gt;Node4</title>
<path fill="none" stroke="#191970" d="M893.6406,-291.4512C938.4288,-282.6428 998.4023,-268.8669 1018.5968,-255 1061.4926,-225.5449 1091.6802,-170.0437 1105.3553,-140.9252"/>
<polygon fill="#191970" stroke="#191970" points="1108.5459,-142.3639 1109.4975,-131.8119 1102.1733,-139.4674 1108.5459,-142.3639"/>
</g>
<!-- Node35&#45;&gt;Node28 -->
<g id="edge59" class="edge">
<title>Node35&#45;&gt;Node28</title>
<path fill="none" stroke="#191970" d="M800.3,-291.4291C765.2317,-282.8141 713.1781,-269.3358 668.5968,-255 607.1348,-235.236 537.0252,-207.6313 497.0681,-191.4045"/>
<polygon fill="#191970" stroke="#191970" points="498.1641,-188.0716 487.5828,-187.5359 495.5205,-194.5533 498.1641,-188.0716"/>
</g>
<!-- Node35&#45;&gt;Node31 -->
<g id="edge55" class="edge">
<title>Node35&#45;&gt;Node31</title>
<path fill="none" stroke="#191970" d="M771.7958,-291.6595C690.1331,-280.5728 554.1757,-262.115 467.8107,-250.39"/>
<polygon fill="#191970" stroke="#191970" points="468.1718,-246.907 457.7918,-249.0298 467.2301,-253.8433 468.1718,-246.907"/>
</g>
<!-- Node36 -->
<g id="node36" class="node">
<title>Node36</title>
<g id="a_node36"><a xlink:href="RotationRaw_8h.html" target="_top" xlink:title="iDynTree/Core/RotationRaw.h">
<polygon fill="none" stroke="#000000" points="851.5968,-230 851.5968,-249 1009.5968,-249 1009.5968,-230 851.5968,-230"/>
<text text-anchor="middle" x="930.5968" y="-237" font-family="FreeSans.ttf" font-size="10.00" fill="#000000">iDynTree/Core/RotationRaw.h</text>
</a>
</g>
</g>
<!-- Node35&#45;&gt;Node36 -->
<g id="edge56" class="edge">
<title>Node35&#45;&gt;Node36</title>
<path fill="none" stroke="#191970" d="M854.6593,-291.3906C868.9254,-281.6421 891.2318,-266.3994 907.984,-254.9521"/>
<polygon fill="#191970" stroke="#191970" points="910.3513,-257.5736 916.633,-249.0419 906.4019,-251.7941 910.3513,-257.5736"/>
</g>
<!-- Node36&#45;&gt;Node4 -->
<g id="edge58" class="edge">
<title>Node36&#45;&gt;Node4</title>
<path fill="none" stroke="#191970" d="M945.5725,-229.8845C977.4204,-209.4356 1052.0731,-161.5029 1090.2367,-136.999"/>
<polygon fill="#191970" stroke="#191970" points="1092.1471,-139.9317 1098.6709,-131.5836 1088.365,-134.0414 1092.1471,-139.9317"/>
</g>
<!-- Node36&#45;&gt;Node12 -->
<g id="edge57" class="edge">
<title>Node36&#45;&gt;Node12</title>
<path fill="none" stroke="#191970" d="M904.9718,-229.8906C877.1705,-219.4652 832.6124,-202.7559 801.5974,-191.1252"/>
<polygon fill="#191970" stroke="#191970" points="802.6341,-187.776 792.0419,-187.5419 800.1762,-194.3303 802.6341,-187.776"/>
</g>
<!-- Node38 -->
<g id="node38" class="node">
<title>Node38</title>
<g id="a_node38"><a xlink:href="SpatialForceVector_8h.html" target="_top" xlink:title="iDynTree/Core/SpatialForce\lVector.h">
<polygon fill="none" stroke="#000000" points="198.5968,-470.5 198.5968,-500.5 346.5968,-500.5 346.5968,-470.5 198.5968,-470.5"/>
<text text-anchor="start" x="206.5968" y="-488.5" font-family="FreeSans.ttf" font-size="10.00" fill="#000000">iDynTree/Core/SpatialForce</text>
<text text-anchor="middle" x="272.5968" y="-477.5" font-family="FreeSans.ttf" font-size="10.00" fill="#000000">Vector.h</text>
</a>
</g>
</g>
<!-- Node37&#45;&gt;Node38 -->
<g id="edge67" class="edge">
<title>Node37&#45;&gt;Node38</title>
<path fill="none" stroke="#191970" d="M162.0794,-542.9005C180.8993,-533.1258 210.6257,-517.6865 234.5106,-505.2812"/>
<polygon fill="#191970" stroke="#191970" points="236.4131,-508.2371 243.6743,-500.5218 233.1866,-502.025 236.4131,-508.2371"/>
</g>
<!-- Node38&#45;&gt;Node28 -->
<g id="edge68" class="edge">
<title>Node38&#45;&gt;Node28</title>
<path fill="none" stroke="#191970" d="M250.7941,-470.3665C223.5884,-449.5092 180.5968,-409.1667 180.5968,-362.5 180.5968,-362.5 180.5968,-362.5 180.5968,-301 180.5968,-251.4834 327.8104,-209.5098 410.2587,-189.885"/>
<polygon fill="#191970" stroke="#191970" points="411.2858,-193.2391 420.2218,-187.5471 409.6866,-186.4242 411.2858,-193.2391"/>
</g>
<!-- Node38&#45;&gt;Node31 -->
<g id="edge69" class="edge">
<title>Node38&#45;&gt;Node31</title>
<path fill="none" stroke="#191970" d="M271.4596,-470.1186C270.0261,-444.1013 269.1757,-390.0373 282.5968,-347 291.1972,-319.421 296.0918,-312.3102 315.5968,-291 328.9158,-276.4482 346.9797,-263.5417 361.6817,-254.2889"/>
<polygon fill="#191970" stroke="#191970" points="363.6119,-257.2114 370.3289,-249.0179 359.9684,-251.2343 363.6119,-257.2114"/>
</g>
<!-- Node38&#45;&gt;Node32 -->
<g id="edge70" class="edge">
<title>Node38&#45;&gt;Node32</title>
<path fill="none" stroke="#191970" d="M300.729,-470.4554C319.0754,-460.644 342.8745,-447.9167 360.9219,-438.2653"/>
<polygon fill="#191970" stroke="#191970" points="362.6082,-441.3326 369.7759,-433.5303 359.3071,-435.1598 362.6082,-441.3326"/>
</g>
<!-- Node39&#45;&gt;Node30 -->
<g id="edge72" class="edge">
<title>Node39&#45;&gt;Node30</title>
<path fill="none" stroke="#191970" d="M480.5968,-542.9005C480.5968,-534.5099 480.5968,-521.9451 480.5968,-510.7085"/>
<polygon fill="#191970" stroke="#191970" points="484.0969,-510.5217 480.5968,-500.5218 477.0969,-510.5218 484.0969,-510.5217"/>
</g>
<!-- Node40&#45;&gt;Node38 -->
<g id="edge74" class="edge">
<title>Node40&#45;&gt;Node38</title>
<path fill="none" stroke="#191970" d="M314.5763,-542.9005C308.0602,-533.9908 298.1022,-520.3748 289.52,-508.6399"/>
<polygon fill="#191970" stroke="#191970" points="292.3112,-506.5274 283.5829,-500.5218 286.661,-510.6596 292.3112,-506.5274"/>
</g>
<!-- Node41&#45;&gt;Node4 -->
<g id="edge80" class="edge">
<title>Node41&#45;&gt;Node4</title>
<path fill="none" stroke="#191970" d="M1138.3144,-414.4737C1194.0316,-387.4769 1339.7112,-307.0253 1291.5968,-224 1260.0853,-169.6244 1187.4485,-141.7485 1145.3492,-129.6747"/>
<polygon fill="#191970" stroke="#191970" points="1146.1679,-126.2701 1135.5986,-127.0044 1144.319,-133.0215 1146.1679,-126.2701"/>
</g>
<!-- Node41&#45;&gt;Node12 -->
<g id="edge79" class="edge">
<title>Node41&#45;&gt;Node12</title>
<path fill="none" stroke="#191970" d="M1115.9109,-414.1111C1109.7326,-381.1265 1085.1175,-274.1355 1018.5968,-224 993.449,-205.0465 919.0078,-192.9859 857.5059,-185.9922"/>
<polygon fill="#191970" stroke="#191970" points="857.6896,-182.4913 847.3655,-184.871 856.9202,-189.4489 857.6896,-182.4913"/>
</g>
<!-- Node41&#45;&gt;Node33 -->
<g id="edge77" class="edge">
<title>Node41&#45;&gt;Node33</title>
<path fill="none" stroke="#191970" d="M1089.4718,-414.3906C1058.694,-403.8749 1009.2047,-386.966 975.1313,-375.3243"/>
<polygon fill="#191970" stroke="#191970" points="976.1188,-371.9631 965.5243,-372.0419 973.8556,-378.5871 976.1188,-371.9631"/>
</g>
<!-- Node41&#45;&gt;Node35 -->
<g id="edge78" class="edge">
<title>Node41&#45;&gt;Node35</title>
<path fill="none" stroke="#191970" d="M1044.593,-414.7134C989.6745,-406.659 919.8774,-393.8189 895.5968,-378 873.7483,-363.7656 857.8489,-337.5803 848.921,-319.7367"/>
<polygon fill="#191970" stroke="#191970" points="852.0265,-318.1168 844.581,-310.5792 845.7009,-321.1147 852.0265,-318.1168"/>
</g>
<!-- Node42&#45;&gt;Node2 -->
<g id="edge87" class="edge">
<title>Node42&#45;&gt;Node2</title>
<path fill="none" stroke="#191970" d="M1124.0968,-604.3906C1105.8503,-594.3713 1077.0344,-578.5483 1056.0162,-567.0071"/>
<polygon fill="#191970" stroke="#191970" points="1057.424,-563.7872 1046.9739,-562.0419 1054.0548,-569.923 1057.424,-563.7872"/>
</g>
<!-- Node42&#45;&gt;Node4 -->
<g id="edge84" class="edge">
<title>Node42&#45;&gt;Node4</title>
<path fill="none" stroke="#191970" d="M1160.4915,-604.373C1218.0955,-574.4011 1387.5968,-481.3365 1387.5968,-424 1387.5968,-424 1387.5968,-424 1387.5968,-239.5 1387.5968,-199.9438 1367.9191,-189.3146 1334.5968,-168 1303.646,-148.2024 1199.4796,-132.7288 1145.9504,-125.8656"/>
<polygon fill="#191970" stroke="#191970" points="1146.3149,-122.3839 1135.9564,-124.609 1145.4416,-129.3292 1146.3149,-122.3839"/>
</g>
<!-- Node42&#45;&gt;Node41 -->
<g id="edge86" class="edge">
<title>Node42&#45;&gt;Node41</title>
<path fill="none" stroke="#191970" d="M1151.246,-604.4346C1159.2468,-595.7723 1170.023,-582.2221 1174.5968,-568 1178.8149,-554.8838 1177.786,-550.4036 1174.5968,-537 1166.0461,-501.0627 1144.143,-463.5919 1130.113,-442.101"/>
<polygon fill="#191970" stroke="#191970" points="1132.94,-440.0321 1124.4704,-433.6667 1127.1219,-443.9244 1132.94,-440.0321"/>
</g>
<!-- Node42&#45;&gt;Node43 -->
<g id="edge83" class="edge">
<title>Node42&#45;&gt;Node43</title>
<path fill="none" stroke="#191970" d="M1141.5968,-604.3906C1141.5968,-595.8657 1141.5968,-583.1392 1141.5968,-572.4235"/>
<polygon fill="#191970" stroke="#191970" points="1145.0969,-572.2448 1141.5968,-562.2449 1138.0969,-572.2449 1145.0969,-572.2448"/>
</g>
<!-- Node42&#45;&gt;Node44 -->
<g id="edge85" class="edge">
<title>Node42&#45;&gt;Node44</title>
<path fill="none" stroke="#191970" d="M1180.6569,-604.4674C1214.3375,-595.9262 1264.1091,-582.5336 1306.5968,-568 1308.5181,-567.3428 1310.4826,-566.6398 1312.4568,-565.9094"/>
<polygon fill="#191970" stroke="#191970" points="1314.1943,-568.9898 1322.2545,-562.1135 1311.6655,-562.4625 1314.1943,-568.9898"/>
</g>
<!-- Node45&#45;&gt;Node2 -->
<g id="edge91" class="edge">
<title>Node45&#45;&gt;Node2</title>
<path fill="none" stroke="#191970" d="M1301.7333,-604.4779C1251.9258,-595.2917 1174.5769,-580.917 1107.5968,-568 1100.9477,-566.7177 1093.9833,-565.3578 1087.0684,-563.9972"/>
<polygon fill="#191970" stroke="#191970" points="1087.504,-560.5156 1077.0153,-562.012 1086.1478,-567.383 1087.504,-560.5156"/>
</g>
<!-- Node45&#45;&gt;Node44 -->
<g id="edge92" class="edge">
<title>Node45&#45;&gt;Node44</title>
<path fill="none" stroke="#191970" d="M1352.1905,-604.3906C1350.943,-595.8657 1349.0806,-583.1392 1347.5124,-572.4235"/>
<polygon fill="#191970" stroke="#191970" points="1350.9341,-571.6326 1346.0229,-562.2449 1344.0078,-572.6463 1350.9341,-571.6326"/>
</g>
<!-- Node46&#45;&gt;Node2 -->
<g id="edge99" class="edge">
<title>Node46&#45;&gt;Node2</title>
<path fill="none" stroke="#191970" d="M1363.1681,-669.7926C1256.2494,-661.2342 1073.8748,-643.9356 1050.5968,-624 1035.7466,-611.2821 1031.1112,-588.6626 1029.8055,-572.264"/>
<polygon fill="#191970" stroke="#191970" points="1033.2944,-571.936 1029.3489,-562.1032 1026.3014,-572.2503 1033.2944,-571.936"/>
</g>
<!-- Node46&#45;&gt;Node29 -->
<g id="edge95" class="edge">
<title>Node46&#45;&gt;Node29</title>
<path fill="none" stroke="#191970" d="M1363.4779,-671.8252C1167.9891,-662.3299 667.6097,-636.8268 655.5968,-624 649.5206,-617.5121 650.4318,-611.2343 655.5968,-604 667.0156,-588.0065 712.337,-573.8369 750.2029,-564.4297"/>
<polygon fill="#191970" stroke="#191970" points="751.2497,-567.7775 760.1461,-562.0239 749.6035,-560.9738 751.2497,-567.7775"/>
</g>
<!-- Node46&#45;&gt;Node41 -->
<g id="edge94" class="edge">
<title>Node46&#45;&gt;Node41</title>
<path fill="none" stroke="#191970" d="M1517.6981,-665.8211C1568.2982,-657.7037 1627.9126,-644.1601 1643.5968,-624 1649.0549,-616.9842 1647.773,-611.8468 1643.5968,-604 1593.5016,-509.8737 1544.1541,-508.179 1444.5968,-470 1401.3688,-453.4226 1282.5246,-439.4526 1200.6855,-431.3987"/>
<polygon fill="#191970" stroke="#191970" points="1200.9384,-427.9068 1190.6465,-430.422 1200.2606,-434.8739 1200.9384,-427.9068"/>
</g>
<!-- Node46&#45;&gt;Node44 -->
<g id="edge115" class="edge">
<title>Node46&#45;&gt;Node44</title>
<path fill="none" stroke="#191970" d="M1443.733,-660.2832C1446.0473,-644.8811 1447.1984,-620.9784 1436.5968,-604 1429.4819,-592.6055 1400.2826,-577.3475 1376.6618,-566.402"/>
<polygon fill="#191970" stroke="#191970" points="1377.8409,-563.0935 1367.2887,-562.1448 1374.9462,-569.4669 1377.8409,-563.0935"/>
</g>
<!-- Node47 -->
<g id="node47" class="node">
<title>Node47</title>
<g id="a_node47"><a xlink:href="VectorDynSize_8h.html" target="_top" xlink:title="iDynTree/Core/VectorDynSize.h">
<polygon fill="none" stroke="#000000" points="1497.0968,-414.5 1497.0968,-433.5 1664.0968,-433.5 1664.0968,-414.5 1497.0968,-414.5"/>
<text text-anchor="middle" x="1580.5968" y="-421.5" font-family="FreeSans.ttf" font-size="10.00" fill="#000000">iDynTree/Core/VectorDynSize.h</text>
</a>
</g>
</g>
<!-- Node46&#45;&gt;Node47 -->
<g id="edge96" class="edge">
<title>Node46&#45;&gt;Node47</title>
<path fill="none" stroke="#191970" d="M1517.7374,-669.0728C1579.0365,-662.1764 1657.6797,-648.7098 1677.5968,-624 1725.8559,-564.128 1640.2112,-476.2826 1599.8845,-440.2903"/>
<polygon fill="#191970" stroke="#191970" points="1602.085,-437.565 1592.2536,-433.6158 1597.4764,-442.8339 1602.085,-437.565"/>
</g>
<!-- Node46&#45;&gt;Node48 -->
<g id="edge100" class="edge">
<title>Node46&#45;&gt;Node48</title>
<path fill="none" stroke="#191970" d="M1363.5723,-668.7425C1231.1986,-657.1291 961.5547,-633.4728 824.1602,-621.4189"/>
<polygon fill="#191970" stroke="#191970" points="824.3657,-617.9236 814.098,-620.5361 823.7539,-624.8968 824.3657,-617.9236"/>
</g>
<!-- Node50 -->
<g id="node50" class="node">
<title>Node50</title>
<g id="a_node50"><a xlink:href="JointState_8h.html" target="_top" xlink:title="iDynTree/Model/JointState.h">
<polygon fill="none" stroke="#000000" points="1484.0968,-604.5 1484.0968,-623.5 1635.0968,-623.5 1635.0968,-604.5 1484.0968,-604.5"/>
<text text-anchor="middle" x="1559.5968" y="-611.5" font-family="FreeSans.ttf" font-size="10.00" fill="#000000">iDynTree/Model/JointState.h</text>
</a>
</g>
</g>
<!-- Node46&#45;&gt;Node50 -->
<g id="edge110" class="edge">
<title>Node46&#45;&gt;Node50</title>
<path fill="none" stroke="#191970" d="M1469.7075,-660.4554C1488.7792,-650.599 1513.545,-637.7999 1532.2507,-628.1327"/>
<polygon fill="#191970" stroke="#191970" points="1533.8792,-631.2309 1541.156,-623.5303 1530.6653,-625.0122 1533.8792,-631.2309"/>
</g>
<!-- Node47&#45;&gt;Node4 -->
<g id="edge98" class="edge">
<title>Node47&#45;&gt;Node4</title>
<path fill="none" stroke="#191970" d="M1558.2493,-414.4183C1522.2949,-397.3218 1455.5968,-357.9338 1455.5968,-301 1455.5968,-301 1455.5968,-301 1455.5968,-239.5 1455.5968,-199.6776 1435.729,-188.514 1401.5968,-168 1358.9451,-142.3657 1212.0074,-128.9776 1146.07,-124.1423"/>
<polygon fill="#191970" stroke="#191970" points="1146.0663,-120.6333 1135.8428,-123.4137 1145.5688,-127.6156 1146.0663,-120.6333"/>
</g>
<!-- Node47&#45;&gt;Node18 -->
<g id="edge97" class="edge">
<title>Node47&#45;&gt;Node18</title>
<path fill="none" stroke="#191970" d="M1576.6857,-414.2989C1568.77,-393.7602 1551.5968,-344.2211 1551.5968,-301 1551.5968,-301 1551.5968,-301 1551.5968,-178 1551.5968,-118.9492 1134.4322,-82.9282 964.4243,-70.7003"/>
<polygon fill="#191970" stroke="#191970" points="964.5438,-67.2 954.3204,-69.9807 964.0465,-74.1823 964.5438,-67.2"/>
</g>
<!-- Node48&#45;&gt;Node2 -->
<g id="edge108" class="edge">
<title>Node48&#45;&gt;Node2</title>
<path fill="none" stroke="#191970" d="M784.5911,-604.4581C835.8128,-593.5956 919.4969,-575.8488 974.5623,-564.1711"/>
<polygon fill="#191970" stroke="#191970" points="975.4406,-567.5628 984.4969,-562.0643 973.9884,-560.7151 975.4406,-567.5628"/>
</g>
<!-- Node48&#45;&gt;Node29 -->
<g id="edge102" class="edge">
<title>Node48&#45;&gt;Node29</title>
<path fill="none" stroke="#191970" d="M749.9093,-604.3906C760.021,-594.9683 775.641,-580.4134 787.7675,-569.1137"/>
<polygon fill="#191970" stroke="#191970" points="790.2088,-571.6228 795.1389,-562.2449 785.4367,-566.5015 790.2088,-571.6228"/>
</g>
<!-- Node48&#45;&gt;Node39 -->
<g id="edge103" class="edge">
<title>Node48&#45;&gt;Node39</title>
<path fill="none" stroke="#191970" d="M699.4122,-604.4581C653.9506,-593.6632 579.8566,-576.0694 530.6695,-564.3899"/>
<polygon fill="#191970" stroke="#191970" points="531.4137,-560.9693 520.8756,-562.0643 529.7965,-567.78 531.4137,-560.9693"/>
</g>
<!-- Node48&#45;&gt;Node40 -->
<g id="edge104" class="edge">
<title>Node48&#45;&gt;Node40</title>
<path fill="none" stroke="#191970" d="M664.9914,-605.4365C595.5611,-597.1189 489.3057,-583.5013 397.5968,-568 390.4766,-566.7965 383.0046,-565.4171 375.6406,-563.9882"/>
<polygon fill="#191970" stroke="#191970" points="376.1984,-560.5308 365.7089,-562.0211 374.8383,-567.3974 376.1984,-560.5308"/>
</g>
<!-- Node48&#45;&gt;Node41 -->
<g id="edge101" class="edge">
<title>Node48&#45;&gt;Node41</title>
<path fill="none" stroke="#191970" d="M783.3686,-604.4285C811.1253,-597.1279 847.0493,-585.3372 875.5968,-568 929.3303,-535.367 923.7219,-502.399 977.5968,-470 1003.4534,-454.4505 1035.1983,-443.4653 1061.9188,-436.139"/>
<polygon fill="#191970" stroke="#191970" points="1063.1145,-439.4434 1071.891,-433.5084 1061.329,-432.675 1063.1145,-439.4434"/>
</g>
<!-- Node48&#45;&gt;Node44 -->
<g id="edge109" class="edge">
<title>Node48&#45;&gt;Node44</title>
<path fill="none" stroke="#191970" d="M814.3885,-606.3972C946.5053,-592.9671 1216.1703,-565.5549 1310.8357,-555.9319"/>
<polygon fill="#191970" stroke="#191970" points="1311.3884,-559.3939 1320.9832,-554.9004 1310.6804,-552.4297 1311.3884,-559.3939"/>
</g>
<!-- Node49 -->
<g id="node49" class="node">
<title>Node49</title>
<g id="a_node49"><a xlink:href="ArticulatedBodyInertia_8h.html" target="_top" xlink:title="iDynTree/Core/Articulated\lBodyInertia.h">
<polygon fill="none" stroke="#000000" points="1142.0968,-224.5 1142.0968,-254.5 1283.0968,-254.5 1283.0968,-224.5 1142.0968,-224.5"/>
<text text-anchor="start" x="1150.0968" y="-242.5" font-family="FreeSans.ttf" font-size="10.00" fill="#000000">iDynTree/Core/Articulated</text>
<text text-anchor="middle" x="1212.5968" y="-231.5" font-family="FreeSans.ttf" font-size="10.00" fill="#000000">BodyInertia.h</text>
</a>
</g>
</g>
<!-- Node48&#45;&gt;Node49 -->
<g id="edge105" class="edge">
<title>Node48&#45;&gt;Node49</title>
<path fill="none" stroke="#191970" d="M793.4864,-604.4899C827.5747,-597.2396 871.9593,-585.4812 908.5968,-568 929.8601,-557.8544 930.3559,-547.1924 951.5968,-537 1072.957,-478.7659 1232.5968,-558.6087 1232.5968,-424 1232.5968,-424 1232.5968,-424 1232.5968,-362.5 1232.5968,-328.2007 1224.9263,-289.2106 1219.0859,-264.4942"/>
<polygon fill="#191970" stroke="#191970" points="1222.4218,-263.4015 1216.6441,-254.5207 1215.6226,-265.0662 1222.4218,-263.4015"/>
</g>
<!-- Node49&#45;&gt;Node4 -->
<g id="edge107" class="edge">
<title>Node49&#45;&gt;Node4</title>
<path fill="none" stroke="#191970" d="M1199.6543,-224.1389C1181.2502,-202.2957 1147.6127,-162.3724 1128.293,-139.4424"/>
<polygon fill="#191970" stroke="#191970" points="1130.7712,-136.9517 1121.6512,-131.5595 1125.418,-141.4621 1130.7712,-136.9517"/>
</g>
<!-- Node49&#45;&gt;Node12 -->
<g id="edge106" class="edge">
<title>Node49&#45;&gt;Node12</title>
<path fill="none" stroke="#191970" d="M1141.9268,-229.7551C1061.3225,-218.6404 929.8568,-200.5123 845.8401,-188.927"/>
<polygon fill="#191970" stroke="#191970" points="846.2204,-185.4464 835.836,-187.5476 845.2641,-192.3808 846.2204,-185.4464"/>
</g>
<!-- Node50&#45;&gt;Node28 -->
<g id="edge111" class="edge">
<title>Node50&#45;&gt;Node28</title>
<path fill="none" stroke="#191970" d="M1544.7954,-604.423C1518.991,-588.1526 1463.6389,-555.1196 1412.5968,-537 1271.1503,-486.7875 1228.9092,-498.7655 1081.5968,-470 864.5498,-427.6176 773.6653,-504.9641 592.5968,-378 527.5036,-332.3571 546.8497,-289.3649 501.5968,-224 494.7712,-214.1409 486.4562,-203.6853 479.4388,-195.2377"/>
<polygon fill="#191970" stroke="#191970" points="482.0811,-192.9418 472.9573,-187.556 476.7311,-197.456 482.0811,-192.9418"/>
</g>
<!-- Node50&#45;&gt;Node38 -->
<g id="edge113" class="edge">
<title>Node50&#45;&gt;Node38</title>
<path fill="none" stroke="#191970" d="M1520.6308,-604.4197C1492.0736,-596.617 1452.8321,-584.24 1420.5968,-568 1399.2331,-557.2371 1399.2648,-544.6427 1376.5968,-537 1273.0295,-502.0815 502.5249,-509.9528 393.5968,-501 381.7239,-500.0242 369.2267,-498.7288 356.9528,-497.3015"/>
<polygon fill="#191970" stroke="#191970" points="357.0591,-493.7893 346.7139,-496.0756 356.2268,-500.7397 357.0591,-493.7893"/>
</g>
<!-- Node50&#45;&gt;Node44 -->
<g id="edge114" class="edge">
<title>Node50&#45;&gt;Node44</title>
<path fill="none" stroke="#191970" d="M1516.2095,-604.4269C1480.0862,-596.052 1427.4911,-582.9163 1382.5968,-568 1380.4542,-567.2881 1378.2599,-566.515 1376.0594,-565.7067"/>
<polygon fill="#191970" stroke="#191970" points="1377.1035,-562.358 1366.5141,-562.0186 1374.5806,-568.8876 1377.1035,-562.358"/>
</g>
<!-- Node50&#45;&gt;Node47 -->
<g id="edge112" class="edge">
<title>Node50&#45;&gt;Node47</title>
<path fill="none" stroke="#191970" d="M1560.6671,-604.3167C1563.9522,-574.5938 1573.9385,-484.242 1578.4014,-443.8634"/>
<polygon fill="#191970" stroke="#191970" points="1581.8837,-444.2157 1579.5035,-433.8917 1574.926,-443.4466 1581.8837,-444.2157"/>
</g>
</g>
</svg>
