<?xml version="1.0" encoding="UTF-8" standalone="no"?>
<!DOCTYPE svg PUBLIC "-//W3C//DTD SVG 1.1//EN"
 "http://www.w3.org/Graphics/SVG/1.1/DTD/svg11.dtd">
<!-- Generated by graphviz version 2.40.1 (20161225.0304)
 -->
<!-- Title: GeometryElement.cpp Pages: 1 -->
<svg width="1520pt" height="532pt"
 viewBox="0.00 0.00 1519.65 532.00" xmlns="http://www.w3.org/2000/svg" xmlns:xlink="http://www.w3.org/1999/xlink">
<g id="graph0" class="graph" transform="scale(1 1) rotate(0) translate(4 528)">
<title>GeometryElement.cpp</title>
<!-- Node0 -->
<g id="node1" class="node">
<title>Node0</title>
<polygon fill="#bfbfbf" stroke="#000000" points="446.5,-504.5 446.5,-523.5 572.5,-523.5 572.5,-504.5 446.5,-504.5"/>
<text text-anchor="middle" x="509.5" y="-511.5" font-family="FreeSans.ttf" font-size="10.00" fill="#000000">GeometryElement.cpp</text>
</g>
<!-- Node1 -->
<g id="node2" class="node">
<title>Node1</title>
<g id="a_node2"><a xlink:href="GeometryElement_8h.html" target="_top" xlink:title="GeometryElement.h">
<polygon fill="none" stroke="#000000" points="172,-448.5 172,-467.5 287,-467.5 287,-448.5 172,-448.5"/>
<text text-anchor="middle" x="229.5" y="-455.5" font-family="FreeSans.ttf" font-size="10.00" fill="#000000">GeometryElement.h</text>
</a>
</g>
</g>
<!-- Node0&#45;&gt;Node1 -->
<g id="edge1" class="edge">
<title>Node0&#45;&gt;Node1</title>
<path fill="none" stroke="#191970" d="M461.6844,-504.4369C413.3619,-494.7724 338.6628,-479.8326 287.1064,-469.5213"/>
<polygon fill="#191970" stroke="#191970" points="287.6106,-466.0529 277.1184,-467.5237 286.2377,-472.9169 287.6106,-466.0529"/>
</g>
<!-- Node8 -->
<g id="node9" class="node">
<title>Node8</title>
<g id="a_node9"><a xlink:href="URDFParsingUtils_8h.html" target="_top" xlink:title="URDFParsingUtils.h">
<polygon fill="none" stroke="#000000" points="956.5,-448.5 956.5,-467.5 1066.5,-467.5 1066.5,-448.5 956.5,-448.5"/>
<text text-anchor="middle" x="1011.5" y="-455.5" font-family="FreeSans.ttf" font-size="10.00" fill="#000000">URDFParsingUtils.h</text>
</a>
</g>
</g>
<!-- Node0&#45;&gt;Node8 -->
<g id="edge8" class="edge">
<title>Node0&#45;&gt;Node8</title>
<path fill="none" stroke="#191970" d="M572.5703,-506.9643C668.3267,-496.2823 849.4674,-476.0753 946.4092,-465.2611"/>
<polygon fill="#191970" stroke="#191970" points="946.8271,-468.7363 956.3774,-464.1491 946.051,-461.7795 946.8271,-468.7363"/>
</g>
<!-- Node16 -->
<g id="node17" class="node">
<title>Node16</title>
<g id="a_node17"><a xlink:href="Utils_8h.html" target="_top" xlink:title="iDynTree/Core/Utils.h">
<polygon fill="none" stroke="#000000" points="912,-56.5 912,-75.5 1031,-75.5 1031,-56.5 912,-56.5"/>
<text text-anchor="middle" x="971.5" y="-63.5" font-family="FreeSans.ttf" font-size="10.00" fill="#000000">iDynTree/Core/Utils.h</text>
</a>
</g>
</g>
<!-- Node0&#45;&gt;Node16 -->
<g id="edge64" class="edge">
<title>Node0&#45;&gt;Node16</title>
<path fill="none" stroke="#191970" d="M572.8764,-513.5913C792.9166,-511.3455 1510.5,-496.7572 1510.5,-402 1510.5,-402 1510.5,-402 1510.5,-178 1510.5,-147.4754 1515.0943,-131.3665 1491.5,-112 1454.6973,-81.7918 1111.8953,-80.5455 1064.5,-76 1056.8849,-75.2697 1048.9231,-74.4695 1041.0002,-73.6499"/>
<polygon fill="#191970" stroke="#191970" points="1041.3242,-70.1648 1031.0142,-72.6052 1040.5957,-77.1268 1041.3242,-70.1648"/>
</g>
<!-- Node36 -->
<g id="node37" class="node">
<title>Node36</title>
<g id="a_node37"><a xlink:href="XMLAttribute_8h.html" target="_top" xlink:title="iDynTree/XMLAttribute.h">
<polygon fill="none" stroke="#000000" points="347.5,-280.5 347.5,-299.5 481.5,-299.5 481.5,-280.5 347.5,-280.5"/>
<text text-anchor="middle" x="414.5" y="-287.5" font-family="FreeSans.ttf" font-size="10.00" fill="#000000">iDynTree/XMLAttribute.h</text>
</a>
</g>
</g>
<!-- Node0&#45;&gt;Node36 -->
<g id="edge62" class="edge">
<title>Node0&#45;&gt;Node36</title>
<path fill="none" stroke="#191970" d="M471.1954,-504.4308C452.2498,-497.5821 431.0232,-486.2501 419.5,-468 388.2241,-418.4661 400.5098,-344.7361 409.0043,-309.7697"/>
<polygon fill="#191970" stroke="#191970" points="412.452,-310.4169 411.569,-299.8589 405.6752,-308.6632 412.452,-310.4169"/>
</g>
<!-- Node37 -->
<g id="node38" class="node">
<title>Node37</title>
<g id="a_node38"><a xlink:href="SolidShapes_8h.html" target="_top" xlink:title="iDynTree/Model/SolidShapes.h">
<polygon fill="none" stroke="#000000" points="428,-448.5 428,-467.5 591,-467.5 591,-448.5 428,-448.5"/>
<text text-anchor="middle" x="509.5" y="-455.5" font-family="FreeSans.ttf" font-size="10.00" fill="#000000">iDynTree/Model/SolidShapes.h</text>
</a>
</g>
</g>
<!-- Node0&#45;&gt;Node37 -->
<g id="edge65" class="edge">
<title>Node0&#45;&gt;Node37</title>
<path fill="none" stroke="#191970" d="M509.5,-504.2455C509.5,-496.9382 509.5,-486.6944 509.5,-477.7046"/>
<polygon fill="#191970" stroke="#191970" points="513.0001,-477.6426 509.5,-467.6427 506.0001,-477.6427 513.0001,-477.6426"/>
</g>
<!-- Node2 -->
<g id="node3" class="node">
<title>Node2</title>
<g id="a_node3"><a xlink:href="XMLElement_8h.html" target="_top" xlink:title="iDynTree/XMLElement.h">
<polygon fill="none" stroke="#000000" points="150.5,-392.5 150.5,-411.5 282.5,-411.5 282.5,-392.5 150.5,-392.5"/>
<text text-anchor="middle" x="216.5" y="-399.5" font-family="FreeSans.ttf" font-size="10.00" fill="#000000">iDynTree/XMLElement.h</text>
</a>
</g>
</g>
<!-- Node1&#45;&gt;Node2 -->
<g id="edge2" class="edge">
<title>Node1&#45;&gt;Node2</title>
<path fill="none" stroke="#191970" d="M227.2356,-448.2455C225.5206,-440.8579 223.1088,-430.4689 221.0056,-421.4087"/>
<polygon fill="#191970" stroke="#191970" points="224.4092,-420.5922 218.7385,-411.6427 217.5905,-422.1751 224.4092,-420.5922"/>
</g>
<!-- Node3 -->
<g id="node4" class="node">
<title>Node3</title>
<polygon fill="none" stroke="#bfbfbf" points="0,-336.5 0,-355.5 65,-355.5 65,-336.5 0,-336.5"/>
<text text-anchor="middle" x="32.5" y="-343.5" font-family="FreeSans.ttf" font-size="10.00" fill="#000000">functional</text>
</g>
<!-- Node2&#45;&gt;Node3 -->
<g id="edge3" class="edge">
<title>Node2&#45;&gt;Node3</title>
<path fill="none" stroke="#191970" d="M184.8693,-392.3733C154.1404,-383.021 107.324,-368.7725 73.6978,-358.5385"/>
<polygon fill="#191970" stroke="#191970" points="74.3038,-355.0644 63.718,-355.5011 72.2656,-361.7612 74.3038,-355.0644"/>
</g>
<!-- Node4 -->
<g id="node5" class="node">
<title>Node4</title>
<polygon fill="none" stroke="#bfbfbf" points="83.5,-336.5 83.5,-355.5 141.5,-355.5 141.5,-336.5 83.5,-336.5"/>
<text text-anchor="middle" x="112.5" y="-343.5" font-family="FreeSans.ttf" font-size="10.00" fill="#000000">memory</text>
</g>
<!-- Node2&#45;&gt;Node4 -->
<g id="edge4" class="edge">
<title>Node2&#45;&gt;Node4</title>
<path fill="none" stroke="#191970" d="M198.3846,-392.2455C182.055,-383.4527 157.829,-370.4079 139.2661,-360.4125"/>
<polygon fill="#191970" stroke="#191970" points="140.8719,-357.3021 130.4078,-355.6427 137.5532,-363.4654 140.8719,-357.3021"/>
</g>
<!-- Node5 -->
<g id="node6" class="node">
<title>Node5</title>
<polygon fill="none" stroke="#bfbfbf" points="599.5,-112.5 599.5,-131.5 643.5,-131.5 643.5,-112.5 599.5,-112.5"/>
<text text-anchor="middle" x="621.5" y="-119.5" font-family="FreeSans.ttf" font-size="10.00" fill="#000000">string</text>
</g>
<!-- Node2&#45;&gt;Node5 -->
<g id="edge5" class="edge">
<title>Node2&#45;&gt;Node5</title>
<path fill="none" stroke="#191970" d="M226.0472,-392.2486C250.6392,-367.164 315.8104,-300.9059 338.5,-280 395.0827,-227.8655 402.9671,-204.8635 470.5,-168 508.7521,-147.1197 557.7475,-134.4304 589.3786,-127.8129"/>
<polygon fill="#191970" stroke="#191970" points="590.2854,-131.2008 599.3994,-125.7985 588.9057,-124.3381 590.2854,-131.2008"/>
</g>
<!-- Node6 -->
<g id="node7" class="node">
<title>Node6</title>
<polygon fill="none" stroke="#bfbfbf" points="160,-336.5 160,-355.5 253,-355.5 253,-336.5 160,-336.5"/>
<text text-anchor="middle" x="206.5" y="-343.5" font-family="FreeSans.ttf" font-size="10.00" fill="#000000">unordered_map</text>
</g>
<!-- Node2&#45;&gt;Node6 -->
<g id="edge6" class="edge">
<title>Node2&#45;&gt;Node6</title>
<path fill="none" stroke="#191970" d="M214.7581,-392.2455C213.4533,-384.9382 211.624,-374.6944 210.0187,-365.7046"/>
<polygon fill="#191970" stroke="#191970" points="213.4254,-364.8717 208.2219,-355.6427 206.5344,-366.1022 213.4254,-364.8717"/>
</g>
<!-- Node7 -->
<g id="node8" class="node">
<title>Node7</title>
<polygon fill="none" stroke="#bfbfbf" points="434,-336.5 434,-355.5 481,-355.5 481,-336.5 434,-336.5"/>
<text text-anchor="middle" x="457.5" y="-343.5" font-family="FreeSans.ttf" font-size="10.00" fill="#000000">vector</text>
</g>
<!-- Node2&#45;&gt;Node7 -->
<g id="edge7" class="edge">
<title>Node2&#45;&gt;Node7</title>
<path fill="none" stroke="#191970" d="M257.6555,-392.4369C304.5772,-381.5339 380.3928,-363.917 423.9057,-353.8061"/>
<polygon fill="#191970" stroke="#191970" points="424.7682,-357.1991 433.7165,-351.5265 423.1838,-350.3807 424.7682,-357.1991"/>
</g>
<!-- Node8&#45;&gt;Node5 -->
<g id="edge12" class="edge">
<title>Node8&#45;&gt;Node5</title>
<path fill="none" stroke="#191970" d="M1011.5,-448.4116C1011.5,-429.0538 1011.5,-383.9167 1011.5,-346 1011.5,-346 1011.5,-346 1011.5,-290 1011.5,-259.4754 1013.2616,-246.3765 992.5,-224 945.8654,-173.738 735.4605,-138.4965 653.9231,-126.5057"/>
<polygon fill="#191970" stroke="#191970" points="654.1447,-123.0014 643.7463,-125.032 653.1415,-129.9291 654.1447,-123.0014"/>
</g>
<!-- Node8&#45;&gt;Node7 -->
<g id="edge13" class="edge">
<title>Node8&#45;&gt;Node7</title>
<path fill="none" stroke="#191970" d="M956.3672,-452.4709C892.7796,-445.5247 785.3264,-432.0338 694.5,-412 664.1533,-405.3064 657.3901,-400.5036 627.5,-392 580.3272,-378.5795 525.5263,-363.9171 491.1771,-354.8382"/>
<polygon fill="#191970" stroke="#191970" points="491.7667,-351.374 481.2047,-352.2074 489.9811,-358.1425 491.7667,-351.374"/>
</g>
<!-- Node9 -->
<g id="node10" class="node">
<title>Node9</title>
<polygon fill="none" stroke="#bfbfbf" points="1116,-392.5 1116,-411.5 1163,-411.5 1163,-392.5 1116,-392.5"/>
<text text-anchor="middle" x="1139.5" y="-399.5" font-family="FreeSans.ttf" font-size="10.00" fill="#000000">cmath</text>
</g>
<!-- Node8&#45;&gt;Node9 -->
<g id="edge9" class="edge">
<title>Node8&#45;&gt;Node9</title>
<path fill="none" stroke="#191970" d="M1033.504,-448.3733C1054.1435,-439.3435 1085.2158,-425.7494 1108.3889,-415.6111"/>
<polygon fill="#191970" stroke="#191970" points="1110.0245,-418.7159 1117.7831,-411.5011 1107.2187,-412.3028 1110.0245,-418.7159"/>
</g>
<!-- Node10 -->
<g id="node11" class="node">
<title>Node10</title>
<polygon fill="none" stroke="#bfbfbf" points="569,-392.5 569,-411.5 618,-411.5 618,-392.5 569,-392.5"/>
<text text-anchor="middle" x="593.5" y="-399.5" font-family="FreeSans.ttf" font-size="10.00" fill="#000000">cstdlib</text>
</g>
<!-- Node8&#45;&gt;Node10 -->
<g id="edge10" class="edge">
<title>Node8&#45;&gt;Node10</title>
<path fill="none" stroke="#191970" d="M956.1988,-451.6934C885.4394,-443.4496 759.142,-428.1487 651.5,-412 643.8416,-410.8511 635.6342,-409.5059 627.8742,-408.1815"/>
<polygon fill="#191970" stroke="#191970" points="628.4656,-404.7319 618.0144,-406.4706 627.2687,-411.6288 628.4656,-404.7319"/>
</g>
<!-- Node11 -->
<g id="node12" class="node">
<title>Node11</title>
<polygon fill="none" stroke="#bfbfbf" points="1348.5,-112.5 1348.5,-131.5 1404.5,-131.5 1404.5,-112.5 1348.5,-112.5"/>
<text text-anchor="middle" x="1376.5" y="-119.5" font-family="FreeSans.ttf" font-size="10.00" fill="#000000">sstream</text>
</g>
<!-- Node8&#45;&gt;Node11 -->
<g id="edge11" class="edge">
<title>Node8&#45;&gt;Node11</title>
<path fill="none" stroke="#191970" d="M1066.5394,-452.6555C1168.5055,-441.2211 1376.5,-410.0471 1376.5,-346 1376.5,-346 1376.5,-346 1376.5,-234 1376.5,-201.7116 1376.5,-164.1872 1376.5,-141.8048"/>
<polygon fill="#191970" stroke="#191970" points="1380.0001,-141.5883 1376.5,-131.5884 1373.0001,-141.5884 1380.0001,-141.5883"/>
</g>
<!-- Node12 -->
<g id="node13" class="node">
<title>Node12</title>
<g id="a_node13"><a xlink:href="Transform_8h.html" target="_top" xlink:title="iDynTree/Core/Transform.h">
<polygon fill="none" stroke="#000000" points="703.5,-392.5 703.5,-411.5 849.5,-411.5 849.5,-392.5 703.5,-392.5"/>
<text text-anchor="middle" x="776.5" y="-399.5" font-family="FreeSans.ttf" font-size="10.00" fill="#000000">iDynTree/Core/Transform.h</text>
</a>
</g>
</g>
<!-- Node8&#45;&gt;Node12 -->
<g id="edge14" class="edge">
<title>Node8&#45;&gt;Node12</title>
<path fill="none" stroke="#191970" d="M971.3691,-448.4369C931.2351,-438.8731 869.4225,-424.1432 826.2067,-413.845"/>
<polygon fill="#191970" stroke="#191970" points="827.0044,-410.4372 816.4654,-411.5237 825.3817,-417.2465 827.0044,-410.4372"/>
</g>
<!-- Node15 -->
<g id="node16" class="node">
<title>Node15</title>
<g id="a_node16"><a xlink:href="VectorFixSize_8h.html" target="_top" xlink:title="iDynTree/Core/VectorFixSize.h">
<polygon fill="none" stroke="#000000" points="1008,-168.5 1008,-187.5 1169,-187.5 1169,-168.5 1008,-168.5"/>
<text text-anchor="middle" x="1088.5" y="-175.5" font-family="FreeSans.ttf" font-size="10.00" fill="#000000">iDynTree/Core/VectorFixSize.h</text>
</a>
</g>
</g>
<!-- Node8&#45;&gt;Node15 -->
<g id="edge60" class="edge">
<title>Node8&#45;&gt;Node15</title>
<path fill="none" stroke="#191970" d="M1055.2662,-448.483C1128.8747,-431.2004 1269.5,-392.1445 1269.5,-346 1269.5,-346 1269.5,-346 1269.5,-290 1269.5,-233.0663 1203.9404,-204.0949 1151.7335,-190.0502"/>
<polygon fill="#191970" stroke="#191970" points="1152.3824,-186.6036 1141.827,-187.5172 1150.6483,-193.3854 1152.3824,-186.6036"/>
</g>
<!-- Node35 -->
<g id="node36" class="node">
<title>Node35</title>
<polygon fill="none" stroke="#bfbfbf" points="1039.5,-392.5 1039.5,-411.5 1097.5,-411.5 1097.5,-392.5 1039.5,-392.5"/>
<text text-anchor="middle" x="1068.5" y="-399.5" font-family="FreeSans.ttf" font-size="10.00" fill="#000000">fpconv.h</text>
</g>
<!-- Node8&#45;&gt;Node35 -->
<g id="edge61" class="edge">
<title>Node8&#45;&gt;Node35</title>
<path fill="none" stroke="#191970" d="M1021.4286,-448.2455C1029.6838,-440.1352 1041.6209,-428.4075 1051.4082,-418.7919"/>
<polygon fill="#191970" stroke="#191970" points="1054.0046,-421.1476 1058.6851,-411.6427 1049.0989,-416.1542 1054.0046,-421.1476"/>
</g>
<!-- Node12&#45;&gt;Node5 -->
<g id="edge59" class="edge">
<title>Node12&#45;&gt;Node5</title>
<path fill="none" stroke="#191970" d="M740.7188,-392.4663C676.3125,-374.2435 547.5,-332.4869 547.5,-290 547.5,-290 547.5,-290 547.5,-234 547.5,-194.563 579.8332,-158.3258 601.7544,-138.2897"/>
<polygon fill="#191970" stroke="#191970" points="604.0867,-140.8995 609.2804,-131.665 599.4616,-135.6451 604.0867,-140.8995"/>
</g>
<!-- Node13 -->
<g id="node14" class="node">
<title>Node13</title>
<g id="a_node14"><a xlink:href="Position_8h.html" target="_top" xlink:title="iDynTree/Core/Position.h">
<polygon fill="none" stroke="#000000" points="648.5,-336.5 648.5,-355.5 784.5,-355.5 784.5,-336.5 648.5,-336.5"/>
<text text-anchor="middle" x="716.5" y="-343.5" font-family="FreeSans.ttf" font-size="10.00" fill="#000000">iDynTree/Core/Position.h</text>
</a>
</g>
</g>
<!-- Node12&#45;&gt;Node13 -->
<g id="edge15" class="edge">
<title>Node12&#45;&gt;Node13</title>
<path fill="none" stroke="#191970" d="M766.0488,-392.2455C757.2731,-384.0549 744.5446,-372.1749 734.186,-362.5069"/>
<polygon fill="#191970" stroke="#191970" points="736.5301,-359.9072 726.8314,-355.6427 731.7539,-365.0246 736.5301,-359.9072"/>
</g>
<!-- Node29 -->
<g id="node30" class="node">
<title>Node29</title>
<g id="a_node30"><a xlink:href="Rotation_8h.html" target="_top" xlink:title="iDynTree/Core/Rotation.h">
<polygon fill="none" stroke="#000000" points="768,-280.5 768,-299.5 905,-299.5 905,-280.5 768,-280.5"/>
<text text-anchor="middle" x="836.5" y="-287.5" font-family="FreeSans.ttf" font-size="10.00" fill="#000000">iDynTree/Core/Rotation.h</text>
</a>
</g>
</g>
<!-- Node12&#45;&gt;Node29 -->
<g id="edge57" class="edge">
<title>Node12&#45;&gt;Node29</title>
<path fill="none" stroke="#191970" d="M781.6156,-392.4509C791.5786,-373.8533 813.7365,-332.4919 826.6448,-308.3964"/>
<polygon fill="#191970" stroke="#191970" points="829.7603,-309.9925 831.3974,-299.5249 823.5899,-306.6869 829.7603,-309.9925"/>
</g>
<!-- Node32 -->
<g id="node33" class="node">
<title>Node32</title>
<g id="a_node33"><a xlink:href="MatrixFixSize_8h.html" target="_top" xlink:title="iDynTree/Core/MatrixFixSize.h">
<polygon fill="none" stroke="#000000" points="1187,-168.5 1187,-187.5 1348,-187.5 1348,-168.5 1187,-168.5"/>
<text text-anchor="middle" x="1267.5" y="-175.5" font-family="FreeSans.ttf" font-size="10.00" fill="#000000">iDynTree/Core/MatrixFixSize.h</text>
</a>
</g>
</g>
<!-- Node12&#45;&gt;Node32 -->
<g id="edge58" class="edge">
<title>Node12&#45;&gt;Node32</title>
<path fill="none" stroke="#191970" d="M849.7331,-392.5572C946.3034,-376.8024 1117.1068,-337.1393 1229.5,-244 1244.4096,-231.6445 1254.6968,-211.8254 1260.7707,-197.1259"/>
<polygon fill="#191970" stroke="#191970" points="1264.1464,-198.0975 1264.4547,-187.5072 1257.6095,-195.5938 1264.1464,-198.0975"/>
</g>
<!-- Node13&#45;&gt;Node5 -->
<g id="edge56" class="edge">
<title>Node13&#45;&gt;Node5</title>
<path fill="none" stroke="#191970" d="M698.6843,-336.3337C672.292,-320.8656 623.8447,-287.7821 604.5,-244 589.4508,-209.9396 602.7386,-165.7713 612.7776,-141.0031"/>
<polygon fill="#191970" stroke="#191970" points="616.059,-142.2317 616.789,-131.662 609.627,-139.4695 616.059,-142.2317"/>
</g>
<!-- Node14 -->
<g id="node15" class="node">
<title>Node14</title>
<g id="a_node15"><a xlink:href="PositionRaw_8h.html" target="_top" xlink:title="iDynTree/Core/PositionRaw.h">
<polygon fill="none" stroke="#000000" points="613.5,-224.5 613.5,-243.5 769.5,-243.5 769.5,-224.5 613.5,-224.5"/>
<text text-anchor="middle" x="691.5" y="-231.5" font-family="FreeSans.ttf" font-size="10.00" fill="#000000">iDynTree/Core/PositionRaw.h</text>
</a>
</g>
</g>
<!-- Node13&#45;&gt;Node14 -->
<g id="edge16" class="edge">
<title>Node13&#45;&gt;Node14</title>
<path fill="none" stroke="#191970" d="M714.3685,-336.4509C710.2726,-318.1013 701.2301,-277.5908 695.8235,-253.3693"/>
<polygon fill="#191970" stroke="#191970" points="699.2206,-252.5222 693.6261,-243.5249 692.3888,-254.0472 699.2206,-252.5222"/>
</g>
<!-- Node13&#45;&gt;Node29 -->
<g id="edge37" class="edge">
<title>Node13&#45;&gt;Node29</title>
<path fill="none" stroke="#191970" d="M737.1287,-336.3733C756.3919,-327.3838 785.3486,-313.8706 807.0419,-303.7471"/>
<polygon fill="#191970" stroke="#191970" points="808.5587,-306.9017 816.1405,-299.5011 805.5985,-300.5584 808.5587,-306.9017"/>
</g>
<!-- Node14&#45;&gt;Node5 -->
<g id="edge36" class="edge">
<title>Node14&#45;&gt;Node5</title>
<path fill="none" stroke="#191970" d="M685.5318,-224.4509C673.8567,-205.7707 647.8274,-164.1238 632.7976,-140.0761"/>
<polygon fill="#191970" stroke="#191970" points="635.7211,-138.1499 627.4531,-131.5249 629.7851,-141.8599 635.7211,-138.1499"/>
</g>
<!-- Node14&#45;&gt;Node15 -->
<g id="edge17" class="edge">
<title>Node14&#45;&gt;Node15</title>
<path fill="none" stroke="#191970" d="M759.2956,-224.4369C829.0947,-214.5912 937.7076,-199.2705 1010.8992,-188.9462"/>
<polygon fill="#191970" stroke="#191970" points="1011.5709,-192.3862 1020.984,-187.5237 1010.5931,-185.4548 1011.5709,-192.3862"/>
</g>
<!-- Node15&#45;&gt;Node5 -->
<g id="edge31" class="edge">
<title>Node15&#45;&gt;Node5</title>
<path fill="none" stroke="#191970" d="M1009.0153,-168.4686C904.7861,-155.9701 726.652,-134.6092 653.8955,-125.8847"/>
<polygon fill="#191970" stroke="#191970" points="654.2925,-122.4073 643.9469,-124.6917 653.459,-129.3575 654.2925,-122.4073"/>
</g>
<!-- Node15&#45;&gt;Node11 -->
<g id="edge32" class="edge">
<title>Node15&#45;&gt;Node11</title>
<path fill="none" stroke="#191970" d="M1143.8549,-168.4466C1193.8138,-159.6351 1269.2619,-145.8573 1334.5,-132 1335.7373,-131.7372 1336.9939,-131.4656 1338.262,-131.1875"/>
<polygon fill="#191970" stroke="#191970" points="1339.0953,-134.5875 1348.076,-128.9663 1337.5501,-127.7601 1339.0953,-134.5875"/>
</g>
<!-- Node15&#45;&gt;Node16 -->
<g id="edge18" class="edge">
<title>Node15&#45;&gt;Node16</title>
<path fill="none" stroke="#191970" d="M1069.597,-168.4138C1054.4165,-160.1224 1033.1281,-147.1086 1017.5,-132 1002.9775,-117.9602 990.1824,-98.7193 981.7979,-84.6348"/>
<polygon fill="#191970" stroke="#191970" points="984.7541,-82.7546 976.731,-75.8351 978.6879,-86.2476 984.7541,-82.7546"/>
</g>
<!-- Node17 -->
<g id="node18" class="node">
<title>Node17</title>
<polygon fill="none" stroke="#bfbfbf" points="728,-.5 728,-19.5 781,-19.5 781,-.5 728,-.5"/>
<text text-anchor="middle" x="754.5" y="-7.5" font-family="FreeSans.ttf" font-size="10.00" fill="#000000">cstddef</text>
</g>
<!-- Node15&#45;&gt;Node17 -->
<g id="edge34" class="edge">
<title>Node15&#45;&gt;Node17</title>
<path fill="none" stroke="#191970" d="M1068.879,-168.3607C1050.0392,-159.0896 1020.7905,-144.6556 995.5,-132 918.139,-93.2877 827.1345,-47.0207 782.3157,-24.1863"/>
<polygon fill="#191970" stroke="#191970" points="783.7184,-20.9729 773.2195,-19.5506 780.5399,-27.2097 783.7184,-20.9729"/>
</g>
<!-- Node19 -->
<g id="node20" class="node">
<title>Node19</title>
<g id="a_node20"><a xlink:href="Span_8h.html" target="_top" xlink:title="iDynTree/Core/Span.h">
<polygon fill="none" stroke="#000000" points="1073,-56.5 1073,-75.5 1194,-75.5 1194,-56.5 1073,-56.5"/>
<text text-anchor="middle" x="1133.5" y="-63.5" font-family="FreeSans.ttf" font-size="10.00" fill="#000000">iDynTree/Core/Span.h</text>
</a>
</g>
</g>
<!-- Node15&#45;&gt;Node19 -->
<g id="edge21" class="edge">
<title>Node15&#45;&gt;Node19</title>
<path fill="none" stroke="#191970" d="M1067.3359,-168.4769C1043.6906,-156.4538 1010.5634,-134.5969 1025.5,-112 1035.9302,-96.2206 1052.9932,-85.8364 1070.5086,-79.0096"/>
<polygon fill="#191970" stroke="#191970" points="1071.9826,-82.201 1080.2467,-75.5712 1069.6519,-75.6004 1071.9826,-82.201"/>
</g>
<!-- Node20 -->
<g id="node21" class="node">
<title>Node20</title>
<polygon fill="none" stroke="#bfbfbf" points="1407.5,-.5 1407.5,-19.5 1459.5,-19.5 1459.5,-.5 1407.5,-.5"/>
<text text-anchor="middle" x="1433.5" y="-7.5" font-family="FreeSans.ttf" font-size="10.00" fill="#000000">cassert</text>
</g>
<!-- Node15&#45;&gt;Node20 -->
<g id="edge33" class="edge">
<title>Node15&#45;&gt;Node20</title>
<path fill="none" stroke="#191970" d="M1149.6545,-168.4841C1202.8885,-159.5336 1275.4852,-145.5228 1301.5,-132 1352.2182,-105.636 1397.9374,-54.5385 1419.8446,-27.6005"/>
<polygon fill="#191970" stroke="#191970" points="1422.5953,-29.7649 1426.0968,-19.7654 1417.1238,-25.3988 1422.5953,-29.7649"/>
</g>
<!-- Node28 -->
<g id="node29" class="node">
<title>Node28</title>
<polygon fill="none" stroke="#bfbfbf" points="1034.5,-112.5 1034.5,-131.5 1084.5,-131.5 1084.5,-112.5 1034.5,-112.5"/>
<text text-anchor="middle" x="1059.5" y="-119.5" font-family="FreeSans.ttf" font-size="10.00" fill="#000000">cstring</text>
</g>
<!-- Node15&#45;&gt;Node28 -->
<g id="edge35" class="edge">
<title>Node15&#45;&gt;Node28</title>
<path fill="none" stroke="#191970" d="M1083.4486,-168.2455C1079.4981,-160.617 1073.8903,-149.7881 1069.0942,-140.5267"/>
<polygon fill="#191970" stroke="#191970" points="1072.2001,-138.9131 1064.4935,-131.6427 1065.9841,-142.1321 1072.2001,-138.9131"/>
</g>
<!-- Node16&#45;&gt;Node17 -->
<g id="edge19" class="edge">
<title>Node16&#45;&gt;Node17</title>
<path fill="none" stroke="#191970" d="M932.9496,-56.4645C898.3403,-47.8455 845.8987,-34.6422 791.1094,-20.1215"/>
<polygon fill="#191970" stroke="#191970" points="791.782,-16.6788 781.2185,-17.4924 789.9838,-23.4439 791.782,-16.6788"/>
</g>
<!-- Node18 -->
<g id="node19" class="node">
<title>Node18</title>
<polygon fill="none" stroke="#bfbfbf" points="799.5,-.5 799.5,-19.5 879.5,-19.5 879.5,-.5 799.5,-.5"/>
<text text-anchor="middle" x="839.5" y="-7.5" font-family="FreeSans.ttf" font-size="10.00" fill="#000000">CoreExport.h</text>
</g>
<!-- Node16&#45;&gt;Node18 -->
<g id="edge20" class="edge">
<title>Node16&#45;&gt;Node18</title>
<path fill="none" stroke="#191970" d="M948.8084,-56.3733C927.4289,-47.3032 895.1943,-33.6279 871.2638,-23.4755"/>
<polygon fill="#191970" stroke="#191970" points="872.4683,-20.1846 861.8955,-19.5011 869.7344,-26.6287 872.4683,-20.1846"/>
</g>
<!-- Node19&#45;&gt;Node17 -->
<g id="edge25" class="edge">
<title>Node19&#45;&gt;Node17</title>
<path fill="none" stroke="#191970" d="M1072.6704,-58.8649C993.3111,-49.3892 857.7019,-32.5842 791.1979,-19.8468"/>
<polygon fill="#191970" stroke="#191970" points="791.6285,-16.3638 781.1369,-17.8392 790.2586,-23.2285 791.6285,-16.3638"/>
</g>
<!-- Node19&#45;&gt;Node20 -->
<g id="edge22" class="edge">
<title>Node19&#45;&gt;Node20</title>
<path fill="none" stroke="#191970" d="M1194.1193,-57.3564C1245.7512,-49.5681 1322.0698,-37.0527 1397.1075,-20.142"/>
<polygon fill="#191970" stroke="#191970" points="1398.2339,-23.4749 1407.2045,-17.8376 1396.6764,-16.6504 1398.2339,-23.4749"/>
</g>
<!-- Node21 -->
<g id="node22" class="node">
<title>Node21</title>
<polygon fill="none" stroke="#bfbfbf" points="897.5,-.5 897.5,-19.5 961.5,-19.5 961.5,-.5 897.5,-.5"/>
<text text-anchor="middle" x="929.5" y="-7.5" font-family="FreeSans.ttf" font-size="10.00" fill="#000000">algorithm</text>
</g>
<!-- Node19&#45;&gt;Node21 -->
<g id="edge23" class="edge">
<title>Node19&#45;&gt;Node21</title>
<path fill="none" stroke="#191970" d="M1098.4311,-56.3733C1063.3396,-46.7403 1009.325,-31.9128 971.8592,-21.628"/>
<polygon fill="#191970" stroke="#191970" points="972.33,-18.1278 961.7602,-18.8557 970.4769,-24.8781 972.33,-18.1278"/>
</g>
<!-- Node22 -->
<g id="node23" class="node">
<title>Node22</title>
<polygon fill="none" stroke="#bfbfbf" points="979.5,-.5 979.5,-19.5 1021.5,-19.5 1021.5,-.5 979.5,-.5"/>
<text text-anchor="middle" x="1000.5" y="-7.5" font-family="FreeSans.ttf" font-size="10.00" fill="#000000">array</text>
</g>
<!-- Node19&#45;&gt;Node22 -->
<g id="edge24" class="edge">
<title>Node19&#45;&gt;Node22</title>
<path fill="none" stroke="#191970" d="M1110.6365,-56.3733C1088.7034,-47.1383 1055.4316,-33.1291 1031.1976,-22.9253"/>
<polygon fill="#191970" stroke="#191970" points="1032.3235,-19.6018 1021.7489,-18.9469 1029.6071,-26.0533 1032.3235,-19.6018"/>
</g>
<!-- Node23 -->
<g id="node24" class="node">
<title>Node23</title>
<polygon fill="none" stroke="#bfbfbf" points="1040,-.5 1040,-19.5 1093,-19.5 1093,-.5 1040,-.5"/>
<text text-anchor="middle" x="1066.5" y="-7.5" font-family="FreeSans.ttf" font-size="10.00" fill="#000000">iterator</text>
</g>
<!-- Node19&#45;&gt;Node23 -->
<g id="edge26" class="edge">
<title>Node19&#45;&gt;Node23</title>
<path fill="none" stroke="#191970" d="M1121.8295,-56.2455C1111.9339,-47.9746 1097.5373,-35.9416 1085.9099,-26.2232"/>
<polygon fill="#191970" stroke="#191970" points="1087.9542,-23.3703 1078.0368,-19.6427 1083.465,-28.7413 1087.9542,-23.3703"/>
</g>
<!-- Node24 -->
<g id="node25" class="node">
<title>Node24</title>
<polygon fill="none" stroke="#bfbfbf" points="1111.5,-.5 1111.5,-19.5 1155.5,-19.5 1155.5,-.5 1111.5,-.5"/>
<text text-anchor="middle" x="1133.5" y="-7.5" font-family="FreeSans.ttf" font-size="10.00" fill="#000000">limits</text>
</g>
<!-- Node19&#45;&gt;Node24 -->
<g id="edge27" class="edge">
<title>Node19&#45;&gt;Node24</title>
<path fill="none" stroke="#191970" d="M1133.5,-56.2455C1133.5,-48.9382 1133.5,-38.6944 1133.5,-29.7046"/>
<polygon fill="#191970" stroke="#191970" points="1137.0001,-29.6426 1133.5,-19.6427 1130.0001,-29.6427 1137.0001,-29.6426"/>
</g>
<!-- Node25 -->
<g id="node26" class="node">
<title>Node25</title>
<polygon fill="none" stroke="#bfbfbf" points="1174,-.5 1174,-19.5 1239,-19.5 1239,-.5 1174,-.5"/>
<text text-anchor="middle" x="1206.5" y="-7.5" font-family="FreeSans.ttf" font-size="10.00" fill="#000000">stdexcept</text>
</g>
<!-- Node19&#45;&gt;Node25 -->
<g id="edge28" class="edge">
<title>Node19&#45;&gt;Node25</title>
<path fill="none" stroke="#191970" d="M1146.2156,-56.2455C1157.102,-47.8943 1172.9883,-35.7076 1185.72,-25.9408"/>
<polygon fill="#191970" stroke="#191970" points="1188.1261,-28.5063 1193.9301,-19.6427 1183.8654,-22.9523 1188.1261,-28.5063"/>
</g>
<!-- Node26 -->
<g id="node27" class="node">
<title>Node26</title>
<polygon fill="none" stroke="#bfbfbf" points="1320,-.5 1320,-19.5 1389,-19.5 1389,-.5 1320,-.5"/>
<text text-anchor="middle" x="1354.5" y="-7.5" font-family="FreeSans.ttf" font-size="10.00" fill="#000000">type_traits</text>
</g>
<!-- Node19&#45;&gt;Node26 -->
<g id="edge29" class="edge">
<title>Node19&#45;&gt;Node26</title>
<path fill="none" stroke="#191970" d="M1171.2401,-56.4369C1209.654,-46.7031 1269.1861,-31.618 1309.9048,-21.3001"/>
<polygon fill="#191970" stroke="#191970" points="1310.9934,-24.635 1319.8273,-18.7858 1309.274,-17.8494 1310.9934,-24.635"/>
</g>
<!-- Node27 -->
<g id="node28" class="node">
<title>Node27</title>
<polygon fill="none" stroke="#bfbfbf" points="1257,-.5 1257,-19.5 1302,-19.5 1302,-.5 1257,-.5"/>
<text text-anchor="middle" x="1279.5" y="-7.5" font-family="FreeSans.ttf" font-size="10.00" fill="#000000">utility</text>
</g>
<!-- Node19&#45;&gt;Node27 -->
<g id="edge30" class="edge">
<title>Node19&#45;&gt;Node27</title>
<path fill="none" stroke="#191970" d="M1158.5983,-56.3733C1183.0338,-47.0007 1220.2899,-32.7107 1246.9838,-22.472"/>
<polygon fill="#191970" stroke="#191970" points="1248.5653,-25.614 1256.6486,-18.7649 1246.0584,-19.0783 1248.5653,-25.614"/>
</g>
<!-- Node29&#45;&gt;Node5 -->
<g id="edge38" class="edge">
<title>Node29&#45;&gt;Node5</title>
<path fill="none" stroke="#191970" d="M829.3479,-280.2987C819.0562,-266.731 799.0383,-241.7602 778.5,-224 736.6539,-187.8141 681.0537,-154.6586 648.4845,-136.4986"/>
<polygon fill="#191970" stroke="#191970" points="649.9951,-133.3348 639.5482,-131.5707 646.6148,-139.4645 649.9951,-133.3348"/>
</g>
<!-- Node29&#45;&gt;Node15 -->
<g id="edge55" class="edge">
<title>Node29&#45;&gt;Node15</title>
<path fill="none" stroke="#191970" d="M905.3256,-283.9365C1011.0679,-274.2882 1202.434,-255.3726 1212.5,-244 1235.6192,-217.8801 1194.1946,-200.3444 1153.1333,-189.9545"/>
<polygon fill="#191970" stroke="#191970" points="1153.8391,-186.5246 1143.2982,-187.5927 1152.2045,-193.331 1153.8391,-186.5246"/>
</g>
<!-- Node30 -->
<g id="node31" class="node">
<title>Node30</title>
<g id="a_node31"><a xlink:href="GeomVector3_8h.html" target="_top" xlink:title="iDynTree/Core/GeomVector3.h">
<polygon fill="none" stroke="#000000" points="1040,-224.5 1040,-243.5 1203,-243.5 1203,-224.5 1040,-224.5"/>
<text text-anchor="middle" x="1121.5" y="-231.5" font-family="FreeSans.ttf" font-size="10.00" fill="#000000">iDynTree/Core/GeomVector3.h</text>
</a>
</g>
</g>
<!-- Node29&#45;&gt;Node30 -->
<g id="edge39" class="edge">
<title>Node29&#45;&gt;Node30</title>
<path fill="none" stroke="#191970" d="M885.1694,-280.4369C934.4573,-270.7522 1010.7048,-255.7703 1063.1926,-245.4569"/>
<polygon fill="#191970" stroke="#191970" points="1063.8938,-248.8861 1073.0313,-243.5237 1062.5441,-242.0175 1063.8938,-248.8861"/>
</g>
<!-- Node31 -->
<g id="node32" class="node">
<title>Node31</title>
<g id="a_node32"><a xlink:href="RotationRaw_8h.html" target="_top" xlink:title="iDynTree/Core/RotationRaw.h">
<polygon fill="none" stroke="#000000" points="825.5,-224.5 825.5,-243.5 983.5,-243.5 983.5,-224.5 825.5,-224.5"/>
<text text-anchor="middle" x="904.5" y="-231.5" font-family="FreeSans.ttf" font-size="10.00" fill="#000000">iDynTree/Core/RotationRaw.h</text>
</a>
</g>
</g>
<!-- Node29&#45;&gt;Node31 -->
<g id="edge41" class="edge">
<title>Node29&#45;&gt;Node31</title>
<path fill="none" stroke="#191970" d="M848.3447,-280.2455C858.388,-271.9746 872.9995,-259.9416 884.8004,-250.2232"/>
<polygon fill="#191970" stroke="#191970" points="887.2967,-252.7015 892.791,-243.6427 882.8467,-247.298 887.2967,-252.7015"/>
</g>
<!-- Node30&#45;&gt;Node15 -->
<g id="edge40" class="edge">
<title>Node30&#45;&gt;Node15</title>
<path fill="none" stroke="#191970" d="M1115.7518,-224.2455C1111.2565,-216.617 1104.8752,-205.7881 1099.4175,-196.5267"/>
<polygon fill="#191970" stroke="#191970" points="1102.2747,-194.4811 1094.1823,-187.6427 1096.2439,-198.035 1102.2747,-194.4811"/>
</g>
<!-- Node31&#45;&gt;Node5 -->
<g id="edge54" class="edge">
<title>Node31&#45;&gt;Node5</title>
<path fill="none" stroke="#191970" d="M893.9002,-224.3876C877.4634,-209.9927 844.2925,-182.9348 811.5,-168 759.129,-144.1485 692.7812,-131.7127 653.946,-126.0339"/>
<polygon fill="#191970" stroke="#191970" points="654.1452,-122.5278 643.7566,-124.6075 653.1747,-129.4602 654.1452,-122.5278"/>
</g>
<!-- Node31&#45;&gt;Node32 -->
<g id="edge42" class="edge">
<title>Node31&#45;&gt;Node32</title>
<path fill="none" stroke="#191970" d="M966.4895,-224.4369C1030.0498,-214.6314 1128.8101,-199.3957 1195.7223,-189.0731"/>
<polygon fill="#191970" stroke="#191970" points="1196.4168,-192.5075 1205.7662,-187.5237 1195.3495,-185.5893 1196.4168,-192.5075"/>
</g>
<!-- Node32&#45;&gt;Node5 -->
<g id="edge51" class="edge">
<title>Node32&#45;&gt;Node5</title>
<path fill="none" stroke="#191970" d="M1186.981,-168.8452C1184.1194,-168.5542 1181.2856,-168.2715 1178.5,-168 979.1524,-148.5734 739.1393,-130.5674 653.6512,-124.3218"/>
<polygon fill="#191970" stroke="#191970" points="653.7734,-120.8215 643.5456,-123.5857 653.2649,-127.803 653.7734,-120.8215"/>
</g>
<!-- Node32&#45;&gt;Node11 -->
<g id="edge53" class="edge">
<title>Node32&#45;&gt;Node11</title>
<path fill="none" stroke="#191970" d="M1286.4864,-168.2455C1303.6792,-159.4125 1329.2238,-146.2887 1348.7132,-136.2758"/>
<polygon fill="#191970" stroke="#191970" points="1350.4359,-139.3257 1357.7312,-131.6427 1347.237,-133.0993 1350.4359,-139.3257"/>
</g>
<!-- Node32&#45;&gt;Node16 -->
<g id="edge43" class="edge">
<title>Node32&#45;&gt;Node16</title>
<path fill="none" stroke="#191970" d="M1235.094,-168.4154C1207.4345,-159.8909 1166.8069,-146.5503 1132.5,-132 1114.5666,-124.3941 1111.3088,-119.8934 1093.5,-112 1065.6716,-99.6657 1033.4162,-87.5969 1009.0632,-78.9181"/>
<polygon fill="#191970" stroke="#191970" points="1010.0743,-75.5633 999.4795,-75.532 1007.7423,-82.1635 1010.0743,-75.5633"/>
</g>
<!-- Node32&#45;&gt;Node20 -->
<g id="edge49" class="edge">
<title>Node32&#45;&gt;Node20</title>
<path fill="none" stroke="#191970" d="M1348.236,-172.0101C1404.818,-165.9377 1473.4348,-154.152 1491.5,-132 1518.3645,-99.0581 1478.1145,-51.6069 1452.3187,-26.7047"/>
<polygon fill="#191970" stroke="#191970" points="1454.5634,-24.0121 1444.8674,-19.7414 1449.7839,-29.1264 1454.5634,-24.0121"/>
</g>
<!-- Node32&#45;&gt;Node28 -->
<g id="edge50" class="edge">
<title>Node32&#45;&gt;Node28</title>
<path fill="none" stroke="#191970" d="M1231.7435,-168.3733C1193.4158,-158.0543 1132.9481,-141.7745 1094.798,-131.5033"/>
<polygon fill="#191970" stroke="#191970" points="1095.2326,-127.9957 1084.6665,-128.7756 1093.4127,-134.7551 1095.2326,-127.9957"/>
</g>
<!-- Node33 -->
<g id="node34" class="node">
<title>Node33</title>
<g id="a_node34"><a xlink:href="MatrixView_8h.html" target="_top" xlink:title="iDynTree/Core/MatrixView.h">
<polygon fill="none" stroke="#000000" points="1141,-112.5 1141,-131.5 1292,-131.5 1292,-112.5 1141,-112.5"/>
<text text-anchor="middle" x="1216.5" y="-119.5" font-family="FreeSans.ttf" font-size="10.00" fill="#000000">iDynTree/Core/MatrixView.h</text>
</a>
</g>
</g>
<!-- Node32&#45;&gt;Node33 -->
<g id="edge44" class="edge">
<title>Node32&#45;&gt;Node33</title>
<path fill="none" stroke="#191970" d="M1258.6165,-168.2455C1251.3034,-160.2155 1240.7609,-148.6394 1232.0533,-139.0781"/>
<polygon fill="#191970" stroke="#191970" points="1234.6028,-136.6795 1225.2817,-131.6427 1229.4273,-141.3928 1234.6028,-136.6795"/>
</g>
<!-- Node34 -->
<g id="node35" class="node">
<title>Node34</title>
<polygon fill="none" stroke="#bfbfbf" points="1422.5,-112.5 1422.5,-131.5 1482.5,-131.5 1482.5,-112.5 1422.5,-112.5"/>
<text text-anchor="middle" x="1452.5" y="-119.5" font-family="FreeSans.ttf" font-size="10.00" fill="#000000">iostream</text>
</g>
<!-- Node32&#45;&gt;Node34 -->
<g id="edge52" class="edge">
<title>Node32&#45;&gt;Node34</title>
<path fill="none" stroke="#191970" d="M1299.3026,-168.3733C1330.7078,-158.8668 1378.8256,-144.3015 1412.7392,-134.0357"/>
<polygon fill="#191970" stroke="#191970" points="1413.7803,-137.3775 1422.3374,-131.1303 1411.7522,-130.6777 1413.7803,-137.3775"/>
</g>
<!-- Node33&#45;&gt;Node16 -->
<g id="edge48" class="edge">
<title>Node33&#45;&gt;Node16</title>
<path fill="none" stroke="#191970" d="M1174.6614,-112.4369C1132.7315,-102.8529 1068.1052,-88.0812 1023.0376,-77.78"/>
<polygon fill="#191970" stroke="#191970" points="1023.6946,-74.34 1013.1661,-75.5237 1022.1347,-81.164 1023.6946,-74.34"/>
</g>
<!-- Node33&#45;&gt;Node19 -->
<g id="edge47" class="edge">
<title>Node33&#45;&gt;Node19</title>
<path fill="none" stroke="#191970" d="M1202.0425,-112.2455C1189.4268,-103.7337 1170.9056,-91.2375 1156.2955,-81.3801"/>
<polygon fill="#191970" stroke="#191970" points="1158.0391,-78.3343 1147.7918,-75.6427 1154.1239,-84.1371 1158.0391,-78.3343"/>
</g>
<!-- Node33&#45;&gt;Node20 -->
<g id="edge45" class="edge">
<title>Node33&#45;&gt;Node20</title>
<path fill="none" stroke="#191970" d="M1227.4507,-112.3441C1243.7351,-98.3776 1275.729,-72.4179 1306.5,-56 1322.6021,-47.4087 1366.0744,-32.2589 1397.6805,-21.7022"/>
<polygon fill="#191970" stroke="#191970" points="1399.0878,-24.923 1407.4756,-18.4503 1396.8821,-18.2795 1399.0878,-24.923"/>
</g>
<!-- Node33&#45;&gt;Node26 -->
<g id="edge46" class="edge">
<title>Node33&#45;&gt;Node26</title>
<path fill="none" stroke="#191970" d="M1221.2269,-112.3504C1228.4663,-98.3919 1243.4818,-72.442 1262.5,-56 1278.5714,-42.1056 1299.5742,-31.1908 1317.4541,-23.487"/>
<polygon fill="#191970" stroke="#191970" points="1319.1079,-26.5908 1327.015,-19.5389 1316.4361,-20.1207 1319.1079,-26.5908"/>
</g>
<!-- Node36&#45;&gt;Node5 -->
<g id="edge63" class="edge">
<title>Node36&#45;&gt;Node5</title>
<path fill="none" stroke="#191970" d="M418.4073,-280.2479C428.0503,-257.369 455.1621,-199.7853 495.5,-168 523.2345,-146.1459 562.318,-134.0425 589.5766,-127.8059"/>
<polygon fill="#191970" stroke="#191970" points="590.3555,-131.2185 599.3965,-125.6948 588.8842,-124.3749 590.3555,-131.2185"/>
</g>
<!-- Node37&#45;&gt;Node5 -->
<g id="edge67" class="edge">
<title>Node37&#45;&gt;Node5</title>
<path fill="none" stroke="#191970" d="M509.5,-448.4116C509.5,-429.0538 509.5,-383.9167 509.5,-346 509.5,-346 509.5,-346 509.5,-234 509.5,-187.7508 557.8421,-153.9293 591.0065,-136.1683"/>
<polygon fill="#191970" stroke="#191970" points="592.6159,-139.2764 599.9053,-131.5877 589.4122,-133.0526 592.6159,-139.2764"/>
</g>
<!-- Node37&#45;&gt;Node7 -->
<g id="edge68" class="edge">
<title>Node37&#45;&gt;Node7</title>
<path fill="none" stroke="#191970" d="M505.0665,-448.4509C496.4703,-429.936 477.3989,-388.8591 466.1908,-364.7187"/>
<polygon fill="#191970" stroke="#191970" points="469.308,-363.1211 461.9223,-355.5249 462.9589,-366.0689 469.308,-363.1211"/>
</g>
<!-- Node37&#45;&gt;Node10 -->
<g id="edge66" class="edge">
<title>Node37&#45;&gt;Node10</title>
<path fill="none" stroke="#191970" d="M524.1317,-448.2455C536.8994,-439.7337 555.6438,-427.2375 570.4299,-417.3801"/>
<polygon fill="#191970" stroke="#191970" points="572.6569,-420.1019 579.036,-411.6427 568.774,-414.2775 572.6569,-420.1019"/>
</g>
<!-- Node37&#45;&gt;Node12 -->
<g id="edge69" class="edge">
<title>Node37&#45;&gt;Node12</title>
<path fill="none" stroke="#191970" d="M555.0956,-448.4369C601.0785,-438.7925 672.1088,-423.8948 721.2606,-413.5858"/>
<polygon fill="#191970" stroke="#191970" points="722.0239,-417.0019 731.0925,-411.5237 720.587,-410.151 722.0239,-417.0019"/>
</g>
<!-- Node38 -->
<g id="node39" class="node">
<title>Node38</title>
<g id="a_node39"><a xlink:href="Indices_8h.html" target="_top" xlink:title="iDynTree/Model/Indices.h">
<polygon fill="none" stroke="#000000" points="227.5,-168.5 227.5,-187.5 365.5,-187.5 365.5,-168.5 227.5,-168.5"/>
<text text-anchor="middle" x="296.5" y="-175.5" font-family="FreeSans.ttf" font-size="10.00" fill="#000000">iDynTree/Model/Indices.h</text>
</a>
</g>
</g>
<!-- Node37&#45;&gt;Node38 -->
<g id="edge70" class="edge">
<title>Node37&#45;&gt;Node38</title>
<path fill="none" stroke="#191970" d="M494.8746,-448.3445C462.1998,-426.0536 382.6821,-367.6984 338.5,-300 317.1709,-267.3183 305.4207,-222.6164 300.0901,-197.3909"/>
<polygon fill="#191970" stroke="#191970" points="303.5208,-196.6975 298.135,-187.5737 296.6556,-198.0647 303.5208,-196.6975"/>
</g>
<!-- Node38&#45;&gt;Node5 -->
<g id="edge72" class="edge">
<title>Node38&#45;&gt;Node5</title>
<path fill="none" stroke="#191970" d="M352.0002,-168.4369C420.2984,-156.6686 533.9921,-137.0783 589.3038,-127.5476"/>
<polygon fill="#191970" stroke="#191970" points="589.9825,-130.9824 599.2429,-125.8351 588.7938,-124.084 589.9825,-130.9824"/>
</g>
<!-- Node38&#45;&gt;Node17 -->
<g id="edge71" class="edge">
<title>Node38&#45;&gt;Node17</title>
<path fill="none" stroke="#191970" d="M322.4363,-168.4862C399.9667,-140.0471 630.0844,-55.6372 718.9381,-23.0445"/>
<polygon fill="#191970" stroke="#191970" points="720.382,-26.243 728.565,-19.5133 717.9713,-19.6712 720.382,-26.243"/>
</g>
<!-- Node39 -->
<g id="node40" class="node">
<title>Node39</title>
<polygon fill="none" stroke="#bfbfbf" points="253.5,-112.5 253.5,-131.5 339.5,-131.5 339.5,-112.5 253.5,-112.5"/>
<text text-anchor="middle" x="296.5" y="-119.5" font-family="FreeSans.ttf" font-size="10.00" fill="#000000">ModelExport.h</text>
</g>
<!-- Node38&#45;&gt;Node39 -->
<g id="edge73" class="edge">
<title>Node38&#45;&gt;Node39</title>
<path fill="none" stroke="#191970" d="M296.5,-168.2455C296.5,-160.9382 296.5,-150.6944 296.5,-141.7046"/>
<polygon fill="#191970" stroke="#191970" points="300.0001,-141.6426 296.5,-131.6427 293.0001,-141.6427 300.0001,-141.6426"/>
</g>
</g>
</svg>
