<?xml version="1.0" encoding="UTF-8" standalone="no"?>
<!DOCTYPE svg PUBLIC "-//W3C//DTD SVG 1.1//EN"
 "http://www.w3.org/Graphics/SVG/1.1/DTD/svg11.dtd">
<!-- Generated by graphviz version 2.40.1 (20161225.0304)
 -->
<!-- Title: GravityCompensationHelpers.h Pages: 1 -->
<svg width="2109pt" height="789pt"
 viewBox="0.00 0.00 2108.94 789.00" xmlns="http://www.w3.org/2000/svg" xmlns:xlink="http://www.w3.org/1999/xlink">
<g id="graph0" class="graph" transform="scale(1 1) rotate(0) translate(4 785)">
<title>GravityCompensationHelpers.h</title>
<!-- Node0 -->
<g id="node1" class="node">
<title>Node0</title>
<polygon fill="#bfbfbf" stroke="#000000" points="1256.9446,-761.5 1256.9446,-780.5 1426.9446,-780.5 1426.9446,-761.5 1256.9446,-761.5"/>
<text text-anchor="middle" x="1341.9446" y="-768.5" font-family="FreeSans.ttf" font-size="10.00" fill="#000000">GravityCompensationHelpers.h</text>
</g>
<!-- Node1 -->
<g id="node2" class="node">
<title>Node1</title>
<g id="a_node2"><a xlink:href="FreeFloatingState_8h.html" target="_top" xlink:title="iDynTree/Model/FreeFloating\lState.h">
<polygon fill="none" stroke="#000000" points="914.9446,-638.5 914.9446,-668.5 1068.9446,-668.5 1068.9446,-638.5 914.9446,-638.5"/>
<text text-anchor="start" x="922.9446" y="-656.5" font-family="FreeSans.ttf" font-size="10.00" fill="#000000">iDynTree/Model/FreeFloating</text>
<text text-anchor="middle" x="991.9446" y="-645.5" font-family="FreeSans.ttf" font-size="10.00" fill="#000000">State.h</text>
</a>
</g>
</g>
<!-- Node0&#45;&gt;Node1 -->
<g id="edge1" class="edge">
<title>Node0&#45;&gt;Node1</title>
<path fill="none" stroke="#191970" d="M1313.5991,-761.484C1255.5053,-741.9811 1122.0611,-697.182 1046.5766,-671.8407"/>
<polygon fill="#191970" stroke="#191970" points="1047.3658,-668.4138 1036.7719,-668.5492 1045.138,-675.0498 1047.3658,-668.4138"/>
</g>
<!-- Node6 -->
<g id="node7" class="node">
<title>Node6</title>
<g id="a_node7"><a xlink:href="Utils_8h.html" target="_top" xlink:title="iDynTree/Core/Utils.h">
<polygon fill="none" stroke="#000000" points="1667.4446,-56.5 1667.4446,-75.5 1786.4446,-75.5 1786.4446,-56.5 1667.4446,-56.5"/>
<text text-anchor="middle" x="1726.9446" y="-63.5" font-family="FreeSans.ttf" font-size="10.00" fill="#000000">iDynTree/Core/Utils.h</text>
</a>
</g>
</g>
<!-- Node0&#45;&gt;Node6 -->
<g id="edge123" class="edge">
<title>Node0&#45;&gt;Node6</title>
<path fill="none" stroke="#191970" d="M1427.1629,-766.7293C1562.6257,-759.4985 1820.9625,-743.7839 1910.9446,-725 1999.2665,-706.5627 2100.9446,-743.7258 2100.9446,-653.5 2100.9446,-653.5 2100.9446,-653.5 2100.9446,-178 2100.9446,-115.2113 1905.052,-84.643 1796.8113,-72.545"/>
<polygon fill="#191970" stroke="#191970" points="1796.9406,-69.0384 1786.6195,-71.4314 1796.1802,-75.997 1796.9406,-69.0384"/>
</g>
<!-- Node40 -->
<g id="node37" class="node">
<title>Node40</title>
<g id="a_node37"><a xlink:href="Model_8h.html" target="_top" xlink:title="iDynTree/Model/Model.h">
<polygon fill="none" stroke="#000000" points="229.4446,-705.5 229.4446,-724.5 362.4446,-724.5 362.4446,-705.5 229.4446,-705.5"/>
<text text-anchor="middle" x="295.9446" y="-712.5" font-family="FreeSans.ttf" font-size="10.00" fill="#000000">iDynTree/Model/Model.h</text>
</a>
</g>
</g>
<!-- Node0&#45;&gt;Node40 -->
<g id="edge82" class="edge">
<title>Node0&#45;&gt;Node40</title>
<path fill="none" stroke="#191970" d="M1256.7895,-766.441C1057.5604,-755.7748 563.5452,-729.3266 372.8003,-719.1146"/>
<polygon fill="#191970" stroke="#191970" points="372.7565,-715.6074 362.5836,-718.5677 372.3822,-722.5974 372.7565,-715.6074"/>
</g>
<!-- Node49 -->
<g id="node43" class="node">
<title>Node49</title>
<g id="a_node43"><a xlink:href="Traversal_8h.html" target="_top" xlink:title="iDynTree/Model/Traversal.h">
<polygon fill="none" stroke="#000000" points="391.9446,-582.5 391.9446,-601.5 539.9446,-601.5 539.9446,-582.5 391.9446,-582.5"/>
<text text-anchor="middle" x="465.9446" y="-589.5" font-family="FreeSans.ttf" font-size="10.00" fill="#000000">iDynTree/Model/Traversal.h</text>
</a>
</g>
</g>
<!-- Node0&#45;&gt;Node49 -->
<g id="edge102" class="edge">
<title>Node0&#45;&gt;Node49</title>
<path fill="none" stroke="#191970" d="M1300.3865,-761.4555C1260.1184,-752.1927 1197.3279,-737.7105 1142.9446,-725 1037.551,-700.3674 1010.4026,-697.3388 905.9446,-669 860.627,-656.7056 850.8058,-648.0792 804.9446,-638 718.9688,-619.1046 618.9175,-606.6698 549.9063,-599.5482"/>
<polygon fill="#191970" stroke="#191970" points="550.2578,-596.066 539.9549,-598.5359 549.5493,-603.0301 550.2578,-596.066"/>
</g>
<!-- Node50 -->
<g id="node44" class="node">
<title>Node50</title>
<g id="a_node44"><a xlink:href="Dynamics_8h.html" target="_top" xlink:title="iDynTree/Model/Dynamics.h">
<polygon fill="none" stroke="#000000" points="1333.9446,-644 1333.9446,-663 1485.9446,-663 1485.9446,-644 1333.9446,-644"/>
<text text-anchor="middle" x="1409.9446" y="-651" font-family="FreeSans.ttf" font-size="10.00" fill="#000000">iDynTree/Model/Dynamics.h</text>
</a>
</g>
</g>
<!-- Node0&#45;&gt;Node50 -->
<g id="edge105" class="edge">
<title>Node0&#45;&gt;Node50</title>
<path fill="none" stroke="#191970" d="M1347.5093,-761.3845C1358.8161,-741.8471 1384.6422,-697.2211 1399.29,-671.9106"/>
<polygon fill="#191970" stroke="#191970" points="1402.3233,-673.6566 1404.303,-663.2484 1396.2647,-670.1504 1402.3233,-673.6566"/>
</g>
<!-- Node52 -->
<g id="node46" class="node">
<title>Node52</title>
<g id="a_node46"><a xlink:href="EigenHelpers_8h.html" target="_top" xlink:title="iDynTree/Core/EigenHelpers.h">
<polygon fill="none" stroke="#000000" points="1697.4446,-526.5 1697.4446,-545.5 1858.4446,-545.5 1858.4446,-526.5 1697.4446,-526.5"/>
<text text-anchor="middle" x="1777.9446" y="-533.5" font-family="FreeSans.ttf" font-size="10.00" fill="#000000">iDynTree/Core/EigenHelpers.h</text>
</a>
</g>
</g>
<!-- Node0&#45;&gt;Node52 -->
<g id="edge112" class="edge">
<title>Node0&#45;&gt;Node52</title>
<path fill="none" stroke="#191970" d="M1361.7242,-761.3594C1413.0321,-736.227 1554.3797,-666.1934 1668.9446,-602 1698.8342,-585.2521 1732.4527,-564.6124 1754.3486,-550.9196"/>
<polygon fill="#191970" stroke="#191970" points="1756.3608,-553.789 1762.9698,-545.5082 1752.6394,-547.8602 1756.3608,-553.789"/>
</g>
<!-- Node54 -->
<g id="node48" class="node">
<title>Node54</title>
<g id="a_node48"><a xlink:href="ClassicalAcc_8h.html" target="_top" xlink:title="iDynTree/Core/ClassicalAcc.h">
<polygon fill="none" stroke="#000000" points="1800.9446,-403.5 1800.9446,-422.5 1958.9446,-422.5 1958.9446,-403.5 1800.9446,-403.5"/>
<text text-anchor="middle" x="1879.9446" y="-410.5" font-family="FreeSans.ttf" font-size="10.00" fill="#000000">iDynTree/Core/ClassicalAcc.h</text>
</a>
</g>
</g>
<!-- Node0&#45;&gt;Node54 -->
<g id="edge124" class="edge">
<title>Node0&#45;&gt;Node54</title>
<path fill="none" stroke="#191970" d="M1427.128,-765.9081C1617.9165,-753.3639 2062.9446,-717.2692 2062.9446,-653.5 2062.9446,-653.5 2062.9446,-653.5 2062.9446,-536 2062.9446,-473.6553 1988.8788,-440.8542 1934.9863,-425.2391"/>
<polygon fill="#191970" stroke="#191970" points="1935.7522,-421.8195 1925.1805,-422.5202 1933.8818,-428.565 1935.7522,-421.8195"/>
</g>
<!-- Node55 -->
<g id="node49" class="node">
<title>Node55</title>
<g id="a_node49"><a xlink:href="ExternalWrenchesEstimation_8h.html" target="_top" xlink:title="iDynTree/Estimation\l/ExternalWrenchesEstimation.h">
<polygon fill="none" stroke="#000000" points="1146.4446,-638.5 1146.4446,-668.5 1315.4446,-668.5 1315.4446,-638.5 1146.4446,-638.5"/>
<text text-anchor="start" x="1154.4446" y="-656.5" font-family="FreeSans.ttf" font-size="10.00" fill="#000000">iDynTree/Estimation</text>
<text text-anchor="middle" x="1230.9446" y="-645.5" font-family="FreeSans.ttf" font-size="10.00" fill="#000000">/ExternalWrenchesEstimation.h</text>
</a>
</g>
</g>
<!-- Node0&#45;&gt;Node55 -->
<g id="edge126" class="edge">
<title>Node0&#45;&gt;Node55</title>
<path fill="none" stroke="#191970" d="M1332.861,-761.3845C1315.4055,-742.9068 1276.7509,-701.9887 1252.3821,-676.1928"/>
<polygon fill="#191970" stroke="#191970" points="1254.7287,-673.5801 1245.3173,-668.7143 1249.6402,-678.3871 1254.7287,-673.5801"/>
</g>
<!-- Node2 -->
<g id="node3" class="node">
<title>Node2</title>
<g id="a_node3"><a xlink:href="Transform_8h.html" target="_top" xlink:title="iDynTree/Core/Transform.h">
<polygon fill="none" stroke="#000000" points="480.9446,-465 480.9446,-484 626.9446,-484 626.9446,-465 480.9446,-465"/>
<text text-anchor="middle" x="553.9446" y="-472" font-family="FreeSans.ttf" font-size="10.00" fill="#000000">iDynTree/Core/Transform.h</text>
</a>
</g>
</g>
<!-- Node1&#45;&gt;Node2 -->
<g id="edge2" class="edge">
<title>Node1&#45;&gt;Node2</title>
<path fill="none" stroke="#191970" d="M914.687,-642.6825C814.5157,-628.5592 651.8162,-605.2456 645.9446,-602 602.1148,-577.7724 573.8551,-522.7845 561.3601,-493.5704"/>
<polygon fill="#191970" stroke="#191970" points="564.5009,-492.0042 557.4703,-484.0782 558.0236,-494.6586 564.5009,-492.0042"/>
</g>
<!-- Node27 -->
<g id="node24" class="node">
<title>Node27</title>
<g id="a_node24"><a xlink:href="Twist_8h.html" target="_top" xlink:title="iDynTree/Core/Twist.h">
<polygon fill="none" stroke="#000000" points="889.9446,-526.5 889.9446,-545.5 1011.9446,-545.5 1011.9446,-526.5 889.9446,-526.5"/>
<text text-anchor="middle" x="950.9446" y="-533.5" font-family="FreeSans.ttf" font-size="10.00" fill="#000000">iDynTree/Core/Twist.h</text>
</a>
</g>
</g>
<!-- Node1&#45;&gt;Node27 -->
<g id="edge43" class="edge">
<title>Node1&#45;&gt;Node27</title>
<path fill="none" stroke="#191970" d="M996.0788,-638.3798C999.3621,-623.475 1002.301,-600.3335 994.9446,-582 990.2813,-570.3782 981.1257,-560.0324 972.3684,-552.1099"/>
<polygon fill="#191970" stroke="#191970" points="974.4814,-549.3136 964.5782,-545.5484 969.9719,-554.6675 974.4814,-549.3136"/>
</g>
<!-- Node30 -->
<g id="node27" class="node">
<title>Node30</title>
<g id="a_node27"><a xlink:href="VectorDynSize_8h.html" target="_top" xlink:title="iDynTree/Core/VectorDynSize.h">
<polygon fill="none" stroke="#000000" points="1155.4446,-465 1155.4446,-484 1322.4446,-484 1322.4446,-465 1155.4446,-465"/>
<text text-anchor="middle" x="1238.9446" y="-472" font-family="FreeSans.ttf" font-size="10.00" fill="#000000">iDynTree/Core/VectorDynSize.h</text>
</a>
</g>
</g>
<!-- Node1&#45;&gt;Node30 -->
<g id="edge54" class="edge">
<title>Node1&#45;&gt;Node30</title>
<path fill="none" stroke="#191970" d="M914.8946,-643.0457C842.8255,-632.6762 740.7817,-616.3098 702.9446,-602 653.3375,-583.2388 574.7231,-564.7407 610.9446,-526 651.6344,-482.4801 1086.7673,-496.9056 1145.9446,-490 1156.1707,-488.8067 1166.986,-487.264 1177.4835,-485.6158"/>
<polygon fill="#191970" stroke="#191970" points="1178.107,-489.0606 1187.4211,-484.0111 1176.991,-482.1501 1178.107,-489.0606"/>
</g>
<!-- Node31 -->
<g id="node28" class="node">
<title>Node31</title>
<g id="a_node28"><a xlink:href="Indices_8h.html" target="_top" xlink:title="iDynTree/Model/Indices.h">
<polygon fill="none" stroke="#000000" points="273.9446,-526.5 273.9446,-545.5 411.9446,-545.5 411.9446,-526.5 273.9446,-526.5"/>
<text text-anchor="middle" x="342.9446" y="-533.5" font-family="FreeSans.ttf" font-size="10.00" fill="#000000">iDynTree/Model/Indices.h</text>
</a>
</g>
</g>
<!-- Node1&#45;&gt;Node31 -->
<g id="edge57" class="edge">
<title>Node1&#45;&gt;Node31</title>
<path fill="none" stroke="#191970" d="M914.7145,-647.0812C751.104,-633.4683 384.3456,-602.8689 382.9446,-602 365.922,-591.4424 355.1398,-570.7073 349.1147,-555.2822"/>
<polygon fill="#191970" stroke="#191970" points="352.3345,-553.8904 345.6853,-545.6419 345.7394,-556.2366 352.3345,-553.8904"/>
</g>
<!-- Node33 -->
<g id="node30" class="node">
<title>Node33</title>
<g id="a_node30"><a xlink:href="LinkState_8h.html" target="_top" xlink:title="iDynTree/Model/LinkState.h">
<polygon fill="none" stroke="#000000" points="1041.4446,-582.5 1041.4446,-601.5 1190.4446,-601.5 1190.4446,-582.5 1041.4446,-582.5"/>
<text text-anchor="middle" x="1115.9446" y="-589.5" font-family="FreeSans.ttf" font-size="10.00" fill="#000000">iDynTree/Model/LinkState.h</text>
</a>
</g>
</g>
<!-- Node1&#45;&gt;Node33 -->
<g id="edge61" class="edge">
<title>Node1&#45;&gt;Node33</title>
<path fill="none" stroke="#191970" d="M1022.2784,-638.4554C1042.2422,-628.554 1068.1936,-615.683 1087.7161,-606.0004"/>
<polygon fill="#191970" stroke="#191970" points="1089.3254,-609.1091 1096.729,-601.5303 1086.2152,-602.838 1089.3254,-609.1091"/>
</g>
<!-- Node38 -->
<g id="node35" class="node">
<title>Node38</title>
<polygon fill="none" stroke="#bfbfbf" points="620.4446,-526.5 620.4446,-545.5 667.4446,-545.5 667.4446,-526.5 620.4446,-526.5"/>
<text text-anchor="middle" x="643.9446" y="-533.5" font-family="FreeSans.ttf" font-size="10.00" fill="#000000">vector</text>
</g>
<!-- Node1&#45;&gt;Node38 -->
<g id="edge81" class="edge">
<title>Node1&#45;&gt;Node38</title>
<path fill="none" stroke="#191970" d="M914.6516,-640.7294C853.7752,-630.064 774.2959,-614.6204 743.9446,-602 713.6302,-589.3949 682.6852,-567.2463 663.4095,-552.1126"/>
<polygon fill="#191970" stroke="#191970" points="665.4115,-549.2319 655.4183,-545.7124 661.0356,-554.6956 665.4115,-549.2319"/>
</g>
<!-- Node39 -->
<g id="node36" class="node">
<title>Node39</title>
<g id="a_node36"><a xlink:href="JointState_8h.html" target="_top" xlink:title="iDynTree/Model/JointState.h">
<polygon fill="none" stroke="#000000" points="1334.4446,-582.5 1334.4446,-601.5 1485.4446,-601.5 1485.4446,-582.5 1334.4446,-582.5"/>
<text text-anchor="middle" x="1409.9446" y="-589.5" font-family="FreeSans.ttf" font-size="10.00" fill="#000000">iDynTree/Model/JointState.h</text>
</a>
</g>
</g>
<!-- Node1&#45;&gt;Node39 -->
<g id="edge76" class="edge">
<title>Node1&#45;&gt;Node39</title>
<path fill="none" stroke="#191970" d="M1069.0994,-642.1483C1144.9125,-630.994 1259.8461,-614.0839 1334.9169,-603.0388"/>
<polygon fill="#191970" stroke="#191970" points="1335.8529,-606.4388 1345.2369,-601.5204 1334.8339,-599.5134 1335.8529,-606.4388"/>
</g>
<!-- Node3 -->
<g id="node4" class="node">
<title>Node3</title>
<g id="a_node4"><a xlink:href="Position_8h.html" target="_top" xlink:title="iDynTree/Core/Position.h">
<polygon fill="none" stroke="#000000" points="751.9446,-347.5 751.9446,-366.5 887.9446,-366.5 887.9446,-347.5 751.9446,-347.5"/>
<text text-anchor="middle" x="819.9446" y="-354.5" font-family="FreeSans.ttf" font-size="10.00" fill="#000000">iDynTree/Core/Position.h</text>
</a>
</g>
</g>
<!-- Node2&#45;&gt;Node3 -->
<g id="edge3" class="edge">
<title>Node2&#45;&gt;Node3</title>
<path fill="none" stroke="#191970" d="M575.7125,-464.8845C622.8842,-444.0474 734.6598,-394.6728 789.0911,-370.6289"/>
<polygon fill="#191970" stroke="#191970" points="790.5159,-373.8258 798.249,-366.5836 787.6874,-367.4227 790.5159,-373.8258"/>
</g>
<!-- Node18 -->
<g id="node15" class="node">
<title>Node18</title>
<polygon fill="none" stroke="#bfbfbf" points="665.9446,-112.5 665.9446,-131.5 709.9446,-131.5 709.9446,-112.5 665.9446,-112.5"/>
<text text-anchor="middle" x="687.9446" y="-119.5" font-family="FreeSans.ttf" font-size="10.00" fill="#000000">string</text>
</g>
<!-- Node2&#45;&gt;Node18 -->
<g id="edge42" class="edge">
<title>Node2&#45;&gt;Node18</title>
<path fill="none" stroke="#191970" d="M496.5624,-464.9618C443.0931,-455.2838 367.9648,-439.4257 342.9446,-423 312.1812,-402.8039 292.9446,-393.8004 292.9446,-357 292.9446,-357 292.9446,-357 292.9446,-301 292.9446,-227.3106 327.2075,-203.2028 391.9446,-168 437.0469,-143.4742 588.644,-129.4176 655.6423,-124.2699"/>
<polygon fill="#191970" stroke="#191970" points="655.9294,-127.7583 665.6395,-123.52 655.4057,-120.7779 655.9294,-127.7583"/>
</g>
<!-- Node21 -->
<g id="node18" class="node">
<title>Node21</title>
<g id="a_node18"><a xlink:href="Rotation_8h.html" target="_top" xlink:title="iDynTree/Core/Rotation.h">
<polygon fill="none" stroke="#000000" points="788.4446,-291.5 788.4446,-310.5 925.4446,-310.5 925.4446,-291.5 788.4446,-291.5"/>
<text text-anchor="middle" x="856.9446" y="-298.5" font-family="FreeSans.ttf" font-size="10.00" fill="#000000">iDynTree/Core/Rotation.h</text>
</a>
</g>
</g>
<!-- Node2&#45;&gt;Node21 -->
<g id="edge40" class="edge">
<title>Node2&#45;&gt;Node21</title>
<path fill="none" stroke="#191970" d="M566.2011,-464.8828C595.4844,-442.2137 672.343,-384.5223 742.9446,-347 767.4053,-334 796.3666,-322.3577 818.9773,-314.038"/>
<polygon fill="#191970" stroke="#191970" points="820.3506,-317.2632 828.5628,-310.5692 817.9686,-310.681 820.3506,-317.2632"/>
</g>
<!-- Node24 -->
<g id="node21" class="node">
<title>Node24</title>
<g id="a_node21"><a xlink:href="MatrixFixSize_8h.html" target="_top" xlink:title="iDynTree/Core/MatrixFixSize.h">
<polygon fill="none" stroke="#000000" points="1086.4446,-168.5 1086.4446,-187.5 1247.4446,-187.5 1247.4446,-168.5 1086.4446,-168.5"/>
<text text-anchor="middle" x="1166.9446" y="-175.5" font-family="FreeSans.ttf" font-size="10.00" fill="#000000">iDynTree/Core/MatrixFixSize.h</text>
</a>
</g>
</g>
<!-- Node2&#45;&gt;Node24 -->
<g id="edge41" class="edge">
<title>Node2&#45;&gt;Node24</title>
<path fill="none" stroke="#191970" d="M480.926,-466.4234C415.8898,-454.695 330.9446,-426.142 330.9446,-357 330.9446,-357 330.9446,-357 330.9446,-301 330.9446,-258.4214 350.5025,-244.2738 387.9446,-224 447.1234,-191.9565 883.7172,-181.9433 1076.2135,-179.0661"/>
<polygon fill="#191970" stroke="#191970" points="1076.3606,-182.5644 1086.3083,-178.9184 1076.2581,-175.5651 1076.3606,-182.5644"/>
</g>
<!-- Node4 -->
<g id="node5" class="node">
<title>Node4</title>
<g id="a_node5"><a xlink:href="PositionRaw_8h.html" target="_top" xlink:title="iDynTree/Core/PositionRaw.h">
<polygon fill="none" stroke="#000000" points="396.9446,-230 396.9446,-249 552.9446,-249 552.9446,-230 396.9446,-230"/>
<text text-anchor="middle" x="474.9446" y="-237" font-family="FreeSans.ttf" font-size="10.00" fill="#000000">iDynTree/Core/PositionRaw.h</text>
</a>
</g>
</g>
<!-- Node3&#45;&gt;Node4 -->
<g id="edge4" class="edge">
<title>Node3&#45;&gt;Node4</title>
<path fill="none" stroke="#191970" d="M810.6355,-347.1742C796.1355,-332.5004 766.6206,-305.0832 735.9446,-291 718.3667,-282.9301 612.0418,-263.3707 540.6381,-250.8132"/>
<polygon fill="#191970" stroke="#191970" points="540.8254,-247.2927 530.3712,-249.0134 539.6167,-254.1876 540.8254,-247.2927"/>
</g>
<!-- Node3&#45;&gt;Node18 -->
<g id="edge39" class="edge">
<title>Node3&#45;&gt;Node18</title>
<path fill="none" stroke="#191970" d="M751.5729,-350.9881C641.4354,-339.7311 432.5389,-311.3497 387.9446,-255 313.5509,-160.9955 564.1323,-131.67 655.7237,-124.2073"/>
<polygon fill="#191970" stroke="#191970" points="656.1272,-127.6866 665.8254,-123.421 655.5839,-120.7077 656.1272,-127.6866"/>
</g>
<!-- Node3&#45;&gt;Node21 -->
<g id="edge21" class="edge">
<title>Node3&#45;&gt;Node21</title>
<path fill="none" stroke="#191970" d="M826.3895,-347.2455C831.4828,-339.5367 838.7354,-328.5598 844.8966,-319.2348"/>
<polygon fill="#191970" stroke="#191970" points="847.9811,-320.9155 850.5735,-310.6427 842.1407,-317.0566 847.9811,-320.9155"/>
</g>
<!-- Node5 -->
<g id="node6" class="node">
<title>Node5</title>
<g id="a_node6"><a xlink:href="VectorFixSize_8h.html" target="_top" xlink:title="iDynTree/Core/VectorFixSize.h">
<polygon fill="none" stroke="#000000" points="1393.4446,-168.5 1393.4446,-187.5 1554.4446,-187.5 1554.4446,-168.5 1393.4446,-168.5"/>
<text text-anchor="middle" x="1473.9446" y="-175.5" font-family="FreeSans.ttf" font-size="10.00" fill="#000000">iDynTree/Core/VectorFixSize.h</text>
</a>
</g>
</g>
<!-- Node4&#45;&gt;Node5 -->
<g id="edge5" class="edge">
<title>Node4&#45;&gt;Node5</title>
<path fill="none" stroke="#191970" d="M544.6026,-229.976C562.6036,-227.7583 581.9736,-225.5851 599.9446,-224 676.2745,-217.2674 1174.9734,-192.5839 1383.0228,-182.4191"/>
<polygon fill="#191970" stroke="#191970" points="1383.4902,-185.9006 1393.3076,-181.9169 1383.1487,-178.9089 1383.4902,-185.9006"/>
</g>
<!-- Node4&#45;&gt;Node18 -->
<g id="edge20" class="edge">
<title>Node4&#45;&gt;Node18</title>
<path fill="none" stroke="#191970" d="M485.2484,-229.7979C501.5274,-214.8795 534.6727,-186.1355 566.9446,-168 595.5291,-151.9366 630.8334,-139.2418 655.9137,-131.2934"/>
<polygon fill="#191970" stroke="#191970" points="657.1337,-134.5797 665.6536,-128.282 655.0659,-127.8921 657.1337,-134.5797"/>
</g>
<!-- Node5&#45;&gt;Node6 -->
<g id="edge6" class="edge">
<title>Node5&#45;&gt;Node6</title>
<path fill="none" stroke="#191970" d="M1541.7703,-168.4409C1576.4785,-161.638 1618.5458,-150.3447 1652.9446,-132 1676.2702,-119.5605 1698.2389,-98.2964 1712.0855,-83.2706"/>
<polygon fill="#191970" stroke="#191970" points="1714.8363,-85.4452 1718.8994,-75.6604 1709.6213,-80.7758 1714.8363,-85.4452"/>
</g>
<!-- Node7 -->
<g id="node8" class="node">
<title>Node7</title>
<polygon fill="none" stroke="#bfbfbf" points="1612.4446,-.5 1612.4446,-19.5 1665.4446,-19.5 1665.4446,-.5 1612.4446,-.5"/>
<text text-anchor="middle" x="1638.9446" y="-7.5" font-family="FreeSans.ttf" font-size="10.00" fill="#000000">cstddef</text>
</g>
<!-- Node5&#45;&gt;Node7 -->
<g id="edge18" class="edge">
<title>Node5&#45;&gt;Node7</title>
<path fill="none" stroke="#191970" d="M1530.7147,-168.4902C1554.5544,-161.872 1580.8816,-150.7214 1598.9446,-132 1626.2998,-103.6477 1634.949,-56.2894 1637.6826,-29.685"/>
<polygon fill="#191970" stroke="#191970" points="1641.1743,-29.929 1638.5292,-19.6697 1634.1992,-29.3393 1641.1743,-29.929"/>
</g>
<!-- Node9 -->
<g id="node10" class="node">
<title>Node9</title>
<g id="a_node10"><a xlink:href="Span_8h.html" target="_top" xlink:title="iDynTree/Core/Span.h">
<polygon fill="none" stroke="#ff0000" points="1244.4446,-56.5 1244.4446,-75.5 1365.4446,-75.5 1365.4446,-56.5 1244.4446,-56.5"/>
<text text-anchor="middle" x="1304.9446" y="-63.5" font-family="FreeSans.ttf" font-size="10.00" fill="#000000">iDynTree/Core/Span.h</text>
</a>
</g>
</g>
<!-- Node5&#45;&gt;Node9 -->
<g id="edge9" class="edge">
<title>Node5&#45;&gt;Node9</title>
<path fill="none" stroke="#191970" d="M1459.5357,-168.4509C1430.2261,-149.0268 1363.4462,-104.7703 1328.0153,-81.2895"/>
<polygon fill="#191970" stroke="#191970" points="1329.5861,-78.1317 1319.317,-75.5249 1325.7191,-83.9666 1329.5861,-78.1317"/>
</g>
<!-- Node10 -->
<g id="node11" class="node">
<title>Node10</title>
<polygon fill="none" stroke="#bfbfbf" points="1451.9446,-.5 1451.9446,-19.5 1503.9446,-19.5 1503.9446,-.5 1451.9446,-.5"/>
<text text-anchor="middle" x="1477.9446" y="-7.5" font-family="FreeSans.ttf" font-size="10.00" fill="#000000">cassert</text>
</g>
<!-- Node5&#45;&gt;Node10 -->
<g id="edge17" class="edge">
<title>Node5&#45;&gt;Node10</title>
<path fill="none" stroke="#191970" d="M1526.1587,-168.4856C1546.8437,-161.8822 1568.5996,-150.7446 1580.9446,-132 1608.539,-90.1006 1545.6319,-46.466 1506.3983,-24.4927"/>
<polygon fill="#191970" stroke="#191970" points="1507.9343,-21.3439 1497.4777,-19.6377 1504.588,-27.4923 1507.9343,-21.3439"/>
</g>
<!-- Node5&#45;&gt;Node18 -->
<g id="edge15" class="edge">
<title>Node5&#45;&gt;Node18</title>
<path fill="none" stroke="#191970" d="M1393.1562,-172.2441C1223.1386,-160.1309 834.6445,-132.4519 720.2211,-124.2996"/>
<polygon fill="#191970" stroke="#191970" points="720.2435,-120.7924 710.02,-123.5728 719.7459,-127.7747 720.2435,-120.7924"/>
</g>
<!-- Node19 -->
<g id="node16" class="node">
<title>Node19</title>
<polygon fill="none" stroke="#bfbfbf" points="1202.9446,-112.5 1202.9446,-131.5 1258.9446,-131.5 1258.9446,-112.5 1202.9446,-112.5"/>
<text text-anchor="middle" x="1230.9446" y="-119.5" font-family="FreeSans.ttf" font-size="10.00" fill="#000000">sstream</text>
</g>
<!-- Node5&#45;&gt;Node19 -->
<g id="edge16" class="edge">
<title>Node5&#45;&gt;Node19</title>
<path fill="none" stroke="#191970" d="M1432.4475,-168.4369C1386.5458,-157.8587 1313.2201,-140.9606 1268.8235,-130.7293"/>
<polygon fill="#191970" stroke="#191970" points="1269.5325,-127.301 1259.0019,-128.4659 1267.9605,-134.1222 1269.5325,-127.301"/>
</g>
<!-- Node20 -->
<g id="node17" class="node">
<title>Node20</title>
<polygon fill="none" stroke="#bfbfbf" points="1314.9446,-112.5 1314.9446,-131.5 1364.9446,-131.5 1364.9446,-112.5 1314.9446,-112.5"/>
<text text-anchor="middle" x="1339.9446" y="-119.5" font-family="FreeSans.ttf" font-size="10.00" fill="#000000">cstring</text>
</g>
<!-- Node5&#45;&gt;Node20 -->
<g id="edge19" class="edge">
<title>Node5&#45;&gt;Node20</title>
<path fill="none" stroke="#191970" d="M1450.9092,-168.3733C1429.2058,-159.3032 1396.4827,-145.6279 1372.1896,-135.4755"/>
<polygon fill="#191970" stroke="#191970" points="1373.2557,-132.1278 1362.6794,-131.5011 1370.5565,-138.5865 1373.2557,-132.1278"/>
</g>
<!-- Node6&#45;&gt;Node7 -->
<g id="edge7" class="edge">
<title>Node6&#45;&gt;Node7</title>
<path fill="none" stroke="#191970" d="M1711.6162,-56.2455C1698.1142,-47.6534 1678.2324,-35.0014 1662.676,-25.1018"/>
<polygon fill="#191970" stroke="#191970" points="1664.4131,-22.0587 1654.0974,-19.6427 1660.6549,-27.9643 1664.4131,-22.0587"/>
</g>
<!-- Node8 -->
<g id="node9" class="node">
<title>Node8</title>
<polygon fill="none" stroke="#bfbfbf" points="1686.9446,-.5 1686.9446,-19.5 1766.9446,-19.5 1766.9446,-.5 1686.9446,-.5"/>
<text text-anchor="middle" x="1726.9446" y="-7.5" font-family="FreeSans.ttf" font-size="10.00" fill="#000000">CoreExport.h</text>
</g>
<!-- Node6&#45;&gt;Node8 -->
<g id="edge8" class="edge">
<title>Node6&#45;&gt;Node8</title>
<path fill="none" stroke="#191970" d="M1726.9446,-56.2455C1726.9446,-48.9382 1726.9446,-38.6944 1726.9446,-29.7046"/>
<polygon fill="#191970" stroke="#191970" points="1730.4447,-29.6426 1726.9446,-19.6427 1723.4447,-29.6427 1730.4447,-29.6426"/>
</g>
<!-- Node9&#45;&gt;Node7 -->
<g id="edge13" class="edge">
<title>Node9&#45;&gt;Node7</title>
<path fill="none" stroke="#191970" d="M1361.9817,-56.4369C1430.5632,-44.9382 1543.684,-25.9718 1601.8567,-16.2183"/>
<polygon fill="#191970" stroke="#191970" points="1602.7727,-19.6137 1612.0562,-14.5082 1601.6151,-12.7101 1602.7727,-19.6137"/>
</g>
<!-- Node9&#45;&gt;Node10 -->
<g id="edge10" class="edge">
<title>Node9&#45;&gt;Node10</title>
<path fill="none" stroke="#191970" d="M1334.6843,-56.3733C1364.4105,-46.7509 1410.1488,-31.9455 1441.9171,-21.6621"/>
<polygon fill="#191970" stroke="#191970" points="1443.2666,-24.9041 1451.7027,-18.4945 1441.1108,-18.2443 1443.2666,-24.9041"/>
</g>
<!-- Node11 -->
<g id="node12" class="node">
<title>Node11</title>
<polygon fill="none" stroke="#bfbfbf" points="1201.9446,-.5 1201.9446,-19.5 1265.9446,-19.5 1265.9446,-.5 1201.9446,-.5"/>
<text text-anchor="middle" x="1233.9446" y="-7.5" font-family="FreeSans.ttf" font-size="10.00" fill="#000000">algorithm</text>
</g>
<!-- Node9&#45;&gt;Node11 -->
<g id="edge11" class="edge">
<title>Node9&#45;&gt;Node11</title>
<path fill="none" stroke="#191970" d="M1292.5773,-56.2455C1281.9892,-47.8943 1266.5382,-35.7076 1254.1553,-25.9408"/>
<polygon fill="#191970" stroke="#191970" points="1256.1893,-23.0875 1246.1701,-19.6427 1251.8543,-28.5837 1256.1893,-23.0875"/>
</g>
<!-- Node12 -->
<g id="node13" class="node">
<title>Node12</title>
<polygon fill="none" stroke="#bfbfbf" points="1283.9446,-.5 1283.9446,-19.5 1325.9446,-19.5 1325.9446,-.5 1283.9446,-.5"/>
<text text-anchor="middle" x="1304.9446" y="-7.5" font-family="FreeSans.ttf" font-size="10.00" fill="#000000">array</text>
</g>
<!-- Node9&#45;&gt;Node12 -->
<g id="edge12" class="edge">
<title>Node9&#45;&gt;Node12</title>
<path fill="none" stroke="#191970" d="M1304.9446,-56.2455C1304.9446,-48.9382 1304.9446,-38.6944 1304.9446,-29.7046"/>
<polygon fill="#191970" stroke="#191970" points="1308.4447,-29.6426 1304.9446,-19.6427 1301.4447,-29.6427 1308.4447,-29.6426"/>
</g>
<!-- Node13 -->
<g id="node14" class="node">
<title>Node13</title>
<polygon fill="none" stroke="#bfbfbf" points="1344.4446,-.5 1344.4446,-19.5 1397.4446,-19.5 1397.4446,-.5 1344.4446,-.5"/>
<text text-anchor="middle" x="1370.9446" y="-7.5" font-family="FreeSans.ttf" font-size="10.00" fill="#000000">iterator</text>
</g>
<!-- Node9&#45;&gt;Node13 -->
<g id="edge14" class="edge">
<title>Node9&#45;&gt;Node13</title>
<path fill="none" stroke="#191970" d="M1316.4409,-56.2455C1326.1888,-47.9746 1340.3705,-35.9416 1351.8244,-26.2232"/>
<polygon fill="#191970" stroke="#191970" points="1354.2193,-28.7813 1359.58,-19.6427 1349.6905,-23.4437 1354.2193,-28.7813"/>
</g>
<!-- Node21&#45;&gt;Node5 -->
<g id="edge38" class="edge">
<title>Node21&#45;&gt;Node5</title>
<path fill="none" stroke="#191970" d="M884.2761,-291.3829C907.3507,-282.887 940.9998,-269.6043 968.9446,-255 991.4519,-243.2374 992.9764,-232.3944 1016.9446,-224 1082.328,-201.1008 1269.4861,-188.0952 1382.9929,-182.1022"/>
<polygon fill="#191970" stroke="#191970" points="1383.2588,-185.5932 1393.0636,-181.5787 1382.8953,-178.6027 1383.2588,-185.5932"/>
</g>
<!-- Node21&#45;&gt;Node18 -->
<g id="edge22" class="edge">
<title>Node21&#45;&gt;Node18</title>
<path fill="none" stroke="#191970" d="M788.1372,-293.2503C716.1798,-284.4392 611.9991,-269.4037 599.9446,-255 566.8544,-215.4612 628.4689,-163.0698 664.5176,-137.4455"/>
<polygon fill="#191970" stroke="#191970" points="666.8294,-140.102 673.0585,-131.5317 662.8445,-134.3469 666.8294,-140.102"/>
</g>
<!-- Node22 -->
<g id="node19" class="node">
<title>Node22</title>
<g id="a_node19"><a xlink:href="GeomVector3_8h.html" target="_top" xlink:title="iDynTree/Core/GeomVector3.h">
<polygon fill="none" stroke="#000000" points="1059.4446,-230 1059.4446,-249 1222.4446,-249 1222.4446,-230 1059.4446,-230"/>
<text text-anchor="middle" x="1140.9446" y="-237" font-family="FreeSans.ttf" font-size="10.00" fill="#000000">iDynTree/Core/GeomVector3.h</text>
</a>
</g>
</g>
<!-- Node21&#45;&gt;Node22 -->
<g id="edge23" class="edge">
<title>Node21&#45;&gt;Node22</title>
<path fill="none" stroke="#191970" d="M901.008,-291.4581C951.0659,-280.6181 1032.7827,-262.9224 1086.7128,-251.2439"/>
<polygon fill="#191970" stroke="#191970" points="1087.7451,-254.6015 1096.7778,-249.0643 1086.2636,-247.7601 1087.7451,-254.6015"/>
</g>
<!-- Node23 -->
<g id="node20" class="node">
<title>Node23</title>
<g id="a_node20"><a xlink:href="RotationRaw_8h.html" target="_top" xlink:title="iDynTree/Core/RotationRaw.h">
<polygon fill="none" stroke="#000000" points="608.9446,-230 608.9446,-249 766.9446,-249 766.9446,-230 608.9446,-230"/>
<text text-anchor="middle" x="687.9446" y="-237" font-family="FreeSans.ttf" font-size="10.00" fill="#000000">iDynTree/Core/RotationRaw.h</text>
</a>
</g>
</g>
<!-- Node21&#45;&gt;Node23 -->
<g id="edge25" class="edge">
<title>Node21&#45;&gt;Node23</title>
<path fill="none" stroke="#191970" d="M830.5383,-291.3906C801.7654,-280.92 755.575,-264.1111 723.598,-252.4745"/>
<polygon fill="#191970" stroke="#191970" points="724.7594,-249.1726 714.1654,-249.0419 722.3656,-255.7506 724.7594,-249.1726"/>
</g>
<!-- Node22&#45;&gt;Node5 -->
<g id="edge24" class="edge">
<title>Node22&#45;&gt;Node5</title>
<path fill="none" stroke="#191970" d="M1192.6105,-229.9581C1252.0019,-218.9894 1349.4013,-201.0012 1412.5942,-189.3305"/>
<polygon fill="#191970" stroke="#191970" points="1413.2335,-192.7717 1422.4315,-187.5137 1411.9621,-185.8881 1413.2335,-192.7717"/>
</g>
<!-- Node23&#45;&gt;Node18 -->
<g id="edge37" class="edge">
<title>Node23&#45;&gt;Node18</title>
<path fill="none" stroke="#191970" d="M687.9446,-229.8845C687.9446,-210.6913 687.9446,-167.286 687.9446,-141.7663"/>
<polygon fill="#191970" stroke="#191970" points="691.4447,-141.7483 687.9446,-131.7484 684.4447,-141.7484 691.4447,-141.7483"/>
</g>
<!-- Node23&#45;&gt;Node24 -->
<g id="edge26" class="edge">
<title>Node23&#45;&gt;Node24</title>
<path fill="none" stroke="#191970" d="M739.0508,-229.9884C751.1268,-227.8824 763.9727,-225.7571 775.9446,-224 878.5727,-208.9374 996.9295,-195.5678 1076.3008,-187.1774"/>
<polygon fill="#191970" stroke="#191970" points="1076.688,-190.656 1086.2666,-186.1284 1075.9552,-183.6945 1076.688,-190.656"/>
</g>
<!-- Node24&#45;&gt;Node6 -->
<g id="edge27" class="edge">
<title>Node24&#45;&gt;Node6</title>
<path fill="none" stroke="#191970" d="M1150.3923,-168.3922C1129.5671,-155.1488 1098.5145,-130.7917 1115.9446,-112 1134.1208,-92.4039 1500.4414,-75.2213 1656.9875,-68.7434"/>
<polygon fill="#191970" stroke="#191970" points="1657.5915,-72.2216 1667.4393,-68.3139 1657.304,-65.2275 1657.5915,-72.2216"/>
</g>
<!-- Node24&#45;&gt;Node10 -->
<g id="edge32" class="edge">
<title>Node24&#45;&gt;Node10</title>
<path fill="none" stroke="#191970" d="M1146.6995,-168.3329C1124.0907,-156.1646 1092.4507,-134.1614 1106.9446,-112 1140.9323,-60.0323 1175.6182,-74.3354 1234.9446,-56 1272.9839,-44.2435 1383.4389,-25.3793 1441.424,-15.8756"/>
<polygon fill="#191970" stroke="#191970" points="1442.3052,-19.2782 1451.6113,-14.2138 1441.1782,-12.3695 1442.3052,-19.2782"/>
</g>
<!-- Node24&#45;&gt;Node18 -->
<g id="edge34" class="edge">
<title>Node24&#45;&gt;Node18</title>
<path fill="none" stroke="#191970" d="M1086.2304,-168.5637C978.9894,-156.0261 794.4432,-134.4508 720.2341,-125.775"/>
<polygon fill="#191970" stroke="#191970" points="720.4469,-122.2761 710.1081,-124.5911 719.6341,-129.2288 720.4469,-122.2761"/>
</g>
<!-- Node24&#45;&gt;Node19 -->
<g id="edge36" class="edge">
<title>Node24&#45;&gt;Node19</title>
<path fill="none" stroke="#191970" d="M1178.0925,-168.2455C1187.4532,-160.0549 1201.0304,-148.1749 1212.0795,-138.5069"/>
<polygon fill="#191970" stroke="#191970" points="1214.7034,-140.8618 1219.9244,-131.6427 1210.0938,-135.5937 1214.7034,-140.8618"/>
</g>
<!-- Node24&#45;&gt;Node20 -->
<g id="edge33" class="edge">
<title>Node24&#45;&gt;Node20</title>
<path fill="none" stroke="#191970" d="M1196.6843,-168.3733C1226.7592,-158.638 1273.224,-143.5974 1305.0293,-133.3021"/>
<polygon fill="#191970" stroke="#191970" points="1306.3651,-136.5485 1314.8012,-130.1389 1304.2093,-129.8887 1306.3651,-136.5485"/>
</g>
<!-- Node25 -->
<g id="node22" class="node">
<title>Node25</title>
<g id="a_node22"><a xlink:href="MatrixView_8h.html" target="_top" xlink:title="iDynTree/Core/MatrixView.h">
<polygon fill="none" stroke="#ff0000" points="1421.4446,-112.5 1421.4446,-131.5 1572.4446,-131.5 1572.4446,-112.5 1421.4446,-112.5"/>
<text text-anchor="middle" x="1496.9446" y="-119.5" font-family="FreeSans.ttf" font-size="10.00" fill="#000000">iDynTree/Core/MatrixView.h</text>
</a>
</g>
</g>
<!-- Node24&#45;&gt;Node25 -->
<g id="edge28" class="edge">
<title>Node24&#45;&gt;Node25</title>
<path fill="none" stroke="#191970" d="M1223.2986,-168.4369C1280.8434,-158.6717 1370.1259,-143.5207 1430.9412,-133.2006"/>
<polygon fill="#191970" stroke="#191970" points="1431.5495,-136.6475 1440.823,-131.5237 1430.3783,-129.7461 1431.5495,-136.6475"/>
</g>
<!-- Node26 -->
<g id="node23" class="node">
<title>Node26</title>
<polygon fill="none" stroke="#bfbfbf" points="1124.9446,-112.5 1124.9446,-131.5 1184.9446,-131.5 1184.9446,-112.5 1124.9446,-112.5"/>
<text text-anchor="middle" x="1154.9446" y="-119.5" font-family="FreeSans.ttf" font-size="10.00" fill="#000000">iostream</text>
</g>
<!-- Node24&#45;&gt;Node26 -->
<g id="edge35" class="edge">
<title>Node24&#45;&gt;Node26</title>
<path fill="none" stroke="#191970" d="M1164.8543,-168.2455C1163.2885,-160.9382 1161.0934,-150.6944 1159.167,-141.7046"/>
<polygon fill="#191970" stroke="#191970" points="1162.5285,-140.6873 1157.0109,-131.6427 1155.6839,-142.1541 1162.5285,-140.6873"/>
</g>
<!-- Node25&#45;&gt;Node6 -->
<g id="edge31" class="edge">
<title>Node25&#45;&gt;Node6</title>
<path fill="none" stroke="#191970" d="M1536.2217,-112.4369C1575.419,-102.8932 1635.7445,-88.2052 1678.0281,-77.9101"/>
<polygon fill="#191970" stroke="#191970" points="1678.9414,-81.2901 1687.8295,-75.5237 1677.2853,-74.4888 1678.9414,-81.2901"/>
</g>
<!-- Node25&#45;&gt;Node9 -->
<g id="edge30" class="edge">
<title>Node25&#45;&gt;Node9</title>
<path fill="none" stroke="#191970" d="M1463.9386,-112.3733C1431.7355,-102.9807 1382.6004,-88.6496 1347.4806,-78.4064"/>
<polygon fill="#191970" stroke="#191970" points="1348.0999,-74.9412 1337.5199,-75.5011 1346.1398,-81.6612 1348.0999,-74.9412"/>
</g>
<!-- Node25&#45;&gt;Node10 -->
<g id="edge29" class="edge">
<title>Node25&#45;&gt;Node10</title>
<path fill="none" stroke="#191970" d="M1495.3247,-112.4509C1492.2258,-94.184 1485.4013,-53.9553 1481.2861,-29.6976"/>
<polygon fill="#191970" stroke="#191970" points="1484.6837,-28.7986 1479.5604,-19.5249 1477.7823,-29.9694 1484.6837,-28.7986"/>
</g>
<!-- Node28 -->
<g id="node25" class="node">
<title>Node28</title>
<g id="a_node25"><a xlink:href="SpatialMotionVector_8h.html" target="_top" xlink:title="iDynTree/Core/SpatialMotion\lVector.h">
<polygon fill="none" stroke="#000000" points="982.4446,-459.5 982.4446,-489.5 1137.4446,-489.5 1137.4446,-459.5 982.4446,-459.5"/>
<text text-anchor="start" x="990.4446" y="-477.5" font-family="FreeSans.ttf" font-size="10.00" fill="#000000">iDynTree/Core/SpatialMotion</text>
<text text-anchor="middle" x="1059.9446" y="-466.5" font-family="FreeSans.ttf" font-size="10.00" fill="#000000">Vector.h</text>
</a>
</g>
</g>
<!-- Node27&#45;&gt;Node28 -->
<g id="edge44" class="edge">
<title>Node27&#45;&gt;Node28</title>
<path fill="none" stroke="#191970" d="M967.9758,-526.3906C983.0008,-517.9132 1005.3898,-505.2809 1024.3152,-494.6028"/>
<polygon fill="#191970" stroke="#191970" points="1026.2907,-497.5069 1033.2802,-489.5446 1022.8509,-491.4104 1026.2907,-497.5069"/>
</g>
<!-- Node28&#45;&gt;Node5 -->
<g id="edge45" class="edge">
<title>Node28&#45;&gt;Node5</title>
<path fill="none" stroke="#191970" d="M1053.652,-459.212C1045.1229,-437.0716 1030.9446,-394.6105 1030.9446,-357 1030.9446,-357 1030.9446,-357 1030.9446,-301 1030.9446,-265.7513 1023.4089,-247.2019 1049.9446,-224 1074.4867,-202.5412 1265.9337,-188.8367 1383.0234,-182.3735"/>
<polygon fill="#191970" stroke="#191970" points="1383.271,-185.8653 1393.0659,-181.8268 1382.8904,-178.8756 1383.271,-185.8653"/>
</g>
<!-- Node28&#45;&gt;Node22 -->
<g id="edge46" class="edge">
<title>Node28&#45;&gt;Node22</title>
<path fill="none" stroke="#191970" d="M1065.1347,-459.4422C1079.2933,-418.3648 1118.5754,-304.3983 1134.3058,-258.7606"/>
<polygon fill="#191970" stroke="#191970" points="1137.6602,-259.7693 1137.6099,-249.1746 1131.0422,-257.4882 1137.6602,-259.7693"/>
</g>
<!-- Node29 -->
<g id="node26" class="node">
<title>Node29</title>
<g id="a_node26"><a xlink:href="SpatialVector_8h.html" target="_top" xlink:title="iDynTree/Core/SpatialVector.h">
<polygon fill="none" stroke="#000000" points="1175.4446,-403.5 1175.4446,-422.5 1336.4446,-422.5 1336.4446,-403.5 1175.4446,-403.5"/>
<text text-anchor="middle" x="1255.9446" y="-410.5" font-family="FreeSans.ttf" font-size="10.00" fill="#000000">iDynTree/Core/SpatialVector.h</text>
</a>
</g>
</g>
<!-- Node28&#45;&gt;Node29 -->
<g id="edge47" class="edge">
<title>Node28&#45;&gt;Node29</title>
<path fill="none" stroke="#191970" d="M1107.8916,-459.4554C1141.025,-449.059 1184.5929,-435.3884 1215.8754,-425.5727"/>
<polygon fill="#191970" stroke="#191970" points="1217.0781,-428.8637 1225.5715,-422.5303 1214.9823,-422.1848 1217.0781,-428.8637"/>
</g>
<!-- Node29&#45;&gt;Node3 -->
<g id="edge48" class="edge">
<title>Node29&#45;&gt;Node3</title>
<path fill="none" stroke="#191970" d="M1181.4889,-403.4369C1102.5369,-393.2963 978.3663,-377.3477 898.0526,-367.0322"/>
<polygon fill="#191970" stroke="#191970" points="898.3597,-363.543 887.9952,-365.7404 897.4678,-370.486 898.3597,-363.543"/>
</g>
<!-- Node29&#45;&gt;Node6 -->
<g id="edge50" class="edge">
<title>Node29&#45;&gt;Node6</title>
<path fill="none" stroke="#191970" d="M1333.328,-403.4959C1473.0179,-385.282 1752.9446,-343.4829 1752.9446,-301 1752.9446,-301 1752.9446,-301 1752.9446,-178 1752.9446,-144.7204 1741.9175,-107.2857 1734.2259,-85.2224"/>
<polygon fill="#191970" stroke="#191970" points="1737.4775,-83.9219 1730.781,-75.7117 1730.8959,-86.3059 1737.4775,-83.9219"/>
</g>
<!-- Node29&#45;&gt;Node19 -->
<g id="edge53" class="edge">
<title>Node29&#45;&gt;Node19</title>
<path fill="none" stroke="#191970" d="M1268.6739,-403.2757C1279.1256,-394.7144 1293.6673,-381.3958 1302.9446,-367 1319.8525,-340.7637 1326.9446,-332.2125 1326.9446,-301 1326.9446,-301 1326.9446,-301 1326.9446,-239.5 1326.9446,-205.9798 1323.5773,-194.4177 1302.9446,-168 1292.384,-154.4785 1276.6685,-143.7851 1262.612,-136.1246"/>
<polygon fill="#191970" stroke="#191970" points="1264.1784,-132.9944 1253.6853,-131.5292 1260.9744,-139.2182 1264.1784,-132.9944"/>
</g>
<!-- Node29&#45;&gt;Node21 -->
<g id="edge49" class="edge">
<title>Node29&#45;&gt;Node21</title>
<path fill="none" stroke="#191970" d="M1221.9261,-403.4509C1149.6356,-383.1589 980.7982,-335.7659 900.6584,-313.2706"/>
<polygon fill="#191970" stroke="#191970" points="901.4508,-309.8578 890.877,-310.5249 899.559,-316.5973 901.4508,-309.8578"/>
</g>
<!-- Node29&#45;&gt;Node22 -->
<g id="edge51" class="edge">
<title>Node29&#45;&gt;Node22</title>
<path fill="none" stroke="#191970" d="M1249.5979,-403.4248C1231.1843,-375.6443 1177.5148,-294.6733 1153.1865,-257.9693"/>
<polygon fill="#191970" stroke="#191970" points="1155.8556,-255.6611 1147.4134,-249.2595 1150.0209,-259.5285 1155.8556,-255.6611"/>
</g>
<!-- Node29&#45;&gt;Node26 -->
<g id="edge52" class="edge">
<title>Node29&#45;&gt;Node26</title>
<path fill="none" stroke="#191970" d="M1260.8138,-403.3939C1269.9933,-384.3677 1288.9446,-340.3256 1288.9446,-301 1288.9446,-301 1288.9446,-301 1288.9446,-239.5 1288.9446,-204.5009 1280.7549,-192.6857 1255.9446,-168 1239.1595,-151.2992 1215.215,-140.0323 1194.8528,-132.8309"/>
<polygon fill="#191970" stroke="#191970" points="1195.7852,-129.4525 1185.1916,-129.6162 1193.5751,-136.0945 1195.7852,-129.4525"/>
</g>
<!-- Node30&#45;&gt;Node9 -->
<g id="edge55" class="edge">
<title>Node30&#45;&gt;Node9</title>
<path fill="none" stroke="#191970" d="M1275.5855,-464.9423C1298.5191,-457.1841 1327.0163,-444.0115 1344.9446,-423 1364.8395,-399.6837 1364.9446,-387.6506 1364.9446,-357 1364.9446,-357 1364.9446,-357 1364.9446,-239.5 1364.9446,-184.9993 1319.8793,-184.6891 1305.9446,-132 1301.9561,-116.9191 1301.9266,-99.2151 1302.7734,-85.9418"/>
<polygon fill="#191970" stroke="#191970" points="1306.2935,-85.8589 1303.6657,-75.5951 1299.3193,-85.2574 1306.2935,-85.8589"/>
</g>
<!-- Node30&#45;&gt;Node18 -->
<g id="edge56" class="edge">
<title>Node30&#45;&gt;Node18</title>
<path fill="none" stroke="#191970" d="M1215.1545,-464.9392C1198.0354,-456.6454 1176.2225,-442.8291 1165.9446,-423 1161.8541,-415.1082 1164.1184,-411.6993 1165.9446,-403 1183.3327,-320.167 1285.1474,-289.0055 1230.9446,-224 1202.4448,-189.8202 1077.6911,-196.1694 1033.9446,-188 918.5428,-166.4495 781.6484,-140.1055 720.3915,-128.2761"/>
<polygon fill="#191970" stroke="#191970" points="720.6791,-124.767 710.1967,-126.3065 719.3512,-131.6399 720.6791,-124.767"/>
</g>
<!-- Node31&#45;&gt;Node7 -->
<g id="edge58" class="edge">
<title>Node31&#45;&gt;Node7</title>
<path fill="none" stroke="#191970" d="M344.4939,-526.3621C346.4855,-511.3806 348.7255,-481.8532 339.9446,-459 329.362,-431.4577 254.9446,-386.5054 254.9446,-357 254.9446,-357 254.9446,-357 254.9446,-239.5 254.9446,.0332 1099.2262,-116.7132 1373.9446,-76 1456.8726,-63.7101 1551.6658,-36.9113 1602.3719,-21.5091"/>
<polygon fill="#191970" stroke="#191970" points="1603.6696,-24.7722 1612.2058,-18.4966 1601.6192,-18.0792 1603.6696,-24.7722"/>
</g>
<!-- Node31&#45;&gt;Node18 -->
<g id="edge59" class="edge">
<title>Node31&#45;&gt;Node18</title>
<path fill="none" stroke="#191970" d="M297.4529,-526.4306C275.9258,-519.676 251.5728,-508.4288 235.9446,-490 213.1466,-463.1165 216.9446,-448.2487 216.9446,-413 216.9446,-413 216.9446,-413 216.9446,-301 216.9446,-215.4979 278.7438,-204.7513 355.9446,-168 408.6677,-142.9013 582.7758,-128.8837 655.5393,-123.9987"/>
<polygon fill="#191970" stroke="#191970" points="656.1643,-127.4654 665.9138,-123.3184 655.7062,-120.4804 656.1643,-127.4654"/>
</g>
<!-- Node32 -->
<g id="node29" class="node">
<title>Node32</title>
<polygon fill="none" stroke="#bfbfbf" points="244.9446,-465 244.9446,-484 330.9446,-484 330.9446,-465 244.9446,-465"/>
<text text-anchor="middle" x="287.9446" y="-472" font-family="FreeSans.ttf" font-size="10.00" fill="#000000">ModelExport.h</text>
</g>
<!-- Node31&#45;&gt;Node32 -->
<g id="edge60" class="edge">
<title>Node31&#45;&gt;Node32</title>
<path fill="none" stroke="#191970" d="M334.3508,-526.3906C326.0849,-517.1478 313.402,-502.966 303.3829,-491.7628"/>
<polygon fill="#191970" stroke="#191970" points="305.9346,-489.3657 296.6595,-484.2449 300.7168,-494.0321 305.9346,-489.3657"/>
</g>
<!-- Node33&#45;&gt;Node2 -->
<g id="edge62" class="edge">
<title>Node33&#45;&gt;Node2</title>
<path fill="none" stroke="#191970" d="M1103.8197,-582.4363C1082.4865,-565.8073 1038.8101,-532.6943 1020.9446,-526 952.732,-500.4406 752.3782,-485.4775 637.4753,-478.7664"/>
<polygon fill="#191970" stroke="#191970" points="637.4958,-475.2619 627.3112,-478.1813 637.0934,-482.2503 637.4958,-475.2619"/>
</g>
<!-- Node33&#45;&gt;Node27 -->
<g id="edge63" class="edge">
<title>Node33&#45;&gt;Node27</title>
<path fill="none" stroke="#191970" d="M1087.5801,-582.3733C1060.2619,-573.1016 1018.765,-559.0178 988.6707,-548.804"/>
<polygon fill="#191970" stroke="#191970" points="989.5333,-545.4008 978.939,-545.5011 987.2836,-552.0294 989.5333,-545.4008"/>
</g>
<!-- Node33&#45;&gt;Node31 -->
<g id="edge74" class="edge">
<title>Node33&#45;&gt;Node31</title>
<path fill="none" stroke="#191970" d="M1041.4045,-585.698C1026.0436,-584.4391 1009.9717,-583.151 994.9446,-582 788.3246,-566.1738 544.7101,-549.5191 422.0214,-541.2712"/>
<polygon fill="#191970" stroke="#191970" points="422.1765,-537.7738 411.9644,-540.5958 421.7074,-544.7581 422.1765,-537.7738"/>
</g>
<!-- Node34 -->
<g id="node31" class="node">
<title>Node34</title>
<g id="a_node31"><a xlink:href="SpatialAcc_8h.html" target="_top" xlink:title="iDynTree/Core/SpatialAcc.h">
<polygon fill="none" stroke="#000000" points="723.9446,-526.5 723.9446,-545.5 871.9446,-545.5 871.9446,-526.5 723.9446,-526.5"/>
<text text-anchor="middle" x="797.9446" y="-533.5" font-family="FreeSans.ttf" font-size="10.00" fill="#000000">iDynTree/Core/SpatialAcc.h</text>
</a>
</g>
</g>
<!-- Node33&#45;&gt;Node34 -->
<g id="edge64" class="edge">
<title>Node33&#45;&gt;Node34</title>
<path fill="none" stroke="#191970" d="M1061.6398,-582.4369C1006.3018,-572.6918 920.5063,-557.5832 861.9107,-547.2645"/>
<polygon fill="#191970" stroke="#191970" points="862.4809,-543.8111 852.0254,-545.5237 861.2668,-550.705 862.4809,-543.8111"/>
</g>
<!-- Node35 -->
<g id="node32" class="node">
<title>Node35</title>
<g id="a_node32"><a xlink:href="Wrench_8h.html" target="_top" xlink:title="iDynTree/Core/Wrench.h">
<polygon fill="none" stroke="#000000" points="1068.4446,-526.5 1068.4446,-545.5 1201.4446,-545.5 1201.4446,-526.5 1068.4446,-526.5"/>
<text text-anchor="middle" x="1134.9446" y="-533.5" font-family="FreeSans.ttf" font-size="10.00" fill="#000000">iDynTree/Core/Wrench.h</text>
</a>
</g>
</g>
<!-- Node33&#45;&gt;Node35 -->
<g id="edge66" class="edge">
<title>Node33&#45;&gt;Node35</title>
<path fill="none" stroke="#191970" d="M1119.2541,-582.2455C1121.7879,-574.7776 1125.3622,-564.2427 1128.4596,-555.1137"/>
<polygon fill="#191970" stroke="#191970" points="1131.7744,-556.237 1131.673,-545.6427 1125.1455,-553.9879 1131.7744,-556.237"/>
</g>
<!-- Node37 -->
<g id="node34" class="node">
<title>Node37</title>
<g id="a_node34"><a xlink:href="ArticulatedBodyInertia_8h.html" target="_top" xlink:title="iDynTree/Core/Articulated\lBodyInertia.h">
<polygon fill="none" stroke="#000000" points="785.4446,-224.5 785.4446,-254.5 926.4446,-254.5 926.4446,-224.5 785.4446,-224.5"/>
<text text-anchor="start" x="793.4446" y="-242.5" font-family="FreeSans.ttf" font-size="10.00" fill="#000000">iDynTree/Core/Articulated</text>
<text text-anchor="middle" x="855.9446" y="-231.5" font-family="FreeSans.ttf" font-size="10.00" fill="#000000">BodyInertia.h</text>
</a>
</g>
</g>
<!-- Node33&#45;&gt;Node37 -->
<g id="edge71" class="edge">
<title>Node33&#45;&gt;Node37</title>
<path fill="none" stroke="#191970" d="M1150.9465,-582.4699C1185.8677,-571.2786 1231.4566,-551.0264 1209.9446,-526 1140.4952,-445.2047 1051.6358,-561.8248 972.9446,-490 946.9101,-466.2372 953.9446,-448.2487 953.9446,-413 953.9446,-413 953.9446,-413 953.9446,-357 953.9446,-326.3494 952.2671,-315.5711 933.9446,-291 924.5656,-278.4224 911.1448,-267.9993 898.0731,-259.8973"/>
<polygon fill="#191970" stroke="#191970" points="899.531,-256.6951 889.1332,-254.6612 895.9932,-262.7353 899.531,-256.6951"/>
</g>
<!-- Node33&#45;&gt;Node38 -->
<g id="edge75" class="edge">
<title>Node33&#45;&gt;Node38</title>
<path fill="none" stroke="#191970" d="M1041.2301,-584.0099C960.6418,-575.256 828.5928,-560.5194 714.9446,-546 702.7204,-544.4383 689.3327,-542.5889 677.5095,-540.908"/>
<polygon fill="#191970" stroke="#191970" points="677.9864,-537.4406 667.5908,-539.4856 676.9927,-544.3697 677.9864,-537.4406"/>
</g>
<!-- Node34&#45;&gt;Node28 -->
<g id="edge65" class="edge">
<title>Node34&#45;&gt;Node28</title>
<path fill="none" stroke="#191970" d="M838.5946,-526.4581C877.8445,-517.2449 938.1925,-503.0792 985.968,-491.8647"/>
<polygon fill="#191970" stroke="#191970" points="987.0243,-495.212 995.9599,-489.5193 985.4246,-488.3972 987.0243,-495.212"/>
</g>
<!-- Node36 -->
<g id="node33" class="node">
<title>Node36</title>
<g id="a_node33"><a xlink:href="SpatialForceVector_8h.html" target="_top" xlink:title="iDynTree/Core/SpatialForce\lVector.h">
<polygon fill="none" stroke="#000000" points="1340.9446,-459.5 1340.9446,-489.5 1488.9446,-489.5 1488.9446,-459.5 1340.9446,-459.5"/>
<text text-anchor="start" x="1348.9446" y="-477.5" font-family="FreeSans.ttf" font-size="10.00" fill="#000000">iDynTree/Core/SpatialForce</text>
<text text-anchor="middle" x="1414.9446" y="-466.5" font-family="FreeSans.ttf" font-size="10.00" fill="#000000">Vector.h</text>
</a>
</g>
</g>
<!-- Node35&#45;&gt;Node36 -->
<g id="edge67" class="edge">
<title>Node35&#45;&gt;Node36</title>
<path fill="none" stroke="#191970" d="M1178.3874,-526.4581C1220.5093,-517.2063 1285.368,-502.9606 1336.5259,-491.7241"/>
<polygon fill="#191970" stroke="#191970" points="1337.5477,-495.0832 1346.564,-489.5193 1336.0459,-488.2462 1337.5477,-495.0832"/>
</g>
<!-- Node36&#45;&gt;Node5 -->
<g id="edge68" class="edge">
<title>Node36&#45;&gt;Node5</title>
<path fill="none" stroke="#191970" d="M1417.9515,-459.3889C1427.7936,-409.9281 1459.0438,-252.8829 1470.0573,-197.5355"/>
<polygon fill="#191970" stroke="#191970" points="1473.5128,-198.1035 1472.0318,-187.6127 1466.6474,-196.7373 1473.5128,-198.1035"/>
</g>
<!-- Node36&#45;&gt;Node22 -->
<g id="edge69" class="edge">
<title>Node36&#45;&gt;Node22</title>
<path fill="none" stroke="#191970" d="M1409.8303,-459.2329C1404.1044,-443.7907 1393.6591,-419.8566 1378.9446,-403 1317.4415,-332.5436 1219.1807,-277.9454 1170.4011,-253.5106"/>
<polygon fill="#191970" stroke="#191970" points="1171.8464,-250.3208 1161.3304,-249.03 1168.7462,-256.5969 1171.8464,-250.3208"/>
</g>
<!-- Node36&#45;&gt;Node29 -->
<g id="edge70" class="edge">
<title>Node36&#45;&gt;Node29</title>
<path fill="none" stroke="#191970" d="M1376.0488,-459.4554C1349.752,-449.284 1315.3529,-435.9787 1290.1114,-426.2155"/>
<polygon fill="#191970" stroke="#191970" points="1291.1732,-422.8735 1280.5839,-422.5303 1288.6479,-429.4022 1291.1732,-422.8735"/>
</g>
<!-- Node37&#45;&gt;Node18 -->
<g id="edge73" class="edge">
<title>Node37&#45;&gt;Node18</title>
<path fill="none" stroke="#191970" d="M834.3254,-224.3795C802.2473,-201.9439 742.3636,-160.0609 710.0226,-137.4415"/>
<polygon fill="#191970" stroke="#191970" points="711.8777,-134.4679 701.6771,-131.6046 707.8658,-140.2041 711.8777,-134.4679"/>
</g>
<!-- Node37&#45;&gt;Node24 -->
<g id="edge72" class="edge">
<title>Node37&#45;&gt;Node24</title>
<path fill="none" stroke="#191970" d="M926.5153,-225.5447C981.6239,-214.647 1057.2613,-199.6898 1108.891,-189.4801"/>
<polygon fill="#191970" stroke="#191970" points="1109.7526,-192.8775 1118.8836,-187.504 1108.3946,-186.0105 1109.7526,-192.8775"/>
</g>
<!-- Node39&#45;&gt;Node5 -->
<g id="edge77" class="edge">
<title>Node39&#45;&gt;Node5</title>
<path fill="none" stroke="#191970" d="M1422.685,-582.4377C1443.2003,-566.144 1482.7862,-530.7751 1497.9446,-490 1536.921,-385.1559 1497.6781,-247.1411 1480.8227,-197.1299"/>
<polygon fill="#191970" stroke="#191970" points="1484.0977,-195.8912 1477.5138,-187.5904 1477.4843,-198.1852 1484.0977,-195.8912"/>
</g>
<!-- Node39&#45;&gt;Node30 -->
<g id="edge78" class="edge">
<title>Node39&#45;&gt;Node30</title>
<path fill="none" stroke="#191970" d="M1397.3189,-582.3298C1380.0802,-569.2218 1348.099,-545.2425 1319.9446,-526 1301.3134,-513.2663 1279.7273,-499.5933 1263.5261,-489.5381"/>
<polygon fill="#191970" stroke="#191970" points="1265.0198,-486.3469 1254.6724,-484.0702 1261.3416,-492.3026 1265.0198,-486.3469"/>
</g>
<!-- Node39&#45;&gt;Node36 -->
<g id="edge79" class="edge">
<title>Node39&#45;&gt;Node36</title>
<path fill="none" stroke="#191970" d="M1410.3538,-582.3845C1411.1129,-564.544 1412.7623,-525.7839 1413.8631,-499.9138"/>
<polygon fill="#191970" stroke="#191970" points="1417.3688,-499.8541 1414.2972,-489.7143 1410.3751,-499.5564 1417.3688,-499.8541"/>
</g>
<!-- Node39&#45;&gt;Node38 -->
<g id="edge80" class="edge">
<title>Node39&#45;&gt;Node38</title>
<path fill="none" stroke="#191970" d="M1334.2117,-587.6971C1179.7968,-578.807 833.1976,-558.2242 714.9446,-546 702.6863,-544.7328 689.2909,-542.9502 677.4711,-541.2403"/>
<polygon fill="#191970" stroke="#191970" points="677.9629,-537.7751 667.5578,-539.7712 676.9367,-544.6994 677.9629,-537.7751"/>
</g>
<!-- Node40&#45;&gt;Node2 -->
<g id="edge92" class="edge">
<title>Node40&#45;&gt;Node2</title>
<path fill="none" stroke="#191970" d="M229.0626,-709.3744C128.3817,-698.0906 -44.7413,-666.1142 10.9446,-582 46.1236,-528.8617 81.4071,-542.5643 142.9446,-526 202.8624,-509.8717 368.7681,-492.0849 470.5373,-482.2048"/>
<polygon fill="#191970" stroke="#191970" points="471.1713,-485.6599 480.7887,-481.2152 470.4987,-478.6923 471.1713,-485.6599"/>
</g>
<!-- Node40&#45;&gt;Node31 -->
<g id="edge93" class="edge">
<title>Node40&#45;&gt;Node31</title>
<path fill="none" stroke="#191970" d="M288.2826,-705.4654C281.6958,-696.6125 272.6849,-682.7614 268.9446,-669 265.3309,-655.7046 264.898,-651.1701 268.9446,-638 279.4584,-603.7813 306.7631,-571.6355 325.0994,-552.8919"/>
<polygon fill="#191970" stroke="#191970" points="327.7011,-555.2409 332.3336,-545.7125 322.7702,-550.2724 327.7011,-555.2409"/>
</g>
<!-- Node40&#45;&gt;Node38 -->
<g id="edge101" class="edge">
<title>Node40&#45;&gt;Node38</title>
<path fill="none" stroke="#191970" d="M322.7069,-705.48C347.0206,-696.6369 383.747,-682.7921 414.9446,-669 475.844,-642.0771 491.6776,-635.9717 548.9446,-602 575.4858,-586.2553 604.3928,-565.6323 623.2627,-551.6602"/>
<polygon fill="#191970" stroke="#191970" points="625.5038,-554.3549 631.4235,-545.5681 621.3163,-548.7455 625.5038,-554.3549"/>
</g>
<!-- Node41 -->
<g id="node38" class="node">
<title>Node41</title>
<g id="a_node38"><a xlink:href="IJoint_8h.html" target="_top" xlink:title="iDynTree/Model/IJoint.h">
<polygon fill="none" stroke="#000000" points="277.9446,-644 277.9446,-663 405.9446,-663 405.9446,-644 277.9446,-644"/>
<text text-anchor="middle" x="341.9446" y="-651" font-family="FreeSans.ttf" font-size="10.00" fill="#000000">iDynTree/Model/IJoint.h</text>
</a>
</g>
</g>
<!-- Node40&#45;&gt;Node41 -->
<g id="edge83" class="edge">
<title>Node40&#45;&gt;Node41</title>
<path fill="none" stroke="#191970" d="M303.1321,-705.3906C309.9112,-696.3273 320.2424,-682.5149 328.5419,-671.4188"/>
<polygon fill="#191970" stroke="#191970" points="331.4689,-673.349 334.6557,-663.2449 325.8634,-669.1563 331.4689,-673.349"/>
</g>
<!-- Node42 -->
<g id="node39" class="node">
<title>Node42</title>
<g id="a_node39"><a xlink:href="Link_8h.html" target="_top" xlink:title="iDynTree/Model/Link.h">
<polygon fill="none" stroke="#000000" points="671.9446,-644 671.9446,-663 795.9446,-663 795.9446,-644 671.9446,-644"/>
<text text-anchor="middle" x="733.9446" y="-651" font-family="FreeSans.ttf" font-size="10.00" fill="#000000">iDynTree/Model/Link.h</text>
</a>
</g>
</g>
<!-- Node40&#45;&gt;Node42 -->
<g id="edge85" class="edge">
<title>Node40&#45;&gt;Node42</title>
<path fill="none" stroke="#191970" d="M362.5492,-708.0477C435.3371,-700.0982 555.2806,-685.9675 657.9446,-669 665.0691,-667.8225 672.5436,-666.4582 679.9089,-665.037"/>
<polygon fill="#191970" stroke="#191970" points="680.709,-668.4467 689.8416,-663.076 679.3531,-661.5793 680.709,-668.4467"/>
</g>
<!-- Node47 -->
<g id="node41" class="node">
<title>Node47</title>
<g id="a_node41"><a xlink:href="SolidShapes_8h.html" target="_top" xlink:title="iDynTree/Model/SolidShapes.h">
<polygon fill="none" stroke="#000000" points="20.4446,-582.5 20.4446,-601.5 183.4446,-601.5 183.4446,-582.5 20.4446,-582.5"/>
<text text-anchor="middle" x="101.9446" y="-589.5" font-family="FreeSans.ttf" font-size="10.00" fill="#000000">iDynTree/Model/SolidShapes.h</text>
</a>
</g>
</g>
<!-- Node40&#45;&gt;Node47 -->
<g id="edge94" class="edge">
<title>Node40&#45;&gt;Node47</title>
<path fill="none" stroke="#191970" d="M271.3501,-705.3737C251.0092,-696.9671 221.7096,-683.8147 197.9446,-669 168.726,-650.7857 138.2516,-624.9903 119.6809,-608.3762"/>
<polygon fill="#191970" stroke="#191970" points="122.0233,-605.7755 112.2612,-601.658 117.3248,-610.9645 122.0233,-605.7755"/>
</g>
<!-- Node48 -->
<g id="node42" class="node">
<title>Node48</title>
<polygon fill="none" stroke="#bfbfbf" points="185.4446,-526.5 185.4446,-545.5 234.4446,-545.5 234.4446,-526.5 185.4446,-526.5"/>
<text text-anchor="middle" x="209.9446" y="-533.5" font-family="FreeSans.ttf" font-size="10.00" fill="#000000">cstdlib</text>
</g>
<!-- Node40&#45;&gt;Node48 -->
<g id="edge100" class="edge">
<title>Node40&#45;&gt;Node48</title>
<path fill="none" stroke="#191970" d="M287.8636,-705.235C280.6771,-696.227 270.2112,-682.2776 262.9446,-669 241.8635,-630.4805 224.6386,-581.7882 215.9867,-555.3065"/>
<polygon fill="#191970" stroke="#191970" points="219.2962,-554.1649 212.9111,-545.7103 212.6302,-556.3014 219.2962,-554.1649"/>
</g>
<!-- Node41&#45;&gt;Node31 -->
<g id="edge84" class="edge">
<title>Node41&#45;&gt;Node31</title>
<path fill="none" stroke="#191970" d="M332.9585,-643.555C321.7978,-629.9565 305.0222,-604.6586 311.9446,-582 315.0854,-571.7192 321.3812,-561.6582 327.4833,-553.5799"/>
<polygon fill="#191970" stroke="#191970" points="330.3076,-555.6535 333.8704,-545.6757 324.863,-551.2539 330.3076,-555.6535"/>
</g>
<!-- Node42&#45;&gt;Node31 -->
<g id="edge91" class="edge">
<title>Node42&#45;&gt;Node31</title>
<path fill="none" stroke="#191970" d="M671.7228,-649.3261C568.7488,-641.8131 371.9877,-624.6613 349.9446,-602 338.2924,-590.021 337.5961,-570.4319 339.1819,-555.7001"/>
<polygon fill="#191970" stroke="#191970" points="342.6765,-555.9959 340.6957,-545.5879 335.7537,-554.9595 342.6765,-555.9959"/>
</g>
<!-- Node43 -->
<g id="node40" class="node">
<title>Node43</title>
<g id="a_node40"><a xlink:href="SpatialInertia_8h.html" target="_top" xlink:title="iDynTree/Core/SpatialInertia.h">
<polygon fill="none" stroke="#ff0000" points="823.9446,-582.5 823.9446,-601.5 985.9446,-601.5 985.9446,-582.5 823.9446,-582.5"/>
<text text-anchor="middle" x="904.9446" y="-589.5" font-family="FreeSans.ttf" font-size="10.00" fill="#000000">iDynTree/Core/SpatialInertia.h</text>
</a>
</g>
</g>
<!-- Node42&#45;&gt;Node43 -->
<g id="edge86" class="edge">
<title>Node42&#45;&gt;Node43</title>
<path fill="none" stroke="#191970" d="M760.6633,-643.8906C789.7767,-633.42 836.5138,-616.6111 868.8693,-604.9745"/>
<polygon fill="#191970" stroke="#191970" points="870.188,-608.2197 878.4135,-601.5419 867.819,-601.6328 870.188,-608.2197"/>
</g>
<!-- Node43&#45;&gt;Node5 -->
<g id="edge87" class="edge">
<title>Node43&#45;&gt;Node5</title>
<path fill="none" stroke="#191970" d="M824.1452,-582.4686C778.8776,-575.2841 728.7953,-563.6042 714.9446,-546 642.6924,-454.1678 683.38,-358.2379 778.9446,-291 837.1393,-250.055 871.9301,-288.0497 934.9446,-255 953.0542,-245.5019 950.2316,-232.246 968.9446,-224 1005.7736,-207.771 1247.6527,-191.2564 1382.8559,-183.1447"/>
<polygon fill="#191970" stroke="#191970" points="1383.4262,-186.617 1393.2001,-182.5279 1383.0095,-179.6294 1383.4262,-186.617"/>
</g>
<!-- Node43&#45;&gt;Node27 -->
<g id="edge88" class="edge">
<title>Node43&#45;&gt;Node27</title>
<path fill="none" stroke="#191970" d="M912.9572,-582.2455C919.4213,-574.3761 928.683,-563.101 936.4429,-553.6542"/>
<polygon fill="#191970" stroke="#191970" points="939.3809,-555.5916 943.0238,-545.6427 933.9718,-551.1484 939.3809,-555.5916"/>
</g>
<!-- Node43&#45;&gt;Node34 -->
<g id="edge89" class="edge">
<title>Node43&#45;&gt;Node34</title>
<path fill="none" stroke="#191970" d="M886.3066,-582.2455C869.5059,-573.4527 844.5811,-560.4079 825.4828,-550.4125"/>
<polygon fill="#191970" stroke="#191970" points="826.8519,-547.1787 816.369,-545.6427 823.606,-553.3807 826.8519,-547.1787"/>
</g>
<!-- Node43&#45;&gt;Node35 -->
<g id="edge90" class="edge">
<title>Node43&#45;&gt;Node35</title>
<path fill="none" stroke="#191970" d="M944.2217,-582.4369C983.419,-572.8932 1043.7445,-558.2052 1086.0281,-547.9101"/>
<polygon fill="#191970" stroke="#191970" points="1086.9414,-551.2901 1095.8295,-545.5237 1085.2853,-544.4888 1086.9414,-551.2901"/>
</g>
<!-- Node47&#45;&gt;Node2 -->
<g id="edge98" class="edge">
<title>Node47&#45;&gt;Node2</title>
<path fill="none" stroke="#191970" d="M109.386,-582.4207C121.5347,-567.5533 147.1778,-539.258 175.9446,-526 226.7984,-502.5626 375.382,-487.6185 470.408,-480.1729"/>
<polygon fill="#191970" stroke="#191970" points="470.8736,-483.6475 480.5748,-479.3889 470.3353,-476.6683 470.8736,-483.6475"/>
</g>
<!-- Node47&#45;&gt;Node18 -->
<g id="edge96" class="edge">
<title>Node47&#45;&gt;Node18</title>
<path fill="none" stroke="#191970" d="M102.3617,-582.2532C103.186,-562.1243 104.9446,-514.4957 104.9446,-474.5 104.9446,-474.5 104.9446,-474.5 104.9446,-239.5 104.9446,-143.845 214.7989,-189.766 307.9446,-168 434.5251,-138.4211 589.5288,-127.1876 655.6147,-123.5337"/>
<polygon fill="#191970" stroke="#191970" points="656.0047,-127.018 665.8048,-122.9921 655.6331,-120.0279 656.0047,-127.018"/>
</g>
<!-- Node47&#45;&gt;Node31 -->
<g id="edge99" class="edge">
<title>Node47&#45;&gt;Node31</title>
<path fill="none" stroke="#191970" d="M143.1001,-582.4369C184.2588,-572.8731 247.6496,-558.1432 291.9688,-547.845"/>
<polygon fill="#191970" stroke="#191970" points="293.0105,-551.1963 301.9588,-545.5237 291.4261,-544.3779 293.0105,-551.1963"/>
</g>
<!-- Node47&#45;&gt;Node38 -->
<g id="edge97" class="edge">
<title>Node47&#45;&gt;Node38</title>
<path fill="none" stroke="#191970" d="M183.6743,-583.5556C304.629,-571.0584 526.0569,-548.1803 610.2467,-539.4817"/>
<polygon fill="#191970" stroke="#191970" points="610.69,-542.9546 620.2773,-538.4453 609.9705,-535.9917 610.69,-542.9546"/>
</g>
<!-- Node47&#45;&gt;Node48 -->
<g id="edge95" class="edge">
<title>Node47&#45;&gt;Node48</title>
<path fill="none" stroke="#191970" d="M120.7567,-582.2455C137.7919,-573.4125 163.1021,-560.2887 182.4127,-550.2758"/>
<polygon fill="#191970" stroke="#191970" points="184.0816,-553.353 191.348,-545.6427 180.8593,-547.1388 184.0816,-553.353"/>
</g>
<!-- Node49&#45;&gt;Node31 -->
<g id="edge103" class="edge">
<title>Node49&#45;&gt;Node31</title>
<path fill="none" stroke="#191970" d="M444.8001,-582.3733C425.0554,-573.3838 395.3747,-559.8706 373.1391,-549.7471"/>
<polygon fill="#191970" stroke="#191970" points="374.3645,-546.4594 363.8131,-545.5011 371.464,-552.8302 374.3645,-546.4594"/>
</g>
<!-- Node49&#45;&gt;Node38 -->
<g id="edge104" class="edge">
<title>Node49&#45;&gt;Node38</title>
<path fill="none" stroke="#191970" d="M496.5439,-582.3733C528.3426,-572.3692 577.9492,-556.7626 610.6963,-546.4601"/>
<polygon fill="#191970" stroke="#191970" points="611.7909,-549.785 620.2795,-543.4452 609.6901,-543.1076 611.7909,-549.785"/>
</g>
<!-- Node50&#45;&gt;Node31 -->
<g id="edge109" class="edge">
<title>Node50&#45;&gt;Node31</title>
<path fill="none" stroke="#191970" d="M1362.3212,-643.9731C1349.872,-641.7421 1336.4392,-639.5632 1323.9446,-638 1098.9116,-609.846 1040.1399,-628.825 814.9446,-602 761.6904,-595.6564 748.9886,-589.9108 695.9446,-582 602.1436,-568.0108 493.9591,-554.2642 422.3385,-545.4959"/>
<polygon fill="#191970" stroke="#191970" points="422.3935,-541.9767 412.043,-544.2389 421.5451,-548.9251 422.3935,-541.9767"/>
</g>
<!-- Node50&#45;&gt;Node33 -->
<g id="edge110" class="edge">
<title>Node50&#45;&gt;Node33</title>
<path fill="none" stroke="#191970" d="M1364.3297,-643.9581C1312.4014,-633.0956 1227.5631,-615.3488 1171.7381,-603.6711"/>
<polygon fill="#191970" stroke="#191970" points="1172.1713,-600.186 1161.6665,-601.5643 1170.738,-607.0377 1172.1713,-600.186"/>
</g>
<!-- Node50&#45;&gt;Node39 -->
<g id="edge111" class="edge">
<title>Node50&#45;&gt;Node39</title>
<path fill="none" stroke="#191970" d="M1409.9446,-643.8906C1409.9446,-635.3657 1409.9446,-622.6392 1409.9446,-611.9235"/>
<polygon fill="#191970" stroke="#191970" points="1413.4447,-611.7448 1409.9446,-601.7449 1406.4447,-611.7449 1413.4447,-611.7448"/>
</g>
<!-- Node51 -->
<g id="node45" class="node">
<title>Node51</title>
<g id="a_node45"><a xlink:href="MatrixDynSize_8h.html" target="_top" xlink:title="iDynTree/Core/MatrixDynSize.h">
<polygon fill="none" stroke="#000000" points="1658.4446,-465 1658.4446,-484 1825.4446,-484 1825.4446,-465 1658.4446,-465"/>
<text text-anchor="middle" x="1741.9446" y="-472" font-family="FreeSans.ttf" font-size="10.00" fill="#000000">iDynTree/Core/MatrixDynSize.h</text>
</a>
</g>
</g>
<!-- Node50&#45;&gt;Node51 -->
<g id="edge106" class="edge">
<title>Node50&#45;&gt;Node51</title>
<path fill="none" stroke="#191970" d="M1483.8981,-643.9791C1542.8824,-635.1825 1619.6569,-620.6642 1644.9446,-602 1676.17,-578.9533 1664.089,-556.6118 1687.9446,-526 1697.9708,-513.1342 1711.1968,-500.4665 1722.0498,-490.9142"/>
<polygon fill="#191970" stroke="#191970" points="1724.4871,-493.4347 1729.7944,-484.265 1719.9272,-488.1236 1724.4871,-493.4347"/>
</g>
<!-- Node51&#45;&gt;Node18 -->
<g id="edge107" class="edge">
<title>Node51&#45;&gt;Node18</title>
<path fill="none" stroke="#191970" d="M1745.4685,-464.7267C1756.7038,-433.2295 1790.9446,-334.4907 1790.9446,-301 1790.9446,-301 1790.9446,-301 1790.9446,-239.5 1790.9446,-133.3008 1667.462,-186.825 1562.9446,-168 1396.4103,-138.0049 858.4952,-125.403 720.4641,-122.6168"/>
<polygon fill="#191970" stroke="#191970" points="720.2127,-119.1112 710.1451,-122.4119 720.0736,-126.1098 720.2127,-119.1112"/>
</g>
<!-- Node51&#45;&gt;Node25 -->
<g id="edge108" class="edge">
<title>Node51&#45;&gt;Node25</title>
<path fill="none" stroke="#191970" d="M1748.2014,-464.9337C1768.1497,-434.0709 1828.9446,-337.0551 1828.9446,-301 1828.9446,-301 1828.9446,-301 1828.9446,-239.5 1828.9446,-205.9798 1830.634,-189.5328 1804.9446,-168 1772.1801,-140.5369 1662.352,-129.4501 1583.18,-124.9871"/>
<polygon fill="#191970" stroke="#191970" points="1582.8844,-121.4663 1572.7111,-124.4251 1582.5091,-128.4562 1582.8844,-121.4663"/>
</g>
<!-- Node52&#45;&gt;Node2 -->
<g id="edge121" class="edge">
<title>Node52&#45;&gt;Node2</title>
<path fill="none" stroke="#191970" d="M1697.1612,-531.941C1475.8148,-520.8195 861.2049,-489.9383 637.0891,-478.6776"/>
<polygon fill="#191970" stroke="#191970" points="637.1982,-475.1788 627.0351,-478.1724 636.8469,-482.1699 637.1982,-475.1788"/>
</g>
<!-- Node52&#45;&gt;Node5 -->
<g id="edge116" class="edge">
<title>Node52&#45;&gt;Node5</title>
<path fill="none" stroke="#191970" d="M1735.5294,-526.4524C1702.027,-517.9508 1659.255,-504.6229 1648.9446,-490 1579.808,-391.9459 1770.6453,-317.0799 1694.9446,-224 1678.3058,-203.5413 1618.0873,-191.8804 1564.7061,-185.4212"/>
<polygon fill="#191970" stroke="#191970" points="1564.8203,-181.9111 1554.4837,-184.2362 1564.0141,-188.8645 1564.8203,-181.9111"/>
</g>
<!-- Node52&#45;&gt;Node6 -->
<g id="edge122" class="edge">
<title>Node52&#45;&gt;Node6</title>
<path fill="none" stroke="#191970" d="M1851.5346,-526.4988C1902.5983,-518.6626 1965.0515,-506.2088 1985.9446,-490 2016.2544,-466.4857 2024.9446,-451.3615 2024.9446,-413 2024.9446,-413 2024.9446,-413 2024.9446,-239.5 2024.9446,-134.299 1884.5288,-91.7733 1796.47,-75.4478"/>
<polygon fill="#191970" stroke="#191970" points="1796.9924,-71.9859 1786.5331,-73.675 1795.7629,-78.877 1796.9924,-71.9859"/>
</g>
<!-- Node52&#45;&gt;Node7 -->
<g id="edge113" class="edge">
<title>Node52&#45;&gt;Node7</title>
<path fill="none" stroke="#191970" d="M1789.6807,-526.3453C1814.6376,-505.8198 1870.8078,-459.6547 1871.9446,-459 1911.4318,-436.2578 1937.0118,-456.4606 1967.9446,-423 1988.6655,-400.5858 1986.9446,-387.5246 1986.9446,-357 1986.9446,-357 1986.9446,-357 1986.9446,-122 1986.9446,-105.7668 1764.6284,-43.9331 1675.3793,-19.764"/>
<polygon fill="#191970" stroke="#191970" points="1676.2405,-16.3712 1665.6737,-17.1422 1674.4149,-23.129 1676.2405,-16.3712"/>
</g>
<!-- Node52&#45;&gt;Node24 -->
<g id="edge118" class="edge">
<title>Node52&#45;&gt;Node24</title>
<path fill="none" stroke="#191970" d="M1858.5549,-529.4603C1924.5444,-520.9388 2001.7574,-501.7033 1966.9446,-459 1916.7705,-397.4537 1868.0752,-445.5723 1791.9446,-423 1556.6188,-353.2272 1285.4895,-232.4403 1196.7335,-191.7974"/>
<polygon fill="#191970" stroke="#191970" points="1198.0804,-188.5645 1187.5322,-187.5714 1195.1588,-194.9257 1198.0804,-188.5645"/>
</g>
<!-- Node52&#45;&gt;Node28 -->
<g id="edge119" class="edge">
<title>Node52&#45;&gt;Node28</title>
<path fill="none" stroke="#191970" d="M1697.3642,-532.864C1578.926,-527.6481 1350.7323,-515.294 1147.6601,-490.1408"/>
<polygon fill="#191970" stroke="#191970" points="1148.061,-486.6637 1137.7037,-488.8947 1147.1916,-493.6096 1148.061,-486.6637"/>
</g>
<!-- Node52&#45;&gt;Node30 -->
<g id="edge115" class="edge">
<title>Node52&#45;&gt;Node30</title>
<path fill="none" stroke="#191970" d="M1697.1943,-529.1977C1607.7155,-521.3051 1459.232,-507.1544 1331.9446,-490 1322.4332,-488.7182 1312.4003,-487.2104 1302.5835,-485.6475"/>
<polygon fill="#191970" stroke="#191970" points="1302.8941,-482.1522 1292.4627,-484.0059 1301.7733,-489.0619 1302.8941,-482.1522"/>
</g>
<!-- Node52&#45;&gt;Node36 -->
<g id="edge120" class="edge">
<title>Node52&#45;&gt;Node36</title>
<path fill="none" stroke="#191970" d="M1721.6241,-526.4581C1662.0251,-516.3607 1567.3152,-500.3149 1498.9052,-488.7247"/>
<polygon fill="#191970" stroke="#191970" points="1499.4542,-485.2679 1489.01,-487.0483 1498.2849,-492.1696 1499.4542,-485.2679"/>
</g>
<!-- Node52&#45;&gt;Node51 -->
<g id="edge117" class="edge">
<title>Node52&#45;&gt;Node51</title>
<path fill="none" stroke="#191970" d="M1772.3196,-526.3906C1767.1193,-517.5068 1759.248,-504.0601 1752.8213,-493.0811"/>
<polygon fill="#191970" stroke="#191970" points="1755.7213,-491.1069 1747.6489,-484.2449 1749.6802,-494.6432 1755.7213,-491.1069"/>
</g>
<!-- Node53 -->
<g id="node47" class="node">
<title>Node53</title>
<polygon fill="none" stroke="#bfbfbf" points="1881.4446,-465 1881.4446,-484 1958.4446,-484 1958.4446,-465 1881.4446,-465"/>
<text text-anchor="middle" x="1919.9446" y="-472" font-family="FreeSans.ttf" font-size="10.00" fill="#000000">Eigen/Dense</text>
</g>
<!-- Node52&#45;&gt;Node53 -->
<g id="edge114" class="edge">
<title>Node52&#45;&gt;Node53</title>
<path fill="none" stroke="#191970" d="M1800.1321,-526.3906C1823.8913,-516.1005 1861.7851,-499.6888 1888.587,-488.0809"/>
<polygon fill="#191970" stroke="#191970" points="1890.1275,-491.2279 1897.9129,-484.0419 1887.3455,-484.8045 1890.1275,-491.2279"/>
</g>
<!-- Node54&#45;&gt;Node5 -->
<g id="edge125" class="edge">
<title>Node54&#45;&gt;Node5</title>
<path fill="none" stroke="#191970" d="M1875.6605,-403.3461C1860.8205,-371.1986 1808.1485,-267.3633 1728.9446,-224 1701.0514,-208.7288 1626.1933,-196.2953 1564.7516,-188.2228"/>
<polygon fill="#191970" stroke="#191970" points="1564.9912,-184.7247 1554.6253,-186.9154 1564.0948,-191.6671 1564.9912,-184.7247"/>
</g>
<!-- Node55&#45;&gt;Node3 -->
<g id="edge131" class="edge">
<title>Node55&#45;&gt;Node3</title>
<path fill="none" stroke="#191970" d="M1233.5242,-638.4182C1237.1498,-611.6758 1240.272,-555.9508 1209.9446,-526 1134.1391,-451.1358 1069.6462,-534.7203 972.9446,-490 913.0503,-462.3015 858.8193,-403.8345 834.0833,-374.5255"/>
<polygon fill="#191970" stroke="#191970" points="836.7196,-372.2214 827.6432,-366.756 831.3303,-376.6886 836.7196,-372.2214"/>
</g>
<!-- Node55&#45;&gt;Node5 -->
<g id="edge134" class="edge">
<title>Node55&#45;&gt;Node5</title>
<path fill="none" stroke="#191970" d="M1314.2371,-638.4769C1388.2405,-624.9288 1485.9461,-606.4642 1493.9446,-602 1528.8231,-582.5335 1554.9446,-575.9432 1554.9446,-536 1554.9446,-536 1554.9446,-536 1554.9446,-357 1554.9446,-293.0463 1511.4964,-226.7558 1488.2422,-195.856"/>
<polygon fill="#191970" stroke="#191970" points="1490.8875,-193.5549 1482.0073,-187.7762 1485.3457,-197.8314 1490.8875,-193.5549"/>
</g>
<!-- Node55&#45;&gt;Node30 -->
<g id="edge133" class="edge">
<title>Node55&#45;&gt;Node30</title>
<path fill="none" stroke="#191970" d="M1240.8599,-638.2703C1253.3255,-618.1259 1274.0486,-581.0651 1281.9446,-546 1283.8973,-537.3282 1284.9746,-534.3565 1281.9446,-526 1277.1056,-512.6544 1267.1283,-500.3435 1258.0018,-491.1069"/>
<polygon fill="#191970" stroke="#191970" points="1260.3206,-488.4818 1250.6671,-484.1159 1255.4909,-493.5489 1260.3206,-488.4818"/>
</g>
<!-- Node55&#45;&gt;Node31 -->
<g id="edge135" class="edge">
<title>Node55&#45;&gt;Node31</title>
<path fill="none" stroke="#191970" d="M1146.3332,-644.7144C1018.5818,-631.4107 787.2326,-607.1536 748.9446,-602 626.9477,-585.579 485.1637,-561.3478 405.5532,-547.2696"/>
<polygon fill="#191970" stroke="#191970" points="406.1435,-543.8198 395.686,-545.5204 404.9215,-550.7123 406.1435,-543.8198"/>
</g>
<!-- Node55&#45;&gt;Node33 -->
<g id="edge136" class="edge">
<title>Node55&#45;&gt;Node33</title>
<path fill="none" stroke="#191970" d="M1202.8124,-638.4554C1184.466,-628.644 1160.6669,-615.9167 1142.6195,-606.2653"/>
<polygon fill="#191970" stroke="#191970" points="1144.2343,-603.1598 1133.7655,-601.5303 1140.9332,-609.3326 1144.2343,-603.1598"/>
</g>
<!-- Node55&#45;&gt;Node38 -->
<g id="edge137" class="edge">
<title>Node55&#45;&gt;Node38</title>
<path fill="none" stroke="#191970" d="M1146.4218,-644.1587C1034.1452,-631.5769 846.2675,-609.8567 814.9446,-602 763.5348,-589.1049 706.6362,-565.0512 673.153,-549.8175"/>
<polygon fill="#191970" stroke="#191970" points="674.4973,-546.5833 663.9497,-545.5833 671.5715,-552.9426 674.4973,-546.5833"/>
</g>
<!-- Node55&#45;&gt;Node51 -->
<g id="edge132" class="edge">
<title>Node55&#45;&gt;Node51</title>
<path fill="none" stroke="#191970" d="M1315.4729,-639.4126C1318.6694,-638.9273 1321.8351,-638.4547 1324.9446,-638 1449.9655,-619.7186 1495.5411,-661.613 1606.9446,-602 1646.3891,-580.8929 1640.1637,-556.4433 1672.9446,-526 1687.2307,-512.7326 1704.8706,-499.616 1718.7385,-489.9406"/>
<polygon fill="#191970" stroke="#191970" points="1720.9678,-492.6556 1727.2338,-484.1123 1717.0077,-486.8835 1720.9678,-492.6556"/>
</g>
<!-- Node56 -->
<g id="node50" class="node">
<title>Node56</title>
<g id="a_node50"><a xlink:href="Direction_8h.html" target="_top" xlink:title="iDynTree/Core/Direction.h">
<polygon fill="none" stroke="#000000" points="1545.4446,-230 1545.4446,-249 1686.4446,-249 1686.4446,-230 1545.4446,-230"/>
<text text-anchor="middle" x="1615.9446" y="-237" font-family="FreeSans.ttf" font-size="10.00" fill="#000000">iDynTree/Core/Direction.h</text>
</a>
</g>
</g>
<!-- Node55&#45;&gt;Node56 -->
<g id="edge127" class="edge">
<title>Node55&#45;&gt;Node56</title>
<path fill="none" stroke="#191970" d="M1315.4847,-639.4905C1318.6778,-638.9834 1321.8397,-638.485 1324.9446,-638 1379.0971,-629.5411 1530.5302,-641.0945 1568.9446,-602 1617.0869,-553.0053 1617.4176,-327.6627 1616.3722,-259.25"/>
<polygon fill="#191970" stroke="#191970" points="1619.8674,-258.9514 1616.1859,-249.0168 1612.8686,-259.0789 1619.8674,-258.9514"/>
</g>
<!-- Node56&#45;&gt;Node5 -->
<g id="edge129" class="edge">
<title>Node56&#45;&gt;Node5</title>
<path fill="none" stroke="#191970" d="M1593.7571,-229.8906C1569.9979,-219.6005 1532.1041,-203.1888 1505.3021,-191.5809"/>
<polygon fill="#191970" stroke="#191970" points="1506.5436,-188.3045 1495.9763,-187.5419 1503.7616,-194.7279 1506.5436,-188.3045"/>
</g>
<!-- Node56&#45;&gt;Node6 -->
<g id="edge130" class="edge">
<title>Node56&#45;&gt;Node6</title>
<path fill="none" stroke="#191970" d="M1622.0705,-229.9248C1639.8436,-202.1443 1691.6464,-121.1733 1715.1285,-84.4693"/>
<polygon fill="#191970" stroke="#191970" points="1718.2598,-86.0694 1720.7007,-75.7595 1712.3633,-82.2969 1718.2598,-86.0694"/>
</g>
<!-- Node56&#45;&gt;Node18 -->
<g id="edge128" class="edge">
<title>Node56&#45;&gt;Node18</title>
<path fill="none" stroke="#191970" d="M1545.1145,-235.7217C1419.6282,-228.5316 1163.3493,-211.4771 1076.9446,-188 1056.6049,-182.4735 1054.1788,-173.901 1033.9446,-168 921.9903,-135.3504 782.8281,-125.7936 720.6312,-123.0608"/>
<polygon fill="#191970" stroke="#191970" points="720.4173,-119.5493 710.283,-122.6388 720.1321,-126.5434 720.4173,-119.5493"/>
</g>
</g>
</svg>
