<?xml version="1.0" encoding="UTF-8" standalone="no"?>
<!DOCTYPE svg PUBLIC "-//W3C//DTD SVG 1.1//EN"
 "http://www.w3.org/Graphics/SVG/1.1/DTD/svg11.dtd">
<!-- Generated by graphviz version 2.40.1 (20161225.0304)
 -->
<!-- Title: idyntree&#45;model&#45;info.cpp Pages: 1 -->
<svg width="2179pt" height="677pt"
 viewBox="0.00 0.00 2179.25 677.00" xmlns="http://www.w3.org/2000/svg" xmlns:xlink="http://www.w3.org/1999/xlink">
<g id="graph0" class="graph" transform="scale(1 1) rotate(0) translate(4 673)">
<title>idyntree&#45;model&#45;info.cpp</title>
<!-- Node0 -->
<g id="node1" class="node">
<title>Node0</title>
<polygon fill="#bfbfbf" stroke="#000000" points="1605,-649.5 1605,-668.5 1739,-668.5 1739,-649.5 1605,-649.5"/>
<text text-anchor="middle" x="1672" y="-656.5" font-family="FreeSans.ttf" font-size="10.00" fill="#000000">idyntree&#45;model&#45;info.cpp</text>
</g>
<!-- Node1 -->
<g id="node2" class="node">
<title>Node1</title>
<g id="a_node2"><a xlink:href="Model_8h.html" target="_top" xlink:title="iDynTree/Model/Model.h">
<polygon fill="none" stroke="#000000" points="1359.5,-481.5 1359.5,-500.5 1492.5,-500.5 1492.5,-481.5 1359.5,-481.5"/>
<text text-anchor="middle" x="1426" y="-488.5" font-family="FreeSans.ttf" font-size="10.00" fill="#000000">iDynTree/Model/Model.h</text>
</a>
</g>
</g>
<!-- Node0&#45;&gt;Node1 -->
<g id="edge1" class="edge">
<title>Node0&#45;&gt;Node1</title>
<path fill="none" stroke="#191970" d="M1658.0691,-649.4862C1617.4032,-621.7144 1498.5804,-540.5671 1448.5832,-506.4227"/>
<polygon fill="#191970" stroke="#191970" points="1450.3149,-503.367 1440.083,-500.6177 1446.3671,-509.1476 1450.3149,-503.367"/>
</g>
<!-- Node25 -->
<g id="node35" class="node">
<title>Node25</title>
<polygon fill="none" stroke="#bfbfbf" points="2056,-112.5 2056,-131.5 2116,-131.5 2116,-112.5 2056,-112.5"/>
<text text-anchor="middle" x="2086" y="-119.5" font-family="FreeSans.ttf" font-size="10.00" fill="#000000">iostream</text>
</g>
<!-- Node0&#45;&gt;Node25 -->
<g id="edge114" class="edge">
<title>Node0&#45;&gt;Node25</title>
<path fill="none" stroke="#191970" d="M1739.3395,-656.8839C1869.2987,-650.9598 2142,-628.785 2142,-547 2142,-547 2142,-547 2142,-306.5 2142,-243.6731 2111.8991,-173.7983 2095.8346,-140.9804"/>
<polygon fill="#191970" stroke="#191970" points="2098.7821,-139.0504 2091.168,-131.6832 2092.526,-142.1907 2098.7821,-139.0504"/>
</g>
<!-- Node42 -->
<g id="node37" class="node">
<title>Node42</title>
<polygon fill="none" stroke="#bfbfbf" points="1666.5,-358.5 1666.5,-377.5 1715.5,-377.5 1715.5,-358.5 1666.5,-358.5"/>
<text text-anchor="middle" x="1691" y="-365.5" font-family="FreeSans.ttf" font-size="10.00" fill="#000000">cstdlib</text>
</g>
<!-- Node0&#45;&gt;Node42 -->
<g id="edge115" class="edge">
<title>Node0&#45;&gt;Node42</title>
<path fill="none" stroke="#191970" d="M1739.1955,-652.7232C1803.5716,-642.5737 1891,-616.0745 1891,-547 1891,-547 1891,-547 1891,-491 1891,-442.2872 1854.0178,-440.277 1813,-414 1785.8613,-396.6143 1751.1714,-384.3382 1725.725,-376.8661"/>
<polygon fill="#191970" stroke="#191970" points="1726.3527,-373.4064 1715.7775,-374.0504 1724.4462,-380.1417 1726.3527,-373.4064"/>
</g>
<!-- Node44 -->
<g id="node39" class="node">
<title>Node44</title>
<g id="a_node39"><a xlink:href="ModelLoader_8h.html" target="_top" xlink:title="iDynTree/ModelIO/ModelLoader.h">
<polygon fill="none" stroke="#000000" points="1229,-593.5 1229,-612.5 1405,-612.5 1405,-593.5 1229,-593.5"/>
<text text-anchor="middle" x="1317" y="-600.5" font-family="FreeSans.ttf" font-size="10.00" fill="#000000">iDynTree/ModelIO/ModelLoader.h</text>
</a>
</g>
</g>
<!-- Node0&#45;&gt;Node44 -->
<g id="edge65" class="edge">
<title>Node0&#45;&gt;Node44</title>
<path fill="none" stroke="#191970" d="M1611.3767,-649.4369C1549.3448,-639.6516 1453.0299,-624.4582 1387.5993,-614.1368"/>
<polygon fill="#191970" stroke="#191970" points="1387.7965,-610.6247 1377.3733,-612.5237 1386.7057,-617.5392 1387.7965,-610.6247"/>
</g>
<!-- Node48 -->
<g id="node43" class="node">
<title>Node48</title>
<g id="a_node43"><a xlink:href="KinDynComputations_8h.html" target="_top" xlink:title="iDynTree/KinDynComputations.h">
<polygon fill="none" stroke="#000000" points="234.5,-481.5 234.5,-500.5 409.5,-500.5 409.5,-481.5 234.5,-481.5"/>
<text text-anchor="middle" x="322" y="-488.5" font-family="FreeSans.ttf" font-size="10.00" fill="#000000">iDynTree/KinDynComputations.h</text>
</a>
</g>
</g>
<!-- Node0&#45;&gt;Node48 -->
<g id="edge80" class="edge">
<title>Node0&#45;&gt;Node48</title>
<path fill="none" stroke="#191970" d="M1604.9138,-652.8829C1516.5821,-644.6659 1356.4847,-629.2116 1220,-613 913.9723,-576.6501 550.5326,-524.5028 396.6946,-502.0127"/>
<polygon fill="#191970" stroke="#191970" points="396.827,-498.4949 386.4256,-500.51 395.8134,-505.4211 396.827,-498.4949"/>
</g>
<!-- Node53 -->
<g id="node48" class="node">
<title>Node53</title>
<g id="a_node48"><a xlink:href="cmdline_8h.html" target="_top" xlink:title="cmdline.h">
<polygon fill="none" stroke="#000000" points="1919.5,-420 1919.5,-439 1984.5,-439 1984.5,-420 1919.5,-420"/>
<text text-anchor="middle" x="1952" y="-427" font-family="FreeSans.ttf" font-size="10.00" fill="#000000">cmdline.h</text>
</a>
</g>
</g>
<!-- Node0&#45;&gt;Node53 -->
<g id="edge103" class="edge">
<title>Node0&#45;&gt;Node53</title>
<path fill="none" stroke="#191970" d="M1739.0347,-653.6605C1799.1766,-647.5021 1881.4831,-635.2395 1905,-613 1951.1226,-569.3828 1954.4119,-487.2123 1953.2396,-449.428"/>
<polygon fill="#191970" stroke="#191970" points="1956.7261,-449.0492 1952.775,-439.2186 1949.7333,-449.3674 1956.7261,-449.0492"/>
</g>
<!-- Node2 -->
<g id="node3" class="node">
<title>Node2</title>
<g id="a_node3"><a xlink:href="IJoint_8h.html" target="_top" xlink:title="iDynTree/Model/IJoint.h">
<polygon fill="none" stroke="#000000" points="1477,-420 1477,-439 1605,-439 1605,-420 1477,-420"/>
<text text-anchor="middle" x="1541" y="-427" font-family="FreeSans.ttf" font-size="10.00" fill="#000000">iDynTree/Model/IJoint.h</text>
</a>
</g>
</g>
<!-- Node1&#45;&gt;Node2 -->
<g id="edge2" class="edge">
<title>Node1&#45;&gt;Node2</title>
<path fill="none" stroke="#191970" d="M1443.9688,-481.3906C1462.7884,-471.3262 1492.5585,-455.4057 1514.1641,-443.8514"/>
<polygon fill="#191970" stroke="#191970" points="1515.9898,-446.8442 1523.1574,-439.0419 1512.6886,-440.6714 1515.9898,-446.8442"/>
</g>
<!-- Node3 -->
<g id="node4" class="node">
<title>Node3</title>
<g id="a_node4"><a xlink:href="Indices_8h.html" target="_top" xlink:title="iDynTree/Model/Indices.h">
<polygon fill="none" stroke="#000000" points="1472,-358.5 1472,-377.5 1610,-377.5 1610,-358.5 1472,-358.5"/>
<text text-anchor="middle" x="1541" y="-365.5" font-family="FreeSans.ttf" font-size="10.00" fill="#000000">iDynTree/Model/Indices.h</text>
</a>
</g>
</g>
<!-- Node1&#45;&gt;Node3 -->
<g id="edge56" class="edge">
<title>Node1&#45;&gt;Node3</title>
<path fill="none" stroke="#191970" d="M1429.5468,-481.0007C1435.5146,-465.2677 1448.8212,-434.4255 1468,-414 1480.1965,-401.0106 1496.8186,-390.1612 1511.1208,-382.2674"/>
<polygon fill="#191970" stroke="#191970" points="1512.9089,-385.2812 1520.1145,-377.514 1509.6379,-379.0924 1512.9089,-385.2812"/>
</g>
<!-- Node7 -->
<g id="node8" class="node">
<title>Node7</title>
<g id="a_node8"><a xlink:href="Link_8h.html" target="_top" xlink:title="iDynTree/Model/Link.h">
<polygon fill="none" stroke="#000000" points="1259,-420 1259,-439 1383,-439 1383,-420 1259,-420"/>
<text text-anchor="middle" x="1321" y="-427" font-family="FreeSans.ttf" font-size="10.00" fill="#000000">iDynTree/Model/Link.h</text>
</a>
</g>
</g>
<!-- Node1&#45;&gt;Node7 -->
<g id="edge7" class="edge">
<title>Node1&#45;&gt;Node7</title>
<path fill="none" stroke="#191970" d="M1409.5938,-481.3906C1392.5647,-471.4165 1365.7159,-455.6908 1346.0349,-444.1633"/>
<polygon fill="#191970" stroke="#191970" points="1347.6888,-441.0759 1337.291,-439.0419 1344.151,-447.1161 1347.6888,-441.0759"/>
</g>
<!-- Node40 -->
<g id="node29" class="node">
<title>Node40</title>
<g id="a_node29"><a xlink:href="Transform_8h.html" target="_top" xlink:title="iDynTree/Core/Transform.h">
<polygon fill="none" stroke="#000000" points="1166,-358.5 1166,-377.5 1312,-377.5 1312,-358.5 1166,-358.5"/>
<text text-anchor="middle" x="1239" y="-365.5" font-family="FreeSans.ttf" font-size="10.00" fill="#000000">iDynTree/Core/Transform.h</text>
</a>
</g>
</g>
<!-- Node1&#45;&gt;Node40 -->
<g id="edge34" class="edge">
<title>Node1&#45;&gt;Node40</title>
<path fill="none" stroke="#191970" d="M1359.4511,-483.3148C1311.9597,-476.301 1253.953,-464.0771 1239,-445 1226.4173,-428.9469 1228.8334,-404.677 1232.8391,-387.6873"/>
<polygon fill="#191970" stroke="#191970" points="1236.2993,-388.3024 1235.5594,-377.7335 1229.5469,-386.457 1236.2993,-388.3024"/>
</g>
<!-- Node41 -->
<g id="node36" class="node">
<title>Node41</title>
<g id="a_node36"><a xlink:href="SolidShapes_8h.html" target="_top" xlink:title="iDynTree/Model/SolidShapes.h">
<polygon fill="none" stroke="#000000" points="1623.5,-420 1623.5,-439 1786.5,-439 1786.5,-420 1623.5,-420"/>
<text text-anchor="middle" x="1705" y="-427" font-family="FreeSans.ttf" font-size="10.00" fill="#000000">iDynTree/Model/SolidShapes.h</text>
</a>
</g>
</g>
<!-- Node1&#45;&gt;Node41 -->
<g id="edge57" class="edge">
<title>Node1&#45;&gt;Node41</title>
<path fill="none" stroke="#191970" d="M1469.2876,-481.4581C1518.4642,-470.6181 1598.7424,-452.9224 1651.723,-441.2439"/>
<polygon fill="#191970" stroke="#191970" points="1652.5987,-444.6349 1661.6108,-439.0643 1651.0918,-437.799 1652.5987,-444.6349"/>
</g>
<!-- Node1&#45;&gt;Node42 -->
<g id="edge63" class="edge">
<title>Node1&#45;&gt;Node42</title>
<path fill="none" stroke="#191970" d="M1492.6617,-487.4264C1593.7687,-481.3164 1776.2867,-467.3159 1796,-445 1805.1216,-434.6741 1803.5384,-425.5326 1796,-414 1787.8051,-401.4631 1752.9495,-387.7668 1725.6164,-378.6082"/>
<polygon fill="#191970" stroke="#191970" points="1726.5425,-375.2288 1715.95,-375.4499 1724.3685,-381.8826 1726.5425,-375.2288"/>
</g>
<!-- Node43 -->
<g id="node38" class="node">
<title>Node43</title>
<polygon fill="none" stroke="#bfbfbf" points="1368.5,-358.5 1368.5,-377.5 1415.5,-377.5 1415.5,-358.5 1368.5,-358.5"/>
<text text-anchor="middle" x="1392" y="-365.5" font-family="FreeSans.ttf" font-size="10.00" fill="#000000">vector</text>
</g>
<!-- Node1&#45;&gt;Node43 -->
<g id="edge64" class="edge">
<title>Node1&#45;&gt;Node43</title>
<path fill="none" stroke="#191970" d="M1359.1305,-482.0817C1315.2494,-474.7009 1263.5603,-462.5599 1250,-445 1241.579,-434.0952 1241.8967,-425.1429 1250,-414 1253.3106,-409.4475 1317.5565,-389.88 1358.4861,-377.7795"/>
<polygon fill="#191970" stroke="#191970" points="1359.7347,-381.0605 1368.3383,-374.8777 1357.7569,-374.3457 1359.7347,-381.0605"/>
</g>
<!-- Node2&#45;&gt;Node3 -->
<g id="edge3" class="edge">
<title>Node2&#45;&gt;Node3</title>
<path fill="none" stroke="#191970" d="M1541,-419.8906C1541,-411.3657 1541,-398.6392 1541,-387.9235"/>
<polygon fill="#191970" stroke="#191970" points="1544.5001,-387.7448 1541,-377.7449 1537.5001,-387.7449 1544.5001,-387.7448"/>
</g>
<!-- Node4 -->
<g id="node5" class="node">
<title>Node4</title>
<polygon fill="none" stroke="#bfbfbf" points="806.5,-.5 806.5,-19.5 859.5,-19.5 859.5,-.5 806.5,-.5"/>
<text text-anchor="middle" x="833" y="-7.5" font-family="FreeSans.ttf" font-size="10.00" fill="#000000">cstddef</text>
</g>
<!-- Node3&#45;&gt;Node4 -->
<g id="edge4" class="edge">
<title>Node3&#45;&gt;Node4</title>
<path fill="none" stroke="#191970" d="M1582.1159,-358.4581C1604.4836,-351.5012 1631.3176,-340.0575 1650,-322 1673.5919,-299.1972 1673.7073,-286.99 1681,-255 1689.5949,-217.2981 1698.5035,-202.9706 1682,-168 1665.2907,-132.5932 1648.5856,-130.3487 1614,-112 1536.2309,-70.7411 1510.5795,-71.9472 1424,-56 1316.6363,-36.2246 981.3246,-17.6334 869.6197,-11.8455"/>
<polygon fill="#191970" stroke="#191970" points="869.6895,-8.3445 859.5228,-11.3257 869.3296,-15.3353 869.6895,-8.3445"/>
</g>
<!-- Node5 -->
<g id="node6" class="node">
<title>Node5</title>
<polygon fill="none" stroke="#bfbfbf" points="1371,-56.5 1371,-75.5 1415,-75.5 1415,-56.5 1371,-56.5"/>
<text text-anchor="middle" x="1393" y="-63.5" font-family="FreeSans.ttf" font-size="10.00" fill="#000000">string</text>
</g>
<!-- Node3&#45;&gt;Node5 -->
<g id="edge5" class="edge">
<title>Node3&#45;&gt;Node5</title>
<path fill="none" stroke="#191970" d="M1562.5438,-358.3836C1598.7775,-340.5705 1668,-298.782 1668,-239.5 1668,-239.5 1668,-239.5 1668,-178 1668,-126.0404 1497.4808,-86.4637 1424.9914,-71.9867"/>
<polygon fill="#191970" stroke="#191970" points="1425.5263,-68.525 1415.0395,-70.0344 1424.1787,-75.3941 1425.5263,-68.525"/>
</g>
<!-- Node6 -->
<g id="node7" class="node">
<title>Node6</title>
<polygon fill="none" stroke="#bfbfbf" points="1516,-297 1516,-316 1602,-316 1602,-297 1516,-297"/>
<text text-anchor="middle" x="1559" y="-304" font-family="FreeSans.ttf" font-size="10.00" fill="#000000">ModelExport.h</text>
</g>
<!-- Node3&#45;&gt;Node6 -->
<g id="edge6" class="edge">
<title>Node3&#45;&gt;Node6</title>
<path fill="none" stroke="#191970" d="M1543.8125,-358.3906C1546.3339,-349.776 1550.111,-336.8708 1553.2676,-326.0858"/>
<polygon fill="#191970" stroke="#191970" points="1556.6979,-326.8254 1556.1478,-316.2449 1549.9797,-324.8591 1556.6979,-326.8254"/>
</g>
<!-- Node7&#45;&gt;Node3 -->
<g id="edge33" class="edge">
<title>Node7&#45;&gt;Node3</title>
<path fill="none" stroke="#191970" d="M1355.375,-419.8906C1393.5573,-409.2169 1455.3016,-391.9566 1496.9884,-380.3033"/>
<polygon fill="#191970" stroke="#191970" points="1498.1779,-383.605 1506.8664,-377.5419 1496.2933,-376.8634 1498.1779,-383.605"/>
</g>
<!-- Node8 -->
<g id="node9" class="node">
<title>Node8</title>
<g id="a_node9"><a xlink:href="SpatialInertia_8h.html" target="_top" xlink:title="iDynTree/Core/SpatialInertia.h">
<polygon fill="none" stroke="#000000" points="739,-358.5 739,-377.5 901,-377.5 901,-358.5 739,-358.5"/>
<text text-anchor="middle" x="820" y="-365.5" font-family="FreeSans.ttf" font-size="10.00" fill="#000000">iDynTree/Core/SpatialInertia.h</text>
</a>
</g>
</g>
<!-- Node7&#45;&gt;Node8 -->
<g id="edge8" class="edge">
<title>Node7&#45;&gt;Node8</title>
<path fill="none" stroke="#191970" d="M1258.8132,-421.8663C1170.519,-411.0278 1008.404,-391.1274 907.8615,-378.7854"/>
<polygon fill="#191970" stroke="#191970" points="908.0779,-375.2858 897.7259,-377.5412 907.225,-382.2336 908.0779,-375.2858"/>
</g>
<!-- Node9 -->
<g id="node10" class="node">
<title>Node9</title>
<g id="a_node10"><a xlink:href="SpatialInertiaRaw_8h.html" target="_top" xlink:title="iDynTree/Core/SpatialInertia\lRaw.h">
<polygon fill="none" stroke="#ff0000" points="1032.5,-291.5 1032.5,-321.5 1185.5,-321.5 1185.5,-291.5 1032.5,-291.5"/>
<text text-anchor="start" x="1040.5" y="-309.5" font-family="FreeSans.ttf" font-size="10.00" fill="#000000">iDynTree/Core/SpatialInertia</text>
<text text-anchor="middle" x="1109" y="-298.5" font-family="FreeSans.ttf" font-size="10.00" fill="#000000">Raw.h</text>
</a>
</g>
</g>
<!-- Node8&#45;&gt;Node9 -->
<g id="edge9" class="edge">
<title>Node8&#45;&gt;Node9</title>
<path fill="none" stroke="#191970" d="M864.8392,-358.4581C908.4056,-349.187 975.5374,-334.9012 1028.3905,-323.6539"/>
<polygon fill="#191970" stroke="#191970" points="1029.369,-327.0242 1038.4214,-321.5193 1027.9119,-320.1775 1029.369,-327.0242"/>
</g>
<!-- Node27 -->
<g id="node11" class="node">
<title>Node27</title>
<g id="a_node11"><a xlink:href="VectorFixSize_8h.html" target="_top" xlink:title="iDynTree/Core/VectorFixSize.h">
<polygon fill="none" stroke="#000000" points="719.5,-112.5 719.5,-131.5 880.5,-131.5 880.5,-112.5 719.5,-112.5"/>
<text text-anchor="middle" x="800" y="-119.5" font-family="FreeSans.ttf" font-size="10.00" fill="#000000">iDynTree/Core/VectorFixSize.h</text>
</a>
</g>
</g>
<!-- Node8&#45;&gt;Node27 -->
<g id="edge10" class="edge">
<title>Node8&#45;&gt;Node27</title>
<path fill="none" stroke="#191970" d="M819.216,-358.3565C816.2478,-321.8479 805.6632,-191.6569 801.6022,-141.7066"/>
<polygon fill="#191970" stroke="#191970" points="805.0775,-141.2603 800.7786,-131.5768 798.1005,-141.8276 805.0775,-141.2603"/>
</g>
<!-- Node28 -->
<g id="node25" class="node">
<title>Node28</title>
<g id="a_node25"><a xlink:href="Twist_8h.html" target="_top" xlink:title="iDynTree/Core/Twist.h">
<polygon fill="none" stroke="#ff0000" points="650,-297 650,-316 772,-316 772,-297 650,-297"/>
<text text-anchor="middle" x="711" y="-304" font-family="FreeSans.ttf" font-size="10.00" fill="#000000">iDynTree/Core/Twist.h</text>
</a>
</g>
</g>
<!-- Node8&#45;&gt;Node28 -->
<g id="edge29" class="edge">
<title>Node8&#45;&gt;Node28</title>
<path fill="none" stroke="#191970" d="M802.9688,-358.3906C785.211,-348.3713 757.167,-332.5483 736.7118,-321.0071"/>
<polygon fill="#191970" stroke="#191970" points="738.3409,-317.9077 727.9117,-316.0419 734.9011,-324.0042 738.3409,-317.9077"/>
</g>
<!-- Node36 -->
<g id="node26" class="node">
<title>Node36</title>
<g id="a_node26"><a xlink:href="SpatialMomentum_8h.html" target="_top" xlink:title="iDynTree/Core/SpatialMomentum.h">
<polygon fill="none" stroke="#ff0000" points="828,-297 828,-316 1014,-316 1014,-297 828,-297"/>
<text text-anchor="middle" x="921" y="-304" font-family="FreeSans.ttf" font-size="10.00" fill="#000000">iDynTree/Core/SpatialMomentum.h</text>
</a>
</g>
</g>
<!-- Node8&#45;&gt;Node36 -->
<g id="edge30" class="edge">
<title>Node8&#45;&gt;Node36</title>
<path fill="none" stroke="#191970" d="M835.7813,-358.3906C852.0875,-348.4616 877.754,-332.833 896.6614,-321.3201"/>
<polygon fill="#191970" stroke="#191970" points="898.6087,-324.2322 905.3296,-316.0419 894.9681,-318.2533 898.6087,-324.2322"/>
</g>
<!-- Node38 -->
<g id="node27" class="node">
<title>Node38</title>
<g id="a_node27"><a xlink:href="SpatialAcc_8h.html" target="_top" xlink:title="iDynTree/Core/SpatialAcc.h">
<polygon fill="none" stroke="#ff0000" points="332,-297 332,-316 480,-316 480,-297 332,-297"/>
<text text-anchor="middle" x="406" y="-304" font-family="FreeSans.ttf" font-size="10.00" fill="#000000">iDynTree/Core/SpatialAcc.h</text>
</a>
</g>
</g>
<!-- Node8&#45;&gt;Node38 -->
<g id="edge31" class="edge">
<title>Node8&#45;&gt;Node38</title>
<path fill="none" stroke="#191970" d="M744.2589,-358.4931C677.0719,-349.8172 576.3275,-336.2142 489,-322 481.2684,-320.7415 473.1481,-319.3331 465.1383,-317.8921"/>
<polygon fill="#191970" stroke="#191970" points="465.555,-314.4104 455.0891,-316.0583 464.2983,-321.2967 465.555,-314.4104"/>
</g>
<!-- Node39 -->
<g id="node28" class="node">
<title>Node39</title>
<g id="a_node28"><a xlink:href="Wrench_8h.html" target="_top" xlink:title="iDynTree/Core/Wrench.h">
<polygon fill="none" stroke="#ff0000" points="498.5,-297 498.5,-316 631.5,-316 631.5,-297 498.5,-297"/>
<text text-anchor="middle" x="565" y="-304" font-family="FreeSans.ttf" font-size="10.00" fill="#000000">iDynTree/Core/Wrench.h</text>
</a>
</g>
</g>
<!-- Node8&#45;&gt;Node39 -->
<g id="edge32" class="edge">
<title>Node8&#45;&gt;Node39</title>
<path fill="none" stroke="#191970" d="M780.436,-358.4581C735.77,-347.6857 663.0313,-330.1428 614.603,-318.4631"/>
<polygon fill="#191970" stroke="#191970" points="615.1987,-315.0065 604.6568,-316.0643 613.5574,-321.8113 615.1987,-315.0065"/>
</g>
<!-- Node27&#45;&gt;Node4 -->
<g id="edge27" class="edge">
<title>Node27&#45;&gt;Node4</title>
<path fill="none" stroke="#191970" d="M802.9378,-112.4979C805.8001,-103.205 810.2554,-88.6468 814,-76 818.6018,-60.4582 823.6738,-42.8122 827.4191,-29.6789"/>
<polygon fill="#191970" stroke="#191970" points="830.8444,-30.4296 830.2137,-19.8535 824.1114,-28.5145 830.8444,-30.4296"/>
</g>
<!-- Node27&#45;&gt;Node5 -->
<g id="edge24" class="edge">
<title>Node27&#45;&gt;Node5</title>
<path fill="none" stroke="#191970" d="M880.5918,-114.3893C1012.8119,-101.9031 1270.1434,-77.602 1360.6058,-69.0591"/>
<polygon fill="#191970" stroke="#191970" points="1361.1644,-72.5221 1370.791,-68.0973 1360.5062,-65.5531 1361.1644,-72.5221"/>
</g>
<!-- Node12 -->
<g id="node12" class="node">
<title>Node12</title>
<g id="a_node12"><a xlink:href="Utils_8h.html" target="_top" xlink:title="iDynTree/Core/Utils.h">
<polygon fill="none" stroke="#000000" points="686.5,-56.5 686.5,-75.5 805.5,-75.5 805.5,-56.5 686.5,-56.5"/>
<text text-anchor="middle" x="746" y="-63.5" font-family="FreeSans.ttf" font-size="10.00" fill="#000000">iDynTree/Core/Utils.h</text>
</a>
</g>
</g>
<!-- Node27&#45;&gt;Node12 -->
<g id="edge11" class="edge">
<title>Node27&#45;&gt;Node12</title>
<path fill="none" stroke="#191970" d="M790.5939,-112.2455C782.8507,-104.2155 771.688,-92.6394 762.4682,-83.0781"/>
<polygon fill="#191970" stroke="#191970" points="764.7591,-80.4117 755.2983,-75.6427 759.7202,-85.2706 764.7591,-80.4117"/>
</g>
<!-- Node17 -->
<g id="node14" class="node">
<title>Node17</title>
<g id="a_node14"><a xlink:href="Span_8h.html" target="_top" xlink:title="iDynTree/Core/Span.h">
<polygon fill="none" stroke="#000000" points="432.5,-56.5 432.5,-75.5 553.5,-75.5 553.5,-56.5 432.5,-56.5"/>
<text text-anchor="middle" x="493" y="-63.5" font-family="FreeSans.ttf" font-size="10.00" fill="#000000">iDynTree/Core/Span.h</text>
</a>
</g>
</g>
<!-- Node27&#45;&gt;Node17 -->
<g id="edge14" class="edge">
<title>Node27&#45;&gt;Node17</title>
<path fill="none" stroke="#191970" d="M747.5736,-112.4369C694.2603,-102.712 611.6643,-87.6456 555.1044,-77.3285"/>
<polygon fill="#191970" stroke="#191970" points="555.6759,-73.8751 545.2101,-75.5237 554.4197,-80.7614 555.6759,-73.8751"/>
</g>
<!-- Node15 -->
<g id="node15" class="node">
<title>Node15</title>
<polygon fill="none" stroke="#bfbfbf" points="594,-.5 594,-19.5 646,-19.5 646,-.5 594,-.5"/>
<text text-anchor="middle" x="620" y="-7.5" font-family="FreeSans.ttf" font-size="10.00" fill="#000000">cassert</text>
</g>
<!-- Node27&#45;&gt;Node15 -->
<g id="edge26" class="edge">
<title>Node27&#45;&gt;Node15</title>
<path fill="none" stroke="#191970" d="M759.6203,-112.4272C734.3551,-105.1522 701.979,-93.39 677,-76 658.4783,-63.1055 642.2005,-42.8504 631.8332,-28.1782"/>
<polygon fill="#191970" stroke="#191970" points="634.7002,-26.1701 626.1746,-19.8799 628.9168,-30.1138 634.7002,-26.1701"/>
</g>
<!-- Node26 -->
<g id="node23" class="node">
<title>Node26</title>
<polygon fill="none" stroke="#bfbfbf" points="1065,-56.5 1065,-75.5 1121,-75.5 1121,-56.5 1065,-56.5"/>
<text text-anchor="middle" x="1093" y="-63.5" font-family="FreeSans.ttf" font-size="10.00" fill="#000000">sstream</text>
</g>
<!-- Node27&#45;&gt;Node26 -->
<g id="edge25" class="edge">
<title>Node27&#45;&gt;Node26</title>
<path fill="none" stroke="#191970" d="M861.5931,-112.4618C911.2968,-104.4162 983.2076,-91.9932 1054.6981,-76.1533"/>
<polygon fill="#191970" stroke="#191970" points="1055.787,-79.4962 1064.7806,-73.8956 1054.2574,-72.6654 1055.787,-79.4962"/>
</g>
<!-- Node24 -->
<g id="node24" class="node">
<title>Node24</title>
<polygon fill="none" stroke="#bfbfbf" points="997,-56.5 997,-75.5 1047,-75.5 1047,-56.5 997,-56.5"/>
<text text-anchor="middle" x="1022" y="-63.5" font-family="FreeSans.ttf" font-size="10.00" fill="#000000">cstring</text>
</g>
<!-- Node27&#45;&gt;Node24 -->
<g id="edge28" class="edge">
<title>Node27&#45;&gt;Node24</title>
<path fill="none" stroke="#191970" d="M837.9109,-112.4369C879.6951,-101.8967 946.3536,-85.082 986.9563,-74.8398"/>
<polygon fill="#191970" stroke="#191970" points="987.8465,-78.225 996.6867,-72.3853 986.1343,-71.4376 987.8465,-78.225"/>
</g>
<!-- Node12&#45;&gt;Node4 -->
<g id="edge12" class="edge">
<title>Node12&#45;&gt;Node4</title>
<path fill="none" stroke="#191970" d="M761.1542,-56.2455C774.5027,-47.6534 794.1586,-35.0014 809.5383,-25.1018"/>
<polygon fill="#191970" stroke="#191970" points="811.5051,-27.9982 818.0194,-19.6427 807.7164,-22.1121 811.5051,-27.9982"/>
</g>
<!-- Node13 -->
<g id="node13" class="node">
<title>Node13</title>
<polygon fill="none" stroke="#bfbfbf" points="706,-.5 706,-19.5 786,-19.5 786,-.5 706,-.5"/>
<text text-anchor="middle" x="746" y="-7.5" font-family="FreeSans.ttf" font-size="10.00" fill="#000000">CoreExport.h</text>
</g>
<!-- Node12&#45;&gt;Node13 -->
<g id="edge13" class="edge">
<title>Node12&#45;&gt;Node13</title>
<path fill="none" stroke="#191970" d="M746,-56.2455C746,-48.9382 746,-38.6944 746,-29.7046"/>
<polygon fill="#191970" stroke="#191970" points="749.5001,-29.6426 746,-19.6427 742.5001,-29.6427 749.5001,-29.6426"/>
</g>
<!-- Node17&#45;&gt;Node4 -->
<g id="edge18" class="edge">
<title>Node17&#45;&gt;Node4</title>
<path fill="none" stroke="#191970" d="M553.7871,-58.6694C615.0154,-50.8342 712.0371,-37.1839 795,-20 795.3382,-19.93 795.6778,-19.8588 796.0188,-19.7865"/>
<polygon fill="#191970" stroke="#191970" points="797.1419,-23.1193 806.0969,-17.4573 795.5655,-16.2991 797.1419,-23.1193"/>
</g>
<!-- Node17&#45;&gt;Node15 -->
<g id="edge15" class="edge">
<title>Node17&#45;&gt;Node15</title>
<path fill="none" stroke="#191970" d="M514.8321,-56.3733C535.3103,-47.3435 566.1399,-33.7494 589.1319,-23.6111"/>
<polygon fill="#191970" stroke="#191970" points="590.715,-26.7383 598.4528,-19.5011 587.8907,-20.3333 590.715,-26.7383"/>
</g>
<!-- Node18 -->
<g id="node16" class="node">
<title>Node18</title>
<polygon fill="none" stroke="#bfbfbf" points="1395,-.5 1395,-19.5 1459,-19.5 1459,-.5 1395,-.5"/>
<text text-anchor="middle" x="1427" y="-7.5" font-family="FreeSans.ttf" font-size="10.00" fill="#000000">algorithm</text>
</g>
<!-- Node17&#45;&gt;Node18 -->
<g id="edge16" class="edge">
<title>Node17&#45;&gt;Node18</title>
<path fill="none" stroke="#191970" d="M553.5627,-62.3688C729.0348,-51.848 1234.7911,-21.5243 1384.6627,-12.5384"/>
<polygon fill="#191970" stroke="#191970" points="1385.0564,-16.0212 1394.829,-11.9289 1384.6374,-9.0337 1385.0564,-16.0212"/>
</g>
<!-- Node19 -->
<g id="node17" class="node">
<title>Node19</title>
<polygon fill="none" stroke="#bfbfbf" points="408,-.5 408,-19.5 450,-19.5 450,-.5 408,-.5"/>
<text text-anchor="middle" x="429" y="-7.5" font-family="FreeSans.ttf" font-size="10.00" fill="#000000">array</text>
</g>
<!-- Node17&#45;&gt;Node19 -->
<g id="edge17" class="edge">
<title>Node17&#45;&gt;Node19</title>
<path fill="none" stroke="#191970" d="M481.8521,-56.2455C472.4913,-48.0549 458.9142,-36.1749 447.8651,-26.5069"/>
<polygon fill="#191970" stroke="#191970" points="449.8508,-23.5937 440.0202,-19.6427 445.2412,-28.8618 449.8508,-23.5937"/>
</g>
<!-- Node20 -->
<g id="node18" class="node">
<title>Node20</title>
<polygon fill="none" stroke="#bfbfbf" points="127.5,-.5 127.5,-19.5 180.5,-19.5 180.5,-.5 127.5,-.5"/>
<text text-anchor="middle" x="154" y="-7.5" font-family="FreeSans.ttf" font-size="10.00" fill="#000000">iterator</text>
</g>
<!-- Node17&#45;&gt;Node20 -->
<g id="edge19" class="edge">
<title>Node17&#45;&gt;Node20</title>
<path fill="none" stroke="#191970" d="M435.109,-56.4369C365.1781,-44.8849 249.6207,-25.7958 190.8253,-16.0832"/>
<polygon fill="#191970" stroke="#191970" points="191.3076,-12.6155 180.8708,-14.4388 190.1666,-19.5219 191.3076,-12.6155"/>
</g>
<!-- Node21 -->
<g id="node19" class="node">
<title>Node21</title>
<polygon fill="none" stroke="#bfbfbf" points="468,-.5 468,-19.5 512,-19.5 512,-.5 468,-.5"/>
<text text-anchor="middle" x="490" y="-7.5" font-family="FreeSans.ttf" font-size="10.00" fill="#000000">limits</text>
</g>
<!-- Node17&#45;&gt;Node21 -->
<g id="edge20" class="edge">
<title>Node17&#45;&gt;Node21</title>
<path fill="none" stroke="#191970" d="M492.4774,-56.2455C492.086,-48.9382 491.5372,-38.6944 491.0556,-29.7046"/>
<polygon fill="#191970" stroke="#191970" points="494.5466,-29.4411 490.5166,-19.6427 487.5566,-29.8156 494.5466,-29.4411"/>
</g>
<!-- Node22 -->
<g id="node20" class="node">
<title>Node22</title>
<polygon fill="none" stroke="#bfbfbf" points="1735.5,-.5 1735.5,-19.5 1800.5,-19.5 1800.5,-.5 1735.5,-.5"/>
<text text-anchor="middle" x="1768" y="-7.5" font-family="FreeSans.ttf" font-size="10.00" fill="#000000">stdexcept</text>
</g>
<!-- Node17&#45;&gt;Node22 -->
<g id="edge21" class="edge">
<title>Node17&#45;&gt;Node22</title>
<path fill="none" stroke="#191970" d="M553.905,-62.5037C589.7389,-60.4932 635.9386,-57.9814 677,-56 1084.8018,-36.3221 1578.5819,-17.1979 1725.0778,-11.622"/>
<polygon fill="#191970" stroke="#191970" points="1725.5569,-15.1064 1735.4167,-11.229 1725.291,-8.1114 1725.5569,-15.1064"/>
</g>
<!-- Node16 -->
<g id="node21" class="node">
<title>Node16</title>
<polygon fill="none" stroke="#bfbfbf" points="309.5,-.5 309.5,-19.5 378.5,-19.5 378.5,-.5 309.5,-.5"/>
<text text-anchor="middle" x="344" y="-7.5" font-family="FreeSans.ttf" font-size="10.00" fill="#000000">type_traits</text>
</g>
<!-- Node17&#45;&gt;Node16 -->
<g id="edge22" class="edge">
<title>Node17&#45;&gt;Node16</title>
<path fill="none" stroke="#191970" d="M467.386,-56.3733C442.9313,-47.1822 405.8946,-33.2624 378.7791,-23.0713"/>
<polygon fill="#191970" stroke="#191970" points="379.8719,-19.7431 369.2798,-19.5011 377.4091,-26.2956 379.8719,-19.7431"/>
</g>
<!-- Node23 -->
<g id="node22" class="node">
<title>Node23</title>
<polygon fill="none" stroke="#bfbfbf" points="530.5,-.5 530.5,-19.5 575.5,-19.5 575.5,-.5 530.5,-.5"/>
<text text-anchor="middle" x="553" y="-7.5" font-family="FreeSans.ttf" font-size="10.00" fill="#000000">utility</text>
</g>
<!-- Node17&#45;&gt;Node23 -->
<g id="edge23" class="edge">
<title>Node17&#45;&gt;Node23</title>
<path fill="none" stroke="#191970" d="M503.4512,-56.2455C512.2269,-48.0549 524.9554,-36.1749 535.314,-26.5069"/>
<polygon fill="#191970" stroke="#191970" points="537.7461,-29.0246 542.6686,-19.6427 532.9699,-23.9072 537.7461,-29.0246"/>
</g>
<!-- Node40&#45;&gt;Node5 -->
<g id="edge55" class="edge">
<title>Node40&#45;&gt;Node5</title>
<path fill="none" stroke="#191970" d="M1290.1618,-358.4717C1329.2761,-350.1691 1378.8255,-337.1106 1393,-322 1418.7423,-294.5576 1412,-277.1265 1412,-239.5 1412,-239.5 1412,-239.5 1412,-178 1412,-145.2688 1404.0148,-107.9052 1398.3978,-85.6716"/>
<polygon fill="#191970" stroke="#191970" points="1401.7289,-84.5763 1395.8035,-75.7934 1394.9585,-86.3545 1401.7289,-84.5763"/>
</g>
<!-- Node32 -->
<g id="node30" class="node">
<title>Node32</title>
<g id="a_node30"><a xlink:href="Position_8h.html" target="_top" xlink:title="Position.h">
<polygon fill="none" stroke="#ff0000" points="1318.5,-297 1318.5,-316 1383.5,-316 1383.5,-297 1318.5,-297"/>
<text text-anchor="middle" x="1351" y="-304" font-family="FreeSans.ttf" font-size="10.00" fill="#000000">Position.h</text>
</a>
</g>
</g>
<!-- Node40&#45;&gt;Node32 -->
<g id="edge35" class="edge">
<title>Node40&#45;&gt;Node32</title>
<path fill="none" stroke="#191970" d="M1256.5,-358.3906C1274.7465,-348.3713 1303.5624,-332.5483 1324.5806,-321.0071"/>
<polygon fill="#191970" stroke="#191970" points="1326.542,-323.923 1333.6229,-316.0419 1323.1728,-317.7872 1326.542,-323.923"/>
</g>
<!-- Node34 -->
<g id="node31" class="node">
<title>Node34</title>
<g id="a_node31"><a xlink:href="Rotation_8h.html" target="_top" xlink:title="iDynTree/Core/Rotation.h">
<polygon fill="none" stroke="#ff0000" points="965.5,-230 965.5,-249 1102.5,-249 1102.5,-230 965.5,-230"/>
<text text-anchor="middle" x="1034" y="-237" font-family="FreeSans.ttf" font-size="10.00" fill="#000000">iDynTree/Core/Rotation.h</text>
</a>
</g>
</g>
<!-- Node40&#45;&gt;Node34 -->
<g id="edge42" class="edge">
<title>Node40&#45;&gt;Node34</title>
<path fill="none" stroke="#191970" d="M1236.0975,-358.4432C1230.6806,-342.2032 1217.4961,-309.2148 1195,-291 1177.8803,-277.1384 1125.4741,-261.8242 1085.0536,-251.5278"/>
<polygon fill="#191970" stroke="#191970" points="1085.8774,-248.126 1075.3262,-249.0868 1084.1737,-254.9155 1085.8774,-248.126"/>
</g>
<!-- Node11 -->
<g id="node33" class="node">
<title>Node11</title>
<g id="a_node33"><a xlink:href="MatrixFixSize_8h.html" target="_top" xlink:title="iDynTree/Core/MatrixFixSize.h">
<polygon fill="none" stroke="#000000" points="994.5,-168.5 994.5,-187.5 1155.5,-187.5 1155.5,-168.5 994.5,-168.5"/>
<text text-anchor="middle" x="1075" y="-175.5" font-family="FreeSans.ttf" font-size="10.00" fill="#000000">iDynTree/Core/MatrixFixSize.h</text>
</a>
</g>
</g>
<!-- Node40&#45;&gt;Node11 -->
<g id="edge43" class="edge">
<title>Node40&#45;&gt;Node11</title>
<path fill="none" stroke="#191970" d="M1245.9351,-358.3981C1263.0787,-333.3943 1303.7666,-265.347 1271,-224 1257.4274,-206.8732 1210.3517,-195.5028 1165.7402,-188.3514"/>
<polygon fill="#191970" stroke="#191970" points="1166.0925,-184.8645 1155.6761,-186.8006 1165.0263,-191.7828 1166.0925,-184.8645"/>
</g>
<!-- Node32&#45;&gt;Node5 -->
<g id="edge41" class="edge">
<title>Node32&#45;&gt;Node5</title>
<path fill="none" stroke="#191970" d="M1352.6985,-296.7742C1358.9915,-260.739 1381.0552,-134.3983 1389.5917,-85.5168"/>
<polygon fill="#191970" stroke="#191970" points="1393.0538,-86.0363 1391.3264,-75.5833 1386.1582,-84.8321 1393.0538,-86.0363"/>
</g>
<!-- Node32&#45;&gt;Node34 -->
<g id="edge36" class="edge">
<title>Node32&#45;&gt;Node34</title>
<path fill="none" stroke="#191970" d="M1318.2694,-299.5822C1264.0267,-288.1176 1154.9365,-265.0607 1088.7932,-251.0809"/>
<polygon fill="#191970" stroke="#191970" points="1089.4673,-247.6461 1078.9597,-249.0025 1088.0197,-254.4948 1089.4673,-247.6461"/>
</g>
<!-- Node34&#45;&gt;Node5 -->
<g id="edge37" class="edge">
<title>Node34&#45;&gt;Node5</title>
<path fill="none" stroke="#191970" d="M1075.2998,-229.9562C1109.207,-221.3212 1157.9824,-207.0416 1198,-188 1253.3206,-161.6768 1260.8642,-144.1736 1313,-112 1330.6135,-101.1305 1350.8229,-89.517 1366.5228,-80.6784"/>
<polygon fill="#191970" stroke="#191970" points="1368.6376,-83.5055 1375.6519,-75.5652 1365.2168,-77.3983 1368.6376,-83.5055"/>
</g>
<!-- Node34&#45;&gt;Node27 -->
<g id="edge40" class="edge">
<title>Node34&#45;&gt;Node27</title>
<path fill="none" stroke="#191970" d="M1014.8508,-229.8845C973.6116,-209.1768 876.2442,-160.285 828.0398,-136.0798"/>
<polygon fill="#191970" stroke="#191970" points="829.5929,-132.9432 819.0856,-131.5836 826.4516,-139.1989 829.5929,-132.9432"/>
</g>
<!-- Node30 -->
<g id="node32" class="node">
<title>Node30</title>
<g id="a_node32"><a xlink:href="GeomVector3_8h.html" target="_top" xlink:title="iDynTree/Core/GeomVector3.h">
<polygon fill="none" stroke="#000000" points="608.5,-168.5 608.5,-187.5 771.5,-187.5 771.5,-168.5 608.5,-168.5"/>
<text text-anchor="middle" x="690" y="-175.5" font-family="FreeSans.ttf" font-size="10.00" fill="#000000">iDynTree/Core/GeomVector3.h</text>
</a>
</g>
</g>
<!-- Node34&#45;&gt;Node30 -->
<g id="edge38" class="edge">
<title>Node34&#45;&gt;Node30</title>
<path fill="none" stroke="#191970" d="M980.6274,-229.9581C919.2741,-218.9894 818.6573,-201.0012 753.377,-189.3305"/>
<polygon fill="#191970" stroke="#191970" points="753.6746,-185.8283 743.2147,-187.5137 752.4427,-192.719 753.6746,-185.8283"/>
</g>
<!-- Node30&#45;&gt;Node27 -->
<g id="edge39" class="edge">
<title>Node30&#45;&gt;Node27</title>
<path fill="none" stroke="#191970" d="M709.1605,-168.2455C726.5111,-159.4125 752.2901,-146.2887 771.9583,-136.2758"/>
<polygon fill="#191970" stroke="#191970" points="773.7353,-139.2986 781.059,-131.6427 770.5595,-133.0605 773.7353,-139.2986"/>
</g>
<!-- Node11&#45;&gt;Node5 -->
<g id="edge52" class="edge">
<title>Node11&#45;&gt;Node5</title>
<path fill="none" stroke="#191970" d="M1085.5301,-168.4955C1102.1932,-153.9905 1136.2262,-126.491 1170,-112 1234.2685,-84.4249 1316.2082,-72.9939 1360.7022,-68.5628"/>
<polygon fill="#191970" stroke="#191970" points="1361.2844,-72.0237 1370.9135,-67.6044 1360.6302,-65.0543 1361.2844,-72.0237"/>
</g>
<!-- Node11&#45;&gt;Node12 -->
<g id="edge44" class="edge">
<title>Node11&#45;&gt;Node12</title>
<path fill="none" stroke="#191970" d="M1048.9027,-168.4635C1012.9963,-155.4058 946.2893,-131.3738 889,-112 854.4147,-100.3041 814.8917,-87.6439 786.1741,-78.5717"/>
<polygon fill="#191970" stroke="#191970" points="787.0824,-75.1883 776.4927,-75.5198 784.9778,-81.8644 787.0824,-75.1883"/>
</g>
<!-- Node11&#45;&gt;Node15 -->
<g id="edge50" class="edge">
<title>Node11&#45;&gt;Node15</title>
<path fill="none" stroke="#191970" d="M994.4595,-173.7753C902.5785,-167.9279 758.748,-155.3446 710,-132 666.6584,-111.2445 639.3605,-58.0394 627.2674,-29.2278"/>
<polygon fill="#191970" stroke="#191970" points="630.4669,-27.8025 623.4984,-19.8219 623.9692,-30.4063 630.4669,-27.8025"/>
</g>
<!-- Node11&#45;&gt;Node26 -->
<g id="edge54" class="edge">
<title>Node11&#45;&gt;Node26</title>
<path fill="none" stroke="#191970" d="M1076.5347,-168.4509C1079.4704,-150.184 1085.9358,-109.9553 1089.8343,-85.6976"/>
<polygon fill="#191970" stroke="#191970" points="1093.338,-85.9536 1091.4692,-75.5249 1086.4267,-84.8428 1093.338,-85.9536"/>
</g>
<!-- Node11&#45;&gt;Node24 -->
<g id="edge51" class="edge">
<title>Node11&#45;&gt;Node24</title>
<path fill="none" stroke="#191970" d="M1070.4812,-168.4509C1061.7197,-149.936 1042.2815,-108.8591 1030.8579,-84.7187"/>
<polygon fill="#191970" stroke="#191970" points="1033.9484,-83.0668 1026.5073,-75.5249 1027.6211,-86.061 1033.9484,-83.0668"/>
</g>
<!-- Node14 -->
<g id="node34" class="node">
<title>Node14</title>
<g id="a_node34"><a xlink:href="MatrixView_8h.html" target="_top" xlink:title="iDynTree/Core/MatrixView.h">
<polygon fill="none" stroke="#000000" points="256.5,-112.5 256.5,-131.5 407.5,-131.5 407.5,-112.5 256.5,-112.5"/>
<text text-anchor="middle" x="332" y="-119.5" font-family="FreeSans.ttf" font-size="10.00" fill="#000000">iDynTree/Core/MatrixView.h</text>
</a>
</g>
</g>
<!-- Node11&#45;&gt;Node14 -->
<g id="edge45" class="edge">
<title>Node11&#45;&gt;Node14</title>
<path fill="none" stroke="#191970" d="M994.2457,-173.6359C871.8367,-166.7379 631.7461,-152.1041 417.7095,-132.1243"/>
<polygon fill="#191970" stroke="#191970" points="417.8211,-128.6195 407.5376,-131.1689 417.1664,-135.5888 417.8211,-128.6195"/>
</g>
<!-- Node11&#45;&gt;Node25 -->
<g id="edge53" class="edge">
<title>Node11&#45;&gt;Node25</title>
<path fill="none" stroke="#191970" d="M1155.6005,-173.5355C1360.2646,-162.199 1894.4986,-132.6074 2045.6357,-124.2358"/>
<polygon fill="#191970" stroke="#191970" points="2046.0547,-127.7181 2055.8458,-123.6703 2045.6675,-120.7288 2046.0547,-127.7181"/>
</g>
<!-- Node14&#45;&gt;Node12 -->
<g id="edge49" class="edge">
<title>Node14&#45;&gt;Node12</title>
<path fill="none" stroke="#191970" d="M402.6987,-112.4369C479.1719,-102.0927 600.3232,-85.7051 676.375,-75.4179"/>
<polygon fill="#191970" stroke="#191970" points="676.8973,-78.8792 686.3378,-74.0702 675.9589,-71.9424 676.8973,-78.8792"/>
</g>
<!-- Node14&#45;&gt;Node17 -->
<g id="edge48" class="edge">
<title>Node14&#45;&gt;Node17</title>
<path fill="none" stroke="#191970" d="M359.6769,-112.3733C386.3328,-103.1016 426.8238,-89.0178 456.1884,-78.804"/>
<polygon fill="#191970" stroke="#191970" points="457.3891,-82.0921 465.6843,-75.5011 455.0895,-75.4807 457.3891,-82.0921"/>
</g>
<!-- Node14&#45;&gt;Node15 -->
<g id="edge46" class="edge">
<title>Node14&#45;&gt;Node15</title>
<path fill="none" stroke="#191970" d="M405.7575,-112.4757C462.6162,-104.1754 535.8154,-91.1181 562,-76 581.9105,-64.5044 598.4806,-43.6678 608.7421,-28.4737"/>
<polygon fill="#191970" stroke="#191970" points="611.8087,-30.1767 614.2897,-19.8764 605.9269,-26.3813 611.8087,-30.1767"/>
</g>
<!-- Node14&#45;&gt;Node16 -->
<g id="edge47" class="edge">
<title>Node14&#45;&gt;Node16</title>
<path fill="none" stroke="#191970" d="M333.0231,-112.4509C334.9803,-94.184 339.2905,-53.9553 341.8895,-29.6976"/>
<polygon fill="#191970" stroke="#191970" points="345.3941,-29.8409 342.9795,-19.5249 338.434,-29.0951 345.3941,-29.8409"/>
</g>
<!-- Node41&#45;&gt;Node3 -->
<g id="edge62" class="edge">
<title>Node41&#45;&gt;Node3</title>
<path fill="none" stroke="#191970" d="M1679.375,-419.8906C1651.5737,-409.4652 1607.0156,-392.7559 1576.0006,-381.1252"/>
<polygon fill="#191970" stroke="#191970" points="1577.0373,-377.776 1566.4451,-377.5419 1574.5794,-384.3303 1577.0373,-377.776"/>
</g>
<!-- Node41&#45;&gt;Node5 -->
<g id="edge59" class="edge">
<title>Node41&#45;&gt;Node5</title>
<path fill="none" stroke="#191970" d="M1690.5871,-419.7855C1672.3714,-406.2438 1644.8815,-380.7868 1658,-358 1673.8979,-330.3854 1704.1021,-349.6146 1720,-322 1743.401,-281.3525 1724.4456,-231.2901 1682,-168 1660.193,-135.4839 1649.3036,-128.9262 1614,-112 1551.4813,-82.0257 1469.8281,-71.5115 1425.3441,-67.8759"/>
<polygon fill="#191970" stroke="#191970" points="1425.3641,-64.3676 1415.1303,-67.1098 1424.8405,-71.348 1425.3641,-64.3676"/>
</g>
<!-- Node41&#45;&gt;Node40 -->
<g id="edge61" class="edge">
<title>Node41&#45;&gt;Node40</title>
<path fill="none" stroke="#191970" d="M1651.6542,-419.9854C1639.3076,-417.9023 1626.21,-415.7877 1614,-414 1513.8452,-399.3357 1398.1697,-385.6353 1322.0809,-377.0655"/>
<polygon fill="#191970" stroke="#191970" points="1322.4046,-373.58 1312.0766,-375.9426 1321.6238,-380.5363 1322.4046,-373.58"/>
</g>
<!-- Node41&#45;&gt;Node42 -->
<g id="edge58" class="edge">
<title>Node41&#45;&gt;Node42</title>
<path fill="none" stroke="#191970" d="M1702.8125,-419.8906C1700.8514,-411.276 1697.9137,-398.3708 1695.4585,-387.5858"/>
<polygon fill="#191970" stroke="#191970" points="1698.8507,-386.7185 1693.2183,-377.7449 1692.0254,-388.2723 1698.8507,-386.7185"/>
</g>
<!-- Node41&#45;&gt;Node43 -->
<g id="edge60" class="edge">
<title>Node41&#45;&gt;Node43</title>
<path fill="none" stroke="#191970" d="M1656.4372,-419.9581C1592.3955,-407.3748 1481.3371,-385.5535 1425.7424,-374.6299"/>
<polygon fill="#191970" stroke="#191970" points="1426.1991,-371.1528 1415.7119,-372.659 1424.8495,-378.0215 1426.1991,-371.1528"/>
</g>
<!-- Node44&#45;&gt;Node1 -->
<g id="edge66" class="edge">
<title>Node44&#45;&gt;Node1</title>
<path fill="none" stroke="#191970" d="M1334.0471,-593.3487C1347.9755,-584.9274 1367.6388,-571.7671 1382,-557 1395.7521,-542.8593 1407.8895,-523.8809 1415.9141,-509.9051"/>
<polygon fill="#191970" stroke="#191970" points="1419.201,-511.1953 1420.9946,-500.7534 1413.0808,-507.7977 1419.201,-511.1953"/>
</g>
<!-- Node44&#45;&gt;Node5 -->
<g id="edge78" class="edge">
<title>Node44&#45;&gt;Node5</title>
<path fill="none" stroke="#191970" d="M1405.2202,-597.6474C1539.8814,-586.2425 1801.3486,-551.157 1994,-445 2133.293,-368.2452 2233.8748,-227.9314 2125,-112 2100.7322,-86.1593 1564.6467,-70.4642 1425.6684,-66.82"/>
<polygon fill="#191970" stroke="#191970" points="1425.3564,-63.3108 1415.269,-66.5505 1425.175,-70.3085 1425.3564,-63.3108"/>
</g>
<!-- Node44&#45;&gt;Node43 -->
<g id="edge79" class="edge">
<title>Node44&#45;&gt;Node43</title>
<path fill="none" stroke="#191970" d="M1242.9206,-593.4636C1199.0346,-586.1237 1149.4348,-574.2763 1136,-557 1110.016,-523.5863 1026.5608,-546.053 1158,-414 1220.4812,-351.227 1267.5565,-397.2838 1354,-378 1355.4565,-377.6751 1356.9415,-377.3327 1358.4396,-376.9782"/>
<polygon fill="#191970" stroke="#191970" points="1359.4879,-380.3243 1368.3509,-374.5193 1357.8023,-373.5302 1359.4879,-380.3243"/>
</g>
<!-- Node45 -->
<g id="node40" class="node">
<title>Node45</title>
<g id="a_node40"><a xlink:href="Sensors_8h.html" target="_top" xlink:title="iDynTree/Sensors/Sensors.h">
<polygon fill="none" stroke="#000000" points="1221.5,-537.5 1221.5,-556.5 1372.5,-556.5 1372.5,-537.5 1221.5,-537.5"/>
<text text-anchor="middle" x="1297" y="-544.5" font-family="FreeSans.ttf" font-size="10.00" fill="#000000">iDynTree/Sensors/Sensors.h</text>
</a>
</g>
</g>
<!-- Node44&#45;&gt;Node45 -->
<g id="edge67" class="edge">
<title>Node44&#45;&gt;Node45</title>
<path fill="none" stroke="#191970" d="M1313.5163,-593.2455C1310.8492,-585.7776 1307.0867,-575.2427 1303.8263,-566.1137"/>
<polygon fill="#191970" stroke="#191970" points="1307.1033,-564.8829 1300.4438,-556.6427 1300.5111,-567.2373 1307.1033,-564.8829"/>
</g>
<!-- Node47 -->
<g id="node42" class="node">
<title>Node47</title>
<polygon fill="none" stroke="#bfbfbf" points="1145,-537.5 1145,-556.5 1203,-556.5 1203,-537.5 1145,-537.5"/>
<text text-anchor="middle" x="1174" y="-544.5" font-family="FreeSans.ttf" font-size="10.00" fill="#000000">memory</text>
</g>
<!-- Node44&#45;&gt;Node47 -->
<g id="edge77" class="edge">
<title>Node44&#45;&gt;Node47</title>
<path fill="none" stroke="#191970" d="M1292.4174,-593.3733C1269.0504,-584.2226 1233.7138,-570.3844 1207.7216,-560.2057"/>
<polygon fill="#191970" stroke="#191970" points="1208.8495,-556.8886 1198.2618,-556.5011 1206.297,-563.4066 1208.8495,-556.8886"/>
</g>
<!-- Node45&#45;&gt;Node1 -->
<g id="edge75" class="edge">
<title>Node45&#45;&gt;Node1</title>
<path fill="none" stroke="#191970" d="M1319.1759,-537.3733C1339.9766,-528.3435 1371.2917,-514.7494 1394.6458,-504.6111"/>
<polygon fill="#191970" stroke="#191970" points="1396.3343,-507.6938 1404.1135,-500.5011 1393.5468,-501.2727 1396.3343,-507.6938"/>
</g>
<!-- Node45&#45;&gt;Node3 -->
<g id="edge76" class="edge">
<title>Node45&#45;&gt;Node3</title>
<path fill="none" stroke="#191970" d="M1372.5424,-542.8796C1498.6385,-534.2495 1743.4055,-509.4328 1796,-445 1804.7124,-434.3266 1804.8354,-424.5718 1796,-414 1784.658,-400.4289 1691.0173,-386.1719 1620.4736,-377.1933"/>
<polygon fill="#191970" stroke="#191970" points="1620.6041,-373.6823 1610.2456,-375.9076 1619.731,-380.6276 1620.6041,-373.6823"/>
</g>
<!-- Node45&#45;&gt;Node5 -->
<g id="edge69" class="edge">
<title>Node45&#45;&gt;Node5</title>
<path fill="none" stroke="#191970" d="M1287.7514,-537.2132C1266.5468,-513.5851 1218.5875,-452.5322 1250,-414 1300.1741,-352.4537 1366.2015,-431.3678 1425,-378 1467.3671,-339.546 1454.038,-311.5098 1463,-255 1473.0171,-191.8372 1482.0462,-165.4943 1447,-112 1439.1185,-99.9698 1427.1905,-89.3429 1416.5479,-81.3425"/>
<polygon fill="#191970" stroke="#191970" points="1418.5612,-78.4794 1408.3902,-75.5127 1414.4913,-84.1746 1418.5612,-78.4794"/>
</g>
<!-- Node45&#45;&gt;Node20 -->
<g id="edge71" class="edge">
<title>Node45&#45;&gt;Node20</title>
<path fill="none" stroke="#191970" d="M1221.4875,-537.7899C1218.2842,-537.5024 1215.1113,-537.237 1212,-537 983.6329,-519.6053 406.25,-547.541 182,-501 96.9062,-483.3396 0,-516.4071 0,-429.5 0,-429.5 0,-429.5 0,-122 0,-64.2188 71.7845,-33.1297 117.3333,-19.2189"/>
<polygon fill="#191970" stroke="#191970" points="118.5524,-22.5094 127.1752,-16.3534 116.5955,-15.7885 118.5524,-22.5094"/>
</g>
<!-- Node45&#45;&gt;Node30 -->
<g id="edge68" class="edge">
<title>Node45&#45;&gt;Node30</title>
<path fill="none" stroke="#191970" d="M1235.3929,-537.4797C1030.011,-505.1164 378.4966,-397.1817 323,-322 314.8175,-310.9151 314.8157,-302.0835 323,-291 342.2676,-264.9072 544.3348,-213.182 640.1357,-189.8756"/>
<polygon fill="#191970" stroke="#191970" points="641.0005,-193.2674 649.8947,-187.5104 639.3516,-186.4644 641.0005,-193.2674"/>
</g>
<!-- Node45&#45;&gt;Node43 -->
<g id="edge70" class="edge">
<title>Node45&#45;&gt;Node43</title>
<path fill="none" stroke="#191970" d="M1259.9772,-537.4827C1229.05,-528.6952 1188.5223,-514.9323 1179,-501 1157.1817,-469.0771 1154.5679,-443.9697 1179,-414 1229.1741,-352.4537 1276.6865,-396.1109 1354,-378 1355.4529,-377.6596 1356.935,-377.3044 1358.4307,-376.9394"/>
<polygon fill="#191970" stroke="#191970" points="1359.4931,-380.2811 1368.333,-374.441 1357.7806,-373.4938 1359.4931,-380.2811"/>
</g>
<!-- Node46 -->
<g id="node41" class="node">
<title>Node46</title>
<g id="a_node41"><a xlink:href="VectorDynSize_8h.html" target="_top" xlink:title="iDynTree/Core/VectorDynSize.h">
<polygon fill="none" stroke="#000000" points="425.5,-112.5 425.5,-131.5 592.5,-131.5 592.5,-112.5 425.5,-112.5"/>
<text text-anchor="middle" x="509" y="-119.5" font-family="FreeSans.ttf" font-size="10.00" fill="#000000">iDynTree/Core/VectorDynSize.h</text>
</a>
</g>
</g>
<!-- Node45&#45;&gt;Node46 -->
<g id="edge72" class="edge">
<title>Node45&#45;&gt;Node46</title>
<path fill="none" stroke="#191970" d="M1221.487,-537.7959C1218.2838,-537.5067 1215.1111,-537.2394 1212,-537 1102.5837,-528.5821 327.4581,-540.3079 225,-501 188.7657,-487.0987 177.2126,-478.7202 158,-445 96.255,-336.6307 94.2006,-228.984 203,-168 221.3786,-157.6985 332.1377,-142.7489 415.1572,-132.7161"/>
<polygon fill="#191970" stroke="#191970" points="415.6247,-136.1852 425.136,-131.5176 414.7899,-129.2352 415.6247,-136.1852"/>
</g>
<!-- Node46&#45;&gt;Node5 -->
<g id="edge74" class="edge">
<title>Node46&#45;&gt;Node5</title>
<path fill="none" stroke="#191970" d="M592.5627,-116.7064C781.7999,-104.7186 1236.3158,-75.9257 1360.9325,-68.0314"/>
<polygon fill="#191970" stroke="#191970" points="1361.2145,-71.5207 1370.9732,-67.3954 1360.7719,-64.5347 1361.2145,-71.5207"/>
</g>
<!-- Node46&#45;&gt;Node17 -->
<g id="edge73" class="edge">
<title>Node46&#45;&gt;Node17</title>
<path fill="none" stroke="#191970" d="M506.213,-112.2455C504.1023,-104.8579 501.134,-94.4689 498.5453,-85.4087"/>
<polygon fill="#191970" stroke="#191970" points="501.8677,-84.2964 495.755,-75.6427 495.137,-86.2195 501.8677,-84.2964"/>
</g>
<!-- Node48&#45;&gt;Node3 -->
<g id="edge90" class="edge">
<title>Node48&#45;&gt;Node3</title>
<path fill="none" stroke="#191970" d="M409.6931,-489.736C648.5968,-485.9398 1299.3112,-473.121 1392,-445 1417.3831,-437.299 1419.6271,-426.5424 1443,-414 1464.818,-402.292 1490.1336,-390.4521 1509.5689,-381.7166"/>
<polygon fill="#191970" stroke="#191970" points="1511.162,-384.8385 1518.8709,-377.5705 1508.3122,-378.4449 1511.162,-384.8385"/>
</g>
<!-- Node48&#45;&gt;Node5 -->
<g id="edge81" class="edge">
<title>Node48&#45;&gt;Node5</title>
<path fill="none" stroke="#191970" d="M409.9301,-488.1351C521.8287,-483.5131 720.794,-472.0211 889,-445 946.7926,-435.716 959.3887,-424.3492 1017,-414 1150.9117,-389.9444 1192.1797,-421.7759 1321,-378 1332.5109,-374.0883 1407.0077,-331.1611 1415,-322 1441.1844,-291.9867 1450,-279.3299 1450,-239.5 1450,-239.5 1450,-239.5 1450,-178 1450,-141.1826 1425.2325,-104.2377 1408.3499,-83.3313"/>
<polygon fill="#191970" stroke="#191970" points="1411.0131,-81.06 1401.9063,-75.6456 1405.6489,-85.5574 1411.0131,-81.06"/>
</g>
<!-- Node48&#45;&gt;Node27 -->
<g id="edge83" class="edge">
<title>Node48&#45;&gt;Node27</title>
<path fill="none" stroke="#191970" d="M271.9987,-481.449C249.7809,-474.7711 225.0727,-463.584 209,-445 185.942,-418.3392 190,-403.2487 190,-368 190,-368 190,-368 190,-306.5 190,-268.9708 180.883,-249.9444 208,-224 243.786,-189.7615 552.4069,-150.1747 709.2677,-132.0275"/>
<polygon fill="#191970" stroke="#191970" points="709.8419,-135.4845 719.3759,-130.8634 709.0411,-128.5305 709.8419,-135.4845"/>
</g>
<!-- Node48&#45;&gt;Node12 -->
<g id="edge88" class="edge">
<title>Node48&#45;&gt;Node12</title>
<path fill="none" stroke="#191970" d="M262.9655,-481.4538C237.4568,-474.8159 208.7645,-463.66 188,-445 159.9011,-419.749 152,-405.7778 152,-368 152,-368 152,-368 152,-306.5 152,-92.4036 395.108,-190.7006 601,-132 644.7322,-119.5318 692.0999,-95.8554 720.395,-80.5105"/>
<polygon fill="#191970" stroke="#191970" points="722.1505,-83.5394 729.2267,-75.6541 718.7777,-77.4056 722.1505,-83.5394"/>
</g>
<!-- Node48&#45;&gt;Node17 -->
<g id="edge89" class="edge">
<title>Node48&#45;&gt;Node17</title>
<path fill="none" stroke="#191970" d="M257.461,-481.4578C204.3721,-472.8104 133.9615,-459.269 109,-445 68.5869,-421.8982 38,-414.5501 38,-368 38,-368 38,-368 38,-178 38,-99.8831 294.0683,-75.9393 422.0043,-68.8514"/>
<polygon fill="#191970" stroke="#191970" points="422.3097,-72.3402 432.1088,-68.3119 421.9364,-65.3501 422.3097,-72.3402"/>
</g>
<!-- Node48&#45;&gt;Node14 -->
<g id="edge87" class="edge">
<title>Node48&#45;&gt;Node14</title>
<path fill="none" stroke="#191970" d="M250.4845,-481.42C205.534,-473.8864 153.2578,-461.8345 138,-445 54.5496,-352.926 21.1382,-264.0333 100,-168 118.5371,-145.4266 188.1231,-133.7361 246.2931,-127.8041"/>
<polygon fill="#191970" stroke="#191970" points="246.6492,-131.2861 256.262,-126.8315 245.9693,-124.3192 246.6492,-131.2861"/>
</g>
<!-- Node48&#45;&gt;Node43 -->
<g id="edge82" class="edge">
<title>Node48&#45;&gt;Node43</title>
<path fill="none" stroke="#191970" d="M409.6005,-488.2545C569.6816,-482.731 903.4423,-468.7329 1017,-445 1056.7703,-436.6882 1063.5759,-423.8239 1103,-414 1212.3532,-386.7509 1243.5468,-400.3772 1354,-378 1355.4626,-377.7037 1356.9526,-377.385 1358.4548,-377.0499"/>
<polygon fill="#191970" stroke="#191970" points="1359.4765,-380.4041 1368.3817,-374.6642 1357.8407,-373.5979 1359.4765,-380.4041"/>
</g>
<!-- Node49 -->
<g id="node44" class="node">
<title>Node49</title>
<g id="a_node44"><a xlink:href="MatrixDynSize_8h.html" target="_top" xlink:title="iDynTree/Core/MatrixDynSize.h">
<polygon fill="none" stroke="#000000" points="217.5,-230 217.5,-249 384.5,-249 384.5,-230 217.5,-230"/>
<text text-anchor="middle" x="301" y="-237" font-family="FreeSans.ttf" font-size="10.00" fill="#000000">iDynTree/Core/MatrixDynSize.h</text>
</a>
</g>
</g>
<!-- Node48&#45;&gt;Node49 -->
<g id="edge84" class="edge">
<title>Node48&#45;&gt;Node49</title>
<path fill="none" stroke="#191970" d="M342.1561,-481.4543C355.8815,-473.7394 372.9635,-461.4561 381,-445 387.046,-432.6197 386.2377,-426.7434 381,-414 370.0681,-387.4029 300.9319,-348.5971 290,-322 281.5388,-301.414 287.2418,-275.7336 293.1274,-258.5418"/>
<polygon fill="#191970" stroke="#191970" points="296.4506,-259.648 296.6907,-249.0559 289.8977,-257.1865 296.4506,-259.648"/>
</g>
<!-- Node50 -->
<g id="node45" class="node">
<title>Node50</title>
<g id="a_node45"><a xlink:href="FreeFloatingMatrices_8h.html" target="_top" xlink:title="iDynTree/Model/FreeFloating\lMatrices.h">
<polygon fill="none" stroke="#000000" points="218,-414.5 218,-444.5 372,-444.5 372,-414.5 218,-414.5"/>
<text text-anchor="start" x="226" y="-432.5" font-family="FreeSans.ttf" font-size="10.00" fill="#000000">iDynTree/Model/FreeFloating</text>
<text text-anchor="middle" x="295" y="-421.5" font-family="FreeSans.ttf" font-size="10.00" fill="#000000">Matrices.h</text>
</a>
</g>
</g>
<!-- Node48&#45;&gt;Node50 -->
<g id="edge91" class="edge">
<title>Node48&#45;&gt;Node50</title>
<path fill="none" stroke="#191970" d="M317.7813,-481.3906C314.5331,-473.9922 309.8957,-463.4291 305.6517,-453.7623"/>
<polygon fill="#191970" stroke="#191970" points="308.8297,-452.2941 301.6049,-444.5446 302.4201,-455.108 308.8297,-452.2941"/>
</g>
<!-- Node51 -->
<g id="node46" class="node">
<title>Node51</title>
<g id="a_node46"><a xlink:href="LinkState_8h.html" target="_top" xlink:title="iDynTree/Model/LinkState.h">
<polygon fill="none" stroke="#000000" points="731.5,-420 731.5,-439 880.5,-439 880.5,-420 731.5,-420"/>
<text text-anchor="middle" x="806" y="-427" font-family="FreeSans.ttf" font-size="10.00" fill="#000000">iDynTree/Model/LinkState.h</text>
</a>
</g>
</g>
<!-- Node48&#45;&gt;Node51 -->
<g id="edge93" class="edge">
<title>Node48&#45;&gt;Node51</title>
<path fill="none" stroke="#191970" d="M396.829,-481.4918C484.5537,-470.3449 629.5913,-451.9156 721.3494,-440.2562"/>
<polygon fill="#191970" stroke="#191970" points="721.9593,-443.707 731.4383,-438.9743 721.0768,-436.7628 721.9593,-443.707"/>
</g>
<!-- Node49&#45;&gt;Node5 -->
<g id="edge85" class="edge">
<title>Node49&#45;&gt;Node5</title>
<path fill="none" stroke="#191970" d="M384.8363,-236.9765C587.4353,-230.526 1092.3416,-212.22 1165,-188 1179.53,-183.1566 1266.4524,-119.1443 1280,-112 1306.4393,-98.0573 1338.0665,-85.5083 1361.1282,-77.0533"/>
<polygon fill="#191970" stroke="#191970" points="1362.541,-80.2644 1370.759,-73.5774 1360.1646,-73.6801 1362.541,-80.2644"/>
</g>
<!-- Node49&#45;&gt;Node14 -->
<g id="edge86" class="edge">
<title>Node49&#45;&gt;Node14</title>
<path fill="none" stroke="#191970" d="M303.5369,-229.8845C308.6233,-210.6053 320.155,-166.8963 326.8753,-141.4241"/>
<polygon fill="#191970" stroke="#191970" points="330.2612,-142.3104 329.4281,-131.7484 323.4928,-140.5246 330.2612,-142.3104"/>
</g>
<!-- Node50&#45;&gt;Node49 -->
<g id="edge92" class="edge">
<title>Node50&#45;&gt;Node49</title>
<path fill="none" stroke="#191970" d="M283.5039,-414.267C265.524,-388.4684 234.5249,-334.7185 252,-291 257.5662,-277.0746 268.8885,-264.7656 279.2482,-255.676"/>
<polygon fill="#191970" stroke="#191970" points="281.7291,-258.167 287.2218,-249.1072 277.2781,-252.7643 281.7291,-258.167"/>
</g>
<!-- Node51&#45;&gt;Node3 -->
<g id="edge101" class="edge">
<title>Node51&#45;&gt;Node3</title>
<path fill="none" stroke="#191970" d="M880.8034,-423.349C997.1789,-413.7632 1228.6318,-394.6329 1425,-378 1436.8803,-376.9937 1449.4442,-375.9203 1461.7459,-374.864"/>
<polygon fill="#191970" stroke="#191970" points="1462.3335,-378.3265 1471.9969,-373.9827 1461.7338,-371.3522 1462.3335,-378.3265"/>
</g>
<!-- Node51&#45;&gt;Node28 -->
<g id="edge95" class="edge">
<title>Node51&#45;&gt;Node28</title>
<path fill="none" stroke="#191970" d="M783.7766,-419.8308C766.6111,-411.2483 743.5654,-397.1029 730,-378 719.109,-362.6632 714.4608,-341.4738 712.477,-326.1476"/>
<polygon fill="#191970" stroke="#191970" points="715.9578,-325.7805 711.4522,-316.1915 708.9946,-326.4973 715.9578,-325.7805"/>
</g>
<!-- Node51&#45;&gt;Node38 -->
<g id="edge96" class="edge">
<title>Node51&#45;&gt;Node38</title>
<path fill="none" stroke="#191970" d="M774.9455,-419.9507C703.3896,-397.9473 526.9181,-343.6823 446.7736,-319.0379"/>
<polygon fill="#191970" stroke="#191970" points="447.6218,-315.637 437.0347,-316.0432 445.5643,-322.3278 447.6218,-315.637"/>
</g>
<!-- Node51&#45;&gt;Node39 -->
<g id="edge97" class="edge">
<title>Node51&#45;&gt;Node39</title>
<path fill="none" stroke="#191970" d="M787.0891,-419.8484C744.8535,-398.2925 642.6757,-346.1436 593.0204,-320.8009"/>
<polygon fill="#191970" stroke="#191970" points="594.3211,-317.5353 583.823,-316.1068 591.139,-323.7702 594.3211,-317.5353"/>
</g>
<!-- Node51&#45;&gt;Node40 -->
<g id="edge94" class="edge">
<title>Node51&#45;&gt;Node40</title>
<path fill="none" stroke="#191970" d="M873.1812,-419.9581C951.2819,-408.8653 1079.9292,-390.5932 1161.9985,-378.9367"/>
<polygon fill="#191970" stroke="#191970" points="1162.6091,-382.3852 1172.0175,-377.5137 1161.6247,-375.4548 1162.6091,-382.3852"/>
</g>
<!-- Node51&#45;&gt;Node43 -->
<g id="edge102" class="edge">
<title>Node51&#45;&gt;Node43</title>
<path fill="none" stroke="#191970" d="M880.7291,-422.9778C981.0215,-414.0073 1164.6566,-396.8195 1321,-378 1333.2352,-376.5272 1346.6254,-374.698 1358.4475,-373.0083"/>
<polygon fill="#191970" stroke="#191970" points="1358.9695,-376.4693 1368.3645,-371.5718 1357.966,-369.5416 1358.9695,-376.4693"/>
</g>
<!-- Node52 -->
<g id="node47" class="node">
<title>Node52</title>
<g id="a_node47"><a xlink:href="ArticulatedBodyInertia_8h.html" target="_top" xlink:title="iDynTree/Core/Articulated\lBodyInertia.h">
<polygon fill="none" stroke="#000000" points="1120.5,-224.5 1120.5,-254.5 1261.5,-254.5 1261.5,-224.5 1120.5,-224.5"/>
<text text-anchor="start" x="1128.5" y="-242.5" font-family="FreeSans.ttf" font-size="10.00" fill="#000000">iDynTree/Core/Articulated</text>
<text text-anchor="middle" x="1191" y="-231.5" font-family="FreeSans.ttf" font-size="10.00" fill="#000000">BodyInertia.h</text>
</a>
</g>
</g>
<!-- Node51&#45;&gt;Node52 -->
<g id="edge98" class="edge">
<title>Node51&#45;&gt;Node52</title>
<path fill="none" stroke="#191970" d="M878.3987,-419.9693C980.0077,-404.9396 1156.8078,-372.1782 1195,-322 1207.3421,-305.7846 1204.749,-282.1494 1199.999,-264.329"/>
<polygon fill="#191970" stroke="#191970" points="1203.3024,-263.1615 1197.0496,-254.6085 1196.604,-265.194 1203.3024,-263.1615"/>
</g>
<!-- Node52&#45;&gt;Node5 -->
<g id="edge100" class="edge">
<title>Node52&#45;&gt;Node5</title>
<path fill="none" stroke="#191970" d="M1208.5728,-224.4065C1246.2312,-192.0613 1334.4658,-116.2757 1373.6553,-82.6153"/>
<polygon fill="#191970" stroke="#191970" points="1376.3569,-84.9088 1381.6624,-75.738 1371.7959,-79.5986 1376.3569,-84.9088"/>
</g>
<!-- Node52&#45;&gt;Node11 -->
<g id="edge99" class="edge">
<title>Node52&#45;&gt;Node11</title>
<path fill="none" stroke="#191970" d="M1162.6232,-224.4554C1144.1172,-214.644 1120.1112,-201.9167 1101.9069,-192.2653"/>
<polygon fill="#191970" stroke="#191970" points="1103.4505,-189.1222 1092.9759,-187.5303 1100.1715,-195.3068 1103.4505,-189.1222"/>
</g>
<!-- Node53&#45;&gt;Node5 -->
<g id="edge108" class="edge">
<title>Node53&#45;&gt;Node5</title>
<path fill="none" stroke="#191970" d="M1952,-419.9309C1952,-399.238 1952,-348.7813 1952,-306.5 1952,-306.5 1952,-306.5 1952,-178 1952,-123.8963 1544.2121,-80.5096 1425.2237,-69.0014"/>
<polygon fill="#191970" stroke="#191970" points="1425.5466,-65.5164 1415.2584,-68.0471 1424.8792,-72.4845 1425.5466,-65.5164"/>
</g>
<!-- Node53&#45;&gt;Node18 -->
<g id="edge112" class="edge">
<title>Node53&#45;&gt;Node18</title>
<path fill="none" stroke="#191970" d="M1957.1248,-419.9277C1967.4972,-399.6328 1990,-350.5296 1990,-306.5 1990,-306.5 1990,-306.5 1990,-122 1990,-68.9364 1600.3138,-26.6446 1469.3494,-13.9297"/>
<polygon fill="#191970" stroke="#191970" points="1469.5807,-10.4359 1459.2914,-12.9621 1468.9103,-17.4037 1469.5807,-10.4359"/>
</g>
<!-- Node53&#45;&gt;Node22 -->
<g id="edge109" class="edge">
<title>Node53&#45;&gt;Node22</title>
<path fill="none" stroke="#191970" d="M1964.8079,-419.7662C1976.5037,-410.2683 1993.521,-394.8248 2004,-378 2021.7213,-349.5472 2028,-340.0202 2028,-306.5 2028,-306.5 2028,-306.5 2028,-122 2028,-90.7875 2027.726,-76.2805 2004,-56 1975.4883,-31.6287 1870.7074,-18.8058 1810.7885,-13.3276"/>
<polygon fill="#191970" stroke="#191970" points="1810.7763,-9.813 1800.507,-12.4194 1810.1602,-16.7858 1810.7763,-9.813"/>
</g>
<!-- Node53&#45;&gt;Node26 -->
<g id="edge105" class="edge">
<title>Node53&#45;&gt;Node26</title>
<path fill="none" stroke="#191970" d="M1919.2579,-420.1709C1888.2356,-410.905 1840.6267,-395.5705 1801,-378 1728.0725,-345.6639 1715.0002,-327.3733 1644,-291 1467.7634,-200.7143 1421.679,-180.8054 1236,-112 1200.7811,-98.9492 1159.9304,-86.0239 1130.9312,-77.2134"/>
<polygon fill="#191970" stroke="#191970" points="1131.7815,-73.8142 1121.1967,-74.2751 1129.7587,-80.5155 1131.7815,-73.8142"/>
</g>
<!-- Node53&#45;&gt;Node24 -->
<g id="edge111" class="edge">
<title>Node53&#45;&gt;Node24</title>
<path fill="none" stroke="#191970" d="M1919.485,-423.8194C1880.1762,-416.2896 1812.5135,-401.1876 1758,-378 1742.2183,-371.2872 1740.1997,-365.943 1725,-358 1690.0846,-339.7541 1676.8185,-343.7932 1644,-322 1627.2364,-310.8681 1628.2366,-301.3844 1611,-291 1568.743,-265.5418 1552.3205,-271.9761 1506,-255 1335.0232,-192.3382 1132.7416,-110.9798 1054.8379,-79.3736"/>
<polygon fill="#191970" stroke="#191970" points="1056.1189,-76.1163 1045.5369,-75.5966 1053.4852,-82.6019 1056.1189,-76.1163"/>
</g>
<!-- Node53&#45;&gt;Node25 -->
<g id="edge104" class="edge">
<title>Node53&#45;&gt;Node25</title>
<path fill="none" stroke="#191970" d="M1979.5775,-419.8853C1999.4961,-411.6339 2025.6642,-397.8961 2042,-378 2063.2709,-352.0933 2066,-340.0202 2066,-306.5 2066,-306.5 2066,-306.5 2066,-239.5 2066,-204.6457 2074.6582,-164.7899 2080.5811,-141.6029"/>
<polygon fill="#191970" stroke="#191970" points="2084.0391,-142.2172 2083.2191,-131.6542 2077.2729,-140.4231 2084.0391,-142.2172"/>
</g>
<!-- Node53&#45;&gt;Node42 -->
<g id="edge113" class="edge">
<title>Node53&#45;&gt;Node42</title>
<path fill="none" stroke="#191970" d="M1924.8224,-419.9456C1918.3679,-417.8413 1911.4753,-415.7276 1905,-414 1828.2771,-393.5309 1807.3704,-395.8665 1730,-378 1728.5527,-377.6658 1727.077,-377.3182 1725.5876,-376.9617"/>
<polygon fill="#191970" stroke="#191970" points="1726.2608,-373.5229 1715.7138,-374.5278 1724.5855,-380.3195 1726.2608,-373.5229"/>
</g>
<!-- Node53&#45;&gt;Node43 -->
<g id="edge106" class="edge">
<title>Node53&#45;&gt;Node43</title>
<path fill="none" stroke="#191970" d="M1919.2635,-426.2036C1824.6733,-416.6546 1552.0686,-388.9593 1463,-378 1450.7687,-376.495 1437.3794,-374.6585 1425.5569,-372.972"/>
<polygon fill="#191970" stroke="#191970" points="1426.0368,-369.5051 1415.6393,-371.5406 1425.0368,-376.4333 1426.0368,-369.5051"/>
</g>
<!-- Node54 -->
<g id="node49" class="node">
<title>Node54</title>
<polygon fill="none" stroke="#bfbfbf" points="1810,-358.5 1810,-377.5 1848,-377.5 1848,-358.5 1810,-358.5"/>
<text text-anchor="middle" x="1829" y="-365.5" font-family="FreeSans.ttf" font-size="10.00" fill="#000000">map</text>
</g>
<!-- Node53&#45;&gt;Node54 -->
<g id="edge107" class="edge">
<title>Node53&#45;&gt;Node54</title>
<path fill="none" stroke="#191970" d="M1932.7813,-419.8906C1912.4719,-409.7359 1880.2393,-393.6196 1857.0832,-382.0416"/>
<polygon fill="#191970" stroke="#191970" points="1858.5933,-378.8836 1848.0838,-377.5419 1855.4628,-385.1446 1858.5933,-378.8836"/>
</g>
<!-- Node55 -->
<g id="node50" class="node">
<title>Node55</title>
<polygon fill="none" stroke="#bfbfbf" points="1866.5,-358.5 1866.5,-377.5 1923.5,-377.5 1923.5,-358.5 1866.5,-358.5"/>
<text text-anchor="middle" x="1895" y="-365.5" font-family="FreeSans.ttf" font-size="10.00" fill="#000000">typeinfo</text>
</g>
<!-- Node53&#45;&gt;Node55 -->
<g id="edge110" class="edge">
<title>Node53&#45;&gt;Node55</title>
<path fill="none" stroke="#191970" d="M1943.0938,-419.8906C1934.5272,-410.6478 1921.3831,-396.466 1910.9997,-385.2628"/>
<polygon fill="#191970" stroke="#191970" points="1913.3965,-382.7 1904.0318,-377.7449 1908.2625,-387.4584 1913.3965,-382.7"/>
</g>
</g>
</svg>
