<?xml version="1.0" encoding="UTF-8" standalone="no"?>
<!DOCTYPE svg PUBLIC "-//W3C//DTD SVG 1.1//EN"
 "http://www.w3.org/Graphics/SVG/1.1/DTD/svg11.dtd">
<!-- Generated by graphviz version 2.40.1 (20161225.0304)
 -->
<!-- Title: Graphical Class Hierarchy Pages: 1 -->
<svg width="437pt" height="548pt"
 viewBox="0.00 0.00 437.00 547.50" xmlns="http://www.w3.org/2000/svg" xmlns:xlink="http://www.w3.org/1999/xlink">
<g id="graph0" class="graph" transform="scale(1 1) rotate(0) translate(4 543.5)">
<title>Graphical Class Hierarchy</title>
<!-- Node277 -->
<g id="node1" class="node">
<title>Node277</title>
<polygon fill="none" stroke="#bfbfbf" points="0,-271.5 0,-290.5 68,-290.5 68,-271.5 0,-271.5"/>
<text text-anchor="middle" x="34" y="-278.5" font-family="FreeSans.ttf" font-size="10.00" fill="#000000">false_type</text>
</g>
<!-- Node0 -->
<g id="node2" class="node">
<title>Node0</title>
<g id="a_node2"><a xlink:href="structiDynTree_1_1details_1_1is__span__oracle.html" target="_top" xlink:title="iDynTree::details::\lis_span_oracle\&lt; T \&gt;">
<polygon fill="none" stroke="#000000" points="138,-509 138,-539 255,-539 255,-509 138,-509"/>
<text text-anchor="start" x="146" y="-527" font-family="FreeSans.ttf" font-size="10.00" fill="#000000">iDynTree::details::</text>
<text text-anchor="middle" x="196.5" y="-516" font-family="FreeSans.ttf" font-size="10.00" fill="#000000">is_span_oracle&lt; T &gt;</text>
</a>
</g>
</g>
<!-- Node277&#45;&gt;Node0 -->
<g id="edge1" class="edge">
<title>Node277&#45;&gt;Node0</title>
<path fill="none" stroke="#191970" d="M37.7499,-300.5712C47.3846,-348.8868 74.3409,-471.9432 104,-500 113.2804,-508.779 125.3465,-514.4482 137.6829,-518.0841"/>
<polygon fill="#191970" stroke="#191970" points="41.1776,-299.8621 35.8206,-290.7214 34.3081,-301.2077 41.1776,-299.8621"/>
</g>
<!-- Node279 -->
<g id="node3" class="node">
<title>Node279</title>
<g id="a_node3"><a xlink:href="structiDynTree_1_1details_1_1is__std__array__oracle.html" target="_top" xlink:title="iDynTree::details::\lis_std_array_oracle\&lt; T \&gt;">
<polygon fill="none" stroke="#000000" points="126.5,-460 126.5,-490 266.5,-490 266.5,-460 126.5,-460"/>
<text text-anchor="start" x="134.5" y="-478" font-family="FreeSans.ttf" font-size="10.00" fill="#000000">iDynTree::details::</text>
<text text-anchor="middle" x="196.5" y="-467" font-family="FreeSans.ttf" font-size="10.00" fill="#000000">is_std_array_oracle&lt; T &gt;</text>
</a>
</g>
</g>
<!-- Node277&#45;&gt;Node279 -->
<g id="edge2" class="edge">
<title>Node277&#45;&gt;Node279</title>
<path fill="none" stroke="#191970" d="M36.4105,-300.9037C41.803,-336.4992 58.1937,-411.0652 104,-451 110.5029,-456.6693 118.1805,-461.0257 126.2873,-464.3686"/>
<polygon fill="#191970" stroke="#191970" points="39.8522,-300.2394 35.0227,-290.8093 32.9174,-301.1929 39.8522,-300.2394"/>
</g>
<!-- Node280 -->
<g id="node4" class="node">
<title>Node280</title>
<g id="a_node4"><a xlink:href="structiDynTree_1_1MatrixViewInternal_1_1has__IsRowMajor.html" target="_top" xlink:title="has_IsRowMajor is used to build a type&#45;dependent expression that check if an element has IsRowMajor a...">
<polygon fill="none" stroke="#000000" points="104,-411 104,-441 289,-441 289,-411 104,-411"/>
<text text-anchor="start" x="112" y="-429" font-family="FreeSans.ttf" font-size="10.00" fill="#000000">iDynTree::MatrixViewInternal</text>
<text text-anchor="middle" x="196.5" y="-418" font-family="FreeSans.ttf" font-size="10.00" fill="#000000">::has_IsRowMajor&lt; T, typename &gt;</text>
</a>
</g>
</g>
<!-- Node277&#45;&gt;Node280 -->
<g id="edge3" class="edge">
<title>Node277&#45;&gt;Node280</title>
<path fill="none" stroke="#191970" d="M40.1139,-300.5721C49.4906,-327.3303 69.9982,-374.9719 104,-401 109.0195,-404.8424 114.587,-408.095 120.4292,-410.8481"/>
<polygon fill="#191970" stroke="#191970" points="43.3446,-299.1956 36.8659,-290.8125 36.7027,-301.4061 43.3446,-299.1956"/>
</g>
<!-- Node281 -->
<g id="node5" class="node">
<title>Node281</title>
<g id="a_node5"><a xlink:href="structiDynTree_1_1SpanUtils_1_1has__data__method.html" target="_top" xlink:title="iDynTree::SpanUtils\l::has_data_method\&lt; T,\l typename \&gt;">
<polygon fill="none" stroke="#000000" points="131.5,-350.5 131.5,-391.5 261.5,-391.5 261.5,-350.5 131.5,-350.5"/>
<text text-anchor="start" x="139.5" y="-379.5" font-family="FreeSans.ttf" font-size="10.00" fill="#000000">iDynTree::SpanUtils</text>
<text text-anchor="start" x="139.5" y="-368.5" font-family="FreeSans.ttf" font-size="10.00" fill="#000000">::has_data_method&lt; T,</text>
<text text-anchor="middle" x="196.5" y="-357.5" font-family="FreeSans.ttf" font-size="10.00" fill="#000000"> typename &gt;</text>
</a>
</g>
</g>
<!-- Node277&#45;&gt;Node281 -->
<g id="edge4" class="edge">
<title>Node277&#45;&gt;Node281</title>
<path fill="none" stroke="#191970" d="M50.069,-298.0758C63.4093,-311.3846 83.4606,-329.4808 104,-341 112.5404,-345.7898 121.959,-349.9491 131.4195,-353.5178"/>
<polygon fill="#191970" stroke="#191970" points="52.5291,-295.5854 43.037,-290.8789 47.5223,-300.4775 52.5291,-295.5854"/>
</g>
<!-- Node282 -->
<g id="node6" class="node">
<title>Node282</title>
<g id="a_node6"><a xlink:href="structiDynTree_1_1SpanUtils_1_1has__size__method.html" target="_top" xlink:title="iDynTree::SpanUtils\l::has_size_method\&lt; T,\l typename \&gt;">
<polygon fill="none" stroke="#000000" points="132.5,-290.5 132.5,-331.5 260.5,-331.5 260.5,-290.5 132.5,-290.5"/>
<text text-anchor="start" x="140.5" y="-319.5" font-family="FreeSans.ttf" font-size="10.00" fill="#000000">iDynTree::SpanUtils</text>
<text text-anchor="start" x="140.5" y="-308.5" font-family="FreeSans.ttf" font-size="10.00" fill="#000000">::has_size_method&lt; T,</text>
<text text-anchor="middle" x="196.5" y="-297.5" font-family="FreeSans.ttf" font-size="10.00" fill="#000000"> typename &gt;</text>
</a>
</g>
</g>
<!-- Node277&#45;&gt;Node282 -->
<g id="edge5" class="edge">
<title>Node277&#45;&gt;Node282</title>
<path fill="none" stroke="#191970" d="M78.0764,-289.1372C94.7638,-292.2179 114.118,-295.791 132.283,-299.1446"/>
<polygon fill="#191970" stroke="#191970" points="78.5346,-285.6627 68.0653,-287.289 77.2637,-292.5464 78.5346,-285.6627"/>
</g>
<!-- Node283 -->
<g id="node7" class="node">
<title>Node283</title>
<g id="a_node7"><a xlink:href="structiDynTree_1_1SpanUtils_1_1is__element__defined.html" target="_top" xlink:title="iDynTree::SpanUtils\l::is_element_defined\l\&lt; T, typename \&gt;">
<polygon fill="none" stroke="#000000" points="137.5,-230.5 137.5,-271.5 255.5,-271.5 255.5,-230.5 137.5,-230.5"/>
<text text-anchor="start" x="145.5" y="-259.5" font-family="FreeSans.ttf" font-size="10.00" fill="#000000">iDynTree::SpanUtils</text>
<text text-anchor="start" x="145.5" y="-248.5" font-family="FreeSans.ttf" font-size="10.00" fill="#000000">::is_element_defined</text>
<text text-anchor="middle" x="196.5" y="-237.5" font-family="FreeSans.ttf" font-size="10.00" fill="#000000">&lt; T, typename &gt;</text>
</a>
</g>
</g>
<!-- Node277&#45;&gt;Node283 -->
<g id="edge6" class="edge">
<title>Node277&#45;&gt;Node283</title>
<path fill="none" stroke="#191970" d="M78.0941,-272.8595C96.2889,-269.5005 117.6519,-265.5566 137.1862,-261.9502"/>
<polygon fill="#191970" stroke="#191970" points="77.2637,-269.4536 68.0653,-274.711 78.5346,-276.3373 77.2637,-269.4536"/>
</g>
<!-- Node284 -->
<g id="node8" class="node">
<title>Node284</title>
<g id="a_node8"><a xlink:href="structiDynTree_1_1SpanUtils_1_1is__value__defined.html" target="_top" xlink:title="iDynTree::SpanUtils\l::is_value_defined\&lt;\l T, typename \&gt;">
<polygon fill="none" stroke="#000000" points="140,-170.5 140,-211.5 253,-211.5 253,-170.5 140,-170.5"/>
<text text-anchor="start" x="148" y="-199.5" font-family="FreeSans.ttf" font-size="10.00" fill="#000000">iDynTree::SpanUtils</text>
<text text-anchor="start" x="148" y="-188.5" font-family="FreeSans.ttf" font-size="10.00" fill="#000000">::is_value_defined&lt;</text>
<text text-anchor="middle" x="196.5" y="-177.5" font-family="FreeSans.ttf" font-size="10.00" fill="#000000"> T, typename &gt;</text>
</a>
</g>
</g>
<!-- Node277&#45;&gt;Node284 -->
<g id="edge7" class="edge">
<title>Node277&#45;&gt;Node284</title>
<path fill="none" stroke="#191970" d="M50.069,-263.9242C63.4093,-250.6154 83.4606,-232.5192 104,-221 115.0436,-214.8063 127.5557,-209.6669 139.728,-205.4955"/>
<polygon fill="#191970" stroke="#191970" points="47.5223,-261.5225 43.037,-271.1211 52.5291,-266.4146 47.5223,-261.5225"/>
</g>
<!-- Node285 -->
<g id="node9" class="node">
<title>Node285</title>
<g id="a_node9"><a xlink:href="structinternal_1_1kinematics_1_1is__matrixfixsize.html" target="_top" xlink:title="internal::kinematics\l::is_matrixfixsize\&lt; typename \&gt;">
<polygon fill="none" stroke="#000000" points="110.5,-121 110.5,-151 282.5,-151 282.5,-121 110.5,-121"/>
<text text-anchor="start" x="118.5" y="-139" font-family="FreeSans.ttf" font-size="10.00" fill="#000000">internal::kinematics</text>
<text text-anchor="middle" x="196.5" y="-128" font-family="FreeSans.ttf" font-size="10.00" fill="#000000">::is_matrixfixsize&lt; typename &gt;</text>
</a>
</g>
</g>
<!-- Node277&#45;&gt;Node285 -->
<g id="edge8" class="edge">
<title>Node277&#45;&gt;Node285</title>
<path fill="none" stroke="#191970" d="M40.1139,-261.4279C49.4906,-234.6697 69.9982,-187.0281 104,-161 109.0195,-157.1576 114.587,-153.905 120.4292,-151.1519"/>
<polygon fill="#191970" stroke="#191970" points="36.7027,-260.5939 36.8659,-271.1875 43.3446,-262.8044 36.7027,-260.5939"/>
</g>
<!-- Node286 -->
<g id="node10" class="node">
<title>Node286</title>
<g id="a_node10"><a xlink:href="structiDynTree_1_1details_1_1is__span__oracle.html" target="_top" xlink:title="iDynTree::details::\lis_span_oracle\&lt; std\l::remove_cv_t\&lt; T \&gt; \&gt;">
<polygon fill="none" stroke="#000000" points="134,-60.5 134,-101.5 259,-101.5 259,-60.5 134,-60.5"/>
<text text-anchor="start" x="142" y="-89.5" font-family="FreeSans.ttf" font-size="10.00" fill="#000000">iDynTree::details::</text>
<text text-anchor="start" x="142" y="-78.5" font-family="FreeSans.ttf" font-size="10.00" fill="#000000">is_span_oracle&lt; std</text>
<text text-anchor="middle" x="196.5" y="-67.5" font-family="FreeSans.ttf" font-size="10.00" fill="#000000">::remove_cv_t&lt; T &gt; &gt;</text>
</a>
</g>
</g>
<!-- Node277&#45;&gt;Node286 -->
<g id="edge9" class="edge">
<title>Node277&#45;&gt;Node286</title>
<path fill="none" stroke="#191970" d="M36.7248,-261.5184C42.6208,-226.6206 59.7892,-153.2477 104,-112 112.4211,-104.1433 122.895,-98.2732 133.7369,-93.8887"/>
<polygon fill="#191970" stroke="#191970" points="33.2653,-260.9882 35.1866,-271.4074 40.1821,-262.0642 33.2653,-260.9882"/>
</g>
<!-- Node288 -->
<g id="node12" class="node">
<title>Node288</title>
<g id="a_node12"><a xlink:href="structiDynTree_1_1details_1_1is__std__array__oracle.html" target="_top" xlink:title="iDynTree::details::\lis_std_array_oracle\l\&lt; std::remove_cv_t\&lt; T \&gt; \&gt;">
<polygon fill="none" stroke="#000000" points="120.5,-.5 120.5,-41.5 272.5,-41.5 272.5,-.5 120.5,-.5"/>
<text text-anchor="start" x="128.5" y="-29.5" font-family="FreeSans.ttf" font-size="10.00" fill="#000000">iDynTree::details::</text>
<text text-anchor="start" x="128.5" y="-18.5" font-family="FreeSans.ttf" font-size="10.00" fill="#000000">is_std_array_oracle</text>
<text text-anchor="middle" x="196.5" y="-7.5" font-family="FreeSans.ttf" font-size="10.00" fill="#000000">&lt; std::remove_cv_t&lt; T &gt; &gt;</text>
</a>
</g>
</g>
<!-- Node277&#45;&gt;Node288 -->
<g id="edge11" class="edge">
<title>Node277&#45;&gt;Node288</title>
<path fill="none" stroke="#191970" d="M37.5902,-261.2479C47.0399,-211.272 73.9524,-81.5989 104,-51 108.7315,-46.1817 114.2427,-42.1367 120.1744,-38.741"/>
<polygon fill="#191970" stroke="#191970" points="34.0913,-260.9204 35.7066,-271.3913 40.9736,-262.1984 34.0913,-260.9204"/>
</g>
<!-- Node287 -->
<g id="node11" class="node">
<title>Node287</title>
<g id="a_node11"><a xlink:href="structiDynTree_1_1details_1_1is__span.html" target="_top" xlink:title="iDynTree::details::\lis_span\&lt; T \&gt;">
<polygon fill="none" stroke="#000000" points="325,-66 325,-96 429,-96 429,-66 325,-66"/>
<text text-anchor="start" x="333" y="-84" font-family="FreeSans.ttf" font-size="10.00" fill="#000000">iDynTree::details::</text>
<text text-anchor="middle" x="377" y="-73" font-family="FreeSans.ttf" font-size="10.00" fill="#000000">is_span&lt; T &gt;</text>
</a>
</g>
</g>
<!-- Node286&#45;&gt;Node287 -->
<g id="edge10" class="edge">
<title>Node286&#45;&gt;Node287</title>
<path fill="none" stroke="#191970" d="M269.3425,-81C287.965,-81 307.6154,-81 324.9575,-81"/>
<polygon fill="#191970" stroke="#191970" points="269.1236,-77.5001 259.1236,-81 269.1235,-84.5001 269.1236,-77.5001"/>
</g>
<!-- Node289 -->
<g id="node13" class="node">
<title>Node289</title>
<g id="a_node13"><a xlink:href="structiDynTree_1_1details_1_1is__std__array.html" target="_top" xlink:title="iDynTree::details::\lis_std_array\&lt; T \&gt;">
<polygon fill="none" stroke="#000000" points="325,-6 325,-36 429,-36 429,-6 325,-6"/>
<text text-anchor="start" x="333" y="-24" font-family="FreeSans.ttf" font-size="10.00" fill="#000000">iDynTree::details::</text>
<text text-anchor="middle" x="377" y="-13" font-family="FreeSans.ttf" font-size="10.00" fill="#000000">is_std_array&lt; T &gt;</text>
</a>
</g>
</g>
<!-- Node288&#45;&gt;Node289 -->
<g id="edge12" class="edge">
<title>Node288&#45;&gt;Node289</title>
<path fill="none" stroke="#191970" d="M282.9203,-21C297.2562,-21 311.7211,-21 324.8648,-21"/>
<polygon fill="#191970" stroke="#191970" points="282.5251,-17.5001 272.5251,-21 282.5251,-24.5001 282.5251,-17.5001"/>
</g>
</g>
</svg>
