<?xml version="1.0" encoding="UTF-8" standalone="no"?>
<!DOCTYPE svg PUBLIC "-//W3C//DTD SVG 1.1//EN"
 "http://www.w3.org/Graphics/SVG/1.1/DTD/svg11.dtd">
<!-- Generated by graphviz version 2.40.1 (20161225.0304)
 -->
<!-- Title: Integrator.cpp Pages: 1 -->
<svg width="1701pt" height="599pt"
 viewBox="0.00 0.00 1701.46 599.00" xmlns="http://www.w3.org/2000/svg" xmlns:xlink="http://www.w3.org/1999/xlink">
<g id="graph0" class="graph" transform="scale(1 1) rotate(0) translate(4 595)">
<title>Integrator.cpp</title>
<!-- Node0 -->
<g id="node1" class="node">
<title>Node0</title>
<polygon fill="#bfbfbf" stroke="#000000" points="1136.4571,-571.5 1136.4571,-590.5 1220.4571,-590.5 1220.4571,-571.5 1136.4571,-571.5"/>
<text text-anchor="middle" x="1178.4571" y="-578.5" font-family="FreeSans.ttf" font-size="10.00" fill="#000000">Integrator.cpp</text>
</g>
<!-- Node1 -->
<g id="node2" class="node">
<title>Node1</title>
<g id="a_node2"><a xlink:href="Integrator_8h.html" target="_top" xlink:title="iDynTree/Integrator.h">
<polygon fill="none" stroke="#000000" points="111.9571,-224.5 111.9571,-243.5 230.9571,-243.5 230.9571,-224.5 111.9571,-224.5"/>
<text text-anchor="middle" x="171.4571" y="-231.5" font-family="FreeSans.ttf" font-size="10.00" fill="#000000">iDynTree/Integrator.h</text>
</a>
</g>
</g>
<!-- Node0&#45;&gt;Node1 -->
<g id="edge1" class="edge">
<title>Node0&#45;&gt;Node1</title>
<path fill="none" stroke="#191970" d="M1136.4332,-579.9659C959.7961,-575.4869 284.8084,-556.9924 245.4571,-535 211.8285,-516.2059 196.4571,-502.024 196.4571,-463.5 196.4571,-463.5 196.4571,-463.5 196.4571,-346 196.4571,-312.7847 185.8541,-275.3305 178.4584,-253.2459"/>
<polygon fill="#191970" stroke="#191970" points="181.7375,-252.0195 175.1459,-243.7249 175.1262,-254.3197 181.7375,-252.0195"/>
</g>
<!-- Node4 -->
<g id="node5" class="node">
<title>Node4</title>
<polygon fill="none" stroke="#bfbfbf" points="1184.4571,-.5 1184.4571,-19.5 1236.4571,-19.5 1236.4571,-.5 1184.4571,-.5"/>
<text text-anchor="middle" x="1210.4571" y="-7.5" font-family="FreeSans.ttf" font-size="10.00" fill="#000000">cassert</text>
</g>
<!-- Node0&#45;&gt;Node4 -->
<g id="edge90" class="edge">
<title>Node0&#45;&gt;Node4</title>
<path fill="none" stroke="#191970" d="M1220.6017,-580.353C1343.5987,-577.3361 1693.4571,-560.2512 1693.4571,-463.5 1693.4571,-463.5 1693.4571,-463.5 1693.4571,-122 1693.4571,-30.3762 1359.4556,-13.6866 1246.9462,-10.6638"/>
<polygon fill="#191970" stroke="#191970" points="1246.8518,-7.1605 1236.7682,-10.4119 1246.6785,-14.1584 1246.8518,-7.1605"/>
</g>
<!-- Node7 -->
<g id="node8" class="node">
<title>Node7</title>
<polygon fill="none" stroke="#bfbfbf" points="423.9571,-.5 423.9571,-19.5 476.9571,-19.5 476.9571,-.5 423.9571,-.5"/>
<text text-anchor="middle" x="450.4571" y="-7.5" font-family="FreeSans.ttf" font-size="10.00" fill="#000000">cstddef</text>
</g>
<!-- Node0&#45;&gt;Node7 -->
<g id="edge91" class="edge">
<title>Node0&#45;&gt;Node7</title>
<path fill="none" stroke="#191970" d="M1136.2787,-580.1088C956.0167,-575.7528 259.4571,-553.1222 259.4571,-463.5 259.4571,-463.5 259.4571,-463.5 259.4571,-290 259.4571,-259.4754 263.9407,-250.8519 278.4571,-224 288.4984,-205.4259 296.01,-204.2789 309.4571,-188 357.1922,-130.2121 411.7948,-60.0805 436.7352,-27.8139"/>
<polygon fill="#191970" stroke="#191970" points="439.6131,-29.8136 442.9527,-19.7589 434.0718,-25.5364 439.6131,-29.8136"/>
</g>
<!-- Node16 -->
<g id="node17" class="node">
<title>Node16</title>
<g id="a_node17"><a xlink:href="Utils_8h.html" target="_top" xlink:title="iDynTree/Core/Utils.h">
<polygon fill="none" stroke="#000000" points="1062.9571,-56.5 1062.9571,-75.5 1181.9571,-75.5 1181.9571,-56.5 1062.9571,-56.5"/>
<text text-anchor="middle" x="1122.4571" y="-63.5" font-family="FreeSans.ttf" font-size="10.00" fill="#000000">iDynTree/Core/Utils.h</text>
</a>
</g>
</g>
<!-- Node0&#45;&gt;Node16 -->
<g id="edge36" class="edge">
<title>Node0&#45;&gt;Node16</title>
<path fill="none" stroke="#191970" d="M1220.7876,-579.5851C1337.5274,-574.5419 1655.4571,-552.626 1655.4571,-463.5 1655.4571,-463.5 1655.4571,-463.5 1655.4571,-178 1655.4571,-133.9305 1621.8018,-129.7321 1581.4571,-112 1513.4695,-82.1184 1303.0911,-71.3902 1192.3152,-67.7467"/>
<polygon fill="#191970" stroke="#191970" points="1192.3454,-64.246 1182.239,-67.4258 1192.1225,-71.2424 1192.3454,-64.246"/>
</g>
<!-- Node23 -->
<g id="node24" class="node">
<title>Node23</title>
<g id="a_node24"><a xlink:href="DynamicalSystem_8h.html" target="_top" xlink:title="iDynTree/DynamicalSystem.h">
<polygon fill="none" stroke="#000000" points="287.9571,-224.5 287.9571,-243.5 448.9571,-243.5 448.9571,-224.5 287.9571,-224.5"/>
<text text-anchor="middle" x="368.4571" y="-231.5" font-family="FreeSans.ttf" font-size="10.00" fill="#000000">iDynTree/DynamicalSystem.h</text>
</a>
</g>
</g>
<!-- Node0&#45;&gt;Node23 -->
<g id="edge33" class="edge">
<title>Node0&#45;&gt;Node23</title>
<path fill="none" stroke="#191970" d="M1136.2938,-579.0908C974.7773,-571.2259 404.4571,-538.1681 404.4571,-463.5 404.4571,-463.5 404.4571,-463.5 404.4571,-346 404.4571,-311.7942 389.0496,-274.4094 378.394,-252.6445"/>
<polygon fill="#191970" stroke="#191970" points="381.423,-250.8795 373.769,-243.5538 375.184,-254.0537 381.423,-250.8795"/>
</g>
<!-- Node24 -->
<g id="node25" class="node">
<title>Node24</title>
<g id="a_node25"><a xlink:href="EigenHelpers_8h.html" target="_top" xlink:title="iDynTree/Core/EigenHelpers.h">
<polygon fill="none" stroke="#000000" points="1097.9571,-515.5 1097.9571,-534.5 1258.9571,-534.5 1258.9571,-515.5 1097.9571,-515.5"/>
<text text-anchor="middle" x="1178.4571" y="-522.5" font-family="FreeSans.ttf" font-size="10.00" fill="#000000">iDynTree/Core/EigenHelpers.h</text>
</a>
</g>
</g>
<!-- Node0&#45;&gt;Node24 -->
<g id="edge37" class="edge">
<title>Node0&#45;&gt;Node24</title>
<path fill="none" stroke="#191970" d="M1178.4571,-571.2455C1178.4571,-563.9382 1178.4571,-553.6944 1178.4571,-544.7046"/>
<polygon fill="#191970" stroke="#191970" points="1181.9572,-544.6426 1178.4571,-534.6427 1174.9572,-544.6427 1181.9572,-544.6426"/>
</g>
<!-- Node27 -->
<g id="node28" class="node">
<title>Node27</title>
<polygon fill="none" stroke="#bfbfbf" points="1457.4571,-112.5 1457.4571,-131.5 1513.4571,-131.5 1513.4571,-112.5 1457.4571,-112.5"/>
<text text-anchor="middle" x="1485.4571" y="-119.5" font-family="FreeSans.ttf" font-size="10.00" fill="#000000">sstream</text>
</g>
<!-- Node0&#45;&gt;Node27 -->
<g id="edge92" class="edge">
<title>Node0&#45;&gt;Node27</title>
<path fill="none" stroke="#191970" d="M1220.5502,-578.7087C1330.4284,-571.5846 1617.4571,-545.1595 1617.4571,-463.5 1617.4571,-463.5 1617.4571,-463.5 1617.4571,-402 1617.4571,-293.399 1535.2077,-181.7819 1500.5589,-139.5797"/>
<polygon fill="#191970" stroke="#191970" points="1503.2152,-137.3 1494.1179,-131.8694 1497.843,-141.7878 1503.2152,-137.3"/>
</g>
<!-- Node2 -->
<g id="node3" class="node">
<title>Node2</title>
<g id="a_node3"><a xlink:href="VectorDynSize_8h.html" target="_top" xlink:title="iDynTree/Core/VectorDynSize.h">
<polygon fill="none" stroke="#000000" points="432.9571,-168.5 432.9571,-187.5 599.9571,-187.5 599.9571,-168.5 432.9571,-168.5"/>
<text text-anchor="middle" x="516.4571" y="-175.5" font-family="FreeSans.ttf" font-size="10.00" fill="#000000">iDynTree/Core/VectorDynSize.h</text>
</a>
</g>
</g>
<!-- Node1&#45;&gt;Node2 -->
<g id="edge2" class="edge">
<title>Node1&#45;&gt;Node2</title>
<path fill="none" stroke="#191970" d="M230.3727,-224.4369C290.6572,-214.6516 384.259,-199.4582 447.8465,-189.1368"/>
<polygon fill="#191970" stroke="#191970" points="448.4744,-192.5808 457.7844,-187.5237 447.3528,-185.6712 448.4744,-192.5808"/>
</g>
<!-- Node13 -->
<g id="node14" class="node">
<title>Node13</title>
<polygon fill="none" stroke="#bfbfbf" points="681.4571,-112.5 681.4571,-131.5 725.4571,-131.5 725.4571,-112.5 681.4571,-112.5"/>
<text text-anchor="middle" x="703.4571" y="-119.5" font-family="FreeSans.ttf" font-size="10.00" fill="#000000">string</text>
</g>
<!-- Node1&#45;&gt;Node13 -->
<g id="edge30" class="edge">
<title>Node1&#45;&gt;Node13</title>
<path fill="none" stroke="#191970" d="M203.8462,-224.4793C251.594,-210.6812 343.8308,-184.9294 423.4571,-168 512.49,-149.0706 618.8646,-133.5031 671.1672,-126.3055"/>
<polygon fill="#191970" stroke="#191970" points="671.7489,-129.7586 681.1839,-124.9387 670.8025,-122.8229 671.7489,-129.7586"/>
</g>
<!-- Node14 -->
<g id="node15" class="node">
<title>Node14</title>
<g id="a_node15"><a xlink:href="MatrixDynSize_8h.html" target="_top" xlink:title="iDynTree/Core/MatrixDynSize.h">
<polygon fill="none" stroke="#000000" points="866.9571,-168.5 866.9571,-187.5 1033.9571,-187.5 1033.9571,-168.5 866.9571,-168.5"/>
<text text-anchor="middle" x="950.4571" y="-175.5" font-family="FreeSans.ttf" font-size="10.00" fill="#000000">iDynTree/Core/MatrixDynSize.h</text>
</a>
</g>
</g>
<!-- Node1&#45;&gt;Node14 -->
<g id="edge14" class="edge">
<title>Node1&#45;&gt;Node14</title>
<path fill="none" stroke="#191970" d="M231.1409,-228.1575C246.5488,-226.7218 263.1149,-225.2418 278.4571,-224 484.5745,-207.3163 726.584,-191.7324 856.549,-183.6897"/>
<polygon fill="#191970" stroke="#191970" points="857.0932,-187.1628 866.8584,-183.053 856.6616,-180.1761 857.0932,-187.1628"/>
</g>
<!-- Node18 -->
<g id="node19" class="node">
<title>Node18</title>
<g id="a_node19"><a xlink:href="SparsityStructure_8h.html" target="_top" xlink:title="iDynTree/SparsityStructure.h">
<polygon fill="none" stroke="#000000" points="145.9571,-168.5 145.9571,-187.5 300.9571,-187.5 300.9571,-168.5 145.9571,-168.5"/>
<text text-anchor="middle" x="223.4571" y="-175.5" font-family="FreeSans.ttf" font-size="10.00" fill="#000000">iDynTree/SparsityStructure.h</text>
</a>
</g>
</g>
<!-- Node1&#45;&gt;Node18 -->
<g id="edge23" class="edge">
<title>Node1&#45;&gt;Node18</title>
<path fill="none" stroke="#191970" d="M180.5148,-224.2455C187.9712,-216.2155 198.7205,-204.6394 207.5988,-195.0781"/>
<polygon fill="#191970" stroke="#191970" points="210.2634,-197.3522 214.5031,-187.6427 205.1338,-192.589 210.2634,-197.3522"/>
</g>
<!-- Node19 -->
<g id="node20" class="node">
<title>Node19</title>
<polygon fill="none" stroke="#bfbfbf" points="17.9571,-112.5 17.9571,-131.5 64.9571,-131.5 64.9571,-112.5 17.9571,-112.5"/>
<text text-anchor="middle" x="41.4571" y="-119.5" font-family="FreeSans.ttf" font-size="10.00" fill="#000000">vector</text>
</g>
<!-- Node1&#45;&gt;Node19 -->
<g id="edge29" class="edge">
<title>Node1&#45;&gt;Node19</title>
<path fill="none" stroke="#191970" d="M111.9458,-225.337C69.4908,-217.7977 17.6693,-205.3436 4.4571,-188 -7.4311,-172.3945 7.1432,-152.5352 21.3509,-138.6962"/>
<polygon fill="#191970" stroke="#191970" points="24.0023,-141.0152 29.0359,-131.6925 19.2872,-135.8414 24.0023,-141.0152"/>
</g>
<!-- Node21 -->
<g id="node22" class="node">
<title>Node21</title>
<polygon fill="none" stroke="#bfbfbf" points="69.4571,-168.5 69.4571,-187.5 127.4571,-187.5 127.4571,-168.5 69.4571,-168.5"/>
<text text-anchor="middle" x="98.4571" y="-175.5" font-family="FreeSans.ttf" font-size="10.00" fill="#000000">memory</text>
</g>
<!-- Node1&#45;&gt;Node21 -->
<g id="edge31" class="edge">
<title>Node1&#45;&gt;Node21</title>
<path fill="none" stroke="#191970" d="M158.7414,-224.2455C147.855,-215.8943 131.9688,-203.7076 119.2371,-193.9408"/>
<polygon fill="#191970" stroke="#191970" points="121.0916,-190.9523 111.027,-187.6427 116.831,-196.5063 121.0916,-190.9523"/>
</g>
<!-- Node22 -->
<g id="node23" class="node">
<title>Node22</title>
<polygon fill="none" stroke="#bfbfbf" points="13.4571,-168.5 13.4571,-187.5 51.4571,-187.5 51.4571,-168.5 13.4571,-168.5"/>
<text text-anchor="middle" x="32.4571" y="-175.5" font-family="FreeSans.ttf" font-size="10.00" fill="#000000">map</text>
</g>
<!-- Node1&#45;&gt;Node22 -->
<g id="edge32" class="edge">
<title>Node1&#45;&gt;Node22</title>
<path fill="none" stroke="#191970" d="M147.5621,-224.3733C123.5783,-214.7107 86.6216,-199.8217 61.0847,-189.5335"/>
<polygon fill="#191970" stroke="#191970" points="62.1594,-186.1931 51.5759,-185.7026 59.5435,-192.686 62.1594,-186.1931"/>
</g>
<!-- Node3 -->
<g id="node4" class="node">
<title>Node3</title>
<g id="a_node4"><a xlink:href="Span_8h.html" target="_top" xlink:title="iDynTree/Core/Span.h">
<polygon fill="none" stroke="#000000" points="819.9571,-56.5 819.9571,-75.5 940.9571,-75.5 940.9571,-56.5 819.9571,-56.5"/>
<text text-anchor="middle" x="880.4571" y="-63.5" font-family="FreeSans.ttf" font-size="10.00" fill="#000000">iDynTree/Core/Span.h</text>
</a>
</g>
</g>
<!-- Node2&#45;&gt;Node3 -->
<g id="edge3" class="edge">
<title>Node2&#45;&gt;Node3</title>
<path fill="none" stroke="#191970" d="M535.7236,-168.492C564.7623,-154.4758 621.7496,-128.1841 672.4571,-112 719.002,-97.1445 772.8992,-85.3713 814.1655,-77.4552"/>
<polygon fill="#191970" stroke="#191970" points="814.9285,-80.8731 824.1042,-75.5762 813.6281,-73.9949 814.9285,-80.8731"/>
</g>
<!-- Node2&#45;&gt;Node13 -->
<g id="edge13" class="edge">
<title>Node2&#45;&gt;Node13</title>
<path fill="none" stroke="#191970" d="M548.6035,-168.3733C582.9564,-158.0858 637.0925,-141.8739 671.408,-131.5976"/>
<polygon fill="#191970" stroke="#191970" points="672.8018,-134.8338 681.3774,-128.6121 670.7936,-128.1281 672.8018,-134.8338"/>
</g>
<!-- Node3&#45;&gt;Node4 -->
<g id="edge4" class="edge">
<title>Node3&#45;&gt;Node4</title>
<path fill="none" stroke="#191970" d="M941.2291,-58.0934C1000.3096,-50.0072 1092.4422,-36.3374 1171.4571,-20 1172.3555,-19.8142 1173.2643,-19.6212 1174.1801,-19.4222"/>
<polygon fill="#191970" stroke="#191970" points="1175.1542,-22.7892 1184.1023,-17.1162 1173.5695,-15.9709 1175.1542,-22.7892"/>
</g>
<!-- Node5 -->
<g id="node6" class="node">
<title>Node5</title>
<polygon fill="none" stroke="#bfbfbf" points="717.4571,-.5 717.4571,-19.5 781.4571,-19.5 781.4571,-.5 717.4571,-.5"/>
<text text-anchor="middle" x="749.4571" y="-7.5" font-family="FreeSans.ttf" font-size="10.00" fill="#000000">algorithm</text>
</g>
<!-- Node3&#45;&gt;Node5 -->
<g id="edge5" class="edge">
<title>Node3&#45;&gt;Node5</title>
<path fill="none" stroke="#191970" d="M857.9374,-56.3733C836.7198,-47.3032 804.7294,-33.6279 780.9802,-23.4755"/>
<polygon fill="#191970" stroke="#191970" points="782.2538,-20.2136 771.6829,-19.5011 779.5022,-26.6502 782.2538,-20.2136"/>
</g>
<!-- Node6 -->
<g id="node7" class="node">
<title>Node6</title>
<polygon fill="none" stroke="#bfbfbf" points="799.4571,-.5 799.4571,-19.5 841.4571,-19.5 841.4571,-.5 799.4571,-.5"/>
<text text-anchor="middle" x="820.4571" y="-7.5" font-family="FreeSans.ttf" font-size="10.00" fill="#000000">array</text>
</g>
<!-- Node3&#45;&gt;Node6 -->
<g id="edge6" class="edge">
<title>Node3&#45;&gt;Node6</title>
<path fill="none" stroke="#191970" d="M870.0059,-56.2455C861.2302,-48.0549 848.5016,-36.1749 838.1431,-26.5069"/>
<polygon fill="#191970" stroke="#191970" points="840.4872,-23.9072 830.7885,-19.6427 835.7109,-29.0246 840.4872,-23.9072"/>
</g>
<!-- Node3&#45;&gt;Node7 -->
<g id="edge7" class="edge">
<title>Node3&#45;&gt;Node7</title>
<path fill="none" stroke="#191970" d="M819.7606,-58.0953C729.2934,-46.3136 561.7884,-24.499 487.544,-14.8299"/>
<polygon fill="#191970" stroke="#191970" points="487.6552,-11.3149 477.2869,-13.4941 486.7511,-18.2563 487.6552,-11.3149"/>
</g>
<!-- Node8 -->
<g id="node9" class="node">
<title>Node8</title>
<polygon fill="none" stroke="#bfbfbf" points="859.9571,-.5 859.9571,-19.5 912.9571,-19.5 912.9571,-.5 859.9571,-.5"/>
<text text-anchor="middle" x="886.4571" y="-7.5" font-family="FreeSans.ttf" font-size="10.00" fill="#000000">iterator</text>
</g>
<!-- Node3&#45;&gt;Node8 -->
<g id="edge8" class="edge">
<title>Node3&#45;&gt;Node8</title>
<path fill="none" stroke="#191970" d="M881.5022,-56.2455C882.2851,-48.9382 883.3827,-38.6944 884.3459,-29.7046"/>
<polygon fill="#191970" stroke="#191970" points="887.8386,-29.9587 885.4239,-19.6427 880.8784,-29.2129 887.8386,-29.9587"/>
</g>
<!-- Node9 -->
<g id="node10" class="node">
<title>Node9</title>
<polygon fill="none" stroke="#bfbfbf" points="931.4571,-.5 931.4571,-19.5 975.4571,-19.5 975.4571,-.5 931.4571,-.5"/>
<text text-anchor="middle" x="953.4571" y="-7.5" font-family="FreeSans.ttf" font-size="10.00" fill="#000000">limits</text>
</g>
<!-- Node3&#45;&gt;Node9 -->
<g id="edge9" class="edge">
<title>Node3&#45;&gt;Node9</title>
<path fill="none" stroke="#191970" d="M893.1727,-56.2455C904.0591,-47.8943 919.9453,-35.7076 932.6771,-25.9408"/>
<polygon fill="#191970" stroke="#191970" points="935.0831,-28.5063 940.8871,-19.6427 930.8225,-22.9523 935.0831,-28.5063"/>
</g>
<!-- Node10 -->
<g id="node11" class="node">
<title>Node10</title>
<polygon fill="none" stroke="#bfbfbf" points="570.9571,-.5 570.9571,-19.5 635.9571,-19.5 635.9571,-.5 570.9571,-.5"/>
<text text-anchor="middle" x="603.4571" y="-7.5" font-family="FreeSans.ttf" font-size="10.00" fill="#000000">stdexcept</text>
</g>
<!-- Node3&#45;&gt;Node10 -->
<g id="edge10" class="edge">
<title>Node3&#45;&gt;Node10</title>
<path fill="none" stroke="#191970" d="M827.8212,-56.4692C782.1444,-48.0337 714.0062,-35.0568 646.1116,-20.2973"/>
<polygon fill="#191970" stroke="#191970" points="646.6158,-16.8249 636.0988,-18.1071 645.1199,-23.6632 646.6158,-16.8249"/>
</g>
<!-- Node11 -->
<g id="node12" class="node">
<title>Node11</title>
<polygon fill="none" stroke="#bfbfbf" points="993.9571,-.5 993.9571,-19.5 1062.9571,-19.5 1062.9571,-.5 993.9571,-.5"/>
<text text-anchor="middle" x="1028.4571" y="-7.5" font-family="FreeSans.ttf" font-size="10.00" fill="#000000">type_traits</text>
</g>
<!-- Node3&#45;&gt;Node11 -->
<g id="edge11" class="edge">
<title>Node3&#45;&gt;Node11</title>
<path fill="none" stroke="#191970" d="M905.8992,-56.3733C930.1897,-47.1822 966.9779,-33.2624 993.9114,-23.0713"/>
<polygon fill="#191970" stroke="#191970" points="995.2327,-26.3136 1003.3469,-19.5011 992.7554,-19.7666 995.2327,-26.3136"/>
</g>
<!-- Node12 -->
<g id="node13" class="node">
<title>Node12</title>
<polygon fill="none" stroke="#bfbfbf" points="653.9571,-.5 653.9571,-19.5 698.9571,-19.5 698.9571,-.5 653.9571,-.5"/>
<text text-anchor="middle" x="676.4571" y="-7.5" font-family="FreeSans.ttf" font-size="10.00" fill="#000000">utility</text>
</g>
<!-- Node3&#45;&gt;Node12 -->
<g id="edge12" class="edge">
<title>Node3&#45;&gt;Node12</title>
<path fill="none" stroke="#191970" d="M843.0904,-56.4846C810.2123,-48.0058 760.8337,-35.0151 708.8758,-20.0377"/>
<polygon fill="#191970" stroke="#191970" points="709.7265,-16.6403 699.1475,-17.2186 707.7782,-23.3637 709.7265,-16.6403"/>
</g>
<!-- Node14&#45;&gt;Node13 -->
<g id="edge15" class="edge">
<title>Node14&#45;&gt;Node13</title>
<path fill="none" stroke="#191970" d="M908.2769,-168.4369C859.2942,-157.3315 779.5882,-139.2605 735.4383,-129.2508"/>
<polygon fill="#191970" stroke="#191970" points="736.066,-125.8044 725.5396,-127.0066 734.5182,-132.6311 736.066,-125.8044"/>
</g>
<!-- Node15 -->
<g id="node16" class="node">
<title>Node15</title>
<g id="a_node16"><a xlink:href="MatrixView_8h.html" target="_top" xlink:title="iDynTree/Core/MatrixView.h">
<polygon fill="none" stroke="#000000" points="938.9571,-112.5 938.9571,-131.5 1089.9571,-131.5 1089.9571,-112.5 938.9571,-112.5"/>
<text text-anchor="middle" x="1014.4571" y="-119.5" font-family="FreeSans.ttf" font-size="10.00" fill="#000000">iDynTree/Core/MatrixView.h</text>
</a>
</g>
</g>
<!-- Node14&#45;&gt;Node15 -->
<g id="edge16" class="edge">
<title>Node14&#45;&gt;Node15</title>
<path fill="none" stroke="#191970" d="M961.605,-168.2455C970.9657,-160.0549 984.5429,-148.1749 995.592,-138.5069"/>
<polygon fill="#191970" stroke="#191970" points="998.2158,-140.8618 1003.4369,-131.6427 993.6063,-135.5937 998.2158,-140.8618"/>
</g>
<!-- Node15&#45;&gt;Node3 -->
<g id="edge19" class="edge">
<title>Node15&#45;&gt;Node3</title>
<path fill="none" stroke="#191970" d="M991.4216,-112.3733C969.7182,-103.3032 936.9952,-89.6279 912.7021,-79.4755"/>
<polygon fill="#191970" stroke="#191970" points="913.7682,-76.1278 903.1919,-75.5011 911.069,-82.5865 913.7682,-76.1278"/>
</g>
<!-- Node15&#45;&gt;Node4 -->
<g id="edge17" class="edge">
<title>Node15&#45;&gt;Node4</title>
<path fill="none" stroke="#191970" d="M1017.5564,-112.3718C1022.6913,-97.9562 1034.3368,-70.8716 1053.4571,-56 1058.3552,-52.1902 1129.7479,-32.1405 1174.5551,-19.802"/>
<polygon fill="#191970" stroke="#191970" points="1175.5096,-23.1695 1184.225,-17.1452 1173.655,-16.4197 1175.5096,-23.1695"/>
</g>
<!-- Node15&#45;&gt;Node11 -->
<g id="edge18" class="edge">
<title>Node15&#45;&gt;Node11</title>
<path fill="none" stroke="#191970" d="M1015.102,-112.1322C1016.0045,-99.2049 1017.8335,-75.8471 1020.4571,-56 1021.5963,-47.3813 1023.1851,-37.9104 1024.6469,-29.8141"/>
<polygon fill="#191970" stroke="#191970" points="1028.1152,-30.3069 1026.5072,-19.8348 1021.2338,-29.024 1028.1152,-30.3069"/>
</g>
<!-- Node15&#45;&gt;Node16 -->
<g id="edge20" class="edge">
<title>Node15&#45;&gt;Node16</title>
<path fill="none" stroke="#191970" d="M1033.2692,-112.2455C1050.3043,-103.4125 1075.6146,-90.2887 1094.9252,-80.2758"/>
<polygon fill="#191970" stroke="#191970" points="1096.594,-83.353 1103.8605,-75.6427 1093.3718,-77.1388 1096.594,-83.353"/>
</g>
<!-- Node16&#45;&gt;Node7 -->
<g id="edge21" class="edge">
<title>Node16&#45;&gt;Node7</title>
<path fill="none" stroke="#191970" d="M1062.6648,-61.2559C960.0967,-53.0822 744.0126,-35.7074 561.4571,-20 536.7726,-17.8761 509.0113,-15.3751 487.4268,-13.4055"/>
<polygon fill="#191970" stroke="#191970" points="487.6448,-9.9109 477.3675,-12.4853 487.007,-16.8818 487.6448,-9.9109"/>
</g>
<!-- Node17 -->
<g id="node18" class="node">
<title>Node17</title>
<polygon fill="none" stroke="#bfbfbf" points="1082.4571,-.5 1082.4571,-19.5 1162.4571,-19.5 1162.4571,-.5 1082.4571,-.5"/>
<text text-anchor="middle" x="1122.4571" y="-7.5" font-family="FreeSans.ttf" font-size="10.00" fill="#000000">CoreExport.h</text>
</g>
<!-- Node16&#45;&gt;Node17 -->
<g id="edge22" class="edge">
<title>Node16&#45;&gt;Node17</title>
<path fill="none" stroke="#191970" d="M1122.4571,-56.2455C1122.4571,-48.9382 1122.4571,-38.6944 1122.4571,-29.7046"/>
<polygon fill="#191970" stroke="#191970" points="1125.9572,-29.6426 1122.4571,-19.6427 1118.9572,-29.6427 1125.9572,-29.6426"/>
</g>
<!-- Node18&#45;&gt;Node7 -->
<g id="edge26" class="edge">
<title>Node18&#45;&gt;Node7</title>
<path fill="none" stroke="#191970" d="M228.2163,-168.1991C239.8632,-145.2149 272.0489,-87.4201 315.4571,-56 344.9325,-34.6648 385.0528,-22.6662 413.8843,-16.3154"/>
<polygon fill="#191970" stroke="#191970" points="414.8754,-19.6843 423.955,-14.2243 413.4523,-12.8305 414.8754,-19.6843"/>
</g>
<!-- Node18&#45;&gt;Node13 -->
<g id="edge28" class="edge">
<title>Node18&#45;&gt;Node13</title>
<path fill="none" stroke="#191970" d="M301.1108,-168.9404C408.0856,-156.46 596.0696,-134.5285 671.1503,-125.7691"/>
<polygon fill="#191970" stroke="#191970" points="671.8585,-129.2103 681.3855,-124.575 671.0473,-122.2575 671.8585,-129.2103"/>
</g>
<!-- Node18&#45;&gt;Node16 -->
<g id="edge24" class="edge">
<title>Node18&#45;&gt;Node16</title>
<path fill="none" stroke="#191970" d="M282.5403,-168.4669C368.2911,-154.8241 532.3105,-129.4547 672.4571,-112 806.639,-95.2881 963.8913,-80.2474 1052.4797,-72.1899"/>
<polygon fill="#191970" stroke="#191970" points="1053.0305,-75.6544 1062.6738,-71.266 1052.3986,-68.683 1053.0305,-75.6544"/>
</g>
<!-- Node18&#45;&gt;Node19 -->
<g id="edge25" class="edge">
<title>Node18&#45;&gt;Node19</title>
<path fill="none" stroke="#191970" d="M192.1701,-168.3733C159.4727,-158.3125 108.3601,-142.5856 74.885,-132.2855"/>
<polygon fill="#191970" stroke="#191970" points="75.6895,-128.8712 65.1024,-129.2755 73.6308,-135.5616 75.6895,-128.8712"/>
</g>
<!-- Node20 -->
<g id="node21" class="node">
<title>Node20</title>
<polygon fill="none" stroke="#bfbfbf" points="139.4571,-112.5 139.4571,-131.5 225.4571,-131.5 225.4571,-112.5 139.4571,-112.5"/>
<text text-anchor="middle" x="182.4571" y="-119.5" font-family="FreeSans.ttf" font-size="10.00" fill="#000000">unordered_set</text>
</g>
<!-- Node18&#45;&gt;Node20 -->
<g id="edge27" class="edge">
<title>Node18&#45;&gt;Node20</title>
<path fill="none" stroke="#191970" d="M216.3154,-168.2455C210.6127,-160.4564 202.4671,-149.3308 195.5946,-139.9439"/>
<polygon fill="#191970" stroke="#191970" points="198.2483,-137.6437 189.5169,-131.6427 192.6003,-141.7789 198.2483,-137.6437"/>
</g>
<!-- Node23&#45;&gt;Node2 -->
<g id="edge34" class="edge">
<title>Node23&#45;&gt;Node2</title>
<path fill="none" stroke="#191970" d="M393.8992,-224.3733C418.1897,-215.1822 454.9779,-201.2624 481.9114,-191.0713"/>
<polygon fill="#191970" stroke="#191970" points="483.2327,-194.3136 491.3469,-187.5011 480.7554,-187.7666 483.2327,-194.3136"/>
</g>
<!-- Node23&#45;&gt;Node18 -->
<g id="edge35" class="edge">
<title>Node23&#45;&gt;Node18</title>
<path fill="none" stroke="#191970" d="M343.5307,-224.3733C319.8369,-215.2226 284.006,-201.3844 257.6503,-191.2057"/>
<polygon fill="#191970" stroke="#191970" points="258.6476,-187.8389 248.0582,-187.5011 256.1257,-194.3689 258.6476,-187.8389"/>
</g>
<!-- Node24&#45;&gt;Node2 -->
<g id="edge40" class="edge">
<title>Node24&#45;&gt;Node2</title>
<path fill="none" stroke="#191970" d="M1097.8231,-518.3792C921.1324,-502.7873 515.4571,-460.6073 515.4571,-402 515.4571,-402 515.4571,-402 515.4571,-290 515.4571,-257.7103 515.8778,-220.1863 516.1735,-197.8043"/>
<polygon fill="#191970" stroke="#191970" points="519.676,-197.6353 516.3138,-187.5881 512.6767,-197.5391 519.676,-197.6353"/>
</g>
<!-- Node24&#45;&gt;Node7 -->
<g id="edge38" class="edge">
<title>Node24&#45;&gt;Node7</title>
<path fill="none" stroke="#191970" d="M1097.7378,-522.929C962.7841,-518.7259 697.3871,-507.091 608.4571,-479 544.0584,-458.6579 477.4571,-469.5351 477.4571,-402 477.4571,-402 477.4571,-402 477.4571,-290 477.4571,-259.3494 472.8337,-250.5144 457.4571,-224 446.4163,-204.962 431.5879,-208.4508 423.4571,-188 401.6794,-133.2243 426.6408,-62.5529 441.2966,-29.1324"/>
<polygon fill="#191970" stroke="#191970" points="444.6527,-30.2085 445.6205,-19.6579 438.2845,-27.3022 444.6527,-30.2085"/>
</g>
<!-- Node24&#45;&gt;Node14 -->
<g id="edge49" class="edge">
<title>Node24&#45;&gt;Node14</title>
<path fill="none" stroke="#191970" d="M1237.1318,-515.4886C1280.0158,-507.4119 1333.3728,-494.651 1349.4571,-479 1432.6179,-398.0792 1386.5524,-293.2615 1293.4571,-224 1283.4518,-216.5563 1142.1219,-199.4162 1044.0369,-188.2899"/>
<polygon fill="#191970" stroke="#191970" points="1044.4212,-184.8112 1034.0913,-187.1655 1043.6347,-191.7668 1044.4212,-184.8112"/>
</g>
<!-- Node24&#45;&gt;Node16 -->
<g id="edge89" class="edge">
<title>Node24&#45;&gt;Node16</title>
<path fill="none" stroke="#191970" d="M1259.313,-522.4494C1343.5747,-518.2814 1468.5312,-507.3772 1506.4571,-479 1602.1728,-407.3826 1617.4571,-353.5432 1617.4571,-234 1617.4571,-234 1617.4571,-234 1617.4571,-178 1617.4571,-134.2612 1584.3618,-129.908 1544.4571,-112 1483.2092,-84.5139 1295.4135,-72.8522 1192.2055,-68.4123"/>
<polygon fill="#191970" stroke="#191970" points="1192.3221,-64.9142 1182.1843,-67.9925 1192.029,-71.9081 1192.3221,-64.9142"/>
</g>
<!-- Node25 -->
<g id="node26" class="node">
<title>Node25</title>
<polygon fill="none" stroke="#bfbfbf" points="1397.9571,-454 1397.9571,-473 1474.9571,-473 1474.9571,-454 1397.9571,-454"/>
<text text-anchor="middle" x="1436.4571" y="-461" font-family="FreeSans.ttf" font-size="10.00" fill="#000000">Eigen/Dense</text>
</g>
<!-- Node24&#45;&gt;Node25 -->
<g id="edge39" class="edge">
<title>Node24&#45;&gt;Node25</title>
<path fill="none" stroke="#191970" d="M1225.0676,-515.4268C1266.7505,-506.6554 1329.4212,-492.9489 1383.4571,-479 1387.3151,-478.0041 1391.3174,-476.923 1395.3155,-475.8106"/>
<polygon fill="#191970" stroke="#191970" points="1396.4985,-479.1131 1405.1602,-473.0119 1394.5843,-472.3799 1396.4985,-479.1131"/>
</g>
<!-- Node26 -->
<g id="node27" class="node">
<title>Node26</title>
<g id="a_node27"><a xlink:href="VectorFixSize_8h.html" target="_top" xlink:title="iDynTree/Core/VectorFixSize.h">
<polygon fill="none" stroke="#000000" points="1051.9571,-168.5 1051.9571,-187.5 1212.9571,-187.5 1212.9571,-168.5 1051.9571,-168.5"/>
<text text-anchor="middle" x="1132.4571" y="-175.5" font-family="FreeSans.ttf" font-size="10.00" fill="#000000">iDynTree/Core/VectorFixSize.h</text>
</a>
</g>
</g>
<!-- Node24&#45;&gt;Node26 -->
<g id="edge41" class="edge">
<title>Node24&#45;&gt;Node26</title>
<path fill="none" stroke="#191970" d="M1117.0379,-515.4999C1019.8356,-498.7111 841.4571,-460.0002 841.4571,-402 841.4571,-402 841.4571,-402 841.4571,-290 841.4571,-259.4754 837.6908,-244.3335 860.4571,-224 874.0605,-211.8501 967.788,-197.8717 1041.4656,-188.5431"/>
<polygon fill="#191970" stroke="#191970" points="1042.2312,-191.9746 1051.7184,-187.2583 1041.3608,-185.0289 1042.2312,-191.9746"/>
</g>
<!-- Node29 -->
<g id="node30" class="node">
<title>Node29</title>
<g id="a_node30"><a xlink:href="MatrixFixSize_8h.html" target="_top" xlink:title="iDynTree/Core/MatrixFixSize.h">
<polygon fill="none" stroke="#000000" points="1235.9571,-168.5 1235.9571,-187.5 1396.9571,-187.5 1396.9571,-168.5 1235.9571,-168.5"/>
<text text-anchor="middle" x="1316.4571" y="-175.5" font-family="FreeSans.ttf" font-size="10.00" fill="#000000">iDynTree/Core/MatrixFixSize.h</text>
</a>
</g>
</g>
<!-- Node24&#45;&gt;Node29 -->
<g id="edge50" class="edge">
<title>Node24&#45;&gt;Node29</title>
<path fill="none" stroke="#191970" d="M1259.2819,-518.2235C1344.6478,-510.2292 1468.94,-495.8707 1483.4571,-479 1565.5633,-383.5819 1399.49,-241.4023 1338.0609,-194.0137"/>
<polygon fill="#191970" stroke="#191970" points="1339.8763,-190.9971 1329.7988,-187.7266 1335.6373,-196.5676 1339.8763,-190.9971"/>
</g>
<!-- Node31 -->
<g id="node32" class="node">
<title>Node31</title>
<g id="a_node32"><a xlink:href="SpatialMotionVector_8h.html" target="_top" xlink:title="iDynTree/Core/SpatialMotion\lVector.h">
<polygon fill="none" stroke="#000000" points="1185.9571,-448.5 1185.9571,-478.5 1340.9571,-478.5 1340.9571,-448.5 1185.9571,-448.5"/>
<text text-anchor="start" x="1193.9571" y="-466.5" font-family="FreeSans.ttf" font-size="10.00" fill="#000000">iDynTree/Core/SpatialMotion</text>
<text text-anchor="middle" x="1263.4571" y="-455.5" font-family="FreeSans.ttf" font-size="10.00" fill="#000000">Vector.h</text>
</a>
</g>
</g>
<!-- Node24&#45;&gt;Node31 -->
<g id="edge58" class="edge">
<title>Node24&#45;&gt;Node31</title>
<path fill="none" stroke="#191970" d="M1191.7383,-515.3906C1203.1355,-507.1444 1219.9663,-494.9669 1234.4593,-484.4807"/>
<polygon fill="#191970" stroke="#191970" points="1236.6136,-487.2421 1242.6637,-478.5446 1232.5103,-481.5709 1236.6136,-487.2421"/>
</g>
<!-- Node38 -->
<g id="node39" class="node">
<title>Node38</title>
<g id="a_node39"><a xlink:href="SpatialForceVector_8h.html" target="_top" xlink:title="iDynTree/Core/SpatialForce\lVector.h">
<polygon fill="none" stroke="#000000" points="1019.4571,-448.5 1019.4571,-478.5 1167.4571,-478.5 1167.4571,-448.5 1019.4571,-448.5"/>
<text text-anchor="start" x="1027.4571" y="-466.5" font-family="FreeSans.ttf" font-size="10.00" fill="#000000">iDynTree/Core/SpatialForce</text>
<text text-anchor="middle" x="1093.4571" y="-455.5" font-family="FreeSans.ttf" font-size="10.00" fill="#000000">Vector.h</text>
</a>
</g>
</g>
<!-- Node24&#45;&gt;Node38 -->
<g id="edge80" class="edge">
<title>Node24&#45;&gt;Node38</title>
<path fill="none" stroke="#191970" d="M1165.1758,-515.3906C1153.7786,-507.1444 1136.9478,-494.9669 1122.4548,-484.4807"/>
<polygon fill="#191970" stroke="#191970" points="1124.4038,-481.5709 1114.2504,-478.5446 1120.3005,-487.2421 1124.4038,-481.5709"/>
</g>
<!-- Node39 -->
<g id="node40" class="node">
<title>Node39</title>
<g id="a_node40"><a xlink:href="Transform_8h.html" target="_top" xlink:title="iDynTree/Core/Transform.h">
<polygon fill="none" stroke="#000000" points="667.4571,-392.5 667.4571,-411.5 813.4571,-411.5 813.4571,-392.5 667.4571,-392.5"/>
<text text-anchor="middle" x="740.4571" y="-399.5" font-family="FreeSans.ttf" font-size="10.00" fill="#000000">iDynTree/Core/Transform.h</text>
</a>
</g>
</g>
<!-- Node24&#45;&gt;Node39 -->
<g id="edge84" class="edge">
<title>Node24&#45;&gt;Node39</title>
<path fill="none" stroke="#191970" d="M1097.6177,-519.8995C1009.2981,-513.366 874.1586,-500.2718 827.4571,-479 797.4854,-465.3484 770.354,-437.7868 754.6326,-419.6129"/>
<polygon fill="#191970" stroke="#191970" points="756.9764,-416.9608 747.869,-411.5474 751.6128,-421.4587 756.9764,-416.9608"/>
</g>
<!-- Node26&#45;&gt;Node3 -->
<g id="edge43" class="edge">
<title>Node26&#45;&gt;Node3</title>
<path fill="none" stroke="#191970" d="M1068.5467,-168.4815C1017.956,-160.0458 952.1643,-146.796 929.4571,-132 911.6061,-120.3683 897.9107,-99.8562 889.5952,-84.7778"/>
<polygon fill="#191970" stroke="#191970" points="892.643,-83.0526 884.918,-75.8017 886.4352,-86.2873 892.643,-83.0526"/>
</g>
<!-- Node26&#45;&gt;Node4 -->
<g id="edge46" class="edge">
<title>Node26&#45;&gt;Node4</title>
<path fill="none" stroke="#191970" d="M1138.9891,-168.2483C1150.6331,-150.5237 1175.1841,-111.5642 1190.4571,-76 1196.9533,-60.8732 1202.2408,-42.9558 1205.7441,-29.6094"/>
<polygon fill="#191970" stroke="#191970" points="1209.2078,-30.1869 1208.2545,-19.6351 1202.4195,-28.4784 1209.2078,-30.1869"/>
</g>
<!-- Node26&#45;&gt;Node7 -->
<g id="edge47" class="edge">
<title>Node26&#45;&gt;Node7</title>
<path fill="none" stroke="#191970" d="M1080.1844,-168.4307C1033.8392,-159.7144 964.405,-146.0871 904.4571,-132 748.0097,-95.2366 563.6325,-42.8491 486.8507,-20.6233"/>
<polygon fill="#191970" stroke="#191970" points="487.7508,-17.2402 477.1716,-17.8162 485.8009,-23.9632 487.7508,-17.2402"/>
</g>
<!-- Node26&#45;&gt;Node13 -->
<g id="edge44" class="edge">
<title>Node26&#45;&gt;Node13</title>
<path fill="none" stroke="#191970" d="M1051.9362,-168.8303C977.3017,-160.1187 863.2308,-146.2643 764.4571,-132 755.1193,-130.6515 745.0011,-129.0499 735.7396,-127.528"/>
<polygon fill="#191970" stroke="#191970" points="736.1737,-124.0521 725.7345,-125.8613 735.0234,-130.957 736.1737,-124.0521"/>
</g>
<!-- Node26&#45;&gt;Node16 -->
<g id="edge42" class="edge">
<title>Node26&#45;&gt;Node16</title>
<path fill="none" stroke="#191970" d="M1131.6045,-168.4509C1129.9735,-150.184 1126.3816,-109.9553 1124.2158,-85.6976"/>
<polygon fill="#191970" stroke="#191970" points="1127.683,-85.174 1123.3075,-75.5249 1120.7108,-85.7966 1127.683,-85.174"/>
</g>
<!-- Node26&#45;&gt;Node27 -->
<g id="edge45" class="edge">
<title>Node26&#45;&gt;Node27</title>
<path fill="none" stroke="#191970" d="M1213.1185,-168.9538C1274.8693,-161.4055 1362.2864,-149.38 1447.4267,-132.024"/>
<polygon fill="#191970" stroke="#191970" points="1448.1733,-135.4437 1457.2587,-129.9935 1446.7575,-128.5884 1448.1733,-135.4437"/>
</g>
<!-- Node28 -->
<g id="node29" class="node">
<title>Node28</title>
<polygon fill="none" stroke="#bfbfbf" points="1235.4571,-112.5 1235.4571,-131.5 1285.4571,-131.5 1285.4571,-112.5 1235.4571,-112.5"/>
<text text-anchor="middle" x="1260.4571" y="-119.5" font-family="FreeSans.ttf" font-size="10.00" fill="#000000">cstring</text>
</g>
<!-- Node26&#45;&gt;Node28 -->
<g id="edge48" class="edge">
<title>Node26&#45;&gt;Node28</title>
<path fill="none" stroke="#191970" d="M1154.461,-168.3733C1175.1005,-159.3435 1206.1728,-145.7494 1229.3459,-135.6111"/>
<polygon fill="#191970" stroke="#191970" points="1230.9815,-138.7159 1238.7402,-131.5011 1228.1757,-132.3028 1230.9815,-138.7159"/>
</g>
<!-- Node29&#45;&gt;Node4 -->
<g id="edge53" class="edge">
<title>Node29&#45;&gt;Node4</title>
<path fill="none" stroke="#191970" d="M1318.567,-168.1174C1320.9257,-154.7686 1323.4507,-130.5173 1315.4571,-112 1298.9684,-73.804 1260.6329,-42.7494 1235.1327,-25.3213"/>
<polygon fill="#191970" stroke="#191970" points="1236.9742,-22.3429 1226.7051,-19.7357 1233.107,-28.1777 1236.9742,-22.3429"/>
</g>
<!-- Node29&#45;&gt;Node13 -->
<g id="edge55" class="edge">
<title>Node29&#45;&gt;Node13</title>
<path fill="none" stroke="#191970" d="M1235.8729,-169.4257C1230.9958,-168.9352 1226.1615,-168.4565 1221.4571,-168 1037.8445,-150.1847 817.3446,-131.504 735.8095,-124.6884"/>
<polygon fill="#191970" stroke="#191970" points="735.9399,-121.1872 725.6835,-123.8433 735.3577,-128.163 735.9399,-121.1872"/>
</g>
<!-- Node29&#45;&gt;Node15 -->
<g id="edge52" class="edge">
<title>Node29&#45;&gt;Node15</title>
<path fill="none" stroke="#191970" d="M1264.8845,-168.4369C1212.5481,-158.7321 1131.525,-143.708 1075.8959,-133.3926"/>
<polygon fill="#191970" stroke="#191970" points="1076.2874,-129.9056 1065.8169,-131.5237 1075.0111,-136.7883 1076.2874,-129.9056"/>
</g>
<!-- Node29&#45;&gt;Node16 -->
<g id="edge51" class="edge">
<title>Node29&#45;&gt;Node16</title>
<path fill="none" stroke="#191970" d="M1316.0173,-168.4208C1314.8302,-154.0692 1310.4633,-127.0671 1294.4571,-112 1279.2262,-97.6628 1232.0262,-85.6281 1190.9165,-77.4687"/>
<polygon fill="#191970" stroke="#191970" points="1191.376,-73.9927 1180.8933,-75.5303 1190.0468,-80.8654 1191.376,-73.9927"/>
</g>
<!-- Node29&#45;&gt;Node27 -->
<g id="edge57" class="edge">
<title>Node29&#45;&gt;Node27</title>
<path fill="none" stroke="#191970" d="M1345.5092,-168.3733C1373.7816,-159.0049 1416.8812,-144.7234 1447.7774,-134.4856"/>
<polygon fill="#191970" stroke="#191970" points="1448.9541,-137.7829 1457.3456,-131.315 1446.7522,-131.1382 1448.9541,-137.7829"/>
</g>
<!-- Node29&#45;&gt;Node28 -->
<g id="edge54" class="edge">
<title>Node29&#45;&gt;Node28</title>
<path fill="none" stroke="#191970" d="M1306.7026,-168.2455C1298.5923,-160.1352 1286.8646,-148.4075 1277.249,-138.7919"/>
<polygon fill="#191970" stroke="#191970" points="1279.6457,-136.2389 1270.0997,-131.6427 1274.6959,-141.1887 1279.6457,-136.2389"/>
</g>
<!-- Node30 -->
<g id="node31" class="node">
<title>Node30</title>
<polygon fill="none" stroke="#bfbfbf" points="1379.4571,-112.5 1379.4571,-131.5 1439.4571,-131.5 1439.4571,-112.5 1379.4571,-112.5"/>
<text text-anchor="middle" x="1409.4571" y="-119.5" font-family="FreeSans.ttf" font-size="10.00" fill="#000000">iostream</text>
</g>
<!-- Node29&#45;&gt;Node30 -->
<g id="edge56" class="edge">
<title>Node29&#45;&gt;Node30</title>
<path fill="none" stroke="#191970" d="M1332.6564,-168.2455C1347.0588,-159.5731 1368.3303,-146.7645 1384.837,-136.825"/>
<polygon fill="#191970" stroke="#191970" points="1386.682,-139.7996 1393.4433,-131.6427 1383.071,-133.8028 1386.682,-139.7996"/>
</g>
<!-- Node31&#45;&gt;Node26 -->
<g id="edge59" class="edge">
<title>Node31&#45;&gt;Node26</title>
<path fill="none" stroke="#191970" d="M1314.9418,-448.3946C1334.398,-440.3827 1355.2473,-428.6535 1369.4571,-412 1389.3519,-388.6837 1389.4571,-376.6506 1389.4571,-346 1389.4571,-346 1389.4571,-346 1389.4571,-290 1389.4571,-245.9823 1261.1564,-208.2536 1185.8588,-189.9015"/>
<polygon fill="#191970" stroke="#191970" points="1186.5943,-186.4787 1176.0536,-187.548 1184.9605,-193.2854 1186.5943,-186.4787"/>
</g>
<!-- Node32 -->
<g id="node33" class="node">
<title>Node32</title>
<g id="a_node33"><a xlink:href="GeomVector3_8h.html" target="_top" xlink:title="iDynTree/Core/GeomVector3.h">
<polygon fill="none" stroke="#000000" points="1121.9571,-224.5 1121.9571,-243.5 1284.9571,-243.5 1284.9571,-224.5 1121.9571,-224.5"/>
<text text-anchor="middle" x="1203.4571" y="-231.5" font-family="FreeSans.ttf" font-size="10.00" fill="#000000">iDynTree/Core/GeomVector3.h</text>
</a>
</g>
</g>
<!-- Node31&#45;&gt;Node32 -->
<g id="edge60" class="edge">
<title>Node31&#45;&gt;Node32</title>
<path fill="none" stroke="#191970" d="M1229.2677,-448.4711C1214.5012,-440.045 1198.7365,-427.9734 1190.4571,-412 1163.4377,-359.872 1183.5407,-287.3882 1195.8098,-253.2445"/>
<polygon fill="#191970" stroke="#191970" points="1199.2002,-254.1724 1199.4483,-243.5805 1192.6491,-251.7059 1199.2002,-254.1724"/>
</g>
<!-- Node33 -->
<g id="node34" class="node">
<title>Node33</title>
<g id="a_node34"><a xlink:href="SpatialVector_8h.html" target="_top" xlink:title="iDynTree/Core/SpatialVector.h">
<polygon fill="none" stroke="#000000" points="1199.9571,-392.5 1199.9571,-411.5 1360.9571,-411.5 1360.9571,-392.5 1199.9571,-392.5"/>
<text text-anchor="middle" x="1280.4571" y="-399.5" font-family="FreeSans.ttf" font-size="10.00" fill="#000000">iDynTree/Core/SpatialVector.h</text>
</a>
</g>
</g>
<!-- Node31&#45;&gt;Node33 -->
<g id="edge62" class="edge">
<title>Node31&#45;&gt;Node33</title>
<path fill="none" stroke="#191970" d="M1267.6593,-448.2977C1269.8962,-440.2055 1272.6719,-430.1639 1275.066,-421.5029"/>
<polygon fill="#191970" stroke="#191970" points="1278.4442,-422.418 1277.7351,-411.8469 1271.6973,-420.5529 1278.4442,-422.418"/>
</g>
<!-- Node32&#45;&gt;Node26 -->
<g id="edge61" class="edge">
<title>Node32&#45;&gt;Node26</title>
<path fill="none" stroke="#191970" d="M1191.0898,-224.2455C1180.5016,-215.8943 1165.0507,-203.7076 1152.6677,-193.9408"/>
<polygon fill="#191970" stroke="#191970" points="1154.7018,-191.0875 1144.6826,-187.6427 1150.3668,-196.5837 1154.7018,-191.0875"/>
</g>
<!-- Node33&#45;&gt;Node16 -->
<g id="edge76" class="edge">
<title>Node33&#45;&gt;Node16</title>
<path fill="none" stroke="#191970" d="M1325.3246,-392.4393C1399.9483,-375.2313 1541.4571,-336.4731 1541.4571,-290 1541.4571,-290 1541.4571,-290 1541.4571,-178 1541.4571,-147.4754 1545.7544,-131.7227 1522.4571,-112 1497.8101,-91.1348 1300.3284,-76.424 1192.3694,-69.8544"/>
<polygon fill="#191970" stroke="#191970" points="1192.4019,-66.3501 1182.21,-69.2441 1191.9821,-73.3375 1192.4019,-66.3501"/>
</g>
<!-- Node33&#45;&gt;Node27 -->
<g id="edge79" class="edge">
<title>Node33&#45;&gt;Node27</title>
<path fill="none" stroke="#191970" d="M1295.1278,-392.1718C1307.3353,-383.5472 1324.7146,-370.1939 1337.4571,-356 1401.5346,-284.6234 1455.641,-182.3442 1476.388,-140.706"/>
<polygon fill="#191970" stroke="#191970" points="1479.5478,-142.212 1480.8265,-131.6946 1473.2681,-139.119 1479.5478,-142.212"/>
</g>
<!-- Node33&#45;&gt;Node30 -->
<g id="edge78" class="edge">
<title>Node33&#45;&gt;Node30</title>
<path fill="none" stroke="#191970" d="M1288.5733,-392.1295C1311.9148,-363.076 1379.2222,-274.4631 1405.4571,-188 1409.9942,-173.0469 1410.8371,-155.3349 1410.6318,-142.0259"/>
<polygon fill="#191970" stroke="#191970" points="1414.1151,-141.5074 1410.2479,-131.6436 1407.1199,-141.7661 1414.1151,-141.5074"/>
</g>
<!-- Node33&#45;&gt;Node32 -->
<g id="edge77" class="edge">
<title>Node33&#45;&gt;Node32</title>
<path fill="none" stroke="#191970" d="M1276.0966,-392.4862C1263.8193,-365.6994 1228.7829,-289.2565 1212.2703,-253.2289"/>
<polygon fill="#191970" stroke="#191970" points="1215.3098,-251.4602 1207.9615,-243.8279 1208.9464,-254.3769 1215.3098,-251.4602"/>
</g>
<!-- Node34 -->
<g id="node35" class="node">
<title>Node34</title>
<g id="a_node35"><a xlink:href="Position_8h.html" target="_top" xlink:title="Position.h">
<polygon fill="none" stroke="#000000" points="707.9571,-336.5 707.9571,-355.5 772.9571,-355.5 772.9571,-336.5 707.9571,-336.5"/>
<text text-anchor="middle" x="740.4571" y="-343.5" font-family="FreeSans.ttf" font-size="10.00" fill="#000000">Position.h</text>
</a>
</g>
</g>
<!-- Node33&#45;&gt;Node34 -->
<g id="edge63" class="edge">
<title>Node33&#45;&gt;Node34</title>
<path fill="none" stroke="#191970" d="M1199.9053,-393.6465C1083.8095,-381.6069 873.5127,-359.7984 783.3666,-350.4499"/>
<polygon fill="#191970" stroke="#191970" points="783.545,-346.9497 773.2373,-349.3994 782.8229,-353.9124 783.545,-346.9497"/>
</g>
<!-- Node36 -->
<g id="node37" class="node">
<title>Node36</title>
<g id="a_node37"><a xlink:href="Rotation_8h.html" target="_top" xlink:title="iDynTree/Core/Rotation.h">
<polygon fill="none" stroke="#000000" points="879.9571,-280.5 879.9571,-299.5 1016.9571,-299.5 1016.9571,-280.5 879.9571,-280.5"/>
<text text-anchor="middle" x="948.4571" y="-287.5" font-family="FreeSans.ttf" font-size="10.00" fill="#000000">iDynTree/Core/Rotation.h</text>
</a>
</g>
</g>
<!-- Node33&#45;&gt;Node36 -->
<g id="edge75" class="edge">
<title>Node33&#45;&gt;Node36</title>
<path fill="none" stroke="#191970" d="M1252.1509,-392.4509C1192.4895,-372.3242 1053.7968,-325.5363 986.4748,-302.8253"/>
<polygon fill="#191970" stroke="#191970" points="987.2857,-299.4051 976.6915,-299.5249 985.0481,-306.0378 987.2857,-299.4051"/>
</g>
<!-- Node34&#45;&gt;Node13 -->
<g id="edge74" class="edge">
<title>Node34&#45;&gt;Node13</title>
<path fill="none" stroke="#191970" d="M718.3456,-336.4002C687.5278,-321.6466 632.9199,-290.1766 610.4571,-244 606.5687,-236.0067 607.2457,-232.2885 610.4571,-224 612.4763,-218.7884 660.9539,-166.991 687.0962,-139.283"/>
<polygon fill="#191970" stroke="#191970" points="689.7955,-141.5225 694.1189,-131.8498 684.7072,-136.7152 689.7955,-141.5225"/>
</g>
<!-- Node35 -->
<g id="node36" class="node">
<title>Node35</title>
<g id="a_node36"><a xlink:href="PositionRaw_8h.html" target="_top" xlink:title="iDynTree/Core/PositionRaw.h">
<polygon fill="none" stroke="#000000" points="619.4571,-224.5 619.4571,-243.5 775.4571,-243.5 775.4571,-224.5 619.4571,-224.5"/>
<text text-anchor="middle" x="697.4571" y="-231.5" font-family="FreeSans.ttf" font-size="10.00" fill="#000000">iDynTree/Core/PositionRaw.h</text>
</a>
</g>
</g>
<!-- Node34&#45;&gt;Node35 -->
<g id="edge64" class="edge">
<title>Node34&#45;&gt;Node35</title>
<path fill="none" stroke="#191970" d="M736.7909,-336.4509C729.7142,-318.0186 714.0525,-277.2254 704.7682,-253.043"/>
<polygon fill="#191970" stroke="#191970" points="707.9657,-251.606 701.1139,-243.5249 701.4307,-254.115 707.9657,-251.606"/>
</g>
<!-- Node34&#45;&gt;Node36 -->
<g id="edge67" class="edge">
<title>Node34&#45;&gt;Node36</title>
<path fill="none" stroke="#191970" d="M773.4153,-337.1266C808.4009,-327.7074 863.9323,-312.7567 903.0491,-302.2252"/>
<polygon fill="#191970" stroke="#191970" points="904.1206,-305.5615 912.8668,-299.582 902.3007,-298.8021 904.1206,-305.5615"/>
</g>
<!-- Node35&#45;&gt;Node13 -->
<g id="edge66" class="edge">
<title>Node35&#45;&gt;Node13</title>
<path fill="none" stroke="#191970" d="M697.9686,-224.4509C698.9472,-206.184 701.1023,-165.9553 702.4018,-141.6976"/>
<polygon fill="#191970" stroke="#191970" points="705.9067,-141.6978 702.9468,-131.5249 698.9168,-141.3233 705.9067,-141.6978"/>
</g>
<!-- Node35&#45;&gt;Node26 -->
<g id="edge65" class="edge">
<title>Node35&#45;&gt;Node26</title>
<path fill="none" stroke="#191970" d="M771.742,-224.4369C848.5349,-214.5509 968.2054,-199.145 1048.4105,-188.8198"/>
<polygon fill="#191970" stroke="#191970" points="1049.0073,-192.2719 1058.4785,-187.5237 1048.1135,-185.3292 1049.0073,-192.2719"/>
</g>
<!-- Node36&#45;&gt;Node13 -->
<g id="edge68" class="edge">
<title>Node36&#45;&gt;Node13</title>
<path fill="none" stroke="#191970" d="M927.6018,-280.4064C909.3918,-271.7261 882.5018,-258.1652 860.4571,-244 807.5944,-210.0322 750.5287,-162.6867 721.9648,-138.1626"/>
<polygon fill="#191970" stroke="#191970" points="724.2259,-135.4908 714.3706,-131.602 719.6498,-140.7879 724.2259,-135.4908"/>
</g>
<!-- Node36&#45;&gt;Node26 -->
<g id="edge73" class="edge">
<title>Node36&#45;&gt;Node26</title>
<path fill="none" stroke="#191970" d="M968.4033,-280.4335C986.488,-271.5591 1013.7134,-257.6944 1036.4571,-244 1062.9329,-228.0584 1092.0043,-207.6338 1111.1405,-193.7572"/>
<polygon fill="#191970" stroke="#191970" points="1113.4227,-196.4245 1119.435,-187.7008 1109.2948,-190.7712 1113.4227,-196.4245"/>
</g>
<!-- Node36&#45;&gt;Node32 -->
<g id="edge69" class="edge">
<title>Node36&#45;&gt;Node32</title>
<path fill="none" stroke="#191970" d="M992.0034,-280.4369C1035.7363,-270.8328 1103.1915,-256.0191 1150.1113,-245.7152"/>
<polygon fill="#191970" stroke="#191970" points="1151.0739,-249.0872 1160.0903,-243.5237 1149.5723,-242.2502 1151.0739,-249.0872"/>
</g>
<!-- Node37 -->
<g id="node38" class="node">
<title>Node37</title>
<g id="a_node38"><a xlink:href="RotationRaw_8h.html" target="_top" xlink:title="iDynTree/Core/RotationRaw.h">
<polygon fill="none" stroke="#000000" points="869.4571,-224.5 869.4571,-243.5 1027.4571,-243.5 1027.4571,-224.5 869.4571,-224.5"/>
<text text-anchor="middle" x="948.4571" y="-231.5" font-family="FreeSans.ttf" font-size="10.00" fill="#000000">iDynTree/Core/RotationRaw.h</text>
</a>
</g>
</g>
<!-- Node36&#45;&gt;Node37 -->
<g id="edge70" class="edge">
<title>Node36&#45;&gt;Node37</title>
<path fill="none" stroke="#191970" d="M948.4571,-280.2455C948.4571,-272.9382 948.4571,-262.6944 948.4571,-253.7046"/>
<polygon fill="#191970" stroke="#191970" points="951.9572,-253.6426 948.4571,-243.6427 944.9572,-253.6427 951.9572,-253.6426"/>
</g>
<!-- Node37&#45;&gt;Node13 -->
<g id="edge72" class="edge">
<title>Node37&#45;&gt;Node13</title>
<path fill="none" stroke="#191970" d="M929.714,-224.4935C898.585,-208.7395 837.4715,-177.9679 815.4571,-168 788.6012,-155.8399 757.5567,-143.1976 734.9729,-134.2509"/>
<polygon fill="#191970" stroke="#191970" points="736.1307,-130.9453 725.5438,-130.5354 733.5644,-137.4579 736.1307,-130.9453"/>
</g>
<!-- Node37&#45;&gt;Node29 -->
<g id="edge71" class="edge">
<title>Node37&#45;&gt;Node29</title>
<path fill="none" stroke="#191970" d="M1011.3004,-224.4369C1075.7362,-214.6314 1175.8568,-199.3957 1243.6907,-189.0731"/>
<polygon fill="#191970" stroke="#191970" points="1244.5133,-192.4883 1253.8729,-187.5237 1243.4602,-185.568 1244.5133,-192.4883"/>
</g>
<!-- Node38&#45;&gt;Node26 -->
<g id="edge81" class="edge">
<title>Node38&#45;&gt;Node26</title>
<path fill="none" stroke="#191970" d="M1092.9461,-448.3697C1092.0201,-410.1284 1091.7967,-306.758 1112.4571,-224 1114.7964,-214.6296 1118.8625,-204.7446 1122.7202,-196.5497"/>
<polygon fill="#191970" stroke="#191970" points="1125.8812,-198.0534 1127.1922,-187.54 1119.6111,-194.9411 1125.8812,-198.0534"/>
</g>
<!-- Node38&#45;&gt;Node32 -->
<g id="edge82" class="edge">
<title>Node38&#45;&gt;Node32</title>
<path fill="none" stroke="#191970" d="M1100.3743,-448.17C1114.7074,-416.5346 1148.8693,-341.8032 1179.4571,-280 1183.9371,-270.9481 1189.0967,-261.001 1193.4812,-252.6795"/>
<polygon fill="#191970" stroke="#191970" points="1196.5926,-254.2829 1198.185,-243.8084 1190.4082,-251.0037 1196.5926,-254.2829"/>
</g>
<!-- Node38&#45;&gt;Node33 -->
<g id="edge83" class="edge">
<title>Node38&#45;&gt;Node33</title>
<path fill="none" stroke="#191970" d="M1139.2024,-448.4554C1170.6775,-438.104 1212.022,-424.5067 1241.8395,-414.7004"/>
<polygon fill="#191970" stroke="#191970" points="1243.0727,-417.9793 1251.4787,-411.5303 1240.8858,-411.3297 1243.0727,-417.9793"/>
</g>
<!-- Node39&#45;&gt;Node13 -->
<g id="edge88" class="edge">
<title>Node39&#45;&gt;Node13</title>
<path fill="none" stroke="#191970" d="M725.8402,-392.3788C694.4445,-370.5818 621.9901,-313.8571 604.4571,-244 592.8037,-197.5692 643.6556,-157.4625 676.7891,-136.8302"/>
<polygon fill="#191970" stroke="#191970" points="678.8283,-139.6883 685.5979,-131.5382 675.2234,-133.6878 678.8283,-139.6883"/>
</g>
<!-- Node39&#45;&gt;Node29 -->
<g id="edge87" class="edge">
<title>Node39&#45;&gt;Node29</title>
<path fill="none" stroke="#191970" d="M797.8454,-392.4685C924.1755,-370.4315 1220.8692,-312.5622 1293.4571,-244 1306.2507,-231.9159 1311.9303,-212.3408 1314.4504,-197.6409"/>
<polygon fill="#191970" stroke="#191970" points="1317.9424,-197.9363 1315.8271,-187.5548 1311.0068,-196.9896 1317.9424,-197.9363"/>
</g>
<!-- Node39&#45;&gt;Node34 -->
<g id="edge85" class="edge">
<title>Node39&#45;&gt;Node34</title>
<path fill="none" stroke="#191970" d="M740.4571,-392.2455C740.4571,-384.9382 740.4571,-374.6944 740.4571,-365.7046"/>
<polygon fill="#191970" stroke="#191970" points="743.9572,-365.6426 740.4571,-355.6427 736.9572,-365.6427 743.9572,-365.6426"/>
</g>
<!-- Node39&#45;&gt;Node36 -->
<g id="edge86" class="edge">
<title>Node39&#45;&gt;Node36</title>
<path fill="none" stroke="#191970" d="M758.191,-392.4509C794.725,-372.7788 878.561,-327.6363 921.7133,-304.4005"/>
<polygon fill="#191970" stroke="#191970" points="923.6226,-307.3476 930.768,-299.5249 920.3039,-301.1843 923.6226,-307.3476"/>
</g>
</g>
</svg>
