<?xml version="1.0" encoding="UTF-8" standalone="no"?>
<!DOCTYPE svg PUBLIC "-//W3C//DTD SVG 1.1//EN"
 "http://www.w3.org/Graphics/SVG/1.1/DTD/svg11.dtd">
<!-- Generated by graphviz version 2.40.1 (20161225.0304)
 -->
<!-- Title: IpoptInterface.cpp Pages: 1 -->
<svg width="1784pt" height="610pt"
 viewBox="0.00 0.00 1784.00 610.00" xmlns="http://www.w3.org/2000/svg" xmlns:xlink="http://www.w3.org/1999/xlink">
<g id="graph0" class="graph" transform="scale(1 1) rotate(0) translate(4 606)">
<title>IpoptInterface.cpp</title>
<!-- Node0 -->
<g id="node1" class="node">
<title>Node0</title>
<polygon fill="#bfbfbf" stroke="#000000" points="371.5,-582.5 371.5,-601.5 476.5,-601.5 476.5,-582.5 371.5,-582.5"/>
<text text-anchor="middle" x="424" y="-589.5" font-family="FreeSans.ttf" font-size="10.00" fill="#000000">IpoptInterface.cpp</text>
</g>
<!-- Node1 -->
<g id="node2" class="node">
<title>Node1</title>
<polygon fill="none" stroke="#bfbfbf" points="0,-526.5 0,-545.5 70,-545.5 70,-526.5 0,-526.5"/>
<text text-anchor="middle" x="35" y="-533.5" font-family="FreeSans.ttf" font-size="10.00" fill="#000000">IpTNLP.hpp</text>
</g>
<!-- Node0&#45;&gt;Node1 -->
<g id="edge1" class="edge">
<title>Node0&#45;&gt;Node1</title>
<path fill="none" stroke="#191970" d="M371.4582,-586.499C305.6074,-579.2705 189.1116,-565.382 79.875,-546.0252"/>
<polygon fill="#191970" stroke="#191970" points="80.4662,-542.5755 70.0057,-544.2577 79.2321,-549.4658 80.4662,-542.5755"/>
</g>
<!-- Node2 -->
<g id="node3" class="node">
<title>Node2</title>
<polygon fill="none" stroke="#bfbfbf" points="88,-526.5 88,-545.5 214,-545.5 214,-526.5 88,-526.5"/>
<text text-anchor="middle" x="151" y="-533.5" font-family="FreeSans.ttf" font-size="10.00" fill="#000000">IpIpoptApplication.hpp</text>
</g>
<!-- Node0&#45;&gt;Node2 -->
<g id="edge2" class="edge">
<title>Node0&#45;&gt;Node2</title>
<path fill="none" stroke="#191970" d="M377.3798,-582.4369C330.3635,-572.7925 257.7371,-557.8948 207.4807,-547.5858"/>
<polygon fill="#191970" stroke="#191970" points="207.9273,-544.1046 197.4279,-545.5237 206.5206,-550.9618 207.9273,-544.1046"/>
</g>
<!-- Node3 -->
<g id="node4" class="node">
<title>Node3</title>
<polygon fill="none" stroke="#bfbfbf" points="419.5,-465 419.5,-484 496.5,-484 496.5,-465 419.5,-465"/>
<text text-anchor="middle" x="458" y="-472" font-family="FreeSans.ttf" font-size="10.00" fill="#000000">Eigen/Dense</text>
</g>
<!-- Node0&#45;&gt;Node3 -->
<g id="edge3" class="edge">
<title>Node0&#45;&gt;Node3</title>
<path fill="none" stroke="#191970" d="M426.7824,-582.3845C432.361,-563.1053 445.0087,-519.3963 452.3794,-493.9241"/>
<polygon fill="#191970" stroke="#191970" points="455.7616,-494.8272 455.1792,-484.2484 449.0375,-492.8814 455.7616,-494.8272"/>
</g>
<!-- Node4 -->
<g id="node5" class="node">
<title>Node4</title>
<g id="a_node5"><a xlink:href="EigenHelpers_8h.html" target="_top" xlink:title="iDynTree/Core/EigenHelpers.h">
<polygon fill="none" stroke="#000000" points="623.5,-526.5 623.5,-545.5 784.5,-545.5 784.5,-526.5 623.5,-526.5"/>
<text text-anchor="middle" x="704" y="-533.5" font-family="FreeSans.ttf" font-size="10.00" fill="#000000">iDynTree/Core/EigenHelpers.h</text>
</a>
</g>
</g>
<!-- Node0&#45;&gt;Node4 -->
<g id="edge4" class="edge">
<title>Node0&#45;&gt;Node4</title>
<path fill="none" stroke="#191970" d="M471.8156,-582.4369C520.1381,-572.7724 594.8372,-557.8326 646.3936,-547.5213"/>
<polygon fill="#191970" stroke="#191970" points="647.2623,-550.9169 656.3816,-545.5237 645.8894,-544.0529 647.2623,-550.9169"/>
</g>
<!-- Node6 -->
<g id="node7" class="node">
<title>Node6</title>
<g id="a_node7"><a xlink:href="VectorDynSize_8h.html" target="_top" xlink:title="iDynTree/Core/VectorDynSize.h">
<polygon fill="none" stroke="#000000" points="269.5,-347.5 269.5,-366.5 436.5,-366.5 436.5,-347.5 269.5,-347.5"/>
<text text-anchor="middle" x="353" y="-354.5" font-family="FreeSans.ttf" font-size="10.00" fill="#000000">iDynTree/Core/VectorDynSize.h</text>
</a>
</g>
</g>
<!-- Node0&#45;&gt;Node6 -->
<g id="edge76" class="edge">
<title>Node0&#45;&gt;Node6</title>
<path fill="none" stroke="#191970" d="M409.9784,-582.4264C399.0541,-574.1423 384.5204,-561.1322 377,-546 348.9731,-489.6056 349.3598,-412.5535 351.3987,-376.7646"/>
<polygon fill="#191970" stroke="#191970" points="354.8983,-376.8877 352.0848,-366.6733 347.9145,-376.4128 354.8983,-376.8877"/>
</g>
<!-- Node8 -->
<g id="node9" class="node">
<title>Node8</title>
<polygon fill="none" stroke="#bfbfbf" points="677,-.5 677,-19.5 729,-19.5 729,-.5 677,-.5"/>
<text text-anchor="middle" x="703" y="-7.5" font-family="FreeSans.ttf" font-size="10.00" fill="#000000">cassert</text>
</g>
<!-- Node0&#45;&gt;Node8 -->
<g id="edge88" class="edge">
<title>Node0&#45;&gt;Node8</title>
<path fill="none" stroke="#191970" d="M374.7482,-582.4135C320.8481,-568.726 242,-537.8729 242,-474.5 242,-474.5 242,-474.5 242,-413 242,-337.8383 245.3173,-193.3673 331,-112 379.4623,-65.9785 412.7134,-94.2701 477,-76 504.8509,-68.0848 511.2726,-64.3375 539,-56 593.1081,-39.73 609.1128,-36.4861 666.9737,-20.2705"/>
<polygon fill="#191970" stroke="#191970" points="667.9537,-23.6307 676.6317,-17.5526 666.0574,-16.8924 667.9537,-23.6307"/>
</g>
<!-- Node18 -->
<g id="node19" class="node">
<title>Node18</title>
<g id="a_node19"><a xlink:href="Utils_8h.html" target="_top" xlink:title="iDynTree/Core/Utils.h">
<polygon fill="none" stroke="#000000" points="1354.5,-56.5 1354.5,-75.5 1473.5,-75.5 1473.5,-56.5 1354.5,-56.5"/>
<text text-anchor="middle" x="1414" y="-63.5" font-family="FreeSans.ttf" font-size="10.00" fill="#000000">iDynTree/Core/Utils.h</text>
</a>
</g>
</g>
<!-- Node0&#45;&gt;Node18 -->
<g id="edge87" class="edge">
<title>Node0&#45;&gt;Node18</title>
<path fill="none" stroke="#191970" d="M476.6731,-589.086C670.0673,-578.0476 1334.0176,-537.0383 1416,-490 1474.673,-456.3357 1490,-424.6447 1490,-357 1490,-357 1490,-357 1490,-183.5 1490,-141.9563 1456.0901,-103.486 1433.5719,-82.5193"/>
<polygon fill="#191970" stroke="#191970" points="1435.6556,-79.6865 1425.875,-75.6133 1430.9808,-84.8968 1435.6556,-79.6865"/>
</g>
<!-- Node22 -->
<g id="node23" class="node">
<title>Node22</title>
<g id="a_node23"><a xlink:href="MatrixDynSize_8h.html" target="_top" xlink:title="iDynTree/Core/MatrixDynSize.h">
<polygon fill="none" stroke="#000000" points="345.5,-291.5 345.5,-310.5 512.5,-310.5 512.5,-291.5 345.5,-291.5"/>
<text text-anchor="middle" x="429" y="-298.5" font-family="FreeSans.ttf" font-size="10.00" fill="#000000">iDynTree/Core/MatrixDynSize.h</text>
</a>
</g>
</g>
<!-- Node0&#45;&gt;Node22 -->
<g id="edge77" class="edge">
<title>Node0&#45;&gt;Node22</title>
<path fill="none" stroke="#191970" d="M422.251,-582.4823C419.0444,-564.4945 412.3388,-524.239 410,-490 409.0611,-476.2543 407.5095,-472.5508 410,-459 417.9081,-415.9728 437.0919,-410.0272 445,-367 447.9261,-351.0791 443.1115,-333.2515 438.0173,-320.1419"/>
<polygon fill="#191970" stroke="#191970" points="441.16,-318.5889 434.0146,-310.7663 434.7222,-321.3374 441.16,-318.5889"/>
</g>
<!-- Node35 -->
<g id="node36" class="node">
<title>Node35</title>
<g id="a_node36"><a xlink:href="IpoptInterface_8h.html" target="_top" xlink:title="iDynTree/Optimizers\l/IpoptInterface.h">
<polygon fill="none" stroke="#000000" points="1564,-168.5 1564,-198.5 1680,-198.5 1680,-168.5 1564,-168.5"/>
<text text-anchor="start" x="1572" y="-186.5" font-family="FreeSans.ttf" font-size="10.00" fill="#000000">iDynTree/Optimizers</text>
<text text-anchor="middle" x="1622" y="-175.5" font-family="FreeSans.ttf" font-size="10.00" fill="#000000">/IpoptInterface.h</text>
</a>
</g>
</g>
<!-- Node0&#45;&gt;Node35 -->
<g id="edge78" class="edge">
<title>Node0&#45;&gt;Node35</title>
<path fill="none" stroke="#191970" d="M476.7326,-591.4824C692.5286,-589.1537 1498.9641,-578.3129 1542,-546 1568.8054,-525.8735 1566,-508.0202 1566,-474.5 1566,-474.5 1566,-474.5 1566,-301 1566,-265.6894 1586.8637,-229.7082 1603.1215,-207.0306"/>
<polygon fill="#191970" stroke="#191970" points="1606.1318,-208.8479 1609.2927,-198.7356 1600.5156,-204.6696 1606.1318,-208.8479"/>
</g>
<!-- Node40 -->
<g id="node41" class="node">
<title>Node40</title>
<polygon fill="none" stroke="#bfbfbf" points="1594.5,-526.5 1594.5,-545.5 1651.5,-545.5 1651.5,-526.5 1594.5,-526.5"/>
<text text-anchor="middle" x="1623" y="-533.5" font-family="FreeSans.ttf" font-size="10.00" fill="#000000">ostream</text>
</g>
<!-- Node0&#45;&gt;Node40 -->
<g id="edge89" class="edge">
<title>Node0&#45;&gt;Node40</title>
<path fill="none" stroke="#191970" d="M476.8118,-591.2224C673.3697,-588.1223 1362.4144,-575.3619 1580,-546 1581.4717,-545.8014 1582.9669,-545.5756 1584.4736,-545.3278"/>
<polygon fill="#191970" stroke="#191970" points="1585.2878,-548.7358 1594.4582,-543.4296 1583.9804,-541.859 1585.2878,-548.7358"/>
</g>
<!-- Node4&#45;&gt;Node3 -->
<g id="edge6" class="edge">
<title>Node4&#45;&gt;Node3</title>
<path fill="none" stroke="#191970" d="M661.2987,-526.4744C622.0869,-517.5729 562.4399,-503.6427 511,-490 507.1993,-488.992 503.256,-487.9091 499.3133,-486.8012"/>
<polygon fill="#191970" stroke="#191970" points="500.1727,-483.4067 489.5958,-484.0242 498.2492,-490.1373 500.1727,-483.4067"/>
</g>
<!-- Node5 -->
<g id="node6" class="node">
<title>Node5</title>
<polygon fill="none" stroke="#bfbfbf" points="1430.5,-.5 1430.5,-19.5 1483.5,-19.5 1483.5,-.5 1430.5,-.5"/>
<text text-anchor="middle" x="1457" y="-7.5" font-family="FreeSans.ttf" font-size="10.00" fill="#000000">cstddef</text>
</g>
<!-- Node4&#45;&gt;Node5 -->
<g id="edge5" class="edge">
<title>Node4&#45;&gt;Node5</title>
<path fill="none" stroke="#191970" d="M784.6774,-534.3372C959.2586,-530.2304 1360.8554,-517.8529 1416,-490 1484.9789,-455.1595 1528,-434.2784 1528,-357 1528,-357 1528,-357 1528,-183.5 1528,-122.7406 1490.242,-58.3308 1469.7959,-27.9067"/>
<polygon fill="#191970" stroke="#191970" points="1472.625,-25.8439 1464.0673,-19.5975 1466.8619,-29.8171 1472.625,-25.8439"/>
</g>
<!-- Node4&#45;&gt;Node6 -->
<g id="edge7" class="edge">
<title>Node4&#45;&gt;Node6</title>
<path fill="none" stroke="#191970" d="M657.7835,-526.4543C626.1785,-518.9361 583.8609,-506.8884 549,-490 527.4716,-479.5705 524.7109,-472.5546 505,-459 459.6739,-427.8307 406.1514,-392.1796 376.2384,-372.3572"/>
<polygon fill="#191970" stroke="#191970" points="378.0186,-369.3383 367.7483,-366.7361 374.1542,-375.175 378.0186,-369.3383"/>
</g>
<!-- Node17 -->
<g id="node18" class="node">
<title>Node17</title>
<g id="a_node18"><a xlink:href="VectorFixSize_8h.html" target="_top" xlink:title="iDynTree/Core/VectorFixSize.h">
<polygon fill="none" stroke="#000000" points="1213.5,-174 1213.5,-193 1374.5,-193 1374.5,-174 1213.5,-174"/>
<text text-anchor="middle" x="1294" y="-181" font-family="FreeSans.ttf" font-size="10.00" fill="#000000">iDynTree/Core/VectorFixSize.h</text>
</a>
</g>
</g>
<!-- Node4&#45;&gt;Node17 -->
<g id="edge19" class="edge">
<title>Node4&#45;&gt;Node17</title>
<path fill="none" stroke="#191970" d="M784.7609,-534.879C946.7374,-531.9596 1299.6279,-521.9693 1344,-490 1374.0685,-468.3362 1376,-450.0598 1376,-413 1376,-413 1376,-413 1376,-301 1376,-258.4986 1339.4749,-220.3906 1315.1787,-199.743"/>
<polygon fill="#191970" stroke="#191970" points="1317.1293,-196.8165 1307.1747,-193.1892 1312.6946,-202.2326 1317.1293,-196.8165"/>
</g>
<!-- Node4&#45;&gt;Node18 -->
<g id="edge75" class="edge">
<title>Node4&#45;&gt;Node18</title>
<path fill="none" stroke="#191970" d="M784.8013,-533.5272C950.9027,-527.9971 1319.5669,-513.2596 1372,-490 1417.11,-469.989 1452,-462.3493 1452,-413 1452,-413 1452,-413 1452,-183.5 1452,-147.2454 1435.4195,-107.6181 1424.163,-84.8929"/>
<polygon fill="#191970" stroke="#191970" points="1427.1292,-83.0073 1419.4445,-75.7137 1420.9035,-86.2076 1427.1292,-83.0073"/>
</g>
<!-- Node4&#45;&gt;Node22 -->
<g id="edge29" class="edge">
<title>Node4&#45;&gt;Node22</title>
<path fill="none" stroke="#191970" d="M681.2376,-526.4985C643.9423,-510.0181 569.1607,-473.0411 521,-423 494.088,-395.0372 501.976,-377.5176 478,-347 469.5256,-336.2134 458.5009,-325.6328 449.0554,-317.3439"/>
<polygon fill="#191970" stroke="#191970" points="451.1457,-314.5266 441.2652,-310.702 446.6041,-319.8534 451.1457,-314.5266"/>
</g>
<!-- Node24 -->
<g id="node25" class="node">
<title>Node24</title>
<g id="a_node25"><a xlink:href="MatrixFixSize_8h.html" target="_top" xlink:title="iDynTree/Core/MatrixFixSize.h">
<polygon fill="none" stroke="#000000" points="644.5,-174 644.5,-193 805.5,-193 805.5,-174 644.5,-174"/>
<text text-anchor="middle" x="725" y="-181" font-family="FreeSans.ttf" font-size="10.00" fill="#000000">iDynTree/Core/MatrixFixSize.h</text>
</a>
</g>
</g>
<!-- Node4&#45;&gt;Node24 -->
<g id="edge36" class="edge">
<title>Node4&#45;&gt;Node24</title>
<path fill="none" stroke="#191970" d="M703.222,-526.2061C701.3259,-504.0304 695.8097,-448.3797 685,-403 666.948,-327.217 595.9184,-302.3911 635,-235 645.3823,-217.0971 664.5894,-204.8878 682.6017,-196.8689"/>
<polygon fill="#191970" stroke="#191970" points="683.9498,-200.099 691.859,-193.0495 681.28,-193.6281 683.9498,-200.099"/>
</g>
<!-- Node26 -->
<g id="node27" class="node">
<title>Node26</title>
<g id="a_node27"><a xlink:href="SpatialMotionVector_8h.html" target="_top" xlink:title="iDynTree/Core/SpatialMotion\lVector.h">
<polygon fill="none" stroke="#000000" points="987.5,-459.5 987.5,-489.5 1142.5,-489.5 1142.5,-459.5 987.5,-459.5"/>
<text text-anchor="start" x="995.5" y="-477.5" font-family="FreeSans.ttf" font-size="10.00" fill="#000000">iDynTree/Core/SpatialMotion</text>
<text text-anchor="middle" x="1065" y="-466.5" font-family="FreeSans.ttf" font-size="10.00" fill="#000000">Vector.h</text>
</a>
</g>
</g>
<!-- Node4&#45;&gt;Node26 -->
<g id="edge44" class="edge">
<title>Node4&#45;&gt;Node26</title>
<path fill="none" stroke="#191970" d="M760.0102,-526.4581C818.0291,-516.574 909.5063,-500.9899 977.1574,-489.4649"/>
<polygon fill="#191970" stroke="#191970" points="978.1096,-492.8532 987.3798,-487.7234 976.934,-485.9526 978.1096,-492.8532"/>
</g>
<!-- Node33 -->
<g id="node34" class="node">
<title>Node33</title>
<g id="a_node34"><a xlink:href="SpatialForceVector_8h.html" target="_top" xlink:title="iDynTree/Core/SpatialForce\lVector.h">
<polygon fill="none" stroke="#000000" points="1187,-459.5 1187,-489.5 1335,-489.5 1335,-459.5 1187,-459.5"/>
<text text-anchor="start" x="1195" y="-477.5" font-family="FreeSans.ttf" font-size="10.00" fill="#000000">iDynTree/Core/SpatialForce</text>
<text text-anchor="middle" x="1261" y="-466.5" font-family="FreeSans.ttf" font-size="10.00" fill="#000000">Vector.h</text>
</a>
</g>
</g>
<!-- Node4&#45;&gt;Node33 -->
<g id="edge66" class="edge">
<title>Node4&#45;&gt;Node33</title>
<path fill="none" stroke="#191970" d="M784.8537,-528.5977C874.465,-520.1798 1023.2222,-505.5717 1151,-490 1159.3248,-488.9855 1167.9952,-487.8684 1176.6537,-486.7129"/>
<polygon fill="#191970" stroke="#191970" points="1177.3502,-490.1507 1186.7912,-485.3426 1176.4124,-483.2138 1177.3502,-490.1507"/>
</g>
<!-- Node34 -->
<g id="node35" class="node">
<title>Node34</title>
<g id="a_node35"><a xlink:href="Transform_8h.html" target="_top" xlink:title="iDynTree/Core/Transform.h">
<polygon fill="none" stroke="#000000" points="530,-403.5 530,-422.5 676,-422.5 676,-403.5 530,-403.5"/>
<text text-anchor="middle" x="603" y="-410.5" font-family="FreeSans.ttf" font-size="10.00" fill="#000000">iDynTree/Core/Transform.h</text>
</a>
</g>
</g>
<!-- Node4&#45;&gt;Node34 -->
<g id="edge70" class="edge">
<title>Node4&#45;&gt;Node34</title>
<path fill="none" stroke="#191970" d="M696.0747,-526.3484C679.1118,-505.6906 639.0777,-456.9362 617.4555,-430.6042"/>
<polygon fill="#191970" stroke="#191970" points="619.9395,-428.114 610.8885,-422.6068 614.5296,-432.5563 619.9395,-428.114"/>
</g>
<!-- Node7 -->
<g id="node8" class="node">
<title>Node7</title>
<g id="a_node8"><a xlink:href="Span_8h.html" target="_top" xlink:title="iDynTree/Core/Span.h">
<polygon fill="none" stroke="#000000" points="347.5,-56.5 347.5,-75.5 468.5,-75.5 468.5,-56.5 347.5,-56.5"/>
<text text-anchor="middle" x="408" y="-63.5" font-family="FreeSans.ttf" font-size="10.00" fill="#000000">iDynTree/Core/Span.h</text>
</a>
</g>
</g>
<!-- Node6&#45;&gt;Node7 -->
<g id="edge8" class="edge">
<title>Node6&#45;&gt;Node7</title>
<path fill="none" stroke="#191970" d="M331.8605,-347.4901C299.6548,-331.3882 242,-295.5089 242,-245 242,-245 242,-245 242,-183.5 242,-148.5009 249.0527,-135.4878 275,-112 293.0681,-95.6445 317.2486,-85.0508 340.035,-78.212"/>
<polygon fill="#191970" stroke="#191970" points="341.0089,-81.5739 349.6933,-75.5051 339.1198,-74.8337 341.0089,-81.5739"/>
</g>
<!-- Node16 -->
<g id="node17" class="node">
<title>Node16</title>
<polygon fill="none" stroke="#bfbfbf" points="526,-112.5 526,-131.5 570,-131.5 570,-112.5 526,-112.5"/>
<text text-anchor="middle" x="548" y="-119.5" font-family="FreeSans.ttf" font-size="10.00" fill="#000000">string</text>
</g>
<!-- Node6&#45;&gt;Node16 -->
<g id="edge18" class="edge">
<title>Node6&#45;&gt;Node16</title>
<path fill="none" stroke="#191970" d="M347.0869,-347.4665C339.832,-334.5135 329.2749,-310.7091 336,-291 358.3063,-225.6273 375.7564,-209.4645 431,-168 456.6215,-148.7692 491.3242,-136.4688 516.2721,-129.4734"/>
<polygon fill="#191970" stroke="#191970" points="517.2215,-132.8426 525.9792,-126.8799 515.4146,-126.0798 517.2215,-132.8426"/>
</g>
<!-- Node7&#45;&gt;Node5 -->
<g id="edge12" class="edge">
<title>Node7&#45;&gt;Node5</title>
<path fill="none" stroke="#191970" d="M468.8015,-65.0362C655.0591,-61.8054 1216.8802,-49.9174 1420.4135,-19.6544"/>
<polygon fill="#191970" stroke="#191970" points="1421.0652,-23.0952 1430.4117,-18.1059 1419.9938,-16.1777 1421.0652,-23.0952"/>
</g>
<!-- Node7&#45;&gt;Node8 -->
<g id="edge9" class="edge">
<title>Node7&#45;&gt;Node8</title>
<path fill="none" stroke="#191970" d="M468.5119,-57.1065C519.1617,-49.2505 593.4953,-36.7658 666.8325,-20.0986"/>
<polygon fill="#191970" stroke="#191970" points="667.7414,-23.481 676.7024,-17.8284 666.1723,-16.6591 667.7414,-23.481"/>
</g>
<!-- Node9 -->
<g id="node10" class="node">
<title>Node9</title>
<polygon fill="none" stroke="#bfbfbf" points="595,-.5 595,-19.5 659,-19.5 659,-.5 595,-.5"/>
<text text-anchor="middle" x="627" y="-7.5" font-family="FreeSans.ttf" font-size="10.00" fill="#000000">algorithm</text>
</g>
<!-- Node7&#45;&gt;Node9 -->
<g id="edge10" class="edge">
<title>Node7&#45;&gt;Node9</title>
<path fill="none" stroke="#191970" d="M445.6474,-56.3733C484.4304,-46.4561 544.7439,-31.0335 585.0379,-20.73"/>
<polygon fill="#191970" stroke="#191970" points="586.0043,-24.0956 594.8255,-18.2273 584.2701,-17.3138 586.0043,-24.0956"/>
</g>
<!-- Node10 -->
<g id="node11" class="node">
<title>Node10</title>
<polygon fill="none" stroke="#bfbfbf" points="254,-.5 254,-19.5 296,-19.5 296,-.5 254,-.5"/>
<text text-anchor="middle" x="275" y="-7.5" font-family="FreeSans.ttf" font-size="10.00" fill="#000000">array</text>
</g>
<!-- Node7&#45;&gt;Node10 -->
<g id="edge11" class="edge">
<title>Node7&#45;&gt;Node10</title>
<path fill="none" stroke="#191970" d="M385.1365,-56.3733C363.2034,-47.1383 329.9316,-33.1291 305.6976,-22.9253"/>
<polygon fill="#191970" stroke="#191970" points="306.8235,-19.6018 296.2489,-18.9469 304.1071,-26.0533 306.8235,-19.6018"/>
</g>
<!-- Node11 -->
<g id="node12" class="node">
<title>Node11</title>
<polygon fill="none" stroke="#bfbfbf" points="314.5,-.5 314.5,-19.5 367.5,-19.5 367.5,-.5 314.5,-.5"/>
<text text-anchor="middle" x="341" y="-7.5" font-family="FreeSans.ttf" font-size="10.00" fill="#000000">iterator</text>
</g>
<!-- Node7&#45;&gt;Node11 -->
<g id="edge13" class="edge">
<title>Node7&#45;&gt;Node11</title>
<path fill="none" stroke="#191970" d="M396.3295,-56.2455C386.4339,-47.9746 372.0373,-35.9416 360.4099,-26.2232"/>
<polygon fill="#191970" stroke="#191970" points="362.4542,-23.3703 352.5368,-19.6427 357.965,-28.7413 362.4542,-23.3703"/>
</g>
<!-- Node12 -->
<g id="node13" class="node">
<title>Node12</title>
<polygon fill="none" stroke="#bfbfbf" points="386,-.5 386,-19.5 430,-19.5 430,-.5 386,-.5"/>
<text text-anchor="middle" x="408" y="-7.5" font-family="FreeSans.ttf" font-size="10.00" fill="#000000">limits</text>
</g>
<!-- Node7&#45;&gt;Node12 -->
<g id="edge14" class="edge">
<title>Node7&#45;&gt;Node12</title>
<path fill="none" stroke="#191970" d="M408,-56.2455C408,-48.9382 408,-38.6944 408,-29.7046"/>
<polygon fill="#191970" stroke="#191970" points="411.5001,-29.6426 408,-19.6427 404.5001,-29.6427 411.5001,-29.6426"/>
</g>
<!-- Node13 -->
<g id="node14" class="node">
<title>Node13</title>
<polygon fill="none" stroke="#bfbfbf" points="448.5,-.5 448.5,-19.5 513.5,-19.5 513.5,-.5 448.5,-.5"/>
<text text-anchor="middle" x="481" y="-7.5" font-family="FreeSans.ttf" font-size="10.00" fill="#000000">stdexcept</text>
</g>
<!-- Node7&#45;&gt;Node13 -->
<g id="edge15" class="edge">
<title>Node7&#45;&gt;Node13</title>
<path fill="none" stroke="#191970" d="M420.7156,-56.2455C431.602,-47.8943 447.4883,-35.7076 460.22,-25.9408"/>
<polygon fill="#191970" stroke="#191970" points="462.6261,-28.5063 468.4301,-19.6427 458.3654,-22.9523 462.6261,-28.5063"/>
</g>
<!-- Node14 -->
<g id="node15" class="node">
<title>Node14</title>
<polygon fill="none" stroke="#bfbfbf" points="166.5,-.5 166.5,-19.5 235.5,-19.5 235.5,-.5 166.5,-.5"/>
<text text-anchor="middle" x="201" y="-7.5" font-family="FreeSans.ttf" font-size="10.00" fill="#000000">type_traits</text>
</g>
<!-- Node7&#45;&gt;Node14 -->
<g id="edge16" class="edge">
<title>Node7&#45;&gt;Node14</title>
<path fill="none" stroke="#191970" d="M372.4154,-56.3733C337.2923,-46.8714 283.4869,-32.3153 245.5432,-22.0503"/>
<polygon fill="#191970" stroke="#191970" points="246.3427,-18.6409 235.7757,-19.4079 244.5147,-25.398 246.3427,-18.6409"/>
</g>
<!-- Node15 -->
<g id="node16" class="node">
<title>Node15</title>
<polygon fill="none" stroke="#bfbfbf" points="531.5,-.5 531.5,-19.5 576.5,-19.5 576.5,-.5 531.5,-.5"/>
<text text-anchor="middle" x="554" y="-7.5" font-family="FreeSans.ttf" font-size="10.00" fill="#000000">utility</text>
</g>
<!-- Node7&#45;&gt;Node15 -->
<g id="edge17" class="edge">
<title>Node7&#45;&gt;Node15</title>
<path fill="none" stroke="#191970" d="M433.0983,-56.3733C457.5338,-47.0007 494.7899,-32.7107 521.4838,-22.472"/>
<polygon fill="#191970" stroke="#191970" points="523.0653,-25.614 531.1486,-18.7649 520.5584,-19.0783 523.0653,-25.614"/>
</g>
<!-- Node17&#45;&gt;Node5 -->
<g id="edge27" class="edge">
<title>Node17&#45;&gt;Node5</title>
<path fill="none" stroke="#191970" d="M1295.2727,-173.7887C1298.8268,-150.4068 1310.9364,-90.3785 1345,-56 1356.0511,-44.8468 1392.343,-31.0463 1420.6544,-21.4861"/>
<polygon fill="#191970" stroke="#191970" points="1421.8919,-24.7632 1430.2813,-18.2926 1419.6878,-18.1192 1421.8919,-24.7632"/>
</g>
<!-- Node17&#45;&gt;Node7 -->
<g id="edge23" class="edge">
<title>Node17&#45;&gt;Node7</title>
<path fill="none" stroke="#191970" d="M1288.9482,-173.9222C1279.8394,-157.78 1258.9775,-125.5897 1231,-112 1164.2859,-79.5944 665.9092,-69.5072 478.7475,-66.8423"/>
<polygon fill="#191970" stroke="#191970" points="478.7854,-63.3426 468.7375,-66.7027 478.6877,-70.3419 478.7854,-63.3426"/>
</g>
<!-- Node17&#45;&gt;Node8 -->
<g id="edge26" class="edge">
<title>Node17&#45;&gt;Node8</title>
<path fill="none" stroke="#191970" d="M1292.1759,-173.8685C1288.6804,-158.2354 1279.4877,-127.5266 1259,-112 1176.1144,-49.1852 849.3782,-20.4665 739.3705,-12.442"/>
<polygon fill="#191970" stroke="#191970" points="739.3431,-8.9311 729.1188,-11.7087 738.8436,-15.9133 739.3431,-8.9311"/>
</g>
<!-- Node17&#45;&gt;Node16 -->
<g id="edge24" class="edge">
<title>Node17&#45;&gt;Node16</title>
<path fill="none" stroke="#191970" d="M1213.4561,-176.86C1051.0203,-163.4688 690.2812,-133.7296 580.3939,-124.6705"/>
<polygon fill="#191970" stroke="#191970" points="580.5211,-121.1692 570.2673,-123.8357 579.9459,-128.1456 580.5211,-121.1692"/>
</g>
<!-- Node17&#45;&gt;Node18 -->
<g id="edge20" class="edge">
<title>Node17&#45;&gt;Node18</title>
<path fill="none" stroke="#191970" d="M1303.8201,-173.8845C1324.2127,-153.9167 1371.3688,-107.743 1396.8766,-82.7667"/>
<polygon fill="#191970" stroke="#191970" points="1399.3478,-85.2455 1404.0442,-75.7484 1394.4504,-80.2439 1399.3478,-85.2455"/>
</g>
<!-- Node20 -->
<g id="node21" class="node">
<title>Node20</title>
<polygon fill="none" stroke="#bfbfbf" points="1098,-112.5 1098,-131.5 1154,-131.5 1154,-112.5 1098,-112.5"/>
<text text-anchor="middle" x="1126" y="-119.5" font-family="FreeSans.ttf" font-size="10.00" fill="#000000">sstream</text>
</g>
<!-- Node17&#45;&gt;Node20 -->
<g id="edge25" class="edge">
<title>Node17&#45;&gt;Node20</title>
<path fill="none" stroke="#191970" d="M1267.75,-173.8906C1239.2707,-163.4652 1193.6257,-146.7559 1161.8543,-135.1252"/>
<polygon fill="#191970" stroke="#191970" points="1162.6594,-131.6929 1152.0657,-131.5419 1160.2531,-138.2663 1162.6594,-131.6929"/>
</g>
<!-- Node21 -->
<g id="node22" class="node">
<title>Node21</title>
<polygon fill="none" stroke="#bfbfbf" points="1172,-112.5 1172,-131.5 1222,-131.5 1222,-112.5 1172,-112.5"/>
<text text-anchor="middle" x="1197" y="-119.5" font-family="FreeSans.ttf" font-size="10.00" fill="#000000">cstring</text>
</g>
<!-- Node17&#45;&gt;Node21 -->
<g id="edge28" class="edge">
<title>Node17&#45;&gt;Node21</title>
<path fill="none" stroke="#191970" d="M1278.8438,-173.8906C1263.3257,-164.0519 1238.9807,-148.6167 1220.8716,-137.1351"/>
<polygon fill="#191970" stroke="#191970" points="1222.3696,-133.9407 1212.0498,-131.5419 1218.6213,-139.8526 1222.3696,-133.9407"/>
</g>
<!-- Node18&#45;&gt;Node5 -->
<g id="edge21" class="edge">
<title>Node18&#45;&gt;Node5</title>
<path fill="none" stroke="#191970" d="M1421.49,-56.2455C1427.5326,-48.3761 1436.1903,-37.101 1443.4441,-27.6542"/>
<polygon fill="#191970" stroke="#191970" points="1446.2815,-29.7058 1449.5958,-19.6427 1440.7295,-25.4426 1446.2815,-29.7058"/>
</g>
<!-- Node19 -->
<g id="node20" class="node">
<title>Node19</title>
<polygon fill="none" stroke="#bfbfbf" points="1332,-.5 1332,-19.5 1412,-19.5 1412,-.5 1332,-.5"/>
<text text-anchor="middle" x="1372" y="-7.5" font-family="FreeSans.ttf" font-size="10.00" fill="#000000">CoreExport.h</text>
</g>
<!-- Node18&#45;&gt;Node19 -->
<g id="edge22" class="edge">
<title>Node18&#45;&gt;Node19</title>
<path fill="none" stroke="#191970" d="M1406.6842,-56.2455C1400.7821,-48.3761 1392.3258,-37.101 1385.2406,-27.6542"/>
<polygon fill="#191970" stroke="#191970" points="1388.0321,-25.5427 1379.232,-19.6427 1382.432,-29.7427 1388.0321,-25.5427"/>
</g>
<!-- Node22&#45;&gt;Node16 -->
<g id="edge30" class="edge">
<title>Node22&#45;&gt;Node16</title>
<path fill="none" stroke="#191970" d="M427.7021,-291.4861C425.029,-267.9459 421.3581,-206.1282 450,-168 465.8846,-146.8544 493.9159,-135.0567 515.9413,-128.7193"/>
<polygon fill="#191970" stroke="#191970" points="517.1016,-132.0331 525.8818,-126.1037 515.3203,-125.2636 517.1016,-132.0331"/>
</g>
<!-- Node23 -->
<g id="node24" class="node">
<title>Node23</title>
<g id="a_node24"><a xlink:href="MatrixView_8h.html" target="_top" xlink:title="iDynTree/Core/MatrixView.h">
<polygon fill="none" stroke="#000000" points="340.5,-112.5 340.5,-131.5 491.5,-131.5 491.5,-112.5 340.5,-112.5"/>
<text text-anchor="middle" x="416" y="-119.5" font-family="FreeSans.ttf" font-size="10.00" fill="#000000">iDynTree/Core/MatrixView.h</text>
</a>
</g>
</g>
<!-- Node22&#45;&gt;Node23 -->
<g id="edge31" class="edge">
<title>Node22&#45;&gt;Node23</title>
<path fill="none" stroke="#191970" d="M424.3151,-291.4115C420.1398,-282.2959 414.3386,-268.0744 412,-255 404.9137,-215.383 409.325,-168.0908 412.8666,-141.9181"/>
<polygon fill="#191970" stroke="#191970" points="416.3654,-142.1794 414.3417,-131.7796 409.4383,-141.1715 416.3654,-142.1794"/>
</g>
<!-- Node23&#45;&gt;Node7 -->
<g id="edge34" class="edge">
<title>Node23&#45;&gt;Node7</title>
<path fill="none" stroke="#191970" d="M414.6065,-112.2455C413.5626,-104.9382 412.0992,-94.6944 410.8149,-85.7046"/>
<polygon fill="#191970" stroke="#191970" points="414.2566,-85.0472 409.3775,-75.6427 407.327,-86.0372 414.2566,-85.0472"/>
</g>
<!-- Node23&#45;&gt;Node8 -->
<g id="edge32" class="edge">
<title>Node23&#45;&gt;Node8</title>
<path fill="none" stroke="#191970" d="M440.4695,-112.4509C491.7265,-92.4482 610.4637,-46.1117 669.0527,-23.2477"/>
<polygon fill="#191970" stroke="#191970" points="670.5491,-26.4209 678.5925,-19.5249 668.0043,-19.8999 670.5491,-26.4209"/>
</g>
<!-- Node23&#45;&gt;Node14 -->
<g id="edge33" class="edge">
<title>Node23&#45;&gt;Node14</title>
<path fill="none" stroke="#191970" d="M397.6692,-112.4509C359.8264,-92.7375 272.884,-47.4465 228.3632,-24.2543"/>
<polygon fill="#191970" stroke="#191970" points="229.7702,-21.0409 219.2844,-19.5249 226.5362,-27.249 229.7702,-21.0409"/>
</g>
<!-- Node23&#45;&gt;Node18 -->
<g id="edge35" class="edge">
<title>Node23&#45;&gt;Node18</title>
<path fill="none" stroke="#191970" d="M491.5239,-114.1276C500.1113,-113.3498 508.7416,-112.6202 517,-112 824.9967,-88.8684 1193.374,-73.9938 1344.3131,-68.4467"/>
<polygon fill="#191970" stroke="#191970" points="1344.5043,-71.9422 1354.3697,-68.0792 1344.2485,-64.9469 1344.5043,-71.9422"/>
</g>
<!-- Node24&#45;&gt;Node8 -->
<g id="edge39" class="edge">
<title>Node24&#45;&gt;Node8</title>
<path fill="none" stroke="#191970" d="M723.7858,-173.9248C720.3082,-146.499 710.2571,-67.232 705.5229,-29.8964"/>
<polygon fill="#191970" stroke="#191970" points="708.9677,-29.2398 704.2375,-19.7595 702.0233,-30.1204 708.9677,-29.2398"/>
</g>
<!-- Node24&#45;&gt;Node16 -->
<g id="edge41" class="edge">
<title>Node24&#45;&gt;Node16</title>
<path fill="none" stroke="#191970" d="M697.3438,-173.8906C665.5347,-162.8383 613.4003,-144.7238 579.9029,-133.0849"/>
<polygon fill="#191970" stroke="#191970" points="580.7434,-129.6717 570.1486,-129.6957 578.4458,-136.284 580.7434,-129.6717"/>
</g>
<!-- Node24&#45;&gt;Node18 -->
<g id="edge37" class="edge">
<title>Node24&#45;&gt;Node18</title>
<path fill="none" stroke="#191970" d="M745.4161,-173.9509C780.1956,-158.1496 853.5363,-126.8375 919,-112 998.0513,-94.0828 1227.5776,-77.6943 1344.211,-70.2368"/>
<polygon fill="#191970" stroke="#191970" points="1344.6976,-73.713 1354.4556,-69.5861 1344.2538,-66.7271 1344.6976,-73.713"/>
</g>
<!-- Node24&#45;&gt;Node20 -->
<g id="edge43" class="edge">
<title>Node24&#45;&gt;Node20</title>
<path fill="none" stroke="#191970" d="M787.2163,-173.9581C871.1238,-161.0895 1018.0293,-138.5591 1087.5049,-127.9039"/>
<polygon fill="#191970" stroke="#191970" points="1088.2195,-131.3353 1097.5733,-126.3597 1087.1583,-124.4162 1088.2195,-131.3353"/>
</g>
<!-- Node24&#45;&gt;Node21 -->
<g id="edge40" class="edge">
<title>Node24&#45;&gt;Node21</title>
<path fill="none" stroke="#191970" d="M805.5717,-178.1287C891.691,-171.462 1032.2391,-157.9235 1161.7684,-131.9608"/>
<polygon fill="#191970" stroke="#191970" points="1162.7667,-135.3295 1171.8683,-129.9063 1161.3713,-128.47 1162.7667,-135.3295"/>
</g>
<!-- Node24&#45;&gt;Node23 -->
<g id="edge38" class="edge">
<title>Node24&#45;&gt;Node23</title>
<path fill="none" stroke="#191970" d="M677.0578,-173.9581C622.1736,-163.0345 532.3104,-145.1492 473.6543,-133.4749"/>
<polygon fill="#191970" stroke="#191970" points="474.2913,-130.0331 463.8004,-131.5137 472.9248,-136.8984 474.2913,-130.0331"/>
</g>
<!-- Node25 -->
<g id="node26" class="node">
<title>Node25</title>
<polygon fill="none" stroke="#bfbfbf" points="928,-112.5 928,-131.5 988,-131.5 988,-112.5 928,-112.5"/>
<text text-anchor="middle" x="958" y="-119.5" font-family="FreeSans.ttf" font-size="10.00" fill="#000000">iostream</text>
</g>
<!-- Node24&#45;&gt;Node25 -->
<g id="edge42" class="edge">
<title>Node24&#45;&gt;Node25</title>
<path fill="none" stroke="#191970" d="M761.1506,-173.9581C803.6043,-162.7525 873.8133,-144.221 917.904,-132.5833"/>
<polygon fill="#191970" stroke="#191970" points="918.9308,-135.9322 927.7064,-129.9959 917.1443,-129.164 918.9308,-135.9322"/>
</g>
<!-- Node26&#45;&gt;Node17 -->
<g id="edge45" class="edge">
<title>Node26&#45;&gt;Node17</title>
<path fill="none" stroke="#191970" d="M1117.0725,-459.4136C1137.9978,-451.303 1161.1126,-439.4965 1178,-423 1244.4176,-358.1197 1278.0434,-247.5072 1289.431,-202.9495"/>
<polygon fill="#191970" stroke="#191970" points="1292.8606,-203.6593 1291.8534,-193.1125 1286.0637,-201.9855 1292.8606,-203.6593"/>
</g>
<!-- Node27 -->
<g id="node28" class="node">
<title>Node27</title>
<g id="a_node28"><a xlink:href="GeomVector3_8h.html" target="_top" xlink:title="iDynTree/Core/GeomVector3.h">
<polygon fill="none" stroke="#000000" points="1070.5,-235.5 1070.5,-254.5 1233.5,-254.5 1233.5,-235.5 1070.5,-235.5"/>
<text text-anchor="middle" x="1152" y="-242.5" font-family="FreeSans.ttf" font-size="10.00" fill="#000000">iDynTree/Core/GeomVector3.h</text>
</a>
</g>
</g>
<!-- Node26&#45;&gt;Node27 -->
<g id="edge46" class="edge">
<title>Node26&#45;&gt;Node27</title>
<path fill="none" stroke="#191970" d="M1034.6621,-459.4347C1013.1431,-446.4512 989.6181,-426.175 999,-403 1025.2857,-338.0695 1092.4689,-285.0606 1128.4356,-260.231"/>
<polygon fill="#191970" stroke="#191970" points="1130.5376,-263.0348 1136.8632,-254.5355 1126.618,-257.2351 1130.5376,-263.0348"/>
</g>
<!-- Node28 -->
<g id="node29" class="node">
<title>Node28</title>
<g id="a_node29"><a xlink:href="SpatialVector_8h.html" target="_top" xlink:title="iDynTree/Core/SpatialVector.h">
<polygon fill="none" stroke="#000000" points="1008.5,-403.5 1008.5,-422.5 1169.5,-422.5 1169.5,-403.5 1008.5,-403.5"/>
<text text-anchor="middle" x="1089" y="-410.5" font-family="FreeSans.ttf" font-size="10.00" fill="#000000">iDynTree/Core/SpatialVector.h</text>
</a>
</g>
</g>
<!-- Node26&#45;&gt;Node28 -->
<g id="edge48" class="edge">
<title>Node26&#45;&gt;Node28</title>
<path fill="none" stroke="#191970" d="M1070.9326,-459.2977C1074.1252,-451.1166 1078.0954,-440.943 1081.5004,-432.2179"/>
<polygon fill="#191970" stroke="#191970" points="1084.7823,-433.4351 1085.1573,-422.8469 1078.2613,-430.8903 1084.7823,-433.4351"/>
</g>
<!-- Node27&#45;&gt;Node17 -->
<g id="edge47" class="edge">
<title>Node27&#45;&gt;Node17</title>
<path fill="none" stroke="#191970" d="M1174.1875,-235.3906C1197.9467,-225.1005 1235.8405,-208.6888 1262.6425,-197.0809"/>
<polygon fill="#191970" stroke="#191970" points="1264.183,-200.2279 1271.9683,-193.0419 1261.4009,-193.8045 1264.183,-200.2279"/>
</g>
<!-- Node28&#45;&gt;Node18 -->
<g id="edge62" class="edge">
<title>Node28&#45;&gt;Node18</title>
<path fill="none" stroke="#191970" d="M1157.9241,-403.4494C1253.325,-388.2626 1414,-354.7121 1414,-301 1414,-301 1414,-301 1414,-183.5 1414,-149.1399 1414,-109.128 1414,-85.7764"/>
<polygon fill="#191970" stroke="#191970" points="1417.5001,-85.7489 1414,-75.7489 1410.5001,-85.749 1417.5001,-85.7489"/>
</g>
<!-- Node28&#45;&gt;Node20 -->
<g id="edge65" class="edge">
<title>Node28&#45;&gt;Node20</title>
<path fill="none" stroke="#191970" d="M1104.1368,-403.4645C1136.8504,-381.8384 1213.4867,-325.4331 1242,-255 1245.3355,-246.7607 1245.5123,-243.1656 1242,-235 1232.8075,-213.6287 1220.7234,-215.1728 1204,-199 1182.8006,-178.4985 1158.6813,-154.5986 1142.9475,-138.9293"/>
<polygon fill="#191970" stroke="#191970" points="1145.0967,-136.1296 1135.5441,-131.5472 1140.154,-141.0865 1145.0967,-136.1296"/>
</g>
<!-- Node28&#45;&gt;Node25 -->
<g id="edge64" class="edge">
<title>Node28&#45;&gt;Node25</title>
<path fill="none" stroke="#191970" d="M1074.5809,-403.481C1050.33,-386.1955 1004,-347.1351 1004,-301 1004,-301 1004,-301 1004,-245 1004,-205.9003 983.3554,-163.9863 969.7268,-140.5764"/>
<polygon fill="#191970" stroke="#191970" points="972.5581,-138.4939 964.3961,-131.7387 966.564,-142.1094 972.5581,-138.4939"/>
</g>
<!-- Node28&#45;&gt;Node27 -->
<g id="edge63" class="edge">
<title>Node28&#45;&gt;Node27</title>
<path fill="none" stroke="#191970" d="M1092.5677,-403.4862C1102.6127,-376.6994 1131.2788,-300.2565 1144.7892,-264.2289"/>
<polygon fill="#191970" stroke="#191970" points="1148.0804,-265.4201 1148.3145,-254.8279 1141.5261,-262.9622 1148.0804,-265.4201"/>
</g>
<!-- Node29 -->
<g id="node30" class="node">
<title>Node29</title>
<g id="a_node30"><a xlink:href="Position_8h.html" target="_top" xlink:title="Position.h">
<polygon fill="none" stroke="#000000" points="699.5,-347.5 699.5,-366.5 764.5,-366.5 764.5,-347.5 699.5,-347.5"/>
<text text-anchor="middle" x="732" y="-354.5" font-family="FreeSans.ttf" font-size="10.00" fill="#000000">Position.h</text>
</a>
</g>
</g>
<!-- Node28&#45;&gt;Node29 -->
<g id="edge49" class="edge">
<title>Node28&#45;&gt;Node29</title>
<path fill="none" stroke="#191970" d="M1028.0351,-403.4369C955.9726,-392.133 837.9025,-373.6122 774.8512,-363.7218"/>
<polygon fill="#191970" stroke="#191970" points="775.2716,-360.245 764.85,-362.1529 774.1868,-367.1604 775.2716,-360.245"/>
</g>
<!-- Node31 -->
<g id="node32" class="node">
<title>Node31</title>
<g id="a_node32"><a xlink:href="Rotation_8h.html" target="_top" xlink:title="iDynTree/Core/Rotation.h">
<polygon fill="none" stroke="#000000" points="760.5,-291.5 760.5,-310.5 897.5,-310.5 897.5,-291.5 760.5,-291.5"/>
<text text-anchor="middle" x="829" y="-298.5" font-family="FreeSans.ttf" font-size="10.00" fill="#000000">iDynTree/Core/Rotation.h</text>
</a>
</g>
</g>
<!-- Node28&#45;&gt;Node31 -->
<g id="edge61" class="edge">
<title>Node28&#45;&gt;Node31</title>
<path fill="none" stroke="#191970" d="M1066.8325,-403.4509C1020.5894,-383.5308 913.7188,-337.4942 860.4144,-314.5323"/>
<polygon fill="#191970" stroke="#191970" points="861.6802,-311.2667 851.1113,-310.5249 858.9108,-317.6956 861.6802,-311.2667"/>
</g>
<!-- Node29&#45;&gt;Node16 -->
<g id="edge60" class="edge">
<title>Node29&#45;&gt;Node16</title>
<path fill="none" stroke="#191970" d="M712.0994,-347.4651C672.1346,-326.9855 583.4278,-274.4534 554,-199 546.8255,-180.6044 545.9196,-157.8939 546.4445,-141.9194"/>
<polygon fill="#191970" stroke="#191970" points="549.9556,-141.8133 547.0104,-131.6361 542.9661,-141.4286 549.9556,-141.8133"/>
</g>
<!-- Node30 -->
<g id="node31" class="node">
<title>Node30</title>
<g id="a_node31"><a xlink:href="PositionRaw_8h.html" target="_top" xlink:title="iDynTree/Core/PositionRaw.h">
<polygon fill="none" stroke="#000000" points="820,-235.5 820,-254.5 976,-254.5 976,-235.5 820,-235.5"/>
<text text-anchor="middle" x="898" y="-242.5" font-family="FreeSans.ttf" font-size="10.00" fill="#000000">iDynTree/Core/PositionRaw.h</text>
</a>
</g>
</g>
<!-- Node29&#45;&gt;Node30 -->
<g id="edge50" class="edge">
<title>Node29&#45;&gt;Node30</title>
<path fill="none" stroke="#191970" d="M732.0631,-347.0616C732.6998,-332.7433 735.9989,-306.3497 751,-291 763.8986,-277.8016 805.6195,-265.4636 841.334,-256.8947"/>
<polygon fill="#191970" stroke="#191970" points="842.2803,-260.2679 851.2191,-254.5802 840.6845,-253.4522 842.2803,-260.2679"/>
</g>
<!-- Node29&#45;&gt;Node31 -->
<g id="edge53" class="edge">
<title>Node29&#45;&gt;Node31</title>
<path fill="none" stroke="#191970" d="M748.8961,-347.2455C763.918,-338.5731 786.1043,-325.7645 803.321,-315.825"/>
<polygon fill="#191970" stroke="#191970" points="805.3871,-318.6737 812.2975,-310.6427 801.8872,-312.6114 805.3871,-318.6737"/>
</g>
<!-- Node30&#45;&gt;Node16 -->
<g id="edge52" class="edge">
<title>Node30&#45;&gt;Node16</title>
<path fill="none" stroke="#191970" d="M831.9848,-235.4688C759.9153,-224.7455 652.3869,-207.6936 635,-199 617.0014,-190.0005 616.997,-181.4174 602,-168 590.7022,-157.8922 577.7842,-146.8694 567.4162,-138.1486"/>
<polygon fill="#191970" stroke="#191970" points="569.6415,-135.4469 559.7277,-131.7096 565.147,-140.8135 569.6415,-135.4469"/>
</g>
<!-- Node30&#45;&gt;Node17 -->
<g id="edge51" class="edge">
<title>Node30&#45;&gt;Node17</title>
<path fill="none" stroke="#191970" d="M959.4405,-235.4581C1030.5042,-224.4217 1147.3262,-206.2789 1222.4297,-194.6151"/>
<polygon fill="#191970" stroke="#191970" points="1223.3968,-198.0069 1232.7412,-193.0137 1222.3225,-191.0899 1223.3968,-198.0069"/>
</g>
<!-- Node31&#45;&gt;Node16 -->
<g id="edge54" class="edge">
<title>Node31&#45;&gt;Node16</title>
<path fill="none" stroke="#191970" d="M760.1756,-292.9936C721.7493,-286.5247 673.9232,-275.0576 635,-255 601.4024,-237.6868 591.4315,-230.7978 571,-199 559.7249,-181.4524 553.7749,-158.1399 550.7757,-141.7802"/>
<polygon fill="#191970" stroke="#191970" points="554.1999,-141.0306 549.1415,-131.7213 547.2905,-142.1532 554.1999,-141.0306"/>
</g>
<!-- Node31&#45;&gt;Node17 -->
<g id="edge59" class="edge">
<title>Node31&#45;&gt;Node17</title>
<path fill="none" stroke="#191970" d="M860.3607,-291.435C904.7975,-278.0292 988.7294,-253.2496 1061,-235 1120.6867,-219.9281 1189.5868,-205.0015 1236.8943,-195.1297"/>
<polygon fill="#191970" stroke="#191970" points="1237.8685,-198.5021 1246.9469,-193.0402 1236.4439,-191.6486 1237.8685,-198.5021"/>
</g>
<!-- Node31&#45;&gt;Node27 -->
<g id="edge55" class="edge">
<title>Node31&#45;&gt;Node27</title>
<path fill="none" stroke="#191970" d="M884.1587,-291.4369C940.3667,-281.6918 1027.5112,-266.5832 1087.0282,-256.2645"/>
<polygon fill="#191970" stroke="#191970" points="1087.8137,-259.6806 1097.0688,-254.5237 1086.6179,-252.7835 1087.8137,-259.6806"/>
</g>
<!-- Node32 -->
<g id="node33" class="node">
<title>Node32</title>
<g id="a_node33"><a xlink:href="RotationRaw_8h.html" target="_top" xlink:title="iDynTree/Core/RotationRaw.h">
<polygon fill="none" stroke="#000000" points="644,-235.5 644,-254.5 802,-254.5 802,-235.5 644,-235.5"/>
<text text-anchor="middle" x="723" y="-242.5" font-family="FreeSans.ttf" font-size="10.00" fill="#000000">iDynTree/Core/RotationRaw.h</text>
</a>
</g>
</g>
<!-- Node31&#45;&gt;Node32 -->
<g id="edge56" class="edge">
<title>Node31&#45;&gt;Node32</title>
<path fill="none" stroke="#191970" d="M810.5362,-291.2455C793.8926,-282.4527 769.2007,-269.4079 750.2808,-259.4125"/>
<polygon fill="#191970" stroke="#191970" points="751.7291,-256.2193 741.2522,-254.6427 748.4592,-262.4086 751.7291,-256.2193"/>
</g>
<!-- Node32&#45;&gt;Node16 -->
<g id="edge58" class="edge">
<title>Node32&#45;&gt;Node16</title>
<path fill="none" stroke="#191970" d="M680.389,-235.4963C655.6633,-228.4341 624.9693,-216.8725 602,-199 581.8561,-183.326 566.1783,-158.0833 557.0233,-140.802"/>
<polygon fill="#191970" stroke="#191970" points="560.0435,-139.0188 552.4023,-131.6796 553.7989,-142.182 560.0435,-139.0188"/>
</g>
<!-- Node32&#45;&gt;Node24 -->
<g id="edge57" class="edge">
<title>Node32&#45;&gt;Node24</title>
<path fill="none" stroke="#191970" d="M723.3125,-235.3906C723.5897,-226.8657 724.0036,-214.1392 724.3521,-203.4235"/>
<polygon fill="#191970" stroke="#191970" points="727.8561,-203.3534 724.6831,-193.2449 720.8598,-203.1258 727.8561,-203.3534"/>
</g>
<!-- Node33&#45;&gt;Node17 -->
<g id="edge67" class="edge">
<title>Node33&#45;&gt;Node17</title>
<path fill="none" stroke="#191970" d="M1279.2479,-459.473C1302.0179,-438.917 1338,-399.6812 1338,-357 1338,-357 1338,-357 1338,-301 1338,-263.9993 1318.6281,-224.3689 1305.5919,-201.8889"/>
<polygon fill="#191970" stroke="#191970" points="1308.4585,-199.8642 1300.3041,-193.0998 1302.4604,-203.4729 1308.4585,-199.8642"/>
</g>
<!-- Node33&#45;&gt;Node27 -->
<g id="edge68" class="edge">
<title>Node33&#45;&gt;Node27</title>
<path fill="none" stroke="#191970" d="M1253.8482,-459.4419C1234.6905,-419.1052 1182.2356,-308.6611 1161.0517,-264.0583"/>
<polygon fill="#191970" stroke="#191970" points="1164.1528,-262.4295 1156.7011,-254.8981 1157.8298,-265.4327 1164.1528,-262.4295"/>
</g>
<!-- Node33&#45;&gt;Node28 -->
<g id="edge69" class="edge">
<title>Node33&#45;&gt;Node28</title>
<path fill="none" stroke="#191970" d="M1218.9241,-459.4554C1190.2254,-449.194 1152.6063,-435.7429 1125.2377,-425.9571"/>
<polygon fill="#191970" stroke="#191970" points="1126.2485,-422.6015 1115.6539,-422.5303 1123.8917,-429.1929 1126.2485,-422.6015"/>
</g>
<!-- Node34&#45;&gt;Node16 -->
<g id="edge74" class="edge">
<title>Node34&#45;&gt;Node16</title>
<path fill="none" stroke="#191970" d="M598.1799,-403.3312C593.7564,-394.1589 587.262,-379.8991 583,-367 558.9522,-294.2177 552.7233,-275.1542 544,-199 541.7689,-179.523 543.3997,-157.1305 545.2039,-141.5327"/>
<polygon fill="#191970" stroke="#191970" points="548.688,-141.8802 546.4955,-131.5148 541.7454,-140.9851 548.688,-141.8802"/>
</g>
<!-- Node34&#45;&gt;Node24 -->
<g id="edge73" class="edge">
<title>Node34&#45;&gt;Node24</title>
<path fill="none" stroke="#191970" d="M599.5697,-403.4657C589.9799,-375.0068 565.8772,-289.2859 602,-235 614.7342,-215.8629 636.094,-203.8234 657.4726,-196.2546"/>
<polygon fill="#191970" stroke="#191970" points="658.8309,-199.4937 667.2656,-193.0822 656.6736,-192.8344 658.8309,-199.4937"/>
</g>
<!-- Node34&#45;&gt;Node29 -->
<g id="edge71" class="edge">
<title>Node34&#45;&gt;Node29</title>
<path fill="none" stroke="#191970" d="M625.1759,-403.3733C645.9766,-394.3435 677.2917,-380.7494 700.6458,-370.6111"/>
<polygon fill="#191970" stroke="#191970" points="702.3343,-373.6938 710.1135,-366.5011 699.5468,-367.2727 702.3343,-373.6938"/>
</g>
<!-- Node34&#45;&gt;Node31 -->
<g id="edge72" class="edge">
<title>Node34&#45;&gt;Node31</title>
<path fill="none" stroke="#191970" d="M674.7291,-403.4872C706.6447,-396.849 743.5746,-385.6836 773,-367 792.1201,-354.8597 808.1372,-334.1375 818.0777,-319.1466"/>
<polygon fill="#191970" stroke="#191970" points="821.0475,-320.9989 823.4552,-310.6813 815.1388,-317.2455 821.0475,-320.9989"/>
</g>
<!-- Node35&#45;&gt;Node16 -->
<g id="edge80" class="edge">
<title>Node35&#45;&gt;Node16</title>
<path fill="none" stroke="#191970" d="M1563.5681,-179.5513C1515.1858,-176.3199 1444.6359,-171.6963 1383,-168 1070.5836,-149.2643 692.2318,-129.4641 580.5221,-123.6776"/>
<polygon fill="#191970" stroke="#191970" points="580.4292,-120.1682 570.2617,-123.1467 580.0674,-127.1588 580.4292,-120.1682"/>
</g>
<!-- Node36 -->
<g id="node37" class="node">
<title>Node36</title>
<polygon fill="none" stroke="#bfbfbf" points="1718,-.5 1718,-19.5 1776,-19.5 1776,-.5 1718,-.5"/>
<text text-anchor="middle" x="1747" y="-7.5" font-family="FreeSans.ttf" font-size="10.00" fill="#000000">memory</text>
</g>
<!-- Node35&#45;&gt;Node36 -->
<g id="edge79" class="edge">
<title>Node35&#45;&gt;Node36</title>
<path fill="none" stroke="#191970" d="M1653.4762,-168.4454C1685.012,-151.2407 1731.0896,-119.7062 1747,-76 1752.3894,-61.1952 1751.9894,-43.2539 1750.4643,-29.8164"/>
<polygon fill="#191970" stroke="#191970" points="1753.9057,-29.1574 1749.021,-19.7558 1746.9767,-30.1515 1753.9057,-29.1574"/>
</g>
<!-- Node37 -->
<g id="node38" class="node">
<title>Node37</title>
<g id="a_node38"><a xlink:href="Optimizer_8h.html" target="_top" xlink:title="iDynTree/Optimizer.h">
<polygon fill="none" stroke="#000000" points="1571.5,-112.5 1571.5,-131.5 1690.5,-131.5 1690.5,-112.5 1571.5,-112.5"/>
<text text-anchor="middle" x="1631" y="-119.5" font-family="FreeSans.ttf" font-size="10.00" fill="#000000">iDynTree/Optimizer.h</text>
</a>
</g>
</g>
<!-- Node35&#45;&gt;Node37 -->
<g id="edge81" class="edge">
<title>Node35&#45;&gt;Node37</title>
<path fill="none" stroke="#191970" d="M1624.2247,-168.2977C1625.3959,-160.2945 1626.8462,-150.3843 1628.1041,-141.7889"/>
<polygon fill="#191970" stroke="#191970" points="1631.574,-142.2484 1629.559,-131.8469 1624.6478,-141.2347 1631.574,-142.2484"/>
</g>
<!-- Node37&#45;&gt;Node36 -->
<g id="edge82" class="edge">
<title>Node37&#45;&gt;Node36</title>
<path fill="none" stroke="#191970" d="M1668.3954,-112.4732C1688.6841,-105.5026 1712.6764,-94.0407 1728,-76 1738.9636,-63.0924 1743.6102,-44.1916 1745.5746,-29.9209"/>
<polygon fill="#191970" stroke="#191970" points="1749.0872,-29.9811 1746.6443,-19.6717 1742.1251,-29.2543 1749.0872,-29.9811"/>
</g>
<!-- Node38 -->
<g id="node39" class="node">
<title>Node38</title>
<g id="a_node39"><a xlink:href="OptimizationProblem_8h.html" target="_top" xlink:title="iDynTree/OptimizationProblem.h">
<polygon fill="none" stroke="#000000" points="1543.5,-56.5 1543.5,-75.5 1718.5,-75.5 1718.5,-56.5 1543.5,-56.5"/>
<text text-anchor="middle" x="1631" y="-63.5" font-family="FreeSans.ttf" font-size="10.00" fill="#000000">iDynTree/OptimizationProblem.h</text>
</a>
</g>
</g>
<!-- Node37&#45;&gt;Node38 -->
<g id="edge83" class="edge">
<title>Node37&#45;&gt;Node38</title>
<path fill="none" stroke="#191970" d="M1631,-112.2455C1631,-104.9382 1631,-94.6944 1631,-85.7046"/>
<polygon fill="#191970" stroke="#191970" points="1634.5001,-85.6426 1631,-75.6427 1627.5001,-85.6427 1634.5001,-85.6426"/>
</g>
<!-- Node38&#45;&gt;Node5 -->
<g id="edge86" class="edge">
<title>Node38&#45;&gt;Node5</title>
<path fill="none" stroke="#191970" d="M1601.0883,-56.3733C1571.278,-46.7791 1525.4574,-32.0323 1493.5172,-21.7527"/>
<polygon fill="#191970" stroke="#191970" points="1494.264,-18.3163 1483.6726,-18.5843 1492.1194,-24.9797 1494.264,-18.3163"/>
</g>
<!-- Node38&#45;&gt;Node36 -->
<g id="edge85" class="edge">
<title>Node38&#45;&gt;Node36</title>
<path fill="none" stroke="#191970" d="M1650.9411,-56.3733C1669.4786,-47.4241 1697.3028,-33.9917 1718.2413,-23.8835"/>
<polygon fill="#191970" stroke="#191970" points="1719.8352,-27.0006 1727.3191,-19.5011 1716.7919,-20.6967 1719.8352,-27.0006"/>
</g>
<!-- Node39 -->
<g id="node40" class="node">
<title>Node39</title>
<polygon fill="none" stroke="#bfbfbf" points="1607.5,-.5 1607.5,-19.5 1654.5,-19.5 1654.5,-.5 1607.5,-.5"/>
<text text-anchor="middle" x="1631" y="-7.5" font-family="FreeSans.ttf" font-size="10.00" fill="#000000">vector</text>
</g>
<!-- Node38&#45;&gt;Node39 -->
<g id="edge84" class="edge">
<title>Node38&#45;&gt;Node39</title>
<path fill="none" stroke="#191970" d="M1631,-56.2455C1631,-48.9382 1631,-38.6944 1631,-29.7046"/>
<polygon fill="#191970" stroke="#191970" points="1634.5001,-29.6426 1631,-19.6427 1627.5001,-29.6427 1634.5001,-29.6426"/>
</g>
</g>
</svg>
