<?xml version="1.0" encoding="UTF-8" standalone="no"?>
<!DOCTYPE svg PUBLIC "-//W3C//DTD SVG 1.1//EN"
 "http://www.w3.org/Graphics/SVG/1.1/DTD/svg11.dtd">
<!-- Generated by graphviz version 2.40.1 (20161225.0304)
 -->
<!-- Title: JointElement.h Pages: 1 -->
<svg width="1461pt" height="476pt"
 viewBox="0.00 0.00 1461.00 476.00" xmlns="http://www.w3.org/2000/svg" xmlns:xlink="http://www.w3.org/1999/xlink">
<g id="graph0" class="graph" transform="scale(1 1) rotate(0) translate(4 472)">
<title>JointElement.h</title>
<!-- Node0 -->
<g id="node1" class="node">
<title>Node0</title>
<polygon fill="#bfbfbf" stroke="#000000" points="321,-448.5 321,-467.5 409,-467.5 409,-448.5 321,-448.5"/>
<text text-anchor="middle" x="365" y="-455.5" font-family="FreeSans.ttf" font-size="10.00" fill="#000000">JointElement.h</text>
</g>
<!-- Node1 -->
<g id="node2" class="node">
<title>Node1</title>
<g id="a_node2"><a xlink:href="XMLElement_8h.html" target="_top" xlink:title="iDynTree/XMLElement.h">
<polygon fill="none" stroke="#000000" points="147,-392.5 147,-411.5 279,-411.5 279,-392.5 147,-392.5"/>
<text text-anchor="middle" x="213" y="-399.5" font-family="FreeSans.ttf" font-size="10.00" fill="#000000">iDynTree/XMLElement.h</text>
</a>
</g>
</g>
<!-- Node0&#45;&gt;Node1 -->
<g id="edge1" class="edge">
<title>Node0&#45;&gt;Node1</title>
<path fill="none" stroke="#191970" d="M338.8703,-448.3733C313.9232,-439.1822 276.1408,-425.2624 248.4794,-415.0713"/>
<polygon fill="#191970" stroke="#191970" points="249.3822,-411.674 238.7888,-411.5011 246.9622,-418.2424 249.3822,-411.674"/>
</g>
<!-- Node3 -->
<g id="node4" class="node">
<title>Node3</title>
<polygon fill="none" stroke="#bfbfbf" points="0,-336.5 0,-355.5 58,-355.5 58,-336.5 0,-336.5"/>
<text text-anchor="middle" x="29" y="-343.5" font-family="FreeSans.ttf" font-size="10.00" fill="#000000">memory</text>
</g>
<!-- Node0&#45;&gt;Node3 -->
<g id="edge61" class="edge">
<title>Node0&#45;&gt;Node3</title>
<path fill="none" stroke="#191970" d="M320.6354,-453.5832C273.9271,-447.8925 198.8685,-435.7626 138,-412 105.1824,-399.1883 71.0146,-376.776 49.8759,-361.6654"/>
<polygon fill="#191970" stroke="#191970" points="51.8017,-358.7382 41.6561,-355.6858 47.6838,-364.3989 51.8017,-358.7382"/>
</g>
<!-- Node4 -->
<g id="node5" class="node">
<title>Node4</title>
<polygon fill="none" stroke="#bfbfbf" points="705,-112.5 705,-131.5 749,-131.5 749,-112.5 705,-112.5"/>
<text text-anchor="middle" x="727" y="-119.5" font-family="FreeSans.ttf" font-size="10.00" fill="#000000">string</text>
</g>
<!-- Node0&#45;&gt;Node4 -->
<g id="edge62" class="edge">
<title>Node0&#45;&gt;Node4</title>
<path fill="none" stroke="#191970" d="M367.9511,-448.2168C373.5144,-428.8801 385,-384.3189 385,-346 385,-346 385,-346 385,-234 385,-169.2166 609.4303,-135.895 694.6781,-125.5748"/>
<polygon fill="#191970" stroke="#191970" points="695.3037,-129.0253 704.8239,-124.3762 694.4823,-122.0737 695.3037,-129.0253"/>
</g>
<!-- Node5 -->
<g id="node6" class="node">
<title>Node5</title>
<polygon fill="none" stroke="#bfbfbf" points="263.5,-336.5 263.5,-355.5 356.5,-355.5 356.5,-336.5 263.5,-336.5"/>
<text text-anchor="middle" x="310" y="-343.5" font-family="FreeSans.ttf" font-size="10.00" fill="#000000">unordered_map</text>
</g>
<!-- Node0&#45;&gt;Node5 -->
<g id="edge63" class="edge">
<title>Node0&#45;&gt;Node5</title>
<path fill="none" stroke="#191970" d="M360.3107,-448.4509C351.2186,-429.936 331.0469,-388.8591 319.1922,-364.7187"/>
<polygon fill="#191970" stroke="#191970" points="322.227,-362.9582 314.6774,-355.5249 315.9437,-366.0438 322.227,-362.9582"/>
</g>
<!-- Node7 -->
<g id="node8" class="node">
<title>Node7</title>
<g id="a_node8"><a xlink:href="Axis_8h.html" target="_top" xlink:title="iDynTree/Core/Axis.h">
<polygon fill="none" stroke="#000000" points="413,-392.5 413,-411.5 531,-411.5 531,-392.5 413,-392.5"/>
<text text-anchor="middle" x="472" y="-399.5" font-family="FreeSans.ttf" font-size="10.00" fill="#000000">iDynTree/Core/Axis.h</text>
</a>
</g>
</g>
<!-- Node0&#45;&gt;Node7 -->
<g id="edge7" class="edge">
<title>Node0&#45;&gt;Node7</title>
<path fill="none" stroke="#191970" d="M383.638,-448.2455C400.4386,-439.4527 425.3634,-426.4079 444.4618,-416.4125"/>
<polygon fill="#191970" stroke="#191970" points="446.3386,-419.3807 453.5756,-411.6427 443.0927,-413.1787 446.3386,-419.3807"/>
</g>
<!-- Node32 -->
<g id="node33" class="node">
<title>Node32</title>
<g id="a_node33"><a xlink:href="Transform_8h.html" target="_top" xlink:title="iDynTree/Core/Transform.h">
<polygon fill="none" stroke="#000000" points="760,-392.5 760,-411.5 906,-411.5 906,-392.5 760,-392.5"/>
<text text-anchor="middle" x="833" y="-399.5" font-family="FreeSans.ttf" font-size="10.00" fill="#000000">iDynTree/Core/Transform.h</text>
</a>
</g>
</g>
<!-- Node0&#45;&gt;Node32 -->
<g id="edge56" class="edge">
<title>Node0&#45;&gt;Node32</title>
<path fill="none" stroke="#191970" d="M409.0283,-452.7317C486.9041,-443.4132 650.1088,-423.8844 749.7695,-411.9592"/>
<polygon fill="#191970" stroke="#191970" points="750.2934,-415.4216 759.8067,-410.7582 749.4617,-408.4712 750.2934,-415.4216"/>
</g>
<!-- Node2 -->
<g id="node3" class="node">
<title>Node2</title>
<polygon fill="none" stroke="#bfbfbf" points="141.5,-336.5 141.5,-355.5 206.5,-355.5 206.5,-336.5 141.5,-336.5"/>
<text text-anchor="middle" x="174" y="-343.5" font-family="FreeSans.ttf" font-size="10.00" fill="#000000">functional</text>
</g>
<!-- Node1&#45;&gt;Node2 -->
<g id="edge2" class="edge">
<title>Node1&#45;&gt;Node2</title>
<path fill="none" stroke="#191970" d="M206.2067,-392.2455C200.7822,-384.4564 193.0339,-373.3308 186.4967,-363.9439"/>
<polygon fill="#191970" stroke="#191970" points="189.3025,-361.8485 180.7154,-355.6427 183.5583,-365.849 189.3025,-361.8485"/>
</g>
<!-- Node1&#45;&gt;Node3 -->
<g id="edge3" class="edge">
<title>Node1&#45;&gt;Node3</title>
<path fill="none" stroke="#191970" d="M181.3693,-392.3733C149.9886,-382.8226 101.8306,-368.1658 68.076,-357.8927"/>
<polygon fill="#191970" stroke="#191970" points="68.6833,-354.4191 58.0974,-354.8557 66.6451,-361.1158 68.6833,-354.4191"/>
</g>
<!-- Node1&#45;&gt;Node4 -->
<g id="edge4" class="edge">
<title>Node1&#45;&gt;Node4</title>
<path fill="none" stroke="#191970" d="M216.1103,-392.4903C228.6138,-355.949 279.019,-223.8244 371,-168 425.0622,-135.189 617.1559,-125.4907 694.4424,-122.8803"/>
<polygon fill="#191970" stroke="#191970" points="694.6763,-126.3748 704.5595,-122.5574 694.4529,-119.3783 694.6763,-126.3748"/>
</g>
<!-- Node1&#45;&gt;Node5 -->
<g id="edge5" class="edge">
<title>Node1&#45;&gt;Node5</title>
<path fill="none" stroke="#191970" d="M229.8961,-392.2455C244.918,-383.5731 267.1043,-370.7645 284.321,-360.825"/>
<polygon fill="#191970" stroke="#191970" points="286.3871,-363.6737 293.2975,-355.6427 282.8872,-357.6114 286.3871,-363.6737"/>
</g>
<!-- Node6 -->
<g id="node7" class="node">
<title>Node6</title>
<polygon fill="none" stroke="#bfbfbf" points="76.5,-336.5 76.5,-355.5 123.5,-355.5 123.5,-336.5 76.5,-336.5"/>
<text text-anchor="middle" x="100" y="-343.5" font-family="FreeSans.ttf" font-size="10.00" fill="#000000">vector</text>
</g>
<!-- Node1&#45;&gt;Node6 -->
<g id="edge6" class="edge">
<title>Node1&#45;&gt;Node6</title>
<path fill="none" stroke="#191970" d="M193.5746,-392.3733C175.5979,-383.4644 148.6559,-370.1127 128.291,-360.0203"/>
<polygon fill="#191970" stroke="#191970" points="129.6861,-356.8055 119.1719,-355.5011 126.5778,-363.0776 129.6861,-356.8055"/>
</g>
<!-- Node7&#45;&gt;Node4 -->
<g id="edge8" class="edge">
<title>Node7&#45;&gt;Node4</title>
<path fill="none" stroke="#191970" d="M466.0264,-392.1441C449.525,-363.5173 406.8553,-278.9256 443,-224 471.5669,-180.5897 626.4127,-143.2053 694.6626,-128.5771"/>
<polygon fill="#191970" stroke="#191970" points="695.7794,-131.9185 704.8401,-126.4273 694.3326,-125.0696 695.7794,-131.9185"/>
</g>
<!-- Node8 -->
<g id="node9" class="node">
<title>Node8</title>
<g id="a_node9"><a xlink:href="Direction_8h.html" target="_top" xlink:title="iDynTree/Core/Direction.h">
<polygon fill="none" stroke="#000000" points="451.5,-224.5 451.5,-243.5 592.5,-243.5 592.5,-224.5 451.5,-224.5"/>
<text text-anchor="middle" x="522" y="-231.5" font-family="FreeSans.ttf" font-size="10.00" fill="#000000">iDynTree/Core/Direction.h</text>
</a>
</g>
</g>
<!-- Node7&#45;&gt;Node8 -->
<g id="edge9" class="edge">
<title>Node7&#45;&gt;Node8</title>
<path fill="none" stroke="#191970" d="M474.8315,-392.4862C482.7695,-365.8144 505.3596,-289.9117 516.1384,-253.695"/>
<polygon fill="#191970" stroke="#191970" points="519.577,-254.4108 519.075,-243.8279 512.8678,-252.414 519.577,-254.4108"/>
</g>
<!-- Node10 -->
<g id="node11" class="node">
<title>Node10</title>
<g id="a_node11"><a xlink:href="Utils_8h.html" target="_top" xlink:title="iDynTree/Core/Utils.h">
<polygon fill="none" stroke="#000000" points="705.5,-56.5 705.5,-75.5 824.5,-75.5 824.5,-56.5 705.5,-56.5"/>
<text text-anchor="middle" x="765" y="-63.5" font-family="FreeSans.ttf" font-size="10.00" fill="#000000">iDynTree/Core/Utils.h</text>
</a>
</g>
</g>
<!-- Node7&#45;&gt;Node10 -->
<g id="edge55" class="edge">
<title>Node7&#45;&gt;Node10</title>
<path fill="none" stroke="#191970" d="M462.5759,-392.2281C454.6093,-383.4334 443.4867,-369.8051 437,-356 412.005,-302.8054 397.5438,-273.648 429,-224 487.3117,-131.9652 615.0915,-92.5857 695.1894,-76.4507"/>
<polygon fill="#191970" stroke="#191970" points="696.0475,-79.8495 705.1959,-74.5057 694.7118,-72.9781 696.0475,-79.8495"/>
</g>
<!-- Node24 -->
<g id="node25" class="node">
<title>Node24</title>
<g id="a_node25"><a xlink:href="Position_8h.html" target="_top" xlink:title="iDynTree/Core/Position.h">
<polygon fill="none" stroke="#000000" points="659,-336.5 659,-355.5 795,-355.5 795,-336.5 659,-336.5"/>
<text text-anchor="middle" x="727" y="-343.5" font-family="FreeSans.ttf" font-size="10.00" fill="#000000">iDynTree/Core/Position.h</text>
</a>
</g>
</g>
<!-- Node7&#45;&gt;Node24 -->
<g id="edge31" class="edge">
<title>Node7&#45;&gt;Node24</title>
<path fill="none" stroke="#191970" d="M515.5463,-392.4369C559.2793,-382.8328 626.7345,-368.0191 673.6542,-357.7152"/>
<polygon fill="#191970" stroke="#191970" points="674.6168,-361.0872 683.6333,-355.5237 673.1153,-354.2502 674.6168,-361.0872"/>
</g>
<!-- Node8&#45;&gt;Node4 -->
<g id="edge10" class="edge">
<title>Node8&#45;&gt;Node4</title>
<path fill="none" stroke="#191970" d="M532.2797,-224.3683C547.5814,-210.4319 577.7016,-184.5094 607,-168 635.3597,-152.0196 670.3706,-139.3131 695.2401,-131.3394"/>
<polygon fill="#191970" stroke="#191970" points="696.3998,-134.644 704.898,-128.317 694.3091,-127.9635 696.3998,-134.644"/>
</g>
<!-- Node9 -->
<g id="node10" class="node">
<title>Node9</title>
<g id="a_node10"><a xlink:href="VectorFixSize_8h.html" target="_top" xlink:title="iDynTree/Core/VectorFixSize.h">
<polygon fill="none" stroke="#000000" points="937.5,-168.5 937.5,-187.5 1098.5,-187.5 1098.5,-168.5 937.5,-168.5"/>
<text text-anchor="middle" x="1018" y="-175.5" font-family="FreeSans.ttf" font-size="10.00" fill="#000000">iDynTree/Core/VectorFixSize.h</text>
</a>
</g>
</g>
<!-- Node8&#45;&gt;Node9 -->
<g id="edge11" class="edge">
<title>Node8&#45;&gt;Node9</title>
<path fill="none" stroke="#191970" d="M592.538,-226.036C680.4936,-216.1056 830.9885,-199.1142 927.3968,-188.2294"/>
<polygon fill="#191970" stroke="#191970" points="927.8797,-191.6972 937.4239,-187.0973 927.0943,-184.7414 927.8797,-191.6972"/>
</g>
<!-- Node8&#45;&gt;Node10 -->
<g id="edge30" class="edge">
<title>Node8&#45;&gt;Node10</title>
<path fill="none" stroke="#191970" d="M527.5474,-224.4462C535.9557,-210.6068 553.0747,-184.804 573,-168 621.5141,-127.0856 689.1238,-95.9158 729.8184,-79.3394"/>
<polygon fill="#191970" stroke="#191970" points="731.327,-82.5056 739.3098,-75.5395 728.7252,-76.0071 731.327,-82.5056"/>
</g>
<!-- Node9&#45;&gt;Node4 -->
<g id="edge25" class="edge">
<title>Node9&#45;&gt;Node4</title>
<path fill="none" stroke="#191970" d="M968.306,-168.4369C908.5951,-156.9461 810.1324,-137.998 759.4181,-128.2385"/>
<polygon fill="#191970" stroke="#191970" points="759.8333,-124.7543 749.352,-126.3014 758.5104,-131.6282 759.8333,-124.7543"/>
</g>
<!-- Node9&#45;&gt;Node10 -->
<g id="edge12" class="edge">
<title>Node9&#45;&gt;Node10</title>
<path fill="none" stroke="#191970" d="M978.5999,-168.4299C948.6467,-160.482 906.8016,-147.917 872,-132 840.7385,-117.7021 807.4424,-96.0155 786.4481,-81.4436"/>
<polygon fill="#191970" stroke="#191970" points="788.439,-78.5649 778.2455,-75.6764 784.4128,-84.2912 788.439,-78.5649"/>
</g>
<!-- Node11 -->
<g id="node12" class="node">
<title>Node11</title>
<polygon fill="none" stroke="#bfbfbf" points="738.5,-.5 738.5,-19.5 791.5,-19.5 791.5,-.5 738.5,-.5"/>
<text text-anchor="middle" x="765" y="-7.5" font-family="FreeSans.ttf" font-size="10.00" fill="#000000">cstddef</text>
</g>
<!-- Node9&#45;&gt;Node11 -->
<g id="edge28" class="edge">
<title>Node9&#45;&gt;Node11</title>
<path fill="none" stroke="#191970" d="M1003.6727,-168.4862C961.7628,-140.6567 839.1382,-59.2301 787.9067,-25.2108"/>
<polygon fill="#191970" stroke="#191970" points="789.7505,-22.2338 779.4837,-19.6177 785.8782,-28.0652 789.7505,-22.2338"/>
</g>
<!-- Node13 -->
<g id="node14" class="node">
<title>Node13</title>
<g id="a_node14"><a xlink:href="Span_8h.html" target="_top" xlink:title="iDynTree/Core/Span.h">
<polygon fill="none" stroke="#000000" points="985.5,-56.5 985.5,-75.5 1106.5,-75.5 1106.5,-56.5 985.5,-56.5"/>
<text text-anchor="middle" x="1046" y="-63.5" font-family="FreeSans.ttf" font-size="10.00" fill="#000000">iDynTree/Core/Span.h</text>
</a>
</g>
</g>
<!-- Node9&#45;&gt;Node13 -->
<g id="edge15" class="edge">
<title>Node9&#45;&gt;Node13</title>
<path fill="none" stroke="#191970" d="M998.0115,-168.4945C975.6613,-156.489 944.282,-134.6499 958,-112 967.1826,-96.8386 983.1848,-86.4355 999.0472,-79.4143"/>
<polygon fill="#191970" stroke="#191970" points="1000.3624,-82.6579 1008.318,-75.6607 997.7353,-76.1695 1000.3624,-82.6579"/>
</g>
<!-- Node14 -->
<g id="node15" class="node">
<title>Node14</title>
<polygon fill="none" stroke="#bfbfbf" points="1320,-.5 1320,-19.5 1372,-19.5 1372,-.5 1320,-.5"/>
<text text-anchor="middle" x="1346" y="-7.5" font-family="FreeSans.ttf" font-size="10.00" fill="#000000">cassert</text>
</g>
<!-- Node9&#45;&gt;Node14 -->
<g id="edge27" class="edge">
<title>Node9&#45;&gt;Node14</title>
<path fill="none" stroke="#191970" d="M1090.3216,-168.4619C1173.5043,-157.2048 1299.7706,-139.1175 1308,-132 1337.8038,-106.2228 1344.5432,-57.4827 1345.8762,-30.055"/>
<polygon fill="#191970" stroke="#191970" points="1349.3839,-29.8291 1346.168,-19.7342 1342.3867,-29.6312 1349.3839,-29.8291"/>
</g>
<!-- Node22 -->
<g id="node23" class="node">
<title>Node22</title>
<polygon fill="none" stroke="#bfbfbf" points="1035,-112.5 1035,-131.5 1091,-131.5 1091,-112.5 1035,-112.5"/>
<text text-anchor="middle" x="1063" y="-119.5" font-family="FreeSans.ttf" font-size="10.00" fill="#000000">sstream</text>
</g>
<!-- Node9&#45;&gt;Node22 -->
<g id="edge26" class="edge">
<title>Node9&#45;&gt;Node22</title>
<path fill="none" stroke="#191970" d="M1025.8384,-168.2455C1032.162,-160.3761 1041.2224,-149.101 1048.8136,-139.6542"/>
<polygon fill="#191970" stroke="#191970" points="1051.7158,-141.6302 1055.2514,-131.6427 1046.2592,-137.2454 1051.7158,-141.6302"/>
</g>
<!-- Node23 -->
<g id="node24" class="node">
<title>Node23</title>
<polygon fill="none" stroke="#bfbfbf" points="967,-112.5 967,-131.5 1017,-131.5 1017,-112.5 967,-112.5"/>
<text text-anchor="middle" x="992" y="-119.5" font-family="FreeSans.ttf" font-size="10.00" fill="#000000">cstring</text>
</g>
<!-- Node9&#45;&gt;Node23 -->
<g id="edge29" class="edge">
<title>Node9&#45;&gt;Node23</title>
<path fill="none" stroke="#191970" d="M1013.4711,-168.2455C1009.9666,-160.6973 1005.0073,-150.0158 1000.7377,-140.8197"/>
<polygon fill="#191970" stroke="#191970" points="1003.8627,-139.2389 996.477,-131.6427 997.5136,-142.1867 1003.8627,-139.2389"/>
</g>
<!-- Node10&#45;&gt;Node11 -->
<g id="edge13" class="edge">
<title>Node10&#45;&gt;Node11</title>
<path fill="none" stroke="#191970" d="M765,-56.2455C765,-48.9382 765,-38.6944 765,-29.7046"/>
<polygon fill="#191970" stroke="#191970" points="768.5001,-29.6426 765,-19.6427 761.5001,-29.6427 768.5001,-29.6426"/>
</g>
<!-- Node12 -->
<g id="node13" class="node">
<title>Node12</title>
<polygon fill="none" stroke="#bfbfbf" points="640,-.5 640,-19.5 720,-19.5 720,-.5 640,-.5"/>
<text text-anchor="middle" x="680" y="-7.5" font-family="FreeSans.ttf" font-size="10.00" fill="#000000">CoreExport.h</text>
</g>
<!-- Node10&#45;&gt;Node12 -->
<g id="edge14" class="edge">
<title>Node10&#45;&gt;Node12</title>
<path fill="none" stroke="#191970" d="M750.1941,-56.2455C737.2744,-47.7337 718.3069,-35.2375 703.3448,-25.3801"/>
<polygon fill="#191970" stroke="#191970" points="704.9124,-22.2216 694.6362,-19.6427 701.0613,-28.067 704.9124,-22.2216"/>
</g>
<!-- Node13&#45;&gt;Node11 -->
<g id="edge19" class="edge">
<title>Node13&#45;&gt;Node11</title>
<path fill="none" stroke="#191970" d="M987.2945,-56.4271C939.7166,-48.3387 870.7663,-35.8726 801.4521,-19.9512"/>
<polygon fill="#191970" stroke="#191970" points="802.2037,-16.5326 791.6713,-17.6817 800.6214,-23.3515 802.2037,-16.5326"/>
</g>
<!-- Node13&#45;&gt;Node14 -->
<g id="edge16" class="edge">
<title>Node13&#45;&gt;Node14</title>
<path fill="none" stroke="#191970" d="M1106.6193,-57.3564C1158.2512,-49.5681 1234.5698,-37.0527 1309.6075,-20.142"/>
<polygon fill="#191970" stroke="#191970" points="1310.7339,-23.4749 1319.7045,-17.8376 1309.1764,-16.6504 1310.7339,-23.4749"/>
</g>
<!-- Node15 -->
<g id="node16" class="node">
<title>Node15</title>
<polygon fill="none" stroke="#bfbfbf" points="810,-.5 810,-19.5 874,-19.5 874,-.5 810,-.5"/>
<text text-anchor="middle" x="842" y="-7.5" font-family="FreeSans.ttf" font-size="10.00" fill="#000000">algorithm</text>
</g>
<!-- Node13&#45;&gt;Node15 -->
<g id="edge17" class="edge">
<title>Node13&#45;&gt;Node15</title>
<path fill="none" stroke="#191970" d="M1010.9311,-56.3733C975.8396,-46.7403 921.825,-31.9128 884.3592,-21.628"/>
<polygon fill="#191970" stroke="#191970" points="884.83,-18.1278 874.2602,-18.8557 882.9769,-24.8781 884.83,-18.1278"/>
</g>
<!-- Node16 -->
<g id="node17" class="node">
<title>Node16</title>
<polygon fill="none" stroke="#bfbfbf" points="892,-.5 892,-19.5 934,-19.5 934,-.5 892,-.5"/>
<text text-anchor="middle" x="913" y="-7.5" font-family="FreeSans.ttf" font-size="10.00" fill="#000000">array</text>
</g>
<!-- Node13&#45;&gt;Node16 -->
<g id="edge18" class="edge">
<title>Node13&#45;&gt;Node16</title>
<path fill="none" stroke="#191970" d="M1023.1365,-56.3733C1001.2034,-47.1383 967.9316,-33.1291 943.6976,-22.9253"/>
<polygon fill="#191970" stroke="#191970" points="944.8235,-19.6018 934.2489,-18.9469 942.1071,-26.0533 944.8235,-19.6018"/>
</g>
<!-- Node17 -->
<g id="node18" class="node">
<title>Node17</title>
<polygon fill="none" stroke="#bfbfbf" points="952.5,-.5 952.5,-19.5 1005.5,-19.5 1005.5,-.5 952.5,-.5"/>
<text text-anchor="middle" x="979" y="-7.5" font-family="FreeSans.ttf" font-size="10.00" fill="#000000">iterator</text>
</g>
<!-- Node13&#45;&gt;Node17 -->
<g id="edge20" class="edge">
<title>Node13&#45;&gt;Node17</title>
<path fill="none" stroke="#191970" d="M1034.3295,-56.2455C1024.4339,-47.9746 1010.0373,-35.9416 998.4099,-26.2232"/>
<polygon fill="#191970" stroke="#191970" points="1000.4542,-23.3703 990.5368,-19.6427 995.965,-28.7413 1000.4542,-23.3703"/>
</g>
<!-- Node18 -->
<g id="node19" class="node">
<title>Node18</title>
<polygon fill="none" stroke="#bfbfbf" points="1024,-.5 1024,-19.5 1068,-19.5 1068,-.5 1024,-.5"/>
<text text-anchor="middle" x="1046" y="-7.5" font-family="FreeSans.ttf" font-size="10.00" fill="#000000">limits</text>
</g>
<!-- Node13&#45;&gt;Node18 -->
<g id="edge21" class="edge">
<title>Node13&#45;&gt;Node18</title>
<path fill="none" stroke="#191970" d="M1046,-56.2455C1046,-48.9382 1046,-38.6944 1046,-29.7046"/>
<polygon fill="#191970" stroke="#191970" points="1049.5001,-29.6426 1046,-19.6427 1042.5001,-29.6427 1049.5001,-29.6426"/>
</g>
<!-- Node19 -->
<g id="node20" class="node">
<title>Node19</title>
<polygon fill="none" stroke="#bfbfbf" points="1086.5,-.5 1086.5,-19.5 1151.5,-19.5 1151.5,-.5 1086.5,-.5"/>
<text text-anchor="middle" x="1119" y="-7.5" font-family="FreeSans.ttf" font-size="10.00" fill="#000000">stdexcept</text>
</g>
<!-- Node13&#45;&gt;Node19 -->
<g id="edge22" class="edge">
<title>Node13&#45;&gt;Node19</title>
<path fill="none" stroke="#191970" d="M1058.7156,-56.2455C1069.602,-47.8943 1085.4883,-35.7076 1098.22,-25.9408"/>
<polygon fill="#191970" stroke="#191970" points="1100.6261,-28.5063 1106.4301,-19.6427 1096.3654,-22.9523 1100.6261,-28.5063"/>
</g>
<!-- Node20 -->
<g id="node21" class="node">
<title>Node20</title>
<polygon fill="none" stroke="#bfbfbf" points="1232.5,-.5 1232.5,-19.5 1301.5,-19.5 1301.5,-.5 1232.5,-.5"/>
<text text-anchor="middle" x="1267" y="-7.5" font-family="FreeSans.ttf" font-size="10.00" fill="#000000">type_traits</text>
</g>
<!-- Node13&#45;&gt;Node20 -->
<g id="edge23" class="edge">
<title>Node13&#45;&gt;Node20</title>
<path fill="none" stroke="#191970" d="M1083.7401,-56.4369C1122.154,-46.7031 1181.6861,-31.618 1222.4048,-21.3001"/>
<polygon fill="#191970" stroke="#191970" points="1223.4934,-24.635 1232.3273,-18.7858 1221.774,-17.8494 1223.4934,-24.635"/>
</g>
<!-- Node21 -->
<g id="node22" class="node">
<title>Node21</title>
<polygon fill="none" stroke="#bfbfbf" points="1169.5,-.5 1169.5,-19.5 1214.5,-19.5 1214.5,-.5 1169.5,-.5"/>
<text text-anchor="middle" x="1192" y="-7.5" font-family="FreeSans.ttf" font-size="10.00" fill="#000000">utility</text>
</g>
<!-- Node13&#45;&gt;Node21 -->
<g id="edge24" class="edge">
<title>Node13&#45;&gt;Node21</title>
<path fill="none" stroke="#191970" d="M1071.0983,-56.3733C1095.5338,-47.0007 1132.7899,-32.7107 1159.4838,-22.472"/>
<polygon fill="#191970" stroke="#191970" points="1161.0653,-25.614 1169.1486,-18.7649 1158.5584,-19.0783 1161.0653,-25.614"/>
</g>
<!-- Node24&#45;&gt;Node4 -->
<g id="edge54" class="edge">
<title>Node24&#45;&gt;Node4</title>
<path fill="none" stroke="#191970" d="M714.4008,-336.403C694.1137,-320.0594 654.9705,-284.6205 640,-244 624.1157,-200.9001 671.5311,-159.2162 702.4837,-137.4987"/>
<polygon fill="#191970" stroke="#191970" points="704.7746,-140.1743 711.0919,-131.6688 700.8494,-134.3784 704.7746,-140.1743"/>
</g>
<!-- Node25 -->
<g id="node26" class="node">
<title>Node25</title>
<g id="a_node26"><a xlink:href="PositionRaw_8h.html" target="_top" xlink:title="iDynTree/Core/PositionRaw.h">
<polygon fill="none" stroke="#000000" points="649,-224.5 649,-243.5 805,-243.5 805,-224.5 649,-224.5"/>
<text text-anchor="middle" x="727" y="-231.5" font-family="FreeSans.ttf" font-size="10.00" fill="#000000">iDynTree/Core/PositionRaw.h</text>
</a>
</g>
</g>
<!-- Node24&#45;&gt;Node25 -->
<g id="edge32" class="edge">
<title>Node24&#45;&gt;Node25</title>
<path fill="none" stroke="#191970" d="M727,-336.4509C727,-318.184 727,-277.9553 727,-253.6976"/>
<polygon fill="#191970" stroke="#191970" points="730.5001,-253.5249 727,-243.5249 723.5001,-253.5249 730.5001,-253.5249"/>
</g>
<!-- Node26 -->
<g id="node27" class="node">
<title>Node26</title>
<g id="a_node27"><a xlink:href="Rotation_8h.html" target="_top" xlink:title="iDynTree/Core/Rotation.h">
<polygon fill="none" stroke="#000000" points="885.5,-280.5 885.5,-299.5 1022.5,-299.5 1022.5,-280.5 885.5,-280.5"/>
<text text-anchor="middle" x="954" y="-287.5" font-family="FreeSans.ttf" font-size="10.00" fill="#000000">iDynTree/Core/Rotation.h</text>
</a>
</g>
</g>
<!-- Node24&#45;&gt;Node26 -->
<g id="edge35" class="edge">
<title>Node24&#45;&gt;Node26</title>
<path fill="none" stroke="#191970" d="M765.7648,-336.4369C804.3692,-326.9133 863.7384,-312.2672 905.4572,-301.9753"/>
<polygon fill="#191970" stroke="#191970" points="906.5245,-305.317 915.3951,-299.5237 904.8479,-298.5208 906.5245,-305.317"/>
</g>
<!-- Node25&#45;&gt;Node4 -->
<g id="edge34" class="edge">
<title>Node25&#45;&gt;Node4</title>
<path fill="none" stroke="#191970" d="M727,-224.4509C727,-206.184 727,-165.9553 727,-141.6976"/>
<polygon fill="#191970" stroke="#191970" points="730.5001,-141.5249 727,-131.5249 723.5001,-141.5249 730.5001,-141.5249"/>
</g>
<!-- Node25&#45;&gt;Node9 -->
<g id="edge33" class="edge">
<title>Node25&#45;&gt;Node9</title>
<path fill="none" stroke="#191970" d="M776.694,-224.4369C827.0196,-214.7522 904.8723,-199.7703 958.4651,-189.4569"/>
<polygon fill="#191970" stroke="#191970" points="959.3525,-192.8504 968.5109,-187.5237 958.0297,-185.9765 959.3525,-192.8504"/>
</g>
<!-- Node26&#45;&gt;Node4 -->
<g id="edge36" class="edge">
<title>Node26&#45;&gt;Node4</title>
<path fill="none" stroke="#191970" d="M936.6598,-280.3953C922.8013,-272.0932 903.5238,-259.0741 890,-244 864.0833,-215.1123 876.4067,-193.3263 847,-168 821.7772,-146.2771 785.1959,-134.2503 759.0623,-127.9961"/>
<polygon fill="#191970" stroke="#191970" points="759.7816,-124.5705 749.2585,-125.8015 758.2524,-131.4015 759.7816,-124.5705"/>
</g>
<!-- Node26&#45;&gt;Node9 -->
<g id="edge53" class="edge">
<title>Node26&#45;&gt;Node9</title>
<path fill="none" stroke="#191970" d="M1022.807,-283.9137C1105.0616,-275.9289 1233.5147,-260.9279 1248,-244 1253.7792,-237.2463 1253.6355,-230.8742 1248,-224 1238.3095,-212.1795 1160.8724,-198.4016 1098.4874,-189.0281"/>
<polygon fill="#191970" stroke="#191970" points="1098.6282,-185.5108 1088.2227,-187.5047 1097.6005,-192.4349 1098.6282,-185.5108"/>
</g>
<!-- Node27 -->
<g id="node28" class="node">
<title>Node27</title>
<g id="a_node28"><a xlink:href="GeomVector3_8h.html" target="_top" xlink:title="iDynTree/Core/GeomVector3.h">
<polygon fill="none" stroke="#000000" points="1075.5,-224.5 1075.5,-243.5 1238.5,-243.5 1238.5,-224.5 1075.5,-224.5"/>
<text text-anchor="middle" x="1157" y="-231.5" font-family="FreeSans.ttf" font-size="10.00" fill="#000000">iDynTree/Core/GeomVector3.h</text>
</a>
</g>
</g>
<!-- Node26&#45;&gt;Node27 -->
<g id="edge37" class="edge">
<title>Node26&#45;&gt;Node27</title>
<path fill="none" stroke="#191970" d="M988.8969,-280.3733C1023.0911,-270.9404 1075.3415,-256.5265 1112.5042,-246.2747"/>
<polygon fill="#191970" stroke="#191970" points="1113.8493,-249.5345 1122.5584,-243.5011 1111.9877,-242.7865 1113.8493,-249.5345"/>
</g>
<!-- Node28 -->
<g id="node29" class="node">
<title>Node28</title>
<g id="a_node29"><a xlink:href="RotationRaw_8h.html" target="_top" xlink:title="iDynTree/Core/RotationRaw.h">
<polygon fill="none" stroke="#000000" points="899,-224.5 899,-243.5 1057,-243.5 1057,-224.5 899,-224.5"/>
<text text-anchor="middle" x="978" y="-231.5" font-family="FreeSans.ttf" font-size="10.00" fill="#000000">iDynTree/Core/RotationRaw.h</text>
</a>
</g>
</g>
<!-- Node26&#45;&gt;Node28 -->
<g id="edge39" class="edge">
<title>Node26&#45;&gt;Node28</title>
<path fill="none" stroke="#191970" d="M958.1805,-280.2455C961.381,-272.7776 965.896,-262.2427 969.8084,-253.1137"/>
<polygon fill="#191970" stroke="#191970" points="973.1452,-254.2129 973.8674,-243.6427 966.7112,-251.4554 973.1452,-254.2129"/>
</g>
<!-- Node27&#45;&gt;Node9 -->
<g id="edge38" class="edge">
<title>Node27&#45;&gt;Node9</title>
<path fill="none" stroke="#191970" d="M1133.105,-224.3733C1110.4918,-215.2629 1076.3458,-201.5062 1051.1127,-191.3404"/>
<polygon fill="#191970" stroke="#191970" points="1052.1666,-187.9917 1041.5831,-187.5011 1049.5507,-194.4845 1052.1666,-187.9917"/>
</g>
<!-- Node28&#45;&gt;Node4 -->
<g id="edge52" class="edge">
<title>Node28&#45;&gt;Node4</title>
<path fill="none" stroke="#191970" d="M967.038,-224.3404C950.3947,-210.1308 917.2639,-183.5952 885,-168 843.5697,-147.9741 791.7274,-134.9382 758.9755,-128.0239"/>
<polygon fill="#191970" stroke="#191970" points="759.5486,-124.5687 749.05,-125.993 758.1453,-131.4267 759.5486,-124.5687"/>
</g>
<!-- Node29 -->
<g id="node30" class="node">
<title>Node29</title>
<g id="a_node30"><a xlink:href="MatrixFixSize_8h.html" target="_top" xlink:title="iDynTree/Core/MatrixFixSize.h">
<polygon fill="none" stroke="#000000" points="1116.5,-168.5 1116.5,-187.5 1277.5,-187.5 1277.5,-168.5 1116.5,-168.5"/>
<text text-anchor="middle" x="1197" y="-175.5" font-family="FreeSans.ttf" font-size="10.00" fill="#000000">iDynTree/Core/MatrixFixSize.h</text>
</a>
</g>
</g>
<!-- Node28&#45;&gt;Node29 -->
<g id="edge40" class="edge">
<title>Node28&#45;&gt;Node29</title>
<path fill="none" stroke="#191970" d="M1015.6474,-224.3733C1052.852,-214.8598 1109.8703,-200.2797 1150.0216,-190.0127"/>
<polygon fill="#191970" stroke="#191970" points="1151.0227,-193.3695 1159.8438,-187.5011 1149.2884,-186.5877 1151.0227,-193.3695"/>
</g>
<!-- Node29&#45;&gt;Node4 -->
<g id="edge49" class="edge">
<title>Node29&#45;&gt;Node4</title>
<path fill="none" stroke="#191970" d="M1117.0047,-168.4686C1011.8562,-155.9403 831.9733,-134.5075 759.0824,-125.8226"/>
<polygon fill="#191970" stroke="#191970" points="759.4698,-122.3441 749.1259,-124.6363 758.6416,-129.2949 759.4698,-122.3441"/>
</g>
<!-- Node29&#45;&gt;Node10 -->
<g id="edge41" class="edge">
<title>Node29&#45;&gt;Node10</title>
<path fill="none" stroke="#191970" d="M1186.5991,-168.4655C1169.7885,-153.6594 1134.9834,-125.4465 1100,-112 1052.9861,-93.9293 918.4881,-79.4167 834.9071,-71.8111"/>
<polygon fill="#191970" stroke="#191970" points="834.9978,-68.3052 824.7246,-70.8957 834.371,-75.2771 834.9978,-68.3052"/>
</g>
<!-- Node29&#45;&gt;Node14 -->
<g id="edge47" class="edge">
<title>Node29&#45;&gt;Node14</title>
<path fill="none" stroke="#191970" d="M1246.7267,-168.4272C1283.5615,-160.2315 1329.3065,-147.3413 1341,-132 1363.6009,-102.3488 1357.5075,-55.8569 1351.4792,-29.6587"/>
<polygon fill="#191970" stroke="#191970" points="1354.8267,-28.6195 1348.9835,-19.7816 1348.04,-30.3344 1354.8267,-28.6195"/>
</g>
<!-- Node29&#45;&gt;Node22 -->
<g id="edge51" class="edge">
<title>Node29&#45;&gt;Node22</title>
<path fill="none" stroke="#191970" d="M1173.9646,-168.3733C1152.2612,-159.3032 1119.5382,-145.6279 1095.245,-135.4755"/>
<polygon fill="#191970" stroke="#191970" points="1096.3111,-132.1278 1085.7348,-131.5011 1093.6119,-138.5865 1096.3111,-132.1278"/>
</g>
<!-- Node29&#45;&gt;Node23 -->
<g id="edge48" class="edge">
<title>Node29&#45;&gt;Node23</title>
<path fill="none" stroke="#191970" d="M1160.5724,-168.4634C1127.9383,-159.8615 1078.528,-146.6946 1026.8954,-132.2111"/>
<polygon fill="#191970" stroke="#191970" points="1027.8064,-128.8315 1017.2322,-129.4921 1025.9104,-135.5699 1027.8064,-128.8315"/>
</g>
<!-- Node30 -->
<g id="node31" class="node">
<title>Node30</title>
<g id="a_node31"><a xlink:href="MatrixView_8h.html" target="_top" xlink:title="iDynTree/Core/MatrixView.h">
<polygon fill="none" stroke="#000000" points="1147.5,-112.5 1147.5,-131.5 1298.5,-131.5 1298.5,-112.5 1147.5,-112.5"/>
<text text-anchor="middle" x="1223" y="-119.5" font-family="FreeSans.ttf" font-size="10.00" fill="#000000">iDynTree/Core/MatrixView.h</text>
</a>
</g>
</g>
<!-- Node29&#45;&gt;Node30 -->
<g id="edge42" class="edge">
<title>Node29&#45;&gt;Node30</title>
<path fill="none" stroke="#191970" d="M1201.5289,-168.2455C1205.0334,-160.6973 1209.9927,-150.0158 1214.2623,-140.8197"/>
<polygon fill="#191970" stroke="#191970" points="1217.4864,-142.1867 1218.523,-131.6427 1211.1373,-139.2389 1217.4864,-142.1867"/>
</g>
<!-- Node31 -->
<g id="node32" class="node">
<title>Node31</title>
<polygon fill="none" stroke="#bfbfbf" points="1393,-112.5 1393,-131.5 1453,-131.5 1453,-112.5 1393,-112.5"/>
<text text-anchor="middle" x="1423" y="-119.5" font-family="FreeSans.ttf" font-size="10.00" fill="#000000">iostream</text>
</g>
<!-- Node29&#45;&gt;Node31 -->
<g id="edge50" class="edge">
<title>Node29&#45;&gt;Node31</title>
<path fill="none" stroke="#191970" d="M1235.594,-168.4369C1276.7071,-158.2496 1341.4757,-142.2007 1383.0866,-131.89"/>
<polygon fill="#191970" stroke="#191970" points="1384.0162,-135.2656 1392.8808,-129.4632 1382.3325,-128.4711 1384.0162,-135.2656"/>
</g>
<!-- Node30&#45;&gt;Node10 -->
<g id="edge46" class="edge">
<title>Node30&#45;&gt;Node10</title>
<path fill="none" stroke="#191970" d="M1147.3706,-112.7527C1060.4542,-102.1254 918.984,-84.8277 834.6622,-74.5177"/>
<polygon fill="#191970" stroke="#191970" points="835.0208,-71.0355 824.6699,-73.2959 834.1712,-77.9838 835.0208,-71.0355"/>
</g>
<!-- Node30&#45;&gt;Node13 -->
<g id="edge45" class="edge">
<title>Node30&#45;&gt;Node13</title>
<path fill="none" stroke="#191970" d="M1192.5726,-112.3733C1163.0128,-103.021 1117.9774,-88.7725 1085.6305,-78.5385"/>
<polygon fill="#191970" stroke="#191970" points="1086.6203,-75.1807 1076.0303,-75.5011 1084.5087,-81.8546 1086.6203,-75.1807"/>
</g>
<!-- Node30&#45;&gt;Node14 -->
<g id="edge43" class="edge">
<title>Node30&#45;&gt;Node14</title>
<path fill="none" stroke="#191970" d="M1233.4869,-112.4509C1254.4557,-93.3574 1301.7752,-50.2697 1327.8725,-26.5063"/>
<polygon fill="#191970" stroke="#191970" points="1330.5021,-28.8455 1335.5396,-19.5249 1325.7892,-23.6697 1330.5021,-28.8455"/>
</g>
<!-- Node30&#45;&gt;Node20 -->
<g id="edge44" class="edge">
<title>Node30&#45;&gt;Node20</title>
<path fill="none" stroke="#191970" d="M1226.7514,-112.4509C1233.9927,-94.0186 1250.0186,-53.2254 1259.5188,-29.043"/>
<polygon fill="#191970" stroke="#191970" points="1262.8591,-30.1122 1263.2581,-19.5249 1256.3439,-27.5526 1262.8591,-30.1122"/>
</g>
<!-- Node32&#45;&gt;Node4 -->
<g id="edge60" class="edge">
<title>Node32&#45;&gt;Node4</title>
<path fill="none" stroke="#191970" d="M833,-392.4116C833,-373.0538 833,-327.9167 833,-290 833,-290 833,-290 833,-234 833,-188.9213 787.1435,-154.6897 755.7528,-136.5376"/>
<polygon fill="#191970" stroke="#191970" points="757.3786,-133.437 746.9378,-131.6372 753.9774,-139.5552 757.3786,-133.437"/>
</g>
<!-- Node32&#45;&gt;Node24 -->
<g id="edge57" class="edge">
<title>Node32&#45;&gt;Node24</title>
<path fill="none" stroke="#191970" d="M814.5362,-392.2455C797.8926,-383.4527 773.2007,-370.4079 754.2808,-360.4125"/>
<polygon fill="#191970" stroke="#191970" points="755.7291,-357.2193 745.2522,-355.6427 752.4592,-363.4086 755.7291,-357.2193"/>
</g>
<!-- Node32&#45;&gt;Node26 -->
<g id="edge58" class="edge">
<title>Node32&#45;&gt;Node26</title>
<path fill="none" stroke="#191970" d="M843.3164,-392.4509C863.9442,-373.3574 910.4943,-330.2697 936.1672,-306.5063"/>
<polygon fill="#191970" stroke="#191970" points="938.7485,-308.8864 943.7097,-299.5249 933.9935,-303.7492 938.7485,-308.8864"/>
</g>
<!-- Node32&#45;&gt;Node29 -->
<g id="edge59" class="edge">
<title>Node32&#45;&gt;Node29</title>
<path fill="none" stroke="#191970" d="M877.4074,-392.432C977.9978,-369.7658 1218.0786,-309.7441 1264,-244 1278.0319,-223.911 1252.585,-204.6931 1229.1252,-192.2292"/>
<polygon fill="#191970" stroke="#191970" points="1230.4917,-188.9989 1219.9848,-187.6365 1227.3488,-195.2537 1230.4917,-188.9989"/>
</g>
</g>
</svg>
