<?xml version="1.0" encoding="UTF-8" standalone="no"?>
<!DOCTYPE svg PUBLIC "-//W3C//DTD SVG 1.1//EN"
 "http://www.w3.org/Graphics/SVG/1.1/DTD/svg11.dtd">
<!-- Generated by graphviz version 2.40.1 (20161225.0304)
 -->
<!-- Title: LinearSystem.h Pages: 1 -->
<svg width="1198pt" height="532pt"
 viewBox="0.00 0.00 1197.50 532.00" xmlns="http://www.w3.org/2000/svg" xmlns:xlink="http://www.w3.org/1999/xlink">
<g id="graph0" class="graph" transform="scale(1 1) rotate(0) translate(4 528)">
<title>LinearSystem.h</title>
<!-- Node0 -->
<g id="node1" class="node">
<title>Node0</title>
<polygon fill="#bfbfbf" stroke="#000000" points="305.5,-504.5 305.5,-523.5 397.5,-523.5 397.5,-504.5 305.5,-504.5"/>
<text text-anchor="middle" x="351.5" y="-511.5" font-family="FreeSans.ttf" font-size="10.00" fill="#000000">LinearSystem.h</text>
</g>
<!-- Node1 -->
<g id="node2" class="node">
<title>Node1</title>
<g id="a_node2"><a xlink:href="DynamicalSystem_8h.html" target="_top" xlink:title="iDynTree/DynamicalSystem.h">
<polygon fill="none" stroke="#000000" points="107,-224.5 107,-243.5 268,-243.5 268,-224.5 107,-224.5"/>
<text text-anchor="middle" x="187.5" y="-231.5" font-family="FreeSans.ttf" font-size="10.00" fill="#000000">iDynTree/DynamicalSystem.h</text>
</a>
</g>
</g>
<!-- Node0&#45;&gt;Node1 -->
<g id="edge1" class="edge">
<title>Node0&#45;&gt;Node1</title>
<path fill="none" stroke="#191970" d="M324.667,-504.4286C287.1333,-489.1168 223.5,-455.2984 223.5,-402 223.5,-402 223.5,-402 223.5,-346 223.5,-311.7942 208.0926,-274.4094 197.4369,-252.6445"/>
<polygon fill="#191970" stroke="#191970" points="200.4659,-250.8795 192.8119,-243.5538 194.227,-254.0537 200.4659,-250.8795"/>
</g>
<!-- Node14 -->
<g id="node15" class="node">
<title>Node14</title>
<g id="a_node15"><a xlink:href="SparsityStructure_8h.html" target="_top" xlink:title="iDynTree/SparsityStructure.h">
<polygon fill="none" stroke="#000000" points="185,-168.5 185,-187.5 340,-187.5 340,-168.5 185,-168.5"/>
<text text-anchor="middle" x="262.5" y="-175.5" font-family="FreeSans.ttf" font-size="10.00" fill="#000000">iDynTree/SparsityStructure.h</text>
</a>
</g>
</g>
<!-- Node0&#45;&gt;Node14 -->
<g id="edge62" class="edge">
<title>Node0&#45;&gt;Node14</title>
<path fill="none" stroke="#191970" d="M341.9743,-504.1898C333.8877,-495.3706 322.5108,-481.7278 315.5,-468 301.6167,-440.8153 296.5,-432.5246 296.5,-402 296.5,-402 296.5,-402 296.5,-290 296.5,-255.9677 281.9485,-218.5293 271.8849,-196.7067"/>
<polygon fill="#191970" stroke="#191970" points="274.9939,-195.0954 267.5168,-187.5891 268.681,-198.1198 274.9939,-195.0954"/>
</g>
<!-- Node19 -->
<g id="node20" class="node">
<title>Node19</title>
<g id="a_node20"><a xlink:href="TimeVaryingObject_8h.html" target="_top" xlink:title="iDynTree/TimeVaryingObject.h">
<polygon fill="none" stroke="#000000" points="324.5,-448.5 324.5,-467.5 488.5,-467.5 488.5,-448.5 324.5,-448.5"/>
<text text-anchor="middle" x="406.5" y="-455.5" font-family="FreeSans.ttf" font-size="10.00" fill="#000000">iDynTree/TimeVaryingObject.h</text>
</a>
</g>
</g>
<!-- Node0&#45;&gt;Node19 -->
<g id="edge22" class="edge">
<title>Node0&#45;&gt;Node19</title>
<path fill="none" stroke="#191970" d="M361.0803,-504.2455C369.0458,-496.1352 380.5641,-484.4075 390.0079,-474.7919"/>
<polygon fill="#191970" stroke="#191970" points="392.5195,-477.2297 397.0295,-467.6427 387.5253,-472.3247 392.5195,-477.2297"/>
</g>
<!-- Node33 -->
<g id="node34" class="node">
<title>Node33</title>
<polygon fill="none" stroke="#bfbfbf" points="506.5,-448.5 506.5,-467.5 564.5,-467.5 564.5,-448.5 506.5,-448.5"/>
<text text-anchor="middle" x="535.5" y="-455.5" font-family="FreeSans.ttf" font-size="10.00" fill="#000000">memory</text>
</g>
<!-- Node0&#45;&gt;Node33 -->
<g id="edge63" class="edge">
<title>Node0&#45;&gt;Node33</title>
<path fill="none" stroke="#191970" d="M383.1307,-504.3733C414.5114,-494.8226 462.6694,-480.1658 496.424,-469.8927"/>
<polygon fill="#191970" stroke="#191970" points="497.8549,-473.1158 506.4026,-466.8557 495.8167,-466.4191 497.8549,-473.1158"/>
</g>
<!-- Node2 -->
<g id="node3" class="node">
<title>Node2</title>
<g id="a_node3"><a xlink:href="VectorDynSize_8h.html" target="_top" xlink:title="iDynTree/Core/VectorDynSize.h">
<polygon fill="none" stroke="#000000" points="0,-168.5 0,-187.5 167,-187.5 167,-168.5 0,-168.5"/>
<text text-anchor="middle" x="83.5" y="-175.5" font-family="FreeSans.ttf" font-size="10.00" fill="#000000">iDynTree/Core/VectorDynSize.h</text>
</a>
</g>
</g>
<!-- Node1&#45;&gt;Node2 -->
<g id="edge2" class="edge">
<title>Node1&#45;&gt;Node2</title>
<path fill="none" stroke="#191970" d="M169.3846,-224.2455C153.055,-215.4527 128.829,-202.4079 110.2661,-192.4125"/>
<polygon fill="#191970" stroke="#191970" points="111.8719,-189.3021 101.4078,-187.6427 108.5532,-195.4654 111.8719,-189.3021"/>
</g>
<!-- Node1&#45;&gt;Node14 -->
<g id="edge14" class="edge">
<title>Node1&#45;&gt;Node14</title>
<path fill="none" stroke="#191970" d="M200.564,-224.2455C211.8562,-215.814 228.3845,-203.4729 241.5271,-193.6598"/>
<polygon fill="#191970" stroke="#191970" points="243.6669,-196.4301 249.5857,-187.6427 239.4789,-190.8211 243.6669,-196.4301"/>
</g>
<!-- Node3 -->
<g id="node4" class="node">
<title>Node3</title>
<g id="a_node4"><a xlink:href="Span_8h.html" target="_top" xlink:title="iDynTree/Core/Span.h">
<polygon fill="none" stroke="#000000" points="279,-56.5 279,-75.5 400,-75.5 400,-56.5 279,-56.5"/>
<text text-anchor="middle" x="339.5" y="-63.5" font-family="FreeSans.ttf" font-size="10.00" fill="#000000">iDynTree/Core/Span.h</text>
</a>
</g>
</g>
<!-- Node2&#45;&gt;Node3 -->
<g id="edge3" class="edge">
<title>Node2&#45;&gt;Node3</title>
<path fill="none" stroke="#191970" d="M105.3264,-168.4509C150.7636,-148.5722 255.6482,-102.6852 308.2416,-79.6756"/>
<polygon fill="#191970" stroke="#191970" points="309.9701,-82.7397 317.7288,-75.5249 307.1644,-76.3266 309.9701,-82.7397"/>
</g>
<!-- Node13 -->
<g id="node14" class="node">
<title>Node13</title>
<polygon fill="none" stroke="#bfbfbf" points="505.5,-112.5 505.5,-131.5 549.5,-131.5 549.5,-112.5 505.5,-112.5"/>
<text text-anchor="middle" x="527.5" y="-119.5" font-family="FreeSans.ttf" font-size="10.00" fill="#000000">string</text>
</g>
<!-- Node2&#45;&gt;Node13 -->
<g id="edge13" class="edge">
<title>Node2&#45;&gt;Node13</title>
<path fill="none" stroke="#191970" d="M167.0192,-168.9099C273.811,-157.2597 449.6511,-137.9764 495.3006,-131.4124"/>
<polygon fill="#191970" stroke="#191970" points="496.0026,-134.8438 505.2947,-129.7539 494.8566,-127.9383 496.0026,-134.8438"/>
</g>
<!-- Node4 -->
<g id="node5" class="node">
<title>Node4</title>
<polygon fill="none" stroke="#bfbfbf" points="684.5,-.5 684.5,-19.5 736.5,-19.5 736.5,-.5 684.5,-.5"/>
<text text-anchor="middle" x="710.5" y="-7.5" font-family="FreeSans.ttf" font-size="10.00" fill="#000000">cassert</text>
</g>
<!-- Node3&#45;&gt;Node4 -->
<g id="edge4" class="edge">
<title>Node3&#45;&gt;Node4</title>
<path fill="none" stroke="#191970" d="M400.0324,-60.3331C465.471,-53.6205 572.9378,-40.8979 674.1397,-20.0501"/>
<polygon fill="#191970" stroke="#191970" points="675.1554,-23.4134 684.227,-17.9403 673.7223,-16.5617 675.1554,-23.4134"/>
</g>
<!-- Node5 -->
<g id="node6" class="node">
<title>Node5</title>
<polygon fill="none" stroke="#bfbfbf" points="103.5,-.5 103.5,-19.5 167.5,-19.5 167.5,-.5 103.5,-.5"/>
<text text-anchor="middle" x="135.5" y="-7.5" font-family="FreeSans.ttf" font-size="10.00" fill="#000000">algorithm</text>
</g>
<!-- Node3&#45;&gt;Node5 -->
<g id="edge5" class="edge">
<title>Node3&#45;&gt;Node5</title>
<path fill="none" stroke="#191970" d="M304.4311,-56.3733C269.3396,-46.7403 215.325,-31.9128 177.8592,-21.628"/>
<polygon fill="#191970" stroke="#191970" points="178.33,-18.1278 167.7602,-18.8557 176.4769,-24.8781 178.33,-18.1278"/>
</g>
<!-- Node6 -->
<g id="node7" class="node">
<title>Node6</title>
<polygon fill="none" stroke="#bfbfbf" points="185.5,-.5 185.5,-19.5 227.5,-19.5 227.5,-.5 185.5,-.5"/>
<text text-anchor="middle" x="206.5" y="-7.5" font-family="FreeSans.ttf" font-size="10.00" fill="#000000">array</text>
</g>
<!-- Node3&#45;&gt;Node6 -->
<g id="edge6" class="edge">
<title>Node3&#45;&gt;Node6</title>
<path fill="none" stroke="#191970" d="M316.6365,-56.3733C294.7034,-47.1383 261.4316,-33.1291 237.1976,-22.9253"/>
<polygon fill="#191970" stroke="#191970" points="238.3235,-19.6018 227.7489,-18.9469 235.6071,-26.0533 238.3235,-19.6018"/>
</g>
<!-- Node7 -->
<g id="node8" class="node">
<title>Node7</title>
<polygon fill="none" stroke="#bfbfbf" points="613,-.5 613,-19.5 666,-19.5 666,-.5 613,-.5"/>
<text text-anchor="middle" x="639.5" y="-7.5" font-family="FreeSans.ttf" font-size="10.00" fill="#000000">cstddef</text>
</g>
<!-- Node3&#45;&gt;Node7 -->
<g id="edge7" class="edge">
<title>Node3&#45;&gt;Node7</title>
<path fill="none" stroke="#191970" d="M400.1193,-57.3564C451.7512,-49.5681 528.0698,-37.0527 602.7729,-20.2304"/>
<polygon fill="#191970" stroke="#191970" points="603.8513,-23.5744 612.8228,-17.9385 602.2949,-16.7496 603.8513,-23.5744"/>
</g>
<!-- Node8 -->
<g id="node9" class="node">
<title>Node8</title>
<polygon fill="none" stroke="#bfbfbf" points="246,-.5 246,-19.5 299,-19.5 299,-.5 246,-.5"/>
<text text-anchor="middle" x="272.5" y="-7.5" font-family="FreeSans.ttf" font-size="10.00" fill="#000000">iterator</text>
</g>
<!-- Node3&#45;&gt;Node8 -->
<g id="edge8" class="edge">
<title>Node3&#45;&gt;Node8</title>
<path fill="none" stroke="#191970" d="M327.8295,-56.2455C317.9339,-47.9746 303.5373,-35.9416 291.9099,-26.2232"/>
<polygon fill="#191970" stroke="#191970" points="293.9542,-23.3703 284.0368,-19.6427 289.465,-28.7413 293.9542,-23.3703"/>
</g>
<!-- Node9 -->
<g id="node10" class="node">
<title>Node9</title>
<polygon fill="none" stroke="#bfbfbf" points="317.5,-.5 317.5,-19.5 361.5,-19.5 361.5,-.5 317.5,-.5"/>
<text text-anchor="middle" x="339.5" y="-7.5" font-family="FreeSans.ttf" font-size="10.00" fill="#000000">limits</text>
</g>
<!-- Node3&#45;&gt;Node9 -->
<g id="edge9" class="edge">
<title>Node3&#45;&gt;Node9</title>
<path fill="none" stroke="#191970" d="M339.5,-56.2455C339.5,-48.9382 339.5,-38.6944 339.5,-29.7046"/>
<polygon fill="#191970" stroke="#191970" points="343.0001,-29.6426 339.5,-19.6427 336.0001,-29.6427 343.0001,-29.6426"/>
</g>
<!-- Node10 -->
<g id="node11" class="node">
<title>Node10</title>
<polygon fill="none" stroke="#bfbfbf" points="380,-.5 380,-19.5 445,-19.5 445,-.5 380,-.5"/>
<text text-anchor="middle" x="412.5" y="-7.5" font-family="FreeSans.ttf" font-size="10.00" fill="#000000">stdexcept</text>
</g>
<!-- Node3&#45;&gt;Node10 -->
<g id="edge10" class="edge">
<title>Node3&#45;&gt;Node10</title>
<path fill="none" stroke="#191970" d="M352.2156,-56.2455C363.102,-47.8943 378.9883,-35.7076 391.72,-25.9408"/>
<polygon fill="#191970" stroke="#191970" points="394.1261,-28.5063 399.9301,-19.6427 389.8654,-22.9523 394.1261,-28.5063"/>
</g>
<!-- Node11 -->
<g id="node12" class="node">
<title>Node11</title>
<polygon fill="none" stroke="#bfbfbf" points="526,-.5 526,-19.5 595,-19.5 595,-.5 526,-.5"/>
<text text-anchor="middle" x="560.5" y="-7.5" font-family="FreeSans.ttf" font-size="10.00" fill="#000000">type_traits</text>
</g>
<!-- Node3&#45;&gt;Node11 -->
<g id="edge11" class="edge">
<title>Node3&#45;&gt;Node11</title>
<path fill="none" stroke="#191970" d="M377.2401,-56.4369C415.654,-46.7031 475.1861,-31.618 515.9048,-21.3001"/>
<polygon fill="#191970" stroke="#191970" points="516.9934,-24.635 525.8273,-18.7858 515.274,-17.8494 516.9934,-24.635"/>
</g>
<!-- Node12 -->
<g id="node13" class="node">
<title>Node12</title>
<polygon fill="none" stroke="#bfbfbf" points="463,-.5 463,-19.5 508,-19.5 508,-.5 463,-.5"/>
<text text-anchor="middle" x="485.5" y="-7.5" font-family="FreeSans.ttf" font-size="10.00" fill="#000000">utility</text>
</g>
<!-- Node3&#45;&gt;Node12 -->
<g id="edge12" class="edge">
<title>Node3&#45;&gt;Node12</title>
<path fill="none" stroke="#191970" d="M364.5983,-56.3733C389.0338,-47.0007 426.2899,-32.7107 452.9838,-22.472"/>
<polygon fill="#191970" stroke="#191970" points="454.5653,-25.614 462.6486,-18.7649 452.0584,-19.0783 454.5653,-25.614"/>
</g>
<!-- Node14&#45;&gt;Node7 -->
<g id="edge19" class="edge">
<title>Node14&#45;&gt;Node7</title>
<path fill="none" stroke="#191970" d="M264.8529,-168.3964C268.8736,-154.0129 278.4386,-126.9698 296.5,-112 302.5892,-106.9531 516.1256,-45.366 603.1454,-20.4055"/>
<polygon fill="#191970" stroke="#191970" points="604.2179,-23.7392 612.8661,-17.6187 602.2887,-17.0102 604.2179,-23.7392"/>
</g>
<!-- Node14&#45;&gt;Node13 -->
<g id="edge21" class="edge">
<title>Node14&#45;&gt;Node13</title>
<path fill="none" stroke="#191970" d="M321.1094,-168.4551C366.3778,-160.6334 430.7202,-148.543 495.2967,-132.0948"/>
<polygon fill="#191970" stroke="#191970" points="496.4336,-135.4161 505.2411,-129.5272 494.6836,-128.6384 496.4336,-135.4161"/>
</g>
<!-- Node15 -->
<g id="node16" class="node">
<title>Node15</title>
<g id="a_node16"><a xlink:href="Utils_8h.html" target="_top" xlink:title="iDynTree/Core/Utils.h">
<polygon fill="none" stroke="#000000" points="739,-56.5 739,-75.5 858,-75.5 858,-56.5 739,-56.5"/>
<text text-anchor="middle" x="798.5" y="-63.5" font-family="FreeSans.ttf" font-size="10.00" fill="#000000">iDynTree/Core/Utils.h</text>
</a>
</g>
</g>
<!-- Node14&#45;&gt;Node15 -->
<g id="edge15" class="edge">
<title>Node14&#45;&gt;Node15</title>
<path fill="none" stroke="#191970" d="M268.695,-168.2985C278.8982,-153.2636 300.793,-124.743 327.5,-112 396.6203,-79.0199 614.8564,-69.6793 728.3665,-67.0382"/>
<polygon fill="#191970" stroke="#191970" points="728.7634,-70.5304 738.6835,-66.8099 728.6085,-63.5321 728.7634,-70.5304"/>
</g>
<!-- Node17 -->
<g id="node18" class="node">
<title>Node17</title>
<polygon fill="none" stroke="#bfbfbf" points="336,-112.5 336,-131.5 383,-131.5 383,-112.5 336,-112.5"/>
<text text-anchor="middle" x="359.5" y="-119.5" font-family="FreeSans.ttf" font-size="10.00" fill="#000000">vector</text>
</g>
<!-- Node14&#45;&gt;Node17 -->
<g id="edge18" class="edge">
<title>Node14&#45;&gt;Node17</title>
<path fill="none" stroke="#191970" d="M279.3961,-168.2455C294.418,-159.5731 316.6043,-146.7645 333.821,-136.825"/>
<polygon fill="#191970" stroke="#191970" points="335.8871,-139.6737 342.7975,-131.6427 332.3872,-133.6114 335.8871,-139.6737"/>
</g>
<!-- Node18 -->
<g id="node19" class="node">
<title>Node18</title>
<polygon fill="none" stroke="#bfbfbf" points="401.5,-112.5 401.5,-131.5 487.5,-131.5 487.5,-112.5 401.5,-112.5"/>
<text text-anchor="middle" x="444.5" y="-119.5" font-family="FreeSans.ttf" font-size="10.00" fill="#000000">unordered_set</text>
</g>
<!-- Node14&#45;&gt;Node18 -->
<g id="edge20" class="edge">
<title>Node14&#45;&gt;Node18</title>
<path fill="none" stroke="#191970" d="M293.7869,-168.3733C324.1818,-159.021 370.4893,-144.7725 403.75,-134.5385"/>
<polygon fill="#191970" stroke="#191970" points="405.0929,-137.7873 413.6214,-131.5011 403.0342,-131.0968 405.0929,-137.7873"/>
</g>
<!-- Node15&#45;&gt;Node7 -->
<g id="edge16" class="edge">
<title>Node15&#45;&gt;Node7</title>
<path fill="none" stroke="#191970" d="M771.1669,-56.3733C744.8771,-47.114 704.9606,-33.0553 675.9701,-22.8448"/>
<polygon fill="#191970" stroke="#191970" points="676.8066,-19.4287 666.2118,-19.4079 674.4811,-26.0312 676.8066,-19.4287"/>
</g>
<!-- Node16 -->
<g id="node17" class="node">
<title>Node16</title>
<polygon fill="none" stroke="#bfbfbf" points="758.5,-.5 758.5,-19.5 838.5,-19.5 838.5,-.5 758.5,-.5"/>
<text text-anchor="middle" x="798.5" y="-7.5" font-family="FreeSans.ttf" font-size="10.00" fill="#000000">CoreExport.h</text>
</g>
<!-- Node15&#45;&gt;Node16 -->
<g id="edge17" class="edge">
<title>Node15&#45;&gt;Node16</title>
<path fill="none" stroke="#191970" d="M798.5,-56.2455C798.5,-48.9382 798.5,-38.6944 798.5,-29.7046"/>
<polygon fill="#191970" stroke="#191970" points="802.0001,-29.6426 798.5,-19.6427 795.0001,-29.6427 802.0001,-29.6426"/>
</g>
<!-- Node19&#45;&gt;Node2 -->
<g id="edge23" class="edge">
<title>Node19&#45;&gt;Node2</title>
<path fill="none" stroke="#191970" d="M400.893,-448.4834C390.3226,-429.6141 368.5,-385.8343 368.5,-346 368.5,-346 368.5,-346 368.5,-290 368.5,-239.6776 322.2803,-244.8928 276.5,-224 240.266,-207.4638 197.39,-196.4811 161.2641,-189.4087"/>
<polygon fill="#191970" stroke="#191970" points="161.7413,-185.937 151.2649,-187.5163 160.4396,-192.8149 161.7413,-185.937"/>
</g>
<!-- Node20 -->
<g id="node21" class="node">
<title>Node20</title>
<g id="a_node21"><a xlink:href="MatrixDynSize_8h.html" target="_top" xlink:title="iDynTree/Core/MatrixDynSize.h">
<polygon fill="none" stroke="#000000" points="358,-168.5 358,-187.5 525,-187.5 525,-168.5 358,-168.5"/>
<text text-anchor="middle" x="441.5" y="-175.5" font-family="FreeSans.ttf" font-size="10.00" fill="#000000">iDynTree/Core/MatrixDynSize.h</text>
</a>
</g>
</g>
<!-- Node19&#45;&gt;Node20 -->
<g id="edge24" class="edge">
<title>Node19&#45;&gt;Node20</title>
<path fill="none" stroke="#191970" d="M408.9357,-448.4856C413.6363,-429.2608 423.5,-384.351 423.5,-346 423.5,-346 423.5,-346 423.5,-290 423.5,-257.1472 431.1431,-219.5528 436.4684,-197.3462"/>
<polygon fill="#191970" stroke="#191970" points="439.8987,-198.0551 438.921,-187.5055 433.1065,-196.3622 439.8987,-198.0551"/>
</g>
<!-- Node22 -->
<g id="node23" class="node">
<title>Node22</title>
<g id="a_node23"><a xlink:href="Transform_8h.html" target="_top" xlink:title="iDynTree/Core/Transform.h">
<polygon fill="none" stroke="#000000" points="563.5,-392.5 563.5,-411.5 709.5,-411.5 709.5,-392.5 563.5,-392.5"/>
<text text-anchor="middle" x="636.5" y="-399.5" font-family="FreeSans.ttf" font-size="10.00" fill="#000000">iDynTree/Core/Transform.h</text>
</a>
</g>
</g>
<!-- Node19&#45;&gt;Node22 -->
<g id="edge31" class="edge">
<title>Node19&#45;&gt;Node22</title>
<path fill="none" stroke="#191970" d="M445.7771,-448.4369C484.9744,-438.8932 545.3,-424.2052 587.5835,-413.9101"/>
<polygon fill="#191970" stroke="#191970" points="588.4968,-417.2901 597.3849,-411.5237 586.8408,-410.4888 588.4968,-417.2901"/>
</g>
<!-- Node20&#45;&gt;Node13 -->
<g id="edge25" class="edge">
<title>Node20&#45;&gt;Node13</title>
<path fill="none" stroke="#191970" d="M456.4801,-168.2455C469.6751,-159.6534 489.1051,-147.0014 504.3079,-137.1018"/>
<polygon fill="#191970" stroke="#191970" points="506.2215,-140.0325 512.6916,-131.6427 502.4017,-134.1665 506.2215,-140.0325"/>
</g>
<!-- Node21 -->
<g id="node22" class="node">
<title>Node21</title>
<g id="a_node22"><a xlink:href="MatrixView_8h.html" target="_top" xlink:title="iDynTree/Core/MatrixView.h">
<polygon fill="none" stroke="#000000" points="606,-112.5 606,-131.5 757,-131.5 757,-112.5 606,-112.5"/>
<text text-anchor="middle" x="681.5" y="-119.5" font-family="FreeSans.ttf" font-size="10.00" fill="#000000">iDynTree/Core/MatrixView.h</text>
</a>
</g>
</g>
<!-- Node20&#45;&gt;Node21 -->
<g id="edge26" class="edge">
<title>Node20&#45;&gt;Node21</title>
<path fill="none" stroke="#191970" d="M482.4848,-168.4369C523.4726,-158.8731 586.6004,-144.1432 630.7357,-133.845"/>
<polygon fill="#191970" stroke="#191970" points="631.7412,-137.2045 640.6843,-131.5237 630.1505,-130.3876 631.7412,-137.2045"/>
</g>
<!-- Node21&#45;&gt;Node3 -->
<g id="edge29" class="edge">
<title>Node21&#45;&gt;Node3</title>
<path fill="none" stroke="#191970" d="M623.0967,-112.4369C563.4594,-102.6717 470.9302,-87.5207 407.9035,-77.2006"/>
<polygon fill="#191970" stroke="#191970" points="408.0966,-73.6857 397.6624,-75.5237 406.9654,-80.5937 408.0966,-73.6857"/>
</g>
<!-- Node21&#45;&gt;Node4 -->
<g id="edge27" class="edge">
<title>Node21&#45;&gt;Node4</title>
<path fill="none" stroke="#191970" d="M683.5165,-112.1059C686.2099,-99.1501 691.2544,-75.7616 696.5,-56 698.8231,-47.2483 701.6909,-37.6547 704.2248,-29.5038"/>
<polygon fill="#191970" stroke="#191970" points="707.6116,-30.4017 707.2896,-19.8118 700.9374,-28.2911 707.6116,-30.4017"/>
</g>
<!-- Node21&#45;&gt;Node11 -->
<g id="edge28" class="edge">
<title>Node21&#45;&gt;Node11</title>
<path fill="none" stroke="#191970" d="M671.1836,-112.4509C650.5558,-93.3574 604.0057,-50.2697 578.3328,-26.5063"/>
<polygon fill="#191970" stroke="#191970" points="580.5065,-23.7492 570.7903,-19.5249 575.7515,-28.8864 580.5065,-23.7492"/>
</g>
<!-- Node21&#45;&gt;Node15 -->
<g id="edge30" class="edge">
<title>Node21&#45;&gt;Node15</title>
<path fill="none" stroke="#191970" d="M701.613,-112.3733C720.3103,-103.4241 748.3744,-89.9917 769.4934,-79.8835"/>
<polygon fill="#191970" stroke="#191970" points="771.1405,-82.9755 778.6494,-75.5011 768.1183,-76.6614 771.1405,-82.9755"/>
</g>
<!-- Node22&#45;&gt;Node13 -->
<g id="edge61" class="edge">
<title>Node22&#45;&gt;Node13</title>
<path fill="none" stroke="#191970" d="M608.6321,-392.4179C591.6862,-385.1131 571.1345,-373.3217 559.5,-356 512.5013,-286.0278 545.2553,-251.6021 534.5,-168 533.3945,-159.4071 531.9867,-149.9404 530.7239,-141.8403"/>
<polygon fill="#191970" stroke="#191970" points="534.1626,-141.1774 529.1338,-131.852 527.2496,-142.278 534.1626,-141.1774"/>
</g>
<!-- Node23 -->
<g id="node24" class="node">
<title>Node23</title>
<g id="a_node24"><a xlink:href="Position_8h.html" target="_top" xlink:title="iDynTree/Core/Position.h">
<polygon fill="none" stroke="#000000" points="568.5,-336.5 568.5,-355.5 704.5,-355.5 704.5,-336.5 568.5,-336.5"/>
<text text-anchor="middle" x="636.5" y="-343.5" font-family="FreeSans.ttf" font-size="10.00" fill="#000000">iDynTree/Core/Position.h</text>
</a>
</g>
</g>
<!-- Node22&#45;&gt;Node23 -->
<g id="edge32" class="edge">
<title>Node22&#45;&gt;Node23</title>
<path fill="none" stroke="#191970" d="M636.5,-392.2455C636.5,-384.9382 636.5,-374.6944 636.5,-365.7046"/>
<polygon fill="#191970" stroke="#191970" points="640.0001,-365.6426 636.5,-355.6427 633.0001,-365.6427 640.0001,-365.6426"/>
</g>
<!-- Node28 -->
<g id="node29" class="node">
<title>Node28</title>
<g id="a_node29"><a xlink:href="Rotation_8h.html" target="_top" xlink:title="iDynTree/Core/Rotation.h">
<polygon fill="none" stroke="#000000" points="693,-280.5 693,-299.5 830,-299.5 830,-280.5 693,-280.5"/>
<text text-anchor="middle" x="761.5" y="-287.5" font-family="FreeSans.ttf" font-size="10.00" fill="#000000">iDynTree/Core/Rotation.h</text>
</a>
</g>
</g>
<!-- Node22&#45;&gt;Node28 -->
<g id="edge59" class="edge">
<title>Node22&#45;&gt;Node28</title>
<path fill="none" stroke="#191970" d="M657.2993,-392.4804C673.7195,-384.3149 696.5999,-371.4392 713.5,-356 728.6283,-342.1795 741.983,-322.9101 750.7397,-308.7593"/>
<polygon fill="#191970" stroke="#191970" points="753.9032,-310.2888 756.0328,-299.9102 747.8958,-306.6955 753.9032,-310.2888"/>
</g>
<!-- Node31 -->
<g id="node32" class="node">
<title>Node31</title>
<g id="a_node32"><a xlink:href="MatrixFixSize_8h.html" target="_top" xlink:title="iDynTree/Core/MatrixFixSize.h">
<polygon fill="none" stroke="#000000" points="983,-168.5 983,-187.5 1144,-187.5 1144,-168.5 983,-168.5"/>
<text text-anchor="middle" x="1063.5" y="-175.5" font-family="FreeSans.ttf" font-size="10.00" fill="#000000">iDynTree/Core/MatrixFixSize.h</text>
</a>
</g>
</g>
<!-- Node22&#45;&gt;Node31 -->
<g id="edge60" class="edge">
<title>Node22&#45;&gt;Node31</title>
<path fill="none" stroke="#191970" d="M698.8848,-392.4498C824.8229,-371.7615 1102.1774,-318.5879 1157.5,-244 1174.9938,-220.4143 1141.2543,-202.1235 1109.437,-190.8408"/>
<polygon fill="#191970" stroke="#191970" points="1110.2772,-187.4309 1099.6832,-187.5661 1108.0492,-194.0669 1110.2772,-187.4309"/>
</g>
<!-- Node23&#45;&gt;Node13 -->
<g id="edge58" class="edge">
<title>Node23&#45;&gt;Node13</title>
<path fill="none" stroke="#191970" d="M623.9008,-336.403C603.6137,-320.0594 564.4705,-284.6205 549.5,-244 537.5307,-211.5229 578.4211,-200.4948 566.5,-168 562.4432,-156.9418 554.4203,-146.7193 546.7006,-138.7335"/>
<polygon fill="#191970" stroke="#191970" points="548.8698,-135.9632 539.24,-131.5451 544.0128,-141.0041 548.8698,-135.9632"/>
</g>
<!-- Node24 -->
<g id="node25" class="node">
<title>Node24</title>
<g id="a_node25"><a xlink:href="PositionRaw_8h.html" target="_top" xlink:title="iDynTree/Core/PositionRaw.h">
<polygon fill="none" stroke="#000000" points="558.5,-224.5 558.5,-243.5 714.5,-243.5 714.5,-224.5 558.5,-224.5"/>
<text text-anchor="middle" x="636.5" y="-231.5" font-family="FreeSans.ttf" font-size="10.00" fill="#000000">iDynTree/Core/PositionRaw.h</text>
</a>
</g>
</g>
<!-- Node23&#45;&gt;Node24 -->
<g id="edge33" class="edge">
<title>Node23&#45;&gt;Node24</title>
<path fill="none" stroke="#191970" d="M636.5,-336.4509C636.5,-318.184 636.5,-277.9553 636.5,-253.6976"/>
<polygon fill="#191970" stroke="#191970" points="640.0001,-253.5249 636.5,-243.5249 633.0001,-253.5249 640.0001,-253.5249"/>
</g>
<!-- Node23&#45;&gt;Node28 -->
<g id="edge43" class="edge">
<title>Node23&#45;&gt;Node28</title>
<path fill="none" stroke="#191970" d="M657.9883,-336.3733C678.144,-327.3435 708.488,-313.7494 731.118,-303.6111"/>
<polygon fill="#191970" stroke="#191970" points="732.5971,-306.7838 740.2921,-299.5011 729.7351,-300.3955 732.5971,-306.7838"/>
</g>
<!-- Node24&#45;&gt;Node13 -->
<g id="edge42" class="edge">
<title>Node24&#45;&gt;Node13</title>
<path fill="none" stroke="#191970" d="M633.8085,-224.4709C629.5159,-210.6625 619.9873,-184.8978 604.5,-168 591.8661,-154.2154 574.1432,-143.2417 558.885,-135.4748"/>
<polygon fill="#191970" stroke="#191970" points="560.2958,-132.2692 549.7706,-131.0567 557.2424,-138.5681 560.2958,-132.2692"/>
</g>
<!-- Node25 -->
<g id="node26" class="node">
<title>Node25</title>
<g id="a_node26"><a xlink:href="VectorFixSize_8h.html" target="_top" xlink:title="iDynTree/Core/VectorFixSize.h">
<polygon fill="none" stroke="#000000" points="803,-168.5 803,-187.5 964,-187.5 964,-168.5 803,-168.5"/>
<text text-anchor="middle" x="883.5" y="-175.5" font-family="FreeSans.ttf" font-size="10.00" fill="#000000">iDynTree/Core/VectorFixSize.h</text>
</a>
</g>
</g>
<!-- Node24&#45;&gt;Node25 -->
<g id="edge34" class="edge">
<title>Node24&#45;&gt;Node25</title>
<path fill="none" stroke="#191970" d="M678.6802,-224.4369C720.9523,-214.8529 786.1062,-200.0812 831.5417,-189.78"/>
<polygon fill="#191970" stroke="#191970" points="832.5152,-193.1482 841.4938,-187.5237 830.9674,-186.3215 832.5152,-193.1482"/>
</g>
<!-- Node25&#45;&gt;Node3 -->
<g id="edge36" class="edge">
<title>Node25&#45;&gt;Node3</title>
<path fill="none" stroke="#191970" d="M807.1253,-168.4659C735.9831,-159.087 635.3739,-144.4109 597.5,-132 578.9889,-125.9341 576.8616,-118.5044 558.5,-112 510.2565,-94.9104 453.6707,-83.228 410.1043,-75.9132"/>
<polygon fill="#191970" stroke="#191970" points="410.6055,-72.4487 400.1706,-74.2829 409.4717,-79.3563 410.6055,-72.4487"/>
</g>
<!-- Node25&#45;&gt;Node4 -->
<g id="edge39" class="edge">
<title>Node25&#45;&gt;Node4</title>
<path fill="none" stroke="#191970" d="M866.1262,-168.4208C830.151,-148.2785 749.2891,-101.3141 730.5,-76 720.4774,-62.4968 715.4323,-43.9438 712.9198,-29.9467"/>
<polygon fill="#191970" stroke="#191970" points="716.354,-29.2474 711.4011,-19.8815 709.4324,-30.2918 716.354,-29.2474"/>
</g>
<!-- Node25&#45;&gt;Node7 -->
<g id="edge40" class="edge">
<title>Node25&#45;&gt;Node7</title>
<path fill="none" stroke="#191970" d="M885.6241,-168.1883C889.9759,-145.1808 897.1628,-87.3391 867.5,-56 809.9747,4.7761 763.5367,-36.4056 676.1717,-19.8018"/>
<polygon fill="#191970" stroke="#191970" points="676.6795,-16.3318 666.1712,-17.6825 675.2283,-23.1797 676.6795,-16.3318"/>
</g>
<!-- Node25&#45;&gt;Node13 -->
<g id="edge37" class="edge">
<title>Node25&#45;&gt;Node13</title>
<path fill="none" stroke="#191970" d="M802.7792,-169.2997C737.774,-161.5978 644.2472,-148.9457 563.5,-132 562.2502,-131.7377 560.9797,-131.4566 559.699,-131.1612"/>
<polygon fill="#191970" stroke="#191970" points="560.4109,-127.7313 549.8594,-128.6889 558.7051,-134.5203 560.4109,-127.7313"/>
</g>
<!-- Node25&#45;&gt;Node15 -->
<g id="edge35" class="edge">
<title>Node25&#45;&gt;Node15</title>
<path fill="none" stroke="#191970" d="M876.2529,-168.4509C862.0132,-149.688 830.1889,-107.7548 811.977,-83.758"/>
<polygon fill="#191970" stroke="#191970" points="814.5622,-81.3747 805.7287,-75.5249 808.9862,-85.6065 814.5622,-81.3747"/>
</g>
<!-- Node26 -->
<g id="node27" class="node">
<title>Node26</title>
<polygon fill="none" stroke="#bfbfbf" points="911.5,-112.5 911.5,-131.5 967.5,-131.5 967.5,-112.5 911.5,-112.5"/>
<text text-anchor="middle" x="939.5" y="-119.5" font-family="FreeSans.ttf" font-size="10.00" fill="#000000">sstream</text>
</g>
<!-- Node25&#45;&gt;Node26 -->
<g id="edge38" class="edge">
<title>Node25&#45;&gt;Node26</title>
<path fill="none" stroke="#191970" d="M893.2545,-168.2455C901.3648,-160.1352 913.0925,-148.4075 922.7081,-138.7919"/>
<polygon fill="#191970" stroke="#191970" points="925.2611,-141.1887 929.8573,-131.6427 920.3113,-136.2389 925.2611,-141.1887"/>
</g>
<!-- Node27 -->
<g id="node28" class="node">
<title>Node27</title>
<polygon fill="none" stroke="#bfbfbf" points="985.5,-112.5 985.5,-131.5 1035.5,-131.5 1035.5,-112.5 985.5,-112.5"/>
<text text-anchor="middle" x="1010.5" y="-119.5" font-family="FreeSans.ttf" font-size="10.00" fill="#000000">cstring</text>
</g>
<!-- Node25&#45;&gt;Node27 -->
<g id="edge41" class="edge">
<title>Node25&#45;&gt;Node27</title>
<path fill="none" stroke="#191970" d="M905.3321,-168.3733C925.8103,-159.3435 956.6399,-145.7494 979.6319,-135.6111"/>
<polygon fill="#191970" stroke="#191970" points="981.215,-138.7383 988.9528,-131.5011 978.3907,-132.3333 981.215,-138.7383"/>
</g>
<!-- Node28&#45;&gt;Node13 -->
<g id="edge44" class="edge">
<title>Node28&#45;&gt;Node13</title>
<path fill="none" stroke="#191970" d="M757.9077,-280.4357C752.3166,-266.5833 740.3926,-240.7644 723.5,-224 698.4094,-199.0998 607.8585,-157.1857 559.1058,-135.6612"/>
<polygon fill="#191970" stroke="#191970" points="560.2234,-132.3294 549.6599,-131.515 557.4099,-138.7391 560.2234,-132.3294"/>
</g>
<!-- Node28&#45;&gt;Node25 -->
<g id="edge57" class="edge">
<title>Node28&#45;&gt;Node25</title>
<path fill="none" stroke="#191970" d="M765.2304,-280.4198C771.0229,-266.5476 783.3276,-240.7043 800.5,-224 814.518,-210.3641 833.3814,-199.4836 849.5828,-191.735"/>
<polygon fill="#191970" stroke="#191970" points="851.1202,-194.8805 858.7576,-187.5374 848.2079,-188.5151 851.1202,-194.8805"/>
</g>
<!-- Node29 -->
<g id="node30" class="node">
<title>Node29</title>
<g id="a_node30"><a xlink:href="GeomVector3_8h.html" target="_top" xlink:title="iDynTree/Core/GeomVector3.h">
<polygon fill="none" stroke="#000000" points="809,-224.5 809,-243.5 972,-243.5 972,-224.5 809,-224.5"/>
<text text-anchor="middle" x="890.5" y="-231.5" font-family="FreeSans.ttf" font-size="10.00" fill="#000000">iDynTree/Core/GeomVector3.h</text>
</a>
</g>
</g>
<!-- Node28&#45;&gt;Node29 -->
<g id="edge45" class="edge">
<title>Node28&#45;&gt;Node29</title>
<path fill="none" stroke="#191970" d="M783.6759,-280.3733C804.4766,-271.3435 835.7917,-257.7494 859.1458,-247.6111"/>
<polygon fill="#191970" stroke="#191970" points="860.8343,-250.6938 868.6135,-243.5011 858.0468,-244.2727 860.8343,-250.6938"/>
</g>
<!-- Node30 -->
<g id="node31" class="node">
<title>Node30</title>
<g id="a_node31"><a xlink:href="RotationRaw_8h.html" target="_top" xlink:title="iDynTree/Core/RotationRaw.h">
<polygon fill="none" stroke="#000000" points="990.5,-224.5 990.5,-243.5 1148.5,-243.5 1148.5,-224.5 990.5,-224.5"/>
<text text-anchor="middle" x="1069.5" y="-231.5" font-family="FreeSans.ttf" font-size="10.00" fill="#000000">iDynTree/Core/RotationRaw.h</text>
</a>
</g>
</g>
<!-- Node28&#45;&gt;Node30 -->
<g id="edge47" class="edge">
<title>Node28&#45;&gt;Node30</title>
<path fill="none" stroke="#191970" d="M814.0971,-280.4369C867.5841,-270.712 950.4492,-255.6456 1007.1933,-245.3285"/>
<polygon fill="#191970" stroke="#191970" points="1007.9072,-248.7562 1017.1198,-243.5237 1006.655,-241.8691 1007.9072,-248.7562"/>
</g>
<!-- Node29&#45;&gt;Node25 -->
<g id="edge46" class="edge">
<title>Node29&#45;&gt;Node25</title>
<path fill="none" stroke="#191970" d="M889.2807,-224.2455C888.3673,-216.9382 887.0868,-206.6944 885.9631,-197.7046"/>
<polygon fill="#191970" stroke="#191970" points="889.4187,-197.1313 884.7053,-187.6427 882.4728,-197.9996 889.4187,-197.1313"/>
</g>
<!-- Node30&#45;&gt;Node13 -->
<g id="edge56" class="edge">
<title>Node30&#45;&gt;Node13</title>
<path fill="none" stroke="#191970" d="M1000.0303,-224.487C931.547,-214.7301 831.8862,-199.4087 794.5,-188 773.9544,-181.7303 770.9675,-174.5204 750.5,-168 669.8561,-142.3091 645.8975,-151.3421 563.5,-132 562.2212,-131.6998 560.9195,-131.3846 559.6064,-131.0585"/>
<polygon fill="#191970" stroke="#191970" points="560.0725,-127.5627 549.5122,-128.4178 558.3008,-134.3348 560.0725,-127.5627"/>
</g>
<!-- Node30&#45;&gt;Node31 -->
<g id="edge48" class="edge">
<title>Node30&#45;&gt;Node31</title>
<path fill="none" stroke="#191970" d="M1068.4549,-224.2455C1067.672,-216.9382 1066.5744,-206.6944 1065.6112,-197.7046"/>
<polygon fill="#191970" stroke="#191970" points="1069.0786,-197.2129 1064.5331,-187.6427 1062.1185,-197.9587 1069.0786,-197.2129"/>
</g>
<!-- Node31&#45;&gt;Node4 -->
<g id="edge51" class="edge">
<title>Node31&#45;&gt;Node4</title>
<path fill="none" stroke="#191970" d="M1066.9349,-168.403C1071.2428,-154.5099 1076.689,-128.6408 1064.5,-112 1015.7439,-45.4362 966.7889,-78.8291 887.5,-56 873.9982,-52.1125 794.5434,-31.6082 746.7975,-19.3251"/>
<polygon fill="#191970" stroke="#191970" points="747.3947,-15.8649 736.8381,-16.7639 745.6513,-22.6443 747.3947,-15.8649"/>
</g>
<!-- Node31&#45;&gt;Node13 -->
<g id="edge53" class="edge">
<title>Node31&#45;&gt;Node13</title>
<path fill="none" stroke="#191970" d="M982.5532,-168.9472C979.4971,-168.624 976.4712,-168.3073 973.5,-168 806.5153,-150.7301 764.1945,-151.8759 597.5,-132 585.055,-130.5161 571.4031,-128.6253 559.4862,-126.8882"/>
<polygon fill="#191970" stroke="#191970" points="559.9392,-123.4172 549.5345,-125.4153 558.9142,-130.3418 559.9392,-123.4172"/>
</g>
<!-- Node31&#45;&gt;Node15 -->
<g id="edge49" class="edge">
<title>Node31&#45;&gt;Node15</title>
<path fill="none" stroke="#191970" d="M1063.6807,-168.3026C1063.3876,-153.7966 1060.5595,-126.5955 1044.5,-112 1019.1298,-88.9425 931.5594,-76.8323 868.1143,-70.9344"/>
<polygon fill="#191970" stroke="#191970" points="868.4249,-67.4483 858.1521,-70.0405 867.7992,-74.4203 868.4249,-67.4483"/>
</g>
<!-- Node31&#45;&gt;Node21 -->
<g id="edge50" class="edge">
<title>Node31&#45;&gt;Node21</title>
<path fill="none" stroke="#191970" d="M998.2659,-168.4369C931.2414,-158.6113 827.0222,-143.3331 756.6013,-133.0096"/>
<polygon fill="#191970" stroke="#191970" points="756.867,-129.5112 746.465,-131.5237 755.8516,-136.4372 756.867,-129.5112"/>
</g>
<!-- Node31&#45;&gt;Node26 -->
<g id="edge55" class="edge">
<title>Node31&#45;&gt;Node26</title>
<path fill="none" stroke="#191970" d="M1042.1836,-168.3733C1022.2784,-159.3838 992.3564,-145.8706 969.94,-135.7471"/>
<polygon fill="#191970" stroke="#191970" points="971.0925,-132.4272 960.5382,-131.5011 968.2113,-138.8068 971.0925,-132.4272"/>
</g>
<!-- Node31&#45;&gt;Node27 -->
<g id="edge52" class="edge">
<title>Node31&#45;&gt;Node27</title>
<path fill="none" stroke="#191970" d="M1054.2681,-168.2455C1046.6683,-160.2155 1035.7123,-148.6394 1026.6632,-139.0781"/>
<polygon fill="#191970" stroke="#191970" points="1029.042,-136.4998 1019.6261,-131.6427 1023.9579,-141.3115 1029.042,-136.4998"/>
</g>
<!-- Node32 -->
<g id="node33" class="node">
<title>Node32</title>
<polygon fill="none" stroke="#bfbfbf" points="1129.5,-112.5 1129.5,-131.5 1189.5,-131.5 1189.5,-112.5 1129.5,-112.5"/>
<text text-anchor="middle" x="1159.5" y="-119.5" font-family="FreeSans.ttf" font-size="10.00" fill="#000000">iostream</text>
</g>
<!-- Node31&#45;&gt;Node32 -->
<g id="edge54" class="edge">
<title>Node31&#45;&gt;Node32</title>
<path fill="none" stroke="#191970" d="M1080.2219,-168.2455C1095.0889,-159.5731 1117.0466,-146.7645 1134.0858,-136.825"/>
<polygon fill="#191970" stroke="#191970" points="1136.0955,-139.7047 1142.9697,-131.6427 1132.5683,-133.6582 1136.0955,-139.7047"/>
</g>
</g>
</svg>
