<?xml version="1.0" encoding="UTF-8" standalone="no"?>
<!DOCTYPE svg PUBLIC "-//W3C//DTD SVG 1.1//EN"
 "http://www.w3.org/Graphics/SVG/1.1/DTD/svg11.dtd">
<!-- Generated by graphviz version 2.40.1 (20161225.0304)
 -->
<!-- Title: ModelTestUtils.h Pages: 1 -->
<svg width="2315pt" height="800pt"
 viewBox="0.00 0.00 2314.50 800.00" xmlns="http://www.w3.org/2000/svg" xmlns:xlink="http://www.w3.org/1999/xlink">
<g id="graph0" class="graph" transform="scale(1 1) rotate(0) translate(4 796)">
<title>ModelTestUtils.h</title>
<!-- Node0 -->
<g id="node1" class="node">
<title>Node0</title>
<polygon fill="#bfbfbf" stroke="#000000" points="881,-772.5 881,-791.5 978,-791.5 978,-772.5 881,-772.5"/>
<text text-anchor="middle" x="929.5" y="-779.5" font-family="FreeSans.ttf" font-size="10.00" fill="#000000">ModelTestUtils.h</text>
</g>
<!-- Node1 -->
<g id="node2" class="node">
<title>Node1</title>
<g id="a_node2"><a xlink:href="Model_8h.html" target="_top" xlink:title="iDynTree/Model/Model.h">
<polygon fill="none" stroke="#000000" points="690,-716.5 690,-735.5 823,-735.5 823,-716.5 690,-716.5"/>
<text text-anchor="middle" x="756.5" y="-723.5" font-family="FreeSans.ttf" font-size="10.00" fill="#000000">iDynTree/Model/Model.h</text>
</a>
</g>
</g>
<!-- Node0&#45;&gt;Node1 -->
<g id="edge1" class="edge">
<title>Node0&#45;&gt;Node1</title>
<path fill="none" stroke="#191970" d="M899.7602,-772.3733C870.993,-763.0613 827.23,-748.8953 795.6444,-738.671"/>
<polygon fill="#191970" stroke="#191970" points="796.4436,-735.251 785.8517,-735.5011 794.2878,-741.9107 796.4436,-735.251"/>
</g>
<!-- Node2 -->
<g id="node3" class="node">
<title>Node2</title>
<g id="a_node3"><a xlink:href="IJoint_8h.html" target="_top" xlink:title="iDynTree/Model/IJoint.h">
<polygon fill="none" stroke="#000000" points="222.5,-593.5 222.5,-612.5 350.5,-612.5 350.5,-593.5 222.5,-593.5"/>
<text text-anchor="middle" x="286.5" y="-600.5" font-family="FreeSans.ttf" font-size="10.00" fill="#000000">iDynTree/Model/IJoint.h</text>
</a>
</g>
</g>
<!-- Node0&#45;&gt;Node2 -->
<g id="edge132" class="edge">
<title>Node0&#45;&gt;Node2</title>
<path fill="none" stroke="#191970" d="M880.857,-780.9124C786.5068,-778.1206 572.3704,-768.449 395.5,-736 305.9699,-719.5746 253.3632,-752.6324 198.5,-680 190.1957,-669.0061 191.3625,-660.7849 198.5,-649 207.6826,-633.8386 223.6848,-623.4355 239.5472,-616.4143"/>
<polygon fill="#191970" stroke="#191970" points="240.8624,-619.6579 248.818,-612.6607 238.2353,-613.1695 240.8624,-619.6579"/>
</g>
<!-- Node15 -->
<g id="node15" class="node">
<title>Node15</title>
<polygon fill="none" stroke="#bfbfbf" points="1702.5,-.5 1702.5,-19.5 1754.5,-19.5 1754.5,-.5 1702.5,-.5"/>
<text text-anchor="middle" x="1728.5" y="-7.5" font-family="FreeSans.ttf" font-size="10.00" fill="#000000">cassert</text>
</g>
<!-- Node0&#45;&gt;Node15 -->
<g id="edge131" class="edge">
<title>Node0&#45;&gt;Node15</title>
<path fill="none" stroke="#191970" d="M978.3445,-780.325C1219.1599,-771.7526 2268.5,-730.6061 2268.5,-664.5 2268.5,-664.5 2268.5,-664.5 2268.5,-122 2268.5,-70.4182 1885.858,-26.3148 1764.776,-13.6502"/>
<polygon fill="#191970" stroke="#191970" points="1764.8528,-10.1395 1754.5453,-12.59 1764.1313,-17.1022 1764.8528,-10.1395"/>
</g>
<!-- Node44 -->
<g id="node37" class="node">
<title>Node44</title>
<g id="a_node37"><a xlink:href="FixedJoint_8h.html" target="_top" xlink:title="iDynTree/Model/FixedJoint.h">
<polygon fill="none" stroke="#000000" points="0,-655 0,-674 151,-674 151,-655 0,-655"/>
<text text-anchor="middle" x="75.5" y="-662" font-family="FreeSans.ttf" font-size="10.00" fill="#000000">iDynTree/Model/FixedJoint.h</text>
</a>
</g>
</g>
<!-- Node0&#45;&gt;Node44 -->
<g id="edge77" class="edge">
<title>Node0&#45;&gt;Node44</title>
<path fill="none" stroke="#191970" d="M880.7474,-780.7671C722.8764,-776.5397 232.0047,-761.4694 165.5,-736 135.3916,-724.4694 107.44,-699.0149 90.9148,-681.804"/>
<polygon fill="#191970" stroke="#191970" points="93.1349,-679.0518 83.7609,-674.1143 88.0098,-683.8198 93.1349,-679.0518"/>
</g>
<!-- Node45 -->
<g id="node38" class="node">
<title>Node45</title>
<g id="a_node38"><a xlink:href="RevoluteJoint_8h.html" target="_top" xlink:title="iDynTree/Model/RevoluteJoint.h">
<polygon fill="none" stroke="#000000" points="404.5,-716.5 404.5,-735.5 572.5,-735.5 572.5,-716.5 404.5,-716.5"/>
<text text-anchor="middle" x="488.5" y="-723.5" font-family="FreeSans.ttf" font-size="10.00" fill="#000000">iDynTree/Model/RevoluteJoint.h</text>
</a>
</g>
</g>
<!-- Node0&#45;&gt;Node45 -->
<g id="edge81" class="edge">
<title>Node0&#45;&gt;Node45</title>
<path fill="none" stroke="#191970" d="M880.6203,-775.7931C806.4794,-766.3783 664.5923,-748.3609 573.3615,-736.7761"/>
<polygon fill="#191970" stroke="#191970" points="573.6826,-733.2888 563.3213,-735.5011 572.8007,-740.2331 573.6826,-733.2888"/>
</g>
<!-- Node49 -->
<g id="node42" class="node">
<title>Node49</title>
<g id="a_node42"><a xlink:href="FreeFloatingState_8h.html" target="_top" xlink:title="iDynTree/Model/FreeFloating\lState.h">
<polygon fill="none" stroke="#000000" points="1036.5,-649.5 1036.5,-679.5 1190.5,-679.5 1190.5,-649.5 1036.5,-649.5"/>
<text text-anchor="start" x="1044.5" y="-667.5" font-family="FreeSans.ttf" font-size="10.00" fill="#000000">iDynTree/Model/FreeFloating</text>
<text text-anchor="middle" x="1113.5" y="-656.5" font-family="FreeSans.ttf" font-size="10.00" fill="#000000">State.h</text>
</a>
</g>
</g>
<!-- Node0&#45;&gt;Node49 -->
<g id="edge95" class="edge">
<title>Node0&#45;&gt;Node49</title>
<path fill="none" stroke="#191970" d="M951.0779,-772.4892C969.9161,-763.8619 997.7272,-750.3325 1020.5,-736 1044.565,-720.8542 1070.0427,-700.962 1088.2343,-686.0054"/>
<polygon fill="#191970" stroke="#191970" points="1090.5919,-688.5971 1096.0487,-679.5156 1086.1196,-683.2121 1090.5919,-688.5971"/>
</g>
<!-- Node51 -->
<g id="node44" class="node">
<title>Node51</title>
<g id="a_node44"><a xlink:href="LinkState_8h.html" target="_top" xlink:title="iDynTree/Model/LinkState.h">
<polygon fill="none" stroke="#000000" points="983,-593.5 983,-612.5 1132,-612.5 1132,-593.5 983,-593.5"/>
<text text-anchor="middle" x="1057.5" y="-600.5" font-family="FreeSans.ttf" font-size="10.00" fill="#000000">iDynTree/Model/LinkState.h</text>
</a>
</g>
</g>
<!-- Node0&#45;&gt;Node51 -->
<g id="edge118" class="edge">
<title>Node0&#45;&gt;Node51</title>
<path fill="none" stroke="#191970" d="M936.3818,-772.3762C956.8705,-743.7241 1017.7093,-658.6448 1044.5406,-621.1229"/>
<polygon fill="#191970" stroke="#191970" points="1047.6144,-622.8415 1050.5841,-612.6714 1041.9204,-618.7698 1047.6144,-622.8415"/>
</g>
<!-- Node54 -->
<g id="node47" class="node">
<title>Node54</title>
<g id="a_node47"><a xlink:href="TestUtils_8h.html" target="_top" xlink:title="iDynTree/Core/TestUtils.h">
<polygon fill="none" stroke="#000000" points="2101,-532 2101,-551 2240,-551 2240,-532 2101,-532"/>
<text text-anchor="middle" x="2170.5" y="-539" font-family="FreeSans.ttf" font-size="10.00" fill="#000000">iDynTree/Core/TestUtils.h</text>
</a>
</g>
</g>
<!-- Node0&#45;&gt;Node54 -->
<g id="edge119" class="edge">
<title>Node0&#45;&gt;Node54</title>
<path fill="none" stroke="#191970" d="M978.1695,-777.0193C1095.3119,-764.6266 1401.9658,-729.7756 1654.5,-680 1772.8453,-656.6736 1801.0078,-644.2936 1917.5,-613 1991.732,-593.0589 2077.7788,-568.4139 2127.9759,-553.8821"/>
<polygon fill="#191970" stroke="#191970" points="2129.1943,-557.1731 2137.8246,-551.0276 2127.2456,-550.4498 2129.1943,-557.1731"/>
</g>
<!-- Node1&#45;&gt;Node2 -->
<g id="edge2" class="edge">
<title>Node1&#45;&gt;Node2</title>
<path fill="none" stroke="#191970" d="M702.0403,-716.4897C656.248,-708.1059 589.2076,-694.9251 531.5,-680 456.7451,-660.6658 371.0104,-632.2522 323.3623,-615.8915"/>
<polygon fill="#191970" stroke="#191970" points="324.3851,-612.542 313.7904,-612.5909 322.1032,-619.1596 324.3851,-612.542"/>
</g>
<!-- Node3 -->
<g id="node4" class="node">
<title>Node3</title>
<g id="a_node4"><a xlink:href="Indices_8h.html" target="_top" xlink:title="iDynTree/Model/Indices.h">
<polygon fill="none" stroke="#000000" points="319.5,-532 319.5,-551 457.5,-551 457.5,-532 319.5,-532"/>
<text text-anchor="middle" x="388.5" y="-539" font-family="FreeSans.ttf" font-size="10.00" fill="#000000">iDynTree/Model/Indices.h</text>
</a>
</g>
</g>
<!-- Node1&#45;&gt;Node3 -->
<g id="edge68" class="edge">
<title>Node1&#45;&gt;Node3</title>
<path fill="none" stroke="#191970" d="M721.6246,-716.43C693.6753,-708.236 653.7711,-695.3466 620.5,-680 539.3178,-642.554 450.4272,-584.1004 410.3005,-556.6728"/>
<polygon fill="#191970" stroke="#191970" points="412.2804,-553.7866 402.0573,-551.0046 408.3142,-559.5546 412.2804,-553.7866"/>
</g>
<!-- Node7 -->
<g id="node8" class="node">
<title>Node7</title>
<g id="a_node8"><a xlink:href="Link_8h.html" target="_top" xlink:title="iDynTree/Model/Link.h">
<polygon fill="none" stroke="#000000" points="649.5,-655 649.5,-674 773.5,-674 773.5,-655 649.5,-655"/>
<text text-anchor="middle" x="711.5" y="-662" font-family="FreeSans.ttf" font-size="10.00" fill="#000000">iDynTree/Model/Link.h</text>
</a>
</g>
</g>
<!-- Node1&#45;&gt;Node7 -->
<g id="edge7" class="edge">
<title>Node1&#45;&gt;Node7</title>
<path fill="none" stroke="#191970" d="M749.4688,-716.3906C742.837,-707.3273 732.7304,-693.5149 724.6113,-682.4188"/>
<polygon fill="#191970" stroke="#191970" points="727.3601,-680.2484 718.6304,-674.2449 721.7109,-684.382 727.3601,-680.2484"/>
</g>
<!-- Node40 -->
<g id="node33" class="node">
<title>Node40</title>
<g id="a_node33"><a xlink:href="Transform_8h.html" target="_top" xlink:title="iDynTree/Core/Transform.h">
<polygon fill="none" stroke="#000000" points="553.5,-532 553.5,-551 699.5,-551 699.5,-532 553.5,-532"/>
<text text-anchor="middle" x="626.5" y="-539" font-family="FreeSans.ttf" font-size="10.00" fill="#000000">iDynTree/Core/Transform.h</text>
</a>
</g>
</g>
<!-- Node1&#45;&gt;Node40 -->
<g id="edge63" class="edge">
<title>Node1&#45;&gt;Node40</title>
<path fill="none" stroke="#191970" d="M699.4602,-716.4636C677.6651,-709.8756 654.6694,-698.7553 640.5,-680 614.1349,-645.1019 618.0502,-590.3282 622.6094,-561.2214"/>
<polygon fill="#191970" stroke="#191970" points="626.1054,-561.5486 624.3897,-551.0936 619.2112,-560.3366 626.1054,-561.5486"/>
</g>
<!-- Node41 -->
<g id="node34" class="node">
<title>Node41</title>
<g id="a_node34"><a xlink:href="SolidShapes_8h.html" target="_top" xlink:title="iDynTree/Model/SolidShapes.h">
<polygon fill="none" stroke="#000000" points="688,-593.5 688,-612.5 851,-612.5 851,-593.5 688,-593.5"/>
<text text-anchor="middle" x="769.5" y="-600.5" font-family="FreeSans.ttf" font-size="10.00" fill="#000000">iDynTree/Model/SolidShapes.h</text>
</a>
</g>
</g>
<!-- Node1&#45;&gt;Node41 -->
<g id="edge69" class="edge">
<title>Node1&#45;&gt;Node41</title>
<path fill="none" stroke="#191970" d="M763.8819,-716.4183C770.2273,-707.5336 778.9061,-693.6624 782.5,-680 787.6001,-660.6118 782.4706,-637.9301 777.2277,-622.229"/>
<polygon fill="#191970" stroke="#191970" points="780.4277,-620.7886 773.7042,-612.6005 773.854,-623.1943 780.4277,-620.7886"/>
</g>
<!-- Node42 -->
<g id="node35" class="node">
<title>Node42</title>
<polygon fill="none" stroke="#bfbfbf" points="834,-465 834,-484 883,-484 883,-465 834,-465"/>
<text text-anchor="middle" x="858.5" y="-472" font-family="FreeSans.ttf" font-size="10.00" fill="#000000">cstdlib</text>
</g>
<!-- Node1&#45;&gt;Node42 -->
<g id="edge75" class="edge">
<title>Node1&#45;&gt;Node42</title>
<path fill="none" stroke="#191970" d="M770.3786,-716.4779C794.2271,-699.1646 842.185,-659.9453 860.5,-613 868.7093,-591.9577 863.7938,-527.2208 860.595,-494.2454"/>
<polygon fill="#191970" stroke="#191970" points="864.0502,-493.6259 859.5595,-484.0299 857.0859,-494.3319 864.0502,-493.6259"/>
</g>
<!-- Node43 -->
<g id="node36" class="node">
<title>Node43</title>
<polygon fill="none" stroke="#bfbfbf" points="1821,-465 1821,-484 1868,-484 1868,-465 1821,-465"/>
<text text-anchor="middle" x="1844.5" y="-472" font-family="FreeSans.ttf" font-size="10.00" fill="#000000">vector</text>
</g>
<!-- Node1&#45;&gt;Node43 -->
<g id="edge76" class="edge">
<title>Node1&#45;&gt;Node43</title>
<path fill="none" stroke="#191970" d="M823.3228,-723.6765C1050.6031,-715.167 1783.958,-682.5063 1861.5,-613 1890.5652,-586.9468 1883.3997,-563.7565 1873.5,-526 1870.3771,-514.0893 1863.8098,-502.029 1857.7135,-492.5764"/>
<polygon fill="#191970" stroke="#191970" points="1860.4502,-490.3777 1851.9191,-484.0952 1854.6704,-494.3266 1860.4502,-490.3777"/>
</g>
<!-- Node2&#45;&gt;Node3 -->
<g id="edge3" class="edge">
<title>Node2&#45;&gt;Node3</title>
<path fill="none" stroke="#191970" d="M302.4375,-593.3906C318.9051,-583.4616 344.8258,-567.833 363.9204,-556.3201"/>
<polygon fill="#191970" stroke="#191970" points="365.9178,-559.2027 372.6744,-551.0419 362.3034,-553.2081 365.9178,-559.2027"/>
</g>
<!-- Node4 -->
<g id="node5" class="node">
<title>Node4</title>
<polygon fill="none" stroke="#bfbfbf" points="1206,-.5 1206,-19.5 1259,-19.5 1259,-.5 1206,-.5"/>
<text text-anchor="middle" x="1232.5" y="-7.5" font-family="FreeSans.ttf" font-size="10.00" fill="#000000">cstddef</text>
</g>
<!-- Node3&#45;&gt;Node4 -->
<g id="edge4" class="edge">
<title>Node3&#45;&gt;Node4</title>
<path fill="none" stroke="#191970" d="M376.6081,-531.9104C353.6579,-512.238 305.5,-464.7883 305.5,-413 305.5,-413 305.5,-413 305.5,-122 305.5,-30.6995 1023.3892,-13.3549 1195.6647,-10.5071"/>
<polygon fill="#191970" stroke="#191970" points="1195.8133,-14.0053 1205.7564,-10.3467 1195.702,-7.0061 1195.8133,-14.0053"/>
</g>
<!-- Node5 -->
<g id="node6" class="node">
<title>Node5</title>
<polygon fill="none" stroke="#bfbfbf" points="783.5,-112.5 783.5,-131.5 827.5,-131.5 827.5,-112.5 783.5,-112.5"/>
<text text-anchor="middle" x="805.5" y="-119.5" font-family="FreeSans.ttf" font-size="10.00" fill="#000000">string</text>
</g>
<!-- Node3&#45;&gt;Node5 -->
<g id="edge5" class="edge">
<title>Node3&#45;&gt;Node5</title>
<path fill="none" stroke="#191970" d="M381.8395,-531.7819C375.4403,-521.8093 366.2121,-505.5894 362.5,-490 353.5433,-452.385 356.1121,-441.1354 362.5,-403 380.7508,-294.0434 357.781,-237.6915 443.5,-168 468.9003,-147.349 689.2613,-130.0586 773.2092,-124.164"/>
<polygon fill="#191970" stroke="#191970" points="773.7001,-127.6384 783.4341,-123.4552 773.216,-120.6552 773.7001,-127.6384"/>
</g>
<!-- Node6 -->
<g id="node7" class="node">
<title>Node6</title>
<polygon fill="none" stroke="#bfbfbf" points="371.5,-465 371.5,-484 457.5,-484 457.5,-465 371.5,-465"/>
<text text-anchor="middle" x="414.5" y="-472" font-family="FreeSans.ttf" font-size="10.00" fill="#000000">ModelExport.h</text>
</g>
<!-- Node3&#45;&gt;Node6 -->
<g id="edge6" class="edge">
<title>Node3&#45;&gt;Node6</title>
<path fill="none" stroke="#191970" d="M392.2252,-531.9005C396.0866,-521.95 402.226,-506.1292 407.0823,-493.6147"/>
<polygon fill="#191970" stroke="#191970" points="410.4269,-494.6706 410.7817,-484.0817 403.901,-492.1381 410.4269,-494.6706"/>
</g>
<!-- Node7&#45;&gt;Node3 -->
<g id="edge62" class="edge">
<title>Node7&#45;&gt;Node3</title>
<path fill="none" stroke="#191970" d="M693.1635,-654.7937C664.9767,-640.123 609.0586,-612.0003 559.5,-593 518.3956,-577.241 470.285,-563.1207 435.584,-553.6691"/>
<polygon fill="#191970" stroke="#191970" points="436.2857,-550.2334 425.7193,-551.0095 434.4635,-556.9921 436.2857,-550.2334"/>
</g>
<!-- Node8 -->
<g id="node9" class="node">
<title>Node8</title>
<g id="a_node9"><a xlink:href="SpatialInertia_8h.html" target="_top" xlink:title="iDynTree/Core/SpatialInertia.h">
<polygon fill="none" stroke="#000000" points="1237.5,-593.5 1237.5,-612.5 1399.5,-612.5 1399.5,-593.5 1237.5,-593.5"/>
<text text-anchor="middle" x="1318.5" y="-600.5" font-family="FreeSans.ttf" font-size="10.00" fill="#000000">iDynTree/Core/SpatialInertia.h</text>
</a>
</g>
</g>
<!-- Node7&#45;&gt;Node8 -->
<g id="edge8" class="edge">
<title>Node7&#45;&gt;Node8</title>
<path fill="none" stroke="#191970" d="M773.6071,-658.2074C881.0253,-647.324 1101.9752,-624.9378 1227.0077,-612.2698"/>
<polygon fill="#191970" stroke="#191970" points="1227.7243,-615.7152 1237.3205,-611.2249 1227.0186,-608.7509 1227.7243,-615.7152"/>
</g>
<!-- Node9 -->
<g id="node10" class="node">
<title>Node9</title>
<g id="a_node10"><a xlink:href="SpatialInertiaRaw_8h.html" target="_top" xlink:title="iDynTree/Core/SpatialInertia\lRaw.h">
<polygon fill="none" stroke="#ff0000" points="1442,-526.5 1442,-556.5 1595,-556.5 1595,-526.5 1442,-526.5"/>
<text text-anchor="start" x="1450" y="-544.5" font-family="FreeSans.ttf" font-size="10.00" fill="#000000">iDynTree/Core/SpatialInertia</text>
<text text-anchor="middle" x="1518.5" y="-533.5" font-family="FreeSans.ttf" font-size="10.00" fill="#000000">Raw.h</text>
</a>
</g>
</g>
<!-- Node8&#45;&gt;Node9 -->
<g id="edge9" class="edge">
<title>Node8&#45;&gt;Node9</title>
<path fill="none" stroke="#191970" d="M1349.75,-593.3906C1379.0732,-584.3737 1423.6826,-570.6563 1459.6721,-559.5896"/>
<polygon fill="#191970" stroke="#191970" points="1461.0449,-562.8292 1469.5745,-556.5446 1458.9874,-556.1384 1461.0449,-562.8292"/>
</g>
<!-- Node27 -->
<g id="node11" class="node">
<title>Node27</title>
<g id="a_node11"><a xlink:href="VectorFixSize_8h.html" target="_top" xlink:title="iDynTree/Core/VectorFixSize.h">
<polygon fill="none" stroke="#ff0000" points="1228,-168.5 1228,-187.5 1389,-187.5 1389,-168.5 1228,-168.5"/>
<text text-anchor="middle" x="1308.5" y="-175.5" font-family="FreeSans.ttf" font-size="10.00" fill="#000000">iDynTree/Core/VectorFixSize.h</text>
</a>
</g>
</g>
<!-- Node8&#45;&gt;Node27 -->
<g id="edge10" class="edge">
<title>Node8&#45;&gt;Node27</title>
<path fill="none" stroke="#191970" d="M1335.7961,-593.3725C1351.4616,-584.4571 1375.0042,-570.5664 1394.5,-557 1412.6748,-544.3529 1415.3955,-538.7475 1433.5,-526 1504.4935,-476.0132 1557.2859,-498.8731 1599.5,-423 1603.8217,-415.2324 1600.0187,-411.8737 1599.5,-403 1594.8254,-323.0353 1633.6495,-282.0925 1578.5,-224 1571.8224,-216.9661 1463.9629,-200.2103 1386.6207,-188.9837"/>
<polygon fill="#191970" stroke="#191970" points="1386.7975,-185.473 1376.3996,-187.5064 1385.7961,-192.401 1386.7975,-185.473"/>
</g>
<!-- Node28 -->
<g id="node18" class="node">
<title>Node28</title>
<g id="a_node18"><a xlink:href="Twist_8h.html" target="_top" xlink:title="iDynTree/Core/Twist.h">
<polygon fill="none" stroke="#000000" points="1111.5,-532 1111.5,-551 1233.5,-551 1233.5,-532 1111.5,-532"/>
<text text-anchor="middle" x="1172.5" y="-539" font-family="FreeSans.ttf" font-size="10.00" fill="#000000">iDynTree/Core/Twist.h</text>
</a>
</g>
</g>
<!-- Node8&#45;&gt;Node28 -->
<g id="edge22" class="edge">
<title>Node8&#45;&gt;Node28</title>
<path fill="none" stroke="#191970" d="M1295.6875,-593.3906C1271.1519,-583.0554 1231.9558,-566.5447 1204.3789,-554.9284"/>
<polygon fill="#191970" stroke="#191970" points="1205.7268,-551.6984 1195.1523,-551.0419 1203.0094,-558.1495 1205.7268,-551.6984"/>
</g>
<!-- Node36 -->
<g id="node29" class="node">
<title>Node36</title>
<g id="a_node29"><a xlink:href="SpatialMomentum_8h.html" target="_top" xlink:title="iDynTree/Core/SpatialMomentum.h">
<polygon fill="none" stroke="#000000" points="1613.5,-532 1613.5,-551 1799.5,-551 1799.5,-532 1613.5,-532"/>
<text text-anchor="middle" x="1706.5" y="-539" font-family="FreeSans.ttf" font-size="10.00" fill="#000000">iDynTree/Core/SpatialMomentum.h</text>
</a>
</g>
</g>
<!-- Node8&#45;&gt;Node36 -->
<g id="edge53" class="edge">
<title>Node8&#45;&gt;Node36</title>
<path fill="none" stroke="#191970" d="M1378.6993,-593.4581C1448.3273,-582.4217 1562.7893,-564.2789 1636.3756,-552.6151"/>
<polygon fill="#191970" stroke="#191970" points="1637.15,-556.0361 1646.4787,-551.0137 1636.0541,-549.1224 1637.15,-556.0361"/>
</g>
<!-- Node38 -->
<g id="node31" class="node">
<title>Node38</title>
<g id="a_node31"><a xlink:href="SpatialAcc_8h.html" target="_top" xlink:title="iDynTree/Core/SpatialAcc.h">
<polygon fill="none" stroke="#000000" points="907.5,-532 907.5,-551 1055.5,-551 1055.5,-532 907.5,-532"/>
<text text-anchor="middle" x="981.5" y="-539" font-family="FreeSans.ttf" font-size="10.00" fill="#000000">iDynTree/Core/SpatialAcc.h</text>
</a>
</g>
</g>
<!-- Node8&#45;&gt;Node38 -->
<g id="edge58" class="edge">
<title>Node8&#45;&gt;Node38</title>
<path fill="none" stroke="#191970" d="M1266.2135,-593.4581C1206.1086,-582.4894 1107.5393,-564.5012 1043.5873,-552.8305"/>
<polygon fill="#191970" stroke="#191970" points="1044.0978,-549.3659 1033.6319,-551.0137 1042.841,-556.2522 1044.0978,-549.3659"/>
</g>
<!-- Node39 -->
<g id="node32" class="node">
<title>Node39</title>
<g id="a_node32"><a xlink:href="Wrench_8h.html" target="_top" xlink:title="iDynTree/Core/Wrench.h">
<polygon fill="none" stroke="#000000" points="1252,-532 1252,-551 1385,-551 1385,-532 1252,-532"/>
<text text-anchor="middle" x="1318.5" y="-539" font-family="FreeSans.ttf" font-size="10.00" fill="#000000">iDynTree/Core/Wrench.h</text>
</a>
</g>
</g>
<!-- Node8&#45;&gt;Node39 -->
<g id="edge60" class="edge">
<title>Node8&#45;&gt;Node39</title>
<path fill="none" stroke="#191970" d="M1318.5,-593.3906C1318.5,-584.8657 1318.5,-572.1392 1318.5,-561.4235"/>
<polygon fill="#191970" stroke="#191970" points="1322.0001,-561.2448 1318.5,-551.2449 1315.0001,-561.2449 1322.0001,-561.2448"/>
</g>
<!-- Node27&#45;&gt;Node4 -->
<g id="edge20" class="edge">
<title>Node27&#45;&gt;Node4</title>
<path fill="none" stroke="#191970" d="M1301.8684,-168.2902C1290.0667,-150.6321 1265.2739,-111.7744 1250.5,-76 1244.2665,-60.9059 1239.5364,-42.986 1236.493,-29.6304"/>
<polygon fill="#191970" stroke="#191970" points="1239.8692,-28.6832 1234.3372,-19.6473 1233.0269,-30.1608 1239.8692,-28.6832"/>
</g>
<!-- Node27&#45;&gt;Node5 -->
<g id="edge18" class="edge">
<title>Node27&#45;&gt;Node5</title>
<path fill="none" stroke="#191970" d="M1227.9633,-169.0337C1115.3089,-156.4916 915.7524,-134.2746 837.8889,-125.6059"/>
<polygon fill="#191970" stroke="#191970" points="838.0573,-122.1031 827.7314,-124.4751 837.2827,-129.0601 838.0573,-122.1031"/>
</g>
<!-- Node12 -->
<g id="node12" class="node">
<title>Node12</title>
<g id="a_node12"><a xlink:href="Utils_8h.html" target="_top" xlink:title="iDynTree/Core/Utils.h">
<polygon fill="none" stroke="#000000" points="1259,-56.5 1259,-75.5 1378,-75.5 1378,-56.5 1259,-56.5"/>
<text text-anchor="middle" x="1318.5" y="-63.5" font-family="FreeSans.ttf" font-size="10.00" fill="#000000">iDynTree/Core/Utils.h</text>
</a>
</g>
</g>
<!-- Node27&#45;&gt;Node12 -->
<g id="edge11" class="edge">
<title>Node27&#45;&gt;Node12</title>
<path fill="none" stroke="#191970" d="M1309.3526,-168.4509C1310.9836,-150.184 1314.5754,-109.9553 1316.7413,-85.6976"/>
<polygon fill="#191970" stroke="#191970" points="1320.2463,-85.7966 1317.6496,-75.5249 1313.274,-85.174 1320.2463,-85.7966"/>
</g>
<!-- Node17 -->
<g id="node14" class="node">
<title>Node17</title>
<g id="a_node14"><a xlink:href="Span_8h.html" target="_top" xlink:title="iDynTree/Core/Span.h">
<polygon fill="none" stroke="#ff0000" points="1668,-56.5 1668,-75.5 1789,-75.5 1789,-56.5 1668,-56.5"/>
<text text-anchor="middle" x="1728.5" y="-63.5" font-family="FreeSans.ttf" font-size="10.00" fill="#000000">iDynTree/Core/Span.h</text>
</a>
</g>
</g>
<!-- Node27&#45;&gt;Node17 -->
<g id="edge14" class="edge">
<title>Node27&#45;&gt;Node17</title>
<path fill="none" stroke="#191970" d="M1332.6664,-168.4449C1355.4405,-159.3529 1390.4589,-145.1473 1420.5,-132 1439.809,-123.5495 1443.3868,-118.3014 1463.5,-112 1527.7571,-91.8683 1603.7093,-79.8208 1657.7912,-73.1378"/>
<polygon fill="#191970" stroke="#191970" points="1658.4568,-76.583 1667.9663,-71.9118 1657.6194,-69.6333 1658.4568,-76.583"/>
</g>
<!-- Node27&#45;&gt;Node15 -->
<g id="edge19" class="edge">
<title>Node27&#45;&gt;Node15</title>
<path fill="none" stroke="#191970" d="M1322.4716,-168.4433C1343.1651,-154.6003 1383.5084,-128.7932 1420.5,-112 1515.335,-68.9475 1633.85,-34.8759 1692.3672,-19.2709"/>
<polygon fill="#191970" stroke="#191970" points="1693.4667,-22.6006 1702.2406,-16.6618 1691.6782,-15.8329 1693.4667,-22.6006"/>
</g>
<!-- Node24 -->
<g id="node17" class="node">
<title>Node24</title>
<polygon fill="none" stroke="#bfbfbf" points="1472.5,-112.5 1472.5,-131.5 1522.5,-131.5 1522.5,-112.5 1472.5,-112.5"/>
<text text-anchor="middle" x="1497.5" y="-119.5" font-family="FreeSans.ttf" font-size="10.00" fill="#000000">cstring</text>
</g>
<!-- Node27&#45;&gt;Node24 -->
<g id="edge21" class="edge">
<title>Node27&#45;&gt;Node24</title>
<path fill="none" stroke="#191970" d="M1340.9903,-168.3733C1374.8996,-158.3261 1427.8807,-142.6279 1462.6457,-132.3272"/>
<polygon fill="#191970" stroke="#191970" points="1463.7789,-135.6419 1472.3725,-129.4452 1461.7902,-128.9303 1463.7789,-135.6419"/>
</g>
<!-- Node12&#45;&gt;Node4 -->
<g id="edge12" class="edge">
<title>Node12&#45;&gt;Node4</title>
<path fill="none" stroke="#191970" d="M1303.5199,-56.2455C1290.3249,-47.6534 1270.8949,-35.0014 1255.6921,-25.1018"/>
<polygon fill="#191970" stroke="#191970" points="1257.5983,-22.1665 1247.3084,-19.6427 1253.7785,-28.0325 1257.5983,-22.1665"/>
</g>
<!-- Node13 -->
<g id="node13" class="node">
<title>Node13</title>
<polygon fill="none" stroke="#bfbfbf" points="1278.5,-.5 1278.5,-19.5 1358.5,-19.5 1358.5,-.5 1278.5,-.5"/>
<text text-anchor="middle" x="1318.5" y="-7.5" font-family="FreeSans.ttf" font-size="10.00" fill="#000000">CoreExport.h</text>
</g>
<!-- Node12&#45;&gt;Node13 -->
<g id="edge13" class="edge">
<title>Node12&#45;&gt;Node13</title>
<path fill="none" stroke="#191970" d="M1318.5,-56.2455C1318.5,-48.9382 1318.5,-38.6944 1318.5,-29.7046"/>
<polygon fill="#191970" stroke="#191970" points="1322.0001,-29.6426 1318.5,-19.6427 1315.0001,-29.6427 1322.0001,-29.6426"/>
</g>
<!-- Node17&#45;&gt;Node4 -->
<g id="edge17" class="edge">
<title>Node17&#45;&gt;Node4</title>
<path fill="none" stroke="#191970" d="M1667.9088,-63.0994C1579.6623,-58.1597 1410.8832,-46.0086 1269.5,-20 1269.2873,-19.9609 1269.0741,-19.9211 1268.8603,-19.8808"/>
<polygon fill="#191970" stroke="#191970" points="1269.5744,-16.4543 1259.0575,-17.7373 1268.079,-23.2927 1269.5744,-16.4543"/>
</g>
<!-- Node17&#45;&gt;Node15 -->
<g id="edge15" class="edge">
<title>Node17&#45;&gt;Node15</title>
<path fill="none" stroke="#191970" d="M1728.5,-56.2455C1728.5,-48.9382 1728.5,-38.6944 1728.5,-29.7046"/>
<polygon fill="#191970" stroke="#191970" points="1732.0001,-29.6426 1728.5,-19.6427 1725.0001,-29.6427 1732.0001,-29.6426"/>
</g>
<!-- Node18 -->
<g id="node16" class="node">
<title>Node18</title>
<polygon fill="none" stroke="#bfbfbf" points="2020.5,-.5 2020.5,-19.5 2084.5,-19.5 2084.5,-.5 2020.5,-.5"/>
<text text-anchor="middle" x="2052.5" y="-7.5" font-family="FreeSans.ttf" font-size="10.00" fill="#000000">algorithm</text>
</g>
<!-- Node17&#45;&gt;Node18 -->
<g id="edge16" class="edge">
<title>Node17&#45;&gt;Node18</title>
<path fill="none" stroke="#191970" d="M1783.8294,-56.4369C1847.9381,-45.3564 1952.1671,-27.3415 2010.1588,-17.3182"/>
<polygon fill="#191970" stroke="#191970" points="2010.828,-20.7545 2020.0858,-15.6025 2009.6358,-13.8568 2010.828,-20.7545"/>
</g>
<!-- Node29 -->
<g id="node19" class="node">
<title>Node29</title>
<g id="a_node19"><a xlink:href="SpatialMotionVector_8h.html" target="_top" xlink:title="iDynTree/Core/SpatialMotion\lVector.h">
<polygon fill="none" stroke="#000000" points="1304,-459.5 1304,-489.5 1459,-489.5 1459,-459.5 1304,-459.5"/>
<text text-anchor="start" x="1312" y="-477.5" font-family="FreeSans.ttf" font-size="10.00" fill="#000000">iDynTree/Core/SpatialMotion</text>
<text text-anchor="middle" x="1381.5" y="-466.5" font-family="FreeSans.ttf" font-size="10.00" fill="#000000">Vector.h</text>
</a>
</g>
</g>
<!-- Node28&#45;&gt;Node29 -->
<g id="edge23" class="edge">
<title>Node28&#45;&gt;Node29</title>
<path fill="none" stroke="#191970" d="M1202.4446,-531.9005C1234.285,-521.6933 1285.3939,-505.3091 1324.8733,-492.6531"/>
<polygon fill="#191970" stroke="#191970" points="1326.1869,-495.9075 1334.6411,-489.5218 1324.0499,-489.2416 1326.1869,-495.9075"/>
</g>
<!-- Node29&#45;&gt;Node27 -->
<g id="edge24" class="edge">
<title>Node29&#45;&gt;Node27</title>
<path fill="none" stroke="#191970" d="M1383.6995,-459.3873C1388.88,-418.8034 1398.5771,-305.0331 1358.5,-224 1352.5355,-211.9403 1341.96,-201.4952 1332.0666,-193.62"/>
<polygon fill="#191970" stroke="#191970" points="1334.1417,-190.8015 1324.0326,-187.6303 1329.9577,-196.4135 1334.1417,-190.8015"/>
</g>
<!-- Node30 -->
<g id="node20" class="node">
<title>Node30</title>
<g id="a_node20"><a xlink:href="GeomVector3_8h.html" target="_top" xlink:title="iDynTree/Core/GeomVector3.h">
<polygon fill="none" stroke="#000000" points="1406,-230 1406,-249 1569,-249 1569,-230 1406,-230"/>
<text text-anchor="middle" x="1487.5" y="-237" font-family="FreeSans.ttf" font-size="10.00" fill="#000000">iDynTree/Core/GeomVector3.h</text>
</a>
</g>
</g>
<!-- Node29&#45;&gt;Node30 -->
<g id="edge25" class="edge">
<title>Node29&#45;&gt;Node30</title>
<path fill="none" stroke="#191970" d="M1384.7403,-459.408C1388.1199,-444.7247 1393.9746,-421.9243 1401.5,-403 1423.3277,-348.1095 1458.262,-287.5718 1476.1455,-257.9245"/>
<polygon fill="#191970" stroke="#191970" points="1479.3028,-259.469 1481.5131,-249.1073 1473.3236,-255.829 1479.3028,-259.469"/>
</g>
<!-- Node31 -->
<g id="node21" class="node">
<title>Node31</title>
<g id="a_node21"><a xlink:href="SpatialVector_8h.html" target="_top" xlink:title="iDynTree/Core/SpatialVector.h">
<polygon fill="none" stroke="#ff0000" points="1410,-403.5 1410,-422.5 1571,-422.5 1571,-403.5 1410,-403.5"/>
<text text-anchor="middle" x="1490.5" y="-410.5" font-family="FreeSans.ttf" font-size="10.00" fill="#000000">iDynTree/Core/SpatialVector.h</text>
</a>
</g>
</g>
<!-- Node29&#45;&gt;Node31 -->
<g id="edge27" class="edge">
<title>Node29&#45;&gt;Node31</title>
<path fill="none" stroke="#191970" d="M1408.1644,-459.4554C1425.3941,-449.734 1447.6975,-437.15 1464.7446,-427.5317"/>
<polygon fill="#191970" stroke="#191970" points="1466.6194,-430.4926 1473.6089,-422.5303 1463.1796,-424.3961 1466.6194,-430.4926"/>
</g>
<!-- Node30&#45;&gt;Node27 -->
<g id="edge26" class="edge">
<title>Node30&#45;&gt;Node27</title>
<path fill="none" stroke="#191970" d="M1459.5313,-229.8906C1428.9245,-219.3749 1379.7101,-202.466 1345.8259,-190.8243"/>
<polygon fill="#191970" stroke="#191970" points="1346.867,-187.4812 1336.2724,-187.5419 1344.5924,-194.1014 1346.867,-187.4812"/>
</g>
<!-- Node31&#45;&gt;Node12 -->
<g id="edge50" class="edge">
<title>Node31&#45;&gt;Node12</title>
<path fill="none" stroke="#191970" d="M1502.5377,-403.3164C1541.6855,-370.5964 1660.3884,-260.9988 1616.5,-168 1599.7907,-132.5932 1583.8695,-128.788 1548.5,-112 1497.9474,-88.0054 1435.3948,-76.5163 1388.2911,-71.021"/>
<polygon fill="#191970" stroke="#191970" points="1388.5064,-67.5236 1378.1828,-69.9056 1387.7385,-74.4813 1388.5064,-67.5236"/>
</g>
<!-- Node31&#45;&gt;Node30 -->
<g id="edge51" class="edge">
<title>Node31&#45;&gt;Node30</title>
<path fill="none" stroke="#191970" d="M1490.3344,-403.4248C1489.8602,-375.999 1488.4896,-296.732 1487.844,-259.3964"/>
<polygon fill="#191970" stroke="#191970" points="1491.3412,-259.1975 1487.6688,-249.2595 1484.3423,-259.3186 1491.3412,-259.1975"/>
</g>
<!-- Node32 -->
<g id="node22" class="node">
<title>Node32</title>
<g id="a_node22"><a xlink:href="Position_8h.html" target="_top" xlink:title="Position.h">
<polygon fill="none" stroke="#000000" points="589,-347.5 589,-366.5 654,-366.5 654,-347.5 589,-347.5"/>
<text text-anchor="middle" x="621.5" y="-354.5" font-family="FreeSans.ttf" font-size="10.00" fill="#000000">Position.h</text>
</a>
</g>
</g>
<!-- Node31&#45;&gt;Node32 -->
<g id="edge28" class="edge">
<title>Node31&#45;&gt;Node32</title>
<path fill="none" stroke="#191970" d="M1409.916,-407.807C1230.097,-396.2191 801.1598,-368.5776 664.2662,-359.7559"/>
<polygon fill="#191970" stroke="#191970" points="664.3758,-356.2558 654.1713,-359.1054 663.9255,-363.2413 664.3758,-356.2558"/>
</g>
<!-- Node34 -->
<g id="node24" class="node">
<title>Node34</title>
<g id="a_node24"><a xlink:href="Rotation_8h.html" target="_top" xlink:title="iDynTree/Core/Rotation.h">
<polygon fill="none" stroke="#000000" points="796,-291.5 796,-310.5 933,-310.5 933,-291.5 796,-291.5"/>
<text text-anchor="middle" x="864.5" y="-298.5" font-family="FreeSans.ttf" font-size="10.00" fill="#000000">iDynTree/Core/Rotation.h</text>
</a>
</g>
</g>
<!-- Node31&#45;&gt;Node34 -->
<g id="edge49" class="edge">
<title>Node31&#45;&gt;Node34</title>
<path fill="none" stroke="#191970" d="M1437.3976,-403.4993C1322.5385,-382.9494 1051.4316,-334.4446 927.8614,-312.3362"/>
<polygon fill="#191970" stroke="#191970" points="928.2565,-308.8514 917.7964,-310.5355 927.0237,-315.742 928.2565,-308.8514"/>
</g>
<!-- Node25 -->
<g id="node28" class="node">
<title>Node25</title>
<polygon fill="none" stroke="#bfbfbf" points="1837.5,-112.5 1837.5,-131.5 1897.5,-131.5 1897.5,-112.5 1837.5,-112.5"/>
<text text-anchor="middle" x="1867.5" y="-119.5" font-family="FreeSans.ttf" font-size="10.00" fill="#000000">iostream</text>
</g>
<!-- Node31&#45;&gt;Node25 -->
<g id="edge52" class="edge">
<title>Node31&#45;&gt;Node25</title>
<path fill="none" stroke="#191970" d="M1514.7471,-403.4188C1576.9708,-377.7014 1744.0964,-301.3378 1839.5,-188 1850.8696,-174.4932 1858.2359,-155.6919 1862.5448,-141.6099"/>
<polygon fill="#191970" stroke="#191970" points="1865.93,-142.5006 1865.2595,-131.927 1859.1898,-140.6109 1865.93,-142.5006"/>
</g>
<!-- Node32&#45;&gt;Node5 -->
<g id="edge48" class="edge">
<title>Node32&#45;&gt;Node5</title>
<path fill="none" stroke="#191970" d="M612.5036,-347.2757C592.3698,-324.2938 547.4936,-265.4469 574.5,-224 619.0574,-155.6174 720.9782,-132.7504 773.2627,-125.3635"/>
<polygon fill="#191970" stroke="#191970" points="773.8654,-128.8145 783.3272,-124.0473 772.9577,-121.8736 773.8654,-128.8145"/>
</g>
<!-- Node33 -->
<g id="node23" class="node">
<title>Node33</title>
<g id="a_node23"><a xlink:href="PositionRaw_8h.html" target="_top" xlink:title="iDynTree/Core/PositionRaw.h">
<polygon fill="none" stroke="#000000" points="583.5,-230 583.5,-249 739.5,-249 739.5,-230 583.5,-230"/>
<text text-anchor="middle" x="661.5" y="-237" font-family="FreeSans.ttf" font-size="10.00" fill="#000000">iDynTree/Core/PositionRaw.h</text>
</a>
</g>
</g>
<!-- Node32&#45;&gt;Node33 -->
<g id="edge29" class="edge">
<title>Node32&#45;&gt;Node33</title>
<path fill="none" stroke="#191970" d="M624.7734,-347.3845C631.3365,-328.1053 646.2162,-284.3963 654.8875,-258.9241"/>
<polygon fill="#191970" stroke="#191970" points="658.272,-259.8428 658.1814,-249.2484 651.6454,-257.5869 658.272,-259.8428"/>
</g>
<!-- Node32&#45;&gt;Node34 -->
<g id="edge32" class="edge">
<title>Node32&#45;&gt;Node34</title>
<path fill="none" stroke="#191970" d="M654.0199,-349.5057C694.8296,-340.101 765.2861,-323.8641 813.3443,-312.789"/>
<polygon fill="#191970" stroke="#191970" points="814.2822,-316.1647 823.2407,-310.5083 812.7101,-309.3434 814.2822,-316.1647"/>
</g>
<!-- Node33&#45;&gt;Node5 -->
<g id="edge31" class="edge">
<title>Node33&#45;&gt;Node5</title>
<path fill="none" stroke="#191970" d="M673.2841,-229.8845C697.9662,-209.7446 755.3206,-162.945 785.7377,-138.1255"/>
<polygon fill="#191970" stroke="#191970" points="788.0178,-140.7823 793.553,-131.7484 783.5923,-135.3587 788.0178,-140.7823"/>
</g>
<!-- Node33&#45;&gt;Node27 -->
<g id="edge30" class="edge">
<title>Node33&#45;&gt;Node27</title>
<path fill="none" stroke="#191970" d="M739.5433,-232.0817C859.8844,-220.6427 1090.1608,-198.754 1217.7587,-186.6253"/>
<polygon fill="#191970" stroke="#191970" points="1218.2712,-190.0925 1227.8951,-185.6618 1217.6088,-183.1239 1218.2712,-190.0925"/>
</g>
<!-- Node34&#45;&gt;Node5 -->
<g id="edge33" class="edge">
<title>Node34&#45;&gt;Node5</title>
<path fill="none" stroke="#191970" d="M853.3176,-291.2263C844.2669,-282.6349 831.9933,-269.2999 825.5,-255 808.4364,-217.4218 805.4014,-168.3336 805.1575,-141.5424"/>
<polygon fill="#191970" stroke="#191970" points="808.6575,-141.5358 805.1911,-131.5241 801.6575,-141.5123 808.6575,-141.5358"/>
</g>
<!-- Node34&#45;&gt;Node27 -->
<g id="edge47" class="edge">
<title>Node34&#45;&gt;Node27</title>
<path fill="none" stroke="#191970" d="M897.6053,-291.4573C922.4467,-283.5622 956.7977,-271.0522 984.5,-255 1003.3586,-244.0723 1002.6152,-232.925 1022.5,-224 1056.5553,-208.7148 1147.2851,-195.6888 1217.5092,-187.4416"/>
<polygon fill="#191970" stroke="#191970" points="1218.1814,-190.8873 1227.7122,-186.2598 1217.3759,-183.9338 1218.1814,-190.8873"/>
</g>
<!-- Node34&#45;&gt;Node30 -->
<g id="edge34" class="edge">
<title>Node34&#45;&gt;Node30</title>
<path fill="none" stroke="#191970" d="M933.2857,-295.1795C1028.7816,-286.9656 1206.9004,-271.1631 1358.5,-255 1372.2172,-253.5375 1386.7425,-251.8892 1400.907,-250.2273"/>
<polygon fill="#191970" stroke="#191970" points="1401.6206,-253.6674 1411.1404,-249.0173 1400.7986,-246.7158 1401.6206,-253.6674"/>
</g>
<!-- Node35 -->
<g id="node25" class="node">
<title>Node35</title>
<g id="a_node25"><a xlink:href="RotationRaw_8h.html" target="_top" xlink:title="iDynTree/Core/RotationRaw.h">
<polygon fill="none" stroke="#000000" points="1031.5,-230 1031.5,-249 1189.5,-249 1189.5,-230 1031.5,-230"/>
<text text-anchor="middle" x="1110.5" y="-237" font-family="FreeSans.ttf" font-size="10.00" fill="#000000">iDynTree/Core/RotationRaw.h</text>
</a>
</g>
</g>
<!-- Node34&#45;&gt;Node35 -->
<g id="edge35" class="edge">
<title>Node34&#45;&gt;Node35</title>
<path fill="none" stroke="#191970" d="M902.6676,-291.4581C945.667,-280.7082 1015.6351,-263.2162 1062.3542,-251.5365"/>
<polygon fill="#191970" stroke="#191970" points="1063.3903,-254.8852 1072.2429,-249.0643 1061.6925,-248.0942 1063.3903,-254.8852"/>
</g>
<!-- Node35&#45;&gt;Node5 -->
<g id="edge46" class="edge">
<title>Node35&#45;&gt;Node5</title>
<path fill="none" stroke="#191970" d="M1085.7989,-229.984C1030.7204,-208.7652 897.9172,-157.6034 836.9982,-134.1345"/>
<polygon fill="#191970" stroke="#191970" points="838.1079,-130.8114 827.5182,-130.4824 835.5915,-137.3434 838.1079,-130.8114"/>
</g>
<!-- Node11 -->
<g id="node26" class="node">
<title>Node11</title>
<g id="a_node26"><a xlink:href="MatrixFixSize_8h.html" target="_top" xlink:title="iDynTree/Core/MatrixFixSize.h">
<polygon fill="none" stroke="#ff0000" points="1446,-168.5 1446,-187.5 1607,-187.5 1607,-168.5 1446,-168.5"/>
<text text-anchor="middle" x="1526.5" y="-175.5" font-family="FreeSans.ttf" font-size="10.00" fill="#000000">iDynTree/Core/MatrixFixSize.h</text>
</a>
</g>
</g>
<!-- Node35&#45;&gt;Node11 -->
<g id="edge36" class="edge">
<title>Node35&#45;&gt;Node11</title>
<path fill="none" stroke="#191970" d="M1163.6329,-229.954C1175.4297,-227.9162 1187.88,-225.8287 1199.5,-224 1282.5907,-210.9239 1377.8477,-197.7267 1444.0332,-188.8423"/>
<polygon fill="#191970" stroke="#191970" points="1444.5437,-192.3053 1453.9906,-187.5087 1443.6145,-185.3672 1444.5437,-192.3053"/>
</g>
<!-- Node11&#45;&gt;Node5 -->
<g id="edge44" class="edge">
<title>Node11&#45;&gt;Node5</title>
<path fill="none" stroke="#191970" d="M1445.9237,-169.3408C1441.0447,-168.8716 1436.2077,-168.4206 1431.5,-168 1204.4142,-147.7098 930.3956,-129.8606 837.8264,-124.0144"/>
<polygon fill="#191970" stroke="#191970" points="837.8986,-120.5121 827.6985,-123.377 837.4589,-127.4983 837.8986,-120.5121"/>
</g>
<!-- Node11&#45;&gt;Node12 -->
<g id="edge37" class="edge">
<title>Node11&#45;&gt;Node12</title>
<path fill="none" stroke="#191970" d="M1530.9952,-168.2589C1536.7413,-154.1862 1544.4907,-128.0957 1531.5,-112 1513.6334,-89.863 1443.2505,-77.8602 1388.2196,-71.7244"/>
<polygon fill="#191970" stroke="#191970" points="1388.4545,-68.2296 1378.1388,-70.6459 1387.7097,-75.1899 1388.4545,-68.2296"/>
</g>
<!-- Node11&#45;&gt;Node15 -->
<g id="edge42" class="edge">
<title>Node11&#45;&gt;Node15</title>
<path fill="none" stroke="#191970" d="M1536.0478,-168.2721C1557.2854,-146.857 1610.4387,-94.4828 1659.5,-56 1673.6743,-44.882 1690.4764,-33.643 1703.9515,-25.0575"/>
<polygon fill="#191970" stroke="#191970" points="1706.0733,-27.8577 1712.6756,-19.5716 1702.347,-21.9319 1706.0733,-27.8577"/>
</g>
<!-- Node11&#45;&gt;Node24 -->
<g id="edge43" class="edge">
<title>Node11&#45;&gt;Node24</title>
<path fill="none" stroke="#191970" d="M1521.4486,-168.2455C1517.4981,-160.617 1511.8903,-149.7881 1507.0942,-140.5267"/>
<polygon fill="#191970" stroke="#191970" points="1510.2001,-138.9131 1502.4935,-131.6427 1503.9841,-142.1321 1510.2001,-138.9131"/>
</g>
<!-- Node14 -->
<g id="node27" class="node">
<title>Node14</title>
<g id="a_node27"><a xlink:href="MatrixView_8h.html" target="_top" xlink:title="iDynTree/Core/MatrixView.h">
<polygon fill="none" stroke="#ff0000" points="1668,-112.5 1668,-131.5 1819,-131.5 1819,-112.5 1668,-112.5"/>
<text text-anchor="middle" x="1743.5" y="-119.5" font-family="FreeSans.ttf" font-size="10.00" fill="#000000">iDynTree/Core/MatrixView.h</text>
</a>
</g>
</g>
<!-- Node11&#45;&gt;Node14 -->
<g id="edge38" class="edge">
<title>Node11&#45;&gt;Node14</title>
<path fill="none" stroke="#191970" d="M1563.8036,-168.3733C1600.6685,-158.8598 1657.166,-144.2797 1696.9506,-134.0127"/>
<polygon fill="#191970" stroke="#191970" points="1697.875,-137.3889 1706.6831,-131.5011 1696.1258,-130.611 1697.875,-137.3889"/>
</g>
<!-- Node11&#45;&gt;Node25 -->
<g id="edge45" class="edge">
<title>Node11&#45;&gt;Node25</title>
<path fill="none" stroke="#191970" d="M1603.2055,-168.469C1662.0776,-160.6573 1745.5424,-148.5127 1827.3665,-132.0772"/>
<polygon fill="#191970" stroke="#191970" points="1828.2324,-135.4729 1837.3352,-130.0516 1826.8385,-128.6131 1828.2324,-135.4729"/>
</g>
<!-- Node14&#45;&gt;Node12 -->
<g id="edge41" class="edge">
<title>Node14&#45;&gt;Node12</title>
<path fill="none" stroke="#191970" d="M1670.9228,-112.4369C1591.8505,-102.018 1466.2478,-85.4679 1388.2899,-75.1959"/>
<polygon fill="#191970" stroke="#191970" points="1388.4577,-71.6878 1378.0861,-73.8513 1387.5432,-78.6278 1388.4577,-71.6878"/>
</g>
<!-- Node14&#45;&gt;Node17 -->
<g id="edge40" class="edge">
<title>Node14&#45;&gt;Node17</title>
<path fill="none" stroke="#191970" d="M1740.8872,-112.2455C1738.9084,-104.8579 1736.1256,-94.4689 1733.6988,-85.4087"/>
<polygon fill="#191970" stroke="#191970" points="1737.0511,-84.3966 1731.0829,-75.6427 1730.2895,-86.2078 1737.0511,-84.3966"/>
</g>
<!-- Node14&#45;&gt;Node15 -->
<g id="edge39" class="edge">
<title>Node14&#45;&gt;Node15</title>
<path fill="none" stroke="#191970" d="M1761.6688,-112.4275C1782.0013,-100.3545 1810.6093,-78.4474 1798.5,-56 1790.927,-41.9617 1776.9927,-31.5084 1763.5386,-24.1453"/>
<polygon fill="#191970" stroke="#191970" points="1764.8906,-20.9074 1754.385,-19.5353 1761.742,-27.1593 1764.8906,-20.9074"/>
</g>
<!-- Node37 -->
<g id="node30" class="node">
<title>Node37</title>
<g id="a_node30"><a xlink:href="SpatialForceVector_8h.html" target="_top" xlink:title="iDynTree/Core/SpatialForce\lVector.h">
<polygon fill="none" stroke="#000000" points="1609.5,-459.5 1609.5,-489.5 1757.5,-489.5 1757.5,-459.5 1609.5,-459.5"/>
<text text-anchor="start" x="1617.5" y="-477.5" font-family="FreeSans.ttf" font-size="10.00" fill="#000000">iDynTree/Core/SpatialForce</text>
<text text-anchor="middle" x="1683.5" y="-466.5" font-family="FreeSans.ttf" font-size="10.00" fill="#000000">Vector.h</text>
</a>
</g>
</g>
<!-- Node36&#45;&gt;Node37 -->
<g id="edge54" class="edge">
<title>Node36&#45;&gt;Node37</title>
<path fill="none" stroke="#191970" d="M1703.2047,-531.9005C1700.2649,-523.3368 1695.8325,-510.4252 1691.9157,-499.0152"/>
<polygon fill="#191970" stroke="#191970" points="1695.214,-497.8436 1688.6567,-489.5218 1688.5933,-500.1164 1695.214,-497.8436"/>
</g>
<!-- Node37&#45;&gt;Node27 -->
<g id="edge55" class="edge">
<title>Node37&#45;&gt;Node27</title>
<path fill="none" stroke="#191970" d="M1688.3408,-459.3423C1697.8467,-426.7583 1715.8415,-348.3518 1689.5,-291 1670.4258,-249.4709 1653.0365,-243.0582 1611.5,-224 1592.1473,-215.1204 1478.5285,-199.3601 1396.0969,-188.7958"/>
<polygon fill="#191970" stroke="#191970" points="1396.3169,-185.2956 1385.9543,-187.5019 1395.431,-192.2393 1396.3169,-185.2956"/>
</g>
<!-- Node37&#45;&gt;Node30 -->
<g id="edge56" class="edge">
<title>Node37&#45;&gt;Node30</title>
<path fill="none" stroke="#191970" d="M1670.9412,-459.4422C1636.2471,-417.8448 1539.2118,-301.5014 1502.1463,-257.0606"/>
<polygon fill="#191970" stroke="#191970" points="1504.662,-254.6124 1495.569,-249.1746 1499.2863,-259.096 1504.662,-254.6124"/>
</g>
<!-- Node37&#45;&gt;Node31 -->
<g id="edge57" class="edge">
<title>Node37&#45;&gt;Node31</title>
<path fill="none" stroke="#191970" d="M1636.2869,-459.4554C1603.6606,-449.059 1560.7596,-435.3884 1529.9559,-425.5727"/>
<polygon fill="#191970" stroke="#191970" points="1530.9988,-422.2317 1520.4081,-422.5303 1528.8735,-428.9013 1530.9988,-422.2317"/>
</g>
<!-- Node38&#45;&gt;Node29 -->
<g id="edge59" class="edge">
<title>Node38&#45;&gt;Node29</title>
<path fill="none" stroke="#191970" d="M1034.9988,-531.9698C1046.3826,-529.9719 1058.3355,-527.8966 1069.5,-526 1167.1788,-509.4063 1191.7602,-506.2303 1289.5,-490 1290.8032,-489.7836 1292.1168,-489.5652 1293.4388,-489.3453"/>
<polygon fill="#191970" stroke="#191970" points="1294.4165,-492.7307 1303.7045,-487.6333 1293.265,-485.826 1294.4165,-492.7307"/>
</g>
<!-- Node39&#45;&gt;Node37 -->
<g id="edge61" class="edge">
<title>Node39&#45;&gt;Node37</title>
<path fill="none" stroke="#191970" d="M1370.408,-531.9717C1429.968,-521.0387 1528.4975,-502.9525 1599.1241,-489.9882"/>
<polygon fill="#191970" stroke="#191970" points="1600.1303,-493.362 1609.334,-488.114 1598.8664,-486.4771 1600.1303,-493.362"/>
</g>
<!-- Node40&#45;&gt;Node5 -->
<g id="edge67" class="edge">
<title>Node40&#45;&gt;Node5</title>
<path fill="none" stroke="#191970" d="M614.9652,-531.8224C580.3113,-501.5944 479.5,-404.7429 479.5,-301 479.5,-301 479.5,-301 479.5,-239.5 479.5,-205.9798 477.8419,-189.57 503.5,-168 543.8648,-134.0665 703.752,-125.0948 773.1141,-122.7804"/>
<polygon fill="#191970" stroke="#191970" points="773.549,-126.2688 783.4368,-122.4633 773.3341,-119.2721 773.549,-126.2688"/>
</g>
<!-- Node40&#45;&gt;Node32 -->
<g id="edge64" class="edge">
<title>Node40&#45;&gt;Node32</title>
<path fill="none" stroke="#191970" d="M626.2382,-531.8402C625.4518,-502.8223 623.0992,-416.0088 622.0342,-376.7113"/>
<polygon fill="#191970" stroke="#191970" points="625.5289,-376.4656 621.7592,-366.5641 618.5315,-376.6553 625.5289,-376.4656"/>
</g>
<!-- Node40&#45;&gt;Node34 -->
<g id="edge65" class="edge">
<title>Node40&#45;&gt;Node34</title>
<path fill="none" stroke="#191970" d="M636.1247,-531.7742C672.461,-495.0562 801.5827,-364.5782 847.852,-317.8229"/>
<polygon fill="#191970" stroke="#191970" points="850.4701,-320.1531 855.0163,-310.5833 845.4945,-315.2293 850.4701,-320.1531"/>
</g>
<!-- Node40&#45;&gt;Node11 -->
<g id="edge66" class="edge">
<title>Node40&#45;&gt;Node11</title>
<path fill="none" stroke="#191970" d="M699.6953,-532.4882C922.854,-505.0029 1579.5827,-424.0382 1580.5,-423 1586.4692,-416.2435 1631.2359,-339.335 1578.5,-224 1572.8614,-211.6682 1562.1364,-201.2914 1551.8844,-193.5328"/>
<polygon fill="#191970" stroke="#191970" points="1553.7004,-190.5313 1543.506,-187.6461 1549.6761,-196.2589 1553.7004,-190.5313"/>
</g>
<!-- Node41&#45;&gt;Node3 -->
<g id="edge74" class="edge">
<title>Node41&#45;&gt;Node3</title>
<path fill="none" stroke="#191970" d="M710.3868,-593.4581C642.0149,-582.4217 529.618,-564.2789 457.3593,-552.6151"/>
<polygon fill="#191970" stroke="#191970" points="457.8684,-549.152 447.4384,-551.0137 456.7529,-556.0626 457.8684,-549.152"/>
</g>
<!-- Node41&#45;&gt;Node5 -->
<g id="edge71" class="edge">
<title>Node41&#45;&gt;Node5</title>
<path fill="none" stroke="#191970" d="M687.8149,-596.9969C631.0967,-590.9319 562.5893,-579.1617 544.5,-557 535.4985,-545.972 479.5295,-441.0483 561.5,-224 572.6829,-194.3889 578.7743,-184.9592 605.5,-168 633.1063,-150.482 723.9259,-134.439 773.1311,-126.76"/>
<polygon fill="#191970" stroke="#191970" points="773.8954,-130.1838 783.2489,-125.2075 772.8337,-123.2648 773.8954,-130.1838"/>
</g>
<!-- Node41&#45;&gt;Node40 -->
<g id="edge73" class="edge">
<title>Node41&#45;&gt;Node40</title>
<path fill="none" stroke="#191970" d="M747.1563,-593.3906C723.2297,-583.1005 685.0691,-566.6888 658.0784,-555.0809"/>
<polygon fill="#191970" stroke="#191970" points="659.2561,-551.7775 648.6869,-551.0419 656.4905,-558.208 659.2561,-551.7775"/>
</g>
<!-- Node41&#45;&gt;Node42 -->
<g id="edge70" class="edge">
<title>Node41&#45;&gt;Node42</title>
<path fill="none" stroke="#191970" d="M762.8397,-593.2289C753.2379,-577.8086 738.0584,-547.3871 751.5,-526 755.8679,-519.0501 796.2141,-500.8152 826.0822,-488.0264"/>
<polygon fill="#191970" stroke="#191970" points="827.518,-491.2192 835.3525,-484.0868 824.7802,-484.7768 827.518,-491.2192"/>
</g>
<!-- Node41&#45;&gt;Node43 -->
<g id="edge72" class="edge">
<title>Node41&#45;&gt;Node43</title>
<path fill="none" stroke="#191970" d="M780.993,-593.3818C802.4486,-576.0914 850.7603,-540.2354 898.5,-526 1083.5049,-470.8337 1574.8062,-512.8823 1766.5,-490 1781.1388,-488.2526 1797.1362,-485.2662 1810.812,-482.3784"/>
<polygon fill="#191970" stroke="#191970" points="1811.7309,-485.7603 1820.7565,-480.2114 1810.2405,-478.9208 1811.7309,-485.7603"/>
</g>
<!-- Node44&#45;&gt;Node2 -->
<g id="edge80" class="edge">
<title>Node44&#45;&gt;Node2</title>
<path fill="none" stroke="#191970" d="M108.4688,-654.8906C145.0117,-644.2395 204.0571,-627.0296 244.035,-615.3772"/>
<polygon fill="#191970" stroke="#191970" points="245.1417,-618.7004 253.7628,-612.5419 243.1828,-611.98 245.1417,-618.7004"/>
</g>
<!-- Node44&#45;&gt;Node3 -->
<g id="edge79" class="edge">
<title>Node44&#45;&gt;Node3</title>
<path fill="none" stroke="#191970" d="M83.8841,-654.9629C98.0596,-639.4655 128.3729,-608.9473 160.5,-593 206.9654,-569.9354 263.8769,-557.0639 309.2162,-549.9568"/>
<polygon fill="#191970" stroke="#191970" points="309.9268,-553.3894 319.2951,-548.4413 308.8859,-546.4672 309.9268,-553.3894"/>
</g>
<!-- Node44&#45;&gt;Node40 -->
<g id="edge78" class="edge">
<title>Node44&#45;&gt;Node40</title>
<path fill="none" stroke="#191970" d="M89.6692,-654.9781C113.8884,-639.2167 165.3108,-607.9619 213.5,-593 244.1568,-583.4816 431.2544,-562.3626 542.8343,-550.3345"/>
<polygon fill="#191970" stroke="#191970" points="543.4881,-553.7845 553.0565,-549.2352 542.7396,-546.8246 543.4881,-553.7845"/>
</g>
<!-- Node45&#45;&gt;Node3 -->
<g id="edge92" class="edge">
<title>Node45&#45;&gt;Node3</title>
<path fill="none" stroke="#191970" d="M480.9148,-716.4593C473.8761,-707.3776 463.3361,-693.1789 455.5,-680 431.156,-639.0577 408.2164,-587.9495 396.5375,-560.7054"/>
<polygon fill="#191970" stroke="#191970" points="399.6316,-559.0368 392.5049,-551.1971 393.1872,-561.77 399.6316,-559.0368"/>
</g>
<!-- Node45&#45;&gt;Node29 -->
<g id="edge83" class="edge">
<title>Node45&#45;&gt;Node29</title>
<path fill="none" stroke="#191970" d="M503.7859,-716.2408C530.4394,-699.6954 587.6322,-666.259 640.5,-649 734.6864,-618.2523 782.2651,-673.793 860.5,-613 893.8177,-587.1103 864.292,-550.7014 898.5,-526 969.2412,-474.9182 1202.9727,-501.2562 1289.5,-490 1290.8101,-489.8296 1292.13,-489.6543 1293.4579,-489.4746"/>
<polygon fill="#191970" stroke="#191970" points="1294.3495,-492.8835 1303.7616,-488.019 1293.3703,-485.9523 1294.3495,-492.8835"/>
</g>
<!-- Node45&#45;&gt;Node40 -->
<g id="edge82" class="edge">
<title>Node45&#45;&gt;Node40</title>
<path fill="none" stroke="#191970" d="M495.7252,-716.3402C517.8023,-686.8242 584.6055,-597.5111 613.2386,-559.2299"/>
<polygon fill="#191970" stroke="#191970" points="616.1595,-561.1683 619.3463,-551.0641 610.554,-556.9756 616.1595,-561.1683"/>
</g>
<!-- Node46 -->
<g id="node39" class="node">
<title>Node46</title>
<g id="a_node39"><a xlink:href="Axis_8h.html" target="_top" xlink:title="iDynTree/Core/Axis.h">
<polygon fill="none" stroke="#000000" points="371.5,-403.5 371.5,-422.5 489.5,-422.5 489.5,-403.5 371.5,-403.5"/>
<text text-anchor="middle" x="430.5" y="-410.5" font-family="FreeSans.ttf" font-size="10.00" fill="#000000">iDynTree/Core/Axis.h</text>
</a>
</g>
</g>
<!-- Node45&#45;&gt;Node46 -->
<g id="edge84" class="edge">
<title>Node45&#45;&gt;Node46</title>
<path fill="none" stroke="#191970" d="M489.6329,-716.3386C493.4264,-680.6476 503.4614,-553.4177 466.5,-459 462.2857,-448.2347 454.6859,-437.9353 447.5514,-429.8217"/>
<polygon fill="#191970" stroke="#191970" points="450.0979,-427.4204 440.7148,-422.5003 444.9817,-432.1979 450.0979,-427.4204"/>
</g>
<!-- Node48 -->
<g id="node41" class="node">
<title>Node48</title>
<g id="a_node41"><a xlink:href="MovableJointImpl_8h.html" target="_top" xlink:title="iDynTree/Model/MovableJoint\lImpl.h">
<polygon fill="none" stroke="#000000" points="207.5,-649.5 207.5,-679.5 365.5,-679.5 365.5,-649.5 207.5,-649.5"/>
<text text-anchor="start" x="215.5" y="-667.5" font-family="FreeSans.ttf" font-size="10.00" fill="#000000">iDynTree/Model/MovableJoint</text>
<text text-anchor="middle" x="286.5" y="-656.5" font-family="FreeSans.ttf" font-size="10.00" fill="#000000">Impl.h</text>
</a>
</g>
</g>
<!-- Node45&#45;&gt;Node48 -->
<g id="edge93" class="edge">
<title>Node45&#45;&gt;Node48</title>
<path fill="none" stroke="#191970" d="M456.9375,-716.3906C427.3211,-707.3737 382.2656,-693.6563 345.9162,-682.5896"/>
<polygon fill="#191970" stroke="#191970" points="346.5006,-679.109 335.9148,-679.5446 344.4618,-685.8055 346.5006,-679.109"/>
</g>
<!-- Node46&#45;&gt;Node5 -->
<g id="edge85" class="edge">
<title>Node46&#45;&gt;Node5</title>
<path fill="none" stroke="#191970" d="M432.076,-403.4427C435.1176,-384.1407 441.5,-339.0991 441.5,-301 441.5,-301 441.5,-301 441.5,-239.5 441.5,-205.9798 439.6629,-189.3553 465.5,-168 489.0078,-148.5699 692.5122,-130.7873 772.9664,-124.452"/>
<polygon fill="#191970" stroke="#191970" points="773.3332,-127.9341 783.0315,-123.6688 772.7901,-120.9552 773.3332,-127.9341"/>
</g>
<!-- Node46&#45;&gt;Node12 -->
<g id="edge91" class="edge">
<title>Node46&#45;&gt;Node12</title>
<path fill="none" stroke="#191970" d="M424.0299,-403.3129C407.5889,-377.7286 365.5,-305.762 365.5,-239.5 365.5,-239.5 365.5,-239.5 365.5,-178 365.5,-89.037 1029.0193,-70.5583 1248.7615,-66.878"/>
<polygon fill="#191970" stroke="#191970" points="1248.9437,-70.3756 1258.8856,-66.7137 1248.8301,-63.3765 1248.9437,-70.3756"/>
</g>
<!-- Node46&#45;&gt;Node32 -->
<g id="edge90" class="edge">
<title>Node46&#45;&gt;Node32</title>
<path fill="none" stroke="#191970" d="M463.3341,-403.3733C495.3695,-393.9807 544.2487,-379.6496 579.1855,-369.4064"/>
<polygon fill="#191970" stroke="#191970" points="580.4831,-372.6733 589.0944,-366.5011 578.5136,-365.9561 580.4831,-372.6733"/>
</g>
<!-- Node47 -->
<g id="node40" class="node">
<title>Node47</title>
<g id="a_node40"><a xlink:href="Direction_8h.html" target="_top" xlink:title="iDynTree/Core/Direction.h">
<polygon fill="none" stroke="#000000" points="834,-230 834,-249 975,-249 975,-230 834,-230"/>
<text text-anchor="middle" x="904.5" y="-237" font-family="FreeSans.ttf" font-size="10.00" fill="#000000">iDynTree/Core/Direction.h</text>
</a>
</g>
</g>
<!-- Node46&#45;&gt;Node47 -->
<g id="edge86" class="edge">
<title>Node46&#45;&gt;Node47</title>
<path fill="none" stroke="#191970" d="M450.6271,-403.419C479.1805,-389.9941 533.2374,-365.192 580.5,-347 680.3082,-308.5824 800.3969,-270.911 862.5818,-252.0228"/>
<polygon fill="#191970" stroke="#191970" points="863.8584,-255.2933 872.4155,-249.0461 861.8303,-248.5935 863.8584,-255.2933"/>
</g>
<!-- Node47&#45;&gt;Node5 -->
<g id="edge87" class="edge">
<title>Node47&#45;&gt;Node5</title>
<path fill="none" stroke="#191970" d="M896.3984,-229.8845C879.7195,-210.0889 841.3398,-164.5372 820.175,-139.4173"/>
<polygon fill="#191970" stroke="#191970" points="822.8335,-137.1406 813.7135,-131.7484 817.4803,-141.651 822.8335,-137.1406"/>
</g>
<!-- Node47&#45;&gt;Node27 -->
<g id="edge88" class="edge">
<title>Node47&#45;&gt;Node27</title>
<path fill="none" stroke="#191970" d="M955.2366,-229.9294C966.5036,-227.893 978.3967,-225.8123 989.5,-224 1070.0953,-210.8453 1162.4727,-197.7393 1227.0052,-188.9017"/>
<polygon fill="#191970" stroke="#191970" points="1227.6828,-192.3418 1237.1171,-187.5206 1226.7354,-185.4061 1227.6828,-192.3418"/>
</g>
<!-- Node47&#45;&gt;Node12 -->
<g id="edge89" class="edge">
<title>Node47&#45;&gt;Node12</title>
<path fill="none" stroke="#191970" d="M927.3481,-229.9248C996.7613,-200.8349 1205.3425,-113.4223 1286.0849,-79.5846"/>
<polygon fill="#191970" stroke="#191970" points="1287.8524,-82.6388 1295.7225,-75.5457 1285.1468,-76.1828 1287.8524,-82.6388"/>
</g>
<!-- Node48&#45;&gt;Node2 -->
<g id="edge94" class="edge">
<title>Node48&#45;&gt;Node2</title>
<path fill="none" stroke="#191970" d="M286.5,-649.2977C286.5,-641.3834 286.5,-631.6043 286.5,-623.0759"/>
<polygon fill="#191970" stroke="#191970" points="290.0001,-622.8469 286.5,-612.8469 283.0001,-622.847 290.0001,-622.8469"/>
</g>
<!-- Node49&#45;&gt;Node3 -->
<g id="edge101" class="edge">
<title>Node49&#45;&gt;Node3</title>
<path fill="none" stroke="#191970" d="M1036.2456,-658.219C949.1226,-650.4677 803.4297,-635.4902 679.5,-613 673.4637,-611.9046 518.2494,-573.5839 437.034,-553.5055"/>
<polygon fill="#191970" stroke="#191970" points="437.5847,-550.0363 427.0369,-551.0337 435.9044,-556.8316 437.5847,-550.0363"/>
</g>
<!-- Node49&#45;&gt;Node28 -->
<g id="edge97" class="edge">
<title>Node49&#45;&gt;Node28</title>
<path fill="none" stroke="#191970" d="M1122.1917,-649.3621C1127.9123,-639.1985 1135.4356,-625.4414 1141.5,-613 1149.9911,-595.5801 1158.685,-575.2702 1164.6967,-560.7577"/>
<polygon fill="#191970" stroke="#191970" points="1168.0032,-561.9194 1168.5589,-551.3391 1161.5265,-559.2635 1168.0032,-561.9194"/>
</g>
<!-- Node49&#45;&gt;Node40 -->
<g id="edge96" class="edge">
<title>Node49&#45;&gt;Node40</title>
<path fill="none" stroke="#191970" d="M1063.3311,-649.3808C1012.4515,-634.2698 931.3312,-610.7869 860.5,-593 800.4235,-577.9138 731.0644,-562.9534 683.5481,-553.0768"/>
<polygon fill="#191970" stroke="#191970" points="684.2534,-549.6486 673.7514,-551.0481 682.8339,-556.5032 684.2534,-549.6486"/>
</g>
<!-- Node49&#45;&gt;Node43 -->
<g id="edge117" class="edge">
<title>Node49&#45;&gt;Node43</title>
<path fill="none" stroke="#191970" d="M1190.6637,-661.8108C1373.4577,-655.0704 1819.3016,-636.3128 1841.5,-613 1871.9284,-581.044 1860.2831,-523.7553 1851.2417,-493.8579"/>
<polygon fill="#191970" stroke="#191970" points="1854.5191,-492.6175 1848.1113,-484.1801 1847.8589,-494.7719 1854.5191,-492.6175"/>
</g>
<!-- Node50 -->
<g id="node43" class="node">
<title>Node50</title>
<g id="a_node43"><a xlink:href="VectorDynSize_8h.html" target="_top" xlink:title="iDynTree/Core/VectorDynSize.h">
<polygon fill="none" stroke="#000000" points="1816,-347.5 1816,-366.5 1983,-366.5 1983,-347.5 1816,-347.5"/>
<text text-anchor="middle" x="1899.5" y="-354.5" font-family="FreeSans.ttf" font-size="10.00" fill="#000000">iDynTree/Core/VectorDynSize.h</text>
</a>
</g>
</g>
<!-- Node49&#45;&gt;Node50 -->
<g id="edge98" class="edge">
<title>Node49&#45;&gt;Node50</title>
<path fill="none" stroke="#191970" d="M1190.6168,-658.054C1362.995,-642.8816 1767.6541,-602.7281 1808.5,-557 1837.5397,-524.4893 1796.5945,-499.5865 1812.5,-459 1826.4448,-423.4167 1858.294,-391.5164 1879.3421,-373.214"/>
<polygon fill="#191970" stroke="#191970" points="1881.7088,-375.7963 1887.0859,-366.6674 1877.1895,-370.4506 1881.7088,-375.7963"/>
</g>
<!-- Node49&#45;&gt;Node51 -->
<g id="edge102" class="edge">
<title>Node49&#45;&gt;Node51</title>
<path fill="none" stroke="#191970" d="M1099.6573,-649.2977C1091.641,-640.4941 1081.5238,-629.3833 1073.21,-620.2529"/>
<polygon fill="#191970" stroke="#191970" points="1075.7869,-617.8845 1066.4663,-612.8469 1070.6112,-622.5974 1075.7869,-617.8845"/>
</g>
<!-- Node53 -->
<g id="node46" class="node">
<title>Node53</title>
<g id="a_node46"><a xlink:href="JointState_8h.html" target="_top" xlink:title="iDynTree/Model/JointState.h">
<polygon fill="none" stroke="#000000" points="1932,-532 1932,-551 2083,-551 2083,-532 1932,-532"/>
<text text-anchor="middle" x="2007.5" y="-539" font-family="FreeSans.ttf" font-size="10.00" fill="#000000">iDynTree/Model/JointState.h</text>
</a>
</g>
</g>
<!-- Node49&#45;&gt;Node53 -->
<g id="edge112" class="edge">
<title>Node49&#45;&gt;Node53</title>
<path fill="none" stroke="#191970" d="M1190.6544,-663.6001C1358.5343,-660.9478 1752.1129,-650.7746 1879.5,-613 1920.1819,-600.9364 1962.1582,-574.2651 1986.4923,-557.1262"/>
<polygon fill="#191970" stroke="#191970" points="1988.8363,-559.7519 1994.9153,-551.0746 1984.7519,-554.067 1988.8363,-559.7519"/>
</g>
<!-- Node50&#45;&gt;Node5 -->
<g id="edge100" class="edge">
<title>Node50&#45;&gt;Node5</title>
<path fill="none" stroke="#191970" d="M1895.8435,-347.4752C1885.5798,-322.2011 1853.8539,-253.3683 1802.5,-224 1660.9958,-143.0766 1593.8842,-234.0005 1437.5,-188 1418.8121,-182.5029 1417.2443,-173.3015 1398.5,-168 1291.6291,-137.7734 945.6595,-125.8651 837.8708,-122.8323"/>
<polygon fill="#191970" stroke="#191970" points="837.7199,-119.3269 827.6275,-122.5508 837.5275,-126.3243 837.7199,-119.3269"/>
</g>
<!-- Node50&#45;&gt;Node17 -->
<g id="edge99" class="edge">
<title>Node50&#45;&gt;Node17</title>
<path fill="none" stroke="#191970" d="M1903.6713,-347.2558C1918.2858,-311.4373 1963.298,-185.3421 1906.5,-112 1893.0833,-94.6752 1842.8537,-82.7019 1799.1598,-75.3234"/>
<polygon fill="#191970" stroke="#191970" points="1799.5214,-71.8362 1789.0887,-73.6824 1798.3956,-78.7451 1799.5214,-71.8362"/>
</g>
<!-- Node51&#45;&gt;Node3 -->
<g id="edge110" class="edge">
<title>Node51&#45;&gt;Node3</title>
<path fill="none" stroke="#191970" d="M982.7161,-596.5208C882.8113,-587.8134 700.2905,-571.724 544.5,-557 519.4945,-554.6367 492.2448,-551.963 467.6185,-549.5099"/>
<polygon fill="#191970" stroke="#191970" points="467.9001,-546.0206 457.6018,-548.5098 467.2046,-552.986 467.9001,-546.0206"/>
</g>
<!-- Node51&#45;&gt;Node28 -->
<g id="edge104" class="edge">
<title>Node51&#45;&gt;Node28</title>
<path fill="none" stroke="#191970" d="M1075.4688,-593.3906C1094.2884,-583.3262 1124.0585,-567.4057 1145.6641,-555.8514"/>
<polygon fill="#191970" stroke="#191970" points="1147.4898,-558.8442 1154.6574,-551.0419 1144.1886,-552.6714 1147.4898,-558.8442"/>
</g>
<!-- Node51&#45;&gt;Node38 -->
<g id="edge105" class="edge">
<title>Node51&#45;&gt;Node38</title>
<path fill="none" stroke="#191970" d="M1045.625,-593.3906C1033.8703,-583.8786 1015.6514,-569.1357 1001.6328,-557.7917"/>
<polygon fill="#191970" stroke="#191970" points="1003.5178,-554.8146 993.5424,-551.2449 999.1144,-560.2562 1003.5178,-554.8146"/>
</g>
<!-- Node51&#45;&gt;Node39 -->
<g id="edge106" class="edge">
<title>Node51&#45;&gt;Node39</title>
<path fill="none" stroke="#191970" d="M1097.9949,-593.4581C1143.8075,-582.6632 1218.4737,-565.0694 1268.0406,-553.3899"/>
<polygon fill="#191970" stroke="#191970" points="1268.9794,-556.7646 1277.9101,-551.0643 1267.3739,-549.9512 1268.9794,-556.7646"/>
</g>
<!-- Node51&#45;&gt;Node40 -->
<g id="edge103" class="edge">
<title>Node51&#45;&gt;Node40</title>
<path fill="none" stroke="#191970" d="M990.6291,-593.4581C912.9682,-582.3766 785.0965,-564.1304 703.3952,-552.4723"/>
<polygon fill="#191970" stroke="#191970" points="703.5673,-548.9615 693.1731,-551.0137 702.5784,-555.8913 703.5673,-548.9615"/>
</g>
<!-- Node51&#45;&gt;Node43 -->
<g id="edge111" class="edge">
<title>Node51&#45;&gt;Node43</title>
<path fill="none" stroke="#191970" d="M1059.9238,-593.3414C1064.7646,-576.3181 1077.3897,-541.3276 1102.5,-526 1165.5653,-487.5042 1693.1919,-499.2237 1766.5,-490 1781.1274,-488.1596 1797.1229,-485.1577 1810.8004,-482.2836"/>
<polygon fill="#191970" stroke="#191970" points="1811.7129,-485.6672 1820.7467,-480.1319 1810.2327,-478.8255 1811.7129,-485.6672"/>
</g>
<!-- Node52 -->
<g id="node45" class="node">
<title>Node52</title>
<g id="a_node45"><a xlink:href="ArticulatedBodyInertia_8h.html" target="_top" xlink:title="iDynTree/Core/Articulated\lBodyInertia.h">
<polygon fill="none" stroke="#000000" points="1208,-224.5 1208,-254.5 1349,-254.5 1349,-224.5 1208,-224.5"/>
<text text-anchor="start" x="1216" y="-242.5" font-family="FreeSans.ttf" font-size="10.00" fill="#000000">iDynTree/Core/Articulated</text>
<text text-anchor="middle" x="1278.5" y="-231.5" font-family="FreeSans.ttf" font-size="10.00" fill="#000000">BodyInertia.h</text>
</a>
</g>
</g>
<!-- Node51&#45;&gt;Node52 -->
<g id="edge107" class="edge">
<title>Node51&#45;&gt;Node52</title>
<path fill="none" stroke="#191970" d="M998.2842,-593.4607C958.3393,-585.6782 910.7594,-573.3088 898.5,-557 890.2214,-545.9868 892.3539,-538.331 898.5,-526 968.75,-385.056 1145.0454,-295.1691 1230.5307,-258.4431"/>
<polygon fill="#191970" stroke="#191970" points="1231.9087,-261.6606 1239.7513,-254.5371 1229.1782,-255.215 1231.9087,-261.6606"/>
</g>
<!-- Node52&#45;&gt;Node5 -->
<g id="edge109" class="edge">
<title>Node52&#45;&gt;Node5</title>
<path fill="none" stroke="#191970" d="M1218.1138,-224.4992C1116.5762,-199.2758 915.1207,-149.2314 837.2536,-129.8881"/>
<polygon fill="#191970" stroke="#191970" points="838.0819,-126.4875 827.533,-127.4733 836.3943,-133.281 838.0819,-126.4875"/>
</g>
<!-- Node52&#45;&gt;Node11 -->
<g id="edge108" class="edge">
<title>Node52&#45;&gt;Node11</title>
<path fill="none" stroke="#191970" d="M1339.1676,-224.4554C1381.999,-213.8339 1438.6109,-199.7951 1478.3483,-189.9408"/>
<polygon fill="#191970" stroke="#191970" points="1479.2052,-193.3344 1488.0688,-187.5303 1477.5203,-186.5402 1479.2052,-193.3344"/>
</g>
<!-- Node53&#45;&gt;Node27 -->
<g id="edge113" class="edge">
<title>Node53&#45;&gt;Node27</title>
<path fill="none" stroke="#191970" d="M1996.1265,-531.7696C1965.4438,-505.4781 1878.4983,-430.7017 1807.5,-367 1737.7363,-304.406 1737.339,-263.8413 1652.5,-224 1641.0645,-218.6298 1496.9259,-200.5479 1398.8962,-188.7182"/>
<polygon fill="#191970" stroke="#191970" points="1399.3134,-185.2432 1388.9666,-187.5222 1398.4763,-192.193 1399.3134,-185.2432"/>
</g>
<!-- Node53&#45;&gt;Node37 -->
<g id="edge115" class="edge">
<title>Node53&#45;&gt;Node37</title>
<path fill="none" stroke="#191970" d="M1961.4228,-531.9717C1910.7813,-521.4995 1828.402,-504.4643 1766.4523,-491.6537"/>
<polygon fill="#191970" stroke="#191970" points="1766.8066,-488.153 1756.305,-489.5553 1765.389,-495.008 1766.8066,-488.153"/>
</g>
<!-- Node53&#45;&gt;Node43 -->
<g id="edge116" class="edge">
<title>Node53&#45;&gt;Node43</title>
<path fill="none" stroke="#191970" d="M1984.1461,-531.9005C1956.0648,-520.3579 1908.7665,-500.9163 1877.0983,-487.8993"/>
<polygon fill="#191970" stroke="#191970" points="1878.3904,-484.6463 1867.8106,-484.0817 1875.7291,-491.1207 1878.3904,-484.6463"/>
</g>
<!-- Node53&#45;&gt;Node50 -->
<g id="edge114" class="edge">
<title>Node53&#45;&gt;Node50</title>
<path fill="none" stroke="#191970" d="M2001.8455,-531.8402C1984.6407,-502.4487 1932.7275,-413.7637 1910.1637,-375.2172"/>
<polygon fill="#191970" stroke="#191970" points="1913.1709,-373.4261 1905.0985,-366.5641 1907.1298,-376.9624 1913.1709,-373.4261"/>
</g>
<!-- Node54&#45;&gt;Node5 -->
<g id="edge127" class="edge">
<title>Node54&#45;&gt;Node5</title>
<path fill="none" stroke="#191970" d="M2143.4528,-531.9212C2092.2701,-514.2379 1977.4151,-476.6633 1877.5,-459 1632.1513,-415.6265 767.5,-550.153 767.5,-301 767.5,-301 767.5,-301 767.5,-239.5 767.5,-203.2454 784.0805,-163.6181 795.337,-140.8929"/>
<polygon fill="#191970" stroke="#191970" points="798.5965,-142.2076 800.0555,-131.7137 792.3708,-139.0073 798.5965,-142.2076"/>
</g>
<!-- Node54&#45;&gt;Node12 -->
<g id="edge123" class="edge">
<title>Node54&#45;&gt;Node12</title>
<path fill="none" stroke="#191970" d="M2134.5176,-531.9877C2112.0778,-524.2481 2084.3562,-511.0792 2067.5,-490 2045.486,-462.4709 2048.5,-448.2487 2048.5,-413 2048.5,-413 2048.5,-413 2048.5,-178 2048.5,-108.4051 1973.8167,-129.6613 1906.5,-112 1810.4542,-86.8013 1522.4453,-73.3815 1388.4654,-68.3563"/>
<polygon fill="#191970" stroke="#191970" points="1388.4365,-64.8529 1378.3138,-67.9806 1388.1775,-71.8481 1388.4365,-64.8529"/>
</g>
<!-- Node54&#45;&gt;Node18 -->
<g id="edge124" class="edge">
<title>Node54&#45;&gt;Node18</title>
<path fill="none" stroke="#191970" d="M2194.501,-531.9049C2233.5439,-514.5273 2306.5,-473.9065 2306.5,-413 2306.5,-413 2306.5,-413 2306.5,-122 2306.5,-90.7875 2306.1763,-76.3385 2282.5,-56 2254.8174,-32.2199 2153.1505,-19.1894 2094.6698,-13.5131"/>
<polygon fill="#191970" stroke="#191970" points="2094.9121,-10.0205 2084.6284,-12.5695 2094.2571,-16.9898 2094.9121,-10.0205"/>
</g>
<!-- Node54&#45;&gt;Node25 -->
<g id="edge126" class="edge">
<title>Node54&#45;&gt;Node25</title>
<path fill="none" stroke="#191970" d="M2180.2714,-531.9163C2189.3242,-522.2942 2202.1688,-506.5575 2207.5,-490 2211.7227,-476.8853 2212.8007,-471.7173 2207.5,-459 2141.3838,-300.3764 1960.2575,-178.1387 1893.0455,-136.9942"/>
<polygon fill="#191970" stroke="#191970" points="1894.7098,-133.9104 1884.3415,-131.7313 1891.0879,-139.9006 1894.7098,-133.9104"/>
</g>
<!-- Node54&#45;&gt;Node42 -->
<g id="edge129" class="edge">
<title>Node54&#45;&gt;Node42</title>
<path fill="none" stroke="#191970" d="M2128.5906,-531.9363C2116.9608,-529.6204 2104.2897,-527.4089 2092.5,-526 2031.4126,-518.7 1087.8166,-483.0882 893.3774,-475.8033"/>
<polygon fill="#191970" stroke="#191970" points="893.2878,-472.2976 883.1638,-475.4209 893.0258,-479.2927 893.2878,-472.2976"/>
</g>
<!-- Node54&#45;&gt;Node43 -->
<g id="edge128" class="edge">
<title>Node54&#45;&gt;Node43</title>
<path fill="none" stroke="#191970" d="M2123.5175,-531.9554C2113.3019,-529.9383 2102.5462,-527.859 2092.5,-526 1999.3859,-508.7702 1973.5452,-516.0362 1882.5,-490 1880.0424,-489.2972 1877.5274,-488.487 1875.0193,-487.6133"/>
<polygon fill="#191970" stroke="#191970" points="1876.1078,-484.2831 1865.5161,-484.0216 1873.6329,-490.831 1876.1078,-484.2831"/>
</g>
<!-- Node55 -->
<g id="node48" class="node">
<title>Node55</title>
<g id="a_node48"><a xlink:href="MatrixDynSize_8h.html" target="_top" xlink:title="iDynTree/Core/MatrixDynSize.h">
<polygon fill="none" stroke="#000000" points="1663,-168.5 1663,-187.5 1830,-187.5 1830,-168.5 1663,-168.5"/>
<text text-anchor="middle" x="1746.5" y="-175.5" font-family="FreeSans.ttf" font-size="10.00" fill="#000000">iDynTree/Core/MatrixDynSize.h</text>
</a>
</g>
</g>
<!-- Node54&#45;&gt;Node55 -->
<g id="edge120" class="edge">
<title>Node54&#45;&gt;Node55</title>
<path fill="none" stroke="#191970" d="M2112.8831,-531.9745C2085.7411,-524.7173 2054.9186,-512.0395 2034.5,-490 1989.4821,-441.4084 2029.7649,-401.7639 1992.5,-347 1938.5765,-267.7548 1834.1334,-214.791 1780.3384,-191.5049"/>
<polygon fill="#191970" stroke="#191970" points="1781.4794,-188.187 1770.9067,-187.5026 1778.7449,-194.6309 1781.4794,-188.187"/>
</g>
<!-- Node56 -->
<g id="node49" class="node">
<title>Node56</title>
<polygon fill="none" stroke="#bfbfbf" points="2076.5,-465 2076.5,-484 2132.5,-484 2132.5,-465 2076.5,-465"/>
<text text-anchor="middle" x="2104.5" y="-472" font-family="FreeSans.ttf" font-size="10.00" fill="#000000">iomanip</text>
</g>
<!-- Node54&#45;&gt;Node56 -->
<g id="edge125" class="edge">
<title>Node54&#45;&gt;Node56</title>
<path fill="none" stroke="#191970" d="M2161.0438,-531.9005C2150.6537,-521.353 2133.7662,-504.2096 2121.1476,-491.3998"/>
<polygon fill="#191970" stroke="#191970" points="2123.4498,-488.7495 2113.9386,-484.0817 2118.463,-493.6619 2123.4498,-488.7495"/>
</g>
<!-- Node57 -->
<g id="node50" class="node">
<title>Node57</title>
<polygon fill="none" stroke="#bfbfbf" points="2151,-465 2151,-484 2198,-484 2198,-465 2151,-465"/>
<text text-anchor="middle" x="2174.5" y="-472" font-family="FreeSans.ttf" font-size="10.00" fill="#000000">cmath</text>
</g>
<!-- Node54&#45;&gt;Node57 -->
<g id="edge130" class="edge">
<title>Node54&#45;&gt;Node57</title>
<path fill="none" stroke="#191970" d="M2171.0731,-531.9005C2171.6553,-522.149 2172.574,-506.7597 2173.3138,-494.3695"/>
<polygon fill="#191970" stroke="#191970" points="2176.8257,-494.2725 2173.928,-484.0817 2169.8381,-493.8553 2176.8257,-494.2725"/>
</g>
<!-- Node55&#45;&gt;Node5 -->
<g id="edge121" class="edge">
<title>Node55&#45;&gt;Node5</title>
<path fill="none" stroke="#191970" d="M1662.9488,-171.3234C1647.5081,-170.1605 1631.5195,-169.0035 1616.5,-168 1313.8476,-147.7783 947.2687,-129.0646 837.8298,-123.5997"/>
<polygon fill="#191970" stroke="#191970" points="837.926,-120.1002 827.7642,-123.0982 837.5776,-127.0915 837.926,-120.1002"/>
</g>
<!-- Node55&#45;&gt;Node14 -->
<g id="edge122" class="edge">
<title>Node55&#45;&gt;Node14</title>
<path fill="none" stroke="#191970" d="M1745.9774,-168.2455C1745.586,-160.9382 1745.0372,-150.6944 1744.5556,-141.7046"/>
<polygon fill="#191970" stroke="#191970" points="1748.0466,-141.4411 1744.0166,-131.6427 1741.0566,-141.8156 1748.0466,-141.4411"/>
</g>
</g>
</svg>
