<?xml version="1.0" encoding="UTF-8" standalone="no"?>
<!DOCTYPE svg PUBLIC "-//W3C//DTD SVG 1.1//EN"
 "http://www.w3.org/Graphics/SVG/1.1/DTD/svg11.dtd">
<!-- Generated by graphviz version 2.40.1 (20161225.0304)
 -->
<!-- Title: ModelLoader.cpp Pages: 1 -->
<svg width="2712pt" height="778pt"
 viewBox="0.00 0.00 2711.50 778.00" xmlns="http://www.w3.org/2000/svg" xmlns:xlink="http://www.w3.org/1999/xlink">
<g id="graph0" class="graph" transform="scale(1 1) rotate(0) translate(4 774)">
<title>ModelLoader.cpp</title>
<!-- Node0 -->
<g id="node1" class="node">
<title>Node0</title>
<polygon fill="#bfbfbf" stroke="#000000" points="1178,-750.5 1178,-769.5 1276,-769.5 1276,-750.5 1178,-750.5"/>
<text text-anchor="middle" x="1227" y="-757.5" font-family="FreeSans.ttf" font-size="10.00" fill="#000000">ModelLoader.cpp</text>
</g>
<!-- Node1 -->
<g id="node2" class="node">
<title>Node1</title>
<g id="a_node2"><a xlink:href="ModelLoader_8h.html" target="_top" xlink:title="iDynTree/ModelIO/ModelLoader.h">
<polygon fill="none" stroke="#000000" points="1554,-627.5 1554,-646.5 1730,-646.5 1730,-627.5 1554,-627.5"/>
<text text-anchor="middle" x="1642" y="-634.5" font-family="FreeSans.ttf" font-size="10.00" fill="#000000">iDynTree/ModelIO/ModelLoader.h</text>
</a>
</g>
</g>
<!-- Node0&#45;&gt;Node1 -->
<g id="edge1" class="edge">
<title>Node0&#45;&gt;Node1</title>
<path fill="none" stroke="#191970" d="M1259.219,-750.4507C1333.6095,-728.4025 1517.2937,-673.9612 1600.2041,-649.3877"/>
<polygon fill="#191970" stroke="#191970" points="1601.2084,-652.7406 1609.8015,-646.5432 1599.2191,-646.0292 1601.2084,-652.7406"/>
</g>
<!-- Node6 -->
<g id="node7" class="node">
<title>Node6</title>
<polygon fill="none" stroke="#bfbfbf" points="866,-112.5 866,-131.5 910,-131.5 910,-112.5 866,-112.5"/>
<text text-anchor="middle" x="888" y="-119.5" font-family="FreeSans.ttf" font-size="10.00" fill="#000000">string</text>
</g>
<!-- Node0&#45;&gt;Node6 -->
<g id="edge134" class="edge">
<title>Node0&#45;&gt;Node6</title>
<path fill="none" stroke="#191970" d="M1177.7624,-757.6931C948.8817,-746.6521 0,-697.2458 0,-637 0,-637 0,-637 0,-234 0,-171.9606 63.3132,-184.9226 123,-168 194.1959,-147.8144 719.4029,-127.9722 855.7407,-123.1215"/>
<polygon fill="#191970" stroke="#191970" points="856.0749,-126.612 865.9449,-122.7607 855.8275,-119.6163 856.0749,-126.612"/>
</g>
<!-- Node44 -->
<g id="node34" class="node">
<title>Node44</title>
<polygon fill="none" stroke="#bfbfbf" points="1596.5,-403.5 1596.5,-422.5 1643.5,-422.5 1643.5,-403.5 1596.5,-403.5"/>
<text text-anchor="middle" x="1620" y="-410.5" font-family="FreeSans.ttf" font-size="10.00" fill="#000000">vector</text>
</g>
<!-- Node0&#45;&gt;Node44 -->
<g id="edge135" class="edge">
<title>Node0&#45;&gt;Node44</title>
<path fill="none" stroke="#191970" d="M1276.2774,-757.8863C1510.9606,-747.5025 2504,-699.8509 2504,-637 2504,-637 2504,-637 2504,-581 2504,-441.3702 2020.734,-507.2897 1884,-479 1800.4237,-461.7084 1703.3388,-435.9554 1653.4283,-422.2934"/>
<polygon fill="#191970" stroke="#191970" points="1654.0859,-418.8444 1643.5159,-419.569 1652.2307,-425.5941 1654.0859,-418.8444"/>
</g>
<!-- Node48 -->
<g id="node38" class="node">
<title>Node48</title>
<g id="a_node38"><a xlink:href="URDFDocument_8h.html" target="_top" xlink:title="URDFDocument.h">
<polygon fill="none" stroke="#000000" points="846.5,-689 846.5,-708 949.5,-708 949.5,-689 846.5,-689"/>
<text text-anchor="middle" x="898" y="-696" font-family="FreeSans.ttf" font-size="10.00" fill="#000000">URDFDocument.h</text>
</a>
</g>
</g>
<!-- Node0&#45;&gt;Node48 -->
<g id="edge77" class="edge">
<title>Node0&#45;&gt;Node48</title>
<path fill="none" stroke="#191970" d="M1177.7454,-750.7928C1119.4175,-739.8896 1022.2417,-721.7245 959.153,-709.9313"/>
<polygon fill="#191970" stroke="#191970" points="959.4189,-706.4205 948.946,-708.0233 958.1326,-713.3013 959.4189,-706.4205"/>
</g>
<!-- Node59 -->
<g id="node49" class="node">
<title>Node59</title>
<g id="a_node49"><a xlink:href="XMLParser_8h.html" target="_top" xlink:title="iDynTree/XMLParser.h">
<polygon fill="none" stroke="#000000" points="256.5,-459.5 256.5,-478.5 377.5,-478.5 377.5,-459.5 256.5,-459.5"/>
<text text-anchor="middle" x="317" y="-466.5" font-family="FreeSans.ttf" font-size="10.00" fill="#000000">iDynTree/XMLParser.h</text>
</a>
</g>
</g>
<!-- Node0&#45;&gt;Node59 -->
<g id="edge128" class="edge">
<title>Node0&#45;&gt;Node59</title>
<path fill="none" stroke="#191970" d="M1177.8646,-757.23C1103.4295,-752.3559 957.9428,-740.1731 837,-714 741.248,-693.2784 716.6513,-686.5029 627,-647 514.1906,-597.293 389.8061,-517.5572 339.7272,-484.3194"/>
<polygon fill="#191970" stroke="#191970" points="341.522,-481.3094 331.2606,-478.672 337.6376,-487.1328 341.522,-481.3094"/>
</g>
<!-- Node60 -->
<g id="node50" class="node">
<title>Node60</title>
<g id="a_node50"><a xlink:href="ModelSensorsTransformers_8h.html" target="_top" xlink:title="Collection of function to modify model and sensors in various ways. ">
<polygon fill="none" stroke="#000000" points="2532.5,-683.5 2532.5,-713.5 2703.5,-713.5 2703.5,-683.5 2532.5,-683.5"/>
<text text-anchor="start" x="2540.5" y="-701.5" font-family="FreeSans.ttf" font-size="10.00" fill="#000000">iDynTree/Sensors/ModelSensors</text>
<text text-anchor="middle" x="2618" y="-690.5" font-family="FreeSans.ttf" font-size="10.00" fill="#000000">Transformers.h</text>
</a>
</g>
</g>
<!-- Node0&#45;&gt;Node60 -->
<g id="edge133" class="edge">
<title>Node0&#45;&gt;Node60</title>
<path fill="none" stroke="#191970" d="M1276.1531,-759.0269C1481.3201,-754.8452 2270.171,-737.5389 2518,-714 2519.4757,-713.8598 2520.9627,-713.7121 2522.4588,-713.5574"/>
<polygon fill="#191970" stroke="#191970" points="2522.8889,-717.0312 2532.4384,-712.4424 2522.1116,-710.0745 2522.8889,-717.0312"/>
</g>
<!-- Node2 -->
<g id="node3" class="node">
<title>Node2</title>
<g id="a_node3"><a xlink:href="Model_8h.html" target="_top" xlink:title="iDynTree/Model/Model.h">
<polygon fill="none" stroke="#000000" points="1534.5,-515.5 1534.5,-534.5 1667.5,-534.5 1667.5,-515.5 1534.5,-515.5"/>
<text text-anchor="middle" x="1601" y="-522.5" font-family="FreeSans.ttf" font-size="10.00" fill="#000000">iDynTree/Model/Model.h</text>
</a>
</g>
</g>
<!-- Node1&#45;&gt;Node2 -->
<g id="edge2" class="edge">
<title>Node1&#45;&gt;Node2</title>
<path fill="none" stroke="#191970" d="M1638.5044,-627.4509C1631.7568,-609.0186 1616.8236,-568.2254 1607.9711,-544.043"/>
<polygon fill="#191970" stroke="#191970" points="1611.2112,-542.7123 1604.4868,-534.5249 1604.6378,-545.1187 1611.2112,-542.7123"/>
</g>
<!-- Node1&#45;&gt;Node6 -->
<g id="edge75" class="edge">
<title>Node1&#45;&gt;Node6</title>
<path fill="none" stroke="#191970" d="M1587.1433,-627.4659C1488.7221,-607.4882 1281.8259,-551.951 1168,-423 1124.4811,-373.6984 1109.2045,-342.3866 1130,-280 1138.7376,-253.7872 1172.6967,-246.7392 1157,-224 1129.1146,-183.6036 985.4688,-145.1089 920.2641,-129.4103"/>
<polygon fill="#191970" stroke="#191970" points="920.6753,-125.9106 910.1371,-127.004 919.0571,-132.721 920.6753,-125.9106"/>
</g>
<!-- Node1&#45;&gt;Node44 -->
<g id="edge76" class="edge">
<title>Node1&#45;&gt;Node44</title>
<path fill="none" stroke="#191970" d="M1648.0737,-627.2864C1660.1711,-606.7419 1685.3401,-557.2968 1676,-515 1668.8927,-482.8143 1648.0973,-450.2222 1633.949,-430.8157"/>
<polygon fill="#191970" stroke="#191970" points="1636.6128,-428.5344 1627.8079,-422.6416 1631.0162,-432.739 1636.6128,-428.5344"/>
</g>
<!-- Node45 -->
<g id="node35" class="node">
<title>Node45</title>
<g id="a_node35"><a xlink:href="Sensors_8h.html" target="_top" xlink:title="iDynTree/Sensors/Sensors.h">
<polygon fill="none" stroke="#000000" points="1724.5,-571.5 1724.5,-590.5 1875.5,-590.5 1875.5,-571.5 1724.5,-571.5"/>
<text text-anchor="middle" x="1800" y="-578.5" font-family="FreeSans.ttf" font-size="10.00" fill="#000000">iDynTree/Sensors/Sensors.h</text>
</a>
</g>
</g>
<!-- Node1&#45;&gt;Node45 -->
<g id="edge64" class="edge">
<title>Node1&#45;&gt;Node45</title>
<path fill="none" stroke="#191970" d="M1669.1612,-627.3733C1695.2067,-618.1419 1734.7116,-604.1402 1763.4979,-593.9375"/>
<polygon fill="#191970" stroke="#191970" points="1764.937,-597.1408 1773.1933,-590.5011 1762.5985,-590.5429 1764.937,-597.1408"/>
</g>
<!-- Node47 -->
<g id="node37" class="node">
<title>Node47</title>
<polygon fill="none" stroke="#bfbfbf" points="731,-403.5 731,-422.5 789,-422.5 789,-403.5 731,-403.5"/>
<text text-anchor="middle" x="760" y="-410.5" font-family="FreeSans.ttf" font-size="10.00" fill="#000000">memory</text>
</g>
<!-- Node1&#45;&gt;Node47 -->
<g id="edge74" class="edge">
<title>Node1&#45;&gt;Node47</title>
<path fill="none" stroke="#191970" d="M1595.2831,-627.4578C1512.611,-610.3645 1335.268,-572.7666 1187,-535 1043.0383,-498.3303 873.8824,-447.745 799.0178,-424.9667"/>
<polygon fill="#191970" stroke="#191970" points="799.6783,-421.5092 789.0923,-421.9415 797.6374,-428.205 799.6783,-421.5092"/>
</g>
<!-- Node3 -->
<g id="node4" class="node">
<title>Node3</title>
<g id="a_node4"><a xlink:href="IJoint_8h.html" target="_top" xlink:title="iDynTree/Model/IJoint.h">
<polygon fill="none" stroke="#000000" points="2073,-459.5 2073,-478.5 2201,-478.5 2201,-459.5 2073,-459.5"/>
<text text-anchor="middle" x="2137" y="-466.5" font-family="FreeSans.ttf" font-size="10.00" fill="#000000">iDynTree/Model/IJoint.h</text>
</a>
</g>
</g>
<!-- Node2&#45;&gt;Node3 -->
<g id="edge3" class="edge">
<title>Node2&#45;&gt;Node3</title>
<path fill="none" stroke="#191970" d="M1667.8091,-518.8684C1757.0505,-510.5457 1920.0553,-494.8813 2059,-479 2060.2589,-478.8561 2061.5291,-478.7095 2062.808,-478.5606"/>
<polygon fill="#191970" stroke="#191970" points="2063.2268,-482.0355 2072.7438,-477.3797 2062.4006,-475.0844 2063.2268,-482.0355"/>
</g>
<!-- Node4 -->
<g id="node5" class="node">
<title>Node4</title>
<g id="a_node5"><a xlink:href="Indices_8h.html" target="_top" xlink:title="iDynTree/Model/Indices.h">
<polygon fill="none" stroke="#000000" points="2114,-403.5 2114,-422.5 2252,-422.5 2252,-403.5 2114,-403.5"/>
<text text-anchor="middle" x="2183" y="-410.5" font-family="FreeSans.ttf" font-size="10.00" fill="#000000">iDynTree/Model/Indices.h</text>
</a>
</g>
</g>
<!-- Node2&#45;&gt;Node4 -->
<g id="edge55" class="edge">
<title>Node2&#45;&gt;Node4</title>
<path fill="none" stroke="#191970" d="M1667.8642,-520.8312C1770.2284,-513.9312 1960.7826,-498.8991 2026,-479 2044.2544,-473.4302 2046.6258,-466.8983 2064,-459 2090.9943,-446.7285 2122.2989,-434.7118 2146.0234,-426.0395"/>
<polygon fill="#191970" stroke="#191970" points="2147.4826,-429.2335 2155.6923,-422.5365 2145.0981,-422.6521 2147.4826,-429.2335"/>
</g>
<!-- Node8 -->
<g id="node9" class="node">
<title>Node8</title>
<g id="a_node9"><a xlink:href="Link_8h.html" target="_top" xlink:title="iDynTree/Model/Link.h">
<polygon fill="none" stroke="#000000" points="1893,-459.5 1893,-478.5 2017,-478.5 2017,-459.5 1893,-459.5"/>
<text text-anchor="middle" x="1955" y="-466.5" font-family="FreeSans.ttf" font-size="10.00" fill="#000000">iDynTree/Model/Link.h</text>
</a>
</g>
</g>
<!-- Node2&#45;&gt;Node8 -->
<g id="edge8" class="edge">
<title>Node2&#45;&gt;Node8</title>
<path fill="none" stroke="#191970" d="M1661.4525,-515.4369C1723.3097,-505.6516 1819.3533,-490.4582 1884.5996,-480.1368"/>
<polygon fill="#191970" stroke="#191970" points="1885.4665,-483.5433 1894.7968,-478.5237 1884.3727,-476.6292 1885.4665,-483.5433"/>
</g>
<!-- Node41 -->
<g id="node23" class="node">
<title>Node41</title>
<g id="a_node23"><a xlink:href="Transform_8h.html" target="_top" xlink:title="iDynTree/Core/Transform.h">
<polygon fill="none" stroke="#000000" points="937,-403.5 937,-422.5 1083,-422.5 1083,-403.5 937,-403.5"/>
<text text-anchor="middle" x="1010" y="-410.5" font-family="FreeSans.ttf" font-size="10.00" fill="#000000">iDynTree/Core/Transform.h</text>
</a>
</g>
</g>
<!-- Node2&#45;&gt;Node41 -->
<g id="edge28" class="edge">
<title>Node2&#45;&gt;Node41</title>
<path fill="none" stroke="#191970" d="M1534.2672,-520.0207C1473.4813,-514.2258 1381.7591,-502.3046 1305,-479 1284.8319,-472.8768 1282.0856,-465.3887 1262,-459 1206.9868,-441.5019 1142.972,-429.9219 1093.2287,-422.7573"/>
<polygon fill="#191970" stroke="#191970" points="1093.549,-419.2679 1083.1586,-421.3389 1092.5726,-426.1995 1093.549,-419.2679"/>
</g>
<!-- Node42 -->
<g id="node32" class="node">
<title>Node42</title>
<g id="a_node32"><a xlink:href="SolidShapes_8h.html" target="_top" xlink:title="iDynTree/Model/SolidShapes.h">
<polygon fill="none" stroke="#000000" points="1314.5,-459.5 1314.5,-478.5 1477.5,-478.5 1477.5,-459.5 1314.5,-459.5"/>
<text text-anchor="middle" x="1396" y="-466.5" font-family="FreeSans.ttf" font-size="10.00" fill="#000000">iDynTree/Model/SolidShapes.h</text>
</a>
</g>
</g>
<!-- Node2&#45;&gt;Node42 -->
<g id="edge56" class="edge">
<title>Node2&#45;&gt;Node42</title>
<path fill="none" stroke="#191970" d="M1565.7592,-515.3733C1531.0806,-505.9001 1478.0117,-491.4032 1440.4538,-481.1435"/>
<polygon fill="#191970" stroke="#191970" points="1441.3498,-477.7601 1430.7809,-478.5011 1439.5051,-484.5126 1441.3498,-477.7601"/>
</g>
<!-- Node43 -->
<g id="node33" class="node">
<title>Node43</title>
<polygon fill="none" stroke="#bfbfbf" points="1445.5,-403.5 1445.5,-422.5 1494.5,-422.5 1494.5,-403.5 1445.5,-403.5"/>
<text text-anchor="middle" x="1470" y="-410.5" font-family="FreeSans.ttf" font-size="10.00" fill="#000000">cstdlib</text>
</g>
<!-- Node2&#45;&gt;Node43 -->
<g id="edge62" class="edge">
<title>Node2&#45;&gt;Node43</title>
<path fill="none" stroke="#191970" d="M1589.831,-515.4509C1567.4017,-496.2747 1516.6643,-452.8962 1488.9468,-429.1988"/>
<polygon fill="#191970" stroke="#191970" points="1491.0159,-426.363 1481.1407,-422.5249 1486.4671,-431.6835 1491.0159,-426.363"/>
</g>
<!-- Node2&#45;&gt;Node44 -->
<g id="edge63" class="edge">
<title>Node2&#45;&gt;Node44</title>
<path fill="none" stroke="#191970" d="M1610.6492,-515.4346C1618.65,-506.7723 1629.4262,-493.2221 1634,-479 1638.9802,-463.5143 1634.4371,-445.4072 1629.2375,-432.08"/>
<polygon fill="#191970" stroke="#191970" points="1632.2941,-430.3323 1625.0961,-422.558 1625.875,-433.1241 1632.2941,-430.3323"/>
</g>
<!-- Node3&#45;&gt;Node4 -->
<g id="edge4" class="edge">
<title>Node3&#45;&gt;Node4</title>
<path fill="none" stroke="#191970" d="M2145.0126,-459.2455C2151.4768,-451.3761 2160.7385,-440.101 2168.4983,-430.6542"/>
<polygon fill="#191970" stroke="#191970" points="2171.4364,-432.5916 2175.0792,-422.6427 2166.0273,-428.1484 2171.4364,-432.5916"/>
</g>
<!-- Node5 -->
<g id="node6" class="node">
<title>Node5</title>
<polygon fill="none" stroke="#bfbfbf" points="2066.5,-.5 2066.5,-19.5 2119.5,-19.5 2119.5,-.5 2066.5,-.5"/>
<text text-anchor="middle" x="2093" y="-7.5" font-family="FreeSans.ttf" font-size="10.00" fill="#000000">cstddef</text>
</g>
<!-- Node4&#45;&gt;Node5 -->
<g id="edge5" class="edge">
<title>Node4&#45;&gt;Node5</title>
<path fill="none" stroke="#191970" d="M2232.0169,-403.4207C2270.2032,-394.9954 2319.0087,-381.7923 2333,-367 2357.2216,-341.3917 2352,-325.2487 2352,-290 2352,-290 2352,-290 2352,-122 2352,-74.1396 2201.1215,-34.0929 2129.679,-17.813"/>
<polygon fill="#191970" stroke="#191970" points="2130.2655,-14.3577 2119.742,-15.5854 2128.7342,-21.1882 2130.2655,-14.3577"/>
</g>
<!-- Node4&#45;&gt;Node6 -->
<g id="edge6" class="edge">
<title>Node4&#45;&gt;Node6</title>
<path fill="none" stroke="#191970" d="M2182.1117,-403.3001C2180.065,-386.8442 2173.4909,-353.539 2153,-336 2081.6827,-274.9566 1417.9649,-181.037 1325,-168 1174.4552,-146.8882 993.4972,-130.7715 920.6895,-124.6654"/>
<polygon fill="#191970" stroke="#191970" points="920.6065,-121.1464 910.3506,-123.8048 920.0258,-128.1223 920.6065,-121.1464"/>
</g>
<!-- Node7 -->
<g id="node8" class="node">
<title>Node7</title>
<polygon fill="none" stroke="#bfbfbf" points="2238,-342 2238,-361 2324,-361 2324,-342 2238,-342"/>
<text text-anchor="middle" x="2281" y="-349" font-family="FreeSans.ttf" font-size="10.00" fill="#000000">ModelExport.h</text>
</g>
<!-- Node4&#45;&gt;Node7 -->
<g id="edge7" class="edge">
<title>Node4&#45;&gt;Node7</title>
<path fill="none" stroke="#191970" d="M2198.3125,-403.3906C2214.0624,-393.5067 2238.8123,-377.9749 2257.1337,-366.4773"/>
<polygon fill="#191970" stroke="#191970" points="2259.1852,-369.3221 2265.795,-361.0419 2255.4643,-363.3929 2259.1852,-369.3221"/>
</g>
<!-- Node8&#45;&gt;Node4 -->
<g id="edge27" class="edge">
<title>Node8&#45;&gt;Node4</title>
<path fill="none" stroke="#191970" d="M1993.9355,-459.4369C2032.792,-449.8932 2092.593,-435.2052 2134.5089,-424.9101"/>
<polygon fill="#191970" stroke="#191970" points="2135.3486,-428.308 2144.2251,-422.5237 2133.6788,-421.51 2135.3486,-428.308"/>
</g>
<!-- Node9 -->
<g id="node10" class="node">
<title>Node9</title>
<g id="a_node10"><a xlink:href="SpatialInertia_8h.html" target="_top" xlink:title="iDynTree/Core/SpatialInertia.h">
<polygon fill="none" stroke="#000000" points="1846,-403.5 1846,-422.5 2008,-422.5 2008,-403.5 1846,-403.5"/>
<text text-anchor="middle" x="1927" y="-410.5" font-family="FreeSans.ttf" font-size="10.00" fill="#000000">iDynTree/Core/SpatialInertia.h</text>
</a>
</g>
</g>
<!-- Node8&#45;&gt;Node9 -->
<g id="edge9" class="edge">
<title>Node8&#45;&gt;Node9</title>
<path fill="none" stroke="#191970" d="M1950.1228,-459.2455C1946.3487,-451.6973 1941.0079,-441.0158 1936.4099,-431.8197"/>
<polygon fill="#191970" stroke="#191970" points="1939.424,-430.0217 1931.8213,-422.6427 1933.163,-433.1522 1939.424,-430.0217"/>
</g>
<!-- Node10 -->
<g id="node11" class="node">
<title>Node10</title>
<g id="a_node11"><a xlink:href="SpatialInertiaRaw_8h.html" target="_top" xlink:title="iDynTree/Core/SpatialInertia\lRaw.h">
<polygon fill="none" stroke="#ff0000" points="1850.5,-336.5 1850.5,-366.5 2003.5,-366.5 2003.5,-336.5 1850.5,-336.5"/>
<text text-anchor="start" x="1858.5" y="-354.5" font-family="FreeSans.ttf" font-size="10.00" fill="#000000">iDynTree/Core/SpatialInertia</text>
<text text-anchor="middle" x="1927" y="-343.5" font-family="FreeSans.ttf" font-size="10.00" fill="#000000">Raw.h</text>
</a>
</g>
</g>
<!-- Node9&#45;&gt;Node10 -->
<g id="edge10" class="edge">
<title>Node9&#45;&gt;Node10</title>
<path fill="none" stroke="#191970" d="M1927,-403.3906C1927,-396.2234 1927,-386.0862 1927,-376.671"/>
<polygon fill="#191970" stroke="#191970" points="1930.5001,-376.5446 1927,-366.5446 1923.5001,-376.5446 1930.5001,-376.5446"/>
</g>
<!-- Node28 -->
<g id="node12" class="node">
<title>Node28</title>
<g id="a_node12"><a xlink:href="VectorFixSize_8h.html" target="_top" xlink:title="iDynTree/Core/VectorFixSize.h">
<polygon fill="none" stroke="#000000" points="1835.5,-168.5 1835.5,-187.5 1996.5,-187.5 1996.5,-168.5 1835.5,-168.5"/>
<text text-anchor="middle" x="1916" y="-175.5" font-family="FreeSans.ttf" font-size="10.00" fill="#000000">iDynTree/Core/VectorFixSize.h</text>
</a>
</g>
</g>
<!-- Node9&#45;&gt;Node28 -->
<g id="edge11" class="edge">
<title>Node9&#45;&gt;Node28</title>
<path fill="none" stroke="#191970" d="M2008.1522,-407.1413C2065.2921,-401.1307 2134.7289,-389.3647 2153,-367 2218.657,-286.633 2042.5446,-217.9362 1958.1677,-190.6155"/>
<polygon fill="#191970" stroke="#191970" points="1959.188,-187.2673 1948.5974,-187.5667 1957.0632,-193.937 1959.188,-187.2673"/>
</g>
<!-- Node29 -->
<g id="node19" class="node">
<title>Node29</title>
<g id="a_node19"><a xlink:href="Twist_8h.html" target="_top" xlink:title="iDynTree/Core/Twist.h">
<polygon fill="none" stroke="#ff0000" points="2022,-342 2022,-361 2144,-361 2144,-342 2022,-342"/>
<text text-anchor="middle" x="2083" y="-349" font-family="FreeSans.ttf" font-size="10.00" fill="#000000">iDynTree/Core/Twist.h</text>
</a>
</g>
</g>
<!-- Node9&#45;&gt;Node29 -->
<g id="edge23" class="edge">
<title>Node9&#45;&gt;Node29</title>
<path fill="none" stroke="#191970" d="M1951.375,-403.3906C1977.7056,-393.0103 2019.838,-376.4004 2049.3229,-364.7766"/>
<polygon fill="#191970" stroke="#191970" points="2050.7767,-367.9657 2058.7962,-361.0419 2048.2093,-361.4534 2050.7767,-367.9657"/>
</g>
<!-- Node37 -->
<g id="node20" class="node">
<title>Node37</title>
<g id="a_node20"><a xlink:href="SpatialMomentum_8h.html" target="_top" xlink:title="iDynTree/Core/SpatialMomentum.h">
<polygon fill="none" stroke="#ff0000" points="1329,-342 1329,-361 1515,-361 1515,-342 1329,-342"/>
<text text-anchor="middle" x="1422" y="-349" font-family="FreeSans.ttf" font-size="10.00" fill="#000000">iDynTree/Core/SpatialMomentum.h</text>
</a>
</g>
</g>
<!-- Node9&#45;&gt;Node37 -->
<g id="edge24" class="edge">
<title>Node9&#45;&gt;Node37</title>
<path fill="none" stroke="#191970" d="M1845.8418,-404.6315C1764.3785,-396.021 1635.3387,-381.8087 1524,-367 1513.7068,-365.6309 1502.8447,-364.0871 1492.1993,-362.5178"/>
<polygon fill="#191970" stroke="#191970" points="1492.4916,-359.0228 1482.0848,-361.0103 1491.4596,-365.9463 1492.4916,-359.0228"/>
</g>
<!-- Node39 -->
<g id="node21" class="node">
<title>Node39</title>
<g id="a_node21"><a xlink:href="SpatialAcc_8h.html" target="_top" xlink:title="iDynTree/Core/SpatialAcc.h">
<polygon fill="none" stroke="#ff0000" points="1533,-342 1533,-361 1681,-361 1681,-342 1533,-342"/>
<text text-anchor="middle" x="1607" y="-349" font-family="FreeSans.ttf" font-size="10.00" fill="#000000">iDynTree/Core/SpatialAcc.h</text>
</a>
</g>
</g>
<!-- Node9&#45;&gt;Node39 -->
<g id="edge25" class="edge">
<title>Node9&#45;&gt;Node39</title>
<path fill="none" stroke="#191970" d="M1877.3511,-403.4581C1820.3956,-392.512 1727.0662,-374.5752 1666.3306,-362.9026"/>
<polygon fill="#191970" stroke="#191970" points="1666.983,-359.464 1656.5021,-361.0137 1665.6618,-366.3382 1666.983,-359.464"/>
</g>
<!-- Node40 -->
<g id="node22" class="node">
<title>Node40</title>
<g id="a_node22"><a xlink:href="Wrench_8h.html" target="_top" xlink:title="iDynTree/Core/Wrench.h">
<polygon fill="none" stroke="#ff0000" points="1699.5,-342 1699.5,-361 1832.5,-361 1832.5,-342 1699.5,-342"/>
<text text-anchor="middle" x="1766" y="-349" font-family="FreeSans.ttf" font-size="10.00" fill="#000000">iDynTree/Core/Wrench.h</text>
</a>
</g>
</g>
<!-- Node9&#45;&gt;Node40 -->
<g id="edge26" class="edge">
<title>Node9&#45;&gt;Node40</title>
<path fill="none" stroke="#191970" d="M1901.8438,-403.3906C1874.551,-392.9652 1830.808,-376.2559 1800.3603,-364.6252"/>
<polygon fill="#191970" stroke="#191970" points="1801.5702,-361.3408 1790.9796,-361.0419 1799.0723,-367.8799 1801.5702,-361.3408"/>
</g>
<!-- Node28&#45;&gt;Node5 -->
<g id="edge21" class="edge">
<title>Node28&#45;&gt;Node5</title>
<path fill="none" stroke="#191970" d="M1952.5852,-168.4597C1974.6438,-161.2718 2002.2074,-149.5916 2022,-132 2054.5199,-103.0965 2076.082,-55.6059 2086.2443,-29.2103"/>
<polygon fill="#191970" stroke="#191970" points="2089.6104,-30.1985 2089.7944,-19.6052 2083.0445,-27.7717 2089.6104,-30.1985"/>
</g>
<!-- Node28&#45;&gt;Node6 -->
<g id="edge18" class="edge">
<title>Node28&#45;&gt;Node6</title>
<path fill="none" stroke="#191970" d="M1835.2411,-171.6703C1817.6941,-170.3797 1799.229,-169.086 1782,-168 1445.081,-146.7633 1036.2672,-128.4471 920.1373,-123.385"/>
<polygon fill="#191970" stroke="#191970" points="920.2705,-119.8876 910.1279,-122.95 919.9665,-126.881 920.2705,-119.8876"/>
</g>
<!-- Node13 -->
<g id="node13" class="node">
<title>Node13</title>
<g id="a_node13"><a xlink:href="Utils_8h.html" target="_top" xlink:title="iDynTree/Core/Utils.h">
<polygon fill="none" stroke="#ff0000" points="1597.5,-56.5 1597.5,-75.5 1716.5,-75.5 1716.5,-56.5 1597.5,-56.5"/>
<text text-anchor="middle" x="1657" y="-63.5" font-family="FreeSans.ttf" font-size="10.00" fill="#000000">iDynTree/Core/Utils.h</text>
</a>
</g>
</g>
<!-- Node28&#45;&gt;Node13 -->
<g id="edge12" class="edge">
<title>Node28&#45;&gt;Node13</title>
<path fill="none" stroke="#191970" d="M1941.1458,-168.2898C1969.1714,-156.078 2008.189,-134.031 1989,-112 1972.0547,-92.545 1819.2469,-77.9686 1726.9549,-70.8486"/>
<polygon fill="#191970" stroke="#191970" points="1727.0776,-67.3479 1716.841,-70.0794 1726.5468,-74.3278 1727.0776,-67.3479"/>
</g>
<!-- Node18 -->
<g id="node14" class="node">
<title>Node18</title>
<g id="a_node14"><a xlink:href="Span_8h.html" target="_top" xlink:title="iDynTree/Core/Span.h">
<polygon fill="none" stroke="#ff0000" points="2112.5,-56.5 2112.5,-75.5 2233.5,-75.5 2233.5,-56.5 2112.5,-56.5"/>
<text text-anchor="middle" x="2173" y="-63.5" font-family="FreeSans.ttf" font-size="10.00" fill="#000000">iDynTree/Core/Span.h</text>
</a>
</g>
</g>
<!-- Node28&#45;&gt;Node18 -->
<g id="edge14" class="edge">
<title>Node28&#45;&gt;Node18</title>
<path fill="none" stroke="#191970" d="M1985.346,-168.4418C2020.5379,-161.6525 2063.1057,-150.3712 2098,-132 2121.568,-119.5918 2143.8481,-98.3214 2157.9051,-83.2856"/>
<polygon fill="#191970" stroke="#191970" points="2160.6905,-85.4248 2164.8245,-75.6697 2155.5095,-80.7176 2160.6905,-85.4248"/>
</g>
<!-- Node16 -->
<g id="node15" class="node">
<title>Node16</title>
<polygon fill="none" stroke="#bfbfbf" points="1928,-.5 1928,-19.5 1980,-19.5 1980,-.5 1928,-.5"/>
<text text-anchor="middle" x="1954" y="-7.5" font-family="FreeSans.ttf" font-size="10.00" fill="#000000">cassert</text>
</g>
<!-- Node28&#45;&gt;Node16 -->
<g id="edge20" class="edge">
<title>Node28&#45;&gt;Node16</title>
<path fill="none" stroke="#191970" d="M1954.0976,-168.4497C1972.8946,-161.6063 1993.8748,-150.2734 2005,-132 2026.3439,-96.9421 1992.9994,-51.3465 1970.944,-27.0319"/>
<polygon fill="#191970" stroke="#191970" points="1973.3955,-24.5299 1963.9925,-19.6479 1968.2987,-29.3281 1973.3955,-24.5299"/>
</g>
<!-- Node27 -->
<g id="node17" class="node">
<title>Node27</title>
<polygon fill="none" stroke="#bfbfbf" points="1924,-112.5 1924,-131.5 1980,-131.5 1980,-112.5 1924,-112.5"/>
<text text-anchor="middle" x="1952" y="-119.5" font-family="FreeSans.ttf" font-size="10.00" fill="#000000">sstream</text>
</g>
<!-- Node28&#45;&gt;Node27 -->
<g id="edge19" class="edge">
<title>Node28&#45;&gt;Node27</title>
<path fill="none" stroke="#191970" d="M1922.2707,-168.2455C1927.2264,-160.5367 1934.283,-149.5598 1940.2776,-140.2348"/>
<polygon fill="#191970" stroke="#191970" points="1943.3376,-141.9471 1945.8011,-131.6427 1937.4494,-138.1618 1943.3376,-141.9471"/>
</g>
<!-- Node25 -->
<g id="node18" class="node">
<title>Node25</title>
<polygon fill="none" stroke="#bfbfbf" points="1856,-112.5 1856,-131.5 1906,-131.5 1906,-112.5 1856,-112.5"/>
<text text-anchor="middle" x="1881" y="-119.5" font-family="FreeSans.ttf" font-size="10.00" fill="#000000">cstring</text>
</g>
<!-- Node28&#45;&gt;Node25 -->
<g id="edge22" class="edge">
<title>Node28&#45;&gt;Node25</title>
<path fill="none" stroke="#191970" d="M1909.9035,-168.2455C1905.0855,-160.5367 1898.2249,-149.5598 1892.3968,-140.2348"/>
<polygon fill="#191970" stroke="#191970" points="1895.2947,-138.2677 1887.0267,-131.6427 1889.3587,-141.9777 1895.2947,-138.2677"/>
</g>
<!-- Node13&#45;&gt;Node5 -->
<g id="edge13" class="edge">
<title>Node13&#45;&gt;Node5</title>
<path fill="none" stroke="#191970" d="M1716.7097,-58.3309C1808.3692,-46.5581 1981.0296,-24.3815 2056.3296,-14.71"/>
<polygon fill="#191970" stroke="#191970" points="2056.8174,-18.1761 2066.2901,-13.4306 2055.9256,-11.2332 2056.8174,-18.1761"/>
</g>
<!-- Node18&#45;&gt;Node5 -->
<g id="edge16" class="edge">
<title>Node18&#45;&gt;Node5</title>
<path fill="none" stroke="#191970" d="M2159.0651,-56.2455C2146.9053,-47.7337 2129.0536,-35.2375 2114.9715,-25.3801"/>
<polygon fill="#191970" stroke="#191970" points="2116.9747,-22.51 2106.7752,-19.6427 2112.9605,-28.2447 2116.9747,-22.51"/>
</g>
<!-- Node18&#45;&gt;Node16 -->
<g id="edge15" class="edge">
<title>Node18&#45;&gt;Node16</title>
<path fill="none" stroke="#191970" d="M2135.3526,-56.3733C2094.6267,-45.9593 2030.1592,-29.4745 1990.0623,-19.2214"/>
<polygon fill="#191970" stroke="#191970" points="1990.7323,-15.7802 1980.1769,-16.6936 1988.9981,-22.562 1990.7323,-15.7802"/>
</g>
<!-- Node21 -->
<g id="node16" class="node">
<title>Node21</title>
<polygon fill="none" stroke="#bfbfbf" points="2290.5,-.5 2290.5,-19.5 2343.5,-19.5 2343.5,-.5 2290.5,-.5"/>
<text text-anchor="middle" x="2317" y="-7.5" font-family="FreeSans.ttf" font-size="10.00" fill="#000000">iterator</text>
</g>
<!-- Node18&#45;&gt;Node21 -->
<g id="edge17" class="edge">
<title>Node18&#45;&gt;Node21</title>
<path fill="none" stroke="#191970" d="M2197.7545,-56.3733C2221.2849,-47.2226 2256.8687,-33.3844 2283.0426,-23.2057"/>
<polygon fill="#191970" stroke="#191970" points="2284.5171,-26.3877 2292.5685,-19.5011 2281.9799,-19.8636 2284.5171,-26.3877"/>
</g>
<!-- Node41&#45;&gt;Node6 -->
<g id="edge54" class="edge">
<title>Node41&#45;&gt;Node6</title>
<path fill="none" stroke="#191970" d="M942.9514,-403.4135C918.4466,-396.8303 892.2825,-385.7268 874,-367 848.9591,-341.3506 850,-325.846 850,-290 850,-290 850,-290 850,-234 850,-199.6118 866.2634,-162.2832 877.511,-140.5791"/>
<polygon fill="#191970" stroke="#191970" points="880.7317,-141.9804 882.393,-131.5166 874.569,-138.6605 880.7317,-141.9804"/>
</g>
<!-- Node33 -->
<g id="node24" class="node">
<title>Node33</title>
<g id="a_node24"><a xlink:href="Position_8h.html" target="_top" xlink:title="Position.h">
<polygon fill="none" stroke="#000000" points="1017.5,-342 1017.5,-361 1082.5,-361 1082.5,-342 1017.5,-342"/>
<text text-anchor="middle" x="1050" y="-349" font-family="FreeSans.ttf" font-size="10.00" fill="#000000">Position.h</text>
</a>
</g>
</g>
<!-- Node41&#45;&gt;Node33 -->
<g id="edge29" class="edge">
<title>Node41&#45;&gt;Node33</title>
<path fill="none" stroke="#191970" d="M1016.25,-403.3906C1022.0865,-394.417 1030.9509,-380.7879 1038.1306,-369.7491"/>
<polygon fill="#191970" stroke="#191970" points="1041.1436,-371.5361 1043.6619,-361.2449 1035.2755,-367.7194 1041.1436,-371.5361"/>
</g>
<!-- Node35 -->
<g id="node26" class="node">
<title>Node35</title>
<g id="a_node26"><a xlink:href="Rotation_8h.html" target="_top" xlink:title="iDynTree/Core/Rotation.h">
<polygon fill="none" stroke="#000000" points="1139.5,-280.5 1139.5,-299.5 1276.5,-299.5 1276.5,-280.5 1139.5,-280.5"/>
<text text-anchor="middle" x="1208" y="-287.5" font-family="FreeSans.ttf" font-size="10.00" fill="#000000">iDynTree/Core/Rotation.h</text>
</a>
</g>
</g>
<!-- Node41&#45;&gt;Node35 -->
<g id="edge52" class="edge">
<title>Node41&#45;&gt;Node35</title>
<path fill="none" stroke="#191970" d="M1027.5731,-403.4556C1044.1113,-394.3713 1069.4827,-380.1708 1091,-367 1124.5062,-346.4907 1162.3183,-321.2016 1185.6577,-305.3335"/>
<polygon fill="#191970" stroke="#191970" points="1187.8542,-308.0719 1194.1431,-299.5455 1183.9097,-302.2891 1187.8542,-308.0719"/>
</g>
<!-- Node12 -->
<g id="node29" class="node">
<title>Node12</title>
<g id="a_node29"><a xlink:href="MatrixFixSize_8h.html" target="_top" xlink:title="iDynTree/Core/MatrixFixSize.h">
<polygon fill="none" stroke="#000000" points="1612.5,-168.5 1612.5,-187.5 1773.5,-187.5 1773.5,-168.5 1612.5,-168.5"/>
<text text-anchor="middle" x="1693" y="-175.5" font-family="FreeSans.ttf" font-size="10.00" fill="#000000">iDynTree/Core/MatrixFixSize.h</text>
</a>
</g>
</g>
<!-- Node41&#45;&gt;Node12 -->
<g id="edge53" class="edge">
<title>Node41&#45;&gt;Node12</title>
<path fill="none" stroke="#191970" d="M1035.3103,-403.3774C1059.6147,-394.1184 1097.3514,-379.6929 1130,-367 1268.9239,-312.9903 1305.0305,-302.7898 1442,-244 1461.3684,-235.6867 1465.0363,-230.7601 1485,-224 1530.3061,-208.6584 1582.9244,-197.0772 1623.9021,-189.3727"/>
<polygon fill="#191970" stroke="#191970" points="1624.5924,-192.8044 1633.7902,-187.546 1623.3208,-185.9209 1624.5924,-192.8044"/>
</g>
<!-- Node33&#45;&gt;Node6 -->
<g id="edge51" class="edge">
<title>Node33&#45;&gt;Node6</title>
<path fill="none" stroke="#191970" d="M1043.7631,-341.8025C1031.7517,-323.0594 1004.68,-280.4884 983,-244 963.1762,-210.6355 964.4247,-198.1597 940,-168 930.992,-156.8769 919.1521,-146.1752 909.0458,-137.8972"/>
<polygon fill="#191970" stroke="#191970" points="911.0718,-135.0368 901.0644,-131.5578 906.718,-140.5181 911.0718,-135.0368"/>
</g>
<!-- Node34 -->
<g id="node25" class="node">
<title>Node34</title>
<g id="a_node25"><a xlink:href="PositionRaw_8h.html" target="_top" xlink:title="iDynTree/Core/PositionRaw.h">
<polygon fill="none" stroke="#000000" points="992,-224.5 992,-243.5 1148,-243.5 1148,-224.5 992,-224.5"/>
<text text-anchor="middle" x="1070" y="-231.5" font-family="FreeSans.ttf" font-size="10.00" fill="#000000">iDynTree/Core/PositionRaw.h</text>
</a>
</g>
</g>
<!-- Node33&#45;&gt;Node34 -->
<g id="edge30" class="edge">
<title>Node33&#45;&gt;Node34</title>
<path fill="none" stroke="#191970" d="M1051.6367,-341.8845C1054.9036,-322.6913 1062.2917,-279.286 1066.6355,-253.7663"/>
<polygon fill="#191970" stroke="#191970" points="1070.113,-254.1939 1068.3407,-243.7484 1063.2123,-253.0193 1070.113,-254.1939"/>
</g>
<!-- Node33&#45;&gt;Node35 -->
<g id="edge33" class="edge">
<title>Node33&#45;&gt;Node35</title>
<path fill="none" stroke="#191970" d="M1074.6875,-341.8906C1101.3557,-331.5103 1144.0282,-314.9004 1173.8911,-303.2766"/>
<polygon fill="#191970" stroke="#191970" points="1175.4365,-306.4309 1183.4859,-299.5419 1172.8973,-299.9076 1175.4365,-306.4309"/>
</g>
<!-- Node34&#45;&gt;Node6 -->
<g id="edge32" class="edge">
<title>Node34&#45;&gt;Node6</title>
<path fill="none" stroke="#191970" d="M1057.9031,-224.4243C1040.6846,-211.0057 1007.8771,-186.2111 978,-168 958.6572,-156.2099 935.9363,-144.6133 918.163,-136.0131"/>
<polygon fill="#191970" stroke="#191970" points="919.3824,-132.7167 908.8508,-131.5613 916.3632,-139.0322 919.3824,-132.7167"/>
</g>
<!-- Node34&#45;&gt;Node28 -->
<g id="edge31" class="edge">
<title>Node34&#45;&gt;Node28</title>
<path fill="none" stroke="#191970" d="M1148.2447,-229.2008C1279.3507,-221.1019 1551.6969,-204.0326 1782,-188 1795.8579,-187.0353 1810.519,-185.9783 1824.86,-184.9242"/>
<polygon fill="#191970" stroke="#191970" points="1825.5147,-188.3855 1835.2298,-184.1585 1824.9991,-181.4045 1825.5147,-188.3855"/>
</g>
<!-- Node35&#45;&gt;Node6 -->
<g id="edge34" class="edge">
<title>Node35&#45;&gt;Node6</title>
<path fill="none" stroke="#191970" d="M1209.9474,-280.4387C1214.0137,-257.4683 1220.6604,-198.804 1190,-168 1171.1447,-149.0564 994.7234,-131.4237 920.5768,-124.7837"/>
<polygon fill="#191970" stroke="#191970" points="920.6796,-121.2792 910.4102,-123.885 920.0631,-128.252 920.6796,-121.2792"/>
</g>
<!-- Node35&#45;&gt;Node28 -->
<g id="edge50" class="edge">
<title>Node35&#45;&gt;Node28</title>
<path fill="none" stroke="#191970" d="M1276.7367,-285.61C1362.9818,-279.4464 1515.2061,-266.3967 1644,-244 1680.9582,-237.5731 1689.548,-232.858 1726,-224 1773.6815,-212.4132 1828.1078,-199.2419 1866.4518,-189.9715"/>
<polygon fill="#191970" stroke="#191970" points="1867.4321,-193.3355 1876.3297,-187.5837 1865.7873,-186.5314 1867.4321,-193.3355"/>
</g>
<!-- Node31 -->
<g id="node27" class="node">
<title>Node31</title>
<g id="a_node27"><a xlink:href="GeomVector3_8h.html" target="_top" xlink:title="iDynTree/Core/GeomVector3.h">
<polygon fill="none" stroke="#000000" points="1834.5,-224.5 1834.5,-243.5 1997.5,-243.5 1997.5,-224.5 1834.5,-224.5"/>
<text text-anchor="middle" x="1916" y="-231.5" font-family="FreeSans.ttf" font-size="10.00" fill="#000000">iDynTree/Core/GeomVector3.h</text>
</a>
</g>
</g>
<!-- Node35&#45;&gt;Node31 -->
<g id="edge35" class="edge">
<title>Node35&#45;&gt;Node31</title>
<path fill="none" stroke="#191970" d="M1276.5293,-284.5796C1404.6333,-274.4471 1680.4196,-252.6335 1824.3473,-241.2494"/>
<polygon fill="#191970" stroke="#191970" points="1824.7855,-244.7257 1834.4784,-240.448 1824.2335,-237.7475 1824.7855,-244.7257"/>
</g>
<!-- Node36 -->
<g id="node28" class="node">
<title>Node36</title>
<g id="a_node28"><a xlink:href="RotationRaw_8h.html" target="_top" xlink:title="iDynTree/Core/RotationRaw.h">
<polygon fill="none" stroke="#000000" points="1242,-224.5 1242,-243.5 1400,-243.5 1400,-224.5 1242,-224.5"/>
<text text-anchor="middle" x="1321" y="-231.5" font-family="FreeSans.ttf" font-size="10.00" fill="#000000">iDynTree/Core/RotationRaw.h</text>
</a>
</g>
</g>
<!-- Node35&#45;&gt;Node36 -->
<g id="edge37" class="edge">
<title>Node35&#45;&gt;Node36</title>
<path fill="none" stroke="#191970" d="M1227.4254,-280.3733C1245.4021,-271.4644 1272.3441,-258.1127 1292.709,-248.0203"/>
<polygon fill="#191970" stroke="#191970" points="1294.4222,-251.0776 1301.8281,-243.5011 1291.3139,-244.8055 1294.4222,-251.0776"/>
</g>
<!-- Node31&#45;&gt;Node28 -->
<g id="edge36" class="edge">
<title>Node31&#45;&gt;Node28</title>
<path fill="none" stroke="#191970" d="M1916,-224.2455C1916,-216.9382 1916,-206.6944 1916,-197.7046"/>
<polygon fill="#191970" stroke="#191970" points="1919.5001,-197.6426 1916,-187.6427 1912.5001,-197.6427 1919.5001,-197.6426"/>
</g>
<!-- Node36&#45;&gt;Node6 -->
<g id="edge49" class="edge">
<title>Node36&#45;&gt;Node6</title>
<path fill="none" stroke="#191970" d="M1311.1101,-224.4476C1295.1051,-209.6171 1261.8866,-181.3713 1228,-168 1172.2847,-146.0153 994.2793,-130.1837 920.5063,-124.4054"/>
<polygon fill="#191970" stroke="#191970" points="920.6446,-120.9057 910.405,-123.6262 920.1062,-127.885 920.6446,-120.9057"/>
</g>
<!-- Node36&#45;&gt;Node12 -->
<g id="edge38" class="edge">
<title>Node36&#45;&gt;Node12</title>
<path fill="none" stroke="#191970" d="M1384.5264,-224.4369C1449.6626,-214.6314 1550.8715,-199.3957 1619.4427,-189.0731"/>
<polygon fill="#191970" stroke="#191970" points="1620.3681,-192.4734 1629.7356,-187.5237 1619.326,-185.5514 1620.3681,-192.4734"/>
</g>
<!-- Node12&#45;&gt;Node6 -->
<g id="edge46" class="edge">
<title>Node12&#45;&gt;Node6</title>
<path fill="none" stroke="#191970" d="M1612.428,-169.2925C1607.5478,-168.8354 1602.7095,-168.4003 1598,-168 1336.7465,-145.7957 1020.6037,-128.7879 920.2105,-123.6248"/>
<polygon fill="#191970" stroke="#191970" points="920.2746,-120.1235 910.1088,-123.1079 919.9168,-127.1144 920.2746,-120.1235"/>
</g>
<!-- Node12&#45;&gt;Node13 -->
<g id="edge39" class="edge">
<title>Node12&#45;&gt;Node13</title>
<path fill="none" stroke="#191970" d="M1650.8846,-168.3381C1631.5614,-161.5724 1610.4452,-150.343 1599,-132 1586.9718,-112.7227 1608.5779,-93.5336 1628.7495,-80.8567"/>
<polygon fill="#191970" stroke="#191970" points="1630.6752,-83.7841 1637.4967,-75.6775 1627.1087,-77.7608 1630.6752,-83.7841"/>
</g>
<!-- Node12&#45;&gt;Node16 -->
<g id="edge44" class="edge">
<title>Node12&#45;&gt;Node16</title>
<path fill="none" stroke="#191970" d="M1647.3851,-168.4148C1627.0678,-161.7107 1604.8655,-150.5115 1592,-132 1572.6961,-104.2248 1565.6234,-81.365 1588,-56 1609.6281,-31.4834 1829.6205,-16.8108 1917.7645,-11.8767"/>
<polygon fill="#191970" stroke="#191970" points="1918.045,-15.3666 1927.8379,-11.3232 1917.6609,-8.3772 1918.045,-15.3666"/>
</g>
<!-- Node12&#45;&gt;Node27 -->
<g id="edge48" class="edge">
<title>Node12&#45;&gt;Node27</title>
<path fill="none" stroke="#191970" d="M1743.446,-168.4379C1786.3629,-160.1017 1849.8495,-147.2981 1913.8972,-132.1663"/>
<polygon fill="#191970" stroke="#191970" points="1914.8449,-135.5386 1923.7625,-129.8178 1913.2238,-128.7288 1914.8449,-135.5386"/>
</g>
<!-- Node12&#45;&gt;Node25 -->
<g id="edge45" class="edge">
<title>Node12&#45;&gt;Node25</title>
<path fill="none" stroke="#191970" d="M1725.3184,-168.3733C1758.9527,-158.3545 1811.4506,-142.7168 1846.0358,-132.4149"/>
<polygon fill="#191970" stroke="#191970" points="1847.134,-135.7398 1855.7187,-129.5306 1845.1357,-129.0311 1847.134,-135.7398"/>
</g>
<!-- Node15 -->
<g id="node30" class="node">
<title>Node15</title>
<g id="a_node30"><a xlink:href="MatrixView_8h.html" target="_top" xlink:title="iDynTree/Core/MatrixView.h">
<polygon fill="none" stroke="#ff0000" points="1608.5,-112.5 1608.5,-131.5 1759.5,-131.5 1759.5,-112.5 1608.5,-112.5"/>
<text text-anchor="middle" x="1684" y="-119.5" font-family="FreeSans.ttf" font-size="10.00" fill="#000000">iDynTree/Core/MatrixView.h</text>
</a>
</g>
</g>
<!-- Node12&#45;&gt;Node15 -->
<g id="edge40" class="edge">
<title>Node12&#45;&gt;Node15</title>
<path fill="none" stroke="#191970" d="M1691.4323,-168.2455C1690.2579,-160.9382 1688.6116,-150.6944 1687.1668,-141.7046"/>
<polygon fill="#191970" stroke="#191970" points="1690.5922,-140.9606 1685.5497,-131.6427 1683.6809,-142.0714 1690.5922,-140.9606"/>
</g>
<!-- Node26 -->
<g id="node31" class="node">
<title>Node26</title>
<polygon fill="none" stroke="#bfbfbf" points="1778,-112.5 1778,-131.5 1838,-131.5 1838,-112.5 1778,-112.5"/>
<text text-anchor="middle" x="1808" y="-119.5" font-family="FreeSans.ttf" font-size="10.00" fill="#000000">iostream</text>
</g>
<!-- Node12&#45;&gt;Node26 -->
<g id="edge47" class="edge">
<title>Node12&#45;&gt;Node26</title>
<path fill="none" stroke="#191970" d="M1712.7692,-168.3733C1731.1469,-159.4241 1758.7312,-145.9917 1779.4893,-135.8835"/>
<polygon fill="#191970" stroke="#191970" points="1781.0304,-139.026 1788.4888,-131.5011 1777.9657,-132.7325 1781.0304,-139.026"/>
</g>
<!-- Node15&#45;&gt;Node13 -->
<g id="edge43" class="edge">
<title>Node15&#45;&gt;Node13</title>
<path fill="none" stroke="#191970" d="M1679.297,-112.2455C1675.6576,-104.6973 1670.5076,-94.0158 1666.0738,-84.8197"/>
<polygon fill="#191970" stroke="#191970" points="1669.1449,-83.1303 1661.6491,-75.6427 1662.8395,-86.1704 1669.1449,-83.1303"/>
</g>
<!-- Node15&#45;&gt;Node18 -->
<g id="edge42" class="edge">
<title>Node15&#45;&gt;Node18</title>
<path fill="none" stroke="#191970" d="M1759.542,-113.0979C1762.7373,-112.726 1765.9004,-112.3588 1769,-112 1885.8428,-98.475 2021.7348,-83.0689 2102.38,-73.96"/>
<polygon fill="#191970" stroke="#191970" points="2102.8745,-77.4265 2112.4186,-72.8265 2102.089,-70.4707 2102.8745,-77.4265"/>
</g>
<!-- Node15&#45;&gt;Node16 -->
<g id="edge41" class="edge">
<title>Node15&#45;&gt;Node16</title>
<path fill="none" stroke="#191970" d="M1707.02,-112.4509C1755.1414,-92.4895 1866.4836,-46.3031 1921.7212,-23.3897"/>
<polygon fill="#191970" stroke="#191970" points="1923.1425,-26.5894 1931.0382,-19.5249 1920.4603,-20.1236 1923.1425,-26.5894"/>
</g>
<!-- Node42&#45;&gt;Node4 -->
<g id="edge61" class="edge">
<title>Node42&#45;&gt;Node4</title>
<path fill="none" stroke="#191970" d="M1477.6268,-463.1917C1629.5528,-452.3813 1953.8719,-429.3039 2103.8794,-418.6299"/>
<polygon fill="#191970" stroke="#191970" points="2104.213,-422.1151 2113.9393,-417.9141 2103.7161,-415.1328 2104.213,-422.1151"/>
</g>
<!-- Node42&#45;&gt;Node6 -->
<g id="edge58" class="edge">
<title>Node42&#45;&gt;Node6</title>
<path fill="none" stroke="#191970" d="M1344.2002,-459.4404C1297.8669,-450.678 1228.1811,-436.977 1168,-423 1133.9777,-415.0984 1125.8661,-411.5463 1092,-403 1025.9432,-386.3301 999.4654,-405.1188 943,-367 908.1434,-343.4689 888,-332.0558 888,-290 888,-290 888,-290 888,-234 888,-201.7116 888,-164.1872 888,-141.8048"/>
<polygon fill="#191970" stroke="#191970" points="891.5001,-141.5883 888,-131.5884 884.5001,-141.5884 891.5001,-141.5883"/>
</g>
<!-- Node42&#45;&gt;Node41 -->
<g id="edge60" class="edge">
<title>Node42&#45;&gt;Node41</title>
<path fill="none" stroke="#191970" d="M1330.0828,-459.4369C1262.3565,-449.6113 1157.046,-434.3331 1085.8877,-424.0096"/>
<polygon fill="#191970" stroke="#191970" points="1086.0442,-420.4958 1075.6453,-422.5237 1085.0392,-427.4232 1086.0442,-420.4958"/>
</g>
<!-- Node42&#45;&gt;Node43 -->
<g id="edge57" class="edge">
<title>Node42&#45;&gt;Node43</title>
<path fill="none" stroke="#191970" d="M1408.8898,-459.2455C1419.9254,-450.8943 1436.0292,-438.7076 1448.9353,-428.9408"/>
<polygon fill="#191970" stroke="#191970" points="1451.3959,-431.4681 1457.2579,-422.6427 1447.1717,-425.8862 1451.3959,-431.4681"/>
</g>
<!-- Node42&#45;&gt;Node44 -->
<g id="edge59" class="edge">
<title>Node42&#45;&gt;Node44</title>
<path fill="none" stroke="#191970" d="M1434.2525,-459.4369C1477.1043,-448.7239 1545.8841,-431.529 1586.634,-421.3415"/>
<polygon fill="#191970" stroke="#191970" points="1587.5049,-424.7316 1596.3574,-418.9106 1585.8071,-417.9406 1587.5049,-424.7316"/>
</g>
<!-- Node45&#45;&gt;Node2 -->
<g id="edge72" class="edge">
<title>Node45&#45;&gt;Node2</title>
<path fill="none" stroke="#191970" d="M1765.7907,-571.3733C1732.2703,-561.9404 1681.0495,-547.5265 1644.619,-537.2747"/>
<polygon fill="#191970" stroke="#191970" points="1645.3372,-533.8409 1634.7629,-534.5011 1643.4409,-540.5792 1645.3372,-533.8409"/>
</g>
<!-- Node45&#45;&gt;Node4 -->
<g id="edge73" class="edge">
<title>Node45&#45;&gt;Node4</title>
<path fill="none" stroke="#191970" d="M1875.7555,-573.1734C1982.645,-560.3897 2169.2871,-531.0825 2210,-479 2221.2389,-464.6225 2210.5831,-444.9198 2199.5204,-430.7914"/>
<polygon fill="#191970" stroke="#191970" points="2201.902,-428.1874 2192.7719,-422.8123 2196.5573,-432.7078 2201.902,-428.1874"/>
</g>
<!-- Node45&#45;&gt;Node6 -->
<g id="edge66" class="edge">
<title>Node45&#45;&gt;Node6</title>
<path fill="none" stroke="#191970" d="M1740.9335,-571.4652C1685.206,-562.3876 1599.3528,-548.1917 1525,-535 1259.189,-487.8396 1176.2228,-529.1369 928,-423 855.8809,-392.1628 812,-368.4353 812,-290 812,-290 812,-290 812,-234 812,-194.2361 845.2071,-158.1042 867.7208,-138.177"/>
<polygon fill="#191970" stroke="#191970" points="870.1079,-140.7412 875.4501,-131.5918 865.5683,-135.4128 870.1079,-140.7412"/>
</g>
<!-- Node45&#45;&gt;Node21 -->
<g id="edge68" class="edge">
<title>Node45&#45;&gt;Node21</title>
<path fill="none" stroke="#191970" d="M1875.7044,-578.511C2004.372,-573.6331 2260.1181,-560.951 2346,-535 2404.2659,-517.3938 2466,-529.8678 2466,-469 2466,-469 2466,-469 2466,-122 2466,-65.8579 2397.5715,-34.3725 2353.4599,-19.9084"/>
<polygon fill="#191970" stroke="#191970" points="2354.2272,-16.4811 2343.6382,-16.8346 2352.1364,-23.1616 2354.2272,-16.4811"/>
</g>
<!-- Node45&#45;&gt;Node31 -->
<g id="edge65" class="edge">
<title>Node45&#45;&gt;Node31</title>
<path fill="none" stroke="#191970" d="M1875.6235,-574.4458C2034.827,-559.6288 2390,-520.7715 2390,-469 2390,-469 2390,-469 2390,-413 2390,-370.4214 2368.4577,-359.5731 2333,-336 2276.5385,-298.463 2089.7029,-262.7609 1986.3282,-245.2457"/>
<polygon fill="#191970" stroke="#191970" points="1986.7287,-241.7639 1976.2867,-243.557 1985.5678,-248.667 1986.7287,-241.7639"/>
</g>
<!-- Node45&#45;&gt;Node44 -->
<g id="edge67" class="edge">
<title>Node45&#45;&gt;Node44</title>
<path fill="none" stroke="#191970" d="M1794.9072,-571.2669C1782.8122,-548.9207 1750.3314,-493.2372 1710,-459 1693.182,-444.7232 1671.1771,-433.375 1653.1358,-425.5222"/>
<polygon fill="#191970" stroke="#191970" points="1654.1547,-422.1545 1643.5787,-421.5226 1651.4523,-428.6118 1654.1547,-422.1545"/>
</g>
<!-- Node46 -->
<g id="node36" class="node">
<title>Node46</title>
<g id="a_node36"><a xlink:href="VectorDynSize_8h.html" target="_top" xlink:title="iDynTree/Core/VectorDynSize.h">
<polygon fill="none" stroke="#000000" points="2089.5,-168.5 2089.5,-187.5 2256.5,-187.5 2256.5,-168.5 2089.5,-168.5"/>
<text text-anchor="middle" x="2173" y="-175.5" font-family="FreeSans.ttf" font-size="10.00" fill="#000000">iDynTree/Core/VectorDynSize.h</text>
</a>
</g>
</g>
<!-- Node45&#45;&gt;Node46 -->
<g id="edge69" class="edge">
<title>Node45&#45;&gt;Node46</title>
<path fill="none" stroke="#191970" d="M1875.5813,-575.9321C1986.5974,-568.0613 2188.2403,-552.024 2259,-535 2337.3987,-516.1382 2428,-549.6357 2428,-469 2428,-469 2428,-469 2428,-290 2428,-246.2121 2300.3607,-208.3223 2225.6899,-189.9027"/>
<polygon fill="#191970" stroke="#191970" points="2226.5126,-186.5008 2215.9689,-187.5407 2224.8598,-193.3029 2226.5126,-186.5008"/>
</g>
<!-- Node46&#45;&gt;Node6 -->
<g id="edge71" class="edge">
<title>Node46&#45;&gt;Node6</title>
<path fill="none" stroke="#191970" d="M2089.3439,-172.6834C2062.71,-171.0731 2033.1225,-169.3699 2006,-168 1576.6869,-146.3162 1054.2446,-127.7497 920.4264,-123.1124"/>
<polygon fill="#191970" stroke="#191970" points="920.1876,-119.6021 910.0727,-122.7545 919.9458,-126.5979 920.1876,-119.6021"/>
</g>
<!-- Node46&#45;&gt;Node18 -->
<g id="edge70" class="edge">
<title>Node46&#45;&gt;Node18</title>
<path fill="none" stroke="#191970" d="M2173,-168.4509C2173,-150.184 2173,-109.9553 2173,-85.6976"/>
<polygon fill="#191970" stroke="#191970" points="2176.5001,-85.5249 2173,-75.5249 2169.5001,-85.5249 2176.5001,-85.5249"/>
</g>
<!-- Node48&#45;&gt;Node1 -->
<g id="edge122" class="edge">
<title>Node48&#45;&gt;Node1</title>
<path fill="none" stroke="#191970" d="M949.6208,-694.6704C1058.6878,-686.5104 1320.5914,-666.5541 1540,-647 1541.2711,-646.8867 1542.551,-646.7719 1543.8382,-646.6558"/>
<polygon fill="#191970" stroke="#191970" points="1544.1864,-650.1387 1553.8261,-645.7425 1543.5489,-643.1678 1544.1864,-650.1387"/>
</g>
<!-- Node48&#45;&gt;Node2 -->
<g id="edge123" class="edge">
<title>Node48&#45;&gt;Node2</title>
<path fill="none" stroke="#191970" d="M949.628,-696.4064C1086.9,-690.5168 1453.755,-672.5525 1502,-647 1545.7952,-623.8043 1577.2921,-572.0822 1591.8878,-544.0087"/>
<polygon fill="#191970" stroke="#191970" points="1595.1356,-545.3401 1596.4919,-534.8324 1588.879,-542.2008 1595.1356,-545.3401"/>
</g>
<!-- Node48&#45;&gt;Node6 -->
<g id="edge125" class="edge">
<title>Node48&#45;&gt;Node6</title>
<path fill="none" stroke="#191970" d="M846.4596,-696.9195C660.9215,-690.5562 38,-663.0804 38,-581 38,-581 38,-581 38,-234 38,-149.9658 699.4584,-127.0361 855.3659,-122.7986"/>
<polygon fill="#191970" stroke="#191970" points="855.7975,-126.2885 865.7015,-122.5252 855.6124,-119.2909 855.7975,-126.2885"/>
</g>
<!-- Node48&#45;&gt;Node44 -->
<g id="edge126" class="edge">
<title>Node48&#45;&gt;Node44</title>
<path fill="none" stroke="#191970" d="M933.7374,-688.9193C1019.7047,-665.5571 1244.4577,-602.5988 1427,-535 1485.6127,-513.2946 1504.5976,-514.5579 1556,-479 1575.5664,-465.4648 1594.0456,-445.3151 1606.0698,-430.8428"/>
<polygon fill="#191970" stroke="#191970" points="1609.108,-432.6519 1612.6744,-422.6754 1603.665,-428.2504 1609.108,-432.6519"/>
</g>
<!-- Node48&#45;&gt;Node45 -->
<g id="edge124" class="edge">
<title>Node48&#45;&gt;Node45</title>
<path fill="none" stroke="#191970" d="M949.738,-697.5653C1121.7891,-694.1505 1667.8799,-680.739 1739,-647 1760.6829,-636.7138 1778.3311,-614.9623 1788.9655,-599.2362"/>
<polygon fill="#191970" stroke="#191970" points="1791.923,-601.1081 1794.3939,-590.8054 1786.0375,-597.3185 1791.923,-601.1081"/>
</g>
<!-- Node49 -->
<g id="node39" class="node">
<title>Node49</title>
<g id="a_node39"><a xlink:href="XMLDocument_8h.html" target="_top" xlink:title="iDynTree/XMLDocument.h">
<polygon fill="none" stroke="#000000" points="434,-459.5 434,-478.5 576,-478.5 576,-459.5 434,-459.5"/>
<text text-anchor="middle" x="505" y="-466.5" font-family="FreeSans.ttf" font-size="10.00" fill="#000000">iDynTree/XMLDocument.h</text>
</a>
</g>
</g>
<!-- Node48&#45;&gt;Node49 -->
<g id="edge78" class="edge">
<title>Node48&#45;&gt;Node49</title>
<path fill="none" stroke="#191970" d="M846.3456,-692.5752C762.133,-679.9573 596.4907,-642.1982 515,-535 505.0387,-521.8962 503.0525,-503.0169 503.2583,-488.8043"/>
<polygon fill="#191970" stroke="#191970" points="506.7645,-488.7726 503.7828,-478.606 499.7737,-488.413 506.7645,-488.7726"/>
</g>
<!-- Node50 -->
<g id="node40" class="node">
<title>Node50</title>
<g id="a_node40"><a xlink:href="JointElement_8h.html" target="_top" xlink:title="JointElement.h">
<polygon fill="none" stroke="#000000" points="524,-515.5 524,-534.5 612,-534.5 612,-515.5 524,-515.5"/>
<text text-anchor="middle" x="568" y="-522.5" font-family="FreeSans.ttf" font-size="10.00" fill="#000000">JointElement.h</text>
</a>
</g>
</g>
<!-- Node48&#45;&gt;Node50 -->
<g id="edge81" class="edge">
<title>Node48&#45;&gt;Node50</title>
<path fill="none" stroke="#191970" d="M879.7877,-688.9248C824.7964,-660.0127 660.2256,-573.4883 595.0292,-539.2108"/>
<polygon fill="#191970" stroke="#191970" points="596.636,-536.1014 586.156,-534.5457 593.3785,-542.2972 596.636,-536.1014"/>
</g>
<!-- Node53 -->
<g id="node43" class="node">
<title>Node53</title>
<polygon fill="none" stroke="#bfbfbf" points="105.5,-403.5 105.5,-422.5 198.5,-422.5 198.5,-403.5 105.5,-403.5"/>
<text text-anchor="middle" x="152" y="-410.5" font-family="FreeSans.ttf" font-size="10.00" fill="#000000">unordered_map</text>
</g>
<!-- Node48&#45;&gt;Node53 -->
<g id="edge127" class="edge">
<title>Node48&#45;&gt;Node53</title>
<path fill="none" stroke="#191970" d="M846.415,-690.7762C704.6802,-668.8723 312.5765,-603.4926 203,-535 174.4542,-517.157 164.1529,-510.3933 152,-479 146.3122,-464.3073 146.7343,-446.3577 148.3439,-432.8884"/>
<polygon fill="#191970" stroke="#191970" points="151.8352,-433.2083 149.8671,-422.7979 144.9136,-432.1634 151.8352,-433.2083"/>
</g>
<!-- Node56 -->
<g id="node46" class="node">
<title>Node56</title>
<g id="a_node46"><a xlink:href="MaterialElement_8h.html" target="_top" xlink:title="MaterialElement.h">
<polygon fill="none" stroke="#000000" points="668,-515.5 668,-534.5 774,-534.5 774,-515.5 668,-515.5"/>
<text text-anchor="middle" x="721" y="-522.5" font-family="FreeSans.ttf" font-size="10.00" fill="#000000">MaterialElement.h</text>
</a>
</g>
</g>
<!-- Node48&#45;&gt;Node56 -->
<g id="edge100" class="edge">
<title>Node48&#45;&gt;Node56</title>
<path fill="none" stroke="#191970" d="M887.3188,-688.9412C866.743,-670.4352 820.3434,-628.2518 783,-591 766.7778,-574.8176 748.9304,-555.6681 736.5668,-542.1756"/>
<polygon fill="#191970" stroke="#191970" points="738.9659,-539.6121 729.6409,-534.5827 733.7942,-544.3295 738.9659,-539.6121"/>
</g>
<!-- Node57 -->
<g id="node47" class="node">
<title>Node57</title>
<g id="a_node47"><a xlink:href="SensorElement_8h.html" target="_top" xlink:title="SensorElement.h">
<polygon fill="none" stroke="#000000" points="905.5,-627.5 905.5,-646.5 1004.5,-646.5 1004.5,-627.5 905.5,-627.5"/>
<text text-anchor="middle" x="955" y="-634.5" font-family="FreeSans.ttf" font-size="10.00" fill="#000000">SensorElement.h</text>
</a>
</g>
</g>
<!-- Node48&#45;&gt;Node57 -->
<g id="edge105" class="edge">
<title>Node48&#45;&gt;Node57</title>
<path fill="none" stroke="#191970" d="M906.9063,-688.8906C915.4728,-679.6478 928.6169,-665.466 939.0003,-654.2628"/>
<polygon fill="#191970" stroke="#191970" points="941.7375,-656.4584 945.9682,-646.7449 936.6035,-651.7 941.7375,-656.4584"/>
</g>
<!-- Node58 -->
<g id="node48" class="node">
<title>Node58</title>
<g id="a_node48"><a xlink:href="VisualElement_8h.html" target="_top" xlink:title="VisualElement.h">
<polygon fill="none" stroke="#000000" points="792,-571.5 792,-590.5 888,-590.5 888,-571.5 792,-571.5"/>
<text text-anchor="middle" x="840" y="-578.5" font-family="FreeSans.ttf" font-size="10.00" fill="#000000">VisualElement.h</text>
</a>
</g>
</g>
<!-- Node48&#45;&gt;Node58 -->
<g id="edge113" class="edge">
<title>Node48&#45;&gt;Node58</title>
<path fill="none" stroke="#191970" d="M893.2536,-688.8845C883.6521,-669.4331 861.7753,-625.1138 849.2534,-599.7462"/>
<polygon fill="#191970" stroke="#191970" points="852.3768,-598.1662 844.812,-590.7484 846.0998,-601.2647 852.3768,-598.1662"/>
</g>
<!-- Node49&#45;&gt;Node6 -->
<g id="edge80" class="edge">
<title>Node49&#45;&gt;Node6</title>
<path fill="none" stroke="#191970" d="M507.5028,-459.3279C512.4487,-439.3368 523,-391.9491 523,-351.5 523,-351.5 523,-351.5 523,-234 523,-164.6521 766.8482,-133.8439 855.9211,-124.9036"/>
<polygon fill="#191970" stroke="#191970" points="856.377,-128.3758 865.9896,-123.9206 855.6968,-121.4089 856.377,-128.3758"/>
</g>
<!-- Node49&#45;&gt;Node47 -->
<g id="edge79" class="edge">
<title>Node49&#45;&gt;Node47</title>
<path fill="none" stroke="#191970" d="M548.5463,-459.4369C596.9485,-448.8074 674.4087,-431.7965 720.9264,-421.5809"/>
<polygon fill="#191970" stroke="#191970" points="721.9074,-424.9489 730.9239,-419.3853 720.4059,-418.1118 721.9074,-424.9489"/>
</g>
<!-- Node50&#45;&gt;Node6 -->
<g id="edge98" class="edge">
<title>Node50&#45;&gt;Node6</title>
<path fill="none" stroke="#191970" d="M523.9378,-521.3396C440.8707,-514.0578 267.5658,-496.9075 247,-479 223.9794,-458.9549 228,-443.5246 228,-413 228,-413 228,-413 228,-234 228,-168.8059 296.286,-185.811 359,-168 453.3323,-141.2093 756.2236,-127.1779 855.8796,-123.2013"/>
<polygon fill="#191970" stroke="#191970" points="856.0887,-126.6959 865.9438,-122.8065 855.8142,-119.7013 856.0887,-126.6959"/>
</g>
<!-- Node50&#45;&gt;Node41 -->
<g id="edge96" class="edge">
<title>Node50&#45;&gt;Node41</title>
<path fill="none" stroke="#191970" d="M612.1415,-515.7739C653.7616,-506.9145 717.8139,-492.8662 773,-479 841.5012,-461.7882 920.3962,-439.2731 967.6738,-425.4881"/>
<polygon fill="#191970" stroke="#191970" points="968.9372,-428.7654 977.5536,-422.6002 966.9732,-422.0465 968.9372,-428.7654"/>
</g>
<!-- Node50&#45;&gt;Node47 -->
<g id="edge97" class="edge">
<title>Node50&#45;&gt;Node47</title>
<path fill="none" stroke="#191970" d="M573.5139,-515.4861C582.2486,-501.2199 600.5954,-474.3278 623,-459 652.6003,-438.7494 691.8591,-426.7716 720.7613,-420.1418"/>
<polygon fill="#191970" stroke="#191970" points="721.8761,-423.4812 730.9037,-417.9358 720.3883,-416.6411 721.8761,-423.4812"/>
</g>
<!-- Node51 -->
<g id="node41" class="node">
<title>Node51</title>
<g id="a_node41"><a xlink:href="XMLElement_8h.html" target="_top" xlink:title="iDynTree/XMLElement.h">
<polygon fill="none" stroke="#000000" points="632,-459.5 632,-478.5 764,-478.5 764,-459.5 632,-459.5"/>
<text text-anchor="middle" x="698" y="-466.5" font-family="FreeSans.ttf" font-size="10.00" fill="#000000">iDynTree/XMLElement.h</text>
</a>
</g>
</g>
<!-- Node50&#45;&gt;Node51 -->
<g id="edge82" class="edge">
<title>Node50&#45;&gt;Node51</title>
<path fill="none" stroke="#191970" d="M590.3478,-515.3733C611.4033,-506.3032 643.1495,-492.6279 666.7175,-482.4755"/>
<polygon fill="#191970" stroke="#191970" points="668.1444,-485.6719 675.9438,-478.5011 665.375,-479.243 668.1444,-485.6719"/>
</g>
<!-- Node50&#45;&gt;Node53 -->
<g id="edge99" class="edge">
<title>Node50&#45;&gt;Node53</title>
<path fill="none" stroke="#191970" d="M523.9083,-522.963C441.4094,-518.5531 267.2415,-506.2413 214,-479 192.4731,-467.9856 174.4324,-446.381 163.4598,-430.8882"/>
<polygon fill="#191970" stroke="#191970" points="166.3501,-428.9141 157.8432,-422.5987 160.555,-432.8406 166.3501,-428.9141"/>
</g>
<!-- Node54 -->
<g id="node44" class="node">
<title>Node54</title>
<g id="a_node44"><a xlink:href="Axis_8h.html" target="_top" xlink:title="iDynTree/Core/Axis.h">
<polygon fill="none" stroke="#000000" points="1177,-403.5 1177,-422.5 1295,-422.5 1295,-403.5 1177,-403.5"/>
<text text-anchor="middle" x="1236" y="-410.5" font-family="FreeSans.ttf" font-size="10.00" fill="#000000">iDynTree/Core/Axis.h</text>
</a>
</g>
</g>
<!-- Node50&#45;&gt;Node54 -->
<g id="edge88" class="edge">
<title>Node50&#45;&gt;Node54</title>
<path fill="none" stroke="#191970" d="M612.0877,-517.6081C726.43,-498.4369 1033.0628,-447.0254 1169.2461,-424.1923"/>
<polygon fill="#191970" stroke="#191970" points="1169.8606,-427.6382 1179.1441,-422.5327 1168.703,-420.7346 1169.8606,-427.6382"/>
</g>
<!-- Node51&#45;&gt;Node6 -->
<g id="edge85" class="edge">
<title>Node51&#45;&gt;Node6</title>
<path fill="none" stroke="#191970" d="M698,-459.2511C698,-439.1182 698,-391.4826 698,-351.5 698,-351.5 698,-351.5 698,-234 698,-202.7875 699.0809,-189.1882 722,-168 741.4245,-150.0425 813.2789,-134.9363 855.8215,-127.3165"/>
<polygon fill="#191970" stroke="#191970" points="856.4544,-130.7591 865.701,-125.587 855.2473,-123.8639 856.4544,-130.7591"/>
</g>
<!-- Node51&#45;&gt;Node44 -->
<g id="edge87" class="edge">
<title>Node51&#45;&gt;Node44</title>
<path fill="none" stroke="#191970" d="M764.0413,-465.8576C901.5887,-459.1736 1228.8005,-442.5483 1503,-423 1531.0384,-421.0011 1562.8147,-418.2545 1586.1686,-416.1455"/>
<polygon fill="#191970" stroke="#191970" points="1586.621,-419.6188 1596.2624,-415.2263 1585.9862,-412.6477 1586.621,-419.6188"/>
</g>
<!-- Node51&#45;&gt;Node47 -->
<g id="edge84" class="edge">
<title>Node51&#45;&gt;Node47</title>
<path fill="none" stroke="#191970" d="M708.7996,-459.2455C717.8678,-451.0549 731.0206,-439.1749 741.7245,-429.5069"/>
<polygon fill="#191970" stroke="#191970" points="744.2491,-431.9429 749.3242,-422.6427 739.5571,-426.7482 744.2491,-431.9429"/>
</g>
<!-- Node52 -->
<g id="node42" class="node">
<title>Node52</title>
<polygon fill="none" stroke="#bfbfbf" points="586.5,-403.5 586.5,-422.5 651.5,-422.5 651.5,-403.5 586.5,-403.5"/>
<text text-anchor="middle" x="619" y="-410.5" font-family="FreeSans.ttf" font-size="10.00" fill="#000000">functional</text>
</g>
<!-- Node51&#45;&gt;Node52 -->
<g id="edge83" class="edge">
<title>Node51&#45;&gt;Node52</title>
<path fill="none" stroke="#191970" d="M684.2393,-459.2455C672.3448,-450.814 654.935,-438.4729 641.0915,-428.6598"/>
<polygon fill="#191970" stroke="#191970" points="642.7854,-425.5704 632.6031,-422.6427 638.7372,-431.2811 642.7854,-425.5704"/>
</g>
<!-- Node51&#45;&gt;Node53 -->
<g id="edge86" class="edge">
<title>Node51&#45;&gt;Node53</title>
<path fill="none" stroke="#191970" d="M631.8678,-462.2172C523.5819,-451.111 310.341,-429.2401 208.6014,-418.8053"/>
<polygon fill="#191970" stroke="#191970" points="208.8274,-415.3102 198.5224,-417.7715 208.1131,-422.2736 208.8274,-415.3102"/>
</g>
<!-- Node54&#45;&gt;Node6 -->
<g id="edge89" class="edge">
<title>Node54&#45;&gt;Node6</title>
<path fill="none" stroke="#191970" d="M1176.7749,-404.8174C1119.3607,-396.2159 1036.8404,-381.8874 1008,-367 963.5759,-344.0684 926,-339.9936 926,-290 926,-290 926,-290 926,-234 926,-199.6118 909.7366,-162.2832 898.489,-140.5791"/>
<polygon fill="#191970" stroke="#191970" points="901.431,-138.6605 893.607,-131.5166 895.2683,-141.9804 901.431,-138.6605"/>
</g>
<!-- Node54&#45;&gt;Node13 -->
<g id="edge95" class="edge">
<title>Node54&#45;&gt;Node13</title>
<path fill="none" stroke="#191970" d="M1236.2189,-403.4928C1237.0322,-387.9016 1240.6218,-356.5784 1256,-336 1303.4981,-272.4403 1343.6126,-288.9487 1409,-244 1487.54,-190.0099 1499.0815,-165.4353 1578,-112 1594.7599,-100.6519 1614.4269,-89.1944 1629.9452,-80.5528"/>
<polygon fill="#191970" stroke="#191970" points="1631.9368,-83.4518 1639.0083,-75.5623 1628.5603,-77.3199 1631.9368,-83.4518"/>
</g>
<!-- Node54&#45;&gt;Node33 -->
<g id="edge94" class="edge">
<title>Node54&#45;&gt;Node33</title>
<path fill="none" stroke="#191970" d="M1206.9375,-403.3906C1175.1338,-392.8749 1123.9949,-375.966 1088.7856,-364.3243"/>
<polygon fill="#191970" stroke="#191970" points="1089.4517,-360.8582 1078.8584,-361.0419 1087.2541,-367.5043 1089.4517,-360.8582"/>
</g>
<!-- Node55 -->
<g id="node45" class="node">
<title>Node55</title>
<g id="a_node45"><a xlink:href="Direction_8h.html" target="_top" xlink:title="iDynTree/Core/Direction.h">
<polygon fill="none" stroke="#000000" points="1494.5,-224.5 1494.5,-243.5 1635.5,-243.5 1635.5,-224.5 1494.5,-224.5"/>
<text text-anchor="middle" x="1565" y="-231.5" font-family="FreeSans.ttf" font-size="10.00" fill="#000000">iDynTree/Core/Direction.h</text>
</a>
</g>
</g>
<!-- Node54&#45;&gt;Node55 -->
<g id="edge90" class="edge">
<title>Node54&#45;&gt;Node55</title>
<path fill="none" stroke="#191970" d="M1239.9905,-403.2854C1247.1052,-387.1071 1263.474,-354.5899 1287,-336 1324.3408,-306.4939 1453.0777,-266.3157 1521.4806,-246.3351"/>
<polygon fill="#191970" stroke="#191970" points="1522.4894,-249.6868 1531.117,-243.5374 1520.5377,-242.9644 1522.4894,-249.6868"/>
</g>
<!-- Node55&#45;&gt;Node6 -->
<g id="edge91" class="edge">
<title>Node55&#45;&gt;Node6</title>
<path fill="none" stroke="#191970" d="M1526.2193,-224.4327C1468.494,-210.4597 1356.4115,-184.3582 1260,-168 1135.1075,-146.8095 985.0572,-131.2479 920.3236,-125.0073"/>
<polygon fill="#191970" stroke="#191970" points="920.6122,-121.519 910.3247,-124.0523 919.9467,-128.4873 920.6122,-121.519"/>
</g>
<!-- Node55&#45;&gt;Node28 -->
<g id="edge92" class="edge">
<title>Node55&#45;&gt;Node28</title>
<path fill="none" stroke="#191970" d="M1624.9402,-224.4369C1686.2732,-214.6516 1781.5028,-199.4582 1846.1962,-189.1368"/>
<polygon fill="#191970" stroke="#191970" points="1846.9833,-192.5556 1856.307,-187.5237 1845.8804,-185.643 1846.9833,-192.5556"/>
</g>
<!-- Node55&#45;&gt;Node13 -->
<g id="edge93" class="edge">
<title>Node55&#45;&gt;Node13</title>
<path fill="none" stroke="#191970" d="M1564.8644,-224.2283C1565.0174,-202.2736 1567.9929,-148.1388 1592,-112 1600.741,-98.8418 1614.6287,-88.2655 1627.3273,-80.5876"/>
<polygon fill="#191970" stroke="#191970" points="1629.3015,-83.4917 1636.273,-75.5137 1625.848,-77.4029 1629.3015,-83.4917"/>
</g>
<!-- Node56&#45;&gt;Node6 -->
<g id="edge104" class="edge">
<title>Node56&#45;&gt;Node6</title>
<path fill="none" stroke="#191970" d="M667.8603,-519.8504C587.616,-511.6145 442.9239,-494.7947 425,-479 402.0985,-458.819 406,-443.5246 406,-413 406,-413 406,-413 406,-234 406,-141.4947 747.0932,-125.3671 855.4062,-122.5778"/>
<polygon fill="#191970" stroke="#191970" points="855.804,-126.0695 865.7188,-122.335 855.6392,-119.0714 855.804,-126.0695"/>
</g>
<!-- Node56&#45;&gt;Node28 -->
<g id="edge102" class="edge">
<title>Node56&#45;&gt;Node28</title>
<path fill="none" stroke="#191970" d="M774.1782,-523.2177C903.5518,-517.7475 1229.5691,-496.7882 1304,-423 1331.9203,-395.3208 1292.9929,-364.5709 1320,-336 1349.7678,-304.5085 1657.198,-255.4206 1699,-244 1761.7279,-226.8623 1833.8243,-204.3713 1877.101,-190.5646"/>
<polygon fill="#191970" stroke="#191970" points="1878.2134,-193.8835 1886.6714,-187.5029 1876.0805,-187.2164 1878.2134,-193.8835"/>
</g>
<!-- Node56&#45;&gt;Node47 -->
<g id="edge103" class="edge">
<title>Node56&#45;&gt;Node47</title>
<path fill="none" stroke="#191970" d="M738.0567,-515.377C750.3089,-507.4014 765.8708,-494.8248 773,-479 779.7277,-464.0664 775.182,-445.6862 769.6959,-432.1181"/>
<polygon fill="#191970" stroke="#191970" points="772.7991,-430.4859 765.4885,-422.8173 766.4213,-433.371 772.7991,-430.4859"/>
</g>
<!-- Node56&#45;&gt;Node51 -->
<g id="edge101" class="edge">
<title>Node56&#45;&gt;Node51</title>
<path fill="none" stroke="#191970" d="M716.9937,-515.2455C713.9265,-507.7776 709.5997,-497.2427 705.8503,-488.1137"/>
<polygon fill="#191970" stroke="#191970" points="708.9972,-486.5631 701.9604,-478.6427 702.5221,-489.2226 708.9972,-486.5631"/>
</g>
<!-- Node57&#45;&gt;Node6 -->
<g id="edge110" class="edge">
<title>Node57&#45;&gt;Node6</title>
<path fill="none" stroke="#191970" d="M951.1095,-627.4894C945.7563,-614.5623 935.6788,-590.7872 926,-571 894.8053,-507.2259 774,-360.9947 774,-290 774,-290 774,-290 774,-234 774,-187.4628 822.9383,-153.828 856.6864,-136.1659"/>
<polygon fill="#191970" stroke="#191970" points="858.3862,-139.2289 865.749,-131.6105 855.2424,-132.9746 858.3862,-139.2289"/>
</g>
<!-- Node57&#45;&gt;Node41 -->
<g id="edge107" class="edge">
<title>Node57&#45;&gt;Node41</title>
<path fill="none" stroke="#191970" d="M971.6364,-627.2532C983.6046,-619.2128 998.8472,-606.6093 1006,-591 1030.1793,-538.2343 1021.0401,-467.1095 1014.4513,-432.9463"/>
<polygon fill="#191970" stroke="#191970" points="1017.8178,-431.9422 1012.3664,-422.8575 1010.9627,-433.3589 1017.8178,-431.9422"/>
</g>
<!-- Node57&#45;&gt;Node44 -->
<g id="edge112" class="edge">
<title>Node57&#45;&gt;Node44</title>
<path fill="none" stroke="#191970" d="M1004.6178,-629.0556C1106.0735,-611.5791 1343.0281,-564.401 1525,-479 1553.2786,-465.7286 1582.2653,-444.2186 1600.6595,-429.3812"/>
<polygon fill="#191970" stroke="#191970" points="1603.2864,-431.7526 1608.789,-422.6988 1598.8413,-426.345 1603.2864,-431.7526"/>
</g>
<!-- Node57&#45;&gt;Node45 -->
<g id="edge108" class="edge">
<title>Node57&#45;&gt;Node45</title>
<path fill="none" stroke="#191970" d="M1004.7039,-633.706C1143.8821,-624.4824 1538.7305,-598.3149 1714.1699,-586.6881"/>
<polygon fill="#191970" stroke="#191970" points="1714.6427,-590.1646 1724.3894,-586.0109 1714.1798,-583.1799 1714.6427,-590.1646"/>
</g>
<!-- Node57&#45;&gt;Node47 -->
<g id="edge109" class="edge">
<title>Node57&#45;&gt;Node47</title>
<path fill="none" stroke="#191970" d="M947.719,-627.41C926.9095,-600.1768 865.0042,-520.3757 808,-459 798.5227,-448.7959 787.3164,-437.9921 778.1162,-429.4207"/>
<polygon fill="#191970" stroke="#191970" points="780.3674,-426.7359 770.6414,-422.5341 775.6244,-431.884 780.3674,-426.7359"/>
</g>
<!-- Node57&#45;&gt;Node51 -->
<g id="edge106" class="edge">
<title>Node57&#45;&gt;Node51</title>
<path fill="none" stroke="#191970" d="M905.3056,-627.4972C828.3229,-611.6041 686.2343,-577.1821 659,-535 648.2797,-518.3957 663.1197,-498.8466 677.4734,-485.3563"/>
<polygon fill="#191970" stroke="#191970" points="680.0281,-487.7709 685.2323,-478.5422 675.4089,-482.5113 680.0281,-487.7709"/>
</g>
<!-- Node57&#45;&gt;Node53 -->
<g id="edge111" class="edge">
<title>Node57&#45;&gt;Node53</title>
<path fill="none" stroke="#191970" d="M905.4697,-635.7919C790.0843,-631.6789 495.6594,-613.6526 265,-535 216.7871,-518.5599 194.903,-520.238 165,-479 155.3709,-465.7209 152.3946,-447.1461 151.6695,-433.0837"/>
<polygon fill="#191970" stroke="#191970" points="155.1668,-432.8957 151.4865,-422.9606 148.1679,-433.0223 155.1668,-432.8957"/>
</g>
<!-- Node58&#45;&gt;Node6 -->
<g id="edge119" class="edge">
<title>Node58&#45;&gt;Node6</title>
<path fill="none" stroke="#191970" d="M839.5574,-571.0661C838.8393,-558.0674 837.0672,-534.6325 833,-515 822.4206,-463.9326 825.5984,-447.2507 798,-403 785.6886,-383.2601 772.3041,-386.7444 760,-367 741.0417,-336.5776 736,-325.846 736,-290 736,-290 736,-290 736,-234 736,-202.7875 737.8879,-190.029 760,-168 785.9244,-142.1731 827.3672,-130.7582 856.0406,-125.7709"/>
<polygon fill="#191970" stroke="#191970" points="856.639,-129.2199 865.9743,-124.2095 855.5521,-122.3048 856.639,-129.2199"/>
</g>
<!-- Node58&#45;&gt;Node41 -->
<g id="edge116" class="edge">
<title>Node58&#45;&gt;Node41</title>
<path fill="none" stroke="#191970" d="M851.3847,-571.3759C862.0747,-562.2352 878.4119,-547.9967 892,-535 929.7162,-498.9253 971.7272,-454.3697 994.0363,-430.3366"/>
<polygon fill="#191970" stroke="#191970" points="996.8436,-432.4561 1001.0663,-422.7392 991.7057,-427.7019 996.8436,-432.4561"/>
</g>
<!-- Node58&#45;&gt;Node42 -->
<g id="edge117" class="edge">
<title>Node58&#45;&gt;Node42</title>
<path fill="none" stroke="#191970" d="M865.9822,-571.453C905.8833,-557.1433 984.89,-530.1954 1054,-515 1137.9328,-496.5456 1235.1838,-484.3296 1304.4751,-477.1551"/>
<polygon fill="#191970" stroke="#191970" points="1304.8976,-480.6302 1314.4906,-476.133 1304.1869,-473.6664 1304.8976,-480.6302"/>
</g>
<!-- Node58&#45;&gt;Node44 -->
<g id="edge121" class="edge">
<title>Node58&#45;&gt;Node44</title>
<path fill="none" stroke="#191970" d="M888.1387,-578.3483C997.0125,-571.2917 1269.542,-547.6533 1486,-479 1526.2883,-466.2219 1569.5915,-442.9624 1595.7405,-427.747"/>
<polygon fill="#191970" stroke="#191970" points="1597.729,-430.6375 1604.5609,-422.5396 1594.1702,-424.6096 1597.729,-430.6375"/>
</g>
<!-- Node58&#45;&gt;Node47 -->
<g id="edge118" class="edge">
<title>Node58&#45;&gt;Node47</title>
<path fill="none" stroke="#191970" d="M836.5601,-571.2617C829.0054,-550.2574 809.9587,-499.334 789,-459 784.0661,-449.505 777.8164,-439.4005 772.3832,-431.0876"/>
<polygon fill="#191970" stroke="#191970" points="775.1737,-428.9638 766.7095,-422.5912 769.3523,-432.8512 775.1737,-428.9638"/>
</g>
<!-- Node58&#45;&gt;Node51 -->
<g id="edge114" class="edge">
<title>Node58&#45;&gt;Node51</title>
<path fill="none" stroke="#191970" d="M833.1989,-571.0557C823.3551,-557.1992 804.0017,-531.8876 783,-515 766.9316,-502.0793 746.7043,-490.9638 730.0131,-482.8976"/>
<polygon fill="#191970" stroke="#191970" points="731.1925,-479.5851 720.6524,-478.5102 728.2217,-485.9234 731.1925,-479.5851"/>
</g>
<!-- Node58&#45;&gt;Node53 -->
<g id="edge120" class="edge">
<title>Node58&#45;&gt;Node53</title>
<path fill="none" stroke="#191970" d="M791.6448,-579.1876C657.053,-573.2726 281.6343,-550.592 185,-479 169.9246,-467.8313 161.2978,-447.8411 156.6751,-432.7779"/>
<polygon fill="#191970" stroke="#191970" points="159.984,-431.6075 153.9819,-422.8769 153.2295,-433.445 159.984,-431.6075"/>
</g>
<!-- Node58&#45;&gt;Node56 -->
<g id="edge115" class="edge">
<title>Node58&#45;&gt;Node56</title>
<path fill="none" stroke="#191970" d="M819.5432,-571.3733C800.5262,-562.4241 771.9825,-548.9917 750.5024,-538.8835"/>
<polygon fill="#191970" stroke="#191970" points="751.7284,-535.5923 741.1899,-534.5011 748.7478,-541.926 751.7284,-535.5923"/>
</g>
<!-- Node59&#45;&gt;Node6 -->
<g id="edge131" class="edge">
<title>Node59&#45;&gt;Node6</title>
<path fill="none" stroke="#191970" d="M320.6152,-459.4104C327.7593,-439.5716 343,-392.4498 343,-351.5 343,-351.5 343,-351.5 343,-234 343,-197.4662 360.1568,-185.9089 392,-168 432.3591,-145.3018 752.3426,-128.3867 855.8331,-123.465"/>
<polygon fill="#191970" stroke="#191970" points="856.1604,-126.9536 865.985,-122.9878 855.8317,-119.9613 856.1604,-126.9536"/>
</g>
<!-- Node59&#45;&gt;Node47 -->
<g id="edge130" class="edge">
<title>Node59&#45;&gt;Node47</title>
<path fill="none" stroke="#191970" d="M377.6684,-461.3309C469.8942,-449.6725 642.8291,-427.8117 720.4819,-417.9955"/>
<polygon fill="#191970" stroke="#191970" points="721.3063,-421.4192 730.7883,-416.6927 720.4283,-414.4745 721.3063,-421.4192"/>
</g>
<!-- Node59&#45;&gt;Node52 -->
<g id="edge129" class="edge">
<title>Node59&#45;&gt;Node52</title>
<path fill="none" stroke="#191970" d="M368.5725,-459.4369C427.131,-448.5784 521.6025,-431.0605 576.2341,-420.9301"/>
<polygon fill="#191970" stroke="#191970" points="577.0861,-424.3319 586.2803,-419.0672 575.8097,-417.4492 577.0861,-424.3319"/>
</g>
<!-- Node59&#45;&gt;Node53 -->
<g id="edge132" class="edge">
<title>Node59&#45;&gt;Node53</title>
<path fill="none" stroke="#191970" d="M288.6355,-459.3733C261.3173,-450.1016 219.8204,-436.0178 189.7262,-425.804"/>
<polygon fill="#191970" stroke="#191970" points="190.5887,-422.4008 179.9944,-422.5011 188.339,-429.0294 190.5887,-422.4008"/>
</g>
</g>
</svg>
