<?xml version="1.0" encoding="UTF-8" standalone="no"?>
<!DOCTYPE svg PUBLIC "-//W3C//DTD SVG 1.1//EN"
 "http://www.w3.org/Graphics/SVG/1.1/DTD/svg11.dtd">
<!-- Generated by graphviz version 2.40.1 (20161225.0304)
 -->
<!-- Title: OptimalControlSolver.cpp Pages: 1 -->
<svg width="1358pt" height="588pt"
 viewBox="0.00 0.00 1358.00 588.00" xmlns="http://www.w3.org/2000/svg" xmlns:xlink="http://www.w3.org/1999/xlink">
<g id="graph0" class="graph" transform="scale(1 1) rotate(0) translate(4 584)">
<title>OptimalControlSolver.cpp</title>
<!-- Node0 -->
<g id="node1" class="node">
<title>Node0</title>
<polygon fill="#bfbfbf" stroke="#000000" points="378.5,-560.5 378.5,-579.5 519.5,-579.5 519.5,-560.5 378.5,-560.5"/>
<text text-anchor="middle" x="449" y="-567.5" font-family="FreeSans.ttf" font-size="10.00" fill="#000000">OptimalControlSolver.cpp</text>
</g>
<!-- Node1 -->
<g id="node2" class="node">
<title>Node1</title>
<g id="a_node2"><a xlink:href="OptimalControlSolver_8h.html" target="_top" xlink:title="iDynTree/OptimalControlSolver.h">
<polygon fill="none" stroke="#000000" points="0,-504.5 0,-523.5 176,-523.5 176,-504.5 0,-504.5"/>
<text text-anchor="middle" x="88" y="-511.5" font-family="FreeSans.ttf" font-size="10.00" fill="#000000">iDynTree/OptimalControlSolver.h</text>
</a>
</g>
</g>
<!-- Node0&#45;&gt;Node1 -->
<g id="edge1" class="edge">
<title>Node0&#45;&gt;Node1</title>
<path fill="none" stroke="#191970" d="M387.3521,-560.4369C324.142,-550.6314 225.9258,-535.3957 159.3822,-525.0731"/>
<polygon fill="#191970" stroke="#191970" points="159.812,-521.598 149.3937,-523.5237 158.7389,-528.5153 159.812,-521.598"/>
</g>
<!-- Node4 -->
<g id="node5" class="node">
<title>Node4</title>
<g id="a_node5"><a xlink:href="OptimalControlProblem_8h.html" target="_top" xlink:title="iDynTree/OptimalControlProblem.h">
<polygon fill="none" stroke="#000000" points="194,-504.5 194,-523.5 380,-523.5 380,-504.5 194,-504.5"/>
<text text-anchor="middle" x="287" y="-511.5" font-family="FreeSans.ttf" font-size="10.00" fill="#000000">iDynTree/OptimalControlProblem.h</text>
</a>
</g>
</g>
<!-- Node0&#45;&gt;Node4 -->
<g id="edge4" class="edge">
<title>Node0&#45;&gt;Node4</title>
<path fill="none" stroke="#191970" d="M421.1512,-560.3733C394.3297,-551.1016 353.5873,-537.0178 324.0402,-526.804"/>
<polygon fill="#191970" stroke="#191970" points="325.0802,-523.4603 314.4854,-523.5011 322.7931,-530.0762 325.0802,-523.4603"/>
</g>
<!-- Node12 -->
<g id="node13" class="node">
<title>Node12</title>
<g id="a_node13"><a xlink:href="VectorDynSize_8h.html" target="_top" xlink:title="iDynTree/Core/VectorDynSize.h">
<polygon fill="none" stroke="#000000" points="379.5,-336.5 379.5,-355.5 546.5,-355.5 546.5,-336.5 379.5,-336.5"/>
<text text-anchor="middle" x="463" y="-343.5" font-family="FreeSans.ttf" font-size="10.00" fill="#000000">iDynTree/Core/VectorDynSize.h</text>
</a>
</g>
</g>
<!-- Node0&#45;&gt;Node12 -->
<g id="edge68" class="edge">
<title>Node0&#45;&gt;Node12</title>
<path fill="none" stroke="#191970" d="M472.0357,-560.4723C503.8217,-545.9026 559.8274,-514.761 583,-468 606.4858,-420.6071 539.2671,-380.1276 496.1459,-359.8673"/>
<polygon fill="#191970" stroke="#191970" points="497.3766,-356.5819 486.8253,-355.6231 494.4757,-362.9526 497.3766,-356.5819"/>
</g>
<!-- Node14 -->
<g id="node15" class="node">
<title>Node14</title>
<polygon fill="none" stroke="#bfbfbf" points="998,-.5 998,-19.5 1050,-19.5 1050,-.5 998,-.5"/>
<text text-anchor="middle" x="1024" y="-7.5" font-family="FreeSans.ttf" font-size="10.00" fill="#000000">cassert</text>
</g>
<!-- Node0&#45;&gt;Node14 -->
<g id="edge69" class="edge">
<title>Node0&#45;&gt;Node14</title>
<path fill="none" stroke="#191970" d="M519.7,-568.6153C732.1023,-563.5264 1350,-541.5426 1350,-458 1350,-458 1350,-458 1350,-122 1350,-61.2486 1144.9473,-26.4126 1060.0935,-14.5978"/>
<polygon fill="#191970" stroke="#191970" points="1060.508,-11.122 1050.1269,-13.2394 1059.5626,-18.0579 1060.508,-11.122"/>
</g>
<!-- Node2 -->
<g id="node3" class="node">
<title>Node2</title>
<polygon fill="none" stroke="#bfbfbf" points="88,-448.5 88,-467.5 146,-467.5 146,-448.5 88,-448.5"/>
<text text-anchor="middle" x="117" y="-455.5" font-family="FreeSans.ttf" font-size="10.00" fill="#000000">memory</text>
</g>
<!-- Node1&#45;&gt;Node2 -->
<g id="edge2" class="edge">
<title>Node1&#45;&gt;Node2</title>
<path fill="none" stroke="#191970" d="M93.0514,-504.2455C97.0019,-496.617 102.6097,-485.7881 107.4058,-476.5267"/>
<polygon fill="#191970" stroke="#191970" points="110.5159,-478.1321 112.0065,-467.6427 104.2999,-474.9131 110.5159,-478.1321"/>
</g>
<!-- Node3 -->
<g id="node4" class="node">
<title>Node3</title>
<polygon fill="none" stroke="#bfbfbf" points="318.5,-.5 318.5,-19.5 371.5,-19.5 371.5,-.5 318.5,-.5"/>
<text text-anchor="middle" x="345" y="-7.5" font-family="FreeSans.ttf" font-size="10.00" fill="#000000">cstddef</text>
</g>
<!-- Node1&#45;&gt;Node3 -->
<g id="edge3" class="edge">
<title>Node1&#45;&gt;Node3</title>
<path fill="none" stroke="#191970" d="M83.8685,-504.3161C76.0798,-485.1534 60,-440.8832 60,-402 60,-402 60,-402 60,-122 60,-69.2579 231.2083,-30.9914 308.2286,-16.4452"/>
<polygon fill="#191970" stroke="#191970" points="309.2496,-19.8156 318.4438,-14.551 307.9733,-12.9329 309.2496,-19.8156"/>
</g>
<!-- Node4&#45;&gt;Node2 -->
<g id="edge5" class="edge">
<title>Node4&#45;&gt;Node2</title>
<path fill="none" stroke="#191970" d="M257.776,-504.3733C229.5075,-495.0613 186.5035,-480.8953 155.4656,-470.671"/>
<polygon fill="#191970" stroke="#191970" points="156.4357,-467.3056 145.8427,-467.5011 154.2456,-473.9542 156.4357,-467.3056"/>
</g>
<!-- Node5 -->
<g id="node6" class="node">
<title>Node5</title>
<polygon fill="none" stroke="#bfbfbf" points="162.5,-112.5 162.5,-131.5 209.5,-131.5 209.5,-112.5 162.5,-112.5"/>
<text text-anchor="middle" x="186" y="-119.5" font-family="FreeSans.ttf" font-size="10.00" fill="#000000">vector</text>
</g>
<!-- Node4&#45;&gt;Node5 -->
<g id="edge6" class="edge">
<title>Node4&#45;&gt;Node5</title>
<path fill="none" stroke="#191970" d="M255.6851,-504.3781C236.701,-497.1096 213.2755,-485.3722 198,-468 177.3893,-444.5603 174,-433.2125 174,-402 174,-402 174,-402 174,-234 174,-201.3778 179.0954,-163.7135 182.6456,-141.4301"/>
<polygon fill="#191970" stroke="#191970" points="186.1007,-141.9887 184.2807,-131.5514 179.1947,-140.8456 186.1007,-141.9887"/>
</g>
<!-- Node6 -->
<g id="node7" class="node">
<title>Node6</title>
<polygon fill="none" stroke="#bfbfbf" points="652,-112.5 652,-131.5 696,-131.5 696,-112.5 652,-112.5"/>
<text text-anchor="middle" x="674" y="-119.5" font-family="FreeSans.ttf" font-size="10.00" fill="#000000">string</text>
</g>
<!-- Node4&#45;&gt;Node6 -->
<g id="edge7" class="edge">
<title>Node4&#45;&gt;Node6</title>
<path fill="none" stroke="#191970" d="M272.6924,-504.1613C261.3647,-495.7234 245.8597,-482.6358 236,-468 218.5611,-442.1136 212,-433.2125 212,-402 212,-402 212,-402 212,-234 212,-195.2415 234.7252,-186.0958 269,-168 301.7354,-150.7169 551.5289,-130.9553 641.6815,-124.3133"/>
<polygon fill="#191970" stroke="#191970" points="642.1408,-127.7891 651.859,-123.5693 641.6305,-120.8077 642.1408,-127.7891"/>
</g>
<!-- Node7 -->
<g id="node8" class="node">
<title>Node7</title>
<g id="a_node8"><a xlink:href="Utils_8h.html" target="_top" xlink:title="iDynTree/Core/Utils.h">
<polygon fill="none" stroke="#000000" points="370.5,-56.5 370.5,-75.5 489.5,-75.5 489.5,-56.5 370.5,-56.5"/>
<text text-anchor="middle" x="430" y="-63.5" font-family="FreeSans.ttf" font-size="10.00" fill="#000000">iDynTree/Core/Utils.h</text>
</a>
</g>
</g>
<!-- Node4&#45;&gt;Node7 -->
<g id="edge8" class="edge">
<title>Node4&#45;&gt;Node7</title>
<path fill="none" stroke="#191970" d="M281.5405,-504.4646C271.2484,-485.5623 250,-441.7274 250,-402 250,-402 250,-402 250,-178 250,-121.2936 315.1974,-92.2759 367.1158,-78.1583"/>
<polygon fill="#191970" stroke="#191970" points="368.1622,-81.5029 376.9676,-75.6109 366.4098,-74.7258 368.1622,-81.5029"/>
</g>
<!-- Node9 -->
<g id="node10" class="node">
<title>Node9</title>
<g id="a_node10"><a xlink:href="SparsityStructure_8h.html" target="_top" xlink:title="iDynTree/SparsityStructure.h">
<polygon fill="none" stroke="#000000" points="278.5,-168.5 278.5,-187.5 433.5,-187.5 433.5,-168.5 278.5,-168.5"/>
<text text-anchor="middle" x="356" y="-175.5" font-family="FreeSans.ttf" font-size="10.00" fill="#000000">iDynTree/SparsityStructure.h</text>
</a>
</g>
</g>
<!-- Node4&#45;&gt;Node9 -->
<g id="edge11" class="edge">
<title>Node4&#45;&gt;Node9</title>
<path fill="none" stroke="#191970" d="M292.0168,-504.4109C301.4745,-485.4144 321,-441.4221 321,-402 321,-402 321,-402 321,-290 321,-255.8821 335.9795,-218.4701 346.3391,-196.676"/>
<polygon fill="#191970" stroke="#191970" points="349.5455,-198.0877 350.8356,-187.5717 343.2692,-194.9879 349.5455,-198.0877"/>
</g>
<!-- Node11 -->
<g id="node12" class="node">
<title>Node11</title>
<g id="a_node12"><a xlink:href="TimeVaryingObject_8h.html" target="_top" xlink:title="iDynTree/TimeVaryingObject.h">
<polygon fill="none" stroke="#000000" points="410,-448.5 410,-467.5 574,-467.5 574,-448.5 410,-448.5"/>
<text text-anchor="middle" x="492" y="-455.5" font-family="FreeSans.ttf" font-size="10.00" fill="#000000">iDynTree/TimeVaryingObject.h</text>
</a>
</g>
</g>
<!-- Node4&#45;&gt;Node11 -->
<g id="edge17" class="edge">
<title>Node4&#45;&gt;Node11</title>
<path fill="none" stroke="#191970" d="M322.2408,-504.3733C356.9194,-494.9001 409.9883,-480.4032 447.5462,-470.1435"/>
<polygon fill="#191970" stroke="#191970" points="448.4949,-473.5126 457.2191,-467.5011 446.6502,-466.7601 448.4949,-473.5126"/>
</g>
<!-- Node7&#45;&gt;Node3 -->
<g id="edge9" class="edge">
<title>Node7&#45;&gt;Node3</title>
<path fill="none" stroke="#191970" d="M415.1941,-56.2455C402.2744,-47.7337 383.3069,-35.2375 368.3448,-25.3801"/>
<polygon fill="#191970" stroke="#191970" points="369.9124,-22.2216 359.6362,-19.6427 366.0613,-28.067 369.9124,-22.2216"/>
</g>
<!-- Node8 -->
<g id="node9" class="node">
<title>Node8</title>
<polygon fill="none" stroke="#bfbfbf" points="390,-.5 390,-19.5 470,-19.5 470,-.5 390,-.5"/>
<text text-anchor="middle" x="430" y="-7.5" font-family="FreeSans.ttf" font-size="10.00" fill="#000000">CoreExport.h</text>
</g>
<!-- Node7&#45;&gt;Node8 -->
<g id="edge10" class="edge">
<title>Node7&#45;&gt;Node8</title>
<path fill="none" stroke="#191970" d="M430,-56.2455C430,-48.9382 430,-38.6944 430,-29.7046"/>
<polygon fill="#191970" stroke="#191970" points="433.5001,-29.6426 430,-19.6427 426.5001,-29.6427 433.5001,-29.6426"/>
</g>
<!-- Node9&#45;&gt;Node3 -->
<g id="edge14" class="edge">
<title>Node9&#45;&gt;Node3</title>
<path fill="none" stroke="#191970" d="M355.3771,-168.4862C353.6382,-141.9293 348.7037,-66.5651 346.3204,-30.1655"/>
<polygon fill="#191970" stroke="#191970" points="349.7895,-29.5778 345.6435,-19.8279 342.8044,-30.0352 349.7895,-29.5778"/>
</g>
<!-- Node9&#45;&gt;Node5 -->
<g id="edge13" class="edge">
<title>Node9&#45;&gt;Node5</title>
<path fill="none" stroke="#191970" d="M326.776,-168.3733C296.88,-158.5252 250.5026,-143.2479 219.2286,-132.9459"/>
<polygon fill="#191970" stroke="#191970" points="220.2385,-129.5936 209.6455,-129.7891 218.0483,-136.2422 220.2385,-129.5936"/>
</g>
<!-- Node9&#45;&gt;Node6 -->
<g id="edge16" class="edge">
<title>Node9&#45;&gt;Node6</title>
<path fill="none" stroke="#191970" d="M410.3048,-168.4369C476.8267,-156.7223 587.3616,-137.2571 641.7521,-127.6789"/>
<polygon fill="#191970" stroke="#191970" points="642.6105,-131.0816 651.852,-125.9003 641.3965,-124.1877 642.6105,-131.0816"/>
</g>
<!-- Node9&#45;&gt;Node7 -->
<g id="edge12" class="edge">
<title>Node9&#45;&gt;Node7</title>
<path fill="none" stroke="#191970" d="M357.3838,-168.3319C359.6776,-154.8036 365.2343,-129.8794 377,-112 384.744,-100.232 396.3046,-89.7104 406.6543,-81.71"/>
<polygon fill="#191970" stroke="#191970" points="408.9681,-84.3531 414.953,-75.6105 404.8224,-78.7127 408.9681,-84.3531"/>
</g>
<!-- Node10 -->
<g id="node11" class="node">
<title>Node10</title>
<polygon fill="none" stroke="#bfbfbf" points="386,-112.5 386,-131.5 472,-131.5 472,-112.5 386,-112.5"/>
<text text-anchor="middle" x="429" y="-119.5" font-family="FreeSans.ttf" font-size="10.00" fill="#000000">unordered_set</text>
</g>
<!-- Node9&#45;&gt;Node10 -->
<g id="edge15" class="edge">
<title>Node9&#45;&gt;Node10</title>
<path fill="none" stroke="#191970" d="M368.7156,-168.2455C379.602,-159.8943 395.4883,-147.7076 408.22,-137.9408"/>
<polygon fill="#191970" stroke="#191970" points="410.6261,-140.5063 416.4301,-131.6427 406.3654,-134.9523 410.6261,-140.5063"/>
</g>
<!-- Node11&#45;&gt;Node12 -->
<g id="edge18" class="edge">
<title>Node11&#45;&gt;Node12</title>
<path fill="none" stroke="#191970" d="M489.5275,-448.4509C484.7762,-430.1013 474.2869,-389.5908 468.0153,-365.3693"/>
<polygon fill="#191970" stroke="#191970" points="471.3612,-364.3283 465.4663,-355.5249 464.5847,-366.083 471.3612,-364.3283"/>
</g>
<!-- Node22 -->
<g id="node23" class="node">
<title>Node22</title>
<g id="a_node23"><a xlink:href="MatrixDynSize_8h.html" target="_top" xlink:title="iDynTree/Core/MatrixDynSize.h">
<polygon fill="none" stroke="#000000" points="527.5,-168.5 527.5,-187.5 694.5,-187.5 694.5,-168.5 527.5,-168.5"/>
<text text-anchor="middle" x="611" y="-175.5" font-family="FreeSans.ttf" font-size="10.00" fill="#000000">iDynTree/Core/MatrixDynSize.h</text>
</a>
</g>
</g>
<!-- Node11&#45;&gt;Node22 -->
<g id="edge30" class="edge">
<title>Node11&#45;&gt;Node22</title>
<path fill="none" stroke="#191970" d="M505.9102,-448.3601C529.3051,-430.8875 574,-391.5468 574,-346 574,-346 574,-346 574,-290 574,-255.7041 589.8354,-218.3471 600.787,-196.6122"/>
<polygon fill="#191970" stroke="#191970" points="604.0018,-198.0179 605.5405,-187.5354 597.8006,-194.7704 604.0018,-198.0179"/>
</g>
<!-- Node24 -->
<g id="node25" class="node">
<title>Node24</title>
<g id="a_node25"><a xlink:href="Transform_8h.html" target="_top" xlink:title="iDynTree/Core/Transform.h">
<polygon fill="none" stroke="#000000" points="699,-392.5 699,-411.5 845,-411.5 845,-392.5 699,-392.5"/>
<text text-anchor="middle" x="772" y="-399.5" font-family="FreeSans.ttf" font-size="10.00" fill="#000000">iDynTree/Core/Transform.h</text>
</a>
</g>
</g>
<!-- Node11&#45;&gt;Node24 -->
<g id="edge37" class="edge">
<title>Node11&#45;&gt;Node24</title>
<path fill="none" stroke="#191970" d="M539.8156,-448.4369C588.1381,-438.7724 662.8372,-423.8326 714.3936,-413.5213"/>
<polygon fill="#191970" stroke="#191970" points="715.2623,-416.9169 724.3816,-411.5237 713.8894,-410.0529 715.2623,-416.9169"/>
</g>
<!-- Node12&#45;&gt;Node6 -->
<g id="edge29" class="edge">
<title>Node12&#45;&gt;Node6</title>
<path fill="none" stroke="#191970" d="M463.0554,-336.3013C463.7663,-306.6279 470.0418,-216.1662 519,-168 536.4408,-150.8413 602.0027,-135.721 642.0615,-127.8194"/>
<polygon fill="#191970" stroke="#191970" points="642.738,-131.2536 651.8944,-125.9235 641.4126,-124.3802 642.738,-131.2536"/>
</g>
<!-- Node13 -->
<g id="node14" class="node">
<title>Node13</title>
<g id="a_node14"><a xlink:href="Span_8h.html" target="_top" xlink:title="iDynTree/Core/Span.h">
<polygon fill="none" stroke="#000000" points="674.5,-56.5 674.5,-75.5 795.5,-75.5 795.5,-56.5 674.5,-56.5"/>
<text text-anchor="middle" x="735" y="-63.5" font-family="FreeSans.ttf" font-size="10.00" fill="#000000">iDynTree/Core/Span.h</text>
</a>
</g>
</g>
<!-- Node12&#45;&gt;Node13 -->
<g id="edge19" class="edge">
<title>Node12&#45;&gt;Node13</title>
<path fill="none" stroke="#191970" d="M468.4595,-336.4646C478.7516,-317.5623 500,-273.7274 500,-234 500,-234 500,-234 500,-178 500,-136.754 619.4607,-97.3889 688.0355,-78.1897"/>
<polygon fill="#191970" stroke="#191970" points="689.0547,-81.5393 697.7636,-75.5055 687.1928,-74.7914 689.0547,-81.5393"/>
</g>
<!-- Node13&#45;&gt;Node3 -->
<g id="edge23" class="edge">
<title>Node13&#45;&gt;Node3</title>
<path fill="none" stroke="#191970" d="M674.4406,-60.766C605.6834,-54.2345 490.0627,-41.4697 381.4481,-19.8348"/>
<polygon fill="#191970" stroke="#191970" points="382.1296,-16.4018 371.6344,-17.8516 380.7429,-23.2631 382.1296,-16.4018"/>
</g>
<!-- Node13&#45;&gt;Node14 -->
<g id="edge20" class="edge">
<title>Node13&#45;&gt;Node14</title>
<path fill="none" stroke="#191970" d="M795.6475,-56.7523C845.0032,-48.8315 916.6325,-36.4426 987.6807,-20.1427"/>
<polygon fill="#191970" stroke="#191970" points="988.7502,-23.4876 997.6997,-17.8168 987.1672,-16.6689 988.7502,-23.4876"/>
</g>
<!-- Node15 -->
<g id="node16" class="node">
<title>Node15</title>
<polygon fill="none" stroke="#bfbfbf" points="488,-.5 488,-19.5 552,-19.5 552,-.5 488,-.5"/>
<text text-anchor="middle" x="520" y="-7.5" font-family="FreeSans.ttf" font-size="10.00" fill="#000000">algorithm</text>
</g>
<!-- Node13&#45;&gt;Node15 -->
<g id="edge21" class="edge">
<title>Node13&#45;&gt;Node15</title>
<path fill="none" stroke="#191970" d="M698.0402,-56.3733C660.2671,-46.5347 601.6904,-31.2775 562.1393,-20.9758"/>
<polygon fill="#191970" stroke="#191970" points="562.8288,-17.5387 552.2694,-18.4051 561.0644,-24.3127 562.8288,-17.5387"/>
</g>
<!-- Node16 -->
<g id="node17" class="node">
<title>Node16</title>
<polygon fill="none" stroke="#bfbfbf" points="570,-.5 570,-19.5 612,-19.5 612,-.5 570,-.5"/>
<text text-anchor="middle" x="591" y="-7.5" font-family="FreeSans.ttf" font-size="10.00" fill="#000000">array</text>
</g>
<!-- Node13&#45;&gt;Node16 -->
<g id="edge22" class="edge">
<title>Node13&#45;&gt;Node16</title>
<path fill="none" stroke="#191970" d="M710.2455,-56.3733C685.7169,-46.8343 648.0904,-32.2018 621.6786,-21.9306"/>
<polygon fill="#191970" stroke="#191970" points="622.7445,-18.5898 612.1558,-18.2273 620.2073,-25.1138 622.7445,-18.5898"/>
</g>
<!-- Node17 -->
<g id="node18" class="node">
<title>Node17</title>
<polygon fill="none" stroke="#bfbfbf" points="630.5,-.5 630.5,-19.5 683.5,-19.5 683.5,-.5 630.5,-.5"/>
<text text-anchor="middle" x="657" y="-7.5" font-family="FreeSans.ttf" font-size="10.00" fill="#000000">iterator</text>
</g>
<!-- Node13&#45;&gt;Node17 -->
<g id="edge24" class="edge">
<title>Node13&#45;&gt;Node17</title>
<path fill="none" stroke="#191970" d="M721.4134,-56.2455C709.6695,-47.814 692.4801,-35.4729 678.8118,-25.6598"/>
<polygon fill="#191970" stroke="#191970" points="680.5954,-22.6316 670.4309,-19.6427 676.5129,-28.3179 680.5954,-22.6316"/>
</g>
<!-- Node18 -->
<g id="node19" class="node">
<title>Node18</title>
<polygon fill="none" stroke="#bfbfbf" points="702,-.5 702,-19.5 746,-19.5 746,-.5 702,-.5"/>
<text text-anchor="middle" x="724" y="-7.5" font-family="FreeSans.ttf" font-size="10.00" fill="#000000">limits</text>
</g>
<!-- Node13&#45;&gt;Node18 -->
<g id="edge25" class="edge">
<title>Node13&#45;&gt;Node18</title>
<path fill="none" stroke="#191970" d="M733.0839,-56.2455C731.6486,-48.9382 729.6364,-38.6944 727.8705,-29.7046"/>
<polygon fill="#191970" stroke="#191970" points="731.256,-28.7805 725.8941,-19.6427 724.3873,-30.1298 731.256,-28.7805"/>
</g>
<!-- Node19 -->
<g id="node20" class="node">
<title>Node19</title>
<polygon fill="none" stroke="#bfbfbf" points="764.5,-.5 764.5,-19.5 829.5,-19.5 829.5,-.5 764.5,-.5"/>
<text text-anchor="middle" x="797" y="-7.5" font-family="FreeSans.ttf" font-size="10.00" fill="#000000">stdexcept</text>
</g>
<!-- Node13&#45;&gt;Node19 -->
<g id="edge26" class="edge">
<title>Node13&#45;&gt;Node19</title>
<path fill="none" stroke="#191970" d="M745.7996,-56.2455C754.8678,-48.0549 768.0206,-36.1749 778.7245,-26.5069"/>
<polygon fill="#191970" stroke="#191970" points="781.2491,-28.9429 786.3242,-19.6427 776.5571,-23.7482 781.2491,-28.9429"/>
</g>
<!-- Node20 -->
<g id="node21" class="node">
<title>Node20</title>
<polygon fill="none" stroke="#bfbfbf" points="910.5,-.5 910.5,-19.5 979.5,-19.5 979.5,-.5 910.5,-.5"/>
<text text-anchor="middle" x="945" y="-7.5" font-family="FreeSans.ttf" font-size="10.00" fill="#000000">type_traits</text>
</g>
<!-- Node13&#45;&gt;Node20 -->
<g id="edge27" class="edge">
<title>Node13&#45;&gt;Node20</title>
<path fill="none" stroke="#191970" d="M771.1003,-56.3733C806.9477,-46.8139 861.9779,-32.1392 900.5073,-21.8647"/>
<polygon fill="#191970" stroke="#191970" points="901.6551,-25.181 910.4156,-19.2225 899.8514,-18.4174 901.6551,-25.181"/>
</g>
<!-- Node21 -->
<g id="node22" class="node">
<title>Node21</title>
<polygon fill="none" stroke="#bfbfbf" points="847.5,-.5 847.5,-19.5 892.5,-19.5 892.5,-.5 847.5,-.5"/>
<text text-anchor="middle" x="870" y="-7.5" font-family="FreeSans.ttf" font-size="10.00" fill="#000000">utility</text>
</g>
<!-- Node13&#45;&gt;Node21 -->
<g id="edge28" class="edge">
<title>Node13&#45;&gt;Node21</title>
<path fill="none" stroke="#191970" d="M758.2073,-56.3733C780.1699,-47.2629 813.3332,-33.5062 837.8401,-23.3404"/>
<polygon fill="#191970" stroke="#191970" points="839.1997,-26.5657 847.0955,-19.5011 836.5176,-20.0999 839.1997,-26.5657"/>
</g>
<!-- Node22&#45;&gt;Node6 -->
<g id="edge31" class="edge">
<title>Node22&#45;&gt;Node6</title>
<path fill="none" stroke="#191970" d="M621.9738,-168.2455C631.1882,-160.0549 644.5532,-148.1749 655.4297,-138.5069"/>
<polygon fill="#191970" stroke="#191970" points="658.0032,-140.9023 663.152,-131.6427 653.3526,-135.6704 658.0032,-140.9023"/>
</g>
<!-- Node23 -->
<g id="node24" class="node">
<title>Node23</title>
<g id="a_node24"><a xlink:href="MatrixView_8h.html" target="_top" xlink:title="iDynTree/Core/MatrixView.h">
<polygon fill="none" stroke="#000000" points="790.5,-112.5 790.5,-131.5 941.5,-131.5 941.5,-112.5 790.5,-112.5"/>
<text text-anchor="middle" x="866" y="-119.5" font-family="FreeSans.ttf" font-size="10.00" fill="#000000">iDynTree/Core/MatrixView.h</text>
</a>
</g>
</g>
<!-- Node22&#45;&gt;Node23 -->
<g id="edge32" class="edge">
<title>Node22&#45;&gt;Node23</title>
<path fill="none" stroke="#191970" d="M654.5463,-168.4369C698.2793,-158.8328 765.7345,-144.0191 812.6542,-133.7152"/>
<polygon fill="#191970" stroke="#191970" points="813.6168,-137.0872 822.6333,-131.5237 812.1153,-130.2502 813.6168,-137.0872"/>
</g>
<!-- Node23&#45;&gt;Node7 -->
<g id="edge36" class="edge">
<title>Node23&#45;&gt;Node7</title>
<path fill="none" stroke="#191970" d="M791.5443,-112.4369C709.7935,-101.9368 579.5611,-85.2097 499.7358,-74.9569"/>
<polygon fill="#191970" stroke="#191970" points="500.1423,-71.4804 489.7779,-73.6779 499.2505,-78.4234 500.1423,-71.4804"/>
</g>
<!-- Node23&#45;&gt;Node13 -->
<g id="edge35" class="edge">
<title>Node23&#45;&gt;Node13</title>
<path fill="none" stroke="#191970" d="M843.4803,-112.3733C822.2628,-103.3032 790.2724,-89.6279 766.5231,-79.4755"/>
<polygon fill="#191970" stroke="#191970" points="767.7967,-76.2136 757.2258,-75.5011 765.0452,-82.6502 767.7967,-76.2136"/>
</g>
<!-- Node23&#45;&gt;Node14 -->
<g id="edge33" class="edge">
<title>Node23&#45;&gt;Node14</title>
<path fill="none" stroke="#191970" d="M879.471,-112.4509C906.7563,-93.1094 968.7754,-49.1465 1002.0064,-25.5904"/>
<polygon fill="#191970" stroke="#191970" points="1004.429,-28.1633 1010.5631,-19.5249 1000.3808,-22.4526 1004.429,-28.1633"/>
</g>
<!-- Node23&#45;&gt;Node20 -->
<g id="edge34" class="edge">
<title>Node23&#45;&gt;Node20</title>
<path fill="none" stroke="#191970" d="M870.8235,-112.2203C877.5271,-98.9883 890.3808,-74.8688 904,-56 911.3068,-45.8768 920.4722,-35.4236 928.2832,-27.0452"/>
<polygon fill="#191970" stroke="#191970" points="930.891,-29.3821 935.2522,-19.7265 925.8216,-24.5549 930.891,-29.3821"/>
</g>
<!-- Node24&#45;&gt;Node6 -->
<g id="edge67" class="edge">
<title>Node24&#45;&gt;Node6</title>
<path fill="none" stroke="#191970" d="M744.1321,-392.4179C727.1862,-385.1131 706.6345,-373.3217 695,-356 662.0187,-306.897 659.801,-280.282 678,-224 684.0723,-205.2208 697.9277,-206.7792 704,-188 706.7348,-179.5423 706.5329,-176.5204 704,-168 700.9674,-157.7984 694.8756,-147.7475 688.9691,-139.6555"/>
<polygon fill="#191970" stroke="#191970" points="691.6964,-137.4613 682.7861,-131.7291 686.177,-141.7667 691.6964,-137.4613"/>
</g>
<!-- Node25 -->
<g id="node26" class="node">
<title>Node25</title>
<g id="a_node26"><a xlink:href="Position_8h.html" target="_top" xlink:title="iDynTree/Core/Position.h">
<polygon fill="none" stroke="#000000" points="704,-336.5 704,-355.5 840,-355.5 840,-336.5 704,-336.5"/>
<text text-anchor="middle" x="772" y="-343.5" font-family="FreeSans.ttf" font-size="10.00" fill="#000000">iDynTree/Core/Position.h</text>
</a>
</g>
</g>
<!-- Node24&#45;&gt;Node25 -->
<g id="edge38" class="edge">
<title>Node24&#45;&gt;Node25</title>
<path fill="none" stroke="#191970" d="M772,-392.2455C772,-384.9382 772,-374.6944 772,-365.7046"/>
<polygon fill="#191970" stroke="#191970" points="775.5001,-365.6426 772,-355.6427 768.5001,-365.6427 775.5001,-365.6426"/>
</g>
<!-- Node30 -->
<g id="node31" class="node">
<title>Node30</title>
<g id="a_node31"><a xlink:href="Rotation_8h.html" target="_top" xlink:title="iDynTree/Core/Rotation.h">
<polygon fill="none" stroke="#000000" points="835.5,-280.5 835.5,-299.5 972.5,-299.5 972.5,-280.5 835.5,-280.5"/>
<text text-anchor="middle" x="904" y="-287.5" font-family="FreeSans.ttf" font-size="10.00" fill="#000000">iDynTree/Core/Rotation.h</text>
</a>
</g>
</g>
<!-- Node24&#45;&gt;Node30 -->
<g id="edge65" class="edge">
<title>Node24&#45;&gt;Node30</title>
<path fill="none" stroke="#191970" d="M792.1964,-392.3424C808.4834,-384.0095 831.4818,-370.9748 849,-356 865.5547,-341.8488 881.1176,-322.369 891.4344,-308.243"/>
<polygon fill="#191970" stroke="#191970" points="894.466,-310.0195 897.4142,-299.8431 888.7634,-305.9599 894.466,-310.0195"/>
</g>
<!-- Node33 -->
<g id="node34" class="node">
<title>Node33</title>
<g id="a_node34"><a xlink:href="MatrixFixSize_8h.html" target="_top" xlink:title="iDynTree/Core/MatrixFixSize.h">
<polygon fill="none" stroke="#000000" points="1107.5,-168.5 1107.5,-187.5 1268.5,-187.5 1268.5,-168.5 1107.5,-168.5"/>
<text text-anchor="middle" x="1188" y="-175.5" font-family="FreeSans.ttf" font-size="10.00" fill="#000000">iDynTree/Core/MatrixFixSize.h</text>
</a>
</g>
</g>
<!-- Node24&#45;&gt;Node33 -->
<g id="edge66" class="edge">
<title>Node24&#45;&gt;Node33</title>
<path fill="none" stroke="#191970" d="M834.3848,-392.4498C960.3229,-371.7615 1237.6774,-318.5879 1293,-244 1311.5834,-218.9452 1275.5034,-201.1106 1240.6798,-190.3484"/>
<polygon fill="#191970" stroke="#191970" points="1241.5179,-186.947 1230.9376,-187.5004 1239.5537,-193.6658 1241.5179,-186.947"/>
</g>
<!-- Node25&#45;&gt;Node6 -->
<g id="edge64" class="edge">
<title>Node25&#45;&gt;Node6</title>
<path fill="none" stroke="#191970" d="M759.4008,-336.403C739.1137,-320.0594 699.9705,-284.6205 685,-244 681.9262,-235.6595 680.9105,-231.8923 685,-224 697.7644,-199.3657 723.2356,-212.6343 736,-188 740.0895,-180.1077 739.9958,-175.9401 736,-168 729.3263,-154.7387 716.8207,-144.3415 704.7793,-136.8125"/>
<polygon fill="#191970" stroke="#191970" points="706.177,-133.5783 695.7658,-131.6143 702.6799,-139.6422 706.177,-133.5783"/>
</g>
<!-- Node26 -->
<g id="node27" class="node">
<title>Node26</title>
<g id="a_node27"><a xlink:href="PositionRaw_8h.html" target="_top" xlink:title="iDynTree/Core/PositionRaw.h">
<polygon fill="none" stroke="#000000" points="694,-224.5 694,-243.5 850,-243.5 850,-224.5 694,-224.5"/>
<text text-anchor="middle" x="772" y="-231.5" font-family="FreeSans.ttf" font-size="10.00" fill="#000000">iDynTree/Core/PositionRaw.h</text>
</a>
</g>
</g>
<!-- Node25&#45;&gt;Node26 -->
<g id="edge39" class="edge">
<title>Node25&#45;&gt;Node26</title>
<path fill="none" stroke="#191970" d="M772,-336.4509C772,-318.184 772,-277.9553 772,-253.6976"/>
<polygon fill="#191970" stroke="#191970" points="775.5001,-253.5249 772,-243.5249 768.5001,-253.5249 775.5001,-253.5249"/>
</g>
<!-- Node25&#45;&gt;Node30 -->
<g id="edge49" class="edge">
<title>Node25&#45;&gt;Node30</title>
<path fill="none" stroke="#191970" d="M794.6916,-336.3733C816.0711,-327.3032 848.3057,-313.6279 872.2362,-303.4755"/>
<polygon fill="#191970" stroke="#191970" points="873.7656,-306.6287 881.6045,-299.5011 871.0317,-300.1846 873.7656,-306.6287"/>
</g>
<!-- Node26&#45;&gt;Node6 -->
<g id="edge48" class="edge">
<title>Node26&#45;&gt;Node6</title>
<path fill="none" stroke="#191970" d="M775.5097,-224.1374C779.7413,-210.378 785.0084,-185.181 774,-168 766.1382,-155.7298 732.1504,-141.7529 705.957,-132.458"/>
<polygon fill="#191970" stroke="#191970" points="706.9652,-129.1033 696.3705,-129.1382 704.6746,-135.7179 706.9652,-129.1033"/>
</g>
<!-- Node27 -->
<g id="node28" class="node">
<title>Node27</title>
<g id="a_node28"><a xlink:href="VectorFixSize_8h.html" target="_top" xlink:title="iDynTree/Core/VectorFixSize.h">
<polygon fill="none" stroke="#000000" points="927.5,-168.5 927.5,-187.5 1088.5,-187.5 1088.5,-168.5 927.5,-168.5"/>
<text text-anchor="middle" x="1008" y="-175.5" font-family="FreeSans.ttf" font-size="10.00" fill="#000000">iDynTree/Core/VectorFixSize.h</text>
</a>
</g>
</g>
<!-- Node26&#45;&gt;Node27 -->
<g id="edge40" class="edge">
<title>Node26&#45;&gt;Node27</title>
<path fill="none" stroke="#191970" d="M812.3017,-224.4369C852.6064,-214.8731 914.6821,-200.1432 958.0818,-189.845"/>
<polygon fill="#191970" stroke="#191970" points="958.9428,-193.238 967.8645,-187.5237 957.3266,-186.4271 958.9428,-193.238"/>
</g>
<!-- Node27&#45;&gt;Node3 -->
<g id="edge46" class="edge">
<title>Node27&#45;&gt;Node3</title>
<path fill="none" stroke="#191970" d="M1001.8081,-168.1448C992.4208,-153.93 973.3004,-127.6642 951,-112 894.1294,-72.053 872.7392,-71.538 805,-56 623.815,-14.4399 569.0078,-52.1195 381.5104,-19.7397"/>
<polygon fill="#191970" stroke="#191970" points="382.0657,-16.2836 371.6086,-17.9864 380.8452,-23.1764 382.0657,-16.2836"/>
</g>
<!-- Node27&#45;&gt;Node6 -->
<g id="edge43" class="edge">
<title>Node27&#45;&gt;Node6</title>
<path fill="none" stroke="#191970" d="M929.736,-168.483C869.3622,-160.5241 783.9498,-147.9204 710,-132 708.7515,-131.7312 707.4822,-131.4446 706.2026,-131.1446"/>
<polygon fill="#191970" stroke="#191970" points="706.9205,-127.716 696.3672,-128.6524 705.2011,-134.5015 706.9205,-127.716"/>
</g>
<!-- Node27&#45;&gt;Node7 -->
<g id="edge41" class="edge">
<title>Node27&#45;&gt;Node7</title>
<path fill="none" stroke="#191970" d="M936.3296,-168.4887C885.6793,-160.891 816.4925,-148.7353 757,-132 733.1636,-125.2948 728.8877,-118.5201 705,-112 636.4194,-93.2812 556.0224,-80.9007 499.9361,-73.7467"/>
<polygon fill="#191970" stroke="#191970" points="500.1123,-70.2415 489.7548,-72.4714 499.2422,-77.1872 500.1123,-70.2415"/>
</g>
<!-- Node27&#45;&gt;Node13 -->
<g id="edge42" class="edge">
<title>Node27&#45;&gt;Node13</title>
<path fill="none" stroke="#191970" d="M931.107,-168.4783C875.6112,-160.4774 806.3393,-147.821 782,-132 764.3918,-120.5543 751.3362,-100.0113 743.5119,-84.8747"/>
<polygon fill="#191970" stroke="#191970" points="746.6493,-83.3229 739.1304,-75.8585 740.3533,-86.3825 746.6493,-83.3229"/>
</g>
<!-- Node27&#45;&gt;Node14 -->
<g id="edge45" class="edge">
<title>Node27&#45;&gt;Node14</title>
<path fill="none" stroke="#191970" d="M1008.9061,-168.4862C1011.4353,-141.9293 1018.6128,-66.5651 1022.0795,-30.1655"/>
<polygon fill="#191970" stroke="#191970" points="1025.6001,-30.1147 1023.064,-19.8279 1018.6316,-29.451 1025.6001,-30.1147"/>
</g>
<!-- Node28 -->
<g id="node29" class="node">
<title>Node28</title>
<polygon fill="none" stroke="#bfbfbf" points="1036,-112.5 1036,-131.5 1092,-131.5 1092,-112.5 1036,-112.5"/>
<text text-anchor="middle" x="1064" y="-119.5" font-family="FreeSans.ttf" font-size="10.00" fill="#000000">sstream</text>
</g>
<!-- Node27&#45;&gt;Node28 -->
<g id="edge44" class="edge">
<title>Node27&#45;&gt;Node28</title>
<path fill="none" stroke="#191970" d="M1017.7545,-168.2455C1025.8648,-160.1352 1037.5925,-148.4075 1047.2081,-138.7919"/>
<polygon fill="#191970" stroke="#191970" points="1049.7611,-141.1887 1054.3573,-131.6427 1044.8113,-136.2389 1049.7611,-141.1887"/>
</g>
<!-- Node29 -->
<g id="node30" class="node">
<title>Node29</title>
<polygon fill="none" stroke="#bfbfbf" points="1110,-112.5 1110,-131.5 1160,-131.5 1160,-112.5 1110,-112.5"/>
<text text-anchor="middle" x="1135" y="-119.5" font-family="FreeSans.ttf" font-size="10.00" fill="#000000">cstring</text>
</g>
<!-- Node27&#45;&gt;Node29 -->
<g id="edge47" class="edge">
<title>Node27&#45;&gt;Node29</title>
<path fill="none" stroke="#191970" d="M1029.8321,-168.3733C1050.3103,-159.3435 1081.1399,-145.7494 1104.1319,-135.6111"/>
<polygon fill="#191970" stroke="#191970" points="1105.715,-138.7383 1113.4528,-131.5011 1102.8907,-132.3333 1105.715,-138.7383"/>
</g>
<!-- Node30&#45;&gt;Node6 -->
<g id="edge50" class="edge">
<title>Node30&#45;&gt;Node6</title>
<path fill="none" stroke="#191970" d="M898.6495,-280.4288C890.9004,-267.0154 875.6478,-242.227 859,-224 832.5964,-195.0917 824.7453,-187.8518 791,-168 783.2855,-163.4617 737.422,-145.8536 705.4644,-133.7878"/>
<polygon fill="#191970" stroke="#191970" points="706.6425,-130.4915 696.0506,-130.2418 704.1749,-137.0422 706.6425,-130.4915"/>
</g>
<!-- Node30&#45;&gt;Node27 -->
<g id="edge63" class="edge">
<title>Node30&#45;&gt;Node27</title>
<path fill="none" stroke="#191970" d="M906.9068,-280.0698C911.3505,-266.2299 920.9373,-240.938 936,-224 947.6438,-210.9065 963.8719,-200.1024 977.9745,-192.2626"/>
<polygon fill="#191970" stroke="#191970" points="979.6728,-195.3237 986.8655,-187.5445 976.3915,-189.1404 979.6728,-195.3237"/>
</g>
<!-- Node31 -->
<g id="node32" class="node">
<title>Node31</title>
<g id="a_node32"><a xlink:href="GeomVector3_8h.html" target="_top" xlink:title="iDynTree/Core/GeomVector3.h">
<polygon fill="none" stroke="#000000" points="944.5,-224.5 944.5,-243.5 1107.5,-243.5 1107.5,-224.5 944.5,-224.5"/>
<text text-anchor="middle" x="1026" y="-231.5" font-family="FreeSans.ttf" font-size="10.00" fill="#000000">iDynTree/Core/GeomVector3.h</text>
</a>
</g>
</g>
<!-- Node30&#45;&gt;Node31 -->
<g id="edge51" class="edge">
<title>Node30&#45;&gt;Node31</title>
<path fill="none" stroke="#191970" d="M924.9725,-280.3733C944.5567,-271.3838 973.9961,-257.8706 996.051,-247.7471"/>
<polygon fill="#191970" stroke="#191970" points="997.6729,-250.8538 1005.3011,-243.5011 994.7527,-244.4919 997.6729,-250.8538"/>
</g>
<!-- Node32 -->
<g id="node33" class="node">
<title>Node32</title>
<g id="a_node33"><a xlink:href="RotationRaw_8h.html" target="_top" xlink:title="iDynTree/Core/RotationRaw.h">
<polygon fill="none" stroke="#000000" points="1126,-224.5 1126,-243.5 1284,-243.5 1284,-224.5 1126,-224.5"/>
<text text-anchor="middle" x="1205" y="-231.5" font-family="FreeSans.ttf" font-size="10.00" fill="#000000">iDynTree/Core/RotationRaw.h</text>
</a>
</g>
</g>
<!-- Node30&#45;&gt;Node32 -->
<g id="edge53" class="edge">
<title>Node30&#45;&gt;Node32</title>
<path fill="none" stroke="#191970" d="M955.4017,-280.4369C1007.5649,-270.7321 1088.3197,-255.708 1143.7646,-245.3926"/>
<polygon fill="#191970" stroke="#191970" points="1144.6192,-248.7938 1153.8103,-243.5237 1143.3388,-241.9119 1144.6192,-248.7938"/>
</g>
<!-- Node31&#45;&gt;Node27 -->
<g id="edge52" class="edge">
<title>Node31&#45;&gt;Node27</title>
<path fill="none" stroke="#191970" d="M1022.8646,-224.2455C1020.49,-216.8579 1017.1507,-206.4689 1014.2385,-197.4087"/>
<polygon fill="#191970" stroke="#191970" points="1017.4917,-196.0919 1011.0994,-187.6427 1010.8275,-198.234 1017.4917,-196.0919"/>
</g>
<!-- Node32&#45;&gt;Node6 -->
<g id="edge62" class="edge">
<title>Node32&#45;&gt;Node6</title>
<path fill="none" stroke="#191970" d="M1131.7559,-224.484C1060.5654,-214.8267 957.698,-199.6767 919,-188 898.4348,-181.7947 895.3856,-174.7719 875,-168 803.7689,-144.3377 782.8555,-150.0516 710,-132 708.725,-131.6841 707.4265,-131.3556 706.1161,-131.0185"/>
<polygon fill="#191970" stroke="#191970" points="706.5972,-127.5246 696.0331,-128.3311 704.7944,-134.2885 706.5972,-127.5246"/>
</g>
<!-- Node32&#45;&gt;Node33 -->
<g id="edge54" class="edge">
<title>Node32&#45;&gt;Node33</title>
<path fill="none" stroke="#191970" d="M1202.0388,-224.2455C1199.7962,-216.8579 1196.6423,-206.4689 1193.8919,-197.4087"/>
<polygon fill="#191970" stroke="#191970" points="1197.1812,-196.1948 1190.9272,-187.6427 1190.483,-198.2282 1197.1812,-196.1948"/>
</g>
<!-- Node33&#45;&gt;Node6 -->
<g id="edge59" class="edge">
<title>Node33&#45;&gt;Node6</title>
<path fill="none" stroke="#191970" d="M1107.0481,-168.9953C1103.9934,-168.6587 1100.9692,-168.326 1098,-168 951.6855,-151.9346 776.9301,-133.0813 706.1352,-125.4577"/>
<polygon fill="#191970" stroke="#191970" points="706.3896,-121.9649 696.0723,-124.3743 705.6402,-128.9247 706.3896,-121.9649"/>
</g>
<!-- Node33&#45;&gt;Node7 -->
<g id="edge55" class="edge">
<title>Node33&#45;&gt;Node7</title>
<path fill="none" stroke="#191970" d="M1188.3975,-168.0489C1188.3875,-153.2115 1185.9241,-125.5835 1169,-112 1156.0389,-101.5973 681.5048,-77.9712 499.8032,-69.2842"/>
<polygon fill="#191970" stroke="#191970" points="499.7134,-65.7761 489.5579,-68.7954 499.3797,-72.7681 499.7134,-65.7761"/>
</g>
<!-- Node33&#45;&gt;Node14 -->
<g id="edge57" class="edge">
<title>Node33&#45;&gt;Node14</title>
<path fill="none" stroke="#191970" d="M1190.9881,-168.3145C1194.569,-154.7654 1198.9322,-129.8167 1189,-112 1161.5626,-62.7819 1099.5053,-34.3282 1059.8038,-20.5212"/>
<polygon fill="#191970" stroke="#191970" points="1060.8203,-17.1707 1050.2266,-17.3228 1058.6029,-23.8102 1060.8203,-17.1707"/>
</g>
<!-- Node33&#45;&gt;Node23 -->
<g id="edge56" class="edge">
<title>Node33&#45;&gt;Node23</title>
<path fill="none" stroke="#191970" d="M1133.0121,-168.4369C1076.9781,-158.6918 990.1034,-143.5832 930.7707,-133.2645"/>
<polygon fill="#191970" stroke="#191970" points="931.2129,-129.7889 920.7611,-131.5237 930.0135,-136.6854 931.2129,-129.7889"/>
</g>
<!-- Node33&#45;&gt;Node28 -->
<g id="edge61" class="edge">
<title>Node33&#45;&gt;Node28</title>
<path fill="none" stroke="#191970" d="M1166.6836,-168.3733C1146.7784,-159.3838 1116.8564,-145.8706 1094.44,-135.7471"/>
<polygon fill="#191970" stroke="#191970" points="1095.5925,-132.4272 1085.0382,-131.5011 1092.7113,-138.8068 1095.5925,-132.4272"/>
</g>
<!-- Node33&#45;&gt;Node29 -->
<g id="edge58" class="edge">
<title>Node33&#45;&gt;Node29</title>
<path fill="none" stroke="#191970" d="M1178.7681,-168.2455C1171.1683,-160.2155 1160.2123,-148.6394 1151.1632,-139.0781"/>
<polygon fill="#191970" stroke="#191970" points="1153.542,-136.4998 1144.1261,-131.6427 1148.4579,-141.3115 1153.542,-136.4998"/>
</g>
<!-- Node34 -->
<g id="node35" class="node">
<title>Node34</title>
<polygon fill="none" stroke="#bfbfbf" points="1254,-112.5 1254,-131.5 1314,-131.5 1314,-112.5 1254,-112.5"/>
<text text-anchor="middle" x="1284" y="-119.5" font-family="FreeSans.ttf" font-size="10.00" fill="#000000">iostream</text>
</g>
<!-- Node33&#45;&gt;Node34 -->
<g id="edge60" class="edge">
<title>Node33&#45;&gt;Node34</title>
<path fill="none" stroke="#191970" d="M1204.7219,-168.2455C1219.5889,-159.5731 1241.5466,-146.7645 1258.5858,-136.825"/>
<polygon fill="#191970" stroke="#191970" points="1260.5955,-139.7047 1267.4697,-131.6427 1257.0683,-133.6582 1260.5955,-139.7047"/>
</g>
</g>
</svg>
