<?xml version="1.0" encoding="UTF-8" standalone="no"?>
<!DOCTYPE svg PUBLIC "-//W3C//DTD SVG 1.1//EN"
 "http://www.w3.org/Graphics/SVG/1.1/DTD/svg11.dtd">
<!-- Generated by graphviz version 2.40.1 (20161225.0304)
 -->
<!-- Title: OptimalControl.h Pages: 1 -->
<svg width="1546pt" height="588pt"
 viewBox="0.00 0.00 1546.00 588.00" xmlns="http://www.w3.org/2000/svg" xmlns:xlink="http://www.w3.org/1999/xlink">
<g id="graph0" class="graph" transform="scale(1 1) rotate(0) translate(4 584)">
<title>OptimalControl.h</title>
<!-- Node0 -->
<g id="node1" class="node">
<title>Node0</title>
<polygon fill="#bfbfbf" stroke="#000000" points="1037.5,-560.5 1037.5,-579.5 1137.5,-579.5 1137.5,-560.5 1037.5,-560.5"/>
<text text-anchor="middle" x="1087.5" y="-567.5" font-family="FreeSans.ttf" font-size="10.00" fill="#000000">OptimalControl.h</text>
</g>
<!-- Node1 -->
<g id="node2" class="node">
<title>Node1</title>
<g id="a_node2"><a xlink:href="DynamicalSystem_8h.html" target="_top" xlink:title="iDynTree/DynamicalSystem.h">
<polygon fill="none" stroke="#000000" points="630,-448.5 630,-467.5 791,-467.5 791,-448.5 630,-448.5"/>
<text text-anchor="middle" x="710.5" y="-455.5" font-family="FreeSans.ttf" font-size="10.00" fill="#000000">iDynTree/DynamicalSystem.h</text>
</a>
</g>
</g>
<!-- Node0&#45;&gt;Node1 -->
<g id="edge1" class="edge">
<title>Node0&#45;&gt;Node1</title>
<path fill="none" stroke="#191970" d="M1037.2713,-565.9801C984.3448,-560.6171 899.167,-548.7546 829.5,-524 793.5364,-511.2211 755.572,-488.2864 732.4547,-473.1031"/>
<polygon fill="#191970" stroke="#191970" points="734.3334,-470.1491 724.073,-467.5084 730.4472,-475.9713 734.3334,-470.1491"/>
</g>
<!-- Node19 -->
<g id="node20" class="node">
<title>Node19</title>
<g id="a_node20"><a xlink:href="LinearSystem_8h.html" target="_top" xlink:title="iDynTree/LinearSystem.h">
<polygon fill="none" stroke="#000000" points="838.5,-504.5 838.5,-523.5 976.5,-523.5 976.5,-504.5 838.5,-504.5"/>
<text text-anchor="middle" x="907.5" y="-511.5" font-family="FreeSans.ttf" font-size="10.00" fill="#000000">iDynTree/LinearSystem.h</text>
</a>
</g>
</g>
<!-- Node0&#45;&gt;Node19 -->
<g id="edge22" class="edge">
<title>Node0&#45;&gt;Node19</title>
<path fill="none" stroke="#191970" d="M1056.5569,-560.3733C1026.4961,-551.021 980.6974,-536.7725 947.8022,-526.5385"/>
<polygon fill="#191970" stroke="#191970" points="948.6277,-523.1299 938.0393,-523.5011 946.5481,-529.8139 948.6277,-523.1299"/>
</g>
<!-- Node35 -->
<g id="node36" class="node">
<title>Node35</title>
<g id="a_node36"><a xlink:href="Constraint_8h.html" target="_top" xlink:title="iDynTree/Constraint.h">
<polygon fill="none" stroke="#000000" points="454.5,-448.5 454.5,-467.5 576.5,-467.5 576.5,-448.5 454.5,-448.5"/>
<text text-anchor="middle" x="515.5" y="-455.5" font-family="FreeSans.ttf" font-size="10.00" fill="#000000">iDynTree/Constraint.h</text>
</a>
</g>
</g>
<!-- Node0&#45;&gt;Node35 -->
<g id="edge66" class="edge">
<title>Node0&#45;&gt;Node35</title>
<path fill="none" stroke="#191970" d="M1037.4288,-563.942C976.6227,-556.2474 871.0749,-541.8045 781.5,-524 702.5839,-508.3141 611.8605,-484.5532 559.3619,-470.2294"/>
<polygon fill="#191970" stroke="#191970" points="560.2707,-466.8494 549.7012,-467.5822 558.4207,-473.6006 560.2707,-466.8494"/>
</g>
<!-- Node36 -->
<g id="node37" class="node">
<title>Node36</title>
<g id="a_node37"><a xlink:href="ConstraintsGroup_8h.html" target="_top" xlink:title="iDynTree/ConstraintsGroup.h">
<polygon fill="none" stroke="#000000" points="1198.5,-504.5 1198.5,-523.5 1354.5,-523.5 1354.5,-504.5 1198.5,-504.5"/>
<text text-anchor="middle" x="1276.5" y="-511.5" font-family="FreeSans.ttf" font-size="10.00" fill="#000000">iDynTree/ConstraintsGroup.h</text>
</a>
</g>
</g>
<!-- Node0&#45;&gt;Node36 -->
<g id="edge71" class="edge">
<title>Node0&#45;&gt;Node36</title>
<path fill="none" stroke="#191970" d="M1119.9903,-560.3733C1151.6902,-550.9807 1200.0576,-536.6496 1234.6286,-526.4064"/>
<polygon fill="#191970" stroke="#191970" points="1235.8401,-529.6979 1244.4337,-523.5011 1233.8514,-522.9863 1235.8401,-529.6979"/>
</g>
<!-- Node37 -->
<g id="node38" class="node">
<title>Node37</title>
<g id="a_node38"><a xlink:href="Cost_8h.html" target="_top" xlink:title="iDynTree/Cost.h">
<polygon fill="none" stroke="#000000" points="1343,-448.5 1343,-467.5 1436,-467.5 1436,-448.5 1343,-448.5"/>
<text text-anchor="middle" x="1389.5" y="-455.5" font-family="FreeSans.ttf" font-size="10.00" fill="#000000">iDynTree/Cost.h</text>
</a>
</g>
</g>
<!-- Node0&#45;&gt;Node37 -->
<g id="edge76" class="edge">
<title>Node0&#45;&gt;Node37</title>
<path fill="none" stroke="#191970" d="M1137.6295,-567.4791C1207.5512,-563.0067 1329.6083,-551.4258 1363.5,-524 1377.3846,-512.7644 1383.8819,-493.0763 1386.9059,-478.1191"/>
<polygon fill="#191970" stroke="#191970" points="1390.4302,-478.2583 1388.6061,-467.8217 1383.5238,-477.1179 1390.4302,-478.2583"/>
</g>
<!-- Node38 -->
<g id="node39" class="node">
<title>Node38</title>
<g id="a_node39"><a xlink:href="OptimalControlProblem_8h.html" target="_top" xlink:title="iDynTree/OptimalControlProblem.h">
<polygon fill="none" stroke="#000000" points="994.5,-504.5 994.5,-523.5 1180.5,-523.5 1180.5,-504.5 994.5,-504.5"/>
<text text-anchor="middle" x="1087.5" y="-511.5" font-family="FreeSans.ttf" font-size="10.00" fill="#000000">iDynTree/OptimalControlProblem.h</text>
</a>
</g>
</g>
<!-- Node0&#45;&gt;Node38 -->
<g id="edge79" class="edge">
<title>Node0&#45;&gt;Node38</title>
<path fill="none" stroke="#191970" d="M1087.5,-560.2455C1087.5,-552.9382 1087.5,-542.6944 1087.5,-533.7046"/>
<polygon fill="#191970" stroke="#191970" points="1091.0001,-533.6426 1087.5,-523.6427 1084.0001,-533.6427 1091.0001,-533.6426"/>
</g>
<!-- Node39 -->
<g id="node40" class="node">
<title>Node39</title>
<g id="a_node40"><a xlink:href="TimeRange_8h.html" target="_top" xlink:title="iDynTree/TimeRange.h">
<polygon fill="none" stroke="#000000" points="1411,-504.5 1411,-523.5 1538,-523.5 1538,-504.5 1411,-504.5"/>
<text text-anchor="middle" x="1474.5" y="-511.5" font-family="FreeSans.ttf" font-size="10.00" fill="#000000">iDynTree/TimeRange.h</text>
</a>
</g>
</g>
<!-- Node0&#45;&gt;Node39 -->
<g id="edge86" class="edge">
<title>Node0&#45;&gt;Node39</title>
<path fill="none" stroke="#191970" d="M1137.6967,-562.7364C1204.6361,-553.0501 1323.63,-535.8313 1400.7694,-524.669"/>
<polygon fill="#191970" stroke="#191970" points="1401.5023,-528.0995 1410.8979,-523.2034 1400.4998,-521.1717 1401.5023,-528.0995"/>
</g>
<!-- Node2 -->
<g id="node3" class="node">
<title>Node2</title>
<g id="a_node3"><a xlink:href="VectorDynSize_8h.html" target="_top" xlink:title="iDynTree/Core/VectorDynSize.h">
<polygon fill="none" stroke="#000000" points="432,-392.5 432,-411.5 599,-411.5 599,-392.5 432,-392.5"/>
<text text-anchor="middle" x="515.5" y="-399.5" font-family="FreeSans.ttf" font-size="10.00" fill="#000000">iDynTree/Core/VectorDynSize.h</text>
</a>
</g>
</g>
<!-- Node1&#45;&gt;Node2 -->
<g id="edge2" class="edge">
<title>Node1&#45;&gt;Node2</title>
<path fill="none" stroke="#191970" d="M676.9783,-448.3733C644.1317,-438.9404 593.9405,-424.5265 558.2422,-414.2747"/>
<polygon fill="#191970" stroke="#191970" points="559.1619,-410.8974 548.5843,-411.5011 557.2297,-417.6255 559.1619,-410.8974"/>
</g>
<!-- Node14 -->
<g id="node15" class="node">
<title>Node14</title>
<g id="a_node15"><a xlink:href="SparsityStructure_8h.html" target="_top" xlink:title="iDynTree/SparsityStructure.h">
<polygon fill="none" stroke="#000000" points="1017,-392.5 1017,-411.5 1172,-411.5 1172,-392.5 1017,-392.5"/>
<text text-anchor="middle" x="1094.5" y="-399.5" font-family="FreeSans.ttf" font-size="10.00" fill="#000000">iDynTree/SparsityStructure.h</text>
</a>
</g>
</g>
<!-- Node1&#45;&gt;Node14 -->
<g id="edge14" class="edge">
<title>Node1&#45;&gt;Node14</title>
<path fill="none" stroke="#191970" d="M776.0756,-448.4369C843.451,-438.6113 948.2159,-423.3331 1019.0055,-413.0096"/>
<polygon fill="#191970" stroke="#191970" points="1019.8046,-416.4302 1029.1948,-411.5237 1018.7944,-409.5035 1019.8046,-416.4302"/>
</g>
<!-- Node3 -->
<g id="node4" class="node">
<title>Node3</title>
<g id="a_node4"><a xlink:href="Span_8h.html" target="_top" xlink:title="iDynTree/Core/Span.h">
<polygon fill="none" stroke="#000000" points="195,-56.5 195,-75.5 316,-75.5 316,-56.5 195,-56.5"/>
<text text-anchor="middle" x="255.5" y="-63.5" font-family="FreeSans.ttf" font-size="10.00" fill="#000000">iDynTree/Core/Span.h</text>
</a>
</g>
</g>
<!-- Node2&#45;&gt;Node3 -->
<g id="edge3" class="edge">
<title>Node2&#45;&gt;Node3</title>
<path fill="none" stroke="#191970" d="M496.7608,-392.3668C448.9663,-366.6683 322.4977,-291.3391 268.5,-188 251.3911,-155.2575 251.4975,-110.8833 253.3457,-85.6667"/>
<polygon fill="#191970" stroke="#191970" points="256.8466,-85.8141 254.2618,-75.5394 249.875,-85.1834 256.8466,-85.8141"/>
</g>
<!-- Node13 -->
<g id="node14" class="node">
<title>Node13</title>
<polygon fill="none" stroke="#bfbfbf" points="938.5,-112.5 938.5,-131.5 982.5,-131.5 982.5,-112.5 938.5,-112.5"/>
<text text-anchor="middle" x="960.5" y="-119.5" font-family="FreeSans.ttf" font-size="10.00" fill="#000000">string</text>
</g>
<!-- Node2&#45;&gt;Node13 -->
<g id="edge13" class="edge">
<title>Node2&#45;&gt;Node13</title>
<path fill="none" stroke="#191970" d="M571.4645,-392.4985C635.4946,-379.6135 741.4256,-351.9909 818.5,-300 872.8515,-263.3369 874.3729,-239.8467 914.5,-188 926.7243,-172.2054 939.645,-153.4626 948.6698,-139.9936"/>
<polygon fill="#191970" stroke="#191970" points="951.6195,-141.8784 954.2389,-131.6125 945.7893,-138.0043 951.6195,-141.8784"/>
</g>
<!-- Node4 -->
<g id="node5" class="node">
<title>Node4</title>
<polygon fill="none" stroke="#bfbfbf" points="510.5,-.5 510.5,-19.5 562.5,-19.5 562.5,-.5 510.5,-.5"/>
<text text-anchor="middle" x="536.5" y="-7.5" font-family="FreeSans.ttf" font-size="10.00" fill="#000000">cassert</text>
</g>
<!-- Node3&#45;&gt;Node4 -->
<g id="edge4" class="edge">
<title>Node3&#45;&gt;Node4</title>
<path fill="none" stroke="#191970" d="M314.2055,-56.4271C364.0212,-47.9582 437.2671,-34.6903 500.5,-20 500.5987,-19.9771 500.6976,-19.954 500.7966,-19.9309"/>
<polygon fill="#191970" stroke="#191970" points="501.3656,-23.3964 510.2204,-17.5789 499.6704,-16.6047 501.3656,-23.3964"/>
</g>
<!-- Node5 -->
<g id="node6" class="node">
<title>Node5</title>
<polygon fill="none" stroke="#bfbfbf" points="296.5,-.5 296.5,-19.5 360.5,-19.5 360.5,-.5 296.5,-.5"/>
<text text-anchor="middle" x="328.5" y="-7.5" font-family="FreeSans.ttf" font-size="10.00" fill="#000000">algorithm</text>
</g>
<!-- Node3&#45;&gt;Node5 -->
<g id="edge5" class="edge">
<title>Node3&#45;&gt;Node5</title>
<path fill="none" stroke="#191970" d="M268.2156,-56.2455C279.102,-47.8943 294.9883,-35.7076 307.72,-25.9408"/>
<polygon fill="#191970" stroke="#191970" points="310.1261,-28.5063 315.9301,-19.6427 305.8654,-22.9523 310.1261,-28.5063"/>
</g>
<!-- Node6 -->
<g id="node7" class="node">
<title>Node6</title>
<polygon fill="none" stroke="#bfbfbf" points="378.5,-.5 378.5,-19.5 420.5,-19.5 420.5,-.5 378.5,-.5"/>
<text text-anchor="middle" x="399.5" y="-7.5" font-family="FreeSans.ttf" font-size="10.00" fill="#000000">array</text>
</g>
<!-- Node3&#45;&gt;Node6 -->
<g id="edge6" class="edge">
<title>Node3&#45;&gt;Node6</title>
<path fill="none" stroke="#191970" d="M280.2545,-56.3733C304.7831,-46.8343 342.4096,-32.2018 368.8214,-21.9306"/>
<polygon fill="#191970" stroke="#191970" points="370.2927,-25.1138 378.3442,-18.2273 367.7555,-18.5898 370.2927,-25.1138"/>
</g>
<!-- Node7 -->
<g id="node8" class="node">
<title>Node7</title>
<polygon fill="none" stroke="#bfbfbf" points="804,-.5 804,-19.5 857,-19.5 857,-.5 804,-.5"/>
<text text-anchor="middle" x="830.5" y="-7.5" font-family="FreeSans.ttf" font-size="10.00" fill="#000000">cstddef</text>
</g>
<!-- Node3&#45;&gt;Node7 -->
<g id="edge7" class="edge">
<title>Node3&#45;&gt;Node7</title>
<path fill="none" stroke="#191970" d="M316.0561,-57.7102C320.94,-57.1074 325.8007,-56.5292 330.5,-56 503.5279,-36.5137 710.9418,-19.4314 793.7439,-12.8647"/>
<polygon fill="#191970" stroke="#191970" points="794.2073,-16.3391 803.9006,-12.0625 793.6561,-9.3608 794.2073,-16.3391"/>
</g>
<!-- Node8 -->
<g id="node9" class="node">
<title>Node8</title>
<polygon fill="none" stroke="#bfbfbf" points="439,-.5 439,-19.5 492,-19.5 492,-.5 439,-.5"/>
<text text-anchor="middle" x="465.5" y="-7.5" font-family="FreeSans.ttf" font-size="10.00" fill="#000000">iterator</text>
</g>
<!-- Node3&#45;&gt;Node8 -->
<g id="edge8" class="edge">
<title>Node3&#45;&gt;Node8</title>
<path fill="none" stroke="#191970" d="M292.1967,-56.4408C325.3708,-47.7675 375.8069,-34.5031 428.844,-20.1548"/>
<polygon fill="#191970" stroke="#191970" points="430.0375,-23.4577 438.7739,-17.4639 428.2065,-16.7014 430.0375,-23.4577"/>
</g>
<!-- Node9 -->
<g id="node10" class="node">
<title>Node9</title>
<polygon fill="none" stroke="#bfbfbf" points="87.5,-.5 87.5,-19.5 131.5,-19.5 131.5,-.5 87.5,-.5"/>
<text text-anchor="middle" x="109.5" y="-7.5" font-family="FreeSans.ttf" font-size="10.00" fill="#000000">limits</text>
</g>
<!-- Node3&#45;&gt;Node9 -->
<g id="edge9" class="edge">
<title>Node3&#45;&gt;Node9</title>
<path fill="none" stroke="#191970" d="M230.4017,-56.3733C205.8216,-46.9453 168.2687,-32.5414 141.5434,-22.2906"/>
<polygon fill="#191970" stroke="#191970" points="142.4707,-18.8977 131.8804,-18.5843 139.9638,-25.4334 142.4707,-18.8977"/>
</g>
<!-- Node10 -->
<g id="node11" class="node">
<title>Node10</title>
<polygon fill="none" stroke="#bfbfbf" points="150,-.5 150,-19.5 215,-19.5 215,-.5 150,-.5"/>
<text text-anchor="middle" x="182.5" y="-7.5" font-family="FreeSans.ttf" font-size="10.00" fill="#000000">stdexcept</text>
</g>
<!-- Node3&#45;&gt;Node10 -->
<g id="edge10" class="edge">
<title>Node3&#45;&gt;Node10</title>
<path fill="none" stroke="#191970" d="M242.7844,-56.2455C231.898,-47.8943 216.0117,-35.7076 203.28,-25.9408"/>
<polygon fill="#191970" stroke="#191970" points="205.1346,-22.9523 195.0699,-19.6427 200.8739,-28.5063 205.1346,-22.9523"/>
</g>
<!-- Node11 -->
<g id="node12" class="node">
<title>Node11</title>
<polygon fill="none" stroke="#bfbfbf" points="0,-.5 0,-19.5 69,-19.5 69,-.5 0,-.5"/>
<text text-anchor="middle" x="34.5" y="-7.5" font-family="FreeSans.ttf" font-size="10.00" fill="#000000">type_traits</text>
</g>
<!-- Node3&#45;&gt;Node11 -->
<g id="edge11" class="edge">
<title>Node3&#45;&gt;Node11</title>
<path fill="none" stroke="#191970" d="M217.7599,-56.4369C179.346,-46.7031 119.8139,-31.618 79.0952,-21.3001"/>
<polygon fill="#191970" stroke="#191970" points="79.726,-17.8494 69.1727,-18.7858 78.0066,-24.635 79.726,-17.8494"/>
</g>
<!-- Node12 -->
<g id="node13" class="node">
<title>Node12</title>
<polygon fill="none" stroke="#bfbfbf" points="233,-.5 233,-19.5 278,-19.5 278,-.5 233,-.5"/>
<text text-anchor="middle" x="255.5" y="-7.5" font-family="FreeSans.ttf" font-size="10.00" fill="#000000">utility</text>
</g>
<!-- Node3&#45;&gt;Node12 -->
<g id="edge12" class="edge">
<title>Node3&#45;&gt;Node12</title>
<path fill="none" stroke="#191970" d="M255.5,-56.2455C255.5,-48.9382 255.5,-38.6944 255.5,-29.7046"/>
<polygon fill="#191970" stroke="#191970" points="259.0001,-29.6426 255.5,-19.6427 252.0001,-29.6427 259.0001,-29.6426"/>
</g>
<!-- Node14&#45;&gt;Node7 -->
<g id="edge19" class="edge">
<title>Node14&#45;&gt;Node7</title>
<path fill="none" stroke="#191970" d="M1077.1242,-392.4558C1064.6411,-384.5215 1048.7818,-371.9621 1041.5,-356 1037.8107,-347.9129 1038.2776,-344.2842 1041.5,-336 1049.3686,-315.7714 1061.0372,-317.0254 1074.5,-300 1135.11,-223.351 1247.3736,-189.9906 1188.5,-112 1183.5148,-105.396 957.265,-44.0462 867.0613,-19.7962"/>
<polygon fill="#191970" stroke="#191970" points="867.8243,-16.3772 857.2587,-17.163 866.0083,-23.1375 867.8243,-16.3772"/>
</g>
<!-- Node14&#45;&gt;Node13 -->
<g id="edge21" class="edge">
<title>Node14&#45;&gt;Node13</title>
<path fill="none" stroke="#191970" d="M1109.0782,-392.3369C1120.5628,-384.001 1136.1471,-370.9647 1145.5,-356 1161.678,-330.1152 1164.5,-320.5246 1164.5,-290 1164.5,-290 1164.5,-290 1164.5,-234 1164.5,-156.5969 1050.256,-132.32 992.7558,-125.0031"/>
<polygon fill="#191970" stroke="#191970" points="993.0597,-121.5149 982.7199,-123.8253 992.2438,-128.4671 993.0597,-121.5149"/>
</g>
<!-- Node15 -->
<g id="node16" class="node">
<title>Node15</title>
<g id="a_node16"><a xlink:href="Utils_8h.html" target="_top" xlink:title="iDynTree/Core/Utils.h">
<polygon fill="none" stroke="#000000" points="859,-56.5 859,-75.5 978,-75.5 978,-56.5 859,-56.5"/>
<text text-anchor="middle" x="918.5" y="-63.5" font-family="FreeSans.ttf" font-size="10.00" fill="#000000">iDynTree/Core/Utils.h</text>
</a>
</g>
</g>
<!-- Node14&#45;&gt;Node15 -->
<g id="edge15" class="edge">
<title>Node14&#45;&gt;Node15</title>
<path fill="none" stroke="#191970" d="M1128.3623,-392.4958C1171.4922,-378.0785 1240.5,-346.2255 1240.5,-290 1240.5,-290 1240.5,-290 1240.5,-178 1240.5,-125.0332 1083.1098,-91.3838 988.4033,-75.9306"/>
<polygon fill="#191970" stroke="#191970" points="988.7389,-72.4398 978.3111,-74.3137 987.6315,-79.3516 988.7389,-72.4398"/>
</g>
<!-- Node17 -->
<g id="node18" class="node">
<title>Node17</title>
<polygon fill="none" stroke="#bfbfbf" points="1269,-336.5 1269,-355.5 1316,-355.5 1316,-336.5 1269,-336.5"/>
<text text-anchor="middle" x="1292.5" y="-343.5" font-family="FreeSans.ttf" font-size="10.00" fill="#000000">vector</text>
</g>
<!-- Node14&#45;&gt;Node17 -->
<g id="edge18" class="edge">
<title>Node14&#45;&gt;Node17</title>
<path fill="none" stroke="#191970" d="M1128.5374,-392.3733C1165.1235,-382.0257 1222.9021,-365.6842 1259.2003,-355.4181"/>
<polygon fill="#191970" stroke="#191970" points="1260.1632,-358.7831 1268.8332,-352.6936 1258.2581,-352.0474 1260.1632,-358.7831"/>
</g>
<!-- Node18 -->
<g id="node19" class="node">
<title>Node18</title>
<polygon fill="none" stroke="#bfbfbf" points="1050.5,-336.5 1050.5,-355.5 1136.5,-355.5 1136.5,-336.5 1050.5,-336.5"/>
<text text-anchor="middle" x="1093.5" y="-343.5" font-family="FreeSans.ttf" font-size="10.00" fill="#000000">unordered_set</text>
</g>
<!-- Node14&#45;&gt;Node18 -->
<g id="edge20" class="edge">
<title>Node14&#45;&gt;Node18</title>
<path fill="none" stroke="#191970" d="M1094.3258,-392.2455C1094.1953,-384.9382 1094.0124,-374.6944 1093.8519,-365.7046"/>
<polygon fill="#191970" stroke="#191970" points="1097.3503,-365.5786 1093.6722,-355.6427 1090.3514,-365.7036 1097.3503,-365.5786"/>
</g>
<!-- Node15&#45;&gt;Node7 -->
<g id="edge16" class="edge">
<title>Node15&#45;&gt;Node7</title>
<path fill="none" stroke="#191970" d="M903.1716,-56.2455C889.6697,-47.6534 869.7878,-35.0014 854.2314,-25.1018"/>
<polygon fill="#191970" stroke="#191970" points="855.9685,-22.0587 845.6528,-19.6427 852.2103,-27.9643 855.9685,-22.0587"/>
</g>
<!-- Node16 -->
<g id="node17" class="node">
<title>Node16</title>
<polygon fill="none" stroke="#bfbfbf" points="878.5,-.5 878.5,-19.5 958.5,-19.5 958.5,-.5 878.5,-.5"/>
<text text-anchor="middle" x="918.5" y="-7.5" font-family="FreeSans.ttf" font-size="10.00" fill="#000000">CoreExport.h</text>
</g>
<!-- Node15&#45;&gt;Node16 -->
<g id="edge17" class="edge">
<title>Node15&#45;&gt;Node16</title>
<path fill="none" stroke="#191970" d="M918.5,-56.2455C918.5,-48.9382 918.5,-38.6944 918.5,-29.7046"/>
<polygon fill="#191970" stroke="#191970" points="922.0001,-29.6426 918.5,-19.6427 915.0001,-29.6427 922.0001,-29.6426"/>
</g>
<!-- Node19&#45;&gt;Node1 -->
<g id="edge23" class="edge">
<title>Node19&#45;&gt;Node1</title>
<path fill="none" stroke="#191970" d="M873.6345,-504.3733C840.451,-494.9404 789.745,-480.5265 753.6806,-470.2747"/>
<polygon fill="#191970" stroke="#191970" points="754.4995,-466.8689 743.9236,-467.5011 752.5855,-473.6021 754.4995,-466.8689"/>
</g>
<!-- Node19&#45;&gt;Node14 -->
<g id="edge64" class="edge">
<title>Node19&#45;&gt;Node14</title>
<path fill="none" stroke="#191970" d="M923.4435,-504.4509C956.151,-484.8615 1031.0281,-440.0152 1069.9654,-416.6945"/>
<polygon fill="#191970" stroke="#191970" points="1071.8162,-419.6658 1078.5968,-411.5249 1068.2195,-413.6605 1071.8162,-419.6658"/>
</g>
<!-- Node20 -->
<g id="node21" class="node">
<title>Node20</title>
<g id="a_node21"><a xlink:href="TimeVaryingObject_8h.html" target="_top" xlink:title="iDynTree/TimeVaryingObject.h">
<polygon fill="none" stroke="#000000" points="809.5,-448.5 809.5,-467.5 973.5,-467.5 973.5,-448.5 809.5,-448.5"/>
<text text-anchor="middle" x="891.5" y="-455.5" font-family="FreeSans.ttf" font-size="10.00" fill="#000000">iDynTree/TimeVaryingObject.h</text>
</a>
</g>
</g>
<!-- Node19&#45;&gt;Node20 -->
<g id="edge24" class="edge">
<title>Node19&#45;&gt;Node20</title>
<path fill="none" stroke="#191970" d="M904.713,-504.2455C902.6023,-496.8579 899.634,-486.4689 897.0453,-477.4087"/>
<polygon fill="#191970" stroke="#191970" points="900.3677,-476.2964 894.255,-467.6427 893.637,-478.2195 900.3677,-476.2964"/>
</g>
<!-- Node34 -->
<g id="node35" class="node">
<title>Node34</title>
<polygon fill="none" stroke="#bfbfbf" points="1029.5,-448.5 1029.5,-467.5 1087.5,-467.5 1087.5,-448.5 1029.5,-448.5"/>
<text text-anchor="middle" x="1058.5" y="-455.5" font-family="FreeSans.ttf" font-size="10.00" fill="#000000">memory</text>
</g>
<!-- Node19&#45;&gt;Node34 -->
<g id="edge65" class="edge">
<title>Node19&#45;&gt;Node34</title>
<path fill="none" stroke="#191970" d="M933.4578,-504.3733C958.2407,-495.1822 995.7746,-481.2624 1023.254,-471.0713"/>
<polygon fill="#191970" stroke="#191970" points="1024.7219,-474.26 1032.8809,-467.5011 1022.2879,-467.6968 1024.7219,-474.26"/>
</g>
<!-- Node20&#45;&gt;Node2 -->
<g id="edge25" class="edge">
<title>Node20&#45;&gt;Node2</title>
<path fill="none" stroke="#191970" d="M827.2905,-448.4369C761.3188,-438.6113 658.7365,-423.3331 589.4217,-413.0096"/>
<polygon fill="#191970" stroke="#191970" points="589.8512,-409.5351 579.4446,-411.5237 588.8199,-416.4587 589.8512,-409.5351"/>
</g>
<!-- Node21 -->
<g id="node22" class="node">
<title>Node21</title>
<g id="a_node22"><a xlink:href="MatrixDynSize_8h.html" target="_top" xlink:title="iDynTree/Core/MatrixDynSize.h">
<polygon fill="none" stroke="#000000" points="278,-168.5 278,-187.5 445,-187.5 445,-168.5 278,-168.5"/>
<text text-anchor="middle" x="361.5" y="-175.5" font-family="FreeSans.ttf" font-size="10.00" fill="#000000">iDynTree/Core/MatrixDynSize.h</text>
</a>
</g>
</g>
<!-- Node20&#45;&gt;Node21 -->
<g id="edge26" class="edge">
<title>Node20&#45;&gt;Node21</title>
<path fill="none" stroke="#191970" d="M865.8679,-448.4475C795.5548,-421.6775 594.9414,-341.4749 445.5,-244 421.9539,-228.6418 396.842,-208.3322 380.2735,-194.3191"/>
<polygon fill="#191970" stroke="#191970" points="382.3172,-191.4616 372.4416,-187.6246 377.769,-196.7827 382.3172,-191.4616"/>
</g>
<!-- Node23 -->
<g id="node24" class="node">
<title>Node23</title>
<g id="a_node24"><a xlink:href="Transform_8h.html" target="_top" xlink:title="iDynTree/Core/Transform.h">
<polygon fill="none" stroke="#000000" points="815.5,-392.5 815.5,-411.5 961.5,-411.5 961.5,-392.5 815.5,-392.5"/>
<text text-anchor="middle" x="888.5" y="-399.5" font-family="FreeSans.ttf" font-size="10.00" fill="#000000">iDynTree/Core/Transform.h</text>
</a>
</g>
</g>
<!-- Node20&#45;&gt;Node23 -->
<g id="edge33" class="edge">
<title>Node20&#45;&gt;Node23</title>
<path fill="none" stroke="#191970" d="M890.9774,-448.2455C890.586,-440.9382 890.0372,-430.6944 889.5556,-421.7046"/>
<polygon fill="#191970" stroke="#191970" points="893.0466,-421.4411 889.0166,-411.6427 886.0566,-421.8156 893.0466,-421.4411"/>
</g>
<!-- Node21&#45;&gt;Node13 -->
<g id="edge27" class="edge">
<title>Node21&#45;&gt;Node13</title>
<path fill="none" stroke="#191970" d="M445.2303,-168.835C448.0197,-168.5501 450.7822,-168.271 453.5,-168 632.7765,-150.1253 848.0137,-131.5503 928.2697,-124.7239"/>
<polygon fill="#191970" stroke="#191970" points="928.58,-128.2103 938.2479,-123.8766 927.9876,-121.2354 928.58,-128.2103"/>
</g>
<!-- Node22 -->
<g id="node23" class="node">
<title>Node22</title>
<g id="a_node23"><a xlink:href="MatrixView_8h.html" target="_top" xlink:title="iDynTree/Core/MatrixView.h">
<polygon fill="none" stroke="#000000" points="279,-112.5 279,-131.5 430,-131.5 430,-112.5 279,-112.5"/>
<text text-anchor="middle" x="354.5" y="-119.5" font-family="FreeSans.ttf" font-size="10.00" fill="#000000">iDynTree/Core/MatrixView.h</text>
</a>
</g>
</g>
<!-- Node21&#45;&gt;Node22 -->
<g id="edge28" class="edge">
<title>Node21&#45;&gt;Node22</title>
<path fill="none" stroke="#191970" d="M360.2807,-168.2455C359.3673,-160.9382 358.0868,-150.6944 356.9631,-141.7046"/>
<polygon fill="#191970" stroke="#191970" points="360.4187,-141.1313 355.7053,-131.6427 353.4728,-141.9996 360.4187,-141.1313"/>
</g>
<!-- Node22&#45;&gt;Node3 -->
<g id="edge31" class="edge">
<title>Node22&#45;&gt;Node3</title>
<path fill="none" stroke="#191970" d="M337.2555,-112.2455C321.9239,-103.5731 299.2801,-90.7645 281.7084,-80.825"/>
<polygon fill="#191970" stroke="#191970" points="282.9741,-77.5198 272.5469,-75.6427 279.5276,-83.6126 282.9741,-77.5198"/>
</g>
<!-- Node22&#45;&gt;Node4 -->
<g id="edge29" class="edge">
<title>Node22&#45;&gt;Node4</title>
<path fill="none" stroke="#191970" d="M370.0172,-112.4509C401.7158,-92.9441 474.111,-48.3932 512.1398,-24.9909"/>
<polygon fill="#191970" stroke="#191970" points="514.3398,-27.7467 521.0221,-19.5249 510.6711,-21.7851 514.3398,-27.7467"/>
</g>
<!-- Node22&#45;&gt;Node11 -->
<g id="edge30" class="edge">
<title>Node22&#45;&gt;Node11</title>
<path fill="none" stroke="#191970" d="M312.6549,-112.4197C278.1333,-104.0865 228.087,-91.0122 185.5,-76 141.9177,-60.6369 93.2206,-38.3868 63.2122,-24.0559"/>
<polygon fill="#191970" stroke="#191970" points="64.6849,-20.8805 54.156,-19.7001 61.6507,-27.1888 64.6849,-20.8805"/>
</g>
<!-- Node22&#45;&gt;Node15 -->
<g id="edge32" class="edge">
<title>Node22&#45;&gt;Node15</title>
<path fill="none" stroke="#191970" d="M430.0343,-113.0287C433.2317,-112.6758 436.3973,-112.3315 439.5,-112 584.8236,-96.4754 755.2169,-80.6872 848.5515,-72.2456"/>
<polygon fill="#191970" stroke="#191970" points="849.0732,-75.7128 858.7179,-71.3276 848.4436,-68.7412 849.0732,-75.7128"/>
</g>
<!-- Node23&#45;&gt;Node13 -->
<g id="edge63" class="edge">
<title>Node23&#45;&gt;Node13</title>
<path fill="none" stroke="#191970" d="M905.6535,-392.4696C921.4806,-383.5092 945.4866,-369.4918 965.5,-356 1026.2618,-315.038 1061.4332,-312.8588 1086.5,-244 1098.5288,-210.9568 1088.8361,-193.383 1064.5,-168 1045.1866,-147.8558 1015.4942,-135.9328 992.7726,-129.2937"/>
<polygon fill="#191970" stroke="#191970" points="993.4539,-125.8519 982.8858,-126.6046 991.6166,-132.6065 993.4539,-125.8519"/>
</g>
<!-- Node24 -->
<g id="node25" class="node">
<title>Node24</title>
<g id="a_node25"><a xlink:href="Position_8h.html" target="_top" xlink:title="iDynTree/Core/Position.h">
<polygon fill="none" stroke="#000000" points="820.5,-336.5 820.5,-355.5 956.5,-355.5 956.5,-336.5 820.5,-336.5"/>
<text text-anchor="middle" x="888.5" y="-343.5" font-family="FreeSans.ttf" font-size="10.00" fill="#000000">iDynTree/Core/Position.h</text>
</a>
</g>
</g>
<!-- Node23&#45;&gt;Node24 -->
<g id="edge34" class="edge">
<title>Node23&#45;&gt;Node24</title>
<path fill="none" stroke="#191970" d="M888.5,-392.2455C888.5,-384.9382 888.5,-374.6944 888.5,-365.7046"/>
<polygon fill="#191970" stroke="#191970" points="892.0001,-365.6426 888.5,-355.6427 885.0001,-365.6427 892.0001,-365.6426"/>
</g>
<!-- Node29 -->
<g id="node30" class="node">
<title>Node29</title>
<g id="a_node30"><a xlink:href="Rotation_8h.html" target="_top" xlink:title="iDynTree/Core/Rotation.h">
<polygon fill="none" stroke="#000000" points="673,-280.5 673,-299.5 810,-299.5 810,-280.5 673,-280.5"/>
<text text-anchor="middle" x="741.5" y="-287.5" font-family="FreeSans.ttf" font-size="10.00" fill="#000000">iDynTree/Core/Rotation.h</text>
</a>
</g>
</g>
<!-- Node23&#45;&gt;Node29 -->
<g id="edge61" class="edge">
<title>Node23&#45;&gt;Node29</title>
<path fill="none" stroke="#191970" d="M870.05,-392.4595C853.9871,-383.8132 830.382,-370.2724 811.5,-356 791.6735,-341.0136 771.2462,-321.1513 757.6146,-307.1441"/>
<polygon fill="#191970" stroke="#191970" points="759.8783,-304.448 750.4298,-299.6546 754.8269,-309.2939 759.8783,-304.448"/>
</g>
<!-- Node32 -->
<g id="node33" class="node">
<title>Node32</title>
<g id="a_node33"><a xlink:href="MatrixFixSize_8h.html" target="_top" xlink:title="iDynTree/Core/MatrixFixSize.h">
<polygon fill="none" stroke="#000000" points="463,-168.5 463,-187.5 624,-187.5 624,-168.5 463,-168.5"/>
<text text-anchor="middle" x="543.5" y="-175.5" font-family="FreeSans.ttf" font-size="10.00" fill="#000000">iDynTree/Core/MatrixFixSize.h</text>
</a>
</g>
</g>
<!-- Node23&#45;&gt;Node32 -->
<g id="edge62" class="edge">
<title>Node23&#45;&gt;Node32</title>
<path fill="none" stroke="#191970" d="M861.7247,-392.3892C767.2511,-358.4643 455.0651,-246.2337 453.5,-244 437.146,-220.6606 469.2926,-202.3537 499.6072,-191.0008"/>
<polygon fill="#191970" stroke="#191970" points="501.0629,-194.1984 509.3214,-187.5616 498.7267,-187.5997 501.0629,-194.1984"/>
</g>
<!-- Node24&#45;&gt;Node13 -->
<g id="edge60" class="edge">
<title>Node24&#45;&gt;Node13</title>
<path fill="none" stroke="#191970" d="M927.8994,-336.4454C971.3447,-323.5686 1039.1103,-296.0087 1069.5,-244 1095.2901,-199.863 1030.9406,-157.4851 990.449,-136.2087"/>
<polygon fill="#191970" stroke="#191970" points="991.9732,-133.0572 981.475,-131.63 988.7919,-139.2925 991.9732,-133.0572"/>
</g>
<!-- Node25 -->
<g id="node26" class="node">
<title>Node25</title>
<g id="a_node26"><a xlink:href="PositionRaw_8h.html" target="_top" xlink:title="iDynTree/Core/PositionRaw.h">
<polygon fill="none" stroke="#000000" points="904.5,-224.5 904.5,-243.5 1060.5,-243.5 1060.5,-224.5 904.5,-224.5"/>
<text text-anchor="middle" x="982.5" y="-231.5" font-family="FreeSans.ttf" font-size="10.00" fill="#000000">iDynTree/Core/PositionRaw.h</text>
</a>
</g>
</g>
<!-- Node24&#45;&gt;Node25 -->
<g id="edge35" class="edge">
<title>Node24&#45;&gt;Node25</title>
<path fill="none" stroke="#191970" d="M896.5144,-336.4509C912.3312,-317.6054 947.7663,-275.3849 967.8613,-251.4419"/>
<polygon fill="#191970" stroke="#191970" points="970.7581,-253.4347 974.5059,-243.5249 965.3962,-248.9346 970.7581,-253.4347"/>
</g>
<!-- Node24&#45;&gt;Node29 -->
<g id="edge45" class="edge">
<title>Node24&#45;&gt;Node29</title>
<path fill="none" stroke="#191970" d="M863.2298,-336.3733C839.1034,-327.1822 802.5638,-313.2624 775.8123,-303.0713"/>
<polygon fill="#191970" stroke="#191970" points="777.0313,-299.7904 766.4404,-299.5011 774.5393,-306.3318 777.0313,-299.7904"/>
</g>
<!-- Node25&#45;&gt;Node13 -->
<g id="edge44" class="edge">
<title>Node25&#45;&gt;Node13</title>
<path fill="none" stroke="#191970" d="M980.6243,-224.4509C977.0199,-206.1013 969.0625,-165.5908 964.3047,-141.3693"/>
<polygon fill="#191970" stroke="#191970" points="967.7329,-140.6627 962.371,-131.5249 960.8641,-142.012 967.7329,-140.6627"/>
</g>
<!-- Node26 -->
<g id="node27" class="node">
<title>Node26</title>
<g id="a_node27"><a xlink:href="VectorFixSize_8h.html" target="_top" xlink:title="iDynTree/Core/VectorFixSize.h">
<polygon fill="none" stroke="#000000" points="642,-168.5 642,-187.5 803,-187.5 803,-168.5 642,-168.5"/>
<text text-anchor="middle" x="722.5" y="-175.5" font-family="FreeSans.ttf" font-size="10.00" fill="#000000">iDynTree/Core/VectorFixSize.h</text>
</a>
</g>
</g>
<!-- Node25&#45;&gt;Node26 -->
<g id="edge36" class="edge">
<title>Node25&#45;&gt;Node26</title>
<path fill="none" stroke="#191970" d="M938.0998,-224.4369C893.4159,-214.8127 824.443,-199.957 776.5912,-189.6504"/>
<polygon fill="#191970" stroke="#191970" points="777.2298,-186.2078 766.717,-187.5237 775.7559,-193.0508 777.2298,-186.2078"/>
</g>
<!-- Node26&#45;&gt;Node3 -->
<g id="edge38" class="edge">
<title>Node26&#45;&gt;Node3</title>
<path fill="none" stroke="#191970" d="M728.995,-168.1165C737.4672,-153.8665 749.6375,-127.5571 735.5,-112 708.537,-82.3295 453.156,-71.3061 326.3005,-67.6366"/>
<polygon fill="#191970" stroke="#191970" points="326.3788,-64.1375 316.2842,-67.3544 326.1816,-71.1348 326.3788,-64.1375"/>
</g>
<!-- Node26&#45;&gt;Node4 -->
<g id="edge41" class="edge">
<title>Node26&#45;&gt;Node4</title>
<path fill="none" stroke="#191970" d="M733.1887,-168.203C746.3117,-154.9512 765.4424,-130.8095 753.5,-112 713.525,-49.0389 623.2224,-24.2462 572.6124,-15.0351"/>
<polygon fill="#191970" stroke="#191970" points="573.1942,-11.5838 562.7469,-13.3458 572.0127,-18.4834 573.1942,-11.5838"/>
</g>
<!-- Node26&#45;&gt;Node7 -->
<g id="edge42" class="edge">
<title>Node26&#45;&gt;Node7</title>
<path fill="none" stroke="#191970" d="M753.8201,-168.3783C771.938,-161.2074 793.6324,-149.5739 806.5,-132 828.8286,-101.5048 831.8409,-55.6545 831.5145,-29.7182"/>
<polygon fill="#191970" stroke="#191970" points="835.01,-29.5133 831.2021,-19.6264 828.0133,-29.73 835.01,-29.5133"/>
</g>
<!-- Node26&#45;&gt;Node13 -->
<g id="edge39" class="edge">
<title>Node26&#45;&gt;Node13</title>
<path fill="none" stroke="#191970" d="M763.1432,-168.4369C809.8736,-157.4415 885.6242,-139.6178 928.4099,-129.5506"/>
<polygon fill="#191970" stroke="#191970" points="929.3537,-132.9242 938.2862,-127.2268 927.7503,-126.1103 929.3537,-132.9242"/>
</g>
<!-- Node26&#45;&gt;Node15 -->
<g id="edge37" class="edge">
<title>Node26&#45;&gt;Node15</title>
<path fill="none" stroke="#191970" d="M757.7104,-168.4996C782.9607,-160.8067 817.1977,-148.5311 844.5,-132 866.8647,-118.4586 888.7381,-97.755 902.8318,-83.1534"/>
<polygon fill="#191970" stroke="#191970" points="905.4972,-85.4286 909.8149,-75.7534 900.4061,-80.6243 905.4972,-85.4286"/>
</g>
<!-- Node27 -->
<g id="node28" class="node">
<title>Node27</title>
<polygon fill="none" stroke="#bfbfbf" points="602.5,-112.5 602.5,-131.5 658.5,-131.5 658.5,-112.5 602.5,-112.5"/>
<text text-anchor="middle" x="630.5" y="-119.5" font-family="FreeSans.ttf" font-size="10.00" fill="#000000">sstream</text>
</g>
<!-- Node26&#45;&gt;Node27 -->
<g id="edge40" class="edge">
<title>Node26&#45;&gt;Node27</title>
<path fill="none" stroke="#191970" d="M706.4748,-168.2455C692.3592,-159.6534 671.5737,-147.0014 655.3101,-137.1018"/>
<polygon fill="#191970" stroke="#191970" points="656.7034,-133.8525 646.3415,-131.6427 653.0637,-139.8319 656.7034,-133.8525"/>
</g>
<!-- Node28 -->
<g id="node29" class="node">
<title>Node28</title>
<polygon fill="none" stroke="#bfbfbf" points="676.5,-112.5 676.5,-131.5 726.5,-131.5 726.5,-112.5 676.5,-112.5"/>
<text text-anchor="middle" x="701.5" y="-119.5" font-family="FreeSans.ttf" font-size="10.00" fill="#000000">cstring</text>
</g>
<!-- Node26&#45;&gt;Node28 -->
<g id="edge43" class="edge">
<title>Node26&#45;&gt;Node28</title>
<path fill="none" stroke="#191970" d="M718.8421,-168.2455C716.0416,-160.7776 712.091,-150.2427 708.6676,-141.1137"/>
<polygon fill="#191970" stroke="#191970" points="711.9045,-139.777 705.116,-131.6427 705.3501,-142.2349 711.9045,-139.777"/>
</g>
<!-- Node29&#45;&gt;Node13 -->
<g id="edge46" class="edge">
<title>Node29&#45;&gt;Node13</title>
<path fill="none" stroke="#191970" d="M759.4752,-280.4144C775.4391,-271.6349 799.167,-257.9234 818.5,-244 866.097,-209.7213 917.1552,-163.143 943.1406,-138.6418"/>
<polygon fill="#191970" stroke="#191970" points="945.8156,-140.9285 950.6603,-131.5062 940.9972,-135.8507 945.8156,-140.9285"/>
</g>
<!-- Node29&#45;&gt;Node26 -->
<g id="edge59" class="edge">
<title>Node29&#45;&gt;Node26</title>
<path fill="none" stroke="#191970" d="M672.8671,-283.3539C594.4293,-275.052 475.0714,-259.9829 461.5,-244 455.7466,-237.2243 455.7861,-230.8091 461.5,-224 472.6175,-210.7517 560.7083,-197.1978 631.5205,-188.2672"/>
<polygon fill="#191970" stroke="#191970" points="632.3405,-191.6923 641.8316,-186.9837 631.4758,-184.7459 632.3405,-191.6923"/>
</g>
<!-- Node30 -->
<g id="node31" class="node">
<title>Node30</title>
<g id="a_node31"><a xlink:href="GeomVector3_8h.html" target="_top" xlink:title="iDynTree/Core/GeomVector3.h">
<polygon fill="none" stroke="#000000" points="647,-224.5 647,-243.5 810,-243.5 810,-224.5 647,-224.5"/>
<text text-anchor="middle" x="728.5" y="-231.5" font-family="FreeSans.ttf" font-size="10.00" fill="#000000">iDynTree/Core/GeomVector3.h</text>
</a>
</g>
</g>
<!-- Node29&#45;&gt;Node30 -->
<g id="edge47" class="edge">
<title>Node29&#45;&gt;Node30</title>
<path fill="none" stroke="#191970" d="M739.2356,-280.2455C737.5206,-272.8579 735.1088,-262.4689 733.0056,-253.4087"/>
<polygon fill="#191970" stroke="#191970" points="736.4092,-252.5922 730.7385,-243.6427 729.5905,-254.1751 736.4092,-252.5922"/>
</g>
<!-- Node31 -->
<g id="node32" class="node">
<title>Node31</title>
<g id="a_node32"><a xlink:href="RotationRaw_8h.html" target="_top" xlink:title="iDynTree/Core/RotationRaw.h">
<polygon fill="none" stroke="#000000" points="470.5,-224.5 470.5,-243.5 628.5,-243.5 628.5,-224.5 470.5,-224.5"/>
<text text-anchor="middle" x="549.5" y="-231.5" font-family="FreeSans.ttf" font-size="10.00" fill="#000000">iDynTree/Core/RotationRaw.h</text>
</a>
</g>
</g>
<!-- Node29&#45;&gt;Node31 -->
<g id="edge49" class="edge">
<title>Node29&#45;&gt;Node31</title>
<path fill="none" stroke="#191970" d="M708.494,-280.3733C676.2909,-270.9807 627.1558,-256.6496 592.0361,-246.4064"/>
<polygon fill="#191970" stroke="#191970" points="592.6553,-242.9412 582.0753,-243.5011 590.6953,-249.6612 592.6553,-242.9412"/>
</g>
<!-- Node30&#45;&gt;Node26 -->
<g id="edge48" class="edge">
<title>Node30&#45;&gt;Node26</title>
<path fill="none" stroke="#191970" d="M727.4549,-224.2455C726.672,-216.9382 725.5744,-206.6944 724.6112,-197.7046"/>
<polygon fill="#191970" stroke="#191970" points="728.0786,-197.2129 723.5331,-187.6427 721.1185,-197.9587 728.0786,-197.2129"/>
</g>
<!-- Node31&#45;&gt;Node13 -->
<g id="edge58" class="edge">
<title>Node31&#45;&gt;Node13</title>
<path fill="none" stroke="#191970" d="M628.6801,-225.0055C702.411,-216.0316 806.6119,-201.651 845.5,-188 880.4349,-175.7367 916.8667,-152.8304 939.1243,-137.4954"/>
<polygon fill="#191970" stroke="#191970" points="941.3001,-140.2444 947.476,-131.6358 937.2796,-134.5142 941.3001,-140.2444"/>
</g>
<!-- Node31&#45;&gt;Node32 -->
<g id="edge50" class="edge">
<title>Node31&#45;&gt;Node32</title>
<path fill="none" stroke="#191970" d="M548.4549,-224.2455C547.672,-216.9382 546.5744,-206.6944 545.6112,-197.7046"/>
<polygon fill="#191970" stroke="#191970" points="549.0786,-197.2129 544.5331,-187.6427 542.1185,-197.9587 549.0786,-197.2129"/>
</g>
<!-- Node32&#45;&gt;Node4 -->
<g id="edge53" class="edge">
<title>Node32&#45;&gt;Node4</title>
<path fill="none" stroke="#191970" d="M543.1036,-168.4862C541.9971,-141.9293 538.8569,-66.5651 537.3402,-30.1655"/>
<polygon fill="#191970" stroke="#191970" points="540.8229,-29.6735 536.9095,-19.8279 533.8289,-29.965 540.8229,-29.6735"/>
</g>
<!-- Node32&#45;&gt;Node13 -->
<g id="edge55" class="edge">
<title>Node32&#45;&gt;Node13</title>
<path fill="none" stroke="#191970" d="M614.711,-168.4369C706.3451,-156.1311 861.6668,-135.2726 928.432,-126.3065"/>
<polygon fill="#191970" stroke="#191970" points="928.9186,-129.7727 938.3638,-124.9727 927.9869,-122.8349 928.9186,-129.7727"/>
</g>
<!-- Node32&#45;&gt;Node15 -->
<g id="edge51" class="edge">
<title>Node32&#45;&gt;Node15</title>
<path fill="none" stroke="#191970" d="M547.7297,-168.456C554.8444,-153.6369 570.699,-125.4065 593.5,-112 635.5285,-87.2881 766.5734,-75.06 848.8586,-69.6678"/>
<polygon fill="#191970" stroke="#191970" points="849.1332,-73.1575 858.8903,-69.0283 848.6879,-66.1716 849.1332,-73.1575"/>
</g>
<!-- Node32&#45;&gt;Node22 -->
<g id="edge52" class="edge">
<title>Node32&#45;&gt;Node22</title>
<path fill="none" stroke="#191970" d="M511.0097,-168.3733C479.3098,-158.9807 430.9424,-144.6496 396.3714,-134.4064"/>
<polygon fill="#191970" stroke="#191970" points="397.1486,-130.9863 386.5663,-131.5011 395.1599,-137.6979 397.1486,-130.9863"/>
</g>
<!-- Node32&#45;&gt;Node27 -->
<g id="edge57" class="edge">
<title>Node32&#45;&gt;Node27</title>
<path fill="none" stroke="#191970" d="M558.6542,-168.2455C572.0027,-159.6534 591.6586,-147.0014 607.0383,-137.1018"/>
<polygon fill="#191970" stroke="#191970" points="609.0051,-139.9982 615.5194,-131.6427 605.2164,-134.1121 609.0051,-139.9982"/>
</g>
<!-- Node32&#45;&gt;Node28 -->
<g id="edge54" class="edge">
<title>Node32&#45;&gt;Node28</title>
<path fill="none" stroke="#191970" d="M570.6612,-168.3733C597.1803,-158.9741 637.6526,-144.6295 666.5572,-134.3848"/>
<polygon fill="#191970" stroke="#191970" points="668.0007,-137.5866 676.2569,-130.9469 665.6622,-130.9887 668.0007,-137.5866"/>
</g>
<!-- Node33 -->
<g id="node34" class="node">
<title>Node33</title>
<polygon fill="none" stroke="#bfbfbf" points="448.5,-112.5 448.5,-131.5 508.5,-131.5 508.5,-112.5 448.5,-112.5"/>
<text text-anchor="middle" x="478.5" y="-119.5" font-family="FreeSans.ttf" font-size="10.00" fill="#000000">iostream</text>
</g>
<!-- Node32&#45;&gt;Node33 -->
<g id="edge56" class="edge">
<title>Node32&#45;&gt;Node33</title>
<path fill="none" stroke="#191970" d="M532.1779,-168.2455C522.5777,-159.9746 508.6108,-147.9416 497.3305,-138.2232"/>
<polygon fill="#191970" stroke="#191970" points="499.553,-135.5182 489.6924,-131.6427 494.984,-140.8214 499.553,-135.5182"/>
</g>
<!-- Node35&#45;&gt;Node2 -->
<g id="edge69" class="edge">
<title>Node35&#45;&gt;Node2</title>
<path fill="none" stroke="#191970" d="M515.5,-448.2455C515.5,-440.9382 515.5,-430.6944 515.5,-421.7046"/>
<polygon fill="#191970" stroke="#191970" points="519.0001,-421.6426 515.5,-411.6427 512.0001,-421.6427 519.0001,-421.6426"/>
</g>
<!-- Node35&#45;&gt;Node7 -->
<g id="edge67" class="edge">
<title>Node35&#45;&gt;Node7</title>
<path fill="none" stroke="#191970" d="M469.6431,-448.4971C393.7966,-431.4468 250.5,-393.0128 250.5,-346 250.5,-346 250.5,-346 250.5,-178 250.5,-147.4754 246.8595,-132.4734 269.5,-112 347.3869,-41.5683 681.4746,-17.8213 793.6249,-11.7531"/>
<polygon fill="#191970" stroke="#191970" points="793.9667,-15.24 803.7693,-11.22 793.5994,-8.2497 793.9667,-15.24"/>
</g>
<!-- Node35&#45;&gt;Node13 -->
<g id="edge68" class="edge">
<title>Node35&#45;&gt;Node13</title>
<path fill="none" stroke="#191970" d="M479.992,-448.3493C460.406,-441.2991 437.156,-429.7991 422.5,-412 403.1731,-388.5284 404.5,-376.4047 404.5,-346 404.5,-346 404.5,-346 404.5,-290 404.5,-113.9211 597.7079,-258.1635 811.5,-188 828.1575,-182.5332 829.7606,-175.722 845.5,-168 873.0337,-154.4914 905.583,-141.7568 929.0128,-133.1267"/>
<polygon fill="#191970" stroke="#191970" points="930.2555,-136.3991 938.4547,-129.6892 927.8607,-129.8215 930.2555,-136.3991"/>
</g>
<!-- Node35&#45;&gt;Node14 -->
<g id="edge70" class="edge">
<title>Node35&#45;&gt;Node14</title>
<path fill="none" stroke="#191970" d="M576.6416,-452.0865C679.5984,-442.1286 887.9203,-421.9801 1006.5672,-410.5047"/>
<polygon fill="#191970" stroke="#191970" points="1007.0914,-413.9705 1016.7079,-409.5239 1006.4174,-407.003 1007.0914,-413.9705"/>
</g>
<!-- Node36&#45;&gt;Node13 -->
<g id="edge73" class="edge">
<title>Node36&#45;&gt;Node13</title>
<path fill="none" stroke="#191970" d="M1281.6111,-504.4906C1297.4252,-474.1506 1344.5,-376.566 1344.5,-290 1344.5,-290 1344.5,-290 1344.5,-234 1344.5,-160.938 1085.0701,-132.3153 992.6862,-124.4389"/>
<polygon fill="#191970" stroke="#191970" points="992.779,-120.9347 982.5247,-123.5994 992.2026,-127.9109 992.779,-120.9347"/>
</g>
<!-- Node36&#45;&gt;Node14 -->
<g id="edge75" class="edge">
<title>Node36&#45;&gt;Node14</title>
<path fill="none" stroke="#191970" d="M1260.9828,-504.4509C1229.2842,-484.9441 1156.889,-440.3932 1118.8602,-416.9909"/>
<polygon fill="#191970" stroke="#191970" points="1120.3289,-413.7851 1109.9779,-411.5249 1116.6602,-419.7467 1120.3289,-413.7851"/>
</g>
<!-- Node36&#45;&gt;Node17 -->
<g id="edge74" class="edge">
<title>Node36&#45;&gt;Node17</title>
<path fill="none" stroke="#191970" d="M1277.4061,-504.4862C1279.9353,-477.9293 1287.1128,-402.5651 1290.5795,-366.1655"/>
<polygon fill="#191970" stroke="#191970" points="1294.1001,-366.1147 1291.564,-355.8279 1287.1316,-365.451 1294.1001,-366.1147"/>
</g>
<!-- Node36&#45;&gt;Node34 -->
<g id="edge72" class="edge">
<title>Node36&#45;&gt;Node34</title>
<path fill="none" stroke="#191970" d="M1239.0245,-504.3733C1199.5208,-494.2255 1137.5765,-478.3132 1097.505,-468.0196"/>
<polygon fill="#191970" stroke="#191970" points="1098.3719,-464.6288 1087.8155,-465.5306 1096.6303,-471.4086 1098.3719,-464.6288"/>
</g>
<!-- Node37&#45;&gt;Node13 -->
<g id="edge77" class="edge">
<title>Node37&#45;&gt;Node13</title>
<path fill="none" stroke="#191970" d="M1388.4971,-448.4242C1386.5615,-429.0891 1382.5,-383.9907 1382.5,-346 1382.5,-346 1382.5,-346 1382.5,-234 1382.5,-202.7875 1382.9932,-187.347 1358.5,-168 1329.947,-145.4462 1082.1754,-129.03 992.6218,-123.7858"/>
<polygon fill="#191970" stroke="#191970" points="992.6955,-120.2843 982.5103,-123.202 992.2919,-127.2727 992.6955,-120.2843"/>
</g>
<!-- Node37&#45;&gt;Node14 -->
<g id="edge78" class="edge">
<title>Node37&#45;&gt;Node14</title>
<path fill="none" stroke="#191970" d="M1342.7564,-449.1266C1291.9785,-439.4874 1210.6842,-424.0553 1155.0524,-413.4947"/>
<polygon fill="#191970" stroke="#191970" points="1155.4539,-410.0085 1144.9765,-411.582 1154.1483,-416.8857 1155.4539,-410.0085"/>
</g>
<!-- Node38&#45;&gt;Node13 -->
<g id="edge82" class="edge">
<title>Node38&#45;&gt;Node13</title>
<path fill="none" stroke="#191970" d="M1100.1294,-504.2554C1120.6096,-487.6997 1160.7581,-451.9626 1180.5,-412 1204.903,-362.6022 1202.5,-345.0968 1202.5,-290 1202.5,-290 1202.5,-290 1202.5,-234 1202.5,-197.4662 1183.9975,-188.1151 1153.5,-168 1127.3021,-150.7208 1040.6161,-134.7342 992.825,-126.9545"/>
<polygon fill="#191970" stroke="#191970" points="993.1194,-123.4572 982.692,-125.3332 992.0134,-130.3693 993.1194,-123.4572"/>
</g>
<!-- Node38&#45;&gt;Node14 -->
<g id="edge84" class="edge">
<title>Node38&#45;&gt;Node14</title>
<path fill="none" stroke="#191970" d="M1089.9865,-504.2105C1092.2014,-494.9529 1095.2755,-480.6354 1096.5,-468 1097.9881,-452.6444 1097.3589,-435.1941 1096.4273,-422.095"/>
<polygon fill="#191970" stroke="#191970" points="1099.8934,-421.5412 1095.5763,-411.8658 1092.9175,-422.1216 1099.8934,-421.5412"/>
</g>
<!-- Node38&#45;&gt;Node15 -->
<g id="edge83" class="edge">
<title>Node38&#45;&gt;Node15</title>
<path fill="none" stroke="#191970" d="M1172.3265,-504.4909C1276.7584,-492.5845 1440.9923,-473.1239 1445.5,-468 1451.3712,-461.3261 1446.4553,-456.8374 1445.5,-448 1431.7702,-320.9863 1470.5869,-258.5833 1380.5,-168 1317.819,-104.9736 1275.1231,-131.9419 1188.5,-112 1120.9931,-96.4589 1042.881,-83.709 988.0957,-75.6064"/>
<polygon fill="#191970" stroke="#191970" points="988.5473,-72.1353 978.1454,-74.148 987.5321,-79.0613 988.5473,-72.1353"/>
</g>
<!-- Node38&#45;&gt;Node17 -->
<g id="edge81" class="edge">
<title>Node38&#45;&gt;Node17</title>
<path fill="none" stroke="#191970" d="M1135.5573,-504.4937C1161.0409,-497.6165 1191.7017,-486.2381 1214.5,-468 1249.5073,-439.9949 1273.5918,-391.8065 1284.984,-365.1432"/>
<polygon fill="#191970" stroke="#191970" points="1288.2762,-366.34 1288.8456,-355.7605 1281.803,-363.6758 1288.2762,-366.34"/>
</g>
<!-- Node38&#45;&gt;Node20 -->
<g id="edge85" class="edge">
<title>Node38&#45;&gt;Node20</title>
<path fill="none" stroke="#191970" d="M1053.8064,-504.3733C1020.7913,-494.9404 970.3427,-480.5265 934.4614,-470.2747"/>
<polygon fill="#191970" stroke="#191970" points="935.3307,-466.8831 924.7539,-467.5011 933.4076,-473.6137 935.3307,-466.8831"/>
</g>
<!-- Node38&#45;&gt;Node34 -->
<g id="edge80" class="edge">
<title>Node38&#45;&gt;Node34</title>
<path fill="none" stroke="#191970" d="M1082.4486,-504.2455C1078.4981,-496.617 1072.8903,-485.7881 1068.0942,-476.5267"/>
<polygon fill="#191970" stroke="#191970" points="1071.2001,-474.9131 1063.4935,-467.6427 1064.9841,-478.1321 1071.2001,-474.9131"/>
</g>
</g>
</svg>
