<?xml version="1.0" encoding="UTF-8" standalone="no"?>
<!DOCTYPE svg PUBLIC "-//W3C//DTD SVG 1.1//EN"
 "http://www.w3.org/Graphics/SVG/1.1/DTD/svg11.dtd">
<!-- Generated by graphviz version 2.40.1 (20161225.0304)
 -->
<!-- Title: OriginElement.cpp Pages: 1 -->
<svg width="1470pt" height="532pt"
 viewBox="0.00 0.00 1470.00 532.00" xmlns="http://www.w3.org/2000/svg" xmlns:xlink="http://www.w3.org/1999/xlink">
<g id="graph0" class="graph" transform="scale(1 1) rotate(0) translate(4 528)">
<title>OriginElement.cpp</title>
<!-- Node0 -->
<g id="node1" class="node">
<title>Node0</title>
<polygon fill="#bfbfbf" stroke="#000000" points="438,-504.5 438,-523.5 545,-523.5 545,-504.5 438,-504.5"/>
<text text-anchor="middle" x="491.5" y="-511.5" font-family="FreeSans.ttf" font-size="10.00" fill="#000000">OriginElement.cpp</text>
</g>
<!-- Node1 -->
<g id="node2" class="node">
<title>Node1</title>
<g id="a_node2"><a xlink:href="OriginElement_8h.html" target="_top" xlink:title="OriginElement.h">
<polygon fill="none" stroke="#000000" points="196,-448.5 196,-467.5 291,-467.5 291,-448.5 196,-448.5"/>
<text text-anchor="middle" x="243.5" y="-455.5" font-family="FreeSans.ttf" font-size="10.00" fill="#000000">OriginElement.h</text>
</a>
</g>
</g>
<!-- Node0&#45;&gt;Node1 -->
<g id="edge1" class="edge">
<title>Node0&#45;&gt;Node1</title>
<path fill="none" stroke="#191970" d="M449.1491,-504.4369C406.7058,-494.8529 341.2881,-480.0812 295.6687,-469.78"/>
<polygon fill="#191970" stroke="#191970" points="296.2016,-466.3123 285.6763,-467.5237 294.6597,-473.1404 296.2016,-466.3123"/>
</g>
<!-- Node8 -->
<g id="node9" class="node">
<title>Node8</title>
<g id="a_node9"><a xlink:href="URDFParsingUtils_8h.html" target="_top" xlink:title="URDFParsingUtils.h">
<polygon fill="none" stroke="#000000" points="934.5,-448.5 934.5,-467.5 1044.5,-467.5 1044.5,-448.5 934.5,-448.5"/>
<text text-anchor="middle" x="989.5" y="-455.5" font-family="FreeSans.ttf" font-size="10.00" fill="#000000">URDFParsingUtils.h</text>
</a>
</g>
</g>
<!-- Node0&#45;&gt;Node8 -->
<g id="edge9" class="edge">
<title>Node0&#45;&gt;Node8</title>
<path fill="none" stroke="#191970" d="M545.2679,-507.9538C637.3312,-497.6013 824.8165,-476.5186 924.2267,-465.34"/>
<polygon fill="#191970" stroke="#191970" points="924.8956,-468.7869 934.4419,-464.1913 924.1134,-461.8307 924.8956,-468.7869"/>
</g>
<!-- Node12 -->
<g id="node13" class="node">
<title>Node12</title>
<g id="a_node13"><a xlink:href="Transform_8h.html" target="_top" xlink:title="iDynTree/Core/Transform.h">
<polygon fill="none" stroke="#000000" points="659.5,-392.5 659.5,-411.5 805.5,-411.5 805.5,-392.5 659.5,-392.5"/>
<text text-anchor="middle" x="732.5" y="-399.5" font-family="FreeSans.ttf" font-size="10.00" fill="#000000">iDynTree/Core/Transform.h</text>
</a>
</g>
</g>
<!-- Node0&#45;&gt;Node12 -->
<g id="edge65" class="edge">
<title>Node0&#45;&gt;Node12</title>
<path fill="none" stroke="#191970" d="M512.0475,-504.4509C554.7335,-484.6135 653.1511,-438.8758 702.7637,-415.8194"/>
<polygon fill="#191970" stroke="#191970" points="704.411,-418.9134 712.0045,-411.5249 701.4609,-412.5654 704.411,-418.9134"/>
</g>
<!-- Node36 -->
<g id="node37" class="node">
<title>Node36</title>
<g id="a_node37"><a xlink:href="XMLAttribute_8h.html" target="_top" xlink:title="iDynTree/XMLAttribute.h">
<polygon fill="none" stroke="#000000" points="257.5,-280.5 257.5,-299.5 391.5,-299.5 391.5,-280.5 257.5,-280.5"/>
<text text-anchor="middle" x="324.5" y="-287.5" font-family="FreeSans.ttf" font-size="10.00" fill="#000000">iDynTree/XMLAttribute.h</text>
</a>
</g>
</g>
<!-- Node0&#45;&gt;Node36 -->
<g id="edge63" class="edge">
<title>Node0&#45;&gt;Node36</title>
<path fill="none" stroke="#191970" d="M477.7218,-504.4143C447.0849,-482.2662 373.3548,-424.1842 339.5,-356 332.3147,-341.5287 328.5207,-323.5626 326.5478,-310.0307"/>
<polygon fill="#191970" stroke="#191970" points="329.9929,-309.372 325.2845,-299.8809 323.0465,-310.2366 329.9929,-309.372"/>
</g>
<!-- Node2 -->
<g id="node3" class="node">
<title>Node2</title>
<g id="a_node3"><a xlink:href="XMLElement_8h.html" target="_top" xlink:title="iDynTree/XMLElement.h">
<polygon fill="none" stroke="#000000" points="94.5,-392.5 94.5,-411.5 226.5,-411.5 226.5,-392.5 94.5,-392.5"/>
<text text-anchor="middle" x="160.5" y="-399.5" font-family="FreeSans.ttf" font-size="10.00" fill="#000000">iDynTree/XMLElement.h</text>
</a>
</g>
</g>
<!-- Node1&#45;&gt;Node2 -->
<g id="edge2" class="edge">
<title>Node1&#45;&gt;Node2</title>
<path fill="none" stroke="#191970" d="M229.0425,-448.2455C216.4268,-439.7337 197.9056,-427.2375 183.2955,-417.3801"/>
<polygon fill="#191970" stroke="#191970" points="185.0391,-414.3343 174.7918,-411.6427 181.1239,-420.1371 185.0391,-414.3343"/>
</g>
<!-- Node6 -->
<g id="node7" class="node">
<title>Node6</title>
<polygon fill="none" stroke="#bfbfbf" points="198,-336.5 198,-355.5 291,-355.5 291,-336.5 198,-336.5"/>
<text text-anchor="middle" x="244.5" y="-343.5" font-family="FreeSans.ttf" font-size="10.00" fill="#000000">unordered_map</text>
</g>
<!-- Node1&#45;&gt;Node6 -->
<g id="edge8" class="edge">
<title>Node1&#45;&gt;Node6</title>
<path fill="none" stroke="#191970" d="M243.5853,-448.4509C243.7484,-430.184 244.1075,-389.9553 244.3241,-365.6976"/>
<polygon fill="#191970" stroke="#191970" points="247.8254,-365.5558 244.415,-355.5249 240.8257,-365.4932 247.8254,-365.5558"/>
</g>
<!-- Node3 -->
<g id="node4" class="node">
<title>Node3</title>
<polygon fill="none" stroke="#bfbfbf" points="0,-336.5 0,-355.5 65,-355.5 65,-336.5 0,-336.5"/>
<text text-anchor="middle" x="32.5" y="-343.5" font-family="FreeSans.ttf" font-size="10.00" fill="#000000">functional</text>
</g>
<!-- Node2&#45;&gt;Node3 -->
<g id="edge3" class="edge">
<title>Node2&#45;&gt;Node3</title>
<path fill="none" stroke="#191970" d="M138.496,-392.3733C117.8565,-383.3435 86.7842,-369.7494 63.6111,-359.6111"/>
<polygon fill="#191970" stroke="#191970" points="64.7813,-356.3028 54.2169,-355.5011 61.9755,-362.7159 64.7813,-356.3028"/>
</g>
<!-- Node4 -->
<g id="node5" class="node">
<title>Node4</title>
<polygon fill="none" stroke="#bfbfbf" points="83.5,-336.5 83.5,-355.5 141.5,-355.5 141.5,-336.5 83.5,-336.5"/>
<text text-anchor="middle" x="112.5" y="-343.5" font-family="FreeSans.ttf" font-size="10.00" fill="#000000">memory</text>
</g>
<!-- Node2&#45;&gt;Node4 -->
<g id="edge4" class="edge">
<title>Node2&#45;&gt;Node4</title>
<path fill="none" stroke="#191970" d="M152.139,-392.2455C145.325,-384.2958 135.5319,-372.8706 127.3848,-363.3656"/>
<polygon fill="#191970" stroke="#191970" points="129.9305,-360.9575 120.7651,-355.6427 124.6157,-365.513 129.9305,-360.9575"/>
</g>
<!-- Node5 -->
<g id="node6" class="node">
<title>Node5</title>
<polygon fill="none" stroke="#bfbfbf" points="505.5,-112.5 505.5,-131.5 549.5,-131.5 549.5,-112.5 505.5,-112.5"/>
<text text-anchor="middle" x="527.5" y="-119.5" font-family="FreeSans.ttf" font-size="10.00" fill="#000000">string</text>
</g>
<!-- Node2&#45;&gt;Node5 -->
<g id="edge5" class="edge">
<title>Node2&#45;&gt;Node5</title>
<path fill="none" stroke="#191970" d="M161.7895,-392.4324C164.2781,-373.112 169.5,-328.0389 169.5,-290 169.5,-290 169.5,-290 169.5,-234 169.5,-166.0921 407.0909,-134.497 495.1638,-125.1178"/>
<polygon fill="#191970" stroke="#191970" points="495.7899,-128.5718 505.3757,-124.0592 495.068,-121.6091 495.7899,-128.5718"/>
</g>
<!-- Node2&#45;&gt;Node6 -->
<g id="edge6" class="edge">
<title>Node2&#45;&gt;Node6</title>
<path fill="none" stroke="#191970" d="M175.1317,-392.2455C187.8994,-383.7337 206.6438,-371.2375 221.4299,-361.3801"/>
<polygon fill="#191970" stroke="#191970" points="223.6569,-364.1019 230.036,-355.6427 219.774,-358.2775 223.6569,-364.1019"/>
</g>
<!-- Node7 -->
<g id="node8" class="node">
<title>Node7</title>
<polygon fill="none" stroke="#bfbfbf" points="348,-336.5 348,-355.5 395,-355.5 395,-336.5 348,-336.5"/>
<text text-anchor="middle" x="371.5" y="-343.5" font-family="FreeSans.ttf" font-size="10.00" fill="#000000">vector</text>
</g>
<!-- Node2&#45;&gt;Node7 -->
<g id="edge7" class="edge">
<title>Node2&#45;&gt;Node7</title>
<path fill="none" stroke="#191970" d="M196.7722,-392.3733C236.4679,-381.8379 299.5744,-365.0892 338.0967,-354.8653"/>
<polygon fill="#191970" stroke="#191970" points="339.0332,-358.238 347.8007,-352.2899 337.2375,-351.4723 339.0332,-358.238"/>
</g>
<!-- Node8&#45;&gt;Node5 -->
<g id="edge13" class="edge">
<title>Node8&#45;&gt;Node5</title>
<path fill="none" stroke="#191970" d="M934.4574,-452.8827C792.2247,-438.9229 423.5,-397.7437 423.5,-346 423.5,-346 423.5,-346 423.5,-234 423.5,-189.5129 468.106,-155.2585 498.8924,-136.9145"/>
<polygon fill="#191970" stroke="#191970" points="500.9969,-139.7428 507.9384,-131.7386 497.5205,-133.667 500.9969,-139.7428"/>
</g>
<!-- Node8&#45;&gt;Node7 -->
<g id="edge14" class="edge">
<title>Node8&#45;&gt;Node7</title>
<path fill="none" stroke="#191970" d="M934.3259,-456.5294C798.0172,-452.4883 453.2034,-439.6298 409.5,-412 392.7923,-401.4372 382.6392,-380.7029 377.0832,-365.2795"/>
<polygon fill="#191970" stroke="#191970" points="380.3693,-364.0668 373.947,-355.6404 373.7128,-366.2327 380.3693,-364.0668"/>
</g>
<!-- Node9 -->
<g id="node10" class="node">
<title>Node9</title>
<polygon fill="none" stroke="#bfbfbf" points="966,-392.5 966,-411.5 1013,-411.5 1013,-392.5 966,-392.5"/>
<text text-anchor="middle" x="989.5" y="-399.5" font-family="FreeSans.ttf" font-size="10.00" fill="#000000">cmath</text>
</g>
<!-- Node8&#45;&gt;Node9 -->
<g id="edge10" class="edge">
<title>Node8&#45;&gt;Node9</title>
<path fill="none" stroke="#191970" d="M989.5,-448.2455C989.5,-440.9382 989.5,-430.6944 989.5,-421.7046"/>
<polygon fill="#191970" stroke="#191970" points="993.0001,-421.6426 989.5,-411.6427 986.0001,-421.6427 993.0001,-421.6426"/>
</g>
<!-- Node10 -->
<g id="node11" class="node">
<title>Node10</title>
<polygon fill="none" stroke="#bfbfbf" points="1144,-392.5 1144,-411.5 1193,-411.5 1193,-392.5 1144,-392.5"/>
<text text-anchor="middle" x="1168.5" y="-399.5" font-family="FreeSans.ttf" font-size="10.00" fill="#000000">cstdlib</text>
</g>
<!-- Node8&#45;&gt;Node10 -->
<g id="edge11" class="edge">
<title>Node8&#45;&gt;Node10</title>
<path fill="none" stroke="#191970" d="M1020.2712,-448.3733C1051.9768,-438.4542 1101.2873,-423.0275 1134.2217,-412.7239"/>
<polygon fill="#191970" stroke="#191970" points="1135.3805,-416.0288 1143.8793,-409.7026 1133.2904,-409.3481 1135.3805,-416.0288"/>
</g>
<!-- Node11 -->
<g id="node12" class="node">
<title>Node11</title>
<polygon fill="none" stroke="#bfbfbf" points="1025.5,-112.5 1025.5,-131.5 1081.5,-131.5 1081.5,-112.5 1025.5,-112.5"/>
<text text-anchor="middle" x="1053.5" y="-119.5" font-family="FreeSans.ttf" font-size="10.00" fill="#000000">sstream</text>
</g>
<!-- Node8&#45;&gt;Node11 -->
<g id="edge12" class="edge">
<title>Node8&#45;&gt;Node11</title>
<path fill="none" stroke="#191970" d="M1044.7429,-452.5034C1100.0265,-445.9055 1180.0081,-433.0205 1202.5,-412 1224.8013,-391.1576 1221.5,-376.5246 1221.5,-346 1221.5,-346 1221.5,-346 1221.5,-234 1221.5,-171.8542 1140.929,-142.0693 1091.3817,-129.6284"/>
<polygon fill="#191970" stroke="#191970" points="1092.1587,-126.2156 1081.6194,-127.2991 1090.5341,-133.0245 1092.1587,-126.2156"/>
</g>
<!-- Node8&#45;&gt;Node12 -->
<g id="edge15" class="edge">
<title>Node8&#45;&gt;Node12</title>
<path fill="none" stroke="#191970" d="M945.6121,-448.4369C901.5362,-438.8328 833.5519,-424.0191 786.2642,-413.7152"/>
<polygon fill="#191970" stroke="#191970" points="786.7228,-410.233 776.2068,-411.5237 785.2324,-417.0725 786.7228,-410.233"/>
</g>
<!-- Node15 -->
<g id="node16" class="node">
<title>Node15</title>
<g id="a_node16"><a xlink:href="VectorFixSize_8h.html" target="_top" xlink:title="iDynTree/Core/VectorFixSize.h">
<polygon fill="none" stroke="#000000" points="973,-168.5 973,-187.5 1134,-187.5 1134,-168.5 973,-168.5"/>
<text text-anchor="middle" x="1053.5" y="-175.5" font-family="FreeSans.ttf" font-size="10.00" fill="#000000">iDynTree/Core/VectorFixSize.h</text>
</a>
</g>
</g>
<!-- Node8&#45;&gt;Node15 -->
<g id="edge61" class="edge">
<title>Node8&#45;&gt;Node15</title>
<path fill="none" stroke="#191970" d="M997.3123,-448.1021C1019.7116,-418.9742 1083.8091,-330.1798 1103.5,-244 1105.48,-235.3344 1107.0719,-232.1397 1103.5,-224 1098.1677,-211.8487 1087.8661,-201.4938 1077.9924,-193.7031"/>
<polygon fill="#191970" stroke="#191970" points="1080.0509,-190.8723 1069.9177,-187.7788 1075.91,-196.5162 1080.0509,-190.8723"/>
</g>
<!-- Node35 -->
<g id="node36" class="node">
<title>Node35</title>
<polygon fill="none" stroke="#bfbfbf" points="1249.5,-392.5 1249.5,-411.5 1307.5,-411.5 1307.5,-392.5 1249.5,-392.5"/>
<text text-anchor="middle" x="1278.5" y="-399.5" font-family="FreeSans.ttf" font-size="10.00" fill="#000000">fpconv.h</text>
</g>
<!-- Node8&#45;&gt;Node35 -->
<g id="edge62" class="edge">
<title>Node8&#45;&gt;Node35</title>
<path fill="none" stroke="#191970" d="M1044.3503,-448.4508C1094.2933,-439.588 1170.0132,-425.7307 1235.5,-412 1236.7659,-411.7346 1238.0517,-411.4607 1239.3493,-411.1806"/>
<polygon fill="#191970" stroke="#191970" points="1240.3905,-414.5348 1249.3939,-408.95 1238.8729,-407.7012 1240.3905,-414.5348"/>
</g>
<!-- Node12&#45;&gt;Node5 -->
<g id="edge60" class="edge">
<title>Node12&#45;&gt;Node5</title>
<path fill="none" stroke="#191970" d="M684.6745,-392.4858C606.8757,-375.6226 461.5,-337.7266 461.5,-290 461.5,-290 461.5,-290 461.5,-234 461.5,-195.944 490.1331,-159.4306 509.6802,-138.9377"/>
<polygon fill="#191970" stroke="#191970" points="512.3422,-141.2238 516.896,-131.6575 507.3705,-136.2961 512.3422,-141.2238"/>
</g>
<!-- Node13 -->
<g id="node14" class="node">
<title>Node13</title>
<g id="a_node14"><a xlink:href="Position_8h.html" target="_top" xlink:title="iDynTree/Core/Position.h">
<polygon fill="none" stroke="#000000" points="602.5,-336.5 602.5,-355.5 738.5,-355.5 738.5,-336.5 602.5,-336.5"/>
<text text-anchor="middle" x="670.5" y="-343.5" font-family="FreeSans.ttf" font-size="10.00" fill="#000000">iDynTree/Core/Position.h</text>
</a>
</g>
</g>
<!-- Node12&#45;&gt;Node13 -->
<g id="edge16" class="edge">
<title>Node12&#45;&gt;Node13</title>
<path fill="none" stroke="#191970" d="M721.7004,-392.2455C712.6322,-384.0549 699.4794,-372.1749 688.7755,-362.5069"/>
<polygon fill="#191970" stroke="#191970" points="690.9429,-359.7482 681.1758,-355.6427 686.2509,-364.9429 690.9429,-359.7482"/>
</g>
<!-- Node29 -->
<g id="node30" class="node">
<title>Node29</title>
<g id="a_node30"><a xlink:href="Rotation_8h.html" target="_top" xlink:title="iDynTree/Core/Rotation.h">
<polygon fill="none" stroke="#000000" points="735,-280.5 735,-299.5 872,-299.5 872,-280.5 735,-280.5"/>
<text text-anchor="middle" x="803.5" y="-287.5" font-family="FreeSans.ttf" font-size="10.00" fill="#000000">iDynTree/Core/Rotation.h</text>
</a>
</g>
</g>
<!-- Node12&#45;&gt;Node29 -->
<g id="edge58" class="edge">
<title>Node12&#45;&gt;Node29</title>
<path fill="none" stroke="#191970" d="M738.5534,-392.4509C750.3954,-373.7707 776.7965,-332.1238 792.041,-308.0761"/>
<polygon fill="#191970" stroke="#191970" points="795.0638,-309.8448 797.4619,-299.5249 789.1517,-306.0969 795.0638,-309.8448"/>
</g>
<!-- Node32 -->
<g id="node33" class="node">
<title>Node32</title>
<g id="a_node33"><a xlink:href="MatrixFixSize_8h.html" target="_top" xlink:title="iDynTree/Core/MatrixFixSize.h">
<polygon fill="none" stroke="#000000" points="778,-168.5 778,-187.5 939,-187.5 939,-168.5 778,-168.5"/>
<text text-anchor="middle" x="858.5" y="-175.5" font-family="FreeSans.ttf" font-size="10.00" fill="#000000">iDynTree/Core/MatrixFixSize.h</text>
</a>
</g>
</g>
<!-- Node12&#45;&gt;Node32 -->
<g id="edge59" class="edge">
<title>Node12&#45;&gt;Node32</title>
<path fill="none" stroke="#191970" d="M805.5667,-392.9846C890.2107,-378.1994 1026.0199,-340.0872 1088.5,-244 1093.3456,-236.548 1094.1355,-230.8742 1088.5,-224 1078.8095,-212.1795 1001.3724,-198.4016 938.9874,-189.0281"/>
<polygon fill="#191970" stroke="#191970" points="939.1282,-185.5108 928.7227,-187.5047 938.1005,-192.4349 939.1282,-185.5108"/>
</g>
<!-- Node13&#45;&gt;Node5 -->
<g id="edge57" class="edge">
<title>Node13&#45;&gt;Node5</title>
<path fill="none" stroke="#191970" d="M642.026,-336.4471C605.7384,-322.5496 544.5932,-292.9336 518.5,-244 501.0123,-211.2045 511.6393,-166.236 520.1149,-141.0625"/>
<polygon fill="#191970" stroke="#191970" points="523.4348,-142.1735 523.5273,-131.5791 516.8482,-139.8034 523.4348,-142.1735"/>
</g>
<!-- Node14 -->
<g id="node15" class="node">
<title>Node14</title>
<g id="a_node15"><a xlink:href="PositionRaw_8h.html" target="_top" xlink:title="iDynTree/Core/PositionRaw.h">
<polygon fill="none" stroke="#000000" points="527.5,-224.5 527.5,-243.5 683.5,-243.5 683.5,-224.5 527.5,-224.5"/>
<text text-anchor="middle" x="605.5" y="-231.5" font-family="FreeSans.ttf" font-size="10.00" fill="#000000">iDynTree/Core/PositionRaw.h</text>
</a>
</g>
</g>
<!-- Node13&#45;&gt;Node14 -->
<g id="edge17" class="edge">
<title>Node13&#45;&gt;Node14</title>
<path fill="none" stroke="#191970" d="M664.9581,-336.4509C654.1649,-317.8533 630.1605,-276.4919 616.1765,-252.3964"/>
<polygon fill="#191970" stroke="#191970" points="619.0745,-250.417 611.0278,-243.5249 613.0202,-253.9307 619.0745,-250.417"/>
</g>
<!-- Node13&#45;&gt;Node29 -->
<g id="edge38" class="edge">
<title>Node13&#45;&gt;Node29</title>
<path fill="none" stroke="#191970" d="M693.3635,-336.3733C714.905,-327.3032 747.3838,-313.6279 771.4956,-303.4755"/>
<polygon fill="#191970" stroke="#191970" points="773.0767,-306.6075 780.9348,-299.5011 770.3603,-300.156 773.0767,-306.6075"/>
</g>
<!-- Node14&#45;&gt;Node5 -->
<g id="edge37" class="edge">
<title>Node14&#45;&gt;Node5</title>
<path fill="none" stroke="#191970" d="M598.8498,-224.4509C585.7827,-205.688 556.5792,-163.7548 539.8672,-139.758"/>
<polygon fill="#191970" stroke="#191970" points="542.7205,-137.7307 534.1334,-131.5249 536.9763,-141.7312 542.7205,-137.7307"/>
</g>
<!-- Node14&#45;&gt;Node15 -->
<g id="edge18" class="edge">
<title>Node14&#45;&gt;Node15</title>
<path fill="none" stroke="#191970" d="M681.7508,-224.4686C760.8768,-214.5779 884.4015,-199.1373 967.0928,-188.8009"/>
<polygon fill="#191970" stroke="#191970" points="967.7318,-192.2484 977.2204,-187.535 966.8635,-185.3024 967.7318,-192.2484"/>
</g>
<!-- Node15&#45;&gt;Node5 -->
<g id="edge32" class="edge">
<title>Node15&#45;&gt;Node5</title>
<path fill="none" stroke="#191970" d="M972.7525,-169.4033C854.7913,-156.8447 640.5977,-134.0408 559.6457,-125.4224"/>
<polygon fill="#191970" stroke="#191970" points="559.8829,-121.9279 549.5685,-124.3495 559.1417,-128.8886 559.8829,-121.9279"/>
</g>
<!-- Node15&#45;&gt;Node11 -->
<g id="edge33" class="edge">
<title>Node15&#45;&gt;Node11</title>
<path fill="none" stroke="#191970" d="M1053.5,-168.2455C1053.5,-160.9382 1053.5,-150.6944 1053.5,-141.7046"/>
<polygon fill="#191970" stroke="#191970" points="1057.0001,-141.6426 1053.5,-131.6427 1050.0001,-141.6427 1057.0001,-141.6426"/>
</g>
<!-- Node16 -->
<g id="node17" class="node">
<title>Node16</title>
<g id="a_node17"><a xlink:href="Utils_8h.html" target="_top" xlink:title="iDynTree/Core/Utils.h">
<polygon fill="none" stroke="#000000" points="870,-56.5 870,-75.5 989,-75.5 989,-56.5 870,-56.5"/>
<text text-anchor="middle" x="929.5" y="-63.5" font-family="FreeSans.ttf" font-size="10.00" fill="#000000">iDynTree/Core/Utils.h</text>
</a>
</g>
</g>
<!-- Node15&#45;&gt;Node16 -->
<g id="edge19" class="edge">
<title>Node15&#45;&gt;Node16</title>
<path fill="none" stroke="#191970" d="M1065.896,-168.3266C1081.454,-155.0072 1104.5015,-130.5623 1090.5,-112 1079.0503,-96.8208 1037.2647,-85.1435 999.1348,-77.3527"/>
<polygon fill="#191970" stroke="#191970" points="999.513,-73.8599 989.0245,-75.3574 998.1576,-80.7274 999.513,-73.8599"/>
</g>
<!-- Node17 -->
<g id="node18" class="node">
<title>Node17</title>
<polygon fill="none" stroke="#bfbfbf" points="986,-.5 986,-19.5 1039,-19.5 1039,-.5 986,-.5"/>
<text text-anchor="middle" x="1012.5" y="-7.5" font-family="FreeSans.ttf" font-size="10.00" fill="#000000">cstddef</text>
</g>
<!-- Node15&#45;&gt;Node17 -->
<g id="edge35" class="edge">
<title>Node15&#45;&gt;Node17</title>
<path fill="none" stroke="#191970" d="M1070.8758,-168.4558C1083.3589,-160.5215 1099.2182,-147.9621 1106.5,-132 1110.1893,-123.9129 1109.7334,-120.2799 1106.5,-112 1092.1301,-75.2026 1057.5786,-43.6815 1034.6105,-25.7842"/>
<polygon fill="#191970" stroke="#191970" points="1036.5291,-22.847 1026.4411,-19.6093 1032.3082,-28.4313 1036.5291,-22.847"/>
</g>
<!-- Node19 -->
<g id="node20" class="node">
<title>Node19</title>
<g id="a_node20"><a xlink:href="Span_8h.html" target="_top" xlink:title="iDynTree/Core/Span.h">
<polygon fill="none" stroke="#000000" points="1152,-56.5 1152,-75.5 1273,-75.5 1273,-56.5 1152,-56.5"/>
<text text-anchor="middle" x="1212.5" y="-63.5" font-family="FreeSans.ttf" font-size="10.00" fill="#000000">iDynTree/Core/Span.h</text>
</a>
</g>
</g>
<!-- Node15&#45;&gt;Node19 -->
<g id="edge22" class="edge">
<title>Node15&#45;&gt;Node19</title>
<path fill="none" stroke="#191970" d="M1087.4913,-168.4869C1110.0283,-161.0434 1139.4051,-149.0695 1161.5,-132 1178.4203,-118.9281 1192.7885,-98.9787 1201.9196,-84.4343"/>
<polygon fill="#191970" stroke="#191970" points="1204.9696,-86.1541 1207.138,-75.7835 1198.9757,-82.5384 1204.9696,-86.1541"/>
</g>
<!-- Node20 -->
<g id="node21" class="node">
<title>Node20</title>
<polygon fill="none" stroke="#bfbfbf" points="712.5,-.5 712.5,-19.5 764.5,-19.5 764.5,-.5 712.5,-.5"/>
<text text-anchor="middle" x="738.5" y="-7.5" font-family="FreeSans.ttf" font-size="10.00" fill="#000000">cassert</text>
</g>
<!-- Node15&#45;&gt;Node20 -->
<g id="edge34" class="edge">
<title>Node15&#45;&gt;Node20</title>
<path fill="none" stroke="#191970" d="M972.9443,-168.7214C883.0772,-157.9852 749.1771,-140.6741 741.5,-132 716.5702,-103.8326 724.7757,-56.0571 732.1473,-29.4177"/>
<polygon fill="#191970" stroke="#191970" points="735.5364,-30.3011 735.0579,-19.717 728.8317,-28.2893 735.5364,-30.3011"/>
</g>
<!-- Node28 -->
<g id="node29" class="node">
<title>Node28</title>
<polygon fill="none" stroke="#bfbfbf" points="957.5,-112.5 957.5,-131.5 1007.5,-131.5 1007.5,-112.5 957.5,-112.5"/>
<text text-anchor="middle" x="982.5" y="-119.5" font-family="FreeSans.ttf" font-size="10.00" fill="#000000">cstring</text>
</g>
<!-- Node15&#45;&gt;Node28 -->
<g id="edge36" class="edge">
<title>Node15&#45;&gt;Node28</title>
<path fill="none" stroke="#191970" d="M1041.1327,-168.2455C1030.5446,-159.8943 1015.0936,-147.7076 1002.7107,-137.9408"/>
<polygon fill="#191970" stroke="#191970" points="1004.7447,-135.0875 994.7255,-131.6427 1000.4097,-140.5837 1004.7447,-135.0875"/>
</g>
<!-- Node16&#45;&gt;Node17 -->
<g id="edge20" class="edge">
<title>Node16&#45;&gt;Node17</title>
<path fill="none" stroke="#191970" d="M943.9575,-56.2455C956.5732,-47.7337 975.0944,-35.2375 989.7045,-25.3801"/>
<polygon fill="#191970" stroke="#191970" points="991.8761,-28.1371 998.2082,-19.6427 987.9609,-22.3343 991.8761,-28.1371"/>
</g>
<!-- Node18 -->
<g id="node19" class="node">
<title>Node18</title>
<polygon fill="none" stroke="#bfbfbf" points="887.5,-.5 887.5,-19.5 967.5,-19.5 967.5,-.5 887.5,-.5"/>
<text text-anchor="middle" x="927.5" y="-7.5" font-family="FreeSans.ttf" font-size="10.00" fill="#000000">CoreExport.h</text>
</g>
<!-- Node16&#45;&gt;Node18 -->
<g id="edge21" class="edge">
<title>Node16&#45;&gt;Node18</title>
<path fill="none" stroke="#191970" d="M929.1516,-56.2455C928.8907,-48.9382 928.5248,-38.6944 928.2037,-29.7046"/>
<polygon fill="#191970" stroke="#191970" points="931.6992,-29.5113 927.8444,-19.6427 924.7036,-29.7613 931.6992,-29.5113"/>
</g>
<!-- Node19&#45;&gt;Node17 -->
<g id="edge26" class="edge">
<title>Node19&#45;&gt;Node17</title>
<path fill="none" stroke="#191970" d="M1178.1188,-56.3733C1142.0819,-46.2829 1085.6896,-30.4931 1048.9103,-20.1949"/>
<polygon fill="#191970" stroke="#191970" points="1049.6633,-16.7712 1039.0899,-17.4452 1047.7759,-23.5119 1049.6633,-16.7712"/>
</g>
<!-- Node19&#45;&gt;Node20 -->
<g id="edge23" class="edge">
<title>Node19&#45;&gt;Node20</title>
<path fill="none" stroke="#191970" d="M1151.937,-61.3376C1069.1132,-54.5343 916.0074,-40.4324 786.5,-20 782.5915,-19.3834 778.5198,-18.6609 774.473,-17.8915"/>
<polygon fill="#191970" stroke="#191970" points="775.0638,-14.4405 764.5722,-15.9154 773.6937,-21.3051 775.0638,-14.4405"/>
</g>
<!-- Node21 -->
<g id="node22" class="node">
<title>Node21</title>
<polygon fill="none" stroke="#bfbfbf" points="1266.5,-.5 1266.5,-19.5 1330.5,-19.5 1330.5,-.5 1266.5,-.5"/>
<text text-anchor="middle" x="1298.5" y="-7.5" font-family="FreeSans.ttf" font-size="10.00" fill="#000000">algorithm</text>
</g>
<!-- Node19&#45;&gt;Node21 -->
<g id="edge24" class="edge">
<title>Node19&#45;&gt;Node21</title>
<path fill="none" stroke="#191970" d="M1227.4801,-56.2455C1240.6751,-47.6534 1260.1051,-35.0014 1275.3079,-25.1018"/>
<polygon fill="#191970" stroke="#191970" points="1277.2215,-28.0325 1283.6916,-19.6427 1273.4017,-22.1665 1277.2215,-28.0325"/>
</g>
<!-- Node22 -->
<g id="node23" class="node">
<title>Node22</title>
<polygon fill="none" stroke="#bfbfbf" points="1348.5,-.5 1348.5,-19.5 1390.5,-19.5 1390.5,-.5 1348.5,-.5"/>
<text text-anchor="middle" x="1369.5" y="-7.5" font-family="FreeSans.ttf" font-size="10.00" fill="#000000">array</text>
</g>
<!-- Node19&#45;&gt;Node22 -->
<g id="edge25" class="edge">
<title>Node19&#45;&gt;Node22</title>
<path fill="none" stroke="#191970" d="M1239.4893,-56.3733C1267.0953,-46.5265 1309.9182,-31.2521 1338.8006,-20.9501"/>
<polygon fill="#191970" stroke="#191970" points="1340.1445,-24.1868 1348.3874,-17.5306 1337.7928,-17.5937 1340.1445,-24.1868"/>
</g>
<!-- Node23 -->
<g id="node24" class="node">
<title>Node23</title>
<polygon fill="none" stroke="#bfbfbf" points="1409,-.5 1409,-19.5 1462,-19.5 1462,-.5 1409,-.5"/>
<text text-anchor="middle" x="1435.5" y="-7.5" font-family="FreeSans.ttf" font-size="10.00" fill="#000000">iterator</text>
</g>
<!-- Node19&#45;&gt;Node23 -->
<g id="edge27" class="edge">
<title>Node19&#45;&gt;Node23</title>
<path fill="none" stroke="#191970" d="M1252.7132,-56.4736C1288.5677,-47.8981 1342.7184,-34.7471 1399.0012,-20.0762"/>
<polygon fill="#191970" stroke="#191970" points="1399.9994,-23.4329 1408.7876,-17.5153 1398.2272,-16.6609 1399.9994,-23.4329"/>
</g>
<!-- Node24 -->
<g id="node25" class="node">
<title>Node24</title>
<polygon fill="none" stroke="#bfbfbf" points="1057.5,-.5 1057.5,-19.5 1101.5,-19.5 1101.5,-.5 1057.5,-.5"/>
<text text-anchor="middle" x="1079.5" y="-7.5" font-family="FreeSans.ttf" font-size="10.00" fill="#000000">limits</text>
</g>
<!-- Node19&#45;&gt;Node24 -->
<g id="edge28" class="edge">
<title>Node19&#45;&gt;Node24</title>
<path fill="none" stroke="#191970" d="M1189.6365,-56.3733C1167.9645,-47.2482 1135.2221,-33.462 1111.0669,-23.2913"/>
<polygon fill="#191970" stroke="#191970" points="1112.1978,-19.9699 1101.6232,-19.315 1109.4814,-26.4214 1112.1978,-19.9699"/>
</g>
<!-- Node25 -->
<g id="node26" class="node">
<title>Node25</title>
<polygon fill="none" stroke="#bfbfbf" points="1120,-.5 1120,-19.5 1185,-19.5 1185,-.5 1120,-.5"/>
<text text-anchor="middle" x="1152.5" y="-7.5" font-family="FreeSans.ttf" font-size="10.00" fill="#000000">stdexcept</text>
</g>
<!-- Node19&#45;&gt;Node25 -->
<g id="edge29" class="edge">
<title>Node19&#45;&gt;Node25</title>
<path fill="none" stroke="#191970" d="M1202.0488,-56.2455C1193.2731,-48.0549 1180.5446,-36.1749 1170.186,-26.5069"/>
<polygon fill="#191970" stroke="#191970" points="1172.5301,-23.9072 1162.8314,-19.6427 1167.7539,-29.0246 1172.5301,-23.9072"/>
</g>
<!-- Node26 -->
<g id="node27" class="node">
<title>Node26</title>
<polygon fill="none" stroke="#bfbfbf" points="795,-.5 795,-19.5 864,-19.5 864,-.5 795,-.5"/>
<text text-anchor="middle" x="829.5" y="-7.5" font-family="FreeSans.ttf" font-size="10.00" fill="#000000">type_traits</text>
</g>
<!-- Node19&#45;&gt;Node26 -->
<g id="edge30" class="edge">
<title>Node19&#45;&gt;Node26</title>
<path fill="none" stroke="#191970" d="M1151.9823,-58.856C1084.9337,-50.6643 973.7028,-36.2531 878.5,-20 877.0558,-19.7534 875.589,-19.4959 874.109,-19.23"/>
<polygon fill="#191970" stroke="#191970" points="874.7207,-15.7838 864.2466,-17.3791 873.4295,-22.6637 874.7207,-15.7838"/>
</g>
<!-- Node27 -->
<g id="node28" class="node">
<title>Node27</title>
<polygon fill="none" stroke="#bfbfbf" points="1203,-.5 1203,-19.5 1248,-19.5 1248,-.5 1203,-.5"/>
<text text-anchor="middle" x="1225.5" y="-7.5" font-family="FreeSans.ttf" font-size="10.00" fill="#000000">utility</text>
</g>
<!-- Node19&#45;&gt;Node27 -->
<g id="edge31" class="edge">
<title>Node19&#45;&gt;Node27</title>
<path fill="none" stroke="#191970" d="M1214.7644,-56.2455C1216.4794,-48.8579 1218.8912,-38.4689 1220.9944,-29.4087"/>
<polygon fill="#191970" stroke="#191970" points="1224.4095,-30.1751 1223.2615,-19.6427 1217.5908,-28.5922 1224.4095,-30.1751"/>
</g>
<!-- Node29&#45;&gt;Node5 -->
<g id="edge39" class="edge">
<title>Node29&#45;&gt;Node5</title>
<path fill="none" stroke="#191970" d="M787.8702,-280.4862C742.0557,-252.5991 607.8238,-170.8927 552.143,-137.0001"/>
<polygon fill="#191970" stroke="#191970" points="553.6623,-133.8275 543.3004,-131.6177 550.0226,-139.8069 553.6623,-133.8275"/>
</g>
<!-- Node29&#45;&gt;Node15 -->
<g id="edge56" class="edge">
<title>Node29&#45;&gt;Node15</title>
<path fill="none" stroke="#191970" d="M872.3003,-283.5491C952.1135,-275.3572 1074.6089,-260.313 1088.5,-244 1101.1998,-229.0861 1086.7326,-208.7977 1072.7333,-194.6672"/>
<polygon fill="#191970" stroke="#191970" points="1074.8501,-191.8518 1065.1796,-187.5237 1070.0404,-196.9377 1074.8501,-191.8518"/>
</g>
<!-- Node30 -->
<g id="node31" class="node">
<title>Node30</title>
<g id="a_node31"><a xlink:href="GeomVector3_8h.html" target="_top" xlink:title="iDynTree/Core/GeomVector3.h">
<polygon fill="none" stroke="#000000" points="916,-224.5 916,-243.5 1079,-243.5 1079,-224.5 916,-224.5"/>
<text text-anchor="middle" x="997.5" y="-231.5" font-family="FreeSans.ttf" font-size="10.00" fill="#000000">iDynTree/Core/GeomVector3.h</text>
</a>
</g>
</g>
<!-- Node29&#45;&gt;Node30 -->
<g id="edge40" class="edge">
<title>Node29&#45;&gt;Node30</title>
<path fill="none" stroke="#191970" d="M836.8498,-280.3733C869.528,-270.9404 919.4618,-256.5265 954.977,-246.2747"/>
<polygon fill="#191970" stroke="#191970" points="955.9484,-249.6373 964.5854,-243.5011 954.007,-242.9119 955.9484,-249.6373"/>
</g>
<!-- Node31 -->
<g id="node32" class="node">
<title>Node31</title>
<g id="a_node32"><a xlink:href="RotationRaw_8h.html" target="_top" xlink:title="iDynTree/Core/RotationRaw.h">
<polygon fill="none" stroke="#000000" points="739.5,-224.5 739.5,-243.5 897.5,-243.5 897.5,-224.5 739.5,-224.5"/>
<text text-anchor="middle" x="818.5" y="-231.5" font-family="FreeSans.ttf" font-size="10.00" fill="#000000">iDynTree/Core/RotationRaw.h</text>
</a>
</g>
</g>
<!-- Node29&#45;&gt;Node31 -->
<g id="edge42" class="edge">
<title>Node29&#45;&gt;Node31</title>
<path fill="none" stroke="#191970" d="M806.1128,-280.2455C808.0916,-272.8579 810.8744,-262.4689 813.3012,-253.4087"/>
<polygon fill="#191970" stroke="#191970" points="816.7105,-254.2078 815.9171,-243.6427 809.9489,-252.3966 816.7105,-254.2078"/>
</g>
<!-- Node30&#45;&gt;Node15 -->
<g id="edge41" class="edge">
<title>Node30&#45;&gt;Node15</title>
<path fill="none" stroke="#191970" d="M1007.2545,-224.2455C1015.3648,-216.1352 1027.0925,-204.4075 1036.7081,-194.7919"/>
<polygon fill="#191970" stroke="#191970" points="1039.2611,-197.1887 1043.8573,-187.6427 1034.3113,-192.2389 1039.2611,-197.1887"/>
</g>
<!-- Node31&#45;&gt;Node5 -->
<g id="edge55" class="edge">
<title>Node31&#45;&gt;Node5</title>
<path fill="none" stroke="#191970" d="M807.9175,-224.3495C791.5031,-209.9048 758.3613,-182.7828 725.5,-168 696.1158,-154.7814 607.9122,-137.0163 559.7494,-127.916"/>
<polygon fill="#191970" stroke="#191970" points="560.307,-124.4596 549.8334,-126.0579 559.0177,-131.3398 560.307,-124.4596"/>
</g>
<!-- Node31&#45;&gt;Node32 -->
<g id="edge43" class="edge">
<title>Node31&#45;&gt;Node32</title>
<path fill="none" stroke="#191970" d="M825.4675,-224.2455C831.0311,-216.4564 838.978,-205.3308 845.6829,-195.9439"/>
<polygon fill="#191970" stroke="#191970" points="848.648,-197.8144 851.6124,-187.6427 842.9519,-193.7457 848.648,-197.8144"/>
</g>
<!-- Node32&#45;&gt;Node5 -->
<g id="edge52" class="edge">
<title>Node32&#45;&gt;Node5</title>
<path fill="none" stroke="#191970" d="M801.9752,-168.4369C732.2426,-156.6392 616.0456,-136.9805 559.8702,-127.4765"/>
<polygon fill="#191970" stroke="#191970" points="560.2291,-123.9876 549.7853,-125.7703 559.0613,-130.8895 560.2291,-123.9876"/>
</g>
<!-- Node32&#45;&gt;Node11 -->
<g id="edge54" class="edge">
<title>Node32&#45;&gt;Node11</title>
<path fill="none" stroke="#191970" d="M892.0217,-168.3733C926.4609,-158.483 979.9673,-143.1171 1015.8444,-132.8139"/>
<polygon fill="#191970" stroke="#191970" points="1016.8202,-136.1752 1025.4656,-130.0509 1014.888,-129.4472 1016.8202,-136.1752"/>
</g>
<!-- Node32&#45;&gt;Node16 -->
<g id="edge44" class="edge">
<title>Node32&#45;&gt;Node16</title>
<path fill="none" stroke="#191970" d="M873.3689,-168.3992C885.0814,-160.0994 900.9727,-147.0814 910.5,-132 919.4444,-117.8414 924.2934,-99.3521 926.8485,-85.5461"/>
<polygon fill="#191970" stroke="#191970" points="930.3077,-86.0791 928.4403,-75.6502 923.3965,-84.9674 930.3077,-86.0791"/>
</g>
<!-- Node32&#45;&gt;Node20 -->
<g id="edge50" class="edge">
<title>Node32&#45;&gt;Node20</title>
<path fill="none" stroke="#191970" d="M786.447,-168.4906C721.5895,-159.1923 634.889,-144.6302 624.5,-132 590.7879,-91.0155 663.5884,-46.2595 707.8053,-24.0846"/>
<polygon fill="#191970" stroke="#191970" points="709.5766,-27.1146 717.0236,-19.5785 706.5024,-20.8258 709.5766,-27.1146"/>
</g>
<!-- Node32&#45;&gt;Node28 -->
<g id="edge51" class="edge">
<title>Node32&#45;&gt;Node28</title>
<path fill="none" stroke="#191970" d="M879.8164,-168.3733C899.7216,-159.3838 929.6436,-145.8706 952.06,-135.7471"/>
<polygon fill="#191970" stroke="#191970" points="953.7887,-138.8068 961.4618,-131.5011 950.9075,-132.4272 953.7887,-138.8068"/>
</g>
<!-- Node33 -->
<g id="node34" class="node">
<title>Node33</title>
<g id="a_node34"><a xlink:href="MatrixView_8h.html" target="_top" xlink:title="iDynTree/Core/MatrixView.h">
<polygon fill="none" stroke="#000000" points="750,-112.5 750,-131.5 901,-131.5 901,-112.5 750,-112.5"/>
<text text-anchor="middle" x="825.5" y="-119.5" font-family="FreeSans.ttf" font-size="10.00" fill="#000000">iDynTree/Core/MatrixView.h</text>
</a>
</g>
</g>
<!-- Node32&#45;&gt;Node33 -->
<g id="edge45" class="edge">
<title>Node32&#45;&gt;Node33</title>
<path fill="none" stroke="#191970" d="M852.7518,-168.2455C848.2565,-160.617 841.8752,-149.7881 836.4175,-140.5267"/>
<polygon fill="#191970" stroke="#191970" points="839.2747,-138.4811 831.1823,-131.6427 833.2439,-142.035 839.2747,-138.4811"/>
</g>
<!-- Node34 -->
<g id="node35" class="node">
<title>Node34</title>
<polygon fill="none" stroke="#bfbfbf" points="633.5,-112.5 633.5,-131.5 693.5,-131.5 693.5,-112.5 633.5,-112.5"/>
<text text-anchor="middle" x="663.5" y="-119.5" font-family="FreeSans.ttf" font-size="10.00" fill="#000000">iostream</text>
</g>
<!-- Node32&#45;&gt;Node34 -->
<g id="edge53" class="edge">
<title>Node32&#45;&gt;Node34</title>
<path fill="none" stroke="#191970" d="M824.9783,-168.3733C791.2358,-158.6831 739.1899,-143.7366 703.3544,-133.4454"/>
<polygon fill="#191970" stroke="#191970" points="704.2832,-130.0707 693.7056,-130.6744 702.351,-136.7987 704.2832,-130.0707"/>
</g>
<!-- Node33&#45;&gt;Node16 -->
<g id="edge49" class="edge">
<title>Node33&#45;&gt;Node16</title>
<path fill="none" stroke="#191970" d="M843.6154,-112.2455C859.945,-103.4527 884.171,-90.4079 902.7339,-80.4125"/>
<polygon fill="#191970" stroke="#191970" points="904.4468,-83.4654 911.5922,-75.6427 901.1281,-77.3021 904.4468,-83.4654"/>
</g>
<!-- Node33&#45;&gt;Node19 -->
<g id="edge48" class="edge">
<title>Node33&#45;&gt;Node19</title>
<path fill="none" stroke="#191970" d="M891.5879,-112.4369C961.1358,-102.3731 1070.2144,-86.5891 1141.5428,-76.2677"/>
<polygon fill="#191970" stroke="#191970" points="1142.3879,-79.682 1151.7836,-74.7858 1141.3854,-72.7541 1142.3879,-79.682"/>
</g>
<!-- Node33&#45;&gt;Node20 -->
<g id="edge46" class="edge">
<title>Node33&#45;&gt;Node20</title>
<path fill="none" stroke="#191970" d="M818.0824,-112.4509C803.4435,-93.6054 770.6472,-51.3849 752.0486,-27.4419"/>
<polygon fill="#191970" stroke="#191970" points="754.7974,-25.2751 745.8988,-19.5249 749.2693,-29.5693 754.7974,-25.2751"/>
</g>
<!-- Node33&#45;&gt;Node26 -->
<g id="edge47" class="edge">
<title>Node33&#45;&gt;Node26</title>
<path fill="none" stroke="#191970" d="M825.841,-112.4509C826.4934,-94.184 827.9302,-53.9553 828.7965,-29.6976"/>
<polygon fill="#191970" stroke="#191970" points="832.3006,-29.6435 829.1598,-19.5249 825.305,-29.3936 832.3006,-29.6435"/>
</g>
<!-- Node36&#45;&gt;Node5 -->
<g id="edge64" class="edge">
<title>Node36&#45;&gt;Node5</title>
<path fill="none" stroke="#191970" d="M328.7818,-280.311C339.2932,-257.5685 368.5303,-200.2583 409.5,-168 434.8564,-148.0351 469.9267,-135.8424 495.2366,-129.0725"/>
<polygon fill="#191970" stroke="#191970" points="496.2565,-132.4248 505.0913,-126.577 494.538,-125.639 496.2565,-132.4248"/>
</g>
</g>
</svg>
