<?xml version="1.0" encoding="UTF-8" standalone="no"?>
<!DOCTYPE svg PUBLIC "-//W3C//DTD SVG 1.1//EN"
 "http://www.w3.org/Graphics/SVG/1.1/DTD/svg11.dtd">
<!-- Generated by graphviz version 2.40.1 (20161225.0304)
 -->
<!-- Title: Position.cpp Pages: 1 -->
<svg width="1384pt" height="599pt"
 viewBox="0.00 0.00 1384.00 599.00" xmlns="http://www.w3.org/2000/svg" xmlns:xlink="http://www.w3.org/1999/xlink">
<g id="graph0" class="graph" transform="scale(1 1) rotate(0) translate(4 595)">
<title>Position.cpp</title>
<!-- Node0 -->
<g id="node1" class="node">
<title>Node0</title>
<polygon fill="#bfbfbf" stroke="#000000" points="579,-571.5 579,-590.5 655,-590.5 655,-571.5 579,-571.5"/>
<text text-anchor="middle" x="617" y="-578.5" font-family="FreeSans.ttf" font-size="10.00" fill="#000000">Position.cpp</text>
</g>
<!-- Node1 -->
<g id="node2" class="node">
<title>Node1</title>
<g id="a_node2"><a xlink:href="Position_8h.html" target="_top" xlink:title="iDynTree/Core/Position.h">
<polygon fill="none" stroke="#000000" points="903,-336.5 903,-355.5 1039,-355.5 1039,-336.5 903,-336.5"/>
<text text-anchor="middle" x="971" y="-343.5" font-family="FreeSans.ttf" font-size="10.00" fill="#000000">iDynTree/Core/Position.h</text>
</a>
</g>
</g>
<!-- Node0&#45;&gt;Node1 -->
<g id="edge1" class="edge">
<title>Node0&#45;&gt;Node1</title>
<path fill="none" stroke="#191970" d="M655.2137,-580.0876C729.489,-577.5799 889.7622,-568.3498 932,-535 978.1841,-498.5343 969.9125,-469.7909 981,-412 983.9683,-396.5282 980.9646,-378.8778 977.4942,-365.725"/>
<polygon fill="#191970" stroke="#191970" points="980.7767,-364.4821 974.5902,-355.8811 974.0628,-366.4628 980.7767,-364.4821"/>
</g>
<!-- Node4 -->
<g id="node5" class="node">
<title>Node4</title>
<g id="a_node5"><a xlink:href="Utils_8h.html" target="_top" xlink:title="iDynTree/Core/Utils.h">
<polygon fill="none" stroke="#000000" points="51.5,-56.5 51.5,-75.5 170.5,-75.5 170.5,-56.5 51.5,-56.5"/>
<text text-anchor="middle" x="111" y="-63.5" font-family="FreeSans.ttf" font-size="10.00" fill="#000000">iDynTree/Core/Utils.h</text>
</a>
</g>
</g>
<!-- Node0&#45;&gt;Node4 -->
<g id="edge64" class="edge">
<title>Node0&#45;&gt;Node4</title>
<path fill="none" stroke="#191970" d="M578.5745,-580.0707C456.5254,-576.8284 83.0496,-564.5657 38,-535 7.9138,-515.2546 0,-499.487 0,-463.5 0,-463.5 0,-463.5 0,-178 0,-132.029 47.7604,-98.1769 80.624,-80.325"/>
<polygon fill="#191970" stroke="#191970" points="82.6111,-83.2362 89.8605,-75.5099 79.3751,-77.0291 82.6111,-83.2362"/>
</g>
<!-- Node8 -->
<g id="node9" class="node">
<title>Node8</title>
<polygon fill="none" stroke="#bfbfbf" points="764,-.5 764,-19.5 816,-19.5 816,-.5 764,-.5"/>
<text text-anchor="middle" x="790" y="-7.5" font-family="FreeSans.ttf" font-size="10.00" fill="#000000">cassert</text>
</g>
<!-- Node0&#45;&gt;Node8 -->
<g id="edge84" class="edge">
<title>Node0&#45;&gt;Node8</title>
<path fill="none" stroke="#191970" d="M655.1591,-579.1696C809.0714,-571.2887 1376,-537.254 1376,-463.5 1376,-463.5 1376,-463.5 1376,-234 1376,-51.9144 1173.0581,-126.098 998,-76 937.0956,-58.5704 867.013,-35.7519 825.7263,-22.0204"/>
<polygon fill="#191970" stroke="#191970" points="826.716,-18.661 816.1223,-18.8172 824.5012,-25.3014 826.716,-18.661"/>
</g>
<!-- Node17 -->
<g id="node18" class="node">
<title>Node17</title>
<polygon fill="none" stroke="#bfbfbf" points="245,-112.5 245,-131.5 301,-131.5 301,-112.5 245,-112.5"/>
<text text-anchor="middle" x="273" y="-119.5" font-family="FreeSans.ttf" font-size="10.00" fill="#000000">sstream</text>
</g>
<!-- Node0&#45;&gt;Node17 -->
<g id="edge86" class="edge">
<title>Node0&#45;&gt;Node17</title>
<path fill="none" stroke="#191970" d="M578.7039,-580.3713C458.9088,-578.0627 96.8931,-568.3643 57,-535 31.7778,-513.9056 38,-496.3806 38,-463.5 38,-463.5 38,-463.5 38,-402 38,-273.424 185.1855,-172.9893 246.59,-136.6835"/>
<polygon fill="#191970" stroke="#191970" points="248.4468,-139.6526 255.3368,-131.6041 244.9315,-133.5993 248.4468,-139.6526"/>
</g>
<!-- Node19 -->
<g id="node20" class="node">
<title>Node19</title>
<g id="a_node20"><a xlink:href="Rotation_8h.html" target="_top" xlink:title="iDynTree/Core/Rotation.h">
<polygon fill="none" stroke="#000000" points="708.5,-280.5 708.5,-299.5 845.5,-299.5 845.5,-280.5 708.5,-280.5"/>
<text text-anchor="middle" x="777" y="-287.5" font-family="FreeSans.ttf" font-size="10.00" fill="#000000">iDynTree/Core/Rotation.h</text>
</a>
</g>
</g>
<!-- Node0&#45;&gt;Node19 -->
<g id="edge43" class="edge">
<title>Node0&#45;&gt;Node19</title>
<path fill="none" stroke="#191970" d="M655.0177,-577.5204C728.3132,-570.4268 883.3572,-553.4012 899,-535 904.7573,-528.2275 901.4562,-523.5428 899,-515 889.2885,-481.2236 879.613,-474.9038 857,-448 841.6109,-429.6908 830.0554,-432.0401 817,-412 795.8979,-379.6082 785.029,-335.1095 780.2133,-309.7761"/>
<polygon fill="#191970" stroke="#191970" points="783.601,-308.8343 778.4115,-299.5974 776.7082,-310.0544 783.601,-308.8343"/>
</g>
<!-- Node24 -->
<g id="node25" class="node">
<title>Node24</title>
<polygon fill="none" stroke="#bfbfbf" points="641,-112.5 641,-131.5 701,-131.5 701,-112.5 641,-112.5"/>
<text text-anchor="middle" x="671" y="-119.5" font-family="FreeSans.ttf" font-size="10.00" fill="#000000">iostream</text>
</g>
<!-- Node0&#45;&gt;Node24 -->
<g id="edge85" class="edge">
<title>Node0&#45;&gt;Node24</title>
<path fill="none" stroke="#191970" d="M655.2102,-580.0366C733.0977,-577.4035 906.9245,-567.9071 955,-535 1071.5943,-455.1926 1061.6841,-383.6749 1083,-244 1084.341,-235.2128 1088.8125,-230.7251 1083,-224 1046.8721,-182.2003 890.3654,-202.3032 837,-188 787.4549,-174.7207 732.641,-151.0521 700.0458,-135.9609"/>
<polygon fill="#191970" stroke="#191970" points="701.2145,-132.6436 690.6738,-131.5738 698.2468,-138.9834 701.2145,-132.6436"/>
</g>
<!-- Node25 -->
<g id="node26" class="node">
<title>Node25</title>
<g id="a_node26"><a xlink:href="Twist_8h.html" target="_top" xlink:title="iDynTree/Core/Twist.h">
<polygon fill="none" stroke="#000000" points="66,-515.5 66,-534.5 188,-534.5 188,-515.5 66,-515.5"/>
<text text-anchor="middle" x="127" y="-522.5" font-family="FreeSans.ttf" font-size="10.00" fill="#000000">iDynTree/Core/Twist.h</text>
</a>
</g>
</g>
<!-- Node0&#45;&gt;Node25 -->
<g id="edge44" class="edge">
<title>Node0&#45;&gt;Node25</title>
<path fill="none" stroke="#191970" d="M578.7302,-577.233C506.5082,-570.032 344.9298,-553.4849 198.1598,-535.1134"/>
<polygon fill="#191970" stroke="#191970" points="198.4261,-531.6194 188.0675,-533.8442 197.5526,-538.5647 198.4261,-531.6194"/>
</g>
<!-- Node28 -->
<g id="node29" class="node">
<title>Node28</title>
<g id="a_node29"><a xlink:href="Wrench_8h.html" target="_top" xlink:title="iDynTree/Core/Wrench.h">
<polygon fill="none" stroke="#000000" points="372.5,-515.5 372.5,-534.5 505.5,-534.5 505.5,-515.5 372.5,-515.5"/>
<text text-anchor="middle" x="439" y="-522.5" font-family="FreeSans.ttf" font-size="10.00" fill="#000000">iDynTree/Core/Wrench.h</text>
</a>
</g>
</g>
<!-- Node0&#45;&gt;Node28 -->
<g id="edge55" class="edge">
<title>Node0&#45;&gt;Node28</title>
<path fill="none" stroke="#191970" d="M586.4007,-571.3733C556.6739,-562.021 511.3841,-547.7725 478.8544,-537.5385"/>
<polygon fill="#191970" stroke="#191970" points="479.7895,-534.1636 469.2,-534.5011 477.6887,-540.8409 479.7895,-534.1636"/>
</g>
<!-- Node30 -->
<g id="node31" class="node">
<title>Node30</title>
<g id="a_node31"><a xlink:href="SpatialAcc_8h.html" target="_top" xlink:title="iDynTree/Core/SpatialAcc.h">
<polygon fill="none" stroke="#000000" points="206,-515.5 206,-534.5 354,-534.5 354,-515.5 206,-515.5"/>
<text text-anchor="middle" x="280" y="-522.5" font-family="FreeSans.ttf" font-size="10.00" fill="#000000">iDynTree/Core/SpatialAcc.h</text>
</a>
</g>
</g>
<!-- Node0&#45;&gt;Node30 -->
<g id="edge60" class="edge">
<title>Node0&#45;&gt;Node30</title>
<path fill="none" stroke="#191970" d="M578.9969,-574.6849C522.8036,-565.3472 416.7188,-547.7188 347.2066,-536.1679"/>
<polygon fill="#191970" stroke="#191970" points="347.6648,-532.6961 337.2263,-534.5094 346.5173,-539.6014 347.6648,-532.6961"/>
</g>
<!-- Node31 -->
<g id="node32" class="node">
<title>Node31</title>
<g id="a_node32"><a xlink:href="SpatialMomentum_8h.html" target="_top" xlink:title="iDynTree/Core/SpatialMomentum.h">
<polygon fill="none" stroke="#000000" points="524,-515.5 524,-534.5 710,-534.5 710,-515.5 524,-515.5"/>
<text text-anchor="middle" x="617" y="-522.5" font-family="FreeSans.ttf" font-size="10.00" fill="#000000">iDynTree/Core/SpatialMomentum.h</text>
</a>
</g>
</g>
<!-- Node0&#45;&gt;Node31 -->
<g id="edge62" class="edge">
<title>Node0&#45;&gt;Node31</title>
<path fill="none" stroke="#191970" d="M617,-571.2455C617,-563.9382 617,-553.6944 617,-544.7046"/>
<polygon fill="#191970" stroke="#191970" points="620.5001,-544.6426 617,-534.6427 613.5001,-544.6427 620.5001,-544.6426"/>
</g>
<!-- Node32 -->
<g id="node33" class="node">
<title>Node32</title>
<g id="a_node33"><a xlink:href="EigenHelpers_8h.html" target="_top" xlink:title="iDynTree/Core/EigenHelpers.h">
<polygon fill="none" stroke="#000000" points="728.5,-515.5 728.5,-534.5 889.5,-534.5 889.5,-515.5 728.5,-515.5"/>
<text text-anchor="middle" x="809" y="-522.5" font-family="FreeSans.ttf" font-size="10.00" fill="#000000">iDynTree/Core/EigenHelpers.h</text>
</a>
</g>
</g>
<!-- Node0&#45;&gt;Node32 -->
<g id="edge65" class="edge">
<title>Node0&#45;&gt;Node32</title>
<path fill="none" stroke="#191970" d="M650.006,-571.3733C682.2091,-561.9807 731.3442,-547.6496 766.4639,-537.4064"/>
<polygon fill="#191970" stroke="#191970" points="767.8047,-540.6612 776.4247,-534.5011 765.8447,-533.9412 767.8047,-540.6612"/>
</g>
<!-- Node2 -->
<g id="node3" class="node">
<title>Node2</title>
<g id="a_node3"><a xlink:href="PositionRaw_8h.html" target="_top" xlink:title="iDynTree/Core/PositionRaw.h">
<polygon fill="none" stroke="#000000" points="918,-224.5 918,-243.5 1074,-243.5 1074,-224.5 918,-224.5"/>
<text text-anchor="middle" x="996" y="-231.5" font-family="FreeSans.ttf" font-size="10.00" fill="#000000">iDynTree/Core/PositionRaw.h</text>
</a>
</g>
</g>
<!-- Node1&#45;&gt;Node2 -->
<g id="edge2" class="edge">
<title>Node1&#45;&gt;Node2</title>
<path fill="none" stroke="#191970" d="M973.1315,-336.4509C977.2274,-318.1013 986.2699,-277.5908 991.6765,-253.3693"/>
<polygon fill="#191970" stroke="#191970" points="995.1112,-254.0472 993.8739,-243.5249 988.2794,-252.5222 995.1112,-254.0472"/>
</g>
<!-- Node16 -->
<g id="node17" class="node">
<title>Node16</title>
<polygon fill="none" stroke="#bfbfbf" points="1018,-112.5 1018,-131.5 1062,-131.5 1062,-112.5 1018,-112.5"/>
<text text-anchor="middle" x="1040" y="-119.5" font-family="FreeSans.ttf" font-size="10.00" fill="#000000">string</text>
</g>
<!-- Node1&#45;&gt;Node16 -->
<g id="edge42" class="edge">
<title>Node1&#45;&gt;Node16</title>
<path fill="none" stroke="#191970" d="M988.8157,-336.3337C1015.208,-320.8656 1063.6553,-287.7821 1083,-244 1098.9351,-207.9346 1072.7878,-163.9552 1054.7851,-139.8804"/>
<polygon fill="#191970" stroke="#191970" points="1057.301,-137.4153 1048.3889,-131.6861 1051.783,-141.7225 1057.301,-137.4153"/>
</g>
<!-- Node1&#45;&gt;Node19 -->
<g id="edge23" class="edge">
<title>Node1&#45;&gt;Node19</title>
<path fill="none" stroke="#191970" d="M937.6502,-336.3733C904.972,-326.9404 855.0382,-312.5265 819.523,-302.2747"/>
<polygon fill="#191970" stroke="#191970" points="820.493,-298.9119 809.9146,-299.5011 818.5516,-305.6373 820.493,-298.9119"/>
</g>
<!-- Node3 -->
<g id="node4" class="node">
<title>Node3</title>
<g id="a_node4"><a xlink:href="VectorFixSize_8h.html" target="_top" xlink:title="iDynTree/Core/VectorFixSize.h">
<polygon fill="none" stroke="#000000" points="372.5,-168.5 372.5,-187.5 533.5,-187.5 533.5,-168.5 372.5,-168.5"/>
<text text-anchor="middle" x="453" y="-175.5" font-family="FreeSans.ttf" font-size="10.00" fill="#000000">iDynTree/Core/VectorFixSize.h</text>
</a>
</g>
</g>
<!-- Node2&#45;&gt;Node3 -->
<g id="edge3" class="edge">
<title>Node2&#45;&gt;Node3</title>
<path fill="none" stroke="#191970" d="M917.9124,-225.9468C818.9324,-215.7389 648.6179,-198.1742 543.8989,-187.3745"/>
<polygon fill="#191970" stroke="#191970" points="543.9671,-183.863 533.6608,-186.3186 543.249,-190.8261 543.9671,-183.863"/>
</g>
<!-- Node2&#45;&gt;Node16 -->
<g id="edge22" class="edge">
<title>Node2&#45;&gt;Node16</title>
<path fill="none" stroke="#191970" d="M1015.8241,-224.3695C1029.3215,-216.6136 1046.1157,-204.3161 1054,-188 1061.1476,-173.2085 1056.2616,-154.8148 1050.3819,-141.2053"/>
<polygon fill="#191970" stroke="#191970" points="1053.3744,-139.3534 1045.8749,-131.8696 1047.0706,-142.3967 1053.3744,-139.3534"/>
</g>
<!-- Node3&#45;&gt;Node4 -->
<g id="edge4" class="edge">
<title>Node3&#45;&gt;Node4</title>
<path fill="none" stroke="#191970" d="M435.4271,-168.4516C408.9206,-154.3839 356.8239,-128.0272 310,-112 266.1756,-96.9995 215.2612,-85.3304 175.9031,-77.4985"/>
<polygon fill="#191970" stroke="#191970" points="176.3859,-74.0267 165.8998,-75.5409 175.0414,-80.8964 176.3859,-74.0267"/>
</g>
<!-- Node5 -->
<g id="node6" class="node">
<title>Node5</title>
<polygon fill="none" stroke="#bfbfbf" points="282.5,-.5 282.5,-19.5 335.5,-19.5 335.5,-.5 282.5,-.5"/>
<text text-anchor="middle" x="309" y="-7.5" font-family="FreeSans.ttf" font-size="10.00" fill="#000000">cstddef</text>
</g>
<!-- Node3&#45;&gt;Node5 -->
<g id="edge20" class="edge">
<title>Node3&#45;&gt;Node5</title>
<path fill="none" stroke="#191970" d="M444.8453,-168.4862C421.5896,-141.3545 354.6684,-63.2798 324.3065,-27.8576"/>
<polygon fill="#191970" stroke="#191970" points="326.5893,-25.1427 317.4239,-19.8279 321.2744,-29.6983 326.5893,-25.1427"/>
</g>
<!-- Node7 -->
<g id="node8" class="node">
<title>Node7</title>
<g id="a_node8"><a xlink:href="Span_8h.html" target="_top" xlink:title="iDynTree/Core/Span.h">
<polygon fill="none" stroke="#000000" points="1006.5,-56.5 1006.5,-75.5 1127.5,-75.5 1127.5,-56.5 1006.5,-56.5"/>
<text text-anchor="middle" x="1067" y="-63.5" font-family="FreeSans.ttf" font-size="10.00" fill="#000000">iDynTree/Core/Span.h</text>
</a>
</g>
</g>
<!-- Node3&#45;&gt;Node7 -->
<g id="edge7" class="edge">
<title>Node3&#45;&gt;Node7</title>
<path fill="none" stroke="#191970" d="M459.4406,-168.2523C470.0331,-153.1541 492.703,-124.5483 520,-112 562.2378,-92.5834 857.8497,-76.0426 996.0676,-69.2732"/>
<polygon fill="#191970" stroke="#191970" points="996.324,-72.7649 1006.1422,-68.7834 995.984,-65.7732 996.324,-72.7649"/>
</g>
<!-- Node3&#45;&gt;Node8 -->
<g id="edge19" class="edge">
<title>Node3&#45;&gt;Node8</title>
<path fill="none" stroke="#191970" d="M455.5742,-168.476C459.9116,-154.1964 470.0139,-127.2872 488,-112 567.1244,-44.7489 692.5098,-21.2846 753.8278,-13.5488"/>
<polygon fill="#191970" stroke="#191970" points="754.2901,-17.0186 763.8051,-12.3587 753.461,-10.0679 754.2901,-17.0186"/>
</g>
<!-- Node3&#45;&gt;Node16 -->
<g id="edge17" class="edge">
<title>Node3&#45;&gt;Node16</title>
<path fill="none" stroke="#191970" d="M533.6585,-171.4737C671.6486,-160.2438 942.4255,-137.9008 986,-132 993.0463,-131.0458 1000.5699,-129.7989 1007.6949,-128.5108"/>
<polygon fill="#191970" stroke="#191970" points="1008.5641,-131.9088 1017.7464,-126.6234 1007.2722,-125.029 1008.5641,-131.9088"/>
</g>
<!-- Node3&#45;&gt;Node17 -->
<g id="edge18" class="edge">
<title>Node3&#45;&gt;Node17</title>
<path fill="none" stroke="#191970" d="M422.0569,-168.3733C391.2673,-158.7943 343.9676,-144.0788 310.933,-133.8014"/>
<polygon fill="#191970" stroke="#191970" points="311.7612,-130.3936 301.1729,-130.7649 309.6817,-137.0776 311.7612,-130.3936"/>
</g>
<!-- Node18 -->
<g id="node19" class="node">
<title>Node18</title>
<polygon fill="none" stroke="#bfbfbf" points="529,-112.5 529,-131.5 579,-131.5 579,-112.5 529,-112.5"/>
<text text-anchor="middle" x="554" y="-119.5" font-family="FreeSans.ttf" font-size="10.00" fill="#000000">cstring</text>
</g>
<!-- Node3&#45;&gt;Node18 -->
<g id="edge21" class="edge">
<title>Node3&#45;&gt;Node18</title>
<path fill="none" stroke="#191970" d="M470.5929,-168.2455C486.379,-159.4928 509.7639,-146.527 527.7587,-136.5496"/>
<polygon fill="#191970" stroke="#191970" points="529.5603,-139.5528 536.6087,-131.6427 526.1659,-133.4308 529.5603,-139.5528"/>
</g>
<!-- Node4&#45;&gt;Node5 -->
<g id="edge5" class="edge">
<title>Node4&#45;&gt;Node5</title>
<path fill="none" stroke="#191970" d="M145.0374,-56.3733C180.6129,-46.3115 236.2261,-30.5825 272.6439,-20.2825"/>
<polygon fill="#191970" stroke="#191970" points="273.704,-23.6201 282.374,-17.5306 271.7989,-16.8843 273.704,-23.6201"/>
</g>
<!-- Node6 -->
<g id="node7" class="node">
<title>Node6</title>
<polygon fill="none" stroke="#bfbfbf" points="71,-.5 71,-19.5 151,-19.5 151,-.5 71,-.5"/>
<text text-anchor="middle" x="111" y="-7.5" font-family="FreeSans.ttf" font-size="10.00" fill="#000000">CoreExport.h</text>
</g>
<!-- Node4&#45;&gt;Node6 -->
<g id="edge6" class="edge">
<title>Node4&#45;&gt;Node6</title>
<path fill="none" stroke="#191970" d="M111,-56.2455C111,-48.9382 111,-38.6944 111,-29.7046"/>
<polygon fill="#191970" stroke="#191970" points="114.5001,-29.6426 111,-19.6427 107.5001,-29.6427 114.5001,-29.6426"/>
</g>
<!-- Node7&#45;&gt;Node5 -->
<g id="edge11" class="edge">
<title>Node7&#45;&gt;Node5</title>
<path fill="none" stroke="#191970" d="M1006.251,-61.5119C855.5213,-50.3762 467.7831,-21.7307 346.1042,-12.7412"/>
<polygon fill="#191970" stroke="#191970" points="346.0587,-9.2284 335.8279,-11.982 345.5429,-16.2094 346.0587,-9.2284"/>
</g>
<!-- Node7&#45;&gt;Node8 -->
<g id="edge8" class="edge">
<title>Node7&#45;&gt;Node8</title>
<path fill="none" stroke="#191970" d="M1009.7491,-56.4411C960.7423,-47.9325 888.4215,-34.6008 826,-20 825.9013,-19.9769 825.8025,-19.9537 825.7035,-19.9305"/>
<polygon fill="#191970" stroke="#191970" points="826.8326,-16.6053 816.2818,-17.5696 825.1312,-23.3954 826.8326,-16.6053"/>
</g>
<!-- Node9 -->
<g id="node10" class="node">
<title>Node9</title>
<polygon fill="none" stroke="#bfbfbf" points="898,-.5 898,-19.5 962,-19.5 962,-.5 898,-.5"/>
<text text-anchor="middle" x="930" y="-7.5" font-family="FreeSans.ttf" font-size="10.00" fill="#000000">algorithm</text>
</g>
<!-- Node7&#45;&gt;Node9 -->
<g id="edge9" class="edge">
<title>Node7&#45;&gt;Node9</title>
<path fill="none" stroke="#191970" d="M1043.4489,-56.3733C1021.1609,-47.2629 987.5063,-33.5062 962.6363,-23.3404"/>
<polygon fill="#191970" stroke="#191970" points="963.8247,-20.0451 953.2438,-19.5011 961.1761,-26.5247 963.8247,-20.0451"/>
</g>
<!-- Node10 -->
<g id="node11" class="node">
<title>Node10</title>
<polygon fill="none" stroke="#bfbfbf" points="980,-.5 980,-19.5 1022,-19.5 1022,-.5 980,-.5"/>
<text text-anchor="middle" x="1001" y="-7.5" font-family="FreeSans.ttf" font-size="10.00" fill="#000000">array</text>
</g>
<!-- Node7&#45;&gt;Node10 -->
<g id="edge10" class="edge">
<title>Node7&#45;&gt;Node10</title>
<path fill="none" stroke="#191970" d="M1055.5037,-56.2455C1045.7558,-47.9746 1031.5741,-35.9416 1020.1202,-26.2232"/>
<polygon fill="#191970" stroke="#191970" points="1022.2541,-23.4437 1012.3646,-19.6427 1017.7253,-28.7813 1022.2541,-23.4437"/>
</g>
<!-- Node11 -->
<g id="node12" class="node">
<title>Node11</title>
<polygon fill="none" stroke="#bfbfbf" points="1040.5,-.5 1040.5,-19.5 1093.5,-19.5 1093.5,-.5 1040.5,-.5"/>
<text text-anchor="middle" x="1067" y="-7.5" font-family="FreeSans.ttf" font-size="10.00" fill="#000000">iterator</text>
</g>
<!-- Node7&#45;&gt;Node11 -->
<g id="edge12" class="edge">
<title>Node7&#45;&gt;Node11</title>
<path fill="none" stroke="#191970" d="M1067,-56.2455C1067,-48.9382 1067,-38.6944 1067,-29.7046"/>
<polygon fill="#191970" stroke="#191970" points="1070.5001,-29.6426 1067,-19.6427 1063.5001,-29.6427 1070.5001,-29.6426"/>
</g>
<!-- Node12 -->
<g id="node13" class="node">
<title>Node12</title>
<polygon fill="none" stroke="#bfbfbf" points="1112,-.5 1112,-19.5 1156,-19.5 1156,-.5 1112,-.5"/>
<text text-anchor="middle" x="1134" y="-7.5" font-family="FreeSans.ttf" font-size="10.00" fill="#000000">limits</text>
</g>
<!-- Node7&#45;&gt;Node12 -->
<g id="edge13" class="edge">
<title>Node7&#45;&gt;Node12</title>
<path fill="none" stroke="#191970" d="M1078.6705,-56.2455C1088.5661,-47.9746 1102.9627,-35.9416 1114.5901,-26.2232"/>
<polygon fill="#191970" stroke="#191970" points="1117.035,-28.7413 1122.4632,-19.6427 1112.5458,-23.3703 1117.035,-28.7413"/>
</g>
<!-- Node13 -->
<g id="node14" class="node">
<title>Node13</title>
<polygon fill="none" stroke="#bfbfbf" points="1174.5,-.5 1174.5,-19.5 1239.5,-19.5 1239.5,-.5 1174.5,-.5"/>
<text text-anchor="middle" x="1207" y="-7.5" font-family="FreeSans.ttf" font-size="10.00" fill="#000000">stdexcept</text>
</g>
<!-- Node7&#45;&gt;Node13 -->
<g id="edge14" class="edge">
<title>Node7&#45;&gt;Node13</title>
<path fill="none" stroke="#191970" d="M1091.0669,-56.3733C1113.8428,-47.2629 1148.2344,-33.5062 1173.649,-23.3404"/>
<polygon fill="#191970" stroke="#191970" points="1175.2623,-26.4648 1183.2472,-19.5011 1172.6625,-19.9654 1175.2623,-26.4648"/>
</g>
<!-- Node14 -->
<g id="node15" class="node">
<title>Node14</title>
<polygon fill="none" stroke="#bfbfbf" points="1257.5,-.5 1257.5,-19.5 1326.5,-19.5 1326.5,-.5 1257.5,-.5"/>
<text text-anchor="middle" x="1292" y="-7.5" font-family="FreeSans.ttf" font-size="10.00" fill="#000000">type_traits</text>
</g>
<!-- Node7&#45;&gt;Node14 -->
<g id="edge15" class="edge">
<title>Node7&#45;&gt;Node14</title>
<path fill="none" stroke="#191970" d="M1105.4232,-56.4369C1144.8471,-46.6247 1206.119,-31.3748 1247.5948,-21.052"/>
<polygon fill="#191970" stroke="#191970" points="1248.5685,-24.4165 1257.4271,-18.6048 1246.8778,-17.6237 1248.5685,-24.4165"/>
</g>
<!-- Node15 -->
<g id="node16" class="node">
<title>Node15</title>
<polygon fill="none" stroke="#bfbfbf" points="834.5,-.5 834.5,-19.5 879.5,-19.5 879.5,-.5 834.5,-.5"/>
<text text-anchor="middle" x="857" y="-7.5" font-family="FreeSans.ttf" font-size="10.00" fill="#000000">utility</text>
</g>
<!-- Node7&#45;&gt;Node15 -->
<g id="edge16" class="edge">
<title>Node7&#45;&gt;Node15</title>
<path fill="none" stroke="#191970" d="M1027.6078,-56.4203C993.4856,-47.9882 942.5933,-35.0926 889.3049,-19.9867"/>
<polygon fill="#191970" stroke="#191970" points="890.2601,-16.6196 879.6836,-17.2424 888.34,-23.3511 890.2601,-16.6196"/>
</g>
<!-- Node19&#45;&gt;Node3 -->
<g id="edge41" class="edge">
<title>Node19&#45;&gt;Node3</title>
<path fill="none" stroke="#191970" d="M749.3759,-280.4509C691.1521,-260.3242 555.8015,-213.5363 490.1017,-190.8253"/>
<polygon fill="#191970" stroke="#191970" points="491.1489,-187.4841 480.5541,-187.5249 488.8619,-194.1 491.1489,-187.4841"/>
</g>
<!-- Node19&#45;&gt;Node16 -->
<g id="edge24" class="edge">
<title>Node19&#45;&gt;Node16</title>
<path fill="none" stroke="#191970" d="M796.8893,-280.4762C815.9732,-271.2888 845.5654,-256.9132 871,-244 888.0176,-235.3601 891.395,-231.3697 909,-224 957.6211,-203.6466 985.5229,-226.0486 1022,-188 1033.7895,-175.7026 1038.0185,-156.4657 1039.4582,-141.9265"/>
<polygon fill="#191970" stroke="#191970" points="1042.953,-142.1185 1040.0944,-131.9166 1035.9671,-141.6744 1042.953,-142.1185"/>
</g>
<!-- Node20 -->
<g id="node21" class="node">
<title>Node20</title>
<g id="a_node21"><a xlink:href="GeomVector3_8h.html" target="_top" xlink:title="iDynTree/Core/GeomVector3.h">
<polygon fill="none" stroke="#000000" points="294.5,-224.5 294.5,-243.5 457.5,-243.5 457.5,-224.5 294.5,-224.5"/>
<text text-anchor="middle" x="376" y="-231.5" font-family="FreeSans.ttf" font-size="10.00" fill="#000000">iDynTree/Core/GeomVector3.h</text>
</a>
</g>
</g>
<!-- Node19&#45;&gt;Node20 -->
<g id="edge25" class="edge">
<title>Node19&#45;&gt;Node20</title>
<path fill="none" stroke="#191970" d="M708.5213,-280.4369C638.0189,-270.5912 528.3117,-255.2705 454.3827,-244.9462"/>
<polygon fill="#191970" stroke="#191970" points="454.5843,-241.4405 444.1963,-243.5237 453.6161,-248.3732 454.5843,-241.4405"/>
</g>
<!-- Node21 -->
<g id="node22" class="node">
<title>Node21</title>
<g id="a_node22"><a xlink:href="RotationRaw_8h.html" target="_top" xlink:title="iDynTree/Core/RotationRaw.h">
<polygon fill="none" stroke="#000000" points="704,-224.5 704,-243.5 862,-243.5 862,-224.5 704,-224.5"/>
<text text-anchor="middle" x="783" y="-231.5" font-family="FreeSans.ttf" font-size="10.00" fill="#000000">iDynTree/Core/RotationRaw.h</text>
</a>
</g>
</g>
<!-- Node19&#45;&gt;Node21 -->
<g id="edge27" class="edge">
<title>Node19&#45;&gt;Node21</title>
<path fill="none" stroke="#191970" d="M778.0451,-280.2455C778.828,-272.9382 779.9256,-262.6944 780.8888,-253.7046"/>
<polygon fill="#191970" stroke="#191970" points="784.3815,-253.9587 781.9669,-243.6427 777.4214,-253.2129 784.3815,-253.9587"/>
</g>
<!-- Node20&#45;&gt;Node3 -->
<g id="edge26" class="edge">
<title>Node20&#45;&gt;Node3</title>
<path fill="none" stroke="#191970" d="M389.4124,-224.2455C401.0057,-215.814 417.9748,-203.4729 431.4678,-193.6598"/>
<polygon fill="#191970" stroke="#191970" points="433.7126,-196.355 439.7413,-187.6427 429.5953,-190.6938 433.7126,-196.355"/>
</g>
<!-- Node21&#45;&gt;Node16 -->
<g id="edge40" class="edge">
<title>Node21&#45;&gt;Node16</title>
<path fill="none" stroke="#191970" d="M788.1835,-224.197C796.4588,-209.5531 814.0847,-182.1744 837,-168 851.4418,-159.0669 954.1186,-138.4523 1007.6708,-128.1266"/>
<polygon fill="#191970" stroke="#191970" points="1008.5242,-131.5267 1017.6855,-126.2051 1007.2052,-124.6521 1008.5242,-131.5267"/>
</g>
<!-- Node22 -->
<g id="node23" class="node">
<title>Node22</title>
<g id="a_node23"><a xlink:href="MatrixFixSize_8h.html" target="_top" xlink:title="iDynTree/Core/MatrixFixSize.h">
<polygon fill="none" stroke="#000000" points="590.5,-168.5 590.5,-187.5 751.5,-187.5 751.5,-168.5 590.5,-168.5"/>
<text text-anchor="middle" x="671" y="-175.5" font-family="FreeSans.ttf" font-size="10.00" fill="#000000">iDynTree/Core/MatrixFixSize.h</text>
</a>
</g>
</g>
<!-- Node21&#45;&gt;Node22 -->
<g id="edge28" class="edge">
<title>Node21&#45;&gt;Node22</title>
<path fill="none" stroke="#191970" d="M763.7465,-224.3733C745.9288,-215.4644 719.2253,-202.1127 699.0406,-192.0203"/>
<polygon fill="#191970" stroke="#191970" points="700.5118,-188.8428 690.0022,-187.5011 697.3813,-195.1038 700.5118,-188.8428"/>
</g>
<!-- Node22&#45;&gt;Node4 -->
<g id="edge29" class="edge">
<title>Node22&#45;&gt;Node4</title>
<path fill="none" stroke="#191970" d="M662.4501,-168.2858C648.545,-153.2336 619.4081,-124.6895 588,-112 515.9291,-82.8819 294.9308,-71.7635 180.8147,-67.8818"/>
<polygon fill="#191970" stroke="#191970" points="180.8917,-64.3825 170.7814,-67.5498 180.6602,-71.3787 180.8917,-64.3825"/>
</g>
<!-- Node22&#45;&gt;Node8 -->
<g id="edge35" class="edge">
<title>Node22&#45;&gt;Node8</title>
<path fill="none" stroke="#191970" d="M679.7276,-168.4155C687.8788,-159.3028 700.2221,-145.0831 710,-132 736.504,-96.5369 764.1114,-52.6239 778.9588,-28.3336"/>
<polygon fill="#191970" stroke="#191970" points="781.9643,-30.1273 784.1646,-19.7634 775.9816,-26.4932 781.9643,-30.1273"/>
</g>
<!-- Node22&#45;&gt;Node16 -->
<g id="edge37" class="edge">
<title>Node22&#45;&gt;Node16</title>
<path fill="none" stroke="#191970" d="M741.4923,-168.4889C805.4104,-159.6787 902.1671,-145.8783 986,-132 993.1606,-130.8146 1000.8375,-129.4499 1008.0906,-128.1174"/>
<polygon fill="#191970" stroke="#191970" points="1008.7747,-131.5503 1017.964,-126.2771 1007.492,-124.6688 1008.7747,-131.5503"/>
</g>
<!-- Node22&#45;&gt;Node17 -->
<g id="edge39" class="edge">
<title>Node22&#45;&gt;Node17</title>
<path fill="none" stroke="#191970" d="M603.0336,-168.4369C518.9466,-156.6056 378.6706,-136.8682 311.3458,-127.3954"/>
<polygon fill="#191970" stroke="#191970" points="311.5769,-123.8935 301.1867,-125.966 310.6015,-130.8252 311.5769,-123.8935"/>
</g>
<!-- Node22&#45;&gt;Node18 -->
<g id="edge36" class="edge">
<title>Node22&#45;&gt;Node18</title>
<path fill="none" stroke="#191970" d="M650.887,-168.3733C632.1897,-159.4241 604.1256,-145.9917 583.0066,-135.8835"/>
<polygon fill="#191970" stroke="#191970" points="584.3817,-132.6614 573.8506,-131.5011 581.3595,-138.9755 584.3817,-132.6614"/>
</g>
<!-- Node23 -->
<g id="node24" class="node">
<title>Node23</title>
<g id="a_node24"><a xlink:href="MatrixView_8h.html" target="_top" xlink:title="iDynTree/Core/MatrixView.h">
<polygon fill="none" stroke="#000000" points="825.5,-112.5 825.5,-131.5 976.5,-131.5 976.5,-112.5 825.5,-112.5"/>
<text text-anchor="middle" x="901" y="-119.5" font-family="FreeSans.ttf" font-size="10.00" fill="#000000">iDynTree/Core/MatrixView.h</text>
</a>
</g>
</g>
<!-- Node22&#45;&gt;Node23 -->
<g id="edge30" class="edge">
<title>Node22&#45;&gt;Node23</title>
<path fill="none" stroke="#191970" d="M710.2771,-168.4369C749.4744,-158.8932 809.8,-144.2052 852.0835,-133.9101"/>
<polygon fill="#191970" stroke="#191970" points="852.9968,-137.2901 861.8849,-131.5237 851.3408,-130.4888 852.9968,-137.2901"/>
</g>
<!-- Node22&#45;&gt;Node24 -->
<g id="edge38" class="edge">
<title>Node22&#45;&gt;Node24</title>
<path fill="none" stroke="#191970" d="M671,-168.2455C671,-160.9382 671,-150.6944 671,-141.7046"/>
<polygon fill="#191970" stroke="#191970" points="674.5001,-141.6426 671,-131.6427 667.5001,-141.6427 674.5001,-141.6426"/>
</g>
<!-- Node23&#45;&gt;Node4 -->
<g id="edge34" class="edge">
<title>Node23&#45;&gt;Node4</title>
<path fill="none" stroke="#191970" d="M825.2515,-116.6305C672.3207,-105.7898 328.6916,-81.4313 180.83,-70.95"/>
<polygon fill="#191970" stroke="#191970" points="180.7501,-67.4356 170.5276,-70.2197 180.255,-74.4181 180.7501,-67.4356"/>
</g>
<!-- Node23&#45;&gt;Node7 -->
<g id="edge33" class="edge">
<title>Node23&#45;&gt;Node7</title>
<path fill="none" stroke="#191970" d="M929.5364,-112.3733C957.0202,-103.1016 998.7686,-89.0178 1029.0452,-78.804"/>
<polygon fill="#191970" stroke="#191970" points="1030.4794,-82.0141 1038.836,-75.5011 1028.2418,-75.3813 1030.4794,-82.0141"/>
</g>
<!-- Node23&#45;&gt;Node8 -->
<g id="edge31" class="edge">
<title>Node23&#45;&gt;Node8</title>
<path fill="none" stroke="#191970" d="M891.5362,-112.4509C872.6951,-93.4401 830.2795,-50.6423 806.6659,-26.816"/>
<polygon fill="#191970" stroke="#191970" points="808.9651,-24.1639 799.4398,-19.5249 803.9932,-29.0914 808.9651,-24.1639"/>
</g>
<!-- Node23&#45;&gt;Node14 -->
<g id="edge32" class="edge">
<title>Node23&#45;&gt;Node14</title>
<path fill="none" stroke="#191970" d="M969.8376,-112.4946C1017.4162,-104.9789 1081.8255,-92.9181 1137,-76 1182.6698,-61.9963 1233.1552,-38.9973 1263.7228,-24.1805"/>
<polygon fill="#191970" stroke="#191970" points="1265.4741,-27.2201 1272.9162,-19.6792 1262.3958,-20.9333 1265.4741,-27.2201"/>
</g>
<!-- Node26 -->
<g id="node27" class="node">
<title>Node26</title>
<g id="a_node27"><a xlink:href="SpatialMotionVector_8h.html" target="_top" xlink:title="iDynTree/Core/SpatialMotion\lVector.h">
<polygon fill="none" stroke="#000000" points="218.5,-448.5 218.5,-478.5 373.5,-478.5 373.5,-448.5 218.5,-448.5"/>
<text text-anchor="start" x="226.5" y="-466.5" font-family="FreeSans.ttf" font-size="10.00" fill="#000000">iDynTree/Core/SpatialMotion</text>
<text text-anchor="middle" x="296" y="-455.5" font-family="FreeSans.ttf" font-size="10.00" fill="#000000">Vector.h</text>
</a>
</g>
</g>
<!-- Node25&#45;&gt;Node26 -->
<g id="edge45" class="edge">
<title>Node25&#45;&gt;Node26</title>
<path fill="none" stroke="#191970" d="M153.4063,-515.3906C177.8667,-506.4893 214.9149,-493.0073 245.1172,-482.0165"/>
<polygon fill="#191970" stroke="#191970" points="246.4577,-485.2533 254.6579,-478.5446 244.0639,-478.6753 246.4577,-485.2533"/>
</g>
<!-- Node26&#45;&gt;Node3 -->
<g id="edge46" class="edge">
<title>Node26&#45;&gt;Node3</title>
<path fill="none" stroke="#191970" d="M289.2362,-448.2944C272.0673,-407.1275 231.7955,-292.0361 285,-224 297.0211,-208.6278 339.6215,-197.0637 378.9127,-189.3751"/>
<polygon fill="#191970" stroke="#191970" points="379.6343,-192.8007 388.81,-187.5039 378.3339,-185.9226 379.6343,-192.8007"/>
</g>
<!-- Node26&#45;&gt;Node20 -->
<g id="edge47" class="edge">
<title>Node26&#45;&gt;Node20</title>
<path fill="none" stroke="#191970" d="M290.8483,-448.4945C286.5888,-433.8753 281.9851,-411.1209 287,-392 301.6302,-336.2174 340.8903,-279.3696 362.0429,-251.5408"/>
<polygon fill="#191970" stroke="#191970" points="364.8651,-253.6129 368.2202,-243.5633 359.3304,-249.3271 364.8651,-253.6129"/>
</g>
<!-- Node27 -->
<g id="node28" class="node">
<title>Node27</title>
<g id="a_node28"><a xlink:href="SpatialVector_8h.html" target="_top" xlink:title="iDynTree/Core/SpatialVector.h">
<polygon fill="none" stroke="#000000" points="296.5,-392.5 296.5,-411.5 457.5,-411.5 457.5,-392.5 296.5,-392.5"/>
<text text-anchor="middle" x="377" y="-399.5" font-family="FreeSans.ttf" font-size="10.00" fill="#000000">iDynTree/Core/SpatialVector.h</text>
</a>
</g>
</g>
<!-- Node26&#45;&gt;Node27 -->
<g id="edge48" class="edge">
<title>Node26&#45;&gt;Node27</title>
<path fill="none" stroke="#191970" d="M316.0225,-448.2977C328.086,-439.1384 343.4388,-427.4816 355.7211,-418.1562"/>
<polygon fill="#191970" stroke="#191970" points="358.1829,-420.6816 364.0309,-411.8469 353.9499,-415.1065 358.1829,-420.6816"/>
</g>
<!-- Node27&#45;&gt;Node1 -->
<g id="edge49" class="edge">
<title>Node27&#45;&gt;Node1</title>
<path fill="none" stroke="#191970" d="M457.7277,-394.3893C572.1181,-383.605 779.9951,-364.0072 892.9215,-353.3609"/>
<polygon fill="#191970" stroke="#191970" points="893.2543,-356.8452 902.8816,-352.4219 892.5972,-349.8761 893.2543,-356.8452"/>
</g>
<!-- Node27&#45;&gt;Node4 -->
<g id="edge51" class="edge">
<title>Node27&#45;&gt;Node4</title>
<path fill="none" stroke="#191970" d="M331.4891,-392.4339C256.2151,-375.2876 114,-336.712 114,-290 114,-290 114,-290 114,-178 114,-145.7 112.7378,-108.1791 111.8508,-85.8005"/>
<polygon fill="#191970" stroke="#191970" points="115.3387,-85.4334 111.4298,-75.5861 108.3447,-85.7217 115.3387,-85.4334"/>
</g>
<!-- Node27&#45;&gt;Node17 -->
<g id="edge54" class="edge">
<title>Node27&#45;&gt;Node17</title>
<path fill="none" stroke="#191970" d="M369.3515,-392.3714C351.0564,-368.7373 304.8203,-305.312 285,-244 273.8101,-209.3852 272.2133,-166.6051 272.3877,-141.9954"/>
<polygon fill="#191970" stroke="#191970" points="275.891,-141.8366 272.5727,-131.7748 268.8922,-141.7098 275.891,-141.8366"/>
</g>
<!-- Node27&#45;&gt;Node19 -->
<g id="edge50" class="edge">
<title>Node27&#45;&gt;Node19</title>
<path fill="none" stroke="#191970" d="M411.1038,-392.4509C483.5754,-372.1589 652.836,-324.7659 733.1766,-302.2706"/>
<polygon fill="#191970" stroke="#191970" points="734.2966,-305.5916 742.9825,-299.5249 732.4092,-298.8509 734.2966,-305.5916"/>
</g>
<!-- Node27&#45;&gt;Node20 -->
<g id="edge52" class="edge">
<title>Node27&#45;&gt;Node20</title>
<path fill="none" stroke="#191970" d="M376.9434,-392.4862C376.7853,-365.9293 376.3367,-290.5651 376.12,-254.1655"/>
<polygon fill="#191970" stroke="#191970" points="379.6181,-253.8068 376.0585,-243.8279 372.6182,-253.8486 379.6181,-253.8068"/>
</g>
<!-- Node27&#45;&gt;Node24 -->
<g id="edge53" class="edge">
<title>Node27&#45;&gt;Node24</title>
<path fill="none" stroke="#191970" d="M383.3982,-392.3925C406.585,-358.1465 489.7146,-240.2464 582,-168 598.8712,-154.7922 620.1139,-143.6441 637.6143,-135.6318"/>
<polygon fill="#191970" stroke="#191970" points="639.1802,-138.7661 646.9003,-131.5099 636.3402,-132.3681 639.1802,-138.7661"/>
</g>
<!-- Node29 -->
<g id="node30" class="node">
<title>Node29</title>
<g id="a_node30"><a xlink:href="SpatialForceVector_8h.html" target="_top" xlink:title="iDynTree/Core/SpatialForce\lVector.h">
<polygon fill="none" stroke="#000000" points="392,-448.5 392,-478.5 540,-478.5 540,-448.5 392,-448.5"/>
<text text-anchor="start" x="400" y="-466.5" font-family="FreeSans.ttf" font-size="10.00" fill="#000000">iDynTree/Core/SpatialForce</text>
<text text-anchor="middle" x="466" y="-455.5" font-family="FreeSans.ttf" font-size="10.00" fill="#000000">Vector.h</text>
</a>
</g>
</g>
<!-- Node28&#45;&gt;Node29 -->
<g id="edge56" class="edge">
<title>Node28&#45;&gt;Node29</title>
<path fill="none" stroke="#191970" d="M443.2188,-515.3906C446.4669,-507.9922 451.1043,-497.4291 455.3483,-487.7623"/>
<polygon fill="#191970" stroke="#191970" points="458.5799,-489.108 459.3951,-478.5446 452.1703,-486.2941 458.5799,-489.108"/>
</g>
<!-- Node29&#45;&gt;Node3 -->
<g id="edge57" class="edge">
<title>Node29&#45;&gt;Node3</title>
<path fill="none" stroke="#191970" d="M471.9916,-448.4593C475.6933,-438.3368 480.0895,-424.5889 482,-412 483.3337,-403.2117 482.3956,-400.8801 482,-392 478.6634,-317.1106 481.3228,-297.5827 467,-224 465.27,-215.1121 462.4926,-205.4976 459.866,-197.368"/>
<polygon fill="#191970" stroke="#191970" points="463.1224,-196.0718 456.6008,-187.7221 456.492,-198.3164 463.1224,-196.0718"/>
</g>
<!-- Node29&#45;&gt;Node20 -->
<g id="edge58" class="edge">
<title>Node29&#45;&gt;Node20</title>
<path fill="none" stroke="#191970" d="M468.5549,-448.4189C470.4983,-433.7437 472.0667,-410.9491 467,-392 452.0221,-335.9838 411.8879,-279.2368 390.2661,-251.4841"/>
<polygon fill="#191970" stroke="#191970" points="392.9107,-249.1861 383.9519,-243.53 387.4281,-253.5384 392.9107,-249.1861"/>
</g>
<!-- Node29&#45;&gt;Node27 -->
<g id="edge59" class="edge">
<title>Node29&#45;&gt;Node27</title>
<path fill="none" stroke="#191970" d="M444,-448.2977C430.4032,-438.9022 413.0034,-426.8787 399.3433,-417.4395"/>
<polygon fill="#191970" stroke="#191970" points="401.2009,-414.4688 390.9842,-411.6633 397.2215,-420.2276 401.2009,-414.4688"/>
</g>
<!-- Node30&#45;&gt;Node26 -->
<g id="edge61" class="edge">
<title>Node30&#45;&gt;Node26</title>
<path fill="none" stroke="#191970" d="M282.5,-515.3906C284.3847,-508.1463 287.0588,-497.8679 289.5304,-488.3676"/>
<polygon fill="#191970" stroke="#191970" points="292.9553,-489.1037 292.086,-478.5446 286.1808,-487.3412 292.9553,-489.1037"/>
</g>
<!-- Node31&#45;&gt;Node29 -->
<g id="edge63" class="edge">
<title>Node31&#45;&gt;Node29</title>
<path fill="none" stroke="#191970" d="M593.4063,-515.3906C571.8349,-506.6049 539.3067,-493.3567 512.5178,-482.446"/>
<polygon fill="#191970" stroke="#191970" points="513.5203,-479.0752 502.9388,-478.5446 510.8799,-485.5581 513.5203,-479.0752"/>
</g>
<!-- Node32&#45;&gt;Node3 -->
<g id="edge71" class="edge">
<title>Node32&#45;&gt;Node3</title>
<path fill="none" stroke="#191970" d="M792.1258,-515.4111C777.458,-506.7337 755.9604,-493.1747 739,-479 623.9248,-382.8259 506.9956,-244.1688 467.2306,-195.6014"/>
<polygon fill="#191970" stroke="#191970" points="469.7511,-193.1538 460.7214,-187.6117 464.3241,-197.5752 469.7511,-193.1538"/>
</g>
<!-- Node32&#45;&gt;Node4 -->
<g id="edge83" class="edge">
<title>Node32&#45;&gt;Node4</title>
<path fill="none" stroke="#191970" d="M728.0639,-515.8354C725.0048,-515.5435 721.9753,-515.2638 719,-515 574.4883,-502.1875 76,-547.0786 76,-402 76,-402 76,-402 76,-178 76,-143.8821 90.9795,-106.4701 101.3391,-84.676"/>
<polygon fill="#191970" stroke="#191970" points="104.5455,-86.0877 105.8356,-75.5717 98.2692,-82.9879 104.5455,-86.0877"/>
</g>
<!-- Node32&#45;&gt;Node5 -->
<g id="edge66" class="edge">
<title>Node32&#45;&gt;Node5</title>
<path fill="none" stroke="#191970" d="M728.0625,-515.8517C725.0037,-515.5553 721.9748,-515.2701 719,-515 662.4251,-509.8623 252.4608,-515.5823 209,-479 182.0329,-456.301 190,-437.2487 190,-402 190,-402 190,-402 190,-234 190,-147.9801 259.2865,-62.8129 292.1219,-27.2812"/>
<polygon fill="#191970" stroke="#191970" points="294.9423,-29.3922 299.2617,-19.7178 289.8521,-24.587 294.9423,-29.3922"/>
</g>
<!-- Node32&#45;&gt;Node22 -->
<g id="edge75" class="edge">
<title>Node32&#45;&gt;Node22</title>
<path fill="none" stroke="#191970" d="M796.2643,-515.2798C785.8088,-506.7209 771.265,-493.4037 762,-479 701.9148,-385.5893 701.1145,-352.4172 677,-244 673.5995,-228.7116 672.1189,-211.0209 671.4779,-197.8053"/>
<polygon fill="#191970" stroke="#191970" points="674.9649,-197.3827 671.1035,-187.5166 667.9695,-197.6372 674.9649,-197.3827"/>
</g>
<!-- Node32&#45;&gt;Node26 -->
<g id="edge76" class="edge">
<title>Node32&#45;&gt;Node26</title>
<path fill="none" stroke="#191970" d="M728.0486,-515.9903C724.9938,-515.6551 721.9694,-515.324 719,-515 572.906,-499.0573 533.3712,-500.129 383.7611,-479.0485"/>
<polygon fill="#191970" stroke="#191970" points="384.1376,-475.5669 373.7451,-477.6275 383.1543,-482.4975 384.1376,-475.5669"/>
</g>
<!-- Node32&#45;&gt;Node29 -->
<g id="edge77" class="edge">
<title>Node32&#45;&gt;Node29</title>
<path fill="none" stroke="#191970" d="M755.7826,-515.4581C700.859,-505.6103 614.3787,-490.1043 550.172,-478.5921"/>
<polygon fill="#191970" stroke="#191970" points="550.5274,-475.1 540.0667,-476.7802 549.292,-481.9902 550.5274,-475.1"/>
</g>
<!-- Node33 -->
<g id="node34" class="node">
<title>Node33</title>
<polygon fill="none" stroke="#bfbfbf" points="770.5,-454 770.5,-473 847.5,-473 847.5,-454 770.5,-454"/>
<text text-anchor="middle" x="809" y="-461" font-family="FreeSans.ttf" font-size="10.00" fill="#000000">Eigen/Dense</text>
</g>
<!-- Node32&#45;&gt;Node33 -->
<g id="edge67" class="edge">
<title>Node32&#45;&gt;Node33</title>
<path fill="none" stroke="#191970" d="M809,-515.3906C809,-506.8657 809,-494.1392 809,-483.4235"/>
<polygon fill="#191970" stroke="#191970" points="812.5001,-483.2448 809,-473.2449 805.5001,-483.2449 812.5001,-483.2448"/>
</g>
<!-- Node34 -->
<g id="node35" class="node">
<title>Node34</title>
<g id="a_node35"><a xlink:href="VectorDynSize_8h.html" target="_top" xlink:title="iDynTree/Core/VectorDynSize.h">
<polygon fill="none" stroke="#000000" points="1181.5,-168.5 1181.5,-187.5 1348.5,-187.5 1348.5,-168.5 1181.5,-168.5"/>
<text text-anchor="middle" x="1265" y="-175.5" font-family="FreeSans.ttf" font-size="10.00" fill="#000000">iDynTree/Core/VectorDynSize.h</text>
</a>
</g>
</g>
<!-- Node32&#45;&gt;Node34 -->
<g id="edge68" class="edge">
<title>Node32&#45;&gt;Node34</title>
<path fill="none" stroke="#191970" d="M836.1097,-515.4032C858.9919,-506.9198 892.348,-493.6438 920,-479 1068.0809,-400.5799 1206.223,-247.2089 1250.3841,-195.4995"/>
<polygon fill="#191970" stroke="#191970" points="1253.2985,-197.4738 1257.0885,-187.5801 1247.9559,-192.9509 1253.2985,-197.4738"/>
</g>
<!-- Node35 -->
<g id="node36" class="node">
<title>Node35</title>
<g id="a_node36"><a xlink:href="MatrixDynSize_8h.html" target="_top" xlink:title="iDynTree/Core/MatrixDynSize.h">
<polygon fill="none" stroke="#000000" points="845.5,-168.5 845.5,-187.5 1012.5,-187.5 1012.5,-168.5 845.5,-168.5"/>
<text text-anchor="middle" x="929" y="-175.5" font-family="FreeSans.ttf" font-size="10.00" fill="#000000">iDynTree/Core/MatrixDynSize.h</text>
</a>
</g>
</g>
<!-- Node32&#45;&gt;Node35 -->
<g id="edge72" class="edge">
<title>Node32&#45;&gt;Node35</title>
<path fill="none" stroke="#191970" d="M823.99,-515.3549C838.3807,-506.0796 860.7157,-491.6428 880,-479 957.3905,-428.2628 996.6117,-432.9597 1048,-356 1076.9605,-312.6284 1075.1322,-295.5548 1083,-244 1084.341,-235.2128 1088.3103,-231.1283 1083,-224 1072.0673,-209.3244 1031.9086,-197.6114 995.3433,-189.6777"/>
<polygon fill="#191970" stroke="#191970" points="995.6581,-186.1677 985.1526,-187.5409 994.2215,-193.0187 995.6581,-186.1677"/>
</g>
<!-- Node36 -->
<g id="node37" class="node">
<title>Node36</title>
<g id="a_node37"><a xlink:href="Transform_8h.html" target="_top" xlink:title="iDynTree/Core/Transform.h">
<polygon fill="none" stroke="#000000" points="826,-392.5 826,-411.5 972,-411.5 972,-392.5 826,-392.5"/>
<text text-anchor="middle" x="899" y="-399.5" font-family="FreeSans.ttf" font-size="10.00" fill="#000000">iDynTree/Core/Transform.h</text>
</a>
</g>
</g>
<!-- Node32&#45;&gt;Node36 -->
<g id="edge78" class="edge">
<title>Node32&#45;&gt;Node36</title>
<path fill="none" stroke="#191970" d="M821.0514,-515.2922C831.4173,-506.5387 846.3405,-492.9346 857,-479 870.9645,-460.7449 883.0624,-437.2488 890.6404,-421.038"/>
<polygon fill="#191970" stroke="#191970" points="893.994,-422.1178 894.9417,-411.5654 887.6203,-419.2236 893.994,-422.1178"/>
</g>
<!-- Node34&#45;&gt;Node7 -->
<g id="edge69" class="edge">
<title>Node34&#45;&gt;Node7</title>
<path fill="none" stroke="#191970" d="M1248.1186,-168.4509C1213.4142,-148.8201 1133.8708,-103.8259 1092.7174,-80.5472"/>
<polygon fill="#191970" stroke="#191970" points="1094.2659,-77.402 1083.8386,-75.5249 1090.8194,-83.4948 1094.2659,-77.402"/>
</g>
<!-- Node34&#45;&gt;Node16 -->
<g id="edge70" class="edge">
<title>Node34&#45;&gt;Node16</title>
<path fill="none" stroke="#191970" d="M1226.5768,-168.4369C1183.0475,-157.6029 1112.883,-140.1398 1072.1389,-129.999"/>
<polygon fill="#191970" stroke="#191970" points="1072.7539,-126.5454 1062.2046,-127.5265 1071.0632,-133.3381 1072.7539,-126.5454"/>
</g>
<!-- Node35&#45;&gt;Node16 -->
<g id="edge73" class="edge">
<title>Node35&#45;&gt;Node16</title>
<path fill="none" stroke="#191970" d="M948.0816,-168.3733C965.7402,-159.4644 992.2053,-146.1127 1012.2098,-136.0203"/>
<polygon fill="#191970" stroke="#191970" points="1013.8158,-139.1303 1021.1674,-131.5011 1010.6628,-132.8806 1013.8158,-139.1303"/>
</g>
<!-- Node35&#45;&gt;Node23 -->
<g id="edge74" class="edge">
<title>Node35&#45;&gt;Node23</title>
<path fill="none" stroke="#191970" d="M924.1228,-168.2455C920.3487,-160.6973 915.0079,-150.0158 910.4099,-140.8197"/>
<polygon fill="#191970" stroke="#191970" points="913.424,-139.0217 905.8213,-131.6427 907.163,-142.1522 913.424,-139.0217"/>
</g>
<!-- Node36&#45;&gt;Node1 -->
<g id="edge79" class="edge">
<title>Node36&#45;&gt;Node1</title>
<path fill="none" stroke="#191970" d="M911.5414,-392.2455C922.2787,-383.8943 937.9473,-371.7076 950.5047,-361.9408"/>
<polygon fill="#191970" stroke="#191970" points="952.8575,-364.5449 958.6023,-355.6427 948.5599,-359.0194 952.8575,-364.5449"/>
</g>
<!-- Node36&#45;&gt;Node16 -->
<g id="edge82" class="edge">
<title>Node36&#45;&gt;Node16</title>
<path fill="none" stroke="#191970" d="M971.0867,-392.4642C997.7553,-385.8875 1026.6564,-374.7753 1048,-356 1095.2225,-314.4598 1103.4584,-286.735 1099,-224 1097.2177,-198.9217 1102.8189,-190.1904 1091,-168 1084.6065,-155.996 1073.7858,-145.557 1063.7522,-137.6714"/>
<polygon fill="#191970" stroke="#191970" points="1065.7474,-134.7939 1055.6237,-131.6698 1061.5896,-140.4253 1065.7474,-134.7939"/>
</g>
<!-- Node36&#45;&gt;Node19 -->
<g id="edge80" class="edge">
<title>Node36&#45;&gt;Node19</title>
<path fill="none" stroke="#191970" d="M888.5983,-392.4509C867.8,-373.3574 820.8653,-330.2697 794.9801,-306.5063"/>
<polygon fill="#191970" stroke="#191970" points="797.1088,-303.7093 787.3753,-299.5249 792.3749,-308.8659 797.1088,-303.7093"/>
</g>
<!-- Node36&#45;&gt;Node22 -->
<g id="edge81" class="edge">
<title>Node36&#45;&gt;Node22</title>
<path fill="none" stroke="#191970" d="M898.5301,-392.3663C896.8583,-369.2353 889.2729,-310.2413 855,-280 800.3455,-231.7747 749.718,-292.1533 695,-244 681.7255,-232.3181 675.7888,-212.6894 673.1364,-197.8675"/>
<polygon fill="#191970" stroke="#191970" points="676.5603,-197.0857 671.681,-187.6813 669.6307,-198.0759 676.5603,-197.0857"/>
</g>
</g>
</svg>
