<?xml version="1.0" encoding="UTF-8" standalone="no"?>
<!DOCTYPE svg PUBLIC "-//W3C//DTD SVG 1.1//EN"
 "http://www.w3.org/Graphics/SVG/1.1/DTD/svg11.dtd">
<!-- Generated by graphviz version 2.40.1 (20161225.0304)
 -->
<!-- Title: QuadraticCost.h Pages: 1 -->
<svg width="1232pt" height="588pt"
 viewBox="0.00 0.00 1231.59 588.00" xmlns="http://www.w3.org/2000/svg" xmlns:xlink="http://www.w3.org/1999/xlink">
<g id="graph0" class="graph" transform="scale(1 1) rotate(0) translate(4 584)">
<title>QuadraticCost.h</title>
<!-- Node0 -->
<g id="node1" class="node">
<title>Node0</title>
<polygon fill="#bfbfbf" stroke="#000000" points="195.5892,-560.5 195.5892,-579.5 290.5892,-579.5 290.5892,-560.5 195.5892,-560.5"/>
<text text-anchor="middle" x="243.0892" y="-567.5" font-family="FreeSans.ttf" font-size="10.00" fill="#000000">QuadraticCost.h</text>
</g>
<!-- Node1 -->
<g id="node2" class="node">
<title>Node1</title>
<g id="a_node2"><a xlink:href="QuadraticLikeCost_8h.html" target="_top" xlink:title="iDynTree/QuadraticLikeCost.h">
<polygon fill="none" stroke="#000000" points="53.5892,-504.5 53.5892,-523.5 214.5892,-523.5 214.5892,-504.5 53.5892,-504.5"/>
<text text-anchor="middle" x="134.0892" y="-511.5" font-family="FreeSans.ttf" font-size="10.00" fill="#000000">iDynTree/QuadraticLikeCost.h</text>
</a>
</g>
</g>
<!-- Node0&#45;&gt;Node1 -->
<g id="edge1" class="edge">
<title>Node0&#45;&gt;Node1</title>
<path fill="none" stroke="#191970" d="M224.1028,-560.2455C206.91,-551.4125 181.3654,-538.2887 161.876,-528.2758"/>
<polygon fill="#191970" stroke="#191970" points="163.3522,-525.0993 152.858,-523.6427 160.1533,-531.3257 163.3522,-525.0993"/>
</g>
<!-- Node10 -->
<g id="node11" class="node">
<title>Node10</title>
<g id="a_node11"><a xlink:href="TimeVaryingObject_8h.html" target="_top" xlink:title="iDynTree/TimeVaryingObject.h">
<polygon fill="none" stroke="#000000" points="271.0892,-448.5 271.0892,-467.5 435.0892,-467.5 435.0892,-448.5 271.0892,-448.5"/>
<text text-anchor="middle" x="353.0892" y="-455.5" font-family="FreeSans.ttf" font-size="10.00" fill="#000000">iDynTree/TimeVaryingObject.h</text>
</a>
</g>
</g>
<!-- Node0&#45;&gt;Node10 -->
<g id="edge64" class="edge">
<title>Node0&#45;&gt;Node10</title>
<path fill="none" stroke="#191970" d="M252.4677,-560.4509C271.1391,-541.4401 313.1726,-498.6423 336.5734,-474.816"/>
<polygon fill="#191970" stroke="#191970" points="339.2244,-477.1119 343.7344,-467.5249 334.2302,-472.2069 339.2244,-477.1119"/>
</g>
<!-- Node11 -->
<g id="node12" class="node">
<title>Node11</title>
<g id="a_node12"><a xlink:href="VectorDynSize_8h.html" target="_top" xlink:title="iDynTree/Core/VectorDynSize.h">
<polygon fill="none" stroke="#000000" points="150.5892,-280.5 150.5892,-299.5 317.5892,-299.5 317.5892,-280.5 150.5892,-280.5"/>
<text text-anchor="middle" x="234.0892" y="-287.5" font-family="FreeSans.ttf" font-size="10.00" fill="#000000">iDynTree/Core/VectorDynSize.h</text>
</a>
</g>
</g>
<!-- Node0&#45;&gt;Node11 -->
<g id="edge65" class="edge">
<title>Node0&#45;&gt;Node11</title>
<path fill="none" stroke="#191970" d="M243.0892,-560.4116C243.0892,-541.0538 243.0892,-495.9167 243.0892,-458 243.0892,-458 243.0892,-458 243.0892,-402 243.0892,-369.6075 239.3025,-332.1141 236.6415,-309.7662"/>
<polygon fill="#191970" stroke="#191970" points="240.0811,-309.0616 235.3787,-299.5676 233.1341,-309.9219 240.0811,-309.0616"/>
</g>
<!-- Node21 -->
<g id="node22" class="node">
<title>Node21</title>
<g id="a_node22"><a xlink:href="MatrixDynSize_8h.html" target="_top" xlink:title="iDynTree/Core/MatrixDynSize.h">
<polygon fill="none" stroke="#000000" points="1056.5892,-336.5 1056.5892,-355.5 1223.5892,-355.5 1223.5892,-336.5 1056.5892,-336.5"/>
<text text-anchor="middle" x="1140.0892" y="-343.5" font-family="FreeSans.ttf" font-size="10.00" fill="#000000">iDynTree/Core/MatrixDynSize.h</text>
</a>
</g>
</g>
<!-- Node0&#45;&gt;Node21 -->
<g id="edge66" class="edge">
<title>Node0&#45;&gt;Node21</title>
<path fill="none" stroke="#191970" d="M281.3452,-560.4467C425.0737,-524.5546 932.6659,-397.798 1091.9213,-358.0285"/>
<polygon fill="#191970" stroke="#191970" points="1093.0458,-361.3553 1101.8999,-355.5367 1091.3498,-354.5639 1093.0458,-361.3553"/>
</g>
<!-- Node34 -->
<g id="node35" class="node">
<title>Node34</title>
<polygon fill="none" stroke="#bfbfbf" points="30.0892,-448.5 30.0892,-467.5 88.0892,-467.5 88.0892,-448.5 30.0892,-448.5"/>
<text text-anchor="middle" x="59.0892" y="-455.5" font-family="FreeSans.ttf" font-size="10.00" fill="#000000">memory</text>
</g>
<!-- Node0&#45;&gt;Node34 -->
<g id="edge67" class="edge">
<title>Node0&#45;&gt;Node34</title>
<path fill="none" stroke="#191970" d="M195.2835,-565.6947C142.537,-559.8385 62.6283,-547.3134 44.0892,-524 33.393,-510.5493 39.8136,-490.9266 47.2847,-476.5738"/>
<polygon fill="#191970" stroke="#191970" points="50.4819,-478.0345 52.4273,-467.6198 44.4118,-474.5482 50.4819,-478.0345"/>
</g>
<!-- Node2 -->
<g id="node3" class="node">
<title>Node2</title>
<g id="a_node3"><a xlink:href="Cost_8h.html" target="_top" xlink:title="iDynTree/Cost.h">
<polygon fill="none" stroke="#000000" points="77.5892,-224.5 77.5892,-243.5 170.5892,-243.5 170.5892,-224.5 77.5892,-224.5"/>
<text text-anchor="middle" x="124.0892" y="-231.5" font-family="FreeSans.ttf" font-size="10.00" fill="#000000">iDynTree/Cost.h</text>
</a>
</g>
</g>
<!-- Node1&#45;&gt;Node2 -->
<g id="edge2" class="edge">
<title>Node1&#45;&gt;Node2</title>
<path fill="none" stroke="#191970" d="M132.5132,-504.4427C129.4716,-485.1407 123.0892,-440.0991 123.0892,-402 123.0892,-402 123.0892,-402 123.0892,-346 123.0892,-313.7103 123.5099,-276.1863 123.8056,-253.8043"/>
<polygon fill="#191970" stroke="#191970" points="127.3081,-253.6353 123.9459,-243.5881 120.3088,-253.5391 127.3081,-253.6353"/>
</g>
<!-- Node1&#45;&gt;Node10 -->
<g id="edge12" class="edge">
<title>Node1&#45;&gt;Node10</title>
<path fill="none" stroke="#191970" d="M171.7366,-504.3733C208.9412,-494.8598 265.9595,-480.2797 306.1108,-470.0127"/>
<polygon fill="#191970" stroke="#191970" points="307.1118,-473.3695 315.933,-467.5011 305.3776,-466.5877 307.1118,-473.3695"/>
</g>
<!-- Node1&#45;&gt;Node34 -->
<g id="edge63" class="edge">
<title>Node1&#45;&gt;Node34</title>
<path fill="none" stroke="#191970" d="M121.0252,-504.2455C109.733,-495.814 93.2047,-483.4729 80.0621,-473.6598"/>
<polygon fill="#191970" stroke="#191970" points="82.1103,-470.8211 72.0035,-467.6427 77.9223,-476.4301 82.1103,-470.8211"/>
</g>
<!-- Node3 -->
<g id="node4" class="node">
<title>Node3</title>
<polygon fill="none" stroke="#bfbfbf" points="418.0892,-112.5 418.0892,-131.5 462.0892,-131.5 462.0892,-112.5 418.0892,-112.5"/>
<text text-anchor="middle" x="440.0892" y="-119.5" font-family="FreeSans.ttf" font-size="10.00" fill="#000000">string</text>
</g>
<!-- Node2&#45;&gt;Node3 -->
<g id="edge3" class="edge">
<title>Node2&#45;&gt;Node3</title>
<path fill="none" stroke="#191970" d="M147.1361,-224.415C179.4923,-211.0927 240.3392,-186.5289 293.0892,-168 332.3593,-154.2061 378.2177,-140.181 408.1362,-131.3049"/>
<polygon fill="#191970" stroke="#191970" points="409.4167,-134.5764 418.0171,-128.3889 407.4353,-127.8626 409.4167,-134.5764"/>
</g>
<!-- Node4 -->
<g id="node5" class="node">
<title>Node4</title>
<g id="a_node5"><a xlink:href="SparsityStructure_8h.html" target="_top" xlink:title="iDynTree/SparsityStructure.h">
<polygon fill="none" stroke="#000000" points="46.5892,-168.5 46.5892,-187.5 201.5892,-187.5 201.5892,-168.5 46.5892,-168.5"/>
<text text-anchor="middle" x="124.0892" y="-175.5" font-family="FreeSans.ttf" font-size="10.00" fill="#000000">iDynTree/SparsityStructure.h</text>
</a>
</g>
</g>
<!-- Node2&#45;&gt;Node4 -->
<g id="edge4" class="edge">
<title>Node2&#45;&gt;Node4</title>
<path fill="none" stroke="#191970" d="M124.0892,-224.2455C124.0892,-216.9382 124.0892,-206.6944 124.0892,-197.7046"/>
<polygon fill="#191970" stroke="#191970" points="127.5893,-197.6426 124.0892,-187.6427 120.5893,-197.6427 127.5893,-197.6426"/>
</g>
<!-- Node4&#45;&gt;Node3 -->
<g id="edge11" class="edge">
<title>Node4&#45;&gt;Node3</title>
<path fill="none" stroke="#191970" d="M178.0525,-168.4369C244.156,-156.7223 353.9956,-137.2571 408.0441,-127.6789"/>
<polygon fill="#191970" stroke="#191970" points="408.8446,-131.0916 418.0804,-125.9003 407.6231,-124.199 408.8446,-131.0916"/>
</g>
<!-- Node5 -->
<g id="node6" class="node">
<title>Node5</title>
<g id="a_node6"><a xlink:href="Utils_8h.html" target="_top" xlink:title="iDynTree/Core/Utils.h">
<polygon fill="none" stroke="#000000" points="518.5892,-56.5 518.5892,-75.5 637.5892,-75.5 637.5892,-56.5 518.5892,-56.5"/>
<text text-anchor="middle" x="578.0892" y="-63.5" font-family="FreeSans.ttf" font-size="10.00" fill="#000000">iDynTree/Core/Utils.h</text>
</a>
</g>
</g>
<!-- Node4&#45;&gt;Node5 -->
<g id="edge5" class="edge">
<title>Node4&#45;&gt;Node5</title>
<path fill="none" stroke="#191970" d="M134.2221,-168.4235C150.6129,-153.56 184.6019,-125.2698 219.0892,-112 270.4047,-92.2551 419.3313,-78.0089 508.431,-70.9707"/>
<polygon fill="#191970" stroke="#191970" points="508.7592,-74.4559 518.457,-70.1892 508.2152,-67.477 508.7592,-74.4559"/>
</g>
<!-- Node6 -->
<g id="node7" class="node">
<title>Node6</title>
<polygon fill="none" stroke="#bfbfbf" points="417.5892,-.5 417.5892,-19.5 470.5892,-19.5 470.5892,-.5 417.5892,-.5"/>
<text text-anchor="middle" x="444.0892" y="-7.5" font-family="FreeSans.ttf" font-size="10.00" fill="#000000">cstddef</text>
</g>
<!-- Node4&#45;&gt;Node6 -->
<g id="edge9" class="edge">
<title>Node4&#45;&gt;Node6</title>
<path fill="none" stroke="#191970" d="M72.5157,-168.4966C31.188,-158.5621 -16.4596,-140.4032 6.0892,-112 56.2729,-48.7869 311.0805,-21.1488 407.2653,-12.8541"/>
<polygon fill="#191970" stroke="#191970" points="407.7232,-16.3281 417.3946,-12.002 407.1364,-9.3527 407.7232,-16.3281"/>
</g>
<!-- Node8 -->
<g id="node9" class="node">
<title>Node8</title>
<polygon fill="none" stroke="#bfbfbf" points="15.5892,-112.5 15.5892,-131.5 62.5892,-131.5 62.5892,-112.5 15.5892,-112.5"/>
<text text-anchor="middle" x="39.0892" y="-119.5" font-family="FreeSans.ttf" font-size="10.00" fill="#000000">vector</text>
</g>
<!-- Node4&#45;&gt;Node8 -->
<g id="edge8" class="edge">
<title>Node4&#45;&gt;Node8</title>
<path fill="none" stroke="#191970" d="M109.2833,-168.2455C96.3636,-159.7337 77.3961,-147.2375 62.434,-137.3801"/>
<polygon fill="#191970" stroke="#191970" points="64.0016,-134.2216 53.7254,-131.6427 60.1504,-140.067 64.0016,-134.2216"/>
</g>
<!-- Node9 -->
<g id="node10" class="node">
<title>Node9</title>
<polygon fill="none" stroke="#bfbfbf" points="81.0892,-112.5 81.0892,-131.5 167.0892,-131.5 167.0892,-112.5 81.0892,-112.5"/>
<text text-anchor="middle" x="124.0892" y="-119.5" font-family="FreeSans.ttf" font-size="10.00" fill="#000000">unordered_set</text>
</g>
<!-- Node4&#45;&gt;Node9 -->
<g id="edge10" class="edge">
<title>Node4&#45;&gt;Node9</title>
<path fill="none" stroke="#191970" d="M124.0892,-168.2455C124.0892,-160.9382 124.0892,-150.6944 124.0892,-141.7046"/>
<polygon fill="#191970" stroke="#191970" points="127.5893,-141.6426 124.0892,-131.6427 120.5893,-141.6427 127.5893,-141.6426"/>
</g>
<!-- Node5&#45;&gt;Node6 -->
<g id="edge6" class="edge">
<title>Node5&#45;&gt;Node6</title>
<path fill="none" stroke="#191970" d="M555.0538,-56.3733C533.3504,-47.3032 500.6273,-33.6279 476.3342,-23.4755"/>
<polygon fill="#191970" stroke="#191970" points="477.4003,-20.1278 466.824,-19.5011 474.7011,-26.5865 477.4003,-20.1278"/>
</g>
<!-- Node7 -->
<g id="node8" class="node">
<title>Node7</title>
<polygon fill="none" stroke="#bfbfbf" points="489.0892,-.5 489.0892,-19.5 569.0892,-19.5 569.0892,-.5 489.0892,-.5"/>
<text text-anchor="middle" x="529.0892" y="-7.5" font-family="FreeSans.ttf" font-size="10.00" fill="#000000">CoreExport.h</text>
</g>
<!-- Node5&#45;&gt;Node7 -->
<g id="edge7" class="edge">
<title>Node5&#45;&gt;Node7</title>
<path fill="none" stroke="#191970" d="M569.554,-56.2455C562.598,-48.2958 552.6009,-36.8706 544.2841,-27.3656"/>
<polygon fill="#191970" stroke="#191970" points="546.7456,-24.8637 537.5265,-19.6427 541.4776,-29.4732 546.7456,-24.8637"/>
</g>
<!-- Node10&#45;&gt;Node11 -->
<g id="edge13" class="edge">
<title>Node10&#45;&gt;Node11</title>
<path fill="none" stroke="#191970" d="M346.3503,-448.4862C327.2134,-421.4695 272.297,-343.9405 247.0589,-308.3102"/>
<polygon fill="#191970" stroke="#191970" points="249.6869,-305.9651 241.0506,-299.8279 243.9747,-310.0112 249.6869,-305.9651"/>
</g>
<!-- Node10&#45;&gt;Node21 -->
<g id="edge25" class="edge">
<title>Node10&#45;&gt;Node21</title>
<path fill="none" stroke="#191970" d="M419.8489,-448.4993C564.9733,-427.8462 908.5079,-378.9569 1062.7575,-357.0053"/>
<polygon fill="#191970" stroke="#191970" points="1063.6785,-360.4096 1073.0856,-355.5355 1062.6922,-353.4794 1063.6785,-360.4096"/>
</g>
<!-- Node23 -->
<g id="node24" class="node">
<title>Node23</title>
<g id="a_node24"><a xlink:href="Transform_8h.html" target="_top" xlink:title="iDynTree/Core/Transform.h">
<polygon fill="none" stroke="#000000" points="416.0892,-392.5 416.0892,-411.5 562.0892,-411.5 562.0892,-392.5 416.0892,-392.5"/>
<text text-anchor="middle" x="489.0892" y="-399.5" font-family="FreeSans.ttf" font-size="10.00" fill="#000000">iDynTree/Core/Transform.h</text>
</a>
</g>
</g>
<!-- Node10&#45;&gt;Node23 -->
<g id="edge32" class="edge">
<title>Node10&#45;&gt;Node23</title>
<path fill="none" stroke="#191970" d="M376.4684,-448.3733C398.5937,-439.2629 432.0026,-425.5062 456.6911,-415.3404"/>
<polygon fill="#191970" stroke="#191970" points="458.1009,-418.5451 466.015,-411.5011 455.4356,-412.0723 458.1009,-418.5451"/>
</g>
<!-- Node11&#45;&gt;Node3 -->
<g id="edge24" class="edge">
<title>Node11&#45;&gt;Node3</title>
<path fill="none" stroke="#191970" d="M239.4044,-280.416C252.3265,-257.9003 287.5489,-201.0447 331.0892,-168 354.3203,-150.3689 385.3129,-138.1448 408.3108,-130.7536"/>
<polygon fill="#191970" stroke="#191970" points="409.4167,-134.0753 417.9443,-127.788 407.3572,-127.3852 409.4167,-134.0753"/>
</g>
<!-- Node12 -->
<g id="node13" class="node">
<title>Node12</title>
<g id="a_node13"><a xlink:href="Span_8h.html" target="_top" xlink:title="iDynTree/Core/Span.h">
<polygon fill="none" stroke="#000000" points="655.5892,-56.5 655.5892,-75.5 776.5892,-75.5 776.5892,-56.5 655.5892,-56.5"/>
<text text-anchor="middle" x="716.0892" y="-63.5" font-family="FreeSans.ttf" font-size="10.00" fill="#000000">iDynTree/Core/Span.h</text>
</a>
</g>
</g>
<!-- Node11&#45;&gt;Node12 -->
<g id="edge14" class="edge">
<title>Node11&#45;&gt;Node12</title>
<path fill="none" stroke="#191970" d="M236.751,-280.1767C240.5816,-266.8952 248.3833,-242.7198 259.0892,-224 300.3937,-151.7767 330.0955,-138.1202 409.0892,-112 414.6936,-110.1468 556.49,-89.2745 645.3902,-76.2908"/>
<polygon fill="#191970" stroke="#191970" points="646.0327,-79.7342 655.4222,-74.8263 645.0215,-72.8076 646.0327,-79.7342"/>
</g>
<!-- Node12&#45;&gt;Node6 -->
<g id="edge18" class="edge">
<title>Node12&#45;&gt;Node6</title>
<path fill="none" stroke="#191970" d="M660.5128,-56.4382C614.7711,-48.28 548.0502,-35.7216 480.7038,-20.0029"/>
<polygon fill="#191970" stroke="#191970" points="481.3016,-16.548 470.7654,-17.661 479.696,-23.3614 481.3016,-16.548"/>
</g>
<!-- Node13 -->
<g id="node14" class="node">
<title>Node13</title>
<polygon fill="none" stroke="#bfbfbf" points="1010.0892,-.5 1010.0892,-19.5 1062.0892,-19.5 1062.0892,-.5 1010.0892,-.5"/>
<text text-anchor="middle" x="1036.0892" y="-7.5" font-family="FreeSans.ttf" font-size="10.00" fill="#000000">cassert</text>
</g>
<!-- Node12&#45;&gt;Node13 -->
<g id="edge15" class="edge">
<title>Node12&#45;&gt;Node13</title>
<path fill="none" stroke="#191970" d="M776.8913,-57.0498C843.1985,-47.1463 946.0919,-31.3259 1000.0097,-20.0021"/>
<polygon fill="#191970" stroke="#191970" points="1000.7742,-23.4178 1009.8013,-17.8715 999.2858,-16.5778 1000.7742,-23.4178"/>
</g>
<!-- Node14 -->
<g id="node15" class="node">
<title>Node14</title>
<polygon fill="none" stroke="#bfbfbf" points="928.0892,-.5 928.0892,-19.5 992.0892,-19.5 992.0892,-.5 928.0892,-.5"/>
<text text-anchor="middle" x="960.0892" y="-7.5" font-family="FreeSans.ttf" font-size="10.00" fill="#000000">algorithm</text>
</g>
<!-- Node12&#45;&gt;Node14 -->
<g id="edge16" class="edge">
<title>Node12&#45;&gt;Node14</title>
<path fill="none" stroke="#191970" d="M759.301,-56.4236C798.2611,-47.7411 857.3919,-34.4447 917.7786,-20.2831"/>
<polygon fill="#191970" stroke="#191970" points="918.9384,-23.606 927.8722,-17.9106 917.3366,-16.7917 918.9384,-23.606"/>
</g>
<!-- Node15 -->
<g id="node16" class="node">
<title>Node15</title>
<polygon fill="none" stroke="#bfbfbf" points="587.0892,-.5 587.0892,-19.5 629.0892,-19.5 629.0892,-.5 587.0892,-.5"/>
<text text-anchor="middle" x="608.0892" y="-7.5" font-family="FreeSans.ttf" font-size="10.00" fill="#000000">array</text>
</g>
<!-- Node12&#45;&gt;Node15 -->
<g id="edge17" class="edge">
<title>Node12&#45;&gt;Node15</title>
<path fill="none" stroke="#191970" d="M697.277,-56.2455C680.2419,-47.4125 654.9317,-34.2887 635.621,-24.2758"/>
<polygon fill="#191970" stroke="#191970" points="637.1745,-21.1388 626.6858,-19.6427 633.9522,-27.353 637.1745,-21.1388"/>
</g>
<!-- Node16 -->
<g id="node17" class="node">
<title>Node16</title>
<polygon fill="none" stroke="#bfbfbf" points="647.5892,-.5 647.5892,-19.5 700.5892,-19.5 700.5892,-.5 647.5892,-.5"/>
<text text-anchor="middle" x="674.0892" y="-7.5" font-family="FreeSans.ttf" font-size="10.00" fill="#000000">iterator</text>
</g>
<!-- Node12&#45;&gt;Node16 -->
<g id="edge19" class="edge">
<title>Node12&#45;&gt;Node16</title>
<path fill="none" stroke="#191970" d="M708.7733,-56.2455C702.8713,-48.3761 694.4149,-37.101 687.3298,-27.6542"/>
<polygon fill="#191970" stroke="#191970" points="690.1212,-25.5427 681.3212,-19.6427 684.5212,-29.7427 690.1212,-25.5427"/>
</g>
<!-- Node17 -->
<g id="node18" class="node">
<title>Node17</title>
<polygon fill="none" stroke="#bfbfbf" points="719.0892,-.5 719.0892,-19.5 763.0892,-19.5 763.0892,-.5 719.0892,-.5"/>
<text text-anchor="middle" x="741.0892" y="-7.5" font-family="FreeSans.ttf" font-size="10.00" fill="#000000">limits</text>
</g>
<!-- Node12&#45;&gt;Node17 -->
<g id="edge20" class="edge">
<title>Node12&#45;&gt;Node17</title>
<path fill="none" stroke="#191970" d="M720.4439,-56.2455C723.8136,-48.6973 728.5822,-38.0158 732.6875,-28.8197"/>
<polygon fill="#191970" stroke="#191970" points="735.9038,-30.2009 736.7844,-19.6427 729.5119,-27.3473 735.9038,-30.2009"/>
</g>
<!-- Node18 -->
<g id="node19" class="node">
<title>Node18</title>
<polygon fill="none" stroke="#bfbfbf" points="781.5892,-.5 781.5892,-19.5 846.5892,-19.5 846.5892,-.5 781.5892,-.5"/>
<text text-anchor="middle" x="814.0892" y="-7.5" font-family="FreeSans.ttf" font-size="10.00" fill="#000000">stdexcept</text>
</g>
<!-- Node12&#45;&gt;Node18 -->
<g id="edge21" class="edge">
<title>Node12&#45;&gt;Node18</title>
<path fill="none" stroke="#191970" d="M733.1595,-56.2455C748.3362,-47.5731 770.7513,-34.7645 788.1455,-24.825"/>
<polygon fill="#191970" stroke="#191970" points="790.2686,-27.643 797.2145,-19.6427 786.7956,-21.5653 790.2686,-27.643"/>
</g>
<!-- Node19 -->
<g id="node20" class="node">
<title>Node19</title>
<polygon fill="none" stroke="#bfbfbf" points="1092.5892,-.5 1092.5892,-19.5 1161.5892,-19.5 1161.5892,-.5 1092.5892,-.5"/>
<text text-anchor="middle" x="1127.0892" y="-7.5" font-family="FreeSans.ttf" font-size="10.00" fill="#000000">type_traits</text>
</g>
<!-- Node12&#45;&gt;Node19 -->
<g id="edge22" class="edge">
<title>Node12&#45;&gt;Node19</title>
<path fill="none" stroke="#191970" d="M776.8302,-59.0259C847.6186,-50.6906 968.0517,-35.8661 1071.0892,-20 1074.7709,-19.4331 1078.5834,-18.8161 1082.4082,-18.1762"/>
<polygon fill="#191970" stroke="#191970" points="1083.2164,-21.5887 1092.48,-16.4472 1082.032,-14.6896 1083.2164,-21.5887"/>
</g>
<!-- Node20 -->
<g id="node21" class="node">
<title>Node20</title>
<polygon fill="none" stroke="#bfbfbf" points="864.5892,-.5 864.5892,-19.5 909.5892,-19.5 909.5892,-.5 864.5892,-.5"/>
<text text-anchor="middle" x="887.0892" y="-7.5" font-family="FreeSans.ttf" font-size="10.00" fill="#000000">utility</text>
</g>
<!-- Node12&#45;&gt;Node20 -->
<g id="edge23" class="edge">
<title>Node12&#45;&gt;Node20</title>
<path fill="none" stroke="#191970" d="M745.4851,-56.3733C775.9016,-46.4123 823.2786,-30.897 854.7407,-20.5937"/>
<polygon fill="#191970" stroke="#191970" points="855.9407,-23.8836 864.3548,-17.4452 853.7621,-17.2313 855.9407,-23.8836"/>
</g>
<!-- Node21&#45;&gt;Node3 -->
<g id="edge26" class="edge">
<title>Node21&#45;&gt;Node3</title>
<path fill="none" stroke="#191970" d="M1056.3565,-341.719C923.8239,-334.4307 676.993,-318.5821 641.0892,-300 601.6159,-279.5705 608.5078,-254.4063 576.0892,-224 539.5708,-189.7485 491.731,-156.1012 463.6101,-137.2978"/>
<polygon fill="#191970" stroke="#191970" points="465.4814,-134.3391 455.2122,-131.7324 461.6144,-140.1741 465.4814,-134.3391"/>
</g>
<!-- Node22 -->
<g id="node23" class="node">
<title>Node22</title>
<g id="a_node23"><a xlink:href="MatrixView_8h.html" target="_top" xlink:title="iDynTree/Core/MatrixView.h">
<polygon fill="none" stroke="#000000" points="1064.5892,-112.5 1064.5892,-131.5 1215.5892,-131.5 1215.5892,-112.5 1064.5892,-112.5"/>
<text text-anchor="middle" x="1140.0892" y="-119.5" font-family="FreeSans.ttf" font-size="10.00" fill="#000000">iDynTree/Core/MatrixView.h</text>
</a>
</g>
</g>
<!-- Node21&#45;&gt;Node22 -->
<g id="edge27" class="edge">
<title>Node21&#45;&gt;Node22</title>
<path fill="none" stroke="#191970" d="M1140.0892,-336.375C1140.0892,-302.4851 1140.0892,-188.2317 1140.0892,-141.8332"/>
<polygon fill="#191970" stroke="#191970" points="1143.5893,-141.5891 1140.0892,-131.5891 1136.5893,-141.5892 1143.5893,-141.5891"/>
</g>
<!-- Node22&#45;&gt;Node5 -->
<g id="edge31" class="edge">
<title>Node22&#45;&gt;Node5</title>
<path fill="none" stroke="#191970" d="M1064.1488,-115.3911C950.7955,-105.4482 741.5494,-86.7733 647.9333,-76.0324"/>
<polygon fill="#191970" stroke="#191970" points="648.2427,-72.5448 637.9037,-74.8588 647.4291,-79.4974 648.2427,-72.5448"/>
</g>
<!-- Node22&#45;&gt;Node12 -->
<g id="edge30" class="edge">
<title>Node22&#45;&gt;Node12</title>
<path fill="none" stroke="#191970" d="M1067.6828,-112.4369C989.2493,-102.0777 864.9261,-85.6577 787.0586,-75.3733"/>
<polygon fill="#191970" stroke="#191970" points="787.2318,-71.8659 776.8596,-74.0263 786.3152,-78.8056 787.2318,-71.8659"/>
</g>
<!-- Node22&#45;&gt;Node13 -->
<g id="edge28" class="edge">
<title>Node22&#45;&gt;Node13</title>
<path fill="none" stroke="#191970" d="M1131.2222,-112.4509C1113.646,-93.5227 1074.1737,-51.014 1051.9937,-27.1279"/>
<polygon fill="#191970" stroke="#191970" points="1054.3031,-24.4713 1044.9337,-19.5249 1049.1735,-29.2344 1054.3031,-24.4713"/>
</g>
<!-- Node22&#45;&gt;Node19 -->
<g id="edge29" class="edge">
<title>Node22&#45;&gt;Node19</title>
<path fill="none" stroke="#191970" d="M1138.9808,-112.4509C1136.8605,-94.184 1132.1911,-53.9553 1129.3755,-29.6976"/>
<polygon fill="#191970" stroke="#191970" points="1132.8245,-29.0546 1128.1948,-19.5249 1125.8712,-29.8618 1132.8245,-29.0546"/>
</g>
<!-- Node23&#45;&gt;Node3 -->
<g id="edge62" class="edge">
<title>Node23&#45;&gt;Node3</title>
<path fill="none" stroke="#191970" d="M456.0527,-392.4779C413.539,-377.958 345.0892,-345.9003 345.0892,-290 345.0892,-290 345.0892,-290 345.0892,-234 345.0892,-190.9765 386.3627,-156.0102 414.5001,-137.1715"/>
<polygon fill="#191970" stroke="#191970" points="416.5913,-139.9879 423.1051,-131.632 412.8022,-134.102 416.5913,-139.9879"/>
</g>
<!-- Node24 -->
<g id="node25" class="node">
<title>Node24</title>
<g id="a_node25"><a xlink:href="Position_8h.html" target="_top" xlink:title="iDynTree/Core/Position.h">
<polygon fill="none" stroke="#000000" points="421.0892,-336.5 421.0892,-355.5 557.0892,-355.5 557.0892,-336.5 421.0892,-336.5"/>
<text text-anchor="middle" x="489.0892" y="-343.5" font-family="FreeSans.ttf" font-size="10.00" fill="#000000">iDynTree/Core/Position.h</text>
</a>
</g>
</g>
<!-- Node23&#45;&gt;Node24 -->
<g id="edge33" class="edge">
<title>Node23&#45;&gt;Node24</title>
<path fill="none" stroke="#191970" d="M489.0892,-392.2455C489.0892,-384.9382 489.0892,-374.6944 489.0892,-365.7046"/>
<polygon fill="#191970" stroke="#191970" points="492.5893,-365.6426 489.0892,-355.6427 485.5893,-365.6427 492.5893,-365.6426"/>
</g>
<!-- Node29 -->
<g id="node30" class="node">
<title>Node29</title>
<g id="a_node30"><a xlink:href="Rotation_8h.html" target="_top" xlink:title="iDynTree/Core/Rotation.h">
<polygon fill="none" stroke="#000000" points="649.5892,-280.5 649.5892,-299.5 786.5892,-299.5 786.5892,-280.5 649.5892,-280.5"/>
<text text-anchor="middle" x="718.0892" y="-287.5" font-family="FreeSans.ttf" font-size="10.00" fill="#000000">iDynTree/Core/Rotation.h</text>
</a>
</g>
</g>
<!-- Node23&#45;&gt;Node29 -->
<g id="edge60" class="edge">
<title>Node23&#45;&gt;Node29</title>
<path fill="none" stroke="#191970" d="M508.6136,-392.4509C549.0896,-372.6548 642.3018,-327.0663 689.5383,-303.9638"/>
<polygon fill="#191970" stroke="#191970" points="691.1688,-307.0626 698.6142,-299.5249 688.0933,-300.7743 691.1688,-307.0626"/>
</g>
<!-- Node32 -->
<g id="node33" class="node">
<title>Node32</title>
<g id="a_node33"><a xlink:href="MatrixFixSize_8h.html" target="_top" xlink:title="iDynTree/Core/MatrixFixSize.h">
<polygon fill="none" stroke="#000000" points="878.5892,-168.5 878.5892,-187.5 1039.5892,-187.5 1039.5892,-168.5 878.5892,-168.5"/>
<text text-anchor="middle" x="959.0892" y="-175.5" font-family="FreeSans.ttf" font-size="10.00" fill="#000000">iDynTree/Core/MatrixFixSize.h</text>
</a>
</g>
</g>
<!-- Node23&#45;&gt;Node32 -->
<g id="edge61" class="edge">
<title>Node23&#45;&gt;Node32</title>
<path fill="none" stroke="#191970" d="M555.1039,-392.4811C685.654,-372.1627 969.1459,-320.1112 1026.0892,-244 1040.855,-224.2638 1014.908,-204.8535 991.1296,-192.2478"/>
<polygon fill="#191970" stroke="#191970" points="992.3826,-188.9607 981.8752,-187.6027 989.2424,-195.2168 992.3826,-188.9607"/>
</g>
<!-- Node24&#45;&gt;Node3 -->
<g id="edge59" class="edge">
<title>Node24&#45;&gt;Node3</title>
<path fill="none" stroke="#191970" d="M476.49,-336.403C456.2029,-320.0594 417.0597,-284.6205 402.0892,-244 388.6797,-207.615 411.2984,-164.039 426.9969,-140.0553"/>
<polygon fill="#191970" stroke="#191970" points="430.0224,-141.8317 432.7823,-131.6026 424.2459,-137.878 430.0224,-141.8317"/>
</g>
<!-- Node25 -->
<g id="node26" class="node">
<title>Node25</title>
<g id="a_node26"><a xlink:href="PositionRaw_8h.html" target="_top" xlink:title="iDynTree/Core/PositionRaw.h">
<polygon fill="none" stroke="#000000" points="411.0892,-224.5 411.0892,-243.5 567.0892,-243.5 567.0892,-224.5 411.0892,-224.5"/>
<text text-anchor="middle" x="489.0892" y="-231.5" font-family="FreeSans.ttf" font-size="10.00" fill="#000000">iDynTree/Core/PositionRaw.h</text>
</a>
</g>
</g>
<!-- Node24&#45;&gt;Node25 -->
<g id="edge34" class="edge">
<title>Node24&#45;&gt;Node25</title>
<path fill="none" stroke="#191970" d="M489.0892,-336.4509C489.0892,-318.184 489.0892,-277.9553 489.0892,-253.6976"/>
<polygon fill="#191970" stroke="#191970" points="492.5893,-253.5249 489.0892,-243.5249 485.5893,-253.5249 492.5893,-253.5249"/>
</g>
<!-- Node24&#45;&gt;Node29 -->
<g id="edge44" class="edge">
<title>Node24&#45;&gt;Node29</title>
<path fill="none" stroke="#191970" d="M528.1955,-336.4369C567.2224,-326.8932 627.2857,-312.2052 669.3854,-301.9101"/>
<polygon fill="#191970" stroke="#191970" points="670.2618,-305.299 679.1442,-299.5237 668.599,-298.4993 670.2618,-305.299"/>
</g>
<!-- Node25&#45;&gt;Node3 -->
<g id="edge43" class="edge">
<title>Node25&#45;&gt;Node3</title>
<path fill="none" stroke="#191970" d="M484.9115,-224.4509C476.8112,-205.936 458.84,-164.8591 448.2786,-140.7187"/>
<polygon fill="#191970" stroke="#191970" points="451.4711,-139.2836 444.2563,-131.5249 445.058,-142.0894 451.4711,-139.2836"/>
</g>
<!-- Node26 -->
<g id="node27" class="node">
<title>Node26</title>
<g id="a_node27"><a xlink:href="VectorFixSize_8h.html" target="_top" xlink:title="iDynTree/Core/VectorFixSize.h">
<polygon fill="none" stroke="#000000" points="699.5892,-168.5 699.5892,-187.5 860.5892,-187.5 860.5892,-168.5 699.5892,-168.5"/>
<text text-anchor="middle" x="780.0892" y="-175.5" font-family="FreeSans.ttf" font-size="10.00" fill="#000000">iDynTree/Core/VectorFixSize.h</text>
</a>
</g>
</g>
<!-- Node25&#45;&gt;Node26 -->
<g id="edge35" class="edge">
<title>Node25&#45;&gt;Node26</title>
<path fill="none" stroke="#191970" d="M538.7832,-224.4369C589.1088,-214.7522 666.9615,-199.7703 720.5543,-189.4569"/>
<polygon fill="#191970" stroke="#191970" points="721.4417,-192.8504 730.6001,-187.5237 720.1189,-185.9765 721.4417,-192.8504"/>
</g>
<!-- Node26&#45;&gt;Node3 -->
<g id="edge38" class="edge">
<title>Node26&#45;&gt;Node3</title>
<path fill="none" stroke="#191970" d="M699.2825,-168.474C637.7469,-160.5684 551.1262,-148.0376 476.0892,-132 474.8403,-131.7331 473.5707,-131.4481 472.2907,-131.1493"/>
<polygon fill="#191970" stroke="#191970" points="473.0069,-127.7204 462.4541,-128.6629 471.2914,-134.5069 473.0069,-127.7204"/>
</g>
<!-- Node26&#45;&gt;Node5 -->
<g id="edge36" class="edge">
<title>Node26&#45;&gt;Node5</title>
<path fill="none" stroke="#191970" d="M762.8668,-168.4509C727.3867,-148.7788 645.969,-103.6363 604.0615,-80.4005"/>
<polygon fill="#191970" stroke="#191970" points="605.7109,-77.313 595.268,-75.5249 602.3165,-83.435 605.7109,-77.313"/>
</g>
<!-- Node26&#45;&gt;Node6 -->
<g id="edge41" class="edge">
<title>Node26&#45;&gt;Node6</title>
<path fill="none" stroke="#191970" d="M739.6423,-168.4781C684.5803,-154.2799 584.3901,-123.9713 510.0892,-76 489.6049,-62.7746 470.3995,-42.295 458.0464,-27.6578"/>
<polygon fill="#191970" stroke="#191970" points="460.6573,-25.3221 451.607,-19.8137 455.2469,-29.7637 460.6573,-25.3221"/>
</g>
<!-- Node26&#45;&gt;Node12 -->
<g id="edge37" class="edge">
<title>Node26&#45;&gt;Node12</title>
<path fill="none" stroke="#191970" d="M763.3339,-168.3559C750.9432,-160.2891 734.7724,-147.604 726.0892,-132 718.2526,-117.9175 715.9791,-99.6593 715.5372,-85.9174"/>
<polygon fill="#191970" stroke="#191970" points="719.0367,-85.6197 715.5149,-75.6273 712.0367,-85.6349 719.0367,-85.6197"/>
</g>
<!-- Node26&#45;&gt;Node13 -->
<g id="edge40" class="edge">
<title>Node26&#45;&gt;Node13</title>
<path fill="none" stroke="#191970" d="M772.0187,-168.2418C761.7809,-154.6063 746.8457,-129.5557 759.0892,-112 773.4439,-91.4172 927.9852,-42.6209 999.7947,-20.8327"/>
<polygon fill="#191970" stroke="#191970" points="1001.2027,-24.0636 1009.7628,-17.8206 999.1778,-17.3629 1001.2027,-24.0636"/>
</g>
<!-- Node27 -->
<g id="node28" class="node">
<title>Node27</title>
<polygon fill="none" stroke="#bfbfbf" points="836.0892,-112.5 836.0892,-131.5 892.0892,-131.5 892.0892,-112.5 836.0892,-112.5"/>
<text text-anchor="middle" x="864.0892" y="-119.5" font-family="FreeSans.ttf" font-size="10.00" fill="#000000">sstream</text>
</g>
<!-- Node26&#45;&gt;Node27 -->
<g id="edge39" class="edge">
<title>Node26&#45;&gt;Node27</title>
<path fill="none" stroke="#191970" d="M794.7209,-168.2455C807.4886,-159.7337 826.233,-147.2375 841.0191,-137.3801"/>
<polygon fill="#191970" stroke="#191970" points="843.2461,-140.1019 849.6252,-131.6427 839.3632,-134.2775 843.2461,-140.1019"/>
</g>
<!-- Node28 -->
<g id="node29" class="node">
<title>Node28</title>
<polygon fill="none" stroke="#bfbfbf" points="768.0892,-112.5 768.0892,-131.5 818.0892,-131.5 818.0892,-112.5 768.0892,-112.5"/>
<text text-anchor="middle" x="793.0892" y="-119.5" font-family="FreeSans.ttf" font-size="10.00" fill="#000000">cstring</text>
</g>
<!-- Node26&#45;&gt;Node28 -->
<g id="edge42" class="edge">
<title>Node26&#45;&gt;Node28</title>
<path fill="none" stroke="#191970" d="M782.3536,-168.2455C784.0686,-160.8579 786.4803,-150.4689 788.5836,-141.4087"/>
<polygon fill="#191970" stroke="#191970" points="791.9987,-142.1751 790.8507,-131.6427 785.18,-140.5922 791.9987,-142.1751"/>
</g>
<!-- Node29&#45;&gt;Node3 -->
<g id="edge45" class="edge">
<title>Node29&#45;&gt;Node3</title>
<path fill="none" stroke="#191970" d="M700.5096,-280.4153C686.4529,-272.1248 666.8834,-259.1114 653.0892,-244 626.7756,-215.1738 640.0379,-191.7809 609.0892,-168 560.5307,-130.6878 535.1471,-148.1951 476.0892,-132 474.8224,-131.6526 473.5308,-131.2976 472.2262,-130.9384"/>
<polygon fill="#191970" stroke="#191970" points="472.7386,-127.4488 462.1675,-128.1577 470.8734,-134.1958 472.7386,-127.4488"/>
</g>
<!-- Node29&#45;&gt;Node26 -->
<g id="edge58" class="edge">
<title>Node29&#45;&gt;Node26</title>
<path fill="none" stroke="#191970" d="M786.7857,-283.8453C868.4969,-275.8168 995.7297,-260.7987 1010.0892,-244 1015.8649,-237.2432 1015.7246,-230.8742 1010.0892,-224 1000.3987,-212.1795 922.9616,-198.4016 860.5766,-189.0281"/>
<polygon fill="#191970" stroke="#191970" points="860.7174,-185.5108 850.3119,-187.5047 859.6897,-192.4349 860.7174,-185.5108"/>
</g>
<!-- Node30 -->
<g id="node31" class="node">
<title>Node30</title>
<g id="a_node31"><a xlink:href="GeomVector3_8h.html" target="_top" xlink:title="iDynTree/Core/GeomVector3.h">
<polygon fill="none" stroke="#000000" points="661.5892,-224.5 661.5892,-243.5 824.5892,-243.5 824.5892,-224.5 661.5892,-224.5"/>
<text text-anchor="middle" x="743.0892" y="-231.5" font-family="FreeSans.ttf" font-size="10.00" fill="#000000">iDynTree/Core/GeomVector3.h</text>
</a>
</g>
</g>
<!-- Node29&#45;&gt;Node30 -->
<g id="edge46" class="edge">
<title>Node29&#45;&gt;Node30</title>
<path fill="none" stroke="#191970" d="M722.4439,-280.2455C725.8136,-272.6973 730.5822,-262.0158 734.6875,-252.8197"/>
<polygon fill="#191970" stroke="#191970" points="737.9038,-254.2009 738.7844,-243.6427 731.5119,-251.3473 737.9038,-254.2009"/>
</g>
<!-- Node31 -->
<g id="node32" class="node">
<title>Node31</title>
<g id="a_node32"><a xlink:href="RotationRaw_8h.html" target="_top" xlink:title="iDynTree/Core/RotationRaw.h">
<polygon fill="none" stroke="#000000" points="843.0892,-224.5 843.0892,-243.5 1001.0892,-243.5 1001.0892,-224.5 843.0892,-224.5"/>
<text text-anchor="middle" x="922.0892" y="-231.5" font-family="FreeSans.ttf" font-size="10.00" fill="#000000">iDynTree/Core/RotationRaw.h</text>
</a>
</g>
</g>
<!-- Node29&#45;&gt;Node31 -->
<g id="edge48" class="edge">
<title>Node29&#45;&gt;Node31</title>
<path fill="none" stroke="#191970" d="M753.158,-280.3733C787.5207,-270.9404 840.0284,-256.5265 877.3742,-246.2747"/>
<polygon fill="#191970" stroke="#191970" points="878.7612,-249.5235 887.478,-243.5011 876.9082,-242.7732 878.7612,-249.5235"/>
</g>
<!-- Node30&#45;&gt;Node26 -->
<g id="edge47" class="edge">
<title>Node30&#45;&gt;Node26</title>
<path fill="none" stroke="#191970" d="M749.5341,-224.2455C754.6274,-216.5367 761.88,-205.5598 768.0412,-196.2348"/>
<polygon fill="#191970" stroke="#191970" points="771.1257,-197.9155 773.7181,-187.6427 765.2853,-194.0566 771.1257,-197.9155"/>
</g>
<!-- Node31&#45;&gt;Node3 -->
<g id="edge57" class="edge">
<title>Node31&#45;&gt;Node3</title>
<path fill="none" stroke="#191970" d="M852.8076,-224.4739C806.3649,-217.0539 744.2184,-205.1122 691.0892,-188 670.6426,-181.4144 667.4995,-174.6973 647.0892,-168 573.2945,-143.7856 551.5434,-150.4027 476.0892,-132 474.813,-131.6888 473.5135,-131.3642 472.2024,-131.0303"/>
<polygon fill="#191970" stroke="#191970" points="472.6789,-127.5359 462.116,-128.3568 470.8854,-134.3022 472.6789,-127.5359"/>
</g>
<!-- Node31&#45;&gt;Node32 -->
<g id="edge49" class="edge">
<title>Node31&#45;&gt;Node32</title>
<path fill="none" stroke="#191970" d="M928.5341,-224.2455C933.6274,-216.5367 940.88,-205.5598 947.0412,-196.2348"/>
<polygon fill="#191970" stroke="#191970" points="950.1257,-197.9155 952.7181,-187.6427 944.2853,-194.0566 950.1257,-197.9155"/>
</g>
<!-- Node32&#45;&gt;Node3 -->
<g id="edge54" class="edge">
<title>Node32&#45;&gt;Node3</title>
<path fill="none" stroke="#191970" d="M878.5611,-168.9325C875.7021,-168.6167 872.8713,-168.3051 870.0892,-168 721.726,-151.7294 544.4855,-132.9896 472.6824,-125.4269"/>
<polygon fill="#191970" stroke="#191970" points="472.7877,-121.9187 462.4762,-124.3525 472.0548,-128.8803 472.7877,-121.9187"/>
</g>
<!-- Node32&#45;&gt;Node5 -->
<g id="edge50" class="edge">
<title>Node32&#45;&gt;Node5</title>
<path fill="none" stroke="#191970" d="M953.7663,-168.4403C944.9427,-153.5998 925.7836,-125.3406 901.0892,-112 803.6154,-59.3419 762.3128,-90.301 648.1019,-76.0484"/>
<polygon fill="#191970" stroke="#191970" points="648.3032,-72.5441 637.9267,-74.6838 647.3727,-79.482 648.3032,-72.5441"/>
</g>
<!-- Node32&#45;&gt;Node13 -->
<g id="edge52" class="edge">
<title>Node32&#45;&gt;Node13</title>
<path fill="none" stroke="#191970" d="M977.3317,-168.473C990.5879,-160.5478 1007.7752,-147.9922 1017.0892,-132 1035.7999,-99.8737 1037.8788,-55.2807 1037.2736,-29.859"/>
<polygon fill="#191970" stroke="#191970" points="1040.7616,-29.4904 1036.8568,-19.6414 1033.7674,-29.7758 1040.7616,-29.4904"/>
</g>
<!-- Node32&#45;&gt;Node22 -->
<g id="edge51" class="edge">
<title>Node32&#45;&gt;Node22</title>
<path fill="none" stroke="#191970" d="M990.2042,-168.3733C1020.432,-159.021 1066.4851,-144.7725 1099.5631,-134.5385"/>
<polygon fill="#191970" stroke="#191970" points="1100.8615,-137.8005 1109.3802,-131.5011 1098.7925,-131.1133 1100.8615,-137.8005"/>
</g>
<!-- Node32&#45;&gt;Node27 -->
<g id="edge56" class="edge">
<title>Node32&#45;&gt;Node27</title>
<path fill="none" stroke="#191970" d="M942.5414,-168.2455C927.8293,-159.5731 906.1004,-146.7645 889.2387,-136.825"/>
<polygon fill="#191970" stroke="#191970" points="890.8393,-133.7057 880.4473,-131.6427 887.2846,-139.736 890.8393,-133.7057"/>
</g>
<!-- Node32&#45;&gt;Node28 -->
<g id="edge53" class="edge">
<title>Node32&#45;&gt;Node28</title>
<path fill="none" stroke="#191970" d="M930.5528,-168.3733C902.1529,-158.7926 858.5215,-144.0736 828.0555,-133.7959"/>
<polygon fill="#191970" stroke="#191970" points="828.8635,-130.3747 818.2693,-130.4945 826.6259,-137.0074 828.8635,-130.3747"/>
</g>
<!-- Node33 -->
<g id="node34" class="node">
<title>Node33</title>
<polygon fill="none" stroke="#bfbfbf" points="948.0892,-112.5 948.0892,-131.5 1008.0892,-131.5 1008.0892,-112.5 948.0892,-112.5"/>
<text text-anchor="middle" x="978.0892" y="-119.5" font-family="FreeSans.ttf" font-size="10.00" fill="#000000">iostream</text>
</g>
<!-- Node32&#45;&gt;Node33 -->
<g id="edge55" class="edge">
<title>Node32&#45;&gt;Node33</title>
<path fill="none" stroke="#191970" d="M962.3987,-168.2455C964.9325,-160.7776 968.5069,-150.2427 971.6042,-141.1137"/>
<polygon fill="#191970" stroke="#191970" points="974.919,-142.237 974.8176,-131.6427 968.2901,-139.9879 974.919,-142.237"/>
</g>
</g>
</svg>
