<?xml version="1.0" encoding="UTF-8" standalone="no"?>
<!DOCTYPE svg PUBLIC "-//W3C//DTD SVG 1.1//EN"
 "http://www.w3.org/Graphics/SVG/1.1/DTD/svg11.dtd">
<!-- Generated by graphviz version 2.40.1 (20161225.0304)
 -->
<!-- Title: QuadraticLikeCost.h Pages: 1 -->
<svg width="1119pt" height="532pt"
 viewBox="0.00 0.00 1119.00 532.00" xmlns="http://www.w3.org/2000/svg" xmlns:xlink="http://www.w3.org/1999/xlink">
<g id="graph0" class="graph" transform="scale(1 1) rotate(0) translate(4 528)">
<title>QuadraticLikeCost.h</title>
<!-- Node0 -->
<g id="node1" class="node">
<title>Node0</title>
<polygon fill="#bfbfbf" stroke="#000000" points="322,-504.5 322,-523.5 437,-523.5 437,-504.5 322,-504.5"/>
<text text-anchor="middle" x="379.5" y="-511.5" font-family="FreeSans.ttf" font-size="10.00" fill="#000000">QuadraticLikeCost.h</text>
</g>
<!-- Node1 -->
<g id="node2" class="node">
<title>Node1</title>
<g id="a_node2"><a xlink:href="Cost_8h.html" target="_top" xlink:title="iDynTree/Cost.h">
<polygon fill="none" stroke="#000000" points="225,-224.5 225,-243.5 318,-243.5 318,-224.5 225,-224.5"/>
<text text-anchor="middle" x="271.5" y="-231.5" font-family="FreeSans.ttf" font-size="10.00" fill="#000000">iDynTree/Cost.h</text>
</a>
</g>
</g>
<!-- Node0&#45;&gt;Node1 -->
<g id="edge1" class="edge">
<title>Node0&#45;&gt;Node1</title>
<path fill="none" stroke="#191970" d="M321.7235,-509.369C256.2432,-500.5942 158.5,-475.2311 158.5,-402 158.5,-402 158.5,-402 158.5,-346 158.5,-299.5439 207.2737,-265.7874 240.7342,-248.0953"/>
<polygon fill="#191970" stroke="#191970" points="242.3823,-251.1838 249.7125,-243.534 239.2117,-244.943 242.3823,-251.1838"/>
</g>
<!-- Node9 -->
<g id="node10" class="node">
<title>Node9</title>
<g id="a_node10"><a xlink:href="TimeVaryingObject_8h.html" target="_top" xlink:title="iDynTree/TimeVaryingObject.h">
<polygon fill="none" stroke="#000000" points="297.5,-448.5 297.5,-467.5 461.5,-467.5 461.5,-448.5 297.5,-448.5"/>
<text text-anchor="middle" x="379.5" y="-455.5" font-family="FreeSans.ttf" font-size="10.00" fill="#000000">iDynTree/TimeVaryingObject.h</text>
</a>
</g>
</g>
<!-- Node0&#45;&gt;Node9 -->
<g id="edge11" class="edge">
<title>Node0&#45;&gt;Node9</title>
<path fill="none" stroke="#191970" d="M379.5,-504.2455C379.5,-496.9382 379.5,-486.6944 379.5,-477.7046"/>
<polygon fill="#191970" stroke="#191970" points="383.0001,-477.6426 379.5,-467.6427 376.0001,-477.6427 383.0001,-477.6426"/>
</g>
<!-- Node33 -->
<g id="node34" class="node">
<title>Node33</title>
<polygon fill="none" stroke="#bfbfbf" points="479.5,-448.5 479.5,-467.5 537.5,-467.5 537.5,-448.5 479.5,-448.5"/>
<text text-anchor="middle" x="508.5" y="-455.5" font-family="FreeSans.ttf" font-size="10.00" fill="#000000">memory</text>
</g>
<!-- Node0&#45;&gt;Node33 -->
<g id="edge62" class="edge">
<title>Node0&#45;&gt;Node33</title>
<path fill="none" stroke="#191970" d="M401.6759,-504.3733C422.4766,-495.3435 453.7917,-481.7494 477.1458,-471.6111"/>
<polygon fill="#191970" stroke="#191970" points="478.8343,-474.6938 486.6135,-467.5011 476.0468,-468.2727 478.8343,-474.6938"/>
</g>
<!-- Node2 -->
<g id="node3" class="node">
<title>Node2</title>
<polygon fill="none" stroke="#bfbfbf" points="460.5,-112.5 460.5,-131.5 504.5,-131.5 504.5,-112.5 460.5,-112.5"/>
<text text-anchor="middle" x="482.5" y="-119.5" font-family="FreeSans.ttf" font-size="10.00" fill="#000000">string</text>
</g>
<!-- Node1&#45;&gt;Node2 -->
<g id="edge2" class="edge">
<title>Node1&#45;&gt;Node2</title>
<path fill="none" stroke="#191970" d="M288.6539,-224.4546C312.0338,-211.4881 355.2604,-187.6685 392.5,-168 413.0544,-157.144 436.4352,-145.206 454.2138,-136.2126"/>
<polygon fill="#191970" stroke="#191970" points="456.111,-139.1756 463.4608,-131.5448 452.9565,-132.9266 456.111,-139.1756"/>
</g>
<!-- Node3 -->
<g id="node4" class="node">
<title>Node3</title>
<g id="a_node4"><a xlink:href="SparsityStructure_8h.html" target="_top" xlink:title="iDynTree/SparsityStructure.h">
<polygon fill="none" stroke="#000000" points="185,-168.5 185,-187.5 340,-187.5 340,-168.5 185,-168.5"/>
<text text-anchor="middle" x="262.5" y="-175.5" font-family="FreeSans.ttf" font-size="10.00" fill="#000000">iDynTree/SparsityStructure.h</text>
</a>
</g>
</g>
<!-- Node1&#45;&gt;Node3 -->
<g id="edge3" class="edge">
<title>Node1&#45;&gt;Node3</title>
<path fill="none" stroke="#191970" d="M269.9323,-224.2455C268.7579,-216.9382 267.1116,-206.6944 265.6668,-197.7046"/>
<polygon fill="#191970" stroke="#191970" points="269.0922,-196.9606 264.0497,-187.6427 262.1809,-198.0714 269.0922,-196.9606"/>
</g>
<!-- Node3&#45;&gt;Node2 -->
<g id="edge10" class="edge">
<title>Node3&#45;&gt;Node2</title>
<path fill="none" stroke="#191970" d="M302.0581,-168.4252C339.3712,-159.3193 396.8326,-145.1043 446.5,-132 447.7701,-131.6649 449.0645,-131.3202 450.3714,-130.9696"/>
<polygon fill="#191970" stroke="#191970" points="451.7122,-134.2319 460.4398,-128.2254 449.8714,-127.4783 451.7122,-134.2319"/>
</g>
<!-- Node4 -->
<g id="node5" class="node">
<title>Node4</title>
<g id="a_node5"><a xlink:href="Utils_8h.html" target="_top" xlink:title="iDynTree/Core/Utils.h">
<polygon fill="none" stroke="#000000" points="615,-56.5 615,-75.5 734,-75.5 734,-56.5 615,-56.5"/>
<text text-anchor="middle" x="674.5" y="-63.5" font-family="FreeSans.ttf" font-size="10.00" fill="#000000">iDynTree/Core/Utils.h</text>
</a>
</g>
</g>
<!-- Node3&#45;&gt;Node4 -->
<g id="edge4" class="edge">
<title>Node3&#45;&gt;Node4</title>
<path fill="none" stroke="#191970" d="M297.1561,-168.4616C327.017,-159.9168 371.0908,-146.5221 408.5,-132 428.1486,-124.3725 431.4888,-118.6179 451.5,-112 501.6394,-95.4183 560.1774,-83.6159 604.694,-76.1202"/>
<polygon fill="#191970" stroke="#191970" points="605.5346,-79.5289 614.831,-74.4468 604.3944,-72.6224 605.5346,-79.5289"/>
</g>
<!-- Node5 -->
<g id="node6" class="node">
<title>Node5</title>
<polygon fill="none" stroke="#bfbfbf" points="547,-.5 547,-19.5 600,-19.5 600,-.5 547,-.5"/>
<text text-anchor="middle" x="573.5" y="-7.5" font-family="FreeSans.ttf" font-size="10.00" fill="#000000">cstddef</text>
</g>
<!-- Node3&#45;&gt;Node5 -->
<g id="edge8" class="edge">
<title>Node3&#45;&gt;Node5</title>
<path fill="none" stroke="#191970" d="M280.1118,-168.4862C332.0561,-140.4263 484.8691,-57.8778 546.8884,-24.3754"/>
<polygon fill="#191970" stroke="#191970" points="548.561,-27.4499 555.6959,-19.6177 545.234,-21.2911 548.561,-27.4499"/>
</g>
<!-- Node7 -->
<g id="node8" class="node">
<title>Node7</title>
<polygon fill="none" stroke="#bfbfbf" points="184,-112.5 184,-131.5 231,-131.5 231,-112.5 184,-112.5"/>
<text text-anchor="middle" x="207.5" y="-119.5" font-family="FreeSans.ttf" font-size="10.00" fill="#000000">vector</text>
</g>
<!-- Node3&#45;&gt;Node7 -->
<g id="edge7" class="edge">
<title>Node3&#45;&gt;Node7</title>
<path fill="none" stroke="#191970" d="M252.9197,-168.2455C244.9542,-160.1352 233.4359,-148.4075 223.9921,-138.7919"/>
<polygon fill="#191970" stroke="#191970" points="226.4747,-136.3247 216.9705,-131.6427 221.4805,-141.2297 226.4747,-136.3247"/>
</g>
<!-- Node8 -->
<g id="node9" class="node">
<title>Node8</title>
<polygon fill="none" stroke="#bfbfbf" points="249.5,-112.5 249.5,-131.5 335.5,-131.5 335.5,-112.5 249.5,-112.5"/>
<text text-anchor="middle" x="292.5" y="-119.5" font-family="FreeSans.ttf" font-size="10.00" fill="#000000">unordered_set</text>
</g>
<!-- Node3&#45;&gt;Node8 -->
<g id="edge9" class="edge">
<title>Node3&#45;&gt;Node8</title>
<path fill="none" stroke="#191970" d="M267.7256,-168.2455C271.8123,-160.617 277.6135,-149.7881 282.575,-140.5267"/>
<polygon fill="#191970" stroke="#191970" points="285.6972,-142.1103 287.3343,-131.6427 279.5268,-138.8047 285.6972,-142.1103"/>
</g>
<!-- Node4&#45;&gt;Node5 -->
<g id="edge5" class="edge">
<title>Node4&#45;&gt;Node5</title>
<path fill="none" stroke="#191970" d="M656.9071,-56.2455C641.121,-47.4928 617.7361,-34.527 599.7413,-24.5496"/>
<polygon fill="#191970" stroke="#191970" points="601.3341,-21.4308 590.8913,-19.6427 597.9397,-27.5528 601.3341,-21.4308"/>
</g>
<!-- Node6 -->
<g id="node7" class="node">
<title>Node6</title>
<polygon fill="none" stroke="#bfbfbf" points="634.5,-.5 634.5,-19.5 714.5,-19.5 714.5,-.5 634.5,-.5"/>
<text text-anchor="middle" x="674.5" y="-7.5" font-family="FreeSans.ttf" font-size="10.00" fill="#000000">CoreExport.h</text>
</g>
<!-- Node4&#45;&gt;Node6 -->
<g id="edge6" class="edge">
<title>Node4&#45;&gt;Node6</title>
<path fill="none" stroke="#191970" d="M674.5,-56.2455C674.5,-48.9382 674.5,-38.6944 674.5,-29.7046"/>
<polygon fill="#191970" stroke="#191970" points="678.0001,-29.6426 674.5,-19.6427 671.0001,-29.6427 678.0001,-29.6426"/>
</g>
<!-- Node10 -->
<g id="node11" class="node">
<title>Node10</title>
<g id="a_node11"><a xlink:href="VectorDynSize_8h.html" target="_top" xlink:title="iDynTree/Core/VectorDynSize.h">
<polygon fill="none" stroke="#000000" points="0,-168.5 0,-187.5 167,-187.5 167,-168.5 0,-168.5"/>
<text text-anchor="middle" x="83.5" y="-175.5" font-family="FreeSans.ttf" font-size="10.00" fill="#000000">iDynTree/Core/VectorDynSize.h</text>
</a>
</g>
</g>
<!-- Node9&#45;&gt;Node10 -->
<g id="edge12" class="edge">
<title>Node9&#45;&gt;Node10</title>
<path fill="none" stroke="#191970" d="M324.594,-448.4348C270.6902,-435.5196 196.5,-406.7155 196.5,-346 196.5,-346 196.5,-346 196.5,-290 196.5,-243.5439 147.7263,-209.7874 114.2658,-192.0953"/>
<polygon fill="#191970" stroke="#191970" points="115.7883,-188.943 105.2875,-187.534 112.6177,-195.1838 115.7883,-188.943"/>
</g>
<!-- Node20 -->
<g id="node21" class="node">
<title>Node20</title>
<g id="a_node21"><a xlink:href="MatrixDynSize_8h.html" target="_top" xlink:title="iDynTree/Core/MatrixDynSize.h">
<polygon fill="none" stroke="#000000" points="586,-168.5 586,-187.5 753,-187.5 753,-168.5 586,-168.5"/>
<text text-anchor="middle" x="669.5" y="-175.5" font-family="FreeSans.ttf" font-size="10.00" fill="#000000">iDynTree/Core/MatrixDynSize.h</text>
</a>
</g>
</g>
<!-- Node9&#45;&gt;Node20 -->
<g id="edge24" class="edge">
<title>Node9&#45;&gt;Node20</title>
<path fill="none" stroke="#191970" d="M461.5838,-448.8898C644.2801,-428.0638 1068.5,-376.4296 1068.5,-346 1068.5,-346 1068.5,-346 1068.5,-290 1068.5,-238.2227 1020.6511,-243.0357 972.5,-224 952.4612,-216.078 836.456,-199.7626 753.9608,-188.8484"/>
<polygon fill="#191970" stroke="#191970" points="754.1944,-185.349 743.8227,-187.5119 753.2795,-192.2889 754.1944,-185.349"/>
</g>
<!-- Node22 -->
<g id="node23" class="node">
<title>Node22</title>
<g id="a_node23"><a xlink:href="Transform_8h.html" target="_top" xlink:title="iDynTree/Core/Transform.h">
<polygon fill="none" stroke="#000000" points="417.5,-392.5 417.5,-411.5 563.5,-411.5 563.5,-392.5 417.5,-392.5"/>
<text text-anchor="middle" x="490.5" y="-399.5" font-family="FreeSans.ttf" font-size="10.00" fill="#000000">iDynTree/Core/Transform.h</text>
</a>
</g>
</g>
<!-- Node9&#45;&gt;Node22 -->
<g id="edge31" class="edge">
<title>Node9&#45;&gt;Node22</title>
<path fill="none" stroke="#191970" d="M398.5816,-448.3733C416.2402,-439.4644 442.7053,-426.1127 462.7098,-416.0203"/>
<polygon fill="#191970" stroke="#191970" points="464.3158,-419.1303 471.6674,-411.5011 461.1628,-412.8806 464.3158,-419.1303"/>
</g>
<!-- Node10&#45;&gt;Node2 -->
<g id="edge23" class="edge">
<title>Node10&#45;&gt;Node2</title>
<path fill="none" stroke="#191970" d="M151.6372,-168.4369C238.7137,-156.2156 385.8947,-135.5586 450.4883,-126.4929"/>
<polygon fill="#191970" stroke="#191970" points="451.0671,-129.946 460.4836,-125.09 450.0942,-123.014 451.0671,-129.946"/>
</g>
<!-- Node11 -->
<g id="node12" class="node">
<title>Node11</title>
<g id="a_node12"><a xlink:href="Span_8h.html" target="_top" xlink:title="iDynTree/Core/Span.h">
<polygon fill="none" stroke="#000000" points="245,-56.5 245,-75.5 366,-75.5 366,-56.5 245,-56.5"/>
<text text-anchor="middle" x="305.5" y="-63.5" font-family="FreeSans.ttf" font-size="10.00" fill="#000000">iDynTree/Core/Span.h</text>
</a>
</g>
</g>
<!-- Node10&#45;&gt;Node11 -->
<g id="edge13" class="edge">
<title>Node10&#45;&gt;Node11</title>
<path fill="none" stroke="#191970" d="M94.5711,-168.3136C111.0349,-154.3092 143.3825,-128.3028 174.5,-112 201.549,-97.8288 233.907,-86.4184 259.6958,-78.5067"/>
<polygon fill="#191970" stroke="#191970" points="261.0155,-81.7651 269.5906,-75.5426 259.0067,-75.0595 261.0155,-81.7651"/>
</g>
<!-- Node11&#45;&gt;Node5 -->
<g id="edge17" class="edge">
<title>Node11&#45;&gt;Node5</title>
<path fill="none" stroke="#191970" d="M359.6589,-56.4535C404.6255,-48.257 470.452,-35.6366 537.0001,-19.9827"/>
<polygon fill="#191970" stroke="#191970" points="537.9003,-23.3664 546.8215,-17.6513 536.2835,-16.5556 537.9003,-23.3664"/>
</g>
<!-- Node12 -->
<g id="node13" class="node">
<title>Node12</title>
<polygon fill="none" stroke="#bfbfbf" points="767.5,-.5 767.5,-19.5 819.5,-19.5 819.5,-.5 767.5,-.5"/>
<text text-anchor="middle" x="793.5" y="-7.5" font-family="FreeSans.ttf" font-size="10.00" fill="#000000">cassert</text>
</g>
<!-- Node11&#45;&gt;Node12 -->
<g id="edge14" class="edge">
<title>Node11&#45;&gt;Node12</title>
<path fill="none" stroke="#191970" d="M366.1422,-59.9467C447.5315,-51.6807 596.5646,-36.0471 723.5,-20 734.4832,-18.6115 746.4147,-16.9604 757.2635,-15.4039"/>
<polygon fill="#191970" stroke="#191970" points="757.8733,-18.8522 767.267,-13.9523 756.868,-11.9247 757.8733,-18.8522"/>
</g>
<!-- Node13 -->
<g id="node14" class="node">
<title>Node13</title>
<polygon fill="none" stroke="#bfbfbf" points="270.5,-.5 270.5,-19.5 334.5,-19.5 334.5,-.5 270.5,-.5"/>
<text text-anchor="middle" x="302.5" y="-7.5" font-family="FreeSans.ttf" font-size="10.00" fill="#000000">algorithm</text>
</g>
<!-- Node11&#45;&gt;Node13 -->
<g id="edge15" class="edge">
<title>Node11&#45;&gt;Node13</title>
<path fill="none" stroke="#191970" d="M304.9774,-56.2455C304.586,-48.9382 304.0372,-38.6944 303.5556,-29.7046"/>
<polygon fill="#191970" stroke="#191970" points="307.0466,-29.4411 303.0166,-19.6427 300.0566,-29.8156 307.0466,-29.4411"/>
</g>
<!-- Node14 -->
<g id="node15" class="node">
<title>Node14</title>
<polygon fill="none" stroke="#bfbfbf" points="352.5,-.5 352.5,-19.5 394.5,-19.5 394.5,-.5 352.5,-.5"/>
<text text-anchor="middle" x="373.5" y="-7.5" font-family="FreeSans.ttf" font-size="10.00" fill="#000000">array</text>
</g>
<!-- Node11&#45;&gt;Node14 -->
<g id="edge16" class="edge">
<title>Node11&#45;&gt;Node14</title>
<path fill="none" stroke="#191970" d="M317.3447,-56.2455C327.388,-47.9746 341.9995,-35.9416 353.8004,-26.2232"/>
<polygon fill="#191970" stroke="#191970" points="356.2967,-28.7015 361.791,-19.6427 351.8467,-23.298 356.2967,-28.7015"/>
</g>
<!-- Node15 -->
<g id="node16" class="node">
<title>Node15</title>
<polygon fill="none" stroke="#bfbfbf" points="413,-.5 413,-19.5 466,-19.5 466,-.5 413,-.5"/>
<text text-anchor="middle" x="439.5" y="-7.5" font-family="FreeSans.ttf" font-size="10.00" fill="#000000">iterator</text>
</g>
<!-- Node11&#45;&gt;Node15 -->
<g id="edge18" class="edge">
<title>Node11&#45;&gt;Node15</title>
<path fill="none" stroke="#191970" d="M328.5354,-56.3733C350.2388,-47.3032 382.9618,-33.6279 407.255,-23.4755"/>
<polygon fill="#191970" stroke="#191970" points="408.8881,-26.5865 416.7652,-19.5011 406.1889,-20.1278 408.8881,-26.5865"/>
</g>
<!-- Node16 -->
<g id="node17" class="node">
<title>Node16</title>
<polygon fill="none" stroke="#bfbfbf" points="484.5,-.5 484.5,-19.5 528.5,-19.5 528.5,-.5 484.5,-.5"/>
<text text-anchor="middle" x="506.5" y="-7.5" font-family="FreeSans.ttf" font-size="10.00" fill="#000000">limits</text>
</g>
<!-- Node11&#45;&gt;Node16 -->
<g id="edge19" class="edge">
<title>Node11&#45;&gt;Node16</title>
<path fill="none" stroke="#191970" d="M342.2033,-56.4304C376.5107,-47.386 429.1143,-33.2633 474.5,-20 474.6013,-19.9704 474.7027,-19.9407 474.8043,-19.911"/>
<polygon fill="#191970" stroke="#191970" points="475.9317,-23.2268 484.4986,-16.9933 473.9142,-16.5238 475.9317,-23.2268"/>
</g>
<!-- Node17 -->
<g id="node18" class="node">
<title>Node17</title>
<polygon fill="none" stroke="#bfbfbf" points="124,-.5 124,-19.5 189,-19.5 189,-.5 124,-.5"/>
<text text-anchor="middle" x="156.5" y="-7.5" font-family="FreeSans.ttf" font-size="10.00" fill="#000000">stdexcept</text>
</g>
<!-- Node11&#45;&gt;Node17 -->
<g id="edge20" class="edge">
<title>Node11&#45;&gt;Node17</title>
<path fill="none" stroke="#191970" d="M279.886,-56.3733C255.4313,-47.1822 218.3946,-33.2624 191.2791,-23.0713"/>
<polygon fill="#191970" stroke="#191970" points="192.3719,-19.7431 181.7798,-19.5011 189.9091,-26.2956 192.3719,-19.7431"/>
</g>
<!-- Node18 -->
<g id="node19" class="node">
<title>Node18</title>
<polygon fill="none" stroke="#bfbfbf" points="37,-.5 37,-19.5 106,-19.5 106,-.5 37,-.5"/>
<text text-anchor="middle" x="71.5" y="-7.5" font-family="FreeSans.ttf" font-size="10.00" fill="#000000">type_traits</text>
</g>
<!-- Node11&#45;&gt;Node18 -->
<g id="edge21" class="edge">
<title>Node11&#45;&gt;Node18</title>
<path fill="none" stroke="#191970" d="M265.5398,-56.4369C224.0898,-46.5172 159.4172,-31.04 116.271,-20.7144"/>
<polygon fill="#191970" stroke="#191970" points="116.8723,-17.2596 106.3322,-18.3359 115.243,-24.0673 116.8723,-17.2596"/>
</g>
<!-- Node19 -->
<g id="node20" class="node">
<title>Node19</title>
<polygon fill="none" stroke="#bfbfbf" points="207,-.5 207,-19.5 252,-19.5 252,-.5 207,-.5"/>
<text text-anchor="middle" x="229.5" y="-7.5" font-family="FreeSans.ttf" font-size="10.00" fill="#000000">utility</text>
</g>
<!-- Node11&#45;&gt;Node19 -->
<g id="edge22" class="edge">
<title>Node11&#45;&gt;Node19</title>
<path fill="none" stroke="#191970" d="M292.2618,-56.2455C280.819,-47.814 264.0704,-35.4729 250.7525,-25.6598"/>
<polygon fill="#191970" stroke="#191970" points="252.7133,-22.757 242.5865,-19.6427 248.5609,-28.3924 252.7133,-22.757"/>
</g>
<!-- Node20&#45;&gt;Node2 -->
<g id="edge25" class="edge">
<title>Node20&#45;&gt;Node2</title>
<path fill="none" stroke="#191970" d="M637.3536,-168.3733C603.0007,-158.0858 548.8645,-141.8739 514.5491,-131.5976"/>
<polygon fill="#191970" stroke="#191970" points="515.1634,-128.1281 504.5797,-128.6121 513.1552,-134.8338 515.1634,-128.1281"/>
</g>
<!-- Node21 -->
<g id="node22" class="node">
<title>Node21</title>
<g id="a_node22"><a xlink:href="MatrixView_8h.html" target="_top" xlink:title="iDynTree/Core/MatrixView.h">
<polygon fill="none" stroke="#000000" points="599,-112.5 599,-131.5 750,-131.5 750,-112.5 599,-112.5"/>
<text text-anchor="middle" x="674.5" y="-119.5" font-family="FreeSans.ttf" font-size="10.00" fill="#000000">iDynTree/Core/MatrixView.h</text>
</a>
</g>
</g>
<!-- Node20&#45;&gt;Node21 -->
<g id="edge26" class="edge">
<title>Node20&#45;&gt;Node21</title>
<path fill="none" stroke="#191970" d="M670.3709,-168.2455C671.0234,-160.9382 671.938,-150.6944 672.7407,-141.7046"/>
<polygon fill="#191970" stroke="#191970" points="676.2358,-141.9143 673.639,-131.6427 669.2635,-141.2918 676.2358,-141.9143"/>
</g>
<!-- Node21&#45;&gt;Node4 -->
<g id="edge30" class="edge">
<title>Node21&#45;&gt;Node4</title>
<path fill="none" stroke="#191970" d="M674.5,-112.2455C674.5,-104.9382 674.5,-94.6944 674.5,-85.7046"/>
<polygon fill="#191970" stroke="#191970" points="678.0001,-85.6426 674.5,-75.6427 671.0001,-85.6427 678.0001,-85.6426"/>
</g>
<!-- Node21&#45;&gt;Node11 -->
<g id="edge29" class="edge">
<title>Node21&#45;&gt;Node11</title>
<path fill="none" stroke="#191970" d="M611.4859,-112.4369C546.1898,-102.5274 444.3487,-87.0719 376.3109,-76.7464"/>
<polygon fill="#191970" stroke="#191970" points="376.5215,-73.2383 366.1095,-75.1982 375.4712,-80.1591 376.5215,-73.2383"/>
</g>
<!-- Node21&#45;&gt;Node12 -->
<g id="edge27" class="edge">
<title>Node21&#45;&gt;Node12</title>
<path fill="none" stroke="#191970" d="M691.8035,-112.3977C706.2459,-103.9108 726.9128,-90.633 742.5,-76 757.9155,-61.5282 772.3374,-42.0936 781.8841,-28.0655"/>
<polygon fill="#191970" stroke="#191970" points="784.8001,-30.0013 787.4151,-19.7342 778.9682,-26.1296 784.8001,-30.0013"/>
</g>
<!-- Node21&#45;&gt;Node18 -->
<g id="edge28" class="edge">
<title>Node21&#45;&gt;Node18</title>
<path fill="none" stroke="#191970" d="M598.6516,-116.6078C491.7502,-108.5707 302.3417,-92.6058 235.5,-76 186.1019,-63.7278 131.8791,-39.6572 99.8142,-24.2253"/>
<polygon fill="#191970" stroke="#191970" points="101.1268,-20.9715 90.6042,-19.7361 98.0597,-27.2638 101.1268,-20.9715"/>
</g>
<!-- Node22&#45;&gt;Node2 -->
<g id="edge61" class="edge">
<title>Node22&#45;&gt;Node2</title>
<path fill="none" stroke="#191970" d="M462.5804,-392.4524C445.6139,-385.1614 425.0587,-373.3723 413.5,-356 385.646,-314.1365 401.0645,-294.1566 397.5,-244 394.9983,-208.7981 398.8322,-195.8557 420.5,-168 430.0741,-155.6917 443.7515,-145.07 455.8251,-137.144"/>
<polygon fill="#191970" stroke="#191970" points="458.0277,-139.8947 464.6507,-131.6251 454.3163,-133.9596 458.0277,-139.8947"/>
</g>
<!-- Node23 -->
<g id="node24" class="node">
<title>Node23</title>
<g id="a_node24"><a xlink:href="Position_8h.html" target="_top" xlink:title="iDynTree/Core/Position.h">
<polygon fill="none" stroke="#000000" points="422.5,-336.5 422.5,-355.5 558.5,-355.5 558.5,-336.5 422.5,-336.5"/>
<text text-anchor="middle" x="490.5" y="-343.5" font-family="FreeSans.ttf" font-size="10.00" fill="#000000">iDynTree/Core/Position.h</text>
</a>
</g>
</g>
<!-- Node22&#45;&gt;Node23 -->
<g id="edge32" class="edge">
<title>Node22&#45;&gt;Node23</title>
<path fill="none" stroke="#191970" d="M490.5,-392.2455C490.5,-384.9382 490.5,-374.6944 490.5,-365.7046"/>
<polygon fill="#191970" stroke="#191970" points="494.0001,-365.6426 490.5,-355.6427 487.0001,-365.6427 494.0001,-365.6426"/>
</g>
<!-- Node28 -->
<g id="node29" class="node">
<title>Node28</title>
<g id="a_node29"><a xlink:href="Rotation_8h.html" target="_top" xlink:title="iDynTree/Core/Rotation.h">
<polygon fill="none" stroke="#000000" points="606,-280.5 606,-299.5 743,-299.5 743,-280.5 606,-280.5"/>
<text text-anchor="middle" x="674.5" y="-287.5" font-family="FreeSans.ttf" font-size="10.00" fill="#000000">iDynTree/Core/Rotation.h</text>
</a>
</g>
</g>
<!-- Node22&#45;&gt;Node28 -->
<g id="edge59" class="edge">
<title>Node22&#45;&gt;Node28</title>
<path fill="none" stroke="#191970" d="M506.7637,-392.3746C522.3757,-383.1137 546.6016,-368.6868 567.5,-356 596.0689,-338.6567 628.7432,-318.4477 650.3905,-305.0063"/>
<polygon fill="#191970" stroke="#191970" points="652.3023,-307.939 658.9486,-299.6881 648.6076,-301.9935 652.3023,-307.939"/>
</g>
<!-- Node31 -->
<g id="node32" class="node">
<title>Node31</title>
<g id="a_node32"><a xlink:href="MatrixFixSize_8h.html" target="_top" xlink:title="iDynTree/Core/MatrixFixSize.h">
<polygon fill="none" stroke="#000000" points="950,-168.5 950,-187.5 1111,-187.5 1111,-168.5 950,-168.5"/>
<text text-anchor="middle" x="1030.5" y="-175.5" font-family="FreeSans.ttf" font-size="10.00" fill="#000000">iDynTree/Core/MatrixFixSize.h</text>
</a>
</g>
</g>
<!-- Node22&#45;&gt;Node31 -->
<g id="edge60" class="edge">
<title>Node22&#45;&gt;Node31</title>
<path fill="none" stroke="#191970" d="M563.7782,-395.0974C668.4271,-381.917 862.1895,-344.822 990.5,-244 1005.9291,-231.8763 1016.7959,-212.0238 1023.2708,-197.2532"/>
<polygon fill="#191970" stroke="#191970" points="1026.6803,-198.1609 1027.2118,-187.5794 1020.1976,-195.5199 1026.6803,-198.1609"/>
</g>
<!-- Node23&#45;&gt;Node2 -->
<g id="edge58" class="edge">
<title>Node23&#45;&gt;Node2</title>
<path fill="none" stroke="#191970" d="M477.9008,-336.403C457.6137,-320.0594 418.4705,-284.6205 403.5,-244 400.4262,-235.6595 400.6238,-232.4107 403.5,-224 415.4117,-189.1672 444.5908,-157.0182 463.9557,-138.4643"/>
<polygon fill="#191970" stroke="#191970" points="466.3964,-140.9741 471.3301,-131.5981 461.6263,-135.8509 466.3964,-140.9741"/>
</g>
<!-- Node24 -->
<g id="node25" class="node">
<title>Node24</title>
<g id="a_node25"><a xlink:href="PositionRaw_8h.html" target="_top" xlink:title="iDynTree/Core/PositionRaw.h">
<polygon fill="none" stroke="#000000" points="412.5,-224.5 412.5,-243.5 568.5,-243.5 568.5,-224.5 412.5,-224.5"/>
<text text-anchor="middle" x="490.5" y="-231.5" font-family="FreeSans.ttf" font-size="10.00" fill="#000000">iDynTree/Core/PositionRaw.h</text>
</a>
</g>
</g>
<!-- Node23&#45;&gt;Node24 -->
<g id="edge33" class="edge">
<title>Node23&#45;&gt;Node24</title>
<path fill="none" stroke="#191970" d="M490.5,-336.4509C490.5,-318.184 490.5,-277.9553 490.5,-253.6976"/>
<polygon fill="#191970" stroke="#191970" points="494.0001,-253.5249 490.5,-243.5249 487.0001,-253.5249 494.0001,-253.5249"/>
</g>
<!-- Node23&#45;&gt;Node28 -->
<g id="edge43" class="edge">
<title>Node23&#45;&gt;Node28</title>
<path fill="none" stroke="#191970" d="M522.1307,-336.3733C552.8596,-327.021 599.676,-312.7725 633.3022,-302.5385"/>
<polygon fill="#191970" stroke="#191970" points="634.7344,-305.7612 643.282,-299.5011 632.6962,-299.0644 634.7344,-305.7612"/>
</g>
<!-- Node24&#45;&gt;Node2 -->
<g id="edge42" class="edge">
<title>Node24&#45;&gt;Node2</title>
<path fill="none" stroke="#191970" d="M489.8179,-224.4509C488.5131,-206.184 485.6397,-165.9553 483.907,-141.6976"/>
<polygon fill="#191970" stroke="#191970" points="487.384,-141.2501 483.1803,-131.5249 480.4018,-141.7489 487.384,-141.2501"/>
</g>
<!-- Node25 -->
<g id="node26" class="node">
<title>Node25</title>
<g id="a_node26"><a xlink:href="VectorFixSize_8h.html" target="_top" xlink:title="iDynTree/Core/VectorFixSize.h">
<polygon fill="none" stroke="#000000" points="771,-168.5 771,-187.5 932,-187.5 932,-168.5 771,-168.5"/>
<text text-anchor="middle" x="851.5" y="-175.5" font-family="FreeSans.ttf" font-size="10.00" fill="#000000">iDynTree/Core/VectorFixSize.h</text>
</a>
</g>
</g>
<!-- Node24&#45;&gt;Node25 -->
<g id="edge34" class="edge">
<title>Node24&#45;&gt;Node25</title>
<path fill="none" stroke="#191970" d="M552.1479,-224.4369C615.358,-214.6314 713.5742,-199.3957 780.1178,-189.0731"/>
<polygon fill="#191970" stroke="#191970" points="780.7611,-192.5153 790.1063,-187.5237 779.688,-185.598 780.7611,-192.5153"/>
</g>
<!-- Node25&#45;&gt;Node2 -->
<g id="edge37" class="edge">
<title>Node25&#45;&gt;Node2</title>
<path fill="none" stroke="#191970" d="M773.8061,-168.4883C691.1114,-158.1464 565.7916,-141.7889 518.5,-132 517.2495,-131.7411 515.9783,-131.463 514.6972,-131.17"/>
<polygon fill="#191970" stroke="#191970" points="515.4058,-127.7394 504.8554,-128.7083 513.7072,-134.5302 515.4058,-127.7394"/>
</g>
<!-- Node25&#45;&gt;Node4 -->
<g id="edge35" class="edge">
<title>Node25&#45;&gt;Node4</title>
<path fill="none" stroke="#191970" d="M838.884,-168.334C821.293,-155.023 788.2074,-130.5879 758.5,-112 740.3548,-100.6465 719.2172,-89.0793 702.6853,-80.3844"/>
<polygon fill="#191970" stroke="#191970" points="704.027,-77.1369 693.5413,-75.6202 700.7925,-83.3448 704.027,-77.1369"/>
</g>
<!-- Node25&#45;&gt;Node5 -->
<g id="edge40" class="edge">
<title>Node25&#45;&gt;Node5</title>
<path fill="none" stroke="#191970" d="M770.9145,-168.6871C698.654,-159.5644 602.0961,-145.1549 589.5,-132 563.3872,-104.7286 565.7054,-56.9586 569.6432,-29.9958"/>
<polygon fill="#191970" stroke="#191970" points="573.145,-30.2766 571.3518,-19.8346 566.242,-29.1158 573.145,-30.2766"/>
</g>
<!-- Node25&#45;&gt;Node11 -->
<g id="edge36" class="edge">
<title>Node25&#45;&gt;Node11</title>
<path fill="none" stroke="#191970" d="M774.5541,-168.4872C701.1623,-158.9648 596.1138,-144.0382 556.5,-132 536.3334,-125.8716 533.4637,-118.7601 513.5,-112 468.1939,-96.6584 415.5756,-85.0772 374.5979,-77.3727"/>
<polygon fill="#191970" stroke="#191970" points="375.1792,-73.9209 364.7098,-75.546 373.9076,-80.8044 375.1792,-73.9209"/>
</g>
<!-- Node25&#45;&gt;Node12 -->
<g id="edge39" class="edge">
<title>Node25&#45;&gt;Node12</title>
<path fill="none" stroke="#191970" d="M848.1817,-168.4883C844.9396,-159.1884 839.8688,-144.625 835.5,-132 822.9856,-95.8359 808.4699,-53.6086 800.197,-29.5152"/>
<polygon fill="#191970" stroke="#191970" points="803.422,-28.1301 796.8648,-19.8082 796.8013,-30.4029 803.422,-28.1301"/>
</g>
<!-- Node26 -->
<g id="node27" class="node">
<title>Node26</title>
<polygon fill="none" stroke="#bfbfbf" points="912.5,-112.5 912.5,-131.5 968.5,-131.5 968.5,-112.5 912.5,-112.5"/>
<text text-anchor="middle" x="940.5" y="-119.5" font-family="FreeSans.ttf" font-size="10.00" fill="#000000">sstream</text>
</g>
<!-- Node25&#45;&gt;Node26 -->
<g id="edge38" class="edge">
<title>Node25&#45;&gt;Node26</title>
<path fill="none" stroke="#191970" d="M867.0026,-168.2455C880.658,-159.6534 900.7657,-147.0014 916.4989,-137.1018"/>
<polygon fill="#191970" stroke="#191970" points="918.5751,-139.9307 925.175,-131.6427 914.8471,-134.006 918.5751,-139.9307"/>
</g>
<!-- Node27 -->
<g id="node28" class="node">
<title>Node27</title>
<polygon fill="none" stroke="#bfbfbf" points="844.5,-112.5 844.5,-131.5 894.5,-131.5 894.5,-112.5 844.5,-112.5"/>
<text text-anchor="middle" x="869.5" y="-119.5" font-family="FreeSans.ttf" font-size="10.00" fill="#000000">cstring</text>
</g>
<!-- Node25&#45;&gt;Node27 -->
<g id="edge41" class="edge">
<title>Node25&#45;&gt;Node27</title>
<path fill="none" stroke="#191970" d="M854.6354,-168.2455C857.01,-160.8579 860.3493,-150.4689 863.2615,-141.4087"/>
<polygon fill="#191970" stroke="#191970" points="866.6725,-142.234 866.4006,-131.6427 860.0083,-140.0919 866.6725,-142.234"/>
</g>
<!-- Node28&#45;&gt;Node2 -->
<g id="edge44" class="edge">
<title>Node28&#45;&gt;Node2</title>
<path fill="none" stroke="#191970" d="M660.0752,-280.4389C634.6968,-263.3165 580.9229,-225.6749 540.5,-188 524.2359,-172.8416 507.691,-153.5502 496.4569,-139.7454"/>
<polygon fill="#191970" stroke="#191970" points="499.1864,-137.5545 490.1983,-131.945 493.7265,-141.9351 499.1864,-137.5545"/>
</g>
<!-- Node28&#45;&gt;Node25 -->
<g id="edge57" class="edge">
<title>Node28&#45;&gt;Node25</title>
<path fill="none" stroke="#191970" d="M743.1543,-284.0835C826.4741,-276.1955 957.7409,-261.2122 972.5,-244 994.804,-217.9889 954.2992,-200.4269 914.2713,-190.0001"/>
<polygon fill="#191970" stroke="#191970" points="914.9628,-186.5657 904.4153,-187.5657 913.2843,-193.3615 914.9628,-186.5657"/>
</g>
<!-- Node29 -->
<g id="node30" class="node">
<title>Node29</title>
<g id="a_node30"><a xlink:href="GeomVector3_8h.html" target="_top" xlink:title="iDynTree/Core/GeomVector3.h">
<polygon fill="none" stroke="#000000" points="801,-224.5 801,-243.5 964,-243.5 964,-224.5 801,-224.5"/>
<text text-anchor="middle" x="882.5" y="-231.5" font-family="FreeSans.ttf" font-size="10.00" fill="#000000">iDynTree/Core/GeomVector3.h</text>
</a>
</g>
</g>
<!-- Node28&#45;&gt;Node29 -->
<g id="edge45" class="edge">
<title>Node28&#45;&gt;Node29</title>
<path fill="none" stroke="#191970" d="M710.2565,-280.3733C745.4426,-270.9001 799.2881,-256.4032 837.3956,-246.1435"/>
<polygon fill="#191970" stroke="#191970" points="838.4639,-249.4806 847.2101,-243.5011 836.644,-242.7213 838.4639,-249.4806"/>
</g>
<!-- Node30 -->
<g id="node31" class="node">
<title>Node30</title>
<g id="a_node31"><a xlink:href="RotationRaw_8h.html" target="_top" xlink:title="iDynTree/Core/RotationRaw.h">
<polygon fill="none" stroke="#000000" points="624.5,-224.5 624.5,-243.5 782.5,-243.5 782.5,-224.5 624.5,-224.5"/>
<text text-anchor="middle" x="703.5" y="-231.5" font-family="FreeSans.ttf" font-size="10.00" fill="#000000">iDynTree/Core/RotationRaw.h</text>
</a>
</g>
</g>
<!-- Node28&#45;&gt;Node30 -->
<g id="edge47" class="edge">
<title>Node28&#45;&gt;Node30</title>
<path fill="none" stroke="#191970" d="M679.5514,-280.2455C683.5019,-272.617 689.1097,-261.7881 693.9058,-252.5267"/>
<polygon fill="#191970" stroke="#191970" points="697.0159,-254.1321 698.5065,-243.6427 690.7999,-250.9131 697.0159,-254.1321"/>
</g>
<!-- Node29&#45;&gt;Node25 -->
<g id="edge46" class="edge">
<title>Node29&#45;&gt;Node25</title>
<path fill="none" stroke="#191970" d="M877.1002,-224.2455C872.8773,-216.617 866.8827,-205.7881 861.7559,-196.5267"/>
<polygon fill="#191970" stroke="#191970" points="864.7432,-194.6965 856.8379,-187.6427 858.619,-198.0867 864.7432,-194.6965"/>
</g>
<!-- Node30&#45;&gt;Node2 -->
<g id="edge56" class="edge">
<title>Node30&#45;&gt;Node2</title>
<path fill="none" stroke="#191970" d="M669.8589,-224.4912C643.6542,-216.4569 606.7672,-203.7509 576.5,-188 549.138,-173.761 520.522,-152.6321 502.1577,-138.1387"/>
<polygon fill="#191970" stroke="#191970" points="504.0091,-135.1372 494.0165,-131.616 499.6322,-140.6001 504.0091,-135.1372"/>
</g>
<!-- Node30&#45;&gt;Node31 -->
<g id="edge48" class="edge">
<title>Node30&#45;&gt;Node31</title>
<path fill="none" stroke="#191970" d="M759.3418,-224.4369C816.2458,-214.6918 904.4696,-199.5832 964.7236,-189.2645"/>
<polygon fill="#191970" stroke="#191970" points="965.6229,-192.6615 974.8886,-187.5237 964.4412,-185.7619 965.6229,-192.6615"/>
</g>
<!-- Node31&#45;&gt;Node2 -->
<g id="edge53" class="edge">
<title>Node31&#45;&gt;Node2</title>
<path fill="none" stroke="#191970" d="M949.5513,-168.9649C946.4957,-168.6368 943.4704,-168.3142 940.5,-168 781.0558,-151.1354 590.2187,-132.451 515.1291,-125.1578"/>
<polygon fill="#191970" stroke="#191970" points="515.199,-121.6482 504.9076,-124.166 514.5228,-128.6155 515.199,-121.6482"/>
</g>
<!-- Node31&#45;&gt;Node4 -->
<g id="edge49" class="edge">
<title>Node31&#45;&gt;Node4</title>
<path fill="none" stroke="#191970" d="M1025.8418,-168.4764C1018.0609,-153.6853 1000.9328,-125.4927 977.5,-112 938.8879,-89.767 821.1121,-76.9364 744.2798,-70.7215"/>
<polygon fill="#191970" stroke="#191970" points="744.4341,-67.2229 734.1894,-69.9241 743.8826,-74.2011 744.4341,-67.2229"/>
</g>
<!-- Node31&#45;&gt;Node12 -->
<g id="edge51" class="edge">
<title>Node31&#45;&gt;Node12</title>
<path fill="none" stroke="#191970" d="M1051.5218,-168.5C1075.4719,-156.3297 1109.3646,-134.1505 1093.5,-112 1062.0536,-68.0939 902.3721,-31.5365 829.6579,-16.8827"/>
<polygon fill="#191970" stroke="#191970" points="830.0766,-13.3975 819.5862,-14.8813 828.7122,-20.2633 830.0766,-13.3975"/>
</g>
<!-- Node31&#45;&gt;Node21 -->
<g id="edge50" class="edge">
<title>Node31&#45;&gt;Node21</title>
<path fill="none" stroke="#191970" d="M969.7059,-168.4369C907.4993,-158.6516 810.9131,-143.4582 745.2982,-133.1368"/>
<polygon fill="#191970" stroke="#191970" points="745.4658,-129.6202 735.0433,-131.5237 744.378,-136.5352 745.4658,-129.6202"/>
</g>
<!-- Node31&#45;&gt;Node26 -->
<g id="edge55" class="edge">
<title>Node31&#45;&gt;Node26</title>
<path fill="none" stroke="#191970" d="M1014.8232,-168.2455C1001.0144,-159.6534 980.6807,-147.0014 964.7708,-137.1018"/>
<polygon fill="#191970" stroke="#191970" points="966.3368,-133.954 955.9972,-131.6427 962.6387,-139.8974 966.3368,-133.954"/>
</g>
<!-- Node31&#45;&gt;Node27 -->
<g id="edge52" class="edge">
<title>Node31&#45;&gt;Node27</title>
<path fill="none" stroke="#191970" d="M1002.8231,-168.3733C975.5209,-158.8769 933.7049,-144.3321 904.1959,-134.0682"/>
<polygon fill="#191970" stroke="#191970" points="905.2939,-130.7444 894.6991,-130.7649 902.9942,-137.3559 905.2939,-130.7444"/>
</g>
<!-- Node32 -->
<g id="node33" class="node">
<title>Node32</title>
<polygon fill="none" stroke="#bfbfbf" points="1024.5,-112.5 1024.5,-131.5 1084.5,-131.5 1084.5,-112.5 1024.5,-112.5"/>
<text text-anchor="middle" x="1054.5" y="-119.5" font-family="FreeSans.ttf" font-size="10.00" fill="#000000">iostream</text>
</g>
<!-- Node31&#45;&gt;Node32 -->
<g id="edge54" class="edge">
<title>Node31&#45;&gt;Node32</title>
<path fill="none" stroke="#191970" d="M1034.6805,-168.2455C1037.881,-160.7776 1042.396,-150.2427 1046.3084,-141.1137"/>
<polygon fill="#191970" stroke="#191970" points="1049.6452,-142.2129 1050.3674,-131.6427 1043.2112,-139.4554 1049.6452,-142.2129"/>
</g>
</g>
</svg>
