<?xml version="1.0" encoding="UTF-8" standalone="no"?>
<!DOCTYPE svg PUBLIC "-//W3C//DTD SVG 1.1//EN"
 "http://www.w3.org/Graphics/SVG/1.1/DTD/svg11.dtd">
<!-- Generated by graphviz version 2.40.1 (20161225.0304)
 -->
<!-- Title: RobotElement.cpp Pages: 1 -->
<svg width="1976pt" height="711pt"
 viewBox="0.00 0.00 1976.00 711.00" xmlns="http://www.w3.org/2000/svg" xmlns:xlink="http://www.w3.org/1999/xlink">
<g id="graph0" class="graph" transform="scale(1 1) rotate(0) translate(4 707)">
<title>RobotElement.cpp</title>
<!-- Node0 -->
<g id="node1" class="node">
<title>Node0</title>
<polygon fill="#bfbfbf" stroke="#000000" points="819.5,-683.5 819.5,-702.5 924.5,-702.5 924.5,-683.5 819.5,-683.5"/>
<text text-anchor="middle" x="872" y="-690.5" font-family="FreeSans.ttf" font-size="10.00" fill="#000000">RobotElement.cpp</text>
</g>
<!-- Node1 -->
<g id="node2" class="node">
<title>Node1</title>
<g id="a_node2"><a xlink:href="RobotElement_8h.html" target="_top" xlink:title="RobotElement.h">
<polygon fill="none" stroke="#000000" points="463,-627.5 463,-646.5 557,-646.5 557,-627.5 463,-627.5"/>
<text text-anchor="middle" x="510" y="-634.5" font-family="FreeSans.ttf" font-size="10.00" fill="#000000">RobotElement.h</text>
</a>
</g>
</g>
<!-- Node0&#45;&gt;Node1 -->
<g id="edge1" class="edge">
<title>Node0&#45;&gt;Node1</title>
<path fill="none" stroke="#191970" d="M819.3621,-684.8571C752.3087,-674.4842 636.8318,-656.6204 567.5207,-645.8982"/>
<polygon fill="#191970" stroke="#191970" points="567.6419,-642.3754 557.2243,-644.3054 566.5717,-649.2931 567.6419,-642.3754"/>
</g>
<!-- Node8 -->
<g id="node9" class="node">
<title>Node8</title>
<g id="a_node9"><a xlink:href="JointElement_8h.html" target="_top" xlink:title="JointElement.h">
<polygon fill="none" stroke="#000000" points="232,-515.5 232,-534.5 320,-534.5 320,-515.5 232,-515.5"/>
<text text-anchor="middle" x="276" y="-522.5" font-family="FreeSans.ttf" font-size="10.00" fill="#000000">JointElement.h</text>
</a>
</g>
</g>
<!-- Node0&#45;&gt;Node8 -->
<g id="edge97" class="edge">
<title>Node0&#45;&gt;Node8</title>
<path fill="none" stroke="#191970" d="M819.1373,-690.1647C718.9673,-684.3439 505.2443,-669.6571 435,-647 387.2569,-631.6006 376.2598,-622.2284 337,-591 319.0003,-576.6826 301.5046,-556.9708 289.9003,-542.8239"/>
<polygon fill="#191970" stroke="#191970" points="292.4742,-540.4392 283.4845,-534.8325 287.0157,-544.8216 292.4742,-540.4392"/>
</g>
<!-- Node35 -->
<g id="node31" class="node">
<title>Node35</title>
<g id="a_node31"><a xlink:href="MaterialElement_8h.html" target="_top" xlink:title="MaterialElement.h">
<polygon fill="none" stroke="#000000" points="376,-515.5 376,-534.5 482,-534.5 482,-515.5 376,-515.5"/>
<text text-anchor="middle" x="429" y="-522.5" font-family="FreeSans.ttf" font-size="10.00" fill="#000000">MaterialElement.h</text>
</a>
</g>
</g>
<!-- Node0&#45;&gt;Node35 -->
<g id="edge123" class="edge">
<title>Node0&#45;&gt;Node35</title>
<path fill="none" stroke="#191970" d="M819.4566,-690.6359C713.1876,-685.369 480.5396,-671.1913 454,-647 425.6178,-621.1292 424.5858,-572.4254 426.6142,-545.0287"/>
<polygon fill="#191970" stroke="#191970" points="430.132,-545.0082 427.6,-534.7204 423.1638,-544.3418 430.132,-545.0082"/>
</g>
<!-- Node41 -->
<g id="node37" class="node">
<title>Node41</title>
<g id="a_node37"><a xlink:href="LinkElement_8h.html" target="_top" xlink:title="LinkElement.h">
<polygon fill="none" stroke="#000000" points="734,-627.5 734,-646.5 820,-646.5 820,-627.5 734,-627.5"/>
<text text-anchor="middle" x="777" y="-634.5" font-family="FreeSans.ttf" font-size="10.00" fill="#000000">LinkElement.h</text>
</a>
</g>
</g>
<!-- Node0&#45;&gt;Node41 -->
<g id="edge85" class="edge">
<title>Node0&#45;&gt;Node41</title>
<path fill="none" stroke="#191970" d="M855.4523,-683.2455C840.7401,-674.5731 819.0112,-661.7645 802.1495,-651.825"/>
<polygon fill="#191970" stroke="#191970" points="803.7502,-648.7057 793.3581,-646.6427 800.1954,-654.736 803.7502,-648.7057"/>
</g>
<!-- Node53 -->
<g id="node45" class="node">
<title>Node53</title>
<g id="a_node45"><a xlink:href="SensorElement_8h.html" target="_top" xlink:title="SensorElement.h">
<polygon fill="none" stroke="#000000" points="896.5,-627.5 896.5,-646.5 995.5,-646.5 995.5,-627.5 896.5,-627.5"/>
<text text-anchor="middle" x="946" y="-634.5" font-family="FreeSans.ttf" font-size="10.00" fill="#000000">SensorElement.h</text>
</a>
</g>
</g>
<!-- Node0&#45;&gt;Node53 -->
<g id="edge98" class="edge">
<title>Node0&#45;&gt;Node53</title>
<path fill="none" stroke="#191970" d="M884.8898,-683.2455C895.9254,-674.8943 912.0292,-662.7076 924.9353,-652.9408"/>
<polygon fill="#191970" stroke="#191970" points="927.3959,-655.4681 933.2579,-646.6427 923.1717,-649.8862 927.3959,-655.4681"/>
</g>
<!-- Node54 -->
<g id="node46" class="node">
<title>Node54</title>
<g id="a_node46"><a xlink:href="Sensors_8h.html" target="_top" xlink:title="iDynTree/Sensors/Sensors.h">
<polygon fill="none" stroke="#000000" points="1765.5,-571.5 1765.5,-590.5 1916.5,-590.5 1916.5,-571.5 1765.5,-571.5"/>
<text text-anchor="middle" x="1841" y="-578.5" font-family="FreeSans.ttf" font-size="10.00" fill="#000000">iDynTree/Sensors/Sensors.h</text>
</a>
</g>
</g>
<!-- Node0&#45;&gt;Node54 -->
<g id="edge125" class="edge">
<title>Node0&#45;&gt;Node54</title>
<path fill="none" stroke="#191970" d="M924.9297,-685.5634C970.4806,-678.333 1037.5799,-665.6867 1094,-647 1114.0083,-640.3731 1116.5623,-632.1524 1137,-627 1402.0639,-560.176 1478.6204,-614.1015 1751,-591 1752.4686,-590.8754 1753.9503,-590.7466 1755.4422,-590.6139"/>
<polygon fill="#191970" stroke="#191970" points="1755.7726,-594.0984 1765.4059,-589.6883 1755.125,-587.1284 1755.7726,-594.0984"/>
</g>
<!-- Node56 -->
<g id="node48" class="node">
<title>Node56</title>
<g id="a_node48"><a xlink:href="Model_8h.html" target="_top" xlink:title="iDynTree/Model/Model.h">
<polygon fill="none" stroke="#000000" points="1271.5,-515.5 1271.5,-534.5 1404.5,-534.5 1404.5,-515.5 1271.5,-515.5"/>
<text text-anchor="middle" x="1338" y="-522.5" font-family="FreeSans.ttf" font-size="10.00" fill="#000000">iDynTree/Model/Model.h</text>
</a>
</g>
</g>
<!-- Node0&#45;&gt;Node56 -->
<g id="edge124" class="edge">
<title>Node0&#45;&gt;Node56</title>
<path fill="none" stroke="#191970" d="M900.0744,-683.4557C927.0278,-674.2534 968.8638,-659.8675 1005,-647 1113.7892,-608.2621 1241.9162,-560.8001 1302.6497,-538.191"/>
<polygon fill="#191970" stroke="#191970" points="1304.0019,-541.4224 1312.1513,-534.652 1301.5586,-534.8626 1304.0019,-541.4224"/>
</g>
<!-- Node58 -->
<g id="node50" class="node">
<title>Node58</title>
<polygon fill="none" stroke="#bfbfbf" points="1146,-627.5 1146,-646.5 1232,-646.5 1232,-627.5 1146,-627.5"/>
<text text-anchor="middle" x="1189" y="-634.5" font-family="FreeSans.ttf" font-size="10.00" fill="#000000">unordered_set</text>
</g>
<!-- Node0&#45;&gt;Node58 -->
<g id="edge126" class="edge">
<title>Node0&#45;&gt;Node58</title>
<path fill="none" stroke="#191970" d="M924.702,-683.6899C983.1633,-673.3623 1076.9649,-656.7917 1135.6756,-646.4201"/>
<polygon fill="#191970" stroke="#191970" points="1136.6175,-649.808 1145.8561,-644.6216 1135.3997,-642.9147 1136.6175,-649.808"/>
</g>
<!-- Node2 -->
<g id="node3" class="node">
<title>Node2</title>
<g id="a_node3"><a xlink:href="XMLElement_8h.html" target="_top" xlink:title="iDynTree/XMLElement.h">
<polygon fill="none" stroke="#000000" points="502,-459.5 502,-478.5 634,-478.5 634,-459.5 502,-459.5"/>
<text text-anchor="middle" x="568" y="-466.5" font-family="FreeSans.ttf" font-size="10.00" fill="#000000">iDynTree/XMLElement.h</text>
</a>
</g>
</g>
<!-- Node1&#45;&gt;Node2 -->
<g id="edge2" class="edge">
<title>Node1&#45;&gt;Node2</title>
<path fill="none" stroke="#191970" d="M510.4615,-627.3942C511.7784,-606.2228 516.6654,-554.3043 534,-515 538.5209,-504.7495 545.6598,-494.6003 552.2316,-486.4538"/>
<polygon fill="#191970" stroke="#191970" points="554.9483,-488.6616 558.7411,-478.7689 549.607,-484.1372 554.9483,-488.6616"/>
</g>
<!-- Node6 -->
<g id="node7" class="node">
<title>Node6</title>
<polygon fill="none" stroke="#bfbfbf" points="350.5,-403.5 350.5,-422.5 443.5,-422.5 443.5,-403.5 350.5,-403.5"/>
<text text-anchor="middle" x="397" y="-410.5" font-family="FreeSans.ttf" font-size="10.00" fill="#000000">unordered_map</text>
</g>
<!-- Node1&#45;&gt;Node6 -->
<g id="edge83" class="edge">
<title>Node1&#45;&gt;Node6</title>
<path fill="none" stroke="#191970" d="M484.323,-627.443C450.2809,-613.2045 391.6444,-582.8499 367,-535 349.4549,-500.9343 370.1185,-456.1693 384.8121,-431.4326"/>
<polygon fill="#191970" stroke="#191970" points="387.9277,-433.0507 390.2447,-422.7123 381.9863,-429.3494 387.9277,-433.0507"/>
</g>
<!-- Node7 -->
<g id="node8" class="node">
<title>Node7</title>
<polygon fill="none" stroke="#bfbfbf" points="904.5,-403.5 904.5,-422.5 951.5,-422.5 951.5,-403.5 904.5,-403.5"/>
<text text-anchor="middle" x="928" y="-410.5" font-family="FreeSans.ttf" font-size="10.00" fill="#000000">vector</text>
</g>
<!-- Node1&#45;&gt;Node7 -->
<g id="edge84" class="edge">
<title>Node1&#45;&gt;Node7</title>
<path fill="none" stroke="#191970" d="M557.2382,-632.6485C623.3032,-625.9228 739.3234,-611.5926 776,-591 845.2827,-552.1002 897.4025,-468.7844 918.1601,-431.5931"/>
<polygon fill="#191970" stroke="#191970" points="921.2449,-433.2467 922.9634,-422.7922 915.1004,-429.8932 921.2449,-433.2467"/>
</g>
<!-- Node1&#45;&gt;Node8 -->
<g id="edge8" class="edge">
<title>Node1&#45;&gt;Node8</title>
<path fill="none" stroke="#191970" d="M474.3201,-627.4316C446.7433,-619.4055 408.0046,-606.7382 376,-591 346.8626,-576.6717 316.0793,-555.2787 296.4901,-540.7634"/>
<polygon fill="#191970" stroke="#191970" points="298.4209,-537.8363 288.3235,-534.6282 294.2165,-543.433 298.4209,-537.8363"/>
</g>
<!-- Node1&#45;&gt;Node35 -->
<g id="edge61" class="edge">
<title>Node1&#45;&gt;Node35</title>
<path fill="none" stroke="#191970" d="M503.094,-627.4509C489.5244,-608.688 459.1976,-566.7548 441.8428,-542.758"/>
<polygon fill="#191970" stroke="#191970" points="444.5848,-540.5768 435.8885,-534.5249 438.9127,-544.679 444.5848,-540.5768"/>
</g>
<!-- Node36 -->
<g id="node32" class="node">
<title>Node36</title>
<g id="a_node32"><a xlink:href="VisualElement_8h.html" target="_top" xlink:title="VisualElement.h">
<polygon fill="none" stroke="#000000" points="671,-571.5 671,-590.5 767,-590.5 767,-571.5 671,-571.5"/>
<text text-anchor="middle" x="719" y="-578.5" font-family="FreeSans.ttf" font-size="10.00" fill="#000000">VisualElement.h</text>
</a>
</g>
</g>
<!-- Node1&#45;&gt;Node36 -->
<g id="edge66" class="edge">
<title>Node1&#45;&gt;Node36</title>
<path fill="none" stroke="#191970" d="M545.9284,-627.3733C581.2837,-617.9001 635.388,-603.4032 673.6788,-593.1435"/>
<polygon fill="#191970" stroke="#191970" points="674.787,-596.4701 683.5405,-590.5011 672.9753,-589.7086 674.787,-596.4701"/>
</g>
<!-- Node3 -->
<g id="node4" class="node">
<title>Node3</title>
<polygon fill="none" stroke="#bfbfbf" points="500.5,-403.5 500.5,-422.5 565.5,-422.5 565.5,-403.5 500.5,-403.5"/>
<text text-anchor="middle" x="533" y="-410.5" font-family="FreeSans.ttf" font-size="10.00" fill="#000000">functional</text>
</g>
<!-- Node2&#45;&gt;Node3 -->
<g id="edge3" class="edge">
<title>Node2&#45;&gt;Node3</title>
<path fill="none" stroke="#191970" d="M561.9035,-459.2455C557.0855,-451.5367 550.2249,-440.5598 544.3968,-431.2348"/>
<polygon fill="#191970" stroke="#191970" points="547.2947,-429.2677 539.0267,-422.6427 541.3587,-432.9777 547.2947,-429.2677"/>
</g>
<!-- Node4 -->
<g id="node5" class="node">
<title>Node4</title>
<polygon fill="none" stroke="#bfbfbf" points="584,-403.5 584,-422.5 642,-422.5 642,-403.5 584,-403.5"/>
<text text-anchor="middle" x="613" y="-410.5" font-family="FreeSans.ttf" font-size="10.00" fill="#000000">memory</text>
</g>
<!-- Node2&#45;&gt;Node4 -->
<g id="edge4" class="edge">
<title>Node2&#45;&gt;Node4</title>
<path fill="none" stroke="#191970" d="M575.8384,-459.2455C582.162,-451.3761 591.2224,-440.101 598.8136,-430.6542"/>
<polygon fill="#191970" stroke="#191970" points="601.7158,-432.6302 605.2514,-422.6427 596.2592,-428.2454 601.7158,-432.6302"/>
</g>
<!-- Node5 -->
<g id="node6" class="node">
<title>Node5</title>
<polygon fill="none" stroke="#bfbfbf" points="616,-112.5 616,-131.5 660,-131.5 660,-112.5 616,-112.5"/>
<text text-anchor="middle" x="638" y="-119.5" font-family="FreeSans.ttf" font-size="10.00" fill="#000000">string</text>
</g>
<!-- Node2&#45;&gt;Node5 -->
<g id="edge5" class="edge">
<title>Node2&#45;&gt;Node5</title>
<path fill="none" stroke="#191970" d="M552.1801,-459.3041C525.5904,-443.1129 472.8967,-411.5056 453,-403 401.0171,-380.7778 370.0654,-407.8649 331,-367 306.6427,-341.5208 312,-325.2487 312,-290 312,-290 312,-290 312,-234 312,-172.2973 523.5252,-137.3279 605.8032,-126.0597"/>
<polygon fill="#191970" stroke="#191970" points="606.4021,-129.5108 615.849,-124.7143 605.4729,-122.5727 606.4021,-129.5108"/>
</g>
<!-- Node2&#45;&gt;Node6 -->
<g id="edge6" class="edge">
<title>Node2&#45;&gt;Node6</title>
<path fill="none" stroke="#191970" d="M538.6041,-459.3733C510.1693,-450.0613 466.9123,-435.8953 435.6919,-425.671"/>
<polygon fill="#191970" stroke="#191970" points="436.605,-422.2872 426.0124,-422.5011 434.4264,-428.9396 436.605,-422.2872"/>
</g>
<!-- Node2&#45;&gt;Node7 -->
<g id="edge7" class="edge">
<title>Node2&#45;&gt;Node7</title>
<path fill="none" stroke="#191970" d="M629.4772,-459.4369C705.824,-447.5607 833.3811,-427.7185 894.005,-418.2881"/>
<polygon fill="#191970" stroke="#191970" points="894.8322,-421.7016 904.1753,-416.7061 893.7562,-414.7848 894.8322,-421.7016"/>
</g>
<!-- Node8&#45;&gt;Node2 -->
<g id="edge9" class="edge">
<title>Node8&#45;&gt;Node2</title>
<path fill="none" stroke="#191970" d="M320.0315,-516.5556C370.1271,-506.9482 452.213,-491.2057 508.1042,-480.4869"/>
<polygon fill="#191970" stroke="#191970" points="509.0601,-483.8674 518.2219,-478.5465 507.7416,-476.9927 509.0601,-483.8674"/>
</g>
<!-- Node8&#45;&gt;Node4 -->
<g id="edge58" class="edge">
<title>Node8&#45;&gt;Node4</title>
<path fill="none" stroke="#191970" d="M302.5061,-515.4185C338.9776,-502.3092 406.7445,-478.2184 465,-459 501.9611,-446.8066 544.4045,-433.7065 574.3346,-424.6172"/>
<polygon fill="#191970" stroke="#191970" points="575.4233,-427.9445 583.9791,-421.6956 573.3938,-421.2452 575.4233,-427.9445"/>
</g>
<!-- Node8&#45;&gt;Node5 -->
<g id="edge59" class="edge">
<title>Node8&#45;&gt;Node5</title>
<path fill="none" stroke="#191970" d="M272.9926,-515.4204C258.4765,-467.0964 200.9771,-249.2047 317,-168 363.1748,-135.6822 533.4789,-125.7785 605.4999,-122.997"/>
<polygon fill="#191970" stroke="#191970" points="605.9183,-126.4842 615.7844,-122.6229 605.6637,-119.4888 605.9183,-126.4842"/>
</g>
<!-- Node8&#45;&gt;Node6 -->
<g id="edge60" class="edge">
<title>Node8&#45;&gt;Node6</title>
<path fill="none" stroke="#191970" d="M286.3689,-515.0877C299.9749,-502.1124 324.6352,-478.7027 346,-459 356.6828,-449.1483 368.753,-438.2511 378.4683,-429.5368"/>
<polygon fill="#191970" stroke="#191970" points="380.8766,-432.0785 385.9932,-422.801 376.2079,-426.8628 380.8766,-432.0785"/>
</g>
<!-- Node9 -->
<g id="node10" class="node">
<title>Node9</title>
<g id="a_node10"><a xlink:href="Axis_8h.html" target="_top" xlink:title="iDynTree/Core/Axis.h">
<polygon fill="none" stroke="#000000" points="78,-403.5 78,-422.5 196,-422.5 196,-403.5 78,-403.5"/>
<text text-anchor="middle" x="137" y="-410.5" font-family="FreeSans.ttf" font-size="10.00" fill="#000000">iDynTree/Core/Axis.h</text>
</a>
</g>
</g>
<!-- Node8&#45;&gt;Node9 -->
<g id="edge10" class="edge">
<title>Node8&#45;&gt;Node9</title>
<path fill="none" stroke="#191970" d="M254.1695,-515.3383C236.8637,-507.0924 212.5847,-494.1779 194,-479 176.8777,-465.0164 160.7441,-445.5131 150.0416,-431.3358"/>
<polygon fill="#191970" stroke="#191970" points="152.5815,-428.8819 143.837,-422.9 146.9425,-433.0295 152.5815,-428.8819"/>
</g>
<!-- Node34 -->
<g id="node30" class="node">
<title>Node34</title>
<g id="a_node30"><a xlink:href="Transform_8h.html" target="_top" xlink:title="iDynTree/Core/Transform.h">
<polygon fill="none" stroke="#000000" points="698,-403.5 698,-422.5 844,-422.5 844,-403.5 698,-403.5"/>
<text text-anchor="middle" x="771" y="-410.5" font-family="FreeSans.ttf" font-size="10.00" fill="#000000">iDynTree/Core/Transform.h</text>
</a>
</g>
</g>
<!-- Node8&#45;&gt;Node34 -->
<g id="edge53" class="edge">
<title>Node8&#45;&gt;Node34</title>
<path fill="none" stroke="#191970" d="M320.2784,-515.5767C355.8437,-507.4657 406.8043,-494.6163 450,-479 469.8216,-471.834 472.8621,-465.222 493,-459 556.8019,-439.287 631.6046,-427.5179 687.5362,-420.8258"/>
<polygon fill="#191970" stroke="#191970" points="688.2259,-424.2692 697.7533,-419.6345 687.4152,-417.3163 688.2259,-424.2692"/>
</g>
<!-- Node9&#45;&gt;Node5 -->
<g id="edge11" class="edge">
<title>Node9&#45;&gt;Node5</title>
<path fill="none" stroke="#191970" d="M126.6387,-403.3658C96.88,-374.5147 15.8497,-286.9195 57,-224 90.9877,-172.0323 124.9412,-183.7716 185,-168 264.9,-147.018 516.2803,-129.6353 605.8836,-123.9602"/>
<polygon fill="#191970" stroke="#191970" points="606.2252,-127.4458 615.9865,-123.3267 605.787,-120.4595 606.2252,-127.4458"/>
</g>
<!-- Node10 -->
<g id="node11" class="node">
<title>Node10</title>
<g id="a_node11"><a xlink:href="Direction_8h.html" target="_top" xlink:title="iDynTree/Core/Direction.h">
<polygon fill="none" stroke="#000000" points="66.5,-224.5 66.5,-243.5 207.5,-243.5 207.5,-224.5 66.5,-224.5"/>
<text text-anchor="middle" x="137" y="-231.5" font-family="FreeSans.ttf" font-size="10.00" fill="#000000">iDynTree/Core/Direction.h</text>
</a>
</g>
</g>
<!-- Node9&#45;&gt;Node10 -->
<g id="edge12" class="edge">
<title>Node9&#45;&gt;Node10</title>
<path fill="none" stroke="#191970" d="M137,-403.3762C137,-375.2097 137,-292.5126 137,-254.0713"/>
<polygon fill="#191970" stroke="#191970" points="140.5001,-253.6714 137,-243.6714 133.5001,-253.6714 140.5001,-253.6714"/>
</g>
<!-- Node12 -->
<g id="node13" class="node">
<title>Node12</title>
<g id="a_node13"><a xlink:href="Utils_8h.html" target="_top" xlink:title="iDynTree/Core/Utils.h">
<polygon fill="none" stroke="#000000" points="1018.5,-56.5 1018.5,-75.5 1137.5,-75.5 1137.5,-56.5 1018.5,-56.5"/>
<text text-anchor="middle" x="1078" y="-63.5" font-family="FreeSans.ttf" font-size="10.00" fill="#000000">iDynTree/Core/Utils.h</text>
</a>
</g>
</g>
<!-- Node9&#45;&gt;Node12 -->
<g id="edge52" class="edge">
<title>Node9&#45;&gt;Node12</title>
<path fill="none" stroke="#191970" d="M110.9089,-403.3762C71.1596,-386.8303 0,-348.974 0,-290 0,-290 0,-290 0,-178 0,-20.1396 192.3705,-131.675 349,-112 589.7277,-81.761 877.803,-71.0278 1008.0062,-67.5345"/>
<polygon fill="#191970" stroke="#191970" points="1008.3282,-71.0274 1018.233,-67.2664 1008.1447,-64.0298 1008.3282,-71.0274"/>
</g>
<!-- Node26 -->
<g id="node22" class="node">
<title>Node26</title>
<g id="a_node22"><a xlink:href="Position_8h.html" target="_top" xlink:title="iDynTree/Core/Position.h">
<polygon fill="none" stroke="#000000" points="340,-342 340,-361 476,-361 476,-342 340,-342"/>
<text text-anchor="middle" x="408" y="-349" font-family="FreeSans.ttf" font-size="10.00" fill="#000000">iDynTree/Core/Position.h</text>
</a>
</g>
</g>
<!-- Node9&#45;&gt;Node26 -->
<g id="edge29" class="edge">
<title>Node9&#45;&gt;Node26</title>
<path fill="none" stroke="#191970" d="M179.0464,-403.4581C226.7136,-392.6406 304.4651,-374.9959 355.9293,-363.3168"/>
<polygon fill="#191970" stroke="#191970" points="356.8775,-366.6907 365.855,-361.0643 355.3283,-359.8642 356.8775,-366.6907"/>
</g>
<!-- Node10&#45;&gt;Node5 -->
<g id="edge13" class="edge">
<title>Node10&#45;&gt;Node5</title>
<path fill="none" stroke="#191970" d="M145.8287,-224.3396C160.1686,-209.3611 190.1417,-180.9163 222,-168 291.662,-139.7569 520.4517,-127.1192 605.65,-123.3105"/>
<polygon fill="#191970" stroke="#191970" points="605.9318,-126.8016 615.77,-122.8697 605.6272,-119.8083 605.9318,-126.8016"/>
</g>
<!-- Node11 -->
<g id="node12" class="node">
<title>Node11</title>
<g id="a_node12"><a xlink:href="VectorFixSize_8h.html" target="_top" xlink:title="iDynTree/Core/VectorFixSize.h">
<polygon fill="none" stroke="#000000" points="1170.5,-168.5 1170.5,-187.5 1331.5,-187.5 1331.5,-168.5 1170.5,-168.5"/>
<text text-anchor="middle" x="1251" y="-175.5" font-family="FreeSans.ttf" font-size="10.00" fill="#000000">iDynTree/Core/VectorFixSize.h</text>
</a>
</g>
</g>
<!-- Node10&#45;&gt;Node11 -->
<g id="edge14" class="edge">
<title>Node10&#45;&gt;Node11</title>
<path fill="none" stroke="#191970" d="M207.5308,-230.4545C401.7391,-220.6918 944.2133,-193.422 1160.4001,-182.5544"/>
<polygon fill="#191970" stroke="#191970" points="1160.6337,-186.0472 1170.4454,-182.0494 1160.2822,-179.056 1160.6337,-186.0472"/>
</g>
<!-- Node10&#45;&gt;Node12 -->
<g id="edge28" class="edge">
<title>Node10&#45;&gt;Node12</title>
<path fill="none" stroke="#191970" d="M140.9391,-224.4391C147.6028,-209.5968 162.5994,-181.3353 185,-168 255.3433,-126.1238 810.4217,-84.3622 1008.2618,-70.6664"/>
<polygon fill="#191970" stroke="#191970" points="1008.5174,-74.1572 1018.2529,-69.9776 1008.0359,-67.1738 1008.5174,-74.1572"/>
</g>
<!-- Node11&#45;&gt;Node5 -->
<g id="edge23" class="edge">
<title>Node11&#45;&gt;Node5</title>
<path fill="none" stroke="#191970" d="M1170.4158,-169.4257C1165.5388,-168.9352 1160.7044,-168.4565 1156,-168 972.3875,-150.1847 751.8875,-131.504 670.3524,-124.6884"/>
<polygon fill="#191970" stroke="#191970" points="670.4829,-121.1872 660.2264,-123.8433 669.9006,-128.163 670.4829,-121.1872"/>
</g>
<!-- Node11&#45;&gt;Node12 -->
<g id="edge15" class="edge">
<title>Node11&#45;&gt;Node12</title>
<path fill="none" stroke="#191970" d="M1225.101,-168.408C1204.4662,-160.2015 1175.2786,-147.3061 1152,-132 1130.3972,-117.7957 1108.6724,-97.5419 1094.404,-83.2256"/>
<polygon fill="#191970" stroke="#191970" points="1096.7883,-80.6578 1087.2924,-75.959 1091.7855,-85.554 1096.7883,-80.6578"/>
</g>
<!-- Node13 -->
<g id="node14" class="node">
<title>Node13</title>
<polygon fill="none" stroke="#bfbfbf" points="1240.5,-.5 1240.5,-19.5 1293.5,-19.5 1293.5,-.5 1240.5,-.5"/>
<text text-anchor="middle" x="1267" y="-7.5" font-family="FreeSans.ttf" font-size="10.00" fill="#000000">cstddef</text>
</g>
<!-- Node11&#45;&gt;Node13 -->
<g id="edge26" class="edge">
<title>Node11&#45;&gt;Node13</title>
<path fill="none" stroke="#191970" d="M1229.8784,-168.4622C1215.7497,-160.8191 1198.2828,-148.6199 1190,-132 1174.9337,-101.7685 1173.3296,-85.3775 1190,-56 1198.8464,-40.4104 1215.3053,-29.5401 1230.7422,-22.2969"/>
<polygon fill="#191970" stroke="#191970" points="1232.3456,-25.4172 1240.1446,-18.246 1229.5758,-18.9884 1232.3456,-25.4172"/>
</g>
<!-- Node15 -->
<g id="node16" class="node">
<title>Node15</title>
<g id="a_node16"><a xlink:href="Span_8h.html" target="_top" xlink:title="iDynTree/Core/Span.h">
<polygon fill="none" stroke="#ff0000" points="1480.5,-56.5 1480.5,-75.5 1601.5,-75.5 1601.5,-56.5 1480.5,-56.5"/>
<text text-anchor="middle" x="1541" y="-63.5" font-family="FreeSans.ttf" font-size="10.00" fill="#000000">iDynTree/Core/Span.h</text>
</a>
</g>
</g>
<!-- Node11&#45;&gt;Node15 -->
<g id="edge18" class="edge">
<title>Node11&#45;&gt;Node15</title>
<path fill="none" stroke="#191970" d="M1249.3084,-168.4058C1247.3772,-154.0345 1246.1788,-127.007 1261,-112 1289.474,-83.1689 1396.9828,-72.3965 1470.1879,-68.3792"/>
<polygon fill="#191970" stroke="#191970" points="1470.4727,-71.8692 1480.278,-67.8559 1470.1101,-64.8786 1470.4727,-71.8692"/>
</g>
<!-- Node16 -->
<g id="node17" class="node">
<title>Node16</title>
<polygon fill="none" stroke="#bfbfbf" points="1414,-.5 1414,-19.5 1466,-19.5 1466,-.5 1414,-.5"/>
<text text-anchor="middle" x="1440" y="-7.5" font-family="FreeSans.ttf" font-size="10.00" fill="#000000">cassert</text>
</g>
<!-- Node11&#45;&gt;Node16 -->
<g id="edge25" class="edge">
<title>Node11&#45;&gt;Node16</title>
<path fill="none" stroke="#191970" d="M1246.9451,-168.2286C1241.9729,-154.5774 1235.4246,-129.5083 1246,-112 1280.2948,-55.2225 1357.8348,-28.4743 1403.8256,-17.1853"/>
<polygon fill="#191970" stroke="#191970" points="1404.7444,-20.565 1413.6867,-14.8829 1403.1528,-13.7483 1404.7444,-20.565"/>
</g>
<!-- Node24 -->
<g id="node20" class="node">
<title>Node24</title>
<polygon fill="none" stroke="#bfbfbf" points="1338,-112.5 1338,-131.5 1394,-131.5 1394,-112.5 1338,-112.5"/>
<text text-anchor="middle" x="1366" y="-119.5" font-family="FreeSans.ttf" font-size="10.00" fill="#000000">sstream</text>
</g>
<!-- Node11&#45;&gt;Node24 -->
<g id="edge24" class="edge">
<title>Node11&#45;&gt;Node24</title>
<path fill="none" stroke="#191970" d="M1270.7692,-168.3733C1289.1469,-159.4241 1316.7312,-145.9917 1337.4893,-135.8835"/>
<polygon fill="#191970" stroke="#191970" points="1339.0304,-139.026 1346.4888,-131.5011 1335.9657,-132.7325 1339.0304,-139.026"/>
</g>
<!-- Node25 -->
<g id="node21" class="node">
<title>Node25</title>
<polygon fill="none" stroke="#bfbfbf" points="1270,-112.5 1270,-131.5 1320,-131.5 1320,-112.5 1270,-112.5"/>
<text text-anchor="middle" x="1295" y="-119.5" font-family="FreeSans.ttf" font-size="10.00" fill="#000000">cstring</text>
</g>
<!-- Node11&#45;&gt;Node25 -->
<g id="edge27" class="edge">
<title>Node11&#45;&gt;Node25</title>
<path fill="none" stroke="#191970" d="M1258.6642,-168.2455C1264.8473,-160.3761 1273.7063,-149.101 1281.1289,-139.6542"/>
<polygon fill="#191970" stroke="#191970" points="1283.9975,-141.6683 1287.4236,-131.6427 1278.4932,-137.3435 1283.9975,-141.6683"/>
</g>
<!-- Node12&#45;&gt;Node13 -->
<g id="edge16" class="edge">
<title>Node12&#45;&gt;Node13</title>
<path fill="none" stroke="#191970" d="M1110.4903,-56.3733C1143.9193,-46.4684 1195.8836,-31.0715 1230.6575,-20.7681"/>
<polygon fill="#191970" stroke="#191970" points="1231.8249,-24.0727 1240.4185,-17.876 1229.8362,-17.3612 1231.8249,-24.0727"/>
</g>
<!-- Node14 -->
<g id="node15" class="node">
<title>Node14</title>
<polygon fill="none" stroke="#bfbfbf" points="1038,-.5 1038,-19.5 1118,-19.5 1118,-.5 1038,-.5"/>
<text text-anchor="middle" x="1078" y="-7.5" font-family="FreeSans.ttf" font-size="10.00" fill="#000000">CoreExport.h</text>
</g>
<!-- Node12&#45;&gt;Node14 -->
<g id="edge17" class="edge">
<title>Node12&#45;&gt;Node14</title>
<path fill="none" stroke="#191970" d="M1078,-56.2455C1078,-48.9382 1078,-38.6944 1078,-29.7046"/>
<polygon fill="#191970" stroke="#191970" points="1081.5001,-29.6426 1078,-19.6427 1074.5001,-29.6427 1081.5001,-29.6426"/>
</g>
<!-- Node15&#45;&gt;Node13 -->
<g id="edge21" class="edge">
<title>Node15&#45;&gt;Node13</title>
<path fill="none" stroke="#191970" d="M1494.209,-56.4369C1440.2696,-45.4128 1352.7455,-27.5246 1303.5586,-17.4718"/>
<polygon fill="#191970" stroke="#191970" points="1304.1688,-14.0243 1293.6705,-15.4509 1302.7671,-20.8825 1304.1688,-14.0243"/>
</g>
<!-- Node15&#45;&gt;Node16 -->
<g id="edge19" class="edge">
<title>Node15&#45;&gt;Node16</title>
<path fill="none" stroke="#191970" d="M1523.4071,-56.2455C1507.621,-47.4928 1484.2361,-34.527 1466.2413,-24.5496"/>
<polygon fill="#191970" stroke="#191970" points="1467.8341,-21.4308 1457.3913,-19.6427 1464.4397,-27.5528 1467.8341,-21.4308"/>
</g>
<!-- Node17 -->
<g id="node18" class="node">
<title>Node17</title>
<polygon fill="none" stroke="#bfbfbf" points="1509,-.5 1509,-19.5 1573,-19.5 1573,-.5 1509,-.5"/>
<text text-anchor="middle" x="1541" y="-7.5" font-family="FreeSans.ttf" font-size="10.00" fill="#000000">algorithm</text>
</g>
<!-- Node15&#45;&gt;Node17 -->
<g id="edge20" class="edge">
<title>Node15&#45;&gt;Node17</title>
<path fill="none" stroke="#191970" d="M1541,-56.2455C1541,-48.9382 1541,-38.6944 1541,-29.7046"/>
<polygon fill="#191970" stroke="#191970" points="1544.5001,-29.6426 1541,-19.6427 1537.5001,-29.6427 1544.5001,-29.6426"/>
</g>
<!-- Node19 -->
<g id="node19" class="node">
<title>Node19</title>
<polygon fill="none" stroke="#bfbfbf" points="1766.5,-.5 1766.5,-19.5 1819.5,-19.5 1819.5,-.5 1766.5,-.5"/>
<text text-anchor="middle" x="1793" y="-7.5" font-family="FreeSans.ttf" font-size="10.00" fill="#000000">iterator</text>
</g>
<!-- Node15&#45;&gt;Node19 -->
<g id="edge22" class="edge">
<title>Node15&#45;&gt;Node19</title>
<path fill="none" stroke="#191970" d="M1584.034,-56.4369C1632.6509,-45.6331 1710.9332,-28.2371 1756.622,-18.084"/>
<polygon fill="#191970" stroke="#191970" points="1757.3995,-21.4967 1766.4021,-15.9106 1755.881,-14.6634 1757.3995,-21.4967"/>
</g>
<!-- Node26&#45;&gt;Node5 -->
<g id="edge51" class="edge">
<title>Node26&#45;&gt;Node5</title>
<path fill="none" stroke="#191970" d="M399.7231,-341.6826C381.7165,-319.0745 342.6417,-262.3407 369,-224 396.8081,-183.5503 540.4953,-145.0842 605.7234,-129.4017"/>
<polygon fill="#191970" stroke="#191970" points="606.9323,-132.7121 615.8541,-126.9979 605.3162,-125.9011 606.9323,-132.7121"/>
</g>
<!-- Node27 -->
<g id="node23" class="node">
<title>Node27</title>
<g id="a_node23"><a xlink:href="PositionRaw_8h.html" target="_top" xlink:title="iDynTree/Core/PositionRaw.h">
<polygon fill="none" stroke="#000000" points="378,-224.5 378,-243.5 534,-243.5 534,-224.5 378,-224.5"/>
<text text-anchor="middle" x="456" y="-231.5" font-family="FreeSans.ttf" font-size="10.00" fill="#000000">iDynTree/Core/PositionRaw.h</text>
</a>
</g>
</g>
<!-- Node26&#45;&gt;Node27 -->
<g id="edge30" class="edge">
<title>Node26&#45;&gt;Node27</title>
<path fill="none" stroke="#191970" d="M411.928,-341.8845C419.839,-322.5192 437.819,-278.5055 448.204,-253.084"/>
<polygon fill="#191970" stroke="#191970" points="451.476,-254.3294 452.0177,-243.7484 444.9958,-251.6821 451.476,-254.3294"/>
</g>
<!-- Node28 -->
<g id="node24" class="node">
<title>Node28</title>
<g id="a_node24"><a xlink:href="Rotation_8h.html" target="_top" xlink:title="iDynTree/Core/Rotation.h">
<polygon fill="none" stroke="#000000" points="664.5,-280.5 664.5,-299.5 801.5,-299.5 801.5,-280.5 664.5,-280.5"/>
<text text-anchor="middle" x="733" y="-287.5" font-family="FreeSans.ttf" font-size="10.00" fill="#000000">iDynTree/Core/Rotation.h</text>
</a>
</g>
</g>
<!-- Node26&#45;&gt;Node28 -->
<g id="edge33" class="edge">
<title>Node26&#45;&gt;Node28</title>
<path fill="none" stroke="#191970" d="M458.4247,-341.9581C516.27,-331.012 611.0577,-313.0752 672.7424,-301.4026"/>
<polygon fill="#191970" stroke="#191970" points="673.5496,-304.812 682.7245,-299.5137 672.248,-297.9341 673.5496,-304.812"/>
</g>
<!-- Node27&#45;&gt;Node5 -->
<g id="edge32" class="edge">
<title>Node27&#45;&gt;Node5</title>
<path fill="none" stroke="#191970" d="M468.0969,-224.4243C485.3154,-211.0057 518.1229,-186.2111 548,-168 567.3428,-156.2099 590.0637,-144.6133 607.837,-136.0131"/>
<polygon fill="#191970" stroke="#191970" points="609.6368,-139.0322 617.1492,-131.5613 606.6176,-132.7167 609.6368,-139.0322"/>
</g>
<!-- Node27&#45;&gt;Node11 -->
<g id="edge31" class="edge">
<title>Node27&#45;&gt;Node11</title>
<path fill="none" stroke="#191970" d="M534.0391,-228.5029C682.093,-218.0739 1002.9794,-195.4706 1160.3161,-184.3878"/>
<polygon fill="#191970" stroke="#191970" points="1160.7102,-187.8688 1170.4395,-183.6747 1160.2183,-180.8861 1160.7102,-187.8688"/>
</g>
<!-- Node28&#45;&gt;Node5 -->
<g id="edge34" class="edge">
<title>Node28&#45;&gt;Node5</title>
<path fill="none" stroke="#191970" d="M723.7693,-280.3331C715.5442,-271.3912 703.5244,-257.4837 695,-244 673.3443,-209.7456 654.881,-165.9421 645.2161,-141.2278"/>
<polygon fill="#191970" stroke="#191970" points="648.3728,-139.6845 641.5217,-131.6029 641.8377,-142.193 648.3728,-139.6845"/>
</g>
<!-- Node28&#45;&gt;Node11 -->
<g id="edge50" class="edge">
<title>Node28&#45;&gt;Node11</title>
<path fill="none" stroke="#191970" d="M777.1644,-280.4509C871.8753,-259.9729 1094.2359,-211.8949 1197.0801,-189.6584"/>
<polygon fill="#191970" stroke="#191970" points="1197.9129,-193.0592 1206.9474,-187.5249 1196.4336,-186.2173 1197.9129,-193.0592"/>
</g>
<!-- Node29 -->
<g id="node25" class="node">
<title>Node29</title>
<g id="a_node25"><a xlink:href="GeomVector3_8h.html" target="_top" xlink:title="iDynTree/Core/GeomVector3.h">
<polygon fill="none" stroke="#000000" points="1170.5,-224.5 1170.5,-243.5 1333.5,-243.5 1333.5,-224.5 1170.5,-224.5"/>
<text text-anchor="middle" x="1252" y="-231.5" font-family="FreeSans.ttf" font-size="10.00" fill="#000000">iDynTree/Core/GeomVector3.h</text>
</a>
</g>
</g>
<!-- Node28&#45;&gt;Node29 -->
<g id="edge35" class="edge">
<title>Node28&#45;&gt;Node29</title>
<path fill="none" stroke="#191970" d="M801.6513,-282.5925C893.7684,-272.6531 1057.6367,-254.9718 1160.2543,-243.8993"/>
<polygon fill="#191970" stroke="#191970" points="1160.7303,-247.3684 1170.2971,-242.8157 1159.9793,-240.4088 1160.7303,-247.3684"/>
</g>
<!-- Node30 -->
<g id="node26" class="node">
<title>Node30</title>
<g id="a_node26"><a xlink:href="RotationRaw_8h.html" target="_top" xlink:title="iDynTree/Core/RotationRaw.h">
<polygon fill="none" stroke="#000000" points="704,-224.5 704,-243.5 862,-243.5 862,-224.5 704,-224.5"/>
<text text-anchor="middle" x="783" y="-231.5" font-family="FreeSans.ttf" font-size="10.00" fill="#000000">iDynTree/Core/RotationRaw.h</text>
</a>
</g>
</g>
<!-- Node28&#45;&gt;Node30 -->
<g id="edge37" class="edge">
<title>Node28&#45;&gt;Node30</title>
<path fill="none" stroke="#191970" d="M741.7093,-280.2455C748.8073,-272.2958 759.0084,-260.8706 767.495,-251.3656"/>
<polygon fill="#191970" stroke="#191970" points="770.3411,-253.4331 774.3905,-243.6427 765.1195,-248.771 770.3411,-253.4331"/>
</g>
<!-- Node29&#45;&gt;Node11 -->
<g id="edge36" class="edge">
<title>Node29&#45;&gt;Node11</title>
<path fill="none" stroke="#191970" d="M1251.8258,-224.2455C1251.6953,-216.9382 1251.5124,-206.6944 1251.3519,-197.7046"/>
<polygon fill="#191970" stroke="#191970" points="1254.8503,-197.5786 1251.1722,-187.6427 1247.8514,-197.7036 1254.8503,-197.5786"/>
</g>
<!-- Node30&#45;&gt;Node5 -->
<g id="edge49" class="edge">
<title>Node30&#45;&gt;Node5</title>
<path fill="none" stroke="#191970" d="M770.6374,-224.4509C745.704,-205.1921 689.1667,-161.5218 658.5764,-137.8935"/>
<polygon fill="#191970" stroke="#191970" points="660.3849,-134.8679 650.3313,-131.5249 656.1059,-140.4078 660.3849,-134.8679"/>
</g>
<!-- Node31 -->
<g id="node27" class="node">
<title>Node31</title>
<g id="a_node27"><a xlink:href="MatrixFixSize_8h.html" target="_top" xlink:title="iDynTree/Core/MatrixFixSize.h">
<polygon fill="none" stroke="#000000" points="1421.5,-168.5 1421.5,-187.5 1582.5,-187.5 1582.5,-168.5 1421.5,-168.5"/>
<text text-anchor="middle" x="1502" y="-175.5" font-family="FreeSans.ttf" font-size="10.00" fill="#000000">iDynTree/Core/MatrixFixSize.h</text>
</a>
</g>
</g>
<!-- Node30&#45;&gt;Node31 -->
<g id="edge38" class="edge">
<title>Node30&#45;&gt;Node31</title>
<path fill="none" stroke="#191970" d="M862.0023,-227.8468C996.5751,-217.3655 1269.4649,-196.1112 1411.4969,-185.0489"/>
<polygon fill="#191970" stroke="#191970" points="1411.7954,-188.5364 1421.4934,-184.2703 1411.2518,-181.5575 1411.7954,-188.5364"/>
</g>
<!-- Node31&#45;&gt;Node5 -->
<g id="edge46" class="edge">
<title>Node31&#45;&gt;Node5</title>
<path fill="none" stroke="#191970" d="M1421.4303,-169.2649C1416.5496,-168.8146 1411.7105,-168.3886 1407,-168 1121.5595,-144.4517 775.5627,-128.1118 670.0557,-123.3984"/>
<polygon fill="#191970" stroke="#191970" points="670.1938,-119.9011 660.0484,-122.954 669.8833,-126.8942 670.1938,-119.9011"/>
</g>
<!-- Node31&#45;&gt;Node12 -->
<g id="edge39" class="edge">
<title>Node31&#45;&gt;Node12</title>
<path fill="none" stroke="#191970" d="M1489.3084,-168.4957C1466.9879,-151.9608 1421.3361,-118.992 1403,-112 1357.6823,-94.7193 1228.9411,-80.0817 1147.7522,-72.2124"/>
<polygon fill="#191970" stroke="#191970" points="1147.8944,-68.7101 1137.6061,-71.2402 1147.2267,-75.6782 1147.8944,-68.7101"/>
</g>
<!-- Node31&#45;&gt;Node16 -->
<g id="edge44" class="edge">
<title>Node31&#45;&gt;Node16</title>
<path fill="none" stroke="#191970" d="M1556.018,-168.4617C1576.8276,-161.8668 1598.5668,-150.742 1611,-132 1629.6725,-103.8526 1631.5494,-82.8078 1611,-56 1602.7016,-45.1742 1523.7223,-27.2501 1476.0527,-17.2729"/>
<polygon fill="#191970" stroke="#191970" points="1476.6076,-13.8136 1466.1054,-15.211 1475.1868,-20.6679 1476.6076,-13.8136"/>
</g>
<!-- Node31&#45;&gt;Node24 -->
<g id="edge48" class="edge">
<title>Node31&#45;&gt;Node24</title>
<path fill="none" stroke="#191970" d="M1478.6208,-168.3733C1456.4955,-159.2629 1423.0866,-145.5062 1398.3981,-135.3404"/>
<polygon fill="#191970" stroke="#191970" points="1399.6536,-132.0723 1389.0742,-131.5011 1396.9883,-138.5451 1399.6536,-132.0723"/>
</g>
<!-- Node31&#45;&gt;Node25 -->
<g id="edge45" class="edge">
<title>Node31&#45;&gt;Node25</title>
<path fill="none" stroke="#191970" d="M1465.1386,-168.4971C1432.1175,-159.9179 1382.1256,-146.767 1329.9867,-132.23"/>
<polygon fill="#191970" stroke="#191970" points="1330.8031,-128.8241 1320.2299,-129.5003 1328.9171,-135.5652 1330.8031,-128.8241"/>
</g>
<!-- Node32 -->
<g id="node28" class="node">
<title>Node32</title>
<g id="a_node28"><a xlink:href="MatrixView_8h.html" target="_top" xlink:title="iDynTree/Core/MatrixView.h">
<polygon fill="none" stroke="#ff0000" points="1450.5,-112.5 1450.5,-131.5 1601.5,-131.5 1601.5,-112.5 1450.5,-112.5"/>
<text text-anchor="middle" x="1526" y="-119.5" font-family="FreeSans.ttf" font-size="10.00" fill="#000000">iDynTree/Core/MatrixView.h</text>
</a>
</g>
</g>
<!-- Node31&#45;&gt;Node32 -->
<g id="edge40" class="edge">
<title>Node31&#45;&gt;Node32</title>
<path fill="none" stroke="#191970" d="M1506.1805,-168.2455C1509.381,-160.7776 1513.896,-150.2427 1517.8084,-141.1137"/>
<polygon fill="#191970" stroke="#191970" points="1521.1452,-142.2129 1521.8674,-131.6427 1514.7112,-139.4554 1521.1452,-142.2129"/>
</g>
<!-- Node33 -->
<g id="node29" class="node">
<title>Node33</title>
<polygon fill="none" stroke="#bfbfbf" points="1658,-112.5 1658,-131.5 1718,-131.5 1718,-112.5 1658,-112.5"/>
<text text-anchor="middle" x="1688" y="-119.5" font-family="FreeSans.ttf" font-size="10.00" fill="#000000">iostream</text>
</g>
<!-- Node31&#45;&gt;Node33 -->
<g id="edge47" class="edge">
<title>Node31&#45;&gt;Node33</title>
<path fill="none" stroke="#191970" d="M1533.9745,-168.3733C1565.644,-158.8384 1614.2171,-144.2142 1648.3302,-133.9436"/>
<polygon fill="#191970" stroke="#191970" points="1649.4131,-137.2728 1657.9795,-131.0384 1647.395,-130.57 1649.4131,-137.2728"/>
</g>
<!-- Node32&#45;&gt;Node12 -->
<g id="edge43" class="edge">
<title>Node32&#45;&gt;Node12</title>
<path fill="none" stroke="#191970" d="M1450.2564,-112.532C1365.5877,-101.9485 1229.6268,-84.9534 1147.5589,-74.6949"/>
<polygon fill="#191970" stroke="#191970" points="1147.9358,-71.2148 1137.5789,-73.4474 1147.0675,-78.1608 1147.9358,-71.2148"/>
</g>
<!-- Node32&#45;&gt;Node15 -->
<g id="edge42" class="edge">
<title>Node32&#45;&gt;Node15</title>
<path fill="none" stroke="#191970" d="M1528.6128,-112.2455C1530.5916,-104.8579 1533.3744,-94.4689 1535.8012,-85.4087"/>
<polygon fill="#191970" stroke="#191970" points="1539.2105,-86.2078 1538.4171,-75.6427 1532.4489,-84.3966 1539.2105,-86.2078"/>
</g>
<!-- Node32&#45;&gt;Node16 -->
<g id="edge41" class="edge">
<title>Node32&#45;&gt;Node16</title>
<path fill="none" stroke="#191970" d="M1511.7055,-112.3871C1499.8988,-103.8937 1483.3019,-90.6124 1472,-76 1460.9492,-61.7124 1452.3204,-42.9955 1446.8222,-29.1441"/>
<polygon fill="#191970" stroke="#191970" points="1450.046,-27.7735 1443.2397,-19.6541 1443.4971,-30.2458 1450.046,-27.7735"/>
</g>
<!-- Node34&#45;&gt;Node5 -->
<g id="edge57" class="edge">
<title>Node34&#45;&gt;Node5</title>
<path fill="none" stroke="#191970" d="M746.1745,-403.4395C730.7121,-396.0336 712.0888,-384.1213 703,-367 696.5399,-354.8306 694.944,-347.1771 703,-336 732.5843,-294.954 767.5081,-325.8544 811,-300 847.9926,-278.0092 894.5513,-260.0192 871,-224 826.0102,-155.193 723.2282,-132.5188 670.506,-125.2687"/>
<polygon fill="#191970" stroke="#191970" points="670.7187,-121.7677 660.3574,-123.9799 669.8367,-128.7119 670.7187,-121.7677"/>
</g>
<!-- Node34&#45;&gt;Node26 -->
<g id="edge54" class="edge">
<title>Node34&#45;&gt;Node26</title>
<path fill="none" stroke="#191970" d="M714.6795,-403.4581C649.671,-392.4443 542.8888,-374.3531 474.0289,-362.6867"/>
<polygon fill="#191970" stroke="#191970" points="474.5981,-359.2333 464.1539,-361.0137 473.4287,-366.135 474.5981,-359.2333"/>
</g>
<!-- Node34&#45;&gt;Node28 -->
<g id="edge55" class="edge">
<title>Node34&#45;&gt;Node28</title>
<path fill="none" stroke="#191970" d="M706.6199,-403.4579C665.158,-395.8458 616.7111,-383.6857 604,-367 579.851,-335.2998 630.4787,-314.0109 675.227,-301.9977"/>
<polygon fill="#191970" stroke="#191970" points="676.1341,-305.3783 684.9504,-299.5026 674.3942,-298.598 676.1341,-305.3783"/>
</g>
<!-- Node34&#45;&gt;Node31 -->
<g id="edge56" class="edge">
<title>Node34&#45;&gt;Node31</title>
<path fill="none" stroke="#191970" d="M751.1759,-403.3695C737.6785,-395.6136 720.8843,-383.3161 713,-367 707.0054,-354.5947 703.989,-346.4225 713,-336 736.1337,-309.2427 1308.903,-253.4083 1343,-244 1390.3156,-230.9443 1442.3584,-207.478 1473.5913,-192.331"/>
<polygon fill="#191970" stroke="#191970" points="1475.533,-195.2769 1482.9683,-187.7292 1472.4491,-188.9929 1475.533,-195.2769"/>
</g>
<!-- Node35&#45;&gt;Node2 -->
<g id="edge62" class="edge">
<title>Node35&#45;&gt;Node2</title>
<path fill="none" stroke="#191970" d="M452.895,-515.3733C475.5082,-506.2629 509.6542,-492.5062 534.8873,-482.3404"/>
<polygon fill="#191970" stroke="#191970" points="536.4493,-485.4845 544.4169,-478.5011 533.8334,-478.9917 536.4493,-485.4845"/>
</g>
<!-- Node35&#45;&gt;Node4 -->
<g id="edge64" class="edge">
<title>Node35&#45;&gt;Node4</title>
<path fill="none" stroke="#191970" d="M436.2331,-515.1877C447.1229,-501.0264 469.0227,-474.8266 493,-459 506.7602,-449.9174 544.6277,-435.9903 574.1812,-425.8396"/>
<polygon fill="#191970" stroke="#191970" points="575.4983,-429.0886 583.8382,-422.5543 573.2438,-422.4615 575.4983,-429.0886"/>
</g>
<!-- Node35&#45;&gt;Node5 -->
<g id="edge65" class="edge">
<title>Node35&#45;&gt;Node5</title>
<path fill="none" stroke="#191970" d="M398.4118,-515.4034C379.9402,-508.1446 357.2857,-496.4087 343,-479 269.9949,-390.0354 253.489,-330.1283 298,-224 311.7356,-191.2499 323.3184,-184.0471 355,-168 398.536,-145.9486 541.4105,-130.6904 605.9044,-124.7561"/>
<polygon fill="#191970" stroke="#191970" points="606.2714,-128.2373 615.9162,-123.8521 605.6419,-121.2656 606.2714,-128.2373"/>
</g>
<!-- Node35&#45;&gt;Node11 -->
<g id="edge63" class="edge">
<title>Node35&#45;&gt;Node11</title>
<path fill="none" stroke="#191970" d="M412.75,-515.3066C379.6954,-494.3895 310.3344,-443.6254 342,-403 382.2908,-351.309 425.217,-393.8572 485,-367 588.0012,-320.7273 588.5533,-261.6765 695,-224 778.2599,-194.5304 1025.0672,-183.7035 1160.1451,-179.9133"/>
<polygon fill="#191970" stroke="#191970" points="1160.5693,-183.4032 1170.47,-179.6313 1160.3781,-176.4058 1160.5693,-183.4032"/>
</g>
<!-- Node36&#45;&gt;Node2 -->
<g id="edge67" class="edge">
<title>Node36&#45;&gt;Node2</title>
<path fill="none" stroke="#191970" d="M703.141,-571.4525C688.5181,-562.4802 666.3636,-548.4552 648,-535 626.1085,-518.9599 602.2629,-498.9285 586.353,-485.1661"/>
<polygon fill="#191970" stroke="#191970" points="588.6484,-482.5239 578.8089,-478.5951 584.0507,-487.8024 588.6484,-482.5239"/>
</g>
<!-- Node36&#45;&gt;Node4 -->
<g id="edge79" class="edge">
<title>Node36&#45;&gt;Node4</title>
<path fill="none" stroke="#191970" d="M717.5753,-571.2141C713.9722,-549.2304 702.8048,-495.0401 676,-459 666.5698,-446.3207 652.6484,-435.6435 640.2889,-427.7774"/>
<polygon fill="#191970" stroke="#191970" points="642.0207,-424.7345 631.6518,-422.5579 638.4002,-430.7255 642.0207,-424.7345"/>
</g>
<!-- Node36&#45;&gt;Node5 -->
<g id="edge80" class="edge">
<title>Node36&#45;&gt;Node5</title>
<path fill="none" stroke="#191970" d="M719.2671,-571.4862C719.5141,-562.1847 719.8628,-547.6203 720,-535 720.0966,-526.1116 721.8525,-523.6937 720,-515 714.3197,-488.342 709.0818,-482.337 695,-459 678.647,-431.8991 674.5832,-424.1118 651,-403 628.3949,-382.7638 607.7489,-393.5135 593,-367 550.6766,-290.917 602.7485,-182.9832 626.9247,-140.3452"/>
<polygon fill="#191970" stroke="#191970" points="630.0004,-142.0186 632.0087,-131.6159 623.9515,-138.4957 630.0004,-142.0186"/>
</g>
<!-- Node36&#45;&gt;Node6 -->
<g id="edge81" class="edge">
<title>Node36&#45;&gt;Node6</title>
<path fill="none" stroke="#191970" d="M714.2465,-571.2851C701.2082,-545.0283 664.4301,-473.638 643,-459 627.5367,-448.4377 521.3352,-431.2397 453.6213,-421.1336"/>
<polygon fill="#191970" stroke="#191970" points="453.9201,-417.6397 443.5149,-419.6352 452.8934,-424.564 453.9201,-417.6397"/>
</g>
<!-- Node36&#45;&gt;Node7 -->
<g id="edge82" class="edge">
<title>Node36&#45;&gt;Node7</title>
<path fill="none" stroke="#191970" d="M732.2144,-571.2918C744.6551,-562.0916 763.7526,-547.8129 780,-535 826.917,-498.0007 880.7755,-452.9305 908.7942,-429.2814"/>
<polygon fill="#191970" stroke="#191970" points="911.2466,-431.7913 916.6238,-422.6624 906.7274,-426.4455 911.2466,-431.7913"/>
</g>
<!-- Node36&#45;&gt;Node34 -->
<g id="edge69" class="edge">
<title>Node36&#45;&gt;Node34</title>
<path fill="none" stroke="#191970" d="M728.8455,-571.4402C745.3802,-554.6079 778.0865,-517.774 790,-479 794.8558,-463.1962 788.8777,-445.1502 782.3771,-431.9271"/>
<polygon fill="#191970" stroke="#191970" points="785.3139,-430 777.475,-422.8724 779.1581,-433.3327 785.3139,-430"/>
</g>
<!-- Node36&#45;&gt;Node35 -->
<g id="edge68" class="edge">
<title>Node36&#45;&gt;Node35</title>
<path fill="none" stroke="#191970" d="M670.7869,-571.6899C620.7038,-562.0187 542.2693,-546.8727 488.3953,-536.4694"/>
<polygon fill="#191970" stroke="#191970" points="488.7814,-532.9794 478.2991,-534.5198 487.4541,-539.8524 488.7814,-532.9794"/>
</g>
<!-- Node37 -->
<g id="node33" class="node">
<title>Node37</title>
<g id="a_node33"><a xlink:href="SolidShapes_8h.html" target="_top" xlink:title="iDynTree/Model/SolidShapes.h">
<polygon fill="none" stroke="#000000" points="1146.5,-459.5 1146.5,-478.5 1309.5,-478.5 1309.5,-459.5 1146.5,-459.5"/>
<text text-anchor="middle" x="1228" y="-466.5" font-family="FreeSans.ttf" font-size="10.00" fill="#000000">iDynTree/Model/SolidShapes.h</text>
</a>
</g>
</g>
<!-- Node36&#45;&gt;Node37 -->
<g id="edge70" class="edge">
<title>Node36&#45;&gt;Node37</title>
<path fill="none" stroke="#191970" d="M762.3971,-571.4509C855.3685,-550.9936 1073.5188,-502.9919 1174.7106,-480.7258"/>
<polygon fill="#191970" stroke="#191970" points="1175.6986,-484.0922 1184.7128,-478.5249 1174.1943,-477.2557 1175.6986,-484.0922"/>
</g>
<!-- Node37&#45;&gt;Node5 -->
<g id="edge72" class="edge">
<title>Node37&#45;&gt;Node5</title>
<path fill="none" stroke="#191970" d="M1194.099,-459.4832C1143.6261,-445.5739 1045.5834,-419.5518 961,-403 851.6957,-381.6107 810.4741,-420.8864 713,-367 678.7844,-348.0847 671.3274,-335.9662 656,-300 633.1347,-246.3459 634.1282,-175.6359 636.2818,-141.757"/>
<polygon fill="#191970" stroke="#191970" points="639.7741,-141.9891 637.0239,-131.7575 632.7933,-141.471 639.7741,-141.9891"/>
</g>
<!-- Node37&#45;&gt;Node7 -->
<g id="edge73" class="edge">
<title>Node37&#45;&gt;Node7</title>
<path fill="none" stroke="#191970" d="M1165.2463,-459.4924C1111.9894,-451.0634 1033.6696,-437.8172 966,-423 964.5423,-422.6808 963.0562,-422.3431 961.5573,-421.9925"/>
<polygon fill="#191970" stroke="#191970" points="962.1898,-418.5437 951.6427,-419.5482 960.5142,-425.3402 962.1898,-418.5437"/>
</g>
<!-- Node37&#45;&gt;Node34 -->
<g id="edge74" class="edge">
<title>Node37&#45;&gt;Node34</title>
<path fill="none" stroke="#191970" d="M1150.2173,-459.4686C1067.9506,-449.3878 938.6357,-433.5418 854.3267,-423.2107"/>
<polygon fill="#191970" stroke="#191970" points="854.6259,-419.7213 844.2744,-421.9789 853.7744,-426.6693 854.6259,-419.7213"/>
</g>
<!-- Node38 -->
<g id="node34" class="node">
<title>Node38</title>
<polygon fill="none" stroke="#bfbfbf" points="1203.5,-403.5 1203.5,-422.5 1252.5,-422.5 1252.5,-403.5 1203.5,-403.5"/>
<text text-anchor="middle" x="1228" y="-410.5" font-family="FreeSans.ttf" font-size="10.00" fill="#000000">cstdlib</text>
</g>
<!-- Node37&#45;&gt;Node38 -->
<g id="edge71" class="edge">
<title>Node37&#45;&gt;Node38</title>
<path fill="none" stroke="#191970" d="M1228,-459.2455C1228,-451.9382 1228,-441.6944 1228,-432.7046"/>
<polygon fill="#191970" stroke="#191970" points="1231.5001,-432.6426 1228,-422.6427 1224.5001,-432.6427 1231.5001,-432.6426"/>
</g>
<!-- Node39 -->
<g id="node35" class="node">
<title>Node39</title>
<g id="a_node35"><a xlink:href="Indices_8h.html" target="_top" xlink:title="iDynTree/Model/Indices.h">
<polygon fill="none" stroke="#000000" points="1565,-403.5 1565,-422.5 1703,-422.5 1703,-403.5 1565,-403.5"/>
<text text-anchor="middle" x="1634" y="-410.5" font-family="FreeSans.ttf" font-size="10.00" fill="#000000">iDynTree/Model/Indices.h</text>
</a>
</g>
</g>
<!-- Node37&#45;&gt;Node39 -->
<g id="edge75" class="edge">
<title>Node37&#45;&gt;Node39</title>
<path fill="none" stroke="#191970" d="M1297.3326,-459.4369C1368.714,-449.5912 1479.7892,-434.2705 1554.6399,-423.9462"/>
<polygon fill="#191970" stroke="#191970" points="1555.5254,-427.3573 1564.9534,-422.5237 1554.5689,-420.423 1555.5254,-427.3573"/>
</g>
<!-- Node39&#45;&gt;Node5 -->
<g id="edge77" class="edge">
<title>Node39&#45;&gt;Node5</title>
<path fill="none" stroke="#191970" d="M1630.7621,-403.4197C1624.6335,-386.8383 1609.6937,-352.9433 1585,-336 1414.1616,-218.7811 1329.8875,-290.5559 1128,-244 997.3279,-213.8666 966.2115,-200.065 836,-168 777.4921,-153.5922 708.9514,-137.9408 669.7873,-129.1137"/>
<polygon fill="#191970" stroke="#191970" points="670.5443,-125.6966 660.0199,-126.9166 669.008,-132.526 670.5443,-125.6966"/>
</g>
<!-- Node39&#45;&gt;Node13 -->
<g id="edge76" class="edge">
<title>Node39&#45;&gt;Node13</title>
<path fill="none" stroke="#191970" d="M1669.6712,-403.482C1689.3116,-396.476 1712.5616,-384.976 1727,-367 1749.0733,-339.5184 1746,-325.2487 1746,-290 1746,-290 1746,-290 1746,-178 1746,-147.4754 1750.0415,-132.0211 1727,-112 1683.8011,-74.4638 1527.7751,-88.8161 1472,-76 1410.861,-61.9514 1341.8061,-37.9677 1301.4732,-23.1063"/>
<polygon fill="#191970" stroke="#191970" points="1302.4532,-19.7367 1291.8602,-19.5361 1300.016,-26.2987 1302.4532,-19.7367"/>
</g>
<!-- Node40 -->
<g id="node36" class="node">
<title>Node40</title>
<polygon fill="none" stroke="#bfbfbf" points="1632,-342 1632,-361 1718,-361 1718,-342 1632,-342"/>
<text text-anchor="middle" x="1675" y="-349" font-family="FreeSans.ttf" font-size="10.00" fill="#000000">ModelExport.h</text>
</g>
<!-- Node39&#45;&gt;Node40 -->
<g id="edge78" class="edge">
<title>Node39&#45;&gt;Node40</title>
<path fill="none" stroke="#191970" d="M1640.4063,-403.3906C1646.3886,-394.417 1655.4747,-380.7879 1662.8339,-369.7491"/>
<polygon fill="#191970" stroke="#191970" points="1665.8686,-371.5068 1668.5034,-361.2449 1660.0442,-367.6239 1665.8686,-371.5068"/>
</g>
<!-- Node41&#45;&gt;Node2 -->
<g id="edge86" class="edge">
<title>Node41&#45;&gt;Node2</title>
<path fill="none" stroke="#191970" d="M733.6033,-633.3891C679.6675,-627.9113 592.2342,-615.4456 572,-591 548.1164,-562.1455 555.3059,-514.9784 562.0461,-488.5406"/>
<polygon fill="#191970" stroke="#191970" points="565.5052,-489.1655 564.8153,-478.5931 558.7616,-487.2881 565.5052,-489.1655"/>
</g>
<!-- Node41&#45;&gt;Node36 -->
<g id="edge87" class="edge">
<title>Node41&#45;&gt;Node36</title>
<path fill="none" stroke="#191970" d="M766.8972,-627.2455C758.4972,-619.1352 746.3506,-607.4075 736.3916,-597.7919"/>
<polygon fill="#191970" stroke="#191970" points="738.6122,-595.0707 728.9871,-590.6427 733.75,-600.1066 738.6122,-595.0707"/>
</g>
<!-- Node42 -->
<g id="node38" class="node">
<title>Node42</title>
<g id="a_node38"><a xlink:href="Link_8h.html" target="_top" xlink:title="iDynTree/Model/Link.h">
<polygon fill="none" stroke="#000000" points="1366,-459.5 1366,-478.5 1490,-478.5 1490,-459.5 1366,-459.5"/>
<text text-anchor="middle" x="1428" y="-466.5" font-family="FreeSans.ttf" font-size="10.00" fill="#000000">iDynTree/Model/Link.h</text>
</a>
</g>
</g>
<!-- Node41&#45;&gt;Node42 -->
<g id="edge88" class="edge">
<title>Node41&#45;&gt;Node42</title>
<path fill="none" stroke="#191970" d="M813.8658,-627.4862C925.185,-598.7587 1257.813,-512.9192 1381.2327,-481.069"/>
<polygon fill="#191970" stroke="#191970" points="1382.3278,-484.4011 1391.136,-478.5133 1380.5786,-477.6232 1382.3278,-484.4011"/>
</g>
<!-- Node42&#45;&gt;Node39 -->
<g id="edge96" class="edge">
<title>Node42&#45;&gt;Node39</title>
<path fill="none" stroke="#191970" d="M1463.4127,-459.3733C1498.2605,-449.9001 1551.5882,-435.4032 1589.3293,-425.1435"/>
<polygon fill="#191970" stroke="#191970" points="1590.3178,-428.5019 1599.0494,-422.5011 1588.4815,-421.747 1590.3178,-428.5019"/>
</g>
<!-- Node43 -->
<g id="node39" class="node">
<title>Node43</title>
<g id="a_node39"><a xlink:href="SpatialInertia_8h.html" target="_top" xlink:title="iDynTree/Core/SpatialInertia.h">
<polygon fill="none" stroke="#000000" points="1271,-403.5 1271,-422.5 1433,-422.5 1433,-403.5 1271,-403.5"/>
<text text-anchor="middle" x="1352" y="-410.5" font-family="FreeSans.ttf" font-size="10.00" fill="#000000">iDynTree/Core/SpatialInertia.h</text>
</a>
</g>
</g>
<!-- Node42&#45;&gt;Node43 -->
<g id="edge89" class="edge">
<title>Node42&#45;&gt;Node43</title>
<path fill="none" stroke="#191970" d="M1414.7618,-459.2455C1403.319,-450.814 1386.5704,-438.4729 1373.2525,-428.6598"/>
<polygon fill="#191970" stroke="#191970" points="1375.2133,-425.757 1365.0865,-422.6427 1371.0609,-431.3924 1375.2133,-425.757"/>
</g>
<!-- Node43&#45;&gt;Node11 -->
<g id="edge91" class="edge">
<title>Node43&#45;&gt;Node11</title>
<path fill="none" stroke="#191970" d="M1358.5397,-403.2849C1364.1594,-394.3105 1371.8408,-380.3824 1375,-367 1389.9632,-303.6148 1384.5927,-274.1161 1343,-224 1330.587,-209.0432 1312.0984,-198.4894 1294.9445,-191.2982"/>
<polygon fill="#191970" stroke="#191970" points="1296.1868,-188.026 1285.5989,-187.6425 1293.6367,-194.545 1296.1868,-188.026"/>
</g>
<!-- Node44 -->
<g id="node40" class="node">
<title>Node44</title>
<g id="a_node40"><a xlink:href="SpatialInertiaRaw_8h.html" target="_top" xlink:title="iDynTree/Core/SpatialInertia\lRaw.h">
<polygon fill="none" stroke="#ff0000" points="1422.5,-336.5 1422.5,-366.5 1575.5,-366.5 1575.5,-336.5 1422.5,-336.5"/>
<text text-anchor="start" x="1430.5" y="-354.5" font-family="FreeSans.ttf" font-size="10.00" fill="#000000">iDynTree/Core/SpatialInertia</text>
<text text-anchor="middle" x="1499" y="-343.5" font-family="FreeSans.ttf" font-size="10.00" fill="#000000">Raw.h</text>
</a>
</g>
</g>
<!-- Node43&#45;&gt;Node44 -->
<g id="edge90" class="edge">
<title>Node43&#45;&gt;Node44</title>
<path fill="none" stroke="#191970" d="M1374.9688,-403.3906C1395.9687,-394.6049 1427.6352,-381.3567 1453.7145,-370.446"/>
<polygon fill="#191970" stroke="#191970" points="1455.1654,-373.633 1463.0398,-366.5446 1452.4637,-367.1754 1455.1654,-373.633"/>
</g>
<!-- Node46 -->
<g id="node41" class="node">
<title>Node46</title>
<g id="a_node41"><a xlink:href="Twist_8h.html" target="_top" xlink:title="iDynTree/Core/Twist.h">
<polygon fill="none" stroke="#ff0000" points="722,-342 722,-361 844,-361 844,-342 722,-342"/>
<text text-anchor="middle" x="783" y="-349" font-family="FreeSans.ttf" font-size="10.00" fill="#000000">iDynTree/Core/Twist.h</text>
</a>
</g>
</g>
<!-- Node43&#45;&gt;Node46 -->
<g id="edge92" class="edge">
<title>Node43&#45;&gt;Node46</title>
<path fill="none" stroke="#191970" d="M1270.5737,-403.8682C1267.6807,-403.5707 1264.8159,-403.2803 1262,-403 1080.417,-384.923 1033.353,-394.7842 853,-367 846.1397,-365.9431 838.9466,-364.6112 831.8912,-363.1742"/>
<polygon fill="#191970" stroke="#191970" points="832.2163,-359.6653 821.7076,-361.0135 830.7633,-366.5129 832.2163,-359.6653"/>
</g>
<!-- Node49 -->
<g id="node42" class="node">
<title>Node49</title>
<g id="a_node42"><a xlink:href="SpatialMomentum_8h.html" target="_top" xlink:title="iDynTree/Core/SpatialMomentum.h">
<polygon fill="none" stroke="#ff0000" points="862,-342 862,-361 1048,-361 1048,-342 862,-342"/>
<text text-anchor="middle" x="955" y="-349" font-family="FreeSans.ttf" font-size="10.00" fill="#000000">iDynTree/Core/SpatialMomentum.h</text>
</a>
</g>
</g>
<!-- Node43&#45;&gt;Node49 -->
<g id="edge93" class="edge">
<title>Node43&#45;&gt;Node49</title>
<path fill="none" stroke="#191970" d="M1290.4043,-403.4581C1219.1612,-392.4217 1102.0442,-374.2789 1026.751,-362.6151"/>
<polygon fill="#191970" stroke="#191970" points="1026.8315,-359.0859 1016.4135,-361.0137 1025.7598,-366.0034 1026.8315,-359.0859"/>
</g>
<!-- Node51 -->
<g id="node43" class="node">
<title>Node51</title>
<g id="a_node43"><a xlink:href="SpatialAcc_8h.html" target="_top" xlink:title="iDynTree/Core/SpatialAcc.h">
<polygon fill="none" stroke="#ff0000" points="1066,-342 1066,-361 1214,-361 1214,-342 1066,-342"/>
<text text-anchor="middle" x="1140" y="-349" font-family="FreeSans.ttf" font-size="10.00" fill="#000000">iDynTree/Core/SpatialAcc.h</text>
</a>
</g>
</g>
<!-- Node43&#45;&gt;Node51 -->
<g id="edge94" class="edge">
<title>Node43&#45;&gt;Node51</title>
<path fill="none" stroke="#191970" d="M1318.875,-403.3906C1282.1589,-392.7395 1222.8336,-375.5296 1182.6662,-363.8772"/>
<polygon fill="#191970" stroke="#191970" points="1183.4716,-360.4666 1172.8924,-361.0419 1181.5213,-367.1895 1183.4716,-360.4666"/>
</g>
<!-- Node52 -->
<g id="node44" class="node">
<title>Node52</title>
<g id="a_node44"><a xlink:href="Wrench_8h.html" target="_top" xlink:title="iDynTree/Core/Wrench.h">
<polygon fill="none" stroke="#ff0000" points="1232.5,-342 1232.5,-361 1365.5,-361 1365.5,-342 1232.5,-342"/>
<text text-anchor="middle" x="1299" y="-349" font-family="FreeSans.ttf" font-size="10.00" fill="#000000">iDynTree/Core/Wrench.h</text>
</a>
</g>
</g>
<!-- Node43&#45;&gt;Node52 -->
<g id="edge95" class="edge">
<title>Node43&#45;&gt;Node52</title>
<path fill="none" stroke="#191970" d="M1343.7188,-403.3906C1335.8307,-394.2376 1323.7686,-380.2409 1314.1588,-369.09"/>
<polygon fill="#191970" stroke="#191970" points="1316.5775,-366.5352 1307.398,-361.2449 1311.2749,-371.1049 1316.5775,-366.5352"/>
</g>
<!-- Node53&#45;&gt;Node2 -->
<g id="edge99" class="edge">
<title>Node53&#45;&gt;Node2</title>
<path fill="none" stroke="#191970" d="M896.2751,-633.3541C825.68,-627.4431 700.6695,-614.0454 662,-591 620.4516,-566.2388 590.6865,-515.5571 576.7972,-487.9489"/>
<polygon fill="#191970" stroke="#191970" points="579.7748,-486.068 572.2598,-478.5997 573.4773,-489.1243 579.7748,-486.068"/>
</g>
<!-- Node53&#45;&gt;Node4 -->
<g id="edge119" class="edge">
<title>Node53&#45;&gt;Node4</title>
<path fill="none" stroke="#191970" d="M938.7382,-627.4068C915.3533,-597.2506 838.4797,-503.7268 752,-459 719.9268,-442.4119 680.6483,-430.0692 652.0367,-422.3681"/>
<polygon fill="#191970" stroke="#191970" points="652.572,-418.8902 642.0114,-419.7416 650.7979,-425.6617 652.572,-418.8902"/>
</g>
<!-- Node53&#45;&gt;Node5 -->
<g id="edge120" class="edge">
<title>Node53&#45;&gt;Node5</title>
<path fill="none" stroke="#191970" d="M995.6335,-630.1329C1138.3133,-609.7614 1546.744,-546.8423 1662,-479 1722.1642,-443.586 1769.6616,-391.2618 1727,-336 1696.9611,-297.089 1561.3708,-288.7558 1513,-280 1358.6893,-252.0676 1315.389,-276.616 1162,-244 1134.0928,-238.0659 1128.3691,-232.0596 1101,-224 1006.6905,-196.2278 982.9588,-189.3889 887,-168 809.612,-150.7505 717.6743,-134.9739 670.1006,-127.1568"/>
<polygon fill="#191970" stroke="#191970" points="670.5268,-123.6801 660.0934,-125.5226 669.3985,-130.5886 670.5268,-123.6801"/>
</g>
<!-- Node53&#45;&gt;Node6 -->
<g id="edge121" class="edge">
<title>Node53&#45;&gt;Node6</title>
<path fill="none" stroke="#191970" d="M932.5452,-627.43C884.9548,-593.744 724.3182,-481.4731 666,-459 628.1535,-444.4158 520.6106,-428.7641 453.5243,-419.9961"/>
<polygon fill="#191970" stroke="#191970" points="453.8943,-416.5149 443.5275,-418.7013 452.9951,-423.4569 453.8943,-416.5149"/>
</g>
<!-- Node53&#45;&gt;Node7 -->
<g id="edge122" class="edge">
<title>Node53&#45;&gt;Node7</title>
<path fill="none" stroke="#191970" d="M972.9644,-627.4934C989.1714,-620.2188 1008.4508,-608.4326 1018,-591 1034.2276,-561.3756 1027.9207,-547.2881 1018,-515 1006.6217,-477.9679 972.8703,-446.5128 950.0909,-428.6933"/>
<polygon fill="#191970" stroke="#191970" points="952.054,-425.7897 941.9672,-422.5482 947.831,-431.3724 952.054,-425.7897"/>
</g>
<!-- Node53&#45;&gt;Node34 -->
<g id="edge100" class="edge">
<title>Node53&#45;&gt;Node34</title>
<path fill="none" stroke="#191970" d="M944.608,-627.2596C941.0879,-605.369 930.1786,-551.3568 904,-515 875.9225,-476.0061 828.7296,-444.8779 798.7638,-427.6923"/>
<polygon fill="#191970" stroke="#191970" points="800.1214,-424.4412 789.686,-422.6102 796.7019,-430.5492 800.1214,-424.4412"/>
</g>
<!-- Node53&#45;&gt;Node54 -->
<g id="edge101" class="edge">
<title>Node53&#45;&gt;Node54</title>
<path fill="none" stroke="#191970" d="M995.8066,-633.7502C1026.9076,-631.745 1067.7832,-629.1536 1104,-627 1391.4925,-609.9041 1463.994,-614.9112 1751,-591 1752.4688,-590.8776 1753.9507,-590.7508 1755.4427,-590.62"/>
<polygon fill="#191970" stroke="#191970" points="1755.7694,-594.1049 1765.4073,-589.7047 1755.129,-587.1342 1755.7694,-594.1049"/>
</g>
<!-- Node54&#45;&gt;Node5 -->
<g id="edge103" class="edge">
<title>Node54&#45;&gt;Node5</title>
<path fill="none" stroke="#191970" d="M1843.8035,-571.2066C1849.0887,-551.8521 1860,-507.2612 1860,-469 1860,-469 1860,-469 1860,-413 1860,-322.5635 1790.1934,-313.0187 1706,-280 1686.2533,-272.2558 1361.8624,-171.8294 1341,-168 1209.4817,-143.8591 789.7891,-127.3991 670.1263,-123.1101"/>
<polygon fill="#191970" stroke="#191970" points="670.2457,-119.6123 660.1277,-122.7552 669.9972,-126.6079 670.2457,-119.6123"/>
</g>
<!-- Node54&#45;&gt;Node7 -->
<g id="edge104" class="edge">
<title>Node54&#45;&gt;Node7</title>
<path fill="none" stroke="#191970" d="M1765.3171,-577.1785C1631.1882,-570.039 1357.0427,-553.6952 1263,-535 1183.7343,-519.2424 1165.9181,-506.7093 1090,-479 1044.1089,-462.2503 991.927,-440.4912 959.4792,-426.6315"/>
<polygon fill="#191970" stroke="#191970" points="960.6417,-423.3218 950.0716,-422.5981 957.8833,-429.7554 960.6417,-423.3218"/>
</g>
<!-- Node54&#45;&gt;Node19 -->
<g id="edge105" class="edge">
<title>Node54&#45;&gt;Node19</title>
<path fill="none" stroke="#191970" d="M1867.3145,-571.4947C1904.5136,-556.1657 1968,-522.2099 1968,-469 1968,-469 1968,-469 1968,-122 1968,-56.8692 1880.943,-27.8973 1829.6341,-16.4781"/>
<polygon fill="#191970" stroke="#191970" points="1830.0852,-12.9964 1819.5787,-14.3618 1828.6435,-19.8463 1830.0852,-12.9964"/>
</g>
<!-- Node54&#45;&gt;Node29 -->
<g id="edge102" class="edge">
<title>Node54&#45;&gt;Node29</title>
<path fill="none" stroke="#191970" d="M1838.1965,-571.2066C1832.9113,-551.8521 1822,-507.2612 1822,-469 1822,-469 1822,-469 1822,-413 1822,-377.154 1823.9676,-360.7108 1798,-336 1734.0228,-275.1193 1482.082,-249.1411 1343.9029,-239.2872"/>
<polygon fill="#191970" stroke="#191970" points="1343.9673,-235.7832 1333.7475,-238.5774 1343.4791,-242.7662 1343.9673,-235.7832"/>
</g>
<!-- Node54&#45;&gt;Node39 -->
<g id="edge118" class="edge">
<title>Node54&#45;&gt;Node39</title>
<path fill="none" stroke="#191970" d="M1829.2777,-571.4862C1795.2717,-543.8872 1696.3158,-463.5751 1653.7952,-429.0657"/>
<polygon fill="#191970" stroke="#191970" points="1655.8205,-426.2018 1645.8503,-422.6177 1651.4093,-431.637 1655.8205,-426.2018"/>
</g>
<!-- Node55 -->
<g id="node47" class="node">
<title>Node55</title>
<g id="a_node47"><a xlink:href="VectorDynSize_8h.html" target="_top" xlink:title="iDynTree/Core/VectorDynSize.h">
<polygon fill="none" stroke="#000000" points="1773.5,-168.5 1773.5,-187.5 1940.5,-187.5 1940.5,-168.5 1773.5,-168.5"/>
<text text-anchor="middle" x="1857" y="-175.5" font-family="FreeSans.ttf" font-size="10.00" fill="#000000">iDynTree/Core/VectorDynSize.h</text>
</a>
</g>
</g>
<!-- Node54&#45;&gt;Node55 -->
<g id="edge106" class="edge">
<title>Node54&#45;&gt;Node55</title>
<path fill="none" stroke="#191970" d="M1849.9063,-571.3544C1865.9375,-552.945 1898,-510.8901 1898,-469 1898,-469 1898,-469 1898,-290 1898,-255.3444 1880.4755,-218.1312 1868.3408,-196.5174"/>
<polygon fill="#191970" stroke="#191970" points="1871.2886,-194.6243 1863.227,-187.7496 1865.2419,-198.1511 1871.2886,-194.6243"/>
</g>
<!-- Node54&#45;&gt;Node56 -->
<g id="edge109" class="edge">
<title>Node54&#45;&gt;Node56</title>
<path fill="none" stroke="#191970" d="M1765.4237,-572.5859C1670.9563,-562.0687 1510.1451,-544.1653 1415.0115,-533.5738"/>
<polygon fill="#191970" stroke="#191970" points="1415.2062,-530.074 1404.8803,-532.4459 1414.4316,-537.031 1415.2062,-530.074"/>
</g>
<!-- Node55&#45;&gt;Node5 -->
<g id="edge108" class="edge">
<title>Node55&#45;&gt;Node5</title>
<path fill="none" stroke="#191970" d="M1773.2132,-174.1509C1529.7576,-162.9667 829.6343,-130.8035 670.4622,-123.4913"/>
<polygon fill="#191970" stroke="#191970" points="670.5093,-119.9899 660.3592,-123.0272 670.188,-126.9825 670.5093,-119.9899"/>
</g>
<!-- Node55&#45;&gt;Node15 -->
<g id="edge107" class="edge">
<title>Node55&#45;&gt;Node15</title>
<path fill="none" stroke="#191970" d="M1845.9216,-168.2819C1828.7481,-153.7488 1794.1123,-126.5129 1760,-112 1712.7383,-91.8927 1655.886,-80.2854 1611.9526,-73.7613"/>
<polygon fill="#191970" stroke="#191970" points="1612.3268,-70.2792 1601.9318,-72.3276 1611.3353,-77.2087 1612.3268,-70.2792"/>
</g>
<!-- Node56&#45;&gt;Node7 -->
<g id="edge117" class="edge">
<title>Node56&#45;&gt;Node7</title>
<path fill="none" stroke="#191970" d="M1283.2791,-515.4898C1242.6132,-507.6857 1186.0913,-495.2765 1138,-479 1117.6528,-472.1135 1114.1898,-466.335 1094,-459 1081.5158,-454.4644 1006.4104,-434.0696 961.6132,-422.0122"/>
<polygon fill="#191970" stroke="#191970" points="962.3063,-418.5743 951.7405,-419.3578 960.4888,-425.3343 962.3063,-418.5743"/>
</g>
<!-- Node56&#45;&gt;Node34 -->
<g id="edge113" class="edge">
<title>Node56&#45;&gt;Node34</title>
<path fill="none" stroke="#191970" d="M1286.0736,-515.4474C1236.6469,-506.2986 1160.1981,-492.0025 1094,-479 999.9079,-460.5186 890.6324,-437.9598 826.3459,-424.5759"/>
<polygon fill="#191970" stroke="#191970" points="826.9275,-421.122 816.4238,-422.5087 825.4997,-427.9749 826.9275,-421.122"/>
</g>
<!-- Node56&#45;&gt;Node37 -->
<g id="edge115" class="edge">
<title>Node56&#45;&gt;Node37</title>
<path fill="none" stroke="#191970" d="M1318.8395,-515.2455C1301.4889,-506.4125 1275.7099,-493.2887 1256.0417,-483.2758"/>
<polygon fill="#191970" stroke="#191970" points="1257.4405,-480.0605 1246.941,-478.6427 1254.2647,-486.2986 1257.4405,-480.0605"/>
</g>
<!-- Node56&#45;&gt;Node38 -->
<g id="edge116" class="edge">
<title>Node56&#45;&gt;Node38</title>
<path fill="none" stroke="#191970" d="M1337.5895,-515.3742C1336.52,-501.4453 1332.6871,-475.532 1319,-459 1310.9988,-449.3358 1283.9581,-436.2705 1261.4158,-426.5336"/>
<polygon fill="#191970" stroke="#191970" points="1262.6718,-423.2646 1252.0988,-422.584 1259.9397,-429.7094 1262.6718,-423.2646"/>
</g>
<!-- Node56&#45;&gt;Node39 -->
<g id="edge114" class="edge">
<title>Node56&#45;&gt;Node39</title>
<path fill="none" stroke="#191970" d="M1404.6697,-519.5949C1490.2223,-511.9717 1629.5244,-496.9672 1645,-479 1656.0873,-466.1277 1650.9164,-446.4225 1644.445,-431.8927"/>
<polygon fill="#191970" stroke="#191970" points="1647.5186,-430.2126 1639.9408,-422.808 1641.2471,-433.322 1647.5186,-430.2126"/>
</g>
<!-- Node56&#45;&gt;Node42 -->
<g id="edge112" class="edge">
<title>Node56&#45;&gt;Node42</title>
<path fill="none" stroke="#191970" d="M1353.6768,-515.2455C1367.4856,-506.6534 1387.8193,-494.0014 1403.7292,-484.1018"/>
<polygon fill="#191970" stroke="#191970" points="1405.8613,-486.8974 1412.5028,-478.6427 1402.1632,-480.954 1405.8613,-486.8974"/>
</g>
<!-- Node57 -->
<g id="node49" class="node">
<title>Node57</title>
<g id="a_node49"><a xlink:href="IJoint_8h.html" target="_top" xlink:title="iDynTree/Model/IJoint.h">
<polygon fill="none" stroke="#000000" points="1508,-459.5 1508,-478.5 1636,-478.5 1636,-459.5 1508,-459.5"/>
<text text-anchor="middle" x="1572" y="-466.5" font-family="FreeSans.ttf" font-size="10.00" fill="#000000">iDynTree/Model/IJoint.h</text>
</a>
</g>
</g>
<!-- Node56&#45;&gt;Node57 -->
<g id="edge110" class="edge">
<title>Node56&#45;&gt;Node57</title>
<path fill="none" stroke="#191970" d="M1377.9602,-515.4369C1417.8392,-505.8932 1479.2139,-491.2052 1522.2328,-480.9101"/>
<polygon fill="#191970" stroke="#191970" points="1523.2939,-484.2551 1532.2047,-478.5237 1521.6646,-477.4473 1523.2939,-484.2551"/>
</g>
<!-- Node57&#45;&gt;Node39 -->
<g id="edge111" class="edge">
<title>Node57&#45;&gt;Node39</title>
<path fill="none" stroke="#191970" d="M1582.7996,-459.2455C1591.8678,-451.0549 1605.0206,-439.1749 1615.7245,-429.5069"/>
<polygon fill="#191970" stroke="#191970" points="1618.2491,-431.9429 1623.3242,-422.6427 1613.5571,-426.7482 1618.2491,-431.9429"/>
</g>
</g>
</svg>
