<?xml version="1.0" encoding="UTF-8" standalone="no"?>
<!DOCTYPE svg PUBLIC "-//W3C//DTD SVG 1.1//EN"
 "http://www.w3.org/Graphics/SVG/1.1/DTD/svg11.dtd">
<!-- Generated by graphviz version 2.40.1 (20161225.0304)
 -->
<!-- Title: RobotElement.h Pages: 1 -->
<svg width="1629pt" height="588pt"
 viewBox="0.00 0.00 1629.41 588.00" xmlns="http://www.w3.org/2000/svg" xmlns:xlink="http://www.w3.org/1999/xlink">
<g id="graph0" class="graph" transform="scale(1 1) rotate(0) translate(4 584)">
<title>RobotElement.h</title>
<!-- Node0 -->
<g id="node1" class="node">
<title>Node0</title>
<polygon fill="#bfbfbf" stroke="#000000" points="326,-560.5 326,-579.5 420,-579.5 420,-560.5 326,-560.5"/>
<text text-anchor="middle" x="373" y="-567.5" font-family="FreeSans.ttf" font-size="10.00" fill="#000000">RobotElement.h</text>
</g>
<!-- Node1 -->
<g id="node2" class="node">
<title>Node1</title>
<g id="a_node2"><a xlink:href="XMLElement_8h.html" target="_top" xlink:title="iDynTree/XMLElement.h">
<polygon fill="none" stroke="#000000" points="375,-392.5 375,-411.5 507,-411.5 507,-392.5 375,-392.5"/>
<text text-anchor="middle" x="441" y="-399.5" font-family="FreeSans.ttf" font-size="10.00" fill="#000000">iDynTree/XMLElement.h</text>
</a>
</g>
</g>
<!-- Node0&#45;&gt;Node1 -->
<g id="edge1" class="edge">
<title>Node0&#45;&gt;Node1</title>
<path fill="none" stroke="#191970" d="M376.8508,-560.4862C387.6931,-533.6994 418.6343,-457.2565 433.2169,-421.2289"/>
<polygon fill="#191970" stroke="#191970" points="436.5144,-422.4106 437.022,-411.8279 430.0257,-419.7842 436.5144,-422.4106"/>
</g>
<!-- Node5 -->
<g id="node6" class="node">
<title>Node5</title>
<polygon fill="none" stroke="#bfbfbf" points="259.5,-336.5 259.5,-355.5 352.5,-355.5 352.5,-336.5 259.5,-336.5"/>
<text text-anchor="middle" x="306" y="-343.5" font-family="FreeSans.ttf" font-size="10.00" fill="#000000">unordered_map</text>
</g>
<!-- Node0&#45;&gt;Node5 -->
<g id="edge88" class="edge">
<title>Node0&#45;&gt;Node5</title>
<path fill="none" stroke="#191970" d="M347.1495,-560.4954C312.8764,-546.3171 253.8378,-516.0311 229,-468 208.4766,-428.3121 253.9461,-384.6951 283.4016,-361.8967"/>
<polygon fill="#191970" stroke="#191970" points="285.6686,-364.5717 291.5775,-355.7776 281.4742,-358.9675 285.6686,-364.5717"/>
</g>
<!-- Node6 -->
<g id="node7" class="node">
<title>Node6</title>
<polygon fill="none" stroke="#bfbfbf" points="1458.5,-336.5 1458.5,-355.5 1505.5,-355.5 1505.5,-336.5 1458.5,-336.5"/>
<text text-anchor="middle" x="1482" y="-343.5" font-family="FreeSans.ttf" font-size="10.00" fill="#000000">vector</text>
</g>
<!-- Node0&#45;&gt;Node6 -->
<g id="edge89" class="edge">
<title>Node0&#45;&gt;Node6</title>
<path fill="none" stroke="#191970" d="M420.2311,-568.7763C560.1948,-564.3361 984.3045,-545.0018 1326,-468 1399.4977,-451.4371 1442.4047,-473.4467 1486,-412 1495.5277,-398.5709 1493.1229,-379.4705 1489.166,-365.2701"/>
<polygon fill="#191970" stroke="#191970" points="1492.4249,-363.9729 1486.0096,-355.5411 1485.7665,-366.1331 1492.4249,-363.9729"/>
</g>
<!-- Node7 -->
<g id="node8" class="node">
<title>Node7</title>
<g id="a_node8"><a xlink:href="JointElement_8h.html" target="_top" xlink:title="JointElement.h">
<polygon fill="none" stroke="#000000" points="238,-448.5 238,-467.5 326,-467.5 326,-448.5 238,-448.5"/>
<text text-anchor="middle" x="282" y="-455.5" font-family="FreeSans.ttf" font-size="10.00" fill="#000000">JointElement.h</text>
</a>
</g>
</g>
<!-- Node0&#45;&gt;Node7 -->
<g id="edge7" class="edge">
<title>Node0&#45;&gt;Node7</title>
<path fill="none" stroke="#191970" d="M365.2414,-560.4509C349.9294,-541.6054 315.6252,-499.3849 296.1715,-475.4419"/>
<polygon fill="#191970" stroke="#191970" points="298.7613,-473.079 289.739,-467.5249 293.3285,-477.4931 298.7613,-473.079"/>
</g>
<!-- Node34 -->
<g id="node35" class="node">
<title>Node34</title>
<g id="a_node35"><a xlink:href="MaterialElement_8h.html" target="_top" xlink:title="MaterialElement.h">
<polygon fill="none" stroke="#000000" points="477,-448.5 477,-467.5 583,-467.5 583,-448.5 477,-448.5"/>
<text text-anchor="middle" x="530" y="-455.5" font-family="FreeSans.ttf" font-size="10.00" fill="#000000">MaterialElement.h</text>
</a>
</g>
</g>
<!-- Node0&#45;&gt;Node34 -->
<g id="edge66" class="edge">
<title>Node0&#45;&gt;Node34</title>
<path fill="none" stroke="#191970" d="M386.3857,-560.4509C413.4984,-541.1094 475.1249,-497.1465 508.1456,-473.5904"/>
<polygon fill="#191970" stroke="#191970" points="510.5399,-476.1817 516.6481,-467.5249 506.4747,-470.4831 510.5399,-476.1817"/>
</g>
<!-- Node35 -->
<g id="node36" class="node">
<title>Node35</title>
<g id="a_node36"><a xlink:href="VisualElement_8h.html" target="_top" xlink:title="VisualElement.h">
<polygon fill="none" stroke="#000000" points="563,-504.5 563,-523.5 659,-523.5 659,-504.5 563,-504.5"/>
<text text-anchor="middle" x="611" y="-511.5" font-family="FreeSans.ttf" font-size="10.00" fill="#000000">VisualElement.h</text>
</a>
</g>
</g>
<!-- Node0&#45;&gt;Node35 -->
<g id="edge71" class="edge">
<title>Node0&#45;&gt;Node35</title>
<path fill="none" stroke="#191970" d="M413.6432,-560.4369C454.2895,-550.8731 516.8913,-536.1432 560.6587,-525.845"/>
<polygon fill="#191970" stroke="#191970" points="561.5919,-529.2211 570.5244,-523.5237 559.9886,-522.4072 561.5919,-529.2211"/>
</g>
<!-- Node2 -->
<g id="node3" class="node">
<title>Node2</title>
<polygon fill="none" stroke="#bfbfbf" points="409.5,-336.5 409.5,-355.5 474.5,-355.5 474.5,-336.5 409.5,-336.5"/>
<text text-anchor="middle" x="442" y="-343.5" font-family="FreeSans.ttf" font-size="10.00" fill="#000000">functional</text>
</g>
<!-- Node1&#45;&gt;Node2 -->
<g id="edge2" class="edge">
<title>Node1&#45;&gt;Node2</title>
<path fill="none" stroke="#191970" d="M441.1742,-392.2455C441.3047,-384.9382 441.4876,-374.6944 441.6481,-365.7046"/>
<polygon fill="#191970" stroke="#191970" points="445.1486,-365.7036 441.8278,-355.6427 438.1497,-365.5786 445.1486,-365.7036"/>
</g>
<!-- Node3 -->
<g id="node4" class="node">
<title>Node3</title>
<polygon fill="none" stroke="#bfbfbf" points="493,-336.5 493,-355.5 551,-355.5 551,-336.5 493,-336.5"/>
<text text-anchor="middle" x="522" y="-343.5" font-family="FreeSans.ttf" font-size="10.00" fill="#000000">memory</text>
</g>
<!-- Node1&#45;&gt;Node3 -->
<g id="edge3" class="edge">
<title>Node1&#45;&gt;Node3</title>
<path fill="none" stroke="#191970" d="M455.1091,-392.2455C467.4209,-383.7337 485.4958,-371.2375 499.7538,-361.3801"/>
<polygon fill="#191970" stroke="#191970" points="501.8174,-364.2085 508.0526,-355.6427 497.8366,-358.4506 501.8174,-364.2085"/>
</g>
<!-- Node4 -->
<g id="node5" class="node">
<title>Node4</title>
<polygon fill="none" stroke="#bfbfbf" points="613,-112.5 613,-131.5 657,-131.5 657,-112.5 613,-112.5"/>
<text text-anchor="middle" x="635" y="-119.5" font-family="FreeSans.ttf" font-size="10.00" fill="#000000">string</text>
</g>
<!-- Node1&#45;&gt;Node4 -->
<g id="edge4" class="edge">
<title>Node1&#45;&gt;Node4</title>
<path fill="none" stroke="#191970" d="M430.4124,-392.3634C421.4249,-383.6556 408.7826,-370.0785 401,-356 386.1713,-329.1753 381,-320.6506 381,-290 381,-290 381,-290 381,-234 381,-185.9819 534.9004,-144.8568 603.109,-128.9882"/>
<polygon fill="#191970" stroke="#191970" points="603.9364,-132.3894 612.9035,-126.7465 602.3747,-125.5658 603.9364,-132.3894"/>
</g>
<!-- Node1&#45;&gt;Node5 -->
<g id="edge5" class="edge">
<title>Node1&#45;&gt;Node5</title>
<path fill="none" stroke="#191970" d="M417.7927,-392.3733C395.8301,-383.2629 362.6668,-369.5062 338.1599,-359.3404"/>
<polygon fill="#191970" stroke="#191970" points="339.4824,-356.0999 328.9045,-355.5011 336.8003,-362.5657 339.4824,-356.0999"/>
</g>
<!-- Node1&#45;&gt;Node6 -->
<g id="edge6" class="edge">
<title>Node1&#45;&gt;Node6</title>
<path fill="none" stroke="#191970" d="M507.3054,-398.4331C707.1927,-387.6803 1299.28,-355.8293 1447.8746,-347.8358"/>
<polygon fill="#191970" stroke="#191970" points="1448.3865,-351.3134 1458.1841,-347.2812 1448.0105,-344.3235 1448.3865,-351.3134"/>
</g>
<!-- Node7&#45;&gt;Node1 -->
<g id="edge8" class="edge">
<title>Node7&#45;&gt;Node1</title>
<path fill="none" stroke="#191970" d="M309.3331,-448.3733C335.5434,-439.1419 375.2984,-425.1402 404.2668,-414.9375"/>
<polygon fill="#191970" stroke="#191970" points="405.7542,-418.1244 414.0236,-411.5011 403.4288,-411.5219 405.7542,-418.1244"/>
</g>
<!-- Node7&#45;&gt;Node3 -->
<g id="edge63" class="edge">
<title>Node7&#45;&gt;Node3</title>
<path fill="none" stroke="#191970" d="M291.9702,-448.0505C306.857,-433.7184 336.3331,-407.3078 366,-392 376.5408,-386.5611 440.4514,-368.4445 483.1306,-356.6358"/>
<polygon fill="#191970" stroke="#191970" points="484.2386,-359.9609 492.9474,-353.9271 482.3767,-353.2131 484.2386,-359.9609"/>
</g>
<!-- Node7&#45;&gt;Node4 -->
<g id="edge64" class="edge">
<title>Node7&#45;&gt;Node4</title>
<path fill="none" stroke="#191970" d="M275.3435,-448.1841C261.8826,-427.0289 234.0912,-375.8297 251,-336 293.0067,-237.0506 330.2407,-218.7566 425,-168 482.627,-137.1329 559.7051,-126.9704 602.6401,-123.6301"/>
<polygon fill="#191970" stroke="#191970" points="603.0565,-127.1096 612.7875,-122.9194 602.5674,-120.1267 603.0565,-127.1096"/>
</g>
<!-- Node7&#45;&gt;Node5 -->
<g id="edge65" class="edge">
<title>Node7&#45;&gt;Node5</title>
<path fill="none" stroke="#191970" d="M283.815,-448.1344C286.2221,-435.2096 290.6726,-411.8545 295,-392 296.8754,-383.3954 299.1101,-373.9268 301.0739,-365.8284"/>
<polygon fill="#191970" stroke="#191970" points="304.5398,-366.3903 303.5246,-355.8442 297.7416,-364.7216 304.5398,-366.3903"/>
</g>
<!-- Node8 -->
<g id="node9" class="node">
<title>Node8</title>
<g id="a_node9"><a xlink:href="Axis_8h.html" target="_top" xlink:title="iDynTree/Core/Axis.h">
<polygon fill="none" stroke="#000000" points="48,-392.5 48,-411.5 166,-411.5 166,-392.5 48,-392.5"/>
<text text-anchor="middle" x="107" y="-399.5" font-family="FreeSans.ttf" font-size="10.00" fill="#000000">iDynTree/Core/Axis.h</text>
</a>
</g>
</g>
<!-- Node7&#45;&gt;Node8 -->
<g id="edge9" class="edge">
<title>Node7&#45;&gt;Node8</title>
<path fill="none" stroke="#191970" d="M251.9164,-448.3733C222.8166,-439.0613 178.5477,-424.8953 146.597,-414.671"/>
<polygon fill="#191970" stroke="#191970" points="147.282,-411.2155 136.691,-411.5011 145.1485,-417.8824 147.282,-411.2155"/>
</g>
<!-- Node33 -->
<g id="node34" class="node">
<title>Node33</title>
<g id="a_node34"><a xlink:href="Transform_8h.html" target="_top" xlink:title="iDynTree/Core/Transform.h">
<polygon fill="none" stroke="#000000" points="774,-392.5 774,-411.5 920,-411.5 920,-392.5 774,-392.5"/>
<text text-anchor="middle" x="847" y="-399.5" font-family="FreeSans.ttf" font-size="10.00" fill="#000000">iDynTree/Core/Transform.h</text>
</a>
</g>
</g>
<!-- Node7&#45;&gt;Node33 -->
<g id="edge58" class="edge">
<title>Node7&#45;&gt;Node33</title>
<path fill="none" stroke="#191970" d="M326.3346,-453.6058C420.5884,-444.2638 642.1751,-422.3012 763.6829,-410.258"/>
<polygon fill="#191970" stroke="#191970" points="764.0822,-413.7356 773.6882,-409.2663 763.3918,-406.7698 764.0822,-413.7356"/>
</g>
<!-- Node8&#45;&gt;Node4 -->
<g id="edge10" class="edge">
<title>Node8&#45;&gt;Node4</title>
<path fill="none" stroke="#191970" d="M111.4553,-392.2869C131.3605,-348.9778 211.6293,-175.2864 222,-168 252.9822,-146.232 510.8974,-129.2309 602.7081,-123.8176"/>
<polygon fill="#191970" stroke="#191970" points="603.0284,-127.305 612.808,-123.2295 602.6214,-120.3168 603.0284,-127.305"/>
</g>
<!-- Node9 -->
<g id="node10" class="node">
<title>Node9</title>
<g id="a_node10"><a xlink:href="Direction_8h.html" target="_top" xlink:title="iDynTree/Core/Direction.h">
<polygon fill="none" stroke="#000000" points="28.5,-224.5 28.5,-243.5 169.5,-243.5 169.5,-224.5 28.5,-224.5"/>
<text text-anchor="middle" x="99" y="-231.5" font-family="FreeSans.ttf" font-size="10.00" fill="#000000">iDynTree/Core/Direction.h</text>
</a>
</g>
</g>
<!-- Node8&#45;&gt;Node9 -->
<g id="edge11" class="edge">
<title>Node8&#45;&gt;Node9</title>
<path fill="none" stroke="#191970" d="M106.547,-392.4862C105.2823,-365.9293 101.6936,-290.5651 99.9603,-254.1655"/>
<polygon fill="#191970" stroke="#191970" points="103.4398,-253.6501 99.468,-243.8279 96.4477,-253.9831 103.4398,-253.6501"/>
</g>
<!-- Node11 -->
<g id="node12" class="node">
<title>Node11</title>
<g id="a_node12"><a xlink:href="Utils_8h.html" target="_top" xlink:title="iDynTree/Core/Utils.h">
<polygon fill="none" stroke="#000000" points="799.5,-56.5 799.5,-75.5 918.5,-75.5 918.5,-56.5 799.5,-56.5"/>
<text text-anchor="middle" x="859" y="-63.5" font-family="FreeSans.ttf" font-size="10.00" fill="#000000">iDynTree/Core/Utils.h</text>
</a>
</g>
</g>
<!-- Node8&#45;&gt;Node11 -->
<g id="edge57" class="edge">
<title>Node8&#45;&gt;Node11</title>
<path fill="none" stroke="#191970" d="M86.8741,-392.4139C55.8788,-376.0856 0,-339.7498 0,-290 0,-290 0,-290 0,-178 0,-98.5976 584.5728,-73.9807 789.2426,-67.7952"/>
<polygon fill="#191970" stroke="#191970" points="789.387,-71.2926 799.2788,-67.4975 789.1794,-64.2956 789.387,-71.2926"/>
</g>
<!-- Node25 -->
<g id="node26" class="node">
<title>Node25</title>
<g id="a_node26"><a xlink:href="Position_8h.html" target="_top" xlink:title="iDynTree/Core/Position.h">
<polygon fill="none" stroke="#000000" points="683,-336.5 683,-355.5 819,-355.5 819,-336.5 683,-336.5"/>
<text text-anchor="middle" x="751" y="-343.5" font-family="FreeSans.ttf" font-size="10.00" fill="#000000">iDynTree/Core/Position.h</text>
</a>
</g>
</g>
<!-- Node8&#45;&gt;Node25 -->
<g id="edge33" class="edge">
<title>Node8&#45;&gt;Node25</title>
<path fill="none" stroke="#191970" d="M166.1445,-396.857C282.7017,-386.7216 542.0775,-364.1672 672.6736,-352.811"/>
<polygon fill="#191970" stroke="#191970" points="673.3359,-356.2667 682.995,-351.9135 672.7294,-349.293 673.3359,-356.2667"/>
</g>
<!-- Node9&#45;&gt;Node4 -->
<g id="edge12" class="edge">
<title>Node9&#45;&gt;Node4</title>
<path fill="none" stroke="#191970" d="M107.8158,-224.3075C122.1379,-209.285 152.0872,-180.781 184,-168 260.3523,-137.421 512.6447,-126.1117 602.7024,-122.9899"/>
<polygon fill="#191970" stroke="#191970" points="602.9812,-126.4826 612.8581,-122.6491 602.7463,-119.4866 602.9812,-126.4826"/>
</g>
<!-- Node10 -->
<g id="node11" class="node">
<title>Node10</title>
<g id="a_node11"><a xlink:href="VectorFixSize_8h.html" target="_top" xlink:title="iDynTree/Core/VectorFixSize.h">
<polygon fill="none" stroke="#000000" points="951.5,-168.5 951.5,-187.5 1112.5,-187.5 1112.5,-168.5 951.5,-168.5"/>
<text text-anchor="middle" x="1032" y="-175.5" font-family="FreeSans.ttf" font-size="10.00" fill="#000000">iDynTree/Core/VectorFixSize.h</text>
</a>
</g>
</g>
<!-- Node9&#45;&gt;Node10 -->
<g id="edge13" class="edge">
<title>Node9&#45;&gt;Node10</title>
<path fill="none" stroke="#191970" d="M169.5091,-229.7679C336.4585,-219.7474 755.7851,-194.5788 941.2949,-183.4443"/>
<polygon fill="#191970" stroke="#191970" points="941.5215,-186.937 951.2938,-182.8441 941.1021,-179.9496 941.5215,-186.937"/>
</g>
<!-- Node9&#45;&gt;Node11 -->
<g id="edge32" class="edge">
<title>Node9&#45;&gt;Node11</title>
<path fill="none" stroke="#191970" d="M102.9556,-224.4666C109.6418,-209.662 124.6688,-181.4512 147,-168 254.4816,-103.2585 631.9786,-77.3059 789.3267,-69.1392"/>
<polygon fill="#191970" stroke="#191970" points="789.5588,-72.632 799.3674,-68.6268 789.2019,-65.6411 789.5588,-72.632"/>
</g>
<!-- Node10&#45;&gt;Node4 -->
<g id="edge27" class="edge">
<title>Node10&#45;&gt;Node4</title>
<path fill="none" stroke="#191970" d="M964.2044,-168.4369C877.7741,-156.2452 731.8299,-135.6586 667.3196,-126.5589"/>
<polygon fill="#191970" stroke="#191970" points="667.718,-123.0806 657.3271,-125.1494 666.7402,-130.0119 667.718,-123.0806"/>
</g>
<!-- Node10&#45;&gt;Node11 -->
<g id="edge14" class="edge">
<title>Node10&#45;&gt;Node11</title>
<path fill="none" stroke="#191970" d="M1006.101,-168.408C985.4662,-160.2015 956.2786,-147.3061 933,-132 911.3972,-117.7957 889.6724,-97.5419 875.404,-83.2256"/>
<polygon fill="#191970" stroke="#191970" points="877.7883,-80.6578 868.2924,-75.959 872.7855,-85.554 877.7883,-80.6578"/>
</g>
<!-- Node12 -->
<g id="node13" class="node">
<title>Node12</title>
<polygon fill="none" stroke="#bfbfbf" points="875.5,-.5 875.5,-19.5 928.5,-19.5 928.5,-.5 875.5,-.5"/>
<text text-anchor="middle" x="902" y="-7.5" font-family="FreeSans.ttf" font-size="10.00" fill="#000000">cstddef</text>
</g>
<!-- Node10&#45;&gt;Node12 -->
<g id="edge30" class="edge">
<title>Node10&#45;&gt;Node12</title>
<path fill="none" stroke="#191970" d="M1024.6382,-168.4862C1003.6434,-141.3545 943.2284,-63.2798 915.8184,-27.8576"/>
<polygon fill="#191970" stroke="#191970" points="918.4928,-25.5947 909.6049,-19.8279 912.9567,-29.8786 918.4928,-25.5947"/>
</g>
<!-- Node14 -->
<g id="node15" class="node">
<title>Node14</title>
<g id="a_node15"><a xlink:href="Span_8h.html" target="_top" xlink:title="iDynTree/Core/Span.h">
<polygon fill="none" stroke="#000000" points="1125.5,-56.5 1125.5,-75.5 1246.5,-75.5 1246.5,-56.5 1125.5,-56.5"/>
<text text-anchor="middle" x="1186" y="-63.5" font-family="FreeSans.ttf" font-size="10.00" fill="#000000">iDynTree/Core/Span.h</text>
</a>
</g>
</g>
<!-- Node10&#45;&gt;Node14 -->
<g id="edge17" class="edge">
<title>Node10&#45;&gt;Node14</title>
<path fill="none" stroke="#191970" d="M1030.5423,-168.2003C1029.0204,-154.0547 1028.4661,-127.8742 1042,-112 1053.5842,-98.4126 1093.5355,-86.2736 1128.426,-77.8819"/>
<polygon fill="#191970" stroke="#191970" points="1129.6376,-81.1931 1138.5783,-75.5085 1128.0441,-74.3769 1129.6376,-81.1931"/>
</g>
<!-- Node15 -->
<g id="node16" class="node">
<title>Node15</title>
<polygon fill="none" stroke="#bfbfbf" points="1457,-.5 1457,-19.5 1509,-19.5 1509,-.5 1457,-.5"/>
<text text-anchor="middle" x="1483" y="-7.5" font-family="FreeSans.ttf" font-size="10.00" fill="#000000">cassert</text>
</g>
<!-- Node10&#45;&gt;Node15 -->
<g id="edge29" class="edge">
<title>Node10&#45;&gt;Node15</title>
<path fill="none" stroke="#191970" d="M1112.8547,-168.4607C1217.1476,-156.0427 1385.9977,-135.5048 1392,-132 1433.2765,-107.8981 1461.656,-56.9439 1474.7558,-29.1191"/>
<polygon fill="#191970" stroke="#191970" points="1478.0879,-30.2452 1479.0233,-19.6917 1471.7109,-27.3584 1478.0879,-30.2452"/>
</g>
<!-- Node23 -->
<g id="node24" class="node">
<title>Node23</title>
<polygon fill="none" stroke="#bfbfbf" points="1051,-112.5 1051,-131.5 1107,-131.5 1107,-112.5 1051,-112.5"/>
<text text-anchor="middle" x="1079" y="-119.5" font-family="FreeSans.ttf" font-size="10.00" fill="#000000">sstream</text>
</g>
<!-- Node10&#45;&gt;Node23 -->
<g id="edge28" class="edge">
<title>Node10&#45;&gt;Node23</title>
<path fill="none" stroke="#191970" d="M1040.1868,-168.2455C1046.8589,-160.2958 1056.4479,-148.8706 1064.4253,-139.3656"/>
<polygon fill="#191970" stroke="#191970" points="1067.1592,-141.5525 1070.907,-131.6427 1061.7974,-137.0524 1067.1592,-141.5525"/>
</g>
<!-- Node24 -->
<g id="node25" class="node">
<title>Node24</title>
<polygon fill="none" stroke="#bfbfbf" points="1125,-112.5 1125,-131.5 1175,-131.5 1175,-112.5 1125,-112.5"/>
<text text-anchor="middle" x="1150" y="-119.5" font-family="FreeSans.ttf" font-size="10.00" fill="#000000">cstring</text>
</g>
<!-- Node10&#45;&gt;Node24 -->
<g id="edge31" class="edge">
<title>Node10&#45;&gt;Node24</title>
<path fill="none" stroke="#191970" d="M1052.2849,-168.3733C1071.1421,-159.4241 1099.446,-145.9917 1120.7455,-135.8835"/>
<polygon fill="#191970" stroke="#191970" points="1122.4461,-138.9506 1129.9798,-131.5011 1119.4449,-132.6266 1122.4461,-138.9506"/>
</g>
<!-- Node11&#45;&gt;Node12 -->
<g id="edge15" class="edge">
<title>Node11&#45;&gt;Node12</title>
<path fill="none" stroke="#191970" d="M866.49,-56.2455C872.5326,-48.3761 881.1903,-37.101 888.4441,-27.6542"/>
<polygon fill="#191970" stroke="#191970" points="891.2815,-29.7058 894.5958,-19.6427 885.7295,-25.4426 891.2815,-29.7058"/>
</g>
<!-- Node13 -->
<g id="node14" class="node">
<title>Node13</title>
<polygon fill="none" stroke="#bfbfbf" points="777,-.5 777,-19.5 857,-19.5 857,-.5 777,-.5"/>
<text text-anchor="middle" x="817" y="-7.5" font-family="FreeSans.ttf" font-size="10.00" fill="#000000">CoreExport.h</text>
</g>
<!-- Node11&#45;&gt;Node13 -->
<g id="edge16" class="edge">
<title>Node11&#45;&gt;Node13</title>
<path fill="none" stroke="#191970" d="M851.6842,-56.2455C845.7821,-48.3761 837.3258,-37.101 830.2406,-27.6542"/>
<polygon fill="#191970" stroke="#191970" points="833.0321,-25.5427 824.232,-19.6427 827.432,-29.7427 833.0321,-25.5427"/>
</g>
<!-- Node14&#45;&gt;Node12 -->
<g id="edge21" class="edge">
<title>Node14&#45;&gt;Node12</title>
<path fill="none" stroke="#191970" d="M1126.5705,-56.4804C1078.4071,-48.423 1008.6108,-35.9746 938.5545,-19.9701"/>
<polygon fill="#191970" stroke="#191970" points="939.2008,-16.5274 928.6698,-17.6883 937.6263,-23.348 939.2008,-16.5274"/>
</g>
<!-- Node14&#45;&gt;Node15 -->
<g id="edge18" class="edge">
<title>Node14&#45;&gt;Node15</title>
<path fill="none" stroke="#191970" d="M1246.7168,-57.1827C1297.7595,-49.3516 1372.8025,-36.8639 1446.7516,-20.114"/>
<polygon fill="#191970" stroke="#191970" points="1447.7384,-23.4786 1456.7032,-17.8321 1446.1739,-16.6557 1447.7384,-23.4786"/>
</g>
<!-- Node16 -->
<g id="node17" class="node">
<title>Node16</title>
<polygon fill="none" stroke="#bfbfbf" points="1227,-.5 1227,-19.5 1291,-19.5 1291,-.5 1227,-.5"/>
<text text-anchor="middle" x="1259" y="-7.5" font-family="FreeSans.ttf" font-size="10.00" fill="#000000">algorithm</text>
</g>
<!-- Node14&#45;&gt;Node16 -->
<g id="edge19" class="edge">
<title>Node14&#45;&gt;Node16</title>
<path fill="none" stroke="#191970" d="M1198.7156,-56.2455C1209.602,-47.8943 1225.4883,-35.7076 1238.22,-25.9408"/>
<polygon fill="#191970" stroke="#191970" points="1240.6261,-28.5063 1246.4301,-19.6427 1236.3654,-22.9523 1240.6261,-28.5063"/>
</g>
<!-- Node17 -->
<g id="node18" class="node">
<title>Node17</title>
<polygon fill="none" stroke="#bfbfbf" points="1309,-.5 1309,-19.5 1351,-19.5 1351,-.5 1309,-.5"/>
<text text-anchor="middle" x="1330" y="-7.5" font-family="FreeSans.ttf" font-size="10.00" fill="#000000">array</text>
</g>
<!-- Node14&#45;&gt;Node17 -->
<g id="edge20" class="edge">
<title>Node14&#45;&gt;Node17</title>
<path fill="none" stroke="#191970" d="M1210.7545,-56.3733C1235.2831,-46.8343 1272.9096,-32.2018 1299.3214,-21.9306"/>
<polygon fill="#191970" stroke="#191970" points="1300.7927,-25.1138 1308.8442,-18.2273 1298.2555,-18.5898 1300.7927,-25.1138"/>
</g>
<!-- Node18 -->
<g id="node19" class="node">
<title>Node18</title>
<polygon fill="none" stroke="#bfbfbf" points="946.5,-.5 946.5,-19.5 999.5,-19.5 999.5,-.5 946.5,-.5"/>
<text text-anchor="middle" x="973" y="-7.5" font-family="FreeSans.ttf" font-size="10.00" fill="#000000">iterator</text>
</g>
<!-- Node14&#45;&gt;Node18 -->
<g id="edge22" class="edge">
<title>Node14&#45;&gt;Node18</title>
<path fill="none" stroke="#191970" d="M1148.6591,-56.4884C1114.8351,-47.8296 1063.3808,-34.5514 1009.4588,-20.0927"/>
<polygon fill="#191970" stroke="#191970" points="1010.2885,-16.6916 999.7228,-17.4764 1008.4718,-23.4518 1010.2885,-16.6916"/>
</g>
<!-- Node19 -->
<g id="node20" class="node">
<title>Node19</title>
<polygon fill="none" stroke="#bfbfbf" points="1018,-.5 1018,-19.5 1062,-19.5 1062,-.5 1018,-.5"/>
<text text-anchor="middle" x="1040" y="-7.5" font-family="FreeSans.ttf" font-size="10.00" fill="#000000">limits</text>
</g>
<!-- Node14&#45;&gt;Node19 -->
<g id="edge23" class="edge">
<title>Node14&#45;&gt;Node19</title>
<path fill="none" stroke="#191970" d="M1160.9017,-56.3733C1136.3216,-46.9453 1098.7687,-32.5414 1072.0434,-22.2906"/>
<polygon fill="#191970" stroke="#191970" points="1072.9707,-18.8977 1062.3804,-18.5843 1070.4638,-25.4334 1072.9707,-18.8977"/>
</g>
<!-- Node20 -->
<g id="node21" class="node">
<title>Node20</title>
<polygon fill="none" stroke="#bfbfbf" points="1080.5,-.5 1080.5,-19.5 1145.5,-19.5 1145.5,-.5 1080.5,-.5"/>
<text text-anchor="middle" x="1113" y="-7.5" font-family="FreeSans.ttf" font-size="10.00" fill="#000000">stdexcept</text>
</g>
<!-- Node14&#45;&gt;Node20 -->
<g id="edge24" class="edge">
<title>Node14&#45;&gt;Node20</title>
<path fill="none" stroke="#191970" d="M1173.2844,-56.2455C1162.398,-47.8943 1146.5117,-35.7076 1133.78,-25.9408"/>
<polygon fill="#191970" stroke="#191970" points="1135.6346,-22.9523 1125.5699,-19.6427 1131.3739,-28.5063 1135.6346,-22.9523"/>
</g>
<!-- Node21 -->
<g id="node22" class="node">
<title>Node21</title>
<polygon fill="none" stroke="#bfbfbf" points="1369.5,-.5 1369.5,-19.5 1438.5,-19.5 1438.5,-.5 1369.5,-.5"/>
<text text-anchor="middle" x="1404" y="-7.5" font-family="FreeSans.ttf" font-size="10.00" fill="#000000">type_traits</text>
</g>
<!-- Node14&#45;&gt;Node21 -->
<g id="edge25" class="edge">
<title>Node14&#45;&gt;Node21</title>
<path fill="none" stroke="#191970" d="M1223.4755,-56.3733C1261.1836,-46.6868 1319.3386,-31.7479 1359.3993,-21.4571"/>
<polygon fill="#191970" stroke="#191970" points="1360.3562,-24.825 1369.1709,-18.9469 1358.6146,-18.0451 1360.3562,-24.825"/>
</g>
<!-- Node22 -->
<g id="node23" class="node">
<title>Node22</title>
<polygon fill="none" stroke="#bfbfbf" points="1163.5,-.5 1163.5,-19.5 1208.5,-19.5 1208.5,-.5 1163.5,-.5"/>
<text text-anchor="middle" x="1186" y="-7.5" font-family="FreeSans.ttf" font-size="10.00" fill="#000000">utility</text>
</g>
<!-- Node14&#45;&gt;Node22 -->
<g id="edge26" class="edge">
<title>Node14&#45;&gt;Node22</title>
<path fill="none" stroke="#191970" d="M1186,-56.2455C1186,-48.9382 1186,-38.6944 1186,-29.7046"/>
<polygon fill="#191970" stroke="#191970" points="1189.5001,-29.6426 1186,-19.6427 1182.5001,-29.6427 1189.5001,-29.6426"/>
</g>
<!-- Node25&#45;&gt;Node4 -->
<g id="edge56" class="edge">
<title>Node25&#45;&gt;Node4</title>
<path fill="none" stroke="#191970" d="M737.711,-336.439C716.1827,-320.1473 674.0724,-284.7811 654,-244 637.6642,-210.8105 634.7185,-166.9287 634.5336,-141.8518"/>
<polygon fill="#191970" stroke="#191970" points="638.034,-141.7836 634.6047,-131.7592 631.0342,-141.7343 638.034,-141.7836"/>
</g>
<!-- Node26 -->
<g id="node27" class="node">
<title>Node26</title>
<g id="a_node27"><a xlink:href="PositionRaw_8h.html" target="_top" xlink:title="iDynTree/Core/PositionRaw.h">
<polygon fill="none" stroke="#000000" points="663,-224.5 663,-243.5 819,-243.5 819,-224.5 663,-224.5"/>
<text text-anchor="middle" x="741" y="-231.5" font-family="FreeSans.ttf" font-size="10.00" fill="#000000">iDynTree/Core/PositionRaw.h</text>
</a>
</g>
</g>
<!-- Node25&#45;&gt;Node26 -->
<g id="edge34" class="edge">
<title>Node25&#45;&gt;Node26</title>
<path fill="none" stroke="#191970" d="M750.1474,-336.4509C748.5164,-318.184 744.9246,-277.9553 742.7587,-253.6976"/>
<polygon fill="#191970" stroke="#191970" points="746.226,-253.174 741.8504,-243.5249 739.2537,-253.7966 746.226,-253.174"/>
</g>
<!-- Node27 -->
<g id="node28" class="node">
<title>Node27</title>
<g id="a_node28"><a xlink:href="Rotation_8h.html" target="_top" xlink:title="iDynTree/Core/Rotation.h">
<polygon fill="none" stroke="#000000" points="899.5,-280.5 899.5,-299.5 1036.5,-299.5 1036.5,-280.5 899.5,-280.5"/>
<text text-anchor="middle" x="968" y="-287.5" font-family="FreeSans.ttf" font-size="10.00" fill="#000000">iDynTree/Core/Rotation.h</text>
</a>
</g>
</g>
<!-- Node25&#45;&gt;Node27 -->
<g id="edge37" class="edge">
<title>Node25&#45;&gt;Node27</title>
<path fill="none" stroke="#191970" d="M788.3036,-336.3733C825.1685,-326.8598 881.666,-312.2797 921.4506,-302.0127"/>
<polygon fill="#191970" stroke="#191970" points="922.375,-305.3889 931.1831,-299.5011 920.6258,-298.611 922.375,-305.3889"/>
</g>
<!-- Node26&#45;&gt;Node4 -->
<g id="edge36" class="edge">
<title>Node26&#45;&gt;Node4</title>
<path fill="none" stroke="#191970" d="M731.9625,-224.4509C713.9701,-205.4401 673.4651,-162.6423 650.9152,-138.816"/>
<polygon fill="#191970" stroke="#191970" points="653.4305,-136.382 644.0146,-131.5249 648.3465,-141.1937 653.4305,-136.382"/>
</g>
<!-- Node26&#45;&gt;Node10 -->
<g id="edge35" class="edge">
<title>Node26&#45;&gt;Node10</title>
<path fill="none" stroke="#191970" d="M790.694,-224.4369C841.0196,-214.7522 918.8723,-199.7703 972.4651,-189.4569"/>
<polygon fill="#191970" stroke="#191970" points="973.3525,-192.8504 982.5109,-187.5237 972.0297,-185.9765 973.3525,-192.8504"/>
</g>
<!-- Node27&#45;&gt;Node4 -->
<g id="edge38" class="edge">
<title>Node27&#45;&gt;Node4</title>
<path fill="none" stroke="#191970" d="M950.6598,-280.3953C936.8013,-272.0932 917.5238,-259.0741 904,-244 878.0833,-215.1123 892.3967,-190.8127 861,-168 830.48,-145.8243 722.4393,-131.3712 667.5378,-125.287"/>
<polygon fill="#191970" stroke="#191970" points="667.6227,-121.7759 657.3047,-124.182 666.8711,-128.7355 667.6227,-121.7759"/>
</g>
<!-- Node27&#45;&gt;Node10 -->
<g id="edge55" class="edge">
<title>Node27&#45;&gt;Node10</title>
<path fill="none" stroke="#191970" d="M1024.6366,-280.4697C1045.653,-273.8875 1067.4176,-262.77 1080,-244 1091.7966,-226.4022 1073.4356,-206.8445 1056.1227,-193.6205"/>
<polygon fill="#191970" stroke="#191970" points="1058.0083,-190.6655 1047.8446,-187.6738 1053.9243,-196.3507 1058.0083,-190.6655"/>
</g>
<!-- Node28 -->
<g id="node29" class="node">
<title>Node28</title>
<g id="a_node29"><a xlink:href="GeomVector3_8h.html" target="_top" xlink:title="iDynTree/Core/GeomVector3.h">
<polygon fill="none" stroke="#000000" points="1127.5,-224.5 1127.5,-243.5 1290.5,-243.5 1290.5,-224.5 1127.5,-224.5"/>
<text text-anchor="middle" x="1209" y="-231.5" font-family="FreeSans.ttf" font-size="10.00" fill="#000000">iDynTree/Core/GeomVector3.h</text>
</a>
</g>
</g>
<!-- Node27&#45;&gt;Node28 -->
<g id="edge39" class="edge">
<title>Node27&#45;&gt;Node28</title>
<path fill="none" stroke="#191970" d="M1009.1555,-280.4369C1050.3142,-270.8731 1113.705,-256.1432 1158.0242,-245.845"/>
<polygon fill="#191970" stroke="#191970" points="1159.0659,-249.1963 1168.0142,-243.5237 1157.4815,-242.3779 1159.0659,-249.1963"/>
</g>
<!-- Node29 -->
<g id="node30" class="node">
<title>Node29</title>
<g id="a_node30"><a xlink:href="RotationRaw_8h.html" target="_top" xlink:title="iDynTree/Core/RotationRaw.h">
<polygon fill="none" stroke="#000000" points="913,-224.5 913,-243.5 1071,-243.5 1071,-224.5 913,-224.5"/>
<text text-anchor="middle" x="992" y="-231.5" font-family="FreeSans.ttf" font-size="10.00" fill="#000000">iDynTree/Core/RotationRaw.h</text>
</a>
</g>
</g>
<!-- Node27&#45;&gt;Node29 -->
<g id="edge41" class="edge">
<title>Node27&#45;&gt;Node29</title>
<path fill="none" stroke="#191970" d="M972.1805,-280.2455C975.381,-272.7776 979.896,-262.2427 983.8084,-253.1137"/>
<polygon fill="#191970" stroke="#191970" points="987.1452,-254.2129 987.8674,-243.6427 980.7112,-251.4554 987.1452,-254.2129"/>
</g>
<!-- Node28&#45;&gt;Node10 -->
<g id="edge40" class="edge">
<title>Node28&#45;&gt;Node10</title>
<path fill="none" stroke="#191970" d="M1178.5726,-224.3733C1149.0128,-215.021 1103.9774,-200.7725 1071.6305,-190.5385"/>
<polygon fill="#191970" stroke="#191970" points="1072.6203,-187.1807 1062.0303,-187.5011 1070.5087,-193.8546 1072.6203,-187.1807"/>
</g>
<!-- Node29&#45;&gt;Node4 -->
<g id="edge54" class="edge">
<title>Node29&#45;&gt;Node4</title>
<path fill="none" stroke="#191970" d="M981.7845,-224.3604C965.5964,-209.6746 932.4434,-181.9371 899,-168 820.0182,-135.0854 718.2609,-125.7219 667.219,-123.0585"/>
<polygon fill="#191970" stroke="#191970" points="667.2762,-119.5575 657.1234,-122.5858 666.9488,-126.5498 667.2762,-119.5575"/>
</g>
<!-- Node30 -->
<g id="node31" class="node">
<title>Node30</title>
<g id="a_node31"><a xlink:href="MatrixFixSize_8h.html" target="_top" xlink:title="iDynTree/Core/MatrixFixSize.h">
<polygon fill="none" stroke="#000000" points="1287.5,-168.5 1287.5,-187.5 1448.5,-187.5 1448.5,-168.5 1287.5,-168.5"/>
<text text-anchor="middle" x="1368" y="-175.5" font-family="FreeSans.ttf" font-size="10.00" fill="#000000">iDynTree/Core/MatrixFixSize.h</text>
</a>
</g>
</g>
<!-- Node29&#45;&gt;Node30 -->
<g id="edge42" class="edge">
<title>Node29&#45;&gt;Node30</title>
<path fill="none" stroke="#191970" d="M1056.2095,-224.4369C1122.1812,-214.6113 1224.7635,-199.3331 1294.0783,-189.0096"/>
<polygon fill="#191970" stroke="#191970" points="1294.6801,-192.4587 1304.0554,-187.5237 1293.6488,-185.5351 1294.6801,-192.4587"/>
</g>
<!-- Node30&#45;&gt;Node4 -->
<g id="edge51" class="edge">
<title>Node30&#45;&gt;Node4</title>
<path fill="none" stroke="#191970" d="M1287.0621,-168.8553C1284.0035,-168.5579 1280.9746,-168.2716 1278,-168 1044.0472,-146.6425 761.4463,-129.3821 667.2716,-123.8594"/>
<polygon fill="#191970" stroke="#191970" points="667.4234,-120.3624 657.2364,-123.2736 667.0154,-127.3505 667.4234,-120.3624"/>
</g>
<!-- Node30&#45;&gt;Node11 -->
<g id="edge43" class="edge">
<title>Node30&#45;&gt;Node11</title>
<path fill="none" stroke="#191970" d="M1332.2525,-168.4602C1302.5385,-160.1052 1259.3882,-146.9799 1223,-132 1204.987,-124.5846 1202.5675,-117.891 1184,-112 1098.6229,-84.9121 995.5677,-73.7463 928.7284,-69.1624"/>
<polygon fill="#191970" stroke="#191970" points="928.9359,-65.6685 918.7285,-68.5072 928.4782,-72.6536 928.9359,-65.6685"/>
</g>
<!-- Node30&#45;&gt;Node15 -->
<g id="edge49" class="edge">
<title>Node30&#45;&gt;Node15</title>
<path fill="none" stroke="#191970" d="M1448.5577,-173.6463C1511.4081,-168.3655 1591.3993,-156.8473 1612,-132 1647.9671,-88.6187 1566.781,-44.981 1517.4209,-23.5757"/>
<polygon fill="#191970" stroke="#191970" points="1518.5909,-20.2703 1508.0174,-19.5977 1515.8636,-26.7172 1518.5909,-20.2703"/>
</g>
<!-- Node30&#45;&gt;Node23 -->
<g id="edge53" class="edge">
<title>Node30&#45;&gt;Node23</title>
<path fill="none" stroke="#191970" d="M1307.888,-168.477C1258.9549,-160.3947 1187.9091,-147.9133 1117.1948,-132.1356"/>
<polygon fill="#191970" stroke="#191970" points="1117.7462,-128.6721 1107.2213,-129.8875 1116.2069,-135.5008 1117.7462,-128.6721"/>
</g>
<!-- Node30&#45;&gt;Node24 -->
<g id="edge50" class="edge">
<title>Node30&#45;&gt;Node24</title>
<path fill="none" stroke="#191970" d="M1330.5245,-168.3733C1289.6486,-157.873 1224.7461,-141.2008 1184.9104,-130.9678"/>
<polygon fill="#191970" stroke="#191970" points="1185.666,-127.5483 1175.1096,-128.4502 1183.9243,-134.3282 1185.666,-127.5483"/>
</g>
<!-- Node31 -->
<g id="node32" class="node">
<title>Node31</title>
<g id="a_node32"><a xlink:href="MatrixView_8h.html" target="_top" xlink:title="iDynTree/Core/MatrixView.h">
<polygon fill="none" stroke="#000000" points="1231.5,-112.5 1231.5,-131.5 1382.5,-131.5 1382.5,-112.5 1231.5,-112.5"/>
<text text-anchor="middle" x="1307" y="-119.5" font-family="FreeSans.ttf" font-size="10.00" fill="#000000">iDynTree/Core/MatrixView.h</text>
</a>
</g>
</g>
<!-- Node30&#45;&gt;Node31 -->
<g id="edge44" class="edge">
<title>Node30&#45;&gt;Node31</title>
<path fill="none" stroke="#191970" d="M1357.3746,-168.2455C1348.4527,-160.0549 1335.512,-148.1749 1324.9808,-138.5069"/>
<polygon fill="#191970" stroke="#191970" points="1327.2371,-135.8271 1317.5036,-131.6427 1322.5032,-140.9837 1327.2371,-135.8271"/>
</g>
<!-- Node32 -->
<g id="node33" class="node">
<title>Node32</title>
<polygon fill="none" stroke="#bfbfbf" points="1543,-112.5 1543,-131.5 1603,-131.5 1603,-112.5 1543,-112.5"/>
<text text-anchor="middle" x="1573" y="-119.5" font-family="FreeSans.ttf" font-size="10.00" fill="#000000">iostream</text>
</g>
<!-- Node30&#45;&gt;Node32 -->
<g id="edge52" class="edge">
<title>Node30&#45;&gt;Node32</title>
<path fill="none" stroke="#191970" d="M1403.2408,-168.3733C1439.2368,-158.5402 1495.0468,-143.2945 1532.7575,-132.9931"/>
<polygon fill="#191970" stroke="#191970" points="1534.1581,-136.2388 1542.8823,-130.2273 1532.3134,-129.4862 1534.1581,-136.2388"/>
</g>
<!-- Node31&#45;&gt;Node11 -->
<g id="edge48" class="edge">
<title>Node31&#45;&gt;Node11</title>
<path fill="none" stroke="#191970" d="M1231.2564,-112.532C1146.5877,-101.9485 1010.6268,-84.9534 928.5589,-74.6949"/>
<polygon fill="#191970" stroke="#191970" points="928.9358,-71.2148 918.5789,-73.4474 928.0675,-78.1608 928.9358,-71.2148"/>
</g>
<!-- Node31&#45;&gt;Node14 -->
<g id="edge47" class="edge">
<title>Node31&#45;&gt;Node14</title>
<path fill="none" stroke="#191970" d="M1286.1994,-112.3733C1266.7757,-103.3838 1237.5776,-89.8706 1215.7036,-79.7471"/>
<polygon fill="#191970" stroke="#191970" points="1217.0745,-76.5249 1206.5292,-75.5011 1214.1344,-82.8776 1217.0745,-76.5249"/>
</g>
<!-- Node31&#45;&gt;Node15 -->
<g id="edge45" class="edge">
<title>Node31&#45;&gt;Node15</title>
<path fill="none" stroke="#191970" d="M1318.8457,-112.4706C1335.7037,-99.1071 1367.8145,-74.3775 1397,-56 1415.3256,-44.4607 1436.8061,-32.9698 1453.7149,-24.3592"/>
<polygon fill="#191970" stroke="#191970" points="1455.725,-27.2659 1463.0838,-19.6436 1452.5779,-21.0132 1455.725,-27.2659"/>
</g>
<!-- Node31&#45;&gt;Node21 -->
<g id="edge46" class="edge">
<title>Node31&#45;&gt;Node21</title>
<path fill="none" stroke="#191970" d="M1312.7085,-112.0567C1320.6431,-98.6392 1335.8601,-74.3102 1352,-56 1361.4645,-45.2628 1373.3375,-34.5889 1383.348,-26.2299"/>
<polygon fill="#191970" stroke="#191970" points="1385.6899,-28.8364 1391.225,-19.8023 1381.2643,-23.4129 1385.6899,-28.8364"/>
</g>
<!-- Node33&#45;&gt;Node4 -->
<g id="edge62" class="edge">
<title>Node33&#45;&gt;Node4</title>
<path fill="none" stroke="#191970" d="M847,-392.4116C847,-373.0538 847,-327.9167 847,-290 847,-290 847,-290 847,-234 847,-153.6961 726.6082,-130.8201 667.2748,-124.4222"/>
<polygon fill="#191970" stroke="#191970" points="667.5818,-120.9356 657.287,-123.4392 666.8961,-127.902 667.5818,-120.9356"/>
</g>
<!-- Node33&#45;&gt;Node25 -->
<g id="edge59" class="edge">
<title>Node33&#45;&gt;Node25</title>
<path fill="none" stroke="#191970" d="M830.2781,-392.2455C815.4111,-383.5731 793.4534,-370.7645 776.4142,-360.825"/>
<polygon fill="#191970" stroke="#191970" points="777.9317,-357.6582 767.5303,-355.6427 774.4045,-363.7047 777.9317,-357.6582"/>
</g>
<!-- Node33&#45;&gt;Node27 -->
<g id="edge60" class="edge">
<title>Node33&#45;&gt;Node27</title>
<path fill="none" stroke="#191970" d="M857.3164,-392.4509C877.9442,-373.3574 924.4943,-330.2697 950.1672,-306.5063"/>
<polygon fill="#191970" stroke="#191970" points="952.7485,-308.8864 957.7097,-299.5249 947.9935,-303.7492 952.7485,-308.8864"/>
</g>
<!-- Node33&#45;&gt;Node30 -->
<g id="edge61" class="edge">
<title>Node33&#45;&gt;Node30</title>
<path fill="none" stroke="#191970" d="M910.2229,-392.4276C1037.1014,-371.789 1315.3968,-318.8417 1371,-244 1380.8118,-230.7934 1378.6866,-211.6662 1374.9208,-197.3991"/>
<polygon fill="#191970" stroke="#191970" points="1378.1926,-196.1325 1371.8918,-187.6149 1371.5057,-198.2027 1378.1926,-196.1325"/>
</g>
<!-- Node34&#45;&gt;Node1 -->
<g id="edge67" class="edge">
<title>Node34&#45;&gt;Node1</title>
<path fill="none" stroke="#191970" d="M514.4974,-448.2455C500.842,-439.6534 480.7343,-427.0014 465.0011,-417.1018"/>
<polygon fill="#191970" stroke="#191970" points="466.6529,-414.006 456.325,-411.6427 462.9249,-419.9307 466.6529,-414.006"/>
</g>
<!-- Node34&#45;&gt;Node3 -->
<g id="edge69" class="edge">
<title>Node34&#45;&gt;Node3</title>
<path fill="none" stroke="#191970" d="M529.3179,-448.4509C528.0131,-430.184 525.1397,-389.9553 523.407,-365.6976"/>
<polygon fill="#191970" stroke="#191970" points="526.884,-365.2501 522.6803,-355.5249 519.9018,-365.7489 526.884,-365.2501"/>
</g>
<!-- Node34&#45;&gt;Node4 -->
<g id="edge70" class="edge">
<title>Node34&#45;&gt;Node4</title>
<path fill="none" stroke="#191970" d="M533.8481,-448.3609C540.7484,-430.4993 554.9747,-390.8955 560,-356 561.267,-347.2019 561.7433,-344.7163 560,-336 556.6007,-319.0033 548.3993,-316.9967 545,-300 533.4945,-242.4726 514.3782,-218.0408 545,-168 557.5366,-147.5132 582.3957,-135.7836 602.8165,-129.3035"/>
<polygon fill="#191970" stroke="#191970" points="604.0673,-132.5855 612.7059,-126.4516 602.1276,-125.8595 604.0673,-132.5855"/>
</g>
<!-- Node34&#45;&gt;Node10 -->
<g id="edge68" class="edge">
<title>Node34&#45;&gt;Node10</title>
<path fill="none" stroke="#191970" d="M583.3019,-456.0616C760.5457,-448.9168 1319,-420.4941 1319,-346 1319,-346 1319,-346 1319,-290 1319,-259.4754 1322.7413,-244.3614 1300,-224 1286.6687,-212.0638 1195.1216,-198.1307 1122.6832,-188.753"/>
<polygon fill="#191970" stroke="#191970" points="1122.9626,-185.2603 1112.5988,-187.4607 1122.0727,-192.2035 1122.9626,-185.2603"/>
</g>
<!-- Node35&#45;&gt;Node1 -->
<g id="edge72" class="edge">
<title>Node35&#45;&gt;Node1</title>
<path fill="none" stroke="#191970" d="M562.675,-508.9144C532.1902,-503.4014 493.836,-491.9172 468,-468 454.8241,-455.8026 447.9115,-436.2426 444.3943,-421.577"/>
<polygon fill="#191970" stroke="#191970" points="447.7677,-420.6056 442.3191,-411.5192 440.9121,-422.0202 447.7677,-420.6056"/>
</g>
<!-- Node35&#45;&gt;Node3 -->
<g id="edge84" class="edge">
<title>Node35&#45;&gt;Node3</title>
<path fill="none" stroke="#191970" d="M609.2169,-504.2526C606.5775,-491.0572 600.9553,-466.979 592,-448 576.9786,-416.165 552.499,-383.2843 536.8292,-363.7458"/>
<polygon fill="#191970" stroke="#191970" points="539.3479,-361.2963 530.315,-355.7592 533.9234,-365.7207 539.3479,-361.2963"/>
</g>
<!-- Node35&#45;&gt;Node4 -->
<g id="edge85" class="edge">
<title>Node35&#45;&gt;Node4</title>
<path fill="none" stroke="#191970" d="M610.8901,-504.3258C610.5363,-463.4047 610.2504,-300.547 626,-168 627.0298,-159.3335 628.7764,-149.8548 630.4584,-141.7657"/>
<polygon fill="#191970" stroke="#191970" points="633.9198,-142.3201 632.6387,-131.803 627.0817,-140.8235 633.9198,-142.3201"/>
</g>
<!-- Node35&#45;&gt;Node5 -->
<g id="edge86" class="edge">
<title>Node35&#45;&gt;Node5</title>
<path fill="none" stroke="#191970" d="M563.1228,-504.4223C530.3517,-496.8898 486.4116,-484.8382 450,-468 409.2747,-449.167 400.0126,-441.2639 366,-412 348.6965,-397.1124 331.4268,-377.487 319.889,-363.5161"/>
<polygon fill="#191970" stroke="#191970" points="322.5163,-361.1992 313.4967,-355.6407 317.0813,-365.6107 322.5163,-361.1992"/>
</g>
<!-- Node35&#45;&gt;Node6 -->
<g id="edge87" class="edge">
<title>Node35&#45;&gt;Node6</title>
<path fill="none" stroke="#191970" d="M659.3064,-512.5275C761.3216,-508.9261 1006.0317,-497.6913 1209,-468 1325.101,-451.0161 1383.6274,-494.5646 1467,-412 1479.109,-400.0083 1482.3121,-380.4209 1482.8138,-365.6929"/>
<polygon fill="#191970" stroke="#191970" points="1486.3135,-365.5699 1482.7736,-355.5839 1479.3135,-365.5978 1486.3135,-365.5699"/>
</g>
<!-- Node35&#45;&gt;Node33 -->
<g id="edge74" class="edge">
<title>Node35&#45;&gt;Node33</title>
<path fill="none" stroke="#191970" d="M631.1212,-504.4509C672.9216,-484.6135 769.2973,-438.8758 817.8806,-415.8194"/>
<polygon fill="#191970" stroke="#191970" points="819.3961,-418.9744 826.9297,-411.5249 816.3948,-412.6504 819.3961,-418.9744"/>
</g>
<!-- Node35&#45;&gt;Node34 -->
<g id="edge73" class="edge">
<title>Node35&#45;&gt;Node34</title>
<path fill="none" stroke="#191970" d="M596.8909,-504.2455C584.5791,-495.7337 566.5042,-483.2375 552.2462,-473.3801"/>
<polygon fill="#191970" stroke="#191970" points="554.1634,-470.4506 543.9474,-467.6427 550.1826,-476.2085 554.1634,-470.4506"/>
</g>
<!-- Node36 -->
<g id="node37" class="node">
<title>Node36</title>
<g id="a_node37"><a xlink:href="SolidShapes_8h.html" target="_top" xlink:title="iDynTree/Model/SolidShapes.h">
<polygon fill="none" stroke="#000000" points="1036.5,-448.5 1036.5,-467.5 1199.5,-467.5 1199.5,-448.5 1036.5,-448.5"/>
<text text-anchor="middle" x="1118" y="-455.5" font-family="FreeSans.ttf" font-size="10.00" fill="#000000">iDynTree/Model/SolidShapes.h</text>
</a>
</g>
</g>
<!-- Node35&#45;&gt;Node36 -->
<g id="edge75" class="edge">
<title>Node35&#45;&gt;Node36</title>
<path fill="none" stroke="#191970" d="M659.1544,-508.6812C743.203,-499.3977 917.9928,-480.0915 1025.9265,-468.1698"/>
<polygon fill="#191970" stroke="#191970" points="1026.6025,-471.6166 1036.1577,-467.0398 1025.8339,-464.6589 1026.6025,-471.6166"/>
</g>
<!-- Node36&#45;&gt;Node4 -->
<g id="edge77" class="edge">
<title>Node36&#45;&gt;Node4</title>
<path fill="none" stroke="#191970" d="M1036.1146,-451.331C947.826,-443.4338 813.4221,-429.1624 765,-412 720.2393,-396.1353 702.6913,-393.842 674,-356 624.4335,-290.6251 628.3911,-185.3086 632.5874,-141.7922"/>
<polygon fill="#191970" stroke="#191970" points="636.0856,-141.9973 633.6801,-131.6792 629.1261,-141.2453 636.0856,-141.9973"/>
</g>
<!-- Node36&#45;&gt;Node6 -->
<g id="edge78" class="edge">
<title>Node36&#45;&gt;Node6</title>
<path fill="none" stroke="#191970" d="M1199.7644,-454.5704C1283.0462,-449.6703 1405.2848,-438.163 1444,-412 1460.1996,-401.0526 1470.3635,-380.7306 1476.0593,-365.517"/>
<polygon fill="#191970" stroke="#191970" points="1479.397,-366.5731 1479.308,-355.9786 1472.7708,-364.3162 1479.397,-366.5731"/>
</g>
<!-- Node36&#45;&gt;Node33 -->
<g id="edge79" class="edge">
<title>Node36&#45;&gt;Node33</title>
<path fill="none" stroke="#191970" d="M1071.7214,-448.4369C1025.0495,-438.7925 952.9551,-423.8948 903.0669,-413.5858"/>
<polygon fill="#191970" stroke="#191970" points="903.5892,-410.1198 893.0878,-411.5237 902.1726,-416.975 903.5892,-410.1198"/>
</g>
<!-- Node37 -->
<g id="node38" class="node">
<title>Node37</title>
<polygon fill="none" stroke="#bfbfbf" points="1385.5,-392.5 1385.5,-411.5 1434.5,-411.5 1434.5,-392.5 1385.5,-392.5"/>
<text text-anchor="middle" x="1410" y="-399.5" font-family="FreeSans.ttf" font-size="10.00" fill="#000000">cstdlib</text>
</g>
<!-- Node36&#45;&gt;Node37 -->
<g id="edge76" class="edge">
<title>Node36&#45;&gt;Node37</title>
<path fill="none" stroke="#191970" d="M1177.0259,-448.4903C1228.452,-439.914 1304.9282,-426.4581 1371,-412 1372.451,-411.6825 1373.9299,-411.3488 1375.4219,-411.0038"/>
<polygon fill="#191970" stroke="#191970" points="1376.4082,-414.3662 1385.3057,-408.6142 1374.7632,-407.5622 1376.4082,-414.3662"/>
</g>
<!-- Node38 -->
<g id="node39" class="node">
<title>Node38</title>
<g id="a_node39"><a xlink:href="Indices_8h.html" target="_top" xlink:title="iDynTree/Model/Indices.h">
<polygon fill="none" stroke="#000000" points="1131,-168.5 1131,-187.5 1269,-187.5 1269,-168.5 1131,-168.5"/>
<text text-anchor="middle" x="1200" y="-175.5" font-family="FreeSans.ttf" font-size="10.00" fill="#000000">iDynTree/Model/Indices.h</text>
</a>
</g>
</g>
<!-- Node36&#45;&gt;Node38 -->
<g id="edge80" class="edge">
<title>Node36&#45;&gt;Node38</title>
<path fill="none" stroke="#191970" d="M1176.4992,-448.4756C1236.0215,-438.3138 1321.179,-422.2927 1333,-412 1356.5397,-391.5035 1357,-377.2125 1357,-346 1357,-346 1357,-346 1357,-290 1357,-258.7875 1355.2441,-245.8957 1333,-224 1316.3915,-207.6516 1293.6954,-197.0999 1271.7539,-190.2947"/>
<polygon fill="#191970" stroke="#191970" points="1272.6626,-186.9143 1262.0847,-187.5131 1270.7273,-193.6414 1272.6626,-186.9143"/>
</g>
<!-- Node38&#45;&gt;Node4 -->
<g id="edge82" class="edge">
<title>Node38&#45;&gt;Node4</title>
<path fill="none" stroke="#191970" d="M1130.6919,-168.9926C1127.7562,-168.6495 1124.8494,-168.3171 1122,-168 951.1021,-148.9792 745.8906,-131.2706 667.5514,-124.6972"/>
<polygon fill="#191970" stroke="#191970" points="667.6131,-121.1902 657.3562,-123.8446 667.0297,-128.1659 667.6131,-121.1902"/>
</g>
<!-- Node38&#45;&gt;Node12 -->
<g id="edge81" class="edge">
<title>Node38&#45;&gt;Node12</title>
<path fill="none" stroke="#191970" d="M1144.9049,-168.4454C1113.3732,-161.4272 1073.8732,-149.9272 1042,-132 998.4053,-107.48 996.9246,-88.6107 959,-56 947.1314,-45.7944 933.498,-34.7679 922.5409,-26.0695"/>
<polygon fill="#191970" stroke="#191970" points="924.43,-23.1017 914.4122,-19.6529 920.0928,-28.5961 924.43,-23.1017"/>
</g>
<!-- Node39 -->
<g id="node40" class="node">
<title>Node39</title>
<polygon fill="none" stroke="#bfbfbf" points="1439,-112.5 1439,-131.5 1525,-131.5 1525,-112.5 1439,-112.5"/>
<text text-anchor="middle" x="1482" y="-119.5" font-family="FreeSans.ttf" font-size="10.00" fill="#000000">ModelExport.h</text>
</g>
<!-- Node38&#45;&gt;Node39 -->
<g id="edge83" class="edge">
<title>Node38&#45;&gt;Node39</title>
<path fill="none" stroke="#191970" d="M1248.1571,-168.4369C1298.2996,-158.4795 1376.6414,-142.9223 1428.637,-132.5969"/>
<polygon fill="#191970" stroke="#191970" points="1429.5419,-135.9856 1438.6686,-130.6048 1428.1784,-129.1197 1429.5419,-135.9856"/>
</g>
</g>
</svg>
