<?xml version="1.0" encoding="UTF-8" standalone="no"?>
<!DOCTYPE svg PUBLIC "-//W3C//DTD SVG 1.1//EN"
 "http://www.w3.org/Graphics/SVG/1.1/DTD/svg11.dtd">
<!-- Generated by graphviz version 2.40.1 (20161225.0304)
 -->
<!-- Title: RotationRaw.cpp Pages: 1 -->
<svg width="1171pt" height="554pt"
 viewBox="0.00 0.00 1170.50 554.00" xmlns="http://www.w3.org/2000/svg" xmlns:xlink="http://www.w3.org/1999/xlink">
<g id="graph0" class="graph" transform="scale(1 1) rotate(0) translate(4 550)">
<title>RotationRaw.cpp</title>
<!-- Node0 -->
<g id="node1" class="node">
<title>Node0</title>
<polygon fill="#bfbfbf" stroke="#000000" points="574,-526.5 574,-545.5 672,-545.5 672,-526.5 574,-526.5"/>
<text text-anchor="middle" x="623" y="-533.5" font-family="FreeSans.ttf" font-size="10.00" fill="#000000">RotationRaw.cpp</text>
</g>
<!-- Node1 -->
<g id="node2" class="node">
<title>Node1</title>
<g id="a_node2"><a xlink:href="ClassicalAcc_8h.html" target="_top" xlink:title="iDynTree/Core/ClassicalAcc.h">
<polygon fill="none" stroke="#000000" points="28,-403.5 28,-422.5 186,-422.5 186,-403.5 28,-403.5"/>
<text text-anchor="middle" x="107" y="-410.5" font-family="FreeSans.ttf" font-size="10.00" fill="#000000">iDynTree/Core/ClassicalAcc.h</text>
</a>
</g>
</g>
<!-- Node0&#45;&gt;Node1 -->
<g id="edge1" class="edge">
<title>Node0&#45;&gt;Node1</title>
<path fill="none" stroke="#191970" d="M573.6943,-534.186C477.0463,-530.0543 266.3399,-518.0433 200,-490 168.1879,-476.5523 138.8009,-448.5184 121.8952,-430.2446"/>
<polygon fill="#191970" stroke="#191970" points="124.331,-427.7188 115.0422,-422.6228 119.1257,-432.3991 124.331,-427.7188"/>
</g>
<!-- Node3 -->
<g id="node4" class="node">
<title>Node3</title>
<g id="a_node4"><a xlink:href="Utils_8h.html" target="_top" xlink:title="iDynTree/Core/Utils.h">
<polygon fill="none" stroke="#000000" points="105.5,-56.5 105.5,-75.5 224.5,-75.5 224.5,-56.5 105.5,-56.5"/>
<text text-anchor="middle" x="165" y="-63.5" font-family="FreeSans.ttf" font-size="10.00" fill="#000000">iDynTree/Core/Utils.h</text>
</a>
</g>
</g>
<!-- Node0&#45;&gt;Node3 -->
<g id="edge62" class="edge">
<title>Node0&#45;&gt;Node3</title>
<path fill="none" stroke="#191970" d="M573.9169,-533.5879C469.3448,-528.067 227.7178,-513.1745 149,-490 77.4922,-468.9481 0,-487.5422 0,-413 0,-413 0,-413 0,-178 0,-123.0984 63.3103,-93.2384 111.4978,-78.4624"/>
<polygon fill="#191970" stroke="#191970" points="112.6008,-81.7865 121.2162,-75.62 110.6358,-75.068 112.6008,-81.7865"/>
</g>
<!-- Node16 -->
<g id="node17" class="node">
<title>Node16</title>
<polygon fill="none" stroke="#bfbfbf" points="878,-112.5 878,-131.5 934,-131.5 934,-112.5 878,-112.5"/>
<text text-anchor="middle" x="906" y="-119.5" font-family="FreeSans.ttf" font-size="10.00" fill="#000000">sstream</text>
</g>
<!-- Node0&#45;&gt;Node16 -->
<g id="edge65" class="edge">
<title>Node0&#45;&gt;Node16</title>
<path fill="none" stroke="#191970" d="M672.1024,-527.7182C762.0241,-511.1505 944,-470.5169 944,-413 944,-413 944,-413 944,-234 944,-199.6118 927.7366,-162.2832 916.489,-140.5791"/>
<polygon fill="#191970" stroke="#191970" points="919.431,-138.6605 911.607,-131.5166 913.2683,-141.9804 919.431,-138.6605"/>
</g>
<!-- Node18 -->
<g id="node19" class="node">
<title>Node18</title>
<g id="a_node19"><a xlink:href="RotationRaw_8h.html" target="_top" xlink:title="iDynTree/Core/RotationRaw.h">
<polygon fill="none" stroke="#000000" points="576,-224.5 576,-243.5 734,-243.5 734,-224.5 576,-224.5"/>
<text text-anchor="middle" x="655" y="-231.5" font-family="FreeSans.ttf" font-size="10.00" fill="#000000">iDynTree/Core/RotationRaw.h</text>
</a>
</g>
</g>
<!-- Node0&#45;&gt;Node18 -->
<g id="edge21" class="edge">
<title>Node0&#45;&gt;Node18</title>
<path fill="none" stroke="#191970" d="M630.0913,-526.3641C644.1047,-506.3391 674,-458.3094 674,-413 674,-413 674,-413 674,-351.5 674,-316.6936 665.7747,-276.8226 660.1479,-253.6197"/>
<polygon fill="#191970" stroke="#191970" points="663.477,-252.5065 657.6419,-243.6633 656.6887,-254.2152 663.477,-252.5065"/>
</g>
<!-- Node22 -->
<g id="node23" class="node">
<title>Node22</title>
<g id="a_node23"><a xlink:href="PositionRaw_8h.html" target="_top" xlink:title="iDynTree/Core/PositionRaw.h">
<polygon fill="none" stroke="#000000" points="144,-280.5 144,-299.5 300,-299.5 300,-280.5 144,-280.5"/>
<text text-anchor="middle" x="222" y="-287.5" font-family="FreeSans.ttf" font-size="10.00" fill="#000000">iDynTree/Core/PositionRaw.h</text>
</a>
</g>
</g>
<!-- Node0&#45;&gt;Node22 -->
<g id="edge35" class="edge">
<title>Node0&#45;&gt;Node22</title>
<path fill="none" stroke="#191970" d="M573.9269,-533.4283C476.4562,-527.8426 265.8419,-513.2068 243,-490 194.8697,-441.1007 208.2601,-349.4151 217.08,-309.4518"/>
<polygon fill="#191970" stroke="#191970" points="220.5075,-310.1661 219.3916,-299.6302 213.6936,-308.5624 220.5075,-310.1661"/>
</g>
<!-- Node23 -->
<g id="node24" class="node">
<title>Node23</title>
<g id="a_node24"><a xlink:href="RotationalInertiaRaw_8h.html" target="_top" xlink:title="iDynTree/Core/Rotational\lInertiaRaw.h">
<polygon fill="none" stroke="#000000" points="740.5,-336.5 740.5,-366.5 877.5,-366.5 877.5,-336.5 740.5,-336.5"/>
<text text-anchor="start" x="748.5" y="-354.5" font-family="FreeSans.ttf" font-size="10.00" fill="#000000">iDynTree/Core/Rotational</text>
<text text-anchor="middle" x="809" y="-343.5" font-family="FreeSans.ttf" font-size="10.00" fill="#000000">InertiaRaw.h</text>
</a>
</g>
</g>
<!-- Node0&#45;&gt;Node23 -->
<g id="edge38" class="edge">
<title>Node0&#45;&gt;Node23</title>
<path fill="none" stroke="#191970" d="M638.7435,-526.3645C652.4113,-517.6572 672.4016,-504.0805 688,-490 728.5951,-453.355 769.0343,-403.7463 791.3537,-374.9252"/>
<polygon fill="#191970" stroke="#191970" points="794.366,-376.7491 797.6788,-366.6855 788.8133,-372.4866 794.366,-376.7491"/>
</g>
<!-- Node24 -->
<g id="node25" class="node">
<title>Node24</title>
<g id="a_node25"><a xlink:href="SpatialMotionVector_8h.html" target="_top" xlink:title="iDynTree/Core/SpatialMotion\lVector.h">
<polygon fill="none" stroke="#000000" points="251.5,-459.5 251.5,-489.5 406.5,-489.5 406.5,-459.5 251.5,-459.5"/>
<text text-anchor="start" x="259.5" y="-477.5" font-family="FreeSans.ttf" font-size="10.00" fill="#000000">iDynTree/Core/SpatialMotion</text>
<text text-anchor="middle" x="329" y="-466.5" font-family="FreeSans.ttf" font-size="10.00" fill="#000000">Vector.h</text>
</a>
</g>
</g>
<!-- Node0&#45;&gt;Node24 -->
<g id="edge40" class="edge">
<title>Node0&#45;&gt;Node24</title>
<path fill="none" stroke="#191970" d="M577.3851,-526.4581C532.9728,-517.1678 464.4875,-502.8418 410.669,-491.5838"/>
<polygon fill="#191970" stroke="#191970" points="411.3044,-488.1411 400.7996,-489.5193 409.8711,-494.9928 411.3044,-488.1411"/>
</g>
<!-- Node29 -->
<g id="node30" class="node">
<title>Node29</title>
<g id="a_node30"><a xlink:href="SpatialForceVector_8h.html" target="_top" xlink:title="iDynTree/Core/SpatialForce\lVector.h">
<polygon fill="none" stroke="#000000" points="466,-459.5 466,-489.5 614,-489.5 614,-459.5 466,-459.5"/>
<text text-anchor="start" x="474" y="-477.5" font-family="FreeSans.ttf" font-size="10.00" fill="#000000">iDynTree/Core/SpatialForce</text>
<text text-anchor="middle" x="540" y="-466.5" font-family="FreeSans.ttf" font-size="10.00" fill="#000000">Vector.h</text>
</a>
</g>
</g>
<!-- Node0&#45;&gt;Node29 -->
<g id="edge58" class="edge">
<title>Node0&#45;&gt;Node29</title>
<path fill="none" stroke="#191970" d="M610.0313,-526.3906C599.0062,-518.2215 582.7742,-506.1941 568.7128,-495.7752"/>
<polygon fill="#191970" stroke="#191970" points="570.4225,-492.6859 560.3041,-489.5446 566.2551,-498.3102 570.4225,-492.6859"/>
</g>
<!-- Node30 -->
<g id="node31" class="node">
<title>Node30</title>
<polygon fill="none" stroke="#bfbfbf" points="972.5,-465 972.5,-484 1049.5,-484 1049.5,-465 972.5,-465"/>
<text text-anchor="middle" x="1011" y="-472" font-family="FreeSans.ttf" font-size="10.00" fill="#000000">Eigen/Dense</text>
</g>
<!-- Node0&#45;&gt;Node30 -->
<g id="edge63" class="edge">
<title>Node0&#45;&gt;Node30</title>
<path fill="none" stroke="#191970" d="M672.2162,-531.5455C737.8775,-525.0793 857.5329,-511.4652 958,-490 962.3902,-489.062 966.9477,-487.9485 971.4644,-486.7552"/>
<polygon fill="#191970" stroke="#191970" points="972.506,-490.0985 981.2062,-484.0522 970.6344,-483.3533 972.506,-490.0985"/>
</g>
<!-- Node31 -->
<g id="node32" class="node">
<title>Node31</title>
<polygon fill="none" stroke="#bfbfbf" points="1067.5,-465 1067.5,-484 1162.5,-484 1162.5,-465 1067.5,-465"/>
<text text-anchor="middle" x="1115" y="-472" font-family="FreeSans.ttf" font-size="10.00" fill="#000000">Eigen/Geometry</text>
</g>
<!-- Node0&#45;&gt;Node31 -->
<g id="edge64" class="edge">
<title>Node0&#45;&gt;Node31</title>
<path fill="none" stroke="#191970" d="M672.0978,-533.4652C753.2231,-528.6872 920.097,-516.364 1059,-490 1064.0127,-489.0486 1069.2306,-487.8681 1074.3769,-486.5861"/>
<polygon fill="#191970" stroke="#191970" points="1075.3296,-489.9547 1084.1126,-484.0295 1073.5516,-483.1843 1075.3296,-489.9547"/>
</g>
<!-- Node2 -->
<g id="node3" class="node">
<title>Node2</title>
<g id="a_node3"><a xlink:href="VectorFixSize_8h.html" target="_top" xlink:title="iDynTree/Core/VectorFixSize.h">
<polygon fill="none" stroke="#000000" points="213.5,-168.5 213.5,-187.5 374.5,-187.5 374.5,-168.5 213.5,-168.5"/>
<text text-anchor="middle" x="294" y="-175.5" font-family="FreeSans.ttf" font-size="10.00" fill="#000000">iDynTree/Core/VectorFixSize.h</text>
</a>
</g>
</g>
<!-- Node1&#45;&gt;Node2 -->
<g id="edge2" class="edge">
<title>Node1&#45;&gt;Node2</title>
<path fill="none" stroke="#191970" d="M99.9218,-403.486C78.5021,-373.4614 18.5578,-279.4306 64,-224 81.7484,-202.3504 146.7786,-190.687 203.1818,-184.5279"/>
<polygon fill="#191970" stroke="#191970" points="203.654,-187.9977 213.236,-183.4771 202.9263,-181.0356 203.654,-187.9977"/>
</g>
<!-- Node2&#45;&gt;Node3 -->
<g id="edge3" class="edge">
<title>Node2&#45;&gt;Node3</title>
<path fill="none" stroke="#191970" d="M283.0015,-168.4509C260.9147,-149.2747 210.9519,-105.8962 183.6576,-82.1988"/>
<polygon fill="#191970" stroke="#191970" points="185.8164,-79.438 175.9706,-75.5249 181.2271,-84.7238 185.8164,-79.438"/>
</g>
<!-- Node4 -->
<g id="node5" class="node">
<title>Node4</title>
<polygon fill="none" stroke="#bfbfbf" points="138.5,-.5 138.5,-19.5 191.5,-19.5 191.5,-.5 138.5,-.5"/>
<text text-anchor="middle" x="165" y="-7.5" font-family="FreeSans.ttf" font-size="10.00" fill="#000000">cstddef</text>
</g>
<!-- Node2&#45;&gt;Node4 -->
<g id="edge19" class="edge">
<title>Node2&#45;&gt;Node4</title>
<path fill="none" stroke="#191970" d="M291.2131,-168.4653C284.4291,-146.5363 265.2807,-91.67 234,-56 222.8166,-43.2474 207.3131,-32.4901 193.8343,-24.5925"/>
<polygon fill="#191970" stroke="#191970" points="195.3396,-21.4241 184.9042,-19.5924 191.9197,-27.5318 195.3396,-21.4241"/>
</g>
<!-- Node6 -->
<g id="node7" class="node">
<title>Node6</title>
<g id="a_node7"><a xlink:href="Span_8h.html" target="_top" xlink:title="iDynTree/Core/Span.h">
<polygon fill="none" stroke="#000000" points="316.5,-56.5 316.5,-75.5 437.5,-75.5 437.5,-56.5 316.5,-56.5"/>
<text text-anchor="middle" x="377" y="-63.5" font-family="FreeSans.ttf" font-size="10.00" fill="#000000">iDynTree/Core/Span.h</text>
</a>
</g>
</g>
<!-- Node2&#45;&gt;Node6 -->
<g id="edge6" class="edge">
<title>Node2&#45;&gt;Node6</title>
<path fill="none" stroke="#191970" d="M301.0765,-168.4509C314.9812,-149.688 346.0567,-107.7548 363.8401,-83.758"/>
<polygon fill="#191970" stroke="#191970" points="366.7994,-85.6431 369.9414,-75.5249 361.1753,-81.4753 366.7994,-85.6431"/>
</g>
<!-- Node7 -->
<g id="node8" class="node">
<title>Node7</title>
<polygon fill="none" stroke="#bfbfbf" points="720,-.5 720,-19.5 772,-19.5 772,-.5 720,-.5"/>
<text text-anchor="middle" x="746" y="-7.5" font-family="FreeSans.ttf" font-size="10.00" fill="#000000">cassert</text>
</g>
<!-- Node2&#45;&gt;Node7 -->
<g id="edge18" class="edge">
<title>Node2&#45;&gt;Node7</title>
<path fill="none" stroke="#191970" d="M309.1678,-168.4289C331.6158,-154.5679 375.3138,-128.7386 415,-112 442.7951,-100.2767 630.3925,-44.2601 710.1896,-20.5926"/>
<polygon fill="#191970" stroke="#191970" points="711.2228,-23.937 719.8158,-17.7394 709.2334,-17.2256 711.2228,-23.937"/>
</g>
<!-- Node15 -->
<g id="node16" class="node">
<title>Node15</title>
<polygon fill="none" stroke="#bfbfbf" points="492,-112.5 492,-131.5 536,-131.5 536,-112.5 492,-112.5"/>
<text text-anchor="middle" x="514" y="-119.5" font-family="FreeSans.ttf" font-size="10.00" fill="#000000">string</text>
</g>
<!-- Node2&#45;&gt;Node15 -->
<g id="edge16" class="edge">
<title>Node2&#45;&gt;Node15</title>
<path fill="none" stroke="#191970" d="M337.0196,-168.4759C373.3017,-160.2317 426.7929,-147.5846 481.7893,-132.2058"/>
<polygon fill="#191970" stroke="#191970" points="483.035,-135.491 491.7084,-129.4065 481.1337,-128.7542 483.035,-135.491"/>
</g>
<!-- Node2&#45;&gt;Node16 -->
<g id="edge17" class="edge">
<title>Node2&#45;&gt;Node16</title>
<path fill="none" stroke="#191970" d="M374.6297,-172.2831C479.7821,-164.5547 669.386,-149.6864 831,-132 843.0186,-130.6847 856.0896,-129.0226 867.9028,-127.4331"/>
<polygon fill="#191970" stroke="#191970" points="868.4689,-130.8883 877.9023,-126.0654 867.5202,-123.9529 868.4689,-130.8883"/>
</g>
<!-- Node17 -->
<g id="node18" class="node">
<title>Node17</title>
<polygon fill="none" stroke="#bfbfbf" points="424,-112.5 424,-131.5 474,-131.5 474,-112.5 424,-112.5"/>
<text text-anchor="middle" x="449" y="-119.5" font-family="FreeSans.ttf" font-size="10.00" fill="#000000">cstring</text>
</g>
<!-- Node2&#45;&gt;Node17 -->
<g id="edge20" class="edge">
<title>Node2&#45;&gt;Node17</title>
<path fill="none" stroke="#191970" d="M320.6454,-168.3733C346.5836,-159.0021 386.1287,-144.7148 414.4672,-134.4764"/>
<polygon fill="#191970" stroke="#191970" points="415.7672,-137.7282 423.9829,-131.0384 413.3886,-131.1447 415.7672,-137.7282"/>
</g>
<!-- Node3&#45;&gt;Node4 -->
<g id="edge4" class="edge">
<title>Node3&#45;&gt;Node4</title>
<path fill="none" stroke="#191970" d="M165,-56.2455C165,-48.9382 165,-38.6944 165,-29.7046"/>
<polygon fill="#191970" stroke="#191970" points="168.5001,-29.6426 165,-19.6427 161.5001,-29.6427 168.5001,-29.6426"/>
</g>
<!-- Node5 -->
<g id="node6" class="node">
<title>Node5</title>
<polygon fill="none" stroke="#bfbfbf" points="40,-.5 40,-19.5 120,-19.5 120,-.5 40,-.5"/>
<text text-anchor="middle" x="80" y="-7.5" font-family="FreeSans.ttf" font-size="10.00" fill="#000000">CoreExport.h</text>
</g>
<!-- Node3&#45;&gt;Node5 -->
<g id="edge5" class="edge">
<title>Node3&#45;&gt;Node5</title>
<path fill="none" stroke="#191970" d="M150.1941,-56.2455C137.2744,-47.7337 118.3069,-35.2375 103.3448,-25.3801"/>
<polygon fill="#191970" stroke="#191970" points="104.9124,-22.2216 94.6362,-19.6427 101.0613,-28.067 104.9124,-22.2216"/>
</g>
<!-- Node6&#45;&gt;Node4 -->
<g id="edge10" class="edge">
<title>Node6&#45;&gt;Node4</title>
<path fill="none" stroke="#191970" d="M339.8738,-56.4725C306.2435,-47.8029 255.0817,-34.5169 201.4145,-20.0837"/>
<polygon fill="#191970" stroke="#191970" points="202.2902,-16.6949 191.7239,-17.4723 200.4687,-23.4538 202.2902,-16.6949"/>
</g>
<!-- Node6&#45;&gt;Node7 -->
<g id="edge7" class="edge">
<title>Node6&#45;&gt;Node7</title>
<path fill="none" stroke="#191970" d="M437.5177,-57.8905C521.2733,-46.638 666.3879,-27.0267 709.6181,-19.7938"/>
<polygon fill="#191970" stroke="#191970" points="710.523,-23.1863 719.7265,-17.938 709.2589,-16.3014 710.523,-23.1863"/>
</g>
<!-- Node8 -->
<g id="node9" class="node">
<title>Node8</title>
<polygon fill="none" stroke="#bfbfbf" points="356,-.5 356,-19.5 420,-19.5 420,-.5 356,-.5"/>
<text text-anchor="middle" x="388" y="-7.5" font-family="FreeSans.ttf" font-size="10.00" fill="#000000">algorithm</text>
</g>
<!-- Node6&#45;&gt;Node8 -->
<g id="edge8" class="edge">
<title>Node6&#45;&gt;Node8</title>
<path fill="none" stroke="#191970" d="M378.9161,-56.2455C380.3514,-48.9382 382.3636,-38.6944 384.1295,-29.7046"/>
<polygon fill="#191970" stroke="#191970" points="387.6127,-30.1298 386.1059,-19.6427 380.744,-28.7805 387.6127,-30.1298"/>
</g>
<!-- Node9 -->
<g id="node10" class="node">
<title>Node9</title>
<polygon fill="none" stroke="#bfbfbf" points="438,-.5 438,-19.5 480,-19.5 480,-.5 438,-.5"/>
<text text-anchor="middle" x="459" y="-7.5" font-family="FreeSans.ttf" font-size="10.00" fill="#000000">array</text>
</g>
<!-- Node6&#45;&gt;Node9 -->
<g id="edge9" class="edge">
<title>Node6&#45;&gt;Node9</title>
<path fill="none" stroke="#191970" d="M391.2833,-56.2455C403.747,-47.7337 422.0451,-35.2375 436.4792,-25.3801"/>
<polygon fill="#191970" stroke="#191970" points="438.5962,-28.1726 444.8804,-19.6427 434.6485,-22.392 438.5962,-28.1726"/>
</g>
<!-- Node10 -->
<g id="node11" class="node">
<title>Node10</title>
<polygon fill="none" stroke="#bfbfbf" points="498.5,-.5 498.5,-19.5 551.5,-19.5 551.5,-.5 498.5,-.5"/>
<text text-anchor="middle" x="525" y="-7.5" font-family="FreeSans.ttf" font-size="10.00" fill="#000000">iterator</text>
</g>
<!-- Node6&#45;&gt;Node10 -->
<g id="edge11" class="edge">
<title>Node6&#45;&gt;Node10</title>
<path fill="none" stroke="#191970" d="M402.4421,-56.3733C426.7326,-47.1822 463.5208,-33.2624 490.4543,-23.0713"/>
<polygon fill="#191970" stroke="#191970" points="491.7757,-26.3136 499.8899,-19.5011 489.2984,-19.7666 491.7757,-26.3136"/>
</g>
<!-- Node11 -->
<g id="node12" class="node">
<title>Node11</title>
<polygon fill="none" stroke="#bfbfbf" points="570,-.5 570,-19.5 614,-19.5 614,-.5 570,-.5"/>
<text text-anchor="middle" x="592" y="-7.5" font-family="FreeSans.ttf" font-size="10.00" fill="#000000">limits</text>
</g>
<!-- Node6&#45;&gt;Node11 -->
<g id="edge12" class="edge">
<title>Node6&#45;&gt;Node11</title>
<path fill="none" stroke="#191970" d="M418.4998,-56.4651C453.8112,-48.1643 506.0676,-35.4397 559.9784,-20.1677"/>
<polygon fill="#191970" stroke="#191970" points="561.0496,-23.5018 569.7036,-17.3897 559.1269,-16.771 561.0496,-23.5018"/>
</g>
<!-- Node12 -->
<g id="node13" class="node">
<title>Node12</title>
<polygon fill="none" stroke="#bfbfbf" points="209.5,-.5 209.5,-19.5 274.5,-19.5 274.5,-.5 209.5,-.5"/>
<text text-anchor="middle" x="242" y="-7.5" font-family="FreeSans.ttf" font-size="10.00" fill="#000000">stdexcept</text>
</g>
<!-- Node6&#45;&gt;Node12 -->
<g id="edge13" class="edge">
<title>Node6&#45;&gt;Node12</title>
<path fill="none" stroke="#191970" d="M353.7927,-56.3733C331.8301,-47.2629 298.6668,-33.5062 274.1599,-23.3404"/>
<polygon fill="#191970" stroke="#191970" points="275.4824,-20.0999 264.9045,-19.5011 272.8003,-26.5657 275.4824,-20.0999"/>
</g>
<!-- Node13 -->
<g id="node14" class="node">
<title>Node13</title>
<polygon fill="none" stroke="#bfbfbf" points="632.5,-.5 632.5,-19.5 701.5,-19.5 701.5,-.5 632.5,-.5"/>
<text text-anchor="middle" x="667" y="-7.5" font-family="FreeSans.ttf" font-size="10.00" fill="#000000">type_traits</text>
</g>
<!-- Node6&#45;&gt;Node13 -->
<g id="edge14" class="edge">
<title>Node6&#45;&gt;Node13</title>
<path fill="none" stroke="#191970" d="M431.3484,-56.4591C479.0315,-47.9475 550.4914,-34.8523 622.3069,-20.082"/>
<polygon fill="#191970" stroke="#191970" points="623.356,-23.4392 632.4403,-17.987 621.9387,-16.5841 623.356,-23.4392"/>
</g>
<!-- Node14 -->
<g id="node15" class="node">
<title>Node14</title>
<polygon fill="none" stroke="#bfbfbf" points="292.5,-.5 292.5,-19.5 337.5,-19.5 337.5,-.5 292.5,-.5"/>
<text text-anchor="middle" x="315" y="-7.5" font-family="FreeSans.ttf" font-size="10.00" fill="#000000">utility</text>
</g>
<!-- Node6&#45;&gt;Node14 -->
<g id="edge15" class="edge">
<title>Node6&#45;&gt;Node14</title>
<path fill="none" stroke="#191970" d="M366.2004,-56.2455C357.1322,-48.0549 343.9794,-36.1749 333.2755,-26.5069"/>
<polygon fill="#191970" stroke="#191970" points="335.4429,-23.7482 325.6758,-19.6427 330.7509,-28.9429 335.4429,-23.7482"/>
</g>
<!-- Node18&#45;&gt;Node15 -->
<g id="edge34" class="edge">
<title>Node18&#45;&gt;Node15</title>
<path fill="none" stroke="#191970" d="M642.9784,-224.4509C618.7329,-205.1921 563.7552,-161.5218 534.0088,-137.8935"/>
<polygon fill="#191970" stroke="#191970" points="535.9984,-135.0041 525.9912,-131.5249 531.6445,-140.4854 535.9984,-135.0041"/>
</g>
<!-- Node19 -->
<g id="node20" class="node">
<title>Node19</title>
<g id="a_node20"><a xlink:href="MatrixFixSize_8h.html" target="_top" xlink:title="iDynTree/Core/MatrixFixSize.h">
<polygon fill="none" stroke="#000000" points="700.5,-168.5 700.5,-187.5 861.5,-187.5 861.5,-168.5 700.5,-168.5"/>
<text text-anchor="middle" x="781" y="-175.5" font-family="FreeSans.ttf" font-size="10.00" fill="#000000">iDynTree/Core/MatrixFixSize.h</text>
</a>
</g>
</g>
<!-- Node18&#45;&gt;Node19 -->
<g id="edge22" class="edge">
<title>Node18&#45;&gt;Node19</title>
<path fill="none" stroke="#191970" d="M676.6602,-224.3733C696.9772,-215.3435 727.564,-201.7494 750.375,-191.6111"/>
<polygon fill="#191970" stroke="#191970" points="751.9059,-194.7609 759.6225,-187.5011 749.0628,-188.3642 751.9059,-194.7609"/>
</g>
<!-- Node19&#45;&gt;Node3 -->
<g id="edge23" class="edge">
<title>Node19&#45;&gt;Node3</title>
<path fill="none" stroke="#191970" d="M753.7283,-168.3838C729.3907,-159.5842 692.9247,-145.8605 662,-132 644.2241,-124.0328 641.683,-117.5138 623,-112 586.7399,-101.2988 353.8293,-81.2832 234.8084,-71.5708"/>
<polygon fill="#191970" stroke="#191970" points="234.9504,-68.0709 224.6995,-70.7484 234.3827,-75.0479 234.9504,-68.0709"/>
</g>
<!-- Node19&#45;&gt;Node7 -->
<g id="edge29" class="edge">
<title>Node19&#45;&gt;Node7</title>
<path fill="none" stroke="#191970" d="M797.4177,-168.2212C809.2076,-160.1641 824.1747,-147.5536 831,-132 834.5719,-123.8603 834.026,-120.358 831,-112 818.1147,-76.4102 786.7886,-44.5117 765.9795,-26.2114"/>
<polygon fill="#191970" stroke="#191970" points="768.1934,-23.4994 758.3164,-19.6657 763.6469,-28.822 768.1934,-23.4994"/>
</g>
<!-- Node19&#45;&gt;Node15 -->
<g id="edge31" class="edge">
<title>Node19&#45;&gt;Node15</title>
<path fill="none" stroke="#191970" d="M721.8862,-168.4971C676.229,-160.6983 611.3357,-148.6199 546.276,-132.1093"/>
<polygon fill="#191970" stroke="#191970" points="546.8145,-128.6339 536.2578,-129.5315 545.0702,-135.4131 546.8145,-128.6339"/>
</g>
<!-- Node19&#45;&gt;Node16 -->
<g id="edge33" class="edge">
<title>Node19&#45;&gt;Node16</title>
<path fill="none" stroke="#191970" d="M802.4883,-168.3733C822.644,-159.3435 852.988,-145.7494 875.618,-135.6111"/>
<polygon fill="#191970" stroke="#191970" points="877.0971,-138.7838 884.7921,-131.5011 874.2351,-132.3955 877.0971,-138.7838"/>
</g>
<!-- Node19&#45;&gt;Node17 -->
<g id="edge30" class="edge">
<title>Node19&#45;&gt;Node17</title>
<path fill="none" stroke="#191970" d="M700.4606,-168.5154C642.6602,-161.0264 562.8045,-149.2905 484.2272,-132.046"/>
<polygon fill="#191970" stroke="#191970" points="484.6755,-128.5601 474.1538,-129.803 483.154,-135.3928 484.6755,-128.5601"/>
</g>
<!-- Node20 -->
<g id="node21" class="node">
<title>Node20</title>
<g id="a_node21"><a xlink:href="MatrixView_8h.html" target="_top" xlink:title="iDynTree/Core/MatrixView.h">
<polygon fill="none" stroke="#000000" points="670.5,-112.5 670.5,-131.5 821.5,-131.5 821.5,-112.5 670.5,-112.5"/>
<text text-anchor="middle" x="746" y="-119.5" font-family="FreeSans.ttf" font-size="10.00" fill="#000000">iDynTree/Core/MatrixView.h</text>
</a>
</g>
</g>
<!-- Node19&#45;&gt;Node20 -->
<g id="edge24" class="edge">
<title>Node19&#45;&gt;Node20</title>
<path fill="none" stroke="#191970" d="M774.9035,-168.2455C770.0855,-160.5367 763.2249,-149.5598 757.3968,-140.2348"/>
<polygon fill="#191970" stroke="#191970" points="760.2947,-138.2677 752.0267,-131.6427 754.3587,-141.9777 760.2947,-138.2677"/>
</g>
<!-- Node21 -->
<g id="node22" class="node">
<title>Node21</title>
<polygon fill="none" stroke="#bfbfbf" points="554,-112.5 554,-131.5 614,-131.5 614,-112.5 554,-112.5"/>
<text text-anchor="middle" x="584" y="-119.5" font-family="FreeSans.ttf" font-size="10.00" fill="#000000">iostream</text>
</g>
<!-- Node19&#45;&gt;Node21 -->
<g id="edge32" class="edge">
<title>Node19&#45;&gt;Node21</title>
<path fill="none" stroke="#191970" d="M747.1345,-168.3733C712.9454,-158.6545 660.1558,-143.6484 623.9433,-133.3544"/>
<polygon fill="#191970" stroke="#191970" points="624.7742,-129.952 614.1983,-130.5843 622.8602,-136.6853 624.7742,-129.952"/>
</g>
<!-- Node20&#45;&gt;Node3 -->
<g id="edge28" class="edge">
<title>Node20&#45;&gt;Node3</title>
<path fill="none" stroke="#191970" d="M670.388,-113.503C665.5199,-112.9855 660.6918,-112.4804 656,-112 506.0275,-96.6442 330.0698,-80.6497 234.8267,-72.1602"/>
<polygon fill="#191970" stroke="#191970" points="235.0132,-68.663 224.7422,-71.2624 234.3924,-75.6354 235.0132,-68.663"/>
</g>
<!-- Node20&#45;&gt;Node6 -->
<g id="edge27" class="edge">
<title>Node20&#45;&gt;Node6</title>
<path fill="none" stroke="#191970" d="M682.9859,-112.4369C617.6898,-102.5274 515.8487,-87.0719 447.8109,-76.7464"/>
<polygon fill="#191970" stroke="#191970" points="448.0215,-73.2383 437.6095,-75.1982 446.9712,-80.1591 448.0215,-73.2383"/>
</g>
<!-- Node20&#45;&gt;Node7 -->
<g id="edge25" class="edge">
<title>Node20&#45;&gt;Node7</title>
<path fill="none" stroke="#191970" d="M746,-112.4509C746,-94.184 746,-53.9553 746,-29.6976"/>
<polygon fill="#191970" stroke="#191970" points="749.5001,-29.5249 746,-19.5249 742.5001,-29.5249 749.5001,-29.5249"/>
</g>
<!-- Node20&#45;&gt;Node13 -->
<g id="edge26" class="edge">
<title>Node20&#45;&gt;Node13</title>
<path fill="none" stroke="#191970" d="M739.2645,-112.4509C726.0299,-93.688 696.452,-51.7548 679.5257,-27.758"/>
<polygon fill="#191970" stroke="#191970" points="682.3426,-25.6792 673.7184,-19.5249 676.6224,-29.714 682.3426,-25.6792"/>
</g>
<!-- Node22&#45;&gt;Node2 -->
<g id="edge36" class="edge">
<title>Node22&#45;&gt;Node2</title>
<path fill="none" stroke="#191970" d="M213.9479,-280.4323C203.7009,-267.0232 188.6192,-242.2398 200,-224 209.5675,-208.6664 225.893,-198.3037 242.2798,-191.3641"/>
<polygon fill="#191970" stroke="#191970" points="243.8125,-194.5243 251.8846,-187.6619 241.2949,-187.9927 243.8125,-194.5243"/>
</g>
<!-- Node22&#45;&gt;Node15 -->
<g id="edge37" class="edge">
<title>Node22&#45;&gt;Node15</title>
<path fill="none" stroke="#191970" d="M220.7362,-280.03C219.5146,-265.6723 219.5953,-239.2301 234,-224 281.1105,-174.1899 319.6597,-211.6805 384,-188 422.2918,-173.9067 463.9067,-151.3921 489.4761,-136.6502"/>
<polygon fill="#191970" stroke="#191970" points="491.2595,-139.6619 498.1346,-131.6007 487.733,-133.6151 491.2595,-139.6619"/>
</g>
<!-- Node23&#45;&gt;Node19 -->
<g id="edge39" class="edge">
<title>Node23&#45;&gt;Node19</title>
<path fill="none" stroke="#191970" d="M806.5642,-336.4065C801.4977,-305.0126 789.827,-232.6961 784.178,-197.6925"/>
<polygon fill="#191970" stroke="#191970" points="787.6201,-197.0526 782.5716,-187.738 780.7096,-198.1679 787.6201,-197.0526"/>
</g>
<!-- Node24&#45;&gt;Node2 -->
<g id="edge41" class="edge">
<title>Node24&#45;&gt;Node2</title>
<path fill="none" stroke="#191970" d="M300.3805,-459.3431C255.2316,-433.5923 169.1067,-376.5526 135,-300 117.9248,-261.6747 156.4357,-247.7845 191,-224 210.9652,-210.2614 235.6966,-199.0563 255.9208,-191.1456"/>
<polygon fill="#191970" stroke="#191970" points="257.3391,-194.3509 265.4464,-187.5301 254.8551,-187.8065 257.3391,-194.3509"/>
</g>
<!-- Node25 -->
<g id="node26" class="node">
<title>Node25</title>
<g id="a_node26"><a xlink:href="GeomVector3_8h.html" target="_top" xlink:title="iDynTree/Core/GeomVector3.h">
<polygon fill="none" stroke="#000000" points="242.5,-224.5 242.5,-243.5 405.5,-243.5 405.5,-224.5 242.5,-224.5"/>
<text text-anchor="middle" x="324" y="-231.5" font-family="FreeSans.ttf" font-size="10.00" fill="#000000">iDynTree/Core/GeomVector3.h</text>
</a>
</g>
</g>
<!-- Node24&#45;&gt;Node25 -->
<g id="edge42" class="edge">
<title>Node24&#45;&gt;Node25</title>
<path fill="none" stroke="#191970" d="M321.6971,-459.1245C317.3455,-449.0924 312.245,-435.5714 310,-423 299.0867,-361.8893 311.8639,-288.1969 319.3397,-253.6616"/>
<polygon fill="#191970" stroke="#191970" points="322.8398,-254.051 321.6298,-243.5255 316.0119,-252.5083 322.8398,-254.051"/>
</g>
<!-- Node26 -->
<g id="node27" class="node">
<title>Node26</title>
<g id="a_node27"><a xlink:href="SpatialVector_8h.html" target="_top" xlink:title="iDynTree/Core/SpatialVector.h">
<polygon fill="none" stroke="#000000" points="318.5,-403.5 318.5,-422.5 479.5,-422.5 479.5,-403.5 318.5,-403.5"/>
<text text-anchor="middle" x="399" y="-410.5" font-family="FreeSans.ttf" font-size="10.00" fill="#000000">iDynTree/Core/SpatialVector.h</text>
</a>
</g>
</g>
<!-- Node24&#45;&gt;Node26 -->
<g id="edge44" class="edge">
<title>Node24&#45;&gt;Node26</title>
<path fill="none" stroke="#191970" d="M346.3034,-459.2977C356.5262,-450.3163 369.4823,-438.9334 379.9896,-429.702"/>
<polygon fill="#191970" stroke="#191970" points="382.5897,-432.0766 387.7921,-422.8469 377.9695,-426.8178 382.5897,-432.0766"/>
</g>
<!-- Node25&#45;&gt;Node2 -->
<g id="edge43" class="edge">
<title>Node25&#45;&gt;Node2</title>
<path fill="none" stroke="#191970" d="M318.7744,-224.2455C314.6877,-216.617 308.8865,-205.7881 303.925,-196.5267"/>
<polygon fill="#191970" stroke="#191970" points="306.9732,-194.8047 299.1657,-187.6427 300.8028,-198.1103 306.9732,-194.8047"/>
</g>
<!-- Node26&#45;&gt;Node3 -->
<g id="edge54" class="edge">
<title>Node26&#45;&gt;Node3</title>
<path fill="none" stroke="#191970" d="M368.0996,-403.4753C305.6132,-383.645 167.4211,-336.7179 135,-300 114.7962,-277.1186 116,-264.5246 116,-234 116,-234 116,-234 116,-178 116,-142.3181 137.133,-105.1985 151.6419,-83.9186"/>
<polygon fill="#191970" stroke="#191970" points="154.6329,-85.7512 157.558,-75.5681 148.9211,-81.7046 154.6329,-85.7512"/>
</g>
<!-- Node26&#45;&gt;Node16 -->
<g id="edge57" class="edge">
<title>Node26&#45;&gt;Node16</title>
<path fill="none" stroke="#191970" d="M479.6774,-410.4372C610.3672,-405.5471 856.867,-392.9752 887,-367 913.6984,-343.9855 906,-325.2487 906,-290 906,-290 906,-290 906,-234 906,-201.7116 906,-164.1872 906,-141.8048"/>
<polygon fill="#191970" stroke="#191970" points="909.5001,-141.5883 906,-131.5884 902.5001,-141.5884 909.5001,-141.5883"/>
</g>
<!-- Node26&#45;&gt;Node21 -->
<g id="edge56" class="edge">
<title>Node26&#45;&gt;Node21</title>
<path fill="none" stroke="#191970" d="M458.7311,-403.4427C539.6431,-386.9245 681.071,-344.5709 743,-244 747.6608,-236.431 747.2632,-231.7999 743,-224 739.2371,-217.1154 652.2334,-163.5156 608.5545,-136.8975"/>
<polygon fill="#191970" stroke="#191970" points="610.2991,-133.8621 599.937,-131.6536 606.6602,-139.842 610.2991,-133.8621"/>
</g>
<!-- Node26&#45;&gt;Node25 -->
<g id="edge55" class="edge">
<title>Node26&#45;&gt;Node25</title>
<path fill="none" stroke="#191970" d="M394.9677,-403.3762C383.0643,-374.9669 347.9174,-291.0828 331.9974,-253.0871"/>
<polygon fill="#191970" stroke="#191970" points="335.1449,-251.542 328.0523,-243.6714 328.6887,-254.2471 335.1449,-251.542"/>
</g>
<!-- Node27 -->
<g id="node28" class="node">
<title>Node27</title>
<g id="a_node28"><a xlink:href="Position_8h.html" target="_top" xlink:title="Position.h">
<polygon fill="none" stroke="#000000" points="396.5,-342 396.5,-361 461.5,-361 461.5,-342 396.5,-342"/>
<text text-anchor="middle" x="429" y="-349" font-family="FreeSans.ttf" font-size="10.00" fill="#000000">Position.h</text>
</a>
</g>
</g>
<!-- Node26&#45;&gt;Node27 -->
<g id="edge45" class="edge">
<title>Node26&#45;&gt;Node27</title>
<path fill="none" stroke="#191970" d="M403.6875,-403.3906C407.9773,-394.5965 414.4482,-381.3312 419.7734,-370.4145"/>
<polygon fill="#191970" stroke="#191970" points="423.0078,-371.7671 424.2464,-361.2449 416.7164,-368.6981 423.0078,-371.7671"/>
</g>
<!-- Node28 -->
<g id="node29" class="node">
<title>Node28</title>
<g id="a_node29"><a xlink:href="Rotation_8h.html" target="_top" xlink:title="iDynTree/Core/Rotation.h">
<polygon fill="none" stroke="#000000" points="470.5,-280.5 470.5,-299.5 607.5,-299.5 607.5,-280.5 470.5,-280.5"/>
<text text-anchor="middle" x="539" y="-287.5" font-family="FreeSans.ttf" font-size="10.00" fill="#000000">iDynTree/Core/Rotation.h</text>
</a>
</g>
</g>
<!-- Node26&#45;&gt;Node28 -->
<g id="edge53" class="edge">
<title>Node26&#45;&gt;Node28</title>
<path fill="none" stroke="#191970" d="M416.8137,-403.4834C431.9918,-394.9522 453.9841,-381.5652 471,-367 492.0346,-348.9948 512.5653,-324.5092 525.4673,-308.0251"/>
<polygon fill="#191970" stroke="#191970" points="528.4841,-309.8434 531.8049,-299.7824 522.9348,-305.5766 528.4841,-309.8434"/>
</g>
<!-- Node27&#45;&gt;Node15 -->
<g id="edge52" class="edge">
<title>Node27&#45;&gt;Node15</title>
<path fill="none" stroke="#191970" d="M432.5441,-341.9309C445.3698,-307.3017 489.5212,-188.0929 506.8955,-141.1821"/>
<polygon fill="#191970" stroke="#191970" points="510.2497,-142.2031 510.4407,-131.61 503.6854,-139.7719 510.2497,-142.2031"/>
</g>
<!-- Node27&#45;&gt;Node22 -->
<g id="edge46" class="edge">
<title>Node27&#45;&gt;Node22</title>
<path fill="none" stroke="#191970" d="M396.6563,-341.8906C360.882,-331.2621 303.1253,-314.1025 263.9095,-302.4514"/>
<polygon fill="#191970" stroke="#191970" points="264.6993,-299.0349 254.1166,-299.5419 262.7057,-305.745 264.6993,-299.0349"/>
</g>
<!-- Node27&#45;&gt;Node28 -->
<g id="edge47" class="edge">
<title>Node27&#45;&gt;Node28</title>
<path fill="none" stroke="#191970" d="M446.1875,-341.8906C464.1082,-331.8713 492.4095,-316.0483 513.0523,-304.5071"/>
<polygon fill="#191970" stroke="#191970" points="514.9128,-307.4769 521.9332,-299.5419 511.4967,-301.367 514.9128,-307.4769"/>
</g>
<!-- Node28&#45;&gt;Node2 -->
<g id="edge51" class="edge">
<title>Node28&#45;&gt;Node2</title>
<path fill="none" stroke="#191970" d="M522.4885,-280.3505C499.0351,-266.8443 454.526,-241.9462 415,-224 387.6623,-211.5877 355.9053,-199.603 331.7863,-190.9799"/>
<polygon fill="#191970" stroke="#191970" points="332.8783,-187.6537 322.2836,-187.6148 330.5416,-194.2522 332.8783,-187.6537"/>
</g>
<!-- Node28&#45;&gt;Node15 -->
<g id="edge48" class="edge">
<title>Node28&#45;&gt;Node15</title>
<path fill="none" stroke="#191970" d="M538.1283,-280.4655C536.1783,-259.8569 531.0735,-209.657 524,-168 522.5327,-159.3585 520.5396,-149.884 518.7189,-141.7911"/>
<polygon fill="#191970" stroke="#191970" points="522.0755,-140.7715 516.4085,-131.8197 515.2562,-142.3517 522.0755,-140.7715"/>
</g>
<!-- Node28&#45;&gt;Node18 -->
<g id="edge50" class="edge">
<title>Node28&#45;&gt;Node18</title>
<path fill="none" stroke="#191970" d="M558.9411,-280.3733C577.4786,-271.4241 605.3028,-257.9917 626.2413,-247.8835"/>
<polygon fill="#191970" stroke="#191970" points="627.8352,-251.0006 635.3191,-243.5011 624.7919,-244.6967 627.8352,-251.0006"/>
</g>
<!-- Node28&#45;&gt;Node25 -->
<g id="edge49" class="edge">
<title>Node28&#45;&gt;Node25</title>
<path fill="none" stroke="#191970" d="M502.0402,-280.3733C465.5925,-270.8799 409.7754,-256.3415 370.3711,-246.0781"/>
<polygon fill="#191970" stroke="#191970" points="371.0369,-242.6348 360.4775,-243.5011 369.2724,-249.4087 371.0369,-242.6348"/>
</g>
<!-- Node29&#45;&gt;Node2 -->
<g id="edge59" class="edge">
<title>Node29&#45;&gt;Node2</title>
<path fill="none" stroke="#191970" d="M555.2988,-459.3626C588.2512,-424.9043 659.6287,-339.0336 617,-280 586.6992,-238.0385 445.3487,-205.5564 359.9948,-189.3576"/>
<polygon fill="#191970" stroke="#191970" points="360.6035,-185.9108 350.1301,-187.5104 359.3151,-192.7912 360.6035,-185.9108"/>
</g>
<!-- Node29&#45;&gt;Node25 -->
<g id="edge60" class="edge">
<title>Node29&#45;&gt;Node25</title>
<path fill="none" stroke="#191970" d="M535.2649,-459.3267C526.2269,-432.1955 504.3941,-374.6013 471,-336 437.0578,-296.7651 384.8368,-265.3103 352.6335,-248.1833"/>
<polygon fill="#191970" stroke="#191970" points="354.2044,-245.0552 343.719,-243.5365 350.9688,-251.2625 354.2044,-245.0552"/>
</g>
<!-- Node29&#45;&gt;Node26 -->
<g id="edge61" class="edge">
<title>Node29&#45;&gt;Node26</title>
<path fill="none" stroke="#191970" d="M505.5075,-459.4554C482.4972,-449.419 452.4914,-436.3314 430.1945,-426.6061"/>
<polygon fill="#191970" stroke="#191970" points="431.4154,-423.3202 420.85,-422.5303 428.6167,-429.7364 431.4154,-423.3202"/>
</g>
</g>
</svg>
