<?xml version="1.0" encoding="UTF-8" standalone="no"?>
<!DOCTYPE svg PUBLIC "-//W3C//DTD SVG 1.1//EN"
 "http://www.w3.org/Graphics/SVG/1.1/DTD/svg11.dtd">
<!-- Generated by graphviz version 2.40.1 (20161225.0304)
 -->
<!-- Title: SensorElement.h Pages: 1 -->
<svg width="1583pt" height="845pt"
 viewBox="0.00 0.00 1583.45 845.00" xmlns="http://www.w3.org/2000/svg" xmlns:xlink="http://www.w3.org/1999/xlink">
<g id="graph0" class="graph" transform="scale(1 1) rotate(0) translate(4 841)">
<title>SensorElement.h</title>
<!-- Node0 -->
<g id="node1" class="node">
<title>Node0</title>
<polygon fill="#bfbfbf" stroke="#000000" points="599.9514,-817.5 599.9514,-836.5 698.9514,-836.5 698.9514,-817.5 599.9514,-817.5"/>
<text text-anchor="middle" x="649.4514" y="-824.5" font-family="FreeSans.ttf" font-size="10.00" fill="#000000">SensorElement.h</text>
</g>
<!-- Node1 -->
<g id="node2" class="node">
<title>Node1</title>
<g id="a_node2"><a xlink:href="XMLElement_8h.html" target="_top" xlink:title="iDynTree/XMLElement.h">
<polygon fill="none" stroke="#000000" points="478.4514,-761.5 478.4514,-780.5 610.4514,-780.5 610.4514,-761.5 478.4514,-761.5"/>
<text text-anchor="middle" x="544.4514" y="-768.5" font-family="FreeSans.ttf" font-size="10.00" fill="#000000">iDynTree/XMLElement.h</text>
</a>
</g>
</g>
<!-- Node0&#45;&gt;Node1 -->
<g id="edge1" class="edge">
<title>Node0&#45;&gt;Node1</title>
<path fill="none" stroke="#191970" d="M631.1618,-817.2455C614.6751,-808.4527 590.2162,-795.4079 571.4748,-785.4125"/>
<polygon fill="#191970" stroke="#191970" points="573.002,-782.2604 562.5314,-780.6427 569.7079,-788.4368 573.002,-782.2604"/>
</g>
<!-- Node3 -->
<g id="node4" class="node">
<title>Node3</title>
<polygon fill="none" stroke="#bfbfbf" points="292.4514,-705.5 292.4514,-724.5 350.4514,-724.5 350.4514,-705.5 292.4514,-705.5"/>
<text text-anchor="middle" x="321.4514" y="-712.5" font-family="FreeSans.ttf" font-size="10.00" fill="#000000">memory</text>
</g>
<!-- Node0&#45;&gt;Node3 -->
<g id="edge105" class="edge">
<title>Node0&#45;&gt;Node3</title>
<path fill="none" stroke="#191970" d="M599.6496,-819.8426C557.2254,-812.8174 495.109,-800.3142 443.4514,-781 407.2098,-767.4497 368.4031,-744.9102 344.5272,-730.0028"/>
<polygon fill="#191970" stroke="#191970" points="346.1705,-726.9007 335.8492,-724.5085 342.426,-732.815 346.1705,-726.9007"/>
</g>
<!-- Node4 -->
<g id="node5" class="node">
<title>Node4</title>
<polygon fill="none" stroke="#bfbfbf" points="1083.4514,-112.5 1083.4514,-131.5 1127.4514,-131.5 1127.4514,-112.5 1083.4514,-112.5"/>
<text text-anchor="middle" x="1105.4514" y="-119.5" font-family="FreeSans.ttf" font-size="10.00" fill="#000000">string</text>
</g>
<!-- Node0&#45;&gt;Node4 -->
<g id="edge106" class="edge">
<title>Node0&#45;&gt;Node4</title>
<path fill="none" stroke="#191970" d="M698.9842,-825.8925C882.0077,-821.6158 1511.3777,-805.2026 1546.4514,-781 1572.8223,-762.8027 1575.4514,-747.0401 1575.4514,-715 1575.4514,-715 1575.4514,-715 1575.4514,-541.5 1575.4514,-319.3995 1428.87,-290.2643 1243.4514,-168 1210.7788,-146.4558 1167.0933,-134.1386 1137.7009,-127.772"/>
<polygon fill="#191970" stroke="#191970" points="1138.0655,-124.2739 1127.5657,-125.6896 1136.6566,-131.1307 1138.0655,-124.2739"/>
</g>
<!-- Node5 -->
<g id="node6" class="node">
<title>Node5</title>
<polygon fill="none" stroke="#bfbfbf" points="368.9514,-705.5 368.9514,-724.5 461.9514,-724.5 461.9514,-705.5 368.9514,-705.5"/>
<text text-anchor="middle" x="415.4514" y="-712.5" font-family="FreeSans.ttf" font-size="10.00" fill="#000000">unordered_map</text>
</g>
<!-- Node0&#45;&gt;Node5 -->
<g id="edge107" class="edge">
<title>Node0&#45;&gt;Node5</title>
<path fill="none" stroke="#191970" d="M599.9108,-822.7903C561.7575,-817.6413 509.0216,-806.2314 469.4514,-781 450.8145,-769.1165 435.5493,-748.6463 426.0618,-733.6465"/>
<polygon fill="#191970" stroke="#191970" points="428.844,-731.4824 420.684,-724.7247 422.8488,-735.096 428.844,-731.4824"/>
</g>
<!-- Node6 -->
<g id="node7" class="node">
<title>Node6</title>
<polygon fill="none" stroke="#bfbfbf" points="1323.9514,-593.5 1323.9514,-612.5 1370.9514,-612.5 1370.9514,-593.5 1323.9514,-593.5"/>
<text text-anchor="middle" x="1347.4514" y="-600.5" font-family="FreeSans.ttf" font-size="10.00" fill="#000000">vector</text>
</g>
<!-- Node0&#45;&gt;Node6 -->
<g id="edge108" class="edge">
<title>Node0&#45;&gt;Node6</title>
<path fill="none" stroke="#191970" d="M699.3045,-822.3331C799.1618,-812.0499 1030.0256,-783.5551 1215.4514,-725 1271.9588,-707.1557 1300.5306,-716.1296 1336.4514,-669 1346.4526,-655.8779 1348.7423,-637.0007 1348.7987,-622.7934"/>
<polygon fill="#191970" stroke="#191970" points="1352.2906,-622.4818 1348.4698,-612.5999 1345.2942,-622.7076 1352.2906,-622.4818"/>
</g>
<!-- Node7 -->
<g id="node8" class="node">
<title>Node7</title>
<g id="a_node8"><a xlink:href="Transform_8h.html" target="_top" xlink:title="iDynTree/Core/Transform.h">
<polygon fill="none" stroke="#000000" points="928.4514,-403.5 928.4514,-422.5 1074.4514,-422.5 1074.4514,-403.5 928.4514,-403.5"/>
<text text-anchor="middle" x="1001.4514" y="-410.5" font-family="FreeSans.ttf" font-size="10.00" fill="#000000">iDynTree/Core/Transform.h</text>
</a>
</g>
</g>
<!-- Node0&#45;&gt;Node7 -->
<g id="edge7" class="edge">
<title>Node0&#45;&gt;Node7</title>
<path fill="none" stroke="#191970" d="M647.4595,-817.3702C642.0927,-788.6447 630.19,-702.2558 668.4514,-649 725.5398,-569.539 789.2834,-614.4941 868.4514,-557 895.2327,-537.5506 958.1014,-464.5211 986.7554,-430.5635"/>
<polygon fill="#191970" stroke="#191970" points="989.5028,-432.7346 993.2604,-422.8284 984.1454,-428.2292 989.5028,-432.7346"/>
</g>
<!-- Node31 -->
<g id="node32" class="node">
<title>Node31</title>
<g id="a_node32"><a xlink:href="Sensors_8h.html" target="_top" xlink:title="iDynTree/Sensors/Sensors.h">
<polygon fill="none" stroke="#000000" points="1385.9514,-761.5 1385.9514,-780.5 1536.9514,-780.5 1536.9514,-761.5 1385.9514,-761.5"/>
<text text-anchor="middle" x="1461.4514" y="-768.5" font-family="FreeSans.ttf" font-size="10.00" fill="#000000">iDynTree/Sensors/Sensors.h</text>
</a>
</g>
</g>
<!-- Node0&#45;&gt;Node31 -->
<g id="edge53" class="edge">
<title>Node0&#45;&gt;Node31</title>
<path fill="none" stroke="#191970" d="M698.97,-824.6494C816.0412,-818.9167 1119.0121,-803.0538 1371.4514,-781 1372.9196,-780.8717 1374.4011,-780.7394 1375.8927,-780.6036"/>
<polygon fill="#191970" stroke="#191970" points="1376.2293,-784.0875 1385.8549,-779.6605 1375.5695,-777.1186 1376.2293,-784.0875"/>
</g>
<!-- Node2 -->
<g id="node3" class="node">
<title>Node2</title>
<polygon fill="none" stroke="#bfbfbf" points="479.9514,-705.5 479.9514,-724.5 544.9514,-724.5 544.9514,-705.5 479.9514,-705.5"/>
<text text-anchor="middle" x="512.4514" y="-712.5" font-family="FreeSans.ttf" font-size="10.00" fill="#000000">functional</text>
</g>
<!-- Node1&#45;&gt;Node2 -->
<g id="edge2" class="edge">
<title>Node1&#45;&gt;Node2</title>
<path fill="none" stroke="#191970" d="M538.8774,-761.2455C534.5183,-753.617 528.3303,-742.7881 523.0381,-733.5267"/>
<polygon fill="#191970" stroke="#191970" points="525.9618,-731.5886 517.9615,-724.6427 519.8841,-735.0616 525.9618,-731.5886"/>
</g>
<!-- Node1&#45;&gt;Node3 -->
<g id="edge3" class="edge">
<title>Node1&#45;&gt;Node3</title>
<path fill="none" stroke="#191970" d="M505.4338,-761.4619C470.0154,-752.7671 416.0913,-739.4388 360.2031,-725.1696"/>
<polygon fill="#191970" stroke="#191970" points="361.0424,-721.7717 350.4869,-722.6844 359.3077,-728.5534 361.0424,-721.7717"/>
</g>
<!-- Node1&#45;&gt;Node4 -->
<g id="edge4" class="edge">
<title>Node1&#45;&gt;Node4</title>
<path fill="none" stroke="#191970" d="M550.6523,-761.4642C565.6511,-739.0528 606.0932,-682.4061 652.4514,-649 737.1066,-587.9967 775.8978,-605.1843 868.4514,-557 968.323,-505.0058 1009.3244,-507.7521 1083.4514,-423 1126.1438,-374.1882 1143.4514,-354.8478 1143.4514,-290 1143.4514,-290 1143.4514,-290 1143.4514,-234 1143.4514,-199.6118 1127.188,-162.2832 1115.9404,-140.5791"/>
<polygon fill="#191970" stroke="#191970" points="1118.8824,-138.6605 1111.0584,-131.5166 1112.7197,-141.9804 1118.8824,-138.6605"/>
</g>
<!-- Node1&#45;&gt;Node5 -->
<g id="edge5" class="edge">
<title>Node1&#45;&gt;Node5</title>
<path fill="none" stroke="#191970" d="M522.2755,-761.3733C501.4748,-752.3435 470.1597,-738.7494 446.8056,-728.6111"/>
<polygon fill="#191970" stroke="#191970" points="447.9046,-725.2727 437.3379,-724.5011 445.1171,-731.6938 447.9046,-725.2727"/>
</g>
<!-- Node1&#45;&gt;Node6 -->
<g id="edge6" class="edge">
<title>Node1&#45;&gt;Node6</title>
<path fill="none" stroke="#191970" d="M610.5315,-767.9853C744.8322,-761.5245 1045.4817,-745.2699 1146.4514,-725 1224.0309,-709.4257 1255.9452,-721.1551 1315.4514,-669 1329.4764,-656.7076 1337.9274,-636.8793 1342.5919,-622.1606"/>
<polygon fill="#191970" stroke="#191970" points="1345.9624,-623.1036 1345.3447,-612.5268 1339.2318,-621.1803 1345.9624,-623.1036"/>
</g>
<!-- Node7&#45;&gt;Node4 -->
<g id="edge52" class="edge">
<title>Node7&#45;&gt;Node4</title>
<path fill="none" stroke="#191970" d="M1018.6249,-403.2837C1048.1638,-385.1499 1105.4514,-343.1322 1105.4514,-290 1105.4514,-290 1105.4514,-290 1105.4514,-234 1105.4514,-201.7116 1105.4514,-164.1872 1105.4514,-141.8048"/>
<polygon fill="#191970" stroke="#191970" points="1108.9515,-141.5883 1105.4514,-131.5884 1101.9515,-141.5884 1108.9515,-141.5883"/>
</g>
<!-- Node8 -->
<g id="node9" class="node">
<title>Node8</title>
<g id="a_node9"><a xlink:href="Position_8h.html" target="_top" xlink:title="iDynTree/Core/Position.h">
<polygon fill="none" stroke="#000000" points="855.4514,-342 855.4514,-361 991.4514,-361 991.4514,-342 855.4514,-342"/>
<text text-anchor="middle" x="923.4514" y="-349" font-family="FreeSans.ttf" font-size="10.00" fill="#000000">iDynTree/Core/Position.h</text>
</a>
</g>
</g>
<!-- Node7&#45;&gt;Node8 -->
<g id="edge8" class="edge">
<title>Node7&#45;&gt;Node8</title>
<path fill="none" stroke="#191970" d="M989.2639,-403.3906C977.0144,-393.7324 957.9251,-378.6812 943.4536,-367.271"/>
<polygon fill="#191970" stroke="#191970" points="945.5731,-364.485 935.5533,-361.0419 941.239,-369.9819 945.5731,-364.485"/>
</g>
<!-- Node25 -->
<g id="node26" class="node">
<title>Node25</title>
<g id="a_node26"><a xlink:href="Rotation_8h.html" target="_top" xlink:title="iDynTree/Core/Rotation.h">
<polygon fill="none" stroke="#000000" points="641.9514,-280.5 641.9514,-299.5 778.9514,-299.5 778.9514,-280.5 641.9514,-280.5"/>
<text text-anchor="middle" x="710.4514" y="-287.5" font-family="FreeSans.ttf" font-size="10.00" fill="#000000">iDynTree/Core/Rotation.h</text>
</a>
</g>
</g>
<!-- Node7&#45;&gt;Node25 -->
<g id="edge50" class="edge">
<title>Node7&#45;&gt;Node25</title>
<path fill="none" stroke="#191970" d="M960.0983,-403.4507C928.3534,-395.4747 883.7813,-382.8637 846.4514,-367 804.903,-349.3436 759.9138,-322.1124 733.507,-305.2106"/>
<polygon fill="#191970" stroke="#191970" points="735.2756,-302.1863 724.9776,-299.6956 731.4747,-308.0645 735.2756,-302.1863"/>
</g>
<!-- Node28 -->
<g id="node29" class="node">
<title>Node28</title>
<g id="a_node29"><a xlink:href="MatrixFixSize_8h.html" target="_top" xlink:title="iDynTree/Core/MatrixFixSize.h">
<polygon fill="none" stroke="#000000" points="467.9514,-168.5 467.9514,-187.5 628.9514,-187.5 628.9514,-168.5 467.9514,-168.5"/>
<text text-anchor="middle" x="548.4514" y="-175.5" font-family="FreeSans.ttf" font-size="10.00" fill="#000000">iDynTree/Core/MatrixFixSize.h</text>
</a>
</g>
</g>
<!-- Node7&#45;&gt;Node28 -->
<g id="edge51" class="edge">
<title>Node7&#45;&gt;Node28</title>
<path fill="none" stroke="#191970" d="M1006.1027,-403.1845C1019.9969,-372.265 1057.4126,-275.8692 1010.4514,-224 986.0573,-197.0565 766.7028,-185.2451 639.2168,-180.6177"/>
<polygon fill="#191970" stroke="#191970" points="639.1851,-177.1144 629.0671,-180.2574 638.9366,-184.11 639.1851,-177.1144"/>
</g>
<!-- Node8&#45;&gt;Node4 -->
<g id="edge49" class="edge">
<title>Node8&#45;&gt;Node4</title>
<path fill="none" stroke="#191970" d="M931.4301,-341.7668C946.8221,-322.9628 981.6398,-280.2921 1010.4514,-244 1039.7561,-207.0867 1073.5486,-163.4224 1091.8897,-139.6293"/>
<polygon fill="#191970" stroke="#191970" points="1094.7919,-141.5971 1098.121,-131.5388 1089.2461,-137.3257 1094.7919,-141.5971"/>
</g>
<!-- Node9 -->
<g id="node10" class="node">
<title>Node9</title>
<g id="a_node10"><a xlink:href="PositionRaw_8h.html" target="_top" xlink:title="iDynTree/Core/PositionRaw.h">
<polygon fill="none" stroke="#000000" points="845.4514,-224.5 845.4514,-243.5 1001.4514,-243.5 1001.4514,-224.5 845.4514,-224.5"/>
<text text-anchor="middle" x="923.4514" y="-231.5" font-family="FreeSans.ttf" font-size="10.00" fill="#000000">iDynTree/Core/PositionRaw.h</text>
</a>
</g>
</g>
<!-- Node8&#45;&gt;Node9 -->
<g id="edge9" class="edge">
<title>Node8&#45;&gt;Node9</title>
<path fill="none" stroke="#191970" d="M923.4514,-341.8845C923.4514,-322.6913 923.4514,-279.286 923.4514,-253.7663"/>
<polygon fill="#191970" stroke="#191970" points="926.9515,-253.7483 923.4514,-243.7484 919.9515,-253.7484 926.9515,-253.7483"/>
</g>
<!-- Node8&#45;&gt;Node25 -->
<g id="edge30" class="edge">
<title>Node8&#45;&gt;Node25</title>
<path fill="none" stroke="#191970" d="M890.1701,-341.8906C853.2808,-331.2395 793.6757,-314.0296 753.3189,-302.3772"/>
<polygon fill="#191970" stroke="#191970" points="754.0774,-298.9533 743.4989,-299.5419 752.1355,-305.6786 754.0774,-298.9533"/>
</g>
<!-- Node9&#45;&gt;Node4 -->
<g id="edge29" class="edge">
<title>Node9&#45;&gt;Node4</title>
<path fill="none" stroke="#191970" d="M938.9686,-224.4509C970.6672,-204.9441 1043.0624,-160.3932 1081.0912,-136.9909"/>
<polygon fill="#191970" stroke="#191970" points="1083.2912,-139.7467 1089.9734,-131.5249 1079.6225,-133.7851 1083.2912,-139.7467"/>
</g>
<!-- Node10 -->
<g id="node11" class="node">
<title>Node10</title>
<g id="a_node11"><a xlink:href="VectorFixSize_8h.html" target="_top" xlink:title="iDynTree/Core/VectorFixSize.h">
<polygon fill="none" stroke="#000000" points="249.9514,-168.5 249.9514,-187.5 410.9514,-187.5 410.9514,-168.5 249.9514,-168.5"/>
<text text-anchor="middle" x="330.4514" y="-175.5" font-family="FreeSans.ttf" font-size="10.00" fill="#000000">iDynTree/Core/VectorFixSize.h</text>
</a>
</g>
</g>
<!-- Node9&#45;&gt;Node10 -->
<g id="edge10" class="edge">
<title>Node9&#45;&gt;Node10</title>
<path fill="none" stroke="#191970" d="M845.3172,-226.6214C735.8713,-216.2859 537.351,-197.5386 421.4012,-186.5889"/>
<polygon fill="#191970" stroke="#191970" points="421.4179,-183.0749 411.1331,-185.6192 420.7597,-190.0439 421.4179,-183.0749"/>
</g>
<!-- Node10&#45;&gt;Node4 -->
<g id="edge24" class="edge">
<title>Node10&#45;&gt;Node4</title>
<path fill="none" stroke="#191970" d="M411.0161,-171.6196C426.7455,-170.3983 443.114,-169.1443 458.4514,-168 694.4462,-150.3924 978.9841,-130.6945 1073.3347,-124.2036"/>
<polygon fill="#191970" stroke="#191970" points="1073.6459,-127.6906 1083.3823,-123.5129 1073.1658,-120.7071 1073.6459,-127.6906"/>
</g>
<!-- Node11 -->
<g id="node12" class="node">
<title>Node11</title>
<g id="a_node12"><a xlink:href="Utils_8h.html" target="_top" xlink:title="iDynTree/Core/Utils.h">
<polygon fill="none" stroke="#000000" points="400.9514,-56.5 400.9514,-75.5 519.9514,-75.5 519.9514,-56.5 400.9514,-56.5"/>
<text text-anchor="middle" x="460.4514" y="-63.5" font-family="FreeSans.ttf" font-size="10.00" fill="#000000">iDynTree/Core/Utils.h</text>
</a>
</g>
</g>
<!-- Node10&#45;&gt;Node11 -->
<g id="edge11" class="edge">
<title>Node10&#45;&gt;Node11</title>
<path fill="none" stroke="#191970" d="M323.9196,-168.0417C315.7264,-154.1685 304.1545,-128.8373 316.4514,-112 326.7709,-97.8702 365.4057,-85.9803 400.0602,-77.8302"/>
<polygon fill="#191970" stroke="#191970" points="401.2017,-81.16 410.1753,-75.5274 399.6478,-74.3346 401.2017,-81.16"/>
</g>
<!-- Node12 -->
<g id="node13" class="node">
<title>Node12</title>
<polygon fill="none" stroke="#bfbfbf" points="805.9514,-.5 805.9514,-19.5 858.9514,-19.5 858.9514,-.5 805.9514,-.5"/>
<text text-anchor="middle" x="832.4514" y="-7.5" font-family="FreeSans.ttf" font-size="10.00" fill="#000000">cstddef</text>
</g>
<!-- Node10&#45;&gt;Node12 -->
<g id="edge27" class="edge">
<title>Node10&#45;&gt;Node12</title>
<path fill="none" stroke="#191970" d="M330.2956,-168.3299C330.6214,-153.8596 333.4916,-126.7045 349.4514,-112 409.1311,-57.0144 449.0207,-92.6088 528.4514,-76 624.9984,-55.8122 738.512,-30.8378 795.6461,-18.1811"/>
<polygon fill="#191970" stroke="#191970" points="796.636,-21.5467 805.6414,-15.9651 795.1208,-14.7126 796.636,-21.5467"/>
</g>
<!-- Node14 -->
<g id="node15" class="node">
<title>Node14</title>
<g id="a_node15"><a xlink:href="Span_8h.html" target="_top" xlink:title="iDynTree/Core/Span.h">
<polygon fill="none" stroke="#000000" points="1082.9514,-56.5 1082.9514,-75.5 1203.9514,-75.5 1203.9514,-56.5 1082.9514,-56.5"/>
<text text-anchor="middle" x="1143.4514" y="-63.5" font-family="FreeSans.ttf" font-size="10.00" fill="#000000">iDynTree/Core/Span.h</text>
</a>
</g>
</g>
<!-- Node10&#45;&gt;Node14 -->
<g id="edge14" class="edge">
<title>Node10&#45;&gt;Node14</title>
<path fill="none" stroke="#191970" d="M410.9696,-170.5149C520.6919,-160.0671 707.0796,-141.3456 737.4514,-132 755.6926,-126.3871 757.2436,-117.7205 775.4514,-112 829.2006,-95.113 981.4394,-79.8173 1072.3914,-71.829"/>
<polygon fill="#191970" stroke="#191970" points="1072.9661,-75.2923 1082.6249,-70.9382 1072.359,-68.3186 1072.9661,-75.2923"/>
</g>
<!-- Node15 -->
<g id="node16" class="node">
<title>Node15</title>
<polygon fill="none" stroke="#bfbfbf" points="541.4514,-.5 541.4514,-19.5 593.4514,-19.5 593.4514,-.5 541.4514,-.5"/>
<text text-anchor="middle" x="567.4514" y="-7.5" font-family="FreeSans.ttf" font-size="10.00" fill="#000000">cassert</text>
</g>
<!-- Node10&#45;&gt;Node15 -->
<g id="edge26" class="edge">
<title>Node10&#45;&gt;Node15</title>
<path fill="none" stroke="#191970" d="M322.1646,-168.2087C312.0243,-154.9635 297.3743,-130.8292 307.4514,-112 328.6232,-72.4401 350.5154,-74.3705 391.4514,-56 437.476,-35.3459 494.5863,-22.5575 531.0301,-15.8602"/>
<polygon fill="#191970" stroke="#191970" points="531.9554,-19.2507 541.1878,-14.0533 530.7293,-12.3589 531.9554,-19.2507"/>
</g>
<!-- Node23 -->
<g id="node24" class="node">
<title>Node23</title>
<polygon fill="none" stroke="#bfbfbf" points="426.4514,-112.5 426.4514,-131.5 482.4514,-131.5 482.4514,-112.5 426.4514,-112.5"/>
<text text-anchor="middle" x="454.4514" y="-119.5" font-family="FreeSans.ttf" font-size="10.00" fill="#000000">sstream</text>
</g>
<!-- Node10&#45;&gt;Node23 -->
<g id="edge25" class="edge">
<title>Node10&#45;&gt;Node23</title>
<path fill="none" stroke="#191970" d="M351.7677,-168.3733C371.673,-159.3838 401.595,-145.8706 424.0114,-135.7471"/>
<polygon fill="#191970" stroke="#191970" points="425.74,-138.8068 433.4132,-131.5011 422.8589,-132.4272 425.74,-138.8068"/>
</g>
<!-- Node24 -->
<g id="node25" class="node">
<title>Node24</title>
<polygon fill="none" stroke="#bfbfbf" points="358.4514,-112.5 358.4514,-131.5 408.4514,-131.5 408.4514,-112.5 358.4514,-112.5"/>
<text text-anchor="middle" x="383.4514" y="-119.5" font-family="FreeSans.ttf" font-size="10.00" fill="#000000">cstring</text>
</g>
<!-- Node10&#45;&gt;Node24 -->
<g id="edge28" class="edge">
<title>Node10&#45;&gt;Node24</title>
<path fill="none" stroke="#191970" d="M339.6833,-168.2455C347.2831,-160.2155 358.2391,-148.6394 367.2881,-139.0781"/>
<polygon fill="#191970" stroke="#191970" points="369.9934,-141.3115 374.3253,-131.6427 364.9094,-136.4998 369.9934,-141.3115"/>
</g>
<!-- Node11&#45;&gt;Node12 -->
<g id="edge12" class="edge">
<title>Node11&#45;&gt;Node12</title>
<path fill="none" stroke="#191970" d="M520.2196,-57.0026C597.8457,-45.317 731.0123,-25.2704 795.4177,-15.575"/>
<polygon fill="#191970" stroke="#191970" points="796.1457,-19.0049 805.5133,-14.0552 795.1037,-12.0829 796.1457,-19.0049"/>
</g>
<!-- Node13 -->
<g id="node14" class="node">
<title>Node13</title>
<polygon fill="none" stroke="#bfbfbf" points="420.4514,-.5 420.4514,-19.5 500.4514,-19.5 500.4514,-.5 420.4514,-.5"/>
<text text-anchor="middle" x="460.4514" y="-7.5" font-family="FreeSans.ttf" font-size="10.00" fill="#000000">CoreExport.h</text>
</g>
<!-- Node11&#45;&gt;Node13 -->
<g id="edge13" class="edge">
<title>Node11&#45;&gt;Node13</title>
<path fill="none" stroke="#191970" d="M460.4514,-56.2455C460.4514,-48.9382 460.4514,-38.6944 460.4514,-29.7046"/>
<polygon fill="#191970" stroke="#191970" points="463.9515,-29.6426 460.4514,-19.6427 456.9515,-29.6427 463.9515,-29.6426"/>
</g>
<!-- Node14&#45;&gt;Node12 -->
<g id="edge18" class="edge">
<title>Node14&#45;&gt;Node12</title>
<path fill="none" stroke="#191970" d="M1090.3419,-56.4369C1027.2676,-45.0794 923.7335,-26.4367 869.0044,-16.5819"/>
<polygon fill="#191970" stroke="#191970" points="869.5167,-13.1179 859.0547,-14.7903 868.2762,-20.0071 869.5167,-13.1179"/>
</g>
<!-- Node14&#45;&gt;Node15 -->
<g id="edge15" class="edge">
<title>Node14&#45;&gt;Node15</title>
<path fill="none" stroke="#191970" d="M1082.898,-60.1129C963.3239,-48.4876 700.1344,-22.8997 603.745,-13.5285"/>
<polygon fill="#191970" stroke="#191970" points="603.9162,-10.0288 593.6244,-12.5446 603.2388,-16.9959 603.9162,-10.0288"/>
</g>
<!-- Node16 -->
<g id="node17" class="node">
<title>Node16</title>
<polygon fill="none" stroke="#bfbfbf" points="1330.4514,-.5 1330.4514,-19.5 1394.4514,-19.5 1394.4514,-.5 1330.4514,-.5"/>
<text text-anchor="middle" x="1362.4514" y="-7.5" font-family="FreeSans.ttf" font-size="10.00" fill="#000000">algorithm</text>
</g>
<!-- Node14&#45;&gt;Node16 -->
<g id="edge16" class="edge">
<title>Node14&#45;&gt;Node16</title>
<path fill="none" stroke="#191970" d="M1181.0988,-56.3733C1219.8818,-46.4561 1280.1953,-31.0335 1320.4893,-20.73"/>
<polygon fill="#191970" stroke="#191970" points="1321.4557,-24.0956 1330.2769,-18.2273 1319.7215,-17.3138 1321.4557,-24.0956"/>
</g>
<!-- Node17 -->
<g id="node18" class="node">
<title>Node17</title>
<polygon fill="none" stroke="#bfbfbf" points="1061.4514,-.5 1061.4514,-19.5 1103.4514,-19.5 1103.4514,-.5 1061.4514,-.5"/>
<text text-anchor="middle" x="1082.4514" y="-7.5" font-family="FreeSans.ttf" font-size="10.00" fill="#000000">array</text>
</g>
<!-- Node14&#45;&gt;Node17 -->
<g id="edge17" class="edge">
<title>Node14&#45;&gt;Node17</title>
<path fill="none" stroke="#191970" d="M1132.826,-56.2455C1123.9041,-48.0549 1110.9634,-36.1749 1100.4321,-26.5069"/>
<polygon fill="#191970" stroke="#191970" points="1102.6885,-23.8271 1092.955,-19.6427 1097.9546,-28.9837 1102.6885,-23.8271"/>
</g>
<!-- Node18 -->
<g id="node19" class="node">
<title>Node18</title>
<polygon fill="none" stroke="#bfbfbf" points="1460.9514,-.5 1460.9514,-19.5 1513.9514,-19.5 1513.9514,-.5 1460.9514,-.5"/>
<text text-anchor="middle" x="1487.4514" y="-7.5" font-family="FreeSans.ttf" font-size="10.00" fill="#000000">iterator</text>
</g>
<!-- Node14&#45;&gt;Node18 -->
<g id="edge19" class="edge">
<title>Node14&#45;&gt;Node18</title>
<path fill="none" stroke="#191970" d="M1202.1962,-56.4369C1273.3396,-44.8554 1391.0189,-25.6983 1450.5385,-16.0091"/>
<polygon fill="#191970" stroke="#191970" points="1451.3,-19.4313 1460.6077,-14.3699 1450.1752,-12.5222 1451.3,-19.4313"/>
</g>
<!-- Node19 -->
<g id="node20" class="node">
<title>Node19</title>
<polygon fill="none" stroke="#bfbfbf" points="1121.4514,-.5 1121.4514,-19.5 1165.4514,-19.5 1165.4514,-.5 1121.4514,-.5"/>
<text text-anchor="middle" x="1143.4514" y="-7.5" font-family="FreeSans.ttf" font-size="10.00" fill="#000000">limits</text>
</g>
<!-- Node14&#45;&gt;Node19 -->
<g id="edge20" class="edge">
<title>Node14&#45;&gt;Node19</title>
<path fill="none" stroke="#191970" d="M1143.4514,-56.2455C1143.4514,-48.9382 1143.4514,-38.6944 1143.4514,-29.7046"/>
<polygon fill="#191970" stroke="#191970" points="1146.9515,-29.6426 1143.4514,-19.6427 1139.9515,-29.6427 1146.9515,-29.6426"/>
</g>
<!-- Node20 -->
<g id="node21" class="node">
<title>Node20</title>
<polygon fill="none" stroke="#bfbfbf" points="1183.9514,-.5 1183.9514,-19.5 1248.9514,-19.5 1248.9514,-.5 1183.9514,-.5"/>
<text text-anchor="middle" x="1216.4514" y="-7.5" font-family="FreeSans.ttf" font-size="10.00" fill="#000000">stdexcept</text>
</g>
<!-- Node14&#45;&gt;Node20 -->
<g id="edge21" class="edge">
<title>Node14&#45;&gt;Node20</title>
<path fill="none" stroke="#191970" d="M1156.167,-56.2455C1167.0534,-47.8943 1182.9397,-35.7076 1195.6714,-25.9408"/>
<polygon fill="#191970" stroke="#191970" points="1198.0775,-28.5063 1203.8815,-19.6427 1193.8168,-22.9523 1198.0775,-28.5063"/>
</g>
<!-- Node21 -->
<g id="node22" class="node">
<title>Node21</title>
<polygon fill="none" stroke="#bfbfbf" points="973.9514,-.5 973.9514,-19.5 1042.9514,-19.5 1042.9514,-.5 973.9514,-.5"/>
<text text-anchor="middle" x="1008.4514" y="-7.5" font-family="FreeSans.ttf" font-size="10.00" fill="#000000">type_traits</text>
</g>
<!-- Node14&#45;&gt;Node21 -->
<g id="edge22" class="edge">
<title>Node14&#45;&gt;Node21</title>
<path fill="none" stroke="#191970" d="M1120.2441,-56.3733C1098.2815,-47.2629 1065.1182,-33.5062 1040.6112,-23.3404"/>
<polygon fill="#191970" stroke="#191970" points="1041.9338,-20.0999 1031.3559,-19.5011 1039.2516,-26.5657 1041.9338,-20.0999"/>
</g>
<!-- Node22 -->
<g id="node23" class="node">
<title>Node22</title>
<polygon fill="none" stroke="#bfbfbf" points="1266.9514,-.5 1266.9514,-19.5 1311.9514,-19.5 1311.9514,-.5 1266.9514,-.5"/>
<text text-anchor="middle" x="1289.4514" y="-7.5" font-family="FreeSans.ttf" font-size="10.00" fill="#000000">utility</text>
</g>
<!-- Node14&#45;&gt;Node22 -->
<g id="edge23" class="edge">
<title>Node14&#45;&gt;Node22</title>
<path fill="none" stroke="#191970" d="M1168.5497,-56.3733C1192.9852,-47.0007 1230.2413,-32.7107 1256.9352,-22.472"/>
<polygon fill="#191970" stroke="#191970" points="1258.5167,-25.614 1266.6,-18.7649 1256.0098,-19.0783 1258.5167,-25.614"/>
</g>
<!-- Node25&#45;&gt;Node4 -->
<g id="edge31" class="edge">
<title>Node25&#45;&gt;Node4</title>
<path fill="none" stroke="#191970" d="M729.0006,-280.3231C746.8153,-271.0248 774.4829,-256.5719 798.4514,-244 815.3528,-235.1349 819.0518,-231.8424 836.4514,-224 920.1597,-186.2707 1022.3619,-150.1298 1073.3305,-132.752"/>
<polygon fill="#191970" stroke="#191970" points="1074.7672,-135.9606 1083.1125,-129.4332 1072.5181,-129.3317 1074.7672,-135.9606"/>
</g>
<!-- Node25&#45;&gt;Node10 -->
<g id="edge48" class="edge">
<title>Node25&#45;&gt;Node10</title>
<path fill="none" stroke="#191970" d="M682.125,-280.4851C642.3792,-267.245 567.7174,-242.7772 503.4514,-224 461.3674,-211.7039 413.1294,-198.9906 378.3001,-190.054"/>
<polygon fill="#191970" stroke="#191970" points="378.9519,-186.6081 368.3966,-187.522 377.2179,-193.39 378.9519,-186.6081"/>
</g>
<!-- Node26 -->
<g id="node27" class="node">
<title>Node26</title>
<g id="a_node27"><a xlink:href="GeomVector3_8h.html" target="_top" xlink:title="iDynTree/Core/GeomVector3.h">
<polygon fill="none" stroke="#000000" points="246.9514,-224.5 246.9514,-243.5 409.9514,-243.5 409.9514,-224.5 246.9514,-224.5"/>
<text text-anchor="middle" x="328.4514" y="-231.5" font-family="FreeSans.ttf" font-size="10.00" fill="#000000">iDynTree/Core/GeomVector3.h</text>
</a>
</g>
</g>
<!-- Node25&#45;&gt;Node26 -->
<g id="edge32" class="edge">
<title>Node25&#45;&gt;Node26</title>
<path fill="none" stroke="#191970" d="M645.2173,-280.4369C578.1928,-270.6113 473.9736,-255.3331 403.5527,-245.0096"/>
<polygon fill="#191970" stroke="#191970" points="403.8184,-241.5112 393.4164,-243.5237 402.803,-248.4372 403.8184,-241.5112"/>
</g>
<!-- Node27 -->
<g id="node28" class="node">
<title>Node27</title>
<g id="a_node28"><a xlink:href="RotationRaw_8h.html" target="_top" xlink:title="iDynTree/Core/RotationRaw.h">
<polygon fill="none" stroke="#000000" points="631.4514,-224.5 631.4514,-243.5 789.4514,-243.5 789.4514,-224.5 631.4514,-224.5"/>
<text text-anchor="middle" x="710.4514" y="-231.5" font-family="FreeSans.ttf" font-size="10.00" fill="#000000">iDynTree/Core/RotationRaw.h</text>
</a>
</g>
</g>
<!-- Node25&#45;&gt;Node27 -->
<g id="edge34" class="edge">
<title>Node25&#45;&gt;Node27</title>
<path fill="none" stroke="#191970" d="M710.4514,-280.2455C710.4514,-272.9382 710.4514,-262.6944 710.4514,-253.7046"/>
<polygon fill="#191970" stroke="#191970" points="713.9515,-253.6426 710.4514,-243.6427 706.9515,-253.6427 713.9515,-253.6426"/>
</g>
<!-- Node26&#45;&gt;Node10 -->
<g id="edge33" class="edge">
<title>Node26&#45;&gt;Node10</title>
<path fill="none" stroke="#191970" d="M328.7998,-224.2455C329.0607,-216.9382 329.4266,-206.6944 329.7476,-197.7046"/>
<polygon fill="#191970" stroke="#191970" points="333.2478,-197.7613 330.107,-187.6427 326.2522,-197.5113 333.2478,-197.7613"/>
</g>
<!-- Node27&#45;&gt;Node4 -->
<g id="edge47" class="edge">
<title>Node27&#45;&gt;Node4</title>
<path fill="none" stroke="#191970" d="M720.6311,-224.2731C736.7712,-209.4705 769.861,-181.5792 803.4514,-168 852.1075,-148.3302 1006.0298,-131.5806 1073.3765,-124.9921"/>
<polygon fill="#191970" stroke="#191970" points="1073.7952,-128.4681 1083.4124,-124.0231 1073.1223,-121.5005 1073.7952,-128.4681"/>
</g>
<!-- Node27&#45;&gt;Node28 -->
<g id="edge35" class="edge">
<title>Node27&#45;&gt;Node28</title>
<path fill="none" stroke="#191970" d="M682.6026,-224.3733C655.7811,-215.1016 615.0387,-201.0178 585.4916,-190.804"/>
<polygon fill="#191970" stroke="#191970" points="586.5315,-187.4603 575.9368,-187.5011 584.2445,-194.0762 586.5315,-187.4603"/>
</g>
<!-- Node28&#45;&gt;Node4 -->
<g id="edge44" class="edge">
<title>Node28&#45;&gt;Node4</title>
<path fill="none" stroke="#191970" d="M629.1463,-169.887C753.7621,-157.3584 987.5815,-133.8505 1073.0807,-125.2545"/>
<polygon fill="#191970" stroke="#191970" points="1073.6173,-128.7183 1083.217,-124.2354 1072.917,-121.7534 1073.6173,-128.7183"/>
</g>
<!-- Node28&#45;&gt;Node11 -->
<g id="edge36" class="edge">
<title>Node28&#45;&gt;Node11</title>
<path fill="none" stroke="#191970" d="M540.9486,-168.4509C526.1413,-149.6054 492.9681,-107.3849 474.1557,-83.4419"/>
<polygon fill="#191970" stroke="#191970" points="476.8656,-81.2257 467.9352,-75.5249 471.3614,-85.5505 476.8656,-81.2257"/>
</g>
<!-- Node28&#45;&gt;Node15 -->
<g id="edge42" class="edge">
<title>Node28&#45;&gt;Node15</title>
<path fill="none" stroke="#191970" d="M549.5273,-168.4862C552.5308,-141.9293 561.0541,-66.5651 565.1708,-30.1655"/>
<polygon fill="#191970" stroke="#191970" points="568.6938,-30.1579 566.3399,-19.8279 561.7382,-29.3712 568.6938,-30.1579"/>
</g>
<!-- Node28&#45;&gt;Node23 -->
<g id="edge46" class="edge">
<title>Node28&#45;&gt;Node23</title>
<path fill="none" stroke="#191970" d="M532.0778,-168.2455C517.5206,-159.5731 496.0204,-146.7645 479.3362,-136.825"/>
<polygon fill="#191970" stroke="#191970" points="481.0197,-133.7539 470.6373,-131.6427 477.437,-139.7676 481.0197,-133.7539"/>
</g>
<!-- Node28&#45;&gt;Node24 -->
<g id="edge43" class="edge">
<title>Node28&#45;&gt;Node24</title>
<path fill="none" stroke="#191970" d="M520.0869,-168.3733C491.858,-158.7926 448.4895,-144.0736 418.2071,-133.7959"/>
<polygon fill="#191970" stroke="#191970" points="419.0742,-130.3941 408.4798,-130.4945 416.8244,-137.0228 419.0742,-130.3941"/>
</g>
<!-- Node29 -->
<g id="node30" class="node">
<title>Node29</title>
<g id="a_node30"><a xlink:href="MatrixView_8h.html" target="_top" xlink:title="iDynTree/Core/MatrixView.h">
<polygon fill="none" stroke="#000000" points="576.9514,-112.5 576.9514,-131.5 727.9514,-131.5 727.9514,-112.5 576.9514,-112.5"/>
<text text-anchor="middle" x="652.4514" y="-119.5" font-family="FreeSans.ttf" font-size="10.00" fill="#000000">iDynTree/Core/MatrixView.h</text>
</a>
</g>
</g>
<!-- Node28&#45;&gt;Node29 -->
<g id="edge37" class="edge">
<title>Node28&#45;&gt;Node29</title>
<path fill="none" stroke="#191970" d="M566.5668,-168.2455C582.8964,-159.4527 607.1224,-146.4079 625.6853,-136.4125"/>
<polygon fill="#191970" stroke="#191970" points="627.3982,-139.4654 634.5436,-131.6427 624.0795,-133.3021 627.3982,-139.4654"/>
</g>
<!-- Node30 -->
<g id="node31" class="node">
<title>Node30</title>
<polygon fill="none" stroke="#bfbfbf" points="784.4514,-112.5 784.4514,-131.5 844.4514,-131.5 844.4514,-112.5 784.4514,-112.5"/>
<text text-anchor="middle" x="814.4514" y="-119.5" font-family="FreeSans.ttf" font-size="10.00" fill="#000000">iostream</text>
</g>
<!-- Node28&#45;&gt;Node30 -->
<g id="edge45" class="edge">
<title>Node28&#45;&gt;Node30</title>
<path fill="none" stroke="#191970" d="M595.7114,-168.4805C640.6927,-159.3554 710.2562,-145.0755 770.4514,-132 771.7001,-131.7287 772.9684,-131.4515 774.2486,-131.17"/>
<polygon fill="#191970" stroke="#191970" points="775.1707,-134.5505 784.1717,-128.9619 773.6502,-127.7176 775.1707,-134.5505"/>
</g>
<!-- Node29&#45;&gt;Node11 -->
<g id="edge41" class="edge">
<title>Node29&#45;&gt;Node11</title>
<path fill="none" stroke="#191970" d="M619.4454,-112.3733C587.2423,-102.9807 538.1072,-88.6496 502.9874,-78.4064"/>
<polygon fill="#191970" stroke="#191970" points="503.6067,-74.9412 493.0267,-75.5011 501.6466,-81.6612 503.6067,-74.9412"/>
</g>
<!-- Node29&#45;&gt;Node14 -->
<g id="edge40" class="edge">
<title>Node29&#45;&gt;Node14</title>
<path fill="none" stroke="#191970" d="M728.073,-113.5939C732.9387,-113.0541 737.7637,-112.5193 742.4514,-112 887.3349,-95.9512 923.7523,-93.6339 1068.4514,-76 1069.9183,-75.8212 1071.4012,-75.6389 1072.8957,-75.4535"/>
<polygon fill="#191970" stroke="#191970" points="1073.4003,-78.9177 1082.8842,-74.1949 1072.525,-71.9727 1073.4003,-78.9177"/>
</g>
<!-- Node29&#45;&gt;Node15 -->
<g id="edge38" class="edge">
<title>Node29&#45;&gt;Node15</title>
<path fill="none" stroke="#191970" d="M645.2043,-112.4509C630.9646,-93.688 599.1403,-51.7548 580.9284,-27.758"/>
<polygon fill="#191970" stroke="#191970" points="583.5136,-25.3747 574.6801,-19.5249 577.9375,-29.6065 583.5136,-25.3747"/>
</g>
<!-- Node29&#45;&gt;Node21 -->
<g id="edge39" class="edge">
<title>Node29&#45;&gt;Node21</title>
<path fill="none" stroke="#191970" d="M682.8037,-112.4509C747.0408,-92.2415 896.7196,-45.1516 968.5708,-22.5467"/>
<polygon fill="#191970" stroke="#191970" points="969.6872,-25.8647 978.1758,-19.5249 967.5864,-19.1873 969.6872,-25.8647"/>
</g>
<!-- Node31&#45;&gt;Node4 -->
<g id="edge55" class="edge">
<title>Node31&#45;&gt;Node4</title>
<path fill="none" stroke="#191970" d="M1460.0995,-761.427C1458.1117,-748.4291 1453.9203,-724.5741 1447.4514,-705 1383.7965,-512.3898 1257.4514,-492.8561 1257.4514,-290 1257.4514,-290 1257.4514,-290 1257.4514,-234 1257.4514,-174.8522 1181.9334,-143.4415 1137.3568,-130.0527"/>
<polygon fill="#191970" stroke="#191970" points="1138.1305,-126.6337 1127.5535,-127.2474 1136.2047,-133.3635 1138.1305,-126.6337"/>
</g>
<!-- Node31&#45;&gt;Node6 -->
<g id="edge56" class="edge">
<title>Node31&#45;&gt;Node6</title>
<path fill="none" stroke="#191970" d="M1458.0224,-761.4361C1450.0123,-739.9068 1428.5237,-686.586 1399.4514,-649 1390.8095,-637.8274 1379.183,-627.2444 1369.1153,-619.0524"/>
<polygon fill="#191970" stroke="#191970" points="1371.1501,-616.2001 1361.1248,-612.7731 1366.8249,-621.7039 1371.1501,-616.2001"/>
</g>
<!-- Node31&#45;&gt;Node18 -->
<g id="edge57" class="edge">
<title>Node31&#45;&gt;Node18</title>
<path fill="none" stroke="#191970" d="M1474.0012,-761.4082C1495.5874,-743.7155 1537.4514,-703.6472 1537.4514,-659 1537.4514,-659 1537.4514,-659 1537.4514,-541.5 1537.4514,-456.6775 1555.4514,-436.3225 1555.4514,-351.5 1555.4514,-351.5 1555.4514,-351.5 1555.4514,-122 1555.4514,-83.6435 1525.9507,-47.2254 1505.8112,-26.8326"/>
<polygon fill="#191970" stroke="#191970" points="1507.9825,-24.0616 1498.3768,-19.5917 1503.0984,-29.0762 1507.9825,-24.0616"/>
</g>
<!-- Node31&#45;&gt;Node26 -->
<g id="edge54" class="edge">
<title>Node31&#45;&gt;Node26</title>
<path fill="none" stroke="#191970" d="M1385.6416,-767.0023C1280.4401,-760.9034 1084.3841,-747.5433 918.4514,-725 717.931,-697.7576 152.6715,-712.7328 23.4514,-557 -81.2998,-430.7566 198.5527,-291.3237 296.2293,-247.7635"/>
<polygon fill="#191970" stroke="#191970" points="297.8883,-250.8571 305.6253,-243.6191 295.0633,-244.4525 297.8883,-250.8571"/>
</g>
<!-- Node32 -->
<g id="node33" class="node">
<title>Node32</title>
<g id="a_node33"><a xlink:href="VectorDynSize_8h.html" target="_top" xlink:title="iDynTree/Core/VectorDynSize.h">
<polygon fill="none" stroke="#000000" points="1360.9514,-168.5 1360.9514,-187.5 1527.9514,-187.5 1527.9514,-168.5 1360.9514,-168.5"/>
<text text-anchor="middle" x="1444.4514" y="-175.5" font-family="FreeSans.ttf" font-size="10.00" fill="#000000">iDynTree/Core/VectorDynSize.h</text>
</a>
</g>
</g>
<!-- Node31&#45;&gt;Node32 -->
<g id="edge58" class="edge">
<title>Node31&#45;&gt;Node32</title>
<path fill="none" stroke="#191970" d="M1465.2822,-761.318C1468.7014,-752.1364 1473.4657,-737.8703 1475.4514,-725 1500.7642,-560.9316 1479.4514,-517.5095 1479.4514,-351.5 1479.4514,-351.5 1479.4514,-351.5 1479.4514,-290 1479.4514,-255.8821 1464.4719,-218.4701 1454.1123,-196.676"/>
<polygon fill="#191970" stroke="#191970" points="1457.1822,-194.9879 1449.6158,-187.5717 1450.9059,-198.0877 1457.1822,-194.9879"/>
</g>
<!-- Node33 -->
<g id="node34" class="node">
<title>Node33</title>
<g id="a_node34"><a xlink:href="Model_8h.html" target="_top" xlink:title="iDynTree/Model/Model.h">
<polygon fill="none" stroke="#000000" points="1003.9514,-705.5 1003.9514,-724.5 1136.9514,-724.5 1136.9514,-705.5 1003.9514,-705.5"/>
<text text-anchor="middle" x="1070.4514" y="-712.5" font-family="FreeSans.ttf" font-size="10.00" fill="#000000">iDynTree/Model/Model.h</text>
</a>
</g>
</g>
<!-- Node31&#45;&gt;Node33 -->
<g id="edge61" class="edge">
<title>Node31&#45;&gt;Node33</title>
<path fill="none" stroke="#191970" d="M1394.6804,-761.4369C1325.9362,-751.5912 1218.9648,-736.2705 1146.8794,-725.9462"/>
<polygon fill="#191970" stroke="#191970" points="1147.3422,-722.4769 1136.947,-724.5237 1146.3498,-729.4062 1147.3422,-722.4769"/>
</g>
<!-- Node35 -->
<g id="node36" class="node">
<title>Node35</title>
<g id="a_node36"><a xlink:href="Indices_8h.html" target="_top" xlink:title="iDynTree/Model/Indices.h">
<polygon fill="none" stroke="#000000" points="947.4514,-593.5 947.4514,-612.5 1085.4514,-612.5 1085.4514,-593.5 947.4514,-593.5"/>
<text text-anchor="middle" x="1016.4514" y="-600.5" font-family="FreeSans.ttf" font-size="10.00" fill="#000000">iDynTree/Model/Indices.h</text>
</a>
</g>
</g>
<!-- Node31&#45;&gt;Node35 -->
<g id="edge104" class="edge">
<title>Node31&#45;&gt;Node35</title>
<path fill="none" stroke="#191970" d="M1385.8666,-766.9859C1273.1394,-760.4154 1066.6103,-745.9634 995.4514,-725 943.2074,-709.6089 914.8307,-715.4858 886.4514,-669 869.3804,-641.0374 902.8037,-624.4789 940.0253,-614.9408"/>
<polygon fill="#191970" stroke="#191970" points="941.1454,-618.272 950.0615,-612.5489 939.5225,-611.4627 941.1454,-618.272"/>
</g>
<!-- Node32&#45;&gt;Node4 -->
<g id="edge60" class="edge">
<title>Node32&#45;&gt;Node4</title>
<path fill="none" stroke="#191970" d="M1386.5604,-168.4369C1314.6379,-156.5559 1194.4533,-136.7024 1137.3939,-127.2766"/>
<polygon fill="#191970" stroke="#191970" points="1137.9369,-123.819 1127.5001,-125.6423 1136.7959,-130.7254 1137.9369,-123.819"/>
</g>
<!-- Node32&#45;&gt;Node14 -->
<g id="edge59" class="edge">
<title>Node32&#45;&gt;Node14</title>
<path fill="none" stroke="#191970" d="M1418.7883,-168.4509C1364.9198,-148.4069 1239.9868,-101.9202 1178.6745,-79.1063"/>
<polygon fill="#191970" stroke="#191970" points="1179.6423,-75.732 1169.0495,-75.5249 1177.2011,-82.2926 1179.6423,-75.732"/>
</g>
<!-- Node33&#45;&gt;Node6 -->
<g id="edge103" class="edge">
<title>Node33&#45;&gt;Node6</title>
<path fill="none" stroke="#191970" d="M1136.9541,-705.8859C1191.8917,-697.4891 1264.8566,-684.0749 1290.4514,-669 1310.1133,-657.4194 1326.3809,-636.5979 1336.4357,-621.4306"/>
<polygon fill="#191970" stroke="#191970" points="1339.4758,-623.1719 1341.8682,-612.8507 1333.5616,-619.4272 1339.4758,-623.1719"/>
</g>
<!-- Node33&#45;&gt;Node7 -->
<g id="edge94" class="edge">
<title>Node33&#45;&gt;Node7</title>
<path fill="none" stroke="#191970" d="M1003.5042,-706.946C957.0453,-699.8206 900.9908,-687.6218 886.4514,-669 862.7869,-638.6911 888.927,-657.8064 939.4514,-557 961.4047,-513.1988 983.1387,-459.7999 994.1079,-431.9559"/>
<polygon fill="#191970" stroke="#191970" points="997.3807,-433.1969 997.7629,-422.609 990.8614,-430.6476 997.3807,-433.1969"/>
</g>
<!-- Node34 -->
<g id="node35" class="node">
<title>Node34</title>
<g id="a_node35"><a xlink:href="IJoint_8h.html" target="_top" xlink:title="iDynTree/Model/IJoint.h">
<polygon fill="none" stroke="#000000" points="895.4514,-649.5 895.4514,-668.5 1023.4514,-668.5 1023.4514,-649.5 895.4514,-649.5"/>
<text text-anchor="middle" x="959.4514" y="-656.5" font-family="FreeSans.ttf" font-size="10.00" fill="#000000">iDynTree/Model/IJoint.h</text>
</a>
</g>
</g>
<!-- Node33&#45;&gt;Node34 -->
<g id="edge62" class="edge">
<title>Node33&#45;&gt;Node34</title>
<path fill="none" stroke="#191970" d="M1051.3698,-705.3733C1033.7112,-696.4644 1007.2461,-683.1127 987.2416,-673.0203"/>
<polygon fill="#191970" stroke="#191970" points="988.7886,-669.8806 978.284,-668.5011 985.6356,-676.1303 988.7886,-669.8806"/>
</g>
<!-- Node33&#45;&gt;Node35 -->
<g id="edge95" class="edge">
<title>Node33&#45;&gt;Node35</title>
<path fill="none" stroke="#191970" d="M1065.8474,-705.4509C1056.9205,-686.936 1037.1156,-645.8591 1025.4765,-621.7187"/>
<polygon fill="#191970" stroke="#191970" points="1028.5395,-620.0125 1021.0437,-612.5249 1022.2341,-623.0527 1028.5395,-620.0125"/>
</g>
<!-- Node37 -->
<g id="node38" class="node">
<title>Node37</title>
<g id="a_node38"><a xlink:href="Link_8h.html" target="_top" xlink:title="iDynTree/Model/Link.h">
<polygon fill="none" stroke="#000000" points="677.4514,-649.5 677.4514,-668.5 801.4514,-668.5 801.4514,-649.5 677.4514,-649.5"/>
<text text-anchor="middle" x="739.4514" y="-656.5" font-family="FreeSans.ttf" font-size="10.00" fill="#000000">iDynTree/Model/Link.h</text>
</a>
</g>
</g>
<!-- Node33&#45;&gt;Node37 -->
<g id="edge67" class="edge">
<title>Node33&#45;&gt;Node37</title>
<path fill="none" stroke="#191970" d="M1013.9265,-705.4369C956.2074,-695.6717 866.6543,-680.5207 805.6547,-670.2006"/>
<polygon fill="#191970" stroke="#191970" points="806.1868,-666.7409 795.7431,-668.5237 805.0191,-673.6429 806.1868,-666.7409"/>
</g>
<!-- Node48 -->
<g id="node49" class="node">
<title>Node48</title>
<g id="a_node49"><a xlink:href="SolidShapes_8h.html" target="_top" xlink:title="iDynTree/Model/SolidShapes.h">
<polygon fill="none" stroke="#000000" points="1117.9514,-649.5 1117.9514,-668.5 1280.9514,-668.5 1280.9514,-649.5 1117.9514,-649.5"/>
<text text-anchor="middle" x="1199.4514" y="-656.5" font-family="FreeSans.ttf" font-size="10.00" fill="#000000">iDynTree/Model/SolidShapes.h</text>
</a>
</g>
</g>
<!-- Node33&#45;&gt;Node48 -->
<g id="edge96" class="edge">
<title>Node33&#45;&gt;Node48</title>
<path fill="none" stroke="#191970" d="M1092.6273,-705.3733C1113.428,-696.3435 1144.743,-682.7494 1168.0972,-672.6111"/>
<polygon fill="#191970" stroke="#191970" points="1169.7856,-675.6938 1177.5649,-668.5011 1166.9982,-669.2727 1169.7856,-675.6938"/>
</g>
<!-- Node49 -->
<g id="node50" class="node">
<title>Node49</title>
<polygon fill="none" stroke="#bfbfbf" points="1103.9514,-593.5 1103.9514,-612.5 1152.9514,-612.5 1152.9514,-593.5 1103.9514,-593.5"/>
<text text-anchor="middle" x="1128.4514" y="-600.5" font-family="FreeSans.ttf" font-size="10.00" fill="#000000">cstdlib</text>
</g>
<!-- Node33&#45;&gt;Node49 -->
<g id="edge102" class="edge">
<title>Node33&#45;&gt;Node49</title>
<path fill="none" stroke="#191970" d="M1075.3964,-705.4509C1084.9845,-686.936 1106.2565,-645.8591 1118.7578,-621.7187"/>
<polygon fill="#191970" stroke="#191970" points="1122.0282,-623.0144 1123.5189,-612.5249 1115.8123,-619.7953 1122.0282,-623.0144"/>
</g>
<!-- Node34&#45;&gt;Node35 -->
<g id="edge63" class="edge">
<title>Node34&#45;&gt;Node35</title>
<path fill="none" stroke="#191970" d="M969.38,-649.2455C977.6352,-641.1352 989.5723,-629.4075 999.3596,-619.7919"/>
<polygon fill="#191970" stroke="#191970" points="1001.956,-622.1476 1006.6365,-612.6427 997.0502,-617.1542 1001.956,-622.1476"/>
</g>
<!-- Node35&#45;&gt;Node4 -->
<g id="edge65" class="edge">
<title>Node35&#45;&gt;Node4</title>
<path fill="none" stroke="#191970" d="M1054.7469,-593.3834C1076.0954,-586.3445 1101.8454,-574.8445 1119.4514,-557 1168.39,-507.3983 1181.4514,-482.68 1181.4514,-413 1181.4514,-413 1181.4514,-413 1181.4514,-234 1181.4514,-202.7875 1175.0149,-193.802 1157.4514,-168 1149.6092,-156.4793 1138.2432,-145.9817 1128.1363,-137.9331"/>
<polygon fill="#191970" stroke="#191970" points="1130.1255,-135.0487 1120.0476,-131.7796 1125.8872,-140.6198 1130.1255,-135.0487"/>
</g>
<!-- Node35&#45;&gt;Node12 -->
<g id="edge64" class="edge">
<title>Node35&#45;&gt;Node12</title>
<path fill="none" stroke="#191970" d="M1035.6515,-593.4582C1050.744,-585.2801 1071.624,-572.3984 1086.4514,-557 1224.6788,-413.4494 1426.1266,-329.5564 1309.4514,-168 1282.4852,-130.6608 975.3909,-47.4016 868.7042,-19.3969"/>
<polygon fill="#191970" stroke="#191970" points="869.5818,-16.0088 859.0214,-16.8627 867.8093,-22.7807 869.5818,-16.0088"/>
</g>
<!-- Node36 -->
<g id="node37" class="node">
<title>Node36</title>
<polygon fill="none" stroke="#bfbfbf" points="991.4514,-532 991.4514,-551 1077.4514,-551 1077.4514,-532 991.4514,-532"/>
<text text-anchor="middle" x="1034.4514" y="-539" font-family="FreeSans.ttf" font-size="10.00" fill="#000000">ModelExport.h</text>
</g>
<!-- Node35&#45;&gt;Node36 -->
<g id="edge66" class="edge">
<title>Node35&#45;&gt;Node36</title>
<path fill="none" stroke="#191970" d="M1019.2639,-593.3906C1021.7852,-584.776 1025.5624,-571.8708 1028.719,-561.0858"/>
<polygon fill="#191970" stroke="#191970" points="1032.1493,-561.8254 1031.5992,-551.2449 1025.4311,-559.8591 1032.1493,-561.8254"/>
</g>
<!-- Node37&#45;&gt;Node35 -->
<g id="edge93" class="edge">
<title>Node37&#45;&gt;Node35</title>
<path fill="none" stroke="#191970" d="M786.7546,-649.4369C834.5594,-639.7724 908.4582,-624.8326 959.4622,-614.5213"/>
<polygon fill="#191970" stroke="#191970" points="960.2351,-617.9359 969.3432,-612.5237 958.8479,-611.0747 960.2351,-617.9359"/>
</g>
<!-- Node38 -->
<g id="node39" class="node">
<title>Node38</title>
<g id="a_node39"><a xlink:href="SpatialInertia_8h.html" target="_top" xlink:title="iDynTree/Core/SpatialInertia.h">
<polygon fill="none" stroke="#000000" points="362.4514,-593.5 362.4514,-612.5 524.4514,-612.5 524.4514,-593.5 362.4514,-593.5"/>
<text text-anchor="middle" x="443.4514" y="-600.5" font-family="FreeSans.ttf" font-size="10.00" fill="#000000">iDynTree/Core/SpatialInertia.h</text>
</a>
</g>
</g>
<!-- Node37&#45;&gt;Node38 -->
<g id="edge68" class="edge">
<title>Node37&#45;&gt;Node38</title>
<path fill="none" stroke="#191970" d="M688.9035,-649.4369C637.6068,-639.7321 558.1935,-624.708 503.6696,-614.3926"/>
<polygon fill="#191970" stroke="#191970" points="504.2671,-610.9437 493.7908,-612.5237 502.9658,-617.8217 504.2671,-610.9437"/>
</g>
<!-- Node38&#45;&gt;Node10 -->
<g id="edge72" class="edge">
<title>Node38&#45;&gt;Node10</title>
<path fill="none" stroke="#191970" d="M362.1062,-599.5453C249.315,-593.9072 56.7952,-580.8855 35.4514,-557 12.3353,-531.1313 23.6192,-396.8026 224.4514,-224 241.8321,-209.0451 264.8226,-198.2745 284.949,-190.9331"/>
<polygon fill="#191970" stroke="#191970" points="286.2596,-194.1831 294.562,-187.6012 283.9672,-187.5691 286.2596,-194.1831"/>
</g>
<!-- Node39 -->
<g id="node40" class="node">
<title>Node39</title>
<g id="a_node40"><a xlink:href="SpatialInertiaRaw_8h.html" target="_top" xlink:title="iDynTree/Core/SpatialInertia\lRaw.h">
<polygon fill="none" stroke="#000000" points="705.9514,-526.5 705.9514,-556.5 858.9514,-556.5 858.9514,-526.5 705.9514,-526.5"/>
<text text-anchor="start" x="713.9514" y="-544.5" font-family="FreeSans.ttf" font-size="10.00" fill="#000000">iDynTree/Core/SpatialInertia</text>
<text text-anchor="middle" x="782.4514" y="-533.5" font-family="FreeSans.ttf" font-size="10.00" fill="#000000">Raw.h</text>
</a>
</g>
</g>
<!-- Node38&#45;&gt;Node39 -->
<g id="edge69" class="edge">
<title>Node38&#45;&gt;Node39</title>
<path fill="none" stroke="#191970" d="M496.4813,-593.4154C545.6605,-584.5225 621.1722,-570.8569 695.5345,-557.3474"/>
<polygon fill="#191970" stroke="#191970" points="696.3281,-560.7606 705.5413,-555.5291 695.0766,-553.8733 696.3281,-560.7606"/>
</g>
<!-- Node41 -->
<g id="node42" class="node">
<title>Node41</title>
<g id="a_node42"><a xlink:href="Twist_8h.html" target="_top" xlink:title="iDynTree/Core/Twist.h">
<polygon fill="none" stroke="#000000" points="44.4514,-532 44.4514,-551 166.4514,-551 166.4514,-532 44.4514,-532"/>
<text text-anchor="middle" x="105.4514" y="-539" font-family="FreeSans.ttf" font-size="10.00" fill="#000000">iDynTree/Core/Twist.h</text>
</a>
</g>
</g>
<!-- Node38&#45;&gt;Node41 -->
<g id="edge73" class="edge">
<title>Node38&#45;&gt;Node41</title>
<path fill="none" stroke="#191970" d="M383.1621,-593.4991C328.7461,-584.7225 246.5573,-570.9665 175.4514,-557 169.3598,-555.8035 162.9848,-554.4849 156.6681,-553.1372"/>
<polygon fill="#191970" stroke="#191970" points="157.3531,-549.7044 146.8389,-551.0087 155.8716,-556.5459 157.3531,-549.7044"/>
</g>
<!-- Node44 -->
<g id="node45" class="node">
<title>Node44</title>
<g id="a_node45"><a xlink:href="SpatialMomentum_8h.html" target="_top" xlink:title="iDynTree/Core/SpatialMomentum.h">
<polygon fill="none" stroke="#000000" points="350.4514,-532 350.4514,-551 536.4514,-551 536.4514,-532 350.4514,-532"/>
<text text-anchor="middle" x="443.4514" y="-539" font-family="FreeSans.ttf" font-size="10.00" fill="#000000">iDynTree/Core/SpatialMomentum.h</text>
</a>
</g>
</g>
<!-- Node38&#45;&gt;Node44 -->
<g id="edge84" class="edge">
<title>Node38&#45;&gt;Node44</title>
<path fill="none" stroke="#191970" d="M443.4514,-593.3906C443.4514,-584.8657 443.4514,-572.1392 443.4514,-561.4235"/>
<polygon fill="#191970" stroke="#191970" points="446.9515,-561.2448 443.4514,-551.2449 439.9515,-561.2449 446.9515,-561.2448"/>
</g>
<!-- Node46 -->
<g id="node47" class="node">
<title>Node46</title>
<g id="a_node47"><a xlink:href="SpatialAcc_8h.html" target="_top" xlink:title="iDynTree/Core/SpatialAcc.h">
<polygon fill="none" stroke="#000000" points="184.4514,-532 184.4514,-551 332.4514,-551 332.4514,-532 184.4514,-532"/>
<text text-anchor="middle" x="258.4514" y="-539" font-family="FreeSans.ttf" font-size="10.00" fill="#000000">iDynTree/Core/SpatialAcc.h</text>
</a>
</g>
</g>
<!-- Node38&#45;&gt;Node46 -->
<g id="edge89" class="edge">
<title>Node38&#45;&gt;Node46</title>
<path fill="none" stroke="#191970" d="M414.5451,-593.3906C382.9124,-582.8749 332.0484,-565.966 297.0285,-554.3243"/>
<polygon fill="#191970" stroke="#191970" points="297.7482,-550.8753 287.1546,-551.0419 295.5399,-557.5178 297.7482,-550.8753"/>
</g>
<!-- Node47 -->
<g id="node48" class="node">
<title>Node47</title>
<g id="a_node48"><a xlink:href="Wrench_8h.html" target="_top" xlink:title="iDynTree/Core/Wrench.h">
<polygon fill="none" stroke="#000000" points="554.9514,-532 554.9514,-551 687.9514,-551 687.9514,-532 554.9514,-532"/>
<text text-anchor="middle" x="621.4514" y="-539" font-family="FreeSans.ttf" font-size="10.00" fill="#000000">iDynTree/Core/Wrench.h</text>
</a>
</g>
</g>
<!-- Node38&#45;&gt;Node47 -->
<g id="edge91" class="edge">
<title>Node38&#45;&gt;Node47</title>
<path fill="none" stroke="#191970" d="M471.2639,-593.3906C501.6997,-582.8749 550.6391,-565.966 584.334,-554.3243"/>
<polygon fill="#191970" stroke="#191970" points="585.5254,-557.6157 593.8342,-551.0419 583.2394,-550.9995 585.5254,-557.6157"/>
</g>
<!-- Node40 -->
<g id="node41" class="node">
<title>Node40</title>
<g id="a_node41"><a xlink:href="RotationalInertiaRaw_8h.html" target="_top" xlink:title="iDynTree/Core/Rotational\lInertiaRaw.h">
<polygon fill="none" stroke="#000000" points="544.9514,-336.5 544.9514,-366.5 681.9514,-366.5 681.9514,-336.5 544.9514,-336.5"/>
<text text-anchor="start" x="552.9514" y="-354.5" font-family="FreeSans.ttf" font-size="10.00" fill="#000000">iDynTree/Core/Rotational</text>
<text text-anchor="middle" x="613.4514" y="-343.5" font-family="FreeSans.ttf" font-size="10.00" fill="#000000">InertiaRaw.h</text>
</a>
</g>
</g>
<!-- Node39&#45;&gt;Node40 -->
<g id="edge70" class="edge">
<title>Node39&#45;&gt;Node40</title>
<path fill="none" stroke="#191970" d="M768.9071,-526.2727C739.2915,-492.977 668.6375,-413.5436 633.7091,-374.2749"/>
<polygon fill="#191970" stroke="#191970" points="636.0869,-371.6819 626.8256,-366.5361 630.8565,-376.3342 636.0869,-371.6819"/>
</g>
<!-- Node40&#45;&gt;Node28 -->
<g id="edge71" class="edge">
<title>Node40&#45;&gt;Node28</title>
<path fill="none" stroke="#191970" d="M607.7968,-336.4065C595.9845,-304.8767 568.7078,-232.0692 555.6595,-197.24"/>
<polygon fill="#191970" stroke="#191970" points="558.8855,-195.8745 552.0996,-187.738 552.3304,-198.3303 558.8855,-195.8745"/>
</g>
<!-- Node42 -->
<g id="node43" class="node">
<title>Node42</title>
<g id="a_node43"><a xlink:href="SpatialMotionVector_8h.html" target="_top" xlink:title="iDynTree/Core/SpatialMotion\lVector.h">
<polygon fill="none" stroke="#000000" points="180.9514,-459.5 180.9514,-489.5 335.9514,-489.5 335.9514,-459.5 180.9514,-459.5"/>
<text text-anchor="start" x="188.9514" y="-477.5" font-family="FreeSans.ttf" font-size="10.00" fill="#000000">iDynTree/Core/SpatialMotion</text>
<text text-anchor="middle" x="258.4514" y="-466.5" font-family="FreeSans.ttf" font-size="10.00" fill="#000000">Vector.h</text>
</a>
</g>
</g>
<!-- Node41&#45;&gt;Node42 -->
<g id="edge74" class="edge">
<title>Node41&#45;&gt;Node42</title>
<path fill="none" stroke="#191970" d="M127.3726,-531.9005C150.089,-521.9528 186.2029,-506.1382 214.7769,-493.6254"/>
<polygon fill="#191970" stroke="#191970" points="216.3917,-496.7392 224.1479,-489.5218 213.5838,-490.3271 216.3917,-496.7392"/>
</g>
<!-- Node42&#45;&gt;Node10 -->
<g id="edge75" class="edge">
<title>Node42&#45;&gt;Node10</title>
<path fill="none" stroke="#191970" d="M251.3315,-459.2172C233.1459,-417.7243 189.6766,-300.93 237.4514,-224 246.984,-208.6499 263.3255,-198.2666 279.6762,-191.3145"/>
<polygon fill="#191970" stroke="#191970" points="281.1915,-194.481 289.2528,-187.6061 278.6637,-187.9534 281.1915,-194.481"/>
</g>
<!-- Node42&#45;&gt;Node26 -->
<g id="edge76" class="edge">
<title>Node42&#45;&gt;Node26</title>
<path fill="none" stroke="#191970" d="M257.2554,-459.4473C255.2051,-425.5227 253.7657,-341.2785 283.4514,-280 288.9705,-268.6072 298.4201,-258.2877 307.2395,-250.3233"/>
<polygon fill="#191970" stroke="#191970" points="309.6732,-252.8484 315.0309,-243.7081 305.1426,-247.5123 309.6732,-252.8484"/>
</g>
<!-- Node43 -->
<g id="node44" class="node">
<title>Node43</title>
<g id="a_node44"><a xlink:href="SpatialVector_8h.html" target="_top" xlink:title="iDynTree/Core/SpatialVector.h">
<polygon fill="none" stroke="#000000" points="325.9514,-403.5 325.9514,-422.5 486.9514,-422.5 486.9514,-403.5 325.9514,-403.5"/>
<text text-anchor="middle" x="406.4514" y="-410.5" font-family="FreeSans.ttf" font-size="10.00" fill="#000000">iDynTree/Core/SpatialVector.h</text>
</a>
</g>
</g>
<!-- Node42&#45;&gt;Node43 -->
<g id="edge77" class="edge">
<title>Node42&#45;&gt;Node43</title>
<path fill="none" stroke="#191970" d="M294.6563,-459.4554C318.9172,-449.374 350.587,-436.2139 374.0226,-426.4755"/>
<polygon fill="#191970" stroke="#191970" points="375.6252,-429.5997 383.5166,-422.5303 372.9391,-423.1356 375.6252,-429.5997"/>
</g>
<!-- Node43&#45;&gt;Node8 -->
<g id="edge78" class="edge">
<title>Node43&#45;&gt;Node8</title>
<path fill="none" stroke="#191970" d="M486.3823,-403.4918C584.1106,-391.8665 748.4282,-372.32 845.3271,-360.7933"/>
<polygon fill="#191970" stroke="#191970" points="845.8389,-364.2572 855.3555,-359.6004 845.012,-357.3062 845.8389,-364.2572"/>
</g>
<!-- Node43&#45;&gt;Node11 -->
<g id="edge80" class="edge">
<title>Node43&#45;&gt;Node11</title>
<path fill="none" stroke="#191970" d="M367.0644,-403.4346C293.2435,-384.3508 141.4514,-339.1362 141.4514,-290 141.4514,-290 141.4514,-290 141.4514,-178 141.4514,-125.544 296.9552,-91.7398 390.8197,-76.1132"/>
<polygon fill="#191970" stroke="#191970" points="391.52,-79.5453 400.8241,-74.4774 390.3904,-72.637 391.52,-79.5453"/>
</g>
<!-- Node43&#45;&gt;Node23 -->
<g id="edge83" class="edge">
<title>Node43&#45;&gt;Node23</title>
<path fill="none" stroke="#191970" d="M410.9019,-403.3521C419.9095,-382.9143 439.4514,-333.5554 439.4514,-290 439.4514,-290 439.4514,-290 439.4514,-234 439.4514,-201.2739 445.8206,-163.641 450.2584,-141.3923"/>
<polygon fill="#191970" stroke="#191970" points="453.6999,-142.0329 452.3022,-131.5307 446.8456,-140.6123 453.6999,-142.0329"/>
</g>
<!-- Node43&#45;&gt;Node25 -->
<g id="edge79" class="edge">
<title>Node43&#45;&gt;Node25</title>
<path fill="none" stroke="#191970" d="M486.9688,-409.7324C560.594,-405.0624 662.3312,-393.8279 691.4514,-367 707.1428,-352.5438 710.7997,-327.3773 711.2418,-309.7624"/>
<polygon fill="#191970" stroke="#191970" points="714.7414,-309.6751 711.1716,-299.6998 707.7416,-309.724 714.7414,-309.6751"/>
</g>
<!-- Node43&#45;&gt;Node26 -->
<g id="edge81" class="edge">
<title>Node43&#45;&gt;Node26</title>
<path fill="none" stroke="#191970" d="M402.2578,-403.3762C389.8783,-374.9669 353.3254,-291.0828 336.7686,-253.0871"/>
<polygon fill="#191970" stroke="#191970" points="339.8692,-251.4407 332.6657,-243.6714 333.4519,-254.237 339.8692,-251.4407"/>
</g>
<!-- Node43&#45;&gt;Node30 -->
<g id="edge82" class="edge">
<title>Node43&#45;&gt;Node30</title>
<path fill="none" stroke="#191970" d="M415.6928,-403.4832C444.424,-374.2254 535.4796,-283.9591 622.4514,-224 676.0233,-187.0671 744.5104,-153.6217 783.5318,-135.7147"/>
<polygon fill="#191970" stroke="#191970" points="785.1365,-138.8299 792.7906,-131.5042 782.2388,-132.4579 785.1365,-138.8299"/>
</g>
<!-- Node45 -->
<g id="node46" class="node">
<title>Node45</title>
<g id="a_node46"><a xlink:href="SpatialForceVector_8h.html" target="_top" xlink:title="iDynTree/Core/SpatialForce\lVector.h">
<polygon fill="none" stroke="#000000" points="369.4514,-459.5 369.4514,-489.5 517.4514,-489.5 517.4514,-459.5 369.4514,-459.5"/>
<text text-anchor="start" x="377.4514" y="-477.5" font-family="FreeSans.ttf" font-size="10.00" fill="#000000">iDynTree/Core/SpatialForce</text>
<text text-anchor="middle" x="443.4514" y="-466.5" font-family="FreeSans.ttf" font-size="10.00" fill="#000000">Vector.h</text>
</a>
</g>
</g>
<!-- Node44&#45;&gt;Node45 -->
<g id="edge85" class="edge">
<title>Node44&#45;&gt;Node45</title>
<path fill="none" stroke="#191970" d="M443.4514,-531.9005C443.4514,-523.5099 443.4514,-510.9451 443.4514,-499.7085"/>
<polygon fill="#191970" stroke="#191970" points="446.9515,-499.5217 443.4514,-489.5218 439.9515,-499.5218 446.9515,-499.5217"/>
</g>
<!-- Node45&#45;&gt;Node10 -->
<g id="edge86" class="edge">
<title>Node45&#45;&gt;Node10</title>
<path fill="none" stroke="#191970" d="M465.5628,-459.3604C476.797,-450.2809 489.338,-437.6588 495.4514,-423 498.8728,-414.796 497.2445,-411.7062 495.4514,-403 477.9811,-318.1764 477.3372,-287.5036 418.4514,-224 405.1253,-209.6289 386.2801,-198.95 369.4459,-191.5181"/>
<polygon fill="#191970" stroke="#191970" points="370.4007,-188.1246 359.8235,-187.5142 367.7115,-194.5874 370.4007,-188.1246"/>
</g>
<!-- Node45&#45;&gt;Node26 -->
<g id="edge87" class="edge">
<title>Node45&#45;&gt;Node26</title>
<path fill="none" stroke="#191970" d="M369.2573,-460.649C348.7373,-453.0395 328.7465,-441.2533 316.4514,-423 281.0096,-370.383 305.8116,-289.7127 320.1775,-253.1695"/>
<polygon fill="#191970" stroke="#191970" points="323.502,-254.2873 324.0588,-243.7071 317.0256,-251.6309 323.502,-254.2873"/>
</g>
<!-- Node45&#45;&gt;Node43 -->
<g id="edge88" class="edge">
<title>Node45&#45;&gt;Node43</title>
<path fill="none" stroke="#191970" d="M434.3053,-459.2977C429.2763,-450.9388 422.9959,-440.4997 417.6723,-431.6509"/>
<polygon fill="#191970" stroke="#191970" points="420.5299,-429.6114 412.3755,-422.8469 414.5317,-433.2201 420.5299,-429.6114"/>
</g>
<!-- Node46&#45;&gt;Node42 -->
<g id="edge90" class="edge">
<title>Node46&#45;&gt;Node42</title>
<path fill="none" stroke="#191970" d="M258.4514,-531.9005C258.4514,-523.5099 258.4514,-510.9451 258.4514,-499.7085"/>
<polygon fill="#191970" stroke="#191970" points="261.9515,-499.5217 258.4514,-489.5218 254.9515,-499.5218 261.9515,-499.5217"/>
</g>
<!-- Node47&#45;&gt;Node45 -->
<g id="edge92" class="edge">
<title>Node47&#45;&gt;Node45</title>
<path fill="none" stroke="#191970" d="M595.9483,-531.9005C569.1753,-521.8231 526.4065,-505.7247 492.9659,-493.1375"/>
<polygon fill="#191970" stroke="#191970" points="493.9519,-489.7689 483.3599,-489.5218 491.4859,-496.3202 493.9519,-489.7689"/>
</g>
<!-- Node48&#45;&gt;Node4 -->
<g id="edge98" class="edge">
<title>Node48&#45;&gt;Node4</title>
<path fill="none" stroke="#191970" d="M1202.2323,-649.3458C1207.7277,-629.3878 1219.4514,-582.0577 1219.4514,-541.5 1219.4514,-541.5 1219.4514,-541.5 1219.4514,-234 1219.4514,-187.4628 1170.5131,-153.828 1136.765,-136.1659"/>
<polygon fill="#191970" stroke="#191970" points="1138.209,-132.9746 1127.7024,-131.6105 1135.0651,-139.2289 1138.209,-132.9746"/>
</g>
<!-- Node48&#45;&gt;Node6 -->
<g id="edge99" class="edge">
<title>Node48&#45;&gt;Node6</title>
<path fill="none" stroke="#191970" d="M1224.8935,-649.3733C1249.6257,-640.0151 1287.3141,-625.7547 1314.3649,-615.5192"/>
<polygon fill="#191970" stroke="#191970" points="1315.6917,-618.7594 1323.806,-611.9469 1313.2144,-612.2124 1315.6917,-618.7594"/>
</g>
<!-- Node48&#45;&gt;Node7 -->
<g id="edge100" class="edge">
<title>Node48&#45;&gt;Node7</title>
<path fill="none" stroke="#191970" d="M1194.8072,-649.2037C1188.3395,-635.9527 1175.8911,-611.8118 1162.4514,-593 1116.3625,-528.4883 1050.5144,-461.0672 1019.2467,-430.2355"/>
<polygon fill="#191970" stroke="#191970" points="1021.3247,-427.3715 1011.7315,-422.8746 1016.4265,-432.3724 1021.3247,-427.3715"/>
</g>
<!-- Node48&#45;&gt;Node35 -->
<g id="edge101" class="edge">
<title>Node48&#45;&gt;Node35</title>
<path fill="none" stroke="#191970" d="M1167.9926,-649.3733C1137.4307,-640.021 1090.8687,-625.7725 1057.4253,-615.5385"/>
<polygon fill="#191970" stroke="#191970" points="1058.0862,-612.0806 1047.4997,-612.5011 1056.0378,-618.7742 1058.0862,-612.0806"/>
</g>
<!-- Node48&#45;&gt;Node49 -->
<g id="edge97" class="edge">
<title>Node48&#45;&gt;Node49</title>
<path fill="none" stroke="#191970" d="M1187.0841,-649.2455C1176.496,-640.8943 1161.045,-628.7076 1148.6621,-618.9408"/>
<polygon fill="#191970" stroke="#191970" points="1150.6961,-616.0875 1140.6769,-612.6427 1146.3611,-621.5837 1150.6961,-616.0875"/>
</g>
</g>
</svg>
