<?xml version="1.0" encoding="UTF-8" standalone="no"?>
<!DOCTYPE svg PUBLIC "-//W3C//DTD SVG 1.1//EN"
 "http://www.w3.org/Graphics/SVG/1.1/DTD/svg11.dtd">
<!-- Generated by graphviz version 2.40.1 (20161225.0304)
 -->
<!-- Title: SixAxisForceTorqueSensor.h Pages: 1 -->
<svg width="1780pt" height="856pt"
 viewBox="0.00 0.00 1780.39 856.00" xmlns="http://www.w3.org/2000/svg" xmlns:xlink="http://www.w3.org/1999/xlink">
<g id="graph0" class="graph" transform="scale(1 1) rotate(0) translate(4 852)">
<title>SixAxisForceTorqueSensor.h</title>
<!-- Node0 -->
<g id="node1" class="node">
<title>Node0</title>
<polygon fill="#bfbfbf" stroke="#000000" points="1313.8896,-828.5 1313.8896,-847.5 1465.8896,-847.5 1465.8896,-828.5 1313.8896,-828.5"/>
<text text-anchor="middle" x="1389.8896" y="-835.5" font-family="FreeSans.ttf" font-size="10.00" fill="#000000">SixAxisForceTorqueSensor.h</text>
</g>
<!-- Node1 -->
<g id="node2" class="node">
<title>Node1</title>
<g id="a_node2"><a xlink:href="Sensors_8h.html" target="_top" xlink:title="iDynTree/Sensors/Sensors.h">
<polygon fill="none" stroke="#000000" points="1314.3896,-772.5 1314.3896,-791.5 1465.3896,-791.5 1465.3896,-772.5 1314.3896,-772.5"/>
<text text-anchor="middle" x="1389.8896" y="-779.5" font-family="FreeSans.ttf" font-size="10.00" fill="#000000">iDynTree/Sensors/Sensors.h</text>
</a>
</g>
</g>
<!-- Node0&#45;&gt;Node1 -->
<g id="edge1" class="edge">
<title>Node0&#45;&gt;Node1</title>
<path fill="none" stroke="#191970" d="M1389.8896,-828.2455C1389.8896,-820.9382 1389.8896,-810.6944 1389.8896,-801.7046"/>
<polygon fill="#191970" stroke="#191970" points="1393.3897,-801.6426 1389.8896,-791.6427 1386.3897,-801.6427 1393.3897,-801.6426"/>
</g>
<!-- Node19 -->
<g id="node20" class="node">
<title>Node19</title>
<polygon fill="none" stroke="#bfbfbf" points="1624.3896,-604.5 1624.3896,-623.5 1671.3896,-623.5 1671.3896,-604.5 1624.3896,-604.5"/>
<text text-anchor="middle" x="1647.8896" y="-611.5" font-family="FreeSans.ttf" font-size="10.00" fill="#000000">vector</text>
</g>
<!-- Node0&#45;&gt;Node19 -->
<g id="edge108" class="edge">
<title>Node0&#45;&gt;Node19</title>
<path fill="none" stroke="#191970" d="M1434.2433,-828.4377C1499.8701,-811.5458 1620.0167,-769.4055 1665.8896,-680 1673.5683,-665.0344 1667.2419,-646.4278 1660.0562,-632.789"/>
<polygon fill="#191970" stroke="#191970" points="1662.9145,-630.742 1654.86,-623.859 1656.8643,-634.2625 1662.9145,-630.742"/>
</g>
<!-- Node46 -->
<g id="node47" class="node">
<title>Node46</title>
<g id="a_node47"><a xlink:href="LinkState_8h.html" target="_top" xlink:title="iDynTree/Model/LinkState.h">
<polygon fill="none" stroke="#000000" points="796.3896,-660.5 796.3896,-679.5 945.3896,-679.5 945.3896,-660.5 796.3896,-660.5"/>
<text text-anchor="middle" x="870.8896" y="-667.5" font-family="FreeSans.ttf" font-size="10.00" fill="#000000">iDynTree/Model/LinkState.h</text>
</a>
</g>
</g>
<!-- Node0&#45;&gt;Node46 -->
<g id="edge98" class="edge">
<title>Node0&#45;&gt;Node46</title>
<path fill="none" stroke="#191970" d="M1322.5157,-828.4861C1238.3905,-815.0452 1091.2657,-786.3408 973.8896,-736 942.9448,-722.7283 910.8249,-700.5821 890.8533,-685.6433"/>
<polygon fill="#191970" stroke="#191970" points="892.9059,-682.8071 882.8283,-679.5369 888.667,-688.3778 892.9059,-682.8071"/>
</g>
<!-- Node2 -->
<g id="node3" class="node">
<title>Node2</title>
<g id="a_node3"><a xlink:href="GeomVector3_8h.html" target="_top" xlink:title="iDynTree/Core/GeomVector3.h">
<polygon fill="none" stroke="#000000" points="573.3896,-230 573.3896,-249 736.3896,-249 736.3896,-230 573.3896,-230"/>
<text text-anchor="middle" x="654.8896" y="-237" font-family="FreeSans.ttf" font-size="10.00" fill="#000000">iDynTree/Core/GeomVector3.h</text>
</a>
</g>
</g>
<!-- Node1&#45;&gt;Node2 -->
<g id="edge2" class="edge">
<title>Node1&#45;&gt;Node2</title>
<path fill="none" stroke="#191970" d="M1314.279,-779.8934C1024.6344,-771.3337 1.8896,-736.4072 1.8896,-670 1.8896,-670 1.8896,-670 1.8896,-614 1.8896,-578.7513 -5.6688,-560.1759 20.8896,-537 77.8027,-487.3353 286.9832,-524.1333 358.8896,-501 416.3004,-482.5302 429.7322,-471.5941 476.8896,-434 546.8403,-378.2349 613.7287,-294.2562 641.4617,-257.6431"/>
<polygon fill="#191970" stroke="#191970" points="644.4439,-259.5003 647.6468,-249.4012 638.8451,-255.2986 644.4439,-259.5003"/>
</g>
<!-- Node11 -->
<g id="node12" class="node">
<title>Node11</title>
<polygon fill="none" stroke="#bfbfbf" points="1719.3896,-.5 1719.3896,-19.5 1772.3896,-19.5 1772.3896,-.5 1719.3896,-.5"/>
<text text-anchor="middle" x="1745.8896" y="-7.5" font-family="FreeSans.ttf" font-size="10.00" fill="#000000">iterator</text>
</g>
<!-- Node1&#45;&gt;Node11 -->
<g id="edge24" class="edge">
<title>Node1&#45;&gt;Node11</title>
<path fill="none" stroke="#191970" d="M1465.6177,-774.6684C1574.385,-762.0074 1761.8896,-731.2924 1761.8896,-670 1761.8896,-670 1761.8896,-670 1761.8896,-122 1761.8896,-89.2342 1755.0957,-51.6134 1750.3621,-29.3778"/>
<polygon fill="#191970" stroke="#191970" points="1753.7594,-28.5307 1748.182,-19.5228 1746.9247,-30.0428 1753.7594,-28.5307"/>
</g>
<!-- Node16 -->
<g id="node17" class="node">
<title>Node16</title>
<polygon fill="none" stroke="#bfbfbf" points="1182.8896,-112.5 1182.8896,-131.5 1226.8896,-131.5 1226.8896,-112.5 1182.8896,-112.5"/>
<text text-anchor="middle" x="1204.8896" y="-119.5" font-family="FreeSans.ttf" font-size="10.00" fill="#000000">string</text>
</g>
<!-- Node1&#45;&gt;Node16 -->
<g id="edge22" class="edge">
<title>Node1&#45;&gt;Node16</title>
<path fill="none" stroke="#191970" d="M1314.2765,-776.3982C1197.8269,-765.6629 987.8896,-737.016 987.8896,-670 987.8896,-670 987.8896,-670 987.8896,-552.5 987.8896,-496.32 960.6816,-487.6118 943.8896,-434 919.3382,-355.6145 908.1932,-336.4917 897.8896,-255 896.1613,-241.331 889.8281,-235.1732 897.8896,-224 914.5631,-200.8906 1097.7536,-150.3144 1172.9557,-130.3468"/>
<polygon fill="#191970" stroke="#191970" points="1174.0485,-133.6782 1182.8218,-127.7385 1172.2593,-126.9108 1174.0485,-133.6782"/>
</g>
<!-- Node1&#45;&gt;Node19 -->
<g id="edge23" class="edge">
<title>Node1&#45;&gt;Node19</title>
<path fill="none" stroke="#191970" d="M1428.5435,-772.454C1494.2648,-755.3549 1623.1856,-717.7483 1648.8896,-680 1658.0384,-666.5643 1656.7419,-647.7553 1653.7664,-633.6523"/>
<polygon fill="#191970" stroke="#191970" points="1657.1576,-632.7861 1651.309,-623.9518 1650.372,-634.5052 1657.1576,-632.7861"/>
</g>
<!-- Node20 -->
<g id="node21" class="node">
<title>Node20</title>
<g id="a_node21"><a xlink:href="VectorDynSize_8h.html" target="_top" xlink:title="iDynTree/Core/VectorDynSize.h">
<polygon fill="none" stroke="#000000" points="1522.3896,-168.5 1522.3896,-187.5 1689.3896,-187.5 1689.3896,-168.5 1522.3896,-168.5"/>
<text text-anchor="middle" x="1605.8896" y="-175.5" font-family="FreeSans.ttf" font-size="10.00" fill="#000000">iDynTree/Core/VectorDynSize.h</text>
</a>
</g>
</g>
<!-- Node1&#45;&gt;Node20 -->
<g id="edge25" class="edge">
<title>Node1&#45;&gt;Node20</title>
<path fill="none" stroke="#191970" d="M1462.7746,-772.4915C1561.0505,-757.5936 1723.8896,-724.6612 1723.8896,-670 1723.8896,-670 1723.8896,-670 1723.8896,-301 1723.8896,-249.795 1669.9782,-211.6158 1635.0357,-192.2478"/>
<polygon fill="#191970" stroke="#191970" points="1636.6435,-189.1387 1626.1745,-187.5103 1633.3431,-195.3118 1636.6435,-189.1387"/>
</g>
<!-- Node21 -->
<g id="node22" class="node">
<title>Node21</title>
<g id="a_node22"><a xlink:href="Model_8h.html" target="_top" xlink:title="iDynTree/Model/Model.h">
<polygon fill="none" stroke="#000000" points="1323.3896,-716.5 1323.3896,-735.5 1456.3896,-735.5 1456.3896,-716.5 1323.3896,-716.5"/>
<text text-anchor="middle" x="1389.8896" y="-723.5" font-family="FreeSans.ttf" font-size="10.00" fill="#000000">iDynTree/Model/Model.h</text>
</a>
</g>
</g>
<!-- Node1&#45;&gt;Node21 -->
<g id="edge28" class="edge">
<title>Node1&#45;&gt;Node21</title>
<path fill="none" stroke="#191970" d="M1389.8896,-772.2455C1389.8896,-764.9382 1389.8896,-754.6944 1389.8896,-745.7046"/>
<polygon fill="#191970" stroke="#191970" points="1393.3897,-745.6426 1389.8896,-735.6427 1386.3897,-745.6427 1393.3897,-745.6426"/>
</g>
<!-- Node23 -->
<g id="node24" class="node">
<title>Node23</title>
<g id="a_node24"><a xlink:href="Indices_8h.html" target="_top" xlink:title="iDynTree/Model/Indices.h">
<polygon fill="none" stroke="#000000" points="1237.8896,-604.5 1237.8896,-623.5 1375.8896,-623.5 1375.8896,-604.5 1237.8896,-604.5"/>
<text text-anchor="middle" x="1306.8896" y="-611.5" font-family="FreeSans.ttf" font-size="10.00" fill="#000000">iDynTree/Model/Indices.h</text>
</a>
</g>
</g>
<!-- Node1&#45;&gt;Node23 -->
<g id="edge97" class="edge">
<title>Node1&#45;&gt;Node23</title>
<path fill="none" stroke="#191970" d="M1338.8386,-772.4719C1259.6791,-756.5434 1113.2455,-722.0732 1082.8896,-680 1077.6886,-672.7915 1077.2718,-666.8886 1082.8896,-660 1101.115,-637.6515 1170.7929,-625.854 1227.6564,-619.8296"/>
<polygon fill="#191970" stroke="#191970" points="1228.1508,-623.2975 1237.7464,-618.8059 1227.4442,-616.3333 1228.1508,-623.2975"/>
</g>
<!-- Node3 -->
<g id="node4" class="node">
<title>Node3</title>
<g id="a_node4"><a xlink:href="VectorFixSize_8h.html" target="_top" xlink:title="iDynTree/Core/VectorFixSize.h">
<polygon fill="none" stroke="#000000" points="764.3896,-168.5 764.3896,-187.5 925.3896,-187.5 925.3896,-168.5 764.3896,-168.5"/>
<text text-anchor="middle" x="844.8896" y="-175.5" font-family="FreeSans.ttf" font-size="10.00" fill="#000000">iDynTree/Core/VectorFixSize.h</text>
</a>
</g>
</g>
<!-- Node2&#45;&gt;Node3 -->
<g id="edge3" class="edge">
<title>Node2&#45;&gt;Node3</title>
<path fill="none" stroke="#191970" d="M684.5771,-229.8906C717.2042,-219.3298 769.7522,-202.3208 805.7321,-190.6747"/>
<polygon fill="#191970" stroke="#191970" points="806.9744,-193.9514 815.4106,-187.5419 804.8187,-187.2916 806.9744,-193.9514"/>
</g>
<!-- Node4 -->
<g id="node5" class="node">
<title>Node4</title>
<g id="a_node5"><a xlink:href="Utils_8h.html" target="_top" xlink:title="iDynTree/Core/Utils.h">
<polygon fill="none" stroke="#000000" points="751.3896,-56.5 751.3896,-75.5 870.3896,-75.5 870.3896,-56.5 751.3896,-56.5"/>
<text text-anchor="middle" x="810.8896" y="-63.5" font-family="FreeSans.ttf" font-size="10.00" fill="#000000">iDynTree/Core/Utils.h</text>
</a>
</g>
</g>
<!-- Node3&#45;&gt;Node4 -->
<g id="edge4" class="edge">
<title>Node3&#45;&gt;Node4</title>
<path fill="none" stroke="#191970" d="M842.4151,-168.0991C839.1238,-155.1361 833.0065,-131.7397 826.8896,-112 824.1444,-103.1411 820.8143,-93.4288 817.9045,-85.2208"/>
<polygon fill="#191970" stroke="#191970" points="821.1965,-84.0318 814.5192,-75.806 814.6093,-86.4004 821.1965,-84.0318"/>
</g>
<!-- Node5 -->
<g id="node6" class="node">
<title>Node5</title>
<polygon fill="none" stroke="#bfbfbf" points="1108.3896,-.5 1108.3896,-19.5 1161.3896,-19.5 1161.3896,-.5 1108.3896,-.5"/>
<text text-anchor="middle" x="1134.8896" y="-7.5" font-family="FreeSans.ttf" font-size="10.00" fill="#000000">cstddef</text>
</g>
<!-- Node3&#45;&gt;Node5 -->
<g id="edge20" class="edge">
<title>Node3&#45;&gt;Node5</title>
<path fill="none" stroke="#191970" d="M913.1089,-168.4639C979.8974,-158.5837 1073.5318,-143.0674 1086.8896,-132 1118.1605,-106.0911 1129.1583,-57.037 1132.9523,-29.6843"/>
<polygon fill="#191970" stroke="#191970" points="1136.4302,-30.077 1134.1443,-19.7317 1129.4798,-29.2445 1136.4302,-30.077"/>
</g>
<!-- Node7 -->
<g id="node8" class="node">
<title>Node7</title>
<g id="a_node8"><a xlink:href="Span_8h.html" target="_top" xlink:title="iDynTree/Core/Span.h">
<polygon fill="none" stroke="#000000" points="1369.3896,-56.5 1369.3896,-75.5 1490.3896,-75.5 1490.3896,-56.5 1369.3896,-56.5"/>
<text text-anchor="middle" x="1429.8896" y="-63.5" font-family="FreeSans.ttf" font-size="10.00" fill="#000000">iDynTree/Core/Span.h</text>
</a>
</g>
</g>
<!-- Node3&#45;&gt;Node7 -->
<g id="edge7" class="edge">
<title>Node3&#45;&gt;Node7</title>
<path fill="none" stroke="#191970" d="M916.9426,-168.4832C987.6418,-158.7577 1090.2936,-143.4924 1128.8896,-132 1149.8658,-125.7541 1152.9679,-118.4262 1173.8896,-112 1235.0975,-93.1997 1307.0405,-81.1134 1359.0478,-74.0714"/>
<polygon fill="#191970" stroke="#191970" points="1359.7207,-77.5129 1369.1744,-72.7297 1358.8013,-70.5735 1359.7207,-77.5129"/>
</g>
<!-- Node8 -->
<g id="node9" class="node">
<title>Node8</title>
<polygon fill="none" stroke="#bfbfbf" points="907.8896,-.5 907.8896,-19.5 959.8896,-19.5 959.8896,-.5 907.8896,-.5"/>
<text text-anchor="middle" x="933.8896" y="-7.5" font-family="FreeSans.ttf" font-size="10.00" fill="#000000">cassert</text>
</g>
<!-- Node3&#45;&gt;Node8 -->
<g id="edge19" class="edge">
<title>Node3&#45;&gt;Node8</title>
<path fill="none" stroke="#191970" d="M849.9296,-168.4862C864.1812,-141.5845 904.9649,-64.5994 923.9474,-28.7673"/>
<polygon fill="#191970" stroke="#191970" points="927.0946,-30.303 928.6832,-19.8279 920.909,-27.026 927.0946,-30.303"/>
</g>
<!-- Node3&#45;&gt;Node16 -->
<g id="edge17" class="edge">
<title>Node3&#45;&gt;Node16</title>
<path fill="none" stroke="#191970" d="M925.6689,-169.2796C991.2927,-161.5287 1086.0531,-148.8204 1167.8896,-132 1169.5476,-131.6592 1171.2414,-131.2874 1172.9475,-130.8942"/>
<polygon fill="#191970" stroke="#191970" points="1173.8297,-134.2815 1182.6905,-128.4732 1172.1416,-127.4881 1173.8297,-134.2815"/>
</g>
<!-- Node17 -->
<g id="node18" class="node">
<title>Node17</title>
<polygon fill="none" stroke="#bfbfbf" points="693.8896,-112.5 693.8896,-131.5 749.8896,-131.5 749.8896,-112.5 693.8896,-112.5"/>
<text text-anchor="middle" x="721.8896" y="-119.5" font-family="FreeSans.ttf" font-size="10.00" fill="#000000">sstream</text>
</g>
<!-- Node3&#45;&gt;Node17 -->
<g id="edge18" class="edge">
<title>Node3&#45;&gt;Node17</title>
<path fill="none" stroke="#191970" d="M823.7451,-168.3733C804.0004,-159.3838 774.3197,-145.8706 752.0841,-135.7471"/>
<polygon fill="#191970" stroke="#191970" points="753.3095,-132.4594 742.7581,-131.5011 750.409,-138.8302 753.3095,-132.4594"/>
</g>
<!-- Node18 -->
<g id="node19" class="node">
<title>Node18</title>
<polygon fill="none" stroke="#bfbfbf" points="767.8896,-112.5 767.8896,-131.5 817.8896,-131.5 817.8896,-112.5 767.8896,-112.5"/>
<text text-anchor="middle" x="792.8896" y="-119.5" font-family="FreeSans.ttf" font-size="10.00" fill="#000000">cstring</text>
</g>
<!-- Node3&#45;&gt;Node18 -->
<g id="edge21" class="edge">
<title>Node3&#45;&gt;Node18</title>
<path fill="none" stroke="#191970" d="M835.8319,-168.2455C828.3754,-160.2155 817.6262,-148.6394 808.7479,-139.0781"/>
<polygon fill="#191970" stroke="#191970" points="811.2128,-136.589 801.8435,-131.6427 806.0833,-141.3522 811.2128,-136.589"/>
</g>
<!-- Node4&#45;&gt;Node5 -->
<g id="edge5" class="edge">
<title>Node4&#45;&gt;Node5</title>
<path fill="none" stroke="#191970" d="M866.219,-56.4369C932.4068,-44.997 1041.3597,-26.1657 1098.042,-16.3687"/>
<polygon fill="#191970" stroke="#191970" points="1098.7377,-19.8005 1107.9954,-14.6484 1097.5454,-12.9027 1098.7377,-19.8005"/>
</g>
<!-- Node6 -->
<g id="node7" class="node">
<title>Node6</title>
<polygon fill="none" stroke="#bfbfbf" points="770.8896,-.5 770.8896,-19.5 850.8896,-19.5 850.8896,-.5 770.8896,-.5"/>
<text text-anchor="middle" x="810.8896" y="-7.5" font-family="FreeSans.ttf" font-size="10.00" fill="#000000">CoreExport.h</text>
</g>
<!-- Node4&#45;&gt;Node6 -->
<g id="edge6" class="edge">
<title>Node4&#45;&gt;Node6</title>
<path fill="none" stroke="#191970" d="M810.8896,-56.2455C810.8896,-48.9382 810.8896,-38.6944 810.8896,-29.7046"/>
<polygon fill="#191970" stroke="#191970" points="814.3897,-29.6426 810.8896,-19.6427 807.3897,-29.6427 814.3897,-29.6426"/>
</g>
<!-- Node7&#45;&gt;Node5 -->
<g id="edge11" class="edge">
<title>Node7&#45;&gt;Node5</title>
<path fill="none" stroke="#191970" d="M1379.5125,-56.4369C1320.4246,-45.2202 1223.9039,-26.8976 1171.5134,-16.9523"/>
<polygon fill="#191970" stroke="#191970" points="1172.1252,-13.506 1161.6479,-15.0795 1170.8196,-20.3832 1172.1252,-13.506"/>
</g>
<!-- Node7&#45;&gt;Node8 -->
<g id="edge8" class="edge">
<title>Node7&#45;&gt;Node8</title>
<path fill="none" stroke="#191970" d="M1369.0703,-59.1333C1264.6311,-47.3418 1054.3076,-23.5956 970.0276,-14.0801"/>
<polygon fill="#191970" stroke="#191970" points="970.253,-10.5834 959.9235,-12.9393 969.4676,-17.5392 970.253,-10.5834"/>
</g>
<!-- Node9 -->
<g id="node10" class="node">
<title>Node9</title>
<polygon fill="none" stroke="#bfbfbf" points="1397.8896,-.5 1397.8896,-19.5 1461.8896,-19.5 1461.8896,-.5 1397.8896,-.5"/>
<text text-anchor="middle" x="1429.8896" y="-7.5" font-family="FreeSans.ttf" font-size="10.00" fill="#000000">algorithm</text>
</g>
<!-- Node7&#45;&gt;Node9 -->
<g id="edge9" class="edge">
<title>Node7&#45;&gt;Node9</title>
<path fill="none" stroke="#191970" d="M1429.8896,-56.2455C1429.8896,-48.9382 1429.8896,-38.6944 1429.8896,-29.7046"/>
<polygon fill="#191970" stroke="#191970" points="1433.3897,-29.6426 1429.8896,-19.6427 1426.3897,-29.6427 1433.3897,-29.6426"/>
</g>
<!-- Node10 -->
<g id="node11" class="node">
<title>Node10</title>
<polygon fill="none" stroke="#bfbfbf" points="1479.8896,-.5 1479.8896,-19.5 1521.8896,-19.5 1521.8896,-.5 1479.8896,-.5"/>
<text text-anchor="middle" x="1500.8896" y="-7.5" font-family="FreeSans.ttf" font-size="10.00" fill="#000000">array</text>
</g>
<!-- Node7&#45;&gt;Node10 -->
<g id="edge10" class="edge">
<title>Node7&#45;&gt;Node10</title>
<path fill="none" stroke="#191970" d="M1442.2568,-56.2455C1452.845,-47.8943 1468.296,-35.7076 1480.6789,-25.9408"/>
<polygon fill="#191970" stroke="#191970" points="1482.9799,-28.5837 1488.6641,-19.6427 1478.6449,-23.0875 1482.9799,-28.5837"/>
</g>
<!-- Node7&#45;&gt;Node11 -->
<g id="edge12" class="edge">
<title>Node7&#45;&gt;Node11</title>
<path fill="none" stroke="#191970" d="M1483.8529,-56.4369C1548.1069,-45.0501 1653.6838,-26.3403 1709.179,-16.5057"/>
<polygon fill="#191970" stroke="#191970" points="1710.0245,-19.9105 1719.2603,-14.7191 1708.8029,-13.0179 1710.0245,-19.9105"/>
</g>
<!-- Node12 -->
<g id="node13" class="node">
<title>Node12</title>
<polygon fill="none" stroke="#bfbfbf" points="1539.8896,-.5 1539.8896,-19.5 1583.8896,-19.5 1583.8896,-.5 1539.8896,-.5"/>
<text text-anchor="middle" x="1561.8896" y="-7.5" font-family="FreeSans.ttf" font-size="10.00" fill="#000000">limits</text>
</g>
<!-- Node7&#45;&gt;Node12 -->
<g id="edge13" class="edge">
<title>Node7&#45;&gt;Node12</title>
<path fill="none" stroke="#191970" d="M1452.5812,-56.3733C1473.9607,-47.3032 1506.1953,-33.6279 1530.1258,-23.4755"/>
<polygon fill="#191970" stroke="#191970" points="1531.6552,-26.6287 1539.4941,-19.5011 1528.9213,-20.1846 1531.6552,-26.6287"/>
</g>
<!-- Node13 -->
<g id="node14" class="node">
<title>Node13</title>
<polygon fill="none" stroke="#bfbfbf" points="1602.3896,-.5 1602.3896,-19.5 1667.3896,-19.5 1667.3896,-.5 1602.3896,-.5"/>
<text text-anchor="middle" x="1634.8896" y="-7.5" font-family="FreeSans.ttf" font-size="10.00" fill="#000000">stdexcept</text>
</g>
<!-- Node7&#45;&gt;Node13 -->
<g id="edge14" class="edge">
<title>Node7&#45;&gt;Node13</title>
<path fill="none" stroke="#191970" d="M1465.1303,-56.3733C1500.4395,-46.7278 1554.8137,-31.8744 1592.4688,-21.5881"/>
<polygon fill="#191970" stroke="#191970" points="1593.4133,-24.9584 1602.1375,-18.9469 1591.5686,-18.2059 1593.4133,-24.9584"/>
</g>
<!-- Node14 -->
<g id="node15" class="node">
<title>Node14</title>
<polygon fill="none" stroke="#bfbfbf" points="1247.3896,-.5 1247.3896,-19.5 1316.3896,-19.5 1316.3896,-.5 1247.3896,-.5"/>
<text text-anchor="middle" x="1281.8896" y="-7.5" font-family="FreeSans.ttf" font-size="10.00" fill="#000000">type_traits</text>
</g>
<!-- Node7&#45;&gt;Node14 -->
<g id="edge15" class="edge">
<title>Node7&#45;&gt;Node14</title>
<path fill="none" stroke="#191970" d="M1404.4475,-56.3733C1380.1569,-47.1822 1343.3688,-33.2624 1316.4353,-23.0713"/>
<polygon fill="#191970" stroke="#191970" points="1317.5912,-19.7666 1306.9997,-19.5011 1315.1139,-26.3136 1317.5912,-19.7666"/>
</g>
<!-- Node15 -->
<g id="node16" class="node">
<title>Node15</title>
<polygon fill="none" stroke="#bfbfbf" points="1334.3896,-.5 1334.3896,-19.5 1379.3896,-19.5 1379.3896,-.5 1334.3896,-.5"/>
<text text-anchor="middle" x="1356.8896" y="-7.5" font-family="FreeSans.ttf" font-size="10.00" fill="#000000">utility</text>
</g>
<!-- Node7&#45;&gt;Node15 -->
<g id="edge16" class="edge">
<title>Node7&#45;&gt;Node15</title>
<path fill="none" stroke="#191970" d="M1417.174,-56.2455C1406.2875,-47.8943 1390.4013,-35.7076 1377.6696,-25.9408"/>
<polygon fill="#191970" stroke="#191970" points="1379.5242,-22.9523 1369.4595,-19.6427 1375.2635,-28.5063 1379.5242,-22.9523"/>
</g>
<!-- Node20&#45;&gt;Node7 -->
<g id="edge26" class="edge">
<title>Node20&#45;&gt;Node7</title>
<path fill="none" stroke="#191970" d="M1590.8839,-168.4509C1560.2303,-148.9441 1490.2218,-104.3932 1453.4467,-80.9909"/>
<polygon fill="#191970" stroke="#191970" points="1455.173,-77.9409 1444.8573,-75.5249 1451.4148,-83.8465 1455.173,-77.9409"/>
</g>
<!-- Node20&#45;&gt;Node16 -->
<g id="edge27" class="edge">
<title>Node20&#45;&gt;Node16</title>
<path fill="none" stroke="#191970" d="M1537.4109,-168.4369C1449.8979,-156.2156 1301.9791,-135.5586 1237.0618,-126.4929"/>
<polygon fill="#191970" stroke="#191970" points="1237.4044,-123.0068 1227.0164,-125.09 1236.4361,-129.9396 1237.4044,-123.0068"/>
</g>
<!-- Node21&#45;&gt;Node19 -->
<g id="edge96" class="edge">
<title>Node21&#45;&gt;Node19</title>
<path fill="none" stroke="#191970" d="M1456.4363,-720.923C1518.1709,-714.8775 1604.1289,-702.6233 1628.8896,-680 1641.6562,-668.3354 1646.0557,-648.7045 1647.4709,-633.8773"/>
<polygon fill="#191970" stroke="#191970" points="1650.977,-633.8723 1648.0606,-623.6868 1643.9887,-633.4678 1650.977,-633.8723"/>
</g>
<!-- Node22 -->
<g id="node23" class="node">
<title>Node22</title>
<g id="a_node23"><a xlink:href="IJoint_8h.html" target="_top" xlink:title="iDynTree/Model/IJoint.h">
<polygon fill="none" stroke="#000000" points="1233.8896,-660.5 1233.8896,-679.5 1361.8896,-679.5 1361.8896,-660.5 1233.8896,-660.5"/>
<text text-anchor="middle" x="1297.8896" y="-667.5" font-family="FreeSans.ttf" font-size="10.00" fill="#000000">iDynTree/Model/IJoint.h</text>
</a>
</g>
</g>
<!-- Node21&#45;&gt;Node22 -->
<g id="edge29" class="edge">
<title>Node21&#45;&gt;Node22</title>
<path fill="none" stroke="#191970" d="M1373.8644,-716.2455C1359.7488,-707.6534 1338.9632,-695.0014 1322.6997,-685.1018"/>
<polygon fill="#191970" stroke="#191970" points="1324.093,-681.8525 1313.7311,-679.6427 1320.4533,-687.8319 1324.093,-681.8525"/>
</g>
<!-- Node21&#45;&gt;Node23 -->
<g id="edge88" class="edge">
<title>Node21&#45;&gt;Node23</title>
<path fill="none" stroke="#191970" d="M1389.0782,-716.184C1387.5263,-702.4799 1383.1168,-677.3482 1370.8896,-660 1361.8186,-647.1299 1347.9715,-636.5359 1335.4747,-628.772"/>
<polygon fill="#191970" stroke="#191970" points="1337.0979,-625.6665 1326.7013,-623.6268 1333.5567,-631.7048 1337.0979,-625.6665"/>
</g>
<!-- Node25 -->
<g id="node26" class="node">
<title>Node25</title>
<g id="a_node26"><a xlink:href="Link_8h.html" target="_top" xlink:title="iDynTree/Model/Link.h">
<polygon fill="none" stroke="#000000" points="1091.8896,-660.5 1091.8896,-679.5 1215.8896,-679.5 1215.8896,-660.5 1091.8896,-660.5"/>
<text text-anchor="middle" x="1153.8896" y="-667.5" font-family="FreeSans.ttf" font-size="10.00" fill="#000000">iDynTree/Model/Link.h</text>
</a>
</g>
</g>
<!-- Node21&#45;&gt;Node25 -->
<g id="edge34" class="edge">
<title>Node21&#45;&gt;Node25</title>
<path fill="none" stroke="#191970" d="M1349.5879,-716.4369C1309.2832,-706.8731 1247.2075,-692.1432 1203.8078,-681.845"/>
<polygon fill="#191970" stroke="#191970" points="1204.563,-678.4271 1194.0251,-679.5237 1202.9468,-685.238 1204.563,-678.4271"/>
</g>
<!-- Node43 -->
<g id="node44" class="node">
<title>Node43</title>
<g id="a_node44"><a xlink:href="Transform_8h.html" target="_top" xlink:title="iDynTree/Core/Transform.h">
<polygon fill="none" stroke="#000000" points="952.8896,-414.5 952.8896,-433.5 1098.8896,-433.5 1098.8896,-414.5 952.8896,-414.5"/>
<text text-anchor="middle" x="1025.8896" y="-421.5" font-family="FreeSans.ttf" font-size="10.00" fill="#000000">iDynTree/Core/Transform.h</text>
</a>
</g>
</g>
<!-- Node21&#45;&gt;Node43 -->
<g id="edge83" class="edge">
<title>Node21&#45;&gt;Node43</title>
<path fill="none" stroke="#191970" d="M1323.155,-721.426C1245.5872,-715.176 1123.0713,-702.1388 1082.8896,-680 1048.9426,-661.2964 1025.8896,-652.7585 1025.8896,-614 1025.8896,-614 1025.8896,-614 1025.8896,-552.5 1025.8896,-514.0012 1025.8896,-469.0145 1025.8896,-443.7812"/>
<polygon fill="#191970" stroke="#191970" points="1029.3897,-443.6718 1025.8896,-433.6719 1022.3897,-443.6719 1029.3897,-443.6718"/>
</g>
<!-- Node44 -->
<g id="node45" class="node">
<title>Node44</title>
<g id="a_node45"><a xlink:href="SolidShapes_8h.html" target="_top" xlink:title="iDynTree/Model/SolidShapes.h">
<polygon fill="none" stroke="#000000" points="1456.3896,-660.5 1456.3896,-679.5 1619.3896,-679.5 1619.3896,-660.5 1456.3896,-660.5"/>
<text text-anchor="middle" x="1537.8896" y="-667.5" font-family="FreeSans.ttf" font-size="10.00" fill="#000000">iDynTree/Model/SolidShapes.h</text>
</a>
</g>
</g>
<!-- Node21&#45;&gt;Node44 -->
<g id="edge89" class="edge">
<title>Node21&#45;&gt;Node44</title>
<path fill="none" stroke="#191970" d="M1415.3317,-716.3733C1439.6222,-707.1822 1476.4104,-693.2624 1503.3439,-683.0713"/>
<polygon fill="#191970" stroke="#191970" points="1504.6653,-686.3136 1512.7795,-679.5011 1502.188,-679.7666 1504.6653,-686.3136"/>
</g>
<!-- Node45 -->
<g id="node46" class="node">
<title>Node45</title>
<polygon fill="none" stroke="#bfbfbf" points="1410.3896,-604.5 1410.3896,-623.5 1459.3896,-623.5 1459.3896,-604.5 1410.3896,-604.5"/>
<text text-anchor="middle" x="1434.8896" y="-611.5" font-family="FreeSans.ttf" font-size="10.00" fill="#000000">cstdlib</text>
</g>
<!-- Node21&#45;&gt;Node45 -->
<g id="edge95" class="edge">
<title>Node21&#45;&gt;Node45</title>
<path fill="none" stroke="#191970" d="M1393.7263,-716.4509C1401.1321,-698.0186 1417.5222,-657.2254 1427.2384,-633.043"/>
<polygon fill="#191970" stroke="#191970" points="1430.582,-634.1088 1431.0626,-623.5249 1424.0867,-631.499 1430.582,-634.1088"/>
</g>
<!-- Node22&#45;&gt;Node23 -->
<g id="edge30" class="edge">
<title>Node22&#45;&gt;Node23</title>
<path fill="none" stroke="#191970" d="M1299.4573,-660.2455C1300.6317,-652.9382 1302.278,-642.6944 1303.7228,-633.7046"/>
<polygon fill="#191970" stroke="#191970" points="1307.2087,-634.0714 1305.3399,-623.6427 1300.2974,-632.9606 1307.2087,-634.0714"/>
</g>
<!-- Node23&#45;&gt;Node5 -->
<g id="edge31" class="edge">
<title>Node23&#45;&gt;Node5</title>
<path fill="none" stroke="#191970" d="M1336.7607,-604.3683C1356.821,-596.8116 1382.947,-584.7534 1401.8896,-568 1458.9586,-517.5265 1494.8896,-500.1869 1494.8896,-424 1494.8896,-424 1494.8896,-424 1494.8896,-239.5 1494.8896,-162.6107 1258.4374,-59.6113 1168.7933,-23.3249"/>
<polygon fill="#191970" stroke="#191970" points="1169.9347,-20.0116 1159.3508,-19.5302 1167.3244,-26.5068 1169.9347,-20.0116"/>
</g>
<!-- Node23&#45;&gt;Node16 -->
<g id="edge32" class="edge">
<title>Node23&#45;&gt;Node16</title>
<path fill="none" stroke="#191970" d="M1324.8843,-604.2862C1356.5441,-585.7337 1418.8896,-542.0237 1418.8896,-485.5 1418.8896,-485.5 1418.8896,-485.5 1418.8896,-239.5 1418.8896,-157.5328 1296.767,-132.3524 1237.0307,-124.9384"/>
<polygon fill="#191970" stroke="#191970" points="1237.3189,-121.4486 1226.9853,-123.7867 1236.5215,-128.4031 1237.3189,-121.4486"/>
</g>
<!-- Node24 -->
<g id="node25" class="node">
<title>Node24</title>
<polygon fill="none" stroke="#bfbfbf" points="1263.8896,-543 1263.8896,-562 1349.8896,-562 1349.8896,-543 1263.8896,-543"/>
<text text-anchor="middle" x="1306.8896" y="-550" font-family="FreeSans.ttf" font-size="10.00" fill="#000000">ModelExport.h</text>
</g>
<!-- Node23&#45;&gt;Node24 -->
<g id="edge33" class="edge">
<title>Node23&#45;&gt;Node24</title>
<path fill="none" stroke="#191970" d="M1306.8896,-604.3906C1306.8896,-595.8657 1306.8896,-583.1392 1306.8896,-572.4235"/>
<polygon fill="#191970" stroke="#191970" points="1310.3897,-572.2448 1306.8896,-562.2449 1303.3897,-572.2449 1310.3897,-572.2448"/>
</g>
<!-- Node25&#45;&gt;Node23 -->
<g id="edge82" class="edge">
<title>Node25&#45;&gt;Node23</title>
<path fill="none" stroke="#191970" d="M1180.1912,-660.3733C1205.3024,-651.1822 1243.3334,-637.2624 1271.1768,-627.0713"/>
<polygon fill="#191970" stroke="#191970" points="1272.7434,-630.2251 1280.9312,-623.5011 1270.3374,-623.6516 1272.7434,-630.2251"/>
</g>
<!-- Node26 -->
<g id="node27" class="node">
<title>Node26</title>
<g id="a_node27"><a xlink:href="SpatialInertia_8h.html" target="_top" xlink:title="iDynTree/Core/SpatialInertia.h">
<polygon fill="none" stroke="#000000" points="557.8896,-604.5 557.8896,-623.5 719.8896,-623.5 719.8896,-604.5 557.8896,-604.5"/>
<text text-anchor="middle" x="638.8896" y="-611.5" font-family="FreeSans.ttf" font-size="10.00" fill="#000000">iDynTree/Core/SpatialInertia.h</text>
</a>
</g>
</g>
<!-- Node25&#45;&gt;Node26 -->
<g id="edge35" class="edge">
<title>Node25&#45;&gt;Node26</title>
<path fill="none" stroke="#191970" d="M1091.7686,-663.2451C1001.7986,-653.4619 834.6315,-635.2846 730.4957,-623.961"/>
<polygon fill="#191970" stroke="#191970" points="730.6272,-620.4548 720.3074,-622.8532 729.8705,-627.4138 730.6272,-620.4548"/>
</g>
<!-- Node26&#45;&gt;Node3 -->
<g id="edge50" class="edge">
<title>Node26&#45;&gt;Node3</title>
<path fill="none" stroke="#191970" d="M675.0398,-604.4896C696.3529,-597.3594 722.6343,-585.7296 740.8896,-568 813.7541,-497.2338 840.8896,-464.0731 840.8896,-362.5 840.8896,-362.5 840.8896,-362.5 840.8896,-301 840.8896,-264.4801 842.6729,-221.8931 843.858,-197.6221"/>
<polygon fill="#191970" stroke="#191970" points="847.357,-197.7298 844.3667,-187.5657 840.3659,-197.3761 847.357,-197.7298"/>
</g>
<!-- Node27 -->
<g id="node28" class="node">
<title>Node27</title>
<g id="a_node28"><a xlink:href="SpatialInertiaRaw_8h.html" target="_top" xlink:title="iDynTree/Core/SpatialInertia\lRaw.h">
<polygon fill="none" stroke="#000000" points="30.3896,-537.5 30.3896,-567.5 183.3896,-567.5 183.3896,-537.5 30.3896,-537.5"/>
<text text-anchor="start" x="38.3896" y="-555.5" font-family="FreeSans.ttf" font-size="10.00" fill="#000000">iDynTree/Core/SpatialInertia</text>
<text text-anchor="middle" x="106.8896" y="-544.5" font-family="FreeSans.ttf" font-size="10.00" fill="#000000">Raw.h</text>
</a>
</g>
</g>
<!-- Node26&#45;&gt;Node27 -->
<g id="edge36" class="edge">
<title>Node26&#45;&gt;Node27</title>
<path fill="none" stroke="#191970" d="M557.6881,-607.4806C470.3148,-600.0446 327.0729,-586.6396 193.7285,-568.0524"/>
<polygon fill="#191970" stroke="#191970" points="194.1273,-564.5742 183.7372,-566.6473 193.1523,-571.5059 194.1273,-564.5742"/>
</g>
<!-- Node32 -->
<g id="node33" class="node">
<title>Node32</title>
<g id="a_node33"><a xlink:href="Twist_8h.html" target="_top" xlink:title="iDynTree/Core/Twist.h">
<polygon fill="none" stroke="#000000" points="201.8896,-543 201.8896,-562 323.8896,-562 323.8896,-543 201.8896,-543"/>
<text text-anchor="middle" x="262.8896" y="-550" font-family="FreeSans.ttf" font-size="10.00" fill="#000000">iDynTree/Core/Twist.h</text>
</a>
</g>
</g>
<!-- Node26&#45;&gt;Node32 -->
<g id="edge51" class="edge">
<title>Node26&#45;&gt;Node32</title>
<path fill="none" stroke="#191970" d="M566.0079,-604.479C503.8628,-596.0179 412.2507,-582.7335 332.8896,-568 326.7056,-566.8519 320.2355,-565.5532 313.8333,-564.208"/>
<polygon fill="#191970" stroke="#191970" points="314.3912,-560.7481 303.8793,-562.0708 312.9217,-567.5921 314.3912,-560.7481"/>
</g>
<!-- Node39 -->
<g id="node40" class="node">
<title>Node39</title>
<g id="a_node40"><a xlink:href="SpatialMomentum_8h.html" target="_top" xlink:title="iDynTree/Core/SpatialMomentum.h">
<polygon fill="none" stroke="#000000" points="545.8896,-543 545.8896,-562 731.8896,-562 731.8896,-543 545.8896,-543"/>
<text text-anchor="middle" x="638.8896" y="-550" font-family="FreeSans.ttf" font-size="10.00" fill="#000000">iDynTree/Core/SpatialMomentum.h</text>
</a>
</g>
</g>
<!-- Node26&#45;&gt;Node39 -->
<g id="edge73" class="edge">
<title>Node26&#45;&gt;Node39</title>
<path fill="none" stroke="#191970" d="M638.8896,-604.3906C638.8896,-595.8657 638.8896,-583.1392 638.8896,-572.4235"/>
<polygon fill="#191970" stroke="#191970" points="642.3897,-572.2448 638.8896,-562.2449 635.3897,-572.2449 642.3897,-572.2448"/>
</g>
<!-- Node41 -->
<g id="node42" class="node">
<title>Node41</title>
<g id="a_node42"><a xlink:href="SpatialAcc_8h.html" target="_top" xlink:title="iDynTree/Core/SpatialAcc.h">
<polygon fill="none" stroke="#000000" points="341.8896,-543 341.8896,-562 489.8896,-562 489.8896,-543 341.8896,-543"/>
<text text-anchor="middle" x="415.8896" y="-550" font-family="FreeSans.ttf" font-size="10.00" fill="#000000">iDynTree/Core/SpatialAcc.h</text>
</a>
</g>
</g>
<!-- Node26&#45;&gt;Node41 -->
<g id="edge78" class="edge">
<title>Node26&#45;&gt;Node41</title>
<path fill="none" stroke="#191970" d="M604.0458,-604.3906C565.261,-593.6944 502.4919,-576.3836 460.2336,-564.7294"/>
<polygon fill="#191970" stroke="#191970" points="461.0593,-561.3265 450.4887,-562.0419 459.1983,-568.0746 461.0593,-561.3265"/>
</g>
<!-- Node42 -->
<g id="node43" class="node">
<title>Node42</title>
<g id="a_node43"><a xlink:href="Wrench_8h.html" target="_top" xlink:title="iDynTree/Core/Wrench.h">
<polygon fill="none" stroke="#000000" points="788.3896,-543 788.3896,-562 921.3896,-562 921.3896,-543 788.3896,-543"/>
<text text-anchor="middle" x="854.8896" y="-550" font-family="FreeSans.ttf" font-size="10.00" fill="#000000">iDynTree/Core/Wrench.h</text>
</a>
</g>
</g>
<!-- Node26&#45;&gt;Node42 -->
<g id="edge80" class="edge">
<title>Node26&#45;&gt;Node42</title>
<path fill="none" stroke="#191970" d="M672.6396,-604.3906C710.1277,-593.7169 770.7493,-576.4566 811.6782,-564.8033"/>
<polygon fill="#191970" stroke="#191970" points="812.7173,-568.1466 821.3766,-562.0419 810.8004,-561.4141 812.7173,-568.1466"/>
</g>
<!-- Node28 -->
<g id="node29" class="node">
<title>Node28</title>
<g id="a_node29"><a xlink:href="RotationalInertiaRaw_8h.html" target="_top" xlink:title="iDynTree/Core/Rotational\lInertiaRaw.h">
<polygon fill="none" stroke="#000000" points="60.3896,-347.5 60.3896,-377.5 197.3896,-377.5 197.3896,-347.5 60.3896,-347.5"/>
<text text-anchor="start" x="68.3896" y="-365.5" font-family="FreeSans.ttf" font-size="10.00" fill="#000000">iDynTree/Core/Rotational</text>
<text text-anchor="middle" x="128.8896" y="-354.5" font-family="FreeSans.ttf" font-size="10.00" fill="#000000">InertiaRaw.h</text>
</a>
</g>
</g>
<!-- Node27&#45;&gt;Node28 -->
<g id="edge37" class="edge">
<title>Node27&#45;&gt;Node28</title>
<path fill="none" stroke="#191970" d="M108.6528,-537.2727C112.4354,-504.6039 121.3611,-427.5184 125.9908,-387.5352"/>
<polygon fill="#191970" stroke="#191970" points="129.475,-387.8723 127.1486,-377.5361 122.5215,-387.0671 129.475,-387.8723"/>
</g>
<!-- Node29 -->
<g id="node30" class="node">
<title>Node29</title>
<g id="a_node30"><a xlink:href="MatrixFixSize_8h.html" target="_top" xlink:title="iDynTree/Core/MatrixFixSize.h">
<polygon fill="none" stroke="#000000" points="585.3896,-168.5 585.3896,-187.5 746.3896,-187.5 746.3896,-168.5 585.3896,-168.5"/>
<text text-anchor="middle" x="665.8896" y="-175.5" font-family="FreeSans.ttf" font-size="10.00" fill="#000000">iDynTree/Core/MatrixFixSize.h</text>
</a>
</g>
</g>
<!-- Node28&#45;&gt;Node29 -->
<g id="edge38" class="edge">
<title>Node28&#45;&gt;Node29</title>
<path fill="none" stroke="#191970" d="M145.4464,-347.3102C178.4733,-317.9794 256.0803,-253.815 333.8896,-224 376.6619,-207.6105 492.3869,-193.9823 575.1602,-185.9176"/>
<polygon fill="#191970" stroke="#191970" points="575.7192,-189.3801 585.3377,-184.9377 575.0483,-182.4123 575.7192,-189.3801"/>
</g>
<!-- Node29&#45;&gt;Node4 -->
<g id="edge39" class="edge">
<title>Node29&#45;&gt;Node4</title>
<path fill="none" stroke="#191970" d="M666.0486,-168.1533C666.805,-153.9491 670.2516,-127.6963 684.8896,-112 699.9717,-95.8275 721.2019,-85.3237 741.9438,-78.5082"/>
<polygon fill="#191970" stroke="#191970" points="743.181,-81.7906 751.7354,-75.5398 741.1501,-75.0916 743.181,-81.7906"/>
</g>
<!-- Node29&#45;&gt;Node8 -->
<g id="edge45" class="edge">
<title>Node29&#45;&gt;Node8</title>
<path fill="none" stroke="#191970" d="M664.1235,-168.3865C662.1492,-154.923 660.3609,-130.0754 669.8896,-112 688.7946,-76.1384 705.3524,-73.5638 741.8896,-56 792.9348,-31.462 858.0736,-19.4363 897.8471,-13.9934"/>
<polygon fill="#191970" stroke="#191970" points="898.4097,-17.4498 907.874,-12.6877 897.5057,-10.5084 898.4097,-17.4498"/>
</g>
<!-- Node29&#45;&gt;Node16 -->
<g id="edge47" class="edge">
<title>Node29&#45;&gt;Node16</title>
<path fill="none" stroke="#191970" d="M746.4158,-168.9155C749.2754,-168.6046 752.1068,-168.2986 754.8896,-168 911.5517,-151.192 1099.0538,-132.4755 1172.8309,-125.1657"/>
<polygon fill="#191970" stroke="#191970" points="1173.2671,-128.6398 1182.8736,-124.1716 1172.5775,-121.6738 1173.2671,-128.6398"/>
</g>
<!-- Node29&#45;&gt;Node17 -->
<g id="edge49" class="edge">
<title>Node29&#45;&gt;Node17</title>
<path fill="none" stroke="#191970" d="M675.644,-168.2455C683.7544,-160.1352 695.4821,-148.4075 705.0977,-138.7919"/>
<polygon fill="#191970" stroke="#191970" points="707.6507,-141.1887 712.2469,-131.6427 702.7009,-136.2389 707.6507,-141.1887"/>
</g>
<!-- Node29&#45;&gt;Node18 -->
<g id="edge46" class="edge">
<title>Node29&#45;&gt;Node18</title>
<path fill="none" stroke="#191970" d="M687.7217,-168.3733C708.1999,-159.3435 739.0294,-145.7494 762.0215,-135.6111"/>
<polygon fill="#191970" stroke="#191970" points="763.6046,-138.7383 771.3424,-131.5011 760.7803,-132.3333 763.6046,-138.7383"/>
</g>
<!-- Node30 -->
<g id="node31" class="node">
<title>Node30</title>
<g id="a_node31"><a xlink:href="MatrixView_8h.html" target="_top" xlink:title="iDynTree/Core/MatrixView.h">
<polygon fill="none" stroke="#000000" points="927.3896,-112.5 927.3896,-131.5 1078.3896,-131.5 1078.3896,-112.5 927.3896,-112.5"/>
<text text-anchor="middle" x="1002.8896" y="-119.5" font-family="FreeSans.ttf" font-size="10.00" fill="#000000">iDynTree/Core/MatrixView.h</text>
</a>
</g>
</g>
<!-- Node29&#45;&gt;Node30 -->
<g id="edge40" class="edge">
<title>Node29&#45;&gt;Node30</title>
<path fill="none" stroke="#191970" d="M723.439,-168.4369C782.2045,-158.6717 873.3809,-143.5207 935.4862,-133.2006"/>
<polygon fill="#191970" stroke="#191970" points="936.2865,-136.6157 945.5775,-131.5237 935.139,-129.7103 936.2865,-136.6157"/>
</g>
<!-- Node31 -->
<g id="node32" class="node">
<title>Node31</title>
<polygon fill="none" stroke="#bfbfbf" points="421.8896,-112.5 421.8896,-131.5 481.8896,-131.5 481.8896,-112.5 421.8896,-112.5"/>
<text text-anchor="middle" x="451.8896" y="-119.5" font-family="FreeSans.ttf" font-size="10.00" fill="#000000">iostream</text>
</g>
<!-- Node29&#45;&gt;Node31 -->
<g id="edge48" class="edge">
<title>Node29&#45;&gt;Node31</title>
<path fill="none" stroke="#191970" d="M629.1017,-168.3733C590.8447,-158.3621 531.1479,-142.7405 491.7786,-132.4383"/>
<polygon fill="#191970" stroke="#191970" points="492.5475,-129.0217 481.9871,-129.876 490.7753,-135.7936 492.5475,-129.0217"/>
</g>
<!-- Node30&#45;&gt;Node4 -->
<g id="edge44" class="edge">
<title>Node30&#45;&gt;Node4</title>
<path fill="none" stroke="#191970" d="M969.8836,-112.3733C937.6805,-102.9807 888.5454,-88.6496 853.4257,-78.4064"/>
<polygon fill="#191970" stroke="#191970" points="854.0449,-74.9412 843.4649,-75.5011 852.0848,-81.6612 854.0449,-74.9412"/>
</g>
<!-- Node30&#45;&gt;Node7 -->
<g id="edge43" class="edge">
<title>Node30&#45;&gt;Node7</title>
<path fill="none" stroke="#191970" d="M1076.0437,-112.4965C1147.2456,-103.2334 1258.5033,-88.7237 1354.8896,-76 1356.3547,-75.8066 1357.8359,-75.6109 1359.3289,-75.4134"/>
<polygon fill="#191970" stroke="#191970" points="1359.8556,-78.8743 1369.3092,-74.0912 1358.9361,-71.935 1359.8556,-78.8743"/>
</g>
<!-- Node30&#45;&gt;Node8 -->
<g id="edge41" class="edge">
<title>Node30&#45;&gt;Node8</title>
<path fill="none" stroke="#191970" d="M997.0067,-112.4509C985.4983,-93.7707 959.8408,-52.1238 945.0258,-28.0761"/>
<polygon fill="#191970" stroke="#191970" points="947.9828,-26.203 939.7576,-19.5249 942.023,-29.8747 947.9828,-26.203"/>
</g>
<!-- Node30&#45;&gt;Node14 -->
<g id="edge42" class="edge">
<title>Node30&#45;&gt;Node14</title>
<path fill="none" stroke="#191970" d="M1026.677,-112.4509C1076.4023,-92.4895 1191.456,-46.3031 1248.5348,-23.3897"/>
<polygon fill="#191970" stroke="#191970" points="1250.1861,-26.4984 1258.1624,-19.5249 1247.5783,-20.0023 1250.1861,-26.4984"/>
</g>
<!-- Node33 -->
<g id="node34" class="node">
<title>Node33</title>
<g id="a_node34"><a xlink:href="SpatialMotionVector_8h.html" target="_top" xlink:title="iDynTree/Core/SpatialMotion\lVector.h">
<polygon fill="none" stroke="#000000" points="195.3896,-470.5 195.3896,-500.5 350.3896,-500.5 350.3896,-470.5 195.3896,-470.5"/>
<text text-anchor="start" x="203.3896" y="-488.5" font-family="FreeSans.ttf" font-size="10.00" fill="#000000">iDynTree/Core/SpatialMotion</text>
<text text-anchor="middle" x="272.8896" y="-477.5" font-family="FreeSans.ttf" font-size="10.00" fill="#000000">Vector.h</text>
</a>
</g>
</g>
<!-- Node32&#45;&gt;Node33 -->
<g id="edge52" class="edge">
<title>Node32&#45;&gt;Node33</title>
<path fill="none" stroke="#191970" d="M264.3223,-542.9005C265.5747,-534.5099 267.45,-521.9451 269.1271,-510.7085"/>
<polygon fill="#191970" stroke="#191970" points="272.6329,-510.9289 270.6475,-500.5218 265.7096,-509.8955 272.6329,-510.9289"/>
</g>
<!-- Node33&#45;&gt;Node2 -->
<g id="edge54" class="edge">
<title>Node33&#45;&gt;Node2</title>
<path fill="none" stroke="#191970" d="M275.1527,-470.3951C278.1221,-454.8621 284.6045,-430.6533 297.8896,-414 374.6278,-317.806 517.7449,-270.9449 597.4856,-251.3701"/>
<polygon fill="#191970" stroke="#191970" points="598.4488,-254.7385 607.3592,-249.0064 596.8191,-247.9308 598.4488,-254.7385"/>
</g>
<!-- Node33&#45;&gt;Node3 -->
<g id="edge53" class="edge">
<title>Node33&#45;&gt;Node3</title>
<path fill="none" stroke="#191970" d="M273.1387,-470.2521C273.8118,-455.4533 276.0082,-432.5697 282.8896,-414 317.7606,-319.8994 319.4007,-276.5601 404.8896,-224 469.0243,-184.5688 662.0736,-195.4072 753.7994,-187.971"/>
<polygon fill="#191970" stroke="#191970" points="754.3079,-191.4389 763.94,-187.0259 753.6583,-184.4691 754.3079,-191.4389"/>
</g>
<!-- Node34 -->
<g id="node35" class="node">
<title>Node34</title>
<g id="a_node35"><a xlink:href="SpatialVector_8h.html" target="_top" xlink:title="iDynTree/Core/SpatialVector.h">
<polygon fill="none" stroke="#000000" points="307.3896,-414.5 307.3896,-433.5 468.3896,-433.5 468.3896,-414.5 307.3896,-414.5"/>
<text text-anchor="middle" x="387.8896" y="-421.5" font-family="FreeSans.ttf" font-size="10.00" fill="#000000">iDynTree/Core/SpatialVector.h</text>
</a>
</g>
</g>
<!-- Node33&#45;&gt;Node34 -->
<g id="edge55" class="edge">
<title>Node33&#45;&gt;Node34</title>
<path fill="none" stroke="#191970" d="M301.0218,-470.4554C319.3682,-460.644 343.1673,-447.9167 361.2147,-438.2653"/>
<polygon fill="#191970" stroke="#191970" points="362.901,-441.3326 370.0687,-433.5303 359.5999,-435.1598 362.901,-441.3326"/>
</g>
<!-- Node34&#45;&gt;Node2 -->
<g id="edge70" class="edge">
<title>Node34&#45;&gt;Node2</title>
<path fill="none" stroke="#191970" d="M395.4432,-414.2976C414.5513,-390.3271 467.3308,-327.6051 523.8896,-291 550.5402,-273.7516 583.8754,-260.7473 610.2488,-252.1212"/>
<polygon fill="#191970" stroke="#191970" points="611.515,-255.3914 619.9874,-249.0298 609.3971,-248.7195 611.515,-255.3914"/>
</g>
<!-- Node34&#45;&gt;Node4 -->
<g id="edge69" class="edge">
<title>Node34&#45;&gt;Node4</title>
<path fill="none" stroke="#191970" d="M375.9125,-414.1853C346.2747,-388.7152 271.8896,-317.0642 271.8896,-239.5 271.8896,-239.5 271.8896,-239.5 271.8896,-178 271.8896,-108.8078 346.3242,-130.8841 412.8896,-112 472.8333,-94.9944 643.8069,-79.2614 741.0444,-71.3488"/>
<polygon fill="#191970" stroke="#191970" points="741.3967,-74.8318 751.0826,-70.5384 740.8334,-67.8545 741.3967,-74.8318"/>
</g>
<!-- Node34&#45;&gt;Node17 -->
<g id="edge72" class="edge">
<title>Node34&#45;&gt;Node17</title>
<path fill="none" stroke="#191970" d="M385.3748,-414.3381C377.8235,-382.9447 358.6064,-282.4728 404.8896,-224 440.0586,-179.5685 607.243,-143.3744 683.6417,-128.8551"/>
<polygon fill="#191970" stroke="#191970" points="684.6123,-132.2342 693.7962,-126.9516 683.3225,-125.354 684.6123,-132.2342"/>
</g>
<!-- Node34&#45;&gt;Node31 -->
<g id="edge71" class="edge">
<title>Node34&#45;&gt;Node31</title>
<path fill="none" stroke="#191970" d="M383.7233,-414.3071C369.0601,-378.5868 323.2765,-252.0291 371.8896,-168 380.726,-152.726 396.7672,-142.0801 412.178,-134.9072"/>
<polygon fill="#191970" stroke="#191970" points="413.7966,-138.022 421.6219,-130.8796 411.0505,-131.5832 413.7966,-138.022"/>
</g>
<!-- Node35 -->
<g id="node36" class="node">
<title>Node35</title>
<g id="a_node36"><a xlink:href="Position_8h.html" target="_top" xlink:title="Position.h">
<polygon fill="none" stroke="#000000" points="1034.3896,-353 1034.3896,-372 1099.3896,-372 1099.3896,-353 1034.3896,-353"/>
<text text-anchor="middle" x="1066.8896" y="-360" font-family="FreeSans.ttf" font-size="10.00" fill="#000000">Position.h</text>
</a>
</g>
</g>
<!-- Node34&#45;&gt;Node35 -->
<g id="edge56" class="edge">
<title>Node34&#45;&gt;Node35</title>
<path fill="none" stroke="#191970" d="M468.4462,-416.7036C613.2487,-403.5882 912.7822,-376.4582 1024.0485,-366.3803"/>
<polygon fill="#191970" stroke="#191970" points="1024.5735,-369.8472 1034.2169,-365.4593 1023.942,-362.8757 1024.5735,-369.8472"/>
</g>
<!-- Node37 -->
<g id="node38" class="node">
<title>Node37</title>
<g id="a_node38"><a xlink:href="Rotation_8h.html" target="_top" xlink:title="iDynTree/Core/Rotation.h">
<polygon fill="none" stroke="#000000" points="937.3896,-291.5 937.3896,-310.5 1074.3896,-310.5 1074.3896,-291.5 937.3896,-291.5"/>
<text text-anchor="middle" x="1005.8896" y="-298.5" font-family="FreeSans.ttf" font-size="10.00" fill="#000000">iDynTree/Core/Rotation.h</text>
</a>
</g>
</g>
<!-- Node34&#45;&gt;Node37 -->
<g id="edge68" class="edge">
<title>Node34&#45;&gt;Node37</title>
<path fill="none" stroke="#191970" d="M435.8688,-414.4507C547.9988,-392.1336 826.8781,-336.6285 948.0986,-312.5021"/>
<polygon fill="#191970" stroke="#191970" points="948.8166,-315.9279 957.941,-310.5432 947.4501,-309.0626 948.8166,-315.9279"/>
</g>
<!-- Node35&#45;&gt;Node16 -->
<g id="edge67" class="edge">
<title>Node35&#45;&gt;Node16</title>
<path fill="none" stroke="#191970" d="M1099.6249,-359.9511C1156.6825,-353.5406 1273.104,-331.2925 1323.8896,-255 1355.6264,-207.3235 1279.4845,-159.1537 1234.7098,-136.0613"/>
<polygon fill="#191970" stroke="#191970" points="1236.1883,-132.8872 1225.6816,-131.5234 1233.0446,-139.1416 1236.1883,-132.8872"/>
</g>
<!-- Node36 -->
<g id="node37" class="node">
<title>Node36</title>
<g id="a_node37"><a xlink:href="PositionRaw_8h.html" target="_top" xlink:title="iDynTree/Core/PositionRaw.h">
<polygon fill="none" stroke="#000000" points="1158.8896,-230 1158.8896,-249 1314.8896,-249 1314.8896,-230 1158.8896,-230"/>
<text text-anchor="middle" x="1236.8896" y="-237" font-family="FreeSans.ttf" font-size="10.00" fill="#000000">iDynTree/Core/PositionRaw.h</text>
</a>
</g>
</g>
<!-- Node35&#45;&gt;Node36 -->
<g id="edge57" class="edge">
<title>Node35&#45;&gt;Node36</title>
<path fill="none" stroke="#191970" d="M1080.2292,-352.8484C1109.5254,-331.6517 1179.7068,-280.8734 1215.3423,-255.0901"/>
<polygon fill="#191970" stroke="#191970" points="1217.5618,-257.8043 1223.6119,-249.1068 1213.4585,-252.133 1217.5618,-257.8043"/>
</g>
<!-- Node35&#45;&gt;Node37 -->
<g id="edge60" class="edge">
<title>Node35&#45;&gt;Node37</title>
<path fill="none" stroke="#191970" d="M1057.3583,-352.8906C1048.1017,-343.5581 1033.8506,-329.1902 1022.6893,-317.9374"/>
<polygon fill="#191970" stroke="#191970" points="1025.0824,-315.38 1015.5552,-310.7449 1020.1124,-320.3095 1025.0824,-315.38"/>
</g>
<!-- Node36&#45;&gt;Node3 -->
<g id="edge58" class="edge">
<title>Node36&#45;&gt;Node3</title>
<path fill="none" stroke="#191970" d="M1176.0697,-229.9581C1105.7238,-218.9217 990.0818,-200.7789 915.7369,-189.1151"/>
<polygon fill="#191970" stroke="#191970" points="915.9513,-185.606 905.5296,-187.5137 914.8663,-192.5214 915.9513,-185.606"/>
</g>
<!-- Node36&#45;&gt;Node16 -->
<g id="edge59" class="edge">
<title>Node36&#45;&gt;Node16</title>
<path fill="none" stroke="#191970" d="M1234.2709,-229.8845C1229.0204,-210.6053 1217.1167,-166.8963 1210.1796,-141.4241"/>
<polygon fill="#191970" stroke="#191970" points="1213.5492,-140.4772 1207.5445,-131.7484 1206.7952,-142.3167 1213.5492,-140.4772"/>
</g>
<!-- Node37&#45;&gt;Node2 -->
<g id="edge62" class="edge">
<title>Node37&#45;&gt;Node2</title>
<path fill="none" stroke="#191970" d="M951.431,-291.4581C888.7003,-280.4668 785.7422,-262.4272 719.1455,-250.7585"/>
<polygon fill="#191970" stroke="#191970" points="719.6412,-247.2921 709.1872,-249.0137 718.4331,-254.1871 719.6412,-247.2921"/>
</g>
<!-- Node37&#45;&gt;Node3 -->
<g id="edge66" class="edge">
<title>Node37&#45;&gt;Node3</title>
<path fill="none" stroke="#191970" d="M1030.7151,-291.4395C1046.1775,-284.0336 1064.8008,-272.1213 1073.8896,-255 1080.3497,-242.8306 1082.6201,-234.6586 1073.8896,-224 1056.2547,-202.4705 991.6985,-190.804 935.6059,-184.6132"/>
<polygon fill="#191970" stroke="#191970" points="935.9183,-181.1268 925.6058,-183.5564 935.1825,-188.088 935.9183,-181.1268"/>
</g>
<!-- Node37&#45;&gt;Node16 -->
<g id="edge61" class="edge">
<title>Node37&#45;&gt;Node16</title>
<path fill="none" stroke="#191970" d="M1028.9252,-291.3424C1046.8609,-283.185 1071.827,-270.387 1090.8896,-255 1134.0493,-220.1621 1173.5741,-167.458 1192.7371,-140.0269"/>
<polygon fill="#191970" stroke="#191970" points="1195.6438,-141.9771 1198.4311,-131.7554 1189.8779,-138.0079 1195.6438,-141.9771"/>
</g>
<!-- Node38 -->
<g id="node39" class="node">
<title>Node38</title>
<g id="a_node39"><a xlink:href="RotationRaw_8h.html" target="_top" xlink:title="iDynTree/Core/RotationRaw.h">
<polygon fill="none" stroke="#000000" points="906.8896,-230 906.8896,-249 1064.8896,-249 1064.8896,-230 906.8896,-230"/>
<text text-anchor="middle" x="985.8896" y="-237" font-family="FreeSans.ttf" font-size="10.00" fill="#000000">iDynTree/Core/RotationRaw.h</text>
</a>
</g>
</g>
<!-- Node37&#45;&gt;Node38 -->
<g id="edge63" class="edge">
<title>Node37&#45;&gt;Node38</title>
<path fill="none" stroke="#191970" d="M1002.7646,-291.3906C999.9631,-282.776 995.7663,-269.8708 992.2589,-259.0858"/>
<polygon fill="#191970" stroke="#191970" points="995.4797,-257.6722 989.0586,-249.2449 988.8229,-259.8371 995.4797,-257.6722"/>
</g>
<!-- Node38&#45;&gt;Node16 -->
<g id="edge65" class="edge">
<title>Node38&#45;&gt;Node16</title>
<path fill="none" stroke="#191970" d="M1003.2119,-229.9167C1028.2342,-216.103 1075.9817,-189.8533 1116.8896,-168 1137.0321,-157.2397 1159.8918,-145.2984 1177.2633,-136.2794"/>
<polygon fill="#191970" stroke="#191970" points="1179.0306,-139.3057 1186.2974,-131.5957 1175.8087,-133.0912 1179.0306,-139.3057"/>
</g>
<!-- Node38&#45;&gt;Node29 -->
<g id="edge64" class="edge">
<title>Node38&#45;&gt;Node29</title>
<path fill="none" stroke="#191970" d="M936.2407,-229.9581C879.2852,-219.012 785.9558,-201.0752 725.2202,-189.4026"/>
<polygon fill="#191970" stroke="#191970" points="725.8725,-185.964 715.3917,-187.5137 724.5514,-192.8382 725.8725,-185.964"/>
</g>
<!-- Node40 -->
<g id="node41" class="node">
<title>Node40</title>
<g id="a_node41"><a xlink:href="SpatialForceVector_8h.html" target="_top" xlink:title="iDynTree/Core/SpatialForce\lVector.h">
<polygon fill="none" stroke="#000000" points="580.8896,-470.5 580.8896,-500.5 728.8896,-500.5 728.8896,-470.5 580.8896,-470.5"/>
<text text-anchor="start" x="588.8896" y="-488.5" font-family="FreeSans.ttf" font-size="10.00" fill="#000000">iDynTree/Core/SpatialForce</text>
<text text-anchor="middle" x="654.8896" y="-477.5" font-family="FreeSans.ttf" font-size="10.00" fill="#000000">Vector.h</text>
</a>
</g>
</g>
<!-- Node39&#45;&gt;Node40 -->
<g id="edge74" class="edge">
<title>Node39&#45;&gt;Node40</title>
<path fill="none" stroke="#191970" d="M641.182,-542.9005C643.2064,-534.4234 646.2482,-521.6856 648.9525,-510.3614"/>
<polygon fill="#191970" stroke="#191970" points="652.3838,-511.0613 651.3023,-500.5218 645.5752,-509.4353 652.3838,-511.0613"/>
</g>
<!-- Node40&#45;&gt;Node2 -->
<g id="edge76" class="edge">
<title>Node40&#45;&gt;Node2</title>
<path fill="none" stroke="#191970" d="M654.8896,-470.4819C654.8896,-428.0787 654.8896,-307.4165 654.8896,-259.484"/>
<polygon fill="#191970" stroke="#191970" points="658.3897,-259.1955 654.8896,-249.1956 651.3897,-259.1956 658.3897,-259.1955"/>
</g>
<!-- Node40&#45;&gt;Node3 -->
<g id="edge75" class="edge">
<title>Node40&#45;&gt;Node3</title>
<path fill="none" stroke="#191970" d="M698.494,-470.4904C742.1503,-452.3609 802.8896,-417.2918 802.8896,-362.5 802.8896,-362.5 802.8896,-362.5 802.8896,-301 802.8896,-262.104 821.9318,-219.8219 834.3725,-196.3486"/>
<polygon fill="#191970" stroke="#191970" points="837.483,-197.9555 839.2253,-187.5049 831.3462,-194.5881 837.483,-197.9555"/>
</g>
<!-- Node40&#45;&gt;Node34 -->
<g id="edge77" class="edge">
<title>Node40&#45;&gt;Node34</title>
<path fill="none" stroke="#191970" d="M589.574,-470.4554C543.2659,-459.7889 481.9954,-445.6761 439.1875,-435.8158"/>
<polygon fill="#191970" stroke="#191970" points="439.7956,-432.3643 429.2651,-433.5303 438.2243,-439.1857 439.7956,-432.3643"/>
</g>
<!-- Node41&#45;&gt;Node33 -->
<g id="edge79" class="edge">
<title>Node41&#45;&gt;Node33</title>
<path fill="none" stroke="#191970" d="M395.4012,-542.9005C374.2618,-532.9961 340.7092,-517.2756 314.0582,-504.7888"/>
<polygon fill="#191970" stroke="#191970" points="315.4913,-501.5952 304.951,-500.5218 312.5214,-507.9339 315.4913,-501.5952"/>
</g>
<!-- Node42&#45;&gt;Node40 -->
<g id="edge81" class="edge">
<title>Node42&#45;&gt;Node40</title>
<path fill="none" stroke="#191970" d="M826.2345,-542.9005C795.8943,-532.7366 747.2712,-516.4479 709.5587,-503.8141"/>
<polygon fill="#191970" stroke="#191970" points="710.3246,-500.3796 699.7307,-500.5218 708.101,-507.0171 710.3246,-500.3796"/>
</g>
<!-- Node43&#45;&gt;Node16 -->
<g id="edge87" class="edge">
<title>Node43&#45;&gt;Node16</title>
<path fill="none" stroke="#191970" d="M1094.7581,-414.4584C1197.994,-398.1953 1380.8896,-360.9269 1380.8896,-301 1380.8896,-301 1380.8896,-301 1380.8896,-239.5 1380.8896,-171.1011 1287.8067,-140.0438 1237.0284,-128.1902"/>
<polygon fill="#191970" stroke="#191970" points="1237.7005,-124.7543 1227.1801,-126.0078 1236.186,-131.5885 1237.7005,-124.7543"/>
</g>
<!-- Node43&#45;&gt;Node29 -->
<g id="edge86" class="edge">
<title>Node43&#45;&gt;Node29</title>
<path fill="none" stroke="#191970" d="M1012.3343,-414.3268C957.1323,-374.9373 751.8555,-228.4937 744.8896,-224 727.7708,-212.9566 707.9578,-201.4229 692.4561,-192.667"/>
<polygon fill="#191970" stroke="#191970" points="693.8582,-189.4406 683.4239,-187.6034 690.4351,-195.5466 693.8582,-189.4406"/>
</g>
<!-- Node43&#45;&gt;Node35 -->
<g id="edge84" class="edge">
<title>Node43&#45;&gt;Node35</title>
<path fill="none" stroke="#191970" d="M1032.2958,-414.3906C1038.2782,-405.417 1047.3643,-391.7879 1054.7235,-380.7491"/>
<polygon fill="#191970" stroke="#191970" points="1057.7582,-382.5068 1060.393,-372.2449 1051.9338,-378.6239 1057.7582,-382.5068"/>
</g>
<!-- Node43&#45;&gt;Node37 -->
<g id="edge85" class="edge">
<title>Node43&#45;&gt;Node37</title>
<path fill="none" stroke="#191970" d="M1024.3202,-414.3484C1021.0489,-394.2295 1013.4442,-347.4608 1009.0944,-320.7098"/>
<polygon fill="#191970" stroke="#191970" points="1012.5113,-319.9154 1007.4517,-310.6068 1005.6021,-321.0389 1012.5113,-319.9154"/>
</g>
<!-- Node44&#45;&gt;Node16 -->
<g id="edge91" class="edge">
<title>Node44&#45;&gt;Node16</title>
<path fill="none" stroke="#191970" d="M1537.1944,-660.257C1535.8205,-640.1352 1532.8896,-592.5188 1532.8896,-552.5 1532.8896,-552.5 1532.8896,-552.5 1532.8896,-424 1532.8896,-295.9877 1503.4847,-244.5599 1400.8896,-168 1375.1835,-148.8173 1285.5954,-133.4965 1236.9352,-126.3598"/>
<polygon fill="#191970" stroke="#191970" points="1237.3222,-122.8796 1226.9263,-124.9228 1236.3273,-129.8085 1237.3222,-122.8796"/>
</g>
<!-- Node44&#45;&gt;Node19 -->
<g id="edge92" class="edge">
<title>Node44&#45;&gt;Node19</title>
<path fill="none" stroke="#191970" d="M1557.0501,-660.2455C1574.4007,-651.4125 1600.1796,-638.2887 1619.8479,-628.2758"/>
<polygon fill="#191970" stroke="#191970" points="1621.6249,-631.2986 1628.9486,-623.6427 1618.4491,-625.0605 1621.6249,-631.2986"/>
</g>
<!-- Node44&#45;&gt;Node23 -->
<g id="edge94" class="edge">
<title>Node44&#45;&gt;Node23</title>
<path fill="none" stroke="#191970" d="M1498.4417,-660.4369C1459.074,-650.8932 1398.4862,-636.2052 1356.0188,-625.9101"/>
<polygon fill="#191970" stroke="#191970" points="1356.7179,-622.4783 1346.1747,-623.5237 1355.0686,-629.2812 1356.7179,-622.4783"/>
</g>
<!-- Node44&#45;&gt;Node43 -->
<g id="edge93" class="edge">
<title>Node44&#45;&gt;Node43</title>
<path fill="none" stroke="#191970" d="M1529.0927,-660.3592C1516.5065,-646.8633 1492.2877,-621.9774 1468.8896,-604 1346.3955,-509.8843 1167.9215,-457.4872 1079.5662,-435.8858"/>
<polygon fill="#191970" stroke="#191970" points="1080.3021,-432.463 1069.7607,-433.5248 1078.6635,-439.2685 1080.3021,-432.463"/>
</g>
<!-- Node44&#45;&gt;Node45 -->
<g id="edge90" class="edge">
<title>Node44&#45;&gt;Node45</title>
<path fill="none" stroke="#191970" d="M1519.9484,-660.2455C1503.8496,-651.4928 1480.0017,-638.527 1461.6505,-628.5496"/>
<polygon fill="#191970" stroke="#191970" points="1463.0825,-625.3444 1452.6252,-623.6427 1459.7389,-631.4942 1463.0825,-625.3444"/>
</g>
<!-- Node46&#45;&gt;Node19 -->
<g id="edge107" class="edge">
<title>Node46&#45;&gt;Node19</title>
<path fill="none" stroke="#191970" d="M945.3916,-664.6305C1109.6706,-652.7906 1497.6812,-624.8258 1614.2187,-616.4267"/>
<polygon fill="#191970" stroke="#191970" points="1614.6018,-619.9083 1624.3243,-615.6984 1614.0985,-612.9264 1614.6018,-619.9083"/>
</g>
<!-- Node46&#45;&gt;Node23 -->
<g id="edge106" class="edge">
<title>Node46&#45;&gt;Node23</title>
<path fill="none" stroke="#191970" d="M945.3453,-660.4369C1023.9474,-650.3412 1147.3683,-634.489 1227.7113,-624.1697"/>
<polygon fill="#191970" stroke="#191970" points="1228.3042,-627.6224 1237.7768,-622.8769 1227.4124,-620.6794 1228.3042,-627.6224"/>
</g>
<!-- Node46&#45;&gt;Node32 -->
<g id="edge100" class="edge">
<title>Node46&#45;&gt;Node32</title>
<path fill="none" stroke="#191970" d="M796.1506,-666.4369C714.6105,-661.4025 580.6481,-649.7626 467.8896,-624 404.8817,-609.6042 334.3096,-582.4159 294.5737,-566.0302"/>
<polygon fill="#191970" stroke="#191970" points="295.7363,-562.7231 285.1591,-562.1115 293.0463,-569.1856 295.7363,-562.7231"/>
</g>
<!-- Node46&#45;&gt;Node41 -->
<g id="edge101" class="edge">
<title>Node46&#45;&gt;Node41</title>
<path fill="none" stroke="#191970" d="M796.28,-665.5069C704.6162,-659.1493 554.9738,-645.8093 503.8896,-624 474.7958,-611.579 447.5512,-586.5768 431.2991,-569.6837"/>
<polygon fill="#191970" stroke="#191970" points="433.6285,-567.0501 424.2439,-562.1327 428.5137,-571.8291 433.6285,-567.0501"/>
</g>
<!-- Node46&#45;&gt;Node42 -->
<g id="edge102" class="edge">
<title>Node46&#45;&gt;Node42</title>
<path fill="none" stroke="#191970" d="M869.5802,-660.3845C866.9667,-641.1913 861.0562,-597.786 857.5812,-572.2663"/>
<polygon fill="#191970" stroke="#191970" points="861.0344,-571.6847 856.217,-562.2484 854.0984,-572.6292 861.0344,-571.6847"/>
</g>
<!-- Node46&#45;&gt;Node43 -->
<g id="edge99" class="edge">
<title>Node46&#45;&gt;Node43</title>
<path fill="none" stroke="#191970" d="M876.9658,-660.3565C900.2113,-623.4636 983.7336,-490.9057 1014.4498,-442.1561"/>
<polygon fill="#191970" stroke="#191970" points="1017.4857,-443.9033 1019.8554,-433.5768 1011.5633,-440.1716 1017.4857,-443.9033"/>
</g>
<!-- Node47 -->
<g id="node48" class="node">
<title>Node47</title>
<g id="a_node48"><a xlink:href="ArticulatedBodyInertia_8h.html" target="_top" xlink:title="iDynTree/Core/Articulated\lBodyInertia.h">
<polygon fill="none" stroke="#000000" points="414.3896,-224.5 414.3896,-254.5 555.3896,-254.5 555.3896,-224.5 414.3896,-224.5"/>
<text text-anchor="start" x="422.3896" y="-242.5" font-family="FreeSans.ttf" font-size="10.00" fill="#000000">iDynTree/Core/Articulated</text>
<text text-anchor="middle" x="484.8896" y="-231.5" font-family="FreeSans.ttf" font-size="10.00" fill="#000000">BodyInertia.h</text>
</a>
</g>
</g>
<!-- Node46&#45;&gt;Node47 -->
<g id="edge103" class="edge">
<title>Node46&#45;&gt;Node47</title>
<path fill="none" stroke="#191970" d="M796.1489,-663.8135C706.7071,-655.7241 566.695,-640.6141 548.8896,-624 496.4257,-575.0464 486.9642,-343.3375 485.2619,-265.2564"/>
<polygon fill="#191970" stroke="#191970" points="488.7543,-264.8219 485.0628,-254.891 481.7556,-264.9564 488.7543,-264.8219"/>
</g>
<!-- Node47&#45;&gt;Node16 -->
<g id="edge105" class="edge">
<title>Node47&#45;&gt;Node16</title>
<path fill="none" stroke="#191970" d="M555.4666,-225.3014C558.3078,-224.8412 561.1237,-224.4049 563.8896,-224 727.368,-200.0669 774.2988,-230.764 933.8896,-188 954.6386,-182.4401 957.4221,-174.5204 977.8896,-168 1058.5335,-142.3091 1082.2479,-150.2706 1164.8896,-132 1167.397,-131.4456 1169.9872,-130.8503 1172.5878,-130.2363"/>
<polygon fill="#191970" stroke="#191970" points="1173.6252,-133.5861 1182.5156,-127.8232 1171.9719,-126.7841 1173.6252,-133.5861"/>
</g>
<!-- Node47&#45;&gt;Node29 -->
<g id="edge104" class="edge">
<title>Node47&#45;&gt;Node29</title>
<path fill="none" stroke="#191970" d="M529.1672,-224.4554C559.4999,-214.149 599.3025,-200.6249 628.134,-190.8286"/>
<polygon fill="#191970" stroke="#191970" points="629.4987,-194.0615 637.841,-187.5303 627.2466,-187.4336 629.4987,-194.0615"/>
</g>
</g>
</svg>
