<?xml version="1.0" encoding="UTF-8" standalone="no"?>
<!DOCTYPE svg PUBLIC "-//W3C//DTD SVG 1.1//EN"
 "http://www.w3.org/Graphics/SVG/1.1/DTD/svg11.dtd">
<!-- Generated by graphviz version 2.40.1 (20161225.0304)
 -->
<!-- Title: SO3Utils.h Pages: 1 -->
<svg width="930pt" height="364pt"
 viewBox="0.00 0.00 929.95 364.00" xmlns="http://www.w3.org/2000/svg" xmlns:xlink="http://www.w3.org/1999/xlink">
<g id="graph0" class="graph" transform="scale(1 1) rotate(0) translate(4 360)">
<title>SO3Utils.h</title>
<!-- Node0 -->
<g id="node1" class="node">
<title>Node0</title>
<polygon fill="#bfbfbf" stroke="#000000" points="551.9472,-336.5 551.9472,-355.5 619.9472,-355.5 619.9472,-336.5 551.9472,-336.5"/>
<text text-anchor="middle" x="585.9472" y="-343.5" font-family="FreeSans.ttf" font-size="10.00" fill="#000000">SO3Utils.h</text>
</g>
<!-- Node1 -->
<g id="node2" class="node">
<title>Node1</title>
<g id="a_node2"><a xlink:href="Rotation_8h.html" target="_top" xlink:title="iDynTree/Core/Rotation.h">
<polygon fill="none" stroke="#000000" points="414.4472,-280.5 414.4472,-299.5 551.4472,-299.5 551.4472,-280.5 414.4472,-280.5"/>
<text text-anchor="middle" x="482.9472" y="-287.5" font-family="FreeSans.ttf" font-size="10.00" fill="#000000">iDynTree/Core/Rotation.h</text>
</a>
</g>
</g>
<!-- Node0&#45;&gt;Node1 -->
<g id="edge1" class="edge">
<title>Node0&#45;&gt;Node1</title>
<path fill="none" stroke="#191970" d="M568.0059,-336.2455C551.9072,-327.4928 528.0593,-314.527 509.7081,-304.5496"/>
<polygon fill="#191970" stroke="#191970" points="511.1401,-301.3444 500.6828,-299.6427 507.7965,-307.4942 511.1401,-301.3444"/>
</g>
<!-- Node3 -->
<g id="node4" class="node">
<title>Node3</title>
<g id="a_node4"><a xlink:href="GeomVector3_8h.html" target="_top" xlink:title="iDynTree/Core/GeomVector3.h">
<polygon fill="none" stroke="#000000" points="511.4472,-224.5 511.4472,-243.5 674.4472,-243.5 674.4472,-224.5 511.4472,-224.5"/>
<text text-anchor="middle" x="592.9472" y="-231.5" font-family="FreeSans.ttf" font-size="10.00" fill="#000000">iDynTree/Core/GeomVector3.h</text>
</a>
</g>
</g>
<!-- Node0&#45;&gt;Node3 -->
<g id="edge38" class="edge">
<title>Node0&#45;&gt;Node3</title>
<path fill="none" stroke="#191970" d="M586.544,-336.4509C587.6857,-318.184 590.2,-277.9553 591.7161,-253.6976"/>
<polygon fill="#191970" stroke="#191970" points="595.2212,-253.7238 592.3519,-243.5249 588.2348,-253.2871 595.2212,-253.7238"/>
</g>
<!-- Node23 -->
<g id="node24" class="node">
<title>Node23</title>
<polygon fill="none" stroke="#bfbfbf" points="614.4472,-280.5 614.4472,-299.5 661.4472,-299.5 661.4472,-280.5 614.4472,-280.5"/>
<text text-anchor="middle" x="637.9472" y="-287.5" font-family="FreeSans.ttf" font-size="10.00" fill="#000000">vector</text>
</g>
<!-- Node0&#45;&gt;Node23 -->
<g id="edge39" class="edge">
<title>Node0&#45;&gt;Node23</title>
<path fill="none" stroke="#191970" d="M595.0049,-336.2455C602.4613,-328.2155 613.2106,-316.6394 622.0889,-307.0781"/>
<polygon fill="#191970" stroke="#191970" points="624.7535,-309.3522 628.9933,-299.6427 619.6239,-304.589 624.7535,-309.3522"/>
</g>
<!-- Node2 -->
<g id="node3" class="node">
<title>Node2</title>
<polygon fill="none" stroke="#bfbfbf" points="446.9472,-112.5 446.9472,-131.5 490.9472,-131.5 490.9472,-112.5 446.9472,-112.5"/>
<text text-anchor="middle" x="468.9472" y="-119.5" font-family="FreeSans.ttf" font-size="10.00" fill="#000000">string</text>
</g>
<!-- Node1&#45;&gt;Node2 -->
<g id="edge2" class="edge">
<title>Node1&#45;&gt;Node2</title>
<path fill="none" stroke="#191970" d="M480.0206,-280.2657C474.1453,-259.682 461.6622,-210.1668 463.9472,-168 464.4134,-159.3971 465.3665,-149.9288 466.3168,-141.8301"/>
<polygon fill="#191970" stroke="#191970" points="469.7974,-142.2023 467.5648,-131.8453 462.8515,-141.334 469.7974,-142.2023"/>
</g>
<!-- Node1&#45;&gt;Node3 -->
<g id="edge3" class="edge">
<title>Node1&#45;&gt;Node3</title>
<path fill="none" stroke="#191970" d="M502.1077,-280.2455C519.4583,-271.4125 545.2372,-258.2887 564.9055,-248.2758"/>
<polygon fill="#191970" stroke="#191970" points="566.6825,-251.2986 574.0062,-243.6427 563.5067,-245.0605 566.6825,-251.2986"/>
</g>
<!-- Node4 -->
<g id="node5" class="node">
<title>Node4</title>
<g id="a_node5"><a xlink:href="VectorFixSize_8h.html" target="_top" xlink:title="iDynTree/Core/VectorFixSize.h">
<polygon fill="none" stroke="#000000" points="473.4472,-168.5 473.4472,-187.5 634.4472,-187.5 634.4472,-168.5 473.4472,-168.5"/>
<text text-anchor="middle" x="553.9472" y="-175.5" font-family="FreeSans.ttf" font-size="10.00" fill="#000000">iDynTree/Core/VectorFixSize.h</text>
</a>
</g>
</g>
<!-- Node1&#45;&gt;Node4 -->
<g id="edge37" class="edge">
<title>Node1&#45;&gt;Node4</title>
<path fill="none" stroke="#191970" d="M484.0069,-280.3498C485.8539,-266.8427 490.6117,-241.9436 501.9472,-224 509.3904,-212.2177 520.7179,-201.6947 530.9024,-193.697"/>
<polygon fill="#191970" stroke="#191970" points="533.1537,-196.3843 539.0783,-187.6008 528.9694,-190.7725 533.1537,-196.3843"/>
</g>
<!-- Node19 -->
<g id="node20" class="node">
<title>Node19</title>
<g id="a_node20"><a xlink:href="RotationRaw_8h.html" target="_top" xlink:title="iDynTree/Core/RotationRaw.h">
<polygon fill="none" stroke="#000000" points="258.9472,-224.5 258.9472,-243.5 416.9472,-243.5 416.9472,-224.5 258.9472,-224.5"/>
<text text-anchor="middle" x="337.9472" y="-231.5" font-family="FreeSans.ttf" font-size="10.00" fill="#000000">iDynTree/Core/RotationRaw.h</text>
</a>
</g>
</g>
<!-- Node1&#45;&gt;Node19 -->
<g id="edge23" class="edge">
<title>Node1&#45;&gt;Node19</title>
<path fill="none" stroke="#191970" d="M458.0208,-280.3733C434.327,-271.2226 398.4961,-257.3844 372.1404,-247.2057"/>
<polygon fill="#191970" stroke="#191970" points="373.1377,-243.8389 362.5483,-243.5011 370.6158,-250.3689 373.1377,-243.8389"/>
</g>
<!-- Node3&#45;&gt;Node4 -->
<g id="edge4" class="edge">
<title>Node3&#45;&gt;Node4</title>
<path fill="none" stroke="#191970" d="M586.1539,-224.2455C580.7293,-216.4564 572.9811,-205.3308 566.4439,-195.9439"/>
<polygon fill="#191970" stroke="#191970" points="569.2497,-193.8485 560.6626,-187.6427 563.5055,-197.849 569.2497,-193.8485"/>
</g>
<!-- Node4&#45;&gt;Node2 -->
<g id="edge18" class="edge">
<title>Node4&#45;&gt;Node2</title>
<path fill="none" stroke="#191970" d="M539.1413,-168.2455C526.2216,-159.7337 507.2541,-147.2375 492.2919,-137.3801"/>
<polygon fill="#191970" stroke="#191970" points="493.8596,-134.2216 483.5834,-131.6427 490.0084,-140.067 493.8596,-134.2216"/>
</g>
<!-- Node5 -->
<g id="node6" class="node">
<title>Node5</title>
<g id="a_node6"><a xlink:href="Utils_8h.html" target="_top" xlink:title="iDynTree/Core/Utils.h">
<polygon fill="none" stroke="#000000" points="272.4472,-56.5 272.4472,-75.5 391.4472,-75.5 391.4472,-56.5 272.4472,-56.5"/>
<text text-anchor="middle" x="331.9472" y="-63.5" font-family="FreeSans.ttf" font-size="10.00" fill="#000000">iDynTree/Core/Utils.h</text>
</a>
</g>
</g>
<!-- Node4&#45;&gt;Node5 -->
<g id="edge5" class="edge">
<title>Node4&#45;&gt;Node5</title>
<path fill="none" stroke="#191970" d="M548.6834,-168.3237C540.3032,-153.8453 522.542,-126.6798 499.9472,-112 470.6584,-92.9711 433.6008,-81.7493 401.7463,-75.1633"/>
<polygon fill="#191970" stroke="#191970" points="402.0885,-71.6641 391.6033,-73.1838 400.7477,-78.5345 402.0885,-71.6641"/>
</g>
<!-- Node6 -->
<g id="node7" class="node">
<title>Node6</title>
<polygon fill="none" stroke="#bfbfbf" points="446.4472,-.5 446.4472,-19.5 499.4472,-19.5 499.4472,-.5 446.4472,-.5"/>
<text text-anchor="middle" x="472.9472" y="-7.5" font-family="FreeSans.ttf" font-size="10.00" fill="#000000">cstddef</text>
</g>
<!-- Node4&#45;&gt;Node6 -->
<g id="edge21" class="edge">
<title>Node4&#45;&gt;Node6</title>
<path fill="none" stroke="#191970" d="M559.3241,-168.2229C570.6052,-146.2572 593.8821,-92.1012 570.9472,-56 563.7403,-44.6558 534.0004,-31.6302 509.1531,-22.3423"/>
<polygon fill="#191970" stroke="#191970" points="510.1749,-18.9896 499.5809,-18.8539 507.778,-25.5665 510.1749,-18.9896"/>
</g>
<!-- Node8 -->
<g id="node9" class="node">
<title>Node8</title>
<g id="a_node9"><a xlink:href="Span_8h.html" target="_top" xlink:title="iDynTree/Core/Span.h">
<polygon fill="none" stroke="#000000" points="623.4472,-56.5 623.4472,-75.5 744.4472,-75.5 744.4472,-56.5 623.4472,-56.5"/>
<text text-anchor="middle" x="683.9472" y="-63.5" font-family="FreeSans.ttf" font-size="10.00" fill="#000000">iDynTree/Core/Span.h</text>
</a>
</g>
</g>
<!-- Node4&#45;&gt;Node8 -->
<g id="edge8" class="edge">
<title>Node4&#45;&gt;Node8</title>
<path fill="none" stroke="#191970" d="M565.8211,-168.2147C577.0094,-158.9601 594.2091,-144.6445 608.9472,-132 628.3843,-115.324 650.3503,-95.9281 665.4616,-82.4976"/>
<polygon fill="#191970" stroke="#191970" points="667.9499,-84.9685 673.092,-75.7051 663.2955,-79.74 667.9499,-84.9685"/>
</g>
<!-- Node9 -->
<g id="node10" class="node">
<title>Node9</title>
<polygon fill="none" stroke="#bfbfbf" points="126.9472,-.5 126.9472,-19.5 178.9472,-19.5 178.9472,-.5 126.9472,-.5"/>
<text text-anchor="middle" x="152.9472" y="-7.5" font-family="FreeSans.ttf" font-size="10.00" fill="#000000">cassert</text>
</g>
<!-- Node4&#45;&gt;Node9 -->
<g id="edge20" class="edge">
<title>Node4&#45;&gt;Node9</title>
<path fill="none" stroke="#191970" d="M552.1621,-168.2273C549.116,-154.1153 541.6542,-127.9763 525.9472,-112 418.3014,-2.509 343.1636,-51.7953 192.9472,-20 191.6866,-19.7332 190.4056,-19.4545 189.1132,-19.1668"/>
<polygon fill="#191970" stroke="#191970" points="189.6678,-15.7022 179.1339,-16.8366 188.0761,-22.5189 189.6678,-15.7022"/>
</g>
<!-- Node17 -->
<g id="node18" class="node">
<title>Node17</title>
<polygon fill="none" stroke="#bfbfbf" points="304.9472,-112.5 304.9472,-131.5 360.9472,-131.5 360.9472,-112.5 304.9472,-112.5"/>
<text text-anchor="middle" x="332.9472" y="-119.5" font-family="FreeSans.ttf" font-size="10.00" fill="#000000">sstream</text>
</g>
<!-- Node4&#45;&gt;Node17 -->
<g id="edge19" class="edge">
<title>Node4&#45;&gt;Node17</title>
<path fill="none" stroke="#191970" d="M514.7679,-168.4337C479.5919,-159.7939 426.2858,-146.576 371.1599,-132.2841"/>
<polygon fill="#191970" stroke="#191970" points="371.7732,-128.8273 361.2143,-129.699 370.0121,-135.6022 371.7732,-128.8273"/>
</g>
<!-- Node18 -->
<g id="node19" class="node">
<title>Node18</title>
<polygon fill="none" stroke="#bfbfbf" points="378.9472,-112.5 378.9472,-131.5 428.9472,-131.5 428.9472,-112.5 378.9472,-112.5"/>
<text text-anchor="middle" x="403.9472" y="-119.5" font-family="FreeSans.ttf" font-size="10.00" fill="#000000">cstring</text>
</g>
<!-- Node4&#45;&gt;Node18 -->
<g id="edge22" class="edge">
<title>Node4&#45;&gt;Node18</title>
<path fill="none" stroke="#191970" d="M528.1613,-168.3733C503.5425,-159.1822 466.2572,-145.2624 438.9597,-135.0713"/>
<polygon fill="#191970" stroke="#191970" points="439.9892,-131.7198 429.3966,-131.5011 437.5409,-138.2777 439.9892,-131.7198"/>
</g>
<!-- Node5&#45;&gt;Node6 -->
<g id="edge6" class="edge">
<title>Node5&#45;&gt;Node6</title>
<path fill="none" stroke="#191970" d="M356.1859,-56.3733C379.2261,-47.2226 414.0686,-33.3844 439.6972,-23.2057"/>
<polygon fill="#191970" stroke="#191970" points="441.0228,-26.4452 449.0247,-19.5011 438.4389,-19.9395 441.0228,-26.4452"/>
</g>
<!-- Node7 -->
<g id="node8" class="node">
<title>Node7</title>
<polygon fill="none" stroke="#bfbfbf" points="291.9472,-.5 291.9472,-19.5 371.9472,-19.5 371.9472,-.5 291.9472,-.5"/>
<text text-anchor="middle" x="331.9472" y="-7.5" font-family="FreeSans.ttf" font-size="10.00" fill="#000000">CoreExport.h</text>
</g>
<!-- Node5&#45;&gt;Node7 -->
<g id="edge7" class="edge">
<title>Node5&#45;&gt;Node7</title>
<path fill="none" stroke="#191970" d="M331.9472,-56.2455C331.9472,-48.9382 331.9472,-38.6944 331.9472,-29.7046"/>
<polygon fill="#191970" stroke="#191970" points="335.4473,-29.6426 331.9472,-19.6427 328.4473,-29.6427 335.4473,-29.6426"/>
</g>
<!-- Node8&#45;&gt;Node6 -->
<g id="edge12" class="edge">
<title>Node8&#45;&gt;Node6</title>
<path fill="none" stroke="#191970" d="M646.4582,-56.464C612.8724,-47.8625 562.0192,-34.6958 509.504,-20.3898"/>
<polygon fill="#191970" stroke="#191970" points="510.2517,-16.9658 499.6827,-17.7061 508.4065,-23.7183 510.2517,-16.9658"/>
</g>
<!-- Node8&#45;&gt;Node9 -->
<g id="edge9" class="edge">
<title>Node8&#45;&gt;Node9</title>
<path fill="none" stroke="#191970" d="M622.974,-60.5358C496.1307,-49.1343 213.8346,-23.5682 192.9472,-20 191.6771,-19.783 190.3879,-19.5471 189.0885,-19.2961"/>
<polygon fill="#191970" stroke="#191970" points="189.59,-15.8238 179.0767,-17.1357 188.1135,-22.6663 189.59,-15.8238"/>
</g>
<!-- Node10 -->
<g id="node11" class="node">
<title>Node10</title>
<polygon fill="none" stroke="#bfbfbf" points="797.9472,-.5 797.9472,-19.5 861.9472,-19.5 861.9472,-.5 797.9472,-.5"/>
<text text-anchor="middle" x="829.9472" y="-7.5" font-family="FreeSans.ttf" font-size="10.00" fill="#000000">algorithm</text>
</g>
<!-- Node8&#45;&gt;Node10 -->
<g id="edge10" class="edge">
<title>Node8&#45;&gt;Node10</title>
<path fill="none" stroke="#191970" d="M709.0455,-56.3733C732.9027,-47.2226 768.9807,-33.3844 795.5181,-23.2057"/>
<polygon fill="#191970" stroke="#191970" points="797.0931,-26.3503 805.1764,-19.5011 794.5862,-19.8145 797.0931,-26.3503"/>
</g>
<!-- Node11 -->
<g id="node12" class="node">
<title>Node11</title>
<polygon fill="none" stroke="#bfbfbf" points="879.9472,-.5 879.9472,-19.5 921.9472,-19.5 921.9472,-.5 879.9472,-.5"/>
<text text-anchor="middle" x="900.9472" y="-7.5" font-family="FreeSans.ttf" font-size="10.00" fill="#000000">array</text>
</g>
<!-- Node8&#45;&gt;Node11 -->
<g id="edge11" class="edge">
<title>Node8&#45;&gt;Node11</title>
<path fill="none" stroke="#191970" d="M726.9125,-56.4677C762.8274,-48.2676 815.5736,-35.6887 869.9074,-20.1461"/>
<polygon fill="#191970" stroke="#191970" points="871.0724,-23.4527 879.7082,-17.3147 869.1296,-16.7277 871.0724,-23.4527"/>
</g>
<!-- Node12 -->
<g id="node13" class="node">
<title>Node12</title>
<polygon fill="none" stroke="#bfbfbf" points="517.4472,-.5 517.4472,-19.5 570.4472,-19.5 570.4472,-.5 517.4472,-.5"/>
<text text-anchor="middle" x="543.9472" y="-7.5" font-family="FreeSans.ttf" font-size="10.00" fill="#000000">iterator</text>
</g>
<!-- Node8&#45;&gt;Node12 -->
<g id="edge13" class="edge">
<title>Node8&#45;&gt;Node12</title>
<path fill="none" stroke="#191970" d="M659.8803,-56.3733C637.1043,-47.2629 602.7128,-33.5062 577.2981,-23.3404"/>
<polygon fill="#191970" stroke="#191970" points="578.2846,-19.9654 567.7,-19.5011 575.6849,-26.4648 578.2846,-19.9654"/>
</g>
<!-- Node13 -->
<g id="node14" class="node">
<title>Node13</title>
<polygon fill="none" stroke="#bfbfbf" points="588.9472,-.5 588.9472,-19.5 632.9472,-19.5 632.9472,-.5 588.9472,-.5"/>
<text text-anchor="middle" x="610.9472" y="-7.5" font-family="FreeSans.ttf" font-size="10.00" fill="#000000">limits</text>
</g>
<!-- Node8&#45;&gt;Node13 -->
<g id="edge14" class="edge">
<title>Node8&#45;&gt;Node13</title>
<path fill="none" stroke="#191970" d="M671.2315,-56.2455C660.3451,-47.8943 644.4589,-35.7076 631.7272,-25.9408"/>
<polygon fill="#191970" stroke="#191970" points="633.5817,-22.9523 623.5171,-19.6427 629.3211,-28.5063 633.5817,-22.9523"/>
</g>
<!-- Node14 -->
<g id="node15" class="node">
<title>Node14</title>
<polygon fill="none" stroke="#bfbfbf" points="651.4472,-.5 651.4472,-19.5 716.4472,-19.5 716.4472,-.5 651.4472,-.5"/>
<text text-anchor="middle" x="683.9472" y="-7.5" font-family="FreeSans.ttf" font-size="10.00" fill="#000000">stdexcept</text>
</g>
<!-- Node8&#45;&gt;Node14 -->
<g id="edge15" class="edge">
<title>Node8&#45;&gt;Node14</title>
<path fill="none" stroke="#191970" d="M683.9472,-56.2455C683.9472,-48.9382 683.9472,-38.6944 683.9472,-29.7046"/>
<polygon fill="#191970" stroke="#191970" points="687.4473,-29.6426 683.9472,-19.6427 680.4473,-29.6427 687.4473,-29.6426"/>
</g>
<!-- Node15 -->
<g id="node16" class="node">
<title>Node15</title>
<polygon fill="none" stroke="#bfbfbf" points="202.4472,-.5 202.4472,-19.5 271.4472,-19.5 271.4472,-.5 202.4472,-.5"/>
<text text-anchor="middle" x="236.9472" y="-7.5" font-family="FreeSans.ttf" font-size="10.00" fill="#000000">type_traits</text>
</g>
<!-- Node8&#45;&gt;Node15 -->
<g id="edge16" class="edge">
<title>Node8&#45;&gt;Node15</title>
<path fill="none" stroke="#191970" d="M623.2787,-59.7918C527.8333,-49.8977 346.895,-30.5915 282.9472,-20 282.4836,-19.9232 282.0176,-19.8448 281.5495,-19.765"/>
<polygon fill="#191970" stroke="#191970" points="282.0087,-16.2905 271.538,-17.9073 280.7316,-23.173 282.0087,-16.2905"/>
</g>
<!-- Node16 -->
<g id="node17" class="node">
<title>Node16</title>
<polygon fill="none" stroke="#bfbfbf" points="734.4472,-.5 734.4472,-19.5 779.4472,-19.5 779.4472,-.5 734.4472,-.5"/>
<text text-anchor="middle" x="756.9472" y="-7.5" font-family="FreeSans.ttf" font-size="10.00" fill="#000000">utility</text>
</g>
<!-- Node8&#45;&gt;Node16 -->
<g id="edge17" class="edge">
<title>Node8&#45;&gt;Node16</title>
<path fill="none" stroke="#191970" d="M696.6628,-56.2455C707.5492,-47.8943 723.4355,-35.7076 736.1672,-25.9408"/>
<polygon fill="#191970" stroke="#191970" points="738.5732,-28.5063 744.3773,-19.6427 734.3126,-22.9523 738.5732,-28.5063"/>
</g>
<!-- Node19&#45;&gt;Node2 -->
<g id="edge36" class="edge">
<title>Node19&#45;&gt;Node2</title>
<path fill="none" stroke="#191970" d="M349.1162,-224.4509C371.5455,-205.2747 422.2828,-161.8962 450.0003,-138.1988"/>
<polygon fill="#191970" stroke="#191970" points="452.4801,-140.6835 457.8065,-131.5249 447.9312,-135.363 452.4801,-140.6835"/>
</g>
<!-- Node20 -->
<g id="node21" class="node">
<title>Node20</title>
<g id="a_node21"><a xlink:href="MatrixFixSize_8h.html" target="_top" xlink:title="iDynTree/Core/MatrixFixSize.h">
<polygon fill="none" stroke="#000000" points="208.4472,-168.5 208.4472,-187.5 369.4472,-187.5 369.4472,-168.5 208.4472,-168.5"/>
<text text-anchor="middle" x="288.9472" y="-175.5" font-family="FreeSans.ttf" font-size="10.00" fill="#000000">iDynTree/Core/MatrixFixSize.h</text>
</a>
</g>
</g>
<!-- Node19&#45;&gt;Node20 -->
<g id="edge24" class="edge">
<title>Node19&#45;&gt;Node20</title>
<path fill="none" stroke="#191970" d="M329.412,-224.2455C322.456,-216.2958 312.4589,-204.8706 304.1421,-195.3656"/>
<polygon fill="#191970" stroke="#191970" points="306.6036,-192.8637 297.3845,-187.6427 301.3356,-197.4732 306.6036,-192.8637"/>
</g>
<!-- Node20&#45;&gt;Node2 -->
<g id="edge33" class="edge">
<title>Node20&#45;&gt;Node2</title>
<path fill="none" stroke="#191970" d="M320.3767,-168.4227C348.6112,-159.7911 391.4432,-146.6289 437.4029,-132.1469"/>
<polygon fill="#191970" stroke="#191970" points="438.4598,-135.4836 446.9427,-129.136 436.3529,-128.8082 438.4598,-135.4836"/>
</g>
<!-- Node20&#45;&gt;Node5 -->
<g id="edge25" class="edge">
<title>Node20&#45;&gt;Node5</title>
<path fill="none" stroke="#191970" d="M288.3402,-168.1991C287.8801,-154.943 288.3336,-130.7964 295.9472,-112 300.2874,-101.2849 307.901,-90.991 315.012,-82.868"/>
<polygon fill="#191970" stroke="#191970" points="317.5808,-85.2451 321.8156,-75.5334 312.4488,-80.4846 317.5808,-85.2451"/>
</g>
<!-- Node20&#45;&gt;Node9 -->
<g id="edge31" class="edge">
<title>Node20&#45;&gt;Node9</title>
<path fill="none" stroke="#191970" d="M208.2041,-170.001C130.4529,-161.4644 22.7719,-147.1124 9.9472,-132 -29.1134,-85.972 62.9447,-42.761 117.0237,-22.3296"/>
<polygon fill="#191970" stroke="#191970" points="118.4676,-25.5277 126.6393,-18.7842 116.046,-18.9599 118.4676,-25.5277"/>
</g>
<!-- Node20&#45;&gt;Node17 -->
<g id="edge35" class="edge">
<title>Node20&#45;&gt;Node17</title>
<path fill="none" stroke="#191970" d="M296.6114,-168.2455C302.7945,-160.3761 311.6535,-149.101 319.076,-139.6542"/>
<polygon fill="#191970" stroke="#191970" points="321.9447,-141.6683 325.3708,-131.6427 316.4404,-137.3435 321.9447,-141.6683"/>
</g>
<!-- Node20&#45;&gt;Node18 -->
<g id="edge32" class="edge">
<title>Node20&#45;&gt;Node18</title>
<path fill="none" stroke="#191970" d="M308.7164,-168.3733C327.0941,-159.4241 354.6784,-145.9917 375.4364,-135.8835"/>
<polygon fill="#191970" stroke="#191970" points="376.9776,-139.026 384.4359,-131.5011 373.9129,-132.7325 376.9776,-139.026"/>
</g>
<!-- Node21 -->
<g id="node22" class="node">
<title>Node21</title>
<g id="a_node22"><a xlink:href="MatrixView_8h.html" target="_top" xlink:title="iDynTree/Core/MatrixView.h">
<polygon fill="none" stroke="#000000" points="19.4472,-112.5 19.4472,-131.5 170.4472,-131.5 170.4472,-112.5 19.4472,-112.5"/>
<text text-anchor="middle" x="94.9472" y="-119.5" font-family="FreeSans.ttf" font-size="10.00" fill="#000000">iDynTree/Core/MatrixView.h</text>
</a>
</g>
</g>
<!-- Node20&#45;&gt;Node21 -->
<g id="edge26" class="edge">
<title>Node20&#45;&gt;Node21</title>
<path fill="none" stroke="#191970" d="M255.5974,-168.3733C222.9192,-158.9404 172.9854,-144.5265 137.4702,-134.2747"/>
<polygon fill="#191970" stroke="#191970" points="138.4402,-130.9119 127.8618,-131.5011 136.4988,-137.6373 138.4402,-130.9119"/>
</g>
<!-- Node22 -->
<g id="node23" class="node">
<title>Node22</title>
<polygon fill="none" stroke="#bfbfbf" points="188.9472,-112.5 188.9472,-131.5 248.9472,-131.5 248.9472,-112.5 188.9472,-112.5"/>
<text text-anchor="middle" x="218.9472" y="-119.5" font-family="FreeSans.ttf" font-size="10.00" fill="#000000">iostream</text>
</g>
<!-- Node20&#45;&gt;Node22 -->
<g id="edge34" class="edge">
<title>Node20&#45;&gt;Node22</title>
<path fill="none" stroke="#191970" d="M276.7541,-168.2455C266.3151,-159.8943 251.0817,-147.7076 238.8732,-137.9408"/>
<polygon fill="#191970" stroke="#191970" points="240.9957,-135.1566 231.0005,-131.6427 236.6228,-140.6227 240.9957,-135.1566"/>
</g>
<!-- Node21&#45;&gt;Node5 -->
<g id="edge30" class="edge">
<title>Node21&#45;&gt;Node5</title>
<path fill="none" stroke="#191970" d="M135.4196,-112.4369C175.8951,-102.8731 238.2339,-88.1432 281.8174,-77.845"/>
<polygon fill="#191970" stroke="#191970" points="282.7145,-81.2295 291.6416,-75.5237 281.1048,-74.4171 282.7145,-81.2295"/>
</g>
<!-- Node21&#45;&gt;Node8 -->
<g id="edge29" class="edge">
<title>Node21&#45;&gt;Node8</title>
<path fill="none" stroke="#191970" d="M170.4796,-113.0102C173.6775,-112.6624 176.8437,-112.3241 179.9472,-112 334.4019,-95.8687 515.8223,-80.0852 613.3502,-71.8584"/>
<polygon fill="#191970" stroke="#191970" points="613.7133,-75.3404 623.3844,-71.0137 613.126,-68.365 613.7133,-75.3404"/>
</g>
<!-- Node21&#45;&gt;Node9 -->
<g id="edge27" class="edge">
<title>Node21&#45;&gt;Node9</title>
<path fill="none" stroke="#191970" d="M99.8922,-112.4509C109.4803,-93.936 130.7523,-52.8591 143.2536,-28.7187"/>
<polygon fill="#191970" stroke="#191970" points="146.524,-30.0144 148.0146,-19.5249 140.3081,-26.7953 146.524,-30.0144"/>
</g>
<!-- Node21&#45;&gt;Node15 -->
<g id="edge28" class="edge">
<title>Node21&#45;&gt;Node15</title>
<path fill="none" stroke="#191970" d="M107.054,-112.4509C131.4715,-93.1921 186.8391,-49.5218 216.7965,-25.8935"/>
<polygon fill="#191970" stroke="#191970" points="219.1868,-28.4659 224.871,-19.5249 214.8518,-22.9697 219.1868,-28.4659"/>
</g>
</g>
</svg>
