<?xml version="1.0" encoding="UTF-8" standalone="no"?>
<!DOCTYPE svg PUBLIC "-//W3C//DTD SVG 1.1//EN"
 "http://www.w3.org/Graphics/SVG/1.1/DTD/svg11.dtd">
<!-- Generated by graphviz version 2.40.1 (20161225.0304)
 -->
<!-- Title: SolidShapes.h Pages: 1 -->
<svg width="1053pt" height="476pt"
 viewBox="0.00 0.00 1052.71 476.00" xmlns="http://www.w3.org/2000/svg" xmlns:xlink="http://www.w3.org/1999/xlink">
<g id="graph0" class="graph" transform="scale(1 1) rotate(0) translate(4 472)">
<title>SolidShapes.h</title>
<!-- Node0 -->
<g id="node1" class="node">
<title>Node0</title>
<polygon fill="#bfbfbf" stroke="#000000" points="123.5,-448.5 123.5,-467.5 208.5,-467.5 208.5,-448.5 123.5,-448.5"/>
<text text-anchor="middle" x="166" y="-455.5" font-family="FreeSans.ttf" font-size="10.00" fill="#000000">SolidShapes.h</text>
</g>
<!-- Node1 -->
<g id="node2" class="node">
<title>Node1</title>
<polygon fill="none" stroke="#bfbfbf" points="50.5,-392.5 50.5,-411.5 99.5,-411.5 99.5,-392.5 50.5,-392.5"/>
<text text-anchor="middle" x="75" y="-399.5" font-family="FreeSans.ttf" font-size="10.00" fill="#000000">cstdlib</text>
</g>
<!-- Node0&#45;&gt;Node1 -->
<g id="edge1" class="edge">
<title>Node0&#45;&gt;Node1</title>
<path fill="none" stroke="#191970" d="M150.149,-448.2455C136.1868,-439.6534 115.6272,-427.0014 99.5404,-417.1018"/>
<polygon fill="#191970" stroke="#191970" points="101.0203,-413.9029 90.6693,-411.6427 97.3516,-419.8645 101.0203,-413.9029"/>
</g>
<!-- Node2 -->
<g id="node3" class="node">
<title>Node2</title>
<polygon fill="none" stroke="#bfbfbf" points="326,-112.5 326,-131.5 370,-131.5 370,-112.5 326,-112.5"/>
<text text-anchor="middle" x="348" y="-119.5" font-family="FreeSans.ttf" font-size="10.00" fill="#000000">string</text>
</g>
<!-- Node0&#45;&gt;Node2 -->
<g id="edge2" class="edge">
<title>Node0&#45;&gt;Node2</title>
<path fill="none" stroke="#191970" d="M166,-448.4116C166,-429.0538 166,-383.9167 166,-346 166,-346 166,-346 166,-234 166,-164.5809 263.226,-136.8067 315.5539,-126.8855"/>
<polygon fill="#191970" stroke="#191970" points="316.4519,-130.2807 325.6832,-125.0814 315.2244,-123.3892 316.4519,-130.2807"/>
</g>
<!-- Node3 -->
<g id="node4" class="node">
<title>Node3</title>
<polygon fill="none" stroke="#bfbfbf" points="386.5,-392.5 386.5,-411.5 433.5,-411.5 433.5,-392.5 386.5,-392.5"/>
<text text-anchor="middle" x="410" y="-399.5" font-family="FreeSans.ttf" font-size="10.00" fill="#000000">vector</text>
</g>
<!-- Node0&#45;&gt;Node3 -->
<g id="edge3" class="edge">
<title>Node0&#45;&gt;Node3</title>
<path fill="none" stroke="#191970" d="M208.6708,-449.7353C249.3708,-441.621 312.5764,-428.4208 376.4343,-411.9924"/>
<polygon fill="#191970" stroke="#191970" points="377.4722,-415.3391 386.2709,-409.4371 375.7121,-408.564 377.4722,-415.3391"/>
</g>
<!-- Node4 -->
<g id="node5" class="node">
<title>Node4</title>
<g id="a_node5"><a xlink:href="Transform_8h.html" target="_top" xlink:title="iDynTree/Core/Transform.h">
<polygon fill="none" stroke="#000000" points="222,-392.5 222,-411.5 368,-411.5 368,-392.5 222,-392.5"/>
<text text-anchor="middle" x="295" y="-399.5" font-family="FreeSans.ttf" font-size="10.00" fill="#000000">iDynTree/Core/Transform.h</text>
</a>
</g>
</g>
<!-- Node0&#45;&gt;Node4 -->
<g id="edge4" class="edge">
<title>Node0&#45;&gt;Node4</title>
<path fill="none" stroke="#191970" d="M188.1759,-448.3733C208.9766,-439.3435 240.2917,-425.7494 263.6458,-415.6111"/>
<polygon fill="#191970" stroke="#191970" points="265.3343,-418.6938 273.1135,-411.5011 262.5468,-412.2727 265.3343,-418.6938"/>
</g>
<!-- Node28 -->
<g id="node29" class="node">
<title>Node28</title>
<g id="a_node29"><a xlink:href="Indices_8h.html" target="_top" xlink:title="iDynTree/Model/Indices.h">
<polygon fill="none" stroke="#000000" points="0,-168.5 0,-187.5 138,-187.5 138,-168.5 0,-168.5"/>
<text text-anchor="middle" x="69" y="-175.5" font-family="FreeSans.ttf" font-size="10.00" fill="#000000">iDynTree/Model/Indices.h</text>
</a>
</g>
</g>
<!-- Node0&#45;&gt;Node28 -->
<g id="edge50" class="edge">
<title>Node0&#45;&gt;Node28</title>
<path fill="none" stroke="#191970" d="M160.393,-448.4834C149.8226,-429.6141 128,-385.8343 128,-346 128,-346 128,-346 128,-290 128,-252.9131 102.3634,-216.0541 84.8885,-195.2374"/>
<polygon fill="#191970" stroke="#191970" points="87.4288,-192.8251 78.2188,-187.5881 82.1528,-197.4255 87.4288,-192.8251"/>
</g>
<!-- Node4&#45;&gt;Node2 -->
<g id="edge49" class="edge">
<title>Node4&#45;&gt;Node2</title>
<path fill="none" stroke="#191970" d="M279.149,-392.4609C253.0769,-375.4246 204,-337.1008 204,-290 204,-290 204,-290 204,-234 204,-177.5572 273.7848,-145.422 316.1938,-131.1043"/>
<polygon fill="#191970" stroke="#191970" points="317.3727,-134.4017 325.8156,-128.001 315.224,-127.7396 317.3727,-134.4017"/>
</g>
<!-- Node5 -->
<g id="node6" class="node">
<title>Node5</title>
<g id="a_node6"><a xlink:href="Position_8h.html" target="_top" xlink:title="iDynTree/Core/Position.h">
<polygon fill="none" stroke="#000000" points="256,-336.5 256,-355.5 392,-355.5 392,-336.5 256,-336.5"/>
<text text-anchor="middle" x="324" y="-343.5" font-family="FreeSans.ttf" font-size="10.00" fill="#000000">iDynTree/Core/Position.h</text>
</a>
</g>
</g>
<!-- Node4&#45;&gt;Node5 -->
<g id="edge5" class="edge">
<title>Node4&#45;&gt;Node5</title>
<path fill="none" stroke="#191970" d="M300.0514,-392.2455C304.0019,-384.617 309.6097,-373.7881 314.4058,-364.5267"/>
<polygon fill="#191970" stroke="#191970" points="317.5159,-366.1321 319.0065,-355.6427 311.2999,-362.9131 317.5159,-366.1321"/>
</g>
<!-- Node22 -->
<g id="node23" class="node">
<title>Node22</title>
<g id="a_node23"><a xlink:href="Rotation_8h.html" target="_top" xlink:title="iDynTree/Core/Rotation.h">
<polygon fill="none" stroke="#000000" points="438.5,-280.5 438.5,-299.5 575.5,-299.5 575.5,-280.5 438.5,-280.5"/>
<text text-anchor="middle" x="507" y="-287.5" font-family="FreeSans.ttf" font-size="10.00" fill="#000000">iDynTree/Core/Rotation.h</text>
</a>
</g>
</g>
<!-- Node4&#45;&gt;Node22 -->
<g id="edge47" class="edge">
<title>Node4&#45;&gt;Node22</title>
<path fill="none" stroke="#191970" d="M319.8993,-392.407C341.6917,-383.7271 373.998,-370.1665 401,-356 430.7656,-340.3836 463.3604,-319.4722 484.4377,-305.4088"/>
<polygon fill="#191970" stroke="#191970" points="486.6479,-308.1403 492.9917,-299.6547 482.7408,-302.3322 486.6479,-308.1403"/>
</g>
<!-- Node25 -->
<g id="node26" class="node">
<title>Node25</title>
<g id="a_node26"><a xlink:href="MatrixFixSize_8h.html" target="_top" xlink:title="iDynTree/Core/MatrixFixSize.h">
<polygon fill="none" stroke="#000000" points="699.5,-168.5 699.5,-187.5 860.5,-187.5 860.5,-168.5 699.5,-168.5"/>
<text text-anchor="middle" x="780" y="-175.5" font-family="FreeSans.ttf" font-size="10.00" fill="#000000">iDynTree/Core/MatrixFixSize.h</text>
</a>
</g>
</g>
<!-- Node4&#45;&gt;Node25 -->
<g id="edge48" class="edge">
<title>Node4&#45;&gt;Node25</title>
<path fill="none" stroke="#191970" d="M364.9011,-392.466C499.9512,-372.4614 788.6038,-321.4561 847,-244 861.9042,-224.2312 835.6479,-204.7265 811.7613,-192.1082"/>
<polygon fill="#191970" stroke="#191970" points="813.3214,-188.9752 802.8132,-187.6232 810.1847,-195.2331 813.3214,-188.9752"/>
</g>
<!-- Node5&#45;&gt;Node2 -->
<g id="edge46" class="edge">
<title>Node5&#45;&gt;Node2</title>
<path fill="none" stroke="#191970" d="M312.5775,-336.261C290.3559,-316.064 244.8431,-267.8397 261,-224 274.2161,-188.1397 306.2714,-156.3177 327.561,-138.1071"/>
<polygon fill="#191970" stroke="#191970" points="329.9434,-140.6782 335.4008,-131.597 325.4715,-135.2929 329.9434,-140.6782"/>
</g>
<!-- Node6 -->
<g id="node7" class="node">
<title>Node6</title>
<g id="a_node7"><a xlink:href="PositionRaw_8h.html" target="_top" xlink:title="iDynTree/Core/PositionRaw.h">
<polygon fill="none" stroke="#000000" points="270,-224.5 270,-243.5 426,-243.5 426,-224.5 270,-224.5"/>
<text text-anchor="middle" x="348" y="-231.5" font-family="FreeSans.ttf" font-size="10.00" fill="#000000">iDynTree/Core/PositionRaw.h</text>
</a>
</g>
</g>
<!-- Node5&#45;&gt;Node6 -->
<g id="edge6" class="edge">
<title>Node5&#45;&gt;Node6</title>
<path fill="none" stroke="#191970" d="M326.0462,-336.4509C329.9783,-318.1013 338.6591,-277.5908 343.8494,-253.3693"/>
<polygon fill="#191970" stroke="#191970" points="347.2859,-254.0363 345.959,-243.5249 340.4413,-252.5695 347.2859,-254.0363"/>
</g>
<!-- Node5&#45;&gt;Node22 -->
<g id="edge27" class="edge">
<title>Node5&#45;&gt;Node22</title>
<path fill="none" stroke="#191970" d="M355.4588,-336.3733C386.0207,-327.021 432.5826,-312.7725 466.0261,-302.5385"/>
<polygon fill="#191970" stroke="#191970" points="467.4136,-305.7742 475.9517,-299.5011 465.3652,-299.0806 467.4136,-305.7742"/>
</g>
<!-- Node6&#45;&gt;Node2 -->
<g id="edge26" class="edge">
<title>Node6&#45;&gt;Node2</title>
<path fill="none" stroke="#191970" d="M348,-224.4509C348,-206.184 348,-165.9553 348,-141.6976"/>
<polygon fill="#191970" stroke="#191970" points="351.5001,-141.5249 348,-131.5249 344.5001,-141.5249 351.5001,-141.5249"/>
</g>
<!-- Node7 -->
<g id="node8" class="node">
<title>Node7</title>
<g id="a_node8"><a xlink:href="VectorFixSize_8h.html" target="_top" xlink:title="iDynTree/Core/VectorFixSize.h">
<polygon fill="none" stroke="#000000" points="520.5,-168.5 520.5,-187.5 681.5,-187.5 681.5,-168.5 520.5,-168.5"/>
<text text-anchor="middle" x="601" y="-175.5" font-family="FreeSans.ttf" font-size="10.00" fill="#000000">iDynTree/Core/VectorFixSize.h</text>
</a>
</g>
</g>
<!-- Node6&#45;&gt;Node7 -->
<g id="edge7" class="edge">
<title>Node6&#45;&gt;Node7</title>
<path fill="none" stroke="#191970" d="M391.2048,-224.4369C434.5947,-214.8328 501.5209,-200.0191 548.0726,-189.7152"/>
<polygon fill="#191970" stroke="#191970" points="548.9662,-193.1022 557.9734,-187.5237 547.4533,-186.2676 548.9662,-193.1022"/>
</g>
<!-- Node7&#45;&gt;Node2 -->
<g id="edge21" class="edge">
<title>Node7&#45;&gt;Node2</title>
<path fill="none" stroke="#191970" d="M557.7952,-168.4369C507.3859,-157.2791 425.2092,-139.0898 380.1202,-129.1096"/>
<polygon fill="#191970" stroke="#191970" points="380.8114,-125.678 370.2913,-126.934 379.2986,-132.5125 380.8114,-125.678"/>
</g>
<!-- Node8 -->
<g id="node9" class="node">
<title>Node8</title>
<g id="a_node9"><a xlink:href="Utils_8h.html" target="_top" xlink:title="iDynTree/Core/Utils.h">
<polygon fill="none" stroke="#000000" points="450.5,-56.5 450.5,-75.5 569.5,-75.5 569.5,-56.5 450.5,-56.5"/>
<text text-anchor="middle" x="510" y="-63.5" font-family="FreeSans.ttf" font-size="10.00" fill="#000000">iDynTree/Core/Utils.h</text>
</a>
</g>
</g>
<!-- Node7&#45;&gt;Node8 -->
<g id="edge8" class="edge">
<title>Node7&#45;&gt;Node8</title>
<path fill="none" stroke="#191970" d="M580.5829,-168.3489C565.8121,-160.4362 546.354,-147.9523 534,-132 523.5147,-118.4608 517.3106,-99.9112 513.8461,-85.9246"/>
<polygon fill="#191970" stroke="#191970" points="517.1996,-84.8788 511.6256,-75.8688 510.3642,-86.3883 517.1996,-84.8788"/>
</g>
<!-- Node9 -->
<g id="node10" class="node">
<title>Node9</title>
<polygon fill="none" stroke="#bfbfbf" points="300.5,-.5 300.5,-19.5 353.5,-19.5 353.5,-.5 300.5,-.5"/>
<text text-anchor="middle" x="327" y="-7.5" font-family="FreeSans.ttf" font-size="10.00" fill="#000000">cstddef</text>
</g>
<!-- Node7&#45;&gt;Node9 -->
<g id="edge24" class="edge">
<title>Node7&#45;&gt;Node9</title>
<path fill="none" stroke="#191970" d="M583.0074,-168.4474C566.071,-159.3573 540.0799,-145.1529 518,-132 456.559,-95.3999 386.0824,-49.2726 350.3722,-25.5962"/>
<polygon fill="#191970" stroke="#191970" points="351.9291,-22.4285 341.663,-19.8096 348.0552,-28.2589 351.9291,-22.4285"/>
</g>
<!-- Node11 -->
<g id="node12" class="node">
<title>Node11</title>
<g id="a_node12"><a xlink:href="Span_8h.html" target="_top" xlink:title="iDynTree/Core/Span.h">
<polygon fill="none" stroke="#000000" points="642.5,-56.5 642.5,-75.5 763.5,-75.5 763.5,-56.5 642.5,-56.5"/>
<text text-anchor="middle" x="703" y="-63.5" font-family="FreeSans.ttf" font-size="10.00" fill="#000000">iDynTree/Core/Span.h</text>
</a>
</g>
</g>
<!-- Node7&#45;&gt;Node11 -->
<g id="edge11" class="edge">
<title>Node7&#45;&gt;Node11</title>
<path fill="none" stroke="#191970" d="M589.2401,-168.0925C574.8055,-154.7156 553.7762,-130.4325 567,-112 576.7767,-98.3724 613.8587,-86.3603 646.8356,-78.0314"/>
<polygon fill="#191970" stroke="#191970" points="648.0221,-81.3443 656.9032,-75.567 646.3578,-74.545 648.0221,-81.3443"/>
</g>
<!-- Node12 -->
<g id="node13" class="node">
<title>Node12</title>
<polygon fill="none" stroke="#bfbfbf" points="981,-.5 981,-19.5 1033,-19.5 1033,-.5 981,-.5"/>
<text text-anchor="middle" x="1007" y="-7.5" font-family="FreeSans.ttf" font-size="10.00" fill="#000000">cassert</text>
</g>
<!-- Node7&#45;&gt;Node12 -->
<g id="edge23" class="edge">
<title>Node7&#45;&gt;Node12</title>
<path fill="none" stroke="#191970" d="M676.6523,-168.4721C766.8329,-156.8946 906.7461,-138.1448 917,-132 957.8392,-107.5263 985.9001,-56.7258 998.8506,-29.0231"/>
<polygon fill="#191970" stroke="#191970" points="1002.1609,-30.1956 1003.0693,-19.6398 995.7764,-27.3252 1002.1609,-30.1956"/>
</g>
<!-- Node20 -->
<g id="node21" class="node">
<title>Node20</title>
<polygon fill="none" stroke="#bfbfbf" points="644,-112.5 644,-131.5 700,-131.5 700,-112.5 644,-112.5"/>
<text text-anchor="middle" x="672" y="-119.5" font-family="FreeSans.ttf" font-size="10.00" fill="#000000">sstream</text>
</g>
<!-- Node7&#45;&gt;Node20 -->
<g id="edge22" class="edge">
<title>Node7&#45;&gt;Node20</title>
<path fill="none" stroke="#191970" d="M613.3673,-168.2455C623.9554,-159.8943 639.4064,-147.7076 651.7893,-137.9408"/>
<polygon fill="#191970" stroke="#191970" points="654.0903,-140.5837 659.7745,-131.6427 649.7553,-135.0875 654.0903,-140.5837"/>
</g>
<!-- Node21 -->
<g id="node22" class="node">
<title>Node21</title>
<polygon fill="none" stroke="#bfbfbf" points="576,-112.5 576,-131.5 626,-131.5 626,-112.5 576,-112.5"/>
<text text-anchor="middle" x="601" y="-119.5" font-family="FreeSans.ttf" font-size="10.00" fill="#000000">cstring</text>
</g>
<!-- Node7&#45;&gt;Node21 -->
<g id="edge25" class="edge">
<title>Node7&#45;&gt;Node21</title>
<path fill="none" stroke="#191970" d="M601,-168.2455C601,-160.9382 601,-150.6944 601,-141.7046"/>
<polygon fill="#191970" stroke="#191970" points="604.5001,-141.6426 601,-131.6427 597.5001,-141.6427 604.5001,-141.6426"/>
</g>
<!-- Node8&#45;&gt;Node9 -->
<g id="edge9" class="edge">
<title>Node8&#45;&gt;Node9</title>
<path fill="none" stroke="#191970" d="M478.5412,-56.3733C446.5902,-46.5959 397.1514,-31.4671 363.4975,-21.1686"/>
<polygon fill="#191970" stroke="#191970" points="364.1833,-17.7183 353.5968,-18.1389 362.1349,-24.4119 364.1833,-17.7183"/>
</g>
<!-- Node10 -->
<g id="node11" class="node">
<title>Node10</title>
<polygon fill="none" stroke="#bfbfbf" points="372,-.5 372,-19.5 452,-19.5 452,-.5 372,-.5"/>
<text text-anchor="middle" x="412" y="-7.5" font-family="FreeSans.ttf" font-size="10.00" fill="#000000">CoreExport.h</text>
</g>
<!-- Node8&#45;&gt;Node10 -->
<g id="edge10" class="edge">
<title>Node8&#45;&gt;Node10</title>
<path fill="none" stroke="#191970" d="M492.9297,-56.2455C477.753,-47.5731 455.3379,-34.7645 437.9437,-24.825"/>
<polygon fill="#191970" stroke="#191970" points="439.2936,-21.5653 428.8747,-19.6427 435.8206,-27.643 439.2936,-21.5653"/>
</g>
<!-- Node11&#45;&gt;Node9 -->
<g id="edge15" class="edge">
<title>Node11&#45;&gt;Node9</title>
<path fill="none" stroke="#191970" d="M642.3915,-60.3226C576.1962,-53.557 466.9473,-40.7401 363.6172,-19.8796"/>
<polygon fill="#191970" stroke="#191970" points="364.1366,-16.4134 353.6376,-17.8357 362.732,-23.2711 364.1366,-16.4134"/>
</g>
<!-- Node11&#45;&gt;Node12 -->
<g id="edge12" class="edge">
<title>Node11&#45;&gt;Node12</title>
<path fill="none" stroke="#191970" d="M763.7346,-57.546C816.254,-49.797 894.3591,-37.2272 970.8964,-20.0712"/>
<polygon fill="#191970" stroke="#191970" points="971.7288,-23.4714 980.7061,-17.8448 970.1795,-16.645 971.7288,-23.4714"/>
</g>
<!-- Node13 -->
<g id="node14" class="node">
<title>Node13</title>
<polygon fill="none" stroke="#bfbfbf" points="534,-.5 534,-19.5 598,-19.5 598,-.5 534,-.5"/>
<text text-anchor="middle" x="566" y="-7.5" font-family="FreeSans.ttf" font-size="10.00" fill="#000000">algorithm</text>
</g>
<!-- Node11&#45;&gt;Node13 -->
<g id="edge13" class="edge">
<title>Node11&#45;&gt;Node13</title>
<path fill="none" stroke="#191970" d="M679.4489,-56.3733C657.1609,-47.2629 623.5063,-33.5062 598.6363,-23.3404"/>
<polygon fill="#191970" stroke="#191970" points="599.8247,-20.0451 589.2438,-19.5011 597.1761,-26.5247 599.8247,-20.0451"/>
</g>
<!-- Node14 -->
<g id="node15" class="node">
<title>Node14</title>
<polygon fill="none" stroke="#bfbfbf" points="616,-.5 616,-19.5 658,-19.5 658,-.5 616,-.5"/>
<text text-anchor="middle" x="637" y="-7.5" font-family="FreeSans.ttf" font-size="10.00" fill="#000000">array</text>
</g>
<!-- Node11&#45;&gt;Node14 -->
<g id="edge14" class="edge">
<title>Node11&#45;&gt;Node14</title>
<path fill="none" stroke="#191970" d="M691.5037,-56.2455C681.7558,-47.9746 667.5741,-35.9416 656.1202,-26.2232"/>
<polygon fill="#191970" stroke="#191970" points="658.2541,-23.4437 648.3646,-19.6427 653.7253,-28.7813 658.2541,-23.4437"/>
</g>
<!-- Node15 -->
<g id="node16" class="node">
<title>Node15</title>
<polygon fill="none" stroke="#bfbfbf" points="676.5,-.5 676.5,-19.5 729.5,-19.5 729.5,-.5 676.5,-.5"/>
<text text-anchor="middle" x="703" y="-7.5" font-family="FreeSans.ttf" font-size="10.00" fill="#000000">iterator</text>
</g>
<!-- Node11&#45;&gt;Node15 -->
<g id="edge16" class="edge">
<title>Node11&#45;&gt;Node15</title>
<path fill="none" stroke="#191970" d="M703,-56.2455C703,-48.9382 703,-38.6944 703,-29.7046"/>
<polygon fill="#191970" stroke="#191970" points="706.5001,-29.6426 703,-19.6427 699.5001,-29.6427 706.5001,-29.6426"/>
</g>
<!-- Node16 -->
<g id="node17" class="node">
<title>Node16</title>
<polygon fill="none" stroke="#bfbfbf" points="748,-.5 748,-19.5 792,-19.5 792,-.5 748,-.5"/>
<text text-anchor="middle" x="770" y="-7.5" font-family="FreeSans.ttf" font-size="10.00" fill="#000000">limits</text>
</g>
<!-- Node11&#45;&gt;Node16 -->
<g id="edge17" class="edge">
<title>Node11&#45;&gt;Node16</title>
<path fill="none" stroke="#191970" d="M714.6705,-56.2455C724.5661,-47.9746 738.9627,-35.9416 750.5901,-26.2232"/>
<polygon fill="#191970" stroke="#191970" points="753.035,-28.7413 758.4632,-19.6427 748.5458,-23.3703 753.035,-28.7413"/>
</g>
<!-- Node17 -->
<g id="node18" class="node">
<title>Node17</title>
<polygon fill="none" stroke="#bfbfbf" points="810.5,-.5 810.5,-19.5 875.5,-19.5 875.5,-.5 810.5,-.5"/>
<text text-anchor="middle" x="843" y="-7.5" font-family="FreeSans.ttf" font-size="10.00" fill="#000000">stdexcept</text>
</g>
<!-- Node11&#45;&gt;Node17 -->
<g id="edge18" class="edge">
<title>Node11&#45;&gt;Node17</title>
<path fill="none" stroke="#191970" d="M727.0669,-56.3733C749.8428,-47.2629 784.2344,-33.5062 809.649,-23.3404"/>
<polygon fill="#191970" stroke="#191970" points="811.2623,-26.4648 819.2472,-19.5011 808.6625,-19.9654 811.2623,-26.4648"/>
</g>
<!-- Node18 -->
<g id="node19" class="node">
<title>Node18</title>
<polygon fill="none" stroke="#bfbfbf" points="893.5,-.5 893.5,-19.5 962.5,-19.5 962.5,-.5 893.5,-.5"/>
<text text-anchor="middle" x="928" y="-7.5" font-family="FreeSans.ttf" font-size="10.00" fill="#000000">type_traits</text>
</g>
<!-- Node11&#45;&gt;Node18 -->
<g id="edge19" class="edge">
<title>Node11&#45;&gt;Node18</title>
<path fill="none" stroke="#191970" d="M741.4232,-56.4369C780.8471,-46.6247 842.119,-31.3748 883.5948,-21.052"/>
<polygon fill="#191970" stroke="#191970" points="884.5685,-24.4165 893.4271,-18.6048 882.8778,-17.6237 884.5685,-24.4165"/>
</g>
<!-- Node19 -->
<g id="node20" class="node">
<title>Node19</title>
<polygon fill="none" stroke="#bfbfbf" points="470.5,-.5 470.5,-19.5 515.5,-19.5 515.5,-.5 470.5,-.5"/>
<text text-anchor="middle" x="493" y="-7.5" font-family="FreeSans.ttf" font-size="10.00" fill="#000000">utility</text>
</g>
<!-- Node11&#45;&gt;Node19 -->
<g id="edge20" class="edge">
<title>Node11&#45;&gt;Node19</title>
<path fill="none" stroke="#191970" d="M663.6078,-56.4203C629.4856,-47.9882 578.5933,-35.0926 525.3049,-19.9867"/>
<polygon fill="#191970" stroke="#191970" points="526.2601,-16.6196 515.6836,-17.2424 524.34,-23.3511 526.2601,-16.6196"/>
</g>
<!-- Node22&#45;&gt;Node2 -->
<g id="edge28" class="edge">
<title>Node22&#45;&gt;Node2</title>
<path fill="none" stroke="#191970" d="M497.9959,-280.4862C472.2089,-253.2396 397.7984,-174.6172 364.4769,-139.4096"/>
<polygon fill="#191970" stroke="#191970" points="366.7173,-136.685 357.3014,-131.8279 361.6332,-141.4967 366.7173,-136.685"/>
</g>
<!-- Node22&#45;&gt;Node7 -->
<g id="edge45" class="edge">
<title>Node22&#45;&gt;Node7</title>
<path fill="none" stroke="#191970" d="M575.8124,-284.9858C665.9429,-277.7074 814.5199,-262.9852 831,-244 836.8269,-237.2874 836.6355,-230.8742 831,-224 821.3095,-212.1795 743.8724,-198.4016 681.4874,-189.0281"/>
<polygon fill="#191970" stroke="#191970" points="681.6282,-185.5108 671.2227,-187.5047 680.6005,-192.4349 681.6282,-185.5108"/>
</g>
<!-- Node23 -->
<g id="node24" class="node">
<title>Node23</title>
<g id="a_node24"><a xlink:href="GeomVector3_8h.html" target="_top" xlink:title="iDynTree/Core/GeomVector3.h">
<polygon fill="none" stroke="#000000" points="658.5,-224.5 658.5,-243.5 821.5,-243.5 821.5,-224.5 658.5,-224.5"/>
<text text-anchor="middle" x="740" y="-231.5" font-family="FreeSans.ttf" font-size="10.00" fill="#000000">iDynTree/Core/GeomVector3.h</text>
</a>
</g>
</g>
<!-- Node22&#45;&gt;Node23 -->
<g id="edge29" class="edge">
<title>Node22&#45;&gt;Node23</title>
<path fill="none" stroke="#191970" d="M546.7894,-280.4369C586.498,-270.8932 647.6104,-256.2052 690.4455,-245.9101"/>
<polygon fill="#191970" stroke="#191970" points="691.4695,-249.2637 700.3747,-243.5237 689.8337,-242.4575 691.4695,-249.2637"/>
</g>
<!-- Node24 -->
<g id="node25" class="node">
<title>Node24</title>
<g id="a_node25"><a xlink:href="RotationRaw_8h.html" target="_top" xlink:title="iDynTree/Core/RotationRaw.h">
<polygon fill="none" stroke="#000000" points="482,-224.5 482,-243.5 640,-243.5 640,-224.5 482,-224.5"/>
<text text-anchor="middle" x="561" y="-231.5" font-family="FreeSans.ttf" font-size="10.00" fill="#000000">iDynTree/Core/RotationRaw.h</text>
</a>
</g>
</g>
<!-- Node22&#45;&gt;Node24 -->
<g id="edge31" class="edge">
<title>Node22&#45;&gt;Node24</title>
<path fill="none" stroke="#191970" d="M516.4061,-280.2455C524.1493,-272.2155 535.312,-260.6394 544.5318,-251.0781"/>
<polygon fill="#191970" stroke="#191970" points="547.2798,-253.2706 551.7017,-243.6427 542.2409,-248.4117 547.2798,-253.2706"/>
</g>
<!-- Node23&#45;&gt;Node7 -->
<g id="edge30" class="edge">
<title>Node23&#45;&gt;Node7</title>
<path fill="none" stroke="#191970" d="M716.105,-224.3733C693.4918,-215.2629 659.3458,-201.5062 634.1127,-191.3404"/>
<polygon fill="#191970" stroke="#191970" points="635.1666,-187.9917 624.5831,-187.5011 632.5507,-194.4845 635.1666,-187.9917"/>
</g>
<!-- Node24&#45;&gt;Node2 -->
<g id="edge44" class="edge">
<title>Node24&#45;&gt;Node2</title>
<path fill="none" stroke="#191970" d="M549.5838,-224.4511C532.6315,-210.618 499.4167,-184.8229 468,-168 439.4759,-152.726 404.7603,-139.9954 380.0214,-131.8281"/>
<polygon fill="#191970" stroke="#191970" points="380.9983,-128.4656 370.4065,-128.7174 378.8435,-135.1257 380.9983,-128.4656"/>
</g>
<!-- Node24&#45;&gt;Node25 -->
<g id="edge32" class="edge">
<title>Node24&#45;&gt;Node25</title>
<path fill="none" stroke="#191970" d="M598.6474,-224.3733C635.852,-214.8598 692.8703,-200.2797 733.0216,-190.0127"/>
<polygon fill="#191970" stroke="#191970" points="734.0227,-193.3695 742.8438,-187.5011 732.2884,-186.5877 734.0227,-193.3695"/>
</g>
<!-- Node25&#45;&gt;Node2 -->
<g id="edge41" class="edge">
<title>Node25&#45;&gt;Node2</title>
<path fill="none" stroke="#191970" d="M706.2274,-168.4369C610.8397,-156.0718 448.8359,-135.0713 380.2279,-126.1777"/>
<polygon fill="#191970" stroke="#191970" points="380.4101,-122.6721 370.0431,-124.8574 379.5102,-129.614 380.4101,-122.6721"/>
</g>
<!-- Node25&#45;&gt;Node8 -->
<g id="edge33" class="edge">
<title>Node25&#45;&gt;Node8</title>
<path fill="none" stroke="#191970" d="M772.4137,-168.2441C760.5262,-153.6617 736.0538,-126.3622 709,-112 669.0957,-90.8158 619.6197,-79.3239 579.9838,-73.1241"/>
<polygon fill="#191970" stroke="#191970" points="580.2751,-69.629 569.8694,-71.6224 579.247,-76.5531 580.2751,-69.629"/>
</g>
<!-- Node25&#45;&gt;Node12 -->
<g id="edge39" class="edge">
<title>Node25&#45;&gt;Node12</title>
<path fill="none" stroke="#191970" d="M860.5749,-174.2904C926.1438,-169.3818 1011.2599,-158.0492 1033,-132 1057.9641,-102.0877 1035.0001,-53.9656 1019.1428,-28.0006"/>
<polygon fill="#191970" stroke="#191970" points="1022.0549,-26.0577 1013.7241,-19.5118 1016.1545,-29.8241 1022.0549,-26.0577"/>
</g>
<!-- Node25&#45;&gt;Node20 -->
<g id="edge43" class="edge">
<title>Node25&#45;&gt;Node20</title>
<path fill="none" stroke="#191970" d="M761.1878,-168.2455C744.1527,-159.4125 718.8425,-146.2887 699.5319,-136.2758"/>
<polygon fill="#191970" stroke="#191970" points="701.0853,-133.1388 690.5966,-131.6427 697.863,-139.353 701.0853,-133.1388"/>
</g>
<!-- Node25&#45;&gt;Node21 -->
<g id="edge40" class="edge">
<title>Node25&#45;&gt;Node21</title>
<path fill="none" stroke="#191970" d="M749.2288,-168.3733C717.7044,-158.5109 668.7757,-143.2036 635.8445,-132.9011"/>
<polygon fill="#191970" stroke="#191970" points="636.764,-129.5215 626.1751,-129.876 634.6739,-136.2022 636.764,-129.5215"/>
</g>
<!-- Node26 -->
<g id="node27" class="node">
<title>Node26</title>
<g id="a_node27"><a xlink:href="MatrixView_8h.html" target="_top" xlink:title="iDynTree/Core/MatrixView.h">
<polygon fill="none" stroke="#000000" points="756.5,-112.5 756.5,-131.5 907.5,-131.5 907.5,-112.5 756.5,-112.5"/>
<text text-anchor="middle" x="832" y="-119.5" font-family="FreeSans.ttf" font-size="10.00" fill="#000000">iDynTree/Core/MatrixView.h</text>
</a>
</g>
</g>
<!-- Node25&#45;&gt;Node26 -->
<g id="edge34" class="edge">
<title>Node25&#45;&gt;Node26</title>
<path fill="none" stroke="#191970" d="M789.0577,-168.2455C796.5142,-160.2155 807.2634,-148.6394 816.1417,-139.0781"/>
<polygon fill="#191970" stroke="#191970" points="818.8063,-141.3522 823.0461,-131.6427 813.6768,-136.589 818.8063,-141.3522"/>
</g>
<!-- Node27 -->
<g id="node28" class="node">
<title>Node27</title>
<polygon fill="none" stroke="#bfbfbf" points="964,-112.5 964,-131.5 1024,-131.5 1024,-112.5 964,-112.5"/>
<text text-anchor="middle" x="994" y="-119.5" font-family="FreeSans.ttf" font-size="10.00" fill="#000000">iostream</text>
</g>
<!-- Node25&#45;&gt;Node27 -->
<g id="edge42" class="edge">
<title>Node25&#45;&gt;Node27</title>
<path fill="none" stroke="#191970" d="M816.7879,-168.3733C855.0449,-158.3621 914.7417,-142.7405 954.111,-132.4383"/>
<polygon fill="#191970" stroke="#191970" points="955.1143,-135.7936 963.9024,-129.876 953.3421,-129.0217 955.1143,-135.7936"/>
</g>
<!-- Node26&#45;&gt;Node8 -->
<g id="edge38" class="edge">
<title>Node26&#45;&gt;Node8</title>
<path fill="none" stroke="#191970" d="M777.0121,-112.4369C720.9781,-102.6918 634.1034,-87.5832 574.7707,-77.2645"/>
<polygon fill="#191970" stroke="#191970" points="575.2129,-73.7889 564.7611,-75.5237 574.0135,-80.6854 575.2129,-73.7889"/>
</g>
<!-- Node26&#45;&gt;Node11 -->
<g id="edge37" class="edge">
<title>Node26&#45;&gt;Node11</title>
<path fill="none" stroke="#191970" d="M809.8241,-112.3733C789.0234,-103.3435 757.7083,-89.7494 734.3542,-79.6111"/>
<polygon fill="#191970" stroke="#191970" points="735.4532,-76.2727 724.8865,-75.5011 732.6657,-82.6938 735.4532,-76.2727"/>
</g>
<!-- Node26&#45;&gt;Node12 -->
<g id="edge35" class="edge">
<title>Node26&#45;&gt;Node12</title>
<path fill="none" stroke="#191970" d="M843.8582,-112.4905C860.7311,-99.1505 892.8594,-74.4486 922,-56 940.2507,-44.4456 961.6405,-32.8796 978.3972,-24.2354"/>
<polygon fill="#191970" stroke="#191970" points="980.3516,-27.1676 987.6691,-19.5057 977.1707,-20.9321 980.3516,-27.1676"/>
</g>
<!-- Node26&#45;&gt;Node18 -->
<g id="edge36" class="edge">
<title>Node26&#45;&gt;Node18</title>
<path fill="none" stroke="#191970" d="M836.1543,-112.3174C842.2657,-98.7719 854.6353,-73.8274 870,-56 880.0291,-44.3634 893.3374,-33.5649 904.6762,-25.3588"/>
<polygon fill="#191970" stroke="#191970" points="906.6917,-28.2203 912.8762,-19.6179 902.677,-22.486 906.6917,-28.2203"/>
</g>
<!-- Node28&#45;&gt;Node2 -->
<g id="edge52" class="edge">
<title>Node28&#45;&gt;Node2</title>
<path fill="none" stroke="#191970" d="M116.6448,-168.4369C173.4836,-157.0284 266.9462,-138.2689 315.8677,-128.4495"/>
<polygon fill="#191970" stroke="#191970" points="316.7694,-131.8384 325.8851,-126.4388 315.3918,-124.9753 316.7694,-131.8384"/>
</g>
<!-- Node28&#45;&gt;Node9 -->
<g id="edge51" class="edge">
<title>Node28&#45;&gt;Node9</title>
<path fill="none" stroke="#191970" d="M69.2711,-168.255C70.1669,-154.1775 73.7857,-128.081 88,-112 141.7805,-51.1568 238.0902,-25.4471 290.5341,-15.5444"/>
<polygon fill="#191970" stroke="#191970" points="291.1893,-18.9828 300.4124,-13.7689 289.9509,-12.0932 291.1893,-18.9828"/>
</g>
<!-- Node29 -->
<g id="node30" class="node">
<title>Node29</title>
<polygon fill="none" stroke="#bfbfbf" points="97,-112.5 97,-131.5 183,-131.5 183,-112.5 97,-112.5"/>
<text text-anchor="middle" x="140" y="-119.5" font-family="FreeSans.ttf" font-size="10.00" fill="#000000">ModelExport.h</text>
</g>
<!-- Node28&#45;&gt;Node29 -->
<g id="edge53" class="edge">
<title>Node28&#45;&gt;Node29</title>
<path fill="none" stroke="#191970" d="M81.3673,-168.2455C91.9554,-159.8943 107.4064,-147.7076 119.7893,-137.9408"/>
<polygon fill="#191970" stroke="#191970" points="122.0903,-140.5837 127.7745,-131.6427 117.7553,-135.0875 122.0903,-140.5837"/>
</g>
</g>
</svg>
