<?xml version="1.0" encoding="UTF-8" standalone="no"?>
<!DOCTYPE svg PUBLIC "-//W3C//DTD SVG 1.1//EN"
 "http://www.w3.org/Graphics/SVG/1.1/DTD/svg11.dtd">
<!-- Generated by graphviz version 2.40.1 (20161225.0304)
 -->
<!-- Title: SparseMatrix.cpp Pages: 1 -->
<svg width="924pt" height="364pt"
 viewBox="0.00 0.00 923.50 364.00" xmlns="http://www.w3.org/2000/svg" xmlns:xlink="http://www.w3.org/1999/xlink">
<g id="graph0" class="graph" transform="scale(1 1) rotate(0) translate(4 360)">
<title>SparseMatrix.cpp</title>
<!-- Node0 -->
<g id="node1" class="node">
<title>Node0</title>
<polygon fill="#bfbfbf" stroke="#000000" points="661.5,-336.5 661.5,-355.5 762.5,-355.5 762.5,-336.5 661.5,-336.5"/>
<text text-anchor="middle" x="712" y="-343.5" font-family="FreeSans.ttf" font-size="10.00" fill="#000000">SparseMatrix.cpp</text>
</g>
<!-- Node1 -->
<g id="node2" class="node">
<title>Node1</title>
<g id="a_node2"><a xlink:href="SparseMatrix_8h.html" target="_top" xlink:title="SparseMatrix.h">
<polygon fill="none" stroke="#000000" points="577.5,-280.5 577.5,-299.5 666.5,-299.5 666.5,-280.5 577.5,-280.5"/>
<text text-anchor="middle" x="622" y="-287.5" font-family="FreeSans.ttf" font-size="10.00" fill="#000000">SparseMatrix.h</text>
</a>
</g>
</g>
<!-- Node0&#45;&gt;Node1 -->
<g id="edge1" class="edge">
<title>Node0&#45;&gt;Node1</title>
<path fill="none" stroke="#191970" d="M696.3232,-336.2455C682.5144,-327.6534 662.1807,-315.0014 646.2708,-305.1018"/>
<polygon fill="#191970" stroke="#191970" points="647.8368,-301.954 637.4972,-299.6427 644.1387,-307.8974 647.8368,-301.954"/>
</g>
<!-- Node4 -->
<g id="node5" class="node">
<title>Node4</title>
<polygon fill="none" stroke="#bfbfbf" points="149,-.5 149,-19.5 201,-19.5 201,-.5 149,-.5"/>
<text text-anchor="middle" x="175" y="-7.5" font-family="FreeSans.ttf" font-size="10.00" fill="#000000">cassert</text>
</g>
<!-- Node0&#45;&gt;Node4 -->
<g id="edge36" class="edge">
<title>Node0&#45;&gt;Node4</title>
<path fill="none" stroke="#191970" d="M661.3655,-343.3829C498.7027,-334.3087 0,-301.0233 0,-234 0,-234 0,-234 0,-122 0,-56.7005 87.5087,-27.7474 138.7639,-16.3897"/>
<polygon fill="#191970" stroke="#191970" points="139.7311,-19.7631 148.8007,-14.2866 138.2955,-12.9119 139.7311,-19.7631"/>
</g>
<!-- Node5 -->
<g id="node6" class="node">
<title>Node5</title>
<polygon fill="none" stroke="#bfbfbf" points="816,-.5 816,-19.5 880,-19.5 880,-.5 816,-.5"/>
<text text-anchor="middle" x="848" y="-7.5" font-family="FreeSans.ttf" font-size="10.00" fill="#000000">algorithm</text>
</g>
<!-- Node0&#45;&gt;Node5 -->
<g id="edge38" class="edge">
<title>Node0&#45;&gt;Node5</title>
<path fill="none" stroke="#191970" d="M738.833,-336.4286C776.3667,-321.1168 840,-287.2984 840,-234 840,-234 840,-234 840,-122 840,-89.6293 843.366,-52.1294 845.7313,-29.7743"/>
<polygon fill="#191970" stroke="#191970" points="849.239,-29.8948 846.8538,-19.5719 842.281,-29.1291 849.239,-29.8948"/>
</g>
<!-- Node8 -->
<g id="node9" class="node">
<title>Node8</title>
<polygon fill="none" stroke="#bfbfbf" points="219.5,-.5 219.5,-19.5 272.5,-19.5 272.5,-.5 219.5,-.5"/>
<text text-anchor="middle" x="246" y="-7.5" font-family="FreeSans.ttf" font-size="10.00" fill="#000000">iterator</text>
</g>
<!-- Node0&#45;&gt;Node8 -->
<g id="edge42" class="edge">
<title>Node0&#45;&gt;Node8</title>
<path fill="none" stroke="#191970" d="M661.4655,-344.1164C543.5177,-338.3476 260,-315.957 260,-234 260,-234 260,-234 260,-122 260,-89.311 254.0554,-51.6669 249.9134,-29.4058"/>
<polygon fill="#191970" stroke="#191970" points="253.3403,-28.692 248.0059,-19.5381 246.4676,-30.0207 253.3403,-28.692"/>
</g>
<!-- Node14 -->
<g id="node15" class="node">
<title>Node14</title>
<g id="a_node15"><a xlink:href="Triplets_8h.html" target="_top" xlink:title="iDynTree/Core/Triplets.h">
<polygon fill="none" stroke="#000000" points="462,-224.5 462,-243.5 594,-243.5 594,-224.5 462,-224.5"/>
<text text-anchor="middle" x="528" y="-231.5" font-family="FreeSans.ttf" font-size="10.00" fill="#000000">iDynTree/Core/Triplets.h</text>
</a>
</g>
</g>
<!-- Node0&#45;&gt;Node14 -->
<g id="edge35" class="edge">
<title>Node0&#45;&gt;Node14</title>
<path fill="none" stroke="#191970" d="M661.1597,-338.8891C631.509,-332.6538 594.7939,-321.1216 568,-300 552.5899,-287.8522 541.7203,-268.0031 535.2396,-253.24"/>
<polygon fill="#191970" stroke="#191970" points="538.3131,-251.5081 531.2941,-243.5719 531.832,-254.1531 538.3131,-251.5081"/>
</g>
<!-- Node19 -->
<g id="node20" class="node">
<title>Node19</title>
<polygon fill="none" stroke="#bfbfbf" points="688,-112.5 688,-131.5 738,-131.5 738,-112.5 688,-112.5"/>
<text text-anchor="middle" x="713" y="-119.5" font-family="FreeSans.ttf" font-size="10.00" fill="#000000">cstring</text>
</g>
<!-- Node0&#45;&gt;Node19 -->
<g id="edge41" class="edge">
<title>Node0&#45;&gt;Node19</title>
<path fill="none" stroke="#191970" d="M716.9656,-336.1607C730.0306,-308.9297 763.0815,-230.4585 744,-168 740.8591,-157.7192 734.5634,-147.6582 728.4612,-139.5799"/>
<polygon fill="#191970" stroke="#191970" points="731.0816,-137.2539 722.0741,-131.6757 725.637,-141.6535 731.0816,-137.2539"/>
</g>
<!-- Node21 -->
<g id="node22" class="node">
<title>Node21</title>
<polygon fill="none" stroke="#bfbfbf" points="756,-112.5 756,-131.5 812,-131.5 812,-112.5 756,-112.5"/>
<text text-anchor="middle" x="784" y="-119.5" font-family="FreeSans.ttf" font-size="10.00" fill="#000000">sstream</text>
</g>
<!-- Node0&#45;&gt;Node21 -->
<g id="edge37" class="edge">
<title>Node0&#45;&gt;Node21</title>
<path fill="none" stroke="#191970" d="M722.2631,-336.3808C730.9324,-327.684 743.0202,-314.1135 750,-300 776.1884,-247.0455 782.2512,-176.0089 783.6227,-141.9061"/>
<polygon fill="#191970" stroke="#191970" points="787.1232,-141.9385 783.9303,-131.8362 780.1265,-141.7247 787.1232,-141.9385"/>
</g>
<!-- Node22 -->
<g id="node23" class="node">
<title>Node22</title>
<polygon fill="none" stroke="#bfbfbf" points="688.5,-168.5 688.5,-187.5 735.5,-187.5 735.5,-168.5 688.5,-168.5"/>
<text text-anchor="middle" x="712" y="-175.5" font-family="FreeSans.ttf" font-size="10.00" fill="#000000">vector</text>
</g>
<!-- Node0&#45;&gt;Node22 -->
<g id="edge39" class="edge">
<title>Node0&#45;&gt;Node22</title>
<path fill="none" stroke="#191970" d="M712,-336.4862C712,-309.9293 712,-234.5651 712,-198.1655"/>
<polygon fill="#191970" stroke="#191970" points="715.5001,-197.8278 712,-187.8279 708.5001,-197.8279 715.5001,-197.8278"/>
</g>
<!-- Node23 -->
<g id="node24" class="node">
<title>Node23</title>
<polygon fill="none" stroke="#bfbfbf" points="868.5,-280.5 868.5,-299.5 915.5,-299.5 915.5,-280.5 868.5,-280.5"/>
<text text-anchor="middle" x="892" y="-287.5" font-family="FreeSans.ttf" font-size="10.00" fill="#000000">queue</text>
</g>
<!-- Node0&#45;&gt;Node23 -->
<g id="edge40" class="edge">
<title>Node0&#45;&gt;Node23</title>
<path fill="none" stroke="#191970" d="M742.9431,-336.3733C775.1902,-326.3408 825.5475,-310.6741 858.6592,-300.3727"/>
<polygon fill="#191970" stroke="#191970" points="859.8336,-303.6729 868.3424,-297.3601 857.7541,-296.9889 859.8336,-303.6729"/>
</g>
<!-- Node2 -->
<g id="node3" class="node">
<title>Node2</title>
<g id="a_node3"><a xlink:href="VectorDynSize_8h.html" target="_top" xlink:title="iDynTree/Core/VectorDynSize.h">
<polygon fill="none" stroke="#000000" points="27.5,-168.5 27.5,-187.5 194.5,-187.5 194.5,-168.5 27.5,-168.5"/>
<text text-anchor="middle" x="111" y="-175.5" font-family="FreeSans.ttf" font-size="10.00" fill="#000000">iDynTree/Core/VectorDynSize.h</text>
</a>
</g>
</g>
<!-- Node1&#45;&gt;Node2 -->
<g id="edge2" class="edge">
<title>Node1&#45;&gt;Node2</title>
<path fill="none" stroke="#191970" d="M578.4324,-280.4509C485.0957,-259.9936 266.0882,-211.9919 164.4988,-189.7258"/>
<polygon fill="#191970" stroke="#191970" points="164.9748,-186.2471 154.4573,-187.5249 163.4761,-193.0848 164.9748,-186.2471"/>
</g>
<!-- Node1&#45;&gt;Node14 -->
<g id="edge14" class="edge">
<title>Node1&#45;&gt;Node14</title>
<path fill="none" stroke="#191970" d="M605.6264,-280.2455C591.0692,-271.5731 569.569,-258.7645 552.8848,-248.825"/>
<polygon fill="#191970" stroke="#191970" points="554.5683,-245.7539 544.1859,-243.6427 550.9856,-251.7676 554.5683,-245.7539"/>
</g>
<!-- Node16 -->
<g id="node17" class="node">
<title>Node16</title>
<g id="a_node17"><a xlink:href="Utils_8h.html" target="_top" xlink:title="iDynTree/Core/Utils.h">
<polygon fill="none" stroke="#000000" points="581.5,-56.5 581.5,-75.5 700.5,-75.5 700.5,-56.5 581.5,-56.5"/>
<text text-anchor="middle" x="641" y="-63.5" font-family="FreeSans.ttf" font-size="10.00" fill="#000000">iDynTree/Core/Utils.h</text>
</a>
</g>
</g>
<!-- Node1&#45;&gt;Node16 -->
<g id="edge33" class="edge">
<title>Node1&#45;&gt;Node16</title>
<path fill="none" stroke="#191970" d="M622.8164,-280.375C625.691,-246.4851 635.3821,-132.2317 639.3177,-85.8332"/>
<polygon fill="#191970" stroke="#191970" points="642.8288,-85.8492 640.1866,-75.5891 635.8539,-85.2575 642.8288,-85.8492"/>
</g>
<!-- Node1&#45;&gt;Node22 -->
<g id="edge34" class="edge">
<title>Node1&#45;&gt;Node22</title>
<path fill="none" stroke="#191970" d="M629.6733,-280.4509C644.8171,-261.6054 678.7443,-219.3849 697.9842,-195.4419"/>
<polygon fill="#191970" stroke="#191970" points="700.8104,-197.5124 704.3461,-187.5249 695.3538,-193.1276 700.8104,-197.5124"/>
</g>
<!-- Node3 -->
<g id="node4" class="node">
<title>Node3</title>
<g id="a_node4"><a xlink:href="Span_8h.html" target="_top" xlink:title="iDynTree/Core/Span.h">
<polygon fill="none" stroke="#000000" points="364.5,-56.5 364.5,-75.5 485.5,-75.5 485.5,-56.5 364.5,-56.5"/>
<text text-anchor="middle" x="425" y="-63.5" font-family="FreeSans.ttf" font-size="10.00" fill="#000000">iDynTree/Core/Span.h</text>
</a>
</g>
</g>
<!-- Node2&#45;&gt;Node3 -->
<g id="edge3" class="edge">
<title>Node2&#45;&gt;Node3</title>
<path fill="none" stroke="#191970" d="M108.441,-168.4823C105.2373,-154.2109 101.7548,-127.3123 116,-112 132.0133,-94.7872 268.0785,-79.7895 354.2313,-71.9021"/>
<polygon fill="#191970" stroke="#191970" points="354.5752,-75.3854 364.2193,-70.999 353.9448,-68.4138 354.5752,-75.3854"/>
</g>
<!-- Node13 -->
<g id="node14" class="node">
<title>Node13</title>
<polygon fill="none" stroke="#bfbfbf" points="125,-112.5 125,-131.5 169,-131.5 169,-112.5 125,-112.5"/>
<text text-anchor="middle" x="147" y="-119.5" font-family="FreeSans.ttf" font-size="10.00" fill="#000000">string</text>
</g>
<!-- Node2&#45;&gt;Node13 -->
<g id="edge13" class="edge">
<title>Node2&#45;&gt;Node13</title>
<path fill="none" stroke="#191970" d="M117.2707,-168.2455C122.2264,-160.5367 129.283,-149.5598 135.2776,-140.2348"/>
<polygon fill="#191970" stroke="#191970" points="138.3376,-141.9471 140.8011,-131.6427 132.4494,-138.1618 138.3376,-141.9471"/>
</g>
<!-- Node3&#45;&gt;Node4 -->
<g id="edge4" class="edge">
<title>Node3&#45;&gt;Node4</title>
<path fill="none" stroke="#191970" d="M375.6829,-56.4338C334.1842,-48.162 273.0739,-35.4646 211.248,-20.1985"/>
<polygon fill="#191970" stroke="#191970" points="211.8715,-16.7469 201.3221,-17.7266 210.1799,-23.5395 211.8715,-16.7469"/>
</g>
<!-- Node3&#45;&gt;Node5 -->
<g id="edge5" class="edge">
<title>Node3&#45;&gt;Node5</title>
<path fill="none" stroke="#191970" d="M485.5407,-60.9598C559.0812,-54.3358 687.0441,-41.201 805.8519,-20.0307"/>
<polygon fill="#191970" stroke="#191970" points="806.6295,-23.447 815.8487,-18.2261 805.386,-16.5583 806.6295,-23.447"/>
</g>
<!-- Node6 -->
<g id="node7" class="node">
<title>Node6</title>
<polygon fill="none" stroke="#bfbfbf" points="378,-.5 378,-19.5 420,-19.5 420,-.5 378,-.5"/>
<text text-anchor="middle" x="399" y="-7.5" font-family="FreeSans.ttf" font-size="10.00" fill="#000000">array</text>
</g>
<!-- Node3&#45;&gt;Node6 -->
<g id="edge6" class="edge">
<title>Node3&#45;&gt;Node6</title>
<path fill="none" stroke="#191970" d="M420.4711,-56.2455C416.9666,-48.6973 412.0073,-38.0158 407.7377,-28.8197"/>
<polygon fill="#191970" stroke="#191970" points="410.8627,-27.2389 403.477,-19.6427 404.5136,-30.1867 410.8627,-27.2389"/>
</g>
<!-- Node7 -->
<g id="node8" class="node">
<title>Node7</title>
<polygon fill="none" stroke="#bfbfbf" points="646.5,-.5 646.5,-19.5 699.5,-19.5 699.5,-.5 646.5,-.5"/>
<text text-anchor="middle" x="673" y="-7.5" font-family="FreeSans.ttf" font-size="10.00" fill="#000000">cstddef</text>
</g>
<!-- Node3&#45;&gt;Node7 -->
<g id="edge7" class="edge">
<title>Node3&#45;&gt;Node7</title>
<path fill="none" stroke="#191970" d="M472.7519,-56.4534C513.6497,-48.0937 574.3287,-35.2576 636.3464,-20.0571"/>
<polygon fill="#191970" stroke="#191970" points="637.439,-23.3926 646.3085,-17.5976 635.7611,-16.5966 637.439,-23.3926"/>
</g>
<!-- Node3&#45;&gt;Node8 -->
<g id="edge8" class="edge">
<title>Node3&#45;&gt;Node8</title>
<path fill="none" stroke="#191970" d="M394.2288,-56.3733C363.1573,-46.6526 315.1781,-31.6423 282.2738,-21.3482"/>
<polygon fill="#191970" stroke="#191970" points="283.1704,-17.9615 272.5815,-18.316 281.0803,-24.6422 283.1704,-17.9615"/>
</g>
<!-- Node9 -->
<g id="node10" class="node">
<title>Node9</title>
<polygon fill="none" stroke="#bfbfbf" points="438,-.5 438,-19.5 482,-19.5 482,-.5 438,-.5"/>
<text text-anchor="middle" x="460" y="-7.5" font-family="FreeSans.ttf" font-size="10.00" fill="#000000">limits</text>
</g>
<!-- Node3&#45;&gt;Node9 -->
<g id="edge9" class="edge">
<title>Node3&#45;&gt;Node9</title>
<path fill="none" stroke="#191970" d="M431.0965,-56.2455C435.9145,-48.5367 442.7751,-37.5598 448.6032,-28.2348"/>
<polygon fill="#191970" stroke="#191970" points="451.6413,-29.9777 453.9733,-19.6427 445.7053,-26.2677 451.6413,-29.9777"/>
</g>
<!-- Node10 -->
<g id="node11" class="node">
<title>Node10</title>
<polygon fill="none" stroke="#bfbfbf" points="500.5,-.5 500.5,-19.5 565.5,-19.5 565.5,-.5 500.5,-.5"/>
<text text-anchor="middle" x="533" y="-7.5" font-family="FreeSans.ttf" font-size="10.00" fill="#000000">stdexcept</text>
</g>
<!-- Node3&#45;&gt;Node10 -->
<g id="edge10" class="edge">
<title>Node3&#45;&gt;Node10</title>
<path fill="none" stroke="#191970" d="M443.8122,-56.2455C460.8473,-47.4125 486.1575,-34.2887 505.4681,-24.2758"/>
<polygon fill="#191970" stroke="#191970" points="507.137,-27.353 514.4034,-19.6427 503.9147,-21.1388 507.137,-27.353"/>
</g>
<!-- Node11 -->
<g id="node12" class="node">
<title>Node11</title>
<polygon fill="none" stroke="#bfbfbf" points="290.5,-.5 290.5,-19.5 359.5,-19.5 359.5,-.5 290.5,-.5"/>
<text text-anchor="middle" x="325" y="-7.5" font-family="FreeSans.ttf" font-size="10.00" fill="#000000">type_traits</text>
</g>
<!-- Node3&#45;&gt;Node11 -->
<g id="edge11" class="edge">
<title>Node3&#45;&gt;Node11</title>
<path fill="none" stroke="#191970" d="M407.5813,-56.2455C391.9515,-47.4928 368.7981,-34.527 350.9815,-24.5496"/>
<polygon fill="#191970" stroke="#191970" points="352.6543,-21.475 342.2191,-19.6427 349.234,-27.5825 352.6543,-21.475"/>
</g>
<!-- Node12 -->
<g id="node13" class="node">
<title>Node12</title>
<polygon fill="none" stroke="#bfbfbf" points="583.5,-.5 583.5,-19.5 628.5,-19.5 628.5,-.5 583.5,-.5"/>
<text text-anchor="middle" x="606" y="-7.5" font-family="FreeSans.ttf" font-size="10.00" fill="#000000">utility</text>
</g>
<!-- Node3&#45;&gt;Node12 -->
<g id="edge12" class="edge">
<title>Node3&#45;&gt;Node12</title>
<path fill="none" stroke="#191970" d="M456.1158,-56.4279C484.3226,-47.7432 527.2892,-34.4953 573.6507,-20.1015"/>
<polygon fill="#191970" stroke="#191970" points="574.7657,-23.4202 583.2774,-17.1114 572.6892,-16.7353 574.7657,-23.4202"/>
</g>
<!-- Node14&#45;&gt;Node8 -->
<g id="edge30" class="edge">
<title>Node14&#45;&gt;Node8</title>
<path fill="none" stroke="#191970" d="M492.0668,-224.4684C446.361,-210.751 367.3368,-181.4933 317,-132 289.3267,-104.7904 293.6475,-89.4686 274,-56 268.6353,-46.8615 262.5323,-36.7979 257.3964,-28.4198"/>
<polygon fill="#191970" stroke="#191970" points="260.3226,-26.4967 252.0996,-19.8159 254.3616,-30.1664 260.3226,-26.4967"/>
</g>
<!-- Node14&#45;&gt;Node13 -->
<g id="edge31" class="edge">
<title>Node14&#45;&gt;Node13</title>
<path fill="none" stroke="#191970" d="M461.8371,-226.3144C412.0741,-219.3922 342.6621,-207.2865 284,-188 243.1683,-174.5757 198.8627,-151.5329 172.0156,-136.5348"/>
<polygon fill="#191970" stroke="#191970" points="173.7091,-133.4716 163.2819,-131.5942 170.2625,-139.5643 173.7091,-133.4716"/>
</g>
<!-- Node15 -->
<g id="node16" class="node">
<title>Node15</title>
<g id="a_node16"><a xlink:href="MatrixFixSize_8h.html" target="_top" xlink:title="iDynTree/Core/MatrixFixSize.h">
<polygon fill="none" stroke="#000000" points="429.5,-168.5 429.5,-187.5 590.5,-187.5 590.5,-168.5 429.5,-168.5"/>
<text text-anchor="middle" x="510" y="-175.5" font-family="FreeSans.ttf" font-size="10.00" fill="#000000">iDynTree/Core/MatrixFixSize.h</text>
</a>
</g>
</g>
<!-- Node14&#45;&gt;Node15 -->
<g id="edge15" class="edge">
<title>Node14&#45;&gt;Node15</title>
<path fill="none" stroke="#191970" d="M524.8646,-224.2455C522.49,-216.8579 519.1507,-206.4689 516.2385,-197.4087"/>
<polygon fill="#191970" stroke="#191970" points="519.4917,-196.0919 513.0994,-187.6427 512.8275,-198.234 519.4917,-196.0919"/>
</g>
<!-- Node14&#45;&gt;Node16 -->
<g id="edge29" class="edge">
<title>Node14&#45;&gt;Node16</title>
<path fill="none" stroke="#191970" d="M550.3867,-224.3674C565.9991,-216.6104 586.2419,-204.3126 599,-188 623.1625,-157.1056 633.9202,-111.4021 638.3066,-85.5985"/>
<polygon fill="#191970" stroke="#191970" points="641.789,-85.9803 639.8581,-75.563 634.8712,-84.9107 641.789,-85.9803"/>
</g>
<!-- Node14&#45;&gt;Node22 -->
<g id="edge32" class="edge">
<title>Node14&#45;&gt;Node22</title>
<path fill="none" stroke="#191970" d="M559.6307,-224.3733C592.7806,-214.2842 644.653,-198.4969 678.4902,-188.1986"/>
<polygon fill="#191970" stroke="#191970" points="679.8241,-191.4512 688.3718,-185.1912 677.7859,-184.7545 679.8241,-191.4512"/>
</g>
<!-- Node15&#45;&gt;Node4 -->
<g id="edge24" class="edge">
<title>Node15&#45;&gt;Node4</title>
<path fill="none" stroke="#191970" d="M433.7756,-168.4169C397.0376,-161.6928 353.2037,-150.476 317,-132 263.9707,-104.9373 214.1279,-54.141 190.0616,-27.4309"/>
<polygon fill="#191970" stroke="#191970" points="192.4333,-24.83 183.1823,-19.6658 187.1937,-29.4718 192.4333,-24.83"/>
</g>
<!-- Node15&#45;&gt;Node13 -->
<g id="edge26" class="edge">
<title>Node15&#45;&gt;Node13</title>
<path fill="none" stroke="#191970" d="M429.1967,-169.6232C362.7046,-162.0154 266.2057,-149.3307 183,-132 181.7498,-131.7396 180.4789,-131.4601 179.198,-131.166"/>
<polygon fill="#191970" stroke="#191970" points="179.9081,-127.7358 169.3572,-128.6995 178.2062,-134.5257 179.9081,-127.7358"/>
</g>
<!-- Node15&#45;&gt;Node16 -->
<g id="edge16" class="edge">
<title>Node15&#45;&gt;Node16</title>
<path fill="none" stroke="#191970" d="M509.5427,-168.2501C509.4138,-154.1665 511.2392,-128.0625 525,-112 538.748,-95.9523 558.8595,-85.4556 578.4895,-78.6094"/>
<polygon fill="#191970" stroke="#191970" points="579.6084,-81.9262 588.0573,-75.5335 577.466,-75.2621 579.6084,-81.9262"/>
</g>
<!-- Node18 -->
<g id="node19" class="node">
<title>Node18</title>
<g id="a_node19"><a xlink:href="MatrixView_8h.html" target="_top" xlink:title="iDynTree/Core/MatrixView.h">
<polygon fill="none" stroke="#000000" points="326.5,-112.5 326.5,-131.5 477.5,-131.5 477.5,-112.5 326.5,-112.5"/>
<text text-anchor="middle" x="402" y="-119.5" font-family="FreeSans.ttf" font-size="10.00" fill="#000000">iDynTree/Core/MatrixView.h</text>
</a>
</g>
</g>
<!-- Node15&#45;&gt;Node18 -->
<g id="edge19" class="edge">
<title>Node15&#45;&gt;Node18</title>
<path fill="none" stroke="#191970" d="M491.1878,-168.2455C474.1527,-159.4125 448.8425,-146.2887 429.5319,-136.2758"/>
<polygon fill="#191970" stroke="#191970" points="431.0853,-133.1388 420.5966,-131.6427 427.863,-139.353 431.0853,-133.1388"/>
</g>
<!-- Node15&#45;&gt;Node19 -->
<g id="edge25" class="edge">
<title>Node15&#45;&gt;Node19</title>
<path fill="none" stroke="#191970" d="M544.8969,-168.3733C582.0961,-158.1114 640.6643,-141.9547 677.9297,-131.6746"/>
<polygon fill="#191970" stroke="#191970" points="679.1309,-134.974 687.8401,-128.9407 677.2694,-128.2261 679.1309,-134.974"/>
</g>
<!-- Node20 -->
<g id="node21" class="node">
<title>Node20</title>
<polygon fill="none" stroke="#bfbfbf" points="534,-112.5 534,-131.5 594,-131.5 594,-112.5 534,-112.5"/>
<text text-anchor="middle" x="564" y="-119.5" font-family="FreeSans.ttf" font-size="10.00" fill="#000000">iostream</text>
</g>
<!-- Node15&#45;&gt;Node20 -->
<g id="edge27" class="edge">
<title>Node15&#45;&gt;Node20</title>
<path fill="none" stroke="#191970" d="M519.4061,-168.2455C527.1493,-160.2155 538.312,-148.6394 547.5318,-139.0781"/>
<polygon fill="#191970" stroke="#191970" points="550.2798,-141.2706 554.7017,-131.6427 545.2409,-136.4117 550.2798,-141.2706"/>
</g>
<!-- Node15&#45;&gt;Node21 -->
<g id="edge28" class="edge">
<title>Node15&#45;&gt;Node21</title>
<path fill="none" stroke="#191970" d="M565.3106,-168.4325C611.2369,-160.2234 678.4765,-147.5954 745.8348,-132.1533"/>
<polygon fill="#191970" stroke="#191970" points="746.8174,-135.5185 755.7712,-129.8548 745.2397,-128.6986 746.8174,-135.5185"/>
</g>
<!-- Node16&#45;&gt;Node7 -->
<g id="edge17" class="edge">
<title>Node16&#45;&gt;Node7</title>
<path fill="none" stroke="#191970" d="M646.574,-56.2455C650.9331,-48.617 657.1211,-37.7881 662.4133,-28.5267"/>
<polygon fill="#191970" stroke="#191970" points="665.5673,-30.0616 667.4899,-19.6427 659.4896,-26.5886 665.5673,-30.0616"/>
</g>
<!-- Node17 -->
<g id="node18" class="node">
<title>Node17</title>
<polygon fill="none" stroke="#bfbfbf" points="718,-.5 718,-19.5 798,-19.5 798,-.5 718,-.5"/>
<text text-anchor="middle" x="758" y="-7.5" font-family="FreeSans.ttf" font-size="10.00" fill="#000000">CoreExport.h</text>
</g>
<!-- Node16&#45;&gt;Node17 -->
<g id="edge18" class="edge">
<title>Node16&#45;&gt;Node17</title>
<path fill="none" stroke="#191970" d="M661.113,-56.3733C679.8103,-47.4241 707.8744,-33.9917 728.9934,-23.8835"/>
<polygon fill="#191970" stroke="#191970" points="730.6405,-26.9755 738.1494,-19.5011 727.6183,-20.6614 730.6405,-26.9755"/>
</g>
<!-- Node18&#45;&gt;Node3 -->
<g id="edge22" class="edge">
<title>Node18&#45;&gt;Node3</title>
<path fill="none" stroke="#191970" d="M406.0063,-112.2455C409.0735,-104.7776 413.4003,-94.2427 417.1497,-85.1137"/>
<polygon fill="#191970" stroke="#191970" points="420.4779,-86.2226 421.0396,-75.6427 414.0028,-83.5631 420.4779,-86.2226"/>
</g>
<!-- Node18&#45;&gt;Node4 -->
<g id="edge20" class="edge">
<title>Node18&#45;&gt;Node4</title>
<path fill="none" stroke="#191970" d="M382.6461,-112.4509C342.5236,-92.6548 250.1254,-47.0663 203.3016,-23.9638"/>
<polygon fill="#191970" stroke="#191970" points="204.8214,-20.8109 194.3049,-19.5249 201.7241,-27.0884 204.8214,-20.8109"/>
</g>
<!-- Node18&#45;&gt;Node11 -->
<g id="edge21" class="edge">
<title>Node18&#45;&gt;Node11</title>
<path fill="none" stroke="#191970" d="M389.9641,-112.429C379.6632,-103.7631 364.9616,-90.2108 355,-76 344.8527,-61.5242 336.8095,-43.0658 331.6162,-29.3523"/>
<polygon fill="#191970" stroke="#191970" points="334.7618,-27.7575 328.0764,-19.5382 328.177,-30.1326 334.7618,-27.7575"/>
</g>
<!-- Node18&#45;&gt;Node16 -->
<g id="edge23" class="edge">
<title>Node18&#45;&gt;Node16</title>
<path fill="none" stroke="#191970" d="M442.814,-112.4369C483.6311,-102.8731 546.4959,-88.1432 590.4472,-77.845"/>
<polygon fill="#191970" stroke="#191970" points="591.4165,-81.2128 600.3543,-75.5237 589.8195,-74.3973 591.4165,-81.2128"/>
</g>
</g>
</svg>
