<?xml version="1.0" encoding="UTF-8" standalone="no"?>
<!DOCTYPE svg PUBLIC "-//W3C//DTD SVG 1.1//EN"
 "http://www.w3.org/Graphics/SVG/1.1/DTD/svg11.dtd">
<!-- Generated by graphviz version 2.40.1 (20161225.0304)
 -->
<!-- Title: SpatialMotionVector.cpp Pages: 1 -->
<svg width="1407pt" height="655pt"
 viewBox="0.00 0.00 1406.50 655.00" xmlns="http://www.w3.org/2000/svg" xmlns:xlink="http://www.w3.org/1999/xlink">
<g id="graph0" class="graph" transform="scale(1 1) rotate(0) translate(4 651)">
<title>SpatialMotionVector.cpp</title>
<!-- Node0 -->
<g id="node1" class="node">
<title>Node0</title>
<polygon fill="#bfbfbf" stroke="#000000" points="166,-627.5 166,-646.5 300,-646.5 300,-627.5 166,-627.5"/>
<text text-anchor="middle" x="233" y="-634.5" font-family="FreeSans.ttf" font-size="10.00" fill="#000000">SpatialMotionVector.cpp</text>
</g>
<!-- Node1 -->
<g id="node2" class="node">
<title>Node1</title>
<g id="a_node2"><a xlink:href="SpatialMotionVector_8h.html" target="_top" xlink:title="iDynTree/Core/SpatialMotion\lVector.h">
<polygon fill="none" stroke="#000000" points="404.5,-448.5 404.5,-478.5 559.5,-478.5 559.5,-448.5 404.5,-448.5"/>
<text text-anchor="start" x="412.5" y="-466.5" font-family="FreeSans.ttf" font-size="10.00" fill="#000000">iDynTree/Core/SpatialMotion</text>
<text text-anchor="middle" x="482" y="-455.5" font-family="FreeSans.ttf" font-size="10.00" fill="#000000">Vector.h</text>
</a>
</g>
</g>
<!-- Node0&#45;&gt;Node1 -->
<g id="edge1" class="edge">
<title>Node0&#45;&gt;Node1</title>
<path fill="none" stroke="#191970" d="M294.2377,-627.4637C320.5428,-620.8342 350.1823,-609.6823 372,-591 400.8377,-566.3065 386.2906,-543.8241 411,-515 421.1461,-503.1644 434.5318,-492.5589 446.9434,-484.0926"/>
<polygon fill="#191970" stroke="#191970" points="448.8924,-487 455.3286,-478.5842 445.049,-481.1494 448.8924,-487"/>
</g>
<!-- Node3 -->
<g id="node4" class="node">
<title>Node3</title>
<g id="a_node4"><a xlink:href="Utils_8h.html" target="_top" xlink:title="iDynTree/Core/Utils.h">
<polygon fill="none" stroke="#000000" points="74.5,-56.5 74.5,-75.5 193.5,-75.5 193.5,-56.5 74.5,-56.5"/>
<text text-anchor="middle" x="134" y="-63.5" font-family="FreeSans.ttf" font-size="10.00" fill="#000000">iDynTree/Core/Utils.h</text>
</a>
</g>
</g>
<!-- Node0&#45;&gt;Node3 -->
<g id="edge61" class="edge">
<title>Node0&#45;&gt;Node3</title>
<path fill="none" stroke="#191970" d="M196.0805,-627.4374C130.3808,-609.3275 0,-567.9746 0,-525 0,-525 0,-525 0,-178 0,-127.8615 55.9131,-95.7644 95.5042,-79.3216"/>
<polygon fill="#191970" stroke="#191970" points="96.9273,-82.5223 104.924,-75.5723 94.3386,-76.0186 96.9273,-82.5223"/>
</g>
<!-- Node16 -->
<g id="node17" class="node">
<title>Node16</title>
<polygon fill="none" stroke="#bfbfbf" points="244,-112.5 244,-131.5 300,-131.5 300,-112.5 244,-112.5"/>
<text text-anchor="middle" x="272" y="-119.5" font-family="FreeSans.ttf" font-size="10.00" fill="#000000">sstream</text>
</g>
<!-- Node0&#45;&gt;Node16 -->
<g id="edge81" class="edge">
<title>Node0&#45;&gt;Node16</title>
<path fill="none" stroke="#191970" d="M210.6091,-627.4663C157.7445,-603.3583 31.473,-535.5984 57,-448 96.1868,-313.5266 212.1485,-183.7824 255.447,-138.7131"/>
<polygon fill="#191970" stroke="#191970" points="257.9696,-141.1393 262.4279,-131.5281 252.9491,-136.2614 257.9696,-141.1393"/>
</g>
<!-- Node27 -->
<g id="node28" class="node">
<title>Node27</title>
<g id="a_node28"><a xlink:href="SpatialForceVector_8h.html" target="_top" xlink:title="iDynTree/Core/SpatialForce\lVector.h">
<polygon fill="none" stroke="#000000" points="238,-448.5 238,-478.5 386,-478.5 386,-448.5 238,-448.5"/>
<text text-anchor="start" x="246" y="-466.5" font-family="FreeSans.ttf" font-size="10.00" fill="#000000">iDynTree/Core/SpatialForce</text>
<text text-anchor="middle" x="312" y="-455.5" font-family="FreeSans.ttf" font-size="10.00" fill="#000000">Vector.h</text>
</a>
</g>
</g>
<!-- Node0&#45;&gt;Node27 -->
<g id="edge52" class="edge">
<title>Node0&#45;&gt;Node27</title>
<path fill="none" stroke="#191970" d="M222.3212,-627.3348C209.6455,-614.6267 191.2591,-591.5055 200,-571 215.8307,-533.8625 251.48,-503.3808 278.3358,-484.4805"/>
<polygon fill="#191970" stroke="#191970" points="280.4289,-487.2894 286.71,-478.7572 276.4791,-481.5101 280.4289,-487.2894"/>
</g>
<!-- Node28 -->
<g id="node29" class="node">
<title>Node28</title>
<g id="a_node29"><a xlink:href="Transform_8h.html" target="_top" xlink:title="iDynTree/Core/Transform.h">
<polygon fill="none" stroke="#000000" points="785,-392.5 785,-411.5 931,-411.5 931,-392.5 785,-392.5"/>
<text text-anchor="middle" x="858" y="-399.5" font-family="FreeSans.ttf" font-size="10.00" fill="#000000">iDynTree/Core/Transform.h</text>
</a>
</g>
</g>
<!-- Node0&#45;&gt;Node28 -->
<g id="edge56" class="edge">
<title>Node0&#45;&gt;Node28</title>
<path fill="none" stroke="#191970" d="M282.8311,-627.4304C323.9849,-619.1035 383.7477,-606.0324 435,-591 505.2862,-570.3849 522.6403,-563.7717 590,-535 680.4942,-496.3467 783.8207,-442.0657 831.428,-416.4553"/>
<polygon fill="#191970" stroke="#191970" points="833.3141,-419.4146 840.4517,-411.5849 829.9892,-413.2546 833.3141,-419.4146"/>
</g>
<!-- Node29 -->
<g id="node30" class="node">
<title>Node29</title>
<g id="a_node30"><a xlink:href="PrivateUtils_8h.html" target="_top" xlink:title="iDynTree/Core/PrivateUtils.h">
<polygon fill="none" stroke="#000000" points="209,-571.5 209,-590.5 363,-590.5 363,-571.5 209,-571.5"/>
<text text-anchor="middle" x="286" y="-578.5" font-family="FreeSans.ttf" font-size="10.00" fill="#000000">iDynTree/Core/PrivateUtils.h</text>
</a>
</g>
</g>
<!-- Node0&#45;&gt;Node29 -->
<g id="edge62" class="edge">
<title>Node0&#45;&gt;Node29</title>
<path fill="none" stroke="#191970" d="M242.2319,-627.2455C249.8317,-619.2155 260.7877,-607.6394 269.8368,-598.0781"/>
<polygon fill="#191970" stroke="#191970" points="272.5421,-600.3115 276.8739,-590.6427 267.458,-595.4998 272.5421,-600.3115"/>
</g>
<!-- Node30 -->
<g id="node31" class="node">
<title>Node30</title>
<polygon fill="none" stroke="#bfbfbf" points="66.5,-454 66.5,-473 143.5,-473 143.5,-454 66.5,-454"/>
<text text-anchor="middle" x="105" y="-461" font-family="FreeSans.ttf" font-size="10.00" fill="#000000">Eigen/Dense</text>
</g>
<!-- Node0&#45;&gt;Node30 -->
<g id="edge80" class="edge">
<title>Node0&#45;&gt;Node30</title>
<path fill="none" stroke="#191970" d="M224.3588,-627.3499C216.2686,-618.1909 203.9667,-603.9399 194,-591 164.9333,-553.262 133.6519,-506.9715 117.019,-481.8485"/>
<polygon fill="#191970" stroke="#191970" points="119.8222,-479.7416 111.3966,-473.3183 113.9776,-483.5939 119.8222,-479.7416"/>
</g>
<!-- Node31 -->
<g id="node32" class="node">
<title>Node31</title>
<g id="a_node32"><a xlink:href="EigenHelpers_8h.html" target="_top" xlink:title="iDynTree/Core/EigenHelpers.h">
<polygon fill="none" stroke="#000000" points="419.5,-515.5 419.5,-534.5 580.5,-534.5 580.5,-515.5 419.5,-515.5"/>
<text text-anchor="middle" x="500" y="-522.5" font-family="FreeSans.ttf" font-size="10.00" fill="#000000">iDynTree/Core/EigenHelpers.h</text>
</a>
</g>
</g>
<!-- Node0&#45;&gt;Node31 -->
<g id="edge79" class="edge">
<title>Node0&#45;&gt;Node31</title>
<path fill="none" stroke="#191970" d="M287.3559,-627.4896C322.0599,-620.2134 367.4243,-608.4269 405,-591 433.4952,-577.7845 462.6325,-556.0812 480.9908,-541.1946"/>
<polygon fill="#191970" stroke="#191970" points="483.6099,-543.5705 489.0871,-534.5012 479.1497,-538.1754 483.6099,-543.5705"/>
</g>
<!-- Node2 -->
<g id="node3" class="node">
<title>Node2</title>
<g id="a_node3"><a xlink:href="VectorFixSize_8h.html" target="_top" xlink:title="iDynTree/Core/VectorFixSize.h">
<polygon fill="none" stroke="#000000" points="401.5,-168.5 401.5,-187.5 562.5,-187.5 562.5,-168.5 401.5,-168.5"/>
<text text-anchor="middle" x="482" y="-175.5" font-family="FreeSans.ttf" font-size="10.00" fill="#000000">iDynTree/Core/VectorFixSize.h</text>
</a>
</g>
</g>
<!-- Node1&#45;&gt;Node2 -->
<g id="edge2" class="edge">
<title>Node1&#45;&gt;Node2</title>
<path fill="none" stroke="#191970" d="M497.7715,-448.4006C517.8594,-427.4631 550,-387.4816 550,-346 550,-346 550,-346 550,-290 550,-259.4754 546.9192,-250.0448 531,-224 524.0343,-212.6038 513.5011,-202.202 503.9833,-194.1838"/>
<polygon fill="#191970" stroke="#191970" points="505.9889,-191.3059 495.9959,-187.786 501.6128,-196.7694 505.9889,-191.3059"/>
</g>
<!-- Node18 -->
<g id="node19" class="node">
<title>Node18</title>
<g id="a_node19"><a xlink:href="GeomVector3_8h.html" target="_top" xlink:title="iDynTree/Core/GeomVector3.h">
<polygon fill="none" stroke="#000000" points="358.5,-224.5 358.5,-243.5 521.5,-243.5 521.5,-224.5 358.5,-224.5"/>
<text text-anchor="middle" x="440" y="-231.5" font-family="FreeSans.ttf" font-size="10.00" fill="#000000">iDynTree/Core/GeomVector3.h</text>
</a>
</g>
</g>
<!-- Node1&#45;&gt;Node18 -->
<g id="edge21" class="edge">
<title>Node1&#45;&gt;Node18</title>
<path fill="none" stroke="#191970" d="M479.2443,-448.4419C471.909,-408.3599 451.9052,-299.0534 443.6439,-253.9113"/>
<polygon fill="#191970" stroke="#191970" points="447.0545,-253.1047 441.8114,-243.8981 440.1688,-254.3649 447.0545,-253.1047"/>
</g>
<!-- Node19 -->
<g id="node20" class="node">
<title>Node19</title>
<g id="a_node20"><a xlink:href="SpatialVector_8h.html" target="_top" xlink:title="iDynTree/Core/SpatialVector.h">
<polygon fill="none" stroke="#000000" points="290.5,-392.5 290.5,-411.5 451.5,-411.5 451.5,-392.5 290.5,-392.5"/>
<text text-anchor="middle" x="371" y="-399.5" font-family="FreeSans.ttf" font-size="10.00" fill="#000000">iDynTree/Core/SpatialVector.h</text>
</a>
</g>
</g>
<!-- Node1&#45;&gt;Node19 -->
<g id="edge23" class="edge">
<title>Node1&#45;&gt;Node19</title>
<path fill="none" stroke="#191970" d="M454.8463,-448.4554C437.3005,-438.734 414.5878,-426.15 397.2279,-416.5317"/>
<polygon fill="#191970" stroke="#191970" points="398.6445,-413.3153 388.2011,-411.5303 395.252,-419.4383 398.6445,-413.3153"/>
</g>
<!-- Node2&#45;&gt;Node3 -->
<g id="edge3" class="edge">
<title>Node2&#45;&gt;Node3</title>
<path fill="none" stroke="#191970" d="M449.278,-168.4236C421.6004,-159.9526 381.1154,-146.6834 347,-132 329.4695,-124.4548 326.7885,-118.915 309,-112 271.0253,-97.2378 226.6109,-85.6265 192.029,-77.7626"/>
<polygon fill="#191970" stroke="#191970" points="192.6135,-74.307 182.0911,-75.5439 191.0882,-81.1388 192.6135,-74.307"/>
</g>
<!-- Node4 -->
<g id="node5" class="node">
<title>Node4</title>
<polygon fill="none" stroke="#bfbfbf" points="306.5,-.5 306.5,-19.5 359.5,-19.5 359.5,-.5 306.5,-.5"/>
<text text-anchor="middle" x="333" y="-7.5" font-family="FreeSans.ttf" font-size="10.00" fill="#000000">cstddef</text>
</g>
<!-- Node2&#45;&gt;Node4 -->
<g id="edge19" class="edge">
<title>Node2&#45;&gt;Node4</title>
<path fill="none" stroke="#191970" d="M473.5676,-168.1026C462.5003,-155.1433 442.4325,-131.7509 425,-112 398.3703,-81.8286 366.8724,-47.1132 348.4955,-26.9543"/>
<polygon fill="#191970" stroke="#191970" points="351.0201,-24.5284 341.694,-19.5009 345.8493,-29.2469 351.0201,-24.5284"/>
</g>
<!-- Node6 -->
<g id="node7" class="node">
<title>Node6</title>
<g id="a_node7"><a xlink:href="Span_8h.html" target="_top" xlink:title="iDynTree/Core/Span.h">
<polygon fill="none" stroke="#000000" points="781.5,-56.5 781.5,-75.5 902.5,-75.5 902.5,-56.5 781.5,-56.5"/>
<text text-anchor="middle" x="842" y="-63.5" font-family="FreeSans.ttf" font-size="10.00" fill="#000000">iDynTree/Core/Span.h</text>
</a>
</g>
</g>
<!-- Node2&#45;&gt;Node6 -->
<g id="edge6" class="edge">
<title>Node2&#45;&gt;Node6</title>
<path fill="none" stroke="#191970" d="M562.8279,-168.8767C658.1727,-157.813 805.0864,-139.692 815,-132 829.3248,-120.8854 836.0961,-100.8874 839.2683,-85.8076"/>
<polygon fill="#191970" stroke="#191970" points="842.727,-86.3466 840.9985,-75.8937 835.8313,-85.1431 842.727,-86.3466"/>
</g>
<!-- Node7 -->
<g id="node8" class="node">
<title>Node7</title>
<polygon fill="none" stroke="#bfbfbf" points="593,-.5 593,-19.5 645,-19.5 645,-.5 593,-.5"/>
<text text-anchor="middle" x="619" y="-7.5" font-family="FreeSans.ttf" font-size="10.00" fill="#000000">cassert</text>
</g>
<!-- Node2&#45;&gt;Node7 -->
<g id="edge18" class="edge">
<title>Node2&#45;&gt;Node7</title>
<path fill="none" stroke="#191970" d="M483.0312,-168.3317C484.8442,-154.803 489.562,-129.8784 501,-112 525.1244,-74.2919 567.2975,-42.7504 594.1496,-25.1355"/>
<polygon fill="#191970" stroke="#191970" points="596.0895,-28.0493 602.6204,-19.7068 592.3125,-22.1558 596.0895,-28.0493"/>
</g>
<!-- Node15 -->
<g id="node16" class="node">
<title>Node15</title>
<polygon fill="none" stroke="#bfbfbf" points="957,-112.5 957,-131.5 1001,-131.5 1001,-112.5 957,-112.5"/>
<text text-anchor="middle" x="979" y="-119.5" font-family="FreeSans.ttf" font-size="10.00" fill="#000000">string</text>
</g>
<!-- Node2&#45;&gt;Node15 -->
<g id="edge16" class="edge">
<title>Node2&#45;&gt;Node15</title>
<path fill="none" stroke="#191970" d="M562.6807,-168.9092C674.0006,-156.3661 869.6624,-134.3197 946.6126,-125.6493"/>
<polygon fill="#191970" stroke="#191970" points="947.1164,-129.1148 956.6617,-124.517 946.3326,-122.1588 947.1164,-129.1148"/>
</g>
<!-- Node2&#45;&gt;Node16 -->
<g id="edge17" class="edge">
<title>Node2&#45;&gt;Node16</title>
<path fill="none" stroke="#191970" d="M445.8997,-168.3733C408.0069,-158.2685 348.6799,-142.448 310.0654,-132.1508"/>
<polygon fill="#191970" stroke="#191970" points="310.8039,-128.7255 300.2397,-129.5306 309.0003,-135.4891 310.8039,-128.7255"/>
</g>
<!-- Node17 -->
<g id="node18" class="node">
<title>Node17</title>
<polygon fill="none" stroke="#bfbfbf" points="510,-112.5 510,-131.5 560,-131.5 560,-112.5 510,-112.5"/>
<text text-anchor="middle" x="535" y="-119.5" font-family="FreeSans.ttf" font-size="10.00" fill="#000000">cstring</text>
</g>
<!-- Node2&#45;&gt;Node17 -->
<g id="edge20" class="edge">
<title>Node2&#45;&gt;Node17</title>
<path fill="none" stroke="#191970" d="M491.2319,-168.2455C498.8317,-160.2155 509.7877,-148.6394 518.8368,-139.0781"/>
<polygon fill="#191970" stroke="#191970" points="521.5421,-141.3115 525.8739,-131.6427 516.458,-136.4998 521.5421,-141.3115"/>
</g>
<!-- Node3&#45;&gt;Node4 -->
<g id="edge4" class="edge">
<title>Node3&#45;&gt;Node4</title>
<path fill="none" stroke="#191970" d="M168.2093,-56.3733C203.9644,-46.3115 259.8586,-30.5825 296.4603,-20.2825"/>
<polygon fill="#191970" stroke="#191970" points="297.5615,-23.6087 306.2395,-17.5306 295.6652,-16.8704 297.5615,-23.6087"/>
</g>
<!-- Node5 -->
<g id="node6" class="node">
<title>Node5</title>
<polygon fill="none" stroke="#bfbfbf" points="94,-.5 94,-19.5 174,-19.5 174,-.5 94,-.5"/>
<text text-anchor="middle" x="134" y="-7.5" font-family="FreeSans.ttf" font-size="10.00" fill="#000000">CoreExport.h</text>
</g>
<!-- Node3&#45;&gt;Node5 -->
<g id="edge5" class="edge">
<title>Node3&#45;&gt;Node5</title>
<path fill="none" stroke="#191970" d="M134,-56.2455C134,-48.9382 134,-38.6944 134,-29.7046"/>
<polygon fill="#191970" stroke="#191970" points="137.5001,-29.6426 134,-19.6427 130.5001,-29.6427 137.5001,-29.6426"/>
</g>
<!-- Node6&#45;&gt;Node4 -->
<g id="edge10" class="edge">
<title>Node6&#45;&gt;Node4</title>
<path fill="none" stroke="#191970" d="M781.3605,-59.3285C674.6985,-47.5936 456.6019,-23.5986 369.8148,-14.0503"/>
<polygon fill="#191970" stroke="#191970" points="369.9811,-10.5476 359.6583,-12.9329 369.2155,-17.5056 369.9811,-10.5476"/>
</g>
<!-- Node6&#45;&gt;Node7 -->
<g id="edge7" class="edge">
<title>Node6&#45;&gt;Node7</title>
<path fill="none" stroke="#191970" d="M801.7868,-56.4736C763.8581,-47.402 705.4549,-33.2102 655,-20 654.902,-19.9743 654.8038,-19.9486 654.7054,-19.9228"/>
<polygon fill="#191970" stroke="#191970" points="655.8868,-16.6159 645.3216,-17.4088 654.0752,-23.3775 655.8868,-16.6159"/>
</g>
<!-- Node8 -->
<g id="node9" class="node">
<title>Node8</title>
<polygon fill="none" stroke="#bfbfbf" points="897,-.5 897,-19.5 961,-19.5 961,-.5 897,-.5"/>
<text text-anchor="middle" x="929" y="-7.5" font-family="FreeSans.ttf" font-size="10.00" fill="#000000">algorithm</text>
</g>
<!-- Node6&#45;&gt;Node8 -->
<g id="edge8" class="edge">
<title>Node6&#45;&gt;Node8</title>
<path fill="none" stroke="#191970" d="M857.1542,-56.2455C870.5027,-47.6534 890.1586,-35.0014 905.5383,-25.1018"/>
<polygon fill="#191970" stroke="#191970" points="907.5051,-27.9982 914.0194,-19.6427 903.7164,-22.1121 907.5051,-27.9982"/>
</g>
<!-- Node9 -->
<g id="node10" class="node">
<title>Node9</title>
<polygon fill="none" stroke="#bfbfbf" points="979,-.5 979,-19.5 1021,-19.5 1021,-.5 979,-.5"/>
<text text-anchor="middle" x="1000" y="-7.5" font-family="FreeSans.ttf" font-size="10.00" fill="#000000">array</text>
</g>
<!-- Node6&#45;&gt;Node9 -->
<g id="edge9" class="edge">
<title>Node6&#45;&gt;Node9</title>
<path fill="none" stroke="#191970" d="M869.1612,-56.3733C896.9431,-46.5265 940.0387,-31.2521 969.105,-20.9501"/>
<polygon fill="#191970" stroke="#191970" points="970.4967,-24.1703 978.753,-17.5306 968.1582,-17.5724 970.4967,-24.1703"/>
</g>
<!-- Node10 -->
<g id="node11" class="node">
<title>Node10</title>
<polygon fill="none" stroke="#bfbfbf" points="1039.5,-.5 1039.5,-19.5 1092.5,-19.5 1092.5,-.5 1039.5,-.5"/>
<text text-anchor="middle" x="1066" y="-7.5" font-family="FreeSans.ttf" font-size="10.00" fill="#000000">iterator</text>
</g>
<!-- Node6&#45;&gt;Node10 -->
<g id="edge11" class="edge">
<title>Node6&#45;&gt;Node10</title>
<path fill="none" stroke="#191970" d="M882.4316,-56.4898C918.4799,-47.9251 972.9218,-34.7816 1029.4585,-20.0847"/>
<polygon fill="#191970" stroke="#191970" points="1030.4966,-23.4311 1039.2885,-17.519 1028.7287,-16.658 1030.4966,-23.4311"/>
</g>
<!-- Node11 -->
<g id="node12" class="node">
<title>Node11</title>
<polygon fill="none" stroke="#bfbfbf" points="1111,-.5 1111,-19.5 1155,-19.5 1155,-.5 1111,-.5"/>
<text text-anchor="middle" x="1133" y="-7.5" font-family="FreeSans.ttf" font-size="10.00" fill="#000000">limits</text>
</g>
<!-- Node6&#45;&gt;Node11 -->
<g id="edge12" class="edge">
<title>Node6&#45;&gt;Node11</title>
<path fill="none" stroke="#191970" d="M902.648,-57.6743C953.3806,-50.1645 1027.7643,-37.8886 1100.9114,-20.0195"/>
<polygon fill="#191970" stroke="#191970" points="1101.8905,-23.3828 1110.7541,-17.5788 1100.2057,-16.5886 1101.8905,-23.3828"/>
</g>
<!-- Node12 -->
<g id="node13" class="node">
<title>Node12</title>
<polygon fill="none" stroke="#bfbfbf" points="750.5,-.5 750.5,-19.5 815.5,-19.5 815.5,-.5 750.5,-.5"/>
<text text-anchor="middle" x="783" y="-7.5" font-family="FreeSans.ttf" font-size="10.00" fill="#000000">stdexcept</text>
</g>
<!-- Node6&#45;&gt;Node12 -->
<g id="edge13" class="edge">
<title>Node6&#45;&gt;Node12</title>
<path fill="none" stroke="#191970" d="M831.723,-56.2455C823.1782,-48.1352 810.8222,-36.4075 800.6915,-26.7919"/>
<polygon fill="#191970" stroke="#191970" points="802.8218,-23.9884 793.1592,-19.6427 798.0028,-29.0655 802.8218,-23.9884"/>
</g>
<!-- Node13 -->
<g id="node14" class="node">
<title>Node13</title>
<polygon fill="none" stroke="#bfbfbf" points="663.5,-.5 663.5,-19.5 732.5,-19.5 732.5,-.5 663.5,-.5"/>
<text text-anchor="middle" x="698" y="-7.5" font-family="FreeSans.ttf" font-size="10.00" fill="#000000">type_traits</text>
</g>
<!-- Node6&#45;&gt;Node13 -->
<g id="edge14" class="edge">
<title>Node6&#45;&gt;Node13</title>
<path fill="none" stroke="#191970" d="M817.2455,-56.3733C793.7151,-47.2226 758.1313,-33.3844 731.9574,-23.2057"/>
<polygon fill="#191970" stroke="#191970" points="733.0201,-19.8636 722.4315,-19.5011 730.4829,-26.3877 733.0201,-19.8636"/>
</g>
<!-- Node14 -->
<g id="node15" class="node">
<title>Node14</title>
<polygon fill="none" stroke="#bfbfbf" points="833.5,-.5 833.5,-19.5 878.5,-19.5 878.5,-.5 833.5,-.5"/>
<text text-anchor="middle" x="856" y="-7.5" font-family="FreeSans.ttf" font-size="10.00" fill="#000000">utility</text>
</g>
<!-- Node6&#45;&gt;Node14 -->
<g id="edge15" class="edge">
<title>Node6&#45;&gt;Node14</title>
<path fill="none" stroke="#191970" d="M844.4386,-56.2455C846.2855,-48.8579 848.8828,-38.4689 851.1478,-29.4087"/>
<polygon fill="#191970" stroke="#191970" points="854.5594,-30.193 853.5893,-19.6427 847.7684,-28.4952 854.5594,-30.193"/>
</g>
<!-- Node18&#45;&gt;Node2 -->
<g id="edge22" class="edge">
<title>Node18&#45;&gt;Node2</title>
<path fill="none" stroke="#191970" d="M447.3158,-224.2455C453.2179,-216.3761 461.6742,-205.101 468.7594,-195.6542"/>
<polygon fill="#191970" stroke="#191970" points="471.568,-197.7427 474.768,-187.6427 465.9679,-193.5427 471.568,-197.7427"/>
</g>
<!-- Node19&#45;&gt;Node3 -->
<g id="edge48" class="edge">
<title>Node19&#45;&gt;Node3</title>
<path fill="none" stroke="#191970" d="M364.1626,-392.3065C331.3884,-345.8418 190.1706,-145.6342 146.7508,-84.0772"/>
<polygon fill="#191970" stroke="#191970" points="149.4892,-81.8871 140.8651,-75.7328 143.769,-85.9219 149.4892,-81.8871"/>
</g>
<!-- Node19&#45;&gt;Node16 -->
<g id="edge51" class="edge">
<title>Node19&#45;&gt;Node16</title>
<path fill="none" stroke="#191970" d="M366.1866,-392.26C361.717,-383.0373 355.0163,-368.7434 350,-356 319.2531,-277.8899 289.859,-182.1978 277.7743,-141.6494"/>
<polygon fill="#191970" stroke="#191970" points="281.0952,-140.5372 274.8991,-131.9431 274.3835,-142.5253 281.0952,-140.5372"/>
</g>
<!-- Node19&#45;&gt;Node18 -->
<g id="edge49" class="edge">
<title>Node19&#45;&gt;Node18</title>
<path fill="none" stroke="#191970" d="M374.9074,-392.4862C385.9092,-365.6994 417.3054,-289.2565 432.1024,-253.2289"/>
<polygon fill="#191970" stroke="#191970" points="435.4019,-254.4078 435.9635,-243.8279 428.9267,-251.7484 435.4019,-254.4078"/>
</g>
<!-- Node20 -->
<g id="node21" class="node">
<title>Node20</title>
<g id="a_node21"><a xlink:href="Position_8h.html" target="_top" xlink:title="Position.h">
<polygon fill="none" stroke="#000000" points="787.5,-336.5 787.5,-355.5 852.5,-355.5 852.5,-336.5 787.5,-336.5"/>
<text text-anchor="middle" x="820" y="-343.5" font-family="FreeSans.ttf" font-size="10.00" fill="#000000">Position.h</text>
</a>
</g>
</g>
<!-- Node19&#45;&gt;Node20 -->
<g id="edge24" class="edge">
<title>Node19&#45;&gt;Node20</title>
<path fill="none" stroke="#191970" d="M447.4211,-392.4686C542.4587,-380.6154 701.4046,-360.7914 777.2313,-351.3342"/>
<polygon fill="#191970" stroke="#191970" points="777.8739,-354.7812 787.3638,-350.0704 777.0075,-347.8351 777.8739,-354.7812"/>
</g>
<!-- Node22 -->
<g id="node23" class="node">
<title>Node22</title>
<g id="a_node23"><a xlink:href="Rotation_8h.html" target="_top" xlink:title="iDynTree/Core/Rotation.h">
<polygon fill="none" stroke="#000000" points="654.5,-280.5 654.5,-299.5 791.5,-299.5 791.5,-280.5 654.5,-280.5"/>
<text text-anchor="middle" x="723" y="-287.5" font-family="FreeSans.ttf" font-size="10.00" fill="#000000">iDynTree/Core/Rotation.h</text>
</a>
</g>
</g>
<!-- Node19&#45;&gt;Node22 -->
<g id="edge47" class="edge">
<title>Node19&#45;&gt;Node22</title>
<path fill="none" stroke="#191970" d="M401.0113,-392.4509C464.3967,-372.2829 611.9187,-325.3441 683.1307,-302.6857"/>
<polygon fill="#191970" stroke="#191970" points="684.5966,-305.8922 693.0646,-299.5249 682.4741,-299.2217 684.5966,-305.8922"/>
</g>
<!-- Node26 -->
<g id="node27" class="node">
<title>Node26</title>
<polygon fill="none" stroke="#bfbfbf" points="356,-112.5 356,-131.5 416,-131.5 416,-112.5 356,-112.5"/>
<text text-anchor="middle" x="386" y="-119.5" font-family="FreeSans.ttf" font-size="10.00" fill="#000000">iostream</text>
</g>
<!-- Node19&#45;&gt;Node26 -->
<g id="edge50" class="edge">
<title>Node19&#45;&gt;Node26</title>
<path fill="none" stroke="#191970" d="M367.7872,-392.301C359.3189,-365.4287 337.7879,-287.789 349,-224 354.304,-193.8239 367.8038,-160.8185 376.9441,-140.7601"/>
<polygon fill="#191970" stroke="#191970" points="380.1927,-142.0755 381.26,-131.5345 373.8522,-139.1093 380.1927,-142.0755"/>
</g>
<!-- Node20&#45;&gt;Node15 -->
<g id="edge46" class="edge">
<title>Node20&#45;&gt;Node15</title>
<path fill="none" stroke="#191970" d="M852.5579,-338.6129C918.2673,-322.9746 1062.8917,-284.6129 1091,-244 1110.2228,-216.2255 1109.8079,-196.0571 1091,-168 1073.3307,-141.6415 1037.5539,-130.3739 1011.1695,-125.5651"/>
<polygon fill="#191970" stroke="#191970" points="1011.6511,-122.0977 1001.2232,-123.9713 1010.5435,-129.0095 1011.6511,-122.0977"/>
</g>
<!-- Node21 -->
<g id="node22" class="node">
<title>Node21</title>
<g id="a_node22"><a xlink:href="PositionRaw_8h.html" target="_top" xlink:title="iDynTree/Core/PositionRaw.h">
<polygon fill="none" stroke="#000000" points="692,-224.5 692,-243.5 848,-243.5 848,-224.5 692,-224.5"/>
<text text-anchor="middle" x="770" y="-231.5" font-family="FreeSans.ttf" font-size="10.00" fill="#000000">iDynTree/Core/PositionRaw.h</text>
</a>
</g>
</g>
<!-- Node20&#45;&gt;Node21 -->
<g id="edge25" class="edge">
<title>Node20&#45;&gt;Node21</title>
<path fill="none" stroke="#191970" d="M818.1934,-336.2637C815.5273,-323.0807 809.875,-299.0167 801,-280 796.394,-270.1306 789.8075,-260.0038 783.8894,-251.7731"/>
<polygon fill="#191970" stroke="#191970" points="786.6414,-249.6087 777.8552,-243.6881 781.0315,-253.7956 786.6414,-249.6087"/>
</g>
<!-- Node20&#45;&gt;Node22 -->
<g id="edge28" class="edge">
<title>Node20&#45;&gt;Node22</title>
<path fill="none" stroke="#191970" d="M803.1039,-336.2455C788.082,-327.5731 765.8957,-314.7645 748.679,-304.825"/>
<polygon fill="#191970" stroke="#191970" points="750.1128,-301.6114 739.7025,-299.6427 746.6129,-307.6737 750.1128,-301.6114"/>
</g>
<!-- Node21&#45;&gt;Node2 -->
<g id="edge26" class="edge">
<title>Node21&#45;&gt;Node2</title>
<path fill="none" stroke="#191970" d="M720.8183,-224.4369C671.0116,-214.7522 593.9615,-199.7703 540.9212,-189.4569"/>
<polygon fill="#191970" stroke="#191970" points="541.4631,-185.9968 530.9789,-187.5237 540.127,-192.8681 541.4631,-185.9968"/>
</g>
<!-- Node21&#45;&gt;Node15 -->
<g id="edge27" class="edge">
<title>Node21&#45;&gt;Node15</title>
<path fill="none" stroke="#191970" d="M784.5029,-224.4924C805.1058,-211.1547 844.215,-186.4556 879,-168 901.486,-156.0697 927.6458,-144.1008 947.5683,-135.3633"/>
<polygon fill="#191970" stroke="#191970" points="949.0288,-138.5449 956.8041,-131.348 946.2378,-132.1254 949.0288,-138.5449"/>
</g>
<!-- Node22&#45;&gt;Node2 -->
<g id="edge45" class="edge">
<title>Node22&#45;&gt;Node2</title>
<path fill="none" stroke="#191970" d="M706.9152,-280.3266C684.0617,-266.792 640.6676,-241.8604 602,-224 574.9403,-211.5012 543.4434,-199.5204 519.5096,-190.9206"/>
<polygon fill="#191970" stroke="#191970" points="520.6738,-187.6199 510.0791,-187.5661 518.3278,-194.2151 520.6738,-187.6199"/>
</g>
<!-- Node22&#45;&gt;Node15 -->
<g id="edge29" class="edge">
<title>Node22&#45;&gt;Node15</title>
<path fill="none" stroke="#191970" d="M791.5159,-283.2427C890.2449,-273.1782 1061.7813,-254.3299 1071,-244 1093.4924,-218.7963 1089.8215,-196.6972 1072,-168 1058.71,-146.5995 1032.1857,-134.8528 1010.8531,-128.599"/>
<polygon fill="#191970" stroke="#191970" points="1011.7454,-125.2147 1001.1815,-126.0245 1009.9447,-131.9792 1011.7454,-125.2147"/>
</g>
<!-- Node22&#45;&gt;Node18 -->
<g id="edge30" class="edge">
<title>Node22&#45;&gt;Node18</title>
<path fill="none" stroke="#191970" d="M674.6721,-280.4369C625.8319,-270.7724 550.3324,-255.8326 498.2236,-245.5213"/>
<polygon fill="#191970" stroke="#191970" points="498.6178,-242.0315 488.1285,-243.5237 497.2589,-248.8983 498.6178,-242.0315"/>
</g>
<!-- Node23 -->
<g id="node24" class="node">
<title>Node23</title>
<g id="a_node24"><a xlink:href="RotationRaw_8h.html" target="_top" xlink:title="iDynTree/Core/RotationRaw.h">
<polygon fill="none" stroke="#000000" points="904,-224.5 904,-243.5 1062,-243.5 1062,-224.5 904,-224.5"/>
<text text-anchor="middle" x="983" y="-231.5" font-family="FreeSans.ttf" font-size="10.00" fill="#000000">iDynTree/Core/RotationRaw.h</text>
</a>
</g>
</g>
<!-- Node22&#45;&gt;Node23 -->
<g id="edge31" class="edge">
<title>Node22&#45;&gt;Node23</title>
<path fill="none" stroke="#191970" d="M767.4002,-280.4369C812.0841,-270.8127 881.057,-255.957 928.9088,-245.6504"/>
<polygon fill="#191970" stroke="#191970" points="929.7441,-249.0508 938.783,-243.5237 928.2702,-242.2078 929.7441,-249.0508"/>
</g>
<!-- Node23&#45;&gt;Node15 -->
<g id="edge44" class="edge">
<title>Node23&#45;&gt;Node15</title>
<path fill="none" stroke="#191970" d="M939.5168,-224.3976C919.9249,-217.6689 898.6205,-206.4539 887,-188 869.4863,-160.1875 914.0964,-140.5509 947.1507,-130.2748"/>
<polygon fill="#191970" stroke="#191970" points="948.3523,-133.5696 956.9564,-127.3874 946.375,-126.8547 948.3523,-133.5696"/>
</g>
<!-- Node24 -->
<g id="node25" class="node">
<title>Node24</title>
<g id="a_node25"><a xlink:href="MatrixFixSize_8h.html" target="_top" xlink:title="iDynTree/Core/MatrixFixSize.h">
<polygon fill="none" stroke="#000000" points="580.5,-168.5 580.5,-187.5 741.5,-187.5 741.5,-168.5 580.5,-168.5"/>
<text text-anchor="middle" x="661" y="-175.5" font-family="FreeSans.ttf" font-size="10.00" fill="#000000">iDynTree/Core/MatrixFixSize.h</text>
</a>
</g>
</g>
<!-- Node23&#45;&gt;Node24 -->
<g id="edge32" class="edge">
<title>Node23&#45;&gt;Node24</title>
<path fill="none" stroke="#191970" d="M928.0121,-224.4369C871.9781,-214.6918 785.1034,-199.5832 725.7707,-189.2645"/>
<polygon fill="#191970" stroke="#191970" points="726.2129,-185.7889 715.7611,-187.5237 725.0135,-192.6854 726.2129,-185.7889"/>
</g>
<!-- Node24&#45;&gt;Node3 -->
<g id="edge33" class="edge">
<title>Node24&#45;&gt;Node3</title>
<path fill="none" stroke="#191970" d="M651.2828,-168.3289C635.5408,-153.3357 602.8016,-124.871 569,-112 504.0081,-87.2523 309.358,-74.3704 203.8394,-69.0429"/>
<polygon fill="#191970" stroke="#191970" points="203.7638,-65.5349 193.6028,-68.5356 203.4173,-72.5264 203.7638,-65.5349"/>
</g>
<!-- Node24&#45;&gt;Node7 -->
<g id="edge39" class="edge">
<title>Node24&#45;&gt;Node7</title>
<path fill="none" stroke="#191970" d="M657.5015,-168.2133C654.2663,-158.9576 649.4511,-144.6414 646,-132 636.2345,-96.2292 627.4727,-53.8368 622.7279,-29.6124"/>
<polygon fill="#191970" stroke="#191970" points="626.1209,-28.7233 620.7878,-19.5686 619.248,-30.0509 626.1209,-28.7233"/>
</g>
<!-- Node24&#45;&gt;Node15 -->
<g id="edge41" class="edge">
<title>Node24&#45;&gt;Node15</title>
<path fill="none" stroke="#191970" d="M715.3048,-168.4369C781.8267,-156.7223 892.3616,-137.2571 946.7521,-127.6789"/>
<polygon fill="#191970" stroke="#191970" points="947.6105,-131.0816 956.852,-125.9003 946.3965,-124.1877 947.6105,-131.0816"/>
</g>
<!-- Node24&#45;&gt;Node16 -->
<g id="edge43" class="edge">
<title>Node24&#45;&gt;Node16</title>
<path fill="none" stroke="#191970" d="M594.5705,-168.4369C512.591,-156.6352 375.968,-136.9671 309.9748,-127.4668"/>
<polygon fill="#191970" stroke="#191970" points="310.4056,-123.9928 300.0089,-126.0321 309.4081,-130.9214 310.4056,-123.9928"/>
</g>
<!-- Node24&#45;&gt;Node17 -->
<g id="edge40" class="edge">
<title>Node24&#45;&gt;Node17</title>
<path fill="none" stroke="#191970" d="M639.3398,-168.3733C619.0228,-159.3435 588.436,-145.7494 565.625,-135.6111"/>
<polygon fill="#191970" stroke="#191970" points="566.9372,-132.3642 556.3775,-131.5011 564.0941,-138.7609 566.9372,-132.3642"/>
</g>
<!-- Node25 -->
<g id="node26" class="node">
<title>Node25</title>
<g id="a_node26"><a xlink:href="MatrixView_8h.html" target="_top" xlink:title="iDynTree/Core/MatrixView.h">
<polygon fill="none" stroke="#000000" points="654.5,-112.5 654.5,-131.5 805.5,-131.5 805.5,-112.5 654.5,-112.5"/>
<text text-anchor="middle" x="730" y="-119.5" font-family="FreeSans.ttf" font-size="10.00" fill="#000000">iDynTree/Core/MatrixView.h</text>
</a>
</g>
</g>
<!-- Node24&#45;&gt;Node25 -->
<g id="edge34" class="edge">
<title>Node24&#45;&gt;Node25</title>
<path fill="none" stroke="#191970" d="M673.0189,-168.2455C683.2098,-159.9746 698.0362,-147.9416 710.0107,-138.2232"/>
<polygon fill="#191970" stroke="#191970" points="712.5598,-140.662 718.1188,-131.6427 708.1486,-135.2268 712.5598,-140.662"/>
</g>
<!-- Node24&#45;&gt;Node26 -->
<g id="edge42" class="edge">
<title>Node24&#45;&gt;Node26</title>
<path fill="none" stroke="#191970" d="M614.0383,-168.4369C561.1909,-157.6752 476.2224,-140.3726 426.2827,-130.203"/>
<polygon fill="#191970" stroke="#191970" points="426.6793,-126.712 416.182,-128.1461 425.2824,-133.5713 426.6793,-126.712"/>
</g>
<!-- Node25&#45;&gt;Node3 -->
<g id="edge38" class="edge">
<title>Node25&#45;&gt;Node3</title>
<path fill="none" stroke="#191970" d="M654.2137,-114.8791C537.7687,-103.938 316.5225,-83.1498 203.795,-72.5579"/>
<polygon fill="#191970" stroke="#191970" points="203.8448,-69.0473 193.5612,-71.5964 203.1899,-76.0166 203.8448,-69.0473"/>
</g>
<!-- Node25&#45;&gt;Node6 -->
<g id="edge37" class="edge">
<title>Node25&#45;&gt;Node6</title>
<path fill="none" stroke="#191970" d="M749.2535,-112.3733C767.0712,-103.4644 793.7747,-90.1127 813.9594,-80.0203"/>
<polygon fill="#191970" stroke="#191970" points="815.6187,-83.1038 822.9978,-75.5011 812.4882,-76.8428 815.6187,-83.1038"/>
</g>
<!-- Node25&#45;&gt;Node7 -->
<g id="edge35" class="edge">
<title>Node25&#45;&gt;Node7</title>
<path fill="none" stroke="#191970" d="M720.5362,-112.4509C701.6951,-93.4401 659.2795,-50.6423 635.6659,-26.816"/>
<polygon fill="#191970" stroke="#191970" points="637.9651,-24.1639 628.4398,-19.5249 632.9932,-29.0914 637.9651,-24.1639"/>
</g>
<!-- Node25&#45;&gt;Node13 -->
<g id="edge36" class="edge">
<title>Node25&#45;&gt;Node13</title>
<path fill="none" stroke="#191970" d="M727.2717,-112.4509C722.0289,-94.1013 710.4545,-53.5908 703.5341,-29.3693"/>
<polygon fill="#191970" stroke="#191970" points="706.834,-28.1786 700.7214,-19.5249 700.1033,-30.1017 706.834,-28.1786"/>
</g>
<!-- Node27&#45;&gt;Node2 -->
<g id="edge53" class="edge">
<title>Node27&#45;&gt;Node2</title>
<path fill="none" stroke="#191970" d="M297.1214,-448.2541C288.8592,-438.6909 279.3864,-425.6233 275,-412 272.2757,-403.5389 273.2127,-400.7074 275,-392 281.2386,-361.6058 331.6136,-239.9377 349,-224 366.7282,-207.749 390.4866,-197.1944 413.0169,-190.3581"/>
<polygon fill="#191970" stroke="#191970" points="414.2435,-193.6486 422.9149,-187.5611 412.3399,-186.9124 414.2435,-193.6486"/>
</g>
<!-- Node27&#45;&gt;Node18 -->
<g id="edge54" class="edge">
<title>Node27&#45;&gt;Node18</title>
<path fill="none" stroke="#191970" d="M298.0165,-448.4905C286.3485,-434.0607 272.8402,-411.6119 281,-392 308.3556,-326.2513 377.8452,-273.7673 415.2554,-249.1793"/>
<polygon fill="#191970" stroke="#191970" points="417.5112,-251.89 424.0301,-243.538 413.7257,-246.0018 417.5112,-251.89"/>
</g>
<!-- Node27&#45;&gt;Node19 -->
<g id="edge55" class="edge">
<title>Node27&#45;&gt;Node19</title>
<path fill="none" stroke="#191970" d="M326.5843,-448.2977C335.03,-439.4941 345.6892,-428.3833 354.4484,-419.2529"/>
<polygon fill="#191970" stroke="#191970" points="357.1561,-421.4862 361.5534,-411.8469 352.1048,-416.6402 357.1561,-421.4862"/>
</g>
<!-- Node28&#45;&gt;Node15 -->
<g id="edge60" class="edge">
<title>Node28&#45;&gt;Node15</title>
<path fill="none" stroke="#191970" d="M891.9464,-392.4585C949.1256,-374.3367 1062.9993,-328.9436 1110,-244 1126.3533,-214.4449 1129.5311,-195.5585 1110,-168 1098.3293,-151.5326 1045.8672,-136.9248 1010.9775,-128.7908"/>
<polygon fill="#191970" stroke="#191970" points="1011.7418,-125.3753 1001.2152,-126.5757 1010.1928,-132.2018 1011.7418,-125.3753"/>
</g>
<!-- Node28&#45;&gt;Node20 -->
<g id="edge57" class="edge">
<title>Node28&#45;&gt;Node20</title>
<path fill="none" stroke="#191970" d="M851.3809,-392.2455C846.0954,-384.4564 838.5459,-373.3308 832.1762,-363.9439"/>
<polygon fill="#191970" stroke="#191970" points="835.0545,-361.9522 826.5432,-355.6427 829.2621,-365.8827 835.0545,-361.9522"/>
</g>
<!-- Node28&#45;&gt;Node22 -->
<g id="edge58" class="edge">
<title>Node28&#45;&gt;Node22</title>
<path fill="none" stroke="#191970" d="M837.2971,-392.3997C820.5976,-384.1002 797.0071,-371.0823 779,-356 762.1788,-341.9111 746.3281,-322.4225 735.8132,-308.2775"/>
<polygon fill="#191970" stroke="#191970" points="738.4189,-305.9085 729.7173,-299.8642 732.7504,-310.0156 738.4189,-305.9085"/>
</g>
<!-- Node28&#45;&gt;Node24 -->
<g id="edge59" class="edge">
<title>Node28&#45;&gt;Node24</title>
<path fill="none" stroke="#191970" d="M861.777,-392.0858C872.3144,-362.5662 898.6288,-274.1882 857,-224 843.0747,-207.2115 796.1392,-195.8591 751.6912,-188.6328"/>
<polygon fill="#191970" stroke="#191970" points="752.0854,-185.1519 741.6644,-187.0634 751.0029,-192.0677 752.0854,-185.1519"/>
</g>
<!-- Node29&#45;&gt;Node30 -->
<g id="edge63" class="edge">
<title>Node29&#45;&gt;Node30</title>
<path fill="none" stroke="#191970" d="M271.188,-571.3845C239.821,-551.0219 166.4736,-503.4069 128.5845,-478.8104"/>
<polygon fill="#191970" stroke="#191970" points="130.0562,-475.593 119.7628,-473.0836 126.2447,-481.4643 130.0562,-475.593"/>
</g>
<!-- Node29&#45;&gt;Node31 -->
<g id="edge64" class="edge">
<title>Node29&#45;&gt;Node31</title>
<path fill="none" stroke="#191970" d="M322.7879,-571.3733C359.0661,-561.8799 414.6236,-547.3415 453.8446,-537.0781"/>
<polygon fill="#191970" stroke="#191970" points="454.904,-540.4188 463.6921,-534.5011 453.1318,-533.6468 454.904,-540.4188"/>
</g>
<!-- Node31&#45;&gt;Node1 -->
<g id="edge75" class="edge">
<title>Node31&#45;&gt;Node1</title>
<path fill="none" stroke="#191970" d="M497.1875,-515.3906C495.0672,-508.1463 492.0589,-497.8679 489.2783,-488.3676"/>
<polygon fill="#191970" stroke="#191970" points="492.5714,-487.1588 486.4033,-478.5446 485.8533,-489.1251 492.5714,-487.1588"/>
</g>
<!-- Node31&#45;&gt;Node2 -->
<g id="edge70" class="edge">
<title>Node31&#45;&gt;Node2</title>
<path fill="none" stroke="#191970" d="M522.5263,-515.3844C537.8645,-507.7046 557.4144,-495.4936 569,-479 589.2609,-450.1562 588,-437.2487 588,-402 588,-402 588,-402 588,-290 588,-244.9213 542.1435,-210.6897 510.7528,-192.5376"/>
<polygon fill="#191970" stroke="#191970" points="512.3786,-189.437 501.9378,-187.6372 508.9774,-195.5552 512.3786,-189.437"/>
</g>
<!-- Node31&#45;&gt;Node3 -->
<g id="edge78" class="edge">
<title>Node31&#45;&gt;Node3</title>
<path fill="none" stroke="#191970" d="M419.3792,-521.2424C341.5173,-516.1446 230.4712,-504.5422 196,-479 144.4678,-440.8161 140,-410.1372 140,-346 140,-346 140,-346 140,-178 140,-145.6653 137.4755,-108.1547 135.7016,-85.7876"/>
<polygon fill="#191970" stroke="#191970" points="139.1698,-85.2576 134.8597,-75.5791 132.1935,-85.833 139.1698,-85.2576"/>
</g>
<!-- Node31&#45;&gt;Node4 -->
<g id="edge65" class="edge">
<title>Node31&#45;&gt;Node4</title>
<path fill="none" stroke="#191970" d="M419.4263,-520.0585C350.3194,-514.2807 257.5166,-502.363 229,-479 180.0286,-438.8789 178,-409.308 178,-346 178,-346 178,-346 178,-290 178,-206.9317 192.4589,-183.3484 235,-112 255.8536,-77.0252 290.8077,-44.5649 312.8469,-26.0351"/>
<polygon fill="#191970" stroke="#191970" points="315.1154,-28.701 320.605,-19.6393 310.6626,-23.2998 315.1154,-28.701"/>
</g>
<!-- Node31&#45;&gt;Node24 -->
<g id="edge74" class="edge">
<title>Node31&#45;&gt;Node24</title>
<path fill="none" stroke="#191970" d="M529.8604,-515.4709C549.0599,-508.0783 573.4243,-496.169 590,-479 616.2392,-451.8216 626,-439.7778 626,-402 626,-402 626,-402 626,-290 626,-255.8821 640.9795,-218.4701 651.3391,-196.676"/>
<polygon fill="#191970" stroke="#191970" points="654.5455,-198.0877 655.8356,-187.5717 648.2692,-194.9879 654.5455,-198.0877"/>
</g>
<!-- Node31&#45;&gt;Node27 -->
<g id="edge76" class="edge">
<title>Node31&#45;&gt;Node27</title>
<path fill="none" stroke="#191970" d="M470.625,-515.3906C443.179,-506.4123 401.4865,-492.7735 367.7324,-481.7316"/>
<polygon fill="#191970" stroke="#191970" points="368.5826,-478.3273 357.99,-478.5446 366.4061,-484.9803 368.5826,-478.3273"/>
</g>
<!-- Node31&#45;&gt;Node28 -->
<g id="edge77" class="edge">
<title>Node31&#45;&gt;Node28</title>
<path fill="none" stroke="#191970" d="M529.5606,-515.4966C557.9387,-506.3239 601.981,-491.9586 640,-479 704.3256,-457.0749 778.9211,-430.4703 822.0651,-414.9663"/>
<polygon fill="#191970" stroke="#191970" points="823.3298,-418.2309 831.5549,-411.5527 820.9605,-411.6441 823.3298,-418.2309"/>
</g>
<!-- Node31&#45;&gt;Node30 -->
<g id="edge66" class="edge">
<title>Node31&#45;&gt;Node30</title>
<path fill="none" stroke="#191970" d="M419.2548,-517.6101C349.579,-510.409 246.493,-497.7792 158,-479 153.6085,-478.0681 149.0502,-476.9584 144.533,-475.7673"/>
<polygon fill="#191970" stroke="#191970" points="145.3623,-472.3653 134.7907,-473.0669 143.4924,-479.1109 145.3623,-472.3653"/>
</g>
<!-- Node32 -->
<g id="node33" class="node">
<title>Node32</title>
<g id="a_node33"><a xlink:href="VectorDynSize_8h.html" target="_top" xlink:title="iDynTree/Core/VectorDynSize.h">
<polygon fill="none" stroke="#000000" points="1231.5,-168.5 1231.5,-187.5 1398.5,-187.5 1398.5,-168.5 1231.5,-168.5"/>
<text text-anchor="middle" x="1315" y="-175.5" font-family="FreeSans.ttf" font-size="10.00" fill="#000000">iDynTree/Core/VectorDynSize.h</text>
</a>
</g>
</g>
<!-- Node31&#45;&gt;Node32 -->
<g id="edge67" class="edge">
<title>Node31&#45;&gt;Node32</title>
<path fill="none" stroke="#191970" d="M580.8195,-519.9844C773.1296,-506.971 1242,-468.4312 1242,-402 1242,-402 1242,-402 1242,-290 1242,-250.8965 1273.6171,-214.7535 1295.2361,-194.6105"/>
<polygon fill="#191970" stroke="#191970" points="1297.8346,-196.9817 1302.9455,-187.7011 1293.1627,-191.7688 1297.8346,-196.9817"/>
</g>
<!-- Node33 -->
<g id="node34" class="node">
<title>Node33</title>
<g id="a_node34"><a xlink:href="MatrixDynSize_8h.html" target="_top" xlink:title="iDynTree/Core/MatrixDynSize.h">
<polygon fill="none" stroke="#000000" points="895.5,-168.5 895.5,-187.5 1062.5,-187.5 1062.5,-168.5 895.5,-168.5"/>
<text text-anchor="middle" x="979" y="-175.5" font-family="FreeSans.ttf" font-size="10.00" fill="#000000">iDynTree/Core/MatrixDynSize.h</text>
</a>
</g>
</g>
<!-- Node31&#45;&gt;Node33 -->
<g id="edge71" class="edge">
<title>Node31&#45;&gt;Node33</title>
<path fill="none" stroke="#191970" d="M580.8144,-517.516C750.4272,-500.7182 1128,-457.133 1128,-402 1128,-402 1128,-402 1128,-290 1128,-237.35 1067.8194,-206.3847 1023.9512,-190.8068"/>
<polygon fill="#191970" stroke="#191970" points="1024.9053,-187.4346 1014.3109,-187.5337 1022.6547,-194.0629 1024.9053,-187.4346"/>
</g>
<!-- Node32&#45;&gt;Node6 -->
<g id="edge68" class="edge">
<title>Node32&#45;&gt;Node6</title>
<path fill="none" stroke="#191970" d="M1274.6723,-168.4509C1188.451,-148.0349 986.3739,-100.1858 892.0916,-77.861"/>
<polygon fill="#191970" stroke="#191970" points="892.763,-74.4233 882.2256,-75.5249 891.1501,-81.2349 892.763,-74.4233"/>
</g>
<!-- Node32&#45;&gt;Node15 -->
<g id="edge69" class="edge">
<title>Node32&#45;&gt;Node15</title>
<path fill="none" stroke="#191970" d="M1257.6213,-168.4369C1186.6593,-156.6099 1068.2961,-136.8827 1011.4348,-127.4058"/>
<polygon fill="#191970" stroke="#191970" points="1011.6757,-123.8978 1001.2364,-125.7061 1010.5249,-130.8025 1011.6757,-123.8978"/>
</g>
<!-- Node33&#45;&gt;Node15 -->
<g id="edge72" class="edge">
<title>Node33&#45;&gt;Node15</title>
<path fill="none" stroke="#191970" d="M979,-168.2455C979,-160.9382 979,-150.6944 979,-141.7046"/>
<polygon fill="#191970" stroke="#191970" points="982.5001,-141.6426 979,-131.6427 975.5001,-141.6427 982.5001,-141.6426"/>
</g>
<!-- Node33&#45;&gt;Node25 -->
<g id="edge73" class="edge">
<title>Node33&#45;&gt;Node25</title>
<path fill="none" stroke="#191970" d="M936.4783,-168.4369C893.8639,-158.8529 828.1824,-144.0812 782.379,-133.78"/>
<polygon fill="#191970" stroke="#191970" points="782.8706,-130.3032 772.3463,-131.5237 781.3346,-137.1326 782.8706,-130.3032"/>
</g>
</g>
</svg>
