<?xml version="1.0" encoding="UTF-8" standalone="no"?>
<!DOCTYPE svg PUBLIC "-//W3C//DTD SVG 1.1//EN"
 "http://www.w3.org/Graphics/SVG/1.1/DTD/svg11.dtd">
<!-- Generated by graphviz version 2.40.1 (20161225.0304)
 -->
<!-- Title: TransformDerivative.cpp Pages: 1 -->
<svg width="1521pt" height="610pt"
 viewBox="0.00 0.00 1520.76 610.00" xmlns="http://www.w3.org/2000/svg" xmlns:xlink="http://www.w3.org/1999/xlink">
<g id="graph0" class="graph" transform="scale(1 1) rotate(0) translate(4 606)">
<title>TransformDerivative.cpp</title>
<!-- Node0 -->
<g id="node1" class="node">
<title>Node0</title>
<polygon fill="#bfbfbf" stroke="#000000" points="1040.761,-582.5 1040.761,-601.5 1177.761,-601.5 1177.761,-582.5 1040.761,-582.5"/>
<text text-anchor="middle" x="1109.261" y="-589.5" font-family="FreeSans.ttf" font-size="10.00" fill="#000000">TransformDerivative.cpp</text>
</g>
<!-- Node1 -->
<g id="node2" class="node">
<title>Node1</title>
<g id="a_node2"><a xlink:href="ArticulatedBodyInertia_8h.html" target="_top" xlink:title="iDynTree/Core/Articulated\lBodyInertia.h">
<polygon fill="none" stroke="#000000" points="1308.761,-224.5 1308.761,-254.5 1449.761,-254.5 1449.761,-224.5 1308.761,-224.5"/>
<text text-anchor="start" x="1316.761" y="-242.5" font-family="FreeSans.ttf" font-size="10.00" fill="#000000">iDynTree/Core/Articulated</text>
<text text-anchor="middle" x="1379.261" y="-231.5" font-family="FreeSans.ttf" font-size="10.00" fill="#000000">BodyInertia.h</text>
</a>
</g>
</g>
<!-- Node0&#45;&gt;Node1 -->
<g id="edge1" class="edge">
<title>Node0&#45;&gt;Node1</title>
<path fill="none" stroke="#191970" d="M1151.3846,-582.4589C1225.9189,-564.3461 1373.261,-522.4731 1373.261,-474.5 1373.261,-474.5 1373.261,-474.5 1373.261,-357 1373.261,-325.2601 1375.4717,-288.7601 1377.2093,-264.973"/>
<polygon fill="#191970" stroke="#191970" points="1380.7223,-264.9336 1377.9886,-254.6975 1373.7423,-264.4041 1380.7223,-264.9336"/>
</g>
<!-- Node20 -->
<g id="node21" class="node">
<title>Node20</title>
<g id="a_node21"><a xlink:href="TransformDerivative_8h.html" target="_top" xlink:title="iDynTree/Core/TransformDerivative.h">
<polygon fill="none" stroke="#000000" points="476.761,-230 476.761,-249 673.761,-249 673.761,-230 476.761,-230"/>
<text text-anchor="middle" x="575.261" y="-237" font-family="FreeSans.ttf" font-size="10.00" fill="#000000">iDynTree/Core/TransformDerivative.h</text>
</a>
</g>
</g>
<!-- Node0&#45;&gt;Node20 -->
<g id="edge26" class="edge">
<title>Node0&#45;&gt;Node20</title>
<path fill="none" stroke="#191970" d="M1110.7274,-582.4309C1113.7987,-558.7646 1118.3994,-496.682 1089.261,-459 1057.6436,-418.1119 722.5951,-293.2328 611.1104,-252.4987"/>
<polygon fill="#191970" stroke="#191970" points="612.2356,-249.1836 601.6417,-249.0451 609.8369,-255.7598 612.2356,-249.1836"/>
</g>
<!-- Node22 -->
<g id="node23" class="node">
<title>Node22</title>
<g id="a_node23"><a xlink:href="Transform_8h.html" target="_top" xlink:title="iDynTree/Core/Transform.h">
<polygon fill="none" stroke="#000000" points="1043.261,-403.5 1043.261,-422.5 1189.261,-422.5 1189.261,-403.5 1043.261,-403.5"/>
<text text-anchor="middle" x="1116.261" y="-410.5" font-family="FreeSans.ttf" font-size="10.00" fill="#000000">iDynTree/Core/Transform.h</text>
</a>
</g>
</g>
<!-- Node0&#45;&gt;Node22 -->
<g id="edge36" class="edge">
<title>Node0&#45;&gt;Node22</title>
<path fill="none" stroke="#191970" d="M1113.1234,-582.3228C1116.5649,-573.1446 1121.3443,-558.8807 1123.261,-546 1128.9522,-507.7544 1126.1779,-497.5565 1123.261,-459 1122.6075,-450.361 1121.2729,-440.8868 1119.9427,-432.7935"/>
<polygon fill="#191970" stroke="#191970" points="1123.3689,-432.0674 1118.1958,-422.8213 1116.4739,-433.2753 1123.3689,-432.0674"/>
</g>
<!-- Node28 -->
<g id="node29" class="node">
<title>Node28</title>
<polygon fill="none" stroke="#bfbfbf" points="1003.761,-465 1003.761,-484 1080.761,-484 1080.761,-465 1003.761,-465"/>
<text text-anchor="middle" x="1042.261" y="-472" font-family="FreeSans.ttf" font-size="10.00" fill="#000000">Eigen/Dense</text>
</g>
<!-- Node0&#45;&gt;Node28 -->
<g id="edge53" class="edge">
<title>Node0&#45;&gt;Node28</title>
<path fill="none" stroke="#191970" d="M1103.7782,-582.3845C1092.6867,-562.9331 1067.4153,-518.6138 1052.9504,-493.2462"/>
<polygon fill="#191970" stroke="#191970" points="1055.8136,-491.2017 1047.8197,-484.2484 1049.7327,-494.6691 1055.8136,-491.2017"/>
</g>
<!-- Node29 -->
<g id="node30" class="node">
<title>Node29</title>
<g id="a_node30"><a xlink:href="EigenHelpers_8h.html" target="_top" xlink:title="iDynTree/Core/EigenHelpers.h">
<polygon fill="none" stroke="#000000" points="659.761,-526.5 659.761,-545.5 820.761,-545.5 820.761,-526.5 659.761,-526.5"/>
<text text-anchor="middle" x="740.261" y="-533.5" font-family="FreeSans.ttf" font-size="10.00" fill="#000000">iDynTree/Core/EigenHelpers.h</text>
</a>
</g>
</g>
<!-- Node0&#45;&gt;Node29 -->
<g id="edge54" class="edge">
<title>Node0&#45;&gt;Node29</title>
<path fill="none" stroke="#191970" d="M1046.247,-582.4369C981.6361,-572.6314 881.2434,-557.3957 813.2252,-547.0731"/>
<polygon fill="#191970" stroke="#191970" points="813.4272,-543.5638 803.0152,-545.5237 812.3768,-550.4846 813.4272,-543.5638"/>
</g>
<!-- Node2 -->
<g id="node3" class="node">
<title>Node2</title>
<g id="a_node3"><a xlink:href="MatrixFixSize_8h.html" target="_top" xlink:title="iDynTree/Core/MatrixFixSize.h">
<polygon fill="none" stroke="#000000" points="585.761,-168.5 585.761,-187.5 746.761,-187.5 746.761,-168.5 585.761,-168.5"/>
<text text-anchor="middle" x="666.261" y="-175.5" font-family="FreeSans.ttf" font-size="10.00" fill="#000000">iDynTree/Core/MatrixFixSize.h</text>
</a>
</g>
</g>
<!-- Node1&#45;&gt;Node2 -->
<g id="edge2" class="edge">
<title>Node1&#45;&gt;Node2</title>
<path fill="none" stroke="#191970" d="M1308.4381,-229.9163C1291.3725,-227.7893 1273.1818,-225.6729 1256.261,-224 1037.3576,-202.3582 979.2536,-208.285 756.8073,-188.1105"/>
<polygon fill="#191970" stroke="#191970" points="757.0536,-184.6185 746.7764,-187.1933 756.4161,-191.5895 757.0536,-184.6185"/>
</g>
<!-- Node17 -->
<g id="node18" class="node">
<title>Node17</title>
<polygon fill="none" stroke="#bfbfbf" points="1009.261,-112.5 1009.261,-131.5 1053.261,-131.5 1053.261,-112.5 1009.261,-112.5"/>
<text text-anchor="middle" x="1031.261" y="-119.5" font-family="FreeSans.ttf" font-size="10.00" fill="#000000">string</text>
</g>
<!-- Node1&#45;&gt;Node17 -->
<g id="edge25" class="edge">
<title>Node1&#45;&gt;Node17</title>
<path fill="none" stroke="#191970" d="M1365.8884,-224.2175C1350.4006,-207.5741 1323.2737,-181.5259 1294.261,-168 1253.6383,-149.0613 1124.3052,-132.4855 1063.4717,-125.5102"/>
<polygon fill="#191970" stroke="#191970" points="1063.6188,-122.0047 1053.289,-124.3592 1062.8325,-128.9604 1063.6188,-122.0047"/>
</g>
<!-- Node3 -->
<g id="node4" class="node">
<title>Node3</title>
<g id="a_node4"><a xlink:href="Utils_8h.html" target="_top" xlink:title="iDynTree/Core/Utils.h">
<polygon fill="none" stroke="#000000" points="262.761,-56.5 262.761,-75.5 381.761,-75.5 381.761,-56.5 262.761,-56.5"/>
<text text-anchor="middle" x="322.261" y="-63.5" font-family="FreeSans.ttf" font-size="10.00" fill="#000000">iDynTree/Core/Utils.h</text>
</a>
</g>
</g>
<!-- Node2&#45;&gt;Node3 -->
<g id="edge3" class="edge">
<title>Node2&#45;&gt;Node3</title>
<path fill="none" stroke="#191970" d="M661.593,-168.4934C653.7986,-153.7256 636.6525,-125.5643 613.261,-112 576.6539,-90.7722 465.7962,-77.7681 391.9663,-71.2253"/>
<polygon fill="#191970" stroke="#191970" points="392.0708,-67.7214 381.8059,-70.3448 391.4663,-74.6952 392.0708,-67.7214"/>
</g>
<!-- Node6 -->
<g id="node7" class="node">
<title>Node6</title>
<g id="a_node7"><a xlink:href="MatrixView_8h.html" target="_top" xlink:title="iDynTree/Core/MatrixView.h">
<polygon fill="none" stroke="#000000" points="698.761,-112.5 698.761,-131.5 849.761,-131.5 849.761,-112.5 698.761,-112.5"/>
<text text-anchor="middle" x="774.261" y="-119.5" font-family="FreeSans.ttf" font-size="10.00" fill="#000000">iDynTree/Core/MatrixView.h</text>
</a>
</g>
</g>
<!-- Node2&#45;&gt;Node6 -->
<g id="edge6" class="edge">
<title>Node2&#45;&gt;Node6</title>
<path fill="none" stroke="#191970" d="M685.0732,-168.2455C702.1083,-159.4125 727.4186,-146.2887 746.7292,-136.2758"/>
<polygon fill="#191970" stroke="#191970" points="748.398,-139.353 755.6645,-131.6427 745.1758,-133.1388 748.398,-139.353"/>
</g>
<!-- Node7 -->
<g id="node8" class="node">
<title>Node7</title>
<polygon fill="none" stroke="#bfbfbf" points="640.261,-.5 640.261,-19.5 692.261,-19.5 692.261,-.5 640.261,-.5"/>
<text text-anchor="middle" x="666.261" y="-7.5" font-family="FreeSans.ttf" font-size="10.00" fill="#000000">cassert</text>
</g>
<!-- Node2&#45;&gt;Node7 -->
<g id="edge20" class="edge">
<title>Node2&#45;&gt;Node7</title>
<path fill="none" stroke="#191970" d="M666.261,-168.4862C666.261,-141.9293 666.261,-66.5651 666.261,-30.1655"/>
<polygon fill="#191970" stroke="#191970" points="669.7611,-29.8278 666.261,-19.8279 662.7611,-29.8279 669.7611,-29.8278"/>
</g>
<!-- Node16 -->
<g id="node17" class="node">
<title>Node16</title>
<polygon fill="none" stroke="#bfbfbf" points="554.261,-112.5 554.261,-131.5 604.261,-131.5 604.261,-112.5 554.261,-112.5"/>
<text text-anchor="middle" x="579.261" y="-119.5" font-family="FreeSans.ttf" font-size="10.00" fill="#000000">cstring</text>
</g>
<!-- Node2&#45;&gt;Node16 -->
<g id="edge21" class="edge">
<title>Node2&#45;&gt;Node16</title>
<path fill="none" stroke="#191970" d="M651.1068,-168.2455C637.7583,-159.6534 618.1024,-147.0014 602.7228,-137.1018"/>
<polygon fill="#191970" stroke="#191970" points="604.5447,-134.1121 594.2416,-131.6427 600.7559,-139.9982 604.5447,-134.1121"/>
</g>
<!-- Node2&#45;&gt;Node17 -->
<g id="edge22" class="edge">
<title>Node2&#45;&gt;Node17</title>
<path fill="none" stroke="#191970" d="M728.5921,-168.4369C806.9597,-156.4134 938.5452,-136.2249 999.0501,-126.942"/>
<polygon fill="#191970" stroke="#191970" points="999.7993,-130.368 1009.1529,-125.3919 998.7377,-123.449 999.7993,-130.368"/>
</g>
<!-- Node18 -->
<g id="node19" class="node">
<title>Node18</title>
<polygon fill="none" stroke="#bfbfbf" points="476.261,-112.5 476.261,-131.5 536.261,-131.5 536.261,-112.5 476.261,-112.5"/>
<text text-anchor="middle" x="506.261" y="-119.5" font-family="FreeSans.ttf" font-size="10.00" fill="#000000">iostream</text>
</g>
<!-- Node2&#45;&gt;Node18 -->
<g id="edge23" class="edge">
<title>Node2&#45;&gt;Node18</title>
<path fill="none" stroke="#191970" d="M638.7561,-168.3733C612.3808,-159.1419 572.3759,-145.1402 543.2252,-134.9375"/>
<polygon fill="#191970" stroke="#191970" points="544.0019,-131.5012 533.4071,-131.5011 541.6895,-138.1082 544.0019,-131.5012"/>
</g>
<!-- Node19 -->
<g id="node20" class="node">
<title>Node19</title>
<polygon fill="none" stroke="#bfbfbf" points="288.261,-112.5 288.261,-131.5 344.261,-131.5 344.261,-112.5 288.261,-112.5"/>
<text text-anchor="middle" x="316.261" y="-119.5" font-family="FreeSans.ttf" font-size="10.00" fill="#000000">sstream</text>
</g>
<!-- Node2&#45;&gt;Node19 -->
<g id="edge24" class="edge">
<title>Node2&#45;&gt;Node19</title>
<path fill="none" stroke="#191970" d="M606.4916,-168.4369C534.3266,-156.8905 415.1004,-137.8143 354.3698,-128.0974"/>
<polygon fill="#191970" stroke="#191970" points="354.8649,-124.6322 344.4375,-126.5082 353.7589,-131.5443 354.8649,-124.6322"/>
</g>
<!-- Node4 -->
<g id="node5" class="node">
<title>Node4</title>
<polygon fill="none" stroke="#bfbfbf" points="382.761,-.5 382.761,-19.5 435.761,-19.5 435.761,-.5 382.761,-.5"/>
<text text-anchor="middle" x="409.261" y="-7.5" font-family="FreeSans.ttf" font-size="10.00" fill="#000000">cstddef</text>
</g>
<!-- Node3&#45;&gt;Node4 -->
<g id="edge4" class="edge">
<title>Node3&#45;&gt;Node4</title>
<path fill="none" stroke="#191970" d="M337.4153,-56.2455C350.7638,-47.6534 370.4197,-35.0014 385.7993,-25.1018"/>
<polygon fill="#191970" stroke="#191970" points="387.7662,-27.9982 394.2805,-19.6427 383.9774,-22.1121 387.7662,-27.9982"/>
</g>
<!-- Node5 -->
<g id="node6" class="node">
<title>Node5</title>
<polygon fill="none" stroke="#bfbfbf" points="282.261,-.5 282.261,-19.5 362.261,-19.5 362.261,-.5 282.261,-.5"/>
<text text-anchor="middle" x="322.261" y="-7.5" font-family="FreeSans.ttf" font-size="10.00" fill="#000000">CoreExport.h</text>
</g>
<!-- Node3&#45;&gt;Node5 -->
<g id="edge5" class="edge">
<title>Node3&#45;&gt;Node5</title>
<path fill="none" stroke="#191970" d="M322.261,-56.2455C322.261,-48.9382 322.261,-38.6944 322.261,-29.7046"/>
<polygon fill="#191970" stroke="#191970" points="325.7611,-29.6426 322.261,-19.6427 318.7611,-29.6427 325.7611,-29.6426"/>
</g>
<!-- Node6&#45;&gt;Node3 -->
<g id="edge19" class="edge">
<title>Node6&#45;&gt;Node3</title>
<path fill="none" stroke="#191970" d="M698.6064,-112.6269C613.0823,-102.031 474.9878,-84.9219 391.9881,-74.6387"/>
<polygon fill="#191970" stroke="#191970" points="392.2524,-71.1448 381.8979,-73.3886 391.3916,-78.0917 392.2524,-71.1448"/>
</g>
<!-- Node6&#45;&gt;Node7 -->
<g id="edge7" class="edge">
<title>Node6&#45;&gt;Node7</title>
<path fill="none" stroke="#191970" d="M765.053,-112.4509C746.7211,-93.4401 705.4519,-50.6423 682.4765,-26.816"/>
<polygon fill="#191970" stroke="#191970" points="684.9066,-24.2939 675.4458,-19.5249 679.8677,-29.1528 684.9066,-24.2939"/>
</g>
<!-- Node8 -->
<g id="node9" class="node">
<title>Node8</title>
<polygon fill="none" stroke="#bfbfbf" points="710.761,-.5 710.761,-19.5 779.761,-19.5 779.761,-.5 710.761,-.5"/>
<text text-anchor="middle" x="745.261" y="-7.5" font-family="FreeSans.ttf" font-size="10.00" fill="#000000">type_traits</text>
</g>
<!-- Node6&#45;&gt;Node8 -->
<g id="edge8" class="edge">
<title>Node6&#45;&gt;Node8</title>
<path fill="none" stroke="#191970" d="M771.7885,-112.4509C767.0373,-94.1013 756.548,-53.5908 750.2763,-29.3693"/>
<polygon fill="#191970" stroke="#191970" points="753.6223,-28.3283 747.7273,-19.5249 746.8457,-30.083 753.6223,-28.3283"/>
</g>
<!-- Node9 -->
<g id="node10" class="node">
<title>Node9</title>
<g id="a_node10"><a xlink:href="Span_8h.html" target="_top" xlink:title="iDynTree/Core/Span.h">
<polygon fill="none" stroke="#000000" points="835.761,-56.5 835.761,-75.5 956.761,-75.5 956.761,-56.5 835.761,-56.5"/>
<text text-anchor="middle" x="896.261" y="-63.5" font-family="FreeSans.ttf" font-size="10.00" fill="#000000">iDynTree/Core/Span.h</text>
</a>
</g>
</g>
<!-- Node6&#45;&gt;Node9 -->
<g id="edge9" class="edge">
<title>Node6&#45;&gt;Node9</title>
<path fill="none" stroke="#191970" d="M795.2336,-112.3733C814.8178,-103.3838 844.2572,-89.8706 866.312,-79.7471"/>
<polygon fill="#191970" stroke="#191970" points="867.934,-82.8538 875.5622,-75.5011 865.0138,-76.4919 867.934,-82.8538"/>
</g>
<!-- Node9&#45;&gt;Node4 -->
<g id="edge13" class="edge">
<title>Node9&#45;&gt;Node4</title>
<path fill="none" stroke="#191970" d="M835.5668,-59.0208C733.1128,-47.2396 528.907,-23.7581 445.7594,-14.1969"/>
<polygon fill="#191970" stroke="#191970" points="446.1069,-10.7139 435.7725,-13.0485 445.3072,-17.6681 446.1069,-10.7139"/>
</g>
<!-- Node9&#45;&gt;Node7 -->
<g id="edge10" class="edge">
<title>Node9&#45;&gt;Node7</title>
<path fill="none" stroke="#191970" d="M853.1313,-56.4329C815.6888,-47.9915 759.7929,-35.0653 702.5442,-20.2559"/>
<polygon fill="#191970" stroke="#191970" points="703.1575,-16.7989 692.5983,-17.6672 701.3942,-23.5732 703.1575,-16.7989"/>
</g>
<!-- Node9&#45;&gt;Node8 -->
<g id="edge17" class="edge">
<title>Node9&#45;&gt;Node8</title>
<path fill="none" stroke="#191970" d="M870.3032,-56.3733C845.5203,-47.1822 807.9864,-33.2624 780.507,-23.0713"/>
<polygon fill="#191970" stroke="#191970" points="781.4732,-19.6968 770.8801,-19.5011 779.0391,-26.26 781.4732,-19.6968"/>
</g>
<!-- Node10 -->
<g id="node11" class="node">
<title>Node10</title>
<polygon fill="none" stroke="#bfbfbf" points="944.261,-.5 944.261,-19.5 1008.261,-19.5 1008.261,-.5 944.261,-.5"/>
<text text-anchor="middle" x="976.261" y="-7.5" font-family="FreeSans.ttf" font-size="10.00" fill="#000000">algorithm</text>
</g>
<!-- Node9&#45;&gt;Node10 -->
<g id="edge11" class="edge">
<title>Node9&#45;&gt;Node10</title>
<path fill="none" stroke="#191970" d="M910.196,-56.2455C922.3557,-47.7337 940.2075,-35.2375 954.2895,-25.3801"/>
<polygon fill="#191970" stroke="#191970" points="956.3006,-28.2447 962.4858,-19.6427 952.2863,-22.51 956.3006,-28.2447"/>
</g>
<!-- Node11 -->
<g id="node12" class="node">
<title>Node11</title>
<polygon fill="none" stroke="#bfbfbf" points="1026.261,-.5 1026.261,-19.5 1068.261,-19.5 1068.261,-.5 1026.261,-.5"/>
<text text-anchor="middle" x="1047.261" y="-7.5" font-family="FreeSans.ttf" font-size="10.00" fill="#000000">array</text>
</g>
<!-- Node9&#45;&gt;Node11 -->
<g id="edge12" class="edge">
<title>Node9&#45;&gt;Node11</title>
<path fill="none" stroke="#191970" d="M922.2189,-56.3733C948.3536,-46.6809 988.6682,-31.7298 1016.4183,-21.4384"/>
<polygon fill="#191970" stroke="#191970" points="1017.865,-24.6348 1026.024,-17.876 1015.431,-18.0716 1017.865,-24.6348"/>
</g>
<!-- Node12 -->
<g id="node13" class="node">
<title>Node12</title>
<polygon fill="none" stroke="#bfbfbf" points="1086.761,-.5 1086.761,-19.5 1139.761,-19.5 1139.761,-.5 1086.761,-.5"/>
<text text-anchor="middle" x="1113.261" y="-7.5" font-family="FreeSans.ttf" font-size="10.00" fill="#000000">iterator</text>
</g>
<!-- Node9&#45;&gt;Node12 -->
<g id="edge14" class="edge">
<title>Node9&#45;&gt;Node12</title>
<path fill="none" stroke="#191970" d="M934.8115,-56.4645C969.4207,-47.8455 1021.8624,-34.6422 1076.6517,-20.1215"/>
<polygon fill="#191970" stroke="#191970" points="1077.7773,-23.4439 1086.5426,-17.4924 1075.979,-16.6788 1077.7773,-23.4439"/>
</g>
<!-- Node13 -->
<g id="node14" class="node">
<title>Node13</title>
<polygon fill="none" stroke="#bfbfbf" points="1158.261,-.5 1158.261,-19.5 1202.261,-19.5 1202.261,-.5 1158.261,-.5"/>
<text text-anchor="middle" x="1180.261" y="-7.5" font-family="FreeSans.ttf" font-size="10.00" fill="#000000">limits</text>
</g>
<!-- Node9&#45;&gt;Node13 -->
<g id="edge15" class="edge">
<title>Node9&#45;&gt;Node13</title>
<path fill="none" stroke="#191970" d="M956.7825,-57.0845C1008.1061,-49.0166 1083.491,-35.9683 1148.261,-20 1148.3599,-19.9756 1148.459,-19.9511 1148.5582,-19.9265"/>
<polygon fill="#191970" stroke="#191970" points="1149.26,-23.3632 1157.9797,-17.3452 1147.4102,-16.612 1149.26,-23.3632"/>
</g>
<!-- Node14 -->
<g id="node15" class="node">
<title>Node14</title>
<polygon fill="none" stroke="#bfbfbf" points="797.761,-.5 797.761,-19.5 862.761,-19.5 862.761,-.5 797.761,-.5"/>
<text text-anchor="middle" x="830.261" y="-7.5" font-family="FreeSans.ttf" font-size="10.00" fill="#000000">stdexcept</text>
</g>
<!-- Node9&#45;&gt;Node14 -->
<g id="edge16" class="edge">
<title>Node9&#45;&gt;Node14</title>
<path fill="none" stroke="#191970" d="M884.7647,-56.2455C875.0169,-47.9746 860.8351,-35.9416 849.3813,-26.2232"/>
<polygon fill="#191970" stroke="#191970" points="851.5152,-23.4437 841.6256,-19.6427 846.9863,-28.7813 851.5152,-23.4437"/>
</g>
<!-- Node15 -->
<g id="node16" class="node">
<title>Node15</title>
<polygon fill="none" stroke="#bfbfbf" points="880.761,-.5 880.761,-19.5 925.761,-19.5 925.761,-.5 880.761,-.5"/>
<text text-anchor="middle" x="903.261" y="-7.5" font-family="FreeSans.ttf" font-size="10.00" fill="#000000">utility</text>
</g>
<!-- Node9&#45;&gt;Node15 -->
<g id="edge18" class="edge">
<title>Node9&#45;&gt;Node15</title>
<path fill="none" stroke="#191970" d="M897.4804,-56.2455C898.3938,-48.9382 899.6743,-38.6944 900.798,-29.7046"/>
<polygon fill="#191970" stroke="#191970" points="904.2883,-29.9996 902.0557,-19.6427 897.3423,-29.1313 904.2883,-29.9996"/>
</g>
<!-- Node20&#45;&gt;Node2 -->
<g id="edge35" class="edge">
<title>Node20&#45;&gt;Node2</title>
<path fill="none" stroke="#191970" d="M589.4798,-229.8906C603.9044,-220.1421 626.4587,-204.8994 643.397,-193.4521"/>
<polygon fill="#191970" stroke="#191970" points="645.8166,-196.0412 652.1421,-187.5419 641.897,-190.2415 645.8166,-196.0412"/>
</g>
<!-- Node21 -->
<g id="node22" class="node">
<title>Node21</title>
<g id="a_node22"><a xlink:href="VectorFixSize_8h.html" target="_top" xlink:title="iDynTree/Core/VectorFixSize.h">
<polygon fill="none" stroke="#000000" points="367.761,-168.5 367.761,-187.5 528.761,-187.5 528.761,-168.5 367.761,-168.5"/>
<text text-anchor="middle" x="448.261" y="-175.5" font-family="FreeSans.ttf" font-size="10.00" fill="#000000">iDynTree/Core/VectorFixSize.h</text>
</a>
</g>
</g>
<!-- Node20&#45;&gt;Node21 -->
<g id="edge27" class="edge">
<title>Node20&#45;&gt;Node21</title>
<path fill="none" stroke="#191970" d="M555.4173,-229.8906C534.4475,-219.7359 501.1666,-203.6196 477.2575,-192.0416"/>
<polygon fill="#191970" stroke="#191970" points="478.4912,-188.7502 467.9655,-187.5419 475.4403,-195.0504 478.4912,-188.7502"/>
</g>
<!-- Node21&#45;&gt;Node3 -->
<g id="edge28" class="edge">
<title>Node21&#45;&gt;Node3</title>
<path fill="none" stroke="#191970" d="M437.4939,-168.498C426.97,-159.2052 410.4992,-144.647 396.261,-132 377.257,-115.1197 355.5572,-95.7552 340.5936,-82.3878"/>
<polygon fill="#191970" stroke="#191970" points="342.8223,-79.6856 333.0334,-75.6324 338.1581,-84.9054 342.8223,-79.6856"/>
</g>
<!-- Node21&#45;&gt;Node4 -->
<g id="edge33" class="edge">
<title>Node21&#45;&gt;Node4</title>
<path fill="none" stroke="#191970" d="M444.9891,-168.2042C441.9648,-158.9422 437.4675,-144.6216 434.261,-132 425.1616,-96.1816 417.0681,-53.8052 412.6938,-29.5966"/>
<polygon fill="#191970" stroke="#191970" points="416.1056,-28.7914 410.9062,-19.5601 409.214,-30.0189 416.1056,-28.7914"/>
</g>
<!-- Node21&#45;&gt;Node7 -->
<g id="edge32" class="edge">
<title>Node21&#45;&gt;Node7</title>
<path fill="none" stroke="#191970" d="M448.6838,-168.3844C449.7686,-154.4681 453.6204,-128.5704 467.261,-112 509.8378,-60.2786 585.4324,-31.9395 630.1882,-18.9605"/>
<polygon fill="#191970" stroke="#191970" points="631.3663,-22.2655 640.0554,-16.2034 629.4824,-15.5238 631.3663,-22.2655"/>
</g>
<!-- Node21&#45;&gt;Node9 -->
<g id="edge29" class="edge">
<title>Node21&#45;&gt;Node9</title>
<path fill="none" stroke="#191970" d="M528.7666,-170.8431C644.2598,-160.3061 844.6687,-140.9064 858.261,-132 874.7944,-121.1664 884.9768,-100.4776 890.5874,-85.1389"/>
<polygon fill="#191970" stroke="#191970" points="893.9379,-86.1547 893.7631,-75.5613 887.2936,-83.9516 893.9379,-86.1547"/>
</g>
<!-- Node21&#45;&gt;Node16 -->
<g id="edge34" class="edge">
<title>Node21&#45;&gt;Node16</title>
<path fill="none" stroke="#191970" d="M470.7808,-168.3733C491.9983,-159.3032 523.9887,-145.6279 547.7379,-135.4755"/>
<polygon fill="#191970" stroke="#191970" points="549.2159,-138.6502 557.0352,-131.5011 546.4643,-132.2136 549.2159,-138.6502"/>
</g>
<!-- Node21&#45;&gt;Node17 -->
<g id="edge30" class="edge">
<title>Node21&#45;&gt;Node17</title>
<path fill="none" stroke="#191970" d="M529.0184,-170.2429C659.2464,-157.7338 910.0279,-133.645 998.9916,-125.0996"/>
<polygon fill="#191970" stroke="#191970" points="999.4002,-128.5766 1009.0197,-124.1364 998.7308,-121.6087 999.4002,-128.5766"/>
</g>
<!-- Node21&#45;&gt;Node19 -->
<g id="edge31" class="edge">
<title>Node21&#45;&gt;Node19</title>
<path fill="none" stroke="#191970" d="M425.5694,-168.3733C404.19,-159.3032 371.9554,-145.6279 348.0248,-135.4755"/>
<polygon fill="#191970" stroke="#191970" points="349.2293,-132.1846 338.6566,-131.5011 346.4954,-138.6287 349.2293,-132.1846"/>
</g>
<!-- Node22&#45;&gt;Node2 -->
<g id="edge51" class="edge">
<title>Node22&#45;&gt;Node2</title>
<path fill="none" stroke="#191970" d="M1135.6916,-403.3936C1149.25,-395.5779 1166.4379,-383.1962 1175.261,-367 1205.7394,-311.0524 1228.3912,-270.8919 1185.261,-224 1154.3887,-190.435 836.3834,-192.3835 757.0415,-187.898"/>
<polygon fill="#191970" stroke="#191970" points="757.0083,-184.3864 746.7805,-187.1507 756.4998,-191.3679 757.0083,-184.3864"/>
</g>
<!-- Node22&#45;&gt;Node17 -->
<g id="edge52" class="edge">
<title>Node22&#45;&gt;Node17</title>
<path fill="none" stroke="#191970" d="M1159.3501,-403.4175C1207.9405,-389.7703 1280.261,-359.6131 1280.261,-301 1280.261,-301 1280.261,-301 1280.261,-239.5 1280.261,-192.085 1130.7254,-147.5944 1063.4189,-129.9704"/>
<polygon fill="#191970" stroke="#191970" points="1063.9153,-126.484 1053.3581,-127.3762 1062.1675,-133.2623 1063.9153,-126.484"/>
</g>
<!-- Node23 -->
<g id="node24" class="node">
<title>Node23</title>
<g id="a_node24"><a xlink:href="Position_8h.html" target="_top" xlink:title="iDynTree/Core/Position.h">
<polygon fill="none" stroke="#000000" points="1030.261,-347.5 1030.261,-366.5 1166.261,-366.5 1166.261,-347.5 1030.261,-347.5"/>
<text text-anchor="middle" x="1098.261" y="-354.5" font-family="FreeSans.ttf" font-size="10.00" fill="#000000">iDynTree/Core/Position.h</text>
</a>
</g>
</g>
<!-- Node22&#45;&gt;Node23 -->
<g id="edge37" class="edge">
<title>Node22&#45;&gt;Node23</title>
<path fill="none" stroke="#191970" d="M1113.1257,-403.2455C1110.7511,-395.8579 1107.4118,-385.4689 1104.4996,-376.4087"/>
<polygon fill="#191970" stroke="#191970" points="1107.7527,-375.0919 1101.3605,-366.6427 1101.0885,-377.234 1107.7527,-375.0919"/>
</g>
<!-- Node25 -->
<g id="node26" class="node">
<title>Node25</title>
<g id="a_node26"><a xlink:href="Rotation_8h.html" target="_top" xlink:title="iDynTree/Core/Rotation.h">
<polygon fill="none" stroke="#000000" points="778.761,-291.5 778.761,-310.5 915.761,-310.5 915.761,-291.5 778.761,-291.5"/>
<text text-anchor="middle" x="847.261" y="-298.5" font-family="FreeSans.ttf" font-size="10.00" fill="#000000">iDynTree/Core/Rotation.h</text>
</a>
</g>
</g>
<!-- Node22&#45;&gt;Node25 -->
<g id="edge50" class="edge">
<title>Node22&#45;&gt;Node25</title>
<path fill="none" stroke="#191970" d="M1093.3263,-403.4509C1045.3832,-383.4895 934.4533,-337.3031 879.4203,-314.3897"/>
<polygon fill="#191970" stroke="#191970" points="880.7149,-311.1375 870.1378,-310.5249 878.0243,-317.5998 880.7149,-311.1375"/>
</g>
<!-- Node23&#45;&gt;Node17 -->
<g id="edge49" class="edge">
<title>Node23&#45;&gt;Node17</title>
<path fill="none" stroke="#191970" d="M1113.1438,-347.3496C1144.2598,-325.9074 1211.2421,-272.3714 1185.261,-224 1159.5317,-176.0972 1100.3268,-146.9036 1063.278,-132.65"/>
<polygon fill="#191970" stroke="#191970" points="1064.0553,-129.206 1053.462,-129.0229 1061.629,-135.7721 1064.0553,-129.206"/>
</g>
<!-- Node24 -->
<g id="node25" class="node">
<title>Node24</title>
<g id="a_node25"><a xlink:href="PositionRaw_8h.html" target="_top" xlink:title="iDynTree/Core/PositionRaw.h">
<polygon fill="none" stroke="#000000" points="1020.261,-230 1020.261,-249 1176.261,-249 1176.261,-230 1020.261,-230"/>
<text text-anchor="middle" x="1098.261" y="-237" font-family="FreeSans.ttf" font-size="10.00" fill="#000000">iDynTree/Core/PositionRaw.h</text>
</a>
</g>
</g>
<!-- Node23&#45;&gt;Node24 -->
<g id="edge38" class="edge">
<title>Node23&#45;&gt;Node24</title>
<path fill="none" stroke="#191970" d="M1098.261,-347.3845C1098.261,-328.1913 1098.261,-284.786 1098.261,-259.2663"/>
<polygon fill="#191970" stroke="#191970" points="1101.7611,-259.2483 1098.261,-249.2484 1094.7611,-259.2484 1101.7611,-259.2483"/>
</g>
<!-- Node23&#45;&gt;Node25 -->
<g id="edge41" class="edge">
<title>Node23&#45;&gt;Node25</title>
<path fill="none" stroke="#191970" d="M1055.3978,-347.4369C1012.3509,-337.8328 945.9538,-323.0191 899.77,-312.7152"/>
<polygon fill="#191970" stroke="#191970" points="900.4697,-309.2853 889.9475,-310.5237 898.9454,-316.1173 900.4697,-309.2853"/>
</g>
<!-- Node24&#45;&gt;Node17 -->
<g id="edge40" class="edge">
<title>Node24&#45;&gt;Node17</title>
<path fill="none" stroke="#191970" d="M1092.7782,-229.8845C1081.6867,-210.4331 1056.4153,-166.1138 1041.9504,-140.7462"/>
<polygon fill="#191970" stroke="#191970" points="1044.8136,-138.7017 1036.8197,-131.7484 1038.7327,-142.1691 1044.8136,-138.7017"/>
</g>
<!-- Node24&#45;&gt;Node21 -->
<g id="edge39" class="edge">
<title>Node24&#45;&gt;Node21</title>
<path fill="none" stroke="#191970" d="M1019.9134,-232.0397C993.0714,-229.4864 962.853,-226.615 935.261,-224 797.0577,-210.9019 636.7865,-195.7756 538.979,-186.5516"/>
<polygon fill="#191970" stroke="#191970" points="539.1179,-183.0493 528.8334,-185.5949 538.4606,-190.0183 539.1179,-183.0493"/>
</g>
<!-- Node25&#45;&gt;Node17 -->
<g id="edge42" class="edge">
<title>Node25&#45;&gt;Node17</title>
<path fill="none" stroke="#191970" d="M872.6685,-291.4566C891.3499,-283.5989 916.6243,-271.1367 935.261,-255 974.3755,-221.1327 1006.3246,-168.346 1021.5772,-140.5536"/>
<polygon fill="#191970" stroke="#191970" points="1024.7771,-141.9926 1026.4235,-131.5264 1018.6097,-138.6815 1024.7771,-141.9926"/>
</g>
<!-- Node25&#45;&gt;Node21 -->
<g id="edge48" class="edge">
<title>Node25&#45;&gt;Node21</title>
<path fill="none" stroke="#191970" d="M830.4793,-291.4893C801.2616,-275.3191 738.7598,-242.433 682.261,-224 632.9518,-207.9126 575.8662,-196.5545 530.4231,-189.1496"/>
<polygon fill="#191970" stroke="#191970" points="530.7474,-185.6571 520.3207,-187.537 529.6439,-192.5696 530.7474,-185.6571"/>
</g>
<!-- Node26 -->
<g id="node27" class="node">
<title>Node26</title>
<g id="a_node27"><a xlink:href="GeomVector3_8h.html" target="_top" xlink:title="iDynTree/Core/GeomVector3.h">
<polygon fill="none" stroke="#000000" points="256.761,-230 256.761,-249 419.761,-249 419.761,-230 256.761,-230"/>
<text text-anchor="middle" x="338.261" y="-237" font-family="FreeSans.ttf" font-size="10.00" fill="#000000">iDynTree/Core/GeomVector3.h</text>
</a>
</g>
</g>
<!-- Node25&#45;&gt;Node26 -->
<g id="edge43" class="edge">
<title>Node25&#45;&gt;Node26</title>
<path fill="none" stroke="#191970" d="M778.615,-292.7058C687.7115,-281.7224 527.25,-262.3346 427.1675,-250.2421"/>
<polygon fill="#191970" stroke="#191970" points="427.4225,-246.7476 417.0748,-249.0227 426.5828,-253.697 427.4225,-246.7476"/>
</g>
<!-- Node27 -->
<g id="node28" class="node">
<title>Node27</title>
<g id="a_node28"><a xlink:href="RotationRaw_8h.html" target="_top" xlink:title="iDynTree/Core/RotationRaw.h">
<polygon fill="none" stroke="#000000" points="768.261,-230 768.261,-249 926.261,-249 926.261,-230 768.261,-230"/>
<text text-anchor="middle" x="847.261" y="-237" font-family="FreeSans.ttf" font-size="10.00" fill="#000000">iDynTree/Core/RotationRaw.h</text>
</a>
</g>
</g>
<!-- Node25&#45;&gt;Node27 -->
<g id="edge45" class="edge">
<title>Node25&#45;&gt;Node27</title>
<path fill="none" stroke="#191970" d="M847.261,-291.3906C847.261,-282.8657 847.261,-270.1392 847.261,-259.4235"/>
<polygon fill="#191970" stroke="#191970" points="850.7611,-259.2448 847.261,-249.2449 843.7611,-259.2449 850.7611,-259.2448"/>
</g>
<!-- Node26&#45;&gt;Node21 -->
<g id="edge44" class="edge">
<title>Node26&#45;&gt;Node21</title>
<path fill="none" stroke="#191970" d="M355.4485,-229.8906C373.3692,-219.8713 401.6705,-204.0483 422.3134,-192.5071"/>
<polygon fill="#191970" stroke="#191970" points="424.1738,-195.4769 431.1942,-187.5419 420.7578,-189.367 424.1738,-195.4769"/>
</g>
<!-- Node27&#45;&gt;Node2 -->
<g id="edge46" class="edge">
<title>Node27&#45;&gt;Node2</title>
<path fill="none" stroke="#191970" d="M818.9798,-229.8906C788.031,-219.3749 738.2668,-202.466 704.004,-190.8243"/>
<polygon fill="#191970" stroke="#191970" points="704.9381,-187.4452 694.3437,-187.5419 702.686,-194.073 704.9381,-187.4452"/>
</g>
<!-- Node27&#45;&gt;Node17 -->
<g id="edge47" class="edge">
<title>Node27&#45;&gt;Node17</title>
<path fill="none" stroke="#191970" d="M866.1758,-229.8921C885.2466,-220.0053 915.346,-203.8508 940.261,-188 965.3081,-172.0652 992.7176,-151.7655 1010.8394,-137.9137"/>
<polygon fill="#191970" stroke="#191970" points="1013.1493,-140.5525 1018.9384,-131.6791 1008.8793,-135.0056 1013.1493,-140.5525"/>
</g>
<!-- Node29&#45;&gt;Node2 -->
<g id="edge64" class="edge">
<title>Node29&#45;&gt;Node2</title>
<path fill="none" stroke="#191970" d="M740.261,-526.4309C740.261,-505.738 740.261,-455.2813 740.261,-413 740.261,-413 740.261,-413 740.261,-301 740.261,-257.9413 706.5521,-216.9759 684.6364,-194.8924"/>
<polygon fill="#191970" stroke="#191970" points="686.7893,-192.104 677.18,-187.6418 681.9093,-197.1225 686.7893,-192.104"/>
</g>
<!-- Node29&#45;&gt;Node3 -->
<g id="edge80" class="edge">
<title>Node29&#45;&gt;Node3</title>
<path fill="none" stroke="#191970" d="M659.7401,-533.258C477.8203,-526.7351 48.9073,-509.3822 24.261,-490 -3.9157,-467.8413 .261,-448.846 .261,-413 .261,-413 .261,-413 .261,-178 .261,-125.0332 157.6513,-91.3838 252.3577,-75.9306"/>
<polygon fill="#191970" stroke="#191970" points="253.1295,-79.3516 262.45,-74.3137 252.0222,-72.4398 253.1295,-79.3516"/>
</g>
<!-- Node29&#45;&gt;Node4 -->
<g id="edge55" class="edge">
<title>Node29&#45;&gt;Node4</title>
<path fill="none" stroke="#191970" d="M659.6428,-534.1313C496.9138,-529.8038 140.5091,-517.3077 92.261,-490 55.8843,-469.4113 38.261,-454.799 38.261,-413 38.261,-413 38.261,-413 38.261,-122 38.261,-113.3264 279.1162,-45.919 372.6967,-20.0563"/>
<polygon fill="#191970" stroke="#191970" points="373.8715,-23.3629 382.5796,-17.3281 372.0088,-16.6153 373.8715,-23.3629"/>
</g>
<!-- Node29&#45;&gt;Node21 -->
<g id="edge60" class="edge">
<title>Node29&#45;&gt;Node21</title>
<path fill="none" stroke="#191970" d="M659.7231,-532.4488C511.5676,-525.497 206.819,-509.0929 162.261,-490 115.104,-469.7934 76.261,-464.304 76.261,-413 76.261,-413 76.261,-413 76.261,-357 76.261,-271.1762 140.0468,-263.4603 216.261,-224 242.4042,-210.4643 312.0471,-197.66 368.2575,-189.0145"/>
<polygon fill="#191970" stroke="#191970" points="368.8627,-192.4628 378.2248,-187.5029 367.8131,-185.5419 368.8627,-192.4628"/>
</g>
<!-- Node29&#45;&gt;Node22 -->
<g id="edge79" class="edge">
<title>Node29&#45;&gt;Node22</title>
<path fill="none" stroke="#191970" d="M793.1847,-526.4292C828.2011,-519.019 874.6106,-507.1057 913.261,-490 936.484,-479.7221 938.1875,-469.609 961.261,-459 993.4537,-444.198 1031.5848,-432.8092 1061.9708,-425.0664"/>
<polygon fill="#191970" stroke="#191970" points="1063.1001,-428.3921 1071.9589,-422.5807 1061.4096,-421.5993 1063.1001,-428.3921"/>
</g>
<!-- Node29&#45;&gt;Node28 -->
<g id="edge56" class="edge">
<title>Node29&#45;&gt;Node28</title>
<path fill="none" stroke="#191970" d="M801.5114,-526.4721C852.1377,-518.1698 925.7526,-505.1114 989.261,-490 993.353,-489.0263 997.5992,-487.9311 1001.8264,-486.7847"/>
<polygon fill="#191970" stroke="#191970" points="1002.8918,-490.121 1011.5744,-484.0495 1001.0007,-483.3813 1002.8918,-490.121"/>
</g>
<!-- Node30 -->
<g id="node31" class="node">
<title>Node30</title>
<g id="a_node31"><a xlink:href="VectorDynSize_8h.html" target="_top" xlink:title="iDynTree/Core/VectorDynSize.h">
<polygon fill="none" stroke="#000000" points="1345.761,-168.5 1345.761,-187.5 1512.761,-187.5 1512.761,-168.5 1345.761,-168.5"/>
<text text-anchor="middle" x="1429.261" y="-175.5" font-family="FreeSans.ttf" font-size="10.00" fill="#000000">iDynTree/Core/VectorDynSize.h</text>
</a>
</g>
</g>
<!-- Node29&#45;&gt;Node30 -->
<g id="edge57" class="edge">
<title>Node29&#45;&gt;Node30</title>
<path fill="none" stroke="#191970" d="M820.0948,-526.4936C860.6317,-519.7243 909.9171,-508.4454 951.261,-490 972.7766,-480.4009 972.5579,-468.1671 994.261,-459 1079.0733,-423.1765 1112.5341,-456.5757 1198.261,-423 1326.7136,-372.6904 1393.1906,-376.1025 1459.261,-255 1469.8126,-235.6597 1456.9106,-211.8157 1444.8958,-195.8301"/>
<polygon fill="#191970" stroke="#191970" points="1447.4613,-193.4353 1438.4668,-187.8363 1442.0065,-197.8223 1447.4613,-193.4353"/>
</g>
<!-- Node31 -->
<g id="node32" class="node">
<title>Node31</title>
<g id="a_node32"><a xlink:href="MatrixDynSize_8h.html" target="_top" xlink:title="iDynTree/Core/MatrixDynSize.h">
<polygon fill="none" stroke="#000000" points="764.761,-168.5 764.761,-187.5 931.761,-187.5 931.761,-168.5 764.761,-168.5"/>
<text text-anchor="middle" x="848.261" y="-175.5" font-family="FreeSans.ttf" font-size="10.00" fill="#000000">iDynTree/Core/MatrixDynSize.h</text>
</a>
</g>
</g>
<!-- Node29&#45;&gt;Node31 -->
<g id="edge61" class="edge">
<title>Node29&#45;&gt;Node31</title>
<path fill="none" stroke="#191970" d="M751.5793,-526.1046C784.2339,-496.8649 879.1515,-406.8876 924.261,-311 940.8521,-275.7332 955.3732,-257.3844 935.261,-224 926.2074,-208.9718 910.4188,-198.5985 894.755,-191.5638"/>
<polygon fill="#191970" stroke="#191970" points="895.6601,-188.1525 885.0795,-187.6034 893.0083,-194.6308 895.6601,-188.1525"/>
</g>
<!-- Node32 -->
<g id="node33" class="node">
<title>Node32</title>
<g id="a_node33"><a xlink:href="SpatialMotionVector_8h.html" target="_top" xlink:title="iDynTree/Core/SpatialMotion\lVector.h">
<polygon fill="none" stroke="#000000" points="361.761,-459.5 361.761,-489.5 516.761,-489.5 516.761,-459.5 361.761,-459.5"/>
<text text-anchor="start" x="369.761" y="-477.5" font-family="FreeSans.ttf" font-size="10.00" fill="#000000">iDynTree/Core/SpatialMotion</text>
<text text-anchor="middle" x="439.261" y="-466.5" font-family="FreeSans.ttf" font-size="10.00" fill="#000000">Vector.h</text>
</a>
</g>
</g>
<!-- Node29&#45;&gt;Node32 -->
<g id="edge65" class="edge">
<title>Node29&#45;&gt;Node32</title>
<path fill="none" stroke="#191970" d="M693.5601,-526.4581C648.0903,-517.1678 577.9745,-502.8418 522.8745,-491.5838"/>
<polygon fill="#191970" stroke="#191970" points="523.2685,-488.0921 512.7702,-489.5193 521.8671,-494.9504 523.2685,-488.0921"/>
</g>
<!-- Node34 -->
<g id="node35" class="node">
<title>Node34</title>
<g id="a_node35"><a xlink:href="SpatialForceVector_8h.html" target="_top" xlink:title="iDynTree/Core/SpatialForce\lVector.h">
<polygon fill="none" stroke="#000000" points="171.261,-459.5 171.261,-489.5 319.261,-489.5 319.261,-459.5 171.261,-459.5"/>
<text text-anchor="start" x="179.261" y="-477.5" font-family="FreeSans.ttf" font-size="10.00" fill="#000000">iDynTree/Core/SpatialForce</text>
<text text-anchor="middle" x="245.261" y="-466.5" font-family="FreeSans.ttf" font-size="10.00" fill="#000000">Vector.h</text>
</a>
</g>
</g>
<!-- Node29&#45;&gt;Node34 -->
<g id="edge75" class="edge">
<title>Node29&#45;&gt;Node34</title>
<path fill="none" stroke="#191970" d="M659.5574,-527.0475C581.0235,-518.1905 458.3515,-503.9706 352.261,-490 344.8855,-489.0287 337.2291,-487.9867 329.5556,-486.9191"/>
<polygon fill="#191970" stroke="#191970" points="329.8698,-483.429 319.4803,-485.5047 328.8966,-490.361 329.8698,-483.429"/>
</g>
<!-- Node30&#45;&gt;Node9 -->
<g id="edge58" class="edge">
<title>Node30&#45;&gt;Node9</title>
<path fill="none" stroke="#191970" d="M1383.8178,-168.4509C1286.2659,-147.9522 1057.1028,-99.7979 951.4224,-77.5911"/>
<polygon fill="#191970" stroke="#191970" points="952.0954,-74.1562 941.5893,-75.5249 950.6558,-81.0066 952.0954,-74.1562"/>
</g>
<!-- Node30&#45;&gt;Node17 -->
<g id="edge59" class="edge">
<title>Node30&#45;&gt;Node17</title>
<path fill="none" stroke="#191970" d="M1361.2946,-168.4369C1274.6467,-156.2452 1128.3348,-135.6586 1063.662,-126.5589"/>
<polygon fill="#191970" stroke="#191970" points="1064.0346,-123.077 1053.6444,-125.1494 1063.0592,-130.0087 1064.0346,-123.077"/>
</g>
<!-- Node31&#45;&gt;Node6 -->
<g id="edge63" class="edge">
<title>Node31&#45;&gt;Node6</title>
<path fill="none" stroke="#191970" d="M835.3712,-168.2455C824.3357,-159.8943 808.2318,-147.7076 795.3257,-137.9408"/>
<polygon fill="#191970" stroke="#191970" points="797.0893,-134.8862 787.0032,-131.6427 792.8652,-140.4681 797.0893,-134.8862"/>
</g>
<!-- Node31&#45;&gt;Node17 -->
<g id="edge62" class="edge">
<title>Node31&#45;&gt;Node17</title>
<path fill="none" stroke="#191970" d="M879.7199,-168.3733C913.1527,-158.1425 965.7329,-142.0523 999.3407,-131.768"/>
<polygon fill="#191970" stroke="#191970" points="1000.5812,-135.0486 1009.1194,-128.7756 998.5329,-128.355 1000.5812,-135.0486"/>
</g>
<!-- Node32&#45;&gt;Node21 -->
<g id="edge66" class="edge">
<title>Node32&#45;&gt;Node21</title>
<path fill="none" stroke="#191970" d="M439.7197,-459.3889C441.2179,-410.0314 445.9682,-253.5381 447.6575,-197.8834"/>
<polygon fill="#191970" stroke="#191970" points="451.1642,-197.7143 447.9693,-187.6127 444.1674,-197.5019 451.1642,-197.7143"/>
</g>
<!-- Node32&#45;&gt;Node26 -->
<g id="edge67" class="edge">
<title>Node32&#45;&gt;Node26</title>
<path fill="none" stroke="#191970" d="M432.7894,-459.4422C415.0976,-418.2781 365.9467,-303.9171 346.4152,-258.4726"/>
<polygon fill="#191970" stroke="#191970" points="349.5834,-256.98 342.4191,-249.1746 343.1522,-259.7441 349.5834,-256.98"/>
</g>
<!-- Node33 -->
<g id="node34" class="node">
<title>Node33</title>
<g id="a_node34"><a xlink:href="SpatialVector_8h.html" target="_top" xlink:title="iDynTree/Core/SpatialVector.h">
<polygon fill="none" stroke="#000000" points="230.761,-403.5 230.761,-422.5 391.761,-422.5 391.761,-403.5 230.761,-403.5"/>
<text text-anchor="middle" x="311.261" y="-410.5" font-family="FreeSans.ttf" font-size="10.00" fill="#000000">iDynTree/Core/SpatialVector.h</text>
</a>
</g>
</g>
<!-- Node32&#45;&gt;Node33 -->
<g id="edge68" class="edge">
<title>Node32&#45;&gt;Node33</title>
<path fill="none" stroke="#191970" d="M407.9487,-459.4554C387.2473,-449.509 360.3087,-436.5659 340.1258,-426.8686"/>
<polygon fill="#191970" stroke="#191970" points="341.6259,-423.7064 331.0965,-422.5303 338.5943,-430.0159 341.6259,-423.7064"/>
</g>
<!-- Node33&#45;&gt;Node3 -->
<g id="edge71" class="edge">
<title>Node33&#45;&gt;Node3</title>
<path fill="none" stroke="#191970" d="M273.1483,-403.4703C247.9682,-396.0489 214.9916,-384.1068 189.261,-367 129.1502,-327.0356 105.2717,-295.8444 112.261,-224 114.717,-198.7547 108.0007,-188.2603 123.261,-168 159.71,-119.6087 225.666,-92.3125 271.6124,-78.3745"/>
<polygon fill="#191970" stroke="#191970" points="272.7668,-81.6836 281.3836,-75.5191 270.8033,-74.9646 272.7668,-81.6836"/>
</g>
<!-- Node33&#45;&gt;Node18 -->
<g id="edge73" class="edge">
<title>Node33&#45;&gt;Node18</title>
<path fill="none" stroke="#191970" d="M302.4718,-403.3036C277.2678,-374.2788 208.944,-286.2483 247.261,-224 271.0557,-185.3441 399.3958,-148.4954 466.0345,-131.6172"/>
<polygon fill="#191970" stroke="#191970" points="466.9348,-134.9999 475.7868,-129.1782 465.2364,-128.209 466.9348,-134.9999"/>
</g>
<!-- Node33&#45;&gt;Node19 -->
<g id="edge74" class="edge">
<title>Node33&#45;&gt;Node19</title>
<path fill="none" stroke="#191970" d="M280.8794,-403.3598C260.4496,-395.7994 233.788,-383.7402 214.261,-367 142.3834,-305.3805 80.2927,-242.8534 138.261,-168 155.2035,-146.1225 230.8489,-132.7786 277.9073,-126.4445"/>
<polygon fill="#191970" stroke="#191970" points="278.5899,-129.8854 288.0561,-125.127 277.6887,-122.9436 278.5899,-129.8854"/>
</g>
<!-- Node33&#45;&gt;Node23 -->
<g id="edge69" class="edge">
<title>Node33&#45;&gt;Node23</title>
<path fill="none" stroke="#191970" d="M391.7854,-407.2702C543.5326,-396.4724 870.0295,-373.2401 1020.0113,-362.568"/>
<polygon fill="#191970" stroke="#191970" points="1020.3396,-366.0535 1030.0659,-361.8525 1019.8427,-359.0712 1020.3396,-366.0535"/>
</g>
<!-- Node33&#45;&gt;Node25 -->
<g id="edge70" class="edge">
<title>Node33&#45;&gt;Node25</title>
<path fill="none" stroke="#191970" d="M356.9601,-403.4509C455.061,-382.9522 685.514,-334.7979 791.7892,-312.5911"/>
<polygon fill="#191970" stroke="#191970" points="792.605,-315.9963 801.6777,-310.5249 791.1732,-309.1443 792.605,-315.9963"/>
</g>
<!-- Node33&#45;&gt;Node26 -->
<g id="edge72" class="edge">
<title>Node33&#45;&gt;Node26</title>
<path fill="none" stroke="#191970" d="M312.7511,-403.4248C317.0191,-375.999 329.3546,-296.732 335.1648,-259.3964"/>
<polygon fill="#191970" stroke="#191970" points="338.6629,-259.6788 336.7423,-249.2595 331.7461,-258.6024 338.6629,-259.6788"/>
</g>
<!-- Node34&#45;&gt;Node21 -->
<g id="edge76" class="edge">
<title>Node34&#45;&gt;Node21</title>
<path fill="none" stroke="#191970" d="M233.8584,-459.1784C227.2991,-449.3846 219.6963,-436.1017 216.261,-423 198.7738,-356.3051 131.2709,-346.3675 247.261,-224 262.8052,-207.6012 311.8948,-196.1899 357.6666,-188.8349"/>
<polygon fill="#191970" stroke="#191970" points="358.3295,-192.274 367.674,-187.281 357.2554,-185.3569 358.3295,-192.274"/>
</g>
<!-- Node34&#45;&gt;Node26 -->
<g id="edge77" class="edge">
<title>Node34&#45;&gt;Node26</title>
<path fill="none" stroke="#191970" d="M234.4509,-459.4735C225.429,-445.0313 214.9789,-422.5739 221.261,-403 240.8716,-341.8972 292.6596,-284.2307 320.2928,-256.5797"/>
<polygon fill="#191970" stroke="#191970" points="323.0305,-258.7968 327.7157,-249.2942 318.1272,-253.801 323.0305,-258.7968"/>
</g>
<!-- Node34&#45;&gt;Node33 -->
<g id="edge78" class="edge">
<title>Node34&#45;&gt;Node33</title>
<path fill="none" stroke="#191970" d="M261.5757,-459.2977C271.2143,-450.3163 283.4301,-438.9334 293.3369,-429.702"/>
<polygon fill="#191970" stroke="#191970" points="295.7636,-432.2249 300.6936,-422.8469 290.9915,-427.1036 295.7636,-432.2249"/>
</g>
</g>
</svg>
