<?xml version="1.0" encoding="UTF-8" standalone="no"?>
<!DOCTYPE svg PUBLIC "-//W3C//DTD SVG 1.1//EN"
 "http://www.w3.org/Graphics/SVG/1.1/DTD/svg11.dtd">
<!-- Generated by graphviz version 2.40.1 (20161225.0304)
 -->
<!-- Title: Triplets.cpp Pages: 1 -->
<svg width="911pt" height="364pt"
 viewBox="0.00 0.00 910.50 364.00" xmlns="http://www.w3.org/2000/svg" xmlns:xlink="http://www.w3.org/1999/xlink">
<g id="graph0" class="graph" transform="scale(1 1) rotate(0) translate(4 360)">
<title>Triplets.cpp</title>
<!-- Node0 -->
<g id="node1" class="node">
<title>Node0</title>
<polygon fill="#bfbfbf" stroke="#000000" points="283,-336.5 283,-355.5 355,-355.5 355,-336.5 283,-336.5"/>
<text text-anchor="middle" x="319" y="-343.5" font-family="FreeSans.ttf" font-size="10.00" fill="#000000">Triplets.cpp</text>
</g>
<!-- Node1 -->
<g id="node2" class="node">
<title>Node1</title>
<g id="a_node2"><a xlink:href="Triplets_8h.html" target="_top" xlink:title="Triplets.h">
<polygon fill="none" stroke="#000000" points="535.5,-224.5 535.5,-243.5 596.5,-243.5 596.5,-224.5 535.5,-224.5"/>
<text text-anchor="middle" x="566" y="-231.5" font-family="FreeSans.ttf" font-size="10.00" fill="#000000">Triplets.h</text>
</a>
</g>
</g>
<!-- Node0&#45;&gt;Node1 -->
<g id="edge1" class="edge">
<title>Node0&#45;&gt;Node1</title>
<path fill="none" stroke="#191970" d="M340.0591,-336.4509C383.8989,-316.5722 485.0961,-270.6852 535.8405,-247.6756"/>
<polygon fill="#191970" stroke="#191970" points="537.3322,-250.8422 544.9942,-243.5249 534.4414,-244.467 537.3322,-250.8422"/>
</g>
<!-- Node2 -->
<g id="node3" class="node">
<title>Node2</title>
<g id="a_node3"><a xlink:href="MatrixFixSize_8h.html" target="_top" xlink:title="iDynTree/Core/MatrixFixSize.h">
<polygon fill="none" stroke="#000000" points="192.5,-168.5 192.5,-187.5 353.5,-187.5 353.5,-168.5 192.5,-168.5"/>
<text text-anchor="middle" x="273" y="-175.5" font-family="FreeSans.ttf" font-size="10.00" fill="#000000">iDynTree/Core/MatrixFixSize.h</text>
</a>
</g>
</g>
<!-- Node0&#45;&gt;Node2 -->
<g id="edge32" class="edge">
<title>Node0&#45;&gt;Node2</title>
<path fill="none" stroke="#191970" d="M316.395,-336.4862C309.092,-309.8144 288.3092,-233.9117 278.3927,-197.695"/>
<polygon fill="#191970" stroke="#191970" points="281.7077,-196.5485 275.691,-187.8279 274.9562,-198.3972 281.7077,-196.5485"/>
</g>
<!-- Node10 -->
<g id="node11" class="node">
<title>Node10</title>
<polygon fill="none" stroke="#bfbfbf" points="21,-.5 21,-19.5 85,-19.5 85,-.5 21,-.5"/>
<text text-anchor="middle" x="53" y="-7.5" font-family="FreeSans.ttf" font-size="10.00" fill="#000000">algorithm</text>
</g>
<!-- Node0&#45;&gt;Node10 -->
<g id="edge40" class="edge">
<title>Node0&#45;&gt;Node10</title>
<path fill="none" stroke="#191970" d="M282.7172,-341.1112C199.1076,-328.8312 0,-293.3566 0,-234 0,-234 0,-234 0,-122 0,-85.8604 22.8252,-48.9196 38.5175,-27.7933"/>
<polygon fill="#191970" stroke="#191970" points="41.3812,-29.8112 44.7188,-19.7558 35.839,-25.5352 41.3812,-29.8112"/>
</g>
<!-- Node19 -->
<g id="node20" class="node">
<title>Node19</title>
<polygon fill="none" stroke="#bfbfbf" points="28,-112.5 28,-131.5 84,-131.5 84,-112.5 28,-112.5"/>
<text text-anchor="middle" x="56" y="-119.5" font-family="FreeSans.ttf" font-size="10.00" fill="#000000">sstream</text>
</g>
<!-- Node0&#45;&gt;Node19 -->
<g id="edge41" class="edge">
<title>Node0&#45;&gt;Node19</title>
<path fill="none" stroke="#191970" d="M307.6992,-336.375C266.8129,-301.5517 126.3021,-181.8771 74.97,-138.1569"/>
<polygon fill="#191970" stroke="#191970" points="77.1411,-135.4087 67.2587,-131.5891 72.6022,-140.7378 77.1411,-135.4087"/>
</g>
<!-- Node21 -->
<g id="node22" class="node">
<title>Node21</title>
<g id="a_node22"><a xlink:href="MatrixDynSize_8h.html" target="_top" xlink:title="MatrixDynSize.h">
<polygon fill="none" stroke="#000000" points="372,-168.5 372,-187.5 468,-187.5 468,-168.5 372,-168.5"/>
<text text-anchor="middle" x="420" y="-175.5" font-family="FreeSans.ttf" font-size="10.00" fill="#000000">MatrixDynSize.h</text>
</a>
</g>
</g>
<!-- Node0&#45;&gt;Node21 -->
<g id="edge29" class="edge">
<title>Node0&#45;&gt;Node21</title>
<path fill="none" stroke="#191970" d="M324.7196,-336.4862C340.8927,-309.5845 387.1754,-232.5994 408.7173,-196.7673"/>
<polygon fill="#191970" stroke="#191970" points="411.9387,-198.2017 414.0916,-187.8279 405.9394,-194.5949 411.9387,-198.2017"/>
</g>
<!-- Node22 -->
<g id="node23" class="node">
<title>Node22</title>
<g id="a_node23"><a xlink:href="SparseMatrix_8h.html" target="_top" xlink:title="SparseMatrix.h">
<polygon fill="none" stroke="#000000" points="611.5,-280.5 611.5,-299.5 700.5,-299.5 700.5,-280.5 611.5,-280.5"/>
<text text-anchor="middle" x="656" y="-287.5" font-family="FreeSans.ttf" font-size="10.00" fill="#000000">SparseMatrix.h</text>
</a>
</g>
</g>
<!-- Node0&#45;&gt;Node22 -->
<g id="edge33" class="edge">
<title>Node0&#45;&gt;Node22</title>
<path fill="none" stroke="#191970" d="M355.0649,-340.007C414.2171,-330.1776 532.1925,-310.5734 601.5594,-299.0465"/>
<polygon fill="#191970" stroke="#191970" points="602.1374,-302.4985 611.4284,-297.4066 600.9899,-295.5932 602.1374,-302.4985"/>
</g>
<!-- Node1&#45;&gt;Node2 -->
<g id="edge2" class="edge">
<title>Node1&#45;&gt;Node2</title>
<path fill="none" stroke="#191970" d="M535.473,-228.1655C487.7114,-219.037 394.4273,-201.208 332.9122,-189.4508"/>
<polygon fill="#191970" stroke="#191970" points="333.4266,-185.9858 322.9473,-187.5462 332.1124,-192.8614 333.4266,-185.9858"/>
</g>
<!-- Node3 -->
<g id="node4" class="node">
<title>Node3</title>
<g id="a_node4"><a xlink:href="Utils_8h.html" target="_top" xlink:title="iDynTree/Core/Utils.h">
<polygon fill="none" stroke="#000000" points="320.5,-56.5 320.5,-75.5 439.5,-75.5 439.5,-56.5 320.5,-56.5"/>
<text text-anchor="middle" x="380" y="-63.5" font-family="FreeSans.ttf" font-size="10.00" fill="#000000">iDynTree/Core/Utils.h</text>
</a>
</g>
</g>
<!-- Node1&#45;&gt;Node3 -->
<g id="edge25" class="edge">
<title>Node1&#45;&gt;Node3</title>
<path fill="none" stroke="#191970" d="M567.6674,-224.3188C570.988,-201.5932 575.8194,-144.3168 547,-112 533.7147,-97.1025 489.3016,-85.286 449.616,-77.361"/>
<polygon fill="#191970" stroke="#191970" points="450.1333,-73.8963 439.6501,-75.4306 448.802,-80.7685 450.1333,-73.8963"/>
</g>
<!-- Node12 -->
<g id="node13" class="node">
<title>Node12</title>
<polygon fill="none" stroke="#bfbfbf" points="756.5,-.5 756.5,-19.5 809.5,-19.5 809.5,-.5 756.5,-.5"/>
<text text-anchor="middle" x="783" y="-7.5" font-family="FreeSans.ttf" font-size="10.00" fill="#000000">iterator</text>
</g>
<!-- Node1&#45;&gt;Node12 -->
<g id="edge26" class="edge">
<title>Node1&#45;&gt;Node12</title>
<path fill="none" stroke="#191970" d="M574.0635,-224.4218C585.09,-211.4181 605.6066,-187.5564 624,-168 673.7157,-115.1408 735.3648,-55.4582 765.1859,-26.9372"/>
<polygon fill="#191970" stroke="#191970" points="767.8984,-29.1866 772.7166,-19.7508 763.0657,-24.1225 767.8984,-29.1866"/>
</g>
<!-- Node17 -->
<g id="node18" class="node">
<title>Node17</title>
<polygon fill="none" stroke="#bfbfbf" points="494,-112.5 494,-131.5 538,-131.5 538,-112.5 494,-112.5"/>
<text text-anchor="middle" x="516" y="-119.5" font-family="FreeSans.ttf" font-size="10.00" fill="#000000">string</text>
</g>
<!-- Node1&#45;&gt;Node17 -->
<g id="edge27" class="edge">
<title>Node1&#45;&gt;Node17</title>
<path fill="none" stroke="#191970" d="M561.737,-224.4509C553.4714,-205.936 535.1335,-164.8591 524.3566,-140.7187"/>
<polygon fill="#191970" stroke="#191970" points="527.5247,-139.2295 520.2522,-131.5249 521.1328,-142.0831 527.5247,-139.2295"/>
</g>
<!-- Node20 -->
<g id="node21" class="node">
<title>Node20</title>
<polygon fill="none" stroke="#bfbfbf" points="632.5,-168.5 632.5,-187.5 679.5,-187.5 679.5,-168.5 632.5,-168.5"/>
<text text-anchor="middle" x="656" y="-175.5" font-family="FreeSans.ttf" font-size="10.00" fill="#000000">vector</text>
</g>
<!-- Node1&#45;&gt;Node20 -->
<g id="edge28" class="edge">
<title>Node1&#45;&gt;Node20</title>
<path fill="none" stroke="#191970" d="M581.6768,-224.2455C595.4856,-215.6534 615.8193,-203.0014 631.7292,-193.1018"/>
<polygon fill="#191970" stroke="#191970" points="633.8613,-195.8974 640.5028,-187.6427 630.1632,-189.954 633.8613,-195.8974"/>
</g>
<!-- Node2&#45;&gt;Node3 -->
<g id="edge3" class="edge">
<title>Node2&#45;&gt;Node3</title>
<path fill="none" stroke="#191970" d="M277.8602,-168.2547C284.9649,-154.6346 299.1854,-129.6022 316,-112 327.3325,-100.1367 342.0884,-89.2955 354.5753,-81.1213"/>
<polygon fill="#191970" stroke="#191970" points="356.6126,-83.9738 363.1852,-75.6641 352.8651,-78.0614 356.6126,-83.9738"/>
</g>
<!-- Node6 -->
<g id="node7" class="node">
<title>Node6</title>
<g id="a_node7"><a xlink:href="MatrixView_8h.html" target="_top" xlink:title="iDynTree/Core/MatrixView.h">
<polygon fill="none" stroke="#000000" points="324.5,-112.5 324.5,-131.5 475.5,-131.5 475.5,-112.5 324.5,-112.5"/>
<text text-anchor="middle" x="400" y="-119.5" font-family="FreeSans.ttf" font-size="10.00" fill="#000000">iDynTree/Core/MatrixView.h</text>
</a>
</g>
</g>
<!-- Node2&#45;&gt;Node6 -->
<g id="edge6" class="edge">
<title>Node2&#45;&gt;Node6</title>
<path fill="none" stroke="#191970" d="M294.8321,-168.3733C315.3103,-159.3435 346.1399,-145.7494 369.1319,-135.6111"/>
<polygon fill="#191970" stroke="#191970" points="370.715,-138.7383 378.4528,-131.5011 367.8907,-132.3333 370.715,-138.7383"/>
</g>
<!-- Node7 -->
<g id="node8" class="node">
<title>Node7</title>
<polygon fill="none" stroke="#bfbfbf" points="160,-.5 160,-19.5 212,-19.5 212,-.5 160,-.5"/>
<text text-anchor="middle" x="186" y="-7.5" font-family="FreeSans.ttf" font-size="10.00" fill="#000000">cassert</text>
</g>
<!-- Node2&#45;&gt;Node7 -->
<g id="edge20" class="edge">
<title>Node2&#45;&gt;Node7</title>
<path fill="none" stroke="#191970" d="M252.1314,-168.3445C237.7248,-160.5764 219.3621,-148.2748 209,-132 188.9229,-100.4669 185.4931,-55.6634 185.369,-30.0441"/>
<polygon fill="#191970" stroke="#191970" points="188.8724,-29.7822 185.4967,-19.7396 181.873,-29.6954 188.8724,-29.7822"/>
</g>
<!-- Node16 -->
<g id="node17" class="node">
<title>Node16</title>
<polygon fill="none" stroke="#bfbfbf" points="218,-112.5 218,-131.5 268,-131.5 268,-112.5 218,-112.5"/>
<text text-anchor="middle" x="243" y="-119.5" font-family="FreeSans.ttf" font-size="10.00" fill="#000000">cstring</text>
</g>
<!-- Node2&#45;&gt;Node16 -->
<g id="edge21" class="edge">
<title>Node2&#45;&gt;Node16</title>
<path fill="none" stroke="#191970" d="M267.7744,-168.2455C263.6877,-160.617 257.8865,-149.7881 252.925,-140.5267"/>
<polygon fill="#191970" stroke="#191970" points="255.9732,-138.8047 248.1657,-131.6427 249.8028,-142.1103 255.9732,-138.8047"/>
</g>
<!-- Node2&#45;&gt;Node17 -->
<g id="edge22" class="edge">
<title>Node2&#45;&gt;Node17</title>
<path fill="none" stroke="#191970" d="M323.8822,-168.4214C364.7634,-160.3958 423.8161,-148.0653 483.718,-132.1631"/>
<polygon fill="#191970" stroke="#191970" points="484.9776,-135.4489 493.7271,-129.4742 483.1614,-128.6886 484.9776,-135.4489"/>
</g>
<!-- Node18 -->
<g id="node19" class="node">
<title>Node18</title>
<polygon fill="none" stroke="#bfbfbf" points="102,-112.5 102,-131.5 162,-131.5 162,-112.5 102,-112.5"/>
<text text-anchor="middle" x="132" y="-119.5" font-family="FreeSans.ttf" font-size="10.00" fill="#000000">iostream</text>
</g>
<!-- Node2&#45;&gt;Node18 -->
<g id="edge23" class="edge">
<title>Node2&#45;&gt;Node18</title>
<path fill="none" stroke="#191970" d="M248.7612,-168.3733C225.7211,-159.2226 190.8786,-145.3844 165.2499,-135.2057"/>
<polygon fill="#191970" stroke="#191970" points="166.5082,-131.9395 155.9225,-131.5011 163.9244,-138.4452 166.5082,-131.9395"/>
</g>
<!-- Node2&#45;&gt;Node19 -->
<g id="edge24" class="edge">
<title>Node2&#45;&gt;Node19</title>
<path fill="none" stroke="#191970" d="M235.0355,-168.4593C200.6445,-159.7807 148.3227,-146.4883 94.0622,-132.2566"/>
<polygon fill="#191970" stroke="#191970" points="94.8323,-128.8402 84.2711,-129.6838 93.0532,-135.6104 94.8323,-128.8402"/>
</g>
<!-- Node4 -->
<g id="node5" class="node">
<title>Node4</title>
<polygon fill="none" stroke="#bfbfbf" points="416.5,-.5 416.5,-19.5 469.5,-19.5 469.5,-.5 416.5,-.5"/>
<text text-anchor="middle" x="443" y="-7.5" font-family="FreeSans.ttf" font-size="10.00" fill="#000000">cstddef</text>
</g>
<!-- Node3&#45;&gt;Node4 -->
<g id="edge4" class="edge">
<title>Node3&#45;&gt;Node4</title>
<path fill="none" stroke="#191970" d="M390.9738,-56.2455C400.1882,-48.0549 413.5532,-36.1749 424.4297,-26.5069"/>
<polygon fill="#191970" stroke="#191970" points="427.0032,-28.9023 432.152,-19.6427 422.3526,-23.6704 427.0032,-28.9023"/>
</g>
<!-- Node5 -->
<g id="node6" class="node">
<title>Node5</title>
<polygon fill="none" stroke="#bfbfbf" points="318,-.5 318,-19.5 398,-19.5 398,-.5 318,-.5"/>
<text text-anchor="middle" x="358" y="-7.5" font-family="FreeSans.ttf" font-size="10.00" fill="#000000">CoreExport.h</text>
</g>
<!-- Node3&#45;&gt;Node5 -->
<g id="edge5" class="edge">
<title>Node3&#45;&gt;Node5</title>
<path fill="none" stroke="#191970" d="M376.1679,-56.2455C373.2341,-48.7776 369.0953,-38.2427 365.509,-29.1137"/>
<polygon fill="#191970" stroke="#191970" points="368.7024,-27.6704 361.7882,-19.6427 362.1871,-30.23 368.7024,-27.6704"/>
</g>
<!-- Node6&#45;&gt;Node3 -->
<g id="edge19" class="edge">
<title>Node6&#45;&gt;Node3</title>
<path fill="none" stroke="#191970" d="M396.5163,-112.2455C393.8492,-104.7776 390.0867,-94.2427 386.8263,-85.1137"/>
<polygon fill="#191970" stroke="#191970" points="390.1033,-83.8829 383.4438,-75.6427 383.5111,-86.2373 390.1033,-83.8829"/>
</g>
<!-- Node6&#45;&gt;Node7 -->
<g id="edge7" class="edge">
<title>Node6&#45;&gt;Node7</title>
<path fill="none" stroke="#191970" d="M373.6511,-112.4279C351.0042,-103.8621 317.7132,-90.4554 290,-76 260.4362,-60.5793 228.3037,-39.4587 207.6994,-25.3024"/>
<polygon fill="#191970" stroke="#191970" points="209.5673,-22.3385 199.3552,-19.5164 205.5784,-28.0909 209.5673,-22.3385"/>
</g>
<!-- Node8 -->
<g id="node9" class="node">
<title>Node8</title>
<polygon fill="none" stroke="#bfbfbf" points="230.5,-.5 230.5,-19.5 299.5,-19.5 299.5,-.5 230.5,-.5"/>
<text text-anchor="middle" x="265" y="-7.5" font-family="FreeSans.ttf" font-size="10.00" fill="#000000">type_traits</text>
</g>
<!-- Node6&#45;&gt;Node8 -->
<g id="edge8" class="edge">
<title>Node6&#45;&gt;Node8</title>
<path fill="none" stroke="#191970" d="M374.5623,-112.4914C355.8655,-104.6514 330.5851,-92.1962 312,-76 296.4903,-62.4839 283.3622,-42.8705 274.9565,-28.5377"/>
<polygon fill="#191970" stroke="#191970" points="277.8782,-26.593 269.9203,-19.5985 271.7794,-30.029 277.8782,-26.593"/>
</g>
<!-- Node9 -->
<g id="node10" class="node">
<title>Node9</title>
<g id="a_node10"><a xlink:href="Span_8h.html" target="_top" xlink:title="iDynTree/Core/Span.h">
<polygon fill="none" stroke="#000000" points="457.5,-56.5 457.5,-75.5 578.5,-75.5 578.5,-56.5 457.5,-56.5"/>
<text text-anchor="middle" x="518" y="-63.5" font-family="FreeSans.ttf" font-size="10.00" fill="#000000">iDynTree/Core/Span.h</text>
</a>
</g>
</g>
<!-- Node6&#45;&gt;Node9 -->
<g id="edge9" class="edge">
<title>Node6&#45;&gt;Node9</title>
<path fill="none" stroke="#191970" d="M420.2849,-112.3733C439.1421,-103.4241 467.446,-89.9917 488.7455,-79.8835"/>
<polygon fill="#191970" stroke="#191970" points="490.4461,-82.9506 497.9798,-75.5011 487.4449,-76.6266 490.4461,-82.9506"/>
</g>
<!-- Node9&#45;&gt;Node4 -->
<g id="edge13" class="edge">
<title>Node9&#45;&gt;Node4</title>
<path fill="none" stroke="#191970" d="M504.936,-56.2455C493.6438,-47.814 477.1155,-35.4729 463.9729,-25.6598"/>
<polygon fill="#191970" stroke="#191970" points="466.0211,-22.8211 455.9143,-19.6427 461.8331,-28.4301 466.0211,-22.8211"/>
</g>
<!-- Node9&#45;&gt;Node7 -->
<g id="edge10" class="edge">
<title>Node9&#45;&gt;Node7</title>
<path fill="none" stroke="#191970" d="M457.3883,-57.026C384.0027,-46.1021 265.6618,-28.2808 222.2442,-19.934"/>
<polygon fill="#191970" stroke="#191970" points="222.7833,-16.4718 212.2838,-17.8898 221.3759,-23.3289 222.7833,-16.4718"/>
</g>
<!-- Node9&#45;&gt;Node8 -->
<g id="edge17" class="edge">
<title>Node9&#45;&gt;Node8</title>
<path fill="none" stroke="#191970" d="M474.3487,-56.4835C434.2013,-47.7104 372.742,-34.2293 309.709,-20.1476"/>
<polygon fill="#191970" stroke="#191970" points="310.1049,-16.6497 299.5821,-17.883 308.5773,-23.481 310.1049,-16.6497"/>
</g>
<!-- Node9&#45;&gt;Node10 -->
<g id="edge11" class="edge">
<title>Node9&#45;&gt;Node10</title>
<path fill="none" stroke="#191970" d="M457.4313,-57.1231C454.5821,-56.7366 451.7606,-56.3603 449,-56 320.2996,-39.2023 167.6598,-22.3307 95.2135,-14.507"/>
<polygon fill="#191970" stroke="#191970" points="95.4364,-11.0109 85.119,-13.4195 94.6865,-17.9706 95.4364,-11.0109"/>
</g>
<!-- Node11 -->
<g id="node12" class="node">
<title>Node11</title>
<polygon fill="none" stroke="#bfbfbf" points="634,-.5 634,-19.5 676,-19.5 676,-.5 634,-.5"/>
<text text-anchor="middle" x="655" y="-7.5" font-family="FreeSans.ttf" font-size="10.00" fill="#000000">array</text>
</g>
<!-- Node9&#45;&gt;Node11 -->
<g id="edge12" class="edge">
<title>Node9&#45;&gt;Node11</title>
<path fill="none" stroke="#191970" d="M541.5511,-56.3733C564.5145,-46.9868 599.5438,-32.6682 624.5998,-22.4263"/>
<polygon fill="#191970" stroke="#191970" points="626.0669,-25.6078 633.9992,-18.5843 623.4183,-19.1282 626.0669,-25.6078"/>
</g>
<!-- Node9&#45;&gt;Node12 -->
<g id="edge14" class="edge">
<title>Node9&#45;&gt;Node12</title>
<path fill="none" stroke="#191970" d="M570.9923,-56.4867C615.3768,-48.2623 680.5862,-35.5851 746.5797,-19.969"/>
<polygon fill="#191970" stroke="#191970" points="747.4058,-23.3702 756.3197,-17.6438 745.7803,-16.5615 747.4058,-23.3702"/>
</g>
<!-- Node13 -->
<g id="node14" class="node">
<title>Node13</title>
<polygon fill="none" stroke="#bfbfbf" points="694,-.5 694,-19.5 738,-19.5 738,-.5 694,-.5"/>
<text text-anchor="middle" x="716" y="-7.5" font-family="FreeSans.ttf" font-size="10.00" fill="#000000">limits</text>
</g>
<!-- Node9&#45;&gt;Node13 -->
<g id="edge15" class="edge">
<title>Node9&#45;&gt;Node13</title>
<path fill="none" stroke="#191970" d="M554.2891,-56.4892C586.151,-48.031 633.9655,-35.0787 683.9891,-20.2214"/>
<polygon fill="#191970" stroke="#191970" points="685.1047,-23.5411 693.6849,-17.3257 683.1015,-16.8338 685.1047,-23.5411"/>
</g>
<!-- Node14 -->
<g id="node15" class="node">
<title>Node14</title>
<polygon fill="none" stroke="#bfbfbf" points="487.5,-.5 487.5,-19.5 552.5,-19.5 552.5,-.5 487.5,-.5"/>
<text text-anchor="middle" x="520" y="-7.5" font-family="FreeSans.ttf" font-size="10.00" fill="#000000">stdexcept</text>
</g>
<!-- Node9&#45;&gt;Node14 -->
<g id="edge16" class="edge">
<title>Node9&#45;&gt;Node14</title>
<path fill="none" stroke="#191970" d="M518.3484,-56.2455C518.6093,-48.9382 518.9752,-38.6944 519.2963,-29.7046"/>
<polygon fill="#191970" stroke="#191970" points="522.7964,-29.7613 519.6556,-19.6427 515.8008,-29.5113 522.7964,-29.7613"/>
</g>
<!-- Node15 -->
<g id="node16" class="node">
<title>Node15</title>
<polygon fill="none" stroke="#bfbfbf" points="570.5,-.5 570.5,-19.5 615.5,-19.5 615.5,-.5 570.5,-.5"/>
<text text-anchor="middle" x="593" y="-7.5" font-family="FreeSans.ttf" font-size="10.00" fill="#000000">utility</text>
</g>
<!-- Node9&#45;&gt;Node15 -->
<g id="edge18" class="edge">
<title>Node9&#45;&gt;Node15</title>
<path fill="none" stroke="#191970" d="M531.064,-56.2455C542.3562,-47.814 558.8845,-35.4729 572.0271,-25.6598"/>
<polygon fill="#191970" stroke="#191970" points="574.1669,-28.4301 580.0857,-19.6427 569.9789,-22.8211 574.1669,-28.4301"/>
</g>
<!-- Node21&#45;&gt;Node6 -->
<g id="edge31" class="edge">
<title>Node21&#45;&gt;Node6</title>
<path fill="none" stroke="#191970" d="M416.5163,-168.2455C413.8492,-160.7776 410.0867,-150.2427 406.8263,-141.1137"/>
<polygon fill="#191970" stroke="#191970" points="410.1033,-139.8829 403.4438,-131.6427 403.5111,-142.2373 410.1033,-139.8829"/>
</g>
<!-- Node21&#45;&gt;Node17 -->
<g id="edge30" class="edge">
<title>Node21&#45;&gt;Node17</title>
<path fill="none" stroke="#191970" d="M436.7219,-168.2455C451.5889,-159.5731 473.5466,-146.7645 490.5858,-136.825"/>
<polygon fill="#191970" stroke="#191970" points="492.5955,-139.7047 499.4697,-131.6427 489.0683,-133.6582 492.5955,-139.7047"/>
</g>
<!-- Node22&#45;&gt;Node1 -->
<g id="edge37" class="edge">
<title>Node22&#45;&gt;Node1</title>
<path fill="none" stroke="#191970" d="M640.3232,-280.2455C626.5144,-271.6534 606.1807,-259.0014 590.2708,-249.1018"/>
<polygon fill="#191970" stroke="#191970" points="591.8368,-245.954 581.4972,-243.6427 588.1387,-251.8974 591.8368,-245.954"/>
</g>
<!-- Node22&#45;&gt;Node3 -->
<g id="edge38" class="edge">
<title>Node22&#45;&gt;Node3</title>
<path fill="none" stroke="#191970" d="M663.4472,-280.3433C679.2226,-258.6241 712.6896,-204.94 689,-168 662.2129,-126.2299 526.6813,-93.7551 444.265,-77.4878"/>
<polygon fill="#191970" stroke="#191970" points="444.7258,-74.0119 434.2414,-75.5374 443.3888,-80.8831 444.7258,-74.0119"/>
</g>
<!-- Node22&#45;&gt;Node20 -->
<g id="edge39" class="edge">
<title>Node22&#45;&gt;Node20</title>
<path fill="none" stroke="#191970" d="M656,-280.4509C656,-262.184 656,-221.9553 656,-197.6976"/>
<polygon fill="#191970" stroke="#191970" points="659.5001,-197.5249 656,-187.5249 652.5001,-197.5249 659.5001,-197.5249"/>
</g>
<!-- Node23 -->
<g id="node24" class="node">
<title>Node23</title>
<g id="a_node24"><a xlink:href="VectorDynSize_8h.html" target="_top" xlink:title="iDynTree/Core/VectorDynSize.h">
<polygon fill="none" stroke="#000000" points="735.5,-168.5 735.5,-187.5 902.5,-187.5 902.5,-168.5 735.5,-168.5"/>
<text text-anchor="middle" x="819" y="-175.5" font-family="FreeSans.ttf" font-size="10.00" fill="#000000">iDynTree/Core/VectorDynSize.h</text>
</a>
</g>
</g>
<!-- Node22&#45;&gt;Node23 -->
<g id="edge34" class="edge">
<title>Node22&#45;&gt;Node23</title>
<path fill="none" stroke="#191970" d="M669.8973,-280.4509C698.1664,-261.0268 762.5753,-216.7703 796.7483,-193.2895"/>
<polygon fill="#191970" stroke="#191970" points="798.8781,-196.0727 805.1379,-187.5249 794.9139,-190.3034 798.8781,-196.0727"/>
</g>
<!-- Node23&#45;&gt;Node9 -->
<g id="edge35" class="edge">
<title>Node23&#45;&gt;Node9</title>
<path fill="none" stroke="#191970" d="M807.8945,-168.3448C790.6857,-153.894 756.0044,-126.764 722,-112 679.6331,-93.6052 628.9952,-82.1329 588.7696,-75.2455"/>
<polygon fill="#191970" stroke="#191970" points="589.2158,-71.7718 578.7785,-73.5919 588.0727,-78.6779 589.2158,-71.7718"/>
</g>
<!-- Node23&#45;&gt;Node17 -->
<g id="edge36" class="edge">
<title>Node23&#45;&gt;Node17</title>
<path fill="none" stroke="#191970" d="M767.2567,-168.4369C704.4791,-156.8344 600.5632,-137.6289 548.2289,-127.9565"/>
<polygon fill="#191970" stroke="#191970" points="548.6468,-124.4745 538.1772,-126.0988 547.3745,-131.358 548.6468,-124.4745"/>
</g>
</g>
</svg>
