<?xml version="1.0" encoding="UTF-8" standalone="no"?>
<!DOCTYPE svg PUBLIC "-//W3C//DTD SVG 1.1//EN"
 "http://www.w3.org/Graphics/SVG/1.1/DTD/svg11.dtd">
<!-- Generated by graphviz version 2.40.1 (20161225.0304)
 -->
<!-- Title: URDFDocument.cpp Pages: 1 -->
<svg width="3213pt" height="744pt"
 viewBox="0.00 0.00 3213.00 744.00" xmlns="http://www.w3.org/2000/svg" xmlns:xlink="http://www.w3.org/1999/xlink">
<g id="graph0" class="graph" transform="scale(1 1) rotate(0) translate(4 740)">
<title>URDFDocument.cpp</title>
<!-- Node0 -->
<g id="node1" class="node">
<title>Node0</title>
<polygon fill="#bfbfbf" stroke="#000000" points="2641,-716.5 2641,-735.5 2755,-735.5 2755,-716.5 2641,-716.5"/>
<text text-anchor="middle" x="2698" y="-723.5" font-family="FreeSans.ttf" font-size="10.00" fill="#000000">URDFDocument.cpp</text>
</g>
<!-- Node1 -->
<g id="node2" class="node">
<title>Node1</title>
<g id="a_node2"><a xlink:href="URDFDocument_8h.html" target="_top" xlink:title="URDFDocument.h">
<polygon fill="none" stroke="#000000" points="807.5,-660.5 807.5,-679.5 910.5,-679.5 910.5,-660.5 807.5,-660.5"/>
<text text-anchor="middle" x="859" y="-667.5" font-family="FreeSans.ttf" font-size="10.00" fill="#000000">URDFDocument.h</text>
</a>
</g>
</g>
<!-- Node0&#45;&gt;Node1 -->
<g id="edge1" class="edge">
<title>Node0&#45;&gt;Node1</title>
<path fill="none" stroke="#191970" d="M2640.9458,-724.2626C2368.616,-715.9698 1202.5249,-680.4608 920.5602,-671.8746"/>
<polygon fill="#191970" stroke="#191970" points="920.617,-668.3748 910.5151,-671.5687 920.4039,-675.3716 920.617,-668.3748"/>
</g>
<!-- Node18 -->
<g id="node17" class="node">
<title>Node18</title>
<polygon fill="none" stroke="#bfbfbf" points="2514,-.5 2514,-19.5 2578,-19.5 2578,-.5 2514,-.5"/>
<text text-anchor="middle" x="2546" y="-7.5" font-family="FreeSans.ttf" font-size="10.00" fill="#000000">algorithm</text>
</g>
<!-- Node0&#45;&gt;Node18 -->
<g id="edge146" class="edge">
<title>Node0&#45;&gt;Node18</title>
<path fill="none" stroke="#191970" d="M2744.0426,-716.4792C2796.4869,-702.6267 2875,-671.3868 2875,-608.5 2875,-608.5 2875,-608.5 2875,-122 2875,-62.0747 2676.9255,-27.7141 2588.156,-15.324"/>
<polygon fill="#191970" stroke="#191970" points="2588.5269,-11.8422 2578.1449,-13.9554 2587.5787,-18.7777 2588.5269,-11.8422"/>
</g>
<!-- Node59 -->
<g id="node37" class="node">
<title>Node59</title>
<g id="a_node37"><a xlink:href="RobotElement_8h.html" target="_top" xlink:title="RobotElement.h">
<polygon fill="none" stroke="#000000" points="363,-599 363,-618 457,-618 457,-599 363,-599"/>
<text text-anchor="middle" x="410" y="-606" font-family="FreeSans.ttf" font-size="10.00" fill="#000000">RobotElement.h</text>
</a>
</g>
</g>
<!-- Node0&#45;&gt;Node59 -->
<g id="edge103" class="edge">
<title>Node0&#45;&gt;Node59</title>
<path fill="none" stroke="#191970" d="M2640.7015,-725.713C2364.622,-724.1618 1169.756,-715.483 799,-680 649.6045,-665.7022 612.5158,-656.505 466,-624 461.3805,-622.9752 456.5738,-621.8055 451.8036,-620.5785"/>
<polygon fill="#191970" stroke="#191970" points="452.6986,-617.1949 442.135,-618.0074 450.8996,-623.9598 452.6986,-617.1949"/>
</g>
<!-- Node60 -->
<g id="node38" class="node">
<title>Node60</title>
<g id="a_node38"><a xlink:href="PrismaticJoint_8h.html" target="_top" xlink:title="iDynTree/Model/Prismatic\lJoint.h">
<polygon fill="none" stroke="#000000" points="2521,-470.5 2521,-500.5 2661,-500.5 2661,-470.5 2521,-470.5"/>
<text text-anchor="start" x="2529" y="-488.5" font-family="FreeSans.ttf" font-size="10.00" fill="#000000">iDynTree/Model/Prismatic</text>
<text text-anchor="middle" x="2591" y="-477.5" font-family="FreeSans.ttf" font-size="10.00" fill="#000000">Joint.h</text>
</a>
</g>
</g>
<!-- Node0&#45;&gt;Node60 -->
<g id="edge110" class="edge">
<title>Node0&#45;&gt;Node60</title>
<path fill="none" stroke="#191970" d="M2693.6729,-716.2742C2678.136,-681.3524 2624.866,-561.6194 2601.7955,-509.7647"/>
<polygon fill="#191970" stroke="#191970" points="2604.9922,-508.3393 2597.7294,-500.6255 2598.5966,-511.1848 2604.9922,-508.3393"/>
</g>
<!-- Node62 -->
<g id="node42" class="node">
<title>Node62</title>
<g id="a_node42"><a xlink:href="RevoluteJoint_8h.html" target="_top" xlink:title="iDynTree/Model/RevoluteJoint.h">
<polygon fill="none" stroke="#000000" points="2679,-476 2679,-495 2847,-495 2847,-476 2679,-476"/>
<text text-anchor="middle" x="2763" y="-483" font-family="FreeSans.ttf" font-size="10.00" fill="#000000">iDynTree/Model/RevoluteJoint.h</text>
</a>
</g>
</g>
<!-- Node0&#45;&gt;Node62 -->
<g id="edge124" class="edge">
<title>Node0&#45;&gt;Node62</title>
<path fill="none" stroke="#191970" d="M2700.6286,-716.2742C2710.3678,-680.239 2744.514,-553.8983 2757.7252,-505.0168"/>
<polygon fill="#191970" stroke="#191970" points="2761.1795,-505.6501 2760.4099,-495.0833 2754.422,-503.8237 2761.1795,-505.6501"/>
</g>
<!-- Node63 -->
<g id="node43" class="node">
<title>Node63</title>
<g id="a_node43"><a xlink:href="ModelTransformers_8h.html" target="_top" xlink:title="Collection of function to modify model in various ways. ">
<polygon fill="none" stroke="#000000" points="2903.5,-660.5 2903.5,-679.5 3100.5,-679.5 3100.5,-660.5 2903.5,-660.5"/>
<text text-anchor="middle" x="3002" y="-667.5" font-family="FreeSans.ttf" font-size="10.00" fill="#000000">iDynTree/Model/ModelTransformers.h</text>
</a>
</g>
</g>
<!-- Node0&#45;&gt;Node63 -->
<g id="edge130" class="edge">
<title>Node0&#45;&gt;Node63</title>
<path fill="none" stroke="#191970" d="M2749.914,-716.4369C2802.5971,-706.7321 2884.1568,-691.708 2940.1543,-681.3926"/>
<polygon fill="#191970" stroke="#191970" points="2941.0996,-684.7775 2950.3001,-679.5237 2939.8314,-677.8933 2941.0996,-684.7775"/>
</g>
<!-- Node64 -->
<g id="node44" class="node">
<title>Node64</title>
<g id="a_node44"><a xlink:href="SixAxisForceTorqueSensor_8h.html" target="_top" xlink:title="iDynTree/Sensors/SixAxis\lForceTorqueSensor.h">
<polygon fill="none" stroke="#000000" points="1629,-593.5 1629,-623.5 1769,-623.5 1769,-593.5 1629,-593.5"/>
<text text-anchor="start" x="1637" y="-611.5" font-family="FreeSans.ttf" font-size="10.00" fill="#000000">iDynTree/Sensors/SixAxis</text>
<text text-anchor="middle" x="1699" y="-600.5" font-family="FreeSans.ttf" font-size="10.00" fill="#000000">ForceTorqueSensor.h</text>
</a>
</g>
</g>
<!-- Node0&#45;&gt;Node64 -->
<g id="edge131" class="edge">
<title>Node0&#45;&gt;Node64</title>
<path fill="none" stroke="#191970" d="M2640.7013,-719.2607C2471.6673,-699.3793 1974.7112,-640.9285 1779.2642,-617.9405"/>
<polygon fill="#191970" stroke="#191970" points="1779.4066,-614.4332 1769.0662,-616.741 1778.5888,-621.3853 1779.4066,-614.4332"/>
</g>
<!-- Node67 -->
<g id="node50" class="node">
<title>Node67</title>
<polygon fill="none" stroke="#bfbfbf" points="3119,-660.5 3119,-679.5 3205,-679.5 3205,-660.5 3119,-660.5"/>
<text text-anchor="middle" x="3162" y="-667.5" font-family="FreeSans.ttf" font-size="10.00" fill="#000000">unordered_set</text>
</g>
<!-- Node0&#45;&gt;Node67 -->
<g id="edge147" class="edge">
<title>Node0&#45;&gt;Node67</title>
<path fill="none" stroke="#191970" d="M2755.169,-721.0524C2832.9456,-714.003 2976.6398,-699.851 3109.0004,-680.0535"/>
<polygon fill="#191970" stroke="#191970" points="3109.5495,-683.5104 3118.9149,-678.5566 3108.5044,-676.5888 3109.5495,-683.5104"/>
</g>
<!-- Node2 -->
<g id="node3" class="node">
<title>Node2</title>
<g id="a_node3"><a xlink:href="XMLDocument_8h.html" target="_top" xlink:title="iDynTree/XMLDocument.h">
<polygon fill="none" stroke="#000000" points="727,-409 727,-428 869,-428 869,-409 727,-409"/>
<text text-anchor="middle" x="798" y="-416" font-family="FreeSans.ttf" font-size="10.00" fill="#000000">iDynTree/XMLDocument.h</text>
</a>
</g>
</g>
<!-- Node1&#45;&gt;Node2 -->
<g id="edge2" class="edge">
<title>Node1&#45;&gt;Node2</title>
<path fill="none" stroke="#191970" d="M864.6945,-660.1646C869.5863,-651.1092 876.2692,-637.1298 879,-624 881.8056,-610.5109 881.4038,-606.5665 879,-593 868.8442,-535.6824 860.901,-521.6215 834,-470 827.8243,-458.1492 819.3158,-445.8477 812.1211,-436.2403"/>
<polygon fill="#191970" stroke="#191970" points="814.8583,-434.0583 805.9877,-428.2649 809.3094,-438.3256 814.8583,-434.0583"/>
</g>
<!-- Node4 -->
<g id="node5" class="node">
<title>Node4</title>
<polygon fill="none" stroke="#bfbfbf" points="1341,-56.5 1341,-75.5 1385,-75.5 1385,-56.5 1341,-56.5"/>
<text text-anchor="middle" x="1363" y="-63.5" font-family="FreeSans.ttf" font-size="10.00" fill="#000000">string</text>
</g>
<!-- Node1&#45;&gt;Node4 -->
<g id="edge100" class="edge">
<title>Node1&#45;&gt;Node4</title>
<path fill="none" stroke="#191970" d="M807.2002,-668.0754C621.4834,-660.4975 0,-629.0117 0,-547 0,-547 0,-547 0,-183.5 0,-132.0648 42.7019,-129.6882 91,-112 150.9176,-90.0565 1138.4613,-70.2587 1330.7105,-66.6022"/>
<polygon fill="#191970" stroke="#191970" points="1330.8178,-70.1009 1340.7498,-66.4123 1330.6853,-63.1022 1330.8178,-70.1009"/>
</g>
<!-- Node5 -->
<g id="node6" class="node">
<title>Node5</title>
<g id="a_node6"><a xlink:href="JointElement_8h.html" target="_top" xlink:title="JointElement.h">
<polygon fill="none" stroke="#000000" points="628,-476 628,-495 716,-495 716,-476 628,-476"/>
<text text-anchor="middle" x="672" y="-483" font-family="FreeSans.ttf" font-size="10.00" fill="#000000">JointElement.h</text>
</a>
</g>
</g>
<!-- Node1&#45;&gt;Node5 -->
<g id="edge5" class="edge">
<title>Node1&#45;&gt;Node5</title>
<path fill="none" stroke="#191970" d="M827.7165,-660.4185C807.0754,-652.9453 780.371,-640.964 761,-624 721.742,-589.6201 693.2116,-533.8316 680.0755,-504.6589"/>
<polygon fill="#191970" stroke="#191970" points="683.1545,-502.9641 675.9411,-495.2042 676.7409,-505.7688 683.1545,-502.9641"/>
</g>
<!-- Node8 -->
<g id="node9" class="node">
<title>Node8</title>
<polygon fill="none" stroke="#bfbfbf" points="424.5,-347.5 424.5,-366.5 517.5,-366.5 517.5,-347.5 424.5,-347.5"/>
<text text-anchor="middle" x="471" y="-354.5" font-family="FreeSans.ttf" font-size="10.00" fill="#000000">unordered_map</text>
</g>
<!-- Node1&#45;&gt;Node8 -->
<g id="edge102" class="edge">
<title>Node1&#45;&gt;Node8</title>
<path fill="none" stroke="#191970" d="M821.7015,-660.472C794.9022,-652.7657 758.4572,-640.4854 729,-624 616.8452,-561.2336 586.5626,-537.9645 511,-434 497.632,-415.6073 486.1224,-392.1359 478.9269,-375.9685"/>
<polygon fill="#191970" stroke="#191970" points="482.0257,-374.3161 474.8452,-366.5256 475.6003,-377.0935 482.0257,-374.3161"/>
</g>
<!-- Node9 -->
<g id="node10" class="node">
<title>Node9</title>
<polygon fill="none" stroke="#bfbfbf" points="1063.5,-347.5 1063.5,-366.5 1110.5,-366.5 1110.5,-347.5 1063.5,-347.5"/>
<text text-anchor="middle" x="1087" y="-354.5" font-family="FreeSans.ttf" font-size="10.00" fill="#000000">vector</text>
</g>
<!-- Node1&#45;&gt;Node9 -->
<g id="edge101" class="edge">
<title>Node1&#45;&gt;Node9</title>
<path fill="none" stroke="#191970" d="M866.2987,-660.1419C890.2105,-627.8243 968.309,-522.1052 1032,-434 1046.6426,-413.7446 1063.3066,-390.369 1074.4177,-374.7359"/>
<polygon fill="#191970" stroke="#191970" points="1077.3242,-376.6879 1080.2608,-366.5081 1071.617,-372.6347 1077.3242,-376.6879"/>
</g>
<!-- Node36 -->
<g id="node24" class="node">
<title>Node36</title>
<g id="a_node24"><a xlink:href="MaterialElement_8h.html" target="_top" xlink:title="MaterialElement.h">
<polygon fill="none" stroke="#000000" points="162,-476 162,-495 268,-495 268,-476 162,-476"/>
<text text-anchor="middle" x="215" y="-483" font-family="FreeSans.ttf" font-size="10.00" fill="#000000">MaterialElement.h</text>
</a>
</g>
</g>
<!-- Node1&#45;&gt;Node36 -->
<g id="edge44" class="edge">
<title>Node1&#45;&gt;Node36</title>
<path fill="none" stroke="#191970" d="M807.3419,-667.2852C686.8573,-660.67 394.3761,-642.8712 354,-624 295.8253,-596.81 247.9591,-534.5697 226.7615,-503.638"/>
<polygon fill="#191970" stroke="#191970" points="229.5288,-501.4799 221.0573,-495.1171 223.7119,-505.3741 229.5288,-501.4799"/>
</g>
<!-- Node37 -->
<g id="node25" class="node">
<title>Node37</title>
<g id="a_node25"><a xlink:href="SensorElement_8h.html" target="_top" xlink:title="SensorElement.h">
<polygon fill="none" stroke="#000000" points="770.5,-599 770.5,-618 869.5,-618 869.5,-599 770.5,-599"/>
<text text-anchor="middle" x="820" y="-606" font-family="FreeSans.ttf" font-size="10.00" fill="#000000">SensorElement.h</text>
</a>
</g>
</g>
<!-- Node1&#45;&gt;Node37 -->
<g id="edge49" class="edge">
<title>Node1&#45;&gt;Node37</title>
<path fill="none" stroke="#191970" d="M852.9063,-660.3906C847.2157,-651.417 838.5728,-637.7879 831.5726,-626.7491"/>
<polygon fill="#191970" stroke="#191970" points="834.4909,-624.8155 826.1797,-618.2449 828.5793,-628.5644 834.4909,-624.8155"/>
</g>
<!-- Node38 -->
<g id="node26" class="node">
<title>Node38</title>
<g id="a_node26"><a xlink:href="Sensors_8h.html" target="_top" xlink:title="iDynTree/Sensors/Sensors.h">
<polygon fill="none" stroke="#000000" points="1154.5,-537.5 1154.5,-556.5 1305.5,-556.5 1305.5,-537.5 1154.5,-537.5"/>
<text text-anchor="middle" x="1230" y="-544.5" font-family="FreeSans.ttf" font-size="10.00" fill="#000000">iDynTree/Sensors/Sensors.h</text>
</a>
</g>
</g>
<!-- Node1&#45;&gt;Node38 -->
<g id="edge99" class="edge">
<title>Node1&#45;&gt;Node38</title>
<path fill="none" stroke="#191970" d="M910.7255,-668.7432C993.0466,-665.7921 1149.0687,-656.0215 1193,-624 1211.7589,-610.3266 1221.4103,-584.5904 1226.0787,-566.6526"/>
<polygon fill="#191970" stroke="#191970" points="1229.5442,-567.1996 1228.3783,-556.6691 1222.7229,-565.6283 1229.5442,-567.1996"/>
</g>
<!-- Node40 -->
<g id="node28" class="node">
<title>Node40</title>
<g id="a_node28"><a xlink:href="Model_8h.html" target="_top" xlink:title="iDynTree/Model/Model.h">
<polygon fill="none" stroke="#000000" points="1565.5,-476 1565.5,-495 1698.5,-495 1698.5,-476 1565.5,-476"/>
<text text-anchor="middle" x="1632" y="-483" font-family="FreeSans.ttf" font-size="10.00" fill="#000000">iDynTree/Model/Model.h</text>
</a>
</g>
</g>
<!-- Node1&#45;&gt;Node40 -->
<g id="edge98" class="edge">
<title>Node1&#45;&gt;Node40</title>
<path fill="none" stroke="#191970" d="M910.682,-666.564C980.9412,-661.1725 1110.1997,-648.6885 1218,-624 1363.4063,-590.6989 1529.9421,-526.7364 1599.1681,-498.9435"/>
<polygon fill="#191970" stroke="#191970" points="1600.6974,-502.1006 1608.6615,-495.1133 1598.0783,-495.6091 1600.6974,-502.1006"/>
</g>
<!-- Node57 -->
<g id="node35" class="node">
<title>Node57</title>
<g id="a_node35"><a xlink:href="VisualElement_8h.html" target="_top" xlink:title="VisualElement.h">
<polygon fill="none" stroke="#000000" points="362,-537.5 362,-556.5 458,-556.5 458,-537.5 362,-537.5"/>
<text text-anchor="middle" x="410" y="-544.5" font-family="FreeSans.ttf" font-size="10.00" fill="#000000">VisualElement.h</text>
</a>
</g>
</g>
<!-- Node1&#45;&gt;Node57 -->
<g id="edge83" class="edge">
<title>Node1&#45;&gt;Node57</title>
<path fill="none" stroke="#191970" d="M807.4361,-666.5026C723.8036,-660.2815 562.6311,-645.857 510,-624 501.0071,-620.2654 456.2866,-584.5905 429.7918,-563.1335"/>
<polygon fill="#191970" stroke="#191970" points="431.868,-560.3108 421.8984,-556.7251 427.4558,-565.7453 431.868,-560.3108"/>
</g>
<!-- Node58 -->
<g id="node36" class="node">
<title>Node58</title>
<g id="a_node36"><a xlink:href="ModelLoader_8h.html" target="_top" xlink:title="iDynTree/ModelIO/ModelLoader.h">
<polygon fill="none" stroke="#000000" points="1008,-599 1008,-618 1184,-618 1184,-599 1008,-599"/>
<text text-anchor="middle" x="1096" y="-606" font-family="FreeSans.ttf" font-size="10.00" fill="#000000">iDynTree/ModelIO/ModelLoader.h</text>
</a>
</g>
</g>
<!-- Node1&#45;&gt;Node58 -->
<g id="edge92" class="edge">
<title>Node1&#45;&gt;Node58</title>
<path fill="none" stroke="#191970" d="M895.7712,-660.4581C937.1106,-649.7308 1004.3233,-632.2895 1049.3322,-620.61"/>
<polygon fill="#191970" stroke="#191970" points="1050.3422,-623.9639 1059.1425,-618.0643 1048.584,-617.1883 1050.3422,-623.9639"/>
</g>
<!-- Node3 -->
<g id="node4" class="node">
<title>Node3</title>
<polygon fill="none" stroke="#bfbfbf" points="594,-347.5 594,-366.5 652,-366.5 652,-347.5 594,-347.5"/>
<text text-anchor="middle" x="623" y="-354.5" font-family="FreeSans.ttf" font-size="10.00" fill="#000000">memory</text>
</g>
<!-- Node2&#45;&gt;Node3 -->
<g id="edge3" class="edge">
<title>Node2&#45;&gt;Node3</title>
<path fill="none" stroke="#191970" d="M770.6563,-408.8906C740.8618,-398.42 693.0315,-381.6111 659.9192,-369.9745"/>
<polygon fill="#191970" stroke="#191970" points="660.7466,-366.5554 650.1517,-366.5419 658.4257,-373.1595 660.7466,-366.5554"/>
</g>
<!-- Node2&#45;&gt;Node4 -->
<g id="edge4" class="edge">
<title>Node2&#45;&gt;Node4</title>
<path fill="none" stroke="#191970" d="M819.9184,-408.8762C854.0431,-392.2322 916,-354.6288 916,-301 916,-301 916,-301 916,-183.5 916,-97.6711 1228.1532,-73.2362 1330.7511,-67.523"/>
<polygon fill="#191970" stroke="#191970" points="1331.034,-71.013 1340.8332,-66.9849 1330.6608,-64.023 1331.034,-71.013"/>
</g>
<!-- Node5&#45;&gt;Node3 -->
<g id="edge41" class="edge">
<title>Node5&#45;&gt;Node3</title>
<path fill="none" stroke="#191970" d="M666.761,-475.8235C661.3645,-465.6168 652.9278,-448.9699 647,-434 639.3767,-414.7484 632.5525,-392.0455 628.1478,-376.3021"/>
<polygon fill="#191970" stroke="#191970" points="631.5199,-375.3644 625.5048,-366.6426 624.7681,-377.2118 631.5199,-375.3644"/>
</g>
<!-- Node5&#45;&gt;Node4 -->
<g id="edge42" class="edge">
<title>Node5&#45;&gt;Node4</title>
<path fill="none" stroke="#191970" d="M675.4196,-475.9723C682.6849,-454.8492 699,-402.3644 699,-357 699,-357 699,-357 699,-183.5 699,-118.5954 1197.2836,-77.9657 1330.5526,-68.2597"/>
<polygon fill="#191970" stroke="#191970" points="1331.1846,-71.7234 1340.9075,-67.5146 1330.6821,-64.7414 1331.1846,-71.7234"/>
</g>
<!-- Node6 -->
<g id="node7" class="node">
<title>Node6</title>
<g id="a_node7"><a xlink:href="XMLElement_8h.html" target="_top" xlink:title="iDynTree/XMLElement.h">
<polygon fill="none" stroke="#000000" points="311,-409 311,-428 443,-428 443,-409 311,-409"/>
<text text-anchor="middle" x="377" y="-416" font-family="FreeSans.ttf" font-size="10.00" fill="#000000">iDynTree/XMLElement.h</text>
</a>
</g>
</g>
<!-- Node5&#45;&gt;Node6 -->
<g id="edge6" class="edge">
<title>Node5&#45;&gt;Node6</title>
<path fill="none" stroke="#191970" d="M630.047,-475.9717C577.2255,-463.975 486.4808,-443.3651 429.222,-430.3606"/>
<polygon fill="#191970" stroke="#191970" points="429.8128,-426.9057 419.2859,-428.1039 428.2624,-433.7319 429.8128,-426.9057"/>
</g>
<!-- Node5&#45;&gt;Node8 -->
<g id="edge43" class="edge">
<title>Node5&#45;&gt;Node8</title>
<path fill="none" stroke="#191970" d="M656.8923,-475.8416C622.1038,-453.6012 536.1368,-398.6422 494.4356,-371.9825"/>
<polygon fill="#191970" stroke="#191970" points="496.3194,-369.0327 486.0088,-366.5952 492.5489,-374.9305 496.3194,-369.0327"/>
</g>
<!-- Node10 -->
<g id="node11" class="node">
<title>Node10</title>
<g id="a_node11"><a xlink:href="Axis_8h.html" target="_top" xlink:title="iDynTree/Core/Axis.h">
<polygon fill="none" stroke="#000000" points="2569,-347.5 2569,-366.5 2687,-366.5 2687,-347.5 2569,-347.5"/>
<text text-anchor="middle" x="2628" y="-354.5" font-family="FreeSans.ttf" font-size="10.00" fill="#000000">iDynTree/Core/Axis.h</text>
</a>
</g>
</g>
<!-- Node5&#45;&gt;Node10 -->
<g id="edge12" class="edge">
<title>Node5&#45;&gt;Node10</title>
<path fill="none" stroke="#191970" d="M716.0599,-484.49C923.2909,-479.6468 1802.346,-458.0423 2076,-434 2253.2389,-418.4284 2460.65,-385.5009 2563.4504,-368.1834"/>
<polygon fill="#191970" stroke="#191970" points="2564.0906,-371.625 2573.3671,-366.5066 2562.9234,-364.7229 2564.0906,-371.625"/>
</g>
<!-- Node35 -->
<g id="node22" class="node">
<title>Node35</title>
<g id="a_node22"><a xlink:href="Transform_8h.html" target="_top" xlink:title="iDynTree/Core/Transform.h">
<polygon fill="none" stroke="#000000" points="1665,-347.5 1665,-366.5 1811,-366.5 1811,-347.5 1665,-347.5"/>
<text text-anchor="middle" x="1738" y="-354.5" font-family="FreeSans.ttf" font-size="10.00" fill="#000000">iDynTree/Core/Transform.h</text>
</a>
</g>
</g>
<!-- Node5&#45;&gt;Node35 -->
<g id="edge34" class="edge">
<title>Node5&#45;&gt;Node35</title>
<path fill="none" stroke="#191970" d="M716.028,-481.9415C758.6978,-478.5694 825.2559,-473.5118 883,-470 1048.8862,-459.9114 1473.1223,-488.858 1630,-434 1652.2392,-426.2232 1653.8287,-416.6939 1673,-403 1687.2123,-392.8483 1703.2273,-381.5134 1715.8044,-372.6355"/>
<polygon fill="#191970" stroke="#191970" points="1718.1256,-375.2813 1724.28,-366.6572 1714.0909,-369.5611 1718.1256,-375.2813"/>
</g>
<!-- Node6&#45;&gt;Node3 -->
<g id="edge8" class="edge">
<title>Node6&#45;&gt;Node3</title>
<path fill="none" stroke="#191970" d="M415.1676,-408.9581C461.088,-397.478 537.7657,-378.3086 584.0377,-366.7406"/>
<polygon fill="#191970" stroke="#191970" points="585.1356,-370.0739 593.9881,-364.253 583.4378,-363.2829 585.1356,-370.0739"/>
</g>
<!-- Node6&#45;&gt;Node4 -->
<g id="edge9" class="edge">
<title>Node6&#45;&gt;Node4</title>
<path fill="none" stroke="#191970" d="M379.6419,-408.8367C384.8625,-388.8617 396,-341.502 396,-301 396,-301 396,-301 396,-183.5 396,-87.1059 1162.9974,-69.2117 1330.8132,-66.4501"/>
<polygon fill="#191970" stroke="#191970" points="1331.0425,-69.947 1340.986,-66.2894 1330.9319,-62.9479 1331.0425,-69.947"/>
</g>
<!-- Node7 -->
<g id="node8" class="node">
<title>Node7</title>
<polygon fill="none" stroke="#bfbfbf" points="302.5,-347.5 302.5,-366.5 367.5,-366.5 367.5,-347.5 302.5,-347.5"/>
<text text-anchor="middle" x="335" y="-354.5" font-family="FreeSans.ttf" font-size="10.00" fill="#000000">functional</text>
</g>
<!-- Node6&#45;&gt;Node7 -->
<g id="edge7" class="edge">
<title>Node6&#45;&gt;Node7</title>
<path fill="none" stroke="#191970" d="M370.4375,-408.8906C364.3092,-399.917 355.0015,-386.2879 347.4628,-375.2491"/>
<polygon fill="#191970" stroke="#191970" points="350.185,-373.029 341.655,-366.7449 344.4044,-376.9768 350.185,-373.029"/>
</g>
<!-- Node6&#45;&gt;Node8 -->
<g id="edge10" class="edge">
<title>Node6&#45;&gt;Node8</title>
<path fill="none" stroke="#191970" d="M391.6875,-408.8906C406.7256,-399.0519 430.3176,-383.6167 447.8667,-372.1351"/>
<polygon fill="#191970" stroke="#191970" points="449.9637,-374.9457 456.4156,-366.5419 446.1313,-369.088 449.9637,-374.9457"/>
</g>
<!-- Node6&#45;&gt;Node9 -->
<g id="edge11" class="edge">
<title>Node6&#45;&gt;Node9</title>
<path fill="none" stroke="#191970" d="M443.1575,-412.7695C590.7469,-399.9853 942.6024,-369.5077 1053.156,-359.9316"/>
<polygon fill="#191970" stroke="#191970" points="1053.7204,-363.3959 1063.381,-359.0459 1053.1162,-356.422 1053.7204,-363.3959"/>
</g>
<!-- Node10&#45;&gt;Node4 -->
<g id="edge13" class="edge">
<title>Node10&#45;&gt;Node4</title>
<path fill="none" stroke="#191970" d="M2617.8912,-347.209C2584.5363,-315.5186 2473.7189,-215.0767 2362,-168 2297.8926,-140.9861 2123.0396,-120.5464 2054,-112 1801.5559,-80.7501 1494.416,-69.7344 1395.4064,-66.852"/>
<polygon fill="#191970" stroke="#191970" points="1395.2581,-63.3464 1385.1629,-66.5614 1395.0596,-70.3436 1395.2581,-63.3464"/>
</g>
<!-- Node11 -->
<g id="node12" class="node">
<title>Node11</title>
<g id="a_node12"><a xlink:href="Direction_8h.html" target="_top" xlink:title="iDynTree/Core/Direction.h">
<polygon fill="none" stroke="#000000" points="2447.5,-174 2447.5,-193 2588.5,-193 2588.5,-174 2447.5,-174"/>
<text text-anchor="middle" x="2518" y="-181" font-family="FreeSans.ttf" font-size="10.00" fill="#000000">iDynTree/Core/Direction.h</text>
</a>
</g>
</g>
<!-- Node10&#45;&gt;Node11 -->
<g id="edge14" class="edge">
<title>Node10&#45;&gt;Node11</title>
<path fill="none" stroke="#191970" d="M2623.3315,-347.4218C2616.9012,-334.4181 2604.7732,-310.5565 2593,-291 2577.4869,-265.2311 2572.2209,-259.6603 2555,-235 2547.182,-223.8046 2538.2543,-211.3685 2531.1274,-201.5219"/>
<polygon fill="#191970" stroke="#191970" points="2533.8787,-199.354 2525.172,-193.317 2528.2136,-203.4659 2533.8787,-199.354"/>
</g>
<!-- Node13 -->
<g id="node14" class="node">
<title>Node13</title>
<g id="a_node14"><a xlink:href="Utils_8h.html" target="_top" xlink:title="iDynTree/Core/Utils.h">
<polygon fill="none" stroke="#ff0000" points="2347.5,-56.5 2347.5,-75.5 2466.5,-75.5 2466.5,-56.5 2347.5,-56.5"/>
<text text-anchor="middle" x="2407" y="-63.5" font-family="FreeSans.ttf" font-size="10.00" fill="#000000">iDynTree/Core/Utils.h</text>
</a>
</g>
</g>
<!-- Node10&#45;&gt;Node13 -->
<g id="edge33" class="edge">
<title>Node10&#45;&gt;Node13</title>
<path fill="none" stroke="#191970" d="M2631.9839,-347.3019C2639.4944,-328.1145 2655,-283.8029 2655,-245 2655,-245 2655,-245 2655,-183.5 2655,-136.799 2618.8584,-134.6181 2578,-112 2546.7998,-94.7284 2508.7646,-83.6644 2476.4948,-76.7286"/>
<polygon fill="#191970" stroke="#191970" points="2477.1797,-73.2962 2466.6791,-74.7063 2475.7671,-80.1522 2477.1797,-73.2962"/>
</g>
<!-- Node27 -->
<g id="node19" class="node">
<title>Node27</title>
<g id="a_node19"><a xlink:href="Position_8h.html" target="_top" xlink:title="iDynTree/Core/Position.h">
<polygon fill="none" stroke="#ff0000" points="2114,-291.5 2114,-310.5 2250,-310.5 2250,-291.5 2114,-291.5"/>
<text text-anchor="middle" x="2182" y="-298.5" font-family="FreeSans.ttf" font-size="10.00" fill="#000000">iDynTree/Core/Position.h</text>
</a>
</g>
</g>
<!-- Node10&#45;&gt;Node27 -->
<g id="edge26" class="edge">
<title>Node10&#45;&gt;Node27</title>
<path fill="none" stroke="#191970" d="M2568.7746,-349.5636C2489.3745,-339.5941 2348.2387,-321.873 2260.1838,-310.8168"/>
<polygon fill="#191970" stroke="#191970" points="2260.6042,-307.3422 2250.2461,-309.569 2259.7321,-314.2877 2260.6042,-307.3422"/>
</g>
<!-- Node11&#45;&gt;Node4 -->
<g id="edge15" class="edge">
<title>Node11&#45;&gt;Node4</title>
<path fill="none" stroke="#191970" d="M2505.0011,-173.8188C2482.2708,-157.5205 2433.2137,-125.1013 2386,-112 2288.767,-85.0189 1559.4046,-69.7151 1395.594,-66.5972"/>
<polygon fill="#191970" stroke="#191970" points="1395.2768,-63.0907 1385.2126,-66.4016 1395.1448,-70.0895 1395.2768,-63.0907"/>
</g>
<!-- Node12 -->
<g id="node13" class="node">
<title>Node12</title>
<g id="a_node13"><a xlink:href="VectorFixSize_8h.html" target="_top" xlink:title="iDynTree/Core/VectorFixSize.h">
<polygon fill="none" stroke="#ff0000" points="2215.5,-112.5 2215.5,-131.5 2376.5,-131.5 2376.5,-112.5 2215.5,-112.5"/>
<text text-anchor="middle" x="2296" y="-119.5" font-family="FreeSans.ttf" font-size="10.00" fill="#000000">iDynTree/Core/VectorFixSize.h</text>
</a>
</g>
</g>
<!-- Node11&#45;&gt;Node12 -->
<g id="edge16" class="edge">
<title>Node11&#45;&gt;Node12</title>
<path fill="none" stroke="#191970" d="M2483.3125,-173.8906C2444.7016,-163.1944 2382.214,-145.8836 2340.1452,-134.2294"/>
<polygon fill="#191970" stroke="#191970" points="2341.0154,-130.8387 2330.4439,-131.5419 2339.1465,-137.5847 2341.0154,-130.8387"/>
</g>
<!-- Node11&#45;&gt;Node13 -->
<g id="edge25" class="edge">
<title>Node11&#45;&gt;Node13</title>
<path fill="none" stroke="#191970" d="M2508.9164,-173.8845C2490.1345,-154.0028 2446.8094,-108.1406 2423.1454,-83.0908"/>
<polygon fill="#191970" stroke="#191970" points="2425.6205,-80.6142 2416.2091,-75.7484 2420.532,-85.4212 2425.6205,-80.6142"/>
</g>
<!-- Node12&#45;&gt;Node4 -->
<g id="edge23" class="edge">
<title>Node12&#45;&gt;Node4</title>
<path fill="none" stroke="#191970" d="M2215.4325,-113.2375C2210.5513,-112.7941 2205.7114,-112.377 2201,-112 1887.5508,-86.9155 1507.0363,-71.433 1395.2951,-67.1903"/>
<polygon fill="#191970" stroke="#191970" points="1395.1635,-63.683 1385.0388,-66.8039 1394.8999,-70.678 1395.1635,-63.683"/>
</g>
<!-- Node12&#45;&gt;Node13 -->
<g id="edge17" class="edge">
<title>Node12&#45;&gt;Node13</title>
<path fill="none" stroke="#191970" d="M2315.0816,-112.3733C2332.7402,-103.4644 2359.2053,-90.1127 2379.2098,-80.0203"/>
<polygon fill="#191970" stroke="#191970" points="2380.8158,-83.1303 2388.1674,-75.5011 2377.6628,-76.8806 2380.8158,-83.1303"/>
</g>
<!-- Node14 -->
<g id="node15" class="node">
<title>Node14</title>
<polygon fill="none" stroke="#bfbfbf" points="2092.5,-.5 2092.5,-19.5 2145.5,-19.5 2145.5,-.5 2092.5,-.5"/>
<text text-anchor="middle" x="2119" y="-7.5" font-family="FreeSans.ttf" font-size="10.00" fill="#000000">cstddef</text>
</g>
<!-- Node12&#45;&gt;Node14 -->
<g id="edge24" class="edge">
<title>Node12&#45;&gt;Node14</title>
<path fill="none" stroke="#191970" d="M2280.9091,-112.4509C2250.0813,-92.9441 2179.675,-48.3932 2142.6909,-24.9909"/>
<polygon fill="#191970" stroke="#191970" points="2144.3746,-21.9144 2134.0527,-19.5249 2140.6316,-27.8297 2144.3746,-21.9144"/>
</g>
<!-- Node16 -->
<g id="node16" class="node">
<title>Node16</title>
<g id="a_node16"><a xlink:href="Span_8h.html" target="_top" xlink:title="iDynTree/Core/Span.h">
<polygon fill="none" stroke="#ff0000" points="1935.5,-56.5 1935.5,-75.5 2056.5,-75.5 2056.5,-56.5 1935.5,-56.5"/>
<text text-anchor="middle" x="1996" y="-63.5" font-family="FreeSans.ttf" font-size="10.00" fill="#000000">iDynTree/Core/Span.h</text>
</a>
</g>
</g>
<!-- Node12&#45;&gt;Node16 -->
<g id="edge19" class="edge">
<title>Node12&#45;&gt;Node16</title>
<path fill="none" stroke="#191970" d="M2244.769,-112.4369C2192.7792,-102.7321 2112.2927,-87.708 2057.0319,-77.3926"/>
<polygon fill="#191970" stroke="#191970" points="2057.4921,-73.9182 2047.0197,-75.5237 2056.2076,-80.7993 2057.4921,-73.9182"/>
</g>
<!-- Node13&#45;&gt;Node14 -->
<g id="edge18" class="edge">
<title>Node13&#45;&gt;Node14</title>
<path fill="none" stroke="#191970" d="M2357.8183,-56.4369C2300.403,-45.2728 2206.785,-27.0693 2155.4771,-17.0928"/>
<polygon fill="#191970" stroke="#191970" points="2155.9851,-13.6261 2145.5008,-15.1529 2154.6489,-20.4974 2155.9851,-13.6261"/>
</g>
<!-- Node16&#45;&gt;Node14 -->
<g id="edge21" class="edge">
<title>Node16&#45;&gt;Node14</title>
<path fill="none" stroke="#191970" d="M2017.1445,-56.3733C2036.8892,-47.3838 2066.5698,-33.8706 2088.8055,-23.7471"/>
<polygon fill="#191970" stroke="#191970" points="2090.4806,-26.8302 2098.1315,-19.5011 2087.58,-20.4594 2090.4806,-26.8302"/>
</g>
<!-- Node16&#45;&gt;Node18 -->
<g id="edge20" class="edge">
<title>Node16&#45;&gt;Node18</title>
<path fill="none" stroke="#191970" d="M2056.6968,-59.82C2169.0985,-48.3754 2406.9963,-24.1531 2503.746,-14.3022"/>
<polygon fill="#191970" stroke="#191970" points="2504.1528,-17.779 2513.7468,-13.284 2503.4437,-10.815 2504.1528,-17.779"/>
</g>
<!-- Node20 -->
<g id="node18" class="node">
<title>Node20</title>
<polygon fill="none" stroke="#bfbfbf" points="998.5,-.5 998.5,-19.5 1051.5,-19.5 1051.5,-.5 998.5,-.5"/>
<text text-anchor="middle" x="1025" y="-7.5" font-family="FreeSans.ttf" font-size="10.00" fill="#000000">iterator</text>
</g>
<!-- Node16&#45;&gt;Node20 -->
<g id="edge22" class="edge">
<title>Node16&#45;&gt;Node20</title>
<path fill="none" stroke="#191970" d="M1935.2596,-62.4969C1752.1769,-51.9381 1209.2563,-20.6265 1062.1303,-12.1414"/>
<polygon fill="#191970" stroke="#191970" points="1062.0252,-8.6296 1051.8402,-11.5479 1061.6221,-15.618 1062.0252,-8.6296"/>
</g>
<!-- Node27&#45;&gt;Node4 -->
<g id="edge32" class="edge">
<title>Node27&#45;&gt;Node4</title>
<path fill="none" stroke="#191970" d="M2164.5148,-291.3316C2148.669,-282.3886 2124.833,-268.4805 2105,-255 2018.761,-196.3833 2016.2556,-149.609 1919,-112 1822.37,-74.6329 1498.9688,-67.5951 1395.2836,-66.2911"/>
<polygon fill="#191970" stroke="#191970" points="1395.1609,-62.7896 1385.1209,-66.1731 1395.0796,-69.7891 1395.1609,-62.7896"/>
</g>
<!-- Node29 -->
<g id="node20" class="node">
<title>Node29</title>
<g id="a_node20"><a xlink:href="Rotation_8h.html" target="_top" xlink:title="iDynTree/Core/Rotation.h">
<polygon fill="none" stroke="#ff0000" points="2113.5,-235.5 2113.5,-254.5 2250.5,-254.5 2250.5,-235.5 2113.5,-235.5"/>
<text text-anchor="middle" x="2182" y="-242.5" font-family="FreeSans.ttf" font-size="10.00" fill="#000000">iDynTree/Core/Rotation.h</text>
</a>
</g>
</g>
<!-- Node27&#45;&gt;Node29 -->
<g id="edge27" class="edge">
<title>Node27&#45;&gt;Node29</title>
<path fill="none" stroke="#191970" d="M2182,-291.2455C2182,-283.9382 2182,-273.6944 2182,-264.7046"/>
<polygon fill="#191970" stroke="#191970" points="2185.5001,-264.6426 2182,-254.6427 2178.5001,-264.6427 2185.5001,-264.6426"/>
</g>
<!-- Node29&#45;&gt;Node4 -->
<g id="edge28" class="edge">
<title>Node29&#45;&gt;Node4</title>
<path fill="none" stroke="#191970" d="M2174.3487,-235.3079C2153.4087,-209.6182 2092.0958,-139.8454 2023,-112 1964.4474,-88.4034 1519.7308,-71.4109 1395.2752,-67.0815"/>
<polygon fill="#191970" stroke="#191970" points="1395.3414,-63.5818 1385.2268,-66.7354 1395.1004,-70.5777 1395.3414,-63.5818"/>
</g>
<!-- Node29&#45;&gt;Node12 -->
<g id="edge31" class="edge">
<title>Node29&#45;&gt;Node12</title>
<path fill="none" stroke="#191970" d="M2178.6896,-235.4957C2173.9039,-219.9086 2167.059,-188.5913 2181,-168 2191.7311,-152.1497 2208.9038,-141.7606 2226.7409,-134.9511"/>
<polygon fill="#191970" stroke="#191970" points="2228.3686,-138.0922 2236.682,-131.5243 2226.0873,-131.4743 2228.3686,-138.0922"/>
</g>
<!-- Node30 -->
<g id="node21" class="node">
<title>Node30</title>
<g id="a_node21"><a xlink:href="GeomVector3_8h.html" target="_top" xlink:title="iDynTree/Core/GeomVector3.h">
<polygon fill="none" stroke="#000000" points="2189.5,-174 2189.5,-193 2352.5,-193 2352.5,-174 2189.5,-174"/>
<text text-anchor="middle" x="2271" y="-181" font-family="FreeSans.ttf" font-size="10.00" fill="#000000">iDynTree/Core/GeomVector3.h</text>
</a>
</g>
</g>
<!-- Node29&#45;&gt;Node30 -->
<g id="edge29" class="edge">
<title>Node29&#45;&gt;Node30</title>
<path fill="none" stroke="#191970" d="M2195.9063,-235.3906C2210.0138,-225.6421 2232.0724,-210.3994 2248.6385,-198.9521"/>
<polygon fill="#191970" stroke="#191970" points="2250.9542,-201.6063 2257.1914,-193.0419 2246.9747,-195.8474 2250.9542,-201.6063"/>
</g>
<!-- Node30&#45;&gt;Node12 -->
<g id="edge30" class="edge">
<title>Node30&#45;&gt;Node12</title>
<path fill="none" stroke="#191970" d="M2274.9063,-173.8906C2278.4446,-165.1862 2283.7636,-152.1015 2288.175,-141.2494"/>
<polygon fill="#191970" stroke="#191970" points="2291.5152,-142.3268 2292.0387,-131.7449 2285.0305,-139.6907 2291.5152,-142.3268"/>
</g>
<!-- Node35&#45;&gt;Node4 -->
<g id="edge40" class="edge">
<title>Node35&#45;&gt;Node4</title>
<path fill="none" stroke="#191970" d="M1664.6682,-348.9481C1560.4539,-335.4331 1382,-303.7178 1382,-245 1382,-245 1382,-245 1382,-183.5 1382,-148.6936 1373.7747,-108.8226 1368.1479,-85.6197"/>
<polygon fill="#191970" stroke="#191970" points="1371.477,-84.5065 1365.6419,-75.6633 1364.6887,-86.2152 1371.477,-84.5065"/>
</g>
<!-- Node35&#45;&gt;Node27 -->
<g id="edge35" class="edge">
<title>Node35&#45;&gt;Node27</title>
<path fill="none" stroke="#191970" d="M1811.3176,-347.7527C1891.9449,-337.5835 2020.997,-321.3067 2103.5954,-310.8889"/>
<polygon fill="#191970" stroke="#191970" points="2104.198,-314.3407 2113.6814,-309.6168 2103.322,-307.3957 2104.198,-314.3407"/>
</g>
<!-- Node35&#45;&gt;Node29 -->
<g id="edge36" class="edge">
<title>Node35&#45;&gt;Node29</title>
<path fill="none" stroke="#191970" d="M1758.6034,-347.4833C1790.2804,-333.2132 1853.1459,-306.3162 1909,-291 1973.3643,-273.3501 2048.2241,-261.3136 2103.2571,-253.9936"/>
<polygon fill="#191970" stroke="#191970" points="2103.8333,-257.4482 2113.2952,-252.6815 2102.9259,-250.5072 2103.8333,-257.4482"/>
</g>
<!-- Node32 -->
<g id="node23" class="node">
<title>Node32</title>
<g id="a_node23"><a xlink:href="MatrixFixSize_8h.html" target="_top" xlink:title="iDynTree/Core/MatrixFixSize.h">
<polygon fill="none" stroke="#ff0000" points="1729.5,-112.5 1729.5,-131.5 1890.5,-131.5 1890.5,-112.5 1729.5,-112.5"/>
<text text-anchor="middle" x="1810" y="-119.5" font-family="FreeSans.ttf" font-size="10.00" fill="#000000">iDynTree/Core/MatrixFixSize.h</text>
</a>
</g>
</g>
<!-- Node35&#45;&gt;Node32 -->
<g id="edge37" class="edge">
<title>Node35&#45;&gt;Node32</title>
<path fill="none" stroke="#191970" d="M1740.9117,-347.4967C1751.6754,-312.3651 1789.3522,-189.3922 1804.0574,-141.3958"/>
<polygon fill="#191970" stroke="#191970" points="1807.4691,-142.2082 1807.0521,-131.6216 1800.7762,-140.1576 1807.4691,-142.2082"/>
</g>
<!-- Node32&#45;&gt;Node4 -->
<g id="edge39" class="edge">
<title>Node32&#45;&gt;Node4</title>
<path fill="none" stroke="#191970" d="M1733.9194,-112.4686C1634.8325,-100.0551 1465.9647,-78.8994 1395.443,-70.0644"/>
<polygon fill="#191970" stroke="#191970" points="1395.7401,-66.5744 1385.3826,-68.8041 1394.8699,-73.5201 1395.7401,-66.5744"/>
</g>
<!-- Node32&#45;&gt;Node13 -->
<g id="edge38" class="edge">
<title>Node32&#45;&gt;Node13</title>
<path fill="none" stroke="#191970" d="M1890.5141,-114.4476C2008.2592,-103.4028 2225.5021,-83.0249 2336.9827,-72.5678"/>
<polygon fill="#191970" stroke="#191970" points="2337.4786,-76.0367 2347.108,-71.618 2336.8248,-69.0673 2337.4786,-76.0367"/>
</g>
<!-- Node36&#45;&gt;Node3 -->
<g id="edge47" class="edge">
<title>Node36&#45;&gt;Node3</title>
<path fill="none" stroke="#191970" d="M221.8481,-475.8728C235.0742,-458.1088 266.0234,-420.4051 302,-403 326.948,-390.9304 503.4312,-370.213 583.5749,-361.292"/>
<polygon fill="#191970" stroke="#191970" points="584.2108,-364.743 593.7647,-360.1635 583.4402,-357.7856 584.2108,-364.743"/>
</g>
<!-- Node36&#45;&gt;Node4 -->
<g id="edge48" class="edge">
<title>Node36&#45;&gt;Node4</title>
<path fill="none" stroke="#191970" d="M215.0587,-475.7569C215.4489,-459.9647 217.4733,-428.0242 227,-403 289.3431,-239.2412 323.6664,-157.0526 493,-112 575.0836,-90.1609 1182.9556,-71.2308 1330.7054,-66.9192"/>
<polygon fill="#191970" stroke="#191970" points="1331.0235,-70.4115 1340.9178,-66.6231 1330.8206,-63.4145 1331.0235,-70.4115"/>
</g>
<!-- Node36&#45;&gt;Node6 -->
<g id="edge45" class="edge">
<title>Node36&#45;&gt;Node6</title>
<path fill="none" stroke="#191970" d="M238.2107,-475.9005C265.9994,-464.4077 312.7228,-445.0838 344.1938,-432.068"/>
<polygon fill="#191970" stroke="#191970" points="345.9292,-435.1379 353.8324,-428.0817 343.2539,-428.6693 345.9292,-435.1379"/>
</g>
<!-- Node36&#45;&gt;Node12 -->
<g id="edge46" class="edge">
<title>Node36&#45;&gt;Node12</title>
<path fill="none" stroke="#191970" d="M217.1095,-475.9978C223.4143,-450.0914 244.7508,-378.0928 293,-347 611.1954,-141.9484 1616.7083,-261.8315 1990,-199 2086.3171,-182.7882 2196.9005,-151.8084 2255.1585,-134.4952"/>
<polygon fill="#191970" stroke="#191970" points="2256.4939,-137.7491 2265.0718,-131.5306 2254.4883,-131.0425 2256.4939,-137.7491"/>
</g>
<!-- Node37&#45;&gt;Node3 -->
<g id="edge79" class="edge">
<title>Node37&#45;&gt;Node3</title>
<path fill="none" stroke="#191970" d="M813.9706,-598.7858C799.5353,-575.744 761.4715,-516.2487 725,-470 696.8486,-434.3017 660.4738,-395.5556 639.6388,-373.977"/>
<polygon fill="#191970" stroke="#191970" points="641.9418,-371.3246 632.464,-366.5894 636.9203,-376.2015 641.9418,-371.3246"/>
</g>
<!-- Node37&#45;&gt;Node4 -->
<g id="edge80" class="edge">
<title>Node37&#45;&gt;Node4</title>
<path fill="none" stroke="#191970" d="M770.1787,-605.6832C684.352,-600.2361 503.3465,-586.1363 353,-557 257.8358,-538.5577 127.8633,-563.6189 153,-470 205.2394,-275.4406 237.1574,-166.8396 431,-112 518.9133,-87.1286 1175.5915,-70.3711 1330.3838,-66.7404"/>
<polygon fill="#191970" stroke="#191970" points="1330.7309,-70.2334 1340.6468,-66.5017 1330.5681,-63.2353 1330.7309,-70.2334"/>
</g>
<!-- Node37&#45;&gt;Node6 -->
<g id="edge50" class="edge">
<title>Node37&#45;&gt;Node6</title>
<path fill="none" stroke="#191970" d="M770.1503,-599.0654C729.8523,-590.5761 672.1154,-576.4412 624,-557 536.7304,-521.7385 441.8459,-461.756 399.5457,-433.7498"/>
<polygon fill="#191970" stroke="#191970" points="401.3693,-430.7591 391.1075,-428.1238 397.4861,-436.5833 401.3693,-430.7591"/>
</g>
<!-- Node37&#45;&gt;Node8 -->
<g id="edge81" class="edge">
<title>Node37&#45;&gt;Node8</title>
<path fill="none" stroke="#191970" d="M798.1981,-598.9344C760.2181,-581.8232 680.1369,-543.7406 619,-501 582.3672,-475.3901 576.0702,-465.1341 544,-434 523.5158,-414.1137 501.0784,-390.0841 486.5605,-374.2167"/>
<polygon fill="#191970" stroke="#191970" points="489.063,-371.7665 479.7428,-366.7282 483.8869,-376.479 489.063,-371.7665"/>
</g>
<!-- Node37&#45;&gt;Node9 -->
<g id="edge82" class="edge">
<title>Node37&#45;&gt;Node9</title>
<path fill="none" stroke="#191970" d="M830.0669,-598.7787C866.792,-563.33 993.5721,-441.0964 1035,-403 1045.8129,-393.0566 1058.116,-382.1551 1068.0396,-373.4613"/>
<polygon fill="#191970" stroke="#191970" points="1070.4991,-375.9603 1075.7309,-366.7473 1065.8957,-370.6869 1070.4991,-375.9603"/>
</g>
<!-- Node37&#45;&gt;Node35 -->
<g id="edge51" class="edge">
<title>Node37&#45;&gt;Node35</title>
<path fill="none" stroke="#191970" d="M861.3381,-598.9967C923.1439,-584.8873 1043.3605,-557.8263 1146,-537 1176.5729,-530.7965 1672.9421,-452.582 1698,-434 1717.028,-419.8895 1727.7725,-394.0599 1733.2303,-376.233"/>
<polygon fill="#191970" stroke="#191970" points="1736.6082,-377.1491 1735.914,-366.5771 1729.8639,-375.2746 1736.6082,-377.1491"/>
</g>
<!-- Node37&#45;&gt;Node38 -->
<g id="edge52" class="edge">
<title>Node37&#45;&gt;Node38</title>
<path fill="none" stroke="#191970" d="M869.8642,-601.0204C941.362,-590.2957 1073.4909,-570.4764 1156.2898,-558.0565"/>
<polygon fill="#191970" stroke="#191970" points="1157.0146,-561.4871 1166.3847,-556.5423 1155.9761,-554.5645 1157.0146,-561.4871"/>
</g>
<!-- Node38&#45;&gt;Node4 -->
<g id="edge54" class="edge">
<title>Node38&#45;&gt;Node4</title>
<path fill="none" stroke="#191970" d="M1237.3495,-537.417C1251.1411,-518.7586 1280.4592,-475.7163 1291,-434 1294.3753,-420.6421 1291.995,-416.7418 1291,-403 1285.8755,-332.2229 1268,-315.9623 1268,-245 1268,-245 1268,-245 1268,-183.5 1268,-138.762 1310.161,-101.4849 1338.3091,-81.5828"/>
<polygon fill="#191970" stroke="#191970" points="1340.5884,-84.2652 1346.8845,-75.7441 1336.6488,-78.479 1340.5884,-84.2652"/>
</g>
<!-- Node38&#45;&gt;Node9 -->
<g id="edge55" class="edge">
<title>Node38&#45;&gt;Node9</title>
<path fill="none" stroke="#191970" d="M1220.6114,-537.4516C1211.8406,-528.3644 1198.5528,-514.162 1188,-501 1153.3136,-457.7374 1117.017,-403.3957 1098.8472,-375.4603"/>
<polygon fill="#191970" stroke="#191970" points="1101.5782,-373.2381 1093.2086,-366.7419 1095.7004,-377.0395 1101.5782,-373.2381"/>
</g>
<!-- Node38&#45;&gt;Node20 -->
<g id="edge56" class="edge">
<title>Node38&#45;&gt;Node20</title>
<path fill="none" stroke="#191970" d="M1227.7039,-537.1604C1219.5016,-504.3316 1188.4158,-397.7756 1120,-347 753.904,-75.2972 403.6047,-486.551 117,-132 111.412,-125.0872 111.0758,-118.6269 117,-112 176.1021,-45.8869 824.7363,-17.4479 987.9147,-11.3101"/>
<polygon fill="#191970" stroke="#191970" points="988.5174,-14.7903 998.3808,-10.9222 988.258,-7.7951 988.5174,-14.7903"/>
</g>
<!-- Node38&#45;&gt;Node30 -->
<g id="edge53" class="edge">
<title>Node38&#45;&gt;Node30</title>
<path fill="none" stroke="#191970" d="M1288.0511,-537.4473C1332.1765,-529.1753 1388.2231,-516.1713 1406,-501 1442.1795,-470.1234 1416.8179,-438.0234 1449,-403 1529.1793,-315.7419 1795.6848,-255.9811 1886,-235 1914.317,-228.4217 2079.1667,-207.3391 2183.7687,-194.2766"/>
<polygon fill="#191970" stroke="#191970" points="2184.2069,-197.7492 2193.6968,-193.0383 2183.3405,-190.803 2184.2069,-197.7492"/>
</g>
<!-- Node39 -->
<g id="node27" class="node">
<title>Node39</title>
<g id="a_node27"><a xlink:href="VectorDynSize_8h.html" target="_top" xlink:title="iDynTree/Core/VectorDynSize.h">
<polygon fill="none" stroke="#000000" points="1544.5,-112.5 1544.5,-131.5 1711.5,-131.5 1711.5,-112.5 1544.5,-112.5"/>
<text text-anchor="middle" x="1628" y="-119.5" font-family="FreeSans.ttf" font-size="10.00" fill="#000000">iDynTree/Core/VectorDynSize.h</text>
</a>
</g>
</g>
<!-- Node38&#45;&gt;Node39 -->
<g id="edge57" class="edge">
<title>Node38&#45;&gt;Node39</title>
<path fill="none" stroke="#191970" d="M1260.05,-537.4301C1281.0556,-529.7718 1308.9934,-517.5677 1330,-501 1401.8707,-444.3161 1568.4493,-207.8521 1615.4498,-140.1713"/>
<polygon fill="#191970" stroke="#191970" points="1618.4472,-141.9908 1621.2659,-131.7777 1612.6935,-138.0039 1618.4472,-141.9908"/>
</g>
<!-- Node38&#45;&gt;Node40 -->
<g id="edge60" class="edge">
<title>Node38&#45;&gt;Node40</title>
<path fill="none" stroke="#191970" d="M1292.3714,-537.4581C1364.6594,-526.3991 1483.5891,-508.2047 1559.8125,-496.5436"/>
<polygon fill="#191970" stroke="#191970" points="1560.4573,-499.9858 1569.813,-495.0137 1559.3987,-493.0663 1560.4573,-499.9858"/>
</g>
<!-- Node42 -->
<g id="node30" class="node">
<title>Node42</title>
<g id="a_node30"><a xlink:href="Indices_8h.html" target="_top" xlink:title="iDynTree/Model/Indices.h">
<polygon fill="none" stroke="#000000" points="1918,-291.5 1918,-310.5 2056,-310.5 2056,-291.5 1918,-291.5"/>
<text text-anchor="middle" x="1987" y="-298.5" font-family="FreeSans.ttf" font-size="10.00" fill="#000000">iDynTree/Model/Indices.h</text>
</a>
</g>
</g>
<!-- Node38&#45;&gt;Node42 -->
<g id="edge78" class="edge">
<title>Node38&#45;&gt;Node42</title>
<path fill="none" stroke="#191970" d="M1305.7185,-542.6364C1504.0585,-530.4218 2026.8727,-492.8793 2076,-434 2084.8268,-423.421 2082.8318,-414.9647 2076,-403 2060.3903,-375.6623 2035.7443,-390.6788 2015,-367 2003.2353,-353.571 1995.8639,-334.4707 1991.656,-320.2702"/>
<polygon fill="#191970" stroke="#191970" points="1995.0158,-319.2862 1989.0345,-310.5412 1988.2569,-321.1074 1995.0158,-319.2862"/>
</g>
<!-- Node39&#45;&gt;Node4 -->
<g id="edge59" class="edge">
<title>Node39&#45;&gt;Node4</title>
<path fill="none" stroke="#191970" d="M1582.746,-112.4369C1529.4222,-101.1685 1442.1614,-82.7284 1395.2506,-72.8152"/>
<polygon fill="#191970" stroke="#191970" points="1395.8391,-69.3624 1385.3315,-70.7191 1394.3918,-76.2111 1395.8391,-69.3624"/>
</g>
<!-- Node39&#45;&gt;Node16 -->
<g id="edge58" class="edge">
<title>Node39&#45;&gt;Node16</title>
<path fill="none" stroke="#191970" d="M1690.8433,-112.4369C1755.8649,-102.5423 1857.2231,-87.1182 1925.0756,-76.7928"/>
<polygon fill="#191970" stroke="#191970" points="1925.8912,-80.2091 1935.2508,-75.2444 1924.8381,-73.2888 1925.8912,-80.2091"/>
</g>
<!-- Node40&#45;&gt;Node9 -->
<g id="edge77" class="edge">
<title>Node40&#45;&gt;Node9</title>
<path fill="none" stroke="#191970" d="M1591.4817,-475.9466C1488.0491,-451.5593 1215.7078,-387.3467 1120.4635,-364.89"/>
<polygon fill="#191970" stroke="#191970" points="1121.0533,-361.4332 1110.517,-362.5448 1119.4469,-368.2464 1121.0533,-361.4332"/>
</g>
<!-- Node40&#45;&gt;Node35 -->
<g id="edge68" class="edge">
<title>Node40&#45;&gt;Node35</title>
<path fill="none" stroke="#191970" d="M1675.2223,-475.9471C1713.4382,-466.5211 1764.9434,-451.0766 1777,-434 1790.6664,-414.6433 1772.5706,-389.8216 1756.736,-373.6712"/>
<polygon fill="#191970" stroke="#191970" points="1758.9235,-370.9186 1749.2934,-366.5013 1754.0669,-375.9598 1758.9235,-370.9186"/>
</g>
<!-- Node41 -->
<g id="node29" class="node">
<title>Node41</title>
<g id="a_node29"><a xlink:href="IJoint_8h.html" target="_top" xlink:title="iDynTree/Model/IJoint.h">
<polygon fill="none" stroke="#000000" points="2091,-347.5 2091,-366.5 2219,-366.5 2219,-347.5 2091,-347.5"/>
<text text-anchor="middle" x="2155" y="-354.5" font-family="FreeSans.ttf" font-size="10.00" fill="#000000">iDynTree/Model/IJoint.h</text>
</a>
</g>
</g>
<!-- Node40&#45;&gt;Node41 -->
<g id="edge61" class="edge">
<title>Node40&#45;&gt;Node41</title>
<path fill="none" stroke="#191970" d="M1698.8186,-483.008C1805.9757,-478.1407 2010.8301,-465.0019 2076,-434 2104.2398,-420.5661 2128.594,-392.9445 2142.5309,-374.6986"/>
<polygon fill="#191970" stroke="#191970" points="2145.3869,-376.7228 2148.5073,-366.5979 2139.754,-372.5671 2145.3869,-376.7228"/>
</g>
<!-- Node40&#45;&gt;Node42 -->
<g id="edge69" class="edge">
<title>Node40&#45;&gt;Node42</title>
<path fill="none" stroke="#191970" d="M1672.9582,-475.9332C1706.2756,-467.3268 1753.9913,-453.0981 1793,-434 1861.6814,-400.3746 1933.6907,-344.7751 1967.4077,-317.3429"/>
<polygon fill="#191970" stroke="#191970" points="1969.9917,-319.7499 1975.4996,-310.6993 1965.5498,-314.3397 1969.9917,-319.7499"/>
</g>
<!-- Node44 -->
<g id="node32" class="node">
<title>Node44</title>
<g id="a_node32"><a xlink:href="Link_8h.html" target="_top" xlink:title="iDynTree/Model/Link.h">
<polygon fill="none" stroke="#ff0000" points="1943,-409 1943,-428 2067,-428 2067,-409 1943,-409"/>
<text text-anchor="middle" x="2005" y="-416" font-family="FreeSans.ttf" font-size="10.00" fill="#000000">iDynTree/Model/Link.h</text>
</a>
</g>
</g>
<!-- Node40&#45;&gt;Node44 -->
<g id="edge66" class="edge">
<title>Node40&#45;&gt;Node44</title>
<path fill="none" stroke="#191970" d="M1685.0457,-475.9717C1752.7592,-463.8087 1869.7616,-442.7921 1941.9559,-429.8243"/>
<polygon fill="#191970" stroke="#191970" points="1942.612,-433.2625 1951.8357,-428.0496 1941.3744,-426.3728 1942.612,-433.2625"/>
</g>
<!-- Node55 -->
<g id="node33" class="node">
<title>Node55</title>
<g id="a_node33"><a xlink:href="SolidShapes_8h.html" target="_top" xlink:title="iDynTree/Model/SolidShapes.h">
<polygon fill="none" stroke="#000000" points="1457.5,-409 1457.5,-428 1620.5,-428 1620.5,-409 1457.5,-409"/>
<text text-anchor="middle" x="1539" y="-416" font-family="FreeSans.ttf" font-size="10.00" fill="#000000">iDynTree/Model/SolidShapes.h</text>
</a>
</g>
</g>
<!-- Node40&#45;&gt;Node55 -->
<g id="edge70" class="edge">
<title>Node40&#45;&gt;Node55</title>
<path fill="none" stroke="#191970" d="M1618.6754,-475.9005C1603.4822,-464.9549 1578.4297,-446.9064 1560.4716,-433.9688"/>
<polygon fill="#191970" stroke="#191970" points="1562.4595,-431.0872 1552.2999,-428.0817 1558.3677,-436.7668 1562.4595,-431.0872"/>
</g>
<!-- Node56 -->
<g id="node34" class="node">
<title>Node56</title>
<polygon fill="none" stroke="#bfbfbf" points="1582.5,-347.5 1582.5,-366.5 1631.5,-366.5 1631.5,-347.5 1582.5,-347.5"/>
<text text-anchor="middle" x="1607" y="-354.5" font-family="FreeSans.ttf" font-size="10.00" fill="#000000">cstdlib</text>
</g>
<!-- Node40&#45;&gt;Node56 -->
<g id="edge76" class="edge">
<title>Node40&#45;&gt;Node56</title>
<path fill="none" stroke="#191970" d="M1633.1253,-475.6638C1634.6148,-460.0092 1636.3672,-428.5814 1630,-403 1627.613,-393.4096 1622.9903,-383.5129 1618.5116,-375.3677"/>
<polygon fill="#191970" stroke="#191970" points="1621.532,-373.5993 1613.4626,-366.7338 1615.4894,-377.133 1621.532,-373.5993"/>
</g>
<!-- Node41&#45;&gt;Node42 -->
<g id="edge62" class="edge">
<title>Node41&#45;&gt;Node42</title>
<path fill="none" stroke="#191970" d="M2126.1198,-347.3733C2098.1839,-338.0613 2055.6858,-323.8953 2025.0131,-313.671"/>
<polygon fill="#191970" stroke="#191970" points="2026.097,-310.3431 2015.5034,-310.5011 2023.8834,-316.9839 2026.097,-310.3431"/>
</g>
<!-- Node42&#45;&gt;Node4 -->
<g id="edge64" class="edge">
<title>Node42&#45;&gt;Node4</title>
<path fill="none" stroke="#191970" d="M1961.3007,-291.4307C1892.38,-265.7544 1697.7017,-193.1409 1536,-132 1486.6024,-113.3223 1429.3601,-91.4367 1394.6843,-78.1522"/>
<polygon fill="#191970" stroke="#191970" points="1395.6947,-74.7913 1385.1044,-74.481 1393.1898,-81.3277 1395.6947,-74.7913"/>
</g>
<!-- Node42&#45;&gt;Node14 -->
<g id="edge63" class="edge">
<title>Node42&#45;&gt;Node14</title>
<path fill="none" stroke="#191970" d="M2003.6244,-291.3842C2031.5842,-273.8234 2085,-233.7045 2085,-183.5 2085,-183.5 2085,-183.5 2085,-122 2085,-87.9677 2099.5515,-50.5293 2109.6151,-28.7067"/>
<polygon fill="#191970" stroke="#191970" points="2112.819,-30.1198 2113.9832,-19.5891 2106.5061,-27.0954 2112.819,-30.1198"/>
</g>
<!-- Node43 -->
<g id="node31" class="node">
<title>Node43</title>
<polygon fill="none" stroke="#bfbfbf" points="1895,-235.5 1895,-254.5 1981,-254.5 1981,-235.5 1895,-235.5"/>
<text text-anchor="middle" x="1938" y="-242.5" font-family="FreeSans.ttf" font-size="10.00" fill="#000000">ModelExport.h</text>
</g>
<!-- Node42&#45;&gt;Node43 -->
<g id="edge65" class="edge">
<title>Node42&#45;&gt;Node43</title>
<path fill="none" stroke="#191970" d="M1978.4649,-291.2455C1971.5088,-283.2958 1961.5117,-271.8706 1953.1949,-262.3656"/>
<polygon fill="#191970" stroke="#191970" points="1955.6564,-259.8637 1946.4373,-254.6427 1950.3884,-264.4732 1955.6564,-259.8637"/>
</g>
<!-- Node44&#45;&gt;Node42 -->
<g id="edge67" class="edge">
<title>Node44&#45;&gt;Node42</title>
<path fill="none" stroke="#191970" d="M1996.5286,-408.6682C1988.6838,-398.8622 1977.5641,-382.9932 1973,-367 1968.5868,-351.5354 1972.9342,-333.6748 1977.9147,-320.4363"/>
<polygon fill="#191970" stroke="#191970" points="1981.2553,-321.5201 1981.8895,-310.9443 1974.7985,-318.8163 1981.2553,-321.5201"/>
</g>
<!-- Node55&#45;&gt;Node4 -->
<g id="edge72" class="edge">
<title>Node55&#45;&gt;Node4</title>
<path fill="none" stroke="#191970" d="M1481.5483,-408.9967C1424.0281,-395.8123 1344,-365.8212 1344,-301 1344,-301 1344,-301 1344,-183.5 1344,-148.6936 1352.2253,-108.8226 1357.8521,-85.6197"/>
<polygon fill="#191970" stroke="#191970" points="1361.3113,-86.2152 1360.3581,-75.6633 1354.523,-84.5065 1361.3113,-86.2152"/>
</g>
<!-- Node55&#45;&gt;Node9 -->
<g id="edge73" class="edge">
<title>Node55&#45;&gt;Node9</title>
<path fill="none" stroke="#191970" d="M1468.8709,-408.9581C1370.3162,-395.5486 1194.6559,-371.6479 1120.9898,-361.6247"/>
<polygon fill="#191970" stroke="#191970" points="1121.263,-358.1297 1110.8824,-360.2495 1120.3192,-365.0658 1121.263,-358.1297"/>
</g>
<!-- Node55&#45;&gt;Node35 -->
<g id="edge74" class="edge">
<title>Node55&#45;&gt;Node35</title>
<path fill="none" stroke="#191970" d="M1570.0938,-408.8906C1604.4124,-398.2846 1659.7743,-381.1753 1697.4698,-369.5257"/>
<polygon fill="#191970" stroke="#191970" points="1698.6039,-372.8386 1707.1246,-366.5419 1696.537,-366.1507 1698.6039,-372.8386"/>
</g>
<!-- Node55&#45;&gt;Node42 -->
<g id="edge75" class="edge">
<title>Node55&#45;&gt;Node42</title>
<path fill="none" stroke="#191970" d="M1540.6511,-408.959C1543.9313,-393.1695 1552.8648,-361.8743 1574,-347 1600.6396,-328.2519 1795.2607,-313.0614 1907.5769,-305.7405"/>
<polygon fill="#191970" stroke="#191970" points="1908.0937,-309.2145 1917.8477,-305.078 1907.6431,-302.229 1908.0937,-309.2145"/>
</g>
<!-- Node55&#45;&gt;Node56 -->
<g id="edge71" class="edge">
<title>Node55&#45;&gt;Node56</title>
<path fill="none" stroke="#191970" d="M1549.625,-408.8906C1560.0431,-399.4683 1576.1364,-384.9134 1588.6304,-373.6137"/>
<polygon fill="#191970" stroke="#191970" points="1591.1562,-376.0484 1596.2252,-366.7449 1586.4608,-370.8568 1591.1562,-376.0484"/>
</g>
<!-- Node57&#45;&gt;Node3 -->
<g id="edge88" class="edge">
<title>Node57&#45;&gt;Node3</title>
<path fill="none" stroke="#191970" d="M420.8555,-537.3167C455.1817,-506.6971 561.6388,-411.7354 604.6725,-373.3485"/>
<polygon fill="#191970" stroke="#191970" points="607.0337,-375.9324 612.1663,-366.6638 602.374,-370.7087 607.0337,-375.9324"/>
</g>
<!-- Node57&#45;&gt;Node4 -->
<g id="edge89" class="edge">
<title>Node57&#45;&gt;Node4</title>
<path fill="none" stroke="#191970" d="M361.846,-542.8496C297.2534,-536.535 186.755,-522.8832 153,-501 88.0413,-458.8876 55,-434.415 55,-357 55,-357 55,-357 55,-301 55,-212.5958 46.3752,-165.1738 117,-112 166.8844,-74.4417 1139.338,-67.2171 1330.5321,-66.1579"/>
<polygon fill="#191970" stroke="#191970" points="1330.7901,-69.6567 1340.7712,-66.103 1330.7525,-62.6568 1330.7901,-69.6567"/>
</g>
<!-- Node57&#45;&gt;Node6 -->
<g id="edge84" class="edge">
<title>Node57&#45;&gt;Node6</title>
<path fill="none" stroke="#191970" d="M407.5196,-537.3416C402.1207,-516.3184 389.2138,-466.0598 382.0344,-438.1038"/>
<polygon fill="#191970" stroke="#191970" points="385.3866,-437.0856 379.5091,-428.2705 378.6066,-438.8268 385.3866,-437.0856"/>
</g>
<!-- Node57&#45;&gt;Node8 -->
<g id="edge90" class="edge">
<title>Node57&#45;&gt;Node8</title>
<path fill="none" stroke="#191970" d="M392.7865,-537.3492C353.5162,-514.1173 263.5761,-453.2804 302,-403 315.7461,-385.0123 370.6762,-372.3872 414.2308,-364.9719"/>
<polygon fill="#191970" stroke="#191970" points="414.8787,-368.4124 424.1769,-363.3338 413.7411,-361.5054 414.8787,-368.4124"/>
</g>
<!-- Node57&#45;&gt;Node9 -->
<g id="edge91" class="edge">
<title>Node57&#45;&gt;Node9</title>
<path fill="none" stroke="#191970" d="M458.007,-543.5241C534.1787,-537.4226 678.8332,-523.2773 725,-501 743.1234,-492.2547 740.5649,-480.0477 758,-470 806.2437,-442.1973 828.0581,-458.6222 878,-434 899.1312,-423.582 899.7599,-413.1942 921,-403 964.3693,-382.1848 1018.778,-369.3661 1053.2291,-362.7131"/>
<polygon fill="#191970" stroke="#191970" points="1054.0574,-366.119 1063.2458,-360.8442 1052.7735,-359.2377 1054.0574,-366.119"/>
</g>
<!-- Node57&#45;&gt;Node35 -->
<g id="edge86" class="edge">
<title>Node57&#45;&gt;Node35</title>
<path fill="none" stroke="#191970" d="M458.0158,-543.1424C684.6166,-524.8799 1637.2499,-447.4366 1665,-434 1691.9482,-420.9517 1714.1044,-393.4323 1726.6903,-375.0777"/>
<polygon fill="#191970" stroke="#191970" points="1729.6482,-376.9498 1732.2269,-366.6735 1723.8027,-373.0988 1729.6482,-376.9498"/>
</g>
<!-- Node57&#45;&gt;Node36 -->
<g id="edge85" class="edge">
<title>Node57&#45;&gt;Node36</title>
<path fill="none" stroke="#191970" d="M379.5313,-537.3906C346.0456,-526.8298 292.1147,-509.8208 255.188,-498.1747"/>
<polygon fill="#191970" stroke="#191970" points="255.8445,-494.7118 245.2548,-495.0419 253.739,-501.3877 255.8445,-494.7118"/>
</g>
<!-- Node57&#45;&gt;Node55 -->
<g id="edge87" class="edge">
<title>Node57&#45;&gt;Node55</title>
<path fill="none" stroke="#191970" d="M458.1176,-542.3574C525.5196,-535.4647 651.7186,-521.138 758,-501 814.2379,-490.3441 826.4992,-479.1598 883,-470 1082.6872,-437.627 1319.9981,-425.3986 1447.3381,-420.9356"/>
<polygon fill="#191970" stroke="#191970" points="1447.5644,-424.43 1457.4387,-420.5899 1447.3248,-417.4341 1447.5644,-424.43"/>
</g>
<!-- Node58&#45;&gt;Node3 -->
<g id="edge95" class="edge">
<title>Node58&#45;&gt;Node3</title>
<path fill="none" stroke="#191970" d="M1089.0431,-598.7225C1064.5433,-565.1101 978.3074,-453.5976 878,-403 840.886,-384.2788 724.4641,-368.6146 662.5824,-361.3502"/>
<polygon fill="#191970" stroke="#191970" points="662.752,-357.8466 652.4161,-360.1748 661.9479,-364.8003 662.752,-357.8466"/>
</g>
<!-- Node58&#45;&gt;Node4 -->
<g id="edge96" class="edge">
<title>Node58&#45;&gt;Node4</title>
<path fill="none" stroke="#191970" d="M1103.5513,-598.5891C1127.6269,-565.9706 1201,-458.2556 1201,-357 1201,-357 1201,-357 1201,-183.5 1201,-119.895 1283.8432,-87.1719 1331.0462,-73.6891"/>
<polygon fill="#191970" stroke="#191970" points="1332.0862,-77.0334 1340.8143,-71.0274 1330.2459,-70.2796 1332.0862,-77.0334"/>
</g>
<!-- Node58&#45;&gt;Node9 -->
<g id="edge97" class="edge">
<title>Node58&#45;&gt;Node9</title>
<path fill="none" stroke="#191970" d="M1095.6582,-598.948C1094.3328,-561.911 1089.5169,-427.3321 1087.7001,-376.5638"/>
<polygon fill="#191970" stroke="#191970" points="1091.1976,-376.4299 1087.3422,-366.5615 1084.2021,-376.6803 1091.1976,-376.4299"/>
</g>
<!-- Node58&#45;&gt;Node38 -->
<g id="edge94" class="edge">
<title>Node58&#45;&gt;Node38</title>
<path fill="none" stroke="#191970" d="M1116.9375,-598.8906C1139.2598,-588.6457 1174.8037,-572.3326 1200.0757,-560.7339"/>
<polygon fill="#191970" stroke="#191970" points="1201.581,-563.8942 1209.2095,-556.5419 1198.6611,-557.5322 1201.581,-563.8942"/>
</g>
<!-- Node58&#45;&gt;Node40 -->
<g id="edge93" class="edge">
<title>Node58&#45;&gt;Node40</title>
<path fill="none" stroke="#191970" d="M1137.613,-598.9507C1234.4744,-576.7232 1474.8004,-521.5738 1580.6037,-497.2943"/>
<polygon fill="#191970" stroke="#191970" points="1581.4497,-500.6912 1590.4135,-495.0432 1579.884,-493.8686 1581.4497,-500.6912"/>
</g>
<!-- Node59&#45;&gt;Node5 -->
<g id="edge105" class="edge">
<title>Node59&#45;&gt;Node5</title>
<path fill="none" stroke="#191970" d="M430.5587,-598.8484C476.6659,-577.2026 588.4827,-524.7085 642.2097,-499.4855"/>
<polygon fill="#191970" stroke="#191970" points="643.9721,-502.5247 651.5368,-495.1068 640.9973,-496.1882 643.9721,-502.5247"/>
</g>
<!-- Node59&#45;&gt;Node6 -->
<g id="edge104" class="edge">
<title>Node59&#45;&gt;Node6</title>
<path fill="none" stroke="#191970" d="M393.2249,-598.9042C379.5375,-590.015 361.1753,-575.4044 353,-557 335.1675,-516.8552 354.2783,-464.69 367.1962,-437.2563"/>
<polygon fill="#191970" stroke="#191970" points="370.463,-438.5455 371.7539,-428.0296 364.187,-435.4452 370.463,-438.5455"/>
</g>
<!-- Node59&#45;&gt;Node8 -->
<g id="edge108" class="edge">
<title>Node59&#45;&gt;Node8</title>
<path fill="none" stroke="#191970" d="M362.939,-602.7552C275.4311,-589.9783 101.0592,-553.4902 153,-470 181.2536,-424.5847 330.9567,-386.4722 414.5035,-368.3462"/>
<polygon fill="#191970" stroke="#191970" points="415.3071,-371.7535 424.3516,-366.2356 413.8402,-364.909 415.3071,-371.7535"/>
</g>
<!-- Node59&#45;&gt;Node9 -->
<g id="edge109" class="edge">
<title>Node59&#45;&gt;Node9</title>
<path fill="none" stroke="#191970" d="M444.7673,-598.9716C507.5691,-581.4792 643.8265,-542.2386 756,-501 827.2066,-474.8222 843.4213,-464.2401 913,-434 963.4008,-412.0949 1021.7757,-386.1429 1056.4769,-370.654"/>
<polygon fill="#191970" stroke="#191970" points="1057.9069,-373.8486 1065.6104,-366.5749 1055.0523,-367.4571 1057.9069,-373.8486"/>
</g>
<!-- Node59&#45;&gt;Node36 -->
<g id="edge106" class="edge">
<title>Node59&#45;&gt;Node36</title>
<path fill="none" stroke="#191970" d="M392.1696,-598.8355C373.8365,-588.7738 344.5752,-572.3659 320,-557 290.5478,-538.5848 257.5917,-515.7652 236.5912,-500.9311"/>
<polygon fill="#191970" stroke="#191970" points="238.5496,-498.0291 228.3681,-495.0987 234.4999,-503.7388 238.5496,-498.0291"/>
</g>
<!-- Node59&#45;&gt;Node57 -->
<g id="edge107" class="edge">
<title>Node59&#45;&gt;Node57</title>
<path fill="none" stroke="#191970" d="M410,-598.8906C410,-590.3657 410,-577.6392 410,-566.9235"/>
<polygon fill="#191970" stroke="#191970" points="413.5001,-566.7448 410,-556.7449 406.5001,-566.7449 413.5001,-566.7448"/>
</g>
<!-- Node60&#45;&gt;Node10 -->
<g id="edge120" class="edge">
<title>Node60&#45;&gt;Node10</title>
<path fill="none" stroke="#191970" d="M2645.5553,-470.4823C2663.5264,-462.6582 2681.5641,-451.0355 2692,-434 2699.1971,-422.2514 2698.2864,-415.26 2692,-403 2685.067,-389.4789 2672.1064,-379.0326 2659.6519,-371.5377"/>
<polygon fill="#191970" stroke="#191970" points="2661.2072,-368.3979 2650.766,-366.6001 2657.8072,-374.5168 2661.2072,-368.3979"/>
</g>
<!-- Node60&#45;&gt;Node35 -->
<g id="edge111" class="edge">
<title>Node60&#45;&gt;Node35</title>
<path fill="none" stroke="#191970" d="M2520.8669,-471.2428C2517.8762,-470.792 2514.9111,-470.3746 2512,-470 2384.359,-453.5757 2055.1788,-477.3322 1934,-434 1911.8159,-426.0672 1912.128,-413.4244 1891,-403 1860.1599,-387.7838 1823.3047,-376.5167 1793.4946,-368.9425"/>
<polygon fill="#191970" stroke="#191970" points="1794.2218,-365.517 1783.6741,-366.5151 1792.5421,-372.3125 1794.2218,-365.517"/>
</g>
<!-- Node60&#45;&gt;Node42 -->
<g id="edge121" class="edge">
<title>Node60&#45;&gt;Node42</title>
<path fill="none" stroke="#191970" d="M2520.9119,-471.5299C2453.7032,-458.0388 2359.995,-438.944 2343,-434 2305.589,-423.1168 2298.445,-413.7656 2261,-403 2183.0107,-380.5776 2156.6531,-398.8119 2082,-367 2052.9449,-354.6187 2023.7361,-332.542 2005.5276,-317.3545"/>
<polygon fill="#191970" stroke="#191970" points="2007.4008,-314.352 1997.5214,-310.5249 2002.8579,-319.6776 2007.4008,-314.352"/>
</g>
<!-- Node49 -->
<g id="node39" class="node">
<title>Node49</title>
<g id="a_node39"><a xlink:href="SpatialMotionVector_8h.html" target="_top" xlink:title="iDynTree/Core/SpatialMotion\lVector.h">
<polygon fill="none" stroke="#000000" points="2351.5,-403.5 2351.5,-433.5 2506.5,-433.5 2506.5,-403.5 2351.5,-403.5"/>
<text text-anchor="start" x="2359.5" y="-421.5" font-family="FreeSans.ttf" font-size="10.00" fill="#000000">iDynTree/Core/SpatialMotion</text>
<text text-anchor="middle" x="2429" y="-410.5" font-family="FreeSans.ttf" font-size="10.00" fill="#000000">Vector.h</text>
</a>
</g>
</g>
<!-- Node60&#45;&gt;Node49 -->
<g id="edge112" class="edge">
<title>Node60&#45;&gt;Node49</title>
<path fill="none" stroke="#191970" d="M2554.644,-470.4639C2531.069,-460.7137 2500.1565,-447.9289 2474.8932,-437.4805"/>
<polygon fill="#191970" stroke="#191970" points="2476.0931,-434.1893 2465.5145,-433.6017 2473.4177,-440.6579 2476.0931,-434.1893"/>
</g>
<!-- Node61 -->
<g id="node41" class="node">
<title>Node61</title>
<g id="a_node41"><a xlink:href="MovableJointImpl_8h.html" target="_top" xlink:title="iDynTree/Model/MovableJoint\lImpl.h">
<polygon fill="none" stroke="#000000" points="2525,-403.5 2525,-433.5 2683,-433.5 2683,-403.5 2525,-403.5"/>
<text text-anchor="start" x="2533" y="-421.5" font-family="FreeSans.ttf" font-size="10.00" fill="#000000">iDynTree/Model/MovableJoint</text>
<text text-anchor="middle" x="2604" y="-410.5" font-family="FreeSans.ttf" font-size="10.00" fill="#000000">Impl.h</text>
</a>
</g>
</g>
<!-- Node60&#45;&gt;Node61 -->
<g id="edge122" class="edge">
<title>Node60&#45;&gt;Node61</title>
<path fill="none" stroke="#191970" d="M2593.9499,-470.2967C2595.4791,-462.4156 2597.3864,-452.5857 2599.1272,-443.6135"/>
<polygon fill="#191970" stroke="#191970" points="2602.5928,-444.1268 2601.0618,-433.6432 2595.721,-442.7934 2602.5928,-444.1268"/>
</g>
<!-- Node49&#45;&gt;Node12 -->
<g id="edge113" class="edge">
<title>Node49&#45;&gt;Node12</title>
<path fill="none" stroke="#191970" d="M2461.4543,-403.3708C2475.727,-394.8631 2491.0331,-382.7522 2499,-367 2503.0118,-359.0679 2501.3388,-355.5757 2499,-347 2471.95,-247.8167 2367.9198,-168.9547 2320.1886,-137.1791"/>
<polygon fill="#191970" stroke="#191970" points="2321.9827,-134.1704 2311.6971,-131.6292 2318.153,-140.0299 2321.9827,-134.1704"/>
</g>
<!-- Node49&#45;&gt;Node30 -->
<g id="edge114" class="edge">
<title>Node49&#45;&gt;Node30</title>
<path fill="none" stroke="#191970" d="M2454.0682,-403.2579C2473.1632,-389.5539 2494.5266,-368.3506 2484,-347 2446.3137,-270.5629 2353.8314,-219.9173 2304.0323,-197.2068"/>
<polygon fill="#191970" stroke="#191970" points="2305.2295,-193.9086 2294.6705,-193.0377 2302.3818,-200.3032 2305.2295,-193.9086"/>
</g>
<!-- Node50 -->
<g id="node40" class="node">
<title>Node50</title>
<g id="a_node40"><a xlink:href="SpatialVector_8h.html" target="_top" xlink:title="iDynTree/Core/SpatialVector.h">
<polygon fill="none" stroke="#ff0000" points="2313.5,-347.5 2313.5,-366.5 2474.5,-366.5 2474.5,-347.5 2313.5,-347.5"/>
<text text-anchor="middle" x="2394" y="-354.5" font-family="FreeSans.ttf" font-size="10.00" fill="#000000">iDynTree/Core/SpatialVector.h</text>
</a>
</g>
</g>
<!-- Node49&#45;&gt;Node50 -->
<g id="edge115" class="edge">
<title>Node49&#45;&gt;Node50</title>
<path fill="none" stroke="#191970" d="M2420.3483,-403.2977C2415.5912,-394.9388 2409.6502,-384.4997 2404.6143,-375.6509"/>
<polygon fill="#191970" stroke="#191970" points="2407.5921,-373.8069 2399.6039,-366.8469 2401.5083,-377.2692 2407.5921,-373.8069"/>
</g>
<!-- Node50&#45;&gt;Node13 -->
<g id="edge118" class="edge">
<title>Node50&#45;&gt;Node13</title>
<path fill="none" stroke="#191970" d="M2417.3682,-347.4171C2462.3138,-327.5321 2559.738,-277.0303 2598,-199 2629.3043,-135.159 2527.33,-96.2433 2460.5101,-78.1505"/>
<polygon fill="#191970" stroke="#191970" points="2461.0812,-74.6819 2450.5202,-75.5282 2459.3039,-81.4525 2461.0812,-74.6819"/>
</g>
<!-- Node50&#45;&gt;Node27 -->
<g id="edge116" class="edge">
<title>Node50&#45;&gt;Node27</title>
<path fill="none" stroke="#191970" d="M2357.5559,-347.3733C2321.6931,-337.9001 2266.8122,-323.4032 2227.9718,-313.1435"/>
<polygon fill="#191970" stroke="#191970" points="2228.5308,-309.6712 2217.9685,-310.5011 2226.743,-316.439 2228.5308,-309.6712"/>
</g>
<!-- Node50&#45;&gt;Node29 -->
<g id="edge117" class="edge">
<title>Node50&#45;&gt;Node29</title>
<path fill="none" stroke="#191970" d="M2375.925,-347.4509C2338.6102,-327.7375 2252.881,-282.4465 2208.9814,-259.2543"/>
<polygon fill="#191970" stroke="#191970" points="2210.5061,-256.1015 2200.0293,-254.5249 2207.2363,-262.2908 2210.5061,-256.1015"/>
</g>
<!-- Node50&#45;&gt;Node30 -->
<g id="edge119" class="edge">
<title>Node50&#45;&gt;Node30</title>
<path fill="none" stroke="#191970" d="M2387.2118,-347.4248C2367.4335,-319.5261 2309.625,-237.9832 2283.763,-201.5031"/>
<polygon fill="#191970" stroke="#191970" points="2286.5576,-199.3933 2277.9189,-193.2595 2280.8471,-203.4417 2286.5576,-199.3933"/>
</g>
<!-- Node61&#45;&gt;Node41 -->
<g id="edge123" class="edge">
<title>Node61&#45;&gt;Node41</title>
<path fill="none" stroke="#191970" d="M2524.8752,-404.3793C2521.8805,-403.9033 2518.9142,-403.4417 2516,-403 2390.6407,-383.9976 2358.7699,-383.0617 2233,-367 2231.7431,-366.8395 2230.4748,-366.6775 2229.1976,-366.5143"/>
<polygon fill="#191970" stroke="#191970" points="2229.6357,-363.0419 2219.2725,-365.2451 2228.7477,-369.9853 2229.6357,-363.0419"/>
</g>
<!-- Node62&#45;&gt;Node10 -->
<g id="edge127" class="edge">
<title>Node62&#45;&gt;Node10</title>
<path fill="none" stroke="#191970" d="M2758.4211,-475.8105C2750.2143,-459.2409 2731.628,-425.1142 2708,-403 2694.051,-389.9448 2675.7384,-379.0709 2660.1543,-371.1789"/>
<polygon fill="#191970" stroke="#191970" points="2661.3901,-367.8878 2650.8669,-366.6575 2658.326,-374.1816 2661.3901,-367.8878"/>
</g>
<!-- Node62&#45;&gt;Node35 -->
<g id="edge125" class="edge">
<title>Node62&#45;&gt;Node35</title>
<path fill="none" stroke="#191970" d="M2708.9829,-475.9763C2696.221,-473.8708 2682.6471,-471.7487 2670,-470 2525.1665,-449.9738 2488.1926,-451.2305 2343,-434 2155.7129,-411.774 1936.1527,-383.1993 1819.9024,-367.871"/>
<polygon fill="#191970" stroke="#191970" points="1820.0347,-364.3582 1809.6627,-366.5199 1819.1189,-371.2981 1820.0347,-364.3582"/>
</g>
<!-- Node62&#45;&gt;Node42 -->
<g id="edge128" class="edge">
<title>Node62&#45;&gt;Node42</title>
<path fill="none" stroke="#191970" d="M2756.0603,-475.734C2741.6686,-455.7897 2708.5401,-411.5368 2692,-403 2615.2487,-363.3865 2390.0755,-381.9053 2305,-367 2270.1727,-360.8982 2262.495,-354.7632 2228,-347 2169.0291,-333.7285 2101.3833,-321.0358 2052.8,-312.3582"/>
<polygon fill="#191970" stroke="#191970" points="2053.1904,-308.8728 2042.7322,-310.5687 2051.9653,-315.7648 2053.1904,-308.8728"/>
</g>
<!-- Node62&#45;&gt;Node49 -->
<g id="edge126" class="edge">
<title>Node62&#45;&gt;Node49</title>
<path fill="none" stroke="#191970" d="M2715.5007,-475.9717C2663.1885,-465.4779 2578.024,-448.394 2514.1178,-435.5745"/>
<polygon fill="#191970" stroke="#191970" points="2514.5451,-432.0906 2504.052,-433.5553 2513.1683,-438.9539 2514.5451,-432.0906"/>
</g>
<!-- Node62&#45;&gt;Node61 -->
<g id="edge129" class="edge">
<title>Node62&#45;&gt;Node61</title>
<path fill="none" stroke="#191970" d="M2740.2192,-475.9005C2716.5093,-465.9096 2678.7551,-450.0006 2649.0003,-437.4624"/>
<polygon fill="#191970" stroke="#191970" points="2650.2231,-434.1796 2639.6487,-433.5218 2647.5048,-440.6303 2650.2231,-434.1796"/>
</g>
<!-- Node64&#45;&gt;Node9 -->
<g id="edge145" class="edge">
<title>Node64&#45;&gt;Node9</title>
<path fill="none" stroke="#191970" d="M1638.867,-593.4029C1542.4126,-567.9267 1348.5721,-511.4966 1197,-434 1163.0695,-416.6518 1127.6174,-390.0606 1106.4233,-373.1056"/>
<polygon fill="#191970" stroke="#191970" points="1108.4885,-370.2742 1098.5163,-366.6956 1104.0804,-375.7118 1108.4885,-370.2742"/>
</g>
<!-- Node64&#45;&gt;Node38 -->
<g id="edge132" class="edge">
<title>Node64&#45;&gt;Node38</title>
<path fill="none" stroke="#191970" d="M1628.786,-599.2928C1544.2661,-588.2097 1402.5255,-569.6233 1312.7653,-557.853"/>
<polygon fill="#191970" stroke="#191970" points="1312.9954,-554.3533 1302.6252,-556.5233 1312.0852,-561.2939 1312.9954,-554.3533"/>
</g>
<!-- Node65 -->
<g id="node45" class="node">
<title>Node65</title>
<g id="a_node45"><a xlink:href="LinkState_8h.html" target="_top" xlink:title="iDynTree/Model/LinkState.h">
<polygon fill="none" stroke="#000000" points="1941.5,-537.5 1941.5,-556.5 2090.5,-556.5 2090.5,-537.5 1941.5,-537.5"/>
<text text-anchor="middle" x="2016" y="-544.5" font-family="FreeSans.ttf" font-size="10.00" fill="#000000">iDynTree/Model/LinkState.h</text>
</a>
</g>
</g>
<!-- Node64&#45;&gt;Node65 -->
<g id="edge133" class="edge">
<title>Node64&#45;&gt;Node65</title>
<path fill="none" stroke="#191970" d="M1769.3526,-594.8512C1825.73,-583.9136 1903.9237,-568.7435 1957.0489,-558.4369"/>
<polygon fill="#191970" stroke="#191970" points="1957.8452,-561.8477 1966.9955,-556.5072 1956.512,-554.9759 1957.8452,-561.8477"/>
</g>
<!-- Node65&#45;&gt;Node9 -->
<g id="edge144" class="edge">
<title>Node65&#45;&gt;Node9</title>
<path fill="none" stroke="#191970" d="M1941.2127,-542.8685C1849.9859,-537.0567 1691.3153,-524.4535 1557,-501 1436.4778,-479.955 1406.7284,-470.6465 1290,-434 1228.5012,-414.6927 1158.5814,-386.8207 1118.9333,-370.4419"/>
<polygon fill="#191970" stroke="#191970" points="1120.1067,-367.1394 1109.529,-366.5376 1117.4227,-373.6044 1120.1067,-367.1394"/>
</g>
<!-- Node65&#45;&gt;Node35 -->
<g id="edge134" class="edge">
<title>Node65&#45;&gt;Node35</title>
<path fill="none" stroke="#191970" d="M2001.8317,-537.3167C1956.6579,-506.4425 1815.769,-410.1515 1760.5365,-372.4026"/>
<polygon fill="#191970" stroke="#191970" points="1762.3707,-369.4169 1752.1397,-366.6638 1758.4208,-375.1961 1762.3707,-369.4169"/>
</g>
<!-- Node65&#45;&gt;Node42 -->
<g id="edge143" class="edge">
<title>Node65&#45;&gt;Node42</title>
<path fill="none" stroke="#191970" d="M2013.3361,-537.3751C2009.532,-521.3289 2004.6752,-489.0013 2021,-470 2069.6301,-413.3969 2138.2303,-492.1497 2185,-434 2193.635,-423.2639 2193.4701,-413.8667 2185,-403 2144.7092,-351.309 2097.4812,-401.8876 2042,-367 2023.149,-355.1461 2007.5793,-334.671 1997.8751,-319.662"/>
<polygon fill="#191970" stroke="#191970" points="2000.5975,-317.4085 1992.3696,-310.7338 1994.6393,-321.0827 2000.5975,-317.4085"/>
</g>
<!-- Node48 -->
<g id="node46" class="node">
<title>Node48</title>
<g id="a_node46"><a xlink:href="Twist_8h.html" target="_top" xlink:title="iDynTree/Core/Twist.h">
<polygon fill="none" stroke="#000000" points="2381,-476 2381,-495 2503,-495 2503,-476 2381,-476"/>
<text text-anchor="middle" x="2442" y="-483" font-family="FreeSans.ttf" font-size="10.00" fill="#000000">iDynTree/Core/Twist.h</text>
</a>
</g>
</g>
<!-- Node65&#45;&gt;Node48 -->
<g id="edge135" class="edge">
<title>Node65&#45;&gt;Node48</title>
<path fill="none" stroke="#191970" d="M2090.6135,-539.3233C2162.8476,-531.4289 2275.3156,-517.9159 2372,-501 2378.3565,-499.8879 2385.0093,-498.5905 2391.5777,-497.2285"/>
<polygon fill="#191970" stroke="#191970" points="2392.7259,-500.5624 2401.7752,-495.0524 2391.2649,-493.7165 2392.7259,-500.5624"/>
</g>
<!-- Node53 -->
<g id="node47" class="node">
<title>Node53</title>
<g id="a_node47"><a xlink:href="SpatialAcc_8h.html" target="_top" xlink:title="iDynTree/Core/SpatialAcc.h">
<polygon fill="none" stroke="#000000" points="2215,-476 2215,-495 2363,-495 2363,-476 2215,-476"/>
<text text-anchor="middle" x="2289" y="-483" font-family="FreeSans.ttf" font-size="10.00" fill="#000000">iDynTree/Core/SpatialAcc.h</text>
</a>
</g>
</g>
<!-- Node65&#45;&gt;Node53 -->
<g id="edge137" class="edge">
<title>Node65&#45;&gt;Node53</title>
<path fill="none" stroke="#191970" d="M2058.3567,-537.4581C2106.3757,-526.6406 2184.701,-508.9959 2236.545,-497.3168"/>
<polygon fill="#191970" stroke="#191970" points="2237.5576,-500.6765 2246.5439,-495.0643 2236.0192,-493.8476 2237.5576,-500.6765"/>
</g>
<!-- Node54 -->
<g id="node48" class="node">
<title>Node54</title>
<g id="a_node48"><a xlink:href="Wrench_8h.html" target="_top" xlink:title="iDynTree/Core/Wrench.h">
<polygon fill="none" stroke="#ff0000" points="2063.5,-476 2063.5,-495 2196.5,-495 2196.5,-476 2063.5,-476"/>
<text text-anchor="middle" x="2130" y="-483" font-family="FreeSans.ttf" font-size="10.00" fill="#000000">iDynTree/Core/Wrench.h</text>
</a>
</g>
</g>
<!-- Node65&#45;&gt;Node54 -->
<g id="edge139" class="edge">
<title>Node65&#45;&gt;Node54</title>
<path fill="none" stroke="#191970" d="M2033.8125,-537.3906C2052.4685,-527.3262 2081.9797,-511.4057 2103.3974,-499.8514"/>
<polygon fill="#191970" stroke="#191970" points="2105.1734,-502.8702 2112.3126,-495.0419 2101.8498,-496.7095 2105.1734,-502.8702"/>
</g>
<!-- Node66 -->
<g id="node49" class="node">
<title>Node66</title>
<g id="a_node49"><a xlink:href="ArticulatedBodyInertia_8h.html" target="_top" xlink:title="iDynTree/Core/Articulated\lBodyInertia.h">
<polygon fill="none" stroke="#000000" points="1839.5,-168.5 1839.5,-198.5 1980.5,-198.5 1980.5,-168.5 1839.5,-168.5"/>
<text text-anchor="start" x="1847.5" y="-186.5" font-family="FreeSans.ttf" font-size="10.00" fill="#000000">iDynTree/Core/Articulated</text>
<text text-anchor="middle" x="1910" y="-175.5" font-family="FreeSans.ttf" font-size="10.00" fill="#000000">BodyInertia.h</text>
</a>
</g>
</g>
<!-- Node65&#45;&gt;Node66 -->
<g id="edge140" class="edge">
<title>Node65&#45;&gt;Node66</title>
<path fill="none" stroke="#191970" d="M2018.1232,-537.2956C2022.2461,-520.833 2032.9371,-487.5178 2055,-470 2107.6783,-428.1737 2151.4482,-478.373 2202,-434 2232.3296,-407.3775 2252.1987,-379.2965 2228,-347 2193.8453,-301.416 2156.6708,-334.9702 2105,-311 2049.4248,-285.2186 2041.313,-268.4703 1990,-235 1974.3038,-224.7618 1956.8076,-213.4833 1942.1896,-204.0975"/>
<polygon fill="#191970" stroke="#191970" points="1943.8084,-200.9778 1933.5016,-198.5244 1940.0288,-206.8698 1943.8084,-200.9778"/>
</g>
<!-- Node48&#45;&gt;Node49 -->
<g id="edge136" class="edge">
<title>Node48&#45;&gt;Node49</title>
<path fill="none" stroke="#191970" d="M2440.1374,-475.9005C2438.4926,-467.4234 2436.0211,-454.6856 2433.8239,-443.3614"/>
<polygon fill="#191970" stroke="#191970" points="2437.2554,-442.672 2431.9147,-433.5218 2430.3836,-444.0054 2437.2554,-442.672"/>
</g>
<!-- Node53&#45;&gt;Node49 -->
<g id="edge138" class="edge">
<title>Node53&#45;&gt;Node49</title>
<path fill="none" stroke="#191970" d="M2309.0586,-475.9005C2329.6641,-466.0393 2362.3165,-450.4128 2388.3528,-437.9526"/>
<polygon fill="#191970" stroke="#191970" points="2390.1019,-440.9957 2397.6112,-433.5218 2387.0801,-434.6816 2390.1019,-440.9957"/>
</g>
<!-- Node66&#45;&gt;Node4 -->
<g id="edge142" class="edge">
<title>Node66&#45;&gt;Node4</title>
<path fill="none" stroke="#191970" d="M1912.7974,-168.2125C1914.8252,-151.8173 1915.0097,-126.2273 1900,-112 1863.3189,-77.2308 1506.059,-68.3848 1395.463,-66.4708"/>
<polygon fill="#191970" stroke="#191970" points="1395.3126,-62.9679 1385.2561,-66.3019 1395.1968,-69.967 1395.3126,-62.9679"/>
</g>
<!-- Node66&#45;&gt;Node32 -->
<g id="edge141" class="edge">
<title>Node66&#45;&gt;Node32</title>
<path fill="none" stroke="#191970" d="M1885.5372,-168.4554C1869.8765,-158.8241 1849.6468,-146.3828 1834.0644,-136.7996"/>
<polygon fill="#191970" stroke="#191970" points="1835.848,-133.7876 1825.4965,-131.5303 1832.181,-139.7503 1835.848,-133.7876"/>
</g>
</g>
</svg>
