<?xml version="1.0" encoding="UTF-8" standalone="no"?>
<!DOCTYPE svg PUBLIC "-//W3C//DTD SVG 1.1//EN"
 "http://www.w3.org/Graphics/SVG/1.1/DTD/svg11.dtd">
<!-- Generated by graphviz version 2.40.1 (20161225.0304)
 -->
<!-- Title: URDFModelExport.cpp Pages: 1 -->
<svg width="2589pt" height="688pt"
 viewBox="0.00 0.00 2588.73 688.00" xmlns="http://www.w3.org/2000/svg" xmlns:xlink="http://www.w3.org/1999/xlink">
<g id="graph0" class="graph" transform="scale(1 1) rotate(0) translate(4 684)">
<title>URDFModelExport.cpp</title>
<!-- Node0 -->
<g id="node1" class="node">
<title>Node0</title>
<polygon fill="#bfbfbf" stroke="#000000" points="1661.5,-660.5 1661.5,-679.5 1786.5,-679.5 1786.5,-660.5 1661.5,-660.5"/>
<text text-anchor="middle" x="1724" y="-667.5" font-family="FreeSans.ttf" font-size="10.00" fill="#000000">URDFModelExport.cpp</text>
</g>
<!-- Node1 -->
<g id="node2" class="node">
<title>Node1</title>
<g id="a_node2"><a xlink:href="URDFModelExport_8h.html" target="_top" xlink:title="URDFModelExport.h">
<polygon fill="none" stroke="#000000" points="166.5,-604.5 166.5,-623.5 279.5,-623.5 279.5,-604.5 166.5,-604.5"/>
<text text-anchor="middle" x="223" y="-611.5" font-family="FreeSans.ttf" font-size="10.00" fill="#000000">URDFModelExport.h</text>
</a>
</g>
</g>
<!-- Node0&#45;&gt;Node1 -->
<g id="edge1" class="edge">
<title>Node0&#45;&gt;Node1</title>
<path fill="none" stroke="#191970" d="M1661.4149,-667.665C1418.5729,-658.605 539.7699,-625.8182 289.7694,-616.4911"/>
<polygon fill="#191970" stroke="#191970" points="289.8627,-612.9922 279.7392,-616.1169 289.6017,-619.9873 289.8627,-612.9922"/>
</g>
<!-- Node2 -->
<g id="node3" class="node">
<title>Node2</title>
<polygon fill="none" stroke="#bfbfbf" points="928,-56.5 928,-75.5 972,-75.5 972,-56.5 928,-56.5"/>
<text text-anchor="middle" x="950" y="-63.5" font-family="FreeSans.ttf" font-size="10.00" fill="#000000">string</text>
</g>
<!-- Node0&#45;&gt;Node2 -->
<g id="edge123" class="edge">
<title>Node0&#45;&gt;Node2</title>
<path fill="none" stroke="#191970" d="M1661.4246,-666.8831C1429.6012,-654.929 633,-610.0639 633,-558 633,-558 633,-558 633,-440.5 633,-355.9807 641,-335.0193 641,-250.5 641,-250.5 641,-250.5 641,-183.5 641,-154.1139 838.7691,-96.5432 917.8694,-74.6922"/>
<polygon fill="#191970" stroke="#191970" points="919.0616,-77.9945 927.7775,-71.9709 917.2076,-71.2445 919.0616,-77.9945"/>
</g>
<!-- Node4 -->
<g id="node5" class="node">
<title>Node4</title>
<g id="a_node5"><a xlink:href="Model_8h.html" target="_top" xlink:title="iDynTree/Model/Model.h">
<polygon fill="none" stroke="#000000" points="444.5,-431 444.5,-450 577.5,-450 577.5,-431 444.5,-431"/>
<text text-anchor="middle" x="511" y="-438" font-family="FreeSans.ttf" font-size="10.00" fill="#000000">iDynTree/Model/Model.h</text>
</a>
</g>
</g>
<!-- Node0&#45;&gt;Node4 -->
<g id="edge88" class="edge">
<title>Node0&#45;&gt;Node4</title>
<path fill="none" stroke="#191970" d="M1661.1524,-669.0391C1433.6214,-665.3463 663.8709,-650.9103 619,-624 556.9884,-586.8099 526.6873,-499.3176 515.8421,-460.1082"/>
<polygon fill="#191970" stroke="#191970" points="519.2199,-459.1907 513.2889,-450.4114 512.4506,-460.9731 519.2199,-459.1907"/>
</g>
<!-- Node10 -->
<g id="node10" class="node">
<title>Node10</title>
<g id="a_node10"><a xlink:href="SpatialInertia_8h.html" target="_top" xlink:title="iDynTree/Core/SpatialInertia.h">
<polygon fill="none" stroke="#000000" points="1584,-302.5 1584,-321.5 1746,-321.5 1746,-302.5 1584,-302.5"/>
<text text-anchor="middle" x="1665" y="-309.5" font-family="FreeSans.ttf" font-size="10.00" fill="#000000">iDynTree/Core/SpatialInertia.h</text>
</a>
</g>
</g>
<!-- Node0&#45;&gt;Node10 -->
<g id="edge85" class="edge">
<title>Node0&#45;&gt;Node10</title>
<path fill="none" stroke="#191970" d="M1726.8035,-660.2066C1732.0887,-640.8521 1743,-596.2612 1743,-558 1743,-558 1743,-558 1743,-440.5 1743,-402.3133 1739.7404,-390.0634 1719,-358 1711.3705,-346.2053 1699.8196,-335.789 1689.3564,-327.8644"/>
<polygon fill="#191970" stroke="#191970" points="1691.0978,-324.8061 1680.933,-321.8181 1687.0159,-330.4928 1691.0978,-324.8061"/>
</g>
<!-- Node29 -->
<g id="node12" class="node">
<title>Node29</title>
<g id="a_node12"><a xlink:href="VectorFixSize_8h.html" target="_top" xlink:title="iDynTree/Core/VectorFixSize.h">
<polygon fill="none" stroke="#000000" points="1909.5,-112.5 1909.5,-131.5 2070.5,-131.5 2070.5,-112.5 1909.5,-112.5"/>
<text text-anchor="middle" x="1990" y="-119.5" font-family="FreeSans.ttf" font-size="10.00" fill="#000000">iDynTree/Core/VectorFixSize.h</text>
</a>
</g>
</g>
<!-- Node0&#45;&gt;Node29 -->
<g id="edge87" class="edge">
<title>Node0&#45;&gt;Node29</title>
<path fill="none" stroke="#191970" d="M1743.2893,-660.4597C1842.9839,-610.9519 2296.4389,-383.2533 2328,-322 2348.3789,-282.449 2287.6348,-243.852 2276,-235 2260.4162,-223.1435 2131.2283,-175.1527 2113,-168 2083.901,-156.5817 2050.6894,-144.1992 2026.1175,-135.1607"/>
<polygon fill="#191970" stroke="#191970" points="2027.0801,-131.7857 2016.4865,-131.6264 2024.6686,-138.3573 2027.0801,-131.7857"/>
</g>
<!-- Node42 -->
<g id="node24" class="node">
<title>Node42</title>
<g id="a_node24"><a xlink:href="Transform_8h.html" target="_top" xlink:title="iDynTree/Core/Transform.h">
<polygon fill="none" stroke="#000000" points="1344,-302.5 1344,-321.5 1490,-321.5 1490,-302.5 1344,-302.5"/>
<text text-anchor="middle" x="1417" y="-309.5" font-family="FreeSans.ttf" font-size="10.00" fill="#000000">iDynTree/Core/Transform.h</text>
</a>
</g>
</g>
<!-- Node0&#45;&gt;Node42 -->
<g id="edge86" class="edge">
<title>Node0&#45;&gt;Node42</title>
<path fill="none" stroke="#191970" d="M1721.1965,-660.2066C1715.9113,-640.8521 1705,-596.2612 1705,-558 1705,-558 1705,-558 1705,-440.5 1705,-389.4001 1551.8825,-344.501 1468.9384,-323.9278"/>
<polygon fill="#191970" stroke="#191970" points="1469.7315,-320.5187 1459.1861,-321.5407 1468.0672,-327.3179 1469.7315,-320.5187"/>
</g>
<!-- Node49 -->
<g id="node35" class="node">
<title>Node49</title>
<g id="a_node35"><a xlink:href="EigenHelpers_8h.html" target="_top" xlink:title="iDynTree/Core/EigenHelpers.h">
<polygon fill="none" stroke="#000000" points="2063.5,-364 2063.5,-383 2224.5,-383 2224.5,-364 2063.5,-364"/>
<text text-anchor="middle" x="2144" y="-371" font-family="FreeSans.ttf" font-size="10.00" fill="#000000">iDynTree/Core/EigenHelpers.h</text>
</a>
</g>
</g>
<!-- Node0&#45;&gt;Node49 -->
<g id="edge72" class="edge">
<title>Node0&#45;&gt;Node49</title>
<path fill="none" stroke="#191970" d="M1740.9841,-660.368C1768.3095,-643.4638 1819,-605.6798 1819,-558 1819,-558 1819,-558 1819,-502 1819,-446.1667 1986.9757,-404.1979 2081.4044,-385.016"/>
<polygon fill="#191970" stroke="#191970" points="2082.3036,-388.4055 2091.4219,-383.0104 2080.9294,-381.5417 2082.3036,-388.4055"/>
</g>
<!-- Node52 -->
<g id="node38" class="node">
<title>Node52</title>
<g id="a_node38"><a xlink:href="Traversal_8h.html" target="_top" xlink:title="iDynTree/Model/Traversal.h">
<polygon fill="none" stroke="#000000" points="661,-364 661,-383 809,-383 809,-364 661,-364"/>
<text text-anchor="middle" x="735" y="-371" font-family="FreeSans.ttf" font-size="10.00" fill="#000000">iDynTree/Model/Traversal.h</text>
</a>
</g>
</g>
<!-- Node0&#45;&gt;Node52 -->
<g id="edge89" class="edge">
<title>Node0&#45;&gt;Node52</title>
<path fill="none" stroke="#191970" d="M1661.3204,-667.5503C1476.4041,-659.4968 946,-630.1116 946,-558 946,-558 946,-558 946,-502 946,-433.6423 864.2183,-400.5938 802.4842,-385.3846"/>
<polygon fill="#191970" stroke="#191970" points="802.9137,-381.8901 792.378,-383.0073 801.3108,-388.7042 802.9137,-381.8901"/>
</g>
<!-- Node53 -->
<g id="node39" class="node">
<title>Node53</title>
<g id="a_node39"><a xlink:href="FixedJoint_8h.html" target="_top" xlink:title="iDynTree/Model/FixedJoint.h">
<polygon fill="none" stroke="#000000" points="1007.5,-364 1007.5,-383 1158.5,-383 1158.5,-364 1007.5,-364"/>
<text text-anchor="middle" x="1083" y="-371" font-family="FreeSans.ttf" font-size="10.00" fill="#000000">iDynTree/Model/FixedJoint.h</text>
</a>
</g>
</g>
<!-- Node0&#45;&gt;Node53 -->
<g id="edge92" class="edge">
<title>Node0&#45;&gt;Node53</title>
<path fill="none" stroke="#191970" d="M1661.2394,-663.2445C1521.1128,-647.3142 1195,-605.1727 1195,-558 1195,-558 1195,-558 1195,-502 1195,-450.3338 1142.9097,-409.3736 1109.7779,-388.5464"/>
<polygon fill="#191970" stroke="#191970" points="1111.3591,-385.4118 1100.9947,-383.2138 1107.7262,-391.3954 1111.3591,-385.4118"/>
</g>
<!-- Node54 -->
<g id="node40" class="node">
<title>Node54</title>
<g id="a_node40"><a xlink:href="PrismaticJoint_8h.html" target="_top" xlink:title="iDynTree/Model/Prismatic\lJoint.h">
<polygon fill="none" stroke="#000000" points="1529,-425.5 1529,-455.5 1669,-455.5 1669,-425.5 1529,-425.5"/>
<text text-anchor="start" x="1537" y="-443.5" font-family="FreeSans.ttf" font-size="10.00" fill="#000000">iDynTree/Model/Prismatic</text>
<text text-anchor="middle" x="1599" y="-432.5" font-family="FreeSans.ttf" font-size="10.00" fill="#000000">Joint.h</text>
</a>
</g>
</g>
<!-- Node0&#45;&gt;Node54 -->
<g id="edge96" class="edge">
<title>Node0&#45;&gt;Node54</title>
<path fill="none" stroke="#191970" d="M1716.4574,-660.4338C1709.4489,-651.334 1698.9293,-637.1231 1691,-624 1657.8132,-569.0753 1625.7946,-500.6282 1609.7207,-464.8571"/>
<polygon fill="#191970" stroke="#191970" points="1612.8935,-463.3783 1605.6221,-455.6727 1606.5012,-466.231 1612.8935,-463.3783"/>
</g>
<!-- Node58 -->
<g id="node43" class="node">
<title>Node58</title>
<g id="a_node43"><a xlink:href="RevoluteJoint_8h.html" target="_top" xlink:title="iDynTree/Model/RevoluteJoint.h">
<polygon fill="none" stroke="#000000" points="1343,-431 1343,-450 1511,-450 1511,-431 1343,-431"/>
<text text-anchor="middle" x="1427" y="-438" font-family="FreeSans.ttf" font-size="10.00" fill="#000000">iDynTree/Model/RevoluteJoint.h</text>
</a>
</g>
</g>
<!-- Node0&#45;&gt;Node58 -->
<g id="edge106" class="edge">
<title>Node0&#45;&gt;Node58</title>
<path fill="none" stroke="#191970" d="M1711.6164,-660.4309C1665.67,-624.9268 1504.6674,-500.5157 1447.4053,-456.2677"/>
<polygon fill="#191970" stroke="#191970" points="1449.4894,-453.455 1439.4365,-450.11 1445.2093,-458.994 1449.4894,-453.455"/>
</g>
<!-- Node59 -->
<g id="node44" class="node">
<title>Node59</title>
<g id="a_node44"><a xlink:href="URDFParsingUtils_8h.html" target="_top" xlink:title="URDFParsingUtils.h">
<polygon fill="none" stroke="#000000" points="1771,-364 1771,-383 1881,-383 1881,-364 1771,-364"/>
<text text-anchor="middle" x="1826" y="-371" font-family="FreeSans.ttf" font-size="10.00" fill="#000000">URDFParsingUtils.h</text>
</a>
</g>
</g>
<!-- Node0&#45;&gt;Node59 -->
<g id="edge112" class="edge">
<title>Node0&#45;&gt;Node59</title>
<path fill="none" stroke="#191970" d="M1732.9063,-660.3544C1748.9375,-641.945 1781,-599.8901 1781,-558 1781,-558 1781,-558 1781,-502 1781,-460.8653 1801.7945,-416.2758 1815.1121,-391.9369"/>
<polygon fill="#191970" stroke="#191970" points="1818.2384,-393.519 1820.117,-383.092 1812.1461,-390.0716 1818.2384,-393.519"/>
</g>
<!-- Node62 -->
<g id="node47" class="node">
<title>Node62</title>
<polygon fill="none" stroke="#bfbfbf" points="1885,-604.5 1885,-623.5 1941,-623.5 1941,-604.5 1885,-604.5"/>
<text text-anchor="middle" x="1913" y="-611.5" font-family="FreeSans.ttf" font-size="10.00" fill="#000000">iomanip</text>
</g>
<!-- Node0&#45;&gt;Node62 -->
<g id="edge121" class="edge">
<title>Node0&#45;&gt;Node62</title>
<path fill="none" stroke="#191970" d="M1756.4903,-660.3733C1789.439,-650.6107 1840.3942,-635.5128 1875.1481,-625.2154"/>
<polygon fill="#191970" stroke="#191970" points="1876.3399,-628.5127 1884.9335,-622.316 1874.3512,-621.8011 1876.3399,-628.5127"/>
</g>
<!-- Node63 -->
<g id="node48" class="node">
<title>Node63</title>
<polygon fill="none" stroke="#bfbfbf" points="1959.5,-604.5 1959.5,-623.5 2014.5,-623.5 2014.5,-604.5 1959.5,-604.5"/>
<text text-anchor="middle" x="1987" y="-611.5" font-family="FreeSans.ttf" font-size="10.00" fill="#000000">fstream</text>
</g>
<!-- Node0&#45;&gt;Node63 -->
<g id="edge122" class="edge">
<title>Node0&#45;&gt;Node63</title>
<path fill="none" stroke="#191970" d="M1775.8149,-660.4185C1819.5109,-652.1203 1883.9127,-639.3818 1949.1215,-624.098"/>
<polygon fill="#191970" stroke="#191970" points="1950.2404,-627.4301 1959.1676,-621.7244 1948.6308,-620.6177 1950.2404,-627.4301"/>
</g>
<!-- Node64 -->
<g id="node49" class="node">
<title>Node64</title>
<polygon fill="none" stroke="#bfbfbf" points="2032.5,-604.5 2032.5,-623.5 2111.5,-623.5 2111.5,-604.5 2032.5,-604.5"/>
<text text-anchor="middle" x="2072" y="-611.5" font-family="FreeSans.ttf" font-size="10.00" fill="#000000">libxml/tree.h</text>
</g>
<!-- Node0&#45;&gt;Node64 -->
<g id="edge124" class="edge">
<title>Node0&#45;&gt;Node64</title>
<path fill="none" stroke="#191970" d="M1786.5021,-661.4055C1845.0435,-653.1312 1935.2064,-639.8147 2022.4123,-624.2203"/>
<polygon fill="#191970" stroke="#191970" points="2023.2585,-627.6243 2032.4798,-622.4073 2022.0178,-620.7351 2023.2585,-627.6243"/>
</g>
<!-- Node65 -->
<g id="node50" class="node">
<title>Node65</title>
<polygon fill="none" stroke="#bfbfbf" points="2129.5,-604.5 2129.5,-623.5 2218.5,-623.5 2218.5,-604.5 2129.5,-604.5"/>
<text text-anchor="middle" x="2174" y="-611.5" font-family="FreeSans.ttf" font-size="10.00" fill="#000000">libxml/parser.h</text>
</g>
<!-- Node0&#45;&gt;Node65 -->
<g id="edge125" class="edge">
<title>Node0&#45;&gt;Node65</title>
<path fill="none" stroke="#191970" d="M1786.7552,-664.1209C1863.0985,-656.6574 1996.1119,-642.6539 2119.2386,-624.1908"/>
<polygon fill="#191970" stroke="#191970" points="2119.8548,-627.6375 2129.2188,-622.6811 2118.8078,-620.7163 2119.8548,-627.6375"/>
</g>
<!-- Node1&#45;&gt;Node2 -->
<g id="edge2" class="edge">
<title>Node1&#45;&gt;Node2</title>
<path fill="none" stroke="#191970" d="M166.4394,-609.77C100.3734,-601.3878 0,-576.4088 0,-502 0,-502 0,-502 0,-183.5 0,-98.2451 94.8137,-130.6664 178,-112 322.3236,-79.6148 790.0656,-68.9011 917.6159,-66.5441"/>
<polygon fill="#191970" stroke="#191970" points="917.9499,-70.0388 927.8851,-66.359 917.8237,-63.0399 917.9499,-70.0388"/>
</g>
<!-- Node3 -->
<g id="node4" class="node">
<title>Node3</title>
<g id="a_node4"><a xlink:href="ModelExporter_8h.html" target="_top" xlink:title="iDynTree/ModelIO/ModelExporter.h">
<polygon fill="none" stroke="#000000" points="131,-548.5 131,-567.5 315,-567.5 315,-548.5 131,-548.5"/>
<text text-anchor="middle" x="223" y="-555.5" font-family="FreeSans.ttf" font-size="10.00" fill="#000000">iDynTree/ModelIO/ModelExporter.h</text>
</a>
</g>
</g>
<!-- Node1&#45;&gt;Node3 -->
<g id="edge3" class="edge">
<title>Node1&#45;&gt;Node3</title>
<path fill="none" stroke="#191970" d="M223,-604.2455C223,-596.9382 223,-586.6944 223,-577.7046"/>
<polygon fill="#191970" stroke="#191970" points="226.5001,-577.6426 223,-567.6427 219.5001,-577.6427 226.5001,-577.6426"/>
</g>
<!-- Node3&#45;&gt;Node2 -->
<g id="edge70" class="edge">
<title>Node3&#45;&gt;Node2</title>
<path fill="none" stroke="#191970" d="M191.3902,-548.4135C173.087,-541.2555 151.1371,-529.6232 138,-512 100.4129,-461.5776 109,-436.3905 109,-373.5 109,-373.5 109,-373.5 109,-183.5 109,-157.2332 33.7373,-167.5941 260,-112 387.1928,-80.748 798.7981,-69.3531 917.6126,-66.6688"/>
<polygon fill="#191970" stroke="#191970" points="917.9463,-70.1624 927.8666,-66.4425 917.7918,-63.1641 917.9463,-70.1624"/>
</g>
<!-- Node3&#45;&gt;Node4 -->
<g id="edge4" class="edge">
<title>Node3&#45;&gt;Node4</title>
<path fill="none" stroke="#191970" d="M251.4477,-548.4643C277.5405,-539.5559 317.1551,-525.6213 351,-512 397.2979,-493.3668 449.9544,-469.2572 481.8131,-454.339"/>
<polygon fill="#191970" stroke="#191970" points="483.4406,-457.4415 491.0025,-450.0206 480.4634,-451.1061 483.4406,-457.4415"/>
</g>
<!-- Node45 -->
<g id="node31" class="node">
<title>Node45</title>
<polygon fill="none" stroke="#bfbfbf" points="389.5,-302.5 389.5,-321.5 436.5,-321.5 436.5,-302.5 389.5,-302.5"/>
<text text-anchor="middle" x="413" y="-309.5" font-family="FreeSans.ttf" font-size="10.00" fill="#000000">vector</text>
</g>
<!-- Node3&#45;&gt;Node45 -->
<g id="edge71" class="edge">
<title>Node3&#45;&gt;Node45</title>
<path fill="none" stroke="#191970" d="M249.5248,-548.3615C267.5401,-540.7377 290.9229,-528.603 307,-512 360.3713,-456.8827 347.6924,-425.0415 385,-358 390.1528,-348.7404 396.2316,-338.6629 401.4063,-330.3069"/>
<polygon fill="#191970" stroke="#191970" points="404.4296,-332.0734 406.767,-321.7396 398.4955,-328.3603 404.4296,-332.0734"/>
</g>
<!-- Node46 -->
<g id="node32" class="node">
<title>Node46</title>
<g id="a_node32"><a xlink:href="Sensors_8h.html" target="_top" xlink:title="iDynTree/Sensors/Sensors.h">
<polygon fill="none" stroke="#ff0000" points="147.5,-492.5 147.5,-511.5 298.5,-511.5 298.5,-492.5 147.5,-492.5"/>
<text text-anchor="middle" x="223" y="-499.5" font-family="FreeSans.ttf" font-size="10.00" fill="#000000">iDynTree/Sensors/Sensors.h</text>
</a>
</g>
</g>
<!-- Node3&#45;&gt;Node46 -->
<g id="edge61" class="edge">
<title>Node3&#45;&gt;Node46</title>
<path fill="none" stroke="#191970" d="M223,-548.2455C223,-540.9382 223,-530.6944 223,-521.7046"/>
<polygon fill="#191970" stroke="#191970" points="226.5001,-521.6426 223,-511.6427 219.5001,-521.6427 226.5001,-521.6426"/>
</g>
<!-- Node48 -->
<g id="node34" class="node">
<title>Node48</title>
<polygon fill="none" stroke="#bfbfbf" points="28,-492.5 28,-511.5 86,-511.5 86,-492.5 28,-492.5"/>
<text text-anchor="middle" x="57" y="-499.5" font-family="FreeSans.ttf" font-size="10.00" fill="#000000">memory</text>
</g>
<!-- Node3&#45;&gt;Node48 -->
<g id="edge69" class="edge">
<title>Node3&#45;&gt;Node48</title>
<path fill="none" stroke="#191970" d="M194.4636,-548.3733C166.9798,-539.1016 125.2314,-525.0178 94.9548,-514.804"/>
<polygon fill="#191970" stroke="#191970" points="95.7582,-511.3813 85.164,-511.5011 93.5206,-518.0141 95.7582,-511.3813"/>
</g>
<!-- Node5 -->
<g id="node6" class="node">
<title>Node5</title>
<g id="a_node6"><a xlink:href="IJoint_8h.html" target="_top" xlink:title="iDynTree/Model/IJoint.h">
<polygon fill="none" stroke="#000000" points="950,-302.5 950,-321.5 1078,-321.5 1078,-302.5 950,-302.5"/>
<text text-anchor="middle" x="1014" y="-309.5" font-family="FreeSans.ttf" font-size="10.00" fill="#000000">iDynTree/Model/IJoint.h</text>
</a>
</g>
</g>
<!-- Node4&#45;&gt;Node5 -->
<g id="edge5" class="edge">
<title>Node4&#45;&gt;Node5</title>
<path fill="none" stroke="#191970" d="M577.5315,-439.4679C686.4339,-436.7001 896.9523,-426.5104 960,-389 982.391,-375.6784 997.8491,-349.0473 1006.3175,-330.8747"/>
<polygon fill="#191970" stroke="#191970" points="1009.5946,-332.1163 1010.3992,-321.5521 1003.1823,-329.3087 1009.5946,-332.1163"/>
</g>
<!-- Node6 -->
<g id="node7" class="node">
<title>Node6</title>
<g id="a_node7"><a xlink:href="Indices_8h.html" target="_top" xlink:title="iDynTree/Model/Indices.h">
<polygon fill="none" stroke="#ff0000" points="688,-241 688,-260 826,-260 826,-241 688,-241"/>
<text text-anchor="middle" x="757" y="-248" font-family="FreeSans.ttf" font-size="10.00" fill="#000000">iDynTree/Model/Indices.h</text>
</a>
</g>
</g>
<!-- Node4&#45;&gt;Node6 -->
<g id="edge52" class="edge">
<title>Node4&#45;&gt;Node6</title>
<path fill="none" stroke="#191970" d="M453.3046,-430.9393C428.2659,-423.7157 401.0504,-411.0767 385,-389 362.2248,-357.6737 354.5341,-331.1811 380,-302 399.2574,-279.9331 572.7578,-263.7249 677.5553,-255.8481"/>
<polygon fill="#191970" stroke="#191970" points="678.074,-259.3193 687.7877,-255.089 677.5561,-252.3385 678.074,-259.3193"/>
</g>
<!-- Node9 -->
<g id="node9" class="node">
<title>Node9</title>
<g id="a_node9"><a xlink:href="Link_8h.html" target="_top" xlink:title="iDynTree/Model/Link.h">
<polygon fill="none" stroke="#000000" points="827,-364 827,-383 951,-383 951,-364 827,-364"/>
<text text-anchor="middle" x="889" y="-371" font-family="FreeSans.ttf" font-size="10.00" fill="#000000">iDynTree/Model/Link.h</text>
</a>
</g>
</g>
<!-- Node4&#45;&gt;Node9 -->
<g id="edge9" class="edge">
<title>Node4&#45;&gt;Node9</title>
<path fill="none" stroke="#191970" d="M573.1933,-430.978C635.3252,-421.2512 733.4941,-405.3022 818,-389 824.1787,-387.8081 830.6447,-386.4922 837.0517,-385.146"/>
<polygon fill="#191970" stroke="#191970" points="837.9717,-388.5286 847.0213,-383.019 836.5111,-381.6827 837.9717,-388.5286"/>
</g>
<!-- Node4&#45;&gt;Node42 -->
<g id="edge34" class="edge">
<title>Node4&#45;&gt;Node42</title>
<path fill="none" stroke="#191970" d="M577.7349,-437.8829C721.6715,-431.813 1057.2296,-415.2589 1168,-389 1203.4959,-380.5855 1209.4136,-369.5995 1244,-358 1284.2272,-344.5088 1330.7502,-332.3246 1365.4133,-323.8903"/>
<polygon fill="#191970" stroke="#191970" points="1366.4123,-327.2499 1375.3142,-321.5046 1364.7725,-320.4446 1366.4123,-327.2499"/>
</g>
<!-- Node43 -->
<g id="node29" class="node">
<title>Node43</title>
<g id="a_node29"><a xlink:href="SolidShapes_8h.html" target="_top" xlink:title="iDynTree/Model/SolidShapes.h">
<polygon fill="none" stroke="#000000" points="403.5,-364 403.5,-383 566.5,-383 566.5,-364 403.5,-364"/>
<text text-anchor="middle" x="485" y="-371" font-family="FreeSans.ttf" font-size="10.00" fill="#000000">iDynTree/Model/SolidShapes.h</text>
</a>
</g>
</g>
<!-- Node4&#45;&gt;Node43 -->
<g id="edge53" class="edge">
<title>Node4&#45;&gt;Node43</title>
<path fill="none" stroke="#191970" d="M507.2748,-430.9005C503.4134,-420.95 497.274,-405.1292 492.4177,-392.6147"/>
<polygon fill="#191970" stroke="#191970" points="495.599,-391.1381 488.7183,-383.0817 489.0731,-393.6706 495.599,-391.1381"/>
</g>
<!-- Node44 -->
<g id="node30" class="node">
<title>Node44</title>
<polygon fill="none" stroke="#bfbfbf" points="563.5,-302.5 563.5,-321.5 612.5,-321.5 612.5,-302.5 563.5,-302.5"/>
<text text-anchor="middle" x="588" y="-309.5" font-family="FreeSans.ttf" font-size="10.00" fill="#000000">cstdlib</text>
</g>
<!-- Node4&#45;&gt;Node44 -->
<g id="edge59" class="edge">
<title>Node4&#45;&gt;Node44</title>
<path fill="none" stroke="#191970" d="M528.9713,-430.9919C543.7993,-422.1577 564.109,-407.5783 575,-389 585.2502,-371.5149 587.962,-348.192 588.4443,-331.8126"/>
<polygon fill="#191970" stroke="#191970" points="591.9444,-331.7544 588.4872,-321.7396 584.9445,-331.7245 591.9444,-331.7544"/>
</g>
<!-- Node4&#45;&gt;Node45 -->
<g id="edge60" class="edge">
<title>Node4&#45;&gt;Node45</title>
<path fill="none" stroke="#191970" d="M458.436,-430.951C434.5059,-423.6953 408.37,-411.0258 394,-389 382.4279,-371.2627 391.6204,-347.0428 400.8031,-330.5334"/>
<polygon fill="#191970" stroke="#191970" points="403.8946,-332.1841 406.0515,-321.8111 397.8967,-328.575 403.8946,-332.1841"/>
</g>
<!-- Node5&#45;&gt;Node6 -->
<g id="edge6" class="edge">
<title>Node5&#45;&gt;Node6</title>
<path fill="none" stroke="#191970" d="M974.1257,-302.4581C929.1094,-291.6857 855.8002,-274.1428 806.9921,-262.4631"/>
<polygon fill="#191970" stroke="#191970" points="807.5078,-258.9877 796.9678,-260.0643 805.8787,-265.7955 807.5078,-258.9877"/>
</g>
<!-- Node6&#45;&gt;Node2 -->
<g id="edge8" class="edge">
<title>Node6&#45;&gt;Node2</title>
<path fill="none" stroke="#191970" d="M760.3966,-240.6778C769.4645,-215.7986 796.551,-149.6105 840,-112 862.4948,-92.528 894.4048,-80.4207 918.0669,-73.5464"/>
<polygon fill="#191970" stroke="#191970" points="919.2534,-76.8504 927.9725,-70.8315 917.403,-70.0994 919.2534,-76.8504"/>
</g>
<!-- Node7 -->
<g id="node8" class="node">
<title>Node7</title>
<polygon fill="none" stroke="#bfbfbf" points="1963.5,-.5 1963.5,-19.5 2016.5,-19.5 2016.5,-.5 1963.5,-.5"/>
<text text-anchor="middle" x="1990" y="-7.5" font-family="FreeSans.ttf" font-size="10.00" fill="#000000">cstddef</text>
</g>
<!-- Node6&#45;&gt;Node7 -->
<g id="edge7" class="edge">
<title>Node6&#45;&gt;Node7</title>
<path fill="none" stroke="#191970" d="M757.5492,-240.9022C758.7628,-225.0436 762.5475,-192.6718 774,-168 808.2855,-94.1392 840.6203,-78.0801 919,-56 1020.1609,-27.5023 1776.6468,-13.4812 1953.2251,-10.5768"/>
<polygon fill="#191970" stroke="#191970" points="1953.3685,-14.0751 1963.3102,-10.4127 1953.2545,-7.076 1953.3685,-14.0751"/>
</g>
<!-- Node9&#45;&gt;Node6 -->
<g id="edge33" class="edge">
<title>Node9&#45;&gt;Node6</title>
<path fill="none" stroke="#191970" d="M878.6422,-363.8484C856.1837,-342.9212 802.781,-293.1596 774.7989,-267.0854"/>
<polygon fill="#191970" stroke="#191970" points="777.0119,-264.3634 767.3097,-260.1068 772.2398,-269.4847 777.0119,-264.3634"/>
</g>
<!-- Node9&#45;&gt;Node10 -->
<g id="edge10" class="edge">
<title>Node9&#45;&gt;Node10</title>
<path fill="none" stroke="#191970" d="M950.8624,-363.9974C966.54,-361.8056 983.3677,-359.6391 999,-358 1107.7738,-346.5945 1418.1423,-327.0045 1573.7421,-317.4968"/>
<polygon fill="#191970" stroke="#191970" points="1573.9953,-320.9879 1583.7636,-316.8853 1573.5689,-314.0009 1573.9953,-320.9879"/>
</g>
<!-- Node11 -->
<g id="node11" class="node">
<title>Node11</title>
<g id="a_node11"><a xlink:href="SpatialInertiaRaw_8h.html" target="_top" xlink:title="iDynTree/Core/SpatialInertia\lRaw.h">
<polygon fill="none" stroke="#ff0000" points="1168.5,-235.5 1168.5,-265.5 1321.5,-265.5 1321.5,-235.5 1168.5,-235.5"/>
<text text-anchor="start" x="1176.5" y="-253.5" font-family="FreeSans.ttf" font-size="10.00" fill="#000000">iDynTree/Core/SpatialInertia</text>
<text text-anchor="middle" x="1245" y="-242.5" font-family="FreeSans.ttf" font-size="10.00" fill="#000000">Raw.h</text>
</a>
</g>
</g>
<!-- Node10&#45;&gt;Node11 -->
<g id="edge11" class="edge">
<title>Node10&#45;&gt;Node11</title>
<path fill="none" stroke="#191970" d="M1589.2569,-302.4782C1523.791,-294.0393 1426.381,-280.9847 1331.887,-266.1035"/>
<polygon fill="#191970" stroke="#191970" points="1332.2916,-262.6241 1321.8672,-264.5169 1331.1967,-269.5379 1332.2916,-262.6241"/>
</g>
<!-- Node10&#45;&gt;Node29 -->
<g id="edge12" class="edge">
<title>Node10&#45;&gt;Node29</title>
<path fill="none" stroke="#191970" d="M1677.2408,-302.2377C1708.7542,-277.4265 1795.8321,-210.8836 1876,-168 1900.4256,-154.9342 1929.3875,-143.2928 1952.0071,-134.99"/>
<polygon fill="#191970" stroke="#191970" points="1953.3788,-138.2161 1961.5972,-131.5296 1951.0028,-131.6316 1953.3788,-138.2161"/>
</g>
<!-- Node30 -->
<g id="node18" class="node">
<title>Node30</title>
<g id="a_node18"><a xlink:href="Twist_8h.html" target="_top" xlink:title="iDynTree/Core/Twist.h">
<polygon fill="none" stroke="#000000" points="1506,-241 1506,-260 1628,-260 1628,-241 1506,-241"/>
<text text-anchor="middle" x="1567" y="-248" font-family="FreeSans.ttf" font-size="10.00" fill="#000000">iDynTree/Core/Twist.h</text>
</a>
</g>
</g>
<!-- Node10&#45;&gt;Node30 -->
<g id="edge23" class="edge">
<title>Node10&#45;&gt;Node30</title>
<path fill="none" stroke="#191970" d="M1649.6875,-302.3906C1633.9376,-292.5067 1609.1877,-276.9749 1590.8663,-265.4773"/>
<polygon fill="#191970" stroke="#191970" points="1592.5357,-262.3929 1582.205,-260.0419 1588.8148,-268.3221 1592.5357,-262.3929"/>
</g>
<!-- Node38 -->
<g id="node20" class="node">
<title>Node38</title>
<g id="a_node20"><a xlink:href="SpatialMomentum_8h.html" target="_top" xlink:title="iDynTree/Core/SpatialMomentum.h">
<polygon fill="none" stroke="#000000" points="1988,-241 1988,-260 2174,-260 2174,-241 1988,-241"/>
<text text-anchor="middle" x="2081" y="-248" font-family="FreeSans.ttf" font-size="10.00" fill="#000000">iDynTree/Core/SpatialMomentum.h</text>
</a>
</g>
</g>
<!-- Node10&#45;&gt;Node38 -->
<g id="edge26" class="edge">
<title>Node10&#45;&gt;Node38</title>
<path fill="none" stroke="#191970" d="M1730.5676,-302.4987C1794.1014,-293.2674 1893.1745,-278.8075 1979,-266 1988.6328,-264.5625 1998.7752,-263.0364 2008.7762,-261.5242"/>
<polygon fill="#191970" stroke="#191970" points="2009.3428,-264.9784 2018.706,-260.0204 2008.2946,-258.0573 2009.3428,-264.9784"/>
</g>
<!-- Node40 -->
<g id="node22" class="node">
<title>Node40</title>
<g id="a_node22"><a xlink:href="SpatialAcc_8h.html" target="_top" xlink:title="iDynTree/Core/SpatialAcc.h">
<polygon fill="none" stroke="#000000" points="1340,-241 1340,-260 1488,-260 1488,-241 1340,-241"/>
<text text-anchor="middle" x="1414" y="-248" font-family="FreeSans.ttf" font-size="10.00" fill="#000000">iDynTree/Core/SpatialAcc.h</text>
</a>
</g>
</g>
<!-- Node10&#45;&gt;Node40 -->
<g id="edge29" class="edge">
<title>Node10&#45;&gt;Node40</title>
<path fill="none" stroke="#191970" d="M1626.0566,-302.4581C1582.0913,-291.6857 1510.4935,-274.1428 1462.8249,-262.4631"/>
<polygon fill="#191970" stroke="#191970" points="1463.5804,-259.0447 1453.0347,-260.0643 1461.9145,-265.8436 1463.5804,-259.0447"/>
</g>
<!-- Node41 -->
<g id="node23" class="node">
<title>Node41</title>
<g id="a_node23"><a xlink:href="Wrench_8h.html" target="_top" xlink:title="iDynTree/Core/Wrench.h">
<polygon fill="none" stroke="#000000" points="1836.5,-241 1836.5,-260 1969.5,-260 1969.5,-241 1836.5,-241"/>
<text text-anchor="middle" x="1903" y="-248" font-family="FreeSans.ttf" font-size="10.00" fill="#000000">iDynTree/Core/Wrench.h</text>
</a>
</g>
</g>
<!-- Node10&#45;&gt;Node41 -->
<g id="edge31" class="edge">
<title>Node10&#45;&gt;Node41</title>
<path fill="none" stroke="#191970" d="M1701.9264,-302.4581C1743.4402,-291.7308 1810.9365,-274.2895 1856.1353,-262.61"/>
<polygon fill="#191970" stroke="#191970" points="1857.1807,-265.9549 1865.987,-260.0643 1855.4293,-259.1775 1857.1807,-265.9549"/>
</g>
<!-- Node29&#45;&gt;Node2 -->
<g id="edge18" class="edge">
<title>Node29&#45;&gt;Node2</title>
<path fill="none" stroke="#191970" d="M1909.2583,-117.6524C1695.9947,-106.1689 1124.2975,-75.3852 982.2759,-67.7379"/>
<polygon fill="#191970" stroke="#191970" points="982.2386,-64.2309 972.0648,-67.1881 981.8622,-71.2208 982.2386,-64.2309"/>
</g>
<!-- Node29&#45;&gt;Node7 -->
<g id="edge21" class="edge">
<title>Node29&#45;&gt;Node7</title>
<path fill="none" stroke="#191970" d="M1964.4738,-112.3698C1948.8579,-104.9914 1930.1711,-93.1364 1921,-76 1909.5192,-54.5478 1933.8857,-35.9987 1956.7676,-24.0757"/>
<polygon fill="#191970" stroke="#191970" points="1958.6008,-27.0752 1966.0432,-19.5345 1955.5228,-20.7882 1958.6008,-27.0752"/>
</g>
<!-- Node14 -->
<g id="node13" class="node">
<title>Node14</title>
<g id="a_node13"><a xlink:href="Utils_8h.html" target="_top" xlink:title="iDynTree/Core/Utils.h">
<polygon fill="none" stroke="#ff0000" points="2249.5,-56.5 2249.5,-75.5 2368.5,-75.5 2368.5,-56.5 2249.5,-56.5"/>
<text text-anchor="middle" x="2309" y="-63.5" font-family="FreeSans.ttf" font-size="10.00" fill="#000000">iDynTree/Core/Utils.h</text>
</a>
</g>
</g>
<!-- Node29&#45;&gt;Node14 -->
<g id="edge13" class="edge">
<title>Node29&#45;&gt;Node14</title>
<path fill="none" stroke="#191970" d="M2044.4756,-112.4369C2099.9875,-102.6918 2186.0529,-87.5832 2244.8328,-77.2645"/>
<polygon fill="#191970" stroke="#191970" points="2245.5049,-80.7001 2254.7491,-75.5237 2244.2945,-73.8055 2245.5049,-80.7001"/>
</g>
<!-- Node19 -->
<g id="node14" class="node">
<title>Node19</title>
<g id="a_node14"><a xlink:href="Span_8h.html" target="_top" xlink:title="iDynTree/Core/Span.h">
<polygon fill="none" stroke="#ff0000" points="1929.5,-56.5 1929.5,-75.5 2050.5,-75.5 2050.5,-56.5 1929.5,-56.5"/>
<text text-anchor="middle" x="1990" y="-63.5" font-family="FreeSans.ttf" font-size="10.00" fill="#000000">iDynTree/Core/Span.h</text>
</a>
</g>
</g>
<!-- Node29&#45;&gt;Node19 -->
<g id="edge15" class="edge">
<title>Node29&#45;&gt;Node19</title>
<path fill="none" stroke="#191970" d="M1990,-112.2455C1990,-104.9382 1990,-94.6944 1990,-85.7046"/>
<polygon fill="#191970" stroke="#191970" points="1993.5001,-85.6426 1990,-75.6427 1986.5001,-85.6427 1993.5001,-85.6426"/>
</g>
<!-- Node17 -->
<g id="node15" class="node">
<title>Node17</title>
<polygon fill="none" stroke="#bfbfbf" points="2212,-.5 2212,-19.5 2264,-19.5 2264,-.5 2212,-.5"/>
<text text-anchor="middle" x="2238" y="-7.5" font-family="FreeSans.ttf" font-size="10.00" fill="#000000">cassert</text>
</g>
<!-- Node29&#45;&gt;Node17 -->
<g id="edge20" class="edge">
<title>Node29&#45;&gt;Node17</title>
<path fill="none" stroke="#191970" d="M2003.4112,-112.3913C2023.2892,-98.4836 2062.0972,-72.5965 2098,-56 2132.1724,-40.2034 2173.3161,-27.3683 2202.1262,-19.3093"/>
<polygon fill="#191970" stroke="#191970" points="2203.0544,-22.684 2211.7706,-16.6609 2201.2008,-15.9339 2203.0544,-22.684"/>
</g>
<!-- Node28 -->
<g id="node16" class="node">
<title>Node28</title>
<polygon fill="none" stroke="#bfbfbf" points="2175,-56.5 2175,-75.5 2231,-75.5 2231,-56.5 2175,-56.5"/>
<text text-anchor="middle" x="2203" y="-63.5" font-family="FreeSans.ttf" font-size="10.00" fill="#000000">sstream</text>
</g>
<!-- Node29&#45;&gt;Node28 -->
<g id="edge19" class="edge">
<title>Node29&#45;&gt;Node28</title>
<path fill="none" stroke="#191970" d="M2026.7662,-112.4856C2060.3013,-103.7863 2111.4876,-90.4556 2164.7576,-76.3165"/>
<polygon fill="#191970" stroke="#191970" points="2165.959,-79.6188 2174.7248,-73.6679 2164.1613,-72.8535 2165.959,-79.6188"/>
</g>
<!-- Node26 -->
<g id="node17" class="node">
<title>Node26</title>
<polygon fill="none" stroke="#bfbfbf" points="2107,-56.5 2107,-75.5 2157,-75.5 2157,-56.5 2107,-56.5"/>
<text text-anchor="middle" x="2132" y="-63.5" font-family="FreeSans.ttf" font-size="10.00" fill="#000000">cstring</text>
</g>
<!-- Node29&#45;&gt;Node26 -->
<g id="edge22" class="edge">
<title>Node29&#45;&gt;Node26</title>
<path fill="none" stroke="#191970" d="M2014.4107,-112.3733C2037.6142,-103.2226 2072.7038,-89.3844 2098.5142,-79.2057"/>
<polygon fill="#191970" stroke="#191970" points="2099.8892,-82.4258 2107.9079,-75.5011 2097.3211,-75.9139 2099.8892,-82.4258"/>
</g>
<!-- Node14&#45;&gt;Node7 -->
<g id="edge14" class="edge">
<title>Node14&#45;&gt;Node7</title>
<path fill="none" stroke="#191970" d="M2254.5244,-56.4369C2189.6604,-45.0501 2083.0811,-26.3403 2027.0591,-16.5057"/>
<polygon fill="#191970" stroke="#191970" points="2027.3367,-13.001 2016.8821,-14.7191 2026.1263,-19.8955 2027.3367,-13.001"/>
</g>
<!-- Node19&#45;&gt;Node7 -->
<g id="edge17" class="edge">
<title>Node19&#45;&gt;Node7</title>
<path fill="none" stroke="#191970" d="M1990,-56.2455C1990,-48.9382 1990,-38.6944 1990,-29.7046"/>
<polygon fill="#191970" stroke="#191970" points="1993.5001,-29.6426 1990,-19.6427 1986.5001,-29.6427 1993.5001,-29.6426"/>
</g>
<!-- Node19&#45;&gt;Node17 -->
<g id="edge16" class="edge">
<title>Node19&#45;&gt;Node17</title>
<path fill="none" stroke="#191970" d="M2032.3509,-56.4369C2080.0956,-45.6558 2156.9122,-28.3101 2201.9156,-18.1481"/>
<polygon fill="#191970" stroke="#191970" points="2202.8408,-21.5274 2211.8243,-15.9106 2201.299,-14.6993 2202.8408,-21.5274"/>
</g>
<!-- Node31 -->
<g id="node19" class="node">
<title>Node31</title>
<g id="a_node19"><a xlink:href="SpatialMotionVector_8h.html" target="_top" xlink:title="iDynTree/Core/SpatialMotion\lVector.h">
<polygon fill="none" stroke="#ff0000" points="1389.5,-168.5 1389.5,-198.5 1544.5,-198.5 1544.5,-168.5 1389.5,-168.5"/>
<text text-anchor="start" x="1397.5" y="-186.5" font-family="FreeSans.ttf" font-size="10.00" fill="#000000">iDynTree/Core/SpatialMotion</text>
<text text-anchor="middle" x="1467" y="-175.5" font-family="FreeSans.ttf" font-size="10.00" fill="#000000">Vector.h</text>
</a>
</g>
</g>
<!-- Node30&#45;&gt;Node31 -->
<g id="edge24" class="edge">
<title>Node30&#45;&gt;Node31</title>
<path fill="none" stroke="#191970" d="M1552.6724,-240.9005C1538.4706,-231.3853 1516.2572,-216.5023 1498.0082,-204.2755"/>
<polygon fill="#191970" stroke="#191970" points="1499.6764,-201.1803 1489.4205,-198.5218 1495.7801,-206.9957 1499.6764,-201.1803"/>
</g>
<!-- Node31&#45;&gt;Node29 -->
<g id="edge25" class="edge">
<title>Node31&#45;&gt;Node29</title>
<path fill="none" stroke="#191970" d="M1544.7336,-174.3592C1639.3701,-163.2309 1798.9354,-144.4674 1899.1478,-132.6834"/>
<polygon fill="#191970" stroke="#191970" points="1899.7349,-136.1386 1909.2577,-131.4946 1898.9173,-129.1865 1899.7349,-136.1386"/>
</g>
<!-- Node39 -->
<g id="node21" class="node">
<title>Node39</title>
<g id="a_node21"><a xlink:href="SpatialForceVector_8h.html" target="_top" xlink:title="iDynTree/Core/SpatialForce\lVector.h">
<polygon fill="none" stroke="#ff0000" points="1885,-168.5 1885,-198.5 2033,-198.5 2033,-168.5 1885,-168.5"/>
<text text-anchor="start" x="1893" y="-186.5" font-family="FreeSans.ttf" font-size="10.00" fill="#000000">iDynTree/Core/SpatialForce</text>
<text text-anchor="middle" x="1959" y="-175.5" font-family="FreeSans.ttf" font-size="10.00" fill="#000000">Vector.h</text>
</a>
</g>
</g>
<!-- Node38&#45;&gt;Node39 -->
<g id="edge27" class="edge">
<title>Node38&#45;&gt;Node39</title>
<path fill="none" stroke="#191970" d="M2063.5204,-240.9005C2045.8004,-231.1691 2017.8569,-215.823 1995.3197,-203.4461"/>
<polygon fill="#191970" stroke="#191970" points="1996.8031,-200.2677 1986.3531,-198.5218 1993.4335,-206.4033 1996.8031,-200.2677"/>
</g>
<!-- Node39&#45;&gt;Node29 -->
<g id="edge28" class="edge">
<title>Node39&#45;&gt;Node29</title>
<path fill="none" stroke="#191970" d="M1966.6629,-168.2977C1970.8316,-160.0277 1976.0265,-149.7215 1980.4561,-140.9339"/>
<polygon fill="#191970" stroke="#191970" points="1983.6607,-142.3521 1985.0365,-131.8469 1977.4099,-139.2012 1983.6607,-142.3521"/>
</g>
<!-- Node40&#45;&gt;Node31 -->
<g id="edge30" class="edge">
<title>Node40&#45;&gt;Node31</title>
<path fill="none" stroke="#191970" d="M1421.5936,-240.9005C1428.6416,-231.9908 1439.4125,-218.3748 1448.6953,-206.6399"/>
<polygon fill="#191970" stroke="#191970" points="1451.658,-208.536 1455.1171,-198.5218 1446.168,-204.1932 1451.658,-208.536"/>
</g>
<!-- Node41&#45;&gt;Node39 -->
<g id="edge32" class="edge">
<title>Node41&#45;&gt;Node39</title>
<path fill="none" stroke="#191970" d="M1911.0234,-240.9005C1918.5426,-231.9043 1930.0723,-218.1099 1939.9444,-206.2986"/>
<polygon fill="#191970" stroke="#191970" points="1942.7169,-208.4392 1946.4445,-198.5218 1937.3459,-203.95 1942.7169,-208.4392"/>
</g>
<!-- Node42&#45;&gt;Node2 -->
<g id="edge51" class="edge">
<title>Node42&#45;&gt;Node2</title>
<path fill="none" stroke="#191970" d="M1343.924,-302.8907C1245.6889,-290.5346 1082.5955,-269.5847 1077,-266 1041.6621,-243.3616 981.9635,-129.7302 959.1963,-84.5581"/>
<polygon fill="#191970" stroke="#191970" points="962.2954,-82.9299 954.6909,-75.5527 956.0351,-86.0619 962.2954,-82.9299"/>
</g>
<!-- Node34 -->
<g id="node25" class="node">
<title>Node34</title>
<g id="a_node25"><a xlink:href="Position_8h.html" target="_top" xlink:title="Position.h">
<polygon fill="none" stroke="#ff0000" points="932.5,-241 932.5,-260 997.5,-260 997.5,-241 932.5,-241"/>
<text text-anchor="middle" x="965" y="-248" font-family="FreeSans.ttf" font-size="10.00" fill="#000000">Position.h</text>
</a>
</g>
</g>
<!-- Node42&#45;&gt;Node34 -->
<g id="edge35" class="edge">
<title>Node42&#45;&gt;Node34</title>
<path fill="none" stroke="#191970" d="M1343.6869,-303.0212C1340.7533,-302.674 1337.849,-302.3325 1335,-302 1191.5292,-285.257 1153.1257,-296.7853 1012,-266 1008.1437,-265.1588 1004.158,-264.1204 1000.2135,-262.9826"/>
<polygon fill="#191970" stroke="#191970" points="1001.1782,-259.6175 990.5905,-260.0056 999.1093,-266.3048 1001.1782,-259.6175"/>
</g>
<!-- Node36 -->
<g id="node26" class="node">
<title>Node36</title>
<g id="a_node26"><a xlink:href="Rotation_8h.html" target="_top" xlink:title="iDynTree/Core/Rotation.h">
<polygon fill="none" stroke="#ff0000" points="1054.5,-174 1054.5,-193 1191.5,-193 1191.5,-174 1054.5,-174"/>
<text text-anchor="middle" x="1123" y="-181" font-family="FreeSans.ttf" font-size="10.00" fill="#000000">iDynTree/Core/Rotation.h</text>
</a>
</g>
</g>
<!-- Node42&#45;&gt;Node36 -->
<g id="edge40" class="edge">
<title>Node42&#45;&gt;Node36</title>
<path fill="none" stroke="#191970" d="M1343.9462,-302.9878C1248.3005,-291.0178 1092.1934,-270.8205 1088,-266 1071.3521,-246.8625 1090.1031,-218.6408 1105.918,-200.6669"/>
<polygon fill="#191970" stroke="#191970" points="1108.6088,-202.9125 1112.8399,-193.1992 1103.475,-198.1539 1108.6088,-202.9125"/>
</g>
<!-- Node13 -->
<g id="node27" class="node">
<title>Node13</title>
<g id="a_node27"><a xlink:href="MatrixFixSize_8h.html" target="_top" xlink:title="iDynTree/Core/MatrixFixSize.h">
<polygon fill="none" stroke="#ff0000" points="2387.5,-174 2387.5,-193 2548.5,-193 2548.5,-174 2387.5,-174"/>
<text text-anchor="middle" x="2468" y="-181" font-family="FreeSans.ttf" font-size="10.00" fill="#000000">iDynTree/Core/MatrixFixSize.h</text>
</a>
</g>
</g>
<!-- Node42&#45;&gt;Node13 -->
<g id="edge41" class="edge">
<title>Node42&#45;&gt;Node13</title>
<path fill="none" stroke="#191970" d="M1463.9243,-302.4736C1556.0641,-283.8895 1757.7735,-243.8402 1828,-235 2071.4894,-204.3494 2135.3198,-228.0949 2379,-199 2388.5934,-197.8546 2398.7233,-196.3629 2408.5759,-194.7579"/>
<polygon fill="#191970" stroke="#191970" points="2409.4278,-198.1639 2418.709,-193.0541 2408.267,-191.2608 2409.4278,-198.1639"/>
</g>
<!-- Node34&#45;&gt;Node2 -->
<g id="edge39" class="edge">
<title>Node34&#45;&gt;Node2</title>
<path fill="none" stroke="#191970" d="M964.2147,-240.8402C961.8555,-211.8223 954.7975,-125.0088 951.6025,-85.7113"/>
<polygon fill="#191970" stroke="#191970" points="955.0765,-85.2476 950.7776,-75.5641 948.0995,-85.8149 955.0765,-85.2476"/>
</g>
<!-- Node34&#45;&gt;Node36 -->
<g id="edge36" class="edge">
<title>Node34&#45;&gt;Node36</title>
<path fill="none" stroke="#191970" d="M987.6375,-240.9005C1014.7401,-229.4077 1060.3099,-210.0838 1091.0039,-197.068"/>
<polygon fill="#191970" stroke="#191970" points="1092.5644,-200.208 1100.4044,-193.0817 1089.8316,-193.7635 1092.5644,-200.208"/>
</g>
<!-- Node36&#45;&gt;Node2 -->
<g id="edge37" class="edge">
<title>Node36&#45;&gt;Node2</title>
<path fill="none" stroke="#191970" d="M1113.405,-173.8714C1098.5593,-159.302 1068.7282,-131.3101 1040,-112 1021.5682,-99.6108 999.3637,-88.2285 981.6219,-79.8856"/>
<polygon fill="#191970" stroke="#191970" points="982.8234,-76.5855 972.2768,-75.5763 979.8921,-82.9423 982.8234,-76.5855"/>
</g>
<!-- Node36&#45;&gt;Node29 -->
<g id="edge38" class="edge">
<title>Node36&#45;&gt;Node29</title>
<path fill="none" stroke="#191970" d="M1191.7567,-178.6228C1347.0668,-167.606 1725.0057,-140.7972 1899.2587,-128.4367"/>
<polygon fill="#191970" stroke="#191970" points="1899.6992,-131.9143 1909.4264,-127.7154 1899.2038,-124.9319 1899.6992,-131.9143"/>
</g>
<!-- Node13&#45;&gt;Node2 -->
<g id="edge49" class="edge">
<title>Node13&#45;&gt;Node2</title>
<path fill="none" stroke="#191970" d="M2413.8206,-173.9781C2345.4418,-161.871 2231.7169,-141.4115 2190,-132 2156.3476,-124.4079 2149.1106,-117.1565 2115,-112 1887.8069,-77.6554 1147.3113,-68.0487 982.645,-66.3144"/>
<polygon fill="#191970" stroke="#191970" points="982.2551,-62.8103 972.2196,-66.2071 982.183,-69.8099 982.2551,-62.8103"/>
</g>
<!-- Node13&#45;&gt;Node14 -->
<g id="edge42" class="edge">
<title>Node13&#45;&gt;Node14</title>
<path fill="none" stroke="#191970" d="M2466.4842,-173.7551C2463.6159,-158.5156 2455.9873,-129.0287 2438,-112 2420.8533,-95.7671 2397.5982,-85.2062 2375.5539,-78.3595"/>
<polygon fill="#191970" stroke="#191970" points="2376.4495,-74.9751 2365.8707,-75.5576 2374.5038,-81.6993 2376.4495,-74.9751"/>
</g>
<!-- Node13&#45;&gt;Node17 -->
<g id="edge47" class="edge">
<title>Node13&#45;&gt;Node17</title>
<path fill="none" stroke="#191970" d="M2468.7154,-173.5846C2469.3127,-159.1334 2468.7265,-131.8482 2458,-112 2440.0303,-78.7489 2427.1185,-74.2128 2394,-56 2355.8232,-35.0055 2306.994,-22.6079 2274.2229,-16.071"/>
<polygon fill="#191970" stroke="#191970" points="2274.6604,-12.5913 2264.181,-14.1511 2273.3458,-19.4668 2274.6604,-12.5913"/>
</g>
<!-- Node13&#45;&gt;Node28 -->
<g id="edge50" class="edge">
<title>Node13&#45;&gt;Node28</title>
<path fill="none" stroke="#191970" d="M2462.0015,-173.9042C2451.7302,-158.3225 2429.2261,-127.6857 2402,-112 2338.4672,-75.3971 2312.2444,-93.3331 2241,-76 2240.9006,-75.9758 2240.801,-75.9516 2240.7013,-75.9273"/>
<polygon fill="#191970" stroke="#191970" points="2241.7428,-72.5801 2231.192,-73.5441 2240.0412,-79.3701 2241.7428,-72.5801"/>
</g>
<!-- Node13&#45;&gt;Node26 -->
<g id="edge48" class="edge">
<title>Node13&#45;&gt;Node26</title>
<path fill="none" stroke="#191970" d="M2413.9357,-173.9987C2355.0955,-163.2448 2265.1111,-145.4732 2233,-132 2202.5151,-119.2091 2171.2297,-97.1037 2151.718,-82.0306"/>
<polygon fill="#191970" stroke="#191970" points="2153.6486,-79.096 2143.6268,-75.6587 2149.3177,-84.5954 2153.6486,-79.096"/>
</g>
<!-- Node16 -->
<g id="node28" class="node">
<title>Node16</title>
<g id="a_node28"><a xlink:href="MatrixView_8h.html" target="_top" xlink:title="iDynTree/Core/MatrixView.h">
<polygon fill="none" stroke="#ff0000" points="2241.5,-112.5 2241.5,-131.5 2392.5,-131.5 2392.5,-112.5 2241.5,-112.5"/>
<text text-anchor="middle" x="2317" y="-119.5" font-family="FreeSans.ttf" font-size="10.00" fill="#000000">iDynTree/Core/MatrixView.h</text>
</a>
</g>
</g>
<!-- Node13&#45;&gt;Node16 -->
<g id="edge43" class="edge">
<title>Node13&#45;&gt;Node16</title>
<path fill="none" stroke="#191970" d="M2444.4063,-173.8906C2419.0304,-163.5554 2378.4919,-147.0447 2349.9707,-135.4284"/>
<polygon fill="#191970" stroke="#191970" points="2351.0096,-132.0725 2340.4281,-131.5419 2348.3692,-138.5554 2351.0096,-132.0725"/>
</g>
<!-- Node16&#45;&gt;Node14 -->
<g id="edge46" class="edge">
<title>Node16&#45;&gt;Node14</title>
<path fill="none" stroke="#191970" d="M2315.6065,-112.2455C2314.5626,-104.9382 2313.0992,-94.6944 2311.8149,-85.7046"/>
<polygon fill="#191970" stroke="#191970" points="2315.2566,-85.0472 2310.3775,-75.6427 2308.327,-86.0372 2315.2566,-85.0472"/>
</g>
<!-- Node16&#45;&gt;Node19 -->
<g id="edge45" class="edge">
<title>Node16&#45;&gt;Node19</title>
<path fill="none" stroke="#191970" d="M2261.1582,-112.4369C2204.2542,-102.6918 2116.0304,-87.5832 2055.7764,-77.2645"/>
<polygon fill="#191970" stroke="#191970" points="2056.0588,-73.7619 2045.6114,-75.5237 2054.8771,-80.6615 2056.0588,-73.7619"/>
</g>
<!-- Node16&#45;&gt;Node17 -->
<g id="edge44" class="edge">
<title>Node16&#45;&gt;Node17</title>
<path fill="none" stroke="#191970" d="M2337.4764,-112.3666C2360.792,-100.0586 2393.7384,-77.7374 2378,-56 2365.6571,-38.9524 2311.3509,-24.8169 2274.1194,-16.892"/>
<polygon fill="#191970" stroke="#191970" points="2274.6217,-13.4219 2264.1201,-14.8242 2273.2041,-20.2768 2274.6217,-13.4219"/>
</g>
<!-- Node43&#45;&gt;Node2 -->
<g id="edge55" class="edge">
<title>Node43&#45;&gt;Node2</title>
<path fill="none" stroke="#191970" d="M486.9799,-363.8266C495.5391,-324.7014 533.2501,-177.1607 627,-112 673.5626,-79.6367 844.8713,-69.7587 917.3117,-66.9905"/>
<polygon fill="#191970" stroke="#191970" points="917.7883,-70.4757 927.656,-66.6184 917.5365,-63.4803 917.7883,-70.4757"/>
</g>
<!-- Node43&#45;&gt;Node6 -->
<g id="edge58" class="edge">
<title>Node43&#45;&gt;Node6</title>
<path fill="none" stroke="#191970" d="M491.4308,-363.9982C502.3986,-348.5517 526.2481,-318.1049 554,-302 591.5285,-280.2216 638.1809,-267.5564 677.2959,-260.2406"/>
<polygon fill="#191970" stroke="#191970" points="678.3595,-263.6062 687.5896,-258.4048 677.1304,-256.7149 678.3595,-263.6062"/>
</g>
<!-- Node43&#45;&gt;Node42 -->
<g id="edge57" class="edge">
<title>Node43&#45;&gt;Node42</title>
<path fill="none" stroke="#191970" d="M566.914,-365.2404C593.9836,-362.6864 624.2659,-360.0172 652,-358 951.7713,-336.1969 1030.415,-348.1388 1333.3006,-322.0932"/>
<polygon fill="#191970" stroke="#191970" points="1334.0482,-325.5417 1343.7085,-321.191 1333.4436,-318.5678 1334.0482,-325.5417"/>
</g>
<!-- Node43&#45;&gt;Node44 -->
<g id="edge54" class="edge">
<title>Node43&#45;&gt;Node44</title>
<path fill="none" stroke="#191970" d="M501.0938,-363.8906C517.7228,-353.9616 543.8976,-338.333 563.1794,-326.8201"/>
<polygon fill="#191970" stroke="#191970" points="565.2276,-329.6736 572.0193,-321.5419 561.639,-323.6634 565.2276,-329.6736"/>
</g>
<!-- Node43&#45;&gt;Node45 -->
<g id="edge56" class="edge">
<title>Node43&#45;&gt;Node45</title>
<path fill="none" stroke="#191970" d="M473.75,-363.8906C462.614,-354.3786 445.354,-339.6357 432.0732,-328.2917"/>
<polygon fill="#191970" stroke="#191970" points="434.2856,-325.5784 424.4086,-321.7449 429.7392,-330.9011 434.2856,-325.5784"/>
</g>
<!-- Node46&#45;&gt;Node2 -->
<g id="edge62" class="edge">
<title>Node46&#45;&gt;Node2</title>
<path fill="none" stroke="#191970" d="M212.1111,-492.1981C191.0964,-472.144 147,-424.0417 147,-373.5 147,-373.5 147,-373.5 147,-183.5 147,-104.2918 766.5959,-73.5748 917.2712,-67.2759"/>
<polygon fill="#191970" stroke="#191970" points="917.8371,-70.7557 927.6851,-66.8485 917.5499,-63.7616 917.8371,-70.7557"/>
</g>
<!-- Node46&#45;&gt;Node4 -->
<g id="edge67" class="edge">
<title>Node46&#45;&gt;Node4</title>
<path fill="none" stroke="#191970" d="M267.684,-492.4581C318.5525,-481.5956 401.6595,-463.8488 456.3451,-452.1711"/>
<polygon fill="#191970" stroke="#191970" points="457.1626,-455.5755 466.2112,-450.0643 455.7007,-448.7299 457.1626,-455.5755"/>
</g>
<!-- Node46&#45;&gt;Node6 -->
<g id="edge68" class="edge">
<title>Node46&#45;&gt;Node6</title>
<path fill="none" stroke="#191970" d="M224.2066,-492.411C226.4401,-477.2402 232.2096,-447.1544 245,-425 283.0309,-359.1264 296.0507,-336.1843 364,-302 417.3593,-275.1557 579.0828,-261.0361 677.6571,-254.7281"/>
<polygon fill="#191970" stroke="#191970" points="678.1162,-258.2063 687.8777,-254.0875 677.6783,-251.22 678.1162,-258.2063"/>
</g>
<!-- Node46&#45;&gt;Node45 -->
<g id="edge63" class="edge">
<title>Node46&#45;&gt;Node45</title>
<path fill="none" stroke="#191970" d="M227.5507,-492.3877C239.8046,-467.3589 275.7854,-399.2564 323,-358 339.6122,-343.4842 361.6134,-332.1318 379.7043,-324.3365"/>
<polygon fill="#191970" stroke="#191970" points="381.388,-327.4278 389.2935,-320.3742 378.7147,-320.9584 381.388,-327.4278"/>
</g>
<!-- Node47 -->
<g id="node33" class="node">
<title>Node47</title>
<g id="a_node33"><a xlink:href="VectorDynSize_8h.html" target="_top" xlink:title="iDynTree/Core/VectorDynSize.h">
<polygon fill="none" stroke="#000000" points="1423.5,-112.5 1423.5,-131.5 1590.5,-131.5 1590.5,-112.5 1423.5,-112.5"/>
<text text-anchor="middle" x="1507" y="-119.5" font-family="FreeSans.ttf" font-size="10.00" fill="#000000">iDynTree/Core/VectorDynSize.h</text>
</a>
</g>
</g>
<!-- Node46&#45;&gt;Node47 -->
<g id="edge64" class="edge">
<title>Node46&#45;&gt;Node47</title>
<path fill="none" stroke="#191970" d="M222.5608,-492.3075C222.1542,-477.5015 222.4042,-448.4954 229,-425 247.8169,-357.9706 263.8946,-333.4633 326,-302 579.4245,-173.6123 669.9683,-209.5757 951,-168 1112.4383,-144.1169 1302.2188,-131.7455 1413.1021,-126.0783"/>
<polygon fill="#191970" stroke="#191970" points="1413.4418,-129.5658 1423.253,-125.567 1413.0896,-122.5746 1413.4418,-129.5658"/>
</g>
<!-- Node47&#45;&gt;Node2 -->
<g id="edge66" class="edge">
<title>Node47&#45;&gt;Node2</title>
<path fill="none" stroke="#191970" d="M1423.4028,-113.3653C1418.8693,-112.9022 1414.3792,-112.4447 1410,-112 1249.4166,-95.6934 1057.2515,-76.6187 982.2275,-69.1885"/>
<polygon fill="#191970" stroke="#191970" points="982.3223,-65.6809 972.026,-68.1785 981.6325,-72.6468 982.3223,-65.6809"/>
</g>
<!-- Node47&#45;&gt;Node19 -->
<g id="edge65" class="edge">
<title>Node47&#45;&gt;Node19</title>
<path fill="none" stroke="#191970" d="M1589.2079,-112.4686C1681.9421,-101.7169 1831.2408,-84.4069 1919.0641,-74.2245"/>
<polygon fill="#191970" stroke="#191970" points="1919.6691,-77.6778 1929.1994,-73.0493 1918.8628,-70.7244 1919.6691,-77.6778"/>
</g>
<!-- Node49&#45;&gt;Node7 -->
<g id="edge73" class="edge">
<title>Node49&#45;&gt;Node7</title>
<path fill="none" stroke="#191970" d="M2148.7267,-363.9725C2157.0957,-348.203 2176.11,-316.9365 2202,-302 2290.4808,-250.9538 2331.1505,-295.3264 2429,-266 2504.57,-243.351 2599.2314,-243.6939 2577,-168 2568.6621,-139.611 2564.2799,-130.2621 2541,-112 2460.0709,-48.5146 2136.8953,-20.3145 2026.8864,-12.4233"/>
<polygon fill="#191970" stroke="#191970" points="2026.8434,-8.9117 2016.6226,-11.702 2026.3526,-15.8945 2026.8434,-8.9117"/>
</g>
<!-- Node49&#45;&gt;Node29 -->
<g id="edge76" class="edge">
<title>Node49&#45;&gt;Node29</title>
<path fill="none" stroke="#191970" d="M2199.4499,-363.9196C2243.2683,-355.0864 2299.2625,-340.5475 2313,-322 2318.2906,-314.857 2316.658,-310.1013 2313,-302 2294.4693,-260.9602 2276.2063,-257.1477 2237,-235 2190.7382,-208.8666 2171.0798,-221.6151 2123,-199 2100.0196,-188.1908 2096.8504,-180.9421 2075,-168 2056.294,-156.9204 2034.7489,-145.2724 2018.0306,-136.4697"/>
<polygon fill="#191970" stroke="#191970" points="2019.2859,-133.1764 2008.8028,-131.6414 2016.0406,-139.3787 2019.2859,-133.1764"/>
</g>
<!-- Node49&#45;&gt;Node14 -->
<g id="edge84" class="edge">
<title>Node49&#45;&gt;Node14</title>
<path fill="none" stroke="#191970" d="M2144.4349,-363.6012C2145.6637,-348.151 2150.3326,-318.3805 2168,-302 2215.7441,-257.7336 2247.0154,-282.4909 2310,-266 2420.4507,-237.0813 2488.5889,-289.6518 2558,-199 2611.1289,-129.613 2469.4361,-92.3601 2378.5488,-76.1404"/>
<polygon fill="#191970" stroke="#191970" points="2379.006,-72.6675 2368.5546,-74.4044 2377.808,-79.5642 2379.006,-72.6675"/>
</g>
<!-- Node49&#45;&gt;Node31 -->
<g id="edge81" class="edge">
<title>Node49&#45;&gt;Node31</title>
<path fill="none" stroke="#191970" d="M2119.5518,-363.9634C2080.8609,-349.1392 2002.932,-320.3661 1935,-302 1856.6639,-280.8211 1834.8559,-285.1529 1756,-266 1675.2364,-246.3838 1583.0921,-219.239 1524.9965,-201.5287"/>
<polygon fill="#191970" stroke="#191970" points="1525.8508,-198.13 1515.2644,-198.553 1523.8039,-204.8241 1525.8508,-198.13"/>
</g>
<!-- Node49&#45;&gt;Node39 -->
<g id="edge82" class="edge">
<title>Node49&#45;&gt;Node39</title>
<path fill="none" stroke="#191970" d="M2224.6155,-364.2653C2271.2315,-355.0867 2317.0585,-337.055 2297,-302 2267.8126,-250.991 2237.6061,-256.7257 2183,-235 2138.1975,-217.1748 2085.7823,-204.7029 2042.9234,-196.5021"/>
<polygon fill="#191970" stroke="#191970" points="2043.5631,-193.0612 2033.09,-194.663 2042.2761,-199.9418 2043.5631,-193.0612"/>
</g>
<!-- Node49&#45;&gt;Node42 -->
<g id="edge83" class="edge">
<title>Node49&#45;&gt;Node42</title>
<path fill="none" stroke="#191970" d="M2063.4206,-366.6834C1924.4731,-354.9293 1641.1897,-330.9652 1500.3495,-319.0509"/>
<polygon fill="#191970" stroke="#191970" points="1500.3074,-315.5349 1490.048,-318.1794 1499.7173,-322.51 1500.3074,-315.5349"/>
</g>
<!-- Node49&#45;&gt;Node13 -->
<g id="edge80" class="edge">
<title>Node49&#45;&gt;Node13</title>
<path fill="none" stroke="#191970" d="M2207.6913,-363.9855C2264.3087,-354.615 2342.0217,-339.2331 2368,-322 2413.7629,-291.6425 2445.6421,-232.7404 2459.7799,-202.4694"/>
<polygon fill="#191970" stroke="#191970" points="2463.1077,-203.6042 2464.0344,-193.05 2456.7283,-200.7228 2463.1077,-203.6042"/>
</g>
<!-- Node49&#45;&gt;Node47 -->
<g id="edge75" class="edge">
<title>Node49&#45;&gt;Node47</title>
<path fill="none" stroke="#191970" d="M2125.4956,-363.9703C2095.8662,-349.0259 2035.6475,-319.9357 1982,-302 1915.3372,-279.7129 1893.9049,-290.4375 1828,-266 1739.6517,-233.2405 1726.5384,-205.2789 1640,-168 1609.9556,-155.0575 1574.9562,-143.07 1548.4039,-134.5789"/>
<polygon fill="#191970" stroke="#191970" points="1549.2589,-131.1785 1538.669,-131.5012 1547.1487,-137.8529 1549.2589,-131.1785"/>
</g>
<!-- Node50 -->
<g id="node36" class="node">
<title>Node50</title>
<polygon fill="none" stroke="#bfbfbf" points="2210.5,-302.5 2210.5,-321.5 2287.5,-321.5 2287.5,-302.5 2210.5,-302.5"/>
<text text-anchor="middle" x="2249" y="-309.5" font-family="FreeSans.ttf" font-size="10.00" fill="#000000">Eigen/Dense</text>
</g>
<!-- Node49&#45;&gt;Node50 -->
<g id="edge74" class="edge">
<title>Node49&#45;&gt;Node50</title>
<path fill="none" stroke="#191970" d="M2160.4063,-363.8906C2177.4353,-353.9165 2204.2841,-338.1908 2223.9651,-326.6633"/>
<polygon fill="#191970" stroke="#191970" points="2225.849,-329.6161 2232.709,-321.5419 2222.3112,-323.5759 2225.849,-329.6161"/>
</g>
<!-- Node51 -->
<g id="node37" class="node">
<title>Node51</title>
<g id="a_node37"><a xlink:href="MatrixDynSize_8h.html" target="_top" xlink:title="iDynTree/Core/MatrixDynSize.h">
<polygon fill="none" stroke="#000000" points="2202.5,-174 2202.5,-193 2369.5,-193 2369.5,-174 2202.5,-174"/>
<text text-anchor="middle" x="2286" y="-181" font-family="FreeSans.ttf" font-size="10.00" fill="#000000">iDynTree/Core/MatrixDynSize.h</text>
</a>
</g>
</g>
<!-- Node49&#45;&gt;Node51 -->
<g id="edge77" class="edge">
<title>Node49&#45;&gt;Node51</title>
<path fill="none" stroke="#191970" d="M2137.556,-363.5323C2128.7482,-348.52 2115.5951,-319.9574 2130,-302 2176.1514,-244.467 2245.8486,-323.533 2292,-266 2306.2634,-248.219 2300.5323,-220.7707 2294.118,-202.4793"/>
<polygon fill="#191970" stroke="#191970" points="2297.3793,-201.2087 2290.5077,-193.1444 2290.8505,-203.7337 2297.3793,-201.2087"/>
</g>
<!-- Node51&#45;&gt;Node2 -->
<g id="edge78" class="edge">
<title>Node51&#45;&gt;Node2</title>
<path fill="none" stroke="#191970" d="M2251.2079,-173.924C2217.8961,-164.4247 2166.4289,-148.8789 2123,-132 2103.3544,-124.3646 2100.4829,-116.9695 2080,-112 1970.9547,-85.5436 1155.6214,-69.6569 982.322,-66.5589"/>
<polygon fill="#191970" stroke="#191970" points="982.1318,-63.0551 972.0713,-66.3773 982.0077,-70.054 982.1318,-63.0551"/>
</g>
<!-- Node51&#45;&gt;Node16 -->
<g id="edge79" class="edge">
<title>Node51&#45;&gt;Node16</title>
<path fill="none" stroke="#191970" d="M2290.8438,-173.8906C2295.2766,-165.0965 2301.9631,-151.8312 2307.4659,-140.9145"/>
<polygon fill="#191970" stroke="#191970" points="2310.7122,-142.25 2312.088,-131.7449 2304.4614,-139.0992 2310.7122,-142.25"/>
</g>
<!-- Node52&#45;&gt;Node6 -->
<g id="edge90" class="edge">
<title>Node52&#45;&gt;Node6</title>
<path fill="none" stroke="#191970" d="M736.7263,-363.8484C740.3248,-343.7295 748.6899,-296.9608 753.4747,-270.2098"/>
<polygon fill="#191970" stroke="#191970" points="756.9663,-270.5668 755.2817,-260.1068 750.0756,-269.3343 756.9663,-270.5668"/>
</g>
<!-- Node52&#45;&gt;Node45 -->
<g id="edge91" class="edge">
<title>Node52&#45;&gt;Node45</title>
<path fill="none" stroke="#191970" d="M685.0408,-363.9581C618.6881,-351.2851 503.2748,-329.2419 446.4985,-318.398"/>
<polygon fill="#191970" stroke="#191970" points="447.0836,-314.9466 436.6045,-316.5083 445.7703,-321.8223 447.0836,-314.9466"/>
</g>
<!-- Node53&#45;&gt;Node5 -->
<g id="edge95" class="edge">
<title>Node53&#45;&gt;Node5</title>
<path fill="none" stroke="#191970" d="M1072.2188,-363.8906C1061.6474,-354.4683 1045.3175,-339.9134 1032.6397,-328.6137"/>
<polygon fill="#191970" stroke="#191970" points="1034.7272,-325.7858 1024.9333,-321.7449 1030.0696,-331.0114 1034.7272,-325.7858"/>
</g>
<!-- Node53&#45;&gt;Node6 -->
<g id="edge94" class="edge">
<title>Node53&#45;&gt;Node6</title>
<path fill="none" stroke="#191970" d="M1056.2384,-363.9986C1027.6424,-353.7982 981.016,-337.0291 941,-322 888.3596,-302.2295 827.6132,-278.4312 790.7745,-263.8893"/>
<polygon fill="#191970" stroke="#191970" points="791.6312,-260.4645 781.0447,-260.0442 789.0584,-266.9746 791.6312,-260.4645"/>
</g>
<!-- Node53&#45;&gt;Node42 -->
<g id="edge93" class="edge">
<title>Node53&#45;&gt;Node42</title>
<path fill="none" stroke="#191970" d="M1134.821,-363.9581C1194.3909,-352.9894 1292.0827,-335.0012 1355.4654,-323.3305"/>
<polygon fill="#191970" stroke="#191970" points="1356.1314,-326.7668 1365.3322,-321.5137 1354.8637,-319.8825 1356.1314,-326.7668"/>
</g>
<!-- Node54&#45;&gt;Node6 -->
<g id="edge103" class="edge">
<title>Node54&#45;&gt;Node6</title>
<path fill="none" stroke="#191970" d="M1567.2874,-425.3171C1520.0074,-402.7677 1434.9709,-362.5766 1420,-358 1324.8307,-328.9069 1296.343,-342.6869 1199,-322 1164.8352,-314.7394 1157.2865,-308.6625 1123,-302 998.5367,-277.8145 965.2601,-285.646 840,-266 832.0723,-264.7566 823.7399,-263.3362 815.5382,-261.8714"/>
<polygon fill="#191970" stroke="#191970" points="816.0996,-258.4162 805.6349,-260.0715 814.8478,-265.3034 816.0996,-258.4162"/>
</g>
<!-- Node54&#45;&gt;Node31 -->
<g id="edge98" class="edge">
<title>Node54&#45;&gt;Node31</title>
<path fill="none" stroke="#191970" d="M1594.94,-425.1983C1586.2207,-395.6714 1562.6873,-331.1791 1517,-302 1449.8004,-259.0816 1213.4785,-325.1425 1160,-266 1150.7593,-255.7806 1151.0999,-245.5174 1160,-235 1174.1669,-218.2586 1293.7975,-202.0422 1379.4523,-192.4159"/>
<polygon fill="#191970" stroke="#191970" points="1379.9059,-195.8871 1389.4581,-191.3038 1379.1326,-188.93 1379.9059,-195.8871"/>
</g>
<!-- Node54&#45;&gt;Node42 -->
<g id="edge97" class="edge">
<title>Node54&#45;&gt;Node42</title>
<path fill="none" stroke="#191970" d="M1577.4075,-425.2548C1542.5124,-400.6173 1474.0936,-352.3106 1438.9629,-327.5068"/>
<polygon fill="#191970" stroke="#191970" points="1440.977,-324.6444 1430.7892,-321.7358 1436.9396,-330.3627 1440.977,-324.6444"/>
</g>
<!-- Node55 -->
<g id="node41" class="node">
<title>Node55</title>
<g id="a_node41"><a xlink:href="Axis_8h.html" target="_top" xlink:title="iDynTree/Core/Axis.h">
<polygon fill="none" stroke="#ff0000" points="1208,-302.5 1208,-321.5 1326,-321.5 1326,-302.5 1208,-302.5"/>
<text text-anchor="middle" x="1267" y="-309.5" font-family="FreeSans.ttf" font-size="10.00" fill="#000000">iDynTree/Core/Axis.h</text>
</a>
</g>
</g>
<!-- Node54&#45;&gt;Node55 -->
<g id="edge99" class="edge">
<title>Node54&#45;&gt;Node55</title>
<path fill="none" stroke="#191970" d="M1577.968,-425.4462C1563.9608,-415.3182 1545.2187,-401.5691 1529,-389 1511.772,-375.6487 1510.688,-367.3511 1491,-358 1464.0344,-345.1923 1391.4468,-331.5576 1336.1455,-322.4876"/>
<polygon fill="#191970" stroke="#191970" points="1336.4669,-318.9941 1326.0356,-320.8484 1335.3465,-325.9039 1336.4669,-318.9941"/>
</g>
<!-- Node57 -->
<g id="node42" class="node">
<title>Node57</title>
<g id="a_node42"><a xlink:href="MovableJointImpl_8h.html" target="_top" xlink:title="iDynTree/Model/MovableJoint\lImpl.h">
<polygon fill="none" stroke="#000000" points="1253,-358.5 1253,-388.5 1411,-388.5 1411,-358.5 1253,-358.5"/>
<text text-anchor="start" x="1261" y="-376.5" font-family="FreeSans.ttf" font-size="10.00" fill="#000000">iDynTree/Model/MovableJoint</text>
<text text-anchor="middle" x="1332" y="-365.5" font-family="FreeSans.ttf" font-size="10.00" fill="#000000">Impl.h</text>
</a>
</g>
</g>
<!-- Node54&#45;&gt;Node57 -->
<g id="edge104" class="edge">
<title>Node54&#45;&gt;Node57</title>
<path fill="none" stroke="#191970" d="M1539.08,-425.4639C1498.4276,-415.2627 1444.5372,-401.7397 1401.9228,-391.0462"/>
<polygon fill="#191970" stroke="#191970" points="1402.7325,-387.6409 1392.1814,-388.6017 1401.0287,-394.4304 1402.7325,-387.6409"/>
</g>
<!-- Node55&#45;&gt;Node2 -->
<g id="edge100" class="edge">
<title>Node55&#45;&gt;Node2</title>
<path fill="none" stroke="#191970" d="M1207.7614,-305.2738C1102.2775,-293.2291 892.6158,-268.9543 890,-266 842.3905,-212.2283 904.4054,-121.9012 934.883,-83.8034"/>
<polygon fill="#191970" stroke="#191970" points="937.8986,-85.6456 941.5323,-75.6934 932.4854,-81.2074 937.8986,-85.6456"/>
</g>
<!-- Node55&#45;&gt;Node14 -->
<g id="edge102" class="edge">
<title>Node55&#45;&gt;Node14</title>
<path fill="none" stroke="#191970" d="M1207.8513,-305.0662C1110.9657,-293.5715 928.6421,-271.3062 924,-266 914.9282,-255.6304 916.9839,-246.8576 924,-235 955.5015,-181.7607 986.6094,-185.3067 1046,-168 1164.4443,-133.4848 1476.9861,-141.3775 1600,-132 1881.3688,-110.5509 1954.6655,-108.9691 2238.9842,-76.0638"/>
<polygon fill="#191970" stroke="#191970" points="2239.658,-79.5092 2249.188,-74.8799 2238.8512,-72.5558 2239.658,-79.5092"/>
</g>
<!-- Node55&#45;&gt;Node34 -->
<g id="edge101" class="edge">
<title>Node55&#45;&gt;Node34</title>
<path fill="none" stroke="#191970" d="M1207.7541,-303.7201C1155.7476,-295.8818 1078.2771,-282.8185 1012,-266 1008.5647,-265.1283 1005.0162,-264.135 1001.4801,-263.082"/>
<polygon fill="#191970" stroke="#191970" points="1002.2409,-259.6528 991.652,-260.0077 1000.151,-266.3336 1002.2409,-259.6528"/>
</g>
<!-- Node57&#45;&gt;Node5 -->
<g id="edge105" class="edge">
<title>Node57&#45;&gt;Node5</title>
<path fill="none" stroke="#191970" d="M1254.2084,-358.4554C1198.3567,-347.6539 1124.2308,-333.3182 1073.1709,-323.4434"/>
<polygon fill="#191970" stroke="#191970" points="1073.7614,-319.9928 1063.2787,-321.5303 1072.4322,-326.8655 1073.7614,-319.9928"/>
</g>
<!-- Node58&#45;&gt;Node6 -->
<g id="edge110" class="edge">
<title>Node58&#45;&gt;Node6</title>
<path fill="none" stroke="#191970" d="M1382.0304,-430.9208C1344.3788,-422.1784 1289.634,-407.7672 1244,-389 1170.2206,-358.6579 1162.5893,-327.5011 1087,-302 981.8831,-266.5374 949.4368,-284.1862 840,-266 832.2727,-264.7159 824.1548,-263.2925 816.1462,-261.8439"/>
<polygon fill="#191970" stroke="#191970" points="816.5648,-258.3624 806.098,-260.0041 815.3041,-265.248 816.5648,-258.3624"/>
</g>
<!-- Node58&#45;&gt;Node31 -->
<g id="edge108" class="edge">
<title>Node58&#45;&gt;Node31</title>
<path fill="none" stroke="#191970" d="M1439.3057,-430.7439C1468.3783,-406.5753 1536.1668,-342.9266 1499,-302 1443.0162,-240.3528 1181.9838,-327.6472 1126,-266 1116.7374,-255.8004 1117.0145,-245.4445 1126,-235 1142.3816,-215.9586 1283.8132,-199.7516 1379.3119,-190.845"/>
<polygon fill="#191970" stroke="#191970" points="1379.6341,-194.3302 1389.2706,-189.927 1378.9916,-187.3598 1379.6341,-194.3302"/>
</g>
<!-- Node58&#45;&gt;Node42 -->
<g id="edge107" class="edge">
<title>Node58&#45;&gt;Node42</title>
<path fill="none" stroke="#191970" d="M1434.1504,-430.7922C1444.6347,-415.3137 1462.0068,-384.1228 1453,-358 1449.2813,-347.2144 1441.8787,-337.0249 1434.7481,-328.9904"/>
<polygon fill="#191970" stroke="#191970" points="1437.2791,-326.5729 1427.8548,-321.7321 1432.2033,-331.3934 1437.2791,-326.5729"/>
</g>
<!-- Node58&#45;&gt;Node55 -->
<g id="edge109" class="edge">
<title>Node58&#45;&gt;Node55</title>
<path fill="none" stroke="#191970" d="M1429.3302,-430.84C1432.7759,-414.0097 1437.1185,-379.0958 1420,-358 1408.3779,-343.6776 1367.5373,-331.8214 1330.974,-323.7345"/>
<polygon fill="#191970" stroke="#191970" points="1331.3139,-320.2279 1320.8025,-321.5546 1329.847,-327.0725 1331.3139,-320.2279"/>
</g>
<!-- Node58&#45;&gt;Node57 -->
<g id="edge111" class="edge">
<title>Node58&#45;&gt;Node57</title>
<path fill="none" stroke="#191970" d="M1413.3888,-430.9005C1400.0198,-421.4718 1379.1774,-406.7725 1361.9315,-394.6096"/>
<polygon fill="#191970" stroke="#191970" points="1363.4888,-391.425 1353.2995,-388.5218 1359.4544,-397.1455 1363.4888,-391.425"/>
</g>
<!-- Node59&#45;&gt;Node2 -->
<g id="edge116" class="edge">
<title>Node59&#45;&gt;Node2</title>
<path fill="none" stroke="#191970" d="M1817.3721,-363.6264C1804.5392,-349.2271 1779.3164,-322.0061 1755,-302 1672.0894,-233.786 1653.7997,-207.5895 1554,-168 1447.3319,-125.6859 1091.257,-82.2253 982.0933,-69.6233"/>
<polygon fill="#191970" stroke="#191970" points="982.3615,-66.1311 972.0276,-68.4682 981.5633,-73.0855 982.3615,-66.1311"/>
</g>
<!-- Node59&#45;&gt;Node29 -->
<g id="edge119" class="edge">
<title>Node59&#45;&gt;Node29</title>
<path fill="none" stroke="#191970" d="M1846.2267,-363.9436C1887.2,-344.5906 1976.2885,-302.5421 1978,-302 2066.1869,-274.066 2123.5141,-336.8425 2183,-266 2191.8599,-255.4487 2191.056,-246.1771 2183,-235 2153.4157,-193.954 2118.4501,-224.9246 2075,-199 2057.7191,-188.6893 2056.8711,-181.5569 2042,-168 2031.1442,-158.1035 2018.8391,-147.2042 2008.9251,-138.4999"/>
<polygon fill="#191970" stroke="#191970" points="2011.0733,-135.7288 2001.244,-131.7748 2006.4622,-140.9955 2011.0733,-135.7288"/>
</g>
<!-- Node59&#45;&gt;Node28 -->
<g id="edge115" class="edge">
<title>Node59&#45;&gt;Node28</title>
<path fill="none" stroke="#191970" d="M1870.0041,-363.9571C1964.4618,-343.0404 2179.7556,-292.883 2200,-266 2217.9848,-242.1175 2196.4659,-228.7951 2194,-199 2190.6744,-158.8178 2196.0435,-111.7297 2199.8132,-85.745"/>
<polygon fill="#191970" stroke="#191970" points="2203.2995,-86.1001 2201.3484,-75.6865 2196.3796,-85.0439 2203.2995,-86.1001"/>
</g>
<!-- Node59&#45;&gt;Node42 -->
<g id="edge118" class="edge">
<title>Node59&#45;&gt;Node42</title>
<path fill="none" stroke="#191970" d="M1770.8404,-365.2058C1698.3864,-354.3112 1570.9397,-335.1474 1490.3986,-323.0367"/>
<polygon fill="#191970" stroke="#191970" points="1490.739,-319.5486 1480.3297,-321.5227 1489.6981,-326.4708 1490.739,-319.5486"/>
</g>
<!-- Node59&#45;&gt;Node44 -->
<g id="edge114" class="edge">
<title>Node59&#45;&gt;Node44</title>
<path fill="none" stroke="#191970" d="M1770.8046,-370.7581C1558.2389,-360.1985 795.854,-322.3255 623.0144,-313.7394"/>
<polygon fill="#191970" stroke="#191970" points="623.1052,-310.2397 612.9439,-313.2391 622.7578,-317.2311 623.1052,-310.2397"/>
</g>
<!-- Node59&#45;&gt;Node45 -->
<g id="edge117" class="edge">
<title>Node59&#45;&gt;Node45</title>
<path fill="none" stroke="#191970" d="M1770.744,-371.362C1542.1182,-362.5025 676.4042,-328.8169 554,-322 517.4987,-319.9672 475.7331,-316.914 447.1899,-314.7163"/>
<polygon fill="#191970" stroke="#191970" points="447.1774,-311.2049 436.9364,-313.9199 446.6352,-318.1839 447.1774,-311.2049"/>
</g>
<!-- Node60 -->
<g id="node45" class="node">
<title>Node60</title>
<polygon fill="none" stroke="#bfbfbf" points="1802.5,-302.5 1802.5,-321.5 1849.5,-321.5 1849.5,-302.5 1802.5,-302.5"/>
<text text-anchor="middle" x="1826" y="-309.5" font-family="FreeSans.ttf" font-size="10.00" fill="#000000">cmath</text>
</g>
<!-- Node59&#45;&gt;Node60 -->
<g id="edge113" class="edge">
<title>Node59&#45;&gt;Node60</title>
<path fill="none" stroke="#191970" d="M1826,-363.8906C1826,-355.3657 1826,-342.6392 1826,-331.9235"/>
<polygon fill="#191970" stroke="#191970" points="1829.5001,-331.7448 1826,-321.7449 1822.5001,-331.7449 1829.5001,-331.7448"/>
</g>
<!-- Node61 -->
<g id="node46" class="node">
<title>Node61</title>
<polygon fill="none" stroke="#bfbfbf" points="1868,-302.5 1868,-321.5 1926,-321.5 1926,-302.5 1868,-302.5"/>
<text text-anchor="middle" x="1897" y="-309.5" font-family="FreeSans.ttf" font-size="10.00" fill="#000000">fpconv.h</text>
</g>
<!-- Node59&#45;&gt;Node61 -->
<g id="edge120" class="edge">
<title>Node59&#45;&gt;Node61</title>
<path fill="none" stroke="#191970" d="M1837.0938,-363.8906C1847.9715,-354.4683 1864.7748,-339.9134 1877.82,-328.6137"/>
<polygon fill="#191970" stroke="#191970" points="1880.4827,-330.9377 1885.7498,-321.7449 1875.8996,-325.6466 1880.4827,-330.9377"/>
</g>
</g>
</svg>
