<?xml version="1.0" encoding="UTF-8" standalone="no"?>
<!DOCTYPE svg PUBLIC "-//W3C//DTD SVG 1.1//EN"
 "http://www.w3.org/Graphics/SVG/1.1/DTD/svg11.dtd">
<!-- Generated by graphviz version 2.40.1 (20161225.0304)
 -->
<!-- Title: YARPConversions.cpp Pages: 1 -->
<svg width="1214pt" height="655pt"
 viewBox="0.00 0.00 1214.37 655.00" xmlns="http://www.w3.org/2000/svg" xmlns:xlink="http://www.w3.org/1999/xlink">
<g id="graph0" class="graph" transform="scale(1 1) rotate(0) translate(4 651)">
<title>YARPConversions.cpp</title>
<!-- Node0 -->
<g id="node1" class="node">
<title>Node0</title>
<polygon fill="#bfbfbf" stroke="#000000" points="834.8741,-627.5 834.8741,-646.5 956.8741,-646.5 956.8741,-627.5 834.8741,-627.5"/>
<text text-anchor="middle" x="895.8741" y="-634.5" font-family="FreeSans.ttf" font-size="10.00" fill="#000000">YARPConversions.cpp</text>
</g>
<!-- Node1 -->
<g id="node2" class="node">
<title>Node1</title>
<g id="a_node2"><a xlink:href="YARPConversions_8h.html" target="_top" xlink:title="iDynTree/yarp/YARPConversions.h">
<polygon fill="none" stroke="#000000" points="438.3741,-571.5 438.3741,-590.5 619.3741,-590.5 619.3741,-571.5 438.3741,-571.5"/>
<text text-anchor="middle" x="528.8741" y="-578.5" font-family="FreeSans.ttf" font-size="10.00" fill="#000000">iDynTree/yarp/YARPConversions.h</text>
</a>
</g>
</g>
<!-- Node0&#45;&gt;Node1 -->
<g id="edge1" class="edge">
<title>Node0&#45;&gt;Node1</title>
<path fill="none" stroke="#191970" d="M834.8595,-627.6899C770.6879,-617.898 669.7365,-602.494 601.5031,-592.0824"/>
<polygon fill="#191970" stroke="#191970" points="601.6765,-588.5684 591.263,-590.5198 600.6206,-595.4883 601.6765,-588.5684"/>
</g>
<!-- Node21 -->
<g id="node22" class="node">
<title>Node21</title>
<polygon fill="none" stroke="#bfbfbf" points="283.8741,-112.5 283.8741,-131.5 333.8741,-131.5 333.8741,-112.5 283.8741,-112.5"/>
<text text-anchor="middle" x="308.8741" y="-119.5" font-family="FreeSans.ttf" font-size="10.00" fill="#000000">cstring</text>
</g>
<!-- Node0&#45;&gt;Node21 -->
<g id="edge69" class="edge">
<title>Node0&#45;&gt;Node21</title>
<path fill="none" stroke="#191970" d="M898.6776,-627.2066C903.9628,-607.8521 914.8741,-563.2612 914.8741,-525 914.8741,-525 914.8741,-525 914.8741,-346 914.8741,-157.0824 713.5632,-207.7469 528.8741,-168 463.6777,-153.9691 387.4781,-138.1702 344.0253,-129.2176"/>
<polygon fill="#191970" stroke="#191970" points="344.4696,-125.7357 333.9693,-127.1475 343.0582,-132.592 344.4696,-125.7357"/>
</g>
<!-- Node31 -->
<g id="node32" class="node">
<title>Node31</title>
<g id="a_node32"><a xlink:href="Direction_8h.html" target="_top" xlink:title="iDynTree/Core/Direction.h">
<polygon fill="none" stroke="#000000" points="905.3741,-224.5 905.3741,-243.5 1046.3741,-243.5 1046.3741,-224.5 905.3741,-224.5"/>
<text text-anchor="middle" x="975.8741" y="-231.5" font-family="FreeSans.ttf" font-size="10.00" fill="#000000">iDynTree/Core/Direction.h</text>
</a>
</g>
</g>
<!-- Node0&#45;&gt;Node31 -->
<g id="edge56" class="edge">
<title>Node0&#45;&gt;Node31</title>
<path fill="none" stroke="#191970" d="M893.0706,-627.2066C887.7854,-607.8521 876.8741,-563.2612 876.8741,-525 876.8741,-525 876.8741,-525 876.8741,-346 876.8741,-302.255 919.7958,-267.5596 949.1159,-248.9623"/>
<polygon fill="#191970" stroke="#191970" points="951.0022,-251.9114 957.7159,-243.7153 947.3564,-245.9358 951.0022,-251.9114"/>
</g>
<!-- Node32 -->
<g id="node33" class="node">
<title>Node32</title>
<g id="a_node33"><a xlink:href="Transform_8h.html" target="_top" xlink:title="iDynTree/Core/Transform.h">
<polygon fill="none" stroke="#000000" points="553.8741,-392.5 553.8741,-411.5 699.8741,-411.5 699.8741,-392.5 553.8741,-392.5"/>
<text text-anchor="middle" x="626.8741" y="-399.5" font-family="FreeSans.ttf" font-size="10.00" fill="#000000">iDynTree/Core/Transform.h</text>
</a>
</g>
</g>
<!-- Node0&#45;&gt;Node32 -->
<g id="edge60" class="edge">
<title>Node0&#45;&gt;Node32</title>
<path fill="none" stroke="#191970" d="M884.9958,-627.4967C843.9348,-591.6255 698.0451,-464.1755 645.7221,-418.4657"/>
<polygon fill="#191970" stroke="#191970" points="647.7214,-415.5649 637.8877,-411.6216 643.116,-420.8366 647.7214,-415.5649"/>
</g>
<!-- Node33 -->
<g id="node34" class="node">
<title>Node33</title>
<g id="a_node34"><a xlink:href="VectorDynSize_8h.html" target="_top" xlink:title="iDynTree/Core/VectorDynSize.h">
<polygon fill="none" stroke="#000000" points="961.3741,-168.5 961.3741,-187.5 1128.3741,-187.5 1128.3741,-168.5 961.3741,-168.5"/>
<text text-anchor="middle" x="1044.8741" y="-175.5" font-family="FreeSans.ttf" font-size="10.00" fill="#000000">iDynTree/Core/VectorDynSize.h</text>
</a>
</g>
</g>
<!-- Node0&#45;&gt;Node33 -->
<g id="edge65" class="edge">
<title>Node0&#45;&gt;Node33</title>
<path fill="none" stroke="#191970" d="M948.1295,-627.415C1000.9638,-614.3527 1074.8741,-585.3028 1074.8741,-525 1074.8741,-525 1074.8741,-525 1074.8741,-290 1074.8741,-256.4397 1062.1505,-219.0899 1053.2756,-197.12"/>
<polygon fill="#191970" stroke="#191970" points="1056.3995,-195.5191 1049.3007,-187.6542 1049.9455,-198.2294 1056.3995,-195.5191"/>
</g>
<!-- Node34 -->
<g id="node35" class="node">
<title>Node34</title>
<polygon fill="none" stroke="#bfbfbf" points="1103.3741,-571.5 1103.3741,-590.5 1206.3741,-590.5 1206.3741,-571.5 1103.3741,-571.5"/>
<text text-anchor="middle" x="1154.8741" y="-578.5" font-family="FreeSans.ttf" font-size="10.00" fill="#000000">yarp/math/Math.h</text>
</g>
<!-- Node0&#45;&gt;Node34 -->
<g id="edge68" class="edge">
<title>Node0&#45;&gt;Node34</title>
<path fill="none" stroke="#191970" d="M940.1035,-627.4369C984.6156,-617.8127 1053.3231,-602.957 1100.9909,-592.6504"/>
<polygon fill="#191970" stroke="#191970" points="1101.7926,-596.058 1110.8271,-590.5237 1100.3133,-589.2161 1101.7926,-596.058"/>
</g>
<!-- Node2 -->
<g id="node3" class="node">
<title>Node2</title>
<polygon fill="none" stroke="#bfbfbf" points="500.8741,-515.5 500.8741,-534.5 598.8741,-534.5 598.8741,-515.5 500.8741,-515.5"/>
<text text-anchor="middle" x="549.8741" y="-522.5" font-family="FreeSans.ttf" font-size="10.00" fill="#000000">yarp/sig/Matrix.h</text>
</g>
<!-- Node1&#45;&gt;Node2 -->
<g id="edge2" class="edge">
<title>Node1&#45;&gt;Node2</title>
<path fill="none" stroke="#191970" d="M532.532,-571.2455C535.3325,-563.7776 539.2831,-553.2427 542.7064,-544.1137"/>
<polygon fill="#191970" stroke="#191970" points="546.0239,-545.2349 546.2581,-534.6427 539.4696,-542.777 546.0239,-545.2349"/>
</g>
<!-- Node3 -->
<g id="node4" class="node">
<title>Node3</title>
<polygon fill="none" stroke="#bfbfbf" points="232.8741,-515.5 232.8741,-534.5 330.8741,-534.5 330.8741,-515.5 232.8741,-515.5"/>
<text text-anchor="middle" x="281.8741" y="-522.5" font-family="FreeSans.ttf" font-size="10.00" fill="#000000">yarp/sig/Vector.h</text>
</g>
<!-- Node1&#45;&gt;Node3 -->
<g id="edge3" class="edge">
<title>Node1&#45;&gt;Node3</title>
<path fill="none" stroke="#191970" d="M486.6939,-571.4369C444.4218,-561.8529 379.2679,-547.0812 333.8324,-536.78"/>
<polygon fill="#191970" stroke="#191970" points="334.4067,-533.3215 323.8803,-534.5237 332.8588,-540.1482 334.4067,-533.3215"/>
</g>
<!-- Node4 -->
<g id="node5" class="node">
<title>Node4</title>
<g id="a_node5"><a xlink:href="Wrench_8h.html" target="_top" xlink:title="iDynTree/Core/Wrench.h">
<polygon fill="none" stroke="#000000" points="349.3741,-515.5 349.3741,-534.5 482.3741,-534.5 482.3741,-515.5 349.3741,-515.5"/>
<text text-anchor="middle" x="415.8741" y="-522.5" font-family="FreeSans.ttf" font-size="10.00" fill="#000000">iDynTree/Core/Wrench.h</text>
</a>
</g>
</g>
<!-- Node1&#45;&gt;Node4 -->
<g id="edge4" class="edge">
<title>Node1&#45;&gt;Node4</title>
<path fill="none" stroke="#191970" d="M509.4487,-571.3733C491.4719,-562.4644 464.53,-549.1127 444.165,-539.0203"/>
<polygon fill="#191970" stroke="#191970" points="445.5602,-535.8055 435.046,-534.5011 442.4519,-542.0776 445.5602,-535.8055"/>
</g>
<!-- Node5 -->
<g id="node6" class="node">
<title>Node5</title>
<g id="a_node6"><a xlink:href="SpatialForceVector_8h.html" target="_top" xlink:title="iDynTree/Core/SpatialForce\lVector.h">
<polygon fill="none" stroke="#000000" points="243.8741,-448.5 243.8741,-478.5 391.8741,-478.5 391.8741,-448.5 243.8741,-448.5"/>
<text text-anchor="start" x="251.8741" y="-466.5" font-family="FreeSans.ttf" font-size="10.00" fill="#000000">iDynTree/Core/SpatialForce</text>
<text text-anchor="middle" x="317.8741" y="-455.5" font-family="FreeSans.ttf" font-size="10.00" fill="#000000">Vector.h</text>
</a>
</g>
</g>
<!-- Node4&#45;&gt;Node5 -->
<g id="edge5" class="edge">
<title>Node4&#45;&gt;Node5</title>
<path fill="none" stroke="#191970" d="M400.5616,-515.3906C387.1757,-506.9903 367.2888,-494.5103 350.3727,-483.8945"/>
<polygon fill="#191970" stroke="#191970" points="352.1783,-480.8956 341.8476,-478.5446 348.4574,-486.8248 352.1783,-480.8956"/>
</g>
<!-- Node6 -->
<g id="node7" class="node">
<title>Node6</title>
<g id="a_node7"><a xlink:href="VectorFixSize_8h.html" target="_top" xlink:title="iDynTree/Core/VectorFixSize.h">
<polygon fill="none" stroke="#000000" points="358.3741,-168.5 358.3741,-187.5 519.3741,-187.5 519.3741,-168.5 358.3741,-168.5"/>
<text text-anchor="middle" x="438.8741" y="-175.5" font-family="FreeSans.ttf" font-size="10.00" fill="#000000">iDynTree/Core/VectorFixSize.h</text>
</a>
</g>
</g>
<!-- Node5&#45;&gt;Node6 -->
<g id="edge6" class="edge">
<title>Node5&#45;&gt;Node6</title>
<path fill="none" stroke="#191970" d="M321.9035,-448.416C327.4808,-426.1752 336.8741,-383.1957 336.8741,-346 336.8741,-346 336.8741,-346 336.8741,-290 336.8741,-245.6687 381.0965,-211.1591 411.305,-192.7571"/>
<polygon fill="#191970" stroke="#191970" points="413.3038,-195.6426 420.1657,-187.5702 409.7674,-189.6016 413.3038,-195.6426"/>
</g>
<!-- Node22 -->
<g id="node23" class="node">
<title>Node22</title>
<g id="a_node23"><a xlink:href="GeomVector3_8h.html" target="_top" xlink:title="iDynTree/Core/GeomVector3.h">
<polygon fill="none" stroke="#000000" points="145.3741,-224.5 145.3741,-243.5 308.3741,-243.5 308.3741,-224.5 145.3741,-224.5"/>
<text text-anchor="middle" x="226.8741" y="-231.5" font-family="FreeSans.ttf" font-size="10.00" fill="#000000">iDynTree/Core/GeomVector3.h</text>
</a>
</g>
</g>
<!-- Node5&#45;&gt;Node22 -->
<g id="edge25" class="edge">
<title>Node5&#45;&gt;Node22</title>
<path fill="none" stroke="#191970" d="M311.9033,-448.4419C295.9429,-408.1901 252.3009,-298.1259 234.543,-253.3409"/>
<polygon fill="#191970" stroke="#191970" points="237.7384,-251.9039 230.7988,-243.8981 231.2313,-254.4841 237.7384,-251.9039"/>
</g>
<!-- Node23 -->
<g id="node24" class="node">
<title>Node23</title>
<g id="a_node24"><a xlink:href="SpatialVector_8h.html" target="_top" xlink:title="iDynTree/Core/SpatialVector.h">
<polygon fill="none" stroke="#000000" points="109.3741,-392.5 109.3741,-411.5 270.3741,-411.5 270.3741,-392.5 109.3741,-392.5"/>
<text text-anchor="middle" x="189.8741" y="-399.5" font-family="FreeSans.ttf" font-size="10.00" fill="#000000">iDynTree/Core/SpatialVector.h</text>
</a>
</g>
</g>
<!-- Node5&#45;&gt;Node23 -->
<g id="edge27" class="edge">
<title>Node5&#45;&gt;Node23</title>
<path fill="none" stroke="#191970" d="M286.5618,-448.4554C265.8603,-438.509 238.9218,-425.5659 218.7388,-415.8686"/>
<polygon fill="#191970" stroke="#191970" points="220.2389,-412.7064 209.7095,-411.5303 217.2073,-419.0159 220.2389,-412.7064"/>
</g>
<!-- Node7 -->
<g id="node8" class="node">
<title>Node7</title>
<g id="a_node8"><a xlink:href="Utils_8h.html" target="_top" xlink:title="iDynTree/Core/Utils.h">
<polygon fill="none" stroke="#000000" points="428.3741,-56.5 428.3741,-75.5 547.3741,-75.5 547.3741,-56.5 428.3741,-56.5"/>
<text text-anchor="middle" x="487.8741" y="-63.5" font-family="FreeSans.ttf" font-size="10.00" fill="#000000">iDynTree/Core/Utils.h</text>
</a>
</g>
</g>
<!-- Node6&#45;&gt;Node7 -->
<g id="edge7" class="edge">
<title>Node6&#45;&gt;Node7</title>
<path fill="none" stroke="#191970" d="M495.5106,-168.4697C516.5271,-161.8875 538.2917,-150.77 550.8741,-132 564.1302,-112.2248 540.1076,-92.9211 518.0086,-80.351"/>
<polygon fill="#191970" stroke="#191970" points="519.5518,-77.2069 509.0865,-75.5552 516.2376,-83.3727 519.5518,-77.2069"/>
</g>
<!-- Node8 -->
<g id="node9" class="node">
<title>Node8</title>
<polygon fill="none" stroke="#bfbfbf" points="531.3741,-.5 531.3741,-19.5 584.3741,-19.5 584.3741,-.5 531.3741,-.5"/>
<text text-anchor="middle" x="557.8741" y="-7.5" font-family="FreeSans.ttf" font-size="10.00" fill="#000000">cstddef</text>
</g>
<!-- Node6&#45;&gt;Node8 -->
<g id="edge23" class="edge">
<title>Node6&#45;&gt;Node8</title>
<path fill="none" stroke="#191970" d="M480.3122,-168.448C513.3491,-159.8947 555.7076,-146.4952 565.8741,-132 587.406,-101.3003 575.4108,-54.8735 565.9075,-29.045"/>
<polygon fill="#191970" stroke="#191970" points="569.1269,-27.6675 562.2156,-19.6373 562.6107,-30.2248 569.1269,-27.6675"/>
</g>
<!-- Node10 -->
<g id="node11" class="node">
<title>Node10</title>
<g id="a_node11"><a xlink:href="Span_8h.html" target="_top" xlink:title="iDynTree/Core/Span.h">
<polygon fill="none" stroke="#000000" points="699.3741,-56.5 699.3741,-75.5 820.3741,-75.5 820.3741,-56.5 699.3741,-56.5"/>
<text text-anchor="middle" x="759.8741" y="-63.5" font-family="FreeSans.ttf" font-size="10.00" fill="#000000">iDynTree/Core/Span.h</text>
</a>
</g>
</g>
<!-- Node6&#45;&gt;Node10 -->
<g id="edge10" class="edge">
<title>Node6&#45;&gt;Node10</title>
<path fill="none" stroke="#191970" d="M487.8264,-168.4812C525.1439,-160.5603 577.4994,-148.0064 621.8741,-132 627.4301,-129.9959 691.922,-98.8972 730.7443,-80.1139"/>
<polygon fill="#191970" stroke="#191970" points="732.5337,-83.1362 740.0098,-75.629 729.4839,-76.8355 732.5337,-83.1362"/>
</g>
<!-- Node11 -->
<g id="node12" class="node">
<title>Node11</title>
<polygon fill="none" stroke="#bfbfbf" points="353.8741,-.5 353.8741,-19.5 405.8741,-19.5 405.8741,-.5 353.8741,-.5"/>
<text text-anchor="middle" x="379.8741" y="-7.5" font-family="FreeSans.ttf" font-size="10.00" fill="#000000">cassert</text>
</g>
<!-- Node6&#45;&gt;Node11 -->
<g id="edge22" class="edge">
<title>Node6&#45;&gt;Node11</title>
<path fill="none" stroke="#191970" d="M419.0904,-168.3499C405.6126,-160.5844 388.8252,-148.2836 380.8741,-132 364.7634,-99.006 370.0126,-54.7559 375.0814,-29.622"/>
<polygon fill="#191970" stroke="#191970" points="378.5075,-30.3381 377.2501,-19.8181 371.6728,-28.8261 378.5075,-30.3381"/>
</g>
<!-- Node19 -->
<g id="node20" class="node">
<title>Node19</title>
<polygon fill="none" stroke="#bfbfbf" points="673.8741,-112.5 673.8741,-131.5 717.8741,-131.5 717.8741,-112.5 673.8741,-112.5"/>
<text text-anchor="middle" x="695.8741" y="-119.5" font-family="FreeSans.ttf" font-size="10.00" fill="#000000">string</text>
</g>
<!-- Node6&#45;&gt;Node19 -->
<g id="edge20" class="edge">
<title>Node6&#45;&gt;Node19</title>
<path fill="none" stroke="#191970" d="M489.5556,-168.4346C534.4868,-159.7207 601.7946,-146.0949 659.8741,-132 661.1506,-131.6902 662.4504,-131.3669 663.7618,-131.034"/>
<polygon fill="#191970" stroke="#191970" points="665.0773,-134.3065 673.8492,-128.3649 663.2866,-127.5394 665.0773,-134.3065"/>
</g>
<!-- Node20 -->
<g id="node21" class="node">
<title>Node20</title>
<polygon fill="none" stroke="#bfbfbf" points="133.8741,-112.5 133.8741,-131.5 189.8741,-131.5 189.8741,-112.5 133.8741,-112.5"/>
<text text-anchor="middle" x="161.8741" y="-119.5" font-family="FreeSans.ttf" font-size="10.00" fill="#000000">sstream</text>
</g>
<!-- Node6&#45;&gt;Node20 -->
<g id="edge21" class="edge">
<title>Node6&#45;&gt;Node20</title>
<path fill="none" stroke="#191970" d="M391.5708,-168.4369C337.4735,-157.5003 249.9607,-139.8081 200.0242,-129.7127"/>
<polygon fill="#191970" stroke="#191970" points="200.4595,-126.2299 189.9642,-127.6789 199.0723,-133.0911 200.4595,-126.2299"/>
</g>
<!-- Node6&#45;&gt;Node21 -->
<g id="edge24" class="edge">
<title>Node6&#45;&gt;Node21</title>
<path fill="none" stroke="#191970" d="M416.5263,-168.3733C395.4707,-159.3032 363.7245,-145.6279 340.1566,-135.4755"/>
<polygon fill="#191970" stroke="#191970" points="341.4991,-132.243 330.9303,-131.5011 338.7297,-138.6719 341.4991,-132.243"/>
</g>
<!-- Node7&#45;&gt;Node8 -->
<g id="edge8" class="edge">
<title>Node7&#45;&gt;Node8</title>
<path fill="none" stroke="#191970" d="M500.0671,-56.2455C510.5062,-47.8943 525.7395,-35.7076 537.948,-25.9408"/>
<polygon fill="#191970" stroke="#191970" points="540.1985,-28.6227 545.8207,-19.6427 535.8256,-23.1566 540.1985,-28.6227"/>
</g>
<!-- Node9 -->
<g id="node10" class="node">
<title>Node9</title>
<polygon fill="none" stroke="#bfbfbf" points="432.8741,-.5 432.8741,-19.5 512.8741,-19.5 512.8741,-.5 432.8741,-.5"/>
<text text-anchor="middle" x="472.8741" y="-7.5" font-family="FreeSans.ttf" font-size="10.00" fill="#000000">CoreExport.h</text>
</g>
<!-- Node7&#45;&gt;Node9 -->
<g id="edge9" class="edge">
<title>Node7&#45;&gt;Node9</title>
<path fill="none" stroke="#191970" d="M485.2613,-56.2455C483.2824,-48.8579 480.4997,-38.4689 478.0728,-29.4087"/>
<polygon fill="#191970" stroke="#191970" points="481.4252,-28.3966 475.4569,-19.6427 474.6635,-30.2078 481.4252,-28.3966"/>
</g>
<!-- Node10&#45;&gt;Node8 -->
<g id="edge14" class="edge">
<title>Node10&#45;&gt;Node8</title>
<path fill="none" stroke="#191970" d="M725.5365,-56.4915C693.9989,-47.7568 645.7001,-34.3762 594.5346,-20.1821"/>
<polygon fill="#191970" stroke="#191970" points="595.1816,-16.7295 584.6099,-17.4286 593.3102,-23.4747 595.1816,-16.7295"/>
</g>
<!-- Node10&#45;&gt;Node11 -->
<g id="edge11" class="edge">
<title>Node10&#45;&gt;Node11</title>
<path fill="none" stroke="#191970" d="M699.2283,-59.315C631.7477,-51.5011 519.6012,-37.3965 423.8741,-20 421.3788,-19.5465 418.8109,-19.0478 416.2287,-18.5226"/>
<polygon fill="#191970" stroke="#191970" points="416.8326,-15.0726 406.3218,-16.4047 415.3691,-21.918 416.8326,-15.0726"/>
</g>
<!-- Node12 -->
<g id="node13" class="node">
<title>Node12</title>
<polygon fill="none" stroke="#bfbfbf" points="835.8741,-.5 835.8741,-19.5 899.8741,-19.5 899.8741,-.5 835.8741,-.5"/>
<text text-anchor="middle" x="867.8741" y="-7.5" font-family="FreeSans.ttf" font-size="10.00" fill="#000000">algorithm</text>
</g>
<!-- Node10&#45;&gt;Node12 -->
<g id="edge12" class="edge">
<title>Node10&#45;&gt;Node12</title>
<path fill="none" stroke="#191970" d="M778.6862,-56.2455C795.7214,-47.4125 821.0316,-34.2887 840.3422,-24.2758"/>
<polygon fill="#191970" stroke="#191970" points="842.0111,-27.353 849.2775,-19.6427 838.7888,-21.1388 842.0111,-27.353"/>
</g>
<!-- Node13 -->
<g id="node14" class="node">
<title>Node13</title>
<polygon fill="none" stroke="#bfbfbf" points="917.8741,-.5 917.8741,-19.5 959.8741,-19.5 959.8741,-.5 917.8741,-.5"/>
<text text-anchor="middle" x="938.8741" y="-7.5" font-family="FreeSans.ttf" font-size="10.00" fill="#000000">array</text>
</g>
<!-- Node10&#45;&gt;Node13 -->
<g id="edge13" class="edge">
<title>Node10&#45;&gt;Node13</title>
<path fill="none" stroke="#191970" d="M791.6207,-56.4232C819.8241,-47.8658 862.4026,-34.8267 907.8505,-20.2852"/>
<polygon fill="#191970" stroke="#191970" points="909.1357,-23.5486 917.588,-17.1605 906.9968,-16.8834 909.1357,-23.5486"/>
</g>
<!-- Node14 -->
<g id="node15" class="node">
<title>Node14</title>
<polygon fill="none" stroke="#bfbfbf" points="978.3741,-.5 978.3741,-19.5 1031.3741,-19.5 1031.3741,-.5 978.3741,-.5"/>
<text text-anchor="middle" x="1004.8741" y="-7.5" font-family="FreeSans.ttf" font-size="10.00" fill="#000000">iterator</text>
</g>
<!-- Node10&#45;&gt;Node14 -->
<g id="edge15" class="edge">
<title>Node10&#45;&gt;Node14</title>
<path fill="none" stroke="#191970" d="M806.5284,-56.4891C846.8395,-48.1009 906.8706,-35.204 968.3104,-20.0413"/>
<polygon fill="#191970" stroke="#191970" points="969.3196,-23.397 978.1804,-17.5887 967.6314,-16.6036 969.3196,-23.397"/>
</g>
<!-- Node15 -->
<g id="node16" class="node">
<title>Node15</title>
<polygon fill="none" stroke="#bfbfbf" points="1049.8741,-.5 1049.8741,-19.5 1093.8741,-19.5 1093.8741,-.5 1049.8741,-.5"/>
<text text-anchor="middle" x="1071.8741" y="-7.5" font-family="FreeSans.ttf" font-size="10.00" fill="#000000">limits</text>
</g>
<!-- Node10&#45;&gt;Node15 -->
<g id="edge16" class="edge">
<title>Node10&#45;&gt;Node15</title>
<path fill="none" stroke="#191970" d="M820.4194,-58.756C875.4478,-51.57 958.9587,-39.1638 1039.7942,-19.9861"/>
<polygon fill="#191970" stroke="#191970" points="1040.7354,-23.3596 1049.6368,-17.6137 1039.095,-16.5545 1040.7354,-23.3596"/>
</g>
<!-- Node16 -->
<g id="node17" class="node">
<title>Node16</title>
<polygon fill="none" stroke="#bfbfbf" points="689.3741,-.5 689.3741,-19.5 754.3741,-19.5 754.3741,-.5 689.3741,-.5"/>
<text text-anchor="middle" x="721.8741" y="-7.5" font-family="FreeSans.ttf" font-size="10.00" fill="#000000">stdexcept</text>
</g>
<!-- Node10&#45;&gt;Node16 -->
<g id="edge17" class="edge">
<title>Node10&#45;&gt;Node16</title>
<path fill="none" stroke="#191970" d="M753.255,-56.2455C747.9695,-48.4564 740.4199,-37.3308 734.0503,-27.9439"/>
<polygon fill="#191970" stroke="#191970" points="736.9285,-25.9522 728.4173,-19.6427 731.1362,-29.8827 736.9285,-25.9522"/>
</g>
<!-- Node17 -->
<g id="node18" class="node">
<title>Node17</title>
<polygon fill="none" stroke="#bfbfbf" points="602.3741,-.5 602.3741,-19.5 671.3741,-19.5 671.3741,-.5 602.3741,-.5"/>
<text text-anchor="middle" x="636.8741" y="-7.5" font-family="FreeSans.ttf" font-size="10.00" fill="#000000">type_traits</text>
</g>
<!-- Node10&#45;&gt;Node17 -->
<g id="edge18" class="edge">
<title>Node10&#45;&gt;Node17</title>
<path fill="none" stroke="#191970" d="M738.7296,-56.3733C718.9849,-47.3838 689.3042,-33.8706 667.0686,-23.7471"/>
<polygon fill="#191970" stroke="#191970" points="668.294,-20.4594 657.7426,-19.5011 665.3935,-26.8302 668.294,-20.4594"/>
</g>
<!-- Node18 -->
<g id="node19" class="node">
<title>Node18</title>
<polygon fill="none" stroke="#bfbfbf" points="772.3741,-.5 772.3741,-19.5 817.3741,-19.5 817.3741,-.5 772.3741,-.5"/>
<text text-anchor="middle" x="794.8741" y="-7.5" font-family="FreeSans.ttf" font-size="10.00" fill="#000000">utility</text>
</g>
<!-- Node10&#45;&gt;Node18 -->
<g id="edge19" class="edge">
<title>Node10&#45;&gt;Node18</title>
<path fill="none" stroke="#191970" d="M765.9706,-56.2455C770.7886,-48.5367 777.6492,-37.5598 783.4773,-28.2348"/>
<polygon fill="#191970" stroke="#191970" points="786.5154,-29.9777 788.8474,-19.6427 780.5794,-26.2677 786.5154,-29.9777"/>
</g>
<!-- Node22&#45;&gt;Node6 -->
<g id="edge26" class="edge">
<title>Node22&#45;&gt;Node6</title>
<path fill="none" stroke="#191970" d="M263.3182,-224.3733C299.181,-214.9001 354.0619,-200.4032 392.9023,-190.1435"/>
<polygon fill="#191970" stroke="#191970" points="394.131,-193.439 402.9055,-187.5011 392.3433,-186.6712 394.131,-193.439"/>
</g>
<!-- Node23&#45;&gt;Node7 -->
<g id="edge52" class="edge">
<title>Node23&#45;&gt;Node7</title>
<path fill="none" stroke="#191970" d="M154.1162,-392.4387C133.946,-385.3775 109.6931,-373.8365 93.8741,-356 19.8443,-272.5291 -39.9265,-194.7809 34.8741,-112 60.0434,-84.1454 297.2946,-72.3005 418.0203,-68.0431"/>
<polygon fill="#191970" stroke="#191970" points="418.3976,-71.5323 428.2711,-67.69 418.1565,-64.5364 418.3976,-71.5323"/>
</g>
<!-- Node23&#45;&gt;Node20 -->
<g id="edge55" class="edge">
<title>Node23&#45;&gt;Node20</title>
<path fill="none" stroke="#191970" d="M168.7345,-392.4901C136.5289,-376.3882 78.8741,-340.5089 78.8741,-290 78.8741,-290 78.8741,-290 78.8741,-234 78.8741,-193.0829 115.0744,-157.3617 139.6606,-137.8195"/>
<polygon fill="#191970" stroke="#191970" points="141.9766,-140.4545 147.7943,-131.5999 137.7245,-134.8939 141.9766,-140.4545"/>
</g>
<!-- Node23&#45;&gt;Node22 -->
<g id="edge53" class="edge">
<title>Node23&#45;&gt;Node22</title>
<path fill="none" stroke="#191970" d="M191.9694,-392.4862C197.8435,-365.8144 214.5602,-289.9117 222.5365,-253.695"/>
<polygon fill="#191970" stroke="#191970" points="225.9768,-254.3467 224.7096,-243.8279 219.1406,-252.841 225.9768,-254.3467"/>
</g>
<!-- Node24 -->
<g id="node25" class="node">
<title>Node24</title>
<g id="a_node25"><a xlink:href="Position_8h.html" target="_top" xlink:title="Position.h">
<polygon fill="none" stroke="#000000" points="594.3741,-336.5 594.3741,-355.5 659.3741,-355.5 659.3741,-336.5 594.3741,-336.5"/>
<text text-anchor="middle" x="626.8741" y="-343.5" font-family="FreeSans.ttf" font-size="10.00" fill="#000000">Position.h</text>
</a>
</g>
</g>
<!-- Node23&#45;&gt;Node24 -->
<g id="edge28" class="edge">
<title>Node23&#45;&gt;Node24</title>
<path fill="none" stroke="#191970" d="M264.5005,-392.4369C356.51,-380.6462 509.7916,-361.0037 584.0063,-351.4934"/>
<polygon fill="#191970" stroke="#191970" points="584.8916,-354.9086 594.3656,-350.1658 584.0018,-347.9654 584.8916,-354.9086"/>
</g>
<!-- Node26 -->
<g id="node27" class="node">
<title>Node26</title>
<g id="a_node27"><a xlink:href="Rotation_8h.html" target="_top" xlink:title="iDynTree/Core/Rotation.h">
<polygon fill="none" stroke="#000000" points="413.3741,-280.5 413.3741,-299.5 550.3741,-299.5 550.3741,-280.5 413.3741,-280.5"/>
<text text-anchor="middle" x="481.8741" y="-287.5" font-family="FreeSans.ttf" font-size="10.00" fill="#000000">iDynTree/Core/Rotation.h</text>
</a>
</g>
</g>
<!-- Node23&#45;&gt;Node26 -->
<g id="edge51" class="edge">
<title>Node23&#45;&gt;Node26</title>
<path fill="none" stroke="#191970" d="M214.7698,-392.4509C267.0276,-372.4069 388.2251,-325.9202 447.7041,-303.1063"/>
<polygon fill="#191970" stroke="#191970" points="448.958,-306.374 457.0413,-299.5249 446.4511,-299.8383 448.958,-306.374"/>
</g>
<!-- Node30 -->
<g id="node31" class="node">
<title>Node30</title>
<polygon fill="none" stroke="#bfbfbf" points="43.8741,-112.5 43.8741,-131.5 103.8741,-131.5 103.8741,-112.5 43.8741,-112.5"/>
<text text-anchor="middle" x="73.8741" y="-119.5" font-family="FreeSans.ttf" font-size="10.00" fill="#000000">iostream</text>
</g>
<!-- Node23&#45;&gt;Node30 -->
<g id="edge54" class="edge">
<title>Node23&#45;&gt;Node30</title>
<path fill="none" stroke="#191970" d="M128.321,-392.4986C87.5614,-384.8051 39.3843,-372.5293 26.8741,-356 -23.5744,-289.3441 34.678,-182.424 61.6367,-140.0959"/>
<polygon fill="#191970" stroke="#191970" points="64.6178,-141.9321 67.1558,-131.6458 58.7571,-138.1042 64.6178,-141.9321"/>
</g>
<!-- Node24&#45;&gt;Node19 -->
<g id="edge50" class="edge">
<title>Node24&#45;&gt;Node19</title>
<path fill="none" stroke="#191970" d="M656.209,-336.4955C693.2298,-322.73 755.278,-293.3401 781.8741,-244 803.9031,-203.1325 752.9796,-159.7147 720.4232,-137.3315"/>
<polygon fill="#191970" stroke="#191970" points="722.0678,-134.2218 711.8036,-131.5956 718.1898,-140.0494 722.0678,-134.2218"/>
</g>
<!-- Node25 -->
<g id="node26" class="node">
<title>Node25</title>
<g id="a_node26"><a xlink:href="PositionRaw_8h.html" target="_top" xlink:title="iDynTree/Core/PositionRaw.h">
<polygon fill="none" stroke="#000000" points="616.8741,-224.5 616.8741,-243.5 772.8741,-243.5 772.8741,-224.5 616.8741,-224.5"/>
<text text-anchor="middle" x="694.8741" y="-231.5" font-family="FreeSans.ttf" font-size="10.00" fill="#000000">iDynTree/Core/PositionRaw.h</text>
</a>
</g>
</g>
<!-- Node24&#45;&gt;Node25 -->
<g id="edge29" class="edge">
<title>Node24&#45;&gt;Node25</title>
<path fill="none" stroke="#191970" d="M632.6717,-336.4509C644.0133,-317.7707 669.2989,-276.1238 683.8993,-252.0761"/>
<polygon fill="#191970" stroke="#191970" points="686.893,-253.8892 689.0911,-243.5249 680.9095,-250.2563 686.893,-253.8892"/>
</g>
<!-- Node24&#45;&gt;Node26 -->
<g id="edge32" class="edge">
<title>Node24&#45;&gt;Node26</title>
<path fill="none" stroke="#191970" d="M601.9477,-336.3733C578.2539,-327.2226 542.423,-313.3844 516.0673,-303.2057"/>
<polygon fill="#191970" stroke="#191970" points="517.0646,-299.8389 506.4752,-299.5011 514.5427,-306.3689 517.0646,-299.8389"/>
</g>
<!-- Node25&#45;&gt;Node6 -->
<g id="edge30" class="edge">
<title>Node25&#45;&gt;Node6</title>
<path fill="none" stroke="#191970" d="M651.157,-224.4369C607.2525,-214.8328 539.5328,-200.0191 492.4291,-189.7152"/>
<polygon fill="#191970" stroke="#191970" points="492.9278,-186.2416 482.4109,-187.5237 491.4319,-193.0799 492.9278,-186.2416"/>
</g>
<!-- Node25&#45;&gt;Node19 -->
<g id="edge31" class="edge">
<title>Node25&#45;&gt;Node19</title>
<path fill="none" stroke="#191970" d="M694.9593,-224.4509C695.1224,-206.184 695.4816,-165.9553 695.6982,-141.6976"/>
<polygon fill="#191970" stroke="#191970" points="699.1995,-141.5558 695.789,-131.5249 692.1998,-141.4932 699.1995,-141.5558"/>
</g>
<!-- Node26&#45;&gt;Node6 -->
<g id="edge49" class="edge">
<title>Node26&#45;&gt;Node6</title>
<path fill="none" stroke="#191970" d="M444.192,-280.3393C425.6027,-273.4646 404.8588,-262.137 393.8741,-244 383.2288,-226.4235 399.9817,-207.0831 415.983,-193.9089"/>
<polygon fill="#191970" stroke="#191970" points="418.3517,-196.5021 424.1331,-187.6237 414.0769,-190.9589 418.3517,-196.5021"/>
</g>
<!-- Node26&#45;&gt;Node19 -->
<g id="edge33" class="edge">
<title>Node26&#45;&gt;Node19</title>
<path fill="none" stroke="#191970" d="M504.2296,-280.4911C522.6559,-272.1544 549.0504,-259.0387 569.8741,-244 614.4509,-211.8068 658.8362,-164.3244 681.1184,-139.1428"/>
<polygon fill="#191970" stroke="#191970" points="683.8443,-141.3426 687.7959,-131.5123 678.5765,-136.7327 683.8443,-141.3426"/>
</g>
<!-- Node26&#45;&gt;Node22 -->
<g id="edge34" class="edge">
<title>Node26&#45;&gt;Node22</title>
<path fill="none" stroke="#191970" d="M438.3278,-280.4369C394.5948,-270.8328 327.1396,-256.0191 280.2199,-245.7152"/>
<polygon fill="#191970" stroke="#191970" points="280.7588,-242.2502 270.2408,-243.5237 279.2573,-249.0872 280.7588,-242.2502"/>
</g>
<!-- Node27 -->
<g id="node28" class="node">
<title>Node27</title>
<g id="a_node28"><a xlink:href="RotationRaw_8h.html" target="_top" xlink:title="iDynTree/Core/RotationRaw.h">
<polygon fill="none" stroke="#000000" points="402.8741,-224.5 402.8741,-243.5 560.8741,-243.5 560.8741,-224.5 402.8741,-224.5"/>
<text text-anchor="middle" x="481.8741" y="-231.5" font-family="FreeSans.ttf" font-size="10.00" fill="#000000">iDynTree/Core/RotationRaw.h</text>
</a>
</g>
</g>
<!-- Node26&#45;&gt;Node27 -->
<g id="edge35" class="edge">
<title>Node26&#45;&gt;Node27</title>
<path fill="none" stroke="#191970" d="M481.8741,-280.2455C481.8741,-272.9382 481.8741,-262.6944 481.8741,-253.7046"/>
<polygon fill="#191970" stroke="#191970" points="485.3742,-253.6426 481.8741,-243.6427 478.3742,-253.6427 485.3742,-253.6426"/>
</g>
<!-- Node27&#45;&gt;Node19 -->
<g id="edge48" class="edge">
<title>Node27&#45;&gt;Node19</title>
<path fill="none" stroke="#191970" d="M493.2841,-224.4397C510.2288,-210.5922 543.4341,-184.7794 574.8741,-168 603.801,-152.5617 639.0574,-139.7795 664.0332,-131.6403"/>
<polygon fill="#191970" stroke="#191970" points="665.2655,-134.921 673.7275,-128.5457 663.1368,-128.2525 665.2655,-134.921"/>
</g>
<!-- Node28 -->
<g id="node29" class="node">
<title>Node28</title>
<g id="a_node29"><a xlink:href="MatrixFixSize_8h.html" target="_top" xlink:title="iDynTree/Core/MatrixFixSize.h">
<polygon fill="none" stroke="#000000" points="175.3741,-168.5 175.3741,-187.5 336.3741,-187.5 336.3741,-168.5 175.3741,-168.5"/>
<text text-anchor="middle" x="255.8741" y="-175.5" font-family="FreeSans.ttf" font-size="10.00" fill="#000000">iDynTree/Core/MatrixFixSize.h</text>
</a>
</g>
</g>
<!-- Node27&#45;&gt;Node28 -->
<g id="edge36" class="edge">
<title>Node27&#45;&gt;Node28</title>
<path fill="none" stroke="#191970" d="M443.2801,-224.4369C404.8457,-214.9133 345.738,-200.2672 304.203,-189.9753"/>
<polygon fill="#191970" stroke="#191970" points="304.8572,-186.5316 294.3089,-187.5237 303.1735,-193.3261 304.8572,-186.5316"/>
</g>
<!-- Node28&#45;&gt;Node7 -->
<g id="edge37" class="edge">
<title>Node28&#45;&gt;Node7</title>
<path fill="none" stroke="#191970" d="M255.7447,-168.3583C256.1048,-153.925 259.0192,-126.8176 274.8741,-112 295.4524,-92.7679 364.1541,-80.3459 418.0349,-73.3183"/>
<polygon fill="#191970" stroke="#191970" points="418.7692,-76.7534 428.2511,-72.0264 417.891,-69.8087 418.7692,-76.7534"/>
</g>
<!-- Node28&#45;&gt;Node11 -->
<g id="edge43" class="edge">
<title>Node28&#45;&gt;Node11</title>
<path fill="none" stroke="#191970" d="M254.0262,-168.4528C251.9236,-155.0681 249.8483,-130.3135 258.8741,-112 278.7114,-71.7495 322.4869,-41.3409 351.5819,-24.5992"/>
<polygon fill="#191970" stroke="#191970" points="353.4328,-27.5745 360.4636,-19.6486 350.0247,-21.4602 353.4328,-27.5745"/>
</g>
<!-- Node28&#45;&gt;Node19 -->
<g id="edge45" class="edge">
<title>Node28&#45;&gt;Node19</title>
<path fill="none" stroke="#191970" d="M331.0128,-168.4369C428.4,-156.0422 593.9626,-134.9706 663.5505,-126.1139"/>
<polygon fill="#191970" stroke="#191970" points="664.3916,-129.5352 673.8697,-124.8006 663.5078,-122.5912 664.3916,-129.5352"/>
</g>
<!-- Node28&#45;&gt;Node20 -->
<g id="edge47" class="edge">
<title>Node28&#45;&gt;Node20</title>
<path fill="none" stroke="#191970" d="M239.5005,-168.2455C224.9432,-159.5731 203.4431,-146.7645 186.7589,-136.825"/>
<polygon fill="#191970" stroke="#191970" points="188.4424,-133.7539 178.06,-131.6427 184.8597,-139.7676 188.4424,-133.7539"/>
</g>
<!-- Node28&#45;&gt;Node21 -->
<g id="edge44" class="edge">
<title>Node28&#45;&gt;Node21</title>
<path fill="none" stroke="#191970" d="M265.106,-168.2455C272.7058,-160.2155 283.6618,-148.6394 292.7108,-139.0781"/>
<polygon fill="#191970" stroke="#191970" points="295.4161,-141.3115 299.748,-131.6427 290.3321,-136.4998 295.4161,-141.3115"/>
</g>
<!-- Node29 -->
<g id="node30" class="node">
<title>Node29</title>
<g id="a_node30"><a xlink:href="MatrixView_8h.html" target="_top" xlink:title="iDynTree/Core/MatrixView.h">
<polygon fill="none" stroke="#000000" points="390.3741,-112.5 390.3741,-131.5 541.3741,-131.5 541.3741,-112.5 390.3741,-112.5"/>
<text text-anchor="middle" x="465.8741" y="-119.5" font-family="FreeSans.ttf" font-size="10.00" fill="#000000">iDynTree/Core/MatrixView.h</text>
</a>
</g>
</g>
<!-- Node28&#45;&gt;Node29 -->
<g id="edge38" class="edge">
<title>Node28&#45;&gt;Node29</title>
<path fill="none" stroke="#191970" d="M291.9744,-168.3733C327.4988,-158.9001 381.862,-144.4032 420.336,-134.1435"/>
<polygon fill="#191970" stroke="#191970" points="421.4844,-137.4596 430.2449,-131.5011 419.6807,-130.696 421.4844,-137.4596"/>
</g>
<!-- Node28&#45;&gt;Node30 -->
<g id="edge46" class="edge">
<title>Node28&#45;&gt;Node30</title>
<path fill="none" stroke="#191970" d="M224.5872,-168.3733C194.0081,-158.9643 147.3229,-144.5996 114.0208,-134.3528"/>
<polygon fill="#191970" stroke="#191970" points="114.7351,-130.9107 104.148,-131.315 112.6764,-137.6012 114.7351,-130.9107"/>
</g>
<!-- Node29&#45;&gt;Node7 -->
<g id="edge42" class="edge">
<title>Node29&#45;&gt;Node7</title>
<path fill="none" stroke="#191970" d="M469.7062,-112.2455C472.64,-104.7776 476.7787,-94.2427 480.3651,-85.1137"/>
<polygon fill="#191970" stroke="#191970" points="483.6869,-86.23 484.0859,-75.6427 477.1717,-83.6704 483.6869,-86.23"/>
</g>
<!-- Node29&#45;&gt;Node10 -->
<g id="edge41" class="edge">
<title>Node29&#45;&gt;Node10</title>
<path fill="none" stroke="#191970" d="M516.0804,-112.4369C566.9248,-102.7522 645.5801,-87.7703 699.7254,-77.4569"/>
<polygon fill="#191970" stroke="#191970" points="700.7063,-80.8331 709.8748,-75.5237 699.3965,-73.9567 700.7063,-80.8331"/>
</g>
<!-- Node29&#45;&gt;Node11 -->
<g id="edge39" class="edge">
<title>Node29&#45;&gt;Node11</title>
<path fill="none" stroke="#191970" d="M454.2076,-112.1549C444.1435,-103.3134 429.5819,-89.6574 418.8741,-76 407.244,-61.1663 396.5458,-42.5457 389.3079,-28.868"/>
<polygon fill="#191970" stroke="#191970" points="392.3803,-27.1896 384.6852,-19.907 386.1593,-30.3988 392.3803,-27.1896"/>
</g>
<!-- Node29&#45;&gt;Node17 -->
<g id="edge40" class="edge">
<title>Node29&#45;&gt;Node17</title>
<path fill="none" stroke="#191970" d="M488.3269,-112.3436C507.2251,-103.8238 534.6473,-90.5279 556.8741,-76 579.7192,-61.0679 603.5578,-40.6799 619.2043,-26.5318"/>
<polygon fill="#191970" stroke="#191970" points="621.5822,-29.1001 626.591,-19.764 616.8533,-23.9388 621.5822,-29.1001"/>
</g>
<!-- Node31&#45;&gt;Node6 -->
<g id="edge58" class="edge">
<title>Node31&#45;&gt;Node6</title>
<path fill="none" stroke="#191970" d="M905.1185,-226.6214C808.5528,-216.5512 635.413,-198.4957 529.4677,-187.4474"/>
<polygon fill="#191970" stroke="#191970" points="529.7386,-183.9567 519.4295,-186.4006 529.0125,-190.919 529.7386,-183.9567"/>
</g>
<!-- Node31&#45;&gt;Node7 -->
<g id="edge59" class="edge">
<title>Node31&#45;&gt;Node7</title>
<path fill="none" stroke="#191970" d="M967.4429,-224.0545C954.7964,-209.7273 929.5389,-183.3228 902.8741,-168 792.5336,-104.5935 643.7463,-80.3636 557.5691,-71.2771"/>
<polygon fill="#191970" stroke="#191970" points="557.6793,-67.7703 547.3769,-70.2424 556.9722,-74.7346 557.6793,-67.7703"/>
</g>
<!-- Node31&#45;&gt;Node19 -->
<g id="edge57" class="edge">
<title>Node31&#45;&gt;Node19</title>
<path fill="none" stroke="#191970" d="M963.4634,-224.3026C944.6575,-210.0449 907.3634,-183.4486 871.8741,-168 823.7749,-147.0623 763.998,-133.9293 727.9469,-127.2877"/>
<polygon fill="#191970" stroke="#191970" points="728.4583,-123.8237 717.9984,-125.5093 727.2265,-130.7145 728.4583,-123.8237"/>
</g>
<!-- Node32&#45;&gt;Node19 -->
<g id="edge64" class="edge">
<title>Node32&#45;&gt;Node19</title>
<path fill="none" stroke="#191970" d="M646.3835,-392.3693C685.4986,-371.7128 771.9787,-318.8717 797.8741,-244 809.2203,-211.1945 801.9801,-194.763 779.8741,-168 766.2942,-151.5593 745.2386,-140.0465 727.6059,-132.6502"/>
<polygon fill="#191970" stroke="#191970" points="728.8183,-129.3661 718.2312,-128.9596 726.254,-135.8796 728.8183,-129.3661"/>
</g>
<!-- Node32&#45;&gt;Node24 -->
<g id="edge61" class="edge">
<title>Node32&#45;&gt;Node24</title>
<path fill="none" stroke="#191970" d="M626.8741,-392.2455C626.8741,-384.9382 626.8741,-374.6944 626.8741,-365.7046"/>
<polygon fill="#191970" stroke="#191970" points="630.3742,-365.6426 626.8741,-355.6427 623.3742,-365.6427 630.3742,-365.6426"/>
</g>
<!-- Node32&#45;&gt;Node26 -->
<g id="edge62" class="edge">
<title>Node32&#45;&gt;Node26</title>
<path fill="none" stroke="#191970" d="M614.5115,-392.4509C589.5781,-373.1921 533.0407,-329.5218 502.4505,-305.8935"/>
<polygon fill="#191970" stroke="#191970" points="504.259,-302.8679 494.2054,-299.5249 499.9799,-308.4078 504.259,-302.8679"/>
</g>
<!-- Node32&#45;&gt;Node28 -->
<g id="edge63" class="edge">
<title>Node32&#45;&gt;Node28</title>
<path fill="none" stroke="#191970" d="M571.1686,-392.4582C453.9206,-371.1214 188.15,-315.7379 135.8741,-244 116.4645,-217.3644 153.2551,-200.2232 191.0762,-190.1038"/>
<polygon fill="#191970" stroke="#191970" points="192.3566,-193.3908 201.2008,-187.5574 190.6491,-186.6023 192.3566,-193.3908"/>
</g>
<!-- Node33&#45;&gt;Node10 -->
<g id="edge66" class="edge">
<title>Node33&#45;&gt;Node10</title>
<path fill="none" stroke="#191970" d="M1033.7346,-168.4222C1016.4814,-154.0724 981.7428,-127.0726 947.8741,-112 910.6935,-95.4536 866.6145,-84.2675 830.4862,-77.0733"/>
<polygon fill="#191970" stroke="#191970" points="831.0015,-73.6082 820.5193,-75.1489 829.6744,-80.4813 831.0015,-73.6082"/>
</g>
<!-- Node33&#45;&gt;Node19 -->
<g id="edge67" class="edge">
<title>Node33&#45;&gt;Node19</title>
<path fill="none" stroke="#191970" d="M985.2754,-168.4369C911.048,-156.5265 786.8886,-136.604 728.3238,-127.2068"/>
<polygon fill="#191970" stroke="#191970" points="728.6069,-123.7076 718.1787,-125.579 727.4978,-130.6192 728.6069,-123.7076"/>
</g>
</g>
</svg>
